<?xml version="1.0" encoding="UTF-8"?>
<!-- Generator: visioncortex VTracer 0.6.4 -->
<svg version="1.1" xmlns="http://www.w3.org/2000/svg" width="256" height="256">
<path d="M0 0 C0.86 -0 1.73 -0.01 2.62 -0.01 C5.51 -0.03 8.41 -0.02 11.31 -0.02 C13.38 -0.03 15.46 -0.04 17.54 -0.04 C23.18 -0.06 28.82 -0.07 34.46 -0.07 C39.17 -0.07 43.88 -0.08 48.58 -0.08 C59.7 -0.1 70.81 -0.1 81.92 -0.1 C93.38 -0.1 104.84 -0.12 116.3 -0.15 C126.14 -0.18 135.98 -0.19 145.82 -0.19 C151.7 -0.19 157.57 -0.2 163.45 -0.22 C168.98 -0.24 174.51 -0.24 180.03 -0.22 C182.06 -0.22 184.09 -0.22 186.11 -0.24 C188.89 -0.25 191.66 -0.24 194.43 -0.23 C195.23 -0.24 196.02 -0.25 196.85 -0.26 C203.01 -0.18 208.32 1.43 212.94 5.68 C218.15 11.6 218.69 16.75 218.6 24.29 C218.6 25.15 218.59 26 218.59 26.89 C218.58 29.62 218.55 32.35 218.53 35.08 C218.52 36.94 218.51 38.79 218.5 40.65 C218.48 45.19 218.45 49.73 218.4 54.27 C217.08 54.93 215.76 55.59 214.4 56.27 C214.4 60.56 214.4 64.85 214.4 69.27 C215.39 69.27 216.38 69.27 217.4 69.27 C218.79 72.03 218.54 74.28 218.55 77.38 C218.56 79.33 218.56 79.33 218.57 81.33 C218.58 82.78 218.58 84.23 218.58 85.69 C218.59 87.21 218.59 88.74 218.6 90.26 C218.62 94.41 218.63 98.56 218.64 102.71 C218.64 105.3 218.65 107.89 218.65 110.49 C218.67 118.6 218.69 126.71 218.7 134.83 C218.71 144.19 218.73 153.55 218.77 162.91 C218.8 170.15 218.82 177.39 218.82 184.63 C218.82 188.95 218.83 193.27 218.86 197.59 C218.88 201.66 218.89 205.73 218.87 209.8 C218.87 211.29 218.88 212.78 218.89 214.27 C219.03 230.33 219.03 230.33 212.99 236.77 C207.33 241.85 202.17 242.56 194.81 242.53 C193.94 242.54 193.08 242.54 192.19 242.55 C189.29 242.56 186.4 242.56 183.5 242.56 C181.43 242.56 179.35 242.57 177.27 242.58 C171.63 242.6 165.99 242.6 160.35 242.6 C155.64 242.6 150.93 242.61 146.22 242.62 C135.11 242.63 124 242.64 112.89 242.64 C101.43 242.64 89.97 242.66 78.51 242.69 C68.67 242.72 58.83 242.73 48.99 242.73 C43.11 242.72 37.24 242.73 31.36 242.75 C25.83 242.77 20.3 242.77 14.77 242.76 C12.75 242.75 10.72 242.76 8.69 242.77 C5.92 242.79 3.15 242.78 0.38 242.76 C-0.42 242.77 -1.22 242.78 -2.04 242.79 C-8.2 242.72 -13.51 241.11 -18.13 236.86 C-23.15 231.15 -23.89 226.05 -23.86 218.67 C-23.87 217.81 -23.87 216.94 -23.88 216.05 C-23.89 213.16 -23.89 210.26 -23.89 207.37 C-23.89 205.29 -23.9 203.21 -23.91 201.14 C-23.92 195.5 -23.93 189.86 -23.93 184.21 C-23.93 179.51 -23.94 174.8 -23.95 170.09 C-23.96 158.98 -23.97 147.86 -23.97 136.75 C-23.97 125.29 -23.99 113.83 -24.02 102.37 C-24.04 92.53 -24.05 82.69 -24.05 72.85 C-24.05 66.98 -24.06 61.1 -24.08 55.22 C-24.1 49.69 -24.1 44.17 -24.08 38.64 C-24.08 36.61 -24.09 34.58 -24.1 32.56 C-24.11 29.79 -24.11 27.02 -24.09 24.24 C-24.1 23.45 -24.11 22.65 -24.12 21.83 C-24.05 15.66 -22.44 10.35 -18.18 5.74 C-12.48 0.71 -7.38 -0.03 0 0 Z " fill="#D9E0E6" transform="translate(30.595779418945313,6.732574462890625)"/>
<path d="M0 0 C0.86 -0 1.73 -0.01 2.62 -0.01 C5.51 -0.03 8.41 -0.02 11.31 -0.02 C13.38 -0.03 15.46 -0.04 17.54 -0.04 C23.18 -0.06 28.82 -0.07 34.46 -0.07 C39.17 -0.07 43.88 -0.08 48.58 -0.08 C59.7 -0.1 70.81 -0.1 81.92 -0.1 C93.38 -0.1 104.84 -0.12 116.3 -0.15 C126.14 -0.18 135.98 -0.19 145.82 -0.19 C151.7 -0.19 157.57 -0.2 163.45 -0.22 C168.98 -0.24 174.51 -0.24 180.03 -0.22 C182.06 -0.22 184.09 -0.22 186.11 -0.24 C188.89 -0.25 191.66 -0.24 194.43 -0.23 C195.23 -0.24 196.02 -0.25 196.85 -0.26 C203.01 -0.18 208.32 1.43 212.94 5.68 C218.12 11.56 218.71 16.73 218.67 24.22 C218.67 25.07 218.67 25.92 218.68 26.8 C218.68 28.6 218.67 30.4 218.66 32.2 C218.65 34.96 218.66 37.71 218.68 40.47 C218.68 42.22 218.67 43.97 218.67 45.72 C218.67 46.54 218.68 47.37 218.68 48.22 C218.63 54.04 218.63 54.04 216.4 56.27 C213.47 56.47 210.62 56.54 207.68 56.53 C206.31 56.53 206.31 56.53 204.91 56.54 C201.83 56.55 198.74 56.55 195.66 56.54 C193.46 56.55 191.26 56.55 189.06 56.56 C183.06 56.57 177.06 56.57 171.07 56.57 C166.07 56.57 161.07 56.57 156.07 56.58 C143.61 56.59 131.15 56.59 118.69 56.58 C107.86 56.58 97.03 56.59 86.2 56.61 C75.09 56.63 63.98 56.63 52.87 56.63 C46.63 56.63 40.39 56.63 34.14 56.65 C28.28 56.66 22.41 56.66 16.54 56.64 C14.38 56.64 12.22 56.64 10.07 56.65 C7.13 56.66 4.19 56.65 1.26 56.64 C0.39 56.65 -0.47 56.66 -1.36 56.66 C-7.23 56.61 -7.23 56.61 -9.17 54.79 C-9.64 54.29 -10.11 53.78 -10.6 53.27 C-13.2 52.55 -13.2 52.55 -15.6 52.27 C-15.54 74.72 -15.46 97.17 -15.36 119.63 C-15.32 130.05 -15.28 140.48 -15.25 150.9 C-15.23 159.99 -15.19 169.07 -15.15 178.16 C-15.12 182.97 -15.1 187.78 -15.1 192.59 C-15.09 197.12 -15.07 201.65 -15.04 206.18 C-15.03 207.84 -15.03 209.5 -15.03 211.17 C-15.03 213.44 -15.02 215.71 -14.99 217.98 C-14.99 219.88 -14.99 219.88 -14.98 221.83 C-14.49 226.23 -13.46 229.75 -9.93 232.63 C-6.38 233.6 -2.87 233.55 0.78 233.53 C1.63 233.53 2.48 233.54 3.36 233.54 C6.23 233.55 9.09 233.55 11.95 233.54 C14 233.55 16.05 233.55 18.1 233.56 C23.67 233.57 29.24 233.57 34.82 233.57 C39.47 233.57 44.11 233.57 48.76 233.58 C59.73 233.59 70.7 233.59 81.67 233.58 C92.99 233.58 104.31 233.59 115.63 233.61 C125.35 233.63 135.06 233.63 144.77 233.63 C150.58 233.63 156.38 233.63 162.19 233.65 C167.64 233.66 173.1 233.66 178.56 233.64 C180.56 233.64 182.57 233.64 184.57 233.65 C187.31 233.66 190.04 233.65 192.78 233.64 C193.57 233.65 194.36 233.66 195.18 233.66 C199.94 233.62 203.37 233.06 207.4 230.27 C209.62 226.54 209.66 223.1 209.67 218.83 C209.68 217.53 209.69 216.23 209.69 214.89 C209.69 213.46 209.69 212.03 209.69 210.59 C209.7 209.08 209.7 207.57 209.71 206.05 C209.73 202.79 209.74 199.54 209.74 196.28 C209.75 191.13 209.77 185.99 209.79 180.84 C209.85 168.99 209.88 157.14 209.91 145.29 C209.94 134.42 209.98 123.55 210.03 112.68 C210.05 107.56 210.07 102.44 210.07 97.32 C210.08 94.14 210.09 90.97 210.11 87.79 C210.11 86.31 210.12 84.83 210.12 83.35 C210.11 81.34 210.13 79.33 210.14 77.32 C210.14 76.19 210.15 75.07 210.15 73.9 C210.4 71.27 210.4 71.27 212.4 69.27 C215.03 69.14 215.03 69.14 217.4 69.27 C218.79 72.03 218.54 74.28 218.55 77.38 C218.56 79.33 218.56 79.33 218.57 81.33 C218.58 82.78 218.58 84.23 218.58 85.69 C218.59 87.21 218.59 88.74 218.6 90.26 C218.62 94.41 218.63 98.56 218.64 102.71 C218.64 105.3 218.65 107.89 218.65 110.49 C218.67 118.6 218.69 126.71 218.7 134.83 C218.71 144.19 218.73 153.55 218.77 162.91 C218.8 170.15 218.82 177.39 218.82 184.63 C218.82 188.95 218.83 193.27 218.86 197.59 C218.88 201.66 218.89 205.73 218.87 209.8 C218.87 211.29 218.88 212.78 218.89 214.27 C219.03 230.33 219.03 230.33 212.99 236.77 C207.33 241.85 202.17 242.56 194.81 242.53 C193.94 242.54 193.08 242.54 192.19 242.55 C189.29 242.56 186.4 242.56 183.5 242.56 C181.43 242.56 179.35 242.57 177.27 242.58 C171.63 242.6 165.99 242.6 160.35 242.6 C155.64 242.6 150.93 242.61 146.22 242.62 C135.11 242.63 124 242.64 112.89 242.64 C101.43 242.64 89.97 242.66 78.51 242.69 C68.67 242.72 58.83 242.73 48.99 242.73 C43.11 242.72 37.24 242.73 31.36 242.75 C25.83 242.77 20.3 242.77 14.77 242.76 C12.75 242.75 10.72 242.76 8.69 242.77 C5.92 242.79 3.15 242.78 0.38 242.76 C-0.42 242.77 -1.22 242.78 -2.04 242.79 C-8.2 242.72 -13.51 241.11 -18.13 236.86 C-23.15 231.15 -23.89 226.05 -23.86 218.67 C-23.87 217.81 -23.87 216.94 -23.88 216.05 C-23.89 213.16 -23.89 210.26 -23.89 207.37 C-23.89 205.29 -23.9 203.21 -23.91 201.14 C-23.92 195.5 -23.93 189.86 -23.93 184.21 C-23.93 179.51 -23.94 174.8 -23.95 170.09 C-23.96 158.98 -23.97 147.86 -23.97 136.75 C-23.97 125.29 -23.99 113.83 -24.02 102.37 C-24.04 92.53 -24.05 82.69 -24.05 72.85 C-24.05 66.98 -24.06 61.1 -24.08 55.22 C-24.1 49.69 -24.1 44.17 -24.08 38.64 C-24.08 36.61 -24.09 34.58 -24.1 32.56 C-24.11 29.79 -24.11 27.02 -24.09 24.24 C-24.1 23.45 -24.11 22.65 -24.12 21.83 C-24.05 15.66 -22.44 10.35 -18.18 5.74 C-12.48 0.71 -7.38 -0.03 0 0 Z " fill="#60E2A0" transform="translate(30.595779418945313,6.732574462890625)"/>
<path d="M0 0 C0.86 -0 1.73 -0.01 2.62 -0.01 C5.51 -0.03 8.41 -0.02 11.31 -0.02 C13.38 -0.03 15.46 -0.04 17.54 -0.04 C23.18 -0.06 28.82 -0.07 34.46 -0.07 C39.17 -0.07 43.88 -0.08 48.58 -0.08 C59.7 -0.1 70.81 -0.1 81.92 -0.1 C93.38 -0.1 104.84 -0.12 116.3 -0.15 C126.14 -0.18 135.98 -0.19 145.82 -0.19 C151.7 -0.19 157.57 -0.2 163.45 -0.22 C168.98 -0.24 174.51 -0.24 180.03 -0.22 C182.06 -0.22 184.09 -0.22 186.11 -0.24 C188.89 -0.25 191.66 -0.24 194.43 -0.23 C195.23 -0.24 196.02 -0.25 196.85 -0.26 C203.01 -0.18 208.32 1.43 212.94 5.68 C218.12 11.56 218.71 16.73 218.67 24.22 C218.67 25.07 218.67 25.92 218.68 26.8 C218.68 28.6 218.67 30.4 218.66 32.2 C218.65 34.96 218.66 37.71 218.68 40.47 C218.68 42.22 218.67 43.97 218.67 45.72 C218.67 46.54 218.68 47.37 218.68 48.22 C218.63 54.04 218.63 54.04 216.4 56.27 C213.47 56.47 210.62 56.54 207.68 56.53 C206.31 56.53 206.31 56.53 204.91 56.54 C201.83 56.55 198.74 56.55 195.66 56.54 C193.46 56.55 191.26 56.55 189.06 56.56 C183.06 56.57 177.06 56.57 171.07 56.57 C166.07 56.57 161.07 56.57 156.07 56.58 C143.61 56.59 131.15 56.59 118.69 56.58 C107.86 56.58 97.03 56.59 86.2 56.61 C75.09 56.63 63.98 56.63 52.87 56.63 C46.63 56.63 40.39 56.63 34.14 56.65 C28.28 56.66 22.41 56.66 16.54 56.64 C14.38 56.64 12.22 56.64 10.07 56.65 C7.13 56.66 4.19 56.65 1.26 56.64 C0.39 56.65 -0.47 56.66 -1.36 56.66 C-7.16 56.61 -7.16 56.61 -9.35 54.88 C-10.6 53.27 -10.6 53.27 -10.35 51.14 C-9.6 49.27 -9.6 49.27 -8.6 48.27 C-5.78 48.17 -2.98 48.14 -0.16 48.15 C0.73 48.15 1.63 48.15 2.55 48.14 C5.57 48.14 8.6 48.15 11.62 48.15 C13.78 48.15 15.94 48.15 18.09 48.15 C23.97 48.15 29.85 48.16 35.73 48.17 C41.86 48.17 48 48.17 54.13 48.17 C65.76 48.18 77.39 48.19 89.02 48.2 C102.25 48.21 115.48 48.21 128.71 48.22 C155.94 48.23 183.17 48.25 210.4 48.27 C210.34 43.8 210.25 39.34 210.14 34.87 C210.11 33.35 210.08 31.83 210.06 30.32 C210.02 28.13 209.97 25.94 209.92 23.76 C209.89 22.44 209.86 21.13 209.84 19.77 C209.38 16.05 208.79 14.15 206.4 11.27 C202.19 8.73 197.68 8.98 192.9 9.01 C192.05 9 191.19 9 190.31 9 C187.45 8.98 184.59 8.99 181.73 8.99 C179.68 8.99 177.63 8.98 175.58 8.98 C170 8.96 164.43 8.96 158.86 8.97 C154.21 8.97 149.56 8.96 144.91 8.96 C133.94 8.95 122.97 8.95 112.01 8.95 C100.69 8.96 89.37 8.95 78.05 8.92 C68.33 8.91 58.61 8.9 48.9 8.9 C43.09 8.91 37.29 8.9 31.49 8.89 C26.03 8.88 20.57 8.88 15.12 8.89 C13.11 8.89 11.11 8.89 9.1 8.88 C6.37 8.87 3.64 8.88 0.91 8.89 C0.11 8.89 -0.68 8.88 -1.5 8.87 C-6.03 8.92 -9.06 9.35 -12.6 12.27 C-15.4 15.87 -14.88 20.28 -14.86 24.64 C-14.86 25.5 -14.86 26.35 -14.87 27.23 C-14.88 30.09 -14.87 32.95 -14.87 35.81 C-14.87 37.86 -14.88 39.91 -14.89 41.96 C-14.9 47.53 -14.9 53.11 -14.9 58.68 C-14.9 63.33 -14.9 67.98 -14.91 72.63 C-14.92 83.6 -14.92 94.57 -14.91 105.53 C-14.91 116.85 -14.92 128.17 -14.94 139.49 C-14.96 149.21 -14.96 158.92 -14.96 168.64 C-14.96 174.44 -14.96 180.25 -14.97 186.05 C-14.99 191.51 -14.98 196.97 -14.97 202.42 C-14.97 204.43 -14.97 206.43 -14.98 208.43 C-14.99 211.17 -14.98 213.9 -14.97 216.64 C-14.98 217.43 -14.98 218.22 -14.99 219.04 C-14.95 223.81 -14.32 227.18 -11.6 231.27 C-8.08 234.14 -3.55 233.55 0.78 233.53 C1.63 233.53 2.48 233.54 3.36 233.54 C6.23 233.55 9.09 233.55 11.95 233.54 C14 233.55 16.05 233.55 18.1 233.56 C23.67 233.57 29.24 233.57 34.82 233.57 C39.47 233.57 44.11 233.57 48.76 233.58 C59.73 233.59 70.7 233.59 81.67 233.58 C92.99 233.58 104.31 233.59 115.63 233.61 C125.35 233.63 135.06 233.63 144.77 233.63 C150.58 233.63 156.38 233.63 162.19 233.65 C167.64 233.66 173.1 233.66 178.56 233.64 C180.56 233.64 182.57 233.64 184.57 233.65 C187.31 233.66 190.04 233.65 192.78 233.64 C193.57 233.65 194.36 233.66 195.18 233.66 C199.94 233.62 203.37 233.06 207.4 230.27 C209.62 226.54 209.66 223.1 209.67 218.83 C209.68 217.53 209.69 216.23 209.69 214.89 C209.69 213.46 209.69 212.03 209.69 210.59 C209.7 209.08 209.7 207.57 209.71 206.05 C209.73 202.79 209.74 199.54 209.74 196.28 C209.75 191.13 209.77 185.99 209.79 180.84 C209.85 168.99 209.88 157.14 209.91 145.29 C209.94 134.42 209.98 123.55 210.03 112.68 C210.05 107.56 210.07 102.44 210.07 97.32 C210.08 94.14 210.09 90.97 210.11 87.79 C210.11 86.31 210.12 84.83 210.12 83.35 C210.11 81.34 210.13 79.33 210.14 77.32 C210.14 76.19 210.15 75.07 210.15 73.9 C210.4 71.27 210.4 71.27 212.4 69.27 C215.03 69.14 215.03 69.14 217.4 69.27 C218.79 72.03 218.54 74.28 218.55 77.38 C218.56 79.33 218.56 79.33 218.57 81.33 C218.58 82.78 218.58 84.23 218.58 85.69 C218.59 87.21 218.59 88.74 218.6 90.26 C218.62 94.41 218.63 98.56 218.64 102.71 C218.64 105.3 218.65 107.89 218.65 110.49 C218.67 118.6 218.69 126.71 218.7 134.83 C218.71 144.19 218.73 153.55 218.77 162.91 C218.8 170.15 218.82 177.39 218.82 184.63 C218.82 188.95 218.83 193.27 218.86 197.59 C218.88 201.66 218.89 205.73 218.87 209.8 C218.87 211.29 218.88 212.78 218.89 214.27 C219.03 230.33 219.03 230.33 212.99 236.77 C207.33 241.85 202.17 242.56 194.81 242.53 C193.94 242.54 193.08 242.54 192.19 242.55 C189.29 242.56 186.4 242.56 183.5 242.56 C181.43 242.56 179.35 242.57 177.27 242.58 C171.63 242.6 165.99 242.6 160.35 242.6 C155.64 242.6 150.93 242.61 146.22 242.62 C135.11 242.63 124 242.64 112.89 242.64 C101.43 242.64 89.97 242.66 78.51 242.69 C68.67 242.72 58.83 242.73 48.99 242.73 C43.11 242.72 37.24 242.73 31.36 242.75 C25.83 242.77 20.3 242.77 14.77 242.76 C12.75 242.75 10.72 242.76 8.69 242.77 C5.92 242.79 3.15 242.78 0.38 242.76 C-0.42 242.77 -1.22 242.78 -2.04 242.79 C-8.2 242.72 -13.51 241.11 -18.13 236.86 C-23.15 231.15 -23.89 226.05 -23.86 218.67 C-23.87 217.81 -23.87 216.94 -23.88 216.05 C-23.89 213.16 -23.89 210.26 -23.89 207.37 C-23.89 205.29 -23.9 203.21 -23.91 201.14 C-23.92 195.5 -23.93 189.86 -23.93 184.21 C-23.93 179.51 -23.94 174.8 -23.95 170.09 C-23.96 158.98 -23.97 147.86 -23.97 136.75 C-23.97 125.29 -23.99 113.83 -24.02 102.37 C-24.04 92.53 -24.05 82.69 -24.05 72.85 C-24.05 66.98 -24.06 61.1 -24.08 55.22 C-24.1 49.69 -24.1 44.17 -24.08 38.64 C-24.08 36.61 -24.09 34.58 -24.1 32.56 C-24.11 29.79 -24.11 27.02 -24.09 24.24 C-24.1 23.45 -24.11 22.65 -24.12 21.83 C-24.05 15.66 -22.44 10.35 -18.18 5.74 C-12.48 0.71 -7.38 -0.03 0 0 Z " fill="#494D56" transform="translate(30.595779418945313,6.732574462890625)"/>
<path d="M0 0 C1.37 -0.01 1.37 -0.01 2.77 -0.02 C4.26 -0.01 4.26 -0.01 5.77 -0.01 C6.78 -0.01 7.8 -0.01 8.84 -0.01 C10.99 -0.01 13.13 -0.01 15.28 -0 C18.57 0.01 21.86 -0 25.15 -0.01 C27.23 -0.01 29.31 -0.01 31.39 -0.01 C32.38 -0.01 33.37 -0.01 34.39 -0.02 C35.31 -0.01 36.22 -0.01 37.16 0 C38.37 0 38.37 0 39.61 0 C41.58 0.26 41.58 0.26 43.58 2.26 C43.78 4.82 43.86 7.26 43.85 9.82 C43.85 10.57 43.85 11.32 43.85 12.09 C43.85 13.67 43.85 15.25 43.84 16.83 C43.83 19.25 43.84 21.67 43.86 24.09 C43.85 25.63 43.85 27.16 43.85 28.7 C43.85 29.42 43.86 30.15 43.86 30.9 C43.81 36.03 43.81 36.03 41.58 38.26 C39.61 38.49 39.61 38.49 37.23 38.45 C36.38 38.45 35.53 38.44 34.65 38.43 C33.76 38.42 32.87 38.4 31.96 38.38 C30.61 38.37 30.61 38.37 29.24 38.36 C27.02 38.33 24.8 38.3 22.58 38.26 C22.58 42.55 22.58 46.84 22.58 51.26 C24.3 51.25 26.01 51.24 27.78 51.23 C33.45 51.19 39.11 51.17 44.77 51.16 C48.21 51.14 51.64 51.13 55.08 51.11 C59.02 51.08 62.97 51.07 66.92 51.06 C68.15 51.05 69.39 51.04 70.66 51.03 C71.81 51.03 72.95 51.03 74.12 51.03 C75.13 51.03 76.14 51.02 77.18 51.02 C79.58 51.26 79.58 51.26 81.58 53.26 C81.81 55.51 81.81 55.51 81.78 58.27 C81.77 59.75 81.77 59.75 81.76 61.25 C81.73 62.8 81.73 62.8 81.71 64.38 C81.7 65.42 81.69 66.46 81.68 67.54 C81.66 70.11 81.62 72.68 81.58 75.26 C82.71 75.24 83.85 75.21 85.01 75.19 C86.49 75.17 87.98 75.15 89.46 75.13 C90.2 75.12 90.95 75.1 91.72 75.08 C93.67 75.07 95.63 75.16 97.58 75.26 C100.1 77.78 99.83 79.34 99.86 82.77 C99.85 83.89 99.85 83.89 99.85 85.04 C99.85 85.81 99.85 86.58 99.85 87.37 C99.85 89 99.85 90.63 99.84 92.25 C99.83 94.75 99.84 97.24 99.86 99.74 C99.85 101.32 99.85 102.9 99.85 104.48 C99.85 105.23 99.86 105.98 99.86 106.75 C99.81 112.03 99.81 112.03 97.58 114.26 C94.51 114.45 91.53 114.51 88.45 114.49 C87.55 114.49 86.64 114.49 85.71 114.49 C83.8 114.48 81.88 114.48 79.97 114.46 C77.03 114.45 74.09 114.44 71.15 114.44 C69.29 114.44 67.43 114.43 65.58 114.43 C64.25 114.43 64.25 114.43 62.9 114.42 C56.7 114.37 56.7 114.37 55.58 113.26 C55.47 110.62 55.42 108 55.41 105.36 C55.41 104.17 55.41 104.17 55.4 102.95 C55.4 101.27 55.4 99.59 55.4 97.91 C55.39 95.34 55.38 92.76 55.36 90.18 C55.35 88.55 55.35 86.92 55.35 85.29 C55.34 84.52 55.34 83.75 55.33 82.95 C55.35 77.49 55.35 77.49 57.58 75.26 C60.34 75.11 62.96 75.07 65.71 75.13 C69.61 75.2 69.61 75.2 73.58 75.26 C73.58 69.65 73.58 64.04 73.58 58.26 C56.75 58.26 39.92 58.26 22.58 58.26 C22.58 63.87 22.58 69.48 22.58 75.26 C27.76 75.18 27.76 75.18 32.93 75.08 C34.82 75.06 36.7 75.16 38.58 75.26 C40.58 77.26 40.58 77.26 40.81 80.79 C40.81 82.3 40.8 83.82 40.78 85.33 C40.77 86.13 40.77 86.92 40.77 87.74 C40.76 90.29 40.73 92.84 40.71 95.38 C40.7 97.11 40.69 98.83 40.68 100.56 C40.66 104.79 40.62 109.03 40.58 113.26 C37.22 114.94 33.41 114.4 29.71 114.39 C28.39 114.39 28.39 114.39 27.04 114.39 C25.18 114.4 23.31 114.39 21.45 114.39 C18.59 114.38 15.74 114.39 12.88 114.4 C11.07 114.39 9.26 114.39 7.46 114.39 C6.6 114.39 5.74 114.4 4.86 114.4 C-1.19 114.37 -1.19 114.37 -3.42 113.26 C-3.47 108.17 -3.5 103.08 -3.53 97.99 C-3.54 96.26 -3.55 94.52 -3.57 92.79 C-3.59 90.3 -3.6 87.82 -3.61 85.33 C-3.62 84.55 -3.63 83.77 -3.64 82.97 C-3.64 81.07 -3.54 79.16 -3.42 77.26 C-1.42 75.26 -1.42 75.26 2.28 75.06 C3.75 75.07 5.23 75.1 6.71 75.13 C10.61 75.2 10.61 75.2 14.58 75.26 C14.58 69.65 14.58 64.04 14.58 58.26 C-2.25 58.26 -19.08 58.26 -36.42 58.26 C-36.42 63.87 -36.42 69.48 -36.42 75.26 C-31.24 75.18 -31.24 75.18 -26.07 75.08 C-24.18 75.06 -22.3 75.16 -20.42 75.26 C-17.86 77.81 -18.18 79.47 -18.17 82.95 C-18.17 83.72 -18.18 84.5 -18.19 85.29 C-18.19 86.09 -18.19 86.88 -18.19 87.7 C-18.19 89.38 -18.2 91.06 -18.21 92.74 C-18.23 95.31 -18.23 97.89 -18.23 100.47 C-18.24 102.1 -18.24 103.73 -18.25 105.36 C-18.25 106.13 -18.25 106.91 -18.25 107.71 C-18.3 113.14 -18.3 113.14 -19.42 114.26 C-22.42 114.37 -25.41 114.42 -28.41 114.43 C-29.77 114.43 -29.77 114.43 -31.15 114.44 C-33.07 114.44 -34.98 114.44 -36.9 114.44 C-39.84 114.45 -42.78 114.46 -45.72 114.48 C-47.57 114.49 -49.43 114.49 -51.29 114.49 C-52.17 114.5 -53.06 114.5 -53.97 114.51 C-60.19 114.49 -60.19 114.49 -62.42 112.26 C-62.62 109.63 -62.7 107.11 -62.68 104.48 C-62.69 103.71 -62.69 102.94 -62.69 102.15 C-62.69 100.52 -62.69 98.89 -62.68 97.26 C-62.67 94.77 -62.68 92.27 -62.69 89.78 C-62.69 88.2 -62.69 86.62 -62.68 85.04 C-62.69 84.29 -62.69 83.54 -62.7 82.77 C-62.65 77.49 -62.65 77.49 -60.42 75.26 C-57.67 75.11 -55.03 75.07 -52.29 75.13 C-51.54 75.14 -50.78 75.15 -50.01 75.16 C-48.14 75.18 -46.28 75.22 -44.42 75.26 C-44.43 74.6 -44.44 73.95 -44.45 73.27 C-44.49 70.31 -44.52 67.35 -44.54 64.38 C-44.56 63.35 -44.58 62.32 -44.59 61.25 C-44.6 60.27 -44.61 59.28 -44.61 58.27 C-44.62 57.36 -44.63 56.44 -44.65 55.51 C-44.42 53.26 -44.42 53.26 -42.42 51.26 C-40.01 51.02 -40.01 51.02 -36.96 51.03 C-35.82 51.03 -34.68 51.03 -33.5 51.03 C-31.65 51.05 -31.65 51.05 -29.75 51.06 C-27.86 51.07 -27.86 51.07 -25.93 51.07 C-22.57 51.08 -19.21 51.1 -15.86 51.12 C-12.43 51.14 -9.01 51.15 -5.58 51.16 C1.14 51.18 7.86 51.22 14.58 51.26 C14.58 46.97 14.58 42.68 14.58 38.26 C13.23 38.28 11.89 38.31 10.5 38.33 C8.73 38.35 6.97 38.37 5.21 38.38 C4.32 38.4 3.43 38.42 2.51 38.43 C1.24 38.44 1.24 38.44 -0.07 38.45 C-1.24 38.47 -1.24 38.47 -2.45 38.49 C-4.42 38.26 -4.42 38.26 -6.42 36.26 C-6.62 33.7 -6.7 31.25 -6.68 28.7 C-6.69 27.58 -6.69 27.58 -6.69 26.43 C-6.69 24.85 -6.69 23.27 -6.68 21.69 C-6.67 19.27 -6.68 16.85 -6.69 14.42 C-6.69 12.89 -6.69 11.36 -6.68 9.82 C-6.69 9.09 -6.69 8.37 -6.7 7.62 C-6.64 1.92 -5.81 0.01 0 0 Z " fill="#4B4F58" transform="translate(109.41796875,94.7412109375)"/>
<path d="M0 0 C1.41 -0.01 1.41 -0.01 2.85 -0.02 C3.89 -0.02 4.92 -0.02 6 -0.02 C7.63 -0.03 7.63 -0.03 9.29 -0.04 C12.91 -0.05 16.52 -0.06 20.14 -0.06 C22.64 -0.07 25.15 -0.07 27.65 -0.08 C32.23 -0.09 36.81 -0.1 41.39 -0.1 C48.14 -0.1 54.89 -0.12 61.64 -0.15 C67.48 -0.17 73.32 -0.18 79.16 -0.18 C81.65 -0.19 84.13 -0.19 86.62 -0.21 C90.09 -0.22 93.57 -0.22 97.04 -0.22 C98.08 -0.23 99.11 -0.23 100.18 -0.24 C101.12 -0.24 102.07 -0.23 103.04 -0.23 C103.86 -0.23 104.69 -0.23 105.53 -0.23 C108.15 0.23 109.07 1.02 110.65 3.14 C110.4 5.28 110.19 6.6 108.65 8.14 C107.19 8.24 105.72 8.27 104.25 8.27 C103.3 8.28 102.35 8.28 101.37 8.29 C100.32 8.29 99.27 8.29 98.19 8.29 C97.09 8.29 95.99 8.29 94.86 8.3 C91.21 8.31 87.56 8.31 83.9 8.31 C81.37 8.31 78.85 8.31 76.32 8.32 C71.01 8.32 65.71 8.33 60.4 8.33 C54.26 8.33 48.13 8.34 41.99 8.35 C36.09 8.37 30.19 8.37 24.3 8.37 C21.78 8.37 19.27 8.37 16.76 8.38 C13.25 8.39 9.74 8.39 6.23 8.38 C5.18 8.39 4.14 8.39 3.06 8.4 C2.1 8.4 1.15 8.39 0.17 8.39 C-0.66 8.39 -1.49 8.39 -2.34 8.39 C-4.35 8.14 -4.35 8.14 -6.35 6.14 C-5.71 0.88 -5.19 0.02 0 0 Z " fill="#495559" transform="translate(119.35202026367188,30.85955810546875)"/>
<path d="M0 0 C11.22 0 22.44 0 34 0 C34 7.92 34 15.84 34 24 C22.78 24 11.56 24 0 24 C0 16.08 0 8.16 0 0 Z " fill="#6DB9EF" transform="translate(111,102)"/>
<path d="M0 0 C9.9 0 19.8 0 30 0 C30 7.92 30 15.84 30 24 C20.1 24 10.2 24 0 24 C0 16.08 0 8.16 0 0 Z " fill="#9F66DE" transform="translate(172,178)"/>
<path d="M0 0 C9.9 0 19.8 0 30 0 C30 7.92 30 15.84 30 24 C20.1 24 10.2 24 0 24 C0 16.08 0 8.16 0 0 Z " fill="#BF8A69" transform="translate(54,178)"/>
<path d="M0 0 C9.9 0 19.8 0 30 0 C30 7.92 30 15.84 30 24 C20.1 24 10.2 24 0 24 C0 16.08 0 8.16 0 0 Z " fill="#77889E" transform="translate(113,178)"/>
<path d="M0 0 C1.08 -0.01 2.16 -0.03 3.28 -0.04 C6.06 0.19 6.06 0.19 8.06 2.19 C7.51 6.74 7.51 6.74 6.06 8.19 C4.09 8.31 2.11 8.36 0.12 8.38 C-0.96 8.39 -2.04 8.4 -3.15 8.42 C-5.94 8.19 -5.94 8.19 -7.94 6.19 C-7.19 0.02 -5.98 0.04 0 0 Z " fill="#49565A" transform="translate(77.9375,30.8125)"/>
<path d="M0 0 C1.08 -0.01 2.16 -0.03 3.28 -0.04 C6.06 0.19 6.06 0.19 8.06 2.19 C7.51 6.74 7.51 6.74 6.06 8.19 C4.09 8.31 2.11 8.36 0.12 8.38 C-0.96 8.39 -2.04 8.4 -3.15 8.42 C-5.94 8.19 -5.94 8.19 -7.94 6.19 C-7.19 0.02 -5.98 0.04 0 0 Z " fill="#49565A" transform="translate(55.9375,30.8125)"/>
<path d="M0 0 C1.47 -0.04 1.47 -0.04 2.96 -0.08 C5.62 0.25 5.62 0.25 7.49 1.63 C8.62 3.25 8.62 3.25 8.38 5.38 C7.62 7.25 7.62 7.25 6.62 8.25 C4.65 8.38 2.67 8.43 0.69 8.44 C-0.39 8.45 -1.48 8.47 -2.59 8.48 C-5.38 8.25 -5.38 8.25 -7.38 6.25 C-6.66 0.4 -5.71 0.09 0 0 Z " fill="#49565A" transform="translate(33.375,30.75)"/>
</svg>
