<?xml version="1.0" encoding="UTF-8"?>
<!-- Generator: visioncortex VTracer 0.6.4 -->
<svg version="1.1" xmlns="http://www.w3.org/2000/svg" width="256" height="256">
<path d="M0 0 C1.11 -0 2.22 -0.01 3.37 -0.01 C4.54 -0 5.7 0.01 6.91 0.02 C8.07 0.01 9.24 0 10.44 -0.01 C11.55 -0.01 12.67 -0 13.81 0 C14.84 0 15.86 0 16.92 0.01 C19.41 0.27 19.41 0.27 21.41 2.27 C21.53 5.89 21.53 5.89 21.41 9.27 C22.82 9.8 24.24 10.32 25.66 10.83 C26.84 11.26 26.84 11.26 28.05 11.71 C30.66 12.33 31.91 12.21 34.41 11.27 C35.4 10.61 36.39 9.95 37.41 9.27 C43.33 9.7 46.28 13.4 50.28 17.39 C50.98 18.04 51.68 18.7 52.41 19.37 C57.39 24.29 57.39 24.29 57.48 29.07 C56.41 32.27 56.41 32.27 54.41 35.27 C55.04 37.83 55.04 37.83 56.28 40.45 C56.87 41.8 56.87 41.8 57.46 43.18 C57.77 43.87 58.08 44.56 58.41 45.27 C59.54 45.41 60.68 45.55 61.84 45.7 C65.41 46.27 65.41 46.27 66.41 47.27 C66.51 49.18 66.54 51.1 66.54 53.02 C66.54 54.18 66.54 55.35 66.54 56.55 C66.54 57.77 66.54 59 66.53 60.27 C66.54 61.49 66.54 62.72 66.54 63.98 C66.54 65.15 66.54 66.31 66.54 67.52 C66.54 68.59 66.54 69.67 66.54 70.78 C66.41 73.27 66.41 73.27 65.41 74.27 C63.08 74.63 60.74 74.97 58.41 75.27 C57.65 77.01 56.93 78.76 56.22 80.52 C55.61 81.98 55.61 81.98 54.99 83.47 C54.8 84.39 54.6 85.31 54.41 86.27 C55.77 88.34 55.77 88.34 57.41 90.27 C57.77 93.2 57.78 94.71 56.11 97.19 C55.51 97.79 54.92 98.39 54.3 99 C53.65 99.66 52.99 100.31 52.32 100.99 C51.63 101.66 50.93 102.33 50.22 103.02 C49.55 103.7 48.87 104.38 48.18 105.09 C42.34 110.84 42.34 110.84 37.41 111.27 C36.77 110.76 36.14 110.26 35.48 109.75 C33.42 107.92 33.42 107.92 30.39 108.63 C29.32 108.94 28.26 109.26 27.16 109.58 C26.08 109.88 25 110.19 23.89 110.5 C23.07 110.76 22.25 111.01 21.41 111.27 C21.45 112.38 21.49 113.49 21.53 114.64 C21.41 118.27 21.41 118.27 19.41 120.27 C16.92 120.52 16.92 120.52 13.81 120.53 C12.7 120.53 11.59 120.54 10.44 120.54 C9.27 120.53 8.11 120.52 6.91 120.52 C5.74 120.52 4.57 120.53 3.37 120.54 C2.26 120.54 1.15 120.53 0 120.53 C-1.02 120.53 -2.05 120.53 -3.1 120.52 C-5.59 120.27 -5.59 120.27 -7.59 118.27 C-7.72 114.64 -7.72 114.64 -7.59 111.27 C-9.5 110.68 -11.42 110.12 -13.34 109.58 C-14.41 109.26 -15.48 108.95 -16.58 108.63 C-19.6 107.92 -19.6 107.92 -21.67 109.75 C-22.31 110.25 -22.94 110.75 -23.59 111.27 C-29.55 110.75 -32.39 107.13 -36.41 103.08 C-37.1 102.42 -37.79 101.76 -38.51 101.08 C-43.41 96.18 -43.41 96.18 -44.23 92.03 C-43.59 89.27 -43.59 89.27 -41.98 87.22 C-41.52 86.57 -41.07 85.93 -40.59 85.27 C-41.1 82.61 -41.1 82.61 -42.41 80.02 C-42.8 79.12 -43.2 78.23 -43.61 77.31 C-43.94 76.64 -44.26 75.96 -44.59 75.27 C-45.71 75.16 -46.82 75.06 -47.97 74.95 C-49.17 74.73 -50.36 74.5 -51.59 74.27 C-53.77 71.01 -53.85 70.04 -53.86 66.27 C-53.86 65.3 -53.86 64.33 -53.87 63.33 C-53.86 62.32 -53.85 61.31 -53.84 60.27 C-53.85 59.25 -53.86 58.24 -53.87 57.2 C-53.86 56.23 -53.86 55.26 -53.86 54.27 C-53.86 53.38 -53.85 52.49 -53.85 51.58 C-53.59 49.27 -53.59 49.27 -51.59 46.27 C-47.97 45.58 -47.97 45.58 -44.59 45.27 C-43.27 41.64 -41.95 38.01 -40.59 34.27 C-41.58 33.28 -42.57 32.29 -43.59 31.27 C-44.23 28.57 -44.23 28.57 -43.59 25.27 C-41.5 22.34 -39 19.93 -36.41 17.45 C-35.73 16.77 -35.06 16.09 -34.37 15.39 C-28.54 9.7 -28.54 9.7 -23.59 9.27 C-22.96 9.77 -22.33 10.27 -21.67 10.79 C-19.6 12.61 -19.6 12.61 -16.58 11.9 C-15.51 11.59 -14.44 11.28 -13.34 10.95 C-12.27 10.65 -11.19 10.34 -10.08 10.03 C-9.26 9.78 -8.44 9.52 -7.59 9.27 C-7.63 8.15 -7.68 7.04 -7.72 5.89 C-7.51 -0.03 -5.28 0.01 0 0 Z M-17.59 37.27 C-23.78 44.66 -27.29 52.95 -26.94 62.66 C-25.59 72.81 -20.66 81.22 -12.72 87.58 C-3.77 93.75 5.23 94.64 15.99 92.83 C24.96 90.3 31.33 84.19 36.21 76.48 C40.49 68.55 41.64 59.23 39.26 50.49 C35.34 40.26 29.04 33.73 19.3 29.03 C6.11 23.72 -7.74 27.69 -17.59 37.27 Z " fill="#2D365F" transform="translate(133.59375,13.734375)"/>
<path d="M0 0 C1.58 0.42 1.58 0.42 3.19 0.85 C4.26 1.17 5.33 1.49 6.44 1.81 C7.95 2.26 7.95 2.26 9.5 2.71 C12 4 12 4 13.37 6.46 C14.09 9.35 13.81 11.16 13 14 C13.62 14.29 14.24 14.58 14.88 14.88 C17 16 17 16 19 18 C21.21 18.24 21.21 18.24 23.62 18.12 C24.44 18.11 25.26 18.09 26.1 18.07 C27.04 18.04 27.04 18.04 28 18 C29.52 20.72 31.01 23.45 32.5 26.19 C32.93 26.96 33.36 27.73 33.8 28.52 C37.95 36.19 37.95 36.19 37 40 C35.67 41.01 34.34 42.01 33 43 C32.3 45.49 32.3 45.49 32.25 48.19 C32.16 49.54 32.16 49.54 32.08 50.92 C32.05 51.61 32.03 52.29 32 53 C33.98 53.66 35.96 54.32 38 55 C38.27 60.52 37.44 64.7 35.62 69.81 C35.4 70.48 35.18 71.15 34.95 71.83 C33.95 74.77 33.22 76.78 31 79 C25.67 79.33 25.67 79.33 23 78 C22.73 78.58 22.46 79.16 22.19 79.75 C21 82 21 82 19.31 83.81 C17.38 87.04 18.25 89.43 19 93 C14.56 95.93 10.09 98.58 5.31 100.94 C4.42 101.38 3.53 101.82 2.61 102.28 C0 103 0 103 -2.78 102.26 C-5 101 -5 101 -5.81 98.88 C-5.91 97.95 -5.91 97.95 -6 97 C-6.99 97.33 -7.98 97.66 -9 98 C-10.39 98.07 -11.79 98.09 -13.19 98.06 C-14.45 98.04 -15.7 98.02 -17 98 C-17.33 99.65 -17.66 101.3 -18 103 C-23.63 104.52 -27.46 103.29 -32.75 101.38 C-33.52 101.13 -34.28 100.88 -35.07 100.62 C-40.58 98.67 -40.58 98.67 -42.52 95.54 C-43 93 -43 93 -43 89 C-44.96 86.04 -44.96 86.04 -48 84 C-50.34 84.29 -52.67 84.62 -55 85 C-58.75 82.1 -60.7 78.24 -62.75 74.06 C-63.07 73.45 -63.38 72.85 -63.71 72.22 C-65.48 68.67 -66.39 65.97 -66 62 C-64.35 61.34 -62.7 60.68 -61 60 C-61 56.37 -61 52.74 -61 49 C-62.98 48.34 -64.96 47.68 -67 47 C-67.36 41.19 -66.22 36.99 -64.06 31.62 C-63.78 30.9 -63.51 30.18 -63.22 29.43 C-61.17 24.17 -61.17 24.17 -60 23 C-57.31 23.18 -54.67 23.62 -52 24 C-51.73 23.42 -51.46 22.84 -51.19 22.25 C-50 20 -50 20 -48.31 18.19 C-46.39 14.98 -47.38 12.58 -48 9 C-45.3 7.48 -42.59 5.99 -39.88 4.5 C-39.11 4.07 -38.35 3.64 -37.57 3.2 C-33.21 0.83 -30.11 -0.59 -25 0 C-24.34 1.65 -23.68 3.3 -23 5 C-19.37 4.67 -15.74 4.34 -12 4 C-11.67 2.35 -11.34 0.7 -11 -1 C-7.48 -2.76 -3.65 -0.97 0 0 Z M-34.53 34.04 C-40.08 41.44 -41.14 48.86 -40 58 C-37.59 66.02 -31.85 70.68 -24.96 74.98 C-19.5 77.81 -13.22 77.88 -7.37 76.28 C-2.19 74.36 1.41 72.33 5 68 C5.72 67.2 6.44 66.39 7.19 65.56 C11.64 59.27 11.76 52.48 11 45 C9.29 38.36 5.59 32.98 0 29 C-12.2 22.85 -25.01 23.39 -34.53 34.04 Z " fill="#2D365F" transform="translate(140,138)"/>
<path d="M0 0 C0.89 -0 1.77 -0.01 2.69 -0.01 C3.62 -0 4.54 0.01 5.5 0.02 C6.43 0.01 7.36 0 8.31 -0.01 C9.64 -0 9.64 -0 11 0 C11.81 0 12.63 0 13.47 0.01 C15.5 0.27 15.5 0.27 17.5 2.27 C17.62 4.89 17.62 4.89 17.5 7.27 C19.45 7.54 19.45 7.54 21.44 7.83 C22.17 7.93 22.9 8.04 23.65 8.14 C24.57 8.2 24.57 8.2 25.5 8.27 C25.83 7.94 26.16 7.61 26.5 7.27 C29.42 6.81 31.56 6.66 34.12 8.3 C35.8 9.75 37.34 11.28 38.88 12.89 C39.42 13.41 39.97 13.93 40.53 14.47 C43.26 17.24 44.42 18.57 44.89 22.54 C44.5 25.27 44.5 25.27 43.94 27.33 C43.37 29.86 43.88 31.78 44.5 34.27 C45.68 34.2 45.68 34.2 46.88 34.14 C49.5 34.27 49.5 34.27 51.5 36.27 C51.76 38.3 51.76 38.3 51.77 40.77 C51.77 42.1 51.77 42.1 51.77 43.45 C51.77 44.38 51.76 45.31 51.75 46.27 C51.76 47.66 51.76 47.66 51.77 49.08 C51.77 49.97 51.77 50.85 51.77 51.77 C51.76 52.58 51.76 53.4 51.76 54.23 C51.5 56.27 51.5 56.27 49.5 58.27 C46.88 58.39 46.88 58.39 44.5 58.27 C44.31 59.56 44.13 60.86 43.94 62.2 C43.83 62.93 43.73 63.66 43.62 64.42 C43.58 65.03 43.54 65.64 43.5 66.27 C43.83 66.6 44.16 66.93 44.5 67.27 C44.96 70.19 45.11 72.33 43.45 74.88 C41.98 76.56 40.43 78.1 38.81 79.64 C38.28 80.19 37.75 80.73 37.21 81.29 C34.82 83.63 33.13 85.16 29.79 85.74 C27.5 85.27 27.5 85.27 24.5 83.27 C20.84 84.07 20.84 84.07 17.5 85.27 C17.54 86.05 17.58 86.83 17.62 87.64 C17.5 90.27 17.5 90.27 15.5 92.27 C13.47 92.52 13.47 92.52 11 92.53 C10.11 92.53 9.23 92.54 8.31 92.54 C7.38 92.53 6.46 92.52 5.5 92.52 C4.57 92.52 3.64 92.53 2.69 92.54 C1.36 92.54 1.36 92.54 0 92.53 C-0.81 92.53 -1.63 92.53 -2.47 92.52 C-4.5 92.27 -4.5 92.27 -6.5 90.27 C-6.62 87.64 -6.62 87.64 -6.5 85.27 C-8.81 84.61 -11.12 83.95 -13.5 83.27 C-14.49 84.26 -14.49 84.26 -15.5 85.27 C-18.46 85.78 -20.52 85.88 -23.13 84.25 C-24.83 82.81 -26.38 81.3 -27.94 79.7 C-28.49 79.19 -29.04 78.68 -29.62 78.15 C-31.18 76.58 -32.42 75.2 -33.5 73.27 C-33.42 69.76 -33.06 67.39 -31.5 64.27 C-32.11 62.25 -32.77 60.24 -33.5 58.27 C-34.68 58.33 -34.68 58.33 -35.88 58.39 C-38.5 58.27 -38.5 58.27 -40.5 56.27 C-40.76 54.23 -40.76 54.23 -40.77 51.77 C-40.77 50.88 -40.77 49.99 -40.77 49.08 C-40.76 47.69 -40.76 47.69 -40.75 46.27 C-40.76 45.34 -40.77 44.41 -40.77 43.45 C-40.77 42.57 -40.77 41.68 -40.77 40.77 C-40.76 39.95 -40.76 39.14 -40.76 38.3 C-40.5 36.27 -40.5 36.27 -38.5 34.27 C-35.88 34.14 -35.88 34.14 -33.5 34.27 C-33.11 32.98 -32.74 31.69 -32.38 30.39 C-32.17 29.67 -31.96 28.95 -31.74 28.21 C-31.66 27.57 -31.58 26.93 -31.5 26.27 C-32.16 25.61 -32.82 24.95 -33.5 24.27 C-33.98 22.04 -33.98 22.04 -33.5 19.27 C-31.68 16.92 -29.98 15 -27.88 12.95 C-27.35 12.4 -26.83 11.85 -26.29 11.29 C-23.52 8.53 -22.21 7.35 -18.23 6.88 C-15.5 7.27 -15.5 7.27 -13.44 7.83 C-10.91 8.4 -8.99 7.89 -6.5 7.27 C-6.54 6.48 -6.58 5.7 -6.62 4.89 C-6.4 0.21 -4.09 0.01 0 0 Z M-13.5 33.27 C-17.22 39.19 -17.3 45.46 -16.5 52.27 C-14.76 58.45 -10.83 62.79 -5.5 66.27 C0.53 69.18 7.41 69.4 13.85 67.61 C20.22 64.75 24.6 59.78 27.44 53.45 C29.23 47.9 28.86 42.37 26.52 37.03 C22.3 29.78 16.55 25.44 8.5 23.27 C-0.14 21.94 -8 27.09 -13.5 33.27 Z " fill="#2D365F" transform="translate(41.5,79.734375)"/>
<path d="M0 0 C2.78 0.9 5.08 2.03 7.62 3.48 C8.56 4.01 9.51 4.55 10.48 5.11 C11.48 5.68 12.47 6.26 13.5 6.85 C14.52 7.44 15.54 8.02 16.59 8.62 C39.61 21.84 39.61 21.84 41.62 23.85 C41.92 26.24 41.92 26.24 41.62 28.85 C40.12 30.38 40.12 30.38 37.95 31.68 C37.13 32.19 36.31 32.69 35.46 33.21 C34.52 33.75 33.59 34.29 32.62 34.85 C31.6 35.46 30.58 36.06 29.52 36.69 C26.15 38.66 22.77 40.6 19.37 42.54 C17.08 43.85 14.78 45.17 12.48 46.49 C11.48 47.06 10.47 47.64 9.44 48.23 C7.58 49.3 5.74 50.4 3.93 51.54 C1.22 53.08 -0.31 53.35 -3.38 52.85 C-5.51 49.65 -5.61 48.83 -5.5 45.16 C-5.48 44.36 -5.46 43.55 -5.45 42.71 C-5.42 42.1 -5.4 41.49 -5.38 40.85 C-6.24 40.87 -7.1 40.88 -7.99 40.9 C-11.19 40.95 -14.4 40.99 -17.6 41.02 C-18.99 41.03 -20.37 41.05 -21.76 41.08 C-23.75 41.11 -25.75 41.13 -27.74 41.14 C-28.94 41.16 -30.14 41.18 -31.37 41.19 C-34.38 40.85 -34.38 40.85 -36.27 39.66 C-37.77 37.21 -37.75 35.47 -37.74 32.6 C-37.74 31.07 -37.74 31.07 -37.74 29.51 C-37.72 28.45 -37.7 27.38 -37.69 26.29 C-37.69 25.22 -37.69 24.16 -37.7 23.06 C-37.64 15.12 -37.64 15.12 -35.38 12.85 C-32.39 12.62 -32.39 12.62 -28.62 12.66 C-27.62 12.66 -27.62 12.66 -26.61 12.66 C-24.49 12.68 -22.37 12.7 -20.25 12.73 C-18.81 12.74 -17.38 12.75 -15.94 12.75 C-12.42 12.78 -8.9 12.81 -5.38 12.85 C-5.41 12.16 -5.45 11.48 -5.48 10.77 C-5.51 9.87 -5.54 8.97 -5.56 8.04 C-5.62 6.7 -5.62 6.7 -5.67 5.33 C-5.38 2.85 -5.38 2.85 -4.18 0.96 C-2.38 -0.15 -2.38 -0.15 0 0 Z " fill="#FF6859" transform="translate(213.37548828125,114.1484375)"/>
<path d="M0 0 C6.66 4.82 10.62 10.53 12.22 18.61 C13.08 26.2 11.18 33.45 6.71 39.73 C1.81 45.05 -3.72 48.12 -10.93 48.99 C-19.54 49.3 -25.84 47.83 -32.53 42.36 C-38.33 35.27 -41.19 29.56 -41.05 20.33 C-40.32 13.01 -37.21 6.97 -31.74 2.08 C-22.26 -5.02 -10.37 -6 0 0 Z " fill="#2D365F" transform="translate(154.77734375,51.390625)"/>
<path d="M0 0 C4.2 2.77 6.37 5.21 8 10 C8.85 17.44 8.63 23 4 29 C-0.36 33.14 -4.33 35.07 -10.31 35.38 C-15.95 35.22 -20.47 33.4 -24.57 29.5 C-29.16 24.24 -29.35 19.73 -29.28 13.02 C-28.77 7.54 -26.56 4.52 -22.62 0.69 C-15 -4.22 -7.97 -4.13 0 0 Z " fill="#2D365F" transform="translate(136,173)"/>
<path d="M0 0 C4.03 3.58 6.53 7.26 6.91 12.75 C6.55 17.9 5.17 21.45 1.75 25.44 C-2.91 28.77 -6.61 29.11 -12.23 29 C-17.17 28.08 -20.11 25.23 -23.25 21.44 C-25.34 17.25 -24.68 11.99 -24.25 7.44 C-21.77 2.21 -18.69 -0.14 -13.44 -2.31 C-8.44 -2.88 -4.47 -2.15 0 0 Z " fill="#2D365F" transform="translate(56.25,112.5625)"/>
</svg>
