<?xml version="1.0" encoding="UTF-8"?>
<!-- Generator: visioncortex VTracer 0.6.4 -->
<svg version="1.1" xmlns="http://www.w3.org/2000/svg" width="256" height="256">
<path d="M0 0 C0.85 -0.01 1.69 -0.02 2.56 -0.04 C7.34 -0.01 10.79 0.14 14.56 3.38 C17.31 6.98 17.95 9.91 18.38 14.38 C18.96 18.47 19.33 20.88 22.62 23.5 C23.59 24.12 24.56 24.74 25.56 25.38 C25.89 26.04 26.22 26.7 26.56 27.38 C27.39 27.38 28.22 27.39 29.07 27.39 C36.89 27.45 44.7 27.52 52.51 27.61 C56.53 27.66 60.54 27.69 64.56 27.72 C68.44 27.75 72.31 27.79 76.19 27.84 C77.67 27.85 79.15 27.87 80.63 27.87 C82.7 27.88 84.77 27.91 86.84 27.94 C88.02 27.95 89.2 27.96 90.42 27.98 C93.9 28.42 95.77 29.28 98.56 31.38 C101.43 35.78 101.94 39.25 101.93 44.45 C101.93 45.43 101.93 45.43 101.93 46.43 C101.92 47.8 101.92 49.17 101.9 50.54 C101.87 52.63 101.88 54.73 101.88 56.83 C101.84 67.1 101.84 67.1 99.56 69.38 C97 69.56 97 69.56 94.56 69.38 C92.74 67.56 93.39 64.7 93.35 62.26 C93.32 61.01 93.29 59.76 93.27 58.48 C93.21 55.83 93.17 53.19 93.13 50.54 C93.09 48.67 93.09 48.67 93.04 46.76 C93.02 45.61 93 44.46 92.98 43.27 C92.79 40.44 92.79 40.44 91.41 38.72 C88.77 36.8 86.78 36.96 83.53 36.91 C82.29 36.88 81.05 36.86 79.77 36.83 C78.41 36.82 77.06 36.81 75.7 36.8 C74.31 36.79 72.91 36.77 71.52 36.76 C68.59 36.73 65.67 36.72 62.75 36.71 C59.01 36.7 55.28 36.64 51.54 36.56 C48.66 36.51 45.78 36.5 42.9 36.5 C41.53 36.49 40.15 36.47 38.77 36.44 C31.04 36.03 31.04 36.03 24.35 39.22 C22.84 41.21 21.63 43.12 20.56 45.38 C24 51.02 27.5 56.43 31.75 61.5 C40.22 71.81 41.44 82.45 40.56 95.38 C38.96 105.5 33.57 114.48 25.64 120.91 C22.44 123.16 19.17 124.87 15.56 126.38 C14.66 126.77 13.75 127.16 12.81 127.56 C-1.42 131.12 -13.93 128.87 -26.44 121.38 C-28.44 119.38 -28.44 119.38 -29.38 116 C-30.35 112.66 -31.29 111.01 -33.44 108.38 C-33.44 107.72 -33.44 107.06 -33.44 106.38 C-34.2 106.35 -34.96 106.33 -35.75 106.31 C-38.44 105.38 -38.44 105.38 -40.19 102.25 C-44.13 91.3 -43.14 79.31 -38.25 68.84 C-34.99 63.16 -30.98 58.01 -26.86 52.93 C-24.43 49.87 -22.67 47.09 -21.44 43.38 C-22.06 43.15 -22.67 42.92 -23.31 42.69 C-26.06 40.99 -26.37 39.35 -27.44 36.38 C-35.6 36.44 -43.76 36.51 -51.92 36.61 C-55.71 36.66 -59.5 36.69 -63.29 36.72 C-66.95 36.75 -70.61 36.79 -74.27 36.84 C-75.66 36.85 -77.06 36.87 -78.45 36.87 C-80.41 36.88 -82.36 36.91 -84.31 36.94 C-85.98 36.96 -85.98 36.96 -87.69 36.98 C-90.39 37.19 -90.39 37.19 -92.29 38.47 C-94.05 41.4 -93.84 43.93 -93.87 47.32 C-93.88 48.03 -93.89 48.73 -93.9 49.45 C-93.93 51.78 -93.94 54.1 -93.95 56.42 C-93.97 58.03 -93.98 59.64 -94 61.25 C-94.05 65.48 -94.08 69.72 -94.11 73.96 C-94.14 78.28 -94.18 82.6 -94.23 86.93 C-94.31 95.41 -94.38 103.89 -94.44 112.38 C-93.82 112.51 -93.2 112.64 -92.56 112.77 C-91.75 112.94 -90.94 113.12 -90.1 113.3 C-89.3 113.47 -88.49 113.64 -87.66 113.82 C-80.89 115.51 -75.52 120.53 -71.66 126.18 C-67.03 134.52 -66.22 143.21 -68.5 152.38 C-71.11 160.22 -76.1 166.05 -83.05 170.4 C-86.72 171.9 -90.56 172.6 -94.44 173.38 C-94.37 178.31 -94.28 183.23 -94.18 188.16 C-94.14 189.84 -94.11 191.52 -94.09 193.2 C-94.06 195.61 -94.01 198.02 -93.95 200.43 C-93.94 201.18 -93.94 201.93 -93.93 202.7 C-93.82 206.74 -93.82 206.74 -92.14 210.34 C-89.13 212.17 -85.68 211.96 -82.25 212.06 C-81.5 212.1 -80.75 212.13 -79.98 212.17 C-78.13 212.25 -76.28 212.31 -74.44 212.38 C-74.48 211.21 -74.53 210.04 -74.58 208.83 C-74.62 207.28 -74.65 205.74 -74.69 204.19 C-74.72 203.42 -74.75 202.65 -74.79 201.86 C-74.85 198.08 -74.64 195.78 -72.94 192.34 C-69.46 189.61 -66.4 189.82 -62.19 190.06 C-61.07 190.1 -61.07 190.1 -59.93 190.13 C-58.1 190.19 -56.27 190.28 -54.44 190.38 C-54.42 189.78 -54.41 189.19 -54.39 188.58 C-54.13 184.16 -53.88 181.94 -51.06 178.38 C-47.52 175.67 -44.98 175.25 -40.65 175.21 C-39.19 175.2 -39.19 175.2 -37.7 175.18 C-36.66 175.18 -35.61 175.18 -34.53 175.17 C-33.46 175.17 -32.38 175.16 -31.27 175.15 C-28.99 175.15 -26.72 175.14 -24.44 175.13 C-20.95 175.13 -17.46 175.09 -13.97 175.06 C-11.76 175.06 -9.55 175.05 -7.34 175.05 C-6.3 175.03 -5.25 175.02 -4.17 175.01 C-2.71 175.01 -2.71 175.01 -1.23 175.02 C-0.37 175.01 0.48 175.01 1.36 175.01 C4.05 175.46 4.79 176.38 6.56 178.38 C8.83 178.95 8.83 178.95 11.25 179.06 C12.46 179.16 12.46 179.16 13.7 179.26 C14.31 179.3 14.93 179.34 15.56 179.38 C16.22 178.06 16.88 176.74 17.56 175.38 C24.15 175.3 30.73 175.25 37.31 175.21 C39.55 175.2 41.79 175.17 44.03 175.15 C47.25 175.11 50.47 175.1 53.7 175.08 C55.19 175.06 55.19 175.06 56.72 175.04 C62.01 175.03 66.14 175.1 70.56 178.38 C73.42 182.64 73.93 186.01 73.86 191.09 C73.85 192.33 73.84 193.57 73.83 194.86 C73.8 196.14 73.78 197.43 73.75 198.75 C73.74 200.06 73.72 201.37 73.71 202.71 C73.67 205.94 73.62 209.15 73.56 212.38 C76.17 212.29 78.77 212.18 81.38 212.06 C82.11 212.04 82.85 212.02 83.61 211.99 C87.62 211.84 87.62 211.84 91.27 210.34 C93.3 207.26 93.04 204 93.07 200.43 C93.09 199.65 93.11 198.88 93.13 198.08 C93.18 195.62 93.22 193.15 93.25 190.69 C93.28 189.01 93.32 187.34 93.35 185.67 C93.44 181.57 93.51 177.47 93.56 173.38 C92.97 173.26 92.37 173.15 91.76 173.03 C82.7 171.18 76.09 167.32 70.78 159.57 C66.46 151.79 65.18 143.24 67.22 134.58 C70.26 125.07 75.46 119.07 84.16 114.29 C87.25 113.11 90.29 112.75 93.56 112.38 C93.54 111.71 93.52 111.04 93.5 110.36 C93.42 107.32 93.36 104.29 93.31 101.25 C93.28 100.2 93.25 99.16 93.21 98.08 C93.13 91.99 93.19 88 97.56 83.38 C100.26 81.07 103.08 79.02 106 77 C106.75 76.45 107.5 75.91 108.28 75.35 C109.01 74.83 109.74 74.32 110.5 73.79 C111.49 73.09 111.49 73.09 112.5 72.38 C115.05 71.14 116.76 71.05 119.56 71.38 C121.56 73.38 121.56 73.38 121.68 76.14 C120.03 80.92 116.81 82.48 112.62 85.06 C111.15 86 109.69 86.94 108.22 87.89 C107.57 88.29 106.92 88.7 106.24 89.12 C103.91 90.86 102.69 92.56 102.24 95.46 C102.21 96.24 102.18 97.02 102.15 97.82 C102.11 98.67 102.07 99.52 102.03 100.39 C102 101.27 101.97 102.15 101.94 103.06 C101.88 104.4 101.88 104.4 101.82 105.77 C101.73 107.97 101.64 110.17 101.56 112.38 C102.16 112.49 102.76 112.6 103.38 112.72 C112.23 114.51 117.35 118.64 123.24 125.37 C126.89 130.9 128.08 135.73 127.94 142.31 C127.93 143.02 127.91 143.73 127.9 144.45 C127.59 154.23 124.67 159.08 117.97 166.17 C112.88 170.83 108.27 172.3 101.56 173.38 C101.59 175.11 101.59 175.11 101.61 176.88 C101.66 181.17 101.7 185.47 101.73 189.76 C101.74 191.62 101.76 193.48 101.79 195.34 C101.83 198.01 101.84 200.68 101.86 203.36 C101.87 204.18 101.89 205.01 101.9 205.86 C101.9 210.55 101.57 213.55 98.56 217.38 C94.03 221.37 88.96 220.72 83.25 220.56 C82.32 220.55 81.39 220.54 80.43 220.52 C78.14 220.49 75.85 220.44 73.56 220.38 C73.58 221.19 73.59 222.01 73.61 222.85 C73.67 226.57 73.71 230.28 73.75 234 C73.78 235.29 73.8 236.57 73.83 237.89 C73.84 239.76 73.84 239.76 73.86 241.66 C73.88 243.38 73.88 243.38 73.9 245.12 C73.51 248.85 72.52 251.2 70.56 254.38 C67.36 256.51 66.52 256.63 62.83 256.65 C61.86 256.66 60.89 256.67 59.88 256.68 C58.82 256.68 57.75 256.68 56.65 256.68 C55.53 256.69 54.41 256.7 53.25 256.71 C49.52 256.73 45.8 256.74 42.07 256.75 C39.49 256.76 36.9 256.76 34.32 256.77 C28.89 256.79 23.47 256.8 18.05 256.8 C11.79 256.8 5.52 256.83 -0.74 256.88 C-6.77 256.91 -12.8 256.93 -18.83 256.93 C-21.39 256.93 -23.95 256.94 -26.52 256.96 C-30.1 256.99 -33.68 256.99 -37.27 256.97 C-38.86 257 -38.86 257 -40.49 257.02 C-47.68 256.95 -47.68 256.95 -51.59 253.99 C-53.51 251.27 -54.1 249.84 -54.25 246.56 C-54.32 245.38 -54.32 245.38 -54.39 244.17 C-54.41 243.58 -54.42 242.98 -54.44 242.38 C-55.97 242.46 -55.97 242.46 -57.54 242.55 C-58.9 242.6 -60.26 242.64 -61.62 242.69 C-62.64 242.75 -62.64 242.75 -63.67 242.81 C-67.37 242.9 -69.3 242.46 -72.41 240.41 C-75.15 236.32 -75.01 233.36 -74.75 228.56 C-74.73 227.77 -74.7 226.99 -74.68 226.17 C-74.62 224.24 -74.53 222.31 -74.44 220.38 C-75.31 220.4 -75.31 220.4 -76.19 220.42 C-78.84 220.49 -81.48 220.52 -84.12 220.56 C-85.04 220.59 -85.95 220.61 -86.89 220.64 C-95.63 220.73 -95.63 220.73 -99.44 217.38 C-103 212.84 -102.83 208.87 -102.73 203.36 C-102.73 202.5 -102.72 201.64 -102.72 200.75 C-102.7 198.02 -102.66 195.29 -102.62 192.56 C-102.61 190.71 -102.6 188.85 -102.58 186.99 C-102.55 182.45 -102.5 177.91 -102.44 173.38 C-103.69 173.08 -104.93 172.78 -106.22 172.47 C-115.54 170.25 -121.46 164.49 -126.61 156.57 C-129.99 149.37 -129.75 138.87 -127.56 131.36 C-123.9 123.47 -118.31 117.89 -110.53 114.1 C-107.87 113.18 -105.21 112.81 -102.44 112.38 C-102.44 111.45 -102.45 110.52 -102.46 109.57 C-102.52 100.83 -102.56 92.09 -102.59 83.35 C-102.61 78.86 -102.63 74.36 -102.66 69.87 C-102.7 65.53 -102.71 61.2 -102.72 56.86 C-102.73 55.2 -102.74 53.55 -102.75 51.9 C-102.78 49.58 -102.78 47.26 -102.78 44.94 C-102.78 43.62 -102.79 42.3 -102.8 40.94 C-102.29 35.96 -101.09 32.73 -97.17 29.52 C-93.84 28.12 -91.33 28.01 -87.72 28.03 C-87.07 28.03 -86.41 28.03 -85.74 28.03 C-83.59 28.04 -81.44 28.06 -79.29 28.08 C-77.8 28.09 -76.3 28.09 -74.81 28.09 C-70.88 28.11 -66.96 28.14 -63.04 28.17 C-59.03 28.2 -55.02 28.21 -51.01 28.23 C-43.15 28.26 -35.29 28.31 -27.44 28.38 C-27.18 27.58 -26.92 26.79 -26.66 25.98 C-25.44 23.38 -25.44 23.38 -21.88 21.69 C-19.94 20.81 -19.94 20.81 -18.44 19.38 C-17.83 16.83 -17.75 14.46 -17.66 11.85 C-17.26 7.46 -14.81 4.83 -11.89 1.74 C-8.06 -0.39 -4.31 -0.06 0 0 Z " fill="#010101" transform="translate(128.4375,-0.375)"/>
<path d="M0 0 C1.62 -0.08 3.25 -0.14 4.88 -0.19 C5.78 -0.22 6.68 -0.26 7.62 -0.29 C8.8 -0.15 8.8 -0.15 10 0 C10.66 0.99 11.32 1.98 12 3 C14.04 3.46 14.04 3.46 16.42 3.4 C17.79 3.42 17.79 3.42 19.19 3.44 C20.18 3.44 21.17 3.44 22.19 3.44 C23.2 3.45 24.21 3.47 25.26 3.48 C28.51 3.52 31.75 3.54 35 3.56 C38.25 3.59 41.49 3.61 44.74 3.65 C46.76 3.68 48.79 3.69 50.81 3.7 C51.73 3.71 52.64 3.72 53.58 3.73 C54.39 3.73 55.2 3.74 56.03 3.74 C58 4 58 4 60 6 C60.25 8.58 60.25 8.58 60.26 11.89 C60.27 13.12 60.27 14.36 60.28 15.63 C60.27 16.98 60.27 18.33 60.27 19.69 C60.27 21.07 60.27 22.45 60.27 23.83 C60.27 26.73 60.27 29.63 60.26 32.53 C60.25 36.25 60.26 39.97 60.27 43.69 C60.28 46.54 60.27 49.4 60.27 52.25 C60.27 53.62 60.27 55 60.27 56.37 C60.28 58.28 60.27 60.2 60.26 62.11 C60.26 63.2 60.26 64.3 60.25 65.42 C60 68 60 68 58 70 C56.07 70.25 56.07 70.25 53.67 70.25 C52.31 70.26 52.31 70.26 50.92 70.27 C49.92 70.27 48.92 70.26 47.89 70.26 C46.84 70.26 45.79 70.27 44.71 70.27 C41.22 70.28 37.74 70.27 34.25 70.27 C31.84 70.27 29.42 70.27 27.01 70.27 C21.94 70.27 16.88 70.27 11.82 70.26 C5.31 70.25 -1.19 70.26 -7.7 70.27 C-12.68 70.28 -17.67 70.27 -22.65 70.27 C-25.05 70.27 -27.45 70.27 -29.85 70.27 C-33.2 70.28 -36.54 70.27 -39.89 70.26 C-41.39 70.26 -41.39 70.26 -42.92 70.27 C-43.83 70.27 -44.74 70.26 -45.67 70.25 C-46.46 70.25 -47.26 70.25 -48.07 70.25 C-50 70 -50 70 -52 68 C-52.25 65.42 -52.25 65.42 -52.26 62.11 C-52.27 60.88 -52.27 59.64 -52.28 58.37 C-52.27 57.02 -52.27 55.67 -52.27 54.31 C-52.27 52.93 -52.27 51.55 -52.27 50.17 C-52.27 47.27 -52.27 44.37 -52.26 41.47 C-52.25 37.75 -52.26 34.03 -52.27 30.31 C-52.28 27.46 -52.27 24.6 -52.27 21.75 C-52.27 20.38 -52.27 19 -52.27 17.63 C-52.28 15.72 -52.27 13.8 -52.26 11.89 C-52.26 10.8 -52.26 9.7 -52.25 8.58 C-52 6 -52 6 -50 4 C-47.9 3.72 -47.9 3.72 -45.27 3.68 C-43.8 3.65 -43.8 3.65 -42.3 3.62 C-40.71 3.6 -40.71 3.6 -39.09 3.59 C-37.46 3.56 -37.46 3.56 -35.8 3.53 C-32.32 3.47 -28.85 3.42 -25.38 3.38 C-23.02 3.34 -20.67 3.3 -18.32 3.26 C-12.55 3.16 -6.77 3.08 -1 3 C-0.67 2.01 -0.34 1.02 0 0 Z " fill="#365D7C" transform="translate(134,179)"/>
<path d="M0 0 C2.97 0 5.94 0 9 0 C9.15 4.48 9.26 8.97 9.33 13.45 C9.36 14.98 9.4 16.5 9.45 18.03 C9.53 20.22 9.56 22.41 9.59 24.61 C9.62 25.29 9.65 25.97 9.68 26.67 C9.68 28.61 9.68 28.61 9 32 C6.09 34.27 6.09 34.27 3 36 C0.03 40.46 0.37 44.77 1 50 C3.02 53.54 5.08 55.77 9 57 C14.2 57.48 17.65 56.96 22 54 C24.7 50.13 25.59 46.6 25.43 41.96 C24.41 37.29 20.84 34.56 17 32 C16.73 29.52 16.65 27.29 16.71 24.8 C16.71 24.1 16.72 23.39 16.72 22.66 C16.74 20.4 16.77 18.14 16.81 15.88 C16.83 14.34 16.84 12.81 16.85 11.28 C16.89 7.52 16.94 3.76 17 0 C19.64 0 22.28 0 25 0 C25.31 0.63 25.61 1.26 25.93 1.91 C28.96 7.86 32.43 12.98 36.62 18.12 C44.75 28.26 47.36 35.64 46 49 C44.18 57.64 40.04 64.25 32.95 69.53 C30.99 70.8 29.07 71.95 27 73 C26.28 73.36 25.56 73.73 24.82 74.1 C17.06 76.57 6.9 76.42 -0.7 73.66 C-3.81 72 -3.81 72 -6.46 70.31 C-9.51 68.74 -11.62 68.96 -15 69 C-18.75 65.89 -18.75 65.89 -20 63 C-20.05 60.54 -19.77 58.37 -19.3 55.95 C-18.8 53.93 -18.8 53.93 -20 52 C-21.62 36.8 -18.86 27.72 -9.44 15.94 C-8.71 15.04 -8.71 15.04 -7.96 14.13 C-4.37 9.67 -1.96 5.42 0 0 Z " fill="#FCD570" transform="translate(115,45)"/>
<path d="M0 0 C4.24 3.18 7.85 7.37 9.79 12.34 C10.62 19.26 11.08 26.36 7.29 32.46 C3.6 37.12 -0.99 39.73 -6.21 42.34 C-13.63 43.04 -20.13 42.97 -26.21 38.34 C-31.89 33.12 -35.28 27.21 -35.65 19.4 C-35.37 12.07 -32.66 7.4 -27.34 2.46 C-19.54 -3.82 -8.87 -5.12 0 0 Z " fill="#EF797A" transform="translate(238.21484375,122.66015625)"/>
<path d="M0 0 C6.37 -0.05 12.74 -0.09 19.12 -0.11 C21.29 -0.12 23.45 -0.13 25.62 -0.15 C28.74 -0.18 31.85 -0.19 34.96 -0.2 C35.93 -0.21 36.91 -0.22 37.91 -0.23 C38.81 -0.23 39.71 -0.23 40.64 -0.23 C41.44 -0.23 42.23 -0.24 43.05 -0.24 C45 0 45 0 47 2 C47.25 4.58 47.25 4.58 47.26 7.89 C47.27 9.12 47.27 10.36 47.28 11.63 C47.27 12.98 47.27 14.33 47.27 15.69 C47.27 17.07 47.27 18.45 47.27 19.83 C47.27 22.73 47.27 25.63 47.26 28.53 C47.25 32.25 47.26 35.97 47.27 39.69 C47.28 42.54 47.27 45.4 47.27 48.25 C47.27 49.62 47.27 51 47.27 52.37 C47.28 54.28 47.27 56.2 47.26 58.11 C47.26 59.2 47.26 60.3 47.25 61.42 C47 64 47 64 45 66 C43.07 66.25 43.07 66.25 40.67 66.25 C39.31 66.26 39.31 66.26 37.92 66.27 C36.92 66.27 35.92 66.26 34.89 66.26 C33.84 66.26 32.79 66.27 31.71 66.27 C28.22 66.28 24.74 66.27 21.25 66.27 C18.84 66.27 16.42 66.27 14.01 66.27 C8.94 66.27 3.88 66.27 -1.18 66.26 C-7.69 66.25 -14.19 66.26 -20.7 66.27 C-25.68 66.28 -30.67 66.27 -35.65 66.27 C-38.05 66.27 -40.45 66.27 -42.85 66.27 C-46.2 66.28 -49.54 66.27 -52.89 66.26 C-54.39 66.26 -54.39 66.26 -55.92 66.27 C-56.83 66.27 -57.74 66.26 -58.67 66.25 C-59.46 66.25 -60.26 66.25 -61.07 66.25 C-63 66 -63 66 -65 64 C-65.24 61.41 -65.24 61.41 -65.23 58.08 C-65.23 56.84 -65.23 55.6 -65.23 54.32 C-65.22 52.96 -65.21 51.6 -65.2 50.24 C-65.19 48.85 -65.19 47.47 -65.19 46.08 C-65.18 42.43 -65.16 38.77 -65.14 35.12 C-65.12 31.4 -65.11 27.67 -65.1 23.94 C-65.08 16.63 -65.04 9.31 -65 2 C-64.67 2 -64.34 2 -64 2 C-64 20.15 -64 38.3 -64 57 C-30.01 57 3.98 57 39 57 C39 38.52 39 20.04 39 1 C26.13 1 13.26 1 0 1 C0 0.67 0 0.34 0 0 Z " fill="#28485F" transform="translate(147,183)"/>
<path d="M0 0 C4.65 3.3 8.02 7.65 10 13 C10.19 15.88 10.19 15.88 10 18 C7.69 18 5.38 18 3 18 C2.67 15.69 2.34 13.38 2 11 C-0.08 10.45 -1.84 10 -4 10 C-4 12.97 -4 15.94 -4 19 C-6.97 19.33 -9.94 19.66 -13 20 C-12.67 21.65 -12.34 23.3 -12 25 C-9.69 25.33 -7.38 25.66 -5 26 C-4.88 27.11 -4.75 28.23 -4.62 29.38 C-4.35 33.03 -4.35 33.03 -2 35 C0.11 34.68 0.11 34.68 2 34 C2.33 31.69 2.66 29.38 3 27 C5.31 27 7.62 27 10 27 C9.37 33.66 6.42 37.83 1.75 42.44 C-1.17 44.8 -1.95 45 -5.94 45.25 C-12.23 43.85 -17.12 39.57 -21 34.56 C-24.38 28.56 -24 21.62 -23 15 C-20.41 8.49 -15.88 4.55 -10 1 C-6.25 -0.25 -3.94 -0.53 0 0 Z " fill="#4CC4AA" transform="translate(31,120)"/>
<path d="M0 0 C7.67 0.53 12.03 2.65 17.25 8.44 C21.36 13.54 22.53 17.77 22.38 24.31 C21.36 31.61 17.49 37.46 11.69 41.88 C7.08 44.93 3.5 45.22 -2 45 C-1.26 44.28 -0.52 43.56 0.25 42.81 C5.2 37.75 7.74 33.66 10 27 C7.69 27 5.38 27 3 27 C3.04 28.11 3.08 29.23 3.12 30.38 C3 34 3 34 1 36 C-1.93 35.63 -2.86 35.14 -5 33 C-5.12 29.38 -5.12 29.38 -5 26 C-6.67 26.06 -6.67 26.06 -8.38 26.12 C-12 26 -12 26 -14 24 C-13.62 21.38 -13.62 21.38 -13 19 C-10.03 19 -7.06 19 -4 19 C-4 16.03 -4 13.06 -4 10 C-1.62 9.38 -1.62 9.38 1 9 C3 11 3 11 3.12 14.62 C3.08 15.74 3.04 16.85 3 18 C5.31 18 7.62 18 10 18 C8.43 11.53 6.04 7.34 1.43 2.53 C0 1 0 1 0 0 Z " fill="#26B599" transform="translate(31,120)"/>
<path d="M0 0 C6.35 0.52 11.42 2.08 15.74 6.97 C21.43 14.45 21.97 20.73 21 30 C18.08 37.77 12.11 41.44 5 45 C2.67 45.04 0.33 45.04 -2 45 C-1.28 44.34 -0.56 43.68 0.19 43 C5.08 38.1 7.95 32.57 10 26 C9.31 26.01 8.62 26.01 7.9 26.02 C4.79 26.04 1.68 26.05 -1.44 26.06 C-2.53 26.07 -3.61 26.08 -4.74 26.09 C-5.77 26.09 -6.81 26.09 -7.87 26.1 C-8.83 26.1 -9.79 26.11 -10.78 26.11 C-13 26 -13 26 -14 25 C-14.19 22.56 -14.19 22.56 -14 20 C-12 18 -12 18 -9.75 17.77 C-8.84 17.78 -7.93 17.79 -6.99 17.8 C-6.01 17.81 -5.02 17.82 -4 17.82 C-2.46 17.85 -2.46 17.85 -0.88 17.88 C0.17 17.88 1.21 17.89 2.28 17.9 C4.85 17.93 7.43 17.96 10 18 C9.55 16.73 9.09 15.47 8.62 14.2 C8.37 13.5 8.11 12.79 7.85 12.07 C6.01 7.59 2.93 3.81 0 0 Z " fill="#DD606A" transform="translate(227,120)"/>
<path d="M0 0 C4.29 0 8.58 0 13 0 C13 12.21 13 24.42 13 37 C8.71 37 4.42 37 0 37 C0 24.79 0 12.58 0 0 Z " fill="#F8F6F7" transform="translate(62,197)"/>
<path d="M0 0 C3.69 0.69 3.69 0.69 5 2 C5.49 5.46 5.08 6.86 3.25 9.89 C2.51 10.86 1.76 11.82 1 12.81 C0.26 13.79 -0.49 14.76 -1.25 15.77 C-1.83 16.51 -2.41 17.24 -3 18 C-1.89 18.12 -0.77 18.25 0.38 18.38 C4 19 4 19 6 21 C5.86 27.1 3.69 30.59 0.12 35.25 C-0.32 35.86 -0.77 36.47 -1.23 37.1 C-5.72 43.17 -5.72 43.17 -8 45 C-10.19 44.69 -10.19 44.69 -12 44 C-12.78 41.93 -12.78 41.93 -13 39 C-11.61 36.52 -10.26 34.43 -8.56 32.19 C-8.13 31.59 -7.69 30.99 -7.25 30.38 C-6.18 28.91 -5.09 27.45 -4 26 C-5.92 26.06 -5.92 26.06 -7.88 26.12 C-10.05 26.2 -10.05 26.2 -12 26 C-12.66 25.34 -13.32 24.68 -14 24 C-14 17.92 -10.46 13.86 -7 9.19 C-6.44 8.41 -5.88 7.64 -5.3 6.84 C-1.27 1.27 -1.27 1.27 0 0 Z " fill="#010203" transform="translate(141,191)"/>
<path d="M0 0 C1.98 0 3.96 0 6 0 C6.31 0.63 6.61 1.26 6.93 1.91 C9.96 7.86 13.43 12.98 17.62 18.12 C25.75 28.26 28.36 35.64 27 49 C25.17 57.68 21 64.41 13.77 69.6 C11.88 70.8 9.97 71.93 8 73 C8 72.01 8 71.02 8 70 C8.7 69.36 9.4 68.72 10.12 68.06 C16.24 62.35 19.52 53.44 20.24 45.27 C20.57 32.3 15.89 23.99 8 14 C1.41 5.65 1.41 5.65 0 0 Z " fill="#F5B656" transform="translate(134,45)"/>
<path d="M0 0 C0.7 0 1.4 0.01 2.13 0.01 C3.21 0.01 3.21 0.01 4.32 0.01 C5.85 0.01 7.38 0.01 8.9 0.02 C11.24 0.03 13.58 0.02 15.92 0 C17.41 0.01 18.89 0.01 20.38 0.01 C21.08 0.01 21.78 0 22.5 0 C26.16 0.04 27.68 0.19 30.82 2.28 C31.19 5.28 31.19 5.28 30.82 8.28 C27.22 10.68 24.57 10.58 20.41 10.58 C19.33 10.59 19.33 10.59 18.23 10.59 C16.7 10.6 15.18 10.6 13.66 10.59 C11.33 10.59 9 10.61 6.67 10.64 C5.19 10.64 3.71 10.64 2.23 10.64 C1.18 10.65 1.18 10.65 0.11 10.67 C-2.79 10.64 -4.73 10.59 -7.16 8.92 C-8.18 7.28 -8.18 7.28 -7.99 4.72 C-6.47 0.15 -4.49 0.04 0 0 Z " fill="#F8F6F7" transform="translate(116.18101501464844,26.72210693359375)"/>
<path d="M0 0 C1 1 1 1 1.1 2.85 C1.07 4.9 1.03 6.95 1 9 C2.3 8.98 3.6 8.96 4.94 8.94 C6.29 8.92 7.65 8.93 9 9 C10 10 10 10 10.12 12.5 C10 15 10 15 9 16 C6.33 16.14 3.68 16.04 1 16 C1.04 17.28 1.08 18.56 1.12 19.88 C1.2 22.05 1.2 22.05 1 24 C0.34 24.66 -0.32 25.32 -1 26 C-3.93 25.63 -4.86 25.14 -7 23 C-7.12 19.38 -7.12 19.38 -7 16 C-8.67 16.06 -8.67 16.06 -10.38 16.12 C-14 16 -14 16 -16 14 C-15.62 11.38 -15.62 11.38 -15 9 C-12.03 9 -9.06 9 -6 9 C-6 6.03 -6 3.06 -6 0 C-3.5 -1.25 -2.6 -0.84 0 0 Z " fill="#020605" transform="translate(33,130)"/>
<path d="M0 0 C3.19 2 3.19 2 5 5 C5 7.64 5 10.28 5 13 C-1.6 13 -8.2 13 -15 13 C-15 4 -15 4 -13.69 1.44 C-9.26 -0.93 -4.89 -0.82 0 0 Z " fill="#365D7C" transform="translate(134,7)"/>
<path d="M0 0 C1.61 -0.02 1.61 -0.02 3.26 -0.04 C4.29 -0.04 5.31 -0.04 6.37 -0.04 C7.79 -0.05 7.79 -0.05 9.24 -0.06 C11.56 0.19 11.56 0.19 13.56 2.19 C13.03 5.72 13.03 5.72 11.56 7.19 C9.87 7.29 8.17 7.32 6.47 7.32 C5.44 7.32 4.41 7.32 3.35 7.32 C1.72 7.32 1.72 7.32 0.06 7.31 C-1.02 7.32 -2.11 7.32 -3.22 7.32 C-4.25 7.32 -5.28 7.32 -6.34 7.32 C-7.3 7.32 -8.25 7.32 -9.23 7.32 C-11.44 7.19 -11.44 7.19 -12.44 6.19 C-12.56 3.69 -12.56 3.69 -12.44 1.19 C-9.96 -1.29 -3.33 0 0 0 Z " fill="#010000" transform="translate(225.4375,138.8125)"/>
<path d="M0 0 C4.29 0 8.58 0 13 0 C13 12.21 13 24.42 13 37 C8.71 37 4.42 37 0 37 C0 34.36 0 31.72 0 29 C3.96 29 7.92 29 12 29 C12 19.76 12 10.52 12 1 C8.04 1 4.08 1 0 1 C0 0.67 0 0.34 0 0 Z " fill="#D6D4DA" transform="translate(62,197)"/>
<path d="M0 0 C1 1 1 1 1.19 4.44 C1 8 1 8 -1 10 C-4.14 10.33 -6.17 10.53 -8.88 8.81 C-10.41 6.34 -10.43 4.85 -10 2 C-7.59 -2.25 -4.24 -0.94 0 0 Z " fill="#F2F0F1" transform="translate(132,85)"/>
<path d="M0 0 C9.77 -0.77 9.77 -0.77 14.19 2 C16 5 16 5 16 13 C9.4 13 2.8 13 -4 13 C-4 12.67 -4 12.34 -4 12 C0.29 12 4.58 12 9 12 C8.67 8.37 8.34 4.74 8 1 C5.36 1 2.72 1 0 1 C0 0.67 0 0.34 0 0 Z " fill="#244156" transform="translate(123,7)"/>
<path d="M0 0 C0.7 0 1.4 0.01 2.13 0.01 C3.21 0.01 3.21 0.01 4.32 0.01 C5.85 0.01 7.38 0.01 8.9 0.02 C11.24 0.03 13.58 0.02 15.92 0 C17.41 0.01 18.89 0.01 20.38 0.01 C21.08 0.01 21.78 0 22.5 0 C26.16 0.04 27.68 0.19 30.82 2.28 C31.19 5.28 31.19 5.28 30.82 8.28 C27.82 10.28 27.82 10.28 23.82 10.28 C23.82 7.31 23.82 4.34 23.82 1.28 C19.23 1.3 14.65 1.38 10.07 1.47 C8.77 1.47 7.47 1.48 6.12 1.48 C4.87 1.51 3.62 1.54 2.33 1.57 C1.18 1.59 0.03 1.6 -1.16 1.62 C-5.03 2.46 -6.07 4.02 -8.18 7.28 C-7.26 1.43 -6.04 0.06 0 0 Z " fill="#D7D6DB" transform="translate(116.18101501464844,26.72210693359375)"/>
</svg>
