<?xml version="1.0" encoding="UTF-8"?>
<!-- Generator: visioncortex VTracer 0.6.4 -->
<svg version="1.1" xmlns="http://www.w3.org/2000/svg" width="256" height="256">
<path d="M0 0 C0.93 -0.01 1.85 -0.01 2.81 -0.02 C5.88 -0.04 8.95 -0.05 12.02 -0.06 C13.07 -0.07 14.12 -0.07 15.2 -0.07 C20.75 -0.09 26.3 -0.11 31.85 -0.12 C37.59 -0.13 43.32 -0.16 49.05 -0.2 C53.46 -0.23 57.87 -0.24 62.28 -0.24 C64.39 -0.25 66.51 -0.26 68.62 -0.28 C71.58 -0.3 74.54 -0.3 77.5 -0.29 C78.8 -0.31 78.8 -0.31 80.14 -0.33 C85.55 -0.29 88.67 0.54 92.94 4.18 C94.98 7.23 95.19 7.83 95.21 11.26 C95.22 12.09 95.23 12.92 95.24 13.78 C95.23 14.68 95.23 15.59 95.23 16.53 C95.24 17.48 95.25 18.44 95.25 19.43 C95.27 22.6 95.28 25.78 95.28 28.95 C95.28 31.15 95.29 33.36 95.3 35.56 C95.31 40.18 95.31 44.8 95.31 49.43 C95.31 55.35 95.34 61.27 95.37 67.2 C95.4 71.75 95.4 76.3 95.4 80.85 C95.4 83.04 95.41 85.22 95.43 87.41 C95.45 90.46 95.44 93.51 95.43 96.57 C95.44 97.47 95.45 98.38 95.46 99.31 C95.42 103.36 95.28 105.61 93.16 109.15 C89.89 112.13 87.28 113.42 82.85 113.44 C81.64 113.45 81.64 113.45 80.41 113.46 C79.09 113.46 79.09 113.46 77.75 113.45 C76.83 113.46 75.9 113.46 74.94 113.47 C71.87 113.48 68.8 113.48 65.73 113.48 C63.59 113.48 61.46 113.49 59.32 113.49 C54.85 113.5 50.37 113.5 45.9 113.49 C40.16 113.49 34.43 113.5 28.7 113.53 C24.29 113.54 19.88 113.54 15.47 113.54 C13.36 113.54 11.24 113.55 9.13 113.56 C6.17 113.57 3.22 113.56 0.26 113.55 C-1.05 113.56 -1.05 113.56 -2.39 113.57 C-8.22 113.52 -11.42 112.54 -15.84 108.58 C-17.78 104.75 -17.49 100.96 -17.48 96.73 C-17.49 95.77 -17.49 94.82 -17.5 93.83 C-17.53 90.67 -17.53 87.5 -17.53 84.34 C-17.53 82.14 -17.54 79.94 -17.55 77.74 C-17.56 73.13 -17.56 68.52 -17.56 63.91 C-17.55 58 -17.58 52.09 -17.62 46.19 C-17.65 41.64 -17.65 37.1 -17.65 32.56 C-17.65 30.38 -17.66 28.2 -17.68 26.02 C-17.7 22.98 -17.69 19.93 -17.67 16.88 C-17.69 15.98 -17.7 15.09 -17.71 14.16 C-17.66 9.9 -17.4 7.04 -14.71 3.63 C-10.22 -0.53 -5.8 0.02 0 0 Z " fill="#D7594A" transform="translate(17.057861328125,138.822998046875)"/>
<path d="M0 0 C1.43 -0.01 1.43 -0.01 2.9 -0.03 C6.06 -0.05 9.23 -0.05 12.39 -0.05 C14.59 -0.06 16.79 -0.06 18.99 -0.07 C23.6 -0.09 28.21 -0.09 32.82 -0.08 C38.73 -0.08 44.64 -0.11 50.54 -0.15 C55.09 -0.17 59.63 -0.17 64.17 -0.17 C66.35 -0.17 68.53 -0.18 70.71 -0.2 C73.75 -0.22 76.8 -0.21 79.85 -0.2 C80.75 -0.21 81.64 -0.22 82.57 -0.24 C86.83 -0.18 89.69 0.08 93.1 2.77 C97.26 7.26 96.71 11.67 96.73 17.48 C96.74 18.4 96.74 19.33 96.75 20.29 C96.77 23.36 96.78 26.43 96.79 29.5 C96.8 30.55 96.8 31.6 96.8 32.68 C96.82 38.23 96.84 43.78 96.85 49.33 C96.86 55.07 96.89 60.8 96.93 66.53 C96.96 70.94 96.97 75.35 96.97 79.76 C96.98 81.87 96.99 83.99 97.01 86.1 C97.03 89.06 97.03 92.02 97.02 94.97 C97.04 95.85 97.05 96.72 97.06 97.61 C97.02 103.03 96.19 106.15 92.55 110.42 C89.5 112.45 88.9 112.67 85.47 112.69 C84.22 112.7 84.22 112.7 82.95 112.71 C81.59 112.71 81.59 112.71 80.2 112.71 C79.25 112.72 78.29 112.72 77.3 112.73 C74.13 112.75 70.95 112.75 67.78 112.76 C65.58 112.76 63.37 112.77 61.17 112.78 C56.55 112.79 51.93 112.79 47.3 112.79 C41.38 112.79 35.46 112.82 29.53 112.85 C24.98 112.87 20.43 112.88 15.88 112.88 C13.69 112.88 11.51 112.89 9.32 112.9 C6.27 112.92 3.22 112.92 0.16 112.91 C-0.74 112.92 -1.64 112.93 -2.58 112.94 C-6.63 112.9 -8.88 112.76 -12.42 110.64 C-15.4 107.37 -16.69 104.76 -16.71 100.33 C-16.71 99.52 -16.72 98.72 -16.73 97.89 C-16.73 97.01 -16.72 96.13 -16.72 95.23 C-16.73 94.3 -16.73 93.37 -16.74 92.42 C-16.75 89.35 -16.75 86.28 -16.75 83.21 C-16.75 81.07 -16.76 78.94 -16.76 76.8 C-16.77 72.33 -16.77 67.85 -16.76 63.38 C-16.76 57.64 -16.77 51.91 -16.8 46.17 C-16.81 41.77 -16.81 37.36 -16.81 32.95 C-16.81 30.83 -16.82 28.72 -16.83 26.61 C-16.84 23.65 -16.83 20.69 -16.82 17.74 C-16.83 16.86 -16.83 15.99 -16.84 15.09 C-16.79 9.26 -15.81 6.06 -11.85 1.63 C-8.02 -0.3 -4.23 -0.01 0 0 Z " fill="#7EAADA" transform="translate(155.44677734375,-0.419921875)"/>
<path d="M0 0 C0.84 -0.01 1.67 -0.02 2.54 -0.03 C3.46 -0.03 4.38 -0.03 5.32 -0.04 C6.29 -0.05 7.26 -0.06 8.26 -0.06 C11.47 -0.09 14.68 -0.11 17.89 -0.12 C19.53 -0.13 19.53 -0.13 21.21 -0.14 C27.01 -0.16 32.8 -0.18 38.6 -0.2 C44.59 -0.21 50.58 -0.26 56.57 -0.31 C61.18 -0.34 65.78 -0.35 70.38 -0.36 C72.59 -0.37 74.8 -0.38 77.01 -0.41 C80.1 -0.44 83.19 -0.44 86.28 -0.43 C87.65 -0.45 87.65 -0.45 89.05 -0.48 C93.56 -0.43 95.39 -0.32 99.04 2.57 C102.46 7.09 102.16 10.78 102.19 16.28 C102.2 17.7 102.2 17.7 102.21 19.15 C102.24 22.29 102.26 25.43 102.27 28.58 C102.28 29.65 102.28 30.72 102.29 31.82 C102.31 37.5 102.33 43.17 102.35 48.85 C102.36 54.71 102.41 60.57 102.46 66.43 C102.49 70.94 102.5 75.44 102.51 79.95 C102.52 82.11 102.53 84.27 102.56 86.43 C102.59 89.46 102.59 92.48 102.58 95.51 C102.6 96.4 102.61 97.29 102.63 98.21 C102.59 102.5 102.33 105.29 99.59 108.69 C95.24 112.83 91.61 112.31 85.87 112.33 C84.92 112.34 83.98 112.34 83 112.35 C79.86 112.37 76.72 112.38 73.57 112.39 C71.97 112.4 71.97 112.4 70.33 112.4 C64.65 112.43 58.98 112.44 53.31 112.45 C47.44 112.46 41.58 112.49 35.72 112.53 C31.21 112.56 26.71 112.57 22.2 112.57 C20.04 112.58 17.88 112.59 15.72 112.61 C12.69 112.63 9.67 112.63 6.64 112.62 C5.75 112.64 4.86 112.65 3.94 112.66 C-1.66 112.62 -4.71 111.82 -9 108.15 C-10.13 105.89 -10.14 104.66 -10.15 102.15 C-10.16 101.31 -10.16 100.48 -10.17 99.61 C-10.17 98.69 -10.18 97.77 -10.18 96.83 C-10.19 95.86 -10.19 94.89 -10.2 93.89 C-10.22 90.68 -10.23 87.47 -10.24 84.26 C-10.25 83.16 -10.25 82.07 -10.25 80.94 C-10.27 75.14 -10.29 69.35 -10.3 63.55 C-10.31 57.56 -10.34 51.57 -10.38 45.58 C-10.41 40.97 -10.42 36.37 -10.42 31.77 C-10.43 29.56 -10.44 27.35 -10.46 25.14 C-10.48 22.05 -10.48 18.96 -10.47 15.87 C-10.49 14.96 -10.5 14.04 -10.51 13.1 C-10.48 8.92 -10.36 6.73 -8.1 3.11 C-5.26 0.46 -3.77 0.03 0 0 Z " fill="#EFCE49" transform="translate(10.003250122070313,-0.153900146484375)"/>
<path d="M0 0 C3.5 -0.38 3.5 -0.38 7 0 C9.2 3.31 9.25 4.28 9.23 8.11 C9.23 9.15 9.23 10.2 9.23 11.27 C9.22 12.39 9.21 13.51 9.2 14.67 C9.19 15.82 9.19 16.97 9.19 18.15 C9.18 21.83 9.15 25.51 9.12 29.19 C9.11 31.68 9.11 34.17 9.1 36.66 C9.08 42.77 9.04 48.89 9 55 C9.97 54.99 9.97 54.99 10.95 54.99 C17.65 54.94 24.35 54.91 31.05 54.89 C33.55 54.88 36.06 54.87 38.56 54.85 C42.15 54.82 45.74 54.81 49.33 54.8 C51.01 54.79 51.01 54.79 52.73 54.77 C53.77 54.77 54.81 54.77 55.89 54.77 C57.26 54.77 57.26 54.77 58.67 54.76 C61 55 61 55 64 57 C64.38 60.5 64.38 60.5 64 64 C60.69 66.2 59.72 66.25 55.89 66.23 C54.85 66.23 53.8 66.23 52.73 66.23 C51.61 66.22 50.49 66.21 49.33 66.2 C48.18 66.19 47.03 66.19 45.85 66.19 C42.17 66.18 38.49 66.15 34.81 66.12 C32.32 66.11 29.83 66.11 27.34 66.1 C21.23 66.08 15.11 66.04 9 66 C9 66.64 9.01 67.29 9.01 67.95 C9.06 74.65 9.09 81.35 9.11 88.05 C9.12 90.55 9.13 93.06 9.15 95.56 C9.18 99.15 9.19 102.74 9.2 106.33 C9.21 107.45 9.22 108.58 9.23 109.73 C9.23 110.77 9.23 111.81 9.23 112.89 C9.23 113.8 9.24 114.72 9.24 115.67 C9 118 9 118 7 121 C3.5 121.38 3.5 121.38 0 121 C-2.2 117.69 -2.25 116.72 -2.23 112.89 C-2.23 111.85 -2.23 110.8 -2.23 109.73 C-2.22 108.61 -2.21 107.49 -2.2 106.33 C-2.19 105.18 -2.19 104.03 -2.19 102.85 C-2.18 99.17 -2.15 95.49 -2.12 91.81 C-2.11 89.32 -2.11 86.83 -2.1 84.34 C-2.08 78.23 -2.04 72.11 -2 66 C-2.64 66 -3.29 66.01 -3.95 66.01 C-10.65 66.06 -17.35 66.09 -24.05 66.11 C-26.55 66.12 -29.06 66.13 -31.56 66.15 C-35.15 66.18 -38.74 66.19 -42.33 66.2 C-44.01 66.21 -44.01 66.21 -45.73 66.23 C-46.77 66.23 -47.81 66.23 -48.89 66.23 C-49.8 66.23 -50.72 66.24 -51.67 66.24 C-54 66 -54 66 -57 64 C-58.1 61.47 -58.15 60.41 -57.19 57.81 C-56 56 -56 56 -54 55 C-52.34 54.91 -50.67 54.88 -49 54.89 C-47.44 54.89 -47.44 54.89 -45.85 54.89 C-44.72 54.89 -43.59 54.9 -42.43 54.9 C-41.28 54.9 -40.13 54.91 -38.94 54.91 C-35.25 54.91 -31.56 54.92 -27.88 54.94 C-25.38 54.94 -22.88 54.95 -20.39 54.95 C-14.26 54.96 -8.13 54.98 -2 55 C-2 54.36 -2.01 53.71 -2.01 53.05 C-2.06 46.35 -2.09 39.65 -2.11 32.95 C-2.12 30.45 -2.13 27.94 -2.15 25.44 C-2.18 21.85 -2.19 18.26 -2.2 14.67 C-2.21 13.55 -2.22 12.42 -2.23 11.27 C-2.23 9.71 -2.23 9.71 -2.23 8.11 C-2.23 7.2 -2.24 6.28 -2.24 5.33 C-2 3 -2 3 0 0 Z " fill="#23A24C" transform="translate(192,135)"/>
</svg>
