<?xml version="1.0" encoding="UTF-8"?>
<!-- Generator: visioncortex VTracer 0.6.4 -->
<svg version="1.1" xmlns="http://www.w3.org/2000/svg" width="256" height="256">
<path d="M0 0 C1 -0.01 1 -0.01 2.01 -0.02 C4.21 -0.03 6.4 -0.04 8.6 -0.04 C10.12 -0.05 11.65 -0.05 13.18 -0.06 C16.39 -0.07 19.59 -0.08 22.8 -0.08 C26.9 -0.08 30.99 -0.11 35.09 -0.14 C38.25 -0.16 41.41 -0.16 44.57 -0.16 C46.08 -0.17 47.59 -0.17 49.1 -0.19 C51.22 -0.2 53.33 -0.2 55.45 -0.2 C56.66 -0.2 57.86 -0.2 59.1 -0.21 C64.42 0.38 68.34 2.49 71.73 6.6 C72.47 7.46 72.47 7.46 73.22 8.34 C75.74 12.16 75.56 16.17 75.6 20.64 C75.62 22.61 75.62 22.61 75.64 24.62 C75.64 26.06 75.65 27.49 75.66 28.93 C75.66 29.65 75.67 30.38 75.67 31.13 C75.69 34.97 75.71 38.81 75.72 42.65 C75.73 46.6 75.76 50.55 75.8 54.5 C75.83 57.56 75.84 60.61 75.84 63.66 C75.84 65.12 75.86 66.57 75.87 68.03 C75.97 75.97 75.94 82.37 71.42 89.16 C66.4 94.06 61.73 95.41 54.81 95.44 C53.5 95.45 52.18 95.45 50.82 95.46 C49.39 95.46 47.95 95.46 46.52 95.46 C45.04 95.47 43.57 95.47 42.09 95.47 C38.99 95.48 35.9 95.48 32.8 95.48 C28.85 95.47 24.9 95.49 20.94 95.51 C17.89 95.53 14.84 95.53 11.79 95.52 C10.33 95.52 8.87 95.53 7.42 95.54 C-8.61 95.64 -8.61 95.64 -14.54 90.44 C-15.01 89.85 -15.47 89.27 -15.95 88.66 C-16.68 87.78 -16.68 87.78 -17.42 86.88 C-19.88 83.24 -19.72 79.85 -19.74 75.58 C-19.75 74.92 -19.75 74.25 -19.76 73.57 C-19.77 71.38 -19.78 69.18 -19.78 66.99 C-19.79 65.46 -19.79 63.93 -19.8 62.4 C-19.81 59.2 -19.82 55.99 -19.82 52.78 C-19.83 48.69 -19.85 44.59 -19.88 40.49 C-19.9 37.33 -19.9 34.17 -19.9 31.01 C-19.91 29.5 -19.91 27.99 -19.93 26.48 C-19.94 24.36 -19.94 22.25 -19.94 20.13 C-19.94 18.93 -19.94 17.72 -19.95 16.48 C-19.35 11.13 -17.24 7.23 -13.08 3.85 C-12.49 3.36 -11.9 2.87 -11.3 2.36 C-7.68 -0.17 -4.27 0.02 0 0 Z " fill="#FFC00F" transform="translate(155.579345703125,135.8388671875)"/>
<path d="M0 0 C1 -0.01 1 -0.01 2.01 -0.02 C4.21 -0.03 6.4 -0.04 8.6 -0.04 C10.12 -0.05 11.65 -0.05 13.18 -0.06 C16.39 -0.07 19.59 -0.08 22.8 -0.08 C26.9 -0.08 30.99 -0.11 35.09 -0.14 C38.25 -0.16 41.41 -0.16 44.57 -0.16 C46.08 -0.17 47.59 -0.17 49.1 -0.19 C51.22 -0.2 53.33 -0.2 55.45 -0.2 C56.66 -0.2 57.86 -0.2 59.1 -0.21 C64.46 0.39 68.35 2.5 71.73 6.66 C72.47 7.54 72.47 7.54 73.22 8.44 C75.75 12.06 75.56 15.47 75.58 19.74 C75.59 20.74 75.59 20.74 75.6 21.75 C75.61 23.95 75.62 26.14 75.62 28.34 C75.63 29.87 75.64 31.39 75.64 32.92 C75.65 36.13 75.66 39.33 75.66 42.54 C75.67 46.64 75.69 50.74 75.72 54.83 C75.74 57.99 75.74 61.15 75.74 64.31 C75.75 65.82 75.76 67.33 75.77 68.84 C75.79 70.96 75.78 73.08 75.78 75.19 C75.78 77 75.78 77 75.79 78.84 C75.2 84.16 73.09 88.08 68.98 91.47 C68.41 91.96 67.83 92.46 67.24 92.96 C63.42 95.48 59.42 95.3 54.94 95.34 C53.63 95.35 52.31 95.36 50.96 95.38 C49.52 95.39 48.09 95.39 46.66 95.4 C45.57 95.41 45.57 95.41 44.46 95.41 C40.62 95.43 36.77 95.45 32.93 95.46 C28.98 95.47 25.03 95.5 21.08 95.54 C18.03 95.57 14.97 95.58 11.92 95.58 C10.46 95.58 9.01 95.6 7.55 95.61 C-0.38 95.71 -6.79 95.68 -13.58 91.16 C-18.47 86.14 -19.83 81.47 -19.85 74.55 C-19.86 73.24 -19.87 71.92 -19.88 70.56 C-19.88 69.13 -19.88 67.69 -19.88 66.26 C-19.88 64.78 -19.89 63.31 -19.89 61.83 C-19.9 58.73 -19.9 55.64 -19.9 52.54 C-19.89 48.59 -19.91 44.64 -19.93 40.68 C-19.94 37.63 -19.94 34.58 -19.94 31.53 C-19.94 30.07 -19.95 28.61 -19.96 27.16 C-20.06 11.13 -20.06 11.13 -14.86 5.2 C-14.27 4.73 -13.68 4.27 -13.08 3.79 C-12.49 3.3 -11.9 2.82 -11.3 2.33 C-7.65 -0.14 -4.27 0.02 0 0 Z " fill="#E53C36" transform="translate(44.579345703125,135.8388671875)"/>
<path d="M0 0 C1.32 -0.01 2.64 -0.02 4 -0.03 C5.43 -0.03 6.86 -0.03 8.29 -0.03 C9.77 -0.03 11.25 -0.03 12.73 -0.04 C15.82 -0.05 18.92 -0.05 22.01 -0.04 C25.96 -0.04 29.92 -0.05 33.87 -0.08 C36.92 -0.09 39.97 -0.09 43.03 -0.09 C44.48 -0.09 45.94 -0.09 47.4 -0.1 C63.43 -0.2 63.43 -0.2 69.35 4.99 C70.05 5.88 70.05 5.88 70.77 6.77 C71.25 7.36 71.73 7.95 72.23 8.56 C74.7 12.2 74.53 15.59 74.55 19.85 C74.56 20.85 74.56 20.85 74.57 21.87 C74.58 24.06 74.59 26.26 74.6 28.45 C74.6 29.98 74.61 31.51 74.61 33.04 C74.62 36.24 74.63 39.45 74.63 42.65 C74.64 46.75 74.66 50.85 74.69 54.95 C74.71 58.11 74.72 61.26 74.72 64.42 C74.72 65.93 74.73 67.44 74.74 68.95 C74.76 71.07 74.76 73.19 74.75 75.31 C74.75 77.11 74.75 77.11 74.76 78.95 C74.17 84.31 72.06 88.2 67.89 91.59 C67.01 92.32 67.01 92.32 66.11 93.08 C62.49 95.6 59.09 95.41 54.81 95.44 C54.15 95.44 53.49 95.45 52.8 95.45 C50.61 95.47 48.41 95.47 46.22 95.48 C44.69 95.48 43.16 95.49 41.63 95.5 C38.43 95.51 35.22 95.51 32.02 95.51 C27.92 95.52 23.82 95.54 19.72 95.57 C16.56 95.59 13.4 95.6 10.25 95.6 C8.74 95.6 7.22 95.61 5.71 95.62 C3.6 95.64 1.48 95.64 -0.64 95.63 C-1.84 95.63 -3.05 95.64 -4.29 95.64 C-9.6 95.05 -13.52 92.95 -16.92 88.84 C-17.41 88.26 -17.9 87.68 -18.41 87.09 C-20.93 83.27 -20.75 79.27 -20.78 74.8 C-20.8 73.48 -20.81 72.17 -20.82 70.81 C-20.83 69.38 -20.84 67.94 -20.85 66.51 C-20.85 65.78 -20.85 65.06 -20.86 64.31 C-20.88 60.47 -20.89 56.63 -20.9 52.79 C-20.91 48.83 -20.95 44.88 -20.99 40.93 C-21.01 37.88 -21.02 34.83 -21.03 31.77 C-21.03 30.32 -21.04 28.86 -21.06 27.41 C-21.16 19.47 -21.13 13.07 -16.61 6.27 C-11.58 1.38 -6.91 0.03 0 0 Z " fill="#2CABE1" transform="translate(45.60693359375,24.725341796875)"/>
<path d="M0 0 C1.97 -0.02 1.97 -0.02 3.99 -0.04 C5.42 -0.05 6.85 -0.05 8.29 -0.06 C9.01 -0.07 9.74 -0.07 10.49 -0.07 C14.33 -0.09 18.17 -0.11 22.01 -0.12 C25.96 -0.13 29.91 -0.16 33.87 -0.2 C36.92 -0.23 39.97 -0.24 43.02 -0.24 C44.48 -0.25 45.93 -0.26 47.39 -0.28 C55.33 -0.37 61.73 -0.35 68.52 4.18 C73.42 9.2 74.77 13.87 74.8 20.78 C74.81 22.1 74.82 23.42 74.83 24.78 C74.83 26.21 74.82 27.64 74.82 29.08 C74.83 30.55 74.83 32.03 74.84 33.51 C74.84 36.61 74.84 39.7 74.84 42.8 C74.83 46.75 74.85 50.7 74.87 54.65 C74.89 57.71 74.89 60.76 74.88 63.81 C74.89 65.27 74.89 66.72 74.9 68.18 C75 84.21 75 84.21 69.8 90.14 C68.92 90.84 68.92 90.84 68.02 91.55 C67.43 92.03 66.85 92.52 66.24 93.01 C62.6 95.48 59.21 95.31 54.94 95.34 C54.28 95.34 53.62 95.35 52.93 95.35 C50.74 95.37 48.54 95.37 46.35 95.38 C44.82 95.39 43.29 95.39 41.76 95.4 C38.56 95.41 35.35 95.41 32.15 95.42 C28.05 95.42 23.95 95.45 19.85 95.48 C16.69 95.49 13.53 95.5 10.38 95.5 C8.86 95.5 7.35 95.51 5.84 95.52 C3.73 95.54 1.61 95.54 -0.51 95.53 C-1.71 95.54 -2.92 95.54 -4.16 95.54 C-9.51 94.95 -13.4 92.84 -16.79 88.68 C-17.28 88.09 -17.77 87.5 -18.28 86.9 C-20.8 83.28 -20.61 79.87 -20.64 75.6 C-20.64 74.93 -20.65 74.27 -20.65 73.59 C-20.67 71.39 -20.68 69.2 -20.68 67 C-20.69 65.47 -20.69 63.94 -20.7 62.42 C-20.71 59.21 -20.71 56.01 -20.72 52.8 C-20.72 48.7 -20.75 44.6 -20.78 40.5 C-20.79 37.35 -20.8 34.19 -20.8 31.03 C-20.8 29.52 -20.81 28.01 -20.83 26.5 C-20.84 24.38 -20.84 22.26 -20.83 20.14 C-20.84 18.94 -20.84 17.74 -20.85 16.5 C-20.26 11.18 -18.15 7.26 -14.04 3.86 C-13.46 3.37 -12.89 2.88 -12.29 2.38 C-8.47 -0.15 -4.47 0.04 0 0 Z " fill="#7CB342" transform="translate(156.4775390625,24.822998046875)"/>
<path d="M0 0 C19.8 0 39.6 0 60 0 C60 19.8 60 39.6 60 60 C50.29 60.02 40.57 60.04 30.56 60.06 C27.49 60.07 24.42 60.08 21.26 60.09 C18.84 60.09 16.42 60.1 14 60.1 C12.74 60.1 11.47 60.11 10.16 60.11 C8.96 60.11 7.76 60.11 6.53 60.11 C4.96 60.12 4.96 60.12 3.36 60.12 C1 60 1 60 0 59 C-0.09 57.16 -0.12 55.31 -0.11 53.47 C-0.11 52.27 -0.11 51.07 -0.11 49.84 C-0.11 47.94 -0.11 47.94 -0.1 46 C-0.1 44.84 -0.1 43.68 -0.09 42.48 C-0.09 38.14 -0.08 33.79 -0.06 29.44 C-0.04 19.72 -0.02 10.01 0 0 Z " fill="#FBF4DE" transform="translate(153,154)"/>
<path d="M0 0 C19.8 0 39.6 0 60 0 C60 19.8 60 39.6 60 60 C50.29 60.02 40.57 60.04 30.56 60.06 C27.49 60.07 24.42 60.08 21.26 60.09 C18.84 60.09 16.42 60.1 14 60.1 C12.74 60.1 11.47 60.11 10.16 60.11 C8.96 60.11 7.76 60.11 6.53 60.11 C4.96 60.12 4.96 60.12 3.36 60.12 C1 60 1 60 0 59 C-0.09 57.16 -0.12 55.31 -0.11 53.47 C-0.11 52.27 -0.11 51.07 -0.11 49.84 C-0.11 47.94 -0.11 47.94 -0.1 46 C-0.1 44.84 -0.1 43.68 -0.09 42.48 C-0.09 38.14 -0.08 33.79 -0.06 29.44 C-0.04 19.72 -0.02 10.01 0 0 Z " fill="#EDF3E6" transform="translate(153,43)"/>
<path d="M0 0 C19.8 0 39.6 0 60 0 C60 19.8 60 39.6 60 60 C50.29 60.02 40.57 60.04 30.56 60.06 C27.49 60.07 24.42 60.08 21.26 60.09 C18.84 60.09 16.42 60.1 14 60.1 C12.74 60.1 11.47 60.11 10.16 60.11 C8.96 60.11 7.76 60.11 6.53 60.11 C4.96 60.12 4.96 60.12 3.36 60.12 C1 60 1 60 0 59 C-0.09 57.16 -0.12 55.31 -0.11 53.47 C-0.11 52.27 -0.11 51.07 -0.11 49.84 C-0.11 47.94 -0.11 47.94 -0.1 46 C-0.1 44.84 -0.1 43.68 -0.09 42.48 C-0.09 38.14 -0.08 33.79 -0.06 29.44 C-0.04 19.72 -0.02 10.01 0 0 Z " fill="#DEF0F9" transform="translate(42,43)"/>
<path d="M0 0 C19.47 0 38.94 0 59 0 C59 19.47 59 38.94 59 59 C39.53 59 20.06 59 0 59 C0 39.53 0 20.06 0 0 Z " fill="#F9E7EA" transform="translate(43,154)"/>
<path d="M0 0 C3.63 0 7.26 0 11 0 C11 16.17 11 32.34 11 49 C27.17 49 43.34 49 60 49 C60 52.63 60 56.26 60 60 C52.32 60.02 44.65 60.04 36.97 60.05 C33.41 60.06 29.85 60.06 26.28 60.08 C22.19 60.09 18.1 60.09 14 60.1 C12.08 60.11 12.08 60.11 10.11 60.11 C8.34 60.11 8.34 60.11 6.53 60.11 C4.96 60.12 4.96 60.12 3.36 60.12 C1 60 1 60 0 59 C-0.09 57.16 -0.12 55.31 -0.11 53.47 C-0.11 52.29 -0.11 51.11 -0.11 49.89 C-0.11 48.61 -0.1 47.32 -0.1 46 C-0.1 44.69 -0.09 43.38 -0.09 42.03 C-0.09 38.55 -0.08 35.06 -0.07 31.58 C-0.06 28.03 -0.05 24.48 -0.05 20.92 C-0.04 13.95 -0.02 6.97 0 0 Z " fill="#FFE9AB" transform="translate(153,154)"/>
<path d="M0 0 C3.63 0 7.26 0 11 0 C11 16.17 11 32.34 11 49 C27.17 49 43.34 49 60 49 C60 52.63 60 56.26 60 60 C52.32 60.02 44.65 60.04 36.97 60.05 C33.41 60.06 29.85 60.06 26.28 60.08 C22.19 60.09 18.1 60.09 14 60.1 C12.08 60.11 12.08 60.11 10.11 60.11 C8.34 60.11 8.34 60.11 6.53 60.11 C4.96 60.12 4.96 60.12 3.36 60.12 C1 60 1 60 0 59 C-0.09 57.16 -0.12 55.31 -0.11 53.47 C-0.11 52.29 -0.11 51.11 -0.11 49.89 C-0.11 48.61 -0.1 47.32 -0.1 46 C-0.1 44.69 -0.09 43.38 -0.09 42.03 C-0.09 38.55 -0.08 35.06 -0.07 31.58 C-0.06 28.03 -0.05 24.48 -0.05 20.92 C-0.04 13.95 -0.02 6.97 0 0 Z " fill="#D7E8C2" transform="translate(153,43)"/>
<path d="M0 0 C3.63 0 7.26 0 11 0 C11 16.17 11 32.34 11 49 C27.17 49 43.34 49 60 49 C60 52.63 60 56.26 60 60 C52.32 60.02 44.65 60.04 36.97 60.05 C33.41 60.06 29.85 60.06 26.28 60.08 C22.19 60.09 18.1 60.09 14 60.1 C12.08 60.11 12.08 60.11 10.11 60.11 C8.34 60.11 8.34 60.11 6.53 60.11 C4.96 60.12 4.96 60.12 3.36 60.12 C1 60 1 60 0 59 C-0.09 57.16 -0.12 55.31 -0.11 53.47 C-0.11 52.29 -0.11 51.11 -0.11 49.89 C-0.11 48.61 -0.1 47.32 -0.1 46 C-0.1 44.69 -0.09 43.38 -0.09 42.03 C-0.09 38.55 -0.08 35.06 -0.07 31.58 C-0.06 28.03 -0.05 24.48 -0.05 20.92 C-0.04 13.95 -0.02 6.97 0 0 Z " fill="#AEE0F8" transform="translate(42,43)"/>
<path d="M0 0 C3.3 0 6.6 0 10 0 C10 16.17 10 32.34 10 49 C26.17 49 42.34 49 59 49 C59 52.3 59 55.6 59 59 C39.53 59 20.06 59 0 59 C0 39.53 0 20.06 0 0 Z " fill="#F9CCD2" transform="translate(43,154)"/>
<path d="M0 0 C11.55 0 23.1 0 35 0 C35 4.29 35 8.58 35 13 C23.45 13 11.9 13 0 13 C0 8.71 0 4.42 0 0 Z " fill="#4D606A" transform="translate(55,166)"/>
<path d="M0 0 C11.55 0 23.1 0 35 0 C35 4.29 35 8.58 35 13 C23.45 13 11.9 13 0 13 C0 8.71 0 4.42 0 0 Z " fill="#4C616B" transform="translate(55,77)"/>
<path d="M0 0 C11.22 0 22.44 0 34 0 C34 3.96 34 7.92 34 12 C22.78 12.33 11.56 12.66 0 13 C0 8.71 0 4.42 0 0 Z " fill="#455A64" transform="translate(166,188)"/>
<path d="M0 0 C11.22 0.33 22.44 0.66 34 1 C34 4.96 34 8.92 34 13 C22.78 13 11.56 13 0 13 C0 8.71 0 4.42 0 0 Z " fill="#455A64" transform="translate(166,55)"/>
<path d="M0 0 C5.94 0 11.88 0 18 0 C18 4.29 18 8.58 18 13 C12.06 13 6.12 13 0 13 C0 8.71 0 4.42 0 0 Z " fill="#55676E" transform="translate(166,166)"/>
<path d="M0 0 C5.94 0 11.88 0 18 0 C18 4.29 18 8.58 18 13 C12.06 13 6.12 13 0 13 C0 8.71 0 4.42 0 0 Z " fill="#54676F" transform="translate(166,77)"/>
<path d="M0 0 C5.61 0 11.22 0 17 0 C17 3.96 17 7.92 17 12 C11.26 12.83 5.8 13.09 0 13 C0 8.71 0 4.42 0 0 Z " fill="#313C43" transform="translate(55,188)"/>
<path d="M0 0 C5.8 -0.09 11.26 0.17 17 1 C17 4.96 17 8.92 17 13 C11.39 13 5.78 13 0 13 C0 8.71 0 4.42 0 0 Z " fill="#303D43" transform="translate(55,55)"/>
<path d="M0 0 C3.63 0 7.26 0 11 0 C11 4.29 11 8.58 11 13 C7.37 13 3.74 13 0 13 C0 8.71 0 4.42 0 0 Z " fill="#2F3B40" transform="translate(166,188)"/>
<path d="M0 0 C3.63 0 7.26 0 11 0 C11 4.29 11 8.58 11 13 C7.37 13 3.74 13 0 13 C0 8.71 0 4.42 0 0 Z " fill="#2F3A40" transform="translate(55,166)"/>
<path d="M0 0 C3.63 0 7.26 0 11 0 C11 4.29 11 8.58 11 13 C7.37 13 3.74 13 0 13 C0 8.71 0 4.42 0 0 Z " fill="#2E3A41" transform="translate(55,77)"/>
<path d="M0 0 C3.63 0 7.26 0 11 0 C11 4.29 11 8.58 11 13 C7.37 13 3.74 13 0 13 C0 8.71 0 4.42 0 0 Z " fill="#2E3B40" transform="translate(166,55)"/>
<path d="M0 0 C2.97 0 5.94 0 9 0 C9 4.29 9 8.58 9 13 C6.03 13 3.06 13 0 13 C0 8.71 0 4.42 0 0 Z " fill="#2F3B40" transform="translate(166,166)"/>
<path d="M0 0 C2.97 0 5.94 0 9 0 C9 4.29 9 8.58 9 13 C6.03 13 3.06 13 0 13 C0 8.71 0 4.42 0 0 Z " fill="#2E3B41" transform="translate(166,77)"/>
<path d="M0 0 C2.64 0 5.28 0 8 0 C8 3.96 8 7.92 8 12 C5.36 12 2.72 12 0 12 C0 8.04 0 4.08 0 0 Z " fill="#455A64" transform="translate(64,188)"/>
<path d="M0 0 C2.64 0 5.28 0 8 0 C8 3.96 8 7.92 8 12 C5.36 12 2.72 12 0 12 C0 8.04 0 4.08 0 0 Z " fill="#455A64" transform="translate(64,56)"/>
</svg>
