<?xml version="1.0" encoding="UTF-8"?>
<!-- Generator: visioncortex VTracer 0.6.4 -->
<svg version="1.1" xmlns="http://www.w3.org/2000/svg" width="256" height="256">
<path d="M0 0 C1.23 -0.01 1.23 -0.01 2.49 -0.01 C5.2 -0.02 7.92 -0.02 10.63 -0.02 C12.52 -0.03 14.41 -0.03 16.3 -0.03 C20.25 -0.04 24.21 -0.04 28.17 -0.04 C33.23 -0.04 38.3 -0.05 43.37 -0.07 C47.27 -0.08 51.17 -0.08 55.07 -0.08 C56.94 -0.08 58.81 -0.09 60.67 -0.1 C63.29 -0.11 65.9 -0.1 68.52 -0.1 C69.29 -0.1 70.06 -0.11 70.85 -0.11 C76.14 -0.08 80.01 0.33 83.82 4.15 C84.16 6.2 84.16 6.2 84.2 8.58 C84.23 9.37 84.25 10.15 84.28 10.95 C83.82 13.15 83.82 13.15 82.29 14.77 C78.85 16.68 75.74 16.45 71.93 16.31 C70.28 16.27 68.64 16.24 67 16.2 C66.13 16.18 65.26 16.15 64.36 16.13 C59.72 16.01 55.08 15.98 50.44 15.93 C44.55 15.87 38.66 15.78 32.77 15.6 C8.37 13.77 8.37 13.77 -13.13 22.9 C-18.34 28.41 -21.73 33.14 -22.12 40.87 C-22.08 43.15 -22.08 43.15 -21.48 46.66 C-21.12 50.81 -22.03 52.63 -24.18 56.15 C-24.95 57.41 -24.95 57.41 -25.74 58.71 C-29.4 62.37 -33.2 64.68 -38.18 66.15 C-40.35 65.92 -42.52 65.65 -44.68 65.33 C-50.27 65.06 -52.61 66.15 -56.83 69.85 C-62.14 74.99 -67.05 80.47 -71.83 86.09 C-77.88 93.16 -84.59 99.59 -91.23 106.1 C-92.85 107.69 -94.46 109.29 -96.08 110.88 C-96.57 111.37 -97.07 111.85 -97.58 112.35 C-99.87 114.62 -101.14 116.04 -102.18 119.15 C-79.41 119.15 -56.64 119.15 -33.18 119.15 C-32.52 117.17 -31.86 115.19 -31.18 113.15 C-27.17 108.05 -21.49 105.2 -15.18 104.15 C-7.68 103.79 -1.95 105.29 3.82 110.15 C6.65 113.12 7.96 115.2 8.82 119.15 C9.62 119.07 10.43 119 11.25 118.93 C20.43 118.47 25.92 120.49 33.64 125.27 C34.7 125.9 35.76 126.52 36.85 127.17 C39.07 128.48 41.28 129.8 43.49 131.13 C46.78 133.12 50.09 135.06 53.42 136.98 C58.35 139.83 63.26 142.68 68.16 145.57 C69.98 146.65 71.8 147.72 73.63 148.78 C74.52 149.3 75.41 149.82 76.33 150.36 C77.12 150.83 77.91 151.29 78.73 151.77 C80.76 153.1 82.31 154.24 83.82 156.15 C84.58 162.94 84.58 162.94 82.26 166.65 C78.98 168.67 76.52 168.91 72.82 168.15 C68.69 166.28 64.88 163.94 61.01 161.58 C59.29 160.56 57.57 159.54 55.85 158.53 C54.06 157.46 52.27 156.39 50.48 155.32 C46.82 153.14 43.13 151 39.44 148.88 C38.84 148.54 38.25 148.2 37.64 147.84 C36.46 147.17 35.28 146.49 34.11 145.82 C31.37 144.25 28.63 142.67 25.89 141.09 C24.98 140.57 24.07 140.05 23.14 139.51 C21.33 138.45 19.57 137.31 17.82 136.15 C15.54 135.69 15.54 135.69 13.14 135.52 C12.33 135.45 11.52 135.37 10.69 135.29 C9.76 135.22 9.76 135.22 8.82 135.15 C8.79 136.17 8.79 136.17 8.76 137.21 C6.98 142.79 2.51 146.12 -2.36 149.08 C-8.98 150.93 -16.07 151.46 -22.49 148.65 C-27.37 145.81 -31.65 141.2 -34.18 136.15 C-67.84 135.65 -67.84 135.65 -102.18 135.15 C-103.17 138.12 -103.17 138.12 -104.18 141.15 C-106.05 143.23 -106.05 143.23 -108.18 144.96 C-108.88 145.54 -109.58 146.13 -110.3 146.73 C-112.18 148.15 -112.18 148.15 -114.18 149.15 C-115.73 156.75 -116.64 164.1 -112.44 170.99 C-110.13 173.94 -107.69 176.61 -105.05 179.27 C-104.22 180.14 -103.38 181.01 -102.52 181.91 C-96.37 187.66 -91.69 189.12 -83.3 189.08 C-77.91 189.19 -74.26 191.14 -70.44 194.82 C-66.66 199.03 -64.09 202.8 -63.55 208.52 C-63.44 209.61 -63.44 209.61 -63.33 210.73 C-63.18 213.15 -63.18 213.15 -63.62 215.95 C-62.91 221.05 -59.41 223.51 -55.74 226.9 C-54.34 228.22 -52.95 229.55 -51.56 230.88 C-50.93 231.46 -50.31 232.04 -49.67 232.64 C-47.35 234.99 -47.18 236.14 -46.86 239.52 C-47.18 243.15 -47.18 243.15 -48.93 245.52 C-51.21 247.17 -52.39 247.98 -55.18 248.15 C-60.58 246.78 -63.76 242.9 -67.49 239.02 C-68.14 238.36 -68.78 237.7 -69.45 237.02 C-71.03 235.4 -72.61 233.78 -74.18 232.15 C-75.04 232.47 -75.89 232.79 -76.78 233.12 C-83.4 235.11 -91.2 235.46 -97.61 232.58 C-103.22 229.24 -107.2 224.36 -109.18 218.15 C-109.44 215.02 -109.44 215.02 -109.43 211.71 C-109.44 210.07 -109.44 210.07 -109.44 208.4 C-109.17 205.02 -108.3 202.33 -107.18 199.15 C-107.87 198.46 -108.56 197.77 -109.27 197.07 C-111.83 194.52 -114.39 191.98 -116.95 189.43 C-118.06 188.33 -119.17 187.22 -120.28 186.12 C-121.87 184.54 -123.46 182.96 -125.05 181.37 C-125.55 180.88 -126.04 180.39 -126.56 179.88 C-131.15 175.29 -131.15 175.29 -131.24 171.72 C-131.22 170.72 -131.2 169.72 -131.18 168.69 C-131.18 167.6 -131.18 166.5 -131.18 165.38 C-131.18 163.07 -131.15 160.77 -131.08 158.46 C-131.11 155.14 -131.25 152.34 -132.18 149.15 C-134.3 147.06 -136.35 145.86 -138.99 144.5 C-141.49 142.96 -141.97 141.99 -143.02 139.31 C-144.79 135.96 -144.79 135.96 -147.56 135.56 C-150.62 135.37 -153.62 135.37 -156.68 135.46 C-158.75 135.49 -160.82 135.51 -162.9 135.51 C-163.81 135.53 -164.73 135.56 -165.68 135.58 C-168.96 135.01 -170.11 133.69 -172.18 131.15 C-172.74 129.15 -172.74 129.15 -172.74 127.15 C-172.76 126.49 -172.78 125.83 -172.81 125.15 C-171.74 121.77 -170.25 120.87 -167.18 119.15 C-162.51 118.54 -157.81 118.74 -153.11 118.83 C-150.35 118.81 -147.87 118.75 -145.18 118.15 C-142.57 115.42 -142.57 115.42 -141.18 112.15 C-138.24 109.06 -135.4 106.99 -131.18 106.15 C-131.19 105.05 -131.2 103.96 -131.2 102.83 C-131.29 92.53 -131.35 82.23 -131.38 71.93 C-131.41 66.64 -131.43 61.34 -131.48 56.04 C-131.52 50.94 -131.55 45.83 -131.56 40.72 C-131.56 38.77 -131.58 36.82 -131.6 34.87 C-131.63 32.14 -131.63 29.41 -131.63 26.68 C-131.65 25.87 -131.66 25.06 -131.68 24.23 C-131.65 20.63 -131.5 18.58 -129.3 15.67 C-126.78 13.86 -125.29 13.22 -122.18 13.15 C-118.69 14.77 -117.33 15.91 -115.18 19.15 C-114.96 21.92 -114.87 24.6 -114.86 27.38 C-114.85 28.22 -114.84 29.06 -114.83 29.92 C-114.8 32.7 -114.78 35.47 -114.76 38.25 C-114.74 40.17 -114.73 42.1 -114.7 44.02 C-114.65 49.09 -114.61 54.15 -114.58 59.22 C-114.54 64.39 -114.49 69.55 -114.44 74.72 C-114.34 84.86 -114.25 95 -114.18 105.15 C-110.17 101.17 -106.17 97.18 -102.17 93.19 C-100.81 91.84 -99.46 90.49 -98.1 89.14 C-88.5 79.7 -88.5 79.7 -79.53 69.68 C-78 67.95 -76.34 66.47 -74.58 64.98 C-67.77 59.51 -67.77 59.51 -64.86 51.74 C-65.44 48.39 -65.44 48.39 -66.38 45.15 C-67.79 39.82 -66.57 35.7 -63.98 30.96 C-59.89 24.87 -54.98 22.41 -48.18 20.15 C-43.84 20 -40.73 19.98 -36.55 21.27 C-33.36 21.68 -32.37 21.29 -29.72 19.37 C-27.01 16.76 -24.46 14.06 -21.93 11.27 C-20.18 9.39 -18.42 7.52 -16.66 5.65 C-15.9 4.81 -15.13 3.98 -14.34 3.11 C-10.19 -0.66 -5.36 -0 0 0 Z " fill="#FD425C" transform="translate(172.177490234375,3.854736328125)"/>
<path d="M0 0 C0.82 -0 1.64 -0.01 2.49 -0.01 C5.2 -0.02 7.92 -0.02 10.63 -0.02 C12.52 -0.03 14.41 -0.03 16.3 -0.03 C20.25 -0.04 24.21 -0.04 28.17 -0.04 C33.23 -0.04 38.3 -0.05 43.37 -0.07 C47.27 -0.08 51.17 -0.08 55.07 -0.08 C56.94 -0.08 58.81 -0.09 60.67 -0.1 C63.29 -0.11 65.9 -0.1 68.52 -0.1 C69.29 -0.1 70.06 -0.11 70.85 -0.11 C76.14 -0.08 80.01 0.33 83.82 4.15 C84.16 6.2 84.16 6.2 84.2 8.58 C84.23 9.37 84.25 10.15 84.28 10.95 C83.82 13.15 83.82 13.15 82.29 14.77 C78.85 16.68 75.74 16.45 71.93 16.31 C70.28 16.27 68.64 16.24 67 16.2 C66.13 16.18 65.26 16.15 64.36 16.13 C59.72 16.01 55.08 15.98 50.44 15.93 C44.55 15.87 38.66 15.78 32.77 15.6 C8.37 13.77 8.37 13.77 -13.13 22.9 C-18.34 28.41 -21.73 33.14 -22.12 40.87 C-22.08 43.15 -22.08 43.15 -21.48 46.66 C-21.12 50.81 -22.03 52.63 -24.18 56.15 C-24.95 57.41 -24.95 57.41 -25.74 58.71 C-29.4 62.37 -33.2 64.68 -38.18 66.15 C-40.35 65.92 -42.52 65.65 -44.68 65.33 C-50.27 65.06 -52.61 66.15 -56.83 69.85 C-62.13 74.98 -67.03 80.46 -71.82 86.07 C-77.02 92.14 -82.63 97.78 -88.28 103.43 C-90.01 105.16 -91.73 106.91 -93.46 108.65 C-94.56 109.75 -95.66 110.86 -96.76 111.96 C-97.27 112.48 -97.79 113 -98.32 113.54 C-101.95 117.15 -101.95 117.15 -104.18 117.15 C-104.75 116.24 -105.33 115.33 -105.93 114.4 C-108.45 110.75 -110.42 109.36 -114.18 107.15 C-112.54 102.96 -109.47 100.2 -106.32 97.13 C-105.74 96.55 -105.16 95.98 -104.56 95.39 C-102.71 93.55 -100.85 91.72 -98.99 89.9 C-96.56 87.5 -94.12 85.1 -91.7 82.69 C-90.82 81.83 -90.82 81.83 -89.93 80.94 C-86.34 77.37 -82.96 73.69 -79.7 69.83 C-78.09 68.05 -76.4 66.53 -74.58 64.98 C-67.77 59.51 -67.77 59.51 -64.86 51.74 C-65.44 48.39 -65.44 48.39 -66.38 45.15 C-67.79 39.82 -66.57 35.7 -63.98 30.96 C-59.89 24.87 -54.98 22.41 -48.18 20.15 C-43.84 20 -40.73 19.98 -36.55 21.27 C-33.36 21.68 -32.37 21.29 -29.72 19.37 C-27.01 16.76 -24.46 14.06 -21.93 11.27 C-20.18 9.39 -18.42 7.52 -16.66 5.65 C-15.9 4.81 -15.13 3.98 -14.34 3.11 C-10.19 -0.66 -5.36 -0 0 0 Z " fill="#FECD02" transform="translate(172.177490234375,3.854736328125)"/>
<path d="M0 0 C3.65 3.07 5.65 5.77 6.66 10.39 C7.86 10.29 7.86 10.29 9.08 10.18 C18.26 9.72 23.75 11.74 31.47 16.52 C32.53 17.15 33.59 17.77 34.68 18.42 C36.9 19.73 39.11 21.05 41.32 22.38 C44.61 24.37 47.93 26.31 51.26 28.23 C56.18 31.08 61.1 33.93 66 36.82 C67.81 37.9 69.64 38.97 71.46 40.03 C72.35 40.55 73.24 41.07 74.16 41.61 C74.95 42.08 75.75 42.54 76.56 43.02 C78.59 44.35 80.15 45.49 81.66 47.39 C82.41 54.19 82.41 54.19 80.09 57.89 C76.81 59.91 74.36 60.16 70.66 59.39 C66.53 57.53 62.71 55.18 58.84 52.83 C57.13 51.81 55.41 50.79 53.69 49.77 C51.89 48.71 50.1 47.64 48.31 46.57 C44.65 44.39 40.97 42.25 37.27 40.13 C36.38 39.62 36.38 39.62 35.47 39.09 C34.29 38.42 33.12 37.74 31.94 37.07 C29.2 35.5 26.46 33.92 23.72 32.34 C22.81 31.82 21.91 31.3 20.97 30.76 C19.16 29.69 17.4 28.56 15.66 27.39 C13.38 26.94 13.38 26.94 10.97 26.77 C10.16 26.69 9.35 26.62 8.52 26.54 C7.9 26.49 7.29 26.44 6.66 26.39 C6.64 27.08 6.62 27.76 6.59 28.46 C4.81 34.04 0.35 37.37 -4.53 40.33 C-11.15 42.18 -18.23 42.71 -24.66 39.89 C-29.54 37.06 -33.82 32.45 -36.34 27.39 C-70 26.9 -70 26.9 -104.34 26.39 C-104.34 21.11 -104.34 15.83 -104.34 10.39 C-81.57 10.39 -58.8 10.39 -35.34 10.39 C-34.68 8.41 -34.02 6.43 -33.34 4.39 C-25.23 -5.92 -10.48 -7.45 0 0 Z " fill="#01429D" transform="translate(174.34375,112.60546875)"/>
<path d="M0 0 C5.28 0 10.56 0 16 0 C15.76 1.71 15.76 1.71 15.52 3.45 C14.86 11.84 15.69 17.94 21.03 24.68 C22.71 26.53 24.43 28.34 26.19 30.12 C27.02 31 27.85 31.87 28.71 32.76 C34.83 38.53 39.49 39.98 47.88 39.93 C53.26 40.05 56.92 42 60.74 45.68 C64.51 49.89 67.08 53.65 67.62 59.38 C67.7 60.1 67.77 60.83 67.85 61.59 C68 64 68 64 67.56 66.8 C68.26 71.9 71.77 74.37 75.44 77.75 C76.83 79.08 78.23 80.4 79.62 81.73 C80.56 82.6 80.56 82.6 81.51 83.49 C83.83 85.84 84 87 84.31 90.38 C84 94 84 94 82.25 96.38 C79.97 98.02 78.79 98.83 76 99 C70.59 97.64 67.42 93.76 63.69 89.88 C63.04 89.22 62.4 88.56 61.73 87.88 C60.15 86.26 58.57 84.63 57 83 C56.14 83.32 55.28 83.64 54.4 83.98 C47.78 85.97 39.98 86.32 33.56 83.44 C27.95 80.09 23.97 75.21 22 69 C21.73 65.88 21.73 65.88 21.75 62.56 C21.74 61.47 21.74 60.38 21.73 59.25 C22.01 55.88 22.88 53.18 24 50 C22.96 48.97 22.96 48.97 21.9 47.92 C19.34 45.38 16.79 42.83 14.23 40.28 C13.12 39.18 12.01 38.08 10.9 36.98 C9.31 35.4 7.72 33.81 6.13 32.23 C5.63 31.73 5.13 31.24 4.62 30.73 C0.05 26.17 0.05 26.17 -0.11 22.48 C-0.11 21.44 -0.1 20.4 -0.1 19.34 C-0.09 18.21 -0.09 17.09 -0.09 15.94 C-0.08 14.76 -0.07 13.59 -0.06 12.38 C-0.06 11.19 -0.05 10.01 -0.05 8.79 C-0.04 5.86 -0.02 2.93 0 0 Z " fill="#FE415B" transform="translate(41,153)"/>
<path d="M0 0 C0.5 7.92 0.5 7.92 1 16 C2.98 16.49 2.98 16.49 5 17 C6.75 18.19 6.75 18.19 8 20 C8.5 22.88 8.5 22.88 8 26 C5.62 28.88 5.62 28.88 3 31 C2.34 31 1.68 31 1 31 C0.67 35.95 0.34 40.9 0 46 C-1.13 45.82 -2.27 45.65 -3.43 45.47 C-7.62 45.48 -9.45 46.83 -12.47 49.66 C-14.02 51.25 -15.55 52.87 -17.06 54.5 C-17.83 55.29 -18.59 56.08 -19.38 56.9 C-22.77 60.44 -26.07 64.05 -29.26 67.78 C-33.95 73.19 -39.04 78.22 -44.1 83.28 C-45.83 85.02 -47.56 86.76 -49.28 88.5 C-50.38 89.61 -51.48 90.71 -52.58 91.81 C-53.1 92.33 -53.61 92.86 -54.14 93.39 C-57.77 97 -57.77 97 -60 97 C-60.58 96.09 -61.16 95.19 -61.75 94.25 C-64.28 90.6 -66.25 89.22 -70 87 C-68.37 82.82 -65.29 80.06 -62.14 76.98 C-61.56 76.41 -60.98 75.84 -60.39 75.24 C-58.53 73.41 -56.67 71.58 -54.81 69.75 C-52.38 67.35 -49.95 64.95 -47.52 62.55 C-46.94 61.97 -46.35 61.39 -45.75 60.8 C-42.16 57.23 -38.79 53.55 -35.52 49.68 C-33.92 47.91 -32.22 46.38 -30.4 44.83 C-23.59 39.36 -23.59 39.36 -20.68 31.59 C-21.27 28.24 -21.27 28.24 -22.21 25 C-23.61 19.67 -22.4 15.55 -19.8 10.81 C-15.18 3.94 -8.35 0 0 0 Z " fill="#FEDD45" transform="translate(128,24)"/>
<path d="M0 0 C2.73 2.55 3 4.01 3.36 7.78 C3.37 9.34 3.36 10.89 3.34 12.44 C3.34 13.71 3.34 13.71 3.34 15.01 C3.34 17.82 3.32 20.62 3.29 23.42 C3.29 25.37 3.28 27.31 3.28 29.26 C3.27 34.37 3.24 39.49 3.21 44.6 C3.18 49.83 3.16 55.05 3.15 60.27 C3.11 70.51 3.06 80.76 3 91 C-2.28 91 -7.56 91 -13 91 C-13.09 79.6 -13.16 68.19 -13.21 56.79 C-13.23 51.49 -13.26 46.19 -13.3 40.9 C-13.35 35.79 -13.37 30.68 -13.38 25.57 C-13.39 23.62 -13.4 21.67 -13.42 19.72 C-13.45 16.99 -13.46 14.26 -13.45 11.53 C-13.47 10.72 -13.48 9.92 -13.5 9.08 C-13.47 5.51 -13.32 3.43 -11.16 0.53 C-6.91 -2.48 -4.62 -2.02 0 0 Z " fill="#FF193C" transform="translate(54,19)"/>
<path d="M0 0 C10.32 -0.69 16.1 0.73 24.81 6.12 C25.87 6.75 26.93 7.38 28.03 8.02 C30.25 9.33 32.46 10.66 34.66 11.99 C37.96 13.97 41.27 15.91 44.6 17.84 C49.53 20.68 54.44 23.54 59.34 26.43 C61.16 27.5 62.98 28.57 64.81 29.63 C65.7 30.16 66.59 30.68 67.5 31.22 C68.3 31.68 69.09 32.15 69.91 32.62 C71.94 33.96 73.49 35.1 75 37 C75.75 43.79 75.75 43.79 73.44 47.5 C70.15 49.52 67.7 49.77 64 49 C59.87 47.13 56.06 44.79 52.19 42.44 C50.47 41.42 48.75 40.4 47.03 39.38 C45.24 38.32 43.45 37.24 41.66 36.17 C38 33.99 34.31 31.86 30.62 29.73 C30.02 29.39 29.43 29.05 28.81 28.7 C27.64 28.02 26.46 27.35 25.29 26.68 C22.54 25.1 19.8 23.53 17.07 21.95 C16.16 21.43 15.25 20.9 14.31 20.37 C12.51 19.3 10.74 18.16 9 17 C6.01 16.45 3.04 16.26 0 16 C0 10.72 0 5.44 0 0 Z " fill="#0070FD" transform="translate(181,123)"/>
<path d="M0 0 C22.77 0 45.54 0 69 0 C68.67 5.28 68.34 10.56 68 16 C45.56 16 23.12 16 0 16 C0 10.72 0 5.44 0 0 Z " fill="#00ABE8" transform="translate(70,123)"/>
<path d="M0 0 C0.5 7.92 0.5 7.92 1 16 C2.32 16.33 3.64 16.66 5 17 C6.75 18.19 6.75 18.19 8 20 C8.5 22.88 8.5 22.88 8 26 C5.62 28.88 5.62 28.88 3 31 C2.34 31 1.68 31 1 31 C0.67 35.95 0.34 40.9 0 46 C-8.56 44.78 -12.7 42.02 -18.94 36.31 C-22.55 30.5 -23.63 24.07 -22.5 17.31 C-20.91 11.68 -17.88 6.88 -12.93 3.65 C-8.6 1.43 -4.94 0 0 0 Z " fill="#FCBF02" transform="translate(128,24)"/>
<path d="M0 0 C5.28 0 10.56 0 16 0 C15.83 1.13 15.66 2.26 15.48 3.42 C14.9 10.33 14.96 16.13 19.11 21.96 C24.9 28.5 31.35 34.34 38 40 C37.22 40.62 36.43 41.25 35.63 41.89 C33.44 43.64 31.3 45.42 29.19 47.25 C28.58 47.77 27.98 48.29 27.36 48.83 C26.68 49.41 26.68 49.41 26 50 C22.26 48.44 19.89 46.13 17.05 43.28 C16.12 42.35 15.19 41.42 14.23 40.46 C13.75 39.97 13.27 39.49 12.78 38.99 C11.31 37.5 9.84 36.02 8.36 34.54 C0.05 26.19 0.05 26.19 -0.11 22.48 C-0.11 21.44 -0.1 20.4 -0.1 19.34 C-0.09 18.21 -0.09 17.09 -0.09 15.94 C-0.08 14.76 -0.07 13.59 -0.06 12.38 C-0.06 11.19 -0.05 10.01 -0.05 8.79 C-0.04 5.86 -0.02 2.93 0 0 Z " fill="#FF193D" transform="translate(41,153)"/>
<path d="M0 0 C7.62 0.88 7.62 0.88 11 2 C11 2.66 11 3.32 11 4 C11.76 4.24 12.52 4.47 13.3 4.72 C16.46 6.22 17.43 7.55 19.25 10.5 C19.75 11.29 20.25 12.09 20.77 12.91 C23.96 18.32 23.42 23.83 23 30 C21.75 33.5 21.75 33.5 20 36 C19.23 37.27 19.23 37.27 18.44 38.56 C14.03 42.97 8.59 45.78 2.38 46.31 C1.59 46.21 0.81 46.11 0 46 C-0.09 40.85 0.15 36.08 1 31 C2.65 30.34 4.3 29.68 6 29 C6.25 27.57 6.47 26.13 6.69 24.69 C6.82 23.89 6.94 23.09 7.07 22.26 C7.21 19.94 7.21 19.94 5.71 18.27 C3.91 16.8 3.91 16.8 1 16 C0.67 10.72 0.34 5.44 0 0 Z " fill="#FE9300" transform="translate(128,24)"/>
<path d="M0 0 C15.33 12.67 15.33 12.67 18 18 C18.58 24.22 18.58 24.22 16.25 27.38 C13.97 29.02 12.79 29.83 10 30 C4.59 28.64 1.42 24.76 -2.31 20.88 C-2.96 20.22 -3.6 19.56 -4.27 18.88 C-5.85 17.26 -7.43 15.63 -9 14 C-7.2 10.14 -4.73 7.27 -2 4 C-1.3 2.68 -0.63 1.35 0 0 Z " fill="#FF193D" transform="translate(107,222)"/>
<path d="M0 0 C1.54 0.03 1.54 0.03 3.11 0.05 C5.64 0.1 8.16 0.17 10.69 0.25 C10.69 5.53 10.69 10.81 10.69 16.25 C6.94 16.36 3.19 16.44 -0.56 16.5 C-1.63 16.53 -2.69 16.57 -3.79 16.6 C-4.81 16.61 -5.83 16.63 -6.89 16.64 C-7.83 16.66 -8.78 16.68 -9.75 16.7 C-13.07 16.12 -14.22 14.83 -16.31 12.25 C-16.88 10.25 -16.88 10.25 -16.88 8.25 C-16.9 7.59 -16.92 6.93 -16.94 6.25 C-14.53 -1.43 -6.49 -0.22 0 0 Z " fill="#00ABE8" transform="translate(16.3125,122.75)"/>
<path d="M0 0 C2.44 1.62 2.44 1.62 4 4 C4.56 6.94 4.56 6.94 4 10 C1.71 13.01 0.21 14.7 -3.5 15.62 C-7.26 14.69 -8.75 13.11 -11 10 C-11 6.46 -10.66 4.13 -8.88 1.06 C-5.82 -0.67 -3.43 -0.42 0 0 Z " fill="#F6E6E3" transform="translate(52,124)"/>
<path d="M0 0 C1.94 1.19 1.94 1.19 3 3 C3.71 7.06 3.32 8.54 0.94 11.94 C-2 14 -2 14 -5.62 14.06 C-9 13 -9 13 -11 11.38 C-12.47 7.88 -11.98 5.61 -11 2 C-7.8 -1.94 -4.62 -1.18 0 0 Z " fill="#F6E8E4" transform="translate(90,209)"/>
<path d="M0 0 C2.38 1.56 2.38 1.56 4 4 C4.56 7.5 4.56 7.5 4 11 C1.88 13.5 1.88 13.5 -1 15 C-4.16 14.94 -6.14 14.49 -8.88 12.94 C-10.72 9.76 -10.66 6.56 -10 3 C-7.21 -0.43 -4.25 -0.62 0 0 Z " fill="#E7DCDA" transform="translate(163,124)"/>
<path d="M0 0 C2.44 1.62 2.44 1.62 4 4 C4.61 7.64 4.47 9.28 2.44 12.38 C-0.94 14.62 -3.03 14.57 -7 14 C-9.44 12.38 -9.44 12.38 -11 10 C-11.61 6.36 -11.47 4.72 -9.44 1.62 C-6.06 -0.62 -3.97 -0.57 0 0 Z " fill="#F5ECE3" transform="translate(132,40)"/>
<path d="M0 0 C3.63 0 7.26 0 11 0 C10.67 5.28 10.34 10.56 10 16 C6.7 16 3.4 16 0 16 C0 10.72 0 5.44 0 0 Z " fill="#0072FB" transform="translate(128,123)"/>
<path d="M0 0 C5.12 1.28 5.12 1.28 7 4 C7.44 6.94 7.44 6.94 7 10 C5.19 12.38 5.19 12.38 3 14 C2.01 14 1.02 14 0 14 C0 9.38 0 4.76 0 0 Z " fill="#EEDED3" transform="translate(129,40)"/>
</svg>
