<?xml version="1.0" encoding="UTF-8"?>
<!-- Generator: visioncortex VTracer 0.6.4 -->
<svg version="1.1" xmlns="http://www.w3.org/2000/svg" width="256" height="256">
<path d="M0 0 C0.87 -0 1.75 -0.01 2.64 -0.01 C5.57 -0.03 8.49 -0.02 11.41 -0.02 C13.51 -0.03 15.61 -0.04 17.7 -0.04 C23.4 -0.06 29.09 -0.07 34.78 -0.07 C39.54 -0.07 44.29 -0.08 49.05 -0.08 C60.26 -0.1 71.48 -0.1 82.7 -0.1 C94.27 -0.1 105.83 -0.12 117.4 -0.15 C127.34 -0.18 137.27 -0.19 147.21 -0.19 C153.14 -0.19 159.07 -0.2 165 -0.22 C170.58 -0.24 176.16 -0.24 181.74 -0.22 C183.79 -0.22 185.84 -0.22 187.88 -0.24 C190.68 -0.25 193.48 -0.24 196.28 -0.23 C197.48 -0.24 197.48 -0.24 198.72 -0.26 C205.22 -0.18 210.4 1.74 215.35 6.01 C216.02 6.85 216.02 6.85 216.7 7.7 C217.4 8.54 217.4 8.54 218.1 9.39 C221.22 14.16 221.62 18.56 221.6 24.14 C221.6 24.93 221.6 25.72 221.61 26.53 C221.62 29.16 221.62 31.79 221.62 34.42 C221.62 36.31 221.63 38.2 221.64 40.09 C221.66 45.22 221.66 50.35 221.66 55.48 C221.66 58.69 221.67 61.9 221.67 65.1 C221.69 76.29 221.7 87.48 221.7 98.66 C221.7 109.09 221.72 119.51 221.75 129.94 C221.78 138.89 221.79 147.84 221.79 156.79 C221.79 162.14 221.79 167.49 221.81 172.83 C221.83 177.86 221.83 182.89 221.82 187.92 C221.82 189.76 221.82 191.6 221.83 193.45 C221.85 195.97 221.84 198.49 221.82 201.01 C221.83 201.74 221.84 202.46 221.85 203.21 C221.76 210.05 219.35 215.2 214.58 220.08 C207.59 224.78 200.79 226.53 192.33 225.27 C189.64 223.39 189.64 223.39 188.33 221.27 C188.33 220.61 188.33 219.95 188.33 219.27 C186.02 219.6 183.71 219.93 181.33 220.27 C181.82 221.11 182.32 221.96 182.83 222.83 C184.78 227.3 185.23 230.67 183.6 235.35 C181.6 239.74 179.47 242.61 175.33 245.27 C170.98 246.72 166.87 246.78 162.33 246.27 C157.34 243.77 153.83 240.27 151.33 235.27 C151.3 231.92 151.4 228.58 151.49 225.24 C151.65 222.15 151.65 222.15 149.33 220.27 C146.67 219.7 144.04 219.53 141.33 219.27 C141.25 220.3 141.16 221.33 141.08 222.39 C140.09 227.49 138.31 230.8 134.09 233.91 C130.78 235.53 128.49 235.66 124.81 235.69 C123.51 235.7 122.22 235.72 120.88 235.74 C119.47 235.74 118.06 235.74 116.65 235.74 C115.19 235.74 113.74 235.75 112.28 235.76 C109.23 235.77 106.19 235.77 103.14 235.77 C99.24 235.76 95.35 235.79 91.46 235.83 C88.45 235.86 85.45 235.86 82.44 235.86 C81.01 235.86 79.57 235.87 78.14 235.89 C65.56 236.03 65.56 236.03 61.02 232.92 C57.42 229.37 55.47 226.49 55.14 221.39 C55.2 220.69 55.26 219.99 55.33 219.27 C49.74 219.47 49.74 219.47 45.33 222.27 C45.29 224.35 45.34 226.44 45.45 228.52 C45.53 234.03 45.26 237.12 41.33 241.27 C36.3 245.7 33.45 246.57 26.87 246.48 C22.1 246.08 19.31 244.31 16.08 240.89 C12.78 235.95 11.81 232.25 12.33 226.27 C13.16 223.8 14.18 221.61 15.33 219.27 C13.02 219.27 10.71 219.27 8.33 219.27 C7.9 220.47 7.9 220.47 7.45 221.7 C6.33 224.27 6.33 224.27 4.33 225.27 C-3.29 226.07 -10.03 225.24 -16.67 221.27 C-21.63 216.94 -24.45 212.31 -24.93 205.66 C-24.94 204.24 -24.95 202.82 -24.94 201.39 C-24.94 200.61 -24.95 199.82 -24.95 199.01 C-24.97 196.38 -24.96 193.74 -24.96 191.11 C-24.97 189.22 -24.98 187.33 -24.98 185.44 C-25 180.31 -25 175.18 -25.01 170.05 C-25.01 166.85 -25.01 163.64 -25.02 160.43 C-25.04 149.25 -25.04 138.06 -25.04 126.87 C-25.04 116.45 -25.06 106.02 -25.09 95.6 C-25.12 86.65 -25.13 77.69 -25.13 68.74 C-25.13 63.39 -25.13 58.05 -25.16 52.7 C-25.18 47.67 -25.18 42.65 -25.16 37.62 C-25.16 35.77 -25.16 33.93 -25.18 32.09 C-25.19 29.57 -25.18 27.04 -25.17 24.52 C-25.18 23.8 -25.19 23.07 -25.2 22.33 C-25.11 16.09 -23.01 10.97 -18.93 6.24 C-18.37 5.8 -17.81 5.35 -17.23 4.89 C-16.68 4.43 -16.12 3.97 -15.55 3.49 C-10.54 0.22 -5.86 -0.02 0 0 Z " fill="#F6F7F8" transform="translate(29.671707153320313,4.732574462890625)"/>
<path d="M0 0 C0.87 -0 1.75 -0.01 2.64 -0.01 C5.57 -0.03 8.49 -0.02 11.41 -0.02 C13.51 -0.03 15.61 -0.04 17.7 -0.04 C23.4 -0.06 29.09 -0.07 34.78 -0.07 C39.54 -0.07 44.29 -0.08 49.05 -0.08 C60.26 -0.1 71.48 -0.1 82.7 -0.1 C94.27 -0.1 105.83 -0.12 117.4 -0.15 C127.34 -0.18 137.27 -0.19 147.21 -0.19 C153.14 -0.19 159.07 -0.2 165 -0.22 C170.58 -0.24 176.16 -0.24 181.74 -0.22 C183.79 -0.22 185.84 -0.22 187.88 -0.24 C190.68 -0.25 193.48 -0.24 196.28 -0.23 C197.48 -0.24 197.48 -0.24 198.72 -0.26 C205.22 -0.18 210.4 1.74 215.35 6.01 C216.02 6.85 216.02 6.85 216.7 7.7 C217.4 8.54 217.4 8.54 218.1 9.39 C221.22 14.16 221.62 18.56 221.6 24.14 C221.6 24.93 221.6 25.72 221.61 26.53 C221.62 29.16 221.62 31.79 221.62 34.42 C221.62 36.31 221.63 38.2 221.64 40.09 C221.66 45.22 221.66 50.35 221.66 55.48 C221.66 58.69 221.67 61.9 221.67 65.1 C221.69 76.29 221.7 87.48 221.7 98.66 C221.7 109.09 221.72 119.51 221.75 129.94 C221.78 138.89 221.79 147.84 221.79 156.79 C221.79 162.14 221.79 167.49 221.81 172.83 C221.83 177.86 221.83 182.89 221.82 187.92 C221.82 189.76 221.82 191.6 221.83 193.45 C221.85 195.97 221.84 198.49 221.82 201.01 C221.83 201.74 221.84 202.46 221.85 203.21 C221.76 210.05 219.35 215.2 214.58 220.08 C207.61 224.77 200.78 226.56 192.33 225.27 C189.64 223.27 189.64 223.27 188.33 221.27 C190.2 215.39 190.2 215.39 191.33 214.27 C193.08 214.11 194.83 213.99 196.58 213.89 C200.9 213.53 203.91 213.13 207.33 210.27 C209.74 206.65 209.59 204.99 209.61 200.68 C209.61 200.01 209.62 199.34 209.62 198.65 C209.64 196.39 209.64 194.13 209.65 191.87 C209.66 190.23 209.67 188.59 209.68 186.95 C209.71 182.54 209.72 178.14 209.73 173.73 C209.75 169.6 209.77 165.47 209.8 161.34 C209.86 149.25 209.91 137.17 209.95 125.08 C210.08 98.08 210.2 71.08 210.33 43.27 C136.41 43.27 62.49 43.27 -13.67 43.27 C-13.61 70.22 -13.55 97.18 -13.48 124.95 C-13.48 133.47 -13.47 141.99 -13.46 150.76 C-13.43 158.39 -13.43 158.39 -13.4 166.01 C-13.38 169.41 -13.38 172.81 -13.39 176.21 C-13.39 180.55 -13.38 184.88 -13.34 189.22 C-13.34 190.81 -13.34 192.4 -13.35 193.99 C-13.36 196.14 -13.34 198.29 -13.31 200.44 C-13.31 201.64 -13.31 202.85 -13.3 204.09 C-12.49 208.17 -10.83 209.65 -7.67 212.27 C-5.11 213.55 -3.09 213.41 -0.23 213.52 C5.01 213.96 5.01 213.96 7.64 216.52 C8.49 219.9 8.07 221.29 6.33 224.27 C1.68 226.59 -4.49 225.78 -9.41 224.62 C-16.19 222.21 -20.52 218.6 -23.73 212.14 C-24.91 208.53 -24.96 205.15 -24.94 201.39 C-24.94 200.61 -24.95 199.82 -24.95 199.01 C-24.97 196.38 -24.96 193.74 -24.96 191.11 C-24.97 189.22 -24.98 187.33 -24.98 185.44 C-25 180.31 -25 175.18 -25.01 170.05 C-25.01 166.85 -25.01 163.64 -25.02 160.43 C-25.04 149.25 -25.04 138.06 -25.04 126.87 C-25.04 116.45 -25.06 106.02 -25.09 95.6 C-25.12 86.65 -25.13 77.69 -25.13 68.74 C-25.13 63.39 -25.13 58.05 -25.16 52.7 C-25.18 47.67 -25.18 42.65 -25.16 37.62 C-25.16 35.77 -25.16 33.93 -25.18 32.09 C-25.19 29.57 -25.18 27.04 -25.17 24.52 C-25.18 23.8 -25.19 23.07 -25.2 22.33 C-25.11 16.09 -23.01 10.97 -18.93 6.24 C-18.37 5.8 -17.81 5.35 -17.23 4.89 C-16.68 4.43 -16.12 3.97 -15.55 3.49 C-10.54 0.22 -5.86 -0.02 0 0 Z " fill="#424242" transform="translate(29.671707153320313,4.732574462890625)"/>
<path d="M0 0 C6 5.64 8.85 12.36 9.19 20.45 C9.25 25.64 9.1 30.82 8.81 36 C9.59 36.14 10.36 36.28 11.16 36.43 C16.01 37.47 19.74 40.13 22.89 43.98 C24.18 46.8 24.02 49.15 23.95 52.22 C23.93 53.3 23.91 54.39 23.89 55.5 C23.86 56.33 23.84 57.15 23.81 58 C28.4 58.01 32.98 57.95 37.56 57.88 C38.86 57.88 40.17 57.88 41.51 57.88 C45.04 57.81 48.34 57.68 51.81 57 C54.63 54.29 54.63 54.29 55.81 51 C60.42 47.57 63.91 46.33 69.67 46.61 C75.29 47.63 78.65 51.55 81.81 56 C83.67 59.71 83.26 63.95 82.81 68 C80.6 72.42 77.86 75.19 73.81 78 C69.46 79.45 65.23 79.85 60.88 78.32 C57.44 76.53 56.08 75.61 54.47 71.91 C51.23 68.37 50.17 68.5 45.52 68.2 C43.03 68.14 40.55 68.12 38.06 68.12 C36.79 68.1 35.52 68.08 34.21 68.06 C31.08 68.02 27.95 68 24.81 68 C24.81 73.28 24.81 78.56 24.81 84 C26.65 83.88 28.48 83.75 30.38 83.62 C36.21 83.58 36.21 83.58 38.75 85.34 C39.52 86.16 39.52 86.16 40.31 87 C42.54 89.35 43.37 89.96 46.66 90.26 C48.75 90.17 50.84 90.07 52.94 89.96 C57.37 90.02 59.32 91.31 62.81 94 C66.18 97.63 67.64 100.22 68.12 105.19 C67.64 111.14 65.57 115.33 61.25 119.44 C56.37 122.57 51.45 122.63 45.81 122 C40.83 119.51 37.32 116.01 34.81 111 C34.78 107.65 34.88 104.32 34.97 100.97 C35.14 97.88 35.14 97.88 32.81 96 C30.16 95.43 27.52 95.26 24.81 95 C24.73 96.03 24.65 97.06 24.56 98.12 C23.58 103.23 21.8 106.54 17.58 109.65 C14.27 111.27 11.98 111.39 8.3 111.42 C6.35 111.44 6.35 111.44 4.36 111.47 C2.95 111.47 1.54 111.47 0.13 111.47 C-1.32 111.48 -2.78 111.48 -4.23 111.49 C-7.28 111.51 -10.33 111.51 -13.38 111.5 C-17.27 111.5 -21.16 111.53 -25.06 111.57 C-28.06 111.59 -31.07 111.59 -34.07 111.59 C-35.51 111.59 -36.94 111.6 -38.38 111.62 C-50.96 111.76 -50.96 111.76 -55.5 108.65 C-59.1 105.1 -61.04 102.22 -61.38 97.12 C-61.28 96.07 -61.28 96.07 -61.19 95 C-66.77 95.2 -66.77 95.2 -71.19 98 C-71.23 100.08 -71.17 102.17 -71.06 104.25 C-70.98 109.76 -71.25 112.85 -75.19 117 C-80.22 121.43 -83.07 122.3 -89.65 122.21 C-94.42 121.81 -97.2 120.04 -100.44 116.62 C-103.73 111.68 -104.7 107.98 -104.19 102 C-102.68 96.54 -100.51 93.62 -95.7 90.84 C-91.57 89.46 -87.52 90.02 -83.22 90.22 C-79.05 89.92 -77.81 88.28 -75.09 85.34 C-71.08 82.52 -65.83 83.69 -61.19 84 C-61.19 78.72 -61.19 73.44 -61.19 68 C-65.59 67.98 -69.98 68.01 -74.38 68.06 C-75.62 68.05 -76.87 68.04 -78.15 68.03 C-84.54 67.9 -84.54 67.9 -90.07 70.55 C-91.59 72.64 -91.59 72.64 -93.19 76 C-97.89 79.32 -102.59 79.9 -108.19 79 C-113.49 76.3 -117.29 72.71 -119.19 67 C-119.62 58.02 -119.62 58.02 -117.19 54 C-113.18 50.04 -109.84 46.89 -104.06 46.62 C-98.83 46.68 -95.03 48.48 -91.19 52 C-90.79 52.84 -90.39 53.69 -89.98 54.55 C-88.39 57.29 -88.39 57.29 -85.28 57.66 C-84.12 57.68 -82.96 57.69 -81.77 57.71 C-79.89 57.75 -79.89 57.75 -77.97 57.79 C-76.01 57.8 -76.01 57.8 -74 57.81 C-72.66 57.84 -71.33 57.86 -69.99 57.89 C-66.72 57.95 -63.46 57.98 -60.19 58 C-60.22 57.19 -60.26 56.37 -60.3 55.54 C-60.34 53.93 -60.34 53.93 -60.39 52.29 C-60.44 50.7 -60.44 50.7 -60.5 49.08 C-60.05 44.69 -58.15 42.5 -55.07 39.49 C-51.75 36.86 -49.38 36 -45.19 36 C-45.22 35.43 -45.25 34.85 -45.28 34.26 C-45.89 21.49 -46.36 11.16 -37.48 1.05 C-26.18 -9.53 -12.28 -7.7 0 0 Z " fill="#434343" transform="translate(146.1875,129)"/>
<path d="M0 0 C1.15 -0.01 2.3 -0.02 3.49 -0.03 C5.35 -0.02 5.35 -0.02 7.26 -0.01 C9.17 -0.01 9.17 -0.01 11.12 -0.02 C13.82 -0.02 16.52 -0.02 19.22 -0 C22.69 0.01 26.14 0 29.61 -0.01 C32.91 -0.03 36.21 -0.02 39.51 -0.01 C40.75 -0.02 42 -0.02 43.28 -0.03 C45 -0.01 45 -0.01 46.77 0 C47.78 0 48.79 0 49.84 0.01 C52.38 0.39 52.38 0.39 54.21 1.62 C55.71 3.89 55.76 5.29 55.77 8 C55.78 8.93 55.79 9.86 55.8 10.82 C55.79 11.82 55.79 12.82 55.78 13.86 C55.78 14.89 55.79 15.92 55.79 16.98 C55.79 19.17 55.79 21.35 55.77 23.53 C55.76 26.88 55.77 30.22 55.79 33.56 C55.79 35.68 55.79 37.8 55.78 39.92 C55.79 40.92 55.79 41.93 55.8 42.96 C55.79 44.36 55.79 44.36 55.77 45.78 C55.77 46.6 55.77 47.42 55.76 48.26 C55.38 50.39 55.38 50.39 54.22 52.15 C51.64 53.89 49.76 53.77 46.66 53.78 C45.48 53.79 44.31 53.8 43.1 53.81 C41.83 53.8 40.56 53.79 39.25 53.79 C37.3 53.79 37.3 53.79 35.31 53.8 C32.56 53.8 29.81 53.79 27.06 53.78 C23.53 53.76 20 53.77 16.47 53.79 C13.11 53.8 9.74 53.79 6.38 53.79 C4.47 53.8 4.47 53.8 2.53 53.81 C1.36 53.8 0.19 53.79 -1.02 53.78 C-2.06 53.77 -3.09 53.77 -4.16 53.77 C-4.97 53.64 -5.78 53.52 -6.62 53.39 C-8.73 50.21 -8.87 49.42 -8.89 45.78 C-8.9 44.85 -8.91 43.92 -8.92 42.96 C-8.92 41.96 -8.92 40.95 -8.92 39.92 C-8.92 38.89 -8.93 37.86 -8.93 36.79 C-8.94 34.61 -8.94 32.43 -8.93 30.25 C-8.93 26.9 -8.95 23.56 -8.98 20.21 C-8.98 18.09 -8.98 15.98 -8.98 13.86 C-8.99 12.85 -9 11.85 -9.01 10.82 C-9 9.89 -9 8.95 -8.99 8 C-8.99 7.18 -8.99 6.36 -8.99 5.51 C-8.62 3.39 -8.62 3.39 -7.44 1.62 C-4.9 -0.1 -3.07 0.01 0 0 Z " fill="#BEC6C6" transform="translate(104.6171875,175.61181640625)"/>
<path d="M0 0 C9.17 -0.07 18.34 -0.12 27.51 -0.16 C31.77 -0.17 36.03 -0.19 40.29 -0.23 C44.4 -0.26 48.51 -0.28 52.62 -0.28 C54.19 -0.29 55.76 -0.3 57.32 -0.32 C59.52 -0.34 61.72 -0.34 63.91 -0.34 C65.16 -0.35 66.42 -0.35 67.7 -0.36 C71.34 0.04 73.12 0.78 76 3 C79 7 79 7 79 21 C53.92 21 28.84 21 3 21 C2.01 14.07 1.02 7.14 0 0 Z " fill="#F7F8F8" transform="translate(161,16)"/>
<path d="M0 0 C1.89 0 1.89 0 3.81 0.01 C5.69 -0.01 5.69 -0.01 7.61 -0.04 C8.81 -0.04 10.01 -0.04 11.24 -0.04 C12.35 -0.04 13.45 -0.05 14.59 -0.05 C17.37 0.32 17.37 0.32 19.27 1.68 C20.37 3.32 20.37 3.32 20.19 5.88 C19.37 8.32 19.37 8.32 17.37 10.32 C15.4 10.55 15.4 10.55 13.02 10.52 C12.17 10.51 11.32 10.5 10.44 10.5 C9.11 10.47 9.11 10.47 7.75 10.45 C6.85 10.44 5.95 10.43 5.03 10.42 C2.81 10.4 0.59 10.36 -1.63 10.32 C-1.63 13.95 -1.63 17.58 -1.63 21.32 C-0.37 21.29 0.88 21.25 2.17 21.22 C3.82 21.19 5.47 21.16 7.12 21.13 C7.95 21.11 8.77 21.08 9.62 21.06 C10.42 21.05 11.22 21.04 12.04 21.03 C12.78 21.01 13.51 21 14.27 20.98 C17.1 21.44 18.38 22.25 20.37 24.32 C20.89 26.89 20.89 26.89 20.9 29.94 C20.91 31.59 20.91 31.59 20.92 33.28 C20.9 34.43 20.89 35.58 20.87 36.76 C20.89 37.91 20.9 39.05 20.92 40.23 C20.91 41.33 20.91 42.43 20.9 43.57 C20.9 44.58 20.9 45.58 20.89 46.62 C20.22 50.1 19.24 51.27 16.37 53.32 C13.67 53.82 13.67 53.82 10.62 53.82 C8.97 53.82 8.97 53.82 7.28 53.82 C6.14 53.8 4.99 53.78 3.81 53.76 C2.66 53.77 1.51 53.77 0.33 53.78 C-8.1 53.72 -8.1 53.72 -10.26 52.09 C-12.03 49.8 -12 48.48 -12 45.61 C-12.01 44.65 -12.01 43.7 -12.02 42.72 C-12.01 41.69 -12 40.66 -11.99 39.6 C-11.99 38.54 -11.99 37.49 -11.99 36.4 C-11.99 34.16 -11.98 31.93 -11.96 29.7 C-11.94 26.27 -11.94 22.84 -11.95 19.41 C-11.94 17.25 -11.94 15.08 -11.93 12.91 C-11.93 11.37 -11.93 11.37 -11.93 9.79 C-11.92 8.84 -11.91 7.89 -11.9 6.91 C-11.9 6.07 -11.89 5.23 -11.89 4.36 C-11.13 -1.6 -4.56 0.03 0 0 Z " fill="#6659FE" transform="translate(166.626953125,58.677734375)"/>
<path d="M0 0 C7.9 -0.07 15.8 -0.12 23.7 -0.16 C27.37 -0.17 31.04 -0.19 34.71 -0.23 C38.25 -0.26 41.79 -0.28 45.33 -0.28 C47.34 -0.29 49.35 -0.32 51.36 -0.34 C53.19 -0.34 53.19 -0.34 55.06 -0.34 C56.68 -0.35 56.68 -0.35 58.32 -0.36 C61 0 61 0 62.83 1.37 C64.43 3.6 64.75 5.55 65.19 8.25 C65.35 9.16 65.5 10.08 65.67 11.02 C66.04 14.33 66 17.67 66 21 C45.21 21 24.42 21 3 21 C0 4 0 4 0 0 Z " fill="#BDC5C5" transform="translate(87,16)"/>
<path d="M0 0 C0.99 -0.01 1.98 -0.02 3 -0.03 C4.08 -0.03 5.15 -0.04 6.26 -0.04 C7.36 -0.05 8.46 -0.05 9.59 -0.06 C11.92 -0.07 14.25 -0.08 16.58 -0.08 C20.15 -0.09 23.72 -0.12 27.29 -0.15 C29.55 -0.16 31.81 -0.16 34.07 -0.17 C35.14 -0.18 36.21 -0.19 37.32 -0.2 C38.31 -0.2 39.31 -0.2 40.33 -0.2 C41.65 -0.2 41.65 -0.2 42.99 -0.21 C45.74 0.24 46.59 0.94 48.23 3.16 C48.92 5.69 49.47 8.09 49.92 10.66 C50.05 11.34 50.18 12.01 50.31 12.71 C50.84 15.57 51.23 18.24 51.23 21.16 C30.44 21.16 9.65 21.16 -11.77 21.16 C-11.77 7.16 -11.77 7.16 -9.39 3.35 C-5.93 0.47 -4.4 0.03 0 0 Z " fill="#BDC5C5" transform="translate(27.769287109375,15.8388671875)"/>
<path d="M0 0 C2.77 -0.37 2.77 -0.37 6.25 -0.36 C7.5 -0.36 8.75 -0.36 10.03 -0.36 C12 -0.34 12 -0.34 14 -0.31 C15.31 -0.32 16.62 -0.32 17.97 -0.32 C27.73 -0.27 27.73 -0.27 30 2 C29.42 8.58 29.42 8.58 28 10 C26.58 10.09 25.16 10.11 23.75 10.1 C22.89 10.09 22.04 10.09 21.16 10.09 C20.26 10.08 19.36 10.07 18.44 10.06 C17.54 10.06 16.63 10.05 15.71 10.05 C13.47 10.04 11.24 10.02 9 10 C9 13.63 9 17.26 9 21 C10.26 20.97 11.53 20.93 12.83 20.89 C14.49 20.87 16.15 20.84 17.81 20.81 C18.65 20.79 19.48 20.76 20.34 20.74 C21.54 20.72 21.54 20.72 22.77 20.71 C23.51 20.69 24.25 20.68 25.01 20.66 C27 21 27 21 28.74 22.15 C30.52 24.77 30.39 26.73 30.4 29.88 C30.4 31.6 30.4 31.6 30.41 33.36 C30.4 34.56 30.39 35.76 30.38 37 C30.39 38.2 30.4 39.4 30.41 40.64 C30.41 41.79 30.4 42.94 30.4 44.12 C30.4 45.18 30.39 46.23 30.39 47.32 C30 50 30 50 28.84 51.84 C26.22 53.49 24.21 53.39 21.12 53.4 C19.98 53.4 18.83 53.41 17.64 53.41 C16.44 53.4 15.24 53.39 14 53.38 C12.8 53.39 11.6 53.4 10.36 53.41 C8.63 53.4 8.63 53.4 6.88 53.4 C5.82 53.4 4.77 53.39 3.68 53.39 C1 53 1 53 -0.84 51.63 C-2.5 49.29 -2.42 47.8 -2 45 C-0.43 42.96 0.43 42.1 2.99 41.66 C3.73 41.68 4.47 41.69 5.23 41.71 C6.03 41.72 6.84 41.73 7.66 41.74 C8.5 41.76 9.33 41.79 10.19 41.81 C11.45 41.83 11.45 41.83 12.75 41.85 C14.83 41.89 16.92 41.94 19 42 C19 38.7 19 35.4 19 32 C17.1 32.07 17.1 32.07 15.17 32.14 C13.51 32.18 11.85 32.21 10.19 32.25 C8.94 32.3 8.94 32.3 7.66 32.35 C6.46 32.37 6.46 32.37 5.23 32.39 C4.49 32.41 3.75 32.43 2.99 32.45 C1 32 1 32 -0.74 30.34 C-2.3 27.45 -2.37 25.52 -2.36 22.25 C-2.36 21.14 -2.36 20.04 -2.36 18.91 C-2.35 17.76 -2.33 16.62 -2.31 15.44 C-2.32 14.29 -2.32 13.14 -2.32 11.96 C-2.27 3.4 -2.27 3.4 0 0 Z " fill="#675AFE" transform="translate(114,59)"/>
<path d="M0 0 C1.2 -0 2.41 -0.01 3.64 -0.01 C4.91 -0 6.17 0.01 7.47 0.02 C8.73 0.01 9.99 0 11.29 -0.01 C12.5 -0.01 13.7 -0 14.94 0 C16.05 0 17.15 0 18.29 0.01 C20.97 0.27 20.97 0.27 22.97 2.27 C23.43 6.73 23.29 11.22 23.28 15.7 C23.3 16.96 23.31 18.21 23.33 19.5 C23.33 20.7 23.33 21.9 23.33 23.14 C23.34 24.24 23.34 25.34 23.34 26.48 C22.97 29.27 22.97 29.27 21.71 31.13 C19.55 32.54 18.31 32.61 15.74 32.56 C14.94 32.55 14.13 32.54 13.31 32.53 C12.47 32.5 11.64 32.48 10.78 32.45 C9.51 32.43 9.51 32.43 8.22 32.41 C6.14 32.38 4.05 32.32 1.97 32.27 C1.97 35.57 1.97 38.87 1.97 42.27 C3.23 42.23 4.5 42.2 5.8 42.16 C7.46 42.13 9.12 42.1 10.78 42.08 C11.61 42.05 12.45 42.03 13.31 42 C14.51 41.99 14.51 41.99 15.74 41.97 C16.48 41.96 17.22 41.94 17.98 41.93 C20.55 42.37 21.41 43.2 22.97 45.27 C23.34 48.33 23.34 48.33 22.97 51.27 C18.1 54.51 12.7 53.63 6.97 53.64 C5.17 53.68 5.17 53.68 3.33 53.71 C2.18 53.72 1.03 53.72 -0.16 53.73 C-1.74 53.74 -1.74 53.74 -3.35 53.75 C-6.03 53.27 -6.03 53.27 -7.87 51.6 C-9.3 48.73 -9.42 46.71 -9.43 43.51 C-9.43 42.41 -9.44 41.31 -9.44 40.17 C-9.42 38.46 -9.42 38.46 -9.41 36.7 C-9.42 35.55 -9.43 34.4 -9.44 33.22 C-9.44 32.12 -9.43 31.02 -9.43 29.89 C-9.43 28.88 -9.42 27.87 -9.42 26.84 C-9.03 24.27 -9.03 24.27 -7.78 22.43 C-5.56 20.95 -4.24 20.92 -1.58 20.97 C-0.73 20.98 0.11 20.99 0.99 21 C2.31 21.04 2.31 21.04 3.66 21.08 C4.55 21.09 5.44 21.11 6.36 21.12 C8.56 21.15 10.77 21.21 12.97 21.27 C12.97 17.64 12.97 14.01 12.97 10.27 C11.63 10.3 10.3 10.34 8.92 10.37 C7.16 10.4 5.41 10.43 3.66 10.45 C2.78 10.48 1.89 10.5 0.99 10.53 C-0.29 10.54 -0.29 10.54 -1.58 10.56 C-2.36 10.57 -3.14 10.59 -3.95 10.61 C-6.57 10.18 -7.47 9.39 -9.03 7.27 C-8.56 0.81 -6.02 0.01 0 0 Z " fill="#675AFE" transform="translate(78.03125,58.734375)"/>
<path d="M0 0 C5.6 2.34 8.61 5.82 10.96 11.37 C11.52 14.91 11.44 18.3 11.27 21.87 C11.17 25.01 11.07 28.14 10.96 31.37 C0.4 31.37 -10.16 31.37 -21.04 31.37 C-21.12 28.22 -21.2 25.06 -21.29 21.81 C-21.33 20.83 -21.36 19.85 -21.4 18.84 C-21.48 12.78 -20.64 9.29 -17.04 4.37 C-12.04 -0.32 -6.7 -2.07 0 0 Z " fill="#F6F7F7" transform="translate(133.0390625,133.62890625)"/>
<path d="M0 0 C3.4 2.07 5.89 4.11 7 8 C6.75 11.44 6.38 14.22 4.87 17.33 C3.73 20.82 4.38 22.82 5.38 26.31 C5.91 28.19 6.45 30.07 7 32 C-0.26 32 -7.52 32 -15 32 C-14.15 28.45 -13.31 24.9 -12.46 21.36 C-11.61 17.87 -11.61 17.87 -14 15 C-14.74 10.41 -14.61 6.98 -12.12 3 C-8.45 -0.45 -4.89 -0.68 0 0 Z " fill="#F6F7F7" transform="translate(132,187)"/>
<path d="M0 0 C3.63 0 7.26 0 11 0 C11 3.3 11 6.6 11 10 C7.37 10 3.74 10 0 10 C0 6.7 0 3.4 0 0 Z " fill="#F3F4F9" transform="translate(165,91)"/>
<path d="M0 0 C2.94 0.88 2.94 0.88 4.94 3.88 C4.61 7.2 4.33 8.48 1.94 10.88 C-0.91 11.24 -2.45 11.28 -4.88 9.69 C-6.49 7.23 -6.5 5.76 -6.06 2.88 C-4.29 -0.08 -3.47 -0.14 0 0 Z " fill="#B3BABA" transform="translate(198.0625,229.125)"/>
<path d="M0 0 C2.44 0.75 2.44 0.75 4.44 2.75 C4.8 5.6 4.84 7.14 3.25 9.56 C0.79 11.18 -0.67 11.18 -3.56 10.75 C-5.44 9.62 -5.44 9.62 -6.56 7.75 C-6.44 4.69 -6.44 4.69 -5.56 1.75 C-2.56 -0.25 -2.56 -0.25 0 0 Z " fill="#B3BABA" transform="translate(59.5625,229.25)"/>
<path d="M0 0 C3.19 -0.41 5.16 -0.51 7.94 1.19 C9 3 9 3 8.81 5.56 C8 8 8 8 6 10 C2.38 9.62 2.38 9.62 -1 9 C-1.62 6.19 -1.62 6.19 -2 3 C-1.34 2.01 -0.68 1.02 0 0 Z " fill="#B7BFBF" transform="translate(210,187)"/>
<path d="M0 0 C3.62 0.38 3.62 0.38 7 1 C8.33 6.45 8.33 6.45 6.88 8.88 C4.37 10.38 2.88 10.43 0 10 C-1.88 8.81 -1.88 8.81 -3 7 C-2.76 3.66 -2.39 2.39 0 0 Z " fill="#B8C0C0" transform="translate(40,187)"/>
</svg>
