<?xml version="1.0" encoding="UTF-8"?>
<!-- Generator: visioncortex VTracer 0.6.4 -->
<svg version="1.1" xmlns="http://www.w3.org/2000/svg" width="256" height="256">
<path d="M0 0 C84.48 0 168.96 0 256 0 C256 84.48 256 168.96 256 256 C171.52 256 87.04 256 0 256 C0 171.52 0 87.04 0 0 Z " fill="#FCFBFC" transform="translate(0,0)"/>
<path d="M0 0 C66 0 132 0 200 0 C200 19.47 200 38.94 200 59 C134 59 68 59 0 59 C0 39.53 0 20.06 0 0 Z " fill="#F4BC1E" transform="translate(28,22)"/>
<path d="M0 0 C84.48 0 168.96 0 256 0 C256 84.48 256 168.96 256 256 C171.52 256 87.04 256 0 256 C0 171.52 0 87.04 0 0 Z M15 9 C15 87.54 15 166.08 15 247 C89.58 247 164.16 247 241 247 C241 168.46 241 89.92 241 9 C166.42 9 91.84 9 15 9 Z " fill="#0B2135" transform="translate(0,0)"/>
<path d="M0 0 C66 0 132 0 200 0 C200 19.14 200 38.28 200 58 C134 58 68 58 0 58 C0 38.86 0 19.72 0 0 Z " fill="#B4BFD1" transform="translate(28,99)"/>
<path d="M0 0 C30.03 0 60.06 0 91 0 C91 19.47 91 38.94 91 59 C60.97 59 30.94 59 0 59 C0 39.53 0 20.06 0 0 Z " fill="#E22C4B" transform="translate(137,175)"/>
<path d="M0 0 C30.03 0 60.06 0 91 0 C91 19.47 91 38.94 91 59 C60.97 59 30.94 59 0 59 C0 39.53 0 20.06 0 0 Z " fill="#0C2743" transform="translate(28,175)"/>
<path d="M0 0 C2.64 0 5.28 0 8 0 C8 84.48 8 168.96 8 256 C5.36 256 2.72 256 0 256 C0.5 255.01 0.5 255.01 1 254 C1.09 252.61 1.13 251.22 1.13 249.82 C1.13 248.94 1.13 248.06 1.13 247.16 C1.13 246.18 1.13 245.21 1.13 244.21 C1.13 243.18 1.13 242.15 1.13 241.09 C1.14 237.62 1.13 234.14 1.13 230.67 C1.13 228.19 1.13 225.71 1.13 223.23 C1.14 217.18 1.14 211.13 1.14 205.08 C1.13 200.17 1.13 195.25 1.13 190.34 C1.13 189.64 1.13 188.94 1.13 188.22 C1.13 186.8 1.13 185.38 1.14 183.96 C1.14 170.65 1.13 157.33 1.13 144.01 C1.12 132.58 1.13 121.14 1.13 109.71 C1.14 96.44 1.14 83.17 1.13 69.9 C1.13 68.49 1.13 67.08 1.13 65.66 C1.13 64.62 1.13 64.62 1.13 63.55 C1.13 58.64 1.13 53.73 1.14 48.82 C1.14 42.21 1.14 35.61 1.13 29 C1.13 26.57 1.13 24.14 1.13 21.71 C1.14 18.4 1.13 15.1 1.13 11.79 C1.13 10.82 1.13 9.85 1.13 8.84 C1.13 7.96 1.13 7.08 1.13 6.18 C1.13 5.41 1.13 4.65 1.13 3.86 C1.11 1.91 1.11 1.91 0 0 Z " fill="#000000" transform="translate(248,0)"/>
<path d="M0 0 C2.64 0 5.28 0 8 0 C7.67 0.66 7.34 1.32 7 2 C6.91 3.39 6.87 4.78 6.87 6.18 C6.87 7.06 6.87 7.94 6.87 8.84 C6.87 9.82 6.87 10.79 6.87 11.79 C6.87 12.82 6.87 13.85 6.87 14.91 C6.86 18.38 6.87 21.86 6.87 25.33 C6.87 27.81 6.87 30.29 6.87 32.77 C6.86 38.82 6.86 44.87 6.86 50.92 C6.87 55.83 6.87 60.75 6.87 65.66 C6.87 66.36 6.87 67.06 6.87 67.78 C6.87 69.2 6.87 70.62 6.86 72.04 C6.86 85.35 6.87 98.67 6.87 111.99 C6.88 123.42 6.87 134.86 6.87 146.29 C6.86 159.56 6.86 172.83 6.87 186.1 C6.87 187.51 6.87 188.92 6.87 190.34 C6.87 191.03 6.87 191.73 6.87 192.45 C6.87 197.36 6.87 202.27 6.86 207.18 C6.86 213.79 6.86 220.39 6.87 227 C6.87 229.43 6.87 231.86 6.87 234.29 C6.86 237.6 6.87 240.9 6.87 244.21 C6.87 245.18 6.87 246.15 6.87 247.16 C6.87 248.04 6.87 248.92 6.87 249.82 C6.87 250.59 6.87 251.35 6.87 252.14 C6.89 254.09 6.89 254.09 8 256 C5.36 256 2.72 256 0 256 C0 171.52 0 87.04 0 0 Z " fill="#000000" transform="translate(0,0)"/>
</svg>
