<?xml version="1.0" encoding="UTF-8"?>
<!-- Generator: visioncortex VTracer 0.6.4 -->
<svg version="1.1" xmlns="http://www.w3.org/2000/svg" width="256" height="256">
<path d="M0 0 C0.33 1.65 0.66 3.3 1 5 C2.08 4.98 3.16 4.97 4.27 4.95 C8.3 4.9 12.34 4.86 16.37 4.84 C18.11 4.82 19.85 4.8 21.59 4.77 C24.1 4.74 26.61 4.72 29.12 4.71 C30.28 4.68 30.28 4.68 31.45 4.66 C36.94 4.66 40.99 5.72 46 8 C50.87 12.99 52.25 16.93 52.27 23.84 C52.27 24.53 52.28 25.22 52.28 25.93 C52.29 28.23 52.29 30.54 52.29 32.84 C52.3 34.49 52.3 36.15 52.31 37.8 C52.33 42.29 52.33 46.78 52.33 51.27 C52.34 54.07 52.34 56.88 52.35 59.69 C52.36 69.48 52.37 79.27 52.37 89.07 C52.37 98.19 52.39 107.31 52.42 116.43 C52.45 124.27 52.46 132.11 52.46 139.94 C52.46 144.62 52.46 149.3 52.48 153.98 C52.5 158.38 52.5 162.78 52.49 167.19 C52.49 168.8 52.49 170.41 52.5 172.02 C52.61 187.3 52.61 187.3 48 194 C42.02 198.98 36.03 198.53 28.5 198.39 C27.32 198.38 26.13 198.38 24.9 198.37 C21.12 198.35 17.34 198.3 13.56 198.25 C10.99 198.23 8.42 198.21 5.85 198.2 C-0.43 198.15 -6.72 198.08 -13 198 C-13.26 198.68 -13.51 199.37 -13.77 200.07 C-15.19 203.45 -16.87 206.6 -18.62 209.81 C-18.95 210.41 -19.27 211.01 -19.61 211.62 C-20.4 213.08 -21.2 214.54 -22 216 C-23.21 216 -24.42 216 -25.66 216 C-37.06 215.99 -48.46 216.02 -59.87 216.08 C-65.73 216.11 -71.59 216.13 -77.45 216.12 C-83.11 216.11 -88.77 216.14 -94.43 216.18 C-96.59 216.19 -98.74 216.19 -100.9 216.18 C-103.93 216.17 -106.95 216.19 -109.98 216.23 C-110.87 216.21 -111.75 216.2 -112.66 216.19 C-118.7 216.31 -122.24 217.94 -127.05 221.58 C-132.78 225.76 -140.2 225.73 -147 225 C-156.58 222.71 -164.08 218.47 -169.38 210.06 C-173.96 201.68 -175.37 193.6 -173.42 184.2 C-170.75 175.59 -165.15 168.04 -157.25 163.5 C-148.66 159.91 -138.81 158.76 -130 162 C-128.68 163.01 -127.37 164.03 -126.07 165.06 C-118.46 169.7 -109.78 168.7 -101.16 168.54 C-97.97 168.49 -94.77 168.47 -91.58 168.47 C-82.5 168.44 -73.42 168.34 -64.35 168.22 C-58.78 168.15 -53.21 168.13 -47.64 168.13 C-45.53 168.12 -43.41 168.09 -41.29 168.05 C-24.83 167.7 -24.83 167.7 -20.48 170.78 C-18.84 173.15 -17.92 175.27 -17 178 C-16.22 179.53 -15.43 181.05 -14.62 182.56 C-13.82 184.26 -13.82 184.26 -13 186 C-5.77 186.08 1.45 186.13 8.68 186.16 C11.14 186.18 13.6 186.2 16.06 186.23 C19.59 186.26 23.12 186.28 26.65 186.29 C27.75 186.31 28.86 186.32 30 186.34 C31.53 186.34 31.53 186.34 33.09 186.34 C33.99 186.35 34.89 186.35 35.82 186.36 C36.54 186.24 37.26 186.12 38 186 C40.4 182.4 40.25 180.79 40.25 176.51 C40.26 175.85 40.26 175.19 40.26 174.5 C40.27 172.28 40.27 170.06 40.26 167.84 C40.26 166.24 40.27 164.65 40.27 163.06 C40.28 158.73 40.27 154.41 40.27 150.08 C40.26 145.56 40.27 141.04 40.27 136.51 C40.28 128.92 40.27 121.32 40.26 113.72 C40.25 104.94 40.25 96.15 40.26 87.36 C40.27 79.82 40.27 72.28 40.27 64.74 C40.27 60.24 40.27 55.73 40.27 51.23 C40.28 46.99 40.27 42.76 40.26 38.52 C40.26 36.97 40.26 35.41 40.27 33.85 C40.27 31.73 40.26 29.61 40.25 27.49 C40.25 26.3 40.25 25.11 40.25 23.89 C40.22 20.8 40.22 20.8 38 18 C35.17 17.66 32.55 17.51 29.71 17.49 C28.89 17.47 28.07 17.45 27.23 17.43 C24.61 17.38 21.99 17.35 19.38 17.31 C17.6 17.28 15.83 17.24 14.05 17.21 C9.7 17.12 5.35 17.06 1 17 C0.34 18.98 -0.32 20.96 -1 23 C-6.26 22.49 -10.2 21.26 -14.88 18.81 C-16.01 18.24 -17.14 17.67 -18.3 17.08 C-21 15 -21 15 -21.88 11.76 C-21.92 10.85 -21.96 9.94 -22 9 C-18.78 6.11 -15.29 3.86 -11.56 1.69 C-10.66 1.16 -9.75 0.62 -8.82 0.07 C-5.44 -1.21 -3.46 -0.87 0 0 Z " fill="#040404" transform="translate(189,16)"/>
<path d="M0 0 C0.5 0.5 0.5 0.5 1 1 C3.98 1.08 6.94 1.09 9.92 1.06 C11.86 1.05 13.81 1.04 15.75 1.03 C16.78 1.03 17.82 1.02 18.89 1.02 C24.35 0.99 29.81 1 35.28 1 C42.24 1.01 49.2 1 56.16 0.95 C61.78 0.9 67.39 0.9 73.01 0.93 C75.15 0.94 77.29 0.92 79.43 0.89 C82.43 0.86 85.43 0.87 88.43 0.9 C89.31 0.88 90.2 0.85 91.11 0.83 C93.7 0.89 95.59 1.04 98 2 C100.58 4.72 102.28 7.69 104 11 C104.71 12.18 105.43 13.37 106.15 14.55 C106.74 15.6 107.33 16.66 107.94 17.75 C108.54 18.82 109.15 19.88 109.78 20.98 C111.18 24.45 110.99 25.48 110 29 C108.88 31.4 108.88 31.4 107.5 33.86 C107 34.75 106.51 35.64 106 36.55 C105.23 37.92 105.23 37.92 104.44 39.31 C103.66 40.71 103.66 40.71 102.86 42.13 C101.58 44.43 100.29 46.71 99 49 C97.79 49 96.58 49 95.34 49 C83.94 48.99 72.54 49.02 61.13 49.08 C55.27 49.11 49.41 49.13 43.55 49.12 C37.89 49.11 32.23 49.14 26.57 49.18 C24.41 49.19 22.26 49.19 20.1 49.18 C17.07 49.17 14.05 49.19 11.02 49.23 C10.13 49.21 9.25 49.2 8.34 49.19 C2.31 49.31 -1.21 50.92 -6 54.58 C-11.64 58.58 -19.33 58.79 -26 58 C-35.59 55.65 -43.07 51.49 -48.38 43.06 C-52.95 34.7 -54.48 26.5 -52.35 17.13 C-50.21 10.5 -47.08 5.74 -42 1 C-41.48 0.51 -40.95 0.01 -40.41 -0.5 C-27.98 -10.72 -12.66 -7.45 0 0 Z " fill="#F8BD4A" transform="translate(68,112)"/>
<path d="M0 0 C8.11 6.36 17.29 5.33 27.07 5.15 C30.27 5.09 33.46 5.07 36.66 5.07 C45.74 5.04 54.81 4.94 63.89 4.82 C69.46 4.76 75.03 4.73 80.59 4.73 C82.71 4.72 84.83 4.69 86.94 4.65 C103.5 4.3 103.5 4.3 107.82 7.54 C109.4 9.88 110.34 11.93 111.24 14.6 C111.93 15.8 112.64 16.98 113.39 18.15 C113.98 19.21 114.57 20.26 115.17 21.35 C115.78 22.42 116.39 23.49 117.01 24.59 C118.42 28.05 118.22 29.09 117.24 32.6 C116.11 35 116.11 35 114.73 37.46 C114.24 38.35 113.75 39.24 113.24 40.15 C112.46 41.52 112.46 41.52 111.67 42.91 C110.89 44.31 110.89 44.31 110.1 45.74 C108.82 48.03 107.53 50.32 106.24 52.6 C105.03 52.6 103.82 52.6 102.58 52.6 C91.17 52.6 79.77 52.62 68.37 52.68 C62.51 52.71 56.65 52.73 50.79 52.72 C45.12 52.71 39.46 52.74 33.8 52.78 C31.65 52.79 29.49 52.79 27.34 52.78 C24.31 52.77 21.28 52.79 18.25 52.83 C17.37 52.82 16.49 52.8 15.58 52.79 C9.54 52.91 6.03 54.52 1.24 58.18 C-4.41 62.18 -12.1 62.39 -18.76 61.6 C-28.35 59.25 -35.83 55.09 -41.14 46.66 C-45.72 38.3 -47.24 30.1 -45.11 20.73 C-42.1 11.43 -36.26 4.45 -27.76 -0.4 C-19.96 -3.65 -7.19 -5.7 0 0 Z " fill="#EB6561" transform="translate(60.76365661621094,37.398712158203125)"/>
<path d="M0 0 C11.69 -0.39 23.38 -0.7 35.08 -0.88 C40.51 -0.97 45.94 -1.09 51.37 -1.28 C56.61 -1.47 61.85 -1.57 67.1 -1.61 C69.1 -1.64 71.1 -1.71 73.09 -1.8 C88.17 -2.47 88.17 -2.47 92.88 1.64 C97.4 7.08 101.07 13.37 100.93 20.56 C99.07 27.42 96.66 34.34 91 39 C84.51 41.63 77.06 40.74 70.21 40.46 C68.19 40.44 66.16 40.42 64.13 40.4 C58.82 40.34 53.51 40.2 48.2 40.03 C42.77 39.88 37.34 39.81 31.91 39.73 C21.27 39.57 10.64 39.32 0 39 C0.35 38.06 0.71 37.12 1.07 36.16 C1.54 34.9 2 33.65 2.46 32.39 C2.92 31.16 3.38 29.94 3.85 28.67 C6.8 19.24 5.12 11.71 1 3 C0.67 2.01 0.34 1.02 0 0 Z " fill="#E7E7E7" transform="translate(73,189)"/>
<path d="M0 0 C11.69 -0.39 23.38 -0.7 35.08 -0.88 C40.51 -0.97 45.94 -1.09 51.37 -1.28 C56.61 -1.47 61.85 -1.57 67.1 -1.61 C69.1 -1.64 71.1 -1.71 73.09 -1.8 C88.17 -2.47 88.17 -2.47 92.88 1.64 C97.4 7.08 101.07 13.37 100.93 20.56 C99.07 27.42 96.66 34.34 91 39 C84.51 41.63 77.06 40.74 70.21 40.46 C68.19 40.44 66.16 40.42 64.13 40.4 C58.82 40.34 53.51 40.2 48.2 40.03 C42.77 39.88 37.34 39.81 31.91 39.73 C21.27 39.57 10.64 39.32 0 39 C0.35 38.06 0.71 37.12 1.07 36.16 C1.54 34.9 2 33.65 2.46 32.39 C2.92 31.16 3.38 29.94 3.85 28.67 C6.8 19.24 5.12 11.71 1 3 C0.67 2.01 0.34 1.02 0 0 Z " fill="#E7E7E7" transform="translate(73,118)"/>
<path d="M0 0 C11.69 -0.39 23.38 -0.7 35.08 -0.88 C40.51 -0.97 45.94 -1.09 51.37 -1.28 C56.61 -1.47 61.85 -1.57 67.1 -1.61 C69.1 -1.64 71.1 -1.71 73.09 -1.8 C88.17 -2.47 88.17 -2.47 92.88 1.64 C97.4 7.08 101.07 13.37 100.93 20.56 C99.07 27.42 96.66 34.34 91 39 C84.51 41.63 77.06 40.74 70.21 40.46 C68.19 40.44 66.16 40.42 64.13 40.4 C58.82 40.34 53.51 40.2 48.2 40.03 C42.77 39.88 37.34 39.81 31.91 39.73 C21.27 39.57 10.64 39.32 0 39 C0.35 38.06 0.71 37.12 1.07 36.16 C1.54 34.9 2 33.65 2.46 32.39 C2.92 31.16 3.38 29.94 3.85 28.67 C6.8 19.24 5.12 11.71 1 3 C0.67 2.01 0.34 1.02 0 0 Z " fill="#E7E7E7" transform="translate(73,47)"/>
<path d="M0 0 C7.4 4.6 12.86 10.68 15.38 19.14 C17.15 28.04 14.35 36.46 9.52 43.97 C5.46 49.18 -0.83 52.74 -7.23 54.1 C-16.57 55.25 -23.43 53.33 -31.23 48.1 C-33.73 45.99 -35.51 43.86 -37.23 41.1 C-37.64 40.44 -38.05 39.79 -38.48 39.11 C-41.87 32.71 -42.22 26.21 -41.23 19.1 C-38.61 10.75 -33.12 4.26 -25.73 -0.34 C-18.36 -3.68 -7.35 -3.43 0 0 Z " fill="#8EC764" transform="translate(60.234375,182.90234375)"/>
<path d="M0 0 C0.5 0.5 0.5 0.5 1 1 C3.98 1.08 6.94 1.09 9.92 1.06 C11.86 1.05 13.81 1.04 15.75 1.03 C16.78 1.03 17.82 1.02 18.89 1.02 C24.35 0.99 29.81 1 35.28 1 C42.24 1.01 49.2 1 56.16 0.95 C61.78 0.9 67.39 0.9 73.01 0.93 C75.15 0.94 77.29 0.92 79.43 0.89 C82.43 0.86 85.43 0.87 88.43 0.9 C89.31 0.88 90.2 0.85 91.11 0.83 C93.7 0.89 95.59 1.04 98 2 C100.58 4.72 102.28 7.69 104 11 C104.71 12.18 105.43 13.37 106.15 14.55 C106.74 15.6 107.33 16.66 107.94 17.75 C108.54 18.82 109.15 19.88 109.78 20.98 C111.18 24.45 110.99 25.48 110 29 C108.88 31.4 108.88 31.4 107.5 33.86 C107 34.75 106.51 35.64 106 36.55 C105.23 37.92 105.23 37.92 104.44 39.31 C103.66 40.71 103.66 40.71 102.86 42.13 C101.58 44.43 100.29 46.71 99 49 C97.79 49 96.58 49 95.34 49 C83.94 48.99 72.54 49.02 61.13 49.08 C55.27 49.11 49.41 49.13 43.55 49.12 C37.89 49.11 32.23 49.14 26.57 49.18 C24.41 49.19 22.26 49.19 20.1 49.18 C17.07 49.17 14.05 49.19 11.02 49.23 C10.13 49.21 9.25 49.2 8.34 49.19 C2.31 49.31 -1.21 50.92 -6 54.58 C-11.64 58.58 -19.33 58.79 -26 58 C-35.59 55.65 -43.07 51.49 -48.38 43.06 C-52.95 34.7 -54.48 26.5 -52.35 17.13 C-50.21 10.5 -47.08 5.74 -42 1 C-41.48 0.51 -40.95 0.01 -40.41 -0.5 C-27.98 -10.72 -12.66 -7.45 0 0 Z M-37 2 C-37.61 2.49 -38.22 2.97 -38.85 3.47 C-44.5 8.55 -48.26 14.57 -49.52 22.11 C-50 31.3 -47.32 38.89 -41.36 45.94 C-35.99 50.94 -29.43 54.17 -22.06 54.44 C-13.59 54.02 -6.95 51.88 -0.76 45.97 C6.05 38.34 7.63 31.11 7.41 21.1 C6.93 13.65 2.85 8.46 -2.5 3.56 C-8.13 -1.06 -13.25 -2.54 -20.38 -2.44 C-21.13 -2.43 -21.89 -2.42 -22.67 -2.41 C-28.24 -2.24 -32.56 -1.59 -37 2 Z M5 6 C6.14 8.9 7.33 11.73 8.62 14.56 C12.14 24.15 9.86 32.95 6 42 C5.67 42.99 5.34 43.98 5 45 C16.69 45.39 28.38 45.7 40.08 45.88 C45.51 45.97 50.94 46.09 56.37 46.28 C61.61 46.47 66.85 46.57 72.1 46.61 C74.1 46.64 76.1 46.71 78.09 46.8 C88.66 47.58 88.66 47.58 97.86 43.33 C102.04 38.14 105.25 32.09 106.46 25.5 C105.13 18.3 101.47 10.91 96 6 C89.54 3.08 82.02 4.02 75.12 4.34 C73.09 4.37 71.07 4.4 69.04 4.41 C63.73 4.48 58.43 4.64 53.13 4.83 C47.71 5.01 42.28 5.08 36.86 5.17 C26.24 5.35 15.62 5.64 5 6 Z " fill="#080806" transform="translate(68,112)"/>
<path d="M0 0 C8.11 6.36 17.29 5.33 27.07 5.15 C30.27 5.09 33.46 5.07 36.66 5.07 C45.74 5.04 54.81 4.94 63.89 4.82 C69.46 4.76 75.03 4.73 80.59 4.73 C82.71 4.72 84.83 4.69 86.94 4.65 C103.5 4.3 103.5 4.3 107.82 7.54 C109.4 9.88 110.34 11.93 111.24 14.6 C111.93 15.8 112.64 16.98 113.39 18.15 C113.98 19.21 114.57 20.26 115.17 21.35 C115.78 22.42 116.39 23.49 117.01 24.59 C118.42 28.05 118.22 29.09 117.24 32.6 C116.11 35 116.11 35 114.73 37.46 C114.24 38.35 113.75 39.24 113.24 40.15 C112.46 41.52 112.46 41.52 111.67 42.91 C110.89 44.31 110.89 44.31 110.1 45.74 C108.82 48.03 107.53 50.32 106.24 52.6 C105.03 52.6 103.82 52.6 102.58 52.6 C91.17 52.6 79.77 52.62 68.37 52.68 C62.51 52.71 56.65 52.73 50.79 52.72 C45.12 52.71 39.46 52.74 33.8 52.78 C31.65 52.79 29.49 52.79 27.34 52.78 C24.31 52.77 21.28 52.79 18.25 52.83 C17.37 52.82 16.49 52.8 15.58 52.79 C9.54 52.91 6.03 54.52 1.24 58.18 C-4.41 62.18 -12.1 62.39 -18.76 61.6 C-28.35 59.25 -35.83 55.09 -41.14 46.66 C-45.72 38.3 -47.24 30.1 -45.11 20.73 C-42.1 11.43 -36.26 4.45 -27.76 -0.4 C-19.96 -3.65 -7.19 -5.7 0 0 Z M-34.76 10.6 C-35.82 11.78 -35.82 11.78 -36.89 12.98 C-42.03 20.17 -42.98 26.84 -41.76 35.6 C-38.54 45.24 -33.47 51.32 -24.58 55.98 C-17.61 58.8 -10 58.82 -3.01 56.04 C4.26 52.26 9.99 47.16 13.38 39.61 C15.54 32 15.86 22.73 12.24 15.54 C8.01 9.27 2.23 4.45 -4.76 1.6 C-7.57 1.17 -10.31 1.12 -13.14 1.16 C-14.27 1.17 -14.27 1.17 -15.42 1.18 C-23.91 1.43 -29.05 4.1 -34.76 10.6 Z M12.24 9.6 C13.38 12.5 14.57 15.33 15.86 18.16 C19.38 27.75 17.1 36.55 13.24 45.6 C12.91 46.59 12.58 47.58 12.24 48.6 C23.93 49 35.62 49.3 47.31 49.48 C52.75 49.57 58.17 49.69 63.6 49.88 C68.85 50.07 74.09 50.17 79.34 50.21 C81.34 50.25 83.33 50.31 85.33 50.4 C95.89 51.18 95.89 51.18 105.1 46.93 C109.28 41.74 112.48 35.69 113.7 29.1 C112.37 21.91 108.71 14.52 103.24 9.6 C96.77 6.68 89.25 7.62 82.35 7.94 C80.33 7.97 78.3 8 76.28 8.01 C70.97 8.08 65.67 8.25 60.37 8.43 C54.94 8.61 49.52 8.69 44.1 8.77 C33.47 8.95 22.86 9.24 12.24 9.6 Z " fill="#080706" transform="translate(60.76365661621094,37.398712158203125)"/>
<path d="M0 0 C0.05 2.44 0.09 4.87 0.12 7.31 C0.14 8 0.16 8.69 0.18 9.4 C0.21 13.17 0.14 14.78 -2 18 C-2.25 17.03 -2.49 16.06 -2.75 15.06 C-3.63 11.98 -3.63 11.98 -5.62 11.12 C-6.41 11.08 -7.19 11.04 -8 11 C-9.3 10.9 -10.6 10.79 -11.94 10.69 C-15.18 10.72 -16.06 11.04 -19 12.81 C-21.34 14.88 -21.34 14.88 -21 18 C-19.68 18.33 -18.36 18.66 -17 19 C-16.34 17.35 -15.68 15.7 -15 14 C-12.62 13.88 -12.62 13.88 -10 14 C-9.34 14.66 -8.68 15.32 -8 16 C-8.38 18.62 -8.38 18.62 -9 21 C-14.75 23 -14.75 23 -17 23 C-16.67 23.99 -16.34 24.98 -16 26 C-14.89 26.12 -13.77 26.25 -12.62 26.38 C-9 27 -9 27 -7 29 C-6.75 32 -6.75 32 -7 35 C-9 37 -9 37 -11.88 37.5 C-15 37 -15 37 -17.25 34 C-17.83 33.01 -18.41 32.02 -19 31 C-19.66 31 -20.32 31 -21 31 C-21.33 32.98 -21.66 34.96 -22 37 C-26.66 38.55 -31.54 38.19 -36.38 37.81 C-38 37 -38 37 -39.07 34.84 C-41.34 27.89 -41.02 20.25 -37.94 13.62 C-34.26 7.27 -29.28 1.75 -22.51 -1.35 C-15.37 -3.2 -6.69 -3.2 0 0 Z " fill="#99CC73" transform="translate(59,183)"/>
<path d="M0 0 C1.16 -0.02 1.16 -0.02 2.34 -0.04 C6.25 -0.05 8.18 -0.03 11.5 2.19 C12.74 10.53 11.87 18.88 7.5 26.19 C6.51 26.68 6.51 26.68 5.5 27.19 C5.17 22.9 4.84 18.61 4.5 14.19 C3.18 13.86 1.86 13.53 0.5 13.19 C-0.06 13.95 -0.61 14.71 -1.19 15.5 C-3.48 18.17 -5.37 19.62 -8.5 21.19 C-9.16 21.19 -9.82 21.19 -10.5 21.19 C-10.17 22.18 -9.84 23.17 -9.5 24.19 C-6.74 23.66 -4.17 23.08 -1.5 22.19 C-1.5 26.48 -1.5 30.77 -1.5 35.19 C-9.16 39.02 -15.46 40.37 -24 40.06 C-26.5 39.19 -26.5 39.19 -27.63 37.02 C-29.81 29.93 -29.51 22.39 -26.31 15.69 C-20.21 5.1 -11.99 0.01 0 0 Z " fill="#F07571" transform="translate(47.5,38.8125)"/>
<path d="M0 0 C0.99 0.66 1.98 1.32 3 2 C3.22 4.63 3.28 7.01 3.19 9.62 C3.17 10.68 3.17 10.68 3.15 11.77 C3.11 13.51 3.06 15.26 3 17 C0 17 0 17 -1.56 15.56 C-2.04 15.05 -2.51 14.53 -3 14 C-6.21 12.39 -9.52 12.53 -13 13 C-16.03 14.46 -16.03 14.46 -18 17 C-18.89 20.14 -18.89 20.14 -19 23 C-17.68 23 -16.36 23 -15 23 C-14.71 22.22 -14.42 21.43 -14.12 20.62 C-13 18 -13 18 -11 16 C-7.7 16.33 -6.38 16.62 -4 19 C-3.96 22.08 -4.31 24.16 -6.29 26.58 C-7.98 28.21 -9.71 29.74 -11.5 31.25 C-15.8 34.67 -15.8 34.67 -19 39 C-23.75 40.83 -30.26 40.76 -35 39 C-38.25 32.67 -38.21 24.89 -36.12 18.18 C-33.46 12.45 -29.94 7.93 -25 4 C-24.46 3.57 -23.92 3.13 -23.37 2.68 C-16.69 -1.61 -7.61 -0.69 0 0 Z " fill="#F8C35C" transform="translate(56,110)"/>
<path d="M0 0 C5.44 -0.1 10.89 -0.17 16.33 -0.22 C18.18 -0.24 20.03 -0.27 21.88 -0.3 C24.55 -0.35 27.22 -0.37 29.88 -0.39 C30.7 -0.41 31.53 -0.43 32.37 -0.45 C37.72 -0.46 40.83 0.35 45 4 C47.98 8.02 48.38 10.94 48.38 15.9 C48.39 16.92 48.39 16.92 48.4 17.97 C48.41 20.25 48.4 22.52 48.39 24.8 C48.39 26.44 48.4 28.08 48.4 29.71 C48.42 34.15 48.41 38.59 48.4 43.03 C48.4 47.68 48.4 52.33 48.41 56.98 C48.41 64.78 48.41 72.59 48.39 80.4 C48.37 89.42 48.38 98.44 48.4 107.46 C48.41 115.21 48.41 122.96 48.4 130.71 C48.4 135.34 48.4 139.96 48.41 144.59 C48.42 148.94 48.41 153.29 48.39 157.64 C48.39 159.24 48.39 160.83 48.4 162.43 C48.41 164.61 48.4 166.79 48.38 168.97 C48.38 170.19 48.38 171.41 48.38 172.67 C47.86 177.26 46.41 180.66 43.04 183.86 C38.21 185.67 33.47 185.37 28.36 185.29 C27.23 185.29 26.11 185.28 24.95 185.28 C21.36 185.26 17.77 185.23 14.19 185.19 C11.75 185.17 9.32 185.16 6.88 185.15 C0.92 185.11 -5.04 185.06 -11 185 C-11 184.01 -11 183.02 -11 182 C-10.4 181.99 -9.79 181.98 -9.17 181.98 C-2.87 181.89 3.42 181.79 9.72 181.68 C12.06 181.64 14.41 181.61 16.76 181.58 C20.14 181.53 23.51 181.47 26.89 181.41 C27.94 181.4 28.99 181.39 30.08 181.38 C31.55 181.35 31.55 181.35 33.05 181.32 C34.34 181.3 34.34 181.3 35.66 181.28 C38.26 180.97 39.83 180.47 42 179 C44.31 175.5 44.26 172.41 44.27 168.29 C44.28 167.61 44.28 166.94 44.29 166.25 C44.31 163.99 44.31 161.73 44.31 159.48 C44.31 157.86 44.32 156.24 44.33 154.62 C44.35 150.23 44.36 145.84 44.37 141.44 C44.37 138.7 44.38 135.95 44.38 133.21 C44.41 123.63 44.42 114.05 44.43 104.48 C44.43 95.55 44.46 86.62 44.5 77.69 C44.54 70.03 44.55 62.36 44.55 54.7 C44.55 50.12 44.56 45.54 44.59 40.96 C44.62 36.66 44.62 32.35 44.6 28.05 C44.6 26.47 44.61 24.89 44.62 23.31 C44.64 21.15 44.63 19 44.61 16.84 C44.62 15.03 44.62 15.03 44.62 13.18 C43.82 9.09 42.19 7.6 39 5 C36.95 4.26 36.95 4.26 34.85 4.34 C34.07 4.32 33.29 4.3 32.49 4.28 C31.66 4.28 30.83 4.29 29.98 4.29 C29.12 4.28 28.26 4.26 27.38 4.25 C24.65 4.2 21.92 4.2 19.19 4.19 C17.33 4.16 15.48 4.14 13.62 4.11 C9.08 4.05 4.54 4.02 0 4 C0 2.68 0 1.36 0 0 Z " fill="#384043" transform="translate(189,25)"/>
<path d="M0 0 C5.57 4.38 7.64 11.14 8.5 17.94 C8.04 25.75 4.53 34.41 -1 40 C-8.01 45.44 -14.89 47.57 -23.75 47.46 C-29.4 46.66 -34.26 44.11 -39 41 C-39.33 40.34 -39.66 39.68 -40 39 C-39.14 39.16 -38.28 39.32 -37.4 39.48 C-27.78 40.94 -18.71 41.14 -10.66 35.3 C-4.52 30.23 -0.55 24.88 1 17 C1.29 11.27 1.22 5.63 0 0 Z " fill="#81BF52" transform="translate(68,190)"/>
<path d="M0 0 C4.43 3.97 6.72 7.77 7.47 13.73 C7.5 15.07 7.51 16.41 7.5 17.75 C7.49 18.45 7.49 19.16 7.48 19.88 C7.2 28.11 4.16 33.91 -1.38 39.94 C-5.85 44.07 -10.92 46.29 -17 47 C-17.7 47.09 -18.39 47.18 -19.11 47.27 C-26.76 47.8 -32.6 45.07 -39 41 C-39.33 40.34 -39.66 39.68 -40 39 C-39.31 39.16 -38.63 39.32 -37.92 39.48 C-27.52 41.33 -18.89 40.48 -10.07 34.75 C-4.14 30.28 -1.31 23.92 1 17 C1.31 11.27 1.22 5.62 0 0 Z " fill="#F8B637" transform="translate(68,119)"/>
<path d="M0 0 C4.43 3.97 6.72 7.77 7.47 13.73 C7.72 23.48 6.71 30.78 -0.05 38.28 C-7.28 45.19 -13.81 47.71 -23.82 47.5 C-29.42 46.62 -34.28 44.09 -39 41 C-39.33 40.34 -39.66 39.68 -40 39 C-39.25 39.24 -39.25 39.24 -38.48 39.48 C-29.76 41.32 -19.87 41.25 -12.11 36.61 C-5.88 31.86 -0.94 25.69 1 18 C1.51 11.88 1.37 6 0 0 Z " fill="#EB5651" transform="translate(68,48)"/>
<path d="M0 0 C5.88 1.03 11.46 4.46 16.12 8.06 C17.48 10.8 17.48 10.8 18.12 13.06 C15.01 16.5 11.75 18.65 7.69 20.88 C6.58 21.5 5.46 22.13 4.32 22.77 C0.91 24.15 -0.47 24.27 -3.88 23.06 C-6.18 20.76 -5.06 15.21 -5.06 12.12 C-5.07 11.19 -5.09 10.26 -5.1 9.3 C-5.1 8.41 -5.1 7.52 -5.11 6.6 C-5.11 5.37 -5.11 5.37 -5.12 4.11 C-4.7 0.59 -3.4 0.07 0 0 Z " fill="#000101" transform="translate(186.875,125.9375)"/>
<path d="M0 0 C5.88 1.03 11.46 4.46 16.12 8.06 C17.48 10.8 17.48 10.8 18.12 13.06 C15.01 16.5 11.75 18.65 7.69 20.88 C6.58 21.5 5.46 22.13 4.32 22.77 C0.91 24.15 -0.47 24.27 -3.88 23.06 C-6.18 20.76 -5.06 15.21 -5.06 12.12 C-5.07 11.19 -5.09 10.26 -5.1 9.3 C-5.1 8.41 -5.1 7.52 -5.11 6.6 C-5.11 5.37 -5.11 5.37 -5.12 4.11 C-4.7 0.59 -3.4 0.07 0 0 Z " fill="#000101" transform="translate(186.875,54.9375)"/>
<path d="M0 0 C3.59 1.64 4.79 2.69 7 6 C7.12 12.04 4.81 15 0.86 19.2 C-1.31 21.3 -3.56 23.22 -6 25 C-2.04 25.33 1.92 25.66 6 26 C6.33 27.32 6.66 28.64 7 30 C6 31 6 31 4.05 31.11 C3.22 31.11 2.39 31.1 1.53 31.1 C0.63 31.09 -0.27 31.09 -1.2 31.09 C-2.14 31.08 -3.09 31.07 -4.06 31.06 C-5.01 31.06 -5.96 31.05 -6.94 31.05 C-9.29 31.04 -11.65 31.02 -14 31 C-14.45 25.63 -14.45 25.63 -12.43 22.8 C-11.73 22.17 -11.03 21.53 -10.31 20.88 C-9.59 20.19 -8.86 19.51 -8.11 18.81 C-6 17 -6 17 -3.06 14.88 C-0.73 13.08 -0.73 13.08 -0.06 9.88 C-0.04 8.93 -0.02 7.98 0 7 C-0.66 6.34 -1.32 5.68 -2 5 C-4.51 4.93 -4.51 4.93 -7 6 C-8.01 7.66 -9.01 9.33 -10 11 C-11.32 11 -12.64 11 -14 11 C-14.38 8.31 -14.38 8.31 -14 5 C-9.6 -0.06 -6.58 -0.84 0 0 Z " fill="#0D0A04" transform="translate(51,122)"/>
<path d="M0 0 C2.81 1.01 3.67 1.33 5 4 C5.23 10.24 5.23 10.24 4.31 13.25 C4.21 13.83 4.11 14.41 4 15 C4.47 15.43 4.95 15.87 5.44 16.31 C7 18 7 18 7.44 21.38 C6.94 25.53 5.92 27.08 3 30 C-0.72 31.86 -4.95 31.57 -9 31 C-12.12 28.81 -12.12 28.81 -14 26 C-14.31 23.19 -14.31 23.19 -14 21 C-12.68 21 -11.36 21 -10 21 C-9.55 21.82 -9.09 22.65 -8.62 23.5 C-8.09 24.32 -7.55 25.15 -7 26 C-3.92 26.5 -3.92 26.5 -1 26 C0.34 24.88 0.34 24.88 0.12 22 C0.34 19.12 0.34 19.12 -1 18 C-3.33 17.63 -5.66 17.3 -8 17 C-8.33 15.68 -8.66 14.36 -9 13 C-6.36 12.01 -3.72 11.02 -1 10 C-1.33 8.35 -1.66 6.7 -2 5 C-3.65 5 -5.3 5 -7 5 C-7.66 6.32 -8.32 7.64 -9 9 C-10.65 8.67 -12.3 8.34 -14 8 C-13.69 5.07 -12.96 3.96 -10.94 1.75 C-6.88 -0.66 -4.69 -0.45 0 0 Z " fill="#080C06" transform="translate(51,193)"/>
<path d="M0 0 C24.42 0 48.84 0 74 0 C73.67 0.99 73.34 1.98 73 3 C48.91 3 24.82 3 0 3 C0 2.01 0 1.02 0 0 Z " fill="#000000" transform="translate(80,214)"/>
<path d="M0 0 C24.42 0 48.84 0 74 0 C73.67 0.99 73.34 1.98 73 3 C48.91 3 24.82 3 0 3 C0 2.01 0 1.02 0 0 Z " fill="#010101" transform="translate(80,143)"/>
<path d="M0 0 C24.42 0 48.84 0 74 0 C73.67 0.99 73.34 1.98 73 3 C48.91 3 24.82 3 0 3 C0 2.01 0 1.02 0 0 Z " fill="#000000" transform="translate(80,72)"/>
<path d="M0 0 C16.83 0 33.66 0 51 0 C51 1.32 51 2.64 51 4 C33.84 4 16.68 4 -1 4 C-0.67 2.68 -0.34 1.36 0 0 Z " fill="#242424" transform="translate(81,200)"/>
<path d="M0 0 C16.83 0 33.66 0 51 0 C51 1.32 51 2.64 51 4 C33.84 4 16.68 4 -1 4 C-0.67 2.68 -0.34 1.36 0 0 Z " fill="#202020" transform="translate(81,129)"/>
<path d="M0 0 C16.83 0 33.66 0 51 0 C51 1.32 51 2.64 51 4 C34.17 4 17.34 4 0 4 C0 2.68 0 1.36 0 0 Z " fill="#202020" transform="translate(81,58)"/>
<path d="M0 0 C1.32 0.33 2.64 0.66 4 1 C4 10.57 4 20.14 4 30 C2.35 30.33 0.7 30.66 -1 31 C-1 23.74 -1 16.48 -1 9 C-3.97 10.98 -3.97 10.98 -7 13 C-9.38 12.75 -9.38 12.75 -11 12 C-11 11.01 -11 10.02 -11 9 C-9.1 7.5 -9.1 7.5 -6.62 6 C-3.49 4.09 -2.08 3.11 0 0 Z " fill="#040202" transform="translate(48,51)"/>
<path d="M0 0 C0 0.99 0 1.98 0 3 C-1.69 1.99 -3.39 0.98 -5.08 -0.03 C-11.76 -3.41 -21.31 -3.09 -28.48 -1.42 C-35.38 1.61 -40.15 8 -44 14.25 C-46.75 24.55 -45.16 32.81 -40 42 C-40.99 42 -41.98 42 -43 42 C-47.62 33.23 -48.3 24.28 -46.56 14.54 C-43.96 6.31 -37.53 0.8 -30.11 -3.09 C-20 -7.45 -9.05 -5.84 0 0 Z " fill="#343930" transform="translate(65,184)"/>
<path d="M0 0 C0 5.28 0 10.56 0 16 C-4.17 14.61 -7.19 13.5 -10.88 11.38 C-11.66 10.93 -12.44 10.48 -13.24 10.02 C-13.82 9.69 -14.4 9.35 -15 9 C-15 8.34 -15 7.68 -15 7 C-12.88 5.83 -10.75 4.66 -8.62 3.5 C-7.72 3 -7.72 3 -6.8 2.49 C-2.23 0 -2.23 0 0 0 Z " fill="#353C3F" transform="translate(186,19)"/>
<path d="M0 0 C4.14 1.38 6.86 2.29 10.38 4.5 C11.06 4.92 11.75 5.35 12.46 5.78 C12.97 6.18 13.48 6.59 14 7 C14 7.66 14 8.32 14 9 C7.07 12.47 7.07 12.47 0 16 C0 10.72 0 5.44 0 0 Z " fill="#384043" transform="translate(186,130)"/>
<path d="M0 0 C0 0.66 0 1.32 0 2 C-4.77 0.14 -4.77 0.14 -6.66 -1.05 C-12.87 -3.57 -22.1 -2.87 -28.61 -1.42 C-35.42 1.57 -40.21 8.09 -44 14.25 C-45.76 20.86 -45.99 28.39 -44 35 C-44.66 35 -45.32 35 -46 35 C-48.33 28.01 -48.27 17.54 -45.1 10.77 C-40.5 3.37 -34.51 -1.88 -26.14 -4.61 C-16.42 -6.39 -8.3 -5.35 0 0 Z " fill="#3C3830" transform="translate(65,113)"/>
<path d="M0 0 C4.14 1.38 6.86 2.29 10.38 4.5 C11.06 4.92 11.75 5.35 12.46 5.78 C12.97 6.18 13.48 6.59 14 7 C14 7.66 14 8.32 14 9 C7.07 12.47 7.07 12.47 0 16 C0 10.72 0 5.44 0 0 Z " fill="#384043" transform="translate(186,59)"/>
<path d="M0 0 C1.19 -0.03 2.39 -0.05 3.62 -0.08 C7.43 0.28 9.84 1.34 13.12 3.25 C12.8 3.91 12.47 4.57 12.12 5.25 C11.39 4.77 11.39 4.77 10.64 4.27 C7.09 2.83 3.65 2.87 -0.12 2.88 C-1.27 2.88 -1.27 2.88 -2.44 2.88 C-8.25 2.99 -11.97 3.98 -16.88 7.25 C-17.56 7.54 -18.24 7.83 -18.95 8.13 C-21.36 9.53 -21.8 10.71 -22.88 13.25 C-23.51 14.3 -23.51 14.3 -24.16 15.37 C-28.45 22.8 -29.2 30.23 -27.35 38.63 C-27.19 39.17 -27.04 39.7 -26.88 40.25 C-27.54 40.25 -28.2 40.25 -28.88 40.25 C-31.21 33.26 -31.14 22.79 -27.97 16.02 C-23.36 8.6 -17.39 3.42 -9.04 0.64 C-6.01 0.1 -3.07 0.04 0 0 Z " fill="#3C3131" transform="translate(47.875,36.75)"/>
<path d="M0 0 C0.66 0 1.32 0 2 0 C2.12 2.88 2.12 2.88 2 6 C0 8 0 8 -3 8.31 C-3.99 8.21 -4.98 8.11 -6 8 C-6.66 7.01 -7.32 6.02 -8 5 C-6.21 3.99 -4.42 2.98 -2.63 1.97 C-1.02 1.1 -1.02 1.1 0 0 Z " fill="#8BC362" transform="translate(50,212)"/>
<path d="M0 0 C0.99 0.33 1.98 0.66 3 1 C2.17 1.72 2.17 1.72 1.32 2.46 C0.6 3.09 -0.13 3.72 -0.88 4.38 C-1.59 5 -2.31 5.63 -3.05 6.27 C-4.41 7.47 -5.72 8.72 -7 10 C-6.85 7.34 -6.48 5.55 -4.7 3.52 C-3.12 2.12 -3.12 2.12 0 0 Z " fill="#453F32" transform="translate(30,113)"/>
<path d="M0 0 C3.96 1.98 3.96 1.98 8 4 C8 4.99 8 5.98 8 7 C6.66 6.22 5.33 5.42 4 4.62 C3.26 4.18 2.52 3.74 1.75 3.29 C1.17 2.86 0.59 2.44 0 2 C0 1.34 0 0.68 0 0 Z " fill="#20241D" transform="translate(57,180)"/>
<path d="M0 0 C3.96 1.98 3.96 1.98 8 4 C8 4.66 8 5.32 8 6 C5.03 4.88 2.67 3.78 0 2 C0 1.34 0 0.68 0 0 Z " fill="#2A251C" transform="translate(57,109)"/>
</svg>
