<?xml version="1.0" encoding="UTF-8"?>
<!-- Generator: visioncortex VTracer 0.6.4 -->
<svg version="1.1" xmlns="http://www.w3.org/2000/svg" width="256" height="256">
<path d="M0 0 C9.02 7.04 15.11 16.14 17.25 27.44 C18.13 36.58 17.6 44.41 13.93 52.98 C13.04 55.33 13.04 55.33 13.82 57.19 C15.93 60.51 18.65 63.1 21.44 65.86 C22.08 66.49 22.71 67.13 23.37 67.78 C25.46 69.87 27.56 71.96 29.66 74.05 C31.12 75.5 32.57 76.95 34.03 78.4 C37.85 82.22 41.69 86.03 45.52 89.84 C49.43 93.73 53.34 97.63 57.24 101.53 C64.91 109.17 72.58 116.81 80.25 124.44 C80.93 124.23 81.6 124.03 82.3 123.82 C83.19 123.55 84.08 123.28 85 123 C85.88 122.73 86.76 122.47 87.67 122.19 C99.1 118.85 111.46 119.14 122.25 124.44 C133.25 130.73 141.06 139.88 144.62 152.14 C147.15 165.5 145.3 177.79 137.69 189.19 C130.27 198.67 121.1 204.29 109.25 206.44 C95.67 207.8 84.6 205.2 73.79 196.76 C65.09 188.81 60.01 179.28 58.88 167.54 C58.53 159.77 59.48 153.11 62.57 145.89 C63.46 143.54 63.46 143.54 62.68 141.69 C60.57 138.36 57.85 135.78 55.06 133.02 C54.42 132.38 53.79 131.75 53.13 131.09 C51.04 129 48.94 126.91 46.84 124.83 C45.38 123.38 43.93 121.93 42.47 120.47 C38.65 116.65 34.81 112.84 30.98 109.03 C27.07 105.14 23.16 101.24 19.26 97.35 C11.59 89.71 3.92 82.07 -3.75 74.44 C-4.41 74.64 -5.08 74.85 -5.76 75.06 C-6.64 75.33 -7.53 75.6 -8.44 75.88 C-9.31 76.14 -10.18 76.41 -11.07 76.68 C-22.63 79.94 -34.86 79.72 -45.75 74.44 C-56.75 68.15 -64.56 58.99 -68.12 46.74 C-70.65 33.38 -68.8 21.09 -61.19 9.69 C-46.12 -9.61 -20.24 -13.52 0 0 Z M-41.75 21.44 C-45.63 26.83 -47.02 31.77 -46.75 38.44 C-45.34 45.06 -42.12 49.73 -36.62 53.69 C-31.61 56.32 -26.06 57.14 -20.51 55.96 C-14.25 53.81 -9.68 50.47 -6.54 44.49 C-4.46 39.09 -4.05 33.61 -5.94 28.12 C-8.66 22.05 -12.45 17.88 -18.75 15.44 C-27.59 13.32 -35.22 14.91 -41.75 21.44 Z M86.25 149.44 C82.37 154.83 80.98 159.77 81.25 166.44 C82.66 173.06 85.88 177.73 91.38 181.69 C96.39 184.32 101.94 185.14 107.49 183.96 C113.75 181.81 118.32 178.47 121.46 172.49 C123.54 167.09 123.95 161.61 122.06 156.12 C119.34 150.05 115.55 145.88 109.25 143.44 C100.41 141.32 92.78 142.91 86.25 149.44 Z " fill="#FE52E5" transform="translate(89.75,28.5625)"/>
<path d="M0 0 C9.02 7.04 15.11 16.14 17.25 27.44 C18.58 41.22 16.26 52.79 7.57 63.89 C-0.66 72.91 -10.38 77.6 -22.49 78.81 C-36 79.25 -46.72 75.6 -56.75 66.44 C-66.08 56.23 -69.71 45.06 -69.15 31.37 C-68.5 24.98 -66.62 19.17 -63.75 13.44 C-63.09 13.44 -62.43 13.44 -61.75 13.44 C-61.48 12.85 -61.21 12.26 -60.93 11.66 C-58.39 6.88 -54.4 2.26 -49.75 -0.56 C-49.09 -0.56 -48.43 -0.56 -47.75 -0.56 C-47.75 -1.22 -47.75 -1.88 -47.75 -2.56 C-46.17 -3.21 -44.58 -3.86 -43 -4.5 C-42.12 -4.86 -41.24 -5.22 -40.33 -5.59 C-26.84 -10.68 -11.75 -7.85 0 0 Z M-41.75 21.44 C-45.63 26.83 -47.02 31.77 -46.75 38.44 C-45.34 45.06 -42.12 49.73 -36.62 53.69 C-31.61 56.32 -26.06 57.14 -20.51 55.96 C-14.25 53.81 -9.68 50.47 -6.54 44.49 C-4.46 39.09 -4.05 33.61 -5.94 28.12 C-8.66 22.05 -12.45 17.88 -18.75 15.44 C-27.59 13.32 -35.22 14.91 -41.75 21.44 Z " fill="#FE52E5" transform="translate(217.75,156.5625)"/>
<path d="M0 0 C4.73 0.88 7.24 3.82 10.51 7.12 C11.16 7.76 11.8 8.4 12.47 9.06 C14.59 11.18 16.71 13.3 18.83 15.43 C20.3 16.9 21.78 18.37 23.25 19.84 C26.34 22.93 29.42 26.02 32.5 29.11 C36.45 33.08 40.42 37.04 44.39 40.99 C47.44 44.02 50.48 47.07 53.51 50.11 C54.97 51.57 56.43 53.03 57.9 54.49 C59.94 56.53 61.97 58.57 64 60.62 C64.62 61.22 65.23 61.83 65.86 62.45 C70 66.66 70 66.66 70 70 C68.21 71.58 68.21 71.58 65.81 73.25 C61.51 76.43 58.85 79.5 56 84 C52.86 83.42 51.22 82.6 48.98 80.34 C48.41 79.77 47.84 79.21 47.25 78.62 C46.64 78 46.03 77.38 45.4 76.74 C44.74 76.08 44.09 75.43 43.41 74.76 C41.25 72.59 39.1 70.42 36.95 68.25 C35.46 66.74 33.96 65.24 32.46 63.74 C28.52 59.79 24.59 55.83 20.67 51.87 C16.66 47.83 12.64 43.8 8.62 39.77 C0.74 31.85 -7.13 23.93 -15 16 C-12.39 13.35 -9.85 10.88 -6.94 8.56 C-3.83 5.85 -2.11 3.49 0 0 Z " fill="#F6D43E" transform="translate(100,86)"/>
</svg>
