<?xml version="1.0" encoding="UTF-8"?>
<!-- Generator: visioncortex VTracer 0.6.4 -->
<svg version="1.1" xmlns="http://www.w3.org/2000/svg" width="256" height="256">
<path d="M0 0 C1 -0.01 2.01 -0.01 3.04 -0.02 C4.15 -0.02 5.25 -0.03 6.39 -0.03 C7.55 -0.04 8.71 -0.04 9.91 -0.05 C13.77 -0.07 17.62 -0.08 21.48 -0.09 C22.79 -0.1 24.11 -0.1 25.46 -0.1 C31.7 -0.12 37.94 -0.14 44.18 -0.15 C51.38 -0.15 58.58 -0.18 65.78 -0.22 C71.34 -0.25 76.91 -0.27 82.48 -0.27 C85.8 -0.27 89.12 -0.28 92.45 -0.31 C96.16 -0.33 99.87 -0.33 103.58 -0.32 C105.23 -0.34 105.23 -0.34 106.9 -0.36 C113.96 -0.31 117.67 0.84 122.95 5.72 C123.39 6.23 123.84 6.73 124.3 7.25 C124.82 7.82 125.35 8.4 125.88 9 C126.43 9.61 126.98 10.22 127.54 10.85 C128.76 12.15 129.98 13.46 131.2 14.76 C133.1 16.79 134.98 18.82 136.83 20.9 C145.36 30.65 145.36 30.65 157.33 34.28 C159.59 34.29 161.81 34.18 164.06 34.04 C168.79 33.87 172.36 35.55 176.24 38.15 C180.48 42.53 180.68 46.33 180.6 52.14 C180.55 53.57 180.55 53.57 180.49 55.02 C180.48 56 180.46 56.97 180.44 57.98 C180.39 60.37 180.33 62.76 180.24 65.15 C179.25 65.48 178.26 65.81 177.24 66.15 C177.24 69.45 177.24 72.75 177.24 76.15 C178.23 76.48 179.22 76.81 180.24 77.15 C180.31 99.1 180.37 121.04 180.4 142.99 C180.42 153.18 180.44 163.37 180.47 173.57 C180.5 182.45 180.52 191.33 180.53 200.21 C180.53 204.91 180.54 209.62 180.56 214.32 C180.58 218.75 180.59 223.17 180.58 227.6 C180.58 229.22 180.59 230.85 180.6 232.47 C180.62 234.69 180.61 236.91 180.6 239.13 C180.61 240.37 180.61 241.61 180.61 242.89 C180.06 247.74 177.98 250.3 174.85 253.92 C170.13 257.61 164.24 256.8 158.54 256.71 C157.26 256.72 155.98 256.72 154.66 256.72 C151.17 256.72 147.68 256.69 144.18 256.65 C140.53 256.62 136.87 256.62 133.22 256.61 C126.3 256.6 119.38 256.56 112.47 256.51 C104.59 256.45 96.71 256.42 88.84 256.4 C72.64 256.35 56.44 256.26 40.24 256.15 C39.91 255.16 39.58 254.17 39.24 253.15 C35.94 253.15 32.64 253.15 29.24 253.15 C28.91 254.14 28.58 255.13 28.24 256.15 C20.52 256.24 12.81 256.31 5.09 256.35 C1.5 256.38 -2.08 256.4 -5.67 256.45 C-9.13 256.49 -12.59 256.52 -16.06 256.53 C-18.01 256.54 -19.97 256.57 -21.93 256.6 C-32.98 256.6 -32.98 256.6 -37.76 252.15 C-41.32 248.09 -41.88 244.77 -41.82 239.46 C-41.81 238.47 -41.8 237.47 -41.79 236.45 C-41.78 235.69 -41.77 234.93 -41.76 234.15 C-42.38 234.18 -43.01 234.22 -43.66 234.25 C-49.3 234.43 -54.97 234.47 -59.76 231.15 C-64.91 225.51 -64.34 219.65 -64.29 212.3 C-64.29 211.06 -64.29 209.82 -64.3 208.54 C-64.3 205.25 -64.29 201.95 -64.26 198.66 C-64.26 196.65 -64.26 194.64 -64.28 192.62 C-64.3 188.75 -64.3 184.87 -64.29 180.99 C-64.3 179.79 -64.3 178.6 -64.31 177.36 C-64.24 171.02 -64.13 166.91 -59.76 162.15 C-55.72 159.12 -52.42 159.02 -47.54 159.08 C-45.91 159.09 -45.91 159.09 -44.26 159.11 C-43.43 159.12 -42.61 159.13 -41.76 159.15 C-41.76 158.57 -41.76 157.99 -41.77 157.39 C-41.86 143.23 -41.92 129.07 -41.96 114.92 C-41.98 108.07 -42.01 101.23 -42.06 94.38 C-42.1 87.77 -42.12 81.17 -42.14 74.56 C-42.14 72.04 -42.16 69.52 -42.18 67 C-42.21 63.47 -42.21 59.94 -42.21 56.41 C-42.23 54.85 -42.23 54.85 -42.25 53.25 C-42.22 46.99 -41.42 43.27 -37.76 38.15 C-33.31 33.85 -27.63 33.85 -21.76 33.9 C-19.42 33.95 -17.09 34.04 -14.76 34.15 C-14.77 33.48 -14.79 32.82 -14.8 32.13 C-14.87 29.09 -14.9 26.06 -14.94 23.02 C-14.97 21.98 -14.99 20.93 -15.02 19.85 C-15.07 14.21 -15.06 9.97 -11.76 5.15 C-7.74 1.52 -5.36 0.03 0 0 Z " fill="#050403" transform="translate(69.75579833984375,-0.1471710205078125)"/>
<path d="M0 0 C0.85 -0 1.7 -0 2.57 -0 C5.38 0 8.18 0.02 10.98 0.05 C12.93 0.05 14.87 0.06 16.82 0.06 C21.93 0.07 27.05 0.1 32.16 0.13 C37.39 0.17 42.61 0.18 47.83 0.19 C58.07 0.23 68.32 0.28 78.56 0.34 C78.68 17.2 78.76 34.07 78.82 50.93 C78.84 58.76 78.88 66.59 78.94 74.42 C78.99 81.25 79.02 88.07 79.03 94.9 C79.04 98.51 79.05 102.12 79.09 105.74 C79.13 109.77 79.13 113.8 79.13 117.84 C79.15 119.64 79.15 119.64 79.18 121.47 C79.15 126.19 79.07 129.41 76.78 133.58 C71.77 136.32 67.07 136.02 61.46 135.95 C60.23 135.96 59 135.96 57.74 135.97 C55.08 135.98 52.42 135.98 49.76 135.96 C45.55 135.94 41.35 135.95 37.14 135.97 C29.73 135.99 22.33 135.99 14.92 135.97 C3.76 135.95 -7.4 135.96 -18.56 135.99 C-22.74 136 -26.92 136 -31.11 135.98 C-34.31 135.97 -37.52 135.98 -40.73 135.99 C-41.89 135.98 -43.05 135.97 -44.25 135.96 C-45.31 135.96 -46.36 135.97 -47.45 135.98 C-48.37 135.97 -49.29 135.97 -50.24 135.97 C-50.97 136.09 -51.69 136.21 -52.44 136.34 C-53.1 137.33 -53.76 138.32 -54.44 139.34 C-56.82 139.63 -56.82 139.63 -59.57 139.53 C-60.48 139.5 -61.39 139.47 -62.32 139.45 C-63.02 139.41 -63.72 139.38 -64.44 139.34 C-64.77 138.35 -65.1 137.36 -65.44 136.34 C-66.14 136.34 -66.85 136.34 -67.57 136.34 C-74.21 136.32 -80.84 136.28 -87.48 136.21 C-90.89 136.17 -94.3 136.15 -97.71 136.15 C-101.64 136.14 -105.56 136.09 -109.48 136.05 C-110.7 136.05 -111.93 136.06 -113.18 136.06 C-118.06 135.98 -121.45 135.89 -125.75 133.48 C-127.6 130.04 -127.62 128.47 -127.55 124.64 C-127.53 123.65 -127.52 122.66 -127.5 121.64 C-127.47 120.5 -127.47 120.5 -127.44 119.34 C-126.32 119.34 -126.32 119.34 -125.17 119.33 C-106.98 119.27 -88.79 119.2 -70.59 119.1 C-61.79 119.06 -52.99 119.02 -44.2 118.99 C-36.53 118.97 -28.86 118.94 -21.19 118.89 C-17.13 118.87 -13.07 118.85 -9.01 118.84 C-5.19 118.84 -1.36 118.82 2.46 118.79 C3.86 118.78 5.26 118.77 6.67 118.78 C8.58 118.78 10.5 118.76 12.42 118.74 C13.49 118.73 14.56 118.73 15.66 118.73 C20.2 118.12 22.76 116.19 25.84 112.9 C28.33 107.74 28.13 103.07 28.09 97.41 C28.09 96.26 28.1 95.1 28.1 93.92 C28.11 91.49 28.1 89.06 28.08 86.63 C28.06 82.92 28.08 79.21 28.11 75.5 C28.1 73.14 28.1 70.77 28.09 68.41 C28.1 67.3 28.11 66.2 28.12 65.06 C28.04 58.64 27.53 54.49 23.56 49.34 C20.24 47.15 17.42 47.08 13.5 47.06 C12.26 47.05 11.01 47.04 9.73 47.03 C8.36 47.03 6.99 47.02 5.61 47.02 C4.16 47.01 2.71 47 1.26 46.99 C-2.67 46.96 -6.6 46.95 -10.53 46.94 C-14.64 46.92 -18.75 46.89 -22.86 46.87 C-30.64 46.82 -38.42 46.78 -46.2 46.75 C-55.06 46.71 -63.92 46.66 -72.78 46.61 C-91 46.51 -109.22 46.42 -127.44 46.34 C-127.44 40.07 -127.44 33.8 -127.44 27.34 C-124.67 27.34 -121.89 27.33 -119.03 27.33 C-109.85 27.31 -100.66 27.27 -91.48 27.21 C-85.91 27.17 -80.34 27.15 -74.78 27.15 C-69.4 27.14 -64.03 27.11 -58.65 27.07 C-56.6 27.05 -54.56 27.05 -52.51 27.05 C-49.63 27.06 -46.76 27.03 -43.89 27 C-43.04 27.01 -42.2 27.02 -41.34 27.03 C-34.06 26.89 -29.15 24.14 -24.12 18.95 C-23.52 18.15 -22.93 17.35 -22.32 16.53 C-21.66 15.66 -21 14.8 -20.32 13.91 C-19.13 12.28 -17.94 10.65 -16.75 9.02 C-15.98 7.97 -15.98 7.97 -15.19 6.9 C-14.75 6.29 -14.31 5.67 -13.86 5.03 C-9.78 0.18 -6.13 -0.08 0 0 Z " fill="#FCDE75" transform="translate(163.4404296875,113.659423828125)"/>
<path d="M0 0 C0.96 -0.01 1.91 -0.01 2.9 -0.02 C3.94 -0 4.98 0.01 6.06 0.03 C7.71 0.03 7.71 0.03 9.4 0.03 C13.05 0.03 16.69 0.06 20.34 0.09 C22.87 0.1 25.39 0.1 27.92 0.11 C33.9 0.12 39.87 0.15 45.85 0.19 C52.65 0.24 59.45 0.26 66.25 0.28 C80.25 0.32 94.24 0.39 108.23 0.48 C108.23 1.14 108.24 1.79 108.24 2.47 C108.27 5.47 108.35 8.48 108.42 11.48 C108.42 12.51 108.43 13.54 108.43 14.6 C108.62 21.26 109.49 26.52 114.23 31.48 C122.92 35.83 133.52 34.09 143.23 34.48 C143.23 55.93 143.23 77.38 143.23 99.48 C137.62 99.48 132.01 99.48 126.23 99.48 C126.19 97.19 126.19 97.19 126.15 94.84 C126.09 92.83 126.04 90.81 125.98 88.79 C125.96 87.79 125.95 86.78 125.94 85.74 C125.8 81.56 125.52 78.2 123.93 74.31 C119.39 71.23 114.58 71.76 109.23 71.86 C108.14 71.84 107.04 71.82 105.92 71.8 C99.86 71.79 99.86 71.79 94.53 74.31 C92.57 79.09 92.55 83.67 92.48 88.79 C92.43 90.33 92.43 90.33 92.39 91.9 C92.32 94.43 92.27 96.95 92.23 99.48 C89.59 99.48 86.95 99.48 84.23 99.48 C84.22 98.26 84.21 97.04 84.2 95.78 C84.16 91.25 84.1 86.72 84.02 82.18 C83.99 80.22 83.97 78.26 83.96 76.3 C83.94 73.48 83.89 70.66 83.84 67.84 C83.84 66.96 83.84 66.09 83.83 65.19 C83.74 61.37 83.68 59.15 81.52 55.93 C77.26 53.24 72.69 53.87 67.79 53.92 C66.75 53.89 65.72 53.87 64.65 53.85 C63.14 53.85 63.14 53.85 61.61 53.85 C60.7 53.85 59.78 53.85 58.84 53.85 C55.06 54.76 53.57 56.42 51.23 59.48 C50.55 62.66 50.55 62.66 50.74 66.09 C50.76 67.34 50.77 68.59 50.79 69.87 C50.83 71.17 50.87 72.46 50.92 73.79 C50.95 75.76 50.95 75.76 50.98 77.77 C51.04 81.01 51.13 84.24 51.23 87.48 C54.2 86.49 54.2 86.49 57.23 85.48 C57.56 77.23 57.89 68.98 58.23 60.48 C61.18 60.46 64.13 60.44 67.17 60.42 C68.1 60.41 69.03 60.4 69.99 60.39 C70.72 60.39 71.44 60.39 72.19 60.38 C72.94 60.38 73.69 60.37 74.46 60.37 C76.23 60.48 76.23 60.48 77.23 61.48 C77.52 67.25 77.54 73.02 77.58 78.8 C77.6 80.75 77.62 82.69 77.66 84.64 C77.72 87.45 77.74 90.25 77.75 93.06 C77.79 94.36 77.79 94.36 77.82 95.69 C77.81 100.05 77.75 101.86 74.89 105.32 C74.01 106.03 73.13 106.75 72.23 107.48 C71.18 108.78 70.16 110.11 69.19 111.47 C68.41 112.53 68.41 112.53 67.62 113.61 C66.55 115.08 65.49 116.56 64.43 118.04 C63.91 118.74 63.4 119.44 62.87 120.16 C62.18 121.11 62.18 121.11 61.48 122.09 C61.07 122.55 60.65 123.01 60.23 123.48 C59.57 123.48 58.91 123.48 58.23 123.48 C57.9 115.89 57.57 108.3 57.23 100.48 C55.58 100.15 53.93 99.82 52.23 99.48 C50.48 101.23 51 103.67 50.91 106.05 C50.85 107.73 50.85 107.73 50.79 109.46 C50.75 110.64 50.71 111.82 50.67 113.04 C50.6 114.83 50.6 114.83 50.54 116.64 C50.43 119.59 50.33 122.53 50.23 125.48 C47.59 125.48 44.95 125.48 42.23 125.48 C42.23 124.41 42.23 123.34 42.22 122.24 C42.21 112.18 42.17 102.11 42.1 92.05 C42.06 86.87 42.04 81.7 42.03 76.53 C42.03 71.53 42 66.54 41.96 61.55 C41.94 59.64 41.94 57.74 41.94 55.83 C41.95 53.16 41.92 50.5 41.89 47.83 C41.9 46.64 41.9 46.64 41.91 45.44 C41.83 41.55 41.58 39.85 38.84 36.99 C34.43 34.44 30.21 34.86 25.23 34.92 C24.24 34.89 23.26 34.87 22.24 34.85 C21.29 34.85 20.34 34.85 19.35 34.85 C18.49 34.85 17.63 34.85 16.74 34.85 C13.01 35.79 11.61 37.5 9.23 40.48 C8.73 43.46 8.54 45.87 8.57 48.85 C8.55 50.1 8.55 50.1 8.54 51.37 C8.51 54.1 8.52 56.83 8.52 59.56 C8.51 61.46 8.49 63.36 8.48 65.26 C8.44 70.25 8.43 75.24 8.42 80.23 C8.41 85.32 8.38 90.42 8.34 95.51 C8.28 105.5 8.25 115.49 8.23 125.48 C2.62 125.48 -2.99 125.48 -8.77 125.48 C-8.86 109.77 -8.93 94.07 -8.98 78.36 C-9 71.07 -9.03 63.77 -9.07 56.48 C-9.11 50.12 -9.14 43.77 -9.15 37.41 C-9.15 34.04 -9.16 30.68 -9.19 27.31 C-9.22 23.56 -9.23 19.8 -9.23 16.04 C-9.24 14.93 -9.25 13.81 -9.27 12.66 C-9.26 11.63 -9.26 10.61 -9.25 9.56 C-9.26 8.67 -9.26 7.78 -9.26 6.86 C-8.21 1.76 -4.94 -0.02 0 0 Z " fill="#E7F3FC" transform="translate(71.77093505859375,7.51898193359375)"/>
<path d="M0 0 C1.01 -0.01 1.01 -0.01 2.03 -0.01 C4.28 -0.03 6.53 -0.02 8.78 -0.01 C10.39 -0.01 12 -0.02 13.61 -0.02 C18 -0.04 22.37 -0.03 26.76 -0.02 C31.33 -0.01 35.91 -0.02 40.49 -0.03 C48.18 -0.03 55.87 -0.02 63.56 -0.01 C72.46 0.01 81.36 0 90.25 -0.02 C97.89 -0.03 105.52 -0.03 113.15 -0.02 C117.71 -0.02 122.27 -0.02 126.84 -0.03 C131.12 -0.04 135.41 -0.03 139.7 -0.01 C141.27 -0.01 142.85 -0.01 144.43 -0.02 C146.57 -0.03 148.72 -0.01 150.87 0 C152.07 0 153.27 0 154.51 0 C157.43 0.38 157.43 0.38 159.32 1.76 C160.88 4.03 160.82 5.69 160.84 8.43 C160.86 9.97 160.86 9.97 160.88 11.55 C160.87 12.66 160.87 13.77 160.87 14.91 C160.87 16.05 160.88 17.19 160.88 18.36 C160.89 20.78 160.89 23.19 160.88 25.6 C160.87 29.3 160.9 33 160.93 36.69 C160.93 39.03 160.93 41.38 160.93 43.72 C160.94 44.83 160.95 45.94 160.96 47.08 C160.95 48.11 160.94 49.14 160.94 50.2 C160.93 51.11 160.93 52.01 160.93 52.95 C160.25 56.26 159.08 57.3 156.43 59.38 C153.4 59.88 153.4 59.88 149.78 59.88 C149.12 59.89 148.45 59.89 147.76 59.9 C145.53 59.91 143.3 59.9 141.06 59.88 C139.46 59.89 137.86 59.89 136.26 59.9 C131.91 59.91 127.56 59.9 123.21 59.89 C118.66 59.87 114.12 59.88 109.57 59.88 C101.93 59.88 94.29 59.87 86.66 59.85 C77.82 59.82 68.98 59.82 60.15 59.83 C51.66 59.84 43.16 59.84 34.67 59.82 C31.05 59.82 27.43 59.82 23.82 59.82 C19.56 59.83 15.3 59.82 11.04 59.79 C9.48 59.79 7.91 59.79 6.35 59.79 C4.22 59.8 2.09 59.79 -0.04 59.77 C-1.24 59.77 -2.43 59.76 -3.66 59.76 C-6.57 59.38 -6.57 59.38 -8.45 58 C-10.03 55.7 -9.95 54 -9.95 51.22 C-9.96 50.17 -9.97 49.12 -9.98 48.04 C-9.98 46.9 -9.97 45.77 -9.97 44.6 C-9.97 43.43 -9.97 42.27 -9.97 41.07 C-9.98 38.6 -9.97 36.14 -9.96 33.68 C-9.94 29.9 -9.96 26.12 -9.98 22.34 C-9.97 19.95 -9.97 17.55 -9.97 15.16 C-9.97 14.03 -9.98 12.89 -9.98 11.72 C-9.97 10.67 -9.96 9.62 -9.95 8.54 C-9.95 7.61 -9.95 6.69 -9.95 5.73 C-9.01 -0.03 -5.15 0 0 0 Z " fill="#97E3F9" transform="translate(23.566650390625,166.61904907226563)"/>
<path d="M0 0 C4.95 0 9.9 0 15 0 C15 30.03 15 60.06 15 91 C8.4 91 1.8 91 -5 91 C-5.11 79.87 -5.2 68.75 -5.26 57.62 C-5.29 52.45 -5.32 47.29 -5.38 42.12 C-5.43 37.13 -5.46 32.15 -5.47 27.16 C-5.48 25.26 -5.5 23.36 -5.53 21.46 C-5.56 18.79 -5.57 16.13 -5.57 13.46 C-5.59 12.68 -5.6 11.89 -5.62 11.08 C-5.56 4.99 -4.78 4.78 0 0 Z " fill="#F5AC35" transform="translate(41,42)"/>
<path d="M0 0 C4.89 2.73 7.87 6.22 10.69 11 C11.06 11.63 11.44 12.27 11.82 12.92 C14.14 18.47 13.32 25.26 11.19 30.75 C8.39 36.3 3.9 40.4 -1.64 43.16 C-7.78 45.09 -15.04 45.31 -21.05 42.9 C-26.26 39.62 -30.93 35.17 -32.91 29.18 C-34.1 22.7 -34.69 15.4 -31.25 9.56 C-23.45 -0.89 -12.5 -5.61 0 0 Z " fill="#050708" transform="translate(97.3125,175)"/>
<path d="M0 0 C0.8 0 1.6 0.01 2.42 0.01 C3.22 0.01 4.01 0 4.84 0 C10.79 0.01 10.79 0.01 11.92 1.14 C12.01 3.72 12.04 6.28 12.03 8.87 C12.03 9.68 12.03 10.49 12.03 11.32 C12.03 14.01 12.02 16.7 12.02 19.39 C12.01 21.25 12.01 23.11 12.01 24.97 C12.01 29.87 12 34.78 11.99 39.68 C11.98 44.68 11.97 49.68 11.97 54.68 C11.96 64.5 11.94 74.32 11.92 84.14 C5.65 84.14 -0.62 84.14 -7.08 84.14 C-7.1 73.33 -7.12 62.53 -7.13 51.72 C-7.14 46.71 -7.15 41.69 -7.16 36.67 C-7.17 31.84 -7.17 27 -7.18 22.16 C-7.18 20.31 -7.18 18.46 -7.19 16.61 C-7.19 14.03 -7.2 11.45 -7.2 8.87 C-7.2 8.1 -7.2 7.32 -7.21 6.53 C-7.19 -0.13 -6.62 0.01 0 0 Z " fill="#44C588" transform="translate(95.08203125,48.86328125)"/>
<path d="M0 0 C28.71 0 57.42 0 87 0 C87.2 32.4 87.2 32.4 87.24 45.97 C87.27 55.34 87.31 64.71 87.38 74.08 C87.43 80.91 87.46 87.73 87.47 94.56 C87.48 98.17 87.49 101.78 87.53 105.4 C87.57 109.43 87.57 113.46 87.57 117.5 C87.59 119.3 87.59 119.3 87.62 121.13 C87.59 125.85 87.51 129.07 85.22 133.25 C80.22 135.97 75.56 135.66 69.96 135.57 C68.13 135.57 68.13 135.57 66.26 135.57 C62.92 135.57 59.59 135.54 56.25 135.51 C52.76 135.48 49.27 135.47 45.78 135.47 C39.18 135.45 32.57 135.41 25.97 135.36 C18.45 135.3 10.92 135.28 3.4 135.25 C-12.06 135.2 -27.53 135.11 -43 135 C-43 134.67 -43 134.34 -43 134 C15.91 133.5 15.91 133.5 76 133 C77.27 130.46 77.14 128.67 77.16 125.82 C77.17 124.73 77.18 123.63 77.19 122.5 C77.19 121.29 77.2 120.08 77.21 118.84 C77.22 117.57 77.23 116.3 77.24 115 C77.26 111.51 77.28 108.03 77.3 104.55 C77.33 100.91 77.35 97.27 77.38 93.63 C77.43 86.74 77.47 79.85 77.52 72.96 C77.58 63.64 77.64 54.33 77.71 45.02 C77.81 30.35 77.91 15.67 78 1 C52.26 1 26.52 1 0 1 C0 0.67 0 0.34 0 0 Z " fill="#F1C758" transform="translate(155,114)"/>
<path d="M0 0 C14 0 14 0 19 4 C19.66 6.11 19.66 6.11 19.71 8.33 C19.74 9.13 19.77 9.93 19.79 10.75 C19.8 11.58 19.81 12.4 19.81 13.25 C19.84 14.09 19.86 14.93 19.89 15.8 C19.95 17.86 19.98 19.93 20 22 C21.32 22.66 22.64 23.32 24 24 C24 27.3 24 30.6 24 34 C22.68 34.66 21.36 35.32 20 36 C19.67 45.24 19.34 54.48 19 64 C12.73 64 6.46 64 0 64 C0 42.88 0 21.76 0 0 Z " fill="#FCB036" transform="translate(223,42)"/>
<path d="M0 0 C2.95 -0.02 5.9 -0.04 8.94 -0.06 C9.87 -0.07 10.8 -0.08 11.76 -0.09 C12.49 -0.09 13.21 -0.1 13.96 -0.1 C14.71 -0.1 15.46 -0.11 16.23 -0.11 C18 0 18 0 19 1 C19.29 6.77 19.31 12.54 19.35 18.32 C19.37 20.27 19.39 22.21 19.43 24.16 C19.49 26.97 19.51 29.77 19.52 32.58 C19.55 33.45 19.57 34.31 19.59 35.21 C19.58 39.57 19.52 41.37 16.66 44.84 C15.78 45.55 14.9 46.27 14 47 C12.95 48.3 11.93 49.63 10.96 50.99 C10.44 51.69 9.92 52.4 9.39 53.13 C8.33 54.6 7.26 56.08 6.2 57.56 C5.68 58.26 5.17 58.96 4.64 59.68 C4.18 60.31 3.72 60.95 3.25 61.61 C2.63 62.3 2.63 62.3 2 63 C1.34 63 0.68 63 0 63 C-0.01 62.32 -0.02 61.64 -0.03 60.94 C-0.08 57.85 -0.17 54.77 -0.25 51.69 C-0.26 50.62 -0.28 49.54 -0.29 48.44 C-0.33 47.41 -0.36 46.38 -0.39 45.32 C-0.41 44.38 -0.43 43.43 -0.45 42.45 C-1.15 39.31 -2.39 38.74 -5 37 C-5.39 34.52 -5.39 34.52 -5.25 31.81 C-5.21 30.91 -5.18 30.01 -5.14 29.08 C-5.09 28.39 -5.05 27.71 -5 27 C-3.68 26.34 -2.36 25.68 -1 25 C-0.67 16.75 -0.34 8.5 0 0 Z " fill="#AC84C2" transform="translate(130,68)"/>
<path d="M0 0 C0 29.7 0 59.4 0 90 C-3.3 90 -6.6 90 -10 90 C-10.07 78.86 -10.12 67.71 -10.16 56.57 C-10.17 51.39 -10.19 46.22 -10.23 41.04 C-10.26 36.05 -10.28 31.06 -10.28 26.07 C-10.29 24.16 -10.3 22.26 -10.32 20.35 C-10.34 17.68 -10.34 15.02 -10.34 12.35 C-10.35 11.56 -10.36 10.77 -10.37 9.96 C-10.36 6.85 -10.15 4.35 -8.92 1.48 C-7 0 -7 0 0 0 Z " fill="#FEC243" transform="translate(46,43)"/>
<path d="M0 0 C2 2 2 2 2.12 4.62 C2.08 5.41 2.04 6.19 2 7 C-2.51 8.25 -2.51 8.25 -4.83 7.04 C-7.51 5.75 -9.53 5.7 -12.5 5.69 C-13.44 5.67 -14.38 5.65 -15.34 5.64 C-18.4 6.06 -19.66 7.06 -22 9 C-22.66 9 -23.32 9 -24 9 C-24.31 9.78 -24.62 10.57 -24.94 11.38 C-26 14 -26 14 -27 16 C-27.67 20.07 -27.73 23.59 -25.8 27.3 C-23.24 30.82 -21.13 33.39 -17 35 C-11.48 35.45 -7.63 35.37 -3 32 C-1.38 29.44 -0.13 26.81 1 24 C-0.05 24.03 -0.05 24.03 -1.12 24.07 C-2.03 24.09 -2.94 24.11 -3.88 24.12 C-5.23 24.16 -5.23 24.16 -6.62 24.2 C-9 24 -9 24 -11 22 C-10.46 18.46 -10.46 18.46 -9 17 C-6.32 16.9 -3.68 16.86 -1 16.88 C-0.25 16.87 0.5 16.87 1.27 16.86 C6.87 16.87 6.87 16.87 8 18 C8.82 24.63 8.46 29.8 4.5 35.28 C0.63 39.73 -2.98 42.69 -9.04 43.31 C-16.24 43.57 -21.38 43.39 -27.16 38.86 C-32.29 33.68 -35.13 28.13 -35.25 20.81 C-35.14 14.32 -34.47 9.68 -29.97 4.8 C-20.66 -3.83 -11.6 -5.39 0 0 Z " fill="#040707" transform="translate(160,176)"/>
<path d="M0 0 C1.77 -0.08 3.54 -0.14 5.31 -0.19 C6.3 -0.22 7.28 -0.26 8.3 -0.29 C11 0 11 0 12.64 1.2 C14.44 3.59 14.39 5.08 14.4 8.05 C14.42 9.59 14.42 9.59 14.44 11.17 C14.44 12.27 14.44 13.38 14.43 14.53 C14.44 15.67 14.44 16.81 14.45 17.98 C14.46 20.4 14.45 22.81 14.45 25.22 C14.44 28.92 14.47 32.61 14.5 36.31 C14.5 38.65 14.5 41 14.5 43.34 C14.51 44.45 14.52 45.55 14.53 46.7 C14.52 47.73 14.51 48.76 14.5 49.82 C14.5 50.73 14.5 51.63 14.5 52.57 C13.82 55.88 12.64 56.92 10 59 C6.96 59.49 6.96 59.49 3.33 59.48 C2.33 59.49 2.33 59.49 1.3 59.49 C-0.94 59.5 -3.18 59.48 -5.42 59.45 C-7.02 59.45 -8.63 59.45 -10.24 59.46 C-14.6 59.46 -18.96 59.43 -23.32 59.41 C-27.88 59.38 -32.44 59.38 -36.99 59.37 C-45.62 59.36 -54.25 59.33 -62.89 59.29 C-72.71 59.24 -82.54 59.22 -92.36 59.2 C-112.58 59.16 -132.79 59.09 -153 59 C-153 58.67 -153 58.34 -153 58 C-152.21 58 -151.42 57.99 -150.61 57.99 C-131.48 57.88 -112.34 57.78 -93.21 57.66 C-83.95 57.61 -74.7 57.55 -65.44 57.5 C-57.38 57.46 -49.32 57.41 -41.26 57.36 C-36.98 57.34 -32.71 57.31 -28.44 57.29 C-24.42 57.27 -20.41 57.25 -16.39 57.22 C-14.91 57.21 -13.44 57.2 -11.96 57.2 C-9.95 57.19 -7.94 57.17 -5.93 57.16 C-4.8 57.15 -3.67 57.15 -2.51 57.14 C-0.06 57.28 -0.06 57.28 1 56 C1.1 54.36 1.13 52.71 1.13 51.07 C1.13 49.49 1.13 49.49 1.14 47.88 C1.14 46.74 1.13 45.59 1.13 44.41 C1.13 43.25 1.13 42.08 1.14 40.88 C1.14 38.4 1.13 35.92 1.13 33.45 C1.13 29.65 1.13 25.85 1.14 22.05 C1.14 19.65 1.13 17.25 1.13 14.85 C1.14 13.14 1.14 13.14 1.14 11.39 C1.14 10.34 1.13 9.28 1.13 8.19 C1.13 7.26 1.13 6.33 1.13 5.37 C1.1 2.85 1.1 2.85 0 0 Z " fill="#62CDEA" transform="translate(170,167)"/>
<path d="M0 0 C3.44 1.69 3.44 1.69 6 4 C6.78 4.66 7.57 5.32 8.38 6 C10.99 10.82 10.73 15.64 10 21 C7.77 25.55 5.03 28.81 0.25 30.69 C-5 31.42 -8.54 31.76 -13.25 29.31 C-16.91 26.24 -19.48 23.57 -21 19 C-21.51 12.85 -20.93 8.87 -17 4 C-11.97 -0.79 -6.61 -0.98 0 0 Z " fill="#96E2F8" transform="translate(92,181)"/>
<path d="M0 0 C2.97 0 5.94 0 9 0 C9 27.39 9 54.78 9 83 C6.03 83 3.06 83 0 83 C0 55.61 0 28.22 0 0 Z " fill="#6DD4A0" transform="translate(88,50)"/>
<path d="M0 0 C2.64 0 5.28 0 8 0 C10.31 3.47 10.24 4.76 10.23 8.85 C10.23 10.65 10.23 10.65 10.23 12.49 C10.22 13.78 10.21 15.08 10.2 16.42 C10.19 17.76 10.19 19.1 10.19 20.44 C10.18 23.97 10.16 27.49 10.14 31.02 C10.12 34.62 10.11 38.22 10.1 41.82 C10.08 48.88 10.04 55.94 10 63 C6.7 63 3.4 63 0 63 C0 42.21 0 21.42 0 0 Z " fill="#FEC243" transform="translate(223,43)"/>
<path d="M0 0 C6.93 0 13.86 0 21 0 C21 21.45 21 42.9 21 65 C15.39 65 9.78 65 4 65 C4 58.73 4 52.46 4 46 C4.33 46 4.66 46 5 46 C5 51.94 5 57.88 5 64 C7.31 64 9.62 64 12 64 C12 43.21 12 22.42 12 1 C8.04 1 4.08 1 0 1 C0 0.67 0 0.34 0 0 Z " fill="#C6EBF9" transform="translate(194,42)"/>
<path d="M0 0 C1.25 -0.01 2.51 -0.01 3.8 -0.02 C5.18 -0.02 6.56 -0.02 7.94 -0.02 C9.35 -0.03 10.76 -0.03 12.16 -0.03 C15.11 -0.04 18.07 -0.04 21.02 -0.04 C24.8 -0.04 28.59 -0.05 32.38 -0.07 C35.29 -0.08 38.19 -0.08 41.1 -0.08 C42.49 -0.08 43.89 -0.09 45.29 -0.1 C47.24 -0.11 49.19 -0.1 51.14 -0.1 C52.25 -0.1 53.36 -0.1 54.51 -0.1 C57.14 0.15 57.14 0.15 59.14 2.15 C58.58 6.7 58.58 6.7 57.14 8.15 C55.18 8.25 53.23 8.28 51.27 8.29 C50.02 8.3 48.76 8.3 47.47 8.31 C46.09 8.31 44.71 8.31 43.33 8.31 C41.92 8.32 40.51 8.32 39.11 8.32 C36.16 8.33 33.2 8.33 30.25 8.33 C26.47 8.33 22.68 8.34 18.89 8.36 C15.98 8.37 13.08 8.37 10.17 8.37 C8.78 8.38 7.38 8.38 5.98 8.39 C4.03 8.4 2.08 8.39 0.13 8.39 C-1.54 8.39 -1.54 8.39 -3.24 8.39 C-5.86 8.15 -5.86 8.15 -7.86 6.15 C-7.11 -0.02 -5.96 0.02 0 0 Z " fill="#0F0D07" transform="translate(168.864990234375,123.854736328125)"/>
<path d="M0 0 C2.97 0 5.94 0 9 0 C9.12 6.03 9.21 12.06 9.27 18.1 C9.3 20.15 9.33 22.2 9.38 24.25 C9.44 27.2 9.47 30.15 9.49 33.11 C9.51 34.02 9.54 34.94 9.57 35.88 C9.57 40.41 9.54 42.33 6.61 45.97 C5.75 46.64 4.89 47.31 4 48 C3.24 48.76 2.47 49.53 1.69 50.31 C1.13 50.87 0.57 51.43 0 52 C-0.03 51.1 -0.05 50.19 -0.08 49.26 C-0.13 48.08 -0.19 46.9 -0.25 45.69 C-0.3 44.52 -0.34 43.34 -0.39 42.14 C-1.12 38.36 -2.01 38.13 -5 36 C-5.39 33.52 -5.39 33.52 -5.25 30.81 C-5.21 29.91 -5.18 29.01 -5.14 28.08 C-5.09 27.39 -5.05 26.71 -5 26 C-3.68 25.34 -2.36 24.68 -1 24 C-0.67 16.08 -0.34 8.16 0 0 Z " fill="#C996E5" transform="translate(130,69)"/>
<path d="M0 0 C4.56 0.56 4.56 0.56 6 2 C6.09 4.74 6.12 7.45 6.1 10.19 C6.1 11.01 6.09 11.83 6.09 12.68 C6.09 15.3 6.08 17.93 6.06 20.56 C6.06 22.34 6.05 24.12 6.05 25.9 C6.04 30.26 6.02 34.63 6 39 C7.16 38.97 7.16 38.97 8.34 38.93 C9.34 38.91 10.34 38.89 11.38 38.88 C12.37 38.85 13.37 38.83 14.4 38.8 C17 39 17 39 19 41 C18.44 45.56 18.44 45.56 17 47 C14.36 47.15 11.77 47.23 9.12 47.25 C8.39 47.27 7.66 47.29 6.9 47.31 C1.48 47.35 1.48 47.35 -0.71 45.74 C-2.3 43.6 -2.37 42.48 -2.37 39.84 C-2.38 39 -2.38 38.17 -2.39 37.31 C-2.38 36.41 -2.37 35.51 -2.36 34.59 C-2.36 33.67 -2.36 32.74 -2.36 31.79 C-2.36 29.84 -2.35 27.89 -2.34 25.94 C-2.31 22.95 -2.32 19.95 -2.32 16.96 C-2.32 15.07 -2.31 13.17 -2.3 11.28 C-2.3 10.38 -2.3 9.48 -2.3 8.55 C-2.29 7.72 -2.28 6.89 -2.27 6.03 C-2.27 5.3 -2.27 4.57 -2.26 3.81 C-2 2 -2 2 0 0 Z " fill="#090E10" transform="translate(31,173)"/>
<path d="M0 0 C0.8 -0 1.61 -0 2.44 -0 C3.28 -0 4.13 0 5 0.01 C6.27 0 6.27 0 7.56 -0 C8.37 -0 9.17 -0 10 0 C10.74 0 11.49 0 12.25 0 C14 0.13 14 0.13 15 1.13 C15.09 2.62 15.11 4.11 15.1 5.61 C15.1 6.42 15.09 7.22 15.09 8.06 C15.08 9.09 15.07 10.13 15.06 11.2 C15.04 14.47 15.02 17.75 15 21.13 C8.4 21.13 1.8 21.13 -5 21.13 C-5.02 17.85 -5.04 14.57 -5.06 11.2 C-5.07 10.16 -5.08 9.13 -5.09 8.06 C-5.09 6.84 -5.09 6.84 -5.1 5.61 C-5.1 4.77 -5.11 3.94 -5.11 3.08 C-4.9 -0.5 -3.13 0 0 0 Z " fill="#D83D4D" transform="translate(176,85.8671875)"/>
<path d="M0 0 C1.05 0 1.05 0 2.13 0 C4.27 -0 6.41 -0.02 8.55 -0.04 C9.91 -0.04 11.27 -0.04 12.62 -0.04 C13.86 -0.05 15.1 -0.05 16.38 -0.06 C19.35 0.19 19.35 0.19 21.35 2.19 C20.79 6.74 20.79 6.74 19.35 8.19 C15.09 8.4 10.83 8.37 6.56 8.37 C4.42 8.37 2.28 8.39 0.14 8.41 C-1.22 8.41 -2.58 8.42 -3.93 8.42 C-5.17 8.42 -6.41 8.42 -7.69 8.43 C-10.65 8.19 -10.65 8.19 -12.65 6.19 C-11.67 -1.87 -6.96 0.03 0 0 Z " fill="#101111" transform="translate(92.654296875,20.814453125)"/>
<path d="M0 0 C5.03 4.22 9.79 8.61 14.44 13.25 C15.07 13.87 15.71 14.5 16.37 15.14 C17.27 16.04 17.27 16.04 18.18 16.95 C18.73 17.49 19.27 18.03 19.83 18.58 C21 20 21 20 21 22 C18.25 22.11 15.5 22.19 12.75 22.25 C11.58 22.3 11.58 22.3 10.39 22.35 C6.83 22.41 4.61 22.34 1.47 20.56 C-0.76 16.68 -0.43 13.14 -0.25 8.75 C-0.23 7.91 -0.21 7.07 -0.2 6.2 C-0.15 4.13 -0.08 2.07 0 0 Z " fill="#5BC8E5" transform="translate(188,13)"/>
<path d="M0 0 C2.97 0 5.94 0 9 0 C9 6.27 9 12.54 9 19 C6.03 19 3.06 19 0 19 C0 12.73 0 6.46 0 0 Z " fill="#FB5F7A" transform="translate(172,87)"/>
<path d="M0 0 C4.88 3.94 9.06 8.12 13 13 C11.4 13.08 9.79 13.14 8.19 13.19 C7.29 13.22 6.4 13.26 5.48 13.29 C3 13 3 13 1.19 11.81 C-0.41 9.37 -0.3 7.71 -0.19 4.81 C-0.16 3.91 -0.13 3.01 -0.11 2.08 C-0.07 1.39 -0.04 0.71 0 0 Z " fill="#95E3F9" transform="translate(188,21)"/>
</svg>
