<?xml version="1.0" encoding="UTF-8"?>
<!-- Generator: visioncortex VTracer 0.6.4 -->
<svg version="1.1" xmlns="http://www.w3.org/2000/svg" width="256" height="256">
<path d="M0 0 C7.26 0 14.52 0 22 0 C22.75 3.77 23.11 6.57 23.06 10.31 C23.05 11.2 23.04 12.08 23.04 12.99 C23.02 13.65 23.01 14.32 23 15 C25.5 15.5 25.5 15.5 28 16 C28.77 16.26 29.55 16.52 30.34 16.78 C33.14 17.28 33.14 17.28 35.68 15.35 C36.55 14.59 37.42 13.84 38.31 13.06 C39.64 11.94 39.64 11.94 40.99 10.79 C41.98 9.9 41.98 9.9 43 9 C48.66 13.7 53.85 18.75 59 24 C57.3 26.97 55.62 29.54 53.25 32 C50.71 34.72 50.71 34.72 51.12 37.56 C51.41 38.37 51.7 39.17 52 40 C52.33 41.67 52.67 43.33 53 45 C54 44.98 54 44.98 55.01 44.96 C55.89 44.96 56.78 44.95 57.69 44.94 C58.99 44.92 58.99 44.92 60.32 44.9 C63 45 63 45 68 46 C68 53.26 68 60.52 68 68 C64.23 68.75 61.43 69.11 57.69 69.06 C56.36 69.05 56.36 69.05 55.01 69.04 C54.35 69.02 53.68 69.01 53 69 C52.86 69.72 52.71 70.44 52.56 71.19 C52 74 52 74 51.22 76.38 C50.71 79.13 50.71 79.13 52.65 81.46 C53.41 82.23 54.16 83.01 54.94 83.81 C56.06 85 56.06 85 57.21 86.21 C57.8 86.8 58.39 87.39 59 88 C57.32 92.25 54.28 95.12 51.12 98.31 C50.6 98.88 50.07 99.44 49.52 100.02 C47.95 101.61 47.95 101.61 45 104 C41.25 103.56 39.87 101.99 37.38 99.25 C35.39 97.26 35.39 97.26 33 96 C29.33 96.28 26.31 97.43 23 99 C23.01 99.66 23.02 100.33 23.04 101.01 C23.04 101.89 23.05 102.78 23.06 103.69 C23.07 104.56 23.09 105.43 23.1 106.32 C23 109 23 109 22 114 C14.74 114 7.48 114 0 114 C-0.75 110.23 -1.11 107.43 -1.06 103.69 C-1.05 102.8 -1.04 101.92 -1.04 101.01 C-1.02 100.35 -1.01 99.68 -1 99 C-2.08 98.78 -2.08 98.78 -3.19 98.56 C-6 98 -6 98 -8.34 97.22 C-11.14 96.72 -11.14 96.72 -13.68 98.65 C-14.98 99.78 -14.98 99.78 -16.31 100.94 C-17.64 102.06 -17.64 102.06 -18.99 103.21 C-19.65 103.8 -20.32 104.39 -21 105 C-26.66 100.3 -31.85 95.25 -37 90 C-35.3 87.03 -33.62 84.46 -31.25 82 C-28.71 79.28 -28.71 79.28 -29.12 76.44 C-29.41 75.63 -29.7 74.83 -30 74 C-30.5 71.5 -30.5 71.5 -31 69 C-31.66 69.01 -32.33 69.02 -33.01 69.04 C-34.34 69.05 -34.34 69.05 -35.69 69.06 C-36.56 69.07 -37.43 69.09 -38.32 69.1 C-41 69 -41 69 -46 68 C-46 60.74 -46 53.48 -46 46 C-41.05 45.67 -36.1 45.34 -31 45 C-29.31 40.07 -29.31 40.07 -29 35 C-31.19 31.46 -33.9 28.75 -37 26 C-35.32 21.75 -32.28 18.88 -29.12 15.69 C-28.6 15.12 -28.07 14.56 -27.52 13.98 C-25.95 12.39 -25.95 12.39 -23 10 C-19.25 10.44 -17.87 12.01 -15.38 14.75 C-13.39 16.74 -13.39 16.74 -11 18 C-7.33 17.72 -4.31 16.57 -1 15 C-1.01 14.34 -1.02 13.67 -1.04 12.99 C-1.04 12.11 -1.05 11.22 -1.06 10.31 C-1.07 9.44 -1.09 8.57 -1.1 7.68 C-1 5 -1 5 0 0 Z " fill="#D0DDDF" transform="translate(117,71)"/>
<path d="M0 0 C1.21 -0.03 2.42 -0.05 3.67 -0.08 C10.07 0.51 14.17 3.42 18.25 8.25 C22.5 14.33 22.89 19.98 22.25 27.25 C21.76 28.61 21.76 28.61 21.27 30 C21.23 36.48 26.82 40.63 31.08 45.03 C38.71 52.11 45.49 53.01 55.63 52.81 C58.17 52.69 60.71 52.48 63.25 52.25 C63.25 56.21 63.25 60.17 63.25 64.25 C38.65 67.67 38.65 67.67 30.81 62.07 C24.55 56.93 19.38 50.58 14.49 44.16 C12.34 41.88 12.34 41.88 9.14 42.44 C8.19 42.71 7.23 42.97 6.25 43.25 C-1.81 44.08 -8.09 43.06 -14.75 38.25 C-20.46 32.25 -21.12 26.51 -21.02 18.55 C-20.56 12.92 -18.98 9.26 -14.77 5.47 C-9.62 1.5 -6.6 0.08 0 0 Z M-7.75 15.25 C-9.86 17.91 -9.75 19.24 -9.69 22.69 C-8.54 27.04 -7.43 28.66 -3.75 31.25 C-0.94 31.9 1.44 31.88 4.25 31.25 C7.06 29.46 8.76 28.23 10.25 25.25 C10.87 19.37 10.87 19.37 8.19 14.31 C2.11 10.05 -2.19 10.46 -7.75 15.25 Z " fill="#908EC3" transform="translate(20.75,-0.25)"/>
<path d="M0 0 C24.6 -3.42 24.6 -3.42 32.44 2.18 C38.7 7.32 43.87 13.67 48.76 20.09 C50.91 22.37 50.91 22.37 54.11 21.81 C55.06 21.54 56.02 21.28 57 21 C65.06 20.17 71.34 21.19 78 26 C83.71 32 84.37 37.74 84.27 45.7 C83.81 51.32 82.22 54.97 78.06 58.78 C70.96 64.32 64.87 64.6 56 64 C49.92 61.94 45.89 57.87 42.69 52.38 C40.06 46.78 39.91 40.05 41.98 34.25 C42.02 27.77 36.43 23.62 32.17 19.22 C24.54 12.14 17.76 11.24 7.62 11.44 C5.08 11.56 2.54 11.77 0 12 C0 8.04 0 4.08 0 0 Z M54 37 C52.39 40.23 52.42 43.51 53 47 C55.53 50.6 57.24 51.76 61.44 53.06 C65.88 52.98 67.66 51.87 71 49 C73.11 46.34 73 45.01 72.94 41.56 C71.79 37.21 70.68 35.59 67 33 C61.5 31.73 57.96 32.92 54 37 Z " fill="#F474B1" transform="translate(172,192)"/>
<path d="M0 0 C4.83 2.85 8.09 7.55 10.56 12.5 C10.71 14.75 10.78 17 10.81 19.25 C10.84 20.46 10.86 21.67 10.89 22.92 C10.3 29.32 7.39 33.42 2.56 37.5 C-3.52 41.75 -9.17 42.14 -16.44 41.5 C-17.39 41.23 -18.35 40.97 -19.33 40.69 C-22.53 40.13 -22.53 40.13 -24.68 42.41 C-25.74 43.8 -25.74 43.8 -26.82 45.21 C-41.2 62.59 -41.2 62.59 -50.31 63.82 C-58.06 64.39 -65.76 63.57 -73.44 62.5 C-73.44 58.54 -73.44 54.58 -73.44 50.5 C-71.91 50.64 -70.39 50.77 -68.82 50.91 C-59.53 51.36 -51.39 51.63 -43.8 45.64 C-39.22 41.39 -34.54 36.96 -31.44 31.5 C-31.27 28.27 -31.27 28.27 -32.44 25.5 C-33.27 17.44 -32.25 11.16 -27.44 4.5 C-20.26 -2.33 -9.15 -4.03 0 0 Z M-18.44 12.5 C-20.89 16.18 -21.14 19.22 -20.44 23.5 C-18.64 26.31 -17.42 28.01 -14.44 29.5 C-8.56 30.12 -8.56 30.12 -3.5 27.44 C-1.01 23.88 -0.36 21.84 -0.44 17.5 C-2.08 14.27 -3.45 12.18 -6.44 10.12 C-11.26 8.62 -14.3 10.07 -18.44 12.5 Z " fill="#D1DEE0" transform="translate(245.4375,1.5)"/>
<path d="M0 0 C0 3.96 0 7.92 0 12 C-1.52 11.86 -3.05 11.73 -4.62 11.59 C-13.91 11.14 -22.05 10.87 -29.64 16.86 C-34.21 21.11 -38.89 25.54 -42 31 C-42.16 34.22 -42.16 34.22 -41 37 C-40.36 44.27 -40.75 49.92 -45 56 C-49 60.74 -52.7 63.65 -58.99 64.32 C-65.74 64.55 -71.62 64.41 -77 60 C-83.14 53.31 -84.3 48.17 -84.21 39.17 C-83.86 33.98 -82.06 31.27 -78.81 27.38 C-72.67 22.19 -67.78 20.54 -59.71 20.76 C-57 21 -57 21 -54.1 21.81 C-50.91 22.37 -50.91 22.37 -48.76 20.09 C-48.05 19.17 -47.35 18.24 -46.62 17.29 C-32.16 -0.19 -22.94 -3.18 0 0 Z M-69.94 35.06 C-72.43 38.62 -73.08 40.66 -73 45 C-71.4 48.14 -69.95 50.25 -67.19 52.44 C-63.78 53.31 -61.39 52.89 -58 52 C-55.14 49.99 -53.36 48.56 -52.55 45.07 C-52.34 41.22 -52.77 39.37 -54.88 36.06 C-57.8 33.23 -58.64 33.04 -62.81 32.62 C-66.23 32.68 -66.97 32.98 -69.94 35.06 Z " fill="#3AB3C0" transform="translate(84,192)"/>
<path d="M0 0 C5.54 3.33 10.44 8.07 12.5 14.31 C13.48 22.06 13.17 28.88 8.5 35.31 C4.12 40.66 -0.73 43.75 -7.55 44.77 C-15.59 45.18 -21.41 43.7 -27.5 38.31 C-32.74 31.89 -34 25.94 -33.89 17.74 C-33.14 11.16 -30.2 6.74 -25.33 2.36 C-17.79 -2.91 -8.46 -3.88 0 0 Z " fill="#487688" transform="translate(138.5,106.6875)"/>
<path d="M0 0 C4.58 2.9 8.13 7.29 10.11 12.34 C10.98 19.72 11.24 26.62 6.6 32.73 C1.52 38.24 -3.04 40.96 -10.64 41.71 C-16.57 41.52 -22.28 39.56 -26.82 35.69 C-30.11 32.07 -30.88 30.4 -31.89 25.34 C-37.17 25.34 -42.45 25.34 -47.89 25.34 C-47.89 21.38 -47.89 17.42 -47.89 13.34 C-42.61 13.34 -37.33 13.34 -31.89 13.34 C-31.56 11.69 -31.23 10.04 -30.89 8.34 C-27.76 2.79 -23.31 0.04 -17.4 -2 C-11.04 -3.67 -5.9 -2.86 0 0 Z " fill="#2EAACD" transform="translate(245.88671875,108.66015625)"/>
<path d="M0 0 C4.37 3.72 5.86 6.28 7 12 C12.28 12 17.56 12 23 12 C23 15.96 23 19.92 23 24 C17.72 24 12.44 24 7 24 C6.51 26.47 6.51 26.47 6 29 C2.87 34.55 -1.58 37.3 -7.49 39.34 C-13.84 41.01 -18.98 40.2 -24.89 37.34 C-29.47 34.44 -33.01 30.05 -35 25 C-35.86 17.62 -36.13 10.72 -31.49 4.61 C-22.44 -5.19 -11.54 -6.59 0 0 Z " fill="#FACF4B" transform="translate(35,110)"/>
<path d="M0 0 C0.66 0 1.32 0 2 0 C3.69 1.98 5.35 3.98 7 6 C7.66 6.33 8.32 6.66 9 7 C4.55 16.83 -4.67 26.52 -14 32 C-23.57 34.44 -33.3 33.28 -43 32 C-43 28.04 -43 24.08 -43 20 C-41.49 20.15 -39.98 20.3 -38.42 20.45 C-28.84 20.96 -20.84 21.21 -13.25 14.7 C-9.07 10.63 -5.24 6.28 -1.59 1.73 C-1.07 1.16 -0.54 0.59 0 0 Z " fill="#467487" transform="translate(215,32)"/>
<path d="M0 0 C24.22 -3.54 24.22 -3.54 32.63 2.23 C39.98 7.98 46.63 15.39 52 23 C52 23.66 52 24.32 52 25 C50.25 26.73 50.25 26.73 48 28.62 C46.89 29.57 46.89 29.57 45.75 30.54 C45.17 31.02 44.59 31.5 44 32 C40.45 29.11 37.25 26.4 34.48 22.74 C29.63 16.67 25.82 12.86 17.82 11.94 C11.86 11.58 5.96 11.7 0 12 C0 8.04 0 4.08 0 0 Z " fill="#467487" transform="translate(172,192)"/>
<path d="M0 0 C3.35 1.41 5.05 3.02 7.27 5.88 C15.57 15.95 15.57 15.95 27.46 20.34 C33.34 20.71 39.13 20.48 45 20 C45 23.96 45 27.92 45 32 C20.72 35.55 20.72 35.55 12.37 29.74 C4.97 23.85 -1.2 16.42 -7 9 C-6.58 8.52 -6.16 8.04 -5.72 7.54 C-5.17 6.91 -4.63 6.28 -4.06 5.62 C-3.52 5 -2.97 4.37 -2.41 3.73 C-0.93 2.04 -0.93 2.04 0 0 Z " fill="#467487" transform="translate(39,32)"/>
<path d="M0 0 C0 3.96 0 7.92 0 12 C-1.51 11.85 -3.02 11.7 -4.58 11.55 C-14.19 11.04 -22.17 10.83 -29.82 17.3 C-34.57 21.89 -38.91 26.82 -43 32 C-44.13 31.07 -45.25 30.13 -46.38 29.19 C-47 28.67 -47.63 28.14 -48.27 27.61 C-50 26 -50 26 -52 23 C-36.3 2.93 -26.03 -3.8 0 0 Z " fill="#467487" transform="translate(84,192)"/>
<path d="M0 0 C8.27 4.7 8.27 4.7 9.65 9.05 C10.18 13.21 10.27 15.44 8.44 19.31 C2.67 25.67 2.67 25.67 -2.18 26.27 C-5.73 26.15 -8.1 25.75 -10.88 23.43 C-14.18 19.64 -16.28 16.89 -15.94 11.75 C-15.39 7.24 -13.89 5.09 -10.57 2.09 C-7.19 -0.26 -3.98 -0.39 0 0 Z " fill="#FAFBFC" transform="translate(131,115)"/>
<path d="M0 0 C2.88 2.5 2.88 2.5 5 5 C5.33 5.33 5.66 5.66 6 6 C6.59 13.04 6.59 13.04 4.25 16.88 C0.7 20.23 0.7 20.23 -2 21 C-7.3 20.81 -10.2 19.69 -14 16 C-15.62 12.77 -15.59 9.49 -15 6 C-11.38 -0.53 -7.05 -1.7 0 0 Z " fill="#FEFDF9" transform="translate(26,118)"/>
<path d="M0 0 C2.71 1.82 4.54 3.07 6 6 C6.58 13.05 6.58 13.05 4.25 16.88 C0.81 20.12 -0.63 21.02 -5.44 20.94 C-9.63 19.83 -11.23 18.26 -14 15 C-14.33 14.67 -14.66 14.34 -15 14 C-15.59 6.96 -15.59 6.96 -13.25 3.12 C-8.75 -1.13 -6.14 -1.51 0 0 Z " fill="#F8FCFD" transform="translate(239,118)"/>
<path d="M0 0 C5.28 0 10.56 0 16 0 C16 3.96 16 7.92 16 12 C10.72 12 5.44 12 0 12 C0 8.04 0 4.08 0 0 Z " fill="#457487" transform="translate(198,122)"/>
<path d="M0 0 C5.28 0 10.56 0 16 0 C16 3.96 16 7.92 16 12 C10.72 12 5.44 12 0 12 C0 8.04 0 4.08 0 0 Z " fill="#467486" transform="translate(42,122)"/>
</svg>
