<?xml version="1.0" encoding="UTF-8"?>
<!-- Generator: visioncortex VTracer 0.6.4 -->
<svg version="1.1" xmlns="http://www.w3.org/2000/svg" width="256" height="256">
<path d="M0 0 C8.58 0 17.16 0 26 0 C26.33 3.63 26.66 7.26 27 11 C31.18 9.68 31.18 9.68 35.12 7.81 C37 7 37 7 38.76 7.1 C42.13 8.45 44.29 10.98 46.75 13.56 C47.26 14.08 47.76 14.6 48.29 15.14 C49.53 16.42 50.77 17.71 52 19 C49.52 25.43 49.52 25.43 47 32 C50.96 32.33 54.92 32.66 59 33 C59 41.25 59 49.5 59 58 C55.37 58.33 51.74 58.66 48 59 C48.7 63.83 48.7 63.83 50.69 67.06 C52 70 52 70 51.31 71.99 C49.9 74.16 48.41 75.49 46.43 77.14 C42.86 80.64 42.17 83.1 42.05 88.02 C42.07 88.91 42.08 89.79 42.09 90.7 C42.08 91.64 42.07 92.59 42.06 93.57 C42.03 96.68 42.05 99.79 42.07 102.91 C42.07 105.08 42.06 107.26 42.05 109.43 C42.04 113.98 42.05 118.52 42.09 123.07 C42.13 128.89 42.1 134.71 42.06 140.54 C42.04 145.02 42.05 149.51 42.06 153.99 C42.07 156.14 42.06 158.28 42.05 160.43 C42.03 163.43 42.06 166.43 42.09 169.43 C42.08 170.32 42.07 171.2 42.05 172.11 C42.14 175.68 42.2 178.05 44.55 180.84 C46.39 182.46 46.39 182.46 48.31 183.79 C50.54 185.39 51.85 187.26 53.31 189.56 C53.78 190.29 54.25 191.01 54.74 191.75 C56.97 195.72 58 198.39 58 203 C58.66 203.04 59.32 203.08 60 203.12 C65.66 204.78 70.44 208.43 73.5 213.5 C76.26 219.92 76.15 227.84 74.3 234.5 C71.4 240.94 66.38 244.71 59.92 247.39 C56.74 248.4 53.7 248.33 50.38 248.3 C48.93 248.31 47.49 248.32 46.04 248.33 C43.8 248.32 41.56 248.31 39.32 248.28 C27.97 247.98 27.97 247.98 18.46 253.61 C15.49 256.43 12.16 256.13 8.3 256.15 C7.11 256.15 5.93 256.16 4.7 256.17 C3.4 256.17 2.1 256.17 0.75 256.18 C-0.64 256.18 -2.02 256.19 -3.41 256.2 C-7.96 256.22 -12.52 256.23 -17.07 256.24 C-18.64 256.24 -20.21 256.25 -21.78 256.25 C-29.16 256.27 -36.53 256.28 -43.91 256.29 C-52.42 256.3 -60.92 256.33 -69.43 256.37 C-76.01 256.4 -82.59 256.41 -89.17 256.42 C-93.09 256.42 -97.02 256.43 -100.95 256.45 C-104.65 256.48 -108.34 256.48 -112.04 256.47 C-114.04 256.47 -116.03 256.49 -118.03 256.51 C-125.17 256.47 -129.96 255.93 -136 252 C-136.51 251.47 -137.02 250.94 -137.55 250.39 C-139.72 248.31 -141.5 248.63 -144.45 248.63 C-146.06 248.6 -146.06 248.6 -147.71 248.58 C-149.96 248.57 -152.22 248.56 -154.47 248.56 C-162.16 248.43 -169.04 247.69 -174.88 242.25 C-180.77 235.88 -181.46 229.97 -181.3 221.45 C-180.8 215.74 -179.28 212.17 -175.13 208.22 C-171.63 205.42 -168.61 203.29 -164 203 C-163.92 202.18 -163.84 201.35 -163.75 200.5 C-162.17 193.13 -158.34 187.27 -153 182 C-152.32 181.6 -151.64 181.21 -150.93 180.8 C-148.73 179.11 -148.73 179.11 -148.51 176.18 C-148.51 175.02 -148.51 173.87 -148.51 172.67 C-148.51 171.71 -148.51 171.71 -148.5 170.72 C-148.49 168.56 -148.51 166.4 -148.53 164.23 C-148.53 162.69 -148.53 161.14 -148.53 159.59 C-148.52 156.25 -148.53 152.91 -148.54 149.57 C-148.57 144.3 -148.56 139.02 -148.55 133.74 C-148.53 120.63 -148.55 107.52 -148.57 94.41 C-148.59 84.23 -148.6 74.04 -148.58 63.86 C-148.56 58.61 -148.58 53.36 -148.61 48.12 C-148.62 44.85 -148.61 41.59 -148.6 38.32 C-148.6 36.81 -148.6 35.29 -148.62 33.78 C-148.64 31.71 -148.63 29.65 -148.61 27.58 C-148.61 26.42 -148.62 25.27 -148.62 24.07 C-147.8 19.99 -146.28 18.51 -143 16 C-140.52 15.39 -140.52 15.39 -137.86 15.41 C-136.85 15.41 -135.83 15.41 -134.79 15.4 C-133.69 15.42 -132.59 15.45 -131.45 15.47 C-129.7 15.47 -129.7 15.47 -127.91 15.47 C-125.38 15.48 -122.84 15.5 -120.31 15.53 C-116.29 15.57 -112.28 15.59 -108.26 15.59 C-97.57 15.59 -86.88 15.65 -76.18 15.74 C-69.16 15.8 -62.13 15.83 -55.1 15.82 C-51.77 15.82 -48.44 15.83 -45.1 15.88 C-41.38 15.93 -37.66 15.93 -33.94 15.92 C-32.84 15.95 -31.75 15.98 -30.62 16 C-24.69 15.96 -24.69 15.96 -19.66 13.12 C-17.55 10.94 -17.55 10.94 -15.82 8.62 C-15.22 8.09 -14.62 7.55 -14 7 C-9.84 7.26 -6.67 9.12 -3 11 C-2.34 11 -1.68 11 -1 11 C-0.67 7.37 -0.34 3.74 0 0 Z M4 37 C1.69 40.39 1 42.38 1 46.5 C2.25 50.88 3.84 52.76 7 56 C10.2 57.6 13.52 57.36 17 57 C20.47 55.61 21.74 54.37 23.88 51.31 C25.27 47.2 25.43 44.12 24 40 C21.65 37.06 21.65 37.06 19 35 C18.67 34.67 18.34 34.34 18 34 C12.72 33.43 8.14 33.34 4 37 Z " fill="#040404" transform="translate(181,0)"/>
<path d="M0 0 C2.03 1.61 3.56 3.01 5.12 5.09 C8.81 7.95 12.47 7.4 17 7.38 C27.13 7.61 35.65 9.12 43.44 16.12 C47.86 21.09 51.24 26.89 51.81 33.56 C51.71 34.35 51.61 35.13 51.5 35.94 C52.2 36.04 52.9 36.14 53.62 36.25 C59.94 37.76 64.01 40.4 67.5 45.94 C68.56 51.53 67.7 56.19 64.5 60.94 C60.11 65 56.95 66.06 51.05 66.08 C49.92 66.09 48.79 66.1 47.63 66.11 C46.38 66.11 45.14 66.11 43.86 66.11 C42.55 66.12 41.25 66.13 39.9 66.13 C35.56 66.16 31.22 66.17 26.89 66.18 C25.39 66.18 23.9 66.18 22.4 66.19 C15.39 66.21 8.37 66.22 1.35 66.23 C-6.75 66.24 -14.85 66.27 -22.95 66.31 C-29.21 66.34 -35.48 66.35 -41.74 66.35 C-45.48 66.36 -49.22 66.37 -52.96 66.39 C-57.13 66.42 -61.3 66.41 -65.47 66.41 C-66.71 66.42 -67.95 66.43 -69.22 66.45 C-75.62 66.41 -79.66 66.29 -84.5 61.94 C-85.28 61.26 -86.07 60.58 -86.88 59.88 C-89.39 55.33 -89.24 51.01 -88.5 45.94 C-86.34 41.45 -84.04 38.99 -79.5 36.94 C-77.5 36.58 -75.51 36.24 -73.5 35.94 C-73.29 34.92 -73.08 33.91 -72.87 32.86 C-69.91 19.29 -64.82 7.58 -53.19 -0.71 C-36.61 -11.33 -16.14 -11.6 0 0 Z " fill="#E0E3E7" transform="translate(134.5,182.0625)"/>
<path d="M0 0 C35.64 0 71.28 0 108 0 C108 2.97 108 5.94 108 9 C111.63 9 115.26 9 119 9 C120 13 120 13 119.06 15.25 C118.71 15.83 118.36 16.41 118 17 C116.75 17.01 115.49 17.03 114.2 17.04 C112.55 17.09 110.9 17.14 109.25 17.19 C108.01 17.2 108.01 17.2 106.75 17.21 C105.95 17.23 105.15 17.26 104.33 17.29 C103.59 17.31 102.86 17.32 102.11 17.34 C98.84 18.36 97.77 20.14 96 23 C95.37 26.08 95.37 26.08 95.39 29.39 C95.36 30.6 95.33 31.8 95.29 33.04 C95.28 34.28 95.26 35.53 95.25 36.81 C95.21 38.71 95.21 38.71 95.16 40.65 C95.09 43.76 95.04 46.88 95 50 C93.29 50.04 93.29 50.04 91.55 50.08 C70.81 50.75 52.54 56.93 37.85 72.24 C27.69 84.13 23.04 97.49 21.88 112.94 C21.79 114 21.7 115.07 21.61 116.17 C21.4 118.78 21.2 121.39 21 124 C18.44 124.34 15.88 124.67 13.31 125 C12.59 125.1 11.87 125.19 11.13 125.29 C10.42 125.38 9.72 125.47 8.99 125.56 C8.34 125.65 7.7 125.73 7.04 125.82 C4.7 126.03 2.35 126 0 126 C0 84.42 0 42.84 0 0 Z " fill="#E8C9AE" transform="translate(41,49)"/>
<path d="M0 0 C2.64 0 5.28 0 8 0 C8.18 0.71 8.36 1.42 8.55 2.15 C8.8 3.07 9.05 3.99 9.31 4.94 C9.56 5.85 9.8 6.77 10.05 7.71 C10.36 8.47 10.68 9.22 11 10 C16.09 11.7 21.73 11.53 26.94 10.31 C27.62 10.21 28.3 10.11 29 10 C30.81 11.44 30.81 11.44 32 13 C31.67 13.85 31.34 14.69 31 15.56 C29.65 20.2 29.7 24.07 30.44 28.81 C32.38 31.53 33.43 31.59 36.62 32.31 C38.79 32.65 38.79 32.65 41 33 C41 35.97 41 38.94 41 42 C39.93 42.25 38.86 42.49 37.75 42.75 C33.88 44.04 32.22 44.62 30 48 C29.49 53.26 30.02 57.05 32 62 C30.81 63.56 30.81 63.56 29 65 C26.33 64.74 24.4 64.2 22 63 C18.75 62.71 16.4 62.86 13.31 63.94 C9.89 66.99 9.12 70.65 8 75 C5.36 75 2.72 75 0 75 C-0.16 74.39 -0.32 73.77 -0.48 73.14 C-1.93 67.97 -1.93 67.97 -5.31 63.94 C-8.45 62.84 -10.7 62.65 -14 63 C-15.05 63.53 -15.05 63.53 -16.12 64.06 C-18 65 -18 65 -20.12 64.88 C-22 64 -22 64 -23.38 62.19 C-24.2 59.3 -23.32 58.65 -22 56 C-21.32 50.09 -21.32 50.09 -24.12 45.06 C-27.23 42.84 -29.23 42.26 -33 42 C-33 39.03 -33 36.06 -33 33 C-32.37 32.83 -31.75 32.66 -31.1 32.48 C-30.28 32.24 -29.47 32 -28.62 31.75 C-27.81 31.52 -27 31.29 -26.16 31.05 C-23.89 30.17 -23.89 30.17 -22.73 28.14 C-21.21 23.67 -21.54 19.38 -23 15 C-23.33 14.34 -23.66 13.68 -24 13 C-22.81 11.44 -22.81 11.44 -21 10 C-18.94 10.31 -18.94 10.31 -16 11 C-9.46 11.66 -9.46 11.66 -3.5 9.44 C-1.63 6.4 -0.8 3.46 0 0 Z M-5 29 C-7.31 32.39 -8 34.38 -8 38.5 C-6.75 42.88 -5.16 44.76 -2 48 C1.2 49.6 4.52 49.36 8 49 C11.47 47.61 12.74 46.37 14.88 43.31 C16.27 39.2 16.43 36.12 15 32 C12.65 29.06 12.65 29.06 10 27 C9.67 26.67 9.34 26.34 9 26 C3.72 25.43 -0.86 25.34 -5 29 Z " fill="#F4D16C" transform="translate(190,8)"/>
<path d="M0 0 C11.63 -0.52 20.76 -0.37 30.31 7.12 C34.87 11.43 38.44 16.89 39.3 23.2 C39.31 25.13 39.31 25.13 39 28 C39.58 28.09 40.16 28.17 40.76 28.26 C46.59 29.31 49.89 30.69 54 35 C56.44 38.83 56.22 42.42 55.61 46.78 C54.45 51 51.91 53.75 48.24 56.15 C45.24 57.29 42.69 57.22 39.48 57.2 C37.61 57.19 37.61 57.19 35.7 57.18 C33.74 57.15 33.74 57.15 31.75 57.12 C30.43 57.12 29.12 57.11 27.76 57.1 C24.51 57.07 21.25 57.04 18 57 C17.95 56.11 17.91 55.23 17.86 54.32 C17.75 52.57 17.75 52.57 17.64 50.79 C17.57 49.63 17.51 48.48 17.44 47.29 C16.65 41.35 13.81 37.71 9.56 33.69 C7.03 31.88 7.03 31.88 3.94 30.88 C0.01 28.37 -0.68 25.69 -2.14 21.38 C-2.97 18.79 -2.97 18.79 -5 16 C-4.76 10.04 -2.57 5.27 0 0 Z " fill="#C9CED6" transform="translate(192,182)"/>
<path d="M0 0 C14.46 -0.96 14.46 -0.96 18.84 1.78 C20.77 3.76 22.45 5.71 24 8 C24.85 7.69 25.69 7.38 26.56 7.06 C30.06 5.98 33.36 5.36 37 5 C38 6 38 6 38.1 8.5 C38.07 11.34 38.03 14.17 38 17 C43.28 17 48.56 17 54 17 C54 36.14 54 55.28 54 75 C52.02 75 50.04 75 48 75 C47.67 74.11 47.67 74.11 47.34 73.2 C40.42 55.12 30.24 40.43 12.19 32.12 C10.46 31.4 8.73 30.7 7 30 C4.69 29.01 2.38 28.02 0 27 C0 18.09 0 9.18 0 0 Z " fill="#F97F6B" transform="translate(144,74)"/>
<path d="M0 0 C0.67 -0.01 1.33 -0.02 2.02 -0.03 C4.21 -0.05 6.41 -0.04 8.6 -0.03 C10.13 -0.04 11.66 -0.04 13.19 -0.05 C16.39 -0.06 19.59 -0.06 22.8 -0.04 C26.9 -0.03 31 -0.05 35.1 -0.08 C38.26 -0.11 41.41 -0.1 44.57 -0.1 C46.08 -0.1 47.59 -0.1 49.11 -0.12 C51.22 -0.13 53.34 -0.12 55.45 -0.1 C57.26 -0.1 57.26 -0.1 59.1 -0.09 C63.22 0.72 64.71 2.28 67.29 5.53 C67.89 8.69 67.89 8.69 67.79 12.03 C67.78 13.14 67.77 14.24 67.76 15.38 C67.25 18.83 66.37 20.75 64.29 23.53 C60.73 25.9 59.19 25.79 54.97 25.81 C53.01 25.82 53.01 25.82 51.02 25.84 C49.59 25.84 48.16 25.84 46.74 25.83 C45.27 25.84 43.81 25.84 42.35 25.85 C39.28 25.85 36.21 25.85 33.14 25.85 C29.21 25.84 25.29 25.86 21.36 25.88 C18.34 25.9 15.32 25.9 12.29 25.9 C10.85 25.9 9.4 25.9 7.95 25.91 C5.92 25.92 3.9 25.92 1.87 25.91 C0.72 25.91 -0.43 25.91 -1.62 25.91 C-5.06 25.49 -6.95 24.59 -9.71 22.53 C-11.27 19.4 -10.98 16.09 -11.02 12.66 C-11.05 11.94 -11.08 11.22 -11.11 10.47 C-11.15 7.17 -11.08 5.04 -9.1 2.33 C-5.93 -0.05 -3.95 0.02 0 0 Z " fill="#090605" transform="translate(60.708740234375,57.466552734375)"/>
<path d="M0 0 C1.24 0.02 1.24 0.02 2.51 0.04 C4.53 0.08 6.54 0.13 8.56 0.19 C9.47 2.65 9.82 4.46 8.93 6.97 C7.92 9.01 6.86 11.01 5.75 13 C3.48 17.15 1.52 20.88 0.57 25.54 C-0.44 29.19 -0.44 29.19 -2.39 30.82 C-3.15 31.12 -3.91 31.43 -4.69 31.75 C-10.27 34.42 -13.89 37.93 -16.56 43.54 C-17.51 46.42 -17.84 48.98 -18.06 52 C-18.14 52.98 -18.21 53.95 -18.29 54.96 C-18.34 55.69 -18.39 56.43 -18.44 57.19 C-21.62 57.36 -24.81 57.47 -28 57.56 C-28.9 57.61 -29.79 57.66 -30.71 57.71 C-35.63 57.82 -38.66 57.54 -42.5 54.32 C-46.18 50.73 -47.25 47.86 -47.81 42.75 C-47.25 37.42 -44.85 34.63 -41.19 30.88 C-37.51 28.62 -34.72 28.48 -30.44 28.19 C-30.54 27.24 -30.64 26.29 -30.75 25.31 C-30.7 18.93 -27.54 13.52 -23.35 8.88 C-15.93 1.97 -9.97 -0.31 0 0 Z " fill="#C9CED6" transform="translate(55.4375,181.8125)"/>
<path d="M0 0 C38.94 0 77.88 0 118 0 C120 4 120 4 119 8 C115.37 8 111.74 8 108 8 C108 10.64 108 13.28 108 16 C88.86 16 69.72 16 50 16 C50 13.36 50 10.72 50 8 C47.03 8 44.06 8 41 8 C41 10.64 41 13.28 41 16 C38.36 16 35.72 16 33 16 C33 13.36 33 10.72 33 8 C30.36 8 27.72 8 25 8 C25 10.64 25 13.28 25 16 C22.36 16 19.72 16 17 16 C17 13.36 17 10.72 17 8 C14.03 8 11.06 8 8 8 C8 10.64 8 13.28 8 16 C5.36 16 2.72 16 0 16 C0 10.72 0 5.44 0 0 Z " fill="#B2DB7E" transform="translate(41,25)"/>
<path d="M0 0 C15.18 0 30.36 0 46 0 C48.25 7.89 48.25 7.89 48.27 11.34 C48.27 12.47 48.27 12.47 48.27 13.62 C48.27 14.39 48.26 15.15 48.25 15.94 C48.26 17.08 48.26 17.08 48.27 18.24 C48.26 23.47 47.44 27.98 46 33 C41.53 33.38 41.53 33.38 39.18 31.68 C38.61 31.08 38.03 30.49 37.44 29.88 C26.89 20.1 12.99 16.9 -1 16 C-1.03 13.9 -1.05 11.79 -1.06 9.69 C-1.07 8.52 -1.09 7.34 -1.1 6.14 C-1 3 -1 3 0 0 Z " fill="#67D2F0" transform="translate(105,149)"/>
<path d="M0 0 C6.72 0.72 6.72 0.72 8 2 C8.1 4.92 8.13 7.82 8.11 10.74 C8.11 11.66 8.11 12.58 8.11 13.52 C8.11 16.57 8.11 19.61 8.1 22.66 C8.1 24.77 8.09 26.87 8.09 28.98 C8.09 34.53 8.08 40.09 8.07 45.64 C8.06 51.31 8.05 56.97 8.05 62.63 C8.04 73.76 8.02 84.88 8 96 C7.39 95.93 6.78 95.86 6.15 95.79 C4.95 95.66 4.95 95.66 3.72 95.52 C2.53 95.39 2.53 95.39 1.31 95.25 C-1.64 94.93 -4.6 94.68 -7.56 94.44 C-9.36 94.29 -11.15 94.15 -13 94 C-13 88.72 -13 83.44 -13 78 C-10.83 77.6 -10.83 77.6 -8.62 77.19 C-6.19 76.79 -6.19 76.79 -4 76 C-1.54 72.32 -1.73 70.46 -1.7 66.07 C-1.69 65.36 -1.68 64.66 -1.67 63.94 C-1.65 61.62 -1.63 59.31 -1.62 56.99 C-1.6 55.38 -1.59 53.78 -1.57 52.17 C-1.52 47.94 -1.49 43.71 -1.46 39.48 C-1.41 32.7 -1.34 25.92 -1.27 19.14 C-1.25 16.76 -1.23 14.39 -1.21 12.01 C-1.2 10.57 -1.19 9.12 -1.17 7.68 C-1.16 5.77 -1.16 5.77 -1.14 3.83 C-1 1 -1 1 0 0 Z " fill="#E1C3A9" transform="translate(207,79)"/>
<path d="M0 0 C0.78 -0.01 1.56 -0.02 2.37 -0.03 C8.08 0.04 11.51 1.27 16.19 4.56 C19.79 8.85 20.8 12.86 20.5 18.43 C19.56 24.8 16.08 27.92 11.19 31.56 C7.93 33.19 4.39 32.79 0.81 32.81 C0.04 32.83 -0.72 32.85 -1.52 32.88 C-4.96 32.9 -7.21 32.88 -10.29 31.23 C-13.99 27.18 -13.07 21.34 -13.12 16.19 C-13.15 15.24 -13.18 14.3 -13.21 13.32 C-13.25 9.15 -13.13 6.24 -11.34 2.43 C-7.63 -0.31 -4.51 -0.14 0 0 Z " fill="#050505" transform="translate(82.8125,206.4375)"/>
<path d="M0 0 C5.26 3.06 8.94 7.1 11.94 12.39 C13.58 18.81 13.24 24.4 9.96 30.22 C6.69 34.77 2.15 38.76 -3.37 40.08 C-11.01 40.87 -16.29 39.27 -22.62 34.77 C-27.37 30.13 -28.82 25.78 -28.93 19.2 C-28.8 13.49 -28.1 9.93 -24.19 5.7 C-23.59 5.16 -22.99 4.63 -22.37 4.08 C-21.79 3.55 -21.21 3.03 -20.61 2.49 C-14.62 -2.04 -6.99 -2.72 0 0 Z M-17.37 11.08 C-19.68 14.47 -20.37 16.46 -20.37 20.58 C-19.12 24.95 -17.53 26.84 -14.37 30.08 C-11.17 31.68 -7.85 31.44 -4.37 31.08 C-0.9 29.69 0.37 28.45 2.5 25.39 C3.9 21.28 4.05 18.2 2.63 14.08 C0.27 11.14 0.27 11.14 -2.37 9.08 C-2.7 8.75 -3.03 8.42 -3.37 8.08 C-8.65 7.51 -13.23 7.42 -17.37 11.08 Z " fill="#040402" transform="translate(202.37109375,25.921875)"/>
<path d="M0 0 C7.92 0 15.84 0 24 0 C27.18 14.33 26.65 26.42 21 40 C16.4 39.03 12.26 37.02 7.97 35.16 C4.73 33.8 4.73 33.8 0 33 C0 22.11 0 11.22 0 0 Z " fill="#67D3F0" transform="translate(160,149)"/>
<path d="M0 0 C2.97 0 5.94 0 9 0 C9.09 4.23 9.14 8.46 9.19 12.69 C9.21 13.89 9.24 15.08 9.26 16.32 C9.27 17.48 9.28 18.63 9.29 19.82 C9.31 20.89 9.32 21.95 9.34 23.05 C8.84 27.38 7.04 29.96 4 33 C1.98 33.37 1.98 33.37 -0.38 33.44 C-1.53 33.5 -1.53 33.5 -2.71 33.56 C-6.23 32.7 -7.09 31.05 -9 28 C-10.27 24.95 -11.27 21.84 -12.25 18.69 C-13.16 15.82 -14.06 12.95 -15 10 C-15.33 17.59 -15.66 25.18 -16 33 C-18.64 33 -21.28 33 -24 33 C-24.12 28.42 -24.19 23.83 -24.25 19.25 C-24.28 17.95 -24.32 16.65 -24.35 15.3 C-24.36 14.05 -24.38 12.8 -24.39 11.52 C-24.41 10.36 -24.43 9.21 -24.45 8.02 C-23.9 4.37 -22.89 3.23 -20 1 C-17.78 0.47 -17.78 0.47 -15.5 0.5 C-14.75 0.49 -13.99 0.48 -13.22 0.47 C-10 1.24 -9.01 2.34 -7 5 C-5.69 8.02 -4.71 11.11 -3.75 14.25 C-2.84 17.14 -1.94 20.03 -1 23 C-0.67 15.41 -0.34 7.82 0 0 Z " fill="#0B0B0B" transform="translate(136,206)"/>
<path d="M0 0 C4.32 1.56 6.66 4.86 9.38 8.38 C9.86 8.99 10.34 9.61 10.84 10.25 C21 23.62 21 23.62 21 30 C7.8 30 -5.4 30 -19 30 C-16.77 23.31 -15.59 19.8 -11.75 14.44 C-11.36 13.89 -10.97 13.34 -10.56 12.77 C-7.31 8.27 -3.8 4.05 0 0 Z " fill="#67D2F0" transform="translate(127,110)"/>
<path d="M0 0 C0.81 0 1.61 0.01 2.44 0.01 C3.7 0.02 3.7 0.02 4.99 0.04 C6.27 0.04 6.27 0.04 7.57 0.05 C9.67 0.06 11.77 0.08 13.87 0.1 C13.87 3.07 13.87 6.04 13.87 9.1 C5.95 9.59 5.95 9.59 -2.13 10.1 C2.43 12.65 2.43 12.65 6.99 15.18 C11.76 17.88 11.76 17.88 12.87 20.1 C13.56 27.11 13.56 27.11 10.96 30.84 C6.62 34.01 3.27 33.66 -1.95 33.41 C-2.83 33.39 -3.71 33.37 -4.62 33.34 C-6.79 33.28 -8.96 33.19 -11.13 33.1 C-11.13 30.46 -11.13 27.82 -11.13 25.1 C-5.85 25.1 -0.57 25.1 4.87 25.1 C4.87 24.44 4.87 23.78 4.87 23.1 C4.04 22.87 3.22 22.64 2.37 22.41 C-3.06 20.38 -7.88 17.98 -11.13 13.1 C-11.57 9.72 -11.57 9.72 -11.13 6.1 C-7.67 1.9 -5.38 -0.04 0 0 Z " fill="#0A0A0A" transform="translate(164.1328125,205.90234375)"/>
<path d="M0 0 C7.92 0 15.84 0 24 0 C23.67 5.94 23.34 11.88 23 18 C21.21 18.7 19.41 19.4 17.56 20.12 C12.52 22.21 8.22 24.63 3.84 27.86 C2 29 2 29 -1 29 C-2.86 18.99 -2.21 9.94 0 0 Z " fill="#66D1EE" transform="translate(72,149)"/>
<path d="M0 0 C-0.34 0.42 -0.68 0.83 -1.03 1.26 C-8.2 10.37 -13.31 20.44 -18 31 C-25.59 31 -33.18 31 -41 31 C-33.65 16.3 -22.89 7.03 -7.73 0.81 C-4.99 -0 -2.83 -0.16 0 0 Z " fill="#66D1EF" transform="translate(117,109)"/>
<path d="M0 0 C14.75 1.01 25.68 9.98 35.21 20.53 C37.55 23.76 39.22 27.43 41 31 C33.41 31 25.82 31 18 31 C16.21 27.32 16.21 27.32 14.38 23.56 C11.32 17.38 8.02 11.61 4 6 C3.2 4.82 2.41 3.63 1.62 2.44 C0.82 1.23 0.82 1.23 0 0 Z " fill="#67D2EF" transform="translate(139,109)"/>
<path d="M0 0 C20.46 0 40.92 0 62 0 C62 2.64 62 5.28 62 8 C41.54 8 21.08 8 0 8 C0 5.36 0 2.72 0 0 Z " fill="#FB806C" transform="translate(58,66)"/>
<path d="M0 0 C13.53 0 27.06 0 41 0 C41 2.64 41 5.28 41 8 C27.47 8 13.94 8 0 8 C0 5.36 0 2.72 0 0 Z " fill="#000000" transform="translate(50,91)"/>
<path d="M0 0 C11.07 -0.61 11.07 -0.61 15.25 2.12 C17.34 5.55 17.82 7.07 17 11 C15.25 13.88 15.25 13.88 12 16 C7.9 16.42 4.14 16.23 0 16 C0 10.72 0 5.44 0 0 Z " fill="#DBDEE2" transform="translate(78,215)"/>
<path d="M0 0 C8.58 0 17.16 0 26 0 C26 2.97 26 5.94 26 9 C17.42 9 8.84 9 0 9 C0 6.03 0 3.06 0 0 Z " fill="#1E1916" transform="translate(49,107)"/>
<path d="M0 0 C5.28 0 10.56 0 16 0 C16 2.64 16 5.28 16 8 C10.72 8 5.44 8 0 8 C0 5.36 0 2.72 0 0 Z " fill="#000000" transform="translate(50,124)"/>
</svg>
