<?xml version="1.0" encoding="UTF-8"?>
<!-- Generator: visioncortex VTracer 0.6.4 -->
<svg version="1.1" xmlns="http://www.w3.org/2000/svg" width="256" height="256">
<path d="M0 0 C1.5 -0 3 -0.01 4.49 -0.02 C8.53 -0.03 12.58 -0.03 16.62 -0.03 C20 -0.03 23.39 -0.03 26.78 -0.04 C34.78 -0.05 42.77 -0.05 50.77 -0.04 C58.99 -0.03 67.21 -0.05 75.43 -0.07 C82.52 -0.09 89.6 -0.09 96.69 -0.09 C100.91 -0.09 105.13 -0.09 109.35 -0.1 C113.32 -0.12 117.29 -0.11 121.26 -0.1 C122.71 -0.1 124.16 -0.1 125.6 -0.11 C144.06 -0.21 160.43 4.1 173.93 17.27 C184.53 29.37 190.24 42.1 190.22 58.16 C190.23 59.11 190.24 60.07 190.25 61.05 C190.26 64.19 190.27 67.33 190.27 70.47 C190.28 72.67 190.28 74.87 190.29 77.07 C190.3 81.68 190.31 86.28 190.3 90.89 C190.3 96.76 190.33 102.63 190.37 108.51 C190.39 113.05 190.39 117.59 190.39 122.13 C190.39 124.3 190.4 126.46 190.42 128.63 C190.55 149.21 187.35 165.25 172.66 180.75 C167.52 185.51 161.84 189.7 154.93 191.27 C155.2 192.44 155.2 192.44 155.47 193.63 C156.27 197.17 157.07 200.72 157.87 204.27 C158.15 205.5 158.43 206.72 158.71 207.97 C163.02 227.16 163.02 227.16 159.93 234.27 C156.42 238.67 152.48 241.67 146.83 242.63 C137.52 243.22 131.08 236.8 124.31 231.15 C122.9 229.99 121.49 228.83 120.08 227.67 C119.39 227.1 118.69 226.53 117.97 225.93 C114.99 223.5 111.97 221.14 108.93 218.77 C102.95 214.1 97.05 209.33 91.17 204.51 C90.53 203.99 89.89 203.47 89.24 202.93 C88.67 202.46 88.1 202 87.52 201.52 C81.21 196.57 73.37 197.56 65.64 197.41 C63.73 197.36 61.83 197.29 59.92 197.18 C48.76 196.59 40.74 196.99 32.01 204.49 C30.18 206.17 28.4 207.88 26.65 209.63 C23.92 212.25 20.94 214.5 17.93 216.77 C13.48 220.24 9.08 223.78 4.72 227.37 C-13.93 242.68 -13.93 242.68 -22.62 242.55 C-28.11 241.93 -31.88 239.61 -35.5 235.52 C-39.77 226.65 -37.16 218.13 -35.19 208.96 C-34.9 207.58 -34.62 206.2 -34.34 204.81 C-32.29 194.95 -32.29 194.95 -31.07 191.27 C-31.62 191.17 -32.17 191.07 -32.73 190.97 C-45.28 187.23 -54.03 176.24 -60.07 165.27 C-64.39 156.14 -66.21 148.75 -66.24 138.73 C-66.25 137.78 -66.26 136.82 -66.26 135.84 C-66.28 132.68 -66.29 129.53 -66.3 126.37 C-66.31 125.29 -66.31 124.2 -66.32 123.09 C-66.34 117.35 -66.35 111.62 -66.36 105.89 C-66.37 99.99 -66.41 94.09 -66.45 88.2 C-66.47 83.64 -66.48 79.09 -66.48 74.53 C-66.49 72.36 -66.5 70.19 -66.52 68.02 C-66.67 49.07 -64.33 32.55 -50.91 17.99 C-35.65 3.77 -20.28 -0.04 0 0 Z " fill="#FE9C00" transform="translate(66.065673828125,6.725341796875)"/>
<path d="M0 0 C1.5 -0 3 -0.01 4.49 -0.02 C8.53 -0.03 12.58 -0.03 16.62 -0.03 C20 -0.03 23.39 -0.03 26.78 -0.04 C34.78 -0.05 42.77 -0.05 50.77 -0.04 C58.99 -0.03 67.21 -0.05 75.43 -0.07 C82.52 -0.09 89.6 -0.09 96.69 -0.09 C100.91 -0.09 105.13 -0.09 109.35 -0.1 C113.32 -0.12 117.29 -0.11 121.26 -0.1 C122.71 -0.1 124.16 -0.1 125.6 -0.11 C144.06 -0.21 160.43 4.1 173.93 17.27 C184.53 29.37 190.24 42.1 190.22 58.16 C190.23 59.11 190.24 60.07 190.25 61.05 C190.26 64.19 190.27 67.33 190.27 70.47 C190.28 72.67 190.28 74.87 190.29 77.07 C190.3 81.68 190.31 86.28 190.3 90.89 C190.3 96.76 190.33 102.63 190.37 108.51 C190.39 113.05 190.39 117.59 190.39 122.13 C190.39 124.3 190.4 126.46 190.42 128.63 C190.55 149.21 187.35 165.25 172.66 180.75 C167.52 185.51 161.84 189.7 154.93 191.27 C155.2 192.44 155.2 192.44 155.47 193.63 C156.27 197.17 157.07 200.72 157.87 204.27 C158.15 205.5 158.43 206.72 158.71 207.97 C163.02 227.16 163.02 227.16 159.93 234.27 C156.42 238.67 152.48 241.67 146.83 242.63 C137.52 243.22 131.08 236.8 124.31 231.15 C122.9 229.99 121.49 228.83 120.08 227.67 C119.39 227.1 118.69 226.53 117.97 225.93 C114.99 223.5 111.97 221.14 108.93 218.77 C102.95 214.1 97.05 209.33 91.17 204.51 C90.53 203.99 89.89 203.47 89.24 202.93 C88.67 202.46 88.1 202 87.52 201.52 C81.21 196.57 73.37 197.56 65.64 197.41 C63.73 197.36 61.83 197.29 59.92 197.18 C48.76 196.59 40.74 196.99 32.01 204.49 C30.18 206.17 28.4 207.88 26.65 209.63 C23.92 212.25 20.94 214.5 17.93 216.77 C13.48 220.24 9.08 223.78 4.72 227.37 C-13.93 242.68 -13.93 242.68 -22.62 242.55 C-28.11 241.93 -31.88 239.61 -35.5 235.52 C-39.77 226.65 -37.16 218.13 -35.19 208.96 C-34.9 207.58 -34.62 206.2 -34.34 204.81 C-32.29 194.95 -32.29 194.95 -31.07 191.27 C-31.62 191.17 -32.17 191.07 -32.73 190.97 C-45.28 187.23 -54.03 176.24 -60.07 165.27 C-64.39 156.14 -66.21 148.75 -66.24 138.73 C-66.25 137.78 -66.26 136.82 -66.26 135.84 C-66.28 132.68 -66.29 129.53 -66.3 126.37 C-66.31 125.29 -66.31 124.2 -66.32 123.09 C-66.34 117.35 -66.35 111.62 -66.36 105.89 C-66.37 99.99 -66.41 94.09 -66.45 88.2 C-66.47 83.64 -66.48 79.09 -66.48 74.53 C-66.49 72.36 -66.5 70.19 -66.52 68.02 C-66.67 49.07 -64.33 32.55 -50.91 17.99 C-35.65 3.77 -20.28 -0.04 0 0 Z M-46.32 24.1 C-49.37 27.9 -51.76 32 -54.07 36.27 C-54.64 37.29 -55.22 38.3 -55.82 39.34 C-59.71 48.48 -59.38 57.92 -59.37 67.67 C-59.37 69.26 -59.37 70.85 -59.38 72.44 C-59.39 75.77 -59.39 79.1 -59.38 82.43 C-59.38 86.66 -59.39 90.89 -59.42 95.12 C-59.43 98.41 -59.43 101.69 -59.43 104.98 C-59.43 106.54 -59.43 108.1 -59.44 109.66 C-59.55 127.62 -56.36 142.49 -43.69 155.92 C-33.54 165.05 -21.4 170.38 -7.77 170.42 C-5.86 170.42 -5.86 170.42 -3.92 170.43 C-2.52 170.43 -1.12 170.43 0.28 170.44 C1.76 170.44 3.24 170.45 4.72 170.45 C8.74 170.46 12.76 170.47 16.77 170.47 C19.29 170.48 21.8 170.48 24.31 170.49 C32.19 170.5 40.06 170.51 47.93 170.51 C57 170.52 66.07 170.54 75.14 170.56 C82.16 170.59 89.19 170.6 96.21 170.6 C100.4 170.6 104.59 170.6 108.77 170.62 C112.72 170.64 116.66 170.64 120.61 170.63 C122.05 170.63 123.49 170.64 124.93 170.65 C142.17 170.76 156.74 166.34 169.39 154.17 C181.21 140.72 183.41 125.67 183.33 108.3 C183.33 106.69 183.34 105.07 183.34 103.46 C183.35 100.09 183.34 96.72 183.33 93.36 C183.31 89.07 183.32 84.79 183.34 80.5 C183.35 77.17 183.34 73.84 183.34 70.51 C183.33 68.93 183.34 67.35 183.34 65.78 C183.4 48.34 179.7 34.53 167.41 21.56 C157.14 12.08 144.45 7.18 130.53 7.13 C128.63 7.12 128.63 7.12 126.69 7.11 C125.29 7.1 123.9 7.1 122.51 7.1 C121.03 7.09 119.55 7.08 118.07 7.08 C113.23 7.06 108.4 7.05 103.56 7.04 C101.88 7.03 100.21 7.03 98.54 7.02 C90.68 7 82.82 6.99 74.96 6.98 C65.92 6.97 56.88 6.95 47.83 6.91 C40.82 6.88 33.81 6.86 26.81 6.86 C22.63 6.86 18.45 6.85 14.28 6.82 C10.34 6.8 6.4 6.79 2.47 6.8 C1.03 6.8 -0.4 6.8 -1.84 6.78 C-18.76 6.63 -34.5 11.45 -46.32 24.1 Z " fill="#F87517" transform="translate(66.065673828125,6.725341796875)"/>
<path d="M0 0 C1.5 -0 3 -0.01 4.49 -0.02 C8.53 -0.03 12.58 -0.03 16.62 -0.03 C20 -0.03 23.39 -0.03 26.78 -0.04 C34.78 -0.05 42.77 -0.05 50.77 -0.04 C58.99 -0.03 67.21 -0.05 75.43 -0.07 C82.52 -0.09 89.6 -0.09 96.69 -0.09 C100.91 -0.09 105.13 -0.09 109.35 -0.1 C113.32 -0.12 117.29 -0.11 121.26 -0.1 C122.71 -0.1 124.16 -0.1 125.6 -0.11 C144.06 -0.21 160.43 4.1 173.93 17.27 C184.53 29.37 190.24 42.1 190.22 58.16 C190.23 59.11 190.24 60.07 190.25 61.05 C190.26 64.19 190.27 67.33 190.27 70.47 C190.28 72.67 190.28 74.87 190.29 77.07 C190.3 81.68 190.31 86.28 190.3 90.89 C190.3 96.76 190.33 102.63 190.37 108.51 C190.39 113.05 190.39 117.59 190.39 122.13 C190.39 124.3 190.4 126.46 190.42 128.63 C190.55 149.21 187.35 165.25 172.66 180.75 C167.52 185.51 161.84 189.7 154.93 191.27 C155.2 192.44 155.2 192.44 155.47 193.63 C156.27 197.17 157.07 200.72 157.87 204.27 C158.15 205.5 158.43 206.72 158.71 207.97 C163.02 227.16 163.02 227.16 159.93 234.27 C156.42 238.67 152.48 241.67 146.83 242.63 C137.52 243.22 131.08 236.8 124.31 231.15 C122.9 229.99 121.49 228.83 120.08 227.67 C119.39 227.1 118.69 226.53 117.97 225.93 C114.99 223.5 111.97 221.14 108.93 218.77 C102.95 214.1 97.05 209.33 91.17 204.51 C90.53 203.99 89.89 203.47 89.24 202.93 C88.67 202.46 88.1 202 87.52 201.52 C81.21 196.57 73.37 197.56 65.64 197.41 C63.73 197.36 61.83 197.29 59.92 197.18 C48.76 196.59 40.74 196.99 32.01 204.49 C30.18 206.17 28.4 207.88 26.65 209.63 C23.92 212.25 20.94 214.5 17.93 216.77 C13.48 220.24 9.08 223.78 4.72 227.37 C-13.93 242.68 -13.93 242.68 -22.62 242.55 C-28.11 241.93 -31.88 239.61 -35.5 235.52 C-39.77 226.65 -37.16 218.13 -35.19 208.96 C-34.9 207.58 -34.62 206.2 -34.34 204.81 C-32.29 194.95 -32.29 194.95 -31.07 191.27 C-31.62 191.17 -32.17 191.07 -32.73 190.97 C-45.28 187.23 -54.03 176.24 -60.07 165.27 C-64.39 156.14 -66.21 148.75 -66.24 138.73 C-66.25 137.78 -66.26 136.82 -66.26 135.84 C-66.28 132.68 -66.29 129.53 -66.3 126.37 C-66.31 125.29 -66.31 124.2 -66.32 123.09 C-66.34 117.35 -66.35 111.62 -66.36 105.89 C-66.37 99.99 -66.41 94.09 -66.45 88.2 C-66.47 83.64 -66.48 79.09 -66.48 74.53 C-66.49 72.36 -66.5 70.19 -66.52 68.02 C-66.67 49.07 -64.33 32.55 -50.91 17.99 C-35.65 3.77 -20.28 -0.04 0 0 Z M-46.32 24.1 C-49.37 27.9 -51.76 32 -54.07 36.27 C-54.64 37.29 -55.22 38.3 -55.82 39.34 C-58.79 46.34 -59.36 53.39 -59.36 60.92 C-59.36 61.84 -59.37 62.76 -59.38 63.7 C-59.4 66.71 -59.4 69.72 -59.4 72.73 C-59.41 74.84 -59.41 76.95 -59.42 79.06 C-59.43 83.48 -59.44 87.89 -59.44 92.31 C-59.44 97.94 -59.46 103.57 -59.5 109.2 C-59.52 113.56 -59.52 117.92 -59.52 122.28 C-59.53 124.35 -59.53 126.43 -59.55 128.5 C-59.67 146.27 -57.18 160.94 -44.82 174.62 C-38.77 180.33 -31.78 184.28 -24.07 187.27 C-24.99 194.08 -26.14 200.77 -27.64 207.48 C-31.12 220.19 -31.12 220.19 -28.19 232.34 C-25.65 234.66 -24.68 235.22 -21.24 235.53 C-17.53 235.23 -16.18 234.41 -13.25 232.15 C-12.3 231.42 -11.36 230.69 -10.38 229.94 C-4.98 225.62 0.35 221.21 5.66 216.79 C9.9 213.28 14.18 209.82 18.58 206.5 C21.59 204.2 24.41 201.87 27.08 199.18 C35.95 190.63 43.57 188.54 55.77 188.54 C56.77 188.56 57.76 188.58 58.79 188.6 C61.81 188.65 64.8 188.56 67.82 188.46 C81.15 188.34 88.77 191.44 98.34 200.73 C99.23 201.62 99.23 201.62 100.14 202.54 C102.91 205.22 105.93 207.52 109 209.84 C113.42 213.27 117.77 216.76 122.1 220.31 C129.73 226.57 129.73 226.57 137.56 232.59 C138.63 233.39 138.63 233.39 139.72 234.2 C142.63 235.61 144.74 235.59 147.93 235.27 C150.63 233.47 152.48 232.19 153.93 229.27 C154.86 220.77 152.77 212.59 150.93 204.34 C150.37 201.75 149.81 199.15 149.25 196.56 C148.87 194.86 148.87 194.86 148.49 193.12 C147.93 190.27 147.93 190.27 147.93 187.27 C148.85 186.85 149.77 186.43 150.72 185.99 C165.9 178.81 174.67 169.79 180.99 153.94 C182.28 150.29 183.06 147.1 183.07 143.22 C183.08 142.43 183.09 141.63 183.09 140.81 C183.09 139.94 183.09 139.07 183.1 138.18 C183.1 137.26 183.11 136.34 183.11 135.4 C183.13 132.35 183.13 129.31 183.14 126.27 C183.14 124.15 183.15 122.03 183.15 119.91 C183.17 115.46 183.17 111.01 183.17 106.56 C183.18 100.88 183.2 95.2 183.23 89.52 C183.25 85.14 183.26 80.76 183.26 76.37 C183.26 74.28 183.27 72.19 183.28 70.09 C183.39 50.93 181.15 36.05 167.41 21.56 C157.14 12.08 144.45 7.18 130.53 7.13 C128.63 7.12 128.63 7.12 126.69 7.11 C125.29 7.1 123.9 7.1 122.51 7.1 C121.03 7.09 119.55 7.08 118.07 7.08 C113.23 7.06 108.4 7.05 103.56 7.04 C101.88 7.03 100.21 7.03 98.54 7.02 C90.68 7 82.82 6.99 74.96 6.98 C65.92 6.97 56.88 6.95 47.83 6.91 C40.82 6.88 33.81 6.86 26.81 6.86 C22.63 6.86 18.45 6.85 14.28 6.82 C10.34 6.8 6.4 6.79 2.47 6.8 C1.03 6.8 -0.4 6.8 -1.84 6.78 C-18.76 6.63 -34.5 11.45 -46.32 24.1 Z " fill="#030100" transform="translate(66.065673828125,6.725341796875)"/>
<path d="M0 0 C4.2 3.03 6.97 7.04 9.27 11.64 C10.15 20.29 9.58 27.53 4.27 34.64 C-1.94 40.52 -7.96 41.04 -16.2 40.98 C-22.43 40.37 -25.8 37.62 -30.04 33.26 C-34.24 26.74 -35.79 21.38 -34.73 13.64 C-32.57 6.08 -26.91 1.16 -20.36 -2.8 C-12.81 -4.42 -6.8 -3.74 0 0 Z " fill="#090702" transform="translate(188.73046875,83.36328125)"/>
<path d="M0 0 C5.56 3.05 8.98 6.85 12.19 12.25 C13.94 19.78 13.19 25.88 9.45 32.67 C6.21 37.17 2.05 40.19 -3.19 41.94 C-11.07 42.74 -17.95 43.01 -24.34 37.89 C-29.5 32.44 -31.47 26.82 -31.88 19.38 C-31.59 12.87 -29.77 8.56 -25.19 3.94 C-17.35 -2.2 -9.3 -4.28 0 0 Z " fill="#080602" transform="translate(89.1875,82.0625)"/>
<path d="M0 0 C4.59 3.42 8.76 8.04 10.89 13.41 C11.67 19.92 11.49 26.75 7.89 32.41 C3.29 37.44 -1.26 40.94 -8.16 41.78 C-16.65 41.95 -21.51 40.81 -27.64 34.95 C-32.75 29.35 -33.65 23.48 -33.49 16.15 C-32.56 9.36 -28.01 4.7 -22.79 0.59 C-15.99 -4.22 -7.17 -4.07 0 0 Z " fill="#080603" transform="translate(139.11328125,82.59375)"/>
<path d="M0 0 C3.88 2.59 6.7 5.65 8.81 9.88 C9.38 14.53 9.27 17.97 7.12 22.19 C3.1 26.86 -0.15 29.52 -6.38 30.25 C-11.36 29.76 -14.46 28.2 -18.19 24.88 C-21.27 21 -22.52 17.26 -22.31 12.31 C-21.48 7.38 -18.96 4.07 -15.19 0.88 C-10.22 -2.1 -5.31 -1.87 0 0 Z " fill="#DFE4CE" transform="translate(86.1875,88.125)"/>
<path d="M0 0 C3.31 1.69 3.31 1.69 6 4 C6.78 4.66 7.57 5.32 8.38 6 C10.99 10.84 10.7 15.63 10 21 C7.87 25.97 4.9 28.18 0.08 30.3 C-3.17 31.39 -5.62 31.5 -9 31 C-14.28 28.21 -18.09 24.73 -20 19 C-20.44 13.71 -20.27 10.05 -17.32 5.54 C-12.75 0.2 -6.8 -1.23 0 0 Z " fill="#DFE5CE" transform="translate(181,87)"/>
<path d="M0 0 C4.78 2.11 7.67 4.41 9.85 9.3 C10.74 14.9 10.45 20.04 7.25 24.83 C3.64 28.64 -0.62 30.09 -5.71 30.8 C-11.64 29.94 -14.9 27.9 -18.59 23.18 C-20.81 18.71 -20.94 14.18 -20.15 9.3 C-16.11 0.92 -8.96 -2.9 0 0 Z " fill="#DFE5CE" transform="translate(133.1484375,87.6953125)"/>
</svg>
