<?xml version="1.0" encoding="UTF-8"?>
<!-- Generator: visioncortex VTracer 0.6.4 -->
<svg version="1.1" xmlns="http://www.w3.org/2000/svg" width="256" height="256">
<path d="M0 0 C0.94 -0 1.88 -0.01 2.84 -0.01 C6 -0.02 9.16 -0.02 12.32 -0.02 C14.57 -0.03 16.83 -0.03 19.09 -0.04 C25.24 -0.05 31.38 -0.06 37.52 -0.06 C41.36 -0.06 45.2 -0.07 49.03 -0.07 C59.65 -0.08 70.27 -0.09 80.89 -0.1 C81.57 -0.1 82.25 -0.1 82.95 -0.1 C83.63 -0.1 84.32 -0.1 85.02 -0.1 C86.4 -0.1 87.78 -0.1 89.16 -0.1 C89.84 -0.1 90.53 -0.1 91.23 -0.1 C102.33 -0.1 113.43 -0.12 124.53 -0.15 C135.93 -0.17 147.32 -0.18 158.72 -0.18 C165.11 -0.18 171.51 -0.19 177.91 -0.21 C183.93 -0.22 189.94 -0.23 195.96 -0.22 C198.17 -0.22 200.38 -0.22 202.59 -0.23 C205.6 -0.24 208.62 -0.24 211.63 -0.23 C212.95 -0.24 212.95 -0.24 214.29 -0.25 C220.02 -0.2 223.26 0.85 227.69 4.64 C230.89 8.48 230.09 13.49 230.08 18.2 C230.08 19.14 230.09 20.08 230.09 21.04 C230.1 24.2 230.1 27.36 230.1 30.51 C230.11 32.77 230.11 35.03 230.12 37.29 C230.13 43.43 230.14 49.58 230.14 55.72 C230.14 59.56 230.15 63.4 230.15 67.23 C230.16 77.85 230.18 88.47 230.18 99.09 C230.18 100.11 230.18 100.11 230.18 101.15 C230.18 101.83 230.18 102.51 230.18 103.22 C230.18 104.6 230.18 105.98 230.18 107.36 C230.18 108.39 230.18 108.39 230.18 109.43 C230.19 120.53 230.2 131.63 230.23 142.73 C230.25 154.13 230.26 165.52 230.26 176.91 C230.27 183.31 230.27 189.71 230.29 196.11 C230.31 202.12 230.31 208.14 230.3 214.16 C230.3 216.37 230.3 218.58 230.31 220.79 C230.32 223.8 230.32 226.81 230.31 229.83 C230.32 231.15 230.32 231.15 230.33 232.49 C230.29 238.22 229.24 241.46 225.44 245.89 C221.6 249.09 216.59 248.29 211.88 248.28 C210.94 248.28 210.01 248.29 209.04 248.29 C205.88 248.3 202.72 248.3 199.57 248.3 C197.31 248.31 195.05 248.31 192.79 248.32 C186.65 248.33 180.5 248.34 174.36 248.34 C170.52 248.34 166.69 248.35 162.85 248.35 C152.23 248.36 141.61 248.37 130.99 248.38 C130.31 248.38 129.63 248.38 128.93 248.38 C128.25 248.38 127.57 248.38 126.86 248.38 C125.48 248.38 124.1 248.38 122.72 248.38 C122.04 248.38 121.35 248.38 120.65 248.38 C109.55 248.39 98.45 248.4 87.35 248.43 C75.96 248.45 64.56 248.46 53.17 248.46 C46.77 248.46 40.37 248.47 33.97 248.49 C27.96 248.5 21.94 248.51 15.92 248.5 C13.71 248.5 11.5 248.5 9.29 248.51 C6.28 248.52 3.27 248.52 0.25 248.51 C-0.62 248.52 -1.5 248.52 -2.41 248.53 C-8.14 248.49 -11.38 247.44 -15.81 243.64 C-19.01 239.8 -18.2 234.79 -18.2 230.08 C-18.2 229.14 -18.21 228.21 -18.21 227.24 C-18.22 224.08 -18.22 220.92 -18.22 217.77 C-18.22 215.51 -18.23 213.25 -18.23 210.99 C-18.25 204.85 -18.25 198.7 -18.26 192.56 C-18.26 188.72 -18.27 184.88 -18.27 181.05 C-18.28 170.43 -18.29 159.81 -18.3 149.19 C-18.3 148.51 -18.3 147.83 -18.3 147.13 C-18.3 146.45 -18.3 145.77 -18.3 145.06 C-18.3 143.68 -18.3 142.3 -18.3 140.92 C-18.3 139.89 -18.3 139.89 -18.3 138.85 C-18.3 127.75 -18.32 116.65 -18.34 105.55 C-18.37 94.15 -18.38 82.76 -18.38 71.37 C-18.38 64.97 -18.39 58.57 -18.41 52.17 C-18.42 46.16 -18.43 40.14 -18.42 34.12 C-18.42 31.91 -18.42 29.7 -18.43 27.49 C-18.44 24.48 -18.44 21.47 -18.43 18.45 C-18.43 17.57 -18.44 16.7 -18.45 15.79 C-18.4 10.06 -17.35 6.82 -13.56 2.39 C-9.72 -0.81 -4.71 -0 0 0 Z " fill="#E4E5EA" transform="translate(22.058807373046875,3.85955810546875)"/>
<path d="M0 0 C0.94 -0 1.88 -0.01 2.84 -0.01 C6 -0.02 9.16 -0.02 12.32 -0.02 C14.57 -0.03 16.83 -0.03 19.09 -0.04 C25.24 -0.05 31.38 -0.06 37.52 -0.06 C41.36 -0.06 45.2 -0.07 49.03 -0.07 C59.65 -0.08 70.27 -0.09 80.89 -0.1 C81.57 -0.1 82.25 -0.1 82.95 -0.1 C83.63 -0.1 84.32 -0.1 85.02 -0.1 C86.4 -0.1 87.78 -0.1 89.16 -0.1 C89.84 -0.1 90.53 -0.1 91.23 -0.1 C102.33 -0.1 113.43 -0.12 124.53 -0.15 C135.93 -0.17 147.32 -0.18 158.72 -0.18 C165.11 -0.18 171.51 -0.19 177.91 -0.21 C183.93 -0.22 189.94 -0.23 195.96 -0.22 C198.17 -0.22 200.38 -0.22 202.59 -0.23 C205.6 -0.24 208.62 -0.24 211.63 -0.23 C212.95 -0.24 212.95 -0.24 214.29 -0.25 C220.02 -0.2 223.26 0.85 227.69 4.64 C233.81 11.98 229.94 29.29 229.94 34.14 C148.1 34.14 66.26 34.14 -18.06 34.14 C-18.06 7.64 -18.06 7.64 -13.56 2.39 C-9.72 -0.81 -4.71 -0 0 0 Z " fill="#1B2965" transform="translate(22.058807373046875,3.85955810546875)"/>
<path d="M0 0 C2 -0.04 4 -0.04 6 0 C7.9 1.9 7.13 5.27 7.13 7.79 C7.14 8.51 7.14 9.22 7.14 9.96 C7.15 12.39 7.15 14.81 7.15 17.24 C7.15 18.97 7.15 20.7 7.16 22.43 C7.16 27.15 7.17 31.86 7.17 36.58 C7.17 40.5 7.17 44.43 7.18 48.36 C7.18 57.63 7.19 66.89 7.19 76.16 C7.18 85.74 7.2 95.31 7.21 104.88 C7.22 113.09 7.23 121.3 7.23 129.5 C7.23 134.41 7.23 139.32 7.24 144.22 C7.25 148.84 7.25 153.45 7.24 158.07 C7.24 159.76 7.25 161.46 7.25 163.16 C7.26 165.47 7.25 167.78 7.25 170.08 C7.25 171.38 7.25 172.67 7.25 174.01 C7 177 7 177 5 179 C2.44 178.75 2.44 178.75 0 178 C-1.47 175.06 -1.13 172.45 -1.13 169.17 C-1.13 168.46 -1.13 167.75 -1.13 167.01 C-1.14 164.62 -1.13 162.23 -1.13 159.83 C-1.13 158.12 -1.13 156.41 -1.13 154.7 C-1.14 150.04 -1.14 145.38 -1.13 140.73 C-1.13 135.86 -1.13 131 -1.14 126.13 C-1.14 117.96 -1.14 109.79 -1.13 101.62 C-1.12 92.16 -1.13 82.7 -1.13 73.24 C-1.14 65.14 -1.14 57.03 -1.13 48.92 C-1.13 44.07 -1.13 39.22 -1.14 34.37 C-1.14 29.82 -1.14 25.26 -1.13 20.7 C-1.13 19.03 -1.13 17.35 -1.13 15.67 C-1.14 13.39 -1.13 11.11 -1.13 8.83 C-1.13 7.55 -1.13 6.28 -1.13 4.96 C-1 2 -1 2 0 0 Z " fill="#AAAFBC" transform="translate(48,56)"/>
<path d="M0 0 C1.11 -0 2.22 -0.01 3.36 -0.01 C4.59 -0.01 5.82 -0.01 7.08 -0.01 C9.01 -0.02 9.01 -0.02 10.97 -0.02 C14.51 -0.03 18.04 -0.03 21.57 -0.03 C24.52 -0.03 27.46 -0.04 30.41 -0.04 C37.35 -0.05 44.3 -0.05 51.24 -0.05 C58.42 -0.05 65.59 -0.06 72.77 -0.08 C78.92 -0.09 85.07 -0.1 91.22 -0.1 C94.9 -0.09 98.58 -0.1 102.26 -0.11 C106.35 -0.12 110.45 -0.12 114.55 -0.11 C115.78 -0.11 117 -0.12 118.27 -0.13 C119.94 -0.12 119.94 -0.12 121.64 -0.11 C122.61 -0.11 123.58 -0.11 124.58 -0.12 C126.88 0.13 126.88 0.13 128.88 2.13 C129.13 4.63 129.13 4.63 128.88 7.13 C126.3 9.72 125.28 9.39 121.69 9.39 C120.59 9.4 119.49 9.41 118.35 9.42 C117.14 9.41 115.93 9.41 114.68 9.41 C113.4 9.41 112.13 9.42 110.82 9.42 C107.32 9.44 103.82 9.44 100.33 9.44 C97.41 9.43 94.49 9.44 91.57 9.44 C84.69 9.46 77.81 9.46 70.93 9.45 C63.82 9.44 56.72 9.46 49.61 9.48 C43.52 9.49 37.42 9.5 31.33 9.5 C27.68 9.5 24.04 9.5 20.4 9.51 C16.34 9.53 12.28 9.52 8.22 9.51 C7.01 9.51 5.79 9.52 4.55 9.53 C3.44 9.52 2.34 9.52 1.2 9.51 C0.24 9.51 -0.72 9.51 -1.71 9.51 C-4.12 9.13 -4.12 9.13 -5.97 7.77 C-7.12 6.13 -7.12 6.13 -6.87 3.51 C-5.56 -0.63 -4.12 0.01 0 0 Z " fill="#0F184D" transform="translate(101.11802673339844,16.866287231445313)"/>
<path d="M0 0 C0.75 0 1.5 0 2.27 0 C3.06 -0 3.85 -0.01 4.66 -0.01 C7.27 -0.02 9.89 -0.02 12.5 -0.02 C14.31 -0.02 16.12 -0.03 17.93 -0.03 C21.73 -0.04 25.53 -0.04 29.33 -0.04 C34.21 -0.04 39.08 -0.05 43.96 -0.07 C47.7 -0.08 51.44 -0.08 55.18 -0.08 C56.98 -0.08 58.78 -0.09 60.58 -0.1 C63.09 -0.11 65.6 -0.1 68.11 -0.1 C68.86 -0.1 69.61 -0.11 70.38 -0.11 C75.53 -0.08 75.53 -0.08 77.76 2.15 C78.01 4.65 78.01 4.65 77.76 7.15 C75.28 9.62 73.85 9.39 70.47 9.43 C69.73 9.43 68.99 9.42 68.23 9.42 C67.46 9.43 66.68 9.43 65.88 9.44 C63.31 9.45 60.74 9.45 58.17 9.45 C56.38 9.45 54.6 9.46 52.82 9.46 C49.08 9.47 45.33 9.47 41.59 9.46 C36.79 9.46 31.99 9.47 27.19 9.5 C23.51 9.51 19.82 9.51 16.14 9.51 C14.37 9.51 12.6 9.51 10.83 9.52 C8.36 9.54 5.88 9.53 3.41 9.52 C2.68 9.53 1.94 9.53 1.19 9.54 C-1.76 9.51 -3.77 9.47 -6.24 7.79 C-7.24 6.15 -7.24 6.15 -6.99 3.52 C-5.68 -0.64 -4.12 0.03 0 0 Z " fill="#E5C62F" transform="translate(152.24256896972656,208.85336303710938)"/>
<path d="M0 0 C0.75 0 1.5 0 2.27 0 C3.06 -0 3.85 -0.01 4.66 -0.01 C7.27 -0.02 9.89 -0.02 12.5 -0.02 C14.31 -0.02 16.12 -0.03 17.93 -0.03 C21.73 -0.04 25.53 -0.04 29.33 -0.04 C34.21 -0.04 39.08 -0.05 43.96 -0.07 C47.7 -0.08 51.44 -0.08 55.18 -0.08 C56.98 -0.08 58.78 -0.09 60.58 -0.1 C63.09 -0.11 65.6 -0.1 68.11 -0.1 C68.86 -0.1 69.61 -0.11 70.38 -0.11 C75.53 -0.08 75.53 -0.08 77.76 2.15 C77.94 4.71 77.94 4.71 77.76 7.15 C76.02 8.88 73.77 8.28 71.45 8.29 C70.69 8.29 69.93 8.29 69.15 8.29 C67.95 8.3 67.95 8.3 66.73 8.3 C64.09 8.31 61.44 8.31 58.79 8.31 C56.96 8.32 55.13 8.32 53.3 8.32 C49.45 8.33 45.6 8.33 41.76 8.33 C36.82 8.33 31.88 8.35 26.94 8.36 C23.16 8.37 19.37 8.38 15.59 8.38 C13.77 8.38 11.95 8.38 10.12 8.39 C7.58 8.4 5.04 8.4 2.5 8.39 C1.36 8.4 1.36 8.4 0.2 8.41 C-5.01 8.37 -5.01 8.37 -7.24 6.15 C-6.54 0.36 -5.71 0.04 0 0 Z " fill="#E5C525" transform="translate(152.24256896972656,140.85336303710938)"/>
<path d="M0 0 C1.14 0 1.14 0 2.31 0.01 C3.11 0 3.9 0 4.73 0 C7.38 -0 10.03 -0 12.68 0 C14.52 0 16.35 0 18.19 -0 C22.04 -0 25.89 0 29.74 0.01 C34.68 0.01 39.63 0.01 44.58 0 C48.37 -0 52.16 -0 55.95 0 C57.77 0 59.6 0 61.42 -0 C63.97 -0 66.51 0 69.06 0.01 C69.82 0 70.58 0 71.37 0 C76.57 0.02 76.57 0.02 77.68 1.14 C77.87 3.57 77.87 3.57 77.68 6.14 C75.19 8.63 73.72 8.38 70.32 8.41 C69.2 8.4 69.2 8.4 68.05 8.39 C67.26 8.4 66.48 8.4 65.67 8.4 C63.06 8.41 60.45 8.41 57.84 8.4 C56.03 8.4 54.22 8.4 52.41 8.41 C48.62 8.41 44.83 8.41 41.03 8.4 C36.17 8.38 31.3 8.39 26.43 8.4 C22.69 8.41 18.96 8.41 15.22 8.4 C13.43 8.4 11.63 8.4 9.83 8.41 C7.33 8.41 4.82 8.41 2.31 8.39 C1.57 8.4 0.82 8.4 0.05 8.41 C-5.09 8.36 -5.09 8.36 -7.32 6.14 C-6.61 0.31 -5.75 0.02 0 0 Z " fill="#E5C525" transform="translate(152.317138671875,72.86447143554688)"/>
<path d="M0 0 C1.09 -0.01 2.19 -0.01 3.32 -0.02 C5.1 -0.01 5.1 -0.01 6.91 -0.01 C8.13 -0.01 9.34 -0.01 10.59 -0.01 C13.16 -0.01 15.73 -0.01 18.3 -0 C22.24 0.01 26.18 -0 30.13 -0.01 C32.62 -0.01 35.11 -0.01 37.6 -0.01 C38.79 -0.01 39.97 -0.01 41.19 -0.02 C42.84 -0.01 42.84 -0.01 44.51 0 C45.96 0 45.96 0 47.44 0 C49.76 0.26 49.76 0.26 51.76 2.26 C52.01 4.76 52.01 4.76 51.76 7.26 C49.16 9.85 48.12 9.51 44.51 9.52 C42.87 9.53 42.87 9.53 41.19 9.54 C40.01 9.53 38.82 9.53 37.6 9.52 C36.39 9.53 35.17 9.53 33.92 9.53 C31.35 9.53 28.79 9.53 26.22 9.52 C22.27 9.51 18.33 9.52 14.38 9.53 C11.89 9.53 9.4 9.53 6.91 9.52 C5.13 9.53 5.13 9.53 3.32 9.54 C2.22 9.53 1.13 9.52 0 9.52 C-0.97 9.52 -1.93 9.51 -2.93 9.51 C-5.24 9.26 -5.24 9.26 -7.24 7.26 C-7.49 4.76 -7.49 4.76 -7.24 2.26 C-4.65 -0.33 -3.61 0.01 0 0 Z " fill="#E5C62F" transform="translate(178.244140625,225.7412109375)"/>
<path d="M0 0 C1.09 -0.01 2.19 -0.01 3.32 -0.02 C5.1 -0.01 5.1 -0.01 6.91 -0.01 C8.13 -0.01 9.34 -0.01 10.59 -0.01 C13.16 -0.01 15.73 -0.01 18.3 -0 C22.24 0.01 26.18 -0 30.13 -0.01 C32.62 -0.01 35.11 -0.01 37.6 -0.01 C38.79 -0.01 39.97 -0.01 41.19 -0.02 C42.84 -0.01 42.84 -0.01 44.51 0 C45.96 0 45.96 0 47.44 0 C49.76 0.26 49.76 0.26 51.76 2.26 C51.94 4.82 51.94 4.82 51.76 7.26 C50.04 8.98 47.77 8.39 45.43 8.39 C44.29 8.39 43.15 8.39 41.98 8.4 C40.74 8.4 39.5 8.39 38.22 8.39 C36.96 8.39 35.7 8.39 34.4 8.39 C31.73 8.4 29.06 8.39 26.38 8.39 C22.95 8.38 19.52 8.39 16.08 8.39 C12.82 8.4 9.55 8.39 6.29 8.39 C5.05 8.39 3.81 8.4 2.53 8.4 C1.4 8.39 0.26 8.39 -0.91 8.39 C-1.92 8.39 -2.93 8.39 -3.97 8.39 C-6.24 8.26 -6.24 8.26 -7.24 7.26 C-7.43 4.82 -7.43 4.82 -7.24 2.26 C-4.65 -0.33 -3.61 0.01 0 0 Z " fill="#E5C525" transform="translate(178.244140625,157.7412109375)"/>
<path d="M0 0 C1.14 -0 2.28 -0.01 3.45 -0.01 C4.69 -0.01 5.93 -0.01 7.2 -0 C8.46 -0 9.72 -0.01 11.02 -0.01 C13.7 -0.01 16.37 -0.01 19.04 -0 C22.48 0 25.91 0 29.34 -0 C32.61 -0.01 35.87 -0.01 39.14 -0 C40.38 -0.01 41.62 -0.01 42.89 -0.01 C44.03 -0.01 45.17 -0 46.34 0 C47.35 0 48.35 0 49.39 0 C51.67 0.13 51.67 0.13 52.67 1.13 C52.86 3.57 52.86 3.57 52.67 6.13 C50.08 8.72 49.03 8.38 45.43 8.39 C43.78 8.4 43.78 8.4 42.11 8.41 C40.92 8.4 39.74 8.4 38.51 8.4 C37.3 8.4 36.09 8.4 34.84 8.4 C32.27 8.4 29.7 8.4 27.13 8.39 C23.19 8.38 19.24 8.39 15.3 8.4 C12.81 8.4 10.32 8.4 7.83 8.4 C6.05 8.4 6.05 8.4 4.23 8.41 C3.14 8.4 2.04 8.39 0.91 8.39 C-0.05 8.39 -1.02 8.39 -2.02 8.38 C-4.33 8.13 -4.33 8.13 -6.33 6.13 C-6.52 3.57 -6.52 3.57 -6.33 1.13 C-4.61 -0.59 -2.34 0 0 0 Z " fill="#E5C525" transform="translate(177.330078125,89.87060546875)"/>
<path d="M0 0 C1.34 -0.01 1.34 -0.01 2.7 -0.03 C3.66 -0.03 4.62 -0.03 5.61 -0.03 C6.59 -0.03 7.58 -0.03 8.6 -0.04 C10.69 -0.04 12.78 -0.05 14.86 -0.04 C18.06 -0.04 21.26 -0.06 24.46 -0.09 C26.49 -0.09 28.52 -0.09 30.54 -0.09 C31.5 -0.1 32.46 -0.11 33.45 -0.12 C34.34 -0.11 35.23 -0.1 36.15 -0.1 C36.94 -0.1 37.72 -0.1 38.53 -0.1 C41.11 0.37 42.03 1.18 43.58 3.27 C43.16 7.7 43.16 7.7 41.58 9.27 C40.11 9.38 38.65 9.41 37.18 9.42 C35.78 9.43 35.78 9.43 34.35 9.44 C33.33 9.44 32.32 9.44 31.27 9.44 C30.23 9.45 29.19 9.45 28.12 9.45 C25.93 9.46 23.73 9.46 21.53 9.46 C18.16 9.46 14.78 9.48 11.41 9.5 C9.28 9.5 7.15 9.5 5.02 9.51 C4 9.51 2.99 9.52 1.94 9.53 C1.01 9.52 0.07 9.52 -0.9 9.52 C-1.73 9.52 -2.55 9.52 -3.41 9.52 C-5.42 9.27 -5.42 9.27 -7.42 7.27 C-7.74 4.77 -7.74 4.77 -7.42 2.27 C-4.29 0.19 -3.56 0.02 0 0 Z " fill="#E5C62F" transform="translate(165.423828125,54.725341796875)"/>
<path d="M0 0 C1.4 -0.01 1.4 -0.01 2.83 -0.02 C3.85 -0.02 4.86 -0.02 5.91 -0.02 C6.95 -0.03 7.99 -0.03 9.05 -0.03 C11.25 -0.04 13.45 -0.04 15.65 -0.04 C19.02 -0.04 22.4 -0.06 25.77 -0.08 C27.9 -0.08 30.03 -0.08 32.16 -0.09 C33.18 -0.09 34.19 -0.1 35.24 -0.11 C36.17 -0.1 37.11 -0.1 38.08 -0.1 C38.91 -0.1 39.73 -0.1 40.59 -0.1 C42.6 0.15 42.6 0.15 44.6 2.15 C44.35 5.21 44.35 5.21 43.6 8.15 C41.28 9.31 39.89 9.28 37.29 9.31 C36.4 9.32 35.51 9.33 34.59 9.34 C33.15 9.34 33.15 9.34 31.67 9.35 C30.19 9.36 30.19 9.36 28.67 9.37 C26.58 9.38 24.49 9.38 22.39 9.39 C19.18 9.4 15.97 9.43 12.77 9.46 C10.73 9.46 8.7 9.47 6.67 9.47 C5.23 9.49 5.23 9.49 3.75 9.51 C2.86 9.51 1.96 9.5 1.04 9.5 C-0.14 9.51 -0.14 9.51 -1.34 9.51 C-3.93 9.05 -4.85 8.25 -6.4 6.15 C-5.89 0.84 -5.14 0.02 0 0 Z " fill="#E5C62F" transform="translate(164.396240234375,191.854736328125)"/>
<path d="M0 0 C1.4 -0.01 1.4 -0.01 2.83 -0.02 C3.85 -0.02 4.86 -0.02 5.91 -0.02 C6.95 -0.03 7.99 -0.03 9.05 -0.03 C11.25 -0.04 13.45 -0.04 15.65 -0.04 C19.02 -0.04 22.4 -0.06 25.77 -0.08 C27.9 -0.08 30.03 -0.08 32.16 -0.09 C33.18 -0.09 34.19 -0.1 35.24 -0.11 C36.17 -0.1 37.11 -0.1 38.08 -0.1 C38.91 -0.1 39.73 -0.1 40.59 -0.1 C42.6 0.15 42.6 0.15 44.6 2.15 C44.92 4.65 44.92 4.65 44.6 7.15 C41.47 9.23 40.74 9.4 37.18 9.42 C35.84 9.43 35.84 9.43 34.48 9.45 C33.52 9.45 32.56 9.45 31.57 9.45 C30.59 9.45 29.6 9.45 28.58 9.46 C26.49 9.46 24.4 9.47 22.32 9.46 C19.12 9.46 15.92 9.48 12.72 9.51 C10.69 9.51 8.66 9.51 6.64 9.51 C5.2 9.52 5.2 9.52 3.73 9.54 C2.84 9.53 1.95 9.52 1.03 9.52 C-0.15 9.52 -0.15 9.52 -1.35 9.52 C-3.93 9.05 -4.85 8.24 -6.4 6.15 C-5.89 0.84 -5.14 0.02 0 0 Z " fill="#EC5762" transform="translate(70.396240234375,191.854736328125)"/>
<path d="M0 0 C0.89 -0.01 1.78 -0.01 2.7 -0.02 C4.15 -0.01 4.15 -0.01 5.62 -0.01 C7.11 -0.01 7.11 -0.01 8.62 -0.01 C10.71 -0.01 12.81 -0.01 14.9 -0 C18.11 0.01 21.32 -0 24.53 -0.01 C26.56 -0.01 28.59 -0.01 30.62 -0.01 C32.07 -0.01 32.07 -0.01 33.54 -0.02 C34.43 -0.01 35.33 -0.01 36.25 0 C37.04 0 37.82 0 38.63 0 C40.69 0.26 40.69 0.26 43.69 2.26 C44 4.76 44 4.76 43.69 7.26 C41.23 9.72 40.56 9.51 37.18 9.52 C36.25 9.52 35.31 9.53 34.35 9.54 C33.34 9.53 32.33 9.53 31.28 9.52 C30.25 9.53 29.21 9.53 28.15 9.53 C25.95 9.53 23.76 9.53 21.57 9.52 C18.2 9.51 14.84 9.52 11.47 9.53 C9.35 9.53 7.22 9.53 5.1 9.52 C3.58 9.53 3.58 9.53 2.03 9.54 C1.1 9.53 0.16 9.52 -0.8 9.52 C-2.04 9.52 -2.04 9.52 -3.3 9.51 C-5.31 9.26 -5.31 9.26 -7.31 7.26 C-6.78 1.95 -5.36 0.01 0 0 Z " fill="#EC5762" transform="translate(71.310302734375,54.7412109375)"/>
<path d="M0 0 C1.4 -0.01 1.4 -0.01 2.83 -0.02 C3.85 -0.02 4.86 -0.02 5.91 -0.02 C6.95 -0.03 7.99 -0.03 9.05 -0.03 C11.25 -0.04 13.45 -0.04 15.65 -0.04 C19.02 -0.04 22.4 -0.06 25.77 -0.08 C27.9 -0.08 30.03 -0.08 32.16 -0.09 C33.18 -0.09 34.19 -0.1 35.24 -0.11 C36.17 -0.1 37.11 -0.1 38.08 -0.1 C38.91 -0.1 39.73 -0.1 40.59 -0.1 C42.6 0.15 42.6 0.15 44.6 2.15 C44.05 6.7 44.05 6.7 42.6 8.15 C41.14 8.25 39.67 8.28 38.21 8.29 C36.81 8.3 36.81 8.3 35.38 8.31 C34.36 8.31 33.34 8.31 32.3 8.31 C31.26 8.32 30.22 8.32 29.15 8.32 C26.95 8.33 24.76 8.33 22.56 8.33 C19.18 8.33 15.81 8.35 12.44 8.37 C10.31 8.37 8.18 8.37 6.05 8.38 C5.03 8.38 4.02 8.39 2.97 8.4 C2.03 8.39 1.1 8.39 0.13 8.39 C-0.7 8.39 -1.53 8.39 -2.38 8.39 C-4.4 8.15 -4.4 8.15 -6.4 6.15 C-5.75 0.86 -5.21 0.02 0 0 Z " fill="#E5C525" transform="translate(164.396240234375,123.854736328125)"/>
<path d="M0 0 C1.4 -0.01 1.4 -0.01 2.83 -0.02 C3.85 -0.02 4.86 -0.02 5.91 -0.02 C6.95 -0.03 7.99 -0.03 9.05 -0.03 C11.25 -0.04 13.45 -0.04 15.65 -0.04 C19.02 -0.04 22.4 -0.06 25.77 -0.08 C27.9 -0.08 30.03 -0.08 32.16 -0.09 C33.18 -0.09 34.19 -0.1 35.24 -0.11 C36.17 -0.1 37.11 -0.1 38.08 -0.1 C38.91 -0.1 39.73 -0.1 40.59 -0.1 C42.6 0.15 42.6 0.15 44.6 2.15 C44.05 6.7 44.05 6.7 42.6 8.15 C41.14 8.25 39.67 8.28 38.21 8.29 C36.81 8.3 36.81 8.3 35.38 8.31 C34.36 8.31 33.34 8.31 32.3 8.31 C31.26 8.32 30.22 8.32 29.15 8.32 C26.95 8.33 24.76 8.33 22.56 8.33 C19.18 8.33 15.81 8.35 12.44 8.37 C10.31 8.37 8.18 8.37 6.05 8.38 C5.03 8.38 4.02 8.39 2.97 8.4 C2.03 8.39 1.1 8.39 0.13 8.39 C-0.7 8.39 -1.53 8.39 -2.38 8.39 C-4.4 8.15 -4.4 8.15 -6.4 6.15 C-5.75 0.86 -5.21 0.02 0 0 Z " fill="#EC4F5B" transform="translate(70.396240234375,123.854736328125)"/>
<path d="M0 0 C0.73 0 1.45 0.01 2.2 0.01 C2.95 0.01 3.7 0.01 4.47 0.01 C6.05 0.01 7.63 0.01 9.21 0.02 C11.63 0.03 14.05 0.02 16.48 0 C18.01 0.01 19.54 0.01 21.08 0.01 C21.81 0.01 22.53 0 23.28 0 C28.41 0.05 28.41 0.05 30.64 2.28 C30.89 4.78 30.89 4.78 30.64 7.28 C28.15 9.77 26.68 9.52 23.28 9.56 C22.55 9.55 21.83 9.55 21.08 9.54 C19.96 9.55 19.96 9.55 18.81 9.55 C17.23 9.55 15.65 9.55 14.07 9.54 C11.65 9.53 9.23 9.54 6.8 9.55 C5.27 9.55 3.74 9.55 2.2 9.54 C1.48 9.55 0.75 9.55 0 9.56 C-5.13 9.51 -5.13 9.51 -7.36 7.28 C-7.61 4.78 -7.61 4.78 -7.36 2.28 C-4.87 -0.21 -3.4 0.03 0 0 Z " fill="#EC5763" transform="translate(84.359130859375,225.72210693359375)"/>
<path d="M0 0 C0.73 0 1.45 0.01 2.2 0.01 C2.95 0.01 3.7 0.01 4.47 0.01 C6.05 0.01 7.63 0.01 9.21 0.02 C11.63 0.03 14.05 0.02 16.48 0 C18.01 0.01 19.54 0.01 21.08 0.01 C21.81 0.01 22.53 0 23.28 0 C28.41 0.05 28.41 0.05 30.64 2.28 C30.95 4.78 30.95 4.78 30.64 7.28 C27.03 9.69 24.38 9.57 20.2 9.54 C19.11 9.55 19.11 9.55 18.01 9.55 C16.48 9.55 14.95 9.55 13.43 9.54 C11.08 9.53 8.74 9.54 6.4 9.55 C4.92 9.55 3.43 9.55 1.95 9.54 C0.9 9.55 0.9 9.55 -0.18 9.56 C-5.13 9.51 -5.13 9.51 -7.36 7.28 C-7.61 4.78 -7.61 4.78 -7.36 2.28 C-4.87 -0.21 -3.4 0.03 0 0 Z " fill="#3DCD93" transform="translate(131.359130859375,225.72210693359375)"/>
<path d="M0 0 C1.52 0 3.04 0.01 4.55 0.02 C5.35 0.02 6.15 0.02 6.97 0.02 C9.53 0.03 12.09 0.04 14.64 0.05 C16.37 0.06 18.1 0.06 19.83 0.06 C24.08 0.08 28.33 0.09 32.58 0.11 C33.21 2.99 33.21 2.99 33.58 6.11 C31.09 8.6 29.62 8.36 26.22 8.39 C25.5 8.39 24.77 8.38 24.02 8.38 C22.9 8.38 22.9 8.38 21.76 8.38 C20.18 8.39 18.59 8.38 17.01 8.37 C14.59 8.36 12.17 8.37 9.75 8.39 C8.21 8.39 6.68 8.38 5.14 8.38 C4.42 8.38 3.69 8.39 2.94 8.39 C-2.19 8.34 -2.19 8.34 -4.42 6.11 C-4.61 3.55 -4.61 3.55 -4.42 1.11 C-3.42 0.11 -3.42 0.11 0 0 Z " fill="#EC505C" transform="translate(81.418212890625,89.886474609375)"/>
<path d="M0 0 C0.73 0 1.45 0.01 2.2 0.01 C2.95 0.01 3.7 0.01 4.47 0.01 C6.05 0.01 7.63 0.01 9.21 0.02 C11.63 0.03 14.05 0.02 16.48 0 C18.01 0.01 19.54 0.01 21.08 0.01 C21.81 0.01 22.53 0 23.28 0 C28.41 0.05 28.41 0.05 30.64 2.28 C30.09 6.83 30.09 6.83 28.64 8.28 C26.06 8.38 23.5 8.42 20.92 8.41 C19.76 8.41 19.76 8.41 18.58 8.41 C16.94 8.41 15.3 8.41 13.67 8.41 C11.15 8.4 8.64 8.41 6.12 8.41 C4.53 8.41 2.95 8.41 1.36 8.41 C0.6 8.41 -0.15 8.41 -0.94 8.42 C-6.24 8.39 -6.24 8.39 -7.36 7.28 C-7.55 4.84 -7.55 4.84 -7.36 2.28 C-4.87 -0.21 -3.4 0.03 0 0 Z " fill="#34CC8E" transform="translate(131.359130859375,157.72210693359375)"/>
<path d="M0 0 C0.77 -0 1.54 -0.01 2.34 -0.01 C3.97 -0.02 5.6 -0.02 7.24 -0.02 C9.74 -0.02 12.24 -0.04 14.75 -0.06 C16.33 -0.06 17.92 -0.06 19.5 -0.06 C20.25 -0.07 21 -0.08 21.78 -0.08 C27.09 -0.06 27.09 -0.06 29.32 2.17 C28.76 6.72 28.76 6.72 27.32 8.17 C24.82 8.28 22.35 8.33 19.85 8.34 C18.73 8.34 18.73 8.34 17.58 8.35 C16 8.35 14.41 8.35 12.82 8.35 C10.39 8.36 7.96 8.37 5.53 8.39 C3.99 8.4 2.45 8.4 0.91 8.4 C-0.18 8.41 -0.18 8.41 -1.3 8.42 C-6.45 8.4 -6.45 8.4 -8.68 6.17 C-8.87 3.61 -8.87 3.61 -8.68 1.17 C-6.69 -0.83 -2.73 0 0 0 Z " fill="#34CC8E" transform="translate(132.68359375,89.83203125)"/>
<path d="M0 0 C0.73 0 1.45 0.01 2.2 0.01 C2.95 0.01 3.7 0.01 4.47 0.01 C6.05 0.01 7.63 0.01 9.21 0.02 C11.63 0.03 14.05 0.02 16.48 0 C18.01 0.01 19.54 0.01 21.08 0.01 C21.81 0.01 22.53 0 23.28 0 C28.41 0.05 28.41 0.05 30.64 2.28 C30.09 6.83 30.09 6.83 28.64 8.28 C26.05 8.37 23.48 8.39 20.89 8.38 C20.11 8.37 19.34 8.37 18.54 8.37 C16.05 8.37 13.56 8.35 11.08 8.34 C9.4 8.34 7.72 8.33 6.03 8.33 C1.9 8.32 -2.23 8.3 -6.36 8.28 C-6.98 5.4 -6.98 5.4 -7.36 2.28 C-4.87 -0.21 -3.4 0.03 0 0 Z " fill="#EC4F5B" transform="translate(84.359130859375,157.72210693359375)"/>
<path d="M0 0 C0.93 -0 1.86 -0.01 2.82 -0.01 C3.8 -0 4.78 0.01 5.78 0.02 C6.76 0.01 7.73 0 8.74 -0.01 C9.67 -0.01 10.6 -0 11.56 0 C12.42 0 13.28 0 14.16 0.01 C16.28 0.27 16.28 0.27 18.28 2.27 C18.53 4.77 18.53 4.77 18.28 7.27 C15.84 9.71 15.17 9.52 11.82 9.53 C10.93 9.53 10.05 9.54 9.14 9.54 C8.22 9.53 7.3 9.52 6.34 9.52 C5.42 9.52 4.5 9.53 3.56 9.54 C2.67 9.54 1.79 9.53 0.88 9.53 C0.07 9.53 -0.74 9.53 -1.57 9.52 C-3.72 9.27 -3.72 9.27 -6.72 7.27 C-7.03 4.77 -7.03 4.77 -6.72 2.27 C-4.23 -0.22 -3.43 0.01 0 0 Z " fill="#EC5763" transform="translate(83.71875,208.734375)"/>
<path d="M0 0 C0.98 -0.01 1.96 -0.02 2.97 -0.04 C3.91 -0.04 4.84 -0.04 5.81 -0.04 C6.67 -0.05 7.53 -0.05 8.42 -0.06 C10.56 0.19 10.56 0.19 12.56 2.19 C12.81 4.69 12.81 4.69 12.56 7.19 C9.69 10.06 7.36 9.48 3.42 9.51 C2.5 9.51 1.58 9.5 0.62 9.5 C-0.75 9.52 -0.75 9.52 -2.16 9.55 C-3.49 9.55 -3.49 9.55 -4.84 9.55 C-5.65 9.55 -6.46 9.56 -7.29 9.56 C-9.95 9.1 -10.86 8.35 -12.44 6.19 C-11.67 -1.84 -6.8 0 0 0 Z " fill="#3CCD93" transform="translate(123.4375,208.8125)"/>
<path d="M0 0 C0.93 -0 1.86 -0.01 2.82 -0.01 C3.8 -0 4.78 0.01 5.78 0.02 C6.76 0.01 7.73 0 8.74 -0.01 C9.67 -0.01 10.6 -0 11.56 0 C12.42 0 13.28 0 14.16 0.01 C16.28 0.27 16.28 0.27 18.28 2.27 C18.59 4.77 18.59 4.77 18.28 7.27 C15.18 9.33 14.46 9.52 10.94 9.53 C10.1 9.53 9.27 9.54 8.41 9.54 C7.54 9.53 6.68 9.52 5.78 9.52 C4.48 9.53 4.48 9.53 3.15 9.54 C2.32 9.54 1.48 9.53 0.62 9.53 C-0.14 9.53 -0.9 9.53 -1.68 9.52 C-3.72 9.27 -3.72 9.27 -6.72 7.27 C-7.03 4.77 -7.03 4.77 -6.72 2.27 C-4.23 -0.22 -3.43 0.01 0 0 Z " fill="#3CCD93" transform="translate(130.71875,191.734375)"/>
<path d="M0 0 C0.83 -0 1.67 -0.01 2.53 -0.01 C3.39 -0 4.26 0.01 5.16 0.02 C6.46 0 6.46 0 7.79 -0.01 C8.62 -0.01 9.45 -0 10.31 0 C11.07 0 11.83 0 12.62 0.01 C14.66 0.27 14.66 0.27 17.66 2.27 C17.97 4.77 17.97 4.77 17.66 7.27 C15.17 9.76 14.37 9.52 10.94 9.53 C10.01 9.53 9.07 9.54 8.11 9.54 C7.14 9.53 6.16 9.52 5.16 9.52 C4.18 9.52 3.2 9.53 2.2 9.54 C1.27 9.54 0.34 9.53 -0.62 9.53 C-1.48 9.53 -2.34 9.53 -3.22 9.52 C-5.34 9.27 -5.34 9.27 -7.34 7.27 C-7.66 4.77 -7.66 4.77 -7.34 2.27 C-4.24 0.2 -3.52 0.01 0 0 Z " fill="#3CCD93" transform="translate(131.34375,54.734375)"/>
<path d="M0 0 C0.98 -0 1.97 -0 2.98 -0 C4.02 -0 5.06 0 6.12 0.01 C7.68 0 7.68 0 9.27 -0 C10.25 -0 11.24 -0 12.25 0 C13.16 0 14.07 0 15.01 0 C17.12 0.13 17.12 0.13 18.12 1.13 C18.25 4.13 18.25 4.13 18.12 7.13 C15.71 9.55 9.44 8.32 6.19 8.32 C5.16 8.33 4.13 8.34 3.07 8.36 C1.6 8.36 1.6 8.36 0.1 8.36 C-1.26 8.37 -1.26 8.37 -2.64 8.38 C-4.88 8.13 -4.88 8.13 -6.88 6.13 C-6.19 0.54 -5.47 0.01 0 0 Z " fill="#35CC8F" transform="translate(117.875,140.8671875)"/>
<path d="M0 0 C1.03 -0 2.06 -0 3.12 -0 C4.75 0 4.75 0 6.41 0.01 C7.49 0 8.57 0 9.69 -0 C10.72 -0 11.75 -0 12.81 0 C14.24 0 14.24 0 15.7 0 C17.91 0.13 17.91 0.13 18.91 1.13 C19.09 3.57 19.09 3.57 18.91 6.13 C16.42 8.62 15.62 8.39 12.19 8.4 C11.26 8.4 10.32 8.4 9.36 8.41 C8.39 8.4 7.41 8.39 6.41 8.38 C5.43 8.39 4.45 8.4 3.45 8.41 C2.52 8.4 1.59 8.4 0.62 8.4 C-0.23 8.4 -1.09 8.39 -1.97 8.39 C-4.09 8.13 -4.09 8.13 -6.09 6.13 C-6.28 3.57 -6.28 3.57 -6.09 1.13 C-4.41 -0.55 -2.31 0 0 0 Z " fill="#EC505C" transform="translate(83.09375,72.8671875)"/>
<path d="M0 0 C1.4 -0 1.4 -0 2.83 -0 C4.31 0 4.31 0 5.82 0.01 C6.8 0 7.78 0 8.79 -0 C9.72 -0 10.66 -0 11.62 0 C12.92 0 12.92 0 14.24 0 C16.38 0.13 16.38 0.13 18.38 1.13 C18.42 3.13 18.42 5.13 18.38 7.13 C15.96 9.55 9.69 8.32 6.44 8.32 C5.41 8.33 4.39 8.34 3.33 8.36 C1.85 8.36 1.85 8.36 0.35 8.36 C-1.01 8.37 -1.01 8.37 -2.39 8.38 C-4.62 8.13 -4.62 8.13 -6.62 6.13 C-5.96 0.7 -5.34 0.01 0 0 Z " fill="#EC505C" transform="translate(83.62109375,140.8671875)"/>
<path d="M0 0 C0.98 -0 1.97 -0 2.98 -0 C4.02 -0 5.06 0 6.12 0.01 C7.68 0 7.68 0 9.27 -0 C10.25 -0 11.24 -0 12.25 0 C13.16 0 14.07 0 15.01 0 C17.12 0.13 17.12 0.13 18.12 1.13 C18.17 3.13 18.17 5.13 18.12 7.13 C14.35 9.02 9.77 8.32 5.62 8.32 C4.65 8.33 3.67 8.34 2.67 8.36 C1.27 8.36 1.27 8.36 -0.16 8.36 C-1.01 8.37 -1.87 8.37 -2.75 8.38 C-4.88 8.13 -4.88 8.13 -6.88 6.13 C-6.19 0.54 -5.47 0.01 0 0 Z " fill="#34CC8E" transform="translate(117.875,72.8671875)"/>
<path d="M0 0 C0.98 -0.01 1.96 -0.02 2.97 -0.04 C3.91 -0.04 4.84 -0.04 5.81 -0.04 C6.67 -0.05 7.53 -0.05 8.42 -0.06 C10.56 0.19 10.56 0.19 12.56 2.19 C12.01 6.74 12.01 6.74 10.56 8.19 C7.09 8.44 3.61 8.37 0.12 8.38 C-0.86 8.39 -1.84 8.4 -2.85 8.41 C-3.78 8.41 -4.72 8.42 -5.68 8.42 C-6.55 8.42 -7.41 8.43 -8.3 8.43 C-10.44 8.19 -10.44 8.19 -12.44 6.19 C-11.46 -1.81 -6.96 0 0 0 Z " fill="#33CC8E" transform="translate(136.4375,123.8125)"/>
<path d="M0 0 C0.7 0.01 1.4 0.01 2.12 0.02 C2.83 0.01 3.53 0.01 4.25 0 C6.12 0.27 6.12 0.27 8.12 2.27 C8.38 4.77 8.38 4.77 8.12 7.27 C6.12 9.27 6.12 9.27 4.25 9.53 C3.55 9.53 2.85 9.52 2.12 9.52 C1.42 9.52 0.72 9.53 0 9.53 C-1.88 9.27 -1.88 9.27 -3.88 7.27 C-4.12 4.77 -4.12 4.77 -3.88 2.27 C-1.88 0.27 -1.88 0.27 0 0 Z " fill="#ADB2BE" transform="translate(29.875,225.734375)"/>
<path d="M0 0 C0.7 0.01 1.4 0.01 2.12 0.02 C2.83 0.01 3.53 0.01 4.25 0 C6.12 0.27 6.12 0.27 8.12 2.27 C8.38 4.77 8.38 4.77 8.12 7.27 C6.12 9.27 6.12 9.27 4.25 9.53 C3.55 9.53 2.85 9.52 2.12 9.52 C1.42 9.52 0.72 9.53 0 9.53 C-1.88 9.27 -1.88 9.27 -3.88 7.27 C-4.12 4.77 -4.12 4.77 -3.88 2.27 C-1.88 0.27 -1.88 0.27 0 0 Z " fill="#ADB2BE" transform="translate(29.875,208.734375)"/>
<path d="M0 0 C0.91 0 1.82 0.01 2.75 0.01 C4.11 0 4.11 0 5.5 0 C7.75 0.13 7.75 0.13 8.75 1.13 C8.88 4.13 8.88 4.13 8.75 7.13 C7.75 8.13 7.75 8.13 5.5 8.27 C4.59 8.26 3.69 8.26 2.75 8.26 C1.39 8.26 1.39 8.26 0 8.27 C-2.25 8.13 -2.25 8.13 -3.25 7.13 C-3.38 4.13 -3.38 4.13 -3.25 1.13 C-2.25 0.13 -2.25 0.13 0 0 Z " fill="#ACB1BE" transform="translate(29.25,123.8671875)"/>
<path d="M0 0 C1.05 -0.02 1.05 -0.02 2.12 -0.04 C4 0.19 4 0.19 6 2.19 C6.19 4.75 6.19 4.75 6 7.19 C5 8.19 5 8.19 2.75 8.32 C1.84 8.32 0.94 8.32 0 8.31 C-1.36 8.32 -1.36 8.32 -2.75 8.32 C-5 8.19 -5 8.19 -6 7.19 C-6.04 5.19 -6.04 3.19 -6 1.19 C-3.77 0.07 -2.47 0.02 0 0 Z " fill="#ABB0BD" transform="translate(32,140.8125)"/>
<path d="M0 0 C0.7 0.01 1.4 0.01 2.12 0.02 C2.83 0.01 3.53 0.01 4.25 0 C6.12 0.27 6.12 0.27 8.12 2.27 C8.31 4.83 8.31 4.83 8.12 7.27 C7.12 8.27 7.12 8.27 4.88 8.4 C3.97 8.4 3.06 8.39 2.12 8.39 C0.76 8.39 0.76 8.39 -0.62 8.4 C-2.88 8.27 -2.88 8.27 -3.88 7.27 C-4.06 4.83 -4.06 4.83 -3.88 2.27 C-1.88 0.27 -1.88 0.27 0 0 Z " fill="#ABB0BC" transform="translate(29.875,191.734375)"/>
<path d="M0 0 C0.7 0.01 1.4 0.01 2.12 0.02 C2.83 0.01 3.53 0.01 4.25 0 C6.12 0.27 6.12 0.27 8.12 2.27 C8.31 4.83 8.31 4.83 8.12 7.27 C7.12 8.27 7.12 8.27 4.88 8.4 C3.97 8.4 3.06 8.39 2.12 8.39 C0.76 8.39 0.76 8.39 -0.62 8.4 C-2.88 8.27 -2.88 8.27 -3.88 7.27 C-4.06 4.83 -4.06 4.83 -3.88 2.27 C-1.88 0.27 -1.88 0.27 0 0 Z " fill="#ABB0BC" transform="translate(29.875,174.734375)"/>
<path d="M0 0 C0.7 0.01 1.4 0.01 2.12 0.02 C2.83 0.01 3.53 0.01 4.25 0 C6.12 0.27 6.12 0.27 8.12 2.27 C8.31 4.83 8.31 4.83 8.12 7.27 C7.12 8.27 7.12 8.27 4.88 8.4 C3.97 8.4 3.06 8.39 2.12 8.39 C0.76 8.39 0.76 8.39 -0.62 8.4 C-2.88 8.27 -2.88 8.27 -3.88 7.27 C-4.06 4.83 -4.06 4.83 -3.88 2.27 C-1.88 0.27 -1.88 0.27 0 0 Z " fill="#ABB0BC" transform="translate(29.875,157.734375)"/>
<path d="M0 0 C0.91 0 1.82 0.01 2.75 0.01 C4.11 0 4.11 0 5.5 0 C7.75 0.13 7.75 0.13 8.75 1.13 C8.94 3.57 8.94 3.57 8.75 6.13 C6.75 8.13 6.75 8.13 4.88 8.4 C4.17 8.39 3.47 8.39 2.75 8.38 C2.05 8.39 1.35 8.39 0.62 8.4 C-1.25 8.13 -1.25 8.13 -3.25 6.13 C-3.44 3.57 -3.44 3.57 -3.25 1.13 C-2.25 0.13 -2.25 0.13 0 0 Z " fill="#ABB0BD" transform="translate(29.25,106.8671875)"/>
<path d="M0 0 C0.91 0 1.82 0.01 2.75 0.01 C4.11 0 4.11 0 5.5 0 C7.75 0.13 7.75 0.13 8.75 1.13 C8.94 3.57 8.94 3.57 8.75 6.13 C6.75 8.13 6.75 8.13 4.88 8.4 C4.17 8.39 3.47 8.39 2.75 8.38 C2.05 8.39 1.35 8.39 0.62 8.4 C-1.25 8.13 -1.25 8.13 -3.25 6.13 C-3.44 3.57 -3.44 3.57 -3.25 1.13 C-2.25 0.13 -2.25 0.13 0 0 Z " fill="#ABB0BC" transform="translate(29.25,89.8671875)"/>
<path d="M0 0 C0.91 0 1.82 0.01 2.75 0.01 C4.11 0 4.11 0 5.5 0 C7.75 0.13 7.75 0.13 8.75 1.13 C8.94 3.57 8.94 3.57 8.75 6.13 C6.75 8.13 6.75 8.13 4.88 8.4 C4.17 8.39 3.47 8.39 2.75 8.38 C2.05 8.39 1.35 8.39 0.62 8.4 C-1.25 8.13 -1.25 8.13 -3.25 6.13 C-3.44 3.57 -3.44 3.57 -3.25 1.13 C-2.25 0.13 -2.25 0.13 0 0 Z " fill="#ABB0BC" transform="translate(29.25,72.8671875)"/>
<path d="M0 0 C0.91 0 1.82 0.01 2.75 0.01 C4.11 0 4.11 0 5.5 0 C7.75 0.13 7.75 0.13 8.75 1.13 C8.94 3.57 8.94 3.57 8.75 6.13 C6.75 8.13 6.75 8.13 4.88 8.4 C4.17 8.39 3.47 8.39 2.75 8.38 C2.05 8.39 1.35 8.39 0.62 8.4 C-1.25 8.13 -1.25 8.13 -3.25 6.13 C-3.44 3.57 -3.44 3.57 -3.25 1.13 C-2.25 0.13 -2.25 0.13 0 0 Z " fill="#ABB0BC" transform="translate(29.25,55.8671875)"/>
<path d="M0 0 C3.12 0.38 3.12 0.38 6 1 C6.69 3.31 6.69 3.31 7 6 C5.88 7.88 5.88 7.88 4 9 C1.31 8.69 1.31 8.69 -1 8 C-1.62 5.12 -1.62 5.12 -2 2 C-1.34 1.34 -0.68 0.68 0 0 Z " fill="#DBCC3A" transform="translate(36,17)"/>
<path d="M0 0 C3.3 0.33 4.62 0.62 7 3 C6.63 5.93 6.14 6.86 4 9 C1.38 8.62 1.38 8.62 -1 8 C-1.62 5.12 -1.62 5.12 -2 2 C-1.34 1.34 -0.68 0.68 0 0 Z " fill="#30BC8A" transform="translate(19,17)"/>
<path d="M0 0 C2.01 0.29 4.01 0.62 6 1 C6.69 3.31 6.69 3.31 7 6 C5.81 7.88 5.81 7.88 4 9 C1.03 8.73 0.15 8.15 -2 6 C-1.44 1.44 -1.44 1.44 0 0 Z " fill="#DA4B5C" transform="translate(53,17)"/>
</svg>
