<?xml version="1.0" encoding="UTF-8"?>
<!-- Generator: visioncortex VTracer 0.6.4 -->
<svg version="1.1" xmlns="http://www.w3.org/2000/svg" width="256" height="256">
<path d="M0 0 C3.57 3.11 6.99 6.37 10.4 9.65 C11.11 10.31 11.83 10.96 12.57 11.64 C18.86 17.54 23.63 24.51 28.4 31.65 C29.03 32.59 29.66 33.52 30.31 34.49 C47.55 61.94 52.41 98.35 45.3 129.82 C36.85 163.08 16.95 192.45 -12.61 210.48 C-24.03 217.22 -35.85 222.04 -48.6 225.65 C-49.78 226 -50.96 226.34 -52.17 226.69 C-84.06 234.22 -120.08 227.84 -147.91 211.01 C-177 192.72 -196.31 165.48 -205.6 132.65 C-205.94 131.48 -206.29 130.3 -206.64 129.08 C-214.23 96.96 -207.65 60.91 -190.56 32.95 C-185.63 25.21 -179.95 18.27 -173.6 11.65 C-172.79 10.77 -171.99 9.89 -171.15 8.98 C-155.25 -7.83 -134.65 -18.1 -112.6 -24.35 C-111.42 -24.69 -110.25 -25.03 -109.03 -25.38 C-72.05 -34.12 -29.07 -24.42 0 0 Z " fill="#F10051" transform="translate(208.60302734375,27.34619140625)"/>
<path d="M0 0 C3.57 3.11 6.99 6.37 10.4 9.65 C11.11 10.31 11.83 10.96 12.57 11.64 C19.7 18.32 25 26.56 30.4 34.65 C29.53 43.27 21.06 51.46 15.44 57.45 C13.26 59.73 13.26 59.73 11.02 62.72 C6.95 67.27 2.22 70.92 -2.6 74.65 C-3.35 75.24 -4.1 75.83 -4.87 76.44 C-20.75 88.23 -38.27 95.14 -57.6 98.65 C-57.93 129.01 -58.26 159.37 -58.6 190.65 C-54.97 190.65 -51.34 190.65 -47.6 190.65 C-47.6 197.91 -47.6 205.17 -47.6 212.65 C-64.76 212.65 -81.92 212.65 -99.6 212.65 C-99.6 205.39 -99.6 198.13 -99.6 190.65 C-95.97 190.32 -92.34 189.99 -88.6 189.65 C-88.94 188.95 -89.28 188.25 -89.63 187.53 C-90.07 186.58 -90.52 185.63 -90.98 184.65 C-91.42 183.73 -91.86 182.8 -92.31 181.84 C-95.1 174.94 -95.97 168.71 -95.92 161.34 C-95.91 160.51 -95.91 159.67 -95.9 158.81 C-95.78 151.84 -95.1 145.1 -91.62 138.91 C-88.68 133.6 -88.02 129.3 -87.98 123.28 C-87.84 114.89 -87.84 114.89 -85.6 112.65 C-82.79 112.22 -82.79 112.22 -79.6 112.65 C-77.95 114.3 -76.3 115.95 -74.6 117.65 C-74.27 112.04 -73.94 106.43 -73.6 100.65 C-76.37 100.72 -79.13 100.78 -81.98 100.84 C-103.37 100.95 -123.34 95.21 -142.35 85.53 C-143.17 85.12 -143.99 84.71 -144.83 84.29 C-145.57 83.89 -146.32 83.5 -147.09 83.08 C-147.74 82.74 -148.4 82.39 -149.08 82.03 C-151.23 80.09 -151.18 78.5 -151.6 75.65 C-151.69 73.69 -151.72 71.73 -151.72 69.76 C-151.72 68.6 -151.72 67.44 -151.72 66.24 C-151.71 65 -151.71 63.76 -151.7 62.48 C-151.7 61.2 -151.7 59.92 -151.7 58.6 C-151.69 55.21 -151.68 51.82 -151.67 48.42 C-151.66 44.96 -151.66 41.49 -151.65 38.03 C-151.64 31.24 -151.62 24.44 -151.6 17.65 C-160.51 17.65 -169.42 17.65 -178.6 17.65 C-160.46 -3.51 -139.42 -16.75 -112.6 -24.35 C-111.42 -24.69 -110.25 -25.03 -109.03 -25.38 C-72.05 -34.12 -29.07 -24.42 0 0 Z " fill="#FE0159" transform="translate(208.60302734375,27.34619140625)"/>
<path d="M0 0 C3.95 4.33 5.9 8.93 8 14.31 C8.52 15.63 8.52 15.63 9.05 16.98 C21.38 48.96 20.32 85.29 7 116.76 C-7.07 148.18 -33.35 172.25 -65.28 184.72 C-69 186 -69 186 -72 186 C-72 182.7 -72 179.4 -72 176 C-73.98 176 -75.96 176 -78 176 C-78 168.74 -78 161.48 -78 154 C-81.63 154 -85.26 154 -89 154 C-89 118.03 -89 82.06 -89 45 C-88.67 45 -88.34 45 -88 45 C-88 50.61 -88 56.22 -88 62 C-53.16 53.32 -24.9 36.09 -4.51 6.19 C-3.06 4.08 -1.55 2.04 0 0 Z " fill="#F20051" transform="translate(239,64)"/>
<path d="M0 0 C7.26 0 14.52 0 22 0 C22 3.96 22 7.92 22 12 C23.38 11.99 24.76 11.99 26.19 11.98 C39.19 11.92 52.2 11.87 65.21 11.84 C71.9 11.83 78.59 11.81 85.27 11.77 C91.73 11.74 98.18 11.72 104.63 11.72 C107.09 11.71 109.56 11.7 112.02 11.68 C115.47 11.66 118.91 11.66 122.36 11.66 C123.38 11.65 124.4 11.64 125.46 11.63 C126.4 11.63 127.34 11.63 128.3 11.64 C129.12 11.64 129.93 11.63 130.77 11.63 C133.55 12.09 134.94 13.11 137 15 C137.53 16.94 137.53 16.94 137.5 19 C137.52 20.02 137.52 20.02 137.53 21.06 C137 23 137 23 135.54 24.59 C131.73 26.7 128.15 26.48 123.86 26.51 C122.98 26.53 122.1 26.55 121.19 26.57 C118.37 26.62 115.56 26.65 112.75 26.69 C110.84 26.72 108.93 26.76 107.02 26.79 C102.35 26.88 97.67 26.94 93 27 C93.95 27.6 94.9 28.2 95.88 28.81 C99 31 99 31 101 34 C100.68 37.32 100.39 38.61 98 41 C95.17 41.18 92.39 41.27 89.56 41.31 C82.78 41.53 77.57 42.35 71.55 45.75 C65.21 48.86 58.77 49.39 51.81 49.38 C50.57 49.37 50.57 49.37 49.31 49.37 C39.63 49.19 31.55 46.41 23 42 C23 45.63 23 49.26 23 53 C15.41 53 7.82 53 0 53 C0 35.51 0 18.02 0 0 Z " fill="#FECCBD" transform="translate(57,50)"/>
<path d="M0 0 C2.16 1.37 2.16 1.37 4 4 C4.59 7.54 4.5 11.06 4.45 14.64 C4.45 15.73 4.46 16.81 4.46 17.93 C4.45 21.51 4.42 25.09 4.39 28.67 C4.38 31.15 4.38 33.64 4.37 36.12 C4.36 41.99 4.33 47.86 4.29 53.73 C4.24 61.06 4.22 68.4 4.2 75.74 C4.15 88.83 4.08 101.91 4 115 C7.63 115 11.26 115 15 115 C15 122.26 15 129.52 15 137 C-2.16 137 -19.32 137 -37 137 C-37 129.74 -37 122.48 -37 115 C-31.56 114.5 -31.56 114.5 -26 114 C-26.51 112.95 -26.51 112.95 -27.02 111.88 C-27.47 110.93 -27.92 109.98 -28.38 109 C-28.82 108.07 -29.26 107.14 -29.71 106.19 C-32.5 99.29 -33.36 93.06 -33.31 85.69 C-33.31 84.85 -33.3 84.02 -33.3 83.16 C-33.17 76.18 -32.5 69.45 -29.02 63.25 C-26.08 57.94 -25.41 53.65 -25.38 47.62 C-25.24 39.24 -25.24 39.24 -23 37 C-20.19 36.56 -20.19 36.56 -17 37 C-14.43 39.17 -12.51 40.98 -11 44 C-10.99 42.81 -10.98 41.62 -10.97 40.39 C-10.93 35.97 -10.87 31.55 -10.79 27.13 C-10.76 25.22 -10.74 23.3 -10.73 21.39 C-10.71 18.64 -10.66 15.89 -10.61 13.14 C-10.61 12.29 -10.61 11.43 -10.61 10.55 C-10.46 4.63 -10.46 4.63 -8.15 1.46 C-5.2 -0.54 -3.49 -0.58 0 0 Z " fill="#FECABC" transform="translate(146,103)"/>
<path d="M0 0 C9.24 0 18.48 0 28 0 C28 20.79 28 41.58 28 63 C9.52 63 -8.96 63 -28 63 C-25.64 48.86 -25.64 48.86 -23.38 42.25 C-23.12 41.49 -22.86 40.73 -22.59 39.95 C-17.34 25.06 -9.43 12.58 0 0 Z " fill="#392D6E" transform="translate(29,45)"/>
<path d="M0 0 C0.33 0 0.66 0 1 0 C1 17.16 1 34.32 1 52 C7.93 52 14.86 52 22 52 C21.98 50.49 21.96 48.99 21.94 47.44 C22.01 40.28 22.52 33.14 23 26 C36.53 26 50.06 26 64 26 C64 23.69 64 21.38 64 19 C88.09 19 112.18 19 137 19 C136.67 20.65 136.34 22.3 136 24 C132.99 26.01 132.37 26.25 128.99 26.32 C128.19 26.34 127.39 26.36 126.56 26.38 C125.27 26.4 125.27 26.4 123.96 26.41 C123.07 26.43 122.19 26.45 121.28 26.47 C118.46 26.53 115.63 26.58 112.81 26.62 C110.9 26.66 108.99 26.7 107.07 26.74 C102.38 26.84 97.69 26.92 93 27 C93.95 27.6 94.9 28.2 95.88 28.81 C99 31 99 31 101 34 C100.68 37.32 100.39 38.61 98 41 C95.17 41.18 92.39 41.27 89.56 41.31 C82.78 41.53 77.57 42.35 71.55 45.75 C65.21 48.86 58.77 49.39 51.81 49.38 C50.57 49.37 50.57 49.37 49.31 49.37 C39.63 49.19 31.55 46.41 23 42 C23 45.63 23 49.26 23 53 C15.41 53 7.82 53 0 53 C0 35.51 0 18.02 0 0 Z " fill="#FBB9A9" transform="translate(57,50)"/>
<path d="M0 0 C3 0.5 3 0.5 5.16 1.87 C8.06 6.02 7.52 10.11 7.45 15.05 C7.45 16.13 7.46 17.2 7.46 18.3 C7.45 21.85 7.42 25.4 7.39 28.95 C7.38 31.41 7.38 33.87 7.37 36.33 C7.36 42.81 7.32 49.29 7.27 55.77 C7.23 62.38 7.22 68.98 7.2 75.59 C7.15 88.56 7.08 101.53 7 114.5 C2.05 114.5 -2.9 114.5 -8 114.5 C-8.19 47.8 -8.19 47.8 -7.79 24.15 C-7.76 22.39 -7.74 20.63 -7.73 18.87 C-7.71 16.48 -7.66 14.08 -7.61 11.69 C-7.59 10.38 -7.57 9.08 -7.55 7.73 C-6.73 2.9 -4.83 0.81 0 0 Z " fill="#FFBDA9" transform="translate(143,102.5)"/>
<path d="M0 0 C6.74 0.25 6.74 0.25 13.62 0.5 C13.62 10.73 13.62 20.96 13.62 31.5 C-1.55 31.5 -16.74 31.5 -32.38 31.5 C-30.12 23.62 -30.12 23.62 -28.2 20.6 C-27.58 19.6 -27.58 19.6 -26.94 18.59 C-26.5 17.92 -26.07 17.25 -25.62 16.56 C-25.21 15.9 -24.79 15.23 -24.36 14.55 C-23.5 13.2 -22.62 11.87 -21.72 10.55 C-20.33 8.51 -20.33 8.51 -19.21 6.23 C-14.73 -1.56 -8.2 -0.42 0 0 Z " fill="#453A84" transform="translate(43.375,44.5)"/>
<path d="M0 0 C17.16 0 34.32 0 52 0 C52 7.26 52 14.52 52 22 C34.84 22 17.68 22 0 22 C0 14.74 0 7.48 0 0 Z " fill="#E4F0F8" transform="translate(109,218)"/>
<path d="M0 0 C6.93 0 13.86 0 21 0 C21 17.16 21 34.32 21 52 C14.07 52 7.14 52 0 52 C0 34.84 0 17.68 0 0 Z " fill="#E4F0F8" transform="translate(58,50)"/>
<path d="M0 0 C20.79 0 41.58 0 63 0 C63 3.63 63 7.26 63 11 C60.48 11.65 57.96 12.3 55.44 12.94 C54.73 13.12 54.03 13.3 53.3 13.49 C52.6 13.67 51.9 13.84 51.18 14.03 C50.55 14.19 49.92 14.35 49.26 14.52 C43.68 15.71 38.26 16.13 32.56 16.13 C31.54 16.13 31.54 16.13 30.49 16.14 C29.06 16.14 27.62 16.13 26.18 16.13 C24.01 16.13 21.83 16.13 19.65 16.14 C18.24 16.14 16.84 16.13 15.44 16.13 C14.18 16.13 12.92 16.13 11.62 16.13 C1.78 15.78 1.78 15.78 0 14 C0 9.38 0 4.76 0 0 Z " fill="#463B83" transform="translate(104,240)"/>
<path d="M0 0 C8.25 0 16.5 0 25 0 C25 7.26 25 14.52 25 22 C16.75 22 8.5 22 0 22 C0 14.74 0 7.48 0 0 Z " fill="#D0E7FE" transform="translate(136,218)"/>
<path d="M0 0 C6.93 0 13.86 0 21 0 C21 8.25 21 16.5 21 25 C14.07 25 7.14 25 0 25 C0 16.75 0 8.5 0 0 Z " fill="#D0E8FF" transform="translate(58,77)"/>
<path d="M0 0 C-0.99 0.33 -1.98 0.66 -3 1 C-3 24.76 -3 48.52 -3 73 C-5.31 73 -7.62 73 -10 73 C-10.92 57.47 -11.13 41.97 -10.86 26.41 C-10.83 24.51 -10.8 22.61 -10.79 20.72 C-10.76 18.02 -10.71 15.32 -10.64 12.63 C-10.64 11.82 -10.64 11 -10.63 10.17 C-10.52 6.59 -10.3 4.41 -8.16 1.48 C-5.33 -0.46 -3.36 -0.31 0 0 Z " fill="#FEA58C" transform="translate(146,103)"/>
<path d="M0 0 C24.09 0 48.18 0 73 0 C72.67 1.65 72.34 3.3 72 5 C68.92 7.05 68.19 7.26 64.69 7.33 C63.82 7.36 62.95 7.38 62.06 7.4 C61.11 7.42 60.17 7.43 59.2 7.45 C58.21 7.47 57.23 7.49 56.21 7.52 C54.11 7.56 52 7.6 49.9 7.63 C46.77 7.69 43.63 7.76 40.49 7.83 C26.95 8.11 13.52 7.79 0 7 C0 4.69 0 2.38 0 0 Z " fill="#FFA58C" transform="translate(121,69)"/>
<path d="M0 0 C10.23 0 20.46 0 31 0 C31 3.63 31 7.26 31 11 C28.48 11.65 25.96 12.3 23.44 12.94 C22.73 13.12 22.03 13.3 21.3 13.49 C15.26 15.02 9.32 16.16 3.06 16.06 C2.29 16.05 1.52 16.04 0.72 16.04 C0.15 16.02 -0.41 16.01 -1 16 C-1.03 13.9 -1.05 11.79 -1.06 9.69 C-1.07 8.52 -1.09 7.34 -1.1 6.14 C-1 3 -1 3 0 0 Z " fill="#3A2D6D" transform="translate(136,240)"/>
</svg>
