<?xml version="1.0" encoding="UTF-8"?>
<!-- Generator: visioncortex VTracer 0.6.4 -->
<svg version="1.1" xmlns="http://www.w3.org/2000/svg" width="256" height="256">
<path d="M0 0 C5.28 0 10.56 0 16 0 C17.12 23.49 7.21 46.02 -1.25 67.44 C-19.52 113.92 -14.02 157.14 4.01 202.44 C10.99 220.02 16.27 236.9 16 256 C10.72 256 5.44 256 0 256 C-0.11 254.8 -0.22 253.59 -0.34 252.36 C-2.62 231.48 -10.15 212.39 -17.89 193.02 C-37.53 143.45 -30.53 95.51 -12 47 C-6.03 31.29 -1.88 16.74 0 0 Z " fill="#F2593B" transform="translate(180,0)"/>
<path d="M0 0 C5.28 0 10.56 0 16 0 C16.12 1.24 16.25 2.48 16.38 3.75 C18.7 24.26 26.03 42.65 33.48 61.76 C53.01 112.15 47.15 160.69 27.62 210.04 C22.91 221.94 18.82 233.54 17.25 246.31 C17.12 247.26 17 248.2 16.87 249.17 C16.57 251.45 16.28 253.72 16 256 C10.72 256 5.44 256 0 256 C-0.99 235.17 6.86 215.86 14.17 196.77 C33.4 146.54 31.78 103.28 11.99 53.56 C5.01 35.98 -0.27 19.1 0 0 Z " fill="#F2593B" transform="translate(60,0)"/>
<path d="M0 0 C5.28 0 10.56 0 16 0 C16 84.48 16 168.96 16 256 C10.72 256 5.44 256 0 256 C0 171.52 0 87.04 0 0 Z " fill="#F25C3C" transform="translate(120,0)"/>
<path d="M0 0 C3.34 1.39 5.61 3.84 8.13 6.36 C8.69 6.9 9.24 7.45 9.81 8.01 C10.97 9.16 12.12 10.31 13.28 11.47 C15.05 13.24 16.84 14.99 18.64 16.74 C19.76 17.86 20.89 18.99 22.01 20.11 C22.55 20.63 23.09 21.16 23.64 21.69 C25.12 23.2 25.12 23.2 27.24 25.93 C26.76 30.5 23.59 32.96 20.45 36.01 C19.88 36.58 19.3 37.15 18.71 37.74 C16.87 39.56 15.02 41.37 13.18 43.18 C11.93 44.42 10.68 45.65 9.43 46.89 C6.38 49.91 3.31 52.92 0.24 55.93 C-3.17 54.33 -5.38 52.53 -8.01 49.81 C-8.72 49.08 -9.42 48.36 -10.15 47.61 C-10.68 47.06 -11.21 46.5 -11.76 45.93 C-10.04 42.17 -7.77 39.78 -4.76 36.93 C-11.98 36.46 -17.8 36.49 -23.76 40.93 C-29.15 45.89 -31.49 50.51 -32.07 57.87 C-31.89 63.92 -29.34 69.09 -25.32 73.59 C-19.37 78.71 -12.24 79.53 -4.69 79.54 C-3.32 79.57 -3.32 79.57 -1.91 79.59 C1 79.64 3.9 79.66 6.8 79.68 C8.78 79.71 10.77 79.74 12.75 79.77 C17.58 79.85 22.41 79.9 27.24 79.93 C27.24 85.21 27.24 90.49 27.24 95.93 C21.35 96.03 15.47 96.11 9.58 96.15 C7.58 96.17 5.59 96.2 3.59 96.24 C-25.44 96.73 -25.44 96.73 -36.76 85.93 C-44.82 78.09 -48.83 69.53 -49.01 58.25 C-48.89 47.59 -45.41 39.05 -38.26 31.18 C-37.44 30.44 -36.61 29.7 -35.76 28.93 C-34.65 27.91 -34.65 27.91 -33.51 26.87 C-26.53 21.95 -19.43 19.96 -11.01 19.37 C-9.26 19.25 -9.26 19.25 -7.46 19.12 C-6.57 19.06 -5.68 19 -4.76 18.93 C-7.07 16.62 -9.38 14.31 -11.76 11.93 C-9.99 8.4 -8.58 6.4 -5.89 3.62 C-4.87 2.54 -4.87 2.54 -3.83 1.45 C-1.76 -0.07 -1.76 -0.07 0 0 Z " fill="#3A4950" transform="translate(228.760986328125,70.06640625)"/>
<path d="M0 0 C2.65 1.42 4.46 3.35 6.53 5.52 C7.33 6.34 8.13 7.17 8.96 8.02 C9.56 8.66 10.16 9.3 10.78 9.96 C9.23 13.77 6.75 16.15 3.78 18.96 C5.42 19.07 5.42 19.07 7.08 19.18 C19.04 20.18 29.81 22.63 38.25 31.89 C46.44 42.92 48.09 53.54 46.78 66.96 C44.59 76.23 39.36 83.94 31.62 89.51 C23.04 94.62 14.28 96.42 4.4 96.25 C2.99 96.24 2.99 96.24 1.55 96.24 C-1.41 96.22 -4.38 96.18 -7.34 96.14 C-9.37 96.13 -11.39 96.11 -13.42 96.1 C-18.35 96.07 -23.28 96.02 -28.22 95.96 C-28.22 90.68 -28.22 85.4 -28.22 79.96 C-27.02 79.94 -25.82 79.93 -24.58 79.91 C-20.1 79.85 -15.62 79.78 -11.14 79.69 C-9.21 79.66 -7.27 79.63 -5.34 79.61 C-2.55 79.58 0.24 79.52 3.03 79.47 C3.89 79.46 4.74 79.45 5.63 79.45 C13.26 79.26 20.27 77.62 25.78 71.96 C30.3 65.84 30.76 59.36 29.78 51.96 C28.04 46.01 24.84 42.39 19.78 38.96 C14.51 36.44 9.52 36.8 3.78 36.96 C6.09 39.27 8.4 41.58 10.78 43.96 C8.95 47.62 7.53 49.42 4.66 52.21 C3.93 52.91 3.21 53.62 2.46 54.35 C1.91 54.88 1.35 55.41 0.78 55.96 C-3.27 54.33 -6.06 51.45 -9.11 48.43 C-9.66 47.89 -10.21 47.35 -10.78 46.79 C-11.94 45.64 -13.1 44.49 -14.25 43.34 C-16.03 41.58 -17.82 39.84 -19.61 38.1 C-20.74 36.98 -21.86 35.86 -22.99 34.75 C-23.53 34.23 -24.06 33.71 -24.62 33.17 C-28.16 29.58 -28.16 29.58 -28.38 26.96 C-26.61 23.92 -24.26 21.53 -21.79 19.06 C-21.25 18.51 -20.7 17.96 -20.14 17.39 C-18.99 16.23 -17.84 15.07 -16.68 13.92 C-14.91 12.15 -13.16 10.35 -11.41 8.56 C-10.29 7.43 -9.16 6.31 -8.04 5.19 C-7.52 4.65 -6.99 4.11 -6.46 3.55 C-2.78 -0.06 -2.78 -0.06 0 0 Z " fill="#586B74" transform="translate(28.216552734375,70.0439453125)"/>
<path d="M0 0 C2.64 0 5.28 0 8 0 C8 84.48 8 168.96 8 256 C5.36 256 2.72 256 0 256 C0 171.52 0 87.04 0 0 Z " fill="#FF8F3F" transform="translate(120,0)"/>
</svg>
