<?xml version="1.0" encoding="UTF-8"?>
<!-- Generator: visioncortex VTracer 0.6.4 -->
<svg version="1.1" xmlns="http://www.w3.org/2000/svg" width="256" height="256">
<path d="M0 0 C0.44 -0.48 0.89 -0.97 1.34 -1.47 C3.37 -3.67 5.44 -5.83 7.5 -8 C8.2 -8.76 8.89 -9.53 9.61 -10.31 C15.58 -16.51 15.58 -16.51 20.28 -16.75 C24 -16 24 -16 26.39 -14.61 C28.81 -10.69 29.21 -6.84 29.81 -2.31 C30.04 -0.76 30.04 -0.76 30.27 0.82 C30.64 3.32 30.99 5.82 31.34 8.32 C31.98 12.9 32.65 17.47 33.33 22.04 C33.98 26.45 34.62 30.87 35.26 35.28 C35.59 37.5 35.91 39.73 36.24 41.95 C36.7 45.13 37.16 48.3 37.61 51.48 C37.75 52.43 37.89 53.39 38.03 54.37 C39.88 67.38 39.88 67.38 37.38 72 C29.03 76.95 14.57 72.37 5.28 71 C3.93 70.81 2.57 70.61 1.21 70.42 C-1.6 70.01 -4.41 69.6 -7.22 69.19 C-10.8 68.66 -14.39 68.15 -17.98 67.63 C-20.77 67.23 -23.55 66.83 -26.34 66.42 C-28.3 66.13 -30.26 65.85 -32.23 65.57 C-34.02 65.31 -34.02 65.31 -35.85 65.04 C-36.9 64.88 -37.94 64.73 -39.02 64.58 C-42.87 63.83 -46.54 62.92 -49.88 60.81 C-51.84 57.65 -51.6 55.65 -51 52 C-49.01 48.99 -46.56 46.53 -44 44 C-43.26 43.25 -42.52 42.49 -41.75 41.71 C-39.85 39.79 -37.93 37.89 -36 36 C-53.54 27.23 -74.06 28.33 -92.3 34.03 C-104.93 38.5 -115.54 45.57 -125 55 C-125.61 55.59 -126.22 56.18 -126.86 56.79 C-140.2 70.68 -146.28 89.8 -147.11 108.67 C-147.36 112.63 -147.78 114.66 -150 118.05 C-154.09 120.71 -157.33 120.49 -162 120 C-163.05 119.89 -164.09 119.78 -165.17 119.67 C-168.71 119.25 -172.23 118.76 -175.75 118.25 C-176.96 118.09 -178.16 117.94 -179.4 117.77 C-181.14 117.52 -181.14 117.52 -182.92 117.27 C-183.97 117.12 -185.02 116.97 -186.1 116.82 C-189.55 115.84 -191.46 114.53 -194 112 C-194.5 109.08 -194.67 106.85 -194.56 103.94 C-194.55 103.15 -194.53 102.35 -194.51 101.54 C-193.44 73.82 -181.48 48.09 -164 27 C-163.33 26.18 -162.66 25.36 -161.98 24.51 C-145.55 5.11 -122.12 -7.18 -98 -14 C-96.81 -14.34 -95.62 -14.68 -94.39 -15.04 C-61.36 -22.78 -29.62 -14.39 0 0 Z " fill="#32D736" transform="translate(194,17)"/>
<path d="M0 0 C2.06 0.28 4.12 0.54 6.18 0.8 C7.51 0.97 8.83 1.15 10.16 1.33 C11.35 1.49 12.55 1.64 13.78 1.81 C17.68 2.62 20.7 3.76 24.27 5.53 C30.02 17.05 23.4 36.99 19.76 48.39 C14.28 64.56 6.12 78.43 -4.73 91.53 C-5.4 92.35 -6.07 93.17 -6.76 94.02 C-26.36 117.19 -56.87 131.89 -86.73 135.53 C-91.74 135.85 -96.72 135.91 -101.73 135.91 C-102.41 135.91 -103.09 135.91 -103.79 135.9 C-127.69 135.82 -147.49 128.85 -168.73 118.53 C-169.18 119.01 -169.63 119.49 -170.09 119.98 C-172.14 122.16 -174.22 124.31 -176.3 126.47 C-177 127.22 -177.71 127.98 -178.43 128.76 C-184.43 134.92 -184.43 134.92 -188.62 135.57 C-193.31 135.51 -193.31 135.51 -195.73 133.53 C-197.57 129.69 -198.27 125.99 -198.88 121.79 C-198.98 121.13 -199.08 120.47 -199.18 119.8 C-199.5 117.63 -199.81 115.47 -200.12 113.3 C-200.34 111.78 -200.56 110.27 -200.78 108.75 C-201.24 105.58 -201.7 102.4 -202.16 99.22 C-202.74 95.18 -203.33 91.13 -203.93 87.08 C-204.39 83.95 -204.84 80.82 -205.29 77.69 C-205.51 76.2 -205.72 74.7 -205.94 73.21 C-209.06 52.05 -209.06 52.05 -206.36 46.91 C-198.27 42.67 -186.32 46.37 -177.62 47.61 C-176.08 47.83 -174.54 48.05 -172.99 48.26 C-169.78 48.72 -166.56 49.18 -163.35 49.64 C-159.24 50.23 -155.12 50.8 -151.01 51.37 C-147.83 51.82 -144.65 52.27 -141.47 52.72 C-139.96 52.94 -138.44 53.15 -136.92 53.36 C-134.8 53.65 -132.69 53.96 -130.57 54.27 C-128.77 54.53 -128.77 54.53 -126.93 54.79 C-123.64 55.55 -121.46 56.56 -118.73 58.53 C-117.23 61.55 -117.23 63.15 -117.73 66.53 C-119.75 69.51 -122.21 71.99 -124.73 74.53 C-125.48 75.29 -126.22 76.04 -126.98 76.82 C-128.88 78.74 -130.8 80.64 -132.73 82.53 C-115.24 91.28 -94.93 90.27 -76.73 84.53 C-63.84 80.16 -53.41 73.02 -43.73 63.53 C-43.12 62.94 -42.5 62.35 -41.87 61.74 C-28.72 48.02 -22.61 29.13 -21.54 10.51 C-21.19 5.65 -20.32 2.88 -16.73 -0.47 C-11.48 -2.52 -5.43 -0.74 0 0 Z " fill="#E50027" transform="translate(230.734619140625,120.46875)"/>
<path d="M0 0 C17.52 0 17.52 0 24.94 1.62 C25.78 1.8 26.62 1.98 27.49 2.16 C41.08 5.19 53.53 10.94 66 17 C66.44 16.52 66.89 16.03 67.34 15.53 C69.37 13.33 71.44 11.17 73.5 9 C74.54 7.86 74.54 7.86 75.61 6.69 C81.58 0.49 81.58 0.49 86.28 0.25 C90 1 90 1 92.39 2.39 C94.81 6.31 95.21 10.16 95.81 14.69 C95.96 15.72 96.12 16.76 96.27 17.82 C96.64 20.32 96.99 22.82 97.34 25.32 C97.98 29.9 98.65 34.47 99.33 39.04 C99.98 43.45 100.62 47.87 101.26 52.28 C101.59 54.5 101.91 56.73 102.24 58.95 C102.7 62.13 103.16 65.3 103.61 68.48 C103.82 69.91 103.82 69.91 104.03 71.37 C105.88 84.38 105.88 84.38 103.38 89 C95.03 93.95 80.57 89.37 71.28 88 C69.93 87.81 68.57 87.61 67.21 87.42 C64.4 87.01 61.59 86.6 58.78 86.19 C55.2 85.66 51.61 85.15 48.02 84.63 C45.23 84.23 42.45 83.83 39.66 83.42 C37.7 83.13 35.74 82.85 33.77 82.57 C32.58 82.4 31.38 82.22 30.15 82.04 C29.1 81.88 28.06 81.73 26.98 81.58 C23.13 80.83 19.46 79.92 16.12 77.81 C14.16 74.65 14.4 72.65 15 69 C16.99 65.99 19.44 63.53 22 61 C22.74 60.25 23.48 59.49 24.25 58.71 C26.15 56.79 28.07 54.89 30 53 C20.64 48.32 10.29 47.14 0 46 C0 30.82 0 15.64 0 0 Z " fill="#10BB66" transform="translate(128,0)"/>
<path d="M0 0 C1.54 0.22 3.09 0.43 4.63 0.65 C7.84 1.1 11.06 1.56 14.27 2.03 C18.39 2.62 22.5 3.19 26.61 3.76 C29.79 4.2 32.97 4.66 36.15 5.11 C37.67 5.33 39.18 5.54 40.7 5.75 C42.82 6.04 44.94 6.35 47.05 6.66 C48.25 6.83 49.46 7 50.7 7.18 C53.98 7.94 56.16 8.95 58.89 10.92 C60.4 13.94 60.39 15.54 59.89 18.92 C57.87 21.89 55.42 24.37 52.89 26.92 C52.15 27.67 51.4 28.43 50.64 29.21 C48.74 31.13 46.82 33.03 44.89 34.92 C54.24 39.6 64.6 40.77 74.89 41.92 C74.89 57.1 74.89 72.28 74.89 87.92 C57.37 87.92 57.37 87.92 49.95 86.29 C49.11 86.12 48.27 85.94 47.4 85.76 C33.81 82.73 21.36 76.98 8.89 70.92 C8.44 71.4 7.99 71.88 7.53 72.37 C5.48 74.55 3.4 76.7 1.32 78.86 C0.62 79.61 -0.08 80.36 -0.81 81.14 C-6.81 87.3 -6.81 87.3 -11 87.96 C-15.69 87.9 -15.69 87.9 -18.11 85.92 C-19.95 82.07 -20.64 78.37 -21.26 74.18 C-21.36 73.52 -21.45 72.86 -21.55 72.18 C-21.87 70.02 -22.19 67.85 -22.5 65.69 C-22.72 64.17 -22.94 62.66 -23.16 61.14 C-23.62 57.96 -24.08 54.79 -24.54 51.61 C-25.12 47.56 -25.71 43.52 -26.31 39.47 C-26.77 36.34 -27.22 33.21 -27.67 30.07 C-27.88 28.58 -28.1 27.09 -28.32 25.6 C-31.44 4.44 -31.44 4.44 -28.74 -0.71 C-20.65 -4.95 -8.7 -1.25 0 0 Z " fill="#FD003A" transform="translate(53.11328125,168.08203125)"/>
</svg>
