<?xml version="1.0" encoding="UTF-8"?>
<!-- Generator: visioncortex VTracer 0.6.4 -->
<svg version="1.1" xmlns="http://www.w3.org/2000/svg" width="256" height="256">
<path d="M0 0 C0.7 -0.01 1.41 -0.01 2.13 -0.02 C4.44 -0.03 6.75 -0.01 9.06 0.01 C10.67 0.01 12.28 0 13.9 0 C17.27 -0 20.65 0.01 24.02 0.04 C28.34 0.06 32.66 0.06 36.98 0.05 C40.31 0.04 43.64 0.05 46.97 0.06 C48.56 0.07 50.15 0.07 51.74 0.06 C53.97 0.06 56.2 0.08 58.43 0.1 C59.69 0.1 60.96 0.11 62.26 0.11 C66.05 0.54 68.47 1.52 71.71 3.5 C75.36 8.28 75.84 13.06 75.83 18.93 C75.83 20 75.83 21.06 75.83 22.15 C75.82 23.28 75.82 24.42 75.81 25.58 C75.81 27.34 75.81 27.34 75.81 29.13 C75.8 32.86 75.79 36.59 75.78 40.31 C75.77 42.84 75.77 45.38 75.76 47.91 C75.75 54.1 75.73 60.3 75.71 66.5 C76.64 66.47 77.56 66.43 78.52 66.4 C82.74 66.53 84.48 67.83 87.71 70.5 C93.07 76.23 92.25 82.53 92.17 90.03 C92.17 91.41 92.17 92.79 92.17 94.17 C92.17 97.91 92.15 101.64 92.12 105.38 C92.09 109.29 92.09 113.2 92.09 117.1 C92.07 124.5 92.04 131.89 92 139.29 C91.96 147.71 91.93 156.13 91.91 164.55 C91.87 181.87 91.8 199.18 91.71 216.5 C92.81 216.46 93.9 216.41 95.03 216.36 C98.71 216.5 98.71 216.5 101.59 218.75 C104.8 222.91 104.87 226.26 104.9 231.44 C104.91 232.46 104.93 233.48 104.94 234.53 C104.61 238.88 103.73 241.42 100.73 244.62 C96.5 247.26 93.07 247.06 88.19 247.01 C87.22 247.02 86.26 247.02 85.26 247.03 C82.03 247.04 78.8 247.03 75.56 247.02 C73.24 247.02 70.93 247.03 68.61 247.04 C62.31 247.06 56.01 247.05 49.72 247.04 C43.13 247.03 36.54 247.04 29.96 247.04 C18.19 247.05 6.42 247.04 -5.35 247.02 C-16.02 247 -26.68 247 -37.35 247.02 C-49.75 247.04 -62.14 247.05 -74.53 247.04 C-81.09 247.03 -87.65 247.03 -94.21 247.05 C-100.37 247.06 -106.54 247.05 -112.7 247.03 C-114.97 247.02 -117.23 247.02 -119.5 247.03 C-122.59 247.04 -125.67 247.03 -128.76 247.01 C-129.66 247.02 -130.56 247.03 -131.49 247.04 C-135.6 246.98 -137.74 246.84 -141.3 244.62 C-146.01 239.6 -145.65 234.17 -145.54 227.61 C-145.24 223.94 -144.46 221.48 -142.29 218.5 C-138.85 216.21 -137.3 216.32 -133.29 216.5 C-133.29 215.8 -133.29 215.1 -133.3 214.38 C-133.36 197.37 -133.41 180.35 -133.44 163.33 C-133.46 155.1 -133.48 146.87 -133.51 138.64 C-133.54 131.46 -133.56 124.29 -133.57 117.11 C-133.57 113.31 -133.58 109.52 -133.6 105.72 C-133.62 102.14 -133.63 98.56 -133.63 94.98 C-133.63 93.05 -133.64 91.12 -133.66 89.19 C-133.64 82.58 -133.23 77.47 -130.29 71.5 C-125.9 67.23 -122.52 66.37 -116.53 66.4 C-115.41 66.41 -114.29 66.41 -113.14 66.41 C-111.97 66.42 -110.8 66.43 -109.6 66.44 C-108.42 66.44 -107.24 66.45 -106.03 66.45 C-103.11 66.46 -100.2 66.48 -97.29 66.5 C-97.31 65.71 -97.34 64.91 -97.37 64.09 C-97.47 60.44 -97.54 56.78 -97.6 53.13 C-97.64 51.88 -97.68 50.62 -97.73 49.33 C-97.84 40.41 -96.69 33.4 -90.58 26.6 C-85.2 21.45 -79.27 19.39 -71.91 19.06 C-64.39 19.31 -58.04 21.56 -52.41 26.63 C-45.27 34.81 -44.74 43.65 -45.04 54.13 C-45.12 58.21 -45.2 62.29 -45.29 66.5 C-35.72 66.5 -26.15 66.5 -16.29 66.5 C-16.32 62.53 -16.36 58.56 -16.39 54.46 C-16.42 50.61 -16.43 46.76 -16.45 42.91 C-16.47 40.23 -16.49 37.56 -16.51 34.88 C-16.55 31.03 -16.57 27.19 -16.58 23.34 C-16.6 22.14 -16.61 20.95 -16.63 19.72 C-16.63 8.91 -16.63 8.91 -13.29 4.5 C-8.76 0.89 -5.76 0 0 0 Z M-7.29 11.5 C-7.59 13.82 -7.59 13.82 -7.54 16.55 C-7.55 17.62 -7.55 18.69 -7.56 19.79 C-7.55 20.97 -7.55 22.14 -7.55 23.36 C-7.55 24.59 -7.55 25.83 -7.56 27.1 C-7.56 30.49 -7.56 33.89 -7.56 37.28 C-7.55 40.83 -7.56 44.38 -7.56 47.93 C-7.56 53.89 -7.56 59.84 -7.55 65.8 C-7.54 72.7 -7.54 79.59 -7.55 86.49 C-7.56 92.4 -7.56 98.31 -7.56 104.23 C-7.55 107.76 -7.55 111.3 -7.56 114.83 C-7.57 118.77 -7.56 122.71 -7.55 126.65 C-7.55 127.83 -7.55 129 -7.56 130.22 C-7.55 131.28 -7.55 132.35 -7.54 133.45 C-7.54 134.39 -7.54 135.32 -7.54 136.28 C-7.5 138.71 -7.5 138.71 -5.29 140.5 C-2.27 140.82 -2.27 140.82 1.33 140.78 C2.01 140.78 2.69 140.79 3.39 140.79 C5.65 140.81 7.9 140.8 10.15 140.8 C11.71 140.81 13.27 140.81 14.84 140.82 C18.11 140.82 21.39 140.82 24.66 140.82 C28.86 140.81 33.07 140.83 37.27 140.85 C40.5 140.87 43.72 140.87 46.95 140.86 C48.5 140.86 50.05 140.87 51.6 140.88 C53.76 140.89 55.93 140.89 58.09 140.87 C59.32 140.87 60.56 140.88 61.83 140.88 C62.78 140.75 63.73 140.63 64.71 140.5 C66.91 137.21 66.96 136.24 66.97 132.42 C66.97 131.36 66.98 130.31 66.98 129.23 C66.98 128.08 66.98 126.92 66.97 125.73 C66.98 124.52 66.98 123.3 66.98 122.05 C66.99 118.72 66.99 115.39 66.98 112.06 C66.98 108.57 66.98 105.08 66.98 101.6 C66.99 95.74 66.98 89.89 66.97 84.03 C66.96 77.26 66.97 70.49 66.98 63.72 C66.99 57.91 66.99 52.1 66.98 46.29 C66.98 42.82 66.98 39.35 66.99 35.88 C66.99 32.01 66.98 28.14 66.97 24.27 C66.98 23.12 66.98 21.96 66.98 20.77 C66.98 19.72 66.97 18.67 66.97 17.59 C66.97 16.67 66.97 15.76 66.96 14.81 C66.86 12.23 66.86 12.23 64.71 9.5 C61.59 9.14 61.59 9.14 58.09 9.31 C56.9 9.34 55.71 9.37 54.49 9.4 C53.11 9.45 53.11 9.45 51.71 9.5 C51.61 10.19 51.52 10.88 51.42 11.58 C51.27 12.48 51.12 13.39 50.96 14.31 C50.82 15.21 50.68 16.1 50.54 17.02 C49.48 20.19 48.61 20.86 45.71 22.5 C43.13 22.77 40.79 22.88 38.21 22.83 C37.13 22.83 37.13 22.83 36.03 22.82 C34.51 22.82 32.99 22.8 31.48 22.78 C29.15 22.75 26.83 22.74 24.51 22.74 C23.04 22.73 21.56 22.72 20.08 22.7 C19.39 22.7 18.7 22.7 17.98 22.69 C14.96 22.65 12.61 22.47 9.71 21.5 C9.05 17.54 8.39 13.58 7.71 9.5 C5.59 9.45 3.46 9.41 1.34 9.38 C0.15 9.35 -1.03 9.33 -2.25 9.31 C-5.4 9.17 -5.4 9.17 -7.29 11.5 Z M-85.6 34.81 C-89.72 41.37 -89.55 47.93 -89.41 55.44 C-89.4 56.41 -89.39 57.38 -89.38 58.38 C-89.36 60.75 -89.33 63.13 -89.29 65.5 C-87.31 64.84 -85.33 64.18 -83.29 63.5 C-83.28 62.9 -83.27 62.29 -83.26 61.67 C-83.2 58.9 -83.12 56.14 -83.04 53.38 C-83.02 51.95 -83.02 51.95 -82.99 50.49 C-82.79 44.58 -82.22 41.02 -78.29 36.5 C-75.96 35.34 -74.5 35.34 -71.91 35.31 C-70.76 35.29 -70.76 35.29 -69.58 35.27 C-67 35.53 -65.46 36.11 -63.29 37.5 C-59.75 42.8 -60.02 48.62 -59.72 54.81 C-59.68 55.65 -59.64 56.49 -59.59 57.35 C-59.49 59.4 -59.39 61.45 -59.29 63.5 C-57.64 64.16 -55.99 64.82 -54.29 65.5 C-54.17 61.67 -54.1 57.84 -54.04 54 C-54 52.92 -53.97 51.85 -53.94 50.74 C-53.84 43.08 -54.66 37.3 -60.08 31.63 C-69.29 25.98 -78 27.21 -85.6 34.81 Z M-72.29 42.5 C-74.45 44.26 -74.45 44.26 -74.51 46.38 C-74.5 47.12 -74.49 47.87 -74.48 48.63 C-74.48 49.44 -74.47 50.25 -74.46 51.08 C-74.45 51.92 -74.43 52.76 -74.41 53.63 C-74.4 54.48 -74.39 55.33 -74.38 56.2 C-74.36 58.3 -74.33 60.4 -74.29 62.5 C-72.31 62.5 -70.33 62.5 -68.29 62.5 C-68.29 56.56 -68.29 50.62 -68.29 44.5 C-69.61 43.84 -70.93 43.18 -72.29 42.5 Z M-122.89 77.17 C-124.62 80.06 -124.66 81.83 -124.65 85.18 C-124.65 86.34 -124.66 87.5 -124.66 88.69 C-124.65 89.96 -124.64 91.22 -124.63 92.53 C-124.63 93.9 -124.63 95.28 -124.63 96.65 C-124.63 100.32 -124.61 103.99 -124.59 107.67 C-124.57 111.12 -124.57 114.56 -124.57 118.01 C-124.56 128.09 -124.51 138.17 -124.47 148.25 C-124.41 170.77 -124.35 193.3 -124.29 216.5 C-55.98 216.5 12.33 216.5 82.71 216.5 C82.77 193.79 82.84 171.09 82.9 147.69 C82.93 140.51 82.96 133.33 82.98 125.94 C82.99 119.52 82.99 119.52 83 113.1 C83 110.24 83.01 107.37 83.03 104.51 C83.05 100.86 83.06 97.21 83.05 93.55 C83.05 91.58 83.07 89.6 83.09 87.63 C83.08 86.46 83.08 85.3 83.07 84.1 C83.08 83.09 83.08 82.07 83.08 81.03 C82.9 78.48 82.9 78.48 81.44 76.65 C79.5 75.13 79.5 75.13 75.71 75.5 C75.7 76.62 75.7 76.62 75.69 77.77 C75.61 84.85 75.52 91.92 75.43 99 C75.38 102.64 75.33 106.27 75.29 109.91 C75.25 113.43 75.21 116.94 75.15 120.45 C75.13 122.44 75.11 124.42 75.09 126.41 C74.99 132.47 74.82 137.79 72.71 143.5 C72.38 144.49 72.05 145.48 71.71 146.5 C67.26 148.5 63.26 148.76 58.43 148.79 C57.37 148.8 57.37 148.8 56.29 148.81 C53.99 148.83 51.68 148.84 49.37 148.84 C47.76 148.84 46.14 148.85 44.53 148.86 C41.15 148.87 37.78 148.87 34.4 148.87 C30.08 148.87 25.77 148.9 21.45 148.93 C18.12 148.96 14.79 148.96 11.46 148.96 C9.87 148.96 8.27 148.97 6.68 148.99 C4.45 149.01 2.23 149 0 148.99 C-1.27 148.99 -2.53 148.99 -3.83 149 C-7.99 148.4 -10.1 147.22 -13.29 144.5 C-15.45 140.75 -15.56 137.34 -15.61 133.06 C-15.63 131.78 -15.65 130.5 -15.67 129.18 C-15.68 127.79 -15.69 126.4 -15.7 125.01 C-15.72 123.59 -15.74 122.16 -15.76 120.73 C-15.81 116.98 -15.85 113.24 -15.89 109.49 C-15.93 105.66 -15.98 101.84 -16.03 98.01 C-16.13 90.51 -16.21 83 -16.29 75.5 C-24.21 75.5 -32.13 75.5 -40.29 75.5 C-39.19 77.25 -38.1 79.01 -36.97 80.81 C-30.59 91.82 -28.44 102.66 -31.47 115.13 C-33.21 120.88 -35.59 126.86 -39.94 131.13 C-41.52 132.42 -41.52 132.42 -41.29 134.5 C-41.86 134.77 -42.43 135.04 -43.01 135.32 C-45.3 136.46 -45.3 136.46 -47.37 137.9 C-57.99 145.02 -69.21 146.53 -81.58 144.36 C-92.23 141.9 -100.72 135.9 -106.6 126.69 C-112.44 116.09 -114.13 105.09 -111.56 93.12 C-109.69 87.06 -107.18 82.47 -103.29 77.5 C-103.29 76.84 -103.29 76.18 -103.29 75.5 C-106.23 75.39 -109.16 75.31 -112.1 75.25 C-112.93 75.22 -113.77 75.18 -114.62 75.15 C-115.83 75.13 -115.83 75.13 -117.06 75.11 C-117.8 75.09 -118.53 75.07 -119.29 75.05 C-121.43 75.34 -121.43 75.34 -122.89 77.17 Z " fill="#101F2D" transform="translate(148.287109375,4.498291015625)"/>
<path d="M0 0 C6.27 3.91 10.78 10.44 13.19 17.34 C15.73 28.54 14.41 38.31 8.76 48.15 C3.9 55.48 -3.62 59.67 -11.99 61.97 C-23.15 62.98 -32.32 61.83 -41.14 54.7 C-47.66 48.61 -52.29 40.93 -53.34 31.98 C-53.64 21.47 -50.74 13.07 -43.99 4.97 C-41.5 2.61 -38.91 0.75 -35.99 -1.03 C-35.32 -1.44 -34.66 -1.85 -33.97 -2.28 C-22.93 -8.16 -10.58 -5.47 0 0 Z " fill="#62C1F3" transform="translate(95.98828125,80.02734375)"/>
<path d="M0 0 C76.56 0 153.12 0 232 0 C232 4.29 232 8.58 232 13 C230.11 14.89 227.37 14.13 224.86 14.13 C223.96 14.13 223.07 14.13 222.15 14.13 C221.22 14.13 220.28 14.13 219.31 14.13 C216.14 14.14 212.96 14.13 209.79 14.13 C207.52 14.13 205.26 14.13 203 14.13 C196.83 14.14 190.66 14.14 184.49 14.13 C178.05 14.13 171.61 14.13 165.17 14.14 C153.65 14.14 142.14 14.13 130.63 14.13 C120.18 14.12 109.74 14.13 99.29 14.13 C87.17 14.14 75.05 14.14 62.93 14.13 C56.51 14.13 50.09 14.13 43.67 14.14 C37.64 14.14 31.6 14.14 25.57 14.13 C23.35 14.13 21.12 14.13 18.9 14.13 C15.88 14.14 12.86 14.13 9.85 14.13 C8.51 14.13 8.51 14.13 7.14 14.13 C1.11 14.11 1.11 14.11 0 13 C0 8.71 0 4.42 0 0 Z " fill="#EB6360" transform="translate(12,229)"/>
<path d="M0 0 C0.62 0.39 1.24 0.77 1.88 1.17 C3.56 2.38 3.56 2.38 6 5 C6.44 8.25 6.44 8.25 6 11 C5 12 5 12 2.25 12.31 C-1.78 11.93 -2.93 10.56 -6 8 C-11.64 4.92 -16.8 4.25 -23 6 C-29.43 8.7 -33.03 12.75 -36 19 C-36.82 22.1 -37.17 25.19 -37.5 28.38 C-38.43 35.66 -39.54 43.54 -45 49 C-47 49.04 -49 49.04 -51 49 C-52.21 45.07 -52.12 42.85 -50.25 39.31 C-47.84 34.5 -47.3 29.83 -46.62 24.56 C-45.29 14.92 -42.89 7.84 -35.06 1.56 C-33.73 0.68 -32.37 -0.18 -31 -1 C-29.99 -1.62 -28.98 -2.24 -27.94 -2.88 C-19.07 -6.28 -7.91 -5.06 0 0 Z " fill="#0F1E2C" transform="translate(197,50)"/>
<path d="M0 0 C3.41 2.07 5.39 3.62 7.64 6.99 C7.82 10.11 7.82 10.11 7.64 12.99 C6.64 13.99 6.64 13.99 3.89 14.36 C0.64 13.99 0.64 13.99 -1.8 11.49 C-4.21 8.67 -4.21 8.67 -7.93 8.36 C-11.44 8.67 -11.44 8.67 -13.52 11.08 C-15.74 14.57 -16.02 17.01 -16.36 21.11 C-17.29 30 -19.37 39.08 -25.36 45.99 C-28.11 46.86 -28.11 46.86 -30.36 46.99 C-31.99 45.3 -31.99 45.3 -33.36 42.99 C-32.73 40.54 -31.67 38.53 -30.43 36.34 C-27.23 30.07 -26.37 23.74 -25.58 16.82 C-24.74 10.31 -22.78 6.17 -17.8 1.68 C-12.64 -1.9 -5.79 -2.48 0 0 Z " fill="#0F1E2C" transform="translate(188.36328125,60.01171875)"/>
<path d="M0 0 C4.24 1.6 6.64 3.15 9 7 C9.79 11.36 10.04 16.01 7.95 20.02 C6.19 22.15 4.48 23.76 2 25 C1.66 27.33 1.33 29.67 1 32 C0.34 32.66 -0.32 33.32 -1 34 C-5.56 33.44 -5.56 33.44 -7 32 C-7.06 30.42 -7.06 30.42 -7.12 28.81 C-8.18 24.19 -9.71 23.06 -13.41 20.36 C-15.97 18.17 -16.01 15.95 -16.31 12.69 C-15.87 7.52 -13.71 4.83 -10.25 1.12 C-6.87 -0.57 -3.66 -0.52 0 0 Z " fill="#132433" transform="translate(80,101)"/>
<path d="M0 0 C1.65 0.33 3.3 0.66 5 1 C5.33 2.32 5.66 3.64 6 5 C6.99 4.34 7.98 3.68 9 3 C11.56 2.75 11.56 2.75 14 3 C14.66 3.66 15.32 4.32 16 5 C15.88 7.94 15.88 7.94 15 11 C12.94 12.88 12.94 12.88 11 14 C11.85 14.72 12.69 15.44 13.56 16.19 C16 19 16 19 15.88 21.75 C15 24 15 24 14 25 C11.66 24.71 9.33 24.38 7 24 C6.61 24.66 6.22 25.32 5.81 26 C4 28 4 28 1.44 28.44 C0.63 28.29 -0.17 28.15 -1 28 C-1.66 27.01 -2.32 26.02 -3 25 C-5.33 24.96 -7.67 24.96 -10 25 C-10.66 24.34 -11.32 23.68 -12 23 C-11.82 19.62 -11.21 18.24 -8.94 15.69 C-7.98 14.85 -7.98 14.85 -7 14 C-7.82 13.44 -8.65 12.89 -9.5 12.31 C-12 10 -12 10 -12.44 7.38 C-12 5 -12 5 -10 3 C-7.22 2.79 -5.51 2.74 -3 4 C-2.01 2.68 -1.02 1.36 0 0 Z " fill="#0F1E2C" transform="translate(165,164)"/>
<path d="M0 0 C2.33 0.85 3.45 1.9 5.06 3.75 C5.39 3.42 5.72 3.09 6.06 2.75 C8.5 2.56 8.5 2.56 11.06 2.75 C13.06 4.75 13.06 4.75 13.5 7.12 C13.06 9.75 13.06 9.75 10.56 12.06 C9.33 12.9 9.33 12.9 8.06 13.75 C8.91 14.47 9.75 15.19 10.62 15.94 C13.06 18.75 13.06 18.75 12.94 21.5 C12.06 23.75 12.06 23.75 11.06 24.75 C9.93 24.71 8.79 24.67 7.62 24.62 C5.86 24.69 5.86 24.69 4.06 24.75 C3.4 25.74 2.74 26.73 2.06 27.75 C-0.38 28.19 -0.38 28.19 -2.94 27.75 C-4.75 25.75 -4.75 25.75 -5.94 23.75 C-7.05 23.96 -8.17 24.16 -9.31 24.38 C-10.51 24.5 -11.7 24.62 -12.94 24.75 C-13.6 24.09 -14.26 23.43 -14.94 22.75 C-14.76 19.37 -14.15 17.99 -11.88 15.44 C-10.92 14.6 -10.92 14.6 -9.94 13.75 C-10.78 13.03 -11.63 12.31 -12.5 11.56 C-14.94 8.75 -14.94 8.75 -14.81 6 C-13.94 3.75 -13.94 3.75 -12.94 2.75 C-9.22 2.46 -8.16 2.6 -4.94 4.75 C-4.81 4.11 -4.69 3.47 -4.56 2.81 C-4.36 2.13 -4.15 1.45 -3.94 0.75 C-1.94 -0.25 -1.94 -0.25 0 0 Z " fill="#0F1E2C" transform="translate(89.9375,164.25)"/>
<path d="M0 0 C2.75 0.25 2.75 0.25 5 1 C5.33 2.32 5.66 3.64 6 5 C6.99 4.34 7.98 3.68 9 3 C12.19 3.38 12.19 3.38 15 4 C15.81 6.12 15.81 6.12 16 9 C14.56 11.3 12.89 13.02 11 15 C12.65 16.65 14.3 18.3 16 20 C15.01 22.47 15.01 22.47 14 25 C12 25.04 10 25.04 8 25 C7.67 24.67 7.34 24.34 7 24 C6.61 24.66 6.22 25.32 5.81 26 C4 28 4 28 1.31 28.25 C0.55 28.17 -0.21 28.09 -1 28 C-1.66 26.68 -2.32 25.36 -3 24 C-3.66 24.33 -4.32 24.66 -5 25 C-7 25.04 -9 25.04 -11 25 C-11.81 22.31 -11.81 22.31 -12 19 C-9.56 16.12 -9.56 16.12 -7 14 C-7.82 13.44 -8.65 12.89 -9.5 12.31 C-12 10 -12 10 -12.44 7.38 C-12 5 -12 5 -10 3 C-9.05 3.21 -8.1 3.41 -7.12 3.62 C-6.09 3.75 -5.06 3.87 -4 4 C-2.65 2.69 -1.31 1.35 0 0 Z " fill="#0F1E2D" transform="translate(204,164)"/>
<path d="M0 0 C0.66 0.99 1.32 1.98 2 3 C3.42 2.69 3.42 2.69 4.88 2.38 C5.91 2.25 6.94 2.13 8 2 C10 4 10 4 10.44 6.38 C10 9 10 9 7.5 11.31 C6.26 12.15 6.26 12.15 5 13 C5.85 13.7 6.69 14.4 7.56 15.12 C10 18 10 18 9.81 21.31 C9.54 22.2 9.28 23.09 9 24 C3.25 24.12 3.25 24.12 1 23 C0.34 24.32 -0.32 25.64 -1 27 C-3.31 27.25 -3.31 27.25 -6 27 C-7.81 25 -7.81 25 -9 23 C-9.33 23.33 -9.66 23.66 -10 24 C-12 24.04 -14 24.04 -16 24 C-16.66 22.35 -17.32 20.7 -18 19 C-16.35 17.02 -14.7 15.04 -13 13 C-13.85 12.28 -14.69 11.56 -15.56 10.81 C-18 8 -18 8 -17.81 5.19 C-17.54 4.47 -17.28 3.74 -17 3 C-14.19 2.38 -14.19 2.38 -11 2 C-10.01 2.66 -9.02 3.32 -8 4 C-7.88 3.36 -7.75 2.72 -7.62 2.06 C-7.42 1.38 -7.21 0.7 -7 0 C-4.28 -1.36 -2.87 -0.86 0 0 Z " fill="#0F1E2C" transform="translate(54,165)"/>
<path d="M0 0 C2.62 0.94 2.62 0.94 5 2 C5 2.99 5 3.98 5 5 C5.99 4.34 6.98 3.68 8 3 C11.19 3.38 11.19 3.38 14 4 C14.81 6.12 14.81 6.12 15 9 C13.56 11.3 11.89 13.02 10 15 C10.85 15.74 11.69 16.49 12.56 17.25 C15 20 15 20 14.88 22.25 C14 24 14 24 13 25 C10 25.12 10 25.12 7 25 C6.67 24.67 6.34 24.34 6 24 C5.67 24.99 5.34 25.98 5 27 C-0.75 28.12 -0.75 28.12 -3 27 C-3.33 26.01 -3.66 25.02 -4 24 C-4.33 24.33 -4.66 24.66 -5 25 C-7.94 25.19 -7.94 25.19 -11 25 C-11.66 24.34 -12.32 23.68 -13 23 C-12.82 19.62 -12.21 18.24 -9.94 15.69 C-8.98 14.85 -8.98 14.85 -8 14 C-8.85 13.28 -9.69 12.56 -10.56 11.81 C-13 9 -13 9 -12.81 6.19 C-12.54 5.47 -12.28 4.74 -12 4 C-9.19 3.38 -9.19 3.38 -6 3 C-5.01 3.66 -4.02 4.32 -3 5 C-2.88 4.36 -2.75 3.72 -2.62 3.06 C-2.42 2.38 -2.21 1.7 -2 1 C-1.34 0.67 -0.68 0.34 0 0 Z " fill="#0F1E2D" transform="translate(127,164)"/>
<path d="M0 0 C3 0.12 3 0.12 4 1.12 C4.93 14.49 4 28.88 -2 41.12 C-4.44 42.12 -4.44 42.12 -7 42.12 C-8.88 41.12 -8.88 41.12 -10 39.12 C-9.85 35.72 -9.15 32.71 -8.32 29.41 C-6.49 21.93 -5.37 14.61 -4.65 6.95 C-3.99 0.17 -3.99 0.17 0 0 Z " fill="#0F1E2D" transform="translate(206,68.875)"/>
<path d="M0 0 C0.78 0.25 1.57 0.5 2.38 0.75 C5.34 6.69 2.62 15.59 0.72 21.67 C-1.19 27.37 -3.31 32.71 -6.62 37.75 C-8.6 37.75 -10.59 37.75 -12.62 37.75 C-13.79 35.64 -13.79 35.64 -14.62 32.75 C-13.61 29.8 -13.61 29.8 -11.94 26.5 C-8.91 20.2 -7.53 14.18 -6.65 7.26 C-6.4 5.41 -6.02 3.58 -5.62 1.75 C-2.62 -0.25 -2.62 -0.25 0 0 Z " fill="#0F1E2D" transform="translate(181.625,73.25)"/>
<path d="M0 0 C2.47 10.47 -2.84 22.01 -8 31 C-10.38 31.12 -10.38 31.12 -13 31 C-13.66 30.34 -14.32 29.68 -15 29 C-14.62 23.73 -13.19 18.92 -11.56 13.94 C-11.35 13.26 -11.13 12.57 -10.9 11.87 C-10.48 10.54 -10.05 9.21 -9.61 7.88 C-9.04 6.12 -8.5 4.34 -7.96 2.57 C-6.28 -1.93 -4.13 -0.98 0 0 Z " fill="#0F1E2C" transform="translate(196,82)"/>
<path d="M0 0 C1.12 -0.01 2.25 -0.02 3.4 -0.04 C5.01 -0.04 5.01 -0.04 6.65 -0.04 C8.14 -0.05 8.14 -0.05 9.65 -0.06 C12.06 0.19 12.06 0.19 14.06 2.19 C13.81 5.25 13.81 5.25 13.06 8.19 C9.18 10.13 4.39 9.42 0.12 9.44 C-0.89 9.46 -1.91 9.48 -2.95 9.5 C-3.93 9.51 -4.9 9.51 -5.9 9.52 C-6.8 9.52 -7.69 9.53 -8.61 9.54 C-10.94 9.19 -10.94 9.19 -12.77 7.83 C-13.94 6.19 -13.94 6.19 -13.69 3.56 C-11.91 -2.07 -5.04 0 0 0 Z " fill="#0F1F2C" transform="translate(166.9375,196.8125)"/>
<path d="M0 0 C1.12 -0.01 2.25 -0.02 3.4 -0.04 C5.01 -0.04 5.01 -0.04 6.65 -0.04 C8.14 -0.05 8.14 -0.05 9.65 -0.06 C12.06 0.19 12.06 0.19 14.06 2.19 C13.81 5.25 13.81 5.25 13.06 8.19 C9.18 10.13 4.39 9.42 0.12 9.44 C-0.89 9.46 -1.91 9.48 -2.95 9.5 C-3.93 9.51 -4.9 9.51 -5.9 9.52 C-6.8 9.52 -7.69 9.53 -8.61 9.54 C-10.94 9.19 -10.94 9.19 -12.77 7.83 C-13.94 6.19 -13.94 6.19 -13.69 3.56 C-11.91 -2.07 -5.04 0 0 0 Z " fill="#0F1F2C" transform="translate(88.9375,196.8125)"/>
<path d="M0 0 C1.12 0 2.24 0.01 3.39 0.01 C5.07 -0.01 5.07 -0.01 6.78 -0.04 C8.38 -0.04 8.38 -0.04 10.02 -0.04 C11 -0.04 11.98 -0.05 12.99 -0.05 C14.18 0.13 14.18 0.13 15.39 0.32 C17.39 3.32 17.39 3.32 17.14 5.38 C16.39 7.32 16.39 7.32 14.39 9.32 C12.19 9.58 12.19 9.58 9.49 9.59 C8.03 9.59 8.03 9.59 6.54 9.6 C5.52 9.59 4.5 9.58 3.45 9.57 C2.44 9.58 1.42 9.59 0.38 9.6 C-0.6 9.59 -1.57 9.59 -2.57 9.59 C-3.47 9.59 -4.36 9.58 -5.28 9.58 C-7.61 9.32 -7.61 9.32 -10.61 7.32 C-10.92 4.82 -10.92 4.82 -10.61 2.32 C-7.51 -0.78 -4.24 0.03 0 0 Z " fill="#0F1F2D" transform="translate(202.609375,196.677734375)"/>
<path d="M0 0 C1.12 -0.01 2.25 -0.02 3.4 -0.04 C5.01 -0.04 5.01 -0.04 6.65 -0.04 C8.14 -0.05 8.14 -0.05 9.65 -0.06 C12.06 0.19 12.06 0.19 14.06 2.19 C14.38 4.69 14.38 4.69 14.06 7.19 C9.59 10.17 5.32 9.52 0.06 9.5 C-0.95 9.52 -1.96 9.53 -3 9.55 C-4.45 9.55 -4.45 9.55 -5.94 9.55 C-6.82 9.55 -7.71 9.56 -8.62 9.56 C-10.94 9.19 -10.94 9.19 -12.77 7.83 C-13.94 6.19 -13.94 6.19 -13.69 3.56 C-11.91 -2.07 -5.04 0 0 0 Z " fill="#0F1F2D" transform="translate(49.9375,196.8125)"/>
<path d="M0 0 C1.12 -0.02 2.25 -0.04 3.4 -0.06 C4.48 -0.07 5.55 -0.07 6.65 -0.08 C7.64 -0.09 8.63 -0.1 9.65 -0.11 C10.44 0.01 11.24 0.13 12.06 0.25 C14.06 3.25 14.06 3.25 13.81 5.88 C13.56 6.66 13.32 7.44 13.06 8.25 C9.18 10.19 4.39 9.48 0.12 9.5 C-0.89 9.52 -1.91 9.54 -2.95 9.56 C-3.93 9.57 -4.9 9.57 -5.9 9.58 C-6.8 9.59 -7.69 9.6 -8.61 9.61 C-10.94 9.25 -10.94 9.25 -12.77 7.89 C-13.94 6.25 -13.94 6.25 -13.69 3.62 C-11.91 -2.01 -5.04 0.02 0 0 Z " fill="#0F1E2C" transform="translate(127.9375,196.75)"/>
<path d="M0 0 C9.24 0 18.48 0 28 0 C28 1.98 28 3.96 28 6 C27 7 27 7 24.41 7.11 C23.28 7.11 22.16 7.1 21 7.1 C19.78 7.09 18.57 7.09 17.31 7.09 C16.04 7.08 14.76 7.07 13.44 7.06 C12.15 7.06 10.87 7.05 9.55 7.05 C6.37 7.04 3.18 7.02 0 7 C0 4.69 0 2.38 0 0 Z " fill="#5EB8E8" transform="translate(164,13)"/>
<path d="M0 0 C1.15 -0.01 2.31 -0.03 3.5 -0.04 C6.56 0.19 6.56 0.19 9.56 2.19 C9.88 4.69 9.88 4.69 9.56 7.19 C7.08 9.67 5.55 9.47 2.15 9.51 C1.12 9.5 1.12 9.5 0.06 9.5 C-0.63 9.52 -1.32 9.53 -2.03 9.55 C-4.03 9.55 -4.03 9.55 -7.44 9.19 C-9.44 6.19 -9.44 6.19 -9.19 3.56 C-8.94 2.78 -8.69 2 -8.44 1.19 C-5.6 -0.23 -3.16 0.02 0 0 Z " fill="#0F1E2D" transform="translate(177.4375,129.8125)"/>
<path d="M0 0 C3 0.25 3 0.25 5 2.25 C5.36 5.08 5.36 6.66 3.88 9.12 C1.08 10.8 -0.94 10 -4 9.25 C-4.62 5.88 -4.62 5.88 -5 2.25 C-3 0.25 -3 0.25 0 0 Z " fill="#EFF0F1" transform="translate(77,108.75)"/>
</svg>
