<?xml version="1.0" encoding="UTF-8"?>
<!-- Generator: visioncortex VTracer 0.6.4 -->
<svg version="1.1" xmlns="http://www.w3.org/2000/svg" width="256" height="256">
<path d="M0 0 C3.86 2 5.6 3.4 8 7 C10.15 7.46 10.15 7.46 12.68 7.38 C14.13 7.4 14.13 7.4 15.62 7.42 C16.67 7.41 17.72 7.41 18.81 7.41 C20.43 7.42 20.43 7.42 22.07 7.44 C25.53 7.47 28.98 7.49 32.44 7.5 C36.98 7.51 41.52 7.55 46.06 7.59 C47.63 7.59 47.63 7.59 49.24 7.58 C50.21 7.59 51.19 7.6 52.19 7.62 C53.05 7.62 53.91 7.62 54.79 7.62 C57.49 8.08 58.38 8.83 60 11 C60.4 14.38 60.13 17.59 60 21 C65.28 21 70.56 21 76 21 C75.94 19.41 75.88 17.82 75.81 16.19 C75.63 11.5 75.63 11.5 77.22 9.37 C79.54 7.59 80.86 7.64 83.76 7.66 C84.72 7.66 85.69 7.66 86.68 7.66 C87.72 7.67 88.76 7.69 89.84 7.7 C92.04 7.69 94.24 7.68 96.44 7.67 C99.91 7.68 103.38 7.69 106.85 7.72 C110.2 7.74 113.55 7.72 116.9 7.7 C117.94 7.72 118.97 7.74 120.04 7.76 C125.23 7.84 125.23 7.84 129.73 5.65 C131.26 3.85 131.26 3.85 133 1 C136.71 -0.86 140.95 -0.44 145 0 C148.76 1.78 150.52 3.33 152.94 6.69 C154.35 11.08 154.21 14.57 153 19 C150.88 22.44 148.9 24.81 145 26 C138.56 26.63 135.29 25.71 130 22 C129.01 20.52 129.01 20.52 128 19 C126.11 18.53 126.11 18.53 123.92 18.57 C123.08 18.55 122.24 18.53 121.37 18.51 C120.01 18.5 120.01 18.5 118.62 18.49 C117.69 18.47 116.76 18.45 115.8 18.43 C112.83 18.38 109.85 18.35 106.88 18.31 C104.86 18.28 102.85 18.24 100.83 18.21 C95.89 18.12 90.94 18.06 86 18 C86.33 19.32 86.66 20.64 87 22 C87.93 22.23 88.86 22.46 89.82 22.7 C107.1 27.12 121.28 34.09 136 44 C136.41 43.58 136.83 43.16 137.25 42.73 C139.12 40.84 141 38.95 142.88 37.06 C143.85 36.07 143.85 36.07 144.85 35.06 C145.47 34.44 146.1 33.81 146.74 33.16 C147.32 32.58 147.89 32 148.49 31.4 C152.91 27.31 159.92 28.77 165.6 28.76 C167.86 28.75 170.11 28.72 172.37 28.69 C173.81 28.68 175.24 28.68 176.68 28.67 C177.99 28.66 179.29 28.65 180.64 28.64 C184.15 29.02 185.58 29.47 188 32 C188.4 34.52 188.4 34.52 188.38 37.38 C188.5 41.37 188.5 41.37 190.35 44.76 C192.17 46.24 192.17 46.24 195 48 C196.86 51.71 196.44 55.95 196 60 C194.22 63.76 192.67 65.52 189.31 67.94 C184.92 69.35 181.43 69.21 177 68 C173.56 65.88 171.19 63.9 170 60 C169.37 53.56 170.29 50.29 174 45 C174.99 44.34 175.98 43.68 177 43 C177.72 40.94 177.72 40.94 178 39 C163.81 37.82 163.81 37.82 151.02 42.52 C148.32 45.07 146.08 47.91 144 51 C144.82 51.93 145.65 52.86 146.5 53.81 C167.55 78.47 177.36 106.7 175 139 C174.5 142.92 173.83 146.78 172.98 150.63 C172.15 154.42 171.73 157.3 173 161 C174.32 163.01 174.32 163.01 176.06 164.81 C176.61 165.42 177.16 166.02 177.72 166.64 C179.86 168.96 179.86 168.96 181.94 170.54 C185.23 173.32 187.63 175.54 188.71 179.8 C188.92 183.09 188.9 186.3 188.78 189.59 C188.77 190.78 188.76 191.97 188.75 193.19 C188.7 196.96 188.6 200.73 188.5 204.5 C188.46 207.07 188.42 209.63 188.39 212.2 C188.3 218.46 188.17 224.73 188 231 C189.18 231.43 189.18 231.43 190.39 231.88 C193 233 193 233 194.81 235 C196.55 239.38 196.68 243.36 196 248 C193.93 252.13 192.25 254.28 188 256 C183.72 256.59 180.07 256.49 176.12 254.69 C171.28 250.84 171.28 250.84 170 247 C169.54 240.89 170.62 236.86 174.56 232.12 C176 231 176 231 178 231 C178.09 223.9 178.1 216.8 178.07 209.7 C178.06 207.29 178.08 204.88 178.11 202.47 C178.15 198.99 178.13 195.51 178.1 192.04 C178.13 190.43 178.13 190.43 178.17 188.8 C178.05 182.51 177.03 179.35 172.56 174.81 C170.41 172.9 168.56 171.28 166 170 C165.61 171.28 165.61 171.28 165.21 172.59 C161.01 184.39 153.32 193.87 145 203 C144.41 203.68 143.81 204.35 143.2 205.05 C130.69 218.55 112.34 226.88 95 232 C96.29 234.67 96.29 234.67 99 237 C102.57 237.79 106.1 237.79 109.75 237.81 C110.73 237.84 111.72 237.86 112.73 237.89 C115.15 237.95 117.58 237.98 120 238 C120.29 237.39 120.57 236.77 120.87 236.14 C122.49 233.08 124.01 231.78 127 230 C131.27 229.3 134.82 229.5 138.81 231.19 C144.68 236.05 144.68 236.05 145.35 240.15 C145.58 246.41 144.12 249.69 139.88 254.31 C135.88 256.66 132.53 256.69 128 256 C124.78 254.53 122.26 252.74 120 250 C120 249.34 120 248.68 120 248 C119.31 248.04 118.63 248.07 117.92 248.11 C114.78 248.26 111.64 248.35 108.5 248.44 C106.88 248.53 106.88 248.53 105.23 248.62 C99.64 248.73 95.93 248.6 91.59 244.85 C89.8 243.06 88.19 241.25 86.66 239.24 C84.33 236.38 82.77 235.18 79.1 234.34 C75.5 233.97 72 233.86 68.38 233.88 C67.12 233.87 65.86 233.87 64.56 233.87 C57.84 234.1 52.88 234.57 47.85 239.26 C45.69 241.72 43.83 244.28 42 247 C39.39 248.3 37.47 248.11 34.55 248.1 C33.48 248.09 32.4 248.09 31.29 248.09 C30.17 248.08 29.04 248.07 27.88 248.06 C26.17 248.06 26.17 248.06 24.43 248.05 C21.62 248.04 18.81 248.02 16 248 C15.71 248.79 15.43 249.58 15.13 250.39 C13.63 253.85 12.49 254.59 9 256 C4.73 256.57 1.18 256.5 -2.81 254.81 C-8.68 249.95 -8.68 249.95 -9.35 245.85 C-9.58 239.59 -8.12 236.31 -3.88 231.69 C0.12 229.34 3.47 229.31 8 230 C11.22 231.47 13.74 233.26 16 236 C16 236.66 16 237.32 16 238 C19.42 237.98 22.83 237.9 26.25 237.81 C27.22 237.81 28.19 237.8 29.18 237.79 C35.03 237.72 35.03 237.72 39.67 234.45 C40.11 233.64 40.55 232.83 41 232 C40.32 231.8 39.64 231.61 38.94 231.41 C10.86 222.74 -12.78 204.8 -26.69 178.75 C-30 172.46 -30 172.46 -30 170 C-31.27 171.1 -32.54 172.21 -33.81 173.31 C-34.52 173.93 -35.23 174.54 -35.96 175.18 C-36.63 175.78 -37.31 176.38 -38 177 C-38.53 177.43 -39.06 177.86 -39.6 178.3 C-41.48 180.59 -41.39 182.02 -41.42 184.96 C-41.44 185.97 -41.45 186.97 -41.47 188.01 C-41.47 189.1 -41.47 190.19 -41.47 191.31 C-41.48 192.43 -41.48 193.55 -41.49 194.7 C-41.5 197.06 -41.51 199.43 -41.5 201.8 C-41.5 205.42 -41.54 209.04 -41.59 212.67 C-41.59 214.96 -41.59 217.26 -41.59 219.56 C-41.61 220.64 -41.63 221.73 -41.64 222.85 C-41.74 228.83 -41.74 228.83 -38.54 233.61 C-37.29 234.3 -37.29 234.3 -36 235 C-33.34 238.55 -33.45 242.73 -34 247 C-35.78 251.12 -38.11 253.77 -42 256 C-47.08 256.84 -50.88 256.56 -55.5 254.25 C-58.4 251.64 -59.77 249.71 -60.3 245.82 C-60.33 239.91 -59.35 236.73 -55.44 232.19 C-54 231 -54 231 -52 231 C-52.04 230.36 -52.08 229.72 -52.11 229.06 C-52.49 222.33 -52.75 215.6 -52.93 208.86 C-53.02 206.36 -53.13 203.85 -53.28 201.35 C-54.56 179.29 -54.56 179.29 -48.13 171.7 C-45.15 168.66 -41.99 166.04 -38.64 163.42 C-35.25 160.67 -35.25 160.67 -34.58 156.2 C-35.39 152.89 -36.61 150.11 -38 147 C-42.87 118.82 -36.32 89.37 -20 66 C-17.16 62.2 -14.09 58.6 -11 55 C-9.99 53.68 -8.98 52.35 -8 51 C-11.6 45.65 -15.26 40.83 -21.78 39.38 C-28.5 38.65 -35.25 38.71 -42 39 C-41.21 43.26 -39.38 44.36 -36 47 C-33.73 50.03 -33.58 53.16 -33.69 56.91 C-34.41 61.78 -36.72 65.05 -40.69 68 C-45.09 69.33 -48.59 69.31 -53 68 C-56.51 65.97 -58.69 63.93 -60 60 C-60.56 55.22 -60.46 51.88 -58.19 47.56 C-56 45 -56 45 -53 43 C-52.58 40.19 -52.56 37.46 -52.5 34.63 C-52 32 -52 32 -50.41 30.37 C-45.65 27.67 -39.82 28.4 -34.47 28.39 C-32.27 28.38 -30.08 28.31 -27.88 28.24 C-16.12 28.05 -16.12 28.05 -11.27 32.26 C-10.14 33.48 -9.05 34.72 -8 36 C-7.16 36.8 -6.33 37.61 -5.47 38.43 C-4.82 39.09 -4.17 39.76 -3.5 40.44 C-2.83 41.12 -2.16 41.8 -1.47 42.5 C-0.98 42.99 -0.5 43.49 0 44 C0.65 43.58 1.31 43.15 1.98 42.71 C4.98 40.79 7.99 38.9 11 37 C12.37 36.1 12.37 36.1 13.77 35.19 C24.59 28.41 36.68 24.97 49 22 C49.33 20.68 49.66 19.36 50 18 C44.11 18.02 38.22 18.07 32.33 18.15 C30.33 18.18 28.32 18.19 26.32 18.2 C23.44 18.2 20.56 18.25 17.68 18.29 C16.34 18.29 16.34 18.29 14.97 18.28 C10.45 18.39 8.61 18.5 5.01 21.46 C4.35 22.3 3.68 23.14 3 24 C-0.55 26.48 -3.75 26.43 -8 26 C-12 24.55 -14.46 22.73 -17 19.31 C-18.33 14.92 -18.31 11.41 -17 7 C-12.74 -0.12 -7.81 -0.89 0 0 Z " fill="#00D6BD" transform="translate(60,0)"/>
<path d="M0 0 C3.86 2 5.6 3.4 8 7 C10.15 7.46 10.15 7.46 12.68 7.38 C14.13 7.4 14.13 7.4 15.62 7.42 C16.67 7.41 17.72 7.41 18.81 7.41 C20.43 7.42 20.43 7.42 22.07 7.44 C25.53 7.47 28.98 7.49 32.44 7.5 C36.98 7.51 41.52 7.55 46.06 7.59 C47.63 7.59 47.63 7.59 49.24 7.58 C50.21 7.59 51.19 7.6 52.19 7.62 C53.05 7.62 53.91 7.62 54.79 7.62 C57.49 8.08 58.38 8.83 60 11 C60.4 14.38 60.13 17.59 60 21 C65.28 21 70.56 21 76 21 C75.94 19.41 75.88 17.82 75.81 16.19 C75.63 11.5 75.63 11.5 77.22 9.37 C79.54 7.59 80.86 7.64 83.76 7.66 C84.72 7.66 85.69 7.66 86.68 7.66 C87.72 7.67 88.76 7.69 89.84 7.7 C92.04 7.69 94.24 7.68 96.44 7.67 C99.91 7.68 103.38 7.69 106.85 7.72 C110.2 7.74 113.55 7.72 116.9 7.7 C117.94 7.72 118.97 7.74 120.04 7.76 C125.23 7.84 125.23 7.84 129.73 5.65 C131.26 3.85 131.26 3.85 133 1 C136.71 -0.86 140.95 -0.44 145 0 C148.76 1.78 150.52 3.33 152.94 6.69 C154.35 11.08 154.21 14.57 153 19 C150.88 22.44 148.9 24.81 145 26 C138.56 26.63 135.29 25.71 130 22 C129.01 20.52 129.01 20.52 128 19 C126.11 18.53 126.11 18.53 123.92 18.57 C123.08 18.55 122.24 18.53 121.37 18.51 C120.01 18.5 120.01 18.5 118.62 18.49 C117.69 18.47 116.76 18.45 115.8 18.43 C112.83 18.38 109.85 18.35 106.88 18.31 C104.86 18.28 102.85 18.24 100.83 18.21 C95.89 18.12 90.94 18.06 86 18 C86.33 19.32 86.66 20.64 87 22 C87.93 22.23 88.86 22.46 89.82 22.7 C107.1 27.12 121.28 34.09 136 44 C136.41 43.58 136.83 43.16 137.25 42.73 C139.12 40.84 141 38.95 142.88 37.06 C143.85 36.07 143.85 36.07 144.85 35.06 C145.47 34.44 146.1 33.81 146.74 33.16 C147.32 32.58 147.89 32 148.49 31.4 C152.91 27.31 159.92 28.77 165.6 28.76 C167.86 28.75 170.11 28.72 172.37 28.69 C173.81 28.68 175.24 28.68 176.68 28.67 C177.99 28.66 179.29 28.65 180.64 28.64 C184.15 29.02 185.58 29.47 188 32 C188.4 34.52 188.4 34.52 188.38 37.38 C188.5 41.37 188.5 41.37 190.35 44.76 C192.17 46.24 192.17 46.24 195 48 C196.86 51.71 196.44 55.95 196 60 C194.22 63.76 192.67 65.52 189.31 67.94 C184.92 69.35 181.43 69.21 177 68 C173.56 65.88 171.19 63.9 170 60 C169.37 53.56 170.29 50.29 174 45 C174.99 44.34 175.98 43.68 177 43 C177.72 40.94 177.72 40.94 178 39 C163.81 37.82 163.81 37.82 151.02 42.52 C148.32 45.07 146.08 47.91 144 51 C144.82 51.93 145.65 52.86 146.5 53.81 C167.55 78.47 177.36 106.7 175 139 C174.5 142.92 173.83 146.78 172.98 150.63 C172.15 154.42 171.73 157.3 173 161 C174.32 163.01 174.32 163.01 176.06 164.81 C176.61 165.42 177.16 166.02 177.72 166.64 C179.86 168.96 179.86 168.96 181.94 170.54 C185.23 173.32 187.63 175.54 188.71 179.8 C188.92 183.09 188.9 186.3 188.78 189.59 C188.77 190.78 188.76 191.97 188.75 193.19 C188.7 196.96 188.6 200.73 188.5 204.5 C188.46 207.07 188.42 209.63 188.39 212.2 C188.3 218.46 188.17 224.73 188 231 C189.18 231.43 189.18 231.43 190.39 231.88 C193 233 193 233 194.81 235 C196.55 239.38 196.68 243.36 196 248 C193.93 252.13 192.25 254.28 188 256 C183.72 256.59 180.07 256.49 176.12 254.69 C171.28 250.84 171.28 250.84 170 247 C169.54 240.89 170.62 236.86 174.56 232.12 C176 231 176 231 178 231 C178.09 223.9 178.1 216.8 178.07 209.7 C178.06 207.29 178.08 204.88 178.11 202.47 C178.15 198.99 178.13 195.51 178.1 192.04 C178.13 190.43 178.13 190.43 178.17 188.8 C178.05 182.51 177.03 179.35 172.56 174.81 C170.41 172.9 168.56 171.28 166 170 C165.61 171.28 165.61 171.28 165.21 172.59 C161.01 184.39 153.32 193.87 145 203 C144.41 203.68 143.81 204.35 143.2 205.05 C130.69 218.55 112.34 226.88 95 232 C96.29 234.67 96.29 234.67 99 237 C102.57 237.79 106.1 237.79 109.75 237.81 C110.73 237.84 111.72 237.86 112.73 237.89 C115.15 237.95 117.58 237.98 120 238 C120.29 237.39 120.57 236.77 120.87 236.14 C122.49 233.08 124.01 231.78 127 230 C131.27 229.3 134.82 229.5 138.81 231.19 C144.68 236.05 144.68 236.05 145.35 240.15 C145.58 246.41 144.12 249.69 139.88 254.31 C135.88 256.66 132.53 256.69 128 256 C124.78 254.53 122.26 252.74 120 250 C120 249.34 120 248.68 120 248 C119.31 248.04 118.63 248.07 117.92 248.11 C114.78 248.26 111.64 248.35 108.5 248.44 C106.88 248.53 106.88 248.53 105.23 248.62 C99.64 248.73 95.93 248.6 91.59 244.85 C89.8 243.06 88.19 241.25 86.66 239.24 C84.33 236.38 82.77 235.18 79.1 234.34 C75.5 233.97 72 233.86 68.38 233.88 C67.12 233.87 65.86 233.87 64.56 233.87 C57.84 234.1 52.88 234.57 47.85 239.26 C45.69 241.72 43.83 244.28 42 247 C39.39 248.3 37.47 248.11 34.55 248.1 C33.48 248.09 32.4 248.09 31.29 248.09 C30.17 248.08 29.04 248.07 27.88 248.06 C26.17 248.06 26.17 248.06 24.43 248.05 C21.62 248.04 18.81 248.02 16 248 C15.71 248.79 15.43 249.58 15.13 250.39 C13.63 253.85 12.49 254.59 9 256 C4.73 256.57 1.18 256.5 -2.81 254.81 C-8.68 249.95 -8.68 249.95 -9.35 245.85 C-9.58 239.59 -8.12 236.31 -3.88 231.69 C0.12 229.34 3.47 229.31 8 230 C11.22 231.47 13.74 233.26 16 236 C16 236.66 16 237.32 16 238 C19.42 237.98 22.83 237.9 26.25 237.81 C27.22 237.81 28.19 237.8 29.18 237.79 C35.03 237.72 35.03 237.72 39.67 234.45 C40.11 233.64 40.55 232.83 41 232 C40.32 231.8 39.64 231.61 38.94 231.41 C10.86 222.74 -12.78 204.8 -26.69 178.75 C-30 172.46 -30 172.46 -30 170 C-31.27 171.1 -32.54 172.21 -33.81 173.31 C-34.52 173.93 -35.23 174.54 -35.96 175.18 C-36.63 175.78 -37.31 176.38 -38 177 C-38.53 177.43 -39.06 177.86 -39.6 178.3 C-41.48 180.59 -41.39 182.02 -41.42 184.96 C-41.44 185.97 -41.45 186.97 -41.47 188.01 C-41.47 189.1 -41.47 190.19 -41.47 191.31 C-41.48 192.43 -41.48 193.55 -41.49 194.7 C-41.5 197.06 -41.51 199.43 -41.5 201.8 C-41.5 205.42 -41.54 209.04 -41.59 212.67 C-41.59 214.96 -41.59 217.26 -41.59 219.56 C-41.61 220.64 -41.63 221.73 -41.64 222.85 C-41.74 228.83 -41.74 228.83 -38.54 233.61 C-37.29 234.3 -37.29 234.3 -36 235 C-33.34 238.55 -33.45 242.73 -34 247 C-35.78 251.12 -38.11 253.77 -42 256 C-47.08 256.84 -50.88 256.56 -55.5 254.25 C-58.4 251.64 -59.77 249.71 -60.3 245.82 C-60.33 239.91 -59.35 236.73 -55.44 232.19 C-54 231 -54 231 -52 231 C-52.04 230.36 -52.08 229.72 -52.11 229.06 C-52.49 222.33 -52.75 215.6 -52.93 208.86 C-53.02 206.36 -53.13 203.85 -53.28 201.35 C-54.56 179.29 -54.56 179.29 -48.13 171.7 C-45.15 168.66 -41.99 166.04 -38.64 163.42 C-35.25 160.67 -35.25 160.67 -34.58 156.2 C-35.39 152.89 -36.61 150.11 -38 147 C-42.87 118.82 -36.32 89.37 -20 66 C-17.16 62.2 -14.09 58.6 -11 55 C-9.99 53.68 -8.98 52.35 -8 51 C-11.6 45.65 -15.26 40.83 -21.78 39.38 C-28.5 38.65 -35.25 38.71 -42 39 C-41.21 43.26 -39.38 44.36 -36 47 C-33.73 50.03 -33.58 53.16 -33.69 56.91 C-34.41 61.78 -36.72 65.05 -40.69 68 C-45.09 69.33 -48.59 69.31 -53 68 C-56.51 65.97 -58.69 63.93 -60 60 C-60.56 55.22 -60.46 51.88 -58.19 47.56 C-56 45 -56 45 -53 43 C-52.58 40.19 -52.56 37.46 -52.5 34.63 C-52 32 -52 32 -50.41 30.37 C-45.65 27.67 -39.82 28.4 -34.47 28.39 C-32.27 28.38 -30.08 28.31 -27.88 28.24 C-16.12 28.05 -16.12 28.05 -11.27 32.26 C-10.14 33.48 -9.05 34.72 -8 36 C-7.16 36.8 -6.33 37.61 -5.47 38.43 C-4.82 39.09 -4.17 39.76 -3.5 40.44 C-2.83 41.12 -2.16 41.8 -1.47 42.5 C-0.98 42.99 -0.5 43.49 0 44 C0.65 43.58 1.31 43.15 1.98 42.71 C4.98 40.79 7.99 38.9 11 37 C12.37 36.1 12.37 36.1 13.77 35.19 C24.59 28.41 36.68 24.97 49 22 C49.33 20.68 49.66 19.36 50 18 C44.11 18.02 38.22 18.07 32.33 18.15 C30.33 18.18 28.32 18.19 26.32 18.2 C23.44 18.2 20.56 18.25 17.68 18.29 C16.34 18.29 16.34 18.29 14.97 18.28 C10.45 18.39 8.61 18.5 5.01 21.46 C4.35 22.3 3.68 23.14 3 24 C-0.55 26.48 -3.75 26.43 -8 26 C-12 24.55 -14.46 22.73 -17 19.31 C-18.33 14.92 -18.31 11.41 -17 7 C-12.74 -0.12 -7.81 -0.89 0 0 Z M-2 59 C-2.76 59.75 -3.52 60.49 -4.3 61.26 C-21.96 79.68 -30.73 104.87 -30.47 130.15 C-29.54 157.55 -17.64 182.26 2.19 201.12 C23.46 219.79 49.96 227.8 78 226 C104.94 222.88 129.04 209.14 146 188 C156.18 174.31 161.6 159.59 165 143 C165.19 142.21 165.39 141.42 165.59 140.61 C169.5 115.96 162.19 91.46 148.32 71.18 C144.86 66.44 141.15 62.15 137 58 C136.23 57.23 135.46 56.46 134.67 55.67 C114.75 36.78 88.77 29.21 61.87 29.69 C37.67 30.64 14.99 42.04 -2 59 Z " fill="#211E1E" transform="translate(60,0)"/>
<path d="M0 0 C7.41 5.78 13.65 14.18 14.88 23.69 C14.92 24.78 14.96 25.87 15 27 C15.89 27.08 16.77 27.16 17.69 27.25 C22.7 28.39 25.19 30.78 28 35 C28.2 37.47 28.29 39.84 28.29 42.31 C28.3 43.06 28.3 43.8 28.31 44.56 C28.33 47.02 28.33 49.47 28.34 51.93 C28.34 53.63 28.35 55.34 28.36 57.05 C28.37 60.63 28.37 64.21 28.37 67.79 C28.37 72.38 28.4 76.96 28.43 81.54 C28.45 85.07 28.46 88.6 28.46 92.13 C28.46 93.82 28.47 95.51 28.48 97.2 C28.5 99.56 28.5 101.93 28.49 104.3 C28.5 104.99 28.51 105.69 28.52 106.4 C28.46 111.38 27.19 114.21 24 118 C19.9 121.39 15.93 121.43 10.82 121.4 C10.01 121.41 9.2 121.42 8.36 121.42 C5.69 121.44 3.02 121.44 0.35 121.43 C-1.51 121.44 -3.38 121.44 -5.24 121.45 C-9.14 121.46 -13.04 121.46 -16.94 121.45 C-21.93 121.43 -26.92 121.45 -31.91 121.48 C-35.75 121.5 -39.6 121.5 -43.44 121.5 C-45.28 121.5 -47.12 121.5 -48.96 121.51 C-51.54 121.53 -54.11 121.52 -56.69 121.5 C-57.44 121.51 -58.2 121.52 -58.98 121.53 C-64.13 121.46 -67.09 120.34 -71 117 C-74.21 113.04 -74.44 109.39 -74.42 104.46 C-74.43 103.72 -74.44 102.97 -74.45 102.21 C-74.47 99.77 -74.47 97.32 -74.47 94.88 C-74.48 93.17 -74.48 91.47 -74.49 89.76 C-74.51 86.19 -74.51 82.62 -74.5 79.05 C-74.5 74.49 -74.53 69.92 -74.57 65.35 C-74.59 61.83 -74.59 58.31 -74.59 54.79 C-74.59 53.11 -74.6 51.43 -74.62 49.74 C-74.64 47.38 -74.63 45.03 -74.62 42.67 C-74.63 41.98 -74.64 41.29 -74.66 40.58 C-74.56 35.03 -72.76 32.78 -69 29 C-65.92 26.95 -64.9 27 -61 27 C-60.96 25.91 -60.92 24.81 -60.88 23.69 C-59.77 15.14 -54.53 7.58 -48.35 1.79 C-33.42 -9.59 -15.69 -9.79 0 0 Z " fill="#D30025" transform="translate(151,71)"/>
<path d="M0 0 C15.19 12.57 26.52 30.7 29.69 50.39 C31.74 73.85 27.13 95.69 11.94 114.25 C10.92 115.53 10.92 115.53 9.88 116.84 C-3.41 132.66 -22.54 141.29 -42.75 144 C-44.19 144.11 -45.62 144.19 -47.06 144.25 C-48.46 144.34 -48.46 144.34 -49.89 144.44 C-71.23 145.26 -90.72 136.3 -106.69 122.62 C-122 108.18 -131.32 88.31 -132.3 67.19 C-132.88 44.23 -125.15 23.45 -109.39 6.53 C-79.77 -24.06 -33.07 -25.28 0 0 Z M-81.49 13.27 C-86.29 19.32 -88.64 25.6 -89.06 33.25 C-89.95 33.33 -90.84 33.41 -91.75 33.5 C-96.77 34.64 -99.25 37.03 -102.06 41.25 C-102.27 43.72 -102.36 46.09 -102.35 48.56 C-102.36 49.31 -102.37 50.05 -102.37 50.81 C-102.39 53.27 -102.4 55.72 -102.4 58.18 C-102.4 59.88 -102.41 61.59 -102.42 63.3 C-102.43 66.88 -102.43 70.46 -102.43 74.04 C-102.43 78.63 -102.46 83.21 -102.49 87.79 C-102.52 91.32 -102.52 94.85 -102.52 98.38 C-102.52 100.07 -102.53 101.76 -102.55 103.45 C-102.57 105.81 -102.56 108.18 -102.55 110.55 C-102.56 111.24 -102.57 111.94 -102.58 112.65 C-102.52 117.63 -101.26 120.46 -98.06 124.25 C-93.96 127.64 -89.99 127.68 -84.88 127.65 C-84.07 127.66 -83.26 127.67 -82.42 127.67 C-79.75 127.69 -77.08 127.69 -74.41 127.68 C-72.55 127.69 -70.69 127.69 -68.82 127.7 C-64.93 127.71 -61.03 127.71 -57.13 127.7 C-52.13 127.68 -47.14 127.7 -42.15 127.73 C-38.31 127.75 -34.46 127.75 -30.62 127.75 C-28.78 127.75 -26.94 127.75 -25.1 127.76 C-22.52 127.78 -19.95 127.77 -17.38 127.75 C-16.62 127.76 -15.86 127.77 -15.08 127.78 C-9.93 127.71 -6.97 126.59 -3.06 123.25 C0.15 119.29 0.38 115.64 0.36 110.71 C0.37 109.97 0.37 109.22 0.38 108.46 C0.41 106.02 0.41 103.57 0.41 101.13 C0.41 99.42 0.42 97.72 0.43 96.01 C0.44 92.44 0.44 88.87 0.44 85.3 C0.43 80.74 0.46 76.17 0.5 71.6 C0.53 68.08 0.53 64.56 0.53 61.04 C0.53 59.36 0.54 57.68 0.56 55.99 C0.58 53.63 0.57 51.28 0.55 48.92 C0.57 48.23 0.58 47.54 0.59 46.83 C0.5 41.28 -1.3 39.03 -5.06 35.25 C-8.14 33.2 -9.16 33.25 -13.06 33.25 C-13.1 32.16 -13.14 31.06 -13.19 29.94 C-14.29 21.39 -19.53 13.82 -25.72 8.04 C-43.87 -5.82 -66.1 -2.95 -81.49 13.27 Z " fill="#77B6E8" transform="translate(179.0625,64.75)"/>
<path d="M0 0 C7.41 5.78 13.65 14.18 14.88 23.69 C14.92 24.78 14.96 25.87 15 27 C15.89 27.08 16.77 27.16 17.69 27.25 C22.7 28.39 25.19 30.78 28 35 C28.2 37.47 28.29 39.84 28.29 42.31 C28.3 43.06 28.3 43.8 28.31 44.56 C28.33 47.02 28.33 49.47 28.34 51.93 C28.34 53.63 28.35 55.34 28.36 57.05 C28.37 60.63 28.37 64.21 28.37 67.79 C28.37 72.38 28.4 76.96 28.43 81.54 C28.45 85.07 28.46 88.6 28.46 92.13 C28.46 93.82 28.47 95.51 28.48 97.2 C28.5 99.56 28.5 101.93 28.49 104.3 C28.5 104.99 28.51 105.69 28.52 106.4 C28.46 111.38 27.19 114.21 24 118 C19.9 121.39 15.93 121.43 10.82 121.4 C10.01 121.41 9.2 121.42 8.36 121.42 C5.69 121.44 3.02 121.44 0.35 121.43 C-1.51 121.44 -3.38 121.44 -5.24 121.45 C-9.14 121.46 -13.04 121.46 -16.94 121.45 C-21.93 121.43 -26.92 121.45 -31.91 121.48 C-35.75 121.5 -39.6 121.5 -43.44 121.5 C-45.28 121.5 -47.12 121.5 -48.96 121.51 C-51.54 121.53 -54.11 121.52 -56.69 121.5 C-57.44 121.51 -58.2 121.52 -58.98 121.53 C-64.13 121.46 -67.09 120.34 -71 117 C-74.21 113.04 -74.44 109.39 -74.42 104.46 C-74.43 103.72 -74.44 102.97 -74.45 102.21 C-74.47 99.77 -74.47 97.32 -74.47 94.88 C-74.48 93.17 -74.48 91.47 -74.49 89.76 C-74.51 86.19 -74.51 82.62 -74.5 79.05 C-74.5 74.49 -74.53 69.92 -74.57 65.35 C-74.59 61.83 -74.59 58.31 -74.59 54.79 C-74.59 53.11 -74.6 51.43 -74.62 49.74 C-74.64 47.38 -74.63 45.03 -74.62 42.67 C-74.63 41.98 -74.64 41.29 -74.66 40.58 C-74.56 35.03 -72.76 32.78 -69 29 C-65.92 26.95 -64.9 27 -61 27 C-60.96 25.91 -60.92 24.81 -60.88 23.69 C-59.77 15.14 -54.53 7.58 -48.35 1.79 C-33.42 -9.59 -15.69 -9.79 0 0 Z M-64 36 C-66.43 39.65 -66.25 41.37 -66.26 45.72 C-66.26 46.4 -66.27 47.08 -66.27 47.77 C-66.28 50.02 -66.27 52.26 -66.27 54.5 C-66.27 56.06 -66.27 57.62 -66.27 59.17 C-66.27 62.44 -66.27 65.7 -66.26 68.97 C-66.25 73.16 -66.26 77.34 -66.27 81.53 C-66.28 84.75 -66.27 87.96 -66.27 91.18 C-66.27 92.72 -66.27 94.27 -66.27 95.81 C-66.28 97.97 -66.27 100.12 -66.26 102.28 C-66.26 103.51 -66.26 104.74 -66.25 106 C-66.23 109.18 -66.23 109.18 -64 112 C-61.35 112.3 -58.93 112.41 -56.28 112.39 C-55.48 112.39 -54.68 112.4 -53.86 112.4 C-51.22 112.42 -48.58 112.41 -45.94 112.4 C-44.11 112.4 -42.28 112.4 -40.45 112.41 C-36.6 112.41 -32.76 112.41 -28.92 112.39 C-23.99 112.37 -19.07 112.38 -14.14 112.4 C-10.35 112.41 -6.57 112.41 -2.79 112.4 C-0.97 112.4 0.85 112.4 2.66 112.41 C5.2 112.42 7.74 112.4 10.28 112.39 C11.41 112.4 11.41 112.4 12.57 112.41 C14.87 112.41 14.87 112.41 18 112 C20.43 108.35 20.25 106.63 20.26 102.28 C20.26 101.6 20.27 100.92 20.27 100.23 C20.28 97.98 20.27 95.74 20.27 93.5 C20.27 91.94 20.27 90.38 20.27 88.83 C20.27 85.56 20.27 82.3 20.26 79.03 C20.25 74.84 20.26 70.66 20.27 66.47 C20.28 63.25 20.27 60.04 20.27 56.82 C20.27 55.28 20.27 53.73 20.27 52.19 C20.28 50.03 20.27 47.88 20.26 45.72 C20.26 44.49 20.26 43.26 20.25 42 C20.23 38.82 20.23 38.82 18 36 C15.35 35.7 12.93 35.59 10.28 35.61 C9.48 35.61 8.68 35.6 7.86 35.6 C5.22 35.58 2.58 35.59 -0.06 35.6 C-1.89 35.6 -3.72 35.6 -5.55 35.59 C-9.4 35.59 -13.24 35.59 -17.08 35.61 C-22.01 35.63 -26.93 35.62 -31.86 35.6 C-35.65 35.59 -39.43 35.59 -43.21 35.6 C-45.03 35.6 -46.85 35.6 -48.66 35.59 C-51.2 35.58 -53.74 35.6 -56.28 35.61 C-57.03 35.61 -57.79 35.6 -58.57 35.59 C-60.87 35.59 -60.87 35.59 -64 36 Z " fill="#221E1F" transform="translate(151,71)"/>
<path d="M0 0 C21.25 15.25 34.77 36.78 39.13 62.62 C39.42 65.04 39.57 67.43 39.67 69.87 C39.73 70.72 39.79 71.57 39.86 72.45 C40.83 94.82 31.89 117.36 17.29 134.06 C0.72 151.72 -20.02 163.15 -44.5 164.19 C-71.21 164.88 -93.23 157.5 -112.99 139.14 C-128.47 124.13 -138.96 103.53 -139.77 81.79 C-139.79 79.36 -139.79 76.93 -139.77 74.5 C-139.76 72.58 -139.76 72.58 -139.74 70.63 C-139.57 61.41 -138.84 53.48 -135.33 44.87 C-134.92 43.85 -134.92 43.85 -134.5 42.81 C-124.64 18.87 -107.35 1.58 -83.78 -8.85 C-77.45 -11.2 -70.93 -12.71 -64.33 -14.13 C-63.52 -14.32 -62.7 -14.51 -61.86 -14.71 C-40.45 -18.25 -18 -11.5 0 0 Z M-111.33 20.87 C-119.64 30.53 -126.08 42.52 -129.33 54.87 C-129.54 55.58 -129.74 56.28 -129.95 57.01 C-134.84 76.76 -130.37 98.61 -120.52 116.09 C-107.12 137.07 -88.36 149.4 -64.33 154.87 C-63.48 155.07 -62.63 155.26 -61.76 155.46 C-42.14 158.75 -20.17 152.87 -4 141.61 C14.26 128.34 25.86 109.96 30.16 87.73 C33.07 65.59 28.08 43.97 14.67 25.87 C0.52 8.53 -18.76 -3.56 -41.33 -6.13 C-68.32 -7.96 -92.58 1.04 -111.33 20.87 Z " fill="#212121" transform="translate(178.33203125,53.12890625)"/>
<path d="M0 0 C5.22 3 9.84 7.76 11.75 13.5 C12.43 20.97 12.24 27.27 7.75 33.5 C7.24 33.9 6.73 34.3 6.2 34.7 C4.06 37.35 4.35 39.48 4.31 42.85 C4.28 44.09 4.26 45.34 4.23 46.62 C4.21 48.57 4.21 48.57 4.19 50.56 C4.15 53.14 4.11 55.71 4.06 58.29 C4.05 59.43 4.03 60.57 4.02 61.75 C3.75 64.5 3.75 64.5 1.75 66.5 C-0.46 66.76 -0.46 66.76 -3.19 66.77 C-4.16 66.77 -5.14 66.77 -6.15 66.77 C-7.17 66.77 -8.2 66.76 -9.25 66.75 C-10.27 66.76 -11.3 66.77 -12.35 66.77 C-13.82 66.77 -13.82 66.77 -15.31 66.77 C-16.21 66.76 -17.11 66.76 -18.04 66.76 C-20.25 66.5 -20.25 66.5 -22.25 64.5 C-22.47 61.83 -22.47 61.83 -22.45 58.46 C-22.46 57.24 -22.48 56.02 -22.49 54.76 C-22.5 52.19 -22.49 49.63 -22.46 47.06 C-22.56 39.96 -22.92 35.35 -27.87 30.04 C-31.18 26.35 -30.65 21.31 -30.58 16.64 C-29.95 10.6 -27.65 6.58 -23.08 2.61 C-15.84 -2.33 -8.18 -3.5 0 0 Z " fill="#251F1E" transform="translate(137.25,112.5)"/>
<path d="M0 0 C6.41 4.4 10.43 9.62 13 17 C13 18.32 13 19.64 13 21 C-6.14 21 -25.28 21 -45 21 C-43.71 11.94 -40.07 5.87 -32.82 0.22 C-23.2 -6.21 -9.72 -6.32 0 0 Z " fill="#77B6E9" transform="translate(144,77)"/>
<path d="M0 0 C3.19 1.64 5.21 4.01 7.44 6.81 C8.36 10.4 8.24 13.55 7 17 C5.4 18.71 5.4 18.71 3.49 20.45 C-1.33 25.75 -1 31.12 -0.94 38 C-0.95 39.16 -0.97 40.31 -0.99 41.5 C-1.02 44.34 -1.03 47.17 -1 50 C-3.64 50 -6.28 50 -9 50 C-8.99 49.28 -8.99 48.57 -8.98 47.83 C-8.97 44.55 -9.02 41.28 -9.06 38 C-9.05 36.87 -9.04 35.75 -9.03 34.59 C-9.15 28.69 -9.43 24.92 -13.48 20.45 C-14.11 19.87 -14.74 19.29 -15.39 18.7 C-17.24 16.74 -17.73 15.51 -18.19 12.88 C-17.97 8.28 -16.97 6.46 -14 3 C-9.67 -0.85 -5.58 -0.95 0 0 Z " fill="#FCD641" transform="translate(133,120)"/>
<path d="M0 0 C2.62 0.38 2.62 0.38 5 1 C6.12 5.75 6.12 5.75 5 8 C3 8.04 1 8.04 -1 8 C-2 7 -2 7 -2.19 4.56 C-2 2 -2 2 0 0 Z " fill="#F18F0F" transform="translate(11,51)"/>
<path d="M0 0 C1.88 0.75 1.88 0.75 2.88 1.75 C3 4.25 3 4.25 2.88 6.75 C1.88 7.75 1.88 7.75 -1.19 7.81 C-2.16 7.79 -3.13 7.77 -4.12 7.75 C-4.81 5.44 -4.81 5.44 -5.12 2.75 C-3.57 0.3 -2.93 -0.34 0 0 Z " fill="#F3900F" transform="translate(244.125,51.25)"/>
<path d="M0 0 C2.56 0.19 2.56 0.19 4.56 2.19 C4.19 4.81 4.19 4.81 3.56 7.19 C-1.19 8.31 -1.19 8.31 -3.44 7.19 C-3.48 5.19 -3.48 3.19 -3.44 1.19 C-2.44 0.19 -2.44 0.19 0 0 Z " fill="#F2900F" transform="translate(200.4375,8.8125)"/>
<path d="M0 0 C2.56 0.19 2.56 0.19 4.56 2.19 C4.19 4.81 4.19 4.81 3.56 7.19 C-1.19 8.31 -1.19 8.31 -3.44 7.19 C-3.48 5.19 -3.48 3.19 -3.44 1.19 C-2.44 0.19 -2.44 0.19 0 0 Z " fill="#F2900F" transform="translate(55.4375,8.8125)"/>
<path d="M0 0 C2.62 0.38 2.62 0.38 5 1 C5.62 3.38 5.62 3.38 6 6 C5.34 6.66 4.68 7.32 4 8 C1.38 7.62 1.38 7.62 -1 7 C-1.62 4.62 -1.62 4.62 -2 2 C-1.34 1.34 -0.68 0.68 0 0 Z " fill="#FA940F" transform="translate(241,239)"/>
<path d="M0 0 C2.62 0.38 2.62 0.38 5 1 C5.62 3.38 5.62 3.38 6 6 C5.34 6.66 4.68 7.32 4 8 C1.38 7.62 1.38 7.62 -1 7 C-1.62 4.62 -1.62 4.62 -2 2 C-1.34 1.34 -0.68 0.68 0 0 Z " fill="#FC950F" transform="translate(190,239)"/>
<path d="M0 0 C2.62 0.38 2.62 0.38 5 1 C5.62 3.38 5.62 3.38 6 6 C5.34 6.66 4.68 7.32 4 8 C1.38 7.62 1.38 7.62 -1 7 C-1.62 4.62 -1.62 4.62 -2 2 C-1.34 1.34 -0.68 0.68 0 0 Z " fill="#FB950F" transform="translate(62,239)"/>
<path d="M0 0 C2.62 0.38 2.62 0.38 5 1 C5.62 3.38 5.62 3.38 6 6 C5.34 6.66 4.68 7.32 4 8 C1.37 7.62 1.37 7.62 -1 7 C-1.62 4.62 -1.62 4.62 -2 2 C-1.34 1.34 -0.68 0.68 0 0 Z " fill="#FB950F" transform="translate(11,239)"/>
</svg>
