<?xml version="1.0" encoding="UTF-8"?>
<!-- Generator: visioncortex VTracer 0.6.4 -->
<svg version="1.1" xmlns="http://www.w3.org/2000/svg" width="256" height="256">
<path d="M0 0 C2.29 1.18 4.52 2.4 6.75 3.69 C24.12 13.24 42.98 17.47 62.61 19.11 C63.62 19.2 64.62 19.28 65.66 19.37 C68.11 19.59 70.55 19.8 73 20 C73.07 27.58 73.12 35.16 73.16 42.74 C73.17 46.27 73.19 49.79 73.23 53.31 C73.27 57.38 73.28 61.44 73.29 65.51 C73.31 66.75 73.32 67.99 73.34 69.27 C73.34 92.01 64.68 112.81 50 130 C49.07 131.23 49.07 131.23 48.12 132.48 C45.75 135.3 43.19 137.46 40.31 139.75 C39.34 140.53 38.37 141.31 37.36 142.11 C36.19 143.05 36.19 143.05 35 144 C31.2 147.8 33.36 154.64 33 160 C54.12 159.67 75.24 159.34 97 159 C95.35 157.68 93.7 156.36 92 155 C81.98 143.31 79.7 131.35 80.73 116.36 C81.98 105.31 88.08 96.11 96.35 88.97 C108.22 80.07 120.51 78.36 135 80 C147.19 82.7 156.85 89.93 163.53 100.4 C170.01 111.85 170.89 124.61 168.3 137.45 C165.37 146.27 159.62 152.7 153 159 C158.28 159.33 163.56 159.66 169 160 C169 183.76 169 207.52 169 232 C159.34 231.89 149.67 231.77 139.72 231.66 C133.53 231.62 127.34 231.59 121.15 231.57 C111.37 231.55 101.58 231.51 91.8 231.37 C82.38 231.23 72.96 231.17 63.53 231.22 C62.77 231.22 62.01 231.23 61.23 231.23 C38.59 231.4 18.91 233.3 0.48 247.78 C-2 249 -2 249 -5.1 248.3 C-8.48 246.79 -11.81 245.23 -15.11 243.56 C-15.77 243.23 -16.42 242.9 -17.1 242.57 C-18.47 241.88 -19.84 241.19 -21.22 240.5 C-23.32 239.43 -25.43 238.38 -27.54 237.32 C-28.88 236.65 -30.21 235.98 -31.55 235.31 C-32.18 234.99 -32.82 234.68 -33.47 234.35 C-37.88 232.12 -37.88 232.12 -39 231 C-39.07 228.47 -39.09 225.97 -39.06 223.44 C-39.06 222.73 -39.05 222.02 -39.05 221.28 C-39.04 219.52 -39.02 217.76 -39 216 C-35.04 216 -31.08 216 -27 216 C-27 213.36 -27 210.72 -27 208 C-30.96 208 -34.92 208 -39 208 C-39 197.44 -39 186.88 -39 176 C-35.04 176 -31.08 176 -27 176 C-27 173.36 -27 170.72 -27 168 C-30.96 168 -34.92 168 -39 168 C-38.96 166.44 -38.91 164.89 -38.87 163.29 C-38.43 151.98 -38.43 151.98 -42.12 141.64 C-44.64 139.47 -47.15 137.71 -50 136 C-51.71 134.37 -53.38 132.71 -55 131 C-55.52 130.48 -56.04 129.95 -56.57 129.41 C-69.93 115.21 -79.15 93.3 -79.11 73.81 C-79.11 72.61 -79.11 71.41 -79.11 70.17 C-79.11 68.89 -79.1 67.61 -79.1 66.29 C-79.1 64.95 -79.09 63.62 -79.09 62.28 C-79.09 58.78 -79.08 55.28 -79.07 51.77 C-79.06 48.19 -79.05 44.61 -79.05 41.04 C-79.04 34.02 -79.02 27.01 -79 20 C-77.8 19.88 -77.8 19.88 -76.57 19.75 C-72.9 19.37 -69.24 18.99 -65.57 18.61 C-64.31 18.48 -63.05 18.35 -61.75 18.21 C-42.36 16.17 -23.16 11.41 -7.01 -0.07 C-4.2 -1.37 -2.93 -0.97 0 0 Z " fill="#020100" transform="translate(83,4)"/>
<path d="M0 0 C1.37 0.61 2.72 1.25 4.05 1.93 C13.61 6.66 22.61 10.49 33 13 C34.4 13.41 34.4 13.41 35.82 13.83 C42.31 15.67 48.71 16.46 55.4 17.09 C56.32 17.18 57.25 17.26 58.2 17.36 C60.47 17.57 62.73 17.79 65 18 C65.05 24.62 65.09 31.23 65.11 37.85 C65.12 40.09 65.13 42.34 65.15 44.59 C65.18 47.83 65.19 51.08 65.2 54.33 C65.21 55.32 65.22 56.3 65.23 57.32 C65.23 67.23 63.92 76.82 60.25 86.06 C59.86 87.08 59.86 87.08 59.45 88.11 C50.66 110.17 34.61 126.82 13.19 136.88 C11.47 137.6 9.74 138.31 8 139 C7.21 139.33 6.42 139.66 5.6 140 C-3.19 143.36 -9.6 141.11 -17.92 137.45 C-41.54 126.37 -57.46 108.89 -66.89 84.71 C-70.36 75.05 -71.3 65.41 -71.2 55.21 C-71.19 54.13 -71.19 53.06 -71.19 51.96 C-71.18 48.58 -71.15 45.19 -71.12 41.81 C-71.11 39.5 -71.11 37.19 -71.1 34.88 C-71.08 29.25 -71.04 23.63 -71 18 C-70.33 17.92 -69.66 17.85 -68.97 17.77 C-65.88 17.41 -62.78 17.04 -59.69 16.67 C-58.11 16.49 -58.11 16.49 -56.5 16.31 C-39.08 14.2 -22.17 8.75 -6.81 0.23 C-3.65 -1.15 -3.12 -1.05 0 0 Z " fill="#060503" transform="translate(83,14)"/>
<path d="M0 0 C42.24 0 84.48 0 128 0 C128 18.48 128 36.96 128 56 C85.76 56 43.52 56 0 56 C0 37.52 0 19.04 0 0 Z " fill="#E4E7EB" transform="translate(116,172)"/>
<path d="M0 0 C7.07 6.56 11.33 14.37 12.04 24.04 C12.23 36.03 8.77 45.08 0.64 53.93 C-5.13 59.43 -12.19 62.82 -20.17 63.25 C-20.94 63.3 -21.71 63.35 -22.5 63.4 C-33.67 63.83 -42.71 59.54 -50.86 52.06 C-58.42 44.14 -60.51 35.01 -60.38 24.38 C-59.66 13.76 -54.95 6.58 -47.29 -0.5 C-33.24 -12.27 -14.09 -11.4 0 0 Z " fill="#FB806C" transform="translate(232.16796875,100.75390625)"/>
<path d="M0 0 C5.66 2.35 11.35 4.33 17.25 6 C17.92 6.2 18.6 6.4 19.29 6.6 C26.48 8.57 33.87 9.36 41.25 10.25 C41.3 14.45 41.34 18.64 41.36 22.84 C41.37 24.26 41.38 25.68 41.4 27.1 C41.54 38.89 41.21 50.31 36.19 61.19 C35.74 62.18 35.74 62.18 35.28 63.2 C27.37 80.09 27.37 80.09 21.46 83.19 C18.04 83.28 14.82 82.55 11.5 81.81 C10.8 81.66 10.11 81.52 9.39 81.37 C7.67 81 5.96 80.63 4.25 80.25 C3.61 77.39 3.61 77.39 3.25 74.25 C4.87 72.54 6.55 70.88 8.25 69.25 C9.37 67.17 10.25 65.04 11.14 62.86 C12.86 58.82 14.89 54.95 16.88 51.05 C20.78 43.08 22.02 35.59 19.15 26.95 C15.34 18.78 10.93 13.83 2.88 9.88 C-6.49 6.51 -17.41 6.62 -26.44 10.81 C-31.22 13.61 -34.82 16.54 -37.75 21.25 C-38.16 21.91 -38.57 22.56 -38.99 23.24 C-42.86 30.54 -43.17 38.61 -40.76 46.47 C-39.54 49.47 -38.2 52.36 -36.75 55.25 C-36.38 56.01 -36.01 56.78 -35.63 57.57 C-34.99 58.89 -34.32 60.2 -33.64 61.51 C-32.81 63.13 -32.06 64.78 -31.31 66.44 C-29.85 69.43 -29.85 69.43 -27 71.75 C-25.89 72.99 -25.89 72.99 -24.75 74.25 C-25.11 77.41 -25.11 77.41 -25.75 80.25 C-26.63 80.38 -27.51 80.52 -28.42 80.65 C-30.16 80.92 -30.16 80.92 -31.94 81.19 C-33.66 81.45 -33.66 81.45 -35.42 81.71 C-38.21 82.16 -40.98 82.67 -43.75 83.25 C-55.57 68.67 -62.93 52.84 -62.85 33.79 C-62.85 33.11 -62.84 32.43 -62.84 31.73 C-62.84 29.59 -62.83 27.45 -62.81 25.31 C-62.81 23.85 -62.8 22.39 -62.8 20.93 C-62.79 17.37 -62.77 13.81 -62.75 10.25 C-61.56 10.09 -60.38 9.93 -59.16 9.77 C-46.78 8.02 -35.19 5.38 -23.63 0.56 C-22.96 0.28 -22.29 -0 -21.59 -0.29 C-19.74 -1.08 -17.9 -1.89 -16.05 -2.71 C-10.01 -4.61 -5.62 -2.42 0 0 Z " fill="#FBE6A4" transform="translate(90.75,36.75)"/>
<path d="M0 0 C1.37 0.61 2.72 1.25 4.05 1.93 C13.61 6.66 22.61 10.49 33 13 C34.4 13.41 34.4 13.41 35.82 13.83 C42.31 15.67 48.71 16.46 55.4 17.09 C56.32 17.18 57.25 17.26 58.2 17.36 C60.47 17.57 62.73 17.79 65 18 C65.05 24.62 65.09 31.23 65.11 37.85 C65.12 40.09 65.13 42.34 65.15 44.59 C65.18 47.83 65.19 51.08 65.2 54.33 C65.21 55.32 65.22 56.3 65.23 57.32 C65.23 67.23 63.92 76.82 60.25 86.06 C59.86 87.08 59.86 87.08 59.45 88.11 C50.66 110.17 34.61 126.82 13.19 136.88 C11.47 137.6 9.74 138.31 8 139 C7.21 139.33 6.42 139.66 5.6 140 C-3.19 143.36 -9.6 141.11 -17.92 137.45 C-41.54 126.37 -57.46 108.89 -66.89 84.71 C-70.36 75.05 -71.3 65.41 -71.2 55.21 C-71.19 54.13 -71.19 53.06 -71.19 51.96 C-71.18 48.58 -71.15 45.19 -71.12 41.81 C-71.11 39.5 -71.11 37.19 -71.1 34.88 C-71.08 29.25 -71.04 23.63 -71 18 C-70.33 17.92 -69.66 17.85 -68.97 17.77 C-65.88 17.41 -62.78 17.04 -59.69 16.67 C-58.11 16.49 -58.11 16.49 -56.5 16.31 C-39.08 14.2 -22.17 8.75 -6.81 0.23 C-3.65 -1.15 -3.12 -1.05 0 0 Z M-11.94 13.12 C-28.29 20.55 -45.25 23.95 -63 26 C-63.05 31.17 -63.09 36.35 -63.11 41.52 C-63.12 43.28 -63.13 45.03 -63.15 46.78 C-63.4 72.43 -58.25 94.38 -39.8 113.25 C-30.18 122.68 -18.8 129.61 -6 134 C9.87 133.72 24.17 122.64 35 112 C35.63 111.39 36.25 110.77 36.9 110.14 C54.27 91.75 57.37 68.36 57.12 44.19 C57.11 42.42 57.11 40.64 57.1 38.87 C57.08 34.58 57.04 30.29 57 26 C56.44 25.94 55.89 25.88 55.31 25.82 C36.51 23.73 18.85 20.03 1.93 11.32 C-3.52 8.87 -6.95 10.74 -11.94 13.12 Z " fill="#F5D16D" transform="translate(83,14)"/>
<path d="M0 0 C0 2.31 0 4.62 0 7 C-4.95 8.32 -9.9 9.64 -15 11 C-15 20.9 -15 30.8 -15 41 C-10.05 42.32 -5.1 43.64 0 45 C0 55.23 0 65.46 0 76 C-5.38 78.72 -5.38 78.72 -10.88 81.5 C-12.57 82.36 -12.57 82.36 -14.3 83.24 C-15.19 83.69 -16.08 84.13 -16.99 84.59 C-17.9 85.05 -18.81 85.52 -19.75 85.99 C-22 87 -22 87 -24 87 C-24 61.26 -24 35.52 -24 9 C-21.36 8.01 -18.72 7.02 -16 6 C-12.31 4.43 -8.64 2.82 -4.98 1.21 C-2 0 -2 0 0 0 Z " fill="#FAD56F" transform="translate(108,154)"/>
<path d="M0 0 C5.14 1.65 10.04 3.66 15 5.78 C17.95 6.98 20.98 7.99 24 9 C24 34.74 24 60.48 24 87 C20.15 85.72 17 84.62 13.48 82.84 C12.29 82.24 12.29 82.24 11.07 81.62 C10.27 81.21 9.46 80.8 8.62 80.38 C7.79 79.95 6.96 79.53 6.11 79.1 C4.07 78.07 2.03 77.04 0 76 C0 75.34 0 74.68 0 74 C3.96 74 7.92 74 12 74 C12 66.08 12 58.16 12 50 C8.04 50 4.08 50 0 50 C0 44.72 0 39.44 0 34 C3.96 34 7.92 34 12 34 C12 26.08 12 18.16 12 10 C8.04 10 4.08 10 0 10 C0 6.7 0 3.4 0 0 Z " fill="#FAD66F" transform="translate(52,154)"/>
<path d="M0 0 C2.64 0 5.28 0 8 0 C8.33 2.97 8.66 5.94 9 9 C9.99 8.01 10.98 7.02 12 6 C14.97 6.27 15.85 6.85 18 9 C17.63 11.93 17.14 12.86 15 15 C17.97 15.33 20.94 15.66 24 16 C24 18.64 24 21.28 24 24 C21.03 24.33 18.06 24.66 15 25 C15.99 25.99 16.98 26.98 18 28 C16.95 30.62 16.35 31.79 13.88 33.25 C13.26 33.5 12.64 33.75 12 34 C11.01 33.01 10.02 32.02 9 31 C8.67 33.97 8.34 36.94 8 40 C5.36 40 2.72 40 0 40 C-0.33 37.03 -0.66 34.06 -1 31 C-2.49 32.49 -2.49 32.49 -4 34 C-6.62 32.95 -7.79 32.35 -9.25 29.88 C-9.5 29.26 -9.75 28.64 -10 28 C-9.01 27.01 -8.02 26.02 -7 25 C-9.97 24.67 -12.94 24.34 -16 24 C-16 21.36 -16 18.72 -16 16 C-11.54 15.5 -11.54 15.5 -7 15 C-7.99 14.01 -8.98 13.02 -10 12 C-8.95 9.38 -8.35 8.21 -5.88 6.75 C-5.26 6.5 -4.64 6.25 -4 6 C-3.01 6.99 -2.02 7.98 -1 9 C-0.67 6.03 -0.34 3.06 0 0 Z " fill="#010101" transform="translate(204,180)"/>
<path d="M0 0 C2.64 0 5.28 0 8 0 C8.33 2.97 8.66 5.94 9 9 C9.99 8.01 10.98 7.02 12 6 C14.97 6.27 15.85 6.85 18 9 C17.63 11.93 17.14 12.86 15 15 C17.97 15.33 20.94 15.66 24 16 C24 18.64 24 21.28 24 24 C21.03 24.33 18.06 24.66 15 25 C15.99 25.99 16.98 26.98 18 28 C16.95 30.62 16.35 31.79 13.88 33.25 C13.26 33.5 12.64 33.75 12 34 C11.01 33.01 10.02 32.02 9 31 C8.67 33.97 8.34 36.94 8 40 C5.36 40 2.72 40 0 40 C-0.33 37.03 -0.66 34.06 -1 31 C-2.49 32.49 -2.49 32.49 -4 34 C-6.62 32.95 -7.79 32.35 -9.25 29.88 C-9.5 29.26 -9.75 28.64 -10 28 C-9.01 27.01 -8.02 26.02 -7 25 C-9.97 24.67 -12.94 24.34 -16 24 C-16 21.36 -16 18.72 -16 16 C-11.54 15.5 -11.54 15.5 -7 15 C-7.99 14.01 -8.98 13.02 -10 12 C-8.95 9.38 -8.35 8.21 -5.88 6.75 C-5.26 6.5 -4.64 6.25 -4 6 C-3.01 6.99 -2.02 7.98 -1 9 C-0.67 6.03 -0.34 3.06 0 0 Z " fill="#010101" transform="translate(148,180)"/>
<path d="M0 0 C7.17 3.18 10.58 8.36 14 15.2 C14.12 16.84 14.17 18.49 14.18 20.14 C14.2 21.01 14.21 21.89 14.23 22.79 C14 25.2 14 25.2 12 28.2 C11.25 27.42 10.51 26.63 9.75 25.82 C6.64 23.18 4.07 22.74 0.06 22.26 C-5.09 21.58 -8.1 20.45 -11.8 16.8 C-13.4 14.67 -13.93 12.85 -14 10.2 C-16.31 10.86 -18.62 11.52 -21 12.2 C-20.67 14.51 -20.34 16.82 -20 19.2 C-20.69 19.6 -21.38 20 -22.09 20.41 C-22.99 20.94 -23.89 21.47 -24.82 22.01 C-25.71 22.53 -26.6 23.06 -27.52 23.59 C-29.67 24.98 -31.3 26.31 -33 28.2 C-35.02 22.16 -34.9 16.2 -32.07 10.45 C-25.14 -0.78 -12.09 -3.22 0 0 Z " fill="#AD7544" transform="translate(90.00390625,52.80078125)"/>
<path d="M0 0 C3.63 0.81 7.27 1.52 10.92 2.22 C14 3 14 3 16 5 C16.77 11.12 16.67 16.86 13 22 C8.98 26.03 5.42 28.12 -0.31 28.31 C-4.94 28.25 -7.44 27.07 -11 24 C-15.79 18.56 -16.47 15.11 -16.41 7.93 C-15.98 4.84 -15.64 3.85 -13.31 1.88 C-5.84 -2.36 -5.84 -2.36 0 0 Z " fill="#ECCDB1" transform="translate(80,80)"/>
<path d="M0 0 C2.62 1.05 3.79 1.65 5.25 4.12 C5.5 4.74 5.75 5.36 6 6 C-16.5 31 -16.5 31 -18.73 33.46 C-20.32 35.24 -21.88 37.04 -23.43 38.85 C-24.21 39.77 -25 40.68 -25.81 41.62 C-26.87 42.88 -26.87 42.88 -27.96 44.16 C-30 46 -30 46 -34 46 C-36.24 44.05 -38.23 42.15 -40.25 40 C-41.08 39.14 -41.08 39.14 -41.93 38.27 C-43.3 36.85 -44.65 35.43 -46 34 C-44.49 30.22 -43.99 29.99 -40 28 C-37.69 30.31 -35.38 32.62 -33 35 C-24.25 28 -17.03 19.4 -9.7 10.96 C-6.5 7.28 -3.25 3.64 0 0 Z " fill="#060302" transform="translate(228,106)"/>
<path d="M0 0 C2.5 2.5 2.5 2.5 5 5 C10.72 6.91 16.04 6.77 21.5 4.12 C24.33 2.64 24.33 2.64 26 0 C27.44 -0.05 28.87 -0.09 30.31 -0.12 C31.11 -0.15 31.91 -0.17 32.74 -0.2 C35 0 35 0 38 2 C20.68 15.22 20.68 15.22 12.11 14.89 C8.14 13.75 4.62 12.12 0.94 10.25 C0.24 9.91 -0.45 9.58 -1.17 9.23 C-5.58 7.02 -8.7 4.68 -12 1 C-10.56 0.64 -9.13 0.28 -7.69 -0.06 C-6.89 -0.26 -6.09 -0.46 -5.26 -0.66 C-3 -1 -3 -1 0 0 Z " fill="#ACD379" transform="translate(67,125)"/>
<path d="M0 0 C0 7.26 0 14.52 0 22 C-2.64 21.34 -5.28 20.68 -8 20 C-8 14.06 -8 8.12 -8 2 C-2 0 -2 0 0 0 Z " fill="#F9C228" transform="translate(108,169)"/>
<path d="M0 0 C4.62 0 9.24 0 14 0 C14 5 14 5 12.44 6.81 C9.1 8.44 6.67 8.4 3 8 C1.06 6.81 1.06 6.81 0 5 C0 3.35 0 1.7 0 0 Z " fill="#E9CAAE" transform="translate(73,116)"/>
<path d="M0 0 C2.64 0 5.28 0 8 0 C8 2.64 8 5.28 8 8 C5.36 8 2.72 8 0 8 C0 5.36 0 2.72 0 0 Z " fill="#000000" transform="translate(92,220)"/>
<path d="M0 0 C2.64 0 5.28 0 8 0 C8 2.64 8 5.28 8 8 C5.36 8 2.72 8 0 8 C0 5.36 0 2.72 0 0 Z " fill="#000000" transform="translate(92,204)"/>
</svg>
