<?xml version="1.0" encoding="UTF-8"?>
<!-- Generator: visioncortex VTracer 0.6.4 -->
<svg version="1.1" xmlns="http://www.w3.org/2000/svg" width="256" height="256">
<path d="M0 0 C1.27 -0.02 2.54 -0.03 3.84 -0.05 C5.22 -0.05 6.6 -0.05 7.98 -0.05 C9.4 -0.06 10.82 -0.06 12.24 -0.07 C15.22 -0.09 18.19 -0.09 21.16 -0.08 C24.97 -0.08 28.77 -0.11 32.58 -0.15 C35.51 -0.17 38.44 -0.17 41.37 -0.17 C42.77 -0.17 44.18 -0.18 45.58 -0.2 C47.54 -0.22 49.51 -0.21 51.47 -0.2 C52.58 -0.2 53.7 -0.2 54.85 -0.2 C57.73 0.42 57.73 0.42 60.1 2.83 C61.76 5.45 62.22 6.59 62.12 9.63 C62.12 10.3 62.11 10.98 62.09 11.68 C62.06 12.52 62.02 13.36 61.98 14.23 C61.9 16.93 61.82 19.64 61.73 22.42 C70.15 21.92 70.15 21.92 78.73 21.42 C77.08 19.77 75.43 18.12 73.73 16.42 C73.92 14.11 73.92 14.11 74.73 12.42 C78.08 13.89 80.43 15.76 83.05 18.29 C83.76 18.97 84.48 19.65 85.22 20.35 C86.73 22.42 86.73 22.42 86.75 24.38 C85.35 27.2 83.44 29 81.17 31.17 C80.35 31.97 79.52 32.77 78.67 33.59 C78.03 34.2 77.39 34.8 76.73 35.42 C75.25 34.92 75.25 34.92 73.73 34.42 C74.36 30.8 74.91 30.25 77.73 27.42 C72.45 27.09 67.17 26.76 61.73 26.42 C61.73 32.03 61.73 37.64 61.73 43.42 C72.95 43.42 84.17 43.42 95.73 43.42 C95.69 40.65 95.64 37.88 95.59 35.03 C95.56 32.35 95.54 29.66 95.51 26.98 C95.49 25.11 95.47 23.25 95.43 21.38 C95.38 18.7 95.36 16.02 95.34 13.34 C95.32 12.51 95.3 11.68 95.28 10.82 C95.28 9.65 95.28 9.65 95.28 8.45 C95.27 7.77 95.26 7.09 95.25 6.38 C95.97 3.48 97.47 2.31 99.73 0.42 C102.12 -0.08 102.12 -0.08 104.82 -0.08 C105.85 -0.09 106.87 -0.1 107.93 -0.11 C109.05 -0.1 110.17 -0.09 111.32 -0.08 C113.1 -0.09 113.1 -0.09 114.91 -0.1 C118.16 -0.11 121.4 -0.1 124.64 -0.08 C128.04 -0.07 131.44 -0.08 134.83 -0.08 C140.53 -0.08 146.24 -0.07 151.94 -0.05 C158.53 -0.02 165.12 -0.02 171.71 -0.03 C178.06 -0.04 184.4 -0.03 190.74 -0.02 C193.44 -0.01 196.14 -0.01 198.84 -0.02 C202.61 -0.02 206.38 -0.01 210.14 0.02 C211.26 0.01 212.38 0.01 213.54 0 C214.57 0.01 215.59 0.02 216.65 0.03 C217.98 0.04 217.98 0.04 219.35 0.04 C222.23 0.5 223.62 1.45 225.73 3.42 C226.22 5.3 226.22 5.3 226.19 7.43 C226.19 8.23 226.19 9.03 226.19 9.86 C226.17 10.72 226.15 11.58 226.12 12.46 C226.12 13.35 226.11 14.23 226.11 15.14 C226.09 17.96 226.04 20.78 225.98 23.61 C225.96 25.52 225.95 27.43 225.93 29.35 C225.89 34.04 225.82 38.73 225.73 43.42 C226.72 43.75 227.71 44.08 228.73 44.42 C228.4 45.41 228.07 46.4 227.73 47.42 C148.53 47.42 69.33 47.42 -12.27 47.42 C-12.27 46.1 -12.27 44.78 -12.27 43.42 C-11.61 43.42 -10.95 43.42 -10.27 43.42 C-10.29 42.22 -10.31 41.03 -10.33 39.8 C-10.4 35.36 -10.45 30.93 -10.49 26.49 C-10.51 24.58 -10.53 22.66 -10.57 20.74 C-10.62 17.98 -10.64 15.22 -10.66 12.46 C-10.68 11.6 -10.7 10.74 -10.72 9.86 C-10.72 8.66 -10.72 8.66 -10.72 7.43 C-10.73 6.73 -10.74 6.02 -10.75 5.3 C-10.27 3.42 -10.27 3.42 -8.63 1.7 C-5.6 0.06 -3.44 0.03 0 0 Z " fill="#F16175" transform="translate(20.265625,165.580078125)"/>
<path d="M0 0 C1.55 -0.01 1.55 -0.01 3.14 -0.03 C4.27 -0.02 5.4 -0.01 6.57 -0 C8.36 -0.01 8.36 -0.01 10.19 -0.02 C13.46 -0.03 16.74 -0.02 20.01 -0 C23.44 0.01 26.87 0 30.3 0 C36.05 -0 41.8 0.01 47.56 0.03 C54.21 0.06 60.87 0.06 67.52 0.05 C73.92 0.04 80.32 0.05 86.72 0.06 C89.45 0.07 92.17 0.07 94.9 0.06 C98.7 0.06 102.5 0.08 106.3 0.1 C107.43 0.09 108.57 0.09 109.74 0.08 C110.77 0.09 111.8 0.1 112.87 0.11 C114.21 0.12 114.21 0.12 115.59 0.12 C118.32 0.58 119.21 1.32 120.87 3.5 C121.26 5.4 121.26 5.4 121.27 7.56 C121.29 8.77 121.29 8.77 121.31 10.02 C121.31 10.89 121.31 11.76 121.3 12.66 C121.31 13.56 121.31 14.45 121.32 15.38 C121.33 17.28 121.32 19.18 121.32 21.08 C121.31 23.99 121.34 26.9 121.37 29.81 C121.37 31.65 121.37 33.5 121.37 35.34 C121.38 36.22 121.39 37.09 121.4 37.99 C121.39 38.8 121.38 39.61 121.37 40.44 C121.37 41.16 121.37 41.87 121.37 42.6 C120.64 45.36 119.27 46.03 116.87 47.5 C114.48 47.88 114.48 47.88 111.78 47.89 C110.76 47.9 109.73 47.91 108.67 47.92 C107.55 47.91 106.43 47.91 105.28 47.91 C103.5 47.92 103.5 47.92 101.69 47.93 C98.45 47.94 95.2 47.94 91.96 47.94 C89.25 47.93 86.54 47.94 83.83 47.95 C77.44 47.96 71.05 47.96 64.66 47.95 C58.07 47.94 51.48 47.95 44.89 47.98 C39.23 48 33.57 48.01 27.91 48 C24.52 48 21.14 48 17.76 48.02 C14 48.03 10.23 48.02 6.46 48 C4.78 48.02 4.78 48.02 3.07 48.03 C2.04 48.02 1.01 48.01 -0.04 48 C-0.94 48 -1.83 48 -2.74 48 C-5.9 47.34 -7.11 45.96 -9.13 43.5 C-9.64 41.57 -9.64 41.57 -9.65 39.53 C-9.66 38.76 -9.67 38 -9.69 37.2 C-9.68 36.38 -9.67 35.56 -9.66 34.72 C-9.67 33.87 -9.67 33.02 -9.67 32.14 C-9.68 30.35 -9.67 28.55 -9.65 26.76 C-9.63 24.01 -9.65 21.27 -9.68 18.52 C-9.67 16.77 -9.67 15.03 -9.66 13.28 C-9.67 12.46 -9.68 11.64 -9.69 10.8 C-9.67 10.03 -9.66 9.26 -9.65 8.47 C-9.64 7.8 -9.64 7.13 -9.64 6.44 C-8.34 1.48 -4.74 0 0 0 Z " fill="#9C9C9D" transform="translate(125.13038635253906,31.498794555664063)"/>
<path d="M0 0 C1.03 -0.01 2.05 -0.02 3.11 -0.03 C4.23 -0.02 5.35 -0.01 6.5 -0 C8.28 -0.01 8.28 -0.01 10.09 -0.02 C13.34 -0.03 16.58 -0.02 19.82 -0 C23.22 0.01 26.62 0 30.01 0 C35.71 -0 41.42 0.01 47.12 0.03 C53.71 0.06 60.3 0.06 66.89 0.05 C73.24 0.04 79.58 0.05 85.92 0.06 C88.62 0.07 91.32 0.07 94.02 0.06 C97.79 0.06 101.56 0.08 105.32 0.1 C106.44 0.09 107.56 0.09 108.72 0.08 C109.75 0.09 110.77 0.1 111.83 0.11 C113.16 0.12 113.16 0.12 114.53 0.12 C117.41 0.58 118.79 1.53 120.91 3.5 C121.42 5.4 121.42 5.4 121.43 7.56 C121.44 8.37 121.46 9.18 121.47 10.02 C121.46 10.89 121.45 11.76 121.45 12.66 C121.45 13.56 121.45 14.45 121.46 15.38 C121.46 17.28 121.45 19.18 121.44 21.08 C121.41 23.99 121.44 26.9 121.46 29.81 C121.46 31.65 121.45 33.5 121.45 35.34 C121.45 36.22 121.46 37.09 121.47 37.99 C121.45 39.2 121.45 39.2 121.43 40.44 C121.43 41.16 121.43 41.87 121.42 42.6 C120.68 45.36 119.31 46.03 116.91 47.5 C114.53 47.88 114.53 47.88 111.83 47.89 C110.8 47.9 109.78 47.91 108.72 47.92 C107.6 47.91 106.48 47.91 105.32 47.91 C103.55 47.92 103.55 47.92 101.74 47.93 C98.49 47.94 95.25 47.94 92.01 47.94 C89.3 47.93 86.59 47.94 83.88 47.95 C77.49 47.96 71.1 47.96 64.71 47.95 C58.12 47.94 51.53 47.95 44.93 47.98 C39.27 48 33.61 48.01 27.95 48 C24.57 48 21.19 48 17.81 48.02 C14.04 48.03 10.27 48.02 6.5 48 C4.82 48.02 4.82 48.02 3.11 48.03 C2.08 48.02 1.06 48.01 0 48 C-0.89 48 -1.78 48 -2.7 48 C-5.86 47.34 -7.07 45.96 -9.09 43.5 C-9.59 41.57 -9.59 41.57 -9.6 39.53 C-9.62 38.76 -9.63 38 -9.64 37.2 C-9.63 36.38 -9.63 35.56 -9.62 34.72 C-9.62 33.87 -9.62 33.02 -9.63 32.14 C-9.63 30.35 -9.62 28.55 -9.61 26.76 C-9.59 24.01 -9.61 21.27 -9.63 18.52 C-9.63 16.77 -9.62 15.03 -9.62 13.28 C-9.63 12.46 -9.63 11.64 -9.64 10.8 C-9.63 10.03 -9.62 9.26 -9.6 8.47 C-9.6 7.8 -9.6 7.13 -9.59 6.44 C-8.3 1.51 -4.72 0 0 0 Z " fill="#61B8E3" transform="translate(125.085693359375,98.49879455566406)"/>
<path d="M0 0 C1.27 -0.02 2.54 -0.03 3.84 -0.05 C5.22 -0.05 6.6 -0.05 7.98 -0.05 C9.4 -0.06 10.82 -0.06 12.24 -0.07 C15.22 -0.09 18.19 -0.09 21.16 -0.08 C24.97 -0.08 28.77 -0.11 32.58 -0.15 C35.51 -0.17 38.44 -0.17 41.37 -0.17 C42.77 -0.17 44.18 -0.18 45.58 -0.2 C47.54 -0.22 49.51 -0.21 51.47 -0.2 C52.58 -0.2 53.7 -0.2 54.85 -0.2 C57.73 0.42 57.73 0.42 60.1 2.83 C61.76 5.45 62.22 6.59 62.12 9.63 C62.12 10.3 62.11 10.98 62.09 11.68 C62.06 12.52 62.02 13.36 61.98 14.23 C61.9 16.93 61.82 19.64 61.73 22.42 C70.15 21.92 70.15 21.92 78.73 21.42 C77.08 19.77 75.43 18.12 73.73 16.42 C73.92 14.11 73.92 14.11 74.73 12.42 C78.08 13.89 80.43 15.76 83.05 18.29 C83.76 18.97 84.48 19.65 85.22 20.35 C86.73 22.42 86.73 22.42 86.75 24.38 C85.35 27.2 83.44 29 81.17 31.17 C80.35 31.97 79.52 32.77 78.67 33.59 C78.03 34.2 77.39 34.8 76.73 35.42 C75.25 34.92 75.25 34.92 73.73 34.42 C74.36 30.8 74.91 30.25 77.73 27.42 C72.45 27.09 67.17 26.76 61.73 26.42 C61.73 32.03 61.73 37.64 61.73 43.42 C72.95 43.42 84.17 43.42 95.73 43.42 C95.69 40.65 95.64 37.88 95.59 35.03 C95.56 32.35 95.54 29.66 95.51 26.98 C95.49 25.11 95.47 23.25 95.43 21.38 C95.38 18.7 95.36 16.02 95.34 13.34 C95.32 12.51 95.3 11.68 95.28 10.82 C95.28 9.65 95.28 9.65 95.28 8.45 C95.27 7.77 95.26 7.09 95.25 6.38 C95.97 3.48 97.47 2.31 99.73 0.42 C102.12 -0.08 102.12 -0.08 104.82 -0.08 C105.85 -0.09 106.87 -0.1 107.93 -0.11 C109.05 -0.1 110.17 -0.09 111.32 -0.08 C113.1 -0.09 113.1 -0.09 114.91 -0.1 C118.16 -0.11 121.4 -0.1 124.64 -0.08 C128.04 -0.07 131.44 -0.08 134.83 -0.08 C140.53 -0.08 146.24 -0.07 151.94 -0.05 C158.53 -0.02 165.12 -0.02 171.71 -0.03 C178.06 -0.04 184.4 -0.03 190.74 -0.02 C193.44 -0.01 196.14 -0.01 198.84 -0.02 C202.61 -0.02 206.38 -0.01 210.14 0.02 C211.26 0.01 212.38 0.01 213.54 0 C214.57 0.01 215.59 0.02 216.65 0.03 C217.98 0.04 217.98 0.04 219.35 0.04 C222.23 0.5 223.62 1.45 225.73 3.42 C226.22 5.3 226.22 5.3 226.19 7.43 C226.19 8.23 226.19 9.03 226.19 9.86 C226.17 10.72 226.15 11.58 226.12 12.46 C226.12 13.35 226.11 14.23 226.11 15.14 C226.09 17.96 226.04 20.78 225.98 23.61 C225.96 25.52 225.95 27.43 225.93 29.35 C225.89 34.04 225.82 38.73 225.73 43.42 C226.72 43.75 227.71 44.08 228.73 44.42 C228.4 45.41 228.07 46.4 227.73 47.42 C148.53 47.42 69.33 47.42 -12.27 47.42 C-12.27 46.1 -12.27 44.78 -12.27 43.42 C-11.61 43.42 -10.95 43.42 -10.27 43.42 C-10.29 42.22 -10.31 41.03 -10.33 39.8 C-10.4 35.36 -10.45 30.93 -10.49 26.49 C-10.51 24.58 -10.53 22.66 -10.57 20.74 C-10.62 17.98 -10.64 15.22 -10.66 12.46 C-10.68 11.6 -10.7 10.74 -10.72 9.86 C-10.72 8.66 -10.72 8.66 -10.72 7.43 C-10.73 6.73 -10.74 6.02 -10.75 5.3 C-10.27 3.42 -10.27 3.42 -8.63 1.7 C-5.6 0.06 -3.44 0.03 0 0 Z M99.73 5.42 C99.62 8.14 99.57 10.82 99.57 13.54 C99.56 14.36 99.56 15.17 99.56 16.01 C99.55 17.74 99.55 19.47 99.55 21.19 C99.55 23.84 99.53 26.49 99.51 29.14 C99.51 30.82 99.5 32.49 99.5 34.17 C99.5 34.96 99.49 35.76 99.48 36.58 C99.32 40.97 99.32 40.97 101.73 44.42 C103.92 44.72 103.92 44.72 106.48 44.67 C107.48 44.68 108.48 44.69 109.51 44.69 C110.62 44.69 111.72 44.68 112.85 44.68 C114.59 44.68 114.59 44.68 116.36 44.69 C120.2 44.7 124.05 44.69 127.89 44.69 C130.55 44.69 133.21 44.69 135.87 44.69 C141.45 44.69 147.04 44.69 152.62 44.68 C159.08 44.67 165.53 44.67 171.99 44.68 C177.53 44.69 183.07 44.69 188.61 44.69 C191.92 44.69 195.23 44.69 198.55 44.69 C202.24 44.7 205.93 44.69 209.62 44.68 C210.72 44.68 211.82 44.69 212.96 44.69 C213.96 44.69 214.96 44.68 215.99 44.67 C217.3 44.67 217.3 44.67 218.64 44.67 C220.95 44.61 220.95 44.61 222.73 42.42 C222.92 39.63 222.99 36.95 222.96 34.17 C222.96 33.35 222.96 32.53 222.96 31.69 C222.96 29.97 222.95 28.24 222.94 26.52 C222.92 23.86 222.92 21.21 222.92 18.56 C222.92 16.89 222.91 15.21 222.9 13.54 C222.9 12.74 222.9 11.95 222.9 11.12 C223.21 7.47 223.21 7.47 221.73 4.42 C220.17 4.32 218.6 4.29 217.03 4.29 C216.01 4.29 214.99 4.29 213.94 4.28 C212.82 4.29 211.69 4.29 210.53 4.29 C208.76 4.29 208.76 4.29 206.96 4.29 C203.72 4.28 200.47 4.28 197.23 4.29 C193.85 4.29 190.46 4.29 187.08 4.28 C181.39 4.28 175.7 4.28 170.02 4.29 C163.43 4.29 156.85 4.29 150.27 4.29 C144.63 4.28 138.98 4.28 133.34 4.29 C129.97 4.29 126.59 4.29 123.22 4.28 C119.46 4.28 115.7 4.28 111.94 4.29 C110.25 4.29 110.25 4.29 108.53 4.28 C107 4.29 107 4.29 105.44 4.29 C104.55 4.29 103.66 4.29 102.74 4.29 C100.74 4.2 100.74 4.2 99.73 5.42 Z " fill="#F26175" transform="translate(20.265625,165.580078125)"/>
<path d="M0 0 C1.27 -0.02 2.54 -0.03 3.84 -0.05 C5.22 -0.05 6.6 -0.05 7.98 -0.05 C9.4 -0.06 10.82 -0.06 12.24 -0.07 C15.22 -0.09 18.19 -0.09 21.16 -0.08 C24.97 -0.08 28.77 -0.11 32.58 -0.15 C35.51 -0.17 38.44 -0.17 41.37 -0.17 C42.77 -0.17 44.18 -0.18 45.58 -0.2 C47.54 -0.22 49.51 -0.21 51.47 -0.2 C52.58 -0.2 53.7 -0.2 54.85 -0.2 C57.73 0.42 57.73 0.42 60.1 2.83 C61.76 5.45 62.22 6.59 62.12 9.63 C62.12 10.3 62.11 10.98 62.09 11.68 C62.06 12.52 62.02 13.36 61.98 14.23 C61.9 16.93 61.82 19.64 61.73 22.42 C70.15 21.92 70.15 21.92 78.73 21.42 C77.08 19.77 75.43 18.12 73.73 16.42 C73.92 14.11 73.92 14.11 74.73 12.42 C78.08 13.89 80.43 15.76 83.05 18.29 C83.76 18.97 84.48 19.65 85.22 20.35 C86.73 22.42 86.73 22.42 86.75 24.38 C85.35 27.2 83.44 29 81.17 31.17 C80.35 31.97 79.52 32.77 78.67 33.59 C78.03 34.2 77.39 34.8 76.73 35.42 C75.25 34.92 75.25 34.92 73.73 34.42 C74.34 30.2 75.31 29.85 78.73 26.42 C73.12 26.09 67.51 25.76 61.73 25.42 C61.78 26.67 61.83 27.93 61.88 29.22 C61.91 30.87 61.95 32.52 61.98 34.17 C62.02 34.99 62.05 35.82 62.09 36.67 C62.11 37.87 62.11 37.87 62.12 39.09 C62.16 40.19 62.16 40.19 62.19 41.31 C61.53 44.39 60.17 45.47 57.73 47.42 C54.81 47.92 54.81 47.92 51.36 47.92 C49.42 47.94 49.42 47.94 47.45 47.95 C46.04 47.94 44.64 47.93 43.23 47.92 C41.79 47.92 40.34 47.92 38.9 47.92 C35.87 47.92 32.85 47.91 29.83 47.89 C25.95 47.86 22.07 47.86 18.2 47.87 C15.22 47.88 12.24 47.87 9.26 47.86 C7.83 47.86 6.4 47.86 4.97 47.86 C2.97 47.86 0.97 47.84 -1.02 47.82 C-2.16 47.82 -3.29 47.81 -4.46 47.81 C-7.27 47.42 -7.27 47.42 -9.13 46.15 C-10.51 44.05 -10.65 42.86 -10.67 40.36 C-10.68 39.55 -10.7 38.74 -10.71 37.91 C-10.71 37.03 -10.7 36.16 -10.7 35.26 C-10.71 33.92 -10.71 33.92 -10.72 32.54 C-10.72 30.64 -10.72 28.74 -10.71 26.84 C-10.7 23.93 -10.73 21.02 -10.76 18.11 C-10.77 16.27 -10.76 14.42 -10.76 12.58 C-10.77 11.7 -10.78 10.83 -10.8 9.93 C-10.79 9.12 -10.78 8.31 -10.77 7.48 C-10.77 6.76 -10.77 6.05 -10.77 5.32 C-10.27 3.42 -10.27 3.42 -8.63 1.69 C-5.59 0.06 -3.44 0.03 0 0 Z " fill="#9D9D9D" transform="translate(20.265625,31.580078125)"/>
<path d="M0 0 C1.27 -0.02 2.54 -0.03 3.84 -0.05 C5.22 -0.05 6.6 -0.05 7.98 -0.05 C9.4 -0.06 10.82 -0.06 12.24 -0.07 C15.22 -0.09 18.19 -0.09 21.16 -0.08 C24.97 -0.08 28.77 -0.11 32.58 -0.15 C35.51 -0.17 38.44 -0.17 41.37 -0.17 C42.77 -0.17 44.18 -0.18 45.58 -0.2 C47.54 -0.22 49.51 -0.21 51.47 -0.2 C52.58 -0.2 53.7 -0.2 54.85 -0.2 C57.73 0.42 57.73 0.42 60.1 2.83 C61.76 5.45 62.22 6.59 62.12 9.63 C62.12 10.3 62.11 10.98 62.09 11.68 C62.06 12.52 62.02 13.36 61.98 14.23 C61.9 16.93 61.82 19.64 61.73 22.42 C70.15 21.92 70.15 21.92 78.73 21.42 C77.08 19.77 75.43 18.12 73.73 16.42 C73.92 14.11 73.92 14.11 74.73 12.42 C78.08 13.89 80.43 15.76 83.05 18.29 C83.76 18.97 84.48 19.65 85.22 20.35 C86.73 22.42 86.73 22.42 86.75 24.38 C85.35 27.2 83.44 29 81.17 31.17 C80.35 31.97 79.52 32.77 78.67 33.59 C78.03 34.2 77.39 34.8 76.73 35.42 C75.25 34.92 75.25 34.92 73.73 34.42 C74.34 30.2 75.31 29.85 78.73 26.42 C73.12 26.09 67.51 25.76 61.73 25.42 C61.89 30.79 61.89 30.79 62.09 36.16 C62.1 36.84 62.11 37.51 62.12 38.21 C62.15 38.9 62.17 39.58 62.19 40.29 C61.5 43.5 60.02 45.1 57.73 47.42 C54.85 48.04 54.85 48.04 51.47 48.04 C50.2 48.04 48.93 48.05 47.63 48.06 C46.25 48.05 44.86 48.03 43.48 48.01 C42.06 48.01 40.65 48.01 39.23 48.01 C36.25 48.01 33.28 47.99 30.31 47.96 C26.5 47.92 22.7 47.92 18.89 47.93 C15.96 47.93 13.03 47.92 10.1 47.9 C8.69 47.89 7.29 47.89 5.89 47.89 C3.92 47.89 1.96 47.86 0 47.84 C-1.67 47.83 -1.67 47.83 -3.38 47.81 C-6.62 47.37 -8.02 46.78 -10.27 44.42 C-10.77 42.52 -10.77 42.52 -10.78 40.36 C-10.8 39.15 -10.8 39.15 -10.82 37.91 C-10.81 37.03 -10.81 36.16 -10.8 35.26 C-10.8 34.36 -10.8 33.47 -10.81 32.54 C-10.81 30.64 -10.8 28.74 -10.79 26.84 C-10.77 23.93 -10.79 21.02 -10.81 18.11 C-10.81 16.27 -10.8 14.42 -10.8 12.58 C-10.8 11.7 -10.81 10.83 -10.82 9.93 C-10.81 9.12 -10.8 8.31 -10.78 7.48 C-10.78 6.76 -10.78 6.05 -10.77 5.32 C-10.27 3.42 -10.27 3.42 -8.62 1.69 C-5.59 0.06 -3.44 0.03 0 0 Z " fill="#62BBE6" transform="translate(20.265625,98.580078125)"/>
<path d="M0 0 C1.27 -0.02 2.54 -0.03 3.84 -0.05 C5.22 -0.05 6.6 -0.05 7.98 -0.05 C9.4 -0.06 10.82 -0.06 12.24 -0.07 C15.22 -0.09 18.19 -0.09 21.16 -0.08 C24.97 -0.08 28.77 -0.11 32.58 -0.15 C35.51 -0.17 38.44 -0.17 41.37 -0.17 C42.77 -0.17 44.18 -0.18 45.58 -0.2 C47.54 -0.22 49.51 -0.21 51.47 -0.2 C52.58 -0.2 53.7 -0.2 54.85 -0.2 C57.73 0.42 57.73 0.42 60.1 2.83 C61.76 5.45 62.22 6.59 62.12 9.63 C62.12 10.3 62.11 10.98 62.09 11.68 C62.06 12.52 62.02 13.36 61.98 14.23 C61.9 16.93 61.82 19.64 61.73 22.42 C70.15 21.92 70.15 21.92 78.73 21.42 C77.08 19.77 75.43 18.12 73.73 16.42 C73.92 14.11 73.92 14.11 74.73 12.42 C78.08 13.89 80.43 15.76 83.05 18.29 C83.76 18.97 84.48 19.65 85.22 20.35 C86.73 22.42 86.73 22.42 86.75 24.38 C85.35 27.2 83.44 29 81.17 31.17 C80.35 31.97 79.52 32.77 78.67 33.59 C78.03 34.2 77.39 34.8 76.73 35.42 C75.25 34.92 75.25 34.92 73.73 34.42 C74.36 30.8 74.91 30.25 77.73 27.42 C72.45 27.09 67.17 26.76 61.73 26.42 C61.73 32.03 61.73 37.64 61.73 43.42 C72.95 43.42 84.17 43.42 95.73 43.42 C95.69 40.65 95.64 37.88 95.59 35.03 C95.56 32.35 95.54 29.66 95.51 26.98 C95.49 25.11 95.47 23.25 95.43 21.38 C95.38 18.7 95.36 16.02 95.34 13.34 C95.32 12.51 95.3 11.68 95.28 10.82 C95.28 9.65 95.28 9.65 95.28 8.45 C95.27 7.77 95.26 7.09 95.25 6.38 C95.97 3.48 97.47 2.31 99.73 0.42 C102.12 -0.08 102.12 -0.08 104.82 -0.08 C105.85 -0.09 106.87 -0.1 107.93 -0.11 C109.05 -0.1 110.17 -0.09 111.32 -0.08 C113.1 -0.09 113.1 -0.09 114.91 -0.1 C118.16 -0.11 121.4 -0.1 124.64 -0.08 C128.04 -0.07 131.44 -0.08 134.83 -0.08 C140.53 -0.08 146.24 -0.07 151.94 -0.05 C158.53 -0.02 165.12 -0.02 171.71 -0.03 C178.06 -0.04 184.4 -0.03 190.74 -0.02 C193.44 -0.01 196.14 -0.01 198.84 -0.02 C202.61 -0.02 206.38 -0.01 210.14 0.02 C211.26 0.01 212.38 0.01 213.54 0 C214.57 0.01 215.59 0.02 216.65 0.03 C217.98 0.04 217.98 0.04 219.35 0.04 C222.23 0.5 223.62 1.45 225.73 3.42 C226.22 5.3 226.22 5.3 226.19 7.43 C226.19 8.23 226.19 9.03 226.19 9.86 C226.17 10.72 226.15 11.58 226.12 12.46 C226.12 13.35 226.11 14.23 226.11 15.14 C226.09 17.96 226.04 20.78 225.98 23.61 C225.96 25.52 225.95 27.43 225.93 29.35 C225.89 34.04 225.82 38.73 225.73 43.42 C226.72 43.75 227.71 44.08 228.73 44.42 C228.4 45.41 228.07 46.4 227.73 47.42 C148.53 47.42 69.33 47.42 -12.27 47.42 C-12.27 46.1 -12.27 44.78 -12.27 43.42 C-11.61 43.42 -10.95 43.42 -10.27 43.42 C-10.29 42.22 -10.31 41.03 -10.33 39.8 C-10.4 35.36 -10.45 30.93 -10.49 26.49 C-10.51 24.58 -10.53 22.66 -10.57 20.74 C-10.62 17.98 -10.64 15.22 -10.66 12.46 C-10.68 11.6 -10.7 10.74 -10.72 9.86 C-10.72 8.66 -10.72 8.66 -10.72 7.43 C-10.73 6.73 -10.74 6.02 -10.75 5.3 C-10.27 3.42 -10.27 3.42 -8.63 1.7 C-5.6 0.06 -3.44 0.03 0 0 Z M-7.27 5.42 C-7.38 8.14 -7.43 10.82 -7.43 13.54 C-7.44 14.36 -7.44 15.17 -7.44 16.01 C-7.45 17.74 -7.45 19.47 -7.45 21.19 C-7.45 23.84 -7.47 26.49 -7.49 29.14 C-7.49 30.82 -7.5 32.49 -7.5 34.17 C-7.5 34.96 -7.51 35.76 -7.52 36.58 C-7.68 40.97 -7.68 40.97 -5.27 44.42 C-2.61 44.73 -2.61 44.73 0.53 44.68 C1.74 44.69 2.96 44.69 4.21 44.7 C5.53 44.69 6.85 44.69 8.2 44.69 C9.56 44.69 10.92 44.69 12.28 44.69 C15.13 44.69 17.99 44.69 20.84 44.68 C24.5 44.67 28.15 44.68 31.81 44.69 C34.62 44.7 37.43 44.69 40.24 44.69 C42.25 44.69 44.25 44.69 46.26 44.7 C47.47 44.69 48.69 44.69 49.94 44.68 C51.01 44.68 52.09 44.68 53.19 44.67 C55.9 44.67 55.9 44.67 57.73 42.42 C57.92 39.63 57.99 36.95 57.96 34.17 C57.96 33.35 57.96 32.53 57.96 31.69 C57.96 29.97 57.95 28.24 57.94 26.52 C57.92 23.86 57.92 21.21 57.92 18.56 C57.92 16.89 57.91 15.21 57.9 13.54 C57.9 12.74 57.9 11.95 57.9 11.12 C58.21 7.47 58.21 7.47 56.73 4.42 C54.78 4.32 52.81 4.29 50.85 4.29 C49.6 4.29 48.34 4.28 47.04 4.28 C45.66 4.28 44.27 4.28 42.89 4.29 C41.48 4.29 40.07 4.29 38.66 4.28 C35.71 4.28 32.75 4.28 29.8 4.29 C26 4.3 22.2 4.29 18.41 4.29 C15.5 4.28 12.59 4.28 9.68 4.29 C8.28 4.29 6.88 4.29 5.48 4.28 C3.52 4.28 1.57 4.29 -0.38 4.29 C-1.5 4.29 -2.61 4.29 -3.76 4.29 C-6.21 4.14 -6.21 4.14 -7.27 5.42 Z M99.73 5.42 C99.62 8.14 99.57 10.82 99.57 13.54 C99.56 14.36 99.56 15.17 99.56 16.01 C99.55 17.74 99.55 19.47 99.55 21.19 C99.55 23.84 99.53 26.49 99.51 29.14 C99.51 30.82 99.5 32.49 99.5 34.17 C99.5 34.96 99.49 35.76 99.48 36.58 C99.32 40.97 99.32 40.97 101.73 44.42 C103.92 44.72 103.92 44.72 106.48 44.67 C107.48 44.68 108.48 44.69 109.51 44.69 C110.62 44.69 111.72 44.68 112.85 44.68 C114.59 44.68 114.59 44.68 116.36 44.69 C120.2 44.7 124.05 44.69 127.89 44.69 C130.55 44.69 133.21 44.69 135.87 44.69 C141.45 44.69 147.04 44.69 152.62 44.68 C159.08 44.67 165.53 44.67 171.99 44.68 C177.53 44.69 183.07 44.69 188.61 44.69 C191.92 44.69 195.23 44.69 198.55 44.69 C202.24 44.7 205.93 44.69 209.62 44.68 C210.72 44.68 211.82 44.69 212.96 44.69 C213.96 44.69 214.96 44.68 215.99 44.67 C217.3 44.67 217.3 44.67 218.64 44.67 C220.95 44.61 220.95 44.61 222.73 42.42 C222.92 39.63 222.99 36.95 222.96 34.17 C222.96 33.35 222.96 32.53 222.96 31.69 C222.96 29.97 222.95 28.24 222.94 26.52 C222.92 23.86 222.92 21.21 222.92 18.56 C222.92 16.89 222.91 15.21 222.9 13.54 C222.9 12.74 222.9 11.95 222.9 11.12 C223.21 7.47 223.21 7.47 221.73 4.42 C220.17 4.32 218.6 4.29 217.03 4.29 C216.01 4.29 214.99 4.29 213.94 4.28 C212.82 4.29 211.69 4.29 210.53 4.29 C208.76 4.29 208.76 4.29 206.96 4.29 C203.72 4.28 200.47 4.28 197.23 4.29 C193.85 4.29 190.46 4.29 187.08 4.28 C181.39 4.28 175.7 4.28 170.02 4.29 C163.43 4.29 156.85 4.29 150.27 4.29 C144.63 4.28 138.98 4.28 133.34 4.29 C129.97 4.29 126.59 4.29 123.22 4.28 C119.46 4.28 115.7 4.28 111.94 4.29 C110.25 4.29 110.25 4.29 108.53 4.28 C107 4.29 107 4.29 105.44 4.29 C104.55 4.29 103.66 4.29 102.74 4.29 C100.74 4.2 100.74 4.2 99.73 5.42 Z " fill="#473878" transform="translate(20.265625,165.580078125)"/>
<path d="M0 0 C1.27 -0.02 2.54 -0.03 3.84 -0.05 C5.22 -0.05 6.6 -0.05 7.98 -0.05 C9.4 -0.06 10.82 -0.06 12.24 -0.07 C15.22 -0.09 18.19 -0.09 21.16 -0.08 C24.97 -0.08 28.77 -0.11 32.58 -0.15 C35.51 -0.17 38.44 -0.17 41.37 -0.17 C42.77 -0.17 44.18 -0.18 45.58 -0.2 C47.54 -0.22 49.51 -0.21 51.47 -0.2 C52.58 -0.2 53.7 -0.2 54.85 -0.2 C57.73 0.42 57.73 0.42 60.1 2.83 C61.76 5.45 62.22 6.59 62.12 9.63 C62.12 10.3 62.11 10.98 62.09 11.68 C62.06 12.52 62.02 13.36 61.98 14.23 C61.9 16.93 61.82 19.64 61.73 22.42 C70.15 21.92 70.15 21.92 78.73 21.42 C77.08 19.77 75.43 18.12 73.73 16.42 C73.92 14.11 73.92 14.11 74.73 12.42 C78.08 13.89 80.43 15.76 83.05 18.29 C83.76 18.97 84.48 19.65 85.22 20.35 C86.73 22.42 86.73 22.42 86.75 24.38 C85.35 27.2 83.44 29 81.17 31.17 C80.35 31.97 79.52 32.77 78.67 33.59 C78.03 34.2 77.39 34.8 76.73 35.42 C75.25 34.92 75.25 34.92 73.73 34.42 C74.34 30.2 75.31 29.85 78.73 26.42 C73.12 26.09 67.51 25.76 61.73 25.42 C61.78 26.67 61.83 27.93 61.88 29.22 C61.91 30.87 61.95 32.52 61.98 34.17 C62.02 34.99 62.05 35.82 62.09 36.67 C62.11 37.87 62.11 37.87 62.12 39.09 C62.16 40.19 62.16 40.19 62.19 41.31 C61.53 44.39 60.17 45.47 57.73 47.42 C54.81 47.92 54.81 47.92 51.36 47.92 C49.42 47.94 49.42 47.94 47.45 47.95 C46.04 47.94 44.64 47.93 43.23 47.92 C41.79 47.92 40.34 47.92 38.9 47.92 C35.87 47.92 32.85 47.91 29.83 47.89 C25.95 47.86 22.07 47.86 18.2 47.87 C15.22 47.88 12.24 47.87 9.26 47.86 C7.83 47.86 6.4 47.86 4.97 47.86 C2.97 47.86 0.97 47.84 -1.02 47.82 C-2.16 47.82 -3.29 47.81 -4.46 47.81 C-7.27 47.42 -7.27 47.42 -9.13 46.15 C-10.51 44.05 -10.65 42.86 -10.67 40.36 C-10.68 39.55 -10.7 38.74 -10.71 37.91 C-10.71 37.03 -10.7 36.16 -10.7 35.26 C-10.71 33.92 -10.71 33.92 -10.72 32.54 C-10.72 30.64 -10.72 28.74 -10.71 26.84 C-10.7 23.93 -10.73 21.02 -10.76 18.11 C-10.77 16.27 -10.76 14.42 -10.76 12.58 C-10.77 11.7 -10.78 10.83 -10.8 9.93 C-10.79 9.12 -10.78 8.31 -10.77 7.48 C-10.77 6.76 -10.77 6.05 -10.77 5.32 C-10.27 3.42 -10.27 3.42 -8.63 1.69 C-5.59 0.06 -3.44 0.03 0 0 Z M0.73 5.42 C0.63 8.15 0.59 10.85 0.6 13.58 C0.6 14.39 0.6 15.21 0.6 16.05 C0.6 17.79 0.6 19.52 0.6 21.25 C0.61 23.91 0.6 26.57 0.6 29.23 C0.6 30.91 0.6 32.59 0.6 34.26 C0.6 35.06 0.6 35.87 0.6 36.69 C0.26 40.36 0.26 40.36 1.73 43.42 C3.45 43.52 5.16 43.55 6.88 43.55 C7.98 43.55 9.08 43.56 10.21 43.56 C11.4 43.56 12.6 43.55 13.83 43.55 C15.65 43.55 15.65 43.55 17.52 43.56 C20.1 43.56 22.67 43.55 25.25 43.55 C29.22 43.54 33.18 43.55 37.14 43.56 C39.64 43.56 42.14 43.55 44.64 43.55 C46.43 43.56 46.43 43.56 48.26 43.56 C49.36 43.56 50.46 43.55 51.59 43.55 C52.56 43.55 53.53 43.55 54.53 43.55 C56.71 43.67 56.71 43.67 57.73 42.42 C57.84 39.69 57.87 36.99 57.87 34.26 C57.87 33.45 57.87 32.63 57.87 31.79 C57.87 30.05 57.87 28.32 57.86 26.59 C57.86 23.93 57.86 21.27 57.87 18.61 C57.87 16.93 57.87 15.25 57.87 13.58 C57.87 12.78 57.87 11.97 57.87 11.15 C58.21 7.48 58.21 7.48 56.73 4.42 C55.02 4.32 53.3 4.29 51.59 4.29 C50.49 4.29 49.39 4.28 48.26 4.28 C46.47 4.28 46.47 4.28 44.64 4.29 C42.82 4.29 42.82 4.29 40.95 4.28 C38.37 4.28 35.79 4.29 33.22 4.29 C29.25 4.29 25.29 4.29 21.32 4.28 C18.83 4.28 16.33 4.29 13.83 4.29 C12.63 4.29 11.44 4.28 10.21 4.28 C9.11 4.28 8.01 4.29 6.88 4.29 C5.91 4.29 4.94 4.29 3.94 4.29 C1.76 4.17 1.76 4.17 0.73 5.42 Z " fill="#403779" transform="translate(20.265625,31.580078125)"/>
<path d="M0 0 C1.55 -0.01 1.55 -0.01 3.14 -0.03 C4.27 -0.02 5.4 -0.01 6.57 -0 C8.36 -0.01 8.36 -0.01 10.19 -0.02 C13.46 -0.03 16.74 -0.02 20.01 -0 C23.44 0.01 26.87 0 30.3 0 C36.05 -0 41.8 0.01 47.56 0.03 C54.21 0.06 60.87 0.06 67.52 0.05 C73.92 0.04 80.32 0.05 86.72 0.06 C89.45 0.07 92.17 0.07 94.9 0.06 C98.7 0.06 102.5 0.08 106.3 0.1 C107.43 0.09 108.57 0.09 109.74 0.08 C110.77 0.09 111.8 0.1 112.87 0.11 C114.21 0.12 114.21 0.12 115.59 0.12 C118.32 0.58 119.21 1.32 120.87 3.5 C121.26 5.4 121.26 5.4 121.27 7.56 C121.29 8.77 121.29 8.77 121.31 10.02 C121.31 10.89 121.31 11.76 121.3 12.66 C121.31 13.56 121.31 14.45 121.32 15.38 C121.33 17.28 121.32 19.18 121.32 21.08 C121.31 23.99 121.34 26.9 121.37 29.81 C121.37 31.65 121.37 33.5 121.37 35.34 C121.38 36.22 121.39 37.09 121.4 37.99 C121.39 38.8 121.38 39.61 121.37 40.44 C121.37 41.16 121.37 41.87 121.37 42.6 C120.64 45.36 119.27 46.03 116.87 47.5 C114.48 47.88 114.48 47.88 111.78 47.89 C110.76 47.9 109.73 47.91 108.67 47.92 C107.55 47.91 106.43 47.91 105.28 47.91 C103.5 47.92 103.5 47.92 101.69 47.93 C98.45 47.94 95.2 47.94 91.96 47.94 C89.25 47.93 86.54 47.94 83.83 47.95 C77.44 47.96 71.05 47.96 64.66 47.95 C58.07 47.94 51.48 47.95 44.89 47.98 C39.23 48 33.57 48.01 27.91 48 C24.52 48 21.14 48 17.76 48.02 C14 48.03 10.23 48.02 6.46 48 C4.78 48.02 4.78 48.02 3.07 48.03 C2.04 48.02 1.01 48.01 -0.04 48 C-0.94 48 -1.83 48 -2.74 48 C-5.9 47.34 -7.11 45.96 -9.13 43.5 C-9.64 41.57 -9.64 41.57 -9.65 39.53 C-9.66 38.76 -9.67 38 -9.69 37.2 C-9.68 36.38 -9.67 35.56 -9.66 34.72 C-9.67 33.87 -9.67 33.02 -9.67 32.14 C-9.68 30.35 -9.67 28.55 -9.65 26.76 C-9.63 24.01 -9.65 21.27 -9.68 18.52 C-9.67 16.77 -9.67 15.03 -9.66 13.28 C-9.67 12.46 -9.68 11.64 -9.69 10.8 C-9.67 10.03 -9.66 9.26 -9.65 8.47 C-9.64 7.8 -9.64 7.13 -9.64 6.44 C-8.34 1.48 -4.74 0 0 0 Z M-5.13 5.5 C-5.32 8.29 -5.39 10.97 -5.36 13.76 C-5.36 14.57 -5.36 15.39 -5.36 16.23 C-5.36 17.95 -5.35 19.68 -5.34 21.41 C-5.32 24.06 -5.32 26.71 -5.32 29.36 C-5.31 31.03 -5.31 32.71 -5.3 34.38 C-5.3 35.18 -5.3 35.98 -5.29 36.8 C-5.61 40.45 -5.61 40.45 -4.13 43.5 C-2.56 43.6 -0.99 43.63 0.58 43.63 C2.1 43.63 2.1 43.63 3.66 43.64 C4.79 43.63 5.91 43.63 7.07 43.63 C8.84 43.63 8.84 43.63 10.65 43.64 C13.89 43.64 17.13 43.64 20.37 43.64 C23.76 43.63 27.14 43.64 30.53 43.64 C36.21 43.64 41.9 43.64 47.59 43.63 C54.17 43.63 60.75 43.63 67.34 43.63 C72.98 43.64 78.62 43.64 84.26 43.64 C87.64 43.63 91.01 43.63 94.39 43.64 C98.15 43.64 101.9 43.64 105.66 43.63 C107.35 43.63 107.35 43.63 109.08 43.64 C110.1 43.63 111.11 43.63 112.16 43.63 C113.5 43.63 113.5 43.63 114.86 43.63 C116.87 43.72 116.87 43.72 117.87 42.5 C117.98 39.79 118.03 37.1 118.04 34.38 C118.04 33.57 118.04 32.75 118.05 31.91 C118.05 30.18 118.06 28.46 118.05 26.73 C118.06 24.08 118.08 21.43 118.09 18.78 C118.1 17.11 118.1 15.43 118.1 13.76 C118.11 12.56 118.11 12.56 118.12 11.34 C118.28 6.95 118.28 6.95 115.87 3.5 C113.69 3.2 113.69 3.2 111.12 3.25 C110.12 3.24 109.12 3.24 108.09 3.23 C106.99 3.23 105.89 3.24 104.75 3.24 C103.59 3.24 102.43 3.24 101.24 3.23 C97.4 3.22 93.56 3.23 89.71 3.24 C87.05 3.23 84.39 3.23 81.73 3.23 C76.15 3.23 70.57 3.23 64.99 3.24 C58.53 3.25 52.07 3.25 45.61 3.24 C40.07 3.23 34.53 3.23 28.99 3.23 C25.68 3.23 22.37 3.23 19.06 3.23 C15.37 3.22 11.68 3.23 7.99 3.24 C6.89 3.24 5.78 3.23 4.65 3.23 C3.65 3.24 2.65 3.24 1.61 3.25 C0.74 3.25 -0.13 3.25 -1.03 3.25 C-3.35 3.31 -3.35 3.31 -5.13 5.5 Z " fill="#443C7B" transform="translate(125.13038635253906,31.498794555664063)"/>
<path d="M0 0 C1.03 -0.01 2.05 -0.02 3.11 -0.03 C4.23 -0.02 5.35 -0.01 6.5 -0 C8.28 -0.01 8.28 -0.01 10.09 -0.02 C13.34 -0.03 16.58 -0.02 19.82 -0 C23.22 0.01 26.62 0 30.01 0 C35.71 -0 41.42 0.01 47.12 0.03 C53.71 0.06 60.3 0.06 66.89 0.05 C73.24 0.04 79.58 0.05 85.92 0.06 C88.62 0.07 91.32 0.07 94.02 0.06 C97.79 0.06 101.56 0.08 105.32 0.1 C106.44 0.09 107.56 0.09 108.72 0.08 C109.75 0.09 110.77 0.1 111.83 0.11 C113.16 0.12 113.16 0.12 114.53 0.12 C117.41 0.58 118.79 1.53 120.91 3.5 C121.42 5.4 121.42 5.4 121.43 7.56 C121.44 8.37 121.46 9.18 121.47 10.02 C121.46 10.89 121.45 11.76 121.45 12.66 C121.45 13.56 121.45 14.45 121.46 15.38 C121.46 17.28 121.45 19.18 121.44 21.08 C121.41 23.99 121.44 26.9 121.46 29.81 C121.46 31.65 121.45 33.5 121.45 35.34 C121.45 36.22 121.46 37.09 121.47 37.99 C121.45 39.2 121.45 39.2 121.43 40.44 C121.43 41.16 121.43 41.87 121.42 42.6 C120.68 45.36 119.31 46.03 116.91 47.5 C114.53 47.88 114.53 47.88 111.83 47.89 C110.8 47.9 109.78 47.91 108.72 47.92 C107.6 47.91 106.48 47.91 105.32 47.91 C103.55 47.92 103.55 47.92 101.74 47.93 C98.49 47.94 95.25 47.94 92.01 47.94 C89.3 47.93 86.59 47.94 83.88 47.95 C77.49 47.96 71.1 47.96 64.71 47.95 C58.12 47.94 51.53 47.95 44.93 47.98 C39.27 48 33.61 48.01 27.95 48 C24.57 48 21.19 48 17.81 48.02 C14.04 48.03 10.27 48.02 6.5 48 C4.82 48.02 4.82 48.02 3.11 48.03 C2.08 48.02 1.06 48.01 0 48 C-0.89 48 -1.78 48 -2.7 48 C-5.86 47.34 -7.07 45.96 -9.09 43.5 C-9.59 41.57 -9.59 41.57 -9.6 39.53 C-9.62 38.76 -9.63 38 -9.64 37.2 C-9.63 36.38 -9.63 35.56 -9.62 34.72 C-9.62 33.87 -9.62 33.02 -9.63 32.14 C-9.63 30.35 -9.62 28.55 -9.61 26.76 C-9.59 24.01 -9.61 21.27 -9.63 18.52 C-9.63 16.77 -9.62 15.03 -9.62 13.28 C-9.63 12.46 -9.63 11.64 -9.64 10.8 C-9.63 10.03 -9.62 9.26 -9.6 8.47 C-9.6 7.8 -9.6 7.13 -9.59 6.44 C-8.3 1.51 -4.72 0 0 0 Z M-5.09 5.5 C-5.29 8.27 -5.37 10.95 -5.35 13.72 C-5.35 14.53 -5.36 15.35 -5.36 16.19 C-5.36 17.91 -5.35 19.63 -5.35 21.35 C-5.34 23.99 -5.35 26.63 -5.36 29.27 C-5.36 30.94 -5.36 32.61 -5.35 34.28 C-5.36 35.08 -5.36 35.87 -5.36 36.68 C-5.5 41.06 -5.5 41.06 -3.09 44.5 C-0.9 44.81 -0.9 44.81 1.66 44.76 C2.66 44.76 3.66 44.77 4.69 44.77 C5.8 44.77 6.9 44.76 8.03 44.76 C9.77 44.77 9.77 44.77 11.54 44.77 C15.38 44.78 19.23 44.77 23.07 44.77 C25.73 44.77 28.39 44.77 31.05 44.77 C36.63 44.78 42.22 44.77 47.8 44.76 C54.26 44.75 60.71 44.75 67.17 44.77 C72.71 44.77 78.25 44.78 83.79 44.77 C87.1 44.77 90.41 44.77 93.73 44.77 C97.42 44.78 101.11 44.77 104.8 44.76 C105.9 44.76 107 44.77 108.14 44.77 C109.14 44.77 110.14 44.76 111.17 44.76 C112.48 44.75 112.48 44.75 113.82 44.75 C116.13 44.69 116.13 44.69 117.91 42.5 C118.11 39.73 118.19 37.06 118.18 34.28 C118.18 33.47 118.18 32.66 118.19 31.82 C118.19 30.1 118.18 28.37 118.18 26.65 C118.16 24.01 118.17 21.37 118.19 18.73 C118.19 17.06 118.18 15.39 118.18 13.72 C118.18 12.93 118.19 12.13 118.19 11.32 C118.33 6.94 118.33 6.94 115.91 3.5 C113.73 3.2 113.73 3.2 111.17 3.25 C110.17 3.24 109.17 3.24 108.14 3.23 C107.03 3.23 105.93 3.24 104.8 3.24 C103.64 3.24 102.48 3.24 101.29 3.23 C97.44 3.22 93.6 3.23 89.76 3.24 C87.1 3.23 84.44 3.23 81.78 3.23 C76.19 3.23 70.61 3.23 65.03 3.24 C58.57 3.25 52.11 3.25 45.66 3.24 C40.12 3.23 34.58 3.23 29.04 3.23 C25.73 3.23 22.41 3.23 19.1 3.23 C15.41 3.22 11.72 3.23 8.03 3.24 C6.93 3.24 5.83 3.23 4.69 3.23 C3.69 3.24 2.69 3.24 1.66 3.25 C0.79 3.25 -0.09 3.25 -0.99 3.25 C-3.3 3.31 -3.3 3.31 -5.09 5.5 Z " fill="#3F387A" transform="translate(125.085693359375,98.49879455566406)"/>
<path d="M0 0 C1.31 -0.01 2.63 -0.01 3.98 -0.02 C5.43 -0.02 6.87 -0.01 8.31 -0.01 C9.78 -0.01 11.25 -0.01 12.72 -0.01 C15.81 -0.02 18.9 -0.01 21.99 -0 C25.95 0.01 29.91 0 33.87 -0.01 C36.91 -0.02 39.95 -0.01 42.99 -0.01 C44.45 -0.01 45.91 -0.01 47.37 -0.01 C49.41 -0.02 51.45 -0.01 53.49 0 C55.24 0 55.24 0 57.01 0 C59.75 0.26 59.75 0.26 61.75 2.26 C62.01 4.35 62.01 4.35 62 6.76 C62 7.95 62 7.95 62.01 9.17 C61.75 11.26 61.75 11.26 59.75 13.26 C57.06 13.52 57.06 13.52 53.6 13.53 C52.31 13.54 51.02 13.55 49.69 13.56 C48.27 13.56 46.85 13.56 45.44 13.56 C43.99 13.56 42.54 13.57 41.1 13.57 C38.06 13.58 35.02 13.58 31.99 13.57 C28.1 13.57 24.21 13.59 20.31 13.61 C17.32 13.62 14.33 13.62 11.34 13.62 C9.91 13.62 8.47 13.63 7.04 13.64 C5.03 13.65 3.03 13.64 1.02 13.63 C-0.12 13.63 -1.26 13.63 -2.44 13.63 C-5.25 13.26 -5.25 13.26 -7.12 11.86 C-9.27 8.82 -8.54 5.87 -8.25 2.26 C-5.49 -0.51 -3.87 0.01 0 0 Z " fill="#49417C" transform="translate(154.25390625,48.7412109375)"/>
<path d="M0 0 C1.27 -0.02 2.54 -0.03 3.84 -0.05 C5.22 -0.05 6.6 -0.05 7.98 -0.05 C9.4 -0.06 10.82 -0.06 12.24 -0.07 C15.22 -0.09 18.19 -0.09 21.16 -0.08 C24.97 -0.08 28.77 -0.11 32.58 -0.15 C35.51 -0.17 38.44 -0.17 41.37 -0.17 C42.77 -0.17 44.18 -0.18 45.58 -0.2 C47.54 -0.22 49.51 -0.21 51.47 -0.2 C52.58 -0.2 53.7 -0.2 54.85 -0.2 C57.73 0.42 57.73 0.42 60.1 2.83 C61.76 5.45 62.22 6.59 62.12 9.63 C62.12 10.3 62.11 10.98 62.09 11.68 C62.06 12.52 62.02 13.36 61.98 14.23 C61.9 16.93 61.82 19.64 61.73 22.42 C70.15 21.92 70.15 21.92 78.73 21.42 C77.08 19.77 75.43 18.12 73.73 16.42 C73.92 14.11 73.92 14.11 74.73 12.42 C78.08 13.89 80.43 15.76 83.05 18.29 C83.76 18.97 84.48 19.65 85.22 20.35 C86.73 22.42 86.73 22.42 86.75 24.38 C85.35 27.2 83.44 29 81.17 31.17 C80.35 31.97 79.52 32.77 78.67 33.59 C78.03 34.2 77.39 34.8 76.73 35.42 C75.25 34.92 75.25 34.92 73.73 34.42 C74.34 30.2 75.31 29.85 78.73 26.42 C73.12 26.09 67.51 25.76 61.73 25.42 C61.89 30.79 61.89 30.79 62.09 36.16 C62.1 36.84 62.11 37.51 62.12 38.21 C62.15 38.9 62.17 39.58 62.19 40.29 C61.5 43.5 60.02 45.1 57.73 47.42 C54.85 48.04 54.85 48.04 51.47 48.04 C50.2 48.04 48.93 48.05 47.63 48.06 C46.25 48.05 44.86 48.03 43.48 48.01 C42.06 48.01 40.65 48.01 39.23 48.01 C36.25 48.01 33.28 47.99 30.31 47.96 C26.5 47.92 22.7 47.92 18.89 47.93 C15.96 47.93 13.03 47.92 10.1 47.9 C8.69 47.89 7.29 47.89 5.89 47.89 C3.92 47.89 1.96 47.86 0 47.84 C-1.67 47.83 -1.67 47.83 -3.38 47.81 C-6.62 47.37 -8.02 46.78 -10.27 44.42 C-10.77 42.52 -10.77 42.52 -10.78 40.36 C-10.8 39.15 -10.8 39.15 -10.82 37.91 C-10.81 37.03 -10.81 36.16 -10.8 35.26 C-10.8 34.36 -10.8 33.47 -10.81 32.54 C-10.81 30.64 -10.8 28.74 -10.79 26.84 C-10.77 23.93 -10.79 21.02 -10.81 18.11 C-10.81 16.27 -10.8 14.42 -10.8 12.58 C-10.8 11.7 -10.81 10.83 -10.82 9.93 C-10.81 9.12 -10.8 8.31 -10.78 7.48 C-10.78 6.76 -10.78 6.05 -10.77 5.32 C-10.27 3.42 -10.27 3.42 -8.62 1.69 C-5.59 0.06 -3.44 0.03 0 0 Z M-7.27 5.42 C-7.47 8.19 -7.55 10.86 -7.53 13.64 C-7.53 14.45 -7.54 15.27 -7.54 16.1 C-7.54 17.83 -7.53 19.55 -7.53 21.27 C-7.52 23.91 -7.53 26.55 -7.54 29.19 C-7.54 30.86 -7.54 32.53 -7.53 34.2 C-7.54 34.99 -7.54 35.79 -7.54 36.6 C-7.68 40.98 -7.68 40.98 -5.27 44.42 C-2.61 44.73 -2.61 44.73 0.53 44.68 C1.74 44.69 2.96 44.69 4.21 44.7 C5.53 44.69 6.85 44.69 8.2 44.69 C9.56 44.69 10.92 44.69 12.28 44.69 C15.13 44.69 17.99 44.69 20.84 44.68 C24.5 44.67 28.15 44.68 31.81 44.69 C34.62 44.7 37.43 44.69 40.24 44.69 C42.25 44.69 44.25 44.69 46.26 44.7 C47.47 44.69 48.69 44.69 49.94 44.68 C51.01 44.68 52.09 44.68 53.19 44.67 C55.9 44.67 55.9 44.67 57.73 42.42 C57.93 39.65 58.01 36.98 58 34.2 C58 33.39 58 32.57 58.01 31.74 C58.01 30.01 58 28.29 58 26.57 C57.98 23.93 58 21.29 58.01 18.65 C58.01 16.98 58 15.31 58 13.64 C58 12.85 58.01 12.05 58.01 11.24 C58.15 6.86 58.15 6.86 55.73 3.42 C53.08 3.11 53.08 3.11 49.94 3.16 C48.72 3.15 47.51 3.15 46.26 3.14 C44.94 3.15 43.62 3.15 42.27 3.15 C40.91 3.15 39.55 3.15 38.19 3.15 C35.33 3.15 32.48 3.15 29.63 3.16 C25.97 3.17 22.31 3.16 18.66 3.15 C15.85 3.14 13.04 3.15 10.23 3.15 C8.22 3.15 6.22 3.15 4.21 3.14 C3 3.15 1.78 3.15 0.53 3.16 C-0.54 3.16 -1.62 3.16 -2.72 3.17 C-5.43 3.17 -5.43 3.17 -7.27 5.42 Z " fill="#3F377A" transform="translate(20.265625,98.580078125)"/>
<path d="M0 0 C60.72 0 121.44 0 184 0 C184 1.32 184 2.64 184 4 C123.28 4 62.56 4 0 4 C0 2.68 0 1.36 0 0 Z " fill="#3E3678" transform="translate(36,220)"/>
<path d="M0 0 C21.12 0 42.24 0 64 0 C64 2.31 64 4.62 64 7 C42.88 7 21.76 7 0 7 C0 4.69 0 2.38 0 0 Z " fill="#E3A12C" transform="translate(149,186)"/>
<path d="M0 0 C1.29 -0.01 2.59 -0.01 3.92 -0.02 C5.34 -0.01 6.75 -0 8.17 0.01 C9.61 0.01 11.06 0.01 12.51 0.01 C15.54 0.01 18.58 0.02 21.61 0.04 C25.5 0.06 29.4 0.06 33.29 0.05 C36.28 0.05 39.27 0.06 42.26 0.07 C43.7 0.07 45.13 0.07 46.57 0.07 C48.57 0.07 50.57 0.08 52.58 0.1 C54.29 0.1 54.29 0.1 56.04 0.11 C58.72 0.37 58.72 0.37 60.72 2.37 C60.99 4.47 60.99 4.47 60.97 6.87 C60.98 8.06 60.98 8.06 60.99 9.28 C60.72 11.37 60.72 11.37 58.72 13.37 C55.99 13.63 55.99 13.63 52.47 13.63 C51.16 13.64 49.84 13.64 48.49 13.65 C47.04 13.65 45.6 13.64 44.16 13.64 C42.69 13.64 41.22 13.64 39.75 13.64 C36.66 13.65 33.57 13.64 30.49 13.63 C26.52 13.62 22.56 13.63 18.6 13.64 C15.56 13.65 12.52 13.65 9.48 13.64 C8.02 13.64 6.56 13.64 5.1 13.64 C3.06 13.65 1.02 13.64 -1.02 13.63 C-2.76 13.63 -2.76 13.63 -4.54 13.63 C-7.28 13.37 -7.28 13.37 -9.28 11.37 C-9.85 4.18 -9.85 4.18 -8.15 1.77 C-5.43 -0.26 -3.37 -0 0 0 Z M-6.28 3.37 C-6.28 5.68 -6.28 7.99 -6.28 10.37 C14.84 10.37 35.96 10.37 57.72 10.37 C57.72 8.06 57.72 5.75 57.72 3.37 C36.6 3.37 15.48 3.37 -6.28 3.37 Z " fill="#543B78" transform="translate(155.275634765625,182.627685546875)"/>
<path d="M0 0 C21.12 0 42.24 0 64 0 C64 2.31 64 4.62 64 7 C42.88 7 21.76 7 0 7 C0 4.69 0 2.38 0 0 Z " fill="#E3A12C" transform="translate(149,119)"/>
<path d="M0 0 C21.12 0 42.24 0 64 0 C64 2.31 64 4.62 64 7 C55.8 7.02 47.61 7.04 39.41 7.05 C35.6 7.06 31.8 7.06 27.99 7.08 C24.32 7.09 20.65 7.09 16.98 7.09 C15.58 7.1 14.18 7.1 12.77 7.11 C10.81 7.11 8.86 7.11 6.9 7.11 C5.78 7.12 4.66 7.12 3.51 7.12 C1 7 1 7 0 6 C0 4.02 0 2.04 0 0 Z " fill="#E5A32B" transform="translate(149,52)"/>
<path d="M0 0 C1.29 -0.01 2.59 -0.01 3.92 -0.02 C5.34 -0.01 6.75 -0 8.17 0.01 C9.61 0.01 11.06 0.01 12.51 0.01 C15.54 0.01 18.58 0.02 21.61 0.04 C25.5 0.06 29.4 0.06 33.29 0.05 C36.28 0.05 39.27 0.06 42.26 0.07 C43.7 0.07 45.13 0.07 46.57 0.07 C48.57 0.07 50.57 0.08 52.58 0.1 C54.29 0.1 54.29 0.1 56.04 0.11 C58.72 0.37 58.72 0.37 60.72 2.37 C60.99 4.47 60.99 4.47 60.97 6.87 C60.98 8.06 60.98 8.06 60.99 9.28 C60.72 11.37 60.72 11.37 58.72 13.37 C56.04 13.63 56.04 13.63 52.58 13.65 C51.29 13.66 50 13.67 48.66 13.68 C47.25 13.68 45.83 13.67 44.42 13.67 C42.97 13.68 41.52 13.68 40.07 13.69 C37.04 13.69 34 13.69 30.97 13.69 C27.08 13.68 23.18 13.7 19.29 13.72 C16.3 13.74 13.31 13.74 10.32 13.73 C8.89 13.74 7.45 13.74 6.02 13.75 C4.01 13.76 2.01 13.75 0 13.74 C-1.14 13.75 -2.28 13.75 -3.46 13.75 C-6.28 13.37 -6.28 13.37 -8.14 12.07 C-10.05 9.21 -9.63 6.69 -9.28 3.37 C-6.84 -0.28 -4.16 -0 0 0 Z M-6.28 3.37 C-6.28 5.68 -6.28 7.99 -6.28 10.37 C14.84 10.37 35.96 10.37 57.72 10.37 C57.72 8.06 57.72 5.75 57.72 3.37 C36.6 3.37 15.48 3.37 -6.28 3.37 Z " fill="#434585" transform="translate(155.275634765625,115.627685546875)"/>
<path d="M0 0 C1.62 0.01 1.62 0.01 3.27 0.01 C5.1 0.01 5.1 0.01 6.97 0.01 C8.31 0.02 9.65 0.03 10.98 0.05 C12.35 0.05 13.71 0.05 15.08 0.05 C18.67 0.06 22.26 0.08 25.86 0.1 C29.52 0.12 33.19 0.13 36.86 0.14 C44.05 0.16 51.25 0.2 58.44 0.24 C58.44 0.57 58.44 0.9 58.44 1.24 C40.62 1.57 22.8 1.9 4.44 2.24 C4.44 14.45 4.44 26.66 4.44 39.24 C22.26 39.57 40.08 39.9 58.44 40.24 C58.44 40.57 58.44 40.9 58.44 41.24 C50.52 41.29 42.61 41.32 34.69 41.34 C31.01 41.35 27.33 41.37 23.66 41.39 C20.11 41.41 16.56 41.43 13.02 41.43 C11.66 41.43 10.31 41.44 8.95 41.45 C7.06 41.47 5.16 41.47 3.27 41.47 C2.19 41.47 1.11 41.48 0 41.48 C-2.56 41.24 -2.56 41.24 -4.56 39.24 C-4.76 36.47 -4.84 33.8 -4.82 31.02 C-4.82 30.21 -4.83 29.39 -4.83 28.56 C-4.83 26.83 -4.83 25.11 -4.82 23.39 C-4.81 20.75 -4.82 18.11 -4.83 15.47 C-4.83 13.8 -4.83 12.13 -4.82 10.46 C-4.83 9.67 -4.83 8.87 -4.83 8.06 C-4.77 0.45 -4.77 0.45 0 0 Z " fill="#5D76D7" transform="translate(17.556304931640625,101.75949096679688)"/>
<path d="M0 0 C1.62 0.01 1.62 0.01 3.27 0.01 C5.1 0.01 5.1 0.01 6.97 0.01 C8.31 0.02 9.65 0.03 10.98 0.05 C12.35 0.05 13.71 0.05 15.08 0.05 C18.67 0.06 22.26 0.08 25.86 0.1 C29.52 0.12 33.19 0.13 36.86 0.14 C44.05 0.16 51.25 0.2 58.44 0.24 C58.44 0.57 58.44 0.9 58.44 1.24 C40.62 1.57 22.8 1.9 4.44 2.24 C4.44 14.45 4.44 26.66 4.44 39.24 C22.26 39.57 40.08 39.9 58.44 40.24 C58.44 40.57 58.44 40.9 58.44 41.24 C50.52 41.29 42.61 41.32 34.69 41.34 C31.01 41.35 27.33 41.37 23.66 41.39 C20.11 41.41 16.56 41.43 13.02 41.43 C11.66 41.43 10.31 41.44 8.95 41.45 C7.06 41.47 5.16 41.47 3.27 41.47 C2.19 41.47 1.11 41.48 0 41.48 C-2.56 41.24 -2.56 41.24 -4.56 39.24 C-4.76 36.47 -4.84 33.8 -4.82 31.02 C-4.82 30.21 -4.83 29.39 -4.83 28.56 C-4.83 26.83 -4.83 25.11 -4.82 23.39 C-4.81 20.75 -4.82 18.11 -4.83 15.47 C-4.83 13.8 -4.83 12.13 -4.82 10.46 C-4.83 9.67 -4.83 8.87 -4.83 8.06 C-4.77 0.45 -4.77 0.45 0 0 Z " fill="#6F6E77" transform="translate(17.556304931640625,34.759490966796875)"/>
<path d="M0 0 C2.64 0 5.28 0 8 0 C9.82 1.82 9.13 4.31 9.14 6.73 C9.14 7.53 9.13 8.33 9.13 9.16 C9.13 9.97 9.13 10.79 9.14 11.63 C9.14 13.37 9.13 15.1 9.13 16.83 C9.13 19.49 9.13 22.15 9.14 24.81 C9.14 26.49 9.13 28.17 9.13 29.84 C9.13 30.64 9.14 31.45 9.14 32.27 C9.11 37.89 9.11 37.89 8 39 C5.36 39 2.72 39 0 39 C0 26.13 0 13.26 0 0 Z " fill="#F18675" transform="translate(234,170)"/>
<path d="M0 0 C2.64 0 5.28 0 8 0 C8 12.87 8 25.74 8 39 C5.36 39 2.72 39 0 39 C-1.82 37.18 -1.13 34.69 -1.14 32.27 C-1.14 31.47 -1.13 30.67 -1.13 29.84 C-1.13 29.03 -1.13 28.21 -1.14 27.37 C-1.14 25.63 -1.13 23.9 -1.13 22.17 C-1.13 19.51 -1.13 16.85 -1.14 14.19 C-1.14 12.51 -1.13 10.83 -1.13 9.16 C-1.13 8.36 -1.14 7.55 -1.14 6.73 C-1.11 1.11 -1.11 1.11 0 0 Z " fill="#F13075" transform="translate(14,170)"/>
<path d="M0 0 C2.64 0 5.28 0 8 0 C9.82 1.82 9.13 4.31 9.14 6.73 C9.14 7.53 9.13 8.33 9.13 9.16 C9.13 9.97 9.13 10.79 9.14 11.63 C9.14 13.37 9.13 15.1 9.13 16.83 C9.13 19.49 9.13 22.15 9.14 24.81 C9.14 26.49 9.13 28.17 9.13 29.84 C9.13 30.64 9.14 31.45 9.14 32.27 C9.11 37.89 9.11 37.89 8 39 C5.36 39 2.72 39 0 39 C0 26.13 0 13.26 0 0 Z " fill="#62DFE5" transform="translate(234,103)"/>
<path d="M0 0 C2.64 0 5.28 0 8 0 C9.82 1.82 9.13 4.31 9.14 6.73 C9.14 7.53 9.13 8.33 9.13 9.16 C9.13 9.97 9.13 10.79 9.14 11.63 C9.14 13.37 9.13 15.1 9.13 16.83 C9.13 19.49 9.13 22.15 9.14 24.81 C9.14 26.49 9.13 28.17 9.13 29.84 C9.13 30.64 9.14 31.45 9.14 32.27 C9.11 37.89 9.11 37.89 8 39 C5.36 39 2.72 39 0 39 C0 26.13 0 13.26 0 0 Z " fill="#CBCBCC" transform="translate(234,36)"/>
<path d="M0 0 C6.93 0 13.86 0 21 0 C21 1.32 21 2.64 21 4 C14.07 4 7.14 4 0 4 C0 2.68 0 1.36 0 0 Z " fill="#3F3579" transform="translate(227,220)"/>
<path d="M0 0 C6.93 0 13.86 0 21 0 C21 1.32 21 2.64 21 4 C14.07 4 7.14 4 0 4 C0 2.68 0 1.36 0 0 Z " fill="#3F3578" transform="translate(8,220)"/>
</svg>
