<?xml version="1.0" encoding="UTF-8"?>
<!-- Generator: visioncortex VTracer 0.6.4 -->
<svg version="1.1" xmlns="http://www.w3.org/2000/svg" width="256" height="256">
<path d="M0 0 C5.97 2.64 8.44 7.26 11 13 C11.24 14.02 11.48 15.04 11.73 16.09 C13.48 20.12 15.5 20.6 19.5 22.25 C30.83 27.41 37.21 35.27 42.62 46.31 C45.76 54.71 46.28 62.92 46.27 71.82 C46.29 74.07 46.31 76.32 46.34 78.57 C46.36 82.07 46.38 85.58 46.38 89.08 C46.39 92.49 46.42 95.9 46.46 99.32 C46.45 100.87 46.45 100.87 46.45 102.46 C46.56 111.11 48.73 118.73 55 125 C57.28 126.5 59.57 127.74 62 129 C62.5 131.63 62.5 131.63 62 135 C55.23 143.18 42.61 145.48 32.74 147.57 C31.48 147.84 30.22 148.11 28.92 148.39 C27.47 148.69 27.47 148.69 26 149 C25.99 149.91 25.99 150.82 25.98 151.76 C25.92 160.37 25.85 168.98 25.76 177.58 C25.72 182.01 25.68 186.43 25.65 190.86 C25.63 195.13 25.59 199.4 25.54 203.67 C25.52 205.3 25.51 206.93 25.5 208.56 C25.49 210.84 25.46 213.13 25.43 215.41 C25.42 217.36 25.42 217.36 25.4 219.35 C24.67 226.02 22.18 230.59 17 235 C13.34 236.22 9.97 236.14 6.16 236.14 C5.35 236.14 4.54 236.15 3.71 236.15 C0.99 236.16 -1.72 236.16 -4.44 236.16 C-6.38 236.17 -8.32 236.17 -10.27 236.18 C-15.55 236.19 -20.84 236.2 -26.12 236.2 C-29.42 236.2 -32.72 236.21 -36.02 236.21 C-46.34 236.23 -56.66 236.24 -66.98 236.24 C-78.91 236.24 -90.83 236.26 -102.75 236.29 C-111.96 236.31 -121.17 236.32 -130.38 236.32 C-135.89 236.32 -141.39 236.33 -146.89 236.35 C-152.07 236.36 -157.25 236.37 -162.42 236.36 C-164.32 236.36 -166.22 236.36 -168.12 236.37 C-170.72 236.38 -173.31 236.38 -175.9 236.37 C-176.66 236.38 -177.41 236.38 -178.19 236.39 C-184.34 236.33 -187.3 234.52 -191.77 230.51 C-195.19 226.14 -194.69 221.18 -194.63 215.86 C-194.64 214.74 -194.65 213.63 -194.65 212.49 C-194.67 208.81 -194.65 205.14 -194.63 201.47 C-194.63 198.91 -194.63 196.36 -194.64 193.8 C-194.64 188.45 -194.62 183.1 -194.6 177.74 C-194.56 171.56 -194.56 165.39 -194.58 159.21 C-194.6 153.25 -194.59 147.29 -194.57 141.34 C-194.57 138.81 -194.57 136.28 -194.58 133.75 C-194.58 130.21 -194.56 126.68 -194.53 123.14 C-194.54 122.1 -194.55 121.05 -194.55 119.98 C-194.47 114 -193.95 110.58 -190 106 C-188.21 104.3 -188.21 104.3 -186.38 102.96 C-185.69 102.44 -185 101.92 -184.29 101.39 C-183.57 100.87 -182.86 100.35 -182.12 99.81 C-179.96 98.21 -177.81 96.6 -175.68 94.95 C-173.59 93.43 -171.58 92.16 -169.35 90.88 C-164.67 88 -160.05 85.16 -158.24 79.71 C-157.12 73.3 -157.43 66.86 -157.69 60.38 C-157.72 58.41 -157.74 56.45 -157.76 54.48 C-157.79 50.92 -157.87 47.36 -157.98 43.79 C-157.99 42.54 -157.99 41.29 -158 40 C-157 39 -157 39 -154.92 38.92 C-154.01 38.93 -153.09 38.95 -152.15 38.97 C-151.12 38.98 -150.08 39 -149.01 39.02 C-147.88 39.03 -146.75 39.05 -145.58 39.07 C-143.19 39.08 -140.79 39.09 -138.4 39.09 C-134.62 39.1 -130.85 39.12 -127.07 39.2 C-109.64 40.03 -109.64 40.03 -94.57 32.55 C-93.56 31.57 -92.56 30.58 -91.57 29.56 C-89.03 27.03 -87.5 25.73 -84 25 C-81.98 25.86 -81.98 25.86 -80.05 27.39 C-79 28.21 -79 28.21 -77.92 29.04 C-76.85 29.92 -76.85 29.92 -75.75 30.81 C-75.02 31.39 -74.29 31.96 -73.53 32.55 C-68.48 36.52 -68.48 36.52 -67 38 C-60.03 38.91 -50.55 40.12 -44.36 36.43 C-42.68 34.37 -41.35 32.28 -40 30 C-36.21 25.89 -32.53 23.75 -27.31 21.81 C-23.91 20.39 -22.37 19.66 -20.55 16.42 C-19.9 14.49 -19.3 12.55 -18.75 10.59 C-17.51 6.3 -15.17 3.97 -11.81 1.19 C-7.79 -0.51 -4.3 -0.65 0 0 Z " fill="#0C0A08" transform="translate(194,10)"/>
<path d="M0 0 C0.9 -0.02 1.79 -0.04 2.71 -0.06 C14.84 -0.13 24.77 3.99 33.85 12.06 C40.85 19.47 45.92 29.22 45.95 39.49 C45.96 41.05 45.96 41.05 45.98 42.65 C45.98 43.78 45.98 44.91 45.99 46.07 C46.01 48.46 46.04 50.86 46.06 53.26 C46.1 57.03 46.12 60.8 46.14 64.57 C46.15 68.21 46.19 71.86 46.24 75.5 C46.24 76.62 46.23 77.73 46.23 78.87 C46.38 88.12 48.21 95.8 53.81 103.25 C53.81 103.91 53.81 104.57 53.81 105.25 C54.68 105.62 54.68 105.62 55.56 106 C58.11 107.42 59.83 109.13 61.81 111.25 C60.63 112.03 59.44 112.8 58.25 113.56 C57.26 114.21 57.26 114.21 56.25 114.86 C50.44 118.17 44.73 119.93 38.25 121.31 C37.19 121.55 37.19 121.55 36.1 121.8 C24.24 124.39 12.57 125.6 0.44 125.5 C-0.83 125.49 -2.1 125.49 -3.41 125.48 C-23.44 125.25 -42.61 122.28 -60.19 112.25 C-60.19 111.26 -60.19 110.27 -60.19 109.25 C-58.58 107.71 -58.58 107.71 -56.44 106.06 C-52.29 102.59 -50.08 99.27 -48.19 94.25 C-47.85 93.46 -47.51 92.67 -47.16 91.86 C-45.77 86.71 -45.89 81.74 -45.88 76.42 C-45.85 74.07 -45.83 71.72 -45.8 69.37 C-45.77 65.69 -45.75 62 -45.73 58.32 C-45.71 54.75 -45.67 51.18 -45.63 47.61 C-45.63 46.52 -45.63 45.43 -45.63 44.31 C-45.47 31.75 -41.79 21.68 -33.38 12.21 C-23.68 3.04 -12.92 0.07 0 0 Z " fill="#FD636E" transform="translate(189.1875,31.75)"/>
<path d="M0 0 C4.15 1.66 7.07 4.66 10.25 7.69 C11.42 8.78 12.59 9.88 13.75 10.97 C14.31 11.49 14.88 12.02 15.45 12.56 C17.94 14.87 20.49 17.09 23.05 19.3 C25.34 21.29 27.57 23.33 29.81 25.38 C33.19 28.43 36.63 31.34 40.19 34.19 C46.25 39.09 51.88 44.42 57.55 49.77 C60.68 52.71 63.86 55.56 67.11 58.36 C69.44 60.38 71.72 62.44 74 64.5 C76.98 67.19 79.97 69.86 83 72.5 C96.24 84.05 96.24 84.05 102 90 C98.24 92.45 94.5 92.28 90.17 92.25 C88.98 92.26 88.98 92.26 87.77 92.26 C85.11 92.27 82.45 92.27 79.78 92.26 C77.88 92.26 75.97 92.27 74.06 92.27 C68.88 92.28 63.7 92.27 58.52 92.27 C53.1 92.26 47.68 92.27 42.27 92.27 C33.17 92.28 24.07 92.27 14.98 92.26 C4.45 92.25 -6.07 92.25 -16.6 92.26 C-25.63 92.27 -34.66 92.27 -43.69 92.27 C-49.08 92.27 -54.48 92.27 -59.88 92.27 C-64.95 92.28 -70.02 92.27 -75.09 92.26 C-76.96 92.26 -78.82 92.26 -80.69 92.27 C-83.22 92.27 -85.76 92.26 -88.3 92.25 C-89.04 92.26 -89.79 92.26 -90.55 92.27 C-94.26 92.24 -95.83 92.11 -99 90 C-99 88 -99 88 -97.6 86.59 C-96.95 86.04 -96.3 85.5 -95.62 84.94 C-92.37 82.17 -89.17 79.37 -86 76.5 C-82.38 73.24 -78.74 70.01 -75.06 66.81 C-72.69 64.73 -70.34 62.62 -68 60.5 C-64.38 57.23 -60.73 54 -57.05 50.8 C-54.74 48.77 -52.46 46.7 -50.19 44.62 C-46.65 41.42 -43.03 38.37 -39.31 35.38 C-35.53 32.32 -32.04 29.16 -28.66 25.67 C-26.28 23.28 -23.73 21.09 -21.17 18.88 C-18.75 16.78 -16.37 14.65 -14 12.5 C-10.2 9.07 -6.36 5.67 -2.5 2.31 C-1.64 1.56 -0.8 0.8 0 0 Z " fill="#FDE259" transform="translate(108,150)"/>
<path d="M0 0 C33.99 0 67.98 0 103 0 C102.01 3.96 101.02 7.92 100 12 C98.96 12.01 97.92 12.02 96.86 12.03 C87.1 12.13 77.34 12.23 67.59 12.34 C62.57 12.39 57.55 12.45 52.54 12.5 C47.7 12.54 42.86 12.6 38.03 12.65 C36.18 12.67 34.33 12.69 32.48 12.71 C29.9 12.73 27.31 12.76 24.73 12.79 C23.96 12.8 23.19 12.81 22.39 12.81 C18.9 12.55 18.9 12.55 16 14 C15.9 15.48 15.87 16.96 15.87 18.44 C15.87 19.33 15.86 20.23 15.86 21.15 C15.87 22.09 15.87 23.03 15.88 24 C15.87 24.94 15.87 25.88 15.86 26.85 C15.87 28.19 15.87 28.19 15.87 29.56 C15.87 30.39 15.87 31.22 15.87 32.07 C15.79 34.01 15.79 34.01 17 35 C19.55 35.13 22.08 35.19 24.64 35.21 C25.44 35.22 26.24 35.23 27.06 35.24 C29.72 35.27 32.38 35.29 35.04 35.32 C36.87 35.34 38.71 35.36 40.55 35.38 C45.39 35.43 50.24 35.48 55.08 35.53 C60.02 35.58 64.96 35.64 69.9 35.69 C79.6 35.8 89.3 35.9 99 36 C99.06 40.31 99.09 44.62 99.12 48.94 C99.14 50.15 99.16 51.36 99.18 52.61 C99.23 63.44 98.46 72.61 91 81 C88.46 82.96 85.86 84.56 83 86 C82.88 88.34 82.88 88.34 84 91 C92.78 99.01 106.75 101.74 118 104 C114.41 107.69 110.67 111.05 106.69 114.31 C106.14 114.77 105.59 115.22 105.02 115.69 C103.68 116.8 102.34 117.9 101 119 C98.19 117.71 96.07 116.34 93.83 114.21 C93.25 113.66 92.67 113.12 92.08 112.56 C91.47 111.98 90.87 111.41 90.25 110.81 C89 109.63 87.74 108.45 86.48 107.27 C85.88 106.7 85.28 106.14 84.66 105.55 C79.61 100.84 74.33 96.4 69 92 C65.26 93.58 62.7 95.93 59.75 98.69 C58.77 99.59 57.79 100.5 56.81 101.41 C55.88 102.26 54.95 103.12 54 104 C51.98 105.79 49.95 107.57 47.91 109.32 C46.54 110.52 45.21 111.76 43.91 113.02 C43.22 113.67 42.52 114.33 41.81 115 C41.2 115.6 40.59 116.2 39.96 116.81 C38 118 38 118 35.72 118.05 C31.74 116.51 28.91 113.95 25.69 111.19 C24.28 110.01 22.86 108.83 21.45 107.65 C20.36 106.75 20.36 106.75 19.24 105.82 C14.3 101.81 9.15 98.06 4.04 94.27 C1 92 1 92 0 91 C-0.1 88.17 -0.13 85.36 -0.11 82.53 C-0.11 81.18 -0.11 81.18 -0.11 79.8 C-0.11 76.86 -0.11 73.93 -0.1 71 C-0.1 69.19 -0.1 67.38 -0.09 65.58 C-0.09 58.86 -0.08 52.15 -0.06 45.44 C-0.04 30.44 -0.02 15.45 0 0 Z " fill="#F8F6F7" transform="translate(41,54)"/>
<path d="M0 0 C4.08 1.72 7.29 4.53 10.69 7.31 C16.2 11.78 21.78 16.15 27.44 20.44 C33.81 25.27 40.05 30.24 46.24 35.32 C51.51 39.63 56.89 43.78 62.33 47.88 C64.74 49.79 66.88 51.78 69 54 C53.81 68.27 53.81 68.27 47.88 73.37 C45.61 75.34 43.4 77.36 41.19 79.38 C37.81 82.43 34.37 85.34 30.81 88.19 C26.12 91.98 21.7 96 17.31 100.12 C16.35 101.03 16.35 101.03 15.36 101.95 C12.7 104.46 10.03 106.97 7.37 109.49 C6.67 110.13 5.97 110.77 5.25 111.44 C4.68 111.97 4.11 112.51 3.52 113.06 C3.02 113.37 2.52 113.68 2 114 C1.01 113.67 0.02 113.34 -1 113 C-1.02 98.56 -1.04 84.12 -1.05 69.69 C-1.06 62.98 -1.06 56.28 -1.08 49.58 C-1.09 43.11 -1.09 36.65 -1.09 30.18 C-1.1 27.71 -1.1 25.24 -1.11 22.77 C-1.11 19.32 -1.11 15.87 -1.11 12.42 C-1.12 11.39 -1.12 10.36 -1.12 9.29 C-1.12 8.36 -1.12 7.42 -1.12 6.45 C-1.12 5.64 -1.12 4.82 -1.12 3.98 C-1 2 -1 2 0 0 Z " fill="#FDE359" transform="translate(5,122)"/>
<path d="M0 0 C2.43 2.36 4.59 4.73 6.62 7.44 C10.89 12.51 16.82 14.94 23 17 C34.49 17.97 41.72 15.63 51 9 C51.99 8.34 52.98 7.68 54 7 C54.05 15.31 54.08 23.62 54.1 31.93 C54.11 35.79 54.13 39.65 54.15 43.51 C54.17 47.23 54.18 50.95 54.19 54.67 C54.19 56.09 54.2 57.51 54.21 58.94 C54.23 60.92 54.23 62.91 54.23 64.9 C54.23 66.03 54.24 67.16 54.24 68.33 C54 71 54 71 52 73 C47.63 69.21 43.3 65.38 39 61.5 C35.38 58.23 31.73 55 28.05 51.8 C25.74 49.77 23.46 47.7 21.19 45.62 C17.81 42.57 14.37 39.66 10.81 36.81 C5.4 32.44 0.34 27.75 -4.7 22.96 C-8.36 19.49 -12.09 16.19 -16 13 C-11.31 7.83 -5.68 4.01 0 0 Z " fill="#FDE259" transform="translate(160,163)"/>
<path d="M0 0 C26.4 0 52.8 0 80 0 C80 5.28 80 10.56 80 16 C53.6 16 27.2 16 0 16 C0 10.72 0 5.44 0 0 Z " fill="#F7F5F7" transform="translate(60,70)"/>
<path d="M0 0 C1.65 0 3.3 0 5 0 C4.98 1.05 4.96 2.11 4.94 3.19 C4.78 13.15 4.69 23.11 4.67 33.07 C4.65 38.19 4.61 43.31 4.52 48.43 C4.42 53.38 4.4 58.32 4.42 63.27 C4.42 65.15 4.39 67.03 4.33 68.91 C3.8 78.88 3.8 78.88 7.38 87.86 C11.14 91.63 15.45 94.29 20 97 C21.45 98.1 22.89 99.22 24.29 100.38 C24.86 100.82 25.43 101.27 26.01 101.73 C27.13 102.61 28.24 103.49 29.36 104.36 C32.21 106.61 35.08 108.84 38 111 C41.92 109.38 44.71 106.69 47.75 103.81 C48.82 102.82 49.89 101.82 50.96 100.82 C51.74 100.1 51.74 100.1 52.53 99.36 C55.06 97.02 57.65 94.75 60.27 92.5 C61.4 91.52 62.52 90.5 63.61 89.46 C65.98 87.27 67.59 86.07 70.81 85.55 C75 86.14 77.02 88.17 79.88 91.06 C80.93 92.08 81.98 93.1 83.04 94.11 C83.55 94.61 84.05 95.11 84.58 95.62 C86.41 97.4 88.32 99.08 90.25 100.75 C90.86 101.28 91.48 101.81 92.11 102.36 C92.73 102.9 93.36 103.44 94 104 C95.5 105.31 97 106.62 98.5 107.94 C99.17 108.52 99.84 109.11 100.53 109.71 C101.02 110.14 101.5 110.56 102 111 C104.24 109.92 106.14 108.89 108.12 107.38 C110 106 110 106 112 106 C112 105.01 112 104.02 112 103 C113.98 103.33 115.96 103.66 118 104 C114.41 107.69 110.67 111.05 106.69 114.31 C106.14 114.77 105.59 115.22 105.02 115.69 C103.68 116.8 102.34 117.9 101 119 C98.19 117.71 96.07 116.34 93.83 114.21 C93.25 113.66 92.67 113.12 92.08 112.56 C91.47 111.98 90.87 111.41 90.25 110.81 C89 109.63 87.74 108.45 86.48 107.27 C85.88 106.7 85.28 106.14 84.66 105.55 C79.61 100.84 74.33 96.4 69 92 C65.26 93.58 62.7 95.93 59.75 98.69 C58.77 99.59 57.79 100.5 56.81 101.41 C55.88 102.26 54.95 103.12 54 104 C51.98 105.79 49.95 107.57 47.91 109.32 C46.54 110.52 45.21 111.76 43.91 113.02 C43.22 113.67 42.52 114.33 41.81 115 C41.2 115.6 40.59 116.2 39.96 116.81 C38 118 38 118 35.72 118.05 C31.74 116.51 28.91 113.95 25.69 111.19 C24.28 110.01 22.86 108.83 21.45 107.65 C20.36 106.75 20.36 106.75 19.24 105.82 C14.3 101.81 9.15 98.06 4.04 94.27 C1 92 1 92 0 91 C-0.1 88.17 -0.13 85.36 -0.11 82.53 C-0.11 81.65 -0.11 80.76 -0.11 79.84 C-0.11 76.89 -0.11 73.95 -0.1 71 C-0.1 68.96 -0.09 66.92 -0.09 64.88 C-0.09 59.5 -0.08 54.12 -0.07 48.75 C-0.06 43.26 -0.05 37.78 -0.05 32.3 C-0.04 21.53 -0.02 10.77 0 0 Z " fill="#DBD8EA" transform="translate(41,54)"/>
<path d="M0 0 C0.33 0.66 0.66 1.32 1 2 C0.34 1.67 -0.32 1.34 -1 1 C-0.67 0.67 -0.34 0.34 0 0 Z M-3 2 C-2.34 2.33 -1.68 2.66 -1 3 C-2.32 4.65 -3.64 6.3 -5 8 C-4.02 8 -3.04 7.99 -2.03 7.99 C21.83 7.9 45.69 7.83 69.55 7.79 C81.09 7.77 92.63 7.74 104.17 7.7 C114.22 7.66 124.28 7.63 134.33 7.62 C139.66 7.62 144.98 7.61 150.31 7.58 C155.32 7.55 160.33 7.54 165.34 7.55 C167.18 7.55 169.02 7.54 170.86 7.52 C173.37 7.5 175.88 7.51 178.39 7.52 C179.12 7.51 179.86 7.5 180.61 7.48 C182.65 7.51 182.65 7.51 186 8 C187.98 10.03 187.98 10.03 189 12 C185.24 14.45 181.5 14.28 177.17 14.25 C176.38 14.26 175.59 14.26 174.77 14.26 C172.11 14.27 169.45 14.27 166.78 14.26 C164.88 14.26 162.97 14.27 161.06 14.27 C155.88 14.28 150.7 14.27 145.52 14.27 C140.1 14.26 134.68 14.27 129.27 14.27 C120.17 14.28 111.07 14.27 101.98 14.26 C91.45 14.25 80.93 14.25 70.4 14.26 C61.37 14.27 52.34 14.27 43.31 14.27 C37.92 14.27 32.52 14.27 27.12 14.27 C22.05 14.28 16.98 14.27 11.91 14.26 C10.04 14.26 8.18 14.26 6.31 14.27 C3.78 14.27 1.24 14.26 -1.3 14.25 C-2.42 14.26 -2.42 14.26 -3.55 14.27 C-7.26 14.24 -8.83 14.11 -12 12 C-12 11.34 -12 10.68 -12 10 C-10.29 8.31 -10.29 8.31 -8.06 6.44 C-6.97 5.51 -6.97 5.51 -5.85 4.56 C-5.24 4.04 -4.63 3.53 -4 3 C-3.67 2.67 -3.34 2.34 -3 2 Z " fill="#F5C957" transform="translate(21,228)"/>
<path d="M0 0 C0.66 0.33 1.32 0.66 2 1 C0.97 1.7 -0.06 2.4 -1.12 3.12 C-7.2 8.26 -10.41 17.35 -12 25 C-12.1 26.65 -12.15 28.3 -12.16 29.95 C-12.17 31.42 -12.17 31.42 -12.19 32.92 C-12.2 33.98 -12.2 35.04 -12.21 36.12 C-12.24 38.38 -12.27 40.64 -12.3 42.89 C-12.34 46.44 -12.37 49.98 -12.4 53.52 C-12.43 56.95 -12.48 60.38 -12.52 63.81 C-12.53 64.85 -12.53 65.89 -12.53 66.97 C-12.75 79.91 -15.47 89.12 -24.38 98.5 C-24.91 99 -25.45 99.49 -26 100 C-9.23 109.83 11.21 111.4 30.25 111.31 C30.92 111.31 31.59 111.31 32.29 111.31 C50.38 111.21 69.53 109.23 86 101 C86.99 101.99 87.98 102.98 89 104 C87.82 104.78 86.63 105.55 85.44 106.31 C84.45 106.96 84.45 106.96 83.43 107.61 C77.63 110.92 71.92 112.68 65.44 114.06 C64.37 114.3 64.37 114.3 63.29 114.55 C51.43 117.14 39.76 118.35 27.62 118.25 C26.35 118.24 25.08 118.24 23.77 118.23 C3.75 118 -15.42 115.03 -33 105 C-33 104.01 -33 103.02 -33 102 C-31.39 100.46 -31.39 100.46 -29.25 98.81 C-25.1 95.34 -22.9 92.02 -21 87 C-20.66 86.21 -20.32 85.42 -19.97 84.61 C-18.59 79.46 -18.7 74.49 -18.69 69.17 C-18.67 66.82 -18.64 64.47 -18.62 62.12 C-18.59 58.44 -18.56 54.75 -18.54 51.07 C-18.52 47.5 -18.48 43.93 -18.44 40.36 C-18.44 39.27 -18.44 38.18 -18.44 37.06 C-18.28 24.58 -14.72 13.77 -5.77 4.75 C-3.89 3.1 -1.99 1.51 0 0 Z " fill="#F54552" transform="translate(162,39)"/>
<path d="M0 0 C3.88 1.75 3.88 1.75 5 4 C5.08 5.37 5.1 6.74 5.08 8.11 C5.08 8.97 5.07 9.83 5.06 10.72 C5.05 11.67 5.04 12.62 5.02 13.59 C5.01 14.59 5 15.58 4.99 16.61 C4.96 19.91 4.92 23.21 4.88 26.51 C4.85 28.79 4.83 31.08 4.81 33.36 C4.74 39.38 4.68 45.4 4.61 51.42 C4.53 57.56 4.47 63.7 4.4 69.84 C4.28 81.89 4.14 93.95 4 106 C5.59 104.74 7.18 103.48 8.77 102.21 C9.65 101.51 10.53 100.8 11.45 100.08 C14.81 97.34 17.98 94.43 21.12 91.44 C22.33 90.31 23.54 89.17 24.74 88.04 C25.31 87.51 25.87 86.98 26.45 86.44 C28.94 84.12 31.5 81.89 34.08 79.67 C36.41 77.64 38.71 75.57 41 73.5 C44.61 70.24 48.25 67.02 51.92 63.84 C53.49 62.45 55.04 61.03 56.58 59.6 C57.9 58.38 57.9 58.38 59.25 57.12 C60.06 56.36 60.87 55.6 61.7 54.82 C63.92 53.06 65.24 52.39 68 52 C68 55 68 55 66.84 56.42 C66.31 56.91 65.77 57.39 65.22 57.89 C64.63 58.43 64.04 58.97 63.43 59.53 C62.79 60.1 62.16 60.67 61.5 61.25 C60.86 61.84 60.21 62.42 59.55 63.02 C55.71 66.51 51.84 69.95 47.91 73.34 C45.64 75.32 43.42 77.35 41.19 79.38 C37.81 82.43 34.37 85.34 30.81 88.19 C26.12 91.98 21.7 96 17.31 100.12 C16.35 101.03 16.35 101.03 15.36 101.95 C12.7 104.46 10.03 106.97 7.37 109.49 C6.67 110.13 5.97 110.77 5.25 111.44 C4.68 111.97 4.11 112.51 3.52 113.06 C3.02 113.37 2.52 113.68 2 114 C1.01 113.67 0.02 113.34 -1 113 C-1.02 98.56 -1.04 84.12 -1.05 69.69 C-1.06 62.98 -1.06 56.28 -1.08 49.58 C-1.09 43.11 -1.09 36.65 -1.09 30.18 C-1.1 27.71 -1.1 25.24 -1.11 22.77 C-1.11 19.32 -1.11 15.87 -1.11 12.42 C-1.12 11.39 -1.12 10.36 -1.12 9.29 C-1.12 8.36 -1.12 7.42 -1.12 6.45 C-1.12 5.64 -1.12 4.82 -1.12 3.98 C-1 2 -1 2 0 0 Z " fill="#FACD59" transform="translate(5,122)"/>
<path d="M0 0 C0.66 0.33 1.32 0.66 2 1 C0.68 2.65 -0.64 4.3 -2 6 C4.9 12.24 4.9 12.24 11.88 18.38 C14.72 20.85 17.51 23.39 20.28 25.95 C24.68 30.03 29.13 33.98 33.81 37.75 C37.55 40.76 40.99 43.87 44.32 47.31 C47.9 50.91 51.74 54.35 55.84 57.34 C58.8 59.52 59.92 60.47 60.5 64.19 C60 67 60 67 58 69 C53.63 65.21 49.3 61.38 45 57.5 C41.38 54.23 37.73 51 34.05 47.8 C31.74 45.77 29.46 43.7 27.19 41.62 C23.81 38.57 20.37 35.66 16.81 32.81 C11.4 28.44 6.34 23.75 1.3 18.96 C-2.36 15.49 -6.09 12.19 -10 9 C-6.83 5.74 -3.6 2.78 0 0 Z " fill="#FACD59" transform="translate(154,167)"/>
<path d="M0 0 C26.4 0 52.8 0 80 0 C80 5.28 80 10.56 80 16 C53.6 16 27.2 16 0 16 C0 10.72 0 5.44 0 0 Z M6 1 C6 3.97 6 6.94 6 10 C30.09 10 54.18 10 79 10 C79 7.03 79 4.06 79 1 C54.91 1 30.82 1 6 1 Z " fill="#C1BFCE" transform="translate(60,70)"/>
<path d="M0 0 C0.62 0.07 1.24 0.14 1.88 0.21 C9.95 1.05 17.95 1.15 26.06 1.12 C27.36 1.13 28.66 1.13 29.99 1.14 C37.06 1.13 43.99 0.9 51 0 C49.7 5.94 46.62 9.29 42 13 C34.55 17.61 27.44 19.02 18.77 17.64 C11.87 15.82 6.55 11.39 2 6 C0.71 2.71 0.71 2.71 0 0 Z " fill="#F34552" transform="translate(164,159)"/>
<path d="M0 0 C0 13.86 0 27.72 0 42 C-5.03 39.13 -8.68 36.8 -12.94 33.12 C-17.05 29.6 -21.23 26.26 -25.67 23.16 C-26.11 22.77 -26.55 22.39 -27 22 C-27 21.34 -27 20.68 -27 20 C-25.58 18.69 -25.58 18.69 -23.6 17.21 C-22.88 16.66 -22.15 16.12 -21.41 15.56 C-20.64 14.98 -19.86 14.41 -19.06 13.81 C-17.5 12.64 -15.94 11.46 -14.38 10.29 C-13.62 9.72 -12.87 9.16 -12.09 8.58 C-8.84 6.13 -5.65 3.6 -2.47 1.07 C-1 0 -1 0 0 0 Z " fill="#FCE159" transform="translate(36,98)"/>
<path d="M0 0 C1.05 -0.01 2.11 -0.01 3.2 -0.02 C4.91 -0.01 4.91 -0.01 6.66 -0.01 C8.41 -0.01 8.41 -0.01 10.2 -0.01 C12.67 -0.01 15.15 -0.01 17.62 -0 C21.42 0.01 25.22 -0 29.02 -0.01 C31.42 -0.01 33.82 -0.01 36.22 -0.01 C37.36 -0.01 38.51 -0.01 39.68 -0.02 C41.27 -0.01 41.27 -0.01 42.88 0 C43.81 0 44.74 0 45.7 0 C47.94 0.26 47.94 0.26 49.94 2.26 C49.88 4.7 49.88 4.7 48.94 7.26 C44.22 11.45 38.49 10.66 32.55 10.59 C31.45 10.59 30.35 10.58 29.21 10.58 C26.89 10.57 24.57 10.56 22.25 10.54 C18.69 10.51 15.12 10.5 11.56 10.49 C9.3 10.48 7.05 10.47 4.8 10.46 C3.19 10.46 3.19 10.46 1.55 10.45 C0.07 10.43 0.07 10.43 -1.44 10.42 C-2.31 10.41 -3.18 10.41 -4.08 10.4 C-6.06 10.26 -6.06 10.26 -7.06 9.26 C-7.25 5.82 -7.25 5.82 -7.06 2.26 C-4.5 -0.3 -3.55 0.01 0 0 Z " fill="#CECCDD" transform="translate(64.060546875,109.7412109375)"/>
<path d="M0 0 C0.8 -0 1.6 -0 2.42 -0 C5.07 0 7.72 0.02 10.36 0.05 C12.2 0.05 14.03 0.06 15.87 0.06 C20.69 0.07 25.52 0.1 30.35 0.13 C35.28 0.17 40.2 0.18 45.13 0.19 C54.8 0.23 64.46 0.28 74.13 0.34 C73.8 2.32 73.47 4.3 73.13 6.34 C72.1 6.35 71.06 6.36 69.99 6.37 C60.25 6.47 50.51 6.57 40.77 6.68 C35.76 6.74 30.75 6.79 25.74 6.84 C20.91 6.89 16.08 6.94 11.25 6.99 C9.41 7.01 7.56 7.03 5.71 7.05 C3.14 7.07 0.56 7.1 -2.02 7.14 C-3.18 7.14 -3.18 7.14 -4.35 7.15 C-8.24 7.14 -8.24 7.14 -11.87 8.34 C-11.53 5.83 -11.19 3.84 -9.82 1.69 C-6.77 -0.42 -3.57 -0.05 0 0 Z " fill="#DFDCED" transform="translate(67.867919921875,59.659423828125)"/>
<path d="M0 0 C-4.25 6.15 -8.72 9.22 -16 11 C-23.93 12.18 -29.55 10.71 -36 6 C-38.56 3.75 -38.56 3.75 -40 2 C-40 1.67 -40 1.34 -40 1 C-35.59 0.86 -31.18 0.71 -26.77 0.57 C-25.27 0.52 -23.77 0.48 -22.28 0.43 C-20.11 0.36 -17.95 0.29 -15.78 0.22 C-14.48 0.18 -13.18 0.13 -11.85 0.09 C-7.89 -0 -3.95 -0.02 0 0 Z " fill="#FD636E" transform="translate(213,160)"/>
<path d="M0 0 C1.48 0.01 1.48 0.01 3 0.01 C4.07 0.01 5.14 0.02 6.24 0.02 C7.37 0.03 8.49 0.04 9.65 0.06 C11.34 0.06 11.34 0.06 13.06 0.06 C21.45 0.1 21.45 0.1 22.59 1.24 C22.77 4.18 22.77 4.18 22.59 7.24 C19.91 9.91 17.92 10.18 14.2 10.36 C12.92 10.35 12.92 10.35 11.6 10.34 C10.67 10.34 9.73 10.33 8.77 10.33 C7.8 10.32 6.83 10.31 5.84 10.31 C4.36 10.3 4.36 10.3 2.86 10.29 C0.43 10.28 -1.99 10.26 -4.41 10.24 C-4.61 4.19 -4.61 4.19 -4.41 2.24 C-2.41 0.24 -2.41 0.24 0 0 Z " fill="#D5D2E4" transform="translate(61.414306640625,96.757080078125)"/>
<path d="M0 0 C3.85 3.85 7 7.45 7 13 C-0.59 13 -8.18 13 -16 13 C-14.88 7.38 -13.07 4.21 -9.19 0.06 C-5.74 -1.61 -3.63 -1.08 0 0 Z " fill="#F34452" transform="translate(194,15)"/>
<path d="M0 0 C0.66 0.33 1.32 0.66 2 1 C0.35 2.98 -1.3 4.96 -3 7 C-2.11 7.42 -2.11 7.42 -1.21 7.84 C0.86 8.93 2.55 10.08 4.38 11.53 C5.3 12.25 5.3 12.25 6.23 12.99 C6.86 13.49 7.48 13.99 8.12 14.5 C8.76 15 9.39 15.5 10.04 16.01 C12.47 17.94 14.81 19.81 17 22 C17.27 24.69 17.09 27.29 17 30 C11.56 27.28 7.1 23.72 2.5 19.79 C-1.1 16.72 -4.79 13.87 -8.67 11.16 C-9.11 10.77 -9.55 10.39 -10 10 C-10 9.34 -10 8.68 -10 8 C-8.39 6.56 -6.71 5.2 -5 3.88 C-4.07 3.15 -3.14 2.43 -2.19 1.68 C-1.47 1.13 -0.74 0.57 0 0 Z " fill="#F8CB58" transform="translate(19,110)"/>
<path d="M0 0 C17.16 0 34.32 0 52 0 C51.67 1.32 51.34 2.64 51 4 C34.5 4 18 4 1 4 C0.67 2.68 0.34 1.36 0 0 Z " fill="#1D1D1E" transform="translate(57,116)"/>
<path d="M0 0 C2.64 1.09 4.6 2.58 6.83 4.36 C7.63 4.98 8.43 5.61 9.25 6.26 C9.85 6.79 10.46 7.31 11.08 7.86 C11.08 8.19 11.08 8.52 11.08 8.86 C3.16 8.86 -4.76 8.86 -12.92 8.86 C-8.2 4.13 -8.2 4.13 -5.42 2.04 C-4.85 1.6 -4.29 1.16 -3.7 0.71 C-1.92 -0.14 -1.92 -0.14 0 0 Z " fill="#EDC454" transform="translate(109.921875,41.14453125)"/>
<path d="M0 0 C7.26 0 14.52 0 22 0 C21.67 1.32 21.34 2.64 21 4 C14.07 4 7.14 4 0 4 C0 2.68 0 1.36 0 0 Z " fill="#151515" transform="translate(57,103)"/>
<path d="M0 0 C6.33 0.49 6.33 0.49 9.44 2.88 C11 5 11 5 11 8 C6.38 8 1.76 8 -3 8 C-2.01 5.36 -1.02 2.72 0 0 Z " fill="#F35D68" transform="translate(187,14)"/>
<path d="M0 0 C0.33 0.66 0.66 1.32 1 2 C-2.16 9.63 -6.86 14.1 -14 18 C-14.33 17.01 -14.66 16.02 -15 15 C-12.81 12.64 -10.82 10.89 -8.06 9.19 C-4.32 6.51 -2.5 3.83 0 0 Z " fill="#D2CFE0" transform="translate(138,122)"/>
<path d="M0 0 C0.66 0 1.32 0 2 0 C0.52 3.45 -1.44 5.65 -4.12 8.25 C-4.85 8.96 -5.57 9.66 -6.32 10.39 C-6.87 10.92 -7.43 11.45 -8 12 C-8.33 11.01 -8.66 10.02 -9 9 C-8.52 8.6 -8.04 8.2 -7.54 7.79 C-6.91 7.26 -6.28 6.73 -5.62 6.19 C-5 5.67 -4.37 5.14 -3.73 4.61 C-1.78 2.92 -1.78 2.92 0 0 Z " fill="#F95662" transform="translate(165,37)"/>
</svg>
