<?xml version="1.0" encoding="UTF-8"?>
<!-- Generator: visioncortex VTracer 0.6.4 -->
<svg version="1.1" xmlns="http://www.w3.org/2000/svg" width="256" height="256">
<path d="M0 0 C33.66 0 67.32 0 102 0 C102.02 11.03 102.04 22.07 102.06 33.44 C102.07 36.93 102.08 40.42 102.09 44.01 C102.09 46.76 102.1 49.5 102.1 52.25 C102.1 52.96 102.1 53.68 102.11 54.42 C102.11 56.53 102.11 58.63 102.11 60.74 C102.12 61.92 102.12 63.11 102.12 64.34 C102 67 102 67 101 68 C98.04 68.09 95.11 68.12 92.15 68.1 C90.82 68.1 90.82 68.1 89.47 68.09 C86.62 68.09 83.78 68.08 80.94 68.06 C79.01 68.06 77.09 68.05 75.17 68.05 C70.45 68.04 65.72 68.02 61 68 C61.5 71.96 61.5 71.96 62 76 C65.63 77.32 69.26 78.64 73 80 C73 81.65 73 83.3 73 85 C72.67 85.33 72.34 85.66 72 86 C68.22 85.63 64.52 85.09 60.78 84.41 C52.58 83.02 46.09 83.3 38 85 C35 85.4 32.01 85.7 29 86 C28.38 84.19 28.38 84.19 28 82 C30.33 78.5 31.21 78.37 35.12 77.31 C36.04 77.06 36.95 76.81 37.88 76.55 C38.58 76.37 39.28 76.19 40 76 C40.33 73.36 40.66 70.72 41 68 C39.8 68.01 38.6 68.02 37.36 68.03 C32.91 68.07 28.47 68.09 24.02 68.11 C22.09 68.12 20.17 68.13 18.24 68.15 C15.48 68.18 12.71 68.19 9.95 68.2 C9.08 68.21 8.22 68.22 7.33 68.23 C5.22 68.23 3.11 68.12 1 68 C-1 66 -1 66 -1.25 63.34 C-1.25 61.65 -1.25 61.65 -1.24 59.93 C-1.25 58.65 -1.25 57.38 -1.25 56.07 C-1.25 54.67 -1.24 53.27 -1.23 51.88 C-1.23 50.45 -1.23 49.02 -1.23 47.59 C-1.23 44.6 -1.22 41.61 -1.21 38.62 C-1.19 34.77 -1.18 30.93 -1.19 27.09 C-1.19 24.15 -1.18 21.2 -1.17 18.25 C-1.17 16.84 -1.17 15.42 -1.17 14 C-1.16 12.03 -1.16 10.05 -1.15 8.07 C-1.14 6.94 -1.14 5.82 -1.13 4.66 C-1 2 -1 2 0 0 Z " fill="#A5D5F7" transform="translate(151,3)"/>
<path d="M0 0 C0.94 0 1.88 0.01 2.85 0.01 C4.33 0.01 4.33 0.01 5.84 0.01 C9.11 0.01 12.38 0.02 15.66 0.03 C17.92 0.03 20.18 0.03 22.45 0.03 C28.42 0.03 34.39 0.04 40.35 0.06 C46.44 0.07 52.53 0.07 58.61 0.08 C70.56 0.09 82.51 0.1 94.47 0.12 C95.85 2.88 95.59 5.11 95.6 8.19 C95.6 9.47 95.6 10.74 95.6 12.06 C95.6 13.45 95.6 14.85 95.6 16.25 C95.6 17.68 95.6 19.1 95.6 20.53 C95.6 23.52 95.6 26.52 95.6 29.51 C95.59 33.35 95.59 37.19 95.6 41.03 C95.6 43.98 95.6 46.93 95.6 49.87 C95.6 51.29 95.6 52.71 95.6 54.12 C95.6 56.1 95.6 58.08 95.6 60.05 C95.59 61.18 95.59 62.31 95.59 63.47 C95.47 66.12 95.47 66.12 94.47 68.12 C80.94 68.12 67.41 68.12 53.47 68.12 C53.47 71.09 53.47 74.06 53.47 77.12 C55.32 77.31 55.32 77.31 57.22 77.5 C62.99 78.25 62.99 78.25 65.47 80.12 C66.28 82.12 66.28 82.12 66.47 84.12 C66.14 84.78 65.81 85.44 65.47 86.12 C61.94 86.27 59.09 86.35 55.75 85.13 C51.73 83.9 48.2 83.83 44.03 83.87 C43.3 83.87 42.58 83.86 41.83 83.85 C37.04 83.87 33.07 84.7 28.47 86.12 C26.13 86.2 23.8 86.22 21.47 86.12 C21.47 84.14 21.47 82.16 21.47 80.12 C25.43 78.8 29.39 77.48 33.47 76.12 C33.8 73.48 34.13 70.84 34.47 68.12 C20.61 68.12 6.75 68.12 -7.53 68.12 C-7.57 51.44 -7.57 51.44 -7.58 44.36 C-7.59 39.51 -7.6 34.67 -7.61 29.83 C-7.62 25.92 -7.63 22.02 -7.63 18.12 C-7.63 16.62 -7.63 15.13 -7.64 13.64 C-7.65 11.55 -7.65 9.47 -7.65 7.39 C-7.65 6.2 -7.65 5.01 -7.65 3.79 C-7.42 -1.35 -4.44 0.01 0 0 Z " fill="#A3D2F3" transform="translate(10.534011840820313,166.87557983398438)"/>
<path d="M0 0 C5.02 0.31 7.38 1.7 10.88 5.25 C11.66 6.02 12.44 6.79 13.24 7.58 C15 10 15 10 15.58 12.43 C14.74 16.17 12.48 18.29 9.81 20.88 C9.33 21.39 8.85 21.9 8.35 22.42 C6.89 23.87 6.89 23.87 4 26 C1.14 25.82 1.14 25.82 -1 25 C-1.19 22.69 -1.19 22.69 -1 20 C0.51 18.33 0.51 18.33 2 17 C-8.13 16.95 -18.26 16.92 -28.38 16.9 C-33.09 16.89 -37.79 16.87 -42.49 16.85 C-47.04 16.83 -51.58 16.82 -56.13 16.81 C-57.86 16.81 -59.58 16.8 -61.31 16.79 C-77.32 16.69 -89.74 17.55 -101.95 28.76 C-105.04 32.14 -107.09 35.86 -109 40 C-108.51 40.5 -108.01 40.99 -107.5 41.5 C-104.44 44.75 -102.26 47.2 -100.88 51.5 C-101.08 57.26 -102.58 61.86 -106.69 66 C-107.83 66.99 -107.83 66.99 -109 68 C-103.43 78.48 -97.52 84.49 -86.45 88.95 C-80.36 90.8 -74.28 90.74 -67.97 90.7 C-66.56 90.71 -65.15 90.71 -63.74 90.72 C-60.82 90.73 -57.9 90.73 -54.97 90.71 C-51.23 90.68 -47.48 90.71 -43.74 90.75 C-40.84 90.78 -37.95 90.77 -35.05 90.76 C-33.67 90.76 -32.29 90.77 -30.91 90.79 C-23.71 91.22 -23.71 91.22 -17.32 88.68 C-16.06 86.91 -16.06 86.91 -15 84 C-11.88 80.96 -9.5 80.52 -5.19 80.44 C0.16 80.56 2.97 81.61 6.79 85.3 C8.14 87.19 8.5 88.75 9 91 C9.69 91 10.37 90.99 11.08 90.99 C17.61 90.95 24.14 90.92 30.67 90.9 C34.03 90.89 37.39 90.87 40.74 90.85 C44.61 90.82 48.49 90.81 52.36 90.8 C53.54 90.79 54.73 90.78 55.95 90.77 C69.85 90.77 81.6 92.71 93 101 C93.8 101.54 94.61 102.07 95.44 102.62 C101.19 107.95 105.49 114.27 107 122 C107.89 122.08 108.77 122.17 109.69 122.25 C113.49 123.11 115.22 124.3 118 127 C120.89 131.7 120.85 136.66 120 142 C118.51 145.04 116.79 147.08 114 149 C110.13 149.94 110.13 149.94 107 150 C106.88 150.53 106.75 151.07 106.62 151.62 C103.84 161.68 97.29 168.89 88.65 174.53 C79.52 179.59 70.43 181.17 60.06 181.09 C58.49 181.09 56.92 181.09 55.34 181.09 C54.52 181.08 53.69 181.08 52.84 181.08 C48.44 181.07 44.04 181.09 39.64 181.1 C34.06 181.12 28.48 181.13 22.9 181.1 C18.37 181.08 13.84 181.09 9.31 181.12 C7.59 181.13 5.88 181.12 4.16 181.11 C-5.07 180.7 -5.07 180.7 -13.53 183.58 C-15.41 185.41 -15.41 185.41 -16.76 187.4 C-18 189 -18 189 -21.38 190 C-22.24 190 -23.11 190 -24 190 C-25 189 -25 189 -25.44 186.81 C-24.79 182.62 -22.11 180.7 -19 178 C-20.1 175.44 -21.04 173.97 -23.12 172.06 C-25 170 -25 170 -25.25 167.25 C-25.17 166.51 -25.08 165.76 -25 165 C-22.73 164.23 -22.73 164.23 -20 164 C-18.16 165.84 -18.16 165.84 -16.29 168.38 C-12.18 172.73 -8.83 173.88 -2.98 174.05 C0.22 174.1 3.4 174.03 6.59 173.95 C8.3 173.94 10.01 173.93 11.73 173.93 C15.3 173.91 18.88 173.86 22.45 173.79 C27.02 173.7 31.57 173.66 36.14 173.63 C40.52 173.61 44.9 173.56 49.28 173.51 C50.1 173.5 50.92 173.5 51.77 173.49 C65.95 173.32 79.85 172.97 90.81 162.75 C94.34 158.96 96.72 154.63 99 150 C98.58 149.6 98.16 149.2 97.72 148.79 C97.17 148.26 96.63 147.73 96.06 147.19 C95.52 146.67 94.97 146.14 94.41 145.61 C91.35 142.12 91.67 137.9 91.71 133.51 C92.29 128.46 95.54 125.4 99 122 C93.86 112.32 87.55 104.8 77 101 C68.57 99.07 60.2 98.67 51.58 98.59 C50.35 98.57 49.13 98.55 47.86 98.53 C43.99 98.47 40.12 98.42 36.25 98.38 C33.61 98.34 30.96 98.3 28.32 98.26 C21.88 98.16 15.44 98.08 9 98 C8.72 98.93 8.44 99.86 8.15 100.82 C6.99 104.04 5.79 105.99 3.04 108.08 C-1.45 110.11 -6.24 109.81 -11 109 C-13.94 107.67 -14.86 106.59 -17 104 C-17.72 102.02 -18.39 100.02 -19 98 C-19.79 98.01 -20.58 98.02 -21.39 98.03 C-28.86 98.11 -36.33 98.17 -43.8 98.21 C-47.64 98.23 -51.48 98.26 -55.32 98.3 C-59.04 98.35 -62.75 98.37 -66.47 98.38 C-67.88 98.39 -69.29 98.4 -70.69 98.42 C-85.52 98.64 -95.92 95.52 -106.75 85.44 C-117 74.33 -117 74.33 -117 68 C-117.89 67.92 -118.77 67.83 -119.69 67.75 C-123.49 66.89 -125.22 65.7 -128 63 C-130.89 58.3 -130.85 53.34 -130 48 C-128.51 44.96 -126.79 42.92 -124 41 C-120.12 40.06 -120.12 40.06 -117 40 C-116.84 39.07 -116.67 38.14 -116.5 37.19 C-113.47 26.85 -105.05 19.22 -96 14 C-87.49 10.06 -79.29 8.87 -69.95 8.79 C-68.8 8.78 -68.8 8.78 -67.62 8.76 C-65.09 8.73 -62.56 8.71 -60.04 8.68 C-58.27 8.66 -56.51 8.64 -54.75 8.62 C-50.13 8.57 -45.52 8.52 -40.9 8.47 C-36.18 8.42 -31.46 8.36 -26.74 8.31 C-17.49 8.2 -8.25 8.1 1 8 C0.01 7.01 0.01 7.01 -1 6 C-1.19 3.44 -1.19 3.44 -1 1 C-0.67 0.67 -0.34 0.34 0 0 Z " fill="#000000" transform="translate(133,24)"/>
<path d="M0 0 C33.66 0 67.32 0 102 0 C102.02 11.03 102.04 22.07 102.06 33.44 C102.07 36.93 102.08 40.42 102.09 44.01 C102.09 46.76 102.1 49.5 102.1 52.25 C102.1 52.96 102.1 53.68 102.11 54.42 C102.11 56.53 102.11 58.63 102.11 60.74 C102.12 61.92 102.12 63.11 102.12 64.34 C102 67 102 67 101 68 C98.04 68.09 95.11 68.12 92.15 68.1 C90.82 68.1 90.82 68.1 89.47 68.09 C86.62 68.09 83.78 68.08 80.94 68.06 C79.01 68.06 77.09 68.05 75.17 68.05 C70.45 68.04 65.72 68.02 61 68 C61.5 71.96 61.5 71.96 62 76 C65.63 77.32 69.26 78.64 73 80 C73 81.65 73 83.3 73 85 C72.67 85.33 72.34 85.66 72 86 C68.22 85.63 64.52 85.09 60.78 84.41 C52.58 83.02 46.09 83.3 38 85 C35 85.4 32.01 85.7 29 86 C28.38 84.19 28.38 84.19 28 82 C30.33 78.5 31.21 78.37 35.12 77.31 C36.04 77.06 36.95 76.81 37.88 76.55 C38.58 76.37 39.28 76.19 40 76 C40.33 73.36 40.66 70.72 41 68 C39.8 68.01 38.6 68.02 37.36 68.03 C32.91 68.07 28.47 68.09 24.02 68.11 C22.09 68.12 20.17 68.13 18.24 68.15 C15.48 68.18 12.71 68.19 9.95 68.2 C9.08 68.21 8.22 68.22 7.33 68.23 C5.22 68.23 3.11 68.12 1 68 C-1 66 -1 66 -1.25 63.34 C-1.25 61.65 -1.25 61.65 -1.24 59.93 C-1.25 58.65 -1.25 57.38 -1.25 56.07 C-1.25 54.67 -1.24 53.27 -1.23 51.88 C-1.23 50.45 -1.23 49.02 -1.23 47.59 C-1.23 44.6 -1.22 41.61 -1.21 38.62 C-1.19 34.77 -1.18 30.93 -1.19 27.09 C-1.19 24.15 -1.18 21.2 -1.17 18.25 C-1.17 16.84 -1.17 15.42 -1.17 14 C-1.16 12.03 -1.16 10.05 -1.15 8.07 C-1.14 6.94 -1.14 5.82 -1.13 4.66 C-1 2 -1 2 0 0 Z M6 6 C6 20.19 6 34.38 6 49 C35.7 49 65.4 49 96 49 C96 34.81 96 20.62 96 6 C66.3 6 36.6 6 6 6 Z " fill="#020303" transform="translate(151,3)"/>
<path d="M0 0 C0.94 0 1.88 0.01 2.85 0.01 C4.33 0.01 4.33 0.01 5.84 0.01 C9.11 0.01 12.38 0.02 15.66 0.03 C17.92 0.03 20.18 0.03 22.45 0.03 C28.42 0.03 34.39 0.04 40.35 0.06 C46.44 0.07 52.53 0.07 58.61 0.08 C70.56 0.09 82.51 0.1 94.47 0.12 C95.85 2.88 95.59 5.11 95.6 8.19 C95.6 9.47 95.6 10.74 95.6 12.06 C95.6 13.45 95.6 14.85 95.6 16.25 C95.6 17.68 95.6 19.1 95.6 20.53 C95.6 23.52 95.6 26.52 95.6 29.51 C95.59 33.35 95.59 37.19 95.6 41.03 C95.6 43.98 95.6 46.93 95.6 49.87 C95.6 51.29 95.6 52.71 95.6 54.12 C95.6 56.1 95.6 58.08 95.6 60.05 C95.59 61.18 95.59 62.31 95.59 63.47 C95.47 66.12 95.47 66.12 94.47 68.12 C80.94 68.12 67.41 68.12 53.47 68.12 C53.47 71.09 53.47 74.06 53.47 77.12 C55.32 77.31 55.32 77.31 57.22 77.5 C62.99 78.25 62.99 78.25 65.47 80.12 C66.28 82.12 66.28 82.12 66.47 84.12 C66.14 84.78 65.81 85.44 65.47 86.12 C61.94 86.27 59.09 86.35 55.75 85.13 C51.73 83.9 48.2 83.83 44.03 83.87 C43.3 83.87 42.58 83.86 41.83 83.85 C37.04 83.87 33.07 84.7 28.47 86.12 C26.13 86.2 23.8 86.22 21.47 86.12 C21.47 84.14 21.47 82.16 21.47 80.12 C25.43 78.8 29.39 77.48 33.47 76.12 C33.8 73.48 34.13 70.84 34.47 68.12 C20.61 68.12 6.75 68.12 -7.53 68.12 C-7.57 51.44 -7.57 51.44 -7.58 44.36 C-7.59 39.51 -7.6 34.67 -7.61 29.83 C-7.62 25.92 -7.63 22.02 -7.63 18.12 C-7.63 16.62 -7.63 15.13 -7.64 13.64 C-7.65 11.55 -7.65 9.47 -7.65 7.39 C-7.65 6.2 -7.65 5.01 -7.65 3.79 C-7.42 -1.35 -4.44 0.01 0 0 Z M-1.53 6.12 C-1.53 20.64 -1.53 35.16 -1.53 50.12 C28.17 50.12 57.87 50.12 88.47 50.12 C88.47 35.6 88.47 21.08 88.47 6.12 C58.77 6.12 29.07 6.12 -1.53 6.12 Z " fill="#010102" transform="translate(10.534011840820313,166.87557983398438)"/>
<path d="M0 0 C29.7 0 59.4 0 90 0 C90 2.31 90 4.62 90 7 C60.3 7 30.6 7 0 7 C0 4.69 0 2.38 0 0 Z " fill="#45607E" transform="translate(157,58)"/>
<path d="M0 0 C2.11 -0.38 2.11 -0.38 5 0 C7.38 1.74 9.32 3.84 11.31 6 C12.14 6.86 12.14 6.86 12.98 7.73 C14.33 9.15 15.67 10.57 17 12 C20.56 9.01 23.98 6.06 27.12 2.62 C30 0 30 0 32.88 -0.38 C33.93 -0.19 33.93 -0.19 35 0 C35.87 2.11 35.87 2.11 36 5 C34.35 7.44 32.23 9.33 30.06 11.31 C29.2 12.14 29.2 12.14 28.31 12.98 C26.89 14.33 25.45 15.67 24 17 C26 21.99 30.11 25.01 33.98 28.56 C36 31 36 31 35.8 33.31 C35 35 35 35 32.89 35.87 C30 36 30 36 28.46 34.96 C26.79 33.39 25.23 31.76 23.69 30.06 C22.86 29.2 22.86 29.2 22.02 28.31 C20.67 26.89 19.33 25.45 18 24 C14.42 27 11 29.96 7.88 33.44 C5 36 5 36 2.12 35.88 C1.07 35.44 1.07 35.44 0 35 C-0.66 33.19 -0.66 33.19 -1 31 C0.92 28.71 2.76 26.77 4.94 24.75 C5.51 24.2 6.09 23.64 6.69 23.07 C8.11 21.7 9.56 20.35 11 19 C9.01 14.03 4.91 11.05 1.02 7.54 C-1 5 -1 5 -0.8 2.18 C-0.54 1.46 -0.27 0.74 0 0 Z " fill="#000000" transform="translate(51,60)"/>
<path d="M0 0 C3.72 0.04 5.06 1.05 7.89 3.5 C8.88 4.51 9.85 5.53 10.81 6.56 C11.31 7.08 11.82 7.6 12.33 8.14 C13.57 9.42 14.78 10.71 16 12 C19.57 9.02 22.99 6.06 26.12 2.62 C29 0 29 0 31.88 -0.38 C32.93 -0.19 32.93 -0.19 34 0 C34.87 2.11 34.87 2.11 35 5 C33.35 7.44 31.23 9.33 29.06 11.31 C28.2 12.14 28.2 12.14 27.31 12.98 C25.89 14.33 24.45 15.67 23 17 C24.99 21.97 29.09 24.95 32.98 28.46 C35 31 35 31 34.8 33.82 C34.4 34.9 34.4 34.9 34 36 C31.89 36.38 31.89 36.38 29 36 C26.62 34.26 24.68 32.16 22.69 30 C22.14 29.43 21.59 28.86 21.02 28.27 C19.67 26.85 18.33 25.43 17 24 C13.42 27 10 29.96 6.88 33.44 C4 36 4 36 1.12 35.88 C0.07 35.44 0.07 35.44 -1 35 C-1.5 33.51 -1.5 33.51 -2 32 C-0.74 30.13 -0.74 30.13 1.12 28.12 C1.77 27.43 2.41 26.73 3.07 26.01 C5.35 23.63 7.64 21.29 10 19 C8.07 14.37 4.6 11.58 1 8.22 C-0.97 6.03 -1.85 4.92 -2 2 C-1.34 1.34 -0.68 0.68 0 0 Z " fill="#000000" transform="translate(171,142)"/>
<path d="M0 0 C29.7 0 59.4 0 90 0 C90 1.98 90 3.96 90 6 C60.3 6 30.6 6 0 6 C0 4.02 0 2.04 0 0 Z " fill="#4D6A8B" transform="translate(9,223)"/>
<path d="M0 0 C4.07 0.85 5.54 2.3 8 5.62 C8.62 8.62 8.62 8.62 8 11.62 C5.54 14.95 4.07 16.4 0 17.25 C-4.07 16.4 -5.54 14.95 -8 11.62 C-8.62 8.62 -8.62 8.62 -8 5.62 C-5.54 2.3 -4.07 0.85 0 0 Z " fill="#E1C468" transform="translate(128,110.375)"/>
<path d="M0 0 C4.07 0.85 5.54 2.3 8 5.62 C8.62 8.62 8.62 8.62 8 11.62 C5.54 14.95 4.07 16.4 0 17.25 C-4.07 16.4 -5.54 14.95 -8 11.62 C-8.62 8.62 -8.62 8.62 -8 5.62 C-5.54 2.3 -4.07 0.85 0 0 Z " fill="#E2C569" transform="translate(17,69.375)"/>
<path d="M0 0 C4.07 0.85 5.54 2.3 8 5.62 C8.62 8.62 8.62 8.62 8 11.62 C5.54 14.95 4.07 16.4 0 17.25 C-4.07 16.4 -5.54 14.95 -8 11.62 C-8.62 8.62 -8.62 8.62 -8 5.62 C-5.54 2.3 -4.07 0.85 0 0 Z " fill="#E3C569" transform="translate(239,151.375)"/>
<path d="M0 0 C1.98 0 3.96 0 6 0 C6 2.64 6 5.28 6 8 C4.02 8 2.04 8 0 8 C0 5.36 0 2.72 0 0 Z " fill="#445C7C" transform="translate(51,235)"/>
<path d="M0 0 C1.98 0 3.96 0 6 0 C6 2.64 6 5.28 6 8 C4.02 8 2.04 8 0 8 C0 5.36 0 2.72 0 0 Z " fill="#445D7C" transform="translate(199,71)"/>
</svg>
