<?xml version="1.0" encoding="UTF-8"?>
<!-- Generator: visioncortex VTracer 0.6.4 -->
<svg version="1.1" xmlns="http://www.w3.org/2000/svg" width="256" height="256">
<path d="M0 0 C6.09 3.35 10.83 8.35 15.75 13.19 C16.61 14 17.47 14.81 18.36 15.65 C22.83 20.05 25.92 23.57 27.18 29.79 C26.56 37.4 19.93 42.7 14.87 47.8 C13.38 49.31 11.92 50.84 10.46 52.38 C2.57 60.52 2.57 60.52 -2.84 61.42 C-11.64 61.26 -17.54 52.72 -23.25 46.94 C-24.62 45.57 -24.62 45.57 -26.01 44.18 C-32.72 37.42 -32.72 37.42 -35 34 C-44.42 36.46 -51.4 39.79 -57 48 C-61.19 55.58 -62.25 62.97 -60.49 71.45 C-58 79.87 -53.73 84.93 -46.48 89.74 C-40.69 92.69 -35.02 93.31 -28.66 93.41 C-27.89 93.43 -27.13 93.45 -26.34 93.47 C-23.91 93.53 -21.49 93.58 -19.06 93.62 C-17.41 93.66 -15.75 93.7 -14.1 93.74 C-10.07 93.84 -6.03 93.92 -2 94 C-2.19 93.21 -2.38 92.43 -2.57 91.62 C-3 89 -3 89 -1.88 87.12 C0 86 0 86 2.31 85.94 C5 87 5 87 7.3 90.01 C11.27 94.09 15.69 93.77 21.12 93.88 C22.98 93.88 22.98 93.88 24.88 93.88 C26.14 93.9 27.4 93.92 28.7 93.94 C31.8 93.98 34.9 94 38 94 C38.12 93.39 38.24 92.79 38.36 92.16 C38.53 91.36 38.7 90.56 38.87 89.73 C39.03 88.94 39.19 88.15 39.35 87.33 C41.15 80.82 45.49 77.26 51.13 73.95 C57.38 70.78 65.25 70.86 71.87 72.87 C78.53 75.96 82.98 80.14 86.38 86.62 C87 89 87 89 87 94 C91.29 93.67 95.58 93.34 100 93 C100 91.35 100 89.7 100 88 C100.66 87.34 101.32 86.68 102 86 C104.25 86 104.25 86 107 87 C107.77 88 108.55 89 109.35 90.02 C112.4 93.17 114.78 93.47 119.11 93.66 C121.47 93.68 123.83 93.67 126.19 93.62 C139.64 93.48 150.02 95.47 160 105 C167.92 113.5 171.1 123.48 171 135 C170.32 145.5 165.89 155.22 158.13 162.43 C152.11 166.86 144.42 171.19 136.81 171.06 C135.55 171.04 134.3 171.02 133 171 C132.64 171.84 132.64 171.84 132.28 172.7 C130.71 175.52 128.79 177.45 126.5 179.73 C125.17 181.06 125.17 181.06 123.81 182.41 C122.88 183.33 121.96 184.24 121 185.19 C120.07 186.11 119.14 187.04 118.19 188 C109.98 196.15 109.98 196.15 104.38 196.5 C103.56 196.57 102.74 196.64 101.9 196.72 C97.22 195.56 94.4 192.3 91 189 C90.3 188.33 89.6 187.65 88.88 186.96 C86.75 184.89 84.65 182.79 82.56 180.69 C81.48 179.62 81.48 179.62 80.38 178.52 C79.7 177.84 79.02 177.15 78.32 176.45 C77.7 175.83 77.09 175.22 76.46 174.58 C75 173 75 173 74 171 C67.73 170.67 61.46 170.34 55 170 C55.33 171.98 55.66 173.96 56 176 C54 178 54 178 51.68 178.38 C48.07 177.87 46.74 176.44 44.19 173.88 C43.4 173.11 42.61 172.34 41.79 171.55 C39.55 168.35 39.33 166.84 40 163 C41.79 160.45 41.79 160.45 44.19 158.12 C44.96 157.34 45.74 156.56 46.54 155.76 C49.35 153.75 50.62 153.44 54 154 C54.66 154.66 55.32 155.32 56 156 C55.62 159.12 55.62 159.12 55 162 C58.03 162.05 61.04 162.04 64.06 162 C64.91 162.02 65.76 162.04 66.63 162.06 C70.33 161.97 72.97 161.84 75.9 159.45 C77.71 157.37 79.35 155.2 81 153 C83.57 150.14 86.25 147.38 88.94 144.62 C89.6 143.91 90.27 143.2 90.95 142.47 C95.42 137.91 98.54 135.55 105 135 C112.07 136.54 116.52 141.95 121.45 146.98 C122.88 148.44 124.33 149.89 125.79 151.33 C133.49 159.1 133.49 159.1 134 163 C144.77 159.83 151.77 156.99 157.78 147.25 C161.62 140.19 162.26 132.12 160.35 124.35 C157.38 116.08 152.7 110.14 144.88 106.06 C138.13 102.88 131.47 102.67 124.12 102.5 C122.67 102.42 122.67 102.42 121.19 102.34 C115.66 102.19 115.66 102.19 110.85 104.59 C108.97 106.48 108.97 106.48 107.42 108.49 C106.95 108.99 106.48 109.49 106 110 C103.12 110 103.12 110 101 109 C100.67 108.67 100.34 108.34 100 108 C100 106.35 100 104.7 100 103 C93.56 102.5 93.56 102.5 87 102 C86.65 103.34 86.3 104.68 85.94 106.06 C83.73 112.65 79.7 116.29 73.94 119.94 C66.57 122.58 57.59 122.17 50.5 119 C45.86 116.3 42.37 112.84 40 108 C39.64 106 39.3 104 39 102 C34.48 101.96 29.96 102.01 25.44 102.06 C24.16 102.05 22.88 102.04 21.57 102.03 C13.33 102.07 13.33 102.07 6.78 106.53 C6.3 107.17 5.81 107.8 5.31 108.46 C4 110 4 110 1.06 110.44 C0.38 110.29 -0.3 110.15 -1 110 C-2.06 107.62 -2.06 107.62 -3 105 C-2.67 104.34 -2.34 103.68 -2 103 C-3.12 103 -4.24 102.99 -5.39 102.99 C-9.59 102.97 -13.8 102.91 -18 102.85 C-19.81 102.82 -21.62 102.81 -23.43 102.8 C-38.2 102.75 -49.73 101.26 -60.8 90.52 C-68.47 81.72 -71.38 72.13 -70.94 60.62 C-69.78 49.44 -65.32 40.55 -57 33 C-50.94 28.13 -43.59 25.27 -35.81 24.81 C-31.99 23.71 -30.66 21.64 -28.19 18.6 C-25.41 15.3 -22.42 12.25 -19.38 9.19 C-18.82 8.62 -18.27 8.06 -17.71 7.48 C-12.6 2.36 -7.7 -1.77 0 0 Z " fill="#020100" transform="translate(78,60)"/>
<path d="M0 0 C7.16 4.36 10.29 9.54 12.56 17.5 C23.45 17.17 34.34 16.84 45.56 16.5 C45.56 14.52 45.56 12.54 45.56 10.5 C46.56 9.5 46.56 9.5 49.19 9 C53.13 9.58 53.16 10.02 55.45 12.99 C58.74 16.42 61.01 17.03 65.73 17.23 C68.07 17.23 70.41 17.19 72.75 17.12 C84.5 16.86 94.95 18.33 103.94 26.62 C112.52 34.96 116.37 44.58 116.62 56.44 C116.2 66.75 112.75 76.29 105.48 83.76 C99.47 89.22 94.31 91.72 86.44 93.38 C80.54 94.66 77.03 95.93 73.47 100.94 C70.76 104.58 67.58 107.68 64.38 110.88 C63.77 111.49 63.16 112.11 62.53 112.75 C61.95 113.34 61.37 113.92 60.77 114.52 C60.25 115.05 59.73 115.57 59.19 116.11 C55.57 119.19 52.49 119.75 47.76 119.96 C40.56 118.45 35.23 111.43 30.31 106.44 C29.5 105.62 28.68 104.81 27.84 103.97 C21.84 97.92 21.84 97.92 19.56 94.5 C17.14 94.08 17.14 94.08 14.34 94.21 C13.3 94.22 12.27 94.23 11.21 94.24 C10.13 94.26 9.05 94.29 7.94 94.31 C6.85 94.33 5.76 94.34 4.64 94.35 C1.95 94.39 -0.74 94.44 -3.44 94.5 C-3.77 96.48 -4.1 98.46 -4.44 100.5 C-6.68 101.21 -6.68 101.21 -9.44 101.5 C-11.61 100.14 -11.61 100.14 -13.62 98.19 C-14.3 97.55 -14.97 96.92 -15.67 96.26 C-19.44 92.51 -19.44 92.51 -19.82 89.68 C-19.34 85.67 -18.12 84.41 -15.25 81.62 C-14.08 80.45 -14.08 80.45 -12.89 79.26 C-10.08 77.25 -8.82 76.94 -5.44 77.5 C-3.44 79.5 -3.44 79.5 -3.44 83.5 C4.48 83.83 12.4 84.16 20.56 84.5 C21.22 83.18 21.88 81.86 22.56 80.5 C25.29 77.29 28.23 74.29 31.19 71.28 C32.14 70.31 33.09 69.32 34.02 68.33 C42.76 59.04 42.76 59.04 48.37 58.11 C57.19 58.22 63.09 66.76 68.81 72.56 C70.18 73.93 70.18 73.93 71.57 75.32 C78.28 82.08 78.28 82.08 80.56 85.5 C89.69 83.37 97.38 79.64 102.56 71.5 C106.98 63.06 108.09 54.95 105.38 45.75 C102.23 37.62 97.36 32.47 89.56 28.5 C83.33 26.18 77.24 26.03 70.62 25.94 C69.58 25.89 68.53 25.84 67.46 25.79 C61.66 25.71 58.39 26.06 54.06 30.1 C53.47 30.75 52.88 31.41 52.28 32.09 C51.71 32.55 51.15 33.02 50.56 33.5 C48.39 33.27 47.12 33.06 45.56 31.5 C45.56 29.85 45.56 28.2 45.56 26.5 C34.67 26.17 23.78 25.84 12.56 25.5 C12.23 28.14 11.9 30.78 11.56 33.5 C8.62 39.63 3.55 43.53 -2.44 46.5 C-8.71 48.59 -16.73 48.73 -22.81 45.94 C-28.84 42.31 -33.87 37.56 -36 30.73 C-37.79 21.56 -36.4 14.08 -31.38 6.31 C-23.56 -2.13 -10.57 -4.58 0 0 Z " fill="#000001" transform="translate(132.4375,1.5)"/>
<path d="M0 0 C1.02 0.01 1.02 0.01 2.06 0.01 C4.21 0.03 6.36 0.07 8.51 0.11 C9.97 0.12 11.44 0.13 12.91 0.15 C16.48 0.18 20.06 0.23 23.63 0.29 C24.29 1.61 24.95 2.93 25.63 4.29 C27.94 4.29 30.25 4.29 32.63 4.29 C33.29 2.97 33.95 1.65 34.63 0.29 C40.08 0.22 45.52 0.16 50.97 0.13 C52.82 0.11 54.67 0.09 56.52 0.07 C59.18 0.03 61.85 0.01 64.52 0 C65.75 -0.02 65.75 -0.02 67.01 -0.05 C71.94 -0.05 75.44 0.42 79.63 3.29 C84.13 8.86 83.11 15.42 83.07 22.23 C83.09 23.49 83.11 24.76 83.13 26.06 C83.13 36.38 83.13 36.38 80.92 40.05 C76.43 44.46 71.75 44.59 65.71 44.57 C64.53 44.58 64.53 44.58 63.34 44.58 C60.76 44.6 58.18 44.6 55.6 44.59 C53.8 44.6 52.01 44.6 50.21 44.61 C46.45 44.61 42.69 44.61 38.92 44.61 C34.1 44.6 29.29 44.62 24.47 44.64 C20.76 44.66 17.05 44.66 13.34 44.66 C11.56 44.66 9.79 44.66 8.01 44.67 C5.52 44.68 3.04 44.68 0.56 44.67 C-0.17 44.67 -0.91 44.68 -1.66 44.69 C-7.04 44.63 -10.04 43.21 -14.12 39.86 C-17.78 35.27 -16.59 28 -16.62 22.48 C-16.64 21.41 -16.66 20.34 -16.68 19.24 C-16.71 13.2 -16.66 8.47 -13.37 3.29 C-8.8 0.43 -5.34 -0.07 0 0 Z " fill="#00CEF9" transform="translate(23.3671875,203.70703125)"/>
<path d="M0 0 C0.75 0.01 1.49 0.03 2.26 0.04 C4.09 0.08 5.92 0.13 7.75 0.19 C8.08 1.18 8.41 2.17 8.75 3.19 C11.09 2.93 13.43 2.59 15.75 2.19 C16.08 1.53 16.41 0.87 16.75 0.19 C27.7 -0.6 27.7 -0.6 31.94 2.56 C35.86 8.24 34.82 13.36 34.75 20.19 C39.7 20.19 44.65 20.19 49.75 20.19 C49.25 18.21 49.25 18.21 48.75 16.19 C50.69 13.94 50.69 13.94 52.75 12.19 C57.88 13.59 61.62 16.99 64.75 21.19 C65.66 23.66 65.66 23.66 65.75 26.19 C64.39 28.36 64.39 28.36 62.44 30.38 C61.8 31.05 61.17 31.72 60.51 32.42 C56.76 36.19 56.76 36.19 53.62 36.31 C52.68 36.27 51.73 36.23 50.75 36.19 C49.69 33.81 49.69 33.81 48.75 31.19 C49.08 30.53 49.41 29.87 49.75 29.19 C44.8 29.19 39.85 29.19 34.75 29.19 C34.9 32.22 34.9 32.22 35.06 35.31 C35.09 42.71 35.09 42.71 32.38 45.94 C28.22 49.5 25.14 49.37 19.86 49.43 C18.68 49.44 18.68 49.44 17.48 49.45 C15.82 49.46 14.15 49.47 12.49 49.48 C9.96 49.5 7.42 49.54 4.89 49.59 C3.27 49.6 1.66 49.61 0.04 49.61 C-0.71 49.63 -1.47 49.65 -2.25 49.67 C-5.82 49.65 -8.04 49.31 -11.14 47.47 C-16.57 41.59 -15.59 34.42 -15.57 26.9 C-15.56 24.76 -15.59 22.63 -15.61 20.49 C-15.61 19.12 -15.61 17.75 -15.61 16.38 C-15.62 15.14 -15.62 13.91 -15.62 12.64 C-15.13 8.07 -13.64 4.74 -10.58 1.32 C-7.12 -0.36 -3.75 -0.13 0 0 Z " fill="#030200" transform="translate(22.25,-0.1875)"/>
<path d="M0 0 C1.02 0.01 1.02 0.01 2.06 0.01 C4.21 0.03 6.36 0.07 8.51 0.11 C9.97 0.12 11.44 0.13 12.91 0.15 C16.48 0.18 20.06 0.23 23.63 0.29 C24.76 2.04 24.76 2.04 25.63 4.29 C24.76 6.54 24.76 6.54 23.63 8.29 C22.73 8.32 21.83 8.34 20.89 8.37 C17.55 8.46 14.21 8.56 10.87 8.67 C9.42 8.71 7.97 8.75 6.53 8.79 C4.45 8.85 2.37 8.91 0.29 8.98 C-0.96 9.01 -2.21 9.05 -3.5 9.09 C-6.26 8.97 -6.26 8.97 -7.37 10.29 C-7.47 12.06 -7.5 13.83 -7.5 15.61 C-7.5 16.68 -7.5 17.76 -7.5 18.86 C-7.5 20 -7.5 21.13 -7.49 22.29 C-7.5 23.42 -7.5 24.56 -7.5 25.72 C-7.5 27.34 -7.5 27.34 -7.5 28.98 C-7.5 29.97 -7.5 30.97 -7.5 31.99 C-7.63 34.26 -7.63 34.26 -6.37 35.29 C-3.91 35.39 -1.48 35.43 0.98 35.42 C1.75 35.42 2.52 35.43 3.31 35.43 C5.87 35.43 8.42 35.43 10.98 35.43 C12.74 35.43 14.51 35.43 16.28 35.43 C19.99 35.43 23.7 35.43 27.41 35.42 C32.17 35.42 36.94 35.42 41.7 35.43 C45.35 35.43 49 35.43 52.65 35.43 C54.41 35.43 56.17 35.43 57.93 35.43 C60.38 35.43 62.83 35.43 65.28 35.42 C66.38 35.43 66.38 35.43 67.51 35.43 C70.85 35.71 70.85 35.71 73.63 34.29 C73.73 32.52 73.76 30.75 73.77 28.98 C73.77 27.91 73.77 26.83 73.77 25.72 C73.77 24.59 73.76 23.46 73.76 22.29 C73.76 21.16 73.77 20.03 73.77 18.86 C73.77 17.79 73.77 16.71 73.77 15.61 C73.76 14.11 73.76 14.11 73.76 12.59 C73.89 10.33 73.89 10.33 72.63 9.29 C69.85 9.16 67.08 9.08 64.29 9.05 C62.57 9.01 60.85 8.98 59.13 8.95 C56.41 8.9 53.69 8.86 50.96 8.82 C48.34 8.78 45.73 8.72 43.11 8.67 C42.29 8.66 41.47 8.66 40.63 8.65 C34.86 8.52 34.86 8.52 32.63 6.29 C33.19 1.74 33.19 1.74 34.63 0.29 C37.45 0.17 40.24 0.1 43.05 0.09 C44.33 0.08 44.33 0.08 45.63 0.07 C47.43 0.06 49.24 0.06 51.04 0.05 C53.79 0.04 56.54 0.01 59.29 -0.02 C61.04 -0.03 62.8 -0.03 64.55 -0.04 C65.78 -0.05 65.78 -0.05 67.03 -0.07 C71.95 -0.05 75.45 0.43 79.63 3.29 C84.13 8.86 83.11 15.42 83.07 22.23 C83.09 23.49 83.11 24.76 83.13 26.06 C83.13 36.38 83.13 36.38 80.92 40.05 C76.43 44.46 71.75 44.59 65.71 44.57 C64.53 44.58 64.53 44.58 63.34 44.58 C60.76 44.6 58.18 44.6 55.6 44.59 C53.8 44.6 52.01 44.6 50.21 44.61 C46.45 44.61 42.69 44.61 38.92 44.61 C34.1 44.6 29.29 44.62 24.47 44.64 C20.76 44.66 17.05 44.66 13.34 44.66 C11.56 44.66 9.79 44.66 8.01 44.67 C5.52 44.68 3.04 44.68 0.56 44.67 C-0.17 44.67 -0.91 44.68 -1.66 44.69 C-7.04 44.63 -10.04 43.21 -14.12 39.86 C-17.78 35.27 -16.59 28 -16.62 22.48 C-16.64 21.41 -16.66 20.34 -16.68 19.24 C-16.71 13.2 -16.66 8.47 -13.37 3.29 C-8.8 0.43 -5.34 -0.07 0 0 Z " fill="#000000" transform="translate(23.3671875,203.70703125)"/>
<path d="M0 0 C2.64 0 5.28 0 8 0 C8.19 0.64 8.37 1.28 8.56 1.94 C9.93 4.42 9.93 4.42 13.56 4.69 C14.7 4.79 15.83 4.89 17 5 C18.91 6.91 18.13 10.31 18.13 12.84 C18.13 13.53 18.13 14.21 18.14 14.92 C18.14 16.37 18.13 17.82 18.13 19.27 C18.13 21.49 18.13 23.72 18.14 25.94 C18.14 27.35 18.13 28.75 18.13 30.16 C18.13 31.44 18.13 32.73 18.13 34.06 C18 37 18 37 17 38 C12.6 38.22 8.19 38.19 3.79 38.19 C1.58 38.19 -0.64 38.21 -2.85 38.22 C-4.26 38.23 -5.66 38.23 -7.06 38.23 C-8.34 38.23 -9.62 38.24 -10.94 38.24 C-14 38 -14 38 -16 36 C-16.24 33.03 -16.24 33.03 -16.23 29.28 C-16.23 28.62 -16.23 27.96 -16.23 27.28 C-16.23 25.88 -16.22 24.48 -16.21 23.09 C-16.19 20.94 -16.19 18.8 -16.19 16.65 C-16.15 6.15 -16.15 6.15 -15 5 C-13.02 4.79 -11.04 4.63 -9.06 4.5 C-4.88 4.32 -4.88 4.32 -1 3 C-0.67 2.01 -0.34 1.02 0 0 Z " fill="#FACD59" transform="translate(31,3)"/>
<path d="M0 0 C5.06 2.06 8.52 6.44 12.3 10.26 C13.18 11.12 14.07 11.98 14.98 12.87 C15.81 13.7 16.65 14.54 17.51 15.4 C18.27 16.17 19.03 16.93 19.82 17.72 C21.49 20.01 21.49 20.01 22 22.49 C20.89 27.94 15.62 31.62 11.8 35.39 C10.43 36.8 10.43 36.8 9.04 38.23 C8.15 39.12 7.26 40 6.35 40.91 C5.54 41.72 4.73 42.53 3.89 43.37 C1.49 45.01 1.49 45.01 -1.03 45.02 C-6.09 42.96 -9.55 38.59 -13.33 34.76 C-14.21 33.9 -15.09 33.04 -16 32.16 C-16.84 31.32 -17.67 30.48 -18.53 29.62 C-19.68 28.48 -19.68 28.48 -20.85 27.31 C-22.51 25.01 -22.51 25.01 -23.02 22.53 C-21.92 17.08 -16.65 13.4 -12.83 9.64 C-11.91 8.7 -11 7.76 -10.06 6.79 C-9.18 5.91 -8.29 5.02 -7.38 4.11 C-6.57 3.3 -5.75 2.49 -4.92 1.65 C-2.51 0.01 -2.51 0.01 0 0 Z " fill="#FC7F86" transform="translate(182.513671875,67.98876953125)"/>
<path d="M0 0 C5.06 2.06 8.52 6.44 12.3 10.26 C13.18 11.12 14.07 11.98 14.98 12.87 C15.81 13.7 16.65 14.54 17.51 15.4 C18.27 16.17 19.03 16.93 19.82 17.72 C21.49 20.01 21.49 20.01 22 22.49 C20.89 27.94 15.62 31.62 11.8 35.39 C10.43 36.8 10.43 36.8 9.04 38.23 C8.15 39.12 7.26 40 6.35 40.91 C5.54 41.72 4.73 42.53 3.89 43.37 C1.49 45.01 1.49 45.01 -1.03 45.02 C-6.09 42.96 -9.55 38.59 -13.33 34.76 C-14.21 33.9 -15.09 33.04 -16 32.16 C-16.84 31.32 -17.67 30.48 -18.53 29.62 C-19.68 28.48 -19.68 28.48 -20.85 27.31 C-22.51 25.01 -22.51 25.01 -23.02 22.53 C-21.92 17.08 -16.65 13.4 -12.83 9.64 C-11.91 8.7 -11 7.76 -10.06 6.79 C-9.18 5.91 -8.29 5.02 -7.38 4.11 C-6.57 3.3 -5.75 2.49 -4.92 1.65 C-2.51 0.01 -2.51 0.01 0 0 Z " fill="#94D779" transform="translate(74.513671875,67.98876953125)"/>
<path d="M0 0 C5.09 2.03 8.58 6.42 12.38 10.25 C13.27 11.11 14.16 11.97 15.08 12.85 C15.92 13.69 16.76 14.53 17.62 15.39 C18.78 16.53 18.78 16.53 19.95 17.7 C21.5 20 21.5 20 21.5 22.49 C19.47 27.59 15.08 31.07 11.25 34.87 C10.39 35.76 9.53 36.66 8.65 37.58 C7.39 38.83 7.39 38.83 6.11 40.11 C4.97 41.27 4.97 41.27 3.8 42.45 C1.5 44 1.5 44 -0.99 44 C-6.08 41.97 -9.57 37.58 -13.37 33.75 C-14.26 32.89 -15.15 32.03 -16.07 31.14 C-16.91 30.31 -17.75 29.47 -18.61 28.61 C-19.38 27.84 -20.15 27.08 -20.94 26.29 C-22.5 24 -22.5 24 -22.49 21.5 C-20.46 16.41 -16.07 12.92 -12.25 9.12 C-11.39 8.23 -10.53 7.34 -9.64 6.42 C-8.39 5.16 -8.39 5.16 -7.1 3.88 C-6.34 3.11 -5.58 2.34 -4.79 1.55 C-2.5 -0 -2.5 -0 0 0 Z " fill="#FC7F86" transform="translate(182.49560546875,204.00244140625)"/>
<path d="M0 0 C4.33 2.23 6.91 4.91 8.87 9.31 C9.61 14.76 9.82 20.28 7.31 25.31 C3.73 29.71 0.74 31.9 -4.82 32.69 C-10.75 32.94 -14.56 32.43 -19.13 28.31 C-23.66 23.16 -24.6 19.99 -24.54 13.21 C-23.72 7.44 -20.08 4.09 -15.94 0.31 C-10.81 -1.51 -5.21 -1.69 0 0 Z " fill="#FBCD59" transform="translate(148.12890625,140.69140625)"/>
<path d="M0 0 C4.28 2.24 6.76 5.03 8.86 9.32 C10.07 13.9 10.1 17.41 8.86 22 C5.92 26.87 2.31 30.5 -3.14 32.32 C-8.63 33.09 -12.94 32.98 -17.58 29.75 C-21.73 26.17 -23.69 22.58 -24.45 17.08 C-24.75 11.66 -23.77 8.54 -20.14 4.32 C-14.13 -0.98 -7.89 -2.52 0 0 Z " fill="#00CEF8" transform="translate(128.140625,8.68359375)"/>
<path d="M0 0 C5.23 -0.05 10.47 -0.09 15.7 -0.11 C17.48 -0.12 19.26 -0.13 21.04 -0.15 C23.6 -0.18 26.15 -0.19 28.71 -0.2 C29.91 -0.21 29.91 -0.21 31.13 -0.23 C33.09 -0.23 35.05 -0.12 37 0 C39.61 2.61 39.26 3.75 39.27 7.38 C39.27 8.98 39.27 8.98 39.27 10.61 C39.27 11.73 39.26 12.85 39.25 14 C39.26 15.68 39.26 15.68 39.27 17.39 C39.27 18.46 39.27 19.53 39.27 20.62 C39.26 21.61 39.26 22.59 39.26 23.6 C39 26 39 26 37 28 C34.48 28.2 32.07 28.27 29.55 28.26 C28.79 28.26 28.02 28.27 27.23 28.27 C24.68 28.28 22.14 28.27 19.59 28.27 C17.83 28.27 16.07 28.27 14.3 28.27 C10.6 28.27 6.91 28.27 3.21 28.26 C-1.54 28.25 -6.29 28.26 -11.04 28.27 C-14.68 28.28 -18.32 28.27 -21.97 28.27 C-23.72 28.27 -25.47 28.27 -27.22 28.27 C-29.66 28.28 -32.11 28.27 -34.55 28.26 C-35.28 28.26 -36.01 28.27 -36.76 28.27 C-41.77 28.23 -41.77 28.23 -44 26 C-44.23 23.57 -44.23 23.57 -44.2 20.55 C-44.19 19.48 -44.18 18.4 -44.18 17.29 C-44.16 16.17 -44.14 15.04 -44.12 13.88 C-44.12 12.74 -44.11 11.6 -44.1 10.43 C-44.07 7.62 -44.04 4.81 -44 2 C-43.67 2 -43.34 2 -43 2 C-43 8.6 -43 15.2 -43 22 C-34.46 21.96 -25.93 21.9 -17.39 21.82 C-13.43 21.78 -9.46 21.74 -5.5 21.73 C-1.67 21.71 2.15 21.68 5.98 21.63 C7.44 21.62 8.89 21.61 10.35 21.61 C12.4 21.61 14.44 21.58 16.49 21.55 C17.65 21.54 18.81 21.53 20.01 21.52 C23.64 20.89 24.83 19.94 27 17 C27.45 14.11 27.69 11.64 27.75 8.75 C27.83 6.19 27.92 3.63 28 1 C18.76 1 9.52 1 0 1 C0 0.67 0 0.34 0 0 Z " fill="#00B5EB" transform="translate(59,212)"/>
<path d="M0 0 C5.07 2.03 8.53 6.42 12.31 10.25 C13.2 11.11 14.08 11.97 14.99 12.86 C15.82 13.69 16.66 14.53 17.52 15.39 C18.28 16.16 19.05 16.92 19.84 17.71 C21.5 20 21.5 20 22.01 22.48 C20.91 27.93 15.64 31.61 11.81 35.38 C10.44 36.79 10.44 36.79 9.05 38.22 C8.16 39.11 7.28 39.99 6.36 40.9 C5.55 41.71 4.74 42.52 3.9 43.36 C1.5 45 1.5 45 -1.21 44.85 C-4.9 43.49 -6.18 41.11 -8.5 38 C-8.04 37.61 -7.58 37.22 -7.1 36.82 C-2.98 33.29 1.05 29.66 5 25.94 C5.86 25.14 6.71 24.35 7.59 23.53 C9.73 21.11 9.73 21.11 9.98 17.95 C9.43 14.58 8.64 13.33 6.31 10.88 C5.72 10.23 5.13 9.59 4.52 8.93 C2.3 6.82 -0.11 4.92 -2.5 3 C-8.77 9.27 -15.04 15.54 -21.5 22 C-21.5 16.49 -16.03 12.98 -12.31 9.25 C-11.45 8.35 -10.58 7.45 -9.69 6.52 C-8.85 5.67 -8.01 4.83 -7.14 3.96 C-6.37 3.17 -5.6 2.39 -4.81 1.58 C-2.5 0 -2.5 0 0 0 Z " fill="#F4626C" transform="translate(182.5,67.998046875)"/>
<path d="M0 0 C6.76 0.75 10.24 5.62 14.81 10.25 C15.7 11.11 16.58 11.97 17.49 12.86 C18.32 13.69 19.16 14.53 20.02 15.39 C20.78 16.15 21.55 16.92 22.34 17.7 C24 20 24 20 24.51 22.48 C23.41 27.93 18.14 31.61 14.31 35.38 C13.4 36.31 12.49 37.25 11.55 38.22 C10.66 39.11 9.78 39.99 8.86 40.9 C8.05 41.71 7.24 42.52 6.4 43.36 C4 45 4 45 1.29 44.84 C-2.4 43.49 -3.68 41.11 -6 38 C-5.54 37.61 -5.08 37.22 -4.6 36.82 C-2.37 34.91 -0.18 32.96 2 31 C2.91 30.19 3.82 29.39 4.76 28.55 C6.12 27.29 6.12 27.29 7.5 26 C8.36 25.22 9.21 24.43 10.09 23.62 C12.63 20.13 12.66 18.23 12 14 C10.2 11.18 10.2 11.18 7.69 8.81 C4.91 5.97 2.3 3.24 0 0 Z " fill="#7DCC5E" transform="translate(72,68)"/>
<path d="M0 0 C6.76 0.75 10.29 5.63 14.88 10.25 C15.77 11.11 16.66 11.97 17.58 12.86 C18.42 13.69 19.25 14.53 20.12 15.39 C21.27 16.54 21.27 16.54 22.45 17.7 C24 20 24 20 24 22.5 C21.97 27.59 17.58 31.07 13.75 34.88 C12.89 35.77 12.03 36.66 11.14 37.58 C9.89 38.83 9.89 38.83 8.61 40.12 C7.46 41.27 7.46 41.27 6.3 42.45 C4 44 4 44 1.36 43.9 C-1.83 42.68 -3.09 40.76 -5 38 C-4.52 37.53 -4.04 37.05 -3.55 36.56 C-1.38 34.42 0.78 32.27 2.94 30.12 C3.69 29.38 4.45 28.63 5.22 27.86 C6.3 26.79 6.3 26.79 7.4 25.7 C8.4 24.71 8.4 24.71 9.42 23.7 C11.41 21.56 11.95 20.26 12.5 17.38 C11.74 12.24 8.5 9.65 5 6 C4.01 4.84 3.03 3.68 2.06 2.5 C1.04 1.26 1.04 1.26 0 0 Z " fill="#FD636E" transform="translate(180,204)"/>
<path d="M0 0 C0.42 0.65 0.84 1.29 1.27 1.96 C3.78 4.93 6.25 4.65 10 5 C11.91 6.91 11.13 10.31 11.13 12.84 C11.13 13.53 11.13 14.21 11.14 14.92 C11.14 16.37 11.13 17.82 11.13 19.27 C11.13 21.49 11.13 23.72 11.14 25.94 C11.14 27.35 11.13 28.75 11.13 30.16 C11.13 31.44 11.13 32.73 11.13 34.06 C11 37 11 37 10 38 C7.71 38.09 5.41 38.11 3.12 38.1 C2.09 38.1 2.09 38.1 1.04 38.09 C-1.16 38.09 -3.36 38.08 -5.56 38.06 C-7.05 38.06 -8.54 38.05 -10.03 38.05 C-13.69 38.04 -17.34 38.02 -21 38 C-21 37.67 -21 37.34 -21 37 C-19.21 36.96 -19.21 36.96 -17.39 36.92 C-15.82 36.87 -14.25 36.81 -12.69 36.75 C-11.9 36.74 -11.12 36.72 -10.31 36.71 C-9.55 36.67 -8.79 36.64 -8.01 36.61 C-7.32 36.59 -6.62 36.57 -5.9 36.55 C-3.87 36.12 -3.87 36.12 -2.28 34.42 C-0.51 31.08 -0.56 28.38 -0.49 24.61 C-0.47 23.9 -0.45 23.2 -0.43 22.47 C-0.38 20.23 -0.35 17.99 -0.31 15.75 C-0.28 14.23 -0.24 12.7 -0.21 11.18 C-0.12 7.45 -0.06 3.73 0 0 Z " fill="#FDC143" transform="translate(38,3)"/>
<path d="M0 0 C4.9 0.46 7.55 1.46 11 5 C13.93 9.09 15.35 12.62 14.94 17.69 C13.74 24.53 10.4 27.95 5 32 C2.09 32.97 0.03 33.2 -3 33.25 C-3.87 33.28 -4.73 33.3 -5.62 33.33 C-8.43 32.94 -9.26 32.17 -11 30 C-9.45 29.54 -9.45 29.54 -7.88 29.06 C-2.79 26.81 -0.04 23.1 2 18 C2.86 11.6 2.72 5.92 0 0 Z " fill="#00BCF4" transform="translate(123,8)"/>
<path d="M0 0 C6.29 1.61 9.45 4.67 13 10 C13.67 15.36 13.93 21.08 11.44 26 C7.82 30.46 4.84 32.69 -0.83 33.31 C-3.61 33.37 -6.24 33.39 -9 33 C-9.66 32.34 -10.32 31.68 -11 31 C-10.47 30.65 -9.94 30.3 -9.39 29.93 C-4.79 26.72 -0.57 23.62 1 18 C1.52 11.89 1.37 5.99 0 0 Z " fill="#FBC043" transform="translate(144,140)"/>
</svg>
