<?xml version="1.0" encoding="UTF-8"?>
<svg xmlns="http://www.w3.org/2000/svg" xmlns:xlink="http://www.w3.org/1999/xlink" width="48" height="48" viewBox="0 0 48 48" version="1.1">
<g id="surface1">
<path style=" stroke:none;fill-rule:nonzero;fill:rgb(94.901961%,38.82353%,43.137255%);fill-opacity:1;" d="M 27 0 C 28.207031 0.527344 28.777344 1.589844 29.285156 2.761719 C 29.503906 3.332031 29.714844 3.910156 29.917969 4.488281 C 29.992188 4.695312 30.066406 4.902344 30.140625 5.113281 C 30.710938 6.761719 31.191406 8.40625 31.5 10.125 C 31.535156 10.300781 31.566406 10.476562 31.601562 10.660156 C 31.871094 12.230469 31.921875 13.75 31.898438 15.339844 C 31.898438 15.578125 31.894531 15.820312 31.894531 16.066406 C 31.886719 16.648438 31.882812 17.230469 31.875 17.8125 C 32.09375 17.847656 32.09375 17.847656 32.316406 17.882812 C 34.109375 18.179688 34.109375 18.179688 34.882812 18.347656 C 37.726562 18.941406 40.757812 19.042969 43.613281 18.460938 C 44.582031 18.277344 45.425781 18.261719 46.359375 18.585938 C 47.042969 19.050781 47.636719 19.582031 47.929688 20.382812 C 48.03125 21.011719 48.035156 21.640625 48.039062 22.277344 C 48.039062 22.421875 48.042969 22.566406 48.042969 22.710938 C 48.085938 28.777344 48.085938 28.777344 47.4375 31.3125 C 47.398438 31.464844 47.359375 31.613281 47.320312 31.769531 C 45.835938 37.453125 43.007812 42.5625 37.863281 45.65625 C 34.996094 47.296875 31.460938 48.515625 28.125 48 C 24.617188 46.949219 21.375 43.382812 19.6875 40.3125 C 17.8125 36.703125 17.8125 36.703125 17.8125 35.0625 C 17.59375 35.050781 17.378906 35.039062 17.15625 35.027344 C 12.546875 34.496094 8.214844 31.6875 5.25 28.226562 C 1.878906 23.929688 -0.0234375 18.207031 -0.03125 12.757812 C -0.03125 12.601562 -0.03125 12.445312 -0.0351562 12.285156 C -0.0351562 11.957031 -0.0351562 11.628906 -0.0351562 11.300781 C -0.0351562 10.808594 -0.0390625 10.3125 -0.0429688 9.816406 C -0.0546875 5.433594 -0.0546875 5.433594 1.125 4.125 C 2.0625 3.46875 2.789062 3.316406 3.9375 3.375 C 4.367188 3.453125 4.800781 3.542969 5.226562 3.644531 C 6.242188 3.871094 7.210938 4.074219 8.25 4.125 C 8.472656 4.136719 8.695312 4.148438 8.925781 4.164062 C 14 4.339844 19.429688 3.246094 23.773438 0.542969 C 24.863281 -0.128906 25.753906 -0.167969 27 0 Z M 27 0 "/>
<path style=" stroke:none;fill-rule:nonzero;fill:rgb(58.823532%,69.01961%,99.215686%);fill-opacity:1;" d="M 26.039062 1.476562 C 26.789062 1.746094 27.179688 2.070312 27.558594 2.78125 C 27.75 3.210938 27.929688 3.648438 28.101562 4.089844 C 28.164062 4.253906 28.230469 4.417969 28.296875 4.585938 C 29.886719 8.761719 30.460938 12.8125 30.375 17.25 C 29.394531 17.144531 28.660156 16.816406 27.796875 16.371094 C 27.664062 16.304688 27.53125 16.238281 27.398438 16.167969 C 26.644531 15.785156 25.9375 15.371094 25.230469 14.90625 C 24.511719 14.464844 23.957031 14.3125 23.121094 14.308594 C 22.285156 14.558594 21.617188 15.015625 21.125 15.742188 C 20.898438 16.171875 20.699219 16.605469 20.507812 17.050781 C 20.402344 17.289062 20.402344 17.289062 20.292969 17.53125 C 19.445312 19.433594 18.757812 21.355469 18.296875 23.394531 C 18.1875 23.8125 18.1875 23.8125 18 24 C 15.398438 24.25 13 24.171875 10.75 22.746094 C 10.320312 22.445312 10.320312 22.445312 9.785156 22.558594 C 9.648438 22.601562 9.515625 22.644531 9.375 22.6875 C 9.316406 23.582031 9.457031 24.101562 9.902344 24.878906 C 10.050781 25.140625 10.050781 25.140625 10.199219 25.410156 C 10.460938 25.8125 10.722656 26.101562 11.0625 26.4375 C 11.0625 26.558594 11.0625 26.683594 11.0625 26.8125 C 11.171875 26.863281 11.277344 26.914062 11.390625 26.96875 C 11.816406 27.191406 12.183594 27.445312 12.574219 27.726562 C 14.15625 28.789062 15.53125 29.058594 17.4375 29.25 C 17.5 30.609375 17.558594 31.972656 17.625 33.375 C 15.429688 33.15625 15.429688 33.15625 14.296875 32.707031 C 14.171875 32.65625 14.042969 32.605469 13.910156 32.554688 C 9.554688 30.800781 6.488281 27.757812 4.3125 23.625 C 4.222656 23.457031 4.132812 23.289062 4.039062 23.113281 C 3.113281 21.339844 2.53125 19.496094 2.121094 17.542969 C 2.082031 17.351562 2.039062 17.164062 2 16.964844 C 1.734375 15.679688 1.519531 14.4375 1.5 13.125 C 1.496094 12.976562 1.496094 12.828125 1.492188 12.679688 C 1.398438 6.414062 1.398438 6.414062 2.25 5.25 C 3.167969 4.792969 4.210938 5.109375 5.160156 5.335938 C 11.15625 6.625 18.714844 5.503906 23.996094 2.285156 C 24.15625 2.179688 24.316406 2.078125 24.480469 1.96875 C 25.097656 1.582031 25.285156 1.5 26.039062 1.476562 Z M 26.039062 1.476562 "/>
<path style=" stroke:none;fill-rule:nonzero;fill:rgb(22.745098%,12.54902%,20.392157%);fill-opacity:1;" d="M 27 0 C 28.207031 0.527344 28.777344 1.589844 29.285156 2.761719 C 29.503906 3.332031 29.714844 3.910156 29.917969 4.488281 C 29.992188 4.695312 30.066406 4.902344 30.140625 5.113281 C 30.710938 6.761719 31.191406 8.40625 31.5 10.125 C 31.535156 10.300781 31.566406 10.476562 31.601562 10.660156 C 31.871094 12.230469 31.921875 13.75 31.898438 15.339844 C 31.898438 15.578125 31.894531 15.820312 31.894531 16.066406 C 31.886719 16.648438 31.882812 17.230469 31.875 17.8125 C 32.09375 17.847656 32.09375 17.847656 32.316406 17.882812 C 34.109375 18.179688 34.109375 18.179688 34.882812 18.347656 C 37.726562 18.941406 40.757812 19.042969 43.613281 18.460938 C 44.582031 18.277344 45.425781 18.261719 46.359375 18.585938 C 47.042969 19.050781 47.636719 19.582031 47.929688 20.382812 C 48.03125 21.011719 48.035156 21.640625 48.039062 22.277344 C 48.039062 22.421875 48.042969 22.566406 48.042969 22.710938 C 48.085938 28.777344 48.085938 28.777344 47.4375 31.3125 C 47.398438 31.464844 47.359375 31.613281 47.320312 31.769531 C 45.835938 37.453125 43.007812 42.5625 37.863281 45.65625 C 34.996094 47.296875 31.460938 48.515625 28.125 48 C 24.617188 46.949219 21.375 43.382812 19.6875 40.3125 C 17.8125 36.703125 17.8125 36.703125 17.8125 35.0625 C 17.59375 35.050781 17.378906 35.039062 17.15625 35.027344 C 12.546875 34.496094 8.214844 31.6875 5.25 28.226562 C 1.878906 23.929688 -0.0234375 18.207031 -0.03125 12.757812 C -0.03125 12.601562 -0.03125 12.445312 -0.0351562 12.285156 C -0.0351562 11.957031 -0.0351562 11.628906 -0.0351562 11.300781 C -0.0351562 10.808594 -0.0390625 10.3125 -0.0429688 9.816406 C -0.0546875 5.433594 -0.0546875 5.433594 1.125 4.125 C 2.0625 3.46875 2.789062 3.316406 3.9375 3.375 C 4.367188 3.453125 4.800781 3.542969 5.226562 3.644531 C 6.242188 3.871094 7.210938 4.074219 8.25 4.125 C 8.472656 4.136719 8.695312 4.148438 8.925781 4.164062 C 14 4.339844 19.429688 3.246094 23.773438 0.542969 C 24.863281 -0.128906 25.753906 -0.167969 27 0 Z M 23.964844 2.261719 C 19.792969 4.695312 15.101562 5.664062 10.300781 5.660156 C 10.058594 5.660156 9.816406 5.660156 9.566406 5.660156 C 7.78125 5.648438 6.023438 5.589844 4.285156 5.148438 C 3.710938 5.007812 3.210938 5.011719 2.625 5.0625 C 2.183594 5.414062 1.9375 5.683594 1.6875 6.1875 C 0.871094 13.164062 1.742188 20.835938 6.082031 26.578125 C 6.300781 26.847656 6.523438 27.109375 6.75 27.375 C 6.875 27.527344 7 27.679688 7.128906 27.835938 C 9.527344 30.648438 12.925781 32.496094 16.5 33.375 C 16.871094 33.375 17.242188 33.375 17.625 33.375 C 17.5625 32.015625 17.5 30.652344 17.4375 29.25 C 17.058594 29.214844 16.679688 29.179688 16.289062 29.144531 C 14.433594 28.882812 12.761719 28.171875 11.4375 26.8125 C 11.3125 26.8125 11.191406 26.8125 11.0625 26.8125 C 11.011719 26.710938 10.964844 26.605469 10.910156 26.496094 C 10.664062 26.019531 10.394531 25.5625 10.113281 25.101562 C 9.570312 24.207031 9.351562 23.75 9.375 22.6875 C 9.984375 22.496094 10.253906 22.476562 10.855469 22.714844 C 11.042969 22.816406 11.234375 22.921875 11.425781 23.027344 C 12.992188 23.878906 14.152344 24.050781 15.914062 24.023438 C 16.113281 24.023438 16.3125 24.019531 16.523438 24.019531 C 17.015625 24.011719 17.507812 24.007812 18 24 C 18.347656 23.105469 18.644531 22.234375 18.878906 21.304688 C 19.1875 20.199219 19.585938 19.167969 20.050781 18.117188 C 20.109375 17.980469 20.171875 17.839844 20.234375 17.699219 C 21.265625 15.429688 21.265625 15.429688 22.171875 14.625 C 23.011719 14.320312 23.90625 14.265625 24.757812 14.578125 C 25.128906 14.773438 25.484375 14.984375 25.839844 15.210938 C 26.101562 15.367188 26.359375 15.519531 26.621094 15.675781 C 26.746094 15.75 26.875 15.828125 27.003906 15.90625 C 27.539062 16.222656 28.085938 16.507812 28.640625 16.792969 C 28.898438 16.925781 28.898438 16.925781 29.164062 17.0625 C 29.660156 17.296875 29.660156 17.296875 30.375 17.25 C 30.527344 12.398438 29.703125 7.804688 27.820312 3.316406 C 27.769531 3.195312 27.722656 3.074219 27.667969 2.949219 C 27.332031 2.199219 27.011719 1.816406 26.25 1.5 C 25.335938 1.328125 24.714844 1.800781 23.964844 2.261719 Z M 22.675781 16.03125 C 22.195312 16.648438 21.886719 17.300781 21.5625 18.011719 C 21.496094 18.15625 21.429688 18.300781 21.363281 18.449219 C 20.59375 20.144531 20.023438 21.832031 19.558594 23.636719 C 19.519531 23.792969 19.476562 23.949219 19.4375 24.105469 C 18.15625 29.269531 18.652344 35.136719 21.246094 39.808594 C 22.953125 42.566406 25.136719 44.542969 27.9375 46.125 C 28.054688 46.203125 28.175781 46.277344 28.296875 46.355469 C 30.277344 47.089844 33.273438 46.035156 35.070312 45.234375 C 40.039062 42.902344 43.300781 38.824219 45.164062 33.710938 C 46.074219 30.648438 46.535156 27.628906 46.546875 24.441406 C 46.546875 24.046875 46.550781 23.648438 46.558594 23.253906 C 46.558594 23 46.558594 22.746094 46.5625 22.492188 C 46.5625 22.148438 46.5625 22.148438 46.566406 21.800781 C 46.488281 21.078125 46.265625 20.578125 45.75 20.0625 C 44.710938 19.964844 43.703125 20.078125 42.679688 20.25 C 39.796875 20.683594 36.964844 20.492188 34.125 19.875 C 33.972656 19.839844 33.816406 19.808594 33.65625 19.773438 C 30.578125 19.09375 27.894531 18.09375 25.207031 16.425781 C 25.0625 16.339844 24.917969 16.253906 24.773438 16.164062 C 24.644531 16.082031 24.519531 16.003906 24.386719 15.921875 C 23.742188 15.636719 23.25 15.613281 22.675781 16.03125 Z M 22.675781 16.03125 "/>
<path style=" stroke:none;fill-rule:nonzero;fill:rgb(90.588236%,32.156864%,36.470589%);fill-opacity:1;" d="M 24 15.75 C 23.867188 16.640625 23.53125 17.417969 23.191406 18.246094 C 22.5625 19.824219 22.082031 21.394531 21.75 23.0625 C 21.714844 23.222656 21.683594 23.382812 21.648438 23.546875 C 21.347656 25.140625 21.300781 26.71875 21.304688 28.335938 C 21.304688 28.542969 21.304688 28.542969 21.304688 28.75 C 21.316406 32.40625 22.089844 35.558594 23.8125 38.8125 C 24.132812 38.394531 24.425781 37.980469 24.703125 37.535156 C 25.703125 36.121094 26.800781 35.164062 28.5 34.6875 C 30.546875 34.414062 32.214844 34.773438 33.953125 35.871094 C 35.019531 36.691406 35.765625 37.921875 36.1875 39.1875 C 36.203125 39.632812 36.210938 40.078125 36.210938 40.523438 C 36.210938 40.878906 36.210938 40.878906 36.210938 41.242188 C 36.1875 41.8125 36.1875 41.8125 36 42 C 35.578125 42.082031 35.578125 42.082031 35.0625 42 C 34.835938 41.738281 34.613281 41.472656 34.40625 41.199219 C 33.308594 39.9375 31.523438 39.09375 29.882812 38.933594 C 27.933594 38.890625 26.472656 39.242188 24.75 40.125 C 26.914062 42.632812 29.539062 45.40625 33 45.75 C 32.296875 46.453125 31.144531 46.386719 30.1875 46.5 C 30.046875 46.519531 29.90625 46.542969 29.765625 46.5625 C 27.90625 46.726562 26.140625 45.109375 24.777344 44.007812 C 22.449219 42.050781 20.925781 39.578125 19.875 36.75 C 19.820312 36.609375 19.765625 36.46875 19.707031 36.328125 C 17.609375 30.699219 19.003906 23.660156 21.394531 18.367188 C 22.632812 15.714844 22.632812 15.714844 24 15.75 Z M 24 15.75 "/>
<path style=" stroke:none;fill-rule:nonzero;fill:rgb(49.803922%,62.352943%,98.431373%);fill-opacity:1;" d="M 3.1875 5.0625 C 3.183594 5.320312 3.183594 5.320312 3.183594 5.578125 C 3.105469 13.265625 3.933594 20.839844 9.5625 26.625 C 9.726562 26.804688 9.726562 26.804688 9.894531 26.984375 C 11.875 29.082031 14.574219 30.347656 17.25 31.3125 C 17.25 30.632812 17.25 29.953125 17.25 29.25 C 17.3125 29.25 17.375 29.25 17.4375 29.25 C 17.5 30.609375 17.5625 31.972656 17.625 33.375 C 15.429688 33.15625 15.429688 33.15625 14.296875 32.707031 C 14.167969 32.65625 14.042969 32.609375 13.910156 32.558594 C 9.554688 30.800781 6.488281 27.757812 4.3125 23.625 C 4.222656 23.457031 4.128906 23.289062 4.039062 23.113281 C 3.113281 21.339844 2.53125 19.5 2.121094 17.542969 C 2.082031 17.351562 2.039062 17.160156 2 16.964844 C 1.734375 15.683594 1.519531 14.4375 1.5 13.125 C 1.5 12.976562 1.496094 12.832031 1.492188 12.679688 C 1.398438 6.414062 1.398438 6.414062 2.25 5.25 C 2.625 5.0625 2.625 5.0625 3.1875 5.0625 Z M 3.1875 5.0625 "/>
<path style=" stroke:none;fill-rule:nonzero;fill:rgb(23.921569%,13.333334%,20.784314%);fill-opacity:1;" d="M 33.5625 35.625 C 34.851562 36.4375 35.707031 37.75 36.1875 39.1875 C 36.203125 39.632812 36.210938 40.078125 36.210938 40.523438 C 36.210938 40.878906 36.210938 40.878906 36.210938 41.242188 C 36.1875 41.8125 36.1875 41.8125 36 42 C 35.578125 42.082031 35.578125 42.082031 35.0625 42 C 34.835938 41.738281 34.613281 41.472656 34.40625 41.199219 C 33.308594 39.9375 31.523438 39.09375 29.882812 38.933594 C 28.320312 38.898438 26.878906 39.023438 25.480469 39.773438 C 24.996094 39.996094 24.691406 39.890625 24.1875 39.75 C 24.046875 39.238281 23.964844 38.914062 24.132812 38.402344 C 26.179688 34.828125 29.835938 33.503906 33.5625 35.625 Z M 33.5625 35.625 "/>
<path style=" stroke:none;fill-rule:nonzero;fill:rgb(23.137255%,14.117648%,22.745098%);fill-opacity:1;" d="M 13.175781 12.546875 C 13.28125 12.613281 13.390625 12.679688 13.5 12.75 C 13.5 13.121094 13.5 13.492188 13.5 13.875 C 13.101562 14.003906 13.101562 14.003906 12.5625 14.0625 C 12.308594 13.929688 12.308594 13.929688 12.046875 13.792969 C 11.019531 13.296875 10.128906 13.378906 9.058594 13.722656 C 8.566406 13.992188 8.253906 14.210938 7.851562 14.578125 C 7.3125 15 7.3125 15 6.773438 14.964844 C 6.640625 14.914062 6.511719 14.863281 6.375 14.8125 C 6.234375 14.390625 6.234375 14.390625 6.1875 13.875 C 7.933594 11.585938 10.738281 11.148438 13.175781 12.546875 Z M 13.175781 12.546875 "/>
<path style=" stroke:none;fill-rule:nonzero;fill:rgb(23.529412%,14.509805%,22.745098%);fill-opacity:1;" d="M 24.828125 10.578125 C 25.3125 10.875 25.3125 10.875 25.5 11.351562 C 25.5 11.582031 25.5 11.582031 25.5 11.8125 C 25.375 11.9375 25.253906 12.058594 25.125 12.1875 C 24.480469 12.136719 23.9375 12.054688 23.34375 11.800781 C 22.472656 11.476562 21.765625 11.558594 20.894531 11.847656 C 20.378906 12.121094 20.078125 12.324219 19.664062 12.703125 C 19.125 13.125 19.125 13.125 18.585938 13.089844 C 18.453125 13.039062 18.324219 12.988281 18.1875 12.9375 C 18.046875 12.515625 18.046875 12.515625 18 12 C 19.855469 9.566406 22.210938 9.617188 24.828125 10.578125 Z M 24.828125 10.578125 "/>
<path style=" stroke:none;fill-rule:nonzero;fill:rgb(24.705882%,12.941177%,20.392157%);fill-opacity:1;" d="M 24.1875 23.4375 C 25.171875 23.460938 25.640625 23.839844 26.324219 24.492188 C 26.921875 25.003906 27.558594 24.976562 28.316406 24.96875 C 28.796875 24.929688 29.179688 24.75 29.625 24.5625 C 30.246094 24.539062 30.246094 24.539062 30.75 24.5625 C 30.84375 25.121094 30.84375 25.121094 30.9375 25.6875 C 29.535156 26.523438 28.464844 26.785156 26.8125 26.625 C 25.601562 26.269531 24.707031 25.410156 23.8125 24.5625 C 23.976562 23.648438 23.976562 23.648438 24.1875 23.4375 Z M 24.1875 23.4375 "/>
<path style=" stroke:none;fill-rule:nonzero;fill:rgb(25.098041%,13.333334%,20.392157%);fill-opacity:1;" d="M 35.25 25.6875 C 35.765625 25.628906 35.765625 25.628906 36.375 25.6875 C 36.632812 25.996094 36.882812 26.308594 37.125 26.625 C 38.171875 27.242188 38.972656 27.242188 40.125 27 C 40.3125 26.9375 40.496094 26.875 40.6875 26.8125 C 41.125 26.804688 41.5625 26.804688 42 26.8125 C 42.09375 27.277344 42.09375 27.277344 42.1875 27.75 C 41.144531 28.664062 39.90625 29 38.546875 28.953125 C 37.195312 28.738281 36.070312 28.019531 35.234375 26.945312 C 35.0625 26.625 35.0625 26.625 35.085938 26.074219 C 35.140625 25.945312 35.195312 25.820312 35.25 25.6875 Z M 35.25 25.6875 "/>
<path style=" stroke:none;fill-rule:nonzero;fill:rgb(87.843138%,53.333336%,9.019608%);fill-opacity:1;" d="M 11.4375 24.75 C 11.8125 24.84375 12.1875 24.9375 12.5625 25.03125 C 13.660156 25.300781 14.726562 25.390625 15.855469 25.429688 C 16.113281 25.441406 16.113281 25.441406 16.375 25.453125 C 16.789062 25.46875 17.207031 25.484375 17.625 25.5 C 17.625 26.242188 17.625 26.984375 17.625 27.75 C 15.820312 27.882812 14.398438 27.503906 12.945312 26.386719 C 11.710938 25.292969 11.710938 25.292969 11.4375 24.75 Z M 11.4375 24.75 "/>
<path style=" stroke:none;fill-rule:nonzero;fill:rgb(96.470588%,87.450981%,86.666667%);fill-opacity:1;" d="M 32.472656 36.6875 C 33.320312 37.308594 34.125 37.921875 34.3125 39 C 34.074219 38.882812 34.074219 38.882812 33.832031 38.765625 C 33.515625 38.617188 33.515625 38.617188 33.1875 38.460938 C 32.980469 38.359375 32.769531 38.261719 32.554688 38.15625 C 31.167969 37.582031 29.984375 37.449219 28.5 37.476562 C 28.335938 37.476562 28.171875 37.480469 28.003906 37.480469 C 27.609375 37.488281 27.210938 37.492188 26.8125 37.5 C 28.246094 35.980469 30.636719 35.609375 32.472656 36.6875 Z M 32.472656 36.6875 "/>
<path style=" stroke:none;fill-rule:nonzero;fill:rgb(94.117647%,58.823532%,12.941177%);fill-opacity:1;" d="M 12.9375 25.3125 C 14.484375 25.375 16.03125 25.4375 17.625 25.5 C 17.625 25.933594 17.625 26.367188 17.625 26.8125 C 16.320312 27.1875 14.984375 26.605469 13.800781 26.03125 C 13.503906 25.867188 13.21875 25.683594 12.9375 25.5 C 12.9375 25.4375 12.9375 25.375 12.9375 25.3125 Z M 12.9375 25.3125 "/>
</g>
</svg>
