<?xml version="1.0" encoding="UTF-8"?>
<svg xmlns="http://www.w3.org/2000/svg" xmlns:xlink="http://www.w3.org/1999/xlink" width="48" height="48" viewBox="0 0 48 48" version="1.1">
<g id="surface1">
<path style=" stroke:none;fill-rule:nonzero;fill:rgb(21.568628%,27.843139%,30.980393%);fill-opacity:1;" d="M 31.453125 5.390625 C 32.4375 6.3125 33.320312 7.394531 33.78125 8.667969 C 34.089844 9.265625 34.089844 9.265625 34.84375 9.351562 C 35.136719 9.375 35.429688 9.386719 35.71875 9.398438 C 38.390625 9.601562 40.71875 10.523438 42.585938 12.515625 C 44.660156 15 45.238281 17.585938 45.042969 20.753906 C 44.8125 23.144531 43.566406 25.21875 41.847656 26.851562 C 41.035156 27.515625 40.125 28.03125 39.1875 28.5 C 39.1875 28.679688 39.1875 28.863281 39.1875 29.046875 C 39.179688 30.75 39.167969 32.457031 39.152344 34.164062 C 39.144531 35.039062 39.140625 35.914062 39.136719 36.792969 C 39.132812 37.640625 39.128906 38.484375 39.117188 39.328125 C 39.117188 39.652344 39.113281 39.976562 39.113281 40.296875 C 39.113281 40.75 39.109375 41.203125 39.101562 41.65625 C 39.101562 41.855469 39.101562 41.855469 39.105469 42.054688 C 39.082031 43.25 38.632812 43.878906 37.796875 44.6875 C 36.753906 45.171875 35.742188 45.105469 34.605469 45.097656 C 34.347656 45.097656 34.089844 45.097656 33.835938 45.101562 C 33.140625 45.105469 32.441406 45.101562 31.746094 45.101562 C 31.019531 45.097656 30.289062 45.101562 29.558594 45.101562 C 28.335938 45.101562 27.109375 45.101562 25.886719 45.097656 C 24.472656 45.09375 23.058594 45.09375 21.644531 45.097656 C 20.429688 45.101562 19.214844 45.101562 18 45.101562 C 17.273438 45.097656 16.546875 45.097656 15.820312 45.101562 C 15.140625 45.105469 14.457031 45.101562 13.777344 45.097656 C 13.40625 45.097656 13.035156 45.097656 12.667969 45.101562 C 10.605469 45.082031 10.605469 45.082031 9.75 44.25 C 9.039062 43.410156 8.890625 42.726562 8.898438 41.65625 C 8.894531 41.511719 8.894531 41.371094 8.890625 41.222656 C 8.886719 40.753906 8.886719 40.285156 8.886719 39.816406 C 8.882812 39.488281 8.878906 39.164062 8.875 38.835938 C 8.867188 37.980469 8.863281 37.125 8.859375 36.269531 C 8.859375 35.390625 8.851562 34.519531 8.84375 33.644531 C 8.828125 31.929688 8.816406 30.214844 8.8125 28.5 C 8.636719 28.40625 8.636719 28.40625 8.460938 28.308594 C 8.308594 28.226562 8.15625 28.140625 8.003906 28.054688 C 7.851562 27.972656 7.699219 27.890625 7.546875 27.804688 C 5.410156 26.570312 3.914062 24.449219 3.1875 22.125 C 2.53125 19.636719 2.859375 16.699219 4.039062 14.445312 C 5.152344 12.585938 6.515625 11.304688 8.4375 10.3125 C 8.640625 10.203125 8.640625 10.203125 8.847656 10.089844 C 9.796875 9.644531 10.625 9.53125 11.65625 9.484375 C 13.109375 9.460938 13.109375 9.460938 14.300781 8.765625 C 14.578125 8.242188 14.578125 8.242188 14.78125 7.679688 C 15.554688 5.71875 17.617188 4.453125 19.441406 3.597656 C 23.507812 1.855469 28.050781 2.535156 31.453125 5.390625 Z M 17.03125 8.109375 C 16.742188 8.539062 16.578125 8.871094 16.402344 9.351562 C 15.785156 10.929688 15.785156 10.929688 15.1875 11.4375 C 14.070312 11.789062 12.855469 11.65625 11.703125 11.621094 C 9.835938 11.632812 8.433594 12.816406 7.136719 14.027344 C 5.648438 15.566406 4.992188 17.625 5.023438 19.734375 C 5.199219 22.027344 6.277344 23.808594 7.886719 25.390625 C 8.246094 25.683594 8.582031 25.863281 9 26.0625 C 9 25.949219 9 25.835938 9 25.722656 C 9.007812 24.546875 9.023438 23.375 9.039062 22.199219 C 9.046875 21.761719 9.046875 21.324219 9.050781 20.886719 C 9.054688 20.253906 9.0625 19.625 9.074219 18.992188 C 9.074219 18.796875 9.074219 18.605469 9.074219 18.402344 C 9.09375 17.308594 9.164062 16.59375 9.9375 15.75 C 10.640625 15.246094 11.117188 15.117188 11.976562 15.113281 C 12.195312 15.113281 12.417969 15.109375 12.644531 15.109375 C 12.886719 15.109375 13.125 15.109375 13.371094 15.113281 C 13.628906 15.109375 13.886719 15.109375 14.144531 15.109375 C 14.839844 15.105469 15.535156 15.105469 16.234375 15.105469 C 16.816406 15.105469 17.398438 15.105469 17.980469 15.105469 C 19.351562 15.101562 20.726562 15.101562 22.097656 15.101562 C 23.515625 15.105469 24.929688 15.101562 26.34375 15.097656 C 27.5625 15.09375 28.78125 15.09375 29.996094 15.09375 C 30.722656 15.09375 31.449219 15.09375 32.171875 15.09375 C 32.855469 15.089844 33.539062 15.089844 34.222656 15.09375 C 34.59375 15.09375 34.960938 15.089844 35.328125 15.089844 C 37.347656 15.105469 37.347656 15.105469 38.25 15.9375 C 39.027344 16.800781 38.902344 17.875 38.90625 18.976562 C 38.910156 19.179688 38.914062 19.382812 38.917969 19.589844 C 38.929688 20.238281 38.933594 20.882812 38.941406 21.527344 C 38.949219 21.964844 38.953125 22.40625 38.960938 22.84375 C 38.976562 23.914062 38.988281 24.988281 39 26.0625 C 40.96875 24.761719 42.148438 23.285156 42.820312 20.976562 C 43.164062 18.855469 42.828125 16.886719 41.683594 15.035156 C 40.484375 13.398438 38.777344 12.03125 36.75 11.625 C 36.457031 11.628906 36.160156 11.644531 35.867188 11.664062 C 33.210938 11.769531 33.210938 11.769531 32.507812 11.179688 C 32.019531 10.507812 31.746094 9.746094 31.457031 8.972656 C 30.722656 7.222656 28.832031 6.085938 27.167969 5.378906 C 23.4375 4.078125 19.625 5.148438 17.03125 8.109375 Z M 11.0625 22.6875 C 11.0625 27.203125 11.0625 31.722656 11.0625 36.375 C 14.714844 36.375 18.363281 36.375 22.125 36.375 C 22.371094 35.878906 22.621094 35.386719 22.875 34.875 C 23.859375 33.933594 24.53125 33.511719 25.890625 33.523438 C 26.214844 33.527344 26.214844 33.527344 26.546875 33.527344 C 26.773438 33.53125 27 33.535156 27.234375 33.539062 C 27.578125 33.542969 27.578125 33.542969 27.929688 33.542969 C 28.496094 33.550781 29.058594 33.554688 29.625 33.5625 C 29.675781 33.683594 29.726562 33.804688 29.777344 33.929688 C 29.851562 34.058594 29.925781 34.183594 30 34.3125 C 30.570312 34.4375 30.570312 34.4375 31.21875 34.441406 C 32.414062 34.488281 32.414062 34.488281 32.8125 34.6875 C 32.847656 35.320312 32.847656 35.320312 32.8125 36 C 32.175781 36.425781 31.84375 36.445312 31.089844 36.492188 C 30.785156 36.515625 30.785156 36.515625 30.472656 36.535156 C 30.316406 36.542969 30.160156 36.554688 30 36.5625 C 30 37.121094 30 37.675781 30 38.25 C 30.234375 38.261719 30.234375 38.261719 30.472656 38.277344 C 30.777344 38.296875 30.777344 38.296875 31.089844 38.320312 C 31.292969 38.332031 31.496094 38.34375 31.703125 38.359375 C 32.25 38.4375 32.25 38.4375 32.8125 38.8125 C 32.847656 39.492188 32.847656 39.492188 32.8125 40.125 C 32.132812 40.464844 31.308594 40.367188 30.558594 40.394531 C 30.375 40.429688 30.1875 40.460938 30 40.5 C 29.773438 40.871094 29.773438 40.871094 29.625 41.25 C 28.875 41.273438 28.125 41.285156 27.375 41.296875 C 27.164062 41.300781 26.953125 41.308594 26.734375 41.316406 C 25.332031 41.332031 24.210938 41.222656 23.152344 40.234375 C 22.640625 39.65625 22.417969 39.167969 22.125 38.4375 C 18.472656 38.4375 14.824219 38.4375 11.0625 38.4375 C 11.0625 39.675781 11.0625 40.914062 11.0625 42.1875 C 11.839844 42.996094 11.839844 42.996094 12.824219 43.03125 C 13.027344 43.035156 13.234375 43.035156 13.445312 43.039062 C 13.667969 43.035156 13.890625 43.035156 14.121094 43.035156 C 14.480469 43.035156 14.480469 43.035156 14.839844 43.039062 C 15.488281 43.042969 16.136719 43.039062 16.785156 43.039062 C 17.464844 43.035156 18.144531 43.039062 18.824219 43.039062 C 19.964844 43.039062 21.101562 43.039062 22.242188 43.035156 C 23.558594 43.03125 24.878906 43.03125 26.195312 43.035156 C 27.328125 43.039062 28.457031 43.039062 29.589844 43.039062 C 30.265625 43.035156 30.941406 43.035156 31.617188 43.039062 C 32.371094 43.042969 33.125 43.039062 33.878906 43.035156 C 34.101562 43.035156 34.324219 43.035156 34.554688 43.039062 C 34.761719 43.035156 34.964844 43.035156 35.175781 43.03125 C 35.355469 43.03125 35.53125 43.03125 35.71875 43.03125 C 36.335938 42.90625 36.558594 42.6875 36.9375 42.1875 C 37.046875 41.789062 37.046875 41.789062 37.027344 41.355469 C 37.03125 41.191406 37.03125 41.027344 37.03125 40.859375 C 37.027344 40.679688 37.027344 40.5 37.023438 40.3125 C 37.023438 40.023438 37.023438 40.023438 37.023438 39.726562 C 37.023438 39.101562 37.015625 38.476562 37.011719 37.847656 C 37.007812 37.460938 37.007812 37.078125 37.007812 36.691406 C 37.003906 35.253906 36.992188 33.824219 36.984375 32.390625 C 36.96875 29.1875 36.953125 25.984375 36.9375 22.6875 C 28.398438 22.6875 19.859375 22.6875 11.0625 22.6875 Z M 11.0625 22.6875 "/>
<path style=" stroke:none;fill-rule:nonzero;fill:rgb(34.117648%,62.352943%,83.529413%);fill-opacity:1;" d="M 12.433594 17.015625 C 12.644531 17.011719 12.855469 17.011719 13.074219 17.011719 C 13.425781 17.011719 13.425781 17.011719 13.78125 17.015625 C 14.027344 17.011719 14.269531 17.011719 14.519531 17.011719 C 15.195312 17.011719 15.863281 17.011719 16.535156 17.011719 C 17.238281 17.011719 17.941406 17.011719 18.640625 17.011719 C 19.820312 17.011719 21 17.011719 22.179688 17.011719 C 23.542969 17.015625 24.910156 17.015625 26.273438 17.011719 C 27.441406 17.011719 28.613281 17.011719 29.785156 17.011719 C 30.484375 17.011719 31.183594 17.011719 31.882812 17.011719 C 32.660156 17.007812 33.441406 17.011719 34.21875 17.015625 C 34.453125 17.011719 34.6875 17.011719 34.925781 17.011719 C 35.136719 17.011719 35.347656 17.011719 35.566406 17.015625 C 35.75 17.015625 35.933594 17.015625 36.125 17.015625 C 36.5625 17.0625 36.5625 17.0625 36.9375 17.4375 C 36.9375 18.488281 36.9375 19.539062 36.9375 20.625 C 28.398438 20.625 19.859375 20.625 11.0625 20.625 C 11.0625 17.015625 11.0625 17.015625 12.433594 17.015625 Z M 12.433594 17.015625 "/>
<path style=" stroke:none;fill-rule:nonzero;fill:rgb(21.176471%,27.843139%,30.980393%);fill-opacity:1;" d="M 20.4375 24.9375 C 21.515625 25.933594 21.839844 27.226562 22.277344 28.59375 C 22.390625 28.933594 22.390625 28.933594 22.507812 29.28125 C 23.132812 31.1875 23.132812 31.1875 23.0625 32.25 C 22.863281 32.613281 22.863281 32.613281 22.5 32.8125 C 21.84375 32.835938 21.84375 32.835938 21.1875 32.625 C 20.808594 31.964844 20.625 31.511719 20.625 30.75 C 19.574219 30.75 18.519531 30.75 17.4375 30.75 C 17.375 31.121094 17.3125 31.492188 17.25 31.875 C 16.964844 32.578125 16.964844 32.578125 16.5 32.8125 C 15.9375 32.847656 15.9375 32.847656 15.375 32.8125 C 15 32.4375 15 32.4375 14.925781 31.820312 C 14.957031 30.648438 15.398438 29.570312 15.785156 28.476562 C 15.855469 28.261719 15.929688 28.042969 16.003906 27.820312 C 16.402344 26.6875 16.746094 25.773438 17.625 24.9375 C 18.574219 24.507812 19.507812 24.425781 20.4375 24.9375 Z M 18.9375 26.8125 C 18.527344 27.4375 18.292969 27.945312 18.1875 28.6875 C 18.683594 28.6875 19.175781 28.6875 19.6875 28.6875 C 19.636719 28.410156 19.578125 28.132812 19.523438 27.855469 C 19.476562 27.625 19.476562 27.625 19.429688 27.386719 C 19.390625 27.257812 19.355469 27.132812 19.3125 27 C 19.1875 26.9375 19.066406 26.875 18.9375 26.8125 Z M 18.9375 26.8125 "/>
<path style=" stroke:none;fill-rule:nonzero;fill:rgb(21.176471%,27.450982%,30.588236%);fill-opacity:1;" d="M 28.515625 24.925781 C 29.222656 25.320312 29.640625 25.90625 30 26.625 C 30.09375 27.664062 30.140625 28.578125 29.695312 29.53125 C 28.574219 30.710938 28.574219 30.710938 27.59375 30.796875 C 27.082031 30.796875 26.574219 30.78125 26.0625 30.75 C 26.074219 30.988281 26.085938 31.222656 26.097656 31.464844 C 26.09375 32.195312 26.09375 32.195312 25.851562 32.625 C 25.339844 32.898438 24.945312 32.871094 24.375 32.8125 C 23.804688 32.242188 23.9375 31.585938 23.929688 30.820312 C 23.929688 30.660156 23.925781 30.5 23.925781 30.335938 C 23.921875 29.996094 23.921875 29.65625 23.917969 29.316406 C 23.917969 28.796875 23.90625 28.273438 23.898438 27.757812 C 23.898438 27.425781 23.898438 27.097656 23.894531 26.765625 C 23.890625 26.609375 23.886719 26.453125 23.882812 26.292969 C 23.886719 25.855469 23.886719 25.855469 24 25.125 C 25.199219 24.101562 27.128906 24.398438 28.515625 24.925781 Z M 26.0625 26.8125 C 26.0625 27.429688 26.0625 28.050781 26.0625 28.6875 C 26.59375 28.75 26.59375 28.75 27.1875 28.6875 C 27.632812 28.335938 27.632812 28.335938 27.9375 27.9375 C 27.734375 27.328125 27.734375 27.328125 27.375 26.8125 C 26.9375 26.804688 26.5 26.804688 26.0625 26.8125 Z M 26.0625 26.8125 "/>
<path style=" stroke:none;fill-rule:nonzero;fill:rgb(21.176471%,27.450982%,30.588236%);fill-opacity:1;" d="M 32.390625 24.703125 C 32.8125 24.9375 32.8125 24.9375 33 25.125 C 33.019531 25.660156 33.03125 26.195312 33.03125 26.730469 C 33.03125 26.890625 33.03125 27.050781 33.035156 27.21875 C 33.035156 27.558594 33.035156 27.902344 33.035156 28.242188 C 33.035156 28.765625 33.039062 29.292969 33.042969 29.8125 C 33.042969 30.144531 33.042969 30.476562 33.042969 30.808594 C 33.046875 30.964844 33.046875 31.125 33.046875 31.285156 C 33.042969 32.394531 33.042969 32.394531 32.625 32.8125 C 31.636719 32.917969 31.636719 32.917969 31.1875 32.574219 C 30.753906 32.015625 30.847656 31.332031 30.847656 30.65625 C 30.847656 30.5 30.847656 30.34375 30.84375 30.183594 C 30.84375 29.855469 30.84375 29.523438 30.84375 29.195312 C 30.84375 28.6875 30.835938 28.183594 30.828125 27.679688 C 30.828125 27.359375 30.828125 27.039062 30.828125 26.71875 C 30.824219 26.566406 30.820312 26.417969 30.816406 26.261719 C 30.820312 25.832031 30.820312 25.832031 30.9375 25.125 C 31.484375 24.644531 31.679688 24.507812 32.390625 24.703125 Z M 32.390625 24.703125 "/>
<path style=" stroke:none;fill-rule:nonzero;fill:rgb(33.725491%,62.352943%,83.529413%);fill-opacity:1;" d="M 27.9375 35.4375 C 27.9375 36.738281 27.9375 38.035156 27.9375 39.375 C 25.273438 39.5 25.273438 39.5 24.597656 39.011719 C 24.066406 38.269531 23.871094 37.664062 24 36.75 C 24.886719 35.085938 26.265625 35.421875 27.9375 35.4375 Z M 27.9375 35.4375 "/>
<path style=" stroke:none;fill-rule:nonzero;fill:rgb(89.411765%,91.764706%,93.333334%);fill-opacity:1;" d="M 18.363281 17.753906 C 18.9375 17.8125 18.9375 17.8125 19.300781 18.023438 C 19.5 18.375 19.5 18.375 19.476562 18.949219 C 19.3125 19.5 19.3125 19.5 18.75 19.875 C 18.164062 19.828125 18.164062 19.828125 17.625 19.6875 C 17.367188 19.167969 17.402344 18.761719 17.4375 18.1875 C 17.8125 17.8125 17.8125 17.8125 18.363281 17.753906 Z M 18.363281 17.753906 "/>
<path style=" stroke:none;fill-rule:nonzero;fill:rgb(89.803922%,91.764706%,93.333334%);fill-opacity:1;" d="M 14.25 17.765625 C 14.8125 17.8125 14.8125 17.8125 15.1875 18.1875 C 15.25 18.777344 15.285156 19.15625 14.964844 19.664062 C 14.496094 19.953125 14.226562 19.96875 13.6875 19.875 C 13.335938 19.558594 13.335938 19.558594 13.125 19.125 C 13.183594 18.277344 13.347656 17.839844 14.25 17.765625 Z M 14.25 17.765625 "/>
<path style=" stroke:none;fill-rule:nonzero;fill:rgb(90.980393%,92.54902%,93.725491%);fill-opacity:1;" d="M 22.125 17.8125 C 22.804688 17.882812 22.804688 17.882812 23.4375 18 C 23.5 18.433594 23.5625 18.867188 23.625 19.3125 C 23.308594 19.605469 23.308594 19.605469 22.875 19.875 C 22.382812 19.851562 22.382812 19.851562 21.9375 19.6875 C 21.5625 19.125 21.5625 19.125 21.609375 18.644531 C 21.75 18.1875 21.75 18.1875 22.125 17.8125 Z M 22.125 17.8125 "/>
</g>
</svg>
