<?xml version="1.0" encoding="UTF-8"?>
<svg xmlns="http://www.w3.org/2000/svg" xmlns:xlink="http://www.w3.org/1999/xlink" width="48" height="48" viewBox="0 0 48 48" version="1.1">
<g id="surface1">
<path style=" stroke:none;fill-rule:nonzero;fill:rgb(0%,0%,0%);fill-opacity:1;" d="M 20.671875 16.160156 C 22.167969 17.691406 23.8125 19.699219 23.8125 21.9375 C 24.046875 21.933594 24.28125 21.933594 24.523438 21.929688 C 26.734375 21.914062 28.949219 21.898438 31.164062 21.886719 C 32.296875 21.882812 33.4375 21.878906 34.574219 21.867188 C 35.671875 21.855469 36.769531 21.851562 37.867188 21.847656 C 38.285156 21.847656 38.707031 21.84375 39.125 21.835938 C 39.710938 21.832031 40.296875 21.832031 40.882812 21.832031 C 41.058594 21.828125 41.230469 21.824219 41.40625 21.820312 C 42.226562 21.828125 42.769531 21.867188 43.417969 22.390625 C 44.039062 23.050781 44.136719 23.441406 44.128906 24.355469 C 44.011719 25.054688 43.625 25.390625 43.125 25.875 C 42.625 26.125 42.246094 26.085938 41.6875 26.082031 C 41.371094 26.082031 41.371094 26.082031 41.050781 26.078125 C 40.828125 26.078125 40.609375 26.074219 40.382812 26.074219 C 40.160156 26.074219 39.9375 26.074219 39.710938 26.070312 C 39.160156 26.070312 38.613281 26.066406 38.0625 26.0625 C 38.066406 26.199219 38.070312 26.332031 38.078125 26.472656 C 38.097656 27.09375 38.109375 27.714844 38.121094 28.335938 C 38.132812 28.65625 38.132812 28.65625 38.144531 28.984375 C 38.171875 30.765625 38.171875 30.765625 37.613281 31.449219 C 36.945312 32.03125 36.539062 32.136719 35.644531 32.128906 C 34.945312 32.011719 34.613281 31.625 34.125 31.125 C 33.875 30.625 33.917969 30.246094 33.917969 29.6875 C 33.921875 29.476562 33.921875 29.269531 33.921875 29.050781 C 33.921875 28.828125 33.925781 28.609375 33.925781 28.382812 C 33.925781 28.160156 33.929688 27.9375 33.929688 27.710938 C 33.929688 27.160156 33.933594 26.613281 33.9375 26.0625 C 33.320312 26.0625 32.699219 26.0625 32.0625 26.0625 C 32.066406 26.199219 32.070312 26.332031 32.078125 26.472656 C 32.097656 27.09375 32.109375 27.714844 32.121094 28.335938 C 32.132812 28.65625 32.132812 28.65625 32.144531 28.984375 C 32.171875 30.765625 32.171875 30.765625 31.613281 31.449219 C 30.945312 32.03125 30.539062 32.136719 29.644531 32.128906 C 28.945312 32.011719 28.613281 31.625 28.125 31.125 C 27.875 30.625 27.917969 30.246094 27.917969 29.6875 C 27.921875 29.375 27.921875 29.375 27.921875 29.050781 C 27.921875 28.722656 27.921875 28.722656 27.925781 28.382812 C 27.925781 28.160156 27.929688 27.9375 27.929688 27.710938 C 27.929688 27.160156 27.933594 26.613281 27.9375 26.0625 C 26.578125 26.0625 25.214844 26.0625 23.8125 26.0625 C 23.75 26.496094 23.6875 26.929688 23.625 27.375 C 22.542969 30.15625 20.765625 32.054688 18.082031 33.351562 C 15.410156 34.476562 12.640625 34.347656 9.9375 33.375 C 7.464844 32.269531 5.691406 30.445312 4.644531 27.957031 C 3.632812 25.261719 3.582031 22.382812 4.730469 19.71875 C 5.972656 17.25 7.988281 15.34375 10.59375 14.394531 C 14.269531 13.25 17.523438 14.039062 20.671875 16.160156 Z M 20.671875 16.160156 "/>
<path style=" stroke:none;fill-rule:nonzero;fill:rgb(96.862745%,6.666667%,15.294118%);fill-opacity:1;" d="M 17.4375 18.9375 C 18.78125 19.945312 19.734375 21.402344 20.0625 23.0625 C 20.222656 24.640625 19.910156 26.121094 18.984375 27.421875 C 17.796875 28.867188 16.496094 29.84375 14.589844 30.070312 C 12.769531 30.136719 11.410156 29.734375 9.984375 28.59375 C 8.652344 27.304688 7.960938 25.863281 7.921875 24 C 7.960938 22.136719 8.652344 20.695312 9.984375 19.40625 C 12.246094 17.597656 14.941406 17.46875 17.4375 18.9375 Z M 17.4375 18.9375 "/>
</g>
</svg>
