<?xml version="1.0" encoding="UTF-8"?>
<svg xmlns="http://www.w3.org/2000/svg" xmlns:xlink="http://www.w3.org/1999/xlink" width="48" height="48" viewBox="0 0 48 48" version="1.1">
<g id="surface1">
<path style=" stroke:none;fill-rule:nonzero;fill:rgb(98.823529%,27.450982%,32.941177%);fill-opacity:1;" d="M 6.867188 1.28125 C 7.054688 1.277344 7.054688 1.277344 7.242188 1.277344 C 7.648438 1.273438 8.054688 1.269531 8.460938 1.269531 C 8.601562 1.265625 8.742188 1.265625 8.886719 1.265625 C 9.625 1.261719 10.367188 1.257812 11.105469 1.257812 C 11.867188 1.253906 12.625 1.25 13.386719 1.242188 C 13.972656 1.234375 14.5625 1.234375 15.152344 1.234375 C 15.429688 1.234375 15.710938 1.230469 15.992188 1.226562 C 17.863281 1.207031 19.324219 1.402344 20.953125 2.367188 C 22.101562 3.578125 22.707031 4.867188 22.722656 6.527344 C 22.722656 6.65625 22.722656 6.785156 22.726562 6.917969 C 22.730469 7.34375 22.730469 7.773438 22.730469 8.199219 C 22.730469 8.34375 22.734375 8.492188 22.734375 8.640625 C 22.738281 9.417969 22.742188 10.191406 22.742188 10.96875 C 22.746094 11.765625 22.75 12.5625 22.757812 13.359375 C 22.765625 13.976562 22.765625 14.59375 22.765625 15.207031 C 22.765625 15.5 22.769531 15.796875 22.773438 16.089844 C 22.796875 18.195312 22.609375 19.851562 21.136719 21.46875 C 20.074219 22.398438 18.855469 22.707031 17.476562 22.722656 C 17.347656 22.726562 17.21875 22.726562 17.085938 22.726562 C 16.660156 22.734375 16.234375 22.738281 15.808594 22.738281 C 15.660156 22.742188 15.515625 22.742188 15.367188 22.742188 C 14.589844 22.746094 13.816406 22.75 13.042969 22.753906 C 12.40625 22.753906 11.765625 22.761719 11.128906 22.769531 C 10.355469 22.777344 9.582031 22.78125 8.808594 22.785156 C 8.519531 22.785156 8.222656 22.789062 7.929688 22.792969 C 5.851562 22.824219 4.265625 22.582031 2.648438 21.164062 C 1.191406 19.5625 1.203125 17.488281 1.21875 15.441406 C 1.21875 15.164062 1.21875 14.886719 1.21875 14.605469 C 1.21875 14.027344 1.21875 13.445312 1.222656 12.863281 C 1.230469 12.125 1.230469 11.382812 1.226562 10.644531 C 1.226562 10.070312 1.226562 9.496094 1.230469 8.921875 C 1.230469 8.648438 1.230469 8.375 1.230469 8.101562 C 1.226562 5.882812 1.398438 4.269531 2.964844 2.617188 C 4.125 1.582031 5.34375 1.292969 6.867188 1.28125 Z M 6.867188 1.28125 "/>
<path style=" stroke:none;fill-rule:nonzero;fill:rgb(99.607843%,69.411767%,15.686275%);fill-opacity:1;" d="M 30.585938 25.253906 C 30.714844 25.253906 30.84375 25.25 30.976562 25.25 C 31.402344 25.246094 31.824219 25.242188 32.246094 25.242188 C 32.542969 25.242188 32.839844 25.238281 33.136719 25.238281 C 33.757812 25.234375 34.378906 25.234375 35 25.234375 C 35.789062 25.234375 36.582031 25.226562 37.371094 25.214844 C 37.984375 25.210938 38.597656 25.210938 39.210938 25.207031 C 39.503906 25.207031 39.796875 25.207031 40.085938 25.203125 C 42.074219 25.175781 43.566406 25.378906 45.152344 26.683594 C 46.230469 28.007812 46.707031 28.984375 46.722656 30.699219 C 46.722656 30.824219 46.722656 30.953125 46.726562 31.082031 C 46.726562 31.496094 46.730469 31.910156 46.734375 32.320312 C 46.734375 32.464844 46.734375 32.605469 46.734375 32.753906 C 46.738281 33.503906 46.742188 34.257812 46.742188 35.007812 C 46.742188 35.78125 46.75 36.554688 46.757812 37.328125 C 46.761719 37.925781 46.765625 38.523438 46.765625 39.121094 C 46.765625 39.40625 46.769531 39.691406 46.773438 39.976562 C 46.796875 42.191406 46.523438 43.769531 44.988281 45.425781 C 43.855469 46.4375 42.613281 46.707031 41.132812 46.71875 C 41.007812 46.722656 40.882812 46.722656 40.757812 46.722656 C 40.351562 46.726562 39.945312 46.730469 39.539062 46.730469 C 39.398438 46.734375 39.257812 46.734375 39.113281 46.734375 C 38.375 46.738281 37.632812 46.742188 36.894531 46.742188 C 36.132812 46.746094 35.375 46.75 34.613281 46.757812 C 34.027344 46.761719 33.4375 46.765625 32.847656 46.765625 C 32.570312 46.765625 32.289062 46.769531 32.007812 46.773438 C 30.175781 46.792969 28.617188 46.679688 27.078125 45.59375 C 26.914062 45.421875 26.914062 45.421875 26.742188 45.246094 C 26.628906 45.132812 26.515625 45.019531 26.398438 44.902344 C 25.226562 43.273438 25.195312 41.65625 25.199219 39.710938 C 25.199219 39.417969 25.195312 39.121094 25.195312 38.828125 C 25.191406 38.210938 25.191406 37.59375 25.195312 36.976562 C 25.195312 36.195312 25.1875 35.410156 25.179688 34.628906 C 25.175781 34.019531 25.175781 33.410156 25.175781 32.800781 C 25.175781 32.511719 25.175781 32.222656 25.171875 31.9375 C 25.148438 30.089844 25.335938 28.5625 26.4375 27 C 27.675781 25.773438 28.832031 25.269531 30.585938 25.253906 Z M 30.585938 25.253906 "/>
<path style=" stroke:none;fill-rule:nonzero;fill:rgb(0%,89.019608%,60.000002%);fill-opacity:1;" d="M 41.554688 3.984375 C 43.601562 5.492188 45.078125 7.609375 45.5625 10.125 C 45.882812 13.367188 45.261719 15.960938 43.253906 18.5625 C 41.601562 20.503906 39.234375 21.480469 36.75 21.726562 C 33.820312 21.859375 31.484375 20.996094 29.25 19.125 C 27.304688 17.335938 26.410156 14.863281 26.257812 12.269531 C 26.21875 9.566406 27.234375 7.054688 29.0625 5.0625 C 32.621094 1.953125 37.535156 1.410156 41.554688 3.984375 Z M 41.554688 3.984375 "/>
<path style=" stroke:none;fill-rule:nonzero;fill:rgb(37.254903%,71.372551%,99.607843%);fill-opacity:1;" d="M 13.933594 26.507812 C 15.425781 27.425781 16.253906 29.378906 17.074219 30.867188 C 17.285156 31.246094 17.496094 31.625 17.710938 32.003906 C 17.871094 32.296875 17.871094 32.296875 18.039062 32.59375 C 18.597656 33.582031 19.171875 34.5625 19.746094 35.542969 C 19.964844 35.917969 20.183594 36.292969 20.402344 36.664062 C 20.503906 36.839844 20.605469 37.011719 20.710938 37.195312 C 21.109375 37.875 21.507812 38.558594 21.902344 39.246094 C 22.015625 39.445312 22.128906 39.636719 22.246094 39.839844 C 22.820312 40.902344 22.769531 41.945312 22.6875 43.125 C 22.367188 44.140625 21.683594 44.785156 20.8125 45.375 C 20 45.785156 19.238281 45.804688 18.347656 45.804688 C 18.121094 45.808594 18.121094 45.808594 17.886719 45.808594 C 17.390625 45.8125 16.890625 45.8125 16.390625 45.8125 C 16.042969 45.816406 15.695312 45.816406 15.34375 45.816406 C 14.617188 45.820312 13.886719 45.820312 13.15625 45.820312 C 12.226562 45.820312 11.292969 45.824219 10.359375 45.832031 C 9.640625 45.835938 8.921875 45.835938 8.203125 45.835938 C 7.859375 45.835938 7.515625 45.835938 7.171875 45.839844 C 6.691406 45.84375 6.207031 45.84375 5.726562 45.839844 C 5.585938 45.84375 5.445312 45.84375 5.300781 45.847656 C 4.105469 45.832031 3.097656 45.46875 2.238281 44.617188 C 2.113281 44.429688 2.113281 44.429688 1.980469 44.238281 C 1.847656 44.050781 1.847656 44.050781 1.710938 43.855469 C 1.183594 42.960938 1.140625 42.066406 1.3125 41.0625 C 2.046875 39.210938 3.121094 37.5 4.140625 35.792969 C 4.6875 34.878906 5.214844 33.960938 5.746094 33.035156 C 6.226562 32.203125 6.707031 31.371094 7.1875 30.539062 C 7.375 30.210938 7.5625 29.886719 7.75 29.5625 C 9.128906 27.164062 10.945312 25.257812 13.933594 26.507812 Z M 13.933594 26.507812 "/>
<path style=" stroke:none;fill-rule:nonzero;fill:rgb(89.803922%,25.098041%,30.19608%);fill-opacity:1;" d="M 6.933594 1.257812 C 7.054688 1.257812 7.179688 1.257812 7.304688 1.253906 C 7.710938 1.25 8.113281 1.25 8.519531 1.25 C 8.800781 1.25 9.085938 1.246094 9.367188 1.246094 C 9.960938 1.242188 10.554688 1.242188 11.148438 1.242188 C 11.90625 1.242188 12.660156 1.238281 13.414062 1.230469 C 14.003906 1.226562 14.585938 1.226562 15.171875 1.226562 C 15.453125 1.226562 15.730469 1.222656 16.007812 1.222656 C 17.875 1.203125 19.328125 1.40625 20.953125 2.367188 C 22.101562 3.578125 22.707031 4.867188 22.722656 6.527344 C 22.722656 6.65625 22.722656 6.785156 22.726562 6.917969 C 22.730469 7.34375 22.730469 7.773438 22.734375 8.199219 C 22.734375 8.34375 22.734375 8.492188 22.734375 8.640625 C 22.738281 9.417969 22.742188 10.191406 22.742188 10.964844 C 22.746094 11.765625 22.75 12.5625 22.757812 13.359375 C 22.765625 13.976562 22.765625 14.589844 22.765625 15.207031 C 22.765625 15.5 22.769531 15.792969 22.773438 16.089844 C 22.796875 18.230469 22.597656 19.847656 21.097656 21.480469 C 20.71875 21.839844 20.355469 22.105469 19.875 22.3125 C 19.597656 22.21875 19.597656 22.21875 19.3125 22.125 C 19.390625 21.972656 19.390625 21.972656 19.46875 21.816406 C 19.539062 21.683594 19.605469 21.550781 19.675781 21.410156 C 19.742188 21.277344 19.8125 21.144531 19.878906 21.007812 C 20.238281 20.257812 20.277344 19.660156 20.285156 18.839844 C 20.285156 18.714844 20.285156 18.589844 20.289062 18.464844 C 20.292969 18.054688 20.292969 17.644531 20.296875 17.238281 C 20.296875 17.097656 20.296875 16.957031 20.296875 16.8125 C 20.300781 16.070312 20.304688 15.328125 20.304688 14.585938 C 20.308594 13.824219 20.3125 13.058594 20.320312 12.292969 C 20.328125 11.707031 20.328125 11.113281 20.328125 10.527344 C 20.328125 10.246094 20.332031 9.964844 20.335938 9.683594 C 20.359375 7.453125 20.070312 5.910156 18.523438 4.25 C 17.464844 3.269531 16.261719 3.164062 14.878906 3.164062 C 14.761719 3.164062 14.636719 3.164062 14.511719 3.164062 C 14.113281 3.160156 13.71875 3.160156 13.316406 3.164062 C 13.039062 3.164062 12.761719 3.164062 12.484375 3.160156 C 11.902344 3.160156 11.320312 3.164062 10.738281 3.164062 C 9.992188 3.164062 9.25 3.164062 8.503906 3.164062 C 7.929688 3.160156 7.359375 3.160156 6.785156 3.164062 C 6.507812 3.164062 6.234375 3.164062 5.957031 3.160156 C 5.578125 3.160156 5.191406 3.164062 4.808594 3.164062 C 4.589844 3.164062 4.371094 3.164062 4.144531 3.164062 C 3.617188 3.183594 3.140625 3.253906 2.625 3.375 C 2.902344 2.539062 3.5625 2.089844 4.3125 1.6875 C 5.207031 1.394531 5.992188 1.261719 6.933594 1.257812 Z M 6.933594 1.257812 "/>
<path style=" stroke:none;fill-rule:nonzero;fill:rgb(90.588236%,62.7451%,14.509805%);fill-opacity:1;" d="M 30.523438 25.277344 C 30.652344 25.273438 30.78125 25.273438 30.914062 25.273438 C 31.339844 25.265625 31.765625 25.261719 32.191406 25.261719 C 32.339844 25.257812 32.484375 25.257812 32.632812 25.257812 C 33.410156 25.253906 34.183594 25.25 34.957031 25.246094 C 35.59375 25.246094 36.234375 25.238281 36.871094 25.230469 C 37.644531 25.222656 38.417969 25.21875 39.191406 25.214844 C 39.480469 25.214844 39.777344 25.210938 40.070312 25.207031 C 42.0625 25.179688 43.558594 25.375 45.152344 26.683594 C 46.230469 28.007812 46.707031 28.984375 46.722656 30.699219 C 46.722656 30.828125 46.722656 30.953125 46.726562 31.082031 C 46.730469 31.492188 46.730469 31.910156 46.734375 32.324219 C 46.734375 32.464844 46.734375 32.605469 46.734375 32.753906 C 46.738281 33.503906 46.742188 34.257812 46.742188 35.007812 C 46.742188 35.78125 46.75 36.554688 46.757812 37.328125 C 46.765625 37.925781 46.765625 38.523438 46.765625 39.121094 C 46.765625 39.40625 46.769531 39.691406 46.773438 39.976562 C 46.796875 42.230469 46.507812 43.761719 44.953125 45.4375 C 44.464844 45.90625 44.007812 46.3125 43.3125 46.3125 C 43.363281 46.191406 43.414062 46.070312 43.464844 45.949219 C 43.539062 45.757812 43.609375 45.570312 43.6875 45.375 C 43.734375 45.269531 43.78125 45.160156 43.832031 45.046875 C 44.363281 43.683594 44.335938 42.328125 44.332031 40.882812 C 44.332031 40.613281 44.332031 40.339844 44.335938 40.070312 C 44.335938 39.503906 44.335938 38.941406 44.332031 38.375 C 44.332031 37.65625 44.335938 36.9375 44.339844 36.21875 C 44.34375 35.660156 44.34375 35.101562 44.34375 34.546875 C 44.34375 34.28125 44.34375 34.015625 44.347656 33.75 C 44.363281 31.605469 44.09375 29.847656 42.5625 28.253906 C 41.003906 26.945312 39.050781 27.085938 37.132812 27.113281 C 36.832031 27.117188 36.527344 27.117188 36.222656 27.117188 C 35.429688 27.121094 34.632812 27.128906 33.839844 27.136719 C 33.023438 27.144531 32.210938 27.148438 31.398438 27.152344 C 29.808594 27.160156 28.21875 27.171875 26.625 27.1875 C 26.929688 26.515625 27.171875 26.277344 27.832031 25.933594 C 27.980469 25.855469 28.125 25.777344 28.277344 25.695312 C 29.054688 25.324219 29.667969 25.285156 30.523438 25.277344 Z M 30.523438 25.277344 "/>
<path style=" stroke:none;fill-rule:nonzero;fill:rgb(33.725491%,64.705884%,90.588236%);fill-opacity:1;" d="M 13.933594 26.507812 C 15.425781 27.425781 16.253906 29.378906 17.074219 30.867188 C 17.285156 31.246094 17.496094 31.625 17.710938 32.003906 C 17.820312 32.199219 17.925781 32.394531 18.039062 32.59375 C 18.597656 33.582031 19.171875 34.5625 19.746094 35.542969 C 19.964844 35.917969 20.183594 36.292969 20.402344 36.664062 C 20.503906 36.839844 20.605469 37.011719 20.710938 37.195312 C 21.109375 37.875 21.507812 38.558594 21.902344 39.246094 C 22.015625 39.445312 22.128906 39.636719 22.246094 39.839844 C 22.820312 40.902344 22.769531 41.945312 22.6875 43.125 C 22.367188 44.144531 21.6875 44.789062 20.8125 45.375 C 20.261719 45.539062 20.261719 45.539062 19.875 45.5625 C 19.9375 45.40625 20 45.253906 20.0625 45.09375 C 20.554688 43.367188 20.054688 42.105469 19.238281 40.570312 C 18.9375 40.042969 18.628906 39.519531 18.316406 39 C 18.082031 38.601562 17.847656 38.207031 17.613281 37.8125 C 17.433594 37.507812 17.433594 37.507812 17.246094 37.195312 C 16.746094 36.34375 16.253906 35.488281 15.761719 34.628906 C 15.199219 33.648438 14.632812 32.667969 14.0625 31.6875 C 13.980469 31.542969 13.894531 31.398438 13.8125 31.25 C 12.726562 29.285156 12.726562 29.285156 10.875 28.125 C 10.519531 28.082031 10.164062 28.050781 9.808594 28.019531 C 9.621094 28.003906 9.433594 27.988281 9.246094 27.972656 C 9.101562 27.960938 8.960938 27.949219 8.8125 27.9375 C 8.976562 27.726562 9.148438 27.515625 9.316406 27.304688 C 9.410156 27.1875 9.503906 27.070312 9.601562 26.949219 C 10.679688 25.914062 12.617188 25.960938 13.933594 26.507812 Z M 13.933594 26.507812 "/>
<path style=" stroke:none;fill-rule:nonzero;fill:rgb(0%,80.784315%,54.509807%);fill-opacity:1;" d="M 41.097656 3.691406 C 43.222656 5.050781 44.691406 7.039062 45.433594 9.449219 C 45.996094 12.375 45.582031 15.078125 43.964844 17.59375 C 43.109375 18.847656 42.136719 19.609375 40.875 20.4375 C 40.6875 20.34375 40.6875 20.34375 40.5 20.25 C 40.582031 20.152344 40.667969 20.054688 40.753906 19.953125 C 42.667969 17.621094 43.367188 15.179688 43.125 12.1875 C 42.601562 9.632812 41.355469 7.328125 39.199219 5.796875 C 37.464844 4.746094 35.953125 4.214844 33.925781 4.253906 C 33.765625 4.253906 33.609375 4.253906 33.445312 4.253906 C 32.015625 4.261719 30.785156 4.589844 29.4375 5.0625 C 29.996094 4.253906 30.59375 3.84375 31.464844 3.433594 C 31.6875 3.324219 31.910156 3.214844 32.136719 3.101562 C 35.078125 1.835938 38.328125 2.171875 41.097656 3.691406 Z M 41.097656 3.691406 "/>
</g>
</svg>
