<?xml version="1.0" encoding="UTF-8"?>
<svg xmlns="http://www.w3.org/2000/svg" xmlns:xlink="http://www.w3.org/1999/xlink" width="48" height="48" viewBox="0 0 48 48" version="1.1">
<g id="surface1">
<path style=" stroke:none;fill-rule:nonzero;fill:rgb(4.313726%,41.176471%,75.686276%);fill-opacity:1;" d="M 21.015625 1.230469 C 21.253906 1.230469 21.488281 1.230469 21.730469 1.226562 C 22.230469 1.226562 22.726562 1.226562 23.226562 1.230469 C 23.859375 1.230469 24.496094 1.226562 25.128906 1.222656 C 25.738281 1.21875 26.347656 1.21875 26.957031 1.21875 C 27.183594 1.21875 27.410156 1.214844 27.644531 1.210938 C 29.085938 1.226562 30.183594 1.363281 31.28125 2.382812 C 31.351562 2.484375 31.417969 2.589844 31.488281 2.695312 C 31.59375 2.847656 31.59375 2.847656 31.703125 3.003906 C 32.25 4.191406 32.097656 5.636719 32.097656 6.914062 C 32.101562 7.128906 32.101562 7.34375 32.105469 7.566406 C 32.109375 9.011719 32.097656 10.257812 31.277344 11.496094 C 30.21875 12.507812 29.269531 12.625 27.855469 12.613281 C 27.667969 12.605469 27.484375 12.601562 27.292969 12.597656 C 27.101562 12.59375 26.910156 12.59375 26.714844 12.589844 C 26.25 12.582031 25.78125 12.574219 25.3125 12.5625 C 25.3125 13.738281 25.3125 14.914062 25.3125 16.125 C 25.871094 16.125 26.425781 16.125 27 16.125 C 27.882812 16.339844 28.523438 16.804688 29.0625 17.53125 C 29.4375 18.375 29.4375 18.375 29.4375 20.625 C 31.355469 20.625 33.273438 20.625 35.25 20.625 C 35.25 19.945312 35.25 19.261719 35.25 18.5625 C 35.574219 17.554688 36.25 16.890625 37.125 16.3125 C 38.144531 15.972656 39.269531 16.074219 40.332031 16.070312 C 40.597656 16.066406 40.867188 16.0625 41.132812 16.058594 C 42.648438 16.027344 43.894531 16.003906 45.1875 16.875 C 46.363281 18.050781 46.363281 19.382812 46.371094 20.960938 C 46.371094 21.085938 46.371094 21.214844 46.371094 21.34375 C 46.371094 21.726562 46.375 22.105469 46.378906 22.484375 C 46.382812 25.304688 46.382812 25.304688 45.425781 26.449219 C 45.316406 26.535156 45.207031 26.617188 45.09375 26.707031 C 44.984375 26.796875 44.871094 26.886719 44.761719 26.976562 C 44.230469 27.324219 43.738281 27.402344 43.125 27.433594 C 42.910156 27.445312 42.910156 27.445312 42.691406 27.457031 C 42.546875 27.464844 42.398438 27.472656 42.246094 27.480469 C 42.097656 27.488281 41.949219 27.496094 41.792969 27.503906 C 41.425781 27.523438 41.058594 27.542969 40.6875 27.5625 C 40.269531 28.472656 39.851562 29.382812 39.4375 30.292969 C 39.292969 30.601562 39.152344 30.914062 39.011719 31.222656 C 38.808594 31.667969 38.601562 32.113281 38.398438 32.5625 C 38.335938 32.699219 38.273438 32.835938 38.207031 32.976562 C 37.835938 33.792969 37.476562 34.613281 37.125 35.4375 C 37.3125 35.441406 37.496094 35.445312 37.6875 35.449219 C 38.652344 35.585938 39.320312 36.21875 39.9375 36.9375 C 40.335938 37.722656 40.371094 38.457031 40.367188 39.320312 C 40.371094 39.457031 40.371094 39.597656 40.371094 39.738281 C 40.371094 40.027344 40.371094 40.316406 40.371094 40.609375 C 40.371094 41.046875 40.375 41.488281 40.378906 41.929688 C 40.378906 42.214844 40.378906 42.496094 40.378906 42.78125 C 40.382812 42.910156 40.382812 43.039062 40.386719 43.175781 C 40.375 44.203125 40.128906 44.964844 39.425781 45.726562 C 39.316406 45.816406 39.207031 45.902344 39.09375 45.996094 C 38.984375 46.089844 38.871094 46.179688 38.761719 46.273438 C 37.792969 46.949219 36.480469 46.738281 35.351562 46.742188 C 35.074219 46.746094 34.796875 46.75 34.519531 46.753906 C 31.660156 46.8125 31.660156 46.8125 30.375 45.9375 C 29.75 45.3125 29.453125 44.734375 29.25 43.875 C 29.25 43.378906 29.25 42.882812 29.25 42.375 C 25.785156 42.375 22.320312 42.375 18.75 42.375 C 18.75 42.871094 18.75 43.363281 18.75 43.875 C 18.59375 44.707031 18.289062 45.351562 17.648438 45.914062 C 16.332031 46.8125 15.09375 46.75 13.550781 46.746094 C 13.136719 46.746094 12.726562 46.75 12.3125 46.753906 C 12.046875 46.757812 11.78125 46.757812 11.515625 46.757812 C 11.273438 46.757812 11.035156 46.757812 10.789062 46.757812 C 9.761719 46.648438 9.027344 46.265625 8.378906 45.46875 C 8.289062 45.359375 8.195312 45.25 8.101562 45.132812 C 7.601562 44.421875 7.652344 43.671875 7.648438 42.839844 C 7.648438 42.703125 7.648438 42.5625 7.644531 42.421875 C 7.644531 42.128906 7.640625 41.839844 7.640625 41.546875 C 7.640625 41.101562 7.636719 40.65625 7.628906 40.210938 C 7.628906 39.925781 7.628906 39.644531 7.625 39.359375 C 7.625 39.226562 7.621094 39.09375 7.617188 38.960938 C 7.625 37.933594 7.875 37.191406 8.539062 36.40625 C 8.640625 36.320312 8.742188 36.230469 8.847656 36.140625 C 8.949219 36.050781 9.046875 35.960938 9.148438 35.867188 C 9.753906 35.511719 10.378906 35.414062 11.0625 35.25 C 10.972656 35.023438 10.878906 34.800781 10.785156 34.566406 C 10.453125 33.734375 10.117188 32.898438 9.78125 32.066406 C 9.636719 31.707031 9.488281 31.34375 9.34375 30.980469 C 9.136719 30.464844 8.925781 29.945312 8.71875 29.425781 C 8.652344 29.265625 8.585938 29.101562 8.519531 28.9375 C 8.460938 28.785156 8.398438 28.636719 8.339844 28.480469 C 8.285156 28.347656 8.230469 28.214844 8.175781 28.078125 C 8.0625 27.75 8.0625 27.75 8.0625 27.375 C 7.949219 27.378906 7.835938 27.382812 7.722656 27.386719 C 7.207031 27.402344 6.691406 27.410156 6.175781 27.421875 C 6 27.429688 5.820312 27.433594 5.640625 27.441406 C 4.457031 27.457031 3.777344 27.320312 2.8125 26.625 C 1.554688 25.335938 1.621094 23.859375 1.628906 22.15625 C 1.628906 21.777344 1.625 21.394531 1.621094 21.015625 C 1.617188 18.144531 1.617188 18.144531 2.503906 17.15625 C 3.800781 15.992188 5.152344 16.0625 6.796875 16.066406 C 7.191406 16.066406 7.59375 16.0625 7.988281 16.058594 C 8.246094 16.058594 8.5 16.058594 8.757812 16.058594 C 8.988281 16.058594 9.21875 16.054688 9.457031 16.054688 C 10.359375 16.152344 11.109375 16.398438 11.804688 17.007812 C 11.894531 17.121094 11.980469 17.230469 12.070312 17.34375 C 12.160156 17.453125 12.25 17.5625 12.34375 17.675781 C 12.996094 18.640625 12.75 19.339844 12.75 20.625 C 14.667969 20.625 16.585938 20.625 18.5625 20.625 C 18.5625 19.882812 18.5625 19.140625 18.5625 18.375 C 19.039062 17.300781 19.5 16.761719 20.539062 16.238281 C 21 16.125 21 16.125 22.6875 16.125 C 22.6875 14.949219 22.6875 13.773438 22.6875 12.5625 C 22.265625 12.574219 22.265625 12.574219 21.839844 12.589844 C 21.464844 12.59375 21.09375 12.601562 20.71875 12.609375 C 20.441406 12.617188 20.441406 12.617188 20.160156 12.628906 C 18.710938 12.648438 17.683594 12.402344 16.617188 11.390625 C 15.800781 10.011719 15.878906 8.492188 15.890625 6.9375 C 15.890625 6.617188 15.890625 6.617188 15.886719 6.292969 C 15.890625 4.855469 15.910156 3.609375 16.722656 2.378906 C 18 1.15625 19.328125 1.226562 21.015625 1.230469 Z M 12.75 23.25 C 12.625 23.992188 12.503906 24.734375 12.375 25.5 C 11.539062 26.667969 11.539062 26.667969 10.875 27 C 11.347656 28.816406 12.082031 30.539062 12.785156 32.273438 C 12.910156 32.582031 13.03125 32.890625 13.15625 33.195312 C 13.457031 33.945312 13.761719 34.691406 14.0625 35.4375 C 14.203125 35.449219 14.34375 35.457031 14.484375 35.46875 C 14.667969 35.480469 14.851562 35.496094 15.042969 35.511719 C 15.222656 35.523438 15.40625 35.539062 15.59375 35.554688 C 16.632812 35.695312 17.351562 36.085938 18.070312 36.84375 C 18.375 37.5 18.375 37.5 18.75 39.75 C 22.214844 39.75 25.679688 39.75 29.25 39.75 C 29.375 39.007812 29.496094 38.265625 29.625 37.5 C 30.035156 36.617188 30.527344 36.164062 31.402344 35.777344 C 31.957031 35.597656 32.46875 35.550781 33.050781 35.511719 C 33.253906 35.496094 33.457031 35.480469 33.660156 35.46875 C 33.890625 35.453125 33.890625 35.453125 34.125 35.4375 C 34.453125 34.738281 34.78125 34.039062 35.105469 33.339844 C 35.214844 33.101562 35.324219 32.863281 35.4375 32.628906 C 36.042969 31.335938 36.636719 30.035156 37.207031 28.722656 C 37.296875 28.511719 37.390625 28.296875 37.488281 28.074219 C 37.710938 27.59375 37.710938 27.59375 37.6875 27.1875 C 37.519531 27.117188 37.355469 27.046875 37.183594 26.976562 C 36.433594 26.550781 36.089844 26.234375 35.625 25.5 C 35.4375 24.386719 35.4375 24.386719 35.25 23.25 C 33.332031 23.25 31.414062 23.25 29.4375 23.25 C 29.3125 24.054688 29.191406 24.859375 29.0625 25.6875 C 28.214844 26.75 27.667969 27.113281 26.324219 27.265625 C 24.925781 27.273438 24.925781 27.273438 24.421875 27.269531 C 24.011719 27.269531 23.605469 27.273438 23.203125 27.28125 C 21.789062 27.289062 20.6875 27.253906 19.5 26.4375 C 18.640625 25.335938 18.714844 24.761719 18.5625 23.25 C 16.644531 23.25 14.726562 23.25 12.75 23.25 Z M 12.75 23.25 "/>
<path style=" stroke:none;fill-rule:nonzero;fill:rgb(82.745099%,12.54902%,19.607843%);fill-opacity:1;" d="M 40.332031 16.070312 C 40.597656 16.066406 40.863281 16.0625 41.132812 16.058594 C 42.648438 16.027344 43.894531 16.003906 45.1875 16.875 C 46.363281 18.054688 46.363281 19.382812 46.375 20.964844 C 46.371094 21.089844 46.371094 21.214844 46.371094 21.34375 C 46.371094 21.726562 46.375 22.105469 46.378906 22.484375 C 46.382812 25.304688 46.382812 25.304688 45.425781 26.449219 C 45.316406 26.535156 45.207031 26.617188 45.09375 26.707031 C 44.984375 26.796875 44.875 26.882812 44.757812 26.976562 C 44.230469 27.324219 43.742188 27.402344 43.121094 27.433594 C 42.980469 27.441406 42.839844 27.449219 42.691406 27.457031 C 42.546875 27.464844 42.398438 27.472656 42.246094 27.480469 C 42.023438 27.492188 42.023438 27.492188 41.792969 27.503906 C 41.421875 27.523438 41.054688 27.542969 40.6875 27.5625 C 40.269531 28.472656 39.851562 29.382812 39.4375 30.292969 C 39.296875 30.601562 39.152344 30.914062 39.011719 31.222656 C 38.804688 31.667969 38.605469 32.113281 38.398438 32.5625 C 38.335938 32.695312 38.273438 32.835938 38.207031 32.976562 C 37.835938 33.792969 37.476562 34.613281 37.125 35.4375 C 37.308594 35.441406 37.496094 35.445312 37.6875 35.449219 C 38.652344 35.585938 39.320312 36.214844 39.9375 36.9375 C 40.335938 37.722656 40.371094 38.457031 40.367188 39.320312 C 40.371094 39.527344 40.371094 39.527344 40.371094 39.738281 C 40.371094 40.027344 40.371094 40.316406 40.371094 40.609375 C 40.371094 41.046875 40.375 41.488281 40.378906 41.929688 C 40.382812 42.210938 40.382812 42.496094 40.382812 42.777344 C 40.382812 42.910156 40.382812 43.039062 40.386719 43.175781 C 40.375 44.203125 40.128906 44.964844 39.425781 45.726562 C 39.316406 45.816406 39.207031 45.902344 39.09375 45.996094 C 38.984375 46.089844 38.875 46.179688 38.757812 46.277344 C 37.792969 46.949219 36.480469 46.738281 35.351562 46.742188 C 35.074219 46.746094 34.796875 46.75 34.519531 46.753906 C 31.660156 46.8125 31.660156 46.8125 30.375 45.9375 C 29.195312 44.761719 29.199219 43.429688 29.1875 41.847656 C 29.1875 41.722656 29.191406 41.597656 29.191406 41.46875 C 29.191406 41.085938 29.1875 40.707031 29.183594 40.328125 C 29.179688 37.457031 29.179688 37.457031 30.066406 36.46875 C 30.996094 35.632812 31.828125 35.386719 33.058594 35.414062 C 33.257812 35.417969 33.457031 35.421875 33.664062 35.421875 C 33.816406 35.429688 33.96875 35.433594 34.125 35.4375 C 34.171875 35.285156 34.21875 35.132812 34.265625 34.980469 C 34.546875 34.179688 34.886719 33.414062 35.234375 32.644531 C 35.304688 32.488281 35.375 32.332031 35.445312 32.171875 C 35.667969 31.671875 35.890625 31.175781 36.117188 30.679688 C 36.269531 30.34375 36.421875 30.003906 36.574219 29.664062 C 36.945312 28.839844 37.316406 28.011719 37.6875 27.1875 C 37.46875 27.152344 37.46875 27.152344 37.242188 27.113281 C 36.628906 26.972656 36.445312 26.753906 36.046875 26.273438 C 35.9375 26.140625 35.824219 26.011719 35.710938 25.875 C 35.175781 25.140625 35.21875 24.398438 35.210938 23.527344 C 35.210938 23.390625 35.210938 23.25 35.207031 23.109375 C 35.207031 22.816406 35.207031 22.523438 35.203125 22.234375 C 35.203125 21.789062 35.195312 21.34375 35.191406 20.898438 C 35.1875 20.617188 35.1875 20.332031 35.1875 20.046875 C 35.1875 19.914062 35.183594 19.785156 35.183594 19.648438 C 35.1875 18.613281 35.433594 17.859375 36.128906 17.085938 C 36.238281 16.996094 36.34375 16.910156 36.457031 16.816406 C 36.617188 16.679688 36.617188 16.679688 36.785156 16.535156 C 37.796875 15.867188 39.164062 16.078125 40.332031 16.070312 Z M 40.332031 16.070312 "/>
<path style=" stroke:none;fill-rule:nonzero;fill:rgb(83.137256%,12.54902%,19.607843%);fill-opacity:1;" d="M 21.015625 1.230469 C 21.371094 1.230469 21.371094 1.230469 21.730469 1.226562 C 22.230469 1.226562 22.726562 1.226562 23.226562 1.230469 C 23.859375 1.230469 24.496094 1.226562 25.128906 1.222656 C 25.738281 1.21875 26.347656 1.21875 26.957031 1.21875 C 27.183594 1.21875 27.410156 1.214844 27.644531 1.210938 C 29.085938 1.226562 30.183594 1.363281 31.28125 2.382812 C 31.382812 2.539062 31.382812 2.539062 31.488281 2.695312 C 31.558594 2.796875 31.632812 2.898438 31.703125 3.003906 C 32.25 4.191406 32.097656 5.636719 32.097656 6.914062 C 32.101562 7.128906 32.101562 7.34375 32.105469 7.566406 C 32.109375 9.011719 32.097656 10.257812 31.277344 11.496094 C 30.21875 12.507812 29.269531 12.625 27.855469 12.613281 C 27.667969 12.605469 27.484375 12.601562 27.292969 12.597656 C 27.101562 12.59375 26.910156 12.59375 26.714844 12.589844 C 26.25 12.582031 25.78125 12.574219 25.3125 12.5625 C 25.3125 13.738281 25.3125 14.914062 25.3125 16.125 C 24.445312 16.125 23.578125 16.125 22.6875 16.125 C 22.6875 14.949219 22.6875 13.773438 22.6875 12.5625 C 22.265625 12.574219 22.265625 12.574219 21.839844 12.589844 C 21.464844 12.59375 21.09375 12.601562 20.71875 12.609375 C 20.441406 12.617188 20.441406 12.617188 20.160156 12.628906 C 18.710938 12.648438 17.683594 12.402344 16.617188 11.390625 C 15.800781 10.011719 15.878906 8.492188 15.890625 6.9375 C 15.890625 6.726562 15.886719 6.511719 15.886719 6.292969 C 15.890625 4.855469 15.910156 3.609375 16.722656 2.378906 C 18 1.15625 19.328125 1.226562 21.015625 1.230469 Z M 21.015625 1.230469 "/>
<path style=" stroke:none;fill-rule:nonzero;fill:rgb(4.705882%,41.960785%,76.47059%);fill-opacity:1;" d="M 23.59375 16.027344 C 24 16.03125 24.402344 16.027344 24.808594 16.023438 C 26.402344 16.019531 27.632812 16.078125 28.851562 17.195312 C 29.648438 18.460938 29.4375 18.90625 29.4375 20.625 C 31.417969 20.625 33.398438 20.625 35.4375 20.625 C 35.4375 21.492188 35.4375 22.355469 35.4375 23.25 C 33.457031 23.25 31.476562 23.25 29.4375 23.25 C 29.4375 23.867188 29.4375 24.488281 29.4375 25.125 C 29.007812 26.148438 28.527344 26.652344 27.5625 27.1875 C 26.574219 27.515625 25.511719 27.425781 24.476562 27.429688 C 24.199219 27.433594 23.921875 27.4375 23.644531 27.441406 C 20.78125 27.5 20.78125 27.5 19.5 26.625 C 18.421875 25.492188 18.5625 24.933594 18.5625 23.25 C 16.644531 23.25 14.726562 23.25 12.75 23.25 C 12.75 22.382812 12.75 21.515625 12.75 20.625 C 14.667969 20.625 16.585938 20.625 18.5625 20.625 C 18.5625 19.882812 18.5625 19.140625 18.5625 18.375 C 19.035156 17.308594 19.417969 16.785156 20.5 16.273438 C 21.503906 15.976562 22.554688 16.015625 23.59375 16.027344 Z M 23.59375 16.027344 "/>
<path style=" stroke:none;fill-rule:nonzero;fill:rgb(96.862745%,60.000002%,26.666668%);fill-opacity:1;" d="M 6.792969 16.066406 C 7.191406 16.066406 7.589844 16.0625 7.988281 16.054688 C 8.246094 16.054688 8.503906 16.054688 8.757812 16.054688 C 8.988281 16.054688 9.21875 16.054688 9.457031 16.054688 C 10.359375 16.148438 11.109375 16.398438 11.804688 17.007812 C 11.894531 17.121094 11.980469 17.230469 12.070312 17.34375 C 12.160156 17.453125 12.25 17.5625 12.34375 17.679688 C 12.832031 18.394531 12.785156 19.140625 12.789062 19.972656 C 12.789062 20.109375 12.789062 20.25 12.789062 20.390625 C 12.792969 20.683594 12.792969 20.972656 12.792969 21.265625 C 12.796875 21.710938 12.800781 22.15625 12.808594 22.601562 C 12.808594 22.886719 12.8125 23.167969 12.8125 23.453125 C 12.8125 23.585938 12.816406 23.714844 12.820312 23.851562 C 12.8125 24.886719 12.566406 25.640625 11.871094 26.410156 C 11.761719 26.503906 11.65625 26.59375 11.542969 26.683594 C 11.378906 26.820312 11.378906 26.820312 11.214844 26.964844 C 10.179688 27.644531 8.769531 27.425781 7.578125 27.429688 C 7.300781 27.433594 7.023438 27.4375 6.746094 27.441406 C 6.34375 27.449219 5.941406 27.453125 5.539062 27.453125 C 5.179688 27.457031 5.179688 27.457031 4.8125 27.464844 C 3.789062 27.332031 3.105469 26.925781 2.378906 26.179688 C 1.5625 24.910156 1.625 23.621094 1.628906 22.15625 C 1.628906 21.773438 1.625 21.394531 1.621094 21.015625 C 1.617188 18.144531 1.617188 18.144531 2.503906 17.15625 C 3.800781 15.992188 5.152344 16.058594 6.792969 16.066406 Z M 6.792969 16.066406 "/>
<path style=" stroke:none;fill-rule:nonzero;fill:rgb(96.862745%,60.000002%,26.666668%);fill-opacity:1;" d="M 40.332031 16.070312 C 40.597656 16.066406 40.863281 16.0625 41.132812 16.058594 C 42.648438 16.027344 43.894531 16.003906 45.1875 16.875 C 46.363281 18.054688 46.363281 19.382812 46.375 20.964844 C 46.371094 21.152344 46.371094 21.152344 46.371094 21.34375 C 46.371094 21.726562 46.375 22.105469 46.378906 22.484375 C 46.382812 25.304688 46.382812 25.304688 45.425781 26.449219 C 45.316406 26.535156 45.207031 26.617188 45.09375 26.707031 C 44.984375 26.796875 44.875 26.882812 44.757812 26.976562 C 44.046875 27.445312 43.324219 27.40625 42.503906 27.414062 C 42.371094 27.414062 42.238281 27.414062 42.101562 27.417969 C 41.816406 27.417969 41.535156 27.417969 41.25 27.421875 C 40.820312 27.421875 40.390625 27.429688 39.957031 27.433594 C 39.683594 27.433594 39.40625 27.4375 39.128906 27.4375 C 39.003906 27.441406 38.875 27.441406 38.746094 27.445312 C 37.722656 27.441406 36.96875 27.1875 36.214844 26.492188 C 36.125 26.378906 36.03125 26.269531 35.941406 26.15625 C 35.847656 26.046875 35.757812 25.9375 35.660156 25.820312 C 35.164062 25.109375 35.21875 24.359375 35.210938 23.527344 C 35.210938 23.390625 35.210938 23.25 35.207031 23.109375 C 35.207031 22.816406 35.207031 22.523438 35.203125 22.234375 C 35.203125 21.789062 35.195312 21.34375 35.191406 20.898438 C 35.1875 20.617188 35.1875 20.332031 35.1875 20.046875 C 35.1875 19.914062 35.183594 19.785156 35.183594 19.648438 C 35.1875 18.613281 35.433594 17.859375 36.128906 17.085938 C 36.238281 16.996094 36.34375 16.910156 36.457031 16.816406 C 36.566406 16.722656 36.671875 16.632812 36.785156 16.535156 C 37.796875 15.867188 39.164062 16.078125 40.332031 16.070312 Z M 40.332031 16.070312 "/>
<path style=" stroke:none;fill-rule:nonzero;fill:rgb(90.980393%,15.686275%,22.745098%);fill-opacity:1;" d="M 21.363281 1.277344 C 21.621094 1.28125 21.875 1.28125 22.132812 1.285156 C 22.753906 1.292969 23.378906 1.300781 24 1.3125 C 24 2.613281 24 3.910156 24 5.25 C 22.546875 5.320312 22.546875 5.320312 22.09375 5.339844 C 21.398438 5.378906 20.832031 5.414062 20.25 5.8125 C 19.886719 6.296875 19.871094 6.527344 19.921875 7.136719 C 20.039062 7.71875 20.039062 7.71875 20.4375 8.25 C 20.925781 8.410156 21.25 8.46875 21.75 8.496094 C 21.878906 8.503906 22.007812 8.511719 22.140625 8.519531 C 22.300781 8.527344 22.460938 8.535156 22.628906 8.542969 C 23.144531 8.570312 23.660156 8.597656 24.1875 8.625 C 24.1875 9.863281 24.1875 11.101562 24.1875 12.375 C 22.976562 12.527344 21.839844 12.609375 20.625 12.621094 C 20.449219 12.625 20.269531 12.632812 20.089844 12.636719 C 18.675781 12.652344 17.65625 12.375 16.617188 11.390625 C 15.800781 10.011719 15.878906 8.492188 15.890625 6.9375 C 15.886719 6.722656 15.886719 6.511719 15.886719 6.292969 C 15.890625 4.855469 15.910156 3.609375 16.722656 2.378906 C 18.089844 1.074219 19.570312 1.242188 21.363281 1.277344 Z M 21.363281 1.277344 "/>
<path style=" stroke:none;fill-rule:nonzero;fill:rgb(5.882353%,54.11765%,87.843138%);fill-opacity:1;" d="M 24 16.3125 C 24 17.550781 24 18.789062 24 20.0625 C 23.441406 20.125 22.886719 20.1875 22.3125 20.25 C 21.722656 20.515625 21.722656 20.515625 21.375 21 C 21.226562 21.8125 21.277344 22.167969 21.738281 22.851562 C 22.429688 23.398438 22.429688 23.398438 24 23.4375 C 24 24.738281 24 26.035156 24 27.375 C 20.707031 27.484375 20.707031 27.484375 19.5 26.625 C 18.421875 25.492188 18.5625 24.933594 18.5625 23.25 C 16.644531 23.25 14.726562 23.25 12.75 23.25 C 12.75 22.382812 12.75 21.515625 12.75 20.625 C 14.667969 20.625 16.585938 20.625 18.5625 20.625 C 18.5625 19.882812 18.5625 19.140625 18.5625 18.375 C 19.039062 17.300781 19.507812 16.703125 20.589844 16.238281 C 21.738281 15.917969 22.839844 16.148438 24 16.3125 Z M 24 16.3125 "/>
<path style=" stroke:none;fill-rule:nonzero;fill:rgb(98.039216%,72.941178%,32.549021%);fill-opacity:1;" d="M 40.6875 16.125 C 40.6875 19.777344 40.6875 23.425781 40.6875 27.1875 C 37.125 27.1875 37.125 27.1875 36.175781 26.589844 C 35.324219 25.671875 35.191406 24.703125 35.195312 23.492188 C 35.191406 23.351562 35.191406 23.214844 35.191406 23.074219 C 35.191406 22.785156 35.191406 22.496094 35.191406 22.207031 C 35.191406 21.761719 35.1875 21.324219 35.183594 20.882812 C 35.183594 20.597656 35.183594 20.316406 35.183594 20.035156 C 35.179688 19.902344 35.179688 19.773438 35.175781 19.640625 C 35.1875 18.609375 35.4375 17.855469 36.128906 17.089844 C 36.234375 17 36.34375 16.910156 36.457031 16.816406 C 36.5625 16.726562 36.671875 16.632812 36.785156 16.539062 C 37.921875 15.789062 39.421875 16.125 40.6875 16.125 Z M 40.6875 16.125 "/>
<path style=" stroke:none;fill-rule:nonzero;fill:rgb(98.039216%,72.941178%,32.156864%);fill-opacity:1;" d="M 5.675781 16.089844 C 5.867188 16.089844 5.867188 16.089844 6.0625 16.089844 C 6.464844 16.09375 6.871094 16.097656 7.277344 16.101562 C 7.550781 16.101562 7.828125 16.105469 8.105469 16.105469 C 8.777344 16.109375 9.453125 16.117188 10.125 16.125 C 10.125 16.1875 10.125 16.25 10.125 16.3125 C 9.195312 16.3125 8.269531 16.3125 7.3125 16.3125 C 7.3125 17.550781 7.3125 18.789062 7.3125 20.0625 C 6.753906 20.125 6.199219 20.1875 5.625 20.25 C 4.875 20.53125 4.875 20.53125 4.6875 21 C 4.589844 22.027344 4.589844 22.027344 4.945312 22.957031 C 5.710938 23.414062 6.429688 23.390625 7.3125 23.4375 C 7.3125 24.675781 7.3125 25.914062 7.3125 27.1875 C 7.558594 27.25 7.808594 27.3125 8.0625 27.375 C 7.433594 27.398438 6.804688 27.410156 6.175781 27.421875 C 6 27.429688 5.820312 27.433594 5.640625 27.441406 C 4.457031 27.457031 3.777344 27.320312 2.8125 26.625 C 1.554688 25.335938 1.625 23.859375 1.628906 22.15625 C 1.628906 21.773438 1.625 21.394531 1.621094 21.015625 C 1.617188 18.144531 1.617188 18.144531 2.503906 17.15625 C 3.5 16.265625 4.367188 16.078125 5.675781 16.089844 Z M 5.675781 16.089844 "/>
<path style=" stroke:none;fill-rule:nonzero;fill:rgb(90.980393%,15.686275%,22.352941%);fill-opacity:1;" d="M 33.011719 35.402344 C 33.296875 35.402344 33.296875 35.402344 33.59375 35.40625 C 34.125 35.4375 34.125 35.4375 34.875 35.625 C 34.875 36.863281 34.875 38.101562 34.875 39.375 C 34.320312 39.4375 33.761719 39.5 33.1875 39.5625 C 32.4375 39.84375 32.4375 39.84375 32.25 40.3125 C 32.121094 41.378906 32.121094 41.378906 32.613281 42.269531 C 33.160156 42.550781 33.46875 42.621094 34.066406 42.675781 C 34.21875 42.6875 34.371094 42.703125 34.527344 42.71875 C 34.640625 42.730469 34.753906 42.738281 34.875 42.75 C 34.882812 43.371094 34.882812 43.992188 34.886719 44.613281 C 34.886719 44.789062 34.890625 44.96875 34.890625 45.152344 C 34.890625 45.402344 34.890625 45.402344 34.894531 45.660156 C 34.894531 45.894531 34.894531 45.894531 34.894531 46.136719 C 34.875 46.5 34.875 46.5 34.6875 46.6875 C 31.617188 46.925781 31.617188 46.925781 30.375 45.9375 C 29.199219 44.761719 29.199219 43.429688 29.191406 41.851562 C 29.191406 41.726562 29.191406 41.597656 29.191406 41.46875 C 29.191406 41.085938 29.1875 40.707031 29.183594 40.324219 C 29.179688 37.457031 29.179688 37.457031 30.0625 36.46875 C 30.976562 35.652344 31.808594 35.386719 33.011719 35.402344 Z M 33.011719 35.402344 "/>
<path style=" stroke:none;fill-rule:nonzero;fill:rgb(6.27451%,54.509807%,88.235295%);fill-opacity:1;" d="M 11.660156 35.519531 C 12.386719 35.570312 12.386719 35.570312 13.125 35.625 C 13.125 36.863281 13.125 38.097656 13.125 39.375 C 12.566406 39.4375 12.011719 39.5 11.4375 39.5625 C 10.789062 40.027344 10.546875 40.28125 10.382812 41.0625 C 10.546875 41.84375 10.789062 42.097656 11.4375 42.5625 C 11.992188 42.625 12.550781 42.6875 13.125 42.75 C 13.125 44.050781 13.125 45.347656 13.125 46.6875 C 12.652344 46.699219 12.179688 46.710938 11.695312 46.722656 C 11.476562 46.730469 11.476562 46.730469 11.25 46.738281 C 10.199219 46.75 9.445312 46.535156 8.652344 45.800781 C 8.5625 45.691406 8.472656 45.582031 8.378906 45.46875 C 8.285156 45.359375 8.195312 45.25 8.097656 45.132812 C 7.601562 44.421875 7.65625 43.671875 7.648438 42.839844 C 7.648438 42.703125 7.648438 42.5625 7.644531 42.421875 C 7.644531 42.128906 7.644531 41.839844 7.640625 41.546875 C 7.640625 41.101562 7.632812 40.65625 7.628906 40.210938 C 7.628906 39.925781 7.628906 39.644531 7.625 39.359375 C 7.625 39.226562 7.621094 39.09375 7.621094 38.960938 C 7.625 37.925781 7.867188 37.164062 8.570312 36.402344 C 8.683594 36.3125 8.792969 36.222656 8.90625 36.128906 C 9.015625 36.035156 9.128906 35.945312 9.238281 35.847656 C 10.007812 35.3125 10.777344 35.453125 11.660156 35.519531 Z M 11.660156 35.519531 "/>
<path style=" stroke:none;fill-rule:nonzero;fill:rgb(26.666668%,26.666668%,26.666668%);fill-opacity:1;" d="M 18.5625 39.75 C 22.152344 39.75 25.738281 39.75 29.4375 39.75 C 29.4375 40.617188 29.4375 41.484375 29.4375 42.375 C 25.847656 42.375 22.261719 42.375 18.5625 42.375 C 18.5625 41.507812 18.5625 40.640625 18.5625 39.75 Z M 18.5625 39.75 "/>
<path style=" stroke:none;fill-rule:nonzero;fill:rgb(26.666668%,26.666668%,26.666668%);fill-opacity:1;" d="M 38.363281 27.355469 C 38.640625 27.359375 38.921875 27.359375 39.199219 27.363281 C 39.339844 27.363281 39.484375 27.363281 39.628906 27.367188 C 39.980469 27.367188 40.335938 27.371094 40.6875 27.375 C 39.523438 30.070312 38.335938 32.761719 37.125 35.4375 C 36.132812 35.4375 35.144531 35.4375 34.125 35.4375 C 34.546875 34.171875 34.546875 34.171875 34.816406 33.570312 C 34.875 33.433594 34.933594 33.296875 34.996094 33.160156 C 35.058594 33.019531 35.121094 32.878906 35.1875 32.730469 C 35.25 32.585938 35.316406 32.4375 35.382812 32.285156 C 35.523438 31.976562 35.660156 31.664062 35.800781 31.355469 C 36.011719 30.878906 36.222656 30.398438 36.433594 29.921875 C 36.570312 29.621094 36.703125 29.320312 36.839844 29.019531 C 36.902344 28.875 36.964844 28.730469 37.03125 28.585938 C 37.570312 27.378906 37.570312 27.378906 38.363281 27.355469 Z M 38.363281 27.355469 "/>
<path style=" stroke:none;fill-rule:nonzero;fill:rgb(27.058825%,27.058825%,27.058825%);fill-opacity:1;" d="M 11.0625 27.375 C 11.394531 27.886719 11.59375 28.445312 11.8125 29.015625 C 11.875 29.179688 11.941406 29.34375 12.007812 29.515625 C 12.144531 29.863281 12.28125 30.210938 12.414062 30.5625 C 12.621094 31.097656 12.832031 31.636719 13.042969 32.167969 C 13.171875 32.507812 13.308594 32.847656 13.441406 33.1875 C 13.5 33.347656 13.5625 33.507812 13.628906 33.671875 C 13.6875 33.820312 13.742188 33.972656 13.800781 34.125 C 13.851562 34.257812 13.902344 34.390625 13.957031 34.523438 C 14.0625 34.875 14.0625 34.875 14.0625 35.4375 C 13.132812 35.4375 12.207031 35.4375 11.25 35.4375 C 10.546875 33.921875 9.898438 32.390625 9.28125 30.835938 C 9.128906 30.453125 8.972656 30.066406 8.816406 29.679688 C 8.71875 29.4375 8.621094 29.191406 8.523438 28.945312 C 8.433594 28.722656 8.34375 28.503906 8.253906 28.277344 C 8.0625 27.75 8.0625 27.75 8.0625 27.375 C 8.386719 27.335938 8.710938 27.304688 9.035156 27.269531 C 9.214844 27.25 9.394531 27.230469 9.582031 27.210938 C 10.5625 27.167969 10.5625 27.167969 11.0625 27.375 Z M 11.0625 27.375 "/>
<path style=" stroke:none;fill-rule:nonzero;fill:rgb(97.254902%,59.607846%,26.274511%);fill-opacity:1;" d="M 7.277344 20.003906 C 7.503906 19.996094 7.503906 19.996094 7.738281 19.988281 C 8.503906 19.980469 8.898438 20 9.566406 20.417969 C 10.007812 20.890625 10.113281 21.070312 10.183594 21.714844 C 10.109375 22.453125 9.894531 22.730469 9.375 23.25 C 8.625 23.5 7.933594 23.492188 7.148438 23.507812 C 6.921875 23.519531 6.921875 23.519531 6.691406 23.527344 C 5.878906 23.542969 5.539062 23.515625 4.867188 23.011719 C 4.316406 22.246094 4.367188 21.925781 4.5 21 C 5.28125 19.984375 6.066406 20.019531 7.277344 20.003906 Z M 7.277344 20.003906 "/>
<path style=" stroke:none;fill-rule:nonzero;fill:rgb(82.745099%,12.156863%,19.607843%);fill-opacity:1;" d="M 34.746094 39.328125 C 34.886719 39.324219 35.03125 39.320312 35.175781 39.316406 C 36.050781 39.3125 36.601562 39.382812 37.3125 39.9375 C 37.703125 40.433594 37.6875 40.699219 37.675781 41.34375 C 37.460938 42.15625 37.277344 42.320312 36.5625 42.75 C 36 42.859375 35.457031 42.863281 34.886719 42.855469 C 34.738281 42.859375 34.59375 42.863281 34.441406 42.867188 C 33.667969 42.867188 33.148438 42.800781 32.527344 42.324219 C 32.0625 41.8125 32.0625 41.8125 31.925781 41.417969 C 31.960938 40.769531 32.011719 40.378906 32.414062 39.855469 C 33.171875 39.296875 33.832031 39.332031 34.746094 39.328125 Z M 34.746094 39.328125 "/>
<path style=" stroke:none;fill-rule:nonzero;fill:rgb(26.666668%,26.666668%,26.666668%);fill-opacity:1;" d="M 29.4375 20.625 C 31.417969 20.625 33.398438 20.625 35.4375 20.625 C 35.4375 21.492188 35.4375 22.359375 35.4375 23.25 C 33.457031 23.25 31.476562 23.25 29.4375 23.25 C 29.4375 22.382812 29.4375 21.515625 29.4375 20.625 Z M 29.4375 20.625 "/>
<path style=" stroke:none;fill-rule:nonzero;fill:rgb(26.666668%,26.666668%,26.666668%);fill-opacity:1;" d="M 12.75 20.625 C 14.667969 20.625 16.585938 20.625 18.5625 20.625 C 18.5625 21.492188 18.5625 22.359375 18.5625 23.25 C 16.644531 23.25 14.726562 23.25 12.75 23.25 C 12.75 22.382812 12.75 21.515625 12.75 20.625 Z M 12.75 20.625 "/>
<path style=" stroke:none;fill-rule:nonzero;fill:rgb(82.745099%,12.156863%,19.607843%);fill-opacity:1;" d="M 22.617188 5.238281 C 23.132812 5.242188 23.652344 5.246094 24.1875 5.25 C 24.1875 6.363281 24.1875 7.476562 24.1875 8.625 C 23.679688 8.636719 23.175781 8.648438 22.652344 8.660156 C 22.496094 8.664062 22.335938 8.667969 22.175781 8.675781 C 21.3125 8.683594 20.757812 8.621094 20.0625 8.0625 C 19.765625 7.546875 19.683594 7.238281 19.710938 6.644531 C 20.226562 5.207031 21.292969 5.226562 22.617188 5.238281 Z M 22.617188 5.238281 "/>
<path style=" stroke:none;fill-rule:nonzero;fill:rgb(72.941178%,6.27451%,21.176471%);fill-opacity:1;" d="M 24.1875 5.25 C 24.664062 5.230469 25.136719 5.210938 25.628906 5.191406 C 25.777344 5.183594 25.925781 5.175781 26.078125 5.164062 C 26.859375 5.152344 27.113281 5.1875 27.742188 5.710938 C 27.867188 5.867188 27.996094 6.027344 28.125 6.1875 C 28.1875 6.25 28.25 6.3125 28.3125 6.375 C 28.25 7.21875 28.171875 7.828125 27.5625 8.4375 C 26.882812 8.664062 26.261719 8.644531 25.558594 8.636719 C 24.878906 8.628906 24.878906 8.628906 24.1875 8.625 C 24.1875 7.511719 24.1875 6.398438 24.1875 5.25 Z M 24.1875 5.25 "/>
<path style=" stroke:none;fill-rule:nonzero;fill:rgb(26.666668%,26.666668%,26.666668%);fill-opacity:1;" d="M 22.6875 12.5625 C 23.554688 12.5625 24.421875 12.5625 25.3125 12.5625 C 25.3125 13.738281 25.3125 14.914062 25.3125 16.125 C 24.445312 16.125 23.578125 16.125 22.6875 16.125 C 22.6875 14.949219 22.6875 13.773438 22.6875 12.5625 Z M 22.6875 12.5625 "/>
<path style=" stroke:none;fill-rule:nonzero;fill:rgb(85.09804%,40.000001%,16.862746%);fill-opacity:1;" d="M 40.6875 20.0625 C 42.621094 20.0625 42.621094 20.0625 43.3125 20.625 C 43.617188 21.234375 43.605469 21.84375 43.5 22.5 C 43.148438 23.0625 43.148438 23.0625 42.5625 23.4375 C 41.914062 23.515625 41.34375 23.480469 40.6875 23.4375 C 40.6875 22.324219 40.6875 21.210938 40.6875 20.0625 Z M 40.6875 20.0625 "/>
<path style=" stroke:none;fill-rule:nonzero;fill:rgb(4.705882%,42.352942%,76.47059%);fill-opacity:1;" d="M 13.125 39.375 C 13.125 40.488281 13.125 41.601562 13.125 42.75 C 11.4375 42.75 11.4375 42.75 10.875 42.398438 C 10.429688 41.925781 10.324219 41.742188 10.253906 41.097656 C 10.324219 40.363281 10.554688 40.085938 11.0625 39.5625 C 11.4375 39.375 11.4375 39.375 13.125 39.375 Z M 13.125 39.375 "/>
<path style=" stroke:none;fill-rule:nonzero;fill:rgb(97.647059%,60.392159%,26.666668%);fill-opacity:1;" d="M 40.6875 20.0625 C 40.6875 21.175781 40.6875 22.289062 40.6875 23.4375 C 39 23.4375 39 23.4375 38.4375 23.085938 C 37.992188 22.613281 37.886719 22.429688 37.816406 21.785156 C 37.886719 21.050781 38.117188 20.773438 38.625 20.25 C 39 20.0625 39 20.0625 40.6875 20.0625 Z M 40.6875 20.0625 "/>
<path style=" stroke:none;fill-rule:nonzero;fill:rgb(3.137255%,35.686275%,71.372551%);fill-opacity:1;" d="M 24 20.0625 C 25.6875 20.0625 25.6875 20.0625 26.25 20.414062 C 26.695312 20.886719 26.800781 21.070312 26.871094 21.714844 C 26.800781 22.449219 26.570312 22.726562 26.0625 23.25 C 25.6875 23.4375 25.6875 23.4375 24 23.4375 C 24 22.324219 24 21.210938 24 20.0625 Z M 24 20.0625 "/>
<path style=" stroke:none;fill-rule:nonzero;fill:rgb(85.09804%,39.607844%,16.470589%);fill-opacity:1;" d="M 7.3125 20.0625 C 9 20.0625 9 20.0625 9.5625 20.414062 C 10.007812 20.886719 10.113281 21.070312 10.183594 21.714844 C 10.113281 22.453125 9.894531 22.730469 9.375 23.25 C 8.8125 23.4375 8.8125 23.4375 7.3125 23.4375 C 7.3125 22.324219 7.3125 21.210938 7.3125 20.0625 Z M 7.3125 20.0625 "/>
<path style=" stroke:none;fill-rule:nonzero;fill:rgb(72.941178%,6.27451%,21.176471%);fill-opacity:1;" d="M 34.875 39.375 C 36.628906 39.375 36.628906 39.375 37.3125 39.9375 C 37.703125 40.433594 37.6875 40.699219 37.675781 41.34375 C 37.5 42 37.5 42 37.125 42.457031 C 36.5625 42.75 36.5625 42.75 34.875 42.75 C 34.875 41.636719 34.875 40.523438 34.875 39.375 Z M 34.875 39.375 "/>
<path style=" stroke:none;fill-rule:nonzero;fill:rgb(98.823529%,38.039216%,34.117648%);fill-opacity:1;" d="M 18.1875 4.5 C 18.675781 4.988281 18.617188 5.34375 18.621094 6.011719 C 18.621094 6.160156 18.621094 6.304688 18.621094 6.457031 C 18.625 6.601562 18.625 6.75 18.628906 6.898438 C 18.632812 7.972656 18.632812 7.972656 18.308594 8.390625 C 18 8.625 18 8.625 17.519531 8.589844 C 17.0625 8.4375 17.0625 8.4375 16.6875 8.0625 C 16.644531 7.558594 16.628906 7.078125 16.628906 6.574219 C 16.625 6.4375 16.625 6.300781 16.621094 6.160156 C 16.617188 5.160156 16.617188 5.160156 16.941406 4.691406 C 17.378906 4.421875 17.683594 4.4375 18.1875 4.5 Z M 18.1875 4.5 "/>
<path style=" stroke:none;fill-rule:nonzero;fill:rgb(28.235295%,70.19608%,98.823529%);fill-opacity:1;" d="M 10.300781 36.316406 C 10.789062 36.332031 11.019531 36.351562 11.449219 36.597656 C 11.625 36.9375 11.625 36.9375 11.589844 37.417969 C 11.4375 37.875 11.4375 37.875 11.0625 38.25 C 9.742188 38.355469 9.742188 38.355469 9.175781 38.027344 C 9 37.6875 9 37.6875 9.035156 37.207031 C 9.296875 36.425781 9.472656 36.382812 10.300781 36.316406 Z M 10.300781 36.316406 "/>
<path style=" stroke:none;fill-rule:nonzero;fill:rgb(20%,18.039216%,18.039216%);fill-opacity:1;" d="M 28.3125 39.75 C 28.683594 39.75 29.054688 39.75 29.4375 39.75 C 29.4375 40.617188 29.4375 41.484375 29.4375 42.375 C 29.066406 42.375 28.695312 42.375 28.3125 42.375 C 28.3125 41.507812 28.3125 40.640625 28.3125 39.75 Z M 28.3125 39.75 "/>
<path style=" stroke:none;fill-rule:nonzero;fill:rgb(17.254902%,19.607843%,21.176471%);fill-opacity:1;" d="M 18.5625 39.75 C 18.933594 39.75 19.304688 39.75 19.6875 39.75 C 19.6875 40.617188 19.6875 41.484375 19.6875 42.375 C 19.316406 42.375 18.945312 42.375 18.5625 42.375 C 18.5625 41.507812 18.5625 40.640625 18.5625 39.75 Z M 18.5625 39.75 "/>
<path style=" stroke:none;fill-rule:nonzero;fill:rgb(24.313726%,21.960784%,18.82353%);fill-opacity:1;" d="M 34.3125 20.625 C 34.683594 20.625 35.054688 20.625 35.4375 20.625 C 35.4375 21.492188 35.4375 22.359375 35.4375 23.25 C 35.066406 23.25 34.695312 23.25 34.3125 23.25 C 34.3125 22.382812 34.3125 21.515625 34.3125 20.625 Z M 34.3125 20.625 "/>
<path style=" stroke:none;fill-rule:nonzero;fill:rgb(18.039216%,18.039216%,18.039216%);fill-opacity:1;" d="M 29.4375 20.625 C 29.808594 20.625 30.179688 20.625 30.5625 20.625 C 30.5625 21.492188 30.5625 22.359375 30.5625 23.25 C 30.191406 23.25 29.820312 23.25 29.4375 23.25 C 29.4375 22.382812 29.4375 21.515625 29.4375 20.625 Z M 29.4375 20.625 "/>
<path style=" stroke:none;fill-rule:nonzero;fill:rgb(18.039216%,18.039216%,18.039216%);fill-opacity:1;" d="M 17.4375 20.625 C 17.808594 20.625 18.179688 20.625 18.5625 20.625 C 18.5625 21.492188 18.5625 22.359375 18.5625 23.25 C 18.191406 23.25 17.820312 23.25 17.4375 23.25 C 17.4375 22.382812 17.4375 21.515625 17.4375 20.625 Z M 17.4375 20.625 "/>
<path style=" stroke:none;fill-rule:nonzero;fill:rgb(17.647059%,17.647059%,17.647059%);fill-opacity:1;" d="M 34.5 34.5 C 35.429688 34.5 36.355469 34.5 37.3125 34.5 C 37.25 34.808594 37.1875 35.117188 37.125 35.4375 C 36.136719 35.4375 35.144531 35.4375 34.125 35.4375 C 34.25 35.128906 34.371094 34.820312 34.5 34.5 Z M 34.5 34.5 "/>
<path style=" stroke:none;fill-rule:nonzero;fill:rgb(17.647059%,17.647059%,17.647059%);fill-opacity:1;" d="M 10.875 34.5 C 11.863281 34.5 12.855469 34.5 13.875 34.5 C 13.9375 34.808594 14 35.117188 14.0625 35.4375 C 13.132812 35.4375 12.207031 35.4375 11.25 35.4375 C 11.125 35.128906 11.003906 34.820312 10.875 34.5 Z M 10.875 34.5 "/>
<path style=" stroke:none;fill-rule:nonzero;fill:rgb(17.647059%,17.647059%,17.647059%);fill-opacity:1;" d="M 37.6875 27.375 C 38.675781 27.375 39.667969 27.375 40.6875 27.375 C 40.5625 27.683594 40.441406 27.992188 40.3125 28.3125 C 39.382812 28.3125 38.457031 28.3125 37.5 28.3125 C 37.5625 28.003906 37.625 27.695312 37.6875 27.375 Z M 37.6875 27.375 "/>
<path style=" stroke:none;fill-rule:nonzero;fill:rgb(18.039216%,18.039216%,18.039216%);fill-opacity:1;" d="M 11.0625 27.375 C 11.0625 27.621094 11.0625 27.871094 11.0625 28.125 C 10.46875 28.300781 9.941406 28.332031 9.328125 28.324219 C 9.160156 28.320312 8.996094 28.320312 8.820312 28.320312 C 8.695312 28.316406 8.570312 28.3125 8.4375 28.3125 C 8.3125 28.003906 8.191406 27.695312 8.0625 27.375 C 8.386719 27.335938 8.710938 27.304688 9.035156 27.269531 C 9.214844 27.25 9.394531 27.230469 9.582031 27.210938 C 10.113281 27.1875 10.546875 27.246094 11.0625 27.375 Z M 11.0625 27.375 "/>
<path style=" stroke:none;fill-rule:nonzero;fill:rgb(17.647059%,17.647059%,17.647059%);fill-opacity:1;" d="M 12.75 20.625 C 13.058594 20.625 13.367188 20.625 13.6875 20.625 C 13.6875 21.492188 13.6875 22.359375 13.6875 23.25 C 13.378906 23.25 13.070312 23.25 12.75 23.25 C 12.75 22.382812 12.75 21.515625 12.75 20.625 Z M 12.75 20.625 "/>
<path style=" stroke:none;fill-rule:nonzero;fill:rgb(17.647059%,17.647059%,17.647059%);fill-opacity:1;" d="M 22.6875 15.1875 C 23.554688 15.1875 24.421875 15.1875 25.3125 15.1875 C 25.3125 15.496094 25.3125 15.804688 25.3125 16.125 C 24.445312 16.125 23.578125 16.125 22.6875 16.125 C 22.6875 15.816406 22.6875 15.507812 22.6875 15.1875 Z M 22.6875 15.1875 "/>
<path style=" stroke:none;fill-rule:nonzero;fill:rgb(17.647059%,17.647059%,17.647059%);fill-opacity:1;" d="M 22.6875 12.5625 C 23.554688 12.5625 24.421875 12.5625 25.3125 12.5625 C 25.3125 12.871094 25.3125 13.179688 25.3125 13.5 C 24.445312 13.5 23.578125 13.5 22.6875 13.5 C 22.6875 13.191406 22.6875 12.882812 22.6875 12.5625 Z M 22.6875 12.5625 "/>
</g>
</svg>
