<?xml version="1.0" encoding="UTF-8"?>
<svg xmlns="http://www.w3.org/2000/svg" xmlns:xlink="http://www.w3.org/1999/xlink" width="48" height="48" viewBox="0 0 48 48" version="1.1">
<g id="surface1">
<path style=" stroke:none;fill-rule:nonzero;fill:rgb(43.921569%,74.509805%,89.411765%);fill-opacity:1;" d="M 22.570312 11.335938 C 22.800781 11.335938 23.03125 11.335938 23.269531 11.335938 C 23.632812 11.339844 23.632812 11.339844 24 11.34375 C 24.242188 11.339844 24.480469 11.335938 24.730469 11.335938 C 24.960938 11.335938 25.191406 11.335938 25.429688 11.335938 C 25.746094 11.339844 25.746094 11.339844 26.070312 11.339844 C 26.742188 11.457031 26.96875 11.648438 27.375 12.1875 C 27.402344 12.707031 27.402344 12.707031 27.363281 13.277344 C 27.359375 13.878906 27.359375 13.878906 27.5625 14.4375 C 28.308594 15.035156 29.125 15.378906 30 15.75 C 30.1875 15.875 30.371094 15.996094 30.5625 16.125 C 30.683594 16.054688 30.804688 15.980469 30.925781 15.90625 C 31.167969 15.769531 31.167969 15.769531 31.417969 15.632812 C 31.574219 15.542969 31.734375 15.449219 31.898438 15.355469 C 32.667969 15.113281 33.023438 15.214844 33.75 15.5625 C 34.164062 16.046875 34.449219 16.582031 34.746094 17.144531 C 34.90625 17.433594 35.066406 17.722656 35.226562 18.011719 C 35.324219 18.203125 35.324219 18.203125 35.429688 18.398438 C 35.605469 18.714844 35.800781 19.015625 36 19.3125 C 36.148438 20.621094 36.148438 20.621094 35.589844 21.339844 C 35.0625 21.75 35.0625 21.75 34.570312 21.953125 C 34.0625 22.363281 34.046875 22.445312 33.972656 23.066406 C 33.960938 23.367188 33.960938 23.664062 33.960938 23.964844 C 33.960938 24.117188 33.960938 24.273438 33.960938 24.429688 C 33.992188 25.164062 34.023438 25.566406 34.496094 26.148438 C 34.925781 26.417969 35.347656 26.617188 35.8125 26.8125 C 36.121094 27.429688 36.109375 28.023438 36 28.6875 C 35.71875 29.378906 35.347656 29.996094 34.957031 30.632812 C 34.859375 30.800781 34.765625 30.972656 34.664062 31.144531 C 34.195312 31.921875 33.90625 32.359375 33.082031 32.769531 C 32.332031 32.820312 32.054688 32.691406 31.429688 32.296875 C 30.914062 32.011719 30.914062 32.011719 30.375 31.875 C 29.835938 32.066406 29.5 32.320312 29.066406 32.6875 C 28.6875 33 28.6875 33 28.03125 33.210938 C 27.507812 33.515625 27.507812 33.515625 27.480469 34.070312 C 27.457031 34.46875 27.445312 34.867188 27.449219 35.265625 C 27.351562 35.964844 27.175781 36.132812 26.625 36.5625 C 26.070312 36.660156 26.070312 36.660156 25.429688 36.660156 C 25.199219 36.664062 24.96875 36.664062 24.730469 36.664062 C 24.488281 36.660156 24.25 36.660156 24 36.65625 C 23.640625 36.660156 23.640625 36.660156 23.269531 36.664062 C 23.039062 36.664062 22.808594 36.664062 22.570312 36.660156 C 22.253906 36.660156 22.253906 36.660156 21.929688 36.660156 C 21.257812 36.542969 21.03125 36.351562 20.625 35.8125 C 20.597656 35.292969 20.597656 35.292969 20.636719 34.722656 C 20.640625 34.121094 20.640625 34.121094 20.4375 33.5625 C 19.691406 32.964844 18.875 32.617188 18 32.25 C 17.722656 32.0625 17.722656 32.0625 17.4375 31.875 C 17.316406 31.949219 17.195312 32.019531 17.074219 32.09375 C 16.910156 32.183594 16.75 32.273438 16.582031 32.367188 C 16.425781 32.457031 16.265625 32.550781 16.101562 32.644531 C 15.332031 32.886719 14.976562 32.785156 14.25 32.4375 C 13.835938 31.953125 13.550781 31.417969 13.253906 30.855469 C 13.09375 30.566406 12.933594 30.277344 12.773438 29.988281 C 12.707031 29.859375 12.636719 29.734375 12.570312 29.601562 C 12.394531 29.289062 12.199219 28.984375 12 28.6875 C 11.851562 27.378906 11.851562 27.378906 12.410156 26.660156 C 12.9375 26.25 12.9375 26.25 13.429688 26.046875 C 13.9375 25.636719 13.953125 25.550781 14.027344 24.933594 C 14.039062 24.636719 14.039062 24.335938 14.039062 24.035156 C 14.039062 23.882812 14.039062 23.726562 14.039062 23.570312 C 14.007812 22.835938 13.976562 22.4375 13.503906 21.851562 C 13.074219 21.582031 12.652344 21.382812 12.1875 21.1875 C 11.878906 20.570312 11.890625 19.976562 12 19.3125 C 12.28125 18.621094 12.652344 18 13.042969 17.367188 C 13.1875 17.113281 13.1875 17.113281 13.335938 16.855469 C 13.804688 16.078125 14.09375 15.640625 14.917969 15.230469 C 15.667969 15.179688 15.945312 15.308594 16.570312 15.703125 C 17.085938 15.988281 17.085938 15.988281 17.625 16.125 C 18.164062 15.933594 18.5 15.679688 18.933594 15.3125 C 19.3125 15 19.3125 15 19.96875 14.789062 C 20.492188 14.480469 20.492188 14.480469 20.519531 13.929688 C 20.542969 13.53125 20.554688 13.132812 20.550781 12.734375 C 20.710938 11.542969 21.484375 11.339844 22.570312 11.335938 Z M 22.570312 11.335938 "/>
<path style=" stroke:none;fill-rule:nonzero;fill:rgb(92.941177%,74.509805%,12.54902%);fill-opacity:1;" d="M 37.941406 0.28125 C 38.144531 0.277344 38.34375 0.277344 38.550781 0.273438 C 38.875 0.277344 38.875 0.277344 39.203125 0.28125 C 39.539062 0.28125 39.539062 0.28125 39.878906 0.28125 C 40.347656 0.28125 40.820312 0.28125 41.289062 0.289062 C 42.011719 0.292969 42.730469 0.292969 43.449219 0.289062 C 43.90625 0.289062 44.363281 0.292969 44.820312 0.292969 C 45.035156 0.292969 45.25 0.292969 45.476562 0.292969 C 45.671875 0.292969 45.875 0.296875 46.082031 0.300781 C 46.34375 0.300781 46.34375 0.300781 46.613281 0.300781 C 47.144531 0.386719 47.308594 0.507812 47.625 0.9375 C 47.804688 1.480469 47.835938 1.828125 47.84375 2.390625 C 47.84375 2.574219 47.847656 2.753906 47.847656 2.941406 C 47.847656 3.132812 47.851562 3.332031 47.851562 3.53125 C 47.851562 3.734375 47.851562 3.933594 47.855469 4.140625 C 47.855469 4.566406 47.855469 4.992188 47.859375 5.417969 C 47.859375 6.066406 47.867188 6.714844 47.871094 7.367188 C 47.875 7.777344 47.875 8.195312 47.875 8.605469 C 47.875 8.800781 47.878906 8.992188 47.878906 9.195312 C 47.875 10.894531 47.875 10.894531 47.25 11.625 C 46.78125 11.859375 46.457031 11.839844 45.933594 11.847656 C 45.734375 11.847656 45.539062 11.851562 45.335938 11.851562 C 45.125 11.851562 44.910156 11.855469 44.691406 11.855469 C 44.472656 11.859375 44.253906 11.859375 44.03125 11.859375 C 43.566406 11.863281 43.105469 11.867188 42.640625 11.867188 C 41.933594 11.871094 41.226562 11.878906 40.515625 11.886719 C 40.070312 11.890625 39.621094 11.890625 39.171875 11.894531 C 38.960938 11.894531 38.746094 11.898438 38.527344 11.902344 C 38.328125 11.902344 38.132812 11.898438 37.929688 11.898438 C 37.753906 11.902344 37.582031 11.902344 37.402344 11.902344 C 36.777344 11.78125 36.5625 11.570312 36.1875 11.0625 C 36.09375 10.601562 36.09375 10.601562 36.089844 10.078125 C 36.089844 9.882812 36.085938 9.683594 36.082031 9.480469 C 36.085938 9.269531 36.085938 9.058594 36.089844 8.84375 C 36.085938 8.625 36.085938 8.40625 36.085938 8.183594 C 36.085938 7.722656 36.085938 7.261719 36.089844 6.800781 C 36.09375 6.097656 36.089844 5.390625 36.085938 4.6875 C 36.085938 4.238281 36.085938 3.792969 36.089844 3.347656 C 36.085938 3.132812 36.085938 2.921875 36.082031 2.707031 C 36.085938 2.511719 36.089844 2.3125 36.089844 2.109375 C 36.089844 1.9375 36.09375 1.765625 36.09375 1.585938 C 36.304688 0.550781 36.957031 0.28125 37.941406 0.28125 Z M 37.941406 0.28125 "/>
<path style=" stroke:none;fill-rule:nonzero;fill:rgb(97.647059%,36.078432%,23.529412%);fill-opacity:1;" d="M 39.480469 36.101562 C 39.617188 36.097656 39.757812 36.097656 39.898438 36.097656 C 40.191406 36.09375 40.484375 36.09375 40.777344 36.09375 C 41.226562 36.09375 41.667969 36.085938 42.117188 36.078125 C 42.402344 36.078125 42.6875 36.074219 42.96875 36.078125 C 43.171875 36.070312 43.171875 36.070312 43.375 36.066406 C 44.085938 36.078125 44.40625 36.160156 44.96875 36.613281 C 45.308594 37.039062 45.597656 37.4375 45.859375 37.914062 C 45.976562 38.132812 45.976562 38.132812 46.097656 38.351562 C 46.214844 38.574219 46.214844 38.574219 46.335938 38.800781 C 46.417969 38.949219 46.496094 39.097656 46.578125 39.246094 C 46.734375 39.535156 46.890625 39.820312 47.042969 40.109375 C 47.222656 40.445312 47.410156 40.773438 47.601562 41.097656 C 47.867188 41.757812 47.789062 42.0625 47.625 42.75 C 47.367188 43.285156 47.367188 43.285156 47.046875 43.832031 C 46.929688 44.027344 46.8125 44.226562 46.695312 44.429688 C 46.570312 44.632812 46.449219 44.835938 46.324219 45.046875 C 46.203125 45.253906 46.082031 45.460938 45.957031 45.671875 C 45.058594 47.191406 45.058594 47.191406 44.625 47.625 C 44.136719 47.667969 43.667969 47.6875 43.179688 47.6875 C 43.035156 47.6875 42.894531 47.691406 42.746094 47.691406 C 42.441406 47.691406 42.136719 47.695312 41.835938 47.695312 C 41.371094 47.695312 40.90625 47.703125 40.441406 47.710938 C 40.148438 47.710938 39.851562 47.710938 39.558594 47.710938 C 39.351562 47.714844 39.351562 47.714844 39.136719 47.71875 C 38.515625 47.714844 38.140625 47.679688 37.632812 47.304688 C 37.03125 46.496094 36.542969 45.628906 36.046875 44.753906 C 35.933594 44.5625 35.820312 44.371094 35.703125 44.171875 C 35.597656 43.988281 35.492188 43.800781 35.382812 43.605469 C 35.285156 43.4375 35.1875 43.269531 35.085938 43.09375 C 34.746094 42.234375 34.75 41.550781 35.105469 40.695312 C 35.214844 40.519531 35.320312 40.339844 35.429688 40.15625 C 35.546875 39.960938 35.660156 39.765625 35.78125 39.5625 C 35.902344 39.363281 36.023438 39.160156 36.152344 38.953125 C 36.273438 38.75 36.394531 38.542969 36.519531 38.335938 C 37.851562 36.101562 37.851562 36.101562 39.480469 36.101562 Z M 39.480469 36.101562 "/>
<path style=" stroke:none;fill-rule:nonzero;fill:rgb(92.156863%,92.156863%,92.156863%);fill-opacity:1;" d="M 27.1875 18.9375 C 28.472656 19.792969 29.332031 21.039062 29.8125 22.5 C 29.984375 24.234375 29.816406 25.617188 29.0625 27.1875 C 28.96875 27.515625 28.96875 27.515625 28.875 27.855469 C 28.8125 28.007812 28.75 28.15625 28.6875 28.3125 C 28.289062 28.476562 28.289062 28.476562 27.9375 28.5 C 27.875 28.746094 27.8125 28.996094 27.75 29.25 C 25.726562 29.824219 23.441406 30.347656 21.457031 29.402344 C 21.175781 29.234375 20.898438 29.0625 20.625 28.875 C 20.515625 28.804688 20.40625 28.730469 20.292969 28.65625 C 19.179688 27.832031 18.554688 26.621094 18.1875 25.3125 C 17.960938 23.386719 18.183594 21.847656 19.3125 20.25 C 21.300781 17.953125 24.53125 17.378906 27.1875 18.9375 Z M 27.1875 18.9375 "/>
<path style=" stroke:none;fill-rule:nonzero;fill:rgb(92.54902%,74.117649%,12.54902%);fill-opacity:1;" d="M 8.832031 36.683594 C 9.292969 37.015625 9.363281 37.351562 9.5625 37.875 C 10.128906 38.132812 10.128906 38.132812 10.6875 38.25 C 10.683594 38.394531 10.679688 38.535156 10.675781 38.683594 C 10.664062 39.207031 10.664062 39.207031 10.875 39.75 C 11.253906 39.886719 11.253906 39.886719 11.625 39.9375 C 12.078125 41.460938 11.972656 43.136719 11.3125 44.570312 C 10.421875 46.097656 9.210938 47.140625 7.5 47.625 C 5.503906 47.84375 3.929688 47.691406 2.25 46.5 C 1.121094 45.539062 0.34375 44.039062 0.1875 42.5625 C 0.0625 40.972656 0.511719 39.5 1.5 38.25 C 3.484375 36.054688 6.101562 35.582031 8.832031 36.683594 Z M 8.832031 36.683594 "/>
<path style=" stroke:none;fill-rule:nonzero;fill:rgb(97.647059%,36.078432%,23.921569%);fill-opacity:1;" d="M 6.5625 0.269531 C 7.265625 0.402344 7.539062 0.644531 8.0625 1.125 C 8.414062 1.640625 8.414062 1.640625 8.746094 2.234375 C 8.835938 2.394531 8.835938 2.394531 8.925781 2.558594 C 9.121094 2.902344 9.3125 3.25 9.503906 3.597656 C 9.703125 3.957031 9.902344 4.3125 10.105469 4.671875 C 10.234375 4.90625 10.367188 5.144531 10.5 5.378906 C 10.878906 6.058594 11.269531 6.726562 11.675781 7.386719 C 11.765625 7.527344 11.851562 7.671875 11.941406 7.816406 C 12.097656 8.074219 12.261719 8.328125 12.421875 8.578125 C 12.910156 9.371094 13.089844 9.949219 12.9375 10.875 C 12.625 11.355469 12.488281 11.546875 12 11.8125 C 11.199219 11.949219 10.40625 11.929688 9.597656 11.917969 C 9.246094 11.917969 9.246094 11.917969 8.886719 11.914062 C 8.390625 11.914062 7.898438 11.910156 7.40625 11.902344 C 6.769531 11.894531 6.140625 11.894531 5.507812 11.894531 C 4.902344 11.890625 4.296875 11.886719 3.691406 11.882812 C 3.464844 11.882812 3.234375 11.878906 3.003906 11.878906 C 2.792969 11.875 2.582031 11.875 2.363281 11.871094 C 2.085938 11.867188 2.085938 11.867188 1.800781 11.863281 C 1.296875 11.808594 0.988281 11.714844 0.5625 11.4375 C 0.128906 10.691406 0.175781 10.199219 0.375 9.375 C 0.617188 8.902344 0.871094 8.464844 1.148438 8.015625 C 1.316406 7.734375 1.488281 7.457031 1.65625 7.175781 C 1.75 7.023438 1.84375 6.867188 1.941406 6.707031 C 2.292969 6.121094 2.628906 5.523438 2.964844 4.925781 C 3.09375 4.707031 3.21875 4.488281 3.339844 4.269531 C 3.585938 3.835938 3.832031 3.402344 4.074219 2.96875 C 4.1875 2.765625 4.304688 2.566406 4.421875 2.359375 C 4.574219 2.089844 4.574219 2.089844 4.726562 1.816406 C 5.222656 1.070312 5.660156 0.4375 6.5625 0.269531 Z M 6.5625 0.269531 "/>
<path style=" stroke:none;fill-rule:nonzero;fill:rgb(0.392157%,0.784314%,1.176471%);fill-opacity:1;" d="M 22.570312 11.335938 C 22.800781 11.335938 23.03125 11.335938 23.269531 11.335938 C 23.632812 11.339844 23.632812 11.339844 24 11.34375 C 24.242188 11.339844 24.480469 11.335938 24.730469 11.335938 C 24.960938 11.335938 25.191406 11.335938 25.429688 11.335938 C 25.746094 11.339844 25.746094 11.339844 26.070312 11.339844 C 26.742188 11.457031 26.96875 11.648438 27.375 12.1875 C 27.402344 12.707031 27.402344 12.707031 27.363281 13.277344 C 27.359375 13.878906 27.359375 13.878906 27.5625 14.4375 C 28.308594 15.035156 29.125 15.378906 30 15.75 C 30.1875 15.875 30.371094 15.996094 30.5625 16.125 C 30.683594 16.054688 30.804688 15.980469 30.925781 15.90625 C 31.167969 15.769531 31.167969 15.769531 31.417969 15.632812 C 31.574219 15.542969 31.734375 15.449219 31.898438 15.355469 C 32.667969 15.113281 33.023438 15.214844 33.75 15.5625 C 34.164062 16.046875 34.449219 16.582031 34.746094 17.144531 C 34.90625 17.433594 35.066406 17.722656 35.226562 18.011719 C 35.324219 18.203125 35.324219 18.203125 35.429688 18.398438 C 35.605469 18.714844 35.800781 19.015625 36 19.3125 C 36.148438 20.621094 36.148438 20.621094 35.589844 21.339844 C 35.0625 21.75 35.0625 21.75 34.570312 21.953125 C 34.0625 22.363281 34.046875 22.445312 33.972656 23.066406 C 33.960938 23.367188 33.960938 23.664062 33.960938 23.964844 C 33.960938 24.117188 33.960938 24.273438 33.960938 24.429688 C 33.992188 25.164062 34.023438 25.566406 34.496094 26.148438 C 34.925781 26.417969 35.347656 26.617188 35.8125 26.8125 C 36.121094 27.429688 36.109375 28.023438 36 28.6875 C 35.71875 29.378906 35.347656 29.996094 34.957031 30.632812 C 34.859375 30.800781 34.765625 30.972656 34.664062 31.144531 C 34.195312 31.921875 33.90625 32.359375 33.082031 32.769531 C 32.332031 32.820312 32.054688 32.691406 31.429688 32.296875 C 30.914062 32.011719 30.914062 32.011719 30.375 31.875 C 29.835938 32.066406 29.5 32.320312 29.066406 32.6875 C 28.6875 33 28.6875 33 28.03125 33.210938 C 27.507812 33.515625 27.507812 33.515625 27.480469 34.070312 C 27.457031 34.46875 27.445312 34.867188 27.449219 35.265625 C 27.351562 35.964844 27.175781 36.132812 26.625 36.5625 C 26.070312 36.660156 26.070312 36.660156 25.429688 36.660156 C 25.199219 36.664062 24.96875 36.664062 24.730469 36.664062 C 24.488281 36.660156 24.25 36.660156 24 36.65625 C 23.640625 36.660156 23.640625 36.660156 23.269531 36.664062 C 23.039062 36.664062 22.808594 36.664062 22.570312 36.660156 C 22.253906 36.660156 22.253906 36.660156 21.929688 36.660156 C 21.257812 36.542969 21.03125 36.351562 20.625 35.8125 C 20.597656 35.292969 20.597656 35.292969 20.636719 34.722656 C 20.640625 34.121094 20.640625 34.121094 20.4375 33.5625 C 19.691406 32.964844 18.875 32.617188 18 32.25 C 17.722656 32.0625 17.722656 32.0625 17.4375 31.875 C 17.316406 31.949219 17.195312 32.019531 17.074219 32.09375 C 16.910156 32.183594 16.75 32.273438 16.582031 32.367188 C 16.425781 32.457031 16.265625 32.550781 16.101562 32.644531 C 15.332031 32.886719 14.976562 32.785156 14.25 32.4375 C 13.835938 31.953125 13.550781 31.417969 13.253906 30.855469 C 13.09375 30.566406 12.933594 30.277344 12.773438 29.988281 C 12.707031 29.859375 12.636719 29.734375 12.570312 29.601562 C 12.394531 29.289062 12.199219 28.984375 12 28.6875 C 11.851562 27.378906 11.851562 27.378906 12.410156 26.660156 C 12.9375 26.25 12.9375 26.25 13.429688 26.046875 C 13.9375 25.636719 13.953125 25.550781 14.027344 24.933594 C 14.039062 24.636719 14.039062 24.335938 14.039062 24.035156 C 14.039062 23.882812 14.039062 23.726562 14.039062 23.570312 C 14.007812 22.835938 13.976562 22.4375 13.503906 21.851562 C 13.074219 21.582031 12.652344 21.382812 12.1875 21.1875 C 11.878906 20.570312 11.890625 19.976562 12 19.3125 C 12.28125 18.621094 12.652344 18 13.042969 17.367188 C 13.1875 17.113281 13.1875 17.113281 13.335938 16.855469 C 13.804688 16.078125 14.09375 15.640625 14.917969 15.230469 C 15.667969 15.179688 15.945312 15.308594 16.570312 15.703125 C 17.085938 15.988281 17.085938 15.988281 17.625 16.125 C 18.164062 15.933594 18.5 15.679688 18.933594 15.3125 C 19.3125 15 19.3125 15 19.96875 14.789062 C 20.492188 14.480469 20.492188 14.480469 20.519531 13.929688 C 20.542969 13.53125 20.554688 13.132812 20.550781 12.734375 C 20.710938 11.542969 21.484375 11.339844 22.570312 11.335938 Z M 21.5625 12.5625 C 21.574219 12.742188 21.585938 12.921875 21.59375 13.109375 C 21.625 13.871094 21.601562 14.457031 21.375 15.1875 C 20.742188 15.679688 20.148438 15.953125 19.410156 16.230469 C 18.761719 16.496094 18.34375 16.804688 17.8125 17.25 C 17.164062 17.25 16.617188 16.8125 16.085938 16.46875 C 15.699219 16.257812 15.699219 16.257812 15 16.3125 C 14.703125 16.632812 14.703125 16.632812 14.46875 17.066406 C 14.378906 17.222656 14.285156 17.382812 14.191406 17.542969 C 14.050781 17.792969 14.050781 17.792969 13.910156 18.046875 C 13.765625 18.292969 13.765625 18.292969 13.617188 18.542969 C 13.109375 19.355469 13.109375 19.355469 12.949219 20.273438 C 13.203125 20.78125 13.546875 20.867188 14.058594 21.09375 C 14.652344 21.429688 14.941406 21.597656 15.1875 22.242188 C 15.257812 22.832031 15.269531 23.390625 15.246094 23.988281 C 15.242188 24.191406 15.238281 24.394531 15.238281 24.601562 C 15.183594 25.542969 15.128906 26.085938 14.535156 26.835938 C 14.003906 27.164062 13.535156 27.390625 12.9375 27.5625 C 13.03125 28.5625 13.566406 29.316406 14.074219 30.152344 C 14.164062 30.300781 14.25 30.449219 14.34375 30.601562 C 14.558594 30.964844 14.78125 31.324219 15 31.6875 C 15.625 31.585938 16.070312 31.453125 16.59375 31.101562 C 17.25 30.75 17.25 30.75 17.742188 30.75 C 18.1875 30.9375 18.1875 30.9375 18.609375 31.296875 C 19.160156 31.714844 19.652344 31.894531 20.296875 32.132812 C 20.894531 32.414062 20.894531 32.414062 21.375 32.8125 C 21.621094 33.699219 21.59375 34.523438 21.5625 35.4375 C 21.882812 35.757812 22.308594 35.648438 22.746094 35.648438 C 22.945312 35.652344 23.148438 35.652344 23.359375 35.652344 C 23.570312 35.648438 23.78125 35.648438 24 35.648438 C 24.210938 35.648438 24.425781 35.648438 24.640625 35.652344 C 24.84375 35.652344 25.046875 35.652344 25.253906 35.648438 C 25.441406 35.648438 25.625 35.648438 25.816406 35.648438 C 26.242188 35.671875 26.242188 35.671875 26.4375 35.4375 C 26.425781 35.257812 26.414062 35.078125 26.40625 34.890625 C 26.375 34.128906 26.398438 33.542969 26.625 32.8125 C 27.257812 32.320312 27.851562 32.050781 28.589844 31.769531 C 29.238281 31.503906 29.65625 31.195312 30.1875 30.75 C 30.835938 30.75 31.382812 31.1875 31.914062 31.53125 C 32.300781 31.742188 32.300781 31.742188 33 31.6875 C 33.296875 31.371094 33.296875 31.371094 33.53125 30.933594 C 33.621094 30.777344 33.714844 30.621094 33.808594 30.457031 C 33.902344 30.289062 33.996094 30.125 34.089844 29.953125 C 34.1875 29.789062 34.285156 29.625 34.382812 29.457031 C 34.890625 28.644531 34.890625 28.644531 35.050781 27.726562 C 34.796875 27.21875 34.453125 27.132812 33.941406 26.90625 C 33.347656 26.570312 33.058594 26.402344 32.8125 25.757812 C 32.742188 25.164062 32.730469 24.609375 32.753906 24.011719 C 32.757812 23.707031 32.757812 23.707031 32.761719 23.394531 C 32.816406 22.453125 32.871094 21.914062 33.464844 21.164062 C 33.996094 20.835938 34.464844 20.609375 35.0625 20.4375 C 34.96875 19.441406 34.433594 18.683594 33.925781 17.847656 C 33.792969 17.625 33.792969 17.625 33.65625 17.398438 C 33.441406 17.035156 33.21875 16.675781 33 16.3125 C 32.375 16.414062 31.929688 16.542969 31.40625 16.898438 C 30.75 17.25 30.75 17.25 30.257812 17.25 C 29.710938 17.019531 29.335938 16.6875 28.875 16.3125 C 28.261719 15.972656 27.632812 15.644531 26.960938 15.4375 C 26.625 15.1875 26.625 15.1875 26.515625 14.582031 C 26.507812 14.226562 26.507812 14.226562 26.496094 13.863281 C 26.542969 13.058594 26.542969 13.058594 26.25 12.375 C 25.917969 12.355469 25.585938 12.351562 25.253906 12.351562 C 25.054688 12.351562 24.851562 12.351562 24.640625 12.347656 C 24.429688 12.351562 24.21875 12.351562 24 12.351562 C 23.789062 12.351562 23.574219 12.351562 23.359375 12.347656 C 23.15625 12.351562 22.953125 12.351562 22.746094 12.351562 C 22.558594 12.351562 22.375 12.351562 22.183594 12.351562 C 21.757812 12.324219 21.757812 12.324219 21.5625 12.5625 Z M 21.5625 12.5625 "/>
<path style=" stroke:none;fill-rule:nonzero;fill:rgb(1.568628%,1.568628%,1.568628%);fill-opacity:1;" d="M 6.28125 14.070312 C 6.878906 14.300781 7.09375 14.574219 7.476562 15.082031 C 7.605469 15.25 7.730469 15.417969 7.863281 15.59375 C 7.992188 15.769531 8.117188 15.945312 8.25 16.125 C 8.378906 16.289062 8.507812 16.457031 8.636719 16.625 C 8.757812 16.785156 8.878906 16.945312 9 17.109375 C 9.164062 17.324219 9.164062 17.324219 9.328125 17.546875 C 9.617188 18.109375 9.617188 18.5 9.5625 19.125 C 9.375 19.476562 9.375 19.476562 9 19.6875 C 8.5 19.714844 8.003906 19.695312 7.5 19.6875 C 7.5 19.851562 7.503906 20.019531 7.503906 20.1875 C 7.515625 21.742188 7.523438 23.300781 7.53125 24.855469 C 7.53125 25.65625 7.535156 26.457031 7.542969 27.257812 C 7.546875 28.027344 7.550781 28.800781 7.554688 29.570312 C 7.554688 29.867188 7.554688 30.160156 7.558594 30.453125 C 7.5625 30.867188 7.5625 31.28125 7.5625 31.691406 C 7.566406 31.929688 7.566406 32.164062 7.566406 32.40625 C 7.492188 33.046875 7.394531 33.304688 6.9375 33.75 C 6.261719 33.96875 5.945312 34 5.296875 33.703125 C 4.875 33.375 4.875 33.375 4.5 32.8125 C 4.453125 32.246094 4.453125 32.246094 4.457031 31.542969 C 4.457031 31.417969 4.457031 31.289062 4.457031 31.15625 C 4.457031 30.730469 4.460938 30.308594 4.464844 29.886719 C 4.464844 29.59375 4.464844 29.300781 4.464844 29.003906 C 4.464844 28.234375 4.46875 27.460938 4.472656 26.691406 C 4.480469 25.902344 4.480469 25.113281 4.480469 24.324219 C 4.488281 22.78125 4.492188 21.234375 4.5 19.6875 C 4.296875 19.695312 4.089844 19.703125 3.878906 19.710938 C 3.1875 19.6875 3.1875 19.6875 2.625 19.3125 C 2.449219 18.902344 2.449219 18.902344 2.4375 18.375 C 2.917969 17.445312 3.484375 16.621094 4.125 15.796875 C 4.207031 15.691406 4.285156 15.585938 4.367188 15.476562 C 5.460938 14.058594 5.460938 14.058594 6.28125 14.070312 Z M 6.28125 14.070312 "/>
<path style=" stroke:none;fill-rule:nonzero;fill:rgb(0.784314%,0.784314%,0.784314%);fill-opacity:1;" d="M 30 2.625 C 30.578125 2.925781 31.09375 3.304688 31.617188 3.691406 C 31.757812 3.792969 31.898438 3.890625 32.042969 3.992188 C 33.480469 5.03125 33.480469 5.03125 33.9375 5.8125 C 33.945312 6.445312 33.828125 6.667969 33.386719 7.125 C 33.234375 7.238281 33.078125 7.355469 32.917969 7.476562 C 32.75 7.601562 32.578125 7.730469 32.40625 7.863281 C 32.230469 7.988281 32.054688 8.117188 31.875 8.25 C 31.628906 8.441406 31.628906 8.441406 31.371094 8.636719 C 31.214844 8.757812 31.054688 8.875 30.890625 9 C 30.675781 9.164062 30.675781 9.164062 30.453125 9.328125 C 29.890625 9.617188 29.5 9.617188 28.875 9.5625 C 28.523438 9.375 28.523438 9.375 28.3125 9 C 28.285156 8.5 28.304688 8.003906 28.3125 7.5 C 28.0625 7.5 28.0625 7.5 27.804688 7.503906 C 26.222656 7.515625 24.640625 7.523438 23.0625 7.53125 C 22.25 7.53125 21.433594 7.535156 20.625 7.542969 C 19.839844 7.546875 19.054688 7.550781 18.269531 7.550781 C 17.96875 7.554688 17.671875 7.554688 17.371094 7.558594 C 16.953125 7.5625 16.535156 7.5625 16.117188 7.5625 C 15.878906 7.566406 15.640625 7.566406 15.390625 7.566406 C 14.8125 7.5 14.8125 7.5 14.460938 7.25 C 14.136719 6.769531 14.085938 6.386719 14.0625 5.8125 C 14.289062 5.292969 14.46875 4.980469 14.941406 4.664062 C 15.527344 4.445312 16.023438 4.453125 16.648438 4.457031 C 16.773438 4.457031 16.902344 4.457031 17.03125 4.457031 C 17.445312 4.457031 17.863281 4.460938 18.277344 4.460938 C 18.566406 4.464844 18.855469 4.464844 19.144531 4.464844 C 19.90625 4.464844 20.664062 4.46875 21.421875 4.472656 C 22.199219 4.476562 22.972656 4.480469 23.75 4.480469 C 25.269531 4.484375 26.792969 4.492188 28.3125 4.5 C 28.308594 4.289062 28.304688 4.082031 28.300781 3.867188 C 28.3125 3.1875 28.3125 3.1875 28.523438 2.824219 C 29.0625 2.519531 29.378906 2.546875 30 2.625 Z M 30 2.625 "/>
<path style=" stroke:none;fill-rule:nonzero;fill:rgb(0.784314%,0.784314%,0.784314%);fill-opacity:1;" d="M 19.125 38.4375 C 19.476562 38.625 19.476562 38.625 19.6875 39 C 19.714844 39.5 19.695312 39.996094 19.6875 40.5 C 19.9375 40.5 19.9375 40.5 20.195312 40.496094 C 21.777344 40.484375 23.359375 40.476562 24.9375 40.46875 C 25.75 40.46875 26.566406 40.464844 27.375 40.457031 C 28.160156 40.453125 28.945312 40.449219 29.730469 40.449219 C 30.03125 40.445312 30.328125 40.445312 30.628906 40.441406 C 31.046875 40.4375 31.464844 40.4375 31.882812 40.4375 C 32.121094 40.433594 32.359375 40.433594 32.609375 40.433594 C 33.1875 40.5 33.1875 40.5 33.539062 40.75 C 33.863281 41.230469 33.914062 41.613281 33.9375 42.1875 C 33.710938 42.707031 33.53125 43.019531 33.058594 43.335938 C 32.472656 43.554688 31.976562 43.546875 31.351562 43.542969 C 31.164062 43.542969 31.164062 43.542969 30.96875 43.542969 C 30.554688 43.542969 30.136719 43.539062 29.722656 43.539062 C 29.433594 43.535156 29.144531 43.535156 28.855469 43.535156 C 28.09375 43.535156 27.335938 43.53125 26.578125 43.527344 C 25.800781 43.523438 25.027344 43.519531 24.25 43.519531 C 22.730469 43.515625 21.207031 43.507812 19.6875 43.5 C 19.691406 43.710938 19.695312 43.917969 19.699219 44.132812 C 19.6875 44.8125 19.6875 44.8125 19.476562 45.175781 C 18.9375 45.480469 18.621094 45.453125 18 45.375 C 17.421875 45.074219 16.90625 44.695312 16.382812 44.308594 C 16.171875 44.160156 16.171875 44.160156 15.957031 44.007812 C 14.519531 42.96875 14.519531 42.96875 14.0625 42.1875 C 14.054688 41.554688 14.171875 41.332031 14.613281 40.875 C 14.765625 40.761719 14.921875 40.644531 15.082031 40.523438 C 15.25 40.398438 15.421875 40.269531 15.59375 40.136719 C 15.769531 40.011719 15.945312 39.882812 16.125 39.75 C 16.371094 39.558594 16.371094 39.558594 16.628906 39.363281 C 16.785156 39.242188 16.945312 39.125 17.109375 39 C 17.324219 38.835938 17.324219 38.835938 17.546875 38.671875 C 18.109375 38.382812 18.5 38.382812 19.125 38.4375 Z M 19.125 38.4375 "/>
<path style=" stroke:none;fill-rule:nonzero;fill:rgb(1.176471%,1.176471%,1.176471%);fill-opacity:1;" d="M 42.75 14.25 C 43.226562 14.664062 43.472656 14.996094 43.566406 15.628906 C 43.589844 16.152344 43.585938 16.667969 43.570312 17.191406 C 43.570312 17.371094 43.570312 17.550781 43.570312 17.738281 C 43.550781 19.074219 43.550781 19.074219 43.125 19.5 C 43.003906 19.886719 43.003906 19.886719 42.9375 20.25 C 43.21875 20.34375 43.21875 20.34375 43.5 20.4375 C 43.367188 21.027344 43.171875 21.566406 42.9375 22.125 C 43.21875 22.21875 43.21875 22.21875 43.5 22.3125 C 43.5 24.292969 43.5 26.273438 43.5 28.3125 C 43.933594 28.3125 44.367188 28.3125 44.8125 28.3125 C 45.375 28.6875 45.375 28.6875 45.550781 29.097656 C 45.574219 30.242188 44.554688 31.324219 43.875 32.203125 C 43.753906 32.359375 43.753906 32.359375 43.632812 32.523438 C 42.785156 33.625 42.785156 33.625 42.1875 33.9375 C 41.566406 33.929688 41.324219 33.824219 40.875 33.386719 C 40.761719 33.234375 40.644531 33.078125 40.523438 32.917969 C 40.398438 32.75 40.269531 32.578125 40.136719 32.40625 C 40.011719 32.230469 39.882812 32.054688 39.75 31.875 C 39.621094 31.710938 39.492188 31.542969 39.363281 31.371094 C 39.242188 31.214844 39.125 31.054688 39 30.890625 C 38.890625 30.746094 38.78125 30.601562 38.671875 30.453125 C 38.382812 29.890625 38.382812 29.5 38.4375 28.875 C 38.625 28.523438 38.625 28.523438 39 28.3125 C 39.5 28.285156 39.996094 28.304688 40.5 28.3125 C 40.5 28.066406 40.5 28.066406 40.496094 27.8125 C 40.484375 26.253906 40.476562 24.699219 40.46875 23.144531 C 40.46875 22.34375 40.464844 21.542969 40.457031 20.746094 C 40.453125 19.972656 40.449219 19.199219 40.449219 18.425781 C 40.445312 18.132812 40.445312 17.839844 40.441406 17.542969 C 40.4375 17.132812 40.4375 16.71875 40.4375 16.308594 C 40.433594 15.953125 40.433594 15.953125 40.433594 15.597656 C 40.503906 14.953125 40.605469 14.695312 41.0625 14.25 C 41.738281 14.023438 42.066406 14.054688 42.75 14.25 Z M 42.75 14.25 "/>
<path style=" stroke:none;fill-rule:nonzero;fill:rgb(0.392157%,0.392157%,0%);fill-opacity:1;" d="M 37.941406 0.28125 C 38.144531 0.277344 38.34375 0.277344 38.550781 0.273438 C 38.875 0.277344 38.875 0.277344 39.203125 0.28125 C 39.539062 0.28125 39.539062 0.28125 39.878906 0.28125 C 40.347656 0.28125 40.820312 0.28125 41.289062 0.289062 C 42.011719 0.292969 42.730469 0.292969 43.449219 0.289062 C 43.90625 0.289062 44.363281 0.292969 44.820312 0.292969 C 45.035156 0.292969 45.25 0.292969 45.476562 0.292969 C 45.671875 0.292969 45.875 0.296875 46.082031 0.300781 C 46.34375 0.300781 46.34375 0.300781 46.613281 0.300781 C 47.144531 0.386719 47.308594 0.507812 47.625 0.9375 C 47.804688 1.480469 47.835938 1.828125 47.84375 2.390625 C 47.84375 2.574219 47.847656 2.753906 47.847656 2.941406 C 47.847656 3.132812 47.851562 3.332031 47.851562 3.53125 C 47.851562 3.734375 47.851562 3.933594 47.855469 4.140625 C 47.855469 4.566406 47.855469 4.992188 47.859375 5.417969 C 47.859375 6.066406 47.867188 6.714844 47.871094 7.367188 C 47.875 7.777344 47.875 8.195312 47.875 8.605469 C 47.875 8.800781 47.878906 8.992188 47.878906 9.195312 C 47.875 10.894531 47.875 10.894531 47.25 11.625 C 46.78125 11.859375 46.457031 11.839844 45.933594 11.847656 C 45.734375 11.847656 45.539062 11.851562 45.335938 11.851562 C 45.125 11.851562 44.910156 11.855469 44.691406 11.855469 C 44.472656 11.859375 44.253906 11.859375 44.03125 11.859375 C 43.566406 11.863281 43.105469 11.867188 42.640625 11.867188 C 41.933594 11.871094 41.226562 11.878906 40.515625 11.886719 C 40.070312 11.890625 39.621094 11.890625 39.171875 11.894531 C 38.960938 11.894531 38.746094 11.898438 38.527344 11.902344 C 38.328125 11.902344 38.132812 11.898438 37.929688 11.898438 C 37.753906 11.902344 37.582031 11.902344 37.402344 11.902344 C 36.777344 11.78125 36.5625 11.570312 36.1875 11.0625 C 36.09375 10.601562 36.09375 10.601562 36.089844 10.078125 C 36.089844 9.882812 36.085938 9.683594 36.082031 9.480469 C 36.085938 9.269531 36.085938 9.058594 36.089844 8.84375 C 36.085938 8.625 36.085938 8.40625 36.085938 8.183594 C 36.085938 7.722656 36.085938 7.261719 36.089844 6.800781 C 36.09375 6.097656 36.089844 5.390625 36.085938 4.6875 C 36.085938 4.238281 36.085938 3.792969 36.089844 3.347656 C 36.085938 3.132812 36.085938 2.921875 36.082031 2.707031 C 36.085938 2.511719 36.089844 2.3125 36.089844 2.109375 C 36.089844 1.9375 36.09375 1.765625 36.09375 1.585938 C 36.304688 0.550781 36.957031 0.28125 37.941406 0.28125 Z M 37.125 1.5 C 37.105469 1.78125 37.101562 2.058594 37.101562 2.339844 C 37.097656 2.519531 37.097656 2.699219 37.097656 2.882812 C 37.097656 3.078125 37.097656 3.273438 37.097656 3.472656 C 37.097656 3.671875 37.097656 3.871094 37.097656 4.074219 C 37.097656 4.496094 37.097656 4.917969 37.101562 5.339844 C 37.101562 5.984375 37.101562 6.632812 37.097656 7.277344 C 37.097656 7.683594 37.097656 8.09375 37.097656 8.5 C 37.097656 8.695312 37.097656 8.890625 37.097656 9.089844 C 37.097656 9.269531 37.097656 9.449219 37.101562 9.632812 C 37.101562 9.792969 37.101562 9.949219 37.101562 10.117188 C 37.101562 10.511719 37.101562 10.511719 37.3125 10.875 C 38.617188 10.878906 39.921875 10.882812 41.226562 10.886719 C 41.671875 10.886719 42.117188 10.886719 42.5625 10.890625 C 43.195312 10.890625 43.835938 10.890625 44.472656 10.894531 C 44.671875 10.894531 44.871094 10.894531 45.078125 10.898438 C 45.261719 10.898438 45.445312 10.898438 45.632812 10.898438 C 45.796875 10.898438 45.960938 10.898438 46.128906 10.898438 C 46.5 10.914062 46.5 10.914062 46.6875 10.6875 C 46.703125 10.398438 46.710938 10.113281 46.710938 9.828125 C 46.710938 9.550781 46.710938 9.550781 46.714844 9.269531 C 46.710938 9.070312 46.710938 8.871094 46.710938 8.664062 C 46.710938 8.464844 46.710938 8.257812 46.710938 8.050781 C 46.710938 7.621094 46.710938 7.1875 46.710938 6.757812 C 46.710938 6.097656 46.710938 5.433594 46.710938 4.773438 C 46.710938 4.355469 46.710938 3.9375 46.710938 3.519531 C 46.710938 3.320312 46.710938 3.125 46.714844 2.917969 C 46.710938 2.734375 46.710938 2.550781 46.710938 2.363281 C 46.710938 2.199219 46.710938 2.039062 46.710938 1.871094 C 46.726562 1.5 46.726562 1.5 46.5 1.3125 C 46.214844 1.292969 45.925781 1.289062 45.636719 1.289062 C 45.453125 1.289062 45.273438 1.289062 45.082031 1.285156 C 44.882812 1.285156 44.683594 1.289062 44.480469 1.289062 C 44.273438 1.289062 44.074219 1.289062 43.863281 1.289062 C 43.429688 1.289062 43 1.289062 42.570312 1.289062 C 41.910156 1.289062 41.246094 1.289062 40.585938 1.285156 C 40.167969 1.289062 39.75 1.289062 39.335938 1.289062 C 39.132812 1.289062 38.933594 1.285156 38.730469 1.285156 C 38.453125 1.289062 38.453125 1.289062 38.171875 1.289062 C 37.929688 1.289062 37.929688 1.289062 37.683594 1.289062 C 37.3125 1.269531 37.3125 1.269531 37.125 1.5 Z M 37.125 1.5 "/>
<path style=" stroke:none;fill-rule:nonzero;fill:rgb(3.137255%,1.176471%,0.392157%);fill-opacity:1;" d="M 6.5625 0.269531 C 7.265625 0.402344 7.539062 0.644531 8.0625 1.125 C 8.414062 1.640625 8.414062 1.640625 8.746094 2.234375 C 8.835938 2.394531 8.835938 2.394531 8.925781 2.558594 C 9.121094 2.902344 9.3125 3.25 9.503906 3.597656 C 9.703125 3.957031 9.902344 4.3125 10.105469 4.671875 C 10.234375 4.90625 10.367188 5.144531 10.5 5.378906 C 10.878906 6.058594 11.269531 6.726562 11.675781 7.386719 C 11.765625 7.527344 11.851562 7.671875 11.941406 7.816406 C 12.097656 8.074219 12.261719 8.328125 12.421875 8.578125 C 12.910156 9.371094 13.089844 9.949219 12.9375 10.875 C 12.625 11.355469 12.488281 11.546875 12 11.8125 C 11.199219 11.949219 10.40625 11.929688 9.597656 11.917969 C 9.246094 11.917969 9.246094 11.917969 8.886719 11.914062 C 8.390625 11.914062 7.898438 11.910156 7.40625 11.902344 C 6.769531 11.894531 6.140625 11.894531 5.507812 11.894531 C 4.902344 11.890625 4.296875 11.886719 3.691406 11.882812 C 3.464844 11.882812 3.234375 11.878906 3.003906 11.878906 C 2.792969 11.875 2.582031 11.875 2.363281 11.871094 C 2.085938 11.867188 2.085938 11.867188 1.800781 11.863281 C 1.296875 11.808594 0.988281 11.714844 0.5625 11.4375 C 0.128906 10.691406 0.175781 10.199219 0.375 9.375 C 0.617188 8.902344 0.871094 8.464844 1.148438 8.015625 C 1.316406 7.734375 1.488281 7.457031 1.65625 7.175781 C 1.75 7.023438 1.84375 6.867188 1.941406 6.707031 C 2.292969 6.121094 2.628906 5.523438 2.964844 4.925781 C 3.09375 4.707031 3.21875 4.488281 3.339844 4.269531 C 3.585938 3.835938 3.832031 3.402344 4.074219 2.96875 C 4.1875 2.765625 4.304688 2.566406 4.421875 2.359375 C 4.574219 2.089844 4.574219 2.089844 4.726562 1.816406 C 5.222656 1.070312 5.660156 0.4375 6.5625 0.269531 Z M 6.1875 1.5 C 6.105469 1.640625 6.027344 1.785156 5.941406 1.929688 C 5.632812 2.472656 5.320312 3.019531 5.011719 3.5625 C 4.804688 3.925781 4.597656 4.289062 4.394531 4.648438 C 3.792969 5.703125 3.191406 6.75 2.566406 7.78125 C 2.476562 7.925781 2.386719 8.074219 2.296875 8.222656 C 2.136719 8.484375 1.972656 8.746094 1.8125 9.003906 C 1.570312 9.382812 1.570312 9.382812 1.3125 9.9375 C 1.375 10.183594 1.4375 10.433594 1.5 10.6875 C 4.902344 10.6875 8.304688 10.6875 11.8125 10.6875 C 12.0625 10.140625 12.0625 10.140625 11.8125 9.683594 C 11.710938 9.507812 11.613281 9.335938 11.511719 9.15625 C 11.398438 8.964844 11.292969 8.769531 11.179688 8.570312 C 11.058594 8.363281 10.9375 8.15625 10.816406 7.945312 C 10.695312 7.734375 10.578125 7.527344 10.453125 7.308594 C 10.097656 6.683594 9.738281 6.0625 9.375 5.4375 C 9.277344 5.265625 9.175781 5.09375 9.074219 4.917969 C 8.128906 3.117188 8.128906 3.117188 6.9375 1.5 C 6.691406 1.5 6.441406 1.5 6.1875 1.5 Z M 6.1875 1.5 "/>
<path style=" stroke:none;fill-rule:nonzero;fill:rgb(1.176471%,0.392157%,0%);fill-opacity:1;" d="M 39.480469 36.101562 C 39.617188 36.097656 39.757812 36.097656 39.898438 36.097656 C 40.191406 36.09375 40.484375 36.09375 40.777344 36.09375 C 41.226562 36.09375 41.667969 36.085938 42.117188 36.078125 C 42.402344 36.078125 42.6875 36.074219 42.96875 36.078125 C 43.171875 36.070312 43.171875 36.070312 43.375 36.066406 C 44.085938 36.078125 44.40625 36.160156 44.96875 36.613281 C 45.308594 37.039062 45.597656 37.4375 45.859375 37.914062 C 45.976562 38.132812 45.976562 38.132812 46.097656 38.351562 C 46.214844 38.574219 46.214844 38.574219 46.335938 38.800781 C 46.417969 38.949219 46.496094 39.097656 46.578125 39.246094 C 46.734375 39.535156 46.890625 39.820312 47.042969 40.109375 C 47.222656 40.445312 47.410156 40.773438 47.601562 41.097656 C 47.867188 41.757812 47.789062 42.0625 47.625 42.75 C 47.367188 43.285156 47.367188 43.285156 47.046875 43.832031 C 46.929688 44.027344 46.8125 44.226562 46.695312 44.429688 C 46.570312 44.632812 46.449219 44.835938 46.324219 45.046875 C 46.203125 45.253906 46.082031 45.460938 45.957031 45.671875 C 45.058594 47.191406 45.058594 47.191406 44.625 47.625 C 44.136719 47.667969 43.667969 47.6875 43.179688 47.6875 C 43.035156 47.6875 42.894531 47.691406 42.746094 47.691406 C 42.441406 47.691406 42.136719 47.695312 41.835938 47.695312 C 41.371094 47.695312 40.90625 47.703125 40.441406 47.710938 C 40.148438 47.710938 39.851562 47.710938 39.558594 47.710938 C 39.351562 47.714844 39.351562 47.714844 39.136719 47.71875 C 38.515625 47.714844 38.140625 47.679688 37.632812 47.304688 C 37.03125 46.496094 36.542969 45.628906 36.046875 44.753906 C 35.933594 44.5625 35.820312 44.371094 35.703125 44.171875 C 35.597656 43.988281 35.492188 43.800781 35.382812 43.605469 C 35.285156 43.4375 35.1875 43.269531 35.085938 43.09375 C 34.746094 42.234375 34.75 41.550781 35.105469 40.695312 C 35.214844 40.519531 35.320312 40.339844 35.429688 40.15625 C 35.546875 39.960938 35.660156 39.765625 35.78125 39.5625 C 35.902344 39.363281 36.023438 39.160156 36.152344 38.953125 C 36.273438 38.75 36.394531 38.542969 36.519531 38.335938 C 37.851562 36.101562 37.851562 36.101562 39.480469 36.101562 Z M 37.945312 37.882812 C 37.792969 38.191406 37.640625 38.5 37.5 38.8125 C 37.339844 39.066406 37.179688 39.316406 37.015625 39.566406 C 36.867188 39.804688 36.722656 40.039062 36.574219 40.277344 C 36.496094 40.398438 36.421875 40.515625 36.339844 40.640625 C 35.925781 41.269531 35.925781 41.269531 35.863281 41.992188 C 36.011719 42.40625 36.191406 42.769531 36.40625 43.152344 C 36.492188 43.300781 36.570312 43.445312 36.65625 43.59375 C 36.742188 43.746094 36.824219 43.894531 36.914062 44.050781 C 37 44.199219 37.082031 44.351562 37.167969 44.503906 C 37.402344 44.921875 37.636719 45.335938 37.875 45.75 C 37.992188 46 37.992188 46 38.109375 46.253906 C 38.410156 46.738281 38.410156 46.738281 38.976562 46.859375 C 39.695312 46.929688 40.410156 46.984375 41.132812 47.003906 C 41.261719 47.007812 41.386719 47.011719 41.519531 47.015625 C 42.628906 47.03125 43.660156 47.003906 44.5625 46.292969 C 45.59375 45.042969 46.546875 43.269531 46.6875 41.625 C 46.496094 41.109375 46.496094 41.109375 46.179688 40.597656 C 46.015625 40.3125 46.015625 40.3125 45.847656 40.019531 C 45.730469 39.820312 45.613281 39.625 45.492188 39.421875 C 45.375 39.222656 45.261719 39.023438 45.140625 38.816406 C 44.671875 37.921875 44.671875 37.921875 44.0625 37.125 C 43.304688 37.050781 42.546875 37.035156 41.789062 37.019531 C 41.53125 37.011719 41.277344 37 41.023438 36.988281 C 39.242188 36.847656 39.242188 36.847656 37.945312 37.882812 Z M 37.945312 37.882812 "/>
<path style=" stroke:none;fill-rule:nonzero;fill:rgb(2.745098%,3.529412%,4.313726%);fill-opacity:1;" d="M 28.183594 18.476562 C 29.46875 19.5 30.320312 20.921875 30.75 22.5 C 30.949219 24.472656 30.75 25.980469 29.8125 27.75 C 29.503906 27.6875 29.195312 27.625 28.875 27.5625 C 29.125 26.8125 29.375 26.0625 29.625 25.3125 C 29.777344 23.535156 29.703125 22.140625 28.6875 20.625 C 28.574219 20.449219 28.464844 20.277344 28.347656 20.097656 C 27.117188 18.867188 25.683594 18.324219 23.953125 18.292969 C 22.621094 18.3125 21.726562 18.570312 20.625 19.3125 C 20.425781 19.441406 20.222656 19.566406 20.015625 19.699219 C 19.023438 20.617188 18.460938 21.886719 18.277344 23.207031 C 18.226562 24.996094 18.550781 26.308594 19.523438 27.796875 C 21.078125 29.285156 22.496094 29.664062 24.59375 29.644531 C 25.40625 29.621094 26.195312 29.550781 27 29.4375 C 27 29.683594 27 29.933594 27 30.1875 C 25.449219 30.960938 23.625 31 21.949219 30.625 C 19.769531 29.835938 18.523438 28.328125 17.460938 26.34375 C 16.890625 24.59375 16.984375 22.539062 17.800781 20.894531 C 18.714844 19.289062 19.992188 18.070312 21.75 17.4375 C 24.035156 16.867188 26.222656 17.167969 28.183594 18.476562 Z M 28.183594 18.476562 "/>
<path style=" stroke:none;fill-rule:nonzero;fill:rgb(1.176471%,0.784314%,0%);fill-opacity:1;" d="M 8.851562 36.71875 C 9.1875 36.9375 9.1875 36.9375 9.375 37.5 C 9.25 37.625 9.125 37.746094 9 37.875 C 8.457031 37.8125 7.972656 37.65625 7.453125 37.488281 C 5.964844 37.117188 4.953125 37.234375 3.605469 37.984375 C 2.5625 38.648438 1.863281 39.507812 1.5 40.6875 C 1.304688 42.136719 1.464844 43.378906 2.25 44.625 C 3.0625 45.585938 4.070312 46.414062 5.355469 46.550781 C 6.953125 46.605469 8.117188 46.316406 9.347656 45.265625 C 10.273438 44.292969 10.710938 43.105469 10.734375 41.765625 C 10.707031 41.085938 10.707031 41.085938 10.570312 40.523438 C 10.535156 40.324219 10.535156 40.324219 10.5 40.125 C 10.625 40 10.746094 39.878906 10.875 39.75 C 11.273438 39.820312 11.273438 39.820312 11.625 39.9375 C 12.078125 41.457031 11.972656 43.132812 11.3125 44.570312 C 10.421875 46.097656 9.210938 47.140625 7.5 47.625 C 5.503906 47.847656 3.929688 47.6875 2.25 46.5 C 1.121094 45.539062 0.34375 44.039062 0.1875 42.5625 C 0.0625 40.976562 0.511719 39.5 1.5 38.25 C 3.488281 36.054688 6.128906 35.558594 8.851562 36.71875 Z M 8.851562 36.71875 "/>
<path style=" stroke:none;fill-rule:nonzero;fill:rgb(89.019608%,89.019608%,89.019608%);fill-opacity:1;" d="M 41.625 15.1875 C 41.871094 15.25 42.121094 15.3125 42.375 15.375 C 42.4375 16.613281 42.5 17.851562 42.5625 19.125 C 42.6875 19.1875 42.808594 19.25 42.9375 19.3125 C 42.9375 19.621094 42.9375 19.929688 42.9375 20.25 C 43.125 20.3125 43.308594 20.375 43.5 20.4375 C 43.359375 21.160156 43.089844 21.972656 42.5625 22.5 C 42.546875 22.984375 42.539062 23.46875 42.542969 23.953125 C 42.542969 24.171875 42.542969 24.171875 42.546875 24.394531 C 42.546875 24.859375 42.546875 25.328125 42.550781 25.792969 C 42.550781 26.109375 42.554688 26.425781 42.554688 26.738281 C 42.554688 27.515625 42.558594 28.289062 42.5625 29.0625 C 43.179688 29.125 43.800781 29.1875 44.4375 29.25 C 44.152344 30.113281 43.6875 30.753906 43.136719 31.464844 C 43.054688 31.578125 42.972656 31.6875 42.886719 31.804688 C 42.667969 32.089844 42.425781 32.359375 42.1875 32.625 C 42 32.625 41.816406 32.625 41.625 32.625 C 41.277344 32.210938 40.96875 31.804688 40.664062 31.359375 C 40.535156 31.179688 40.535156 31.179688 40.40625 31 C 39.972656 30.382812 39.75 30 39.5625 29.25 C 40.179688 29.25 40.800781 29.25 41.4375 29.25 C 41.4375 29.078125 41.4375 28.902344 41.4375 28.726562 C 41.433594 27.09375 41.429688 25.460938 41.429688 23.832031 C 41.425781 22.992188 41.425781 22.15625 41.421875 21.316406 C 41.421875 20.507812 41.421875 19.699219 41.421875 18.890625 C 41.417969 18.582031 41.417969 18.273438 41.417969 17.964844 C 41.417969 17.53125 41.417969 17.101562 41.417969 16.671875 C 41.414062 16.421875 41.414062 16.175781 41.414062 15.925781 C 41.4375 15.375 41.4375 15.375 41.625 15.1875 Z M 41.625 15.1875 "/>
<path style=" stroke:none;fill-rule:nonzero;fill:rgb(89.803922%,89.803922%,89.803922%);fill-opacity:1;" d="M 29.25 3.5625 C 30.007812 3.941406 30.667969 4.375 31.359375 4.863281 C 31.542969 4.988281 31.542969 4.988281 31.730469 5.113281 C 32.039062 5.332031 32.332031 5.570312 32.625 5.8125 C 32.625 6.375 32.625 6.375 32.355469 6.644531 C 32.234375 6.738281 32.109375 6.828125 31.980469 6.921875 C 31.847656 7.023438 31.714844 7.121094 31.578125 7.222656 C 31.4375 7.328125 31.292969 7.429688 31.148438 7.535156 C 31.007812 7.640625 30.867188 7.746094 30.722656 7.851562 C 29.675781 8.625 29.675781 8.625 29.25 8.625 C 29.1875 8.007812 29.125 7.386719 29.0625 6.75 C 24.546875 6.6875 20.027344 6.625 15.375 6.5625 C 15.3125 6.316406 15.25 6.066406 15.1875 5.8125 C 15.542969 5.457031 16.179688 5.59375 16.652344 5.585938 C 16.851562 5.582031 16.851562 5.582031 17.058594 5.578125 C 17.5 5.574219 17.945312 5.570312 18.386719 5.566406 C 18.695312 5.5625 19 5.558594 19.308594 5.554688 C 20.113281 5.542969 20.925781 5.535156 21.734375 5.527344 C 22.558594 5.515625 23.382812 5.503906 24.207031 5.496094 C 25.824219 5.476562 27.445312 5.457031 29.0625 5.4375 C 29.125 4.820312 29.1875 4.199219 29.25 3.5625 Z M 29.25 3.5625 "/>
<path style=" stroke:none;fill-rule:nonzero;fill:rgb(89.803922%,89.803922%,89.803922%);fill-opacity:1;" d="M 18.375 39.375 C 18.5 39.375 18.621094 39.375 18.75 39.375 C 18.8125 39.992188 18.875 40.613281 18.9375 41.25 C 23.453125 41.3125 27.972656 41.375 32.625 41.4375 C 32.71875 41.808594 32.71875 41.808594 32.8125 42.1875 C 32.457031 42.542969 31.820312 42.40625 31.347656 42.414062 C 31.148438 42.417969 31.148438 42.417969 30.941406 42.421875 C 30.5 42.425781 30.054688 42.429688 29.613281 42.433594 C 29.304688 42.4375 29 42.441406 28.691406 42.445312 C 27.886719 42.457031 27.074219 42.464844 26.265625 42.472656 C 25.441406 42.484375 24.617188 42.496094 23.792969 42.503906 C 22.175781 42.523438 20.554688 42.542969 18.9375 42.5625 C 18.875 43.179688 18.8125 43.800781 18.75 44.4375 C 17.992188 44.058594 17.332031 43.625 16.640625 43.136719 C 16.519531 43.054688 16.398438 42.972656 16.269531 42.886719 C 15.960938 42.667969 15.667969 42.429688 15.375 42.1875 C 15.375 42 15.375 41.816406 15.375 41.625 C 15.628906 41.375 15.628906 41.375 15.984375 41.125 C 16.109375 41.035156 16.234375 40.945312 16.363281 40.851562 C 16.5 40.757812 16.632812 40.664062 16.769531 40.570312 C 17.03125 40.382812 17.292969 40.199219 17.554688 40.011719 C 17.671875 39.929688 17.789062 39.847656 17.90625 39.765625 C 18.183594 39.578125 18.183594 39.578125 18.375 39.375 Z M 18.375 39.375 "/>
<path style=" stroke:none;fill-rule:nonzero;fill:rgb(89.411765%,89.411765%,89.411765%);fill-opacity:1;" d="M 6 15.1875 C 6.960938 16.058594 7.753906 17.089844 8.4375 18.1875 C 8.4375 18.375 8.4375 18.558594 8.4375 18.75 C 7.820312 18.75 7.199219 18.75 6.5625 18.75 C 6.5625 23.328125 6.5625 27.90625 6.5625 32.625 C 6.191406 32.71875 6.191406 32.71875 5.8125 32.8125 C 5.457031 32.457031 5.59375 31.820312 5.585938 31.347656 C 5.582031 31.214844 5.582031 31.078125 5.578125 30.941406 C 5.574219 30.5 5.570312 30.054688 5.566406 29.613281 C 5.5625 29.304688 5.558594 29 5.554688 28.691406 C 5.542969 27.886719 5.535156 27.074219 5.527344 26.265625 C 5.515625 25.441406 5.503906 24.617188 5.496094 23.792969 C 5.476562 22.175781 5.457031 20.554688 5.4375 18.9375 C 4.820312 18.875 4.199219 18.8125 3.5625 18.75 C 3.847656 17.878906 4.324219 17.253906 4.886719 16.546875 C 4.972656 16.4375 5.058594 16.324219 5.148438 16.210938 C 5.769531 15.417969 5.769531 15.417969 6 15.1875 Z M 6 15.1875 "/>
<path style=" stroke:none;fill-rule:nonzero;fill:rgb(3.921569%,5.882353%,5.098039%);fill-opacity:1;" d="M 26.625 21.5625 C 27.070312 21.75 27.070312 21.75 27.375 22.125 C 27.515625 22.890625 27.5625 23.332031 27.140625 23.996094 C 26.796875 24.394531 26.4375 24.757812 26.0625 25.125 C 25.917969 25.273438 25.773438 25.425781 25.625 25.582031 C 24.277344 26.976562 24.277344 26.976562 23.625 27.1875 C 22.390625 27.148438 21.820312 26.488281 21.003906 25.632812 C 20.636719 25.144531 20.488281 24.90625 20.460938 24.304688 C 20.625 23.625 20.625 23.625 20.917969 23.144531 C 21.570312 22.757812 21.964844 22.882812 22.6875 23.0625 C 22.941406 23.183594 23.191406 23.304688 23.4375 23.4375 C 23.613281 23.257812 23.613281 23.257812 23.792969 23.074219 C 23.949219 22.921875 24.097656 22.765625 24.257812 22.605469 C 24.410156 22.453125 24.5625 22.296875 24.71875 22.136719 C 25.355469 21.53125 25.753906 21.492188 26.625 21.5625 Z M 26.625 21.5625 "/>
<path style=" stroke:none;fill-rule:nonzero;fill:rgb(65.882355%,65.882355%,65.882355%);fill-opacity:1;" d="M 26.785156 18.699219 C 27.683594 19.230469 28.515625 19.910156 29.0625 20.8125 C 29.0625 20.9375 29.0625 21.058594 29.0625 21.1875 C 28.554688 20.972656 28.242188 20.75 27.832031 20.367188 C 26.527344 19.269531 24.925781 18.996094 23.265625 19.050781 C 21.480469 19.277344 20.078125 20.421875 18.75 21.5625 C 19.289062 19.902344 20.453125 19.148438 21.9375 18.375 C 23.453125 17.871094 25.347656 18.027344 26.785156 18.699219 Z M 26.785156 18.699219 "/>
<path style=" stroke:none;fill-rule:nonzero;fill:rgb(96.862745%,88.627452%,65.098041%);fill-opacity:1;" d="M 3.984375 39.046875 C 4.09375 39.09375 4.203125 39.140625 4.3125 39.1875 C 4.226562 39.742188 4.082031 39.992188 3.738281 40.453125 C 3.304688 41.179688 3.214844 41.746094 3.375 42.5625 C 3.546875 42.964844 3.738281 43.335938 3.960938 43.714844 C 4.125 44.0625 4.125 44.0625 4.125 44.8125 C 3.703125 44.800781 3.703125 44.800781 3.1875 44.625 C 2.296875 43.488281 2.125 42.28125 2.25 40.875 C 2.539062 40.09375 3.011719 38.9375 3.984375 39.046875 Z M 3.984375 39.046875 "/>
<path style=" stroke:none;fill-rule:nonzero;fill:rgb(6.666667%,70.588237%,40.392157%);fill-opacity:1;" d="M 26.4375 22.5 C 26.394531 23.558594 25.691406 24.117188 24.984375 24.820312 C 24.867188 24.941406 24.75 25.066406 24.632812 25.191406 C 23.765625 26.058594 23.765625 26.058594 23.109375 26.078125 C 22.449219 25.761719 21.972656 25.359375 21.5625 24.75 C 21.585938 24.210938 21.585938 24.210938 21.75 23.8125 C 22.214844 24.027344 22.507812 24.195312 22.875 24.5625 C 23.539062 24.546875 23.789062 24.394531 24.289062 23.945312 C 24.445312 23.773438 24.601562 23.601562 24.761719 23.425781 C 25.605469 22.5 25.605469 22.5 26.4375 22.5 Z M 26.4375 22.5 "/>
<path style=" stroke:none;fill-rule:nonzero;fill:rgb(99.607843%,76.47059%,72.549021%);fill-opacity:1;" d="M 39.1875 38.0625 C 39.375 38.125 39.558594 38.1875 39.75 38.25 C 39.628906 39.398438 39.132812 40.128906 38.511719 41.082031 C 38.210938 41.703125 38.230469 41.917969 38.4375 42.5625 C 38.5 42.875 38.5625 43.1875 38.625 43.5 C 38.378906 43.5625 38.128906 43.625 37.875 43.6875 C 37.710938 43.457031 37.550781 43.226562 37.394531 42.996094 C 37.304688 42.867188 37.21875 42.738281 37.125 42.609375 C 36.875 42.046875 36.925781 41.832031 37.125 41.25 C 37.378906 40.753906 37.664062 40.28125 37.957031 39.808594 C 38.035156 39.683594 38.109375 39.554688 38.1875 39.421875 C 38.492188 38.925781 38.773438 38.476562 39.1875 38.0625 Z M 39.1875 38.0625 "/>
<path style=" stroke:none;fill-rule:nonzero;fill:rgb(96.862745%,88.627452%,64.313728%);fill-opacity:1;" d="M 38.25 2.25 C 38.621094 2.34375 38.621094 2.34375 39 2.4375 C 39 4.046875 39 5.65625 39 7.3125 C 38.753906 7.375 38.503906 7.4375 38.25 7.5 C 37.917969 7.167969 38.039062 6.683594 38.039062 6.234375 C 38.039062 6.015625 38.035156 5.796875 38.035156 5.574219 C 38.039062 5.34375 38.039062 5.109375 38.039062 4.875 C 38.039062 4.644531 38.039062 4.414062 38.035156 4.175781 C 38.035156 3.960938 38.039062 3.742188 38.039062 3.515625 C 38.039062 3.3125 38.039062 3.109375 38.039062 2.902344 C 38.0625 2.4375 38.0625 2.4375 38.25 2.25 Z M 38.25 2.25 "/>
<path style=" stroke:none;fill-rule:nonzero;fill:rgb(99.607843%,76.862746%,73.333335%);fill-opacity:1;" d="M 6.1875 3.375 C 6.496094 3.4375 6.804688 3.5 7.125 3.5625 C 6.84375 4.582031 6.355469 5.378906 5.789062 6.257812 C 5.703125 6.394531 5.613281 6.535156 5.523438 6.675781 C 5.308594 7.015625 5.09375 7.351562 4.875 7.6875 C 4.628906 7.625 4.378906 7.5625 4.125 7.5 C 4.21875 6.503906 4.75 5.746094 5.261719 4.910156 C 5.347656 4.761719 5.4375 4.613281 5.53125 4.460938 C 5.75 4.097656 5.96875 3.738281 6.1875 3.375 Z M 6.1875 3.375 "/>
<path style=" stroke:none;fill-rule:nonzero;fill:rgb(96.862745%,88.235295%,63.921571%);fill-opacity:1;" d="M 5.824219 44.800781 C 6.097656 44.804688 6.097656 44.804688 6.375 44.8125 C 6.480469 45.175781 6.480469 45.175781 6.5625 45.5625 C 6.375 45.75 6.375 45.75 5.800781 45.761719 C 5.621094 45.757812 5.4375 45.753906 5.25 45.75 C 5.144531 45.386719 5.144531 45.386719 5.0625 45 C 5.25 44.8125 5.25 44.8125 5.824219 44.800781 Z M 5.824219 44.800781 "/>
<path style=" stroke:none;fill-rule:nonzero;fill:rgb(96.862745%,87.843138%,62.352943%);fill-opacity:1;" d="M 38.25 8.4375 C 38.636719 8.519531 38.636719 8.519531 39 8.625 C 39 8.996094 39 9.367188 39 9.75 C 38.636719 9.855469 38.636719 9.855469 38.25 9.9375 C 38.0625 9.75 38.0625 9.75 38.039062 9.1875 C 38.0625 8.625 38.0625 8.625 38.25 8.4375 Z M 38.25 8.4375 "/>
<path style=" stroke:none;fill-rule:nonzero;fill:rgb(99.607843%,76.47059%,72.941178%);fill-opacity:1;" d="M 3.375 8.4375 C 3.773438 8.507812 3.773438 8.507812 4.125 8.625 C 4.0625 8.933594 4 9.242188 3.9375 9.5625 C 3.628906 9.625 3.320312 9.6875 3 9.75 C 2.976562 9.304688 2.976562 9.304688 3 8.8125 C 3.125 8.6875 3.246094 8.566406 3.375 8.4375 Z M 3.375 8.4375 "/>
<path style=" stroke:none;fill-rule:nonzero;fill:rgb(99.607843%,76.862746%,72.941178%);fill-opacity:1;" d="M 38.625 44.4375 C 39.089844 44.53125 39.089844 44.53125 39.5625 44.625 C 39.625 44.933594 39.6875 45.242188 39.75 45.5625 C 39.503906 45.625 39.253906 45.6875 39 45.75 C 38.625 45.1875 38.625 45.1875 38.625 44.4375 Z M 38.625 44.4375 "/>
<path style=" stroke:none;fill-rule:nonzero;fill:rgb(5.882353%,5.098039%,0.392157%);fill-opacity:1;" d="M 9.75 38.0625 C 10.214844 38.15625 10.214844 38.15625 10.6875 38.25 C 10.6875 38.496094 10.6875 38.746094 10.6875 39 C 10.324219 39.105469 10.324219 39.105469 9.9375 39.1875 C 9.75 39 9.75 39 9.738281 38.519531 C 9.742188 38.367188 9.746094 38.21875 9.75 38.0625 Z M 9.75 38.0625 "/>
<path style=" stroke:none;fill-rule:nonzero;fill:rgb(3.921569%,3.921569%,3.921569%);fill-opacity:1;" d="M 42.75 20.25 C 42.996094 20.3125 43.246094 20.375 43.5 20.4375 C 43.429688 20.800781 43.429688 20.800781 43.3125 21.1875 C 43.125 21.28125 43.125 21.28125 42.9375 21.375 C 42.75 21.25 42.566406 21.128906 42.375 21 C 42.5 20.753906 42.621094 20.503906 42.75 20.25 Z M 42.75 20.25 "/>
<path style=" stroke:none;fill-rule:nonzero;fill:rgb(3.529412%,4.313726%,5.098039%);fill-opacity:1;" d="M 27.9375 28.3125 C 28.125 28.375 28.308594 28.4375 28.5 28.5 C 28.5 28.746094 28.5 28.996094 28.5 29.25 C 28.253906 29.1875 28.003906 29.125 27.75 29.0625 C 27.8125 28.816406 27.875 28.566406 27.9375 28.3125 Z M 27.9375 28.3125 "/>
</g>
</svg>
