<?xml version="1.0" encoding="UTF-8"?>
<svg xmlns="http://www.w3.org/2000/svg" xmlns:xlink="http://www.w3.org/1999/xlink" width="48" height="48" viewBox="0 0 48 48" version="1.1">
<g id="surface1">
<path style=" stroke:none;fill-rule:nonzero;fill:rgb(99.607843%,28.627452%,28.627452%);fill-opacity:1;" d="M 0 1.5 C 2.722656 1.5 5.445312 1.5 8.25 1.5 C 8.808594 3.507812 9.347656 5.464844 9.75 7.5 C 9.933594 7.441406 10.117188 7.378906 10.308594 7.316406 C 11.097656 7.089844 11.839844 7.070312 12.65625 7.078125 C 12.859375 7.078125 12.859375 7.078125 13.066406 7.074219 C 13.964844 7.078125 14.710938 7.21875 15.5625 7.5 C 15.628906 7.179688 15.628906 7.179688 15.699219 6.851562 C 15.761719 6.5625 15.828125 6.269531 15.890625 5.976562 C 15.921875 5.835938 15.949219 5.699219 15.980469 5.554688 C 16.28125 4.175781 16.671875 2.863281 17.0625 1.5 C 19.785156 1.5 22.507812 1.5 25.3125 1.5 C 25.3125 2.429688 25.3125 3.355469 25.3125 4.3125 C 23.394531 4.3125 21.476562 4.3125 19.5 4.3125 C 19.21875 5.558594 19.21875 5.558594 18.945312 6.804688 C 18.835938 7.3125 18.714844 7.816406 18.582031 8.316406 C 18.34375 9.25 18.34375 9.25 18.550781 10.164062 C 18.710938 10.414062 18.886719 10.664062 19.066406 10.910156 C 19.507812 11.519531 19.671875 12.210938 19.703125 12.960938 C 19.753906 14.101562 20.109375 14.640625 20.839844 15.503906 C 22.847656 18.023438 22.5 20.804688 22.5 24 C 29.058594 24 35.617188 24 42.375 24 C 42.4375 25.359375 42.5 26.722656 42.5625 28.125 C 42.871094 27.816406 43.179688 27.507812 43.5 27.1875 C 44.378906 26.601562 45.285156 26.703125 46.3125 26.8125 C 47.171875 27.21875 47.59375 27.648438 48 28.5 C 48.054688 29.042969 48.078125 29.542969 48.074219 30.085938 C 48.078125 30.324219 48.078125 30.324219 48.078125 30.5625 C 48.082031 31.082031 48.082031 31.601562 48.082031 32.121094 C 48.082031 32.484375 48.082031 32.84375 48.085938 33.207031 C 48.085938 33.964844 48.085938 34.722656 48.085938 35.480469 C 48.082031 36.449219 48.085938 37.417969 48.089844 38.390625 C 48.09375 39.136719 48.09375 39.882812 48.09375 40.628906 C 48.09375 40.984375 48.09375 41.34375 48.09375 41.703125 C 48.097656 42.203125 48.097656 42.703125 48.09375 43.203125 C 48.09375 43.351562 48.097656 43.496094 48.097656 43.648438 C 48.085938 44.617188 47.886719 45.164062 47.25 45.9375 C 46.269531 46.699219 45.253906 46.644531 44.0625 46.5 C 43.199219 46.089844 42.796875 45.65625 42.375 44.8125 C 42.300781 44.257812 42.300781 44.257812 42.292969 43.640625 C 42.289062 43.40625 42.285156 43.171875 42.28125 42.933594 C 42.28125 42.683594 42.28125 42.429688 42.28125 42.179688 C 42.277344 41.917969 42.273438 41.660156 42.269531 41.398438 C 42.261719 40.71875 42.253906 40.039062 42.25 39.359375 C 42.242188 38.664062 42.234375 37.96875 42.226562 37.273438 C 42.210938 35.910156 42.199219 34.550781 42.1875 33.1875 C 42.101562 33.390625 42.015625 33.597656 41.925781 33.808594 C 41.195312 35.550781 39.941406 36.871094 38.25 37.6875 C 37.125 38.089844 36.085938 38.121094 34.894531 38.117188 C 34.699219 38.121094 34.503906 38.121094 34.304688 38.121094 C 33.894531 38.121094 33.484375 38.121094 33.074219 38.121094 C 32.453125 38.121094 31.828125 38.125 31.203125 38.128906 C 30.804688 38.128906 30.40625 38.128906 30.007812 38.128906 C 29.820312 38.132812 29.636719 38.132812 29.445312 38.136719 C 27.382812 38.121094 25.726562 37.347656 24.234375 35.929688 C 23.46875 35.125 22.929688 34.285156 22.6875 33.1875 C 22.6875 33.324219 22.683594 33.457031 22.683594 33.59375 C 22.671875 34.210938 22.65625 34.824219 22.640625 35.4375 C 22.640625 35.648438 22.636719 35.859375 22.632812 36.078125 C 22.589844 37.546875 22.398438 38.625 21.421875 39.753906 C 21.320312 39.839844 21.214844 39.921875 21.105469 40.007812 C 20.949219 40.136719 20.949219 40.136719 20.789062 40.269531 C 20.0625 40.746094 19.410156 40.921875 18.546875 40.914062 C 18.285156 40.910156 18.285156 40.910156 18.019531 40.910156 C 17.75 40.902344 17.75 40.902344 17.472656 40.898438 C 17.289062 40.898438 17.105469 40.894531 16.917969 40.894531 C 16.464844 40.886719 16.015625 40.882812 15.5625 40.875 C 15.566406 41.117188 15.574219 41.363281 15.582031 41.617188 C 15.585938 41.9375 15.59375 42.261719 15.597656 42.585938 C 15.601562 42.746094 15.609375 42.90625 15.609375 43.074219 C 15.621094 44.050781 15.550781 44.71875 15 45.5625 C 14.027344 46.4375 13.425781 46.566406 12.144531 46.554688 C 11.242188 46.460938 10.738281 46.023438 10.160156 45.363281 C 9.796875 44.769531 9.726562 44.285156 9.730469 43.601562 C 9.734375 43.445312 9.734375 43.285156 9.734375 43.121094 C 9.734375 42.875 9.734375 42.875 9.738281 42.621094 C 9.738281 42.453125 9.742188 42.285156 9.742188 42.113281 C 9.742188 41.699219 9.746094 41.289062 9.75 40.875 C 9.640625 40.878906 9.527344 40.882812 9.414062 40.886719 C 8.902344 40.902344 8.386719 40.914062 7.875 40.921875 C 7.699219 40.925781 7.523438 40.933594 7.34375 40.941406 C 5.964844 40.960938 4.984375 40.707031 3.933594 39.796875 C 3.847656 39.695312 3.765625 39.589844 3.679688 39.480469 C 3.59375 39.375 3.507812 39.273438 3.417969 39.164062 C 2.761719 38.160156 2.757812 37.257812 2.761719 36.09375 C 2.761719 35.914062 2.761719 35.738281 2.757812 35.554688 C 2.757812 34.964844 2.757812 34.378906 2.757812 33.789062 C 2.757812 33.378906 2.753906 32.96875 2.753906 32.558594 C 2.753906 31.695312 2.753906 30.835938 2.753906 29.976562 C 2.753906 28.875 2.75 27.777344 2.746094 26.679688 C 2.746094 25.828125 2.742188 24.984375 2.746094 24.136719 C 2.746094 23.730469 2.742188 23.324219 2.742188 22.921875 C 2.738281 22.351562 2.742188 21.785156 2.742188 21.214844 C 2.742188 21.046875 2.738281 20.882812 2.738281 20.714844 C 2.757812 18.601562 3.507812 16.347656 5.015625 14.824219 C 5.5625 14.082031 5.609375 13.445312 5.726562 12.546875 C 5.863281 11.667969 6.152344 10.964844 6.714844 10.265625 C 7.09375 9.390625 6.773438 8.589844 6.5625 7.6875 C 6.46875 7.25 6.371094 6.816406 6.277344 6.378906 C 6.125 5.6875 5.96875 5 5.8125 4.3125 C 3.894531 4.3125 1.976562 4.3125 0 4.3125 C 0 3.382812 0 2.457031 0 1.5 Z M 0 1.5 "/>
<path style=" stroke:none;fill-rule:nonzero;fill:rgb(99.607843%,82.745099%,0.392157%);fill-opacity:1;" d="M 0 1.5 C 2.722656 1.5 5.445312 1.5 8.25 1.5 C 8.808594 3.507812 9.347656 5.464844 9.75 7.5 C 9.933594 7.441406 10.117188 7.378906 10.308594 7.316406 C 11.097656 7.089844 11.839844 7.070312 12.65625 7.078125 C 12.859375 7.078125 12.859375 7.078125 13.066406 7.074219 C 13.964844 7.078125 14.710938 7.21875 15.5625 7.5 C 15.628906 7.179688 15.628906 7.179688 15.699219 6.851562 C 15.761719 6.5625 15.828125 6.269531 15.890625 5.976562 C 15.921875 5.835938 15.949219 5.699219 15.980469 5.554688 C 16.28125 4.175781 16.671875 2.863281 17.0625 1.5 C 19.785156 1.5 22.507812 1.5 25.3125 1.5 C 25.3125 2.429688 25.3125 3.355469 25.3125 4.3125 C 23.394531 4.3125 21.476562 4.3125 19.5 4.3125 C 19.21875 5.558594 19.21875 5.558594 18.945312 6.804688 C 18.835938 7.3125 18.714844 7.816406 18.582031 8.316406 C 18.34375 9.25 18.34375 9.25 18.550781 10.164062 C 18.785156 10.546875 18.785156 10.546875 19.058594 10.867188 C 19.957031 12.222656 19.8125 14.007812 19.6875 15.5625 C 19.199219 17.523438 17.953125 19.09375 16.3125 20.25 C 14.46875 21.167969 12.644531 21.546875 10.617188 21.023438 C 9.375 20.539062 8.421875 19.894531 7.5 18.9375 C 7.332031 18.769531 7.167969 18.605469 6.996094 18.433594 C 5.621094 16.652344 5.410156 14.722656 5.625 12.5625 C 5.769531 11.886719 6 11.324219 6.40625 10.753906 C 6.871094 10.078125 6.988281 9.667969 6.84375 8.847656 C 6.753906 8.460938 6.660156 8.074219 6.5625 7.6875 C 6.464844 7.253906 6.371094 6.816406 6.277344 6.378906 C 6.125 5.691406 5.96875 5 5.8125 4.3125 C 3.894531 4.3125 1.976562 4.3125 0 4.3125 C 0 3.382812 0 2.457031 0 1.5 Z M 0 1.5 "/>
<path style=" stroke:none;fill-rule:nonzero;fill:rgb(99.215686%,41.960785%,41.960785%);fill-opacity:1;" d="M 5.4375 14.25 C 5.5 14.25 5.5625 14.25 5.625 14.25 C 5.6875 14.597656 5.6875 14.597656 5.753906 14.953125 C 6.21875 16.972656 6.941406 18.601562 8.625 19.875 C 9.925781 20.652344 11.039062 20.882812 12.5625 21.1875 C 12.5625 23.042969 12.5625 24.898438 12.5625 26.8125 C 12.066406 27 11.574219 27.183594 11.0625 27.375 C 10.355469 27.914062 10.167969 28.199219 10.039062 29.078125 C 9.996094 29.824219 9.988281 30.566406 9.992188 31.316406 C 9.988281 31.59375 9.984375 31.871094 9.984375 32.144531 C 9.976562 32.867188 9.976562 33.589844 9.972656 34.3125 C 9.972656 35.054688 9.964844 35.792969 9.957031 36.53125 C 9.945312 37.976562 9.9375 39.425781 9.9375 40.875 C 9.28125 40.898438 8.625 40.910156 7.96875 40.921875 C 7.785156 40.925781 7.601562 40.933594 7.410156 40.941406 C 6.003906 40.960938 5.027344 40.742188 3.933594 39.796875 C 3.847656 39.695312 3.765625 39.589844 3.679688 39.480469 C 3.59375 39.375 3.507812 39.273438 3.417969 39.164062 C 2.761719 38.160156 2.757812 37.257812 2.761719 36.09375 C 2.761719 35.914062 2.761719 35.738281 2.757812 35.554688 C 2.757812 34.964844 2.757812 34.378906 2.757812 33.789062 C 2.757812 33.378906 2.753906 32.96875 2.753906 32.558594 C 2.753906 31.695312 2.753906 30.835938 2.753906 29.976562 C 2.753906 28.875 2.75 27.777344 2.746094 26.679688 C 2.746094 25.828125 2.742188 24.984375 2.746094 24.136719 C 2.746094 23.730469 2.742188 23.324219 2.742188 22.921875 C 2.738281 22.351562 2.742188 21.785156 2.742188 21.214844 C 2.742188 21.046875 2.738281 20.882812 2.738281 20.714844 C 2.757812 18.289062 3.777344 16.007812 5.4375 14.25 Z M 5.4375 14.25 "/>
<path style=" stroke:none;fill-rule:nonzero;fill:rgb(65.882355%,82.745099%,84.705883%);fill-opacity:1;" d="M 22.5 24 C 29.058594 24 35.617188 24 42.375 24 C 42.375 25.855469 42.375 27.710938 42.375 29.625 C 35.816406 29.625 29.257812 29.625 22.5 29.625 C 22.5 27.769531 22.5 25.914062 22.5 24 Z M 22.5 24 "/>
<path style=" stroke:none;fill-rule:nonzero;fill:rgb(26.666668%,26.666668%,26.666668%);fill-opacity:1;" d="M 46.3125 26.8125 C 47.171875 27.21875 47.59375 27.648438 48 28.5 C 48.054688 29.042969 48.078125 29.542969 48.074219 30.085938 C 48.078125 30.242188 48.078125 30.402344 48.078125 30.5625 C 48.082031 31.082031 48.082031 31.601562 48.082031 32.121094 C 48.082031 32.484375 48.082031 32.84375 48.085938 33.207031 C 48.085938 33.964844 48.085938 34.722656 48.085938 35.480469 C 48.082031 36.449219 48.085938 37.417969 48.089844 38.390625 C 48.09375 39.136719 48.09375 39.882812 48.09375 40.628906 C 48.09375 40.984375 48.09375 41.34375 48.09375 41.703125 C 48.097656 42.203125 48.097656 42.703125 48.09375 43.203125 C 48.09375 43.351562 48.097656 43.496094 48.097656 43.648438 C 48.085938 44.617188 47.886719 45.164062 47.25 45.9375 C 46.269531 46.699219 45.253906 46.644531 44.0625 46.5 C 43.203125 46.09375 42.78125 45.664062 42.375 44.8125 C 42.320312 44.269531 42.296875 43.769531 42.300781 43.226562 C 42.296875 43.070312 42.296875 42.910156 42.296875 42.75 C 42.292969 42.230469 42.292969 41.710938 42.292969 41.191406 C 42.292969 40.828125 42.292969 40.46875 42.289062 40.105469 C 42.289062 39.347656 42.289062 38.589844 42.289062 37.832031 C 42.292969 36.863281 42.289062 35.894531 42.285156 34.921875 C 42.28125 34.175781 42.28125 33.429688 42.28125 32.683594 C 42.28125 32.328125 42.28125 31.96875 42.28125 31.609375 C 42.277344 31.109375 42.277344 30.609375 42.28125 30.109375 C 42.277344 29.890625 42.277344 29.890625 42.277344 29.664062 C 42.289062 28.695312 42.488281 28.148438 43.125 27.375 C 44.105469 26.613281 45.121094 26.667969 46.3125 26.8125 Z M 46.3125 26.8125 "/>
<path style=" stroke:none;fill-rule:nonzero;fill:rgb(27.843139%,27.058825%,27.058825%);fill-opacity:1;" d="M 13.5 26.8125 C 14.492188 27.320312 15.207031 27.992188 15.5625 29.0625 C 15.582031 29.550781 15.59375 30.03125 15.59375 30.519531 C 15.59375 30.667969 15.59375 30.816406 15.597656 30.96875 C 15.597656 31.460938 15.601562 31.949219 15.601562 32.441406 C 15.601562 32.78125 15.601562 33.125 15.605469 33.464844 C 15.605469 34.179688 15.609375 34.894531 15.609375 35.613281 C 15.609375 36.527344 15.613281 37.445312 15.617188 38.359375 C 15.621094 39.066406 15.621094 39.769531 15.621094 40.476562 C 15.625 40.8125 15.625 41.152344 15.628906 41.488281 C 15.628906 41.960938 15.628906 42.433594 15.628906 42.90625 C 15.632812 43.046875 15.632812 43.183594 15.632812 43.328125 C 15.628906 44.210938 15.46875 44.8125 15 45.5625 C 14.027344 46.4375 13.425781 46.566406 12.144531 46.554688 C 11.242188 46.460938 10.738281 46.023438 10.160156 45.363281 C 9.691406 44.597656 9.726562 43.878906 9.738281 43.015625 C 9.738281 42.691406 9.742188 42.371094 9.742188 42.046875 C 9.746094 41.859375 9.746094 41.675781 9.746094 41.488281 C 9.75 40.808594 9.75 40.125 9.75 39.445312 C 9.75 38.234375 9.753906 37.023438 9.765625 35.8125 C 9.769531 35.105469 9.773438 34.398438 9.773438 33.691406 C 9.769531 32.996094 9.777344 32.300781 9.785156 31.605469 C 9.785156 31.34375 9.785156 31.082031 9.785156 30.820312 C 9.769531 28.546875 9.769531 28.546875 10.460938 27.699219 C 11.355469 26.816406 12.285156 26.640625 13.5 26.8125 Z M 13.5 26.8125 "/>
<path style=" stroke:none;fill-rule:nonzero;fill:rgb(98.823529%,74.509805%,0.392157%);fill-opacity:1;" d="M 17.0625 1.5 C 19.785156 1.5 22.507812 1.5 25.3125 1.5 C 25.3125 2.429688 25.3125 3.355469 25.3125 4.3125 C 23.394531 4.3125 21.476562 4.3125 19.5 4.3125 C 19.21875 5.558594 19.21875 5.558594 18.945312 6.804688 C 18.835938 7.3125 18.714844 7.816406 18.582031 8.316406 C 18.34375 9.25 18.34375 9.25 18.550781 10.164062 C 18.785156 10.546875 18.785156 10.546875 19.058594 10.867188 C 19.957031 12.222656 19.8125 14.007812 19.6875 15.5625 C 19.199219 17.523438 17.953125 19.09375 16.3125 20.25 C 15.058594 20.875 14.03125 21.214844 12.621094 21.199219 C 12.488281 21.199219 12.359375 21.195312 12.222656 21.195312 C 11.898438 21.195312 11.574219 21.191406 11.25 21.1875 C 11.25 21.125 11.25 21.0625 11.25 21 C 11.746094 21 12.238281 21 12.75 21 C 12.75 20.132812 12.75 19.265625 12.75 18.375 C 13.214844 18.246094 13.679688 18.117188 14.140625 17.992188 C 14.636719 17.808594 14.960938 17.570312 15.375 17.25 C 15.5 17.25 15.621094 17.25 15.75 17.25 C 15.878906 17.003906 16.003906 16.75 16.125 16.5 C 16.226562 16.3125 16.324219 16.121094 16.429688 15.925781 C 16.859375 14.902344 16.90625 13.722656 16.523438 12.679688 C 16.398438 12.425781 16.265625 12.179688 16.121094 11.9375 C 15.9375 11.625 15.9375 11.625 15.75 11.0625 C 15.429688 10.855469 15.429688 10.855469 15 10.6875 C 14.789062 10.589844 14.574219 10.496094 14.355469 10.394531 C 13.65625 10.089844 13.65625 10.089844 12.75 9.9375 C 12.75 9.007812 12.75 8.082031 12.75 7.125 C 13.785156 7.089844 14.558594 7.191406 15.5625 7.5 C 15.609375 7.285156 15.652344 7.074219 15.699219 6.851562 C 15.761719 6.5625 15.828125 6.269531 15.890625 5.976562 C 15.9375 5.765625 15.9375 5.765625 15.980469 5.554688 C 16.28125 4.175781 16.671875 2.863281 17.0625 1.5 Z M 17.0625 1.5 "/>
<path style=" stroke:none;fill-rule:nonzero;fill:rgb(77.64706%,88.235295%,89.411765%);fill-opacity:1;" d="M 14.507812 10.253906 C 15.664062 10.929688 16.46875 11.847656 16.875 13.125 C 17.070312 14.472656 16.90625 15.566406 16.125 16.6875 C 15.339844 17.644531 14.417969 18.269531 13.1875 18.449219 C 12.007812 18.496094 11.074219 18.34375 10.125 17.625 C 8.992188 16.574219 8.445312 15.640625 8.367188 14.085938 C 8.398438 12.914062 8.734375 12.105469 9.539062 11.253906 C 10.953125 9.957031 12.671875 9.394531 14.507812 10.253906 Z M 14.507812 10.253906 "/>
<path style=" stroke:none;fill-rule:nonzero;fill:rgb(35.294119%,35.294119%,35.294119%);fill-opacity:1;" d="M 12.5625 26.8125 C 12.5625 33.308594 12.5625 39.804688 12.5625 46.5 C 11.007812 46.277344 11.007812 46.277344 10.125 45.375 C 9.707031 44.589844 9.703125 43.859375 9.726562 42.992188 C 9.730469 42.671875 9.734375 42.351562 9.734375 42.03125 C 9.738281 41.851562 9.742188 41.671875 9.746094 41.484375 C 9.75 40.675781 9.75 39.867188 9.75 39.0625 C 9.75 37.976562 9.753906 36.894531 9.765625 35.8125 C 9.769531 35.105469 9.773438 34.398438 9.773438 33.691406 C 9.769531 32.996094 9.777344 32.300781 9.785156 31.605469 C 9.785156 31.34375 9.785156 31.082031 9.785156 30.820312 C 9.769531 28.546875 9.769531 28.546875 10.460938 27.699219 C 11.121094 27.050781 11.632812 26.8125 12.5625 26.8125 Z M 12.5625 26.8125 "/>
<path style=" stroke:none;fill-rule:nonzero;fill:rgb(35.294119%,35.294119%,34.901962%);fill-opacity:1;" d="M 0 1.5 C 2.722656 1.5 5.445312 1.5 8.25 1.5 C 9.75 6.898438 9.75 6.898438 9.75 7.875 C 9.460938 8.121094 9.460938 8.121094 9.070312 8.332031 C 8.34375 8.730469 7.753906 9.210938 7.125 9.75 C 6.9375 9.035156 6.75 8.320312 6.5625 7.605469 C 6.46875 7.246094 6.375 6.882812 6.28125 6.519531 C 6.21875 6.292969 6.160156 6.066406 6.097656 5.832031 C 6.046875 5.621094 5.988281 5.410156 5.933594 5.195312 C 5.8125 4.6875 5.8125 4.6875 5.8125 4.3125 C 3.894531 4.3125 1.976562 4.3125 0 4.3125 C 0 3.382812 0 2.457031 0 1.5 Z M 0 1.5 "/>
<path style=" stroke:none;fill-rule:nonzero;fill:rgb(26.666668%,26.666668%,26.274511%);fill-opacity:1;" d="M 17.0625 1.5 C 19.785156 1.5 22.507812 1.5 25.3125 1.5 C 25.3125 2.429688 25.3125 3.355469 25.3125 4.3125 C 23.394531 4.3125 21.476562 4.3125 19.5 4.3125 C 19.386719 4.828125 19.273438 5.347656 19.160156 5.882812 C 18.886719 7.125 18.589844 8.351562 18.1875 9.5625 C 18.0625 9.5625 17.941406 9.5625 17.8125 9.5625 C 17.5 9.25 17.1875 8.9375 16.875 8.625 C 16.449219 8.296875 16.007812 7.992188 15.5625 7.6875 C 15.773438 6.320312 16.082031 4.984375 16.417969 3.644531 C 16.457031 3.476562 16.5 3.308594 16.546875 3.136719 C 16.851562 1.921875 16.851562 1.921875 17.0625 1.5 Z M 17.0625 1.5 "/>
<path style=" stroke:none;fill-rule:nonzero;fill:rgb(87.058824%,92.156863%,92.54902%);fill-opacity:1;" d="M 12.75 9.9375 C 12.75 10.867188 12.75 11.792969 12.75 12.75 C 12.253906 12.75 11.761719 12.75 11.25 12.75 C 11.25 13.679688 11.25 14.605469 11.25 15.5625 C 11.746094 15.5625 12.238281 15.5625 12.75 15.5625 C 12.75 16.492188 12.75 17.417969 12.75 18.375 C 11.222656 18.28125 10.378906 17.953125 9.328125 16.804688 C 8.527344 15.808594 8.34375 14.855469 8.382812 13.597656 C 8.542969 12.246094 9.292969 11.410156 10.320312 10.578125 C 11.191406 9.949219 11.644531 9.9375 12.75 9.9375 Z M 12.75 9.9375 "/>
<path style=" stroke:none;fill-rule:nonzero;fill:rgb(65.882355%,82.745099%,84.705883%);fill-opacity:1;" d="M 12.75 12.75 C 13.183594 12.75 13.617188 12.75 14.0625 12.75 C 14.0625 13.679688 14.0625 14.605469 14.0625 15.5625 C 13.628906 15.5625 13.195312 15.5625 12.75 15.5625 C 12.75 14.632812 12.75 13.707031 12.75 12.75 Z M 12.75 12.75 "/>
</g>
</svg>
