<?xml version="1.0" encoding="UTF-8"?>
<svg xmlns="http://www.w3.org/2000/svg" xmlns:xlink="http://www.w3.org/1999/xlink" width="48" height="48" viewBox="0 0 48 48" version="1.1">
<g id="surface1">
<path style=" stroke:none;fill-rule:nonzero;fill:rgb(0%,80.784315%,80.392158%);fill-opacity:1;" d="M 5.605469 7.402344 C 5.769531 7.398438 5.933594 7.398438 6.105469 7.398438 C 6.648438 7.394531 7.199219 7.394531 7.742188 7.398438 C 8.136719 7.394531 8.527344 7.394531 8.921875 7.390625 C 9.988281 7.386719 11.050781 7.386719 12.117188 7.386719 C 13.007812 7.386719 13.898438 7.386719 14.789062 7.382812 C 16.886719 7.378906 18.988281 7.378906 21.085938 7.382812 C 23.253906 7.382812 25.417969 7.378906 27.582031 7.371094 C 29.441406 7.363281 31.300781 7.363281 33.164062 7.363281 C 34.273438 7.363281 35.382812 7.363281 36.492188 7.355469 C 37.539062 7.351562 38.582031 7.351562 39.625 7.359375 C 40.011719 7.359375 40.390625 7.359375 40.773438 7.355469 C 44.34375 7.328125 44.34375 7.328125 45.460938 8.300781 C 46.675781 9.65625 46.609375 10.871094 46.601562 12.640625 C 46.605469 12.917969 46.605469 13.191406 46.609375 13.464844 C 46.613281 14.207031 46.613281 14.949219 46.613281 15.695312 C 46.613281 16.316406 46.617188 16.9375 46.617188 17.558594 C 46.621094 19.023438 46.621094 20.492188 46.621094 21.960938 C 46.617188 23.472656 46.621094 24.980469 46.628906 26.492188 C 46.636719 27.789062 46.636719 29.089844 46.636719 30.390625 C 46.636719 31.164062 46.636719 31.941406 46.640625 32.714844 C 46.648438 33.445312 46.644531 34.171875 46.640625 34.902344 C 46.640625 35.167969 46.640625 35.433594 46.644531 35.703125 C 46.660156 37.136719 46.59375 38.214844 45.742188 39.40625 C 44.683594 40.398438 43.796875 40.609375 42.394531 40.597656 C 42.148438 40.597656 42.148438 40.597656 41.894531 40.601562 C 41.351562 40.605469 40.804688 40.605469 40.257812 40.601562 C 39.863281 40.605469 39.472656 40.605469 39.078125 40.609375 C 38.011719 40.613281 36.949219 40.613281 35.882812 40.613281 C 34.992188 40.613281 34.105469 40.613281 33.214844 40.617188 C 31.113281 40.621094 29.011719 40.621094 26.914062 40.617188 C 24.746094 40.617188 22.582031 40.621094 20.417969 40.628906 C 18.558594 40.632812 16.699219 40.636719 14.839844 40.636719 C 13.726562 40.632812 12.617188 40.636719 11.507812 40.640625 C 10.460938 40.644531 9.417969 40.644531 8.371094 40.640625 C 7.992188 40.640625 7.609375 40.640625 7.226562 40.644531 C 3.65625 40.671875 3.65625 40.671875 2.539062 39.695312 C 1.324219 38.34375 1.390625 37.128906 1.398438 35.359375 C 1.394531 35.085938 1.394531 34.808594 1.390625 34.535156 C 1.386719 33.789062 1.386719 33.046875 1.386719 32.304688 C 1.386719 31.683594 1.386719 31.0625 1.382812 30.441406 C 1.378906 28.972656 1.378906 27.507812 1.382812 26.039062 C 1.386719 24.527344 1.378906 23.019531 1.371094 21.507812 C 1.363281 20.207031 1.363281 18.910156 1.363281 17.609375 C 1.363281 16.832031 1.363281 16.058594 1.359375 15.285156 C 1.351562 14.554688 1.355469 13.824219 1.359375 13.097656 C 1.359375 12.832031 1.359375 12.5625 1.355469 12.296875 C 1.339844 10.863281 1.40625 9.785156 2.253906 8.59375 C 3.316406 7.601562 4.203125 7.390625 5.605469 7.402344 Z M 5.605469 7.402344 "/>
<path style=" stroke:none;fill-rule:nonzero;fill:rgb(0%,2.745098%,30.588236%);fill-opacity:1;" d="M 5.605469 7.402344 C 5.769531 7.398438 5.933594 7.398438 6.105469 7.398438 C 6.648438 7.394531 7.199219 7.394531 7.742188 7.398438 C 8.136719 7.394531 8.527344 7.394531 8.921875 7.390625 C 9.988281 7.386719 11.050781 7.386719 12.117188 7.386719 C 13.007812 7.386719 13.898438 7.386719 14.789062 7.382812 C 16.886719 7.378906 18.988281 7.378906 21.085938 7.382812 C 23.253906 7.382812 25.417969 7.378906 27.582031 7.371094 C 29.441406 7.363281 31.300781 7.363281 33.164062 7.363281 C 34.273438 7.363281 35.382812 7.363281 36.492188 7.355469 C 37.539062 7.351562 38.582031 7.351562 39.625 7.359375 C 40.011719 7.359375 40.390625 7.359375 40.773438 7.355469 C 44.34375 7.328125 44.34375 7.328125 45.460938 8.300781 C 46.675781 9.65625 46.609375 10.871094 46.601562 12.640625 C 46.605469 12.917969 46.605469 13.191406 46.609375 13.464844 C 46.613281 14.207031 46.613281 14.949219 46.613281 15.695312 C 46.613281 16.316406 46.617188 16.9375 46.617188 17.558594 C 46.621094 19.023438 46.621094 20.492188 46.621094 21.960938 C 46.617188 23.472656 46.621094 24.980469 46.628906 26.492188 C 46.636719 27.789062 46.636719 29.089844 46.636719 30.390625 C 46.636719 31.164062 46.636719 31.941406 46.640625 32.714844 C 46.648438 33.445312 46.644531 34.171875 46.640625 34.902344 C 46.640625 35.167969 46.640625 35.433594 46.644531 35.703125 C 46.660156 37.136719 46.59375 38.214844 45.742188 39.40625 C 44.683594 40.398438 43.796875 40.609375 42.394531 40.597656 C 42.148438 40.597656 42.148438 40.597656 41.894531 40.601562 C 41.351562 40.605469 40.804688 40.605469 40.257812 40.601562 C 39.863281 40.605469 39.472656 40.605469 39.078125 40.609375 C 38.011719 40.613281 36.949219 40.613281 35.882812 40.613281 C 34.992188 40.613281 34.105469 40.613281 33.214844 40.617188 C 31.113281 40.621094 29.011719 40.621094 26.914062 40.617188 C 24.746094 40.617188 22.582031 40.621094 20.417969 40.628906 C 18.558594 40.632812 16.699219 40.636719 14.839844 40.636719 C 13.726562 40.632812 12.617188 40.636719 11.507812 40.640625 C 10.460938 40.644531 9.417969 40.644531 8.371094 40.640625 C 7.992188 40.640625 7.609375 40.640625 7.226562 40.644531 C 3.65625 40.671875 3.65625 40.671875 2.539062 39.695312 C 1.324219 38.34375 1.390625 37.128906 1.398438 35.359375 C 1.394531 35.085938 1.394531 34.808594 1.390625 34.535156 C 1.386719 33.789062 1.386719 33.046875 1.386719 32.304688 C 1.386719 31.683594 1.386719 31.0625 1.382812 30.441406 C 1.378906 28.972656 1.378906 27.507812 1.382812 26.039062 C 1.386719 24.527344 1.378906 23.019531 1.371094 21.507812 C 1.363281 20.207031 1.363281 18.910156 1.363281 17.609375 C 1.363281 16.832031 1.363281 16.058594 1.359375 15.285156 C 1.351562 14.554688 1.355469 13.824219 1.359375 13.097656 C 1.359375 12.832031 1.359375 12.5625 1.355469 12.296875 C 1.339844 10.863281 1.40625 9.785156 2.253906 8.59375 C 3.316406 7.601562 4.203125 7.390625 5.605469 7.402344 Z M 3 15 C 2.988281 18.660156 2.976562 22.324219 2.964844 26.097656 C 2.960938 27.253906 2.953125 28.410156 2.949219 29.601562 C 2.945312 30.640625 2.945312 30.640625 2.945312 31.675781 C 2.945312 32.136719 2.941406 32.597656 2.941406 33.058594 C 2.9375 33.757812 2.933594 34.457031 2.933594 35.15625 C 2.933594 35.363281 2.933594 35.570312 2.929688 35.78125 C 2.933594 37.046875 3.039062 37.722656 3.953125 38.644531 C 4.664062 39.105469 5.261719 39.105469 6.078125 39.09375 C 6.316406 39.09375 6.316406 39.09375 6.558594 39.097656 C 7.09375 39.097656 7.621094 39.097656 8.152344 39.09375 C 8.535156 39.09375 8.917969 39.09375 9.296875 39.097656 C 10.332031 39.097656 11.367188 39.097656 12.402344 39.09375 C 13.484375 39.089844 14.566406 39.09375 15.648438 39.09375 C 17.464844 39.09375 19.285156 39.089844 21.101562 39.085938 C 23.203125 39.082031 25.304688 39.082031 27.40625 39.085938 C 29.429688 39.085938 31.449219 39.085938 33.472656 39.082031 C 34.332031 39.082031 35.191406 39.082031 36.054688 39.082031 C 37.066406 39.085938 38.082031 39.082031 39.09375 39.078125 C 39.464844 39.078125 39.835938 39.078125 40.210938 39.078125 C 40.71875 39.078125 41.226562 39.078125 41.734375 39.074219 C 41.953125 39.074219 41.953125 39.074219 42.179688 39.078125 C 43.21875 39.0625 43.800781 38.820312 44.578125 38.15625 C 45.03125 37.613281 45.023438 37.070312 45.023438 36.398438 C 45.023438 36.210938 45.023438 36.023438 45.023438 35.828125 C 45.023438 35.621094 45.023438 35.414062 45.023438 35.199219 C 45.023438 34.980469 45.023438 34.757812 45.023438 34.53125 C 45.023438 33.8125 45.019531 33.09375 45.019531 32.378906 C 45.019531 31.933594 45.019531 31.492188 45.019531 31.050781 C 45.015625 29.40625 45.015625 27.765625 45.011719 26.121094 C 45.007812 22.449219 45.003906 18.78125 45 15 C 31.140625 15 17.277344 15 3 15 Z M 3 15 "/>
<path style=" stroke:none;fill-rule:nonzero;fill:rgb(98.823529%,82.745099%,27.843139%);fill-opacity:1;" d="M 14.0625 18.375 C 14.625 19.019531 14.625 19.019531 14.625 19.5 C 15.863281 19.5 17.101562 19.5 18.375 19.5 C 18.5 19.253906 18.621094 19.003906 18.75 18.75 C 18.875 18.5625 18.996094 18.378906 19.125 18.1875 C 19.683594 18.375 20.238281 18.558594 20.8125 18.75 C 20.761719 19.167969 20.761719 19.167969 20.707031 19.59375 C 20.699219 20.265625 20.742188 20.539062 21.175781 21.0625 C 21.472656 21.320312 21.78125 21.570312 22.09375 21.808594 C 22.5 22.125 22.5 22.125 22.875 22.6875 C 23.332031 22.753906 23.332031 22.753906 23.835938 22.722656 C 24.007812 22.71875 24.179688 22.710938 24.351562 22.707031 C 24.484375 22.699219 24.613281 22.695312 24.75 22.6875 C 24.9375 23.246094 25.121094 23.800781 25.3125 24.375 C 24.421875 25.125 24.421875 25.125 24 25.125 C 24 25.699219 24.007812 26.273438 24.023438 26.847656 C 24.023438 27.007812 24.023438 27.171875 24.023438 27.339844 C 24.035156 28.242188 24.035156 28.242188 24.449219 29.011719 C 24.789062 29.304688 24.789062 29.304688 25.3125 29.625 C 25.125 30.183594 24.941406 30.738281 24.75 31.3125 C 24.46875 31.28125 24.1875 31.25 23.894531 31.21875 C 23.269531 31.214844 22.976562 31.230469 22.484375 31.628906 C 22.265625 31.886719 22.054688 32.15625 21.855469 32.429688 C 21.5625 32.8125 21.5625 32.8125 21.152344 33.082031 C 20.765625 33.351562 20.765625 33.351562 20.738281 33.839844 C 20.75 34.007812 20.757812 34.175781 20.765625 34.347656 C 20.773438 34.515625 20.777344 34.6875 20.785156 34.859375 C 20.796875 34.988281 20.804688 35.117188 20.8125 35.25 C 20.253906 35.4375 19.699219 35.621094 19.125 35.8125 C 18.375 34.921875 18.375 34.921875 18.375 34.5 C 17.136719 34.5 15.898438 34.5 14.625 34.5 C 14.5 34.746094 14.378906 34.996094 14.25 35.25 C 14.125 35.4375 14.003906 35.621094 13.875 35.8125 C 13.316406 35.625 12.761719 35.441406 12.1875 35.25 C 12.234375 34.828125 12.234375 34.828125 12.28125 34.394531 C 12.285156 33.769531 12.269531 33.476562 11.871094 32.984375 C 11.613281 32.765625 11.34375 32.554688 11.070312 32.355469 C 10.6875 32.0625 10.6875 32.0625 10.417969 31.652344 C 10.148438 31.265625 10.148438 31.265625 9.660156 31.238281 C 9.492188 31.25 9.324219 31.257812 9.152344 31.265625 C 8.984375 31.273438 8.8125 31.277344 8.640625 31.285156 C 8.511719 31.296875 8.382812 31.304688 8.25 31.3125 C 8.0625 30.753906 7.878906 30.199219 7.6875 29.625 C 8.578125 28.875 8.578125 28.875 9 28.875 C 9 27.636719 9 26.398438 9 25.125 C 8.753906 25 8.503906 24.878906 8.25 24.75 C 8.0625 24.625 7.878906 24.503906 7.6875 24.375 C 7.875 23.816406 8.058594 23.261719 8.25 22.6875 C 8.527344 22.722656 8.808594 22.757812 9.09375 22.792969 C 9.765625 22.800781 10.039062 22.757812 10.5625 22.324219 C 10.820312 22.027344 11.070312 21.71875 11.308594 21.40625 C 11.625 21 11.625 21 12.1875 20.625 C 12.253906 20.167969 12.253906 20.167969 12.222656 19.664062 C 12.21875 19.492188 12.210938 19.320312 12.207031 19.148438 C 12.199219 19.015625 12.195312 18.886719 12.1875 18.75 C 13.429688 18.164062 13.429688 18.164062 14.0625 18.375 Z M 14.0625 18.375 "/>
<path style=" stroke:none;fill-rule:nonzero;fill:rgb(0%,64.313728%,66.666669%);fill-opacity:1;" d="M 6.011719 8.972656 C 6.167969 8.972656 6.328125 8.972656 6.492188 8.972656 C 7.023438 8.96875 7.558594 8.96875 8.089844 8.96875 C 8.472656 8.96875 8.851562 8.96875 9.234375 8.964844 C 10.269531 8.964844 11.308594 8.960938 12.34375 8.960938 C 12.992188 8.960938 13.640625 8.960938 14.285156 8.960938 C 16.3125 8.957031 18.335938 8.957031 20.359375 8.953125 C 22.699219 8.953125 25.039062 8.949219 27.378906 8.945312 C 29.183594 8.941406 30.992188 8.941406 32.796875 8.941406 C 33.875 8.941406 34.957031 8.9375 36.035156 8.933594 C 37.054688 8.933594 38.066406 8.929688 39.082031 8.933594 C 39.457031 8.933594 39.828125 8.933594 40.203125 8.929688 C 40.710938 8.929688 41.21875 8.929688 41.730469 8.929688 C 41.878906 8.929688 42.023438 8.929688 42.175781 8.925781 C 43.03125 8.933594 43.578125 9.023438 44.25 9.5625 C 45 10.5 45 10.5 45 13.5 C 31.140625 13.5 17.277344 13.5 3 13.5 C 3 10.5 3 10.5 3.539062 9.667969 C 4.316406 8.949219 4.988281 8.972656 6.011719 8.972656 Z M 6.011719 8.972656 "/>
<path style=" stroke:none;fill-rule:nonzero;fill:rgb(1.568628%,4.705882%,30.980393%);fill-opacity:1;" d="M 14.0625 16.3125 C 14.648438 16.867188 15.007812 17.269531 15.375 18 C 16.117188 18 16.859375 18 17.625 18 C 17.75 17.753906 17.871094 17.503906 18 17.25 C 18.304688 16.929688 18.617188 16.617188 18.9375 16.3125 C 19.464844 16.527344 19.992188 16.742188 20.519531 16.957031 C 20.746094 17.050781 20.746094 17.050781 20.976562 17.140625 C 21.117188 17.203125 21.261719 17.257812 21.410156 17.320312 C 21.542969 17.375 21.675781 17.429688 21.8125 17.484375 C 22.125 17.625 22.125 17.625 22.3125 17.8125 C 22.296875 18.136719 22.277344 18.460938 22.253906 18.785156 C 22.253906 19.503906 22.261719 19.992188 22.734375 20.554688 C 23.320312 21.054688 23.832031 21.050781 24.585938 21.070312 C 25.605469 21.109375 25.605469 21.109375 25.972656 21.457031 C 26.175781 21.859375 26.308594 22.253906 26.4375 22.6875 C 26.578125 23.0625 26.71875 23.4375 26.859375 23.8125 C 26.96875 24.125 27.078125 24.4375 27.1875 24.75 C 26.976562 24.9375 26.765625 25.125 26.554688 25.3125 C 26.4375 25.417969 26.320312 25.519531 26.199219 25.628906 C 25.875 25.875 25.875 25.875 25.5 25.875 C 25.5 26.617188 25.5 27.359375 25.5 28.125 C 25.871094 28.3125 25.871094 28.3125 26.25 28.5 C 26.570312 28.804688 26.882812 29.117188 27.1875 29.4375 C 26.972656 29.964844 26.757812 30.492188 26.542969 31.019531 C 26.449219 31.246094 26.449219 31.246094 26.359375 31.476562 C 26.296875 31.617188 26.242188 31.761719 26.179688 31.910156 C 26.125 32.042969 26.070312 32.175781 26.015625 32.3125 C 25.875 32.625 25.875 32.625 25.6875 32.8125 C 25.367188 32.792969 25.046875 32.765625 24.726562 32.742188 C 23.921875 32.738281 23.457031 32.808594 22.839844 33.339844 C 22.183594 34.101562 22.203125 34.8125 22.265625 35.78125 C 22.289062 35.984375 22.289062 35.984375 22.3125 36.1875 C 21.929688 36.367188 21.546875 36.546875 21.164062 36.726562 C 20.953125 36.828125 20.738281 36.925781 20.519531 37.03125 C 19.933594 37.285156 19.359375 37.5 18.75 37.6875 C 18.5625 37.476562 18.375 37.265625 18.1875 37.054688 C 18.082031 36.9375 17.980469 36.820312 17.871094 36.699219 C 17.625 36.375 17.625 36.375 17.625 36 C 16.882812 36 16.140625 36 15.375 36 C 15.25 36.246094 15.128906 36.496094 15 36.75 C 14.695312 37.070312 14.382812 37.382812 14.0625 37.6875 C 13.535156 37.472656 13.007812 37.257812 12.480469 37.042969 C 12.328125 36.984375 12.179688 36.921875 12.023438 36.859375 C 11.882812 36.796875 11.738281 36.742188 11.589844 36.679688 C 11.457031 36.625 11.324219 36.570312 11.1875 36.515625 C 10.875 36.375 10.875 36.375 10.6875 36.1875 C 10.671875 35.832031 10.660156 35.476562 10.652344 35.121094 C 10.566406 34.097656 10.566406 34.097656 10.054688 33.234375 C 9.359375 32.652344 8.59375 32.722656 7.726562 32.773438 C 7.519531 32.792969 7.519531 32.792969 7.3125 32.8125 C 7.132812 32.429688 6.953125 32.046875 6.773438 31.664062 C 6.671875 31.453125 6.574219 31.238281 6.46875 31.019531 C 6.214844 30.433594 6 29.859375 5.8125 29.25 C 6.023438 29.0625 6.234375 28.875 6.445312 28.6875 C 6.5625 28.582031 6.679688 28.480469 6.800781 28.371094 C 7.125 28.125 7.125 28.125 7.5 28.125 C 7.5 27.382812 7.5 26.640625 7.5 25.875 C 7.253906 25.75 7.003906 25.628906 6.75 25.5 C 6.429688 25.195312 6.117188 24.882812 5.8125 24.5625 C 6.027344 24.035156 6.242188 23.507812 6.457031 22.980469 C 6.515625 22.828125 6.578125 22.679688 6.640625 22.523438 C 6.703125 22.382812 6.757812 22.238281 6.820312 22.089844 C 6.875 21.957031 6.929688 21.824219 6.984375 21.6875 C 7.125 21.375 7.125 21.375 7.3125 21.1875 C 7.632812 21.207031 7.953125 21.234375 8.273438 21.257812 C 9.078125 21.261719 9.542969 21.191406 10.160156 20.660156 C 10.816406 19.898438 10.796875 19.1875 10.734375 18.21875 C 10.71875 18.085938 10.703125 17.949219 10.6875 17.8125 C 11.789062 17.242188 12.902344 16.757812 14.0625 16.3125 Z M 12.1875 18.75 C 12.207031 18.867188 12.226562 18.984375 12.246094 19.109375 C 12.324219 19.914062 12.359375 20.417969 11.824219 21.0625 C 11.527344 21.320312 11.21875 21.570312 10.90625 21.808594 C 10.457031 22.125 10.457031 22.125 10.125 22.6875 C 9.679688 22.742188 9.679688 22.742188 9.164062 22.722656 C 8.992188 22.71875 8.820312 22.710938 8.648438 22.707031 C 8.515625 22.699219 8.386719 22.695312 8.25 22.6875 C 7.972656 23.523438 7.972656 23.523438 7.6875 24.375 C 8.265625 24.933594 8.265625 24.933594 9 25.125 C 9 26.363281 9 27.601562 9 28.875 C 8.753906 29 8.503906 29.121094 8.25 29.25 C 8.0625 29.375 7.878906 29.496094 7.6875 29.625 C 7.875 30.183594 8.058594 30.738281 8.25 31.3125 C 8.527344 31.277344 8.808594 31.242188 9.09375 31.207031 C 9.765625 31.199219 10.039062 31.242188 10.5625 31.675781 C 10.820312 31.972656 11.070312 32.28125 11.308594 32.59375 C 11.625 33.042969 11.625 33.042969 12.1875 33.375 C 12.242188 33.820312 12.242188 33.820312 12.222656 34.335938 C 12.21875 34.507812 12.210938 34.679688 12.207031 34.851562 C 12.199219 34.984375 12.195312 35.113281 12.1875 35.25 C 12.746094 35.4375 13.300781 35.621094 13.875 35.8125 C 14.433594 35.234375 14.433594 35.234375 14.625 34.5 C 15.863281 34.5 17.101562 34.5 18.375 34.5 C 18.5 34.746094 18.621094 34.996094 18.75 35.25 C 18.9375 35.53125 18.9375 35.53125 19.125 35.8125 C 19.683594 35.625 20.238281 35.441406 20.8125 35.25 C 20.78125 34.96875 20.75 34.6875 20.71875 34.394531 C 20.714844 33.769531 20.730469 33.476562 21.128906 32.984375 C 21.386719 32.765625 21.65625 32.554688 21.929688 32.355469 C 22.332031 32.078125 22.332031 32.078125 22.582031 31.652344 C 22.875 31.3125 22.875 31.3125 23.339844 31.238281 C 23.507812 31.25 23.675781 31.257812 23.847656 31.265625 C 24.015625 31.273438 24.1875 31.277344 24.359375 31.285156 C 24.488281 31.296875 24.617188 31.304688 24.75 31.3125 C 24.9375 30.753906 25.121094 30.199219 25.3125 29.625 C 25.128906 29.507812 24.949219 29.390625 24.757812 29.269531 C 24.375 28.949219 24.207031 28.765625 24.078125 28.277344 C 24.035156 27.796875 24.023438 27.328125 24.023438 26.847656 C 24.019531 26.679688 24.015625 26.515625 24.011719 26.34375 C 24.003906 25.9375 24 25.53125 24 25.125 C 24.113281 25.070312 24.226562 25.015625 24.339844 24.960938 C 24.785156 24.742188 24.785156 24.742188 25.3125 24.375 C 25.125 23.816406 24.941406 23.261719 24.75 22.6875 C 24.46875 22.722656 24.191406 22.757812 23.90625 22.792969 C 23.234375 22.800781 22.960938 22.757812 22.4375 22.324219 C 22.179688 22.027344 21.929688 21.71875 21.691406 21.40625 C 21.375 20.957031 21.375 20.957031 20.8125 20.625 C 20.757812 20.179688 20.757812 20.179688 20.777344 19.664062 C 20.785156 19.40625 20.785156 19.40625 20.792969 19.148438 C 20.800781 19.015625 20.804688 18.886719 20.8125 18.75 C 20.253906 18.5625 19.699219 18.378906 19.125 18.1875 C 18.566406 18.765625 18.566406 18.765625 18.375 19.5 C 17.136719 19.5 15.898438 19.5 14.625 19.5 C 14.5 19.253906 14.378906 19.003906 14.25 18.75 C 14.125 18.5625 14.003906 18.378906 13.875 18.1875 C 13.257812 18.1875 12.746094 18.503906 12.1875 18.75 Z M 12.1875 18.75 "/>
<path style=" stroke:none;fill-rule:nonzero;fill:rgb(0%,64.313728%,66.666669%);fill-opacity:1;" d="M 3 15 C 4.484375 15 5.96875 15 7.5 15 C 7.5 16.980469 7.5 18.960938 7.5 21 C 7.777344 21.09375 7.777344 21.09375 8.0625 21.1875 C 7.886719 21.210938 7.886719 21.210938 7.710938 21.234375 C 7.292969 21.335938 7.292969 21.335938 7.105469 21.6875 C 7.054688 21.820312 7.003906 21.953125 6.953125 22.089844 C 6.867188 22.304688 6.867188 22.304688 6.78125 22.523438 C 6.722656 22.675781 6.667969 22.828125 6.609375 22.980469 C 6.519531 23.207031 6.519531 23.207031 6.429688 23.4375 C 6.28125 23.8125 6.140625 24.1875 6 24.5625 C 6.484375 25.058594 6.921875 25.488281 7.5 25.875 C 7.667969 26.640625 7.664062 27.359375 7.5 28.125 C 7.0625 28.640625 6.585938 28.925781 6 29.25 C 6.199219 29.808594 6.402344 30.359375 6.609375 30.914062 C 6.664062 31.074219 6.722656 31.230469 6.78125 31.394531 C 6.835938 31.542969 6.894531 31.695312 6.953125 31.851562 C 7.003906 31.988281 7.054688 32.128906 7.105469 32.273438 C 7.359375 32.707031 7.601562 32.816406 8.0625 33 C 7.875 33 7.691406 33 7.5 33 C 7.515625 33.691406 7.535156 34.382812 7.558594 35.074219 C 7.5625 35.269531 7.566406 35.464844 7.570312 35.664062 C 7.609375 36.792969 7.722656 37.625 8.25 38.625 C 8.34375 38.8125 8.34375 38.8125 8.4375 39 C 7.808594 39.035156 7.179688 39.050781 6.550781 39.070312 C 6.375 39.082031 6.195312 39.089844 6.015625 39.097656 C 5.074219 39.117188 4.46875 39.082031 3.726562 38.46875 C 3.230469 37.988281 3.015625 37.605469 2.976562 36.894531 C 2.976562 36.730469 2.976562 36.566406 2.976562 36.398438 C 2.976562 36.210938 2.976562 36.019531 2.976562 35.824219 C 2.976562 35.621094 2.976562 35.414062 2.980469 35.203125 C 2.980469 34.980469 2.980469 34.765625 2.980469 34.542969 C 2.980469 33.820312 2.980469 33.097656 2.980469 32.378906 C 2.980469 31.875 2.984375 31.378906 2.984375 30.878906 C 2.984375 29.695312 2.984375 28.515625 2.988281 27.332031 C 2.988281 25.988281 2.988281 24.644531 2.992188 23.296875 C 2.992188 20.53125 2.996094 17.765625 3 15 Z M 3 15 "/>
<path style=" stroke:none;fill-rule:nonzero;fill:rgb(1.960784%,4.313726%,30.19608%);fill-opacity:1;" d="M 18.675781 22.976562 C 19.765625 23.644531 20.609375 24.652344 21 25.875 C 21.175781 27.277344 20.964844 28.484375 20.160156 29.648438 C 19.304688 30.710938 18.457031 31.390625 17.082031 31.570312 C 15.855469 31.621094 14.863281 31.507812 13.875 30.75 C 12.703125 29.660156 11.988281 28.550781 11.917969 26.917969 C 11.960938 25.667969 12.28125 24.867188 13.140625 23.960938 C 14.832031 22.394531 16.519531 22.023438 18.675781 22.976562 Z M 18.675781 22.976562 "/>
<path style=" stroke:none;fill-rule:nonzero;fill:rgb(0%,2.745098%,30.588236%);fill-opacity:1;" d="M 34.21875 31.449219 C 34.386719 31.449219 34.550781 31.449219 34.722656 31.449219 C 34.898438 31.449219 35.070312 31.453125 35.25 31.453125 C 35.425781 31.453125 35.597656 31.449219 35.777344 31.449219 C 36.027344 31.449219 36.027344 31.449219 36.28125 31.449219 C 36.433594 31.449219 36.585938 31.449219 36.746094 31.453125 C 37.125 31.5 37.125 31.5 37.5 31.875 C 37.5 32.496094 37.5 33.113281 37.5 33.75 C 38.984375 33.75 40.46875 33.75 42 33.75 C 42 34.246094 42 34.742188 42 35.25 C 40.515625 35.25 39.03125 35.25 37.5 35.25 C 37.5 35.871094 37.5 36.488281 37.5 37.125 C 37.039062 37.585938 36.910156 37.546875 36.28125 37.550781 C 36.113281 37.550781 35.949219 37.550781 35.777344 37.550781 C 35.601562 37.550781 35.429688 37.546875 35.25 37.546875 C 35.074219 37.546875 34.902344 37.550781 34.722656 37.550781 C 34.472656 37.550781 34.472656 37.550781 34.21875 37.550781 C 34.066406 37.550781 33.914062 37.550781 33.753906 37.546875 C 33.375 37.5 33.375 37.5 33 37.125 C 33 36.507812 33 35.886719 33 35.25 C 31.515625 35.25 30.03125 35.25 28.5 35.25 C 28.5 34.753906 28.5 34.261719 28.5 33.75 C 29.984375 33.75 31.46875 33.75 33 33.75 C 33 33.132812 33 32.511719 33 31.875 C 33.460938 31.417969 33.589844 31.453125 34.21875 31.449219 Z M 34.21875 31.449219 "/>
<path style=" stroke:none;fill-rule:nonzero;fill:rgb(0%,2.745098%,30.588236%);fill-opacity:1;" d="M 31.21875 23.949219 C 31.386719 23.949219 31.550781 23.949219 31.722656 23.949219 C 31.898438 23.949219 32.070312 23.953125 32.25 23.953125 C 32.511719 23.949219 32.511719 23.949219 32.777344 23.949219 C 33.027344 23.949219 33.027344 23.949219 33.28125 23.949219 C 33.433594 23.949219 33.585938 23.949219 33.746094 23.953125 C 34.125 24 34.125 24 34.5 24.375 C 34.5 24.996094 34.5 25.613281 34.5 26.25 C 36.976562 26.25 39.449219 26.25 42 26.25 C 42 26.746094 42 27.242188 42 27.75 C 39.523438 27.75 37.050781 27.75 34.5 27.75 C 34.5 28.371094 34.5 28.988281 34.5 29.625 C 34.039062 30.085938 33.910156 30.046875 33.28125 30.050781 C 33.113281 30.050781 32.949219 30.050781 32.777344 30.050781 C 32.601562 30.050781 32.429688 30.046875 32.25 30.046875 C 32.074219 30.046875 31.902344 30.050781 31.722656 30.050781 C 31.472656 30.050781 31.472656 30.050781 31.21875 30.050781 C 31.066406 30.050781 30.914062 30.050781 30.753906 30.046875 C 30.375 30 30.375 30 30 29.625 C 29.960938 29.175781 29.960938 29.175781 29.976562 28.664062 C 29.980469 28.492188 29.984375 28.324219 29.988281 28.144531 C 29.992188 28.015625 29.996094 27.886719 30 27.75 C 29.503906 27.75 29.011719 27.75 28.5 27.75 C 28.5 27.253906 28.5 26.761719 28.5 26.25 C 28.996094 26.25 29.488281 26.25 30 26.25 C 29.996094 26.121094 29.992188 25.988281 29.988281 25.851562 C 29.980469 25.597656 29.980469 25.597656 29.976562 25.335938 C 29.972656 25.167969 29.96875 24.996094 29.960938 24.820312 C 30.03125 23.976562 30.484375 23.953125 31.21875 23.949219 Z M 31.21875 23.949219 "/>
<path style=" stroke:none;fill-rule:nonzero;fill:rgb(0%,2.745098%,30.588236%);fill-opacity:1;" d="M 35.71875 16.449219 C 35.886719 16.449219 36.050781 16.449219 36.222656 16.449219 C 36.398438 16.449219 36.570312 16.453125 36.75 16.453125 C 36.925781 16.453125 37.097656 16.449219 37.277344 16.449219 C 37.527344 16.449219 37.527344 16.449219 37.78125 16.449219 C 37.933594 16.449219 38.085938 16.449219 38.246094 16.453125 C 38.625 16.5 38.625 16.5 39 16.875 C 39.050781 17.503906 39.015625 18.117188 39 18.75 C 39.988281 18.75 40.980469 18.75 42 18.75 C 42 19.246094 42 19.742188 42 20.25 C 41.011719 20.25 40.019531 20.25 39 20.25 C 39.007812 20.550781 39.015625 20.851562 39.023438 21.164062 C 39.039062 21.675781 39.039062 21.675781 39 22.125 C 38.539062 22.585938 38.410156 22.546875 37.78125 22.550781 C 37.613281 22.550781 37.449219 22.550781 37.277344 22.550781 C 37.101562 22.550781 36.929688 22.546875 36.75 22.546875 C 36.574219 22.546875 36.402344 22.550781 36.222656 22.550781 C 35.972656 22.550781 35.972656 22.550781 35.71875 22.550781 C 35.566406 22.550781 35.414062 22.550781 35.253906 22.546875 C 34.875 22.5 34.875 22.5 34.5 22.125 C 34.5 21.507812 34.5 20.886719 34.5 20.25 C 32.519531 20.25 30.539062 20.25 28.5 20.25 C 28.5 19.753906 28.5 19.261719 28.5 18.75 C 30.480469 18.75 32.460938 18.75 34.5 18.75 C 34.5 18.132812 34.5 17.511719 34.5 16.875 C 34.960938 16.417969 35.089844 16.453125 35.71875 16.449219 Z M 35.71875 16.449219 "/>
<path style=" stroke:none;fill-rule:nonzero;fill:rgb(0%,79.215688%,79.215688%);fill-opacity:1;" d="M 17.25 24 C 18.3125 24.367188 18.996094 25.054688 19.5 26.0625 C 19.601562 26.992188 19.605469 27.726562 19.183594 28.570312 C 18.589844 29.246094 17.960938 29.941406 17.03125 30.046875 C 15.933594 30.078125 15.292969 30.003906 14.4375 29.25 C 13.632812 28.355469 13.433594 27.667969 13.449219 26.488281 C 13.558594 25.59375 14.089844 25.078125 14.742188 24.503906 C 15.578125 23.910156 16.246094 23.90625 17.25 24 Z M 17.25 24 "/>
<path style=" stroke:none;fill-rule:nonzero;fill:rgb(0%,2.745098%,30.588236%);fill-opacity:1;" d="M 24 10.5 C 29.941406 10.5 35.878906 10.5 42 10.5 C 42 10.996094 42 11.488281 42 12 C 36.058594 12 30.121094 12 24 12 C 24 11.503906 24 11.011719 24 10.5 Z M 24 10.5 "/>
<path style=" stroke:none;fill-rule:nonzero;fill:rgb(0%,48.627451%,57.254905%);fill-opacity:1;" d="M 5.398438 8.980469 C 5.574219 8.980469 5.75 8.984375 5.933594 8.984375 C 6.117188 8.984375 6.300781 8.988281 6.492188 8.988281 C 6.679688 8.988281 6.863281 8.988281 7.054688 8.992188 C 7.515625 8.992188 7.976562 8.996094 8.4375 9 C 8.316406 9.183594 8.195312 9.363281 8.070312 9.550781 C 7.609375 10.355469 7.5625 11.074219 7.546875 11.988281 C 7.53125 12.488281 7.515625 12.988281 7.5 13.5 C 6.015625 13.5 4.53125 13.5 3 13.5 C 2.851562 10.460938 2.851562 10.460938 3.539062 9.667969 C 4.152344 9.101562 4.566406 8.976562 5.398438 8.980469 Z M 5.398438 8.980469 "/>
<path style=" stroke:none;fill-rule:nonzero;fill:rgb(100%,83.92157%,28.235295%);fill-opacity:1;" d="M 34.5 33 C 34.996094 33 35.488281 33 36 33 C 36 33.988281 36 34.980469 36 36 C 35.503906 36 35.011719 36 34.5 36 C 34.5 35.011719 34.5 34.019531 34.5 33 Z M 34.5 33 "/>
<path style=" stroke:none;fill-rule:nonzero;fill:rgb(100%,83.92157%,28.235295%);fill-opacity:1;" d="M 31.5 25.5 C 31.996094 25.5 32.488281 25.5 33 25.5 C 33 26.488281 33 27.480469 33 28.5 C 32.503906 28.5 32.011719 28.5 31.5 28.5 C 31.5 27.511719 31.5 26.519531 31.5 25.5 Z M 31.5 25.5 "/>
<path style=" stroke:none;fill-rule:nonzero;fill:rgb(100%,83.92157%,28.235295%);fill-opacity:1;" d="M 36 18 C 36.496094 18 36.988281 18 37.5 18 C 37.5 18.988281 37.5 19.980469 37.5 21 C 37.003906 21 36.511719 21 36 21 C 36 20.011719 36 19.019531 36 18 Z M 36 18 "/>
<path style=" stroke:none;fill-rule:nonzero;fill:rgb(96.078432%,68.235296%,3.137255%);fill-opacity:1;" d="M 19.6875 23.8125 C 20.554688 24.035156 20.886719 24.464844 21.371094 25.171875 C 21.878906 26.042969 21.851562 26.960938 21.75 27.9375 C 21.402344 29.128906 20.664062 29.839844 19.6875 30.5625 C 19.5625 30.5 19.441406 30.4375 19.3125 30.375 C 19.425781 30.253906 19.425781 30.253906 19.546875 30.132812 C 20.601562 28.980469 20.902344 27.898438 20.875 26.34375 C 20.746094 25.367188 20.222656 24.617188 19.6875 23.8125 Z M 19.6875 23.8125 "/>
<path style=" stroke:none;fill-rule:nonzero;fill:rgb(98.039216%,70.19608%,3.137255%);fill-opacity:1;" d="M 8.4375 24.75 C 8.839844 24.820312 9.144531 24.910156 9.492188 25.128906 C 9.902344 25.71875 9.808594 26.347656 9.785156 27.035156 C 9.78125 27.175781 9.78125 27.316406 9.777344 27.460938 C 9.769531 27.808594 9.761719 28.152344 9.75 28.5 C 9.378906 28.6875 9.378906 28.6875 9 28.875 C 9 27.636719 9 26.398438 9 25.125 C 8.8125 25.0625 8.628906 25 8.4375 24.9375 C 8.4375 24.875 8.4375 24.8125 8.4375 24.75 Z M 8.4375 24.75 "/>
<path style=" stroke:none;fill-rule:nonzero;fill:rgb(100%,70.19608%,0%);fill-opacity:1;" d="M 34.5 33 C 34.746094 33 34.996094 33 35.25 33 C 35.25 33.988281 35.25 34.980469 35.25 36 C 35.003906 36 34.753906 36 34.5 36 C 34.5 35.011719 34.5 34.019531 34.5 33 Z M 34.5 33 "/>
<path style=" stroke:none;fill-rule:nonzero;fill:rgb(100%,70.19608%,0%);fill-opacity:1;" d="M 31.5 25.5 C 31.746094 25.5 31.996094 25.5 32.25 25.5 C 32.25 26.488281 32.25 27.480469 32.25 28.5 C 32.003906 28.5 31.753906 28.5 31.5 28.5 C 31.5 27.511719 31.5 26.519531 31.5 25.5 Z M 31.5 25.5 "/>
<path style=" stroke:none;fill-rule:nonzero;fill:rgb(100%,70.19608%,0%);fill-opacity:1;" d="M 36 18 C 36.246094 18 36.496094 18 36.75 18 C 36.75 18.988281 36.75 19.980469 36.75 21 C 36.503906 21 36.253906 21 36 21 C 36 20.011719 36 19.019531 36 18 Z M 36 18 "/>
<path style=" stroke:none;fill-rule:nonzero;fill:rgb(0%,2.745098%,30.588236%);fill-opacity:1;" d="M 12 10.5 C 12.496094 10.5 12.988281 10.5 13.5 10.5 C 13.5 10.996094 13.5 11.488281 13.5 12 C 13.003906 12 12.511719 12 12 12 C 12 11.503906 12 11.011719 12 10.5 Z M 12 10.5 "/>
<path style=" stroke:none;fill-rule:nonzero;fill:rgb(0%,2.745098%,30.588236%);fill-opacity:1;" d="M 9 10.5 C 9.496094 10.5 9.988281 10.5 10.5 10.5 C 10.5 10.996094 10.5 11.488281 10.5 12 C 10.003906 12 9.511719 12 9 12 C 9 11.503906 9 11.011719 9 10.5 Z M 9 10.5 "/>
<path style=" stroke:none;fill-rule:nonzero;fill:rgb(0%,2.745098%,30.588236%);fill-opacity:1;" d="M 6 10.5 C 6.496094 10.5 6.988281 10.5 7.5 10.5 C 7.5 10.996094 7.5 11.488281 7.5 12 C 7.003906 12 6.511719 12 6 12 C 6 11.503906 6 11.011719 6 10.5 Z M 6 10.5 "/>
<path style=" stroke:none;fill-rule:nonzero;fill:rgb(97.647059%,69.411767%,1.960784%);fill-opacity:1;" d="M 10.6875 31.875 C 11.625 32.011719 12.148438 32.617188 12.789062 33.269531 C 13.171875 33.816406 13.214844 34.046875 13.136719 34.699219 C 13.039062 35.128906 13.039062 35.128906 12.9375 35.4375 C 12.691406 35.375 12.441406 35.3125 12.1875 35.25 C 12.203125 35.128906 12.222656 35.011719 12.238281 34.886719 C 12.332031 33.847656 12.332031 33.847656 11.855469 32.964844 C 11.476562 32.644531 11.085938 32.351562 10.6875 32.0625 C 10.6875 32 10.6875 31.9375 10.6875 31.875 Z M 10.6875 31.875 "/>
<path style=" stroke:none;fill-rule:nonzero;fill:rgb(94.509804%,68.627453%,5.882353%);fill-opacity:1;" d="M 9 28.875 C 8.933594 28.96875 8.867188 29.0625 8.800781 29.15625 C 8.539062 29.855469 8.691406 30.394531 8.8125 31.125 C 8.625 31.1875 8.441406 31.25 8.25 31.3125 C 8.0625 30.753906 7.878906 30.199219 7.6875 29.625 C 8.578125 28.875 8.578125 28.875 9 28.875 Z M 9 28.875 "/>
<path style=" stroke:none;fill-rule:nonzero;fill:rgb(96.470588%,68.627453%,2.352941%);fill-opacity:1;" d="M 12.9375 18.5625 C 12.984375 18.832031 13.027344 19.101562 13.066406 19.371094 C 13.089844 19.519531 13.113281 19.671875 13.136719 19.828125 C 13.125 20.25 13.125 20.25 12.847656 20.585938 C 12.753906 20.660156 12.660156 20.734375 12.5625 20.8125 C 12.4375 20.75 12.316406 20.6875 12.1875 20.625 C 12.1875 20.007812 12.1875 19.386719 12.1875 18.75 C 12.5625 18.5625 12.5625 18.5625 12.9375 18.5625 Z M 12.9375 18.5625 "/>
<path style=" stroke:none;fill-rule:nonzero;fill:rgb(93.333334%,65.882355%,2.352941%);fill-opacity:1;" d="M 8.25 22.6875 C 8.4375 22.75 8.621094 22.8125 8.8125 22.875 C 8.625 23.433594 8.441406 23.988281 8.25 24.5625 C 8.0625 24.5 7.878906 24.4375 7.6875 24.375 C 7.875 23.816406 8.058594 23.261719 8.25 22.6875 Z M 8.25 22.6875 "/>
<path style=" stroke:none;fill-rule:nonzero;fill:rgb(89.019608%,64.313728%,6.27451%);fill-opacity:1;" d="M 10.6875 31.875 C 11.316406 31.984375 11.613281 32.171875 12.046875 32.636719 C 12.191406 32.789062 12.191406 32.789062 12.34375 32.949219 C 12.453125 33.066406 12.453125 33.066406 12.5625 33.1875 C 12.5 33.375 12.4375 33.558594 12.375 33.75 C 11.765625 33.15625 11.207031 32.550781 10.6875 31.875 Z M 10.6875 31.875 "/>
</g>
</svg>
