<?xml version="1.0" encoding="UTF-8"?>
<svg xmlns="http://www.w3.org/2000/svg" xmlns:xlink="http://www.w3.org/1999/xlink" width="48" height="48" viewBox="0 0 48 48" version="1.1">
<g id="surface1">
<path style=" stroke:none;fill-rule:nonzero;fill:rgb(17.647059%,21.176471%,37.254903%);fill-opacity:1;" d="M 25.046875 2.574219 C 25.257812 2.574219 25.464844 2.574219 25.679688 2.574219 C 25.898438 2.574219 26.117188 2.578125 26.34375 2.578125 C 26.5625 2.578125 26.78125 2.574219 27.007812 2.574219 C 27.214844 2.574219 27.425781 2.574219 27.636719 2.574219 C 27.832031 2.574219 28.023438 2.574219 28.222656 2.578125 C 28.6875 2.625 28.6875 2.625 29.0625 3 C 29.085938 3.679688 29.085938 3.679688 29.0625 4.3125 C 29.328125 4.414062 29.59375 4.511719 29.859375 4.605469 C 30.082031 4.6875 30.082031 4.6875 30.308594 4.769531 C 30.796875 4.886719 31.03125 4.863281 31.5 4.6875 C 31.6875 4.566406 31.871094 4.441406 32.0625 4.3125 C 33.171875 4.394531 33.726562 5.085938 34.476562 5.835938 C 34.609375 5.957031 34.738281 6.082031 34.875 6.207031 C 35.808594 7.128906 35.808594 7.128906 35.828125 8.027344 C 35.625 8.625 35.625 8.625 35.25 9.1875 C 35.367188 9.667969 35.367188 9.667969 35.601562 10.160156 C 35.710938 10.414062 35.710938 10.414062 35.824219 10.671875 C 35.878906 10.800781 35.9375 10.929688 36 11.0625 C 36.210938 11.089844 36.425781 11.117188 36.644531 11.144531 C 37.3125 11.25 37.3125 11.25 37.5 11.4375 C 37.519531 11.796875 37.523438 12.15625 37.523438 12.515625 C 37.523438 12.734375 37.523438 12.953125 37.523438 13.179688 C 37.523438 13.40625 37.523438 13.636719 37.523438 13.875 C 37.523438 14.105469 37.523438 14.335938 37.523438 14.570312 C 37.523438 14.789062 37.523438 15.007812 37.523438 15.234375 C 37.523438 15.4375 37.523438 15.636719 37.523438 15.847656 C 37.5 16.3125 37.5 16.3125 37.3125 16.5 C 36.875 16.566406 36.4375 16.632812 36 16.6875 C 35.859375 17.015625 35.722656 17.34375 35.589844 17.671875 C 35.476562 17.945312 35.476562 17.945312 35.359375 18.226562 C 35.324219 18.398438 35.285156 18.570312 35.25 18.75 C 35.503906 19.140625 35.503906 19.140625 35.8125 19.5 C 35.878906 20.050781 35.882812 20.332031 35.570312 20.796875 C 35.457031 20.910156 35.347656 21.023438 35.230469 21.136719 C 35.109375 21.261719 34.984375 21.382812 34.859375 21.511719 C 34.730469 21.636719 34.597656 21.761719 34.464844 21.890625 C 34.339844 22.019531 34.210938 22.144531 34.082031 22.28125 C 32.988281 23.359375 32.988281 23.359375 32.0625 23.4375 C 31.941406 23.34375 31.824219 23.25 31.703125 23.152344 C 31.316406 22.808594 31.316406 22.808594 30.746094 22.941406 C 30.546875 23 30.347656 23.0625 30.140625 23.121094 C 29.9375 23.175781 29.734375 23.234375 29.527344 23.292969 C 29.375 23.34375 29.21875 23.390625 29.0625 23.4375 C 29.070312 23.644531 29.078125 23.855469 29.085938 24.070312 C 29.0625 24.75 29.0625 24.75 28.6875 25.125 C 28.222656 25.171875 28.222656 25.171875 27.636719 25.175781 C 27.429688 25.175781 27.222656 25.175781 27.007812 25.175781 C 26.785156 25.175781 26.570312 25.171875 26.34375 25.171875 C 26.125 25.171875 25.90625 25.175781 25.679688 25.175781 C 25.472656 25.175781 25.265625 25.175781 25.046875 25.175781 C 24.859375 25.175781 24.664062 25.175781 24.46875 25.171875 C 24 25.125 24 25.125 23.625 24.75 C 23.601562 24.070312 23.601562 24.070312 23.625 23.4375 C 23.265625 23.328125 22.90625 23.222656 22.546875 23.121094 C 22.347656 23.0625 22.144531 23.003906 21.941406 22.941406 C 21.375 22.808594 21.375 22.808594 20.984375 23.152344 C 20.867188 23.246094 20.746094 23.339844 20.625 23.4375 C 19.507812 23.339844 18.976562 22.660156 18.222656 21.902344 C 18.09375 21.777344 17.964844 21.65625 17.828125 21.527344 C 16.910156 20.609375 16.910156 20.609375 16.753906 19.832031 C 16.875 19.3125 16.875 19.3125 17.175781 18.929688 C 17.265625 18.808594 17.347656 18.6875 17.4375 18.5625 C 17.34375 18.066406 17.34375 18.066406 17.097656 17.578125 C 17.023438 17.410156 16.949219 17.242188 16.871094 17.070312 C 16.808594 16.945312 16.75 16.816406 16.6875 16.6875 C 16.476562 16.667969 16.269531 16.648438 16.054688 16.628906 C 15.828125 16.585938 15.605469 16.542969 15.375 16.5 C 14.96875 15.890625 14.953125 15.707031 14.949219 15 C 14.949219 14.820312 14.949219 14.636719 14.949219 14.449219 C 14.949219 14.261719 14.953125 14.070312 14.953125 13.875 C 14.953125 13.683594 14.949219 13.496094 14.949219 13.300781 C 14.949219 13.117188 14.949219 12.9375 14.949219 12.75 C 14.949219 12.582031 14.953125 12.417969 14.953125 12.246094 C 15 11.8125 15 11.8125 15.375 11.25 C 16.054688 11.121094 16.054688 11.121094 16.6875 11.0625 C 16.9375 10.382812 17.183594 9.703125 17.4375 9 C 17.253906 8.816406 17.066406 8.628906 16.875 8.4375 C 16.753906 7.933594 16.753906 7.933594 16.875 7.3125 C 17.265625 6.765625 17.734375 6.3125 18.222656 5.847656 C 18.347656 5.71875 18.476562 5.59375 18.605469 5.460938 C 19.699219 4.394531 19.699219 4.394531 20.625 4.3125 C 20.742188 4.40625 20.863281 4.5 20.984375 4.597656 C 21.375 4.941406 21.375 4.941406 21.941406 4.804688 C 22.140625 4.75 22.339844 4.691406 22.546875 4.628906 C 22.75 4.570312 22.949219 4.515625 23.160156 4.457031 C 23.3125 4.410156 23.464844 4.359375 23.625 4.3125 C 23.617188 4.101562 23.609375 3.894531 23.601562 3.679688 C 23.640625 2.570312 24.058594 2.578125 25.046875 2.574219 Z M 21.75 9.5625 C 20.589844 10.949219 19.933594 12.503906 19.996094 14.324219 C 20.25 16.226562 21.175781 17.804688 22.664062 18.996094 C 24.34375 20.152344 26.03125 20.320312 28.046875 19.980469 C 29.730469 19.507812 30.921875 18.359375 31.839844 16.914062 C 32.640625 15.429688 32.855469 13.679688 32.410156 12.042969 C 31.675781 10.125 30.492188 8.898438 28.667969 8.019531 C 26.195312 7.023438 23.597656 7.765625 21.75 9.5625 Z M 21.75 9.5625 "/>
<path style=" stroke:none;fill-rule:nonzero;fill:rgb(17.647059%,21.176471%,37.254903%);fill-opacity:1;" d="M 26.25 25.875 C 26.546875 25.953125 26.546875 25.953125 26.847656 26.035156 C 27.046875 26.09375 27.25 26.15625 27.457031 26.214844 C 27.742188 26.296875 27.742188 26.296875 28.03125 26.382812 C 28.5 26.625 28.5 26.625 28.757812 27.085938 C 28.890625 27.628906 28.839844 27.96875 28.6875 28.5 C 28.804688 28.554688 28.921875 28.609375 29.039062 28.664062 C 29.4375 28.875 29.4375 28.875 29.8125 29.25 C 30.226562 29.296875 30.226562 29.296875 30.679688 29.273438 C 30.832031 29.269531 30.984375 29.265625 31.144531 29.261719 C 31.320312 29.257812 31.320312 29.257812 31.5 29.25 C 31.785156 29.761719 32.0625 30.273438 32.34375 30.785156 C 32.425781 30.929688 32.503906 31.074219 32.585938 31.222656 C 33.367188 32.660156 33.367188 32.660156 33.1875 33.375 C 32.9375 33.5625 32.6875 33.75 32.4375 33.9375 C 32.304688 34.40625 32.304688 34.40625 32.296875 34.910156 C 32.28125 35.164062 32.28125 35.164062 32.265625 35.421875 C 32.257812 35.550781 32.253906 35.679688 32.25 35.8125 C 32.621094 35.9375 32.992188 36.058594 33.375 36.1875 C 33.425781 37.222656 33.269531 38.007812 32.929688 38.964844 C 32.886719 39.089844 32.847656 39.214844 32.804688 39.34375 C 32.617188 39.894531 32.480469 40.269531 32.0625 40.6875 C 31.0625 40.75 31.0625 40.75 30.5625 40.5 C 30.511719 40.609375 30.460938 40.71875 30.410156 40.828125 C 30.1875 41.25 30.1875 41.25 29.871094 41.589844 C 29.507812 42.195312 29.671875 42.644531 29.8125 43.3125 C 28.980469 43.863281 28.140625 44.359375 27.246094 44.800781 C 27.078125 44.882812 26.910156 44.964844 26.738281 45.050781 C 26.25 45.1875 26.25 45.1875 25.730469 45.046875 C 25.3125 44.8125 25.3125 44.8125 25.160156 44.414062 C 25.140625 44.242188 25.140625 44.242188 25.125 44.0625 C 24.9375 44.125 24.753906 44.1875 24.5625 44.25 C 24.300781 44.261719 24.039062 44.265625 23.777344 44.261719 C 23.539062 44.257812 23.304688 44.253906 23.0625 44.25 C 23 44.558594 22.9375 44.867188 22.875 45.1875 C 21.820312 45.472656 21.101562 45.242188 20.109375 44.882812 C 19.964844 44.835938 19.824219 44.789062 19.675781 44.742188 C 18.640625 44.375 18.640625 44.375 18.277344 43.789062 C 18.1875 43.3125 18.1875 43.3125 18.1875 42.5625 C 17.820312 42.007812 17.820312 42.007812 17.25 41.625 C 16.8125 41.679688 16.375 41.742188 15.9375 41.8125 C 15.234375 41.269531 14.867188 40.546875 14.484375 39.761719 C 14.425781 39.648438 14.367188 39.535156 14.304688 39.417969 C 13.972656 38.75 13.800781 38.246094 13.875 37.5 C 14.183594 37.375 14.492188 37.253906 14.8125 37.125 C 14.8125 36.445312 14.8125 35.765625 14.8125 35.0625 C 14.441406 34.9375 14.070312 34.816406 13.6875 34.6875 C 13.621094 33.597656 13.832031 32.8125 14.238281 31.804688 C 14.292969 31.667969 14.34375 31.535156 14.394531 31.394531 C 14.78125 30.40625 14.78125 30.40625 15 30.1875 C 15.503906 30.222656 16 30.304688 16.5 30.375 C 16.550781 30.265625 16.601562 30.15625 16.652344 30.046875 C 16.875 29.625 16.875 29.625 17.191406 29.285156 C 17.550781 28.683594 17.367188 28.234375 17.25 27.5625 C 17.757812 27.277344 18.265625 27 18.773438 26.71875 C 18.917969 26.636719 19.058594 26.558594 19.207031 26.476562 C 20.023438 26.03125 20.605469 25.765625 21.5625 25.875 C 21.6875 26.183594 21.808594 26.492188 21.9375 26.8125 C 22.617188 26.75 23.296875 26.6875 24 26.625 C 24.0625 26.316406 24.125 26.007812 24.1875 25.6875 C 24.847656 25.359375 25.566406 25.691406 26.25 25.875 Z M 19.777344 32.257812 C 18.734375 33.644531 18.535156 35.035156 18.75 36.75 C 19.203125 38.253906 20.277344 39.128906 21.570312 39.933594 C 22.59375 40.464844 23.769531 40.476562 24.867188 40.175781 C 25.839844 39.816406 26.515625 39.4375 27.1875 38.625 C 27.324219 38.476562 27.457031 38.324219 27.597656 38.167969 C 28.433594 36.988281 28.453125 35.714844 28.3125 34.3125 C 27.992188 33.066406 27.296875 32.058594 26.25 31.3125 C 23.960938 30.160156 21.5625 30.261719 19.777344 32.257812 Z M 19.777344 32.257812 "/>
<path style=" stroke:none;fill-rule:nonzero;fill:rgb(17.647059%,21.176471%,37.254903%);fill-opacity:1;" d="M 7.78125 14.949219 C 7.949219 14.949219 8.113281 14.949219 8.285156 14.949219 C 8.460938 14.949219 8.632812 14.953125 8.8125 14.953125 C 8.988281 14.953125 9.160156 14.949219 9.339844 14.949219 C 9.589844 14.949219 9.589844 14.949219 9.84375 14.949219 C 9.996094 14.949219 10.148438 14.949219 10.308594 14.953125 C 10.6875 15 10.6875 15 11.0625 15.375 C 11.085938 15.867188 11.085938 15.867188 11.0625 16.3125 C 11.429688 16.363281 11.429688 16.363281 11.800781 16.417969 C 11.9375 16.4375 12.074219 16.457031 12.214844 16.476562 C 12.386719 16.488281 12.386719 16.488281 12.5625 16.5 C 12.625 16.4375 12.6875 16.378906 12.75 16.3125 C 13.296875 16.226562 13.699219 16.199219 14.179688 16.507812 C 14.492188 16.777344 14.78125 17.066406 15.070312 17.367188 C 15.171875 17.464844 15.277344 17.5625 15.378906 17.664062 C 15.890625 18.183594 16.109375 18.433594 16.199219 19.175781 C 16.125 19.6875 16.125 19.6875 16.019531 20.074219 C 15.914062 20.550781 16.007812 20.910156 16.125 21.375 C 16.347656 21.363281 16.347656 21.363281 16.570312 21.351562 C 17.0625 21.375 17.0625 21.375 17.4375 21.75 C 17.484375 22.132812 17.484375 22.132812 17.488281 22.59375 C 17.488281 22.84375 17.488281 22.84375 17.488281 23.097656 C 17.488281 23.269531 17.484375 23.445312 17.484375 23.625 C 17.484375 23.886719 17.484375 23.886719 17.488281 24.152344 C 17.488281 24.320312 17.488281 24.484375 17.488281 24.65625 C 17.484375 24.808594 17.484375 24.960938 17.484375 25.117188 C 17.4375 25.5 17.4375 25.5 17.0625 25.875 C 16.570312 25.898438 16.570312 25.898438 16.125 25.875 C 16.089844 26.117188 16.054688 26.363281 16.019531 26.613281 C 16 26.75 15.980469 26.886719 15.960938 27.027344 C 15.953125 27.144531 15.945312 27.257812 15.9375 27.375 C 16 27.4375 16.0625 27.5 16.125 27.5625 C 16.210938 28.109375 16.238281 28.511719 15.929688 28.988281 C 15.652344 29.304688 15.363281 29.59375 15.058594 29.882812 C 14.957031 29.984375 14.859375 30.085938 14.757812 30.191406 C 14.308594 30.628906 13.992188 30.917969 13.367188 31.027344 C 12.9375 30.9375 12.9375 30.9375 12.375 30.5625 C 11.6875 30.714844 11.6875 30.714844 11.0625 30.9375 C 11.070312 31.085938 11.078125 31.230469 11.085938 31.382812 C 11.0625 31.875 11.0625 31.875 10.6875 32.25 C 10.308594 32.296875 10.308594 32.296875 9.84375 32.300781 C 9.675781 32.300781 9.511719 32.300781 9.339844 32.300781 C 9.164062 32.300781 8.992188 32.296875 8.8125 32.296875 C 8.636719 32.296875 8.464844 32.300781 8.285156 32.300781 C 8.035156 32.300781 8.035156 32.300781 7.78125 32.300781 C 7.628906 32.300781 7.476562 32.300781 7.316406 32.296875 C 6.9375 32.25 6.9375 32.25 6.5625 31.875 C 6.539062 31.382812 6.539062 31.382812 6.5625 30.9375 C 6.128906 30.816406 5.695312 30.691406 5.25 30.5625 C 5.0625 30.75 5.0625 30.75 4.875 30.9375 C 4.320312 31.035156 3.933594 31.050781 3.445312 30.746094 C 3.125 30.476562 2.835938 30.195312 2.542969 29.894531 C 2.4375 29.796875 2.335938 29.703125 2.226562 29.601562 C 1.933594 29.308594 1.703125 29.050781 1.5 28.6875 C 1.515625 28.03125 1.582031 27.585938 1.875 27 C 1.761719 26.621094 1.636719 26.246094 1.5 25.875 C 1.277344 25.886719 1.277344 25.886719 1.054688 25.898438 C 0.5625 25.875 0.5625 25.875 0.1875 25.5 C 0.140625 25.117188 0.140625 25.117188 0.136719 24.65625 C 0.136719 24.488281 0.136719 24.324219 0.136719 24.152344 C 0.140625 23.890625 0.140625 23.890625 0.140625 23.625 C 0.140625 23.453125 0.136719 23.277344 0.136719 23.097656 C 0.136719 22.933594 0.136719 22.765625 0.136719 22.59375 C 0.140625 22.441406 0.140625 22.289062 0.140625 22.132812 C 0.1875 21.75 0.1875 21.75 0.5625 21.375 C 1.054688 21.351562 1.054688 21.351562 1.5 21.375 C 1.574219 21.132812 1.640625 20.890625 1.710938 20.648438 C 1.75 20.511719 1.789062 20.378906 1.828125 20.238281 C 1.84375 20.121094 1.859375 20 1.875 19.875 C 1.75 19.753906 1.628906 19.628906 1.5 19.5 C 1.410156 19.082031 1.410156 19.082031 1.5 18.5625 C 1.839844 18.121094 2.160156 17.761719 2.554688 17.378906 C 2.652344 17.273438 2.75 17.171875 2.851562 17.066406 C 3.371094 16.550781 3.617188 16.328125 4.363281 16.238281 C 4.875 16.3125 4.875 16.3125 5.261719 16.417969 C 5.734375 16.523438 6.09375 16.429688 6.5625 16.3125 C 6.554688 16.164062 6.546875 16.019531 6.539062 15.867188 C 6.582031 14.988281 7.015625 14.953125 7.78125 14.949219 Z M 5.25 21.1875 C 4.550781 22.296875 4.539062 23.472656 4.6875 24.75 C 5.015625 25.910156 5.75 26.722656 6.75 27.375 C 7.878906 27.921875 9.171875 27.960938 10.378906 27.628906 C 11.574219 27.089844 12.394531 26.160156 12.925781 24.972656 C 13.261719 23.929688 13.191406 22.894531 12.753906 21.894531 C 11.960938 20.535156 10.882812 19.71875 9.375 19.3125 C 7.753906 19.0625 6.28125 20.03125 5.25 21.1875 Z M 5.25 21.1875 "/>
<path style=" stroke:none;fill-rule:nonzero;fill:rgb(100%,40.784314%,34.901962%);fill-opacity:1;" d="M 40.007812 21.402344 C 40.527344 21.570312 40.960938 21.785156 41.4375 22.054688 C 41.613281 22.15625 41.792969 22.257812 41.972656 22.359375 C 42.160156 22.46875 42.347656 22.578125 42.539062 22.6875 C 42.730469 22.796875 42.921875 22.90625 43.117188 23.019531 C 47.433594 25.496094 47.433594 25.496094 47.8125 25.875 C 47.867188 26.324219 47.867188 26.324219 47.8125 26.8125 C 47.53125 27.097656 47.53125 27.097656 47.125 27.34375 C 46.96875 27.4375 46.816406 27.53125 46.65625 27.628906 C 46.480469 27.730469 46.304688 27.832031 46.125 27.9375 C 45.933594 28.050781 45.742188 28.164062 45.542969 28.28125 C 44.910156 28.652344 44.277344 29.015625 43.640625 29.378906 C 43.210938 29.625 42.777344 29.871094 42.347656 30.121094 C 42.160156 30.226562 41.972656 30.335938 41.777344 30.445312 C 41.429688 30.648438 41.085938 30.851562 40.746094 31.066406 C 40.238281 31.355469 39.949219 31.40625 39.375 31.3125 C 38.976562 30.710938 38.957031 30.558594 38.976562 29.871094 C 38.980469 29.71875 38.984375 29.570312 38.984375 29.410156 C 38.992188 29.296875 38.996094 29.183594 39 29.0625 C 38.839844 29.066406 38.675781 29.066406 38.511719 29.070312 C 37.910156 29.082031 37.308594 29.089844 36.707031 29.09375 C 36.449219 29.097656 36.1875 29.101562 35.929688 29.105469 C 35.554688 29.109375 35.179688 29.113281 34.808594 29.117188 C 34.582031 29.121094 34.355469 29.125 34.125 29.125 C 33.5625 29.0625 33.5625 29.0625 33.207031 28.839844 C 32.925781 28.378906 32.929688 28.054688 32.933594 27.515625 C 32.933594 27.226562 32.933594 27.226562 32.933594 26.9375 C 32.933594 26.738281 32.9375 26.535156 32.941406 26.332031 C 32.941406 26.132812 32.941406 25.933594 32.9375 25.726562 C 32.949219 24.238281 32.949219 24.238281 33.375 23.8125 C 33.933594 23.769531 33.933594 23.769531 34.640625 23.777344 C 34.828125 23.777344 34.828125 23.777344 35.019531 23.777344 C 35.417969 23.78125 35.8125 23.785156 36.210938 23.789062 C 36.480469 23.792969 36.75 23.792969 37.019531 23.792969 C 37.679688 23.800781 38.339844 23.804688 39 23.8125 C 38.992188 23.683594 38.984375 23.554688 38.980469 23.421875 C 38.976562 23.253906 38.96875 23.085938 38.964844 22.910156 C 38.953125 22.660156 38.953125 22.660156 38.945312 22.402344 C 39 21.9375 39 21.9375 39.222656 21.582031 C 39.5625 21.375 39.5625 21.375 40.007812 21.402344 Z M 40.007812 21.402344 "/>
<path style=" stroke:none;fill-rule:nonzero;fill:rgb(17.647059%,21.176471%,37.254903%);fill-opacity:1;" d="M 29.019531 9.636719 C 30.269531 10.539062 31.011719 11.609375 31.3125 13.125 C 31.472656 14.546875 31.117188 15.90625 30.277344 17.085938 C 29.359375 18.082031 28.324219 18.660156 26.972656 18.820312 C 25.355469 18.878906 24.175781 18.605469 22.921875 17.578125 C 21.832031 16.25 21.296875 15.179688 21.324219 13.449219 C 21.460938 12.074219 22.042969 10.941406 23.070312 10.027344 C 24.847656 8.695312 27.078125 8.511719 29.019531 9.636719 Z M 29.019531 9.636719 "/>
<path style=" stroke:none;fill-rule:nonzero;fill:rgb(17.647059%,21.176471%,37.254903%);fill-opacity:1;" d="M 25.5 32.4375 C 26.289062 32.957031 26.695312 33.414062 27 34.3125 C 27.160156 35.707031 27.117188 36.75 26.25 37.875 C 25.433594 38.652344 24.6875 39.011719 23.566406 39.070312 C 22.507812 39.042969 21.660156 38.699219 20.894531 37.96875 C 20.03125 36.984375 19.996094 36.136719 20.011719 34.878906 C 20.105469 33.851562 20.519531 33.285156 21.257812 32.566406 C 22.6875 31.644531 24.003906 31.664062 25.5 32.4375 Z M 25.5 32.4375 "/>
<path style=" stroke:none;fill-rule:nonzero;fill:rgb(17.647059%,21.176471%,37.254903%);fill-opacity:1;" d="M 10.546875 21.105469 C 11.300781 21.777344 11.769531 22.464844 11.84375 23.496094 C 11.773438 24.460938 11.515625 25.128906 10.875 25.875 C 10 26.5 9.308594 26.5625 8.253906 26.542969 C 7.328125 26.371094 6.777344 25.835938 6.1875 25.125 C 5.796875 24.339844 5.917969 23.355469 6 22.5 C 6.464844 21.519531 7.042969 21.078125 8.027344 20.671875 C 8.964844 20.566406 9.707031 20.703125 10.546875 21.105469 Z M 10.546875 21.105469 "/>
</g>
</svg>
