<?xml version="1.0" encoding="UTF-8"?>
<svg xmlns="http://www.w3.org/2000/svg" xmlns:xlink="http://www.w3.org/1999/xlink" width="48" height="48" viewBox="0 0 48 48" version="1.1">
<g id="surface1">
<path style=" stroke:none;fill-rule:nonzero;fill:rgb(96.862745%,36.078432%,38.431373%);fill-opacity:1;" d="M 36.667969 2.953125 C 38.957031 4.683594 40.539062 7.03125 40.949219 9.902344 C 41.316406 13.34375 40.390625 16.082031 38.25 18.75 C 37.539062 19.539062 36.796875 20.289062 36.042969 21.039062 C 35.832031 21.25 35.621094 21.464844 35.40625 21.675781 C 34.96875 22.117188 34.527344 22.558594 34.085938 23 C 33.523438 23.558594 32.964844 24.121094 32.40625 24.6875 C 31.972656 25.125 31.535156 25.558594 31.09375 25.996094 C 30.890625 26.203125 30.683594 26.410156 30.480469 26.621094 C 27.972656 29.148438 25.238281 30.886719 21.597656 30.996094 C 20.355469 30.980469 19.195312 30.699219 18 30.375 C 18 29.136719 18.925781 28.527344 19.757812 27.6875 C 20.933594 26.566406 21.824219 26.3125 23.4375 26.25 C 26.199219 25.453125 28.503906 22.183594 30.496094 20.203125 C 30.882812 19.820312 31.273438 19.4375 31.664062 19.058594 C 32.140625 18.589844 32.617188 18.121094 33.089844 17.652344 C 33.351562 17.390625 33.617188 17.132812 33.882812 16.875 C 35.382812 15.371094 36.441406 13.742188 36.609375 11.589844 C 36.492188 9.808594 35.828125 8.214844 34.519531 6.976562 C 32.882812 5.671875 31.328125 5.421875 29.25 5.625 C 26.847656 6.132812 25.132812 8.394531 23.460938 10.054688 C 23.371094 10.144531 23.277344 10.238281 23.183594 10.332031 C 22.699219 10.816406 22.210938 11.296875 21.722656 11.78125 C 21.226562 12.277344 20.730469 12.769531 20.226562 13.261719 C 19.839844 13.644531 19.453125 14.03125 19.066406 14.417969 C 18.882812 14.601562 18.699219 14.78125 18.515625 14.960938 C 16.683594 16.714844 16.683594 16.714844 15.882812 19.035156 C 15.894531 19.355469 15.894531 19.355469 15.902344 19.675781 C 15.707031 21.859375 13.746094 23.203125 12.1875 24.5625 C 11.8125 24.375 11.8125 24.375 11.652344 24.039062 C 10.800781 21.273438 10.984375 18.222656 12.242188 15.625 C 13.386719 13.5625 15.226562 11.925781 16.875 10.269531 C 16.96875 10.171875 17.0625 10.078125 17.164062 9.980469 C 17.664062 9.472656 18.167969 8.964844 18.671875 8.460938 C 19.183594 7.945312 19.699219 7.425781 20.210938 6.90625 C 20.609375 6.5 21.011719 6.097656 21.414062 5.695312 C 21.601562 5.503906 21.792969 5.316406 21.980469 5.121094 C 23.449219 3.625 25.019531 2.230469 27.070312 1.617188 C 27.25 1.5625 27.429688 1.503906 27.613281 1.449219 C 30.757812 0.609375 33.980469 1.121094 36.667969 2.953125 Z M 36.667969 2.953125 "/>
<path style=" stroke:none;fill-rule:nonzero;fill:rgb(96.078432%,27.450982%,44.313726%);fill-opacity:1;" d="M 30 17.625 C 30 18.863281 29.074219 19.472656 28.238281 20.3125 C 27.277344 21.234375 26.546875 21.707031 25.171875 21.683594 C 23.132812 21.910156 21.742188 23.492188 20.371094 24.875 C 20.152344 25.089844 19.933594 25.308594 19.71875 25.523438 C 19.265625 25.972656 18.8125 26.425781 18.363281 26.878906 C 17.789062 27.457031 17.210938 28.03125 16.632812 28.601562 C 16.183594 29.046875 15.734375 29.492188 15.289062 29.941406 C 15.078125 30.152344 14.863281 30.367188 14.652344 30.574219 C 12.960938 32.246094 11.582031 33.957031 11.390625 36.410156 C 11.507812 38.191406 12.171875 39.785156 13.480469 41.023438 C 15.117188 42.328125 16.671875 42.578125 18.75 42.375 C 21.769531 41.738281 24.148438 38.347656 26.265625 36.25 C 26.660156 35.855469 27.058594 35.464844 27.457031 35.074219 C 27.945312 34.597656 28.433594 34.117188 28.917969 33.636719 C 29.1875 33.367188 29.457031 33.101562 29.730469 32.839844 C 31.125 31.445312 32.296875 29.953125 32.308594 27.910156 C 32.351562 26.730469 32.820312 26.210938 33.65625 25.414062 C 33.8125 25.273438 33.972656 25.128906 34.136719 24.984375 C 34.296875 24.835938 34.457031 24.683594 34.621094 24.527344 C 35.015625 24.160156 35.410156 23.796875 35.8125 23.4375 C 36.1875 23.625 36.1875 23.625 36.347656 23.960938 C 37.199219 26.726562 37.015625 29.777344 35.757812 32.375 C 34.613281 34.4375 32.773438 36.074219 31.125 37.730469 C 31.03125 37.828125 30.9375 37.921875 30.839844 38.019531 C 30.335938 38.527344 29.832031 39.035156 29.328125 39.539062 C 28.8125 40.054688 28.300781 40.574219 27.789062 41.09375 C 27.390625 41.5 26.988281 41.902344 26.585938 42.304688 C 26.398438 42.496094 26.207031 42.683594 26.019531 42.878906 C 24.550781 44.375 22.980469 45.769531 20.929688 46.382812 C 20.75 46.4375 20.570312 46.496094 20.386719 46.550781 C 17.652344 47.28125 14.765625 47 12.269531 45.65625 C 9.730469 44.09375 8.289062 42.0625 7.265625 39.304688 C 6.65625 36.367188 6.921875 33.40625 8.554688 30.835938 C 9.566406 29.417969 10.726562 28.1875 11.957031 26.960938 C 12.167969 26.75 12.378906 26.535156 12.589844 26.324219 C 13.03125 25.882812 13.472656 25.441406 13.917969 25 C 14.476562 24.441406 15.035156 23.878906 15.59375 23.3125 C 16.03125 22.875 16.464844 22.441406 16.902344 22.003906 C 17.109375 21.796875 17.316406 21.589844 17.523438 21.378906 C 21.128906 17.738281 24.9375 16.230469 30 17.625 Z M 30 17.625 "/>
</g>
</svg>
