<?xml version="1.0" encoding="UTF-8"?>
<svg xmlns="http://www.w3.org/2000/svg" xmlns:xlink="http://www.w3.org/1999/xlink" width="48" height="48" viewBox="0 0 48 48" version="1.1">
<g id="surface1">
<path style=" stroke:none;fill-rule:nonzero;fill:rgb(16.862746%,73.333335%,91.37255%);fill-opacity:1;" d="M 5.578125 18.675781 C 5.761719 18.675781 5.761719 18.675781 5.949219 18.671875 C 6.210938 18.671875 6.46875 18.671875 6.726562 18.675781 C 7.125 18.679688 7.519531 18.675781 7.917969 18.671875 C 8.167969 18.671875 8.421875 18.671875 8.671875 18.675781 C 8.902344 18.675781 9.128906 18.675781 9.367188 18.675781 C 9.9375 18.75 9.9375 18.75 10.292969 19 C 10.625 19.503906 10.550781 19.976562 10.535156 20.566406 C 10.527344 20.898438 10.527344 20.898438 10.519531 21.238281 C 10.511719 21.40625 10.507812 21.574219 10.5 21.75 C 10.996094 21.75 11.488281 21.75 12 21.75 C 11.992188 21.496094 11.992188 21.496094 11.980469 21.238281 C 11.976562 21.015625 11.96875 20.792969 11.964844 20.566406 C 11.957031 20.347656 11.953125 20.125 11.945312 19.902344 C 12 19.3125 12 19.3125 12.207031 19 C 12.742188 18.625 13.183594 18.675781 13.828125 18.675781 C 14.011719 18.675781 14.011719 18.675781 14.199219 18.671875 C 14.460938 18.671875 14.71875 18.671875 14.976562 18.675781 C 15.375 18.679688 15.769531 18.675781 16.167969 18.671875 C 16.417969 18.671875 16.671875 18.671875 16.921875 18.675781 C 17.152344 18.675781 17.378906 18.675781 17.617188 18.675781 C 18.1875 18.75 18.1875 18.75 18.542969 19 C 18.875 19.503906 18.800781 19.976562 18.785156 20.566406 C 18.777344 20.898438 18.777344 20.898438 18.769531 21.238281 C 18.761719 21.40625 18.757812 21.574219 18.75 21.75 C 19.492188 21.75 20.234375 21.75 21 21.75 C 20.992188 21.496094 20.992188 21.496094 20.980469 21.238281 C 20.976562 21.015625 20.96875 20.792969 20.964844 20.566406 C 20.957031 20.347656 20.953125 20.125 20.945312 19.902344 C 21 19.3125 21 19.3125 21.207031 19 C 21.742188 18.625 22.183594 18.675781 22.828125 18.675781 C 23.011719 18.675781 23.011719 18.675781 23.199219 18.671875 C 23.460938 18.671875 23.71875 18.671875 23.976562 18.675781 C 24.375 18.679688 24.769531 18.675781 25.167969 18.671875 C 25.417969 18.671875 25.671875 18.671875 25.921875 18.675781 C 26.152344 18.675781 26.378906 18.675781 26.617188 18.675781 C 27.1875 18.75 27.1875 18.75 27.542969 19 C 27.875 19.503906 27.800781 19.976562 27.785156 20.566406 C 27.777344 20.898438 27.777344 20.898438 27.769531 21.238281 C 27.761719 21.40625 27.757812 21.574219 27.75 21.75 C 27.902344 21.742188 28.058594 21.734375 28.214844 21.722656 C 28.417969 21.714844 28.621094 21.710938 28.828125 21.703125 C 29.027344 21.695312 29.226562 21.6875 29.433594 21.675781 C 30.144531 21.769531 30.3125 21.945312 30.75 22.5 C 30.84375 23.011719 30.84375 23.011719 30.847656 23.605469 C 30.847656 23.828125 30.851562 24.050781 30.855469 24.28125 C 30.851562 24.523438 30.851562 24.761719 30.847656 25.007812 C 30.851562 25.253906 30.851562 25.503906 30.851562 25.753906 C 30.851562 26.277344 30.851562 26.800781 30.847656 27.324219 C 30.84375 27.992188 30.84375 28.65625 30.851562 29.328125 C 30.851562 29.964844 30.851562 30.605469 30.847656 31.242188 C 30.851562 31.480469 30.851562 31.722656 30.855469 31.96875 C 30.851562 32.304688 30.851562 32.304688 30.847656 32.644531 C 30.84375 32.839844 30.84375 33.035156 30.84375 33.238281 C 30.722656 33.898438 30.523438 34.085938 30 34.5 C 29.453125 34.59375 29.453125 34.59375 28.804688 34.597656 C 28.4375 34.597656 28.4375 34.597656 28.058594 34.601562 C 27.785156 34.601562 27.515625 34.597656 27.242188 34.597656 C 26.953125 34.597656 26.667969 34.601562 26.382812 34.601562 C 25.601562 34.605469 24.820312 34.601562 24.042969 34.601562 C 23.226562 34.601562 22.410156 34.601562 21.597656 34.601562 C 20.226562 34.601562 18.855469 34.601562 17.488281 34.597656 C 15.902344 34.59375 14.320312 34.597656 12.738281 34.601562 C 11.378906 34.601562 10.019531 34.601562 8.660156 34.601562 C 7.847656 34.601562 7.035156 34.601562 6.222656 34.601562 C 5.460938 34.605469 4.695312 34.601562 3.933594 34.597656 C 3.652344 34.597656 3.375 34.597656 3.09375 34.601562 C 2.710938 34.601562 2.328125 34.597656 1.945312 34.597656 C 1.730469 34.59375 1.515625 34.59375 1.296875 34.59375 C 0.628906 34.480469 0.40625 34.28125 0 33.75 C -0.09375 33.238281 -0.09375 33.238281 -0.0976562 32.644531 C -0.0976562 32.421875 -0.101562 32.199219 -0.105469 31.96875 C -0.101562 31.609375 -0.101562 31.609375 -0.0976562 31.242188 C -0.101562 30.996094 -0.101562 30.75 -0.101562 30.492188 C -0.101562 29.972656 -0.101562 29.449219 -0.0976562 28.929688 C -0.09375 28.261719 -0.09375 27.589844 -0.101562 26.921875 C -0.101562 26.285156 -0.101562 25.648438 -0.0976562 25.007812 C -0.101562 24.765625 -0.101562 24.527344 -0.105469 24.28125 C -0.101562 24.058594 -0.0976562 23.835938 -0.0976562 23.605469 C -0.09375 23.410156 -0.09375 23.214844 -0.09375 23.011719 C 0.0234375 22.367188 0.226562 22.140625 0.75 21.75 C 1.292969 21.695312 1.757812 21.679688 2.296875 21.703125 C 2.507812 21.710938 2.507812 21.710938 2.71875 21.710938 C 3.0625 21.722656 3.40625 21.734375 3.75 21.75 C 3.742188 21.496094 3.742188 21.496094 3.730469 21.238281 C 3.726562 21.015625 3.71875 20.792969 3.714844 20.566406 C 3.707031 20.347656 3.703125 20.125 3.695312 19.902344 C 3.75 19.3125 3.75 19.3125 3.957031 19 C 4.492188 18.625 4.933594 18.675781 5.578125 18.675781 Z M 5.578125 18.675781 "/>
<path style=" stroke:none;fill-rule:nonzero;fill:rgb(96.470588%,49.019608%,62.352943%);fill-opacity:1;" d="M 27.75 0 C 28.460938 0.335938 29.109375 0.753906 29.765625 1.183594 C 30.03125 1.351562 30.03125 1.351562 30.300781 1.523438 C 31.875 2.523438 31.875 2.523438 32.25 3 C 32.230469 4.152344 31.933594 4.851562 31.3125 5.8125 C 31.761719 6.167969 32.074219 6.378906 32.625 6.5625 C 32.699219 6.359375 32.699219 6.359375 32.777344 6.152344 C 33.351562 4.792969 33.351562 4.792969 33.9375 4.5 C 35.089844 4.382812 35.710938 4.667969 36.644531 5.273438 C 36.765625 5.347656 36.890625 5.425781 37.015625 5.503906 C 39.027344 6.777344 39.027344 6.777344 39.75 7.5 C 39.683594 8.511719 39.542969 9.074219 39 9.9375 C 39.125 10.519531 39.125 10.519531 39.574219 10.722656 C 39.695312 10.773438 39.8125 10.824219 39.9375 10.875 C 40.015625 10.753906 40.089844 10.636719 40.171875 10.511719 C 40.269531 10.359375 40.371094 10.203125 40.476562 10.042969 C 40.578125 9.890625 40.675781 9.734375 40.78125 9.574219 C 41.0625 9.1875 41.0625 9.1875 41.4375 9 C 42.589844 8.882812 43.210938 9.167969 44.144531 9.773438 C 44.328125 9.890625 44.328125 9.890625 44.515625 10.003906 C 46.527344 11.277344 46.527344 11.277344 47.25 12 C 47.179688 13.019531 47.015625 13.726562 46.5 14.625 C 46.609375 14.6875 46.71875 14.753906 46.828125 14.816406 C 46.96875 14.910156 47.109375 15 47.25 15.09375 C 47.390625 15.179688 47.53125 15.269531 47.671875 15.359375 C 48.0625 15.828125 48.144531 16.171875 48.113281 16.78125 C 47.851562 17.871094 47.191406 18.820312 46.617188 19.769531 C 46.480469 20.003906 46.339844 20.238281 46.203125 20.472656 C 45.933594 20.9375 45.65625 21.398438 45.378906 21.859375 C 45.050781 22.414062 44.722656 22.972656 44.402344 23.53125 C 44.238281 23.816406 44.074219 24.101562 43.910156 24.386719 C 43.835938 24.515625 43.765625 24.640625 43.6875 24.769531 C 42.871094 26.164062 42.871094 26.164062 42.210938 26.34375 C 40.832031 26.386719 39.929688 25.808594 38.789062 25.089844 C 38.390625 24.847656 37.988281 24.605469 37.585938 24.363281 C 37.382812 24.238281 37.179688 24.113281 36.972656 23.988281 C 36.066406 23.4375 35.144531 22.921875 34.21875 22.40625 C 32.75 21.582031 31.289062 20.738281 29.835938 19.886719 C 28.308594 18.988281 26.765625 18.113281 25.21875 17.25 C 23.617188 16.359375 22.023438 15.453125 20.4375 14.53125 C 20.164062 14.375 20.164062 14.375 19.882812 14.210938 C 17.0625 12.5625 17.0625 12.5625 16.5 12 C 16.242188 10.421875 17.097656 9.28125 17.882812 7.980469 C 18.019531 7.746094 18.160156 7.511719 18.296875 7.277344 C 18.570312 6.8125 18.84375 6.351562 19.121094 5.890625 C 19.449219 5.335938 19.773438 4.777344 20.089844 4.21875 C 20.175781 4.070312 20.257812 3.921875 20.34375 3.769531 C 20.496094 3.507812 20.644531 3.242188 20.792969 2.980469 C 21.160156 2.347656 21.476562 1.855469 22.125 1.5 C 23.164062 1.402344 23.695312 1.449219 24.5625 2.0625 C 24.6875 2.0625 24.808594 2.0625 24.9375 2.0625 C 25.222656 1.644531 25.222656 1.644531 25.5 1.136719 C 26.074219 0.113281 26.542969 -0.238281 27.75 0 Z M 27.75 0 "/>
<path style=" stroke:none;fill-rule:nonzero;fill:rgb(99.607843%,85.490197%,30.980393%);fill-opacity:1;" d="M 40.078125 32.175781 C 40.261719 32.175781 40.261719 32.175781 40.449219 32.171875 C 40.710938 32.171875 40.96875 32.171875 41.226562 32.175781 C 41.625 32.179688 42.019531 32.175781 42.417969 32.171875 C 42.667969 32.171875 42.921875 32.171875 43.171875 32.175781 C 43.402344 32.175781 43.628906 32.175781 43.867188 32.175781 C 44.4375 32.25 44.4375 32.25 44.792969 32.5 C 45.125 33.003906 45.050781 33.476562 45.035156 34.066406 C 45.027344 34.398438 45.027344 34.398438 45.019531 34.738281 C 45.011719 34.90625 45.007812 35.074219 45 35.25 C 45.152344 35.242188 45.308594 35.234375 45.464844 35.222656 C 45.667969 35.214844 45.871094 35.210938 46.078125 35.203125 C 46.277344 35.195312 46.476562 35.1875 46.683594 35.175781 C 47.394531 35.269531 47.5625 35.445312 48 36 C 48.09375 36.511719 48.09375 36.511719 48.097656 37.105469 C 48.097656 37.328125 48.101562 37.550781 48.105469 37.78125 C 48.101562 38.023438 48.101562 38.261719 48.097656 38.507812 C 48.101562 38.753906 48.101562 39.003906 48.101562 39.253906 C 48.101562 39.777344 48.101562 40.300781 48.097656 40.824219 C 48.09375 41.492188 48.09375 42.15625 48.101562 42.828125 C 48.101562 43.464844 48.101562 44.105469 48.097656 44.742188 C 48.101562 44.980469 48.101562 45.222656 48.105469 45.46875 C 48.101562 45.804688 48.101562 45.804688 48.097656 46.144531 C 48.09375 46.339844 48.09375 46.535156 48.09375 46.738281 C 47.972656 47.398438 47.773438 47.585938 47.25 48 C 46.703125 48.09375 46.703125 48.09375 46.054688 48.097656 C 45.6875 48.097656 45.6875 48.097656 45.308594 48.101562 C 45.035156 48.101562 44.765625 48.097656 44.492188 48.097656 C 44.203125 48.097656 43.917969 48.101562 43.632812 48.101562 C 42.851562 48.105469 42.070312 48.101562 41.292969 48.101562 C 40.476562 48.101562 39.660156 48.101562 38.847656 48.101562 C 37.476562 48.101562 36.105469 48.101562 34.738281 48.097656 C 33.152344 48.09375 31.570312 48.097656 29.988281 48.101562 C 28.628906 48.101562 27.269531 48.101562 25.910156 48.101562 C 25.097656 48.101562 24.285156 48.101562 23.472656 48.101562 C 22.710938 48.105469 21.945312 48.101562 21.183594 48.097656 C 20.902344 48.097656 20.625 48.097656 20.34375 48.101562 C 19.960938 48.101562 19.578125 48.097656 19.195312 48.097656 C 18.980469 48.09375 18.765625 48.09375 18.546875 48.09375 C 17.878906 47.980469 17.65625 47.78125 17.25 47.25 C 17.15625 46.738281 17.15625 46.738281 17.152344 46.144531 C 17.152344 45.921875 17.148438 45.699219 17.144531 45.46875 C 17.148438 45.109375 17.148438 45.109375 17.152344 44.742188 C 17.148438 44.496094 17.148438 44.25 17.148438 43.992188 C 17.148438 43.472656 17.148438 42.949219 17.152344 42.429688 C 17.15625 41.761719 17.15625 41.089844 17.148438 40.421875 C 17.148438 39.785156 17.148438 39.148438 17.152344 38.507812 C 17.148438 38.265625 17.148438 38.027344 17.144531 37.78125 C 17.148438 37.558594 17.152344 37.335938 17.152344 37.105469 C 17.15625 36.910156 17.15625 36.714844 17.15625 36.511719 C 17.25 36 17.25 36 17.507812 35.5625 C 18.285156 35.070312 19.042969 35.152344 19.945312 35.164062 C 20.140625 35.164062 20.339844 35.164062 20.542969 35.164062 C 21.195312 35.164062 21.847656 35.171875 22.503906 35.175781 C 22.957031 35.179688 23.410156 35.179688 23.859375 35.179688 C 25.054688 35.183594 26.246094 35.191406 27.4375 35.199219 C 28.65625 35.207031 29.871094 35.210938 31.085938 35.210938 C 33.476562 35.222656 35.863281 35.234375 38.25 35.25 C 38.242188 34.996094 38.242188 34.996094 38.230469 34.738281 C 38.226562 34.515625 38.21875 34.292969 38.214844 34.066406 C 38.207031 33.847656 38.203125 33.625 38.195312 33.402344 C 38.25 32.8125 38.25 32.8125 38.496094 32.457031 C 39.003906 32.121094 39.476562 32.175781 40.078125 32.175781 Z M 40.078125 32.175781 "/>
<path style=" stroke:none;fill-rule:nonzero;fill:rgb(98.431373%,67.843139%,29.019609%);fill-opacity:1;" d="M 2.132812 35.152344 C 2.269531 35.152344 2.40625 35.152344 2.550781 35.148438 C 3.003906 35.144531 3.457031 35.148438 3.914062 35.152344 C 4.230469 35.148438 4.546875 35.148438 4.863281 35.148438 C 5.527344 35.148438 6.191406 35.148438 6.855469 35.152344 C 7.703125 35.15625 8.554688 35.15625 9.402344 35.148438 C 10.058594 35.148438 10.710938 35.148438 11.363281 35.148438 C 11.675781 35.148438 11.992188 35.148438 12.304688 35.148438 C 12.742188 35.144531 13.179688 35.148438 13.621094 35.152344 C 13.75 35.152344 13.878906 35.148438 14.011719 35.148438 C 14.609375 35.160156 14.957031 35.21875 15.457031 35.5625 C 15.828125 36.113281 15.84375 36.441406 15.847656 37.105469 C 15.847656 37.328125 15.851562 37.550781 15.855469 37.78125 C 15.851562 38.023438 15.851562 38.261719 15.847656 38.507812 C 15.851562 38.878906 15.851562 38.878906 15.851562 39.253906 C 15.851562 39.777344 15.851562 40.300781 15.847656 40.820312 C 15.84375 41.492188 15.84375 42.15625 15.851562 42.828125 C 15.855469 43.464844 15.851562 44.105469 15.847656 44.742188 C 15.851562 44.980469 15.851562 45.222656 15.855469 45.46875 C 15.851562 45.691406 15.847656 45.914062 15.847656 46.144531 C 15.847656 46.339844 15.84375 46.535156 15.84375 46.738281 C 15.75 47.25 15.75 47.25 15.457031 47.6875 C 14.847656 48.105469 14.328125 48.105469 13.621094 48.097656 C 13.480469 48.097656 13.34375 48.101562 13.203125 48.101562 C 12.746094 48.105469 12.289062 48.101562 11.835938 48.101562 C 11.519531 48.101562 11.203125 48.101562 10.886719 48.101562 C 10.222656 48.105469 9.558594 48.101562 8.894531 48.097656 C 8.046875 48.09375 7.195312 48.097656 6.347656 48.101562 C 5.695312 48.105469 5.039062 48.101562 4.386719 48.101562 C 4.070312 48.101562 3.757812 48.101562 3.445312 48.101562 C 3.007812 48.105469 2.570312 48.101562 2.132812 48.097656 C 1.9375 48.101562 1.9375 48.101562 1.738281 48.101562 C 1.140625 48.089844 0.792969 48.03125 0.292969 47.6875 C -0.078125 47.136719 -0.09375 46.808594 -0.0976562 46.144531 C -0.101562 45.921875 -0.101562 45.699219 -0.105469 45.46875 C -0.101562 45.109375 -0.101562 45.109375 -0.101562 44.742188 C -0.101562 44.496094 -0.101562 44.25 -0.101562 43.992188 C -0.105469 43.472656 -0.101562 42.949219 -0.0976562 42.429688 C -0.09375 41.761719 -0.0976562 41.089844 -0.101562 40.421875 C -0.105469 39.785156 -0.101562 39.148438 -0.101562 38.507812 C -0.101562 38.265625 -0.101562 38.027344 -0.105469 37.78125 C -0.101562 37.558594 -0.101562 37.335938 -0.0976562 37.105469 C -0.0976562 36.910156 -0.0976562 36.714844 -0.0976562 36.511719 C 0 36 0 36 0.292969 35.5625 C 0.902344 35.144531 1.421875 35.144531 2.132812 35.152344 Z M 2.132812 35.152344 "/>
<path style=" stroke:none;fill-rule:nonzero;fill:rgb(1.176471%,0.392157%,0.784314%);fill-opacity:1;" d="M 27.75 0 C 28.460938 0.335938 29.109375 0.753906 29.765625 1.183594 C 30.03125 1.351562 30.03125 1.351562 30.300781 1.523438 C 31.875 2.523438 31.875 2.523438 32.25 3 C 32.230469 4.152344 31.933594 4.851562 31.3125 5.8125 C 31.761719 6.167969 32.074219 6.378906 32.625 6.5625 C 32.699219 6.359375 32.699219 6.359375 32.777344 6.152344 C 33.351562 4.792969 33.351562 4.792969 33.9375 4.5 C 35.089844 4.382812 35.710938 4.667969 36.644531 5.273438 C 36.765625 5.347656 36.890625 5.425781 37.015625 5.503906 C 39.027344 6.777344 39.027344 6.777344 39.75 7.5 C 39.683594 8.511719 39.542969 9.074219 39 9.9375 C 39.125 10.519531 39.125 10.519531 39.574219 10.722656 C 39.695312 10.773438 39.8125 10.824219 39.9375 10.875 C 40.015625 10.753906 40.089844 10.636719 40.171875 10.511719 C 40.269531 10.359375 40.371094 10.203125 40.476562 10.042969 C 40.578125 9.890625 40.675781 9.734375 40.78125 9.574219 C 41.0625 9.1875 41.0625 9.1875 41.4375 9 C 42.589844 8.882812 43.210938 9.167969 44.144531 9.773438 C 44.328125 9.890625 44.328125 9.890625 44.515625 10.003906 C 46.527344 11.277344 46.527344 11.277344 47.25 12 C 47.179688 13.019531 47.015625 13.726562 46.5 14.625 C 46.609375 14.6875 46.71875 14.753906 46.828125 14.816406 C 46.96875 14.910156 47.109375 15 47.25 15.09375 C 47.390625 15.179688 47.53125 15.269531 47.671875 15.359375 C 48.0625 15.828125 48.144531 16.171875 48.113281 16.78125 C 47.851562 17.871094 47.191406 18.820312 46.617188 19.769531 C 46.480469 20.003906 46.339844 20.238281 46.203125 20.472656 C 45.933594 20.9375 45.65625 21.398438 45.378906 21.859375 C 45.050781 22.414062 44.722656 22.972656 44.402344 23.53125 C 44.238281 23.816406 44.074219 24.101562 43.910156 24.386719 C 43.835938 24.515625 43.765625 24.640625 43.6875 24.769531 C 42.871094 26.164062 42.871094 26.164062 42.210938 26.34375 C 40.832031 26.386719 39.929688 25.808594 38.789062 25.089844 C 38.390625 24.847656 37.988281 24.605469 37.585938 24.363281 C 37.382812 24.238281 37.179688 24.113281 36.972656 23.988281 C 36.066406 23.4375 35.144531 22.921875 34.21875 22.40625 C 32.75 21.582031 31.289062 20.738281 29.835938 19.886719 C 28.308594 18.988281 26.765625 18.113281 25.21875 17.25 C 23.617188 16.359375 22.023438 15.453125 20.4375 14.53125 C 20.164062 14.375 20.164062 14.375 19.882812 14.210938 C 17.0625 12.5625 17.0625 12.5625 16.5 12 C 16.242188 10.421875 17.097656 9.28125 17.882812 7.980469 C 18.019531 7.746094 18.160156 7.511719 18.296875 7.277344 C 18.570312 6.8125 18.84375 6.351562 19.121094 5.890625 C 19.449219 5.335938 19.773438 4.777344 20.089844 4.21875 C 20.175781 4.070312 20.257812 3.921875 20.34375 3.769531 C 20.496094 3.507812 20.644531 3.242188 20.792969 2.980469 C 21.160156 2.347656 21.476562 1.855469 22.125 1.5 C 23.164062 1.402344 23.695312 1.449219 24.5625 2.0625 C 24.6875 2.0625 24.808594 2.0625 24.9375 2.0625 C 25.222656 1.644531 25.222656 1.644531 25.5 1.136719 C 26.074219 0.113281 26.542969 -0.238281 27.75 0 Z M 22.6875 3.1875 C 22.375 3.566406 22.375 3.566406 22.078125 4.101562 C 21.984375 4.253906 21.984375 4.253906 21.894531 4.410156 C 21.65625 4.816406 21.421875 5.21875 21.1875 5.625 C 21.074219 5.816406 20.964844 6.007812 20.847656 6.207031 C 20.222656 7.285156 19.59375 8.363281 18.976562 9.445312 C 18.867188 9.628906 18.761719 9.816406 18.652344 10.007812 C 18.421875 10.414062 18.203125 10.828125 18 11.25 C 18.132812 11.324219 18.261719 11.398438 18.398438 11.476562 C 19.03125 11.839844 19.664062 12.199219 20.296875 12.5625 C 20.414062 12.628906 20.53125 12.699219 20.652344 12.765625 C 21.019531 12.976562 21.386719 13.183594 21.753906 13.394531 C 21.9375 13.5 21.9375 13.5 22.128906 13.609375 C 23.03125 14.125 23.03125 14.125 23.929688 14.636719 C 24.039062 14.699219 24.144531 14.761719 24.257812 14.824219 C 25.015625 15.257812 25.773438 15.691406 26.53125 16.125 C 26.636719 16.1875 26.746094 16.25 26.859375 16.3125 C 27.351562 16.59375 27.351562 16.59375 27.84375 16.875 C 27.953125 16.9375 28.0625 17 28.171875 17.0625 C 29.15625 17.625 29.15625 17.625 29.484375 17.8125 C 29.703125 17.9375 29.921875 18.0625 30.140625 18.1875 C 30.6875 18.5 31.230469 18.808594 31.773438 19.121094 C 32.785156 19.699219 33.796875 20.277344 34.8125 20.855469 C 35.28125 21.125 35.753906 21.394531 36.222656 21.660156 C 36.550781 21.847656 36.875 22.035156 37.203125 22.21875 C 37.40625 22.335938 37.605469 22.453125 37.816406 22.570312 C 38.011719 22.683594 38.207031 22.792969 38.410156 22.910156 C 38.816406 23.144531 39.222656 23.386719 39.625 23.632812 C 39.824219 23.757812 40.027344 23.878906 40.230469 24.003906 C 40.5 24.171875 40.5 24.171875 40.769531 24.34375 C 41.222656 24.589844 41.222656 24.589844 41.648438 24.566406 C 42.175781 24.28125 42.347656 23.898438 42.636719 23.375 C 42.8125 23.066406 42.8125 23.066406 42.988281 22.746094 C 43.113281 22.523438 43.234375 22.300781 43.359375 22.078125 C 43.546875 21.742188 43.734375 21.40625 43.925781 21.070312 C 44.109375 20.742188 44.292969 20.414062 44.476562 20.085938 C 44.984375 19.199219 45.535156 18.347656 46.101562 17.496094 C 46.34375 17.089844 46.34375 17.089844 46.289062 16.695312 C 46.054688 16.148438 45.742188 16.019531 45.226562 15.730469 C 45.03125 15.621094 44.839844 15.511719 44.640625 15.398438 C 44.433594 15.28125 44.222656 15.167969 44.003906 15.046875 C 43.78125 14.921875 43.5625 14.796875 43.34375 14.671875 C 42.878906 14.414062 42.414062 14.152344 41.953125 13.894531 C 41.0625 13.398438 40.179688 12.890625 39.296875 12.382812 C 38.640625 12.007812 37.984375 11.628906 37.324219 11.257812 C 36.445312 10.753906 35.566406 10.253906 34.6875 9.75 C 34.578125 9.6875 34.46875 9.625 34.359375 9.5625 C 34.03125 9.375 33.703125 9.1875 33.375 9 C 32.148438 8.296875 30.917969 7.59375 29.6875 6.894531 C 29.21875 6.625 28.746094 6.355469 28.277344 6.089844 C 27.949219 5.902344 27.625 5.714844 27.296875 5.53125 C 27.09375 5.414062 26.894531 5.296875 26.683594 5.179688 C 26.488281 5.066406 26.292969 4.957031 26.089844 4.839844 C 25.683594 4.605469 25.273438 4.363281 24.867188 4.121094 C 24.667969 4 24.464844 3.882812 24.257812 3.757812 C 24.078125 3.648438 23.898438 3.539062 23.710938 3.425781 C 23.253906 3.144531 23.253906 3.144531 22.6875 3.1875 Z M 22.6875 3.1875 "/>
<path style=" stroke:none;fill-rule:nonzero;fill:rgb(0%,0%,0%);fill-opacity:1;" d="M 5.578125 18.675781 C 5.761719 18.675781 5.761719 18.675781 5.949219 18.671875 C 6.210938 18.671875 6.46875 18.671875 6.726562 18.675781 C 7.125 18.679688 7.519531 18.675781 7.917969 18.671875 C 8.167969 18.671875 8.421875 18.671875 8.671875 18.675781 C 8.902344 18.675781 9.128906 18.675781 9.367188 18.675781 C 9.9375 18.75 9.9375 18.75 10.292969 19 C 10.625 19.503906 10.550781 19.976562 10.535156 20.566406 C 10.527344 20.898438 10.527344 20.898438 10.519531 21.238281 C 10.511719 21.40625 10.507812 21.574219 10.5 21.75 C 10.996094 21.75 11.488281 21.75 12 21.75 C 11.992188 21.496094 11.992188 21.496094 11.980469 21.238281 C 11.976562 21.015625 11.96875 20.792969 11.964844 20.566406 C 11.957031 20.347656 11.953125 20.125 11.945312 19.902344 C 12 19.3125 12 19.3125 12.207031 19 C 12.742188 18.625 13.183594 18.675781 13.828125 18.675781 C 14.011719 18.675781 14.011719 18.675781 14.199219 18.671875 C 14.460938 18.671875 14.71875 18.671875 14.976562 18.675781 C 15.375 18.679688 15.769531 18.675781 16.167969 18.671875 C 16.417969 18.671875 16.671875 18.671875 16.921875 18.675781 C 17.152344 18.675781 17.378906 18.675781 17.617188 18.675781 C 18.1875 18.75 18.1875 18.75 18.542969 19 C 18.875 19.503906 18.800781 19.976562 18.785156 20.566406 C 18.777344 20.898438 18.777344 20.898438 18.769531 21.238281 C 18.761719 21.40625 18.757812 21.574219 18.75 21.75 C 19.492188 21.75 20.234375 21.75 21 21.75 C 20.992188 21.496094 20.992188 21.496094 20.980469 21.238281 C 20.976562 21.015625 20.96875 20.792969 20.964844 20.566406 C 20.957031 20.347656 20.953125 20.125 20.945312 19.902344 C 21 19.3125 21 19.3125 21.207031 19 C 21.742188 18.625 22.183594 18.675781 22.828125 18.675781 C 23.011719 18.675781 23.011719 18.675781 23.199219 18.671875 C 23.460938 18.671875 23.71875 18.671875 23.976562 18.675781 C 24.375 18.679688 24.769531 18.675781 25.167969 18.671875 C 25.417969 18.671875 25.671875 18.671875 25.921875 18.675781 C 26.152344 18.675781 26.378906 18.675781 26.617188 18.675781 C 27.1875 18.75 27.1875 18.75 27.542969 19 C 27.875 19.503906 27.800781 19.976562 27.785156 20.566406 C 27.777344 20.898438 27.777344 20.898438 27.769531 21.238281 C 27.761719 21.40625 27.757812 21.574219 27.75 21.75 C 27.902344 21.742188 28.058594 21.734375 28.214844 21.722656 C 28.417969 21.714844 28.621094 21.710938 28.828125 21.703125 C 29.027344 21.695312 29.226562 21.6875 29.433594 21.675781 C 30.144531 21.769531 30.3125 21.945312 30.75 22.5 C 30.84375 23.011719 30.84375 23.011719 30.847656 23.605469 C 30.847656 23.828125 30.851562 24.050781 30.855469 24.28125 C 30.851562 24.523438 30.851562 24.761719 30.847656 25.007812 C 30.851562 25.253906 30.851562 25.503906 30.851562 25.753906 C 30.851562 26.277344 30.851562 26.800781 30.847656 27.324219 C 30.84375 27.992188 30.84375 28.65625 30.851562 29.328125 C 30.851562 29.964844 30.851562 30.605469 30.847656 31.242188 C 30.851562 31.480469 30.851562 31.722656 30.855469 31.96875 C 30.851562 32.304688 30.851562 32.304688 30.847656 32.644531 C 30.84375 32.839844 30.84375 33.035156 30.84375 33.238281 C 30.722656 33.898438 30.523438 34.085938 30 34.5 C 29.453125 34.59375 29.453125 34.59375 28.804688 34.597656 C 28.4375 34.597656 28.4375 34.597656 28.058594 34.601562 C 27.785156 34.601562 27.515625 34.597656 27.242188 34.597656 C 26.953125 34.597656 26.667969 34.601562 26.382812 34.601562 C 25.601562 34.605469 24.820312 34.601562 24.042969 34.601562 C 23.226562 34.601562 22.410156 34.601562 21.597656 34.601562 C 20.226562 34.601562 18.855469 34.601562 17.488281 34.597656 C 15.902344 34.59375 14.320312 34.597656 12.738281 34.601562 C 11.378906 34.601562 10.019531 34.601562 8.660156 34.601562 C 7.847656 34.601562 7.035156 34.601562 6.222656 34.601562 C 5.460938 34.605469 4.695312 34.601562 3.933594 34.597656 C 3.652344 34.597656 3.375 34.597656 3.09375 34.601562 C 2.710938 34.601562 2.328125 34.597656 1.945312 34.597656 C 1.730469 34.59375 1.515625 34.59375 1.296875 34.59375 C 0.628906 34.480469 0.40625 34.28125 0 33.75 C -0.09375 33.238281 -0.09375 33.238281 -0.0976562 32.644531 C -0.0976562 32.421875 -0.101562 32.199219 -0.105469 31.96875 C -0.101562 31.609375 -0.101562 31.609375 -0.0976562 31.242188 C -0.101562 30.996094 -0.101562 30.75 -0.101562 30.492188 C -0.101562 29.972656 -0.101562 29.449219 -0.0976562 28.929688 C -0.09375 28.261719 -0.09375 27.589844 -0.101562 26.921875 C -0.101562 26.285156 -0.101562 25.648438 -0.0976562 25.007812 C -0.101562 24.765625 -0.101562 24.527344 -0.105469 24.28125 C -0.101562 24.058594 -0.0976562 23.835938 -0.0976562 23.605469 C -0.09375 23.410156 -0.09375 23.214844 -0.09375 23.011719 C 0.0234375 22.367188 0.226562 22.140625 0.75 21.75 C 1.292969 21.695312 1.757812 21.679688 2.296875 21.703125 C 2.507812 21.710938 2.507812 21.710938 2.71875 21.710938 C 3.0625 21.722656 3.40625 21.734375 3.75 21.75 C 3.742188 21.496094 3.742188 21.496094 3.730469 21.238281 C 3.726562 21.015625 3.71875 20.792969 3.714844 20.566406 C 3.707031 20.347656 3.703125 20.125 3.695312 19.902344 C 3.75 19.3125 3.75 19.3125 3.957031 19 C 4.492188 18.625 4.933594 18.675781 5.578125 18.675781 Z M 1.5 23.25 C 1.5 26.46875 1.5 29.683594 1.5 33 C 10.65625 33 19.816406 33 29.25 33 C 29.25 29.78125 29.25 26.566406 29.25 23.25 C 20.09375 23.25 10.933594 23.25 1.5 23.25 Z M 1.5 23.25 "/>
<path style=" stroke:none;fill-rule:nonzero;fill:rgb(0%,0%,0%);fill-opacity:1;" d="M 40.078125 32.175781 C 40.261719 32.175781 40.261719 32.175781 40.449219 32.171875 C 40.710938 32.171875 40.96875 32.171875 41.226562 32.175781 C 41.625 32.179688 42.019531 32.175781 42.417969 32.171875 C 42.667969 32.171875 42.921875 32.171875 43.171875 32.175781 C 43.402344 32.175781 43.628906 32.175781 43.867188 32.175781 C 44.4375 32.25 44.4375 32.25 44.792969 32.5 C 45.125 33.003906 45.050781 33.476562 45.035156 34.066406 C 45.027344 34.398438 45.027344 34.398438 45.019531 34.738281 C 45.011719 34.90625 45.007812 35.074219 45 35.25 C 45.152344 35.242188 45.308594 35.234375 45.464844 35.222656 C 45.667969 35.214844 45.871094 35.210938 46.078125 35.203125 C 46.277344 35.195312 46.476562 35.1875 46.683594 35.175781 C 47.394531 35.269531 47.5625 35.445312 48 36 C 48.09375 36.511719 48.09375 36.511719 48.097656 37.105469 C 48.097656 37.328125 48.101562 37.550781 48.105469 37.78125 C 48.101562 38.023438 48.101562 38.261719 48.097656 38.507812 C 48.101562 38.753906 48.101562 39.003906 48.101562 39.253906 C 48.101562 39.777344 48.101562 40.300781 48.097656 40.824219 C 48.09375 41.492188 48.09375 42.15625 48.101562 42.828125 C 48.101562 43.464844 48.101562 44.105469 48.097656 44.742188 C 48.101562 44.980469 48.101562 45.222656 48.105469 45.46875 C 48.101562 45.804688 48.101562 45.804688 48.097656 46.144531 C 48.09375 46.339844 48.09375 46.535156 48.09375 46.738281 C 47.972656 47.398438 47.773438 47.585938 47.25 48 C 46.703125 48.09375 46.703125 48.09375 46.054688 48.097656 C 45.6875 48.097656 45.6875 48.097656 45.308594 48.101562 C 45.035156 48.101562 44.765625 48.097656 44.492188 48.097656 C 44.203125 48.097656 43.917969 48.101562 43.632812 48.101562 C 42.851562 48.105469 42.070312 48.101562 41.292969 48.101562 C 40.476562 48.101562 39.660156 48.101562 38.847656 48.101562 C 37.476562 48.101562 36.105469 48.101562 34.738281 48.097656 C 33.152344 48.09375 31.570312 48.097656 29.988281 48.101562 C 28.628906 48.101562 27.269531 48.101562 25.910156 48.101562 C 25.097656 48.101562 24.285156 48.101562 23.472656 48.101562 C 22.710938 48.105469 21.945312 48.101562 21.183594 48.097656 C 20.902344 48.097656 20.625 48.097656 20.34375 48.101562 C 19.960938 48.101562 19.578125 48.097656 19.195312 48.097656 C 18.980469 48.09375 18.765625 48.09375 18.546875 48.09375 C 17.878906 47.980469 17.65625 47.78125 17.25 47.25 C 17.15625 46.738281 17.15625 46.738281 17.152344 46.144531 C 17.152344 45.921875 17.148438 45.699219 17.144531 45.46875 C 17.148438 45.109375 17.148438 45.109375 17.152344 44.742188 C 17.148438 44.496094 17.148438 44.25 17.148438 43.992188 C 17.148438 43.472656 17.148438 42.949219 17.152344 42.429688 C 17.15625 41.761719 17.15625 41.089844 17.148438 40.421875 C 17.148438 39.785156 17.148438 39.148438 17.152344 38.507812 C 17.148438 38.265625 17.148438 38.027344 17.144531 37.78125 C 17.148438 37.558594 17.152344 37.335938 17.152344 37.105469 C 17.15625 36.910156 17.15625 36.714844 17.15625 36.511719 C 17.25 36 17.25 36 17.507812 35.5625 C 18.285156 35.070312 19.042969 35.152344 19.945312 35.164062 C 20.140625 35.164062 20.339844 35.164062 20.542969 35.164062 C 21.195312 35.164062 21.847656 35.171875 22.503906 35.175781 C 22.957031 35.179688 23.410156 35.179688 23.859375 35.179688 C 25.054688 35.183594 26.246094 35.191406 27.4375 35.199219 C 28.65625 35.207031 29.871094 35.210938 31.085938 35.210938 C 33.476562 35.222656 35.863281 35.234375 38.25 35.25 C 38.242188 34.996094 38.242188 34.996094 38.230469 34.738281 C 38.226562 34.515625 38.21875 34.292969 38.214844 34.066406 C 38.207031 33.847656 38.203125 33.625 38.195312 33.402344 C 38.25 32.8125 38.25 32.8125 38.496094 32.457031 C 39.003906 32.121094 39.476562 32.175781 40.078125 32.175781 Z M 18.75 36.75 C 18.75 39.96875 18.75 43.183594 18.75 46.5 C 27.90625 46.5 37.066406 46.5 46.5 46.5 C 46.5 43.28125 46.5 40.066406 46.5 36.75 C 37.34375 36.75 28.183594 36.75 18.75 36.75 Z M 18.75 36.75 "/>
<path style=" stroke:none;fill-rule:nonzero;fill:rgb(0%,0%,0%);fill-opacity:1;" d="M 2.132812 35.152344 C 2.269531 35.152344 2.40625 35.152344 2.550781 35.148438 C 3.003906 35.144531 3.457031 35.148438 3.914062 35.152344 C 4.230469 35.148438 4.546875 35.148438 4.863281 35.148438 C 5.527344 35.148438 6.191406 35.148438 6.855469 35.152344 C 7.703125 35.15625 8.554688 35.15625 9.402344 35.148438 C 10.058594 35.148438 10.710938 35.148438 11.363281 35.148438 C 11.675781 35.148438 11.992188 35.148438 12.304688 35.148438 C 12.742188 35.144531 13.179688 35.148438 13.621094 35.152344 C 13.75 35.152344 13.878906 35.148438 14.011719 35.148438 C 14.609375 35.160156 14.957031 35.21875 15.457031 35.5625 C 15.828125 36.113281 15.84375 36.441406 15.847656 37.105469 C 15.847656 37.328125 15.851562 37.550781 15.855469 37.78125 C 15.851562 38.023438 15.851562 38.261719 15.847656 38.507812 C 15.851562 38.878906 15.851562 38.878906 15.851562 39.253906 C 15.851562 39.777344 15.851562 40.300781 15.847656 40.820312 C 15.84375 41.492188 15.84375 42.15625 15.851562 42.828125 C 15.855469 43.464844 15.851562 44.105469 15.847656 44.742188 C 15.851562 44.980469 15.851562 45.222656 15.855469 45.46875 C 15.851562 45.691406 15.847656 45.914062 15.847656 46.144531 C 15.847656 46.339844 15.84375 46.535156 15.84375 46.738281 C 15.75 47.25 15.75 47.25 15.457031 47.6875 C 14.847656 48.105469 14.328125 48.105469 13.621094 48.097656 C 13.480469 48.097656 13.34375 48.101562 13.203125 48.101562 C 12.746094 48.105469 12.289062 48.101562 11.835938 48.101562 C 11.519531 48.101562 11.203125 48.101562 10.886719 48.101562 C 10.222656 48.105469 9.558594 48.101562 8.894531 48.097656 C 8.046875 48.09375 7.195312 48.097656 6.347656 48.101562 C 5.695312 48.105469 5.039062 48.101562 4.386719 48.101562 C 4.070312 48.101562 3.757812 48.101562 3.445312 48.101562 C 3.007812 48.105469 2.570312 48.101562 2.132812 48.097656 C 1.9375 48.101562 1.9375 48.101562 1.738281 48.101562 C 1.140625 48.089844 0.792969 48.03125 0.292969 47.6875 C -0.078125 47.136719 -0.09375 46.808594 -0.0976562 46.144531 C -0.101562 45.921875 -0.101562 45.699219 -0.105469 45.46875 C -0.101562 45.109375 -0.101562 45.109375 -0.101562 44.742188 C -0.101562 44.496094 -0.101562 44.25 -0.101562 43.992188 C -0.105469 43.472656 -0.101562 42.949219 -0.0976562 42.429688 C -0.09375 41.761719 -0.0976562 41.089844 -0.101562 40.421875 C -0.105469 39.785156 -0.101562 39.148438 -0.101562 38.507812 C -0.101562 38.265625 -0.101562 38.027344 -0.105469 37.78125 C -0.101562 37.558594 -0.101562 37.335938 -0.0976562 37.105469 C -0.0976562 36.910156 -0.0976562 36.714844 -0.0976562 36.511719 C 0 36 0 36 0.292969 35.5625 C 0.902344 35.144531 1.421875 35.144531 2.132812 35.152344 Z M 1.5 36.75 C 1.5 39.96875 1.5 43.183594 1.5 46.5 C 5.707031 46.5 9.914062 46.5 14.25 46.5 C 14.25 43.28125 14.25 40.066406 14.25 36.75 C 10.042969 36.75 5.835938 36.75 1.5 36.75 Z M 1.5 36.75 "/>
<path style=" stroke:none;fill-rule:nonzero;fill:rgb(88.627452%,31.37255%,48.235294%);fill-opacity:1;" d="M 27 1.6875 C 27.824219 1.988281 28.554688 2.394531 29.308594 2.835938 C 29.429688 2.90625 29.550781 2.976562 29.675781 3.046875 C 29.972656 3.21875 30.265625 3.390625 30.5625 3.5625 C 30.335938 4.140625 30.097656 4.699219 29.8125 5.25 C 28.988281 4.949219 28.257812 4.542969 27.503906 4.101562 C 27.382812 4.03125 27.261719 3.960938 27.136719 3.890625 C 26.839844 3.71875 26.546875 3.546875 26.25 3.375 C 26.476562 2.796875 26.714844 2.238281 27 1.6875 Z M 27 1.6875 "/>
<path style=" stroke:none;fill-rule:nonzero;fill:rgb(89.019608%,31.37255%,48.235294%);fill-opacity:1;" d="M 34.5 6.1875 C 35.324219 6.488281 36.054688 6.894531 36.808594 7.335938 C 36.929688 7.40625 37.050781 7.476562 37.175781 7.546875 C 37.472656 7.71875 37.765625 7.890625 38.0625 8.0625 C 37.835938 8.707031 37.621094 9.097656 37.125 9.5625 C 36.625 9.300781 36.132812 9.035156 35.636719 8.765625 C 35.496094 8.691406 35.351562 8.617188 35.207031 8.539062 C 35.074219 8.46875 34.9375 8.390625 34.800781 8.316406 C 34.675781 8.25 34.550781 8.183594 34.421875 8.113281 C 34.125 7.875 34.125 7.875 33.972656 7.503906 C 33.921875 6.941406 34.1875 6.640625 34.5 6.1875 Z M 34.5 6.1875 "/>
<path style=" stroke:none;fill-rule:nonzero;fill:rgb(88.627452%,31.37255%,48.235294%);fill-opacity:1;" d="M 42 10.6875 C 42.824219 10.988281 43.554688 11.394531 44.308594 11.835938 C 44.429688 11.90625 44.550781 11.976562 44.675781 12.046875 C 44.972656 12.21875 45.265625 12.390625 45.5625 12.5625 C 45.210938 13.453125 45.210938 13.453125 45 13.875 C 44.105469 13.617188 43.363281 13.222656 42.585938 12.726562 C 42.472656 12.65625 42.363281 12.585938 42.25 12.515625 C 41.976562 12.34375 41.707031 12.171875 41.4375 12 C 41.789062 11.109375 41.789062 11.109375 42 10.6875 Z M 42 10.6875 "/>
<path style=" stroke:none;fill-rule:nonzero;fill:rgb(98.431373%,67.843139%,29.019609%);fill-opacity:1;" d="M 39.75 33.75 C 40.988281 33.75 42.226562 33.75 43.5 33.75 C 43.5 34.246094 43.5 34.738281 43.5 35.25 C 42.261719 35.25 41.023438 35.25 39.75 35.25 C 39.75 34.753906 39.75 34.261719 39.75 33.75 Z M 39.75 33.75 "/>
<path style=" stroke:none;fill-rule:nonzero;fill:rgb(16.470589%,55.686277%,90.196079%);fill-opacity:1;" d="M 22.5 20.25 C 23.738281 20.25 24.976562 20.25 26.25 20.25 C 26.25 20.746094 26.25 21.238281 26.25 21.75 C 25.011719 21.75 23.773438 21.75 22.5 21.75 C 22.5 21.253906 22.5 20.761719 22.5 20.25 Z M 22.5 20.25 "/>
<path style=" stroke:none;fill-rule:nonzero;fill:rgb(16.470589%,55.686277%,90.196079%);fill-opacity:1;" d="M 13.5 20.25 C 14.738281 20.25 15.976562 20.25 17.25 20.25 C 17.25 20.746094 17.25 21.238281 17.25 21.75 C 16.011719 21.75 14.773438 21.75 13.5 21.75 C 13.5 21.253906 13.5 20.761719 13.5 20.25 Z M 13.5 20.25 "/>
<path style=" stroke:none;fill-rule:nonzero;fill:rgb(16.470589%,55.686277%,90.196079%);fill-opacity:1;" d="M 5.25 20.25 C 6.488281 20.25 7.726562 20.25 9 20.25 C 9 20.746094 9 21.238281 9 21.75 C 7.761719 21.75 6.523438 21.75 5.25 21.75 C 5.25 21.253906 5.25 20.761719 5.25 20.25 Z M 5.25 20.25 "/>
</g>
</svg>
