<?xml version="1.0" encoding="UTF-8"?>
<svg xmlns="http://www.w3.org/2000/svg" xmlns:xlink="http://www.w3.org/1999/xlink" width="48" height="48" viewBox="0 0 48 48" version="1.1">
<g id="surface1">
<path style=" stroke:none;fill-rule:nonzero;fill:rgb(0.392157%,0.392157%,0.392157%);fill-opacity:1;" d="M 24.082031 -0.0703125 C 24.242188 -0.0703125 24.398438 -0.0742188 24.5625 -0.078125 C 25.457031 -0.0703125 26.105469 -0.0429688 26.8125 0.5625 C 27.328125 1.238281 27.449219 1.789062 27.527344 2.625 C 27.636719 3.394531 27.707031 3.84375 28.324219 4.335938 C 28.503906 4.453125 28.6875 4.570312 28.875 4.6875 C 28.9375 4.8125 29 4.9375 29.0625 5.0625 C 29.21875 5.0625 29.375 5.066406 29.53125 5.066406 C 31 5.078125 32.464844 5.089844 33.925781 5.105469 C 34.679688 5.117188 35.433594 5.121094 36.1875 5.128906 C 36.914062 5.132812 37.640625 5.140625 38.367188 5.148438 C 38.644531 5.152344 38.921875 5.15625 39.199219 5.15625 C 39.589844 5.15625 39.976562 5.164062 40.363281 5.167969 C 40.585938 5.171875 40.808594 5.171875 41.035156 5.175781 C 41.6875 5.257812 42.039062 5.417969 42.5625 5.8125 C 43.101562 6.636719 43.195312 7.289062 43.195312 8.265625 C 43.195312 8.449219 43.195312 8.449219 43.195312 8.636719 C 43.191406 8.890625 43.191406 9.148438 43.1875 9.40625 C 43.183594 9.796875 43.183594 10.191406 43.183594 10.585938 C 43.175781 12.511719 43.175781 12.511719 42.75 12.9375 C 42.269531 12.972656 42.269531 12.972656 41.8125 12.9375 C 41.472656 12.597656 41.59375 12.0625 41.585938 11.601562 C 41.578125 11.367188 41.574219 11.132812 41.570312 10.894531 C 41.558594 10.398438 41.550781 9.902344 41.542969 9.40625 C 41.535156 9.054688 41.535156 9.054688 41.527344 8.695312 C 41.523438 8.480469 41.519531 8.265625 41.515625 8.042969 C 41.480469 7.511719 41.480469 7.511719 41.222656 7.191406 C 40.726562 6.828125 40.351562 6.859375 39.742188 6.851562 C 39.511719 6.84375 39.277344 6.839844 39.039062 6.835938 C 38.785156 6.832031 38.53125 6.832031 38.277344 6.828125 C 38.015625 6.828125 37.753906 6.824219 37.492188 6.820312 C 36.941406 6.816406 36.394531 6.816406 35.847656 6.8125 C 35.144531 6.8125 34.445312 6.800781 33.746094 6.785156 C 33.207031 6.773438 32.664062 6.773438 32.125 6.773438 C 31.867188 6.773438 31.609375 6.769531 31.351562 6.761719 C 29.902344 6.683594 29.902344 6.683594 28.648438 7.285156 C 28.363281 7.65625 28.136719 8.015625 27.9375 8.4375 C 28.582031 9.496094 29.238281 10.511719 30.035156 11.460938 C 31.625 13.394531 31.851562 15.390625 31.6875 17.8125 C 31.386719 19.710938 30.375 21.394531 28.890625 22.601562 C 28.289062 23.023438 27.675781 23.34375 27 23.625 C 26.832031 23.699219 26.660156 23.773438 26.484375 23.847656 C 23.816406 24.515625 21.46875 24.09375 19.125 22.6875 C 18.75 22.3125 18.75 22.3125 18.574219 21.679688 C 18.390625 21.054688 18.214844 20.742188 17.8125 20.25 C 17.8125 20.128906 17.8125 20.003906 17.8125 19.875 C 17.667969 19.871094 17.527344 19.867188 17.378906 19.863281 C 16.875 19.6875 16.875 19.6875 16.546875 19.101562 C 15.808594 17.046875 15.992188 14.800781 16.910156 12.835938 C 17.519531 11.773438 18.273438 10.804688 19.046875 9.855469 C 19.5 9.28125 19.832031 8.757812 20.0625 8.0625 C 19.945312 8.019531 19.832031 7.976562 19.710938 7.933594 C 19.195312 7.617188 19.136719 7.308594 18.9375 6.75 C 17.40625 6.761719 15.878906 6.773438 14.347656 6.792969 C 13.636719 6.804688 12.925781 6.808594 12.214844 6.816406 C 11.527344 6.820312 10.84375 6.828125 10.15625 6.835938 C 9.894531 6.839844 9.632812 6.84375 9.371094 6.84375 C 9.003906 6.84375 8.640625 6.851562 8.273438 6.855469 C 7.960938 6.859375 7.960938 6.859375 7.640625 6.863281 C 7.132812 6.902344 7.132812 6.902344 6.777344 7.144531 C 6.449219 7.691406 6.488281 8.167969 6.480469 8.800781 C 6.480469 8.933594 6.476562 9.066406 6.476562 9.203125 C 6.46875 9.636719 6.46875 10.074219 6.464844 10.507812 C 6.460938 10.808594 6.460938 11.113281 6.457031 11.414062 C 6.449219 12.207031 6.441406 13.003906 6.4375 13.796875 C 6.429688 14.605469 6.421875 15.417969 6.414062 16.230469 C 6.398438 17.820312 6.386719 19.410156 6.375 21 C 6.492188 21.023438 6.605469 21.050781 6.726562 21.074219 C 6.878906 21.105469 7.03125 21.140625 7.1875 21.171875 C 7.339844 21.207031 7.488281 21.238281 7.644531 21.269531 C 8.914062 21.585938 9.921875 22.527344 10.644531 23.589844 C 11.515625 25.152344 11.664062 26.78125 11.238281 28.5 C 10.75 29.972656 9.8125 31.0625 8.511719 31.878906 C 7.820312 32.160156 7.101562 32.292969 6.375 32.4375 C 6.386719 33.363281 6.40625 34.285156 6.421875 35.210938 C 6.429688 35.523438 6.4375 35.839844 6.441406 36.15625 C 6.445312 36.605469 6.457031 37.058594 6.464844 37.511719 C 6.46875 37.652344 6.46875 37.792969 6.46875 37.9375 C 6.492188 38.695312 6.492188 38.695312 6.804688 39.367188 C 7.371094 39.710938 8.015625 39.671875 8.660156 39.691406 C 8.800781 39.699219 8.941406 39.703125 9.085938 39.710938 C 9.433594 39.726562 9.78125 39.738281 10.125 39.75 C 10.117188 39.53125 10.109375 39.3125 10.097656 39.085938 C 10.089844 38.792969 10.085938 38.507812 10.078125 38.214844 C 10.070312 38.070312 10.066406 37.925781 10.058594 37.777344 C 10.046875 37.070312 10.085938 36.636719 10.40625 35.992188 C 11.058594 35.480469 11.632812 35.519531 12.421875 35.566406 C 12.632812 35.574219 12.632812 35.574219 12.84375 35.578125 C 13.1875 35.589844 13.53125 35.605469 13.875 35.625 C 13.878906 35.511719 13.878906 35.402344 13.882812 35.289062 C 13.933594 34.460938 13.980469 34.042969 14.507812 33.375 C 15.171875 32.867188 15.648438 32.789062 16.460938 32.78125 C 16.734375 32.78125 16.734375 32.78125 17.011719 32.777344 C 17.207031 32.777344 17.40625 32.777344 17.609375 32.773438 C 17.808594 32.773438 18.011719 32.773438 18.21875 32.769531 C 18.644531 32.769531 19.070312 32.769531 19.5 32.765625 C 20.152344 32.765625 20.808594 32.757812 21.460938 32.753906 C 21.878906 32.753906 22.292969 32.75 22.707031 32.75 C 22.902344 32.746094 23.097656 32.746094 23.300781 32.742188 C 23.574219 32.742188 23.574219 32.742188 23.851562 32.746094 C 24.011719 32.742188 24.171875 32.742188 24.335938 32.742188 C 24.839844 32.828125 24.980469 33 25.3125 33.375 C 25.738281 33.484375 25.738281 33.484375 26.191406 33.503906 C 26.417969 33.523438 26.417969 33.523438 26.652344 33.539062 C 26.765625 33.546875 26.882812 33.554688 27 33.5625 C 27.125 33.316406 27.246094 33.070312 27.375 32.8125 C 28.609375 32.796875 29.84375 32.789062 31.078125 32.78125 C 31.496094 32.78125 31.917969 32.773438 32.335938 32.769531 C 32.941406 32.761719 33.546875 32.761719 34.152344 32.757812 C 34.429688 32.753906 34.429688 32.753906 34.71875 32.75 C 35.707031 32.746094 36.484375 32.761719 37.3125 33.375 C 37.847656 34.175781 37.945312 34.804688 37.929688 35.757812 C 37.929688 35.992188 37.925781 36.222656 37.925781 36.464844 C 37.917969 36.707031 37.914062 36.949219 37.910156 37.195312 C 37.910156 37.441406 37.90625 37.6875 37.902344 37.9375 C 37.894531 38.542969 37.886719 39.144531 37.875 39.75 C 38.363281 39.734375 38.851562 39.714844 39.339844 39.691406 C 39.476562 39.6875 39.617188 39.683594 39.757812 39.679688 C 40.511719 39.648438 40.511719 39.648438 41.195312 39.367188 C 41.574219 38.789062 41.527344 38.179688 41.53125 37.511719 C 41.535156 37.363281 41.539062 37.21875 41.542969 37.070312 C 41.554688 36.609375 41.5625 36.144531 41.566406 35.683594 C 41.570312 35.367188 41.578125 35.054688 41.585938 34.742188 C 41.601562 33.972656 41.613281 33.207031 41.625 32.4375 C 41.515625 32.414062 41.402344 32.394531 41.285156 32.371094 C 39.589844 32.027344 38.347656 31.300781 37.351562 29.847656 C 36.542969 28.390625 36.304688 26.789062 36.6875 25.164062 C 37.253906 23.378906 38.230469 22.253906 39.863281 21.359375 C 40.441406 21.136719 41.011719 21.070312 41.625 21 C 41.621094 20.875 41.617188 20.75 41.613281 20.621094 C 41.597656 20.050781 41.585938 19.484375 41.578125 18.914062 C 41.570312 18.71875 41.566406 18.523438 41.558594 18.320312 C 41.542969 17.179688 41.554688 16.429688 42.375 15.5625 C 42.878906 15.128906 43.410156 14.746094 43.957031 14.367188 C 44.097656 14.265625 44.238281 14.164062 44.382812 14.058594 C 44.519531 13.960938 44.660156 13.863281 44.800781 13.765625 C 44.988281 13.632812 44.988281 13.632812 45.175781 13.5 C 45.652344 13.269531 45.972656 13.25 46.5 13.3125 C 46.875 13.6875 46.875 13.6875 46.898438 14.207031 C 46.585938 15.101562 45.984375 15.394531 45.199219 15.878906 C 44.921875 16.054688 44.648438 16.230469 44.375 16.410156 C 44.25 16.484375 44.128906 16.5625 44.003906 16.640625 C 43.566406 16.964844 43.335938 17.285156 43.253906 17.828125 C 43.246094 17.976562 43.242188 18.121094 43.234375 18.269531 C 43.226562 18.429688 43.21875 18.589844 43.210938 18.753906 C 43.207031 18.917969 43.203125 19.082031 43.195312 19.253906 C 43.183594 19.503906 43.183594 19.503906 43.171875 19.761719 C 43.15625 20.175781 43.140625 20.585938 43.125 21 C 43.238281 21.023438 43.347656 21.042969 43.464844 21.066406 C 45.125 21.398438 46.085938 22.175781 47.191406 23.4375 C 47.875 24.472656 48.097656 25.378906 48.070312 26.613281 C 48.070312 26.746094 48.066406 26.878906 48.0625 27.015625 C 48.003906 28.847656 47.457031 29.757812 46.203125 31.085938 C 45.246094 31.960938 44.382812 32.234375 43.125 32.4375 C 43.128906 32.761719 43.128906 32.761719 43.132812 33.09375 C 43.144531 33.898438 43.152344 34.707031 43.15625 35.507812 C 43.160156 35.859375 43.160156 36.207031 43.167969 36.554688 C 43.175781 37.054688 43.175781 37.558594 43.179688 38.058594 C 43.183594 38.214844 43.1875 38.367188 43.1875 38.527344 C 43.1875 39.40625 43.125 39.96875 42.5625 40.6875 C 41.710938 41.4375 40.761719 41.316406 39.691406 41.285156 C 39.515625 41.28125 39.34375 41.28125 39.164062 41.277344 C 38.734375 41.273438 38.304688 41.261719 37.875 41.25 C 37.878906 41.402344 37.878906 41.554688 37.882812 41.714844 C 37.894531 42.410156 37.902344 43.105469 37.910156 43.804688 C 37.914062 44.046875 37.917969 44.285156 37.925781 44.535156 C 37.925781 44.882812 37.925781 44.882812 37.929688 45.242188 C 37.933594 45.5625 37.933594 45.5625 37.9375 45.890625 C 37.863281 46.589844 37.679688 47.03125 37.3125 47.625 C 36.710938 48.023438 36.554688 48.046875 35.863281 48.050781 C 35.679688 48.054688 35.5 48.054688 35.308594 48.058594 C 35.109375 48.058594 34.910156 48.058594 34.703125 48.058594 C 34.492188 48.058594 34.285156 48.0625 34.066406 48.0625 C 33.367188 48.066406 32.667969 48.070312 31.96875 48.070312 C 31.488281 48.070312 31 48.070312 30.515625 48.074219 C 29.5 48.078125 28.484375 48.078125 27.464844 48.078125 C 26.292969 48.078125 25.117188 48.085938 23.941406 48.09375 C 22.8125 48.101562 21.683594 48.105469 20.550781 48.105469 C 20.070312 48.105469 19.589844 48.105469 19.109375 48.109375 C 18.4375 48.117188 17.765625 48.117188 17.09375 48.113281 C 16.796875 48.117188 16.796875 48.117188 16.488281 48.121094 C 15.140625 48.109375 15.140625 48.109375 14.410156 47.554688 C 14.050781 47.042969 13.9375 46.773438 13.910156 46.160156 C 13.898438 45.9375 13.898438 45.9375 13.882812 45.710938 C 13.878906 45.601562 13.878906 45.488281 13.875 45.375 C 13.585938 45.390625 13.585938 45.390625 13.292969 45.40625 C 13.039062 45.417969 12.785156 45.425781 12.527344 45.433594 C 12.335938 45.445312 12.335938 45.445312 12.144531 45.457031 C 11.449219 45.472656 11.089844 45.390625 10.503906 45.007812 C 9.992188 44.238281 10.019531 43.683594 10.066406 42.785156 C 10.070312 42.636719 10.074219 42.492188 10.078125 42.335938 C 10.089844 41.976562 10.109375 41.613281 10.125 41.25 C 9.960938 41.253906 9.960938 41.253906 9.796875 41.257812 C 9.300781 41.273438 8.804688 41.277344 8.308594 41.285156 C 8.136719 41.289062 7.964844 41.292969 7.789062 41.300781 C 6.152344 41.316406 6.152344 41.316406 5.4375 40.6875 C 4.769531 39.835938 4.800781 39.09375 4.820312 38.058594 C 4.820312 37.898438 4.820312 37.738281 4.820312 37.570312 C 4.824219 37.058594 4.832031 36.546875 4.839844 36.035156 C 4.84375 35.6875 4.84375 35.339844 4.847656 34.992188 C 4.855469 34.140625 4.863281 33.289062 4.875 32.4375 C 4.640625 32.382812 4.40625 32.324219 4.164062 32.269531 C 2.417969 31.851562 1.308594 30.773438 0.34375 29.285156 C -0.292969 27.9375 -0.246094 25.96875 0.164062 24.558594 C 0.851562 23.082031 1.898438 22.035156 3.359375 21.324219 C 3.855469 21.152344 4.355469 21.082031 4.875 21 C 4.875 20.828125 4.871094 20.652344 4.871094 20.472656 C 4.859375 18.835938 4.851562 17.195312 4.847656 15.558594 C 4.84375 14.714844 4.839844 13.871094 4.832031 13.03125 C 4.824219 12.214844 4.824219 11.40625 4.820312 10.589844 C 4.820312 10.28125 4.816406 9.96875 4.816406 9.660156 C 4.8125 9.226562 4.8125 8.789062 4.8125 8.355469 C 4.8125 8.109375 4.808594 7.859375 4.808594 7.605469 C 4.902344 6.671875 5.128906 6.066406 5.863281 5.464844 C 6.488281 5.203125 6.957031 5.179688 7.632812 5.183594 C 7.757812 5.183594 7.878906 5.183594 8.003906 5.183594 C 8.410156 5.1875 8.8125 5.191406 9.214844 5.195312 C 9.496094 5.195312 9.777344 5.195312 10.054688 5.195312 C 10.792969 5.199219 11.527344 5.207031 12.261719 5.210938 C 13.015625 5.21875 13.765625 5.21875 14.519531 5.222656 C 15.992188 5.226562 17.464844 5.238281 18.9375 5.25 C 18.984375 5.101562 19.035156 4.953125 19.082031 4.800781 C 19.3125 4.3125 19.3125 4.3125 19.980469 3.996094 C 20.34375 3.832031 20.34375 3.832031 20.625 3.5625 C 20.738281 3.085938 20.753906 2.640625 20.769531 2.152344 C 20.847656 1.328125 21.304688 0.835938 21.851562 0.257812 C 22.570312 -0.144531 23.273438 -0.0820312 24.082031 -0.0703125 Z M 24.082031 -0.0703125 "/>
<path style=" stroke:none;fill-rule:nonzero;fill:rgb(21.176471%,36.470589%,48.627451%);fill-opacity:1;" d="M 25.125 33.5625 C 25.429688 33.546875 25.734375 33.535156 26.039062 33.527344 C 26.207031 33.519531 26.378906 33.515625 26.554688 33.507812 C 26.773438 33.535156 26.773438 33.535156 27 33.5625 C 27.125 33.75 27.246094 33.933594 27.375 34.125 C 27.757812 34.210938 27.757812 34.210938 28.203125 34.199219 C 28.460938 34.203125 28.460938 34.203125 28.722656 34.207031 C 28.910156 34.207031 29.09375 34.207031 29.285156 34.207031 C 29.476562 34.210938 29.664062 34.214844 29.859375 34.214844 C 30.46875 34.222656 31.078125 34.226562 31.6875 34.230469 C 32.296875 34.234375 32.90625 34.238281 33.515625 34.246094 C 33.890625 34.253906 34.273438 34.253906 34.652344 34.257812 C 34.824219 34.257812 34.996094 34.261719 35.171875 34.261719 C 35.324219 34.261719 35.476562 34.265625 35.628906 34.265625 C 36 34.3125 36 34.3125 36.375 34.6875 C 36.421875 35.171875 36.421875 35.171875 36.421875 35.792969 C 36.425781 36.023438 36.425781 36.253906 36.425781 36.492188 C 36.425781 36.746094 36.425781 37 36.425781 37.253906 C 36.425781 37.511719 36.425781 37.773438 36.425781 38.03125 C 36.425781 38.574219 36.425781 39.117188 36.421875 39.660156 C 36.421875 40.359375 36.421875 41.058594 36.425781 41.753906 C 36.425781 42.289062 36.425781 42.824219 36.425781 43.359375 C 36.425781 43.617188 36.425781 43.875 36.425781 44.132812 C 36.425781 44.488281 36.425781 44.851562 36.421875 45.207031 C 36.421875 45.414062 36.421875 45.617188 36.421875 45.828125 C 36.375 46.3125 36.375 46.3125 36 46.6875 C 35.636719 46.734375 35.636719 46.734375 35.1875 46.734375 C 34.933594 46.734375 34.933594 46.734375 34.671875 46.738281 C 34.484375 46.738281 34.296875 46.734375 34.105469 46.734375 C 33.90625 46.734375 33.710938 46.738281 33.507812 46.738281 C 32.855469 46.738281 32.203125 46.738281 31.546875 46.738281 C 31.09375 46.738281 30.640625 46.738281 30.1875 46.738281 C 29.238281 46.738281 28.289062 46.738281 27.339844 46.734375 C 26.121094 46.734375 24.902344 46.734375 23.679688 46.738281 C 22.746094 46.738281 21.8125 46.738281 20.878906 46.738281 C 20.429688 46.738281 19.976562 46.738281 19.527344 46.738281 C 18.898438 46.738281 18.273438 46.738281 17.644531 46.734375 C 17.363281 46.734375 17.363281 46.734375 17.078125 46.738281 C 16.90625 46.738281 16.734375 46.734375 16.5625 46.734375 C 16.414062 46.734375 16.265625 46.734375 16.113281 46.734375 C 15.75 46.6875 15.75 46.6875 15.375 46.3125 C 15.328125 45.828125 15.328125 45.828125 15.328125 45.207031 C 15.324219 44.976562 15.324219 44.746094 15.324219 44.507812 C 15.324219 44.253906 15.324219 44 15.324219 43.746094 C 15.324219 43.488281 15.324219 43.226562 15.324219 42.96875 C 15.324219 42.425781 15.324219 41.882812 15.328125 41.339844 C 15.328125 40.640625 15.328125 39.941406 15.324219 39.246094 C 15.324219 38.710938 15.324219 38.175781 15.324219 37.640625 C 15.324219 37.382812 15.324219 37.125 15.324219 36.867188 C 15.324219 36.511719 15.324219 36.148438 15.328125 35.792969 C 15.328125 35.585938 15.328125 35.382812 15.328125 35.171875 C 15.375 34.6875 15.375 34.6875 15.75 34.3125 C 16.144531 34.261719 16.144531 34.261719 16.636719 34.253906 C 16.914062 34.246094 16.914062 34.246094 17.195312 34.242188 C 17.492188 34.238281 17.492188 34.238281 17.796875 34.234375 C 18.101562 34.230469 18.101562 34.230469 18.414062 34.222656 C 19.066406 34.214844 19.714844 34.203125 20.367188 34.195312 C 20.808594 34.1875 21.25 34.179688 21.691406 34.171875 C 22.773438 34.15625 23.855469 34.140625 24.9375 34.125 C 25 33.9375 25.0625 33.753906 25.125 33.5625 Z M 25.125 33.5625 "/>
<path style=" stroke:none;fill-rule:nonzero;fill:rgb(98.823529%,83.529413%,43.921569%);fill-opacity:1;" d="M 21.5625 8.4375 C 22.121094 8.4375 22.675781 8.4375 23.25 8.4375 C 23.277344 9.277344 23.296875 10.121094 23.3125 10.960938 C 23.316406 11.246094 23.324219 11.53125 23.335938 11.816406 C 23.347656 12.230469 23.355469 12.640625 23.359375 13.050781 C 23.367188 13.179688 23.371094 13.308594 23.378906 13.4375 C 23.378906 13.800781 23.378906 13.800781 23.25 14.4375 C 22.703125 14.863281 22.703125 14.863281 22.125 15.1875 C 21.566406 16.023438 21.632812 16.832031 21.75 17.8125 C 22.128906 18.476562 22.515625 18.894531 23.25 19.125 C 24.226562 19.214844 24.871094 19.117188 25.6875 18.5625 C 26.195312 17.835938 26.359375 17.175781 26.332031 16.304688 C 26.140625 15.429688 25.46875 14.917969 24.75 14.4375 C 24.699219 13.972656 24.683594 13.554688 24.695312 13.085938 C 24.695312 12.957031 24.699219 12.824219 24.699219 12.6875 C 24.703125 12.261719 24.707031 11.839844 24.714844 11.414062 C 24.71875 11.125 24.71875 10.839844 24.722656 10.550781 C 24.730469 9.847656 24.738281 9.140625 24.75 8.4375 C 25.246094 8.4375 25.738281 8.4375 26.25 8.4375 C 26.308594 8.554688 26.363281 8.671875 26.425781 8.796875 C 26.992188 9.910156 27.644531 10.871094 28.429688 11.835938 C 29.953125 13.734375 30.441406 15.121094 30.1875 17.625 C 29.847656 19.246094 29.070312 20.484375 27.742188 21.472656 C 27.375 21.710938 27.011719 21.929688 26.625 22.125 C 26.488281 22.191406 26.355469 22.261719 26.214844 22.332031 C 24.761719 22.792969 22.855469 22.765625 21.429688 22.25 C 20.847656 21.9375 20.847656 21.9375 20.351562 21.621094 C 19.78125 21.328125 19.382812 21.367188 18.75 21.375 C 18.046875 20.792969 18.046875 20.792969 17.8125 20.25 C 17.804688 19.789062 17.855469 19.382812 17.945312 18.929688 C 18.039062 18.550781 18.039062 18.550781 17.8125 18.1875 C 17.507812 15.335938 18.027344 13.636719 19.792969 11.425781 C 19.929688 11.257812 19.929688 11.257812 20.070312 11.085938 C 20.742188 10.25 21.195312 9.453125 21.5625 8.4375 Z M 21.5625 8.4375 "/>
<path style=" stroke:none;fill-rule:nonzero;fill:rgb(93.725491%,47.450981%,47.843137%);fill-opacity:1;" d="M 44.664062 23 C 45.460938 23.59375 46.136719 24.378906 46.5 25.3125 C 46.65625 26.609375 46.742188 27.941406 46.03125 29.085938 C 45.339844 29.957031 44.480469 30.449219 43.5 30.9375 C 42.109375 31.070312 40.890625 31.054688 39.75 30.1875 C 38.6875 29.207031 38.050781 28.101562 37.980469 26.636719 C 38.035156 25.261719 38.542969 24.386719 39.539062 23.460938 C 41 22.28125 43.003906 22.039062 44.664062 23 Z M 44.664062 23 "/>
<path style=" stroke:none;fill-rule:nonzero;fill:rgb(15.686275%,28.235295%,37.254903%);fill-opacity:1;" d="M 27.5625 34.3125 C 28.757812 34.304688 29.953125 34.296875 31.148438 34.292969 C 31.554688 34.289062 31.960938 34.289062 32.367188 34.285156 C 32.953125 34.277344 33.535156 34.277344 34.117188 34.273438 C 34.300781 34.273438 34.484375 34.269531 34.671875 34.269531 C 34.839844 34.269531 35.007812 34.269531 35.183594 34.269531 C 35.332031 34.269531 35.480469 34.265625 35.632812 34.265625 C 36 34.3125 36 34.3125 36.375 34.6875 C 36.421875 35.171875 36.421875 35.171875 36.421875 35.792969 C 36.425781 36.023438 36.425781 36.253906 36.425781 36.492188 C 36.425781 36.746094 36.425781 37 36.425781 37.253906 C 36.425781 37.511719 36.425781 37.773438 36.425781 38.03125 C 36.425781 38.574219 36.425781 39.117188 36.421875 39.660156 C 36.421875 40.359375 36.421875 41.058594 36.425781 41.753906 C 36.425781 42.289062 36.425781 42.824219 36.425781 43.359375 C 36.425781 43.617188 36.425781 43.875 36.425781 44.132812 C 36.425781 44.488281 36.425781 44.851562 36.421875 45.207031 C 36.421875 45.414062 36.421875 45.617188 36.421875 45.828125 C 36.375 46.3125 36.375 46.3125 36 46.6875 C 35.636719 46.734375 35.636719 46.734375 35.1875 46.734375 C 34.933594 46.734375 34.933594 46.734375 34.671875 46.738281 C 34.484375 46.738281 34.296875 46.734375 34.105469 46.734375 C 33.90625 46.734375 33.710938 46.738281 33.507812 46.738281 C 32.855469 46.738281 32.203125 46.738281 31.546875 46.738281 C 31.09375 46.738281 30.640625 46.738281 30.1875 46.738281 C 29.238281 46.738281 28.289062 46.738281 27.339844 46.734375 C 26.121094 46.734375 24.902344 46.734375 23.679688 46.738281 C 22.746094 46.738281 21.8125 46.738281 20.878906 46.738281 C 20.429688 46.738281 19.976562 46.738281 19.527344 46.738281 C 18.898438 46.738281 18.273438 46.738281 17.644531 46.734375 C 17.363281 46.734375 17.363281 46.734375 17.078125 46.738281 C 16.90625 46.738281 16.734375 46.734375 16.5625 46.734375 C 16.414062 46.734375 16.265625 46.734375 16.113281 46.734375 C 15.75 46.6875 15.75 46.6875 15.375 46.3125 C 15.328125 45.828125 15.328125 45.828125 15.332031 45.203125 C 15.332031 44.96875 15.332031 44.738281 15.332031 44.496094 C 15.332031 44.242188 15.335938 43.988281 15.335938 43.734375 C 15.339844 43.472656 15.339844 43.214844 15.339844 42.953125 C 15.339844 42.269531 15.34375 41.582031 15.347656 40.898438 C 15.351562 40.199219 15.355469 39.5 15.355469 38.800781 C 15.359375 37.429688 15.367188 36.058594 15.375 34.6875 C 15.4375 34.6875 15.5 34.6875 15.5625 34.6875 C 15.5625 38.089844 15.5625 41.492188 15.5625 45 C 21.9375 45 28.308594 45 34.875 45 C 34.875 41.535156 34.875 38.070312 34.875 34.5 C 32.460938 34.5 30.046875 34.5 27.5625 34.5 C 27.5625 34.4375 27.5625 34.375 27.5625 34.3125 Z M 27.5625 34.3125 "/>
<path style=" stroke:none;fill-rule:nonzero;fill:rgb(29.803923%,76.862746%,66.666669%);fill-opacity:1;" d="M 5.8125 22.5 C 6.683594 23.117188 7.316406 23.933594 7.6875 24.9375 C 7.722656 25.476562 7.722656 25.476562 7.6875 25.875 C 7.253906 25.875 6.820312 25.875 6.375 25.875 C 6.3125 25.441406 6.25 25.007812 6.1875 24.5625 C 5.796875 24.460938 5.46875 24.375 5.0625 24.375 C 5.0625 24.933594 5.0625 25.488281 5.0625 26.0625 C 4.503906 26.125 3.949219 26.1875 3.375 26.25 C 3.4375 26.558594 3.5 26.867188 3.5625 27.1875 C 3.996094 27.25 4.429688 27.3125 4.875 27.375 C 4.898438 27.582031 4.921875 27.792969 4.945312 28.007812 C 4.996094 28.691406 4.996094 28.691406 5.4375 29.0625 C 5.832031 29.003906 5.832031 29.003906 6.1875 28.875 C 6.25 28.441406 6.3125 28.007812 6.375 27.5625 C 6.808594 27.5625 7.242188 27.5625 7.6875 27.5625 C 7.570312 28.8125 7.015625 29.59375 6.140625 30.457031 C 5.59375 30.898438 5.445312 30.9375 4.699219 30.984375 C 3.519531 30.722656 2.601562 29.917969 1.875 28.980469 C 1.242188 27.855469 1.3125 26.554688 1.5 25.3125 C 1.984375 24.09375 2.835938 23.351562 3.9375 22.6875 C 4.640625 22.453125 5.074219 22.402344 5.8125 22.5 Z M 5.8125 22.5 "/>
<path style=" stroke:none;fill-rule:nonzero;fill:rgb(14.901961%,70.980394%,60.000002%);fill-opacity:1;" d="M 5.8125 22.5 C 7.25 22.597656 8.066406 22.996094 9.046875 24.082031 C 9.816406 25.039062 10.035156 25.832031 10.007812 27.058594 C 9.816406 28.425781 9.09375 29.523438 8.003906 30.351562 C 7.140625 30.925781 6.46875 30.980469 5.4375 30.9375 C 5.578125 30.800781 5.714844 30.667969 5.859375 30.527344 C 6.789062 29.578125 7.265625 28.8125 7.6875 27.5625 C 7.253906 27.5625 6.820312 27.5625 6.375 27.5625 C 6.382812 27.769531 6.390625 27.980469 6.398438 28.195312 C 6.375 28.875 6.375 28.875 6 29.25 C 5.449219 29.179688 5.277344 29.089844 4.875 28.6875 C 4.851562 28.007812 4.851562 28.007812 4.875 27.375 C 4.5625 27.386719 4.5625 27.386719 4.242188 27.398438 C 3.5625 27.375 3.5625 27.375 3.1875 27 C 3.257812 26.507812 3.257812 26.507812 3.375 26.0625 C 3.933594 26.0625 4.488281 26.0625 5.0625 26.0625 C 5.0625 25.503906 5.0625 24.949219 5.0625 24.375 C 5.507812 24.257812 5.507812 24.257812 6 24.1875 C 6.375 24.5625 6.375 24.5625 6.398438 25.242188 C 6.390625 25.453125 6.382812 25.660156 6.375 25.875 C 6.808594 25.875 7.242188 25.875 7.6875 25.875 C 7.394531 24.660156 6.945312 23.875 6.082031 22.972656 C 5.8125 22.6875 5.8125 22.6875 5.8125 22.5 Z M 5.8125 22.5 "/>
<path style=" stroke:none;fill-rule:nonzero;fill:rgb(86.666667%,37.64706%,41.568628%);fill-opacity:1;" d="M 42.5625 22.5 C 43.753906 22.597656 44.703125 22.890625 45.515625 23.808594 C 46.582031 25.210938 46.683594 26.386719 46.5 28.125 C 45.953125 29.582031 44.832031 30.269531 43.5 30.9375 C 43.0625 30.945312 42.625 30.945312 42.1875 30.9375 C 42.324219 30.8125 42.457031 30.691406 42.597656 30.5625 C 43.515625 29.644531 44.054688 28.605469 44.4375 27.375 C 44.308594 27.375 44.179688 27.375 44.042969 27.378906 C 43.460938 27.382812 42.878906 27.382812 42.292969 27.386719 C 42.089844 27.386719 41.886719 27.390625 41.671875 27.390625 C 41.480469 27.390625 41.285156 27.390625 41.085938 27.394531 C 40.90625 27.394531 40.726562 27.394531 40.542969 27.394531 C 40.125 27.375 40.125 27.375 39.9375 27.1875 C 39.902344 26.730469 39.902344 26.730469 39.9375 26.25 C 40.3125 25.875 40.3125 25.875 40.734375 25.832031 C 40.90625 25.832031 41.074219 25.835938 41.25 25.835938 C 41.4375 25.839844 41.621094 25.839844 41.8125 25.839844 C 42.101562 25.847656 42.101562 25.847656 42.398438 25.851562 C 42.59375 25.851562 42.789062 25.855469 42.988281 25.855469 C 43.472656 25.863281 43.957031 25.867188 44.4375 25.875 C 44.351562 25.636719 44.265625 25.402344 44.179688 25.164062 C 44.132812 25.03125 44.082031 24.898438 44.035156 24.761719 C 43.6875 23.921875 43.113281 23.214844 42.5625 22.5 Z M 42.5625 22.5 "/>
<path style=" stroke:none;fill-rule:nonzero;fill:rgb(97.254902%,96.470588%,96.862745%);fill-opacity:1;" d="M 11.625 36.9375 C 12.429688 36.9375 13.234375 36.9375 14.0625 36.9375 C 14.0625 39.226562 14.0625 41.515625 14.0625 43.875 C 13.257812 43.875 12.453125 43.875 11.625 43.875 C 11.625 41.585938 11.625 39.296875 11.625 36.9375 Z M 11.625 36.9375 "/>
<path style=" stroke:none;fill-rule:nonzero;fill:rgb(0.392157%,0.784314%,1.176471%);fill-opacity:1;" d="M 26.4375 35.8125 C 27.128906 35.941406 27.128906 35.941406 27.375 36.1875 C 27.46875 36.835938 27.390625 37.097656 27.046875 37.667969 C 26.90625 37.847656 26.765625 38.027344 26.625 38.214844 C 26.484375 38.398438 26.34375 38.578125 26.203125 38.769531 C 26.09375 38.90625 25.984375 39.046875 25.875 39.1875 C 26.082031 39.210938 26.292969 39.234375 26.507812 39.257812 C 27.1875 39.375 27.1875 39.375 27.5625 39.75 C 27.535156 40.894531 27.128906 41.546875 26.460938 42.421875 C 26.378906 42.535156 26.292969 42.652344 26.207031 42.769531 C 25.363281 43.90625 25.363281 43.90625 24.9375 44.25 C 24.527344 44.191406 24.527344 44.191406 24.1875 44.0625 C 24.042969 43.675781 24.042969 43.675781 24 43.125 C 24.261719 42.660156 24.515625 42.269531 24.832031 41.847656 C 24.914062 41.734375 24.996094 41.625 25.078125 41.507812 C 25.277344 41.234375 25.484375 40.960938 25.6875 40.6875 C 25.328125 40.699219 25.328125 40.699219 24.960938 40.710938 C 24.554688 40.726562 24.554688 40.726562 24.1875 40.6875 C 24.0625 40.5625 23.941406 40.441406 23.8125 40.3125 C 23.8125 39.171875 24.476562 38.410156 25.125 37.535156 C 25.230469 37.390625 25.335938 37.246094 25.445312 37.09375 C 26.199219 36.050781 26.199219 36.050781 26.4375 35.8125 Z M 26.4375 35.8125 "/>
<path style=" stroke:none;fill-rule:nonzero;fill:rgb(96.078432%,71.372551%,33.725491%);fill-opacity:1;" d="M 25.125 8.4375 C 25.496094 8.4375 25.867188 8.4375 26.25 8.4375 C 26.308594 8.554688 26.363281 8.671875 26.425781 8.796875 C 26.992188 9.910156 27.644531 10.871094 28.429688 11.835938 C 29.953125 13.734375 30.441406 15.121094 30.1875 17.625 C 29.84375 19.253906 29.0625 20.515625 27.707031 21.488281 C 27.351562 21.710938 26.996094 21.925781 26.625 22.125 C 26.625 21.9375 26.625 21.753906 26.625 21.5625 C 26.757812 21.441406 26.886719 21.324219 27.023438 21.199219 C 28.171875 20.128906 28.785156 18.457031 28.921875 16.925781 C 28.980469 14.492188 28.105469 12.9375 26.625 11.0625 C 25.390625 9.496094 25.390625 9.496094 25.125 8.4375 Z M 25.125 8.4375 "/>
<path style=" stroke:none;fill-rule:nonzero;fill:rgb(97.254902%,96.470588%,96.862745%);fill-opacity:1;" d="M 21.785156 5.011719 C 21.914062 5.011719 22.046875 5.011719 22.183594 5.011719 C 22.386719 5.011719 22.386719 5.011719 22.59375 5.011719 C 22.878906 5.011719 23.167969 5.011719 23.453125 5.015625 C 23.890625 5.015625 24.332031 5.015625 24.769531 5.011719 C 25.046875 5.011719 25.324219 5.011719 25.605469 5.011719 C 25.738281 5.011719 25.867188 5.011719 26.003906 5.011719 C 26.6875 5.019531 26.972656 5.046875 27.5625 5.4375 C 27.632812 6 27.632812 6 27.5625 6.5625 C 26.886719 7.011719 26.390625 6.996094 25.609375 6.996094 C 25.410156 6.996094 25.410156 6.996094 25.203125 6.996094 C 24.914062 6.996094 24.628906 6.996094 24.34375 6.996094 C 23.910156 6.996094 23.472656 7 23.035156 7.003906 C 22.757812 7.003906 22.480469 7.003906 22.203125 7.003906 C 22.003906 7.007812 22.003906 7.007812 21.804688 7.011719 C 21.261719 7.003906 20.898438 6.996094 20.441406 6.683594 C 20.25 6.375 20.25 6.375 20.285156 5.894531 C 20.570312 5.039062 20.941406 5.019531 21.785156 5.011719 Z M 21.785156 5.011719 "/>
<path style=" stroke:none;fill-rule:nonzero;fill:rgb(0.784314%,2.352941%,1.960784%);fill-opacity:1;" d="M 6.1875 24.375 C 6.375 24.5625 6.375 24.5625 6.394531 24.910156 C 6.386719 25.292969 6.378906 25.679688 6.375 26.0625 C 6.617188 26.058594 6.863281 26.054688 7.113281 26.050781 C 7.367188 26.046875 7.621094 26.050781 7.875 26.0625 C 8.0625 26.25 8.0625 26.25 8.085938 26.71875 C 8.0625 27.1875 8.0625 27.1875 7.875 27.375 C 7.375 27.402344 6.878906 27.382812 6.375 27.375 C 6.382812 27.613281 6.390625 27.855469 6.398438 28.101562 C 6.414062 28.507812 6.414062 28.507812 6.375 28.875 C 6.25 29 6.128906 29.121094 6 29.25 C 5.449219 29.179688 5.277344 29.089844 4.875 28.6875 C 4.851562 28.007812 4.851562 28.007812 4.875 27.375 C 4.5625 27.386719 4.5625 27.386719 4.242188 27.398438 C 3.5625 27.375 3.5625 27.375 3.1875 27 C 3.257812 26.507812 3.257812 26.507812 3.375 26.0625 C 3.933594 26.0625 4.488281 26.0625 5.0625 26.0625 C 5.0625 25.503906 5.0625 24.949219 5.0625 24.375 C 5.53125 24.140625 5.699219 24.21875 6.1875 24.375 Z M 6.1875 24.375 "/>
<path style=" stroke:none;fill-rule:nonzero;fill:rgb(21.176471%,36.470589%,48.627451%);fill-opacity:1;" d="M 25.125 1.3125 C 25.722656 1.6875 25.722656 1.6875 26.0625 2.25 C 26.0625 2.746094 26.0625 3.238281 26.0625 3.75 C 24.824219 3.75 23.585938 3.75 22.3125 3.75 C 22.3125 2.0625 22.3125 2.0625 22.558594 1.582031 C 23.390625 1.136719 24.207031 1.160156 25.125 1.3125 Z M 25.125 1.3125 "/>
<path style=" stroke:none;fill-rule:nonzero;fill:rgb(0.392157%,0%,0%);fill-opacity:1;" d="M 42.269531 26.027344 C 42.570312 26.023438 42.570312 26.023438 42.878906 26.019531 C 43.074219 26.019531 43.265625 26.019531 43.464844 26.019531 C 43.730469 26.019531 43.730469 26.019531 44.003906 26.015625 C 44.4375 26.0625 44.4375 26.0625 44.8125 26.4375 C 44.710938 27.101562 44.710938 27.101562 44.4375 27.375 C 44.121094 27.394531 43.800781 27.398438 43.484375 27.398438 C 43.289062 27.398438 43.097656 27.398438 42.898438 27.398438 C 42.59375 27.398438 42.59375 27.398438 42.28125 27.398438 C 42.078125 27.398438 41.875 27.398438 41.664062 27.398438 C 41.472656 27.398438 41.28125 27.398438 41.082031 27.398438 C 40.902344 27.398438 40.722656 27.398438 40.539062 27.398438 C 40.125 27.375 40.125 27.375 39.9375 27.1875 C 39.914062 26.71875 39.914062 26.71875 39.9375 26.25 C 40.402344 25.785156 41.644531 26.027344 42.269531 26.027344 Z M 42.269531 26.027344 "/>
<path style=" stroke:none;fill-rule:nonzero;fill:rgb(83.92157%,83.137256%,85.490197%);fill-opacity:1;" d="M 11.625 36.9375 C 12.429688 36.9375 13.234375 36.9375 14.0625 36.9375 C 14.0625 39.226562 14.0625 41.515625 14.0625 43.875 C 13.257812 43.875 12.453125 43.875 11.625 43.875 C 11.625 43.378906 11.625 42.886719 11.625 42.375 C 12.367188 42.375 13.109375 42.375 13.875 42.375 C 13.875 40.640625 13.875 38.910156 13.875 37.125 C 13.132812 37.125 12.390625 37.125 11.625 37.125 C 11.625 37.0625 11.625 37 11.625 36.9375 Z M 11.625 36.9375 "/>
<path style=" stroke:none;fill-rule:nonzero;fill:rgb(94.901961%,94.117647%,94.509804%);fill-opacity:1;" d="M 24.75 15.9375 C 24.9375 16.125 24.9375 16.125 24.972656 16.769531 C 24.9375 17.4375 24.9375 17.4375 24.5625 17.8125 C 23.972656 17.875 23.59375 17.910156 23.085938 17.589844 C 22.796875 17.125 22.792969 16.847656 22.875 16.3125 C 23.328125 15.515625 23.953125 15.761719 24.75 15.9375 Z M 24.75 15.9375 "/>
<path style=" stroke:none;fill-rule:nonzero;fill:rgb(14.117648%,25.490198%,33.725491%);fill-opacity:1;" d="M 23.0625 1.3125 C 24.894531 1.167969 24.894531 1.167969 25.722656 1.6875 C 26.0625 2.25 26.0625 2.25 26.0625 3.75 C 24.824219 3.75 23.585938 3.75 22.3125 3.75 C 22.3125 3.6875 22.3125 3.625 22.3125 3.5625 C 23.117188 3.5625 23.921875 3.5625 24.75 3.5625 C 24.6875 2.882812 24.625 2.203125 24.5625 1.5 C 24.066406 1.5 23.574219 1.5 23.0625 1.5 C 23.0625 1.4375 23.0625 1.375 23.0625 1.3125 Z M 23.0625 1.3125 "/>
<path style=" stroke:none;fill-rule:nonzero;fill:rgb(84.313726%,83.92157%,85.882354%);fill-opacity:1;" d="M 21.785156 5.011719 C 21.914062 5.011719 22.046875 5.011719 22.183594 5.011719 C 22.386719 5.011719 22.386719 5.011719 22.59375 5.011719 C 22.878906 5.011719 23.167969 5.011719 23.453125 5.015625 C 23.890625 5.015625 24.332031 5.015625 24.769531 5.011719 C 25.046875 5.011719 25.324219 5.011719 25.605469 5.011719 C 25.738281 5.011719 25.867188 5.011719 26.003906 5.011719 C 26.6875 5.019531 26.972656 5.046875 27.5625 5.4375 C 27.632812 6 27.632812 6 27.5625 6.5625 C 27 6.9375 27 6.9375 26.25 6.9375 C 26.25 6.382812 26.25 5.824219 26.25 5.25 C 25.390625 5.253906 24.53125 5.269531 23.671875 5.285156 C 23.429688 5.285156 23.183594 5.289062 22.929688 5.289062 C 22.695312 5.292969 22.460938 5.300781 22.222656 5.304688 C 22.003906 5.308594 21.789062 5.308594 21.566406 5.3125 C 20.839844 5.472656 20.644531 5.765625 20.25 6.375 C 20.421875 5.277344 20.652344 5.023438 21.785156 5.011719 Z M 21.785156 5.011719 "/>
</g>
</svg>
