<?xml version="1.0" encoding="UTF-8"?>
<svg xmlns="http://www.w3.org/2000/svg" xmlns:xlink="http://www.w3.org/1999/xlink" width="48" height="48" viewBox="0 0 48 48" version="1.1">
<g id="surface1">
<path style=" stroke:none;fill-rule:nonzero;fill:rgb(84.313726%,34.901962%,29.019609%);fill-opacity:1;" d="M 3.199219 26.03125 C 3.371094 26.027344 3.546875 26.027344 3.726562 26.027344 C 4.300781 26.023438 4.875 26.019531 5.453125 26.019531 C 5.648438 26.015625 5.847656 26.015625 6.046875 26.015625 C 7.089844 26.011719 8.128906 26.007812 9.171875 26.007812 C 10.246094 26.003906 11.320312 26 12.394531 25.992188 C 13.222656 25.984375 14.050781 25.984375 14.875 25.984375 C 15.269531 25.984375 15.667969 25.980469 16.066406 25.976562 C 16.621094 25.972656 17.175781 25.972656 17.730469 25.976562 C 17.972656 25.972656 17.972656 25.972656 18.222656 25.96875 C 19.238281 25.976562 19.824219 26.128906 20.625 26.8125 C 21.007812 27.386719 21.046875 27.496094 21.050781 28.140625 C 21.050781 28.296875 21.054688 28.453125 21.054688 28.613281 C 21.054688 28.78125 21.054688 28.953125 21.054688 29.128906 C 21.054688 29.308594 21.058594 29.488281 21.058594 29.671875 C 21.0625 30.265625 21.0625 30.863281 21.0625 31.457031 C 21.0625 31.871094 21.066406 32.285156 21.066406 32.695312 C 21.070312 33.5625 21.070312 34.429688 21.070312 35.296875 C 21.070312 36.40625 21.074219 37.515625 21.082031 38.628906 C 21.085938 39.484375 21.085938 40.335938 21.085938 41.1875 C 21.085938 41.597656 21.085938 42.007812 21.089844 42.417969 C 21.09375 42.992188 21.09375 43.5625 21.089844 44.136719 C 21.09375 44.304688 21.09375 44.476562 21.097656 44.648438 C 21.089844 45.410156 21.0625 45.832031 20.664062 46.496094 C 20.050781 47.054688 19.5625 47.296875 18.734375 47.300781 C 18.503906 47.300781 18.503906 47.300781 18.273438 47.304688 C 18.027344 47.304688 18.027344 47.304688 17.777344 47.300781 C 17.605469 47.304688 17.429688 47.304688 17.25 47.304688 C 16.675781 47.308594 16.097656 47.308594 15.523438 47.308594 C 15.121094 47.308594 14.722656 47.308594 14.320312 47.308594 C 13.484375 47.3125 12.644531 47.3125 11.804688 47.308594 C 10.726562 47.308594 9.652344 47.3125 8.578125 47.316406 C 7.753906 47.316406 6.925781 47.316406 6.097656 47.316406 C 5.703125 47.316406 5.304688 47.320312 4.910156 47.320312 C 4.355469 47.324219 3.800781 47.320312 3.246094 47.320312 C 3 47.320312 3 47.320312 2.75 47.324219 C 1.65625 47.3125 1.058594 47.128906 0.226562 46.386719 C -0.136719 45.671875 -0.0820312 44.960938 -0.078125 44.167969 C -0.0820312 43.984375 -0.0820312 43.808594 -0.0820312 43.621094 C -0.0898438 43.03125 -0.0898438 42.4375 -0.0898438 41.84375 C -0.0898438 41.429688 -0.0898438 41.019531 -0.09375 40.605469 C -0.09375 39.742188 -0.09375 38.875 -0.09375 38.011719 C -0.09375 36.90625 -0.0976562 35.796875 -0.105469 34.691406 C -0.109375 33.835938 -0.109375 32.984375 -0.109375 32.132812 C -0.109375 31.726562 -0.113281 31.316406 -0.117188 30.90625 C -0.121094 30.339844 -0.117188 29.765625 -0.113281 29.195312 C -0.117188 29.027344 -0.121094 28.859375 -0.121094 28.683594 C -0.113281 27.886719 -0.0625 27.347656 0.441406 26.710938 C 1.28125 25.929688 2.109375 26.03125 3.199219 26.03125 Z M 3.199219 26.03125 "/>
<path style=" stroke:none;fill-rule:nonzero;fill:rgb(49.411765%,66.666669%,85.490197%);fill-opacity:1;" d="M 29.144531 -0.078125 C 29.414062 -0.0820312 29.414062 -0.0820312 29.691406 -0.0859375 C 30.28125 -0.0898438 30.875 -0.0898438 31.46875 -0.0898438 C 31.882812 -0.0898438 32.292969 -0.0898438 32.707031 -0.09375 C 33.570312 -0.09375 34.4375 -0.09375 35.300781 -0.09375 C 36.40625 -0.09375 37.515625 -0.0976562 38.621094 -0.105469 C 39.476562 -0.109375 40.328125 -0.109375 41.179688 -0.109375 C 41.585938 -0.109375 41.996094 -0.113281 42.40625 -0.117188 C 42.972656 -0.121094 43.546875 -0.117188 44.117188 -0.117188 C 44.285156 -0.117188 44.453125 -0.121094 44.628906 -0.125 C 45.425781 -0.113281 45.964844 -0.0625 46.601562 0.441406 C 47.382812 1.28125 47.28125 2.109375 47.28125 3.199219 C 47.285156 3.371094 47.285156 3.546875 47.285156 3.726562 C 47.289062 4.300781 47.292969 4.875 47.292969 5.453125 C 47.296875 5.648438 47.296875 5.847656 47.296875 6.046875 C 47.300781 7.089844 47.304688 8.128906 47.304688 9.171875 C 47.308594 10.246094 47.3125 11.320312 47.320312 12.394531 C 47.328125 13.222656 47.328125 14.050781 47.328125 14.875 C 47.328125 15.273438 47.332031 15.667969 47.335938 16.066406 C 47.339844 16.621094 47.339844 17.175781 47.335938 17.726562 C 47.339844 17.894531 47.34375 18.054688 47.34375 18.222656 C 47.335938 19.238281 47.183594 19.824219 46.5 20.625 C 45.925781 21.003906 45.816406 21.046875 45.171875 21.050781 C 44.9375 21.050781 44.9375 21.050781 44.699219 21.054688 C 44.445312 21.054688 44.445312 21.054688 44.183594 21.054688 C 44.003906 21.054688 43.824219 21.054688 43.640625 21.058594 C 43.046875 21.0625 42.449219 21.0625 41.855469 21.0625 C 41.441406 21.0625 41.027344 21.066406 40.617188 21.066406 C 39.75 21.070312 38.882812 21.070312 38.015625 21.070312 C 36.90625 21.070312 35.796875 21.074219 34.683594 21.082031 C 33.828125 21.085938 32.976562 21.085938 32.125 21.085938 C 31.714844 21.085938 31.304688 21.089844 30.894531 21.089844 C 30.320312 21.09375 29.75 21.09375 29.175781 21.09375 C 29.007812 21.09375 28.839844 21.09375 28.664062 21.097656 C 27.902344 21.089844 27.480469 21.0625 26.816406 20.667969 C 26.257812 20.054688 26.015625 19.5625 26.011719 18.734375 C 26.011719 18.582031 26.011719 18.429688 26.007812 18.277344 C 26.007812 18.109375 26.011719 17.945312 26.011719 17.777344 C 26.007812 17.601562 26.007812 17.429688 26.007812 17.25 C 26.003906 16.675781 26.003906 16.097656 26.003906 15.523438 C 26.003906 15.121094 26.003906 14.722656 26.003906 14.320312 C 26 13.484375 26 12.644531 26.003906 11.804688 C 26.003906 10.730469 26 9.65625 25.996094 8.578125 C 25.996094 7.753906 25.996094 6.925781 25.996094 6.097656 C 25.996094 5.703125 25.992188 5.304688 25.992188 4.910156 C 25.988281 4.355469 25.992188 3.800781 25.992188 3.246094 C 25.992188 3.082031 25.992188 2.917969 25.988281 2.75 C 26 1.65625 26.183594 1.058594 26.925781 0.226562 C 27.640625 -0.136719 28.351562 -0.0820312 29.144531 -0.078125 Z M 29.144531 -0.078125 "/>
<path style=" stroke:none;fill-rule:nonzero;fill:rgb(93.725491%,80.784315%,28.627452%);fill-opacity:1;" d="M 1.875 -0.0273438 C 2.03125 -0.03125 2.1875 -0.03125 2.351562 -0.0351562 C 2.523438 -0.0351562 2.695312 -0.0351562 2.875 -0.0351562 C 3.054688 -0.0390625 3.238281 -0.0390625 3.425781 -0.0390625 C 4.027344 -0.046875 4.628906 -0.0507812 5.230469 -0.0507812 C 5.539062 -0.0546875 5.539062 -0.0546875 5.851562 -0.0546875 C 6.941406 -0.0585938 8.027344 -0.0625 9.113281 -0.0664062 C 10.234375 -0.0664062 11.359375 -0.078125 12.484375 -0.0859375 C 13.347656 -0.09375 14.210938 -0.09375 15.070312 -0.0976562 C 15.484375 -0.0976562 15.902344 -0.101562 16.316406 -0.105469 C 16.894531 -0.113281 17.472656 -0.113281 18.054688 -0.109375 C 18.308594 -0.113281 18.308594 -0.113281 18.574219 -0.117188 C 19.417969 -0.109375 19.761719 -0.0898438 20.445312 0.453125 C 21.085938 1.300781 21.03125 1.992188 21.035156 3.023438 C 21.039062 3.289062 21.039062 3.289062 21.039062 3.5625 C 21.046875 4.152344 21.050781 4.738281 21.050781 5.328125 C 21.054688 5.53125 21.054688 5.730469 21.054688 5.9375 C 21.058594 7.003906 21.0625 8.066406 21.066406 9.128906 C 21.066406 10.230469 21.078125 11.328125 21.085938 12.425781 C 21.09375 13.273438 21.09375 14.117188 21.097656 14.960938 C 21.097656 15.367188 21.101562 15.773438 21.105469 16.175781 C 21.109375 16.746094 21.109375 17.3125 21.109375 17.878906 C 21.113281 18.046875 21.113281 18.214844 21.117188 18.386719 C 21.109375 19.191406 21.0625 19.714844 20.546875 20.351562 C 19.734375 21.125 19.050781 21.027344 17.976562 21.03125 C 17.796875 21.035156 17.621094 21.035156 17.4375 21.035156 C 16.847656 21.039062 16.261719 21.042969 15.671875 21.042969 C 15.371094 21.046875 15.371094 21.046875 15.0625 21.046875 C 13.996094 21.050781 12.933594 21.054688 11.871094 21.054688 C 10.769531 21.058594 9.671875 21.0625 8.574219 21.070312 C 7.726562 21.074219 6.882812 21.078125 6.039062 21.078125 C 5.632812 21.078125 5.226562 21.082031 4.824219 21.085938 C 4.253906 21.089844 3.6875 21.089844 3.121094 21.085938 C 2.953125 21.089844 2.785156 21.09375 2.613281 21.09375 C 1.5625 21.085938 0.992188 20.9375 0.1875 20.25 C -0.0234375 19.824219 -0.0273438 19.59375 -0.0273438 19.125 C -0.03125 18.964844 -0.03125 18.8125 -0.03125 18.648438 C -0.03125 18.476562 -0.03125 18.304688 -0.03125 18.125 C -0.0351562 17.945312 -0.0351562 17.761719 -0.0351562 17.574219 C -0.0390625 16.972656 -0.0429688 16.371094 -0.0429688 15.769531 C -0.046875 15.5625 -0.046875 15.359375 -0.046875 15.148438 C -0.0507812 14.058594 -0.0546875 12.972656 -0.0546875 11.886719 C -0.0585938 10.761719 -0.0625 9.640625 -0.0703125 8.515625 C -0.078125 7.652344 -0.078125 6.789062 -0.078125 5.929688 C -0.078125 5.511719 -0.0820312 5.097656 -0.0859375 4.683594 C -0.0898438 4.105469 -0.0898438 3.527344 -0.0859375 2.945312 C -0.0898438 2.777344 -0.09375 2.605469 -0.09375 2.425781 C -0.0898438 1.644531 -0.0664062 1.234375 0.355469 0.554688 C 0.890625 0.0585938 1.167969 -0.0234375 1.875 -0.0273438 Z M 1.875 -0.0273438 "/>
<path style=" stroke:none;fill-rule:nonzero;fill:rgb(13.725491%,63.529414%,29.803923%);fill-opacity:1;" d="M 36 25.3125 C 36.65625 25.242188 36.65625 25.242188 37.3125 25.3125 C 37.726562 25.933594 37.734375 26.113281 37.730469 26.832031 C 37.730469 27.027344 37.730469 27.226562 37.730469 27.425781 C 37.730469 27.636719 37.726562 27.84375 37.726562 28.0625 C 37.722656 28.277344 37.722656 28.496094 37.722656 28.714844 C 37.722656 29.40625 37.714844 30.09375 37.710938 30.785156 C 37.707031 31.253906 37.707031 31.71875 37.707031 32.1875 C 37.703125 33.332031 37.695312 34.480469 37.6875 35.625 C 37.871094 35.625 37.871094 35.625 38.054688 35.625 C 39.308594 35.613281 40.566406 35.609375 41.820312 35.605469 C 42.289062 35.601562 42.761719 35.601562 43.230469 35.597656 C 43.902344 35.589844 44.578125 35.589844 45.25 35.585938 C 45.5625 35.585938 45.5625 35.585938 45.886719 35.582031 C 46.082031 35.582031 46.277344 35.582031 46.480469 35.582031 C 46.734375 35.582031 46.734375 35.582031 47 35.578125 C 47.4375 35.625 47.4375 35.625 48 36 C 48.070312 36.65625 48.070312 36.65625 48 37.3125 C 47.378906 37.726562 47.199219 37.734375 46.480469 37.730469 C 46.285156 37.730469 46.085938 37.730469 45.886719 37.730469 C 45.675781 37.730469 45.46875 37.726562 45.25 37.726562 C 45.035156 37.722656 44.816406 37.722656 44.597656 37.722656 C 43.90625 37.722656 43.21875 37.714844 42.527344 37.710938 C 42.058594 37.707031 41.59375 37.707031 41.125 37.707031 C 39.980469 37.703125 38.832031 37.695312 37.6875 37.6875 C 37.6875 37.808594 37.6875 37.929688 37.6875 38.054688 C 37.699219 39.308594 37.703125 40.566406 37.707031 41.820312 C 37.710938 42.289062 37.710938 42.761719 37.714844 43.230469 C 37.722656 43.902344 37.722656 44.578125 37.726562 45.25 C 37.726562 45.460938 37.730469 45.671875 37.730469 45.886719 C 37.730469 46.082031 37.730469 46.277344 37.730469 46.480469 C 37.730469 46.648438 37.734375 46.824219 37.734375 47 C 37.6875 47.4375 37.6875 47.4375 37.3125 48 C 36.65625 48.070312 36.65625 48.070312 36 48 C 35.585938 47.378906 35.578125 47.199219 35.582031 46.480469 C 35.582031 46.285156 35.582031 46.085938 35.582031 45.886719 C 35.582031 45.675781 35.585938 45.46875 35.585938 45.25 C 35.589844 45.035156 35.589844 44.816406 35.589844 44.597656 C 35.589844 43.90625 35.597656 43.21875 35.601562 42.527344 C 35.605469 42.058594 35.605469 41.59375 35.605469 41.125 C 35.609375 39.980469 35.617188 38.832031 35.625 37.6875 C 35.503906 37.6875 35.382812 37.6875 35.257812 37.6875 C 34.003906 37.699219 32.746094 37.703125 31.492188 37.707031 C 31.023438 37.710938 30.550781 37.710938 30.082031 37.714844 C 29.410156 37.722656 28.734375 37.722656 28.0625 37.726562 C 27.75 37.726562 27.75 37.726562 27.425781 37.730469 C 27.230469 37.730469 27.035156 37.730469 26.832031 37.730469 C 26.664062 37.730469 26.488281 37.734375 26.3125 37.734375 C 25.875 37.6875 25.875 37.6875 25.3125 37.3125 C 25.105469 36.839844 25.097656 36.640625 25.277344 36.152344 C 25.5 35.8125 25.5 35.8125 25.875 35.625 C 26.1875 35.609375 26.5 35.601562 26.8125 35.605469 C 27.105469 35.605469 27.105469 35.605469 27.402344 35.605469 C 27.613281 35.605469 27.828125 35.605469 28.042969 35.605469 C 28.261719 35.605469 28.476562 35.609375 28.699219 35.609375 C 29.390625 35.609375 30.082031 35.609375 30.773438 35.613281 C 31.242188 35.613281 31.710938 35.617188 32.175781 35.617188 C 33.328125 35.617188 34.476562 35.621094 35.625 35.625 C 35.625 35.503906 35.625 35.382812 35.625 35.257812 C 35.613281 34.003906 35.609375 32.746094 35.605469 31.492188 C 35.601562 31.023438 35.601562 30.550781 35.597656 30.082031 C 35.589844 29.410156 35.589844 28.734375 35.585938 28.0625 C 35.585938 27.851562 35.582031 27.640625 35.582031 27.425781 C 35.582031 27.132812 35.582031 27.132812 35.582031 26.832031 C 35.582031 26.664062 35.578125 26.488281 35.578125 26.3125 C 35.625 25.875 35.625 25.875 36 25.3125 Z M 36 25.3125 "/>
</g>
</svg>
