<?xml version="1.0" encoding="UTF-8"?>
<svg xmlns="http://www.w3.org/2000/svg" xmlns:xlink="http://www.w3.org/1999/xlink" width="48" height="48" viewBox="0 0 48 48" version="1.1">
<g id="surface1">
<path style=" stroke:none;fill-rule:nonzero;fill:rgb(100%,75.294119%,5.882353%);fill-opacity:1;" d="M 29.171875 25.46875 C 29.359375 25.46875 29.359375 25.46875 29.546875 25.464844 C 29.960938 25.464844 30.371094 25.460938 30.785156 25.460938 C 31.070312 25.460938 31.355469 25.460938 31.640625 25.457031 C 32.246094 25.457031 32.84375 25.453125 33.445312 25.453125 C 34.214844 25.453125 34.980469 25.449219 35.75 25.445312 C 36.34375 25.441406 36.933594 25.441406 37.527344 25.441406 C 37.8125 25.4375 38.09375 25.4375 38.378906 25.433594 C 38.773438 25.433594 39.171875 25.433594 39.566406 25.433594 C 39.792969 25.433594 40.019531 25.433594 40.253906 25.429688 C 41.25 25.542969 41.984375 25.9375 42.621094 26.707031 C 42.757812 26.867188 42.757812 26.867188 42.898438 27.035156 C 43.371094 27.75 43.339844 28.5 43.347656 29.339844 C 43.351562 29.710938 43.351562 29.710938 43.355469 30.085938 C 43.355469 30.355469 43.355469 30.625 43.355469 30.894531 C 43.355469 31.027344 43.359375 31.167969 43.359375 31.308594 C 43.363281 32.027344 43.367188 32.746094 43.367188 33.464844 C 43.371094 34.207031 43.375 34.949219 43.382812 35.6875 C 43.390625 36.261719 43.390625 36.835938 43.390625 37.40625 C 43.390625 37.679688 43.394531 37.953125 43.398438 38.226562 C 43.414062 39.714844 43.410156 40.914062 42.5625 42.1875 C 41.621094 43.105469 40.746094 43.359375 39.449219 43.363281 C 39.203125 43.367188 38.953125 43.367188 38.699219 43.367188 C 38.433594 43.367188 38.160156 43.367188 37.894531 43.367188 C 37.617188 43.371094 37.339844 43.371094 37.0625 43.371094 C 36.480469 43.371094 35.902344 43.371094 35.320312 43.371094 C 34.582031 43.371094 33.839844 43.375 33.097656 43.378906 C 32.527344 43.382812 31.953125 43.382812 31.382812 43.378906 C 31.109375 43.378906 30.835938 43.382812 30.5625 43.382812 C 27.558594 43.402344 27.558594 43.402344 26.445312 42.425781 C 26.355469 42.316406 26.269531 42.207031 26.179688 42.09375 C 26.042969 41.929688 26.042969 41.929688 25.90625 41.761719 C 25.445312 41.078125 25.472656 40.441406 25.46875 39.640625 C 25.46875 39.515625 25.46875 39.390625 25.464844 39.265625 C 25.464844 38.855469 25.460938 38.441406 25.460938 38.03125 C 25.460938 37.742188 25.460938 37.457031 25.457031 37.167969 C 25.457031 36.570312 25.453125 35.96875 25.453125 35.367188 C 25.453125 34.597656 25.449219 33.832031 25.445312 33.0625 C 25.441406 32.46875 25.441406 31.875 25.441406 31.285156 C 25.4375 31 25.4375 30.71875 25.433594 30.433594 C 25.433594 30.039062 25.433594 29.640625 25.433594 29.246094 C 25.433594 29.019531 25.433594 28.792969 25.429688 28.558594 C 25.542969 27.558594 25.9375 26.824219 26.71875 26.191406 C 26.828125 26.101562 26.941406 26.007812 27.050781 25.914062 C 27.730469 25.4375 28.371094 25.472656 29.171875 25.46875 Z M 29.171875 25.46875 "/>
<path style=" stroke:none;fill-rule:nonzero;fill:rgb(89.803922%,23.529412%,21.176471%);fill-opacity:1;" d="M 8.359375 25.46875 C 8.546875 25.46875 8.546875 25.46875 8.734375 25.464844 C 9.148438 25.464844 9.558594 25.460938 9.972656 25.460938 C 10.257812 25.460938 10.542969 25.460938 10.828125 25.457031 C 11.433594 25.457031 12.03125 25.453125 12.632812 25.453125 C 13.402344 25.453125 14.167969 25.449219 14.9375 25.445312 C 15.53125 25.441406 16.121094 25.441406 16.714844 25.441406 C 17 25.4375 17.28125 25.4375 17.566406 25.433594 C 17.960938 25.433594 18.359375 25.433594 18.753906 25.433594 C 18.980469 25.433594 19.207031 25.433594 19.441406 25.429688 C 20.445312 25.542969 21.175781 25.9375 21.808594 26.71875 C 21.945312 26.882812 21.945312 26.882812 22.085938 27.050781 C 22.5625 27.730469 22.527344 28.371094 22.53125 29.171875 C 22.53125 29.359375 22.53125 29.359375 22.535156 29.546875 C 22.535156 29.960938 22.539062 30.371094 22.539062 30.785156 C 22.539062 31.070312 22.542969 31.355469 22.542969 31.640625 C 22.542969 32.246094 22.542969 32.84375 22.542969 33.445312 C 22.546875 34.214844 22.550781 34.984375 22.554688 35.75 C 22.558594 36.34375 22.558594 36.933594 22.558594 37.527344 C 22.5625 37.8125 22.5625 38.09375 22.566406 38.378906 C 22.570312 38.773438 22.566406 39.171875 22.566406 39.566406 C 22.566406 39.90625 22.566406 39.90625 22.570312 40.253906 C 22.457031 41.25 22.0625 41.984375 21.292969 42.621094 C 21.183594 42.710938 21.078125 42.804688 20.964844 42.898438 C 20.25 43.371094 19.5 43.339844 18.660156 43.347656 C 18.414062 43.347656 18.167969 43.351562 17.914062 43.355469 C 17.644531 43.355469 17.375 43.355469 17.105469 43.355469 C 16.902344 43.359375 16.902344 43.359375 16.695312 43.359375 C 15.976562 43.363281 15.253906 43.367188 14.53125 43.367188 C 13.792969 43.371094 13.050781 43.375 12.3125 43.382812 C 11.738281 43.390625 11.164062 43.390625 10.59375 43.390625 C 10.320312 43.390625 10.046875 43.394531 9.773438 43.398438 C 8.289062 43.414062 7.085938 43.410156 5.8125 42.5625 C 4.894531 41.621094 4.640625 40.746094 4.636719 39.449219 C 4.636719 39.203125 4.632812 38.953125 4.632812 38.699219 C 4.632812 38.433594 4.632812 38.160156 4.632812 37.894531 C 4.632812 37.617188 4.628906 37.339844 4.628906 37.0625 C 4.628906 36.480469 4.628906 35.902344 4.628906 35.320312 C 4.628906 34.582031 4.625 33.839844 4.621094 33.097656 C 4.621094 32.527344 4.621094 31.953125 4.621094 31.382812 C 4.621094 31.109375 4.617188 30.835938 4.617188 30.5625 C 4.597656 27.558594 4.597656 27.558594 5.574219 26.445312 C 5.683594 26.355469 5.792969 26.269531 5.90625 26.179688 C 6.015625 26.089844 6.128906 26 6.238281 25.90625 C 6.925781 25.445312 7.558594 25.472656 8.359375 25.46875 Z M 8.359375 25.46875 "/>
<path style=" stroke:none;fill-rule:nonzero;fill:rgb(17.254902%,67.058825%,88.235295%);fill-opacity:1;" d="M 8.550781 4.636719 C 8.796875 4.632812 9.046875 4.632812 9.300781 4.628906 C 9.570312 4.628906 9.835938 4.628906 10.105469 4.628906 C 10.382812 4.628906 10.660156 4.628906 10.9375 4.628906 C 11.515625 4.625 12.097656 4.625 12.679688 4.628906 C 13.417969 4.628906 14.160156 4.625 14.902344 4.621094 C 15.472656 4.617188 16.046875 4.617188 16.621094 4.617188 C 16.890625 4.617188 17.164062 4.617188 17.4375 4.617188 C 20.445312 4.597656 20.445312 4.597656 21.554688 5.570312 C 21.6875 5.738281 21.6875 5.738281 21.820312 5.90625 C 21.910156 6.015625 22 6.125 22.09375 6.242188 C 22.558594 6.921875 22.527344 7.558594 22.53125 8.359375 C 22.53125 8.546875 22.53125 8.546875 22.53125 8.738281 C 22.535156 9.148438 22.535156 9.558594 22.539062 9.96875 C 22.539062 10.257812 22.539062 10.542969 22.539062 10.832031 C 22.542969 11.429688 22.542969 12.03125 22.542969 12.632812 C 22.546875 13.402344 22.550781 14.171875 22.554688 14.9375 C 22.558594 15.53125 22.5625 16.121094 22.5625 16.714844 C 22.5625 16.996094 22.5625 17.28125 22.566406 17.5625 C 22.570312 17.960938 22.570312 18.359375 22.566406 18.757812 C 22.566406 19.09375 22.566406 19.09375 22.570312 19.4375 C 22.457031 20.445312 22.0625 21.171875 21.28125 21.808594 C 21.117188 21.945312 21.117188 21.945312 20.945312 22.089844 C 20.269531 22.5625 19.628906 22.523438 18.828125 22.53125 C 18.703125 22.53125 18.582031 22.53125 18.453125 22.53125 C 18.039062 22.535156 17.628906 22.535156 17.21875 22.539062 C 16.929688 22.539062 16.644531 22.539062 16.355469 22.542969 C 15.757812 22.542969 15.15625 22.542969 14.554688 22.542969 C 13.785156 22.546875 13.015625 22.550781 12.25 22.554688 C 11.65625 22.558594 11.0625 22.5625 10.472656 22.5625 C 10.191406 22.5625 9.90625 22.5625 9.621094 22.566406 C 9.226562 22.570312 8.828125 22.570312 8.429688 22.566406 C 8.207031 22.566406 7.980469 22.570312 7.746094 22.570312 C 6.75 22.457031 6.015625 22.0625 5.378906 21.292969 C 5.285156 21.183594 5.195312 21.074219 5.097656 20.964844 C 4.625 20.25 4.660156 19.5 4.65625 18.660156 C 4.652344 18.414062 4.648438 18.167969 4.648438 17.914062 C 4.644531 17.644531 4.644531 17.375 4.640625 17.105469 C 4.640625 16.96875 4.640625 16.835938 4.640625 16.695312 C 4.636719 15.972656 4.632812 15.253906 4.632812 14.535156 C 4.628906 13.792969 4.625 13.050781 4.617188 12.308594 C 4.613281 11.738281 4.609375 11.167969 4.609375 10.59375 C 4.609375 10.320312 4.605469 10.046875 4.601562 9.773438 C 4.582031 8.285156 4.589844 7.085938 5.4375 5.8125 C 6.378906 4.894531 7.253906 4.640625 8.550781 4.636719 Z M 8.550781 4.636719 "/>
<path style=" stroke:none;fill-rule:nonzero;fill:rgb(48.627451%,70.19608%,25.882354%);fill-opacity:1;" d="M 29.339844 4.65625 C 29.707031 4.652344 29.707031 4.652344 30.085938 4.648438 C 30.355469 4.644531 30.625 4.644531 30.894531 4.644531 C 31.027344 4.640625 31.164062 4.640625 31.304688 4.640625 C 32.027344 4.636719 32.746094 4.632812 33.464844 4.632812 C 34.207031 4.628906 34.949219 4.625 35.691406 4.617188 C 36.261719 4.609375 36.832031 4.609375 37.40625 4.609375 C 37.679688 4.609375 37.953125 4.605469 38.226562 4.601562 C 39.714844 4.585938 40.914062 4.589844 42.1875 5.4375 C 43.105469 6.378906 43.359375 7.253906 43.363281 8.550781 C 43.367188 8.796875 43.367188 9.046875 43.371094 9.300781 C 43.371094 9.570312 43.367188 9.835938 43.367188 10.105469 C 43.371094 10.382812 43.371094 10.660156 43.371094 10.9375 C 43.371094 11.519531 43.371094 12.097656 43.371094 12.679688 C 43.371094 13.421875 43.375 14.160156 43.378906 14.902344 C 43.382812 15.476562 43.382812 16.046875 43.378906 16.617188 C 43.382812 16.890625 43.382812 17.164062 43.382812 17.4375 C 43.402344 20.445312 43.402344 20.445312 42.425781 21.554688 C 42.261719 21.6875 42.261719 21.6875 42.09375 21.820312 C 41.984375 21.910156 41.875 22 41.757812 22.09375 C 41.078125 22.558594 40.441406 22.523438 39.640625 22.53125 C 39.515625 22.53125 39.394531 22.53125 39.265625 22.53125 C 38.851562 22.535156 38.441406 22.535156 38.03125 22.539062 C 37.742188 22.539062 37.457031 22.539062 37.167969 22.542969 C 36.570312 22.542969 35.96875 22.542969 35.367188 22.546875 C 34.597656 22.546875 33.832031 22.550781 33.0625 22.558594 C 32.46875 22.558594 31.875 22.5625 31.285156 22.5625 C 31 22.5625 30.71875 22.5625 30.433594 22.5625 C 30.039062 22.566406 29.640625 22.566406 29.242188 22.566406 C 29.019531 22.566406 28.792969 22.566406 28.558594 22.566406 C 27.554688 22.457031 26.828125 22.0625 26.191406 21.28125 C 26.097656 21.171875 26.007812 21.0625 25.910156 20.949219 C 25.441406 20.269531 25.476562 19.628906 25.46875 18.828125 C 25.46875 18.703125 25.46875 18.578125 25.46875 18.453125 C 25.464844 18.039062 25.460938 17.628906 25.460938 17.21875 C 25.460938 16.929688 25.460938 16.644531 25.457031 16.359375 C 25.457031 15.757812 25.457031 15.15625 25.453125 14.554688 C 25.453125 13.785156 25.449219 13.015625 25.441406 12.25 C 25.441406 11.65625 25.441406 11.066406 25.441406 10.472656 C 25.441406 10.1875 25.4375 9.90625 25.433594 9.625 C 25.433594 9.226562 25.433594 8.828125 25.433594 8.429688 C 25.433594 8.207031 25.433594 7.980469 25.429688 7.75 C 25.539062 6.75 25.9375 6.015625 26.707031 5.378906 C 26.816406 5.285156 26.921875 5.195312 27.035156 5.101562 C 27.75 4.625 28.5 4.660156 29.339844 4.65625 Z M 29.339844 4.65625 "/>
<path style=" stroke:none;fill-rule:nonzero;fill:rgb(98.431373%,95.686275%,87.058824%);fill-opacity:1;" d="M 28.6875 28.875 C 32.398438 28.875 36.113281 28.875 39.9375 28.875 C 39.9375 32.585938 39.9375 36.300781 39.9375 40.125 C 38.117188 40.128906 36.292969 40.132812 34.417969 40.136719 C 33.84375 40.136719 33.265625 40.140625 32.671875 40.140625 C 32.21875 40.140625 31.765625 40.144531 31.3125 40.144531 C 31.078125 40.144531 30.839844 40.144531 30.59375 40.144531 C 30.367188 40.144531 30.140625 40.144531 29.910156 40.144531 C 29.617188 40.148438 29.617188 40.148438 29.316406 40.148438 C 28.875 40.125 28.875 40.125 28.6875 39.9375 C 28.671875 39.59375 28.664062 39.246094 28.667969 38.902344 C 28.667969 38.675781 28.667969 38.449219 28.667969 38.21875 C 28.667969 37.863281 28.667969 37.863281 28.667969 37.5 C 28.667969 37.28125 28.667969 37.066406 28.671875 36.839844 C 28.671875 36.027344 28.671875 35.210938 28.675781 34.394531 C 28.679688 32.574219 28.683594 30.75 28.6875 28.875 Z M 28.6875 28.875 "/>
<path style=" stroke:none;fill-rule:nonzero;fill:rgb(92.941177%,95.294118%,90.196079%);fill-opacity:1;" d="M 28.6875 8.0625 C 32.398438 8.0625 36.113281 8.0625 39.9375 8.0625 C 39.9375 11.773438 39.9375 15.488281 39.9375 19.3125 C 38.117188 19.316406 36.292969 19.320312 34.417969 19.324219 C 33.84375 19.324219 33.265625 19.328125 32.671875 19.328125 C 32.21875 19.328125 31.765625 19.332031 31.3125 19.332031 C 31.078125 19.332031 30.839844 19.332031 30.59375 19.332031 C 30.367188 19.332031 30.140625 19.332031 29.910156 19.332031 C 29.617188 19.335938 29.617188 19.335938 29.316406 19.335938 C 28.875 19.3125 28.875 19.3125 28.6875 19.125 C 28.671875 18.78125 28.664062 18.433594 28.667969 18.089844 C 28.667969 17.863281 28.667969 17.636719 28.667969 17.40625 C 28.667969 17.050781 28.667969 17.050781 28.667969 16.6875 C 28.667969 16.46875 28.667969 16.253906 28.671875 16.027344 C 28.671875 15.214844 28.671875 14.398438 28.675781 13.582031 C 28.679688 11.761719 28.683594 9.9375 28.6875 8.0625 Z M 28.6875 8.0625 "/>
<path style=" stroke:none;fill-rule:nonzero;fill:rgb(87.058824%,94.117647%,97.647059%);fill-opacity:1;" d="M 7.875 8.0625 C 11.585938 8.0625 15.300781 8.0625 19.125 8.0625 C 19.125 11.773438 19.125 15.488281 19.125 19.3125 C 17.304688 19.316406 15.480469 19.320312 13.605469 19.324219 C 13.03125 19.324219 12.453125 19.328125 11.859375 19.328125 C 11.40625 19.328125 10.953125 19.332031 10.5 19.332031 C 10.265625 19.332031 10.027344 19.332031 9.78125 19.332031 C 9.554688 19.332031 9.328125 19.332031 9.097656 19.332031 C 8.804688 19.335938 8.804688 19.335938 8.503906 19.335938 C 8.0625 19.3125 8.0625 19.3125 7.875 19.125 C 7.859375 18.78125 7.851562 18.433594 7.855469 18.089844 C 7.855469 17.863281 7.855469 17.636719 7.855469 17.40625 C 7.855469 17.050781 7.855469 17.050781 7.855469 16.6875 C 7.855469 16.46875 7.855469 16.253906 7.859375 16.027344 C 7.859375 15.214844 7.859375 14.398438 7.863281 13.582031 C 7.867188 11.761719 7.871094 9.9375 7.875 8.0625 Z M 7.875 8.0625 "/>
<path style=" stroke:none;fill-rule:nonzero;fill:rgb(97.647059%,90.588236%,91.764706%);fill-opacity:1;" d="M 8.0625 28.875 C 11.714844 28.875 15.363281 28.875 19.125 28.875 C 19.125 32.527344 19.125 36.175781 19.125 39.9375 C 15.472656 39.9375 11.824219 39.9375 8.0625 39.9375 C 8.0625 36.285156 8.0625 32.636719 8.0625 28.875 Z M 8.0625 28.875 "/>
<path style=" stroke:none;fill-rule:nonzero;fill:rgb(100%,91.37255%,67.058825%);fill-opacity:1;" d="M 28.6875 28.875 C 29.367188 28.875 30.046875 28.875 30.75 28.875 C 30.75 31.90625 30.75 34.9375 30.75 38.0625 C 33.78125 38.0625 36.8125 38.0625 39.9375 38.0625 C 39.9375 38.742188 39.9375 39.421875 39.9375 40.125 C 38.496094 40.128906 37.058594 40.132812 35.621094 40.132812 C 34.953125 40.136719 34.285156 40.136719 33.613281 40.140625 C 32.847656 40.140625 32.082031 40.140625 31.3125 40.144531 C 30.953125 40.144531 30.953125 40.144531 30.582031 40.144531 C 30.25 40.144531 30.25 40.144531 29.910156 40.144531 C 29.617188 40.148438 29.617188 40.148438 29.316406 40.148438 C 28.875 40.125 28.875 40.125 28.6875 39.9375 C 28.671875 39.59375 28.664062 39.246094 28.667969 38.902344 C 28.667969 38.679688 28.667969 38.457031 28.667969 38.230469 C 28.667969 37.988281 28.667969 37.746094 28.667969 37.5 C 28.667969 37.253906 28.671875 37.007812 28.671875 36.753906 C 28.671875 36.101562 28.671875 35.449219 28.675781 34.796875 C 28.675781 34.128906 28.679688 33.464844 28.679688 32.796875 C 28.679688 31.492188 28.683594 30.183594 28.6875 28.875 Z M 28.6875 28.875 "/>
<path style=" stroke:none;fill-rule:nonzero;fill:rgb(84.313726%,90.980393%,76.078433%);fill-opacity:1;" d="M 28.6875 8.0625 C 29.367188 8.0625 30.046875 8.0625 30.75 8.0625 C 30.75 11.09375 30.75 14.125 30.75 17.25 C 33.78125 17.25 36.8125 17.25 39.9375 17.25 C 39.9375 17.929688 39.9375 18.609375 39.9375 19.3125 C 38.496094 19.316406 37.058594 19.320312 35.621094 19.320312 C 34.953125 19.324219 34.285156 19.324219 33.613281 19.328125 C 32.847656 19.328125 32.082031 19.328125 31.3125 19.332031 C 30.953125 19.332031 30.953125 19.332031 30.582031 19.332031 C 30.25 19.332031 30.25 19.332031 29.910156 19.332031 C 29.617188 19.335938 29.617188 19.335938 29.316406 19.335938 C 28.875 19.3125 28.875 19.3125 28.6875 19.125 C 28.671875 18.78125 28.664062 18.433594 28.667969 18.089844 C 28.667969 17.867188 28.667969 17.644531 28.667969 17.417969 C 28.667969 17.175781 28.667969 16.933594 28.667969 16.6875 C 28.667969 16.441406 28.671875 16.195312 28.671875 15.941406 C 28.671875 15.289062 28.671875 14.636719 28.675781 13.984375 C 28.675781 13.316406 28.679688 12.652344 28.679688 11.984375 C 28.679688 10.679688 28.683594 9.371094 28.6875 8.0625 Z M 28.6875 8.0625 "/>
<path style=" stroke:none;fill-rule:nonzero;fill:rgb(68.235296%,87.843138%,97.254902%);fill-opacity:1;" d="M 7.875 8.0625 C 8.554688 8.0625 9.234375 8.0625 9.9375 8.0625 C 9.9375 11.09375 9.9375 14.125 9.9375 17.25 C 12.96875 17.25 16 17.25 19.125 17.25 C 19.125 17.929688 19.125 18.609375 19.125 19.3125 C 17.683594 19.316406 16.246094 19.320312 14.808594 19.320312 C 14.140625 19.324219 13.472656 19.324219 12.800781 19.328125 C 12.035156 19.328125 11.269531 19.328125 10.5 19.332031 C 10.140625 19.332031 10.140625 19.332031 9.769531 19.332031 C 9.4375 19.332031 9.4375 19.332031 9.097656 19.332031 C 8.804688 19.335938 8.804688 19.335938 8.503906 19.335938 C 8.0625 19.3125 8.0625 19.3125 7.875 19.125 C 7.859375 18.78125 7.851562 18.433594 7.855469 18.089844 C 7.855469 17.867188 7.855469 17.644531 7.855469 17.417969 C 7.855469 17.175781 7.855469 16.933594 7.855469 16.6875 C 7.855469 16.441406 7.859375 16.195312 7.859375 15.941406 C 7.859375 15.289062 7.859375 14.636719 7.863281 13.984375 C 7.863281 13.316406 7.867188 12.652344 7.867188 11.984375 C 7.867188 10.679688 7.871094 9.371094 7.875 8.0625 Z M 7.875 8.0625 "/>
<path style=" stroke:none;fill-rule:nonzero;fill:rgb(97.647059%,80.000001%,82.352942%);fill-opacity:1;" d="M 8.0625 28.875 C 8.679688 28.875 9.300781 28.875 9.9375 28.875 C 9.9375 31.90625 9.9375 34.9375 9.9375 38.0625 C 12.96875 38.0625 16 38.0625 19.125 38.0625 C 19.125 38.679688 19.125 39.300781 19.125 39.9375 C 15.472656 39.9375 11.824219 39.9375 8.0625 39.9375 C 8.0625 36.285156 8.0625 32.636719 8.0625 28.875 Z M 8.0625 28.875 "/>
<path style=" stroke:none;fill-rule:nonzero;fill:rgb(30.19608%,37.64706%,41.568628%);fill-opacity:1;" d="M 10.3125 31.125 C 12.476562 31.125 14.644531 31.125 16.875 31.125 C 16.875 31.929688 16.875 32.734375 16.875 33.5625 C 14.710938 33.5625 12.542969 33.5625 10.3125 33.5625 C 10.3125 32.757812 10.3125 31.953125 10.3125 31.125 Z M 10.3125 31.125 "/>
<path style=" stroke:none;fill-rule:nonzero;fill:rgb(29.803923%,38.039216%,41.960785%);fill-opacity:1;" d="M 10.3125 14.4375 C 12.476562 14.4375 14.644531 14.4375 16.875 14.4375 C 16.875 15.242188 16.875 16.046875 16.875 16.875 C 14.710938 16.875 12.542969 16.875 10.3125 16.875 C 10.3125 16.070312 10.3125 15.265625 10.3125 14.4375 Z M 10.3125 14.4375 "/>
<path style=" stroke:none;fill-rule:nonzero;fill:rgb(27.058825%,35.294119%,39.215687%);fill-opacity:1;" d="M 31.125 35.25 C 33.230469 35.25 35.332031 35.25 37.5 35.25 C 37.5 35.992188 37.5 36.734375 37.5 37.5 C 35.394531 37.5625 33.292969 37.625 31.125 37.6875 C 31.125 36.882812 31.125 36.078125 31.125 35.25 Z M 31.125 35.25 "/>
<path style=" stroke:none;fill-rule:nonzero;fill:rgb(27.058825%,35.294119%,39.215687%);fill-opacity:1;" d="M 31.125 10.3125 C 33.230469 10.375 35.332031 10.4375 37.5 10.5 C 37.5 11.242188 37.5 11.984375 37.5 12.75 C 35.394531 12.75 33.292969 12.75 31.125 12.75 C 31.125 11.945312 31.125 11.140625 31.125 10.3125 Z M 31.125 10.3125 "/>
<path style=" stroke:none;fill-rule:nonzero;fill:rgb(33.333334%,40.392157%,43.137255%);fill-opacity:1;" d="M 31.125 31.125 C 32.238281 31.125 33.351562 31.125 34.5 31.125 C 34.5 31.929688 34.5 32.734375 34.5 33.5625 C 33.386719 33.5625 32.273438 33.5625 31.125 33.5625 C 31.125 32.757812 31.125 31.953125 31.125 31.125 Z M 31.125 31.125 "/>
<path style=" stroke:none;fill-rule:nonzero;fill:rgb(32.941177%,40.392157%,43.529412%);fill-opacity:1;" d="M 31.125 14.4375 C 32.238281 14.4375 33.351562 14.4375 34.5 14.4375 C 34.5 15.242188 34.5 16.046875 34.5 16.875 C 33.386719 16.875 32.273438 16.875 31.125 16.875 C 31.125 16.070312 31.125 15.265625 31.125 14.4375 Z M 31.125 14.4375 "/>
<path style=" stroke:none;fill-rule:nonzero;fill:rgb(19.215687%,23.529412%,26.274511%);fill-opacity:1;" d="M 10.3125 35.25 C 11.363281 35.25 12.417969 35.25 13.5 35.25 C 13.5 35.992188 13.5 36.734375 13.5 37.5 C 12.421875 37.65625 11.398438 37.703125 10.3125 37.6875 C 10.3125 36.882812 10.3125 36.078125 10.3125 35.25 Z M 10.3125 35.25 "/>
<path style=" stroke:none;fill-rule:nonzero;fill:rgb(18.82353%,23.921569%,26.274511%);fill-opacity:1;" d="M 10.3125 10.3125 C 11.398438 10.296875 12.421875 10.34375 13.5 10.5 C 13.5 11.242188 13.5 11.984375 13.5 12.75 C 12.449219 12.75 11.394531 12.75 10.3125 12.75 C 10.3125 11.945312 10.3125 11.140625 10.3125 10.3125 Z M 10.3125 10.3125 "/>
<path style=" stroke:none;fill-rule:nonzero;fill:rgb(18.431373%,23.137255%,25.098041%);fill-opacity:1;" d="M 31.125 35.25 C 31.804688 35.25 32.484375 35.25 33.1875 35.25 C 33.1875 36.054688 33.1875 36.859375 33.1875 37.6875 C 32.507812 37.6875 31.828125 37.6875 31.125 37.6875 C 31.125 36.882812 31.125 36.078125 31.125 35.25 Z M 31.125 35.25 "/>
<path style=" stroke:none;fill-rule:nonzero;fill:rgb(18.431373%,22.745098%,25.098041%);fill-opacity:1;" d="M 10.3125 31.125 C 10.992188 31.125 11.671875 31.125 12.375 31.125 C 12.375 31.929688 12.375 32.734375 12.375 33.5625 C 11.695312 33.5625 11.015625 33.5625 10.3125 33.5625 C 10.3125 32.757812 10.3125 31.953125 10.3125 31.125 Z M 10.3125 31.125 "/>
<path style=" stroke:none;fill-rule:nonzero;fill:rgb(18.039216%,22.745098%,25.490198%);fill-opacity:1;" d="M 10.3125 14.4375 C 10.992188 14.4375 11.671875 14.4375 12.375 14.4375 C 12.375 15.242188 12.375 16.046875 12.375 16.875 C 11.695312 16.875 11.015625 16.875 10.3125 16.875 C 10.3125 16.070312 10.3125 15.265625 10.3125 14.4375 Z M 10.3125 14.4375 "/>
<path style=" stroke:none;fill-rule:nonzero;fill:rgb(18.039216%,23.137255%,25.098041%);fill-opacity:1;" d="M 31.125 10.3125 C 31.804688 10.3125 32.484375 10.3125 33.1875 10.3125 C 33.1875 11.117188 33.1875 11.921875 33.1875 12.75 C 32.507812 12.75 31.828125 12.75 31.125 12.75 C 31.125 11.945312 31.125 11.140625 31.125 10.3125 Z M 31.125 10.3125 "/>
<path style=" stroke:none;fill-rule:nonzero;fill:rgb(18.431373%,23.137255%,25.098041%);fill-opacity:1;" d="M 31.125 31.125 C 31.683594 31.125 32.238281 31.125 32.8125 31.125 C 32.8125 31.929688 32.8125 32.734375 32.8125 33.5625 C 32.253906 33.5625 31.699219 33.5625 31.125 33.5625 C 31.125 32.757812 31.125 31.953125 31.125 31.125 Z M 31.125 31.125 "/>
<path style=" stroke:none;fill-rule:nonzero;fill:rgb(18.039216%,23.137255%,25.490198%);fill-opacity:1;" d="M 31.125 14.4375 C 31.683594 14.4375 32.238281 14.4375 32.8125 14.4375 C 32.8125 15.242188 32.8125 16.046875 32.8125 16.875 C 32.253906 16.875 31.699219 16.875 31.125 16.875 C 31.125 16.070312 31.125 15.265625 31.125 14.4375 Z M 31.125 14.4375 "/>
<path style=" stroke:none;fill-rule:nonzero;fill:rgb(27.058825%,35.294119%,39.215687%);fill-opacity:1;" d="M 12 35.25 C 12.496094 35.25 12.988281 35.25 13.5 35.25 C 13.5 35.992188 13.5 36.734375 13.5 37.5 C 13.003906 37.5 12.511719 37.5 12 37.5 C 12 36.757812 12 36.015625 12 35.25 Z M 12 35.25 "/>
<path style=" stroke:none;fill-rule:nonzero;fill:rgb(27.058825%,35.294119%,39.215687%);fill-opacity:1;" d="M 12 10.5 C 12.496094 10.5 12.988281 10.5 13.5 10.5 C 13.5 11.242188 13.5 11.984375 13.5 12.75 C 13.003906 12.75 12.511719 12.75 12 12.75 C 12 12.007812 12 11.265625 12 10.5 Z M 12 10.5 "/>
</g>
</svg>
