<?xml version="1.0" encoding="UTF-8"?>
<svg xmlns="http://www.w3.org/2000/svg" xmlns:xlink="http://www.w3.org/1999/xlink" width="48" height="48" viewBox="0 0 48 48" version="1.1">
<g id="surface1">
<path style=" stroke:none;fill-rule:nonzero;fill:rgb(99.215686%,25.882354%,36.078432%);fill-opacity:1;" d="M 32.285156 0.722656 C 32.515625 0.722656 32.515625 0.722656 32.75 0.722656 C 33.257812 0.71875 33.769531 0.71875 34.277344 0.71875 C 34.628906 0.71875 34.984375 0.71875 35.339844 0.71875 C 36.082031 0.714844 36.824219 0.714844 37.566406 0.714844 C 38.515625 0.714844 39.464844 0.714844 40.414062 0.710938 C 41.144531 0.707031 41.878906 0.707031 42.609375 0.707031 C 42.960938 0.707031 43.308594 0.707031 43.660156 0.703125 C 44.148438 0.703125 44.640625 0.703125 45.128906 0.703125 C 45.273438 0.703125 45.417969 0.703125 45.566406 0.703125 C 46.558594 0.707031 47.285156 0.785156 48 1.5 C 48.0625 1.886719 48.0625 1.886719 48.070312 2.332031 C 48.078125 2.480469 48.082031 2.625 48.085938 2.777344 C 48 3.1875 48 3.1875 47.710938 3.492188 C 47.066406 3.851562 46.484375 3.808594 45.769531 3.78125 C 45.460938 3.773438 45.152344 3.769531 44.847656 3.761719 C 44.683594 3.757812 44.519531 3.75 44.351562 3.746094 C 43.480469 3.726562 42.609375 3.71875 41.742188 3.710938 C 40.636719 3.699219 39.53125 3.679688 38.425781 3.648438 C 33.851562 3.304688 33.851562 3.304688 29.820312 5.015625 C 28.84375 6.050781 28.207031 6.9375 28.136719 8.386719 C 28.144531 8.8125 28.144531 8.8125 28.253906 9.472656 C 28.324219 10.25 28.152344 10.589844 27.75 11.25 C 27.605469 11.488281 27.605469 11.488281 27.457031 11.730469 C 26.769531 12.417969 26.058594 12.851562 25.125 13.125 C 24.71875 13.082031 24.3125 13.03125 23.90625 12.972656 C 22.859375 12.921875 22.417969 13.125 21.628906 13.820312 C 20.632812 14.785156 19.710938 15.8125 18.816406 16.863281 C 17.679688 18.191406 16.421875 19.394531 15.175781 20.617188 C 14.875 20.914062 14.570312 21.214844 14.269531 21.511719 C 14.175781 21.605469 14.082031 21.695312 13.988281 21.789062 C 13.558594 22.214844 13.320312 22.480469 13.125 23.0625 C 17.394531 23.0625 21.664062 23.0625 26.0625 23.0625 C 26.1875 22.691406 26.308594 22.320312 26.4375 21.9375 C 27.1875 20.980469 28.253906 20.449219 29.4375 20.25 C 30.84375 20.183594 31.917969 20.464844 33 21.375 C 33.53125 21.933594 33.777344 22.324219 33.9375 23.0625 C 34.085938 23.046875 34.238281 23.035156 34.394531 23.023438 C 36.113281 22.9375 37.144531 23.316406 38.589844 24.210938 C 38.789062 24.328125 38.988281 24.445312 39.191406 24.566406 C 39.609375 24.8125 40.023438 25.058594 40.4375 25.308594 C 41.054688 25.683594 41.675781 26.046875 42.300781 26.40625 C 43.222656 26.941406 44.144531 27.476562 45.0625 28.015625 C 45.40625 28.21875 45.746094 28.421875 46.089844 28.617188 C 46.253906 28.714844 46.421875 28.8125 46.59375 28.914062 C 46.742188 29.003906 46.890625 29.089844 47.046875 29.179688 C 47.425781 29.429688 47.714844 29.644531 48 30 C 48.140625 31.273438 48.140625 31.273438 47.707031 31.96875 C 47.09375 32.347656 46.628906 32.394531 45.9375 32.25 C 45.164062 31.898438 44.449219 31.460938 43.722656 31.019531 C 43.398438 30.828125 43.078125 30.636719 42.753906 30.445312 C 42.417969 30.246094 42.082031 30.046875 41.75 29.84375 C 41.0625 29.4375 40.371094 29.035156 39.679688 28.636719 C 39.566406 28.574219 39.457031 28.511719 39.339844 28.441406 C 39.121094 28.316406 38.898438 28.191406 38.679688 28.0625 C 38.164062 27.769531 37.652344 27.472656 37.136719 27.175781 C 36.96875 27.078125 36.796875 26.980469 36.621094 26.882812 C 36.28125 26.683594 35.953125 26.46875 35.625 26.25 C 35.195312 26.164062 35.195312 26.164062 34.746094 26.132812 C 34.59375 26.121094 34.441406 26.105469 34.289062 26.089844 C 34.113281 26.078125 34.113281 26.078125 33.9375 26.0625 C 33.929688 26.253906 33.929688 26.253906 33.925781 26.449219 C 33.59375 27.496094 32.753906 28.121094 31.839844 28.675781 C 30.597656 29.023438 29.269531 29.121094 28.066406 28.59375 C 27.152344 28.0625 26.347656 27.199219 25.875 26.25 C 19.5625 26.15625 19.5625 26.15625 13.125 26.0625 C 12.9375 26.621094 12.9375 26.621094 12.75 27.1875 C 12.398438 27.578125 12.398438 27.578125 12 27.902344 C 11.867188 28.011719 11.738281 28.121094 11.601562 28.234375 C 11.25 28.5 11.25 28.5 10.875 28.6875 C 10.582031 30.113281 10.414062 31.492188 11.199219 32.785156 C 11.632812 33.335938 12.089844 33.835938 12.585938 34.335938 C 12.742188 34.5 12.898438 34.664062 13.0625 34.832031 C 14.214844 35.910156 15.089844 36.183594 16.664062 36.175781 C 17.675781 36.195312 18.359375 36.5625 19.074219 37.25 C 19.785156 38.039062 20.265625 38.746094 20.367188 39.820312 C 20.386719 40.023438 20.386719 40.023438 20.410156 40.234375 C 20.4375 40.6875 20.4375 40.6875 20.355469 41.214844 C 20.488281 42.167969 21.144531 42.632812 21.832031 43.265625 C 22.09375 43.515625 22.355469 43.761719 22.617188 44.011719 C 22.734375 44.121094 22.851562 44.230469 22.96875 44.34375 C 23.40625 44.785156 23.4375 45 23.496094 45.632812 C 23.4375 46.3125 23.4375 46.3125 23.109375 46.757812 C 22.679688 47.066406 22.460938 47.21875 21.9375 47.25 C 20.925781 46.992188 20.328125 46.265625 19.628906 45.539062 C 19.507812 45.414062 19.386719 45.292969 19.261719 45.164062 C 18.964844 44.859375 18.667969 44.554688 18.375 44.25 C 18.214844 44.3125 18.054688 44.371094 17.886719 44.433594 C 16.644531 44.804688 15.183594 44.871094 13.980469 44.332031 C 12.929688 43.707031 12.183594 42.789062 11.8125 41.625 C 11.761719 41.039062 11.761719 41.039062 11.765625 40.417969 C 11.761719 40.109375 11.761719 40.109375 11.761719 39.796875 C 11.8125 39.164062 11.976562 38.660156 12.1875 38.0625 C 12.058594 37.933594 11.929688 37.804688 11.796875 37.671875 C 11.316406 37.195312 10.835938 36.71875 10.355469 36.242188 C 10.148438 36.035156 9.9375 35.828125 9.730469 35.621094 C 9.433594 35.324219 9.132812 35.027344 8.835938 34.730469 C 8.742188 34.636719 8.652344 34.546875 8.554688 34.449219 C 7.691406 33.589844 7.691406 33.589844 7.675781 32.921875 C 7.679688 32.734375 7.683594 32.546875 7.6875 32.351562 C 7.6875 32.148438 7.6875 31.941406 7.6875 31.730469 C 7.6875 31.296875 7.691406 30.867188 7.707031 30.433594 C 7.699219 29.8125 7.675781 29.285156 7.5 28.6875 C 7.101562 28.296875 6.71875 28.070312 6.222656 27.816406 C 5.753906 27.527344 5.664062 27.347656 5.46875 26.84375 C 5.136719 26.214844 5.136719 26.214844 4.617188 26.140625 C 4.042969 26.105469 3.480469 26.105469 2.90625 26.121094 C 2.519531 26.128906 2.128906 26.132812 1.738281 26.132812 C 1.570312 26.132812 1.394531 26.140625 1.21875 26.144531 C 0.601562 26.039062 0.386719 25.789062 0 25.3125 C -0.105469 24.9375 -0.105469 24.9375 -0.105469 24.5625 C -0.109375 24.441406 -0.113281 24.316406 -0.117188 24.1875 C 0.0820312 23.554688 0.363281 23.386719 0.9375 23.0625 C 1.8125 22.949219 2.695312 22.988281 3.574219 23.003906 C 4.09375 23 4.558594 22.988281 5.0625 22.875 C 5.550781 22.363281 5.550781 22.363281 5.8125 21.75 C 6.363281 21.171875 6.894531 20.785156 7.6875 20.625 C 7.683594 20.417969 7.683594 20.214844 7.683594 20.003906 C 7.667969 18.070312 7.65625 16.140625 7.648438 14.210938 C 7.644531 13.21875 7.640625 12.222656 7.628906 11.230469 C 7.625 10.273438 7.617188 9.316406 7.617188 8.359375 C 7.617188 7.992188 7.613281 7.625 7.609375 7.261719 C 7.601562 6.75 7.601562 6.238281 7.601562 5.726562 C 7.597656 5.574219 7.597656 5.421875 7.59375 5.265625 C 7.597656 4.589844 7.628906 4.207031 8.039062 3.660156 C 8.511719 3.320312 8.792969 3.203125 9.375 3.1875 C 10.027344 3.492188 10.285156 3.707031 10.6875 4.3125 C 10.726562 4.832031 10.746094 5.335938 10.746094 5.855469 C 10.75 6.015625 10.75 6.171875 10.753906 6.332031 C 10.757812 6.855469 10.761719 7.375 10.765625 7.894531 C 10.769531 8.253906 10.769531 8.617188 10.777344 8.976562 C 10.785156 9.925781 10.792969 10.875 10.800781 11.828125 C 10.808594 12.796875 10.816406 13.761719 10.824219 14.734375 C 10.84375 16.632812 10.863281 18.535156 10.875 20.4375 C 11.625 19.691406 12.375 18.945312 13.125 18.195312 C 13.382812 17.941406 13.632812 17.691406 13.890625 17.4375 C 15.691406 15.667969 15.691406 15.667969 17.371094 13.789062 C 17.660156 13.464844 17.96875 13.1875 18.300781 12.90625 C 19.578125 11.882812 19.578125 11.882812 20.121094 10.425781 C 20.011719 9.796875 20.011719 9.796875 19.835938 9.1875 C 19.574219 8.1875 19.800781 7.417969 20.285156 6.527344 C 21.054688 5.386719 21.972656 4.925781 23.25 4.5 C 24.0625 4.472656 24.644531 4.46875 25.429688 4.710938 C 26.027344 4.789062 26.214844 4.714844 26.710938 4.355469 C 27.21875 3.867188 27.695312 3.359375 28.171875 2.835938 C 28.5 2.484375 28.828125 2.132812 29.160156 1.78125 C 29.300781 1.625 29.445312 1.46875 29.59375 1.304688 C 30.371094 0.597656 31.277344 0.722656 32.285156 0.722656 Z M 32.285156 0.722656 "/>
<path style=" stroke:none;fill-rule:nonzero;fill:rgb(99.607843%,80.392158%,0.784314%);fill-opacity:1;" d="M 32.285156 0.722656 C 32.4375 0.722656 32.589844 0.722656 32.75 0.722656 C 33.257812 0.71875 33.769531 0.71875 34.277344 0.71875 C 34.628906 0.71875 34.984375 0.71875 35.339844 0.71875 C 36.082031 0.714844 36.824219 0.714844 37.566406 0.714844 C 38.515625 0.714844 39.464844 0.714844 40.414062 0.710938 C 41.144531 0.707031 41.878906 0.707031 42.609375 0.707031 C 42.960938 0.707031 43.308594 0.707031 43.660156 0.703125 C 44.148438 0.703125 44.640625 0.703125 45.128906 0.703125 C 45.273438 0.703125 45.417969 0.703125 45.566406 0.703125 C 46.558594 0.707031 47.285156 0.785156 48 1.5 C 48.0625 1.886719 48.0625 1.886719 48.070312 2.332031 C 48.078125 2.480469 48.082031 2.625 48.085938 2.777344 C 48 3.1875 48 3.1875 47.710938 3.492188 C 47.066406 3.851562 46.484375 3.808594 45.769531 3.78125 C 45.460938 3.773438 45.152344 3.769531 44.847656 3.761719 C 44.683594 3.757812 44.519531 3.75 44.351562 3.746094 C 43.480469 3.726562 42.609375 3.71875 41.742188 3.710938 C 40.636719 3.699219 39.53125 3.679688 38.425781 3.648438 C 33.851562 3.304688 33.851562 3.304688 29.820312 5.015625 C 28.84375 6.050781 28.207031 6.9375 28.136719 8.386719 C 28.144531 8.8125 28.144531 8.8125 28.253906 9.472656 C 28.324219 10.25 28.152344 10.589844 27.75 11.25 C 27.605469 11.488281 27.605469 11.488281 27.457031 11.730469 C 26.769531 12.417969 26.058594 12.851562 25.125 13.125 C 24.71875 13.082031 24.3125 13.03125 23.90625 12.972656 C 22.859375 12.921875 22.417969 13.125 21.628906 13.820312 C 20.632812 14.78125 19.714844 15.808594 18.816406 16.859375 C 17.84375 18 16.789062 19.054688 15.730469 20.117188 C 15.40625 20.441406 15.082031 20.769531 14.757812 21.09375 C 14.554688 21.300781 14.347656 21.507812 14.140625 21.714844 C 14.046875 21.8125 13.949219 21.910156 13.847656 22.011719 C 13.167969 22.6875 13.167969 22.6875 12.75 22.6875 C 12.644531 22.519531 12.535156 22.347656 12.421875 22.171875 C 11.949219 21.488281 11.578125 21.226562 10.875 20.8125 C 11.183594 20.027344 11.757812 19.511719 12.347656 18.933594 C 12.457031 18.824219 12.566406 18.71875 12.679688 18.609375 C 13.023438 18.261719 13.375 17.921875 13.722656 17.578125 C 14.179688 17.128906 14.636719 16.679688 15.089844 16.226562 C 15.253906 16.066406 15.253906 16.066406 15.421875 15.898438 C 16.09375 15.230469 16.726562 14.539062 17.339844 13.816406 C 17.640625 13.480469 17.957031 13.195312 18.300781 12.90625 C 19.578125 11.882812 19.578125 11.882812 20.121094 10.425781 C 20.011719 9.796875 20.011719 9.796875 19.835938 9.1875 C 19.574219 8.1875 19.800781 7.417969 20.285156 6.527344 C 21.054688 5.386719 21.972656 4.925781 23.25 4.5 C 24.0625 4.472656 24.644531 4.46875 25.429688 4.710938 C 26.027344 4.789062 26.214844 4.714844 26.710938 4.355469 C 27.21875 3.867188 27.695312 3.359375 28.171875 2.835938 C 28.5 2.484375 28.828125 2.132812 29.160156 1.78125 C 29.300781 1.625 29.445312 1.46875 29.59375 1.304688 C 30.371094 0.597656 31.277344 0.722656 32.285156 0.722656 Z M 32.285156 0.722656 "/>
<path style=" stroke:none;fill-rule:nonzero;fill:rgb(0.392157%,25.882354%,61.56863%);fill-opacity:1;" d="M 32.6875 21.113281 C 33.375 21.6875 33.75 22.195312 33.9375 23.0625 C 34.164062 23.042969 34.164062 23.042969 34.390625 23.023438 C 36.113281 22.9375 37.140625 23.316406 38.589844 24.210938 C 38.789062 24.328125 38.988281 24.445312 39.191406 24.566406 C 39.609375 24.8125 40.023438 25.058594 40.4375 25.308594 C 41.054688 25.683594 41.675781 26.046875 42.300781 26.40625 C 43.222656 26.941406 44.144531 27.476562 45.0625 28.015625 C 45.402344 28.21875 45.746094 28.421875 46.089844 28.621094 C 46.253906 28.714844 46.421875 28.8125 46.59375 28.914062 C 46.742188 29.003906 46.890625 29.089844 47.042969 29.179688 C 47.425781 29.429688 47.71875 29.644531 48 30 C 48.140625 31.273438 48.140625 31.273438 47.707031 31.96875 C 47.089844 32.347656 46.632812 32.394531 45.9375 32.25 C 45.164062 31.902344 44.449219 31.460938 43.722656 31.019531 C 43.402344 30.828125 43.078125 30.636719 42.757812 30.445312 C 42.417969 30.246094 42.082031 30.046875 41.746094 29.84375 C 41.0625 29.4375 40.371094 29.035156 39.675781 28.636719 C 39.511719 28.542969 39.511719 28.542969 39.339844 28.441406 C 39.117188 28.316406 38.898438 28.191406 38.679688 28.0625 C 38.164062 27.769531 37.652344 27.472656 37.136719 27.175781 C 36.964844 27.078125 36.796875 26.980469 36.621094 26.882812 C 36.28125 26.679688 35.953125 26.46875 35.625 26.25 C 35.199219 26.164062 35.199219 26.164062 34.746094 26.132812 C 34.59375 26.117188 34.441406 26.105469 34.285156 26.089844 C 34.171875 26.082031 34.054688 26.070312 33.9375 26.0625 C 33.933594 26.191406 33.929688 26.320312 33.925781 26.449219 C 33.589844 27.496094 32.753906 28.121094 31.839844 28.675781 C 30.597656 29.023438 29.269531 29.121094 28.066406 28.59375 C 27.152344 28.0625 26.347656 27.199219 25.875 26.25 C 19.5625 26.15625 19.5625 26.15625 13.125 26.0625 C 13.125 25.070312 13.125 24.082031 13.125 23.0625 C 17.394531 23.0625 21.664062 23.0625 26.0625 23.0625 C 26.1875 22.691406 26.3125 22.320312 26.4375 21.9375 C 27.957031 20.003906 30.722656 19.714844 32.6875 21.113281 Z M 32.6875 21.113281 "/>
<path style=" stroke:none;fill-rule:nonzero;fill:rgb(99.607843%,25.490198%,35.686275%);fill-opacity:1;" d="M 7.6875 28.6875 C 8.675781 28.6875 9.667969 28.6875 10.6875 28.6875 C 10.640625 29.007812 10.640625 29.007812 10.597656 29.335938 C 10.472656 30.90625 10.628906 32.050781 11.628906 33.316406 C 11.945312 33.660156 12.269531 34 12.597656 34.335938 C 12.753906 34.5 12.910156 34.664062 13.070312 34.828125 C 14.21875 35.910156 15.09375 36.183594 16.664062 36.175781 C 17.671875 36.195312 18.359375 36.5625 19.078125 37.253906 C 19.78125 38.042969 20.265625 38.746094 20.367188 39.820312 C 20.382812 39.957031 20.394531 40.09375 20.410156 40.234375 C 20.4375 40.6875 20.4375 40.6875 20.355469 41.210938 C 20.484375 42.167969 21.144531 42.632812 21.832031 43.265625 C 22.09375 43.515625 22.355469 43.761719 22.617188 44.011719 C 22.792969 44.175781 22.792969 44.175781 22.96875 44.34375 C 23.40625 44.78125 23.4375 45 23.496094 45.632812 C 23.4375 46.3125 23.4375 46.3125 23.109375 46.757812 C 22.683594 47.066406 22.460938 47.21875 21.9375 47.25 C 20.921875 46.996094 20.328125 46.265625 19.628906 45.539062 C 19.507812 45.417969 19.386719 45.292969 19.261719 45.164062 C 18.964844 44.859375 18.667969 44.554688 18.375 44.25 C 18.214844 44.308594 18.050781 44.371094 17.886719 44.433594 C 16.644531 44.808594 15.183594 44.871094 13.980469 44.332031 C 12.929688 43.703125 12.183594 42.789062 11.8125 41.625 C 11.761719 41.039062 11.761719 41.039062 11.765625 40.417969 C 11.765625 40.214844 11.765625 40.007812 11.761719 39.796875 C 11.8125 39.164062 11.976562 38.660156 12.1875 38.0625 C 11.992188 37.871094 11.992188 37.871094 11.792969 37.671875 C 11.3125 37.195312 10.835938 36.71875 10.355469 36.238281 C 10.148438 36.035156 9.9375 35.828125 9.730469 35.621094 C 9.433594 35.324219 9.136719 35.027344 8.835938 34.730469 C 8.742188 34.636719 8.648438 34.546875 8.554688 34.449219 C 7.695312 33.59375 7.695312 33.59375 7.667969 32.902344 C 7.667969 32.707031 7.667969 32.511719 7.667969 32.3125 C 7.671875 32.101562 7.671875 31.890625 7.671875 31.675781 C 7.671875 31.453125 7.675781 31.234375 7.675781 31.007812 C 7.675781 30.785156 7.679688 30.5625 7.679688 30.335938 C 7.679688 29.785156 7.683594 29.238281 7.6875 28.6875 Z M 7.6875 28.6875 "/>
<path style=" stroke:none;fill-rule:nonzero;fill:rgb(99.607843%,86.666667%,27.058825%);fill-opacity:1;" d="M 24 4.5 C 24.09375 5.984375 24.09375 5.984375 24.1875 7.5 C 24.558594 7.59375 24.558594 7.59375 24.9375 7.6875 C 25.265625 7.910156 25.265625 7.910156 25.5 8.25 C 25.59375 8.789062 25.59375 8.789062 25.5 9.375 C 25.054688 9.914062 25.054688 9.914062 24.5625 10.3125 C 24.4375 10.3125 24.316406 10.3125 24.1875 10.3125 C 24.125 11.242188 24.0625 12.167969 24 13.125 C 23.789062 13.089844 23.574219 13.058594 23.355469 13.027344 C 22.570312 13.027344 22.226562 13.28125 21.660156 13.8125 C 21.371094 14.109375 21.085938 14.414062 20.800781 14.71875 C 20.65625 14.867188 20.515625 15.015625 20.367188 15.167969 C 19.730469 15.832031 19.113281 16.507812 18.515625 17.207031 C 17.632812 18.222656 16.679688 19.167969 15.730469 20.113281 C 15.40625 20.441406 15.082031 20.765625 14.761719 21.09375 C 14.554688 21.300781 14.347656 21.507812 14.140625 21.714844 C 14.042969 21.8125 13.949219 21.910156 13.847656 22.011719 C 13.167969 22.6875 13.167969 22.6875 12.75 22.6875 C 12.640625 22.515625 12.53125 22.347656 12.421875 22.171875 C 11.949219 21.488281 11.578125 21.230469 10.875 20.8125 C 11.179688 20.027344 11.757812 19.511719 12.347656 18.933594 C 12.457031 18.828125 12.566406 18.71875 12.675781 18.609375 C 13.027344 18.265625 13.375 17.921875 13.722656 17.578125 C 14.179688 17.128906 14.632812 16.679688 15.089844 16.226562 C 15.199219 16.121094 15.308594 16.011719 15.421875 15.898438 C 16.09375 15.230469 16.726562 14.539062 17.339844 13.816406 C 17.640625 13.484375 17.957031 13.195312 18.300781 12.90625 C 19.578125 11.878906 19.578125 11.878906 20.121094 10.421875 C 20.011719 9.796875 20.011719 9.796875 19.835938 9.1875 C 19.574219 8.1875 19.800781 7.414062 20.289062 6.527344 C 21.152344 5.238281 22.433594 4.5 24 4.5 Z M 24 4.5 "/>
<path style=" stroke:none;fill-rule:nonzero;fill:rgb(100%,9.803922%,23.529412%);fill-opacity:1;" d="M 10.125 3.5625 C 10.636719 4.039062 10.6875 4.3125 10.753906 5.019531 C 10.757812 5.3125 10.753906 5.605469 10.75 5.894531 C 10.75 6.132812 10.75 6.132812 10.75 6.375 C 10.75 6.902344 10.746094 7.429688 10.742188 7.953125 C 10.742188 8.320312 10.738281 8.683594 10.738281 9.046875 C 10.738281 10.007812 10.734375 10.96875 10.726562 11.925781 C 10.722656 12.90625 10.71875 13.882812 10.714844 14.863281 C 10.707031 16.78125 10.699219 18.703125 10.6875 20.625 C 9.699219 20.625 8.707031 20.625 7.6875 20.625 C 7.671875 18.488281 7.65625 16.347656 7.648438 14.210938 C 7.644531 13.21875 7.640625 12.222656 7.632812 11.230469 C 7.621094 10.273438 7.617188 9.316406 7.617188 8.355469 C 7.613281 7.992188 7.613281 7.625 7.609375 7.261719 C 7.601562 6.75 7.601562 6.234375 7.601562 5.722656 C 7.597656 5.574219 7.597656 5.421875 7.59375 5.265625 C 7.597656 4.59375 7.628906 4.207031 8.03125 3.660156 C 8.828125 3.097656 9.257812 3.183594 10.125 3.5625 Z M 10.125 3.5625 "/>
<path style=" stroke:none;fill-rule:nonzero;fill:rgb(0%,43.921569%,99.215686%);fill-opacity:1;" d="M 33.9375 23.0625 C 35.871094 22.933594 36.957031 23.199219 38.589844 24.210938 C 38.789062 24.328125 38.988281 24.445312 39.191406 24.566406 C 39.609375 24.8125 40.023438 25.0625 40.4375 25.3125 C 41.054688 25.683594 41.675781 26.046875 42.300781 26.40625 C 43.222656 26.941406 44.144531 27.476562 45.0625 28.019531 C 45.40625 28.21875 45.746094 28.417969 46.089844 28.617188 C 46.257812 28.71875 46.421875 28.816406 46.59375 28.917969 C 46.742188 29.003906 46.890625 29.089844 47.046875 29.179688 C 47.425781 29.429688 47.71875 29.644531 48 30 C 48.140625 31.273438 48.140625 31.273438 47.707031 31.96875 C 47.089844 32.347656 46.632812 32.394531 45.9375 32.25 C 45.164062 31.898438 44.449219 31.460938 43.722656 31.019531 C 43.402344 30.828125 43.078125 30.636719 42.753906 30.445312 C 42.421875 30.246094 42.085938 30.046875 41.75 29.84375 C 41.0625 29.4375 40.371094 29.035156 39.679688 28.636719 C 39.566406 28.574219 39.457031 28.507812 39.339844 28.445312 C 39.121094 28.316406 38.898438 28.191406 38.679688 28.066406 C 38.164062 27.769531 37.648438 27.472656 37.136719 27.179688 C 36.96875 27.082031 36.796875 26.980469 36.621094 26.882812 C 36.28125 26.679688 35.953125 26.46875 35.625 26.25 C 35.0625 26.148438 34.507812 26.109375 33.9375 26.0625 C 33.9375 25.074219 33.9375 24.082031 33.9375 23.0625 Z M 33.9375 23.0625 "/>
<path style=" stroke:none;fill-rule:nonzero;fill:rgb(0%,67.058825%,90.980393%);fill-opacity:1;" d="M 13.125 23.0625 C 17.394531 23.0625 21.664062 23.0625 26.0625 23.0625 C 26 24.050781 25.9375 25.042969 25.875 26.0625 C 21.667969 26.0625 17.460938 26.0625 13.125 26.0625 C 13.125 25.074219 13.125 24.082031 13.125 23.0625 Z M 13.125 23.0625 "/>
<path style=" stroke:none;fill-rule:nonzero;fill:rgb(98.823529%,74.901962%,0.784314%);fill-opacity:1;" d="M 24 4.5 C 24.09375 5.984375 24.09375 5.984375 24.1875 7.5 C 24.433594 7.5625 24.683594 7.625 24.9375 7.6875 C 25.265625 7.910156 25.265625 7.910156 25.5 8.25 C 25.59375 8.789062 25.59375 8.789062 25.5 9.375 C 25.054688 9.914062 25.054688 9.914062 24.5625 10.3125 C 24.4375 10.3125 24.316406 10.3125 24.1875 10.3125 C 24.125 11.242188 24.0625 12.167969 24 13.125 C 22.394531 12.894531 21.617188 12.378906 20.449219 11.308594 C 19.773438 10.21875 19.570312 9.011719 19.78125 7.746094 C 20.078125 6.691406 20.648438 5.789062 21.574219 5.183594 C 22.386719 4.769531 23.074219 4.5 24 4.5 Z M 24 4.5 "/>
<path style=" stroke:none;fill-rule:nonzero;fill:rgb(100%,9.803922%,23.921569%);fill-opacity:1;" d="M 7.6875 28.6875 C 8.675781 28.6875 9.667969 28.6875 10.6875 28.6875 C 10.65625 28.898438 10.625 29.109375 10.589844 29.328125 C 10.480469 30.625 10.492188 31.710938 11.269531 32.804688 C 12.355469 34.03125 13.566406 35.125 14.8125 36.1875 C 14.667969 36.304688 14.519531 36.421875 14.367188 36.542969 C 13.957031 36.871094 13.554688 37.203125 13.160156 37.546875 C 13.046875 37.644531 12.933594 37.742188 12.816406 37.84375 C 12.691406 37.953125 12.691406 37.953125 12.5625 38.0625 C 11.859375 37.769531 11.417969 37.335938 10.882812 36.800781 C 10.710938 36.628906 10.535156 36.453125 10.355469 36.273438 C 10.265625 36.183594 10.175781 36.09375 10.082031 36 C 9.808594 35.71875 9.53125 35.441406 9.253906 35.164062 C 7.695312 33.597656 7.695312 33.597656 7.667969 32.902344 C 7.667969 32.707031 7.667969 32.511719 7.667969 32.3125 C 7.671875 32.101562 7.671875 31.890625 7.671875 31.675781 C 7.671875 31.453125 7.675781 31.234375 7.675781 31.007812 C 7.675781 30.785156 7.679688 30.5625 7.679688 30.335938 C 7.679688 29.785156 7.683594 29.238281 7.6875 28.6875 Z M 7.6875 28.6875 "/>
<path style=" stroke:none;fill-rule:nonzero;fill:rgb(99.607843%,57.647061%,0%);fill-opacity:1;" d="M 24 4.5 C 25.429688 4.664062 25.429688 4.664062 26.0625 4.875 C 26.0625 5 26.0625 5.121094 26.0625 5.25 C 26.203125 5.296875 26.347656 5.339844 26.492188 5.386719 C 27.085938 5.667969 27.269531 5.914062 27.609375 6.46875 C 27.703125 6.617188 27.796875 6.765625 27.894531 6.921875 C 28.492188 7.933594 28.390625 8.96875 28.3125 10.125 C 28.078125 10.78125 28.078125 10.78125 27.75 11.25 C 27.605469 11.488281 27.605469 11.488281 27.457031 11.730469 C 26.628906 12.558594 25.609375 13.082031 24.445312 13.183594 C 24.296875 13.164062 24.152344 13.144531 24 13.125 C 23.984375 12.160156 24.027344 11.265625 24.1875 10.3125 C 24.496094 10.1875 24.804688 10.066406 25.125 9.9375 C 25.171875 9.667969 25.214844 9.398438 25.253906 9.128906 C 25.277344 8.980469 25.300781 8.828125 25.324219 8.671875 C 25.351562 8.238281 25.351562 8.238281 25.070312 7.925781 C 24.734375 7.648438 24.734375 7.648438 24.1875 7.5 C 24.125 6.511719 24.0625 5.519531 24 4.5 Z M 24 4.5 "/>
<path style=" stroke:none;fill-rule:nonzero;fill:rgb(100%,9.803922%,23.921569%);fill-opacity:1;" d="M 20.0625 41.625 C 22.9375 44 22.9375 44 23.4375 45 C 23.546875 46.167969 23.546875 46.167969 23.109375 46.757812 C 22.683594 47.066406 22.460938 47.21875 21.9375 47.25 C 20.921875 46.996094 20.328125 46.265625 19.628906 45.539062 C 19.507812 45.417969 19.386719 45.292969 19.261719 45.164062 C 18.964844 44.859375 18.667969 44.554688 18.375 44.25 C 18.710938 43.527344 19.175781 42.988281 19.6875 42.375 C 19.820312 42.128906 19.945312 41.878906 20.0625 41.625 Z M 20.0625 41.625 "/>
<path style=" stroke:none;fill-rule:nonzero;fill:rgb(0%,67.058825%,90.980393%);fill-opacity:1;" d="M 3.058594 23.015625 C 3.347656 23.019531 3.347656 23.019531 3.640625 23.023438 C 4.117188 23.035156 4.589844 23.046875 5.0625 23.0625 C 5.0625 24.050781 5.0625 25.042969 5.0625 26.0625 C 4.359375 26.082031 3.65625 26.097656 2.953125 26.109375 C 2.753906 26.113281 2.554688 26.121094 2.347656 26.128906 C 2.15625 26.128906 1.964844 26.132812 1.765625 26.136719 C 1.589844 26.140625 1.414062 26.144531 1.230469 26.148438 C 0.609375 26.039062 0.390625 25.796875 0 25.3125 C -0.105469 24.9375 -0.105469 24.9375 -0.105469 24.5625 C -0.109375 24.4375 -0.113281 24.316406 -0.117188 24.1875 C 0.335938 22.746094 1.839844 22.972656 3.058594 23.015625 Z M 3.058594 23.015625 "/>
<path style=" stroke:none;fill-rule:nonzero;fill:rgb(96.470588%,90.196079%,89.019608%);fill-opacity:1;" d="M 9.75 23.25 C 10.207031 23.554688 10.207031 23.554688 10.5 24 C 10.605469 24.550781 10.605469 24.550781 10.5 25.125 C 10.070312 25.6875 9.789062 26.007812 9.09375 26.179688 C 8.390625 26.003906 8.109375 25.707031 7.6875 25.125 C 7.6875 24.460938 7.75 24.023438 8.085938 23.449219 C 8.660156 23.125 9.105469 23.171875 9.75 23.25 Z M 9.75 23.25 "/>
<path style=" stroke:none;fill-rule:nonzero;fill:rgb(96.470588%,90.980393%,89.411765%);fill-opacity:1;" d="M 16.875 39.1875 C 17.238281 39.410156 17.238281 39.410156 17.4375 39.75 C 17.570312 40.511719 17.496094 40.789062 17.050781 41.425781 C 16.5 41.8125 16.5 41.8125 15.820312 41.824219 C 15.1875 41.625 15.1875 41.625 14.8125 41.320312 C 14.535156 40.664062 14.628906 40.238281 14.8125 39.5625 C 15.414062 38.824219 16.007812 38.964844 16.875 39.1875 Z M 16.875 39.1875 "/>
<path style=" stroke:none;fill-rule:nonzero;fill:rgb(90.588236%,86.274511%,85.490197%);fill-opacity:1;" d="M 30.5625 23.25 C 31.007812 23.542969 31.007812 23.542969 31.3125 24 C 31.417969 24.65625 31.417969 24.65625 31.3125 25.3125 C 30.914062 25.78125 30.914062 25.78125 30.375 26.0625 C 29.78125 26.050781 29.410156 25.96875 28.898438 25.675781 C 28.550781 25.078125 28.5625 24.480469 28.6875 23.8125 C 29.210938 23.167969 29.765625 23.132812 30.5625 23.25 Z M 30.5625 23.25 "/>
<path style=" stroke:none;fill-rule:nonzero;fill:rgb(96.078432%,92.54902%,89.019608%);fill-opacity:1;" d="M 24.75 7.5 C 25.207031 7.804688 25.207031 7.804688 25.5 8.25 C 25.613281 8.933594 25.589844 9.238281 25.207031 9.820312 C 24.574219 10.242188 24.183594 10.230469 23.4375 10.125 C 22.980469 9.820312 22.980469 9.820312 22.6875 9.375 C 22.574219 8.691406 22.597656 8.386719 22.980469 7.804688 C 23.613281 7.382812 24.003906 7.394531 24.75 7.5 Z M 24.75 7.5 "/>
<path style=" stroke:none;fill-rule:nonzero;fill:rgb(0%,44.705883%,98.431373%);fill-opacity:1;" d="M 24 23.0625 C 24.679688 23.0625 25.359375 23.0625 26.0625 23.0625 C 26 24.050781 25.9375 25.042969 25.875 26.0625 C 25.257812 26.0625 24.636719 26.0625 24 26.0625 C 24 25.074219 24 24.082031 24 23.0625 Z M 24 23.0625 "/>
<path style=" stroke:none;fill-rule:nonzero;fill:rgb(93.333334%,87.058824%,82.745099%);fill-opacity:1;" d="M 24.1875 7.5 C 25.148438 7.738281 25.148438 7.738281 25.5 8.25 C 25.582031 8.800781 25.582031 8.800781 25.5 9.375 C 25.160156 9.820312 25.160156 9.820312 24.75 10.125 C 24.5625 10.125 24.378906 10.125 24.1875 10.125 C 24.1875 9.257812 24.1875 8.390625 24.1875 7.5 Z M 24.1875 7.5 "/>
</g>
</svg>
