<?xml version="1.0" encoding="UTF-8"?>
<svg xmlns="http://www.w3.org/2000/svg" xmlns:xlink="http://www.w3.org/1999/xlink" width="48" height="48" viewBox="0 0 48 48" version="1.1">
<g id="surface1">
<path style=" stroke:none;fill-rule:nonzero;fill:rgb(96.470588%,96.862745%,97.254902%);fill-opacity:1;" d="M 5.5625 0.886719 C 5.726562 0.886719 5.890625 0.886719 6.058594 0.886719 C 6.609375 0.882812 7.15625 0.882812 7.703125 0.882812 C 8.097656 0.882812 8.492188 0.878906 8.882812 0.878906 C 9.949219 0.875 11.019531 0.875 12.085938 0.875 C 12.976562 0.875 13.867188 0.871094 14.761719 0.871094 C 16.863281 0.867188 18.964844 0.867188 21.070312 0.867188 C 23.238281 0.867188 25.40625 0.863281 27.574219 0.859375 C 29.441406 0.855469 31.300781 0.851562 33.164062 0.851562 C 34.277344 0.851562 35.390625 0.851562 36.5 0.847656 C 37.546875 0.84375 38.59375 0.84375 39.640625 0.847656 C 40.023438 0.847656 40.410156 0.847656 40.789062 0.84375 C 41.316406 0.839844 41.839844 0.84375 42.367188 0.84375 C 42.589844 0.84375 42.589844 0.84375 42.824219 0.839844 C 44.042969 0.855469 45.011719 1.214844 45.941406 2.015625 C 46.066406 2.171875 46.066406 2.171875 46.195312 2.332031 C 46.324219 2.488281 46.324219 2.488281 46.457031 2.648438 C 47.042969 3.542969 47.117188 4.367188 47.113281 5.414062 C 47.113281 5.5625 47.113281 5.710938 47.117188 5.863281 C 47.117188 6.355469 47.117188 6.847656 47.117188 7.339844 C 47.117188 7.695312 47.117188 8.050781 47.121094 8.402344 C 47.125 9.367188 47.125 10.328125 47.125 11.289062 C 47.125 11.890625 47.125 12.492188 47.125 13.09375 C 47.128906 15.191406 47.132812 17.289062 47.132812 19.386719 C 47.132812 21.339844 47.136719 23.296875 47.140625 25.25 C 47.148438 26.929688 47.148438 28.605469 47.148438 30.285156 C 47.148438 31.289062 47.148438 32.292969 47.152344 33.292969 C 47.15625 34.234375 47.15625 35.179688 47.15625 36.121094 C 47.15625 36.46875 47.15625 36.8125 47.15625 37.160156 C 47.160156 37.632812 47.160156 38.105469 47.15625 38.578125 C 47.15625 38.714844 47.160156 38.847656 47.160156 38.988281 C 47.144531 40.273438 46.691406 41.238281 45.796875 42.152344 C 44.488281 43.035156 43.210938 43.363281 41.625 43.125 C 41.121094 42.773438 41.121094 42.773438 40.875 42.375 C 40.875 42.25 40.875 42.128906 40.875 42 C 40.441406 42.0625 40.007812 42.125 39.5625 42.1875 C 39.65625 42.34375 39.75 42.503906 39.84375 42.667969 C 40.210938 43.507812 40.292969 44.136719 39.988281 45.015625 C 39.613281 45.839844 39.214844 46.375 38.4375 46.875 C 37.621094 47.148438 36.851562 47.160156 36 47.0625 C 35.066406 46.59375 34.40625 45.9375 33.9375 45 C 33.933594 44.371094 33.949219 43.746094 33.96875 43.121094 C 33.996094 42.539062 33.996094 42.539062 33.5625 42.1875 C 33.0625 42.082031 32.570312 42.050781 32.0625 42 C 32.046875 42.195312 32.03125 42.386719 32.015625 42.585938 C 31.832031 43.542969 31.496094 44.164062 30.707031 44.746094 C 30.085938 45.050781 29.65625 45.074219 28.964844 45.078125 C 28.722656 45.082031 28.480469 45.085938 28.226562 45.089844 C 27.964844 45.089844 27.699219 45.089844 27.433594 45.089844 C 27.160156 45.089844 26.890625 45.089844 26.617188 45.09375 C 26.042969 45.09375 25.472656 45.09375 24.902344 45.09375 C 24.171875 45.09375 23.441406 45.097656 22.710938 45.105469 C 22.148438 45.109375 21.585938 45.109375 21.019531 45.109375 C 20.753906 45.109375 20.484375 45.113281 20.214844 45.117188 C 17.855469 45.144531 17.855469 45.144531 17.003906 44.558594 C 16.328125 43.894531 15.964844 43.355469 15.902344 42.398438 C 15.914062 42.265625 15.925781 42.136719 15.9375 42 C 14.890625 42.039062 14.890625 42.039062 14.0625 42.5625 C 14.054688 42.953125 14.066406 43.34375 14.085938 43.734375 C 14.101562 44.769531 14.050781 45.347656 13.3125 46.125 C 12.371094 46.957031 11.835938 47.121094 10.601562 47.101562 C 9.707031 47.027344 9.183594 46.695312 8.578125 46.054688 C 7.960938 45.128906 7.777344 44.433594 7.875 43.3125 C 8.03125 42.851562 8.222656 42.4375 8.4375 42 C 8.003906 42 7.570312 42 7.125 42 C 7.042969 42.226562 7.042969 42.226562 6.960938 42.457031 C 6.75 42.9375 6.75 42.9375 6.375 43.125 C 4.945312 43.277344 3.683594 43.121094 2.4375 42.375 C 1.507812 41.5625 0.980469 40.695312 0.890625 39.449219 C 0.886719 39.183594 0.886719 38.917969 0.886719 38.648438 C 0.886719 38.5 0.886719 38.355469 0.886719 38.203125 C 0.882812 37.707031 0.882812 37.214844 0.882812 36.71875 C 0.882812 36.367188 0.878906 36.011719 0.878906 35.65625 C 0.875 34.695312 0.875 33.734375 0.875 32.773438 C 0.875 32.171875 0.875 31.570312 0.871094 30.96875 C 0.867188 28.871094 0.867188 26.773438 0.867188 24.675781 C 0.867188 22.722656 0.863281 20.765625 0.859375 18.8125 C 0.851562 17.132812 0.851562 15.453125 0.851562 13.777344 C 0.851562 12.773438 0.851562 11.773438 0.847656 10.769531 C 0.84375 9.824219 0.84375 8.882812 0.847656 7.941406 C 0.847656 7.59375 0.847656 7.25 0.84375 6.902344 C 0.839844 6.433594 0.84375 5.957031 0.84375 5.484375 C 0.84375 5.351562 0.839844 5.214844 0.839844 5.074219 C 0.855469 3.902344 1.25 2.945312 2.015625 2.058594 C 2.117188 1.976562 2.222656 1.890625 2.332031 1.804688 C 2.4375 1.71875 2.539062 1.632812 2.648438 1.542969 C 3.585938 0.929688 4.464844 0.882812 5.5625 0.886719 Z M 5.5625 0.886719 "/>
<path style=" stroke:none;fill-rule:nonzero;fill:rgb(25.882354%,25.882354%,25.882354%);fill-opacity:1;" d="M 5.5625 0.886719 C 5.726562 0.886719 5.890625 0.886719 6.058594 0.886719 C 6.609375 0.882812 7.15625 0.882812 7.703125 0.882812 C 8.097656 0.882812 8.492188 0.878906 8.882812 0.878906 C 9.949219 0.875 11.019531 0.875 12.085938 0.875 C 12.976562 0.875 13.867188 0.871094 14.761719 0.871094 C 16.863281 0.867188 18.964844 0.867188 21.070312 0.867188 C 23.238281 0.867188 25.40625 0.863281 27.574219 0.859375 C 29.441406 0.855469 31.300781 0.851562 33.164062 0.851562 C 34.277344 0.851562 35.390625 0.851562 36.5 0.847656 C 37.546875 0.84375 38.59375 0.84375 39.640625 0.847656 C 40.023438 0.847656 40.410156 0.847656 40.789062 0.84375 C 41.316406 0.839844 41.839844 0.84375 42.367188 0.84375 C 42.589844 0.84375 42.589844 0.84375 42.824219 0.839844 C 44.042969 0.855469 45.011719 1.214844 45.941406 2.015625 C 46.066406 2.171875 46.066406 2.171875 46.195312 2.332031 C 46.324219 2.488281 46.324219 2.488281 46.457031 2.648438 C 47.042969 3.542969 47.117188 4.367188 47.113281 5.414062 C 47.113281 5.5625 47.113281 5.710938 47.117188 5.863281 C 47.117188 6.355469 47.117188 6.847656 47.117188 7.339844 C 47.117188 7.695312 47.117188 8.050781 47.121094 8.402344 C 47.125 9.367188 47.125 10.328125 47.125 11.289062 C 47.125 11.890625 47.125 12.492188 47.125 13.09375 C 47.128906 15.191406 47.132812 17.289062 47.132812 19.386719 C 47.132812 21.339844 47.136719 23.296875 47.140625 25.25 C 47.148438 26.929688 47.148438 28.605469 47.148438 30.285156 C 47.148438 31.289062 47.148438 32.292969 47.152344 33.292969 C 47.15625 34.234375 47.15625 35.179688 47.15625 36.121094 C 47.15625 36.46875 47.15625 36.8125 47.15625 37.160156 C 47.160156 37.632812 47.160156 38.105469 47.15625 38.578125 C 47.15625 38.714844 47.160156 38.847656 47.160156 38.988281 C 47.144531 40.273438 46.691406 41.238281 45.796875 42.152344 C 44.492188 43.03125 43.210938 43.367188 41.625 43.125 C 41.121094 42.75 41.121094 42.75 40.875 42.375 C 41.226562 41.273438 41.226562 41.273438 41.4375 41.0625 C 41.765625 41.03125 42.09375 41.011719 42.421875 40.992188 C 43.230469 40.925781 43.796875 40.847656 44.4375 40.3125 C 44.890625 39.632812 44.863281 39.324219 44.867188 38.515625 C 44.867188 38.390625 44.867188 38.261719 44.867188 38.132812 C 44.871094 37.710938 44.871094 37.285156 44.871094 36.863281 C 44.875 36.554688 44.875 36.246094 44.878906 35.941406 C 44.882812 35.113281 44.886719 34.289062 44.886719 33.460938 C 44.890625 32.6875 44.894531 31.914062 44.902344 31.136719 C 44.914062 28.871094 44.921875 26.605469 44.929688 24.339844 C 44.953125 19.277344 44.976562 14.214844 45 9 C 31.140625 9 17.28125 9 3 9 C 3.011719 14.054688 3.023438 19.109375 3.035156 24.316406 C 3.035156 25.914062 3.039062 27.511719 3.039062 29.15625 C 3.046875 30.585938 3.046875 30.585938 3.050781 32.015625 C 3.054688 32.652344 3.054688 33.289062 3.054688 33.925781 C 3.054688 34.742188 3.054688 35.550781 3.0625 36.367188 C 3.0625 36.664062 3.0625 36.960938 3.058594 37.261719 C 3.058594 37.664062 3.0625 38.066406 3.066406 38.46875 C 3.066406 38.695312 3.066406 38.921875 3.070312 39.152344 C 3.222656 39.917969 3.53125 40.195312 4.125 40.6875 C 4.605469 40.929688 4.984375 40.902344 5.519531 40.921875 C 6.503906 41.003906 6.503906 41.003906 6.996094 41.484375 C 7.15625 42.117188 7.078125 42.378906 6.75 42.9375 C 5.878906 43.371094 4.722656 43.222656 3.800781 43.003906 C 2.527344 42.550781 1.714844 41.875 1.113281 40.664062 C 0.894531 39.988281 0.882812 39.351562 0.886719 38.648438 C 0.886719 38.5 0.886719 38.355469 0.886719 38.203125 C 0.882812 37.707031 0.882812 37.214844 0.882812 36.71875 C 0.882812 36.367188 0.878906 36.011719 0.878906 35.65625 C 0.875 34.695312 0.875 33.734375 0.875 32.773438 C 0.875 32.171875 0.875 31.570312 0.871094 30.96875 C 0.867188 28.871094 0.867188 26.773438 0.867188 24.675781 C 0.867188 22.722656 0.863281 20.765625 0.859375 18.8125 C 0.851562 17.132812 0.851562 15.453125 0.851562 13.777344 C 0.851562 12.773438 0.851562 11.773438 0.847656 10.769531 C 0.84375 9.824219 0.84375 8.882812 0.847656 7.941406 C 0.847656 7.59375 0.847656 7.25 0.84375 6.902344 C 0.839844 6.433594 0.84375 5.957031 0.84375 5.484375 C 0.84375 5.351562 0.839844 5.214844 0.839844 5.074219 C 0.855469 3.902344 1.25 2.945312 2.015625 2.058594 C 2.117188 1.976562 2.222656 1.890625 2.332031 1.804688 C 2.4375 1.71875 2.539062 1.632812 2.648438 1.542969 C 3.585938 0.929688 4.464844 0.882812 5.5625 0.886719 Z M 5.5625 0.886719 "/>
<path style=" stroke:none;fill-rule:nonzero;fill:rgb(26.274511%,26.274511%,26.274511%);fill-opacity:1;" d="M 27.410156 24.1875 C 28.535156 25.246094 29.070312 26.503906 29.132812 28.023438 C 29.144531 28.996094 29.117188 29.964844 29.0625 30.9375 C 29.207031 30.964844 29.351562 30.988281 29.503906 31.019531 C 30.410156 31.214844 31.113281 31.710938 31.703125 32.433594 C 31.945312 32.960938 31.914062 33.402344 31.902344 33.980469 C 31.898438 34.179688 31.894531 34.386719 31.890625 34.59375 C 31.882812 34.75 31.878906 34.902344 31.875 35.0625 C 32.734375 35.0625 33.59375 35.054688 34.453125 35.039062 C 34.695312 35.039062 34.941406 35.039062 35.191406 35.039062 C 35.855469 35.027344 36.472656 35.003906 37.125 34.875 C 37.652344 34.367188 37.652344 34.367188 37.875 33.75 C 38.738281 33.105469 39.394531 32.875 40.472656 32.925781 C 41.527344 33.117188 42.15625 33.851562 42.75 34.6875 C 43.097656 35.382812 43.019531 36.179688 42.9375 36.9375 C 42.523438 37.765625 42.007812 38.285156 41.25 38.8125 C 40.433594 39.085938 39.640625 39.160156 38.824219 38.871094 C 38.179688 38.535156 37.925781 38.363281 37.625 37.671875 C 37.015625 37.007812 36.816406 37.03125 35.945312 36.976562 C 35.476562 36.964844 35.011719 36.960938 34.546875 36.960938 C 34.308594 36.957031 34.070312 36.953125 33.824219 36.949219 C 33.238281 36.941406 32.652344 36.9375 32.0625 36.9375 C 32.0625 37.925781 32.0625 38.917969 32.0625 39.9375 C 32.40625 39.914062 32.75 39.890625 33.105469 39.867188 C 34.199219 39.859375 34.199219 39.859375 34.675781 40.1875 C 34.820312 40.34375 34.820312 40.34375 34.96875 40.5 C 35.386719 40.941406 35.542969 41.054688 36.160156 41.109375 C 36.550781 41.09375 36.941406 41.074219 37.335938 41.054688 C 38.167969 41.066406 38.53125 41.308594 39.1875 41.8125 C 39.820312 42.492188 40.09375 42.980469 40.183594 43.910156 C 40.09375 45.027344 39.703125 45.8125 38.894531 46.582031 C 37.980469 47.167969 37.058594 47.179688 36 47.0625 C 35.066406 46.59375 34.40625 45.9375 33.9375 45 C 33.929688 44.371094 33.949219 43.746094 33.96875 43.121094 C 34 42.539062 34 42.539062 33.5625 42.1875 C 33.066406 42.082031 32.570312 42.046875 32.0625 42 C 32.046875 42.191406 32.03125 42.386719 32.015625 42.585938 C 31.832031 43.542969 31.496094 44.164062 30.707031 44.746094 C 30.085938 45.050781 29.65625 45.074219 28.964844 45.078125 C 28.601562 45.082031 28.601562 45.082031 28.226562 45.089844 C 27.964844 45.089844 27.699219 45.089844 27.433594 45.089844 C 27.164062 45.089844 26.890625 45.089844 26.617188 45.09375 C 26.046875 45.09375 25.472656 45.09375 24.902344 45.09375 C 24.171875 45.09375 23.441406 45.097656 22.710938 45.105469 C 22.148438 45.109375 21.585938 45.109375 21.023438 45.109375 C 20.753906 45.109375 20.484375 45.113281 20.214844 45.117188 C 17.855469 45.140625 17.855469 45.140625 17.003906 44.558594 C 16.328125 43.894531 15.964844 43.355469 15.902344 42.398438 C 15.921875 42.199219 15.921875 42.199219 15.9375 42 C 14.890625 42.039062 14.890625 42.039062 14.0625 42.5625 C 14.054688 42.953125 14.066406 43.34375 14.085938 43.734375 C 14.101562 44.765625 14.050781 45.347656 13.3125 46.125 C 12.367188 46.957031 11.835938 47.117188 10.601562 47.101562 C 9.707031 47.027344 9.183594 46.695312 8.578125 46.054688 C 7.960938 45.128906 7.777344 44.433594 7.875 43.3125 C 8.15625 42.289062 8.566406 41.742188 9.464844 41.21875 C 10.242188 40.960938 11 41.066406 11.804688 41.105469 C 12.589844 41.046875 12.820312 40.738281 13.332031 40.1875 C 14.082031 39.660156 15.066406 39.878906 15.9375 39.9375 C 15.9375 38.949219 15.9375 37.957031 15.9375 36.9375 C 15.113281 36.933594 14.289062 36.9375 13.464844 36.949219 C 13.230469 36.945312 12.996094 36.945312 12.757812 36.941406 C 11.558594 36.917969 11.558594 36.917969 10.523438 37.414062 C 10.238281 37.808594 10.238281 37.808594 9.9375 38.4375 C 9.054688 39.058594 8.175781 39.167969 7.125 39 C 6.128906 38.492188 5.417969 37.820312 5.0625 36.75 C 4.980469 35.066406 4.980469 35.066406 5.4375 34.3125 C 6.1875 33.570312 6.816406 32.980469 7.898438 32.929688 C 8.878906 32.941406 9.59375 33.277344 10.3125 33.9375 C 10.386719 34.09375 10.460938 34.253906 10.539062 34.414062 C 10.835938 34.929688 10.835938 34.929688 11.421875 35 C 11.636719 35.003906 11.855469 35.003906 12.078125 35.007812 C 12.429688 35.015625 12.429688 35.015625 12.789062 35.023438 C 13.160156 35.023438 13.160156 35.023438 13.535156 35.027344 C 13.785156 35.03125 14.035156 35.035156 14.285156 35.042969 C 14.898438 35.054688 15.511719 35.058594 16.125 35.0625 C 16.117188 34.910156 16.113281 34.757812 16.105469 34.601562 C 16.097656 34.300781 16.097656 34.300781 16.085938 33.992188 C 16.078125 33.695312 16.078125 33.695312 16.066406 33.390625 C 16.152344 32.566406 16.507812 32.15625 17.085938 31.59375 C 17.707031 31.097656 18.152344 30.9375 18.9375 30.9375 C 18.929688 30.832031 18.925781 30.722656 18.921875 30.609375 C 18.804688 28.21875 18.71875 26.28125 20.382812 24.382812 C 22.5 22.402344 25.109375 22.742188 27.410156 24.1875 Z M 27.410156 24.1875 "/>
<path style=" stroke:none;fill-rule:nonzero;fill:rgb(74.509805%,77.64706%,77.64706%);fill-opacity:1;" d="M 19.617188 32.925781 C 19.832031 32.925781 20.046875 32.921875 20.269531 32.921875 C 20.617188 32.921875 20.617188 32.921875 20.976562 32.925781 C 21.335938 32.925781 21.335938 32.925781 21.699219 32.921875 C 22.207031 32.921875 22.714844 32.921875 23.21875 32.925781 C 23.871094 32.929688 24.515625 32.925781 25.167969 32.925781 C 25.785156 32.921875 26.40625 32.921875 27.023438 32.925781 C 27.257812 32.921875 27.492188 32.921875 27.730469 32.921875 C 28.054688 32.925781 28.054688 32.925781 28.386719 32.925781 C 28.574219 32.925781 28.765625 32.925781 28.960938 32.929688 C 29.4375 33 29.4375 33 29.78125 33.230469 C 30.0625 33.65625 30.070312 33.917969 30.074219 34.425781 C 30.074219 34.601562 30.078125 34.777344 30.078125 34.957031 C 30.078125 35.144531 30.078125 35.332031 30.074219 35.527344 C 30.074219 35.71875 30.078125 35.914062 30.078125 36.109375 C 30.078125 36.523438 30.078125 36.929688 30.074219 37.339844 C 30.070312 37.96875 30.074219 38.59375 30.078125 39.21875 C 30.078125 39.617188 30.078125 40.015625 30.074219 40.414062 C 30.078125 40.601562 30.078125 40.789062 30.078125 40.980469 C 30.078125 41.246094 30.078125 41.246094 30.074219 41.511719 C 30.074219 41.664062 30.074219 41.820312 30.070312 41.976562 C 30 42.375 30 42.375 29.78125 42.707031 C 29.296875 43.03125 28.945312 43.007812 28.363281 43.011719 C 28.144531 43.011719 27.925781 43.015625 27.695312 43.015625 C 27.457031 43.015625 27.222656 43.011719 26.976562 43.011719 C 26.609375 43.011719 26.609375 43.011719 26.238281 43.015625 C 25.722656 43.015625 25.207031 43.011719 24.691406 43.011719 C 24.027344 43.007812 23.367188 43.007812 22.703125 43.011719 C 22.074219 43.015625 21.441406 43.011719 20.8125 43.011719 C 20.453125 43.015625 20.453125 43.015625 20.089844 43.015625 C 19.871094 43.015625 19.652344 43.011719 19.425781 43.011719 C 19.230469 43.007812 19.035156 43.007812 18.835938 43.007812 C 18.683594 42.984375 18.53125 42.960938 18.375 42.9375 C 17.980469 42.339844 17.953125 42.195312 17.949219 41.511719 C 17.945312 41.335938 17.945312 41.164062 17.941406 40.980469 C 17.941406 40.792969 17.941406 40.605469 17.941406 40.414062 C 17.941406 40.21875 17.941406 40.027344 17.941406 39.824219 C 17.941406 39.417969 17.941406 39.007812 17.941406 38.597656 C 17.941406 37.972656 17.9375 37.34375 17.933594 36.714844 C 17.933594 36.320312 17.933594 35.921875 17.933594 35.527344 C 17.929688 35.335938 17.929688 35.148438 17.925781 34.957031 C 17.929688 34.78125 17.929688 34.605469 17.929688 34.425781 C 17.929688 34.273438 17.929688 34.121094 17.929688 33.960938 C 18 33.5625 18 33.5625 18.222656 33.230469 C 18.695312 32.910156 19.039062 32.929688 19.617188 32.925781 Z M 19.617188 32.925781 "/>
<path style=" stroke:none;fill-rule:nonzero;fill:rgb(96.862745%,97.254902%,97.254902%);fill-opacity:1;" d="M 30.1875 3 C 31.90625 2.988281 33.625 2.976562 35.34375 2.96875 C 36.144531 2.96875 36.941406 2.964844 37.742188 2.957031 C 38.511719 2.953125 39.28125 2.949219 40.054688 2.949219 C 40.347656 2.945312 40.640625 2.945312 40.933594 2.941406 C 41.347656 2.9375 41.761719 2.9375 42.171875 2.9375 C 42.40625 2.933594 42.640625 2.933594 42.882812 2.933594 C 43.5625 3.007812 43.898438 3.144531 44.4375 3.5625 C 45 4.3125 45 4.3125 45 6.9375 C 40.296875 6.9375 35.59375 6.9375 30.75 6.9375 C 30.5625 5.636719 30.378906 4.339844 30.1875 3 Z M 30.1875 3 "/>
<path style=" stroke:none;fill-rule:nonzero;fill:rgb(40.000001%,34.901962%,99.607843%);fill-opacity:1;" d="M 31.242188 11.003906 C 31.597656 11.003906 31.597656 11.003906 31.957031 11.003906 C 32.308594 11 32.308594 11 32.667969 10.996094 C 32.894531 10.996094 33.121094 10.996094 33.351562 10.996094 C 33.558594 10.996094 33.765625 10.992188 33.976562 10.992188 C 34.5 11.0625 34.5 11.0625 34.855469 11.316406 C 35.0625 11.625 35.0625 11.625 35.027344 12.105469 C 34.875 12.5625 34.875 12.5625 34.5 12.9375 C 34.128906 12.980469 34.128906 12.980469 33.683594 12.972656 C 33.523438 12.972656 33.363281 12.972656 33.199219 12.972656 C 32.949219 12.964844 32.949219 12.964844 32.695312 12.960938 C 32.527344 12.960938 32.359375 12.957031 32.1875 12.957031 C 31.769531 12.953125 31.351562 12.945312 30.9375 12.9375 C 30.9375 13.617188 30.9375 14.296875 30.9375 15 C 31.171875 14.992188 31.40625 14.988281 31.648438 14.980469 C 31.957031 14.976562 32.269531 14.96875 32.578125 14.964844 C 32.734375 14.960938 32.886719 14.953125 33.046875 14.949219 C 33.195312 14.949219 33.347656 14.945312 33.5 14.945312 C 33.640625 14.941406 33.777344 14.941406 33.917969 14.9375 C 34.449219 15.023438 34.6875 15.175781 35.0625 15.5625 C 35.160156 16.042969 35.160156 16.042969 35.160156 16.617188 C 35.164062 16.925781 35.164062 16.925781 35.164062 17.242188 C 35.160156 17.457031 35.160156 17.671875 35.15625 17.894531 C 35.160156 18.109375 35.160156 18.324219 35.164062 18.546875 C 35.164062 18.75 35.164062 18.957031 35.160156 19.171875 C 35.160156 19.359375 35.160156 19.546875 35.160156 19.742188 C 35.035156 20.394531 34.851562 20.613281 34.3125 21 C 33.804688 21.09375 33.804688 21.09375 33.234375 21.09375 C 32.925781 21.09375 32.925781 21.09375 32.609375 21.09375 C 32.394531 21.089844 32.179688 21.085938 31.957031 21.082031 C 31.742188 21.082031 31.527344 21.082031 31.304688 21.085938 C 29.722656 21.074219 29.722656 21.074219 29.320312 20.769531 C 28.988281 20.339844 28.992188 20.09375 28.992188 19.554688 C 28.992188 19.375 28.992188 19.195312 28.988281 19.011719 C 28.992188 18.820312 28.992188 18.625 28.996094 18.425781 C 28.996094 18.226562 28.996094 18.03125 28.996094 17.828125 C 28.996094 17.40625 28.996094 16.988281 29 16.570312 C 29.003906 15.925781 29.003906 15.285156 29 14.640625 C 29.003906 14.238281 29.003906 13.828125 29.003906 13.421875 C 29.003906 13.132812 29.003906 13.132812 29.003906 12.835938 C 29.007812 12.660156 29.007812 12.480469 29.011719 12.296875 C 29.011719 12.140625 29.011719 11.984375 29.011719 11.820312 C 29.15625 10.703125 30.386719 11.007812 31.242188 11.003906 Z M 31.242188 11.003906 "/>
<path style=" stroke:none;fill-rule:nonzero;fill:rgb(74.117649%,77.254903%,77.254903%);fill-opacity:1;" d="M 16.3125 3 C 17.792969 2.988281 19.273438 2.976562 20.757812 2.96875 C 21.445312 2.96875 22.132812 2.964844 22.820312 2.957031 C 23.484375 2.953125 24.148438 2.949219 24.8125 2.949219 C 25.1875 2.945312 25.566406 2.941406 25.941406 2.9375 C 26.285156 2.9375 26.285156 2.9375 26.636719 2.9375 C 26.941406 2.933594 26.941406 2.933594 27.246094 2.933594 C 27.75 3 27.75 3 28.09375 3.257812 C 28.394531 3.675781 28.453125 4.039062 28.535156 4.546875 C 28.566406 4.71875 28.59375 4.890625 28.625 5.066406 C 28.695312 5.6875 28.6875 6.3125 28.6875 6.9375 C 24.789062 6.9375 20.890625 6.9375 16.875 6.9375 C 16.3125 3.75 16.3125 3.75 16.3125 3 Z M 16.3125 3 "/>
<path style=" stroke:none;fill-rule:nonzero;fill:rgb(74.117649%,77.254903%,77.254903%);fill-opacity:1;" d="M 5.207031 2.96875 C 5.390625 2.96875 5.578125 2.964844 5.769531 2.964844 C 5.972656 2.964844 6.171875 2.960938 6.378906 2.960938 C 6.585938 2.960938 6.792969 2.960938 7.003906 2.957031 C 7.441406 2.957031 7.878906 2.953125 8.316406 2.953125 C 8.984375 2.953125 9.652344 2.949219 10.324219 2.941406 C 10.746094 2.941406 11.171875 2.941406 11.59375 2.9375 C 11.796875 2.9375 11.996094 2.933594 12.203125 2.933594 C 12.390625 2.933594 12.578125 2.933594 12.769531 2.933594 C 13.015625 2.933594 13.015625 2.933594 13.265625 2.929688 C 13.78125 3.015625 13.941406 3.144531 14.25 3.5625 C 14.378906 4.035156 14.480469 4.488281 14.566406 4.96875 C 14.589844 5.097656 14.617188 5.222656 14.640625 5.351562 C 14.738281 5.890625 14.8125 6.390625 14.8125 6.9375 C 10.914062 6.9375 7.015625 6.9375 3 6.9375 C 3 4.3125 3 4.3125 3.445312 3.597656 C 4.09375 3.058594 4.382812 2.976562 5.207031 2.96875 Z M 5.207031 2.96875 "/>
<path style=" stroke:none;fill-rule:nonzero;fill:rgb(40.392157%,35.294119%,99.607843%);fill-opacity:1;" d="M 21.375 11.0625 C 21.894531 10.992188 21.894531 10.992188 22.546875 10.996094 C 22.78125 10.996094 23.015625 10.996094 23.253906 10.996094 C 23.625 11 23.625 11 24 11.003906 C 24.246094 11.003906 24.492188 11.003906 24.746094 11.003906 C 26.574219 11.011719 26.574219 11.011719 27 11.4375 C 26.890625 12.671875 26.890625 12.671875 26.625 12.9375 C 26.359375 12.953125 26.09375 12.957031 25.828125 12.957031 C 25.667969 12.953125 25.507812 12.953125 25.34375 12.953125 C 25.171875 12.953125 25.003906 12.949219 24.832031 12.949219 C 24.664062 12.949219 24.492188 12.945312 24.320312 12.945312 C 23.902344 12.945312 23.484375 12.941406 23.0625 12.9375 C 23.0625 13.617188 23.0625 14.296875 23.0625 15 C 23.296875 14.996094 23.535156 14.988281 23.78125 14.980469 C 24.09375 14.976562 24.402344 14.96875 24.714844 14.964844 C 24.871094 14.960938 25.027344 14.953125 25.1875 14.953125 C 25.414062 14.949219 25.414062 14.949219 25.644531 14.945312 C 25.78125 14.941406 25.921875 14.941406 26.0625 14.9375 C 26.4375 15 26.4375 15 26.765625 15.214844 C 27.097656 15.707031 27.074219 16.074219 27.074219 16.664062 C 27.074219 16.988281 27.074219 16.988281 27.078125 17.316406 C 27.074219 17.542969 27.074219 17.765625 27.070312 18 C 27.074219 18.226562 27.074219 18.449219 27.078125 18.683594 C 27.078125 18.898438 27.074219 19.113281 27.074219 19.335938 C 27.074219 19.535156 27.074219 19.730469 27.074219 19.933594 C 27 20.4375 27 20.4375 26.78125 20.78125 C 26.292969 21.09375 25.914062 21.074219 25.335938 21.074219 C 25.121094 21.074219 24.90625 21.078125 24.683594 21.078125 C 24.457031 21.074219 24.234375 21.074219 24 21.070312 C 23.773438 21.074219 23.550781 21.074219 23.316406 21.078125 C 22.992188 21.074219 22.992188 21.074219 22.664062 21.074219 C 22.464844 21.074219 22.269531 21.074219 22.066406 21.074219 C 21.5625 21 21.5625 21 21.21875 20.742188 C 20.90625 20.304688 20.921875 20.023438 21 19.5 C 21.292969 19.117188 21.457031 18.957031 21.9375 18.875 C 22.074219 18.878906 22.214844 18.878906 22.355469 18.882812 C 22.503906 18.886719 22.65625 18.886719 22.8125 18.890625 C 22.96875 18.890625 23.125 18.898438 23.285156 18.902344 C 23.523438 18.90625 23.523438 18.90625 23.765625 18.910156 C 24.15625 18.917969 24.546875 18.925781 24.9375 18.9375 C 24.9375 18.320312 24.9375 17.699219 24.9375 17.0625 C 24.582031 17.074219 24.582031 17.074219 24.21875 17.089844 C 23.90625 17.097656 23.597656 17.101562 23.285156 17.109375 C 23.050781 17.117188 23.050781 17.117188 22.8125 17.128906 C 22.585938 17.132812 22.585938 17.132812 22.355469 17.136719 C 22.21875 17.140625 22.078125 17.144531 21.9375 17.148438 C 21.5625 17.0625 21.5625 17.0625 21.234375 16.75 C 20.945312 16.210938 20.929688 15.847656 20.933594 15.234375 C 20.933594 15.027344 20.933594 14.820312 20.933594 14.609375 C 20.933594 14.390625 20.9375 14.179688 20.941406 13.957031 C 20.941406 13.742188 20.941406 13.527344 20.941406 13.304688 C 20.949219 11.699219 20.949219 11.699219 21.375 11.0625 Z M 21.375 11.0625 "/>
<path style=" stroke:none;fill-rule:nonzero;fill:rgb(40.392157%,35.294119%,99.607843%);fill-opacity:1;" d="M 14.632812 11.011719 C 14.855469 11.011719 15.082031 11.011719 15.3125 11.011719 C 15.550781 11.011719 15.789062 11.015625 16.03125 11.015625 C 16.269531 11.015625 16.503906 11.011719 16.746094 11.011719 C 16.976562 11.011719 17.199219 11.011719 17.433594 11.011719 C 17.640625 11.011719 17.847656 11.011719 18.058594 11.015625 C 18.5625 11.0625 18.5625 11.0625 18.9375 11.4375 C 19.023438 12.273438 18.996094 13.117188 18.996094 13.957031 C 19 14.191406 19 14.425781 19.003906 14.667969 C 19.003906 14.894531 19.003906 15.117188 19.003906 15.351562 C 19.007812 15.558594 19.007812 15.765625 19.007812 15.976562 C 18.9375 16.5 18.9375 16.5 18.703125 16.847656 C 18.296875 17.113281 18.0625 17.128906 17.582031 17.117188 C 17.433594 17.117188 17.28125 17.113281 17.125 17.113281 C 16.96875 17.105469 16.8125 17.101562 16.652344 17.097656 C 16.414062 17.09375 16.414062 17.09375 16.171875 17.089844 C 15.78125 17.082031 15.390625 17.074219 15 17.0625 C 15 17.683594 15 18.300781 15 18.9375 C 15.238281 18.929688 15.476562 18.925781 15.71875 18.917969 C 16.03125 18.910156 16.339844 18.90625 16.652344 18.902344 C 16.808594 18.898438 16.964844 18.894531 17.125 18.886719 C 17.351562 18.886719 17.351562 18.886719 17.582031 18.882812 C 17.722656 18.878906 17.859375 18.875 18.003906 18.875 C 18.484375 18.957031 18.644531 19.113281 18.9375 19.5 C 19.007812 20.074219 19.007812 20.074219 18.9375 20.625 C 18.023438 21.234375 17.011719 21.066406 15.9375 21.070312 C 15.601562 21.078125 15.601562 21.078125 15.253906 21.082031 C 15.039062 21.085938 14.824219 21.085938 14.601562 21.085938 C 14.304688 21.089844 14.304688 21.089844 14.003906 21.089844 C 13.5 21 13.5 21 13.15625 20.6875 C 12.886719 20.148438 12.863281 19.769531 12.863281 19.171875 C 12.863281 18.964844 12.859375 18.757812 12.859375 18.542969 C 12.863281 18.222656 12.863281 18.222656 12.867188 17.894531 C 12.863281 17.679688 12.863281 17.460938 12.859375 17.242188 C 12.859375 17.035156 12.863281 16.828125 12.863281 16.617188 C 12.863281 16.425781 12.863281 16.238281 12.863281 16.046875 C 12.9375 15.5625 12.9375 15.5625 13.171875 15.21875 C 13.589844 14.941406 13.835938 14.933594 14.335938 14.945312 C 14.492188 14.945312 14.652344 14.949219 14.816406 14.949219 C 15.0625 14.957031 15.0625 14.957031 15.316406 14.964844 C 15.484375 14.96875 15.652344 14.972656 15.824219 14.972656 C 16.234375 14.976562 16.648438 14.988281 17.0625 15 C 17.0625 14.320312 17.0625 13.640625 17.0625 12.9375 C 16.8125 12.945312 16.5625 12.953125 16.304688 12.957031 C 15.972656 12.960938 15.644531 12.96875 15.316406 12.972656 C 15.152344 12.976562 14.984375 12.980469 14.816406 12.988281 C 14.578125 12.988281 14.578125 12.988281 14.335938 12.992188 C 14.1875 12.996094 14.042969 13 13.890625 13.003906 C 13.398438 12.921875 13.230469 12.773438 12.9375 12.375 C 13.027344 11.164062 13.503906 11.015625 14.632812 11.011719 Z M 14.632812 11.011719 "/>
<path style=" stroke:none;fill-rule:nonzero;fill:rgb(96.470588%,96.862745%,96.862745%);fill-opacity:1;" d="M 24.945312 25.054688 C 25.996094 25.496094 26.558594 26.148438 27 27.1875 C 27.105469 27.851562 27.089844 28.488281 27.058594 29.15625 C 27.039062 29.746094 27.019531 30.332031 27 30.9375 C 25.019531 30.9375 23.039062 30.9375 21 30.9375 C 20.984375 30.347656 20.96875 29.753906 20.953125 29.144531 C 20.945312 28.960938 20.941406 28.777344 20.933594 28.589844 C 20.917969 27.453125 21.074219 26.796875 21.75 25.875 C 22.6875 24.996094 23.6875 24.667969 24.945312 25.054688 Z M 24.945312 25.054688 "/>
<path style=" stroke:none;fill-rule:nonzero;fill:rgb(96.470588%,96.862745%,96.862745%);fill-opacity:1;" d="M 24.75 35.0625 C 25.386719 35.449219 25.855469 35.832031 26.0625 36.5625 C 26.015625 37.207031 25.945312 37.730469 25.664062 38.3125 C 25.449219 38.964844 25.570312 39.339844 25.757812 39.996094 C 25.859375 40.347656 25.960938 40.699219 26.0625 41.0625 C 24.703125 41.0625 23.339844 41.0625 21.9375 41.0625 C 22.097656 40.398438 22.253906 39.730469 22.414062 39.066406 C 22.574219 38.414062 22.574219 38.414062 22.125 37.875 C 21.984375 37.015625 22.011719 36.371094 22.476562 35.625 C 23.164062 34.976562 23.832031 34.933594 24.75 35.0625 Z M 24.75 35.0625 "/>
<path style=" stroke:none;fill-rule:nonzero;fill:rgb(95.294118%,95.686275%,97.647059%);fill-opacity:1;" d="M 30.9375 17.0625 C 31.617188 17.0625 32.296875 17.0625 33 17.0625 C 33 17.679688 33 18.300781 33 18.9375 C 32.320312 18.9375 31.640625 18.9375 30.9375 18.9375 C 30.9375 18.320312 30.9375 17.699219 30.9375 17.0625 Z M 30.9375 17.0625 "/>
<path style=" stroke:none;fill-rule:nonzero;fill:rgb(70.19608%,72.941178%,72.941178%);fill-opacity:1;" d="M 37.136719 42.960938 C 37.6875 43.125 37.6875 43.125 38.0625 43.6875 C 38 44.3125 37.949219 44.550781 37.5 45 C 36.964844 45.070312 36.675781 45.074219 36.222656 44.777344 C 35.917969 44.316406 35.917969 44.039062 36 43.5 C 36.332031 42.945312 36.484375 42.933594 37.136719 42.960938 Z M 37.136719 42.960938 "/>
<path style=" stroke:none;fill-rule:nonzero;fill:rgb(70.19608%,72.941178%,72.941178%);fill-opacity:1;" d="M 11.167969 42.984375 C 11.625 43.125 11.625 43.125 12 43.5 C 12.066406 44.035156 12.074219 44.324219 11.777344 44.777344 C 11.316406 45.082031 11.042969 45.082031 10.5 45 C 10.148438 44.789062 10.148438 44.789062 9.9375 44.4375 C 9.960938 43.863281 9.960938 43.863281 10.125 43.3125 C 10.6875 42.9375 10.6875 42.9375 11.167969 42.984375 Z M 11.167969 42.984375 "/>
<path style=" stroke:none;fill-rule:nonzero;fill:rgb(71.764708%,74.901962%,74.901962%);fill-opacity:1;" d="M 39.375 35.0625 C 39.972656 34.984375 40.34375 34.96875 40.863281 35.285156 C 41.0625 35.625 41.0625 35.625 41.027344 36.105469 C 40.875 36.5625 40.875 36.5625 40.5 36.9375 C 39.820312 36.867188 39.820312 36.867188 39.1875 36.75 C 39.070312 36.222656 39.070312 36.222656 39 35.625 C 39.125 35.4375 39.246094 35.253906 39.375 35.0625 Z M 39.375 35.0625 "/>
<path style=" stroke:none;fill-rule:nonzero;fill:rgb(72.156864%,75.294119%,75.294119%);fill-opacity:1;" d="M 7.5 35.0625 C 8.179688 35.132812 8.179688 35.132812 8.8125 35.25 C 9.0625 36.273438 9.0625 36.273438 8.789062 36.726562 C 8.320312 37.007812 8.039062 37.019531 7.5 36.9375 C 7.148438 36.714844 7.148438 36.714844 6.9375 36.375 C 6.984375 35.75 7.050781 35.511719 7.5 35.0625 Z M 7.5 35.0625 "/>
</g>
</svg>
