<?xml version="1.0" encoding="UTF-8"?>
<svg xmlns="http://www.w3.org/2000/svg" xmlns:xlink="http://www.w3.org/1999/xlink" width="48" height="48" viewBox="0 0 48 48" version="1.1">
<g id="surface1">
<path style=" stroke:none;fill-rule:nonzero;fill:rgb(98.823529%,98.431373%,98.823529%);fill-opacity:1;" d="M 0 0 C 15.839844 0 31.679688 0 48 0 C 48 15.839844 48 31.679688 48 48 C 32.160156 48 16.320312 48 0 48 C 0 32.160156 0 16.320312 0 0 Z M 0 0 "/>
<path style=" stroke:none;fill-rule:nonzero;fill:rgb(95.686275%,73.725492%,11.764706%);fill-opacity:1;" d="M 5.25 4.125 C 17.625 4.125 30 4.125 42.75 4.125 C 42.75 7.777344 42.75 11.425781 42.75 15.1875 C 30.375 15.1875 18 15.1875 5.25 15.1875 C 5.25 11.535156 5.25 7.886719 5.25 4.125 Z M 5.25 4.125 "/>
<path style=" stroke:none;fill-rule:nonzero;fill:rgb(4.313726%,12.941177%,20.784314%);fill-opacity:1;" d="M 0 0 C 15.839844 0 31.679688 0 48 0 C 48 15.839844 48 31.679688 48 48 C 32.160156 48 16.320312 48 0 48 C 0 32.160156 0 16.320312 0 0 Z M 2.8125 1.6875 C 2.8125 16.414062 2.8125 31.140625 2.8125 46.3125 C 16.796875 46.3125 30.78125 46.3125 45.1875 46.3125 C 45.1875 31.585938 45.1875 16.859375 45.1875 1.6875 C 31.203125 1.6875 17.21875 1.6875 2.8125 1.6875 Z M 2.8125 1.6875 "/>
<path style=" stroke:none;fill-rule:nonzero;fill:rgb(70.588237%,74.901962%,81.960785%);fill-opacity:1;" d="M 5.25 18.5625 C 17.625 18.5625 30 18.5625 42.75 18.5625 C 42.75 22.152344 42.75 25.738281 42.75 29.4375 C 30.375 29.4375 18 29.4375 5.25 29.4375 C 5.25 25.847656 5.25 22.261719 5.25 18.5625 Z M 5.25 18.5625 "/>
<path style=" stroke:none;fill-rule:nonzero;fill:rgb(88.627452%,17.254902%,29.411766%);fill-opacity:1;" d="M 25.6875 32.8125 C 31.316406 32.8125 36.949219 32.8125 42.75 32.8125 C 42.75 36.464844 42.75 40.113281 42.75 43.875 C 37.121094 43.875 31.488281 43.875 25.6875 43.875 C 25.6875 40.222656 25.6875 36.574219 25.6875 32.8125 Z M 25.6875 32.8125 "/>
<path style=" stroke:none;fill-rule:nonzero;fill:rgb(4.705882%,15.294118%,26.274511%);fill-opacity:1;" d="M 5.25 32.8125 C 10.878906 32.8125 16.511719 32.8125 22.3125 32.8125 C 22.3125 36.464844 22.3125 40.113281 22.3125 43.875 C 16.683594 43.875 11.050781 43.875 5.25 43.875 C 5.25 40.222656 5.25 36.574219 5.25 32.8125 Z M 5.25 32.8125 "/>
<path style=" stroke:none;fill-rule:nonzero;fill:rgb(0%,0%,0%);fill-opacity:1;" d="M 46.5 0 C 46.996094 0 47.488281 0 48 0 C 48 15.839844 48 31.679688 48 48 C 47.503906 48 47.011719 48 46.5 48 C 46.59375 47.8125 46.59375 47.8125 46.6875 47.625 C 46.703125 47.363281 46.710938 47.105469 46.710938 46.839844 C 46.710938 46.675781 46.710938 46.511719 46.710938 46.34375 C 46.710938 46.160156 46.710938 45.976562 46.710938 45.789062 C 46.710938 45.597656 46.710938 45.402344 46.710938 45.203125 C 46.714844 44.554688 46.710938 43.902344 46.710938 43.25 C 46.710938 42.785156 46.710938 42.320312 46.710938 41.855469 C 46.714844 40.722656 46.714844 39.585938 46.714844 38.453125 C 46.710938 37.53125 46.710938 36.609375 46.710938 35.6875 C 46.710938 35.558594 46.710938 35.425781 46.710938 35.292969 C 46.710938 35.023438 46.710938 34.757812 46.714844 34.492188 C 46.714844 31.996094 46.710938 29.5 46.710938 27 C 46.710938 24.859375 46.710938 22.714844 46.710938 20.570312 C 46.714844 18.082031 46.714844 15.59375 46.710938 13.105469 C 46.710938 12.84375 46.710938 12.578125 46.710938 12.3125 C 46.710938 12.117188 46.710938 12.117188 46.710938 11.914062 C 46.710938 10.996094 46.710938 10.074219 46.714844 9.152344 C 46.714844 7.914062 46.714844 6.675781 46.710938 5.4375 C 46.710938 4.980469 46.710938 4.527344 46.710938 4.070312 C 46.714844 3.449219 46.710938 2.832031 46.710938 2.210938 C 46.710938 2.027344 46.710938 1.847656 46.710938 1.65625 C 46.710938 1.492188 46.710938 1.328125 46.710938 1.160156 C 46.710938 1.015625 46.710938 0.871094 46.710938 0.722656 C 46.707031 0.359375 46.707031 0.359375 46.5 0 Z M 46.5 0 "/>
<path style=" stroke:none;fill-rule:nonzero;fill:rgb(0%,0%,0%);fill-opacity:1;" d="M 0 0 C 0.496094 0 0.988281 0 1.5 0 C 1.4375 0.125 1.375 0.246094 1.3125 0.375 C 1.296875 0.636719 1.289062 0.894531 1.289062 1.160156 C 1.289062 1.324219 1.289062 1.488281 1.289062 1.65625 C 1.289062 1.839844 1.289062 2.023438 1.289062 2.210938 C 1.289062 2.402344 1.289062 2.597656 1.289062 2.796875 C 1.285156 3.445312 1.289062 4.097656 1.289062 4.75 C 1.289062 5.214844 1.289062 5.679688 1.289062 6.144531 C 1.285156 7.277344 1.285156 8.414062 1.285156 9.546875 C 1.289062 10.46875 1.289062 11.390625 1.289062 12.3125 C 1.289062 12.441406 1.289062 12.574219 1.289062 12.707031 C 1.289062 12.976562 1.289062 13.242188 1.285156 13.507812 C 1.285156 16.003906 1.289062 18.5 1.289062 21 C 1.289062 23.140625 1.289062 25.285156 1.289062 27.429688 C 1.285156 29.917969 1.285156 32.40625 1.289062 34.894531 C 1.289062 35.15625 1.289062 35.421875 1.289062 35.6875 C 1.289062 35.816406 1.289062 35.949219 1.289062 36.085938 C 1.289062 37.003906 1.289062 37.925781 1.285156 38.847656 C 1.285156 40.085938 1.285156 41.324219 1.289062 42.5625 C 1.289062 43.019531 1.289062 43.472656 1.289062 43.929688 C 1.285156 44.550781 1.289062 45.167969 1.289062 45.789062 C 1.289062 45.972656 1.289062 46.152344 1.289062 46.34375 C 1.289062 46.507812 1.289062 46.671875 1.289062 46.839844 C 1.289062 46.984375 1.289062 47.128906 1.289062 47.277344 C 1.292969 47.640625 1.292969 47.640625 1.5 48 C 1.003906 48 0.511719 48 0 48 C 0 32.160156 0 16.320312 0 0 Z M 0 0 "/>
</g>
</svg>
