<?xml version="1.0" encoding="UTF-8"?>
<svg xmlns="http://www.w3.org/2000/svg" xmlns:xlink="http://www.w3.org/1999/xlink" width="48" height="48" viewBox="0 0 48 48" version="1.1">
<g id="surface1">
<path style=" stroke:none;fill-rule:nonzero;fill:rgb(81.568629%,1.176471%,31.764707%);fill-opacity:1;" d="M 7.289062 -0.09375 C 7.457031 -0.0976562 7.621094 -0.0976562 7.792969 -0.0976562 C 8.347656 -0.101562 8.898438 -0.0976562 9.453125 -0.0976562 C 9.851562 -0.0976562 10.246094 -0.0976562 10.644531 -0.101562 C 11.722656 -0.105469 12.800781 -0.101562 13.882812 -0.101562 C 15.007812 -0.0976562 16.136719 -0.101562 17.265625 -0.101562 C 19.160156 -0.101562 21.054688 -0.101562 22.953125 -0.0976562 C 25.140625 -0.09375 27.335938 -0.09375 29.527344 -0.0976562 C 31.40625 -0.101562 33.289062 -0.101562 35.167969 -0.101562 C 36.292969 -0.0976562 37.414062 -0.0976562 38.539062 -0.101562 C 39.597656 -0.105469 40.652344 -0.101562 41.710938 -0.0976562 C 42.097656 -0.0976562 42.484375 -0.0976562 42.871094 -0.0976562 C 43.402344 -0.101562 43.929688 -0.0976562 44.460938 -0.09375 C 44.613281 -0.0976562 44.769531 -0.0976562 44.925781 -0.101562 C 45.910156 -0.0859375 46.460938 0.105469 47.25 0.75 C 48.269531 1.90625 48.109375 3.503906 48.101562 4.945312 C 48.101562 5.207031 48.101562 5.46875 48.101562 5.726562 C 48.101562 6.273438 48.101562 6.816406 48.097656 7.359375 C 48.09375 8.054688 48.097656 8.746094 48.101562 9.441406 C 48.101562 9.980469 48.101562 10.515625 48.101562 11.054688 C 48.101562 11.308594 48.101562 11.566406 48.101562 11.820312 C 48.101562 12.179688 48.101562 12.535156 48.097656 12.894531 C 48.097656 13.097656 48.097656 13.300781 48.097656 13.511719 C 47.976562 14.195312 47.738281 14.511719 47.25 15 C 46.71875 15.105469 46.71875 15.105469 46.109375 15.09375 C 45.914062 15.089844 45.71875 15.085938 45.515625 15.085938 C 45.144531 15.070312 45.144531 15.070312 44.765625 15.058594 C 43.976562 15.039062 43.1875 15.019531 42.375 15 C 42.375 18.03125 42.375 21.0625 42.375 24.1875 C 42.683594 24.3125 42.992188 24.433594 43.3125 24.5625 C 43.644531 24.742188 43.96875 24.929688 44.292969 25.121094 C 44.476562 25.226562 44.65625 25.332031 44.84375 25.445312 C 45.03125 25.554688 45.21875 25.667969 45.410156 25.78125 C 45.601562 25.890625 45.789062 26.003906 45.984375 26.117188 C 47.390625 26.953125 47.390625 26.953125 47.8125 27.375 C 48.03125 28.847656 47.398438 29.789062 46.664062 31.03125 C 46.546875 31.238281 46.429688 31.449219 46.3125 31.660156 C 45.738281 32.675781 45.148438 33.636719 44.4375 34.554688 C 42.222656 37.535156 42.296875 40.410156 42.375 44.007812 C 42.378906 44.203125 42.382812 44.398438 42.382812 44.59375 C 42.390625 44.960938 42.40625 45.332031 42.421875 45.699219 C 42.425781 45.863281 42.429688 46.03125 42.433594 46.199219 C 42.445312 46.417969 42.445312 46.417969 42.453125 46.640625 C 42.335938 47.273438 42.085938 47.550781 41.625 48 C 41.089844 48.09375 40.664062 48.125 40.132812 48.117188 C 39.980469 48.117188 39.828125 48.121094 39.671875 48.121094 C 39.160156 48.125 38.652344 48.121094 38.144531 48.117188 C 37.78125 48.117188 37.414062 48.121094 37.050781 48.121094 C 36.058594 48.125 35.070312 48.125 34.078125 48.121094 C 33.042969 48.117188 32.003906 48.117188 30.96875 48.117188 C 29.226562 48.121094 27.488281 48.117188 25.746094 48.109375 C 23.734375 48.105469 21.722656 48.105469 19.707031 48.109375 C 17.773438 48.113281 15.839844 48.109375 13.902344 48.105469 C 13.082031 48.105469 12.253906 48.105469 11.433594 48.105469 C 10.460938 48.109375 9.492188 48.105469 8.523438 48.101562 C 8.164062 48.101562 7.808594 48.101562 7.453125 48.101562 C 6.964844 48.101562 6.480469 48.101562 5.996094 48.097656 C 5.851562 48.097656 5.710938 48.101562 5.566406 48.101562 C 4.9375 48.089844 4.558594 48.042969 4.039062 47.679688 C 3.6875 47.15625 3.664062 46.871094 3.671875 46.238281 C 3.675781 46.035156 3.675781 45.828125 3.679688 45.617188 C 3.683594 45.394531 3.691406 45.171875 3.695312 44.941406 C 3.699219 44.578125 3.703125 44.210938 3.710938 43.847656 C 3.710938 43.460938 3.71875 43.070312 3.726562 42.679688 C 3.742188 41.863281 3.75 41.050781 3.753906 40.234375 C 3.757812 39.953125 3.757812 39.675781 3.757812 39.394531 C 3.757812 39.253906 3.757812 39.117188 3.761719 38.972656 C 3.773438 37.074219 3.792969 35.179688 3.828125 33.28125 C 3.851562 32 3.863281 30.722656 3.863281 29.441406 C 3.863281 28.765625 3.871094 28.085938 3.890625 27.410156 C 4.101562 24.714844 4.101562 24.714844 3.261719 22.28125 C 2.546875 21.648438 1.769531 21.292969 0.886719 20.960938 C 0.429688 20.753906 0.21875 20.507812 0 20.0625 C 0.0273438 19.050781 0.34375 18.359375 0.851562 17.492188 C 0.914062 17.378906 0.980469 17.265625 1.046875 17.148438 C 1.253906 16.789062 1.464844 16.433594 1.675781 16.078125 C 1.816406 15.835938 1.957031 15.59375 2.097656 15.351562 C 3.074219 13.671875 3.074219 13.671875 3.5625 12.9375 C 3.617188 12.441406 3.617188 12.441406 3.609375 11.875 C 3.613281 11.546875 3.613281 11.546875 3.617188 11.214844 C 3.613281 10.980469 3.613281 10.742188 3.613281 10.503906 C 3.617188 10.132812 3.617188 9.761719 3.621094 9.390625 C 3.628906 8.480469 3.632812 7.566406 3.632812 6.65625 C 3.632812 6.144531 3.636719 5.632812 3.640625 5.121094 C 3.648438 4.640625 3.648438 4.15625 3.644531 3.675781 C 3.667969 1.605469 3.667969 1.605469 4.5 0.75 C 5.445312 -0.0234375 6.117188 -0.109375 7.289062 -0.09375 Z M 7.289062 -0.09375 "/>
<path style=" stroke:none;fill-rule:nonzero;fill:rgb(99.607843%,95.686275%,95.686275%);fill-opacity:1;" d="M 3.75 22.6875 C 4.429688 22.839844 4.945312 23.101562 5.550781 23.449219 C 5.863281 23.628906 5.863281 23.628906 6.183594 23.8125 C 6.414062 23.949219 6.640625 24.078125 6.867188 24.210938 C 7.105469 24.347656 7.339844 24.484375 7.578125 24.617188 C 8.183594 24.96875 8.792969 25.320312 9.398438 25.671875 C 9.9375 25.980469 10.472656 26.292969 11.011719 26.601562 C 11.808594 27.058594 12.605469 27.519531 13.402344 27.980469 C 14.152344 28.414062 14.90625 28.847656 15.65625 29.277344 C 16.113281 29.535156 16.570312 29.796875 17.023438 30.058594 C 17.347656 30.242188 17.671875 30.425781 18 30.609375 C 18.191406 30.722656 18.386719 30.832031 18.585938 30.945312 C 18.757812 31.042969 18.933594 31.144531 19.109375 31.242188 C 19.5 31.5 19.5 31.5 19.6875 31.875 C 19.511719 31.875 19.511719 31.875 19.335938 31.875 C 18.132812 31.882812 16.925781 31.898438 15.722656 31.914062 C 15.273438 31.921875 14.824219 31.921875 14.375 31.925781 C 13.730469 31.929688 13.082031 31.9375 12.4375 31.949219 C 12.136719 31.949219 12.136719 31.949219 11.828125 31.949219 C 11.640625 31.953125 11.453125 31.957031 11.257812 31.960938 C 11.09375 31.960938 10.929688 31.964844 10.757812 31.964844 C 10.160156 32.097656 9.929688 32.332031 9.5625 32.8125 C 9.546875 33.492188 9.546875 33.492188 9.75 34.125 C 10.453125 34.59375 10.792969 34.535156 11.636719 34.511719 C 11.914062 34.503906 12.191406 34.5 12.46875 34.496094 C 12.617188 34.492188 12.765625 34.488281 12.921875 34.484375 C 13.714844 34.464844 14.507812 34.460938 15.304688 34.453125 C 16.3125 34.445312 17.316406 34.433594 18.324219 34.402344 C 22.820312 34.273438 25.910156 34.644531 29.625 37.300781 C 30.5625 37.949219 31.554688 38.496094 32.542969 39.058594 C 33.605469 39.675781 34.664062 40.296875 35.714844 40.933594 C 35.875 41.03125 36.035156 41.128906 36.203125 41.226562 C 36.503906 41.40625 36.800781 41.589844 37.097656 41.773438 C 37.933594 42.277344 38.558594 42.5625 39.5625 42.375 C 40.3125 41.679688 40.78125 40.671875 41.285156 39.785156 C 41.449219 39.496094 41.617188 39.203125 41.785156 38.914062 C 41.859375 38.785156 41.929688 38.660156 42.003906 38.527344 C 42.066406 38.4375 42.125 38.34375 42.1875 38.25 C 42.25 38.25 42.3125 38.25 42.375 38.25 C 42.394531 39.488281 42.40625 40.726562 42.417969 41.964844 C 42.421875 42.382812 42.425781 42.804688 42.429688 43.226562 C 42.441406 43.832031 42.445312 44.4375 42.449219 45.042969 C 42.453125 45.230469 42.457031 45.417969 42.460938 45.613281 C 42.460938 45.789062 42.460938 45.964844 42.460938 46.148438 C 42.460938 46.300781 42.464844 46.457031 42.464844 46.613281 C 42.335938 47.257812 42.097656 47.542969 41.625 48 C 41.089844 48.09375 40.664062 48.125 40.128906 48.117188 C 39.980469 48.121094 39.828125 48.121094 39.671875 48.121094 C 39.160156 48.125 38.652344 48.121094 38.144531 48.117188 C 37.78125 48.121094 37.414062 48.121094 37.050781 48.121094 C 36.058594 48.125 35.066406 48.125 34.078125 48.121094 C 33.042969 48.117188 32.003906 48.117188 30.96875 48.121094 C 29.226562 48.121094 27.488281 48.117188 25.746094 48.113281 C 23.734375 48.105469 21.722656 48.105469 19.710938 48.109375 C 17.773438 48.113281 15.839844 48.109375 13.90625 48.105469 C 13.078125 48.105469 12.253906 48.105469 11.433594 48.109375 C 10.460938 48.109375 9.492188 48.105469 8.523438 48.101562 C 8.164062 48.101562 7.808594 48.101562 7.453125 48.101562 C 6.964844 48.101562 6.480469 48.101562 5.996094 48.09375 C 5.851562 48.097656 5.710938 48.097656 5.566406 48.101562 C 4.9375 48.09375 4.558594 48.042969 4.035156 47.683594 C 3.6875 47.15625 3.65625 46.859375 3.660156 46.226562 C 3.65625 46.019531 3.65625 45.8125 3.65625 45.597656 C 3.660156 45.371094 3.660156 45.144531 3.664062 44.910156 C 3.664062 44.671875 3.664062 44.429688 3.664062 44.183594 C 3.664062 43.527344 3.667969 42.871094 3.671875 42.214844 C 3.679688 41.527344 3.679688 40.839844 3.679688 40.15625 C 3.683594 38.855469 3.6875 37.554688 3.695312 36.257812 C 3.703125 34.777344 3.707031 33.296875 3.710938 31.816406 C 3.71875 28.773438 3.734375 25.730469 3.75 22.6875 Z M 3.75 22.6875 "/>
<path style=" stroke:none;fill-rule:nonzero;fill:rgb(87.450981%,86.666667%,95.686275%);fill-opacity:1;" d="M 7.289062 -0.09375 C 7.457031 -0.0976562 7.621094 -0.0976562 7.792969 -0.0976562 C 8.347656 -0.101562 8.898438 -0.0976562 9.453125 -0.0976562 C 9.851562 -0.0976562 10.246094 -0.0976562 10.644531 -0.101562 C 11.722656 -0.105469 12.800781 -0.101562 13.882812 -0.101562 C 15.007812 -0.0976562 16.136719 -0.101562 17.265625 -0.101562 C 19.160156 -0.101562 21.054688 -0.101562 22.953125 -0.0976562 C 25.140625 -0.09375 27.335938 -0.09375 29.527344 -0.0976562 C 31.40625 -0.101562 33.289062 -0.101562 35.167969 -0.101562 C 36.292969 -0.0976562 37.414062 -0.0976562 38.539062 -0.101562 C 39.597656 -0.105469 40.652344 -0.101562 41.710938 -0.0976562 C 42.097656 -0.0976562 42.484375 -0.0976562 42.871094 -0.0976562 C 43.402344 -0.101562 43.929688 -0.0976562 44.460938 -0.09375 C 44.613281 -0.0976562 44.769531 -0.0976562 44.925781 -0.101562 C 45.910156 -0.0859375 46.460938 0.105469 47.25 0.75 C 48.269531 1.90625 48.109375 3.503906 48.101562 4.945312 C 48.101562 5.207031 48.101562 5.46875 48.101562 5.726562 C 48.101562 6.273438 48.101562 6.816406 48.097656 7.359375 C 48.09375 8.054688 48.097656 8.746094 48.101562 9.441406 C 48.101562 9.980469 48.101562 10.515625 48.101562 11.054688 C 48.101562 11.308594 48.101562 11.566406 48.101562 11.820312 C 48.101562 12.179688 48.101562 12.535156 48.097656 12.894531 C 48.097656 13.097656 48.097656 13.300781 48.097656 13.511719 C 47.976562 14.195312 47.738281 14.511719 47.25 15 C 46.71875 15.105469 46.71875 15.105469 46.109375 15.09375 C 45.914062 15.089844 45.71875 15.085938 45.515625 15.085938 C 45.144531 15.070312 45.144531 15.070312 44.765625 15.058594 C 43.976562 15.039062 43.1875 15.019531 42.375 15 C 42.375 18.03125 42.375 21.0625 42.375 24.1875 C 40.269531 23.132812 40.269531 23.132812 39.519531 22.691406 C 39.347656 22.589844 39.175781 22.488281 39.003906 22.386719 C 38.824219 22.28125 38.644531 22.175781 38.460938 22.066406 C 36.734375 21.050781 35 20.046875 33.257812 19.054688 C 33.046875 18.933594 32.835938 18.8125 32.621094 18.691406 C 32.210938 18.457031 31.796875 18.222656 31.386719 17.988281 C 30.296875 17.367188 29.210938 16.746094 28.125 16.125 C 28.125 16.0625 28.125 16 28.125 15.9375 C 28.355469 15.933594 28.585938 15.929688 28.820312 15.921875 C 29.675781 15.90625 30.527344 15.886719 31.378906 15.867188 C 31.746094 15.859375 32.117188 15.851562 32.488281 15.84375 C 33.015625 15.832031 33.546875 15.820312 34.078125 15.808594 C 34.242188 15.804688 34.40625 15.804688 34.578125 15.800781 C 34.730469 15.796875 34.882812 15.792969 35.042969 15.789062 C 35.179688 15.785156 35.3125 15.78125 35.453125 15.78125 C 35.855469 15.761719 35.855469 15.761719 36.375 15.5625 C 36.375 14.882812 36.375 14.203125 36.375 13.5 C 35.746094 13.289062 35.296875 13.300781 34.632812 13.316406 C 34.265625 13.320312 34.265625 13.320312 33.890625 13.328125 C 33.761719 13.332031 33.628906 13.335938 33.496094 13.335938 C 32.640625 13.355469 31.789062 13.355469 30.941406 13.359375 C 30.195312 13.363281 29.453125 13.371094 28.710938 13.394531 C 24.664062 13.496094 21.617188 13.230469 18.375 10.5 C 18.375 10.4375 18.375 10.375 18.375 10.3125 C 18.59375 10.3125 18.808594 10.308594 19.035156 10.308594 C 21.078125 10.289062 23.121094 10.269531 25.167969 10.25 C 26.21875 10.238281 27.269531 10.226562 28.320312 10.21875 C 29.335938 10.210938 30.347656 10.199219 31.363281 10.1875 C 31.75 10.183594 32.136719 10.183594 32.523438 10.179688 C 33.066406 10.175781 33.605469 10.167969 34.148438 10.164062 C 34.308594 10.164062 34.46875 10.160156 34.636719 10.160156 C 35.261719 10.152344 35.777344 10.136719 36.375 9.9375 C 36.375 9.257812 36.375 8.578125 36.375 7.875 C 35.824219 7.691406 35.480469 7.667969 34.90625 7.671875 C 34.722656 7.671875 34.535156 7.675781 34.34375 7.675781 C 34.136719 7.675781 33.933594 7.679688 33.722656 7.683594 C 33.277344 7.683594 32.828125 7.6875 32.382812 7.691406 C 32.023438 7.695312 32.023438 7.695312 31.660156 7.695312 C 30.914062 7.699219 30.167969 7.703125 29.421875 7.703125 C 29.296875 7.703125 29.167969 7.703125 29.039062 7.703125 C 28.519531 7.703125 27.996094 7.703125 27.476562 7.703125 C 26.003906 7.707031 24.527344 7.710938 23.054688 7.726562 C 21.882812 7.738281 20.714844 7.742188 19.542969 7.738281 C 18.921875 7.734375 18.304688 7.738281 17.683594 7.746094 C 14.765625 7.789062 12.6875 7.601562 10.265625 5.878906 C 9.640625 5.445312 9.214844 5.3125 8.4375 5.4375 C 8.117188 5.660156 8.117188 5.660156 7.902344 6.019531 C 7.761719 6.226562 7.761719 6.226562 7.621094 6.433594 C 6.980469 7.484375 6.375 8.546875 5.777344 9.621094 C 5.578125 9.980469 5.378906 10.339844 5.175781 10.695312 C 4.992188 11.019531 4.8125 11.34375 4.632812 11.664062 C 4.363281 12.105469 4.121094 12.398438 3.75 12.75 C 3.734375 11.351562 3.71875 9.953125 3.710938 8.554688 C 3.707031 7.90625 3.703125 7.253906 3.695312 6.605469 C 3.683594 5.859375 3.679688 5.113281 3.675781 4.363281 C 3.671875 4.132812 3.667969 3.898438 3.664062 3.660156 C 3.664062 1.609375 3.664062 1.609375 4.5 0.75 C 5.445312 -0.0234375 6.117188 -0.109375 7.289062 -0.09375 Z M 7.289062 -0.09375 "/>
<path style=" stroke:none;fill-rule:nonzero;fill:rgb(99.607843%,25.882354%,36.470589%);fill-opacity:1;" d="M 9.375 8.625 C 10.03125 8.753906 10.535156 9.011719 11.109375 9.339844 C 11.304688 9.449219 11.496094 9.554688 11.695312 9.667969 C 11.902344 9.785156 12.105469 9.898438 12.316406 10.019531 C 12.527344 10.140625 12.742188 10.257812 12.960938 10.382812 C 14.234375 11.105469 15.503906 11.835938 16.761719 12.582031 C 17.964844 13.296875 19.175781 13.996094 20.390625 14.695312 C 20.597656 14.8125 20.804688 14.933594 21.015625 15.054688 C 22.027344 15.640625 23.035156 16.21875 24.050781 16.792969 C 24.234375 16.894531 24.414062 17 24.601562 17.105469 C 24.941406 17.296875 25.285156 17.492188 25.628906 17.683594 C 25.78125 17.769531 25.929688 17.859375 26.085938 17.945312 C 26.21875 18.019531 26.347656 18.09375 26.484375 18.171875 C 26.8125 18.375 26.8125 18.375 27.1875 18.75 C 27.0625 18.75 26.941406 18.75 26.8125 18.75 C 26.757812 18.886719 26.703125 19.019531 26.648438 19.160156 C 26.453125 19.648438 26.257812 20.136719 26.0625 20.625 C 26.34375 20.71875 26.34375 20.71875 26.625 20.8125 C 26.824219 22.351562 26.148438 23.324219 25.359375 24.609375 C 25.242188 24.8125 25.121094 25.011719 25 25.21875 C 23.941406 26.988281 23.941406 26.988281 23.25 27.5625 C 22.546875 27.609375 22.546875 27.609375 21.9375 27.5625 C 21.628906 28.179688 21.320312 28.800781 21 29.4375 C 20.765625 29.277344 20.53125 29.117188 20.292969 28.953125 C 19.273438 28.273438 18.214844 27.683594 17.144531 27.09375 C 15.363281 26.105469 13.59375 25.09375 11.835938 24.0625 C 10.832031 23.476562 9.828125 22.890625 8.816406 22.3125 C 8.710938 22.25 8.597656 22.1875 8.484375 22.121094 C 7.960938 21.820312 7.429688 21.515625 6.902344 21.214844 C 5.761719 20.558594 4.648438 19.875 3.5625 19.125 C 3.8125 18.460938 4.109375 17.847656 4.457031 17.230469 C 4.558594 17.042969 4.664062 16.859375 4.769531 16.667969 C 4.882812 16.46875 4.996094 16.269531 5.109375 16.066406 C 5.222656 15.863281 5.339844 15.65625 5.457031 15.445312 C 6.605469 13.410156 7.78125 11.394531 8.964844 9.378906 C 9.109375 9.132812 9.246094 8.882812 9.375 8.625 Z M 9.375 8.625 "/>
<path style=" stroke:none;fill-rule:nonzero;fill:rgb(99.607843%,41.960785%,41.960785%);fill-opacity:1;" d="M 8.917969 5.175781 C 9.691406 5.265625 10.035156 5.53125 10.660156 5.972656 C 13.121094 7.679688 15.507812 7.585938 18.410156 7.527344 C 18.910156 7.527344 19.414062 7.527344 19.914062 7.527344 C 21.089844 7.527344 22.265625 7.515625 23.445312 7.5 C 25.558594 7.476562 27.671875 7.46875 29.785156 7.460938 C 30.640625 7.460938 31.5 7.449219 32.359375 7.441406 C 32.808594 7.4375 33.253906 7.433594 33.699219 7.429688 C 34.007812 7.425781 34.007812 7.425781 34.320312 7.417969 C 35.6875 7.414062 35.6875 7.414062 36.3125 7.839844 C 36.679688 8.445312 36.664062 8.867188 36.5625 9.5625 C 36.285156 9.972656 36.285156 9.972656 35.8125 10.3125 C 35.238281 10.386719 34.734375 10.417969 34.160156 10.414062 C 33.996094 10.417969 33.828125 10.417969 33.65625 10.421875 C 33.105469 10.425781 32.554688 10.425781 32.007812 10.425781 C 31.625 10.429688 31.242188 10.433594 30.863281 10.4375 C 29.859375 10.445312 28.855469 10.445312 27.851562 10.449219 C 26.828125 10.453125 25.804688 10.460938 24.777344 10.46875 C 22.769531 10.484375 20.757812 10.492188 18.75 10.5 C 22.066406 13.183594 25.054688 13.261719 29.113281 13.148438 C 30.289062 13.117188 31.464844 13.109375 32.640625 13.101562 C 33.046875 13.097656 33.453125 13.085938 33.863281 13.074219 C 34.105469 13.070312 34.351562 13.066406 34.605469 13.0625 C 34.820312 13.054688 35.039062 13.050781 35.257812 13.042969 C 35.8125 13.125 35.8125 13.125 36.257812 13.460938 C 36.699219 14.0625 36.667969 14.460938 36.5625 15.1875 C 36.253906 15.644531 36.011719 15.894531 35.460938 16.007812 C 35.019531 16.042969 34.582031 16.050781 34.140625 16.050781 C 33.976562 16.054688 33.816406 16.058594 33.652344 16.0625 C 33.136719 16.070312 32.625 16.074219 32.109375 16.078125 C 31.757812 16.082031 31.410156 16.089844 31.0625 16.09375 C 30.210938 16.109375 29.355469 16.117188 28.5 16.125 C 27.851562 17.332031 27.851562 17.332031 27.1875 18.5625 C 26.363281 18.285156 25.785156 18.058594 25.058594 17.632812 C 24.867188 17.523438 24.675781 17.414062 24.480469 17.296875 C 24.171875 17.117188 24.171875 17.117188 23.859375 16.933594 C 23.644531 16.808594 23.425781 16.679688 23.207031 16.554688 C 22.757812 16.292969 22.308594 16.027344 21.859375 15.765625 C 20.824219 15.164062 19.785156 14.566406 18.75 13.96875 C 17.609375 13.308594 16.46875 12.652344 15.328125 11.992188 C 14.996094 11.800781 14.667969 11.609375 14.335938 11.421875 C 13.925781 11.183594 13.515625 10.945312 13.101562 10.707031 C 11.871094 9.992188 10.628906 9.300781 9.375 8.625 C 9.335938 8.769531 9.300781 8.910156 9.261719 9.058594 C 8.890625 10.035156 8.363281 10.894531 7.828125 11.789062 C 7.710938 11.984375 7.597656 12.179688 7.480469 12.378906 C 6.863281 13.433594 6.238281 14.480469 5.609375 15.527344 C 5.488281 15.730469 5.367188 15.933594 5.242188 16.144531 C 5.007812 16.539062 4.773438 16.933594 4.535156 17.328125 C 4.429688 17.507812 4.324219 17.683594 4.214844 17.867188 C 4.117188 18.027344 4.023438 18.183594 3.925781 18.34375 C 3.6875 18.769531 3.6875 18.769531 3.9375 19.3125 C 4.292969 19.574219 4.292969 19.574219 4.742188 19.808594 C 4.996094 19.949219 4.996094 19.949219 5.257812 20.09375 C 5.539062 20.246094 5.539062 20.246094 5.824219 20.402344 C 6.222656 20.621094 6.621094 20.84375 7.015625 21.066406 C 7.222656 21.179688 7.429688 21.292969 7.640625 21.410156 C 8.582031 21.933594 9.511719 22.480469 10.441406 23.027344 C 12.113281 24.007812 13.796875 24.976562 15.480469 25.933594 C 17.273438 26.953125 19.054688 27.984375 20.8125 29.0625 C 20.515625 29.992188 20.132812 30.824219 19.6875 31.6875 C 18.347656 31.039062 17.054688 30.324219 15.773438 29.566406 C 13.957031 28.5 12.136719 27.453125 10.304688 26.410156 C 8.6875 25.492188 7.082031 24.550781 5.496094 23.570312 C 4.683594 23.074219 3.878906 22.679688 3 22.3125 C 2.574219 22.074219 2.152344 21.828125 1.734375 21.574219 C 1.421875 21.386719 1.421875 21.386719 1.105469 21.195312 C 0.257812 20.597656 0.257812 20.597656 0 20.0625 C 0.0703125 19.070312 0.324219 18.386719 0.820312 17.53125 C 0.886719 17.421875 0.949219 17.3125 1.015625 17.195312 C 1.21875 16.847656 1.425781 16.496094 1.628906 16.148438 C 1.761719 15.917969 1.898438 15.683594 2.03125 15.449219 C 2.582031 14.496094 3.140625 13.554688 3.761719 12.644531 C 4.617188 11.386719 5.335938 10.042969 6.082031 8.71875 C 8.019531 5.316406 8.019531 5.316406 8.917969 5.175781 Z M 8.917969 5.175781 "/>
<path style=" stroke:none;fill-rule:nonzero;fill:rgb(99.607843%,25.098041%,36.078432%);fill-opacity:1;" d="M 28.3125 16.3125 C 29.027344 16.421875 29.535156 16.625 30.152344 16.992188 C 30.328125 17.097656 30.503906 17.203125 30.683594 17.304688 C 30.964844 17.476562 30.964844 17.476562 31.253906 17.648438 C 31.660156 17.890625 32.066406 18.128906 32.472656 18.367188 C 32.679688 18.492188 32.890625 18.617188 33.109375 18.746094 C 34.148438 19.359375 35.199219 19.964844 36.246094 20.566406 C 36.65625 20.800781 37.0625 21.035156 37.46875 21.273438 C 37.664062 21.382812 37.859375 21.496094 38.058594 21.609375 C 38.589844 21.917969 39.121094 22.226562 39.652344 22.535156 C 41.4375 23.574219 41.4375 23.574219 43.242188 24.574219 C 44.15625 25.066406 45.050781 25.585938 45.949219 26.109375 C 46.089844 26.191406 46.230469 26.273438 46.375 26.355469 C 46.574219 26.476562 46.574219 26.476562 46.777344 26.59375 C 46.894531 26.664062 47.015625 26.730469 47.136719 26.804688 C 47.4375 27 47.4375 27 47.8125 27.375 C 48.03125 28.839844 47.410156 29.78125 46.675781 31.019531 C 46.558594 31.222656 46.441406 31.425781 46.320312 31.640625 C 45.945312 32.28125 45.566406 32.921875 45.1875 33.5625 C 45.066406 33.765625 44.949219 33.96875 44.824219 34.175781 C 44.125 35.351562 43.421875 36.523438 42.710938 37.691406 C 42.378906 38.246094 42.046875 38.800781 41.71875 39.359375 C 41.613281 39.53125 41.511719 39.703125 41.40625 39.882812 C 41.214844 40.207031 41.019531 40.53125 40.832031 40.855469 C 40.746094 41 40.660156 41.140625 40.574219 41.289062 C 40.5 41.414062 40.425781 41.539062 40.351562 41.667969 C 39.953125 42.253906 39.722656 42.53125 39.007812 42.675781 C 37.898438 42.621094 36.957031 41.894531 36.035156 41.332031 C 35.820312 41.203125 35.605469 41.074219 35.390625 40.949219 C 34.941406 40.683594 34.496094 40.417969 34.046875 40.148438 C 32.992188 39.519531 31.921875 38.910156 30.855469 38.296875 C 30.484375 38.082031 30.113281 37.871094 29.742188 37.65625 C 29.542969 37.546875 29.347656 37.4375 29.144531 37.324219 C 28.667969 37.054688 28.25 36.746094 27.824219 36.398438 C 24.914062 34.203125 21.433594 34.628906 17.96875 34.699219 C 16.628906 34.726562 15.289062 34.738281 13.949219 34.742188 C 13.488281 34.746094 13.023438 34.757812 12.558594 34.769531 C 12.273438 34.773438 11.988281 34.777344 11.707031 34.777344 C 11.335938 34.785156 11.335938 34.785156 10.957031 34.792969 C 10.144531 34.660156 9.867188 34.402344 9.375 33.75 C 9.363281 33.070312 9.363281 33.070312 9.5625 32.4375 C 10.117188 31.90625 10.5 31.804688 11.257812 31.8125 C 11.445312 31.8125 11.632812 31.8125 11.828125 31.8125 C 12.128906 31.816406 12.128906 31.816406 12.4375 31.820312 C 12.644531 31.820312 12.851562 31.824219 13.0625 31.824219 C 13.726562 31.828125 14.386719 31.832031 15.046875 31.839844 C 15.496094 31.84375 15.941406 31.84375 16.390625 31.847656 C 17.488281 31.855469 18.589844 31.863281 19.6875 31.875 C 19.714844 31.695312 19.742188 31.519531 19.773438 31.335938 C 19.910156 30.550781 20.183594 30.101562 20.625 29.4375 C 21.1875 29.25 21.1875 29.25 21.660156 29.460938 C 21.847656 29.574219 22.039062 29.683594 22.230469 29.796875 C 22.445312 29.917969 22.65625 30.042969 22.875 30.167969 C 23.105469 30.300781 23.335938 30.4375 23.566406 30.574219 C 23.804688 30.710938 24.042969 30.851562 24.28125 30.988281 C 24.890625 31.34375 25.492188 31.695312 26.097656 32.050781 C 26.597656 32.34375 27.097656 32.636719 27.601562 32.929688 C 28.144531 33.246094 28.6875 33.5625 29.230469 33.878906 C 30.9375 34.878906 32.660156 35.863281 34.386719 36.84375 C 35.503906 37.480469 36.609375 38.125 37.703125 38.804688 C 38.050781 39.03125 38.050781 39.03125 38.4375 39 C 38.515625 38.867188 38.589844 38.734375 38.667969 38.59375 C 40.519531 35.347656 42.378906 32.109375 44.25 28.875 C 43.609375 28.339844 42.96875 27.902344 42.242188 27.496094 C 42.035156 27.375 41.824219 27.257812 41.613281 27.136719 C 41.445312 27.042969 41.445312 27.042969 41.277344 26.949219 C 40.804688 26.683594 40.335938 26.414062 39.867188 26.148438 C 39.621094 26.011719 39.378906 25.875 39.136719 25.734375 C 37.957031 25.066406 36.777344 24.386719 35.601562 23.707031 C 35.203125 23.476562 34.804688 23.246094 34.40625 23.015625 C 34.210938 22.902344 34.011719 22.789062 33.808594 22.671875 C 33.265625 22.359375 32.722656 22.042969 32.179688 21.734375 C 31.734375 21.476562 31.285156 21.21875 30.839844 20.960938 C 30.523438 20.78125 30.210938 20.601562 29.898438 20.421875 C 28.972656 19.890625 28.0625 19.359375 27.1875 18.75 C 27.277344 17.785156 27.785156 17.097656 28.3125 16.3125 Z M 28.3125 16.3125 "/>
<path style=" stroke:none;fill-rule:nonzero;fill:rgb(87.450981%,86.666667%,95.686275%);fill-opacity:1;" d="M 23.0625 34.6875 C 25.171875 34.6875 25.171875 34.6875 26.109375 35.25 C 26.320312 35.375 26.527344 35.496094 26.742188 35.621094 C 26.960938 35.753906 27.179688 35.890625 27.398438 36.023438 C 27.628906 36.160156 27.859375 36.296875 28.09375 36.433594 C 28.566406 36.714844 29.035156 36.996094 29.503906 37.277344 C 30.511719 37.882812 31.527344 38.46875 32.542969 39.058594 C 33.605469 39.675781 34.664062 40.296875 35.714844 40.933594 C 35.875 41.03125 36.035156 41.128906 36.203125 41.226562 C 36.503906 41.40625 36.800781 41.589844 37.097656 41.773438 C 37.933594 42.277344 38.558594 42.5625 39.5625 42.375 C 40.3125 41.679688 40.78125 40.671875 41.285156 39.785156 C 41.449219 39.496094 41.617188 39.203125 41.785156 38.914062 C 41.859375 38.785156 41.929688 38.660156 42.003906 38.527344 C 42.09375 38.390625 42.09375 38.390625 42.1875 38.25 C 42.25 38.25 42.3125 38.25 42.375 38.25 C 42.394531 39.488281 42.40625 40.726562 42.417969 41.964844 C 42.421875 42.382812 42.425781 42.804688 42.429688 43.226562 C 42.441406 43.832031 42.445312 44.4375 42.449219 45.042969 C 42.453125 45.230469 42.457031 45.417969 42.460938 45.613281 C 42.460938 45.878906 42.460938 45.878906 42.460938 46.148438 C 42.460938 46.300781 42.464844 46.457031 42.464844 46.613281 C 42.332031 47.277344 42.140625 47.554688 41.625 48 C 41.027344 48.136719 40.445312 48.117188 39.835938 48.105469 C 39.5625 48.105469 39.5625 48.105469 39.285156 48.105469 C 38.6875 48.105469 38.089844 48.097656 37.492188 48.09375 C 37.078125 48.089844 36.660156 48.089844 36.246094 48.089844 C 35.152344 48.085938 34.0625 48.074219 32.96875 48.0625 C 31.65625 48.050781 30.347656 48.046875 29.035156 48.042969 C 27.046875 48.035156 25.054688 48.015625 23.0625 48 C 23.0625 43.605469 23.0625 39.214844 23.0625 34.6875 Z M 23.0625 34.6875 "/>
<path style=" stroke:none;fill-rule:nonzero;fill:rgb(100%,95.686275%,95.686275%);fill-opacity:1;" d="M 7.351562 -0.0859375 C 7.523438 -0.0859375 7.695312 -0.0859375 7.867188 -0.0859375 C 8.429688 -0.0859375 8.988281 -0.078125 9.550781 -0.0742188 C 9.9375 -0.0703125 10.328125 -0.0703125 10.71875 -0.0703125 C 11.742188 -0.0664062 12.761719 -0.0585938 13.785156 -0.0507812 C 14.832031 -0.0429688 15.875 -0.0390625 16.917969 -0.0351562 C 18.96875 -0.0273438 21.015625 -0.015625 23.0625 0 C 23.0625 2.472656 23.0625 4.949219 23.0625 7.5 C 21.710938 7.546875 20.363281 7.589844 19.011719 7.613281 C 18.554688 7.621094 18.097656 7.636719 17.640625 7.65625 C 14.722656 7.765625 12.6875 7.601562 10.269531 5.886719 C 9.769531 5.539062 9.554688 5.4375 8.9375 5.335938 C 8.359375 5.453125 8.226562 5.539062 7.902344 6.019531 C 7.761719 6.226562 7.761719 6.226562 7.621094 6.4375 C 6.976562 7.480469 6.375 8.550781 5.777344 9.621094 C 5.578125 9.980469 5.378906 10.339844 5.175781 10.695312 C 4.996094 11.019531 4.816406 11.34375 4.632812 11.664062 C 4.363281 12.105469 4.117188 12.398438 3.75 12.75 C 3.734375 11.351562 3.71875 9.953125 3.710938 8.554688 C 3.707031 7.902344 3.703125 7.253906 3.695312 6.605469 C 3.683594 5.859375 3.679688 5.109375 3.675781 4.363281 C 3.671875 4.132812 3.667969 3.898438 3.664062 3.660156 C 3.664062 1.609375 3.664062 1.609375 4.5 0.75 C 5.460938 -0.0429688 6.160156 -0.105469 7.351562 -0.0859375 Z M 7.351562 -0.0859375 "/>
<path style=" stroke:none;fill-rule:nonzero;fill:rgb(82.352942%,81.568629%,94.901961%);fill-opacity:1;" d="M 46.746094 0.28125 C 47.761719 1.226562 48.042969 2.136719 48.097656 3.488281 C 48.101562 3.976562 48.105469 4.460938 48.101562 4.949219 C 48.101562 5.207031 48.101562 5.46875 48.101562 5.726562 C 48.105469 6.273438 48.101562 6.816406 48.097656 7.359375 C 48.09375 8.054688 48.097656 8.75 48.101562 9.441406 C 48.105469 9.980469 48.101562 10.515625 48.101562 11.054688 C 48.101562 11.308594 48.101562 11.566406 48.101562 11.820312 C 48.105469 12.179688 48.101562 12.539062 48.097656 12.894531 C 48.097656 13.199219 48.097656 13.199219 48.097656 13.511719 C 47.972656 14.214844 47.777344 14.523438 47.25 15 C 46.699219 15.105469 46.699219 15.105469 46.070312 15.09375 C 45.84375 15.089844 45.617188 15.085938 45.386719 15.082031 C 45.148438 15.074219 44.914062 15.066406 44.671875 15.058594 C 44.433594 15.054688 44.195312 15.050781 43.949219 15.046875 C 43.363281 15.035156 42.773438 15.019531 42.1875 15 C 42.175781 13.386719 42.164062 11.769531 42.15625 10.15625 C 42.15625 9.402344 42.152344 8.652344 42.144531 7.902344 C 42.140625 7.179688 42.136719 6.453125 42.132812 5.730469 C 42.132812 5.453125 42.132812 5.179688 42.128906 4.902344 C 42.125 4.515625 42.125 4.125 42.125 3.742188 C 42.121094 3.519531 42.121094 3.300781 42.121094 3.074219 C 42.210938 2.214844 42.457031 1.464844 43.03125 0.796875 C 44.203125 -0.0859375 45.382812 -0.335938 46.746094 0.28125 Z M 46.746094 0.28125 "/>
<path style=" stroke:none;fill-rule:nonzero;fill:rgb(27.058825%,23.921569%,51.372552%);fill-opacity:1;" d="M 13.5 7.5 C 16.398438 7.484375 19.292969 7.46875 22.1875 7.460938 C 23.53125 7.457031 24.878906 7.453125 26.222656 7.445312 C 27.394531 7.4375 28.566406 7.429688 29.738281 7.429688 C 30.359375 7.429688 30.980469 7.425781 31.601562 7.421875 C 32.292969 7.414062 32.988281 7.414062 33.679688 7.414062 C 33.886719 7.410156 34.089844 7.410156 34.304688 7.40625 C 34.492188 7.40625 34.679688 7.40625 34.875 7.410156 C 35.039062 7.410156 35.203125 7.40625 35.371094 7.40625 C 35.964844 7.53125 36.191406 7.777344 36.5625 8.25 C 36.664062 8.960938 36.695312 9.371094 36.285156 9.972656 C 35.609375 10.457031 34.96875 10.433594 34.164062 10.441406 C 33.914062 10.445312 33.914062 10.445312 33.65625 10.453125 C 33.105469 10.464844 32.554688 10.472656 32 10.476562 C 31.8125 10.480469 31.621094 10.484375 31.425781 10.484375 C 30.414062 10.5 29.402344 10.507812 28.394531 10.511719 C 27.5625 10.519531 26.738281 10.53125 25.910156 10.550781 C 17.179688 10.765625 17.179688 10.765625 13.769531 7.945312 C 13.679688 7.863281 13.59375 7.777344 13.5 7.6875 C 13.5 7.625 13.5 7.5625 13.5 7.5 Z M 13.5 7.5 "/>
<path style=" stroke:none;fill-rule:nonzero;fill:rgb(87.058824%,85.09804%,94.509804%);fill-opacity:1;" d="M 37.117188 26.875 C 38.382812 27.289062 39.367188 28.1875 40.125 29.25 C 40.511719 30.40625 40.429688 31.382812 39.902344 32.484375 C 39.503906 33.210938 39.078125 33.769531 38.4375 34.3125 C 38.308594 34.421875 38.183594 34.527344 38.050781 34.640625 C 37.230469 35.167969 36.191406 35.234375 35.25 35.0625 C 34.234375 34.597656 33.253906 34.128906 32.625 33.1875 C 32.679688 32.296875 32.984375 31.667969 33.425781 30.898438 C 33.488281 30.792969 33.546875 30.6875 33.609375 30.578125 C 33.738281 30.355469 33.867188 30.136719 33.996094 29.914062 C 34.195312 29.578125 34.390625 29.238281 34.585938 28.898438 C 35.890625 26.652344 35.890625 26.652344 37.117188 26.875 Z M 37.117188 26.875 "/>
<path style=" stroke:none;fill-rule:nonzero;fill:rgb(100%,94.117647%,94.509804%);fill-opacity:1;" d="M 10.75 11.738281 C 11.382812 11.832031 11.761719 12.0625 12.292969 12.410156 C 12.46875 12.523438 12.640625 12.632812 12.820312 12.746094 C 13.855469 13.542969 14.351562 14.386719 14.53125 15.667969 C 14.496094 16.90625 13.816406 18.164062 13.019531 19.089844 C 12.035156 19.953125 11.011719 20.167969 9.738281 20.148438 C 8.789062 20 8.0625 19.515625 7.3125 18.9375 C 7.199219 18.859375 7.082031 18.78125 6.96875 18.699219 C 6.75 18.375 6.75 18.375 6.792969 17.769531 C 6.941406 17.035156 7.164062 16.566406 7.550781 15.929688 C 7.675781 15.722656 7.796875 15.519531 7.925781 15.308594 C 8.058594 15.097656 8.1875 14.886719 8.320312 14.671875 C 8.449219 14.457031 8.578125 14.242188 8.710938 14.027344 C 10.03125 11.859375 10.03125 11.859375 10.75 11.738281 Z M 10.75 11.738281 "/>
<path style=" stroke:none;fill-rule:nonzero;fill:rgb(99.607843%,94.509804%,94.509804%);fill-opacity:1;" d="M 22.21875 18.480469 C 22.875 18.5625 22.875 18.5625 23.191406 18.859375 C 23.523438 19.46875 23.527344 19.96875 23.554688 20.660156 C 23.515625 21.453125 23.515625 21.453125 23.8125 22.125 C 23.878906 22.019531 23.945312 21.914062 24.011719 21.804688 C 24.09375 21.667969 24.183594 21.527344 24.269531 21.386719 C 24.355469 21.25 24.4375 21.113281 24.527344 20.972656 C 24.75 20.625 24.75 20.625 24.9375 20.4375 C 25.691406 20.386719 25.980469 20.382812 26.625 20.8125 C 26.898438 22.324219 26.128906 23.355469 25.359375 24.609375 C 25.242188 24.808594 25.121094 25.011719 25 25.222656 C 23.9375 26.996094 23.9375 26.996094 23.25 27.5625 C 22.570312 27.550781 22.570312 27.550781 21.9375 27.375 C 21.480469 26.6875 21.4375 26.074219 21.351562 25.277344 C 21.335938 25.136719 21.320312 24.996094 21.300781 24.851562 C 21.261719 24.503906 21.226562 24.160156 21.1875 23.8125 C 21.121094 23.933594 21.050781 24.050781 20.980469 24.175781 C 20.210938 25.4375 20.210938 25.4375 19.476562 25.746094 C 18.9375 25.6875 18.9375 25.6875 18.480469 25.40625 C 18.15625 24.886719 18.140625 24.636719 18.242188 24.046875 C 18.550781 23.066406 19.136719 22.203125 19.664062 21.328125 C 19.78125 21.125 19.902344 20.917969 20.027344 20.710938 C 21.28125 18.597656 21.28125 18.597656 22.21875 18.480469 Z M 22.21875 18.480469 "/>
<path style=" stroke:none;fill-rule:nonzero;fill:rgb(37.64706%,33.333334%,68.627453%);fill-opacity:1;" d="M 11.222656 31.769531 C 11.402344 31.761719 11.582031 31.753906 11.769531 31.746094 C 11.964844 31.738281 12.160156 31.734375 12.359375 31.726562 C 12.5625 31.722656 12.769531 31.714844 12.976562 31.707031 C 13.636719 31.691406 14.292969 31.683594 14.953125 31.675781 C 15.175781 31.675781 15.398438 31.671875 15.625 31.667969 C 19.066406 31.648438 21.613281 31.917969 24.304688 34.238281 C 24.5625 34.5 24.5625 34.5 24.5625 34.6875 C 22.71875 34.710938 20.878906 34.726562 19.035156 34.734375 C 18.179688 34.742188 17.328125 34.746094 16.472656 34.757812 C 15.644531 34.769531 14.820312 34.773438 13.996094 34.777344 C 13.679688 34.777344 13.367188 34.78125 13.050781 34.785156 C 12.609375 34.792969 12.167969 34.792969 11.726562 34.792969 C 11.597656 34.796875 11.46875 34.800781 11.332031 34.804688 C 10.621094 34.796875 10.324219 34.695312 9.757812 34.253906 C 9.375 33.75 9.375 33.75 9.363281 33.070312 C 9.679688 32.074219 10.207031 31.8125 11.222656 31.769531 Z M 11.222656 31.769531 "/>
<path style=" stroke:none;fill-rule:nonzero;fill:rgb(37.64706%,33.725491%,68.627453%);fill-opacity:1;" d="M 11.414062 37.425781 C 11.75 37.421875 11.75 37.421875 12.089844 37.417969 C 12.445312 37.417969 12.445312 37.417969 12.8125 37.417969 C 13.058594 37.417969 13.308594 37.417969 13.558594 37.414062 C 14.082031 37.414062 14.601562 37.414062 15.125 37.417969 C 15.789062 37.417969 16.457031 37.414062 17.121094 37.410156 C 17.761719 37.40625 18.398438 37.40625 19.035156 37.40625 C 19.277344 37.40625 19.511719 37.402344 19.761719 37.398438 C 19.980469 37.402344 20.207031 37.402344 20.4375 37.40625 C 20.632812 37.40625 20.824219 37.40625 21.027344 37.40625 C 21.707031 37.527344 22.019531 37.761719 22.5 38.25 C 22.617188 38.90625 22.617188 38.90625 22.5 39.5625 C 21.832031 40.238281 21.378906 40.40625 20.4375 40.414062 C 20.214844 40.414062 19.992188 40.417969 19.765625 40.421875 C 19.527344 40.421875 19.289062 40.421875 19.042969 40.417969 C 18.796875 40.421875 18.550781 40.421875 18.296875 40.421875 C 17.777344 40.425781 17.257812 40.425781 16.738281 40.421875 C 16.070312 40.417969 15.40625 40.421875 14.742188 40.429688 C 14.105469 40.433594 13.46875 40.433594 12.832031 40.429688 C 12.59375 40.433594 12.355469 40.433594 12.109375 40.4375 C 10.273438 40.417969 10.273438 40.417969 9.6875 39.878906 C 9.375 39.375 9.375 39.375 9.363281 38.695312 C 9.714844 37.585938 10.3125 37.429688 11.414062 37.425781 Z M 11.414062 37.425781 "/>
<path style=" stroke:none;fill-rule:nonzero;fill:rgb(87.058824%,84.705883%,94.509804%);fill-opacity:1;" d="M 31.664062 23.792969 C 32.339844 24.03125 32.921875 24.320312 33.539062 24.679688 C 33.652344 24.738281 33.761719 24.796875 33.875 24.859375 C 34.191406 25.050781 34.191406 25.050781 34.6875 25.5 C 34.769531 26.160156 34.816406 26.59375 34.476562 27.175781 C 33.949219 27.472656 33.597656 27.445312 33 27.375 C 32.367188 27.09375 32.367188 27.09375 31.875 26.8125 C 32.1875 27.140625 32.449219 27.382812 32.847656 27.609375 C 33.1875 27.9375 33.1875 27.9375 33.28125 28.59375 C 33.1875 29.25 33.1875 29.25 32.882812 29.625 C 32.28125 29.878906 31.933594 29.792969 31.3125 29.625 C 30.867188 29.425781 30.867188 29.425781 30.5625 29.25 C 30.5 29.375 30.4375 29.496094 30.375 29.625 C 30.589844 29.707031 30.589844 29.707031 30.808594 29.789062 C 31.3125 30 31.3125 30 31.875 30.375 C 31.945312 31.015625 31.992188 31.480469 31.664062 32.050781 C 31.148438 32.34375 30.773438 32.300781 30.1875 32.25 C 29.644531 31.984375 29.644531 31.984375 29.121094 31.628906 C 28.945312 31.511719 28.773438 31.398438 28.59375 31.28125 C 27.804688 30.703125 27.804688 30.703125 27.5625 30.375 C 27.472656 29.558594 27.691406 29.097656 28.101562 28.398438 C 28.21875 28.207031 28.332031 28.011719 28.449219 27.808594 C 28.570312 27.609375 28.691406 27.40625 28.816406 27.199219 C 28.933594 26.996094 29.050781 26.796875 29.171875 26.589844 C 30.808594 23.824219 30.808594 23.824219 31.664062 23.792969 Z M 31.664062 23.792969 "/>
<path style=" stroke:none;fill-rule:nonzero;fill:rgb(100%,94.509804%,94.509804%);fill-opacity:1;" d="M 17.035156 15.464844 C 17.738281 15.582031 18.191406 15.824219 18.796875 16.195312 C 19.089844 16.371094 19.089844 16.371094 19.386719 16.550781 C 19.875 16.875 19.875 16.875 20.25 17.25 C 20.320312 17.894531 20.320312 17.894531 20.25 18.5625 C 19.945312 18.9375 19.945312 18.9375 19.5 19.125 C 18.75 19.078125 18.121094 18.863281 17.4375 18.5625 C 17.582031 18.679688 17.730469 18.792969 17.882812 18.914062 C 18.375 19.3125 18.375 19.3125 18.75 19.6875 C 18.664062 20.898438 18.664062 20.898438 18.1875 21.375 C 17.277344 21.476562 16.722656 21.261719 15.9375 20.8125 C 16.277344 21.171875 16.585938 21.429688 17.003906 21.703125 C 17.4375 22.125 17.4375 22.125 17.519531 22.804688 C 17.4375 23.4375 17.4375 23.4375 17.0625 23.8125 C 15.828125 24.054688 15.023438 23.464844 13.980469 22.84375 C 13.5 22.5 13.5 22.5 13.125 21.9375 C 13.019531 21.121094 13.261719 20.65625 13.671875 19.957031 C 13.789062 19.761719 13.902344 19.566406 14.019531 19.363281 C 14.144531 19.160156 14.265625 18.960938 14.390625 18.75 C 14.507812 18.546875 14.628906 18.34375 14.75 18.136719 C 16.25 15.609375 16.25 15.609375 17.035156 15.464844 Z M 17.035156 15.464844 "/>
<path style=" stroke:none;fill-rule:nonzero;fill:rgb(27.450982%,23.921569%,51.372552%);fill-opacity:1;" d="M 23.25 13.125 C 24.875 13.109375 26.5 13.09375 28.125 13.085938 C 28.878906 13.082031 29.632812 13.078125 30.386719 13.070312 C 31.117188 13.058594 31.84375 13.054688 32.574219 13.054688 C 32.851562 13.050781 33.128906 13.050781 33.40625 13.046875 C 33.796875 13.039062 34.183594 13.039062 34.574219 13.039062 C 34.796875 13.039062 35.015625 13.035156 35.246094 13.035156 C 35.933594 13.144531 36.152344 13.320312 36.5625 13.875 C 36.664062 14.582031 36.695312 14.992188 36.285156 15.59375 C 35.59375 16.097656 34.972656 16.078125 34.132812 16.101562 C 33.96875 16.109375 33.800781 16.117188 33.628906 16.121094 C 33.09375 16.136719 32.554688 16.144531 32.015625 16.148438 C 31.832031 16.152344 31.652344 16.152344 31.464844 16.15625 C 28.207031 16.171875 25.726562 15.589844 23.25 13.3125 C 23.25 13.25 23.25 13.1875 23.25 13.125 Z M 23.25 13.125 "/>
<path style=" stroke:none;fill-rule:nonzero;fill:rgb(37.64706%,33.333334%,68.235296%);fill-opacity:1;" d="M 13.5 7.5 C 16.65625 7.5 19.8125 7.5 23.0625 7.5 C 23.0625 8.429688 23.0625 9.355469 23.0625 10.3125 C 19.222656 10.6875 16.574219 10.109375 13.5 7.6875 C 13.5 7.625 13.5 7.5625 13.5 7.5 Z M 13.5 7.5 "/>
<path style=" stroke:none;fill-rule:nonzero;fill:rgb(87.058824%,84.313726%,94.117647%);fill-opacity:1;" d="M 28.582031 22.042969 C 29.0625 22.125 29.0625 22.125 29.507812 22.429688 C 29.8125 22.875 29.8125 22.875 29.777344 23.394531 C 29.609375 24.066406 29.355469 24.5625 29.003906 25.164062 C 28.945312 25.269531 28.882812 25.375 28.816406 25.484375 C 28.691406 25.703125 28.558594 25.925781 28.429688 26.148438 C 28.230469 26.484375 28.03125 26.824219 27.835938 27.164062 C 26.871094 28.816406 26.871094 28.816406 26.4375 29.25 C 25.316406 29.351562 25.316406 29.351562 24.75 29.050781 C 24.449219 28.464844 24.621094 28.003906 24.75 27.375 C 25.019531 26.804688 25.019531 26.804688 25.363281 26.242188 C 25.488281 26.035156 25.613281 25.832031 25.738281 25.621094 C 25.867188 25.410156 26 25.199219 26.132812 24.984375 C 26.261719 24.769531 26.390625 24.554688 26.523438 24.339844 C 27.839844 22.175781 27.839844 22.175781 28.582031 22.042969 Z M 28.582031 22.042969 "/>
<path style=" stroke:none;fill-rule:nonzero;fill:rgb(87.450981%,85.490197%,94.509804%);fill-opacity:1;" d="M 25.875 20.4375 C 26.121094 20.5625 26.371094 20.683594 26.625 20.8125 C 26.824219 22.351562 26.148438 23.324219 25.359375 24.609375 C 25.242188 24.8125 25.121094 25.011719 25 25.21875 C 23.929688 27.007812 23.929688 27.007812 23.25 27.5625 C 22.546875 27.515625 22.546875 27.515625 21.9375 27.375 C 22.019531 27.234375 22.097656 27.09375 22.179688 26.953125 C 23.421875 24.785156 24.648438 22.613281 25.875 20.4375 Z M 25.875 20.4375 "/>
<path style=" stroke:none;fill-rule:nonzero;fill:rgb(100%,94.901961%,94.901961%);fill-opacity:1;" d="M 18.375 10.3125 C 19.921875 10.3125 21.46875 10.3125 23.0625 10.3125 C 23.0625 11.242188 23.0625 12.167969 23.0625 13.125 C 22.671875 12.898438 22.28125 12.675781 21.878906 12.445312 C 20.71875 11.78125 19.550781 11.132812 18.375 10.5 C 18.375 10.4375 18.375 10.375 18.375 10.3125 Z M 18.375 10.3125 "/>
<path style=" stroke:none;fill-rule:nonzero;fill:rgb(81.568629%,4.313726%,34.117648%);fill-opacity:1;" d="M 36.9375 29.625 C 37.664062 29.976562 37.664062 29.976562 37.875 30.1875 C 37.960938 30.925781 37.902344 31.265625 37.535156 31.921875 C 37.125 32.4375 37.125 32.4375 36.5625 32.8125 C 36.070312 32.765625 36.070312 32.765625 35.625 32.625 C 35.5625 32.5 35.5 32.378906 35.4375 32.25 C 35.671875 31.789062 35.910156 31.355469 36.175781 30.914062 C 36.285156 30.730469 36.285156 30.730469 36.394531 30.539062 C 36.574219 30.234375 36.753906 29.929688 36.9375 29.625 Z M 36.9375 29.625 "/>
<path style=" stroke:none;fill-rule:nonzero;fill:rgb(100%,28.235295%,38.82353%);fill-opacity:1;" d="M 11.0625 14.625 C 11.789062 14.976562 11.789062 14.976562 12 15.1875 C 12.085938 15.925781 12.027344 16.265625 11.660156 16.921875 C 11.25 17.4375 11.25 17.4375 10.6875 17.8125 C 10.089844 17.742188 10.089844 17.742188 9.5625 17.625 C 9.832031 16.914062 10.15625 16.261719 10.523438 15.597656 C 10.625 15.414062 10.726562 15.234375 10.828125 15.042969 C 10.90625 14.90625 10.984375 14.765625 11.0625 14.625 Z M 11.0625 14.625 "/>
<path style=" stroke:none;fill-rule:nonzero;fill:rgb(30.588236%,24.705882%,51.764709%);fill-opacity:1;" d="M 23.0625 33.75 C 23.804688 34.121094 23.804688 34.121094 24.5625 34.5 C 24.5625 34.5625 24.5625 34.625 24.5625 34.6875 C 24.066406 34.6875 23.574219 34.6875 23.0625 34.6875 C 23.0625 34.378906 23.0625 34.070312 23.0625 33.75 Z M 23.0625 33.75 "/>
<path style=" stroke:none;fill-rule:nonzero;fill:rgb(81.960785%,8.627451%,37.254903%);fill-opacity:1;" d="M 31.875 26.8125 C 32.339844 26.90625 32.339844 26.90625 32.8125 27 C 32.875 27.246094 32.9375 27.496094 33 27.75 C 32.628906 27.5625 32.257812 27.378906 31.875 27.1875 C 31.875 27.0625 31.875 26.941406 31.875 26.8125 Z M 31.875 26.8125 "/>
</g>
</svg>
