<?xml version="1.0" encoding="UTF-8"?>
<svg xmlns="http://www.w3.org/2000/svg" xmlns:xlink="http://www.w3.org/1999/xlink" width="48" height="48" viewBox="0 0 48 48" version="1.1">
<g id="surface1">
<path style=" stroke:none;fill-rule:nonzero;fill:rgb(1.568628%,1.568628%,1.568628%);fill-opacity:1;" d="M 35.4375 3 C 35.5 3.308594 35.5625 3.617188 35.625 3.9375 C 35.828125 3.933594 36.03125 3.933594 36.238281 3.929688 C 36.992188 3.917969 37.75 3.910156 38.507812 3.90625 C 38.832031 3.902344 39.160156 3.898438 39.484375 3.894531 C 39.957031 3.890625 40.425781 3.886719 40.898438 3.882812 C 41.113281 3.878906 41.113281 3.878906 41.335938 3.875 C 42.363281 3.875 43.125 4.074219 44.0625 4.5 C 44.976562 5.4375 45.234375 6.175781 45.238281 7.46875 C 45.238281 7.597656 45.238281 7.730469 45.238281 7.863281 C 45.242188 8.292969 45.242188 8.726562 45.242188 9.15625 C 45.242188 9.46875 45.242188 9.777344 45.246094 10.085938 C 45.25 10.929688 45.25 11.769531 45.25 12.613281 C 45.25 13.136719 45.25 13.664062 45.253906 14.191406 C 45.253906 16.027344 45.257812 17.863281 45.257812 19.699219 C 45.257812 21.410156 45.261719 23.121094 45.265625 24.832031 C 45.273438 26.300781 45.273438 27.769531 45.273438 29.238281 C 45.273438 30.117188 45.273438 30.992188 45.277344 31.871094 C 45.28125 32.695312 45.28125 33.519531 45.28125 34.347656 C 45.28125 34.648438 45.28125 34.953125 45.28125 35.253906 C 45.300781 38.117188 45.300781 38.117188 44.4375 39.375 C 43.316406 40.308594 42.191406 40.222656 40.78125 40.199219 C 40.558594 40.195312 40.335938 40.195312 40.105469 40.195312 C 39.398438 40.191406 38.6875 40.179688 37.980469 40.171875 C 37.5 40.167969 37.015625 40.164062 36.535156 40.164062 C 35.355469 40.152344 34.175781 40.140625 33 40.125 C 32.953125 40.253906 32.90625 40.382812 32.855469 40.511719 C 32.589844 41.148438 32.273438 41.738281 31.945312 42.339844 C 31.882812 42.453125 31.824219 42.5625 31.761719 42.679688 C 31.613281 42.953125 31.460938 43.226562 31.3125 43.5 C 31.085938 43.5 30.859375 43.5 30.625 43.5 C 28.488281 43.5 26.351562 43.503906 24.210938 43.515625 C 23.113281 43.519531 22.015625 43.523438 20.914062 43.523438 C 19.855469 43.519531 18.792969 43.527344 17.730469 43.535156 C 17.328125 43.535156 16.921875 43.535156 16.519531 43.535156 C 15.949219 43.53125 15.382812 43.535156 14.816406 43.542969 C 14.648438 43.539062 14.484375 43.539062 14.3125 43.535156 C 13.179688 43.558594 12.515625 43.863281 11.617188 44.546875 C 10.542969 45.328125 9.148438 45.324219 7.875 45.1875 C 6.078125 44.757812 4.671875 43.964844 3.679688 42.386719 C 2.820312 40.816406 2.554688 39.300781 2.921875 37.539062 C 3.421875 35.921875 4.472656 34.507812 5.953125 33.65625 C 7.5625 32.984375 9.410156 32.765625 11.0625 33.375 C 11.308594 33.5625 11.554688 33.753906 11.800781 33.949219 C 13.226562 34.820312 14.855469 34.632812 16.46875 34.601562 C 17.066406 34.59375 17.667969 34.589844 18.265625 34.589844 C 19.96875 34.582031 21.671875 34.5625 23.371094 34.542969 C 24.417969 34.527344 25.460938 34.523438 26.503906 34.523438 C 26.902344 34.523438 27.296875 34.515625 27.695312 34.507812 C 30.78125 34.445312 30.78125 34.445312 31.597656 35.019531 C 31.90625 35.464844 32.078125 35.863281 32.25 36.375 C 32.394531 36.660156 32.542969 36.945312 32.695312 37.230469 C 32.847656 37.546875 32.847656 37.546875 33 37.875 C 34.355469 37.890625 35.710938 37.898438 37.066406 37.90625 C 37.527344 37.910156 37.988281 37.914062 38.449219 37.917969 C 39.109375 37.921875 39.773438 37.925781 40.433594 37.929688 C 40.640625 37.933594 40.847656 37.933594 41.0625 37.9375 C 41.347656 37.9375 41.347656 37.9375 41.640625 37.9375 C 41.8125 37.941406 41.980469 37.941406 42.152344 37.941406 C 42.289062 37.921875 42.421875 37.898438 42.5625 37.875 C 43.011719 37.199219 42.984375 36.898438 42.984375 36.09375 C 42.984375 35.972656 42.984375 35.847656 42.984375 35.71875 C 42.988281 35.300781 42.988281 34.886719 42.984375 34.46875 C 42.984375 34.171875 42.988281 33.871094 42.988281 33.574219 C 42.988281 32.761719 42.988281 31.953125 42.988281 31.140625 C 42.984375 30.292969 42.988281 29.445312 42.988281 28.59375 C 42.988281 27.171875 42.988281 25.746094 42.984375 24.324219 C 42.984375 22.675781 42.984375 21.027344 42.984375 19.378906 C 42.988281 17.964844 42.988281 16.550781 42.988281 15.140625 C 42.988281 14.296875 42.988281 13.449219 42.988281 12.605469 C 42.988281 11.8125 42.988281 11.015625 42.984375 10.222656 C 42.984375 9.933594 42.984375 9.640625 42.988281 9.347656 C 42.988281 8.949219 42.984375 8.550781 42.984375 8.15625 C 42.984375 7.929688 42.984375 7.707031 42.984375 7.480469 C 42.980469 6.898438 42.980469 6.898438 42.5625 6.375 C 42.03125 6.3125 41.539062 6.28125 41.007812 6.28125 C 40.855469 6.277344 40.699219 6.273438 40.542969 6.269531 C 40.050781 6.257812 39.5625 6.253906 39.070312 6.246094 C 38.738281 6.238281 38.40625 6.234375 38.070312 6.226562 C 37.257812 6.210938 36.441406 6.199219 35.625 6.1875 C 35.5 6.558594 35.378906 6.929688 35.25 7.3125 C 34.265625 7.21875 33.523438 6.984375 32.648438 6.527344 C 32.4375 6.421875 32.222656 6.3125 32.007812 6.203125 C 31.5 5.8125 31.5 5.8125 31.335938 5.203125 C 31.328125 5.035156 31.320312 4.863281 31.3125 4.6875 C 31.917969 4.144531 32.570312 3.722656 33.269531 3.316406 C 33.4375 3.21875 33.609375 3.117188 33.785156 3.011719 C 34.417969 2.773438 34.789062 2.835938 35.4375 3 Z M 35.4375 3 "/>
<path style=" stroke:none;fill-rule:nonzero;fill:rgb(97.254902%,74.117649%,29.019609%);fill-opacity:1;" d="M 12.75 21 C 12.84375 21.09375 12.84375 21.09375 12.9375 21.1875 C 13.496094 21.203125 14.050781 21.203125 14.609375 21.199219 C 14.972656 21.195312 15.339844 21.195312 15.703125 21.191406 C 15.894531 21.191406 16.089844 21.191406 16.292969 21.191406 C 17.316406 21.1875 18.339844 21.1875 19.363281 21.1875 C 20.671875 21.1875 21.976562 21.1875 23.28125 21.179688 C 24.332031 21.167969 25.386719 21.167969 26.4375 21.175781 C 26.839844 21.175781 27.242188 21.171875 27.644531 21.167969 C 28.207031 21.160156 28.769531 21.164062 29.332031 21.167969 C 29.496094 21.164062 29.664062 21.160156 29.832031 21.15625 C 30.320312 21.167969 30.671875 21.195312 31.125 21.375 C 31.609375 21.886719 31.925781 22.441406 32.25 23.0625 C 32.382812 23.285156 32.519531 23.507812 32.652344 23.726562 C 32.765625 23.925781 32.875 24.125 32.988281 24.328125 C 33.101562 24.527344 33.214844 24.726562 33.332031 24.933594 C 33.597656 25.585938 33.5625 25.777344 33.375 26.4375 C 33.164062 26.886719 33.164062 26.886719 32.90625 27.347656 C 32.8125 27.515625 32.71875 27.683594 32.625 27.851562 C 32.480469 28.109375 32.480469 28.109375 32.332031 28.371094 C 32.1875 28.632812 32.1875 28.632812 32.035156 28.898438 C 31.796875 29.332031 31.554688 29.757812 31.3125 30.1875 C 31.085938 30.1875 30.859375 30.1875 30.625 30.1875 C 28.488281 30.1875 26.351562 30.191406 24.210938 30.203125 C 23.113281 30.207031 22.015625 30.210938 20.914062 30.210938 C 19.855469 30.207031 18.792969 30.214844 17.730469 30.222656 C 17.328125 30.222656 16.921875 30.222656 16.519531 30.222656 C 15.949219 30.21875 15.382812 30.222656 14.816406 30.230469 C 14.648438 30.226562 14.484375 30.226562 14.3125 30.222656 C 13.183594 30.246094 12.523438 30.546875 11.625 31.234375 C 10.566406 31.984375 9.125 32.023438 7.875 31.875 C 6.078125 31.433594 4.675781 30.65625 3.679688 29.074219 C 2.820312 27.507812 2.535156 25.96875 2.933594 24.210938 C 3.335938 22.96875 3.921875 22.078125 4.875 21.1875 C 4.972656 21.09375 5.070312 21 5.171875 20.90625 C 7.503906 18.988281 10.375 19.601562 12.75 21 Z M 12.75 21 "/>
<path style=" stroke:none;fill-rule:nonzero;fill:rgb(92.156863%,39.607844%,38.039216%);fill-opacity:1;" d="M 11.394531 7.011719 C 12.914062 8.203125 14.636719 8.011719 16.46875 7.976562 C 17.070312 7.964844 17.667969 7.960938 18.265625 7.960938 C 19.96875 7.957031 21.671875 7.9375 23.371094 7.914062 C 24.417969 7.90625 25.460938 7.898438 26.503906 7.898438 C 26.902344 7.898438 27.296875 7.890625 27.695312 7.882812 C 30.800781 7.820312 30.800781 7.820312 31.609375 8.425781 C 31.90625 8.863281 32.082031 9.25 32.25 9.75 C 32.378906 9.976562 32.511719 10.195312 32.652344 10.414062 C 32.765625 10.613281 32.875 10.8125 32.988281 11.015625 C 33.101562 11.214844 33.214844 11.417969 33.332031 11.621094 C 33.597656 12.273438 33.558594 12.464844 33.375 13.125 C 33.164062 13.574219 33.164062 13.574219 32.90625 14.035156 C 32.8125 14.203125 32.722656 14.371094 32.625 14.539062 C 32.480469 14.796875 32.480469 14.796875 32.332031 15.058594 C 32.183594 15.320312 32.183594 15.320312 32.035156 15.589844 C 31.796875 16.019531 31.554688 16.445312 31.3125 16.875 C 31.085938 16.875 30.859375 16.875 30.625 16.875 C 28.488281 16.875 26.351562 16.878906 24.210938 16.890625 C 23.113281 16.894531 22.015625 16.898438 20.917969 16.898438 C 19.851562 16.894531 18.792969 16.902344 17.730469 16.910156 C 17.328125 16.910156 16.921875 16.910156 16.519531 16.910156 C 15.953125 16.90625 15.382812 16.910156 14.816406 16.917969 C 14.648438 16.914062 14.484375 16.914062 14.3125 16.910156 C 13.183594 16.933594 12.523438 17.234375 11.625 17.921875 C 10.566406 18.671875 9.125 18.710938 7.875 18.5625 C 6.078125 18.121094 4.675781 17.339844 3.679688 15.761719 C 2.820312 14.195312 2.535156 12.65625 2.933594 10.898438 C 3.5 9.15625 4.59375 7.847656 6.1875 6.9375 C 7.652344 6.328125 10.046875 5.945312 11.394531 7.011719 Z M 11.394531 7.011719 "/>
<path style=" stroke:none;fill-rule:nonzero;fill:rgb(90.588236%,90.588236%,90.588236%);fill-opacity:1;" d="M 13.6875 35.4375 C 15.878906 35.363281 18.070312 35.304688 20.265625 35.273438 C 21.28125 35.253906 22.300781 35.234375 23.320312 35.199219 C 24.300781 35.160156 25.285156 35.144531 26.269531 35.136719 C 26.644531 35.128906 27.019531 35.117188 27.390625 35.101562 C 30.21875 34.972656 30.21875 34.972656 31.101562 35.746094 C 31.949219 36.765625 32.636719 37.945312 32.613281 39.292969 C 32.261719 40.578125 31.8125 41.875 30.75 42.75 C 29.53125 43.242188 28.136719 43.078125 26.851562 43.023438 C 26.472656 43.019531 26.09375 43.015625 25.710938 43.011719 C 24.714844 43 23.71875 42.976562 22.726562 42.941406 C 21.707031 42.914062 20.6875 42.902344 19.671875 42.886719 C 17.675781 42.855469 15.683594 42.808594 13.6875 42.75 C 13.753906 42.574219 13.820312 42.398438 13.886719 42.21875 C 13.976562 41.980469 14.0625 41.746094 14.148438 41.511719 C 14.234375 41.28125 14.320312 41.050781 14.410156 40.8125 C 14.960938 39.046875 14.648438 37.632812 13.875 36 C 13.8125 35.8125 13.75 35.628906 13.6875 35.4375 Z M 13.6875 35.4375 "/>
<path style=" stroke:none;fill-rule:nonzero;fill:rgb(90.588236%,90.588236%,90.588236%);fill-opacity:1;" d="M 13.6875 22.125 C 15.878906 22.050781 18.070312 21.992188 20.265625 21.960938 C 21.28125 21.941406 22.300781 21.921875 23.320312 21.886719 C 24.300781 21.847656 25.285156 21.832031 26.269531 21.824219 C 26.644531 21.816406 27.019531 21.804688 27.390625 21.789062 C 30.21875 21.660156 30.21875 21.660156 31.101562 22.433594 C 31.949219 23.453125 32.636719 24.632812 32.613281 25.980469 C 32.261719 27.265625 31.8125 28.5625 30.75 29.4375 C 29.53125 29.929688 28.136719 29.765625 26.851562 29.710938 C 26.472656 29.707031 26.09375 29.703125 25.710938 29.699219 C 24.714844 29.6875 23.71875 29.664062 22.726562 29.628906 C 21.707031 29.601562 20.6875 29.589844 19.671875 29.574219 C 17.675781 29.542969 15.683594 29.496094 13.6875 29.4375 C 13.753906 29.261719 13.820312 29.085938 13.886719 28.90625 C 13.976562 28.667969 14.0625 28.433594 14.148438 28.199219 C 14.234375 27.96875 14.320312 27.738281 14.410156 27.5 C 14.960938 25.734375 14.648438 24.320312 13.875 22.6875 C 13.8125 22.5 13.75 22.316406 13.6875 22.125 Z M 13.6875 22.125 "/>
<path style=" stroke:none;fill-rule:nonzero;fill:rgb(90.588236%,90.588236%,90.588236%);fill-opacity:1;" d="M 13.6875 8.8125 C 15.878906 8.738281 18.070312 8.679688 20.265625 8.648438 C 21.28125 8.628906 22.300781 8.609375 23.320312 8.574219 C 24.300781 8.535156 25.285156 8.519531 26.269531 8.511719 C 26.644531 8.503906 27.019531 8.492188 27.390625 8.476562 C 30.21875 8.347656 30.21875 8.347656 31.101562 9.121094 C 31.949219 10.140625 32.636719 11.320312 32.613281 12.667969 C 32.261719 13.953125 31.8125 15.25 30.75 16.125 C 29.53125 16.617188 28.136719 16.453125 26.851562 16.398438 C 26.472656 16.394531 26.09375 16.390625 25.710938 16.386719 C 24.714844 16.375 23.71875 16.351562 22.726562 16.316406 C 21.707031 16.289062 20.6875 16.277344 19.671875 16.261719 C 17.675781 16.230469 15.683594 16.183594 13.6875 16.125 C 13.753906 15.949219 13.820312 15.773438 13.886719 15.59375 C 13.976562 15.355469 14.0625 15.121094 14.148438 14.886719 C 14.234375 14.65625 14.320312 14.425781 14.410156 14.1875 C 14.960938 12.421875 14.648438 11.007812 13.875 9.375 C 13.8125 9.1875 13.75 9.003906 13.6875 8.8125 Z M 13.6875 8.8125 "/>
<path style=" stroke:none;fill-rule:nonzero;fill:rgb(55.686277%,78.039217%,39.215687%);fill-opacity:1;" d="M 11.292969 34.292969 C 12.679688 35.15625 13.707031 36.296875 14.175781 37.882812 C 14.507812 39.550781 13.984375 41.128906 13.078125 42.539062 C 12.316406 43.515625 11.136719 44.183594 9.9375 44.4375 C 8.1875 44.652344 6.902344 44.292969 5.4375 43.3125 C 4.96875 42.917969 4.636719 42.519531 4.3125 42 C 4.238281 41.875 4.160156 41.753906 4.078125 41.628906 C 3.441406 40.425781 3.378906 39.207031 3.5625 37.875 C 4.054688 36.308594 5.082031 35.09375 6.46875 34.230469 C 7.851562 33.605469 9.914062 33.652344 11.292969 34.292969 Z M 11.292969 34.292969 "/>
<path style=" stroke:none;fill-rule:nonzero;fill:rgb(3.137255%,3.137255%,2.352941%);fill-opacity:1;" d="M 12.75 21 C 12.84375 21.09375 12.84375 21.09375 12.9375 21.1875 C 13.496094 21.203125 14.050781 21.203125 14.609375 21.199219 C 14.972656 21.195312 15.339844 21.195312 15.703125 21.191406 C 15.894531 21.191406 16.089844 21.191406 16.292969 21.191406 C 17.316406 21.1875 18.339844 21.1875 19.363281 21.1875 C 20.671875 21.1875 21.976562 21.1875 23.28125 21.179688 C 24.332031 21.167969 25.386719 21.167969 26.4375 21.175781 C 26.839844 21.175781 27.242188 21.171875 27.644531 21.167969 C 28.207031 21.160156 28.769531 21.164062 29.332031 21.167969 C 29.496094 21.164062 29.664062 21.160156 29.832031 21.15625 C 30.320312 21.167969 30.671875 21.195312 31.125 21.375 C 31.609375 21.886719 31.925781 22.441406 32.25 23.0625 C 32.382812 23.285156 32.519531 23.507812 32.652344 23.726562 C 32.765625 23.925781 32.875 24.125 32.988281 24.328125 C 33.101562 24.527344 33.214844 24.726562 33.332031 24.933594 C 33.597656 25.585938 33.5625 25.777344 33.375 26.4375 C 33.164062 26.886719 33.164062 26.886719 32.90625 27.347656 C 32.8125 27.515625 32.71875 27.683594 32.625 27.851562 C 32.480469 28.109375 32.480469 28.109375 32.332031 28.371094 C 32.1875 28.632812 32.1875 28.632812 32.035156 28.898438 C 31.796875 29.332031 31.554688 29.757812 31.3125 30.1875 C 31.085938 30.1875 30.859375 30.1875 30.625 30.1875 C 28.488281 30.1875 26.351562 30.191406 24.210938 30.203125 C 23.113281 30.207031 22.015625 30.210938 20.914062 30.210938 C 19.855469 30.207031 18.792969 30.214844 17.730469 30.222656 C 17.328125 30.222656 16.921875 30.222656 16.519531 30.222656 C 15.949219 30.21875 15.382812 30.222656 14.816406 30.230469 C 14.648438 30.226562 14.484375 30.226562 14.3125 30.222656 C 13.183594 30.246094 12.523438 30.546875 11.625 31.234375 C 10.566406 31.984375 9.125 32.023438 7.875 31.875 C 6.078125 31.433594 4.675781 30.65625 3.679688 29.074219 C 2.820312 27.507812 2.535156 25.96875 2.933594 24.210938 C 3.335938 22.96875 3.921875 22.078125 4.875 21.1875 C 4.972656 21.09375 5.070312 21 5.171875 20.90625 C 7.503906 18.988281 10.375 19.601562 12.75 21 Z M 5.8125 21.375 C 5.699219 21.46875 5.582031 21.558594 5.464844 21.652344 C 4.40625 22.601562 3.703125 23.730469 3.464844 25.144531 C 3.375 26.867188 3.878906 28.292969 4.996094 29.613281 C 6 30.550781 7.230469 31.15625 8.613281 31.207031 C 10.203125 31.128906 11.445312 30.726562 12.609375 29.621094 C 13.882812 28.1875 14.179688 26.832031 14.140625 24.957031 C 14.050781 23.558594 13.285156 22.585938 12.28125 21.667969 C 11.226562 20.800781 10.265625 20.523438 8.929688 20.542969 C 8.789062 20.542969 8.644531 20.546875 8.5 20.546875 C 7.453125 20.578125 6.644531 20.703125 5.8125 21.375 Z M 13.6875 22.125 C 13.902344 22.667969 14.125 23.199219 14.367188 23.730469 C 15.027344 25.527344 14.597656 27.179688 13.875 28.875 C 13.8125 29.0625 13.75 29.246094 13.6875 29.4375 C 15.878906 29.511719 18.070312 29.570312 20.265625 29.601562 C 21.28125 29.621094 22.300781 29.640625 23.320312 29.675781 C 24.300781 29.714844 25.285156 29.730469 26.269531 29.738281 C 26.644531 29.746094 27.019531 29.757812 27.390625 29.773438 C 29.375 29.921875 29.375 29.921875 31.097656 29.125 C 31.882812 28.152344 32.484375 27.015625 32.710938 25.78125 C 32.460938 24.429688 31.777344 23.046875 30.75 22.125 C 29.539062 21.578125 28.128906 21.753906 26.835938 21.8125 C 26.453125 21.820312 26.074219 21.824219 25.695312 21.828125 C 24.699219 21.839844 23.707031 21.871094 22.710938 21.90625 C 21.695312 21.9375 20.675781 21.953125 19.660156 21.96875 C 17.671875 22.003906 15.679688 22.058594 13.6875 22.125 Z M 13.6875 22.125 "/>
<path style=" stroke:none;fill-rule:nonzero;fill:rgb(3.137255%,2.745098%,2.352941%);fill-opacity:1;" d="M 11.394531 7.011719 C 12.914062 8.203125 14.636719 8.011719 16.46875 7.976562 C 17.070312 7.964844 17.667969 7.960938 18.265625 7.960938 C 19.96875 7.957031 21.671875 7.9375 23.371094 7.914062 C 24.417969 7.90625 25.460938 7.898438 26.503906 7.898438 C 26.902344 7.898438 27.296875 7.890625 27.695312 7.882812 C 30.800781 7.820312 30.800781 7.820312 31.609375 8.425781 C 31.90625 8.863281 32.082031 9.25 32.25 9.75 C 32.378906 9.976562 32.511719 10.195312 32.652344 10.414062 C 32.765625 10.613281 32.875 10.8125 32.988281 11.015625 C 33.101562 11.214844 33.214844 11.417969 33.332031 11.621094 C 33.597656 12.273438 33.558594 12.464844 33.375 13.125 C 33.164062 13.574219 33.164062 13.574219 32.90625 14.035156 C 32.8125 14.203125 32.722656 14.371094 32.625 14.539062 C 32.480469 14.796875 32.480469 14.796875 32.332031 15.058594 C 32.183594 15.320312 32.183594 15.320312 32.035156 15.589844 C 31.796875 16.019531 31.554688 16.445312 31.3125 16.875 C 31.085938 16.875 30.859375 16.875 30.625 16.875 C 28.488281 16.875 26.351562 16.878906 24.210938 16.890625 C 23.113281 16.894531 22.015625 16.898438 20.917969 16.898438 C 19.851562 16.894531 18.792969 16.902344 17.730469 16.910156 C 17.328125 16.910156 16.921875 16.910156 16.519531 16.910156 C 15.953125 16.90625 15.382812 16.910156 14.816406 16.917969 C 14.648438 16.914062 14.484375 16.914062 14.3125 16.910156 C 13.183594 16.933594 12.523438 17.234375 11.625 17.921875 C 10.566406 18.671875 9.125 18.710938 7.875 18.5625 C 6.078125 18.121094 4.675781 17.339844 3.679688 15.761719 C 2.820312 14.195312 2.535156 12.65625 2.933594 10.898438 C 3.5 9.15625 4.59375 7.847656 6.1875 6.9375 C 7.652344 6.328125 10.046875 5.945312 11.394531 7.011719 Z M 4.875 9 C 4.675781 9.222656 4.675781 9.222656 4.476562 9.445312 C 3.511719 10.792969 3.335938 12.042969 3.5625 13.6875 C 4.167969 15.496094 5.117188 16.632812 6.785156 17.507812 C 8.089844 18.039062 9.519531 18.039062 10.828125 17.519531 C 12.191406 16.8125 13.265625 15.855469 13.902344 14.4375 C 14.308594 13.011719 14.367188 11.273438 13.6875 9.925781 C 12.894531 8.75 11.8125 7.847656 10.5 7.3125 C 9.972656 7.230469 9.460938 7.222656 8.929688 7.230469 C 8.71875 7.230469 8.71875 7.230469 8.5 7.234375 C 6.910156 7.28125 5.945312 7.78125 4.875 9 Z M 13.6875 8.8125 C 13.902344 9.355469 14.125 9.886719 14.367188 10.417969 C 15.027344 12.214844 14.597656 13.867188 13.875 15.5625 C 13.8125 15.746094 13.75 15.933594 13.6875 16.125 C 15.878906 16.199219 18.070312 16.257812 20.265625 16.289062 C 21.285156 16.304688 22.300781 16.328125 23.316406 16.363281 C 24.300781 16.398438 25.285156 16.417969 26.269531 16.425781 C 26.644531 16.433594 27.015625 16.445312 27.390625 16.460938 C 29.371094 16.609375 29.371094 16.609375 31.097656 15.8125 C 31.882812 14.839844 32.484375 13.703125 32.710938 12.46875 C 32.460938 11.121094 31.777344 9.734375 30.75 8.8125 C 29.539062 8.265625 28.128906 8.441406 26.832031 8.5 C 26.453125 8.507812 26.074219 8.511719 25.695312 8.515625 C 24.699219 8.527344 23.707031 8.558594 22.710938 8.59375 C 21.695312 8.625 20.679688 8.640625 19.660156 8.65625 C 17.667969 8.691406 15.679688 8.746094 13.6875 8.8125 Z M 13.6875 8.8125 "/>
<path style=" stroke:none;fill-rule:nonzero;fill:rgb(60.000002%,80.000001%,45.09804%);fill-opacity:1;" d="M 11.0625 34.3125 C 11.070312 34.769531 11.078125 35.226562 11.085938 35.683594 C 11.089844 35.8125 11.09375 35.941406 11.097656 36.074219 C 11.101562 36.78125 11.089844 37.082031 10.6875 37.6875 C 10.640625 37.503906 10.59375 37.324219 10.546875 37.136719 C 10.382812 36.558594 10.382812 36.558594 10.007812 36.398438 C 9.859375 36.390625 9.714844 36.382812 9.5625 36.375 C 9.320312 36.355469 9.074219 36.335938 8.824219 36.316406 C 8.214844 36.324219 8.050781 36.382812 7.5 36.714844 C 7.0625 37.101562 7.0625 37.101562 7.125 37.6875 C 7.371094 37.75 7.621094 37.8125 7.875 37.875 C 8 37.566406 8.121094 37.257812 8.25 36.9375 C 8.695312 36.914062 8.695312 36.914062 9.1875 36.9375 C 9.3125 37.0625 9.433594 37.183594 9.5625 37.3125 C 9.492188 37.804688 9.492188 37.804688 9.375 38.25 C 8.296875 38.625 8.296875 38.625 7.875 38.625 C 7.9375 38.8125 8 38.996094 8.0625 39.1875 C 8.269531 39.210938 8.480469 39.234375 8.695312 39.257812 C 9.375 39.375 9.375 39.375 9.75 39.75 C 9.796875 40.3125 9.796875 40.3125 9.75 40.875 C 9.375 41.25 9.375 41.25 8.835938 41.34375 C 8.25 41.25 8.25 41.25 7.828125 40.6875 C 7.71875 40.5 7.609375 40.316406 7.5 40.125 C 7.375 40.125 7.253906 40.125 7.125 40.125 C 7.0625 40.496094 7 40.867188 6.9375 41.25 C 6.0625 41.539062 5.148438 41.472656 4.242188 41.402344 C 3.9375 41.25 3.9375 41.25 3.738281 40.84375 C 3.3125 39.542969 3.371094 38.109375 3.949219 36.867188 C 4.640625 35.675781 5.574219 34.640625 6.84375 34.058594 C 8.179688 33.710938 9.808594 33.710938 11.0625 34.3125 Z M 11.0625 34.3125 "/>
<path style=" stroke:none;fill-rule:nonzero;fill:rgb(94.117647%,45.882353%,44.313726%);fill-opacity:1;" d="M 8.90625 7.277344 C 9.125 7.273438 9.125 7.273438 9.34375 7.269531 C 10.078125 7.269531 10.441406 7.273438 11.0625 7.6875 C 11.296875 9.25 11.132812 10.816406 10.3125 12.1875 C 10.125 12.28125 10.125 12.28125 9.9375 12.375 C 9.875 11.570312 9.8125 10.765625 9.75 9.9375 C 9.503906 9.875 9.253906 9.8125 9 9.75 C 8.894531 9.894531 8.792969 10.035156 8.683594 10.183594 C 8.253906 10.683594 7.898438 10.957031 7.3125 11.25 C 7.1875 11.25 7.066406 11.25 6.9375 11.25 C 7 11.4375 7.0625 11.621094 7.125 11.8125 C 7.640625 11.714844 8.125 11.605469 8.625 11.4375 C 8.625 12.242188 8.625 13.046875 8.625 13.875 C 7.1875 14.59375 6.007812 14.847656 4.40625 14.789062 C 3.9375 14.625 3.9375 14.625 3.726562 14.21875 C 3.316406 12.890625 3.375 11.476562 3.972656 10.21875 C 5.117188 8.234375 6.65625 7.277344 8.90625 7.277344 Z M 8.90625 7.277344 "/>
<path style=" stroke:none;fill-rule:nonzero;fill:rgb(97.254902%,76.47059%,36.078432%);fill-opacity:1;" d="M 10.5 20.625 C 10.6875 20.75 10.871094 20.871094 11.0625 21 C 11.105469 21.492188 11.113281 21.9375 11.097656 22.429688 C 11.09375 22.628906 11.09375 22.628906 11.089844 22.832031 C 11.082031 23.15625 11.074219 23.484375 11.0625 23.8125 C 10.5 23.8125 10.5 23.8125 10.207031 23.542969 C 10.117188 23.445312 10.03125 23.347656 9.9375 23.25 C 9.335938 22.949219 8.714844 22.972656 8.0625 23.0625 C 7.496094 23.335938 7.496094 23.335938 7.125 23.8125 C 6.957031 24.402344 6.957031 24.402344 6.9375 24.9375 C 7.183594 24.9375 7.433594 24.9375 7.6875 24.9375 C 7.742188 24.792969 7.796875 24.644531 7.851562 24.492188 C 8.0625 24 8.0625 24 8.4375 23.625 C 9.054688 23.6875 9.304688 23.742188 9.75 24.1875 C 9.757812 24.765625 9.691406 25.15625 9.320312 25.609375 C 9.003906 25.914062 8.679688 26.203125 8.34375 26.484375 C 7.539062 27.125 7.539062 27.125 6.9375 27.9375 C 6.046875 28.28125 4.828125 28.265625 3.9375 27.9375 C 3.328125 26.75 3.335938 25.292969 3.726562 24.035156 C 4.226562 22.960938 4.886719 22.113281 5.8125 21.375 C 5.914062 21.292969 6.015625 21.210938 6.117188 21.128906 C 7.371094 20.324219 9.074219 20.496094 10.5 20.625 Z M 10.5 20.625 "/>
<path style=" stroke:none;fill-rule:nonzero;fill:rgb(21.960784%,25.098041%,26.274511%);fill-opacity:1;" d="M 35.4375 4.6875 C 36.457031 4.667969 37.480469 4.65625 38.5 4.644531 C 38.847656 4.640625 39.191406 4.636719 39.539062 4.632812 C 40.039062 4.621094 40.542969 4.617188 41.039062 4.613281 C 41.195312 4.609375 41.347656 4.605469 41.507812 4.601562 C 42.511719 4.601562 43.09375 4.753906 43.875 5.4375 C 44.433594 6.191406 44.507812 6.738281 44.507812 7.667969 C 44.511719 7.859375 44.511719 7.859375 44.511719 8.058594 C 44.515625 8.484375 44.511719 8.910156 44.511719 9.335938 C 44.511719 9.644531 44.511719 9.953125 44.511719 10.257812 C 44.515625 11.089844 44.515625 11.921875 44.511719 12.753906 C 44.511719 13.628906 44.511719 14.5 44.515625 15.371094 C 44.515625 16.832031 44.515625 18.296875 44.511719 19.761719 C 44.507812 21.453125 44.507812 23.144531 44.511719 24.835938 C 44.515625 26.289062 44.515625 27.742188 44.511719 29.195312 C 44.511719 30.0625 44.511719 30.929688 44.515625 31.796875 C 44.515625 32.613281 44.515625 33.429688 44.511719 34.246094 C 44.511719 34.546875 44.511719 34.84375 44.511719 35.144531 C 44.515625 35.550781 44.511719 35.960938 44.507812 36.371094 C 44.507812 36.597656 44.507812 36.828125 44.507812 37.0625 C 44.410156 37.921875 44.140625 38.5625 43.507812 39.160156 C 42.601562 39.5 41.714844 39.445312 40.753906 39.429688 C 40.542969 39.429688 40.332031 39.425781 40.117188 39.425781 C 39.441406 39.421875 38.769531 39.417969 38.097656 39.410156 C 37.640625 39.40625 37.183594 39.40625 36.726562 39.402344 C 35.609375 39.394531 34.492188 39.386719 33.375 39.375 C 33.375 39.1875 33.375 39.003906 33.375 38.8125 C 33.488281 38.8125 33.601562 38.808594 33.71875 38.808594 C 34.898438 38.792969 36.078125 38.773438 37.261719 38.753906 C 37.699219 38.746094 38.140625 38.738281 38.578125 38.734375 C 39.214844 38.722656 39.84375 38.714844 40.480469 38.703125 C 40.675781 38.699219 40.875 38.699219 41.078125 38.695312 C 41.351562 38.691406 41.351562 38.691406 41.632812 38.683594 C 41.875 38.679688 41.875 38.679688 42.125 38.675781 C 42.609375 38.621094 42.90625 38.527344 43.3125 38.25 C 43.746094 37.59375 43.734375 37.015625 43.738281 36.242188 C 43.738281 36.113281 43.738281 35.988281 43.742188 35.859375 C 43.746094 35.4375 43.746094 35.011719 43.746094 34.589844 C 43.746094 34.285156 43.746094 33.984375 43.75 33.679688 C 43.753906 32.855469 43.753906 32.03125 43.757812 31.207031 C 43.757812 30.695312 43.757812 30.179688 43.757812 29.664062 C 43.765625 27.867188 43.765625 26.070312 43.769531 24.277344 C 43.769531 22.601562 43.773438 20.929688 43.78125 19.253906 C 43.789062 17.816406 43.789062 16.378906 43.789062 14.945312 C 43.789062 14.085938 43.792969 13.226562 43.796875 12.367188 C 43.804688 11.5625 43.804688 10.753906 43.800781 9.945312 C 43.800781 9.652344 43.800781 9.355469 43.804688 9.058594 C 43.808594 8.652344 43.804688 8.25 43.800781 7.84375 C 43.804688 7.503906 43.804688 7.503906 43.804688 7.160156 C 43.652344 6.390625 43.347656 6.113281 42.75 5.625 C 42.367188 5.484375 42.367188 5.484375 41.972656 5.5 C 41.824219 5.496094 41.679688 5.492188 41.53125 5.488281 C 41.375 5.488281 41.21875 5.492188 41.058594 5.492188 C 40.898438 5.488281 40.734375 5.484375 40.570312 5.484375 C 40.058594 5.476562 39.546875 5.476562 39.035156 5.472656 C 38.6875 5.46875 38.339844 5.464844 37.992188 5.457031 C 37.140625 5.445312 36.289062 5.441406 35.4375 5.4375 C 35.4375 5.191406 35.4375 4.941406 35.4375 4.6875 Z M 35.4375 4.6875 "/>
<path style=" stroke:none;fill-rule:nonzero;fill:rgb(50.588238%,74.901962%,32.156864%);fill-opacity:1;" d="M 12.75 35.625 C 13.792969 36.445312 14.183594 37.714844 14.34375 38.988281 C 14.257812 40.453125 13.597656 42.078125 12.5625 43.125 C 11.25 44.144531 9.957031 44.542969 8.296875 44.523438 C 7.238281 44.375 6.328125 43.894531 5.4375 43.3125 C 5.375 43.1875 5.3125 43.066406 5.25 42.9375 C 5.410156 42.96875 5.574219 42.996094 5.738281 43.027344 C 7.542969 43.300781 9.242188 43.339844 10.75 42.242188 C 11.902344 41.292969 12.648438 40.289062 12.9375 38.8125 C 12.992188 37.738281 12.980469 36.679688 12.75 35.625 Z M 12.75 35.625 "/>
<path style=" stroke:none;fill-rule:nonzero;fill:rgb(97.254902%,71.372551%,21.568628%);fill-opacity:1;" d="M 12.75 22.3125 C 13.582031 23.058594 14.011719 23.769531 14.152344 24.886719 C 14.15625 25.136719 14.15625 25.390625 14.15625 25.640625 C 14.15625 25.773438 14.15625 25.90625 14.152344 26.039062 C 14.101562 27.582031 13.53125 28.671875 12.492188 29.800781 C 11.652344 30.574219 10.703125 30.992188 9.5625 31.125 C 9.429688 31.140625 9.300781 31.160156 9.167969 31.175781 C 7.734375 31.273438 6.636719 30.761719 5.4375 30 C 5.375 29.875 5.3125 29.753906 5.25 29.625 C 5.378906 29.65625 5.507812 29.683594 5.640625 29.714844 C 7.589844 30.0625 9.207031 29.902344 10.863281 28.828125 C 11.972656 27.988281 12.503906 26.796875 12.9375 25.5 C 12.996094 24.425781 12.980469 23.367188 12.75 22.3125 Z M 12.75 22.3125 "/>
<path style=" stroke:none;fill-rule:nonzero;fill:rgb(92.156863%,33.725491%,31.764707%);fill-opacity:1;" d="M 12.75 9 C 13.582031 9.746094 14.011719 10.457031 14.152344 11.574219 C 14.199219 13.402344 14.007812 14.769531 12.742188 16.175781 C 11.386719 17.472656 10.160156 17.945312 8.285156 17.90625 C 7.234375 17.742188 6.324219 17.265625 5.4375 16.6875 C 5.375 16.5625 5.3125 16.441406 5.25 16.3125 C 5.390625 16.359375 5.390625 16.359375 5.535156 16.402344 C 7.171875 16.746094 9.023438 16.734375 10.480469 15.863281 C 11.648438 14.972656 12.574219 13.816406 12.9375 12.375 C 13.03125 11.226562 13.007812 10.125 12.75 9 Z M 12.75 9 "/>
<path style=" stroke:none;fill-rule:nonzero;fill:rgb(0%,0.392157%,0.392157%);fill-opacity:1;" d="M 35.039062 23.613281 C 36.140625 23.804688 37.1875 24.449219 38.0625 25.125 C 38.316406 25.636719 38.316406 25.636719 38.4375 26.0625 C 37.851562 26.707031 37.242188 27.109375 36.480469 27.527344 C 36.273438 27.644531 36.0625 27.761719 35.847656 27.882812 C 35.210938 28.140625 34.949219 28.164062 34.3125 27.9375 C 33.878906 27.503906 34.089844 26.464844 34.089844 25.886719 C 34.089844 25.710938 34.085938 25.535156 34.082031 25.355469 C 34.082031 25.191406 34.082031 25.023438 34.082031 24.851562 C 34.082031 24.621094 34.082031 24.621094 34.078125 24.382812 C 34.15625 23.722656 34.402344 23.625 35.039062 23.613281 Z M 35.039062 23.613281 "/>
<path style=" stroke:none;fill-rule:nonzero;fill:rgb(0%,0.392157%,0.392157%);fill-opacity:1;" d="M 35.039062 10.300781 C 36.140625 10.492188 37.1875 11.136719 38.0625 11.8125 C 38.316406 12.324219 38.316406 12.324219 38.4375 12.75 C 37.851562 13.394531 37.242188 13.796875 36.480469 14.214844 C 36.273438 14.332031 36.0625 14.449219 35.847656 14.570312 C 35.210938 14.828125 34.949219 14.851562 34.3125 14.625 C 33.878906 14.191406 34.089844 13.152344 34.089844 12.574219 C 34.089844 12.398438 34.085938 12.222656 34.082031 12.042969 C 34.082031 11.878906 34.082031 11.710938 34.082031 11.539062 C 34.082031 11.308594 34.082031 11.308594 34.078125 11.070312 C 34.15625 10.410156 34.402344 10.3125 35.039062 10.300781 Z M 35.039062 10.300781 "/>
<path style=" stroke:none;fill-rule:nonzero;fill:rgb(5.098039%,3.921569%,1.568628%);fill-opacity:1;" d="M 9.5625 22.875 C 10.234375 23.183594 10.460938 23.378906 10.875 24 C 10.898438 25.132812 10.464844 25.6875 9.722656 26.476562 C 9.316406 26.867188 8.894531 27.230469 8.4375 27.5625 C 9.179688 27.625 9.921875 27.6875 10.6875 27.75 C 10.75 27.996094 10.8125 28.246094 10.875 28.5 C 10.6875 28.6875 10.6875 28.6875 10.320312 28.707031 C 10.167969 28.707031 10.011719 28.707031 9.847656 28.707031 C 9.679688 28.703125 9.511719 28.703125 9.335938 28.703125 C 9.160156 28.703125 8.984375 28.699219 8.800781 28.699219 C 8.625 28.699219 8.445312 28.695312 8.261719 28.695312 C 7.820312 28.695312 7.378906 28.691406 6.9375 28.6875 C 6.851562 27.679688 6.851562 27.679688 7.230469 27.148438 C 7.363281 27.03125 7.496094 26.910156 7.628906 26.789062 C 7.765625 26.660156 7.902344 26.53125 8.042969 26.402344 C 8.4375 26.0625 8.4375 26.0625 8.988281 25.664062 C 9.425781 25.328125 9.425781 25.328125 9.550781 24.726562 C 9.554688 24.550781 9.558594 24.371094 9.5625 24.1875 C 9.4375 24.0625 9.316406 23.941406 9.1875 23.8125 C 8.71875 23.800781 8.71875 23.800781 8.25 24 C 8.0625 24.3125 7.875 24.625 7.6875 24.9375 C 7.441406 24.9375 7.191406 24.9375 6.9375 24.9375 C 6.867188 24.433594 6.867188 24.433594 6.9375 23.8125 C 7.761719 22.863281 8.328125 22.71875 9.5625 22.875 Z M 9.5625 22.875 "/>
<path style=" stroke:none;fill-rule:nonzero;fill:rgb(3.137255%,4.705882%,2.352941%);fill-opacity:1;" d="M 9.5625 36.1875 C 10.089844 36.375 10.25 36.4375 10.5 36.9375 C 10.542969 38.109375 10.542969 38.109375 10.371094 38.671875 C 10.351562 38.78125 10.332031 38.890625 10.3125 39 C 10.402344 39.082031 10.492188 39.164062 10.582031 39.246094 C 10.875 39.5625 10.875 39.5625 10.957031 40.195312 C 10.863281 40.972656 10.671875 41.265625 10.125 41.8125 C 9.425781 42.160156 8.632812 42.105469 7.875 42 C 7.289062 41.589844 7.289062 41.589844 6.9375 41.0625 C 6.878906 40.535156 6.878906 40.535156 6.9375 40.125 C 7.183594 40.125 7.433594 40.125 7.6875 40.125 C 7.773438 40.277344 7.859375 40.433594 7.945312 40.59375 C 8.046875 40.746094 8.148438 40.902344 8.25 41.0625 C 8.828125 41.15625 8.828125 41.15625 9.375 41.0625 C 9.625 40.851562 9.625 40.851562 9.585938 40.3125 C 9.625 39.773438 9.625 39.773438 9.375 39.5625 C 8.9375 39.492188 8.5 39.429688 8.0625 39.375 C 8 39.128906 7.9375 38.878906 7.875 38.625 C 8.371094 38.4375 8.863281 38.253906 9.375 38.0625 C 9.3125 37.753906 9.25 37.445312 9.1875 37.125 C 8.878906 37.125 8.570312 37.125 8.25 37.125 C 8.125 37.371094 8.003906 37.621094 7.875 37.875 C 7.566406 37.8125 7.257812 37.75 6.9375 37.6875 C 6.996094 37.136719 7.132812 36.929688 7.511719 36.515625 C 8.273438 36.0625 8.683594 36.101562 9.5625 36.1875 Z M 9.5625 36.1875 "/>
<path style=" stroke:none;fill-rule:nonzero;fill:rgb(0%,0%,0%);fill-opacity:1;" d="M 15 40.125 C 19.578125 40.125 24.15625 40.125 28.875 40.125 C 28.8125 40.3125 28.75 40.496094 28.6875 40.6875 C 24.171875 40.6875 19.652344 40.6875 15 40.6875 C 15 40.5 15 40.316406 15 40.125 Z M 15 40.125 "/>
<path style=" stroke:none;fill-rule:nonzero;fill:rgb(0.392157%,0.392157%,0.392157%);fill-opacity:1;" d="M 15 26.8125 C 19.578125 26.8125 24.15625 26.8125 28.875 26.8125 C 28.8125 27 28.75 27.183594 28.6875 27.375 C 24.171875 27.375 19.652344 27.375 15 27.375 C 15 27.1875 15 27.003906 15 26.8125 Z M 15 26.8125 "/>
<path style=" stroke:none;fill-rule:nonzero;fill:rgb(0%,0%,0%);fill-opacity:1;" d="M 15 13.5 C 19.578125 13.5 24.15625 13.5 28.875 13.5 C 28.8125 13.6875 28.75 13.871094 28.6875 14.0625 C 24.171875 14.0625 19.652344 14.0625 15 14.0625 C 15 13.875 15 13.691406 15 13.5 Z M 15 13.5 "/>
<path style=" stroke:none;fill-rule:nonzero;fill:rgb(14.117648%,14.117648%,14.117648%);fill-opacity:1;" d="M 15.1875 37.5 C 18.34375 37.5 21.5 37.5 24.75 37.5 C 24.75 37.746094 24.75 37.996094 24.75 38.25 C 21.53125 38.25 18.316406 38.25 15 38.25 C 15.0625 38.003906 15.125 37.753906 15.1875 37.5 Z M 15.1875 37.5 "/>
<path style=" stroke:none;fill-rule:nonzero;fill:rgb(12.54902%,12.54902%,12.54902%);fill-opacity:1;" d="M 15.1875 24.1875 C 18.34375 24.1875 21.5 24.1875 24.75 24.1875 C 24.75 24.433594 24.75 24.683594 24.75 24.9375 C 21.53125 24.9375 18.316406 24.9375 15 24.9375 C 15.0625 24.691406 15.125 24.441406 15.1875 24.1875 Z M 15.1875 24.1875 "/>
<path style=" stroke:none;fill-rule:nonzero;fill:rgb(12.54902%,12.54902%,12.54902%);fill-opacity:1;" d="M 15.1875 10.875 C 18.34375 10.875 21.5 10.875 24.75 10.875 C 24.75 11.121094 24.75 11.371094 24.75 11.625 C 21.59375 11.625 18.4375 11.625 15.1875 11.625 C 15.1875 11.378906 15.1875 11.128906 15.1875 10.875 Z M 15.1875 10.875 "/>
<path style=" stroke:none;fill-rule:nonzero;fill:rgb(1.568628%,0.784314%,0.784314%);fill-opacity:1;" d="M 9 9.5625 C 9.246094 9.625 9.496094 9.6875 9.75 9.75 C 9.75 11.542969 9.75 13.339844 9.75 15.1875 C 9.441406 15.25 9.132812 15.3125 8.8125 15.375 C 8.8125 14.015625 8.8125 12.652344 8.8125 11.25 C 8.253906 11.621094 8.253906 11.621094 7.6875 12 C 7.242188 11.953125 7.242188 11.953125 6.9375 11.8125 C 6.9375 11.625 6.9375 11.441406 6.9375 11.25 C 7.292969 10.96875 7.292969 10.96875 7.757812 10.6875 C 8.34375 10.328125 8.609375 10.144531 9 9.5625 Z M 9 9.5625 "/>
<path style=" stroke:none;fill-rule:nonzero;fill:rgb(20.392157%,22.352941%,18.82353%);fill-opacity:1;" d="M 12.1875 34.5 C 12.1875 34.6875 12.1875 34.871094 12.1875 35.0625 C 11.871094 34.875 11.550781 34.683594 11.234375 34.496094 C 9.984375 33.859375 8.191406 33.921875 6.847656 34.234375 C 5.554688 34.800781 4.660156 36 3.9375 37.171875 C 3.421875 39.101562 3.71875 40.652344 4.6875 42.375 C 4.5 42.375 4.316406 42.375 4.125 42.375 C 3.257812 40.730469 3.132812 39.050781 3.457031 37.226562 C 3.945312 35.683594 5.152344 34.648438 6.542969 33.921875 C 8.4375 33.101562 10.492188 33.40625 12.1875 34.5 Z M 12.1875 34.5 "/>
<path style=" stroke:none;fill-rule:nonzero;fill:rgb(20.784314%,23.529412%,24.705882%);fill-opacity:1;" d="M 34.875 3.5625 C 34.875 4.550781 34.875 5.542969 34.875 6.5625 C 34.09375 6.300781 33.527344 6.09375 32.835938 5.695312 C 32.6875 5.613281 32.542969 5.527344 32.390625 5.441406 C 32.285156 5.378906 32.175781 5.316406 32.0625 5.25 C 32.0625 5.125 32.0625 5.003906 32.0625 4.875 C 32.460938 4.65625 32.859375 4.4375 33.257812 4.21875 C 33.425781 4.125 33.425781 4.125 33.601562 4.03125 C 34.457031 3.5625 34.457031 3.5625 34.875 3.5625 Z M 34.875 3.5625 "/>
<path style=" stroke:none;fill-rule:nonzero;fill:rgb(21.960784%,25.098041%,26.274511%);fill-opacity:1;" d="M 34.875 24.375 C 35.652344 24.632812 36.160156 24.804688 36.820312 25.21875 C 36.949219 25.296875 37.078125 25.378906 37.210938 25.457031 C 37.308594 25.535156 37.402344 25.609375 37.5 25.6875 C 37.5 25.8125 37.5 25.933594 37.5 26.0625 C 36.199219 26.714844 36.199219 26.714844 34.875 27.375 C 34.875 26.386719 34.875 25.394531 34.875 24.375 Z M 34.875 24.375 "/>
<path style=" stroke:none;fill-rule:nonzero;fill:rgb(23.529412%,21.960784%,18.82353%);fill-opacity:1;" d="M 12.1875 21.1875 C 12.1875 21.3125 12.1875 21.433594 12.1875 21.5625 C 11.292969 21.214844 11.292969 21.214844 10.9375 20.992188 C 9.773438 20.519531 8.042969 20.648438 6.824219 20.921875 C 5.546875 21.480469 4.648438 22.703125 3.9375 23.859375 C 3.609375 25.097656 3.5625 26.511719 3.9375 27.75 C 3.8125 27.75 3.691406 27.75 3.5625 27.75 C 3.125 26.4375 3.136719 24.476562 3.730469 23.207031 C 4.59375 21.820312 5.71875 20.835938 7.285156 20.324219 C 9.109375 19.988281 10.632812 20.183594 12.1875 21.1875 Z M 12.1875 21.1875 "/>
<path style=" stroke:none;fill-rule:nonzero;fill:rgb(21.960784%,25.098041%,26.274511%);fill-opacity:1;" d="M 34.875 11.0625 C 35.652344 11.320312 36.160156 11.492188 36.820312 11.90625 C 36.949219 11.984375 37.078125 12.066406 37.210938 12.144531 C 37.308594 12.222656 37.402344 12.296875 37.5 12.375 C 37.5 12.5 37.5 12.621094 37.5 12.75 C 36.199219 13.402344 36.199219 13.402344 34.875 14.0625 C 34.875 13.074219 34.875 12.082031 34.875 11.0625 Z M 34.875 11.0625 "/>
<path style=" stroke:none;fill-rule:nonzero;fill:rgb(23.529412%,19.215687%,19.215687%);fill-opacity:1;" d="M 8.976562 6.890625 C 9.199219 6.886719 9.425781 6.882812 9.65625 6.875 C 10.371094 6.941406 10.820312 7.140625 11.4375 7.5 C 11.375 7.625 11.316406 7.746094 11.25 7.875 C 11.113281 7.785156 11.113281 7.785156 10.972656 7.691406 C 10.304688 7.421875 9.660156 7.429688 8.953125 7.429688 C 8.738281 7.429688 8.738281 7.429688 8.519531 7.429688 C 7.429688 7.453125 6.730469 7.636719 5.8125 8.25 C 5.683594 8.304688 5.554688 8.359375 5.421875 8.414062 C 4.972656 8.675781 4.890625 8.898438 4.6875 9.375 C 4.570312 9.570312 4.570312 9.570312 4.445312 9.773438 C 3.640625 11.164062 3.5 12.558594 3.847656 14.132812 C 3.878906 14.234375 3.90625 14.335938 3.9375 14.4375 C 3.8125 14.4375 3.6875 14.4375 3.5625 14.4375 C 3.125 13.125 3.136719 11.164062 3.730469 9.894531 C 4.597656 8.503906 5.714844 7.53125 7.28125 7.011719 C 7.851562 6.910156 8.402344 6.898438 8.976562 6.890625 Z M 8.976562 6.890625 "/>
<path style=" stroke:none;fill-rule:nonzero;fill:rgb(54.509807%,76.47059%,38.431373%);fill-opacity:1;" d="M 9.375 39.75 C 9.5 39.75 9.621094 39.75 9.75 39.75 C 9.773438 40.289062 9.773438 40.289062 9.75 40.875 C 9.375 41.25 9.375 41.25 8.8125 41.308594 C 8.625 41.289062 8.441406 41.269531 8.25 41.25 C 8.125 41.0625 8.003906 40.878906 7.875 40.6875 C 8.210938 40.5 8.546875 40.308594 8.882812 40.121094 C 9.183594 39.957031 9.183594 39.957031 9.375 39.75 Z M 9.375 39.75 "/>
<path style=" stroke:none;fill-rule:nonzero;fill:rgb(27.058825%,24.705882%,19.607843%);fill-opacity:1;" d="M 5.625 21.1875 C 5.8125 21.25 5.996094 21.3125 6.1875 21.375 C 6.03125 21.511719 6.03125 21.511719 5.871094 21.648438 C 5.738281 21.765625 5.601562 21.886719 5.460938 22.007812 C 5.328125 22.125 5.191406 22.242188 5.054688 22.363281 C 4.796875 22.589844 4.550781 22.824219 4.3125 23.0625 C 4.339844 22.5625 4.410156 22.226562 4.742188 21.847656 C 5.039062 21.585938 5.039062 21.585938 5.625 21.1875 Z M 5.625 21.1875 "/>
<path style=" stroke:none;fill-rule:nonzero;fill:rgb(12.54902%,14.117648%,11.372549%);fill-opacity:1;" d="M 10.6875 33.75 C 11.429688 34.121094 11.429688 34.121094 12.1875 34.5 C 12.1875 34.6875 12.1875 34.871094 12.1875 35.0625 C 11.9375 34.917969 11.6875 34.765625 11.4375 34.617188 C 11.296875 34.535156 11.160156 34.453125 11.015625 34.367188 C 10.90625 34.285156 10.796875 34.207031 10.6875 34.125 C 10.6875 34 10.6875 33.878906 10.6875 33.75 Z M 10.6875 33.75 "/>
<path style=" stroke:none;fill-rule:nonzero;fill:rgb(16.470589%,14.509805%,10.980392%);fill-opacity:1;" d="M 10.6875 20.4375 C 11.429688 20.808594 11.429688 20.808594 12.1875 21.1875 C 12.1875 21.3125 12.1875 21.433594 12.1875 21.5625 C 11.628906 21.351562 11.1875 21.144531 10.6875 20.8125 C 10.6875 20.6875 10.6875 20.566406 10.6875 20.4375 Z M 10.6875 20.4375 "/>
</g>
</svg>
