<?xml version="1.0" encoding="UTF-8"?>
<svg xmlns="http://www.w3.org/2000/svg" xmlns:xlink="http://www.w3.org/1999/xlink" width="48" height="48" viewBox="0 0 48 48" version="1.1">
<g id="surface1">
<path style=" stroke:none;fill-rule:nonzero;fill:rgb(54.509807%,80.000001%,89.803922%);fill-opacity:1;" d="M 4.050781 5.152344 C 4.226562 5.152344 4.40625 5.152344 4.585938 5.148438 C 5.183594 5.144531 5.773438 5.148438 6.367188 5.148438 C 6.792969 5.148438 7.222656 5.148438 7.648438 5.144531 C 8.804688 5.140625 9.960938 5.140625 11.117188 5.140625 C 12.082031 5.144531 13.050781 5.140625 14.015625 5.140625 C 16.425781 5.136719 18.832031 5.136719 21.242188 5.140625 C 23.332031 5.144531 25.425781 5.140625 27.515625 5.136719 C 29.660156 5.132812 31.808594 5.128906 33.960938 5.132812 C 35.164062 5.132812 36.371094 5.132812 37.574219 5.128906 C 38.707031 5.125 39.84375 5.125 40.976562 5.132812 C 41.390625 5.132812 41.808594 5.132812 42.222656 5.128906 C 42.789062 5.125 43.359375 5.128906 43.925781 5.132812 C 44.171875 5.128906 44.171875 5.128906 44.421875 5.125 C 45.574219 5.140625 46.386719 5.414062 47.25 6.1875 C 47.945312 7.015625 48.09375 7.832031 48.097656 8.898438 C 48.097656 9.035156 48.097656 9.167969 48.101562 9.308594 C 48.105469 9.757812 48.101562 10.207031 48.101562 10.65625 C 48.101562 10.976562 48.101562 11.300781 48.105469 11.621094 C 48.109375 12.496094 48.109375 13.375 48.105469 14.246094 C 48.105469 14.976562 48.109375 15.710938 48.109375 16.441406 C 48.113281 18.164062 48.113281 19.890625 48.109375 21.617188 C 48.105469 23.394531 48.109375 25.171875 48.113281 26.949219 C 48.121094 28.476562 48.121094 30.007812 48.121094 31.535156 C 48.117188 32.445312 48.117188 33.355469 48.121094 34.269531 C 48.125 35.128906 48.125 35.984375 48.121094 36.84375 C 48.121094 37.15625 48.121094 37.472656 48.121094 37.785156 C 48.140625 40.628906 48.140625 40.628906 47.390625 41.710938 C 46.28125 42.6875 45.386719 42.859375 43.949219 42.847656 C 43.773438 42.847656 43.59375 42.847656 43.414062 42.851562 C 42.820312 42.855469 42.226562 42.851562 41.632812 42.851562 C 41.207031 42.851562 40.777344 42.851562 40.351562 42.855469 C 39.195312 42.859375 38.039062 42.859375 36.882812 42.855469 C 35.917969 42.855469 34.949219 42.859375 33.984375 42.859375 C 31.574219 42.863281 29.167969 42.863281 26.757812 42.859375 C 24.667969 42.855469 22.574219 42.859375 20.484375 42.863281 C 18.339844 42.867188 16.191406 42.871094 14.042969 42.867188 C 12.835938 42.867188 11.628906 42.867188 10.425781 42.871094 C 9.292969 42.875 8.15625 42.875 7.023438 42.867188 C 6.609375 42.867188 6.191406 42.867188 5.777344 42.871094 C 5.210938 42.875 4.640625 42.871094 4.074219 42.867188 C 3.910156 42.867188 3.746094 42.871094 3.578125 42.875 C 2.425781 42.859375 1.617188 42.585938 0.75 41.8125 C 0.0546875 40.984375 -0.09375 40.164062 -0.0976562 39.101562 C -0.0976562 38.964844 -0.0976562 38.832031 -0.101562 38.691406 C -0.105469 38.242188 -0.101562 37.792969 -0.101562 37.34375 C -0.101562 37.023438 -0.101562 36.699219 -0.105469 36.375 C -0.109375 35.503906 -0.109375 34.625 -0.109375 33.753906 C -0.105469 33.023438 -0.109375 32.289062 -0.109375 31.558594 C -0.113281 29.835938 -0.113281 28.109375 -0.109375 26.382812 C -0.105469 24.605469 -0.109375 22.828125 -0.113281 21.050781 C -0.117188 19.523438 -0.121094 17.992188 -0.117188 16.464844 C -0.117188 15.554688 -0.117188 14.640625 -0.121094 13.730469 C -0.125 12.871094 -0.125 12.015625 -0.117188 11.15625 C -0.117188 10.84375 -0.117188 10.527344 -0.121094 10.214844 C -0.140625 7.371094 -0.140625 7.371094 0.609375 6.289062 C 1.71875 5.3125 2.613281 5.140625 4.050781 5.152344 Z M 4.050781 5.152344 "/>
<path style=" stroke:none;fill-rule:nonzero;fill:rgb(79.607844%,88.627452%,91.37255%);fill-opacity:1;" d="M 5.871094 14.929688 C 6.03125 14.929688 6.195312 14.925781 6.359375 14.925781 C 6.902344 14.921875 7.441406 14.925781 7.984375 14.925781 C 8.367188 14.925781 8.757812 14.925781 9.144531 14.925781 C 10.195312 14.921875 11.25 14.921875 12.300781 14.925781 C 13.402344 14.925781 14.5 14.925781 15.601562 14.921875 C 17.453125 14.921875 19.296875 14.925781 21.148438 14.925781 C 23.285156 14.929688 25.421875 14.929688 27.5625 14.925781 C 29.398438 14.921875 31.230469 14.921875 33.0625 14.925781 C 34.160156 14.925781 35.257812 14.925781 36.351562 14.921875 C 37.382812 14.921875 38.414062 14.921875 39.445312 14.925781 C 39.824219 14.925781 40.203125 14.925781 40.582031 14.925781 C 41.097656 14.921875 41.613281 14.925781 42.128906 14.929688 C 42.355469 14.925781 42.355469 14.925781 42.585938 14.925781 C 43.59375 14.9375 43.59375 14.9375 44.0625 15.253906 C 44.351562 15.730469 44.3125 16.132812 44.304688 16.683594 C 44.304688 16.902344 44.300781 17.121094 44.300781 17.34375 C 44.296875 17.574219 44.289062 17.800781 44.285156 18.035156 C 44.28125 18.265625 44.28125 18.496094 44.277344 18.734375 C 44.269531 19.300781 44.261719 19.871094 44.25 20.4375 C 43.5625 20.148438 43.128906 19.734375 42.605469 19.207031 C 42.4375 19.035156 42.273438 18.871094 42.101562 18.699219 C 41.929688 18.519531 41.757812 18.34375 41.578125 18.164062 C 41.402344 17.984375 41.222656 17.808594 41.046875 17.625 C 40.613281 17.191406 40.183594 16.75 39.75 16.3125 C 39.285156 16.496094 39.285156 16.496094 38.8125 16.6875 C 38.917969 17.414062 39.238281 17.742188 39.757812 18.25 C 39.90625 18.398438 40.058594 18.550781 40.214844 18.703125 C 40.375 18.859375 40.535156 19.011719 40.699219 19.171875 C 40.859375 19.328125 41.019531 19.488281 41.183594 19.648438 C 41.582031 20.039062 41.976562 20.425781 42.375 20.8125 C 42.101562 21.441406 41.753906 21.851562 41.265625 22.332031 C 41.125 22.472656 40.980469 22.617188 40.835938 22.761719 C 40.683594 22.90625 40.535156 23.054688 40.382812 23.203125 C 40.234375 23.351562 40.082031 23.5 39.925781 23.652344 C 39.554688 24.019531 39.183594 24.386719 38.8125 24.75 C 39 25.121094 39 25.121094 39.1875 25.5 C 39.9375 25.578125 39.9375 25.578125 40.378906 25.136719 C 40.535156 24.972656 40.695312 24.808594 40.859375 24.640625 C 40.984375 24.507812 40.984375 24.507812 41.117188 24.371094 C 41.390625 24.09375 41.660156 23.8125 41.929688 23.53125 C 42.203125 23.25 42.472656 22.96875 42.746094 22.6875 C 42.992188 22.433594 43.238281 22.179688 43.484375 21.925781 C 43.875 21.5625 43.875 21.5625 44.25 21.5625 C 44.265625 23.753906 44.273438 25.945312 44.277344 28.132812 C 44.28125 29.152344 44.285156 30.167969 44.292969 31.183594 C 44.300781 32.164062 44.300781 33.148438 44.304688 34.128906 C 44.304688 34.503906 44.308594 34.878906 44.308594 35.253906 C 44.3125 35.777344 44.3125 36.300781 44.3125 36.824219 C 44.316406 36.980469 44.316406 37.136719 44.320312 37.296875 C 44.3125 38.363281 44.3125 38.363281 43.964844 38.761719 C 43.828125 38.878906 43.828125 38.878906 43.6875 39 C 43.503906 38.9375 43.316406 38.875 43.125 38.8125 C 43.1875 38.75 43.25 38.6875 43.3125 38.625 C 43.332031 38.238281 43.335938 37.851562 43.335938 37.464844 C 43.335938 37.113281 43.335938 37.113281 43.335938 36.75 C 43.335938 36.628906 43.335938 36.503906 43.335938 36.378906 C 43.335938 36 43.335938 35.625 43.335938 35.246094 C 43.335938 35.011719 43.335938 34.777344 43.335938 34.535156 C 43.335938 34.210938 43.335938 34.210938 43.335938 33.875 C 43.371094 33.390625 43.371094 33.390625 43.125 33.1875 C 42.777344 33.167969 42.429688 33.164062 42.078125 33.164062 C 41.851562 33.164062 41.625 33.164062 41.390625 33.164062 C 41.136719 33.164062 40.882812 33.164062 40.628906 33.164062 C 40.363281 33.164062 40.097656 33.164062 39.832031 33.164062 C 39.109375 33.160156 38.382812 33.160156 37.660156 33.164062 C 36.90625 33.164062 36.148438 33.164062 35.394531 33.164062 C 34.125 33.160156 32.855469 33.164062 31.585938 33.164062 C 30.117188 33.164062 28.648438 33.164062 27.175781 33.164062 C 25.917969 33.160156 24.660156 33.160156 23.398438 33.164062 C 22.644531 33.164062 21.894531 33.164062 21.140625 33.160156 C 20.429688 33.160156 19.722656 33.160156 19.015625 33.164062 C 18.753906 33.164062 18.492188 33.164062 18.234375 33.164062 C 17.878906 33.164062 17.527344 33.164062 17.171875 33.164062 C 16.972656 33.164062 16.773438 33.164062 16.570312 33.164062 C 16.132812 33.136719 16.132812 33.136719 15.9375 33.375 C 15.921875 33.792969 15.917969 34.207031 15.917969 34.625 C 15.917969 34.75 15.917969 34.871094 15.917969 35 C 15.921875 35.398438 15.921875 35.800781 15.925781 36.199219 C 15.925781 36.46875 15.925781 36.738281 15.929688 37.011719 C 15.929688 37.671875 15.933594 38.335938 15.9375 39 C 15.566406 39 15.195312 39 14.8125 39 C 14.8125 38.832031 14.816406 38.660156 14.816406 38.484375 C 14.820312 37.859375 14.820312 37.234375 14.824219 36.605469 C 14.824219 36.335938 14.824219 36.0625 14.828125 35.792969 C 14.828125 35.402344 14.828125 35.011719 14.828125 34.625 C 14.832031 34.390625 14.832031 34.15625 14.832031 33.914062 C 14.875 33.394531 14.875 33.394531 14.625 33.1875 C 14.320312 33.167969 14.015625 33.164062 13.710938 33.164062 C 13.515625 33.164062 13.324219 33.164062 13.121094 33.160156 C 12.910156 33.160156 12.699219 33.164062 12.480469 33.164062 C 12.265625 33.164062 12.050781 33.164062 11.828125 33.164062 C 11.371094 33.160156 10.914062 33.164062 10.457031 33.164062 C 9.753906 33.164062 9.050781 33.164062 8.347656 33.160156 C 7.90625 33.160156 7.464844 33.164062 7.019531 33.164062 C 6.703125 33.164062 6.703125 33.164062 6.378906 33.160156 C 6.183594 33.164062 5.988281 33.164062 5.789062 33.164062 C 5.617188 33.164062 5.445312 33.164062 5.265625 33.164062 C 4.878906 33.144531 4.878906 33.144531 4.6875 33.375 C 4.667969 33.757812 4.664062 34.144531 4.660156 34.527344 C 4.660156 34.761719 4.660156 35 4.660156 35.238281 C 4.660156 35.484375 4.664062 35.734375 4.664062 35.988281 C 4.664062 36.234375 4.660156 36.480469 4.660156 36.734375 C 4.660156 36.96875 4.660156 37.207031 4.660156 37.449219 C 4.664062 37.664062 4.664062 37.878906 4.664062 38.105469 C 4.652344 38.617188 4.652344 38.617188 4.875 39 C 4.335938 38.894531 4.152344 38.839844 3.75 38.4375 C 3.714844 37.902344 3.703125 37.382812 3.707031 36.84375 C 3.707031 36.679688 3.707031 36.515625 3.707031 36.347656 C 3.707031 35.800781 3.710938 35.253906 3.714844 34.710938 C 3.714844 34.332031 3.714844 33.953125 3.714844 33.574219 C 3.71875 32.578125 3.71875 31.585938 3.722656 30.589844 C 3.726562 29.574219 3.730469 28.558594 3.730469 27.542969 C 3.734375 25.546875 3.742188 23.554688 3.75 21.5625 C 4.429688 21.882812 4.847656 22.253906 5.367188 22.800781 C 5.53125 22.96875 5.691406 23.140625 5.863281 23.3125 C 6.203125 23.667969 6.546875 24.03125 6.886719 24.390625 C 7.050781 24.558594 7.214844 24.726562 7.382812 24.898438 C 7.53125 25.054688 7.679688 25.210938 7.832031 25.371094 C 8.21875 25.738281 8.21875 25.738281 8.679688 25.640625 C 9.03125 25.53125 9.03125 25.53125 9.140625 25.179688 C 9.238281 24.722656 9.238281 24.722656 8.882812 24.335938 C 8.734375 24.191406 8.582031 24.046875 8.425781 23.898438 C 8.183594 23.660156 8.183594 23.660156 7.9375 23.417969 C 7.765625 23.253906 7.59375 23.089844 7.417969 22.921875 C 7.246094 22.753906 7.078125 22.589844 6.902344 22.417969 C 6.476562 22.003906 6.054688 21.597656 5.625 21.1875 C 5.898438 20.554688 6.242188 20.164062 6.742188 19.691406 C 6.882812 19.554688 7.027344 19.417969 7.175781 19.273438 C 7.476562 18.984375 7.785156 18.699219 8.089844 18.414062 C 8.230469 18.273438 8.375 18.136719 8.523438 17.996094 C 8.652344 17.867188 8.785156 17.746094 8.921875 17.617188 C 9.238281 17.265625 9.238281 17.265625 9.136719 16.828125 C 9.03125 16.472656 9.03125 16.472656 8.6875 16.351562 C 8.210938 16.261719 8.210938 16.261719 7.792969 16.671875 C 7.625 16.84375 7.460938 17.015625 7.285156 17.199219 C 7.199219 17.289062 7.109375 17.382812 7.015625 17.476562 C 6.730469 17.769531 6.445312 18.066406 6.164062 18.363281 C 5.878906 18.660156 5.59375 18.957031 5.308594 19.25 C 5.046875 19.515625 4.792969 19.785156 4.535156 20.058594 C 4.125 20.4375 4.125 20.4375 3.75 20.4375 C 3.734375 19.636719 3.722656 18.835938 3.714844 18.035156 C 3.710938 17.808594 3.707031 17.578125 3.699219 17.34375 C 3.699219 17.125 3.695312 16.910156 3.695312 16.683594 C 3.691406 16.484375 3.6875 16.28125 3.6875 16.074219 C 3.75 15.5625 3.75 15.5625 3.9375 15.253906 C 4.535156 14.851562 5.175781 14.921875 5.871094 14.929688 Z M 5.871094 14.929688 "/>
<path style=" stroke:none;fill-rule:nonzero;fill:rgb(0%,0%,0%);fill-opacity:1;" d="M 4.050781 5.152344 C 4.226562 5.152344 4.40625 5.152344 4.585938 5.148438 C 5.183594 5.144531 5.773438 5.148438 6.367188 5.148438 C 6.792969 5.148438 7.222656 5.148438 7.648438 5.144531 C 8.804688 5.140625 9.960938 5.140625 11.117188 5.140625 C 12.082031 5.144531 13.050781 5.140625 14.015625 5.140625 C 16.425781 5.136719 18.832031 5.136719 21.242188 5.140625 C 23.332031 5.144531 25.425781 5.140625 27.515625 5.136719 C 29.660156 5.132812 31.808594 5.128906 33.960938 5.132812 C 35.164062 5.132812 36.371094 5.132812 37.574219 5.128906 C 38.707031 5.125 39.84375 5.125 40.976562 5.132812 C 41.390625 5.132812 41.808594 5.132812 42.222656 5.128906 C 42.789062 5.125 43.359375 5.128906 43.925781 5.132812 C 44.171875 5.128906 44.171875 5.128906 44.421875 5.125 C 45.574219 5.140625 46.386719 5.414062 47.25 6.1875 C 47.945312 7.015625 48.09375 7.832031 48.097656 8.898438 C 48.097656 9.035156 48.097656 9.167969 48.101562 9.308594 C 48.105469 9.757812 48.101562 10.207031 48.101562 10.65625 C 48.101562 10.976562 48.101562 11.300781 48.105469 11.621094 C 48.109375 12.496094 48.109375 13.375 48.105469 14.246094 C 48.105469 14.976562 48.109375 15.710938 48.109375 16.441406 C 48.113281 18.164062 48.113281 19.890625 48.109375 21.617188 C 48.105469 23.394531 48.109375 25.171875 48.113281 26.949219 C 48.121094 28.476562 48.121094 30.007812 48.121094 31.535156 C 48.117188 32.445312 48.117188 33.355469 48.121094 34.269531 C 48.125 35.128906 48.125 35.984375 48.121094 36.84375 C 48.121094 37.15625 48.121094 37.472656 48.121094 37.785156 C 48.140625 40.628906 48.140625 40.628906 47.390625 41.710938 C 46.28125 42.6875 45.386719 42.859375 43.949219 42.847656 C 43.773438 42.847656 43.59375 42.847656 43.414062 42.851562 C 42.820312 42.855469 42.226562 42.851562 41.632812 42.851562 C 41.207031 42.851562 40.777344 42.851562 40.351562 42.855469 C 39.195312 42.859375 38.039062 42.859375 36.882812 42.855469 C 35.917969 42.855469 34.949219 42.859375 33.984375 42.859375 C 31.574219 42.863281 29.167969 42.863281 26.757812 42.859375 C 24.667969 42.855469 22.574219 42.859375 20.484375 42.863281 C 18.339844 42.867188 16.191406 42.871094 14.042969 42.867188 C 12.835938 42.867188 11.628906 42.867188 10.425781 42.871094 C 9.292969 42.875 8.15625 42.875 7.023438 42.867188 C 6.609375 42.867188 6.191406 42.867188 5.777344 42.871094 C 5.210938 42.875 4.640625 42.871094 4.074219 42.867188 C 3.910156 42.867188 3.746094 42.871094 3.578125 42.875 C 2.425781 42.859375 1.617188 42.585938 0.75 41.8125 C 0.0546875 40.984375 -0.09375 40.164062 -0.0976562 39.101562 C -0.0976562 38.964844 -0.0976562 38.832031 -0.101562 38.691406 C -0.105469 38.242188 -0.101562 37.792969 -0.101562 37.34375 C -0.101562 37.023438 -0.101562 36.699219 -0.105469 36.375 C -0.109375 35.503906 -0.109375 34.625 -0.109375 33.753906 C -0.105469 33.023438 -0.109375 32.289062 -0.109375 31.558594 C -0.113281 29.835938 -0.113281 28.109375 -0.109375 26.382812 C -0.105469 24.605469 -0.109375 22.828125 -0.113281 21.050781 C -0.117188 19.523438 -0.121094 17.992188 -0.117188 16.464844 C -0.117188 15.554688 -0.117188 14.640625 -0.121094 13.730469 C -0.125 12.871094 -0.125 12.015625 -0.117188 11.15625 C -0.117188 10.84375 -0.117188 10.527344 -0.121094 10.214844 C -0.140625 7.371094 -0.140625 7.371094 0.609375 6.289062 C 1.71875 5.3125 2.613281 5.140625 4.050781 5.152344 Z M 1.6875 7.6875 C 1.15625 8.75 1.5 10.058594 1.5 11.25 C 13.875 11.25 26.25 11.25 39 11.25 C 39 11.742188 39 12.238281 39 12.75 C 26.625 12.75 14.25 12.75 1.5 12.75 C 1.488281 17.183594 1.476562 21.621094 1.464844 26.191406 C 1.460938 27.589844 1.453125 28.992188 1.449219 30.4375 C 1.445312 31.691406 1.445312 31.691406 1.445312 32.945312 C 1.445312 33.503906 1.441406 34.066406 1.441406 34.625 C 1.4375 35.339844 1.433594 36.050781 1.4375 36.765625 C 1.433594 37.027344 1.433594 37.289062 1.433594 37.550781 C 1.429688 37.902344 1.433594 38.257812 1.433594 38.613281 C 1.433594 38.808594 1.433594 39.007812 1.433594 39.210938 C 1.53125 39.992188 1.847656 40.449219 2.367188 41.023438 C 3.0625 41.375 3.730469 41.328125 4.496094 41.320312 C 4.757812 41.320312 4.757812 41.320312 5.019531 41.324219 C 5.597656 41.324219 6.175781 41.324219 6.753906 41.320312 C 7.167969 41.324219 7.582031 41.324219 7.996094 41.324219 C 9.125 41.328125 10.25 41.328125 11.375 41.324219 C 12.554688 41.324219 13.730469 41.324219 14.910156 41.324219 C 17.011719 41.328125 19.117188 41.324219 21.222656 41.320312 C 23.132812 41.320312 25.039062 41.320312 26.945312 41.324219 C 29.160156 41.324219 31.378906 41.328125 33.589844 41.324219 C 34.765625 41.324219 35.9375 41.324219 37.109375 41.324219 C 38.214844 41.328125 39.316406 41.328125 40.417969 41.324219 C 40.824219 41.320312 41.230469 41.324219 41.632812 41.324219 C 42.1875 41.324219 42.738281 41.324219 43.292969 41.320312 C 43.53125 41.324219 43.53125 41.324219 43.777344 41.324219 C 44.648438 41.316406 45.246094 41.273438 45.9375 40.6875 C 46.476562 39.992188 46.570312 39.480469 46.570312 38.613281 C 46.570312 38.382812 46.570312 38.15625 46.570312 37.917969 C 46.570312 37.667969 46.566406 37.417969 46.566406 37.164062 C 46.5625 36.898438 46.5625 36.632812 46.566406 36.367188 C 46.566406 35.644531 46.5625 34.925781 46.558594 34.203125 C 46.554688 33.449219 46.554688 32.695312 46.550781 31.941406 C 46.550781 30.511719 46.546875 29.085938 46.539062 27.65625 C 46.535156 26.03125 46.53125 24.40625 46.527344 22.78125 C 46.523438 19.4375 46.511719 16.09375 46.5 12.75 C 45.015625 12.75 43.527344 12.75 42 12.75 C 42 12.253906 42 11.757812 42 11.25 C 43.484375 11.25 44.96875 11.25 46.5 11.25 C 46.527344 10.496094 46.527344 10.496094 46.558594 9.726562 C 46.566406 9.570312 46.574219 9.414062 46.582031 9.253906 C 46.597656 8.496094 46.542969 8.011719 46.0625 7.40625 C 45.226562 6.625 44.421875 6.722656 43.339844 6.722656 C 43.167969 6.722656 42.996094 6.71875 42.816406 6.71875 C 42.238281 6.714844 41.660156 6.714844 41.082031 6.714844 C 40.667969 6.710938 40.253906 6.710938 39.839844 6.710938 C 38.476562 6.703125 37.117188 6.703125 35.753906 6.699219 C 35.289062 6.699219 34.820312 6.695312 34.351562 6.695312 C 32.40625 6.691406 30.457031 6.6875 28.511719 6.683594 C 28.007812 6.683594 27.5 6.683594 26.996094 6.683594 C 26.804688 6.683594 26.804688 6.683594 26.613281 6.683594 C 24.582031 6.679688 22.546875 6.675781 20.511719 6.667969 C 18.421875 6.660156 16.335938 6.65625 14.246094 6.652344 C 13.070312 6.652344 11.898438 6.652344 10.726562 6.644531 C 9.625 6.640625 8.519531 6.636719 7.417969 6.640625 C 7.011719 6.640625 6.609375 6.636719 6.203125 6.636719 C 5.652344 6.632812 5.097656 6.632812 4.546875 6.636719 C 4.386719 6.632812 4.226562 6.632812 4.058594 6.628906 C 2.949219 6.640625 2.460938 6.882812 1.6875 7.6875 Z M 1.6875 7.6875 "/>
<path style=" stroke:none;fill-rule:nonzero;fill:rgb(85.882354%,85.882354%,85.882354%);fill-opacity:1;" d="M 4.453125 6.722656 C 4.625 6.722656 4.796875 6.722656 4.972656 6.722656 C 5.554688 6.71875 6.132812 6.71875 6.710938 6.71875 C 7.125 6.71875 7.539062 6.71875 7.957031 6.714844 C 9.082031 6.714844 10.210938 6.710938 11.335938 6.710938 C 12.042969 6.710938 12.746094 6.710938 13.449219 6.710938 C 15.398438 6.707031 17.347656 6.707031 19.296875 6.703125 C 19.484375 6.703125 19.484375 6.703125 19.675781 6.703125 C 19.800781 6.703125 19.925781 6.703125 20.054688 6.703125 C 20.304688 6.703125 20.5625 6.703125 20.8125 6.703125 C 21 6.703125 21 6.703125 21.195312 6.703125 C 23.230469 6.703125 25.269531 6.699219 27.304688 6.695312 C 29.394531 6.691406 31.488281 6.691406 33.578125 6.691406 C 34.75 6.691406 35.925781 6.6875 37.097656 6.683594 C 38.203125 6.683594 39.308594 6.679688 40.410156 6.683594 C 40.820312 6.683594 41.222656 6.683594 41.628906 6.679688 C 42.179688 6.679688 42.734375 6.679688 43.289062 6.679688 C 43.449219 6.679688 43.609375 6.679688 43.777344 6.675781 C 44.847656 6.6875 45.464844 6.882812 46.273438 7.621094 C 46.621094 8.300781 46.558594 8.949219 46.535156 9.703125 C 46.523438 10.214844 46.511719 10.726562 46.5 11.25 C 45.015625 11.25 43.53125 11.25 42 11.25 C 42 11.496094 42 11.746094 42 12 C 41.007812 12 40.019531 12 39 12 C 39 11.753906 39 11.503906 39 11.25 C 26.625 11.25 14.25 11.25 1.5 11.25 C 1.5 8.0625 1.5 8.0625 2.4375 6.9375 C 3.0625 6.625 3.765625 6.722656 4.453125 6.722656 Z M 4.453125 6.722656 "/>
<path style=" stroke:none;fill-rule:nonzero;fill:rgb(0%,0%,0%);fill-opacity:1;" d="M 5.921875 27.699219 C 6.070312 27.699219 6.21875 27.703125 6.367188 27.703125 C 6.601562 27.703125 6.601562 27.703125 6.84375 27.699219 C 7.371094 27.699219 7.898438 27.699219 8.421875 27.703125 C 8.800781 27.703125 9.175781 27.699219 9.550781 27.699219 C 10.578125 27.699219 11.601562 27.699219 12.625 27.699219 C 13.695312 27.699219 14.761719 27.699219 15.835938 27.699219 C 17.628906 27.699219 19.429688 27.699219 21.226562 27.703125 C 23.304688 27.703125 25.386719 27.703125 27.464844 27.699219 C 29.246094 27.699219 31.03125 27.699219 32.8125 27.699219 C 33.882812 27.699219 34.949219 27.699219 36.011719 27.699219 C 37.015625 27.699219 38.015625 27.699219 39.019531 27.699219 C 39.386719 27.703125 39.757812 27.703125 40.125 27.699219 C 40.628906 27.699219 41.128906 27.699219 41.628906 27.703125 C 41.777344 27.703125 41.925781 27.699219 42.078125 27.699219 C 43.082031 27.707031 43.082031 27.707031 43.5 28.125 C 43.546875 28.507812 43.546875 28.507812 43.550781 28.96875 C 43.550781 29.132812 43.550781 29.300781 43.550781 29.472656 C 43.550781 29.644531 43.546875 29.820312 43.546875 30 C 43.546875 30.175781 43.550781 30.347656 43.550781 30.527344 C 43.550781 30.695312 43.550781 30.859375 43.550781 31.03125 C 43.550781 31.183594 43.546875 31.335938 43.546875 31.496094 C 43.5 31.875 43.5 31.875 43.125 32.25 C 42.621094 32.289062 42.132812 32.300781 41.628906 32.296875 C 41.394531 32.300781 41.394531 32.300781 41.15625 32.300781 C 40.632812 32.300781 40.105469 32.300781 39.578125 32.300781 C 39.199219 32.300781 38.824219 32.300781 38.449219 32.300781 C 37.425781 32.304688 36.398438 32.300781 35.375 32.300781 C 34.304688 32.300781 33.234375 32.300781 32.164062 32.300781 C 30.367188 32.300781 28.574219 32.300781 26.773438 32.300781 C 24.695312 32.296875 22.617188 32.296875 20.535156 32.300781 C 18.75 32.300781 16.96875 32.300781 15.183594 32.300781 C 14.117188 32.300781 13.054688 32.300781 11.988281 32.300781 C 10.984375 32.304688 9.980469 32.300781 8.980469 32.300781 C 8.613281 32.300781 8.242188 32.300781 7.875 32.300781 C 7.371094 32.300781 6.871094 32.300781 6.367188 32.296875 C 6.222656 32.300781 6.074219 32.300781 5.921875 32.300781 C 4.917969 32.292969 4.917969 32.292969 4.5 31.875 C 4.449219 31.496094 4.449219 31.496094 4.449219 31.03125 C 4.449219 30.863281 4.449219 30.699219 4.449219 30.527344 C 4.449219 30.265625 4.449219 30.265625 4.453125 30 C 4.449219 29.824219 4.449219 29.652344 4.449219 29.472656 C 4.449219 29.308594 4.449219 29.140625 4.449219 28.96875 C 4.449219 28.816406 4.449219 28.664062 4.449219 28.507812 C 4.5625 27.621094 5.175781 27.707031 5.921875 27.699219 Z M 5.921875 27.699219 "/>
<path style=" stroke:none;fill-rule:nonzero;fill:rgb(0%,0%,0%);fill-opacity:1;" d="M 17.191406 32.953125 C 17.535156 32.949219 17.535156 32.949219 17.878906 32.949219 C 18.132812 32.949219 18.386719 32.949219 18.640625 32.953125 C 18.90625 32.949219 19.171875 32.949219 19.4375 32.949219 C 20.160156 32.949219 20.878906 32.949219 21.601562 32.949219 C 22.359375 32.949219 23.113281 32.949219 23.867188 32.949219 C 25.132812 32.949219 26.402344 32.949219 27.667969 32.949219 C 29.132812 32.953125 30.601562 32.953125 32.070312 32.949219 C 33.324219 32.949219 34.582031 32.949219 35.839844 32.949219 C 36.59375 32.949219 37.34375 32.949219 38.097656 32.949219 C 38.804688 32.949219 39.511719 32.949219 40.214844 32.949219 C 40.476562 32.949219 40.738281 32.949219 40.996094 32.949219 C 41.351562 32.949219 41.703125 32.949219 42.058594 32.953125 C 42.253906 32.953125 42.453125 32.953125 42.660156 32.953125 C 43.125 33 43.125 33 43.5 33.375 C 43.546875 33.894531 43.546875 33.894531 43.550781 34.546875 C 43.550781 34.78125 43.550781 35.015625 43.550781 35.257812 C 43.550781 35.5 43.546875 35.746094 43.546875 36 C 43.546875 36.246094 43.550781 36.492188 43.550781 36.742188 C 43.550781 36.976562 43.550781 37.210938 43.550781 37.453125 C 43.550781 37.667969 43.550781 37.882812 43.546875 38.105469 C 43.5 38.625 43.5 38.625 43.125 39 C 42.660156 39.046875 42.660156 39.046875 42.058594 39.046875 C 41.71875 39.050781 41.71875 39.050781 41.367188 39.050781 C 41.117188 39.050781 40.863281 39.050781 40.609375 39.046875 C 40.34375 39.050781 40.078125 39.050781 39.8125 39.050781 C 39.089844 39.050781 38.367188 39.050781 37.648438 39.050781 C 36.894531 39.050781 36.136719 39.050781 35.382812 39.050781 C 34.117188 39.050781 32.847656 39.050781 31.582031 39.046875 C 30.113281 39.046875 28.648438 39.046875 27.183594 39.050781 C 25.925781 39.050781 24.667969 39.050781 23.410156 39.050781 C 22.65625 39.050781 21.90625 39.050781 21.152344 39.050781 C 20.449219 39.050781 19.742188 39.050781 19.035156 39.050781 C 18.773438 39.046875 18.515625 39.046875 18.253906 39.050781 C 17.898438 39.050781 17.546875 39.050781 17.191406 39.046875 C 16.992188 39.046875 16.796875 39.046875 16.59375 39.046875 C 16.125 39 16.125 39 15.75 38.625 C 15.703125 38.105469 15.703125 38.105469 15.699219 37.453125 C 15.699219 37.21875 15.699219 36.984375 15.699219 36.742188 C 15.699219 36.496094 15.703125 36.253906 15.703125 36 C 15.703125 35.753906 15.699219 35.507812 15.699219 35.257812 C 15.699219 35.023438 15.699219 34.789062 15.699219 34.546875 C 15.699219 34.332031 15.703125 34.113281 15.703125 33.894531 C 15.796875 32.894531 16.328125 32.953125 17.191406 32.953125 Z M 17.191406 32.953125 "/>
<path style=" stroke:none;fill-rule:nonzero;fill:rgb(100%,79.607844%,34.901962%);fill-opacity:1;" d="M 17.25 34.5 C 25.417969 34.5 33.585938 34.5 42 34.5 C 42 35.488281 42 36.480469 42 37.5 C 33.832031 37.5 25.664062 37.5 17.25 37.5 C 17.25 36.511719 17.25 35.519531 17.25 34.5 Z M 17.25 34.5 "/>
<path style=" stroke:none;fill-rule:nonzero;fill:rgb(0%,0%,0%);fill-opacity:1;" d="M 5.804688 32.953125 C 6.097656 32.949219 6.097656 32.949219 6.394531 32.949219 C 6.710938 32.949219 6.710938 32.949219 7.03125 32.949219 C 7.246094 32.949219 7.460938 32.949219 7.683594 32.949219 C 8.136719 32.949219 8.59375 32.949219 9.046875 32.953125 C 9.746094 32.953125 10.445312 32.953125 11.144531 32.949219 C 11.585938 32.949219 12.027344 32.949219 12.46875 32.949219 C 12.679688 32.949219 12.886719 32.949219 13.105469 32.949219 C 13.300781 32.949219 13.492188 32.949219 13.691406 32.953125 C 13.949219 32.953125 13.949219 32.953125 14.210938 32.953125 C 14.625 33 14.625 33 15 33.375 C 15.046875 33.894531 15.046875 33.894531 15.050781 34.546875 C 15.050781 34.898438 15.050781 34.898438 15.050781 35.253906 C 15.050781 35.5 15.046875 35.746094 15.046875 36 C 15.046875 36.367188 15.046875 36.367188 15.050781 36.746094 C 15.050781 36.980469 15.050781 37.210938 15.050781 37.453125 C 15.046875 37.667969 15.046875 37.882812 15.046875 38.105469 C 15 38.625 15 38.625 14.625 39 C 14.210938 39.046875 14.210938 39.046875 13.691406 39.050781 C 13.5 39.050781 13.304688 39.050781 13.105469 39.050781 C 12.789062 39.050781 12.789062 39.050781 12.46875 39.050781 C 12.144531 39.050781 12.144531 39.050781 11.816406 39.050781 C 11.363281 39.050781 10.90625 39.050781 10.449219 39.050781 C 9.753906 39.046875 9.054688 39.050781 8.355469 39.050781 C 7.914062 39.050781 7.472656 39.050781 7.03125 39.050781 C 6.820312 39.050781 6.609375 39.050781 6.394531 39.050781 C 6.101562 39.050781 6.101562 39.050781 5.804688 39.050781 C 5.636719 39.050781 5.464844 39.046875 5.289062 39.046875 C 4.875 39 4.875 39 4.5 38.625 C 4.449219 38.105469 4.449219 38.105469 4.449219 37.453125 C 4.449219 37.21875 4.449219 36.984375 4.449219 36.746094 C 4.449219 36.5 4.449219 36.253906 4.453125 36 C 4.449219 35.753906 4.449219 35.507812 4.449219 35.253906 C 4.449219 35.019531 4.449219 34.785156 4.449219 34.546875 C 4.449219 34.332031 4.449219 34.117188 4.449219 33.894531 C 4.539062 32.960938 4.980469 32.953125 5.804688 32.953125 Z M 5.804688 32.953125 "/>
<path style=" stroke:none;fill-rule:nonzero;fill:rgb(100%,88.235295%,40.784314%);fill-opacity:1;" d="M 6 29.25 C 17.878906 29.25 29.761719 29.25 42 29.25 C 42 29.746094 42 30.238281 42 30.75 C 30.121094 30.75 18.238281 30.75 6 30.75 C 6 30.253906 6 29.761719 6 29.25 Z M 6 29.25 "/>
<path style=" stroke:none;fill-rule:nonzero;fill:rgb(0%,0%,0%);fill-opacity:1;" d="M 32.296875 17.199219 C 32.648438 17.199219 32.648438 17.199219 33.003906 17.199219 C 33.375 17.199219 33.375 17.199219 33.75 17.203125 C 33.996094 17.203125 34.242188 17.199219 34.496094 17.199219 C 34.730469 17.199219 34.960938 17.199219 35.203125 17.199219 C 35.417969 17.199219 35.632812 17.199219 35.855469 17.203125 C 36.375 17.25 36.375 17.25 36.75 17.625 C 36.796875 18.007812 36.796875 18.007812 36.800781 18.46875 C 36.800781 18.71875 36.800781 18.71875 36.800781 18.972656 C 36.800781 19.144531 36.796875 19.320312 36.796875 19.5 C 36.796875 19.761719 36.796875 19.761719 36.800781 20.027344 C 36.800781 20.195312 36.800781 20.359375 36.800781 20.53125 C 36.796875 20.683594 36.796875 20.835938 36.796875 20.992188 C 36.75 21.375 36.75 21.375 36.375 21.75 C 35.953125 21.792969 35.953125 21.792969 35.4375 21.785156 C 35.25 21.785156 35.066406 21.785156 34.875 21.78125 C 34.585938 21.777344 34.585938 21.777344 34.289062 21.773438 C 34.09375 21.769531 33.898438 21.769531 33.699219 21.769531 C 33.214844 21.765625 32.730469 21.757812 32.25 21.75 C 32.25 22.742188 32.25 23.730469 32.25 24.75 C 31.753906 24.75 31.261719 24.75 30.75 24.75 C 30.742188 23.742188 30.734375 22.734375 30.730469 21.726562 C 30.726562 21.382812 30.726562 21.039062 30.722656 20.695312 C 30.714844 20.207031 30.714844 19.710938 30.710938 19.21875 C 30.710938 19.066406 30.707031 18.910156 30.707031 18.753906 C 30.707031 18.378906 30.726562 18 30.75 17.625 C 31.265625 17.109375 31.574219 17.203125 32.296875 17.199219 Z M 32.296875 17.199219 "/>
<path style=" stroke:none;fill-rule:nonzero;fill:rgb(0%,0%,0%);fill-opacity:1;" d="M 11.25 17.25 C 11.746094 17.25 12.238281 17.25 12.75 17.25 C 12.75 18.238281 12.75 19.230469 12.75 20.25 C 13.738281 20.25 14.730469 20.25 15.75 20.25 C 15.75 19.261719 15.75 18.269531 15.75 17.25 C 16.246094 17.25 16.738281 17.25 17.25 17.25 C 17.25 19.726562 17.25 22.199219 17.25 24.75 C 16.753906 24.75 16.261719 24.75 15.75 24.75 C 15.75 23.761719 15.75 22.769531 15.75 21.75 C 14.761719 21.75 13.769531 21.75 12.75 21.75 C 12.75 22.738281 12.75 23.730469 12.75 24.75 C 12.253906 24.75 11.761719 24.75 11.25 24.75 C 11.25 22.273438 11.25 19.800781 11.25 17.25 Z M 11.25 17.25 "/>
<path style=" stroke:none;fill-rule:nonzero;fill:rgb(94.901961%,60.000002%,9.803922%);fill-opacity:1;" d="M 6 34.5 C 8.476562 34.5 10.949219 34.5 13.5 34.5 C 13.5 35.488281 13.5 36.480469 13.5 37.5 C 11.023438 37.5 8.550781 37.5 6 37.5 C 6 36.511719 6 35.519531 6 34.5 Z M 6 34.5 "/>
<path style=" stroke:none;fill-rule:nonzero;fill:rgb(1.568628%,1.568628%,1.568628%);fill-opacity:1;" d="M 8.664062 16.140625 C 9 16.3125 9 16.3125 9.375 16.6875 C 9.328125 17.410156 8.929688 17.757812 8.429688 18.25 C 8.277344 18.398438 8.128906 18.550781 7.972656 18.703125 C 7.734375 18.933594 7.734375 18.933594 7.488281 19.171875 C 7.246094 19.40625 7.246094 19.40625 7.003906 19.648438 C 6.609375 20.039062 6.210938 20.425781 5.8125 20.8125 C 6.085938 21.445312 6.429688 21.835938 6.929688 22.304688 C 7.070312 22.445312 7.214844 22.582031 7.363281 22.722656 C 7.667969 23.011719 7.972656 23.300781 8.277344 23.585938 C 8.492188 23.796875 8.492188 23.796875 8.710938 24.003906 C 8.839844 24.128906 8.972656 24.257812 9.109375 24.382812 C 9.375 24.75 9.375 24.75 9.347656 25.148438 C 9.1875 25.5 9.1875 25.5 8.8125 25.875 C 8.027344 25.847656 7.5625 25.28125 7.039062 24.757812 C 6.945312 24.664062 6.851562 24.570312 6.75 24.476562 C 6.550781 24.277344 6.351562 24.082031 6.152344 23.882812 C 5.847656 23.578125 5.539062 23.28125 5.230469 22.980469 C 5.035156 22.789062 4.839844 22.597656 4.648438 22.402344 C 4.554688 22.3125 4.460938 22.226562 4.367188 22.132812 C 3.96875 21.726562 3.753906 21.484375 3.730469 20.90625 C 4.003906 20.289062 4.402344 19.863281 4.875 19.394531 C 5.015625 19.253906 5.015625 19.253906 5.15625 19.109375 C 5.355469 18.910156 5.554688 18.710938 5.753906 18.511719 C 6.058594 18.210938 6.359375 17.902344 6.660156 17.597656 C 6.851562 17.402344 7.046875 17.210938 7.238281 17.015625 C 7.328125 16.925781 7.417969 16.832031 7.511719 16.738281 C 8.144531 16.121094 8.144531 16.121094 8.664062 16.140625 Z M 8.664062 16.140625 "/>
<path style=" stroke:none;fill-rule:nonzero;fill:rgb(1.176471%,1.176471%,1.176471%);fill-opacity:1;" d="M 39.375 16.125 C 40.421875 16.5625 41.160156 17.453125 41.953125 18.238281 C 42.246094 18.527344 42.542969 18.808594 42.835938 19.09375 C 43.023438 19.277344 43.207031 19.460938 43.394531 19.644531 C 43.5625 19.808594 43.730469 19.976562 43.90625 20.144531 C 44.25 20.625 44.25 20.625 44.269531 21.089844 C 43.996094 21.714844 43.585938 22.132812 43.101562 22.597656 C 43.003906 22.691406 42.910156 22.785156 42.8125 22.882812 C 42.507812 23.183594 42.199219 23.480469 41.894531 23.777344 C 41.6875 23.980469 41.480469 24.183594 41.273438 24.386719 C 40.769531 24.886719 40.261719 25.378906 39.75 25.875 C 39.042969 25.59375 39 25.5 38.625 24.75 C 39.800781 23.574219 40.976562 22.398438 42.1875 21.1875 C 41.84375 20.5 41.613281 20.203125 41.070312 19.691406 C 40.929688 19.554688 40.785156 19.417969 40.636719 19.273438 C 40.332031 18.984375 40.03125 18.699219 39.722656 18.414062 C 39.582031 18.273438 39.4375 18.136719 39.289062 17.996094 C 39.09375 17.808594 39.09375 17.808594 38.890625 17.617188 C 38.625 17.25 38.625 17.25 38.640625 16.851562 C 38.8125 16.5 38.8125 16.5 39.375 16.125 Z M 39.375 16.125 "/>
<path style=" stroke:none;fill-rule:nonzero;fill:rgb(0%,0%,0%);fill-opacity:1;" d="M 24.75 17.25 C 26.234375 17.25 27.71875 17.25 29.25 17.25 C 29.25 17.746094 29.25 18.238281 29.25 18.75 C 28.753906 18.75 28.261719 18.75 27.75 18.75 C 27.75 20.730469 27.75 22.710938 27.75 24.75 C 27.253906 24.75 26.761719 24.75 26.25 24.75 C 26.25 22.769531 26.25 20.789062 26.25 18.75 C 25.753906 18.75 25.261719 18.75 24.75 18.75 C 24.75 18.253906 24.75 17.761719 24.75 17.25 Z M 24.75 17.25 "/>
<path style=" stroke:none;fill-rule:nonzero;fill:rgb(0%,0%,0%);fill-opacity:1;" d="M 18.75 17.25 C 20.234375 17.25 21.71875 17.25 23.25 17.25 C 23.25 17.746094 23.25 18.238281 23.25 18.75 C 22.753906 18.75 22.261719 18.75 21.75 18.75 C 21.75 20.730469 21.75 22.710938 21.75 24.75 C 21.253906 24.75 20.761719 24.75 20.25 24.75 C 20.25 22.769531 20.25 20.789062 20.25 18.75 C 19.753906 18.75 19.261719 18.75 18.75 18.75 C 18.75 18.253906 18.75 17.761719 18.75 17.25 Z M 18.75 17.25 "/>
<path style=" stroke:none;fill-rule:nonzero;fill:rgb(80.000001%,89.019608%,91.764706%);fill-opacity:1;" d="M 32.25 18.75 C 33.238281 18.75 34.230469 18.75 35.25 18.75 C 35.25 19.246094 35.25 19.738281 35.25 20.25 C 34.261719 20.25 33.269531 20.25 32.25 20.25 C 32.25 19.753906 32.25 19.261719 32.25 18.75 Z M 32.25 18.75 "/>
<path style=" stroke:none;fill-rule:nonzero;fill:rgb(0%,0%,0%);fill-opacity:1;" d="M 9 8.25 C 9.496094 8.25 9.988281 8.25 10.5 8.25 C 10.5 8.746094 10.5 9.238281 10.5 9.75 C 10.003906 9.75 9.511719 9.75 9 9.75 C 9 9.253906 9 8.761719 9 8.25 Z M 9 8.25 "/>
<path style=" stroke:none;fill-rule:nonzero;fill:rgb(0%,0%,0%);fill-opacity:1;" d="M 6 8.25 C 6.496094 8.25 6.988281 8.25 7.5 8.25 C 7.5 8.746094 7.5 9.238281 7.5 9.75 C 7.003906 9.75 6.511719 9.75 6 9.75 C 6 9.253906 6 8.761719 6 8.25 Z M 6 8.25 "/>
<path style=" stroke:none;fill-rule:nonzero;fill:rgb(0%,0%,0%);fill-opacity:1;" d="M 3 8.25 C 3.496094 8.25 3.988281 8.25 4.5 8.25 C 4.5 8.746094 4.5 9.238281 4.5 9.75 C 4.003906 9.75 3.511719 9.75 3 9.75 C 3 9.253906 3 8.761719 3 8.25 Z M 3 8.25 "/>
</g>
</svg>
