<?xml version="1.0" encoding="UTF-8"?>
<svg xmlns="http://www.w3.org/2000/svg" xmlns:xlink="http://www.w3.org/1999/xlink" width="48" height="48" viewBox="0 0 48 48" version="1.1">
<g id="surface1">
<path style=" stroke:none;fill-rule:nonzero;fill:rgb(99.607843%,32.156864%,89.803922%);fill-opacity:1;" d="M 16.828125 5.355469 C 18.519531 6.675781 19.660156 8.382812 20.0625 10.5 C 20.226562 12.214844 20.128906 13.683594 19.441406 15.289062 C 19.273438 15.730469 19.273438 15.730469 19.417969 16.078125 C 19.816406 16.699219 20.324219 17.1875 20.847656 17.703125 C 20.96875 17.824219 21.085938 17.941406 21.210938 18.0625 C 21.601562 18.457031 21.996094 18.847656 22.390625 19.238281 C 22.664062 19.511719 22.933594 19.785156 23.207031 20.054688 C 23.925781 20.773438 24.644531 21.484375 25.363281 22.199219 C 26.097656 22.929688 26.828125 23.660156 27.5625 24.390625 C 29 25.824219 30.4375 27.257812 31.875 28.6875 C 32.003906 28.648438 32.128906 28.609375 32.257812 28.570312 C 32.425781 28.519531 32.59375 28.46875 32.765625 28.417969 C 32.929688 28.367188 33.09375 28.320312 33.265625 28.265625 C 35.410156 27.640625 37.726562 27.695312 39.75 28.6875 C 41.8125 29.867188 43.277344 31.582031 43.945312 33.882812 C 44.417969 36.386719 44.070312 38.691406 42.644531 40.828125 C 41.253906 42.605469 39.535156 43.660156 37.3125 44.0625 C 34.765625 44.316406 32.691406 43.832031 30.664062 42.246094 C 29.03125 40.757812 28.078125 38.96875 27.867188 36.769531 C 27.800781 35.3125 27.980469 34.0625 28.558594 32.710938 C 28.726562 32.269531 28.726562 32.269531 28.582031 31.921875 C 28.183594 31.296875 27.675781 30.8125 27.152344 30.296875 C 27.03125 30.175781 26.914062 30.058594 26.789062 29.933594 C 26.398438 29.542969 26.003906 29.152344 25.609375 28.761719 C 25.335938 28.488281 25.066406 28.21875 24.792969 27.945312 C 24.074219 27.226562 23.355469 26.511719 22.636719 25.796875 C 21.902344 25.070312 21.171875 24.339844 20.4375 23.609375 C 19 22.175781 17.5625 20.742188 16.125 19.3125 C 16 19.351562 15.875 19.390625 15.75 19.429688 C 15.582031 19.480469 15.417969 19.53125 15.246094 19.582031 C 15.082031 19.632812 14.917969 19.683594 14.753906 19.734375 C 12.585938 20.34375 10.292969 20.304688 8.25 19.3125 C 6.1875 18.132812 4.722656 16.417969 4.054688 14.121094 C 3.582031 11.613281 3.929688 9.308594 5.355469 7.171875 C 8.179688 3.554688 13.03125 2.820312 16.828125 5.355469 Z M 9 9.375 C 8.273438 10.386719 8.011719 11.3125 8.0625 12.5625 C 8.328125 13.804688 8.929688 14.679688 9.960938 15.421875 C 10.902344 15.914062 11.941406 16.070312 12.984375 15.847656 C 14.15625 15.445312 15.011719 14.820312 15.601562 13.699219 C 15.992188 12.683594 16.070312 11.65625 15.714844 10.628906 C 15.203125 9.488281 14.492188 8.707031 13.3125 8.25 C 11.65625 7.851562 10.222656 8.152344 9 9.375 Z M 33 33.375 C 32.273438 34.386719 32.011719 35.3125 32.0625 36.5625 C 32.328125 37.804688 32.929688 38.679688 33.960938 39.421875 C 34.902344 39.914062 35.941406 40.070312 36.984375 39.847656 C 38.15625 39.445312 39.011719 38.820312 39.601562 37.699219 C 39.992188 36.683594 40.070312 35.65625 39.714844 34.628906 C 39.203125 33.488281 38.492188 32.707031 37.3125 32.25 C 35.65625 31.851562 34.222656 32.152344 33 33.375 Z M 33 33.375 "/>
<path style=" stroke:none;fill-rule:nonzero;fill:rgb(99.607843%,32.156864%,89.803922%);fill-opacity:1;" d="M 40.828125 29.355469 C 42.519531 30.675781 43.660156 32.382812 44.0625 34.5 C 44.3125 37.085938 43.875 39.253906 42.246094 41.335938 C 40.703125 43.027344 38.882812 43.90625 36.609375 44.132812 C 34.078125 44.214844 32.066406 43.53125 30.1875 41.8125 C 28.4375 39.898438 27.757812 37.804688 27.863281 35.238281 C 27.984375 34.039062 28.335938 32.949219 28.875 31.875 C 29 31.875 29.121094 31.875 29.25 31.875 C 29.300781 31.765625 29.351562 31.652344 29.402344 31.542969 C 29.878906 30.644531 30.628906 29.777344 31.5 29.25 C 31.625 29.25 31.746094 29.25 31.875 29.25 C 31.875 29.125 31.875 29.003906 31.875 28.875 C 32.171875 28.753906 32.46875 28.632812 32.765625 28.511719 C 32.929688 28.445312 33.09375 28.375 33.265625 28.308594 C 35.796875 27.351562 38.625 27.882812 40.828125 29.355469 Z M 33 33.375 C 32.273438 34.386719 32.011719 35.3125 32.0625 36.5625 C 32.328125 37.804688 32.929688 38.679688 33.960938 39.421875 C 34.902344 39.914062 35.941406 40.070312 36.984375 39.847656 C 38.15625 39.445312 39.011719 38.820312 39.601562 37.699219 C 39.992188 36.683594 40.070312 35.65625 39.714844 34.628906 C 39.203125 33.488281 38.492188 32.707031 37.3125 32.25 C 35.65625 31.851562 34.222656 32.152344 33 33.375 Z M 33 33.375 "/>
<path style=" stroke:none;fill-rule:nonzero;fill:rgb(96.470588%,83.137256%,24.313726%);fill-opacity:1;" d="M 18.75 16.125 C 19.636719 16.289062 20.109375 16.839844 20.71875 17.460938 C 20.84375 17.578125 20.960938 17.699219 21.089844 17.824219 C 21.484375 18.222656 21.882812 18.617188 22.28125 19.019531 C 22.554688 19.292969 22.832031 19.570312 23.109375 19.84375 C 23.6875 20.425781 24.265625 21.003906 24.84375 21.582031 C 25.585938 22.328125 26.328125 23.070312 27.074219 23.8125 C 27.644531 24.378906 28.214844 24.949219 28.78125 25.519531 C 29.058594 25.792969 29.332031 26.066406 29.605469 26.34375 C 29.988281 26.722656 30.371094 27.105469 30.75 27.492188 C 30.867188 27.605469 30.980469 27.71875 31.097656 27.835938 C 31.875 28.625 31.875 28.625 31.875 29.25 C 31.539062 29.546875 31.539062 29.546875 31.089844 29.859375 C 30.28125 30.457031 29.785156 31.03125 29.25 31.875 C 28.660156 31.765625 28.355469 31.613281 27.933594 31.1875 C 27.828125 31.082031 27.71875 30.976562 27.609375 30.867188 C 27.496094 30.75 27.378906 30.632812 27.261719 30.515625 C 27.140625 30.390625 27.015625 30.269531 26.890625 30.140625 C 26.484375 29.734375 26.082031 29.328125 25.679688 28.921875 C 25.398438 28.640625 25.117188 28.359375 24.835938 28.078125 C 24.097656 27.335938 23.359375 26.59375 22.625 25.851562 C 21.875 25.09375 21.121094 24.335938 20.367188 23.582031 C 18.890625 22.097656 17.414062 20.613281 15.9375 19.125 C 16.425781 18.628906 16.902344 18.164062 17.449219 17.730469 C 18.03125 17.222656 18.355469 16.78125 18.75 16.125 Z M 18.75 16.125 "/>
</g>
</svg>
