<?xml version="1.0" encoding="UTF-8"?>
<svg xmlns="http://www.w3.org/2000/svg" xmlns:xlink="http://www.w3.org/1999/xlink" width="48" height="48" viewBox="0 0 48 48" version="1.1">
<g id="surface1">
<path style=" stroke:none;fill-rule:nonzero;fill:rgb(83.529413%,91.37255%,98.431373%);fill-opacity:1;" d="M 22.410156 1.644531 C 22.605469 1.648438 22.796875 1.648438 23 1.652344 C 23.210938 1.652344 23.421875 1.652344 23.636719 1.65625 C 23.859375 1.65625 24.078125 1.660156 24.304688 1.664062 C 24.636719 1.667969 24.636719 1.667969 24.976562 1.667969 C 25.527344 1.671875 26.074219 1.679688 26.625 1.6875 C 26.933594 2.308594 26.832031 3 26.824219 3.679688 C 26.824219 3.828125 26.820312 3.980469 26.820312 4.136719 C 26.820312 4.507812 26.816406 4.878906 26.8125 5.25 C 27.003906 5.273438 27.195312 5.292969 27.394531 5.316406 C 28.085938 5.429688 28.65625 5.601562 29.308594 5.859375 C 29.519531 5.941406 29.726562 6.023438 29.945312 6.109375 C 30.667969 6.421875 31.355469 6.78125 32.039062 7.175781 C 32.433594 7.355469 32.433594 7.355469 32.820312 7.199219 C 33.390625 6.792969 33.804688 6.265625 34.257812 5.734375 C 34.6875 5.4375 34.6875 5.4375 35.296875 5.449219 C 36.148438 5.660156 36.59375 6.0625 37.1875 6.671875 C 37.292969 6.773438 37.398438 6.878906 37.507812 6.988281 C 37.730469 7.210938 37.953125 7.433594 38.171875 7.660156 C 38.507812 8.003906 38.847656 8.339844 39.191406 8.679688 C 39.40625 8.894531 39.621094 9.113281 39.835938 9.332031 C 39.9375 9.429688 40.039062 9.53125 40.144531 9.632812 C 40.753906 10.269531 41.058594 10.734375 41.0625 11.625 C 40.730469 12.058594 40.441406 12.371094 40.042969 12.726562 C 39.945312 12.820312 39.84375 12.914062 39.742188 13.007812 C 39.496094 13.238281 39.25 13.464844 39 13.6875 C 39.046875 13.785156 39.097656 13.882812 39.148438 13.984375 C 39.367188 14.441406 39.589844 14.894531 39.808594 15.351562 C 39.882812 15.503906 39.960938 15.660156 40.039062 15.816406 C 41.25 18.34375 41.25 18.34375 41.25 19.6875 C 42.363281 19.6875 43.476562 19.6875 44.625 19.6875 C 44.839844 20.121094 44.835938 20.363281 44.835938 20.84375 C 44.835938 21.003906 44.835938 21.164062 44.839844 21.328125 C 44.835938 21.589844 44.835938 21.589844 44.835938 21.855469 C 44.835938 22.035156 44.835938 22.210938 44.835938 22.394531 C 44.835938 22.773438 44.835938 23.148438 44.835938 23.523438 C 44.835938 24.105469 44.835938 24.683594 44.835938 25.261719 C 44.835938 25.625 44.835938 25.992188 44.835938 26.355469 C 44.835938 26.53125 44.835938 26.703125 44.839844 26.882812 C 44.835938 27.125 44.835938 27.125 44.835938 27.371094 C 44.835938 27.511719 44.835938 27.652344 44.835938 27.800781 C 44.8125 28.125 44.8125 28.125 44.625 28.3125 C 44.375 28.328125 44.121094 28.332031 43.867188 28.328125 C 43.714844 28.328125 43.566406 28.328125 43.410156 28.328125 C 43.25 28.328125 43.089844 28.328125 42.925781 28.324219 C 42.765625 28.324219 42.605469 28.324219 42.441406 28.324219 C 42.042969 28.320312 41.644531 28.316406 41.25 28.3125 C 41.234375 28.425781 41.21875 28.539062 41.203125 28.65625 C 40.914062 30.664062 39.910156 32.519531 39 34.3125 C 39.148438 34.449219 39.300781 34.585938 39.457031 34.722656 C 39.652344 34.90625 39.847656 35.089844 40.042969 35.273438 C 40.140625 35.363281 40.242188 35.453125 40.347656 35.542969 C 40.628906 35.8125 40.628906 35.8125 41.0625 36.375 C 41.058594 37.269531 40.753906 37.730469 40.144531 38.367188 C 40.042969 38.464844 39.941406 38.566406 39.835938 38.671875 C 39.730469 38.777344 39.625 38.882812 39.519531 38.992188 C 39.296875 39.214844 39.074219 39.4375 38.851562 39.65625 C 38.507812 39.996094 38.171875 40.335938 37.839844 40.679688 C 37.621094 40.898438 37.40625 41.113281 37.1875 41.328125 C 37.085938 41.433594 36.992188 41.535156 36.886719 41.640625 C 36.1875 42.316406 35.664062 42.554688 34.6875 42.5625 C 34.148438 42.171875 34.148438 42.171875 33.667969 41.636719 C 33.507812 41.460938 33.34375 41.285156 33.175781 41.105469 C 33.054688 40.96875 32.9375 40.828125 32.8125 40.6875 C 32.007812 40.9375 31.265625 41.25 30.503906 41.613281 C 28.070312 42.75 28.070312 42.75 26.8125 42.75 C 26.816406 42.976562 26.816406 43.203125 26.820312 43.433594 C 26.820312 43.730469 26.820312 44.027344 26.824219 44.320312 C 26.824219 44.46875 26.828125 44.617188 26.828125 44.773438 C 26.832031 45.894531 26.832031 45.894531 26.625 46.3125 C 25.851562 46.324219 25.078125 46.328125 24.304688 46.335938 C 24.085938 46.339844 23.863281 46.34375 23.636719 46.34375 C 23.320312 46.347656 23.320312 46.347656 23 46.347656 C 22.804688 46.351562 22.609375 46.351562 22.410156 46.355469 C 21.9375 46.3125 21.9375 46.3125 21.5625 45.9375 C 21.515625 45.539062 21.515625 45.539062 21.515625 45.042969 C 21.511719 44.859375 21.511719 44.671875 21.511719 44.480469 C 21.511719 44.277344 21.511719 44.078125 21.511719 43.871094 C 21.511719 43.664062 21.511719 43.457031 21.511719 43.246094 C 21.511719 42.808594 21.511719 42.371094 21.515625 41.933594 C 21.515625 41.265625 21.515625 40.597656 21.511719 39.925781 C 21.511719 39.503906 21.511719 39.078125 21.511719 38.65625 C 21.511719 38.453125 21.511719 38.253906 21.511719 38.046875 C 21.511719 37.859375 21.511719 37.671875 21.515625 37.480469 C 21.515625 37.316406 21.515625 37.152344 21.515625 36.984375 C 21.5625 36.5625 21.5625 36.5625 21.9375 36 C 22.492188 35.890625 23.027344 35.808594 23.589844 35.742188 C 26.976562 35.269531 29.84375 33.875 31.933594 31.113281 C 33.976562 28.226562 34.644531 25 34.050781 21.492188 C 33.375 18.421875 31.433594 15.707031 28.816406 13.976562 C 26.824219 12.839844 24.804688 12.351562 22.542969 12.125 C 21.9375 12 21.9375 12 21.5625 11.4375 C 21.515625 11.015625 21.515625 11.015625 21.515625 10.519531 C 21.511719 10.332031 21.511719 10.144531 21.511719 9.953125 C 21.511719 9.753906 21.511719 9.550781 21.511719 9.34375 C 21.511719 9.140625 21.511719 8.933594 21.511719 8.71875 C 21.511719 8.28125 21.511719 7.847656 21.515625 7.410156 C 21.515625 6.742188 21.515625 6.070312 21.511719 5.402344 C 21.511719 4.976562 21.511719 4.554688 21.511719 4.128906 C 21.511719 3.828125 21.511719 3.828125 21.511719 3.519531 C 21.511719 3.335938 21.511719 3.148438 21.515625 2.957031 C 21.515625 2.792969 21.515625 2.628906 21.515625 2.460938 C 21.589844 1.839844 21.804688 1.699219 22.410156 1.644531 Z M 22.410156 1.644531 "/>
<path style=" stroke:none;fill-rule:nonzero;fill:rgb(0.784314%,0.784314%,0%);fill-opacity:1;" d="M 20.4375 4.875 C 20.972656 5.410156 20.875 5.945312 20.882812 6.660156 C 20.882812 6.800781 20.886719 6.941406 20.886719 7.082031 C 20.890625 7.378906 20.890625 7.675781 20.894531 7.96875 C 20.894531 8.425781 20.90625 8.875 20.914062 9.328125 C 20.914062 9.613281 20.914062 9.902344 20.917969 10.1875 C 20.921875 10.324219 20.925781 10.457031 20.929688 10.597656 C 20.925781 10.980469 20.925781 10.980469 20.8125 11.625 C 20.207031 12.117188 19.5625 12.308594 18.820312 12.527344 C 17.800781 12.847656 16.945312 13.292969 16.042969 13.863281 C 15.421875 14.121094 15.078125 14.058594 14.4375 13.875 C 14.007812 13.601562 13.6875 13.289062 13.3125 12.9375 C 12.695312 13.554688 12.074219 14.175781 11.4375 14.8125 C 11.765625 15.550781 11.765625 15.550781 12.222656 16.019531 C 12.5625 16.5 12.5625 16.5 12.527344 16.921875 C 12.339844 17.558594 12.054688 18.101562 11.742188 18.691406 C 11.25 19.632812 10.867188 20.550781 10.613281 21.582031 C 10.5 21.9375 10.5 21.9375 10.125 22.3125 C 9.433594 22.363281 8.757812 22.328125 8.0625 22.3125 C 8.0625 23.425781 8.0625 24.539062 8.0625 25.6875 C 8.390625 25.667969 8.71875 25.648438 9.058594 25.628906 C 9.617188 25.59375 9.617188 25.59375 10.125 25.6875 C 10.609375 26.292969 10.808594 26.945312 11.027344 27.679688 C 11.347656 28.703125 11.796875 29.566406 12.363281 30.472656 C 12.609375 31.039062 12.578125 31.296875 12.375 31.875 C 11.894531 32.402344 11.894531 32.402344 11.4375 32.8125 C 11.714844 33.460938 12.082031 33.871094 12.585938 34.359375 C 12.722656 34.492188 12.855469 34.625 12.996094 34.761719 C 13.101562 34.859375 13.207031 34.960938 13.3125 35.0625 C 13.453125 34.9375 13.453125 34.9375 13.601562 34.808594 C 13.730469 34.703125 13.859375 34.597656 13.992188 34.488281 C 14.179688 34.328125 14.179688 34.328125 14.375 34.164062 C 14.984375 33.847656 15.28125 33.9375 15.9375 34.125 C 16.363281 34.324219 16.785156 34.535156 17.203125 34.757812 C 18.140625 35.25 19.050781 35.632812 20.082031 35.886719 C 20.4375 36 20.4375 36 20.8125 36.375 C 20.851562 36.855469 20.863281 37.3125 20.863281 37.792969 C 20.863281 37.933594 20.863281 38.074219 20.863281 38.21875 C 20.863281 38.515625 20.863281 38.8125 20.859375 39.105469 C 20.859375 39.5625 20.859375 40.015625 20.863281 40.46875 C 20.863281 40.757812 20.863281 41.042969 20.863281 41.332031 C 20.863281 41.46875 20.863281 41.605469 20.863281 41.746094 C 20.855469 42.707031 20.855469 42.707031 20.4375 43.125 C 16.367188 43.457031 12.125 40.730469 9.164062 38.214844 C 5.613281 34.882812 3.304688 30.183594 3.125 25.289062 C 3.089844 22.828125 3.203125 20.542969 3.9375 18.1875 C 4.003906 17.976562 4.070312 17.765625 4.136719 17.542969 C 5.882812 12.574219 9.441406 8.785156 14.132812 6.433594 C 16.054688 5.5625 18.300781 4.722656 20.4375 4.875 Z M 20.4375 4.875 "/>
<path style=" stroke:none;fill-rule:nonzero;fill:rgb(1.176471%,1.176471%,1.176471%);fill-opacity:1;" d="M 22.410156 1.644531 C 22.605469 1.648438 22.796875 1.648438 23 1.652344 C 23.210938 1.652344 23.421875 1.652344 23.636719 1.65625 C 23.859375 1.65625 24.078125 1.660156 24.304688 1.664062 C 24.636719 1.667969 24.636719 1.667969 24.976562 1.667969 C 25.527344 1.671875 26.074219 1.679688 26.625 1.6875 C 26.933594 2.308594 26.832031 3 26.824219 3.679688 C 26.824219 3.828125 26.820312 3.980469 26.820312 4.136719 C 26.820312 4.507812 26.816406 4.878906 26.8125 5.25 C 27.003906 5.273438 27.195312 5.292969 27.394531 5.316406 C 28.085938 5.429688 28.65625 5.601562 29.308594 5.859375 C 29.519531 5.941406 29.726562 6.023438 29.945312 6.109375 C 30.667969 6.421875 31.355469 6.78125 32.039062 7.175781 C 32.433594 7.355469 32.433594 7.355469 32.820312 7.199219 C 33.390625 6.792969 33.804688 6.265625 34.257812 5.734375 C 34.6875 5.4375 34.6875 5.4375 35.296875 5.449219 C 36.148438 5.660156 36.59375 6.0625 37.1875 6.671875 C 37.292969 6.773438 37.398438 6.878906 37.507812 6.988281 C 37.730469 7.210938 37.953125 7.433594 38.171875 7.660156 C 38.507812 8.003906 38.847656 8.339844 39.191406 8.679688 C 39.40625 8.894531 39.621094 9.113281 39.835938 9.332031 C 39.9375 9.429688 40.039062 9.53125 40.144531 9.632812 C 40.753906 10.269531 41.058594 10.734375 41.0625 11.625 C 40.730469 12.058594 40.441406 12.371094 40.042969 12.726562 C 39.945312 12.820312 39.84375 12.914062 39.742188 13.007812 C 39.496094 13.238281 39.25 13.464844 39 13.6875 C 39.046875 13.785156 39.097656 13.882812 39.148438 13.984375 C 39.367188 14.441406 39.589844 14.894531 39.808594 15.351562 C 39.882812 15.503906 39.960938 15.660156 40.039062 15.816406 C 41.25 18.34375 41.25 18.34375 41.25 19.6875 C 42.363281 19.6875 43.476562 19.6875 44.625 19.6875 C 44.839844 20.121094 44.835938 20.363281 44.835938 20.84375 C 44.835938 21.003906 44.835938 21.164062 44.839844 21.328125 C 44.835938 21.589844 44.835938 21.589844 44.835938 21.855469 C 44.835938 22.035156 44.835938 22.210938 44.835938 22.394531 C 44.835938 22.773438 44.835938 23.148438 44.835938 23.523438 C 44.835938 24.105469 44.835938 24.683594 44.835938 25.261719 C 44.835938 25.625 44.835938 25.992188 44.835938 26.355469 C 44.835938 26.53125 44.835938 26.703125 44.839844 26.882812 C 44.835938 27.125 44.835938 27.125 44.835938 27.371094 C 44.835938 27.511719 44.835938 27.652344 44.835938 27.800781 C 44.8125 28.125 44.8125 28.125 44.625 28.3125 C 44.375 28.328125 44.121094 28.332031 43.867188 28.328125 C 43.714844 28.328125 43.566406 28.328125 43.410156 28.328125 C 43.25 28.328125 43.089844 28.328125 42.925781 28.324219 C 42.765625 28.324219 42.605469 28.324219 42.441406 28.324219 C 42.042969 28.320312 41.644531 28.316406 41.25 28.3125 C 41.234375 28.425781 41.21875 28.539062 41.203125 28.65625 C 40.914062 30.664062 39.910156 32.519531 39 34.3125 C 39.148438 34.449219 39.300781 34.585938 39.457031 34.722656 C 39.652344 34.90625 39.847656 35.089844 40.042969 35.273438 C 40.140625 35.363281 40.242188 35.453125 40.347656 35.542969 C 40.628906 35.8125 40.628906 35.8125 41.0625 36.375 C 41.058594 37.269531 40.753906 37.730469 40.144531 38.367188 C 40.042969 38.464844 39.941406 38.566406 39.835938 38.671875 C 39.730469 38.777344 39.625 38.882812 39.519531 38.992188 C 39.296875 39.214844 39.074219 39.4375 38.851562 39.65625 C 38.507812 39.996094 38.171875 40.335938 37.839844 40.679688 C 37.621094 40.898438 37.40625 41.113281 37.1875 41.328125 C 37.085938 41.433594 36.992188 41.535156 36.886719 41.640625 C 36.1875 42.316406 35.664062 42.554688 34.6875 42.5625 C 34.148438 42.171875 34.148438 42.171875 33.667969 41.636719 C 33.507812 41.460938 33.34375 41.285156 33.175781 41.105469 C 33.054688 40.96875 32.9375 40.828125 32.8125 40.6875 C 32.007812 40.9375 31.265625 41.25 30.503906 41.613281 C 28.070312 42.75 28.070312 42.75 26.8125 42.75 C 26.816406 42.976562 26.816406 43.203125 26.820312 43.433594 C 26.820312 43.730469 26.820312 44.027344 26.824219 44.320312 C 26.824219 44.46875 26.828125 44.617188 26.828125 44.773438 C 26.832031 45.894531 26.832031 45.894531 26.625 46.3125 C 25.851562 46.324219 25.078125 46.328125 24.304688 46.335938 C 24.085938 46.339844 23.863281 46.34375 23.636719 46.34375 C 23.320312 46.347656 23.320312 46.347656 23 46.347656 C 22.804688 46.351562 22.609375 46.351562 22.410156 46.355469 C 21.9375 46.3125 21.9375 46.3125 21.5625 45.9375 C 21.515625 45.539062 21.515625 45.539062 21.515625 45.042969 C 21.511719 44.859375 21.511719 44.671875 21.511719 44.480469 C 21.511719 44.277344 21.511719 44.078125 21.511719 43.871094 C 21.511719 43.664062 21.511719 43.457031 21.511719 43.246094 C 21.511719 42.808594 21.511719 42.371094 21.515625 41.933594 C 21.515625 41.265625 21.515625 40.597656 21.511719 39.925781 C 21.511719 39.503906 21.511719 39.078125 21.511719 38.65625 C 21.511719 38.453125 21.511719 38.253906 21.511719 38.046875 C 21.511719 37.859375 21.511719 37.671875 21.515625 37.480469 C 21.515625 37.316406 21.515625 37.152344 21.515625 36.984375 C 21.5625 36.5625 21.5625 36.5625 21.9375 36 C 22.492188 35.890625 23.027344 35.808594 23.589844 35.742188 C 26.976562 35.269531 29.84375 33.875 31.933594 31.113281 C 33.976562 28.226562 34.644531 25 34.050781 21.492188 C 33.375 18.421875 31.433594 15.707031 28.816406 13.976562 C 26.824219 12.839844 24.804688 12.351562 22.542969 12.125 C 21.9375 12 21.9375 12 21.5625 11.4375 C 21.515625 11.015625 21.515625 11.015625 21.515625 10.519531 C 21.511719 10.332031 21.511719 10.144531 21.511719 9.953125 C 21.511719 9.753906 21.511719 9.550781 21.511719 9.34375 C 21.511719 9.140625 21.511719 8.933594 21.511719 8.71875 C 21.511719 8.28125 21.511719 7.847656 21.515625 7.410156 C 21.515625 6.742188 21.515625 6.070312 21.511719 5.402344 C 21.511719 4.976562 21.511719 4.554688 21.511719 4.128906 C 21.511719 3.828125 21.511719 3.828125 21.511719 3.519531 C 21.511719 3.335938 21.511719 3.148438 21.515625 2.957031 C 21.515625 2.792969 21.515625 2.628906 21.515625 2.460938 C 21.589844 1.839844 21.804688 1.699219 22.410156 1.644531 Z M 23.25 3.1875 C 23.25 5.601562 23.25 8.015625 23.25 10.5 C 24.242188 10.6875 25.230469 10.871094 26.25 11.0625 C 29.890625 12.261719 32.710938 14.601562 34.5 18 C 35.945312 21.167969 36.359375 24.632812 35.320312 27.996094 C 33.769531 32.148438 31.226562 34.710938 27.1875 36.5625 C 26.25 36.9375 26.25 36.9375 23.25 37.5 C 23.25 39.914062 23.25 42.328125 23.25 44.8125 C 23.929688 44.8125 24.613281 44.8125 25.3125 44.8125 C 25.375 43.761719 25.4375 42.710938 25.5 41.625 C 26.195312 41.441406 26.195312 41.441406 26.90625 41.25 C 28.804688 40.714844 30.605469 39.90625 32.25 38.8125 C 32.699219 38.734375 32.699219 38.734375 33.1875 38.8125 C 33.621094 39.1875 33.621094 39.1875 34.042969 39.667969 C 34.445312 40.148438 34.445312 40.148438 34.875 40.5 C 35.597656 40.449219 35.945312 40.054688 36.4375 39.554688 C 36.585938 39.402344 36.734375 39.25 36.890625 39.097656 C 37.042969 38.9375 37.199219 38.777344 37.359375 38.613281 C 37.515625 38.453125 37.675781 38.292969 37.835938 38.128906 C 38.226562 37.734375 38.613281 37.335938 39 36.9375 C 38.648438 36.191406 38.207031 35.78125 37.585938 35.246094 C 37.191406 34.714844 37.222656 34.398438 37.3125 33.75 C 37.59375 33.210938 37.59375 33.210938 37.980469 32.625 C 39.058594 30.894531 39.5625 28.945312 40.125 27 C 41.703125 26.90625 41.703125 26.90625 43.3125 26.8125 C 43.3125 24.957031 43.3125 23.101562 43.3125 21.1875 C 42.261719 21.125 41.210938 21.0625 40.125 21 C 40.0625 20.761719 39.996094 20.523438 39.933594 20.277344 C 39.097656 17.03125 39.097656 17.03125 37.3125 14.25 C 37.222656 13.53125 37.230469 13.230469 37.683594 12.644531 C 37.835938 12.503906 37.996094 12.359375 38.15625 12.210938 C 38.390625 11.992188 38.390625 11.992188 38.632812 11.765625 C 38.753906 11.65625 38.875 11.546875 39 11.4375 C 38.570312 10.453125 37.800781 9.785156 37.054688 9.035156 C 36.839844 8.808594 36.839844 8.808594 36.617188 8.582031 C 36.476562 8.4375 36.335938 8.296875 36.195312 8.152344 C 36.066406 8.023438 35.941406 7.890625 35.808594 7.757812 C 35.457031 7.457031 35.457031 7.457031 35.039062 7.53125 C 34.410156 7.808594 34.027344 8.359375 33.582031 8.867188 C 33.1875 9.1875 33.1875 9.1875 32.722656 9.265625 C 32.175781 9.175781 31.882812 9.007812 31.429688 8.695312 C 29.613281 7.550781 27.574219 6.886719 25.5 6.375 C 25.4375 5.324219 25.375 4.273438 25.3125 3.1875 C 24.632812 3.1875 23.953125 3.1875 23.25 3.1875 Z M 23.25 3.1875 "/>
<path style=" stroke:none;fill-rule:nonzero;fill:rgb(97.254902%,67.843139%,15.294118%);fill-opacity:1;" d="M 19.3125 6.5625 C 19.3125 7.921875 19.3125 9.285156 19.3125 10.6875 C 18.972656 10.796875 18.632812 10.90625 18.28125 11.015625 C 17.554688 11.253906 16.886719 11.511719 16.21875 11.882812 C 15.5625 12.1875 15.5625 12.1875 15.183594 12.050781 C 14.832031 11.824219 14.550781 11.59375 14.25 11.308594 C 13.757812 10.832031 13.757812 10.832031 13.332031 10.894531 C 12.433594 11.277344 11.777344 12.117188 11.097656 12.796875 C 10.929688 12.957031 10.761719 13.121094 10.589844 13.285156 C 10.429688 13.441406 10.273438 13.597656 10.109375 13.761719 C 9.964844 13.902344 9.820312 14.046875 9.667969 14.195312 C 9.324219 14.609375 9.324219 14.609375 9.40625 15.128906 C 9.578125 15.609375 9.761719 15.839844 10.136719 16.183594 C 10.316406 16.351562 10.5 16.515625 10.6875 16.6875 C 10.335938 17.570312 9.972656 18.449219 9.605469 19.324219 C 9.398438 19.820312 9.195312 20.316406 9 20.8125 C 8.855469 20.824219 8.707031 20.835938 8.554688 20.847656 C 8.367188 20.863281 8.175781 20.878906 7.980469 20.894531 C 7.789062 20.910156 7.601562 20.925781 7.40625 20.941406 C 6.949219 20.949219 6.949219 20.949219 6.75 21.1875 C 6.730469 21.601562 6.726562 22.015625 6.726562 22.429688 C 6.726562 22.554688 6.726562 22.679688 6.722656 22.804688 C 6.722656 23.066406 6.726562 23.332031 6.726562 23.59375 C 6.726562 24 6.726562 24.402344 6.722656 24.804688 C 6.722656 25.0625 6.726562 25.316406 6.726562 25.570312 C 6.726562 25.804688 6.726562 26.039062 6.726562 26.277344 C 6.6875 26.792969 6.6875 26.792969 6.9375 27 C 7.316406 27.042969 7.695312 27.078125 8.074219 27.105469 C 8.386719 27.128906 8.386719 27.128906 8.703125 27.152344 C 8.859375 27.164062 9.023438 27.175781 9.1875 27.1875 C 9.21875 27.300781 9.246094 27.414062 9.277344 27.53125 C 9.578125 28.617188 9.972656 29.546875 10.539062 30.519531 C 10.6875 30.9375 10.6875 30.9375 10.554688 31.339844 C 10.3125 31.6875 10.3125 31.6875 9.808594 32.144531 C 9.320312 32.574219 9.320312 32.574219 9.398438 33.070312 C 9.714844 34.011719 10.5 34.625 11.191406 35.308594 C 11.34375 35.464844 11.492188 35.621094 11.648438 35.785156 C 11.796875 35.933594 11.945312 36.078125 12.09375 36.234375 C 12.230469 36.367188 12.363281 36.503906 12.503906 36.644531 C 13.058594 37.019531 13.402344 37.011719 14.0625 36.9375 C 14.429688 36.703125 14.429688 36.703125 14.695312 36.375 C 14.859375 36.1875 15.019531 36.003906 15.1875 35.8125 C 16.164062 36.125 17.09375 36.511719 18.039062 36.914062 C 18.589844 37.148438 18.589844 37.148438 19.3125 37.3125 C 19.3125 38.671875 19.3125 40.035156 19.3125 41.4375 C 15.597656 40.929688 12.597656 39.144531 9.9375 36.5625 C 9.746094 36.390625 9.746094 36.390625 9.550781 36.214844 C 6.867188 33.738281 5.652344 30.285156 4.875 26.8125 C 4.835938 26.683594 4.800781 26.558594 4.761719 26.425781 C 3.945312 22.492188 5.25 18.398438 7.125 15 C 7.21875 14.820312 7.3125 14.640625 7.40625 14.457031 C 9.503906 10.785156 13.34375 8.117188 17.339844 6.933594 C 18.769531 6.5625 18.769531 6.5625 19.3125 6.5625 Z M 19.3125 6.5625 "/>
<path style=" stroke:none;fill-rule:nonzero;fill:rgb(0%,0%,0%);fill-opacity:1;" d="M 22.617188 17.109375 C 23.0625 17.25 23.0625 17.25 23.25 17.4375 C 23.273438 17.820312 23.28125 18.203125 23.289062 18.585938 C 23.292969 18.816406 23.300781 19.050781 23.304688 19.292969 C 23.316406 19.789062 23.324219 20.285156 23.328125 20.78125 C 23.335938 21.015625 23.34375 21.25 23.347656 21.492188 C 23.351562 21.707031 23.355469 21.921875 23.359375 22.144531 C 23.449219 22.753906 23.558594 22.855469 24 23.25 C 24.140625 24.515625 24.140625 24.515625 23.71875 25.21875 C 23.074219 25.605469 22.484375 25.660156 21.75 25.5 C 21.644531 25.40625 21.539062 25.316406 21.429688 25.21875 C 20.777344 24.792969 20.132812 24.839844 19.371094 24.820312 C 17.832031 24.769531 17.832031 24.769531 17.625 24.5625 C 17.601562 24 17.601562 24 17.625 23.4375 C 18.054688 23.007812 19.234375 23.171875 19.84375 23.152344 C 20.695312 23.152344 20.695312 23.152344 21.375 22.6875 C 21.4375 22.167969 21.4375 22.167969 21.433594 21.5625 C 21.4375 21.339844 21.441406 21.113281 21.445312 20.882812 C 21.453125 20.40625 21.460938 19.929688 21.464844 19.453125 C 21.46875 19.230469 21.476562 19.003906 21.480469 18.773438 C 21.484375 18.566406 21.484375 18.359375 21.488281 18.148438 C 21.5625 17.625 21.5625 17.625 21.820312 17.269531 C 22.125 17.0625 22.125 17.0625 22.617188 17.109375 Z M 22.617188 17.109375 "/>
<path style=" stroke:none;fill-rule:nonzero;fill:rgb(0%,0%,0%);fill-opacity:1;" d="M 21.9375 13.5 C 22.523438 13.464844 22.523438 13.464844 23.0625 13.5 C 23.285156 13.941406 23.28125 14.226562 23.285156 14.71875 C 23.289062 14.867188 23.292969 15.015625 23.292969 15.171875 C 23.25 15.5625 23.25 15.5625 22.875 15.9375 C 22.300781 15.890625 22.300781 15.890625 21.75 15.75 C 21.46875 15.183594 21.527344 14.6875 21.5625 14.0625 C 21.6875 13.875 21.808594 13.691406 21.9375 13.5 Z M 21.9375 13.5 "/>
<path style=" stroke:none;fill-rule:nonzero;fill:rgb(0%,0%,0%);fill-opacity:1;" d="M 22.617188 32.109375 C 23.0625 32.25 23.0625 32.25 23.25 32.4375 C 23.28125 32.8125 23.28125 32.8125 23.285156 33.269531 C 23.289062 33.421875 23.289062 33.570312 23.292969 33.726562 C 23.25 34.125 23.25 34.125 22.875 34.5 C 22.40625 34.558594 22.40625 34.558594 21.9375 34.5 C 21.476562 33.808594 21.492188 33.445312 21.5625 32.625 C 21.878906 32.09375 22 32.050781 22.617188 32.109375 Z M 22.617188 32.109375 "/>
<path style=" stroke:none;fill-rule:nonzero;fill:rgb(0%,0%,0%);fill-opacity:1;" d="M 12.65625 23.230469 C 12.941406 23.234375 12.941406 23.234375 13.230469 23.238281 C 13.421875 23.238281 13.609375 23.242188 13.804688 23.242188 C 14.027344 23.246094 14.027344 23.246094 14.25 23.25 C 14.460938 24.328125 14.460938 24.328125 14.25 24.75 C 13.910156 24.753906 13.570312 24.757812 13.230469 24.761719 C 13.042969 24.761719 12.851562 24.765625 12.65625 24.769531 C 12.1875 24.75 12.1875 24.75 12 24.5625 C 11.976562 24 11.976562 24 12 23.4375 C 12.1875 23.25 12.1875 23.25 12.65625 23.230469 Z M 12.65625 23.230469 "/>
<path style=" stroke:none;fill-rule:nonzero;fill:rgb(0%,0%,0%);fill-opacity:1;" d="M 30.75 23.25 C 31.429688 23.25 32.109375 23.25 32.8125 23.25 C 32.929688 23.789062 32.929688 23.789062 33 24.375 C 32.625 24.75 32.625 24.75 32.183594 24.792969 C 32.015625 24.792969 31.847656 24.789062 31.675781 24.785156 C 31.507812 24.785156 31.339844 24.78125 31.164062 24.78125 C 30.75 24.75 30.75 24.75 30.5625 24.5625 C 30.617188 24.125 30.679688 23.6875 30.75 23.25 Z M 30.75 23.25 "/>
</g>
</svg>
