<?xml version="1.0" encoding="UTF-8"?>
<svg xmlns="http://www.w3.org/2000/svg" xmlns:xlink="http://www.w3.org/1999/xlink" width="48" height="48" viewBox="0 0 48 48" version="1.1">
<g id="surface1">
<path style=" stroke:none;fill-rule:nonzero;fill:rgb(34.901962%,65.490198%,99.607843%);fill-opacity:1;" d="M 33.75 0.5625 C 33.949219 0.597656 34.148438 0.628906 34.355469 0.664062 C 36.539062 1.03125 38.703125 1.484375 40.839844 2.074219 C 41.082031 2.140625 41.082031 2.140625 41.328125 2.207031 C 41.476562 2.25 41.625 2.292969 41.78125 2.339844 C 41.910156 2.375 42.039062 2.414062 42.171875 2.449219 C 42.722656 2.695312 43.074219 2.945312 43.5 3.375 C 43.59375 3.902344 43.628906 4.316406 43.621094 4.847656 C 43.621094 4.996094 43.625 5.144531 43.625 5.296875 C 43.628906 5.800781 43.628906 6.300781 43.625 6.800781 C 43.625 7.160156 43.628906 7.519531 43.628906 7.878906 C 43.636719 8.855469 43.636719 9.828125 43.632812 10.804688 C 43.632812 11.617188 43.632812 12.429688 43.632812 13.242188 C 43.636719 15.164062 43.636719 17.082031 43.632812 19 C 43.628906 20.980469 43.632812 22.964844 43.640625 24.941406 C 43.644531 26.644531 43.644531 28.34375 43.644531 30.042969 C 43.640625 31.058594 43.640625 32.074219 43.648438 33.089844 C 43.652344 34.042969 43.648438 35 43.644531 35.953125 C 43.640625 36.304688 43.644531 36.65625 43.644531 37.007812 C 43.648438 37.484375 43.644531 37.964844 43.640625 38.441406 C 43.644531 38.648438 43.644531 38.648438 43.648438 38.863281 C 43.640625 39.390625 43.605469 39.8125 43.257812 40.226562 C 42.660156 40.734375 41.992188 41.117188 41.296875 41.476562 C 41.09375 41.578125 40.886719 41.6875 40.675781 41.796875 C 40.457031 41.90625 40.242188 42.015625 40.019531 42.128906 C 39.792969 42.246094 39.5625 42.363281 39.335938 42.476562 C 38.664062 42.820312 37.988281 43.160156 37.3125 43.5 C 37.128906 43.59375 36.949219 43.683594 36.761719 43.777344 C 25.847656 49.21875 25.847656 49.21875 20.25 47.507812 C 20 47.421875 19.75 47.335938 19.5 47.25 C 19.359375 47.203125 19.21875 47.152344 19.074219 47.105469 C 14.382812 45.464844 9.144531 43.378906 5.0625 40.5 C 4.964844 40.433594 4.867188 40.363281 4.765625 40.296875 C 4.355469 39.738281 4.421875 39.152344 4.425781 38.484375 C 4.425781 38.339844 4.421875 38.1875 4.421875 38.035156 C 4.417969 37.53125 4.421875 37.03125 4.421875 36.527344 C 4.417969 36.171875 4.417969 35.8125 4.414062 35.453125 C 4.410156 34.476562 4.410156 33.5 4.410156 32.523438 C 4.410156 31.707031 4.410156 30.890625 4.40625 30.078125 C 4.40625 28.15625 4.40625 26.238281 4.40625 24.316406 C 4.40625 22.332031 4.402344 20.347656 4.398438 18.363281 C 4.390625 16.664062 4.386719 14.960938 4.390625 13.261719 C 4.390625 12.242188 4.386719 11.226562 4.382812 10.207031 C 4.378906 9.25 4.378906 8.296875 4.382812 7.339844 C 4.382812 6.988281 4.382812 6.636719 4.378906 6.285156 C 4.378906 5.808594 4.378906 5.328125 4.382812 4.847656 C 4.382812 4.710938 4.378906 4.570312 4.375 4.425781 C 4.390625 3.714844 4.441406 3.433594 4.953125 2.917969 C 5.382812 2.660156 5.738281 2.476562 6.21875 2.339844 C 6.441406 2.273438 6.441406 2.273438 6.671875 2.207031 C 6.832031 2.164062 6.992188 2.117188 7.160156 2.074219 C 7.332031 2.027344 7.503906 1.980469 7.679688 1.929688 C 9.847656 1.351562 12.039062 0.933594 14.25 0.5625 C 14.425781 0.53125 14.601562 0.5 14.785156 0.46875 C 20.832031 -0.566406 27.710938 -0.507812 33.75 0.5625 Z M 33.75 0.5625 "/>
<path style=" stroke:none;fill-rule:nonzero;fill:rgb(19.215687%,38.039216%,58.823532%);fill-opacity:1;" d="M 24 0 C 29.742188 -0.09375 35.296875 0.542969 40.839844 2.074219 C 41 2.117188 41.160156 2.160156 41.328125 2.207031 C 41.476562 2.25 41.625 2.292969 41.78125 2.339844 C 41.910156 2.375 42.039062 2.414062 42.171875 2.449219 C 42.722656 2.695312 43.074219 2.945312 43.5 3.375 C 43.59375 3.902344 43.628906 4.316406 43.621094 4.847656 C 43.621094 4.996094 43.625 5.144531 43.625 5.296875 C 43.628906 5.800781 43.628906 6.300781 43.625 6.800781 C 43.625 7.160156 43.628906 7.519531 43.628906 7.878906 C 43.636719 8.855469 43.636719 9.828125 43.632812 10.804688 C 43.632812 11.617188 43.632812 12.429688 43.632812 13.242188 C 43.636719 15.164062 43.636719 17.082031 43.632812 19 C 43.628906 20.980469 43.632812 22.964844 43.640625 24.941406 C 43.644531 26.644531 43.644531 28.34375 43.644531 30.042969 C 43.640625 31.058594 43.640625 32.074219 43.648438 33.089844 C 43.652344 34.042969 43.648438 35 43.644531 35.953125 C 43.640625 36.304688 43.644531 36.65625 43.644531 37.007812 C 43.648438 37.484375 43.644531 37.964844 43.640625 38.441406 C 43.644531 38.578125 43.644531 38.71875 43.648438 38.863281 C 43.640625 39.390625 43.605469 39.8125 43.257812 40.226562 C 42.660156 40.734375 41.992188 41.117188 41.296875 41.476562 C 41.09375 41.578125 40.886719 41.6875 40.675781 41.796875 C 40.351562 41.960938 40.351562 41.960938 40.019531 42.128906 C 39.792969 42.246094 39.5625 42.363281 39.335938 42.476562 C 38.664062 42.820312 37.988281 43.160156 37.3125 43.5 C 37.128906 43.59375 36.949219 43.683594 36.761719 43.777344 C 33.519531 45.390625 30.136719 46.898438 26.625 47.8125 C 26.484375 47.851562 26.34375 47.886719 26.199219 47.921875 C 25.472656 48.03125 24.734375 48 24 48 C 24 44.289062 24 40.574219 24 36.75 C 29.097656 36.714844 29.097656 36.714844 30.703125 36.710938 C 31.125 36.707031 31.546875 36.703125 31.964844 36.695312 C 32.292969 36.695312 32.292969 36.695312 32.625 36.699219 C 32.835938 36.695312 33.042969 36.691406 33.257812 36.6875 C 33.53125 36.683594 33.53125 36.683594 33.808594 36.683594 C 34.535156 36.511719 34.808594 36.222656 35.25 35.625 C 35.34375 35.089844 35.378906 34.667969 35.367188 34.136719 C 35.371094 33.988281 35.371094 33.84375 35.371094 33.691406 C 35.375 33.207031 35.371094 32.722656 35.367188 32.238281 C 35.367188 31.898438 35.367188 31.5625 35.371094 31.226562 C 35.371094 30.519531 35.367188 29.8125 35.363281 29.109375 C 35.355469 28.203125 35.355469 27.296875 35.359375 26.390625 C 35.363281 25.695312 35.359375 25 35.355469 24.300781 C 35.355469 23.96875 35.355469 23.632812 35.359375 23.300781 C 35.359375 22.832031 35.355469 22.367188 35.347656 21.902344 C 35.351562 21.765625 35.351562 21.625 35.351562 21.484375 C 35.34375 20.835938 35.296875 20.496094 34.890625 19.976562 C 34.460938 19.660156 34.257812 19.589844 33.730469 19.574219 C 33.515625 19.5625 33.515625 19.5625 33.300781 19.554688 C 33.15625 19.550781 33.007812 19.546875 32.859375 19.546875 C 32.636719 19.539062 32.636719 19.539062 32.410156 19.53125 C 32.042969 19.515625 31.679688 19.507812 31.3125 19.5 C 31.3125 19.347656 31.3125 19.195312 31.3125 19.039062 C 31.304688 18.464844 31.296875 17.886719 31.285156 17.308594 C 31.277344 16.945312 31.273438 16.578125 31.273438 16.210938 C 31.21875 13.804688 30.644531 11.871094 28.929688 10.140625 C 27.386719 8.738281 26.246094 8.625 24 8.0625 C 24 5.402344 24 2.742188 24 0 Z M 24 0 "/>
<path style=" stroke:none;fill-rule:nonzero;fill:rgb(99.215686%,50.196081%,21.176471%);fill-opacity:1;" d="M 15.519531 19.378906 C 15.722656 19.375 15.925781 19.375 16.136719 19.375 C 16.808594 19.371094 17.480469 19.375 18.152344 19.375 C 18.617188 19.375 19.085938 19.375 19.554688 19.375 C 20.660156 19.371094 21.761719 19.375 22.867188 19.378906 C 23.75 19.382812 24.628906 19.382812 25.507812 19.378906 C 26.722656 19.375 27.9375 19.371094 29.152344 19.375 C 29.617188 19.375 30.078125 19.375 30.539062 19.375 C 31.1875 19.371094 31.832031 19.375 32.480469 19.378906 C 32.671875 19.375 32.863281 19.375 33.0625 19.375 C 33.90625 19.386719 34.367188 19.414062 35.085938 19.882812 C 35.523438 20.574219 35.570312 21.128906 35.554688 21.921875 C 35.558594 22.070312 35.558594 22.21875 35.558594 22.367188 C 35.5625 22.851562 35.558594 23.335938 35.554688 23.820312 C 35.554688 24.15625 35.554688 24.492188 35.558594 24.828125 C 35.558594 25.535156 35.554688 26.238281 35.550781 26.945312 C 35.542969 27.851562 35.542969 28.75 35.546875 29.65625 C 35.550781 30.351562 35.546875 31.046875 35.542969 31.742188 C 35.542969 32.078125 35.542969 32.40625 35.546875 32.742188 C 35.546875 33.207031 35.542969 33.671875 35.535156 34.140625 C 35.539062 34.277344 35.539062 34.414062 35.539062 34.554688 C 35.523438 35.460938 35.332031 35.925781 34.6875 36.5625 C 34.246094 36.78125 33.984375 36.773438 33.492188 36.773438 C 33.234375 36.773438 33.234375 36.773438 32.96875 36.777344 C 32.78125 36.773438 32.589844 36.773438 32.394531 36.773438 C 32.097656 36.773438 32.097656 36.773438 31.789062 36.773438 C 31.125 36.777344 30.464844 36.773438 29.800781 36.773438 C 29.460938 36.773438 29.460938 36.773438 29.113281 36.769531 C 27.789062 36.769531 26.460938 36.765625 25.132812 36.757812 C 24.246094 36.75 23.363281 36.75 22.476562 36.746094 C 21.238281 36.742188 20.007812 36.734375 18.769531 36.71875 C 18.296875 36.71875 17.820312 36.714844 17.347656 36.714844 C 16.683594 36.710938 16.023438 36.703125 15.363281 36.695312 C 15.164062 36.695312 14.964844 36.695312 14.761719 36.699219 C 14.492188 36.691406 14.492188 36.691406 14.214844 36.6875 C 14.058594 36.683594 13.902344 36.683594 13.738281 36.683594 C 13.085938 36.5 12.898438 36.203125 12.5625 35.625 C 12.488281 35.105469 12.457031 34.65625 12.464844 34.140625 C 12.460938 33.917969 12.460938 33.917969 12.457031 33.695312 C 12.453125 33.210938 12.453125 32.726562 12.457031 32.246094 C 12.457031 31.90625 12.453125 31.570312 12.453125 31.234375 C 12.449219 30.527344 12.453125 29.824219 12.453125 29.117188 C 12.457031 28.214844 12.453125 27.308594 12.445312 26.40625 C 12.441406 25.710938 12.441406 25.015625 12.445312 24.320312 C 12.445312 23.988281 12.441406 23.652344 12.441406 23.320312 C 12.4375 22.855469 12.441406 22.390625 12.445312 21.921875 C 12.441406 21.785156 12.441406 21.648438 12.4375 21.507812 C 12.449219 20.839844 12.554688 20.453125 12.914062 19.882812 C 13.773438 19.324219 14.511719 19.371094 15.519531 19.378906 Z M 15.519531 19.378906 "/>
<path style=" stroke:none;fill-rule:nonzero;fill:rgb(99.215686%,73.725492%,35.294119%);fill-opacity:1;" d="M 14.570312 19.394531 C 14.78125 19.394531 14.992188 19.394531 15.207031 19.394531 C 15.433594 19.398438 15.65625 19.402344 15.886719 19.410156 C 16.121094 19.410156 16.351562 19.410156 16.589844 19.414062 C 17.203125 19.417969 17.816406 19.425781 18.429688 19.433594 C 19.058594 19.445312 19.683594 19.449219 20.3125 19.453125 C 21.542969 19.464844 22.773438 19.480469 24 19.5 C 24 21.171875 24 22.839844 24 24.5625 C 24.125 24.625 24.246094 24.6875 24.375 24.75 C 24.054688 24.835938 24.054688 24.835938 23.730469 24.925781 C 23.101562 25.054688 23.101562 25.054688 22.875 25.3125 C 22.828125 26.078125 22.832031 26.847656 22.828125 27.621094 C 22.828125 28.003906 22.820312 28.390625 22.816406 28.777344 C 22.816406 29.019531 22.816406 29.261719 22.8125 29.511719 C 22.8125 29.734375 22.808594 29.960938 22.808594 30.191406 C 22.828125 30.746094 22.828125 30.746094 23.125 31.097656 C 23.460938 31.347656 23.460938 31.347656 24 31.5 C 24 33.171875 24 34.839844 24 36.5625 C 22.621094 36.582031 21.242188 36.601562 19.863281 36.613281 C 19.21875 36.617188 18.578125 36.621094 17.9375 36.632812 C 17.195312 36.644531 16.460938 36.648438 15.722656 36.65625 C 15.492188 36.660156 15.265625 36.664062 15.027344 36.667969 C 14.707031 36.667969 14.707031 36.667969 14.378906 36.667969 C 14.191406 36.671875 14.003906 36.671875 13.808594 36.675781 C 13.3125 36.5625 13.3125 36.5625 12.878906 36.179688 C 12.484375 35.488281 12.457031 34.914062 12.460938 34.136719 C 12.460938 33.917969 12.460938 33.917969 12.457031 33.695312 C 12.453125 33.210938 12.457031 32.730469 12.457031 32.246094 C 12.457031 31.90625 12.453125 31.570312 12.453125 31.234375 C 12.453125 30.527344 12.453125 29.824219 12.457031 29.117188 C 12.457031 28.214844 12.453125 27.308594 12.445312 26.40625 C 12.441406 25.710938 12.441406 25.015625 12.445312 24.320312 C 12.445312 23.988281 12.445312 23.652344 12.441406 23.320312 C 12.4375 22.855469 12.441406 22.390625 12.445312 21.921875 C 12.441406 21.785156 12.441406 21.648438 12.4375 21.507812 C 12.453125 20.800781 12.546875 20.457031 12.972656 19.882812 C 13.574219 19.449219 13.839844 19.386719 14.570312 19.394531 Z M 14.570312 19.394531 "/>
<path style=" stroke:none;fill-rule:nonzero;fill:rgb(72.549021%,73.725492%,77.64706%);fill-opacity:1;" d="M 29.007812 10.011719 C 30.199219 11.085938 30.925781 12.515625 31.3125 14.0625 C 31.3125 15.855469 31.3125 17.652344 31.3125 19.5 C 26.488281 19.5 21.660156 19.5 16.6875 19.5 C 16.6875 12.464844 16.6875 12.464844 18.914062 10.128906 C 21.894531 7.378906 25.925781 7.515625 29.007812 10.011719 Z M 29.007812 10.011719 "/>
<path style=" stroke:none;fill-rule:nonzero;fill:rgb(93.333334%,94.117647%,96.078432%);fill-opacity:1;" d="M 24 8.25 C 24 9.796875 24 11.34375 24 12.9375 C 23.566406 13.0625 23.132812 13.183594 22.6875 13.3125 C 22.109375 13.800781 21.800781 14.09375 21.5625 14.8125 C 21.535156 15.171875 21.515625 15.53125 21.503906 15.890625 C 21.496094 16.082031 21.488281 16.269531 21.480469 16.464844 C 21.46875 16.824219 21.46875 16.824219 21.457031 17.191406 C 21.429688 17.953125 21.402344 18.714844 21.375 19.5 C 19.828125 19.5 18.28125 19.5 16.6875 19.5 C 16.667969 18.667969 16.652344 17.835938 16.640625 17.003906 C 16.636719 16.769531 16.628906 16.539062 16.621094 16.296875 C 16.59375 13.898438 17.238281 11.886719 18.914062 10.128906 C 20.503906 8.664062 21.847656 8.25 24 8.25 Z M 24 8.25 "/>
<path style=" stroke:none;fill-rule:nonzero;fill:rgb(35.686275%,65.882355%,99.607843%);fill-opacity:1;" d="M 25.277344 13.160156 C 25.933594 13.703125 26.394531 14.144531 26.523438 15.007812 C 26.515625 15.320312 26.515625 15.320312 26.511719 15.636719 C 26.507812 15.839844 26.507812 16.042969 26.503906 16.253906 C 26.496094 16.636719 26.496094 16.636719 26.484375 17.027344 C 26.46875 17.84375 26.453125 18.660156 26.4375 19.5 C 24.765625 19.5 23.097656 19.5 21.375 19.5 C 21.359375 18.753906 21.34375 18.007812 21.328125 17.238281 C 21.320312 17.003906 21.3125 16.773438 21.308594 16.535156 C 21.292969 15.285156 21.367188 14.503906 22.125 13.5 C 23.015625 12.710938 24.214844 12.710938 25.277344 13.160156 Z M 25.277344 13.160156 "/>
<path style=" stroke:none;fill-rule:nonzero;fill:rgb(21.960784%,39.215687%,58.823532%);fill-opacity:1;" d="M 24.367188 24.640625 C 24.964844 24.8125 25.160156 25.179688 25.5 25.6875 C 25.597656 26.226562 25.597656 26.226562 25.601562 26.8125 C 25.601562 27.027344 25.601562 27.238281 25.601562 27.457031 C 25.601562 27.679688 25.597656 27.898438 25.59375 28.125 C 25.597656 28.34375 25.601562 28.566406 25.601562 28.792969 C 25.601562 29.003906 25.601562 29.21875 25.601562 29.4375 C 25.597656 29.628906 25.597656 29.824219 25.597656 30.023438 C 25.476562 30.703125 25.238281 31.019531 24.75 31.5 C 24.09375 31.605469 24.09375 31.605469 23.4375 31.5 C 22.878906 31.085938 22.707031 30.867188 22.59375 30.175781 C 22.59375 29.953125 22.59375 29.734375 22.59375 29.507812 C 22.59375 29.265625 22.59375 29.027344 22.59375 28.777344 C 22.597656 28.589844 22.597656 28.589844 22.601562 28.402344 C 22.605469 28.019531 22.605469 27.640625 22.601562 27.257812 C 22.613281 25.421875 22.613281 25.421875 22.929688 24.960938 C 23.382812 24.664062 23.835938 24.664062 24.367188 24.640625 Z M 24.367188 24.640625 "/>
<path style=" stroke:none;fill-rule:nonzero;fill:rgb(19.215687%,38.039216%,58.823532%);fill-opacity:1;" d="M 24 12.9375 C 25.59375 13.167969 25.59375 13.167969 26.226562 13.988281 C 26.675781 14.949219 26.550781 16.015625 26.507812 17.050781 C 26.503906 17.285156 26.496094 17.523438 26.492188 17.765625 C 26.480469 18.34375 26.457031 18.921875 26.4375 19.5 C 25.632812 19.5 24.828125 19.5 24 19.5 C 24 17.335938 24 15.167969 24 12.9375 Z M 24 12.9375 "/>
<path style=" stroke:none;fill-rule:nonzero;fill:rgb(35.294119%,65.490198%,99.215686%);fill-opacity:1;" d="M 24 24.75 C 24 26.976562 24 29.203125 24 31.5 C 23.691406 31.4375 23.382812 31.375 23.0625 31.3125 C 22.46875 30.421875 22.625 29.464844 22.628906 28.414062 C 22.628906 28.03125 22.625 27.652344 22.621094 27.269531 C 22.621094 27.027344 22.621094 26.785156 22.621094 26.535156 C 22.617188 26.316406 22.617188 26.09375 22.617188 25.867188 C 22.6875 25.3125 22.6875 25.3125 22.925781 24.953125 C 23.25 24.75 23.25 24.75 24 24.75 Z M 24 24.75 "/>
</g>
</svg>
