<?xml version="1.0" encoding="UTF-8"?>
<svg xmlns="http://www.w3.org/2000/svg" xmlns:xlink="http://www.w3.org/1999/xlink" width="48" height="48" viewBox="0 0 48 48" version="1.1">
<g id="surface1">
<path style=" stroke:none;fill-rule:nonzero;fill:rgb(1.960784%,1.568628%,1.176471%);fill-opacity:1;" d="M 13.078125 -0.0273438 C 13.265625 -0.03125 13.457031 -0.03125 13.648438 -0.03125 C 13.855469 -0.03125 14.0625 -0.0351562 14.277344 -0.0351562 C 14.496094 -0.0351562 14.710938 -0.0351562 14.9375 -0.0351562 C 15.660156 -0.0390625 16.382812 -0.0429688 17.105469 -0.0429688 C 17.351562 -0.046875 17.601562 -0.046875 17.851562 -0.046875 C 19.023438 -0.0507812 20.191406 -0.0546875 21.363281 -0.0546875 C 22.714844 -0.0546875 24.0625 -0.0625 25.414062 -0.0703125 C 26.457031 -0.0742188 27.5 -0.078125 28.542969 -0.078125 C 29.167969 -0.078125 29.789062 -0.0820312 30.414062 -0.0859375 C 31.109375 -0.0898438 31.804688 -0.0898438 32.5 -0.0859375 C 32.808594 -0.0898438 32.808594 -0.0898438 33.121094 -0.09375 C 34.445312 -0.0859375 35.140625 0.128906 36.132812 1.042969 C 36.214844 1.140625 36.300781 1.234375 36.386719 1.332031 C 36.484375 1.4375 36.582031 1.546875 36.683594 1.660156 C 36.785156 1.773438 36.886719 1.886719 36.992188 2.007812 C 37.222656 2.25 37.449219 2.496094 37.679688 2.738281 C 38.035156 3.121094 38.386719 3.5 38.734375 3.890625 C 40.335938 5.71875 40.335938 5.71875 42.578125 6.398438 C 43.003906 6.402344 43.417969 6.382812 43.839844 6.355469 C 44.726562 6.324219 45.398438 6.636719 46.125 7.125 C 46.917969 7.945312 46.957031 8.660156 46.941406 9.75 C 46.933594 10.015625 46.933594 10.015625 46.921875 10.289062 C 46.917969 10.472656 46.914062 10.652344 46.910156 10.84375 C 46.902344 11.292969 46.890625 11.738281 46.875 12.1875 C 46.6875 12.25 46.503906 12.3125 46.3125 12.375 C 46.3125 12.996094 46.3125 13.613281 46.3125 14.25 C 46.496094 14.3125 46.683594 14.375 46.875 14.4375 C 46.886719 18.554688 46.898438 22.667969 46.902344 26.78125 C 46.90625 28.695312 46.910156 30.605469 46.917969 32.515625 C 46.921875 34.183594 46.925781 35.847656 46.929688 37.511719 C 46.929688 38.394531 46.929688 39.277344 46.933594 40.15625 C 46.9375 40.988281 46.941406 41.816406 46.9375 42.648438 C 46.9375 42.949219 46.941406 43.257812 46.941406 43.558594 C 46.945312 43.976562 46.945312 44.394531 46.941406 44.808594 C 46.945312 45.042969 46.945312 45.273438 46.945312 45.515625 C 46.839844 46.421875 46.449219 46.902344 45.863281 47.582031 C 44.980469 48.273438 43.875 48.121094 42.804688 48.105469 C 42.566406 48.105469 42.324219 48.105469 42.078125 48.105469 C 41.421875 48.105469 40.769531 48.101562 40.113281 48.09375 C 39.429688 48.089844 38.742188 48.089844 38.058594 48.085938 C 36.761719 48.085938 35.464844 48.078125 34.167969 48.066406 C 32.691406 48.058594 31.210938 48.050781 29.738281 48.046875 C 26.699219 48.039062 23.660156 48.019531 20.625 48 C 20.5625 47.816406 20.5 47.628906 20.4375 47.4375 C 19.816406 47.4375 19.199219 47.4375 18.5625 47.4375 C 18.5 47.625 18.4375 47.808594 18.375 48 C 16.925781 48.015625 15.480469 48.03125 14.035156 48.039062 C 13.359375 48.042969 12.6875 48.046875 12.015625 48.058594 C 11.367188 48.0625 10.71875 48.070312 10.066406 48.070312 C 9.703125 48.074219 9.335938 48.078125 8.96875 48.085938 C 6.894531 48.085938 6.894531 48.085938 6 47.25 C 5.332031 46.488281 5.226562 45.867188 5.238281 44.871094 C 5.238281 44.683594 5.242188 44.496094 5.242188 44.308594 C 5.246094 44.164062 5.246094 44.023438 5.25 43.875 C 5.132812 43.882812 5.015625 43.886719 4.894531 43.894531 C 3.835938 43.929688 2.773438 43.933594 1.875 43.3125 C 0.910156 42.253906 1.015625 41.15625 1.023438 39.777344 C 1.023438 39.546875 1.023438 39.3125 1.023438 39.074219 C 1.023438 38.457031 1.023438 37.839844 1.03125 37.222656 C 1.03125 36.84375 1.03125 36.46875 1.027344 36.089844 C 1.023438 35.363281 1.023438 34.636719 1.023438 33.90625 C 1.023438 33.683594 1.023438 33.460938 1.019531 33.226562 C 1.035156 32.039062 1.054688 31.269531 1.875 30.375 C 2.632812 29.808594 3.25 29.789062 4.164062 29.800781 C 4.472656 29.800781 4.472656 29.800781 4.78125 29.804688 C 4.9375 29.808594 5.089844 29.808594 5.25 29.8125 C 5.25 29.703125 5.25 29.59375 5.246094 29.484375 C 5.230469 26.828125 5.21875 24.171875 5.210938 21.519531 C 5.207031 20.234375 5.203125 18.953125 5.191406 17.667969 C 5.183594 16.429688 5.183594 15.191406 5.179688 13.953125 C 5.179688 13.480469 5.175781 13.007812 5.171875 12.535156 C 5.164062 11.871094 5.164062 11.210938 5.164062 10.550781 C 5.160156 10.257812 5.160156 10.257812 5.15625 9.957031 C 5.164062 8.78125 5.3125 8.085938 6 7.125 C 6.832031 6.320312 7.898438 6.320312 9 6.328125 C 9.4375 6.339844 9.875 6.355469 10.3125 6.375 C 10.308594 6.25 10.304688 6.125 10.304688 5.996094 C 10.292969 5.425781 10.285156 4.859375 10.277344 4.289062 C 10.273438 4.09375 10.269531 3.898438 10.261719 3.695312 C 10.253906 2.636719 10.253906 1.839844 10.875 0.9375 C 11.628906 0.257812 12.074219 -0.0234375 13.078125 -0.0273438 Z M 13.078125 -0.0273438 "/>
<path style=" stroke:none;fill-rule:nonzero;fill:rgb(98.823529%,87.058824%,45.882353%);fill-opacity:1;" d="M 30.644531 21.3125 C 30.804688 21.3125 30.964844 21.3125 31.128906 21.3125 C 31.652344 21.3125 32.179688 21.316406 32.703125 21.320312 C 33.070312 21.320312 33.433594 21.324219 33.800781 21.324219 C 34.757812 21.324219 35.71875 21.328125 36.675781 21.335938 C 37.65625 21.34375 38.632812 21.34375 39.613281 21.347656 C 41.535156 21.355469 43.457031 21.363281 45.375 21.375 C 45.398438 24.535156 45.414062 27.699219 45.425781 30.859375 C 45.425781 32.328125 45.433594 33.796875 45.445312 35.265625 C 45.457031 36.546875 45.460938 37.824219 45.464844 39.105469 C 45.464844 39.78125 45.46875 40.457031 45.472656 41.136719 C 45.480469 41.894531 45.480469 42.648438 45.480469 43.40625 C 45.484375 43.742188 45.484375 43.742188 45.492188 44.085938 C 45.484375 44.972656 45.472656 45.574219 45.042969 46.355469 C 44.101562 46.871094 43.222656 46.816406 42.167969 46.800781 C 41.9375 46.804688 41.707031 46.804688 41.472656 46.804688 C 40.972656 46.808594 40.472656 46.808594 39.976562 46.804688 C 39.1875 46.800781 38.398438 46.800781 37.609375 46.804688 C 36.21875 46.808594 34.832031 46.808594 33.441406 46.804688 C 31.351562 46.800781 29.257812 46.804688 27.164062 46.808594 C 26.382812 46.8125 25.597656 46.8125 24.8125 46.808594 C 24.210938 46.804688 23.609375 46.808594 23.007812 46.808594 C 22.789062 46.808594 22.574219 46.804688 22.347656 46.804688 C 22.148438 46.804688 21.953125 46.804688 21.75 46.808594 C 21.574219 46.804688 21.402344 46.804688 21.226562 46.804688 C 21.089844 46.828125 20.953125 46.851562 20.8125 46.875 C 20.6875 47.058594 20.566406 47.246094 20.4375 47.4375 C 19.992188 47.492188 19.992188 47.492188 19.476562 47.472656 C 19.304688 47.46875 19.132812 47.460938 18.960938 47.457031 C 18.828125 47.449219 18.699219 47.445312 18.5625 47.4375 C 18.5 47.25 18.4375 47.066406 18.375 46.875 C 18.242188 46.875 18.109375 46.875 17.976562 46.875 C 16.730469 46.871094 15.488281 46.863281 14.242188 46.851562 C 13.601562 46.84375 12.964844 46.839844 12.324219 46.839844 C 11.585938 46.835938 10.851562 46.828125 10.117188 46.820312 C 9.890625 46.820312 9.660156 46.824219 9.425781 46.824219 C 8.507812 46.808594 7.875 46.789062 7.066406 46.339844 C 6.71875 45.695312 6.714844 45.398438 6.730469 44.679688 C 6.734375 44.496094 6.734375 44.308594 6.738281 44.117188 C 6.746094 43.90625 6.746094 43.90625 6.75 43.6875 C 6.960938 43.6875 6.960938 43.6875 7.175781 43.683594 C 10.585938 43.675781 13.996094 43.660156 17.410156 43.640625 C 19.058594 43.636719 20.710938 43.628906 22.359375 43.621094 C 23.796875 43.617188 25.234375 43.613281 26.671875 43.601562 C 27.433594 43.597656 28.195312 43.59375 28.957031 43.59375 C 29.671875 43.59375 30.390625 43.589844 31.105469 43.585938 C 31.367188 43.582031 31.632812 43.582031 31.894531 43.582031 C 32.253906 43.582031 32.613281 43.578125 32.972656 43.574219 C 33.175781 43.574219 33.375 43.574219 33.582031 43.574219 C 34.433594 43.457031 34.914062 43.097656 35.488281 42.480469 C 35.957031 41.511719 35.917969 40.636719 35.910156 39.574219 C 35.910156 39.359375 35.914062 39.140625 35.914062 38.921875 C 35.914062 38.464844 35.914062 38.011719 35.910156 37.554688 C 35.90625 36.859375 35.910156 36.164062 35.914062 35.46875 C 35.914062 35.023438 35.914062 34.582031 35.910156 34.136719 C 35.914062 33.929688 35.914062 33.722656 35.917969 33.511719 C 35.902344 32.304688 35.808594 31.527344 35.0625 30.5625 C 34.441406 30.152344 33.910156 30.136719 33.175781 30.136719 C 32.945312 30.132812 32.710938 30.132812 32.46875 30.128906 C 32.210938 30.128906 31.957031 30.128906 31.695312 30.128906 C 31.425781 30.125 31.152344 30.125 30.882812 30.121094 C 30.144531 30.117188 29.40625 30.113281 28.671875 30.113281 C 27.898438 30.109375 27.128906 30.101562 26.359375 30.097656 C 24.898438 30.089844 23.441406 30.082031 21.984375 30.078125 C 20.320312 30.070312 18.660156 30.058594 17 30.050781 C 13.582031 30.03125 10.167969 30.015625 6.75 30 C 6.75 28.824219 6.75 27.648438 6.75 26.4375 C 7.269531 26.4375 7.789062 26.433594 8.328125 26.433594 C 10.046875 26.433594 11.769531 26.425781 13.492188 26.414062 C 14.535156 26.40625 15.582031 26.402344 16.625 26.402344 C 17.632812 26.398438 18.640625 26.394531 19.648438 26.386719 C 20.03125 26.382812 20.414062 26.382812 20.800781 26.382812 C 21.339844 26.386719 21.878906 26.378906 22.414062 26.375 C 22.574219 26.375 22.734375 26.378906 22.894531 26.378906 C 24.257812 26.351562 25.179688 25.835938 26.121094 24.863281 C 26.234375 24.714844 26.347656 24.5625 26.460938 24.410156 C 26.582031 24.246094 26.707031 24.085938 26.835938 23.917969 C 27.058594 23.613281 27.28125 23.308594 27.503906 23.003906 C 27.648438 22.804688 27.648438 22.804688 27.796875 22.605469 C 27.878906 22.492188 27.960938 22.375 28.046875 22.253906 C 28.8125 21.34375 29.496094 21.296875 30.644531 21.3125 Z M 30.644531 21.3125 "/>
<path style=" stroke:none;fill-rule:nonzero;fill:rgb(90.588236%,95.294118%,98.823529%);fill-opacity:1;" d="M 13.457031 1.410156 C 13.636719 1.40625 13.816406 1.40625 14 1.40625 C 14.195312 1.410156 14.390625 1.410156 14.59375 1.414062 C 14.902344 1.414062 14.902344 1.414062 15.21875 1.414062 C 15.902344 1.414062 16.585938 1.421875 17.269531 1.425781 C 17.746094 1.429688 18.21875 1.429688 18.691406 1.429688 C 19.8125 1.433594 20.933594 1.4375 22.054688 1.445312 C 23.328125 1.453125 24.605469 1.457031 25.878906 1.460938 C 28.503906 1.46875 31.128906 1.484375 33.75 1.5 C 33.75 1.625 33.753906 1.746094 33.753906 1.871094 C 33.757812 2.433594 33.773438 3 33.785156 3.5625 C 33.785156 3.753906 33.789062 3.949219 33.789062 4.148438 C 33.824219 5.394531 33.988281 6.382812 34.875 7.3125 C 36.503906 8.128906 38.492188 7.800781 40.3125 7.875 C 40.3125 11.898438 40.3125 15.917969 40.3125 20.0625 C 39.261719 20.0625 38.207031 20.0625 37.125 20.0625 C 37.117188 19.632812 37.117188 19.632812 37.109375 19.191406 C 37.097656 18.816406 37.089844 18.4375 37.078125 18.058594 C 37.074219 17.871094 37.074219 17.679688 37.070312 17.484375 C 37.042969 16.703125 36.992188 16.074219 36.695312 15.34375 C 35.84375 14.765625 34.941406 14.863281 33.9375 14.882812 C 33.734375 14.878906 33.527344 14.875 33.316406 14.871094 C 32.179688 14.871094 32.179688 14.871094 31.179688 15.34375 C 30.8125 16.238281 30.808594 17.097656 30.796875 18.058594 C 30.789062 18.347656 30.789062 18.347656 30.78125 18.640625 C 30.765625 19.117188 30.757812 19.589844 30.75 20.0625 C 30.253906 20.0625 29.761719 20.0625 29.25 20.0625 C 29.25 19.832031 29.246094 19.605469 29.246094 19.367188 C 29.238281 18.519531 29.226562 17.667969 29.210938 16.820312 C 29.207031 16.449219 29.203125 16.082031 29.199219 15.714844 C 29.195312 15.1875 29.1875 14.660156 29.175781 14.128906 C 29.175781 13.964844 29.175781 13.800781 29.175781 13.632812 C 29.160156 12.917969 29.148438 12.5 28.742188 11.898438 C 27.941406 11.390625 27.085938 11.511719 26.167969 11.519531 C 25.972656 11.515625 25.78125 11.511719 25.578125 11.507812 C 25.296875 11.507812 25.296875 11.507812 25.007812 11.507812 C 24.839844 11.507812 24.664062 11.507812 24.488281 11.507812 C 23.78125 11.675781 23.5 11.988281 23.0625 12.5625 C 22.933594 13.160156 22.933594 13.160156 22.972656 13.800781 C 22.972656 14.035156 22.976562 14.269531 22.980469 14.511719 C 22.988281 14.753906 22.996094 14.996094 23.003906 15.246094 C 23.011719 15.613281 23.011719 15.613281 23.015625 15.992188 C 23.027344 16.597656 23.042969 17.203125 23.0625 17.8125 C 23.621094 17.625 23.621094 17.625 24.1875 17.4375 C 24.25 15.890625 24.3125 14.34375 24.375 12.75 C 24.929688 12.746094 25.480469 12.742188 26.050781 12.738281 C 26.226562 12.738281 26.398438 12.734375 26.582031 12.734375 C 26.71875 12.734375 26.851562 12.734375 26.992188 12.730469 C 27.132812 12.730469 27.273438 12.730469 27.417969 12.730469 C 27.75 12.75 27.75 12.75 27.9375 12.9375 C 27.992188 14.019531 27.996094 15.101562 28.003906 16.183594 C 28.007812 16.550781 28.011719 16.914062 28.019531 17.28125 C 28.03125 17.808594 28.035156 18.332031 28.035156 18.859375 C 28.042969 19.101562 28.042969 19.101562 28.046875 19.351562 C 28.046875 20.167969 28.035156 20.507812 27.5 21.15625 C 27.332031 21.289062 27.167969 21.425781 27 21.5625 C 26.804688 21.804688 26.613281 22.054688 26.429688 22.308594 C 26.285156 22.507812 26.285156 22.507812 26.136719 22.710938 C 25.933594 22.988281 25.738281 23.265625 25.539062 23.542969 C 25.441406 23.671875 25.34375 23.804688 25.246094 23.941406 C 25.117188 24.117188 25.117188 24.117188 24.984375 24.300781 C 24.90625 24.386719 24.828125 24.472656 24.75 24.5625 C 24.625 24.5625 24.503906 24.5625 24.375 24.5625 C 24.3125 23.140625 24.25 21.714844 24.1875 20.25 C 23.878906 20.1875 23.570312 20.125 23.25 20.0625 C 22.921875 20.390625 23.019531 20.847656 23.003906 21.292969 C 22.992188 21.609375 22.992188 21.609375 22.980469 21.933594 C 22.972656 22.15625 22.964844 22.375 22.957031 22.605469 C 22.945312 22.941406 22.945312 22.941406 22.933594 23.28125 C 22.914062 23.832031 22.894531 24.382812 22.875 24.9375 C 22.378906 24.9375 21.886719 24.9375 21.375 24.9375 C 21.375 24.738281 21.375 24.535156 21.375 24.328125 C 21.371094 22.445312 21.363281 20.554688 21.351562 18.667969 C 21.34375 17.699219 21.339844 16.730469 21.335938 15.757812 C 21.335938 14.820312 21.332031 13.886719 21.324219 12.949219 C 21.320312 12.59375 21.320312 12.234375 21.320312 11.878906 C 21.324219 11.378906 21.316406 10.878906 21.3125 10.378906 C 21.3125 10.15625 21.3125 10.15625 21.316406 9.929688 C 21.300781 9.199219 21.253906 8.882812 20.738281 8.34375 C 19.914062 7.867188 19.121094 7.945312 18.1875 7.957031 C 18.003906 7.953125 17.816406 7.949219 17.628906 7.945312 C 17.449219 7.945312 17.269531 7.945312 17.085938 7.945312 C 16.925781 7.945312 16.761719 7.945312 16.597656 7.945312 C 15.894531 8.121094 15.632812 8.441406 15.1875 9 C 15.09375 9.558594 15.058594 10.011719 15.0625 10.570312 C 15.058594 10.804688 15.058594 10.804688 15.058594 11.042969 C 15.050781 11.554688 15.054688 12.066406 15.054688 12.578125 C 15.050781 12.933594 15.050781 13.289062 15.046875 13.644531 C 15.039062 14.582031 15.039062 15.515625 15.035156 16.453125 C 15.035156 17.40625 15.027344 18.363281 15.019531 19.316406 C 15.007812 21.191406 15.003906 23.0625 15 24.9375 C 13.949219 24.9375 12.894531 24.9375 11.8125 24.9375 C 11.796875 21.992188 11.78125 19.046875 11.773438 16.101562 C 11.769531 14.734375 11.765625 13.367188 11.757812 12 C 11.75 10.808594 11.742188 9.617188 11.742188 8.425781 C 11.742188 7.792969 11.738281 7.164062 11.734375 6.53125 C 11.726562 5.828125 11.726562 5.121094 11.726562 4.417969 C 11.722656 4.210938 11.722656 4 11.71875 3.785156 C 11.722656 3.589844 11.722656 3.398438 11.722656 3.203125 C 11.722656 3.035156 11.722656 2.867188 11.722656 2.695312 C 11.917969 1.738281 12.53125 1.40625 13.457031 1.410156 Z M 13.457031 1.410156 "/>
<path style=" stroke:none;fill-rule:nonzero;fill:rgb(59.215689%,89.019608%,97.647059%);fill-opacity:1;" d="M 4.417969 31.242188 C 4.609375 31.238281 4.609375 31.238281 4.800781 31.238281 C 5.222656 31.234375 5.644531 31.238281 6.066406 31.238281 C 6.367188 31.238281 6.667969 31.238281 6.96875 31.238281 C 7.792969 31.234375 8.613281 31.234375 9.4375 31.238281 C 10.292969 31.238281 11.152344 31.238281 12.011719 31.234375 C 13.453125 31.234375 14.894531 31.238281 16.335938 31.238281 C 18.003906 31.242188 19.671875 31.242188 21.339844 31.238281 C 22.773438 31.234375 24.203125 31.234375 25.632812 31.238281 C 26.488281 31.238281 27.34375 31.238281 28.203125 31.234375 C 29.003906 31.234375 29.808594 31.234375 30.613281 31.238281 C 30.90625 31.238281 31.203125 31.238281 31.5 31.238281 C 31.902344 31.234375 32.304688 31.238281 32.707031 31.242188 C 32.933594 31.242188 33.15625 31.242188 33.390625 31.242188 C 33.9375 31.3125 33.9375 31.3125 34.292969 31.570312 C 34.582031 31.996094 34.574219 32.308594 34.578125 32.820312 C 34.578125 33.109375 34.578125 33.109375 34.582031 33.40625 C 34.582031 33.613281 34.582031 33.824219 34.582031 34.035156 C 34.582031 34.25 34.582031 34.464844 34.582031 34.683594 C 34.585938 35.136719 34.585938 35.589844 34.582031 36.042969 C 34.582031 36.734375 34.585938 37.429688 34.59375 38.121094 C 34.59375 38.558594 34.59375 39 34.59375 39.4375 C 34.59375 39.648438 34.597656 39.855469 34.597656 40.070312 C 34.597656 40.261719 34.59375 40.453125 34.59375 40.652344 C 34.59375 40.824219 34.59375 40.992188 34.59375 41.167969 C 34.464844 41.789062 34.246094 41.984375 33.75 42.375 C 33.179688 42.46875 33.179688 42.46875 32.503906 42.46875 C 32.378906 42.46875 32.253906 42.46875 32.125 42.472656 C 31.707031 42.472656 31.289062 42.472656 30.867188 42.46875 C 30.566406 42.46875 30.265625 42.46875 29.96875 42.472656 C 29.152344 42.472656 28.335938 42.472656 27.519531 42.46875 C 26.667969 42.464844 25.816406 42.46875 24.964844 42.46875 C 23.53125 42.46875 22.097656 42.464844 20.667969 42.464844 C 19.011719 42.457031 17.351562 42.457031 15.695312 42.460938 C 14.105469 42.460938 12.511719 42.460938 10.917969 42.457031 C 10.242188 42.457031 9.5625 42.457031 8.886719 42.457031 C 8.085938 42.460938 7.289062 42.457031 6.488281 42.453125 C 6.195312 42.453125 5.902344 42.453125 5.609375 42.453125 C 5.210938 42.453125 4.8125 42.453125 4.410156 42.449219 C 4.1875 42.449219 3.964844 42.445312 3.734375 42.445312 C 3.1875 42.375 3.1875 42.375 2.835938 42.117188 C 2.539062 41.683594 2.554688 41.367188 2.554688 40.84375 C 2.550781 40.648438 2.550781 40.449219 2.546875 40.25 C 2.546875 40.035156 2.550781 39.824219 2.550781 39.605469 C 2.550781 39.382812 2.550781 39.167969 2.550781 38.941406 C 2.546875 38.480469 2.550781 38.015625 2.550781 37.554688 C 2.554688 36.847656 2.550781 36.136719 2.546875 35.429688 C 2.550781 34.980469 2.550781 34.53125 2.550781 34.082031 C 2.550781 33.871094 2.546875 33.65625 2.546875 33.4375 C 2.550781 33.242188 2.550781 33.042969 2.554688 32.84375 C 2.554688 32.667969 2.554688 32.496094 2.554688 32.316406 C 2.730469 31.234375 3.453125 31.242188 4.417969 31.242188 Z M 4.417969 31.242188 "/>
<path style=" stroke:none;fill-rule:nonzero;fill:rgb(96.078432%,67.450982%,20.784314%);fill-opacity:1;" d="M 7.6875 7.875 C 8.617188 7.875 9.542969 7.875 10.5 7.875 C 10.5 13.503906 10.5 19.136719 10.5 24.9375 C 9.261719 24.9375 8.023438 24.9375 6.75 24.9375 C 6.730469 22.851562 6.710938 20.765625 6.703125 18.679688 C 6.695312 17.710938 6.691406 16.742188 6.679688 15.773438 C 6.667969 14.835938 6.664062 13.902344 6.660156 12.96875 C 6.660156 12.609375 6.65625 12.253906 6.652344 11.898438 C 6.644531 11.398438 6.644531 10.898438 6.644531 10.398438 C 6.640625 10.253906 6.636719 10.105469 6.632812 9.953125 C 6.644531 8.8125 6.792969 8.769531 7.6875 7.875 Z M 7.6875 7.875 "/>
<path style=" stroke:none;fill-rule:nonzero;fill:rgb(1.960784%,2.745098%,3.137255%);fill-opacity:1;" d="M 18.246094 32.8125 C 19.164062 33.324219 19.722656 33.980469 20.25 34.875 C 20.320312 34.992188 20.390625 35.113281 20.460938 35.234375 C 20.898438 36.277344 20.742188 37.546875 20.34375 38.578125 C 19.820312 39.617188 18.976562 40.386719 17.9375 40.90625 C 16.789062 41.265625 15.425781 41.308594 14.300781 40.855469 C 13.324219 40.242188 12.445312 39.40625 12.074219 38.285156 C 11.851562 37.070312 11.742188 35.699219 12.386719 34.605469 C 13.847656 32.644531 15.902344 31.761719 18.246094 32.8125 Z M 18.246094 32.8125 "/>
<path style=" stroke:none;fill-rule:nonzero;fill:rgb(26.666668%,77.254903%,53.333336%);fill-opacity:1;" d="M 17.828125 9.160156 C 17.976562 9.160156 18.128906 9.164062 18.28125 9.164062 C 18.429688 9.164062 18.578125 9.160156 18.734375 9.160156 C 19.851562 9.164062 19.851562 9.164062 20.0625 9.375 C 20.078125 9.859375 20.085938 10.339844 20.082031 10.824219 C 20.082031 10.976562 20.082031 11.128906 20.082031 11.285156 C 20.082031 11.789062 20.082031 12.292969 20.082031 12.796875 C 20.078125 13.144531 20.078125 13.496094 20.078125 13.84375 C 20.078125 14.761719 20.078125 15.683594 20.074219 16.601562 C 20.074219 17.539062 20.070312 18.476562 20.070312 19.414062 C 20.070312 21.253906 20.066406 23.097656 20.0625 24.9375 C 18.886719 24.9375 17.710938 24.9375 16.5 24.9375 C 16.496094 22.910156 16.492188 20.886719 16.492188 18.859375 C 16.488281 17.921875 16.488281 16.980469 16.484375 16.039062 C 16.484375 15.132812 16.484375 14.222656 16.480469 13.316406 C 16.480469 12.96875 16.480469 12.625 16.480469 12.277344 C 16.480469 11.792969 16.476562 11.308594 16.476562 10.824219 C 16.476562 10.679688 16.476562 10.535156 16.476562 10.386719 C 16.480469 9.136719 16.585938 9.164062 17.828125 9.160156 Z M 17.828125 9.160156 "/>
<path style=" stroke:none;fill-rule:nonzero;fill:rgb(94.509804%,78.039217%,34.509805%);fill-opacity:1;" d="M 29.0625 21.375 C 34.445312 21.375 39.828125 21.375 45.375 21.375 C 45.414062 27.449219 45.414062 27.449219 45.421875 29.996094 C 45.425781 31.75 45.433594 33.507812 45.445312 35.265625 C 45.457031 36.546875 45.460938 37.824219 45.464844 39.105469 C 45.464844 39.78125 45.46875 40.457031 45.472656 41.136719 C 45.480469 41.894531 45.480469 42.648438 45.480469 43.40625 C 45.484375 43.742188 45.484375 43.742188 45.492188 44.085938 C 45.484375 44.972656 45.46875 45.574219 45.042969 46.359375 C 44.105469 46.871094 43.230469 46.8125 42.179688 46.792969 C 41.835938 46.792969 41.835938 46.792969 41.484375 46.792969 C 40.859375 46.792969 40.234375 46.789062 39.609375 46.78125 C 38.953125 46.777344 38.300781 46.777344 37.644531 46.777344 C 36.410156 46.773438 35.167969 46.765625 33.933594 46.753906 C 32.523438 46.742188 31.109375 46.738281 29.699219 46.734375 C 26.800781 46.726562 23.902344 46.707031 21 46.6875 C 21 46.625 21 46.5625 21 46.5 C 32.046875 46.40625 32.046875 46.40625 43.3125 46.3125 C 43.550781 45.835938 43.527344 45.5 43.53125 44.964844 C 43.53125 44.761719 43.535156 44.554688 43.535156 44.34375 C 43.535156 44.117188 43.539062 43.890625 43.539062 43.65625 C 43.542969 43.417969 43.542969 43.179688 43.546875 42.9375 C 43.546875 42.28125 43.550781 41.628906 43.554688 40.976562 C 43.5625 40.296875 43.566406 39.613281 43.570312 38.929688 C 43.582031 37.640625 43.589844 36.347656 43.597656 35.054688 C 43.609375 33.308594 43.621094 31.5625 43.632812 29.816406 C 43.652344 27.066406 43.671875 24.3125 43.6875 21.5625 C 38.859375 21.5625 34.035156 21.5625 29.0625 21.5625 C 29.0625 21.5 29.0625 21.4375 29.0625 21.375 Z M 29.0625 21.375 "/>
<path style=" stroke:none;fill-rule:nonzero;fill:rgb(98.823529%,69.01961%,21.176471%);fill-opacity:1;" d="M 41.8125 7.875 C 44.4375 7.875 44.4375 7.875 45.375 8.625 C 45.5 9.019531 45.5 9.019531 45.507812 9.4375 C 45.515625 9.585938 45.519531 9.738281 45.523438 9.890625 C 45.523438 10.046875 45.527344 10.199219 45.527344 10.359375 C 45.53125 10.515625 45.535156 10.675781 45.542969 10.835938 C 45.554688 11.222656 45.558594 11.613281 45.5625 12 C 45.808594 12.125 46.058594 12.246094 46.3125 12.375 C 46.3125 12.992188 46.3125 13.613281 46.3125 14.25 C 46.066406 14.375 45.816406 14.496094 45.5625 14.625 C 45.5 16.359375 45.4375 18.089844 45.375 19.875 C 44.199219 19.875 43.023438 19.875 41.8125 19.875 C 41.8125 15.914062 41.8125 11.953125 41.8125 7.875 Z M 41.8125 7.875 "/>
<path style=" stroke:none;fill-rule:nonzero;fill:rgb(67.450982%,51.764709%,76.078433%);fill-opacity:1;" d="M 24.375 12.75 C 24.929688 12.746094 25.480469 12.742188 26.050781 12.738281 C 26.226562 12.738281 26.398438 12.734375 26.578125 12.734375 C 26.71875 12.734375 26.851562 12.730469 26.992188 12.730469 C 27.132812 12.730469 27.273438 12.730469 27.417969 12.730469 C 27.75 12.75 27.75 12.75 27.9375 12.9375 C 27.992188 14.019531 27.996094 15.101562 28.003906 16.183594 C 28.007812 16.550781 28.011719 16.914062 28.019531 17.28125 C 28.03125 17.808594 28.03125 18.332031 28.035156 18.859375 C 28.039062 19.023438 28.042969 19.183594 28.046875 19.351562 C 28.046875 20.167969 28.035156 20.507812 27.5 21.15625 C 27.332031 21.289062 27.167969 21.425781 27 21.5625 C 26.804688 21.804688 26.613281 22.054688 26.429688 22.3125 C 26.332031 22.441406 26.234375 22.574219 26.136719 22.710938 C 25.9375 22.988281 25.734375 23.265625 25.539062 23.542969 C 25.441406 23.671875 25.34375 23.804688 25.246094 23.941406 C 25.160156 24.058594 25.074219 24.179688 24.984375 24.300781 C 24.867188 24.429688 24.867188 24.429688 24.75 24.5625 C 24.625 24.5625 24.503906 24.5625 24.375 24.5625 C 24.375 24.433594 24.371094 24.308594 24.371094 24.175781 C 24.359375 23.597656 24.34375 23.019531 24.328125 22.441406 C 24.328125 22.242188 24.324219 22.039062 24.320312 21.832031 C 24.3125 21.640625 24.308594 21.445312 24.300781 21.246094 C 24.296875 21.070312 24.292969 20.894531 24.289062 20.710938 C 24.160156 20.121094 23.925781 20.015625 23.4375 19.6875 C 23.363281 19.222656 23.363281 19.222656 23.390625 18.714844 C 23.398438 18.546875 23.402344 18.375 23.410156 18.203125 C 23.421875 18.074219 23.429688 17.945312 23.4375 17.8125 C 23.683594 17.6875 23.933594 17.566406 24.1875 17.4375 C 24.25 15.890625 24.3125 14.34375 24.375 12.75 Z M 24.375 12.75 "/>
<path style=" stroke:none;fill-rule:nonzero;fill:rgb(99.607843%,76.078433%,26.274511%);fill-opacity:1;" d="M 8.625 8.0625 C 8.625 13.632812 8.625 19.199219 8.625 24.9375 C 8.007812 24.9375 7.386719 24.9375 6.75 24.9375 C 6.738281 22.847656 6.726562 20.757812 6.71875 18.667969 C 6.71875 17.699219 6.714844 16.730469 6.707031 15.757812 C 6.703125 14.820312 6.699219 13.886719 6.699219 12.949219 C 6.695312 12.59375 6.695312 12.234375 6.691406 11.878906 C 6.6875 11.378906 6.6875 10.878906 6.6875 10.378906 C 6.683594 10.230469 6.683594 10.082031 6.679688 9.929688 C 6.683594 9.347656 6.722656 8.878906 6.953125 8.339844 C 7.3125 8.0625 7.3125 8.0625 8.625 8.0625 Z M 8.625 8.0625 "/>
<path style=" stroke:none;fill-rule:nonzero;fill:rgb(1.568628%,2.745098%,2.745098%);fill-opacity:1;" d="M 30 33 C 30.375 33.375 30.375 33.375 30.398438 33.867188 C 30.390625 34.015625 30.382812 34.160156 30.375 34.3125 C 29.53125 34.546875 29.53125 34.546875 29.09375 34.320312 C 28.59375 34.078125 28.214844 34.070312 27.65625 34.066406 C 27.480469 34.0625 27.304688 34.058594 27.125 34.058594 C 26.550781 34.136719 26.3125 34.324219 25.875 34.6875 C 25.75 34.6875 25.628906 34.6875 25.5 34.6875 C 25.441406 34.832031 25.382812 34.980469 25.324219 35.132812 C 25.125 35.625 25.125 35.625 24.9375 36 C 24.8125 36.761719 24.800781 37.421875 25.164062 38.117188 C 25.640625 38.777344 26.039062 39.261719 26.8125 39.5625 C 27.847656 39.648438 28.570312 39.632812 29.4375 39 C 29.742188 38.519531 29.976562 38.027344 30.1875 37.5 C 29.992188 37.503906 29.992188 37.503906 29.789062 37.511719 C 29.621094 37.515625 29.449219 37.519531 29.273438 37.523438 C 29.019531 37.53125 29.019531 37.53125 28.757812 37.539062 C 28.3125 37.5 28.3125 37.5 27.9375 37.125 C 28.039062 36.460938 28.039062 36.460938 28.3125 36.1875 C 28.816406 36.167969 29.308594 36.160156 29.8125 36.164062 C 29.953125 36.164062 30.09375 36.164062 30.238281 36.160156 C 31.289062 36.164062 31.289062 36.164062 31.5 36.375 C 31.652344 37.617188 31.585938 38.585938 30.84375 39.613281 C 30.117188 40.449219 29.441406 41.003906 28.304688 41.121094 C 26.953125 41.167969 25.992188 41.136719 24.90625 40.285156 C 23.945312 39.316406 23.414062 38.273438 23.390625 36.902344 C 23.410156 35.683594 23.535156 34.816406 24.378906 33.898438 C 26.125 32.28125 27.824219 31.988281 30 33 Z M 30 33 "/>
<path style=" stroke:none;fill-rule:nonzero;fill:rgb(38.431373%,80.392158%,91.764706%);fill-opacity:1;" d="M 31.875 31.3125 C 32.207031 31.296875 32.539062 31.285156 32.871094 31.277344 C 33.054688 31.269531 33.238281 31.265625 33.429688 31.257812 C 33.9375 31.3125 33.9375 31.3125 34.246094 31.539062 C 34.582031 31.984375 34.574219 32.265625 34.574219 32.820312 C 34.578125 33.109375 34.578125 33.109375 34.582031 33.40625 C 34.582031 33.613281 34.582031 33.820312 34.582031 34.035156 C 34.582031 34.25 34.582031 34.464844 34.585938 34.683594 C 34.585938 35.136719 34.585938 35.589844 34.585938 36.042969 C 34.582031 36.734375 34.589844 37.425781 34.59375 38.121094 C 34.59375 38.558594 34.59375 39 34.59375 39.4375 C 34.59375 39.648438 34.597656 39.851562 34.597656 40.070312 C 34.597656 40.261719 34.59375 40.453125 34.59375 40.652344 C 34.59375 40.824219 34.59375 40.992188 34.59375 41.167969 C 34.464844 41.789062 34.246094 41.984375 33.75 42.375 C 33.179688 42.46875 33.179688 42.46875 32.5 42.464844 C 32.3125 42.46875 32.3125 42.46875 32.117188 42.46875 C 31.699219 42.46875 31.277344 42.464844 30.859375 42.460938 C 30.558594 42.460938 30.257812 42.460938 29.953125 42.460938 C 29.136719 42.460938 28.320312 42.457031 27.503906 42.453125 C 26.648438 42.445312 25.792969 42.445312 24.9375 42.445312 C 23.320312 42.441406 21.703125 42.4375 20.082031 42.429688 C 18.242188 42.421875 16.398438 42.417969 14.558594 42.414062 C 10.765625 42.40625 6.976562 42.390625 3.1875 42.375 C 3.1875 42.3125 3.1875 42.25 3.1875 42.1875 C 3.335938 42.1875 3.484375 42.1875 3.636719 42.1875 C 7.222656 42.164062 10.8125 42.144531 14.398438 42.125 C 16.132812 42.113281 17.867188 42.101562 19.605469 42.09375 C 21.117188 42.085938 22.628906 42.078125 24.140625 42.066406 C 24.941406 42.0625 25.742188 42.058594 26.542969 42.054688 C 27.296875 42.050781 28.046875 42.046875 28.800781 42.042969 C 29.078125 42.039062 29.355469 42.039062 29.632812 42.039062 C 30.007812 42.035156 30.386719 42.03125 30.761719 42.03125 C 30.976562 42.027344 31.1875 42.027344 31.40625 42.027344 C 31.863281 42.050781 31.863281 42.050781 32.0625 41.8125 C 32.082031 41.503906 32.085938 41.195312 32.085938 40.886719 C 32.085938 40.59375 32.085938 40.59375 32.089844 40.289062 C 32.089844 40.078125 32.085938 39.859375 32.085938 39.640625 C 32.085938 39.421875 32.085938 39.203125 32.089844 38.976562 C 32.089844 38.511719 32.085938 38.046875 32.085938 37.585938 C 32.085938 36.871094 32.085938 36.160156 32.089844 35.445312 C 32.089844 34.996094 32.085938 34.546875 32.085938 34.097656 C 32.089844 33.777344 32.089844 33.777344 32.089844 33.449219 C 32.089844 33.25 32.085938 33.050781 32.085938 32.847656 C 32.085938 32.671875 32.085938 32.5 32.085938 32.320312 C 32.082031 31.847656 32.082031 31.847656 31.875 31.3125 Z M 31.875 31.3125 "/>
<path style=" stroke:none;fill-rule:nonzero;fill:rgb(58.823532%,88.627452%,97.254902%);fill-opacity:1;" d="M 17.25 33.9375 C 17.894531 34.253906 17.894531 34.253906 18.375 34.6875 C 18.519531 34.8125 18.667969 34.933594 18.820312 35.0625 C 19.3125 35.964844 19.261719 36.871094 19.125 37.875 C 18.707031 38.726562 18.191406 39.339844 17.296875 39.691406 C 16.3125 39.828125 15.648438 39.890625 14.765625 39.433594 C 14.078125 38.859375 13.597656 38.355469 13.3125 37.5 C 13.21875 36.347656 13.324219 35.601562 14.0625 34.6875 C 15.003906 33.789062 16.011719 33.753906 17.25 33.9375 Z M 17.25 33.9375 "/>
<path style=" stroke:none;fill-rule:nonzero;fill:rgb(42.745098%,83.137256%,62.7451%);fill-opacity:1;" d="M 16.5 9.375 C 17.058594 9.375 17.613281 9.375 18.1875 9.375 C 18.1875 14.511719 18.1875 19.644531 18.1875 24.9375 C 17.628906 24.9375 17.074219 24.9375 16.5 24.9375 C 16.5 19.800781 16.5 14.667969 16.5 9.375 Z M 16.5 9.375 "/>
<path style=" stroke:none;fill-rule:nonzero;fill:rgb(99.607843%,76.078433%,26.274511%);fill-opacity:1;" d="M 41.8125 8.0625 C 42.308594 8.0625 42.800781 8.0625 43.3125 8.0625 C 43.746094 8.714844 43.734375 8.953125 43.730469 9.722656 C 43.730469 10.058594 43.730469 10.058594 43.730469 10.40625 C 43.730469 10.644531 43.726562 10.890625 43.726562 11.140625 C 43.722656 11.390625 43.722656 11.644531 43.722656 11.894531 C 43.722656 12.558594 43.71875 13.21875 43.714844 13.878906 C 43.710938 14.554688 43.707031 15.230469 43.707031 15.902344 C 43.703125 17.226562 43.695312 18.550781 43.6875 19.875 C 43.070312 19.875 42.449219 19.875 41.8125 19.875 C 41.8125 15.976562 41.8125 12.078125 41.8125 8.0625 Z M 41.8125 8.0625 "/>
<path style=" stroke:none;fill-rule:nonzero;fill:rgb(77.64706%,92.156863%,97.647059%);fill-opacity:1;" d="M 36.375 7.875 C 37.675781 7.875 38.972656 7.875 40.3125 7.875 C 40.3125 11.898438 40.3125 15.917969 40.3125 20.0625 C 39.261719 20.0625 38.207031 20.0625 37.125 20.0625 C 37.125 18.886719 37.125 17.710938 37.125 16.5 C 37.1875 16.5 37.25 16.5 37.3125 16.5 C 37.3125 17.613281 37.3125 18.726562 37.3125 19.875 C 37.746094 19.875 38.179688 19.875 38.625 19.875 C 38.625 15.976562 38.625 12.078125 38.625 8.0625 C 37.882812 8.0625 37.140625 8.0625 36.375 8.0625 C 36.375 8 36.375 7.9375 36.375 7.875 Z M 36.375 7.875 "/>
<path style=" stroke:none;fill-rule:nonzero;fill:rgb(5.882353%,5.098039%,2.745098%);fill-opacity:1;" d="M 31.664062 23.222656 C 31.898438 23.222656 32.132812 23.222656 32.375 23.21875 C 32.632812 23.21875 32.890625 23.21875 33.152344 23.21875 C 33.414062 23.21875 33.679688 23.21875 33.941406 23.21875 C 34.496094 23.214844 35.050781 23.214844 35.601562 23.214844 C 36.3125 23.214844 37.023438 23.214844 37.734375 23.210938 C 38.277344 23.207031 38.824219 23.207031 39.367188 23.207031 C 39.628906 23.207031 39.890625 23.207031 40.152344 23.203125 C 40.519531 23.203125 40.886719 23.203125 41.25 23.203125 C 41.460938 23.203125 41.667969 23.203125 41.882812 23.203125 C 42.375 23.25 42.375 23.25 42.75 23.625 C 42.644531 24.480469 42.644531 24.480469 42.375 24.75 C 42.007812 24.769531 41.644531 24.773438 41.273438 24.777344 C 41.039062 24.777344 40.804688 24.777344 40.5625 24.78125 C 40.304688 24.78125 40.046875 24.78125 39.785156 24.78125 C 39.523438 24.78125 39.257812 24.78125 38.996094 24.78125 C 38.441406 24.785156 37.886719 24.785156 37.335938 24.785156 C 36.625 24.785156 35.914062 24.785156 35.203125 24.789062 C 34.660156 24.792969 34.113281 24.792969 33.570312 24.792969 C 33.308594 24.792969 33.046875 24.792969 32.785156 24.796875 C 32.417969 24.796875 32.050781 24.796875 31.6875 24.796875 C 31.375 24.796875 31.375 24.796875 31.054688 24.796875 C 30.5625 24.75 30.5625 24.75 30.1875 24.375 C 30.328125 23.21875 30.542969 23.226562 31.664062 23.222656 Z M 31.664062 23.222656 "/>
<path style=" stroke:none;fill-rule:nonzero;fill:rgb(78.823531%,58.823532%,89.803922%);fill-opacity:1;" d="M 24.375 12.9375 C 24.933594 12.9375 25.488281 12.9375 26.0625 12.9375 C 26.085938 14.066406 26.101562 15.199219 26.113281 16.332031 C 26.117188 16.714844 26.125 17.101562 26.132812 17.484375 C 26.144531 18.039062 26.152344 18.589844 26.15625 19.144531 C 26.15625 19.316406 26.164062 19.488281 26.167969 19.664062 C 26.167969 20.515625 26.164062 20.875 25.613281 21.558594 C 25.453125 21.683594 25.292969 21.808594 25.125 21.9375 C 24.984375 22.078125 24.839844 22.222656 24.691406 22.371094 C 24.585938 22.476562 24.480469 22.582031 24.375 22.6875 C 24.371094 22.519531 24.367188 22.347656 24.359375 22.171875 C 24.351562 21.953125 24.339844 21.730469 24.328125 21.503906 C 24.320312 21.285156 24.3125 21.0625 24.300781 20.839844 C 24.164062 20.128906 24 20.085938 23.4375 19.6875 C 23.363281 19.222656 23.363281 19.222656 23.390625 18.714844 C 23.398438 18.546875 23.402344 18.375 23.410156 18.203125 C 23.421875 18.074219 23.429688 17.945312 23.4375 17.8125 C 23.683594 17.6875 23.933594 17.566406 24.1875 17.4375 C 24.25 15.953125 24.3125 14.46875 24.375 12.9375 Z M 24.375 12.9375 "/>
<path style=" stroke:none;fill-rule:nonzero;fill:rgb(3.529412%,5.490196%,6.27451%);fill-opacity:1;" d="M 5.8125 32.4375 C 6.667969 32.542969 6.667969 32.542969 6.9375 32.8125 C 6.953125 33.328125 6.960938 33.835938 6.957031 34.347656 C 6.957031 34.5 6.953125 34.65625 6.953125 34.816406 C 6.953125 35.304688 6.953125 35.800781 6.949219 36.292969 C 6.949219 36.625 6.945312 36.960938 6.945312 37.292969 C 6.945312 38.109375 6.941406 38.929688 6.9375 39.75 C 7.15625 39.746094 7.15625 39.746094 7.375 39.738281 C 7.5625 39.734375 7.75 39.730469 7.945312 39.726562 C 8.132812 39.722656 8.320312 39.71875 8.511719 39.710938 C 9 39.75 9 39.75 9.375 40.125 C 9.269531 40.980469 9.269531 40.980469 9 41.25 C 8.503906 41.277344 8.019531 41.292969 7.523438 41.296875 C 7.386719 41.300781 7.25 41.304688 7.105469 41.308594 C 6.089844 41.316406 6.089844 41.316406 5.679688 41.015625 C 5.382812 40.613281 5.367188 40.402344 5.367188 39.90625 C 5.367188 39.75 5.367188 39.59375 5.363281 39.433594 C 5.367188 39.265625 5.367188 39.09375 5.371094 38.921875 C 5.371094 38.75 5.371094 38.578125 5.371094 38.398438 C 5.371094 38.03125 5.371094 37.667969 5.375 37.300781 C 5.378906 36.742188 5.378906 36.179688 5.378906 35.617188 C 5.378906 35.261719 5.378906 34.90625 5.382812 34.550781 C 5.382812 34.382812 5.382812 34.214844 5.382812 34.039062 C 5.382812 33.886719 5.386719 33.730469 5.386719 33.566406 C 5.386719 33.429688 5.386719 33.292969 5.390625 33.152344 C 5.4375 32.8125 5.4375 32.8125 5.8125 32.4375 Z M 5.8125 32.4375 "/>
<path style=" stroke:none;fill-rule:nonzero;fill:rgb(84.705883%,23.921569%,30.19608%);fill-opacity:1;" d="M 33 16.101562 C 33.148438 16.101562 33.300781 16.101562 33.457031 16.101562 C 33.613281 16.101562 33.773438 16.101562 33.9375 16.101562 C 34.175781 16.101562 34.175781 16.101562 34.417969 16.101562 C 34.570312 16.101562 34.71875 16.101562 34.875 16.101562 C 35.015625 16.101562 35.15625 16.101562 35.296875 16.101562 C 35.625 16.125 35.625 16.125 35.8125 16.3125 C 35.828125 16.589844 35.832031 16.871094 35.832031 17.152344 C 35.832031 17.304688 35.828125 17.453125 35.828125 17.613281 C 35.828125 17.804688 35.824219 18 35.824219 18.199219 C 35.820312 18.8125 35.816406 19.429688 35.8125 20.0625 C 34.574219 20.0625 33.335938 20.0625 32.0625 20.0625 C 32.058594 19.445312 32.054688 18.832031 32.050781 18.199219 C 32.050781 18.003906 32.046875 17.8125 32.046875 17.613281 C 32.046875 17.382812 32.046875 17.382812 32.042969 17.152344 C 32.042969 16.996094 32.042969 16.839844 32.042969 16.675781 C 32.082031 16.007812 32.414062 16.101562 33 16.101562 Z M 33 16.101562 "/>
<path style=" stroke:none;fill-rule:nonzero;fill:rgb(6.27451%,6.666667%,6.666667%);fill-opacity:1;" d="M 17.371094 3.902344 C 17.570312 3.902344 17.570312 3.902344 17.773438 3.902344 C 18.171875 3.902344 18.574219 3.898438 18.976562 3.894531 C 19.230469 3.894531 19.484375 3.894531 19.738281 3.894531 C 19.972656 3.894531 20.203125 3.894531 20.445312 3.890625 C 21 3.9375 21 3.9375 21.375 4.3125 C 21.269531 5.167969 21.269531 5.167969 21 5.4375 C 20.203125 5.476562 19.402344 5.472656 18.601562 5.472656 C 18.203125 5.472656 17.800781 5.476562 17.398438 5.480469 C 17.144531 5.480469 16.890625 5.480469 16.636719 5.480469 C 16.402344 5.480469 16.171875 5.480469 15.929688 5.484375 C 15.375 5.4375 15.375 5.4375 15 5.0625 C 15.183594 3.550781 16.066406 3.910156 17.371094 3.902344 Z M 17.371094 3.902344 "/>
<path style=" stroke:none;fill-rule:nonzero;fill:rgb(35.686275%,78.431374%,89.803922%);fill-opacity:1;" d="M 35.25 2.4375 C 36.191406 3.230469 37.085938 4.050781 37.957031 4.921875 C 38.074219 5.039062 38.195312 5.15625 38.320312 5.277344 C 38.488281 5.445312 38.488281 5.445312 38.660156 5.617188 C 38.761719 5.71875 38.863281 5.816406 38.96875 5.921875 C 39.1875 6.1875 39.1875 6.1875 39.1875 6.5625 C 38.671875 6.582031 38.15625 6.597656 37.640625 6.609375 C 37.421875 6.617188 37.421875 6.617188 37.199219 6.628906 C 36.53125 6.640625 36.113281 6.625 35.527344 6.292969 C 35.109375 5.566406 35.167969 4.902344 35.203125 4.078125 C 35.207031 3.921875 35.210938 3.761719 35.210938 3.601562 C 35.222656 3.210938 35.234375 2.824219 35.25 2.4375 Z M 35.25 2.4375 "/>
<path style=" stroke:none;fill-rule:nonzero;fill:rgb(98.431373%,37.254903%,47.843137%);fill-opacity:1;" d="M 32.25 16.3125 C 32.808594 16.3125 33.363281 16.3125 33.9375 16.3125 C 33.9375 17.488281 33.9375 18.664062 33.9375 19.875 C 33.378906 19.875 32.824219 19.875 32.25 19.875 C 32.25 18.699219 32.25 17.523438 32.25 16.3125 Z M 32.25 16.3125 "/>
<path style=" stroke:none;fill-rule:nonzero;fill:rgb(58.431375%,89.019608%,97.647059%);fill-opacity:1;" d="M 35.25 3.9375 C 36.164062 4.675781 36.949219 5.460938 37.6875 6.375 C 37.386719 6.390625 37.085938 6.402344 36.785156 6.410156 C 36.617188 6.417969 36.449219 6.421875 36.277344 6.429688 C 35.8125 6.375 35.8125 6.375 35.472656 6.152344 C 35.171875 5.695312 35.195312 5.382812 35.214844 4.839844 C 35.21875 4.671875 35.226562 4.5 35.230469 4.328125 C 35.238281 4.199219 35.242188 4.070312 35.25 3.9375 Z M 35.25 3.9375 "/>
</g>
</svg>
