<?xml version="1.0" encoding="UTF-8"?>
<svg xmlns="http://www.w3.org/2000/svg" xmlns:xlink="http://www.w3.org/1999/xlink" width="48" height="48" viewBox="0 0 48 48" version="1.1">
<g id="surface1">
<path style=" stroke:none;fill-rule:nonzero;fill:rgb(99.215686%,65.490198%,13.725491%);fill-opacity:1;" d="M 17.0625 3.375 C 17.519531 3.347656 17.976562 3.332031 18.433594 3.316406 C 18.628906 3.304688 18.628906 3.304688 18.824219 3.292969 C 19.207031 3.28125 19.207031 3.28125 19.875 3.375 C 20.21875 3.78125 20.21875 3.78125 20.4375 4.3125 C 20.511719 4.488281 20.582031 4.660156 20.65625 4.839844 C 20.71875 5.019531 20.78125 5.195312 20.847656 5.378906 C 20.910156 5.558594 20.976562 5.734375 21.042969 5.917969 C 21.1875 6.375 21.1875 6.375 21.1875 6.75 C 21.375 6.789062 21.558594 6.828125 21.75 6.867188 C 22.378906 7.035156 22.707031 7.296875 23.179688 7.734375 C 23.695312 8.152344 23.914062 8.25 24.589844 8.242188 C 25.210938 8.136719 25.824219 8.015625 26.4375 7.875 C 27.164062 7.710938 27.164062 7.710938 27.75 7.875 C 28.316406 8.570312 28.765625 9.28125 29.0625 10.125 C 28.851562 11.15625 28.023438 11.859375 27.335938 12.613281 C 26.890625 13.160156 26.890625 13.160156 27.1875 14.0625 C 28.117188 14.0625 29.042969 14.0625 30 14.0625 C 30.109375 13.46875 30.109375 13.46875 30.222656 12.867188 C 30.65625 10.886719 31.359375 9.316406 33 8.0625 C 35.058594 6.847656 37.027344 6.363281 39.402344 6.878906 C 41.300781 7.519531 42.953125 8.792969 43.929688 10.5625 C 44.882812 12.628906 44.863281 14.738281 44.148438 16.882812 C 43.902344 17.386719 43.664062 17.683594 43.304688 18.101562 C 42.617188 19.007812 42.597656 19.753906 42.621094 20.863281 C 42.621094 21.050781 42.621094 21.234375 42.621094 21.429688 C 42.621094 22.042969 42.632812 22.65625 42.640625 23.265625 C 42.644531 23.695312 42.644531 24.121094 42.644531 24.546875 C 42.648438 25.667969 42.660156 26.785156 42.671875 27.90625 C 42.683594 29.050781 42.691406 30.191406 42.695312 31.335938 C 42.707031 33.578125 42.726562 35.820312 42.75 38.0625 C 42.953125 38.054688 43.160156 38.046875 43.371094 38.039062 C 44.0625 38.0625 44.0625 38.0625 44.625 38.4375 C 44.675781 38.902344 44.695312 39.316406 44.6875 39.78125 C 44.6875 39.914062 44.683594 40.042969 44.683594 40.179688 C 44.683594 40.460938 44.679688 40.738281 44.675781 41.019531 C 44.671875 41.449219 44.671875 41.878906 44.667969 42.304688 C 44.667969 42.578125 44.664062 42.847656 44.664062 43.121094 C 44.664062 43.25 44.660156 43.378906 44.660156 43.511719 C 44.648438 44.414062 44.648438 44.414062 44.4375 44.625 C 43.914062 44.644531 43.390625 44.648438 42.863281 44.648438 C 42.613281 44.648438 42.613281 44.648438 42.359375 44.648438 C 41.796875 44.652344 41.230469 44.648438 40.667969 44.648438 C 40.265625 44.648438 39.863281 44.648438 39.460938 44.648438 C 38.363281 44.652344 37.265625 44.652344 36.171875 44.648438 C 35.027344 44.648438 33.882812 44.648438 32.738281 44.652344 C 30.816406 44.652344 28.890625 44.652344 26.96875 44.648438 C 24.746094 44.648438 22.515625 44.648438 20.292969 44.648438 C 18.382812 44.652344 16.476562 44.652344 14.570312 44.648438 C 13.429688 44.648438 12.285156 44.648438 11.148438 44.652344 C 10.074219 44.652344 9 44.652344 7.929688 44.648438 C 7.535156 44.648438 7.140625 44.648438 6.746094 44.648438 C 6.207031 44.652344 5.671875 44.648438 5.136719 44.648438 C 4.976562 44.648438 4.820312 44.648438 4.65625 44.648438 C 3.582031 44.644531 3.582031 44.644531 3.375 44.4375 C 3.351562 43.996094 3.339844 43.5625 3.335938 43.121094 C 3.335938 42.921875 3.335938 42.921875 3.332031 42.71875 C 3.332031 42.441406 3.328125 42.160156 3.328125 41.878906 C 3.328125 41.453125 3.324219 41.023438 3.316406 40.59375 C 3.316406 40.320312 3.316406 40.050781 3.3125 39.78125 C 3.3125 39.652344 3.308594 39.523438 3.304688 39.390625 C 3.308594 39.027344 3.308594 39.027344 3.375 38.4375 C 4.058594 37.980469 4.445312 38.03125 5.25 38.0625 C 5.25 37.941406 5.25 37.820312 5.25 37.695312 C 5.261719 34.742188 5.277344 31.792969 5.296875 28.839844 C 5.300781 27.414062 5.308594 25.988281 5.316406 24.558594 C 5.320312 23.316406 5.324219 22.074219 5.335938 20.828125 C 5.339844 20.167969 5.34375 19.511719 5.34375 18.851562 C 5.34375 18.117188 5.351562 17.382812 5.355469 16.648438 C 5.355469 16.429688 5.355469 16.210938 5.355469 15.984375 C 5.359375 15.785156 5.359375 15.585938 5.363281 15.378906 C 5.363281 15.207031 5.363281 15.03125 5.367188 14.851562 C 5.402344 14.648438 5.402344 14.648438 5.4375 14.4375 C 6.046875 14.03125 6.210938 14.015625 6.917969 14.023438 C 7.089844 14.027344 7.265625 14.027344 7.449219 14.027344 C 7.632812 14.03125 7.816406 14.035156 8.003906 14.039062 C 8.191406 14.039062 8.375 14.042969 8.566406 14.042969 C 9.023438 14.050781 9.480469 14.054688 9.9375 14.0625 C 10.03125 13.292969 9.988281 13.007812 9.519531 12.367188 C 9.257812 12.078125 8.984375 11.796875 8.714844 11.515625 C 8.0625 10.800781 8.0625 10.800781 8.0625 10.210938 C 8.273438 9.691406 8.527344 9.230469 8.824219 8.753906 C 8.925781 8.585938 9.03125 8.421875 9.136719 8.25 C 9.214844 8.128906 9.292969 8.003906 9.375 7.875 C 9.722656 7.902344 10.070312 7.929688 10.417969 7.957031 C 10.625 7.972656 10.832031 7.988281 11.046875 8.003906 C 11.625 8.0625 11.625 8.0625 12.292969 8.25 C 13.226562 8.25 13.761719 7.78125 14.503906 7.25 C 15 6.9375 15.359375 6.824219 15.9375 6.75 C 15.957031 6.648438 15.976562 6.546875 15.992188 6.441406 C 16.210938 5.339844 16.574219 4.382812 17.0625 3.375 Z M 17.0625 3.375 "/>
<path style=" stroke:none;fill-rule:nonzero;fill:rgb(92.156863%,91.764706%,98.431373%);fill-opacity:1;" d="M 6.5625 15.1875 C 7.800781 15.1875 9.039062 15.1875 10.3125 15.1875 C 10.3125 16.6875 10.3125 16.6875 9.949219 17.210938 C 9.796875 17.359375 9.640625 17.507812 9.480469 17.660156 C 8.664062 18.4375 8.664062 18.4375 8.4375 19.5 C 8.613281 19.96875 8.613281 19.96875 8.894531 20.402344 C 8.984375 20.550781 9.070312 20.699219 9.164062 20.851562 C 9.234375 20.960938 9.304688 21.074219 9.375 21.1875 C 9.476562 21.175781 9.582031 21.164062 9.6875 21.148438 C 13.253906 20.75 13.253906 20.75 14.777344 21.964844 C 14.910156 22.078125 15.046875 22.195312 15.1875 22.3125 C 15.433594 22.4375 15.433594 22.4375 15.683594 22.566406 C 16.265625 22.972656 16.351562 23.3125 16.546875 23.988281 C 16.605469 24.183594 16.664062 24.378906 16.726562 24.578125 C 16.84375 25.011719 16.957031 25.441406 17.0625 25.875 C 17.371094 25.875 17.679688 25.875 18 25.875 C 18 28.660156 18 31.445312 18 34.3125 C 16.328125 34.3125 14.660156 34.3125 12.9375 34.3125 C 12.8125 33.878906 12.691406 33.445312 12.5625 33 C 12.207031 32.726562 12.207031 32.726562 11.8125 32.625 C 11.6875 32.5625 11.566406 32.5 11.4375 32.4375 C 10.527344 32.339844 9.796875 32.296875 9 32.777344 C 8.359375 33.476562 8.175781 33.910156 8.203125 34.863281 C 8.296875 35.621094 8.625 36.160156 9.117188 36.726562 C 9.824219 37.0625 10.484375 37.058594 11.25 36.9375 C 11.925781 36.601562 12.289062 36.410156 12.566406 35.699219 C 12.9375 35.25 12.9375 35.25 13.320312 35.167969 C 13.84375 35.140625 14.355469 35.144531 14.878906 35.15625 C 15.070312 35.160156 15.261719 35.160156 15.457031 35.160156 C 16.066406 35.167969 16.675781 35.179688 17.285156 35.191406 C 17.699219 35.195312 18.109375 35.203125 18.523438 35.203125 C 19.539062 35.214844 20.550781 35.230469 21.5625 35.25 C 21.746094 35.582031 21.933594 35.914062 22.117188 36.25 C 22.386719 36.683594 22.566406 36.8125 23.0625 36.9375 C 24.015625 37 24.816406 36.996094 25.6875 36.5625 C 25.949219 36.105469 25.949219 36.105469 26.0625 35.625 C 26.125 35.5 26.1875 35.378906 26.25 35.25 C 27.464844 35.222656 28.679688 35.203125 29.894531 35.1875 C 30.308594 35.183594 30.71875 35.175781 31.132812 35.164062 C 31.726562 35.152344 32.320312 35.144531 32.914062 35.140625 C 33.097656 35.132812 33.285156 35.128906 33.472656 35.121094 C 33.96875 35.121094 34.398438 35.132812 34.875 35.25 C 35.347656 35.796875 35.347656 35.796875 35.625 36.375 C 36.171875 36.894531 36.546875 37.019531 37.300781 37.019531 C 37.953125 36.996094 38.230469 36.949219 38.8125 36.621094 C 39.488281 35.839844 39.648438 35.125 39.621094 34.113281 C 39.523438 33.519531 39.238281 33.214844 38.8125 32.8125 C 38.015625 32.34375 37.277344 32.285156 36.375 32.4375 C 35.523438 32.875 35.234375 33.417969 34.875 34.3125 C 32.027344 34.3125 29.183594 34.3125 26.25 34.3125 C 26.0625 33.878906 25.878906 33.445312 25.6875 33 C 25.105469 32.453125 24.582031 32.390625 23.8125 32.355469 C 23.171875 32.378906 22.890625 32.429688 22.3125 32.742188 C 21.839844 33.246094 21.839844 33.246094 21.5625 34.3125 C 20.757812 34.3125 19.953125 34.3125 19.125 34.3125 C 19.125 31.527344 19.125 28.742188 19.125 25.875 C 19.433594 25.75 19.742188 25.628906 20.0625 25.5 C 20.277344 25.089844 20.277344 25.089844 20.367188 24.609375 C 20.605469 23.59375 20.808594 22.742188 21.722656 22.15625 C 21.921875 22.070312 22.121094 21.980469 22.324219 21.890625 C 23.132812 21.539062 23.132812 21.539062 23.8125 21 C 24.335938 21 24.335938 21 24.972656 21.058594 C 25.191406 21.078125 25.40625 21.097656 25.632812 21.121094 C 26.28125 21.191406 26.921875 21.269531 27.5625 21.375 C 27.757812 21.082031 27.945312 20.78125 28.136719 20.484375 C 28.242188 20.320312 28.351562 20.15625 28.460938 19.984375 C 28.714844 19.53125 28.714844 19.53125 28.683594 19.125 C 28.328125 18.394531 27.71875 17.835938 27.175781 17.242188 C 26.8125 16.6875 26.8125 16.6875 26.8125 15.375 C 28.050781 15.375 29.289062 15.375 30.5625 15.375 C 30.691406 15.710938 30.816406 16.046875 30.949219 16.394531 C 31.757812 18.316406 32.785156 19.539062 34.6875 20.4375 C 36.507812 21.167969 38.53125 21 40.3125 20.25 C 40.683594 20.125 41.054688 20.003906 41.4375 19.875 C 41.4375 25.9375 41.4375 32.003906 41.4375 38.25 C 37.785156 38.25 34.136719 38.25 30.375 38.25 C 30.375 39.363281 30.375 40.476562 30.375 41.625 C 30.03125 41.96875 29.492188 41.835938 29.03125 41.835938 C 28.785156 41.835938 28.539062 41.839844 28.285156 41.839844 C 28.011719 41.839844 27.742188 41.839844 27.46875 41.835938 C 27.191406 41.835938 26.914062 41.835938 26.636719 41.839844 C 26.058594 41.839844 25.476562 41.839844 24.894531 41.835938 C 24.148438 41.835938 23.402344 41.835938 22.660156 41.835938 C 22.085938 41.839844 21.515625 41.839844 20.945312 41.835938 C 20.667969 41.835938 20.394531 41.835938 20.117188 41.839844 C 19.734375 41.839844 19.351562 41.835938 18.96875 41.835938 C 18.640625 41.835938 18.640625 41.835938 18.304688 41.835938 C 17.8125 41.8125 17.8125 41.8125 17.625 41.625 C 17.625 40.511719 17.625 39.398438 17.625 38.25 C 13.972656 38.25 10.324219 38.25 6.5625 38.25 C 6.5625 30.640625 6.5625 23.027344 6.5625 15.1875 Z M 6.5625 15.1875 "/>
<path style=" stroke:none;fill-rule:nonzero;fill:rgb(14.901961%,45.09804%,54.509807%);fill-opacity:1;" d="M 6.902344 14.019531 C 7.078125 14.019531 7.25 14.019531 7.429688 14.019531 C 7.613281 14.023438 7.792969 14.023438 7.980469 14.027344 C 8.164062 14.027344 8.34375 14.027344 8.53125 14.027344 C 9.882812 14.035156 9.882812 14.035156 10.3125 14.25 C 10.3125 14.558594 10.3125 14.867188 10.3125 15.1875 C 9.074219 15.1875 7.835938 15.1875 6.5625 15.1875 C 6.5625 22.796875 6.5625 30.410156 6.5625 38.25 C 10.210938 38.25 13.863281 38.25 17.625 38.25 C 17.71875 39.921875 17.71875 39.921875 17.8125 41.625 C 21.894531 41.625 25.980469 41.625 30.1875 41.625 C 30.25 40.511719 30.3125 39.398438 30.375 38.25 C 34.023438 38.25 37.675781 38.25 41.4375 38.25 C 41.429688 36.917969 41.421875 35.582031 41.410156 34.210938 C 41.40625 33.367188 41.402344 32.523438 41.402344 31.679688 C 41.394531 30.339844 41.390625 29 41.378906 27.660156 C 41.375 26.582031 41.367188 25.5 41.367188 24.421875 C 41.367188 24.007812 41.363281 23.597656 41.359375 23.183594 C 41.351562 22.609375 41.351562 22.03125 41.351562 21.457031 C 41.351562 21.28125 41.347656 21.113281 41.34375 20.9375 C 41.351562 19.78125 41.351562 19.78125 41.796875 19.296875 C 42.1875 19.125 42.1875 19.125 42.5625 19.125 C 42.625 25.375 42.6875 31.625 42.75 38.0625 C 43.183594 38.0625 43.617188 38.0625 44.0625 38.0625 C 44.246094 38.1875 44.433594 38.308594 44.625 38.4375 C 44.675781 38.902344 44.695312 39.316406 44.6875 39.78125 C 44.6875 39.914062 44.6875 40.042969 44.6875 40.179688 C 44.683594 40.460938 44.683594 40.738281 44.675781 41.019531 C 44.671875 41.449219 44.667969 41.878906 44.667969 42.308594 C 44.667969 42.578125 44.664062 42.847656 44.664062 43.121094 C 44.660156 43.25 44.660156 43.378906 44.660156 43.511719 C 44.648438 44.414062 44.648438 44.414062 44.4375 44.625 C 43.910156 44.644531 43.390625 44.648438 42.863281 44.648438 C 42.613281 44.648438 42.613281 44.648438 42.359375 44.648438 C 41.796875 44.652344 41.230469 44.648438 40.667969 44.648438 C 40.265625 44.648438 39.863281 44.648438 39.460938 44.652344 C 38.363281 44.652344 37.265625 44.652344 36.171875 44.648438 C 35.027344 44.648438 33.882812 44.648438 32.738281 44.652344 C 30.816406 44.652344 28.894531 44.652344 26.96875 44.648438 C 24.742188 44.648438 22.519531 44.648438 20.292969 44.648438 C 18.382812 44.652344 16.476562 44.652344 14.570312 44.652344 C 13.429688 44.648438 12.289062 44.648438 11.144531 44.652344 C 10.074219 44.652344 9 44.652344 7.929688 44.648438 C 7.535156 44.648438 7.140625 44.648438 6.746094 44.648438 C 6.210938 44.652344 5.671875 44.648438 5.136719 44.648438 C 4.976562 44.648438 4.816406 44.648438 4.65625 44.648438 C 3.585938 44.644531 3.585938 44.644531 3.375 44.4375 C 3.351562 43.996094 3.339844 43.5625 3.335938 43.121094 C 3.335938 42.921875 3.335938 42.921875 3.332031 42.71875 C 3.332031 42.441406 3.332031 42.160156 3.328125 41.878906 C 3.328125 41.453125 3.320312 41.023438 3.316406 40.59375 C 3.3125 40.324219 3.3125 40.050781 3.3125 39.78125 C 3.3125 39.652344 3.308594 39.523438 3.308594 39.390625 C 3.308594 39.027344 3.308594 39.027344 3.375 38.4375 C 4.058594 37.980469 4.445312 38.03125 5.25 38.0625 C 5.25 37.941406 5.25 37.820312 5.25 37.695312 C 5.261719 34.742188 5.277344 31.792969 5.292969 28.839844 C 5.300781 27.414062 5.308594 25.988281 5.316406 24.558594 C 5.320312 23.316406 5.328125 22.074219 5.332031 20.828125 C 5.339844 20.167969 5.339844 19.511719 5.34375 18.851562 C 5.34375 18.117188 5.351562 17.382812 5.355469 16.648438 C 5.355469 16.429688 5.355469 16.210938 5.355469 15.984375 C 5.359375 15.785156 5.359375 15.585938 5.363281 15.378906 C 5.363281 15.207031 5.363281 15.03125 5.367188 14.851562 C 5.390625 14.714844 5.414062 14.578125 5.4375 14.4375 C 6.042969 14.035156 6.207031 14.015625 6.902344 14.019531 Z M 6.902344 14.019531 "/>
<path style=" stroke:none;fill-rule:nonzero;fill:rgb(99.607843%,25.490198%,11.372549%);fill-opacity:1;" d="M 41.671875 8.015625 C 43.222656 9.28125 44.300781 10.742188 44.625 12.75 C 44.804688 14.953125 44.453125 17.003906 42.996094 18.730469 C 41.152344 20.40625 38.976562 21.097656 36.511719 21.058594 C 34.738281 20.910156 33.226562 20.039062 32.070312 18.703125 C 31.277344 17.640625 30.875 16.660156 30.5625 15.375 C 29.324219 15.375 28.085938 15.375 26.8125 15.375 C 26.8125 15.003906 26.8125 14.632812 26.8125 14.25 C 27.386719 13.964844 27.988281 14.042969 28.617188 14.050781 C 28.816406 14.050781 28.816406 14.050781 29.019531 14.054688 C 29.34375 14.054688 29.671875 14.058594 30 14.0625 C 30.03125 13.894531 30.058594 13.726562 30.089844 13.554688 C 30.519531 11.316406 31.136719 9.484375 33 8.0625 C 35.789062 6.417969 38.90625 6.078125 41.671875 8.015625 Z M 41.671875 8.015625 "/>
<path style=" stroke:none;fill-rule:nonzero;fill:rgb(97.647059%,83.92157%,61.176473%);fill-opacity:1;" d="M 23.78125 23.410156 C 23.9375 23.410156 24.09375 23.410156 24.253906 23.414062 C 24.5 23.410156 24.5 23.410156 24.753906 23.410156 C 25.296875 23.410156 25.84375 23.410156 26.390625 23.410156 C 26.769531 23.410156 27.144531 23.410156 27.523438 23.410156 C 28.316406 23.410156 29.109375 23.410156 29.902344 23.414062 C 30.917969 23.414062 31.9375 23.414062 32.957031 23.410156 C 33.734375 23.410156 34.515625 23.410156 35.296875 23.410156 C 35.671875 23.410156 36.046875 23.410156 36.421875 23.410156 C 36.949219 23.410156 37.472656 23.410156 37.996094 23.414062 C 38.230469 23.410156 38.230469 23.410156 38.46875 23.410156 C 39.539062 23.414062 39.539062 23.414062 39.75 23.625 C 39.769531 24.09375 39.773438 24.5625 39.773438 25.03125 C 39.773438 25.171875 39.773438 25.3125 39.773438 25.457031 C 39.773438 25.753906 39.773438 26.054688 39.773438 26.351562 C 39.773438 26.8125 39.773438 27.269531 39.773438 27.726562 C 39.773438 28.015625 39.773438 28.304688 39.773438 28.59375 C 39.773438 28.730469 39.773438 28.871094 39.773438 29.011719 C 39.773438 29.976562 39.773438 29.976562 39.5625 30.1875 C 39.046875 30.207031 38.53125 30.214844 38.015625 30.214844 C 37.851562 30.214844 37.691406 30.214844 37.523438 30.214844 C 36.984375 30.21875 36.445312 30.21875 35.90625 30.21875 C 35.535156 30.21875 35.160156 30.21875 34.789062 30.21875 C 34.007812 30.222656 33.222656 30.222656 32.4375 30.222656 C 31.433594 30.222656 30.429688 30.222656 29.421875 30.226562 C 28.652344 30.230469 27.882812 30.230469 27.113281 30.230469 C 26.742188 30.230469 26.371094 30.230469 26 30.234375 C 25.480469 30.234375 24.964844 30.234375 24.445312 30.234375 C 24.292969 30.234375 24.136719 30.234375 23.976562 30.238281 C 22.917969 30.230469 22.917969 30.230469 22.5 29.8125 C 22.464844 29.34375 22.453125 28.894531 22.457031 28.429688 C 22.457031 28.292969 22.457031 28.15625 22.457031 28.015625 C 22.457031 27.726562 22.460938 27.441406 22.460938 27.152344 C 22.464844 26.707031 22.464844 26.265625 22.464844 25.824219 C 22.464844 25.542969 22.46875 25.261719 22.46875 24.984375 C 22.46875 24.851562 22.46875 24.71875 22.46875 24.582031 C 22.480469 23.390625 22.605469 23.414062 23.78125 23.410156 Z M 23.78125 23.410156 "/>
<path style=" stroke:none;fill-rule:nonzero;fill:rgb(99.215686%,25.490198%,11.764706%);fill-opacity:1;" d="M 18 25.875 C 18.308594 25.875 18.617188 25.875 18.9375 25.875 C 18.9375 28.660156 18.9375 31.445312 18.9375 34.3125 C 19.804688 34.3125 20.671875 34.3125 21.5625 34.3125 C 21.625 33.941406 21.6875 33.570312 21.75 33.1875 C 22.257812 32.589844 22.554688 32.316406 23.320312 32.160156 C 24.328125 32.105469 25.003906 32.285156 25.824219 32.871094 C 26.0625 33.1875 26.0625 33.1875 26.25 34.3125 C 29.097656 34.3125 31.941406 34.3125 34.875 34.3125 C 34.9375 34.003906 35 33.695312 35.0625 33.375 C 35.507812 32.761719 36.050781 32.324219 36.796875 32.152344 C 37.796875 32.109375 38.414062 32.335938 39.1875 33 C 39.722656 33.5 39.75 33.730469 39.820312 34.476562 C 39.777344 35.449219 39.4375 36.089844 38.800781 36.820312 C 37.992188 37.265625 37.277344 37.3125 36.375 37.125 C 35.628906 36.699219 35.148438 36.257812 34.875 35.4375 C 32.027344 35.375 29.183594 35.3125 26.25 35.25 C 26.125 35.558594 26.003906 35.867188 25.875 36.1875 C 25.4375 36.699219 25.207031 36.910156 24.5625 37.125 C 23.566406 37.1875 22.921875 37.222656 22.125 36.5625 C 21.5625 35.765625 21.5625 35.765625 21.5625 35.25 C 20.34375 35.253906 19.125 35.261719 17.90625 35.277344 C 17.492188 35.285156 17.078125 35.285156 16.664062 35.289062 C 16.070312 35.289062 15.472656 35.296875 14.878906 35.304688 C 14.691406 35.304688 14.507812 35.304688 14.316406 35.300781 C 13.835938 35.3125 13.402344 35.328125 12.9375 35.4375 C 12.546875 35.863281 12.546875 35.863281 12.375 36.375 C 11.601562 37.054688 10.976562 37.257812 9.972656 37.210938 C 9.246094 37.058594 8.933594 36.734375 8.4375 36.1875 C 7.996094 35.445312 7.875 34.59375 8.0625 33.75 C 8.453125 33.128906 8.898438 32.582031 9.5625 32.25 C 10.511719 32.144531 11.234375 32.144531 12.09375 32.589844 C 12.5625 33 12.5625 33 12.9375 33.5625 C 12.9375 33.808594 12.9375 34.058594 12.9375 34.3125 C 14.609375 34.3125 16.277344 34.3125 18 34.3125 C 18 31.527344 18 28.742188 18 25.875 Z M 18 25.875 "/>
<path style=" stroke:none;fill-rule:nonzero;fill:rgb(100%,99.215686%,98.431373%);fill-opacity:1;" d="M 18.257812 10.257812 C 19.542969 10.179688 20.507812 10.523438 21.5625 11.25 C 22.421875 12.03125 22.972656 12.847656 23.132812 14.019531 C 23.167969 15.585938 22.875 16.78125 21.816406 17.972656 C 20.71875 18.980469 19.582031 19.417969 18.089844 19.367188 C 16.8125 19.21875 15.746094 18.695312 14.929688 17.679688 C 13.921875 16.316406 13.914062 14.960938 14.0625 13.3125 C 14.273438 12.699219 14.558594 12.28125 15 11.8125 C 15.148438 11.648438 15.148438 11.648438 15.300781 11.488281 C 16.207031 10.617188 17.042969 10.40625 18.257812 10.257812 Z M 18.257812 10.257812 "/>
<path style=" stroke:none;fill-rule:nonzero;fill:rgb(99.607843%,99.607843%,99.607843%);fill-opacity:1;" d="M 17.8125 38.25 C 21.894531 38.25 25.980469 38.25 30.1875 38.25 C 30.1875 39.425781 30.1875 40.601562 30.1875 41.8125 C 26.105469 41.8125 22.019531 41.8125 17.8125 41.8125 C 17.8125 40.636719 17.8125 39.460938 17.8125 38.25 Z M 17.8125 38.25 "/>
<path style=" stroke:none;fill-rule:nonzero;fill:rgb(100%,59.215689%,14.509805%);fill-opacity:1;" d="M 21.914062 10.367188 C 22.96875 11.179688 23.582031 12.242188 24 13.5 C 24.167969 15.492188 23.90625 16.871094 22.640625 18.421875 C 21.671875 19.464844 20.617188 20.164062 19.1875 20.296875 C 17.378906 20.339844 15.890625 19.964844 14.535156 18.710938 C 13.296875 17.269531 13.039062 15.84375 13.0625 13.988281 C 13.195312 12.539062 13.839844 11.589844 14.882812 10.605469 C 17.046875 8.820312 19.628906 8.800781 21.914062 10.367188 Z M 14.8125 12 C 13.921875 13.070312 13.953125 14.09375 13.988281 15.460938 C 14.085938 16.339844 14.269531 16.746094 14.8125 17.4375 C 14.925781 17.605469 15.039062 17.769531 15.152344 17.941406 C 16.070312 18.910156 17.175781 19.328125 18.492188 19.382812 C 19.753906 19.367188 20.78125 18.902344 21.722656 18.066406 C 22.820312 16.867188 23.175781 15.664062 23.125 14.050781 C 22.992188 12.90625 22.53125 12.148438 21.691406 11.378906 C 19.433594 9.625 16.703125 9.96875 14.8125 12 Z M 14.8125 12 "/>
<path style=" stroke:none;fill-rule:nonzero;fill:rgb(12.54902%,40.392157%,48.627451%);fill-opacity:1;" d="M 6.902344 14.019531 C 7.078125 14.019531 7.25 14.019531 7.429688 14.019531 C 7.613281 14.023438 7.792969 14.023438 7.980469 14.027344 C 8.164062 14.027344 8.34375 14.027344 8.53125 14.027344 C 9.882812 14.035156 9.882812 14.035156 10.3125 14.25 C 10.3125 14.558594 10.3125 14.867188 10.3125 15.1875 C 9.074219 15.25 7.835938 15.3125 6.5625 15.375 C 6.5 22.921875 6.4375 30.472656 6.375 38.25 C 6.066406 38.25 5.753906 38.25 5.4375 38.25 C 5.421875 35.152344 5.414062 32.054688 5.410156 28.957031 C 5.40625 27.515625 5.402344 26.078125 5.394531 24.640625 C 5.390625 23.386719 5.386719 22.132812 5.382812 20.878906 C 5.382812 20.214844 5.382812 19.550781 5.378906 18.886719 C 5.375 18.144531 5.375 17.40625 5.375 16.667969 C 5.371094 16.445312 5.371094 16.222656 5.367188 15.996094 C 5.367188 15.792969 5.371094 15.59375 5.371094 15.386719 C 5.371094 15.210938 5.371094 15.035156 5.367188 14.855469 C 5.390625 14.714844 5.414062 14.578125 5.4375 14.4375 C 6.042969 14.035156 6.207031 14.015625 6.902344 14.019531 Z M 6.902344 14.019531 "/>
<path style=" stroke:none;fill-rule:nonzero;fill:rgb(99.607843%,25.882354%,12.156863%);fill-opacity:1;" d="M 11.4375 32.25 C 12.160156 32.625 12.488281 32.886719 12.9375 33.5625 C 13.046875 34.402344 13.035156 35.1875 12.726562 35.976562 C 12.179688 36.597656 11.675781 37.042969 10.839844 37.203125 C 10.074219 37.25 9.535156 37.191406 8.917969 36.714844 C 8.183594 35.90625 7.957031 35.246094 7.976562 34.136719 C 8.136719 33.414062 8.644531 32.921875 9.1875 32.4375 C 9.882812 32.089844 10.679688 32.164062 11.4375 32.25 Z M 11.4375 32.25 "/>
<path style=" stroke:none;fill-rule:nonzero;fill:rgb(99.607843%,25.882354%,12.156863%);fill-opacity:1;" d="M 38.0625 32.25 C 38.78125 32.625 39.382812 33.015625 39.75 33.75 C 39.851562 34.800781 39.785156 35.46875 39.1875 36.375 C 38.765625 36.863281 38.453125 37.082031 37.820312 37.210938 C 36.90625 37.269531 36.328125 37.1875 35.613281 36.597656 C 35.003906 36.015625 34.839844 35.46875 34.792969 34.640625 C 34.796875 33.746094 35.109375 33.316406 35.71875 32.683594 C 36.402344 32.085938 37.195312 32.144531 38.0625 32.25 Z M 38.0625 32.25 "/>
<path style=" stroke:none;fill-rule:nonzero;fill:rgb(12.54902%,40.392157%,48.627451%);fill-opacity:1;" d="M 42.5625 19.125 C 42.5625 25.4375 42.5625 31.746094 42.5625 38.25 C 42.253906 38.25 41.945312 38.25 41.625 38.25 C 41.582031 35.839844 41.546875 33.429688 41.511719 31.019531 C 41.496094 29.898438 41.480469 28.78125 41.460938 27.660156 C 41.441406 26.582031 41.425781 25.5 41.414062 24.421875 C 41.40625 24.007812 41.402344 23.597656 41.390625 23.183594 C 41.382812 22.609375 41.375 22.03125 41.371094 21.457031 C 41.363281 21.28125 41.359375 21.113281 41.355469 20.9375 C 41.351562 19.78125 41.351562 19.78125 41.792969 19.296875 C 42.1875 19.125 42.1875 19.125 42.5625 19.125 Z M 42.5625 19.125 "/>
<path style=" stroke:none;fill-rule:nonzero;fill:rgb(23.529412%,22.745098%,22.745098%);fill-opacity:1;" d="M 18 25.875 C 18.308594 25.875 18.617188 25.875 18.9375 25.875 C 18.9375 28.660156 18.9375 31.445312 18.9375 34.3125 C 19.742188 34.3125 20.546875 34.3125 21.375 34.3125 C 21.375 34.621094 21.375 34.929688 21.375 35.25 C 18.589844 35.25 15.804688 35.25 12.9375 35.25 C 12.9375 34.941406 12.9375 34.632812 12.9375 34.3125 C 14.609375 34.3125 16.277344 34.3125 18 34.3125 C 18 31.527344 18 28.742188 18 25.875 Z M 18 25.875 "/>
<path style=" stroke:none;fill-rule:nonzero;fill:rgb(16.470589%,43.137255%,50.980395%);fill-opacity:1;" d="M 16.875 38.4375 C 17.121094 38.4375 17.371094 38.4375 17.625 38.4375 C 17.6875 39.488281 17.75 40.542969 17.8125 41.625 C 21.894531 41.625 25.980469 41.625 30.1875 41.625 C 30.25 40.574219 30.3125 39.519531 30.375 38.4375 C 30.621094 38.4375 30.871094 38.4375 31.125 38.4375 C 31.144531 38.984375 31.160156 39.53125 31.171875 40.078125 C 31.175781 40.230469 31.183594 40.386719 31.191406 40.546875 C 31.195312 40.773438 31.195312 40.773438 31.199219 41 C 31.203125 41.207031 31.203125 41.207031 31.210938 41.417969 C 31.085938 41.996094 30.835938 42.195312 30.375 42.5625 C 29.796875 42.65625 29.796875 42.65625 29.109375 42.660156 C 28.921875 42.664062 28.921875 42.664062 28.730469 42.667969 C 28.316406 42.671875 27.90625 42.671875 27.492188 42.667969 C 27.203125 42.667969 26.914062 42.671875 26.628906 42.671875 C 26.027344 42.675781 25.425781 42.671875 24.820312 42.671875 C 24.046875 42.667969 23.277344 42.671875 22.503906 42.679688 C 21.910156 42.683594 21.320312 42.683594 20.722656 42.679688 C 20.4375 42.679688 20.15625 42.683594 19.871094 42.683594 C 19.472656 42.6875 19.074219 42.683594 18.675781 42.679688 C 18.449219 42.679688 18.226562 42.679688 17.992188 42.679688 C 17.4375 42.5625 17.4375 42.5625 17.082031 42.109375 C 16.878906 41.636719 16.808594 41.34375 16.820312 40.835938 C 16.824219 40.695312 16.824219 40.554688 16.828125 40.410156 C 16.832031 40.191406 16.832031 40.191406 16.839844 39.972656 C 16.84375 39.824219 16.84375 39.675781 16.847656 39.523438 C 16.855469 39.164062 16.863281 38.800781 16.875 38.4375 Z M 16.875 38.4375 "/>
<path style=" stroke:none;fill-rule:nonzero;fill:rgb(24.705882%,23.529412%,22.352941%);fill-opacity:1;" d="M 24.9375 27.375 C 29.019531 27.375 33.105469 27.375 37.3125 27.375 C 37.25 27.683594 37.1875 27.992188 37.125 28.3125 C 33.164062 28.3125 29.203125 28.3125 25.125 28.3125 C 25.0625 28.003906 25 27.695312 24.9375 27.375 Z M 24.9375 27.375 "/>
<path style=" stroke:none;fill-rule:nonzero;fill:rgb(24.313726%,23.529412%,21.960784%);fill-opacity:1;" d="M 24.9375 25.5 C 29.019531 25.5 33.105469 25.5 37.3125 25.5 C 37.25 25.808594 37.1875 26.117188 37.125 26.4375 C 33.164062 26.4375 29.203125 26.4375 25.125 26.4375 C 25.0625 26.128906 25 25.820312 24.9375 25.5 Z M 24.9375 25.5 "/>
<path style=" stroke:none;fill-rule:nonzero;fill:rgb(100%,96.470588%,96.078432%);fill-opacity:1;" d="M 37.3125 11.625 C 38.242188 11.625 39.167969 11.625 40.125 11.625 C 40.125 12.613281 40.125 13.605469 40.125 14.625 C 39.445312 14.625 38.765625 14.625 38.0625 14.625 C 38.0625 15.183594 38.0625 15.738281 38.0625 16.3125 C 37.816406 16.3125 37.566406 16.3125 37.3125 16.3125 C 37.3125 14.765625 37.3125 13.21875 37.3125 11.625 Z M 37.3125 11.625 "/>
<path style=" stroke:none;fill-rule:nonzero;fill:rgb(100%,92.941177%,91.764706%);fill-opacity:1;" d="M 34.5 11.625 C 34.816406 11.679688 35.125 11.742188 35.4375 11.8125 C 35.484375 11.960938 35.53125 12.109375 35.582031 12.265625 C 35.984375 13.511719 35.984375 13.511719 36.515625 14.707031 C 36.769531 15.226562 36.800781 15.554688 36.75 16.125 C 36.503906 16.1875 36.253906 16.25 36 16.3125 C 35.875 15.941406 35.753906 15.570312 35.625 15.1875 C 35.128906 15.1875 34.636719 15.1875 34.125 15.1875 C 34 15.558594 33.878906 15.929688 33.75 16.3125 C 33.503906 16.25 33.253906 16.1875 33 16.125 C 33.109375 15.09375 33.375 14.207031 33.75 13.242188 C 33.800781 13.105469 33.851562 12.972656 33.90625 12.832031 C 34.285156 11.839844 34.285156 11.839844 34.5 11.625 Z M 34.5 11.625 "/>
<path style=" stroke:none;fill-rule:nonzero;fill:rgb(23.921569%,23.529412%,23.529412%);fill-opacity:1;" d="M 26.4375 34.3125 C 29.222656 34.3125 32.007812 34.3125 34.875 34.3125 C 34.875 34.621094 34.875 34.929688 34.875 35.25 C 32.089844 35.25 29.304688 35.25 26.4375 35.25 C 26.4375 34.941406 26.4375 34.632812 26.4375 34.3125 Z M 26.4375 34.3125 "/>
<path style=" stroke:none;fill-rule:nonzero;fill:rgb(20.392157%,43.921569%,51.372552%);fill-opacity:1;" d="M 28.59375 14.039062 C 28.722656 14.039062 28.851562 14.039062 28.984375 14.039062 C 29.953125 14.039062 29.953125 14.039062 30.375 14.25 C 30.4375 14.621094 30.5 14.992188 30.5625 15.375 C 29.324219 15.375 28.085938 15.375 26.8125 15.375 C 26.8125 15.003906 26.8125 14.632812 26.8125 14.25 C 27.378906 13.964844 27.972656 14.035156 28.59375 14.039062 Z M 28.59375 14.039062 "/>
<path style=" stroke:none;fill-rule:nonzero;fill:rgb(100%,93.725491%,92.941177%);fill-opacity:1;" d="M 41.0625 11.625 C 41.308594 11.625 41.558594 11.625 41.8125 11.625 C 41.8125 13.171875 41.8125 14.71875 41.8125 16.3125 C 41.503906 16.25 41.195312 16.1875 40.875 16.125 C 40.871094 15.410156 40.867188 14.695312 40.863281 13.980469 C 40.863281 13.777344 40.859375 13.574219 40.859375 13.359375 C 40.859375 13.167969 40.859375 12.972656 40.855469 12.773438 C 40.855469 12.59375 40.855469 12.414062 40.855469 12.230469 C 40.875 11.8125 40.875 11.8125 41.0625 11.625 Z M 41.0625 11.625 "/>
<path style=" stroke:none;fill-rule:nonzero;fill:rgb(100%,25.882354%,12.156863%);fill-opacity:1;" d="M 38.25 12.5625 C 38.558594 12.5625 38.867188 12.5625 39.1875 12.5625 C 39.1875 12.933594 39.1875 13.304688 39.1875 13.6875 C 38.878906 13.6875 38.570312 13.6875 38.25 13.6875 C 38.25 13.316406 38.25 12.945312 38.25 12.5625 Z M 38.25 12.5625 "/>
</g>
</svg>
