<?xml version="1.0" encoding="UTF-8"?>
<svg xmlns="http://www.w3.org/2000/svg" xmlns:xlink="http://www.w3.org/1999/xlink" width="48" height="48" viewBox="0 0 48 48" version="1.1">
<g id="surface1">
<path style=" stroke:none;fill-rule:nonzero;fill:rgb(81.568629%,86.666667%,87.450981%);fill-opacity:1;" d="M 21.9375 13.3125 C 23.296875 13.3125 24.660156 13.3125 26.0625 13.3125 C 26.203125 14.019531 26.269531 14.542969 26.261719 15.246094 C 26.257812 15.414062 26.257812 15.578125 26.257812 15.75 C 26.253906 15.871094 26.25 15.996094 26.25 16.125 C 26.71875 16.21875 26.71875 16.21875 27.1875 16.3125 C 27.332031 16.359375 27.476562 16.410156 27.625 16.457031 C 28.152344 16.550781 28.152344 16.550781 28.628906 16.191406 C 28.789062 16.046875 28.953125 15.90625 29.121094 15.761719 C 29.371094 15.550781 29.371094 15.550781 29.625 15.335938 C 29.808594 15.167969 29.808594 15.167969 30 15 C 31.0625 15.882812 32.035156 16.828125 33 17.8125 C 32.679688 18.371094 32.367188 18.851562 31.921875 19.3125 C 31.445312 19.824219 31.445312 19.824219 31.523438 20.355469 C 31.578125 20.507812 31.632812 20.65625 31.6875 20.8125 C 31.75 21.125 31.8125 21.4375 31.875 21.75 C 32.0625 21.746094 32.0625 21.746094 32.25 21.742188 C 32.417969 21.742188 32.582031 21.742188 32.753906 21.738281 C 33 21.734375 33 21.734375 33.246094 21.730469 C 33.75 21.75 33.75 21.75 34.6875 21.9375 C 34.6875 23.296875 34.6875 24.660156 34.6875 26.0625 C 33.980469 26.203125 33.457031 26.269531 32.753906 26.261719 C 32.503906 26.257812 32.503906 26.257812 32.25 26.257812 C 32.128906 26.253906 32.003906 26.25 31.875 26.25 C 31.847656 26.386719 31.820312 26.519531 31.792969 26.660156 C 31.6875 27.1875 31.6875 27.1875 31.542969 27.632812 C 31.445312 28.148438 31.445312 28.148438 31.808594 28.585938 C 31.953125 28.730469 32.09375 28.875 32.238281 29.027344 C 32.449219 29.25 32.449219 29.25 32.664062 29.476562 C 32.773438 29.585938 32.886719 29.699219 33 29.8125 C 32.683594 30.609375 32.113281 31.148438 31.523438 31.746094 C 31.425781 31.851562 31.324219 31.957031 31.222656 32.066406 C 30.929688 32.363281 30.929688 32.363281 30.375 32.8125 C 29.671875 32.730469 29.414062 32.4375 28.945312 31.921875 C 28.574219 31.546875 28.574219 31.546875 28.125 31.3125 C 27.4375 31.363281 26.871094 31.582031 26.25 31.875 C 26.25 32 26.253906 32.125 26.257812 32.25 C 26.257812 32.417969 26.257812 32.582031 26.261719 32.753906 C 26.261719 32.917969 26.265625 33.082031 26.269531 33.246094 C 26.25 33.75 26.25 33.75 26.0625 34.6875 C 24.703125 34.6875 23.339844 34.6875 21.9375 34.6875 C 21.796875 33.980469 21.730469 33.457031 21.738281 32.753906 C 21.742188 32.585938 21.742188 32.421875 21.742188 32.25 C 21.746094 32.128906 21.75 32.003906 21.75 31.875 C 21.546875 31.832031 21.546875 31.832031 21.339844 31.792969 C 20.8125 31.6875 20.8125 31.6875 20.375 31.542969 C 19.847656 31.449219 19.847656 31.449219 19.371094 31.808594 C 19.128906 32.019531 19.128906 32.019531 18.878906 32.238281 C 18.628906 32.449219 18.628906 32.449219 18.375 32.664062 C 18.253906 32.773438 18.128906 32.886719 18 33 C 16.9375 32.117188 15.964844 31.171875 15 30.1875 C 15.320312 29.628906 15.632812 29.148438 16.078125 28.6875 C 16.554688 28.175781 16.554688 28.175781 16.476562 27.644531 C 16.421875 27.492188 16.367188 27.34375 16.3125 27.1875 C 16.21875 26.71875 16.21875 26.71875 16.125 26.25 C 16 26.25 15.875 26.253906 15.75 26.257812 C 15.5 26.257812 15.5 26.257812 15.246094 26.261719 C 15.082031 26.261719 14.917969 26.265625 14.753906 26.269531 C 14.25 26.25 14.25 26.25 13.3125 26.0625 C 13.3125 24.703125 13.3125 23.339844 13.3125 21.9375 C 14.242188 21.875 15.167969 21.8125 16.125 21.75 C 16.441406 20.824219 16.441406 20.824219 16.5 19.875 C 16.089844 19.210938 15.582031 18.703125 15 18.1875 C 15.316406 17.390625 15.886719 16.851562 16.476562 16.253906 C 16.574219 16.148438 16.675781 16.042969 16.777344 15.933594 C 17.070312 15.636719 17.070312 15.636719 17.625 15.1875 C 18.328125 15.269531 18.585938 15.5625 19.054688 16.078125 C 19.425781 16.453125 19.425781 16.453125 19.875 16.6875 C 20.5625 16.636719 21.128906 16.417969 21.75 16.125 C 21.75 16 21.746094 15.875 21.742188 15.75 C 21.742188 15.582031 21.742188 15.417969 21.738281 15.246094 C 21.738281 15.082031 21.734375 14.917969 21.730469 14.753906 C 21.75 14.25 21.75 14.25 21.9375 13.3125 Z M 21.9375 13.3125 "/>
<path style=" stroke:none;fill-rule:nonzero;fill:rgb(56.470591%,55.686277%,76.47059%);fill-opacity:1;" d="M 3.890625 -0.046875 C 4.117188 -0.0507812 4.34375 -0.0546875 4.578125 -0.0625 C 5.777344 0.046875 6.546875 0.59375 7.3125 1.5 C 8.109375 2.640625 8.183594 3.699219 8.0625 5.0625 C 7.96875 5.316406 7.96875 5.316406 7.878906 5.578125 C 7.871094 6.792969 8.917969 7.570312 9.71875 8.394531 C 11.148438 9.722656 12.421875 9.890625 14.320312 9.855469 C 14.796875 9.832031 15.273438 9.792969 15.75 9.75 C 15.75 10.492188 15.75 11.234375 15.75 12 C 11.136719 12.640625 11.136719 12.640625 9.667969 11.589844 C 8.492188 10.628906 7.523438 9.4375 6.609375 8.234375 C 6.203125 7.804688 6.203125 7.804688 5.605469 7.910156 C 5.425781 7.960938 5.246094 8.011719 5.0625 8.0625 C 3.550781 8.21875 2.375 8.027344 1.125 7.125 C 0.0546875 6 -0.0703125 4.921875 -0.0507812 3.429688 C 0.0351562 2.375 0.332031 1.6875 1.121094 0.980469 C 2.085938 0.234375 2.652344 -0.03125 3.890625 -0.046875 Z M 2.4375 2.8125 C 2.042969 3.3125 2.0625 3.5625 2.074219 4.207031 C 2.289062 5.023438 2.496094 5.328125 3.1875 5.8125 C 3.714844 5.933594 4.160156 5.929688 4.6875 5.8125 C 5.214844 5.476562 5.53125 5.246094 5.8125 4.6875 C 5.929688 3.585938 5.929688 3.585938 5.425781 2.636719 C 4.285156 1.835938 3.480469 1.914062 2.4375 2.8125 Z M 2.4375 2.8125 "/>
<path style=" stroke:none;fill-rule:nonzero;fill:rgb(95.686275%,45.490196%,69.411767%);fill-opacity:1;" d="M 32.25 36 C 36.863281 35.359375 36.863281 35.359375 38.332031 36.410156 C 39.507812 37.371094 40.476562 38.5625 41.390625 39.765625 C 41.796875 40.195312 41.796875 40.195312 42.394531 40.089844 C 42.574219 40.039062 42.753906 39.988281 42.9375 39.9375 C 44.449219 39.78125 45.625 39.972656 46.875 40.875 C 47.945312 42 48.070312 43.078125 48.050781 44.570312 C 47.964844 45.621094 47.667969 46.308594 46.886719 47.019531 C 45.554688 48.058594 44.414062 48.113281 42.75 48 C 41.609375 47.613281 40.855469 46.851562 40.253906 45.820312 C 39.761719 44.769531 39.734375 43.507812 40.121094 42.421875 C 40.128906 41.207031 39.082031 40.429688 38.28125 39.605469 C 36.851562 38.277344 35.578125 38.109375 33.679688 38.144531 C 33.203125 38.167969 32.726562 38.207031 32.25 38.25 C 32.25 37.507812 32.25 36.765625 32.25 36 Z M 42.375 42.9375 C 42.074219 43.542969 42.078125 44.15625 42.1875 44.8125 C 42.660156 45.488281 42.984375 45.703125 43.769531 45.949219 C 44.601562 45.933594 44.9375 45.726562 45.5625 45.1875 C 45.957031 44.6875 45.9375 44.4375 45.925781 43.792969 C 45.710938 42.976562 45.503906 42.671875 44.8125 42.1875 C 43.78125 41.949219 43.117188 42.171875 42.375 42.9375 Z M 42.375 42.9375 "/>
<path style=" stroke:none;fill-rule:nonzero;fill:rgb(81.960785%,87.058824%,87.843138%);fill-opacity:1;" d="M 46.019531 0.28125 C 46.925781 0.816406 47.535156 1.695312 48 2.625 C 48.027344 3.046875 48.039062 3.46875 48.046875 3.890625 C 48.050781 4.117188 48.054688 4.34375 48.0625 4.578125 C 47.949219 5.777344 47.40625 6.546875 46.5 7.3125 C 45.359375 8.109375 44.300781 8.183594 42.9375 8.0625 C 42.757812 8.011719 42.578125 7.964844 42.394531 7.910156 C 41.796875 7.804688 41.796875 7.804688 41.390625 8.234375 C 41.191406 8.492188 41.191406 8.492188 40.992188 8.757812 C 38.292969 12.015625 38.292969 12.015625 36.585938 12.246094 C 35.132812 12.355469 33.691406 12.199219 32.25 12 C 32.25 11.257812 32.25 10.515625 32.25 9.75 C 32.535156 9.777344 32.820312 9.800781 33.117188 9.828125 C 34.859375 9.910156 36.382812 9.960938 37.808594 8.839844 C 38.664062 8.042969 39.542969 7.210938 40.125 6.1875 C 40.15625 5.582031 40.15625 5.582031 39.9375 5.0625 C 39.78125 3.550781 39.972656 2.375 40.875 1.125 C 42.222656 -0.15625 44.304688 -0.472656 46.019531 0.28125 Z M 42.5625 2.625 C 42.101562 3.316406 42.054688 3.886719 42.1875 4.6875 C 42.523438 5.214844 42.753906 5.53125 43.3125 5.8125 C 44.414062 5.929688 44.414062 5.929688 45.363281 5.425781 C 45.832031 4.757812 45.953125 4.375 45.9375 3.5625 C 45.628906 2.957031 45.371094 2.566406 44.8125 2.179688 C 43.910156 1.898438 43.339844 2.167969 42.5625 2.625 Z M 42.5625 2.625 "/>
<path style=" stroke:none;fill-rule:nonzero;fill:rgb(22.745098%,70.19608%,75.294119%);fill-opacity:1;" d="M 15.75 36 C 15.75 36.742188 15.75 37.484375 15.75 38.25 C 15.464844 38.222656 15.179688 38.199219 14.882812 38.171875 C 13.140625 38.089844 11.617188 38.039062 10.191406 39.160156 C 9.335938 39.957031 8.457031 40.789062 7.875 41.8125 C 7.84375 42.417969 7.84375 42.417969 8.0625 42.9375 C 8.183594 44.300781 8.109375 45.359375 7.3125 46.5 C 6.5625 47.390625 5.867188 47.933594 4.6875 48.058594 C 3.421875 48.101562 2.320312 48.078125 1.3125 47.25 C 0.160156 45.996094 -0.0546875 45.03125 -0.0390625 43.34375 C 0.0273438 42.371094 0.363281 41.863281 0.972656 41.132812 C 2.125 40.160156 3.042969 39.851562 4.554688 39.890625 C 5.0625 39.9375 5.0625 39.9375 5.605469 40.089844 C 6.203125 40.195312 6.203125 40.195312 6.609375 39.765625 C 6.742188 39.59375 6.871094 39.421875 7.007812 39.242188 C 9.71875 35.964844 11.449219 35.402344 15.75 36 Z M 2.636719 42.574219 C 2.167969 43.242188 2.046875 43.625 2.0625 44.4375 C 2.363281 45.027344 2.632812 45.421875 3.152344 45.832031 C 3.792969 45.996094 4.238281 45.917969 4.875 45.75 C 5.410156 45.375 5.746094 45.105469 5.898438 44.449219 C 5.9375 43.730469 5.855469 43.382812 5.460938 42.761719 C 4.914062 42.230469 4.753906 42.195312 3.972656 42.117188 C 3.332031 42.128906 3.191406 42.183594 2.636719 42.574219 Z M 2.636719 42.574219 "/>
<path style=" stroke:none;fill-rule:nonzero;fill:rgb(28.235295%,46.27451%,53.333336%);fill-opacity:1;" d="M 25.96875 20.003906 C 27.007812 20.628906 27.925781 21.515625 28.3125 22.6875 C 28.496094 24.140625 28.4375 25.417969 27.5625 26.625 C 26.742188 27.628906 25.832031 28.207031 24.554688 28.398438 C 23.046875 28.476562 21.953125 28.199219 20.8125 27.1875 C 19.828125 25.984375 19.59375 24.867188 19.613281 23.332031 C 19.753906 22.097656 20.304688 21.269531 21.21875 20.445312 C 22.632812 19.457031 24.382812 19.277344 25.96875 20.003906 Z M 25.96875 20.003906 "/>
<path style=" stroke:none;fill-rule:nonzero;fill:rgb(18.039216%,66.666669%,80.392158%);fill-opacity:1;" d="M 46.105469 20.375 C 46.960938 20.917969 47.628906 21.742188 48 22.6875 C 48.164062 24.070312 48.210938 25.363281 47.339844 26.511719 C 46.390625 27.542969 45.535156 28.054688 44.109375 28.195312 C 42.996094 28.160156 41.925781 27.792969 41.074219 27.066406 C 40.457031 26.386719 40.3125 26.074219 40.125 25.125 C 39.132812 25.125 38.144531 25.125 37.125 25.125 C 37.125 24.382812 37.125 23.640625 37.125 22.875 C 38.113281 22.875 39.105469 22.875 40.125 22.875 C 40.1875 22.566406 40.25 22.257812 40.3125 21.9375 C 40.898438 20.898438 41.734375 20.382812 42.839844 20 C 44.035156 19.6875 44.996094 19.835938 46.105469 20.375 Z M 46.105469 20.375 "/>
<path style=" stroke:none;fill-rule:nonzero;fill:rgb(98.039216%,81.176472%,29.411766%);fill-opacity:1;" d="M 6.5625 20.625 C 7.382812 21.324219 7.660156 21.800781 7.875 22.875 C 8.863281 22.875 9.855469 22.875 10.875 22.875 C 10.875 23.617188 10.875 24.359375 10.875 25.125 C 9.886719 25.125 8.894531 25.125 7.875 25.125 C 7.78125 25.589844 7.78125 25.589844 7.6875 26.0625 C 7.101562 27.101562 6.265625 27.617188 5.15625 28 C 3.96875 28.3125 3.003906 28.164062 1.894531 27.625 C 1.035156 27.082031 0.375 26.257812 0 25.3125 C -0.160156 23.929688 -0.210938 22.636719 0.65625 21.488281 C 2.355469 19.652344 4.398438 19.390625 6.5625 20.625 Z M 6.5625 20.625 "/>
<path style=" stroke:none;fill-rule:nonzero;fill:rgb(27.450982%,45.490196%,52.941179%);fill-opacity:1;" d="M 40.3125 6 C 40.4375 6 40.558594 6 40.6875 6 C 41.003906 6.371094 41.316406 6.746094 41.625 7.125 C 41.75 7.1875 41.871094 7.25 42 7.3125 C 41.164062 9.15625 39.4375 10.972656 37.6875 12 C 35.894531 12.457031 34.070312 12.238281 32.25 12 C 32.25 11.257812 32.25 10.515625 32.25 9.75 C 32.53125 9.777344 32.816406 9.804688 33.109375 9.835938 C 34.90625 9.929688 36.40625 9.976562 37.828125 8.757812 C 38.613281 7.992188 39.328125 7.175781 40.015625 6.324219 C 40.113281 6.21875 40.210938 6.109375 40.3125 6 Z M 40.3125 6 "/>
<path style=" stroke:none;fill-rule:nonzero;fill:rgb(27.450982%,45.490196%,52.941179%);fill-opacity:1;" d="M 32.25 36 C 36.792969 35.335938 36.792969 35.335938 38.367188 36.417969 C 39.746094 37.496094 40.992188 38.886719 42 40.3125 C 42 40.4375 42 40.558594 42 40.6875 C 41.671875 41.011719 41.671875 41.011719 41.25 41.367188 C 41.042969 41.542969 41.042969 41.542969 40.828125 41.726562 C 40.71875 41.816406 40.609375 41.90625 40.5 42 C 39.835938 41.457031 39.234375 40.949219 38.714844 40.265625 C 37.804688 39.125 37.089844 38.410156 35.589844 38.238281 C 34.472656 38.171875 33.367188 38.195312 32.25 38.25 C 32.25 37.507812 32.25 36.765625 32.25 36 Z M 32.25 36 "/>
<path style=" stroke:none;fill-rule:nonzero;fill:rgb(27.450982%,45.490196%,52.941179%);fill-opacity:1;" d="M 7.3125 6 C 7.941406 6.265625 8.257812 6.566406 8.675781 7.101562 C 10.230469 8.992188 10.230469 8.992188 12.460938 9.8125 C 13.5625 9.882812 14.648438 9.839844 15.75 9.75 C 15.75 10.492188 15.75 11.234375 15.75 12 C 11.199219 12.664062 11.199219 12.664062 9.632812 11.578125 C 8.246094 10.472656 7.085938 9.078125 6 7.6875 C 6.078125 7.597656 6.15625 7.507812 6.238281 7.414062 C 6.34375 7.296875 6.445312 7.175781 6.550781 7.054688 C 6.652344 6.9375 6.753906 6.820312 6.859375 6.699219 C 7.136719 6.382812 7.136719 6.382812 7.3125 6 Z M 7.3125 6 "/>
<path style=" stroke:none;fill-rule:nonzero;fill:rgb(27.450982%,45.490196%,52.941179%);fill-opacity:1;" d="M 15.75 36 C 15.75 36.742188 15.75 37.484375 15.75 38.25 C 15.46875 38.222656 15.183594 38.195312 14.890625 38.164062 C 13.089844 38.070312 11.59375 38.03125 10.160156 39.242188 C 9.269531 40.105469 8.453125 41.027344 7.6875 42 C 7.476562 41.824219 7.265625 41.648438 7.054688 41.472656 C 6.9375 41.375 6.820312 41.277344 6.699219 41.175781 C 6.375 40.875 6.375 40.875 6 40.3125 C 8.945312 36.550781 10.871094 35.289062 15.75 36 Z M 15.75 36 "/>
<path style=" stroke:none;fill-rule:nonzero;fill:rgb(98.039216%,98.431373%,98.823529%);fill-opacity:1;" d="M 24.5625 21.5625 C 26.113281 22.445312 26.113281 22.445312 26.371094 23.257812 C 26.472656 24.039062 26.488281 24.457031 26.144531 25.183594 C 25.0625 26.375 25.0625 26.375 24.152344 26.488281 C 23.488281 26.464844 23.042969 26.390625 22.523438 25.957031 C 21.902344 25.246094 21.511719 24.730469 21.574219 23.765625 C 21.675781 22.921875 21.957031 22.515625 22.582031 21.953125 C 23.214844 21.515625 23.816406 21.488281 24.5625 21.5625 Z M 24.5625 21.5625 "/>
<path style=" stroke:none;fill-rule:nonzero;fill:rgb(99.607843%,99.215686%,97.647059%);fill-opacity:1;" d="M 4.875 22.125 C 5.414062 22.59375 5.414062 22.59375 5.8125 23.0625 C 5.875 23.125 5.9375 23.1875 6 23.25 C 6.109375 24.570312 6.109375 24.570312 5.671875 25.289062 C 5.007812 25.917969 5.007812 25.917969 4.5 26.0625 C 3.507812 26.027344 2.960938 25.816406 2.25 25.125 C 1.945312 24.519531 1.953125 23.90625 2.0625 23.25 C 2.742188 22.027344 3.554688 21.804688 4.875 22.125 Z M 4.875 22.125 "/>
<path style=" stroke:none;fill-rule:nonzero;fill:rgb(97.254902%,98.823529%,99.215686%);fill-opacity:1;" d="M 44.8125 22.125 C 45.320312 22.464844 45.664062 22.699219 45.9375 23.25 C 46.046875 24.570312 46.046875 24.570312 45.609375 25.289062 C 44.964844 25.898438 44.695312 26.066406 43.792969 26.050781 C 43.007812 25.84375 42.707031 25.546875 42.1875 24.9375 C 42.125 24.875 42.0625 24.8125 42 24.75 C 41.890625 23.429688 41.890625 23.429688 42.328125 22.710938 C 43.171875 21.914062 43.660156 21.84375 44.8125 22.125 Z M 44.8125 22.125 "/>
<path style=" stroke:none;fill-rule:nonzero;fill:rgb(27.058825%,45.490196%,52.941179%);fill-opacity:1;" d="M 37.125 22.875 C 38.113281 22.875 39.105469 22.875 40.125 22.875 C 40.125 23.617188 40.125 24.359375 40.125 25.125 C 39.136719 25.125 38.144531 25.125 37.125 25.125 C 37.125 24.382812 37.125 23.640625 37.125 22.875 Z M 37.125 22.875 "/>
<path style=" stroke:none;fill-rule:nonzero;fill:rgb(27.450982%,45.490196%,52.549022%);fill-opacity:1;" d="M 7.875 22.875 C 8.863281 22.875 9.855469 22.875 10.875 22.875 C 10.875 23.617188 10.875 24.359375 10.875 25.125 C 9.886719 25.125 8.894531 25.125 7.875 25.125 C 7.875 24.382812 7.875 23.640625 7.875 22.875 Z M 7.875 22.875 "/>
</g>
</svg>
