<?xml version="1.0" encoding="UTF-8"?>
<svg xmlns="http://www.w3.org/2000/svg" xmlns:xlink="http://www.w3.org/1999/xlink" width="48" height="48" viewBox="0 0 48 48" version="1.1">
<g id="surface1">
<path style=" stroke:none;fill-rule:nonzero;fill:rgb(77.254903%,92.54902%,94.117647%);fill-opacity:1;" d="M 16.5 0 C 16.921875 -0.0703125 16.921875 -0.0703125 17.457031 -0.0742188 C 17.660156 -0.078125 17.859375 -0.078125 18.070312 -0.0820312 C 18.402344 -0.078125 18.402344 -0.078125 18.746094 -0.078125 C 19.097656 -0.0820312 19.097656 -0.0820312 19.453125 -0.0859375 C 20.097656 -0.0898438 20.742188 -0.0898438 21.382812 -0.0898438 C 21.921875 -0.0898438 22.457031 -0.0898438 22.996094 -0.09375 C 24.265625 -0.09375 25.53125 -0.09375 26.800781 -0.09375 C 28.109375 -0.09375 29.414062 -0.0976562 30.722656 -0.101562 C 31.84375 -0.109375 32.964844 -0.113281 34.089844 -0.109375 C 34.761719 -0.109375 35.429688 -0.113281 36.101562 -0.117188 C 36.847656 -0.121094 37.597656 -0.117188 38.34375 -0.117188 C 38.566406 -0.117188 38.789062 -0.121094 39.015625 -0.125 C 40.691406 -0.105469 40.691406 -0.105469 41.386719 0.453125 C 41.90625 1.042969 42.023438 1.300781 42.027344 2.0625 C 42.027344 2.222656 42.027344 2.382812 42.027344 2.542969 C 42.027344 2.71875 42.027344 2.894531 42.027344 3.074219 C 42.03125 3.351562 42.03125 3.351562 42.03125 3.632812 C 42.035156 4.257812 42.035156 4.878906 42.035156 5.503906 C 42.039062 5.949219 42.039062 6.394531 42.042969 6.839844 C 42.046875 8.175781 42.046875 9.515625 42.050781 10.855469 C 42.050781 11.234375 42.050781 11.613281 42.050781 11.992188 C 42.058594 14.339844 42.0625 16.6875 42.0625 19.03125 C 42.0625 19.578125 42.066406 20.121094 42.066406 20.664062 C 42.066406 20.800781 42.066406 20.9375 42.066406 21.074219 C 42.070312 23.265625 42.074219 25.453125 42.082031 27.644531 C 42.089844 29.894531 42.09375 32.140625 42.09375 34.390625 C 42.09375 35.652344 42.097656 36.914062 42.105469 38.175781 C 42.109375 39.363281 42.113281 40.550781 42.109375 41.738281 C 42.109375 42.175781 42.109375 42.609375 42.113281 43.046875 C 42.117188 43.640625 42.117188 44.238281 42.113281 44.832031 C 42.117188 45.003906 42.121094 45.179688 42.121094 45.355469 C 42.113281 46.171875 42.070312 46.707031 41.546875 47.355469 C 40.796875 48.0625 40.402344 48.023438 39.382812 48.027344 C 39.246094 48.03125 39.109375 48.03125 38.972656 48.03125 C 38.515625 48.035156 38.058594 48.035156 37.597656 48.035156 C 37.269531 48.039062 36.945312 48.039062 36.617188 48.042969 C 35.542969 48.046875 34.464844 48.046875 33.390625 48.050781 C 33.019531 48.050781 32.648438 48.050781 32.28125 48.054688 C 30.738281 48.058594 29.199219 48.0625 27.660156 48.0625 C 25.453125 48.066406 23.246094 48.074219 21.039062 48.085938 C 19.484375 48.09375 17.933594 48.09375 16.382812 48.09375 C 15.457031 48.09375 14.527344 48.097656 13.601562 48.105469 C 12.730469 48.109375 11.855469 48.113281 10.984375 48.109375 C 10.664062 48.109375 10.34375 48.109375 10.023438 48.113281 C 9.585938 48.117188 9.148438 48.117188 8.714844 48.113281 C 8.34375 48.113281 8.34375 48.113281 7.96875 48.117188 C 7.105469 47.964844 6.804688 47.675781 6.1875 47.0625 C 5.910156 46.503906 5.96875 45.9375 5.96875 45.328125 C 5.96875 45.1875 5.964844 45.042969 5.964844 44.898438 C 5.960938 44.421875 5.960938 43.941406 5.957031 43.464844 C 5.953125 43.125 5.953125 42.78125 5.953125 42.441406 C 5.945312 41.316406 5.941406 40.191406 5.9375 39.066406 C 5.933594 38.875 5.933594 38.683594 5.933594 38.488281 C 5.925781 36.6875 5.921875 34.882812 5.917969 33.082031 C 5.910156 30.777344 5.902344 28.472656 5.886719 26.164062 C 5.875 24.546875 5.871094 22.921875 5.867188 21.304688 C 5.867188 20.335938 5.863281 19.367188 5.855469 18.398438 C 5.847656 17.488281 5.847656 16.578125 5.847656 15.664062 C 5.847656 15.328125 5.847656 14.996094 5.839844 14.664062 C 5.808594 12.136719 5.808594 12.136719 6.28125 11.339844 C 6.609375 11.011719 6.933594 10.761719 7.3125 10.5 C 7.515625 10.28125 7.71875 10.058594 7.910156 9.832031 C 8.019531 9.707031 8.125 9.582031 8.238281 9.453125 C 8.535156 9.105469 8.832031 8.757812 9.128906 8.40625 C 10.175781 7.171875 11.242188 5.960938 12.34375 4.777344 C 12.945312 4.128906 13.535156 3.476562 14.113281 2.808594 C 14.65625 2.1875 15.210938 1.582031 15.765625 0.976562 C 16.148438 0.554688 16.148438 0.554688 16.5 0 Z M 16.5 0 "/>
<path style=" stroke:none;fill-rule:nonzero;fill:rgb(17.647059%,26.274511%,33.725491%);fill-opacity:1;" d="M 16.5 0 C 16.921875 -0.0703125 16.921875 -0.0703125 17.457031 -0.0742188 C 17.660156 -0.078125 17.859375 -0.078125 18.070312 -0.0820312 C 18.402344 -0.078125 18.402344 -0.078125 18.746094 -0.078125 C 19.097656 -0.0820312 19.097656 -0.0820312 19.453125 -0.0859375 C 20.097656 -0.0898438 20.742188 -0.0898438 21.382812 -0.0898438 C 21.921875 -0.0898438 22.457031 -0.0898438 22.996094 -0.09375 C 24.265625 -0.09375 25.53125 -0.09375 26.800781 -0.09375 C 28.109375 -0.09375 29.414062 -0.0976562 30.722656 -0.101562 C 31.84375 -0.109375 32.964844 -0.113281 34.089844 -0.109375 C 34.761719 -0.109375 35.429688 -0.113281 36.101562 -0.117188 C 36.847656 -0.121094 37.597656 -0.117188 38.34375 -0.117188 C 38.566406 -0.117188 38.789062 -0.121094 39.015625 -0.125 C 40.691406 -0.105469 40.691406 -0.105469 41.386719 0.453125 C 41.90625 1.042969 42.023438 1.300781 42.027344 2.0625 C 42.027344 2.222656 42.027344 2.382812 42.027344 2.542969 C 42.027344 2.71875 42.027344 2.894531 42.027344 3.074219 C 42.03125 3.351562 42.03125 3.351562 42.03125 3.632812 C 42.035156 4.257812 42.035156 4.878906 42.035156 5.503906 C 42.039062 5.949219 42.039062 6.394531 42.042969 6.839844 C 42.046875 8.175781 42.046875 9.515625 42.050781 10.855469 C 42.050781 11.234375 42.050781 11.613281 42.050781 11.992188 C 42.058594 14.339844 42.0625 16.6875 42.0625 19.03125 C 42.0625 19.578125 42.066406 20.121094 42.066406 20.664062 C 42.066406 20.800781 42.066406 20.9375 42.066406 21.074219 C 42.070312 23.265625 42.074219 25.453125 42.082031 27.644531 C 42.089844 29.894531 42.09375 32.140625 42.09375 34.390625 C 42.09375 35.652344 42.097656 36.914062 42.105469 38.175781 C 42.109375 39.363281 42.113281 40.550781 42.109375 41.738281 C 42.109375 42.175781 42.109375 42.609375 42.113281 43.046875 C 42.117188 43.640625 42.117188 44.238281 42.113281 44.832031 C 42.117188 45.003906 42.121094 45.179688 42.121094 45.355469 C 42.113281 46.171875 42.070312 46.707031 41.546875 47.355469 C 40.796875 48.0625 40.402344 48.023438 39.382812 48.027344 C 39.246094 48.03125 39.109375 48.03125 38.972656 48.03125 C 38.515625 48.035156 38.058594 48.035156 37.597656 48.035156 C 37.269531 48.039062 36.945312 48.039062 36.617188 48.042969 C 35.542969 48.046875 34.464844 48.046875 33.390625 48.050781 C 33.019531 48.050781 32.648438 48.050781 32.28125 48.054688 C 30.738281 48.058594 29.199219 48.0625 27.660156 48.0625 C 25.453125 48.066406 23.246094 48.074219 21.039062 48.085938 C 19.484375 48.09375 17.933594 48.09375 16.382812 48.09375 C 15.457031 48.09375 14.527344 48.097656 13.601562 48.105469 C 12.730469 48.109375 11.855469 48.113281 10.984375 48.109375 C 10.664062 48.109375 10.34375 48.109375 10.023438 48.113281 C 9.585938 48.117188 9.148438 48.117188 8.714844 48.113281 C 8.34375 48.113281 8.34375 48.113281 7.96875 48.117188 C 7.105469 47.964844 6.804688 47.675781 6.1875 47.0625 C 5.910156 46.503906 5.96875 45.9375 5.96875 45.328125 C 5.96875 45.1875 5.964844 45.042969 5.964844 44.898438 C 5.960938 44.421875 5.960938 43.941406 5.957031 43.464844 C 5.953125 43.125 5.953125 42.78125 5.953125 42.441406 C 5.945312 41.316406 5.941406 40.191406 5.9375 39.066406 C 5.933594 38.875 5.933594 38.683594 5.933594 38.488281 C 5.925781 36.6875 5.921875 34.882812 5.917969 33.082031 C 5.910156 30.777344 5.902344 28.472656 5.886719 26.164062 C 5.875 24.546875 5.871094 22.921875 5.867188 21.304688 C 5.867188 20.335938 5.863281 19.367188 5.855469 18.398438 C 5.847656 17.488281 5.847656 16.578125 5.847656 15.664062 C 5.847656 15.328125 5.847656 14.996094 5.839844 14.664062 C 5.808594 12.136719 5.808594 12.136719 6.28125 11.339844 C 6.609375 11.011719 6.933594 10.761719 7.3125 10.5 C 7.515625 10.28125 7.71875 10.058594 7.910156 9.832031 C 8.019531 9.707031 8.125 9.582031 8.238281 9.453125 C 8.535156 9.105469 8.832031 8.757812 9.128906 8.40625 C 10.175781 7.171875 11.242188 5.960938 12.34375 4.777344 C 12.945312 4.128906 13.535156 3.476562 14.113281 2.808594 C 14.65625 2.1875 15.210938 1.582031 15.765625 0.976562 C 16.148438 0.554688 16.148438 0.554688 16.5 0 Z M 18 1.5 C 18 1.625 18 1.75 17.996094 1.875 C 17.984375 3.171875 17.96875 4.46875 17.953125 5.765625 C 17.945312 6.246094 17.941406 6.730469 17.933594 7.214844 C 17.929688 7.910156 17.917969 8.605469 17.90625 9.300781 C 17.90625 9.625 17.90625 9.625 17.90625 9.953125 C 17.867188 11.941406 17.867188 11.941406 17.25 12.75 C 16.289062 13.453125 15.273438 13.402344 14.128906 13.40625 C 13.84375 13.414062 13.84375 13.414062 13.550781 13.417969 C 12.949219 13.429688 12.34375 13.433594 11.742188 13.441406 C 11.332031 13.449219 10.921875 13.453125 10.511719 13.460938 C 9.507812 13.476562 8.503906 13.488281 7.5 13.5 C 7.492188 17.746094 7.484375 21.992188 7.480469 26.242188 C 7.480469 28.214844 7.476562 30.1875 7.472656 32.15625 C 7.46875 33.875 7.464844 35.59375 7.464844 37.3125 C 7.464844 38.222656 7.460938 39.132812 7.460938 40.042969 C 7.457031 40.898438 7.457031 41.753906 7.457031 42.609375 C 7.457031 42.925781 7.457031 43.242188 7.453125 43.554688 C 7.453125 43.984375 7.453125 44.414062 7.453125 44.839844 C 7.453125 45.082031 7.453125 45.324219 7.453125 45.570312 C 7.441406 46.148438 7.441406 46.148438 7.875 46.5 C 8.449219 46.558594 8.449219 46.558594 9.140625 46.546875 C 9.339844 46.546875 9.339844 46.546875 9.542969 46.546875 C 9.984375 46.550781 10.429688 46.550781 10.871094 46.546875 C 11.191406 46.546875 11.507812 46.550781 11.824219 46.550781 C 12.6875 46.550781 13.550781 46.550781 14.414062 46.550781 C 15.316406 46.546875 16.21875 46.550781 17.117188 46.550781 C 18.632812 46.550781 20.148438 46.550781 21.660156 46.546875 C 23.414062 46.546875 25.167969 46.546875 26.917969 46.546875 C 28.421875 46.550781 29.925781 46.550781 31.429688 46.550781 C 32.328125 46.550781 33.226562 46.550781 34.125 46.550781 C 34.96875 46.550781 35.8125 46.550781 36.65625 46.546875 C 36.96875 46.546875 37.277344 46.546875 37.589844 46.550781 C 38.011719 46.550781 38.4375 46.546875 38.859375 46.546875 C 39.09375 46.546875 39.332031 46.546875 39.574219 46.546875 C 40.148438 46.558594 40.148438 46.558594 40.5 46.125 C 40.539062 45.546875 40.550781 44.984375 40.546875 44.402344 C 40.546875 44.222656 40.546875 44.042969 40.546875 43.855469 C 40.550781 43.246094 40.550781 42.636719 40.546875 42.027344 C 40.546875 41.589844 40.550781 41.15625 40.550781 40.71875 C 40.550781 39.535156 40.550781 38.347656 40.550781 37.164062 C 40.546875 36.050781 40.550781 34.9375 40.550781 33.824219 C 40.550781 31.488281 40.550781 29.152344 40.546875 26.8125 C 40.546875 24.804688 40.546875 22.796875 40.546875 20.789062 C 40.550781 18.460938 40.550781 16.128906 40.550781 13.800781 C 40.550781 12.566406 40.550781 11.332031 40.550781 10.097656 C 40.550781 8.9375 40.550781 7.78125 40.546875 6.617188 C 40.546875 6.191406 40.546875 5.765625 40.550781 5.339844 C 40.550781 4.757812 40.546875 4.175781 40.546875 3.597656 C 40.546875 3.425781 40.546875 3.253906 40.550781 3.082031 C 40.589844 2.199219 40.589844 2.199219 40.125 1.5 C 39.71875 1.445312 39.71875 1.445312 39.238281 1.453125 C 38.960938 1.453125 38.960938 1.453125 38.671875 1.453125 C 38.367188 1.453125 38.367188 1.453125 38.050781 1.457031 C 37.726562 1.457031 37.726562 1.457031 37.398438 1.457031 C 36.679688 1.457031 35.964844 1.460938 35.25 1.460938 C 34.753906 1.464844 34.257812 1.464844 33.761719 1.464844 C 32.589844 1.464844 31.417969 1.46875 30.242188 1.472656 C 28.910156 1.476562 27.574219 1.480469 26.238281 1.480469 C 23.492188 1.484375 20.746094 1.492188 18 1.5 Z M 18 1.5 "/>
<path style=" stroke:none;fill-rule:nonzero;fill:rgb(17.647059%,26.274511%,33.725491%);fill-opacity:1;" d="M 14.429688 36.257812 C 14.65625 36.257812 14.882812 36.257812 15.117188 36.257812 C 15.742188 36.253906 16.363281 36.257812 16.984375 36.261719 C 17.636719 36.265625 18.289062 36.261719 18.9375 36.261719 C 20.03125 36.261719 21.125 36.265625 22.222656 36.273438 C 23.484375 36.28125 24.746094 36.28125 26.011719 36.28125 C 27.226562 36.28125 28.445312 36.28125 29.660156 36.285156 C 30.179688 36.285156 30.695312 36.289062 31.214844 36.289062 C 31.9375 36.285156 32.660156 36.292969 33.382812 36.296875 C 33.597656 36.296875 33.808594 36.296875 34.03125 36.296875 C 34.328125 36.296875 34.328125 36.296875 34.628906 36.300781 C 34.796875 36.300781 34.972656 36.304688 35.144531 36.304688 C 35.730469 36.390625 36.085938 36.59375 36.5625 36.9375 C 36.910156 37.636719 36.792969 38.476562 36.796875 39.246094 C 36.804688 39.511719 36.804688 39.511719 36.808594 39.785156 C 36.816406 41.472656 36.816406 41.472656 36.1875 42.1875 C 35.628906 42.375 35.257812 42.398438 34.671875 42.402344 C 34.476562 42.402344 34.277344 42.402344 34.078125 42.402344 C 33.859375 42.402344 33.644531 42.40625 33.421875 42.40625 C 33.082031 42.40625 33.082031 42.40625 32.730469 42.40625 C 32.109375 42.410156 31.484375 42.410156 30.859375 42.414062 C 30.46875 42.414062 30.078125 42.414062 29.691406 42.414062 C 28.46875 42.417969 27.25 42.417969 26.03125 42.417969 C 24.621094 42.421875 23.214844 42.425781 21.808594 42.429688 C 20.71875 42.433594 19.628906 42.4375 18.539062 42.4375 C 17.890625 42.4375 17.242188 42.4375 16.589844 42.441406 C 15.863281 42.445312 15.140625 42.445312 14.414062 42.441406 C 14.199219 42.445312 13.984375 42.445312 13.761719 42.445312 C 13.464844 42.445312 13.464844 42.445312 13.164062 42.445312 C 12.992188 42.445312 12.820312 42.445312 12.644531 42.445312 C 12.09375 42.359375 11.839844 42.195312 11.4375 41.8125 C 11.160156 40.984375 11.191406 40.171875 11.179688 39.304688 C 11.171875 39.125 11.167969 38.949219 11.160156 38.765625 C 11.15625 38.597656 11.15625 38.421875 11.152344 38.246094 C 11.148438 38.089844 11.144531 37.933594 11.140625 37.769531 C 11.261719 37.25 11.457031 36.941406 11.84375 36.574219 C 12.613281 36.125 13.566406 36.25 14.429688 36.257812 Z M 14.429688 36.257812 "/>
<path style=" stroke:none;fill-rule:nonzero;fill:rgb(17.647059%,26.274511%,33.725491%);fill-opacity:1;" d="M 14.429688 18.257812 C 14.65625 18.257812 14.882812 18.257812 15.117188 18.257812 C 15.742188 18.253906 16.363281 18.257812 16.984375 18.261719 C 17.636719 18.265625 18.289062 18.261719 18.9375 18.261719 C 20.03125 18.261719 21.125 18.265625 22.222656 18.273438 C 23.484375 18.28125 24.746094 18.28125 26.011719 18.28125 C 27.226562 18.28125 28.445312 18.28125 29.660156 18.285156 C 30.179688 18.285156 30.695312 18.289062 31.214844 18.289062 C 31.9375 18.285156 32.660156 18.292969 33.382812 18.296875 C 33.597656 18.296875 33.808594 18.296875 34.03125 18.296875 C 34.328125 18.296875 34.328125 18.296875 34.628906 18.300781 C 34.796875 18.300781 34.972656 18.304688 35.144531 18.304688 C 35.730469 18.390625 36.085938 18.59375 36.5625 18.9375 C 36.910156 19.636719 36.792969 20.476562 36.796875 21.246094 C 36.804688 21.511719 36.804688 21.511719 36.808594 21.785156 C 36.816406 23.523438 36.816406 23.523438 36.1875 24.1875 C 35.878906 24.25 35.570312 24.3125 35.25 24.375 C 35.25 22.890625 35.25 21.40625 35.25 19.875 C 34.101562 19.878906 32.957031 19.890625 31.808594 19.902344 C 31.417969 19.90625 31.027344 19.910156 30.636719 19.910156 C 30.074219 19.914062 29.511719 19.921875 28.949219 19.929688 C 28.777344 19.929688 28.605469 19.929688 28.425781 19.929688 C 27.246094 19.953125 26.40625 20.214844 25.5 21 C 24.949219 21.832031 24.917969 22.425781 25.019531 23.390625 C 25.046875 23.667969 25.046875 23.667969 25.078125 23.949219 C 25.09375 24.089844 25.109375 24.230469 25.125 24.375 C 23.449219 24.386719 21.777344 24.398438 20.101562 24.402344 C 19.324219 24.40625 18.546875 24.410156 17.773438 24.417969 C 17.023438 24.421875 16.273438 24.425781 15.523438 24.429688 C 15.234375 24.429688 14.949219 24.433594 14.664062 24.433594 C 14.261719 24.4375 13.859375 24.441406 13.460938 24.441406 C 13.117188 24.441406 13.117188 24.441406 12.769531 24.445312 C 12.136719 24.367188 11.878906 24.261719 11.4375 23.8125 C 11.160156 22.984375 11.191406 22.171875 11.179688 21.304688 C 11.171875 21.125 11.167969 20.949219 11.160156 20.765625 C 11.15625 20.597656 11.15625 20.421875 11.152344 20.246094 C 11.148438 20.089844 11.144531 19.933594 11.140625 19.769531 C 11.261719 19.25 11.457031 18.941406 11.84375 18.574219 C 12.613281 18.125 13.566406 18.25 14.429688 18.257812 Z M 14.429688 18.257812 "/>
<path style=" stroke:none;fill-rule:nonzero;fill:rgb(17.647059%,26.274511%,33.725491%);fill-opacity:1;" d="M 13.585938 27.269531 C 13.722656 27.269531 13.859375 27.269531 14 27.269531 C 14.453125 27.269531 14.902344 27.277344 15.355469 27.285156 C 15.667969 27.285156 15.984375 27.289062 16.296875 27.289062 C 17.121094 27.292969 17.945312 27.300781 18.769531 27.308594 C 19.613281 27.320312 20.453125 27.324219 21.296875 27.328125 C 22.949219 27.339844 24.597656 27.355469 26.25 27.375 C 26.4375 27.871094 26.621094 28.367188 26.8125 28.875 C 22.171875 28.875 17.53125 28.875 12.75 28.875 C 12.75 29.867188 12.75 30.855469 12.75 31.875 C 20.175781 31.875 27.601562 31.875 35.25 31.875 C 35.25 30.886719 35.25 29.894531 35.25 28.875 C 35.066406 28.78125 35.066406 28.78125 34.875 28.6875 C 35.121094 28.316406 35.371094 27.945312 35.625 27.5625 C 35.976562 27.621094 35.976562 27.621094 36.375 27.75 C 36.917969 28.566406 36.8125 29.300781 36.808594 30.257812 C 36.8125 30.433594 36.8125 30.613281 36.816406 30.796875 C 36.820312 32.46875 36.820312 32.46875 36.1875 33.1875 C 35.628906 33.375 35.257812 33.398438 34.671875 33.402344 C 34.476562 33.402344 34.277344 33.402344 34.078125 33.40625 C 33.859375 33.40625 33.644531 33.40625 33.421875 33.40625 C 33.082031 33.40625 33.082031 33.40625 32.730469 33.40625 C 32.109375 33.410156 31.484375 33.410156 30.859375 33.414062 C 30.46875 33.414062 30.082031 33.414062 29.691406 33.414062 C 28.46875 33.417969 27.25 33.417969 26.03125 33.421875 C 24.621094 33.421875 23.214844 33.425781 21.808594 33.429688 C 20.71875 33.433594 19.628906 33.433594 18.539062 33.433594 C 17.890625 33.433594 17.242188 33.4375 16.589844 33.441406 C 15.863281 33.441406 15.140625 33.441406 14.414062 33.441406 C 14.199219 33.441406 13.984375 33.445312 13.761719 33.445312 C 13.464844 33.445312 13.464844 33.445312 13.164062 33.445312 C 12.992188 33.445312 12.820312 33.445312 12.644531 33.445312 C 12.09375 33.359375 11.839844 33.199219 11.4375 32.8125 C 11.160156 31.984375 11.191406 31.175781 11.179688 30.304688 C 11.171875 30.128906 11.167969 29.949219 11.160156 29.769531 C 11.15625 29.59375 11.15625 29.421875 11.152344 29.246094 C 11.148438 29.089844 11.144531 28.933594 11.140625 28.773438 C 11.445312 27.503906 12.421875 27.238281 13.585938 27.269531 Z M 13.585938 27.269531 "/>
<path style=" stroke:none;fill-rule:nonzero;fill:rgb(57.647061%,52.941179%,63.529414%);fill-opacity:1;" d="M 12.75 37.875 C 20.175781 37.875 27.601562 37.875 35.25 37.875 C 35.25 38.863281 35.25 39.855469 35.25 40.875 C 27.824219 40.875 20.398438 40.875 12.75 40.875 C 12.75 39.886719 12.75 38.894531 12.75 37.875 Z M 12.75 37.875 "/>
<path style=" stroke:none;fill-rule:nonzero;fill:rgb(99.607843%,85.882354%,50.196081%);fill-opacity:1;" d="M 12.75 28.875 C 14.585938 28.855469 16.421875 28.835938 18.253906 28.828125 C 19.109375 28.820312 19.960938 28.816406 20.8125 28.804688 C 21.636719 28.792969 22.457031 28.789062 23.28125 28.785156 C 23.59375 28.785156 23.90625 28.78125 24.222656 28.777344 C 24.660156 28.769531 25.101562 28.769531 25.542969 28.769531 C 25.671875 28.765625 25.800781 28.761719 25.933594 28.757812 C 26.851562 28.769531 27.339844 29.035156 28.023438 29.605469 C 28.46875 29.925781 28.84375 29.894531 29.378906 29.847656 C 30.113281 29.792969 30.480469 29.839844 31.125 30.1875 C 31.90625 30.34375 32.5625 30.320312 33.273438 29.941406 C 33.558594 29.746094 33.839844 29.539062 34.117188 29.328125 C 34.5 29.0625 34.5 29.0625 35.25 28.875 C 35.25 29.863281 35.25 30.855469 35.25 31.875 C 27.824219 31.875 20.398438 31.875 12.75 31.875 C 12.75 30.886719 12.75 29.894531 12.75 28.875 Z M 12.75 28.875 "/>
<path style=" stroke:none;fill-rule:nonzero;fill:rgb(19.215687%,27.843139%,35.294119%);fill-opacity:1;" d="M 28.996094 21.453125 C 29.558594 21.558594 30.117188 21.675781 30.679688 21.796875 C 30.871094 21.835938 31.0625 21.875 31.261719 21.914062 C 33.121094 22.3125 33.121094 22.3125 33.75 23.0625 C 33.816406 23.519531 33.816406 23.519531 33.761719 24 C 33.691406 24.757812 33.691406 24.757812 34.125 25.359375 C 34.25 25.464844 34.371094 25.574219 34.5 25.6875 C 34.628906 26.203125 34.628906 26.203125 34.5 26.8125 C 33.9375 27.621094 33.261719 28.328125 32.4375 28.875 C 31.660156 28.992188 31.363281 28.90625 30.679688 28.5 C 30.519531 28.375 30.355469 28.253906 30.1875 28.125 C 30.003906 28.25 29.816406 28.371094 29.625 28.5 C 28.476562 28.4375 28.476562 28.4375 28.015625 28.082031 C 27.457031 27.382812 27.25 26.464844 26.964844 25.628906 C 26.894531 25.433594 26.824219 25.242188 26.757812 25.042969 C 26.691406 24.855469 26.625 24.664062 26.558594 24.472656 C 26.5 24.300781 26.441406 24.128906 26.378906 23.953125 C 26.234375 23.378906 26.203125 22.902344 26.25 22.3125 C 27.035156 21.21875 27.773438 21.261719 28.996094 21.453125 Z M 28.996094 21.453125 "/>
<path style=" stroke:none;fill-rule:nonzero;fill:rgb(98.431373%,47.058824%,36.862746%);fill-opacity:1;" d="M 12.75 19.875 C 17.453125 19.875 22.15625 19.875 27 19.875 C 26.597656 20.175781 26.195312 20.472656 25.769531 20.742188 C 25.132812 21.292969 25.132812 21.292969 24.75 22.875 C 20.789062 22.875 16.828125 22.875 12.75 22.875 C 12.75 21.886719 12.75 20.894531 12.75 19.875 Z M 12.75 19.875 "/>
<path style=" stroke:none;fill-rule:nonzero;fill:rgb(87.843138%,91.764706%,95.294118%);fill-opacity:1;" d="M 16.3125 2.8125 C 16.375 2.8125 16.4375 2.8125 16.5 2.8125 C 16.507812 4.0625 16.515625 5.308594 16.519531 6.558594 C 16.523438 6.984375 16.523438 7.40625 16.527344 7.832031 C 16.535156 8.441406 16.535156 9.050781 16.539062 9.660156 C 16.539062 9.851562 16.542969 10.042969 16.542969 10.238281 C 16.542969 10.503906 16.542969 10.503906 16.542969 10.773438 C 16.542969 10.929688 16.546875 11.085938 16.546875 11.246094 C 16.5 11.625 16.5 11.625 16.125 12 C 15.546875 12.035156 14.984375 12.042969 14.40625 12.039062 C 14.152344 12.035156 14.152344 12.035156 13.890625 12.035156 C 13.347656 12.035156 12.800781 12.027344 12.257812 12.023438 C 11.890625 12.019531 11.519531 12.019531 11.152344 12.019531 C 10.246094 12.015625 9.34375 12.007812 8.4375 12 C 8.613281 11.761719 8.789062 11.527344 8.964844 11.289062 C 9.0625 11.15625 9.164062 11.023438 9.261719 10.886719 C 9.695312 10.332031 10.167969 9.824219 10.652344 9.316406 C 11.347656 8.574219 12.019531 7.828125 12.65625 7.03125 C 13.394531 6.113281 14.179688 5.25 14.988281 4.390625 C 15.460938 3.882812 15.894531 3.371094 16.3125 2.8125 Z M 16.3125 2.8125 "/>
<path style=" stroke:none;fill-rule:nonzero;fill:rgb(63.529414%,76.862746%,78.039217%);fill-opacity:1;" d="M 7.5 45.375 C 7.6875 45.46875 7.6875 45.46875 7.875 45.5625 C 8.296875 45.582031 8.71875 45.585938 9.140625 45.585938 C 9.339844 45.585938 9.339844 45.585938 9.542969 45.585938 C 9.984375 45.589844 10.429688 45.585938 10.871094 45.585938 C 11.191406 45.585938 11.507812 45.585938 11.824219 45.585938 C 12.6875 45.589844 13.550781 45.589844 14.414062 45.585938 C 15.316406 45.585938 16.21875 45.585938 17.117188 45.589844 C 18.632812 45.589844 20.148438 45.589844 21.660156 45.585938 C 23.414062 45.585938 25.167969 45.585938 26.917969 45.585938 C 28.421875 45.589844 29.925781 45.589844 31.429688 45.585938 C 32.328125 45.585938 33.226562 45.585938 34.125 45.589844 C 34.96875 45.589844 35.8125 45.589844 36.65625 45.585938 C 36.96875 45.585938 37.277344 45.585938 37.589844 45.585938 C 38.011719 45.589844 38.4375 45.585938 38.859375 45.585938 C 39.09375 45.585938 39.332031 45.585938 39.574219 45.585938 C 40.113281 45.601562 40.113281 45.601562 40.5 45.375 C 40.335938 46.289062 40.335938 46.289062 40.125 46.5 C 39.710938 46.519531 39.296875 46.523438 38.878906 46.523438 C 38.683594 46.527344 38.683594 46.527344 38.484375 46.527344 C 38.039062 46.527344 37.59375 46.527344 37.148438 46.527344 C 36.832031 46.527344 36.515625 46.527344 36.195312 46.53125 C 35.335938 46.53125 34.46875 46.53125 33.605469 46.53125 C 32.886719 46.53125 32.164062 46.53125 31.445312 46.535156 C 29.75 46.535156 28.050781 46.535156 26.351562 46.535156 C 24.597656 46.535156 22.84375 46.539062 21.089844 46.539062 C 19.585938 46.542969 18.082031 46.542969 16.578125 46.542969 C 15.679688 46.542969 14.78125 46.542969 13.878906 46.546875 C 13.035156 46.546875 12.191406 46.546875 11.34375 46.546875 C 11.035156 46.546875 10.722656 46.546875 10.410156 46.546875 C 9.988281 46.546875 9.566406 46.546875 9.140625 46.546875 C 8.90625 46.546875 8.667969 46.546875 8.425781 46.546875 C 7.875 46.5 7.875 46.5 7.5 46.125 C 7.5 45.878906 7.5 45.628906 7.5 45.375 Z M 7.5 45.375 "/>
<path style=" stroke:none;fill-rule:nonzero;fill:rgb(47.450981%,43.921569%,52.156866%);fill-opacity:1;" d="M 12.75 40.125 C 20.175781 40.125 27.601562 40.125 35.25 40.125 C 35.25 40.371094 35.25 40.621094 35.25 40.875 C 27.824219 40.875 20.398438 40.875 12.75 40.875 C 12.75 40.628906 12.75 40.378906 12.75 40.125 Z M 12.75 40.125 "/>
<path style=" stroke:none;fill-rule:nonzero;fill:rgb(63.529414%,58.431375%,69.803923%);fill-opacity:1;" d="M 12.75 37.875 C 20.175781 37.875 27.601562 37.875 35.25 37.875 C 35.25 38.121094 35.25 38.371094 35.25 38.625 C 27.824219 38.625 20.398438 38.625 12.75 38.625 C 12.75 38.378906 12.75 38.128906 12.75 37.875 Z M 12.75 37.875 "/>
<path style=" stroke:none;fill-rule:nonzero;fill:rgb(85.490197%,72.941178%,43.137255%);fill-opacity:1;" d="M 12.75 31.125 C 20.175781 31.125 27.601562 31.125 35.25 31.125 C 35.25 31.371094 35.25 31.621094 35.25 31.875 C 27.824219 31.875 20.398438 31.875 12.75 31.875 C 12.75 31.628906 12.75 31.378906 12.75 31.125 Z M 12.75 31.125 "/>
<path style=" stroke:none;fill-rule:nonzero;fill:rgb(85.490197%,89.803922%,93.333334%);fill-opacity:1;" d="M 27.75 22.875 C 29.261719 23.078125 30.757812 23.300781 32.25 23.625 C 32.25 23.75 32.25 23.871094 32.25 24 C 31.878906 24.1875 31.507812 24.371094 31.125 24.5625 C 31.742188 25.121094 32.363281 25.675781 33 26.25 C 32.691406 26.621094 32.382812 26.992188 32.0625 27.375 C 31.191406 26.886719 30.414062 26.292969 29.625 25.6875 C 29.601562 25.835938 29.578125 25.988281 29.554688 26.144531 C 29.515625 26.300781 29.476562 26.460938 29.4375 26.625 C 29.3125 26.6875 29.191406 26.75 29.0625 26.8125 C 28.878906 26.332031 28.695312 25.851562 28.511719 25.371094 C 28.457031 25.234375 28.40625 25.101562 28.355469 24.960938 C 28.089844 24.269531 27.863281 23.609375 27.75 22.875 Z M 27.75 22.875 "/>
<path style=" stroke:none;fill-rule:nonzero;fill:rgb(98.431373%,89.411765%,66.274512%);fill-opacity:1;" d="M 12.75 28.875 C 14.59375 28.859375 16.441406 28.84375 18.285156 28.835938 C 19.140625 28.832031 20 28.828125 20.855469 28.820312 C 21.683594 28.808594 22.507812 28.804688 23.335938 28.804688 C 23.652344 28.800781 23.964844 28.800781 24.28125 28.796875 C 24.722656 28.789062 25.164062 28.789062 25.605469 28.789062 C 25.800781 28.785156 25.800781 28.785156 26.003906 28.78125 C 26.957031 28.789062 27.011719 28.886719 27.75 29.625 C 22.800781 29.625 17.851562 29.625 12.75 29.625 C 12.75 29.378906 12.75 29.128906 12.75 28.875 Z M 12.75 28.875 "/>
<path style=" stroke:none;fill-rule:nonzero;fill:rgb(98.039216%,58.431375%,50.980395%);fill-opacity:1;" d="M 12.75 19.875 C 17.453125 19.875 22.15625 19.875 27 19.875 C 25.976562 20.640625 25.527344 20.859375 24.242188 20.839844 C 24.058594 20.835938 24.058594 20.835938 23.867188 20.832031 C 23.457031 20.824219 23.046875 20.816406 22.636719 20.808594 C 22.355469 20.804688 22.070312 20.800781 21.785156 20.792969 C 21.035156 20.78125 20.285156 20.765625 19.539062 20.75 C 18.773438 20.734375 18.007812 20.722656 17.246094 20.710938 C 15.746094 20.683594 14.25 20.65625 12.75 20.625 C 12.75 20.378906 12.75 20.128906 12.75 19.875 Z M 12.75 19.875 "/>
<path style=" stroke:none;fill-rule:nonzero;fill:rgb(81.960785%,38.431373%,30.980393%);fill-opacity:1;" d="M 12.75 22.125 C 16.710938 22.125 20.671875 22.125 24.75 22.125 C 24.75 22.371094 24.75 22.621094 24.75 22.875 C 20.789062 22.875 16.828125 22.875 12.75 22.875 C 12.75 22.628906 12.75 22.378906 12.75 22.125 Z M 12.75 22.125 "/>
<path style=" stroke:none;fill-rule:nonzero;fill:rgb(97.254902%,59.607846%,52.156866%);fill-opacity:1;" d="M 28.5 19.875 C 30.726562 19.875 32.953125 19.875 35.25 19.875 C 35.25 20.863281 35.25 21.855469 35.25 22.875 C 35.003906 22.566406 34.753906 22.257812 34.5 21.9375 C 33.34375 20.84375 31.804688 20.707031 30.292969 20.414062 C 30.121094 20.378906 29.949219 20.34375 29.769531 20.308594 C 29.34375 20.226562 28.921875 20.144531 28.5 20.0625 C 28.5 20 28.5 19.9375 28.5 19.875 Z M 28.5 19.875 "/>
<path style=" stroke:none;fill-rule:nonzero;fill:rgb(74.901962%,78.039217%,80.784315%);fill-opacity:1;" d="M 16.3125 10.875 C 16.429688 11.226562 16.429688 11.226562 16.5 11.625 C 16.125 12 16.125 12 15.375 12.042969 C 15.050781 12.042969 14.730469 12.042969 14.40625 12.039062 C 14.152344 12.035156 14.152344 12.035156 13.890625 12.035156 C 13.347656 12.035156 12.800781 12.027344 12.257812 12.023438 C 11.890625 12.019531 11.519531 12.019531 11.152344 12.019531 C 10.246094 12.015625 9.34375 12.007812 8.4375 12 C 8.617188 11.632812 8.617188 11.632812 9 11.25 C 9.558594 11.171875 10.046875 11.140625 10.605469 11.144531 C 10.765625 11.140625 10.921875 11.136719 11.082031 11.132812 C 11.582031 11.125 12.085938 11.125 12.585938 11.121094 C 13.089844 11.113281 13.59375 11.109375 14.09375 11.101562 C 14.40625 11.097656 14.71875 11.09375 15.03125 11.09375 C 15.730469 11.15625 15.730469 11.15625 16.3125 10.875 Z M 16.3125 10.875 "/>
<path style=" stroke:none;fill-rule:nonzero;fill:rgb(97.647059%,49.019608%,39.215687%);fill-opacity:1;" d="M 32.625 20.625 C 33.492188 20.625 34.359375 20.625 35.25 20.625 C 35.25 21.367188 35.25 22.109375 35.25 22.875 C 35.144531 22.734375 35.042969 22.597656 34.933594 22.453125 C 34.261719 21.65625 33.613281 21.152344 32.625 20.8125 C 32.625 20.75 32.625 20.6875 32.625 20.625 Z M 32.625 20.625 "/>
</g>
</svg>
