<?xml version="1.0" encoding="UTF-8"?>
<svg xmlns="http://www.w3.org/2000/svg" xmlns:xlink="http://www.w3.org/1999/xlink" width="48" height="48" viewBox="0 0 48 48" version="1.1">
<g id="surface1">
<path style=" stroke:none;fill-rule:nonzero;fill:rgb(1.568628%,2.352941%,2.352941%);fill-opacity:1;" d="M 44.546875 1.71875 C 45.949219 2.777344 47.097656 4.246094 47.4375 6 C 47.738281 9.5625 46.242188 11.9375 44.0625 14.625 C 44.214844 14.667969 44.363281 14.714844 44.523438 14.761719 C 46.546875 15.398438 46.546875 15.398438 47.25 16.125 C 47.550781 16.730469 47.527344 17.144531 47.4375 17.8125 C 46.339844 19.339844 44.285156 19.519531 42.574219 19.8125 C 42.382812 19.84375 42.382812 19.84375 42.1875 19.875 C 42.3125 20 42.4375 20.121094 42.5625 20.25 C 43.34375 23.316406 43.265625 27.84375 41.8125 30.75 C 41.328125 31.195312 41.171875 31.3125 40.5 31.3125 C 40.566406 31.453125 40.628906 31.59375 40.699219 31.738281 C 41.644531 33.871094 41.867188 35.460938 41.0625 37.6875 C 40.386719 39.179688 39.523438 40.503906 38.53125 41.804688 C 38.230469 42.132812 38.230469 42.132812 38.25 42.375 C 38.371094 42.40625 38.496094 42.4375 38.621094 42.472656 C 39.609375 42.746094 40.464844 43 41.25 43.6875 C 41.5625 44.300781 41.664062 44.628906 41.519531 45.304688 C 40.902344 46.324219 39.9375 46.773438 38.8125 47.0625 C 35.726562 47.648438 31.773438 47.957031 28.875 46.5 C 28.3125 46.007812 28.3125 46.007812 27.9375 45.5625 C 27.875 45.5 27.816406 45.4375 27.75 45.375 C 27.648438 44.652344 27.71875 44.304688 28.078125 43.664062 C 28.808594 42.855469 29.921875 42.648438 30.9375 42.375 C 30.9375 41.789062 30.554688 41.496094 30.1875 41.0625 C 30.15625 41.207031 30.125 41.347656 30.09375 41.496094 C 29.75 42.109375 29.425781 42.238281 28.769531 42.445312 C 23.988281 43.675781 18.835938 42.914062 14.570312 40.453125 C 10.828125 38.039062 7.890625 34.761719 6.417969 30.519531 C 6.347656 29.949219 6.664062 29.542969 6.9375 29.0625 C 6.722656 29.066406 6.503906 29.070312 6.28125 29.078125 C 4.484375 29.074219 2.300781 28.824219 0.9375 27.5625 C 0.460938 26.851562 0.433594 26.53125 0.5625 25.6875 C 1.195312 24.882812 2 24.40625 3 24.1875 C 3.3125 24.183594 3.625 24.179688 3.9375 24.1875 C 3.871094 24.089844 3.804688 23.992188 3.738281 23.890625 C 3.539062 23.597656 3.34375 23.300781 3.148438 23.003906 C 2.925781 22.671875 2.703125 22.339844 2.476562 22.007812 C 0.933594 19.679688 0.121094 17.632812 0.675781 14.804688 C 1.191406 13.097656 2.472656 11.644531 3.964844 10.679688 C 5.578125 9.84375 7.457031 9.613281 9.210938 10.101562 C 9.5625 10.226562 9.90625 10.359375 10.25 10.503906 C 10.644531 10.671875 11.019531 10.78125 11.4375 10.875 C 11.484375 10.734375 11.527344 10.59375 11.574219 10.449219 C 12.488281 8.480469 15.46875 7.257812 17.402344 6.515625 C 22.191406 4.785156 27.179688 5.046875 31.875 6.9375 C 32.035156 7 32.195312 7.066406 32.359375 7.132812 C 32.96875 7.402344 33.316406 7.5625 33.601562 8.179688 C 33.675781 8.398438 33.675781 8.398438 33.75 8.625 C 33.742188 8.472656 33.730469 8.320312 33.722656 8.164062 C 33.652344 5.972656 34.132812 4.261719 35.625 2.625 C 37.972656 0.140625 41.738281 -0.0742188 44.546875 1.71875 Z M 44.546875 1.71875 "/>
<path style=" stroke:none;fill-rule:nonzero;fill:rgb(1.960784%,1.568628%,1.568628%);fill-opacity:1;" d="M 44.546875 1.71875 C 45.949219 2.777344 47.097656 4.246094 47.4375 6 C 47.738281 9.5625 46.242188 11.9375 44.0625 14.625 C 44.289062 14.695312 44.289062 14.695312 44.523438 14.761719 C 46.546875 15.398438 46.546875 15.398438 47.25 16.125 C 47.550781 16.730469 47.527344 17.144531 47.4375 17.8125 C 46.339844 19.339844 44.285156 19.519531 42.574219 19.8125 C 42.445312 19.832031 42.316406 19.855469 42.1875 19.875 C 42.3125 20 42.4375 20.121094 42.5625 20.25 C 43.34375 23.316406 43.265625 27.84375 41.8125 30.75 C 41.328125 31.195312 41.171875 31.3125 40.5 31.3125 C 40.566406 31.453125 40.628906 31.59375 40.699219 31.738281 C 41.644531 33.871094 41.867188 35.460938 41.0625 37.6875 C 40.386719 39.179688 39.523438 40.503906 38.53125 41.804688 C 38.230469 42.132812 38.230469 42.132812 38.25 42.375 C 38.371094 42.40625 38.496094 42.4375 38.621094 42.472656 C 39.609375 42.746094 40.464844 43 41.25 43.6875 C 41.5625 44.300781 41.664062 44.628906 41.519531 45.304688 C 40.902344 46.324219 39.9375 46.773438 38.8125 47.0625 C 35.726562 47.648438 31.773438 47.957031 28.875 46.5 C 28.3125 46.007812 28.3125 46.007812 27.9375 45.5625 C 27.875 45.5 27.816406 45.4375 27.75 45.375 C 27.648438 44.652344 27.71875 44.304688 28.078125 43.664062 C 28.808594 42.855469 29.921875 42.648438 30.9375 42.375 C 30.9375 41.886719 30.78125 41.785156 30.46875 41.414062 C 29.878906 40.652344 29.445312 39.84375 29.015625 38.988281 C 28.949219 38.863281 28.886719 38.734375 28.820312 38.605469 C 27.917969 36.769531 27.503906 34.855469 28.171875 32.859375 C 29.0625 30.824219 30.417969 29.558594 32.4375 28.6875 C 32.976562 28.507812 33.316406 28.480469 33.878906 28.488281 C 34.03125 28.492188 34.183594 28.492188 34.335938 28.492188 C 34.511719 28.496094 34.511719 28.496094 34.6875 28.5 C 34.480469 27.484375 34.480469 27.484375 33.75 26.8125 C 33.125 26.765625 32.511719 26.746094 31.886719 26.738281 C 30.765625 26.703125 30.097656 26.335938 29.28125 25.539062 C 29.195312 25.433594 29.105469 25.328125 29.015625 25.21875 C 28.925781 25.113281 28.835938 25.007812 28.742188 24.894531 C 28.160156 24.09375 28.054688 23.566406 28.183594 22.589844 C 28.378906 21.882812 28.773438 21.335938 29.175781 20.730469 C 29.453125 20.21875 29.546875 19.824219 29.625 19.253906 C 29.726562 18.609375 29.832031 18.238281 30.316406 17.789062 C 31.054688 17.371094 31.410156 17.351562 32.25 17.4375 C 32.402344 17.453125 32.550781 17.46875 32.707031 17.480469 C 33.117188 17.523438 33.527344 17.570312 33.9375 17.625 C 33.9375 17.378906 33.9375 17.128906 33.9375 16.875 C 33.78125 16.886719 33.625 16.898438 33.464844 16.910156 C 33.261719 16.914062 33.058594 16.925781 32.847656 16.933594 C 32.644531 16.945312 32.445312 16.957031 32.234375 16.964844 C 31.6875 16.875 31.6875 16.875 31.34375 16.449219 C 30.847656 15.296875 30.660156 13.953125 31.066406 12.738281 C 31.730469 11.640625 32.972656 11.136719 34.125 10.6875 C 34.3125 10.6875 34.496094 10.6875 34.6875 10.6875 C 34.585938 10.507812 34.585938 10.507812 34.480469 10.320312 C 33.675781 8.746094 33.476562 7.363281 33.878906 5.625 C 34.433594 3.941406 35.445312 2.484375 36.9375 1.5 C 39.488281 0.25 42.113281 0.164062 44.546875 1.71875 Z M 44.546875 1.71875 "/>
<path style=" stroke:none;fill-rule:nonzero;fill:rgb(52.941179%,77.254903%,97.647059%);fill-opacity:1;" d="M 32.0625 9 C 32.4375 9.007812 32.8125 9.007812 33.1875 9 C 33.433594 9 33.683594 9 33.9375 9 C 34.457031 9.519531 34.5625 9.980469 34.6875 10.6875 C 34.535156 10.742188 34.382812 10.800781 34.226562 10.859375 C 32.796875 11.421875 31.980469 11.839844 31.125 13.125 C 30.960938 14.433594 31.148438 15.5 31.6875 16.6875 C 32.429688 16.75 33.171875 16.8125 33.9375 16.875 C 34 17.183594 34.0625 17.492188 34.125 17.8125 C 32.882812 17.835938 32.882812 17.835938 32.25 17.625 C 31.542969 17.558594 31.074219 17.5625 30.421875 17.859375 C 29.859375 18.546875 29.769531 19.199219 29.589844 20.058594 C 29.441406 20.605469 29.269531 20.949219 28.945312 21.410156 C 28.421875 22.179688 28.203125 22.878906 28.3125 23.8125 C 28.765625 24.960938 29.644531 25.882812 30.75 26.4375 C 31.371094 26.46875 31.996094 26.492188 32.621094 26.5 C 33.28125 26.527344 33.730469 26.613281 34.3125 26.9375 C 34.6875 27.375 34.6875 27.375 34.746094 27.984375 C 34.71875 28.238281 34.71875 28.238281 34.6875 28.5 C 34.542969 28.519531 34.398438 28.539062 34.25 28.554688 C 33.019531 28.734375 31.980469 28.9375 30.9375 29.625 C 30.8125 29.707031 30.6875 29.789062 30.558594 29.871094 C 29.167969 30.929688 28.289062 32.53125 28.019531 34.242188 C 27.957031 36.078125 28.445312 37.550781 29.378906 39.105469 C 29.894531 39.980469 29.976562 40.808594 30 41.8125 C 27.433594 43.550781 23.195312 43.199219 20.28125 42.652344 C 15.359375 41.601562 11.125 38.597656 8.3125 34.453125 C 7.597656 33.347656 7.050781 32.15625 6.5625 30.9375 C 6.507812 30.8125 6.457031 30.691406 6.398438 30.5625 C 6.359375 29.929688 6.664062 29.441406 6.9375 28.875 C 7.171875 28.851562 7.40625 28.828125 7.648438 28.804688 C 11.042969 28.632812 11.042969 28.632812 13.875 27 C 13.96875 26.453125 13.96875 26.453125 13.875 25.875 C 13.308594 25.140625 12.621094 24.886719 11.765625 24.609375 C 11.644531 24.566406 11.523438 24.527344 11.394531 24.484375 C 11.097656 24.382812 10.800781 24.285156 10.5 24.1875 C 10.6875 23.8125 10.875 23.4375 11.0625 23.0625 C 11.753906 23.1875 12.253906 23.484375 12.84375 23.859375 C 13.019531 23.96875 13.195312 24.078125 13.375 24.191406 C 14.003906 24.660156 14.460938 25.171875 14.8125 25.875 C 14.828125 26.214844 14.847656 26.558594 14.859375 26.898438 C 14.898438 28.765625 14.898438 28.765625 15.75 30.375 C 16.089844 30.679688 16.433594 30.980469 16.78125 31.277344 C 17.84375 32.203125 18.234375 32.957031 18.5625 34.3125 C 18.621094 34.554688 18.683594 34.800781 18.746094 35.042969 C 18.84375 35.433594 18.9375 35.824219 19.03125 36.214844 C 19.488281 38.085938 19.488281 38.085938 20.496094 39.691406 C 21.195312 40.03125 21.574219 39.980469 22.3125 39.75 C 23.371094 38.8125 23.785156 37.277344 23.953125 35.917969 C 24.15625 34.636719 24.886719 33.796875 25.6875 32.8125 C 25.894531 32.539062 26.105469 32.265625 26.308594 31.992188 C 26.398438 31.875 26.484375 31.753906 26.578125 31.632812 C 27.605469 30.226562 27.75 28.917969 27.5625 27.1875 C 27.226562 26.601562 27.226562 26.601562 26.625 26.25 C 26.503906 26.15625 26.378906 26.066406 26.253906 25.972656 C 25.253906 25.253906 24.222656 24.777344 23.0625 24.375 C 22.941406 24.328125 22.820312 24.28125 22.695312 24.230469 C 21.75 23.875 20.964844 23.773438 19.960938 23.800781 C 17.890625 23.851562 17.890625 23.851562 17.089844 23.175781 C 16.625 22.449219 16.3125 21.871094 16.3125 21 C 16.519531 20.953125 16.730469 20.910156 16.941406 20.863281 C 17.214844 20.800781 17.492188 20.734375 17.765625 20.671875 C 17.902344 20.640625 18.039062 20.613281 18.179688 20.582031 C 19.007812 20.386719 19.53125 20.203125 20.0625 19.5 C 20.140625 19.292969 20.21875 19.082031 20.296875 18.867188 C 20.777344 17.640625 22.105469 17.011719 23.25 16.5 C 23.890625 16.316406 24.539062 16.1875 25.1875 16.054688 C 25.773438 15.925781 26.175781 15.820312 26.613281 15.398438 C 27.007812 14.613281 27.035156 13.910156 27.046875 13.03125 C 27.050781 12.820312 27.054688 12.609375 27.0625 12.390625 C 26.992188 11.738281 26.925781 11.5 26.4375 11.0625 C 25.851562 10.847656 25.851562 10.847656 25.183594 10.710938 C 24.320312 10.492188 23.71875 10.3125 23.0625 9.703125 C 22.226562 8.988281 21.359375 9.078125 20.300781 9.125 C 19.625 9.195312 19.023438 9.359375 18.375 9.5625 C 17.808594 9.621094 17.25 9.664062 16.6875 9.5625 C 16.355469 9.277344 16.355469 9.277344 16.125 9 C 16.507812 8.820312 16.890625 8.640625 17.273438 8.460938 C 17.484375 8.359375 17.699219 8.261719 17.917969 8.15625 C 22.460938 6.160156 27.726562 6.832031 32.0625 9 Z M 32.0625 9 "/>
<path style=" stroke:none;fill-rule:nonzero;fill:rgb(41.568628%,94.509804%,74.901962%);fill-opacity:1;" d="M 14.601562 10.230469 C 15.1875 10.3125 15.1875 10.3125 15.808594 10.59375 C 16.910156 11.042969 17.878906 10.96875 19.019531 10.6875 C 20.066406 10.441406 21.179688 10.183594 22.164062 10.734375 C 22.4375 10.933594 22.710938 11.132812 22.980469 11.335938 C 23.800781 11.855469 24.742188 12.007812 25.6875 12.1875 C 25.722656 13.089844 25.714844 13.808594 25.3125 14.625 C 24.734375 14.859375 24.734375 14.859375 24.011719 15 C 22.292969 15.382812 20.625 16.015625 19.5 17.4375 C 19.359375 17.730469 19.21875 18.023438 19.078125 18.316406 C 18.679688 19.070312 18.679688 19.070312 18.171875 19.304688 C 17.742188 19.394531 17.316406 19.453125 16.875 19.5 C 16 19.707031 16 19.707031 15.199219 20.097656 C 14.871094 20.660156 14.863281 21.132812 15 21.75 C 15.316406 22.476562 15.691406 23.152344 16.125 23.8125 C 16.253906 24.015625 16.382812 24.222656 16.515625 24.433594 C 17.304688 25.160156 17.917969 25.042969 18.949219 25.007812 C 20.5 25.015625 21.789062 25.21875 23.226562 25.804688 C 23.453125 25.894531 23.453125 25.894531 23.683594 25.984375 C 24.730469 26.445312 25.699219 27.050781 26.4375 27.9375 C 26.578125 29.683594 25.394531 31.039062 24.363281 32.34375 C 23.265625 33.738281 22.710938 34.9375 22.40625 36.679688 C 22.273438 37.316406 22.03125 37.851562 21.75 38.4375 C 21.5625 38.4375 21.378906 38.4375 21.1875 38.4375 C 20.492188 37.046875 20.171875 35.675781 19.878906 34.15625 C 19.554688 32.585938 19.054688 31.148438 17.683594 30.199219 C 17.539062 30.097656 17.394531 29.996094 17.246094 29.890625 C 17.125 29.800781 17 29.714844 16.875 29.625 C 16.429688 29.179688 16.445312 29.050781 16.40625 28.4375 C 16.394531 28.277344 16.382812 28.113281 16.371094 27.949219 C 16.347656 27.609375 16.328125 27.269531 16.304688 26.929688 C 16.207031 25.660156 15.945312 24.820312 15.074219 23.851562 C 14.210938 23.15625 13.308594 22.535156 12.375 21.9375 C 12.488281 21.238281 12.6875 20.699219 13.019531 20.074219 C 13.921875 18.375 14.230469 16.582031 13.746094 14.683594 C 13.210938 13.402344 12.386719 12.238281 11.25 11.4375 C 11.3125 11.253906 11.371094 11.066406 11.4375 10.875 C 11.542969 10.941406 11.648438 11.007812 11.753906 11.074219 C 12.3125 11.300781 12.554688 11.257812 13.125 11.0625 C 13.277344 10.933594 13.425781 10.808594 13.582031 10.675781 C 14.0625 10.3125 14.0625 10.3125 14.601562 10.230469 Z M 14.601562 10.230469 "/>
<path style=" stroke:none;fill-rule:nonzero;fill:rgb(41.568628%,94.901961%,74.901962%);fill-opacity:1;" d="M 31.90625 19.117188 C 32.171875 19.125 32.4375 19.132812 32.703125 19.140625 C 32.917969 19.148438 32.917969 19.148438 33.132812 19.152344 C 33.4375 19.160156 33.742188 19.171875 34.046875 19.179688 C 34.5 19.195312 34.953125 19.207031 35.410156 19.222656 C 36.148438 19.242188 36.890625 19.265625 37.628906 19.296875 C 37.914062 19.308594 38.203125 19.316406 38.492188 19.328125 C 38.894531 19.339844 39.300781 19.359375 39.703125 19.378906 C 39.933594 19.386719 40.164062 19.398438 40.402344 19.410156 C 41.171875 19.515625 41.6875 19.703125 42.375 20.0625 C 43.867188 22.980469 42.816406 27.414062 41.988281 30.394531 C 41.757812 30.859375 41.507812 31.054688 41.0625 31.3125 C 39.96875 31.183594 39.449219 30.703125 38.671875 29.957031 C 38.1875 29.574219 37.730469 29.410156 37.148438 29.203125 C 36.617188 28.984375 36.617188 28.984375 36.1875 28.6875 C 35.984375 28.152344 35.929688 27.679688 35.882812 27.113281 C 35.84375 26.570312 35.84375 26.570312 35.378906 26.050781 C 34.4375 25.371094 33.707031 25.277344 32.554688 25.265625 C 31.519531 25.222656 30.738281 25.125 30.011719 24.339844 C 29.734375 23.867188 29.65625 23.429688 29.707031 22.886719 C 29.867188 22.3125 30.175781 21.878906 30.515625 21.390625 C 30.847656 20.835938 30.949219 20.28125 31.058594 19.648438 C 31.175781 19.054688 31.273438 19.125 31.90625 19.117188 Z M 31.90625 19.117188 "/>
<path style=" stroke:none;fill-rule:nonzero;fill:rgb(3.921569%,2.352941%,2.745098%);fill-opacity:1;" d="M 8.960938 11.738281 C 10.417969 12.253906 11.480469 13.246094 12.28125 14.554688 C 12.847656 15.867188 12.789062 17.324219 12.339844 18.660156 C 11.539062 20.375 10.410156 21.816406 9.1875 23.25 C 9.105469 23.347656 9.019531 23.445312 8.9375 23.546875 C 7.980469 24.667969 7.980469 24.667969 7.5 25.125 C 7.375 25.125 7.253906 25.125 7.125 25.125 C 6.609375 24.570312 6.148438 23.96875 5.679688 23.371094 C 5.441406 23.066406 5.195312 22.761719 4.949219 22.460938 C 3.246094 20.347656 2.058594 18.347656 2.25 15.5625 C 2.476562 14.421875 3.070312 13.515625 3.9375 12.75 C 4.480469 12.394531 5.039062 12.09375 5.625 11.8125 C 6.574219 11.339844 7.957031 11.519531 8.960938 11.738281 Z M 8.960938 11.738281 "/>
<path style=" stroke:none;fill-rule:nonzero;fill:rgb(4.313726%,2.745098%,2.745098%);fill-opacity:1;" d="M 37.03125 30.480469 C 38.375 31.242188 39.140625 32.148438 39.75 33.5625 C 40.078125 35.832031 39.421875 37.617188 38.132812 39.457031 C 37.355469 40.476562 36.523438 41.449219 35.683594 42.421875 C 35.242188 42.929688 35.242188 42.929688 34.875 43.5 C 34.070312 43.203125 33.597656 42.589844 33.058594 41.953125 C 32.960938 41.835938 32.859375 41.722656 32.761719 41.601562 C 31.78125 40.429688 30.972656 39.179688 30.1875 37.875 C 30.082031 37.710938 29.980469 37.546875 29.871094 37.378906 C 29.25 36.269531 29.296875 34.984375 29.4375 33.75 C 29.949219 32.230469 30.886719 31.1875 32.25 30.375 C 33.769531 29.636719 35.53125 29.777344 37.03125 30.480469 Z M 37.03125 30.480469 "/>
<path style=" stroke:none;fill-rule:nonzero;fill:rgb(4.313726%,2.745098%,2.745098%);fill-opacity:1;" d="M 43.3125 3 C 44.414062 3.808594 45.3125 4.683594 45.75 6 C 46.097656 9.46875 44.164062 11.824219 42.097656 14.363281 C 41.960938 14.527344 41.960938 14.527344 41.824219 14.695312 C 41.738281 14.800781 41.652344 14.90625 41.5625 15.015625 C 41.34375 15.273438 41.109375 15.515625 40.875 15.75 C 40.6875 15.75 40.503906 15.75 40.3125 15.75 C 39.953125 15.382812 39.953125 15.382812 39.550781 14.871094 C 39.402344 14.679688 39.253906 14.492188 39.101562 14.296875 C 38.984375 14.148438 38.984375 14.148438 38.863281 13.992188 C 38.628906 13.691406 38.386719 13.394531 38.144531 13.101562 C 36.574219 11.167969 35.179688 9.203125 35.335938 6.597656 C 35.59375 5.070312 36.445312 4.09375 37.613281 3.125 C 39.371094 1.902344 41.507812 1.890625 43.3125 3 Z M 43.3125 3 "/>
<path style=" stroke:none;fill-rule:nonzero;fill:rgb(0.392157%,0.784314%,1.176471%);fill-opacity:1;" d="M 6.75 29.4375 C 7.914062 29.625 7.914062 29.625 8.292969 30.097656 C 8.492188 30.46875 8.660156 30.84375 8.824219 31.230469 C 8.953125 31.503906 9.078125 31.78125 9.207031 32.054688 C 9.296875 32.25 9.296875 32.25 9.390625 32.453125 C 10.109375 33.960938 11.222656 35.183594 12.375 36.375 C 12.515625 36.515625 12.652344 36.660156 12.796875 36.808594 C 15.8125 39.726562 19.890625 41.089844 24.023438 41.109375 C 24.324219 41.113281 24.324219 41.113281 24.628906 41.121094 C 25.878906 41.125 26.96875 40.976562 28.171875 40.621094 C 28.734375 40.488281 29.234375 40.464844 29.8125 40.5 C 30 40.6875 30 40.6875 30.070312 41.226562 C 30.035156 41.515625 30.035156 41.515625 30 41.8125 C 27.875 43.4375 23.988281 43.144531 21.46875 42.847656 C 16.519531 42.144531 12.039062 39.421875 9.019531 35.449219 C 7.925781 33.960938 6.65625 32.046875 6.375 30.1875 C 6.550781 29.765625 6.550781 29.765625 6.75 29.4375 Z M 6.75 29.4375 "/>
<path style=" stroke:none;fill-rule:nonzero;fill:rgb(93.725491%,36.862746%,40.784314%);fill-opacity:1;" d="M 8.960938 11.738281 C 10.417969 12.253906 11.480469 13.246094 12.28125 14.554688 C 12.847656 15.867188 12.789062 17.324219 12.339844 18.660156 C 11.539062 20.375 10.410156 21.816406 9.1875 23.25 C 9.105469 23.347656 9.019531 23.445312 8.9375 23.546875 C 7.980469 24.667969 7.980469 24.667969 7.5 25.125 C 7.375 25.125 7.253906 25.125 7.125 25.125 C 6.609375 24.570312 6.148438 23.96875 5.679688 23.371094 C 5.441406 23.066406 5.195312 22.761719 4.949219 22.460938 C 3.246094 20.347656 2.058594 18.347656 2.25 15.5625 C 2.476562 14.421875 3.070312 13.515625 3.9375 12.75 C 4.480469 12.394531 5.039062 12.09375 5.625 11.8125 C 6.574219 11.339844 7.957031 11.519531 8.960938 11.738281 Z M 3.644531 14.273438 C 2.816406 15.441406 2.859375 16.800781 3 18.1875 C 3.421875 19.386719 4.425781 20.269531 5.4375 21 C 6.585938 21.382812 8.144531 21.421875 9.296875 21.015625 C 10.441406 20.332031 11.378906 19.261719 11.8125 18 C 11.980469 16.617188 11.949219 15.425781 11.179688 14.238281 C 10.269531 13.152344 9.191406 12.496094 7.785156 12.316406 C 6.015625 12.203125 4.738281 12.886719 3.644531 14.273438 Z M 3.644531 14.273438 "/>
<path style=" stroke:none;fill-rule:nonzero;fill:rgb(93.725491%,36.470589%,40.784314%);fill-opacity:1;" d="M 43.3125 3 C 44.414062 3.808594 45.3125 4.683594 45.75 6 C 46.097656 9.46875 44.164062 11.824219 42.097656 14.363281 C 41.960938 14.527344 41.960938 14.527344 41.824219 14.695312 C 41.738281 14.800781 41.652344 14.90625 41.5625 15.015625 C 41.34375 15.273438 41.109375 15.515625 40.875 15.75 C 40.6875 15.75 40.503906 15.75 40.3125 15.75 C 39.953125 15.382812 39.953125 15.382812 39.550781 14.871094 C 39.402344 14.679688 39.253906 14.492188 39.101562 14.296875 C 38.984375 14.148438 38.984375 14.148438 38.863281 13.992188 C 38.628906 13.691406 38.386719 13.394531 38.144531 13.101562 C 36.574219 11.167969 35.179688 9.203125 35.335938 6.597656 C 35.59375 5.070312 36.445312 4.09375 37.613281 3.125 C 39.371094 1.902344 41.507812 1.890625 43.3125 3 Z M 37.03125 4.726562 C 36.15625 5.769531 36.089844 6.691406 36.121094 8.023438 C 36.214844 8.859375 36.46875 9.4375 36.9375 10.125 C 37.039062 10.292969 37.136719 10.457031 37.242188 10.628906 C 38.179688 11.542969 39.28125 12.050781 40.59375 12.117188 C 41.867188 12.046875 42.964844 11.621094 43.855469 10.691406 C 44.136719 10.324219 44.390625 9.960938 44.625 9.5625 C 44.695312 9.449219 44.765625 9.335938 44.835938 9.21875 C 45.265625 8.15625 45.171875 6.765625 44.851562 5.679688 C 44.300781 4.570312 43.457031 3.941406 42.375 3.375 C 40.332031 2.695312 38.460938 3.175781 37.03125 4.726562 Z M 37.03125 4.726562 "/>
<path style=" stroke:none;fill-rule:nonzero;fill:rgb(94.117647%,36.862746%,41.176471%);fill-opacity:1;" d="M 37.03125 30.480469 C 38.375 31.242188 39.140625 32.148438 39.75 33.5625 C 40.078125 35.832031 39.421875 37.617188 38.132812 39.457031 C 37.355469 40.476562 36.523438 41.449219 35.683594 42.421875 C 35.242188 42.929688 35.242188 42.929688 34.875 43.5 C 34.070312 43.203125 33.597656 42.589844 33.058594 41.953125 C 32.960938 41.835938 32.859375 41.722656 32.761719 41.601562 C 31.78125 40.429688 30.972656 39.179688 30.1875 37.875 C 30.082031 37.710938 29.980469 37.546875 29.871094 37.378906 C 29.25 36.269531 29.296875 34.984375 29.4375 33.75 C 29.949219 32.230469 30.886719 31.1875 32.25 30.375 C 33.769531 29.636719 35.53125 29.777344 37.03125 30.480469 Z M 31.140625 32.3125 C 30.230469 33.648438 30.078125 34.566406 30.1875 36.1875 C 30.558594 37.496094 31.421875 38.605469 32.582031 39.320312 C 33.773438 39.796875 35.257812 39.816406 36.476562 39.398438 C 37.546875 38.773438 38.550781 37.726562 39 36.5625 C 39.15625 35.144531 39.25 33.71875 38.339844 32.542969 C 37.230469 31.371094 36.160156 30.734375 34.535156 30.644531 C 33.113281 30.6875 32.046875 31.207031 31.140625 32.3125 Z M 31.140625 32.3125 "/>
<path style=" stroke:none;fill-rule:nonzero;fill:rgb(90.588236%,91.764706%,92.54902%);fill-opacity:1;" d="M 8.25 13.875 C 9.242188 14.382812 9.957031 15.054688 10.3125 16.125 C 10.464844 17.113281 10.398438 17.816406 9.808594 18.644531 C 9.238281 19.371094 8.660156 19.625 7.753906 19.765625 C 6.820312 19.796875 6.167969 19.789062 5.425781 19.183594 C 4.671875 18.40625 4.484375 17.769531 4.429688 16.699219 C 4.453125 15.800781 4.625 15.300781 5.25 14.625 C 6.21875 13.902344 7.046875 13.65625 8.25 13.875 Z M 8.25 13.875 "/>
<path style=" stroke:none;fill-rule:nonzero;fill:rgb(90.196079%,91.37255%,92.156863%);fill-opacity:1;" d="M 41.625 4.6875 C 42.28125 5.003906 42.28125 5.003906 42.75 5.4375 C 42.894531 5.5625 43.042969 5.683594 43.195312 5.8125 C 43.691406 6.726562 43.695312 7.613281 43.5 8.625 C 43.058594 9.410156 42.492188 9.9375 41.730469 10.40625 C 40.726562 10.601562 40.046875 10.652344 39.140625 10.183594 C 38.355469 9.523438 37.765625 8.917969 37.640625 7.867188 C 37.609375 6.828125 37.734375 6.253906 38.4375 5.4375 C 38.5625 5.292969 38.683594 5.144531 38.8125 4.992188 C 39.71875 4.5 40.621094 4.550781 41.625 4.6875 Z M 41.625 4.6875 "/>
<path style=" stroke:none;fill-rule:nonzero;fill:rgb(90.588236%,91.764706%,92.54902%);fill-opacity:1;" d="M 35.625 32.25 C 36.46875 32.691406 37.15625 33.214844 37.5 34.125 C 37.640625 35.230469 37.585938 36.1875 36.9375 37.125 C 36 37.992188 35.257812 38.121094 34.019531 38.101562 C 33.40625 38.050781 33.085938 37.90625 32.625 37.5 C 31.859375 36.476562 31.511719 35.601562 31.6875 34.3125 C 32.523438 32.703125 33.832031 31.941406 35.625 32.25 Z M 35.625 32.25 "/>
<path style=" stroke:none;fill-rule:nonzero;fill:rgb(0%,1.176471%,0.784314%);fill-opacity:1;" d="M 41.25 19.875 C 41.71875 19.816406 41.71875 19.816406 42.1875 19.875 C 43.136719 20.824219 42.96875 22.875 42.996094 24.140625 C 42.988281 26.226562 42.75 28.875 41.8125 30.75 C 41.449219 31.089844 41.449219 31.089844 41.0625 31.3125 C 40.546875 31.160156 40.546875 31.160156 40.125 30.9375 C 40.203125 29.875 40.398438 28.9375 40.699219 27.914062 C 41.296875 25.746094 41.285156 23.308594 40.941406 21.09375 C 40.875 20.4375 40.875 20.4375 41.25 19.875 Z M 41.25 19.875 "/>
<path style=" stroke:none;fill-rule:nonzero;fill:rgb(0.784314%,85.882354%,58.039218%);fill-opacity:1;" d="M 39.375 19.5 C 39.933594 19.5 40.488281 19.5 41.0625 19.5 C 41.25 20.242188 41.203125 20.476562 41.0625 21.1875 C 41.121094 21.4375 41.1875 21.6875 41.25 21.9375 C 41.472656 24.566406 41.207031 26.949219 40.414062 29.453125 C 40.273438 29.945312 40.195312 30.433594 40.125 30.9375 C 39.410156 30.644531 38.964844 30.179688 38.4375 29.625 C 38.5625 29.625 38.683594 29.625 38.8125 29.625 C 38.941406 29.0625 39.066406 28.5 39.1875 27.9375 C 39.222656 27.785156 39.253906 27.632812 39.289062 27.476562 C 39.5625 26.117188 39.613281 24.808594 39.597656 23.425781 C 39.597656 23.214844 39.597656 23.003906 39.597656 22.785156 C 39.640625 21.765625 39.640625 21.765625 39.375 20.8125 C 39.367188 20.375 39.367188 19.9375 39.375 19.5 Z M 39.375 19.5 "/>
<path style=" stroke:none;fill-rule:nonzero;fill:rgb(39.215687%,92.156863%,72.549021%);fill-opacity:1;" d="M 35.625 12 C 36.011719 12.425781 36.011719 12.425781 36.398438 12.984375 C 36.527344 13.167969 36.65625 13.351562 36.789062 13.539062 C 37.058594 13.957031 37.292969 14.359375 37.5 14.8125 C 35.828125 15.4375 34.199219 15.398438 32.4375 15.375 C 32.371094 14.738281 32.34375 14.136719 32.4375 13.5 C 33.269531 12.546875 34.347656 12 35.625 12 Z M 35.625 12 "/>
<path style=" stroke:none;fill-rule:nonzero;fill:rgb(56.862748%,52.941179%,56.862748%);fill-opacity:1;" d="M 5.8125 25.6875 C 6.230469 26 6.519531 26.316406 6.835938 26.730469 C 6.933594 26.820312 7.027344 26.90625 7.125 27 C 7.597656 26.976562 7.800781 26.890625 8.128906 26.546875 C 8.246094 26.394531 8.246094 26.394531 8.367188 26.238281 C 8.726562 25.859375 8.921875 25.703125 9.4375 25.59375 C 10.527344 25.566406 11.382812 25.808594 12.375 26.25 C 12.375 26.375 12.375 26.496094 12.375 26.625 C 12.078125 26.714844 11.78125 26.804688 11.484375 26.894531 C 11.320312 26.945312 11.15625 26.996094 10.984375 27.046875 C 10.824219 27.09375 10.664062 27.140625 10.5 27.1875 C 10.386719 27.222656 10.277344 27.253906 10.160156 27.285156 C 9.257812 27.480469 8.3125 27.417969 7.394531 27.421875 C 7.078125 27.425781 7.078125 27.425781 6.75 27.433594 C 5.25 27.441406 3.800781 27.304688 2.4375 26.625 C 2.5 26.4375 2.5625 26.253906 2.625 26.0625 C 3.597656 25.578125 4.753906 25.476562 5.8125 25.6875 Z M 5.8125 25.6875 "/>
<path style=" stroke:none;fill-rule:nonzero;fill:rgb(57.254905%,53.333336%,57.254905%);fill-opacity:1;" d="M 37.773438 43.957031 C 38.425781 44.101562 38.964844 44.328125 39.5625 44.625 C 38.804688 45.558594 37.507812 45.621094 36.375 45.75 C 34.300781 45.898438 31.960938 45.996094 30 45.1875 C 29.875 45 29.753906 44.816406 29.625 44.625 C 30.789062 44.097656 31.90625 43.804688 33.1875 44.0625 C 33.589844 44.394531 33.816406 44.757812 34.125 45.1875 C 34.722656 45.367188 34.722656 45.367188 35.25 45.375 C 35.296875 45.269531 35.34375 45.160156 35.390625 45.046875 C 36.027344 43.898438 36.511719 43.777344 37.773438 43.957031 Z M 37.773438 43.957031 "/>
<path style=" stroke:none;fill-rule:nonzero;fill:rgb(58.823532%,54.509807%,58.823532%);fill-opacity:1;" d="M 39 16.3125 C 39.355469 16.621094 39.605469 16.949219 39.882812 17.328125 C 40.117188 17.667969 40.117188 17.667969 40.59375 17.789062 C 41.152344 17.59375 41.207031 17.433594 41.53125 16.957031 C 41.8125 16.59375 41.8125 16.59375 42.1875 16.3125 C 43.371094 16.191406 44.476562 16.394531 45.5625 16.875 C 45.5625 17 45.5625 17.121094 45.5625 17.25 C 45.296875 17.339844 45.03125 17.429688 44.765625 17.519531 C 44.617188 17.570312 44.46875 17.621094 44.316406 17.671875 C 43.101562 18.058594 41.957031 18.042969 40.6875 18.046875 C 40.359375 18.050781 40.359375 18.050781 40.023438 18.058594 C 38.589844 18.066406 37.148438 18 35.8125 17.4375 C 35.75 17.25 35.6875 17.066406 35.625 16.875 C 36.71875 16.390625 37.800781 16.019531 39 16.3125 Z M 39 16.3125 "/>
<path style=" stroke:none;fill-rule:nonzero;fill:rgb(61.56863%,57.254905%,61.56863%);fill-opacity:1;" d="M 33.1875 44.0625 C 33.664062 44.398438 33.824219 44.667969 34.125 45.1875 C 34.125 45.3125 34.125 45.433594 34.125 45.5625 C 32.558594 45.621094 31.269531 45.605469 29.8125 45 C 29.8125 44.8125 29.8125 44.628906 29.8125 44.4375 C 30.914062 44.046875 32.023438 43.851562 33.1875 44.0625 Z M 33.1875 44.0625 "/>
<path style=" stroke:none;fill-rule:nonzero;fill:rgb(61.960787%,57.647061%,61.960787%);fill-opacity:1;" d="M 10.875 25.6875 C 11.40625 25.835938 11.867188 26.023438 12.375 26.25 C 12.375 26.375 12.375 26.496094 12.375 26.625 C 11.007812 27.308594 9.371094 27.210938 7.875 27.1875 C 8.585938 25.726562 9.28125 25.480469 10.875 25.6875 Z M 10.875 25.6875 "/>
<path style=" stroke:none;fill-rule:nonzero;fill:rgb(62.352943%,58.039218%,62.352943%);fill-opacity:1;" d="M 43.382812 16.347656 C 43.59375 16.367188 43.804688 16.382812 44.019531 16.402344 C 44.585938 16.492188 45.042969 16.636719 45.5625 16.875 C 45.5625 17 45.5625 17.121094 45.5625 17.25 C 44.105469 17.851562 42.816406 17.871094 41.25 17.8125 C 41.695312 16.539062 42.007812 16.214844 43.382812 16.347656 Z M 43.382812 16.347656 "/>
<path style=" stroke:none;fill-rule:nonzero;fill:rgb(48.235294%,70.19608%,88.627452%);fill-opacity:1;" d="M 11.0625 23.0625 C 11.753906 23.1875 12.253906 23.484375 12.84375 23.859375 C 13.019531 23.96875 13.195312 24.078125 13.375 24.191406 C 14.003906 24.660156 14.460938 25.171875 14.8125 25.875 C 14.835938 26.375 14.820312 26.871094 14.8125 27.375 C 14.75 27.375 14.6875 27.375 14.625 27.375 C 14.625 26.941406 14.625 26.507812 14.625 26.0625 C 14.5 26.0625 14.378906 26.0625 14.25 26.0625 C 14.1875 26.308594 14.125 26.558594 14.0625 26.8125 C 14.03125 26.613281 14 26.410156 13.96875 26.203125 C 13.839844 25.761719 13.753906 25.550781 13.386719 25.265625 C 12.46875 24.796875 11.484375 24.488281 10.5 24.1875 C 10.6875 23.8125 10.875 23.4375 11.0625 23.0625 Z M 11.0625 23.0625 "/>
<path style=" stroke:none;fill-rule:nonzero;fill:rgb(35.686275%,61.56863%,83.137256%);fill-opacity:1;" d="M 29.4375 39.5625 C 29.8125 39.9375 29.8125 39.9375 29.8125 40.5 C 26.886719 41.339844 23.636719 41.703125 20.625 41.0625 C 20.625 41 20.625 40.9375 20.625 40.875 C 20.785156 40.875 20.945312 40.878906 21.109375 40.878906 C 21.703125 40.886719 22.300781 40.890625 22.898438 40.894531 C 23.15625 40.898438 23.410156 40.898438 23.667969 40.902344 C 24.039062 40.910156 24.410156 40.910156 24.78125 40.914062 C 25.117188 40.914062 25.117188 40.914062 25.457031 40.917969 C 26.058594 40.875 26.457031 40.753906 27 40.5 C 27.421875 40.359375 27.851562 40.21875 28.277344 40.082031 C 28.683594 39.9375 29.058594 39.761719 29.4375 39.5625 Z M 29.4375 39.5625 "/>
<path style=" stroke:none;fill-rule:nonzero;fill:rgb(36.078432%,67.843139%,93.725491%);fill-opacity:1;" d="M 33.773438 8.90625 C 34.265625 9.300781 34.449219 9.738281 34.6875 10.3125 C 34.6875 10.4375 34.6875 10.558594 34.6875 10.6875 C 34.371094 10.839844 34.371094 10.839844 33.9375 10.875 C 33.367188 10.398438 33.046875 10.082031 32.8125 9.375 C 32.691406 9.3125 32.566406 9.25 32.4375 9.1875 C 33.246094 8.78125 33.246094 8.78125 33.773438 8.90625 Z M 33.773438 8.90625 "/>
<path style=" stroke:none;fill-rule:nonzero;fill:rgb(47.450981%,69.411767%,87.450981%);fill-opacity:1;" d="M 32.0625 16.875 C 32.679688 16.875 33.300781 16.875 33.9375 16.875 C 34 17.183594 34.0625 17.492188 34.125 17.8125 C 32.730469 17.867188 32.730469 17.867188 32.0625 17.4375 C 32.0625 17.25 32.0625 17.066406 32.0625 16.875 Z M 32.0625 16.875 "/>
<path style=" stroke:none;fill-rule:nonzero;fill:rgb(85.09804%,33.333334%,36.862746%);fill-opacity:1;" d="M 31.6875 30.75 C 31.8125 30.8125 31.933594 30.875 32.0625 30.9375 C 31.503906 31.496094 30.949219 32.050781 30.375 32.625 C 30.375 32.0625 30.375 32.0625 30.820312 31.582031 C 30.984375 31.429688 31.144531 31.28125 31.3125 31.125 C 31.4375 31 31.558594 30.878906 31.6875 30.75 Z M 31.6875 30.75 "/>
<path style=" stroke:none;fill-rule:nonzero;fill:rgb(76.078433%,76.862746%,77.64706%);fill-opacity:1;" d="M 6 14.0625 C 6.125 14.125 6.246094 14.1875 6.375 14.25 C 5.878906 14.746094 5.386719 15.238281 4.875 15.75 C 4.875 15.1875 4.875 15.1875 5.332031 14.695312 C 5.488281 14.546875 5.648438 14.402344 5.8125 14.25 C 5.875 14.1875 5.9375 14.125 6 14.0625 Z M 6 14.0625 "/>
</g>
</svg>
