<?xml version="1.0" encoding="UTF-8"?>
<svg xmlns="http://www.w3.org/2000/svg" xmlns:xlink="http://www.w3.org/1999/xlink" width="48" height="48" viewBox="0 0 48 48" version="1.1">
<g id="surface1">
<path style=" stroke:none;fill-rule:nonzero;fill:rgb(1.568628%,1.568628%,1.568628%);fill-opacity:1;" d="M 33.9375 0 C 35.546875 0 37.15625 0 38.8125 0 C 38.875 0.679688 38.9375 1.359375 39 2.0625 C 39.785156 1.816406 39.785156 1.816406 40.523438 1.464844 C 40.875 1.3125 40.875 1.3125 41.203125 1.332031 C 41.835938 1.585938 42.242188 2.058594 42.703125 2.542969 C 42.796875 2.640625 42.890625 2.738281 42.992188 2.839844 C 43.222656 3.078125 43.457031 3.320312 43.6875 3.5625 C 43.222656 4.769531 43.222656 4.769531 42.75 6 C 43.492188 6.0625 44.234375 6.125 45 6.1875 C 45 7.734375 45 9.28125 45 10.875 C 44.320312 10.9375 43.640625 11 42.9375 11.0625 C 43.070312 11.96875 43.070312 11.96875 43.441406 12.574219 C 43.6875 13.125 43.6875 13.125 43.558594 13.5 C 43.292969 13.90625 43.015625 14.15625 42.644531 14.464844 C 41.972656 15.121094 41.84375 15.582031 41.820312 16.503906 C 41.824219 16.671875 41.828125 16.835938 41.828125 17.007812 C 41.828125 17.183594 41.824219 17.359375 41.824219 17.542969 C 41.816406 18.128906 41.820312 18.710938 41.824219 19.296875 C 41.824219 19.703125 41.824219 20.109375 41.820312 20.519531 C 41.820312 21.371094 41.820312 22.222656 41.828125 23.074219 C 41.835938 24.167969 41.832031 25.257812 41.824219 26.351562 C 41.820312 27.191406 41.820312 28.03125 41.824219 28.875 C 41.824219 29.277344 41.824219 29.675781 41.820312 30.082031 C 41.816406 30.644531 41.824219 31.207031 41.828125 31.769531 C 41.828125 31.933594 41.824219 32.101562 41.820312 32.269531 C 41.839844 32.941406 41.851562 33.382812 42.289062 33.90625 C 42.636719 34.210938 42.636719 34.210938 42.996094 34.460938 C 43.414062 34.761719 43.660156 35.109375 43.933594 35.542969 C 44.019531 35.679688 44.109375 35.8125 44.203125 35.953125 C 44.621094 36.699219 44.8125 37.199219 44.8125 38.0625 C 44.9375 38.070312 45.058594 38.078125 45.1875 38.085938 C 46.25 38.394531 47.144531 39.082031 47.71875 40.03125 C 48.234375 41.234375 48.214844 42.71875 47.867188 43.96875 C 47.324219 45.175781 46.382812 45.882812 45.171875 46.386719 C 44.578125 46.574219 44.007812 46.5625 43.382812 46.554688 C 43.113281 46.558594 42.84375 46.558594 42.570312 46.5625 C 42.148438 46.558594 41.730469 46.558594 41.308594 46.550781 C 39.183594 46.496094 39.183594 46.496094 37.398438 47.550781 C 36.84375 48.082031 36.21875 48.023438 35.492188 48.027344 C 35.269531 48.027344 35.050781 48.03125 34.820312 48.03125 C 34.574219 48.03125 34.332031 48.03125 34.078125 48.035156 C 33.816406 48.035156 33.558594 48.035156 33.296875 48.039062 C 32.445312 48.042969 31.589844 48.042969 30.738281 48.046875 C 30.441406 48.046875 30.148438 48.046875 29.855469 48.046875 C 28.46875 48.050781 27.089844 48.050781 25.703125 48.054688 C 24.109375 48.054688 22.515625 48.0625 20.917969 48.070312 C 19.6875 48.074219 18.453125 48.078125 17.21875 48.078125 C 16.484375 48.078125 15.746094 48.082031 15.007812 48.085938 C 14.316406 48.089844 13.625 48.089844 12.929688 48.089844 C 12.554688 48.089844 12.183594 48.09375 11.808594 48.09375 C 10.46875 48.089844 9.570312 47.988281 8.4375 47.25 C 8.34375 47.152344 8.246094 47.050781 8.148438 46.949219 C 7.738281 46.558594 7.40625 46.617188 6.851562 46.617188 C 6.550781 46.613281 6.550781 46.613281 6.242188 46.609375 C 5.820312 46.605469 5.394531 46.605469 4.972656 46.605469 C 3.53125 46.582031 2.242188 46.441406 1.148438 45.421875 C 0.0429688 44.226562 -0.0859375 43.121094 -0.0546875 41.523438 C 0.0390625 40.453125 0.324219 39.78125 1.101562 39.042969 C 1.757812 38.515625 2.324219 38.117188 3.1875 38.0625 C 3.203125 37.910156 3.21875 37.753906 3.234375 37.59375 C 3.53125 36.210938 4.25 35.113281 5.25 34.125 C 5.378906 34.050781 5.503906 33.976562 5.636719 33.898438 C 6.050781 33.582031 6.050781 33.582031 6.09375 33.035156 C 6.09375 32.816406 6.09375 32.601562 6.09375 32.375 C 6.09375 32.195312 6.09375 32.195312 6.09375 32.011719 C 6.09375 31.605469 6.09375 31.199219 6.089844 30.792969 C 6.089844 30.503906 6.089844 30.214844 6.089844 29.921875 C 6.089844 29.296875 6.089844 28.671875 6.085938 28.042969 C 6.082031 27.054688 6.082031 26.066406 6.085938 25.078125 C 6.089844 22.617188 6.085938 20.160156 6.082031 17.703125 C 6.078125 15.792969 6.074219 13.882812 6.078125 11.972656 C 6.082031 10.988281 6.078125 10.003906 6.074219 9.023438 C 6.070312 8.410156 6.074219 7.796875 6.074219 7.183594 C 6.074219 6.902344 6.074219 6.617188 6.070312 6.332031 C 6.066406 5.945312 6.070312 5.558594 6.074219 5.171875 C 6.074219 4.953125 6.070312 4.738281 6.070312 4.511719 C 6.226562 3.75 6.511719 3.46875 7.125 3 C 7.589844 2.886719 7.589844 2.886719 8.089844 2.890625 C 8.277344 2.890625 8.46875 2.890625 8.664062 2.886719 C 8.871094 2.890625 9.078125 2.898438 9.289062 2.902344 C 9.617188 2.902344 9.617188 2.902344 9.953125 2.902344 C 10.429688 2.902344 10.90625 2.90625 11.378906 2.910156 C 12.132812 2.917969 12.886719 2.921875 13.640625 2.921875 C 15.644531 2.921875 17.648438 2.933594 19.652344 2.953125 C 20.96875 2.960938 22.289062 2.96875 23.605469 2.964844 C 24.230469 2.964844 24.855469 2.96875 25.480469 2.976562 C 26.179688 2.988281 26.875 2.988281 27.574219 2.984375 C 27.78125 2.992188 27.984375 2.996094 28.195312 3 C 29.308594 2.992188 29.308594 2.992188 30.25 2.460938 C 30.648438 2.050781 30.648438 2.050781 30.972656 1.617188 C 31.082031 1.515625 31.195312 1.414062 31.3125 1.3125 C 32.09375 1.359375 32.6875 1.710938 33.375 2.0625 C 33.5 2.0625 33.621094 2.0625 33.75 2.0625 C 33.8125 1.382812 33.875 0.703125 33.9375 0 Z M 34.6875 6.9375 C 34.253906 7.574219 34.125 7.945312 34.125 8.71875 C 34.359375 9.539062 34.65625 9.890625 35.25 10.5 C 35.851562 10.800781 36.472656 10.753906 37.125 10.6875 C 37.777344 10.425781 38.015625 10.195312 38.414062 9.621094 C 38.675781 8.851562 38.707031 8.273438 38.4375 7.5 C 37.996094 6.949219 37.996094 6.949219 37.5 6.5625 C 37.4375 6.5 37.375 6.4375 37.3125 6.375 C 36.324219 6.269531 35.464844 6.25 34.6875 6.9375 Z M 34.6875 6.9375 "/>
<path style=" stroke:none;fill-rule:nonzero;fill:rgb(87.843138%,89.019608%,90.588236%);fill-opacity:1;" d="M 25.21875 34.136719 C 25.597656 34.4375 25.886719 34.699219 26.179688 35.089844 C 26.871094 35.628906 27.558594 35.523438 28.40625 35.519531 C 30.304688 35.5625 31.902344 35.847656 33.363281 37.160156 C 34.191406 38.089844 34.828125 39.179688 34.933594 40.429688 C 34.914062 40.578125 34.894531 40.722656 34.875 40.875 C 35.007812 40.894531 35.136719 40.914062 35.273438 40.933594 C 36.457031 41.214844 37.21875 41.710938 37.875 42.75 C 38.074219 43.796875 37.914062 44.671875 37.3125 45.5625 C 36.488281 46.324219 35.898438 46.523438 34.789062 46.527344 C 34.578125 46.527344 34.367188 46.53125 34.148438 46.53125 C 33.914062 46.53125 33.683594 46.53125 33.441406 46.53125 C 33.195312 46.535156 32.953125 46.535156 32.699219 46.535156 C 31.886719 46.542969 31.074219 46.542969 30.261719 46.546875 C 29.980469 46.546875 29.699219 46.546875 29.417969 46.546875 C 28.105469 46.550781 26.789062 46.554688 25.472656 46.554688 C 23.953125 46.558594 22.433594 46.5625 20.914062 46.570312 C 19.742188 46.574219 18.566406 46.578125 17.390625 46.578125 C 16.691406 46.578125 15.988281 46.582031 15.289062 46.585938 C 14.507812 46.589844 13.726562 46.589844 12.941406 46.589844 C 12.710938 46.589844 12.476562 46.59375 12.238281 46.597656 C 11.039062 46.589844 10.28125 46.566406 9.375 45.75 C 9.230469 45.621094 9.082031 45.496094 8.929688 45.363281 C 8.457031 44.511719 8.484375 43.699219 8.625 42.75 C 9.03125 41.910156 9.460938 41.449219 10.3125 41.0625 C 10.6875 40.996094 11.0625 40.933594 11.4375 40.875 C 11.476562 40.683594 11.515625 40.496094 11.554688 40.296875 C 12.109375 37.753906 13.066406 35.558594 15.246094 34.003906 C 18.355469 32.011719 22.191406 31.960938 25.21875 34.136719 Z M 25.21875 34.136719 "/>
<path style=" stroke:none;fill-rule:nonzero;fill:rgb(90.980393%,78.823531%,68.235296%);fill-opacity:1;" d="M 7.6875 9.1875 C 14.371094 9.1875 21.050781 9.1875 27.9375 9.1875 C 27.9375 9.746094 27.9375 10.300781 27.9375 10.875 C 28.617188 10.875 29.296875 10.875 30 10.875 C 30.1875 11.625 30.1875 11.625 30.011719 12.046875 C 29.945312 12.15625 29.878906 12.265625 29.8125 12.375 C 29.578125 12.375 29.34375 12.378906 29.101562 12.382812 C 28.789062 12.390625 28.480469 12.402344 28.171875 12.410156 C 27.9375 12.414062 27.9375 12.414062 27.703125 12.414062 C 27.554688 12.417969 27.402344 12.421875 27.25 12.429688 C 27.109375 12.433594 26.972656 12.433594 26.832031 12.4375 C 26.21875 12.628906 26.019531 12.964844 25.6875 13.5 C 25.570312 14.078125 25.570312 14.078125 25.574219 14.699219 C 25.566406 14.925781 25.5625 15.148438 25.554688 15.382812 C 25.550781 15.613281 25.546875 15.847656 25.546875 16.089844 C 25.539062 16.445312 25.539062 16.445312 25.53125 16.808594 C 25.515625 17.390625 25.507812 17.976562 25.5 18.5625 C 25.179688 18.570312 25.179688 18.570312 24.851562 18.578125 C 20.964844 18.703125 17.539062 19.863281 14.785156 22.734375 C 12.878906 24.960938 12.007812 27.46875 11.789062 30.363281 C 11.773438 30.5625 11.757812 30.761719 11.738281 30.96875 C 11.699219 31.457031 11.664062 31.949219 11.625 32.4375 C 11.144531 32.5 10.664062 32.5625 10.183594 32.625 C 10.046875 32.644531 9.914062 32.660156 9.773438 32.679688 C 9.640625 32.695312 9.511719 32.714844 9.375 32.730469 C 9.25 32.746094 9.132812 32.761719 9.007812 32.777344 C 8.570312 32.816406 8.128906 32.8125 7.6875 32.8125 C 7.6875 25.015625 7.6875 17.21875 7.6875 9.1875 Z M 7.6875 9.1875 "/>
<path style=" stroke:none;fill-rule:nonzero;fill:rgb(95.686275%,81.960785%,42.352942%);fill-opacity:1;" d="M 35.625 1.5 C 36.121094 1.5 36.613281 1.5 37.125 1.5 C 37.160156 1.632812 37.191406 1.765625 37.226562 1.902344 C 37.273438 2.074219 37.320312 2.25 37.371094 2.425781 C 37.417969 2.597656 37.460938 2.769531 37.507812 2.945312 C 37.566406 3.089844 37.628906 3.230469 37.6875 3.375 C 38.640625 3.695312 39.699219 3.660156 40.675781 3.433594 C 40.804688 3.414062 40.929688 3.394531 41.0625 3.375 C 41.402344 3.644531 41.402344 3.644531 41.625 3.9375 C 41.5625 4.097656 41.5 4.253906 41.4375 4.417969 C 41.183594 5.289062 41.195312 6.011719 41.332031 6.902344 C 41.695312 7.410156 41.894531 7.421875 42.492188 7.558594 C 42.898438 7.621094 42.898438 7.621094 43.3125 7.6875 C 43.3125 8.246094 43.3125 8.800781 43.3125 9.375 C 43.113281 9.421875 42.910156 9.46875 42.703125 9.515625 C 41.976562 9.757812 41.667969 9.867188 41.25 10.5 C 41.15625 11.484375 41.253906 12.195312 41.625 13.125 C 41.402344 13.417969 41.402344 13.417969 41.0625 13.6875 C 40.5625 13.640625 40.199219 13.539062 39.75 13.3125 C 39.140625 13.257812 38.699219 13.285156 38.121094 13.488281 C 37.480469 14.0625 37.335938 14.746094 37.125 15.5625 C 36.628906 15.5625 36.136719 15.5625 35.625 15.5625 C 35.59375 15.449219 35.566406 15.332031 35.535156 15.214844 C 35.261719 14.246094 35.261719 14.246094 34.628906 13.488281 C 34.039062 13.28125 33.617188 13.246094 33 13.3125 C 32.804688 13.410156 32.804688 13.410156 32.601562 13.511719 C 32.25 13.6875 32.25 13.6875 31.851562 13.664062 C 31.5 13.5 31.5 13.5 31.242188 13.160156 C 31.085938 12.617188 31.253906 12.496094 31.5 12 C 31.628906 10.890625 31.628906 10.890625 31.101562 9.949219 C 30.519531 9.53125 30.144531 9.421875 29.4375 9.375 C 29.4375 8.816406 29.4375 8.261719 29.4375 7.6875 C 29.554688 7.65625 29.671875 7.625 29.792969 7.589844 C 29.949219 7.546875 30.097656 7.5 30.257812 7.453125 C 30.410156 7.410156 30.5625 7.367188 30.71875 7.320312 C 31.144531 7.15625 31.144531 7.15625 31.363281 6.777344 C 31.648438 5.9375 31.585938 5.132812 31.3125 4.3125 C 31.25 4.1875 31.1875 4.066406 31.125 3.9375 C 31.347656 3.644531 31.347656 3.644531 31.6875 3.375 C 32.074219 3.433594 32.074219 3.433594 32.625 3.5625 C 33.851562 3.6875 33.851562 3.6875 34.96875 3.269531 C 35.320312 2.699219 35.476562 2.148438 35.625 1.5 Z M 34.6875 6.9375 C 34.253906 7.574219 34.125 7.945312 34.125 8.71875 C 34.359375 9.539062 34.65625 9.890625 35.25 10.5 C 35.851562 10.800781 36.472656 10.753906 37.125 10.6875 C 37.777344 10.425781 38.015625 10.195312 38.414062 9.621094 C 38.675781 8.851562 38.707031 8.273438 38.4375 7.5 C 37.996094 6.949219 37.996094 6.949219 37.5 6.5625 C 37.4375 6.5 37.375 6.4375 37.3125 6.375 C 36.324219 6.269531 35.464844 6.25 34.6875 6.9375 Z M 34.6875 6.9375 "/>
<path style=" stroke:none;fill-rule:nonzero;fill:rgb(78.823531%,80.784315%,83.92157%);fill-opacity:1;" d="M 36 34.125 C 38.179688 34.027344 39.890625 34.054688 41.683594 35.460938 C 42.539062 36.269531 43.207031 37.292969 43.367188 38.476562 C 43.371094 38.835938 43.371094 38.835938 43.3125 39.375 C 43.421875 39.390625 43.53125 39.40625 43.640625 39.421875 C 44.734375 39.621094 45.355469 39.878906 46.125 40.6875 C 46.582031 41.40625 46.542969 42.078125 46.425781 42.894531 C 46.210938 43.6875 45.734375 44.203125 45.046875 44.652344 C 44.484375 44.867188 44.003906 44.855469 43.402344 44.851562 C 43.050781 44.847656 43.050781 44.847656 42.695312 44.847656 C 42.328125 44.839844 42.328125 44.839844 41.953125 44.835938 C 41.707031 44.835938 41.460938 44.832031 41.203125 44.832031 C 40.59375 44.824219 39.984375 44.820312 39.375 44.8125 C 39.367188 44.644531 39.359375 44.480469 39.347656 44.308594 C 39.328125 43.980469 39.328125 43.980469 39.308594 43.648438 C 39.292969 43.429688 39.28125 43.214844 39.269531 42.992188 C 39.121094 41.878906 38.589844 41.195312 37.792969 40.441406 C 37.316406 40.101562 37.316406 40.101562 36.738281 39.914062 C 36 39.445312 35.871094 38.941406 35.597656 38.132812 C 35.441406 37.648438 35.441406 37.648438 35.0625 37.125 C 35.109375 36.007812 35.519531 35.113281 36 34.125 Z M 36 34.125 "/>
<path style=" stroke:none;fill-rule:nonzero;fill:rgb(97.647059%,49.803922%,41.960785%);fill-opacity:1;" d="M 27 13.875 C 29.710938 13.695312 29.710938 13.695312 30.53125 14.207031 C 30.894531 14.578125 31.210938 14.945312 31.5 15.375 C 31.660156 15.316406 31.816406 15.257812 31.980469 15.199219 C 32.636719 14.996094 33.253906 14.878906 33.9375 14.8125 C 34.125 15 34.125 15 34.144531 15.46875 C 34.136719 16 34.128906 16.53125 34.125 17.0625 C 35.113281 17.0625 36.105469 17.0625 37.125 17.0625 C 37.125 20.652344 37.125 24.238281 37.125 27.9375 C 36.753906 27.9375 36.382812 27.9375 36 27.9375 C 35.9375 27.769531 35.9375 27.769531 35.875 27.601562 C 34.578125 24.210938 32.671875 21.457031 29.285156 19.898438 C 28.960938 19.761719 28.636719 19.632812 28.3125 19.5 C 27.878906 19.3125 27.445312 19.128906 27 18.9375 C 27 17.265625 27 15.597656 27 13.875 Z M 27 13.875 "/>
<path style=" stroke:none;fill-rule:nonzero;fill:rgb(3.529412%,2.352941%,1.960784%);fill-opacity:1;" d="M 11.382812 10.773438 C 11.507812 10.773438 11.632812 10.769531 11.761719 10.769531 C 12.171875 10.765625 12.585938 10.765625 12.996094 10.769531 C 13.28125 10.765625 13.570312 10.765625 13.855469 10.765625 C 14.457031 10.765625 15.054688 10.765625 15.65625 10.765625 C 16.425781 10.769531 17.195312 10.765625 17.964844 10.761719 C 18.554688 10.753906 19.148438 10.757812 19.738281 10.757812 C 20.023438 10.757812 20.304688 10.757812 20.589844 10.753906 C 20.988281 10.75 21.382812 10.753906 21.78125 10.757812 C 22.117188 10.757812 22.117188 10.757812 22.464844 10.757812 C 23.238281 10.910156 23.515625 11.203125 24 11.8125 C 24.113281 12.40625 24.113281 12.40625 24.09375 13.03125 C 24.089844 13.238281 24.089844 13.445312 24.085938 13.660156 C 23.992188 14.304688 23.828125 14.664062 23.4375 15.1875 C 22.769531 15.632812 22.480469 15.609375 21.691406 15.613281 C 21.320312 15.617188 21.320312 15.617188 20.949219 15.621094 C 20.679688 15.621094 20.414062 15.621094 20.148438 15.617188 C 19.871094 15.621094 19.597656 15.621094 19.324219 15.621094 C 18.746094 15.621094 18.171875 15.621094 17.597656 15.621094 C 16.859375 15.621094 16.125 15.625 15.386719 15.628906 C 14.820312 15.632812 14.253906 15.632812 13.6875 15.632812 C 13.417969 15.632812 13.144531 15.632812 12.875 15.632812 C 12.492188 15.636719 12.113281 15.636719 11.734375 15.632812 C 11.519531 15.632812 11.300781 15.632812 11.078125 15.632812 C 10.433594 15.554688 10.078125 15.386719 9.5625 15 C 9.269531 14.414062 9.324219 13.792969 9.316406 13.148438 C 9.3125 13.015625 9.304688 12.878906 9.300781 12.738281 C 9.292969 12.121094 9.304688 11.71875 9.675781 11.210938 C 10.269531 10.765625 10.640625 10.777344 11.382812 10.773438 Z M 11.382812 10.773438 "/>
<path style=" stroke:none;fill-rule:nonzero;fill:rgb(78.823531%,80.784315%,83.92157%);fill-opacity:1;" d="M 10.394531 34.089844 C 10.628906 34.09375 10.628906 34.09375 10.863281 34.097656 C 11.242188 34.105469 11.621094 34.113281 12 34.125 C 12.171875 34.585938 12.234375 34.925781 12.070312 35.398438 C 11.878906 35.777344 11.679688 36.152344 11.472656 36.527344 C 11.046875 37.304688 10.679688 38.003906 10.5 38.878906 C 10.3125 39.5625 10.3125 39.5625 9.945312 39.867188 C 9.804688 39.925781 9.660156 39.984375 9.515625 40.042969 C 8.46875 40.542969 7.789062 41.203125 7.289062 42.253906 C 7.113281 42.792969 7.050781 43.273438 7.007812 43.839844 C 6.992188 44.023438 6.980469 44.207031 6.964844 44.394531 C 6.957031 44.53125 6.945312 44.671875 6.9375 44.8125 C 6.339844 44.84375 5.742188 44.867188 5.144531 44.882812 C 4.976562 44.890625 4.808594 44.902344 4.636719 44.910156 C 3.714844 44.929688 3.144531 44.878906 2.425781 44.273438 C 1.734375 43.601562 1.535156 43.0625 1.429688 42.105469 C 1.535156 41.105469 1.984375 40.582031 2.671875 39.878906 C 3.363281 39.457031 3.882812 39.429688 4.6875 39.375 C 4.667969 39.199219 4.648438 39.019531 4.628906 38.835938 C 4.636719 37.640625 5.230469 36.625 6.015625 35.753906 C 7.40625 34.460938 8.523438 34.03125 10.394531 34.089844 Z M 10.394531 34.089844 "/>
<path style=" stroke:none;fill-rule:nonzero;fill:rgb(69.803923%,85.882354%,49.411765%);fill-opacity:1;" d="M 7.6875 4.6875 C 14.988281 4.6875 22.289062 4.6875 29.8125 4.6875 C 30.1875 5.4375 30.1875 5.4375 30 6.1875 C 29.320312 6.1875 28.640625 6.1875 27.9375 6.1875 C 27.9375 6.683594 27.9375 7.175781 27.9375 7.6875 C 24.347656 7.6875 20.761719 7.6875 17.0625 7.6875 C 17.0625 7.191406 17.0625 6.699219 17.0625 6.1875 C 16.503906 6.1875 15.949219 6.1875 15.375 6.1875 C 15.375 6.683594 15.375 7.175781 15.375 7.6875 C 14.878906 7.6875 14.386719 7.6875 13.875 7.6875 C 13.875 7.191406 13.875 6.699219 13.875 6.1875 C 13.378906 6.1875 12.886719 6.1875 12.375 6.1875 C 12.375 6.683594 12.375 7.175781 12.375 7.6875 C 11.878906 7.6875 11.386719 7.6875 10.875 7.6875 C 10.875 7.191406 10.875 6.699219 10.875 6.1875 C 10.316406 6.1875 9.761719 6.1875 9.1875 6.1875 C 9.1875 6.683594 9.1875 7.175781 9.1875 7.6875 C 8.691406 7.6875 8.199219 7.6875 7.6875 7.6875 C 7.6875 6.699219 7.6875 5.707031 7.6875 4.6875 Z M 7.6875 4.6875 "/>
<path style=" stroke:none;fill-rule:nonzero;fill:rgb(40.392157%,82.352942%,94.117647%);fill-opacity:1;" d="M 19.6875 27.9375 C 22.535156 27.9375 25.378906 27.9375 28.3125 27.9375 C 28.734375 29.417969 28.734375 29.417969 28.738281 30.0625 C 28.738281 30.277344 28.738281 30.277344 28.738281 30.492188 C 28.738281 30.636719 28.734375 30.777344 28.734375 30.925781 C 28.734375 31.140625 28.734375 31.140625 28.738281 31.359375 C 28.734375 32.339844 28.582031 33.183594 28.3125 34.125 C 27.472656 34.195312 27.472656 34.195312 27.035156 33.878906 C 26.925781 33.765625 26.816406 33.65625 26.707031 33.539062 C 24.730469 31.707031 22.125 31.105469 19.5 30.9375 C 19.496094 30.542969 19.492188 30.148438 19.488281 29.753906 C 19.488281 29.535156 19.484375 29.3125 19.480469 29.089844 C 19.5 28.5 19.5 28.5 19.6875 27.9375 Z M 19.6875 27.9375 "/>
<path style=" stroke:none;fill-rule:nonzero;fill:rgb(88.235295%,76.47059%,66.274512%);fill-opacity:1;" d="M 38.8125 14.8125 C 40.074219 14.949219 40.074219 14.949219 40.3125 15.1875 C 40.332031 15.734375 40.335938 16.277344 40.332031 16.828125 C 40.332031 17 40.332031 17.171875 40.332031 17.347656 C 40.332031 17.917969 40.332031 18.488281 40.332031 19.0625 C 40.332031 19.457031 40.328125 19.851562 40.328125 20.246094 C 40.328125 21.285156 40.328125 22.328125 40.324219 23.371094 C 40.324219 24.433594 40.320312 25.496094 40.320312 26.554688 C 40.320312 28.640625 40.316406 30.726562 40.3125 32.8125 C 40.199219 32.800781 40.082031 32.785156 39.964844 32.773438 C 39.742188 32.75 39.742188 32.75 39.511719 32.722656 C 39.285156 32.699219 39.285156 32.699219 39.058594 32.671875 C 38.503906 32.613281 37.949219 32.566406 37.394531 32.519531 C 37.058594 32.492188 36.722656 32.464844 36.375 32.4375 C 36.375 31.449219 36.375 30.457031 36.375 29.4375 C 36.78125 29.363281 36.78125 29.363281 37.195312 29.285156 C 37.652344 29.210938 37.652344 29.210938 38.0625 29.0625 C 38.523438 28.371094 38.488281 28.023438 38.492188 27.199219 C 38.496094 27.066406 38.496094 26.9375 38.5 26.800781 C 38.503906 26.367188 38.507812 25.933594 38.507812 25.5 C 38.511719 25.195312 38.515625 24.894531 38.519531 24.59375 C 38.527344 23.800781 38.53125 23.007812 38.539062 22.214844 C 38.546875 20.945312 38.5625 19.671875 38.574219 18.402344 C 38.578125 17.953125 38.582031 17.511719 38.585938 17.0625 C 38.585938 16.792969 38.589844 16.523438 38.59375 16.253906 C 38.59375 15.894531 38.59375 15.894531 38.597656 15.53125 C 38.625 15 38.625 15 38.8125 14.8125 Z M 38.8125 14.8125 "/>
<path style=" stroke:none;fill-rule:nonzero;fill:rgb(1.960784%,1.960784%,1.960784%);fill-opacity:1;" d="M 15.527344 38.707031 C 15.671875 38.707031 15.820312 38.703125 15.972656 38.703125 C 17.042969 38.714844 17.683594 38.945312 18.5625 39.5625 C 19.238281 40.367188 19.425781 41.117188 19.371094 42.164062 C 19.195312 43.355469 18.542969 43.941406 17.625 44.625 C 17.015625 44.929688 16.351562 44.855469 15.679688 44.859375 C 15.535156 44.863281 15.390625 44.867188 15.242188 44.871094 C 14.597656 44.875 14.175781 44.871094 13.597656 44.5625 C 12.902344 43.804688 13.078125 42.707031 13.066406 41.742188 C 13.0625 41.566406 13.054688 41.386719 13.050781 41.203125 C 13.042969 40.421875 13.066406 39.878906 13.402344 39.164062 C 14.097656 38.648438 14.683594 38.679688 15.527344 38.707031 Z M 15.527344 38.707031 "/>
<path style=" stroke:none;fill-rule:nonzero;fill:rgb(1.568628%,1.568628%,0.784314%);fill-opacity:1;" d="M 37.945312 4.859375 C 38.929688 5.433594 39.621094 6.191406 40.183594 7.183594 C 40.492188 8.386719 40.425781 9.433594 39.8125 10.527344 C 39.199219 11.378906 38.347656 12.128906 37.3125 12.375 C 35.878906 12.523438 34.890625 12.222656 33.703125 11.378906 C 32.8125 10.507812 32.539062 9.695312 32.519531 8.460938 C 32.542969 7.390625 32.675781 6.722656 33.410156 5.929688 C 33.519531 5.828125 33.632812 5.726562 33.75 5.625 C 33.859375 5.527344 33.96875 5.429688 34.082031 5.328125 C 35.203125 4.476562 36.632812 4.351562 37.945312 4.859375 Z M 34.6875 6.9375 C 34.253906 7.574219 34.125 7.945312 34.125 8.71875 C 34.359375 9.539062 34.65625 9.894531 35.25 10.5 C 35.851562 10.800781 36.472656 10.753906 37.125 10.6875 C 37.777344 10.425781 38.015625 10.195312 38.414062 9.621094 C 38.675781 8.851562 38.703125 8.273438 38.4375 7.5 C 37.996094 6.949219 37.996094 6.949219 37.5 6.5625 C 37.4375 6.5 37.375 6.4375 37.3125 6.375 C 36.324219 6.269531 35.464844 6.25 34.6875 6.9375 Z M 34.6875 6.9375 "/>
<path style=" stroke:none;fill-rule:nonzero;fill:rgb(40.392157%,82.745099%,94.117647%);fill-opacity:1;" d="M 30 27.9375 C 31.484375 27.9375 32.96875 27.9375 34.5 27.9375 C 35.097656 30.625 34.996094 32.890625 33.9375 35.4375 C 33.074219 35.253906 32.296875 34.878906 31.496094 34.53125 C 30.886719 34.273438 30.886719 34.273438 30 34.125 C 30 32.082031 30 30.042969 30 27.9375 Z M 30 27.9375 "/>
<path style=" stroke:none;fill-rule:nonzero;fill:rgb(4.313726%,4.313726%,4.313726%);fill-opacity:1;" d="M 25.5 38.625 C 26.058594 38.625 26.613281 38.625 27.1875 38.625 C 27.203125 39.417969 27.214844 40.210938 27.222656 41.003906 C 27.226562 41.230469 27.234375 41.453125 27.234375 41.683594 C 27.238281 41.902344 27.238281 42.117188 27.242188 42.339844 C 27.246094 42.542969 27.246094 42.742188 27.25 42.945312 C 27.15625 43.757812 26.820312 44.242188 26.25 44.8125 C 25.871094 44.882812 25.871094 44.882812 25.429688 44.894531 C 25.214844 44.90625 25.214844 44.90625 24.992188 44.917969 C 24.332031 44.757812 24.171875 44.445312 23.8125 43.875 C 23.574219 43.304688 23.386719 42.71875 23.203125 42.128906 C 23.03125 41.589844 22.863281 41.054688 22.6875 40.5 C 22.625 41.921875 22.5625 43.347656 22.5 44.8125 C 22.003906 44.8125 21.511719 44.8125 21 44.8125 C 20.976562 43.953125 20.964844 43.09375 20.953125 42.234375 C 20.949219 41.992188 20.941406 41.746094 20.933594 41.492188 C 20.933594 41.257812 20.929688 41.023438 20.925781 40.785156 C 20.921875 40.566406 20.917969 40.351562 20.914062 40.128906 C 21.019531 39.445312 21.207031 39.230469 21.75 38.8125 C 22.167969 38.714844 22.167969 38.714844 22.59375 38.71875 C 22.734375 38.71875 22.875 38.714844 23.019531 38.714844 C 23.625 38.859375 23.8125 39.0625 24.1875 39.5625 C 24.433594 40.128906 24.617188 40.707031 24.796875 41.296875 C 24.96875 41.839844 25.136719 42.378906 25.3125 42.9375 C 25.375 41.515625 25.4375 40.089844 25.5 38.625 Z M 25.5 38.625 "/>
<path style=" stroke:none;fill-rule:nonzero;fill:rgb(40.392157%,82.352942%,94.117647%);fill-opacity:1;" d="M 23.8125 20.625 C 24.621094 20.917969 25.0625 21.535156 25.570312 22.195312 C 25.660156 22.3125 25.75 22.425781 25.84375 22.546875 C 27.75 25.054688 27.75 25.054688 27.75 26.25 C 25.273438 26.25 22.800781 26.25 20.25 26.25 C 20.667969 24.996094 20.890625 24.335938 21.609375 23.332031 C 21.683594 23.230469 21.753906 23.125 21.832031 23.019531 C 22.441406 22.175781 23.101562 21.382812 23.8125 20.625 Z M 23.8125 20.625 "/>
<path style=" stroke:none;fill-rule:nonzero;fill:rgb(3.921569%,3.921569%,3.921569%);fill-opacity:1;" d="M 30.773438 38.605469 C 30.925781 38.605469 31.078125 38.609375 31.230469 38.609375 C 31.46875 38.609375 31.46875 38.609375 31.710938 38.613281 C 31.949219 38.613281 31.949219 38.613281 32.195312 38.617188 C 32.589844 38.617188 32.980469 38.621094 33.375 38.625 C 33.375 39.183594 33.375 39.738281 33.375 40.3125 C 31.890625 40.40625 31.890625 40.40625 30.375 40.5 C 31.230469 40.980469 31.230469 40.980469 32.085938 41.453125 C 32.980469 41.960938 32.980469 41.960938 33.1875 42.375 C 33.316406 43.691406 33.316406 43.691406 32.828125 44.390625 C 32.015625 44.984375 31.386719 44.917969 30.410156 44.871094 C 30.246094 44.867188 30.078125 44.863281 29.910156 44.859375 C 29.5 44.847656 29.09375 44.828125 28.6875 44.8125 C 28.6875 44.316406 28.6875 43.824219 28.6875 43.3125 C 29.679688 43.3125 30.667969 43.3125 31.6875 43.3125 C 31.6875 43.1875 31.6875 43.066406 31.6875 42.9375 C 31.53125 42.894531 31.378906 42.851562 31.21875 42.808594 C 30.199219 42.429688 29.296875 41.976562 28.6875 41.0625 C 28.605469 40.429688 28.605469 40.429688 28.6875 39.75 C 29.335938 38.964844 29.765625 38.597656 30.773438 38.605469 Z M 30.773438 38.605469 "/>
<path style=" stroke:none;fill-rule:nonzero;fill:rgb(40.000001%,81.960785%,93.333334%);fill-opacity:1;" d="M 13.5 27.9375 C 14.984375 27.9375 16.46875 27.9375 18 27.9375 C 17.9375 29.050781 17.875 30.164062 17.8125 31.3125 C 17.476562 31.445312 17.140625 31.574219 16.792969 31.710938 C 15.847656 32.101562 15.042969 32.554688 14.21875 33.160156 C 13.875 33.375 13.875 33.375 13.3125 33.375 C 12.964844 31.5 13.085938 29.800781 13.5 27.9375 Z M 13.5 27.9375 "/>
<path style=" stroke:none;fill-rule:nonzero;fill:rgb(40.000001%,81.960785%,93.725491%);fill-opacity:1;" d="M 21.9375 20.4375 C 21.875 20.515625 21.808594 20.59375 21.746094 20.671875 C 20.398438 22.382812 19.441406 24.269531 18.5625 26.25 C 17.140625 26.25 15.714844 26.25 14.25 26.25 C 15.628906 23.492188 17.644531 21.753906 20.488281 20.589844 C 21 20.4375 21.40625 20.40625 21.9375 20.4375 Z M 21.9375 20.4375 "/>
<path style=" stroke:none;fill-rule:nonzero;fill:rgb(40.392157%,82.352942%,93.725491%);fill-opacity:1;" d="M 26.0625 20.4375 C 28.828125 20.625 30.878906 22.308594 32.664062 24.285156 C 33.101562 24.890625 33.417969 25.582031 33.75 26.25 C 32.328125 26.25 30.902344 26.25 29.4375 26.25 C 29.101562 25.558594 29.101562 25.558594 28.757812 24.855469 C 28.183594 23.695312 27.566406 22.613281 26.8125 21.5625 C 26.664062 21.339844 26.515625 21.117188 26.367188 20.894531 C 26.214844 20.667969 26.214844 20.667969 26.0625 20.4375 Z M 26.0625 20.4375 "/>
<path style=" stroke:none;fill-rule:nonzero;fill:rgb(98.431373%,50.196081%,42.352942%);fill-opacity:1;" d="M 10.875 12.375 C 14.710938 12.375 18.546875 12.375 22.5 12.375 C 22.5 12.871094 22.5 13.363281 22.5 13.875 C 18.664062 13.875 14.828125 13.875 10.875 13.875 C 10.875 13.378906 10.875 12.886719 10.875 12.375 Z M 10.875 12.375 "/>
<path style=" stroke:none;fill-rule:nonzero;fill:rgb(0%,0%,0%);fill-opacity:1;" d="M 9.375 17.0625 C 11.910156 17.0625 14.449219 17.0625 17.0625 17.0625 C 17.0625 17.558594 17.0625 18.050781 17.0625 18.5625 C 14.527344 18.5625 11.988281 18.5625 9.375 18.5625 C 9.375 18.066406 9.375 17.574219 9.375 17.0625 Z M 9.375 17.0625 "/>
<path style=" stroke:none;fill-rule:nonzero;fill:rgb(85.882354%,87.058824%,88.627452%);fill-opacity:1;" d="M 14.625 40.3125 C 16.699219 40.199219 16.699219 40.199219 17.484375 40.710938 C 17.875 41.351562 17.964844 41.636719 17.8125 42.375 C 17.484375 42.914062 17.484375 42.914062 16.875 43.3125 C 16.105469 43.390625 15.402344 43.355469 14.625 43.3125 C 14.625 42.324219 14.625 41.332031 14.625 40.3125 Z M 14.625 40.3125 "/>
<path style=" stroke:none;fill-rule:nonzero;fill:rgb(11.764706%,9.803922%,8.627451%);fill-opacity:1;" d="M 9.1875 20.0625 C 10.796875 20.0625 12.40625 20.0625 14.0625 20.0625 C 14.0625 20.621094 14.0625 21.175781 14.0625 21.75 C 12.453125 21.75 10.84375 21.75 9.1875 21.75 C 9.1875 21.191406 9.1875 20.636719 9.1875 20.0625 Z M 9.1875 20.0625 "/>
<path style=" stroke:none;fill-rule:nonzero;fill:rgb(0%,0%,0%);fill-opacity:1;" d="M 9.375 23.25 C 10.363281 23.25 11.355469 23.25 12.375 23.25 C 12.375 23.746094 12.375 24.238281 12.375 24.75 C 11.386719 24.75 10.394531 24.75 9.375 24.75 C 9.375 24.253906 9.375 23.761719 9.375 23.25 Z M 9.375 23.25 "/>
</g>
</svg>
