<?xml version="1.0" encoding="UTF-8"?>
<svg xmlns="http://www.w3.org/2000/svg" xmlns:xlink="http://www.w3.org/1999/xlink" width="48" height="48" viewBox="0 0 48 48" version="1.1">
<g id="surface1">
<path style=" stroke:none;fill-rule:nonzero;fill:rgb(93.725491%,29.019609%,31.37255%);fill-opacity:1;" d="M 21 1.3125 C 22.980469 1.3125 24.960938 1.3125 27 1.3125 C 27.1875 2.054688 27.371094 2.796875 27.5625 3.5625 C 28.667969 4.445312 28.667969 4.445312 30 4.710938 C 30.683594 4.453125 31.359375 4.191406 32.03125 3.90625 C 32.4375 3.75 32.4375 3.75 32.8125 3.75 C 32.835938 3.605469 32.863281 3.460938 32.886719 3.3125 C 32.921875 3.125 32.953125 2.9375 32.988281 2.742188 C 33.019531 2.554688 33.054688 2.367188 33.085938 2.175781 C 33.1875 1.6875 33.1875 1.6875 33.375 1.3125 C 34.363281 1.3125 35.355469 1.3125 36.375 1.3125 C 36.9375 2.90625 36.9375 2.90625 36.9375 3.75 C 37.125 3.804688 37.125 3.804688 37.320312 3.859375 C 37.488281 3.910156 37.65625 3.957031 37.828125 4.007812 C 38.074219 4.078125 38.074219 4.078125 38.328125 4.152344 C 38.8125 4.3125 38.8125 4.3125 39.214844 4.519531 C 39.757812 4.78125 40.117188 4.660156 40.6875 4.5 C 40.878906 4.367188 41.074219 4.238281 41.273438 4.101562 C 41.8125 3.75 41.8125 3.75 42.164062 3.769531 C 42.710938 4 43.042969 4.332031 43.464844 4.746094 C 43.617188 4.890625 43.769531 5.039062 43.925781 5.191406 C 44.25 5.625 44.25 5.625 44.230469 6.015625 C 44.011719 6.484375 43.742188 6.902344 43.453125 7.335938 C 43.144531 8.113281 43.605469 8.949219 43.886719 9.691406 C 44.25 10.644531 44.25 10.644531 44.25 11.0625 C 44.480469 11.085938 44.707031 11.109375 44.941406 11.132812 C 45.625 11.203125 46.007812 11.351562 46.6875 11.625 C 46.6875 12.613281 46.6875 13.605469 46.6875 14.625 C 44.882812 15.1875 44.882812 15.1875 44.25 15.1875 C 44.214844 15.316406 44.175781 15.441406 44.140625 15.570312 C 44.089844 15.738281 44.042969 15.90625 43.992188 16.078125 C 43.945312 16.242188 43.894531 16.40625 43.847656 16.578125 C 43.6875 17.0625 43.6875 17.0625 43.46875 17.441406 C 43.207031 18.066406 43.441406 18.566406 43.644531 19.191406 C 43.863281 19.707031 43.863281 19.707031 44.4375 20.4375 C 45.179688 20.625 45.921875 20.808594 46.6875 21 C 46.6875 22.980469 46.6875 24.960938 46.6875 27 C 44.472656 27.46875 44.472656 27.46875 43.777344 27.605469 C 42.734375 27.8125 42.734375 27.8125 41.9375 28.453125 C 41.792969 28.839844 41.707031 29.21875 41.625 29.625 C 41.539062 29.863281 41.445312 30.097656 41.351562 30.332031 C 41.003906 31.207031 41.003906 31.207031 40.664062 32.082031 C 40.5 32.4375 40.5 32.4375 40.257812 32.792969 C 40 33.1875 39.839844 33.472656 39.75 33.9375 C 39.996094 34.65625 40.414062 35.242188 40.851562 35.859375 C 41.074219 36.1875 41.296875 36.515625 41.519531 36.847656 C 41.671875 37.0625 41.671875 37.0625 41.824219 37.28125 C 42 37.6875 42 37.6875 41.894531 38.0625 C 41.566406 38.519531 41.207031 38.898438 40.808594 39.289062 C 40.648438 39.449219 40.492188 39.609375 40.324219 39.769531 C 40.160156 39.933594 39.992188 40.097656 39.820312 40.265625 C 39.652344 40.433594 39.484375 40.597656 39.3125 40.769531 C 38.894531 41.179688 38.480469 41.589844 38.0625 42 C 37.449219 41.773438 36.960938 41.53125 36.449219 41.125 C 35.113281 40.085938 35.113281 40.085938 33.515625 39.796875 C 32.648438 40.085938 31.898438 40.566406 31.125 41.042969 C 30.554688 41.355469 30 41.472656 29.367188 41.613281 C 28.617188 41.8125 28.617188 41.8125 28.066406 42.316406 C 27.902344 42.769531 27.828125 43.207031 27.75 43.6875 C 27.65625 44.074219 27.558594 44.457031 27.457031 44.839844 C 27.296875 45.453125 27.148438 46.070312 27 46.6875 C 25.019531 46.6875 23.039062 46.6875 21 46.6875 C 20.8125 45.945312 20.628906 45.203125 20.4375 44.4375 C 19.335938 43.554688 19.335938 43.554688 18.011719 43.289062 C 17.726562 43.394531 17.726562 43.394531 17.4375 43.5 C 17.273438 43.53125 17.109375 43.566406 16.9375 43.597656 C 16.328125 43.746094 15.894531 43.894531 15.375 44.25 C 14.960938 45.066406 14.8125 45.78125 14.625 46.6875 C 13.636719 46.6875 12.644531 46.6875 11.625 46.6875 C 11.0625 45.09375 11.0625 45.09375 11.0625 44.25 C 10.933594 44.214844 10.808594 44.175781 10.679688 44.140625 C 10.511719 44.089844 10.34375 44.042969 10.171875 43.992188 C 10.007812 43.945312 9.84375 43.894531 9.671875 43.847656 C 9.1875 43.6875 9.1875 43.6875 8.785156 43.480469 C 8.242188 43.21875 7.882812 43.339844 7.3125 43.5 C 7.121094 43.632812 6.925781 43.761719 6.726562 43.898438 C 6.1875 44.25 6.1875 44.25 5.835938 44.230469 C 5.289062 44 4.957031 43.667969 4.535156 43.253906 C 4.382812 43.109375 4.230469 42.960938 4.074219 42.808594 C 3.75 42.375 3.75 42.375 3.769531 41.984375 C 3.988281 41.515625 4.257812 41.097656 4.546875 40.664062 C 4.855469 39.886719 4.394531 39.050781 4.113281 38.308594 C 3.75 37.355469 3.75 37.355469 3.75 36.9375 C 3.519531 36.914062 3.292969 36.890625 3.058594 36.867188 C 2.375 36.796875 1.992188 36.648438 1.3125 36.375 C 1.3125 35.386719 1.3125 34.394531 1.3125 33.375 C 3.117188 32.8125 3.117188 32.8125 3.75 32.8125 C 3.804688 32.625 3.804688 32.625 3.859375 32.429688 C 3.910156 32.261719 3.957031 32.09375 4.007812 31.921875 C 4.078125 31.675781 4.078125 31.675781 4.152344 31.421875 C 4.3125 30.9375 4.3125 30.9375 4.53125 30.558594 C 4.792969 29.933594 4.558594 29.433594 4.355469 28.808594 C 4.136719 28.292969 4.136719 28.292969 3.5625 27.5625 C 2.820312 27.375 2.078125 27.191406 1.3125 27 C 1.3125 25.019531 1.3125 23.039062 1.3125 21 C 3.527344 20.53125 3.527344 20.53125 4.222656 20.394531 C 5.265625 20.1875 5.265625 20.1875 6.0625 19.546875 C 6.207031 19.160156 6.292969 18.78125 6.375 18.375 C 6.460938 18.136719 6.554688 17.902344 6.648438 17.667969 C 6.996094 16.792969 6.996094 16.792969 7.335938 15.917969 C 7.5 15.5625 7.5 15.5625 7.742188 15.207031 C 8 14.8125 8.160156 14.527344 8.25 14.0625 C 8.003906 13.34375 7.585938 12.757812 7.148438 12.140625 C 6.925781 11.8125 6.703125 11.484375 6.480469 11.152344 C 6.378906 11.011719 6.28125 10.867188 6.175781 10.71875 C 6 10.3125 6 10.3125 6.105469 9.9375 C 6.433594 9.480469 6.792969 9.101562 7.191406 8.710938 C 7.351562 8.550781 7.507812 8.390625 7.675781 8.230469 C 7.839844 8.066406 8.007812 7.902344 8.179688 7.734375 C 8.347656 7.566406 8.515625 7.402344 8.6875 7.230469 C 9.105469 6.820312 9.519531 6.410156 9.9375 6 C 10.550781 6.226562 11.039062 6.46875 11.550781 6.875 C 12.886719 7.914062 12.886719 7.914062 14.484375 8.203125 C 15.351562 7.914062 16.101562 7.433594 16.875 6.957031 C 17.445312 6.644531 18 6.527344 18.632812 6.386719 C 19.382812 6.1875 19.382812 6.1875 19.933594 5.683594 C 20.097656 5.230469 20.171875 4.792969 20.25 4.3125 C 20.34375 3.925781 20.441406 3.542969 20.542969 3.160156 C 20.703125 2.546875 20.851562 1.929688 21 1.3125 Z M 16.929688 17.160156 C 15.359375 18.859375 14.425781 20.945312 14.25 23.25 C 14.375 23.3125 14.496094 23.375 14.625 23.4375 C 14.691406 23.800781 14.746094 24.164062 14.800781 24.527344 C 14.996094 25.414062 14.996094 25.414062 15.648438 25.988281 C 16.179688 26.175781 16.703125 26.308594 17.25 26.4375 C 17.40625 26.515625 17.5625 26.59375 17.726562 26.675781 C 18.199219 26.871094 18.199219 26.871094 18.664062 26.589844 C 18.820312 26.476562 18.976562 26.367188 19.136719 26.25 C 19.613281 25.910156 19.613281 25.910156 20.0625 25.6875 C 20.726562 25.867188 21.140625 26.347656 21.609375 26.835938 C 21.742188 26.972656 21.875 27.105469 22.011719 27.246094 C 22.109375 27.351562 22.210938 27.457031 22.3125 27.5625 C 22.214844 27.753906 22.214844 27.753906 22.113281 27.953125 C 22.03125 28.121094 21.941406 28.289062 21.855469 28.464844 C 21.769531 28.632812 21.6875 28.800781 21.597656 28.972656 C 21.359375 29.445312 21.359375 29.445312 21.1875 30 C 21.367188 30.496094 21.367188 30.496094 21.632812 31.019531 C 21.921875 31.617188 22.179688 32.160156 22.3125 32.8125 C 22.472656 32.847656 22.632812 32.886719 22.796875 32.921875 C 23.003906 32.972656 23.210938 33.019531 23.425781 33.070312 C 23.632812 33.117188 23.839844 33.167969 24.050781 33.214844 C 24.222656 33.269531 24.386719 33.320312 24.5625 33.375 C 24.625 33.5 24.6875 33.621094 24.75 33.75 C 27.414062 33.511719 29.714844 32.375 31.5 30.375 C 32.789062 28.699219 33.589844 26.863281 33.75 24.75 C 33.625 24.6875 33.503906 24.625 33.375 24.5625 C 33.308594 24.199219 33.253906 23.835938 33.199219 23.472656 C 33.003906 22.585938 33.003906 22.585938 32.351562 22.011719 C 31.820312 21.824219 31.296875 21.691406 30.75 21.5625 C 30.59375 21.484375 30.4375 21.40625 30.273438 21.324219 C 29.800781 21.128906 29.800781 21.128906 29.335938 21.410156 C 29.179688 21.523438 29.023438 21.632812 28.863281 21.75 C 28.386719 22.089844 28.386719 22.089844 27.9375 22.3125 C 27.273438 22.132812 26.859375 21.652344 26.390625 21.164062 C 26.257812 21.027344 26.125 20.894531 25.988281 20.753906 C 25.890625 20.648438 25.789062 20.542969 25.6875 20.4375 C 25.753906 20.308594 25.820312 20.179688 25.886719 20.046875 C 25.96875 19.878906 26.058594 19.710938 26.144531 19.535156 C 26.273438 19.285156 26.273438 19.285156 26.402344 19.027344 C 26.640625 18.554688 26.640625 18.554688 26.8125 18 C 26.632812 17.503906 26.632812 17.503906 26.367188 16.980469 C 26.066406 16.363281 25.855469 15.855469 25.6875 15.1875 C 24.882812 15 24.078125 14.816406 23.25 14.625 C 23.25 14.5 23.25 14.378906 23.25 14.25 C 20.816406 14.25 18.648438 15.53125 16.929688 17.160156 Z M 16.929688 17.160156 "/>
<path style=" stroke:none;fill-rule:nonzero;fill:rgb(47.843137%,53.725493%,57.647061%);fill-opacity:1;" d="M 11.625 23.25 C 12.613281 23.25 13.605469 23.25 14.625 23.25 C 15.1875 24.84375 15.1875 24.84375 15.1875 25.6875 C 15.371094 25.703125 15.550781 25.71875 15.738281 25.734375 C 16.359375 25.8125 16.769531 26.019531 17.308594 26.332031 C 17.726562 26.558594 17.726562 26.558594 18.1875 26.625 C 18.738281 26.390625 19.164062 26.101562 19.640625 25.734375 C 20.0625 25.5 20.0625 25.5 20.4375 25.597656 C 20.90625 25.941406 21.296875 26.324219 21.703125 26.742188 C 21.851562 26.894531 22.003906 27.046875 22.15625 27.207031 C 22.269531 27.324219 22.382812 27.441406 22.5 27.5625 C 22.402344 27.753906 22.402344 27.753906 22.300781 27.953125 C 22.21875 28.121094 22.128906 28.289062 22.042969 28.464844 C 21.957031 28.632812 21.875 28.800781 21.785156 28.972656 C 21.546875 29.445312 21.546875 29.445312 21.375 30 C 21.5625 30.496094 21.5625 30.496094 21.832031 31.019531 C 22.175781 31.710938 22.3125 32.019531 22.3125 32.8125 C 22.65625 32.847656 22.65625 32.847656 23.003906 32.882812 C 23.6875 32.953125 24.070312 33.101562 24.75 33.375 C 24.75 34.363281 24.75 35.355469 24.75 36.375 C 23.945312 36.5625 23.140625 36.746094 22.3125 36.9375 C 22.226562 37.230469 22.140625 37.523438 22.054688 37.828125 C 21.914062 38.316406 21.777344 38.761719 21.542969 39.214844 C 21.28125 39.757812 21.402344 40.117188 21.5625 40.6875 C 21.929688 41.308594 21.929688 41.308594 22.3125 41.8125 C 22.050781 42.410156 21.742188 42.796875 21.269531 43.242188 C 20.785156 43.695312 20.785156 43.695312 20.4375 44.25 C 19.921875 44.058594 19.496094 43.871094 19.042969 43.558594 C 18.390625 43.222656 18.144531 43.304688 17.4375 43.5 C 17.1875 43.546875 17.1875 43.546875 16.933594 43.59375 C 16.328125 43.75 15.890625 43.894531 15.375 44.25 C 14.960938 45.066406 14.8125 45.78125 14.625 46.6875 C 13.636719 46.6875 12.644531 46.6875 11.625 46.6875 C 11.0625 45.09375 11.0625 45.09375 11.0625 44.25 C 10.933594 44.214844 10.808594 44.175781 10.679688 44.140625 C 10.511719 44.089844 10.34375 44.042969 10.171875 43.992188 C 10.007812 43.945312 9.84375 43.894531 9.671875 43.847656 C 9.1875 43.6875 9.1875 43.6875 8.785156 43.480469 C 8.242188 43.21875 7.882812 43.339844 7.3125 43.5 C 7.121094 43.632812 6.925781 43.761719 6.726562 43.898438 C 6.1875 44.25 6.1875 44.25 5.835938 44.230469 C 5.289062 44 4.957031 43.667969 4.535156 43.253906 C 4.382812 43.109375 4.230469 42.960938 4.074219 42.808594 C 3.75 42.375 3.75 42.375 3.769531 41.984375 C 3.988281 41.515625 4.257812 41.097656 4.546875 40.664062 C 4.855469 39.886719 4.394531 39.050781 4.113281 38.308594 C 3.75 37.355469 3.75 37.355469 3.75 36.9375 C 3.519531 36.914062 3.292969 36.890625 3.058594 36.867188 C 2.375 36.796875 1.992188 36.648438 1.3125 36.375 C 1.3125 35.386719 1.3125 34.394531 1.3125 33.375 C 3.117188 32.8125 3.117188 32.8125 3.75 32.8125 C 3.785156 32.683594 3.824219 32.558594 3.859375 32.429688 C 3.910156 32.261719 3.957031 32.09375 4.007812 31.921875 C 4.054688 31.757812 4.105469 31.59375 4.152344 31.421875 C 4.3125 30.9375 4.3125 30.9375 4.519531 30.527344 C 4.765625 30.027344 4.671875 29.777344 4.5 29.25 C 4.261719 28.804688 4.003906 28.371094 3.75 27.9375 C 3.75 27.8125 3.75 27.691406 3.75 27.5625 C 4.058594 27.257812 4.058594 27.257812 4.464844 26.917969 C 4.933594 26.523438 5.386719 26.128906 5.8125 25.6875 C 6.328125 25.878906 6.761719 26.070312 7.21875 26.378906 C 7.808594 26.6875 7.996094 26.605469 8.625 26.4375 C 9.113281 26.253906 9.589844 26.050781 10.070312 25.84375 C 10.5 25.6875 10.5 25.6875 11.0625 25.6875 C 11.25 24.882812 11.433594 24.078125 11.625 23.25 Z M 11.625 23.25 "/>
<path style=" stroke:none;fill-rule:nonzero;fill:rgb(96.470588%,72.941178%,26.666668%);fill-opacity:1;" d="M 44.941406 20.53125 C 45.273438 20.617188 45.605469 20.710938 45.9375 20.8125 C 46.308594 20.90625 46.308594 20.90625 46.6875 21 C 46.6875 22.980469 46.6875 24.960938 46.6875 27 C 44.472656 27.46875 44.472656 27.46875 43.777344 27.605469 C 42.734375 27.8125 42.734375 27.8125 41.9375 28.453125 C 41.792969 28.839844 41.707031 29.21875 41.625 29.625 C 41.539062 29.863281 41.445312 30.097656 41.351562 30.332031 C 41.003906 31.207031 41.003906 31.207031 40.664062 32.082031 C 40.5 32.4375 40.5 32.4375 40.257812 32.792969 C 40 33.1875 39.839844 33.472656 39.75 33.9375 C 39.996094 34.65625 40.414062 35.242188 40.851562 35.859375 C 41.078125 36.1875 41.296875 36.515625 41.519531 36.847656 C 41.667969 37.0625 41.667969 37.0625 41.824219 37.28125 C 42 37.6875 42 37.6875 41.894531 38.0625 C 41.566406 38.519531 41.207031 38.898438 40.808594 39.289062 C 40.648438 39.449219 40.488281 39.609375 40.324219 39.769531 C 40.074219 40.015625 40.074219 40.015625 39.820312 40.265625 C 39.652344 40.433594 39.484375 40.597656 39.3125 40.769531 C 38.894531 41.179688 38.480469 41.589844 38.0625 42 C 37.445312 41.773438 36.960938 41.53125 36.449219 41.125 C 35.113281 40.085938 35.113281 40.085938 33.515625 39.796875 C 32.648438 40.085938 31.898438 40.566406 31.125 41.042969 C 30.554688 41.355469 30 41.472656 29.367188 41.613281 C 28.617188 41.8125 28.617188 41.8125 28.066406 42.316406 C 27.902344 42.769531 27.828125 43.207031 27.75 43.6875 C 27.65625 44.074219 27.554688 44.457031 27.457031 44.839844 C 27.296875 45.453125 27.148438 46.070312 27 46.6875 C 25.019531 46.6875 23.039062 46.6875 21 46.6875 C 20.4375 44.4375 20.4375 44.4375 20.625 43.6875 C 20.972656 43.285156 20.972656 43.285156 21.386719 42.890625 C 21.523438 42.757812 21.660156 42.625 21.804688 42.488281 C 21.964844 42.339844 21.964844 42.339844 22.125 42.1875 C 21.929688 41.671875 21.746094 41.25 21.433594 40.792969 C 21.042969 40.035156 21.316406 39.402344 21.53125 38.605469 C 22.078125 37.078125 22.078125 37.078125 22.769531 36.667969 C 23.449219 36.464844 24.042969 36.375 24.75 36.375 C 24.75 35.507812 24.75 34.640625 24.75 33.75 C 25.136719 33.648438 25.523438 33.550781 25.921875 33.445312 C 28.699219 32.671875 30.84375 31.359375 32.34375 28.851562 C 33.023438 27.550781 33.425781 26.175781 33.75 24.75 C 34.617188 24.75 35.480469 24.75 36.375 24.75 C 36.460938 24.25 36.460938 24.25 36.550781 23.742188 C 36.726562 22.734375 36.726562 22.734375 36.9375 22.3125 C 37.351562 22.09375 37.761719 21.902344 38.191406 21.714844 C 38.363281 21.632812 38.363281 21.632812 38.539062 21.554688 C 39.332031 21.207031 39.855469 21.132812 40.6875 21.375 C 41.320312 21.761719 41.320312 21.761719 41.8125 22.125 C 42.429688 21.863281 42.726562 21.570312 43.136719 21.046875 C 43.746094 20.410156 44.082031 20.371094 44.941406 20.53125 Z M 44.941406 20.53125 "/>
<path style=" stroke:none;fill-rule:nonzero;fill:rgb(96.470588%,72.941178%,26.666668%);fill-opacity:1;" d="M 21 1.3125 C 22.980469 1.3125 24.960938 1.3125 27 1.3125 C 27.5625 3.5625 27.5625 3.5625 27.375 4.3125 C 27.027344 4.714844 27.027344 4.714844 26.613281 5.109375 C 26.476562 5.242188 26.339844 5.375 26.195312 5.511719 C 26.089844 5.609375 25.984375 5.710938 25.875 5.8125 C 26.070312 6.328125 26.253906 6.757812 26.566406 7.21875 C 26.945312 7.9375 26.667969 8.464844 26.46875 9.230469 C 25.921875 10.917969 25.921875 10.917969 25.226562 11.34375 C 24.554688 11.546875 23.953125 11.625 23.25 11.625 C 23.25 12.492188 23.25 13.359375 23.25 14.25 C 23.070312 14.292969 22.890625 14.332031 22.707031 14.375 C 19.929688 15.042969 17.609375 16.183594 15.972656 18.621094 C 15.105469 20.070312 14.621094 21.609375 14.25 23.25 C 13.382812 23.25 12.515625 23.25 11.625 23.25 C 11.566406 23.582031 11.507812 23.914062 11.449219 24.257812 C 11.273438 25.265625 11.273438 25.265625 11.0625 25.6875 C 10.679688 25.863281 10.285156 26.019531 9.890625 26.167969 C 9.570312 26.289062 9.570312 26.289062 9.242188 26.414062 C 8.195312 26.769531 8.195312 26.769531 7.6875 26.8125 C 7.265625 26.597656 6.929688 26.335938 6.554688 26.050781 C 6.191406 25.828125 6.191406 25.828125 5.804688 25.988281 C 5.40625 26.273438 5.160156 26.570312 4.863281 26.953125 C 4.523438 27.308594 4.523438 27.308594 4.125 27.5625 C 3.394531 27.574219 2.757812 27.398438 2.0625 27.1875 C 1.816406 27.125 1.566406 27.0625 1.3125 27 C 1.3125 25.019531 1.3125 23.039062 1.3125 21 C 3.527344 20.53125 3.527344 20.53125 4.222656 20.394531 C 5.265625 20.1875 5.265625 20.1875 6.0625 19.546875 C 6.207031 19.160156 6.292969 18.78125 6.375 18.375 C 6.460938 18.136719 6.554688 17.902344 6.648438 17.667969 C 6.996094 16.792969 6.996094 16.792969 7.335938 15.917969 C 7.5 15.5625 7.5 15.5625 7.742188 15.207031 C 8 14.8125 8.160156 14.527344 8.25 14.0625 C 8.003906 13.34375 7.585938 12.757812 7.148438 12.140625 C 6.925781 11.8125 6.703125 11.484375 6.480469 11.152344 C 6.378906 11.011719 6.28125 10.867188 6.175781 10.71875 C 6 10.3125 6 10.3125 6.105469 9.9375 C 6.433594 9.480469 6.792969 9.101562 7.191406 8.710938 C 7.351562 8.550781 7.507812 8.390625 7.675781 8.230469 C 7.839844 8.066406 8.007812 7.902344 8.179688 7.734375 C 8.347656 7.566406 8.515625 7.402344 8.6875 7.230469 C 9.105469 6.820312 9.519531 6.410156 9.9375 6 C 10.550781 6.226562 11.039062 6.46875 11.550781 6.875 C 12.886719 7.914062 12.886719 7.914062 14.484375 8.203125 C 15.351562 7.914062 16.101562 7.433594 16.875 6.957031 C 17.445312 6.644531 18 6.527344 18.632812 6.386719 C 19.382812 6.1875 19.382812 6.1875 19.933594 5.683594 C 20.097656 5.230469 20.171875 4.792969 20.25 4.3125 C 20.34375 3.925781 20.441406 3.542969 20.542969 3.160156 C 20.703125 2.546875 20.851562 1.929688 21 1.3125 Z M 21 1.3125 "/>
<path style=" stroke:none;fill-rule:nonzero;fill:rgb(30.588236%,39.607844%,45.490196%);fill-opacity:1;" d="M 5.8125 25.6875 C 6.199219 25.816406 6.199219 25.816406 6.75 26.0625 C 6.863281 26.101562 6.980469 26.144531 7.097656 26.183594 C 7.5625 26.40625 7.773438 26.566406 8.0625 27 C 8.1875 27.800781 8.214844 28.566406 8.21875 29.378906 C 8.222656 29.949219 8.296875 30.445312 8.441406 30.996094 C 8.644531 31.761719 8.59375 32.234375 8.4375 33 C 8.089844 34.734375 8.070312 36.316406 9 37.875 C 9.925781 38.964844 11.019531 39.636719 12.445312 39.800781 C 13.613281 39.847656 14.664062 39.609375 15.75 39.1875 C 15.8125 39.125 15.875 39.0625 15.9375 39 C 16.226562 38.984375 16.515625 38.984375 16.804688 38.988281 C 16.984375 38.992188 17.164062 38.992188 17.347656 38.992188 C 17.722656 39 18.097656 39 18.472656 39.007812 C 19.523438 39.015625 20.523438 38.96875 21.5625 38.8125 C 21.511719 39.03125 21.460938 39.246094 21.410156 39.46875 C 21.3125 40.1875 21.445312 40.519531 21.855469 41.109375 C 21.949219 41.226562 22.042969 41.34375 22.136719 41.464844 C 22.3125 41.8125 22.3125 41.8125 22.195312 42.1875 C 21.917969 42.589844 21.621094 42.90625 21.269531 43.242188 C 20.785156 43.695312 20.785156 43.695312 20.4375 44.25 C 19.921875 44.058594 19.496094 43.871094 19.042969 43.558594 C 18.390625 43.222656 18.144531 43.304688 17.4375 43.5 C 17.1875 43.546875 17.1875 43.546875 16.933594 43.59375 C 16.328125 43.75 15.890625 43.894531 15.375 44.25 C 14.960938 45.066406 14.8125 45.78125 14.625 46.6875 C 13.636719 46.6875 12.644531 46.6875 11.625 46.6875 C 11.0625 45.09375 11.0625 45.09375 11.0625 44.25 C 10.933594 44.214844 10.808594 44.175781 10.679688 44.140625 C 10.511719 44.089844 10.34375 44.042969 10.171875 43.992188 C 10.007812 43.945312 9.84375 43.894531 9.671875 43.847656 C 9.1875 43.6875 9.1875 43.6875 8.785156 43.480469 C 8.242188 43.21875 7.882812 43.339844 7.3125 43.5 C 7.121094 43.632812 6.925781 43.761719 6.726562 43.898438 C 6.1875 44.25 6.1875 44.25 5.835938 44.230469 C 5.289062 44 4.957031 43.667969 4.535156 43.253906 C 4.382812 43.109375 4.230469 42.960938 4.074219 42.808594 C 3.75 42.375 3.75 42.375 3.769531 41.984375 C 3.988281 41.515625 4.257812 41.097656 4.546875 40.664062 C 4.855469 39.886719 4.394531 39.050781 4.113281 38.308594 C 3.75 37.355469 3.75 37.355469 3.75 36.9375 C 3.519531 36.914062 3.292969 36.890625 3.058594 36.867188 C 2.375 36.796875 1.992188 36.648438 1.3125 36.375 C 1.3125 35.386719 1.3125 34.394531 1.3125 33.375 C 3.117188 32.8125 3.117188 32.8125 3.75 32.8125 C 3.785156 32.683594 3.824219 32.558594 3.859375 32.429688 C 3.910156 32.261719 3.957031 32.09375 4.007812 31.921875 C 4.054688 31.757812 4.105469 31.59375 4.152344 31.421875 C 4.3125 30.9375 4.3125 30.9375 4.519531 30.527344 C 4.765625 30.027344 4.671875 29.777344 4.5 29.25 C 4.261719 28.804688 4.003906 28.371094 3.75 27.9375 C 3.75 27.8125 3.75 27.691406 3.75 27.5625 C 4.058594 27.257812 4.058594 27.257812 4.464844 26.917969 C 4.933594 26.523438 5.386719 26.128906 5.8125 25.6875 Z M 5.8125 25.6875 "/>
<path style=" stroke:none;fill-rule:nonzero;fill:rgb(99.607843%,66.666669%,1.176471%);fill-opacity:1;" d="M 26.765625 34.089844 C 29.242188 35.070312 31.613281 35.507812 34.277344 35.496094 C 34.488281 35.496094 34.703125 35.496094 34.921875 35.496094 C 36.34375 35.480469 37.652344 35.34375 39.027344 34.980469 C 39.628906 34.863281 39.933594 34.820312 40.5 35.0625 C 40.828125 35.492188 41.078125 35.871094 41.332031 36.339844 C 41.4375 36.515625 41.4375 36.515625 41.546875 36.699219 C 41.742188 37.046875 41.742188 37.046875 42 37.6875 C 41.773438 38.367188 41.3125 38.792969 40.808594 39.289062 C 40.648438 39.449219 40.492188 39.605469 40.324219 39.769531 C 40.078125 40.015625 40.078125 40.015625 39.820312 40.265625 C 39.652344 40.433594 39.484375 40.597656 39.3125 40.769531 C 38.894531 41.179688 38.480469 41.589844 38.0625 42 C 37.449219 41.773438 36.960938 41.535156 36.449219 41.125 C 35.113281 40.085938 35.113281 40.085938 33.515625 39.796875 C 32.648438 40.085938 31.898438 40.5625 31.125 41.042969 C 30.554688 41.355469 30 41.472656 29.367188 41.613281 C 28.617188 41.816406 28.617188 41.816406 28.066406 42.3125 C 27.902344 42.769531 27.828125 43.207031 27.75 43.6875 C 27.65625 44.074219 27.558594 44.457031 27.457031 44.839844 C 27.296875 45.453125 27.148438 46.070312 27 46.6875 C 25.019531 46.6875 23.039062 46.6875 21 46.6875 C 20.4375 44.4375 20.4375 44.4375 20.625 43.6875 C 20.972656 43.285156 20.972656 43.285156 21.386719 42.890625 C 21.523438 42.757812 21.660156 42.625 21.804688 42.488281 C 21.910156 42.390625 22.015625 42.289062 22.125 42.1875 C 21.929688 41.675781 21.75 41.246094 21.433594 40.792969 C 21.046875 40.035156 21.316406 39.402344 21.53125 38.605469 C 22.078125 37.078125 22.078125 37.078125 22.773438 36.667969 C 23.445312 36.464844 24.046875 36.375 24.75 36.375 C 24.75 35.507812 24.75 34.644531 24.75 33.75 C 25.53125 33.488281 26.039062 33.796875 26.765625 34.089844 Z M 26.765625 34.089844 "/>
<path style=" stroke:none;fill-rule:nonzero;fill:rgb(99.607843%,66.666669%,1.176471%);fill-opacity:1;" d="M 9.9375 6 C 10.691406 6.292969 11.363281 6.640625 12.058594 7.054688 C 12.359375 7.230469 12.359375 7.230469 12.664062 7.414062 C 12.890625 7.546875 12.890625 7.546875 13.125 7.6875 C 13.03125 8.066406 12.941406 8.445312 12.851562 8.820312 C 12.050781 13.210938 12.382812 17.789062 14.117188 21.90625 C 14.25 22.3125 14.25 22.3125 14.25 23.25 C 13.382812 23.25 12.515625 23.25 11.625 23.25 C 11.566406 23.582031 11.507812 23.914062 11.449219 24.257812 C 11.273438 25.265625 11.273438 25.265625 11.0625 25.6875 C 10.679688 25.863281 10.285156 26.019531 9.890625 26.167969 C 9.570312 26.289062 9.570312 26.289062 9.242188 26.414062 C 8.195312 26.769531 8.195312 26.769531 7.6875 26.8125 C 7.265625 26.597656 6.929688 26.335938 6.554688 26.050781 C 6.191406 25.828125 6.191406 25.828125 5.804688 25.988281 C 5.40625 26.273438 5.160156 26.570312 4.863281 26.953125 C 4.523438 27.308594 4.523438 27.308594 4.125 27.5625 C 3.394531 27.574219 2.757812 27.398438 2.0625 27.1875 C 1.816406 27.125 1.566406 27.0625 1.3125 27 C 1.3125 25.019531 1.3125 23.039062 1.3125 21 C 3.527344 20.53125 3.527344 20.53125 4.222656 20.394531 C 5.265625 20.1875 5.265625 20.1875 6.0625 19.546875 C 6.207031 19.160156 6.292969 18.78125 6.375 18.375 C 6.460938 18.136719 6.554688 17.902344 6.648438 17.667969 C 6.996094 16.792969 6.996094 16.792969 7.335938 15.917969 C 7.5 15.5625 7.5 15.5625 7.742188 15.207031 C 8 14.8125 8.160156 14.527344 8.25 14.0625 C 8.003906 13.34375 7.585938 12.757812 7.148438 12.140625 C 6.925781 11.8125 6.703125 11.484375 6.480469 11.152344 C 6.378906 11.011719 6.28125 10.867188 6.175781 10.71875 C 6 10.3125 6 10.3125 6.105469 9.9375 C 6.433594 9.480469 6.792969 9.101562 7.191406 8.710938 C 7.351562 8.550781 7.507812 8.390625 7.675781 8.230469 C 7.839844 8.066406 8.007812 7.902344 8.179688 7.734375 C 8.347656 7.566406 8.515625 7.402344 8.6875 7.230469 C 9.105469 6.820312 9.519531 6.410156 9.9375 6 Z M 9.9375 6 "/>
<path style=" stroke:none;fill-rule:nonzero;fill:rgb(92.156863%,46.27451%,48.235294%);fill-opacity:1;" d="M 33.375 1.3125 C 34.363281 1.3125 35.355469 1.3125 36.375 1.3125 C 36.9375 2.90625 36.9375 2.90625 36.9375 3.75 C 37.066406 3.785156 37.191406 3.824219 37.320312 3.859375 C 37.488281 3.910156 37.65625 3.957031 37.828125 4.007812 C 37.992188 4.054688 38.15625 4.105469 38.328125 4.152344 C 38.8125 4.3125 38.8125 4.3125 39.214844 4.519531 C 39.757812 4.78125 40.117188 4.660156 40.6875 4.5 C 40.878906 4.367188 41.074219 4.238281 41.273438 4.101562 C 41.8125 3.75 41.8125 3.75 42.164062 3.769531 C 42.710938 4 43.042969 4.332031 43.464844 4.746094 C 43.617188 4.890625 43.769531 5.039062 43.925781 5.191406 C 44.25 5.625 44.25 5.625 44.230469 6.015625 C 44.011719 6.484375 43.742188 6.902344 43.453125 7.335938 C 43.144531 8.113281 43.605469 8.949219 43.886719 9.691406 C 44.25 10.644531 44.25 10.644531 44.25 11.0625 C 44.59375 11.097656 44.59375 11.097656 44.941406 11.132812 C 45.625 11.203125 46.007812 11.351562 46.6875 11.625 C 46.6875 12.613281 46.6875 13.605469 46.6875 14.625 C 44.882812 15.1875 44.882812 15.1875 44.25 15.1875 C 44.0625 15.804688 43.878906 16.425781 43.6875 17.0625 C 42.574219 17.304688 41.46875 17.269531 40.335938 17.261719 C 40.035156 17.261719 40.035156 17.261719 39.726562 17.257812 C 39.234375 17.257812 38.742188 17.253906 38.25 17.25 C 38.472656 16.785156 38.695312 16.40625 39 15.984375 C 39.777344 14.71875 39.945312 13.273438 39.75 11.8125 C 39.28125 10.367188 38.476562 9.347656 37.148438 8.621094 C 35.839844 8.046875 34.351562 8.085938 32.992188 8.46875 C 32.046875 8.871094 31.269531 9.582031 30.5625 10.3125 C 29.863281 9.003906 29.785156 7.957031 29.800781 6.503906 C 29.800781 6.347656 29.804688 6.191406 29.804688 6.027344 C 29.804688 5.644531 29.808594 5.257812 29.8125 4.875 C 30.136719 4.722656 30.460938 4.570312 30.785156 4.417969 C 30.964844 4.332031 31.144531 4.25 31.332031 4.160156 C 31.832031 3.957031 32.28125 3.835938 32.8125 3.75 C 32.835938 3.605469 32.863281 3.460938 32.886719 3.3125 C 32.921875 3.125 32.953125 2.9375 32.988281 2.742188 C 33.019531 2.554688 33.054688 2.367188 33.085938 2.175781 C 33.1875 1.6875 33.1875 1.6875 33.375 1.3125 Z M 33.375 1.3125 "/>
<path style=" stroke:none;fill-rule:nonzero;fill:rgb(96.078432%,72.941178%,27.058825%);fill-opacity:1;" d="M 34.957031 8.003906 C 36.367188 8.023438 37.554688 8.453125 38.601562 9.410156 C 39.617188 10.535156 40.058594 11.707031 39.984375 13.222656 C 39.832031 14.714844 39.519531 15.785156 38.4375 16.875 C 36.984375 17.996094 35.582031 18.410156 33.75 18.1875 C 32.113281 17.640625 31.074219 16.65625 30.1875 15.1875 C 29.644531 14.027344 29.605469 12.757812 29.941406 11.523438 C 30.5625 10.019531 31.515625 8.925781 33 8.25 C 33.539062 8.214844 33.539062 8.214844 33.9375 8.25 C 34.238281 7.953125 34.542969 8.015625 34.957031 8.003906 Z M 34.957031 8.003906 "/>
<path style=" stroke:none;fill-rule:nonzero;fill:rgb(99.215686%,66.666669%,1.568628%);fill-opacity:1;" d="M 15.496094 30.300781 C 16.824219 31.085938 17.796875 32.25 18.1875 33.75 C 18.414062 35.355469 18.066406 36.714844 17.191406 38.070312 C 16.433594 39.039062 15.527344 39.527344 14.367188 39.890625 C 12.632812 40.054688 11.203125 39.964844 9.742188 38.910156 C 8.746094 38.015625 8.179688 36.894531 8.003906 35.5625 C 7.992188 35.136719 8.015625 34.738281 8.0625 34.3125 C 8.078125 34.171875 8.09375 34.03125 8.109375 33.886719 C 8.292969 32.757812 8.738281 31.921875 9.5625 31.125 C 11.445312 29.777344 13.3125 29.3125 15.496094 30.300781 Z M 15.496094 30.300781 "/>
</g>
</svg>
