<?xml version="1.0" encoding="UTF-8"?>
<svg xmlns="http://www.w3.org/2000/svg" xmlns:xlink="http://www.w3.org/1999/xlink" width="48" height="48" viewBox="0 0 48 48" version="1.1">
<g id="surface1">
<path style=" stroke:none;fill-rule:nonzero;fill:rgb(99.607843%,61.176473%,0%);fill-opacity:1;" d="M 12.386719 1.261719 C 12.667969 1.261719 12.949219 1.257812 13.230469 1.257812 C 13.988281 1.253906 14.746094 1.253906 15.503906 1.253906 C 16.136719 1.253906 16.773438 1.253906 17.410156 1.253906 C 18.910156 1.25 20.40625 1.25 21.90625 1.253906 C 23.449219 1.253906 24.988281 1.25 26.53125 1.246094 C 27.859375 1.242188 29.1875 1.242188 30.515625 1.242188 C 31.308594 1.242188 32.097656 1.242188 32.890625 1.242188 C 33.636719 1.238281 34.378906 1.242188 35.125 1.242188 C 35.394531 1.242188 35.667969 1.242188 35.9375 1.242188 C 39.398438 1.222656 42.46875 2.03125 45 4.5 C 46.988281 6.769531 48.058594 9.15625 48.054688 12.164062 C 48.054688 12.34375 48.058594 12.523438 48.058594 12.707031 C 48.0625 13.296875 48.0625 13.886719 48.0625 14.472656 C 48.066406 14.886719 48.066406 15.300781 48.066406 15.710938 C 48.070312 16.574219 48.070312 17.4375 48.070312 18.304688 C 48.070312 19.402344 48.074219 20.503906 48.082031 21.605469 C 48.085938 22.457031 48.085938 23.308594 48.085938 24.160156 C 48.085938 24.566406 48.085938 24.972656 48.089844 25.378906 C 48.117188 29.238281 47.515625 32.246094 44.761719 35.152344 C 43.796875 36.042969 42.730469 36.828125 41.4375 37.125 C 41.488281 37.34375 41.488281 37.34375 41.539062 37.566406 C 41.6875 38.230469 41.839844 38.894531 41.988281 39.5625 C 42.039062 39.792969 42.09375 40.019531 42.144531 40.253906 C 42.953125 43.851562 42.953125 43.851562 42.375 45.1875 C 41.714844 46.011719 40.976562 46.574219 39.917969 46.753906 C 38.171875 46.863281 36.964844 45.660156 35.695312 44.601562 C 35.429688 44.382812 35.167969 44.167969 34.902344 43.949219 C 34.773438 43.84375 34.640625 43.734375 34.507812 43.621094 C 33.949219 43.167969 33.382812 42.726562 32.8125 42.28125 C 31.691406 41.40625 30.585938 40.511719 29.480469 39.605469 C 29.363281 39.507812 29.242188 39.410156 29.121094 39.308594 C 29.011719 39.222656 28.90625 39.136719 28.796875 39.046875 C 27.613281 38.117188 26.144531 38.304688 24.695312 38.273438 C 24.335938 38.265625 23.980469 38.253906 23.621094 38.230469 C 21.53125 38.121094 20.027344 38.195312 18.390625 39.601562 C 18.046875 39.917969 17.710938 40.238281 17.382812 40.566406 C 16.871094 41.058594 16.3125 41.480469 15.75 41.90625 C 14.914062 42.554688 14.089844 43.21875 13.273438 43.894531 C 9.777344 46.761719 9.777344 46.761719 8.144531 46.738281 C 7.117188 46.621094 6.410156 46.1875 5.730469 45.421875 C 4.929688 43.757812 5.417969 42.160156 5.789062 40.441406 C 5.84375 40.183594 5.894531 39.921875 5.949219 39.664062 C 6.332031 37.8125 6.332031 37.8125 6.5625 37.125 C 6.457031 37.105469 6.355469 37.085938 6.25 37.066406 C 3.898438 36.367188 2.257812 34.304688 1.125 32.25 C 0.3125 30.539062 -0.0273438 29.152344 -0.03125 27.273438 C -0.0351562 27.09375 -0.0351562 26.914062 -0.0351562 26.730469 C -0.0390625 26.136719 -0.0429688 25.546875 -0.0429688 24.957031 C -0.046875 24.753906 -0.046875 24.546875 -0.046875 24.339844 C -0.0507812 23.265625 -0.0546875 22.191406 -0.0546875 21.117188 C -0.0585938 20.007812 -0.0664062 18.902344 -0.0703125 17.796875 C -0.0742188 16.945312 -0.078125 16.089844 -0.078125 15.234375 C -0.078125 14.828125 -0.0820312 14.421875 -0.0859375 14.015625 C -0.113281 10.460938 0.324219 7.363281 2.839844 4.632812 C 5.703125 1.96875 8.585938 1.253906 12.386719 1.261719 Z M 12.386719 1.261719 "/>
<path style=" stroke:none;fill-rule:nonzero;fill:rgb(97.254902%,45.882353%,9.019608%);fill-opacity:1;" d="M 12.386719 1.261719 C 12.667969 1.261719 12.949219 1.257812 13.230469 1.257812 C 13.988281 1.253906 14.746094 1.253906 15.503906 1.253906 C 16.136719 1.253906 16.773438 1.253906 17.410156 1.253906 C 18.910156 1.25 20.40625 1.25 21.90625 1.253906 C 23.449219 1.253906 24.988281 1.25 26.53125 1.246094 C 27.859375 1.242188 29.1875 1.242188 30.515625 1.242188 C 31.308594 1.242188 32.097656 1.242188 32.890625 1.242188 C 33.636719 1.238281 34.378906 1.242188 35.125 1.242188 C 35.394531 1.242188 35.667969 1.242188 35.9375 1.242188 C 39.398438 1.222656 42.46875 2.03125 45 4.5 C 46.988281 6.769531 48.058594 9.15625 48.054688 12.164062 C 48.054688 12.34375 48.058594 12.523438 48.058594 12.707031 C 48.0625 13.296875 48.0625 13.886719 48.0625 14.472656 C 48.066406 14.886719 48.066406 15.300781 48.066406 15.710938 C 48.070312 16.574219 48.070312 17.4375 48.070312 18.304688 C 48.070312 19.402344 48.074219 20.503906 48.082031 21.605469 C 48.085938 22.457031 48.085938 23.308594 48.085938 24.160156 C 48.085938 24.566406 48.085938 24.972656 48.089844 25.378906 C 48.117188 29.238281 47.515625 32.246094 44.761719 35.152344 C 43.796875 36.042969 42.730469 36.828125 41.4375 37.125 C 41.488281 37.34375 41.488281 37.34375 41.539062 37.566406 C 41.6875 38.230469 41.839844 38.894531 41.988281 39.5625 C 42.039062 39.792969 42.09375 40.019531 42.144531 40.253906 C 42.953125 43.851562 42.953125 43.851562 42.375 45.1875 C 41.714844 46.011719 40.976562 46.574219 39.917969 46.753906 C 38.171875 46.863281 36.964844 45.660156 35.695312 44.601562 C 35.429688 44.382812 35.167969 44.167969 34.902344 43.949219 C 34.773438 43.84375 34.640625 43.734375 34.507812 43.621094 C 33.949219 43.167969 33.382812 42.726562 32.8125 42.28125 C 31.691406 41.40625 30.585938 40.511719 29.480469 39.605469 C 29.363281 39.507812 29.242188 39.410156 29.121094 39.308594 C 29.011719 39.222656 28.90625 39.136719 28.796875 39.046875 C 27.613281 38.117188 26.144531 38.304688 24.695312 38.273438 C 24.335938 38.265625 23.980469 38.253906 23.621094 38.230469 C 21.53125 38.121094 20.027344 38.195312 18.390625 39.601562 C 18.046875 39.917969 17.710938 40.238281 17.382812 40.566406 C 16.871094 41.058594 16.3125 41.480469 15.75 41.90625 C 14.914062 42.554688 14.089844 43.21875 13.273438 43.894531 C 9.777344 46.761719 9.777344 46.761719 8.144531 46.738281 C 7.117188 46.621094 6.410156 46.1875 5.730469 45.421875 C 4.929688 43.757812 5.417969 42.160156 5.789062 40.441406 C 5.84375 40.183594 5.894531 39.921875 5.949219 39.664062 C 6.332031 37.8125 6.332031 37.8125 6.5625 37.125 C 6.457031 37.105469 6.355469 37.085938 6.25 37.066406 C 3.898438 36.367188 2.257812 34.304688 1.125 32.25 C 0.3125 30.539062 -0.0273438 29.152344 -0.03125 27.273438 C -0.0351562 27.09375 -0.0351562 26.914062 -0.0351562 26.730469 C -0.0390625 26.136719 -0.0429688 25.546875 -0.0429688 24.957031 C -0.046875 24.753906 -0.046875 24.546875 -0.046875 24.339844 C -0.0507812 23.265625 -0.0546875 22.191406 -0.0546875 21.117188 C -0.0585938 20.007812 -0.0664062 18.902344 -0.0703125 17.796875 C -0.0742188 16.945312 -0.078125 16.089844 -0.078125 15.234375 C -0.078125 14.828125 -0.0820312 14.421875 -0.0859375 14.015625 C -0.113281 10.460938 0.324219 7.363281 2.839844 4.632812 C 5.703125 1.96875 8.585938 1.253906 12.386719 1.261719 Z M 3.703125 5.78125 C 3.128906 6.492188 2.683594 7.261719 2.25 8.0625 C 2.140625 8.253906 2.035156 8.441406 1.921875 8.636719 C 1.191406 10.351562 1.253906 12.121094 1.253906 13.949219 C 1.253906 14.246094 1.253906 14.546875 1.253906 14.84375 C 1.25 15.46875 1.25 16.09375 1.253906 16.714844 C 1.253906 17.507812 1.25 18.304688 1.246094 19.097656 C 1.246094 19.710938 1.246094 20.328125 1.246094 20.945312 C 1.246094 21.238281 1.246094 21.53125 1.242188 21.820312 C 1.222656 25.191406 1.820312 27.976562 4.195312 30.496094 C 6.097656 32.207031 8.375 33.207031 10.929688 33.214844 C 11.289062 33.214844 11.289062 33.214844 11.652344 33.214844 C 11.914062 33.214844 12.175781 33.214844 12.441406 33.21875 C 12.71875 33.21875 12.996094 33.21875 13.273438 33.21875 C 14.027344 33.222656 14.78125 33.222656 15.53125 33.222656 C 16.003906 33.226562 16.476562 33.226562 16.945312 33.226562 C 18.421875 33.230469 19.898438 33.230469 21.375 33.230469 C 23.074219 33.234375 24.777344 33.238281 26.476562 33.242188 C 27.792969 33.246094 29.109375 33.25 30.425781 33.25 C 31.210938 33.25 31.996094 33.25 32.78125 33.253906 C 33.523438 33.257812 34.261719 33.257812 35 33.253906 C 35.273438 33.253906 35.542969 33.257812 35.8125 33.257812 C 39.042969 33.277344 41.777344 32.449219 44.148438 30.167969 C 46.363281 27.644531 46.777344 24.824219 46.761719 21.566406 C 46.761719 21.265625 46.761719 20.960938 46.761719 20.660156 C 46.765625 20.027344 46.761719 19.394531 46.761719 18.765625 C 46.757812 17.960938 46.761719 17.160156 46.761719 16.355469 C 46.765625 15.730469 46.761719 15.105469 46.761719 14.480469 C 46.761719 14.183594 46.761719 13.890625 46.761719 13.59375 C 46.773438 10.324219 46.082031 7.734375 43.777344 5.304688 C 41.851562 3.527344 39.472656 2.605469 36.863281 2.597656 C 36.503906 2.597656 36.503906 2.597656 36.140625 2.59375 C 35.878906 2.59375 35.617188 2.59375 35.359375 2.59375 C 35.082031 2.589844 34.804688 2.589844 34.527344 2.589844 C 33.617188 2.585938 32.710938 2.582031 31.804688 2.582031 C 31.488281 2.578125 31.175781 2.578125 30.863281 2.578125 C 29.390625 2.574219 27.917969 2.570312 26.441406 2.570312 C 24.746094 2.566406 23.050781 2.5625 21.355469 2.554688 C 20.042969 2.550781 18.726562 2.546875 17.414062 2.546875 C 16.628906 2.546875 15.847656 2.546875 15.066406 2.539062 C 14.324219 2.535156 13.585938 2.535156 12.851562 2.535156 C 12.582031 2.535156 12.3125 2.535156 12.042969 2.53125 C 8.871094 2.503906 5.917969 3.40625 3.703125 5.78125 Z M 3.703125 5.78125 "/>
<path style=" stroke:none;fill-rule:nonzero;fill:rgb(1.176471%,0.392157%,0%);fill-opacity:1;" d="M 12.386719 1.261719 C 12.667969 1.261719 12.949219 1.257812 13.230469 1.257812 C 13.988281 1.253906 14.746094 1.253906 15.503906 1.253906 C 16.136719 1.253906 16.773438 1.253906 17.410156 1.253906 C 18.910156 1.25 20.40625 1.25 21.90625 1.253906 C 23.449219 1.253906 24.988281 1.25 26.53125 1.246094 C 27.859375 1.242188 29.1875 1.242188 30.515625 1.242188 C 31.308594 1.242188 32.097656 1.242188 32.890625 1.242188 C 33.636719 1.238281 34.378906 1.242188 35.125 1.242188 C 35.394531 1.242188 35.667969 1.242188 35.9375 1.242188 C 39.398438 1.222656 42.46875 2.03125 45 4.5 C 46.988281 6.769531 48.058594 9.15625 48.054688 12.164062 C 48.054688 12.34375 48.058594 12.523438 48.058594 12.707031 C 48.0625 13.296875 48.0625 13.886719 48.0625 14.472656 C 48.066406 14.886719 48.066406 15.300781 48.066406 15.710938 C 48.070312 16.574219 48.070312 17.4375 48.070312 18.304688 C 48.070312 19.402344 48.074219 20.503906 48.082031 21.605469 C 48.085938 22.457031 48.085938 23.308594 48.085938 24.160156 C 48.085938 24.566406 48.085938 24.972656 48.089844 25.378906 C 48.117188 29.238281 47.515625 32.246094 44.761719 35.152344 C 43.796875 36.042969 42.730469 36.828125 41.4375 37.125 C 41.488281 37.34375 41.488281 37.34375 41.539062 37.566406 C 41.6875 38.230469 41.839844 38.894531 41.988281 39.5625 C 42.039062 39.792969 42.09375 40.019531 42.144531 40.253906 C 42.953125 43.851562 42.953125 43.851562 42.375 45.1875 C 41.714844 46.011719 40.976562 46.574219 39.917969 46.753906 C 38.171875 46.863281 36.964844 45.660156 35.695312 44.601562 C 35.429688 44.382812 35.167969 44.167969 34.902344 43.949219 C 34.773438 43.84375 34.640625 43.734375 34.507812 43.621094 C 33.949219 43.167969 33.382812 42.726562 32.8125 42.28125 C 31.691406 41.40625 30.585938 40.511719 29.480469 39.605469 C 29.363281 39.507812 29.242188 39.410156 29.121094 39.308594 C 29.011719 39.222656 28.90625 39.136719 28.796875 39.046875 C 27.613281 38.117188 26.144531 38.304688 24.695312 38.273438 C 24.335938 38.265625 23.980469 38.253906 23.621094 38.230469 C 21.53125 38.121094 20.027344 38.195312 18.390625 39.601562 C 18.046875 39.917969 17.710938 40.238281 17.382812 40.566406 C 16.871094 41.058594 16.3125 41.480469 15.75 41.90625 C 14.914062 42.554688 14.089844 43.21875 13.273438 43.894531 C 9.777344 46.761719 9.777344 46.761719 8.144531 46.738281 C 7.117188 46.621094 6.410156 46.1875 5.730469 45.421875 C 4.929688 43.757812 5.417969 42.160156 5.789062 40.441406 C 5.84375 40.183594 5.894531 39.921875 5.949219 39.664062 C 6.332031 37.8125 6.332031 37.8125 6.5625 37.125 C 6.457031 37.105469 6.355469 37.085938 6.25 37.066406 C 3.898438 36.367188 2.257812 34.304688 1.125 32.25 C 0.3125 30.539062 -0.0273438 29.152344 -0.03125 27.273438 C -0.0351562 27.09375 -0.0351562 26.914062 -0.0351562 26.730469 C -0.0390625 26.136719 -0.0429688 25.546875 -0.0429688 24.957031 C -0.046875 24.753906 -0.046875 24.546875 -0.046875 24.339844 C -0.0507812 23.265625 -0.0546875 22.191406 -0.0546875 21.117188 C -0.0585938 20.007812 -0.0664062 18.902344 -0.0703125 17.796875 C -0.0742188 16.945312 -0.078125 16.089844 -0.078125 15.234375 C -0.078125 14.828125 -0.0820312 14.421875 -0.0859375 14.015625 C -0.113281 10.460938 0.324219 7.363281 2.839844 4.632812 C 5.703125 1.96875 8.585938 1.253906 12.386719 1.261719 Z M 3.703125 5.78125 C 3.128906 6.492188 2.683594 7.261719 2.25 8.0625 C 2.140625 8.253906 2.035156 8.441406 1.921875 8.636719 C 1.363281 9.949219 1.257812 11.273438 1.257812 12.683594 C 1.257812 12.855469 1.253906 13.027344 1.253906 13.203125 C 1.25 13.769531 1.25 14.332031 1.25 14.898438 C 1.246094 15.292969 1.246094 15.6875 1.246094 16.085938 C 1.246094 16.914062 1.242188 17.742188 1.242188 18.570312 C 1.242188 19.625 1.238281 20.679688 1.230469 21.734375 C 1.226562 22.554688 1.226562 23.371094 1.226562 24.1875 C 1.226562 24.578125 1.226562 24.964844 1.222656 25.355469 C 1.199219 28.6875 1.667969 31.4375 3.984375 34.003906 C 5.117188 35.074219 6.429688 35.8125 7.875 36.375 C 7.703125 37.652344 7.484375 38.90625 7.203125 40.164062 C 6.550781 42.546875 6.550781 42.546875 7.101562 44.824219 C 7.578125 45.257812 7.761719 45.363281 8.40625 45.421875 C 9.101562 45.367188 9.355469 45.210938 9.902344 44.789062 C 10.082031 44.652344 10.257812 44.515625 10.441406 44.375 C 11.453125 43.566406 12.453125 42.738281 13.449219 41.910156 C 14.242188 41.25 15.046875 40.601562 15.871094 39.980469 C 16.433594 39.546875 16.964844 39.113281 17.464844 38.605469 C 19.128906 37.003906 20.558594 36.613281 22.84375 36.613281 C 23.03125 36.617188 23.21875 36.621094 23.410156 36.625 C 23.976562 36.632812 24.539062 36.617188 25.105469 36.597656 C 27.601562 36.574219 29.03125 37.15625 30.824219 38.898438 C 30.992188 39.066406 30.992188 39.066406 31.164062 39.238281 C 31.683594 39.738281 32.25 40.171875 32.824219 40.605469 C 33.652344 41.25 34.46875 41.902344 35.28125 42.570312 C 36.710938 43.742188 36.710938 43.742188 38.179688 44.871094 C 38.378906 45.023438 38.378906 45.023438 38.585938 45.171875 C 39.128906 45.4375 39.527344 45.433594 40.125 45.375 C 40.628906 45.035156 40.976562 44.796875 41.25 44.25 C 41.421875 42.65625 41.03125 41.121094 40.6875 39.574219 C 40.582031 39.089844 40.476562 38.601562 40.371094 38.117188 C 40.300781 37.796875 40.300781 37.796875 40.230469 37.472656 C 40.125 36.9375 40.125 36.9375 40.125 36.375 C 40.296875 36.296875 40.46875 36.214844 40.648438 36.132812 C 43.492188 34.789062 45.136719 33.097656 46.324219 30.125 C 46.566406 29.441406 46.710938 28.84375 46.714844 28.113281 C 46.714844 27.964844 46.714844 27.816406 46.714844 27.664062 C 46.714844 27.5 46.714844 27.335938 46.71875 27.167969 C 46.71875 26.996094 46.71875 26.824219 46.71875 26.648438 C 46.722656 26.078125 46.722656 25.507812 46.726562 24.9375 C 46.726562 24.539062 46.726562 24.140625 46.726562 23.742188 C 46.730469 22.910156 46.730469 22.074219 46.730469 21.242188 C 46.734375 20.175781 46.738281 19.109375 46.742188 18.046875 C 46.746094 17.226562 46.75 16.402344 46.75 15.582031 C 46.75 15.1875 46.75 14.796875 46.753906 14.402344 C 46.773438 10.808594 46.351562 8.019531 43.777344 5.304688 C 41.851562 3.527344 39.472656 2.605469 36.863281 2.597656 C 36.503906 2.597656 36.503906 2.597656 36.140625 2.59375 C 35.878906 2.59375 35.617188 2.59375 35.359375 2.59375 C 35.082031 2.589844 34.804688 2.589844 34.527344 2.589844 C 33.617188 2.585938 32.710938 2.582031 31.804688 2.582031 C 31.488281 2.578125 31.175781 2.578125 30.863281 2.578125 C 29.390625 2.574219 27.917969 2.570312 26.441406 2.570312 C 24.746094 2.566406 23.050781 2.5625 21.355469 2.554688 C 20.042969 2.550781 18.726562 2.546875 17.414062 2.546875 C 16.628906 2.546875 15.847656 2.546875 15.066406 2.539062 C 14.324219 2.535156 13.585938 2.535156 12.851562 2.535156 C 12.582031 2.535156 12.3125 2.535156 12.042969 2.53125 C 8.871094 2.503906 5.917969 3.40625 3.703125 5.78125 Z M 3.703125 5.78125 "/>
<path style=" stroke:none;fill-rule:nonzero;fill:rgb(3.529412%,2.745098%,0.784314%);fill-opacity:1;" d="M 35.386719 15.628906 C 36.175781 16.199219 36.695312 16.949219 37.125 17.8125 C 37.289062 19.433594 37.183594 20.792969 36.1875 22.125 C 35.023438 23.226562 33.894531 23.324219 32.347656 23.3125 C 31.179688 23.199219 30.550781 22.683594 29.753906 21.867188 C 28.96875 20.644531 28.675781 19.640625 28.875 18.1875 C 29.28125 16.769531 30.339844 15.847656 31.570312 15.105469 C 32.984375 14.800781 34.113281 14.929688 35.386719 15.628906 Z M 35.386719 15.628906 "/>
<path style=" stroke:none;fill-rule:nonzero;fill:rgb(3.137255%,2.352941%,0.784314%);fill-opacity:1;" d="M 16.722656 15.386719 C 17.765625 15.957031 18.40625 16.671875 19.007812 17.683594 C 19.335938 19.09375 19.195312 20.238281 18.496094 21.511719 C 17.886719 22.355469 17.105469 22.921875 16.125 23.25 C 14.648438 23.402344 13.355469 23.449219 12.160156 22.492188 C 11.191406 21.46875 10.820312 20.414062 10.746094 19.019531 C 10.800781 17.800781 11.140625 16.992188 12 16.125 C 13.46875 14.972656 14.980469 14.585938 16.722656 15.386719 Z M 16.722656 15.386719 "/>
<path style=" stroke:none;fill-rule:nonzero;fill:rgb(3.137255%,2.352941%,1.176471%);fill-opacity:1;" d="M 26.082031 15.484375 C 26.945312 16.128906 27.726562 16.992188 28.125 18 C 28.273438 19.222656 28.238281 20.5 27.5625 21.5625 C 26.699219 22.507812 25.847656 23.164062 24.554688 23.320312 C 22.960938 23.351562 22.050781 23.136719 20.902344 22.039062 C 19.941406 20.988281 19.773438 19.890625 19.804688 18.515625 C 19.980469 17.242188 20.832031 16.367188 21.8125 15.597656 C 23.085938 14.695312 24.738281 14.722656 26.082031 15.484375 Z M 26.082031 15.484375 "/>
<path style=" stroke:none;fill-rule:nonzero;fill:rgb(87.450981%,89.411765%,80.784315%);fill-opacity:1;" d="M 16.160156 16.523438 C 16.886719 17.007812 17.417969 17.582031 17.8125 18.375 C 17.917969 19.246094 17.898438 19.894531 17.496094 20.683594 C 16.742188 21.558594 16.132812 22.058594 14.964844 22.195312 C 14.03125 22.101562 13.449219 21.8125 12.75 21.1875 C 12.171875 20.460938 11.9375 19.757812 11.976562 18.832031 C 12.132812 17.90625 12.605469 17.285156 13.3125 16.6875 C 14.242188 16.128906 15.164062 16.171875 16.160156 16.523438 Z M 16.160156 16.523438 "/>
<path style=" stroke:none;fill-rule:nonzero;fill:rgb(87.450981%,89.803922%,80.784315%);fill-opacity:1;" d="M 33.9375 16.3125 C 34.558594 16.628906 34.558594 16.628906 35.0625 17.0625 C 35.207031 17.1875 35.355469 17.308594 35.507812 17.4375 C 36 18.34375 35.945312 19.242188 35.8125 20.25 C 35.414062 21.183594 34.855469 21.597656 33.953125 21.992188 C 33.34375 22.199219 32.882812 22.21875 32.25 22.125 C 31.261719 21.601562 30.546875 20.949219 30.1875 19.875 C 30.105469 18.882812 30.136719 18.195312 30.691406 17.351562 C 31.546875 16.351562 32.664062 16.082031 33.9375 16.3125 Z M 33.9375 16.3125 "/>
<path style=" stroke:none;fill-rule:nonzero;fill:rgb(87.450981%,89.803922%,80.784315%);fill-opacity:1;" d="M 24.964844 16.441406 C 25.863281 16.839844 26.402344 17.269531 26.8125 18.1875 C 26.980469 19.238281 26.925781 20.199219 26.324219 21.097656 C 25.648438 21.8125 24.847656 22.085938 23.894531 22.21875 C 22.78125 22.054688 22.171875 21.675781 21.480469 20.789062 C 21.0625 19.949219 21.039062 19.101562 21.1875 18.1875 C 21.945312 16.617188 23.285156 15.898438 24.964844 16.441406 Z M 24.964844 16.441406 "/>
</g>
</svg>
