<?xml version="1.0" encoding="UTF-8"?>
<svg xmlns="http://www.w3.org/2000/svg" xmlns:xlink="http://www.w3.org/1999/xlink" width="48" height="48" viewBox="0 0 48 48" version="1.1">
<g id="surface1">
<path style=" stroke:none;fill-rule:nonzero;fill:rgb(94.901961%,34.901962%,23.137255%);fill-opacity:1;" d="M 33.75 0 C 34.738281 0 35.730469 0 36.75 0 C 36.960938 4.40625 35.101562 8.628906 33.515625 12.644531 C 30.089844 21.359375 31.121094 29.464844 34.5 37.957031 C 35.8125 41.253906 36.800781 44.417969 36.75 48 C 35.761719 48 34.769531 48 33.75 48 C 33.730469 47.773438 33.707031 47.546875 33.6875 47.316406 C 33.257812 43.402344 31.847656 39.824219 30.394531 36.191406 C 26.714844 26.898438 28.027344 17.90625 31.5 8.8125 C 32.621094 5.867188 33.398438 3.140625 33.75 0 Z M 33.75 0 "/>
<path style=" stroke:none;fill-rule:nonzero;fill:rgb(94.901961%,34.901962%,23.137255%);fill-opacity:1;" d="M 11.25 0 C 12.238281 0 13.230469 0 14.25 0 C 14.273438 0.234375 14.296875 0.464844 14.320312 0.703125 C 14.757812 4.546875 16.128906 7.996094 17.527344 11.578125 C 21.1875 21.027344 20.089844 30.128906 16.429688 39.382812 C 15.546875 41.613281 14.777344 43.789062 14.484375 46.183594 C 14.460938 46.359375 14.4375 46.539062 14.414062 46.71875 C 14.355469 47.148438 14.300781 47.574219 14.25 48 C 13.261719 48 12.269531 48 11.25 48 C 11.0625 44.09375 12.535156 40.472656 13.90625 36.894531 C 17.511719 27.476562 17.207031 19.363281 13.5 10.042969 C 12.1875 6.746094 11.199219 3.582031 11.25 0 Z M 11.25 0 "/>
<path style=" stroke:none;fill-rule:nonzero;fill:rgb(94.901961%,36.078432%,23.529412%);fill-opacity:1;" d="M 22.5 0 C 23.488281 0 24.480469 0 25.5 0 C 25.5 15.839844 25.5 31.679688 25.5 48 C 24.511719 48 23.519531 48 22.5 48 C 22.5 32.160156 22.5 16.320312 22.5 0 Z M 22.5 0 "/>
<path style=" stroke:none;fill-rule:nonzero;fill:rgb(22.745098%,28.627452%,31.37255%);fill-opacity:1;" d="M 42.894531 13.136719 C 43.519531 13.398438 43.945312 13.859375 44.417969 14.328125 C 44.523438 14.429688 44.625 14.535156 44.730469 14.640625 C 44.949219 14.855469 45.164062 15.070312 45.382812 15.289062 C 45.714844 15.621094 46.050781 15.949219 46.386719 16.277344 C 46.597656 16.484375 46.808594 16.699219 47.019531 16.90625 C 47.121094 17.003906 47.222656 17.105469 47.324219 17.203125 C 47.601562 17.488281 47.601562 17.488281 48 18 C 47.910156 18.855469 47.316406 19.316406 46.726562 19.890625 C 46.621094 19.996094 46.511719 20.101562 46.402344 20.214844 C 46.054688 20.554688 45.707031 20.894531 45.363281 21.234375 C 45.128906 21.464844 44.894531 21.695312 44.660156 21.929688 C 44.089844 22.496094 43.511719 23.058594 42.9375 23.625 C 42.296875 23.324219 41.882812 22.988281 41.390625 22.476562 C 41.257812 22.339844 41.125 22.203125 40.988281 22.0625 C 40.890625 21.960938 40.789062 21.855469 40.6875 21.75 C 41.011719 21.042969 41.4375 20.597656 42 20.0625 C 40.644531 19.972656 39.554688 19.980469 38.4375 20.8125 C 37.425781 21.742188 36.988281 22.609375 36.878906 23.988281 C 36.914062 25.121094 37.390625 26.09375 38.144531 26.9375 C 39.261719 27.894531 40.597656 28.050781 42.011719 28.050781 C 42.269531 28.058594 42.269531 28.058594 42.535156 28.0625 C 43.082031 28.070312 43.625 28.074219 44.167969 28.078125 C 44.539062 28.082031 44.910156 28.089844 45.285156 28.09375 C 46.1875 28.109375 47.09375 28.117188 48 28.125 C 48 29.113281 48 30.105469 48 31.125 C 46.894531 31.144531 45.792969 31.15625 44.6875 31.164062 C 44.3125 31.167969 43.941406 31.175781 43.566406 31.183594 C 38.121094 31.273438 38.121094 31.273438 36 29.25 C 34.488281 27.78125 33.738281 26.175781 33.703125 24.058594 C 33.726562 22.0625 34.378906 20.460938 35.71875 18.984375 C 35.871094 18.84375 36.027344 18.707031 36.1875 18.5625 C 36.394531 18.371094 36.394531 18.371094 36.609375 18.175781 C 37.917969 17.253906 39.25 16.878906 40.828125 16.769531 C 41.15625 16.746094 41.15625 16.746094 41.492188 16.722656 C 41.660156 16.710938 41.828125 16.699219 42 16.6875 C 41.566406 16.253906 41.132812 15.820312 40.6875 15.375 C 41.019531 14.710938 41.285156 14.335938 41.789062 13.816406 C 41.980469 13.613281 41.980469 13.613281 42.175781 13.410156 C 42.5625 13.125 42.5625 13.125 42.894531 13.136719 Z M 42.894531 13.136719 "/>
<path style=" stroke:none;fill-rule:nonzero;fill:rgb(34.509805%,41.960785%,45.490196%);fill-opacity:1;" d="M 5.289062 13.132812 C 5.789062 13.398438 6.125 13.761719 6.515625 14.167969 C 6.664062 14.320312 6.816406 14.476562 6.96875 14.636719 C 7.082031 14.757812 7.195312 14.878906 7.3125 15 C 7.019531 15.714844 6.554688 16.160156 6 16.6875 C 6.308594 16.707031 6.308594 16.707031 6.617188 16.730469 C 8.859375 16.917969 10.878906 17.375 12.460938 19.113281 C 14 21.179688 14.308594 23.171875 14.0625 25.6875 C 13.652344 27.425781 12.671875 28.871094 11.21875 29.917969 C 9.609375 30.875 7.96875 31.210938 6.117188 31.179688 C 5.851562 31.179688 5.851562 31.179688 5.582031 31.179688 C 5.027344 31.175781 4.46875 31.167969 3.914062 31.160156 C 3.535156 31.15625 3.15625 31.152344 2.773438 31.152344 C 1.851562 31.144531 0.925781 31.136719 0 31.125 C 0 30.136719 0 29.144531 0 28.125 C 0.222656 28.121094 0.449219 28.121094 0.683594 28.117188 C 1.523438 28.105469 2.363281 28.09375 3.203125 28.074219 C 3.5625 28.070312 3.925781 28.0625 4.289062 28.058594 C 4.8125 28.054688 5.335938 28.042969 5.859375 28.035156 C 6.019531 28.03125 6.179688 28.03125 6.347656 28.03125 C 7.777344 27.996094 9.089844 27.6875 10.125 26.625 C 10.972656 25.476562 11.058594 24.261719 10.875 22.875 C 10.546875 21.761719 9.949219 21.082031 9 20.4375 C 8.011719 19.964844 7.074219 20.035156 6 20.0625 C 6.433594 20.496094 6.867188 20.929688 7.3125 21.375 C 6.96875 22.0625 6.703125 22.398438 6.164062 22.921875 C 6.027344 23.054688 5.890625 23.1875 5.75 23.324219 C 5.648438 23.421875 5.542969 23.523438 5.4375 23.625 C 4.675781 23.320312 4.15625 22.78125 3.582031 22.214844 C 3.480469 22.113281 3.375 22.011719 3.269531 21.90625 C 3.050781 21.691406 2.835938 21.476562 2.617188 21.257812 C 2.285156 20.929688 1.949219 20.601562 1.613281 20.277344 C 1.402344 20.066406 1.191406 19.855469 0.980469 19.648438 C 0.878906 19.550781 0.78125 19.453125 0.675781 19.351562 C 0.0117188 18.679688 0.0117188 18.679688 -0.03125 18.1875 C 0.300781 17.617188 0.742188 17.171875 1.203125 16.707031 C 1.304688 16.605469 1.410156 16.5 1.515625 16.394531 C 1.730469 16.175781 1.945312 15.957031 2.164062 15.742188 C 2.496094 15.410156 2.824219 15.074219 3.152344 14.738281 C 3.359375 14.527344 3.574219 14.316406 3.78125 14.105469 C 3.878906 14.003906 3.980469 13.902344 4.078125 13.800781 C 4.769531 13.121094 4.769531 13.121094 5.289062 13.132812 Z M 5.289062 13.132812 "/>
<path style=" stroke:none;fill-rule:nonzero;fill:rgb(100%,56.078434%,24.705882%);fill-opacity:1;" d="M 22.5 0 C 22.996094 0 23.488281 0 24 0 C 24 15.839844 24 31.679688 24 48 C 23.503906 48 23.011719 48 22.5 48 C 22.5 32.160156 22.5 16.320312 22.5 0 Z M 22.5 0 "/>
</g>
</svg>
