<?xml version="1.0" encoding="UTF-8"?>
<svg xmlns="http://www.w3.org/2000/svg" xmlns:xlink="http://www.w3.org/1999/xlink" width="48" height="48" viewBox="0 0 48 48" version="1.1">
<g id="surface1">
<path style=" stroke:none;fill-rule:nonzero;fill:rgb(89.411765%,89.803922%,91.764706%);fill-opacity:1;" d="M 4.136719 0.722656 C 4.3125 0.722656 4.488281 0.722656 4.667969 0.722656 C 5.261719 0.71875 5.855469 0.71875 6.445312 0.71875 C 6.867188 0.71875 7.292969 0.71875 7.714844 0.714844 C 8.867188 0.714844 10.019531 0.710938 11.171875 0.710938 C 11.890625 0.710938 12.609375 0.710938 13.328125 0.710938 C 15.320312 0.707031 17.3125 0.707031 19.304688 0.703125 C 19.429688 0.703125 19.558594 0.703125 19.6875 0.703125 C 19.816406 0.703125 19.945312 0.703125 20.078125 0.703125 C 20.335938 0.703125 20.59375 0.703125 20.855469 0.703125 C 20.980469 0.703125 21.109375 0.703125 21.242188 0.703125 C 23.324219 0.703125 25.402344 0.699219 27.484375 0.695312 C 29.621094 0.691406 31.757812 0.691406 33.894531 0.691406 C 35.09375 0.691406 36.292969 0.6875 37.496094 0.683594 C 38.621094 0.683594 39.75 0.679688 40.878906 0.683594 C 41.292969 0.683594 41.707031 0.683594 42.121094 0.679688 C 42.6875 0.679688 43.253906 0.679688 43.816406 0.679688 C 44.0625 0.679688 44.0625 0.679688 44.316406 0.675781 C 45.390625 0.6875 45.996094 0.882812 46.828125 1.59375 C 47.429688 2.3125 47.277344 3.253906 47.277344 4.136719 C 47.277344 4.3125 47.277344 4.488281 47.277344 4.667969 C 47.28125 5.261719 47.28125 5.855469 47.28125 6.445312 C 47.28125 6.867188 47.28125 7.292969 47.285156 7.714844 C 47.285156 8.867188 47.289062 10.019531 47.289062 11.171875 C 47.289062 11.890625 47.289062 12.609375 47.289062 13.328125 C 47.292969 15.320312 47.292969 17.3125 47.292969 19.304688 C 47.292969 19.496094 47.292969 19.496094 47.292969 19.6875 C 47.292969 19.816406 47.292969 19.945312 47.292969 20.078125 C 47.292969 20.335938 47.292969 20.59375 47.292969 20.855469 C 47.292969 21.046875 47.292969 21.046875 47.292969 21.242188 C 47.296875 23.324219 47.296875 25.402344 47.304688 27.484375 C 47.308594 29.621094 47.308594 31.757812 47.308594 33.894531 C 47.3125 35.09375 47.3125 36.292969 47.316406 37.496094 C 47.320312 38.621094 47.320312 39.75 47.316406 40.878906 C 47.316406 41.292969 47.316406 41.707031 47.320312 42.121094 C 47.320312 42.6875 47.320312 43.25 47.320312 43.816406 C 47.320312 44.0625 47.320312 44.0625 47.324219 44.316406 C 47.316406 45.390625 47.117188 45.996094 46.40625 46.828125 C 45.6875 47.429688 44.746094 47.277344 43.863281 47.277344 C 43.6875 47.277344 43.511719 47.277344 43.332031 47.277344 C 42.738281 47.28125 42.144531 47.28125 41.554688 47.28125 C 41.132812 47.28125 40.707031 47.28125 40.285156 47.285156 C 39.132812 47.285156 37.980469 47.289062 36.828125 47.289062 C 36.109375 47.289062 35.390625 47.289062 34.671875 47.289062 C 32.679688 47.292969 30.6875 47.292969 28.695312 47.292969 C 28.570312 47.292969 28.441406 47.292969 28.308594 47.292969 C 28.183594 47.292969 28.054688 47.292969 27.921875 47.292969 C 27.664062 47.292969 27.40625 47.292969 27.144531 47.292969 C 27.019531 47.292969 26.890625 47.292969 26.757812 47.292969 C 24.675781 47.296875 22.59375 47.296875 20.515625 47.304688 C 18.378906 47.308594 16.242188 47.308594 14.105469 47.308594 C 12.90625 47.308594 11.707031 47.3125 10.503906 47.316406 C 9.378906 47.316406 8.25 47.320312 7.121094 47.316406 C 6.707031 47.316406 6.292969 47.316406 5.878906 47.320312 C 5.3125 47.320312 4.75 47.320312 4.183594 47.320312 C 4.019531 47.320312 3.855469 47.320312 3.683594 47.324219 C 2.609375 47.316406 2.003906 47.117188 1.171875 46.40625 C 0.570312 45.6875 0.722656 44.746094 0.722656 43.863281 C 0.722656 43.6875 0.722656 43.511719 0.722656 43.332031 C 0.71875 42.738281 0.71875 42.144531 0.71875 41.554688 C 0.71875 41.132812 0.71875 40.707031 0.71875 40.285156 C 0.714844 39.132812 0.714844 37.980469 0.710938 36.828125 C 0.710938 36.109375 0.710938 35.386719 0.710938 34.671875 C 0.707031 32.679688 0.707031 30.6875 0.703125 28.695312 C 0.703125 28.570312 0.703125 28.441406 0.703125 28.308594 C 0.703125 28.183594 0.703125 28.054688 0.703125 27.921875 C 0.703125 27.664062 0.703125 27.40625 0.703125 27.144531 C 0.703125 26.953125 0.703125 26.953125 0.703125 26.757812 C 0.703125 24.675781 0.699219 22.59375 0.699219 20.515625 C 0.691406 18.375 0.691406 16.242188 0.691406 14.105469 C 0.691406 12.90625 0.6875 11.707031 0.683594 10.503906 C 0.683594 9.378906 0.679688 8.25 0.683594 7.121094 C 0.683594 6.707031 0.683594 6.292969 0.679688 5.878906 C 0.679688 5.3125 0.679688 4.75 0.679688 4.183594 C 0.679688 4.019531 0.679688 3.855469 0.675781 3.683594 C 0.6875 2.609375 0.882812 2.003906 1.59375 1.171875 C 2.3125 0.570312 3.253906 0.722656 4.136719 0.722656 Z M 4.136719 0.722656 "/>
<path style=" stroke:none;fill-rule:nonzero;fill:rgb(10.588235%,16.078432%,39.607844%);fill-opacity:1;" d="M 4.136719 0.722656 C 4.3125 0.722656 4.488281 0.722656 4.667969 0.722656 C 5.261719 0.71875 5.855469 0.71875 6.445312 0.71875 C 6.867188 0.71875 7.292969 0.71875 7.714844 0.714844 C 8.867188 0.714844 10.019531 0.710938 11.171875 0.710938 C 11.890625 0.710938 12.609375 0.710938 13.328125 0.710938 C 15.320312 0.707031 17.3125 0.707031 19.304688 0.703125 C 19.429688 0.703125 19.558594 0.703125 19.6875 0.703125 C 19.816406 0.703125 19.945312 0.703125 20.078125 0.703125 C 20.335938 0.703125 20.59375 0.703125 20.855469 0.703125 C 20.980469 0.703125 21.109375 0.703125 21.242188 0.703125 C 23.324219 0.703125 25.402344 0.699219 27.484375 0.695312 C 29.621094 0.691406 31.757812 0.691406 33.894531 0.691406 C 35.09375 0.691406 36.292969 0.6875 37.496094 0.683594 C 38.621094 0.683594 39.75 0.679688 40.878906 0.683594 C 41.292969 0.683594 41.707031 0.683594 42.121094 0.679688 C 42.6875 0.679688 43.253906 0.679688 43.816406 0.679688 C 44.0625 0.679688 44.0625 0.679688 44.316406 0.675781 C 45.390625 0.6875 45.996094 0.882812 46.828125 1.59375 C 47.976562 2.96875 47.25 6.214844 47.25 7.125 C 31.90625 7.125 16.558594 7.125 0.75 7.125 C 0.75 2.15625 0.75 2.15625 1.59375 1.171875 C 2.3125 0.570312 3.253906 0.722656 4.136719 0.722656 Z M 4.136719 0.722656 "/>
<path style=" stroke:none;fill-rule:nonzero;fill:rgb(66.666669%,68.627453%,73.725492%);fill-opacity:1;" d="M 9 10.5 C 9.375 10.492188 9.75 10.492188 10.125 10.5 C 10.480469 10.855469 10.335938 11.488281 10.335938 11.960938 C 10.339844 12.09375 10.339844 12.230469 10.339844 12.367188 C 10.339844 12.824219 10.339844 13.277344 10.339844 13.734375 C 10.339844 14.058594 10.339844 14.382812 10.34375 14.707031 C 10.34375 15.589844 10.34375 16.472656 10.34375 17.359375 C 10.34375 18.09375 10.34375 18.832031 10.347656 19.566406 C 10.347656 21.304688 10.347656 23.042969 10.347656 24.78125 C 10.347656 26.578125 10.351562 28.371094 10.351562 30.164062 C 10.355469 31.703125 10.355469 33.242188 10.355469 34.78125 C 10.355469 35.703125 10.355469 36.621094 10.359375 37.542969 C 10.359375 38.40625 10.359375 39.273438 10.359375 40.136719 C 10.359375 40.453125 10.359375 40.773438 10.359375 41.09375 C 10.359375 41.527344 10.359375 41.957031 10.359375 42.390625 C 10.359375 42.632812 10.359375 42.875 10.359375 43.125 C 10.3125 43.6875 10.3125 43.6875 9.9375 44.0625 C 9.457031 44.015625 9.457031 44.015625 9 43.875 C 8.722656 43.324219 8.789062 42.835938 8.789062 42.21875 C 8.789062 42.085938 8.789062 41.953125 8.789062 41.8125 C 8.785156 41.367188 8.789062 40.917969 8.789062 40.46875 C 8.789062 40.148438 8.789062 39.828125 8.789062 39.507812 C 8.785156 38.632812 8.785156 37.757812 8.789062 36.886719 C 8.789062 35.972656 8.789062 35.0625 8.785156 34.148438 C 8.785156 32.617188 8.785156 31.085938 8.789062 29.554688 C 8.789062 27.78125 8.789062 26.007812 8.789062 24.234375 C 8.785156 22.714844 8.785156 21.191406 8.789062 19.671875 C 8.789062 18.761719 8.789062 17.855469 8.785156 16.945312 C 8.785156 16.089844 8.785156 15.234375 8.789062 14.382812 C 8.789062 14.066406 8.789062 13.753906 8.789062 13.4375 C 8.785156 13.011719 8.789062 12.582031 8.789062 12.15625 C 8.789062 11.914062 8.789062 11.675781 8.789062 11.429688 C 8.8125 10.875 8.8125 10.875 9 10.5 Z M 9 10.5 "/>
<path style=" stroke:none;fill-rule:nonzero;fill:rgb(5.882353%,9.411765%,30.19608%);fill-opacity:1;" d="M 18.960938 3.164062 C 19.167969 3.164062 19.375 3.160156 19.589844 3.160156 C 19.820312 3.160156 20.050781 3.160156 20.289062 3.160156 C 20.648438 3.160156 20.648438 3.160156 21.015625 3.160156 C 21.679688 3.15625 22.34375 3.15625 23.003906 3.15625 C 23.558594 3.15625 24.109375 3.15625 24.660156 3.15625 C 25.960938 3.152344 27.265625 3.152344 28.566406 3.152344 C 29.914062 3.152344 31.257812 3.152344 32.605469 3.148438 C 33.757812 3.144531 34.910156 3.144531 36.0625 3.144531 C 36.753906 3.144531 37.445312 3.144531 38.132812 3.140625 C 38.898438 3.140625 39.667969 3.140625 40.4375 3.140625 C 40.667969 3.140625 40.898438 3.140625 41.136719 3.136719 C 41.449219 3.140625 41.449219 3.140625 41.765625 3.140625 C 41.949219 3.140625 42.132812 3.140625 42.320312 3.140625 C 42.75 3.1875 42.75 3.1875 43.125 3.5625 C 43.171875 4.03125 43.171875 4.03125 43.125 4.5 C 42.640625 4.984375 42.449219 4.921875 41.777344 4.921875 C 41.570312 4.925781 41.363281 4.925781 41.148438 4.929688 C 40.921875 4.925781 40.695312 4.925781 40.460938 4.925781 C 40.222656 4.925781 39.984375 4.929688 39.738281 4.929688 C 39.082031 4.933594 38.425781 4.933594 37.773438 4.933594 C 37.222656 4.929688 36.675781 4.933594 36.128906 4.933594 C 34.839844 4.9375 33.550781 4.9375 32.257812 4.933594 C 30.925781 4.933594 29.59375 4.9375 28.261719 4.941406 C 27.121094 4.941406 25.976562 4.945312 24.835938 4.945312 C 24.148438 4.945312 23.46875 4.945312 22.785156 4.945312 C 22.023438 4.949219 21.261719 4.949219 20.5 4.945312 C 20.273438 4.945312 20.046875 4.949219 19.8125 4.949219 C 19.605469 4.949219 19.398438 4.949219 19.183594 4.945312 C 19.003906 4.945312 18.824219 4.945312 18.640625 4.945312 C 18.1875 4.875 18.1875 4.875 17.839844 4.621094 C 17.625 4.3125 17.625 4.3125 17.671875 3.820312 C 17.917969 3.042969 18.1875 3.164062 18.960938 3.164062 Z M 18.960938 3.164062 "/>
<path style=" stroke:none;fill-rule:nonzero;fill:rgb(89.803922%,77.64706%,18.431373%);fill-opacity:1;" d="M 28.546875 39.160156 C 28.6875 39.160156 28.828125 39.160156 28.972656 39.160156 C 29.121094 39.160156 29.265625 39.15625 29.417969 39.15625 C 29.910156 39.15625 30.398438 39.15625 30.890625 39.15625 C 31.230469 39.15625 31.566406 39.15625 31.90625 39.15625 C 32.621094 39.152344 33.332031 39.152344 34.042969 39.152344 C 34.960938 39.152344 35.871094 39.152344 36.789062 39.148438 C 37.488281 39.144531 38.191406 39.144531 38.890625 39.144531 C 39.230469 39.144531 39.566406 39.144531 39.902344 39.140625 C 40.375 39.140625 40.84375 39.140625 41.316406 39.140625 C 41.457031 39.140625 41.597656 39.140625 41.742188 39.140625 C 42.707031 39.144531 42.707031 39.144531 43.125 39.5625 C 43.171875 40.03125 43.171875 40.03125 43.125 40.5 C 42.660156 40.964844 42.390625 40.921875 41.757812 40.929688 C 41.621094 40.929688 41.480469 40.925781 41.339844 40.925781 C 41.195312 40.929688 41.046875 40.929688 40.898438 40.929688 C 40.417969 40.933594 39.933594 40.933594 39.453125 40.933594 C 39.117188 40.933594 38.78125 40.933594 38.449219 40.933594 C 37.746094 40.9375 37.042969 40.9375 36.34375 40.933594 C 35.445312 40.933594 34.542969 40.9375 33.644531 40.941406 C 32.953125 40.941406 32.261719 40.941406 31.570312 40.941406 C 31.238281 40.941406 30.90625 40.941406 30.574219 40.945312 C 30.113281 40.949219 29.648438 40.945312 29.183594 40.945312 C 29.046875 40.945312 28.910156 40.945312 28.769531 40.949219 C 28.214844 40.941406 27.839844 40.9375 27.375 40.621094 C 27.1875 40.3125 27.1875 40.3125 27.234375 39.820312 C 27.480469 39.039062 27.773438 39.164062 28.546875 39.160156 Z M 28.546875 39.160156 "/>
<path style=" stroke:none;fill-rule:nonzero;fill:rgb(89.803922%,77.254903%,14.509805%);fill-opacity:1;" d="M 28.546875 26.410156 C 28.6875 26.410156 28.828125 26.410156 28.972656 26.410156 C 29.121094 26.410156 29.265625 26.40625 29.417969 26.40625 C 29.910156 26.40625 30.398438 26.40625 30.890625 26.40625 C 31.230469 26.40625 31.566406 26.40625 31.90625 26.40625 C 32.621094 26.402344 33.332031 26.402344 34.042969 26.402344 C 34.960938 26.402344 35.871094 26.402344 36.789062 26.398438 C 37.488281 26.394531 38.191406 26.394531 38.890625 26.394531 C 39.230469 26.394531 39.566406 26.394531 39.902344 26.390625 C 40.375 26.390625 40.84375 26.390625 41.316406 26.390625 C 41.457031 26.390625 41.597656 26.390625 41.742188 26.390625 C 42.707031 26.394531 42.707031 26.394531 43.125 26.8125 C 43.160156 27.292969 43.160156 27.292969 43.125 27.75 C 42.800781 28.074219 42.378906 27.960938 41.941406 27.964844 C 41.800781 27.964844 41.65625 27.964844 41.511719 27.964844 C 41.285156 27.964844 41.285156 27.964844 41.058594 27.964844 C 40.5625 27.96875 40.066406 27.96875 39.570312 27.96875 C 39.226562 27.96875 38.882812 27.96875 38.539062 27.96875 C 37.816406 27.972656 37.09375 27.972656 36.375 27.972656 C 35.449219 27.972656 34.523438 27.976562 33.597656 27.976562 C 32.886719 27.980469 32.175781 27.980469 31.46875 27.980469 C 31.128906 27.980469 30.785156 27.980469 30.441406 27.984375 C 29.964844 27.984375 29.492188 27.984375 29.015625 27.984375 C 28.800781 27.984375 28.800781 27.984375 28.582031 27.988281 C 27.605469 27.980469 27.605469 27.980469 27.1875 27.5625 C 27.320312 26.476562 27.476562 26.417969 28.546875 26.410156 Z M 28.546875 26.410156 "/>
<path style=" stroke:none;fill-rule:nonzero;fill:rgb(89.803922%,77.254903%,14.509805%);fill-opacity:1;" d="M 28.558594 13.660156 C 28.773438 13.660156 28.773438 13.660156 28.992188 13.664062 C 29.144531 13.660156 29.289062 13.660156 29.445312 13.660156 C 29.941406 13.660156 30.441406 13.660156 30.9375 13.660156 C 31.28125 13.660156 31.625 13.660156 31.96875 13.660156 C 32.691406 13.660156 33.414062 13.660156 34.136719 13.664062 C 35.0625 13.664062 35.988281 13.664062 36.917969 13.660156 C 37.628906 13.660156 38.339844 13.660156 39.050781 13.660156 C 39.390625 13.660156 39.734375 13.660156 40.074219 13.660156 C 40.554688 13.660156 41.03125 13.660156 41.507812 13.664062 C 41.652344 13.660156 41.792969 13.660156 41.941406 13.660156 C 42.917969 13.664062 42.917969 13.664062 43.125 13.875 C 43.160156 14.332031 43.160156 14.332031 43.125 14.8125 C 42.65625 15.28125 42.382812 15.234375 41.746094 15.238281 C 41.535156 15.238281 41.535156 15.238281 41.320312 15.234375 C 41.171875 15.238281 41.023438 15.238281 40.871094 15.238281 C 40.382812 15.238281 39.894531 15.238281 39.40625 15.238281 C 39.066406 15.238281 38.726562 15.238281 38.386719 15.238281 C 37.675781 15.238281 36.964844 15.238281 36.253906 15.238281 C 35.339844 15.234375 34.429688 15.234375 33.515625 15.238281 C 32.8125 15.238281 32.113281 15.238281 31.414062 15.238281 C 31.078125 15.238281 30.738281 15.238281 30.402344 15.238281 C 29.933594 15.238281 29.464844 15.238281 28.992188 15.234375 C 28.855469 15.238281 28.714844 15.238281 28.570312 15.238281 C 27.605469 15.230469 27.605469 15.230469 27.1875 14.8125 C 27.320312 13.71875 27.480469 13.664062 28.558594 13.660156 Z M 28.558594 13.660156 "/>
<path style=" stroke:none;fill-rule:nonzero;fill:rgb(89.803922%,77.64706%,18.431373%);fill-opacity:1;" d="M 33.421875 42.328125 C 33.625 42.324219 33.832031 42.324219 34.042969 42.324219 C 34.378906 42.324219 34.378906 42.324219 34.714844 42.324219 C 34.945312 42.324219 35.171875 42.324219 35.40625 42.324219 C 35.886719 42.324219 36.371094 42.324219 36.851562 42.328125 C 37.589844 42.328125 38.328125 42.328125 39.070312 42.324219 C 39.535156 42.324219 40.003906 42.324219 40.472656 42.324219 C 40.695312 42.324219 40.914062 42.324219 41.144531 42.324219 C 41.453125 42.324219 41.453125 42.324219 41.765625 42.328125 C 42.039062 42.328125 42.039062 42.328125 42.316406 42.328125 C 42.75 42.375 42.75 42.375 43.125 42.75 C 43.171875 43.21875 43.171875 43.21875 43.125 43.6875 C 42.636719 44.171875 42.441406 44.109375 41.765625 44.113281 C 41.457031 44.113281 41.457031 44.113281 41.144531 44.113281 C 40.921875 44.113281 40.699219 44.113281 40.472656 44.113281 C 40.242188 44.113281 40.015625 44.113281 39.78125 44.113281 C 39.300781 44.113281 38.820312 44.113281 38.335938 44.113281 C 37.597656 44.109375 36.859375 44.113281 36.117188 44.113281 C 35.648438 44.113281 35.183594 44.113281 34.714844 44.113281 C 34.382812 44.113281 34.382812 44.113281 34.042969 44.113281 C 33.835938 44.113281 33.632812 44.113281 33.421875 44.113281 C 33.238281 44.113281 33.058594 44.109375 32.871094 44.109375 C 32.4375 44.0625 32.4375 44.0625 32.0625 43.6875 C 32.015625 43.21875 32.015625 43.21875 32.0625 42.75 C 32.550781 42.265625 32.742188 42.328125 33.421875 42.328125 Z M 33.421875 42.328125 "/>
<path style=" stroke:none;fill-rule:nonzero;fill:rgb(89.803922%,77.254903%,14.509805%);fill-opacity:1;" d="M 33.421875 29.578125 C 33.625 29.574219 33.832031 29.574219 34.042969 29.574219 C 34.378906 29.574219 34.378906 29.574219 34.714844 29.574219 C 34.945312 29.574219 35.171875 29.574219 35.40625 29.574219 C 35.886719 29.574219 36.371094 29.574219 36.851562 29.578125 C 37.589844 29.578125 38.328125 29.578125 39.070312 29.574219 C 39.535156 29.574219 40.003906 29.574219 40.472656 29.574219 C 40.695312 29.574219 40.914062 29.574219 41.144531 29.574219 C 41.453125 29.574219 41.453125 29.574219 41.765625 29.578125 C 42.039062 29.578125 42.039062 29.578125 42.316406 29.578125 C 42.75 29.625 42.75 29.625 43.125 30 C 43.160156 30.480469 43.160156 30.480469 43.125 30.9375 C 42.804688 31.261719 42.378906 31.148438 41.9375 31.148438 C 41.726562 31.148438 41.511719 31.148438 41.292969 31.152344 C 41.058594 31.152344 40.828125 31.148438 40.585938 31.148438 C 40.351562 31.148438 40.113281 31.148438 39.871094 31.148438 C 39.371094 31.152344 38.871094 31.148438 38.367188 31.148438 C 37.722656 31.148438 37.082031 31.148438 36.4375 31.148438 C 35.824219 31.152344 35.210938 31.148438 34.601562 31.148438 C 34.367188 31.148438 34.136719 31.152344 33.894531 31.152344 C 33.683594 31.148438 33.46875 31.148438 33.25 31.148438 C 33.0625 31.148438 32.871094 31.148438 32.675781 31.148438 C 32.25 31.125 32.25 31.125 32.0625 30.9375 C 32.027344 30.480469 32.027344 30.480469 32.0625 30 C 32.550781 29.515625 32.742188 29.578125 33.421875 29.578125 Z M 33.421875 29.578125 "/>
<path style=" stroke:none;fill-rule:nonzero;fill:rgb(89.803922%,77.254903%,14.509805%);fill-opacity:1;" d="M 33.25 16.851562 C 33.464844 16.851562 33.675781 16.847656 33.894531 16.847656 C 34.128906 16.847656 34.359375 16.847656 34.597656 16.851562 C 34.835938 16.851562 35.070312 16.847656 35.316406 16.847656 C 35.816406 16.847656 36.320312 16.847656 36.820312 16.851562 C 37.464844 16.851562 38.109375 16.851562 38.75 16.851562 C 39.363281 16.847656 39.976562 16.847656 40.589844 16.851562 C 40.820312 16.847656 41.054688 16.847656 41.292969 16.847656 C 41.503906 16.847656 41.71875 16.851562 41.9375 16.851562 C 42.128906 16.851562 42.316406 16.851562 42.511719 16.851562 C 42.9375 16.875 42.9375 16.875 43.125 17.0625 C 43.160156 17.519531 43.160156 17.519531 43.125 18 C 42.640625 18.484375 42.441406 18.421875 41.765625 18.425781 C 41.457031 18.425781 41.457031 18.425781 41.144531 18.425781 C 40.921875 18.425781 40.699219 18.425781 40.46875 18.425781 C 40.242188 18.425781 40.015625 18.425781 39.78125 18.425781 C 39.300781 18.425781 38.816406 18.425781 38.335938 18.425781 C 37.597656 18.421875 36.855469 18.425781 36.117188 18.425781 C 35.652344 18.425781 35.183594 18.425781 34.71875 18.425781 C 34.382812 18.425781 34.382812 18.425781 34.042969 18.425781 C 33.839844 18.425781 33.632812 18.425781 33.421875 18.425781 C 33.238281 18.425781 33.058594 18.425781 32.871094 18.421875 C 32.4375 18.375 32.4375 18.375 32.0625 18 C 32.027344 17.519531 32.027344 17.519531 32.0625 17.0625 C 32.386719 16.738281 32.8125 16.851562 33.25 16.851562 Z M 33.25 16.851562 "/>
<path style=" stroke:none;fill-rule:nonzero;fill:rgb(89.803922%,77.64706%,18.431373%);fill-opacity:1;" d="M 31.015625 10.261719 C 31.269531 10.257812 31.269531 10.257812 31.523438 10.253906 C 31.703125 10.253906 31.882812 10.253906 32.070312 10.253906 C 32.253906 10.253906 32.4375 10.253906 32.628906 10.253906 C 33.019531 10.253906 33.414062 10.25 33.804688 10.253906 C 34.402344 10.253906 35.003906 10.25 35.601562 10.242188 C 35.984375 10.242188 36.363281 10.242188 36.742188 10.242188 C 36.921875 10.242188 37.101562 10.242188 37.289062 10.238281 C 37.457031 10.242188 37.621094 10.242188 37.796875 10.242188 C 37.941406 10.242188 38.089844 10.242188 38.242188 10.242188 C 38.726562 10.332031 38.898438 10.480469 39.1875 10.875 C 39.109375 11.703125 39.109375 11.703125 38.8125 12 C 38.539062 12.019531 38.265625 12.023438 37.988281 12.027344 C 37.726562 12.027344 37.726562 12.027344 37.457031 12.03125 C 37.265625 12.03125 37.078125 12.03125 36.878906 12.03125 C 36.683594 12.03125 36.488281 12.03125 36.289062 12.03125 C 35.878906 12.035156 35.464844 12.035156 35.054688 12.035156 C 34.421875 12.035156 33.789062 12.039062 33.15625 12.042969 C 32.757812 12.042969 32.359375 12.042969 31.957031 12.042969 C 31.765625 12.042969 31.578125 12.046875 31.378906 12.046875 C 31.207031 12.046875 31.03125 12.046875 30.847656 12.046875 C 30.691406 12.046875 30.539062 12.046875 30.378906 12.046875 C 30 12 30 12 29.625 11.625 C 29.566406 11.15625 29.566406 11.15625 29.625 10.6875 C 30.210938 10.296875 30.347656 10.265625 31.015625 10.261719 Z M 31.015625 10.261719 "/>
<path style=" stroke:none;fill-rule:nonzero;fill:rgb(89.803922%,77.64706%,18.431373%);fill-opacity:1;" d="M 30.824219 35.972656 C 31.085938 35.972656 31.085938 35.972656 31.355469 35.96875 C 31.546875 35.96875 31.734375 35.96875 31.933594 35.96875 C 32.128906 35.96875 32.324219 35.96875 32.519531 35.96875 C 32.933594 35.964844 33.347656 35.964844 33.757812 35.964844 C 34.390625 35.964844 35.023438 35.960938 35.65625 35.957031 C 36.054688 35.957031 36.453125 35.957031 36.855469 35.957031 C 37.046875 35.957031 37.234375 35.953125 37.433594 35.953125 C 37.605469 35.953125 37.78125 35.953125 37.964844 35.953125 C 38.121094 35.953125 38.273438 35.953125 38.433594 35.953125 C 38.8125 36 38.8125 36 39.1875 36.375 C 39.140625 36.949219 39.140625 36.949219 39 37.5 C 38.5625 37.71875 38.304688 37.710938 37.816406 37.71875 C 37.648438 37.71875 37.480469 37.722656 37.308594 37.722656 C 37.039062 37.722656 37.039062 37.722656 36.761719 37.726562 C 36.484375 37.726562 36.484375 37.726562 36.199219 37.730469 C 35.808594 37.730469 35.417969 37.730469 35.023438 37.734375 C 34.421875 37.734375 33.820312 37.742188 33.21875 37.746094 C 32.835938 37.746094 32.457031 37.75 32.074219 37.75 C 31.804688 37.753906 31.804688 37.753906 31.527344 37.757812 C 31.359375 37.757812 31.191406 37.753906 31.019531 37.753906 C 30.796875 37.757812 30.796875 37.757812 30.574219 37.757812 C 30.085938 37.667969 29.914062 37.519531 29.625 37.125 C 29.71875 36.128906 29.859375 35.976562 30.824219 35.972656 Z M 30.824219 35.972656 "/>
<path style=" stroke:none;fill-rule:nonzero;fill:rgb(92.54902%,34.117648%,38.431373%);fill-opacity:1;" d="M 13.199219 35.972656 C 13.460938 35.972656 13.460938 35.972656 13.730469 35.96875 C 13.921875 35.96875 14.109375 35.96875 14.308594 35.96875 C 14.503906 35.96875 14.699219 35.96875 14.894531 35.96875 C 15.308594 35.964844 15.722656 35.964844 16.132812 35.964844 C 16.765625 35.964844 17.398438 35.960938 18.03125 35.957031 C 18.429688 35.957031 18.828125 35.957031 19.230469 35.957031 C 19.421875 35.957031 19.609375 35.953125 19.808594 35.953125 C 19.980469 35.953125 20.15625 35.953125 20.339844 35.953125 C 20.496094 35.953125 20.648438 35.953125 20.808594 35.953125 C 21.1875 36 21.1875 36 21.5625 36.375 C 21.621094 36.84375 21.621094 36.84375 21.5625 37.3125 C 20.976562 37.703125 20.839844 37.734375 20.171875 37.738281 C 19.917969 37.742188 19.917969 37.742188 19.664062 37.746094 C 19.484375 37.746094 19.304688 37.746094 19.117188 37.746094 C 18.933594 37.746094 18.75 37.746094 18.558594 37.746094 C 18.167969 37.746094 17.773438 37.75 17.382812 37.746094 C 16.785156 37.746094 16.183594 37.75 15.585938 37.757812 C 15.203125 37.757812 14.824219 37.757812 14.445312 37.757812 C 14.175781 37.757812 14.175781 37.757812 13.898438 37.761719 C 13.730469 37.757812 13.566406 37.757812 13.390625 37.757812 C 13.171875 37.757812 13.171875 37.757812 12.945312 37.757812 C 12.460938 37.667969 12.289062 37.519531 12 37.125 C 12.09375 36.128906 12.234375 35.976562 13.199219 35.972656 Z M 13.199219 35.972656 "/>
<path style=" stroke:none;fill-rule:nonzero;fill:rgb(92.54902%,34.117648%,38.431373%);fill-opacity:1;" d="M 13.371094 10.265625 C 13.539062 10.261719 13.703125 10.261719 13.875 10.261719 C 14.148438 10.261719 14.148438 10.261719 14.425781 10.261719 C 14.703125 10.261719 14.703125 10.261719 14.988281 10.261719 C 15.378906 10.261719 15.773438 10.261719 16.164062 10.265625 C 16.765625 10.265625 17.367188 10.265625 17.96875 10.261719 C 18.351562 10.261719 18.730469 10.261719 19.113281 10.261719 C 19.382812 10.261719 19.382812 10.261719 19.660156 10.261719 C 19.828125 10.261719 19.996094 10.261719 20.167969 10.265625 C 20.316406 10.265625 20.460938 10.265625 20.613281 10.265625 C 21 10.3125 21 10.3125 21.5625 10.6875 C 21.621094 11.15625 21.621094 11.15625 21.5625 11.625 C 21.101562 12.085938 20.976562 12.046875 20.34375 12.050781 C 20.167969 12.050781 19.992188 12.050781 19.8125 12.050781 C 19.621094 12.050781 19.433594 12.050781 19.234375 12.050781 C 19.042969 12.050781 18.847656 12.050781 18.648438 12.050781 C 18.234375 12.050781 17.824219 12.050781 17.414062 12.050781 C 16.78125 12.046875 16.152344 12.050781 15.519531 12.050781 C 15.125 12.050781 14.722656 12.050781 14.328125 12.050781 C 14.042969 12.050781 14.042969 12.050781 13.75 12.050781 C 13.578125 12.050781 13.402344 12.050781 13.21875 12.050781 C 12.988281 12.050781 12.988281 12.050781 12.75 12.046875 C 12.375 12 12.375 12 12 11.625 C 12.097656 10.628906 12.367188 10.265625 13.371094 10.265625 Z M 13.371094 10.265625 "/>
<path style=" stroke:none;fill-rule:nonzero;fill:rgb(89.803922%,77.254903%,14.509805%);fill-opacity:1;" d="M 30.824219 23.222656 C 31.085938 23.222656 31.085938 23.222656 31.355469 23.21875 C 31.546875 23.21875 31.734375 23.21875 31.933594 23.21875 C 32.128906 23.21875 32.324219 23.21875 32.519531 23.21875 C 32.933594 23.214844 33.347656 23.214844 33.757812 23.214844 C 34.390625 23.214844 35.023438 23.210938 35.65625 23.207031 C 36.054688 23.207031 36.453125 23.207031 36.855469 23.207031 C 37.046875 23.207031 37.234375 23.203125 37.433594 23.203125 C 37.605469 23.203125 37.78125 23.203125 37.964844 23.203125 C 38.121094 23.203125 38.273438 23.203125 38.433594 23.203125 C 38.8125 23.25 38.8125 23.25 39.1875 23.625 C 39.082031 24.480469 39.082031 24.480469 38.8125 24.75 C 38.539062 24.769531 38.261719 24.773438 37.988281 24.777344 C 37.726562 24.777344 37.726562 24.777344 37.457031 24.78125 C 37.265625 24.78125 37.074219 24.78125 36.878906 24.78125 C 36.683594 24.78125 36.492188 24.78125 36.289062 24.78125 C 35.878906 24.785156 35.464844 24.785156 35.054688 24.785156 C 34.421875 24.785156 33.789062 24.789062 33.15625 24.792969 C 32.757812 24.792969 32.359375 24.792969 31.957031 24.792969 C 31.765625 24.792969 31.578125 24.796875 31.382812 24.796875 C 31.203125 24.796875 31.03125 24.796875 30.847656 24.796875 C 30.691406 24.796875 30.539062 24.796875 30.378906 24.796875 C 30 24.75 30 24.75 29.625 24.375 C 29.746094 23.382812 29.847656 23.226562 30.824219 23.222656 Z M 30.824219 23.222656 "/>
<path style=" stroke:none;fill-rule:nonzero;fill:rgb(92.54902%,30.980393%,35.686275%);fill-opacity:1;" d="M 13.199219 23.222656 C 13.460938 23.222656 13.460938 23.222656 13.730469 23.21875 C 13.921875 23.21875 14.109375 23.21875 14.308594 23.21875 C 14.503906 23.21875 14.699219 23.21875 14.894531 23.21875 C 15.308594 23.214844 15.722656 23.214844 16.132812 23.214844 C 16.765625 23.214844 17.398438 23.210938 18.03125 23.207031 C 18.429688 23.207031 18.828125 23.207031 19.230469 23.207031 C 19.421875 23.207031 19.609375 23.203125 19.808594 23.203125 C 19.980469 23.203125 20.15625 23.203125 20.339844 23.203125 C 20.496094 23.203125 20.648438 23.203125 20.808594 23.203125 C 21.1875 23.25 21.1875 23.25 21.5625 23.625 C 21.457031 24.480469 21.457031 24.480469 21.1875 24.75 C 20.914062 24.769531 20.636719 24.773438 20.363281 24.777344 C 20.101562 24.777344 20.101562 24.777344 19.832031 24.78125 C 19.640625 24.78125 19.449219 24.78125 19.253906 24.78125 C 19.058594 24.78125 18.867188 24.78125 18.664062 24.78125 C 18.253906 24.785156 17.839844 24.785156 17.429688 24.785156 C 16.796875 24.785156 16.164062 24.789062 15.53125 24.792969 C 15.132812 24.792969 14.734375 24.792969 14.332031 24.792969 C 14.140625 24.792969 13.953125 24.796875 13.757812 24.796875 C 13.578125 24.796875 13.40625 24.796875 13.222656 24.796875 C 13.066406 24.796875 12.914062 24.796875 12.753906 24.796875 C 12.375 24.75 12.375 24.75 12 24.375 C 12.121094 23.382812 12.222656 23.226562 13.199219 23.222656 Z M 13.199219 23.222656 "/>
<path style=" stroke:none;fill-rule:nonzero;fill:rgb(92.54902%,34.117648%,38.82353%);fill-opacity:1;" d="M 15.816406 42.324219 C 15.953125 42.324219 16.089844 42.324219 16.230469 42.324219 C 16.371094 42.324219 16.511719 42.324219 16.65625 42.324219 C 16.953125 42.324219 17.246094 42.324219 17.542969 42.328125 C 17.996094 42.328125 18.453125 42.328125 18.90625 42.324219 C 19.195312 42.324219 19.480469 42.324219 19.769531 42.324219 C 19.90625 42.324219 20.042969 42.324219 20.183594 42.324219 C 21.144531 42.332031 21.144531 42.332031 21.5625 42.75 C 21.609375 43.21875 21.609375 43.21875 21.5625 43.6875 C 21.09375 44.15625 20.820312 44.109375 20.183594 44.117188 C 20.046875 44.113281 19.910156 44.113281 19.769531 44.113281 C 19.558594 44.113281 19.558594 44.113281 19.34375 44.113281 C 19.046875 44.113281 18.75 44.113281 18.457031 44.113281 C 18 44.109375 17.546875 44.113281 17.09375 44.113281 C 16.804688 44.113281 16.519531 44.113281 16.230469 44.113281 C 16.09375 44.113281 15.957031 44.113281 15.816406 44.117188 C 14.855469 44.105469 14.855469 44.105469 14.4375 43.6875 C 14.390625 43.21875 14.390625 43.21875 14.4375 42.75 C 14.902344 42.285156 15.179688 42.328125 15.816406 42.324219 Z M 15.816406 42.324219 "/>
<path style=" stroke:none;fill-rule:nonzero;fill:rgb(23.921569%,80.392158%,57.647061%);fill-opacity:1;" d="M 24.628906 42.324219 C 24.765625 42.324219 24.902344 42.324219 25.042969 42.324219 C 25.183594 42.324219 25.324219 42.324219 25.46875 42.324219 C 25.765625 42.324219 26.058594 42.324219 26.355469 42.328125 C 26.808594 42.328125 27.265625 42.328125 27.71875 42.324219 C 28.007812 42.324219 28.292969 42.324219 28.582031 42.324219 C 28.71875 42.324219 28.855469 42.324219 28.996094 42.324219 C 29.957031 42.332031 29.957031 42.332031 30.375 42.75 C 30.433594 43.21875 30.433594 43.21875 30.375 43.6875 C 29.699219 44.140625 29.199219 44.117188 28.417969 44.113281 C 28.214844 44.113281 28.214844 44.113281 28.007812 44.113281 C 27.71875 44.113281 27.433594 44.113281 27.148438 44.113281 C 26.707031 44.109375 26.269531 44.113281 25.828125 44.113281 C 25.550781 44.113281 25.273438 44.113281 24.996094 44.113281 C 24.796875 44.113281 24.796875 44.113281 24.597656 44.117188 C 23.667969 44.105469 23.667969 44.105469 23.25 43.6875 C 23.203125 43.21875 23.203125 43.21875 23.25 42.75 C 23.714844 42.285156 23.992188 42.328125 24.628906 42.324219 Z M 24.628906 42.324219 "/>
<path style=" stroke:none;fill-rule:nonzero;fill:rgb(92.54902%,31.37255%,36.078432%);fill-opacity:1;" d="M 15.265625 16.855469 C 15.550781 16.855469 15.835938 16.855469 16.117188 16.859375 C 16.269531 16.859375 16.417969 16.859375 16.574219 16.859375 C 17.054688 16.859375 17.53125 16.859375 18.011719 16.863281 C 18.335938 16.863281 18.660156 16.863281 18.984375 16.863281 C 19.78125 16.867188 20.578125 16.871094 21.375 16.875 C 21.492188 17.414062 21.492188 17.414062 21.5625 18 C 21.09375 18.464844 20.820312 18.421875 20.183594 18.425781 C 20.046875 18.425781 19.910156 18.425781 19.769531 18.425781 C 19.558594 18.425781 19.558594 18.425781 19.347656 18.425781 C 19.050781 18.425781 18.75 18.425781 18.457031 18.421875 C 18 18.421875 17.546875 18.421875 17.09375 18.425781 C 16.804688 18.425781 16.519531 18.425781 16.230469 18.425781 C 16.09375 18.425781 15.957031 18.425781 15.816406 18.425781 C 14.855469 18.417969 14.855469 18.417969 14.4375 18 C 14.402344 17.519531 14.402344 17.519531 14.4375 17.0625 C 14.625 16.875 14.625 16.875 15.265625 16.855469 Z M 15.265625 16.855469 "/>
<path style=" stroke:none;fill-rule:nonzero;fill:rgb(20.392157%,80.000001%,55.686277%);fill-opacity:1;" d="M 24.628906 29.574219 C 24.765625 29.574219 24.902344 29.574219 25.042969 29.574219 C 25.183594 29.574219 25.324219 29.574219 25.46875 29.574219 C 25.765625 29.574219 26.058594 29.574219 26.355469 29.578125 C 26.808594 29.578125 27.265625 29.578125 27.71875 29.574219 C 28.007812 29.574219 28.292969 29.574219 28.582031 29.574219 C 28.71875 29.574219 28.855469 29.574219 28.996094 29.574219 C 29.957031 29.582031 29.957031 29.582031 30.375 30 C 30.273438 30.855469 30.273438 30.855469 30 31.125 C 29.515625 31.144531 29.035156 31.152344 28.550781 31.148438 C 28.335938 31.148438 28.335938 31.148438 28.113281 31.148438 C 27.804688 31.148438 27.5 31.148438 27.191406 31.148438 C 26.71875 31.148438 26.25 31.148438 25.777344 31.148438 C 25.480469 31.148438 25.183594 31.148438 24.886719 31.148438 C 24.742188 31.148438 24.601562 31.148438 24.453125 31.152344 C 23.460938 31.144531 23.460938 31.144531 23.25 30.9375 C 23.214844 30.480469 23.214844 30.480469 23.25 30 C 23.714844 29.535156 23.992188 29.578125 24.628906 29.574219 Z M 24.628906 29.574219 "/>
<path style=" stroke:none;fill-rule:nonzero;fill:rgb(20.392157%,80.000001%,55.686277%);fill-opacity:1;" d="M 24.878906 16.84375 C 25.023438 16.84375 25.167969 16.839844 25.316406 16.839844 C 25.621094 16.839844 25.929688 16.839844 26.234375 16.839844 C 26.703125 16.839844 27.171875 16.835938 27.644531 16.832031 C 27.941406 16.832031 28.238281 16.832031 28.535156 16.832031 C 28.675781 16.832031 28.816406 16.828125 28.960938 16.828125 C 29.957031 16.832031 29.957031 16.832031 30.375 17.25 C 30.269531 18.101562 30.269531 18.101562 30 18.375 C 29.53125 18.394531 29.070312 18.40625 28.601562 18.40625 C 28.390625 18.40625 28.390625 18.40625 28.175781 18.410156 C 27.878906 18.410156 27.578125 18.410156 27.28125 18.410156 C 26.828125 18.410156 26.371094 18.414062 25.914062 18.417969 C 25.625 18.417969 25.335938 18.417969 25.046875 18.417969 C 24.84375 18.421875 24.84375 18.421875 24.632812 18.421875 C 23.667969 18.417969 23.667969 18.417969 23.25 18 C 23.214844 17.519531 23.214844 17.519531 23.25 17.0625 C 23.625 16.6875 24.367188 16.84375 24.878906 16.84375 Z M 24.878906 16.84375 "/>
<path style=" stroke:none;fill-rule:nonzero;fill:rgb(92.54902%,30.980393%,35.686275%);fill-opacity:1;" d="M 15.816406 29.574219 C 15.953125 29.574219 16.089844 29.574219 16.230469 29.574219 C 16.371094 29.574219 16.511719 29.574219 16.65625 29.574219 C 16.953125 29.574219 17.246094 29.574219 17.542969 29.578125 C 17.996094 29.578125 18.453125 29.578125 18.90625 29.574219 C 19.195312 29.574219 19.480469 29.574219 19.769531 29.574219 C 19.90625 29.574219 20.042969 29.574219 20.183594 29.574219 C 21.144531 29.582031 21.144531 29.582031 21.5625 30 C 21.460938 30.855469 21.460938 30.855469 21.1875 31.125 C 20.703125 31.140625 20.21875 31.144531 19.734375 31.144531 C 19.589844 31.140625 19.445312 31.140625 19.292969 31.140625 C 18.828125 31.140625 18.359375 31.136719 17.894531 31.136719 C 17.578125 31.136719 17.265625 31.136719 16.949219 31.136719 C 16.171875 31.132812 15.398438 31.128906 14.625 31.125 C 14.507812 30.585938 14.507812 30.585938 14.4375 30 C 14.902344 29.535156 15.179688 29.578125 15.816406 29.574219 Z M 15.816406 29.574219 "/>
<path style=" stroke:none;fill-rule:nonzero;fill:rgb(92.54902%,34.117648%,38.82353%);fill-opacity:1;" d="M 15.695312 39.136719 C 15.871094 39.136719 16.046875 39.136719 16.226562 39.136719 C 16.410156 39.136719 16.59375 39.140625 16.78125 39.140625 C 16.964844 39.140625 17.148438 39.136719 17.335938 39.136719 C 17.511719 39.136719 17.683594 39.136719 17.863281 39.136719 C 18.027344 39.136719 18.1875 39.136719 18.351562 39.140625 C 18.75 39.1875 18.75 39.1875 19.125 39.5625 C 19.171875 40.03125 19.171875 40.03125 19.125 40.5 C 18.667969 40.957031 18.542969 40.921875 17.914062 40.925781 C 17.746094 40.925781 17.582031 40.925781 17.410156 40.925781 C 17.238281 40.925781 17.066406 40.921875 16.886719 40.921875 C 16.714844 40.921875 16.539062 40.925781 16.363281 40.925781 C 16.199219 40.925781 16.03125 40.925781 15.863281 40.925781 C 15.710938 40.925781 15.558594 40.925781 15.402344 40.921875 C 15 40.875 15 40.875 14.4375 40.5 C 14.378906 40.03125 14.378906 40.03125 14.4375 39.5625 C 14.902344 39.097656 15.054688 39.140625 15.695312 39.136719 Z M 15.695312 39.136719 "/>
<path style=" stroke:none;fill-rule:nonzero;fill:rgb(23.529412%,80.392158%,57.647061%);fill-opacity:1;" d="M 23.144531 39.152344 C 23.328125 39.152344 23.511719 39.148438 23.703125 39.144531 C 23.878906 39.144531 24.050781 39.144531 24.234375 39.144531 C 24.394531 39.144531 24.554688 39.144531 24.722656 39.140625 C 25.125 39.1875 25.125 39.1875 25.5 39.5625 C 25.546875 40.03125 25.546875 40.03125 25.5 40.5 C 24.960938 41.039062 24.523438 40.929688 23.785156 40.933594 C 23.613281 40.933594 23.441406 40.933594 23.261719 40.933594 C 23.003906 40.9375 23.003906 40.9375 22.738281 40.941406 C 22.488281 40.941406 22.488281 40.941406 22.238281 40.941406 C 22.085938 40.941406 21.933594 40.945312 21.777344 40.945312 C 21.277344 40.859375 21.109375 40.71875 20.8125 40.3125 C 20.957031 38.808594 21.871094 39.152344 23.144531 39.152344 Z M 23.144531 39.152344 "/>
<path style=" stroke:none;fill-rule:nonzero;fill:rgb(23.529412%,80.392158%,57.647061%);fill-opacity:1;" d="M 24.507812 35.949219 C 24.683594 35.949219 24.859375 35.949219 25.039062 35.949219 C 25.222656 35.949219 25.40625 35.953125 25.59375 35.953125 C 25.777344 35.953125 25.960938 35.949219 26.148438 35.949219 C 26.324219 35.949219 26.496094 35.949219 26.675781 35.949219 C 26.839844 35.949219 27 35.949219 27.164062 35.953125 C 27.5625 36 27.5625 36 27.9375 36.375 C 27.996094 36.84375 27.996094 36.84375 27.9375 37.3125 C 27.355469 37.699219 27.222656 37.734375 26.5625 37.738281 C 26.402344 37.738281 26.246094 37.738281 26.085938 37.738281 C 25.921875 37.738281 25.761719 37.734375 25.59375 37.734375 C 25.351562 37.738281 25.351562 37.738281 25.101562 37.738281 C 24.945312 37.738281 24.789062 37.738281 24.625 37.738281 C 24.484375 37.738281 24.339844 37.738281 24.195312 37.734375 C 23.8125 37.6875 23.8125 37.6875 23.25 37.3125 C 23.191406 36.84375 23.191406 36.84375 23.25 36.375 C 23.714844 35.910156 23.867188 35.953125 24.507812 35.949219 Z M 24.507812 35.949219 "/>
<path style=" stroke:none;fill-rule:nonzero;fill:rgb(23.529412%,80.392158%,57.647061%);fill-opacity:1;" d="M 24.625 10.261719 C 24.78125 10.261719 24.941406 10.261719 25.101562 10.261719 C 25.261719 10.261719 25.425781 10.265625 25.59375 10.265625 C 25.839844 10.261719 25.839844 10.261719 26.085938 10.261719 C 26.242188 10.261719 26.398438 10.261719 26.558594 10.261719 C 26.703125 10.261719 26.84375 10.261719 26.992188 10.265625 C 27.375 10.3125 27.375 10.3125 27.9375 10.6875 C 27.996094 11.15625 27.996094 11.15625 27.9375 11.625 C 27.472656 12.09375 27.320312 12.046875 26.679688 12.050781 C 26.503906 12.050781 26.328125 12.050781 26.148438 12.050781 C 25.964844 12.050781 25.78125 12.046875 25.59375 12.046875 C 25.410156 12.046875 25.226562 12.050781 25.039062 12.050781 C 24.863281 12.050781 24.691406 12.050781 24.511719 12.050781 C 24.347656 12.050781 24.1875 12.050781 24.023438 12.046875 C 23.625 12 23.625 12 23.25 11.625 C 23.191406 11.15625 23.191406 11.15625 23.25 10.6875 C 23.832031 10.300781 23.96875 10.265625 24.625 10.261719 Z M 24.625 10.261719 "/>
<path style=" stroke:none;fill-rule:nonzero;fill:rgb(20.784314%,80.000001%,56.078434%);fill-opacity:1;" d="M 22.101562 26.414062 C 22.285156 26.414062 22.472656 26.414062 22.660156 26.414062 C 22.855469 26.414062 23.050781 26.414062 23.25 26.414062 C 23.542969 26.414062 23.542969 26.414062 23.839844 26.414062 C 24.023438 26.414062 24.210938 26.414062 24.398438 26.414062 C 24.570312 26.414062 24.738281 26.414062 24.914062 26.414062 C 25.3125 26.4375 25.3125 26.4375 25.5 26.625 C 25.523438 27.1875 25.523438 27.1875 25.5 27.75 C 25.046875 28.203125 23.871094 27.972656 23.261719 27.972656 C 23.070312 27.972656 22.875 27.976562 22.675781 27.980469 C 22.402344 27.980469 22.402344 27.980469 22.121094 27.980469 C 21.867188 27.980469 21.867188 27.980469 21.605469 27.984375 C 21.1875 27.9375 21.1875 27.9375 20.8125 27.5625 C 20.941406 26.515625 21.074219 26.414062 22.101562 26.414062 Z M 22.101562 26.414062 "/>
<path style=" stroke:none;fill-rule:nonzero;fill:rgb(92.54902%,31.37255%,36.078432%);fill-opacity:1;" d="M 15.578125 13.664062 C 15.773438 13.664062 15.964844 13.664062 16.164062 13.664062 C 16.46875 13.664062 16.46875 13.664062 16.78125 13.664062 C 16.984375 13.664062 17.1875 13.664062 17.398438 13.664062 C 17.589844 13.664062 17.78125 13.664062 17.980469 13.664062 C 18.25 13.664062 18.25 13.664062 18.523438 13.664062 C 18.9375 13.6875 18.9375 13.6875 19.125 13.875 C 19.160156 14.332031 19.160156 14.332031 19.125 14.8125 C 18.660156 15.277344 18.507812 15.234375 17.867188 15.238281 C 17.691406 15.238281 17.515625 15.238281 17.335938 15.238281 C 17.152344 15.238281 16.96875 15.234375 16.78125 15.234375 C 16.597656 15.234375 16.414062 15.238281 16.226562 15.238281 C 16.050781 15.238281 15.878906 15.238281 15.695312 15.238281 C 15.535156 15.238281 15.375 15.234375 15.210938 15.234375 C 14.8125 15.1875 14.8125 15.1875 14.4375 14.8125 C 14.402344 14.332031 14.402344 14.332031 14.4375 13.875 C 14.753906 13.558594 15.148438 13.664062 15.578125 13.664062 Z M 15.578125 13.664062 "/>
<path style=" stroke:none;fill-rule:nonzero;fill:rgb(92.54902%,31.37255%,36.078432%);fill-opacity:1;" d="M 15.679688 26.414062 C 15.941406 26.414062 15.941406 26.414062 16.210938 26.414062 C 16.488281 26.414062 16.488281 26.414062 16.769531 26.414062 C 16.953125 26.414062 17.136719 26.414062 17.328125 26.414062 C 17.5 26.414062 17.675781 26.414062 17.859375 26.414062 C 18.101562 26.414062 18.101562 26.414062 18.347656 26.414062 C 18.75 26.4375 18.75 26.4375 19.125 26.625 C 19.132812 27 19.132812 27.375 19.125 27.75 C 18.671875 28.203125 17.496094 27.972656 16.886719 27.972656 C 16.691406 27.972656 16.503906 27.976562 16.304688 27.980469 C 16.027344 27.980469 16.027344 27.980469 15.746094 27.980469 C 15.488281 27.980469 15.488281 27.980469 15.230469 27.984375 C 14.8125 27.9375 14.8125 27.9375 14.4375 27.5625 C 14.5625 26.542969 14.675781 26.414062 15.679688 26.414062 Z M 15.679688 26.414062 "/>
<path style=" stroke:none;fill-rule:nonzero;fill:rgb(20.392157%,80.000001%,55.686277%);fill-opacity:1;" d="M 22.101562 13.664062 C 22.285156 13.664062 22.472656 13.664062 22.660156 13.664062 C 22.855469 13.664062 23.050781 13.664062 23.25 13.664062 C 23.542969 13.664062 23.542969 13.664062 23.839844 13.664062 C 24.023438 13.664062 24.210938 13.664062 24.398438 13.664062 C 24.570312 13.664062 24.738281 13.664062 24.914062 13.664062 C 25.3125 13.6875 25.3125 13.6875 25.5 13.875 C 25.507812 14.25 25.507812 14.625 25.5 15 C 24.792969 15.355469 23.933594 15.222656 23.15625 15.222656 C 22.972656 15.222656 22.789062 15.226562 22.601562 15.230469 C 22.339844 15.230469 22.339844 15.230469 22.070312 15.230469 C 21.914062 15.230469 21.75 15.230469 21.585938 15.234375 C 21.1875 15.1875 21.1875 15.1875 20.8125 14.8125 C 20.941406 13.765625 21.074219 13.664062 22.101562 13.664062 Z M 22.101562 13.664062 "/>
<path style=" stroke:none;fill-rule:nonzero;fill:rgb(20%,80.000001%,55.686277%);fill-opacity:1;" d="M 25.582031 23.214844 C 25.765625 23.214844 25.949219 23.210938 26.140625 23.207031 C 26.316406 23.207031 26.488281 23.207031 26.671875 23.207031 C 26.832031 23.207031 26.992188 23.207031 27.160156 23.203125 C 27.5625 23.25 27.5625 23.25 27.9375 23.625 C 27.832031 24.480469 27.832031 24.480469 27.5625 24.75 C 26.910156 24.796875 26.257812 24.785156 25.605469 24.785156 C 25.421875 24.789062 25.238281 24.789062 25.046875 24.792969 C 24.875 24.792969 24.695312 24.792969 24.515625 24.792969 C 24.355469 24.792969 24.191406 24.796875 24.027344 24.796875 C 23.625 24.75 23.625 24.75 23.25 24.375 C 23.433594 22.875 24.277344 23.214844 25.582031 23.214844 Z M 25.582031 23.214844 "/>
<path style=" stroke:none;fill-rule:nonzero;fill:rgb(67.843139%,69.803923%,74.509805%);fill-opacity:1;" d="M 5.601562 42.324219 C 5.734375 42.328125 5.863281 42.328125 6 42.328125 C 6.132812 42.328125 6.261719 42.328125 6.398438 42.324219 C 6.75 42.375 6.75 42.375 7.125 42.75 C 7.171875 43.21875 7.171875 43.21875 7.125 43.6875 C 6.75 44.0625 6.75 44.0625 6.398438 44.113281 C 6.265625 44.113281 6.136719 44.109375 6 44.109375 C 5.867188 44.109375 5.738281 44.113281 5.601562 44.113281 C 5.25 44.0625 5.25 44.0625 4.875 43.6875 C 4.828125 43.21875 4.828125 43.21875 4.875 42.75 C 5.25 42.375 5.25 42.375 5.601562 42.324219 Z M 5.601562 42.324219 "/>
<path style=" stroke:none;fill-rule:nonzero;fill:rgb(67.843139%,69.803923%,74.509805%);fill-opacity:1;" d="M 5.601562 39.136719 C 5.734375 39.140625 5.863281 39.140625 6 39.140625 C 6.132812 39.140625 6.261719 39.140625 6.398438 39.136719 C 6.75 39.1875 6.75 39.1875 7.125 39.5625 C 7.171875 40.03125 7.171875 40.03125 7.125 40.5 C 6.75 40.875 6.75 40.875 6.398438 40.925781 C 6.265625 40.925781 6.136719 40.921875 6 40.921875 C 5.867188 40.921875 5.738281 40.925781 5.601562 40.925781 C 5.25 40.875 5.25 40.875 4.875 40.5 C 4.828125 40.03125 4.828125 40.03125 4.875 39.5625 C 5.25 39.1875 5.25 39.1875 5.601562 39.136719 Z M 5.601562 39.136719 "/>
<path style=" stroke:none;fill-rule:nonzero;fill:rgb(67.450982%,69.411767%,74.509805%);fill-opacity:1;" d="M 5.484375 23.226562 C 5.65625 23.226562 5.824219 23.226562 6 23.226562 C 6.253906 23.226562 6.253906 23.226562 6.515625 23.226562 C 6.9375 23.25 6.9375 23.25 7.125 23.4375 C 7.148438 24 7.148438 24 7.125 24.5625 C 6.9375 24.75 6.9375 24.75 6.515625 24.777344 C 6.34375 24.773438 6.175781 24.773438 6 24.773438 C 5.746094 24.773438 5.746094 24.773438 5.484375 24.777344 C 5.0625 24.75 5.0625 24.75 4.875 24.5625 C 4.851562 24 4.851562 24 4.875 23.4375 C 5.0625 23.25 5.0625 23.25 5.484375 23.226562 Z M 5.484375 23.226562 "/>
<path style=" stroke:none;fill-rule:nonzero;fill:rgb(67.058825%,69.01961%,74.117649%);fill-opacity:1;" d="M 6 26.402344 C 6.195312 26.398438 6.195312 26.398438 6.398438 26.394531 C 6.75 26.4375 6.75 26.4375 7.125 26.8125 C 7.160156 27.292969 7.160156 27.292969 7.125 27.75 C 6.9375 27.9375 6.9375 27.9375 6.515625 27.960938 C 6.34375 27.960938 6.175781 27.960938 6 27.960938 C 5.746094 27.960938 5.746094 27.960938 5.484375 27.960938 C 5.0625 27.9375 5.0625 27.9375 4.875 27.75 C 4.867188 27.375 4.867188 27 4.875 26.625 C 5.292969 26.414062 5.535156 26.40625 6 26.402344 Z M 6 26.402344 "/>
<path style=" stroke:none;fill-rule:nonzero;fill:rgb(67.058825%,69.01961%,73.725492%);fill-opacity:1;" d="M 5.601562 35.949219 C 5.734375 35.953125 5.863281 35.953125 6 35.953125 C 6.132812 35.953125 6.261719 35.953125 6.398438 35.949219 C 6.75 36 6.75 36 7.125 36.375 C 7.160156 36.855469 7.160156 36.855469 7.125 37.3125 C 6.9375 37.5 6.9375 37.5 6.515625 37.523438 C 6.347656 37.523438 6.175781 37.523438 6 37.523438 C 5.742188 37.523438 5.742188 37.523438 5.484375 37.523438 C 5.0625 37.5 5.0625 37.5 4.875 37.3125 C 4.839844 36.855469 4.839844 36.855469 4.875 36.375 C 5.25 36 5.25 36 5.601562 35.949219 Z M 5.601562 35.949219 "/>
<path style=" stroke:none;fill-rule:nonzero;fill:rgb(67.058825%,69.01961%,73.725492%);fill-opacity:1;" d="M 5.601562 32.761719 C 5.734375 32.765625 5.863281 32.765625 6 32.765625 C 6.132812 32.765625 6.261719 32.765625 6.398438 32.761719 C 6.75 32.8125 6.75 32.8125 7.125 33.1875 C 7.160156 33.667969 7.160156 33.667969 7.125 34.125 C 6.9375 34.3125 6.9375 34.3125 6.515625 34.335938 C 6.347656 34.335938 6.175781 34.335938 6 34.335938 C 5.742188 34.335938 5.742188 34.335938 5.484375 34.335938 C 5.0625 34.3125 5.0625 34.3125 4.875 34.125 C 4.839844 33.667969 4.839844 33.667969 4.875 33.1875 C 5.25 32.8125 5.25 32.8125 5.601562 32.761719 Z M 5.601562 32.761719 "/>
<path style=" stroke:none;fill-rule:nonzero;fill:rgb(67.058825%,69.01961%,73.725492%);fill-opacity:1;" d="M 5.601562 29.574219 C 5.734375 29.578125 5.863281 29.578125 6 29.578125 C 6.132812 29.578125 6.261719 29.578125 6.398438 29.574219 C 6.75 29.625 6.75 29.625 7.125 30 C 7.160156 30.480469 7.160156 30.480469 7.125 30.9375 C 6.9375 31.125 6.9375 31.125 6.515625 31.148438 C 6.347656 31.148438 6.175781 31.148438 6 31.148438 C 5.742188 31.148438 5.742188 31.148438 5.484375 31.148438 C 5.0625 31.125 5.0625 31.125 4.875 30.9375 C 4.839844 30.480469 4.839844 30.480469 4.875 30 C 5.25 29.625 5.25 29.625 5.601562 29.574219 Z M 5.601562 29.574219 "/>
<path style=" stroke:none;fill-rule:nonzero;fill:rgb(67.058825%,69.01961%,74.117649%);fill-opacity:1;" d="M 5.484375 20.039062 C 5.65625 20.039062 5.824219 20.039062 6 20.039062 C 6.253906 20.039062 6.253906 20.039062 6.515625 20.039062 C 6.9375 20.0625 6.9375 20.0625 7.125 20.25 C 7.160156 20.707031 7.160156 20.707031 7.125 21.1875 C 6.75 21.5625 6.75 21.5625 6.398438 21.613281 C 6.265625 21.609375 6.136719 21.609375 6 21.609375 C 5.867188 21.609375 5.738281 21.609375 5.601562 21.613281 C 5.25 21.5625 5.25 21.5625 4.875 21.1875 C 4.839844 20.707031 4.839844 20.707031 4.875 20.25 C 5.0625 20.0625 5.0625 20.0625 5.484375 20.039062 Z M 5.484375 20.039062 "/>
<path style=" stroke:none;fill-rule:nonzero;fill:rgb(67.058825%,69.01961%,73.725492%);fill-opacity:1;" d="M 5.484375 16.851562 C 5.65625 16.851562 5.824219 16.851562 6 16.851562 C 6.253906 16.851562 6.253906 16.851562 6.515625 16.851562 C 6.9375 16.875 6.9375 16.875 7.125 17.0625 C 7.160156 17.519531 7.160156 17.519531 7.125 18 C 6.75 18.375 6.75 18.375 6.398438 18.425781 C 6.265625 18.421875 6.136719 18.421875 6 18.421875 C 5.867188 18.421875 5.738281 18.421875 5.601562 18.425781 C 5.25 18.375 5.25 18.375 4.875 18 C 4.839844 17.519531 4.839844 17.519531 4.875 17.0625 C 5.0625 16.875 5.0625 16.875 5.484375 16.851562 Z M 5.484375 16.851562 "/>
<path style=" stroke:none;fill-rule:nonzero;fill:rgb(67.058825%,69.01961%,73.725492%);fill-opacity:1;" d="M 5.484375 13.664062 C 5.65625 13.664062 5.824219 13.664062 6 13.664062 C 6.253906 13.664062 6.253906 13.664062 6.515625 13.664062 C 6.9375 13.6875 6.9375 13.6875 7.125 13.875 C 7.160156 14.332031 7.160156 14.332031 7.125 14.8125 C 6.75 15.1875 6.75 15.1875 6.398438 15.238281 C 6.265625 15.234375 6.136719 15.234375 6 15.234375 C 5.867188 15.234375 5.738281 15.234375 5.601562 15.238281 C 5.25 15.1875 5.25 15.1875 4.875 14.8125 C 4.839844 14.332031 4.839844 14.332031 4.875 13.875 C 5.0625 13.6875 5.0625 13.6875 5.484375 13.664062 Z M 5.484375 13.664062 "/>
<path style=" stroke:none;fill-rule:nonzero;fill:rgb(67.058825%,69.01961%,73.725492%);fill-opacity:1;" d="M 5.484375 10.476562 C 5.65625 10.476562 5.824219 10.476562 6 10.476562 C 6.253906 10.476562 6.253906 10.476562 6.515625 10.476562 C 6.9375 10.5 6.9375 10.5 7.125 10.6875 C 7.160156 11.144531 7.160156 11.144531 7.125 11.625 C 6.75 12 6.75 12 6.398438 12.050781 C 6.265625 12.046875 6.136719 12.046875 6 12.046875 C 5.867188 12.046875 5.738281 12.046875 5.601562 12.050781 C 5.25 12 5.25 12 4.875 11.625 C 4.839844 11.144531 4.839844 11.144531 4.875 10.6875 C 5.0625 10.5 5.0625 10.5 5.484375 10.476562 Z M 5.484375 10.476562 "/>
<path style=" stroke:none;fill-rule:nonzero;fill:rgb(85.882354%,80.000001%,22.745098%);fill-opacity:1;" d="M 6.75 3.1875 C 7.335938 3.257812 7.335938 3.257812 7.875 3.375 C 8.003906 3.808594 8.003906 3.808594 8.0625 4.3125 C 7.851562 4.664062 7.851562 4.664062 7.5 4.875 C 6.996094 4.816406 6.996094 4.816406 6.5625 4.6875 C 6.445312 4.148438 6.445312 4.148438 6.375 3.5625 C 6.5 3.4375 6.621094 3.316406 6.75 3.1875 Z M 6.75 3.1875 "/>
<path style=" stroke:none;fill-rule:nonzero;fill:rgb(18.82353%,73.725492%,54.11765%);fill-opacity:1;" d="M 3.5625 3.1875 C 4.179688 3.25 4.429688 3.304688 4.875 3.75 C 4.804688 4.300781 4.714844 4.472656 4.3125 4.875 C 3.820312 4.804688 3.820312 4.804688 3.375 4.6875 C 3.257812 4.148438 3.257812 4.148438 3.1875 3.5625 C 3.3125 3.4375 3.433594 3.316406 3.5625 3.1875 Z M 3.5625 3.1875 "/>
<path style=" stroke:none;fill-rule:nonzero;fill:rgb(85.490197%,29.411766%,36.078432%);fill-opacity:1;" d="M 9.9375 3.1875 C 10.3125 3.242188 10.6875 3.304688 11.0625 3.375 C 11.191406 3.808594 11.191406 3.808594 11.25 4.3125 C 11.027344 4.664062 11.027344 4.664062 10.6875 4.875 C 10.128906 4.824219 9.964844 4.714844 9.5625 4.3125 C 9.667969 3.457031 9.667969 3.457031 9.9375 3.1875 Z M 9.9375 3.1875 "/>
</g>
</svg>
