<?xml version="1.0" encoding="UTF-8"?>
<svg xmlns="http://www.w3.org/2000/svg" xmlns:xlink="http://www.w3.org/1999/xlink" width="48" height="48" viewBox="0 0 48 48" version="1.1">
<g id="surface1">
<path style=" stroke:none;fill-rule:nonzero;fill:rgb(94.509804%,0%,31.764707%);fill-opacity:1;" d="M 39.113281 5.128906 C 39.78125 5.710938 40.421875 6.320312 41.0625 6.9375 C 41.195312 7.058594 41.332031 7.183594 41.46875 7.308594 C 42.648438 8.417969 43.542969 9.722656 44.4375 11.0625 C 44.554688 11.238281 44.675781 11.414062 44.796875 11.59375 C 48.027344 16.742188 48.941406 23.566406 47.605469 29.46875 C 46.023438 35.703125 42.292969 41.210938 36.75 44.59375 C 34.609375 45.855469 32.390625 46.761719 30 47.4375 C 29.78125 47.503906 29.558594 47.566406 29.332031 47.632812 C 23.351562 49.042969 16.597656 47.847656 11.378906 44.691406 C 5.925781 41.261719 2.304688 36.15625 0.5625 30 C 0.5 29.78125 0.433594 29.558594 0.367188 29.328125 C -1.054688 23.308594 0.179688 16.546875 3.382812 11.304688 C 4.308594 9.855469 5.371094 8.554688 6.5625 7.3125 C 6.714844 7.148438 6.863281 6.980469 7.023438 6.8125 C 10.003906 3.660156 13.867188 1.734375 18 0.5625 C 18.222656 0.496094 18.441406 0.433594 18.671875 0.367188 C 25.605469 -1.269531 33.664062 0.546875 39.113281 5.128906 Z M 39.113281 5.128906 "/>
<path style=" stroke:none;fill-rule:nonzero;fill:rgb(99.607843%,0.392157%,34.901962%);fill-opacity:1;" d="M 39.113281 5.128906 C 39.78125 5.710938 40.421875 6.320312 41.0625 6.9375 C 41.195312 7.058594 41.332031 7.183594 41.46875 7.308594 C 42.808594 8.5625 43.800781 10.105469 44.8125 11.625 C 44.648438 13.242188 43.0625 14.777344 42.007812 15.898438 C 41.597656 16.328125 41.597656 16.328125 41.179688 16.886719 C 40.417969 17.742188 39.53125 18.425781 38.625 19.125 C 38.484375 19.234375 38.34375 19.34375 38.199219 19.460938 C 35.222656 21.671875 31.9375 22.964844 28.3125 23.625 C 28.25 29.316406 28.1875 35.007812 28.125 40.875 C 28.804688 40.875 29.488281 40.875 30.1875 40.875 C 30.1875 42.234375 30.1875 43.597656 30.1875 45 C 26.96875 45 23.753906 45 20.4375 45 C 20.4375 43.636719 20.4375 42.277344 20.4375 40.875 C 21.117188 40.8125 21.800781 40.75 22.5 40.6875 C 22.4375 40.554688 22.375 40.425781 22.308594 40.289062 C 22.226562 40.109375 22.140625 39.933594 22.054688 39.75 C 21.972656 39.578125 21.890625 39.402344 21.804688 39.222656 C 21.28125 37.929688 21.117188 36.761719 21.128906 35.378906 C 21.128906 35.222656 21.128906 35.066406 21.132812 34.902344 C 21.15625 33.597656 21.28125 32.332031 21.933594 31.171875 C 22.484375 30.175781 22.609375 29.371094 22.617188 28.242188 C 22.644531 26.667969 22.644531 26.667969 23.0625 26.25 C 23.589844 26.167969 23.589844 26.167969 24.1875 26.25 C 24.496094 26.558594 24.808594 26.867188 25.125 27.1875 C 25.1875 26.136719 25.25 25.082031 25.3125 24 C 24.792969 24.011719 24.277344 24.023438 23.742188 24.035156 C 19.730469 24.054688 15.988281 22.980469 12.421875 21.164062 C 12.269531 21.085938 12.113281 21.011719 11.957031 20.933594 C 11.820312 20.855469 11.679688 20.785156 11.535156 20.703125 C 11.410156 20.640625 11.289062 20.574219 11.160156 20.507812 C 10.757812 20.144531 10.765625 19.847656 10.6875 19.3125 C 10.671875 18.945312 10.664062 18.578125 10.664062 18.207031 C 10.664062 17.988281 10.664062 17.773438 10.664062 17.546875 C 10.667969 17.316406 10.667969 17.082031 10.667969 16.84375 C 10.667969 16.601562 10.667969 16.363281 10.667969 16.113281 C 10.671875 15.480469 10.671875 14.84375 10.675781 14.207031 C 10.675781 13.558594 10.675781 12.90625 10.679688 12.257812 C 10.679688 10.984375 10.683594 9.710938 10.6875 8.4375 C 9.015625 8.4375 7.347656 8.4375 5.625 8.4375 C 9.027344 4.46875 12.972656 1.988281 18 0.5625 C 18.222656 0.496094 18.441406 0.433594 18.671875 0.367188 C 25.605469 -1.269531 33.664062 0.546875 39.113281 5.128906 Z M 39.113281 5.128906 "/>
<path style=" stroke:none;fill-rule:nonzero;fill:rgb(94.901961%,0%,31.764707%);fill-opacity:1;" d="M 44.8125 12 C 45.554688 12.8125 45.917969 13.675781 46.3125 14.683594 C 46.410156 14.929688 46.410156 14.929688 46.507812 15.183594 C 48.820312 21.179688 48.621094 27.992188 46.125 33.890625 C 43.488281 39.785156 38.558594 44.296875 32.574219 46.636719 C 31.875 46.875 31.875 46.875 31.3125 46.875 C 31.3125 46.257812 31.3125 45.636719 31.3125 45 C 30.941406 45 30.570312 45 30.1875 45 C 30.1875 43.640625 30.1875 42.277344 30.1875 40.875 C 29.507812 40.875 28.828125 40.875 28.125 40.875 C 28.125 34.128906 28.125 27.386719 28.125 20.4375 C 28.1875 20.4375 28.25 20.4375 28.3125 20.4375 C 28.3125 21.488281 28.3125 22.542969 28.3125 23.625 C 34.84375 21.996094 40.144531 18.765625 43.96875 13.160156 C 44.238281 12.765625 44.523438 12.382812 44.8125 12 Z M 44.8125 12 "/>
<path style=" stroke:none;fill-rule:nonzero;fill:rgb(99.607843%,80.000001%,74.117649%);fill-opacity:1;" d="M 10.6875 9.375 C 12.046875 9.375 13.410156 9.375 14.8125 9.375 C 14.8125 10.117188 14.8125 10.859375 14.8125 11.625 C 15.070312 11.625 15.328125 11.625 15.597656 11.621094 C 18.035156 11.609375 20.476562 11.601562 22.914062 11.59375 C 24.167969 11.59375 25.421875 11.589844 26.675781 11.582031 C 27.886719 11.578125 29.097656 11.574219 30.304688 11.574219 C 30.765625 11.570312 31.230469 11.570312 31.691406 11.566406 C 32.339844 11.5625 32.984375 11.5625 33.628906 11.5625 C 33.820312 11.558594 34.011719 11.558594 34.210938 11.554688 C 34.386719 11.554688 34.5625 11.554688 34.742188 11.558594 C 34.898438 11.558594 35.050781 11.554688 35.207031 11.554688 C 35.726562 11.640625 35.988281 11.832031 36.375 12.1875 C 36.472656 12.550781 36.472656 12.550781 36.46875 12.9375 C 36.472656 13.128906 36.472656 13.128906 36.472656 13.324219 C 36.375 13.6875 36.375 13.6875 36.101562 13.984375 C 35.386719 14.382812 34.714844 14.339844 33.910156 14.34375 C 33.746094 14.347656 33.582031 14.351562 33.410156 14.355469 C 32.882812 14.367188 32.355469 14.371094 31.828125 14.378906 C 31.46875 14.386719 31.113281 14.390625 30.753906 14.398438 C 29.878906 14.414062 29 14.425781 28.125 14.4375 C 28.304688 14.550781 28.480469 14.664062 28.664062 14.777344 C 29.25 15.1875 29.25 15.1875 29.625 15.75 C 29.566406 16.371094 29.511719 16.613281 29.0625 17.0625 C 28.53125 17.097656 28.011719 17.113281 27.480469 17.121094 C 26.207031 17.160156 25.230469 17.316406 24.101562 17.953125 C 22.914062 18.535156 21.707031 18.636719 20.402344 18.632812 C 20.167969 18.632812 20.167969 18.632812 19.933594 18.632812 C 18.117188 18.597656 16.601562 18.078125 15 17.25 C 15 17.929688 15 18.609375 15 19.3125 C 13.578125 19.3125 12.152344 19.3125 10.6875 19.3125 C 10.6875 16.03125 10.6875 12.753906 10.6875 9.375 Z M 10.6875 9.375 "/>
<path style=" stroke:none;fill-rule:nonzero;fill:rgb(99.607843%,79.215688%,73.725492%);fill-opacity:1;" d="M 27.375 19.3125 C 27.78125 19.570312 27.78125 19.570312 28.125 20.0625 C 28.234375 20.726562 28.21875 21.386719 28.210938 22.058594 C 28.210938 22.261719 28.210938 22.464844 28.210938 22.675781 C 28.210938 23.34375 28.203125 24.015625 28.199219 24.6875 C 28.195312 25.152344 28.195312 25.621094 28.195312 26.085938 C 28.191406 27.1875 28.1875 28.285156 28.179688 29.386719 C 28.171875 30.761719 28.167969 32.136719 28.164062 33.515625 C 28.152344 35.96875 28.140625 38.421875 28.125 40.875 C 28.804688 40.875 29.484375 40.875 30.1875 40.875 C 30.1875 42.234375 30.1875 43.597656 30.1875 45 C 26.96875 45 23.753906 45 20.4375 45 C 20.4375 43.640625 20.4375 42.277344 20.4375 40.875 C 21.457031 40.78125 21.457031 40.78125 22.5 40.6875 C 22.40625 40.492188 22.40625 40.492188 22.308594 40.289062 C 22.222656 40.113281 22.140625 39.933594 22.054688 39.75 C 21.972656 39.574219 21.890625 39.402344 21.804688 39.222656 C 21.28125 37.929688 21.121094 36.761719 21.128906 35.378906 C 21.128906 35.222656 21.132812 35.066406 21.132812 34.90625 C 21.15625 33.597656 21.28125 32.335938 21.933594 31.171875 C 22.484375 30.175781 22.609375 29.371094 22.617188 28.242188 C 22.640625 26.671875 22.640625 26.671875 23.0625 26.25 C 23.589844 26.167969 23.589844 26.167969 24.1875 26.25 C 24.667969 26.65625 25.03125 26.996094 25.3125 27.5625 C 25.3125 27.339844 25.316406 27.117188 25.316406 26.886719 C 25.324219 26.058594 25.335938 25.226562 25.351562 24.398438 C 25.359375 24.042969 25.359375 23.679688 25.363281 23.324219 C 25.367188 22.808594 25.375 22.292969 25.386719 21.777344 C 25.386719 21.617188 25.386719 21.457031 25.386719 21.289062 C 25.414062 20.179688 25.414062 20.179688 25.847656 19.585938 C 26.398438 19.210938 26.71875 19.203125 27.375 19.3125 Z M 27.375 19.3125 "/>
<path style=" stroke:none;fill-rule:nonzero;fill:rgb(22.352941%,17.647059%,43.137255%);fill-opacity:1;" d="M 5.4375 8.4375 C 7.171875 8.4375 8.902344 8.4375 10.6875 8.4375 C 10.6875 12.335938 10.6875 16.234375 10.6875 20.25 C 7.222656 20.25 3.757812 20.25 0.1875 20.25 C 0.628906 17.597656 0.628906 17.597656 1.054688 16.359375 C 1.101562 16.21875 1.152344 16.074219 1.203125 15.929688 C 2.1875 13.136719 3.667969 10.796875 5.4375 8.4375 Z M 5.4375 8.4375 "/>
<path style=" stroke:none;fill-rule:nonzero;fill:rgb(98.431373%,72.549021%,66.274512%);fill-opacity:1;" d="M 10.6875 9.375 C 10.75 9.375 10.8125 9.375 10.875 9.375 C 10.875 12.59375 10.875 15.808594 10.875 19.125 C 12.175781 19.125 13.472656 19.125 14.8125 19.125 C 14.808594 18.84375 14.804688 18.5625 14.800781 18.269531 C 14.8125 16.925781 14.910156 15.589844 15 14.25 C 17.535156 14.25 20.074219 14.25 22.6875 14.25 C 22.6875 13.816406 22.6875 13.382812 22.6875 12.9375 C 27.203125 12.9375 31.722656 12.9375 36.375 12.9375 C 36.3125 13.246094 36.25 13.554688 36.1875 13.875 C 35.625 14.25 35.507812 14.296875 34.875 14.308594 C 34.722656 14.3125 34.574219 14.316406 34.417969 14.320312 C 34.175781 14.324219 34.175781 14.324219 33.929688 14.328125 C 33.761719 14.332031 33.597656 14.335938 33.425781 14.339844 C 32.898438 14.347656 32.367188 14.359375 31.839844 14.367188 C 31.480469 14.375 31.125 14.382812 30.761719 14.390625 C 29.882812 14.40625 29.003906 14.421875 28.125 14.4375 C 28.304688 14.550781 28.480469 14.664062 28.664062 14.777344 C 29.25 15.1875 29.25 15.1875 29.625 15.75 C 29.566406 16.371094 29.511719 16.613281 29.0625 17.0625 C 28.53125 17.097656 28.011719 17.113281 27.480469 17.121094 C 26.207031 17.160156 25.230469 17.316406 24.101562 17.953125 C 22.914062 18.535156 21.707031 18.636719 20.402344 18.632812 C 20.167969 18.632812 20.167969 18.632812 19.933594 18.632812 C 18.117188 18.597656 16.601562 18.078125 15 17.25 C 15 17.929688 15 18.609375 15 19.3125 C 13.578125 19.3125 12.152344 19.3125 10.6875 19.3125 C 10.6875 16.03125 10.6875 12.753906 10.6875 9.375 Z M 10.6875 9.375 "/>
<path style=" stroke:none;fill-rule:nonzero;fill:rgb(100%,74.117649%,66.274512%);fill-opacity:1;" d="M 26.8125 19.21875 C 27.375 19.3125 27.375 19.3125 27.78125 19.570312 C 28.324219 20.347656 28.222656 21.113281 28.210938 22.039062 C 28.210938 22.242188 28.210938 22.445312 28.210938 22.648438 C 28.210938 23.316406 28.203125 23.980469 28.199219 24.648438 C 28.195312 25.109375 28.195312 25.570312 28.195312 26.03125 C 28.191406 27.246094 28.183594 28.460938 28.175781 29.675781 C 28.167969 30.914062 28.167969 32.152344 28.164062 33.390625 C 28.152344 35.824219 28.140625 38.253906 28.125 40.6875 C 27.195312 40.6875 26.269531 40.6875 25.3125 40.6875 C 25.277344 28.179688 25.277344 28.179688 25.351562 23.746094 C 25.359375 23.417969 25.359375 23.085938 25.363281 22.757812 C 25.367188 22.308594 25.375 21.859375 25.386719 21.410156 C 25.390625 21.164062 25.394531 20.921875 25.398438 20.667969 C 25.550781 19.761719 25.90625 19.371094 26.8125 19.21875 Z M 26.8125 19.21875 "/>
<path style=" stroke:none;fill-rule:nonzero;fill:rgb(27.058825%,22.745098%,51.764709%);fill-opacity:1;" d="M 8.132812 8.34375 C 9.398438 8.390625 9.398438 8.390625 10.6875 8.4375 C 10.6875 10.355469 10.6875 12.273438 10.6875 14.25 C 7.84375 14.25 4.992188 14.25 2.0625 14.25 C 2.484375 12.773438 2.484375 12.773438 2.84375 12.207031 C 2.960938 12.019531 2.960938 12.019531 3.082031 11.828125 C 3.164062 11.703125 3.246094 11.578125 3.328125 11.449219 C 3.40625 11.324219 3.484375 11.199219 3.566406 11.070312 C 3.726562 10.820312 3.890625 10.570312 4.058594 10.320312 C 4.320312 9.9375 4.320312 9.9375 4.53125 9.511719 C 5.371094 8.050781 6.59375 8.265625 8.132812 8.34375 Z M 8.132812 8.34375 "/>
<path style=" stroke:none;fill-rule:nonzero;fill:rgb(89.411765%,94.117647%,97.254902%);fill-opacity:1;" d="M 20.4375 40.875 C 23.65625 40.875 26.871094 40.875 30.1875 40.875 C 30.1875 42.234375 30.1875 43.597656 30.1875 45 C 26.96875 45 23.753906 45 20.4375 45 C 20.4375 43.640625 20.4375 42.277344 20.4375 40.875 Z M 20.4375 40.875 "/>
<path style=" stroke:none;fill-rule:nonzero;fill:rgb(89.411765%,94.117647%,97.254902%);fill-opacity:1;" d="M 10.875 9.375 C 12.175781 9.375 13.472656 9.375 14.8125 9.375 C 14.8125 12.59375 14.8125 15.808594 14.8125 19.125 C 13.511719 19.125 12.214844 19.125 10.875 19.125 C 10.875 15.90625 10.875 12.691406 10.875 9.375 Z M 10.875 9.375 "/>
<path style=" stroke:none;fill-rule:nonzero;fill:rgb(27.450982%,23.137255%,51.372552%);fill-opacity:1;" d="M 19.5 45 C 23.398438 45 27.296875 45 31.3125 45 C 31.3125 45.679688 31.3125 46.359375 31.3125 47.0625 C 30.839844 47.183594 30.367188 47.304688 29.894531 47.425781 C 29.761719 47.460938 29.628906 47.492188 29.492188 47.53125 C 29.363281 47.5625 29.230469 47.59375 29.097656 47.628906 C 28.976562 47.660156 28.859375 47.691406 28.734375 47.722656 C 27.691406 47.945312 26.671875 48.023438 25.605469 48.023438 C 25.414062 48.023438 25.414062 48.023438 25.21875 48.027344 C 24.949219 48.027344 24.679688 48.023438 24.410156 48.023438 C 24 48.023438 23.59375 48.023438 23.183594 48.027344 C 22.921875 48.027344 22.65625 48.023438 22.394531 48.023438 C 22.160156 48.023438 21.921875 48.023438 21.679688 48.023438 C 19.832031 47.957031 19.832031 47.957031 19.5 47.625 C 19.5 46.757812 19.5 45.890625 19.5 45 Z M 19.5 45 "/>
<path style=" stroke:none;fill-rule:nonzero;fill:rgb(81.568629%,90.588236%,99.607843%);fill-opacity:1;" d="M 25.5 40.875 C 27.046875 40.875 28.59375 40.875 30.1875 40.875 C 30.1875 42.234375 30.1875 43.597656 30.1875 45 C 28.640625 45 27.09375 45 25.5 45 C 25.5 43.640625 25.5 42.277344 25.5 40.875 Z M 25.5 40.875 "/>
<path style=" stroke:none;fill-rule:nonzero;fill:rgb(81.568629%,90.980393%,100%);fill-opacity:1;" d="M 10.875 14.4375 C 12.175781 14.4375 13.472656 14.4375 14.8125 14.4375 C 14.8125 15.984375 14.8125 17.53125 14.8125 19.125 C 13.511719 19.125 12.214844 19.125 10.875 19.125 C 10.875 17.578125 10.875 16.03125 10.875 14.4375 Z M 10.875 14.4375 "/>
<path style=" stroke:none;fill-rule:nonzero;fill:rgb(99.607843%,64.705884%,54.901963%);fill-opacity:1;" d="M 27.375 19.3125 C 27.1875 19.375 27.003906 19.4375 26.8125 19.5 C 26.8125 23.953125 26.8125 28.410156 26.8125 33 C 26.378906 33 25.945312 33 25.5 33 C 25.328125 30.089844 25.289062 27.183594 25.339844 24.265625 C 25.34375 23.90625 25.351562 23.550781 25.351562 23.199219 C 25.359375 22.691406 25.367188 22.183594 25.378906 21.679688 C 25.378906 21.527344 25.378906 21.375 25.382812 21.21875 C 25.402344 20.546875 25.445312 20.140625 25.84375 19.589844 C 26.375 19.226562 26.746094 19.253906 27.375 19.3125 Z M 27.375 19.3125 "/>
<path style=" stroke:none;fill-rule:nonzero;fill:rgb(100%,64.705884%,54.901963%);fill-opacity:1;" d="M 22.6875 12.9375 C 27.203125 12.9375 31.722656 12.9375 36.375 12.9375 C 36.3125 13.246094 36.25 13.554688 36.1875 13.875 C 35.609375 14.257812 35.472656 14.296875 34.816406 14.3125 C 34.652344 14.316406 34.492188 14.320312 34.324219 14.324219 C 34.144531 14.328125 33.96875 14.332031 33.789062 14.335938 C 33.601562 14.339844 33.417969 14.34375 33.226562 14.347656 C 32.832031 14.355469 32.4375 14.363281 32.042969 14.367188 C 31.457031 14.378906 30.867188 14.390625 30.28125 14.40625 C 27.742188 14.457031 25.222656 14.398438 22.6875 14.25 C 22.6875 13.816406 22.6875 13.382812 22.6875 12.9375 Z M 22.6875 12.9375 "/>
<path style=" stroke:none;fill-rule:nonzero;fill:rgb(22.745098%,17.647059%,42.745098%);fill-opacity:1;" d="M 25.5 45 C 27.417969 45 29.335938 45 31.3125 45 C 31.3125 45.679688 31.3125 46.359375 31.3125 47.0625 C 30.839844 47.183594 30.367188 47.304688 29.894531 47.425781 C 29.761719 47.460938 29.628906 47.492188 29.492188 47.53125 C 28.359375 47.816406 27.246094 48.03125 26.074219 48.011719 C 25.929688 48.007812 25.785156 48.007812 25.636719 48.007812 C 25.527344 48.003906 25.421875 48 25.3125 48 C 25.308594 47.605469 25.304688 47.210938 25.300781 46.816406 C 25.300781 46.597656 25.296875 46.375 25.292969 46.152344 C 25.3125 45.5625 25.3125 45.5625 25.5 45 Z M 25.5 45 "/>
</g>
</svg>
