<?xml version="1.0" encoding="UTF-8"?>
<svg xmlns="http://www.w3.org/2000/svg" xmlns:xlink="http://www.w3.org/1999/xlink" width="48" height="48" viewBox="0 0 48 48" version="1.1">
<g id="surface1">
<path style=" stroke:none;fill-rule:nonzero;fill:rgb(94.509804%,38.039216%,38.039216%);fill-opacity:1;" d="M 19.074219 15.050781 C 21.527344 16.996094 23.238281 19.585938 23.8125 22.6875 C 24.542969 29.601562 19.617188 36.292969 15.75 41.625 C 15.992188 41.707031 15.992188 41.707031 16.238281 41.789062 C 19.058594 42.800781 19.058594 42.800781 19.6875 44.0625 C 19.816406 45.382812 19.816406 45.382812 19.324219 46.066406 C 17.082031 47.761719 14.703125 48.105469 11.929688 48.082031 C 11.691406 48.082031 11.453125 48.078125 11.207031 48.078125 C 8.753906 48.035156 6.484375 47.691406 4.5 46.125 C 4.035156 45.429688 3.980469 44.867188 4.125 44.0625 C 5.019531 42.609375 6.523438 42.175781 8.0625 41.625 C 7.964844 41.488281 7.871094 41.355469 7.773438 41.21875 C -0.894531 28.878906 -0.894531 28.878906 0.0585938 22.292969 C 0.679688 19.179688 2.628906 16.566406 5.171875 14.722656 C 9.441406 12.035156 14.960938 12.042969 19.074219 15.050781 Z M 6.503906 20.296875 C 5.332031 21.679688 4.792969 23.382812 4.824219 25.191406 C 5.03125 27.199219 5.820312 28.777344 7.289062 30.136719 C 8.785156 31.351562 10.636719 32 12.5625 31.875 C 14.539062 31.515625 16.242188 30.691406 17.523438 29.113281 C 18.570312 27.558594 19.132812 25.871094 18.9375 24 C 18.449219 21.722656 17.460938 20.109375 15.5625 18.75 C 12.378906 16.996094 8.972656 17.714844 6.503906 20.296875 Z M 6.503906 20.296875 "/>
<path style=" stroke:none;fill-rule:nonzero;fill:rgb(7.058824%,72.549021%,46.27451%);fill-opacity:1;" d="M 45.535156 1.148438 C 46.714844 2.019531 47.714844 3.621094 48 5.0625 C 48.417969 9.097656 46.023438 12.523438 43.875 15.75 C 43.980469 15.8125 44.082031 15.878906 44.1875 15.941406 C 44.324219 16.027344 44.460938 16.109375 44.601562 16.195312 C 44.738281 16.277344 44.871094 16.359375 45.011719 16.445312 C 45.375 16.6875 45.375 16.6875 45.75 17.0625 C 45.832031 17.710938 45.84375 18.054688 45.46875 18.597656 C 43.914062 19.722656 41.980469 19.8125 40.125 19.6875 C 37.644531 19.285156 37.644531 19.285156 36.9375 18.375 C 36.808594 17.730469 36.808594 17.730469 36.9375 17.0625 C 37.511719 16.476562 38.082031 16.101562 38.8125 15.75 C 38.722656 15.609375 38.722656 15.609375 38.628906 15.46875 C 33.992188 8.347656 33.992188 8.347656 34.6875 4.875 C 35.386719 2.585938 36.859375 1.308594 38.90625 0.210938 C 41.15625 -0.535156 43.566406 -0.0507812 45.535156 1.148438 Z M 38.460938 4.3125 C 37.652344 5.457031 37.566406 6.296875 37.6875 7.6875 C 38.023438 8.78125 38.84375 9.464844 39.75 10.125 C 40.734375 10.453125 41.839844 10.527344 42.816406 10.136719 C 43.863281 9.507812 44.671875 8.703125 45 7.5 C 45.15625 6.277344 44.96875 5.324219 44.25 4.3125 C 43.433594 3.429688 42.574219 2.992188 41.378906 2.929688 C 40.183594 2.960938 39.246094 3.410156 38.460938 4.3125 Z M 38.460938 4.3125 "/>
<path style=" stroke:none;fill-rule:nonzero;fill:rgb(3.529412%,1.960784%,1.176471%);fill-opacity:1;" d="M 19.074219 15.050781 C 21.527344 16.996094 23.238281 19.585938 23.8125 22.6875 C 24.542969 29.601562 19.617188 36.292969 15.75 41.625 C 15.992188 41.707031 15.992188 41.707031 16.238281 41.789062 C 19.058594 42.800781 19.058594 42.800781 19.6875 44.0625 C 19.816406 45.382812 19.816406 45.382812 19.324219 46.066406 C 17.082031 47.761719 14.703125 48.105469 11.929688 48.082031 C 11.691406 48.082031 11.453125 48.078125 11.207031 48.078125 C 8.753906 48.035156 6.484375 47.691406 4.5 46.125 C 4.035156 45.429688 3.980469 44.867188 4.125 44.0625 C 5.019531 42.609375 6.523438 42.175781 8.0625 41.625 C 7.964844 41.488281 7.871094 41.355469 7.773438 41.21875 C -0.894531 28.878906 -0.894531 28.878906 0.0585938 22.292969 C 0.679688 19.179688 2.628906 16.566406 5.171875 14.722656 C 9.441406 12.035156 14.960938 12.042969 19.074219 15.050781 Z M 7.3125 14.25 C 7.125 14.34375 6.9375 14.4375 6.746094 14.53125 C 3.742188 16.160156 1.726562 18.648438 0.714844 21.902344 C -0.0273438 25.707031 1.195312 28.921875 2.972656 32.226562 C 3.199219 32.644531 3.417969 33.066406 3.636719 33.488281 C 5 36.070312 6.597656 38.472656 8.25 40.875 C 8.417969 41.121094 8.417969 41.121094 8.589844 41.371094 C 8.890625 41.816406 9.199219 42.261719 9.503906 42.703125 C 9.59375 42.832031 9.679688 42.960938 9.769531 43.09375 C 10.253906 43.78125 10.71875 44.34375 11.4375 44.8125 C 12.097656 44.886719 12.097656 44.886719 12.75 44.625 C 13.765625 43.699219 14.515625 42.441406 15.292969 41.320312 C 15.425781 41.132812 15.554688 40.941406 15.691406 40.746094 C 21.734375 32.246094 21.734375 32.246094 23.164062 22.273438 C 22.375 19.105469 20.390625 16.515625 17.625 14.8125 C 14.621094 13.246094 10.429688 12.65625 7.3125 14.25 Z M 7.3125 14.25 "/>
<path style=" stroke:none;fill-rule:nonzero;fill:rgb(0.784314%,2.745098%,1.960784%);fill-opacity:1;" d="M 45.535156 1.148438 C 46.714844 2.019531 47.714844 3.621094 48 5.0625 C 48.417969 9.097656 46.023438 12.523438 43.875 15.75 C 43.980469 15.8125 44.082031 15.878906 44.1875 15.941406 C 44.324219 16.027344 44.460938 16.109375 44.601562 16.195312 C 44.738281 16.277344 44.871094 16.359375 45.011719 16.445312 C 45.375 16.6875 45.375 16.6875 45.75 17.0625 C 45.832031 17.710938 45.84375 18.054688 45.46875 18.597656 C 43.914062 19.722656 41.980469 19.8125 40.125 19.6875 C 37.644531 19.285156 37.644531 19.285156 36.9375 18.375 C 36.808594 17.730469 36.808594 17.730469 36.9375 17.0625 C 37.511719 16.476562 38.082031 16.101562 38.8125 15.75 C 38.722656 15.609375 38.722656 15.609375 38.628906 15.46875 C 33.992188 8.347656 33.992188 8.347656 34.6875 4.875 C 35.386719 2.585938 36.859375 1.308594 38.90625 0.210938 C 41.15625 -0.535156 43.566406 -0.0507812 45.535156 1.148438 Z M 36.304688 2.9375 C 35.207031 4.511719 34.914062 6.171875 35.25 8.0625 C 35.554688 9.0625 36.054688 9.964844 36.5625 10.875 C 36.652344 11.050781 36.742188 11.230469 36.832031 11.410156 C 38.59375 15.003906 38.59375 15.003906 41.285156 17.574219 C 41.398438 17.589844 41.511719 17.609375 41.625 17.625 C 43.765625 15.175781 45.433594 12.28125 46.875 9.375 C 46.945312 9.238281 47.019531 9.105469 47.089844 8.96875 C 47.730469 7.59375 47.679688 5.855469 47.242188 4.433594 C 46.5 2.804688 45.386719 1.625 43.769531 0.84375 C 40.972656 -0.121094 38.15625 0.609375 36.304688 2.9375 Z M 36.304688 2.9375 "/>
<path style=" stroke:none;fill-rule:nonzero;fill:rgb(98.039216%,79.215688%,15.686275%);fill-opacity:1;" d="M 9 42.5625 C 9.328125 42.9375 9.601562 43.277344 9.878906 43.6875 C 10.363281 44.457031 10.363281 44.457031 11.0625 45 C 11.90625 45.117188 12.539062 45.152344 13.242188 44.636719 C 13.5 44.304688 13.75 43.96875 13.980469 43.617188 C 14.296875 43.164062 14.597656 42.757812 15 42.375 C 16.339844 42.214844 17.628906 42.992188 18.75 43.6875 C 19.125 44.25 19.125 44.25 19.113281 44.894531 C 18.898438 45.707031 18.683594 45.84375 18 46.3125 C 17.429688 46.585938 17.429688 46.585938 16.816406 46.816406 C 16.617188 46.894531 16.414062 46.972656 16.210938 47.054688 C 13.160156 47.984375 8.820312 47.902344 5.976562 46.40625 C 5.480469 46.113281 5.0625 45.816406 4.6875 45.375 C 4.59375 44.835938 4.59375 44.835938 4.6875 44.25 C 5.433594 43.269531 6.46875 42.757812 7.628906 42.410156 C 8.160156 42.367188 8.488281 42.390625 9 42.5625 Z M 9 42.5625 "/>
<path style=" stroke:none;fill-rule:nonzero;fill:rgb(4.313726%,1.568628%,1.568628%);fill-opacity:1;" d="M 15.84375 18.246094 C 17.6875 19.386719 18.910156 21.046875 19.429688 23.160156 C 19.726562 25.101562 19.492188 27.144531 18.433594 28.828125 C 17.261719 30.414062 16.105469 31.371094 14.25 32.0625 C 14.066406 32.132812 13.882812 32.199219 13.695312 32.269531 C 11.917969 32.789062 10.089844 32.457031 8.4375 31.6875 C 7.890625 31.355469 7.414062 30.988281 6.9375 30.5625 C 6.691406 30.347656 6.691406 30.347656 6.445312 30.128906 C 4.835938 28.308594 4.242188 26.578125 4.273438 24.15625 C 4.421875 22.167969 5.371094 20.402344 6.820312 19.054688 C 9.464844 16.851562 12.8125 16.644531 15.84375 18.246094 Z M 6.503906 20.296875 C 5.332031 21.679688 4.792969 23.386719 4.824219 25.1875 C 5.03125 27.199219 5.820312 28.777344 7.289062 30.140625 C 8.785156 31.355469 10.636719 32 12.5625 31.875 C 14.539062 31.515625 16.242188 30.691406 17.523438 29.113281 C 18.570312 27.5625 19.132812 25.875 18.9375 24 C 18.449219 21.722656 17.460938 20.109375 15.5625 18.75 C 12.378906 16.996094 8.972656 17.71875 6.503906 20.296875 Z M 6.503906 20.296875 "/>
<path style=" stroke:none;fill-rule:nonzero;fill:rgb(6.666667%,66.274512%,42.745098%);fill-opacity:1;" d="M 42.375 0.5625 C 44.4375 1.042969 45.738281 1.960938 46.875 3.75 C 47.636719 4.996094 47.671875 6.449219 47.4375 7.875 C 47.148438 8.9375 46.644531 9.910156 46.125 10.875 C 46.054688 11.003906 45.984375 11.132812 45.914062 11.265625 C 44.726562 13.4375 43.382812 15.867188 41.625 17.625 C 41.226562 17.554688 41.226562 17.554688 40.875 17.4375 C 40.875 16.730469 41.0625 16.574219 41.496094 16.019531 C 45.003906 11.328125 45.003906 11.328125 46.125 5.8125 C 45.796875 4.105469 45.058594 2.667969 43.652344 1.617188 C 43.53125 1.535156 43.40625 1.453125 43.28125 1.367188 C 42.9375 1.125 42.660156 0.867188 42.375 0.5625 Z M 42.375 0.5625 "/>
<path style=" stroke:none;fill-rule:nonzero;fill:rgb(0%,2.745098%,1.568628%);fill-opacity:1;" d="M 43.101562 2.644531 C 44.300781 3.308594 45.121094 4.113281 45.5625 5.4375 C 45.730469 7.003906 45.578125 8.277344 44.625 9.5625 C 43.375 10.777344 42.273438 10.96875 40.5625 10.949219 C 39.234375 10.792969 38.390625 10.007812 37.582031 8.988281 C 36.875 7.832031 36.914062 6.507812 37.222656 5.21875 C 37.617188 4.175781 38.328125 3.3125 39.28125 2.742188 C 40.488281 2.203125 41.871094 2.171875 43.101562 2.644531 Z M 38.460938 4.3125 C 37.652344 5.457031 37.5625 6.296875 37.6875 7.6875 C 38.023438 8.78125 38.847656 9.464844 39.75 10.125 C 40.734375 10.453125 41.839844 10.527344 42.816406 10.136719 C 43.867188 9.507812 44.671875 8.703125 45 7.5 C 45.152344 6.277344 44.964844 5.324219 44.25 4.3125 C 43.429688 3.429688 42.574219 2.992188 41.378906 2.929688 C 40.183594 2.960938 39.246094 3.40625 38.460938 4.3125 Z M 38.460938 4.3125 "/>
<path style=" stroke:none;fill-rule:nonzero;fill:rgb(90.588236%,89.803922%,89.803922%);fill-opacity:1;" d="M 39.75 16.6875 C 39.894531 16.875 40.042969 17.066406 40.195312 17.261719 C 40.640625 17.867188 40.640625 17.867188 41.34375 17.964844 C 42.0625 17.796875 42.140625 17.722656 42.550781 17.15625 C 42.683594 16.941406 42.8125 16.722656 42.9375 16.5 C 43.832031 16.589844 44.445312 16.734375 45.1875 17.25 C 45.1875 17.671875 45.1875 17.671875 45 18.1875 C 43.503906 19.25 41.703125 19.265625 39.9375 19.125 C 39.039062 18.898438 38.164062 18.664062 37.5 18 C 37.5 17.542969 37.5 17.542969 37.6875 17.0625 C 38.40625 16.574219 38.929688 16.328125 39.75 16.6875 Z M 39.75 16.6875 "/>
<path style=" stroke:none;fill-rule:nonzero;fill:rgb(98.039216%,62.352943%,62.352943%);fill-opacity:1;" d="M 5.203125 17.179688 C 5.625 17.25 5.625 17.25 5.8125 17.4375 C 5.898438 18.066406 5.835938 18.335938 5.503906 18.882812 C 5.300781 19.144531 5.300781 19.144531 5.097656 19.40625 C 4.703125 19.917969 4.332031 20.402344 4.019531 20.96875 C 3.929688 21.101562 3.84375 21.238281 3.75 21.375 C 3.152344 21.433594 3.152344 21.433594 2.625 21.375 C 2.449219 20.707031 2.386719 20.363281 2.671875 19.722656 C 4.320312 17.300781 4.320312 17.300781 5.203125 17.179688 Z M 5.203125 17.179688 "/>
<path style=" stroke:none;fill-rule:nonzero;fill:rgb(0.784314%,0.784314%,0.784314%);fill-opacity:1;" d="M 30.1875 17.625 C 30.550781 17.929688 30.550781 17.929688 30.75 18.375 C 30.765625 19.183594 30.613281 19.445312 30.058594 20.039062 C 29.386719 20.472656 29.09375 20.578125 28.3125 20.4375 C 27.949219 20.238281 27.949219 20.238281 27.75 19.875 C 27.734375 19.003906 27.847656 18.660156 28.441406 18.011719 C 29.113281 17.59375 29.414062 17.46875 30.1875 17.625 Z M 30.1875 17.625 "/>
<path style=" stroke:none;fill-rule:nonzero;fill:rgb(0%,0%,0%);fill-opacity:1;" d="M 33.9375 16.6875 C 34.417969 16.898438 34.417969 16.898438 34.6875 17.25 C 34.773438 17.832031 34.816406 18.195312 34.464844 18.6875 C 33.996094 19.03125 33.667969 19.011719 33.09375 19.007812 C 32.914062 19.007812 32.734375 19.011719 32.546875 19.011719 C 32.0625 18.9375 32.0625 18.9375 31.722656 18.6875 C 31.371094 18.195312 31.414062 17.832031 31.5 17.25 C 32.09375 16.476562 33.046875 16.570312 33.9375 16.6875 Z M 33.9375 16.6875 "/>
<path style=" stroke:none;fill-rule:nonzero;fill:rgb(0.784314%,0.784314%,0.784314%);fill-opacity:1;" d="M 41.25 42.1875 C 41.625 42.5625 41.625 42.5625 41.730469 43.183594 C 41.617188 43.921875 41.589844 44 41.039062 44.425781 C 40.40625 44.8125 39.9375 44.949219 39.1875 44.8125 C 38.835938 44.601562 38.835938 44.601562 38.625 44.25 C 38.507812 43.710938 38.507812 43.710938 38.625 43.125 C 39.363281 42.289062 40.140625 42.035156 41.25 42.1875 Z M 41.25 42.1875 "/>
<path style=" stroke:none;fill-rule:nonzero;fill:rgb(0.784314%,0.784314%,0.784314%);fill-opacity:1;" d="M 43.464844 39.023438 C 43.761719 39.105469 43.761719 39.105469 44.0625 39.1875 C 44.335938 39.734375 44.5 40.117188 44.308594 40.714844 C 43.796875 41.757812 43.796875 41.757812 43.3125 42 C 42.65625 42.046875 42.65625 42.046875 42 42 C 41.625 41.4375 41.625 41.4375 41.636719 40.816406 C 41.90625 39.753906 42.246094 38.984375 43.464844 39.023438 Z M 43.464844 39.023438 "/>
<path style=" stroke:none;fill-rule:nonzero;fill:rgb(0.784314%,0.784314%,0.784314%);fill-opacity:1;" d="M 40.148438 28.042969 C 40.992188 28.136719 41.335938 28.351562 41.9375 28.925781 C 42.1875 29.25 42.1875 29.25 42.328125 29.847656 C 42.1875 30.375 42.1875 30.375 41.789062 30.75 C 41.25 30.9375 41.25 30.9375 40.6875 30.84375 C 40.019531 30.511719 39.632812 30.230469 39.1875 29.625 C 39.234375 28.171875 39.234375 28.171875 40.148438 28.042969 Z M 40.148438 28.042969 "/>
<path style=" stroke:none;fill-rule:nonzero;fill:rgb(0.784314%,0.784314%,0.784314%);fill-opacity:1;" d="M 42.996094 31.054688 C 43.6875 31.125 43.6875 31.125 44.132812 31.5 C 44.535156 32.238281 44.613281 32.71875 44.625 33.5625 C 44.425781 33.9375 44.425781 33.9375 44.0625 34.125 C 43.523438 34.253906 43.523438 34.253906 42.9375 34.125 C 42.496094 33.679688 42.21875 33.210938 42 32.625 C 42.046875 31.160156 42.046875 31.160156 42.996094 31.054688 Z M 42.996094 31.054688 "/>
<path style=" stroke:none;fill-rule:nonzero;fill:rgb(0.784314%,0.784314%,0.784314%);fill-opacity:1;" d="M 36.738281 26.742188 C 36.976562 26.742188 36.976562 26.742188 37.222656 26.738281 C 37.78125 26.828125 38.039062 26.976562 38.4375 27.375 C 38.519531 28.042969 38.519531 28.042969 38.4375 28.6875 C 37.742188 29.152344 37.386719 29.121094 36.5625 29.0625 C 35.976562 28.878906 35.6875 28.75 35.25 28.3125 C 35.183594 27.789062 35.15625 27.5 35.476562 27.070312 C 35.917969 26.734375 36.1875 26.738281 36.738281 26.742188 Z M 36.738281 26.742188 "/>
<path style=" stroke:none;fill-rule:nonzero;fill:rgb(1.176471%,1.176471%,1.176471%);fill-opacity:1;" d="M 29.25 24.9375 C 29.730469 25.242188 30.070312 25.582031 30.375 26.0625 C 30.46875 26.765625 30.46875 26.765625 30.375 27.375 C 30 27.75 30 27.75 29.390625 27.84375 C 28.578125 27.734375 28.300781 27.546875 27.769531 26.949219 C 27.445312 26.4375 27.445312 26.082031 27.5625 25.5 C 27.976562 24.808594 28.496094 24.804688 29.25 24.9375 Z M 29.25 24.9375 "/>
<path style=" stroke:none;fill-rule:nonzero;fill:rgb(1.568628%,1.568628%,1.568628%);fill-opacity:1;" d="M 27.773438 21.011719 C 28.3125 21.1875 28.3125 21.1875 28.535156 21.515625 C 28.714844 22.019531 28.703125 22.367188 28.640625 22.898438 C 28.625 23.0625 28.609375 23.222656 28.589844 23.394531 C 28.5 23.8125 28.5 23.8125 28.125 24.1875 C 27.46875 24.234375 27.46875 24.234375 26.8125 24.1875 C 26.308594 23.683594 26.375 23.402344 26.367188 22.699219 C 26.363281 22.5 26.355469 22.300781 26.351562 22.097656 C 26.4375 21.5625 26.4375 21.5625 26.78125 21.207031 C 27.1875 21 27.1875 21 27.773438 21.011719 Z M 27.773438 21.011719 "/>
<path style=" stroke:none;fill-rule:nonzero;fill:rgb(1.176471%,1.176471%,1.176471%);fill-opacity:1;" d="M 44.15625 35.015625 C 44.8125 35.0625 44.8125 35.0625 45.1875 35.4375 C 45.242188 35.945312 45.242188 35.945312 45.246094 36.550781 C 45.25 36.75 45.253906 36.949219 45.253906 37.152344 C 45.1875 37.6875 45.1875 37.6875 44.945312 38.042969 C 44.625 38.25 44.625 38.25 43.945312 38.203125 C 43.3125 38.0625 43.3125 38.0625 43.125 37.875 C 43.101562 37.472656 43.089844 37.070312 43.089844 36.667969 C 43.085938 36.449219 43.082031 36.226562 43.082031 36 C 43.144531 35.160156 43.328125 35.074219 44.15625 35.015625 Z M 44.15625 35.015625 "/>
<path style=" stroke:none;fill-rule:nonzero;fill:rgb(1.568628%,1.568628%,1.568628%);fill-opacity:1;" d="M 36.386719 43.628906 C 36.6875 43.625 36.6875 43.625 36.992188 43.621094 C 37.160156 43.640625 37.324219 43.664062 37.5 43.6875 C 37.902344 44.292969 37.964844 44.484375 37.875 45.1875 C 37.660156 45.496094 37.660156 45.496094 37.3125 45.75 C 36.777344 45.820312 36.777344 45.820312 36.175781 45.808594 C 35.976562 45.808594 35.777344 45.808594 35.570312 45.804688 C 35.0625 45.75 35.0625 45.75 34.6875 45.375 C 34.628906 44.71875 34.628906 44.71875 34.6875 44.0625 C 35.335938 43.628906 35.621094 43.628906 36.386719 43.628906 Z M 36.386719 43.628906 "/>
<path style=" stroke:none;fill-rule:nonzero;fill:rgb(1.960784%,1.960784%,1.960784%);fill-opacity:1;" d="M 27.925781 43.617188 C 28.222656 43.609375 28.222656 43.609375 28.527344 43.601562 C 29.0625 43.6875 29.0625 43.6875 29.417969 44.035156 C 29.625 44.4375 29.625 44.4375 29.589844 44.929688 C 29.4375 45.375 29.4375 45.375 29.0625 45.75 C 28.554688 45.8125 28.554688 45.8125 27.949219 45.820312 C 27.75 45.824219 27.550781 45.832031 27.347656 45.835938 C 26.8125 45.75 26.8125 45.75 26.457031 45.402344 C 26.25 45 26.25 45 26.285156 44.507812 C 26.59375 43.601562 27.046875 43.628906 27.925781 43.617188 Z M 27.925781 43.617188 "/>
<path style=" stroke:none;fill-rule:nonzero;fill:rgb(1.176471%,1.176471%,1.176471%);fill-opacity:1;" d="M 32.707031 26.777344 C 33.035156 26.773438 33.035156 26.773438 33.375 26.769531 C 33.9375 26.8125 33.9375 26.8125 34.3125 27.1875 C 34.371094 27.84375 34.371094 27.84375 34.3125 28.5 C 33.6875 28.917969 33.453125 28.929688 32.71875 28.933594 C 32.539062 28.9375 32.359375 28.9375 32.175781 28.941406 C 31.6875 28.875 31.6875 28.875 31.339844 28.632812 C 31.125 28.3125 31.125 28.3125 31.171875 27.632812 C 31.402344 26.597656 31.707031 26.78125 32.707031 26.777344 Z M 32.707031 26.777344 "/>
<path style=" stroke:none;fill-rule:nonzero;fill:rgb(1.960784%,1.960784%,1.960784%);fill-opacity:1;" d="M 32.050781 43.617188 C 32.347656 43.609375 32.347656 43.609375 32.652344 43.601562 C 33.1875 43.6875 33.1875 43.6875 33.542969 44.035156 C 33.75 44.4375 33.75 44.4375 33.714844 44.929688 C 33.5625 45.375 33.5625 45.375 33.1875 45.75 C 32.671875 45.800781 32.671875 45.800781 32.0625 45.796875 C 31.761719 45.796875 31.761719 45.796875 31.453125 45.800781 C 30.9375 45.75 30.9375 45.75 30.5625 45.375 C 30.515625 44.71875 30.515625 44.71875 30.5625 44.0625 C 31.066406 43.558594 31.347656 43.625 32.050781 43.617188 Z M 32.050781 43.617188 "/>
<path style=" stroke:none;fill-rule:nonzero;fill:rgb(1.960784%,1.960784%,1.960784%);fill-opacity:1;" d="M 23.800781 43.605469 C 24 43.597656 24.199219 43.589844 24.402344 43.582031 C 24.9375 43.6875 24.9375 43.6875 25.300781 44.128906 C 25.5 44.625 25.5 44.625 25.359375 45.140625 C 25.125 45.5625 25.125 45.5625 24.9375 45.75 C 24.570312 45.785156 24.203125 45.800781 23.835938 45.808594 C 23.636719 45.816406 23.433594 45.820312 23.230469 45.828125 C 22.6875 45.75 22.6875 45.75 22.332031 45.402344 C 22.125 45 22.125 45 22.160156 44.507812 C 22.46875 43.605469 22.921875 43.625 23.800781 43.605469 Z M 23.800781 43.605469 "/>
<path style=" stroke:none;fill-rule:nonzero;fill:rgb(7.843138%,4.705882%,1.960784%);fill-opacity:1;" d="M 14.25 42.5625 C 14.375 42.5625 14.496094 42.5625 14.625 42.5625 C 14.511719 43.246094 14.222656 43.652344 13.792969 44.191406 C 13.679688 44.339844 13.5625 44.484375 13.441406 44.636719 C 13.089844 45.042969 12.90625 45.167969 12.375 45.234375 C 11.652344 45.253906 11.191406 45.261719 10.546875 44.894531 C 9.1875 43.421875 9.1875 43.421875 9.1875 42.75 C 9.6875 42.820312 9.890625 42.875 10.210938 43.277344 C 10.292969 43.410156 10.378906 43.546875 10.464844 43.6875 C 10.890625 44.285156 11.007812 44.417969 11.730469 44.671875 C 12.535156 44.613281 12.761719 44.457031 13.3125 43.875 C 13.484375 43.640625 13.652344 43.40625 13.816406 43.171875 C 13.960938 42.972656 14.101562 42.769531 14.25 42.5625 Z M 14.25 42.5625 "/>
<path style=" stroke:none;fill-rule:nonzero;fill:rgb(37.64706%,37.64706%,37.64706%);fill-opacity:1;" d="M 33.390625 17.207031 C 33.75 17.25 33.75 17.25 34.125 17.625 C 34.125 17.808594 34.125 17.996094 34.125 18.1875 C 33.523438 18.488281 32.917969 18.386719 32.25 18.375 C 32.179688 18.0625 32.117188 17.753906 32.0625 17.4375 C 32.417969 17.082031 32.917969 17.214844 33.390625 17.207031 Z M 33.390625 17.207031 "/>
<path style=" stroke:none;fill-rule:nonzero;fill:rgb(39.215687%,39.215687%,39.215687%);fill-opacity:1;" d="M 37.140625 27.351562 C 37.5 27.375 37.5 27.375 37.875 27.5625 C 37.8125 27.871094 37.75 28.179688 37.6875 28.5 C 37.128906 28.4375 36.574219 28.375 36 28.3125 C 35.9375 28.066406 35.875 27.816406 35.8125 27.5625 C 36.167969 27.207031 36.667969 27.351562 37.140625 27.351562 Z M 37.140625 27.351562 "/>
<path style=" stroke:none;fill-rule:nonzero;fill:rgb(39.215687%,39.215687%,39.215687%);fill-opacity:1;" d="M 29.671875 18.234375 C 29.835938 18.304688 29.835938 18.304688 30 18.375 C 30 19.125 30 19.125 29.578125 19.558594 C 29.0625 19.875 29.0625 19.875 28.628906 19.828125 C 28.523438 19.78125 28.417969 19.734375 28.3125 19.6875 C 28.421875 18.921875 28.804688 18.140625 29.671875 18.234375 Z M 29.671875 18.234375 "/>
<path style=" stroke:none;fill-rule:nonzero;fill:rgb(39.607844%,39.607844%,39.607844%);fill-opacity:1;" d="M 42.9375 39.5625 C 43.183594 39.625 43.433594 39.6875 43.6875 39.75 C 43.59375 40.449219 43.523438 40.839844 43.125 41.4375 C 42.816406 41.375 42.507812 41.3125 42.1875 41.25 C 42.308594 40.59375 42.582031 40.121094 42.9375 39.5625 Z M 42.9375 39.5625 "/>
<path style=" stroke:none;fill-rule:nonzero;fill:rgb(39.607844%,39.607844%,39.607844%);fill-opacity:1;" d="M 39.9375 28.6875 C 40.652344 28.785156 41.074219 28.96875 41.625 29.4375 C 41.5625 29.683594 41.5 29.933594 41.4375 30.1875 C 40.722656 30.089844 40.300781 29.90625 39.75 29.4375 C 39.8125 29.191406 39.875 28.941406 39.9375 28.6875 Z M 39.9375 28.6875 "/>
<path style=" stroke:none;fill-rule:nonzero;fill:rgb(40.392157%,40.392157%,40.392157%);fill-opacity:1;" d="M 41.0625 42.9375 C 41.027344 43.277344 41.027344 43.277344 40.875 43.6875 C 40.441406 44.027344 40.441406 44.027344 39.9375 44.25 C 39.503906 44.191406 39.503906 44.191406 39.1875 44.0625 C 39.257812 43.558594 39.347656 43.34375 39.703125 42.972656 C 40.238281 42.691406 40.496094 42.765625 41.0625 42.9375 Z M 41.0625 42.9375 "/>
<path style=" stroke:none;fill-rule:nonzero;fill:rgb(40.000001%,40.000001%,40.000001%);fill-opacity:1;" d="M 42.75 31.6875 C 42.996094 31.6875 43.246094 31.6875 43.5 31.6875 C 44.078125 32.703125 44.078125 32.703125 44.003906 33.257812 C 43.960938 33.359375 43.917969 33.460938 43.875 33.5625 C 43.535156 33.527344 43.535156 33.527344 43.125 33.375 C 42.785156 32.941406 42.785156 32.941406 42.5625 32.4375 C 42.621094 32.003906 42.621094 32.003906 42.75 31.6875 Z M 42.75 31.6875 "/>
<path style=" stroke:none;fill-rule:nonzero;fill:rgb(40.784314%,40.784314%,40.784314%);fill-opacity:1;" d="M 35.824219 44.230469 C 36.058594 44.234375 36.058594 44.234375 36.292969 44.238281 C 36.449219 44.238281 36.601562 44.242188 36.761719 44.242188 C 36.882812 44.246094 37.003906 44.25 37.125 44.25 C 37.230469 44.613281 37.230469 44.613281 37.3125 45 C 37.125 45.1875 37.125 45.1875 36.738281 45.207031 C 36.582031 45.203125 36.429688 45.199219 36.269531 45.199219 C 36.113281 45.199219 35.960938 45.195312 35.800781 45.195312 C 35.679688 45.191406 35.5625 45.191406 35.4375 45.1875 C 35.332031 44.824219 35.332031 44.824219 35.25 44.4375 C 35.4375 44.25 35.4375 44.25 35.824219 44.230469 Z M 35.824219 44.230469 "/>
<path style=" stroke:none;fill-rule:nonzero;fill:rgb(40.784314%,40.784314%,40.784314%);fill-opacity:1;" d="M 43.875 35.625 C 44.246094 35.71875 44.246094 35.71875 44.625 35.8125 C 44.625 36.371094 44.625 36.925781 44.625 37.5 C 44.378906 37.5625 44.128906 37.625 43.875 37.6875 C 43.6875 37.5 43.6875 37.5 43.664062 37.121094 C 43.664062 36.964844 43.664062 36.8125 43.664062 36.65625 C 43.664062 36.503906 43.664062 36.351562 43.664062 36.191406 C 43.6875 35.8125 43.6875 35.8125 43.875 35.625 Z M 43.875 35.625 "/>
<path style=" stroke:none;fill-rule:nonzero;fill:rgb(40.784314%,40.784314%,40.784314%);fill-opacity:1;" d="M 32.261719 27.355469 C 32.496094 27.359375 32.496094 27.359375 32.730469 27.363281 C 32.886719 27.363281 33.039062 27.367188 33.199219 27.367188 C 33.320312 27.371094 33.441406 27.375 33.5625 27.375 C 33.667969 27.738281 33.667969 27.738281 33.75 28.125 C 33.5625 28.3125 33.5625 28.3125 33.175781 28.332031 C 33.019531 28.328125 32.867188 28.324219 32.707031 28.324219 C 32.550781 28.324219 32.398438 28.320312 32.238281 28.320312 C 32.117188 28.316406 32 28.316406 31.875 28.3125 C 31.769531 27.949219 31.769531 27.949219 31.6875 27.5625 C 31.875 27.375 31.875 27.375 32.261719 27.355469 Z M 32.261719 27.355469 "/>
<path style=" stroke:none;fill-rule:nonzero;fill:rgb(40.784314%,40.784314%,40.784314%);fill-opacity:1;" d="M 28.3125 25.5 C 29.023438 25.601562 29.367188 25.878906 29.8125 26.4375 C 29.8125 26.683594 29.8125 26.933594 29.8125 27.1875 C 29.222656 27.121094 28.910156 27.023438 28.429688 26.660156 C 28.125 26.25 28.125 26.25 28.171875 25.828125 C 28.21875 25.71875 28.265625 25.609375 28.3125 25.5 Z M 28.3125 25.5 "/>
<path style=" stroke:none;fill-rule:nonzero;fill:rgb(40.784314%,40.784314%,40.784314%);fill-opacity:1;" d="M 27.375 21.5625 C 27.5625 21.625 27.746094 21.6875 27.9375 21.75 C 27.9375 22.367188 27.9375 22.988281 27.9375 23.625 C 27.628906 23.5625 27.320312 23.5 27 23.4375 C 26.960938 22.304688 26.960938 22.304688 27 21.9375 C 27.125 21.8125 27.246094 21.691406 27.375 21.5625 Z M 27.375 21.5625 "/>
<path style=" stroke:none;fill-rule:nonzero;fill:rgb(6.666667%,9.019608%,8.235294%);fill-opacity:1;" d="M 42.5625 16.3125 C 42.6875 16.3125 42.808594 16.3125 42.9375 16.3125 C 42.828125 17.046875 42.535156 17.492188 42 18 C 41.316406 18.09375 40.898438 18.148438 40.324219 17.742188 C 40.125 17.4375 40.125 17.4375 40.125 17.0625 C 40.875 17.25 40.875 17.25 41.625 17.4375 C 41.769531 17.25 41.917969 17.066406 42.070312 16.875 C 42.234375 16.6875 42.394531 16.503906 42.5625 16.3125 Z M 42.5625 16.3125 "/>
<path style=" stroke:none;fill-rule:nonzero;fill:rgb(41.960785%,41.960785%,41.960785%);fill-opacity:1;" d="M 31.3125 44.25 C 31.808594 44.25 32.300781 44.25 32.8125 44.25 C 32.875 44.558594 32.9375 44.867188 33 45.1875 C 32.382812 45.1875 31.761719 45.1875 31.125 45.1875 C 31.1875 44.878906 31.25 44.570312 31.3125 44.25 Z M 31.3125 44.25 "/>
<path style=" stroke:none;fill-rule:nonzero;fill:rgb(41.960785%,41.960785%,41.960785%);fill-opacity:1;" d="M 27.1875 44.25 C 27.683594 44.25 28.175781 44.25 28.6875 44.25 C 28.75 44.558594 28.8125 44.867188 28.875 45.1875 C 28.257812 45.1875 27.636719 45.1875 27 45.1875 C 27.0625 44.878906 27.125 44.570312 27.1875 44.25 Z M 27.1875 44.25 "/>
<path style=" stroke:none;fill-rule:nonzero;fill:rgb(41.960785%,41.960785%,41.960785%);fill-opacity:1;" d="M 23.0625 44.25 C 23.558594 44.25 24.050781 44.25 24.5625 44.25 C 24.625 44.558594 24.6875 44.867188 24.75 45.1875 C 24.132812 45.1875 23.511719 45.1875 22.875 45.1875 C 22.9375 44.878906 23 44.570312 23.0625 44.25 Z M 23.0625 44.25 "/>
<path style=" stroke:none;fill-rule:nonzero;fill:rgb(3.921569%,6.27451%,5.098039%);fill-opacity:1;" d="M 40.125 17.0625 C 40.777344 17.183594 41.261719 17.445312 41.8125 17.8125 C 41.8125 17.875 41.8125 17.9375 41.8125 18 C 40.78125 18.070312 40.78125 18.070312 40.335938 17.742188 C 40.125 17.4375 40.125 17.4375 40.125 17.0625 Z M 40.125 17.0625 "/>
</g>
</svg>
