<?xml version="1.0" encoding="UTF-8"?>
<svg xmlns="http://www.w3.org/2000/svg" xmlns:xlink="http://www.w3.org/1999/xlink" width="48" height="48" viewBox="0 0 48 48" version="1.1">
<g id="surface1">
<path style=" stroke:none;fill-rule:nonzero;fill:rgb(19.607843%,84.313726%,21.176471%);fill-opacity:1;" d="M 36.375 3.1875 C 36.457031 3.097656 36.542969 3.003906 36.625 2.910156 C 37.007812 2.5 37.394531 2.09375 37.78125 1.6875 C 37.914062 1.546875 38.042969 1.402344 38.175781 1.253906 C 39.296875 0.09375 39.296875 0.09375 40.175781 0.046875 C 40.875 0.1875 40.875 0.1875 41.324219 0.449219 C 41.777344 1.183594 41.851562 1.90625 41.964844 2.753906 C 42.007812 3.046875 42.007812 3.046875 42.050781 3.339844 C 42.121094 3.808594 42.1875 4.277344 42.25 4.746094 C 42.371094 5.605469 42.496094 6.464844 42.625 7.320312 C 42.746094 8.148438 42.867188 8.976562 42.984375 9.800781 C 43.046875 10.21875 43.109375 10.636719 43.171875 11.054688 C 43.257812 11.648438 43.34375 12.242188 43.425781 12.839844 C 43.453125 13.019531 43.480469 13.199219 43.503906 13.382812 C 43.851562 15.820312 43.851562 15.820312 43.382812 16.6875 C 41.816406 17.617188 39.105469 16.757812 37.363281 16.5 C 37.113281 16.464844 36.855469 16.425781 36.601562 16.390625 C 36.074219 16.3125 35.546875 16.238281 35.019531 16.160156 C 34.351562 16.0625 33.675781 15.964844 33.003906 15.867188 C 32.480469 15.792969 31.960938 15.71875 31.4375 15.640625 C 31.070312 15.585938 30.703125 15.535156 30.332031 15.480469 C 29.996094 15.433594 29.996094 15.433594 29.652344 15.382812 C 29.457031 15.351562 29.261719 15.324219 29.058594 15.296875 C 28.335938 15.15625 27.648438 14.984375 27.023438 14.589844 C 26.65625 13.996094 26.699219 13.621094 26.8125 12.9375 C 27.1875 12.375 27.644531 11.910156 28.125 11.4375 C 28.265625 11.296875 28.402344 11.15625 28.546875 11.007812 C 28.902344 10.648438 29.261719 10.292969 29.625 9.9375 C 26.335938 8.292969 22.488281 8.5 19.070312 9.566406 C 16.699219 10.40625 14.710938 11.730469 12.9375 13.5 C 12.824219 13.609375 12.707031 13.722656 12.589844 13.835938 C 10.085938 16.441406 8.949219 20.023438 8.792969 23.5625 C 8.746094 24.304688 8.667969 24.6875 8.25 25.320312 C 7.484375 25.820312 6.875 25.78125 6 25.6875 C 5.804688 25.667969 5.609375 25.644531 5.40625 25.625 C 4.742188 25.546875 4.082031 25.453125 3.421875 25.359375 C 3.195312 25.328125 2.96875 25.300781 2.738281 25.269531 C 2.410156 25.222656 2.410156 25.222656 2.078125 25.175781 C 1.878906 25.148438 1.683594 25.121094 1.480469 25.089844 C 0.835938 24.90625 0.476562 24.660156 0 24.1875 C -0.09375 23.640625 -0.125 23.222656 -0.105469 22.675781 C -0.101562 22.527344 -0.0976562 22.378906 -0.09375 22.226562 C 0.105469 17.027344 2.347656 12.203125 5.625 8.25 C 5.75 8.097656 5.875 7.941406 6.003906 7.78125 C 9.085938 4.144531 13.476562 1.839844 18 0.5625 C 18.222656 0.5 18.445312 0.433594 18.675781 0.367188 C 24.871094 -1.082031 30.820312 0.488281 36.375 3.1875 Z M 36.375 3.1875 "/>
<path style=" stroke:none;fill-rule:nonzero;fill:rgb(89.803922%,0%,15.294118%);fill-opacity:1;" d="M 43.261719 22.585938 C 43.648438 22.640625 44.035156 22.6875 44.421875 22.738281 C 44.671875 22.769531 44.917969 22.804688 45.167969 22.835938 C 45.390625 22.867188 45.617188 22.894531 45.847656 22.925781 C 46.578125 23.078125 47.144531 23.292969 47.8125 23.625 C 48.890625 25.785156 47.648438 29.523438 46.96875 31.660156 C 45.941406 34.691406 44.410156 37.292969 42.375 39.75 C 42.25 39.902344 42.125 40.058594 41.996094 40.214844 C 38.320312 44.5625 32.601562 47.316406 27 48 C 26.0625 48.058594 25.128906 48.070312 24.1875 48.070312 C 24.0625 48.070312 23.933594 48.070312 23.800781 48.070312 C 19.320312 48.054688 15.609375 46.746094 11.625 44.8125 C 11.542969 44.902344 11.457031 44.992188 11.371094 45.085938 C 10.988281 45.492188 10.597656 45.894531 10.207031 46.300781 C 10.074219 46.441406 9.941406 46.585938 9.808594 46.730469 C 8.683594 47.886719 8.683594 47.886719 7.898438 48.007812 C 7.015625 47.996094 7.015625 47.996094 6.5625 47.625 C 6.21875 46.90625 6.085938 46.210938 5.972656 45.421875 C 5.953125 45.300781 5.933594 45.175781 5.917969 45.050781 C 5.855469 44.644531 5.796875 44.238281 5.742188 43.832031 C 5.699219 43.546875 5.65625 43.261719 5.617188 42.976562 C 5.53125 42.382812 5.445312 41.789062 5.359375 41.191406 C 5.25 40.433594 5.136719 39.675781 5.027344 38.914062 C 4.941406 38.328125 4.855469 37.742188 4.769531 37.15625 C 4.730469 36.875 4.691406 36.59375 4.648438 36.316406 C 4.0625 32.347656 4.0625 32.347656 4.570312 31.382812 C 6.085938 30.589844 8.328125 31.28125 9.960938 31.515625 C 10.246094 31.554688 10.535156 31.597656 10.828125 31.636719 C 11.429688 31.722656 12.03125 31.808594 12.632812 31.894531 C 13.40625 32.007812 14.179688 32.113281 14.949219 32.21875 C 15.542969 32.304688 16.140625 32.386719 16.738281 32.472656 C 17.019531 32.515625 17.304688 32.554688 17.589844 32.59375 C 17.988281 32.648438 18.382812 32.707031 18.78125 32.761719 C 19.117188 32.8125 19.117188 32.8125 19.464844 32.859375 C 20.082031 33.003906 20.488281 33.191406 21 33.5625 C 21.28125 34.128906 21.28125 34.429688 21.1875 35.0625 C 20.808594 35.621094 20.347656 36.085938 19.875 36.5625 C 19.734375 36.703125 19.597656 36.84375 19.453125 36.992188 C 19.097656 37.351562 18.738281 37.707031 18.375 38.0625 C 21.65625 39.703125 25.464844 39.511719 28.875 38.4375 C 31.292969 37.617188 33.25 36.277344 35.0625 34.5 C 35.179688 34.390625 35.292969 34.277344 35.414062 34.164062 C 37.878906 31.589844 39.023438 28.050781 39.222656 24.558594 C 39.289062 23.648438 39.453125 23.128906 40.125 22.5 C 41.109375 22.117188 42.246094 22.449219 43.261719 22.585938 Z M 43.261719 22.585938 "/>
<path style=" stroke:none;fill-rule:nonzero;fill:rgb(6.27451%,73.333335%,40.000001%);fill-opacity:1;" d="M 24 0 C 27.285156 0 27.285156 0 28.675781 0.304688 C 28.832031 0.335938 28.992188 0.371094 29.15625 0.40625 C 31.703125 0.972656 34.035156 2.050781 36.375 3.1875 C 36.457031 3.097656 36.542969 3.003906 36.625 2.910156 C 37.007812 2.5 37.394531 2.09375 37.78125 1.6875 C 37.976562 1.472656 37.976562 1.472656 38.175781 1.253906 C 39.296875 0.09375 39.296875 0.09375 40.175781 0.046875 C 40.875 0.1875 40.875 0.1875 41.324219 0.449219 C 41.777344 1.183594 41.851562 1.90625 41.964844 2.753906 C 41.992188 2.949219 42.023438 3.140625 42.050781 3.339844 C 42.121094 3.808594 42.1875 4.277344 42.25 4.746094 C 42.371094 5.605469 42.496094 6.464844 42.625 7.320312 C 42.746094 8.148438 42.867188 8.976562 42.984375 9.800781 C 43.046875 10.21875 43.109375 10.636719 43.171875 11.054688 C 43.257812 11.648438 43.34375 12.242188 43.425781 12.839844 C 43.464844 13.109375 43.464844 13.109375 43.503906 13.382812 C 43.851562 15.820312 43.851562 15.820312 43.382812 16.6875 C 41.816406 17.617188 39.105469 16.757812 37.363281 16.5 C 37.113281 16.464844 36.855469 16.425781 36.601562 16.390625 C 36.074219 16.3125 35.546875 16.238281 35.019531 16.160156 C 34.351562 16.0625 33.675781 15.964844 33.003906 15.867188 C 32.480469 15.792969 31.960938 15.71875 31.4375 15.640625 C 31.070312 15.585938 30.703125 15.535156 30.332031 15.480469 C 30.109375 15.449219 29.882812 15.417969 29.652344 15.382812 C 29.457031 15.351562 29.261719 15.324219 29.058594 15.296875 C 28.335938 15.15625 27.648438 14.984375 27.023438 14.589844 C 26.65625 13.996094 26.699219 13.621094 26.8125 12.9375 C 27.1875 12.375 27.644531 11.910156 28.125 11.4375 C 28.265625 11.296875 28.402344 11.15625 28.546875 11.007812 C 28.902344 10.648438 29.261719 10.292969 29.625 9.9375 C 27.871094 9.058594 25.929688 8.839844 24 8.625 C 24 5.777344 24 2.933594 24 0 Z M 24 0 "/>
<path style=" stroke:none;fill-rule:nonzero;fill:rgb(99.215686%,0%,22.745098%);fill-opacity:1;" d="M 9.957031 31.515625 C 10.246094 31.554688 10.539062 31.597656 10.828125 31.636719 C 11.429688 31.722656 12.03125 31.808594 12.632812 31.894531 C 13.40625 32.007812 14.175781 32.113281 14.949219 32.21875 C 15.542969 32.304688 16.140625 32.390625 16.738281 32.472656 C 17.023438 32.515625 17.304688 32.554688 17.589844 32.59375 C 17.988281 32.648438 18.386719 32.707031 18.78125 32.765625 C 19.003906 32.796875 19.234375 32.828125 19.464844 32.863281 C 20.078125 33.003906 20.488281 33.195312 21 33.5625 C 21.285156 34.128906 21.28125 34.429688 21.1875 35.0625 C 20.808594 35.621094 20.351562 36.085938 19.875 36.5625 C 19.738281 36.703125 19.597656 36.847656 19.453125 36.992188 C 19.097656 37.351562 18.738281 37.707031 18.375 38.0625 C 20.128906 38.941406 22.070312 39.160156 24 39.375 C 24 42.222656 24 45.066406 24 48 C 20.714844 48 20.714844 48 19.324219 47.695312 C 19.167969 47.664062 19.007812 47.628906 18.847656 47.59375 C 16.296875 47.027344 13.964844 45.949219 11.625 44.8125 C 11.542969 44.902344 11.457031 44.992188 11.371094 45.085938 C 10.984375 45.492188 10.597656 45.898438 10.207031 46.300781 C 10.074219 46.441406 9.945312 46.582031 9.808594 46.730469 C 8.683594 47.882812 8.683594 47.882812 7.894531 48.007812 C 7.015625 47.996094 7.015625 47.996094 6.5625 47.625 C 6.21875 46.902344 6.089844 46.210938 5.972656 45.425781 C 5.953125 45.300781 5.9375 45.175781 5.917969 45.050781 C 5.859375 44.644531 5.796875 44.238281 5.738281 43.832031 C 5.699219 43.546875 5.65625 43.265625 5.617188 42.980469 C 5.53125 42.382812 5.445312 41.789062 5.359375 41.191406 C 5.25 40.433594 5.136719 39.675781 5.027344 38.914062 C 4.9375 38.328125 4.855469 37.742188 4.769531 37.152344 C 4.730469 36.875 4.691406 36.59375 4.648438 36.316406 C 4.0625 32.347656 4.0625 32.347656 4.570312 31.382812 C 6.085938 30.585938 8.328125 31.28125 9.957031 31.515625 Z M 9.957031 31.515625 "/>
</g>
</svg>
