<?xml version="1.0" encoding="UTF-8"?>
<svg xmlns="http://www.w3.org/2000/svg" xmlns:xlink="http://www.w3.org/1999/xlink" width="48" height="48" viewBox="0 0 48 48" version="1.1">
<g id="surface1">
<path style=" stroke:none;fill-rule:nonzero;fill:rgb(89.803922%,18.039216%,18.431373%);fill-opacity:1;" d="M 24.507812 -0.101562 C 25.324219 0.09375 25.746094 0.675781 26.25 1.3125 C 27.144531 2.359375 28.078125 3.371094 29.027344 4.371094 C 29.917969 5.3125 30.804688 6.25 31.675781 7.207031 C 31.894531 7.445312 31.894531 7.445312 32.113281 7.6875 C 32.546875 8.1875 32.621094 8.390625 32.695312 9.058594 C 32.625 9.75 32.625 9.75 32.320312 10.300781 C 31.6875 10.6875 31.6875 10.6875 29.0625 10.6875 C 29.125 13.535156 29.183594 16.378906 29.25 19.3125 C 29.683594 18.878906 30.117188 18.445312 30.5625 18 C 31.054688 17.570312 31.574219 17.175781 32.097656 16.78125 C 32.234375 16.675781 32.371094 16.570312 32.515625 16.460938 C 33.628906 15.625 34.769531 14.902344 36 14.25 C 35.960938 14.101562 35.917969 13.957031 35.878906 13.804688 C 35.289062 11.589844 35.289062 11.589844 35.4375 10.6875 C 35.882812 10.054688 36.152344 9.789062 36.921875 9.652344 C 38.050781 9.691406 39.039062 10.382812 40.007812 10.910156 C 40.230469 11.027344 40.453125 11.148438 40.675781 11.265625 C 41.132812 11.511719 41.597656 11.757812 42.054688 12.003906 C 42.734375 12.367188 43.417969 12.722656 44.105469 13.074219 C 44.320312 13.179688 44.53125 13.292969 44.75 13.40625 C 45.160156 13.613281 45.570312 13.820312 45.976562 14.027344 C 46.160156 14.125 46.34375 14.21875 46.535156 14.316406 C 46.695312 14.398438 46.855469 14.480469 47.023438 14.566406 C 47.429688 14.808594 47.710938 15 48 15.375 C 48.300781 16.648438 47.890625 17.640625 47.246094 18.730469 C 47.140625 18.902344 47.035156 19.078125 46.921875 19.253906 C 46.699219 19.632812 46.476562 20.007812 46.25 20.386719 C 46.136719 20.578125 46.023438 20.769531 45.90625 20.96875 C 45.246094 22.109375 44.660156 23.285156 44.070312 24.460938 C 42.863281 26.832031 42.863281 26.832031 41.941406 27.148438 C 40.808594 27.125 40.808594 27.125 40.242188 26.542969 C 39.890625 25.773438 39.613281 25 39.375 24.1875 C 35.464844 26.359375 32.742188 30.628906 30.75 34.5 C 30.582031 34.824219 30.582031 34.824219 30.410156 35.152344 C 29.523438 36.800781 29.523438 36.800781 29.195312 38.605469 C 29.191406 38.78125 29.191406 38.957031 29.1875 39.144531 C 29.1875 39.332031 29.1875 39.519531 29.183594 39.714844 C 29.179688 40.007812 29.179688 40.007812 29.179688 40.308594 C 29.167969 40.933594 29.164062 41.5625 29.15625 42.1875 C 29.148438 43.011719 29.136719 43.835938 29.128906 44.660156 C 29.125 44.851562 29.125 45.039062 29.125 45.234375 C 29.121094 45.410156 29.121094 45.585938 29.117188 45.769531 C 29.113281 45.925781 29.113281 46.082031 29.113281 46.238281 C 29.03125 46.96875 28.832031 47.480469 28.3125 48 C 27.945312 48.050781 27.945312 48.050781 27.488281 48.050781 C 27.316406 48.050781 27.144531 48.054688 26.96875 48.054688 C 26.691406 48.054688 26.691406 48.054688 26.410156 48.054688 C 26.125 48.058594 26.125 48.058594 25.835938 48.058594 C 25.433594 48.058594 25.03125 48.058594 24.632812 48.058594 C 24.015625 48.058594 23.398438 48.0625 22.785156 48.066406 C 22.394531 48.066406 22.007812 48.066406 21.617188 48.066406 C 21.433594 48.070312 21.246094 48.070312 21.058594 48.074219 C 20.882812 48.070312 20.714844 48.070312 20.539062 48.070312 C 20.3125 48.070312 20.3125 48.070312 20.082031 48.070312 C 19.585938 47.980469 19.429688 47.832031 19.125 47.4375 C 18.949219 46.90625 18.898438 46.515625 18.871094 45.960938 C 18.539062 40.5625 17.457031 35.5 14.8125 30.75 C 14.65625 30.472656 14.65625 30.472656 14.5 30.1875 C 13.125 27.890625 10.960938 25.511719 8.625 24.1875 C 8.5625 24.359375 8.5 24.53125 8.433594 24.707031 C 8.351562 24.929688 8.265625 25.152344 8.179688 25.382812 C 8.097656 25.605469 8.015625 25.828125 7.929688 26.054688 C 7.6875 26.625 7.6875 26.625 7.3125 27 C 6.722656 27.144531 6.214844 27.125 5.625 27 C 4.367188 25.929688 3.671875 23.996094 2.917969 22.546875 C 2.644531 22.023438 2.371094 21.5 2.097656 20.980469 C 2.03125 20.851562 1.964844 20.726562 1.898438 20.597656 C 1.382812 19.617188 0.828125 18.671875 0.246094 17.734375 C -0.0820312 17.082031 -0.144531 16.503906 -0.136719 15.78125 C 0.222656 14.722656 1.617188 14.242188 2.554688 13.769531 C 2.789062 13.652344 2.789062 13.652344 3.027344 13.53125 C 3.527344 13.277344 4.023438 13.027344 4.523438 12.773438 C 5.175781 12.441406 5.828125 12.109375 6.484375 11.777344 C 6.636719 11.699219 6.792969 11.621094 6.957031 11.539062 C 7.957031 11.027344 8.945312 10.503906 9.921875 9.941406 C 10.53125 9.640625 10.964844 9.605469 11.625 9.75 C 12.175781 10.136719 12.175781 10.136719 12.5625 10.6875 C 12.757812 11.890625 12.320312 13.09375 12 14.25 C 12.179688 14.351562 12.359375 14.453125 12.542969 14.558594 C 14.871094 15.910156 16.742188 17.503906 18.75 19.3125 C 18.8125 16.464844 18.871094 13.621094 18.9375 10.6875 C 18.070312 10.6875 17.203125 10.6875 16.3125 10.6875 C 15.679688 10.300781 15.679688 10.300781 15.375 9.75 C 15.300781 9.007812 15.292969 8.582031 15.671875 7.929688 C 15.878906 7.695312 15.878906 7.695312 16.089844 7.453125 C 16.242188 7.277344 16.394531 7.101562 16.554688 6.917969 C 17.234375 6.191406 17.933594 5.488281 18.648438 4.785156 C 19.03125 4.40625 19.394531 4.019531 19.746094 3.609375 C 19.847656 3.496094 19.945312 3.378906 20.050781 3.261719 C 20.273438 3 20.5 2.738281 20.71875 2.476562 C 21.046875 2.082031 21.378906 1.695312 21.714844 1.3125 C 21.820312 1.183594 21.921875 1.054688 22.03125 0.925781 C 22.800781 0.0546875 23.347656 -0.140625 24.507812 -0.101562 Z M 24.507812 -0.101562 "/>
<path style=" stroke:none;fill-rule:nonzero;fill:rgb(99.607843%,76.078433%,29.803923%);fill-opacity:1;" d="M 11.625 9.75 C 12.175781 10.136719 12.175781 10.136719 12.5625 10.6875 C 12.757812 11.890625 12.320312 13.09375 12 14.25 C 12.179688 14.351562 12.359375 14.453125 12.542969 14.558594 C 14.105469 15.464844 15.515625 16.429688 16.875 17.625 C 17.121094 17.832031 17.121094 17.832031 17.371094 18.046875 C 18.261719 18.816406 19.023438 19.597656 19.71875 20.546875 C 20.109375 21.058594 20.53125 21.535156 20.953125 22.019531 C 21.285156 22.425781 21.613281 22.835938 21.9375 23.25 C 22.027344 23.359375 22.117188 23.472656 22.207031 23.585938 C 24.207031 26.152344 24.277344 28.464844 24.199219 31.632812 C 24.195312 32.105469 24.195312 32.578125 24.191406 33.054688 C 24.1875 34.164062 24.167969 35.277344 24.148438 36.386719 C 24.125 37.65625 24.113281 38.921875 24.101562 40.191406 C 24.082031 42.796875 24.046875 45.398438 24 48 C 23.292969 48.015625 22.585938 48.027344 21.878906 48.035156 C 21.679688 48.039062 21.476562 48.046875 21.269531 48.046875 C 21.078125 48.050781 20.882812 48.050781 20.683594 48.054688 C 20.507812 48.058594 20.332031 48.058594 20.148438 48.0625 C 19.6875 48 19.6875 48 19.355469 47.75 C 18.9375 47.183594 18.90625 46.640625 18.871094 45.960938 C 18.539062 40.5625 17.457031 35.5 14.8125 30.75 C 14.65625 30.46875 14.65625 30.46875 14.496094 30.1875 C 13.125 27.890625 10.960938 25.511719 8.625 24.1875 C 8.5625 24.359375 8.496094 24.53125 8.433594 24.707031 C 8.347656 24.929688 8.265625 25.152344 8.179688 25.382812 C 8.097656 25.605469 8.015625 25.828125 7.929688 26.054688 C 7.6875 26.625 7.6875 26.625 7.3125 27 C 6.722656 27.144531 6.21875 27.125 5.625 27 C 4.367188 25.929688 3.667969 23.996094 2.917969 22.546875 C 2.644531 22.023438 2.371094 21.503906 2.097656 20.980469 C 2.03125 20.855469 1.96875 20.726562 1.898438 20.597656 C 1.386719 19.617188 0.828125 18.671875 0.242188 17.734375 C -0.0859375 17.082031 -0.140625 16.503906 -0.136719 15.78125 C 0.222656 14.722656 1.621094 14.242188 2.554688 13.773438 C 2.714844 13.691406 2.867188 13.613281 3.03125 13.53125 C 3.527344 13.277344 4.027344 13.027344 4.523438 12.773438 C 5.175781 12.441406 5.828125 12.109375 6.480469 11.777344 C 6.636719 11.699219 6.796875 11.621094 6.953125 11.539062 C 7.957031 11.027344 8.945312 10.5 9.921875 9.941406 C 10.53125 9.640625 10.964844 9.605469 11.625 9.75 Z M 11.625 9.75 "/>
<path style=" stroke:none;fill-rule:nonzero;fill:rgb(40.000001%,49.803922%,99.607843%);fill-opacity:1;" d="M 37.269531 9.664062 C 38.257812 9.867188 39.132812 10.433594 40.007812 10.910156 C 40.230469 11.027344 40.453125 11.148438 40.675781 11.265625 C 41.136719 11.511719 41.59375 11.757812 42.054688 12.003906 C 42.734375 12.367188 43.417969 12.722656 44.105469 13.070312 C 44.320312 13.183594 44.53125 13.292969 44.753906 13.402344 C 45.160156 13.613281 45.570312 13.820312 45.980469 14.03125 C 46.164062 14.125 46.347656 14.21875 46.535156 14.316406 C 46.695312 14.398438 46.859375 14.480469 47.023438 14.566406 C 47.429688 14.808594 47.714844 15 48 15.375 C 48.300781 16.652344 47.890625 17.644531 47.25 18.730469 C 47.140625 18.902344 47.03125 19.074219 46.921875 19.253906 C 46.695312 19.628906 46.472656 20.007812 46.25 20.386719 C 46.136719 20.578125 46.023438 20.769531 45.902344 20.96875 C 45.246094 22.109375 44.660156 23.285156 44.070312 24.460938 C 42.863281 26.832031 42.863281 26.832031 41.941406 27.148438 C 40.808594 27.125 40.808594 27.125 40.242188 26.542969 C 39.890625 25.773438 39.613281 25 39.375 24.1875 C 35.460938 26.363281 32.753906 30.628906 30.75 34.5 C 30.640625 34.707031 30.53125 34.914062 30.417969 35.128906 C 29.859375 36.210938 29.414062 37.269531 29.0625 38.4375 C 29 38.4375 28.9375 38.4375 28.875 38.4375 C 28.835938 36.023438 28.804688 33.605469 28.785156 31.191406 C 28.78125 30.070312 28.765625 28.949219 28.746094 27.828125 C 28.730469 26.742188 28.71875 25.660156 28.714844 24.574219 C 28.710938 24.164062 28.707031 23.75 28.695312 23.335938 C 28.628906 20.109375 28.628906 20.109375 29.234375 19.070312 C 29.65625 18.644531 30.058594 18.324219 30.5625 18 C 30.824219 17.785156 31.085938 17.566406 31.347656 17.347656 C 31.601562 17.148438 31.863281 16.953125 32.121094 16.757812 C 32.257812 16.65625 32.394531 16.550781 32.535156 16.445312 C 33.640625 15.617188 34.777344 14.898438 36 14.25 C 35.957031 14.101562 35.917969 13.957031 35.875 13.804688 C 35.289062 11.589844 35.289062 11.589844 35.4375 10.6875 C 35.953125 9.957031 36.363281 9.636719 37.269531 9.664062 Z M 37.269531 9.664062 "/>
<path style=" stroke:none;fill-rule:nonzero;fill:rgb(99.607843%,29.803923%,29.803923%);fill-opacity:1;" d="M 24 0 C 24 8.785156 24 17.574219 24 26.625 C 23.433594 25.914062 22.941406 25.214844 22.464844 24.445312 C 21.6875 23.210938 20.820312 22.109375 19.875 21 C 18.914062 19.828125 18.914062 19.828125 18.917969 18.820312 C 18.917969 18.640625 18.917969 18.460938 18.917969 18.273438 C 18.917969 18.078125 18.917969 17.882812 18.917969 17.679688 C 18.917969 17.484375 18.921875 17.285156 18.921875 17.078125 C 18.921875 16.441406 18.921875 15.800781 18.925781 15.164062 C 18.925781 14.730469 18.929688 14.300781 18.929688 13.867188 C 18.929688 12.808594 18.933594 11.746094 18.9375 10.6875 C 18.753906 10.691406 18.574219 10.695312 18.386719 10.699219 C 18.148438 10.703125 17.910156 10.707031 17.664062 10.710938 C 17.308594 10.71875 17.308594 10.71875 16.949219 10.726562 C 16.3125 10.6875 16.3125 10.6875 15.679688 10.300781 C 15.296875 9.609375 15.300781 9.21875 15.375 8.4375 C 15.671875 7.929688 15.671875 7.929688 16.089844 7.453125 C 16.242188 7.277344 16.398438 7.101562 16.554688 6.917969 C 17.234375 6.1875 17.9375 5.484375 18.648438 4.789062 C 19.03125 4.40625 19.394531 4.019531 19.746094 3.609375 C 20.414062 2.835938 21.089844 2.070312 21.773438 1.3125 C 21.941406 1.121094 21.941406 1.121094 22.113281 0.925781 C 22.277344 0.746094 22.277344 0.746094 22.445312 0.5625 C 22.589844 0.398438 22.589844 0.398438 22.734375 0.234375 C 23.0625 0 23.0625 0 24 0 Z M 24 0 "/>
<path style=" stroke:none;fill-rule:nonzero;fill:rgb(99.607843%,46.27451%,19.607843%);fill-opacity:1;" d="M 24 26.8125 C 25.765625 29.460938 26.789062 32.757812 27.5625 35.8125 C 27.59375 35.9375 27.625 36.0625 27.65625 36.191406 C 28.203125 38.402344 28.445312 40.628906 28.640625 42.890625 C 28.652344 43.03125 28.664062 43.171875 28.679688 43.3125 C 28.753906 44.1875 28.824219 45.0625 28.875 45.9375 C 28.886719 46.136719 28.886719 46.136719 28.902344 46.339844 C 28.917969 46.738281 28.917969 46.738281 28.875 47.4375 C 28.6875 47.625 28.503906 47.808594 28.3125 48 C 26.890625 48 25.464844 48 24 48 C 24 41.007812 24 34.015625 24 26.8125 Z M 24 26.8125 "/>
<path style=" stroke:none;fill-rule:nonzero;fill:rgb(84.705883%,17.254902%,16.470589%);fill-opacity:1;" d="M 28.5 42.375 C 28.6875 42.375 28.871094 42.375 29.0625 42.375 C 29.0625 43.796875 29.0625 45.222656 29.0625 46.6875 C 28.730469 46.019531 28.640625 45.785156 28.609375 45.085938 C 28.601562 44.925781 28.59375 44.765625 28.589844 44.605469 C 28.582031 44.441406 28.578125 44.277344 28.570312 44.109375 C 28.5625 43.941406 28.554688 43.777344 28.546875 43.605469 C 28.53125 43.195312 28.515625 42.785156 28.5 42.375 Z M 28.5 42.375 "/>
</g>
</svg>
