<?xml version="1.0" encoding="UTF-8"?>
<svg xmlns="http://www.w3.org/2000/svg" xmlns:xlink="http://www.w3.org/1999/xlink" width="48" height="48" viewBox="0 0 48 48" version="1.1">
<g id="surface1">
<path style=" stroke:none;fill-rule:nonzero;fill:rgb(0.392157%,0.392157%,0.392157%);fill-opacity:1;" d="M 12.730469 1.265625 C 14.28125 2.1875 15.292969 3.492188 15.75 5.25 C 15.800781 6.023438 15.789062 6.800781 15.78125 7.574219 C 15.78125 8.035156 15.785156 8.496094 15.785156 8.960938 C 15.785156 9.683594 15.785156 10.410156 15.777344 11.132812 C 15.773438 11.835938 15.777344 12.535156 15.78125 13.234375 C 15.777344 13.558594 15.777344 13.558594 15.769531 13.890625 C 15.761719 15 15.761719 15 16.238281 15.957031 C 16.5625 16.234375 16.878906 16.472656 17.25 16.6875 C 17.347656 16.609375 17.441406 16.535156 17.539062 16.457031 C 20.101562 14.425781 22.691406 13.996094 25.875 14.25 C 28.382812 14.679688 30.507812 16.066406 32.03125 18.082031 C 33.933594 20.855469 34.097656 23.949219 33.5625 27.1875 C 33.65625 27.113281 33.75 27.039062 33.84375 26.960938 C 33.972656 26.863281 34.097656 26.761719 34.230469 26.660156 C 34.355469 26.5625 34.476562 26.464844 34.605469 26.363281 C 36.296875 25.246094 38.160156 25.25 40.125 25.5 C 41.757812 25.976562 42.828125 26.851562 43.707031 28.273438 C 44.355469 29.527344 44.371094 30.789062 44.359375 32.171875 C 44.355469 32.566406 44.363281 32.960938 44.367188 33.355469 C 44.382812 35.449219 44.382812 35.449219 43.824219 36.167969 C 43.351562 36.53125 43.128906 36.695312 42.550781 36.75 C 41.890625 36.875 41.828125 36.921875 41.34375 37.464844 C 41.066406 38.050781 40.988281 38.367188 41.0625 39 C 41.300781 39.039062 41.542969 39.078125 41.789062 39.117188 C 43.644531 39.539062 45.027344 40.660156 46.125 42.1875 C 47.183594 43.980469 47.25 45.023438 47.25 47.25 C 41.308594 47.25 35.371094 47.25 29.25 47.25 C 29.25 44.285156 29.683594 42.824219 31.609375 40.742188 C 32.585938 39.804688 34.070312 39 35.4375 39 C 35.511719 38.367188 35.433594 38.050781 35.15625 37.464844 C 34.671875 36.921875 34.609375 36.875 33.949219 36.75 C 33.28125 36.613281 32.824219 36.429688 32.40625 35.851562 C 32.066406 34.953125 32.207031 33.960938 32.246094 33.015625 C 32.253906 32.355469 32.207031 31.699219 32.15625 31.042969 C 32.140625 30.808594 32.121094 30.574219 32.105469 30.328125 C 32.089844 30.15625 32.074219 29.988281 32.0625 29.8125 C 31.960938 29.933594 31.859375 30.058594 31.753906 30.183594 C 30.113281 32.082031 28.070312 33.582031 25.476562 33.78125 C 21.726562 33.851562 21.726562 33.851562 20.25 33.1875 C 20.023438 33.097656 20.023438 33.097656 19.792969 33.007812 C 17.441406 31.976562 15.730469 30.042969 14.753906 27.703125 C 14.066406 25.925781 14.25 24.554688 14.25 22.5 C 9.796875 22.5 5.339844 22.5 0.75 22.5 C 0.75 19.773438 1.042969 18.273438 2.8125 16.3125 C 2.941406 16.203125 3.070312 16.089844 3.203125 15.976562 C 3.648438 15.464844 3.65625 15.230469 3.652344 14.558594 C 3.65625 14.359375 3.65625 14.160156 3.65625 13.953125 C 3.65625 13.628906 3.65625 13.628906 3.652344 13.300781 C 3.652344 13.078125 3.652344 12.851562 3.65625 12.621094 C 3.660156 11.667969 3.65625 10.710938 3.65625 9.757812 C 3.65625 9.058594 3.660156 8.359375 3.660156 7.660156 C 3.660156 7.34375 3.660156 7.34375 3.65625 7.015625 C 3.667969 5.21875 4.054688 3.6875 5.304688 2.351562 C 7.292969 0.5625 10.300781 0.0976562 12.730469 1.265625 Z M 33.1875 27.375 C 33.375 27.75 33.375 27.75 33.375 27.75 Z M 32.25 29.25 C 32.4375 29.625 32.4375 29.625 32.4375 29.625 Z M 32.25 29.25 "/>
<path style=" stroke:none;fill-rule:nonzero;fill:rgb(0%,0%,0%);fill-opacity:1;" d="M 7.832031 29.457031 C 8.734375 30.015625 9.402344 30.664062 9.75 31.6875 C 9.863281 32.746094 9.828125 33.804688 9.808594 34.867188 C 9.816406 36.210938 9.957031 37.039062 10.804688 38.101562 C 11.476562 38.96875 11.308594 40.128906 11.320312 41.167969 C 11.332031 41.464844 11.332031 41.464844 11.339844 41.761719 C 11.359375 43.339844 11.03125 44.601562 9.9375 45.777344 C 8.660156 46.992188 7.386719 47.355469 5.636719 47.339844 C 4.039062 47.285156 2.96875 46.738281 1.886719 45.585938 C 0.75 44.25 0.652344 42.976562 0.65625 41.285156 C 0.652344 41.089844 0.644531 40.898438 0.640625 40.699219 C 0.636719 39.308594 0.925781 38.292969 1.6875 37.125 C 1.808594 37 1.933594 36.875 2.0625 36.75 C 2.113281 36.25 2.113281 36.25 2.101562 35.664062 C 2.101562 35.445312 2.105469 35.226562 2.105469 35 C 2.109375 34.539062 2.105469 34.078125 2.101562 33.617188 C 2.125 32.109375 2.34375 31.128906 3.375 30 C 4.589844 28.964844 6.359375 28.867188 7.832031 29.457031 Z M 4.125 31.875 C 3.761719 32.730469 3.710938 33.457031 3.726562 34.382812 C 3.730469 34.617188 3.734375 34.851562 3.734375 35.089844 C 3.742188 35.265625 3.746094 35.445312 3.75 35.625 C 3.890625 35.578125 3.890625 35.578125 4.03125 35.53125 C 4.6875 35.398438 5.332031 35.410156 6 35.414062 C 6.132812 35.414062 6.265625 35.414062 6.402344 35.414062 C 7.046875 35.414062 7.636719 35.421875 8.25 35.625 C 8.390625 33.238281 8.390625 33.238281 7.277344 31.230469 C 6 30.519531 5.070312 30.839844 4.125 31.875 Z M 4.125 31.875 "/>
<path style=" stroke:none;fill-rule:nonzero;fill:rgb(0%,0%,0%);fill-opacity:1;" d="M 43.832031 0.957031 C 44.734375 1.515625 45.402344 2.164062 45.75 3.1875 C 45.863281 4.246094 45.828125 5.304688 45.808594 6.367188 C 45.816406 7.710938 45.957031 8.539062 46.804688 9.601562 C 47.476562 10.46875 47.308594 11.628906 47.320312 12.667969 C 47.332031 12.964844 47.332031 12.964844 47.339844 13.261719 C 47.359375 14.839844 47.03125 16.101562 45.9375 17.277344 C 44.660156 18.492188 43.386719 18.855469 41.636719 18.839844 C 40.039062 18.785156 38.96875 18.238281 37.886719 17.085938 C 36.75 15.75 36.652344 14.476562 36.65625 12.785156 C 36.652344 12.589844 36.644531 12.398438 36.640625 12.199219 C 36.636719 10.808594 36.925781 9.792969 37.6875 8.625 C 37.808594 8.5 37.933594 8.375 38.0625 8.25 C 38.113281 7.75 38.113281 7.75 38.101562 7.164062 C 38.101562 6.945312 38.105469 6.726562 38.105469 6.5 C 38.109375 6.039062 38.105469 5.578125 38.101562 5.117188 C 38.125 3.609375 38.34375 2.628906 39.375 1.5 C 40.589844 0.464844 42.359375 0.367188 43.832031 0.957031 Z M 40.125 3.375 C 39.761719 4.230469 39.710938 4.957031 39.726562 5.882812 C 39.730469 6.117188 39.734375 6.351562 39.734375 6.589844 C 39.742188 6.765625 39.746094 6.941406 39.75 7.125 C 39.890625 7.078125 39.890625 7.078125 40.03125 7.03125 C 40.6875 6.898438 41.332031 6.910156 42 6.914062 C 42.132812 6.914062 42.265625 6.914062 42.402344 6.914062 C 43.046875 6.914062 43.636719 6.921875 44.25 7.125 C 44.390625 4.738281 44.390625 4.738281 43.277344 2.730469 C 42 2.019531 41.070312 2.339844 40.125 3.375 Z M 40.125 3.375 "/>
<path style=" stroke:none;fill-rule:nonzero;fill:rgb(68.627453%,84.313726%,48.235294%);fill-opacity:1;" d="M 8.046875 37.234375 C 8.882812 37.800781 9.433594 38.613281 9.75 39.5625 C 9.976562 43.101562 9.976562 43.101562 9 44.4375 C 8.273438 45.261719 7.445312 45.664062 6.355469 45.796875 C 5.269531 45.855469 4.453125 45.632812 3.5625 45 C 2.699219 44.199219 2.246094 43.332031 2.1875 42.160156 C 2.183594 41.867188 2.179688 41.578125 2.179688 41.285156 C 2.171875 41.066406 2.171875 41.066406 2.164062 40.847656 C 2.160156 39.585938 2.480469 38.585938 3.382812 37.675781 C 3.507812 37.59375 3.632812 37.503906 3.761719 37.417969 C 3.886719 37.328125 4.015625 37.242188 4.144531 37.148438 C 5.378906 36.417969 6.804688 36.628906 8.046875 37.234375 Z M 8.046875 37.234375 "/>
<path style=" stroke:none;fill-rule:nonzero;fill:rgb(68.627453%,84.313726%,48.235294%);fill-opacity:1;" d="M 44.046875 8.734375 C 44.882812 9.300781 45.433594 10.113281 45.75 11.0625 C 45.976562 14.601562 45.976562 14.601562 45 15.9375 C 44.273438 16.761719 43.445312 17.164062 42.355469 17.296875 C 41.269531 17.355469 40.453125 17.132812 39.5625 16.5 C 38.699219 15.699219 38.246094 14.832031 38.1875 13.660156 C 38.183594 13.367188 38.179688 13.078125 38.179688 12.785156 C 38.171875 12.566406 38.171875 12.566406 38.164062 12.347656 C 38.160156 11.085938 38.480469 10.085938 39.382812 9.175781 C 39.507812 9.09375 39.632812 9.003906 39.761719 8.917969 C 39.886719 8.828125 40.015625 8.742188 40.144531 8.648438 C 41.378906 7.917969 42.804688 8.128906 44.046875 8.734375 Z M 44.046875 8.734375 "/>
<path style=" stroke:none;fill-rule:nonzero;fill:rgb(68.235296%,46.27451%,26.666668%);fill-opacity:1;" d="M 40.6875 27.488281 C 41.601562 28.125 42.503906 29.074219 42.75 30.1875 C 42.84375 31.6875 42.84375 31.6875 42.5625 32.25 C 42.375 32.25 42.191406 32.25 42 32.25 C 42 32.003906 42 31.753906 42 31.5 C 41.503906 31.5 41.007812 31.5 40.5 31.5 C 40.5 31.746094 40.5 31.996094 40.5 32.25 C 40.015625 32.183594 39.789062 32.097656 39.433594 31.757812 C 39.113281 31.179688 39.0625 30.652344 39 30 C 38.503906 30 38.007812 30 37.5 30 C 37.765625 31.246094 38.046875 32.539062 39.082031 33.363281 C 39.558594 33.558594 39.996094 33.65625 40.5 33.75 C 40.566406 35.136719 40.582031 35.996094 39.65625 37.078125 C 39.207031 37.453125 38.773438 37.503906 38.203125 37.582031 C 37.277344 37.472656 36.789062 37.070312 36.1875 36.375 C 35.929688 35.601562 35.941406 34.867188 35.929688 34.054688 C 35.921875 33.894531 35.914062 33.738281 35.910156 33.570312 C 35.894531 32.703125 35.90625 32.367188 36.472656 31.667969 C 36.625 31.550781 36.777344 31.433594 36.9375 31.3125 C 36.8125 30.941406 36.6875 30.570312 36.5625 30.1875 C 35.496094 30.683594 35.496094 30.683594 34.886719 31.640625 C 34.820312 31.839844 34.757812 32.042969 34.6875 32.25 C 34.4375 32.25 34.191406 32.25 33.9375 32.25 C 33.5625 31.496094 33.636719 30.585938 33.867188 29.789062 C 34.382812 28.621094 35.300781 27.722656 36.445312 27.15625 C 37.816406 26.722656 39.40625 26.824219 40.6875 27.488281 Z M 40.6875 27.488281 "/>
<path style=" stroke:none;fill-rule:nonzero;fill:rgb(98.431373%,50.196081%,42.352942%);fill-opacity:1;" d="M 7.125 16.125 C 7.375 16.5 7.628906 16.875 7.875 17.25 C 8.515625 17.785156 9.078125 17.914062 9.914062 17.878906 C 10.753906 17.738281 11.511719 17.410156 12.074219 16.761719 C 12.304688 16.425781 12.304688 16.425781 12.5625 15.9375 C 13.695312 15.996094 14.519531 16.546875 15.375 17.25 C 15.621094 17.558594 15.871094 17.867188 16.125 18.1875 C 15.472656 19.578125 15.472656 19.578125 14.8125 21 C 10.667969 21 6.519531 21 2.25 21 C 2.699219 18.984375 3.375 17.691406 5.089844 16.523438 C 6.378906 15.742188 6.378906 15.742188 7.125 16.125 Z M 7.125 16.125 "/>
<path style=" stroke:none;fill-rule:nonzero;fill:rgb(38.431373%,41.568628%,45.882353%);fill-opacity:1;" d="M 11.636719 2.605469 C 12.847656 3.292969 13.871094 4.253906 14.25 5.625 C 14.304688 6.257812 14.296875 6.867188 14.25 7.5 C 14.003906 7.5 13.757812 7.5 13.5 7.5 C 13.5 7.253906 13.5 7.003906 13.5 6.75 C 13.007812 6.75 12.511719 6.75 12 6.75 C 12 6.996094 12 7.246094 12 7.5 C 11.515625 7.433594 11.289062 7.351562 10.933594 7.007812 C 10.617188 6.429688 10.5625 5.902344 10.5 5.25 C 10.066406 5.3125 9.632812 5.375 9.1875 5.4375 C 9.445312 7.234375 9.445312 7.234375 10.570312 8.578125 C 11.054688 8.808594 11.472656 8.90625 12 9 C 12.066406 10.386719 12.085938 11.246094 11.15625 12.328125 C 10.707031 12.703125 10.273438 12.753906 9.703125 12.832031 C 8.777344 12.722656 8.289062 12.320312 7.6875 11.625 C 7.429688 10.851562 7.441406 10.117188 7.429688 9.304688 C 7.421875 9.144531 7.417969 8.984375 7.410156 8.820312 C 7.394531 7.953125 7.40625 7.617188 7.972656 6.917969 C 8.128906 6.800781 8.277344 6.683594 8.4375 6.5625 C 8.316406 6.191406 8.191406 5.820312 8.0625 5.4375 C 7 5.933594 7 5.933594 6.386719 6.890625 C 6.320312 7.089844 6.257812 7.292969 6.1875 7.5 C 5.878906 7.5 5.570312 7.5 5.25 7.5 C 5.15625 6.203125 5.199219 5.1875 6 4.125 C 7.597656 2.445312 9.378906 1.628906 11.636719 2.605469 Z M 11.636719 2.605469 "/>
<path style=" stroke:none;fill-rule:nonzero;fill:rgb(0%,0%,0%);fill-opacity:1;" d="M 23.25 35.25 C 23.746094 35.25 24.238281 35.25 24.75 35.25 C 24.75 35.558594 24.75 35.558594 24.75 35.871094 C 24.757812 36.144531 24.765625 36.417969 24.773438 36.691406 C 24.773438 36.828125 24.773438 36.960938 24.773438 37.101562 C 24.796875 37.886719 24.796875 37.886719 25.191406 38.542969 C 25.472656 38.769531 25.765625 38.980469 26.0625 39.1875 C 26.410156 39.886719 26.355469 40.675781 26.25 41.4375 C 25.9375 42.023438 25.539062 42.449219 24.9375 42.75 C 24.171875 42.847656 23.390625 42.925781 22.695312 42.554688 C 22.296875 42.222656 21.984375 41.90625 21.75 41.4375 C 18.78125 41.375 15.808594 41.3125 12.75 41.25 C 12.75 40.753906 12.75 40.261719 12.75 39.75 C 12.917969 39.75 12.917969 39.75 13.085938 39.75 C 14.238281 39.75 15.390625 39.746094 16.542969 39.730469 C 16.972656 39.726562 17.402344 39.726562 17.832031 39.726562 C 18.453125 39.726562 19.070312 39.722656 19.6875 39.710938 C 19.976562 39.714844 19.976562 39.714844 20.273438 39.71875 C 21.238281 39.722656 21.238281 39.722656 22.074219 39.308594 C 22.359375 38.972656 22.359375 38.972656 22.6875 38.4375 C 22.8125 38.375 22.933594 38.3125 23.0625 38.25 C 23.121094 37.742188 23.15625 37.25 23.179688 36.738281 C 23.1875 36.597656 23.195312 36.453125 23.203125 36.308594 C 23.21875 35.953125 23.234375 35.601562 23.25 35.25 Z M 23.25 35.25 "/>
<path style=" stroke:none;fill-rule:nonzero;fill:rgb(0%,0%,0%);fill-opacity:1;" d="M 24.9375 5.25 C 25.523438 5.5625 25.949219 5.960938 26.25 6.5625 C 29.21875 6.625 32.191406 6.6875 35.25 6.75 C 35.25 7.246094 35.25 7.738281 35.25 8.25 C 35.082031 8.25 35.082031 8.25 34.914062 8.25 C 33.761719 8.25 32.609375 8.253906 31.457031 8.269531 C 31.027344 8.273438 30.597656 8.273438 30.167969 8.273438 C 29.546875 8.273438 28.929688 8.277344 28.3125 8.289062 C 28.023438 8.285156 28.023438 8.285156 27.726562 8.28125 C 26.761719 8.277344 26.761719 8.277344 25.925781 8.691406 C 25.640625 9.027344 25.640625 9.027344 25.3125 9.5625 C 25.1875 9.625 25.066406 9.6875 24.9375 9.75 C 24.878906 10.257812 24.84375 10.75 24.820312 11.261719 C 24.8125 11.402344 24.804688 11.546875 24.796875 11.691406 C 24.78125 12.046875 24.765625 12.398438 24.75 12.75 C 24.253906 12.75 23.761719 12.75 23.25 12.75 C 23.25 12.542969 23.25 12.339844 23.25 12.128906 C 23.242188 11.855469 23.234375 11.582031 23.226562 11.308594 C 23.226562 11.171875 23.226562 11.039062 23.226562 10.898438 C 23.203125 10.113281 23.203125 10.113281 22.808594 9.457031 C 22.527344 9.230469 22.234375 9.019531 21.9375 8.8125 C 21.589844 8.113281 21.644531 7.324219 21.75 6.5625 C 22.46875 5.21875 23.527344 5.050781 24.9375 5.25 Z M 24.9375 5.25 "/>
<path style=" stroke:none;fill-rule:nonzero;fill:rgb(92.54902%,80.392158%,69.411767%);fill-opacity:1;" d="M 36.9375 30.75 C 37.125 30.75 37.308594 30.75 37.5 30.75 C 37.570312 30.90625 37.640625 31.0625 37.714844 31.222656 C 37.808594 31.425781 37.90625 31.628906 38.003906 31.839844 C 38.097656 32.042969 38.191406 32.246094 38.289062 32.453125 C 38.761719 33.21875 39.226562 33.480469 40.089844 33.691406 C 40.222656 33.710938 40.359375 33.730469 40.5 33.75 C 40.566406 35.136719 40.585938 35.996094 39.65625 37.078125 C 39.207031 37.453125 38.773438 37.503906 38.203125 37.582031 C 37.277344 37.472656 36.789062 37.074219 36.1875 36.375 C 35.929688 35.597656 35.945312 34.867188 35.929688 34.054688 C 35.921875 33.894531 35.914062 33.734375 35.90625 33.570312 C 35.890625 32.375 35.890625 32.375 36.472656 31.703125 C 36.625 31.574219 36.78125 31.445312 36.9375 31.3125 C 36.9375 31.125 36.9375 30.941406 36.9375 30.75 Z M 36.9375 30.75 "/>
<path style=" stroke:none;fill-rule:nonzero;fill:rgb(92.54902%,80.392158%,69.411767%);fill-opacity:1;" d="M 8.4375 6 C 8.625 6 8.808594 6 9 6 C 9.070312 6.15625 9.140625 6.3125 9.214844 6.472656 C 9.308594 6.675781 9.40625 6.878906 9.503906 7.089844 C 9.597656 7.292969 9.691406 7.496094 9.789062 7.703125 C 10.261719 8.46875 10.726562 8.730469 11.589844 8.941406 C 11.722656 8.960938 11.859375 8.980469 12 9 C 12.066406 10.386719 12.085938 11.246094 11.15625 12.328125 C 10.707031 12.703125 10.273438 12.753906 9.703125 12.832031 C 8.777344 12.722656 8.289062 12.324219 7.6875 11.625 C 7.429688 10.847656 7.445312 10.117188 7.429688 9.304688 C 7.421875 9.144531 7.414062 8.984375 7.40625 8.820312 C 7.390625 7.625 7.390625 7.625 7.972656 6.953125 C 8.125 6.824219 8.28125 6.695312 8.4375 6.5625 C 8.4375 6.375 8.4375 6.191406 8.4375 6 Z M 8.4375 6 "/>
<path style=" stroke:none;fill-rule:nonzero;fill:rgb(1.568628%,1.960784%,0.784314%);fill-opacity:1;" d="M 6.5625 38.25 C 7.328125 38.589844 7.820312 39.03125 8.25 39.75 C 8.375 40.535156 8.429688 40.960938 8.011719 41.636719 C 7.730469 41.976562 7.460938 42.28125 7.125 42.5625 C 7 42.5625 6.878906 42.5625 6.75 42.5625 C 6.75 43.121094 6.75 43.675781 6.75 44.25 C 6.253906 44.25 5.761719 44.25 5.25 44.25 C 5.25 43.691406 5.25 43.136719 5.25 42.5625 C 5.003906 42.4375 4.753906 42.316406 4.5 42.1875 C 3.914062 41.636719 3.761719 41.324219 3.632812 40.523438 C 3.667969 39.707031 4.046875 39.269531 4.59375 38.691406 C 5.207031 38.140625 5.757812 38.195312 6.5625 38.25 Z M 6.5625 38.25 "/>
<path style=" stroke:none;fill-rule:nonzero;fill:rgb(1.568628%,1.960784%,0.784314%);fill-opacity:1;" d="M 42.5625 9.75 C 43.328125 10.089844 43.820312 10.53125 44.25 11.25 C 44.375 12.035156 44.429688 12.460938 44.011719 13.136719 C 43.730469 13.476562 43.460938 13.78125 43.125 14.0625 C 43 14.0625 42.878906 14.0625 42.75 14.0625 C 42.75 14.621094 42.75 15.175781 42.75 15.75 C 42.253906 15.75 41.761719 15.75 41.25 15.75 C 41.25 15.191406 41.25 14.636719 41.25 14.0625 C 41.003906 13.9375 40.753906 13.816406 40.5 13.6875 C 39.914062 13.136719 39.761719 12.824219 39.632812 12.023438 C 39.667969 11.207031 40.046875 10.769531 40.59375 10.191406 C 41.207031 9.640625 41.757812 9.695312 42.5625 9.75 Z M 42.5625 9.75 "/>
<path style=" stroke:none;fill-rule:nonzero;fill:rgb(40.000001%,81.960785%,93.333334%);fill-opacity:1;" d="M 21.375 20.25 C 23.109375 20.25 24.839844 20.25 26.625 20.25 C 27 21.5625 27 21.5625 27 23.25 C 25.019531 23.25 23.039062 23.25 21 23.25 C 21 21.5625 21 21.5625 21.375 20.25 Z M 21.375 20.25 "/>
<path style=" stroke:none;fill-rule:nonzero;fill:rgb(40.784314%,83.137256%,94.901961%);fill-opacity:1;" d="M 21 24.75 C 22.980469 24.75 24.960938 24.75 27 24.75 C 26.8125 27.1875 26.8125 27.1875 26.625 27.75 C 24.890625 27.75 23.160156 27.75 21.375 27.75 C 21 25.6875 21 25.6875 21 24.75 Z M 21 24.75 "/>
<path style=" stroke:none;fill-rule:nonzero;fill:rgb(96.078432%,81.960785%,42.352942%);fill-opacity:1;" d="M 41.625 40.875 C 42.894531 41.054688 43.773438 41.820312 44.59375 42.777344 C 45.335938 43.8125 45.445312 44.386719 45.75 45.75 C 44.203125 45.75 42.65625 45.75 41.0625 45.75 C 41.273438 43.21875 41.273438 43.21875 41.449219 42.046875 C 41.484375 41.824219 41.515625 41.601562 41.550781 41.371094 C 41.574219 41.207031 41.597656 41.042969 41.625 40.875 Z M 41.625 40.875 "/>
<path style=" stroke:none;fill-rule:nonzero;fill:rgb(95.686275%,81.568629%,42.352942%);fill-opacity:1;" d="M 34.875 40.875 C 34.96875 41.511719 35.0625 42.148438 35.15625 42.785156 C 35.183594 42.964844 35.210938 43.144531 35.238281 43.332031 C 35.261719 43.503906 35.289062 43.679688 35.3125 43.859375 C 35.347656 44.101562 35.347656 44.101562 35.386719 44.34375 C 35.4375 44.8125 35.4375 44.8125 35.4375 45.75 C 33.890625 45.75 32.34375 45.75 30.75 45.75 C 31.207031 43.695312 31.890625 42.460938 33.617188 41.261719 C 34.101562 40.960938 34.289062 40.875 34.875 40.875 Z M 34.875 40.875 "/>
<path style=" stroke:none;fill-rule:nonzero;fill:rgb(40.000001%,81.568629%,92.941177%);fill-opacity:1;" d="M 28.3125 20.25 C 29.300781 20.25 30.292969 20.25 31.3125 20.25 C 31.9375 21.378906 32.078125 21.867188 32.25 23.25 C 31.011719 23.25 29.773438 23.25 28.5 23.25 C 28.082031 22.414062 28.304688 21.144531 28.3125 20.25 Z M 28.3125 20.25 "/>
<path style=" stroke:none;fill-rule:nonzero;fill:rgb(40.000001%,81.568629%,93.333334%);fill-opacity:1;" d="M 28.5 24.75 C 29.738281 24.75 30.976562 24.75 32.25 24.75 C 32.078125 26.132812 31.9375 26.621094 31.3125 27.75 C 30.261719 27.75 29.207031 27.75 28.125 27.75 C 28.25 26.761719 28.371094 25.769531 28.5 24.75 Z M 28.5 24.75 "/>
<path style=" stroke:none;fill-rule:nonzero;fill:rgb(40.000001%,81.960785%,93.333334%);fill-opacity:1;" d="M 15.75 24.75 C 16.988281 24.75 18.226562 24.75 19.5 24.75 C 19.753906 25.769531 19.699219 26.699219 19.6875 27.75 C 18.699219 27.75 17.707031 27.75 16.6875 27.75 C 16.0625 26.621094 15.921875 26.132812 15.75 24.75 Z M 15.75 24.75 "/>
<path style=" stroke:none;fill-rule:nonzero;fill:rgb(40.392157%,82.352942%,94.117647%);fill-opacity:1;" d="M 16.6875 20.25 C 17.675781 20.25 18.667969 20.25 19.6875 20.25 C 19.625 21.238281 19.5625 22.230469 19.5 23.25 C 18.261719 23.25 17.023438 23.25 15.75 23.25 C 15.921875 21.867188 16.0625 21.378906 16.6875 20.25 Z M 16.6875 20.25 "/>
<path style=" stroke:none;fill-rule:nonzero;fill:rgb(40.000001%,81.568629%,93.333334%);fill-opacity:1;" d="M 24.75 15.9375 C 25.441406 16.609375 25.882812 17.488281 26.25 18.375 C 26.25 18.5 26.25 18.621094 26.25 18.75 C 24.765625 18.75 23.28125 18.75 21.75 18.75 C 22.171875 17.265625 22.171875 17.265625 22.6875 16.617188 C 22.785156 16.492188 22.878906 16.367188 22.980469 16.238281 C 23.539062 15.617188 23.984375 15.722656 24.75 15.9375 Z M 24.75 15.9375 "/>
<path style=" stroke:none;fill-rule:nonzero;fill:rgb(40.392157%,82.352942%,93.725491%);fill-opacity:1;" d="M 21.75 29.25 C 23.234375 29.25 24.71875 29.25 26.25 29.25 C 25.339844 31.523438 25.339844 31.523438 24.75 32.0625 C 24.199219 32.261719 24.199219 32.261719 23.625 32.25 C 22.527344 31.714844 22.171875 30.515625 21.75 29.4375 C 21.75 29.375 21.75 29.3125 21.75 29.25 Z M 21.75 29.25 "/>
<path style=" stroke:none;fill-rule:nonzero;fill:rgb(95.686275%,81.568629%,42.352942%);fill-opacity:1;" d="M 38.0625 43.125 C 38.820312 43.425781 39.328125 43.96875 39.890625 44.542969 C 39.984375 44.636719 40.078125 44.734375 40.179688 44.832031 C 40.875 45.535156 40.875 45.535156 40.875 45.75 C 39.140625 45.75 37.410156 45.75 35.625 45.75 C 36.890625 44.273438 36.890625 44.273438 37.476562 43.699219 C 37.644531 43.535156 37.644531 43.535156 37.816406 43.367188 C 37.898438 43.285156 37.976562 43.207031 38.0625 43.125 Z M 38.0625 43.125 "/>
<path style=" stroke:none;fill-rule:nonzero;fill:rgb(89.803922%,77.64706%,67.058825%);fill-opacity:1;" d="M 9.136719 14.042969 C 9.445312 14.046875 9.445312 14.046875 9.761719 14.050781 C 10.074219 14.054688 10.074219 14.054688 10.390625 14.054688 C 10.550781 14.058594 10.710938 14.0625 10.875 14.0625 C 11.160156 14.574219 11.25 14.78125 11.226562 15.386719 C 11.0625 15.9375 11.0625 15.9375 10.746094 16.289062 C 10.164062 16.570312 9.828125 16.605469 9.1875 16.5 C 8.636719 16.113281 8.636719 16.113281 8.25 15.5625 C 8.300781 14.074219 8.300781 14.074219 9.136719 14.042969 Z M 9.136719 14.042969 "/>
<path style=" stroke:none;fill-rule:nonzero;fill:rgb(38.82353%,41.960785%,45.882353%);fill-opacity:1;" d="M 13.125 12 C 13.496094 12 13.867188 12 14.25 12 C 14.25 12.929688 14.25 13.855469 14.25 14.8125 C 13.414062 14.625 13.414062 14.625 12.5625 14.4375 C 12.371094 13.636719 12.324219 13.238281 12.667969 12.480469 C 12.820312 12.324219 12.96875 12.164062 13.125 12 Z M 13.125 12 "/>
<path style=" stroke:none;fill-rule:nonzero;fill:rgb(38.82353%,41.568628%,45.882353%);fill-opacity:1;" d="M 5.25 12 C 5.621094 12 5.992188 12 6.375 12 C 6.832031 12.480469 6.832031 12.480469 7.125 13.125 C 7.078125 13.851562 7.078125 13.851562 6.9375 14.4375 C 6.378906 14.5625 5.824219 14.683594 5.25 14.8125 C 5.25 13.882812 5.25 12.957031 5.25 12 Z M 5.25 12 "/>
<path style=" stroke:none;fill-rule:nonzero;fill:rgb(38.82353%,79.215688%,90.196079%);fill-opacity:1;" d="M 27.75 29.25 C 28.554688 29.25 29.359375 29.25 30.1875 29.25 C 29.804688 30.015625 29.601562 30.210938 28.921875 30.679688 C 28.6875 30.84375 28.6875 30.84375 28.445312 31.015625 C 27.9375 31.3125 27.9375 31.3125 26.8125 31.6875 C 27.121094 30.882812 27.429688 30.078125 27.75 29.25 Z M 27.75 29.25 "/>
<path style=" stroke:none;fill-rule:nonzero;fill:rgb(38.82353%,79.215688%,90.588236%);fill-opacity:1;" d="M 17.8125 29.25 C 18.617188 29.25 19.421875 29.25 20.25 29.25 C 20.558594 30.054688 20.867188 30.859375 21.1875 31.6875 C 20.246094 31.375 19.742188 31.140625 18.972656 30.574219 C 18.792969 30.445312 18.613281 30.316406 18.429688 30.183594 C 18 29.8125 18 29.8125 17.8125 29.25 Z M 17.8125 29.25 "/>
<path style=" stroke:none;fill-rule:nonzero;fill:rgb(39.215687%,79.607844%,90.980393%);fill-opacity:1;" d="M 20.8125 16.3125 C 20.9375 16.375 21.058594 16.4375 21.1875 16.5 C 20.878906 17.242188 20.570312 17.984375 20.25 18.75 C 19.382812 18.75 18.515625 18.75 17.625 18.75 C 18.261719 17.953125 18.601562 17.613281 19.429688 17.109375 C 19.609375 17 19.789062 16.886719 19.976562 16.773438 C 20.25 16.609375 20.527344 16.453125 20.8125 16.3125 Z M 20.8125 16.3125 "/>
<path style=" stroke:none;fill-rule:nonzero;fill:rgb(39.215687%,80.000001%,91.37255%);fill-opacity:1;" d="M 26.8125 16.3125 C 27.753906 16.625 28.257812 16.859375 29.027344 17.425781 C 29.207031 17.554688 29.386719 17.683594 29.570312 17.816406 C 30 18.1875 30 18.1875 30.1875 18.75 C 29.382812 18.75 28.578125 18.75 27.75 18.75 C 27.441406 17.945312 27.132812 17.140625 26.8125 16.3125 Z M 26.8125 16.3125 "/>
<path style=" stroke:none;fill-rule:nonzero;fill:rgb(89.803922%,77.64706%,67.450982%);fill-opacity:1;" d="M 37.125 38.8125 C 37.867188 38.8125 38.609375 38.8125 39.375 38.8125 C 39.4375 39.121094 39.5 39.429688 39.5625 39.75 C 39.335938 40.085938 39.335938 40.085938 39.011719 40.371094 C 38.90625 40.464844 38.800781 40.5625 38.691406 40.660156 C 38.605469 40.734375 38.523438 40.800781 38.4375 40.875 C 37.804688 40.605469 37.359375 40.296875 36.9375 39.75 C 37 39.441406 37.0625 39.132812 37.125 38.8125 Z M 37.125 38.8125 "/>
<path style=" stroke:none;fill-rule:nonzero;fill:rgb(93.333334%,47.450981%,40.000001%);fill-opacity:1;" d="M 23.625 39.75 C 24.117188 39.820312 24.117188 39.820312 24.5625 39.9375 C 24.679688 40.382812 24.679688 40.382812 24.75 40.875 C 24.625 41 24.503906 41.121094 24.375 41.25 C 23.882812 41.179688 23.882812 41.179688 23.4375 41.0625 C 23.320312 40.617188 23.320312 40.617188 23.25 40.125 C 23.375 40 23.496094 39.878906 23.625 39.75 Z M 23.625 39.75 "/>
<path style=" stroke:none;fill-rule:nonzero;fill:rgb(92.156863%,78.823531%,40.784314%);fill-opacity:1;" d="M 5.625 39.75 C 6.117188 39.820312 6.117188 39.820312 6.5625 39.9375 C 6.679688 40.382812 6.679688 40.382812 6.75 40.875 C 6.625 41 6.503906 41.121094 6.375 41.25 C 5.882812 41.179688 5.882812 41.179688 5.4375 41.0625 C 5.320312 40.617188 5.320312 40.617188 5.25 40.125 C 5.375 40 5.496094 39.878906 5.625 39.75 Z M 5.625 39.75 "/>
<path style=" stroke:none;fill-rule:nonzero;fill:rgb(92.156863%,78.823531%,40.784314%);fill-opacity:1;" d="M 41.625 11.25 C 42.117188 11.320312 42.117188 11.320312 42.5625 11.4375 C 42.679688 11.882812 42.679688 11.882812 42.75 12.375 C 42.625 12.5 42.503906 12.621094 42.375 12.75 C 41.882812 12.679688 41.882812 12.679688 41.4375 12.5625 C 41.320312 12.117188 41.320312 12.117188 41.25 11.625 C 41.375 11.5 41.496094 11.378906 41.625 11.25 Z M 41.625 11.25 "/>
<path style=" stroke:none;fill-rule:nonzero;fill:rgb(93.333334%,47.450981%,40.000001%);fill-opacity:1;" d="M 23.625 6.75 C 24.117188 6.820312 24.117188 6.820312 24.5625 6.9375 C 24.679688 7.382812 24.679688 7.382812 24.75 7.875 C 24.625 8 24.503906 8.121094 24.375 8.25 C 23.882812 8.179688 23.882812 8.179688 23.4375 8.0625 C 23.320312 7.617188 23.320312 7.617188 23.25 7.125 C 23.375 7 23.496094 6.878906 23.625 6.75 Z M 23.625 6.75 "/>
<path style=" stroke:none;fill-rule:nonzero;fill:rgb(87.843138%,76.078433%,65.882355%);fill-opacity:1;" d="M 42 33.75 C 42.371094 33.9375 42.371094 33.9375 42.75 34.125 C 42.6875 34.433594 42.625 34.742188 42.5625 35.0625 C 42.375 35.125 42.191406 35.1875 42 35.25 C 42 34.753906 42 34.261719 42 33.75 Z M 42 33.75 "/>
<path style=" stroke:none;fill-rule:nonzero;fill:rgb(87.843138%,76.078433%,65.882355%);fill-opacity:1;" d="M 34.125 33.75 C 34.25 33.75 34.371094 33.75 34.5 33.75 C 34.5 34.246094 34.5 34.738281 34.5 35.25 C 34.253906 35.125 34.003906 35.003906 33.75 34.875 C 33.914062 33.960938 33.914062 33.960938 34.125 33.75 Z M 34.125 33.75 "/>
<path style=" stroke:none;fill-rule:nonzero;fill:rgb(87.843138%,76.078433%,65.882355%);fill-opacity:1;" d="M 13.5 9 C 13.871094 9.1875 13.871094 9.1875 14.25 9.375 C 14.1875 9.683594 14.125 9.992188 14.0625 10.3125 C 13.875 10.375 13.691406 10.4375 13.5 10.5 C 13.5 10.003906 13.5 9.511719 13.5 9 Z M 13.5 9 "/>
<path style=" stroke:none;fill-rule:nonzero;fill:rgb(87.843138%,76.078433%,65.882355%);fill-opacity:1;" d="M 5.625 9 C 5.75 9 5.871094 9 6 9 C 6 9.496094 6 9.988281 6 10.5 C 5.753906 10.375 5.503906 10.253906 5.25 10.125 C 5.414062 9.210938 5.414062 9.210938 5.625 9 Z M 5.625 9 "/>
<path style=" stroke:none;fill-rule:nonzero;fill:rgb(81.176472%,63.529414%,12.941177%);fill-opacity:1;" d="M 39.9375 41.25 C 40 41.25 40.0625 41.25 40.125 41.25 C 40.125 41.683594 40.125 42.117188 40.125 42.5625 C 39.878906 42.4375 39.628906 42.316406 39.375 42.1875 C 39.726562 41.460938 39.726562 41.460938 39.9375 41.25 Z M 39.9375 41.25 "/>
<path style=" stroke:none;fill-rule:nonzero;fill:rgb(81.568629%,63.529414%,12.941177%);fill-opacity:1;" d="M 36.375 41.25 C 36.621094 41.4375 36.871094 41.621094 37.125 41.8125 C 37 42.058594 36.878906 42.308594 36.75 42.5625 C 36.625 42.5625 36.503906 42.5625 36.375 42.5625 C 36.375 42.128906 36.375 41.695312 36.375 41.25 Z M 36.375 41.25 "/>
</g>
</svg>
