<?xml version="1.0" encoding="UTF-8"?>
<svg xmlns="http://www.w3.org/2000/svg" xmlns:xlink="http://www.w3.org/1999/xlink" width="48" height="48" viewBox="0 0 48 48" version="1.1">
<g id="surface1">
<path style=" stroke:none;fill-rule:nonzero;fill:rgb(0%,83.92157%,74.117649%);fill-opacity:1;" d="M 11.25 0 C 11.972656 0.375 12.300781 0.636719 12.75 1.3125 C 13.152344 1.398438 13.152344 1.398438 13.628906 1.382812 C 13.898438 1.386719 13.898438 1.386719 14.179688 1.390625 C 14.375 1.390625 14.574219 1.390625 14.777344 1.390625 C 15.082031 1.390625 15.082031 1.390625 15.386719 1.394531 C 16.035156 1.402344 16.683594 1.40625 17.332031 1.40625 C 18.183594 1.40625 19.035156 1.414062 19.886719 1.421875 C 20.179688 1.421875 20.179688 1.421875 20.484375 1.421875 C 20.664062 1.421875 20.847656 1.425781 21.035156 1.429688 C 21.195312 1.429688 21.359375 1.429688 21.523438 1.429688 C 22.03125 1.515625 22.195312 1.65625 22.5 2.0625 C 22.574219 2.695312 22.523438 3.296875 22.5 3.9375 C 23.488281 3.9375 24.480469 3.9375 25.5 3.9375 C 25.488281 3.640625 25.476562 3.339844 25.464844 3.035156 C 25.429688 2.15625 25.429688 2.15625 25.730469 1.757812 C 26.164062 1.421875 26.410156 1.433594 26.953125 1.4375 C 27.136719 1.4375 27.316406 1.4375 27.503906 1.4375 C 27.699219 1.4375 27.890625 1.441406 28.09375 1.445312 C 28.507812 1.441406 28.921875 1.441406 29.332031 1.4375 C 29.984375 1.441406 30.632812 1.441406 31.285156 1.449219 C 31.914062 1.453125 32.539062 1.449219 33.167969 1.445312 C 33.363281 1.449219 33.558594 1.453125 33.757812 1.453125 C 34.730469 1.46875 34.730469 1.46875 35.574219 1.058594 C 35.859375 0.722656 35.859375 0.722656 36.1875 0.1875 C 36.882812 -0.160156 37.679688 -0.0820312 38.4375 0 C 39.140625 0.332031 39.472656 0.625 39.925781 1.253906 C 40.191406 2.078125 40.164062 2.730469 39.9375 3.5625 C 39.539062 4.207031 39.167969 4.652344 38.4375 4.875 C 37.230469 4.992188 36.617188 4.820312 35.625 4.125 C 35.4375 3.847656 35.4375 3.847656 35.25 3.5625 C 34.894531 3.472656 34.894531 3.472656 34.484375 3.480469 C 34.328125 3.476562 34.171875 3.472656 34.007812 3.46875 C 33.75 3.46875 33.75 3.46875 33.492188 3.46875 C 33.316406 3.464844 33.140625 3.460938 32.960938 3.457031 C 32.40625 3.445312 31.847656 3.441406 31.289062 3.433594 C 30.910156 3.425781 30.535156 3.421875 30.15625 3.414062 C 29.230469 3.398438 28.300781 3.386719 27.375 3.375 C 27.4375 3.621094 27.5 3.871094 27.5625 4.125 C 27.738281 4.167969 27.910156 4.210938 28.089844 4.257812 C 31.332031 5.085938 33.988281 6.390625 36.75 8.25 C 36.828125 8.171875 36.90625 8.09375 36.984375 8.011719 C 37.335938 7.65625 37.6875 7.304688 38.039062 6.949219 C 38.222656 6.761719 38.222656 6.761719 38.410156 6.574219 C 38.527344 6.457031 38.644531 6.339844 38.765625 6.21875 C 38.871094 6.109375 38.980469 6 39.09375 5.886719 C 39.921875 5.121094 41.234375 5.394531 42.300781 5.390625 C 42.722656 5.390625 43.144531 5.386719 43.570312 5.378906 C 43.839844 5.378906 44.109375 5.378906 44.378906 5.375 C 44.625 5.375 44.867188 5.371094 45.121094 5.371094 C 45.777344 5.441406 46.046875 5.527344 46.5 6 C 46.574219 6.472656 46.574219 6.472656 46.570312 7.007812 C 46.59375 7.757812 46.59375 7.757812 46.941406 8.390625 C 47.28125 8.671875 47.28125 8.671875 47.8125 9 C 48.160156 9.695312 48.082031 10.492188 48 11.25 C 47.667969 11.953125 47.375 12.285156 46.746094 12.738281 C 45.921875 13.003906 45.269531 12.976562 44.4375 12.75 C 43.792969 12.351562 43.347656 11.980469 43.125 11.25 C 43.007812 10.042969 43.179688 9.429688 43.875 8.4375 C 44.0625 8.3125 44.246094 8.191406 44.4375 8.0625 C 44.574219 7.675781 44.574219 7.675781 44.625 7.3125 C 41.964844 7.089844 41.964844 7.089844 39.566406 7.972656 C 39.058594 8.449219 38.640625 8.984375 38.25 9.5625 C 38.402344 9.738281 38.558594 9.910156 38.71875 10.089844 C 42.664062 14.714844 44.503906 20.007812 44.0625 26.0625 C 43.96875 26.796875 43.84375 27.519531 43.683594 28.242188 C 43.527344 28.953125 43.449219 29.492188 43.6875 30.1875 C 43.933594 30.5625 43.933594 30.5625 44.261719 30.902344 C 44.363281 31.015625 44.46875 31.128906 44.574219 31.246094 C 44.972656 31.679688 44.972656 31.679688 45.363281 31.976562 C 45.980469 32.496094 46.429688 32.914062 46.632812 33.710938 C 46.671875 34.328125 46.667969 34.929688 46.644531 35.546875 C 46.644531 35.769531 46.640625 35.996094 46.640625 36.222656 C 46.632812 36.929688 46.613281 37.636719 46.59375 38.34375 C 46.585938 38.824219 46.578125 39.304688 46.574219 39.789062 C 46.554688 40.960938 46.53125 42.136719 46.5 43.3125 C 46.722656 43.394531 46.722656 43.394531 46.949219 43.476562 C 47.4375 43.6875 47.4375 43.6875 47.777344 44.0625 C 48.101562 44.882812 48.128906 45.628906 48 46.5 C 47.613281 47.273438 47.296875 47.675781 46.5 48 C 45.699219 48.109375 45.011719 48.09375 44.273438 47.753906 C 43.363281 47.03125 43.363281 47.03125 43.125 46.3125 C 43.039062 45.167969 43.242188 44.410156 43.980469 43.523438 C 44.25 43.3125 44.25 43.3125 44.625 43.3125 C 44.640625 41.980469 44.644531 40.648438 44.636719 39.320312 C 44.636719 38.867188 44.640625 38.414062 44.644531 37.964844 C 44.652344 37.3125 44.648438 36.65625 44.644531 36.007812 C 44.648438 35.707031 44.648438 35.707031 44.65625 35.398438 C 44.632812 34.21875 44.441406 33.628906 43.605469 32.777344 C 43.203125 32.417969 42.855469 32.113281 42.375 31.875 C 42.300781 32.113281 42.300781 32.113281 42.226562 32.359375 C 41.4375 34.574219 39.996094 36.351562 38.4375 38.0625 C 38.328125 38.191406 38.214844 38.316406 38.101562 38.445312 C 35.753906 40.976562 32.3125 42.539062 29.0625 43.5 C 29.304688 44 29.304688 44 29.8125 44.4375 C 30.480469 44.585938 31.144531 44.585938 31.828125 44.589844 C 32.011719 44.59375 32.199219 44.597656 32.386719 44.605469 C 32.839844 44.617188 33.296875 44.621094 33.75 44.625 C 33.804688 44.511719 33.855469 44.394531 33.914062 44.277344 C 34.21875 43.703125 34.5 43.457031 35.0625 43.125 C 35.863281 42.992188 36.527344 43.03125 37.277344 43.347656 C 38.378906 44.257812 38.378906 44.257812 38.503906 45.027344 C 38.546875 46.203125 38.273438 46.816406 37.476562 47.683594 C 36.726562 48.125 36.097656 48.128906 35.25 48 C 34.644531 47.722656 34.171875 47.390625 33.75 46.875 C 33.75 46.75 33.75 46.628906 33.75 46.5 C 33.621094 46.507812 33.492188 46.511719 33.359375 46.519531 C 32.769531 46.546875 32.183594 46.566406 31.59375 46.582031 C 31.289062 46.597656 31.289062 46.597656 30.980469 46.617188 C 29.933594 46.636719 29.238281 46.613281 28.421875 45.910156 C 28.085938 45.574219 27.785156 45.234375 27.5 44.859375 C 27.0625 44.320312 26.769531 44.097656 26.082031 43.9375 C 25.40625 43.871094 24.75 43.847656 24.070312 43.851562 C 23.835938 43.851562 23.597656 43.851562 23.355469 43.851562 C 22.09375 43.894531 21.164062 43.980469 20.222656 44.859375 C 19.816406 45.324219 19.46875 45.800781 19.125 46.3125 C 18.636719 46.554688 18.277344 46.519531 17.726562 46.519531 C 17.527344 46.515625 17.324219 46.515625 17.117188 46.515625 C 16.90625 46.515625 16.695312 46.511719 16.476562 46.511719 C 16.15625 46.511719 16.15625 46.511719 15.832031 46.507812 C 15.304688 46.507812 14.777344 46.503906 14.25 46.5 C 14.195312 46.648438 14.144531 46.796875 14.085938 46.949219 C 13.804688 47.597656 13.59375 47.734375 12.9375 48 C 12.136719 48.105469 11.472656 48.09375 10.722656 47.777344 C 9.621094 46.867188 9.621094 46.867188 9.496094 46.097656 C 9.453125 44.921875 9.726562 44.308594 10.523438 43.441406 C 11.273438 43 11.902344 42.996094 12.75 43.125 C 13.355469 43.402344 13.828125 43.734375 14.25 44.25 C 14.25 44.375 14.25 44.496094 14.25 44.625 C 14.890625 44.621094 15.53125 44.605469 16.171875 44.589844 C 16.355469 44.589844 16.535156 44.585938 16.722656 44.585938 C 17.816406 44.574219 17.816406 44.574219 18.6875 43.960938 C 18.769531 43.808594 18.851562 43.65625 18.9375 43.5 C 18.808594 43.460938 18.683594 43.425781 18.550781 43.390625 C 13.285156 41.765625 8.855469 38.398438 6.246094 33.515625 C 5.625 32.335938 5.625 32.335938 5.625 31.875 C 5.386719 32.082031 5.148438 32.289062 4.910156 32.496094 C 4.777344 32.613281 4.644531 32.726562 4.507812 32.847656 C 4.382812 32.957031 4.253906 33.070312 4.125 33.1875 C 4.027344 33.269531 3.925781 33.347656 3.824219 33.429688 C 3.472656 33.859375 3.488281 34.128906 3.484375 34.679688 C 3.480469 34.871094 3.476562 35.058594 3.472656 35.25 C 3.472656 35.457031 3.472656 35.660156 3.472656 35.871094 C 3.472656 36.082031 3.472656 36.289062 3.46875 36.507812 C 3.46875 36.949219 3.46875 37.394531 3.46875 37.835938 C 3.46875 38.515625 3.460938 39.195312 3.453125 39.875 C 3.453125 40.304688 3.453125 40.734375 3.453125 41.167969 C 3.449219 41.371094 3.445312 41.574219 3.441406 41.785156 C 3.421875 42.90625 3.421875 42.90625 4.023438 43.800781 C 4.257812 43.929688 4.257812 43.929688 4.5 44.0625 C 5 44.726562 4.976562 45.511719 4.875 46.3125 C 4.542969 47.085938 4.105469 47.582031 3.375 48 C 2.421875 48.15625 1.710938 48.105469 0.84375 47.671875 C 0.300781 47.183594 0.0429688 46.820312 -0.0546875 46.089844 C -0.0625 44.984375 0.121094 44.386719 0.855469 43.535156 C 1.125 43.3125 1.125 43.3125 1.5 43.3125 C 1.492188 43.191406 1.484375 43.074219 1.480469 42.949219 C 1.40625 41.6875 1.359375 40.425781 1.324219 39.160156 C 1.308594 38.691406 1.289062 38.222656 1.261719 37.753906 C 1.019531 33.617188 1.019531 33.617188 2.226562 32.195312 C 2.785156 31.625 3.375 31.132812 4.003906 30.640625 C 4.640625 30.125 4.640625 30.125 4.765625 29.289062 C 4.613281 28.667969 4.386719 28.144531 4.125 27.5625 C 3.210938 22.277344 4.441406 16.757812 7.5 12.375 C 8.03125 11.664062 8.609375 10.988281 9.1875 10.3125 C 9.375 10.066406 9.566406 9.816406 9.75 9.5625 C 9.074219 8.558594 8.390625 7.65625 7.167969 7.382812 C 5.90625 7.246094 4.640625 7.257812 3.375 7.3125 C 3.523438 8.109375 3.867188 8.316406 4.5 8.8125 C 4.925781 9.378906 4.953125 9.96875 4.933594 10.671875 C 4.796875 11.582031 4.363281 12.195312 3.621094 12.75 C 2.796875 13 2.140625 12.996094 1.3125 12.75 C 0.65625 12.371094 0.246094 11.988281 0 11.25 C -0.105469 10.355469 -0.0859375 9.726562 0.339844 8.917969 C 0.75 8.4375 0.75 8.4375 1.3125 8.0625 C 1.390625 7.535156 1.394531 7.023438 1.40625 6.492188 C 1.5 6 1.5 6 1.796875 5.695312 C 2.691406 5.1875 3.785156 5.324219 4.785156 5.324219 C 5.199219 5.320312 5.609375 5.308594 6.023438 5.296875 C 8.226562 5.257812 8.226562 5.257812 9.136719 6.046875 C 9.347656 6.277344 9.554688 6.511719 9.75 6.75 C 9.90625 6.898438 10.0625 7.050781 10.222656 7.207031 C 10.347656 7.328125 10.46875 7.453125 10.59375 7.582031 C 10.71875 7.710938 10.84375 7.835938 10.972656 7.96875 C 11.066406 8.0625 11.15625 8.15625 11.25 8.25 C 11.371094 8.171875 11.496094 8.089844 11.621094 8.007812 C 12.183594 7.648438 12.75 7.292969 13.3125 6.9375 C 13.570312 6.769531 13.570312 6.769531 13.832031 6.597656 C 15.859375 5.328125 18.128906 4.683594 20.4375 4.125 C 20.5 3.878906 20.5625 3.628906 20.625 3.375 C 19.519531 3.378906 18.417969 3.386719 17.3125 3.402344 C 16.9375 3.410156 16.558594 3.410156 16.183594 3.414062 C 15.644531 3.414062 15.105469 3.421875 14.566406 3.429688 C 14.3125 3.429688 14.3125 3.429688 14.058594 3.425781 C 13.210938 3.449219 12.863281 3.46875 12.1875 4.023438 C 12.066406 4.179688 11.941406 4.339844 11.8125 4.5 C 11.148438 4.964844 10.546875 4.957031 9.75 4.875 C 9 4.601562 8.539062 4.261719 8.0625 3.621094 C 7.8125 2.796875 7.816406 2.140625 8.0625 1.3125 C 8.859375 -0.0234375 9.785156 -0.167969 11.25 0 Z M 11.25 0 "/>
<path style=" stroke:none;fill-rule:nonzero;fill:rgb(12.941177%,11.764706%,11.764706%);fill-opacity:1;" d="M 11.25 0 C 11.972656 0.375 12.300781 0.636719 12.75 1.3125 C 13.152344 1.398438 13.152344 1.398438 13.628906 1.382812 C 13.898438 1.386719 13.898438 1.386719 14.179688 1.390625 C 14.375 1.390625 14.574219 1.390625 14.777344 1.390625 C 15.082031 1.390625 15.082031 1.390625 15.386719 1.394531 C 16.035156 1.402344 16.683594 1.40625 17.332031 1.40625 C 18.183594 1.40625 19.035156 1.414062 19.886719 1.421875 C 20.179688 1.421875 20.179688 1.421875 20.484375 1.421875 C 20.664062 1.421875 20.847656 1.425781 21.035156 1.429688 C 21.195312 1.429688 21.359375 1.429688 21.523438 1.429688 C 22.03125 1.515625 22.195312 1.65625 22.5 2.0625 C 22.574219 2.695312 22.523438 3.296875 22.5 3.9375 C 23.488281 3.9375 24.480469 3.9375 25.5 3.9375 C 25.488281 3.640625 25.476562 3.339844 25.464844 3.035156 C 25.429688 2.15625 25.429688 2.15625 25.730469 1.757812 C 26.164062 1.421875 26.410156 1.433594 26.953125 1.4375 C 27.136719 1.4375 27.316406 1.4375 27.503906 1.4375 C 27.699219 1.4375 27.890625 1.441406 28.09375 1.445312 C 28.507812 1.441406 28.921875 1.441406 29.332031 1.4375 C 29.984375 1.441406 30.632812 1.441406 31.285156 1.449219 C 31.914062 1.453125 32.539062 1.449219 33.167969 1.445312 C 33.363281 1.449219 33.558594 1.453125 33.757812 1.453125 C 34.730469 1.46875 34.730469 1.46875 35.574219 1.058594 C 35.859375 0.722656 35.859375 0.722656 36.1875 0.1875 C 36.882812 -0.160156 37.679688 -0.0820312 38.4375 0 C 39.140625 0.332031 39.472656 0.625 39.925781 1.253906 C 40.191406 2.078125 40.164062 2.730469 39.9375 3.5625 C 39.539062 4.207031 39.167969 4.652344 38.4375 4.875 C 37.230469 4.992188 36.617188 4.820312 35.625 4.125 C 35.4375 3.847656 35.4375 3.847656 35.25 3.5625 C 34.894531 3.472656 34.894531 3.472656 34.484375 3.480469 C 34.328125 3.476562 34.171875 3.472656 34.007812 3.46875 C 33.75 3.46875 33.75 3.46875 33.492188 3.46875 C 33.316406 3.464844 33.140625 3.460938 32.960938 3.457031 C 32.40625 3.445312 31.847656 3.441406 31.289062 3.433594 C 30.910156 3.425781 30.535156 3.421875 30.15625 3.414062 C 29.230469 3.398438 28.300781 3.386719 27.375 3.375 C 27.4375 3.621094 27.5 3.871094 27.5625 4.125 C 27.738281 4.167969 27.910156 4.210938 28.089844 4.257812 C 31.332031 5.085938 33.988281 6.390625 36.75 8.25 C 36.828125 8.171875 36.90625 8.09375 36.984375 8.011719 C 37.335938 7.65625 37.6875 7.304688 38.039062 6.949219 C 38.222656 6.761719 38.222656 6.761719 38.410156 6.574219 C 38.527344 6.457031 38.644531 6.339844 38.765625 6.21875 C 38.871094 6.109375 38.980469 6 39.09375 5.886719 C 39.921875 5.121094 41.234375 5.394531 42.300781 5.390625 C 42.722656 5.390625 43.144531 5.386719 43.570312 5.378906 C 43.839844 5.378906 44.109375 5.378906 44.378906 5.375 C 44.625 5.375 44.867188 5.371094 45.121094 5.371094 C 45.777344 5.441406 46.046875 5.527344 46.5 6 C 46.574219 6.472656 46.574219 6.472656 46.570312 7.007812 C 46.59375 7.757812 46.59375 7.757812 46.941406 8.390625 C 47.28125 8.671875 47.28125 8.671875 47.8125 9 C 48.160156 9.695312 48.082031 10.492188 48 11.25 C 47.667969 11.953125 47.375 12.285156 46.746094 12.738281 C 45.921875 13.003906 45.269531 12.976562 44.4375 12.75 C 43.792969 12.351562 43.347656 11.980469 43.125 11.25 C 43.007812 10.042969 43.179688 9.429688 43.875 8.4375 C 44.0625 8.3125 44.246094 8.191406 44.4375 8.0625 C 44.574219 7.675781 44.574219 7.675781 44.625 7.3125 C 41.964844 7.089844 41.964844 7.089844 39.566406 7.972656 C 39.058594 8.449219 38.640625 8.984375 38.25 9.5625 C 38.402344 9.738281 38.558594 9.910156 38.71875 10.089844 C 42.664062 14.714844 44.503906 20.007812 44.0625 26.0625 C 43.96875 26.796875 43.84375 27.519531 43.683594 28.242188 C 43.527344 28.953125 43.449219 29.492188 43.6875 30.1875 C 43.933594 30.5625 43.933594 30.5625 44.261719 30.902344 C 44.363281 31.015625 44.46875 31.128906 44.574219 31.246094 C 44.972656 31.679688 44.972656 31.679688 45.363281 31.976562 C 45.980469 32.496094 46.429688 32.914062 46.632812 33.710938 C 46.671875 34.328125 46.667969 34.929688 46.644531 35.546875 C 46.644531 35.769531 46.640625 35.996094 46.640625 36.222656 C 46.632812 36.929688 46.613281 37.636719 46.59375 38.34375 C 46.585938 38.824219 46.578125 39.304688 46.574219 39.789062 C 46.554688 40.960938 46.53125 42.136719 46.5 43.3125 C 46.722656 43.394531 46.722656 43.394531 46.949219 43.476562 C 47.4375 43.6875 47.4375 43.6875 47.777344 44.0625 C 48.101562 44.882812 48.128906 45.628906 48 46.5 C 47.613281 47.273438 47.296875 47.675781 46.5 48 C 45.699219 48.109375 45.011719 48.09375 44.273438 47.753906 C 43.363281 47.03125 43.363281 47.03125 43.125 46.3125 C 43.039062 45.167969 43.242188 44.410156 43.980469 43.523438 C 44.25 43.3125 44.25 43.3125 44.625 43.3125 C 44.640625 41.980469 44.644531 40.648438 44.636719 39.320312 C 44.636719 38.867188 44.640625 38.414062 44.644531 37.964844 C 44.652344 37.3125 44.648438 36.65625 44.644531 36.007812 C 44.648438 35.707031 44.648438 35.707031 44.65625 35.398438 C 44.632812 34.21875 44.441406 33.628906 43.605469 32.777344 C 43.203125 32.417969 42.855469 32.113281 42.375 31.875 C 42.300781 32.113281 42.300781 32.113281 42.226562 32.359375 C 41.4375 34.574219 39.996094 36.351562 38.4375 38.0625 C 38.328125 38.191406 38.214844 38.316406 38.101562 38.445312 C 35.753906 40.976562 32.3125 42.539062 29.0625 43.5 C 29.304688 44 29.304688 44 29.8125 44.4375 C 30.480469 44.585938 31.144531 44.585938 31.828125 44.589844 C 32.011719 44.59375 32.199219 44.597656 32.386719 44.605469 C 32.839844 44.617188 33.296875 44.621094 33.75 44.625 C 33.804688 44.511719 33.855469 44.394531 33.914062 44.277344 C 34.21875 43.703125 34.5 43.457031 35.0625 43.125 C 35.863281 42.992188 36.527344 43.03125 37.277344 43.347656 C 38.378906 44.257812 38.378906 44.257812 38.503906 45.027344 C 38.546875 46.203125 38.273438 46.816406 37.476562 47.683594 C 36.726562 48.125 36.097656 48.128906 35.25 48 C 34.644531 47.722656 34.171875 47.390625 33.75 46.875 C 33.75 46.75 33.75 46.628906 33.75 46.5 C 33.621094 46.507812 33.492188 46.511719 33.359375 46.519531 C 32.769531 46.546875 32.183594 46.566406 31.59375 46.582031 C 31.289062 46.597656 31.289062 46.597656 30.980469 46.617188 C 29.933594 46.636719 29.238281 46.613281 28.421875 45.910156 C 28.085938 45.574219 27.785156 45.234375 27.5 44.859375 C 27.0625 44.320312 26.769531 44.097656 26.082031 43.9375 C 25.40625 43.871094 24.75 43.847656 24.070312 43.851562 C 23.835938 43.851562 23.597656 43.851562 23.355469 43.851562 C 22.09375 43.894531 21.164062 43.980469 20.222656 44.859375 C 19.816406 45.324219 19.46875 45.800781 19.125 46.3125 C 18.636719 46.554688 18.277344 46.519531 17.726562 46.519531 C 17.527344 46.515625 17.324219 46.515625 17.117188 46.515625 C 16.90625 46.515625 16.695312 46.511719 16.476562 46.511719 C 16.15625 46.511719 16.15625 46.511719 15.832031 46.507812 C 15.304688 46.507812 14.777344 46.503906 14.25 46.5 C 14.195312 46.648438 14.144531 46.796875 14.085938 46.949219 C 13.804688 47.597656 13.59375 47.734375 12.9375 48 C 12.136719 48.105469 11.472656 48.09375 10.722656 47.777344 C 9.621094 46.867188 9.621094 46.867188 9.496094 46.097656 C 9.453125 44.921875 9.726562 44.308594 10.523438 43.441406 C 11.273438 43 11.902344 42.996094 12.75 43.125 C 13.355469 43.402344 13.828125 43.734375 14.25 44.25 C 14.25 44.375 14.25 44.496094 14.25 44.625 C 14.890625 44.621094 15.53125 44.605469 16.171875 44.589844 C 16.355469 44.589844 16.535156 44.585938 16.722656 44.585938 C 17.816406 44.574219 17.816406 44.574219 18.6875 43.960938 C 18.769531 43.808594 18.851562 43.65625 18.9375 43.5 C 18.808594 43.460938 18.683594 43.425781 18.550781 43.390625 C 13.285156 41.765625 8.855469 38.398438 6.246094 33.515625 C 5.625 32.335938 5.625 32.335938 5.625 31.875 C 5.386719 32.082031 5.148438 32.289062 4.910156 32.496094 C 4.777344 32.613281 4.644531 32.726562 4.507812 32.847656 C 4.382812 32.957031 4.253906 33.070312 4.125 33.1875 C 4.027344 33.269531 3.925781 33.347656 3.824219 33.429688 C 3.472656 33.859375 3.488281 34.128906 3.484375 34.679688 C 3.480469 34.871094 3.476562 35.058594 3.472656 35.25 C 3.472656 35.457031 3.472656 35.660156 3.472656 35.871094 C 3.472656 36.082031 3.472656 36.289062 3.46875 36.507812 C 3.46875 36.949219 3.46875 37.394531 3.46875 37.835938 C 3.46875 38.515625 3.460938 39.195312 3.453125 39.875 C 3.453125 40.304688 3.453125 40.734375 3.453125 41.167969 C 3.449219 41.371094 3.445312 41.574219 3.441406 41.785156 C 3.421875 42.90625 3.421875 42.90625 4.023438 43.800781 C 4.257812 43.929688 4.257812 43.929688 4.5 44.0625 C 5 44.726562 4.976562 45.511719 4.875 46.3125 C 4.542969 47.085938 4.105469 47.582031 3.375 48 C 2.421875 48.15625 1.710938 48.105469 0.84375 47.671875 C 0.300781 47.183594 0.0429688 46.820312 -0.0546875 46.089844 C -0.0625 44.984375 0.121094 44.386719 0.855469 43.535156 C 1.125 43.3125 1.125 43.3125 1.5 43.3125 C 1.492188 43.191406 1.484375 43.074219 1.480469 42.949219 C 1.40625 41.6875 1.359375 40.425781 1.324219 39.160156 C 1.308594 38.691406 1.289062 38.222656 1.261719 37.753906 C 1.019531 33.617188 1.019531 33.617188 2.226562 32.195312 C 2.785156 31.625 3.375 31.132812 4.003906 30.640625 C 4.640625 30.125 4.640625 30.125 4.765625 29.289062 C 4.613281 28.667969 4.386719 28.144531 4.125 27.5625 C 3.210938 22.277344 4.441406 16.757812 7.5 12.375 C 8.03125 11.664062 8.609375 10.988281 9.1875 10.3125 C 9.375 10.066406 9.566406 9.816406 9.75 9.5625 C 9.074219 8.558594 8.390625 7.65625 7.167969 7.382812 C 5.90625 7.246094 4.640625 7.257812 3.375 7.3125 C 3.523438 8.109375 3.867188 8.316406 4.5 8.8125 C 4.925781 9.378906 4.953125 9.96875 4.933594 10.671875 C 4.796875 11.582031 4.363281 12.195312 3.621094 12.75 C 2.796875 13 2.140625 12.996094 1.3125 12.75 C 0.65625 12.371094 0.246094 11.988281 0 11.25 C -0.105469 10.355469 -0.0859375 9.726562 0.339844 8.917969 C 0.75 8.4375 0.75 8.4375 1.3125 8.0625 C 1.390625 7.535156 1.394531 7.023438 1.40625 6.492188 C 1.5 6 1.5 6 1.796875 5.695312 C 2.691406 5.1875 3.785156 5.324219 4.785156 5.324219 C 5.199219 5.320312 5.609375 5.308594 6.023438 5.296875 C 8.226562 5.257812 8.226562 5.257812 9.136719 6.046875 C 9.347656 6.277344 9.554688 6.511719 9.75 6.75 C 9.90625 6.898438 10.0625 7.050781 10.222656 7.207031 C 10.347656 7.328125 10.46875 7.453125 10.59375 7.582031 C 10.71875 7.710938 10.84375 7.835938 10.972656 7.96875 C 11.066406 8.0625 11.15625 8.15625 11.25 8.25 C 11.371094 8.171875 11.496094 8.089844 11.621094 8.007812 C 12.183594 7.648438 12.75 7.292969 13.3125 6.9375 C 13.570312 6.769531 13.570312 6.769531 13.832031 6.597656 C 15.859375 5.328125 18.128906 4.683594 20.4375 4.125 C 20.5 3.878906 20.5625 3.628906 20.625 3.375 C 19.519531 3.378906 18.417969 3.386719 17.3125 3.402344 C 16.9375 3.410156 16.558594 3.410156 16.183594 3.414062 C 15.644531 3.414062 15.105469 3.421875 14.566406 3.429688 C 14.3125 3.429688 14.3125 3.429688 14.058594 3.425781 C 13.210938 3.449219 12.863281 3.46875 12.1875 4.023438 C 12.066406 4.179688 11.941406 4.339844 11.8125 4.5 C 11.148438 4.964844 10.546875 4.957031 9.75 4.875 C 9 4.601562 8.539062 4.261719 8.0625 3.621094 C 7.8125 2.796875 7.816406 2.140625 8.0625 1.3125 C 8.859375 -0.0234375 9.785156 -0.167969 11.25 0 Z M 10.875 11.0625 C 10.734375 11.203125 10.589844 11.34375 10.445312 11.484375 C 7.132812 14.941406 5.488281 19.664062 5.535156 24.402344 C 5.710938 29.539062 7.941406 34.171875 11.660156 37.710938 C 15.648438 41.210938 20.617188 42.710938 25.875 42.375 C 30.925781 41.789062 35.445312 39.214844 38.625 35.25 C 40.535156 32.683594 41.550781 29.921875 42.1875 26.8125 C 42.222656 26.664062 42.261719 26.515625 42.296875 26.363281 C 43.03125 21.742188 41.660156 17.148438 39.058594 13.347656 C 38.410156 12.457031 37.714844 11.652344 36.9375 10.875 C 36.792969 10.730469 36.648438 10.585938 36.5 10.4375 C 32.765625 6.894531 27.894531 5.476562 22.851562 5.566406 C 18.3125 5.746094 14.0625 7.882812 10.875 11.0625 Z M 10.875 11.0625 "/>
<path style=" stroke:none;fill-rule:nonzero;fill:rgb(82.745099%,0%,14.509805%);fill-opacity:1;" d="M 28.3125 13.3125 C 29.703125 14.394531 30.871094 15.972656 31.101562 17.753906 C 31.109375 17.957031 31.117188 18.164062 31.125 18.375 C 31.292969 18.390625 31.457031 18.40625 31.628906 18.421875 C 32.570312 18.636719 33.035156 19.082031 33.5625 19.875 C 33.601562 20.339844 33.617188 20.78125 33.617188 21.246094 C 33.617188 21.386719 33.617188 21.523438 33.621094 21.667969 C 33.625 22.128906 33.625 22.589844 33.625 23.050781 C 33.625 23.367188 33.628906 23.6875 33.628906 24.007812 C 33.632812 24.679688 33.632812 25.351562 33.632812 26.023438 C 33.632812 26.882812 33.636719 27.742188 33.644531 28.601562 C 33.648438 29.261719 33.648438 29.925781 33.648438 30.585938 C 33.648438 30.902344 33.652344 31.21875 33.652344 31.539062 C 33.65625 31.980469 33.65625 32.425781 33.65625 32.867188 C 33.65625 33 33.65625 33.128906 33.660156 33.261719 C 33.648438 34.195312 33.410156 34.726562 32.8125 35.4375 C 32.042969 36.074219 31.300781 36.082031 30.339844 36.074219 C 30.1875 36.078125 30.039062 36.078125 29.878906 36.078125 C 29.378906 36.082031 28.878906 36.082031 28.378906 36.082031 C 28.03125 36.082031 27.679688 36.082031 27.328125 36.085938 C 26.597656 36.085938 25.867188 36.085938 25.136719 36.085938 C 24.199219 36.082031 23.265625 36.085938 22.328125 36.089844 C 21.609375 36.09375 20.886719 36.09375 20.167969 36.09375 C 19.824219 36.09375 19.476562 36.09375 19.132812 36.09375 C 18.648438 36.097656 18.167969 36.097656 17.683594 36.09375 C 17.542969 36.09375 17.398438 36.097656 17.253906 36.097656 C 16.289062 36.085938 15.734375 35.875 15 35.25 C 14.398438 34.507812 14.355469 33.824219 14.359375 32.898438 C 14.355469 32.761719 14.355469 32.621094 14.351562 32.476562 C 14.347656 32.019531 14.347656 31.558594 14.347656 31.101562 C 14.347656 30.78125 14.347656 30.464844 14.34375 30.140625 C 14.34375 29.472656 14.34375 28.804688 14.34375 28.132812 C 14.34375 27.28125 14.339844 26.421875 14.332031 25.566406 C 14.328125 24.90625 14.328125 24.246094 14.328125 23.585938 C 14.328125 23.269531 14.324219 22.957031 14.320312 22.640625 C 14.316406 22.195312 14.320312 21.753906 14.320312 21.3125 C 14.320312 21.183594 14.316406 21.054688 14.3125 20.921875 C 14.332031 19.878906 14.671875 19.457031 15.375 18.75 C 15.953125 18.367188 16.144531 18.375 16.875 18.375 C 16.882812 18.171875 16.890625 17.964844 16.898438 17.753906 C 17.105469 16.152344 18.089844 14.734375 19.246094 13.648438 C 22.046875 11.515625 25.371094 11.476562 28.3125 13.3125 Z M 28.3125 13.3125 "/>
<path style=" stroke:none;fill-rule:nonzero;fill:rgb(46.666667%,71.372551%,90.980393%);fill-opacity:1;" d="M 33.574219 12.140625 C 36.421875 14.496094 38.546875 17.898438 39.140625 21.589844 C 39.527344 25.988281 38.660156 30.082031 35.8125 33.5625 C 35.621094 33.800781 35.621094 33.800781 35.425781 34.046875 C 32.933594 37.015625 29.347656 38.632812 25.558594 39.140625 C 25.289062 39.160156 25.019531 39.175781 24.75 39.1875 C 24.488281 39.203125 24.488281 39.203125 24.21875 39.222656 C 20.21875 39.375 16.5625 37.695312 13.570312 35.132812 C 10.699219 32.425781 8.953125 28.699219 8.769531 24.738281 C 8.660156 20.433594 10.109375 16.539062 13.0625 13.363281 C 18.617188 7.628906 27.375 7.402344 33.574219 12.140625 Z M 18.292969 14.628906 C 17.394531 15.761719 16.953125 16.941406 16.875 18.375 C 16.707031 18.390625 16.542969 18.40625 16.371094 18.421875 C 15.429688 18.636719 14.964844 19.082031 14.4375 19.875 C 14.398438 20.339844 14.382812 20.78125 14.382812 21.246094 C 14.382812 21.386719 14.378906 21.523438 14.378906 21.667969 C 14.375 22.128906 14.375 22.589844 14.375 23.050781 C 14.375 23.367188 14.371094 23.6875 14.371094 24.007812 C 14.367188 24.679688 14.367188 25.351562 14.367188 26.023438 C 14.367188 26.882812 14.363281 27.742188 14.355469 28.601562 C 14.351562 29.261719 14.351562 29.925781 14.351562 30.585938 C 14.351562 30.902344 14.351562 31.21875 14.347656 31.539062 C 14.34375 31.980469 14.34375 32.425781 14.347656 32.867188 C 14.34375 33 14.34375 33.128906 14.339844 33.261719 C 14.351562 34.195312 14.589844 34.726562 15.1875 35.4375 C 15.957031 36.074219 16.699219 36.082031 17.660156 36.074219 C 17.8125 36.078125 17.964844 36.078125 18.121094 36.078125 C 18.621094 36.082031 19.121094 36.082031 19.621094 36.082031 C 19.972656 36.082031 20.320312 36.082031 20.671875 36.085938 C 21.398438 36.085938 22.132812 36.085938 22.863281 36.085938 C 23.800781 36.082031 24.734375 36.085938 25.671875 36.089844 C 26.390625 36.09375 27.113281 36.09375 27.832031 36.09375 C 28.179688 36.09375 28.523438 36.09375 28.867188 36.09375 C 29.351562 36.097656 29.832031 36.097656 30.316406 36.09375 C 30.457031 36.09375 30.601562 36.097656 30.746094 36.097656 C 31.710938 36.085938 32.265625 35.875 33 35.25 C 33.601562 34.507812 33.644531 33.824219 33.640625 32.898438 C 33.644531 32.761719 33.644531 32.621094 33.644531 32.476562 C 33.652344 32.019531 33.652344 31.558594 33.652344 31.101562 C 33.652344 30.78125 33.652344 30.464844 33.65625 30.140625 C 33.65625 29.472656 33.65625 28.804688 33.65625 28.132812 C 33.65625 27.28125 33.660156 26.421875 33.667969 25.566406 C 33.671875 24.90625 33.671875 24.246094 33.671875 23.585938 C 33.671875 23.269531 33.675781 22.957031 33.679688 22.640625 C 33.683594 22.195312 33.679688 21.753906 33.675781 21.3125 C 33.679688 21.183594 33.683594 21.054688 33.683594 20.921875 C 33.667969 19.878906 33.332031 19.457031 32.625 18.75 C 32.046875 18.367188 31.855469 18.375 31.125 18.375 C 31.117188 18.171875 31.109375 17.964844 31.101562 17.753906 C 30.894531 16.152344 29.914062 14.730469 28.75 13.648438 C 25.347656 11.050781 21.179688 11.585938 18.292969 14.628906 Z M 18.292969 14.628906 "/>
<path style=" stroke:none;fill-rule:nonzero;fill:rgb(13.333334%,11.764706%,12.156863%);fill-opacity:1;" d="M 28.3125 13.3125 C 29.703125 14.394531 30.871094 15.972656 31.101562 17.753906 C 31.109375 17.957031 31.117188 18.164062 31.125 18.375 C 31.292969 18.390625 31.457031 18.40625 31.628906 18.421875 C 32.570312 18.636719 33.035156 19.082031 33.5625 19.875 C 33.601562 20.339844 33.617188 20.78125 33.617188 21.246094 C 33.617188 21.386719 33.617188 21.523438 33.621094 21.667969 C 33.625 22.128906 33.625 22.589844 33.625 23.050781 C 33.625 23.367188 33.628906 23.6875 33.628906 24.007812 C 33.632812 24.679688 33.632812 25.351562 33.632812 26.023438 C 33.632812 26.882812 33.636719 27.742188 33.644531 28.601562 C 33.648438 29.261719 33.648438 29.925781 33.648438 30.585938 C 33.648438 30.902344 33.652344 31.21875 33.652344 31.539062 C 33.65625 31.980469 33.65625 32.425781 33.65625 32.867188 C 33.65625 33 33.65625 33.128906 33.660156 33.261719 C 33.648438 34.195312 33.410156 34.726562 32.8125 35.4375 C 32.042969 36.074219 31.300781 36.082031 30.339844 36.074219 C 30.1875 36.078125 30.039062 36.078125 29.878906 36.078125 C 29.378906 36.082031 28.878906 36.082031 28.378906 36.082031 C 28.03125 36.082031 27.679688 36.082031 27.328125 36.085938 C 26.597656 36.085938 25.867188 36.085938 25.136719 36.085938 C 24.199219 36.082031 23.265625 36.085938 22.328125 36.089844 C 21.609375 36.09375 20.886719 36.09375 20.167969 36.09375 C 19.824219 36.09375 19.476562 36.09375 19.132812 36.09375 C 18.648438 36.097656 18.167969 36.097656 17.683594 36.09375 C 17.542969 36.09375 17.398438 36.097656 17.253906 36.097656 C 16.289062 36.085938 15.734375 35.875 15 35.25 C 14.398438 34.507812 14.355469 33.824219 14.359375 32.898438 C 14.355469 32.761719 14.355469 32.621094 14.351562 32.476562 C 14.347656 32.019531 14.347656 31.558594 14.347656 31.101562 C 14.347656 30.78125 14.347656 30.464844 14.34375 30.140625 C 14.34375 29.472656 14.34375 28.804688 14.34375 28.132812 C 14.34375 27.28125 14.339844 26.421875 14.332031 25.566406 C 14.328125 24.90625 14.328125 24.246094 14.328125 23.585938 C 14.328125 23.269531 14.324219 22.957031 14.320312 22.640625 C 14.316406 22.195312 14.320312 21.753906 14.320312 21.3125 C 14.320312 21.183594 14.316406 21.054688 14.3125 20.921875 C 14.332031 19.878906 14.671875 19.457031 15.375 18.75 C 15.953125 18.367188 16.144531 18.375 16.875 18.375 C 16.882812 18.171875 16.890625 17.964844 16.898438 17.753906 C 17.105469 16.152344 18.089844 14.734375 19.246094 13.648438 C 22.046875 11.515625 25.371094 11.476562 28.3125 13.3125 Z M 16.3125 20.0625 C 15.855469 20.746094 15.890625 21.070312 15.890625 21.886719 C 15.890625 22.011719 15.886719 22.140625 15.886719 22.269531 C 15.886719 22.691406 15.886719 23.109375 15.886719 23.53125 C 15.886719 23.824219 15.886719 24.117188 15.886719 24.40625 C 15.886719 25.019531 15.886719 25.632812 15.890625 26.246094 C 15.890625 27.03125 15.890625 27.8125 15.886719 28.597656 C 15.886719 29.203125 15.886719 29.804688 15.886719 30.410156 C 15.886719 30.699219 15.886719 30.988281 15.886719 31.277344 C 15.886719 31.683594 15.886719 32.085938 15.890625 32.488281 C 15.890625 32.71875 15.890625 32.953125 15.890625 33.1875 C 15.894531 33.785156 15.894531 33.785156 16.3125 34.3125 C 16.808594 34.367188 17.261719 34.390625 17.761719 34.386719 C 17.910156 34.386719 18.058594 34.386719 18.214844 34.386719 C 18.707031 34.390625 19.203125 34.390625 19.699219 34.386719 C 20.042969 34.386719 20.386719 34.386719 20.726562 34.390625 C 21.449219 34.390625 22.171875 34.390625 22.890625 34.386719 C 23.8125 34.382812 24.738281 34.382812 25.660156 34.386719 C 26.371094 34.390625 27.082031 34.390625 27.789062 34.386719 C 28.128906 34.386719 28.472656 34.386719 28.8125 34.390625 C 29.289062 34.390625 29.765625 34.386719 30.238281 34.386719 C 30.453125 34.386719 30.453125 34.386719 30.667969 34.390625 C 31.101562 34.390625 31.101562 34.390625 31.6875 34.3125 C 32.144531 33.628906 32.109375 33.304688 32.109375 32.488281 C 32.109375 32.363281 32.113281 32.234375 32.113281 32.105469 C 32.113281 31.683594 32.113281 31.265625 32.113281 30.84375 C 32.113281 30.550781 32.113281 30.257812 32.113281 29.96875 C 32.113281 29.355469 32.113281 28.742188 32.109375 28.128906 C 32.109375 27.34375 32.109375 26.5625 32.113281 25.777344 C 32.113281 25.171875 32.113281 24.570312 32.113281 23.964844 C 32.113281 23.675781 32.113281 23.386719 32.113281 23.097656 C 32.113281 22.691406 32.113281 22.289062 32.109375 21.886719 C 32.109375 21.65625 32.109375 21.421875 32.109375 21.1875 C 32.105469 20.589844 32.105469 20.589844 31.6875 20.0625 C 31.191406 20.007812 30.738281 19.984375 30.238281 19.988281 C 30.089844 19.988281 29.941406 19.988281 29.785156 19.988281 C 29.292969 19.984375 28.796875 19.984375 28.300781 19.988281 C 27.957031 19.988281 27.613281 19.988281 27.273438 19.984375 C 26.550781 19.984375 25.828125 19.984375 25.109375 19.988281 C 24.1875 19.992188 23.261719 19.992188 22.339844 19.988281 C 21.628906 19.984375 20.917969 19.984375 20.210938 19.988281 C 19.871094 19.988281 19.527344 19.988281 19.1875 19.984375 C 18.710938 19.984375 18.234375 19.988281 17.761719 19.988281 C 17.621094 19.988281 17.476562 19.988281 17.332031 19.984375 C 16.898438 19.984375 16.898438 19.984375 16.3125 20.0625 Z M 16.3125 20.0625 "/>
<path style=" stroke:none;fill-rule:nonzero;fill:rgb(12.941177%,12.941177%,12.941177%);fill-opacity:1;" d="M 33.4375 9.960938 C 37.421875 12.820312 39.957031 16.859375 40.773438 21.703125 C 40.828125 22.15625 40.855469 22.605469 40.875 23.0625 C 40.886719 23.222656 40.898438 23.382812 40.910156 23.546875 C 41.09375 27.742188 39.417969 31.964844 36.679688 35.097656 C 33.570312 38.410156 29.683594 40.550781 25.09375 40.746094 C 20.085938 40.875 15.957031 39.492188 12.25 36.050781 C 9.347656 33.234375 7.382812 29.375 7.230469 25.296875 C 7.226562 24.839844 7.226562 24.386719 7.230469 23.929688 C 7.230469 23.570312 7.230469 23.570312 7.234375 23.203125 C 7.269531 21.476562 7.40625 19.988281 8.0625 18.375 C 8.140625 18.183594 8.140625 18.183594 8.21875 17.988281 C 10.066406 13.5 13.308594 10.257812 17.726562 8.300781 C 18.914062 7.863281 20.136719 7.578125 21.375 7.3125 C 21.527344 7.277344 21.679688 7.242188 21.839844 7.203125 C 25.851562 6.539062 30.0625 7.804688 33.4375 9.960938 Z M 12.5625 13.875 C 11.003906 15.6875 9.796875 17.933594 9.1875 20.25 C 9.148438 20.382812 9.109375 20.515625 9.070312 20.652344 C 8.15625 24.355469 8.992188 28.449219 10.839844 31.730469 C 13.351562 35.664062 16.871094 37.972656 21.375 39 C 21.535156 39.039062 21.695312 39.074219 21.855469 39.109375 C 25.535156 39.726562 29.65625 38.625 32.6875 36.511719 C 36.109375 34.027344 38.285156 30.578125 39.09375 26.410156 C 39.636719 22.261719 38.703125 18.207031 36.1875 14.8125 C 33.535156 11.5625 29.917969 9.292969 25.6875 8.8125 C 20.628906 8.46875 16.078125 10.15625 12.5625 13.875 Z M 12.5625 13.875 "/>
<path style=" stroke:none;fill-rule:nonzero;fill:rgb(14.509805%,12.156863%,11.764706%);fill-opacity:1;" d="M 25.734375 21.09375 C 26.714844 21.65625 27.578125 22.546875 27.9375 23.625 C 28.066406 25.027344 28.03125 26.207031 27.1875 27.375 C 27.09375 27.449219 26.996094 27.523438 26.898438 27.601562 C 26.496094 28.097656 26.550781 28.496094 26.542969 29.128906 C 26.535156 29.359375 26.53125 29.59375 26.527344 29.835938 C 26.523438 30.199219 26.523438 30.199219 26.519531 30.574219 C 26.511719 31.058594 26.503906 31.539062 26.496094 32.023438 C 26.492188 32.238281 26.488281 32.449219 26.488281 32.671875 C 26.4375 33.1875 26.4375 33.1875 26.0625 33.5625 C 25.648438 33.609375 25.648438 33.609375 25.136719 33.613281 C 24.953125 33.613281 24.769531 33.613281 24.582031 33.613281 C 24.390625 33.613281 24.195312 33.609375 24 33.609375 C 23.808594 33.609375 23.617188 33.613281 23.417969 33.613281 C 23.144531 33.613281 23.144531 33.613281 22.863281 33.613281 C 22.695312 33.609375 22.527344 33.609375 22.351562 33.609375 C 21.9375 33.5625 21.9375 33.5625 21.5625 33.1875 C 21.519531 32.6875 21.519531 32.6875 21.523438 32.054688 C 21.523438 31.828125 21.519531 31.597656 21.515625 31.359375 C 21.515625 30.878906 21.515625 30.398438 21.523438 29.917969 C 21.503906 28.585938 21.4375 27.722656 20.507812 26.726562 C 19.886719 26.035156 19.988281 25.089844 20 24.214844 C 20.117188 23.082031 20.550781 22.328125 21.40625 21.582031 C 22.765625 20.65625 24.199219 20.4375 25.734375 21.09375 Z M 25.734375 21.09375 "/>
<path style=" stroke:none;fill-rule:nonzero;fill:rgb(46.666667%,71.372551%,91.37255%);fill-opacity:1;" d="M 27 14.4375 C 28.203125 15.261719 28.957031 16.242188 29.4375 17.625 C 29.4375 17.871094 29.4375 18.121094 29.4375 18.375 C 25.847656 18.375 22.261719 18.375 18.5625 18.375 C 18.804688 16.675781 19.488281 15.539062 20.847656 14.480469 C 22.648438 13.273438 25.175781 13.253906 27 14.4375 Z M 27 14.4375 "/>
<path style=" stroke:none;fill-rule:nonzero;fill:rgb(98.823529%,83.92157%,25.490198%);fill-opacity:1;" d="M 24.9375 22.5 C 25.535156 22.808594 25.914062 23.25 26.332031 23.777344 C 26.503906 24.449219 26.484375 25.039062 26.25 25.6875 C 25.949219 26.007812 25.949219 26.007812 25.59375 26.335938 C 24.6875 27.328125 24.75 28.335938 24.761719 29.625 C 24.757812 29.84375 24.753906 30.058594 24.75 30.28125 C 24.746094 30.8125 24.746094 31.34375 24.75 31.875 C 24.253906 31.875 23.761719 31.875 23.25 31.875 C 23.25 31.738281 23.25 31.605469 23.253906 31.46875 C 23.253906 30.851562 23.246094 30.238281 23.238281 29.625 C 23.242188 29.414062 23.242188 29.203125 23.246094 28.984375 C 23.222656 27.878906 23.167969 27.171875 22.410156 26.335938 C 22.292969 26.226562 22.171875 26.117188 22.050781 26.007812 C 21.703125 25.640625 21.613281 25.40625 21.527344 24.914062 C 21.566406 24.050781 21.753906 23.710938 22.3125 23.0625 C 23.125 22.339844 23.890625 22.320312 24.9375 22.5 Z M 24.9375 22.5 "/>
<path style=" stroke:none;fill-rule:nonzero;fill:rgb(94.509804%,56.078434%,5.882353%);fill-opacity:1;" d="M 2.0625 9.5625 C 2.554688 9.632812 2.554688 9.632812 3 9.75 C 3.210938 10.640625 3.210938 10.640625 3 11.0625 C 2.625 11.070312 2.25 11.070312 1.875 11.0625 C 1.6875 10.875 1.6875 10.875 1.652344 10.417969 C 1.6875 9.9375 1.6875 9.9375 2.0625 9.5625 Z M 2.0625 9.5625 "/>
<path style=" stroke:none;fill-rule:nonzero;fill:rgb(95.294118%,56.470591%,5.882353%);fill-opacity:1;" d="M 45.773438 9.609375 C 46.125 9.75 46.125 9.75 46.3125 9.9375 C 46.335938 10.40625 46.335938 10.40625 46.3125 10.875 C 46.125 11.0625 46.125 11.0625 45.550781 11.074219 C 45.367188 11.070312 45.1875 11.066406 45 11.0625 C 44.871094 10.628906 44.871094 10.628906 44.8125 10.125 C 45.105469 9.664062 45.222656 9.546875 45.773438 9.609375 Z M 45.773438 9.609375 "/>
<path style=" stroke:none;fill-rule:nonzero;fill:rgb(94.901961%,56.470591%,5.882353%);fill-opacity:1;" d="M 37.582031 1.652344 C 38.0625 1.6875 38.0625 1.6875 38.4375 2.0625 C 38.367188 2.554688 38.367188 2.554688 38.25 3 C 37.359375 3.210938 37.359375 3.210938 36.9375 3 C 36.929688 2.625 36.929688 2.25 36.9375 1.875 C 37.125 1.6875 37.125 1.6875 37.582031 1.652344 Z M 37.582031 1.652344 "/>
<path style=" stroke:none;fill-rule:nonzero;fill:rgb(94.901961%,56.470591%,5.882353%);fill-opacity:1;" d="M 10.394531 1.652344 C 10.875 1.6875 10.875 1.6875 11.25 2.0625 C 11.179688 2.554688 11.179688 2.554688 11.0625 3 C 10.171875 3.210938 10.171875 3.210938 9.75 3 C 9.742188 2.625 9.742188 2.25 9.75 1.875 C 9.9375 1.6875 9.9375 1.6875 10.394531 1.652344 Z M 10.394531 1.652344 "/>
<path style=" stroke:none;fill-rule:nonzero;fill:rgb(98.039216%,58.039218%,5.882353%);fill-opacity:1;" d="M 45.1875 44.8125 C 45.679688 44.882812 45.679688 44.882812 46.125 45 C 46.242188 45.445312 46.242188 45.445312 46.3125 45.9375 C 46.1875 46.0625 46.066406 46.183594 45.9375 46.3125 C 45.445312 46.242188 45.445312 46.242188 45 46.125 C 44.882812 45.679688 44.882812 45.679688 44.8125 45.1875 C 44.9375 45.0625 45.058594 44.941406 45.1875 44.8125 Z M 45.1875 44.8125 "/>
<path style=" stroke:none;fill-rule:nonzero;fill:rgb(98.823529%,58.431375%,5.882353%);fill-opacity:1;" d="M 35.625 44.8125 C 36.117188 44.882812 36.117188 44.882812 36.5625 45 C 36.679688 45.445312 36.679688 45.445312 36.75 45.9375 C 36.625 46.0625 36.503906 46.183594 36.375 46.3125 C 35.882812 46.242188 35.882812 46.242188 35.4375 46.125 C 35.320312 45.679688 35.320312 45.679688 35.25 45.1875 C 35.375 45.0625 35.496094 44.941406 35.625 44.8125 Z M 35.625 44.8125 "/>
<path style=" stroke:none;fill-rule:nonzero;fill:rgb(98.431373%,58.431375%,5.882353%);fill-opacity:1;" d="M 11.625 44.8125 C 12.117188 44.882812 12.117188 44.882812 12.5625 45 C 12.679688 45.445312 12.679688 45.445312 12.75 45.9375 C 12.625 46.0625 12.503906 46.183594 12.375 46.3125 C 11.882812 46.242188 11.882812 46.242188 11.4375 46.125 C 11.320312 45.679688 11.320312 45.679688 11.25 45.1875 C 11.375 45.0625 11.496094 44.941406 11.625 44.8125 Z M 11.625 44.8125 "/>
<path style=" stroke:none;fill-rule:nonzero;fill:rgb(98.431373%,58.431375%,5.882353%);fill-opacity:1;" d="M 2.0625 44.8125 C 2.554688 44.882812 2.554688 44.882812 3 45 C 3.117188 45.445312 3.117188 45.445312 3.1875 45.9375 C 3.0625 46.0625 2.941406 46.183594 2.8125 46.3125 C 2.320312 46.242188 2.320312 46.242188 1.875 46.125 C 1.757812 45.679688 1.757812 45.679688 1.6875 45.1875 C 1.8125 45.0625 1.933594 44.941406 2.0625 44.8125 Z M 2.0625 44.8125 "/>
</g>
</svg>
