<?xml version="1.0" encoding="UTF-8"?>
<svg xmlns="http://www.w3.org/2000/svg" xmlns:xlink="http://www.w3.org/1999/xlink" width="48" height="48" viewBox="0 0 48 48" version="1.1">
<g id="surface1">
<path style=" stroke:none;fill-rule:nonzero;fill:rgb(0.784314%,0.392157%,0%);fill-opacity:1;" d="M 15.5625 0.75 C 15.992188 0.972656 16.410156 1.199219 16.828125 1.441406 C 20.085938 3.234375 23.621094 4.027344 27.300781 4.332031 C 27.492188 4.351562 27.679688 4.363281 27.875 4.382812 C 28.332031 4.421875 28.789062 4.460938 29.25 4.5 C 29.261719 5.921875 29.273438 7.34375 29.28125 8.765625 C 29.28125 9.425781 29.285156 10.085938 29.292969 10.746094 C 29.300781 11.507812 29.300781 12.269531 29.304688 13.03125 C 29.308594 13.265625 29.308594 13.5 29.3125 13.738281 C 29.3125 18 27.691406 21.902344 24.9375 25.125 C 24.761719 25.355469 24.761719 25.355469 24.585938 25.589844 C 24.140625 26.117188 23.660156 26.523438 23.121094 26.953125 C 22.9375 27.097656 22.757812 27.246094 22.566406 27.394531 C 22.347656 27.570312 22.347656 27.570312 22.125 27.75 C 21.414062 28.460938 21.816406 29.746094 21.75 30.75 C 25.710938 30.6875 29.671875 30.625 33.75 30.5625 C 33.441406 30.316406 33.132812 30.066406 32.8125 29.8125 C 30.933594 27.621094 30.507812 25.378906 30.699219 22.566406 C 30.933594 20.496094 32.078125 18.769531 33.628906 17.433594 C 35.855469 15.761719 38.15625 15.441406 40.875 15.75 C 43.160156 16.257812 44.972656 17.613281 46.222656 19.574219 C 47.4375 21.722656 47.605469 24.113281 47.117188 26.523438 C 46.570312 28.175781 45.492188 29.382812 44.25 30.5625 C 45.238281 30.625 46.230469 30.6875 47.25 30.75 C 47.25 35.203125 47.25 39.660156 47.25 44.25 C 45.4375 44.230469 43.625 44.207031 41.761719 44.1875 C 40.597656 44.179688 39.4375 44.171875 38.277344 44.167969 C 36.445312 44.164062 34.609375 44.15625 32.773438 44.132812 C 31.007812 44.105469 29.242188 44.09375 27.472656 44.105469 C 27.332031 44.105469 27.1875 44.105469 27.042969 44.105469 C 22.796875 44.136719 19.109375 44.492188 15.652344 47.207031 C 15.1875 47.4375 15.1875 47.4375 14.605469 47.304688 C 13.972656 47.023438 13.347656 46.730469 12.730469 46.417969 C 12.605469 46.355469 12.484375 46.292969 12.355469 46.230469 C 12.097656 46.101562 11.84375 45.972656 11.582031 45.84375 C 11.191406 45.644531 10.792969 45.445312 10.398438 45.246094 C 10.148438 45.121094 9.898438 44.996094 9.648438 44.871094 C 9.527344 44.8125 9.410156 44.753906 9.285156 44.691406 C 8.460938 44.273438 8.460938 44.273438 8.25 44.0625 C 8.238281 43.589844 8.234375 43.121094 8.238281 42.644531 C 8.238281 42.511719 8.242188 42.378906 8.242188 42.238281 C 8.242188 41.910156 8.246094 41.578125 8.25 41.25 C 8.992188 41.25 9.734375 41.25 10.5 41.25 C 10.5 40.753906 10.5 40.261719 10.5 39.75 C 9.757812 39.75 9.015625 39.75 8.25 39.75 C 8.25 37.769531 8.25 35.789062 8.25 33.75 C 8.992188 33.75 9.734375 33.75 10.5 33.75 C 10.5 33.253906 10.5 32.761719 10.5 32.25 C 9.757812 32.25 9.015625 32.25 8.25 32.25 C 8.257812 31.957031 8.265625 31.667969 8.273438 31.367188 C 8.355469 29.246094 8.355469 29.246094 7.664062 27.308594 C 7.191406 26.902344 6.722656 26.570312 6.1875 26.25 C 5.867188 25.945312 5.554688 25.632812 5.25 25.3125 C 5.152344 25.214844 5.054688 25.117188 4.957031 25.015625 C 2.449219 22.351562 0.722656 18.242188 0.730469 14.589844 C 0.730469 14.363281 0.730469 14.140625 0.730469 13.90625 C 0.730469 13.667969 0.730469 13.425781 0.730469 13.179688 C 0.730469 12.929688 0.734375 12.679688 0.734375 12.425781 C 0.734375 11.769531 0.734375 11.113281 0.738281 10.457031 C 0.738281 9.785156 0.742188 9.113281 0.742188 8.445312 C 0.742188 7.128906 0.746094 5.8125 0.75 4.5 C 0.976562 4.476562 0.976562 4.476562 1.207031 4.453125 C 1.894531 4.382812 2.578125 4.3125 3.269531 4.238281 C 3.503906 4.214844 3.742188 4.191406 3.984375 4.164062 C 7.621094 3.78125 11.21875 2.890625 14.25 0.738281 C 14.773438 0.492188 15.011719 0.566406 15.5625 0.75 Z M 15.5625 0.75 "/>
<path style=" stroke:none;fill-rule:nonzero;fill:rgb(2.352941%,1.960784%,1.176471%);fill-opacity:1;" d="M 15.5625 2.625 C 15.820312 2.738281 16.074219 2.859375 16.320312 2.988281 C 18.113281 3.875 19.800781 4.59375 21.75 5.0625 C 22.011719 5.140625 22.011719 5.140625 22.277344 5.21875 C 23.496094 5.5625 24.695312 5.710938 25.949219 5.828125 C 26.121094 5.847656 26.296875 5.859375 26.476562 5.878906 C 26.902344 5.917969 27.324219 5.960938 27.75 6 C 27.757812 7.242188 27.765625 8.480469 27.769531 9.722656 C 27.773438 10.140625 27.773438 10.5625 27.777344 10.984375 C 27.785156 11.59375 27.785156 12.203125 27.789062 12.8125 C 27.789062 12.996094 27.792969 13.179688 27.792969 13.371094 C 27.792969 15.230469 27.546875 17.027344 26.859375 18.761719 C 26.785156 18.953125 26.785156 18.953125 26.710938 19.144531 C 25.0625 23.28125 22.050781 26.402344 18.035156 28.289062 C 17.714844 28.425781 17.390625 28.558594 17.0625 28.6875 C 16.914062 28.75 16.765625 28.8125 16.613281 28.875 C 14.964844 29.503906 13.761719 29.082031 12.203125 28.398438 C 7.773438 26.320312 4.789062 23.042969 3.019531 18.507812 C 2.371094 16.695312 2.195312 14.890625 2.210938 12.976562 C 2.214844 12.773438 2.214844 12.574219 2.214844 12.367188 C 2.214844 11.734375 2.222656 11.097656 2.226562 10.464844 C 2.230469 10.03125 2.230469 9.597656 2.230469 9.164062 C 2.234375 8.109375 2.242188 7.054688 2.25 6 C 2.375 5.984375 2.5 5.972656 2.628906 5.957031 C 3.210938 5.890625 3.792969 5.820312 4.371094 5.75 C 4.667969 5.71875 4.667969 5.71875 4.96875 5.683594 C 8.234375 5.289062 11.40625 4.265625 14.285156 2.667969 C 14.878906 2.410156 14.976562 2.429688 15.5625 2.625 Z M 15.5625 2.625 "/>
<path style=" stroke:none;fill-rule:nonzero;fill:rgb(89.411765%,90.588236%,92.156863%);fill-opacity:1;" d="M 21.75 32.25 C 29.671875 32.25 37.589844 32.25 45.75 32.25 C 45.75 35.714844 45.75 39.179688 45.75 42.75 C 37.828125 42.75 29.910156 42.75 21.75 42.75 C 21.75 39.285156 21.75 35.820312 21.75 32.25 Z M 21.75 32.25 "/>
<path style=" stroke:none;fill-rule:nonzero;fill:rgb(98.431373%,50.196081%,42.352942%);fill-opacity:1;" d="M 43.53125 18.890625 C 44.855469 20.121094 45.65625 21.585938 45.789062 23.398438 C 45.824219 25.648438 45.175781 27.34375 43.652344 29.003906 C 42.570312 30.035156 41.246094 30.671875 39.75 30.75 C 39.605469 30.761719 39.460938 30.769531 39.3125 30.777344 C 37.21875 30.859375 35.523438 30.054688 33.996094 28.652344 C 32.578125 27.167969 32.1875 25.457031 32.210938 23.460938 C 32.34375 21.472656 33.226562 20.125 34.664062 18.796875 C 37.300781 16.589844 40.890625 16.753906 43.53125 18.890625 Z M 43.53125 18.890625 "/>
<path style=" stroke:none;fill-rule:nonzero;fill:rgb(98.431373%,90.196079%,64.313728%);fill-opacity:1;" d="M 17.015625 6.890625 C 18.078125 7.332031 19.144531 7.703125 20.25 8.015625 C 20.375 8.054688 20.503906 8.089844 20.632812 8.128906 C 21.980469 8.496094 23.367188 8.644531 24.75 8.8125 C 24.757812 9.601562 24.765625 10.386719 24.769531 11.171875 C 24.773438 11.4375 24.773438 11.707031 24.777344 11.972656 C 24.804688 14.183594 24.742188 16.324219 23.800781 18.363281 C 23.71875 18.550781 23.71875 18.550781 23.628906 18.742188 C 22.148438 21.90625 22.148438 21.90625 21.039062 22.488281 C 20.398438 22.503906 19.792969 22.367188 19.171875 22.230469 C 19.039062 22.203125 18.910156 22.175781 18.777344 22.148438 C 18.453125 22.078125 18.132812 22.007812 17.8125 21.9375 C 17.691406 21.402344 17.691406 21.402344 17.625 20.8125 C 17.929688 20.492188 18.242188 20.179688 18.5625 19.875 C 18.773438 19.484375 18.9375 19.085938 19.105469 18.675781 C 19.425781 17.917969 19.808594 17.195312 20.179688 16.460938 C 20.910156 14.96875 21.144531 13.5625 20.605469 11.945312 C 19.890625 10.410156 19.066406 9.484375 17.554688 8.742188 C 15.796875 8.109375 13.75 8.132812 12.058594 8.917969 C 11.160156 9.441406 10.488281 9.992188 9.9375 10.875 C 9.859375 11 9.785156 11.121094 9.703125 11.25 C 8.980469 12.617188 8.921875 14.128906 9.375 15.605469 C 9.601562 16.167969 9.851562 16.707031 10.125 17.25 C 10.195312 17.390625 10.265625 17.535156 10.335938 17.683594 C 10.453125 17.933594 10.582031 18.179688 10.707031 18.421875 C 10.863281 18.726562 11.003906 19.035156 11.144531 19.347656 C 11.417969 19.910156 11.417969 19.910156 11.953125 20.34375 C 12.160156 20.578125 12.160156 20.578125 12.375 20.8125 C 12.308594 21.40625 12.308594 21.40625 12.1875 21.9375 C 12.023438 21.960938 11.859375 21.988281 11.6875 22.011719 C 11.359375 22.0625 11.359375 22.0625 11.027344 22.113281 C 10.703125 22.164062 10.703125 22.164062 10.375 22.210938 C 9.851562 22.296875 9.332031 22.390625 8.8125 22.5 C 6.597656 19.765625 5.214844 16.796875 5.230469 13.226562 C 5.230469 13.097656 5.234375 12.972656 5.234375 12.839844 C 5.234375 12.4375 5.234375 12.039062 5.238281 11.636719 C 5.238281 11.363281 5.242188 11.089844 5.242188 10.816406 C 5.242188 10.148438 5.246094 9.480469 5.25 8.8125 C 5.472656 8.78125 5.695312 8.753906 5.921875 8.722656 C 8.246094 8.394531 10.417969 7.898438 12.585938 6.996094 C 12.710938 6.941406 12.835938 6.890625 12.96875 6.835938 C 13.3125 6.6875 13.660156 6.535156 14.007812 6.382812 C 15.140625 6.027344 15.960938 6.4375 17.015625 6.890625 Z M 17.015625 6.890625 "/>
<path style=" stroke:none;fill-rule:nonzero;fill:rgb(96.078432%,81.960785%,42.745098%);fill-opacity:1;" d="M 15.5625 2.625 C 15.820312 2.738281 16.074219 2.859375 16.320312 2.988281 C 18.113281 3.875 19.800781 4.59375 21.75 5.0625 C 22.011719 5.140625 22.011719 5.140625 22.277344 5.21875 C 23.496094 5.5625 24.695312 5.710938 25.949219 5.828125 C 26.121094 5.847656 26.296875 5.859375 26.476562 5.878906 C 26.902344 5.917969 27.324219 5.960938 27.75 6 C 27.757812 7.242188 27.765625 8.480469 27.769531 9.722656 C 27.773438 10.140625 27.773438 10.5625 27.777344 10.984375 C 27.785156 11.59375 27.785156 12.203125 27.789062 12.8125 C 27.789062 12.996094 27.792969 13.179688 27.792969 13.371094 C 27.792969 15.230469 27.546875 17.027344 26.859375 18.761719 C 26.785156 18.953125 26.785156 18.953125 26.710938 19.144531 C 25.0625 23.28125 22.050781 26.402344 18.035156 28.289062 C 17.714844 28.425781 17.390625 28.558594 17.0625 28.6875 C 16.914062 28.75 16.765625 28.8125 16.613281 28.875 C 14.964844 29.503906 13.761719 29.082031 12.203125 28.398438 C 7.773438 26.320312 4.789062 23.042969 3.019531 18.507812 C 2.371094 16.695312 2.195312 14.890625 2.210938 12.976562 C 2.214844 12.773438 2.214844 12.574219 2.214844 12.367188 C 2.214844 11.734375 2.222656 11.097656 2.226562 10.464844 C 2.230469 10.03125 2.230469 9.597656 2.230469 9.164062 C 2.234375 8.109375 2.242188 7.054688 2.25 6 C 2.375 5.984375 2.5 5.972656 2.628906 5.957031 C 3.210938 5.890625 3.792969 5.820312 4.371094 5.75 C 4.667969 5.71875 4.667969 5.71875 4.96875 5.683594 C 8.234375 5.289062 11.40625 4.265625 14.285156 2.667969 C 14.878906 2.410156 14.976562 2.429688 15.5625 2.625 Z M 13.324219 5.085938 C 10.257812 6.476562 7.078125 7.117188 3.75 7.5 C 3.742188 8.46875 3.734375 9.441406 3.730469 10.410156 C 3.726562 10.738281 3.726562 11.066406 3.722656 11.394531 C 3.675781 16.207031 4.640625 20.320312 8.101562 23.859375 C 9.902344 25.628906 12.039062 26.925781 14.4375 27.75 C 17.414062 27.699219 20.09375 25.621094 22.125 23.625 C 22.242188 23.511719 22.359375 23.394531 22.480469 23.277344 C 25.738281 19.828125 26.320312 15.441406 26.273438 10.910156 C 26.269531 10.578125 26.269531 10.246094 26.269531 9.914062 C 26.265625 9.109375 26.257812 8.304688 26.25 7.5 C 26.144531 7.488281 26.042969 7.476562 25.933594 7.464844 C 22.40625 7.074219 19.097656 6.378906 15.925781 4.746094 C 14.902344 4.289062 14.257812 4.640625 13.324219 5.085938 Z M 13.324219 5.085938 "/>
<path style=" stroke:none;fill-rule:nonzero;fill:rgb(98.039216%,83.529413%,43.529412%);fill-opacity:1;" d="M 20.25 28.875 C 20.25 29.308594 20.25 29.742188 20.25 30.1875 C 19.320312 30.433594 18.394531 30.683594 17.4375 30.9375 C 17.4375 32.792969 17.4375 34.648438 17.4375 36.5625 C 18.367188 36.808594 19.292969 37.058594 20.25 37.3125 C 20.25 39.230469 20.25 41.148438 20.25 43.125 C 19.242188 43.636719 19.242188 43.636719 18.210938 44.15625 C 17.894531 44.316406 17.894531 44.316406 17.570312 44.484375 C 17.402344 44.566406 17.234375 44.648438 17.0625 44.734375 C 16.894531 44.820312 16.722656 44.910156 16.546875 45 C 16.125 45.1875 16.125 45.1875 15.75 45.1875 C 15.75 40.359375 15.75 35.535156 15.75 30.5625 C 16.246094 30.375 16.738281 30.191406 17.25 30 C 17.941406 29.707031 18.628906 29.402344 19.316406 29.101562 C 19.875 28.875 19.875 28.875 20.25 28.875 Z M 20.25 28.875 "/>
<path style=" stroke:none;fill-rule:nonzero;fill:rgb(98.039216%,83.92157%,43.529412%);fill-opacity:1;" d="M 9.75 28.875 C 10.714844 29.183594 11.632812 29.5625 12.5625 29.957031 C 13.117188 30.183594 13.683594 30.375 14.25 30.5625 C 14.25 35.390625 14.25 40.214844 14.25 45.1875 C 13.527344 44.949219 12.9375 44.742188 12.277344 44.40625 C 12.054688 44.296875 12.054688 44.296875 11.824219 44.179688 C 11.675781 44.101562 11.523438 44.023438 11.367188 43.945312 C 11.210938 43.867188 11.054688 43.785156 10.894531 43.707031 C 10.511719 43.511719 10.128906 43.320312 9.75 43.125 C 9.75 43 9.75 42.878906 9.75 42.75 C 10.492188 42.75 11.234375 42.75 12 42.75 C 12 41.265625 12 39.78125 12 38.25 C 11.257812 38.25 10.515625 38.25 9.75 38.25 C 9.75 37.261719 9.75 36.269531 9.75 35.25 C 10.492188 35.25 11.234375 35.25 12 35.25 C 12 33.765625 12 32.28125 12 30.75 C 11.257812 30.75 10.515625 30.75 9.75 30.75 C 9.75 30.132812 9.75 29.511719 9.75 28.875 Z M 9.75 28.875 "/>
<path style=" stroke:none;fill-rule:nonzero;fill:rgb(0.392157%,0.392157%,0.392157%);fill-opacity:1;" d="M 38.25 33.75 C 38.746094 33.75 39.238281 33.75 39.75 33.75 C 39.8125 34.308594 39.875 34.863281 39.9375 35.4375 C 40.125 35.25 40.308594 35.066406 40.5 34.875 C 41.058594 34.925781 41.222656 35.035156 41.625 35.4375 C 41.554688 35.988281 41.464844 36.160156 41.0625 36.5625 C 41.621094 36.625 42.175781 36.6875 42.75 36.75 C 42.75 37.246094 42.75 37.738281 42.75 38.25 C 42.191406 38.3125 41.636719 38.375 41.0625 38.4375 C 41.25 38.625 41.433594 38.808594 41.625 39 C 41.429688 39.492188 41.316406 39.710938 40.851562 39.984375 C 40.734375 40.03125 40.621094 40.078125 40.5 40.125 C 40.3125 39.9375 40.128906 39.753906 39.9375 39.5625 C 39.875 40.121094 39.8125 40.675781 39.75 41.25 C 39.253906 41.25 38.761719 41.25 38.25 41.25 C 38.1875 40.691406 38.125 40.136719 38.0625 39.5625 C 37.78125 39.84375 37.78125 39.84375 37.5 40.125 C 37.007812 39.929688 36.789062 39.816406 36.515625 39.351562 C 36.46875 39.234375 36.421875 39.121094 36.375 39 C 36.5625 38.8125 36.746094 38.628906 36.9375 38.4375 C 36.378906 38.375 35.824219 38.3125 35.25 38.25 C 35.25 37.753906 35.25 37.261719 35.25 36.75 C 36.085938 36.65625 36.085938 36.65625 36.9375 36.5625 C 36.75 36.375 36.566406 36.191406 36.375 36 C 36.570312 35.507812 36.683594 35.289062 37.148438 35.015625 C 37.265625 34.96875 37.378906 34.921875 37.5 34.875 C 37.6875 35.0625 37.871094 35.246094 38.0625 35.4375 C 38.125 34.878906 38.1875 34.324219 38.25 33.75 Z M 38.25 33.75 "/>
<path style=" stroke:none;fill-rule:nonzero;fill:rgb(0.392157%,0.392157%,0.392157%);fill-opacity:1;" d="M 27.75 33.75 C 28.246094 33.75 28.738281 33.75 29.25 33.75 C 29.3125 34.308594 29.375 34.863281 29.4375 35.4375 C 29.625 35.25 29.808594 35.066406 30 34.875 C 30.558594 34.925781 30.722656 35.035156 31.125 35.4375 C 31.054688 35.988281 30.964844 36.160156 30.5625 36.5625 C 31.121094 36.625 31.675781 36.6875 32.25 36.75 C 32.25 37.246094 32.25 37.738281 32.25 38.25 C 31.691406 38.3125 31.136719 38.375 30.5625 38.4375 C 30.75 38.625 30.933594 38.808594 31.125 39 C 30.929688 39.492188 30.816406 39.710938 30.351562 39.984375 C 30.234375 40.03125 30.121094 40.078125 30 40.125 C 29.8125 39.9375 29.628906 39.753906 29.4375 39.5625 C 29.375 40.121094 29.3125 40.675781 29.25 41.25 C 28.753906 41.25 28.261719 41.25 27.75 41.25 C 27.6875 40.691406 27.625 40.136719 27.5625 39.5625 C 27.28125 39.84375 27.28125 39.84375 27 40.125 C 26.507812 39.929688 26.289062 39.816406 26.015625 39.351562 C 25.96875 39.234375 25.921875 39.121094 25.875 39 C 26.0625 38.8125 26.246094 38.628906 26.4375 38.4375 C 25.878906 38.375 25.324219 38.3125 24.75 38.25 C 24.75 37.753906 24.75 37.261719 24.75 36.75 C 25.585938 36.65625 25.585938 36.65625 26.4375 36.5625 C 26.25 36.375 26.066406 36.191406 25.875 36 C 26.070312 35.507812 26.183594 35.289062 26.648438 35.015625 C 26.765625 34.96875 26.878906 34.921875 27 34.875 C 27.1875 35.0625 27.371094 35.246094 27.5625 35.4375 C 27.625 34.878906 27.6875 34.324219 27.75 33.75 Z M 27.75 33.75 "/>
<path style=" stroke:none;fill-rule:nonzero;fill:rgb(67.843139%,45.882353%,26.666668%);fill-opacity:1;" d="M 16.875 9.898438 C 18.21875 10.496094 18.859375 11.46875 19.5 12.75 C 19.523438 13.058594 19.53125 13.367188 19.535156 13.675781 C 19.539062 13.839844 19.539062 14.003906 19.542969 14.171875 C 19.5 14.625 19.5 14.625 19.125 15.1875 C 18.984375 15.042969 18.847656 14.894531 18.703125 14.742188 C 18.121094 14.246094 17.640625 14.164062 16.886719 14.074219 C 15.921875 13.945312 15.355469 13.734375 14.664062 13.050781 C 14.363281 12.652344 14.265625 12.308594 14.25 11.8125 C 13.816406 11.9375 13.382812 12.058594 12.9375 12.1875 C 13 12.621094 13.0625 13.054688 13.125 13.5 C 12.996094 13.574219 12.867188 13.648438 12.734375 13.726562 C 12.566406 13.828125 12.394531 13.925781 12.222656 14.027344 C 12.054688 14.125 11.886719 14.222656 11.714844 14.324219 C 11.3125 14.582031 11.007812 14.832031 10.6875 15.1875 C 10.308594 14.054688 10.332031 12.9375 10.863281 11.859375 C 12.160156 9.753906 14.609375 9.296875 16.875 9.898438 Z M 16.875 9.898438 "/>
<path style=" stroke:none;fill-rule:nonzero;fill:rgb(92.54902%,80.392158%,69.411767%);fill-opacity:1;" d="M 15 15 C 15.679688 15.152344 16.363281 15.285156 17.046875 15.417969 C 17.625 15.5625 17.625 15.5625 18 15.9375 C 18.144531 17.085938 18.125 18.160156 17.4375 19.125 C 16.683594 19.878906 16.015625 20.273438 14.941406 20.308594 C 14.074219 20.296875 13.605469 20.074219 12.9375 19.5 C 12.039062 18.480469 11.910156 17.832031 11.921875 16.488281 C 12.003906 15.90625 12.066406 15.722656 12.503906 15.351562 C 13.90625 14.558594 13.90625 14.558594 15 15 Z M 15 15 "/>
<path style=" stroke:none;fill-rule:nonzero;fill:rgb(2.352941%,1.176471%,0.784314%);fill-opacity:1;" d="M 42.75 19.875 C 43.242188 20.070312 43.460938 20.183594 43.734375 20.648438 C 43.78125 20.765625 43.828125 20.878906 43.875 21 C 39.65625 25.6875 39.65625 25.6875 39.238281 26.148438 C 38.941406 26.484375 38.648438 26.820312 38.355469 27.160156 C 38.210938 27.332031 38.0625 27.503906 37.910156 27.679688 C 37.710938 27.914062 37.710938 27.914062 37.507812 28.15625 C 37.125 28.5 37.125 28.5 36.375 28.5 C 35.953125 28.132812 35.582031 27.777344 35.203125 27.375 C 35.046875 27.214844 35.046875 27.214844 34.886719 27.050781 C 34.632812 26.785156 34.378906 26.519531 34.125 26.25 C 34.40625 25.542969 34.5 25.5 35.25 25.125 C 35.683594 25.558594 36.117188 25.992188 36.5625 26.4375 C 38.203125 25.125 39.558594 23.511719 40.929688 21.929688 C 41.53125 21.238281 42.140625 20.558594 42.75 19.875 Z M 42.75 19.875 "/>
<path style=" stroke:none;fill-rule:nonzero;fill:rgb(67.450982%,82.745099%,47.450981%);fill-opacity:1;" d="M 12.5625 23.4375 C 13.03125 23.90625 13.03125 23.90625 13.5 24.375 C 14.574219 24.734375 15.570312 24.707031 16.59375 24.210938 C 17.125 23.933594 17.125 23.933594 17.4375 23.4375 C 17.707031 23.429688 17.976562 23.421875 18.246094 23.414062 C 18.394531 23.410156 18.546875 23.40625 18.703125 23.398438 C 19.125 23.4375 19.125 23.4375 19.6875 23.8125 C 16.441406 26.292969 16.441406 26.292969 14.832031 26.230469 C 14.089844 26.015625 13.429688 25.710938 12.738281 25.359375 C 12.609375 25.296875 12.476562 25.234375 12.34375 25.167969 C 11.515625 24.753906 10.929688 24.316406 10.3125 23.625 C 10.582031 23.558594 10.851562 23.488281 11.121094 23.425781 C 11.269531 23.390625 11.421875 23.351562 11.578125 23.3125 C 12 23.25 12 23.25 12.5625 23.4375 Z M 12.5625 23.4375 "/>
<path style=" stroke:none;fill-rule:nonzero;fill:rgb(97.647059%,76.078433%,15.686275%);fill-opacity:1;" d="M 20.25 31.6875 C 20.25 33.046875 20.25 34.410156 20.25 35.8125 C 19.753906 35.6875 19.261719 35.566406 18.75 35.4375 C 18.75 34.324219 18.75 33.210938 18.75 32.0625 C 19.875 31.6875 19.875 31.6875 20.25 31.6875 Z M 20.25 31.6875 "/>
<path style=" stroke:none;fill-rule:nonzero;fill:rgb(91.37255%,79.215688%,68.235296%);fill-opacity:1;" d="M 13.6875 21.75 C 14.554688 21.75 15.421875 21.75 16.3125 21.75 C 16.3125 22.6875 16.3125 22.6875 16.019531 23.027344 C 15.394531 23.332031 14.9375 23.324219 14.25 23.25 C 13.886719 23.027344 13.886719 23.027344 13.6875 22.6875 C 13.6875 22.378906 13.6875 22.070312 13.6875 21.75 Z M 13.6875 21.75 "/>
<path style=" stroke:none;fill-rule:nonzero;fill:rgb(0%,0%,0%);fill-opacity:1;" d="M 17.25 41.25 C 17.746094 41.25 18.238281 41.25 18.75 41.25 C 18.75 41.746094 18.75 42.238281 18.75 42.75 C 18.253906 42.75 17.761719 42.75 17.25 42.75 C 17.25 42.253906 17.25 41.761719 17.25 41.25 Z M 17.25 41.25 "/>
<path style=" stroke:none;fill-rule:nonzero;fill:rgb(0%,0%,0%);fill-opacity:1;" d="M 17.25 38.25 C 17.746094 38.25 18.238281 38.25 18.75 38.25 C 18.75 38.746094 18.75 39.238281 18.75 39.75 C 18.253906 39.75 17.761719 39.75 17.25 39.75 C 17.25 39.253906 17.25 38.761719 17.25 38.25 Z M 17.25 38.25 "/>
</g>
</svg>
