<?xml version="1.0" encoding="UTF-8"?>
<svg xmlns="http://www.w3.org/2000/svg" xmlns:xlink="http://www.w3.org/1999/xlink" width="48" height="48" viewBox="0 0 48 48" version="1.1">
<g id="surface1">
<path style=" stroke:none;fill-rule:nonzero;fill:rgb(6.27451%,12.156863%,17.647059%);fill-opacity:1;" d="M 27.804688 0.84375 C 27.933594 0.839844 28.066406 0.839844 28.203125 0.839844 C 28.636719 0.835938 29.070312 0.839844 29.503906 0.84375 C 29.804688 0.84375 30.105469 0.84375 30.410156 0.84375 C 31.042969 0.84375 31.675781 0.84375 32.308594 0.851562 C 33.117188 0.855469 33.925781 0.855469 34.738281 0.851562 C 35.363281 0.851562 35.988281 0.851562 36.609375 0.855469 C 36.910156 0.855469 37.207031 0.855469 37.503906 0.855469 C 37.921875 0.855469 38.339844 0.859375 38.757812 0.863281 C 38.996094 0.863281 39.234375 0.863281 39.476562 0.863281 C 40.1875 0.945312 40.640625 1.128906 41.25 1.5 C 41.933594 2.394531 42.023438 3.292969 42.023438 4.394531 C 42.023438 4.59375 42.023438 4.792969 42.023438 4.996094 C 42.019531 5.207031 42.019531 5.421875 42.019531 5.640625 C 42.019531 5.96875 42.019531 5.96875 42.019531 6.304688 C 42.015625 7.003906 42.015625 7.703125 42.011719 8.402344 C 42.011719 8.875 42.011719 9.351562 42.007812 9.828125 C 42.007812 10.988281 42.003906 12.148438 42 13.3125 C 42.175781 13.304688 42.347656 13.300781 42.527344 13.292969 C 43.316406 13.316406 43.644531 13.5625 44.25 14.0625 C 45.253906 15.136719 45.101562 16.316406 45.085938 17.722656 C 45.085938 17.984375 45.085938 18.242188 45.085938 18.5 C 45.085938 19.203125 45.082031 19.902344 45.078125 20.601562 C 45.070312 21.335938 45.070312 22.070312 45.070312 22.800781 C 45.066406 24.1875 45.0625 25.574219 45.054688 26.960938 C 45.046875 28.539062 45.039062 30.117188 45.035156 31.695312 C 45.03125 34.945312 45.015625 38.191406 45 41.4375 C 45.207031 41.429688 45.410156 41.421875 45.621094 41.410156 C 46.3125 41.4375 46.3125 41.4375 46.851562 41.859375 C 47.453125 42.640625 47.46875 43.265625 47.472656 44.238281 C 47.472656 44.429688 47.476562 44.621094 47.480469 44.816406 C 47.417969 45.632812 47.253906 46.109375 46.691406 46.710938 C 45.898438 47.203125 45.253906 47.167969 44.339844 47.15625 C 44.15625 47.160156 43.976562 47.160156 43.789062 47.160156 C 43.183594 47.164062 42.578125 47.160156 41.972656 47.160156 C 41.535156 47.160156 41.101562 47.160156 40.667969 47.164062 C 39.488281 47.167969 38.304688 47.164062 37.125 47.164062 C 35.890625 47.160156 34.65625 47.164062 33.421875 47.164062 C 31.214844 47.164062 29.007812 47.164062 26.800781 47.160156 C 24.800781 47.15625 22.800781 47.15625 20.800781 47.160156 C 18.476562 47.164062 16.152344 47.164062 13.828125 47.164062 C 12.597656 47.160156 11.371094 47.160156 10.140625 47.164062 C 8.984375 47.167969 7.828125 47.164062 6.671875 47.160156 C 6.246094 47.160156 5.824219 47.160156 5.398438 47.160156 C 4.816406 47.164062 4.242188 47.160156 3.660156 47.15625 C 3.492188 47.160156 3.324219 47.160156 3.148438 47.164062 C 2.378906 47.152344 1.976562 47.125 1.308594 46.710938 C 0.425781 45.769531 0.496094 44.75 0.515625 43.519531 C 0.570312 42.832031 0.71875 42.371094 1.125 41.8125 C 1.769531 41.382812 2.058594 41.402344 2.8125 41.4375 C 2.8125 41.304688 2.8125 41.175781 2.808594 41.039062 C 2.800781 37.851562 2.789062 34.660156 2.785156 31.46875 C 2.78125 29.925781 2.777344 28.382812 2.769531 26.839844 C 2.765625 25.492188 2.761719 24.148438 2.757812 22.800781 C 2.757812 22.089844 2.757812 21.378906 2.753906 20.664062 C 2.75 19.996094 2.75 19.324219 2.75 18.652344 C 2.75 18.289062 2.746094 17.929688 2.742188 17.566406 C 2.746094 16.328125 2.824219 15.367188 3.375 14.25 C 4.199219 13.449219 4.832031 13.289062 5.953125 13.292969 C 6.164062 13.296875 6.375 13.296875 6.589844 13.296875 C 6.808594 13.296875 7.027344 13.300781 7.253906 13.300781 C 7.476562 13.300781 7.695312 13.304688 7.921875 13.304688 C 8.472656 13.304688 9.015625 13.308594 9.5625 13.3125 C 9.558594 13.164062 9.550781 13.015625 9.546875 12.859375 C 9.527344 12.175781 9.515625 11.488281 9.503906 10.804688 C 9.496094 10.570312 9.488281 10.335938 9.480469 10.09375 C 9.457031 8.421875 9.675781 7.105469 10.820312 5.832031 C 11.828125 4.867188 12.941406 4.480469 14.320312 4.417969 C 15.730469 4.464844 16.921875 4.886719 17.976562 5.835938 C 19.316406 7.371094 19.414062 9.027344 19.359375 10.992188 C 19.34375 11.757812 19.328125 12.523438 19.3125 13.3125 C 21.105469 13.3125 22.902344 13.3125 24.75 13.3125 C 24.742188 12.566406 24.738281 11.824219 24.730469 11.054688 C 24.726562 10.332031 24.722656 9.609375 24.71875 8.890625 C 24.714844 8.386719 24.710938 7.886719 24.707031 7.382812 C 24.699219 6.660156 24.695312 5.941406 24.695312 5.21875 C 24.691406 4.996094 24.691406 4.773438 24.6875 4.539062 C 24.6875 2.515625 24.6875 2.515625 25.3125 1.6875 C 26.160156 1.011719 26.722656 0.84375 27.804688 0.84375 Z M 26.4375 3 C 26.378906 3.433594 26.378906 3.433594 26.390625 3.945312 C 26.386719 4.148438 26.386719 4.347656 26.386719 4.554688 C 26.386719 4.773438 26.386719 4.996094 26.386719 5.222656 C 26.386719 5.453125 26.386719 5.6875 26.386719 5.925781 C 26.386719 6.558594 26.386719 7.199219 26.386719 7.832031 C 26.386719 8.5 26.386719 9.164062 26.386719 9.832031 C 26.386719 10.949219 26.386719 12.0625 26.386719 13.179688 C 26.390625 14.476562 26.390625 15.765625 26.386719 17.058594 C 26.386719 18.167969 26.386719 19.277344 26.386719 20.386719 C 26.386719 21.046875 26.386719 21.710938 26.386719 22.375 C 26.382812 23.113281 26.386719 23.851562 26.386719 24.589844 C 26.386719 24.8125 26.386719 25.03125 26.386719 25.257812 C 26.386719 25.457031 26.386719 25.660156 26.390625 25.867188 C 26.390625 26.042969 26.390625 26.214844 26.390625 26.394531 C 26.398438 26.851562 26.398438 26.851562 26.8125 27.1875 C 27.378906 27.246094 27.378906 27.246094 28.054688 27.238281 C 28.179688 27.238281 28.308594 27.242188 28.441406 27.242188 C 28.863281 27.246094 29.285156 27.242188 29.707031 27.242188 C 30 27.246094 30.292969 27.246094 30.585938 27.246094 C 31.199219 27.246094 31.816406 27.246094 32.425781 27.246094 C 33.214844 27.246094 34.003906 27.25 34.792969 27.253906 C 35.398438 27.257812 36 27.257812 36.605469 27.253906 C 36.898438 27.253906 37.1875 27.257812 37.480469 27.257812 C 37.882812 27.261719 38.289062 27.261719 38.695312 27.257812 C 38.925781 27.257812 39.160156 27.257812 39.398438 27.257812 C 39.574219 27.234375 39.753906 27.210938 39.9375 27.1875 C 40.347656 26.570312 40.359375 26.386719 40.359375 25.671875 C 40.359375 25.472656 40.363281 25.277344 40.363281 25.074219 C 40.363281 24.859375 40.363281 24.640625 40.359375 24.417969 C 40.363281 24.191406 40.363281 23.960938 40.363281 23.726562 C 40.363281 23.101562 40.363281 22.480469 40.363281 21.855469 C 40.363281 21.199219 40.363281 20.546875 40.363281 19.894531 C 40.363281 18.792969 40.363281 17.699219 40.359375 16.597656 C 40.359375 15.328125 40.359375 14.058594 40.363281 12.789062 C 40.363281 11.703125 40.363281 10.613281 40.363281 9.523438 C 40.363281 8.871094 40.363281 8.222656 40.363281 7.570312 C 40.363281 6.84375 40.363281 6.121094 40.359375 5.394531 C 40.363281 5.179688 40.363281 4.960938 40.363281 4.738281 C 40.363281 4.539062 40.359375 4.34375 40.359375 4.140625 C 40.359375 3.96875 40.359375 3.796875 40.359375 3.621094 C 40.339844 3.136719 40.339844 3.136719 39.9375 2.625 C 39.351562 2.558594 39.351562 2.558594 38.695312 2.589844 C 38.472656 2.59375 38.25 2.601562 38.019531 2.605469 C 37.761719 2.617188 37.761719 2.617188 37.5 2.625 C 37.480469 2.753906 37.464844 2.882812 37.445312 3.015625 C 37.417969 3.183594 37.390625 3.355469 37.359375 3.527344 C 37.332031 3.695312 37.304688 3.863281 37.28125 4.035156 C 37.082031 4.628906 36.917969 4.753906 36.375 5.0625 C 35.890625 5.113281 35.453125 5.132812 34.96875 5.125 C 34.765625 5.125 34.765625 5.125 34.558594 5.121094 C 34.273438 5.121094 33.988281 5.117188 33.707031 5.113281 C 33.269531 5.109375 32.835938 5.105469 32.398438 5.105469 C 32.125 5.105469 31.847656 5.101562 31.570312 5.101562 C 31.441406 5.101562 31.308594 5.101562 31.175781 5.097656 C 30.609375 5.089844 30.167969 5.054688 29.625 4.875 C 29.5 4.132812 29.378906 3.390625 29.25 2.625 C 28.851562 2.617188 28.453125 2.609375 28.054688 2.601562 C 27.832031 2.597656 27.609375 2.59375 27.382812 2.589844 C 26.792969 2.5625 26.792969 2.5625 26.4375 3 Z M 11.753906 7.371094 C 10.980469 8.601562 11.011719 9.832031 11.039062 11.238281 C 11.042969 11.421875 11.042969 11.601562 11.046875 11.789062 C 11.050781 12.234375 11.054688 12.679688 11.0625 13.125 C 11.433594 13 11.804688 12.878906 12.1875 12.75 C 12.1875 12.636719 12.191406 12.523438 12.191406 12.40625 C 12.203125 11.886719 12.21875 11.371094 12.234375 10.851562 C 12.238281 10.585938 12.238281 10.585938 12.242188 10.308594 C 12.28125 9.203125 12.386719 8.535156 13.125 7.6875 C 13.5625 7.46875 13.835938 7.46875 14.320312 7.464844 C 14.535156 7.460938 14.535156 7.460938 14.757812 7.457031 C 15.242188 7.503906 15.53125 7.613281 15.9375 7.875 C 16.601562 8.867188 16.550781 9.960938 16.605469 11.121094 C 16.613281 11.277344 16.621094 11.433594 16.628906 11.597656 C 16.648438 11.980469 16.667969 12.367188 16.6875 12.75 C 16.996094 12.875 17.304688 12.996094 17.625 13.125 C 17.648438 12.40625 17.660156 11.6875 17.671875 10.96875 C 17.679688 10.765625 17.683594 10.566406 17.691406 10.355469 C 17.707031 8.921875 17.554688 7.835938 16.539062 6.773438 C 14.8125 5.714844 13.179688 5.945312 11.753906 7.371094 Z M 14.25 8.8125 C 13.84375 9.140625 13.84375 9.140625 13.832031 9.539062 C 13.835938 9.679688 13.835938 9.820312 13.839844 9.960938 C 13.839844 10.113281 13.839844 10.265625 13.84375 10.421875 C 13.84375 10.578125 13.847656 10.734375 13.851562 10.898438 C 13.855469 11.058594 13.855469 11.21875 13.859375 11.382812 C 13.863281 11.773438 13.867188 12.167969 13.875 12.5625 C 14.246094 12.5625 14.617188 12.5625 15 12.5625 C 15 11.449219 15 10.335938 15 9.1875 C 14.753906 9.0625 14.503906 8.941406 14.25 8.8125 Z M 4.761719 15.3125 C 4.4375 15.855469 4.429688 16.1875 4.433594 16.816406 C 4.433594 17.03125 4.429688 17.25 4.429688 17.472656 C 4.433594 17.710938 4.433594 17.945312 4.4375 18.191406 C 4.4375 18.449219 4.4375 18.707031 4.4375 18.964844 C 4.4375 19.652344 4.441406 20.339844 4.441406 21.03125 C 4.445312 21.679688 4.445312 22.324219 4.445312 22.96875 C 4.449219 24.859375 4.457031 26.75 4.464844 28.640625 C 4.476562 32.863281 4.488281 37.085938 4.5 41.4375 C 17.308594 41.4375 30.117188 41.4375 43.3125 41.4375 C 43.324219 37.179688 43.335938 32.921875 43.347656 28.535156 C 43.351562 27.1875 43.359375 25.84375 43.363281 24.457031 C 43.363281 23.253906 43.363281 23.253906 43.367188 22.050781 C 43.367188 21.511719 43.367188 20.976562 43.371094 20.4375 C 43.375 19.753906 43.378906 19.070312 43.375 18.382812 C 43.375 18.015625 43.378906 17.644531 43.382812 17.273438 C 43.382812 17.054688 43.382812 16.835938 43.378906 16.613281 C 43.382812 16.421875 43.382812 16.230469 43.382812 16.035156 C 43.347656 15.558594 43.347656 15.558594 43.074219 15.214844 C 42.710938 14.929688 42.710938 14.929688 42 15 C 41.996094 15.210938 41.996094 15.210938 41.996094 15.425781 C 41.980469 16.753906 41.964844 18.078125 41.945312 19.40625 C 41.9375 20.089844 41.929688 20.769531 41.921875 21.453125 C 41.914062 22.113281 41.90625 22.769531 41.894531 23.429688 C 41.890625 23.800781 41.886719 24.171875 41.882812 24.546875 C 41.863281 25.679688 41.832031 26.679688 41.4375 27.75 C 41.375 27.933594 41.3125 28.121094 41.25 28.3125 C 40.414062 28.6875 39.664062 28.734375 38.757812 28.742188 C 38.5625 28.742188 38.5625 28.742188 38.359375 28.746094 C 37.925781 28.75 37.492188 28.75 37.0625 28.75 C 36.757812 28.75 36.457031 28.753906 36.152344 28.753906 C 35.519531 28.757812 34.886719 28.757812 34.253906 28.757812 C 33.445312 28.757812 32.636719 28.761719 31.824219 28.769531 C 31.203125 28.773438 30.578125 28.773438 29.953125 28.773438 C 29.65625 28.773438 29.355469 28.773438 29.054688 28.777344 C 28.636719 28.78125 28.222656 28.78125 27.804688 28.777344 C 27.566406 28.777344 27.328125 28.777344 27.085938 28.78125 C 26.304688 28.667969 25.910156 28.445312 25.3125 27.9375 C 24.90625 27.234375 24.886719 26.59375 24.878906 25.792969 C 24.875 25.550781 24.871094 25.3125 24.867188 25.066406 C 24.863281 24.804688 24.863281 24.542969 24.859375 24.28125 C 24.855469 24.015625 24.851562 23.75 24.847656 23.480469 C 24.839844 22.777344 24.832031 22.074219 24.824219 21.371094 C 24.816406 20.65625 24.808594 19.9375 24.796875 19.21875 C 24.78125 17.8125 24.765625 16.40625 24.75 15 C 23.265625 15 21.78125 15 20.25 15 C 20.457031 15.328125 20.660156 15.65625 20.871094 15.996094 C 22.066406 18.058594 22.472656 20.09375 21.902344 22.429688 C 21.578125 23.507812 21.128906 24.628906 20.316406 25.429688 C 20.019531 25.671875 20.019531 25.671875 20.0625 26.0625 C 19.957031 26.113281 19.847656 26.164062 19.738281 26.214844 C 19.308594 26.429688 19.308594 26.429688 18.921875 26.699219 C 16.929688 28.035156 14.828125 28.316406 12.507812 27.910156 C 10.511719 27.449219 8.917969 26.324219 7.816406 24.597656 C 6.722656 22.609375 6.40625 20.546875 6.886719 18.304688 C 7.238281 17.167969 7.707031 16.304688 8.4375 15.375 C 8.4375 15.25 8.4375 15.128906 8.4375 15 C 7.886719 14.980469 7.335938 14.964844 6.785156 14.953125 C 6.628906 14.945312 6.472656 14.941406 6.3125 14.933594 C 6.085938 14.929688 6.085938 14.929688 5.855469 14.925781 C 5.714844 14.921875 5.578125 14.917969 5.4375 14.914062 C 5.035156 14.96875 5.035156 14.96875 4.761719 15.3125 Z M 4.761719 15.3125 "/>
<path style=" stroke:none;fill-rule:nonzero;fill:rgb(38.431373%,75.686276%,95.294118%);fill-opacity:1;" d="M 17.996094 15.003906 C 19.171875 15.738281 20.019531 16.960938 20.472656 18.257812 C 20.945312 20.355469 20.699219 22.1875 19.640625 24.035156 C 18.730469 25.40625 17.320312 26.191406 15.75 26.625 C 13.65625 26.8125 11.9375 26.597656 10.285156 25.261719 C 9.0625 24.121094 8.195312 22.679688 7.996094 21 C 7.941406 19.03125 8.484375 17.457031 9.75 15.9375 C 10.214844 15.496094 10.703125 15.144531 11.25 14.8125 C 11.375 14.734375 11.5 14.660156 11.628906 14.578125 C 13.699219 13.476562 16.015625 13.980469 17.996094 15.003906 Z M 17.996094 15.003906 "/>
<path style=" stroke:none;fill-rule:nonzero;fill:rgb(92.156863%,38.82353%,37.64706%);fill-opacity:1;" d="M 2.25 42.9375 C 16.605469 42.9375 30.960938 42.9375 45.75 42.9375 C 45.75 43.742188 45.75 44.546875 45.75 45.375 C 45.394531 45.730469 44.882812 45.585938 44.410156 45.585938 C 44.242188 45.585938 44.074219 45.585938 43.902344 45.585938 C 43.730469 45.585938 43.550781 45.585938 43.371094 45.585938 C 42.777344 45.589844 42.179688 45.585938 41.585938 45.585938 C 41.160156 45.585938 40.734375 45.585938 40.3125 45.585938 C 39.15625 45.589844 38 45.589844 36.84375 45.585938 C 35.632812 45.585938 34.425781 45.585938 33.21875 45.589844 C 31.058594 45.589844 28.902344 45.585938 26.742188 45.585938 C 24.785156 45.585938 22.828125 45.585938 20.867188 45.585938 C 18.59375 45.589844 16.320312 45.589844 14.050781 45.585938 C 12.84375 45.585938 11.640625 45.585938 10.4375 45.589844 C 9.308594 45.589844 8.175781 45.589844 7.042969 45.585938 C 6.628906 45.585938 6.210938 45.585938 5.792969 45.585938 C 5.226562 45.589844 4.660156 45.585938 4.097656 45.585938 C 3.84375 45.585938 3.84375 45.585938 3.589844 45.585938 C 2.457031 45.582031 2.457031 45.582031 2.25 45.375 C 2.25 44.570312 2.25 43.765625 2.25 42.9375 Z M 2.25 42.9375 "/>
<path style=" stroke:none;fill-rule:nonzero;fill:rgb(5.882353%,11.764706%,17.254902%);fill-opacity:1;" d="M 36.9375 9.375 C 37.054688 9.449219 37.171875 9.519531 37.289062 9.59375 C 37.605469 9.820312 37.605469 9.820312 38.0625 10.3125 C 38.144531 10.921875 38.144531 10.921875 38.0625 11.4375 C 37.875 11.625 37.875 11.625 37.359375 11.683594 C 36.605469 11.613281 36.386719 11.355469 35.8125 10.875 C 34.753906 10.296875 33.789062 10.171875 32.625 10.5 C 31.417969 11.007812 30.746094 11.765625 30.1875 12.9375 C 30.035156 13.519531 29.96875 14.097656 29.90625 14.695312 C 29.730469 16.0625 29.523438 17.539062 28.5 18.5625 C 28.125 18.570312 27.75 18.570312 27.375 18.5625 C 27.148438 17.824219 27.164062 17.410156 27.515625 16.746094 C 27.96875 15.84375 28.070312 14.96875 28.195312 13.980469 C 28.445312 12.171875 28.894531 10.84375 30.363281 9.667969 C 30.613281 9.503906 30.867188 9.339844 31.125 9.1875 C 31.3125 9.070312 31.503906 8.953125 31.699219 8.835938 C 33.363281 8.199219 35.453125 8.425781 36.9375 9.375 Z M 36.9375 9.375 "/>
<path style=" stroke:none;fill-rule:nonzero;fill:rgb(5.882353%,11.764706%,17.254902%);fill-opacity:1;" d="M 35.316406 11.253906 C 35.957031 11.640625 36.328125 11.929688 36.75 12.5625 C 36.785156 13.148438 36.785156 13.148438 36.75 13.6875 C 36.5625 13.875 36.5625 13.875 36.046875 13.945312 C 35.4375 13.875 35.4375 13.875 34.980469 13.40625 C 34.527344 12.878906 34.527344 12.878906 33.832031 12.820312 C 33.171875 12.878906 33.171875 12.878906 32.78125 13.328125 C 32.367188 13.984375 32.3125 14.441406 32.25 15.210938 C 32.078125 16.878906 31.6875 18.578125 30.5625 19.875 C 30.046875 20.039062 30.046875 20.039062 29.625 20.0625 C 29.320312 19.746094 29.320312 19.746094 29.0625 19.3125 C 29.179688 18.851562 29.378906 18.476562 29.613281 18.066406 C 30.210938 16.890625 30.375 15.703125 30.523438 14.40625 C 30.679688 13.183594 31.046875 12.410156 31.980469 11.566406 C 32.949219 10.894531 34.234375 10.789062 35.316406 11.253906 Z M 35.316406 11.253906 "/>
<path style=" stroke:none;fill-rule:nonzero;fill:rgb(7.450981%,14.117648%,20%);fill-opacity:1;" d="M 15 18.9375 C 15.796875 19.238281 16.246094 19.527344 16.6875 20.25 C 16.835938 21.066406 16.882812 21.9375 16.492188 22.691406 C 16.160156 23.089844 15.839844 23.390625 15.375 23.625 C 15.3125 24.0625 15.25 24.5 15.1875 24.9375 C 15.0625 25.0625 14.941406 25.183594 14.8125 25.3125 C 13.957031 25.207031 13.957031 25.207031 13.6875 24.9375 C 13.675781 24.640625 13.675781 24.640625 13.664062 24.339844 C 13.464844 23.472656 13.179688 23.261719 12.484375 22.753906 C 12.003906 22.34375 12 21.929688 11.941406 21.316406 C 12.023438 20.347656 12.429688 19.84375 13.078125 19.148438 C 13.710938 18.832031 14.3125 18.839844 15 18.9375 Z M 15 18.9375 "/>
<path style=" stroke:none;fill-rule:nonzero;fill:rgb(5.882353%,11.764706%,17.254902%);fill-opacity:1;" d="M 30.9375 30.75 C 31.246094 30.8125 31.554688 30.875 31.875 30.9375 C 31.9375 31.183594 32 31.433594 32.0625 31.6875 C 32.25 31.5625 32.433594 31.441406 32.625 31.3125 C 33.105469 31.265625 33.105469 31.265625 33.5625 31.3125 C 33.6875 31.4375 33.808594 31.558594 33.9375 31.6875 C 33.914062 32.238281 33.914062 32.238281 33.75 32.8125 C 33.363281 33.164062 33.363281 33.164062 33 33.375 C 33.160156 33.511719 33.316406 33.644531 33.480469 33.785156 C 33.9375 34.3125 33.9375 34.3125 33.914062 34.828125 C 33.75 35.25 33.75 35.25 33.5625 35.4375 C 33.125 35.382812 32.6875 35.320312 32.25 35.25 C 32.175781 35.375 32.105469 35.496094 32.027344 35.625 C 31.6875 36 31.6875 36 31.207031 36.082031 C 31.054688 36.054688 30.90625 36.027344 30.75 36 C 30.625 35.8125 30.503906 35.628906 30.375 35.4375 C 29.9375 35.429688 29.5 35.429688 29.0625 35.4375 C 28.9375 35.3125 28.816406 35.191406 28.6875 35.0625 C 28.722656 34.429688 28.835938 34.171875 29.261719 33.691406 C 29.441406 33.535156 29.441406 33.535156 29.625 33.375 C 29.472656 33.269531 29.316406 33.167969 29.15625 33.058594 C 28.6875 32.625 28.6875 32.625 28.605469 32.132812 C 28.6875 31.6875 28.6875 31.6875 29.0625 31.3125 C 29.582031 31.273438 29.90625 31.265625 30.375 31.5 C 30.5625 31.253906 30.746094 31.003906 30.9375 30.75 Z M 30.9375 30.75 "/>
<path style=" stroke:none;fill-rule:nonzero;fill:rgb(5.882353%,11.764706%,17.254902%);fill-opacity:1;" d="M 16.863281 30.796875 C 17.300781 30.957031 17.511719 31.152344 17.8125 31.5 C 17.875 31.4375 17.9375 31.375 18 31.3125 C 18.457031 31.277344 18.457031 31.277344 18.9375 31.3125 C 19.3125 31.6875 19.3125 31.6875 19.394531 32.132812 C 19.3125 32.625 19.3125 32.625 18.84375 33.058594 C 18.613281 33.214844 18.613281 33.214844 18.375 33.375 C 18.535156 33.511719 18.691406 33.644531 18.855469 33.785156 C 19.3125 34.3125 19.3125 34.3125 19.289062 34.828125 C 19.125 35.25 19.125 35.25 18.9375 35.4375 C 18.726562 35.429688 18.511719 35.421875 18.292969 35.414062 C 17.960938 35.425781 17.960938 35.425781 17.625 35.4375 C 17.5 35.625 17.378906 35.808594 17.25 36 C 16.792969 36.082031 16.792969 36.082031 16.3125 36 C 15.972656 35.625 15.972656 35.625 15.75 35.25 C 15.542969 35.289062 15.332031 35.328125 15.117188 35.367188 C 14.894531 35.390625 14.667969 35.414062 14.4375 35.4375 C 14.3125 35.3125 14.191406 35.191406 14.0625 35.0625 C 14.097656 34.429688 14.210938 34.171875 14.636719 33.691406 C 14.816406 33.535156 14.816406 33.535156 15 33.375 C 14.84375 33.238281 14.683594 33.105469 14.519531 32.964844 C 14.0625 32.4375 14.0625 32.4375 14.085938 31.921875 C 14.25 31.5 14.25 31.5 14.4375 31.3125 C 15.132812 31.257812 15.332031 31.285156 15.9375 31.6875 C 15.960938 31.566406 15.984375 31.449219 16.007812 31.324219 C 16.046875 31.195312 16.085938 31.070312 16.125 30.9375 C 16.5 30.75 16.5 30.75 16.863281 30.796875 Z M 16.863281 30.796875 "/>
<path style=" stroke:none;fill-rule:nonzero;fill:rgb(5.882353%,11.764706%,17.647059%);fill-opacity:1;" d="M 38.25 30.75 C 38.765625 30.796875 38.765625 30.796875 39.1875 30.9375 C 39.25 31.183594 39.3125 31.433594 39.375 31.6875 C 39.5625 31.5625 39.746094 31.441406 39.9375 31.3125 C 40.535156 31.382812 40.535156 31.382812 41.0625 31.5 C 41.214844 31.898438 41.214844 31.898438 41.25 32.4375 C 40.980469 32.867188 40.667969 33.191406 40.3125 33.5625 C 40.621094 33.871094 40.929688 34.179688 41.25 34.5 C 41.0625 34.964844 41.0625 34.964844 40.875 35.4375 C 40.5 35.445312 40.125 35.445312 39.75 35.4375 C 39.6875 35.375 39.625 35.3125 39.5625 35.25 C 39.488281 35.375 39.417969 35.496094 39.339844 35.625 C 39 36 39 36 38.496094 36.046875 C 38.351562 36.03125 38.210938 36.015625 38.0625 36 C 37.9375 35.753906 37.816406 35.503906 37.6875 35.25 C 37.5625 35.3125 37.441406 35.375 37.3125 35.4375 C 36.9375 35.445312 36.5625 35.445312 36.1875 35.4375 C 36.035156 34.933594 36.035156 34.933594 36 34.3125 C 36.457031 33.773438 36.457031 33.773438 36.9375 33.375 C 36.785156 33.269531 36.628906 33.167969 36.46875 33.058594 C 36 32.625 36 32.625 35.917969 32.132812 C 36 31.6875 36 31.6875 36.375 31.3125 C 36.554688 31.351562 36.730469 31.390625 36.914062 31.429688 C 37.109375 31.453125 37.300781 31.476562 37.5 31.5 C 37.753906 31.253906 38.003906 31.003906 38.25 30.75 Z M 38.25 30.75 "/>
<path style=" stroke:none;fill-rule:nonzero;fill:rgb(5.882353%,11.764706%,17.254902%);fill-opacity:1;" d="M 10.125 30.9375 C 10.25 31.125 10.371094 31.308594 10.5 31.5 C 10.765625 31.441406 10.765625 31.441406 11.039062 31.382812 C 11.234375 31.359375 11.425781 31.335938 11.625 31.3125 C 12 31.6875 12 31.6875 12.082031 32.132812 C 12 32.625 12 32.625 11.53125 33.058594 C 11.296875 33.214844 11.296875 33.214844 11.0625 33.375 C 11.222656 33.507812 11.378906 33.636719 11.542969 33.773438 C 12 34.3125 12 34.3125 11.964844 34.933594 C 11.914062 35.101562 11.863281 35.265625 11.8125 35.4375 C 10.734375 35.460938 10.734375 35.460938 10.3125 35.25 C 10.1875 35.496094 10.066406 35.746094 9.9375 36 C 9.503906 36.046875 9.503906 36.046875 9 36 C 8.660156 35.625 8.660156 35.625 8.4375 35.25 C 8.375 35.3125 8.3125 35.375 8.25 35.4375 C 7.875 35.445312 7.5 35.445312 7.125 35.4375 C 7 35.128906 6.878906 34.820312 6.75 34.5 C 7.058594 34.128906 7.367188 33.757812 7.6875 33.375 C 7.527344 33.238281 7.371094 33.105469 7.207031 32.964844 C 6.75 32.4375 6.75 32.4375 6.785156 31.910156 C 6.835938 31.777344 6.886719 31.640625 6.9375 31.5 C 7.464844 31.382812 7.464844 31.382812 8.0625 31.3125 C 8.25 31.4375 8.433594 31.558594 8.625 31.6875 C 8.648438 31.566406 8.671875 31.449219 8.695312 31.324219 C 8.734375 31.195312 8.773438 31.070312 8.8125 30.9375 C 9.324219 30.683594 9.585938 30.777344 10.125 30.9375 Z M 10.125 30.9375 "/>
<path style=" stroke:none;fill-rule:nonzero;fill:rgb(5.882353%,11.764706%,17.647059%);fill-opacity:1;" d="M 23.8125 30.75 C 24.304688 30.925781 24.304688 30.925781 24.75 31.125 C 24.75 31.3125 24.75 31.496094 24.75 31.6875 C 24.9375 31.5625 25.121094 31.441406 25.3125 31.3125 C 25.910156 31.382812 25.910156 31.382812 26.4375 31.5 C 26.589844 31.898438 26.589844 31.898438 26.625 32.4375 C 26.355469 32.867188 26.042969 33.191406 25.6875 33.5625 C 25.847656 33.703125 26.003906 33.84375 26.167969 33.984375 C 26.625 34.5 26.625 34.5 26.601562 34.921875 C 26.4375 35.25 26.4375 35.25 26.25 35.4375 C 25.6875 35.460938 25.6875 35.460938 25.125 35.4375 C 25.0625 35.375 25 35.3125 24.9375 35.25 C 24.875 35.4375 24.8125 35.621094 24.75 35.8125 C 23.671875 36.023438 23.671875 36.023438 23.25 35.8125 C 23.1875 35.625 23.125 35.441406 23.0625 35.25 C 23 35.3125 22.9375 35.375 22.875 35.4375 C 22.324219 35.472656 22.324219 35.472656 21.75 35.4375 C 21.625 35.3125 21.503906 35.191406 21.375 35.0625 C 21.410156 34.429688 21.523438 34.171875 21.949219 33.691406 C 22.128906 33.535156 22.128906 33.535156 22.3125 33.375 C 22.152344 33.238281 21.996094 33.105469 21.832031 32.964844 C 21.375 32.4375 21.375 32.4375 21.410156 31.910156 C 21.460938 31.777344 21.511719 31.640625 21.5625 31.5 C 22.089844 31.382812 22.089844 31.382812 22.6875 31.3125 C 22.875 31.4375 23.058594 31.558594 23.25 31.6875 C 23.273438 31.566406 23.296875 31.449219 23.320312 31.324219 C 23.359375 31.195312 23.398438 31.070312 23.4375 30.9375 C 23.5625 30.875 23.683594 30.8125 23.8125 30.75 Z M 23.8125 30.75 "/>
<path style=" stroke:none;fill-rule:nonzero;fill:rgb(5.882353%,11.764706%,17.647059%);fill-opacity:1;" d="M 38.625 12.914062 C 39.1875 12.9375 39.1875 12.9375 39.375 13.125 C 39.550781 15.632812 39.375 18.328125 38.25 20.625 C 37.792969 20.8125 37.792969 20.8125 37.3125 20.8125 C 36.960938 20.625 36.960938 20.625 36.75 20.25 C 36.777344 19.613281 36.910156 19.046875 37.066406 18.429688 C 37.40625 17.027344 37.617188 15.652344 37.753906 14.21875 C 37.875 12.945312 37.875 12.945312 38.625 12.914062 Z M 38.625 12.914062 "/>
<path style=" stroke:none;fill-rule:nonzero;fill:rgb(5.882353%,11.764706%,17.647059%);fill-opacity:1;" d="M 34.054688 13.734375 C 34.199219 13.78125 34.347656 13.828125 34.5 13.875 C 35.054688 14.988281 34.546875 16.65625 34.191406 17.796875 C 33.832031 18.867188 33.433594 19.867188 32.8125 20.8125 C 32.441406 20.8125 32.070312 20.8125 31.6875 20.8125 C 31.46875 20.417969 31.46875 20.417969 31.3125 19.875 C 31.503906 19.320312 31.503906 19.320312 31.816406 18.703125 C 32.382812 17.523438 32.644531 16.394531 32.808594 15.09375 C 32.855469 14.75 32.925781 14.40625 33 14.0625 C 33.5625 13.6875 33.5625 13.6875 34.054688 13.734375 Z M 34.054688 13.734375 "/>
<path style=" stroke:none;fill-rule:nonzero;fill:rgb(5.882353%,11.764706%,17.254902%);fill-opacity:1;" d="M 36.75 15.375 C 37.214844 17.339844 36.21875 19.5 35.25 21.1875 C 34.804688 21.210938 34.804688 21.210938 34.3125 21.1875 C 34.1875 21.0625 34.066406 20.941406 33.9375 20.8125 C 34.007812 19.824219 34.277344 18.921875 34.582031 17.988281 C 34.621094 17.859375 34.664062 17.730469 34.707031 17.601562 C 34.785156 17.351562 34.867188 17.101562 34.949219 16.851562 C 35.054688 16.523438 35.15625 16.1875 35.257812 15.855469 C 35.574219 15.011719 35.976562 15.191406 36.75 15.375 Z M 36.75 15.375 "/>
<path style=" stroke:none;fill-rule:nonzero;fill:rgb(5.882353%,12.156863%,17.254902%);fill-opacity:1;" d="M 31.300781 36.902344 C 31.511719 36.902344 31.722656 36.898438 31.9375 36.894531 C 32.238281 36.894531 32.238281 36.894531 32.546875 36.894531 C 32.828125 36.894531 32.828125 36.894531 33.109375 36.890625 C 33.5625 36.9375 33.5625 36.9375 33.9375 37.3125 C 33.890625 37.886719 33.890625 37.886719 33.75 38.4375 C 33.023438 38.800781 32.125 38.667969 31.324219 38.671875 C 31.132812 38.675781 30.941406 38.679688 30.746094 38.683594 C 30.5625 38.683594 30.382812 38.683594 30.195312 38.6875 C 30.027344 38.6875 29.859375 38.6875 29.6875 38.691406 C 29.25 38.625 29.25 38.625 28.90625 38.371094 C 28.6875 38.0625 28.6875 38.0625 28.734375 37.570312 C 29.066406 36.515625 30.355469 36.902344 31.300781 36.902344 Z M 31.300781 36.902344 "/>
<path style=" stroke:none;fill-rule:nonzero;fill:rgb(5.882353%,12.156863%,17.254902%);fill-opacity:1;" d="M 16.675781 36.902344 C 16.886719 36.902344 17.097656 36.898438 17.3125 36.894531 C 17.613281 36.894531 17.613281 36.894531 17.921875 36.894531 C 18.203125 36.894531 18.203125 36.894531 18.484375 36.890625 C 18.9375 36.9375 18.9375 36.9375 19.3125 37.3125 C 19.265625 37.886719 19.265625 37.886719 19.125 38.4375 C 18.398438 38.800781 17.5 38.667969 16.699219 38.671875 C 16.507812 38.675781 16.316406 38.679688 16.121094 38.683594 C 15.9375 38.683594 15.757812 38.683594 15.570312 38.6875 C 15.402344 38.6875 15.234375 38.6875 15.0625 38.691406 C 14.625 38.625 14.625 38.625 14.28125 38.371094 C 14.0625 38.0625 14.0625 38.0625 14.109375 37.570312 C 14.441406 36.515625 15.730469 36.902344 16.675781 36.902344 Z M 16.675781 36.902344 "/>
<path style=" stroke:none;fill-rule:nonzero;fill:rgb(5.882353%,12.156863%,17.647059%);fill-opacity:1;" d="M 37.988281 36.878906 C 38.199219 36.878906 38.410156 36.878906 38.625 36.878906 C 38.941406 36.875 38.941406 36.875 39.261719 36.871094 C 39.558594 36.871094 39.558594 36.871094 39.867188 36.871094 C 40.050781 36.871094 40.234375 36.867188 40.425781 36.867188 C 40.648438 36.902344 40.648438 36.902344 40.875 36.9375 C 41.25 37.5 41.25 37.5 41.203125 37.886719 C 41.0625 38.25 41.0625 38.25 40.6875 38.625 C 40.273438 38.671875 40.273438 38.671875 39.769531 38.675781 C 39.496094 38.675781 39.496094 38.675781 39.214844 38.675781 C 39.023438 38.675781 38.832031 38.671875 38.636719 38.671875 C 38.445312 38.671875 38.253906 38.675781 38.058594 38.675781 C 37.875 38.675781 37.695312 38.675781 37.507812 38.675781 C 37.339844 38.675781 37.171875 38.671875 37 38.671875 C 36.5625 38.625 36.5625 38.625 36 38.25 C 35.941406 37.78125 35.941406 37.78125 36 37.3125 C 36.582031 36.730469 37.195312 36.882812 37.988281 36.878906 Z M 37.988281 36.878906 "/>
<path style=" stroke:none;fill-rule:nonzero;fill:rgb(5.882353%,12.156863%,17.647059%);fill-opacity:1;" d="M 9.363281 36.902344 C 9.574219 36.902344 9.785156 36.898438 10 36.894531 C 10.300781 36.894531 10.300781 36.894531 10.609375 36.894531 C 10.890625 36.894531 10.890625 36.894531 11.171875 36.890625 C 11.625 36.9375 11.625 36.9375 12 37.3125 C 12.058594 37.78125 12.058594 37.78125 12 38.25 C 11.160156 38.808594 10.359375 38.6875 9.375 38.683594 C 9.183594 38.6875 8.996094 38.6875 8.800781 38.691406 C 8.527344 38.691406 8.527344 38.691406 8.25 38.691406 C 8.085938 38.691406 7.917969 38.695312 7.746094 38.695312 C 7.3125 38.625 7.3125 38.625 6.96875 38.371094 C 6.75 38.0625 6.75 38.0625 6.796875 37.570312 C 7.128906 36.515625 8.417969 36.902344 9.363281 36.902344 Z M 9.363281 36.902344 "/>
<path style=" stroke:none;fill-rule:nonzero;fill:rgb(5.882353%,11.764706%,17.254902%);fill-opacity:1;" d="M 23.988281 36.890625 C 24.199219 36.886719 24.410156 36.882812 24.625 36.878906 C 24.828125 36.878906 25.027344 36.878906 25.234375 36.875 C 25.421875 36.875 25.605469 36.871094 25.796875 36.871094 C 25.945312 36.890625 26.097656 36.914062 26.25 36.9375 C 26.625 37.5 26.625 37.5 26.578125 37.992188 C 26.53125 38.140625 26.484375 38.285156 26.4375 38.4375 C 25.710938 38.800781 24.8125 38.667969 24.011719 38.671875 C 23.820312 38.675781 23.628906 38.679688 23.433594 38.683594 C 23.25 38.683594 23.070312 38.683594 22.882812 38.6875 C 22.714844 38.6875 22.546875 38.691406 22.375 38.691406 C 21.9375 38.625 21.9375 38.625 21.59375 38.371094 C 21.375 38.0625 21.375 38.0625 21.421875 37.570312 C 21.753906 36.515625 23.042969 36.894531 23.988281 36.890625 Z M 23.988281 36.890625 "/>
<path style=" stroke:none;fill-rule:nonzero;fill:rgb(36.862746%,72.156864%,90.980393%);fill-opacity:1;" d="M 30.75 2.4375 C 32.484375 2.4375 34.214844 2.4375 36 2.4375 C 36 2.808594 36 3.179688 36 3.5625 C 35.8125 3.75 35.8125 3.75 35.328125 3.769531 C 35.113281 3.769531 34.90625 3.769531 34.6875 3.769531 C 34.457031 3.765625 34.230469 3.765625 33.996094 3.765625 C 33.757812 3.765625 33.515625 3.761719 33.269531 3.761719 C 33.027344 3.761719 32.789062 3.757812 32.539062 3.757812 C 31.945312 3.757812 31.347656 3.753906 30.75 3.75 C 30.75 3.316406 30.75 2.882812 30.75 2.4375 Z M 30.75 2.4375 "/>
<path style=" stroke:none;fill-rule:nonzero;fill:rgb(5.882353%,11.764706%,17.647059%);fill-opacity:1;" d="M 33.269531 24.339844 C 33.484375 24.339844 33.703125 24.335938 33.925781 24.332031 C 34.5 24.375 34.5 24.375 35.0625 24.75 C 35.121094 25.21875 35.121094 25.21875 35.0625 25.6875 C 34.597656 26.152344 34.308594 26.117188 33.671875 26.121094 C 33.480469 26.121094 33.480469 26.121094 33.28125 26.121094 C 33.152344 26.125 33.023438 26.125 32.890625 26.128906 C 32.515625 26.128906 32.515625 26.128906 31.875 26.0625 C 31.5 25.5 31.5 25.5 31.546875 25.007812 C 31.59375 24.859375 31.640625 24.714844 31.6875 24.5625 C 32.21875 24.296875 32.675781 24.34375 33.269531 24.339844 Z M 33.269531 24.339844 "/>
<path style=" stroke:none;fill-rule:nonzero;fill:rgb(93.725491%,94.117647%,94.509804%);fill-opacity:1;" d="M 14.4375 20.390625 C 15 20.4375 15 20.4375 15.375 20.8125 C 15.441406 21.34375 15.441406 21.640625 15.164062 22.101562 C 14.640625 22.414062 14.261719 22.265625 13.6875 22.125 C 13.570312 21.492188 13.570312 21.492188 13.5 20.8125 C 13.875 20.4375 13.875 20.4375 14.4375 20.390625 Z M 14.4375 20.390625 "/>
</g>
</svg>
