<?xml version="1.0" encoding="UTF-8"?>
<svg xmlns="http://www.w3.org/2000/svg" xmlns:xlink="http://www.w3.org/1999/xlink" width="48" height="48" viewBox="0 0 48 48" version="1.1">
<g id="surface1">
<path style=" stroke:none;fill-rule:nonzero;fill:rgb(42.352942%,49.411765%,84.313726%);fill-opacity:1;" d="M 20.25 4.3125 C 20.660156 4.554688 20.660156 4.554688 21 4.886719 C 21.125 5.007812 21.246094 5.125 21.375 5.25 C 21.5 5.375 21.621094 5.496094 21.75 5.625 C 21.945312 5.796875 21.945312 5.796875 22.144531 5.972656 C 23.050781 6.792969 23.050781 6.792969 23.097656 7.417969 C 22.875 7.875 22.875 7.875 22.476562 8.402344 C 22.074219 9.089844 22.050781 9.398438 22.199219 10.15625 C 22.378906 10.699219 22.585938 10.9375 23.0625 11.25 C 23.847656 11.46875 24.242188 11.488281 25.007812 11.191406 C 25.515625 10.921875 25.515625 10.921875 25.6875 10.5 C 26.078125 10.425781 26.078125 10.425781 26.625 10.5 C 27.097656 10.847656 27.488281 11.265625 27.890625 11.695312 C 28 11.808594 28.113281 11.921875 28.226562 12.039062 C 29.207031 13.054688 29.207031 13.054688 29.34375 13.90625 C 29.210938 14.933594 28.683594 15.339844 27.9375 16.019531 C 27.8125 16.136719 27.6875 16.257812 27.558594 16.382812 C 27.25 16.675781 26.9375 16.964844 26.625 17.25 C 26.828125 17.671875 27.03125 18.042969 27.304688 18.421875 C 27.644531 19.101562 27.714844 19.699219 27.5625 20.4375 C 27.234375 21.050781 26.78125 21.457031 26.203125 21.84375 C 25.425781 21.984375 24.730469 21.851562 24 21.5625 C 23.691406 21.316406 23.382812 21.066406 23.0625 20.8125 C 22.074219 21.800781 21.082031 22.792969 20.0625 23.8125 C 20.386719 24.460938 20.550781 24.714844 21.054688 25.175781 C 21.171875 25.289062 21.289062 25.402344 21.414062 25.515625 C 21.660156 25.746094 21.914062 25.980469 22.164062 26.207031 C 22.492188 26.523438 22.792969 26.820312 23.0625 27.1875 C 23.066406 27.722656 23.066406 27.722656 22.875 28.125 C 22.78125 28.207031 22.6875 28.289062 22.59375 28.371094 C 22.210938 28.800781 22.152344 29.238281 22.097656 29.800781 C 22.140625 30.445312 22.464844 30.832031 22.875 31.3125 C 23.480469 31.613281 24.097656 31.617188 24.75 31.5 C 25.078125 31.292969 25.078125 31.292969 25.359375 31.019531 C 25.613281 30.792969 25.613281 30.792969 25.875 30.5625 C 26.808594 30.640625 27.355469 31.367188 27.984375 31.992188 C 28.105469 32.105469 28.226562 32.21875 28.355469 32.335938 C 28.949219 32.921875 29.226562 33.226562 29.363281 34.070312 C 29.242188 34.722656 29.132812 34.96875 28.675781 35.4375 C 28.558594 35.5625 28.4375 35.6875 28.316406 35.8125 C 27.207031 36.90625 27.207031 36.90625 26.867188 37.226562 C 26.582031 37.488281 26.582031 37.488281 26.625 37.875 C 26.871094 38.128906 27.121094 38.378906 27.375 38.625 C 27.675781 39.226562 27.652344 39.84375 27.5625 40.5 C 27.261719 41.082031 27 41.480469 26.484375 41.882812 C 25.484375 42.160156 24.804688 42.128906 23.90625 41.648438 C 23.75 41.515625 23.597656 41.386719 23.4375 41.25 C 23.4375 41.125 23.4375 41.003906 23.4375 40.875 C 22.550781 41.628906 21.703125 42.402344 20.898438 43.242188 C 20.484375 43.632812 20.234375 43.691406 19.664062 43.785156 C 18.609375 43.644531 18.152344 43.078125 17.4375 42.328125 C 17.242188 42.136719 17.242188 42.136719 17.042969 41.941406 C 16.347656 41.226562 16.347656 41.226562 16.125 40.875 C 16.175781 40.304688 16.304688 40.136719 16.699219 39.703125 C 17.121094 39.101562 17.1875 38.769531 17.148438 38.050781 C 16.996094 37.394531 16.660156 37.125 16.125 36.75 C 15.375 36.535156 15 36.476562 14.285156 36.808594 C 13.867188 37.117188 13.867188 37.117188 13.5 37.5 C 12.757812 37.445312 12.390625 37.230469 11.875 36.707031 C 11.75 36.578125 11.625 36.449219 11.492188 36.320312 C 11.359375 36.179688 11.226562 36.042969 11.089844 35.898438 C 10.949219 35.757812 10.8125 35.617188 10.667969 35.472656 C 10.222656 35.019531 9.78125 34.566406 9.339844 34.113281 C 8.898438 33.660156 8.453125 33.207031 8.007812 32.753906 C 7.730469 32.472656 7.453125 32.1875 7.175781 31.90625 C 7.054688 31.777344 6.929688 31.648438 6.800781 31.519531 C 6.636719 31.351562 6.636719 31.351562 6.46875 31.175781 C 6.203125 30.894531 6.203125 30.894531 5.8125 30.9375 C 5.558594 31.183594 5.308594 31.433594 5.0625 31.6875 C 4.414062 32.011719 3.707031 31.945312 3 31.875 C 2.269531 31.5625 1.984375 31.285156 1.6875 30.5625 C 1.574219 29.816406 1.480469 29.015625 1.898438 28.359375 C 2.15625 28.101562 2.15625 28.101562 2.625 27.75 C 2.285156 26.839844 1.5 26.265625 0.78125 25.644531 C 0.203125 25.101562 0.015625 24.820312 -0.15625 24.019531 C -0.0742188 22.984375 0.675781 22.410156 1.40625 21.75 C 1.542969 21.621094 1.675781 21.496094 1.8125 21.363281 C 2.144531 21.050781 2.476562 20.742188 2.8125 20.4375 C 3.226562 20.632812 3.5625 20.8125 3.914062 21.105469 C 4.441406 21.460938 4.804688 21.535156 5.4375 21.5625 C 6.238281 21.3125 6.5 21.101562 6.9375 20.378906 C 7.15625 19.578125 7.117188 19.296875 6.75 18.5625 C 6.375 18.035156 6.375 18.035156 6 17.625 C 6.253906 17.054688 6.539062 16.667969 6.988281 16.234375 C 7.113281 16.113281 7.238281 15.992188 7.363281 15.867188 C 7.5 15.738281 7.632812 15.609375 7.773438 15.472656 C 8.054688 15.199219 8.335938 14.921875 8.617188 14.644531 C 9.0625 14.210938 9.507812 13.78125 9.953125 13.347656 C 10.382812 12.929688 10.8125 12.507812 11.242188 12.089844 C 11.375 11.957031 11.511719 11.828125 11.648438 11.695312 C 11.773438 11.574219 11.894531 11.453125 12.023438 11.328125 C 12.132812 11.222656 12.238281 11.117188 12.351562 11.007812 C 12.605469 10.695312 12.605469 10.695312 12.519531 10.292969 C 12.390625 9.917969 12.390625 9.917969 12.09375 9.609375 C 11.691406 9.003906 11.601562 8.398438 11.625 7.6875 C 11.851562 7.027344 12.0625 6.671875 12.585938 6.210938 C 13.34375 5.914062 14.011719 5.84375 14.8125 6 C 15.269531 6.269531 15.5625 6.550781 15.9375 6.9375 C 16.851562 6.59375 17.433594 5.808594 18.058594 5.09375 C 18.753906 4.355469 19.195312 4.136719 20.25 4.3125 Z M 20.25 4.3125 "/>
<path style=" stroke:none;fill-rule:nonzero;fill:rgb(5.490196%,81.960785%,69.803923%);fill-opacity:1;" d="M 19.6875 24 C 20.53125 24.691406 21.335938 25.417969 22.125 26.167969 C 22.21875 26.253906 22.3125 26.339844 22.410156 26.429688 C 22.675781 26.683594 22.675781 26.683594 23.0625 27.1875 C 23.046875 27.703125 23.046875 27.703125 22.875 28.125 C 22.78125 28.207031 22.6875 28.289062 22.59375 28.371094 C 22.210938 28.800781 22.152344 29.238281 22.097656 29.800781 C 22.140625 30.445312 22.464844 30.832031 22.875 31.3125 C 23.480469 31.613281 24.097656 31.617188 24.75 31.5 C 25.078125 31.292969 25.078125 31.292969 25.359375 31.019531 C 25.53125 30.867188 25.699219 30.71875 25.875 30.5625 C 26.808594 30.640625 27.355469 31.367188 27.984375 31.992188 C 28.167969 32.160156 28.167969 32.160156 28.355469 32.335938 C 28.949219 32.921875 29.226562 33.226562 29.363281 34.070312 C 29.242188 34.722656 29.132812 34.96875 28.675781 35.4375 C 28.558594 35.5625 28.4375 35.6875 28.316406 35.8125 C 27.207031 36.90625 27.207031 36.90625 26.867188 37.226562 C 26.582031 37.488281 26.582031 37.488281 26.625 37.875 C 26.871094 38.128906 27.121094 38.378906 27.375 38.625 C 27.675781 39.226562 27.652344 39.84375 27.5625 40.5 C 27.261719 41.082031 27 41.480469 26.484375 41.882812 C 25.484375 42.160156 24.804688 42.128906 23.90625 41.648438 C 23.75 41.515625 23.597656 41.386719 23.4375 41.25 C 23.4375 41.125 23.4375 41.003906 23.4375 40.875 C 22.550781 41.628906 21.703125 42.402344 20.898438 43.242188 C 20.484375 43.632812 20.234375 43.691406 19.664062 43.785156 C 18.609375 43.644531 18.152344 43.078125 17.4375 42.328125 C 17.308594 42.199219 17.179688 42.074219 17.042969 41.941406 C 16.347656 41.226562 16.347656 41.226562 16.125 40.875 C 16.175781 40.304688 16.304688 40.136719 16.699219 39.703125 C 17.121094 39.101562 17.1875 38.769531 17.148438 38.050781 C 16.996094 37.394531 16.660156 37.125 16.125 36.75 C 15.375 36.535156 15 36.476562 14.285156 36.808594 C 13.867188 37.117188 13.867188 37.117188 13.5 37.5 C 12.71875 37.453125 12.351562 37.191406 11.8125 36.636719 C 11.683594 36.503906 11.550781 36.371094 11.414062 36.230469 C 11.277344 36.089844 11.144531 35.949219 11.003906 35.800781 C 10.867188 35.660156 10.726562 35.515625 10.582031 35.371094 C 10.242188 35.019531 9.902344 34.667969 9.5625 34.3125 C 9.820312 33.726562 10.121094 33.335938 10.582031 32.894531 C 10.707031 32.769531 10.832031 32.648438 10.960938 32.523438 C 11.15625 32.335938 11.15625 32.335938 11.355469 32.144531 C 11.613281 31.894531 11.871094 31.644531 12.128906 31.394531 C 12.242188 31.285156 12.359375 31.171875 12.476562 31.058594 C 12.792969 30.742188 12.792969 30.742188 12.9375 30.1875 C 12.820312 30.140625 12.703125 30.09375 12.585938 30.046875 C 12.089844 29.753906 11.984375 29.609375 11.8125 29.0625 C 11.671875 27.808594 11.671875 27.808594 12.007812 27.222656 C 12.34375 26.8125 12.652344 26.484375 13.125 26.25 C 14.042969 26.171875 14.457031 26.160156 15.28125 26.601562 C 15.515625 26.800781 15.515625 26.800781 15.75 27 C 15.75 27.125 15.75 27.246094 15.75 27.375 C 16.675781 26.898438 17.320312 26.214844 18.035156 25.476562 C 18.269531 25.238281 18.5 25 18.734375 24.757812 C 18.835938 24.65625 18.9375 24.550781 19.042969 24.441406 C 19.3125 24.1875 19.3125 24.1875 19.6875 24 Z M 19.6875 24 "/>
<path style=" stroke:none;fill-rule:nonzero;fill:rgb(100%,87.843138%,46.27451%);fill-opacity:1;" d="M 38.792969 14.332031 C 39.578125 14.542969 40.046875 15.160156 40.570312 15.75 C 40.796875 15.996094 41.027344 16.242188 41.253906 16.488281 C 41.351562 16.597656 41.453125 16.707031 41.554688 16.824219 C 41.800781 17.105469 41.800781 17.105469 42.1875 17.0625 C 42.441406 16.816406 42.691406 16.566406 42.9375 16.3125 C 43.375 16.09375 43.648438 16.09375 44.132812 16.089844 C 44.347656 16.085938 44.347656 16.085938 44.570312 16.082031 C 45.246094 16.148438 45.632812 16.367188 46.078125 16.875 C 46.417969 17.691406 46.472656 18.445312 46.3125 19.3125 C 46.039062 19.738281 45.789062 19.941406 45.375 20.25 C 45.71875 21.160156 46.503906 21.734375 47.21875 22.355469 C 47.800781 22.898438 47.984375 23.179688 48.15625 23.980469 C 48.074219 25.015625 47.324219 25.589844 46.59375 26.25 C 46.460938 26.378906 46.324219 26.503906 46.1875 26.636719 C 45.855469 26.949219 45.523438 27.257812 45.1875 27.5625 C 44.777344 27.367188 44.4375 27.1875 44.085938 26.894531 C 43.5625 26.539062 43.195312 26.464844 42.5625 26.4375 C 41.761719 26.6875 41.5 26.898438 41.0625 27.621094 C 40.847656 28.421875 40.882812 28.703125 41.25 29.4375 C 41.625 29.964844 41.625 29.964844 42 30.375 C 41.625 31.191406 41.097656 31.75 40.476562 32.390625 C 40.375 32.503906 40.273438 32.617188 40.167969 32.730469 C 39.640625 33.277344 39.21875 33.644531 38.441406 33.71875 C 37.457031 33.632812 36.929688 32.953125 36.304688 32.25 C 36.078125 32.003906 35.847656 31.757812 35.621094 31.511719 C 35.519531 31.402344 35.425781 31.292969 35.324219 31.179688 C 35.074219 30.894531 35.074219 30.894531 34.6875 30.9375 C 34.433594 31.183594 34.183594 31.433594 33.9375 31.6875 C 33.285156 32.011719 32.585938 31.984375 31.875 31.875 C 31.300781 31.554688 30.863281 31.160156 30.5625 30.5625 C 30.457031 29.554688 30.460938 28.753906 31.125 27.9375 C 31.308594 27.84375 31.308594 27.84375 31.5 27.75 C 31.160156 26.839844 30.371094 26.265625 29.65625 25.644531 C 29.078125 25.101562 28.890625 24.824219 28.722656 24.019531 C 28.804688 22.992188 29.519531 22.40625 30.234375 21.738281 C 30.363281 21.609375 30.492188 21.480469 30.621094 21.347656 C 31.335938 20.65625 31.335938 20.65625 31.6875 20.4375 C 32.246094 20.488281 32.398438 20.582031 32.789062 21 C 33.304688 21.484375 33.605469 21.550781 34.3125 21.5625 C 35.046875 21.316406 35.359375 21.113281 35.800781 20.472656 C 36.035156 19.765625 36.042969 19.457031 35.8125 18.75 C 35.523438 18.285156 35.210938 17.871094 34.875 17.4375 C 35.304688 16.929688 35.746094 16.433594 36.1875 15.9375 C 36.308594 15.792969 36.429688 15.652344 36.554688 15.503906 C 36.679688 15.371094 36.800781 15.230469 36.925781 15.09375 C 37.035156 14.96875 37.144531 14.84375 37.257812 14.714844 C 37.769531 14.386719 38.191406 14.304688 38.792969 14.332031 Z M 38.792969 14.332031 "/>
<path style=" stroke:none;fill-rule:nonzero;fill:rgb(98.823529%,27.450982%,32.941177%);fill-opacity:1;" d="M 9.375 13.875 C 10.367188 14.699219 11.277344 15.574219 12.167969 16.503906 C 12.417969 16.761719 12.675781 17.007812 12.9375 17.25 C 13.375 17.292969 13.375 17.292969 13.78125 16.792969 C 14.015625 16.554688 14.015625 16.554688 14.25 16.3125 C 14.921875 15.976562 15.609375 16.105469 16.3125 16.3125 C 16.84375 16.667969 17.167969 17.042969 17.4375 17.625 C 17.523438 18.238281 17.460938 18.730469 17.25 19.3125 C 16.769531 19.886719 16.769531 19.886719 16.3125 20.25 C 16.574219 20.839844 16.878906 21.234375 17.339844 21.6875 C 17.464844 21.8125 17.589844 21.9375 17.71875 22.066406 C 17.851562 22.195312 17.984375 22.320312 18.117188 22.453125 C 18.25 22.585938 18.382812 22.714844 18.519531 22.847656 C 18.84375 23.171875 19.171875 23.492188 19.5 23.8125 C 19.09375 24.722656 18.425781 25.320312 17.730469 26.015625 C 17.601562 26.148438 17.476562 26.277344 17.34375 26.410156 C 17.21875 26.535156 17.097656 26.660156 16.96875 26.785156 C 16.855469 26.898438 16.742188 27.011719 16.628906 27.128906 C 16.3125 27.375 16.3125 27.375 15.75 27.375 C 15.492188 27.132812 15.242188 26.882812 15 26.625 C 14.398438 26.324219 13.777344 26.34375 13.125 26.4375 C 12.597656 26.773438 12.28125 27.003906 12 27.5625 C 11.933594 28.566406 11.917969 29.179688 12.5625 30 C 12.6875 30.0625 12.808594 30.125 12.9375 30.1875 C 12.832031 30.894531 12.539062 31.214844 12.035156 31.707031 C 11.820312 31.921875 11.820312 31.921875 11.601562 32.136719 C 11.449219 32.28125 11.296875 32.429688 11.144531 32.578125 C 10.992188 32.726562 10.839844 32.875 10.6875 33.027344 C 10.3125 33.394531 9.9375 33.761719 9.5625 34.125 C 8.617188 33.335938 7.742188 32.503906 6.890625 31.617188 C 6.660156 31.382812 6.425781 31.160156 6.1875 30.9375 C 5.769531 30.894531 5.769531 30.894531 5.4375 31.300781 C 5.3125 31.429688 5.191406 31.554688 5.0625 31.6875 C 4.414062 32.011719 3.707031 31.945312 3 31.875 C 2.269531 31.5625 1.984375 31.285156 1.6875 30.5625 C 1.574219 29.816406 1.480469 29.015625 1.898438 28.359375 C 2.15625 28.101562 2.15625 28.101562 2.625 27.75 C 2.285156 26.839844 1.5 26.265625 0.78125 25.644531 C 0.203125 25.101562 0.015625 24.820312 -0.15625 24.019531 C -0.0742188 22.984375 0.675781 22.410156 1.40625 21.75 C 1.542969 21.621094 1.675781 21.496094 1.8125 21.363281 C 2.144531 21.050781 2.476562 20.742188 2.8125 20.4375 C 3.226562 20.632812 3.5625 20.8125 3.914062 21.105469 C 4.441406 21.460938 4.804688 21.535156 5.4375 21.5625 C 6.238281 21.3125 6.5 21.101562 6.9375 20.378906 C 7.15625 19.578125 7.117188 19.296875 6.75 18.5625 C 6.375 18.035156 6.375 18.035156 6 17.625 C 6.269531 17.015625 6.59375 16.613281 7.070312 16.144531 C 7.203125 16.011719 7.335938 15.878906 7.472656 15.742188 C 7.613281 15.605469 7.753906 15.46875 7.898438 15.328125 C 8.039062 15.1875 8.179688 15.046875 8.328125 14.90625 C 8.675781 14.5625 9.023438 14.21875 9.375 13.875 Z M 9.375 13.875 "/>
<path style=" stroke:none;fill-rule:nonzero;fill:rgb(3.921569%,71.764708%,62.7451%);fill-opacity:1;" d="M 26.246094 30.597656 C 26.960938 30.886719 27.445312 31.457031 27.984375 31.992188 C 28.105469 32.105469 28.226562 32.21875 28.351562 32.335938 C 28.949219 32.921875 29.226562 33.222656 29.367188 34.070312 C 29.242188 34.722656 29.132812 34.972656 28.675781 35.4375 C 28.558594 35.5625 28.441406 35.6875 28.316406 35.8125 C 27.207031 36.90625 27.207031 36.90625 26.867188 37.230469 C 26.582031 37.488281 26.582031 37.488281 26.625 37.875 C 26.871094 38.128906 27.121094 38.378906 27.375 38.625 C 27.675781 39.226562 27.652344 39.847656 27.5625 40.5 C 27.261719 41.082031 27 41.476562 26.484375 41.882812 C 25.839844 42.0625 25.226562 42.09375 24.5625 42 C 24.09375 41.71875 24.09375 41.71875 23.8125 41.4375 C 23.90625 41.3125 23.996094 41.191406 24.09375 41.0625 C 24.441406 40.363281 24.542969 39.757812 24.375 39 C 24.164062 38.671875 24.164062 38.671875 23.894531 38.390625 C 23.746094 38.222656 23.59375 38.050781 23.4375 37.875 C 23.488281 37.253906 23.722656 36.964844 24.175781 36.558594 C 24.285156 36.457031 24.394531 36.355469 24.507812 36.246094 C 24.738281 36.035156 24.972656 35.824219 25.207031 35.617188 C 25.886719 34.972656 25.886719 34.972656 26.179688 34.097656 C 26.042969 33.472656 25.855469 33.222656 25.40625 32.777344 C 24.75 32.117188 24.75 32.117188 24.75 31.5 C 25.703125 30.546875 25.703125 30.546875 26.246094 30.597656 Z M 26.246094 30.597656 "/>
<path style=" stroke:none;fill-rule:nonzero;fill:rgb(31.37255%,40.000001%,81.568629%);fill-opacity:1;" d="M 25.6875 10.5 C 26.078125 10.425781 26.078125 10.425781 26.625 10.5 C 27.097656 10.847656 27.488281 11.265625 27.890625 11.695312 C 28 11.808594 28.113281 11.921875 28.226562 12.039062 C 29.207031 13.054688 29.207031 13.054688 29.34375 13.90625 C 29.210938 14.933594 28.683594 15.339844 27.9375 16.019531 C 27.8125 16.136719 27.6875 16.257812 27.558594 16.382812 C 27.25 16.675781 26.9375 16.964844 26.625 17.25 C 26.828125 17.671875 27.03125 18.042969 27.304688 18.421875 C 27.644531 19.101562 27.714844 19.699219 27.5625 20.4375 C 27.234375 21.050781 26.78125 21.457031 26.203125 21.84375 C 25.425781 21.984375 24.75 21.773438 24 21.5625 C 24 21 24 21 24.1875 20.683594 C 24.464844 20.039062 24.511719 19.429688 24.375 18.75 C 24.101562 18.300781 23.8125 18 23.4375 17.625 C 23.738281 16.867188 24.28125 16.371094 24.855469 15.820312 C 25.726562 15.015625 25.726562 15.015625 26.167969 13.945312 C 26.019531 13.0625 25.542969 12.71875 24.890625 12.136719 C 24.78125 12.03125 24.671875 11.921875 24.5625 11.8125 C 24.5625 11.6875 24.5625 11.566406 24.5625 11.4375 C 24.875 11.246094 25.183594 11.058594 25.5 10.875 C 25.5625 10.75 25.625 10.628906 25.6875 10.5 Z M 25.6875 10.5 "/>
<path style=" stroke:none;fill-rule:nonzero;fill:rgb(100%,81.960785%,36.078432%);fill-opacity:1;" d="M 44.15625 16.078125 C 44.296875 16.078125 44.4375 16.078125 44.582031 16.074219 C 45.25 16.15625 45.640625 16.371094 46.078125 16.875 C 46.417969 17.6875 46.472656 18.445312 46.3125 19.3125 C 46.039062 19.738281 45.789062 19.941406 45.375 20.25 C 45.714844 21.160156 46.5 21.734375 47.21875 22.355469 C 47.796875 22.898438 47.984375 23.179688 48.15625 23.980469 C 48.074219 25.015625 47.324219 25.589844 46.59375 26.25 C 46.457031 26.378906 46.324219 26.503906 46.1875 26.636719 C 45.855469 26.949219 45.523438 27.257812 45.1875 27.5625 C 44.523438 27.242188 43.921875 26.855469 43.3125 26.4375 C 43.492188 26.226562 43.671875 26.015625 43.851562 25.804688 C 43.953125 25.6875 44.050781 25.570312 44.15625 25.449219 C 44.363281 25.207031 44.585938 24.976562 44.8125 24.75 C 44.929688 23.996094 45 23.527344 44.566406 22.882812 C 44.226562 22.515625 43.871094 22.175781 43.5 21.84375 C 43.375 21.726562 43.25 21.609375 43.121094 21.484375 C 42.8125 21.195312 42.503906 20.90625 42.1875 20.625 C 42.386719 20.207031 42.542969 19.894531 42.867188 19.558594 C 43.269531 18.878906 43.230469 18.207031 43.125 17.4375 C 42.875 16.878906 42.875 16.878906 42.5625 16.5 C 43.117188 16.183594 43.519531 16.074219 44.15625 16.078125 Z M 44.15625 16.078125 "/>
<path style=" stroke:none;fill-rule:nonzero;fill:rgb(97.647059%,16.862746%,23.137255%);fill-opacity:1;" d="M 15.882812 16.175781 C 16.523438 16.378906 16.859375 16.695312 17.253906 17.230469 C 17.585938 17.949219 17.519531 18.582031 17.25 19.3125 C 16.769531 19.886719 16.769531 19.886719 16.3125 20.25 C 16.574219 20.839844 16.878906 21.234375 17.339844 21.6875 C 17.464844 21.8125 17.589844 21.9375 17.71875 22.066406 C 17.917969 22.257812 17.917969 22.257812 18.117188 22.453125 C 18.25 22.582031 18.382812 22.714844 18.519531 22.851562 C 18.84375 23.171875 19.171875 23.492188 19.5 23.8125 C 19.09375 24.722656 18.425781 25.320312 17.730469 26.015625 C 17.601562 26.144531 17.476562 26.277344 17.34375 26.414062 C 17.21875 26.535156 17.097656 26.660156 16.96875 26.785156 C 16.855469 26.898438 16.742188 27.011719 16.628906 27.128906 C 16.3125 27.375 16.3125 27.375 15.75 27.375 C 15.492188 27.132812 15.242188 26.882812 15 26.625 C 14.875 26.5625 14.753906 26.5 14.625 26.4375 C 14.953125 25.675781 15.4375 25.261719 16.058594 24.726562 C 16.351562 24.390625 16.351562 24.390625 16.339844 23.945312 C 15.949219 23.027344 15.136719 22.441406 14.40625 21.78125 C 14.078125 21.472656 13.773438 21.175781 13.5 20.8125 C 13.496094 20.199219 13.578125 20 13.980469 19.546875 C 14.488281 18.75 14.304688 17.761719 14.15625 16.863281 C 14.125 16.742188 14.09375 16.625 14.0625 16.5 C 14.757812 16.039062 15.082031 16.0625 15.882812 16.175781 Z M 15.882812 16.175781 "/>
<path style=" stroke:none;fill-rule:nonzero;fill:rgb(31.37255%,40.392157%,81.568629%);fill-opacity:1;" d="M 19.523438 4.207031 C 20.5625 4.359375 21.023438 4.902344 21.75 5.625 C 21.878906 5.738281 22.007812 5.851562 22.144531 5.972656 C 23.050781 6.792969 23.050781 6.792969 23.097656 7.417969 C 22.875 7.875 22.875 7.875 22.476562 8.402344 C 21.992188 9.222656 22.101562 9.582031 22.3125 10.5 C 22.433594 10.683594 22.558594 10.871094 22.6875 11.0625 C 22.195312 11.558594 21.917969 11.625 21.210938 11.707031 C 20.410156 11.675781 19.933594 11.390625 19.3125 10.875 C 18.855469 10.1875 18.777344 9.613281 18.9375 8.8125 C 19.152344 8.492188 19.152344 8.492188 19.417969 8.203125 C 19.921875 7.757812 19.921875 7.757812 19.855469 7.332031 C 19.636719 6.816406 19.328125 6.523438 18.925781 6.140625 C 18.71875 5.941406 18.71875 5.941406 18.507812 5.738281 C 18.402344 5.640625 18.296875 5.539062 18.1875 5.4375 C 18.523438 4.714844 18.695312 4.355469 19.523438 4.207031 Z M 19.523438 4.207031 "/>
<path style=" stroke:none;fill-rule:nonzero;fill:rgb(3.921569%,71.372551%,62.352943%);fill-opacity:1;" d="M 19.6875 24 C 20.53125 24.691406 21.335938 25.417969 22.125 26.167969 C 22.21875 26.253906 22.3125 26.339844 22.410156 26.429688 C 22.675781 26.683594 22.675781 26.683594 23.0625 27.1875 C 23.046875 27.703125 23.046875 27.703125 22.875 28.125 C 22.78125 28.207031 22.6875 28.289062 22.59375 28.371094 C 22.132812 28.886719 22.121094 29.511719 22.125 30.1875 C 22.28125 30.613281 22.28125 30.613281 22.5 30.9375 C 22.5 31.125 22.5 31.308594 22.5 31.5 C 21.808594 31.941406 21.246094 31.984375 20.4375 31.875 C 19.824219 31.480469 19.265625 31.035156 18.9375 30.375 C 18.859375 29.558594 18.890625 29.148438 19.289062 28.417969 C 19.488281 28.179688 19.488281 28.179688 19.6875 27.9375 C 19.8125 27.9375 19.933594 27.9375 20.0625 27.9375 C 19.8125 27.179688 19.492188 26.738281 18.914062 26.191406 C 18.777344 26.0625 18.644531 25.929688 18.503906 25.792969 C 18.398438 25.695312 18.292969 25.601562 18.1875 25.5 C 18.367188 25.285156 18.546875 25.070312 18.726562 24.855469 C 18.828125 24.734375 18.925781 24.617188 19.03125 24.492188 C 19.3125 24.1875 19.3125 24.1875 19.6875 24 Z M 19.6875 24 "/>
<path style=" stroke:none;fill-rule:nonzero;fill:rgb(100%,81.960785%,35.686275%);fill-opacity:1;" d="M 40.6875 26.25 C 41.15625 26.625 41.15625 26.625 41.4375 27 C 41.335938 27.191406 41.238281 27.386719 41.132812 27.585938 C 40.902344 28.128906 40.871094 28.289062 40.980469 28.898438 C 41.261719 29.460938 41.582031 29.90625 42 30.375 C 41.625 31.191406 41.097656 31.75 40.476562 32.390625 C 40.375 32.503906 40.273438 32.617188 40.167969 32.730469 C 39.617188 33.300781 39.210938 33.640625 38.402344 33.695312 C 37.6875 33.5625 37.6875 33.5625 36.9375 32.625 C 37.554688 32.007812 38.175781 31.386719 38.8125 30.75 C 38.5 30.035156 38.5 30.035156 38.132812 29.683594 C 37.726562 29 37.726562 28.335938 37.875 27.5625 C 38.53125 26.394531 39.378906 26.050781 40.6875 26.25 Z M 40.6875 26.25 "/>
<path style=" stroke:none;fill-rule:nonzero;fill:rgb(97.647059%,16.862746%,22.745098%);fill-opacity:1;" d="M 11.8125 26.25 C 12 26.375 12.183594 26.496094 12.375 26.625 C 12.3125 26.75 12.25 26.871094 12.1875 27 C 11.878906 27.925781 11.839844 28.722656 12.257812 29.613281 C 12.53125 30.019531 12.53125 30.019531 12.9375 30.1875 C 12.832031 30.894531 12.539062 31.214844 12.035156 31.707031 C 11.890625 31.847656 11.75 31.992188 11.601562 32.136719 C 11.375 32.355469 11.375 32.355469 11.144531 32.578125 C 10.992188 32.726562 10.839844 32.875 10.6875 33.027344 C 10.3125 33.394531 9.9375 33.761719 9.5625 34.125 C 9.339844 33.949219 9.125 33.773438 8.90625 33.597656 C 8.785156 33.5 8.664062 33.402344 8.535156 33.300781 C 8.25 33 8.25 33 8.25 32.4375 C 8.625 32.042969 9.03125 31.695312 9.441406 31.335938 C 9.804688 30.957031 9.804688 30.957031 9.71875 30.441406 C 9.589844 29.988281 9.589844 29.988281 9.269531 29.671875 C 8.839844 29 8.855469 28.335938 9 27.5625 C 9.664062 26.375 10.496094 26.097656 11.8125 26.25 Z M 11.8125 26.25 "/>
<path style=" stroke:none;fill-rule:nonzero;fill:rgb(3.921569%,72.156864%,62.7451%);fill-opacity:1;" d="M 20.355469 40.839844 C 20.921875 41.117188 21.425781 41.445312 21.9375 41.8125 C 21.5625 42.65625 21.03125 43.199219 20.25 43.6875 C 19.558594 43.804688 19.558594 43.804688 18.9375 43.6875 C 18.480469 43.3125 18.480469 43.3125 18.1875 42.9375 C 18.589844 42.039062 19.304688 40.917969 20.355469 40.839844 Z M 20.355469 40.839844 "/>
<path style=" stroke:none;fill-rule:nonzero;fill:rgb(32.156864%,40.000001%,80.784315%);fill-opacity:1;" d="M 20.625 20.625 C 20.882812 20.867188 21.132812 21.117188 21.375 21.375 C 21.5 21.4375 21.621094 21.5 21.75 21.5625 C 21.660156 22.371094 21.183594 22.75 20.613281 23.296875 C 20.441406 23.464844 20.269531 23.628906 20.089844 23.804688 C 19.957031 23.929688 19.824219 24.054688 19.6875 24.1875 C 19.136719 23.652344 18.628906 23.128906 18.1875 22.5 C 18.484375 22.183594 18.789062 21.875 19.089844 21.5625 C 19.257812 21.386719 19.425781 21.214844 19.597656 21.035156 C 20.0625 20.625 20.0625 20.625 20.625 20.625 Z M 20.625 20.625 "/>
<path style=" stroke:none;fill-rule:nonzero;fill:rgb(100%,81.960785%,36.078432%);fill-opacity:1;" d="M 38.390625 14.285156 C 39.324219 14.335938 39.804688 14.917969 40.410156 15.574219 C 40.6875 15.9375 40.6875 15.9375 40.6875 16.3125 C 40.378906 16.507812 40.066406 16.695312 39.75 16.875 C 39.625 17 39.503906 17.121094 39.375 17.25 C 38.613281 17.210938 38.238281 16.734375 37.734375 16.207031 C 37.507812 15.972656 37.507812 15.972656 37.28125 15.738281 C 37.167969 15.617188 37.054688 15.5 36.9375 15.375 C 37.359375 14.667969 37.570312 14.464844 38.390625 14.285156 Z M 38.390625 14.285156 "/>
<path style=" stroke:none;fill-rule:nonzero;fill:rgb(98.039216%,16.862746%,22.745098%);fill-opacity:1;" d="M 9.375 13.875 C 10.15625 14.53125 10.933594 15.183594 11.625 15.9375 C 11.625 16.0625 11.625 16.183594 11.625 16.3125 C 11.109375 16.816406 11.109375 16.816406 10.5 17.25 C 9.738281 17.222656 9.363281 16.734375 8.859375 16.207031 C 8.632812 15.976562 8.632812 15.976562 8.40625 15.738281 C 8.292969 15.617188 8.179688 15.5 8.0625 15.375 C 8.246094 15.160156 8.429688 14.945312 8.613281 14.730469 C 8.714844 14.609375 8.816406 14.492188 8.921875 14.367188 C 9.070312 14.199219 9.21875 14.03125 9.375 13.875 Z M 9.375 13.875 "/>
</g>
</svg>
