<?xml version="1.0" encoding="UTF-8"?>
<svg xmlns="http://www.w3.org/2000/svg" xmlns:xlink="http://www.w3.org/1999/xlink" width="48" height="48" viewBox="0 0 48 48" version="1.1">
<g id="surface1">
<path style=" stroke:none;fill-rule:nonzero;fill:rgb(99.607843%,99.607843%,99.607843%);fill-opacity:1;" d="M 1.875 1.875 C 16.476562 1.875 31.078125 1.875 46.125 1.875 C 46.125 16.476562 46.125 31.078125 46.125 46.125 C 31.523438 46.125 16.921875 46.125 1.875 46.125 C 1.875 31.523438 1.875 16.921875 1.875 1.875 Z M 1.875 1.875 "/>
<path style=" stroke:none;fill-rule:nonzero;fill:rgb(16.078432%,16.078432%,19.607843%);fill-opacity:1;" d="M 1.875 1.875 C 16.476562 1.875 31.078125 1.875 46.125 1.875 C 46.125 16.476562 46.125 31.078125 46.125 46.125 C 31.523438 46.125 16.921875 46.125 1.875 46.125 C 1.875 31.523438 1.875 16.921875 1.875 1.875 Z M 6 6 C 6 17.878906 6 29.761719 6 42 C 17.878906 42 29.761719 42 42 42 C 42 30.121094 42 18.238281 42 6 C 30.121094 6 18.238281 6 6 6 Z M 6 6 "/>
<path style=" stroke:none;fill-rule:nonzero;fill:rgb(72.549021%,85.09804%,95.686275%);fill-opacity:1;" d="M 6 6 C 17.878906 6 29.761719 6 42 6 C 42 7.300781 42 8.597656 42 9.9375 C 41.117188 9.914062 41.117188 9.914062 40.21875 9.890625 C 38.265625 9.84375 36.3125 9.820312 34.355469 9.804688 C 33.171875 9.796875 31.988281 9.78125 30.804688 9.75 C 25.417969 9.242188 25.417969 9.242188 20.636719 11.015625 C 20.152344 11.539062 19.734375 12.078125 19.3125 12.652344 C 18.621094 13.554688 18.132812 14.132812 16.972656 14.339844 C 15.375 14.53125 13.765625 14.4375 12.167969 14.332031 C 11.46875 14.292969 10.773438 14.273438 10.074219 14.253906 C 8.714844 14.214844 7.359375 14.136719 6 14.0625 C 6 11.402344 6 8.742188 6 6 Z M 6 6 "/>
<path style=" stroke:none;fill-rule:nonzero;fill:rgb(16.470589%,16.470589%,20%);fill-opacity:1;" d="M 21.9375 26.0625 C 27.257812 26.0625 32.578125 26.0625 38.0625 26.0625 C 38.0625 27.363281 38.0625 28.660156 38.0625 30 C 32.742188 30 27.421875 30 21.9375 30 C 21.9375 28.699219 21.9375 27.402344 21.9375 26.0625 Z M 21.9375 26.0625 "/>
<path style=" stroke:none;fill-rule:nonzero;fill:rgb(18.82353%,18.82353%,22.352941%);fill-opacity:1;" d="M 21.9375 33.9375 C 25.898438 33.9375 29.859375 33.9375 33.9375 33.9375 C 33.9375 35.296875 33.9375 36.660156 33.9375 38.0625 C 29.976562 38.0625 26.015625 38.0625 21.9375 38.0625 C 21.9375 36.703125 21.9375 35.339844 21.9375 33.9375 Z M 21.9375 33.9375 "/>
<path style=" stroke:none;fill-rule:nonzero;fill:rgb(16.078432%,16.078432%,19.607843%);fill-opacity:1;" d="M 18 18 C 21.960938 18 25.921875 18 30 18 C 30 19.300781 30 20.597656 30 21.9375 C 26.039062 21.9375 22.078125 21.9375 18 21.9375 C 18 20.636719 18 19.339844 18 18 Z M 18 18 "/>
<path style=" stroke:none;fill-rule:nonzero;fill:rgb(2.745098%,52.941179%,94.117647%);fill-opacity:1;" d="M 14.0625 33.9375 C 15.363281 33.9375 16.660156 33.9375 18 33.9375 C 18 35.296875 18 36.660156 18 38.0625 C 16.699219 38.0625 15.402344 38.0625 14.0625 38.0625 C 14.0625 36.703125 14.0625 35.339844 14.0625 33.9375 Z M 14.0625 33.9375 "/>
<path style=" stroke:none;fill-rule:nonzero;fill:rgb(2.745098%,52.941179%,94.117647%);fill-opacity:1;" d="M 9.9375 18 C 11.296875 18 12.660156 18 14.0625 18 C 14.0625 19.300781 14.0625 20.597656 14.0625 21.9375 C 12.703125 21.9375 11.339844 21.9375 9.9375 21.9375 C 9.9375 20.636719 9.9375 19.339844 9.9375 18 Z M 9.9375 18 "/>
<path style=" stroke:none;fill-rule:nonzero;fill:rgb(0%,51.764709%,94.117647%);fill-opacity:1;" d="M 14.0625 26.0625 C 15.363281 26.0625 16.660156 26.0625 18 26.0625 C 18 27.363281 18 28.660156 18 30 C 16.699219 30 15.402344 30 14.0625 30 C 14.0625 28.699219 14.0625 27.402344 14.0625 26.0625 Z M 14.0625 26.0625 "/>
</g>
</svg>
