<?xml version="1.0" encoding="UTF-8"?>
<svg xmlns="http://www.w3.org/2000/svg" xmlns:xlink="http://www.w3.org/1999/xlink" width="48" height="48" viewBox="0 0 48 48" version="1.1">
<g id="surface1">
<path style=" stroke:none;fill-rule:nonzero;fill:rgb(94.509804%,38.039216%,45.882353%);fill-opacity:1;" d="M 3.800781 31.046875 C 4.039062 31.042969 4.277344 31.039062 4.519531 31.035156 C 4.777344 31.035156 5.039062 31.035156 5.296875 31.035156 C 5.5625 31.035156 5.828125 31.035156 6.09375 31.03125 C 6.652344 31.03125 7.210938 31.03125 7.765625 31.03125 C 8.480469 31.03125 9.195312 31.027344 9.910156 31.019531 C 10.457031 31.015625 11.007812 31.015625 11.558594 31.015625 C 11.820312 31.015625 12.082031 31.011719 12.347656 31.007812 C 12.714844 31.003906 13.082031 31.007812 13.449219 31.007812 C 13.660156 31.007812 13.867188 31.007812 14.085938 31.007812 C 14.625 31.125 14.625 31.125 15.070312 31.578125 C 15.378906 32.066406 15.464844 32.28125 15.449219 32.851562 C 15.449219 32.976562 15.445312 33.105469 15.441406 33.234375 C 15.4375 33.394531 15.429688 33.550781 15.421875 33.714844 C 15.40625 34.21875 15.390625 34.730469 15.375 35.25 C 16.953125 35.15625 16.953125 35.15625 18.5625 35.0625 C 18.253906 34.753906 17.941406 34.445312 17.625 34.125 C 17.660156 33.691406 17.660156 33.691406 17.8125 33.375 C 18.441406 33.652344 18.878906 34 19.371094 34.476562 C 19.503906 34.601562 19.640625 34.730469 19.777344 34.863281 C 20.0625 35.25 20.0625 35.25 20.066406 35.617188 C 19.804688 36.144531 19.445312 36.484375 19.019531 36.890625 C 18.867188 37.039062 18.710938 37.191406 18.550781 37.34375 C 18.429688 37.457031 18.308594 37.570312 18.1875 37.6875 C 17.910156 37.59375 17.910156 37.59375 17.625 37.5 C 17.742188 36.820312 17.84375 36.71875 18.375 36.1875 C 17.382812 36.125 16.394531 36.0625 15.375 36 C 15.375 37.050781 15.375 38.105469 15.375 39.1875 C 17.476562 39.1875 19.582031 39.1875 21.75 39.1875 C 21.742188 38.667969 21.730469 38.148438 21.722656 37.613281 C 21.71875 37.113281 21.714844 36.609375 21.707031 36.105469 C 21.703125 35.753906 21.699219 35.40625 21.691406 35.054688 C 21.683594 34.550781 21.679688 34.050781 21.675781 33.546875 C 21.671875 33.390625 21.667969 33.234375 21.664062 33.074219 C 21.664062 32.855469 21.664062 32.855469 21.664062 32.628906 C 21.664062 32.503906 21.660156 32.375 21.660156 32.242188 C 21.792969 31.699219 22.074219 31.480469 22.5 31.125 C 22.949219 31.03125 22.949219 31.03125 23.453125 31.03125 C 23.648438 31.03125 23.839844 31.027344 24.035156 31.027344 C 24.246094 31.027344 24.457031 31.03125 24.671875 31.03125 C 25.007812 31.03125 25.007812 31.03125 25.34375 31.027344 C 25.953125 31.027344 26.5625 31.027344 27.167969 31.03125 C 27.808594 31.03125 28.445312 31.03125 29.082031 31.03125 C 30.148438 31.03125 31.21875 31.03125 32.289062 31.035156 C 33.523438 31.042969 34.761719 31.042969 35.996094 31.039062 C 37.1875 31.039062 38.375 31.039062 39.5625 31.042969 C 40.070312 31.042969 40.574219 31.042969 41.082031 31.042969 C 41.789062 31.042969 42.496094 31.042969 43.199219 31.050781 C 43.410156 31.046875 43.621094 31.046875 43.839844 31.046875 C 44.03125 31.046875 44.222656 31.050781 44.421875 31.050781 C 44.671875 31.054688 44.671875 31.054688 44.929688 31.054688 C 45.46875 31.140625 45.730469 31.316406 46.125 31.6875 C 46.214844 32.039062 46.214844 32.039062 46.210938 32.4375 C 46.210938 32.589844 46.210938 32.738281 46.210938 32.894531 C 46.207031 33.054688 46.203125 33.21875 46.199219 33.382812 C 46.199219 33.550781 46.195312 33.714844 46.195312 33.886719 C 46.191406 34.414062 46.183594 34.941406 46.171875 35.472656 C 46.167969 35.832031 46.164062 36.1875 46.160156 36.550781 C 46.152344 37.429688 46.140625 38.308594 46.125 39.1875 C 46.308594 39.25 46.496094 39.3125 46.6875 39.375 C 46.625 39.5625 46.5625 39.746094 46.5 39.9375 C 31.648438 39.9375 16.800781 39.9375 1.5 39.9375 C 1.5 39.691406 1.5 39.441406 1.5 39.1875 C 1.621094 39.1875 1.746094 39.1875 1.875 39.1875 C 1.871094 38.960938 1.867188 38.738281 1.863281 38.507812 C 1.851562 37.675781 1.839844 36.84375 1.832031 36.011719 C 1.828125 35.65625 1.824219 35.296875 1.816406 34.933594 C 1.808594 34.417969 1.804688 33.898438 1.800781 33.382812 C 1.796875 33.222656 1.792969 33.058594 1.789062 32.894531 C 1.789062 32.671875 1.789062 32.671875 1.789062 32.4375 C 1.789062 32.308594 1.785156 32.175781 1.785156 32.039062 C 1.875 31.6875 1.875 31.6875 2.183594 31.363281 C 2.75 31.058594 3.15625 31.050781 3.800781 31.046875 Z M 3.800781 31.046875 "/>
<path style=" stroke:none;fill-rule:nonzero;fill:rgb(61.176473%,61.176473%,61.56863%);fill-opacity:1;" d="M 23.460938 5.90625 C 23.753906 5.902344 23.753906 5.902344 24.050781 5.902344 C 24.261719 5.902344 24.472656 5.902344 24.695312 5.90625 C 25.03125 5.902344 25.03125 5.902344 25.371094 5.902344 C 25.984375 5.902344 26.601562 5.902344 27.214844 5.90625 C 27.855469 5.90625 28.5 5.90625 29.144531 5.90625 C 30.222656 5.90625 31.300781 5.90625 32.378906 5.910156 C 33.625 5.917969 34.875 5.917969 36.121094 5.914062 C 37.320312 5.914062 38.523438 5.914062 39.722656 5.917969 C 40.234375 5.917969 40.742188 5.917969 41.253906 5.917969 C 41.96875 5.917969 42.679688 5.921875 43.394531 5.925781 C 43.605469 5.921875 43.820312 5.921875 44.039062 5.921875 C 44.230469 5.921875 44.425781 5.925781 44.625 5.925781 C 44.875 5.929688 44.875 5.929688 45.136719 5.929688 C 45.648438 6.015625 45.8125 6.152344 46.125 6.5625 C 46.199219 6.917969 46.199219 6.917969 46.199219 7.324219 C 46.203125 7.550781 46.203125 7.550781 46.207031 7.785156 C 46.207031 7.949219 46.207031 8.109375 46.207031 8.28125 C 46.207031 8.449219 46.207031 8.617188 46.210938 8.789062 C 46.210938 9.144531 46.210938 9.503906 46.210938 9.859375 C 46.207031 10.402344 46.214844 10.949219 46.21875 11.496094 C 46.21875 11.839844 46.21875 12.1875 46.21875 12.53125 C 46.21875 12.699219 46.222656 12.859375 46.222656 13.027344 C 46.222656 13.179688 46.21875 13.332031 46.21875 13.488281 C 46.21875 13.625 46.21875 13.757812 46.21875 13.894531 C 46.082031 14.410156 45.824219 14.535156 45.375 14.8125 C 44.925781 14.882812 44.925781 14.882812 44.421875 14.886719 C 44.230469 14.886719 44.035156 14.890625 43.835938 14.890625 C 43.628906 14.890625 43.417969 14.890625 43.203125 14.890625 C 42.867188 14.890625 42.867188 14.890625 42.527344 14.894531 C 41.921875 14.894531 41.3125 14.894531 40.703125 14.894531 C 40.195312 14.894531 39.6875 14.894531 39.179688 14.898438 C 37.980469 14.898438 36.785156 14.898438 35.585938 14.898438 C 34.351562 14.894531 33.113281 14.898438 31.878906 14.902344 C 30.816406 14.90625 29.757812 14.90625 28.695312 14.90625 C 28.058594 14.90625 27.425781 14.90625 26.792969 14.910156 C 26.085938 14.910156 25.378906 14.910156 24.671875 14.90625 C 24.359375 14.910156 24.359375 14.910156 24.039062 14.910156 C 23.84375 14.910156 23.652344 14.90625 23.453125 14.90625 C 23.285156 14.90625 23.117188 14.90625 22.949219 14.90625 C 22.355469 14.78125 22.128906 14.523438 21.75 14.0625 C 21.65625 13.699219 21.65625 13.699219 21.652344 13.316406 C 21.652344 13.171875 21.648438 13.03125 21.644531 12.882812 C 21.648438 12.726562 21.648438 12.574219 21.652344 12.417969 C 21.648438 12.257812 21.648438 12.097656 21.648438 11.933594 C 21.648438 11.597656 21.648438 11.257812 21.652344 10.921875 C 21.65625 10.40625 21.652344 9.894531 21.648438 9.378906 C 21.648438 9.050781 21.648438 8.722656 21.652344 8.394531 C 21.648438 8.242188 21.648438 8.089844 21.644531 7.929688 C 21.648438 7.785156 21.652344 7.640625 21.652344 7.496094 C 21.65625 7.367188 21.65625 7.242188 21.65625 7.113281 C 21.898438 6.183594 22.574219 5.90625 23.460938 5.90625 Z M 23.460938 5.90625 "/>
<path style=" stroke:none;fill-rule:nonzero;fill:rgb(38.039216%,72.156864%,89.019608%);fill-opacity:1;" d="M 23.453125 18.46875 C 23.648438 18.464844 23.839844 18.464844 24.035156 18.464844 C 24.246094 18.464844 24.457031 18.464844 24.671875 18.46875 C 25.007812 18.464844 25.007812 18.464844 25.34375 18.464844 C 25.953125 18.464844 26.5625 18.464844 27.167969 18.46875 C 27.808594 18.46875 28.445312 18.46875 29.082031 18.46875 C 30.148438 18.46875 31.21875 18.46875 32.289062 18.472656 C 33.523438 18.480469 34.761719 18.480469 35.996094 18.476562 C 37.1875 18.476562 38.375 18.476562 39.5625 18.480469 C 40.070312 18.480469 40.574219 18.480469 41.082031 18.480469 C 41.789062 18.480469 42.496094 18.484375 43.199219 18.488281 C 43.410156 18.484375 43.621094 18.484375 43.839844 18.484375 C 44.03125 18.484375 44.222656 18.488281 44.421875 18.488281 C 44.671875 18.492188 44.671875 18.492188 44.929688 18.492188 C 45.46875 18.578125 45.726562 18.753906 46.125 19.125 C 46.21875 19.480469 46.21875 19.480469 46.222656 19.886719 C 46.222656 20.039062 46.226562 20.191406 46.230469 20.347656 C 46.226562 20.511719 46.226562 20.671875 46.226562 20.84375 C 46.226562 21.011719 46.226562 21.179688 46.226562 21.351562 C 46.226562 21.707031 46.226562 22.066406 46.222656 22.421875 C 46.21875 22.964844 46.222656 23.511719 46.226562 24.058594 C 46.226562 24.402344 46.226562 24.75 46.226562 25.09375 C 46.226562 25.261719 46.226562 25.421875 46.230469 25.589844 C 46.226562 25.820312 46.226562 25.820312 46.222656 26.050781 C 46.222656 26.1875 46.222656 26.320312 46.21875 26.457031 C 46.082031 26.972656 45.824219 27.097656 45.375 27.375 C 44.929688 27.445312 44.929688 27.445312 44.421875 27.449219 C 44.230469 27.449219 44.039062 27.453125 43.839844 27.453125 C 43.628906 27.453125 43.417969 27.453125 43.199219 27.453125 C 42.871094 27.453125 42.871094 27.453125 42.53125 27.457031 C 41.921875 27.457031 41.3125 27.457031 40.707031 27.457031 C 40.199219 27.457031 39.6875 27.457031 39.179688 27.460938 C 37.984375 27.460938 36.785156 27.460938 35.585938 27.460938 C 34.351562 27.457031 33.117188 27.460938 31.878906 27.464844 C 30.816406 27.46875 29.753906 27.46875 28.695312 27.46875 C 28.058594 27.46875 27.425781 27.46875 26.792969 27.472656 C 26.085938 27.472656 25.378906 27.472656 24.671875 27.46875 C 24.355469 27.472656 24.355469 27.472656 24.035156 27.472656 C 23.84375 27.472656 23.652344 27.46875 23.453125 27.46875 C 23.285156 27.46875 23.121094 27.46875 22.949219 27.46875 C 22.355469 27.34375 22.128906 27.085938 21.75 26.625 C 21.65625 26.261719 21.65625 26.261719 21.652344 25.878906 C 21.648438 25.734375 21.648438 25.59375 21.644531 25.445312 C 21.648438 25.289062 21.648438 25.136719 21.648438 24.980469 C 21.648438 24.820312 21.648438 24.660156 21.648438 24.496094 C 21.648438 24.160156 21.648438 23.820312 21.652344 23.484375 C 21.65625 22.96875 21.652344 22.457031 21.648438 21.941406 C 21.648438 21.613281 21.648438 21.285156 21.648438 20.957031 C 21.648438 20.804688 21.648438 20.652344 21.644531 20.492188 C 21.648438 20.347656 21.648438 20.203125 21.652344 20.058594 C 21.652344 19.929688 21.652344 19.804688 21.65625 19.675781 C 21.898438 18.75 22.570312 18.46875 23.453125 18.46875 Z M 23.453125 18.46875 "/>
<path style=" stroke:none;fill-rule:nonzero;fill:rgb(94.901961%,38.039216%,45.882353%);fill-opacity:1;" d="M 3.800781 31.046875 C 4.039062 31.042969 4.277344 31.039062 4.519531 31.035156 C 4.777344 31.035156 5.039062 31.035156 5.296875 31.035156 C 5.5625 31.035156 5.828125 31.035156 6.09375 31.03125 C 6.652344 31.03125 7.210938 31.03125 7.765625 31.03125 C 8.480469 31.03125 9.195312 31.027344 9.910156 31.019531 C 10.457031 31.015625 11.007812 31.015625 11.558594 31.015625 C 11.820312 31.015625 12.082031 31.011719 12.347656 31.007812 C 12.714844 31.003906 13.082031 31.007812 13.449219 31.007812 C 13.660156 31.007812 13.867188 31.007812 14.085938 31.007812 C 14.625 31.125 14.625 31.125 15.070312 31.578125 C 15.378906 32.066406 15.464844 32.28125 15.449219 32.851562 C 15.449219 32.976562 15.445312 33.105469 15.441406 33.234375 C 15.4375 33.394531 15.429688 33.550781 15.421875 33.714844 C 15.40625 34.21875 15.390625 34.730469 15.375 35.25 C 16.953125 35.15625 16.953125 35.15625 18.5625 35.0625 C 18.253906 34.753906 17.941406 34.445312 17.625 34.125 C 17.660156 33.691406 17.660156 33.691406 17.8125 33.375 C 18.441406 33.652344 18.878906 34 19.371094 34.476562 C 19.503906 34.601562 19.640625 34.730469 19.777344 34.863281 C 20.0625 35.25 20.0625 35.25 20.066406 35.617188 C 19.804688 36.144531 19.445312 36.484375 19.019531 36.890625 C 18.867188 37.039062 18.710938 37.191406 18.550781 37.34375 C 18.429688 37.457031 18.308594 37.570312 18.1875 37.6875 C 17.910156 37.59375 17.910156 37.59375 17.625 37.5 C 17.742188 36.820312 17.84375 36.71875 18.375 36.1875 C 17.382812 36.125 16.394531 36.0625 15.375 36 C 15.375 37.050781 15.375 38.105469 15.375 39.1875 C 17.476562 39.1875 19.582031 39.1875 21.75 39.1875 C 21.742188 38.667969 21.730469 38.148438 21.722656 37.613281 C 21.71875 37.113281 21.714844 36.609375 21.707031 36.105469 C 21.703125 35.753906 21.699219 35.40625 21.691406 35.054688 C 21.683594 34.550781 21.679688 34.050781 21.675781 33.546875 C 21.671875 33.390625 21.667969 33.234375 21.664062 33.074219 C 21.664062 32.855469 21.664062 32.855469 21.664062 32.628906 C 21.664062 32.503906 21.660156 32.375 21.660156 32.242188 C 21.792969 31.699219 22.074219 31.480469 22.5 31.125 C 22.949219 31.03125 22.949219 31.03125 23.453125 31.03125 C 23.648438 31.03125 23.839844 31.027344 24.035156 31.027344 C 24.246094 31.027344 24.457031 31.03125 24.671875 31.03125 C 25.007812 31.03125 25.007812 31.03125 25.34375 31.027344 C 25.953125 31.027344 26.5625 31.027344 27.167969 31.03125 C 27.808594 31.03125 28.445312 31.03125 29.082031 31.03125 C 30.148438 31.03125 31.21875 31.03125 32.289062 31.035156 C 33.523438 31.042969 34.761719 31.042969 35.996094 31.039062 C 37.1875 31.039062 38.375 31.039062 39.5625 31.042969 C 40.070312 31.042969 40.574219 31.042969 41.082031 31.042969 C 41.789062 31.042969 42.496094 31.042969 43.199219 31.050781 C 43.410156 31.046875 43.621094 31.046875 43.839844 31.046875 C 44.03125 31.046875 44.222656 31.050781 44.421875 31.050781 C 44.671875 31.054688 44.671875 31.054688 44.929688 31.054688 C 45.46875 31.140625 45.730469 31.316406 46.125 31.6875 C 46.214844 32.039062 46.214844 32.039062 46.210938 32.4375 C 46.210938 32.589844 46.210938 32.738281 46.210938 32.894531 C 46.207031 33.054688 46.203125 33.21875 46.199219 33.382812 C 46.199219 33.550781 46.195312 33.714844 46.195312 33.886719 C 46.191406 34.414062 46.183594 34.941406 46.171875 35.472656 C 46.167969 35.832031 46.164062 36.1875 46.160156 36.550781 C 46.152344 37.429688 46.140625 38.308594 46.125 39.1875 C 46.308594 39.25 46.496094 39.3125 46.6875 39.375 C 46.625 39.5625 46.5625 39.746094 46.5 39.9375 C 31.648438 39.9375 16.800781 39.9375 1.5 39.9375 C 1.5 39.691406 1.5 39.441406 1.5 39.1875 C 1.621094 39.1875 1.746094 39.1875 1.875 39.1875 C 1.871094 38.960938 1.867188 38.738281 1.863281 38.507812 C 1.851562 37.675781 1.839844 36.84375 1.832031 36.011719 C 1.828125 35.65625 1.824219 35.296875 1.816406 34.933594 C 1.808594 34.417969 1.804688 33.898438 1.800781 33.382812 C 1.796875 33.222656 1.792969 33.058594 1.789062 32.894531 C 1.789062 32.671875 1.789062 32.671875 1.789062 32.4375 C 1.789062 32.308594 1.785156 32.175781 1.785156 32.039062 C 1.875 31.6875 1.875 31.6875 2.183594 31.363281 C 2.75 31.058594 3.15625 31.050781 3.800781 31.046875 Z M 22.5 32.0625 C 22.480469 32.574219 22.46875 33.074219 22.46875 33.585938 C 22.46875 33.738281 22.46875 33.890625 22.46875 34.046875 C 22.464844 34.371094 22.464844 34.695312 22.464844 35.019531 C 22.464844 35.515625 22.460938 36.011719 22.457031 36.511719 C 22.457031 36.824219 22.457031 37.136719 22.457031 37.453125 C 22.457031 37.601562 22.453125 37.75 22.453125 37.90625 C 22.421875 38.726562 22.421875 38.726562 22.875 39.375 C 23.285156 39.429688 23.285156 39.429688 23.765625 39.421875 C 23.953125 39.421875 24.140625 39.425781 24.332031 39.425781 C 24.542969 39.425781 24.746094 39.421875 24.960938 39.421875 C 25.285156 39.421875 25.285156 39.421875 25.617188 39.425781 C 26.335938 39.425781 27.058594 39.425781 27.777344 39.425781 C 28.277344 39.425781 28.777344 39.425781 29.277344 39.425781 C 30.320312 39.425781 31.371094 39.425781 32.417969 39.421875 C 33.628906 39.421875 34.835938 39.421875 36.046875 39.421875 C 37.085938 39.425781 38.125 39.425781 39.164062 39.425781 C 39.785156 39.425781 40.40625 39.425781 41.027344 39.425781 C 41.71875 39.425781 42.410156 39.425781 43.105469 39.421875 C 43.308594 39.421875 43.515625 39.425781 43.730469 39.425781 C 43.917969 39.425781 44.105469 39.421875 44.296875 39.421875 C 44.542969 39.421875 44.542969 39.421875 44.792969 39.421875 C 45.226562 39.410156 45.226562 39.410156 45.5625 39 C 45.597656 38.476562 45.609375 37.972656 45.605469 37.453125 C 45.605469 37.300781 45.605469 37.144531 45.605469 36.988281 C 45.605469 36.664062 45.601562 36.339844 45.601562 36.019531 C 45.597656 35.519531 45.597656 35.023438 45.597656 34.527344 C 45.597656 34.214844 45.59375 33.898438 45.59375 33.585938 C 45.59375 33.433594 45.59375 33.285156 45.59375 33.132812 C 45.652344 32.445312 45.652344 32.445312 45.375 31.875 C 45.082031 31.855469 44.789062 31.851562 44.492188 31.851562 C 44.300781 31.851562 44.109375 31.851562 43.914062 31.847656 C 43.703125 31.851562 43.492188 31.851562 43.273438 31.851562 C 42.941406 31.851562 42.941406 31.851562 42.605469 31.851562 C 41.996094 31.847656 41.386719 31.847656 40.78125 31.851562 C 40.148438 31.851562 39.511719 31.851562 38.878906 31.847656 C 37.808594 31.847656 36.742188 31.847656 35.679688 31.851562 C 34.441406 31.851562 33.210938 31.851562 31.976562 31.851562 C 30.917969 31.847656 29.859375 31.847656 28.800781 31.851562 C 28.167969 31.851562 27.535156 31.851562 26.902344 31.847656 C 26.199219 31.847656 25.492188 31.847656 24.789062 31.851562 C 24.472656 31.851562 24.472656 31.851562 24.148438 31.847656 C 23.863281 31.851562 23.863281 31.851562 23.570312 31.851562 C 23.402344 31.851562 23.234375 31.851562 23.0625 31.851562 C 22.6875 31.832031 22.6875 31.832031 22.5 32.0625 Z M 22.5 32.0625 "/>
<path style=" stroke:none;fill-rule:nonzero;fill:rgb(61.56863%,61.56863%,61.56863%);fill-opacity:1;" d="M 3.800781 5.921875 C 4.039062 5.917969 4.277344 5.914062 4.519531 5.910156 C 4.777344 5.910156 5.039062 5.910156 5.296875 5.910156 C 5.5625 5.910156 5.828125 5.910156 6.09375 5.90625 C 6.652344 5.90625 7.210938 5.90625 7.765625 5.90625 C 8.480469 5.90625 9.195312 5.902344 9.910156 5.894531 C 10.457031 5.890625 11.007812 5.890625 11.558594 5.890625 C 11.820312 5.890625 12.082031 5.886719 12.347656 5.882812 C 12.714844 5.878906 13.082031 5.882812 13.449219 5.882812 C 13.660156 5.882812 13.867188 5.882812 14.085938 5.882812 C 14.625 6 14.625 6 15.070312 6.453125 C 15.378906 6.941406 15.464844 7.15625 15.449219 7.726562 C 15.449219 7.851562 15.445312 7.980469 15.441406 8.109375 C 15.4375 8.269531 15.429688 8.425781 15.421875 8.589844 C 15.40625 9.09375 15.390625 9.605469 15.375 10.125 C 16.953125 10.03125 16.953125 10.03125 18.5625 9.9375 C 18.253906 9.628906 17.941406 9.320312 17.625 9 C 17.660156 8.566406 17.660156 8.566406 17.8125 8.25 C 18.441406 8.527344 18.878906 8.875 19.371094 9.351562 C 19.503906 9.476562 19.640625 9.605469 19.777344 9.738281 C 20.0625 10.125 20.0625 10.125 20.066406 10.492188 C 19.804688 11.019531 19.445312 11.359375 19.019531 11.765625 C 18.867188 11.914062 18.710938 12.066406 18.550781 12.21875 C 18.429688 12.332031 18.308594 12.445312 18.1875 12.5625 C 17.910156 12.46875 17.910156 12.46875 17.625 12.375 C 17.738281 11.582031 17.921875 11.519531 18.5625 10.875 C 17.511719 10.8125 16.457031 10.75 15.375 10.6875 C 15.382812 10.921875 15.394531 11.15625 15.402344 11.398438 C 15.40625 11.710938 15.414062 12.019531 15.421875 12.328125 C 15.429688 12.480469 15.433594 12.636719 15.441406 12.796875 C 15.445312 13.023438 15.445312 13.023438 15.449219 13.25 C 15.453125 13.457031 15.453125 13.457031 15.460938 13.667969 C 15.335938 14.246094 15.082031 14.445312 14.625 14.8125 C 14.078125 14.90625 14.078125 14.90625 13.429688 14.90625 C 13.066406 14.910156 13.066406 14.910156 12.695312 14.910156 C 12.433594 14.910156 12.167969 14.90625 11.90625 14.90625 C 11.636719 14.90625 11.363281 14.90625 11.09375 14.90625 C 10.527344 14.90625 9.960938 14.90625 9.394531 14.902344 C 8.664062 14.894531 7.9375 14.894531 7.210938 14.898438 C 6.652344 14.898438 6.09375 14.898438 5.535156 14.894531 C 5.269531 14.894531 5 14.894531 4.730469 14.894531 C 4.355469 14.894531 3.980469 14.890625 3.609375 14.886719 C 3.394531 14.886719 3.183594 14.886719 2.964844 14.886719 C 2.4375 14.8125 2.4375 14.8125 2.089844 14.574219 C 1.828125 14.179688 1.804688 13.957031 1.800781 13.488281 C 1.796875 13.335938 1.792969 13.183594 1.792969 13.03125 C 1.792969 12.863281 1.792969 12.703125 1.792969 12.53125 C 1.792969 12.28125 1.792969 12.28125 1.789062 12.023438 C 1.789062 11.667969 1.789062 11.308594 1.792969 10.953125 C 1.792969 10.40625 1.789062 9.863281 1.78125 9.316406 C 1.78125 8.972656 1.78125 8.625 1.78125 8.28125 C 1.78125 8.113281 1.777344 7.953125 1.773438 7.78125 C 1.777344 7.632812 1.777344 7.480469 1.78125 7.324219 C 1.78125 7.1875 1.78125 7.054688 1.78125 6.917969 C 1.875 6.5625 1.875 6.5625 2.183594 6.238281 C 2.75 5.933594 3.15625 5.925781 3.800781 5.921875 Z M 3.800781 5.921875 "/>
<path style=" stroke:none;fill-rule:nonzero;fill:rgb(38.431373%,73.333335%,90.196079%);fill-opacity:1;" d="M 3.800781 18.484375 C 4.039062 18.480469 4.277344 18.476562 4.519531 18.472656 C 4.777344 18.472656 5.039062 18.472656 5.296875 18.472656 C 5.5625 18.472656 5.828125 18.472656 6.09375 18.46875 C 6.652344 18.46875 7.210938 18.46875 7.765625 18.46875 C 8.480469 18.46875 9.195312 18.464844 9.910156 18.457031 C 10.457031 18.453125 11.007812 18.453125 11.558594 18.453125 C 11.820312 18.453125 12.082031 18.449219 12.347656 18.445312 C 12.714844 18.441406 13.082031 18.445312 13.449219 18.445312 C 13.660156 18.445312 13.867188 18.445312 14.085938 18.445312 C 14.625 18.5625 14.625 18.5625 15.070312 19.015625 C 15.378906 19.503906 15.464844 19.71875 15.449219 20.289062 C 15.449219 20.414062 15.445312 20.542969 15.441406 20.671875 C 15.4375 20.832031 15.429688 20.988281 15.421875 21.152344 C 15.40625 21.65625 15.390625 22.167969 15.375 22.6875 C 16.953125 22.59375 16.953125 22.59375 18.5625 22.5 C 18.253906 22.191406 17.941406 21.882812 17.625 21.5625 C 17.660156 21.128906 17.660156 21.128906 17.8125 20.8125 C 18.441406 21.089844 18.878906 21.4375 19.371094 21.914062 C 19.503906 22.039062 19.640625 22.167969 19.777344 22.300781 C 20.0625 22.6875 20.0625 22.6875 20.066406 23.054688 C 19.804688 23.582031 19.445312 23.921875 19.019531 24.328125 C 18.867188 24.476562 18.710938 24.628906 18.550781 24.78125 C 18.429688 24.894531 18.308594 25.007812 18.1875 25.125 C 17.910156 25.03125 17.910156 25.03125 17.625 24.9375 C 17.738281 24.144531 17.921875 24.082031 18.5625 23.4375 C 17.511719 23.375 16.457031 23.3125 15.375 23.25 C 15.402344 24.257812 15.402344 24.257812 15.441406 25.265625 C 15.445312 25.390625 15.445312 25.515625 15.449219 25.648438 C 15.453125 25.777344 15.457031 25.90625 15.460938 26.039062 C 15.332031 26.640625 15.054688 26.941406 14.625 27.375 C 14.085938 27.492188 14.085938 27.492188 13.449219 27.492188 C 13.210938 27.492188 12.972656 27.492188 12.730469 27.496094 C 12.472656 27.492188 12.210938 27.488281 11.953125 27.484375 C 11.6875 27.484375 11.421875 27.484375 11.15625 27.484375 C 10.597656 27.484375 10.039062 27.480469 9.484375 27.476562 C 8.769531 27.46875 8.054688 27.46875 7.339844 27.46875 C 6.792969 27.46875 6.242188 27.46875 5.695312 27.464844 C 5.429688 27.464844 5.167969 27.464844 4.902344 27.464844 C 4.535156 27.464844 4.167969 27.457031 3.800781 27.453125 C 3.488281 27.453125 3.488281 27.453125 3.167969 27.449219 C 2.558594 27.367188 2.296875 27.253906 1.875 26.8125 C 1.78125 26.457031 1.78125 26.457031 1.777344 26.050781 C 1.773438 25.824219 1.773438 25.824219 1.769531 25.59375 C 1.773438 25.425781 1.773438 25.265625 1.773438 25.09375 C 1.773438 24.925781 1.773438 24.757812 1.773438 24.585938 C 1.773438 24.230469 1.773438 23.871094 1.777344 23.515625 C 1.78125 22.96875 1.777344 22.425781 1.773438 21.878906 C 1.773438 21.535156 1.773438 21.1875 1.773438 20.84375 C 1.773438 20.675781 1.773438 20.515625 1.769531 20.34375 C 1.773438 20.195312 1.773438 20.042969 1.777344 19.886719 C 1.777344 19.75 1.777344 19.617188 1.78125 19.480469 C 1.875 19.125 1.875 19.125 2.183594 18.800781 C 2.75 18.496094 3.15625 18.488281 3.800781 18.484375 Z M 3.800781 18.484375 "/>
<path style=" stroke:none;fill-rule:nonzero;fill:rgb(27.843139%,21.960784%,47.058824%);fill-opacity:1;" d="M 3.800781 31.046875 C 4.039062 31.042969 4.277344 31.039062 4.519531 31.035156 C 4.777344 31.035156 5.039062 31.035156 5.296875 31.035156 C 5.5625 31.035156 5.828125 31.035156 6.09375 31.03125 C 6.652344 31.03125 7.210938 31.03125 7.765625 31.03125 C 8.480469 31.03125 9.195312 31.027344 9.910156 31.019531 C 10.457031 31.015625 11.007812 31.015625 11.558594 31.015625 C 11.820312 31.015625 12.082031 31.011719 12.347656 31.007812 C 12.714844 31.003906 13.082031 31.007812 13.449219 31.007812 C 13.660156 31.007812 13.867188 31.007812 14.085938 31.007812 C 14.625 31.125 14.625 31.125 15.070312 31.578125 C 15.378906 32.066406 15.464844 32.28125 15.449219 32.851562 C 15.449219 32.976562 15.445312 33.105469 15.441406 33.234375 C 15.4375 33.394531 15.429688 33.550781 15.421875 33.714844 C 15.40625 34.21875 15.390625 34.730469 15.375 35.25 C 16.953125 35.15625 16.953125 35.15625 18.5625 35.0625 C 18.253906 34.753906 17.941406 34.445312 17.625 34.125 C 17.660156 33.691406 17.660156 33.691406 17.8125 33.375 C 18.441406 33.652344 18.878906 34 19.371094 34.476562 C 19.503906 34.601562 19.640625 34.730469 19.777344 34.863281 C 20.0625 35.25 20.0625 35.25 20.066406 35.617188 C 19.804688 36.144531 19.445312 36.484375 19.019531 36.890625 C 18.867188 37.039062 18.710938 37.191406 18.550781 37.34375 C 18.429688 37.457031 18.308594 37.570312 18.1875 37.6875 C 17.910156 37.59375 17.910156 37.59375 17.625 37.5 C 17.742188 36.820312 17.84375 36.71875 18.375 36.1875 C 17.382812 36.125 16.394531 36.0625 15.375 36 C 15.375 37.050781 15.375 38.105469 15.375 39.1875 C 17.476562 39.1875 19.582031 39.1875 21.75 39.1875 C 21.742188 38.667969 21.730469 38.148438 21.722656 37.613281 C 21.71875 37.113281 21.714844 36.609375 21.707031 36.105469 C 21.703125 35.753906 21.699219 35.40625 21.691406 35.054688 C 21.683594 34.550781 21.679688 34.050781 21.675781 33.546875 C 21.671875 33.390625 21.667969 33.234375 21.664062 33.074219 C 21.664062 32.855469 21.664062 32.855469 21.664062 32.628906 C 21.664062 32.503906 21.660156 32.375 21.660156 32.242188 C 21.792969 31.699219 22.074219 31.480469 22.5 31.125 C 22.949219 31.03125 22.949219 31.03125 23.453125 31.03125 C 23.648438 31.03125 23.839844 31.027344 24.035156 31.027344 C 24.246094 31.027344 24.457031 31.03125 24.671875 31.03125 C 25.007812 31.03125 25.007812 31.03125 25.34375 31.027344 C 25.953125 31.027344 26.5625 31.027344 27.167969 31.03125 C 27.808594 31.03125 28.445312 31.03125 29.082031 31.03125 C 30.148438 31.03125 31.21875 31.03125 32.289062 31.035156 C 33.523438 31.042969 34.761719 31.042969 35.996094 31.039062 C 37.1875 31.039062 38.375 31.039062 39.5625 31.042969 C 40.070312 31.042969 40.574219 31.042969 41.082031 31.042969 C 41.789062 31.042969 42.496094 31.042969 43.199219 31.050781 C 43.410156 31.046875 43.621094 31.046875 43.839844 31.046875 C 44.03125 31.046875 44.222656 31.050781 44.421875 31.050781 C 44.671875 31.054688 44.671875 31.054688 44.929688 31.054688 C 45.46875 31.140625 45.730469 31.316406 46.125 31.6875 C 46.214844 32.039062 46.214844 32.039062 46.210938 32.4375 C 46.210938 32.589844 46.210938 32.738281 46.210938 32.894531 C 46.207031 33.054688 46.203125 33.21875 46.199219 33.382812 C 46.199219 33.550781 46.195312 33.714844 46.195312 33.886719 C 46.191406 34.414062 46.183594 34.941406 46.171875 35.472656 C 46.167969 35.832031 46.164062 36.1875 46.160156 36.550781 C 46.152344 37.429688 46.140625 38.308594 46.125 39.1875 C 46.308594 39.25 46.496094 39.3125 46.6875 39.375 C 46.625 39.5625 46.5625 39.746094 46.5 39.9375 C 31.648438 39.9375 16.800781 39.9375 1.5 39.9375 C 1.5 39.691406 1.5 39.441406 1.5 39.1875 C 1.621094 39.1875 1.746094 39.1875 1.875 39.1875 C 1.871094 38.960938 1.867188 38.738281 1.863281 38.507812 C 1.851562 37.675781 1.839844 36.84375 1.832031 36.011719 C 1.828125 35.65625 1.824219 35.296875 1.816406 34.933594 C 1.808594 34.417969 1.804688 33.898438 1.800781 33.382812 C 1.796875 33.222656 1.792969 33.058594 1.789062 32.894531 C 1.789062 32.671875 1.789062 32.671875 1.789062 32.4375 C 1.789062 32.308594 1.785156 32.175781 1.785156 32.039062 C 1.875 31.6875 1.875 31.6875 2.183594 31.363281 C 2.75 31.058594 3.15625 31.050781 3.800781 31.046875 Z M 2.4375 32.0625 C 2.417969 32.574219 2.40625 33.074219 2.40625 33.585938 C 2.40625 33.738281 2.40625 33.890625 2.40625 34.046875 C 2.402344 34.371094 2.402344 34.695312 2.402344 35.019531 C 2.402344 35.515625 2.398438 36.011719 2.394531 36.511719 C 2.394531 36.824219 2.394531 37.136719 2.394531 37.453125 C 2.394531 37.601562 2.390625 37.75 2.390625 37.90625 C 2.359375 38.726562 2.359375 38.726562 2.8125 39.375 C 3.308594 39.433594 3.308594 39.433594 3.898438 39.421875 C 4.125 39.425781 4.355469 39.425781 4.589844 39.425781 C 4.835938 39.425781 5.085938 39.425781 5.335938 39.425781 C 5.59375 39.425781 5.847656 39.425781 6.101562 39.425781 C 6.636719 39.425781 7.171875 39.425781 7.707031 39.421875 C 8.394531 39.421875 9.078125 39.421875 9.765625 39.425781 C 10.292969 39.425781 10.816406 39.425781 11.34375 39.425781 C 11.722656 39.425781 12.097656 39.425781 12.472656 39.425781 C 12.699219 39.425781 12.929688 39.425781 13.164062 39.421875 C 13.363281 39.421875 13.566406 39.421875 13.773438 39.421875 C 14.28125 39.421875 14.28125 39.421875 14.625 39 C 14.660156 38.476562 14.671875 37.972656 14.667969 37.453125 C 14.667969 37.300781 14.667969 37.144531 14.667969 36.988281 C 14.667969 36.664062 14.664062 36.339844 14.664062 36.019531 C 14.660156 35.519531 14.660156 35.023438 14.660156 34.527344 C 14.660156 34.214844 14.65625 33.898438 14.65625 33.585938 C 14.65625 33.433594 14.65625 33.285156 14.65625 33.132812 C 14.714844 32.445312 14.714844 32.445312 14.4375 31.875 C 14.070312 31.855469 13.703125 31.851562 13.335938 31.851562 C 13.101562 31.851562 12.863281 31.847656 12.621094 31.847656 C 12.359375 31.847656 12.101562 31.847656 11.839844 31.851562 C 11.578125 31.851562 11.3125 31.851562 11.046875 31.847656 C 10.496094 31.847656 9.941406 31.847656 9.386719 31.851562 C 8.675781 31.851562 7.960938 31.851562 7.25 31.851562 C 6.707031 31.847656 6.160156 31.847656 5.613281 31.851562 C 5.351562 31.851562 5.089844 31.851562 4.828125 31.847656 C 4.460938 31.847656 4.09375 31.851562 3.730469 31.851562 C 3.519531 31.851562 3.308594 31.851562 3.09375 31.851562 C 2.636719 31.824219 2.636719 31.824219 2.4375 32.0625 Z M 22.5 32.0625 C 22.480469 32.574219 22.46875 33.074219 22.46875 33.585938 C 22.46875 33.738281 22.46875 33.890625 22.46875 34.046875 C 22.464844 34.371094 22.464844 34.695312 22.464844 35.019531 C 22.464844 35.515625 22.460938 36.011719 22.457031 36.511719 C 22.457031 36.824219 22.457031 37.136719 22.457031 37.453125 C 22.457031 37.601562 22.453125 37.75 22.453125 37.90625 C 22.421875 38.726562 22.421875 38.726562 22.875 39.375 C 23.285156 39.429688 23.285156 39.429688 23.765625 39.421875 C 23.953125 39.421875 24.140625 39.425781 24.332031 39.425781 C 24.542969 39.425781 24.746094 39.421875 24.960938 39.421875 C 25.285156 39.421875 25.285156 39.421875 25.617188 39.425781 C 26.335938 39.425781 27.058594 39.425781 27.777344 39.425781 C 28.277344 39.425781 28.777344 39.425781 29.277344 39.425781 C 30.320312 39.425781 31.371094 39.425781 32.417969 39.421875 C 33.628906 39.421875 34.835938 39.421875 36.046875 39.421875 C 37.085938 39.425781 38.125 39.425781 39.164062 39.425781 C 39.785156 39.425781 40.40625 39.425781 41.027344 39.425781 C 41.71875 39.425781 42.410156 39.425781 43.105469 39.421875 C 43.308594 39.421875 43.515625 39.425781 43.730469 39.425781 C 43.917969 39.425781 44.105469 39.421875 44.296875 39.421875 C 44.542969 39.421875 44.542969 39.421875 44.792969 39.421875 C 45.226562 39.410156 45.226562 39.410156 45.5625 39 C 45.597656 38.476562 45.609375 37.972656 45.605469 37.453125 C 45.605469 37.300781 45.605469 37.144531 45.605469 36.988281 C 45.605469 36.664062 45.601562 36.339844 45.601562 36.019531 C 45.597656 35.519531 45.597656 35.023438 45.597656 34.527344 C 45.597656 34.214844 45.59375 33.898438 45.59375 33.585938 C 45.59375 33.433594 45.59375 33.285156 45.59375 33.132812 C 45.652344 32.445312 45.652344 32.445312 45.375 31.875 C 45.082031 31.855469 44.789062 31.851562 44.492188 31.851562 C 44.300781 31.851562 44.109375 31.851562 43.914062 31.847656 C 43.703125 31.851562 43.492188 31.851562 43.273438 31.851562 C 42.941406 31.851562 42.941406 31.851562 42.605469 31.851562 C 41.996094 31.847656 41.386719 31.847656 40.78125 31.851562 C 40.148438 31.851562 39.511719 31.851562 38.878906 31.847656 C 37.808594 31.847656 36.742188 31.847656 35.679688 31.851562 C 34.441406 31.851562 33.210938 31.851562 31.976562 31.851562 C 30.917969 31.847656 29.859375 31.847656 28.800781 31.851562 C 28.167969 31.851562 27.535156 31.851562 26.902344 31.847656 C 26.199219 31.847656 25.492188 31.847656 24.789062 31.851562 C 24.472656 31.851562 24.472656 31.851562 24.148438 31.847656 C 23.863281 31.851562 23.863281 31.851562 23.570312 31.851562 C 23.402344 31.851562 23.234375 31.851562 23.0625 31.851562 C 22.6875 31.832031 22.6875 31.832031 22.5 32.0625 Z M 22.5 32.0625 "/>
<path style=" stroke:none;fill-rule:nonzero;fill:rgb(25.098041%,21.568628%,47.450981%);fill-opacity:1;" d="M 3.800781 5.921875 C 4.039062 5.917969 4.277344 5.914062 4.519531 5.910156 C 4.777344 5.910156 5.039062 5.910156 5.296875 5.910156 C 5.5625 5.910156 5.828125 5.910156 6.09375 5.90625 C 6.652344 5.90625 7.210938 5.90625 7.765625 5.90625 C 8.480469 5.90625 9.195312 5.902344 9.910156 5.894531 C 10.457031 5.890625 11.007812 5.890625 11.558594 5.890625 C 11.820312 5.890625 12.082031 5.886719 12.347656 5.882812 C 12.714844 5.878906 13.082031 5.882812 13.449219 5.882812 C 13.660156 5.882812 13.867188 5.882812 14.085938 5.882812 C 14.625 6 14.625 6 15.070312 6.453125 C 15.378906 6.941406 15.464844 7.15625 15.449219 7.726562 C 15.449219 7.851562 15.445312 7.980469 15.441406 8.109375 C 15.4375 8.269531 15.429688 8.425781 15.421875 8.589844 C 15.40625 9.09375 15.390625 9.605469 15.375 10.125 C 16.953125 10.03125 16.953125 10.03125 18.5625 9.9375 C 18.253906 9.628906 17.941406 9.320312 17.625 9 C 17.660156 8.566406 17.660156 8.566406 17.8125 8.25 C 18.441406 8.527344 18.878906 8.875 19.371094 9.351562 C 19.503906 9.476562 19.640625 9.605469 19.777344 9.738281 C 20.0625 10.125 20.0625 10.125 20.066406 10.492188 C 19.804688 11.019531 19.445312 11.359375 19.019531 11.765625 C 18.867188 11.914062 18.710938 12.066406 18.550781 12.21875 C 18.429688 12.332031 18.308594 12.445312 18.1875 12.5625 C 17.910156 12.46875 17.910156 12.46875 17.625 12.375 C 17.738281 11.582031 17.921875 11.519531 18.5625 10.875 C 17.511719 10.8125 16.457031 10.75 15.375 10.6875 C 15.382812 10.921875 15.394531 11.15625 15.402344 11.398438 C 15.40625 11.710938 15.414062 12.019531 15.421875 12.328125 C 15.429688 12.480469 15.433594 12.636719 15.441406 12.796875 C 15.445312 13.023438 15.445312 13.023438 15.449219 13.25 C 15.453125 13.457031 15.453125 13.457031 15.460938 13.667969 C 15.335938 14.246094 15.082031 14.445312 14.625 14.8125 C 14.078125 14.90625 14.078125 14.90625 13.429688 14.90625 C 13.066406 14.910156 13.066406 14.910156 12.695312 14.910156 C 12.433594 14.910156 12.167969 14.90625 11.90625 14.90625 C 11.636719 14.90625 11.363281 14.90625 11.09375 14.90625 C 10.527344 14.90625 9.960938 14.90625 9.394531 14.902344 C 8.664062 14.894531 7.9375 14.894531 7.210938 14.898438 C 6.652344 14.898438 6.09375 14.898438 5.535156 14.894531 C 5.269531 14.894531 5 14.894531 4.730469 14.894531 C 4.355469 14.894531 3.980469 14.890625 3.609375 14.886719 C 3.394531 14.886719 3.183594 14.886719 2.964844 14.886719 C 2.4375 14.8125 2.4375 14.8125 2.089844 14.574219 C 1.828125 14.179688 1.804688 13.957031 1.800781 13.488281 C 1.796875 13.335938 1.792969 13.183594 1.792969 13.03125 C 1.792969 12.863281 1.792969 12.703125 1.792969 12.53125 C 1.792969 12.28125 1.792969 12.28125 1.789062 12.023438 C 1.789062 11.667969 1.789062 11.308594 1.792969 10.953125 C 1.792969 10.40625 1.789062 9.863281 1.78125 9.316406 C 1.78125 8.972656 1.78125 8.625 1.78125 8.28125 C 1.78125 8.113281 1.777344 7.953125 1.773438 7.78125 C 1.777344 7.632812 1.777344 7.480469 1.78125 7.324219 C 1.78125 7.1875 1.78125 7.054688 1.78125 6.917969 C 1.875 6.5625 1.875 6.5625 2.183594 6.238281 C 2.75 5.933594 3.15625 5.925781 3.800781 5.921875 Z M 3.9375 6.9375 C 3.917969 7.449219 3.910156 7.957031 3.914062 8.46875 C 3.914062 8.621094 3.914062 8.773438 3.914062 8.929688 C 3.914062 9.257812 3.914062 9.582031 3.914062 9.90625 C 3.914062 10.40625 3.914062 10.902344 3.914062 11.402344 C 3.914062 11.71875 3.914062 12.03125 3.914062 12.34375 C 3.914062 12.496094 3.914062 12.648438 3.914062 12.800781 C 3.847656 13.488281 3.847656 13.488281 4.125 14.0625 C 4.445312 14.082031 4.765625 14.085938 5.089844 14.085938 C 5.296875 14.085938 5.503906 14.089844 5.714844 14.089844 C 5.9375 14.089844 6.164062 14.085938 6.394531 14.085938 C 6.734375 14.085938 6.734375 14.085938 7.085938 14.089844 C 7.570312 14.089844 8.050781 14.085938 8.535156 14.085938 C 9.277344 14.085938 10.019531 14.085938 10.761719 14.089844 C 11.230469 14.089844 11.699219 14.085938 12.167969 14.085938 C 12.503906 14.089844 12.503906 14.089844 12.847656 14.089844 C 13.054688 14.089844 13.261719 14.085938 13.472656 14.085938 C 13.65625 14.085938 13.835938 14.085938 14.023438 14.085938 C 14.433594 14.109375 14.433594 14.109375 14.625 13.875 C 14.644531 13.363281 14.652344 12.855469 14.652344 12.34375 C 14.652344 12.191406 14.652344 12.039062 14.652344 11.882812 C 14.652344 11.554688 14.652344 11.230469 14.648438 10.90625 C 14.648438 10.40625 14.648438 9.910156 14.652344 9.410156 C 14.652344 9.09375 14.652344 8.78125 14.652344 8.46875 C 14.652344 8.316406 14.652344 8.164062 14.652344 8.011719 C 14.714844 7.324219 14.714844 7.324219 14.4375 6.75 C 14.117188 6.730469 13.792969 6.726562 13.472656 6.726562 C 13.265625 6.726562 13.058594 6.722656 12.847656 6.722656 C 12.511719 6.722656 12.511719 6.722656 12.167969 6.726562 C 11.828125 6.726562 11.828125 6.726562 11.476562 6.722656 C 10.996094 6.722656 10.511719 6.726562 10.027344 6.726562 C 9.285156 6.726562 8.542969 6.726562 7.796875 6.722656 C 7.332031 6.722656 6.863281 6.726562 6.394531 6.726562 C 6.167969 6.726562 5.945312 6.722656 5.714844 6.722656 C 5.507812 6.722656 5.300781 6.726562 5.089844 6.726562 C 4.90625 6.726562 4.726562 6.726562 4.539062 6.726562 C 4.128906 6.703125 4.128906 6.703125 3.9375 6.9375 Z M 3.9375 6.9375 "/>
<path style=" stroke:none;fill-rule:nonzero;fill:rgb(26.666668%,23.529412%,48.235294%);fill-opacity:1;" d="M 23.460938 5.90625 C 23.753906 5.902344 23.753906 5.902344 24.050781 5.902344 C 24.261719 5.902344 24.472656 5.902344 24.695312 5.90625 C 25.03125 5.902344 25.03125 5.902344 25.371094 5.902344 C 25.984375 5.902344 26.601562 5.902344 27.214844 5.90625 C 27.855469 5.90625 28.5 5.90625 29.144531 5.90625 C 30.222656 5.90625 31.300781 5.90625 32.378906 5.910156 C 33.625 5.917969 34.875 5.917969 36.121094 5.914062 C 37.320312 5.914062 38.523438 5.914062 39.722656 5.917969 C 40.234375 5.917969 40.742188 5.917969 41.253906 5.917969 C 41.96875 5.917969 42.679688 5.921875 43.394531 5.925781 C 43.605469 5.921875 43.820312 5.921875 44.039062 5.921875 C 44.230469 5.921875 44.425781 5.925781 44.625 5.925781 C 44.875 5.929688 44.875 5.929688 45.136719 5.929688 C 45.648438 6.015625 45.8125 6.152344 46.125 6.5625 C 46.199219 6.917969 46.199219 6.917969 46.199219 7.324219 C 46.203125 7.550781 46.203125 7.550781 46.207031 7.785156 C 46.207031 7.949219 46.207031 8.109375 46.207031 8.28125 C 46.207031 8.449219 46.207031 8.617188 46.210938 8.789062 C 46.210938 9.144531 46.210938 9.503906 46.210938 9.859375 C 46.207031 10.402344 46.214844 10.949219 46.21875 11.496094 C 46.21875 11.839844 46.21875 12.1875 46.21875 12.53125 C 46.21875 12.699219 46.222656 12.859375 46.222656 13.027344 C 46.222656 13.179688 46.21875 13.332031 46.21875 13.488281 C 46.21875 13.625 46.21875 13.757812 46.21875 13.894531 C 46.082031 14.410156 45.824219 14.535156 45.375 14.8125 C 44.925781 14.882812 44.925781 14.882812 44.421875 14.886719 C 44.230469 14.886719 44.035156 14.890625 43.835938 14.890625 C 43.628906 14.890625 43.417969 14.890625 43.203125 14.890625 C 42.867188 14.890625 42.867188 14.890625 42.527344 14.894531 C 41.921875 14.894531 41.3125 14.894531 40.703125 14.894531 C 40.195312 14.894531 39.6875 14.894531 39.179688 14.898438 C 37.980469 14.898438 36.785156 14.898438 35.585938 14.898438 C 34.351562 14.894531 33.113281 14.898438 31.878906 14.902344 C 30.816406 14.90625 29.757812 14.90625 28.695312 14.90625 C 28.058594 14.90625 27.425781 14.90625 26.792969 14.910156 C 26.085938 14.910156 25.378906 14.910156 24.671875 14.90625 C 24.359375 14.910156 24.359375 14.910156 24.039062 14.910156 C 23.84375 14.910156 23.652344 14.90625 23.453125 14.90625 C 23.285156 14.90625 23.117188 14.90625 22.949219 14.90625 C 22.355469 14.78125 22.128906 14.523438 21.75 14.0625 C 21.65625 13.699219 21.65625 13.699219 21.652344 13.316406 C 21.652344 13.171875 21.648438 13.03125 21.644531 12.882812 C 21.648438 12.726562 21.648438 12.574219 21.652344 12.417969 C 21.648438 12.257812 21.648438 12.097656 21.648438 11.933594 C 21.648438 11.597656 21.648438 11.257812 21.652344 10.921875 C 21.65625 10.40625 21.652344 9.894531 21.648438 9.378906 C 21.648438 9.050781 21.648438 8.722656 21.652344 8.394531 C 21.648438 8.242188 21.648438 8.089844 21.644531 7.929688 C 21.648438 7.785156 21.652344 7.640625 21.652344 7.496094 C 21.65625 7.367188 21.65625 7.242188 21.65625 7.113281 C 21.898438 6.183594 22.574219 5.90625 23.460938 5.90625 Z M 22.5 6.9375 C 22.464844 7.460938 22.453125 7.964844 22.457031 8.484375 C 22.457031 8.636719 22.457031 8.792969 22.457031 8.949219 C 22.457031 9.273438 22.457031 9.597656 22.460938 9.921875 C 22.464844 10.417969 22.464844 10.914062 22.464844 11.410156 C 22.464844 11.722656 22.464844 12.039062 22.46875 12.351562 C 22.46875 12.503906 22.46875 12.652344 22.46875 12.804688 C 22.410156 13.492188 22.410156 13.492188 22.6875 14.0625 C 22.980469 14.082031 23.277344 14.085938 23.570312 14.085938 C 23.855469 14.085938 23.855469 14.085938 24.148438 14.089844 C 24.359375 14.085938 24.570312 14.085938 24.789062 14.085938 C 25.121094 14.085938 25.121094 14.085938 25.457031 14.089844 C 26.066406 14.089844 26.671875 14.089844 27.28125 14.089844 C 27.917969 14.085938 28.550781 14.089844 29.1875 14.089844 C 30.25 14.089844 31.316406 14.089844 32.386719 14.085938 C 33.617188 14.085938 34.851562 14.085938 36.089844 14.085938 C 37.144531 14.089844 38.203125 14.089844 39.261719 14.089844 C 39.894531 14.085938 40.527344 14.085938 41.160156 14.089844 C 41.863281 14.089844 42.566406 14.089844 43.273438 14.085938 C 43.589844 14.085938 43.589844 14.085938 43.914062 14.089844 C 44.105469 14.085938 44.296875 14.085938 44.492188 14.085938 C 44.742188 14.085938 44.742188 14.085938 45 14.085938 C 45.375 14.105469 45.375 14.105469 45.5625 13.875 C 45.582031 13.367188 45.59375 12.863281 45.59375 12.351562 C 45.59375 12.199219 45.59375 12.046875 45.597656 11.890625 C 45.597656 11.566406 45.597656 11.242188 45.597656 10.917969 C 45.597656 10.421875 45.601562 9.925781 45.605469 9.425781 C 45.605469 9.113281 45.605469 8.800781 45.605469 8.484375 C 45.609375 8.261719 45.609375 8.261719 45.609375 8.03125 C 45.640625 7.210938 45.640625 7.210938 45.1875 6.5625 C 44.777344 6.507812 44.777344 6.507812 44.296875 6.515625 C 44.109375 6.511719 43.921875 6.511719 43.730469 6.511719 C 43.523438 6.511719 43.316406 6.511719 43.101562 6.511719 C 42.886719 6.511719 42.667969 6.511719 42.445312 6.511719 C 41.722656 6.511719 41.003906 6.511719 40.28125 6.511719 C 39.785156 6.511719 39.285156 6.511719 38.785156 6.511719 C 37.738281 6.511719 36.695312 6.511719 35.648438 6.511719 C 34.4375 6.515625 33.226562 6.515625 32.015625 6.511719 C 30.976562 6.511719 29.9375 6.511719 28.898438 6.511719 C 28.277344 6.511719 27.65625 6.511719 27.035156 6.511719 C 26.34375 6.511719 25.652344 6.511719 24.960938 6.511719 C 24.753906 6.511719 24.546875 6.511719 24.332031 6.511719 C 24.144531 6.511719 23.957031 6.511719 23.765625 6.515625 C 23.601562 6.515625 23.4375 6.515625 23.269531 6.515625 C 22.832031 6.527344 22.832031 6.527344 22.5 6.9375 Z M 22.5 6.9375 "/>
<path style=" stroke:none;fill-rule:nonzero;fill:rgb(24.705882%,21.960784%,47.843137%);fill-opacity:1;" d="M 23.453125 18.46875 C 23.648438 18.464844 23.839844 18.464844 24.035156 18.464844 C 24.246094 18.464844 24.457031 18.464844 24.671875 18.46875 C 25.007812 18.464844 25.007812 18.464844 25.34375 18.464844 C 25.953125 18.464844 26.5625 18.464844 27.167969 18.46875 C 27.808594 18.46875 28.445312 18.46875 29.082031 18.46875 C 30.148438 18.46875 31.21875 18.46875 32.289062 18.472656 C 33.523438 18.480469 34.761719 18.480469 35.996094 18.476562 C 37.1875 18.476562 38.375 18.476562 39.5625 18.480469 C 40.070312 18.480469 40.574219 18.480469 41.082031 18.480469 C 41.789062 18.480469 42.496094 18.484375 43.199219 18.488281 C 43.410156 18.484375 43.621094 18.484375 43.839844 18.484375 C 44.03125 18.484375 44.222656 18.488281 44.421875 18.488281 C 44.671875 18.492188 44.671875 18.492188 44.929688 18.492188 C 45.46875 18.578125 45.726562 18.753906 46.125 19.125 C 46.21875 19.480469 46.21875 19.480469 46.222656 19.886719 C 46.222656 20.039062 46.226562 20.191406 46.230469 20.347656 C 46.226562 20.511719 46.226562 20.671875 46.226562 20.84375 C 46.226562 21.011719 46.226562 21.179688 46.226562 21.351562 C 46.226562 21.707031 46.226562 22.066406 46.222656 22.421875 C 46.21875 22.964844 46.222656 23.511719 46.226562 24.058594 C 46.226562 24.402344 46.226562 24.75 46.226562 25.09375 C 46.226562 25.261719 46.226562 25.421875 46.230469 25.589844 C 46.226562 25.820312 46.226562 25.820312 46.222656 26.050781 C 46.222656 26.1875 46.222656 26.320312 46.21875 26.457031 C 46.082031 26.972656 45.824219 27.097656 45.375 27.375 C 44.929688 27.445312 44.929688 27.445312 44.421875 27.449219 C 44.230469 27.449219 44.039062 27.453125 43.839844 27.453125 C 43.628906 27.453125 43.417969 27.453125 43.199219 27.453125 C 42.871094 27.453125 42.871094 27.453125 42.53125 27.457031 C 41.921875 27.457031 41.3125 27.457031 40.707031 27.457031 C 40.199219 27.457031 39.6875 27.457031 39.179688 27.460938 C 37.984375 27.460938 36.785156 27.460938 35.585938 27.460938 C 34.351562 27.457031 33.117188 27.460938 31.878906 27.464844 C 30.816406 27.46875 29.753906 27.46875 28.695312 27.46875 C 28.058594 27.46875 27.425781 27.46875 26.792969 27.472656 C 26.085938 27.472656 25.378906 27.472656 24.671875 27.46875 C 24.355469 27.472656 24.355469 27.472656 24.035156 27.472656 C 23.84375 27.472656 23.652344 27.46875 23.453125 27.46875 C 23.285156 27.46875 23.121094 27.46875 22.949219 27.46875 C 22.355469 27.34375 22.128906 27.085938 21.75 26.625 C 21.65625 26.261719 21.65625 26.261719 21.652344 25.878906 C 21.648438 25.734375 21.648438 25.59375 21.644531 25.445312 C 21.648438 25.289062 21.648438 25.136719 21.648438 24.980469 C 21.648438 24.820312 21.648438 24.660156 21.648438 24.496094 C 21.648438 24.160156 21.648438 23.820312 21.652344 23.484375 C 21.65625 22.96875 21.652344 22.457031 21.648438 21.941406 C 21.648438 21.613281 21.648438 21.285156 21.648438 20.957031 C 21.648438 20.804688 21.648438 20.652344 21.644531 20.492188 C 21.648438 20.347656 21.648438 20.203125 21.652344 20.058594 C 21.652344 19.929688 21.652344 19.804688 21.65625 19.675781 C 21.898438 18.75 22.570312 18.46875 23.453125 18.46875 Z M 22.5 19.5 C 22.460938 20.019531 22.445312 20.523438 22.449219 21.042969 C 22.449219 21.191406 22.449219 21.347656 22.449219 21.503906 C 22.449219 21.828125 22.449219 22.148438 22.449219 22.472656 C 22.453125 22.964844 22.449219 23.460938 22.449219 23.957031 C 22.449219 24.269531 22.449219 24.582031 22.449219 24.894531 C 22.449219 25.046875 22.449219 25.195312 22.449219 25.347656 C 22.421875 26.167969 22.421875 26.167969 22.875 26.8125 C 23.285156 26.871094 23.285156 26.871094 23.765625 26.859375 C 23.953125 26.859375 24.140625 26.863281 24.332031 26.863281 C 24.542969 26.863281 24.746094 26.859375 24.960938 26.859375 C 25.285156 26.863281 25.285156 26.863281 25.617188 26.863281 C 26.335938 26.863281 27.058594 26.863281 27.777344 26.863281 C 28.277344 26.863281 28.777344 26.863281 29.277344 26.863281 C 30.320312 26.863281 31.371094 26.863281 32.417969 26.859375 C 33.628906 26.859375 34.835938 26.859375 36.046875 26.863281 C 37.085938 26.863281 38.125 26.863281 39.164062 26.863281 C 39.785156 26.863281 40.40625 26.863281 41.027344 26.863281 C 41.71875 26.863281 42.410156 26.863281 43.105469 26.859375 C 43.308594 26.859375 43.515625 26.863281 43.730469 26.863281 C 43.917969 26.863281 44.105469 26.859375 44.296875 26.859375 C 44.542969 26.859375 44.542969 26.859375 44.792969 26.859375 C 45.226562 26.847656 45.226562 26.847656 45.5625 26.4375 C 45.597656 25.917969 45.613281 25.417969 45.613281 24.894531 C 45.613281 24.746094 45.613281 24.59375 45.613281 24.433594 C 45.613281 24.113281 45.613281 23.789062 45.613281 23.464844 C 45.609375 22.96875 45.609375 22.476562 45.613281 21.980469 C 45.613281 21.667969 45.613281 21.355469 45.613281 21.042969 C 45.613281 20.894531 45.613281 20.742188 45.613281 20.589844 C 45.640625 19.769531 45.640625 19.769531 45.1875 19.125 C 44.777344 19.070312 44.777344 19.070312 44.296875 19.078125 C 44.109375 19.074219 43.921875 19.074219 43.730469 19.074219 C 43.523438 19.074219 43.316406 19.074219 43.105469 19.074219 C 42.886719 19.074219 42.667969 19.074219 42.445312 19.074219 C 41.722656 19.074219 41.003906 19.074219 40.285156 19.074219 C 39.785156 19.074219 39.285156 19.074219 38.789062 19.074219 C 37.738281 19.074219 36.691406 19.074219 35.648438 19.074219 C 34.433594 19.078125 33.222656 19.078125 32.015625 19.074219 C 30.976562 19.074219 29.9375 19.074219 28.898438 19.074219 C 28.277344 19.074219 27.65625 19.074219 27.035156 19.074219 C 26.34375 19.074219 25.652344 19.074219 24.960938 19.074219 C 24.753906 19.074219 24.546875 19.074219 24.332031 19.074219 C 24.144531 19.074219 23.957031 19.074219 23.765625 19.078125 C 23.601562 19.078125 23.4375 19.078125 23.269531 19.078125 C 22.835938 19.089844 22.835938 19.089844 22.5 19.5 Z M 22.5 19.5 "/>
<path style=" stroke:none;fill-rule:nonzero;fill:rgb(28.627452%,25.490198%,48.627451%);fill-opacity:1;" d="M 28.921875 9.140625 C 29.167969 9.136719 29.414062 9.136719 29.667969 9.136719 C 29.941406 9.136719 30.210938 9.136719 30.480469 9.136719 C 30.757812 9.136719 31.03125 9.136719 31.308594 9.136719 C 31.886719 9.136719 32.464844 9.136719 33.046875 9.140625 C 33.789062 9.140625 34.53125 9.140625 35.273438 9.136719 C 35.84375 9.136719 36.414062 9.136719 36.984375 9.136719 C 37.257812 9.136719 37.53125 9.136719 37.804688 9.136719 C 38.1875 9.136719 38.570312 9.136719 38.953125 9.140625 C 39.28125 9.140625 39.28125 9.140625 39.613281 9.140625 C 40.125 9.1875 40.125 9.1875 40.5 9.5625 C 40.550781 9.953125 40.550781 9.953125 40.546875 10.40625 C 40.546875 10.628906 40.546875 10.628906 40.550781 10.859375 C 40.5 11.25 40.5 11.25 40.125 11.625 C 39.621094 11.675781 39.621094 11.675781 38.972656 11.675781 C 38.730469 11.675781 38.488281 11.679688 38.238281 11.679688 C 37.972656 11.679688 37.707031 11.679688 37.441406 11.679688 C 37.171875 11.679688 36.898438 11.683594 36.628906 11.683594 C 36.058594 11.683594 35.488281 11.683594 34.921875 11.683594 C 34.191406 11.683594 33.460938 11.6875 32.730469 11.691406 C 32.171875 11.691406 31.609375 11.691406 31.050781 11.691406 C 30.78125 11.691406 30.511719 11.695312 30.242188 11.695312 C 29.867188 11.699219 29.492188 11.695312 29.113281 11.695312 C 28.898438 11.695312 28.6875 11.695312 28.464844 11.695312 C 27.9375 11.625 27.9375 11.625 27.585938 11.363281 C 27.183594 10.792969 27.320312 10.238281 27.375 9.5625 C 27.894531 9.042969 28.195312 9.140625 28.921875 9.140625 Z M 28.921875 9.140625 "/>
<path style=" stroke:none;fill-rule:nonzero;fill:rgb(24.705882%,21.568628%,47.843137%);fill-opacity:1;" d="M 3.800781 18.484375 C 4.039062 18.480469 4.277344 18.476562 4.519531 18.472656 C 4.777344 18.472656 5.039062 18.472656 5.296875 18.472656 C 5.5625 18.472656 5.828125 18.472656 6.09375 18.46875 C 6.652344 18.46875 7.210938 18.46875 7.765625 18.46875 C 8.480469 18.46875 9.195312 18.464844 9.910156 18.457031 C 10.457031 18.453125 11.007812 18.453125 11.558594 18.453125 C 11.820312 18.453125 12.082031 18.449219 12.347656 18.445312 C 12.714844 18.441406 13.082031 18.445312 13.449219 18.445312 C 13.660156 18.445312 13.867188 18.445312 14.085938 18.445312 C 14.625 18.5625 14.625 18.5625 15.070312 19.015625 C 15.378906 19.503906 15.464844 19.71875 15.449219 20.289062 C 15.449219 20.414062 15.445312 20.542969 15.441406 20.671875 C 15.4375 20.832031 15.429688 20.988281 15.421875 21.152344 C 15.40625 21.65625 15.390625 22.167969 15.375 22.6875 C 16.953125 22.59375 16.953125 22.59375 18.5625 22.5 C 18.253906 22.191406 17.941406 21.882812 17.625 21.5625 C 17.660156 21.128906 17.660156 21.128906 17.8125 20.8125 C 18.441406 21.089844 18.878906 21.4375 19.371094 21.914062 C 19.503906 22.039062 19.640625 22.167969 19.777344 22.300781 C 20.0625 22.6875 20.0625 22.6875 20.066406 23.054688 C 19.804688 23.582031 19.445312 23.921875 19.019531 24.328125 C 18.867188 24.476562 18.710938 24.628906 18.550781 24.78125 C 18.429688 24.894531 18.308594 25.007812 18.1875 25.125 C 17.910156 25.03125 17.910156 25.03125 17.625 24.9375 C 17.738281 24.144531 17.921875 24.082031 18.5625 23.4375 C 17.511719 23.375 16.457031 23.3125 15.375 23.25 C 15.402344 24.257812 15.402344 24.257812 15.441406 25.265625 C 15.445312 25.390625 15.445312 25.515625 15.449219 25.648438 C 15.453125 25.777344 15.457031 25.90625 15.460938 26.039062 C 15.332031 26.640625 15.054688 26.941406 14.625 27.375 C 14.085938 27.492188 14.085938 27.492188 13.449219 27.492188 C 13.210938 27.492188 12.972656 27.492188 12.730469 27.496094 C 12.472656 27.492188 12.210938 27.488281 11.953125 27.484375 C 11.6875 27.484375 11.421875 27.484375 11.15625 27.484375 C 10.597656 27.484375 10.039062 27.480469 9.484375 27.476562 C 8.769531 27.46875 8.054688 27.46875 7.339844 27.46875 C 6.792969 27.46875 6.242188 27.46875 5.695312 27.464844 C 5.429688 27.464844 5.167969 27.464844 4.902344 27.464844 C 4.535156 27.464844 4.167969 27.457031 3.800781 27.453125 C 3.488281 27.453125 3.488281 27.453125 3.167969 27.449219 C 2.558594 27.367188 2.296875 27.253906 1.875 26.8125 C 1.78125 26.457031 1.78125 26.457031 1.777344 26.050781 C 1.773438 25.824219 1.773438 25.824219 1.769531 25.59375 C 1.773438 25.425781 1.773438 25.265625 1.773438 25.09375 C 1.773438 24.925781 1.773438 24.757812 1.773438 24.585938 C 1.773438 24.230469 1.773438 23.871094 1.777344 23.515625 C 1.78125 22.96875 1.777344 22.425781 1.773438 21.878906 C 1.773438 21.535156 1.773438 21.1875 1.773438 20.84375 C 1.773438 20.675781 1.773438 20.515625 1.769531 20.34375 C 1.773438 20.195312 1.773438 20.042969 1.777344 19.886719 C 1.777344 19.75 1.777344 19.617188 1.78125 19.480469 C 1.875 19.125 1.875 19.125 2.183594 18.800781 C 2.75 18.496094 3.15625 18.488281 3.800781 18.484375 Z M 2.4375 19.5 C 2.398438 20.019531 2.382812 20.519531 2.386719 21.042969 C 2.386719 21.191406 2.386719 21.347656 2.386719 21.503906 C 2.386719 21.828125 2.386719 22.148438 2.386719 22.472656 C 2.390625 22.96875 2.386719 23.460938 2.386719 23.957031 C 2.386719 24.269531 2.386719 24.582031 2.386719 24.894531 C 2.386719 25.042969 2.386719 25.195312 2.386719 25.347656 C 2.359375 26.167969 2.359375 26.167969 2.8125 26.8125 C 3.308594 26.871094 3.308594 26.871094 3.898438 26.859375 C 4.125 26.863281 4.355469 26.863281 4.589844 26.863281 C 4.835938 26.863281 5.085938 26.863281 5.335938 26.863281 C 5.59375 26.863281 5.847656 26.863281 6.101562 26.863281 C 6.636719 26.863281 7.171875 26.863281 7.707031 26.859375 C 8.394531 26.859375 9.078125 26.859375 9.765625 26.863281 C 10.292969 26.863281 10.816406 26.863281 11.34375 26.863281 C 11.722656 26.863281 12.097656 26.863281 12.472656 26.863281 C 12.699219 26.863281 12.929688 26.863281 13.164062 26.859375 C 13.363281 26.859375 13.566406 26.859375 13.773438 26.859375 C 14.28125 26.859375 14.28125 26.859375 14.625 26.4375 C 14.660156 25.917969 14.675781 25.417969 14.675781 24.894531 C 14.675781 24.746094 14.675781 24.589844 14.675781 24.433594 C 14.675781 24.109375 14.675781 23.789062 14.675781 23.464844 C 14.671875 22.96875 14.675781 22.476562 14.675781 21.980469 C 14.675781 21.667969 14.675781 21.355469 14.675781 21.042969 C 14.675781 20.894531 14.675781 20.742188 14.675781 20.589844 C 14.703125 19.769531 14.703125 19.769531 14.25 19.125 C 13.753906 19.066406 13.753906 19.066406 13.164062 19.078125 C 12.933594 19.074219 12.707031 19.074219 12.472656 19.074219 C 12.226562 19.074219 11.980469 19.074219 11.726562 19.074219 C 11.46875 19.074219 11.214844 19.074219 10.960938 19.074219 C 10.425781 19.074219 9.890625 19.074219 9.355469 19.078125 C 8.667969 19.078125 7.984375 19.078125 7.296875 19.074219 C 6.773438 19.074219 6.246094 19.074219 5.71875 19.074219 C 5.339844 19.074219 4.964844 19.074219 4.589844 19.074219 C 4.363281 19.074219 4.132812 19.074219 3.898438 19.078125 C 3.699219 19.078125 3.496094 19.078125 3.289062 19.078125 C 2.78125 19.078125 2.78125 19.078125 2.4375 19.5 Z M 2.4375 19.5 "/>
<path style=" stroke:none;fill-rule:nonzero;fill:rgb(24.313726%,21.176471%,47.058824%);fill-opacity:1;" d="M 6.75 41.25 C 18.136719 41.25 29.519531 41.25 41.25 41.25 C 41.25 41.496094 41.25 41.746094 41.25 42 C 29.863281 42 18.480469 42 6.75 42 C 6.75 41.753906 6.75 41.503906 6.75 41.25 Z M 6.75 41.25 "/>
<path style=" stroke:none;fill-rule:nonzero;fill:rgb(89.019608%,63.137257%,17.254902%);fill-opacity:1;" d="M 27.9375 34.875 C 31.898438 34.875 35.859375 34.875 39.9375 34.875 C 39.9375 35.308594 39.9375 35.742188 39.9375 36.1875 C 35.976562 36.1875 32.015625 36.1875 27.9375 36.1875 C 27.9375 35.753906 27.9375 35.320312 27.9375 34.875 Z M 27.9375 34.875 "/>
<path style=" stroke:none;fill-rule:nonzero;fill:rgb(32.941177%,23.137255%,47.058824%);fill-opacity:1;" d="M 29.113281 34.242188 C 29.355469 34.242188 29.601562 34.242188 29.847656 34.238281 C 30.117188 34.242188 30.378906 34.242188 30.644531 34.246094 C 30.917969 34.246094 31.1875 34.246094 31.460938 34.246094 C 32.027344 34.246094 32.597656 34.246094 33.167969 34.25 C 33.894531 34.253906 34.625 34.253906 35.355469 34.253906 C 35.917969 34.253906 36.476562 34.253906 37.039062 34.253906 C 37.308594 34.253906 37.574219 34.253906 37.847656 34.253906 C 38.222656 34.253906 38.597656 34.257812 38.972656 34.261719 C 39.292969 34.261719 39.292969 34.261719 39.621094 34.261719 C 40.125 34.3125 40.125 34.3125 40.5 34.6875 C 40.550781 35.082031 40.550781 35.082031 40.546875 35.53125 C 40.546875 35.753906 40.546875 35.753906 40.550781 35.984375 C 40.5 36.375 40.5 36.375 40.125 36.75 C 39.613281 36.796875 39.613281 36.796875 38.953125 36.796875 C 38.707031 36.800781 38.460938 36.800781 38.207031 36.800781 C 37.933594 36.800781 37.664062 36.800781 37.394531 36.800781 C 37.117188 36.800781 36.84375 36.800781 36.566406 36.800781 C 35.988281 36.800781 35.410156 36.800781 34.832031 36.796875 C 34.085938 36.796875 33.34375 36.796875 32.601562 36.800781 C 32.03125 36.800781 31.460938 36.800781 30.890625 36.800781 C 30.617188 36.800781 30.34375 36.800781 30.070312 36.800781 C 29.6875 36.800781 29.304688 36.800781 28.921875 36.796875 C 28.597656 36.796875 28.597656 36.796875 28.261719 36.796875 C 27.75 36.75 27.75 36.75 27.375 36.375 C 27.265625 35.027344 27.265625 35.027344 27.585938 34.574219 C 28.097656 34.195312 28.480469 34.242188 29.113281 34.242188 Z M 27.9375 34.875 C 27.9375 35.308594 27.9375 35.742188 27.9375 36.1875 C 31.898438 36.1875 35.855469 36.1875 39.9375 36.1875 C 39.9375 35.753906 39.9375 35.320312 39.9375 34.875 C 35.976562 34.875 32.015625 34.875 27.9375 34.875 Z M 27.9375 34.875 "/>
<path style=" stroke:none;fill-rule:nonzero;fill:rgb(89.019608%,63.137257%,17.254902%);fill-opacity:1;" d="M 27.9375 22.3125 C 31.898438 22.3125 35.859375 22.3125 39.9375 22.3125 C 39.9375 22.746094 39.9375 23.179688 39.9375 23.625 C 35.976562 23.625 32.015625 23.625 27.9375 23.625 C 27.9375 23.191406 27.9375 22.757812 27.9375 22.3125 Z M 27.9375 22.3125 "/>
<path style=" stroke:none;fill-rule:nonzero;fill:rgb(89.803922%,63.921571%,16.862746%);fill-opacity:1;" d="M 27.9375 9.75 C 31.898438 9.75 35.859375 9.75 39.9375 9.75 C 39.9375 10.183594 39.9375 10.617188 39.9375 11.0625 C 38.398438 11.066406 36.863281 11.070312 35.328125 11.070312 C 34.613281 11.074219 33.898438 11.074219 33.1875 11.078125 C 32.496094 11.078125 31.808594 11.078125 31.121094 11.078125 C 30.859375 11.082031 30.597656 11.082031 30.332031 11.082031 C 29.964844 11.082031 29.597656 11.082031 29.230469 11.082031 C 29.019531 11.085938 28.8125 11.085938 28.59375 11.085938 C 28.125 11.0625 28.125 11.0625 27.9375 10.875 C 27.9375 10.503906 27.9375 10.132812 27.9375 9.75 Z M 27.9375 9.75 "/>
<path style=" stroke:none;fill-rule:nonzero;fill:rgb(26.274511%,27.058825%,52.156866%);fill-opacity:1;" d="M 29.113281 21.679688 C 29.355469 21.679688 29.601562 21.679688 29.847656 21.675781 C 30.117188 21.679688 30.378906 21.679688 30.644531 21.683594 C 30.917969 21.683594 31.1875 21.683594 31.460938 21.683594 C 32.027344 21.683594 32.597656 21.683594 33.167969 21.6875 C 33.894531 21.691406 34.625 21.691406 35.355469 21.691406 C 35.917969 21.691406 36.476562 21.691406 37.039062 21.691406 C 37.308594 21.691406 37.574219 21.691406 37.847656 21.691406 C 38.222656 21.691406 38.597656 21.695312 38.972656 21.699219 C 39.292969 21.699219 39.292969 21.699219 39.621094 21.699219 C 40.125 21.75 40.125 21.75 40.5 22.125 C 40.550781 22.519531 40.550781 22.519531 40.546875 22.96875 C 40.546875 23.191406 40.546875 23.191406 40.550781 23.421875 C 40.5 23.8125 40.5 23.8125 40.125 24.1875 C 39.621094 24.234375 39.621094 24.234375 38.972656 24.238281 C 38.730469 24.242188 38.488281 24.242188 38.238281 24.246094 C 37.972656 24.246094 37.707031 24.242188 37.441406 24.242188 C 37.171875 24.246094 36.898438 24.246094 36.628906 24.246094 C 36.058594 24.246094 35.488281 24.246094 34.921875 24.246094 C 34.191406 24.246094 33.460938 24.25 32.730469 24.253906 C 32.171875 24.257812 31.609375 24.257812 31.050781 24.253906 C 30.78125 24.257812 30.511719 24.257812 30.242188 24.257812 C 29.867188 24.261719 29.492188 24.257812 29.113281 24.257812 C 28.902344 24.257812 28.6875 24.257812 28.464844 24.257812 C 27.9375 24.1875 27.9375 24.1875 27.589844 23.941406 C 27.230469 23.40625 27.308594 22.933594 27.375 22.3125 C 27.832031 21.628906 28.335938 21.679688 29.113281 21.679688 Z M 27.9375 22.3125 C 27.9375 22.746094 27.9375 23.179688 27.9375 23.625 C 31.898438 23.625 35.855469 23.625 39.9375 23.625 C 39.9375 23.191406 39.9375 22.757812 39.9375 22.3125 C 35.976562 22.3125 32.015625 22.3125 27.9375 22.3125 Z M 27.9375 22.3125 "/>
<path style=" stroke:none;fill-rule:nonzero;fill:rgb(36.470589%,46.27451%,84.313726%);fill-opacity:1;" d="M 3.292969 19.078125 C 3.59375 19.082031 3.59375 19.082031 3.90625 19.082031 C 4.25 19.082031 4.25 19.082031 4.597656 19.082031 C 4.851562 19.082031 5.101562 19.085938 5.351562 19.089844 C 5.609375 19.089844 5.863281 19.089844 6.121094 19.089844 C 6.792969 19.089844 7.464844 19.09375 8.140625 19.097656 C 8.828125 19.101562 9.515625 19.105469 10.203125 19.105469 C 11.550781 19.109375 12.902344 19.117188 14.25 19.125 C 14.25 19.1875 14.25 19.25 14.25 19.3125 C 10.90625 19.375 7.566406 19.4375 4.125 19.5 C 4.125 21.789062 4.125 24.078125 4.125 26.4375 C 7.464844 26.5 10.808594 26.5625 14.25 26.625 C 14.25 26.6875 14.25 26.75 14.25 26.8125 C 12.765625 26.820312 11.28125 26.828125 9.796875 26.832031 C 9.105469 26.832031 8.417969 26.835938 7.726562 26.839844 C 7.0625 26.84375 6.398438 26.847656 5.734375 26.847656 C 5.476562 26.847656 5.226562 26.851562 4.96875 26.851562 C 4.617188 26.855469 4.257812 26.855469 3.90625 26.855469 C 3.703125 26.855469 3.5 26.855469 3.292969 26.855469 C 2.8125 26.8125 2.8125 26.8125 2.4375 26.4375 C 2.398438 25.917969 2.382812 25.417969 2.386719 24.894531 C 2.386719 24.746094 2.386719 24.589844 2.386719 24.433594 C 2.386719 24.109375 2.386719 23.789062 2.386719 23.464844 C 2.390625 22.96875 2.386719 22.476562 2.386719 21.980469 C 2.386719 21.667969 2.386719 21.355469 2.386719 21.042969 C 2.386719 20.894531 2.386719 20.742188 2.386719 20.589844 C 2.398438 19.164062 2.398438 19.164062 3.292969 19.078125 Z M 3.292969 19.078125 "/>
<path style=" stroke:none;fill-rule:nonzero;fill:rgb(43.529412%,43.137255%,46.666667%);fill-opacity:1;" d="M 3.292969 6.515625 C 3.59375 6.519531 3.59375 6.519531 3.90625 6.519531 C 4.25 6.519531 4.25 6.519531 4.597656 6.519531 C 4.851562 6.519531 5.101562 6.523438 5.351562 6.527344 C 5.609375 6.527344 5.863281 6.527344 6.121094 6.527344 C 6.792969 6.527344 7.464844 6.53125 8.140625 6.535156 C 8.828125 6.539062 9.515625 6.542969 10.203125 6.542969 C 11.550781 6.546875 12.902344 6.554688 14.25 6.5625 C 14.25 6.625 14.25 6.6875 14.25 6.75 C 10.90625 6.8125 7.566406 6.875 4.125 6.9375 C 4.125 9.226562 4.125 11.515625 4.125 13.875 C 7.464844 13.9375 10.808594 14 14.25 14.0625 C 14.25 14.125 14.25 14.1875 14.25 14.25 C 12.765625 14.257812 11.28125 14.265625 9.796875 14.269531 C 9.105469 14.269531 8.417969 14.273438 7.726562 14.277344 C 7.0625 14.28125 6.398438 14.285156 5.734375 14.285156 C 5.476562 14.285156 5.226562 14.289062 4.96875 14.289062 C 4.617188 14.292969 4.257812 14.292969 3.90625 14.292969 C 3.703125 14.292969 3.5 14.292969 3.292969 14.292969 C 2.8125 14.25 2.8125 14.25 2.4375 13.875 C 2.398438 13.355469 2.382812 12.855469 2.386719 12.332031 C 2.386719 12.183594 2.386719 12.027344 2.386719 11.871094 C 2.386719 11.546875 2.386719 11.226562 2.386719 10.902344 C 2.390625 10.40625 2.386719 9.914062 2.386719 9.417969 C 2.386719 9.105469 2.386719 8.792969 2.386719 8.480469 C 2.386719 8.332031 2.386719 8.179688 2.386719 8.027344 C 2.398438 6.601562 2.398438 6.601562 3.292969 6.515625 Z M 3.292969 6.515625 "/>
<path style=" stroke:none;fill-rule:nonzero;fill:rgb(94.509804%,52.549022%,45.882353%);fill-opacity:1;" d="M 43.875 31.875 C 44.371094 31.875 44.863281 31.875 45.375 31.875 C 45.714844 32.214844 45.585938 32.683594 45.589844 33.136719 C 45.589844 33.285156 45.585938 33.4375 45.585938 33.59375 C 45.585938 33.746094 45.585938 33.898438 45.589844 34.054688 C 45.589844 34.382812 45.585938 34.707031 45.585938 35.03125 C 45.585938 35.53125 45.585938 36.027344 45.589844 36.527344 C 45.589844 36.84375 45.585938 37.15625 45.585938 37.46875 C 45.585938 37.621094 45.589844 37.773438 45.589844 37.925781 C 45.582031 38.980469 45.582031 38.980469 45.375 39.1875 C 44.878906 39.1875 44.386719 39.1875 43.875 39.1875 C 43.875 36.773438 43.875 34.359375 43.875 31.875 Z M 43.875 31.875 "/>
<path style=" stroke:none;fill-rule:nonzero;fill:rgb(94.509804%,18.82353%,45.882353%);fill-opacity:1;" d="M 2.625 31.875 C 3.121094 31.875 3.613281 31.875 4.125 31.875 C 4.125 34.289062 4.125 36.703125 4.125 39.1875 C 3.628906 39.1875 3.136719 39.1875 2.625 39.1875 C 2.285156 38.847656 2.414062 38.378906 2.410156 37.925781 C 2.410156 37.777344 2.414062 37.625 2.414062 37.46875 C 2.414062 37.316406 2.414062 37.164062 2.410156 37.007812 C 2.410156 36.679688 2.414062 36.355469 2.414062 36.03125 C 2.414062 35.53125 2.414062 35.035156 2.410156 34.535156 C 2.410156 34.21875 2.414062 33.90625 2.414062 33.59375 C 2.414062 33.441406 2.410156 33.289062 2.410156 33.136719 C 2.417969 32.082031 2.417969 32.082031 2.625 31.875 Z M 2.625 31.875 "/>
<path style=" stroke:none;fill-rule:nonzero;fill:rgb(38.431373%,87.450981%,89.803922%);fill-opacity:1;" d="M 43.875 19.3125 C 44.371094 19.3125 44.863281 19.3125 45.375 19.3125 C 45.714844 19.652344 45.585938 20.121094 45.589844 20.574219 C 45.589844 20.722656 45.585938 20.875 45.585938 21.03125 C 45.585938 21.183594 45.585938 21.335938 45.589844 21.492188 C 45.589844 21.820312 45.585938 22.144531 45.585938 22.46875 C 45.585938 22.96875 45.585938 23.464844 45.589844 23.964844 C 45.589844 24.28125 45.585938 24.59375 45.585938 24.90625 C 45.585938 25.058594 45.589844 25.210938 45.589844 25.363281 C 45.582031 26.417969 45.582031 26.417969 45.375 26.625 C 44.878906 26.625 44.386719 26.625 43.875 26.625 C 43.875 24.210938 43.875 21.796875 43.875 19.3125 Z M 43.875 19.3125 "/>
<path style=" stroke:none;fill-rule:nonzero;fill:rgb(79.607844%,79.607844%,80.000001%);fill-opacity:1;" d="M 43.875 6.75 C 44.371094 6.75 44.863281 6.75 45.375 6.75 C 45.714844 7.089844 45.585938 7.558594 45.589844 8.011719 C 45.589844 8.160156 45.585938 8.3125 45.585938 8.46875 C 45.585938 8.621094 45.585938 8.773438 45.589844 8.929688 C 45.589844 9.257812 45.585938 9.582031 45.585938 9.90625 C 45.585938 10.40625 45.585938 10.902344 45.589844 11.402344 C 45.589844 11.71875 45.585938 12.03125 45.585938 12.34375 C 45.585938 12.496094 45.589844 12.648438 45.589844 12.800781 C 45.582031 13.855469 45.582031 13.855469 45.375 14.0625 C 44.878906 14.0625 44.386719 14.0625 43.875 14.0625 C 43.875 11.648438 43.875 9.234375 43.875 6.75 Z M 43.875 6.75 "/>
<path style=" stroke:none;fill-rule:nonzero;fill:rgb(24.705882%,20.784314%,47.450981%);fill-opacity:1;" d="M 42.5625 41.25 C 43.863281 41.25 45.160156 41.25 46.5 41.25 C 46.5 41.496094 46.5 41.746094 46.5 42 C 45.199219 42 43.902344 42 42.5625 42 C 42.5625 41.753906 42.5625 41.503906 42.5625 41.25 Z M 42.5625 41.25 "/>
<path style=" stroke:none;fill-rule:nonzero;fill:rgb(24.705882%,20.784314%,47.058824%);fill-opacity:1;" d="M 1.5 41.25 C 2.800781 41.25 4.097656 41.25 5.4375 41.25 C 5.4375 41.496094 5.4375 41.746094 5.4375 42 C 4.136719 42 2.839844 42 1.5 42 C 1.5 41.753906 1.5 41.503906 1.5 41.25 Z M 1.5 41.25 "/>
</g>
</svg>
