<?xml version="1.0" encoding="UTF-8"?>
<svg xmlns="http://www.w3.org/2000/svg" xmlns:xlink="http://www.w3.org/1999/xlink" width="48" height="48" viewBox="0 0 48 48" version="1.1">
<g id="surface1">
<path style=" stroke:none;fill-rule:nonzero;fill:rgb(4.705882%,3.921569%,3.137255%);fill-opacity:1;" d="M 36.375 1.875 C 37.496094 2.371094 37.957031 3.234375 38.4375 4.3125 C 38.484375 4.503906 38.527344 4.695312 38.574219 4.890625 C 38.902344 5.648438 39.28125 5.738281 40.03125 6.046875 C 42.15625 7.015625 43.351562 8.488281 44.367188 10.558594 C 44.953125 12.132812 45.050781 13.671875 45.050781 15.339844 C 45.054688 15.761719 45.058594 16.183594 45.0625 16.605469 C 45.066406 17.261719 45.070312 17.921875 45.070312 18.578125 C 45.074219 19.21875 45.078125 19.855469 45.085938 20.496094 C 45.085938 20.789062 45.085938 20.789062 45.085938 21.085938 C 45.105469 22.707031 45.511719 24.136719 46.6875 25.3125 C 47.113281 25.59375 47.542969 25.828125 48 26.0625 C 48.09375 26.554688 48.09375 26.554688 48 27.1875 C 46.730469 28.722656 44.363281 29.152344 42.515625 29.542969 C 42.277344 29.59375 42.042969 29.644531 41.796875 29.699219 C 41.527344 29.753906 41.527344 29.753906 41.25 29.8125 C 41.25 29.984375 41.25 30.152344 41.246094 30.328125 C 41.234375 31.945312 41.222656 33.558594 41.203125 35.171875 C 41.199219 36 41.191406 36.832031 41.183594 37.660156 C 41.179688 38.460938 41.171875 39.261719 41.164062 40.0625 C 41.160156 40.367188 41.15625 40.675781 41.15625 40.980469 C 41.15625 41.40625 41.148438 41.835938 41.144531 42.265625 C 41.140625 42.628906 41.140625 42.628906 41.136719 43.003906 C 41 44.253906 40.535156 45.109375 39.5625 45.9375 C 38.875 46.167969 38.246094 46.152344 37.53125 46.152344 C 37.378906 46.152344 37.226562 46.152344 37.070312 46.152344 C 36.5625 46.15625 36.050781 46.15625 35.542969 46.15625 C 35.179688 46.15625 34.816406 46.15625 34.449219 46.160156 C 33.460938 46.160156 32.46875 46.164062 31.476562 46.164062 C 30.859375 46.164062 30.238281 46.164062 29.621094 46.164062 C 27.6875 46.167969 25.75 46.171875 23.816406 46.171875 C 21.578125 46.171875 19.34375 46.171875 17.109375 46.179688 C 15.382812 46.183594 13.65625 46.183594 11.929688 46.183594 C 10.894531 46.183594 9.863281 46.1875 8.832031 46.191406 C 7.863281 46.191406 6.890625 46.195312 5.921875 46.191406 C 5.566406 46.191406 5.207031 46.191406 4.851562 46.195312 C 4.363281 46.195312 3.878906 46.195312 3.394531 46.195312 C 3.25 46.195312 3.109375 46.195312 2.964844 46.199219 C 1.8125 46.1875 1.257812 45.847656 0.417969 45.09375 C -0.222656 44.277344 -0.128906 43.347656 -0.117188 42.347656 C -0.121094 42.140625 -0.121094 41.929688 -0.121094 41.71875 C -0.125 41.027344 -0.121094 40.339844 -0.117188 39.652344 C -0.117188 39.171875 -0.117188 38.691406 -0.121094 38.210938 C -0.121094 37.210938 -0.117188 36.207031 -0.113281 35.203125 C -0.105469 34.042969 -0.105469 32.886719 -0.109375 31.726562 C -0.113281 30.609375 -0.109375 29.492188 -0.105469 28.375 C -0.105469 27.902344 -0.105469 27.425781 -0.109375 26.953125 C -0.109375 26.289062 -0.105469 25.628906 -0.0976562 24.964844 C -0.101562 24.769531 -0.101562 24.570312 -0.101562 24.371094 C -0.0898438 23.25 0.0078125 22.609375 0.75 21.75 C 1.085938 21.429688 1.085938 21.429688 1.429688 21.179688 C 1.558594 21.082031 1.6875 20.984375 1.820312 20.886719 C 1.957031 20.789062 2.089844 20.691406 2.226562 20.589844 C 2.632812 20.289062 3.035156 19.988281 3.433594 19.679688 C 3.828125 19.394531 4.203125 19.15625 4.621094 18.914062 C 5.5 18.375 6.367188 17.84375 6.703125 16.820312 C 6.914062 15.617188 6.855469 14.410156 6.808594 13.195312 C 6.800781 12.828125 6.796875 12.460938 6.796875 12.089844 C 6.789062 11.421875 6.773438 10.753906 6.753906 10.085938 C 6.75 9.851562 6.75 9.617188 6.75 9.375 C 6.9375 9.1875 6.9375 9.1875 7.328125 9.171875 C 7.5 9.175781 7.671875 9.179688 7.847656 9.183594 C 8.039062 9.183594 8.234375 9.1875 8.4375 9.191406 C 8.648438 9.191406 8.859375 9.195312 9.078125 9.199219 C 9.527344 9.203125 9.976562 9.203125 10.425781 9.203125 C 11.132812 9.207031 11.839844 9.210938 12.550781 9.226562 C 15.816406 9.378906 15.816406 9.378906 18.644531 7.976562 C 18.832031 7.792969 19.019531 7.609375 19.207031 7.417969 C 19.683594 6.941406 19.96875 6.699219 20.625 6.5625 C 21.003906 6.722656 21.003906 6.722656 21.367188 7.011719 C 21.5625 7.164062 21.5625 7.164062 21.765625 7.320312 C 21.964844 7.484375 21.964844 7.484375 22.171875 7.652344 C 22.308594 7.761719 22.445312 7.867188 22.589844 7.976562 C 23.535156 8.722656 23.535156 8.722656 23.8125 9 C 25.121094 9.171875 26.898438 9.398438 28.058594 8.707031 C 28.371094 8.320312 28.621094 7.925781 28.875 7.5 C 29.585938 6.730469 30.277344 6.328125 31.253906 5.964844 C 31.890625 5.699219 32.179688 5.5625 32.523438 4.953125 C 32.644531 4.59375 32.757812 4.226562 32.859375 3.859375 C 33.09375 3.054688 33.53125 2.621094 34.160156 2.097656 C 34.914062 1.78125 35.570312 1.753906 36.375 1.875 Z M 36.375 1.875 "/>
<path style=" stroke:none;fill-rule:nonzero;fill:rgb(99.215686%,38.82353%,43.137255%);fill-opacity:1;" d="M 35.472656 5.953125 C 35.640625 5.949219 35.808594 5.945312 35.980469 5.941406 C 38.253906 5.929688 40.117188 6.703125 41.820312 8.214844 C 43.132812 9.605469 44.082031 11.433594 44.089844 13.359375 C 44.089844 13.648438 44.089844 13.648438 44.09375 13.949219 C 44.09375 14.160156 44.09375 14.375 44.097656 14.589844 C 44.097656 15.039062 44.105469 15.488281 44.109375 15.9375 C 44.117188 16.644531 44.121094 17.351562 44.125 18.058594 C 44.125 18.742188 44.132812 19.425781 44.144531 20.109375 C 44.144531 20.320312 44.140625 20.527344 44.140625 20.742188 C 44.167969 22.476562 44.511719 23.914062 45.5625 25.3125 C 45.5625 25.4375 45.5625 25.558594 45.5625 25.6875 C 45.726562 25.757812 45.726562 25.757812 45.890625 25.828125 C 46.367188 26.09375 46.691406 26.414062 47.0625 26.8125 C 46.839844 26.957031 46.617188 27.101562 46.394531 27.246094 C 46.207031 27.367188 46.207031 27.367188 46.019531 27.488281 C 44.929688 28.109375 43.859375 28.441406 42.644531 28.699219 C 42.445312 28.742188 42.445312 28.742188 42.242188 28.789062 C 40.019531 29.277344 37.828125 29.503906 35.554688 29.484375 C 35.316406 29.484375 35.078125 29.484375 34.832031 29.480469 C 31.078125 29.4375 27.484375 28.878906 24.1875 27 C 24.1875 26.8125 24.1875 26.628906 24.1875 26.4375 C 24.488281 26.148438 24.488281 26.148438 24.890625 25.839844 C 25.667969 25.1875 26.082031 24.566406 26.4375 23.625 C 26.5 23.476562 26.566406 23.328125 26.628906 23.175781 C 26.890625 22.210938 26.867188 21.28125 26.871094 20.28125 C 26.875 19.839844 26.878906 19.402344 26.886719 18.960938 C 26.890625 18.269531 26.894531 17.578125 26.898438 16.886719 C 26.902344 16.21875 26.910156 15.550781 26.917969 14.878906 C 26.917969 14.675781 26.917969 14.472656 26.917969 14.261719 C 26.945312 11.90625 27.636719 10.019531 29.214844 8.242188 C 31.03125 6.523438 33.050781 5.964844 35.472656 5.953125 Z M 35.472656 5.953125 "/>
<path style=" stroke:none;fill-rule:nonzero;fill:rgb(99.215686%,88.627452%,34.901962%);fill-opacity:1;" d="M 20.25 28.125 C 21.027344 28.4375 21.574219 29 22.171875 29.566406 C 22.390625 29.769531 22.609375 29.976562 22.828125 30.183594 C 22.933594 30.28125 23.039062 30.378906 23.148438 30.480469 C 23.613281 30.914062 24.09375 31.328125 24.570312 31.742188 C 25 32.117188 25.417969 32.5 25.839844 32.882812 C 26.472656 33.457031 27.117188 34 27.785156 34.535156 C 28.921875 35.453125 29.976562 36.453125 31.039062 37.457031 C 31.628906 38.007812 32.222656 38.542969 32.832031 39.066406 C 33.269531 39.445312 33.699219 39.832031 34.125 40.21875 C 34.683594 40.722656 35.246094 41.222656 35.8125 41.71875 C 38.296875 43.882812 38.296875 43.882812 39.375 45 C 38.671875 45.460938 37.96875 45.425781 37.15625 45.421875 C 36.933594 45.421875 36.933594 45.421875 36.707031 45.421875 C 36.207031 45.425781 35.710938 45.425781 35.207031 45.421875 C 34.851562 45.421875 34.496094 45.425781 34.136719 45.425781 C 33.164062 45.425781 32.195312 45.425781 31.222656 45.425781 C 30.207031 45.421875 29.191406 45.425781 28.175781 45.425781 C 26.46875 45.425781 24.761719 45.425781 23.058594 45.421875 C 21.085938 45.421875 19.113281 45.421875 17.136719 45.421875 C 15.445312 45.425781 13.75 45.425781 12.058594 45.425781 C 11.046875 45.425781 10.035156 45.425781 9.023438 45.425781 C 8.070312 45.425781 7.121094 45.425781 6.171875 45.421875 C 5.820312 45.421875 5.472656 45.421875 5.121094 45.425781 C 4.644531 45.425781 4.171875 45.421875 3.695312 45.421875 C 3.554688 45.421875 3.414062 45.421875 3.273438 45.425781 C 2.578125 45.421875 2.28125 45.394531 1.6875 45 C 1.6875 44.625 1.6875 44.625 1.949219 44.359375 C 2.070312 44.257812 2.195312 44.15625 2.320312 44.050781 C 2.929688 43.53125 3.53125 43.007812 4.125 42.46875 C 4.804688 41.859375 5.484375 41.25 6.175781 40.652344 C 6.621094 40.261719 7.0625 39.867188 7.5 39.46875 C 8.179688 38.855469 8.863281 38.25 9.554688 37.648438 C 9.984375 37.269531 10.414062 36.882812 10.839844 36.492188 C 11.503906 35.890625 12.183594 35.320312 12.878906 34.757812 C 13.589844 34.183594 14.242188 33.59375 14.875 32.9375 C 15.324219 32.488281 15.800781 32.078125 16.28125 31.664062 C 16.734375 31.269531 17.179688 30.871094 17.625 30.46875 C 18.335938 29.824219 19.058594 29.1875 19.78125 28.558594 C 19.941406 28.417969 20.101562 28.273438 20.25 28.125 Z M 20.25 28.125 "/>
<path style=" stroke:none;fill-rule:nonzero;fill:rgb(97.254902%,96.470588%,96.862745%);fill-opacity:1;" d="M 7.6875 10.125 C 14.0625 10.125 20.433594 10.125 27 10.125 C 26.8125 10.867188 26.628906 11.609375 26.4375 12.375 C 26.242188 12.375 26.046875 12.378906 25.847656 12.378906 C 24.019531 12.398438 22.1875 12.417969 20.359375 12.4375 C 19.417969 12.449219 18.476562 12.460938 17.539062 12.46875 C 16.632812 12.476562 15.722656 12.488281 14.816406 12.496094 C 14.472656 12.5 14.125 12.503906 13.777344 12.507812 C 13.292969 12.511719 12.808594 12.515625 12.324219 12.523438 C 12.179688 12.523438 12.035156 12.527344 11.886719 12.527344 C 11.230469 12.476562 11.230469 12.476562 10.6875 12.75 C 10.667969 13.027344 10.664062 13.304688 10.664062 13.582031 C 10.664062 13.75 10.660156 13.917969 10.660156 14.089844 C 10.664062 14.265625 10.664062 14.441406 10.664062 14.625 C 10.664062 14.800781 10.664062 14.976562 10.660156 15.160156 C 10.664062 15.410156 10.664062 15.410156 10.664062 15.667969 C 10.664062 15.824219 10.664062 15.980469 10.664062 16.136719 C 10.648438 16.5 10.648438 16.5 10.875 16.6875 C 11.351562 16.710938 11.828125 16.722656 12.308594 16.726562 C 12.457031 16.730469 12.609375 16.730469 12.761719 16.734375 C 13.261719 16.738281 13.757812 16.742188 14.257812 16.746094 C 14.601562 16.75 14.945312 16.753906 15.289062 16.757812 C 16.199219 16.769531 17.109375 16.777344 18.015625 16.785156 C 18.941406 16.796875 19.867188 16.808594 20.792969 16.816406 C 22.613281 16.835938 24.429688 16.855469 26.25 16.875 C 26.261719 17.683594 26.265625 18.492188 26.273438 19.300781 C 26.277344 19.527344 26.28125 19.753906 26.285156 19.988281 C 26.292969 22.019531 26.148438 23.738281 24.75 25.3125 C 24.273438 25.679688 23.785156 25.980469 23.25 26.25 C 23.226562 26.6875 23.226562 26.6875 23.4375 27.1875 C 25.082031 28.6875 27.703125 29.203125 29.8125 29.625 C 29.140625 30.316406 28.4375 30.945312 27.691406 31.558594 C 27.589844 31.644531 27.484375 31.730469 27.378906 31.816406 C 27.128906 32.023438 26.875 32.230469 26.625 32.4375 C 26.097656 32.195312 25.699219 31.9375 25.28125 31.539062 C 25.171875 31.4375 25.0625 31.335938 24.953125 31.230469 C 24.839844 31.121094 24.726562 31.015625 24.609375 30.902344 C 24.375 30.679688 24.140625 30.460938 23.902344 30.238281 C 23.789062 30.132812 23.675781 30.027344 23.5625 29.914062 C 22.613281 29.03125 21.625 28.199219 20.625 27.375 C 19.921875 27.671875 19.445312 28.113281 18.890625 28.628906 C 18.707031 28.796875 18.523438 28.96875 18.339844 29.140625 C 18.164062 29.296875 17.992188 29.460938 17.8125 29.625 C 17.433594 29.960938 17.054688 30.292969 16.671875 30.621094 C 16.414062 30.847656 16.164062 31.078125 15.921875 31.316406 C 15.792969 31.4375 15.660156 31.5625 15.527344 31.6875 C 15.414062 31.800781 15.296875 31.914062 15.179688 32.027344 C 14.8125 32.25 14.8125 32.25 14.386719 32.257812 C 13.640625 31.96875 13.109375 31.492188 12.503906 30.972656 C 12.238281 30.75 11.972656 30.53125 11.710938 30.308594 C 11.503906 30.140625 11.503906 30.140625 11.296875 29.964844 C 10.367188 29.214844 9.402344 28.511719 8.445312 27.800781 C 7.875 27.375 7.875 27.375 7.6875 27.1875 C 7.667969 26.65625 7.664062 26.128906 7.667969 25.597656 C 7.667969 25.347656 7.667969 25.347656 7.667969 25.085938 C 7.667969 24.535156 7.667969 23.988281 7.667969 23.4375 C 7.667969 23.097656 7.667969 22.757812 7.671875 22.421875 C 7.671875 21.160156 7.671875 19.902344 7.675781 18.644531 C 7.679688 15.832031 7.683594 13.023438 7.6875 10.125 Z M 7.6875 10.125 "/>
<path style=" stroke:none;fill-rule:nonzero;fill:rgb(99.215686%,89.019608%,34.901962%);fill-opacity:1;" d="M 0.9375 22.875 C 1.703125 23.199219 2.304688 23.722656 2.941406 24.246094 C 3.976562 25.082031 5.019531 25.902344 6.082031 26.707031 C 7.277344 27.613281 8.445312 28.546875 9.609375 29.496094 C 10.59375 30.304688 11.605469 31.082031 12.625 31.851562 C 13.078125 32.210938 13.476562 32.582031 13.875 33 C 11.027344 35.675781 11.027344 35.675781 9.914062 36.632812 C 9.488281 37 9.074219 37.378906 8.660156 37.757812 C 8.027344 38.332031 7.382812 38.875 6.714844 39.410156 C 5.835938 40.121094 5.007812 40.875 4.183594 41.648438 C 4.003906 41.816406 4.003906 41.816406 3.816406 41.992188 C 3.320312 42.460938 2.816406 42.933594 2.320312 43.40625 C 2.1875 43.523438 2.058594 43.644531 1.921875 43.769531 C 1.816406 43.871094 1.707031 43.96875 1.597656 44.074219 C 1.503906 44.132812 1.410156 44.191406 1.3125 44.25 C 1.125 44.1875 0.941406 44.125 0.75 44.0625 C 0.746094 41.355469 0.742188 38.648438 0.742188 35.941406 C 0.738281 34.683594 0.738281 33.425781 0.734375 32.171875 C 0.734375 30.957031 0.734375 29.746094 0.734375 28.535156 C 0.730469 28.070312 0.730469 27.609375 0.730469 27.144531 C 0.730469 26.496094 0.730469 25.851562 0.730469 25.203125 C 0.726562 25.011719 0.726562 24.816406 0.726562 24.617188 C 0.726562 24.441406 0.726562 24.265625 0.726562 24.085938 C 0.726562 23.933594 0.726562 23.777344 0.726562 23.621094 C 0.75 23.25 0.75 23.25 0.9375 22.875 Z M 0.9375 22.875 "/>
<path style=" stroke:none;fill-rule:nonzero;fill:rgb(99.215686%,88.627452%,34.901962%);fill-opacity:1;" d="M 30 30.5625 C 30.457031 31.003906 30.859375 31.449219 31.242188 31.957031 C 32.042969 32.90625 33.152344 33.363281 34.3125 33.75 C 36.46875 33.933594 37.824219 33.492188 39.5625 32.25 C 39.75 32.125 39.933594 32.003906 40.125 31.875 C 40.132812 33.433594 40.140625 34.992188 40.144531 36.550781 C 40.144531 37.273438 40.148438 37.996094 40.152344 38.71875 C 40.15625 39.417969 40.160156 40.117188 40.160156 40.8125 C 40.160156 41.078125 40.164062 41.34375 40.164062 41.613281 C 40.167969 41.984375 40.167969 42.359375 40.167969 42.730469 C 40.167969 42.941406 40.171875 43.15625 40.171875 43.375 C 40.125 43.875 40.125 43.875 39.75 44.25 C 38.929688 43.539062 38.117188 42.820312 37.3125 42.09375 C 36.632812 41.480469 35.949219 40.875 35.257812 40.273438 C 34.828125 39.894531 34.398438 39.507812 33.972656 39.117188 C 33.339844 38.542969 32.695312 38 32.027344 37.464844 C 31.011719 36.644531 30.0625 35.765625 29.117188 34.867188 C 28.433594 34.21875 27.734375 33.597656 27 33 C 27.878906 32.03125 28.933594 31.3125 30 30.5625 Z M 30 30.5625 "/>
<path style=" stroke:none;fill-rule:nonzero;fill:rgb(96.862745%,96.078432%,96.862745%);fill-opacity:1;" d="M 11.25 13.125 C 16.199219 13.125 21.148438 13.125 26.25 13.125 C 26.25 14.113281 26.25 15.105469 26.25 16.125 C 21.300781 16.125 16.351562 16.125 11.25 16.125 C 11.25 15.136719 11.25 14.144531 11.25 13.125 Z M 11.25 13.125 "/>
<path style=" stroke:none;fill-rule:nonzero;fill:rgb(85.882354%,84.705883%,91.764706%);fill-opacity:1;" d="M 7.6875 10.125 C 7.996094 10.125 8.304688 10.125 8.625 10.125 C 8.621094 10.320312 8.617188 10.519531 8.613281 10.722656 C 8.582031 12.589844 8.566406 14.457031 8.5625 16.324219 C 8.558594 17.285156 8.550781 18.246094 8.535156 19.207031 C 8.515625 20.132812 8.511719 21.058594 8.515625 21.988281 C 8.515625 22.339844 8.511719 22.691406 8.5 23.046875 C 8.398438 24.914062 8.398438 24.914062 9.070312 26.597656 C 9.777344 27.304688 10.585938 27.804688 11.4375 28.3125 C 11.710938 28.519531 11.980469 28.730469 12.242188 28.945312 C 12.347656 29.027344 12.457031 29.113281 12.5625 29.199219 C 12.773438 29.363281 12.984375 29.53125 13.191406 29.691406 C 13.726562 30.113281 14.265625 30.53125 14.8125 30.9375 C 15.546875 30.632812 16.070312 30.128906 16.640625 29.589844 C 16.839844 29.402344 17.042969 29.214844 17.242188 29.027344 C 17.390625 28.894531 17.390625 28.894531 17.535156 28.753906 C 18.011719 28.316406 18.496094 27.890625 18.988281 27.46875 C 19.199219 27.285156 19.410156 27.09375 19.613281 26.898438 C 20.058594 26.488281 20.359375 26.261719 20.964844 26.164062 C 21.75 26.277344 22.128906 26.65625 22.664062 27.199219 C 22.863281 27.390625 23.058594 27.582031 23.257812 27.769531 C 23.351562 27.863281 23.445312 27.957031 23.546875 28.054688 C 23.890625 28.386719 24.246094 28.703125 24.609375 29.015625 C 24.722656 29.113281 24.839844 29.214844 24.957031 29.316406 C 25.074219 29.417969 25.191406 29.519531 25.3125 29.625 C 25.59375 29.871094 25.875 30.117188 26.15625 30.363281 C 26.28125 30.472656 26.40625 30.582031 26.535156 30.695312 C 26.628906 30.777344 26.71875 30.855469 26.8125 30.9375 C 27.234375 30.734375 27.589844 30.542969 27.960938 30.257812 C 28.3125 30 28.3125 30 28.6875 30 C 28.6875 29.8125 28.6875 29.628906 28.6875 29.4375 C 29.058594 29.5 29.429688 29.5625 29.8125 29.625 C 29.140625 30.316406 28.4375 30.945312 27.691406 31.558594 C 27.589844 31.644531 27.484375 31.730469 27.378906 31.816406 C 27.128906 32.023438 26.875 32.230469 26.625 32.4375 C 26.097656 32.195312 25.699219 31.9375 25.28125 31.539062 C 25.171875 31.4375 25.0625 31.335938 24.953125 31.230469 C 24.839844 31.121094 24.726562 31.015625 24.609375 30.902344 C 24.375 30.679688 24.140625 30.460938 23.902344 30.238281 C 23.789062 30.132812 23.675781 30.027344 23.5625 29.914062 C 22.613281 29.03125 21.625 28.199219 20.625 27.375 C 19.921875 27.671875 19.445312 28.113281 18.890625 28.628906 C 18.707031 28.796875 18.523438 28.96875 18.339844 29.140625 C 18.164062 29.296875 17.992188 29.460938 17.8125 29.625 C 17.433594 29.960938 17.054688 30.292969 16.671875 30.621094 C 16.414062 30.847656 16.164062 31.078125 15.921875 31.316406 C 15.792969 31.4375 15.660156 31.5625 15.527344 31.6875 C 15.414062 31.800781 15.296875 31.914062 15.179688 32.027344 C 14.8125 32.25 14.8125 32.25 14.386719 32.257812 C 13.640625 31.96875 13.109375 31.492188 12.503906 30.972656 C 12.238281 30.75 11.972656 30.53125 11.710938 30.308594 C 11.503906 30.140625 11.503906 30.140625 11.296875 29.964844 C 10.367188 29.214844 9.402344 28.511719 8.445312 27.800781 C 7.875 27.375 7.875 27.375 7.6875 27.1875 C 7.667969 26.65625 7.664062 26.128906 7.667969 25.597656 C 7.667969 25.433594 7.667969 25.265625 7.667969 25.09375 C 7.667969 24.542969 7.667969 23.992188 7.667969 23.4375 C 7.667969 23.054688 7.671875 22.671875 7.671875 22.289062 C 7.671875 21.28125 7.671875 20.273438 7.675781 19.265625 C 7.675781 18.234375 7.679688 17.207031 7.679688 16.179688 C 7.679688 14.160156 7.683594 12.144531 7.6875 10.125 Z M 7.6875 10.125 "/>
<path style=" stroke:none;fill-rule:nonzero;fill:rgb(96.078432%,78.823531%,34.117648%);fill-opacity:1;" d="M 3.9375 42.75 C 4 42.875 4.0625 42.996094 4.125 43.125 C 4 43.0625 3.878906 43 3.75 42.9375 C 3.8125 42.875 3.875 42.8125 3.9375 42.75 Z M 3.375 43.125 C 3.5 43.1875 3.621094 43.25 3.75 43.3125 C 3.503906 43.621094 3.253906 43.929688 3 44.25 C 3.183594 44.25 3.367188 44.25 3.558594 44.25 C 8.03125 44.230469 12.503906 44.21875 16.976562 44.210938 C 19.140625 44.207031 21.304688 44.203125 23.46875 44.195312 C 25.355469 44.1875 27.238281 44.179688 29.125 44.179688 C 30.125 44.179688 31.121094 44.175781 32.121094 44.171875 C 33.058594 44.164062 34 44.164062 34.9375 44.164062 C 35.285156 44.164062 35.628906 44.164062 35.972656 44.160156 C 36.445312 44.15625 36.914062 44.15625 37.386719 44.160156 C 37.523438 44.15625 37.660156 44.15625 37.800781 44.152344 C 38.183594 44.15625 38.183594 44.15625 38.8125 44.25 C 39.183594 44.628906 39.183594 44.628906 39.375 45 C 38.671875 45.460938 37.96875 45.425781 37.15625 45.421875 C 37.007812 45.421875 36.859375 45.421875 36.707031 45.421875 C 36.207031 45.425781 35.710938 45.425781 35.207031 45.421875 C 34.851562 45.421875 34.496094 45.425781 34.136719 45.425781 C 33.164062 45.425781 32.195312 45.425781 31.222656 45.425781 C 30.207031 45.421875 29.191406 45.425781 28.175781 45.425781 C 26.46875 45.425781 24.761719 45.425781 23.058594 45.421875 C 21.085938 45.421875 19.113281 45.421875 17.136719 45.421875 C 15.445312 45.425781 13.75 45.425781 12.058594 45.425781 C 11.046875 45.425781 10.035156 45.425781 9.023438 45.425781 C 8.070312 45.425781 7.121094 45.425781 6.171875 45.421875 C 5.820312 45.421875 5.472656 45.421875 5.121094 45.425781 C 4.644531 45.425781 4.171875 45.421875 3.695312 45.421875 C 3.484375 45.421875 3.484375 45.421875 3.273438 45.425781 C 2.578125 45.421875 2.28125 45.394531 1.6875 45 C 1.6875 44.875 1.6875 44.753906 1.6875 44.625 C 2.007812 44.308594 2.007812 44.308594 2.425781 43.957031 C 2.628906 43.78125 2.628906 43.78125 2.839844 43.605469 C 2.953125 43.507812 3.070312 43.410156 3.1875 43.3125 C 3.25 43.25 3.3125 43.1875 3.375 43.125 Z M 3.375 43.125 "/>
<path style=" stroke:none;fill-rule:nonzero;fill:rgb(96.078432%,27.058825%,32.156864%);fill-opacity:1;" d="M 30.375 7.3125 C 30.5 7.375 30.621094 7.4375 30.75 7.5 C 30.558594 7.632812 30.363281 7.761719 30.164062 7.898438 C 29.023438 8.859375 28.421875 10.566406 28.125 12 C 28.105469 12.308594 28.097656 12.617188 28.09375 12.929688 C 28.09375 13.203125 28.09375 13.203125 28.089844 13.484375 C 28.085938 13.683594 28.085938 13.882812 28.085938 14.085938 C 28.078125 14.507812 28.074219 14.933594 28.070312 15.355469 C 28.0625 16.019531 28.054688 16.683594 28.050781 17.347656 C 28.042969 17.992188 28.035156 18.632812 28.027344 19.277344 C 28.027344 19.472656 28.027344 19.667969 28.027344 19.871094 C 27.984375 22.296875 27.472656 24.023438 25.804688 25.78125 C 25.703125 25.875 25.601562 25.96875 25.5 26.0625 C 28.644531 27.90625 32.476562 28.199219 36.046875 28.183594 C 36.171875 28.183594 36.296875 28.183594 36.429688 28.183594 C 39.820312 28.164062 43.410156 27.792969 46.5 26.25 C 46.6875 26.4375 46.871094 26.621094 47.0625 26.8125 C 46.839844 26.957031 46.617188 27.101562 46.394531 27.246094 C 46.210938 27.367188 46.210938 27.367188 46.019531 27.488281 C 44.929688 28.109375 43.859375 28.441406 42.644531 28.699219 C 42.445312 28.742188 42.445312 28.742188 42.242188 28.789062 C 40.019531 29.277344 37.828125 29.503906 35.554688 29.484375 C 35.316406 29.484375 35.078125 29.484375 34.832031 29.480469 C 31.078125 29.4375 27.484375 28.878906 24.1875 27 C 24.1875 26.8125 24.1875 26.628906 24.1875 26.4375 C 24.488281 26.148438 24.488281 26.148438 24.890625 25.839844 C 25.667969 25.1875 26.082031 24.566406 26.4375 23.625 C 26.5 23.476562 26.566406 23.328125 26.628906 23.175781 C 26.890625 22.210938 26.867188 21.28125 26.871094 20.28125 C 26.875 19.839844 26.878906 19.402344 26.882812 18.960938 C 26.890625 18.269531 26.894531 17.578125 26.898438 16.886719 C 26.902344 16.21875 26.910156 15.550781 26.917969 14.878906 C 26.917969 14.675781 26.917969 14.472656 26.917969 14.261719 C 26.949219 11.921875 27.613281 9.894531 29.292969 8.203125 C 29.644531 7.894531 30 7.59375 30.375 7.3125 Z M 30.375 7.3125 "/>
<path style=" stroke:none;fill-rule:nonzero;fill:rgb(98.039216%,80.392158%,34.901962%);fill-opacity:1;" d="M 0.9375 22.875 C 1.664062 23.203125 1.664062 23.203125 1.875 23.625 C 1.890625 23.882812 1.894531 24.140625 1.890625 24.394531 C 1.890625 24.558594 1.886719 24.71875 1.886719 24.886719 C 1.882812 25.0625 1.882812 25.242188 1.878906 25.421875 C 1.875 25.609375 1.875 25.796875 1.875 25.988281 C 1.867188 26.609375 1.859375 27.226562 1.851562 27.84375 C 1.847656 28.273438 1.84375 28.703125 1.839844 29.128906 C 1.828125 30.257812 1.816406 31.386719 1.800781 32.515625 C 1.785156 33.667969 1.777344 34.820312 1.761719 35.96875 C 1.738281 38.230469 1.714844 40.492188 1.6875 42.75 C 1.984375 42.515625 2.285156 42.277344 2.582031 42.039062 C 2.746094 41.90625 2.910156 41.773438 3.085938 41.640625 C 3.714844 41.125 4.308594 40.582031 4.898438 40.019531 C 5.125 39.808594 5.351562 39.59375 5.578125 39.382812 C 5.683594 39.28125 5.789062 39.183594 5.898438 39.082031 C 6.363281 38.648438 6.84375 38.230469 7.328125 37.8125 C 7.765625 37.433594 8.195312 37.042969 8.625 36.65625 C 9.300781 36.046875 9.984375 35.441406 10.671875 34.84375 C 10.96875 34.585938 11.257812 34.316406 11.546875 34.050781 C 11.792969 33.820312 11.792969 33.820312 12.046875 33.585938 C 12.199219 33.441406 12.351562 33.300781 12.507812 33.152344 C 12.921875 32.824219 13.171875 32.699219 13.6875 32.625 C 13.6875 33.1875 13.6875 33.1875 13.46875 33.453125 C 13.371094 33.546875 13.269531 33.636719 13.167969 33.730469 C 13.054688 33.832031 12.945312 33.933594 12.832031 34.035156 C 12.710938 34.144531 12.59375 34.25 12.46875 34.359375 C 12.347656 34.46875 12.226562 34.578125 12.101562 34.691406 C 11.382812 35.34375 10.65625 35.992188 9.921875 36.625 C 9.496094 36.996094 9.078125 37.378906 8.660156 37.757812 C 8.027344 38.332031 7.382812 38.875 6.714844 39.410156 C 5.835938 40.121094 5.007812 40.875 4.183594 41.648438 C 4.003906 41.816406 4.003906 41.816406 3.816406 41.992188 C 3.320312 42.460938 2.816406 42.933594 2.320312 43.40625 C 2.1875 43.523438 2.058594 43.644531 1.921875 43.769531 C 1.816406 43.871094 1.707031 43.96875 1.597656 44.074219 C 1.503906 44.132812 1.410156 44.191406 1.3125 44.25 C 1.125 44.1875 0.941406 44.125 0.75 44.0625 C 0.746094 41.355469 0.742188 38.648438 0.742188 35.941406 C 0.738281 34.683594 0.738281 33.425781 0.734375 32.171875 C 0.734375 30.957031 0.734375 29.746094 0.734375 28.535156 C 0.730469 28.070312 0.730469 27.609375 0.730469 27.144531 C 0.730469 26.496094 0.730469 25.851562 0.730469 25.203125 C 0.726562 25.011719 0.726562 24.816406 0.726562 24.617188 C 0.726562 24.441406 0.726562 24.265625 0.726562 24.085938 C 0.726562 23.933594 0.726562 23.777344 0.726562 23.621094 C 0.75 23.25 0.75 23.25 0.9375 22.875 Z M 0.9375 22.875 "/>
<path style=" stroke:none;fill-rule:nonzero;fill:rgb(98.039216%,80.392158%,34.901962%);fill-opacity:1;" d="M 28.875 31.3125 C 29 31.375 29.121094 31.4375 29.25 31.5 C 29.003906 31.808594 28.753906 32.117188 28.5 32.4375 C 29.792969 33.609375 29.792969 33.609375 31.101562 34.757812 C 31.636719 35.222656 32.15625 35.699219 32.675781 36.179688 C 33.503906 36.941406 34.335938 37.683594 35.214844 38.390625 C 35.914062 38.953125 36.5625 39.539062 37.183594 40.183594 C 37.855469 40.859375 38.578125 41.503906 39.34375 42.0625 C 39.898438 42.472656 40.109375 42.652344 40.21875 43.347656 C 40.125 43.875 40.125 43.875 39.75 44.25 C 38.929688 43.539062 38.117188 42.820312 37.3125 42.09375 C 36.632812 41.480469 35.949219 40.875 35.257812 40.273438 C 34.828125 39.894531 34.398438 39.507812 33.972656 39.117188 C 33.339844 38.542969 32.695312 38 32.027344 37.464844 C 31.011719 36.644531 30.0625 35.765625 29.117188 34.867188 C 28.433594 34.21875 27.734375 33.597656 27 33 C 27.59375 32.390625 28.199219 31.832031 28.875 31.3125 Z M 28.875 31.3125 "/>
<path style=" stroke:none;fill-rule:nonzero;fill:rgb(75.686276%,74.901962%,80.784315%);fill-opacity:1;" d="M 11.25 13.125 C 16.199219 13.125 21.148438 13.125 26.25 13.125 C 26.25 14.113281 26.25 15.105469 26.25 16.125 C 21.300781 16.125 16.351562 16.125 11.25 16.125 C 11.25 15.136719 11.25 14.144531 11.25 13.125 Z M 12.375 13.3125 C 12.375 13.871094 12.375 14.425781 12.375 15 C 16.890625 15 21.410156 15 26.0625 15 C 26.0625 14.441406 26.0625 13.886719 26.0625 13.3125 C 21.546875 13.3125 17.027344 13.3125 12.375 13.3125 Z M 12.375 13.3125 "/>
<path style=" stroke:none;fill-rule:nonzero;fill:rgb(95.294118%,27.058825%,32.156864%);fill-opacity:1;" d="M 30.75 29.8125 C 30.867188 29.824219 30.984375 29.839844 31.101562 29.851562 C 32.617188 30.007812 34.117188 30.027344 35.636719 30.023438 C 35.878906 30.023438 36.125 30.023438 36.375 30.027344 C 37.699219 30.023438 39 29.980469 40.3125 29.8125 C 40.070312 30.925781 39.492188 31.554688 38.625 32.25 C 37.226562 33.113281 35.894531 33.378906 34.269531 33.121094 C 32.976562 32.777344 31.976562 31.949219 31.125 30.9375 C 30.882812 30.320312 30.882812 30.320312 30.75 29.8125 Z M 30.75 29.8125 "/>
<path style=" stroke:none;fill-rule:nonzero;fill:rgb(98.823529%,88.235295%,34.901962%);fill-opacity:1;" d="M 6.75 18.375 C 6.75 20.972656 6.75 23.574219 6.75 26.25 C 5.808594 25.710938 5.121094 25.273438 4.324219 24.585938 C 3.554688 23.925781 2.769531 23.296875 1.9375 22.71875 C 1.855469 22.644531 1.773438 22.574219 1.6875 22.5 C 1.6875 22.375 1.6875 22.253906 1.6875 22.125 C 1.953125 21.878906 1.953125 21.878906 2.324219 21.601562 C 2.460938 21.5 2.597656 21.398438 2.734375 21.292969 C 2.878906 21.183594 3.027344 21.078125 3.175781 20.964844 C 3.46875 20.746094 3.761719 20.523438 4.054688 20.304688 C 4.195312 20.199219 4.335938 20.09375 4.484375 19.984375 C 5.09375 19.523438 5.691406 19.050781 6.285156 18.574219 C 6.5625 18.375 6.5625 18.375 6.75 18.375 Z M 6.75 18.375 "/>
<path style=" stroke:none;fill-rule:nonzero;fill:rgb(80.784315%,80.000001%,86.666667%);fill-opacity:1;" d="M 12.011719 20.578125 C 12.207031 20.574219 12.40625 20.574219 12.613281 20.574219 C 12.933594 20.574219 12.933594 20.574219 13.261719 20.574219 C 13.589844 20.574219 13.589844 20.574219 13.925781 20.574219 C 14.386719 20.574219 14.851562 20.574219 15.316406 20.578125 C 16.027344 20.578125 16.738281 20.578125 17.453125 20.574219 C 17.902344 20.574219 18.351562 20.574219 18.800781 20.574219 C 19.015625 20.574219 19.230469 20.574219 19.453125 20.574219 C 19.75 20.574219 19.75 20.574219 20.050781 20.578125 C 20.226562 20.578125 20.398438 20.578125 20.582031 20.578125 C 21 20.625 21 20.625 21.375 21 C 21.363281 21.457031 21.363281 21.457031 21.1875 21.9375 C 20.300781 22.722656 19.226562 22.574219 18.113281 22.5625 C 17.910156 22.5625 17.703125 22.558594 17.488281 22.558594 C 17.054688 22.558594 16.617188 22.554688 16.183594 22.550781 C 15.515625 22.546875 14.847656 22.546875 14.179688 22.542969 C 13.753906 22.542969 13.332031 22.539062 12.910156 22.539062 C 12.609375 22.539062 12.609375 22.539062 12.300781 22.535156 C 12.023438 22.53125 12.023438 22.53125 11.742188 22.53125 C 11.578125 22.527344 11.414062 22.527344 11.246094 22.527344 C 10.875 22.5 10.875 22.5 10.6875 22.3125 C 10.652344 21.667969 10.652344 21.667969 10.6875 21 C 11.167969 20.519531 11.347656 20.578125 12.011719 20.578125 Z M 12.011719 20.578125 "/>
<path style=" stroke:none;fill-rule:nonzero;fill:rgb(87.450981%,86.274511%,92.941177%);fill-opacity:1;" d="M 12.726562 11.1875 C 12.875 11.1875 13.023438 11.1875 13.179688 11.1875 C 13.675781 11.1875 14.171875 11.191406 14.667969 11.195312 C 15.011719 11.195312 15.355469 11.199219 15.699219 11.199219 C 16.605469 11.199219 17.511719 11.203125 18.414062 11.210938 C 19.339844 11.21875 20.261719 11.21875 21.1875 11.222656 C 23 11.230469 24.8125 11.238281 26.625 11.25 C 26.5625 11.621094 26.5 11.992188 26.4375 12.375 C 26.242188 12.375 26.050781 12.378906 25.847656 12.378906 C 24.023438 12.398438 22.195312 12.417969 20.371094 12.4375 C 19.429688 12.449219 18.492188 12.460938 17.550781 12.46875 C 16.644531 12.476562 15.742188 12.488281 14.835938 12.496094 C 14.488281 12.5 14.144531 12.503906 13.796875 12.507812 C 13.3125 12.511719 12.832031 12.515625 12.347656 12.523438 C 12.128906 12.523438 12.128906 12.523438 11.910156 12.527344 C 11.179688 12.523438 11.179688 12.523438 10.5 12.75 C 10.5625 12.277344 10.628906 11.90625 10.882812 11.503906 C 11.457031 11.105469 12.054688 11.175781 12.726562 11.1875 Z M 12.726562 11.1875 "/>
<path style=" stroke:none;fill-rule:nonzero;fill:rgb(99.215686%,38.82353%,43.137255%);fill-opacity:1;" d="M 39.9375 30 C 39.140625 31.152344 38.300781 31.730469 36.9375 32.0625 C 35.449219 32.285156 34.398438 32.007812 33.1875 31.125 C 32.707031 30.703125 32.707031 30.703125 32.4375 30.375 C 32.4375 30.3125 32.4375 30.25 32.4375 30.1875 C 33.265625 30.160156 34.089844 30.132812 34.917969 30.105469 C 35.199219 30.097656 35.480469 30.089844 35.761719 30.082031 C 36.167969 30.066406 36.570312 30.054688 36.980469 30.042969 C 37.222656 30.035156 37.464844 30.023438 37.714844 30.015625 C 38.457031 30 39.195312 29.996094 39.9375 30 Z M 39.9375 30 "/>
<path style=" stroke:none;fill-rule:nonzero;fill:rgb(83.529413%,82.352942%,89.411765%);fill-opacity:1;" d="M 11.515625 18.140625 C 11.792969 18.144531 11.792969 18.144531 12.078125 18.144531 C 12.277344 18.144531 12.480469 18.144531 12.683594 18.144531 C 12.898438 18.148438 13.105469 18.148438 13.324219 18.152344 C 13.640625 18.152344 13.640625 18.152344 13.964844 18.152344 C 15.535156 18.160156 15.535156 18.160156 15.75 18.375 C 15.785156 18.925781 15.785156 18.925781 15.75 19.5 C 15.25 20 14.875 20.050781 14.175781 20.085938 C 13.9375 20.082031 13.9375 20.082031 13.691406 20.082031 C 13.515625 20.082031 13.339844 20.078125 13.160156 20.078125 C 12.976562 20.078125 12.796875 20.074219 12.609375 20.074219 C 12.332031 20.074219 12.332031 20.074219 12.050781 20.070312 C 11.597656 20.070312 11.140625 20.066406 10.6875 20.0625 C 10.652344 18.925781 10.652344 18.925781 10.6875 18.5625 C 11.0625 18.1875 11.0625 18.1875 11.515625 18.140625 Z M 11.515625 18.140625 "/>
<path style=" stroke:none;fill-rule:nonzero;fill:rgb(95.294118%,26.666668%,32.156864%);fill-opacity:1;" d="M 36.375 2.8125 C 37.097656 3.535156 37.6875 4.210938 37.6875 5.25 C 36.265625 5.25 34.839844 5.25 33.375 5.25 C 33.585938 4.195312 33.925781 3.601562 34.652344 2.824219 C 35.296875 2.511719 35.695312 2.609375 36.375 2.8125 Z M 36.375 2.8125 "/>
<path style=" stroke:none;fill-rule:nonzero;fill:rgb(97.254902%,79.607844%,34.509805%);fill-opacity:1;" d="M 3.5625 20.625 C 3.6875 20.6875 3.808594 20.75 3.9375 20.8125 C 3.628906 21.183594 3.320312 21.554688 3 21.9375 C 3.167969 22.015625 3.167969 22.015625 3.335938 22.09375 C 3.722656 22.300781 4.039062 22.515625 4.382812 22.785156 C 4.554688 22.921875 4.554688 22.921875 4.730469 23.0625 C 4.847656 23.15625 4.964844 23.25 5.085938 23.34375 C 5.203125 23.4375 5.324219 23.53125 5.445312 23.625 C 5.902344 23.988281 6.339844 24.339844 6.75 24.75 C 6.800781 25.253906 6.765625 25.742188 6.75 26.25 C 5.730469 25.738281 4.894531 25.074219 4.03125 24.335938 C 3.355469 23.761719 2.664062 23.226562 1.9375 22.71875 C 1.855469 22.644531 1.773438 22.574219 1.6875 22.5 C 1.6875 22.375 1.6875 22.253906 1.6875 22.125 C 1.988281 21.855469 2.304688 21.601562 2.625 21.351562 C 2.800781 21.214844 2.972656 21.082031 3.152344 20.941406 C 3.285156 20.835938 3.421875 20.730469 3.5625 20.625 Z M 3.5625 20.625 "/>
<path style=" stroke:none;fill-rule:nonzero;fill:rgb(11.372549%,11.372549%,11.764706%);fill-opacity:1;" d="M 10.6875 21.75 C 13.90625 21.75 17.121094 21.75 20.4375 21.75 C 20.375 21.996094 20.3125 22.246094 20.25 22.5 C 17.15625 22.5 14.0625 22.5 10.875 22.5 C 10.8125 22.253906 10.75 22.003906 10.6875 21.75 Z M 10.6875 21.75 "/>
<path style=" stroke:none;fill-rule:nonzero;fill:rgb(92.941177%,76.862746%,32.941177%);fill-opacity:1;" d="M 20.609375 7.714844 C 21.105469 7.917969 21.472656 8.199219 21.890625 8.53125 C 22.039062 8.648438 22.191406 8.765625 22.34375 8.886719 C 22.457031 8.988281 22.570312 9.085938 22.6875 9.1875 C 22.6875 9.25 22.6875 9.3125 22.6875 9.375 C 21.203125 9.375 19.71875 9.375 18.1875 9.375 C 19.074219 8.488281 19.074219 8.488281 19.59375 8.097656 C 19.699219 8.015625 19.804688 7.933594 19.917969 7.847656 C 20.25 7.6875 20.25 7.6875 20.609375 7.714844 Z M 20.609375 7.714844 "/>
<path style=" stroke:none;fill-rule:nonzero;fill:rgb(8.235294%,8.235294%,8.235294%);fill-opacity:1;" d="M 10.6875 19.3125 C 12.046875 19.3125 13.410156 19.3125 14.8125 19.3125 C 14.75 19.558594 14.6875 19.808594 14.625 20.0625 C 13.324219 20.0625 12.027344 20.0625 10.6875 20.0625 C 10.6875 19.816406 10.6875 19.566406 10.6875 19.3125 Z M 10.6875 19.3125 "/>
<path style=" stroke:none;fill-rule:nonzero;fill:rgb(95.294118%,36.470589%,40.784314%);fill-opacity:1;" d="M 35.0625 2.625 C 36.25 2.71875 36.25 2.71875 36.832031 3.164062 C 37.125 3.5625 37.125 3.5625 37.125 4.125 C 36.257812 4.125 35.390625 4.125 34.5 4.125 C 34.6875 3.628906 34.871094 3.136719 35.0625 2.625 Z M 35.0625 2.625 "/>
<path style=" stroke:none;fill-rule:nonzero;fill:rgb(82.352942%,81.176472%,87.843138%);fill-opacity:1;" d="M 25.875 22.875 C 25.9375 23 26 23.121094 26.0625 23.25 C 25.46875 24.679688 24.589844 25.519531 23.25 26.25 C 23.1875 26.0625 23.125 25.878906 23.0625 25.6875 C 23.472656 25.246094 23.847656 24.917969 24.363281 24.597656 C 25.066406 24.09375 25.40625 23.59375 25.875 22.875 Z M 25.875 22.875 "/>
<path style=" stroke:none;fill-rule:nonzero;fill:rgb(97.647059%,33.725491%,38.431373%);fill-opacity:1;" d="M 30.9375 6.9375 C 31.0625 6.9375 31.183594 6.9375 31.3125 6.9375 C 31.035156 7.585938 30.667969 7.996094 30.164062 8.484375 C 30.027344 8.617188 29.894531 8.75 29.753906 8.886719 C 29.648438 8.984375 29.542969 9.085938 29.4375 9.1875 C 29.375 9 29.3125 8.816406 29.25 8.625 C 29.339844 8.550781 29.429688 8.476562 29.523438 8.398438 C 29.640625 8.296875 29.761719 8.199219 29.882812 8.097656 C 30 8 30.117188 7.902344 30.238281 7.800781 C 30.605469 7.484375 30.605469 7.484375 30.9375 6.9375 Z M 30.9375 6.9375 "/>
</g>
</svg>
