<?xml version="1.0" encoding="UTF-8"?>
<svg xmlns="http://www.w3.org/2000/svg" xmlns:xlink="http://www.w3.org/1999/xlink" width="48" height="48" viewBox="0 0 48 48" version="1.1">
<g id="surface1">
<path style=" stroke:none;fill-rule:nonzero;fill:rgb(64.705884%,83.529413%,96.862745%);fill-opacity:1;" d="M 28.3125 0.5625 C 34.625 0.5625 40.933594 0.5625 47.4375 0.5625 C 47.441406 2.628906 47.445312 4.699219 47.449219 6.832031 C 47.449219 7.488281 47.453125 8.140625 47.453125 8.8125 C 47.453125 9.328125 47.457031 9.84375 47.457031 10.359375 C 47.457031 10.492188 47.457031 10.628906 47.457031 10.765625 C 47.457031 11.160156 47.457031 11.554688 47.457031 11.953125 C 47.460938 12.171875 47.460938 12.394531 47.460938 12.625 C 47.4375 13.125 47.4375 13.125 47.25 13.3125 C 46.695312 13.328125 46.144531 13.335938 45.589844 13.332031 C 45.339844 13.332031 45.339844 13.332031 45.089844 13.328125 C 44.554688 13.328125 44.019531 13.328125 43.488281 13.324219 C 43.125 13.324219 42.765625 13.320312 42.40625 13.320312 C 41.523438 13.320312 40.636719 13.316406 39.75 13.3125 C 39.84375 14.054688 39.84375 14.054688 39.9375 14.8125 C 40.617188 15.058594 41.296875 15.308594 42 15.5625 C 42 15.871094 42 16.179688 42 16.5 C 41.9375 16.5625 41.875 16.625 41.8125 16.6875 C 41.105469 16.617188 40.410156 16.515625 39.707031 16.390625 C 38.171875 16.128906 36.953125 16.179688 35.4375 16.5 C 34.875 16.574219 34.3125 16.632812 33.75 16.6875 C 33.632812 16.347656 33.632812 16.347656 33.5625 15.9375 C 34 15.28125 34.164062 15.257812 34.898438 15.058594 C 35.070312 15.011719 35.242188 14.964844 35.414062 14.914062 C 35.546875 14.882812 35.675781 14.847656 35.8125 14.8125 C 35.875 14.316406 35.9375 13.824219 36 13.3125 C 35.773438 13.3125 35.550781 13.316406 35.316406 13.316406 C 34.484375 13.324219 33.652344 13.328125 32.816406 13.332031 C 32.453125 13.335938 32.09375 13.335938 31.734375 13.339844 C 31.214844 13.347656 30.695312 13.347656 30.179688 13.351562 C 30.015625 13.351562 29.855469 13.355469 29.6875 13.355469 C 29.292969 13.355469 28.894531 13.335938 28.5 13.3125 C 28.125 12.9375 28.125 12.9375 28.078125 12.4375 C 28.078125 12.121094 28.078125 12.121094 28.078125 11.800781 C 28.078125 11.558594 28.078125 11.320312 28.078125 11.074219 C 28.078125 10.8125 28.078125 10.550781 28.082031 10.289062 C 28.082031 10.023438 28.082031 9.753906 28.082031 9.484375 C 28.082031 8.925781 28.082031 8.363281 28.085938 7.804688 C 28.089844 7.082031 28.089844 6.363281 28.089844 5.640625 C 28.089844 5.089844 28.089844 4.539062 28.09375 3.984375 C 28.09375 3.71875 28.09375 3.453125 28.09375 3.1875 C 28.09375 2.816406 28.09375 2.445312 28.097656 2.074219 C 28.097656 1.863281 28.097656 1.652344 28.101562 1.4375 C 28.125 0.9375 28.125 0.9375 28.3125 0.5625 Z M 28.3125 0.5625 "/>
<path style=" stroke:none;fill-rule:nonzero;fill:rgb(63.921571%,82.352942%,95.294118%);fill-opacity:1;" d="M 1.976562 31.289062 C 2.152344 31.289062 2.328125 31.292969 2.507812 31.292969 C 2.785156 31.292969 2.785156 31.292969 3.070312 31.292969 C 3.683594 31.292969 4.296875 31.292969 4.910156 31.292969 C 5.335938 31.292969 5.757812 31.292969 6.183594 31.292969 C 7.304688 31.292969 8.421875 31.296875 9.539062 31.300781 C 10.683594 31.300781 11.824219 31.300781 12.964844 31.304688 C 15.207031 31.304688 17.445312 31.308594 19.6875 31.3125 C 19.945312 31.828125 19.898438 32.246094 19.898438 32.824219 C 19.898438 33.066406 19.898438 33.304688 19.898438 33.550781 C 19.898438 33.8125 19.898438 34.074219 19.898438 34.335938 C 19.898438 34.605469 19.898438 34.871094 19.898438 35.136719 C 19.898438 35.699219 19.898438 36.261719 19.898438 36.824219 C 19.898438 37.542969 19.898438 38.261719 19.898438 38.980469 C 19.898438 39.535156 19.898438 40.089844 19.898438 40.640625 C 19.898438 40.90625 19.898438 41.171875 19.898438 41.4375 C 19.898438 41.808594 19.898438 42.179688 19.898438 42.546875 C 19.898438 42.761719 19.898438 42.972656 19.898438 43.191406 C 19.875 43.6875 19.875 43.6875 19.6875 44.0625 C 17.152344 44.0625 14.613281 44.0625 12 44.0625 C 12 44.617188 12 45.175781 12 45.75 C 12.347656 45.785156 12.347656 45.785156 12.703125 45.820312 C 13.785156 45.960938 13.785156 45.960938 14.25 46.3125 C 14.402344 46.6875 14.402344 46.6875 14.4375 47.0625 C 14.375 47.183594 14.316406 47.308594 14.25 47.4375 C 13.589844 47.464844 13.054688 47.480469 12.429688 47.25 C 11.675781 47.019531 11.011719 47.007812 10.230469 47.015625 C 10.09375 47.015625 9.957031 47.011719 9.816406 47.011719 C 8.921875 47.015625 8.175781 47.171875 7.3125 47.4375 C 6.875 47.453125 6.4375 47.457031 6 47.4375 C 6 47.066406 6 46.695312 6 46.3125 C 6.742188 46.0625 7.484375 45.816406 8.25 45.5625 C 8.3125 45.066406 8.375 44.570312 8.4375 44.0625 C 5.839844 44.0625 3.242188 44.0625 0.5625 44.0625 C 0.554688 40.933594 0.554688 40.933594 0.554688 39.605469 C 0.550781 38.699219 0.550781 37.789062 0.546875 36.882812 C 0.546875 36.148438 0.542969 35.417969 0.542969 34.6875 C 0.542969 34.40625 0.542969 34.125 0.542969 33.847656 C 0.539062 33.453125 0.539062 33.066406 0.539062 32.675781 C 0.539062 32.453125 0.539062 32.230469 0.539062 32 C 0.582031 31.035156 1.144531 31.292969 1.976562 31.289062 Z M 1.976562 31.289062 "/>
<path style=" stroke:none;fill-rule:nonzero;fill:rgb(0%,0%,0%);fill-opacity:1;" d="M 24.9375 4.5 C 25.878906 4.558594 26.320312 4.820312 26.976562 5.484375 C 27.125 5.628906 27.269531 5.773438 27.421875 5.921875 C 27.75 6.375 27.75 6.375 27.859375 6.832031 C 27.703125 7.53125 27.277344 7.929688 26.777344 8.414062 C 26.6875 8.511719 26.597656 8.605469 26.503906 8.703125 C 26.230469 8.976562 26.230469 8.976562 25.6875 9.375 C 25.152344 9.339844 25.152344 9.339844 24.75 9.1875 C 24.714844 8.753906 24.714844 8.753906 24.75 8.25 C 25.03125 7.9375 25.03125 7.9375 25.3125 7.6875 C 23.414062 7.679688 21.515625 7.671875 19.617188 7.667969 C 18.734375 7.667969 17.851562 7.664062 16.96875 7.660156 C 16.117188 7.65625 15.265625 7.652344 14.414062 7.652344 C 14.089844 7.652344 13.765625 7.648438 13.441406 7.648438 C 10.441406 7.628906 8.109375 7.789062 5.820312 9.890625 C 5.242188 10.527344 4.859375 11.222656 4.5 12 C 4.59375 12.09375 4.6875 12.1875 4.78125 12.28125 C 5.355469 12.890625 5.765625 13.351562 6.023438 14.15625 C 5.984375 15.234375 5.703125 16.097656 4.933594 16.875 C 4.71875 17.0625 4.71875 17.0625 4.5 17.25 C 5.542969 19.214844 6.652344 20.34375 8.726562 21.179688 C 9.871094 21.523438 11.011719 21.515625 12.191406 21.507812 C 12.457031 21.507812 12.722656 21.507812 12.984375 21.511719 C 13.535156 21.511719 14.082031 21.511719 14.628906 21.507812 C 15.332031 21.503906 16.035156 21.507812 16.734375 21.515625 C 17.28125 21.519531 17.820312 21.519531 18.367188 21.515625 C 18.625 21.515625 18.882812 21.519531 19.140625 21.523438 C 20.492188 21.605469 20.492188 21.605469 21.691406 21.128906 C 21.925781 20.796875 21.925781 20.796875 22.125 20.25 C 22.710938 19.679688 23.15625 19.597656 23.964844 19.582031 C 24.96875 19.605469 25.496094 19.800781 26.210938 20.492188 C 26.464844 20.847656 26.53125 21.140625 26.625 21.5625 C 26.753906 21.5625 26.882812 21.5625 27.015625 21.5625 C 28.238281 21.554688 29.464844 21.546875 30.6875 21.542969 C 31.316406 21.542969 31.949219 21.539062 32.578125 21.535156 C 33.300781 21.527344 34.03125 21.527344 34.753906 21.523438 C 34.976562 21.523438 35.199219 21.519531 35.429688 21.519531 C 38.035156 21.519531 40.238281 21.882812 42.375 23.4375 C 42.523438 23.539062 42.675781 23.636719 42.832031 23.742188 C 43.910156 24.742188 44.71875 25.925781 45 27.375 C 45.167969 27.390625 45.332031 27.40625 45.503906 27.421875 C 46.21875 27.582031 46.542969 27.804688 47.0625 28.3125 C 47.605469 29.195312 47.597656 30.125 47.4375 31.125 C 47.15625 31.695312 46.835938 32.078125 46.3125 32.4375 C 45.585938 32.613281 45.585938 32.613281 45 32.625 C 44.976562 32.722656 44.953125 32.824219 44.929688 32.929688 C 44.40625 34.816406 43.179688 36.167969 41.558594 37.222656 C 39.847656 38.171875 38.144531 38.46875 36.199219 38.453125 C 35.90625 38.453125 35.609375 38.453125 35.3125 38.453125 C 35.160156 38.453125 35.003906 38.453125 34.84375 38.453125 C 34.019531 38.449219 33.195312 38.453125 32.371094 38.457031 C 31.324219 38.460938 30.277344 38.460938 29.230469 38.457031 C 28.382812 38.453125 27.53125 38.453125 26.683594 38.460938 C 26.359375 38.460938 26.039062 38.460938 25.71875 38.457031 C 23.988281 38.382812 23.988281 38.382812 22.402344 38.921875 C 22.046875 39.265625 22.046875 39.265625 21.796875 39.636719 C 21.5625 39.9375 21.5625 39.9375 20.929688 40.125 C 20.765625 40.125 20.605469 40.125 20.4375 40.125 C 20.25 39.9375 20.25 39.9375 20.167969 39.527344 C 20.289062 38.742188 20.792969 38.382812 21.375 37.875 C 21.167969 37.394531 20.992188 37.121094 20.601562 36.761719 C 20.25 36.375 20.25 36.375 20.203125 35.859375 C 20.21875 35.71875 20.234375 35.578125 20.25 35.4375 C 20.675781 35.292969 20.675781 35.292969 21.1875 35.25 C 21.53125 35.59375 21.53125 35.59375 21.882812 36.070312 C 22.652344 36.886719 23.28125 37.101562 24.378906 37.132812 C 24.980469 37.144531 25.574219 37.128906 26.171875 37.117188 C 26.492188 37.113281 26.8125 37.113281 27.136719 37.113281 C 27.804688 37.109375 28.476562 37.097656 29.148438 37.085938 C 30.003906 37.070312 30.855469 37.0625 31.714844 37.054688 C 32.535156 37.050781 33.355469 37.042969 34.175781 37.03125 C 34.332031 37.03125 34.484375 37.03125 34.644531 37.03125 C 37.304688 36.996094 39.910156 36.933594 41.964844 35.015625 C 42.625 34.304688 43.074219 33.492188 43.5 32.625 C 43.421875 32.550781 43.34375 32.476562 43.261719 32.398438 C 43.15625 32.296875 43.054688 32.199219 42.949219 32.097656 C 42.847656 32 42.746094 31.902344 42.640625 31.800781 C 42.066406 31.148438 42.125 30.355469 42.132812 29.53125 C 42.242188 28.585938 42.851562 28.011719 43.5 27.375 C 42.535156 25.558594 41.351562 24.148438 39.375 23.4375 C 37.792969 23.074219 36.226562 23 34.609375 22.984375 C 34.378906 22.980469 34.148438 22.976562 33.910156 22.972656 C 33.1875 22.964844 32.460938 22.953125 31.734375 22.945312 C 31.238281 22.9375 30.742188 22.929688 30.246094 22.921875 C 29.039062 22.90625 27.832031 22.890625 26.625 22.875 C 26.574219 23.050781 26.519531 23.222656 26.464844 23.402344 C 26.25 24.007812 26.023438 24.375 25.507812 24.765625 C 24.664062 25.144531 23.765625 25.089844 22.875 24.9375 C 22.324219 24.6875 22.152344 24.484375 21.75 24 C 21.613281 23.628906 21.488281 23.253906 21.375 22.875 C 21.226562 22.875 21.078125 22.878906 20.925781 22.878906 C 19.527344 22.894531 18.125 22.90625 16.726562 22.914062 C 16.003906 22.917969 15.285156 22.921875 14.566406 22.929688 C 13.867188 22.941406 13.171875 22.945312 12.472656 22.945312 C 12.210938 22.949219 11.945312 22.949219 11.683594 22.953125 C 8.902344 22.996094 6.953125 22.410156 4.921875 20.519531 C 3 18.4375 3 18.4375 3 17.25 C 2.832031 17.234375 2.667969 17.21875 2.496094 17.203125 C 1.78125 17.042969 1.457031 16.820312 0.9375 16.3125 C 0.394531 15.429688 0.402344 14.5 0.5625 13.5 C 0.84375 12.929688 1.164062 12.546875 1.6875 12.1875 C 2.414062 12.011719 2.414062 12.011719 3 12 C 3.03125 11.824219 3.0625 11.652344 3.09375 11.472656 C 3.660156 9.535156 5.242188 8.105469 6.9375 7.125 C 8.53125 6.386719 10.070312 6.164062 11.820312 6.148438 C 12.039062 6.144531 12.039062 6.144531 12.257812 6.140625 C 12.734375 6.136719 13.207031 6.132812 13.679688 6.128906 C 14.011719 6.125 14.34375 6.121094 14.671875 6.117188 C 15.539062 6.105469 16.402344 6.097656 17.269531 6.089844 C 18.152344 6.078125 19.039062 6.066406 19.921875 6.058594 C 21.65625 6.039062 23.390625 6.019531 25.125 6 C 24.9375 5.8125 24.9375 5.8125 24.75 5.625 C 24.714844 5.144531 24.714844 5.144531 24.75 4.6875 C 24.8125 4.625 24.875 4.5625 24.9375 4.5 Z M 24.9375 4.5 "/>
<path style=" stroke:none;fill-rule:nonzero;fill:rgb(0.784314%,1.176471%,1.176471%);fill-opacity:1;" d="M 28.3125 0.5625 C 34.625 0.5625 40.933594 0.5625 47.4375 0.5625 C 47.441406 2.628906 47.445312 4.699219 47.449219 6.832031 C 47.449219 7.488281 47.453125 8.140625 47.453125 8.8125 C 47.453125 9.328125 47.457031 9.84375 47.457031 10.359375 C 47.457031 10.492188 47.457031 10.628906 47.457031 10.765625 C 47.457031 11.160156 47.457031 11.554688 47.457031 11.953125 C 47.460938 12.171875 47.460938 12.394531 47.460938 12.625 C 47.4375 13.125 47.4375 13.125 47.25 13.3125 C 46.695312 13.328125 46.144531 13.335938 45.589844 13.332031 C 45.339844 13.332031 45.339844 13.332031 45.089844 13.328125 C 44.554688 13.328125 44.019531 13.328125 43.488281 13.324219 C 43.125 13.324219 42.765625 13.320312 42.40625 13.320312 C 41.523438 13.320312 40.636719 13.316406 39.75 13.3125 C 39.84375 14.054688 39.84375 14.054688 39.9375 14.8125 C 40.617188 15.058594 41.296875 15.308594 42 15.5625 C 42 15.871094 42 16.179688 42 16.5 C 41.9375 16.5625 41.875 16.625 41.8125 16.6875 C 41.105469 16.617188 40.410156 16.515625 39.707031 16.390625 C 38.171875 16.128906 36.953125 16.179688 35.4375 16.5 C 34.875 16.574219 34.3125 16.632812 33.75 16.6875 C 33.632812 16.347656 33.632812 16.347656 33.5625 15.9375 C 34 15.28125 34.164062 15.257812 34.898438 15.058594 C 35.070312 15.011719 35.242188 14.964844 35.414062 14.914062 C 35.546875 14.882812 35.675781 14.847656 35.8125 14.8125 C 35.875 14.316406 35.9375 13.824219 36 13.3125 C 35.773438 13.3125 35.550781 13.316406 35.316406 13.316406 C 34.484375 13.324219 33.652344 13.328125 32.816406 13.332031 C 32.453125 13.335938 32.09375 13.335938 31.734375 13.339844 C 31.214844 13.347656 30.695312 13.347656 30.179688 13.351562 C 30.015625 13.351562 29.855469 13.355469 29.6875 13.355469 C 29.292969 13.355469 28.894531 13.335938 28.5 13.3125 C 28.125 12.9375 28.125 12.9375 28.078125 12.4375 C 28.078125 12.121094 28.078125 12.121094 28.078125 11.800781 C 28.078125 11.558594 28.078125 11.320312 28.078125 11.074219 C 28.078125 10.8125 28.078125 10.550781 28.082031 10.289062 C 28.082031 10.023438 28.082031 9.753906 28.082031 9.484375 C 28.082031 8.925781 28.082031 8.363281 28.085938 7.804688 C 28.089844 7.082031 28.089844 6.363281 28.089844 5.640625 C 28.089844 5.089844 28.089844 4.539062 28.09375 3.984375 C 28.09375 3.71875 28.09375 3.453125 28.09375 3.1875 C 28.09375 2.816406 28.09375 2.445312 28.097656 2.074219 C 28.097656 1.863281 28.097656 1.652344 28.101562 1.4375 C 28.125 0.9375 28.125 0.9375 28.3125 0.5625 Z M 29.4375 1.6875 C 29.4375 4.347656 29.4375 7.007812 29.4375 9.75 C 35.007812 9.75 40.574219 9.75 46.3125 9.75 C 46.3125 7.089844 46.3125 4.429688 46.3125 1.6875 C 40.742188 1.6875 35.175781 1.6875 29.4375 1.6875 Z M 29.4375 1.6875 "/>
<path style=" stroke:none;fill-rule:nonzero;fill:rgb(0.392157%,0.392157%,0.784314%);fill-opacity:1;" d="M 1.976562 31.289062 C 2.152344 31.289062 2.328125 31.292969 2.507812 31.292969 C 2.785156 31.292969 2.785156 31.292969 3.070312 31.292969 C 3.683594 31.292969 4.296875 31.292969 4.910156 31.292969 C 5.335938 31.292969 5.757812 31.292969 6.183594 31.292969 C 7.304688 31.292969 8.421875 31.296875 9.539062 31.300781 C 10.683594 31.300781 11.824219 31.300781 12.964844 31.304688 C 15.207031 31.304688 17.445312 31.308594 19.6875 31.3125 C 19.945312 31.828125 19.898438 32.246094 19.898438 32.824219 C 19.898438 33.066406 19.898438 33.304688 19.898438 33.550781 C 19.898438 33.8125 19.898438 34.074219 19.898438 34.335938 C 19.898438 34.605469 19.898438 34.871094 19.898438 35.136719 C 19.898438 35.699219 19.898438 36.261719 19.898438 36.824219 C 19.898438 37.542969 19.898438 38.261719 19.898438 38.980469 C 19.898438 39.535156 19.898438 40.089844 19.898438 40.640625 C 19.898438 40.90625 19.898438 41.171875 19.898438 41.4375 C 19.898438 41.808594 19.898438 42.179688 19.898438 42.546875 C 19.898438 42.761719 19.898438 42.972656 19.898438 43.191406 C 19.875 43.6875 19.875 43.6875 19.6875 44.0625 C 17.152344 44.0625 14.613281 44.0625 12 44.0625 C 12 44.617188 12 45.175781 12 45.75 C 12.347656 45.785156 12.347656 45.785156 12.703125 45.820312 C 13.785156 45.960938 13.785156 45.960938 14.25 46.3125 C 14.402344 46.6875 14.402344 46.6875 14.4375 47.0625 C 14.375 47.183594 14.316406 47.308594 14.25 47.4375 C 13.589844 47.464844 13.054688 47.480469 12.429688 47.25 C 11.675781 47.019531 11.011719 47.007812 10.230469 47.015625 C 10.09375 47.015625 9.957031 47.011719 9.816406 47.011719 C 8.921875 47.015625 8.175781 47.171875 7.3125 47.4375 C 6.875 47.453125 6.4375 47.457031 6 47.4375 C 6 47.066406 6 46.695312 6 46.3125 C 6.742188 46.0625 7.484375 45.816406 8.25 45.5625 C 8.3125 45.066406 8.375 44.570312 8.4375 44.0625 C 5.839844 44.0625 3.242188 44.0625 0.5625 44.0625 C 0.554688 40.933594 0.554688 40.933594 0.554688 39.605469 C 0.550781 38.699219 0.550781 37.789062 0.546875 36.882812 C 0.546875 36.148438 0.542969 35.417969 0.542969 34.6875 C 0.542969 34.40625 0.542969 34.125 0.542969 33.847656 C 0.539062 33.453125 0.539062 33.066406 0.539062 32.675781 C 0.539062 32.453125 0.539062 32.230469 0.539062 32 C 0.582031 31.035156 1.144531 31.292969 1.976562 31.289062 Z M 1.6875 32.4375 C 1.6875 35.160156 1.6875 37.882812 1.6875 40.6875 C 7.257812 40.6875 12.824219 40.6875 18.5625 40.6875 C 18.5625 37.964844 18.5625 35.242188 18.5625 32.4375 C 12.996094 32.4375 7.425781 32.4375 1.6875 32.4375 Z M 1.6875 32.4375 "/>
<path style=" stroke:none;fill-rule:nonzero;fill:rgb(27.058825%,37.64706%,49.411765%);fill-opacity:1;" d="M 29.4375 10.875 C 35.007812 10.875 40.574219 10.875 46.3125 10.875 C 46.3125 11.308594 46.3125 11.742188 46.3125 12.1875 C 40.742188 12.1875 35.175781 12.1875 29.4375 12.1875 C 29.4375 11.753906 29.4375 11.320312 29.4375 10.875 Z M 29.4375 10.875 "/>
<path style=" stroke:none;fill-rule:nonzero;fill:rgb(0%,0%,0%);fill-opacity:1;" d="M 9.5625 11.25 C 9.957031 11.179688 9.957031 11.179688 10.5 11.25 C 10.945312 11.578125 11.308594 11.96875 11.683594 12.375 C 11.839844 12.535156 11.839844 12.535156 11.996094 12.699219 C 12.25 12.964844 12.5 13.230469 12.75 13.5 C 13.417969 12.9375 14.058594 12.386719 14.648438 11.742188 C 15.1875 11.25 15.1875 11.25 15.726562 11.179688 C 15.925781 11.214844 15.925781 11.214844 16.125 11.25 C 16.289062 11.644531 16.289062 11.644531 16.3125 12.1875 C 16.003906 12.644531 15.605469 13 15.199219 13.371094 C 15.039062 13.527344 15.039062 13.527344 14.871094 13.683594 C 14.605469 13.9375 14.335938 14.1875 14.0625 14.4375 C 14.4375 15.375 15.207031 15.9375 15.933594 16.605469 C 16.3125 17.0625 16.3125 17.0625 16.273438 17.496094 C 16.125 17.8125 16.125 17.8125 15.730469 17.976562 C 15.1875 18 15.1875 18 14.898438 17.804688 C 14.585938 17.511719 14.292969 17.203125 14.003906 16.886719 C 13.847656 16.726562 13.847656 16.726562 13.691406 16.558594 C 13.4375 16.292969 13.1875 16.023438 12.9375 15.75 C 12.265625 16.3125 11.625 16.867188 11.039062 17.519531 C 10.5 18 10.5 18 9.960938 17.976562 C 9.761719 17.894531 9.761719 17.894531 9.5625 17.8125 C 9.4375 17.472656 9.4375 17.472656 9.375 17.0625 C 9.734375 16.632812 10.078125 16.269531 10.488281 15.890625 C 10.59375 15.789062 10.703125 15.683594 10.816406 15.574219 C 11.082031 15.320312 11.355469 15.066406 11.625 14.8125 C 11.25 13.878906 10.484375 13.320312 9.753906 12.664062 C 9.375 12.1875 9.375 12.1875 9.414062 11.660156 C 9.460938 11.523438 9.511719 11.390625 9.5625 11.25 Z M 9.5625 11.25 "/>
<path style=" stroke:none;fill-rule:nonzero;fill:rgb(0%,0%,0%);fill-opacity:1;" d="M 32.0625 26.625 C 32.761719 26.632812 33.011719 26.820312 33.542969 27.28125 C 33.726562 27.46875 33.910156 27.660156 34.089844 27.855469 C 34.183594 27.953125 34.277344 28.050781 34.375 28.152344 C 34.605469 28.390625 34.832031 28.632812 35.0625 28.875 C 35.730469 28.316406 36.375 27.761719 36.960938 27.117188 C 37.5 26.625 37.5 26.625 38.039062 26.554688 C 38.238281 26.589844 38.238281 26.589844 38.4375 26.625 C 38.601562 27.019531 38.601562 27.019531 38.625 27.5625 C 38.316406 28.019531 37.917969 28.375 37.511719 28.746094 C 37.351562 28.902344 37.351562 28.902344 37.183594 29.058594 C 36.917969 29.3125 36.648438 29.5625 36.375 29.8125 C 36.75 30.746094 37.515625 31.304688 38.246094 31.960938 C 38.625 32.4375 38.625 32.4375 38.585938 32.964844 C 38.511719 33.167969 38.511719 33.167969 38.4375 33.375 C 38.042969 33.445312 38.042969 33.445312 37.5 33.375 C 37.054688 33.046875 36.691406 32.65625 36.316406 32.25 C 36.214844 32.144531 36.109375 32.035156 36.003906 31.925781 C 35.75 31.660156 35.5 31.394531 35.25 31.125 C 34.578125 31.6875 33.9375 32.242188 33.351562 32.894531 C 32.8125 33.375 32.8125 33.375 32.273438 33.351562 C 32.074219 33.269531 32.074219 33.269531 31.875 33.1875 C 31.78125 32.90625 31.78125 32.90625 31.6875 32.625 C 31.921875 32.273438 31.921875 32.273438 32.273438 31.898438 C 32.394531 31.769531 32.515625 31.636719 32.636719 31.5 C 33.066406 31.054688 33.496094 30.617188 33.9375 30.1875 C 33.574219 29.320312 32.925781 28.796875 32.25 28.167969 C 31.878906 27.753906 31.714844 27.546875 31.6875 27 C 31.8125 26.875 31.933594 26.753906 32.0625 26.625 Z M 32.0625 26.625 "/>
<path style=" stroke:none;fill-rule:nonzero;fill:rgb(30.19608%,41.568628%,54.509807%);fill-opacity:1;" d="M 1.6875 41.8125 C 7.257812 41.8125 12.824219 41.8125 18.5625 41.8125 C 18.5625 42.183594 18.5625 42.554688 18.5625 42.9375 C 12.992188 42.9375 7.425781 42.9375 1.6875 42.9375 C 1.6875 42.566406 1.6875 42.195312 1.6875 41.8125 Z M 1.6875 41.8125 "/>
<path style=" stroke:none;fill-rule:nonzero;fill:rgb(88.235295%,76.862746%,40.784314%);fill-opacity:1;" d="M 24 20.695312 C 24.761719 20.855469 25.039062 21.125 25.5 21.75 C 25.617188 22.3125 25.617188 22.3125 25.5 22.875 C 25.039062 23.5 24.761719 23.769531 24 23.929688 C 23.238281 23.769531 22.960938 23.5 22.5 22.875 C 22.382812 22.3125 22.382812 22.3125 22.5 21.75 C 22.960938 21.125 23.238281 20.855469 24 20.695312 Z M 24 20.695312 "/>
<path style=" stroke:none;fill-rule:nonzero;fill:rgb(88.627452%,77.254903%,41.176471%);fill-opacity:1;" d="M 3.1875 13.007812 C 3.949219 13.167969 4.226562 13.4375 4.6875 14.0625 C 4.804688 14.625 4.804688 14.625 4.6875 15.1875 C 4.226562 15.8125 3.949219 16.082031 3.1875 16.242188 C 2.425781 16.082031 2.148438 15.8125 1.6875 15.1875 C 1.570312 14.625 1.570312 14.625 1.6875 14.0625 C 2.148438 13.4375 2.425781 13.167969 3.1875 13.007812 Z M 3.1875 13.007812 "/>
<path style=" stroke:none;fill-rule:nonzero;fill:rgb(89.019608%,77.254903%,41.176471%);fill-opacity:1;" d="M 44.8125 28.382812 C 45.574219 28.542969 45.851562 28.8125 46.3125 29.4375 C 46.429688 30 46.429688 30 46.3125 30.5625 C 45.851562 31.1875 45.574219 31.457031 44.8125 31.617188 C 44.050781 31.457031 43.773438 31.1875 43.3125 30.5625 C 43.195312 30 43.195312 30 43.3125 29.4375 C 43.773438 28.8125 44.050781 28.542969 44.8125 28.382812 Z M 44.8125 28.382812 "/>
<path style=" stroke:none;fill-rule:nonzero;fill:rgb(26.666668%,36.078432%,48.627451%);fill-opacity:1;" d="M 9.5625 44.0625 C 9.933594 44.0625 10.304688 44.0625 10.6875 44.0625 C 10.6875 44.558594 10.6875 45.050781 10.6875 45.5625 C 10.316406 45.5625 9.945312 45.5625 9.5625 45.5625 C 9.5625 45.066406 9.5625 44.574219 9.5625 44.0625 Z M 9.5625 44.0625 "/>
<path style=" stroke:none;fill-rule:nonzero;fill:rgb(26.666668%,36.470589%,48.627451%);fill-opacity:1;" d="M 37.3125 13.3125 C 37.683594 13.3125 38.054688 13.3125 38.4375 13.3125 C 38.4375 13.808594 38.4375 14.300781 38.4375 14.8125 C 38.066406 14.8125 37.695312 14.8125 37.3125 14.8125 C 37.3125 14.316406 37.3125 13.824219 37.3125 13.3125 Z M 37.3125 13.3125 "/>
</g>
</svg>
