<?xml version="1.0" encoding="UTF-8"?>
<svg xmlns="http://www.w3.org/2000/svg" xmlns:xlink="http://www.w3.org/1999/xlink" width="48" height="48" viewBox="0 0 48 48" version="1.1">
<g id="surface1">
<path style=" stroke:none;fill-rule:nonzero;fill:rgb(10.588235%,13.333334%,12.54902%);fill-opacity:1;" d="M 10.78125 2.226562 C 11.023438 2.226562 11.265625 2.222656 11.515625 2.222656 C 11.78125 2.222656 12.046875 2.222656 12.316406 2.222656 C 12.597656 2.222656 12.878906 2.222656 13.160156 2.222656 C 13.921875 2.21875 14.6875 2.21875 15.453125 2.21875 C 15.929688 2.21875 16.40625 2.21875 16.886719 2.21875 C 18.554688 2.214844 20.222656 2.214844 21.890625 2.214844 C 23.445312 2.214844 24.996094 2.214844 26.550781 2.210938 C 27.882812 2.207031 29.222656 2.207031 30.554688 2.207031 C 31.351562 2.207031 32.148438 2.207031 32.945312 2.203125 C 33.695312 2.203125 34.445312 2.203125 35.195312 2.203125 C 35.46875 2.203125 35.742188 2.203125 36.015625 2.203125 C 38.203125 2.195312 39.953125 2.222656 41.625 3.75 C 42.867188 4.996094 43.171875 6.273438 43.179688 8 C 43.179688 8.523438 43.167969 9.050781 43.160156 9.574219 C 43.160156 9.847656 43.15625 10.117188 43.152344 10.390625 C 43.148438 11.050781 43.136719 11.714844 43.125 12.375 C 43.304688 12.367188 43.484375 12.359375 43.667969 12.347656 C 43.902344 12.34375 44.136719 12.335938 44.378906 12.328125 C 44.613281 12.320312 44.84375 12.3125 45.082031 12.300781 C 45.871094 12.386719 46.152344 12.554688 46.6875 13.125 C 47.003906 13.785156 47.109375 14.316406 47.113281 15.046875 C 47.117188 15.238281 47.117188 15.429688 47.121094 15.625 C 47.117188 15.933594 47.117188 15.933594 47.117188 16.25 C 47.121094 16.460938 47.121094 16.671875 47.121094 16.890625 C 47.121094 17.339844 47.121094 17.789062 47.121094 18.238281 C 47.121094 18.921875 47.125 19.609375 47.128906 20.292969 C 47.132812 20.730469 47.132812 21.167969 47.132812 21.601562 C 47.132812 21.808594 47.132812 22.011719 47.136719 22.222656 C 47.128906 23.421875 47.089844 24.355469 46.191406 25.246094 C 45.574219 25.601562 45.09375 25.554688 44.390625 25.535156 C 44.152344 25.53125 43.917969 25.527344 43.671875 25.519531 C 43.492188 25.511719 43.3125 25.507812 43.125 25.5 C 43.125 25.738281 43.125 25.738281 43.128906 25.980469 C 43.140625 27.476562 43.148438 28.976562 43.15625 30.472656 C 43.15625 31.242188 43.160156 32.011719 43.167969 32.78125 C 43.171875 33.527344 43.175781 34.269531 43.179688 35.015625 C 43.179688 35.296875 43.179688 35.582031 43.183594 35.863281 C 43.203125 37.761719 43.21875 39.546875 41.882812 41.027344 C 41.769531 41.160156 41.65625 41.292969 41.535156 41.429688 C 40.148438 42.550781 38.765625 42.667969 37.03125 42.648438 C 36.804688 42.648438 36.574219 42.648438 36.339844 42.648438 C 35.714844 42.648438 35.09375 42.644531 34.472656 42.640625 C 33.820312 42.632812 33.167969 42.632812 32.515625 42.632812 C 31.28125 42.628906 30.046875 42.625 28.816406 42.617188 C 27.410156 42.609375 26.003906 42.605469 24.597656 42.601562 C 21.710938 42.59375 18.824219 42.578125 15.9375 42.5625 C 15.882812 42.679688 15.832031 42.792969 15.777344 42.914062 C 15.082031 44.203125 13.304688 45.003906 11.964844 45.433594 C 9.460938 46.042969 7.164062 45.691406 4.925781 44.441406 C 3.050781 43.277344 1.828125 41.507812 1.207031 39.386719 C 0.699219 36.96875 1.109375 34.558594 2.402344 32.484375 C 3.007812 31.625 3.734375 30.664062 4.6875 30.1875 C 4.75 28.640625 4.8125 27.09375 4.875 25.5 C 4.253906 25.523438 4.253906 25.523438 3.621094 25.546875 C 2.835938 25.578125 2.394531 25.585938 1.71875 25.179688 C 1.046875 24.46875 0.890625 23.792969 0.886719 22.828125 C 0.882812 22.542969 0.882812 22.542969 0.878906 22.25 C 0.878906 22.042969 0.878906 21.839844 0.878906 21.628906 C 0.878906 21.414062 0.878906 21.203125 0.878906 20.984375 C 0.878906 20.535156 0.878906 20.085938 0.878906 19.636719 C 0.878906 18.953125 0.875 18.265625 0.871094 17.582031 C 0.871094 17.144531 0.871094 16.710938 0.871094 16.273438 C 0.867188 16.066406 0.867188 15.863281 0.863281 15.652344 C 0.871094 14.414062 0.945312 13.53125 1.824219 12.589844 C 2.429688 12.285156 2.9375 12.320312 3.609375 12.339844 C 3.847656 12.34375 4.082031 12.351562 4.328125 12.355469 C 4.507812 12.359375 4.6875 12.367188 4.875 12.375 C 4.871094 12.207031 4.867188 12.039062 4.863281 11.867188 C 4.855469 11.238281 4.851562 10.613281 4.84375 9.984375 C 4.839844 9.714844 4.835938 9.445312 4.832031 9.171875 C 4.792969 6.917969 4.910156 5.253906 6.527344 3.550781 C 7.78125 2.433594 9.132812 2.226562 10.78125 2.226562 Z M 10.78125 2.226562 "/>
<path style=" stroke:none;fill-rule:nonzero;fill:rgb(88.627452%,89.803922%,98.823529%);fill-opacity:1;" d="M 6 25.5 C 17.878906 25.5 29.761719 25.5 42 25.5 C 42 39.066406 42 39.066406 40.921875 40.316406 C 40.820312 40.402344 40.714844 40.484375 40.605469 40.570312 C 40.5 40.65625 40.398438 40.742188 40.289062 40.832031 C 39.5625 41.304688 38.910156 41.484375 38.046875 41.484375 C 37.859375 41.484375 37.671875 41.484375 37.480469 41.484375 C 37.273438 41.484375 37.074219 41.480469 36.863281 41.480469 C 36.539062 41.480469 36.539062 41.480469 36.207031 41.480469 C 35.496094 41.480469 34.78125 41.476562 34.070312 41.476562 C 33.574219 41.472656 33.078125 41.472656 32.582031 41.472656 C 31.414062 41.472656 30.246094 41.46875 29.078125 41.464844 C 27.75 41.460938 26.417969 41.457031 25.085938 41.457031 C 22.347656 41.453125 19.613281 41.445312 16.875 41.4375 C 16.914062 41.324219 16.953125 41.210938 16.992188 41.09375 C 17.042969 40.945312 17.09375 40.792969 17.144531 40.640625 C 17.195312 40.492188 17.246094 40.34375 17.296875 40.191406 C 17.628906 39.152344 17.660156 38.226562 17.660156 37.136719 C 17.664062 36.886719 17.664062 36.886719 17.667969 36.628906 C 17.671875 35.75 17.605469 35.125 17.25 34.3125 C 17.390625 33.328125 18.183594 32.796875 18.882812 32.15625 C 19.472656 31.59375 19.824219 31.234375 19.875 30.375 C 19.769531 30.328125 19.664062 30.28125 19.554688 30.230469 C 19.070312 29.96875 18.664062 29.664062 18.234375 29.320312 C 18.085938 29.203125 17.933594 29.082031 17.78125 28.960938 C 17.667969 28.871094 17.554688 28.78125 17.4375 28.6875 C 16.75 28.96875 16.371094 29.371094 15.890625 29.929688 C 15.757812 30.082031 15.625 30.234375 15.488281 30.394531 C 15.390625 30.511719 15.289062 30.628906 15.1875 30.75 C 14.390625 30.445312 13.648438 30.070312 12.898438 29.667969 C 11.707031 29.144531 10.578125 29 9.292969 29.003906 C 9.09375 29 9.09375 29 8.894531 28.996094 C 7.761719 28.992188 7.160156 29.238281 6 29.625 C 6 28.265625 6 26.902344 6 25.5 Z M 6 25.5 "/>
<path style=" stroke:none;fill-rule:nonzero;fill:rgb(98.431373%,81.176472%,30.588236%);fill-opacity:1;" d="M 14.0625 13.5 C 18.136719 13.488281 22.207031 13.476562 26.28125 13.46875 C 28.171875 13.46875 30.0625 13.464844 31.953125 13.457031 C 33.601562 13.453125 35.25 13.449219 36.898438 13.449219 C 37.769531 13.445312 38.644531 13.445312 39.515625 13.441406 C 40.335938 13.4375 41.15625 13.4375 41.980469 13.4375 C 42.28125 13.4375 42.582031 13.433594 42.886719 13.433594 C 43.296875 13.429688 43.707031 13.429688 44.117188 13.433594 C 44.464844 13.433594 44.464844 13.433594 44.816406 13.429688 C 45.375 13.5 45.375 13.5 45.730469 13.757812 C 46.023438 14.1875 46.007812 14.496094 46.011719 15.011719 C 46.011719 15.207031 46.015625 15.398438 46.015625 15.597656 C 46.015625 15.910156 46.015625 15.910156 46.011719 16.230469 C 46.011719 16.550781 46.011719 16.550781 46.015625 16.878906 C 46.015625 17.332031 46.011719 17.785156 46.011719 18.238281 C 46.007812 18.9375 46.011719 19.628906 46.015625 20.324219 C 46.015625 20.765625 46.011719 21.203125 46.011719 21.644531 C 46.011719 21.851562 46.015625 22.0625 46.015625 22.277344 C 46.011719 22.566406 46.011719 22.566406 46.011719 22.863281 C 46.011719 23.03125 46.007812 23.203125 46.007812 23.378906 C 45.917969 23.921875 45.820312 24.050781 45.375 24.375 C 44.816406 24.445312 44.816406 24.445312 44.117188 24.441406 C 43.925781 24.441406 43.925781 24.441406 43.730469 24.445312 C 43.300781 24.445312 42.867188 24.441406 42.4375 24.4375 C 42.128906 24.4375 41.820312 24.4375 41.511719 24.4375 C 40.671875 24.4375 39.835938 24.4375 38.996094 24.429688 C 38.117188 24.429688 37.242188 24.425781 36.367188 24.425781 C 34.707031 24.425781 33.046875 24.421875 31.390625 24.417969 C 29.5 24.410156 27.609375 24.40625 25.722656 24.402344 C 21.835938 24.398438 17.949219 24.386719 14.0625 24.375 C 14.0625 20.785156 14.0625 17.199219 14.0625 13.5 Z M 14.0625 13.5 "/>
<path style=" stroke:none;fill-rule:nonzero;fill:rgb(1.568628%,70.588237%,63.921571%);fill-opacity:1;" d="M 9.824219 3.535156 C 10.007812 3.535156 10.007812 3.535156 10.199219 3.535156 C 10.617188 3.53125 11.035156 3.53125 11.457031 3.53125 C 11.753906 3.53125 12.054688 3.53125 12.355469 3.527344 C 13.167969 3.527344 13.984375 3.523438 14.796875 3.523438 C 15.308594 3.523438 15.816406 3.523438 16.324219 3.523438 C 17.914062 3.519531 19.507812 3.519531 21.097656 3.515625 C 22.9375 3.515625 24.777344 3.511719 26.613281 3.507812 C 28.035156 3.503906 29.453125 3.503906 30.875 3.503906 C 31.722656 3.503906 32.570312 3.5 33.417969 3.496094 C 34.21875 3.496094 35.015625 3.492188 35.816406 3.496094 C 36.109375 3.496094 36.402344 3.496094 36.695312 3.492188 C 37.09375 3.492188 37.492188 3.492188 37.894531 3.492188 C 38.117188 3.492188 38.339844 3.492188 38.570312 3.492188 C 39.859375 3.640625 40.5625 4.296875 41.347656 5.253906 C 42.179688 6.363281 42 6.902344 42 8.4375 C 30.121094 8.4375 18.238281 8.4375 6 8.4375 C 6 5.828125 6 5.828125 7.121094 4.683594 C 8.066406 3.839844 8.535156 3.539062 9.824219 3.535156 Z M 9.824219 3.535156 "/>
<path style=" stroke:none;fill-rule:nonzero;fill:rgb(1.568628%,69.803923%,63.137257%);fill-opacity:1;" d="M 13.527344 30.980469 C 13.777344 31.140625 14.015625 31.320312 14.25 31.5 C 13.609375 32.402344 12.945312 33.207031 12.148438 33.976562 C 11.675781 34.449219 11.246094 34.960938 10.8125 35.476562 C 10.488281 35.824219 10.140625 36.097656 9.75 36.375 C 9.5 36.101562 9.25 35.828125 9 35.554688 C 8.863281 35.402344 8.722656 35.25 8.578125 35.09375 C 8.25 34.6875 8.25 34.6875 8.25 34.3125 C 7.582031 34.222656 7.355469 34.277344 6.804688 34.691406 C 6.640625 34.855469 6.476562 35.023438 6.304688 35.191406 C 6.136719 35.355469 5.96875 35.519531 5.796875 35.683594 C 5.394531 36.148438 5.394531 36.148438 5.421875 36.65625 C 5.683594 37.261719 6.035156 37.644531 6.492188 38.121094 C 6.660156 38.300781 6.828125 38.480469 7.003906 38.664062 C 7.167969 38.835938 7.332031 39.011719 7.5 39.1875 C 7.746094 39.464844 7.992188 39.742188 8.238281 40.019531 C 8.335938 40.132812 8.433594 40.242188 8.539062 40.359375 C 8.828125 40.707031 9.105469 41.070312 9.375 41.4375 C 10.289062 41.410156 10.691406 40.945312 11.285156 40.316406 C 11.730469 39.820312 12.171875 39.3125 12.609375 38.808594 C 13.027344 38.335938 13.472656 37.898438 13.921875 37.460938 C 14.273438 37.101562 14.601562 36.722656 14.929688 36.339844 C 15.410156 35.78125 15.902344 35.308594 16.5 34.875 C 17.183594 36.753906 17.003906 38.480469 16.226562 40.304688 C 15.496094 41.746094 14.511719 42.851562 13.125 43.6875 C 12.996094 43.765625 12.871094 43.839844 12.738281 43.921875 C 11.15625 44.710938 8.992188 44.792969 7.292969 44.328125 C 5.023438 43.496094 3.667969 42.027344 2.648438 39.886719 C 2.035156 38.402344 1.996094 36.476562 2.378906 34.914062 C 2.554688 34.496094 2.757812 34.132812 3 33.75 C 3.074219 33.609375 3.152344 33.472656 3.226562 33.328125 C 4.257812 31.566406 5.929688 30.488281 7.871094 29.929688 C 9.945312 29.5 11.695312 29.9375 13.527344 30.980469 Z M 13.527344 30.980469 "/>
<path style=" stroke:none;fill-rule:nonzero;fill:rgb(98.431373%,25.098041%,27.843139%);fill-opacity:1;" d="M 3.636719 13.4375 C 3.949219 13.4375 3.949219 13.4375 4.269531 13.4375 C 4.488281 13.441406 4.710938 13.441406 4.933594 13.445312 C 5.238281 13.445312 5.238281 13.445312 5.546875 13.449219 C 6.304688 13.449219 7.0625 13.457031 7.816406 13.464844 C 10.351562 13.484375 10.351562 13.484375 12.9375 13.5 C 12.9375 17.089844 12.9375 20.675781 12.9375 24.375 C 11.246094 24.386719 9.558594 24.398438 7.816406 24.410156 C 7.015625 24.417969 7.015625 24.417969 6.199219 24.425781 C 5.777344 24.425781 5.355469 24.429688 4.933594 24.429688 C 4.605469 24.433594 4.605469 24.433594 4.269531 24.4375 C 3.957031 24.4375 3.957031 24.4375 3.636719 24.4375 C 3.363281 24.441406 3.363281 24.441406 3.085938 24.441406 C 2.625 24.375 2.625 24.375 2.285156 24.148438 C 1.988281 23.699219 1.992188 23.398438 1.988281 22.863281 C 1.988281 22.667969 1.984375 22.476562 1.984375 22.277344 C 1.984375 22.070312 1.988281 21.859375 1.988281 21.644531 C 1.988281 21.429688 1.988281 21.214844 1.984375 20.996094 C 1.984375 20.542969 1.988281 20.089844 1.988281 19.636719 C 1.992188 18.941406 1.988281 18.246094 1.984375 17.550781 C 1.984375 17.109375 1.988281 16.671875 1.988281 16.230469 C 1.988281 16.023438 1.984375 15.8125 1.984375 15.597656 C 1.984375 15.40625 1.988281 15.210938 1.988281 15.011719 C 1.988281 14.84375 1.992188 14.671875 1.992188 14.496094 C 2.0625 14.0625 2.0625 14.0625 2.285156 13.726562 C 2.753906 13.414062 3.078125 13.433594 3.636719 13.4375 Z M 3.636719 13.4375 "/>
<path style=" stroke:none;fill-rule:nonzero;fill:rgb(89.411765%,90.588236%,99.607843%);fill-opacity:1;" d="M 6 9.5625 C 17.878906 9.5625 29.761719 9.5625 42 9.5625 C 42 10.492188 42 11.417969 42 12.375 C 30.121094 12.375 18.238281 12.375 6 12.375 C 6 11.445312 6 10.519531 6 9.5625 Z M 6 9.5625 "/>
<path style=" stroke:none;fill-rule:nonzero;fill:rgb(13.333334%,11.372549%,11.764706%);fill-opacity:1;" d="M 8.839844 15.554688 C 9.644531 16.007812 10.148438 16.78125 10.5 17.625 C 10.617188 18.679688 10.539062 19.640625 10.125 20.625 C 10.363281 20.832031 10.363281 20.832031 10.605469 21.046875 C 10.757812 21.21875 10.90625 21.386719 11.0625 21.5625 C 11.027344 21.996094 11.027344 21.996094 10.875 22.3125 C 9.996094 22.195312 9.996094 22.195312 9.671875 21.824219 C 9.574219 21.738281 9.476562 21.652344 9.375 21.5625 C 8.996094 21.585938 8.996094 21.585938 8.601562 21.726562 C 7.429688 22.03125 6.480469 21.988281 5.390625 21.445312 C 4.589844 20.753906 4.019531 20.226562 3.851562 19.140625 C 3.8125 17.988281 3.875 17.191406 4.6875 16.3125 C 6 15.132812 7.171875 14.871094 8.839844 15.554688 Z M 8.839844 15.554688 "/>
<path style=" stroke:none;fill-rule:nonzero;fill:rgb(96.862745%,96.862745%,96.862745%);fill-opacity:1;" d="M 17.25 29.8125 C 17.8125 30.140625 17.8125 30.140625 18.375 30.5625 C 18.375 31.3125 18.375 31.3125 18.09375 31.660156 C 17.964844 31.777344 17.839844 31.894531 17.707031 32.015625 C 17.179688 32.515625 16.679688 33.019531 16.207031 33.574219 C 15.691406 34.175781 15.144531 34.734375 14.578125 35.292969 C 14.238281 35.636719 13.921875 35.996094 13.605469 36.363281 C 13.035156 37.023438 12.433594 37.636719 11.8125 38.246094 C 11.3125 38.753906 10.863281 39.296875 10.414062 39.847656 C 10.125 40.125 10.125 40.125 9.5625 40.125 C 9.078125 39.742188 8.671875 39.269531 8.25 38.8125 C 8.128906 38.683594 8.011719 38.554688 7.886719 38.425781 C 7.300781 37.78125 6.804688 37.230469 6.5625 36.375 C 7.121094 35.910156 7.121094 35.910156 7.6875 35.4375 C 8.304688 36.117188 8.925781 36.796875 9.5625 37.5 C 10.375 37.296875 10.558594 37.132812 11.121094 36.550781 C 11.269531 36.394531 11.421875 36.242188 11.574219 36.082031 C 12.03125 35.589844 12.472656 35.089844 12.910156 34.582031 C 13.46875 33.945312 14.046875 33.332031 14.625 32.71875 C 15.519531 31.765625 16.40625 30.808594 17.25 29.8125 Z M 17.25 29.8125 "/>
<path style=" stroke:none;fill-rule:nonzero;fill:rgb(17.254902%,19.215687%,17.254902%);fill-opacity:1;" d="M 31.6875 15.75 C 32.183594 15.75 32.675781 15.75 33.1875 15.75 C 33.226562 15.964844 33.265625 16.179688 33.304688 16.398438 C 33.355469 16.679688 33.40625 16.960938 33.457031 17.238281 C 33.480469 17.378906 33.507812 17.523438 33.535156 17.667969 C 33.609375 18.359375 33.609375 18.359375 33.9375 18.9375 C 34.125 18.320312 34.308594 17.699219 34.5 17.0625 C 34.871094 17.0625 35.242188 17.0625 35.625 17.0625 C 35.8125 17.621094 35.996094 18.175781 36.1875 18.75 C 36.25 18.75 36.3125 18.75 36.375 18.75 C 36.5625 17.761719 36.746094 16.769531 36.9375 15.75 C 37.433594 15.75 37.925781 15.75 38.4375 15.75 C 38.308594 16.601562 38.179688 17.453125 38.046875 18.304688 C 38.003906 18.59375 37.960938 18.882812 37.914062 19.171875 C 37.851562 19.589844 37.785156 20.003906 37.722656 20.417969 C 37.703125 20.550781 37.683594 20.679688 37.664062 20.8125 C 37.519531 21.730469 37.519531 21.730469 37.3125 21.9375 C 36.9375 21.945312 36.5625 21.945312 36.1875 21.9375 C 35.742188 21.007812 35.355469 20.164062 35.25 19.125 C 35.125 19.125 35.003906 19.125 34.875 19.125 C 34.84375 19.289062 34.84375 19.289062 34.8125 19.453125 C 34.628906 20.363281 34.398438 21.121094 33.9375 21.9375 C 33.566406 21.9375 33.195312 21.9375 32.8125 21.9375 C 32.402344 20.683594 32.230469 19.40625 32.039062 18.105469 C 31.988281 17.765625 31.988281 17.765625 31.933594 17.417969 C 31.851562 16.863281 31.769531 16.308594 31.6875 15.75 Z M 31.6875 15.75 "/>
<path style=" stroke:none;fill-rule:nonzero;fill:rgb(16.862746%,18.82353%,17.254902%);fill-opacity:1;" d="M 16.875 15.75 C 17.371094 15.75 17.863281 15.75 18.375 15.75 C 18.414062 15.980469 18.453125 16.207031 18.492188 16.441406 C 18.542969 16.738281 18.59375 17.035156 18.644531 17.332031 C 18.667969 17.484375 18.695312 17.632812 18.722656 17.789062 C 18.789062 18.515625 18.789062 18.515625 19.125 19.125 C 19.164062 18.992188 19.203125 18.859375 19.242188 18.722656 C 19.292969 18.550781 19.34375 18.375 19.394531 18.199219 C 19.445312 18.027344 19.496094 17.855469 19.546875 17.679688 C 19.6875 17.25 19.6875 17.25 19.875 17.0625 C 20.1875 17.054688 20.5 17.054688 20.8125 17.0625 C 20.90625 17.300781 21 17.539062 21.09375 17.777344 C 21.144531 17.910156 21.199219 18.042969 21.25 18.179688 C 21.375 18.5625 21.375 18.5625 21.375 19.125 C 21.5 19.125 21.621094 19.125 21.75 19.125 C 21.765625 18.902344 21.765625 18.902344 21.785156 18.671875 C 21.941406 16.699219 21.941406 16.699219 22.125 15.75 C 22.621094 15.75 23.113281 15.75 23.625 15.75 C 22.808594 21.628906 22.808594 21.628906 22.5 21.9375 C 22.125 21.945312 21.75 21.945312 21.375 21.9375 C 21.324219 21.808594 21.277344 21.683594 21.226562 21.554688 C 21.15625 21.386719 21.09375 21.21875 21.023438 21.046875 C 20.957031 20.882812 20.894531 20.71875 20.824219 20.546875 C 20.652344 20.125 20.453125 19.71875 20.25 19.3125 C 19.941406 20.179688 19.632812 21.046875 19.3125 21.9375 C 18.878906 21.9375 18.445312 21.9375 18 21.9375 C 17.53125 19.886719 17.1875 17.828125 16.875 15.75 Z M 16.875 15.75 "/>
<path style=" stroke:none;fill-rule:nonzero;fill:rgb(16.470589%,18.82353%,17.254902%);fill-opacity:1;" d="M 24.375 15.75 C 24.808594 15.75 25.242188 15.75 25.6875 15.75 C 25.933594 16.925781 26.183594 18.101562 26.4375 19.3125 C 26.527344 18.976562 26.617188 18.640625 26.707031 18.292969 C 26.976562 17.273438 26.976562 17.273438 27.1875 17.0625 C 27.496094 17.0625 27.804688 17.0625 28.125 17.0625 C 28.371094 17.679688 28.621094 18.300781 28.875 18.9375 C 28.929688 18.691406 28.984375 18.441406 29.039062 18.1875 C 29.21875 17.371094 29.417969 16.558594 29.625 15.75 C 30.058594 15.75 30.492188 15.75 30.9375 15.75 C 30.851562 17.851562 30.417969 19.882812 30 21.9375 C 29.566406 21.9375 29.132812 21.9375 28.6875 21.9375 C 28.378906 21.070312 28.070312 20.203125 27.75 19.3125 C 27.164062 20.617188 27.164062 20.617188 26.625 21.9375 C 26.253906 21.9375 25.882812 21.9375 25.5 21.9375 C 25.230469 21.308594 25.046875 20.71875 24.925781 20.046875 C 24.890625 19.867188 24.859375 19.6875 24.824219 19.503906 C 24.777344 19.230469 24.777344 19.230469 24.726562 18.949219 C 24.691406 18.765625 24.65625 18.582031 24.621094 18.394531 C 24.464844 17.503906 24.328125 16.660156 24.375 15.75 Z M 24.375 15.75 "/>
<path style=" stroke:none;fill-rule:nonzero;fill:rgb(7.843138%,14.901961%,14.509805%);fill-opacity:1;" d="M 22.511719 5.390625 C 22.671875 5.390625 22.832031 5.390625 22.996094 5.390625 C 23.164062 5.390625 23.328125 5.390625 23.503906 5.390625 C 24.058594 5.390625 24.617188 5.390625 25.171875 5.394531 C 25.558594 5.394531 25.941406 5.394531 26.328125 5.394531 C 27.136719 5.394531 27.945312 5.394531 28.753906 5.398438 C 29.789062 5.402344 30.828125 5.402344 31.867188 5.402344 C 32.660156 5.402344 33.457031 5.402344 34.253906 5.40625 C 34.636719 5.40625 35.019531 5.40625 35.402344 5.40625 C 35.9375 5.40625 36.472656 5.40625 37.003906 5.410156 C 37.164062 5.410156 37.324219 5.410156 37.488281 5.410156 C 38.582031 5.417969 38.582031 5.417969 39 5.625 C 38.835938 6.351562 38.835938 6.351562 38.625 6.5625 C 38.085938 6.582031 37.558594 6.585938 37.019531 6.582031 C 36.851562 6.582031 36.683594 6.582031 36.511719 6.582031 C 35.953125 6.582031 35.390625 6.582031 34.832031 6.582031 C 34.445312 6.582031 34.058594 6.578125 33.675781 6.578125 C 32.652344 6.578125 31.636719 6.578125 30.617188 6.574219 C 29.578125 6.574219 28.535156 6.570312 27.496094 6.570312 C 25.457031 6.570312 23.414062 6.566406 21.375 6.5625 C 21.25 6.316406 21.125 6.066406 21 5.8125 C 21.492188 5.320312 21.84375 5.390625 22.511719 5.390625 Z M 22.511719 5.390625 "/>
<path style=" stroke:none;fill-rule:nonzero;fill:rgb(14.117648%,16.470589%,16.862746%);fill-opacity:1;" d="M 25.121094 29.035156 C 25.324219 29.035156 25.324219 29.035156 25.527344 29.035156 C 25.738281 29.035156 25.738281 29.035156 25.953125 29.03125 C 26.417969 29.03125 26.886719 29.03125 27.351562 29.03125 C 27.671875 29.03125 27.996094 29.03125 28.316406 29.03125 C 28.996094 29.027344 29.671875 29.027344 30.347656 29.027344 C 31.21875 29.027344 32.089844 29.027344 32.957031 29.023438 C 33.621094 29.019531 34.289062 29.019531 34.957031 29.019531 C 35.277344 29.019531 35.597656 29.019531 35.917969 29.015625 C 36.367188 29.015625 36.8125 29.015625 37.257812 29.015625 C 37.394531 29.015625 37.527344 29.015625 37.664062 29.015625 C 38.582031 29.019531 38.582031 29.019531 39 29.4375 C 39 29.625 39 29.808594 39 30 C 38.441406 30.28125 37.871094 30.210938 37.257812 30.207031 C 37.046875 30.207031 37.046875 30.207031 36.832031 30.207031 C 36.363281 30.207031 35.898438 30.207031 35.429688 30.203125 C 35.105469 30.203125 34.785156 30.203125 34.460938 30.203125 C 33.609375 30.203125 32.757812 30.203125 31.90625 30.203125 C 31.039062 30.199219 30.171875 30.199219 29.300781 30.199219 C 27.597656 30.195312 25.890625 30.191406 24.1875 30.1875 C 24.117188 29.875 24.054688 29.5625 24 29.25 C 24.316406 28.9375 24.703125 29.035156 25.121094 29.035156 Z M 25.121094 29.035156 "/>
<path style=" stroke:none;fill-rule:nonzero;fill:rgb(98.039216%,25.098041%,27.843139%);fill-opacity:1;" d="M 7.6875 16.3125 C 8.480469 16.617188 8.929688 16.90625 9.375 17.625 C 9.535156 18.515625 9.503906 19.269531 9.058594 20.0625 C 8.433594 20.605469 7.953125 20.777344 7.136719 20.882812 C 6.398438 20.792969 6.011719 20.519531 5.4375 20.0625 C 4.90625 19.265625 4.917969 18.558594 5.0625 17.625 C 5.691406 16.457031 6.417969 16.226562 7.6875 16.3125 Z M 7.6875 16.3125 "/>
<path style=" stroke:none;fill-rule:nonzero;fill:rgb(8.627451%,10.980392%,10.980392%);fill-opacity:1;" d="M 24.714844 35.976562 C 24.953125 35.976562 25.1875 35.976562 25.433594 35.980469 C 25.5625 35.980469 25.691406 35.980469 25.824219 35.980469 C 26.253906 35.980469 26.6875 35.980469 27.117188 35.980469 C 27.414062 35.980469 27.714844 35.984375 28.011719 35.984375 C 28.800781 35.984375 29.585938 35.984375 30.371094 35.988281 C 31.171875 35.988281 31.976562 35.992188 32.777344 35.992188 C 34.351562 35.992188 35.925781 35.996094 37.5 36 C 37.605469 36.363281 37.605469 36.363281 37.6875 36.75 C 37.5 36.9375 37.5 36.9375 36.972656 36.960938 C 36.617188 36.960938 36.617188 36.960938 36.257812 36.957031 C 36.125 36.957031 35.996094 36.957031 35.863281 36.957031 C 35.429688 36.957031 35 36.957031 34.570312 36.957031 C 34.269531 36.957031 33.972656 36.953125 33.675781 36.953125 C 32.886719 36.953125 32.101562 36.953125 31.316406 36.949219 C 30.515625 36.949219 29.710938 36.945312 28.910156 36.945312 C 27.335938 36.945312 25.761719 36.941406 24.1875 36.9375 C 24.082031 36.574219 24.082031 36.574219 24 36.1875 C 24.1875 36 24.1875 36 24.714844 35.976562 Z M 24.714844 35.976562 "/>
<path style=" stroke:none;fill-rule:nonzero;fill:rgb(8.627451%,10.980392%,10.980392%);fill-opacity:1;" d="M 24 32.625 C 27.527344 32.625 31.054688 32.625 34.6875 32.625 C 34.78125 32.996094 34.78125 32.996094 34.875 33.375 C 34.6875 33.5625 34.6875 33.5625 34.265625 33.585938 C 34.078125 33.585938 33.894531 33.585938 33.703125 33.582031 C 33.492188 33.582031 33.28125 33.582031 33.066406 33.582031 C 32.722656 33.582031 32.722656 33.582031 32.371094 33.582031 C 32.140625 33.582031 31.90625 33.578125 31.667969 33.578125 C 31.046875 33.578125 30.425781 33.578125 29.808594 33.574219 C 29.175781 33.574219 28.542969 33.570312 27.910156 33.570312 C 26.671875 33.570312 25.429688 33.566406 24.1875 33.5625 C 24.125 33.253906 24.0625 32.945312 24 32.625 Z M 24 32.625 "/>
<path style=" stroke:none;fill-rule:nonzero;fill:rgb(21.176471%,21.960784%,17.647059%);fill-opacity:1;" d="M 39 20.4375 C 39.4375 20.429688 39.875 20.429688 40.3125 20.4375 C 40.5 20.625 40.5 20.625 40.511719 21.292969 C 40.507812 21.507812 40.503906 21.71875 40.5 21.9375 C 40.003906 21.9375 39.511719 21.9375 39 21.9375 C 39 21.441406 39 20.949219 39 20.4375 Z M 39 20.4375 "/>
<path style=" stroke:none;fill-rule:nonzero;fill:rgb(20%,21.176471%,17.647059%);fill-opacity:1;" d="M 42.1875 20.414062 C 42.75 20.4375 42.75 20.4375 42.9375 20.625 C 42.945312 21.0625 42.945312 21.5 42.9375 21.9375 C 42.441406 21.9375 41.949219 21.9375 41.4375 21.9375 C 41.429688 21.5 41.429688 21.0625 41.4375 20.625 C 41.625 20.4375 41.625 20.4375 42.1875 20.414062 Z M 42.1875 20.414062 "/>
<path style=" stroke:none;fill-rule:nonzero;fill:rgb(7.450981%,18.82353%,18.039216%);fill-opacity:1;" d="M 14.0625 5.4375 C 14.449219 5.519531 14.449219 5.519531 14.8125 5.625 C 14.75 5.871094 14.6875 6.121094 14.625 6.375 C 14.378906 6.375 14.128906 6.375 13.875 6.375 C 13.875 5.625 13.875 5.625 14.0625 5.4375 Z M 14.0625 5.4375 "/>
<path style=" stroke:none;fill-rule:nonzero;fill:rgb(7.843138%,14.901961%,14.117648%);fill-opacity:1;" d="M 9.5625 5.4375 C 9.933594 5.53125 9.933594 5.53125 10.3125 5.625 C 10.3125 5.871094 10.3125 6.121094 10.3125 6.375 C 10.003906 6.375 9.695312 6.375 9.375 6.375 C 9.4375 6.066406 9.5 5.757812 9.5625 5.4375 Z M 9.5625 5.4375 "/>
<path style=" stroke:none;fill-rule:nonzero;fill:rgb(7.843138%,14.117648%,13.725491%);fill-opacity:1;" d="M 11.8125 5.4375 C 12.183594 5.53125 12.183594 5.53125 12.5625 5.625 C 12.5 5.871094 12.4375 6.121094 12.375 6.375 C 12.128906 6.375 11.878906 6.375 11.625 6.375 C 11.6875 6.066406 11.75 5.757812 11.8125 5.4375 Z M 11.8125 5.4375 "/>
</g>
</svg>
