<?xml version="1.0" encoding="UTF-8"?>
<svg xmlns="http://www.w3.org/2000/svg" xmlns:xlink="http://www.w3.org/1999/xlink" width="48" height="48" viewBox="0 0 48 48" version="1.1">
<g id="surface1">
<path style=" stroke:none;fill-rule:nonzero;fill:rgb(0.784314%,0.392157%,0%);fill-opacity:1;" d="M 14.625 11.25 C 15.765625 11.878906 16.65625 12.816406 17.578125 13.722656 C 17.738281 13.875 17.902344 14.027344 18.066406 14.183594 C 18.90625 15.007812 19.484375 15.667969 19.722656 16.835938 C 19.605469 18.261719 18.363281 19.257812 17.414062 20.210938 C 17.132812 20.496094 16.859375 20.78125 16.585938 21.070312 C 15.105469 22.597656 15.105469 22.597656 14.09375 22.765625 C 12.441406 22.734375 11.335938 21.136719 10.265625 20.050781 C 10.007812 19.792969 10.007812 19.792969 9.75 19.535156 C 8.488281 18.265625 8.488281 18.265625 8.0625 17.625 C 6.296875 18.085938 4.988281 18.710938 3.9375 20.25 C 3.152344 21.671875 2.953125 23.058594 3.28125 24.648438 C 3.75 26.226562 4.550781 27.175781 5.910156 28.078125 C 6.996094 28.628906 8.058594 28.746094 9.25 28.765625 C 9.394531 28.769531 9.539062 28.773438 9.6875 28.777344 C 10.140625 28.785156 10.59375 28.796875 11.050781 28.804688 C 11.359375 28.8125 11.671875 28.820312 11.980469 28.828125 C 12.738281 28.84375 13.496094 28.859375 14.25 28.875 C 14.214844 28.726562 14.179688 28.582031 14.144531 28.429688 C 14.0625 27.9375 14.0625 27.9375 14.273438 27.585938 C 14.625 27.375 14.625 27.375 15.058594 27.363281 C 15.5625 27.5625 15.5625 27.5625 15.992188 28.125 C 16.738281 28.890625 17.566406 28.832031 18.585938 28.851562 C 18.933594 28.851562 18.933594 28.851562 19.289062 28.851562 C 19.527344 28.855469 19.761719 28.859375 20.007812 28.863281 C 20.585938 28.871094 21.167969 28.875 21.75 28.875 C 21.773438 28.761719 21.796875 28.648438 21.816406 28.53125 C 21.847656 28.378906 21.882812 28.230469 21.914062 28.074219 C 21.941406 27.925781 21.972656 27.777344 22.003906 27.625 C 22.339844 26.402344 23.15625 25.734375 24.210938 25.117188 C 25.382812 24.519531 26.859375 24.535156 28.101562 24.914062 C 29.347656 25.492188 30.183594 26.277344 30.820312 27.492188 C 30.9375 27.9375 30.9375 27.9375 30.9375 28.875 C 31.742188 28.8125 32.546875 28.75 33.375 28.6875 C 33.375 28.378906 33.375 28.070312 33.375 27.75 C 33.5 27.625 33.621094 27.503906 33.75 27.375 C 34.171875 27.375 34.171875 27.375 34.6875 27.5625 C 34.832031 27.75 34.976562 27.9375 35.128906 28.128906 C 35.699219 28.71875 36.144531 28.777344 36.957031 28.8125 C 37.402344 28.816406 37.84375 28.8125 38.285156 28.804688 C 40.808594 28.777344 42.753906 29.152344 44.625 30.9375 C 46.109375 32.53125 46.707031 34.402344 46.6875 36.5625 C 46.558594 38.53125 45.730469 40.355469 44.273438 41.707031 C 43.144531 42.535156 41.703125 43.347656 40.277344 43.324219 C 40.039062 43.320312 39.804688 43.316406 39.5625 43.3125 C 39.496094 43.46875 39.496094 43.46875 39.425781 43.632812 C 39.132812 44.160156 38.773438 44.523438 38.34375 44.949219 C 38.09375 45.199219 38.09375 45.199219 37.839844 45.453125 C 37.664062 45.625 37.492188 45.796875 37.3125 45.972656 C 37.136719 46.144531 36.964844 46.320312 36.785156 46.5 C 35.246094 48.027344 35.246094 48.027344 34.195312 48.09375 C 34.042969 48.105469 33.890625 48.121094 33.730469 48.136719 C 32.855469 47.917969 32.324219 47.304688 31.6875 46.6875 C 31.554688 46.5625 31.425781 46.433594 31.289062 46.304688 C 30.890625 45.917969 30.496094 45.523438 30.105469 45.128906 C 29.902344 44.929688 29.902344 44.929688 29.695312 44.722656 C 29.570312 44.59375 29.441406 44.464844 29.308594 44.335938 C 29.195312 44.21875 29.078125 44.105469 28.960938 43.984375 C 28.6875 43.6875 28.6875 43.6875 28.5 43.3125 C 27.324219 43.25 26.148438 43.1875 24.9375 43.125 C 25 43.496094 25.0625 43.867188 25.125 44.25 C 24.75 44.625 24.75 44.625 24.316406 44.695312 C 23.636719 44.601562 23.390625 44.332031 22.910156 43.851562 C 22.761719 43.707031 22.613281 43.5625 22.460938 43.414062 C 22.039062 42.816406 22 42.53125 22.125 41.8125 C 22.460938 41.335938 22.460938 41.335938 22.910156 40.898438 C 23.054688 40.75 23.203125 40.605469 23.351562 40.453125 C 23.878906 40.078125 24.117188 40.019531 24.75 40.125 C 24.875 40.25 24.996094 40.371094 25.125 40.5 C 25.054688 41.085938 25.054688 41.085938 24.9375 41.625 C 25.503906 41.632812 26.070312 41.632812 26.636719 41.625 C 26.796875 41.628906 26.953125 41.632812 27.117188 41.636719 C 27.8125 41.621094 28.308594 41.59375 28.855469 41.148438 C 29.195312 40.757812 29.503906 40.351562 29.8125 39.9375 C 30.292969 39.402344 30.796875 38.882812 31.300781 38.367188 C 31.425781 38.234375 31.550781 38.101562 31.679688 37.964844 C 32.515625 37.109375 33.101562 36.664062 34.3125 36.5625 C 35.636719 36.851562 36.472656 37.867188 37.398438 38.808594 C 37.664062 39.082031 37.9375 39.355469 38.210938 39.625 C 39.65625 41.082031 39.65625 41.082031 39.75 41.8125 C 41.769531 41.21875 43.082031 40.6875 44.207031 38.859375 C 44.929688 37.535156 45.046875 36.023438 44.691406 34.566406 C 44.132812 33.015625 43.257812 31.902344 41.789062 31.136719 C 40.523438 30.539062 39.277344 30.5 37.898438 30.46875 C 37.625 30.453125 37.625 30.453125 37.347656 30.4375 C 36.3125 30.410156 36.3125 30.410156 35.410156 30.859375 C 35.058594 31.214844 35.058594 31.214844 34.765625 31.59375 C 34.679688 31.6875 34.589844 31.78125 34.5 31.875 C 33.960938 31.875 33.960938 31.875 33.5625 31.6875 C 33.5 31.625 33.4375 31.5625 33.375 31.5 C 33.375 31.191406 33.375 30.882812 33.375 30.5625 C 32.167969 30.46875 32.167969 30.46875 30.9375 30.375 C 30.871094 30.625 30.804688 30.878906 30.738281 31.136719 C 30.324219 32.371094 29.570312 33.054688 28.488281 33.738281 C 27.105469 34.234375 25.421875 34.15625 24.09375 33.5625 C 23.222656 33.054688 22.570312 32.40625 22.125 31.5 C 22.058594 31.125 21.992188 30.75 21.9375 30.375 C 21.089844 30.367188 20.242188 30.375 19.394531 30.386719 C 19.15625 30.382812 18.914062 30.382812 18.667969 30.378906 C 17.125 30.386719 17.125 30.386719 15.894531 31.222656 C 15.804688 31.34375 15.714844 31.460938 15.621094 31.585938 C 15.375 31.875 15.375 31.875 14.824219 31.957031 C 14.695312 31.929688 14.570312 31.902344 14.4375 31.875 C 14.238281 31.429688 14.238281 31.429688 14.0625 30.9375 C 14.125 30.8125 14.1875 30.691406 14.25 30.5625 C 14.039062 30.5625 13.828125 30.5625 13.613281 30.5625 C 12.828125 30.558594 12.039062 30.546875 11.25 30.535156 C 10.910156 30.527344 10.570312 30.527344 10.230469 30.523438 C 7.460938 30.515625 5.300781 30.234375 3.226562 28.222656 C 1.785156 26.574219 1.242188 24.773438 1.324219 22.617188 C 1.542969 20.519531 2.378906 18.851562 3.9375 17.4375 C 5.074219 16.523438 6.453125 15.988281 7.910156 15.902344 C 8.625 15.695312 8.875 15.308594 9.339844 14.738281 C 9.859375 14.117188 10.421875 13.546875 10.992188 12.972656 C 11.097656 12.867188 11.199219 12.761719 11.304688 12.652344 C 12.261719 11.691406 13.179688 10.917969 14.625 11.25 Z M 14.625 11.25 "/>
<path style=" stroke:none;fill-rule:nonzero;fill:rgb(0%,0%,0.392157%);fill-opacity:1;" d="M 24.832031 0.28125 C 26.175781 1.097656 26.761719 2.070312 27.1875 3.5625 C 29.230469 3.5 31.269531 3.4375 33.375 3.375 C 33.375 3.003906 33.375 2.632812 33.375 2.25 C 33.5625 2.0625 33.5625 2.0625 34.054688 1.96875 C 34.792969 2.078125 34.800781 2.160156 35.230469 2.71875 C 35.847656 3.359375 36.269531 3.472656 37.15625 3.511719 C 37.59375 3.511719 38.035156 3.503906 38.472656 3.492188 C 40.675781 3.441406 42.636719 3.71875 44.320312 5.273438 C 45.929688 6.835938 46.652344 8.640625 46.699219 10.863281 C 46.621094 12.796875 45.972656 14.585938 44.609375 15.984375 C 43.484375 17.011719 42.515625 17.480469 41.039062 17.789062 C 39.933594 18.03125 39.273438 18.269531 38.609375 19.207031 C 38.097656 19.890625 37.503906 20.472656 36.902344 21.070312 C 36.789062 21.1875 36.675781 21.300781 36.554688 21.421875 C 36.449219 21.53125 36.339844 21.640625 36.226562 21.753906 C 36.128906 21.851562 36.03125 21.949219 35.929688 22.050781 C 35.25 22.628906 34.675781 22.734375 33.785156 22.773438 C 32.4375 22.492188 31.4375 21.175781 30.515625 20.238281 C 30.363281 20.085938 30.210938 19.933594 30.050781 19.777344 C 28.925781 18.640625 28.925781 18.640625 28.5 18 C 28.046875 17.921875 28.046875 17.921875 27.519531 17.945312 C 27.324219 17.949219 27.132812 17.949219 26.933594 17.953125 C 26.730469 17.953125 26.527344 17.960938 26.320312 17.964844 C 26.117188 17.96875 25.910156 17.96875 25.703125 17.972656 C 25.199219 17.980469 24.691406 17.988281 24.1875 18 C 24.125 18.371094 24.0625 18.742188 24 19.125 C 23.578125 19.257812 23.578125 19.257812 23.0625 19.3125 C 22.65625 19.058594 22.65625 19.058594 22.277344 18.691406 C 22.152344 18.570312 22.023438 18.453125 21.894531 18.328125 C 21.1875 17.625 21.1875 17.625 21.117188 17.097656 C 21.207031 16.34375 21.433594 16.109375 21.972656 15.585938 C 22.191406 15.367188 22.191406 15.367188 22.414062 15.140625 C 22.941406 14.765625 23.179688 14.707031 23.8125 14.8125 C 24.1875 15.1875 24.1875 15.1875 24.1875 15.9375 C 25.671875 16 27.15625 16.0625 28.6875 16.125 C 28.8125 15.878906 28.933594 15.628906 29.0625 15.375 C 29.574219 14.773438 30.125 14.210938 30.679688 13.644531 C 30.859375 13.464844 31.035156 13.277344 31.210938 13.09375 C 32.847656 11.351562 32.847656 11.351562 33.902344 11.175781 C 35.554688 11.199219 36.660156 12.796875 37.734375 13.886719 C 37.992188 14.144531 37.992188 14.144531 38.25 14.402344 C 39.507812 15.671875 39.507812 15.671875 39.9375 16.3125 C 41.648438 15.914062 43.089844 15.214844 44.0625 13.6875 C 44.890625 12.105469 45.097656 10.585938 44.589844 8.859375 C 44 7.335938 43.085938 6.371094 41.625 5.625 C 40.457031 5.191406 39.316406 5.160156 38.074219 5.144531 C 37.878906 5.136719 37.679688 5.125 37.480469 5.117188 C 36.394531 5.101562 35.78125 5.167969 34.96875 5.925781 C 34.859375 6.046875 34.746094 6.171875 34.632812 6.296875 C 34.527344 6.382812 34.421875 6.472656 34.3125 6.5625 C 33.90625 6.519531 33.667969 6.480469 33.375 6.1875 C 33.375 5.878906 33.375 5.570312 33.375 5.25 C 31.332031 5.1875 29.289062 5.125 27.1875 5.0625 C 27.125 5.558594 27.0625 6.050781 27 6.5625 C 26.449219 7.710938 25.496094 8.441406 24.375 9 C 23.199219 9.390625 21.695312 9.417969 20.554688 8.894531 C 19.425781 8.214844 18.480469 7.324219 18.082031 6.042969 C 17.746094 4.324219 18.007812 2.921875 18.949219 1.464844 C 20.414062 -0.117188 22.851562 -0.578125 24.832031 0.28125 Z M 24.832031 0.28125 "/>
<path style=" stroke:none;fill-rule:nonzero;fill:rgb(0%,80.784315%,97.647059%);fill-opacity:1;" d="M 4.382812 38.195312 C 4.574219 38.195312 4.574219 38.195312 4.769531 38.195312 C 5.171875 38.199219 5.574219 38.207031 5.976562 38.214844 C 6.25 38.21875 6.527344 38.21875 6.800781 38.222656 C 7.472656 38.230469 8.144531 38.238281 8.8125 38.25 C 8.9375 38.496094 9.058594 38.746094 9.1875 39 C 9.621094 39 10.054688 39 10.5 39 C 10.625 38.75 10.746094 38.503906 10.875 38.25 C 11.894531 38.234375 12.917969 38.226562 13.9375 38.21875 C 14.285156 38.214844 14.632812 38.210938 14.980469 38.207031 C 15.476562 38.199219 15.976562 38.195312 16.480469 38.195312 C 16.710938 38.191406 16.710938 38.191406 16.945312 38.1875 C 17.871094 38.1875 18.527344 38.273438 19.3125 38.8125 C 20.15625 39.855469 19.964844 41.085938 19.957031 42.363281 C 19.960938 42.597656 19.964844 42.835938 19.96875 43.082031 C 19.96875 45.015625 19.96875 45.015625 19.554688 45.703125 C 18.710938 46.53125 17.835938 46.554688 16.703125 46.550781 C 16.480469 46.554688 16.480469 46.554688 16.257812 46.554688 C 15.773438 46.558594 15.289062 46.558594 14.804688 46.554688 C 14.46875 46.558594 14.132812 46.558594 13.796875 46.558594 C 13.089844 46.558594 12.386719 46.558594 11.679688 46.558594 C 10.773438 46.558594 9.875 46.5625 8.96875 46.566406 C 8.273438 46.570312 7.578125 46.570312 6.882812 46.570312 C 6.550781 46.570312 6.21875 46.570312 5.882812 46.570312 C 5.417969 46.574219 4.953125 46.574219 4.488281 46.570312 C 4.347656 46.570312 4.210938 46.574219 4.070312 46.574219 C 3.0625 46.5625 2.5 46.296875 1.734375 45.667969 C 1.046875 44.808594 1.269531 43.445312 1.265625 42.410156 C 1.261719 42.210938 1.257812 42.007812 1.253906 41.800781 C 1.25 40.671875 1.257812 39.78125 1.875 38.8125 C 2.730469 38.277344 3.378906 38.183594 4.382812 38.195312 Z M 4.382812 38.195312 "/>
<path style=" stroke:none;fill-rule:nonzero;fill:rgb(1.176471%,0.784314%,0%);fill-opacity:1;" d="M 4.171875 -0.0351562 C 4.3125 -0.0351562 4.453125 -0.03125 4.59375 -0.0273438 C 4.9375 -0.0195312 5.28125 -0.0117188 5.625 0 C 5.6875 0.1875 5.75 0.371094 5.8125 0.5625 C 6.25 0.515625 6.691406 0.449219 7.125 0.375 C 7.1875 0.25 7.25 0.128906 7.3125 0 C 9.367188 -0.148438 9.367188 -0.148438 10.160156 0.445312 C 10.894531 1.511719 10.699219 2.46875 10.6875 3.75 C 11.617188 3.75 12.542969 3.75 13.5 3.75 C 13.40625 3.378906 13.40625 3.378906 13.3125 3 C 13.675781 2.578125 13.675781 2.578125 14.0625 2.25 C 15.023438 2.511719 15.726562 3.152344 16.3125 3.9375 C 16.484375 4.402344 16.484375 4.402344 16.5 4.875 C 16.246094 5.28125 16.246094 5.28125 15.878906 5.660156 C 15.757812 5.785156 15.640625 5.914062 15.515625 6.042969 C 14.8125 6.75 14.8125 6.75 14.226562 6.773438 C 14.050781 6.765625 13.871094 6.757812 13.6875 6.75 C 13.488281 6.304688 13.488281 6.304688 13.3125 5.8125 C 13.375 5.6875 13.4375 5.566406 13.5 5.4375 C 12.570312 5.4375 11.644531 5.4375 10.6875 5.4375 C 10.714844 6.007812 10.714844 6.007812 10.746094 6.585938 C 10.75 7.972656 10.75 7.972656 10.242188 8.578125 C 9.464844 9.246094 8.886719 9.222656 7.894531 9.234375 C 7.675781 9.234375 7.675781 9.234375 7.449219 9.238281 C 7.136719 9.238281 6.824219 9.242188 6.515625 9.242188 C 6.039062 9.246094 5.5625 9.253906 5.089844 9.261719 C 4.785156 9.265625 4.484375 9.265625 4.179688 9.265625 C 4.039062 9.269531 3.894531 9.273438 3.75 9.277344 C 3.082031 9.273438 2.664062 9.210938 2.082031 8.867188 C 1.066406 7.761719 1.25 6.417969 1.253906 5.007812 C 1.253906 4.605469 1.25 4.207031 1.246094 3.808594 C 1.246094 3.550781 1.246094 3.292969 1.246094 3.035156 C 1.242188 2.804688 1.242188 2.574219 1.242188 2.335938 C 1.335938 1.476562 1.613281 0.855469 2.1875 0.210938 C 2.835938 -0.101562 3.46875 -0.0585938 4.171875 -0.0351562 Z M 4.171875 -0.0351562 "/>
<path style=" stroke:none;fill-rule:nonzero;fill:rgb(0%,0%,0%);fill-opacity:1;" d="M 4.382812 38.195312 C 4.574219 38.195312 4.574219 38.195312 4.769531 38.195312 C 5.171875 38.199219 5.574219 38.207031 5.976562 38.214844 C 6.25 38.21875 6.527344 38.21875 6.800781 38.222656 C 7.472656 38.230469 8.144531 38.238281 8.8125 38.25 C 9.023438 38.578125 9.023438 38.578125 9.1875 39 C 9.023438 39.421875 9.023438 39.421875 8.8125 39.75 C 8.644531 39.753906 8.472656 39.757812 8.296875 39.765625 C 7.671875 39.78125 7.046875 39.800781 6.417969 39.820312 C 6.148438 39.828125 5.875 39.835938 5.605469 39.84375 C 5.214844 39.855469 4.824219 39.867188 4.4375 39.878906 C 4.203125 39.882812 3.96875 39.890625 3.726562 39.898438 C 3.207031 39.875 3.207031 39.875 3 40.125 C 2.980469 40.457031 2.976562 40.789062 2.976562 41.121094 C 2.976562 41.324219 2.976562 41.523438 2.976562 41.730469 C 2.976562 41.945312 2.976562 42.15625 2.976562 42.375 C 2.976562 42.585938 2.976562 42.800781 2.976562 43.015625 C 2.976562 43.320312 2.976562 43.320312 2.976562 43.628906 C 2.976562 43.8125 2.976562 44 2.976562 44.191406 C 2.949219 44.617188 2.949219 44.617188 3.1875 44.8125 C 3.648438 44.832031 4.105469 44.839844 4.566406 44.835938 C 4.710938 44.835938 4.855469 44.839844 5.003906 44.839844 C 5.480469 44.839844 5.960938 44.839844 6.441406 44.839844 C 6.769531 44.839844 7.101562 44.839844 7.433594 44.839844 C 8.128906 44.839844 8.824219 44.839844 9.519531 44.835938 C 10.414062 44.835938 11.308594 44.835938 12.199219 44.839844 C 12.882812 44.839844 13.570312 44.839844 14.253906 44.839844 C 14.582031 44.839844 14.914062 44.839844 15.242188 44.839844 C 15.703125 44.839844 16.160156 44.839844 16.621094 44.835938 C 16.828125 44.839844 16.828125 44.839844 17.039062 44.839844 C 17.664062 44.890625 17.664062 44.890625 18.1875 44.625 C 18.207031 44.292969 18.210938 43.960938 18.214844 43.628906 C 18.214844 43.429688 18.214844 43.226562 18.214844 43.015625 C 18.214844 42.804688 18.210938 42.59375 18.210938 42.375 C 18.210938 42.164062 18.214844 41.949219 18.214844 41.730469 C 18.214844 41.53125 18.214844 41.328125 18.214844 41.121094 C 18.210938 40.839844 18.210938 40.839844 18.210938 40.554688 C 18.234375 40.132812 18.234375 40.132812 18 39.9375 C 17.476562 39.914062 16.957031 39.898438 16.4375 39.890625 C 16.113281 39.882812 15.789062 39.878906 15.46875 39.875 C 14.957031 39.863281 14.449219 39.855469 13.9375 39.847656 C 13.445312 39.839844 12.957031 39.828125 12.464844 39.820312 C 12.3125 39.820312 12.15625 39.820312 12 39.816406 C 10.917969 39.792969 10.917969 39.792969 10.5 39.375 C 10.605469 38.519531 10.605469 38.519531 10.875 38.25 C 11.402344 38.226562 11.925781 38.214844 12.453125 38.210938 C 12.691406 38.210938 12.691406 38.210938 12.9375 38.207031 C 13.273438 38.207031 13.613281 38.207031 13.953125 38.203125 C 14.46875 38.203125 14.984375 38.195312 15.5 38.191406 C 15.828125 38.1875 16.15625 38.1875 16.484375 38.1875 C 16.714844 38.1875 16.714844 38.1875 16.949219 38.183594 C 17.871094 38.1875 18.527344 38.277344 19.3125 38.8125 C 20.15625 39.855469 19.964844 41.085938 19.957031 42.363281 C 19.960938 42.597656 19.964844 42.835938 19.96875 43.082031 C 19.96875 45.015625 19.96875 45.015625 19.554688 45.703125 C 18.710938 46.53125 17.835938 46.554688 16.703125 46.550781 C 16.480469 46.554688 16.480469 46.554688 16.257812 46.554688 C 15.773438 46.558594 15.289062 46.558594 14.804688 46.554688 C 14.46875 46.558594 14.132812 46.558594 13.796875 46.558594 C 13.089844 46.558594 12.386719 46.558594 11.679688 46.558594 C 10.773438 46.558594 9.875 46.5625 8.96875 46.566406 C 8.273438 46.570312 7.578125 46.570312 6.882812 46.570312 C 6.550781 46.570312 6.21875 46.570312 5.882812 46.570312 C 5.417969 46.574219 4.953125 46.574219 4.488281 46.570312 C 4.347656 46.570312 4.210938 46.574219 4.070312 46.574219 C 3.0625 46.5625 2.5 46.296875 1.734375 45.667969 C 1.046875 44.808594 1.269531 43.445312 1.265625 42.410156 C 1.261719 42.210938 1.257812 42.007812 1.253906 41.800781 C 1.25 40.671875 1.257812 39.78125 1.875 38.8125 C 2.730469 38.277344 3.378906 38.183594 4.382812 38.195312 Z M 4.382812 38.195312 "/>
<path style=" stroke:none;fill-rule:nonzero;fill:rgb(98.039216%,80.392158%,34.901962%);fill-opacity:1;" d="M 5.8125 0.5625 C 6.308594 0.5625 6.800781 0.5625 7.3125 0.5625 C 7.347656 0.683594 7.382812 0.800781 7.417969 0.925781 C 7.675781 1.390625 7.675781 1.390625 8.355469 1.441406 C 8.570312 1.460938 8.78125 1.480469 9 1.5 C 9.359375 1.859375 9.210938 2.496094 9.210938 2.96875 C 9.210938 3.097656 9.210938 3.226562 9.214844 3.359375 C 9.214844 3.632812 9.210938 3.902344 9.210938 4.175781 C 9.210938 4.59375 9.210938 5.011719 9.214844 5.425781 C 9.214844 5.691406 9.210938 5.953125 9.210938 6.21875 C 9.210938 6.457031 9.210938 6.699219 9.210938 6.949219 C 9.1875 7.5 9.1875 7.5 9 7.6875 C 8.175781 7.730469 7.347656 7.722656 6.523438 7.722656 C 6.109375 7.722656 5.691406 7.726562 5.277344 7.730469 C 5.015625 7.730469 4.75 7.730469 4.488281 7.730469 C 4.25 7.730469 4.007812 7.734375 3.761719 7.734375 C 3.1875 7.6875 3.1875 7.6875 2.8125 7.3125 C 2.765625 6.753906 2.765625 6.753906 2.769531 6.050781 C 2.769531 5.929688 2.769531 5.804688 2.769531 5.675781 C 2.769531 5.414062 2.769531 5.152344 2.773438 4.890625 C 2.777344 4.488281 2.777344 4.085938 2.777344 3.683594 C 2.785156 1.714844 2.785156 1.714844 3 1.5 C 3.371094 1.460938 3.742188 1.429688 4.113281 1.40625 C 4.898438 1.371094 4.898438 1.371094 5.625 1.125 C 5.6875 0.9375 5.75 0.753906 5.8125 0.5625 Z M 5.8125 0.5625 "/>
<path style=" stroke:none;fill-rule:nonzero;fill:rgb(98.823529%,49.803922%,52.549022%);fill-opacity:1;" d="M 34.222656 12.746094 C 35.171875 13.132812 35.820312 13.957031 36.527344 14.671875 C 36.691406 14.832031 36.859375 14.996094 37.03125 15.160156 C 37.1875 15.316406 37.34375 15.472656 37.503906 15.636719 C 37.648438 15.78125 37.789062 15.921875 37.9375 16.070312 C 38.25 16.5 38.25 16.5 38.347656 16.964844 C 38.136719 17.988281 37.148438 18.675781 36.433594 19.382812 C 36.175781 19.648438 36.175781 19.648438 35.917969 19.917969 C 35.75 20.082031 35.582031 20.246094 35.410156 20.417969 C 35.261719 20.570312 35.109375 20.722656 34.949219 20.878906 C 34.5 21.1875 34.5 21.1875 34.027344 21.1875 C 33.078125 20.804688 32.429688 19.984375 31.722656 19.265625 C 31.558594 19.105469 31.390625 18.941406 31.222656 18.777344 C 31.0625 18.621094 30.90625 18.464844 30.746094 18.300781 C 30.53125 18.089844 30.53125 18.089844 30.3125 17.867188 C 30 17.4375 30 17.4375 29.90625 16.972656 C 30.109375 15.949219 31.097656 15.261719 31.816406 14.554688 C 31.988281 14.378906 32.160156 14.203125 32.335938 14.019531 C 32.5 13.855469 32.667969 13.6875 32.835938 13.519531 C 32.988281 13.367188 33.144531 13.214844 33.296875 13.058594 C 33.75 12.75 33.75 12.75 34.222656 12.746094 Z M 34.222656 12.746094 "/>
<path style=" stroke:none;fill-rule:nonzero;fill:rgb(58.039218%,84.313726%,47.450981%);fill-opacity:1;" d="M 13.972656 12.746094 C 14.921875 13.132812 15.570312 13.957031 16.277344 14.671875 C 16.441406 14.832031 16.609375 14.996094 16.78125 15.160156 C 16.9375 15.316406 17.09375 15.472656 17.253906 15.636719 C 17.398438 15.78125 17.539062 15.921875 17.6875 16.070312 C 18 16.5 18 16.5 18.097656 16.964844 C 17.886719 17.988281 16.898438 18.675781 16.183594 19.382812 C 15.925781 19.648438 15.925781 19.648438 15.667969 19.917969 C 15.5 20.082031 15.332031 20.246094 15.160156 20.417969 C 15.011719 20.570312 14.859375 20.722656 14.699219 20.878906 C 14.25 21.1875 14.25 21.1875 13.777344 21.1875 C 12.828125 20.804688 12.179688 19.984375 11.472656 19.265625 C 11.308594 19.105469 11.140625 18.941406 10.972656 18.777344 C 10.8125 18.621094 10.65625 18.464844 10.496094 18.300781 C 10.28125 18.089844 10.28125 18.089844 10.0625 17.867188 C 9.75 17.4375 9.75 17.4375 9.65625 16.972656 C 9.859375 15.949219 10.847656 15.261719 11.566406 14.554688 C 11.738281 14.378906 11.910156 14.203125 12.085938 14.019531 C 12.25 13.855469 12.417969 13.6875 12.585938 13.519531 C 12.738281 13.367188 12.894531 13.214844 13.046875 13.058594 C 13.5 12.75 13.5 12.75 13.972656 12.746094 Z M 13.972656 12.746094 "/>
<path style=" stroke:none;fill-rule:nonzero;fill:rgb(98.823529%,49.803922%,52.549022%);fill-opacity:1;" d="M 34.21875 38.25 C 35.171875 38.632812 35.828125 39.453125 36.539062 40.171875 C 36.707031 40.332031 36.871094 40.496094 37.046875 40.660156 C 37.203125 40.816406 37.359375 40.976562 37.523438 41.136719 C 37.738281 41.351562 37.738281 41.351562 37.957031 41.570312 C 38.25 42 38.25 42 38.25 42.46875 C 37.867188 43.421875 37.046875 44.074219 36.328125 44.789062 C 36.167969 44.957031 36.003906 45.125 35.839844 45.296875 C 35.605469 45.53125 35.605469 45.53125 35.363281 45.769531 C 35.148438 45.988281 35.148438 45.988281 34.929688 46.210938 C 34.5 46.5 34.5 46.5 34.03125 46.5 C 33.078125 46.121094 32.421875 45.296875 31.710938 44.578125 C 31.542969 44.417969 31.378906 44.257812 31.203125 44.089844 C 31.046875 43.933594 30.890625 43.777344 30.730469 43.613281 C 30.585938 43.46875 30.441406 43.328125 30.292969 43.179688 C 30 42.75 30 42.75 30 42.28125 C 30.382812 41.328125 31.203125 40.671875 31.921875 39.960938 C 32.082031 39.792969 32.242188 39.625 32.410156 39.453125 C 32.644531 39.21875 32.644531 39.21875 32.886719 38.976562 C 33.027344 38.832031 33.171875 38.6875 33.320312 38.542969 C 33.75 38.25 33.75 38.25 34.21875 38.25 Z M 34.21875 38.25 "/>
<path style=" stroke:none;fill-rule:nonzero;fill:rgb(98.431373%,80.392158%,34.901962%);fill-opacity:1;" d="M 27.773438 26.378906 C 28.585938 26.796875 29.070312 27.300781 29.4375 28.125 C 29.574219 29.148438 29.617188 30.183594 29.144531 31.125 C 28.472656 31.949219 27.914062 32.359375 26.871094 32.507812 C 25.757812 32.554688 25.042969 32.460938 24.1875 31.6875 C 23.339844 30.722656 23.160156 30.128906 23.171875 28.855469 C 23.328125 27.773438 24.007812 27.148438 24.785156 26.4375 C 25.746094 26.097656 26.796875 26.0625 27.773438 26.378906 Z M 27.773438 26.378906 "/>
<path style=" stroke:none;fill-rule:nonzero;fill:rgb(0%,80.784315%,97.254902%);fill-opacity:1;" d="M 24.027344 1.628906 C 24.828125 2.046875 25.292969 2.570312 25.6875 3.375 C 25.914062 4.234375 25.921875 4.890625 25.6875 5.753906 C 25.136719 6.667969 24.460938 7.347656 23.4375 7.6875 C 22.410156 7.832031 21.601562 7.8125 20.730469 7.207031 C 19.953125 6.535156 19.585938 5.863281 19.441406 4.832031 C 19.386719 3.8125 19.570312 3.230469 20.25 2.4375 C 21.378906 1.445312 22.546875 1.15625 24.027344 1.628906 Z M 24.027344 1.628906 "/>
<path style=" stroke:none;fill-rule:nonzero;fill:rgb(0%,70.980394%,92.156863%);fill-opacity:1;" d="M 11.0625 39.75 C 12.042969 39.742188 13.027344 39.734375 14.007812 39.730469 C 14.339844 39.726562 14.671875 39.726562 15.007812 39.722656 C 15.488281 39.714844 15.964844 39.714844 16.445312 39.710938 C 16.671875 39.710938 16.671875 39.710938 16.898438 39.707031 C 17.265625 39.707031 17.632812 39.726562 18 39.75 C 18.488281 40.238281 18.421875 40.453125 18.425781 41.132812 C 18.425781 41.433594 18.425781 41.433594 18.425781 41.738281 C 18.425781 41.949219 18.421875 42.160156 18.421875 42.375 C 18.421875 42.691406 18.421875 42.691406 18.425781 43.011719 C 18.425781 43.210938 18.425781 43.410156 18.425781 43.617188 C 18.421875 43.800781 18.421875 43.984375 18.421875 44.175781 C 18.375 44.625 18.375 44.625 18 45 C 17.527344 45.039062 17.074219 45.050781 16.601562 45.046875 C 16.460938 45.046875 16.316406 45.050781 16.167969 45.050781 C 15.691406 45.050781 15.214844 45.050781 14.734375 45.050781 C 14.40625 45.050781 14.074219 45.050781 13.742188 45.050781 C 13.050781 45.050781 12.359375 45.050781 11.664062 45.046875 C 10.773438 45.046875 9.882812 45.046875 8.992188 45.050781 C 8.308594 45.050781 7.628906 45.050781 6.941406 45.050781 C 6.613281 45.050781 6.285156 45.050781 5.957031 45.050781 C 5.5 45.050781 5.042969 45.050781 4.585938 45.046875 C 4.449219 45.046875 4.3125 45.050781 4.171875 45.050781 C 3.230469 45.042969 3.230469 45.042969 2.8125 44.625 C 2.769531 44.167969 2.769531 44.167969 2.773438 43.601562 C 2.777344 43.402344 2.777344 43.199219 2.777344 42.992188 C 2.78125 42.78125 2.785156 42.570312 2.789062 42.351562 C 2.789062 42.140625 2.792969 41.925781 2.792969 41.707031 C 2.800781 41.179688 2.804688 40.652344 2.8125 40.125 C 2.875 40.125 2.9375 40.125 3 40.125 C 3 41.363281 3 42.601562 3 43.875 C 4.601562 43.867188 6.199219 43.855469 7.800781 43.839844 C 8.542969 43.832031 9.289062 43.828125 10.03125 43.824219 C 10.75 43.820312 11.464844 43.816406 12.183594 43.804688 C 12.457031 43.804688 12.730469 43.800781 13.003906 43.800781 C 13.386719 43.800781 13.769531 43.796875 14.15625 43.789062 C 14.371094 43.789062 14.589844 43.785156 14.8125 43.785156 C 15.496094 43.667969 15.71875 43.488281 16.125 42.9375 C 16.210938 42.394531 16.253906 41.933594 16.265625 41.390625 C 16.28125 40.910156 16.296875 40.429688 16.3125 39.9375 C 14.578125 39.9375 12.847656 39.9375 11.0625 39.9375 C 11.0625 39.875 11.0625 39.8125 11.0625 39.75 Z M 11.0625 39.75 "/>
<path style=" stroke:none;fill-rule:nonzero;fill:rgb(95.686275%,38.431373%,42.352942%);fill-opacity:1;" d="M 34.21875 12.75 C 35.167969 13.128906 35.816406 13.953125 36.527344 14.671875 C 36.695312 14.832031 36.859375 14.992188 37.03125 15.160156 C 37.183594 15.316406 37.34375 15.472656 37.503906 15.636719 C 37.644531 15.78125 37.789062 15.921875 37.9375 16.070312 C 38.25 16.5 38.25 16.5 38.34375 16.964844 C 38.140625 17.988281 37.152344 18.675781 36.433594 19.382812 C 36.175781 19.648438 36.175781 19.648438 35.914062 19.914062 C 35.75 20.082031 35.582031 20.246094 35.410156 20.417969 C 35.257812 20.570312 35.109375 20.722656 34.949219 20.878906 C 34.5 21.1875 34.5 21.1875 33.992188 21.160156 C 33.300781 20.902344 33.058594 20.457031 32.625 19.875 C 32.710938 19.800781 32.796875 19.726562 32.886719 19.652344 C 33.660156 18.992188 34.414062 18.3125 35.15625 17.613281 C 35.316406 17.464844 35.476562 17.316406 35.640625 17.160156 C 36.042969 16.707031 36.042969 16.707031 36.089844 16.117188 C 35.988281 15.484375 35.839844 15.25 35.402344 14.789062 C 35.292969 14.667969 35.179688 14.546875 35.066406 14.425781 C 34.648438 14.027344 34.199219 13.671875 33.75 13.3125 C 32.574219 14.488281 31.398438 15.664062 30.1875 16.875 C 30.1875 15.839844 31.214844 15.183594 31.910156 14.484375 C 32.070312 14.316406 32.234375 14.148438 32.402344 13.972656 C 32.558594 13.8125 32.71875 13.65625 32.878906 13.492188 C 33.023438 13.34375 33.167969 13.199219 33.316406 13.046875 C 33.75 12.75 33.75 12.75 34.21875 12.75 Z M 34.21875 12.75 "/>
<path style=" stroke:none;fill-rule:nonzero;fill:rgb(49.019608%,80.000001%,36.862746%);fill-opacity:1;" d="M 13.5 12.75 C 14.765625 12.890625 15.421875 13.804688 16.277344 14.671875 C 16.445312 14.832031 16.609375 14.996094 16.78125 15.160156 C 16.933594 15.316406 17.09375 15.472656 17.253906 15.636719 C 17.394531 15.777344 17.539062 15.921875 17.6875 16.070312 C 18 16.5 18 16.5 18.09375 16.964844 C 17.890625 17.988281 16.902344 18.675781 16.183594 19.382812 C 16.011719 19.558594 15.84375 19.734375 15.664062 19.917969 C 15.5 20.082031 15.332031 20.25 15.160156 20.417969 C 15.007812 20.570312 14.859375 20.722656 14.699219 20.878906 C 14.25 21.1875 14.25 21.1875 13.742188 21.15625 C 13.050781 20.90625 12.808594 20.457031 12.375 19.875 C 12.460938 19.800781 12.546875 19.730469 12.636719 19.652344 C 13.054688 19.296875 13.464844 18.929688 13.875 18.5625 C 14.046875 18.410156 14.214844 18.261719 14.390625 18.101562 C 14.648438 17.867188 14.648438 17.867188 14.90625 17.625 C 15.066406 17.480469 15.226562 17.332031 15.390625 17.179688 C 15.867188 16.523438 15.875 16.167969 15.75 15.375 C 15.414062 14.847656 15.414062 14.847656 14.941406 14.402344 C 14.421875 13.871094 13.929688 13.359375 13.5 12.75 Z M 13.5 12.75 "/>
<path style=" stroke:none;fill-rule:nonzero;fill:rgb(99.215686%,38.82353%,43.137255%);fill-opacity:1;" d="M 33.75 38.25 C 35.015625 38.390625 35.679688 39.304688 36.539062 40.171875 C 36.707031 40.332031 36.875 40.496094 37.046875 40.660156 C 37.203125 40.816406 37.359375 40.972656 37.523438 41.136719 C 37.738281 41.351562 37.738281 41.351562 37.960938 41.570312 C 38.25 42 38.25 42 38.25 42.46875 C 37.871094 43.421875 37.046875 44.074219 36.328125 44.789062 C 36.167969 44.957031 36.003906 45.125 35.839844 45.296875 C 35.605469 45.53125 35.605469 45.53125 35.363281 45.773438 C 35.148438 45.988281 35.148438 45.988281 34.929688 46.210938 C 34.5 46.5 34.5 46.5 34.003906 46.480469 C 33.40625 46.253906 33.171875 45.890625 32.8125 45.375 C 32.902344 45.285156 32.992188 45.195312 33.085938 45.105469 C 33.492188 44.703125 33.894531 44.300781 34.300781 43.898438 C 34.441406 43.757812 34.585938 43.617188 34.730469 43.472656 C 34.929688 43.273438 34.929688 43.273438 35.136719 43.070312 C 35.324219 42.882812 35.324219 42.882812 35.515625 42.695312 C 35.890625 42.292969 35.992188 42.046875 36.09375 41.507812 C 35.953125 40.546875 35.34375 40.058594 34.6875 39.375 C 34.5 39.15625 34.316406 38.941406 34.136719 38.71875 C 33.945312 38.484375 33.945312 38.484375 33.75 38.25 Z M 33.75 38.25 "/>
<path style=" stroke:none;fill-rule:nonzero;fill:rgb(99.215686%,75.686276%,26.274511%);fill-opacity:1;" d="M 7.125 0.5625 C 7.203125 0.683594 7.28125 0.804688 7.363281 0.929688 C 7.832031 1.488281 8.296875 1.433594 9 1.5 C 9.359375 1.859375 9.210938 2.496094 9.210938 2.96875 C 9.210938 3.097656 9.210938 3.226562 9.214844 3.359375 C 9.214844 3.632812 9.210938 3.902344 9.210938 4.175781 C 9.210938 4.59375 9.210938 5.011719 9.214844 5.425781 C 9.214844 5.691406 9.210938 5.953125 9.210938 6.21875 C 9.210938 6.457031 9.210938 6.699219 9.210938 6.949219 C 9.1875 7.5 9.1875 7.5 9 7.6875 C 8.570312 7.703125 8.140625 7.707031 7.710938 7.707031 C 7.515625 7.707031 7.515625 7.707031 7.320312 7.703125 C 6.90625 7.703125 6.496094 7.703125 6.082031 7.699219 C 5.804688 7.699219 5.523438 7.695312 5.246094 7.695312 C 4.558594 7.695312 3.875 7.691406 3.1875 7.6875 C 3.1875 7.625 3.1875 7.5625 3.1875 7.5 C 3.523438 7.492188 3.523438 7.492188 3.863281 7.484375 C 4.160156 7.476562 4.453125 7.464844 4.746094 7.453125 C 4.894531 7.453125 5.039062 7.449219 5.191406 7.445312 C 5.335938 7.4375 5.476562 7.433594 5.625 7.425781 C 5.753906 7.421875 5.882812 7.417969 6.019531 7.414062 C 6.398438 7.335938 6.398438 7.335938 6.699219 7.015625 C 7.03125 6.390625 7.019531 5.882812 7.03125 5.175781 C 7.035156 5.042969 7.039062 4.914062 7.042969 4.777344 C 7.054688 4.355469 7.058594 3.9375 7.066406 3.515625 C 7.074219 3.230469 7.078125 2.945312 7.085938 2.660156 C 7.101562 1.960938 7.113281 1.261719 7.125 0.5625 Z M 7.125 0.5625 "/>
<path style=" stroke:none;fill-rule:nonzero;fill:rgb(0%,73.725492%,95.686275%);fill-opacity:1;" d="M 23.0625 1.5 C 23.980469 1.585938 24.476562 1.773438 25.125 2.4375 C 25.675781 3.203125 25.941406 3.867188 25.863281 4.816406 C 25.640625 6.097656 25.011719 6.742188 24 7.5 C 23.453125 7.683594 23.066406 7.726562 22.5 7.734375 C 22.335938 7.738281 22.175781 7.742188 22.007812 7.75 C 21.480469 7.675781 21.328125 7.53125 21 7.125 C 21.289062 7.039062 21.289062 7.039062 21.585938 6.949219 C 22.539062 6.527344 23.054688 5.832031 23.4375 4.875 C 23.597656 3.675781 23.574219 2.609375 23.0625 1.5 Z M 23.0625 1.5 "/>
<path style=" stroke:none;fill-rule:nonzero;fill:rgb(98.431373%,75.294119%,26.274511%);fill-opacity:1;" d="M 27 26.25 C 28.179688 26.550781 28.773438 27.125 29.4375 28.125 C 29.5625 29.128906 29.613281 30.203125 29.144531 31.125 C 28.464844 31.960938 27.90625 32.378906 26.84375 32.496094 C 26.324219 32.507812 25.828125 32.511719 25.3125 32.4375 C 25.1875 32.3125 25.066406 32.191406 24.9375 32.0625 C 25.035156 31.996094 25.136719 31.929688 25.238281 31.863281 C 26.101562 31.261719 26.894531 30.679688 27.1875 29.625 C 27.285156 28.480469 27.257812 27.375 27 26.25 Z M 27 26.25 "/>
</g>
</svg>
