<?xml version="1.0" encoding="UTF-8"?>
<svg xmlns="http://www.w3.org/2000/svg" xmlns:xlink="http://www.w3.org/1999/xlink" width="24" height="24" viewBox="0 0 24 24" version="1.1">
<g id="surface1">
<path style=" stroke:none;fill-rule:nonzero;fill:rgb(21.568628%,27.843139%,30.980393%);fill-opacity:1;" d="M 15.726562 2.695312 C 16.21875 3.15625 16.660156 3.695312 16.890625 4.335938 C 17.046875 4.632812 17.046875 4.632812 17.421875 4.675781 C 17.566406 4.6875 17.714844 4.695312 17.859375 4.699219 C 19.195312 4.800781 20.359375 5.261719 21.292969 6.257812 C 22.328125 7.5 22.621094 8.792969 22.519531 10.375 C 22.40625 11.570312 21.785156 12.609375 20.925781 13.425781 C 20.515625 13.757812 20.0625 14.015625 19.59375 14.25 C 19.59375 14.339844 19.59375 14.429688 19.59375 14.523438 C 19.589844 15.375 19.582031 16.230469 19.578125 17.082031 C 19.574219 17.519531 19.570312 17.957031 19.570312 18.394531 C 19.566406 18.820312 19.5625 19.242188 19.558594 19.664062 C 19.558594 19.828125 19.558594 19.988281 19.558594 20.148438 C 19.558594 20.375 19.554688 20.601562 19.550781 20.828125 C 19.550781 20.925781 19.550781 20.925781 19.550781 21.027344 C 19.539062 21.625 19.316406 21.9375 18.898438 22.34375 C 18.375 22.585938 17.871094 22.550781 17.300781 22.546875 C 17.175781 22.546875 17.046875 22.550781 16.917969 22.550781 C 16.570312 22.550781 16.222656 22.550781 15.875 22.550781 C 15.507812 22.550781 15.144531 22.550781 14.78125 22.550781 C 14.167969 22.550781 13.554688 22.550781 12.941406 22.546875 C 12.234375 22.546875 11.53125 22.546875 10.824219 22.550781 C 10.214844 22.550781 9.605469 22.550781 9 22.550781 C 8.636719 22.550781 8.273438 22.550781 7.910156 22.550781 C 7.570312 22.550781 7.226562 22.550781 6.886719 22.550781 C 6.703125 22.546875 6.519531 22.550781 6.332031 22.550781 C 5.300781 22.542969 5.300781 22.542969 4.875 22.125 C 4.519531 21.703125 4.445312 21.363281 4.449219 20.828125 C 4.449219 20.757812 4.445312 20.683594 4.445312 20.609375 C 4.441406 20.375 4.441406 20.140625 4.441406 19.90625 C 4.441406 19.746094 4.441406 19.582031 4.4375 19.417969 C 4.433594 18.988281 4.433594 18.5625 4.429688 18.132812 C 4.429688 17.695312 4.425781 17.257812 4.421875 16.820312 C 4.414062 15.964844 4.410156 15.105469 4.40625 14.25 C 4.320312 14.203125 4.320312 14.203125 4.230469 14.15625 C 4.15625 14.113281 4.078125 14.070312 4 14.027344 C 3.925781 13.988281 3.851562 13.945312 3.773438 13.902344 C 2.707031 13.285156 1.957031 12.226562 1.59375 11.0625 C 1.265625 9.816406 1.429688 8.351562 2.019531 7.222656 C 2.574219 6.292969 3.257812 5.652344 4.21875 5.15625 C 4.320312 5.101562 4.320312 5.101562 4.425781 5.042969 C 4.898438 4.820312 5.3125 4.765625 5.828125 4.742188 C 6.554688 4.730469 6.554688 4.730469 7.152344 4.382812 C 7.289062 4.121094 7.289062 4.121094 7.390625 3.839844 C 7.777344 2.859375 8.808594 2.226562 9.722656 1.800781 C 11.753906 0.929688 14.023438 1.265625 15.726562 2.695312 Z M 8.515625 4.054688 C 8.371094 4.269531 8.289062 4.4375 8.199219 4.675781 C 7.894531 5.464844 7.894531 5.464844 7.59375 5.71875 C 7.035156 5.894531 6.429688 5.828125 5.851562 5.8125 C 4.917969 5.816406 4.21875 6.410156 3.566406 7.011719 C 2.824219 7.785156 2.496094 8.8125 2.511719 9.867188 C 2.601562 11.011719 3.136719 11.90625 3.945312 12.695312 C 4.121094 12.84375 4.292969 12.933594 4.5 13.03125 C 4.5 12.976562 4.5 12.917969 4.5 12.859375 C 4.503906 12.273438 4.511719 11.6875 4.519531 11.097656 C 4.523438 10.878906 4.523438 10.660156 4.523438 10.441406 C 4.527344 10.128906 4.53125 9.8125 4.535156 9.496094 C 4.535156 9.398438 4.535156 9.300781 4.535156 9.203125 C 4.546875 8.652344 4.582031 8.296875 4.96875 7.875 C 5.320312 7.625 5.558594 7.558594 5.988281 7.558594 C 6.097656 7.554688 6.210938 7.554688 6.324219 7.554688 C 6.441406 7.554688 6.5625 7.554688 6.6875 7.554688 C 6.816406 7.554688 6.941406 7.554688 7.070312 7.554688 C 7.421875 7.550781 7.769531 7.550781 8.117188 7.550781 C 8.40625 7.554688 8.699219 7.550781 8.988281 7.550781 C 9.675781 7.550781 10.363281 7.550781 11.050781 7.550781 C 11.757812 7.554688 12.464844 7.550781 13.171875 7.546875 C 13.78125 7.546875 14.390625 7.546875 14.996094 7.546875 C 15.359375 7.546875 15.722656 7.546875 16.085938 7.546875 C 16.429688 7.542969 16.769531 7.542969 17.109375 7.546875 C 17.296875 7.546875 17.480469 7.546875 17.664062 7.542969 C 18.671875 7.550781 18.671875 7.550781 19.125 7.96875 C 19.515625 8.402344 19.453125 8.9375 19.453125 9.488281 C 19.457031 9.589844 19.457031 9.691406 19.460938 9.796875 C 19.464844 10.117188 19.46875 10.441406 19.472656 10.761719 C 19.472656 10.984375 19.476562 11.203125 19.480469 11.421875 C 19.488281 11.957031 19.496094 12.496094 19.5 13.03125 C 20.484375 12.378906 21.074219 11.644531 21.410156 10.488281 C 21.582031 9.429688 21.414062 8.441406 20.839844 7.519531 C 20.242188 6.699219 19.390625 6.015625 18.375 5.8125 C 18.226562 5.8125 18.082031 5.820312 17.933594 5.832031 C 16.605469 5.886719 16.605469 5.886719 16.253906 5.589844 C 16.007812 5.253906 15.871094 4.871094 15.730469 4.484375 C 15.363281 3.613281 14.417969 3.042969 13.585938 2.6875 C 11.71875 2.039062 9.8125 2.574219 8.515625 4.054688 Z M 5.53125 11.34375 C 5.53125 13.601562 5.53125 15.859375 5.53125 18.1875 C 7.355469 18.1875 9.183594 18.1875 11.0625 18.1875 C 11.1875 17.941406 11.308594 17.691406 11.4375 17.4375 C 11.929688 16.96875 12.265625 16.757812 12.945312 16.761719 C 13.109375 16.761719 13.109375 16.761719 13.273438 16.765625 C 13.386719 16.765625 13.5 16.769531 13.617188 16.769531 C 13.789062 16.769531 13.789062 16.769531 13.964844 16.773438 C 14.246094 16.773438 14.53125 16.777344 14.8125 16.78125 C 14.835938 16.84375 14.863281 16.902344 14.886719 16.964844 C 14.925781 17.027344 14.960938 17.089844 15 17.15625 C 15.285156 17.21875 15.285156 17.21875 15.609375 17.222656 C 16.207031 17.242188 16.207031 17.242188 16.40625 17.34375 C 16.425781 17.660156 16.425781 17.660156 16.40625 18 C 16.085938 18.210938 15.921875 18.222656 15.542969 18.246094 C 15.390625 18.257812 15.390625 18.257812 15.234375 18.265625 C 15.160156 18.273438 15.082031 18.277344 15 18.28125 C 15 18.558594 15 18.839844 15 19.125 C 15.117188 19.132812 15.117188 19.132812 15.234375 19.140625 C 15.390625 19.148438 15.390625 19.148438 15.542969 19.160156 C 15.644531 19.167969 15.746094 19.171875 15.851562 19.179688 C 16.125 19.21875 16.125 19.21875 16.40625 19.40625 C 16.425781 19.746094 16.425781 19.746094 16.40625 20.0625 C 16.066406 20.234375 15.65625 20.183594 15.277344 20.195312 C 15.1875 20.214844 15.09375 20.230469 15 20.25 C 14.886719 20.4375 14.886719 20.4375 14.8125 20.625 C 14.4375 20.636719 14.0625 20.644531 13.6875 20.648438 C 13.582031 20.652344 13.476562 20.65625 13.367188 20.65625 C 12.664062 20.667969 12.105469 20.609375 11.578125 20.117188 C 11.320312 19.828125 11.207031 19.582031 11.0625 19.21875 C 9.238281 19.21875 7.410156 19.21875 5.53125 19.21875 C 5.53125 19.835938 5.53125 20.457031 5.53125 21.09375 C 5.917969 21.496094 5.917969 21.496094 6.410156 21.515625 C 6.515625 21.515625 6.617188 21.519531 6.722656 21.519531 C 6.835938 21.519531 6.945312 21.519531 7.0625 21.515625 C 7.238281 21.519531 7.238281 21.519531 7.421875 21.519531 C 7.746094 21.519531 8.070312 21.519531 8.390625 21.519531 C 8.730469 21.519531 9.070312 21.519531 9.410156 21.519531 C 9.980469 21.519531 10.550781 21.519531 11.121094 21.515625 C 11.78125 21.515625 12.4375 21.515625 13.097656 21.519531 C 13.664062 21.519531 14.230469 21.519531 14.792969 21.519531 C 15.132812 21.519531 15.46875 21.519531 15.808594 21.519531 C 16.183594 21.519531 16.5625 21.519531 16.9375 21.515625 C 17.050781 21.519531 17.164062 21.519531 17.277344 21.519531 C 17.378906 21.519531 17.484375 21.515625 17.589844 21.515625 C 17.675781 21.515625 17.765625 21.515625 17.859375 21.515625 C 18.167969 21.453125 18.28125 21.34375 18.46875 21.09375 C 18.523438 20.894531 18.523438 20.894531 18.515625 20.679688 C 18.515625 20.597656 18.515625 20.511719 18.515625 20.429688 C 18.515625 20.339844 18.511719 20.25 18.511719 20.15625 C 18.511719 20.011719 18.511719 20.011719 18.511719 19.863281 C 18.511719 19.550781 18.507812 19.238281 18.503906 18.925781 C 18.503906 18.730469 18.503906 18.539062 18.503906 18.34375 C 18.503906 17.628906 18.496094 16.910156 18.492188 16.195312 C 18.484375 14.59375 18.476562 12.992188 18.46875 11.34375 C 14.199219 11.34375 9.929688 11.34375 5.53125 11.34375 Z M 5.53125 11.34375 "/>
<path style=" stroke:none;fill-rule:nonzero;fill:rgb(34.117648%,62.352943%,83.529413%);fill-opacity:1;" d="M 6.21875 8.507812 C 6.324219 8.507812 6.429688 8.507812 6.539062 8.503906 C 6.710938 8.507812 6.710938 8.507812 6.890625 8.507812 C 7.011719 8.507812 7.136719 8.507812 7.261719 8.503906 C 7.597656 8.503906 7.933594 8.503906 8.269531 8.507812 C 8.621094 8.507812 8.96875 8.507812 9.320312 8.503906 C 9.910156 8.503906 10.5 8.503906 11.089844 8.507812 C 11.773438 8.507812 12.453125 8.507812 13.136719 8.507812 C 13.722656 8.503906 14.308594 8.503906 14.890625 8.503906 C 15.242188 8.507812 15.589844 8.507812 15.941406 8.503906 C 16.332031 8.503906 16.71875 8.503906 17.109375 8.507812 C 17.226562 8.507812 17.34375 8.507812 17.464844 8.503906 C 17.566406 8.507812 17.675781 8.507812 17.78125 8.507812 C 17.875 8.507812 17.96875 8.507812 18.0625 8.507812 C 18.28125 8.53125 18.28125 8.53125 18.46875 8.71875 C 18.46875 9.246094 18.46875 9.769531 18.46875 10.3125 C 14.199219 10.3125 9.929688 10.3125 5.53125 10.3125 C 5.53125 8.507812 5.53125 8.507812 6.21875 8.507812 Z M 6.21875 8.507812 "/>
<path style=" stroke:none;fill-rule:nonzero;fill:rgb(21.176471%,27.843139%,30.980393%);fill-opacity:1;" d="M 10.21875 12.46875 C 10.757812 12.964844 10.921875 13.613281 11.136719 14.296875 C 11.195312 14.46875 11.195312 14.46875 11.253906 14.640625 C 11.566406 15.59375 11.566406 15.59375 11.53125 16.125 C 11.433594 16.308594 11.433594 16.308594 11.25 16.40625 C 10.921875 16.417969 10.921875 16.417969 10.59375 16.3125 C 10.40625 15.984375 10.3125 15.753906 10.3125 15.375 C 9.785156 15.375 9.261719 15.375 8.71875 15.375 C 8.6875 15.5625 8.65625 15.746094 8.625 15.9375 C 8.480469 16.289062 8.480469 16.289062 8.25 16.40625 C 7.96875 16.425781 7.96875 16.425781 7.6875 16.40625 C 7.5 16.21875 7.5 16.21875 7.464844 15.910156 C 7.480469 15.324219 7.699219 14.785156 7.894531 14.238281 C 7.929688 14.128906 7.964844 14.023438 8.003906 13.910156 C 8.199219 13.34375 8.375 12.886719 8.8125 12.46875 C 9.289062 12.253906 9.753906 12.214844 10.21875 12.46875 Z M 9.46875 13.40625 C 9.261719 13.71875 9.148438 13.972656 9.09375 14.34375 C 9.339844 14.34375 9.589844 14.34375 9.84375 14.34375 C 9.816406 14.203125 9.789062 14.066406 9.761719 13.925781 C 9.738281 13.8125 9.738281 13.8125 9.714844 13.695312 C 9.695312 13.628906 9.675781 13.566406 9.65625 13.5 C 9.59375 13.46875 9.53125 13.4375 9.46875 13.40625 Z M 9.46875 13.40625 "/>
<path style=" stroke:none;fill-rule:nonzero;fill:rgb(21.176471%,27.450982%,30.588236%);fill-opacity:1;" d="M 14.257812 12.464844 C 14.613281 12.660156 14.820312 12.953125 15 13.3125 C 15.046875 13.832031 15.070312 14.289062 14.847656 14.765625 C 14.285156 15.355469 14.285156 15.355469 13.796875 15.398438 C 13.539062 15.398438 13.289062 15.390625 13.03125 15.375 C 13.035156 15.492188 13.042969 15.609375 13.050781 15.730469 C 13.046875 16.097656 13.046875 16.097656 12.925781 16.3125 C 12.667969 16.449219 12.472656 16.4375 12.1875 16.40625 C 11.902344 16.121094 11.96875 15.792969 11.964844 15.410156 C 11.964844 15.332031 11.964844 15.25 11.960938 15.167969 C 11.960938 14.996094 11.960938 14.828125 11.960938 14.65625 C 11.957031 14.398438 11.953125 14.136719 11.949219 13.878906 C 11.949219 13.714844 11.949219 13.546875 11.949219 13.382812 C 11.945312 13.304688 11.945312 13.226562 11.941406 13.148438 C 11.945312 12.925781 11.945312 12.925781 12 12.5625 C 12.597656 12.050781 13.566406 12.199219 14.257812 12.464844 Z M 13.03125 13.40625 C 13.03125 13.714844 13.03125 14.023438 13.03125 14.34375 C 13.296875 14.375 13.296875 14.375 13.59375 14.34375 C 13.816406 14.167969 13.816406 14.167969 13.96875 13.96875 C 13.867188 13.664062 13.867188 13.664062 13.6875 13.40625 C 13.46875 13.402344 13.25 13.402344 13.03125 13.40625 Z M 13.03125 13.40625 "/>
<path style=" stroke:none;fill-rule:nonzero;fill:rgb(21.176471%,27.450982%,30.588236%);fill-opacity:1;" d="M 16.195312 12.351562 C 16.40625 12.46875 16.40625 12.46875 16.5 12.5625 C 16.511719 12.832031 16.515625 13.097656 16.515625 13.363281 C 16.515625 13.445312 16.515625 13.527344 16.515625 13.609375 C 16.515625 13.78125 16.519531 13.949219 16.519531 14.121094 C 16.519531 14.382812 16.519531 14.644531 16.519531 14.90625 C 16.523438 15.074219 16.523438 15.238281 16.523438 15.402344 C 16.523438 15.484375 16.523438 15.5625 16.523438 15.640625 C 16.523438 16.195312 16.523438 16.195312 16.3125 16.40625 C 15.820312 16.457031 15.820312 16.457031 15.59375 16.285156 C 15.378906 16.007812 15.425781 15.667969 15.425781 15.328125 C 15.421875 15.25 15.421875 15.171875 15.421875 15.09375 C 15.421875 14.925781 15.421875 14.761719 15.421875 14.597656 C 15.421875 14.34375 15.417969 14.09375 15.414062 13.839844 C 15.414062 13.679688 15.414062 13.519531 15.414062 13.359375 C 15.410156 13.285156 15.410156 13.207031 15.410156 13.128906 C 15.410156 12.917969 15.410156 12.917969 15.46875 12.5625 C 15.742188 12.320312 15.839844 12.253906 16.195312 12.351562 Z M 16.195312 12.351562 "/>
<path style=" stroke:none;fill-rule:nonzero;fill:rgb(33.725491%,62.352943%,83.529413%);fill-opacity:1;" d="M 13.96875 17.71875 C 13.96875 18.367188 13.96875 19.019531 13.96875 19.6875 C 12.636719 19.75 12.636719 19.75 12.300781 19.503906 C 12.03125 19.132812 11.9375 18.832031 12 18.375 C 12.445312 17.542969 13.132812 17.710938 13.96875 17.71875 Z M 13.96875 17.71875 "/>
<path style=" stroke:none;fill-rule:nonzero;fill:rgb(89.411765%,91.764706%,93.333334%);fill-opacity:1;" d="M 9.179688 8.875 C 9.46875 8.90625 9.46875 8.90625 9.648438 9.011719 C 9.75 9.1875 9.75 9.1875 9.738281 9.476562 C 9.65625 9.75 9.65625 9.75 9.375 9.9375 C 9.082031 9.914062 9.082031 9.914062 8.8125 9.84375 C 8.683594 9.585938 8.699219 9.378906 8.71875 9.09375 C 8.90625 8.90625 8.90625 8.90625 9.179688 8.875 Z M 9.179688 8.875 "/>
<path style=" stroke:none;fill-rule:nonzero;fill:rgb(89.803922%,91.764706%,93.333334%);fill-opacity:1;" d="M 7.125 8.882812 C 7.40625 8.90625 7.40625 8.90625 7.59375 9.09375 C 7.625 9.386719 7.644531 9.578125 7.480469 9.832031 C 7.25 9.976562 7.113281 9.984375 6.84375 9.9375 C 6.667969 9.777344 6.667969 9.777344 6.5625 9.5625 C 6.59375 9.140625 6.671875 8.921875 7.125 8.882812 Z M 7.125 8.882812 "/>
<path style=" stroke:none;fill-rule:nonzero;fill:rgb(90.980393%,92.54902%,93.725491%);fill-opacity:1;" d="M 11.0625 8.90625 C 11.402344 8.941406 11.402344 8.941406 11.71875 9 C 11.75 9.214844 11.78125 9.433594 11.8125 9.65625 C 11.652344 9.800781 11.652344 9.800781 11.4375 9.9375 C 11.191406 9.925781 11.191406 9.925781 10.96875 9.84375 C 10.78125 9.5625 10.78125 9.5625 10.804688 9.324219 C 10.875 9.09375 10.875 9.09375 11.0625 8.90625 Z M 11.0625 8.90625 "/>
</g>
</svg>
