<?xml version="1.0" encoding="UTF-8"?>
<svg xmlns="http://www.w3.org/2000/svg" xmlns:xlink="http://www.w3.org/1999/xlink" width="24" height="24" viewBox="0 0 24 24" version="1.1">
<g id="surface1">
<path style=" stroke:none;fill-rule:nonzero;fill:rgb(98.823529%,27.450982%,32.941177%);fill-opacity:1;" d="M 3.433594 0.640625 C 3.527344 0.640625 3.527344 0.640625 3.621094 0.636719 C 3.824219 0.636719 4.027344 0.636719 4.230469 0.632812 C 4.300781 0.632812 4.371094 0.632812 4.441406 0.632812 C 4.8125 0.632812 5.183594 0.628906 5.554688 0.628906 C 5.933594 0.628906 6.3125 0.625 6.695312 0.621094 C 6.988281 0.617188 7.28125 0.617188 7.574219 0.617188 C 7.714844 0.617188 7.855469 0.617188 7.996094 0.613281 C 8.933594 0.601562 9.660156 0.703125 10.476562 1.183594 C 11.050781 1.789062 11.355469 2.433594 11.359375 3.261719 C 11.359375 3.328125 11.363281 3.390625 11.363281 3.457031 C 11.363281 3.671875 11.367188 3.886719 11.367188 4.097656 C 11.367188 4.171875 11.367188 4.246094 11.367188 4.320312 C 11.367188 4.707031 11.371094 5.097656 11.371094 5.484375 C 11.371094 5.882812 11.375 6.28125 11.378906 6.679688 C 11.382812 6.988281 11.382812 7.296875 11.382812 7.601562 C 11.382812 7.75 11.386719 7.898438 11.386719 8.042969 C 11.398438 9.097656 11.304688 9.925781 10.566406 10.734375 C 10.039062 11.199219 9.425781 11.355469 8.738281 11.363281 C 8.671875 11.363281 8.609375 11.363281 8.542969 11.363281 C 8.332031 11.367188 8.117188 11.367188 7.902344 11.371094 C 7.832031 11.371094 7.757812 11.371094 7.683594 11.371094 C 7.296875 11.375 6.910156 11.375 6.519531 11.375 C 6.203125 11.378906 5.882812 11.378906 5.5625 11.382812 C 5.179688 11.390625 4.792969 11.390625 4.40625 11.390625 C 4.257812 11.394531 4.113281 11.394531 3.964844 11.398438 C 2.925781 11.410156 2.132812 11.289062 1.324219 10.582031 C 0.59375 9.78125 0.601562 8.746094 0.609375 7.722656 C 0.609375 7.582031 0.609375 7.441406 0.609375 7.304688 C 0.609375 7.011719 0.609375 6.722656 0.613281 6.433594 C 0.613281 6.0625 0.613281 5.691406 0.613281 5.320312 C 0.613281 5.035156 0.613281 4.746094 0.613281 4.460938 C 0.613281 4.324219 0.617188 4.1875 0.613281 4.050781 C 0.613281 2.941406 0.699219 2.132812 1.480469 1.308594 C 2.0625 0.789062 2.671875 0.644531 3.433594 0.640625 Z M 3.433594 0.640625 "/>
<path style=" stroke:none;fill-rule:nonzero;fill:rgb(99.607843%,69.411767%,15.686275%);fill-opacity:1;" d="M 15.292969 12.628906 C 15.359375 12.625 15.421875 12.625 15.488281 12.625 C 15.699219 12.621094 15.914062 12.621094 16.125 12.621094 C 16.269531 12.621094 16.421875 12.621094 16.570312 12.617188 C 16.878906 12.617188 17.1875 12.617188 17.5 12.617188 C 17.894531 12.617188 18.289062 12.613281 18.6875 12.609375 C 18.992188 12.605469 19.300781 12.605469 19.605469 12.605469 C 19.75 12.605469 19.898438 12.601562 20.042969 12.601562 C 21.035156 12.589844 21.785156 12.691406 22.574219 13.34375 C 23.113281 14.003906 23.351562 14.492188 23.359375 15.351562 C 23.359375 15.414062 23.363281 15.476562 23.363281 15.539062 C 23.363281 15.746094 23.367188 15.953125 23.367188 16.160156 C 23.367188 16.230469 23.367188 16.304688 23.367188 16.375 C 23.371094 16.753906 23.371094 17.128906 23.371094 17.503906 C 23.371094 17.890625 23.375 18.277344 23.378906 18.664062 C 23.382812 18.964844 23.382812 19.261719 23.382812 19.5625 C 23.382812 19.703125 23.382812 19.84375 23.386719 19.988281 C 23.398438 21.097656 23.261719 21.882812 22.492188 22.714844 C 21.929688 23.21875 21.304688 23.355469 20.566406 23.359375 C 20.503906 23.359375 20.441406 23.363281 20.378906 23.363281 C 20.175781 23.363281 19.972656 23.363281 19.769531 23.367188 C 19.699219 23.367188 19.628906 23.367188 19.558594 23.367188 C 19.1875 23.371094 18.816406 23.371094 18.449219 23.371094 C 18.066406 23.371094 17.6875 23.375 17.304688 23.378906 C 17.011719 23.382812 16.71875 23.382812 16.425781 23.382812 C 16.285156 23.382812 16.144531 23.382812 16.003906 23.386719 C 15.085938 23.398438 14.308594 23.339844 13.539062 22.796875 C 13.457031 22.710938 13.457031 22.710938 13.371094 22.625 C 13.316406 22.566406 13.257812 22.507812 13.199219 22.453125 C 12.613281 21.636719 12.597656 20.828125 12.601562 19.855469 C 12.597656 19.707031 12.597656 19.558594 12.597656 19.414062 C 12.597656 19.105469 12.597656 18.796875 12.597656 18.488281 C 12.597656 18.097656 12.59375 17.707031 12.589844 17.3125 C 12.589844 17.007812 12.589844 16.707031 12.589844 16.402344 C 12.589844 16.257812 12.585938 16.113281 12.585938 15.96875 C 12.574219 15.042969 12.667969 14.28125 13.21875 13.5 C 13.839844 12.886719 14.417969 12.636719 15.292969 12.628906 Z M 15.292969 12.628906 "/>
<path style=" stroke:none;fill-rule:nonzero;fill:rgb(0%,89.019608%,60.000002%);fill-opacity:1;" d="M 20.777344 1.992188 C 21.800781 2.746094 22.539062 3.804688 22.78125 5.0625 C 22.941406 6.683594 22.628906 7.980469 21.628906 9.28125 C 20.800781 10.253906 19.617188 10.742188 18.375 10.863281 C 16.910156 10.929688 15.742188 10.496094 14.625 9.5625 C 13.652344 8.667969 13.203125 7.429688 13.128906 6.136719 C 13.109375 4.785156 13.617188 3.527344 14.53125 2.53125 C 16.3125 0.976562 18.769531 0.707031 20.777344 1.992188 Z M 20.777344 1.992188 "/>
<path style=" stroke:none;fill-rule:nonzero;fill:rgb(37.254903%,71.372551%,99.607843%);fill-opacity:1;" d="M 6.96875 13.253906 C 7.710938 13.714844 8.125 14.6875 8.539062 15.433594 C 8.644531 15.621094 8.75 15.8125 8.855469 16.003906 C 8.9375 16.148438 8.9375 16.148438 9.019531 16.296875 C 9.300781 16.792969 9.585938 17.28125 9.875 17.773438 C 9.984375 17.957031 10.089844 18.144531 10.203125 18.332031 C 10.25 18.417969 10.304688 18.507812 10.355469 18.597656 C 10.554688 18.9375 10.753906 19.28125 10.953125 19.625 C 11.007812 19.722656 11.066406 19.820312 11.121094 19.921875 C 11.410156 20.449219 11.386719 20.972656 11.34375 21.5625 C 11.183594 22.070312 10.839844 22.394531 10.40625 22.6875 C 10 22.890625 9.617188 22.902344 9.171875 22.902344 C 9.058594 22.902344 9.058594 22.902344 8.945312 22.90625 C 8.695312 22.90625 8.445312 22.90625 8.195312 22.90625 C 8.023438 22.90625 7.847656 22.90625 7.671875 22.910156 C 7.308594 22.910156 6.945312 22.910156 6.578125 22.910156 C 6.113281 22.910156 5.648438 22.910156 5.179688 22.914062 C 4.820312 22.917969 4.460938 22.917969 4.101562 22.917969 C 3.929688 22.917969 3.757812 22.917969 3.585938 22.921875 C 3.34375 22.921875 3.105469 22.921875 2.863281 22.921875 C 2.792969 22.921875 2.722656 22.921875 2.652344 22.921875 C 2.050781 22.917969 1.550781 22.734375 1.121094 22.308594 C 1.054688 22.214844 1.054688 22.214844 0.992188 22.117188 C 0.921875 22.023438 0.921875 22.023438 0.855469 21.929688 C 0.589844 21.480469 0.570312 21.035156 0.65625 20.53125 C 1.023438 19.605469 1.558594 18.75 2.070312 17.894531 C 2.34375 17.441406 2.609375 16.980469 2.871094 16.519531 C 3.113281 16.101562 3.355469 15.683594 3.59375 15.269531 C 3.6875 15.105469 3.78125 14.945312 3.875 14.78125 C 4.5625 13.582031 5.472656 12.628906 6.96875 13.253906 Z M 6.96875 13.253906 "/>
<path style=" stroke:none;fill-rule:nonzero;fill:rgb(89.803922%,25.098041%,30.19608%);fill-opacity:1;" d="M 3.464844 0.628906 C 3.527344 0.628906 3.589844 0.628906 3.652344 0.628906 C 3.855469 0.625 4.054688 0.625 4.257812 0.625 C 4.402344 0.625 4.542969 0.625 4.683594 0.621094 C 4.980469 0.621094 5.277344 0.621094 5.574219 0.621094 C 5.953125 0.621094 6.328125 0.617188 6.707031 0.617188 C 7 0.613281 7.292969 0.613281 7.585938 0.613281 C 7.726562 0.613281 7.863281 0.613281 8.003906 0.609375 C 8.9375 0.601562 9.664062 0.703125 10.476562 1.183594 C 11.050781 1.789062 11.355469 2.433594 11.359375 3.261719 C 11.359375 3.328125 11.363281 3.390625 11.363281 3.457031 C 11.363281 3.671875 11.367188 3.886719 11.367188 4.101562 C 11.367188 4.171875 11.367188 4.246094 11.367188 4.320312 C 11.367188 4.710938 11.371094 5.097656 11.371094 5.484375 C 11.371094 5.882812 11.375 6.28125 11.378906 6.679688 C 11.382812 6.988281 11.382812 7.296875 11.382812 7.605469 C 11.382812 7.75 11.382812 7.898438 11.386719 8.042969 C 11.398438 9.113281 11.300781 9.921875 10.546875 10.738281 C 10.359375 10.921875 10.179688 11.050781 9.9375 11.15625 C 9.796875 11.109375 9.796875 11.109375 9.65625 11.0625 C 9.695312 10.988281 9.695312 10.988281 9.734375 10.910156 C 9.769531 10.839844 9.800781 10.773438 9.839844 10.707031 C 9.871094 10.640625 9.90625 10.570312 9.941406 10.503906 C 10.117188 10.128906 10.136719 9.832031 10.140625 9.417969 C 10.140625 9.355469 10.144531 9.296875 10.144531 9.230469 C 10.144531 9.027344 10.148438 8.824219 10.148438 8.617188 C 10.148438 8.546875 10.148438 8.480469 10.148438 8.40625 C 10.148438 8.035156 10.152344 7.664062 10.152344 7.292969 C 10.152344 6.910156 10.15625 6.53125 10.160156 6.148438 C 10.164062 5.851562 10.164062 5.558594 10.164062 5.261719 C 10.164062 5.121094 10.164062 4.980469 10.167969 4.839844 C 10.179688 3.726562 10.035156 2.953125 9.261719 2.125 C 8.730469 1.636719 8.132812 1.582031 7.441406 1.582031 C 7.378906 1.582031 7.320312 1.582031 7.257812 1.582031 C 7.058594 1.582031 6.859375 1.582031 6.660156 1.582031 C 6.519531 1.582031 6.382812 1.582031 6.242188 1.582031 C 5.953125 1.582031 5.660156 1.582031 5.367188 1.582031 C 4.996094 1.582031 4.625 1.582031 4.253906 1.582031 C 3.964844 1.582031 3.679688 1.582031 3.390625 1.582031 C 3.253906 1.582031 3.117188 1.582031 2.980469 1.582031 C 2.789062 1.582031 2.597656 1.582031 2.402344 1.582031 C 2.292969 1.582031 2.183594 1.582031 2.074219 1.582031 C 1.808594 1.59375 1.570312 1.625 1.3125 1.6875 C 1.453125 1.269531 1.78125 1.042969 2.15625 0.84375 C 2.605469 0.695312 2.996094 0.632812 3.464844 0.628906 Z M 3.464844 0.628906 "/>
<path style=" stroke:none;fill-rule:nonzero;fill:rgb(90.588236%,62.7451%,14.509805%);fill-opacity:1;" d="M 15.261719 12.636719 C 15.328125 12.636719 15.390625 12.636719 15.457031 12.636719 C 15.667969 12.632812 15.882812 12.632812 16.097656 12.628906 C 16.167969 12.628906 16.242188 12.628906 16.316406 12.628906 C 16.703125 12.625 17.089844 12.625 17.480469 12.625 C 17.796875 12.621094 18.117188 12.621094 18.4375 12.617188 C 18.824219 12.609375 19.207031 12.609375 19.59375 12.609375 C 19.742188 12.605469 19.886719 12.605469 20.035156 12.601562 C 21.03125 12.589844 21.78125 12.6875 22.574219 13.34375 C 23.113281 14.003906 23.351562 14.492188 23.359375 15.351562 C 23.359375 15.414062 23.363281 15.476562 23.363281 15.539062 C 23.363281 15.746094 23.367188 15.953125 23.367188 16.160156 C 23.367188 16.234375 23.367188 16.304688 23.367188 16.375 C 23.371094 16.753906 23.371094 17.128906 23.371094 17.503906 C 23.371094 17.890625 23.375 18.277344 23.378906 18.664062 C 23.382812 18.964844 23.382812 19.261719 23.382812 19.5625 C 23.382812 19.703125 23.382812 19.84375 23.386719 19.988281 C 23.398438 21.113281 23.253906 21.878906 22.476562 22.71875 C 22.230469 22.953125 22.003906 23.15625 21.65625 23.15625 C 21.683594 23.097656 21.707031 23.035156 21.730469 22.976562 C 21.769531 22.878906 21.804688 22.785156 21.84375 22.6875 C 21.867188 22.632812 21.890625 22.578125 21.914062 22.523438 C 22.183594 21.84375 22.167969 21.164062 22.164062 20.441406 C 22.167969 20.304688 22.167969 20.171875 22.167969 20.035156 C 22.167969 19.753906 22.167969 19.46875 22.167969 19.1875 C 22.164062 18.828125 22.167969 18.46875 22.171875 18.109375 C 22.171875 17.832031 22.171875 17.550781 22.171875 17.273438 C 22.171875 17.140625 22.171875 17.007812 22.171875 16.875 C 22.179688 15.804688 22.046875 14.921875 21.28125 14.125 C 20.503906 13.472656 19.523438 13.542969 18.566406 13.558594 C 18.414062 13.558594 18.261719 13.558594 18.113281 13.558594 C 17.714844 13.558594 17.316406 13.5625 16.917969 13.566406 C 16.511719 13.570312 16.105469 13.574219 15.699219 13.574219 C 14.902344 13.578125 14.109375 13.585938 13.3125 13.59375 C 13.464844 13.257812 13.585938 13.140625 13.917969 12.96875 C 13.988281 12.929688 14.0625 12.886719 14.136719 12.847656 C 14.527344 12.660156 14.835938 12.644531 15.261719 12.636719 Z M 15.261719 12.636719 "/>
<path style=" stroke:none;fill-rule:nonzero;fill:rgb(33.725491%,64.705884%,90.588236%);fill-opacity:1;" d="M 6.96875 13.253906 C 7.710938 13.710938 8.125 14.6875 8.539062 15.433594 C 8.644531 15.621094 8.75 15.8125 8.855469 16.003906 C 8.910156 16.097656 8.964844 16.195312 9.019531 16.296875 C 9.300781 16.792969 9.585938 17.28125 9.875 17.773438 C 9.984375 17.957031 10.089844 18.144531 10.203125 18.332031 C 10.25 18.417969 10.304688 18.507812 10.355469 18.597656 C 10.554688 18.9375 10.753906 19.28125 10.953125 19.625 C 11.007812 19.722656 11.066406 19.820312 11.121094 19.921875 C 11.410156 20.449219 11.386719 20.972656 11.34375 21.5625 C 11.183594 22.070312 10.84375 22.394531 10.40625 22.6875 C 10.132812 22.769531 10.132812 22.769531 9.9375 22.78125 C 9.96875 22.703125 10 22.625 10.03125 22.546875 C 10.277344 21.683594 10.027344 21.054688 9.617188 20.285156 C 9.46875 20.019531 9.3125 19.761719 9.160156 19.5 C 9.042969 19.300781 8.925781 19.105469 8.808594 18.90625 C 8.714844 18.753906 8.714844 18.753906 8.625 18.597656 C 8.375 18.171875 8.125 17.742188 7.882812 17.316406 C 7.597656 16.824219 7.316406 16.332031 7.03125 15.84375 C 6.992188 15.773438 6.949219 15.699219 6.90625 15.625 C 6.363281 14.640625 6.363281 14.640625 5.4375 14.0625 C 5.261719 14.042969 5.082031 14.023438 4.90625 14.007812 C 4.8125 14.003906 4.71875 13.992188 4.621094 13.984375 C 4.550781 13.980469 4.480469 13.976562 4.40625 13.96875 C 4.488281 13.863281 4.574219 13.757812 4.660156 13.652344 C 4.703125 13.59375 4.75 13.535156 4.800781 13.472656 C 5.339844 12.957031 6.308594 12.980469 6.96875 13.253906 Z M 6.96875 13.253906 "/>
<path style=" stroke:none;fill-rule:nonzero;fill:rgb(0%,80.784315%,54.509807%);fill-opacity:1;" d="M 20.546875 1.84375 C 21.613281 2.527344 22.347656 3.519531 22.714844 4.726562 C 23 6.1875 22.792969 7.539062 21.984375 8.796875 C 21.554688 9.425781 21.066406 9.804688 20.4375 10.21875 C 20.34375 10.171875 20.34375 10.171875 20.25 10.125 C 20.292969 10.074219 20.335938 10.027344 20.378906 9.976562 C 21.335938 8.8125 21.683594 7.589844 21.5625 6.09375 C 21.300781 4.816406 20.679688 3.664062 19.601562 2.898438 C 18.734375 2.375 17.976562 2.105469 16.960938 2.125 C 16.882812 2.125 16.804688 2.125 16.722656 2.125 C 16.007812 2.132812 15.394531 2.292969 14.71875 2.53125 C 14.996094 2.128906 15.296875 1.921875 15.730469 1.714844 C 15.84375 1.660156 15.953125 1.609375 16.070312 1.550781 C 17.539062 0.917969 19.164062 1.085938 20.546875 1.84375 Z M 20.546875 1.84375 "/>
</g>
</svg>
