<?xml version="1.0" encoding="UTF-8"?>
<svg xmlns="http://www.w3.org/2000/svg" xmlns:xlink="http://www.w3.org/1999/xlink" width="24" height="24" viewBox="0 0 24 24" version="1.1">
<g id="surface1">
<path style=" stroke:none;fill-rule:nonzero;fill:rgb(43.921569%,74.509805%,89.411765%);fill-opacity:1;" d="M 11.285156 5.667969 C 11.402344 5.667969 11.515625 5.667969 11.636719 5.667969 C 11.816406 5.667969 11.816406 5.667969 12 5.671875 C 12.121094 5.671875 12.242188 5.667969 12.363281 5.667969 C 12.480469 5.667969 12.597656 5.667969 12.714844 5.667969 C 12.875 5.667969 12.875 5.667969 13.035156 5.667969 C 13.371094 5.730469 13.484375 5.824219 13.6875 6.09375 C 13.703125 6.351562 13.703125 6.351562 13.679688 6.636719 C 13.679688 6.9375 13.679688 6.9375 13.78125 7.21875 C 14.15625 7.519531 14.5625 7.691406 15 7.875 C 15.09375 7.9375 15.1875 8 15.28125 8.0625 C 15.339844 8.027344 15.402344 7.988281 15.464844 7.953125 C 15.585938 7.886719 15.585938 7.886719 15.710938 7.816406 C 15.789062 7.769531 15.867188 7.726562 15.949219 7.679688 C 16.335938 7.558594 16.511719 7.605469 16.875 7.78125 C 17.082031 8.023438 17.226562 8.292969 17.375 8.574219 C 17.453125 8.714844 17.53125 8.859375 17.613281 9.003906 C 17.664062 9.101562 17.664062 9.101562 17.714844 9.199219 C 17.800781 9.355469 17.898438 9.507812 18 9.65625 C 18.074219 10.3125 18.074219 10.3125 17.796875 10.667969 C 17.53125 10.875 17.53125 10.875 17.285156 10.976562 C 17.03125 11.179688 17.023438 11.222656 16.988281 11.53125 C 16.980469 11.683594 16.980469 11.832031 16.980469 11.980469 C 16.980469 12.058594 16.980469 12.136719 16.980469 12.214844 C 16.996094 12.582031 17.011719 12.78125 17.25 13.074219 C 17.464844 13.210938 17.671875 13.308594 17.90625 13.40625 C 18.058594 13.714844 18.054688 14.011719 18 14.34375 C 17.859375 14.691406 17.675781 15 17.476562 15.316406 C 17.429688 15.402344 17.382812 15.484375 17.332031 15.574219 C 17.097656 15.960938 16.953125 16.179688 16.539062 16.382812 C 16.167969 16.410156 16.027344 16.347656 15.714844 16.148438 C 15.457031 16.003906 15.457031 16.003906 15.1875 15.9375 C 14.917969 16.03125 14.75 16.160156 14.53125 16.34375 C 14.34375 16.5 14.34375 16.5 14.015625 16.605469 C 13.753906 16.757812 13.753906 16.757812 13.738281 17.035156 C 13.726562 17.234375 13.722656 17.433594 13.722656 17.632812 C 13.675781 17.980469 13.585938 18.066406 13.3125 18.28125 C 13.035156 18.328125 13.035156 18.328125 12.714844 18.332031 C 12.597656 18.332031 12.484375 18.332031 12.363281 18.332031 C 12.246094 18.332031 12.125 18.328125 12 18.328125 C 11.820312 18.328125 11.820312 18.328125 11.636719 18.332031 C 11.519531 18.332031 11.402344 18.332031 11.285156 18.332031 C 11.125 18.332031 11.125 18.332031 10.964844 18.328125 C 10.628906 18.269531 10.515625 18.175781 10.3125 17.90625 C 10.296875 17.644531 10.296875 17.644531 10.320312 17.363281 C 10.320312 17.058594 10.320312 17.058594 10.21875 16.78125 C 9.84375 16.484375 9.4375 16.308594 9 16.125 C 8.859375 16.03125 8.859375 16.03125 8.71875 15.9375 C 8.660156 15.972656 8.597656 16.007812 8.535156 16.046875 C 8.457031 16.09375 8.375 16.136719 8.289062 16.183594 C 8.210938 16.230469 8.132812 16.273438 8.050781 16.320312 C 7.664062 16.441406 7.488281 16.394531 7.125 16.21875 C 6.917969 15.976562 6.773438 15.710938 6.625 15.425781 C 6.546875 15.28125 6.46875 15.136719 6.386719 14.996094 C 6.355469 14.929688 6.320312 14.867188 6.285156 14.800781 C 6.199219 14.644531 6.101562 14.492188 6 14.34375 C 5.925781 13.6875 5.925781 13.6875 6.203125 13.332031 C 6.46875 13.125 6.46875 13.125 6.714844 13.023438 C 6.96875 12.816406 6.976562 12.777344 7.011719 12.464844 C 7.019531 12.316406 7.019531 12.167969 7.019531 12.019531 C 7.019531 11.941406 7.019531 11.863281 7.019531 11.785156 C 7.003906 11.417969 6.988281 11.21875 6.75 10.925781 C 6.535156 10.789062 6.328125 10.691406 6.09375 10.59375 C 5.941406 10.285156 5.945312 9.988281 6 9.65625 C 6.140625 9.3125 6.324219 9 6.523438 8.683594 C 6.59375 8.554688 6.59375 8.554688 6.667969 8.429688 C 6.902344 8.039062 7.046875 7.820312 7.460938 7.613281 C 7.832031 7.589844 7.972656 7.652344 8.285156 7.851562 C 8.542969 7.996094 8.542969 7.996094 8.8125 8.0625 C 9.082031 7.964844 9.25 7.839844 9.46875 7.65625 C 9.65625 7.5 9.65625 7.5 9.984375 7.394531 C 10.246094 7.242188 10.246094 7.242188 10.261719 6.964844 C 10.273438 6.765625 10.277344 6.566406 10.277344 6.367188 C 10.355469 5.773438 10.742188 5.671875 11.285156 5.667969 Z M 11.285156 5.667969 "/>
<path style=" stroke:none;fill-rule:nonzero;fill:rgb(92.941177%,74.509805%,12.54902%);fill-opacity:1;" d="M 18.972656 0.140625 C 19.070312 0.140625 19.171875 0.136719 19.277344 0.136719 C 19.4375 0.140625 19.4375 0.140625 19.601562 0.140625 C 19.769531 0.140625 19.769531 0.140625 19.941406 0.140625 C 20.175781 0.140625 20.410156 0.140625 20.644531 0.144531 C 21.003906 0.144531 21.363281 0.144531 21.726562 0.144531 C 21.953125 0.144531 22.179688 0.144531 22.410156 0.148438 C 22.515625 0.148438 22.625 0.144531 22.738281 0.144531 C 22.835938 0.148438 22.9375 0.148438 23.039062 0.148438 C 23.171875 0.152344 23.171875 0.152344 23.308594 0.152344 C 23.574219 0.195312 23.652344 0.253906 23.8125 0.46875 C 23.902344 0.738281 23.917969 0.914062 23.921875 1.195312 C 23.921875 1.285156 23.921875 1.378906 23.925781 1.46875 C 23.925781 1.566406 23.925781 1.664062 23.925781 1.765625 C 23.925781 1.867188 23.925781 1.964844 23.925781 2.070312 C 23.929688 2.28125 23.929688 2.496094 23.929688 2.707031 C 23.929688 3.035156 23.933594 3.359375 23.9375 3.683594 C 23.9375 3.890625 23.9375 4.097656 23.9375 4.304688 C 23.9375 4.402344 23.9375 4.496094 23.941406 4.597656 C 23.9375 5.449219 23.9375 5.449219 23.625 5.8125 C 23.390625 5.929688 23.230469 5.921875 22.964844 5.921875 C 22.867188 5.925781 22.769531 5.925781 22.667969 5.925781 C 22.5625 5.925781 22.457031 5.925781 22.34375 5.929688 C 22.234375 5.929688 22.128906 5.929688 22.015625 5.929688 C 21.78125 5.933594 21.550781 5.933594 21.320312 5.933594 C 20.964844 5.933594 20.613281 5.941406 20.257812 5.945312 C 20.035156 5.945312 19.808594 5.945312 19.585938 5.945312 C 19.480469 5.949219 19.375 5.949219 19.265625 5.949219 C 19.164062 5.949219 19.066406 5.949219 18.964844 5.949219 C 18.878906 5.949219 18.789062 5.949219 18.703125 5.953125 C 18.390625 5.890625 18.28125 5.785156 18.09375 5.53125 C 18.046875 5.300781 18.046875 5.300781 18.046875 5.039062 C 18.042969 4.941406 18.042969 4.84375 18.042969 4.742188 C 18.042969 4.636719 18.042969 4.53125 18.042969 4.421875 C 18.042969 4.3125 18.042969 4.203125 18.042969 4.089844 C 18.042969 3.859375 18.042969 3.628906 18.042969 3.402344 C 18.046875 3.046875 18.046875 2.695312 18.042969 2.34375 C 18.042969 2.121094 18.042969 1.894531 18.042969 1.671875 C 18.042969 1.566406 18.042969 1.460938 18.042969 1.351562 C 18.042969 1.253906 18.042969 1.15625 18.046875 1.054688 C 18.046875 0.96875 18.046875 0.882812 18.046875 0.792969 C 18.152344 0.277344 18.480469 0.140625 18.972656 0.140625 Z M 18.972656 0.140625 "/>
<path style=" stroke:none;fill-rule:nonzero;fill:rgb(97.647059%,36.078432%,23.529412%);fill-opacity:1;" d="M 19.738281 18.050781 C 19.808594 18.050781 19.878906 18.046875 19.949219 18.046875 C 20.097656 18.046875 20.242188 18.046875 20.386719 18.046875 C 20.613281 18.046875 20.835938 18.042969 21.058594 18.039062 C 21.199219 18.039062 21.34375 18.039062 21.484375 18.039062 C 21.585938 18.035156 21.585938 18.035156 21.6875 18.035156 C 22.042969 18.039062 22.203125 18.082031 22.484375 18.308594 C 22.652344 18.519531 22.796875 18.71875 22.929688 18.957031 C 22.988281 19.066406 22.988281 19.066406 23.046875 19.175781 C 23.109375 19.289062 23.109375 19.289062 23.167969 19.402344 C 23.207031 19.472656 23.25 19.546875 23.289062 19.625 C 23.367188 19.765625 23.445312 19.910156 23.519531 20.054688 C 23.609375 20.222656 23.703125 20.386719 23.800781 20.550781 C 23.933594 20.878906 23.894531 21.03125 23.8125 21.375 C 23.683594 21.640625 23.683594 21.640625 23.523438 21.914062 C 23.464844 22.015625 23.40625 22.113281 23.347656 22.214844 C 23.285156 22.316406 23.226562 22.417969 23.164062 22.523438 C 23.101562 22.625 23.039062 22.730469 22.980469 22.835938 C 22.527344 23.597656 22.527344 23.597656 22.3125 23.8125 C 22.066406 23.832031 21.832031 23.84375 21.589844 23.84375 C 21.519531 23.84375 21.445312 23.84375 21.371094 23.84375 C 21.222656 23.847656 21.070312 23.847656 20.917969 23.847656 C 20.683594 23.847656 20.453125 23.851562 20.222656 23.855469 C 20.074219 23.855469 19.925781 23.855469 19.777344 23.855469 C 19.675781 23.859375 19.675781 23.859375 19.570312 23.859375 C 19.257812 23.855469 19.070312 23.839844 18.816406 23.652344 C 18.515625 23.25 18.273438 22.816406 18.023438 22.378906 C 17.964844 22.28125 17.910156 22.1875 17.851562 22.085938 C 17.800781 21.992188 17.746094 21.898438 17.691406 21.804688 C 17.640625 21.71875 17.59375 21.636719 17.542969 21.546875 C 17.371094 21.117188 17.375 20.777344 17.554688 20.347656 C 17.605469 20.257812 17.660156 20.171875 17.714844 20.078125 C 17.773438 19.980469 17.832031 19.882812 17.890625 19.78125 C 17.953125 19.679688 18.011719 19.578125 18.078125 19.476562 C 18.136719 19.375 18.195312 19.273438 18.257812 19.167969 C 18.925781 18.050781 18.925781 18.050781 19.738281 18.050781 Z M 19.738281 18.050781 "/>
<path style=" stroke:none;fill-rule:nonzero;fill:rgb(92.156863%,92.156863%,92.156863%);fill-opacity:1;" d="M 13.59375 9.46875 C 14.238281 9.894531 14.667969 10.519531 14.90625 11.25 C 14.992188 12.117188 14.910156 12.808594 14.53125 13.59375 C 14.484375 13.757812 14.484375 13.757812 14.4375 13.925781 C 14.40625 14.003906 14.375 14.078125 14.34375 14.15625 C 14.144531 14.238281 14.144531 14.238281 13.96875 14.25 C 13.9375 14.375 13.90625 14.496094 13.875 14.625 C 12.863281 14.910156 11.71875 15.171875 10.730469 14.699219 C 10.585938 14.617188 10.449219 14.53125 10.3125 14.4375 C 10.257812 14.402344 10.203125 14.367188 10.148438 14.328125 C 9.589844 13.914062 9.277344 13.3125 9.09375 12.65625 C 8.980469 11.691406 9.089844 10.925781 9.65625 10.125 C 10.648438 8.976562 12.265625 8.691406 13.59375 9.46875 Z M 13.59375 9.46875 "/>
<path style=" stroke:none;fill-rule:nonzero;fill:rgb(92.54902%,74.117649%,12.54902%);fill-opacity:1;" d="M 4.417969 18.339844 C 4.644531 18.507812 4.683594 18.675781 4.78125 18.9375 C 5.066406 19.066406 5.066406 19.066406 5.34375 19.125 C 5.34375 19.195312 5.339844 19.269531 5.339844 19.34375 C 5.332031 19.605469 5.332031 19.605469 5.4375 19.875 C 5.625 19.945312 5.625 19.945312 5.8125 19.96875 C 6.039062 20.730469 5.988281 21.566406 5.65625 22.285156 C 5.210938 23.050781 4.605469 23.570312 3.75 23.8125 C 2.75 23.921875 1.964844 23.84375 1.125 23.25 C 0.5625 22.769531 0.171875 22.019531 0.09375 21.28125 C 0.03125 20.488281 0.257812 19.75 0.75 19.125 C 1.742188 18.027344 3.050781 17.792969 4.417969 18.339844 Z M 4.417969 18.339844 "/>
<path style=" stroke:none;fill-rule:nonzero;fill:rgb(97.647059%,36.078432%,23.921569%);fill-opacity:1;" d="M 3.28125 0.132812 C 3.632812 0.199219 3.769531 0.320312 4.03125 0.5625 C 4.207031 0.820312 4.207031 0.820312 4.371094 1.117188 C 4.417969 1.199219 4.417969 1.199219 4.464844 1.28125 C 4.5625 1.453125 4.65625 1.625 4.753906 1.796875 C 4.851562 1.976562 4.953125 2.15625 5.050781 2.335938 C 5.117188 2.453125 5.183594 2.570312 5.25 2.691406 C 5.4375 3.027344 5.632812 3.363281 5.835938 3.691406 C 5.882812 3.765625 5.925781 3.835938 5.972656 3.910156 C 6.050781 4.035156 6.128906 4.164062 6.210938 4.289062 C 6.453125 4.6875 6.546875 4.976562 6.46875 5.4375 C 6.3125 5.675781 6.242188 5.773438 6 5.90625 C 5.601562 5.972656 5.203125 5.964844 4.796875 5.957031 C 4.621094 5.957031 4.621094 5.957031 4.445312 5.957031 C 4.195312 5.957031 3.949219 5.957031 3.703125 5.953125 C 3.386719 5.945312 3.070312 5.945312 2.753906 5.945312 C 2.449219 5.945312 2.148438 5.945312 1.84375 5.941406 C 1.730469 5.941406 1.617188 5.941406 1.5 5.941406 C 1.394531 5.9375 1.289062 5.9375 1.183594 5.933594 C 1.042969 5.933594 1.042969 5.933594 0.902344 5.933594 C 0.648438 5.90625 0.492188 5.855469 0.28125 5.71875 C 0.0625 5.34375 0.0859375 5.101562 0.1875 4.6875 C 0.308594 4.453125 0.433594 4.234375 0.574219 4.007812 C 0.660156 3.867188 0.742188 3.726562 0.828125 3.589844 C 0.875 3.511719 0.921875 3.433594 0.96875 3.355469 C 1.144531 3.058594 1.3125 2.761719 1.484375 2.464844 C 1.546875 2.355469 1.609375 2.242188 1.671875 2.132812 C 1.792969 1.917969 1.914062 1.699219 2.039062 1.484375 C 2.09375 1.382812 2.152344 1.28125 2.210938 1.179688 C 2.285156 1.046875 2.285156 1.046875 2.363281 0.90625 C 2.609375 0.535156 2.828125 0.21875 3.28125 0.132812 Z M 3.28125 0.132812 "/>
<path style=" stroke:none;fill-rule:nonzero;fill:rgb(0.392157%,0.784314%,1.176471%);fill-opacity:1;" d="M 11.285156 5.667969 C 11.402344 5.667969 11.515625 5.667969 11.636719 5.667969 C 11.816406 5.667969 11.816406 5.667969 12 5.671875 C 12.121094 5.671875 12.242188 5.667969 12.363281 5.667969 C 12.480469 5.667969 12.597656 5.667969 12.714844 5.667969 C 12.875 5.667969 12.875 5.667969 13.035156 5.667969 C 13.371094 5.730469 13.484375 5.824219 13.6875 6.09375 C 13.703125 6.351562 13.703125 6.351562 13.679688 6.636719 C 13.679688 6.9375 13.679688 6.9375 13.78125 7.21875 C 14.15625 7.519531 14.5625 7.691406 15 7.875 C 15.09375 7.9375 15.1875 8 15.28125 8.0625 C 15.339844 8.027344 15.402344 7.988281 15.464844 7.953125 C 15.585938 7.886719 15.585938 7.886719 15.710938 7.816406 C 15.789062 7.769531 15.867188 7.726562 15.949219 7.679688 C 16.335938 7.558594 16.511719 7.605469 16.875 7.78125 C 17.082031 8.023438 17.226562 8.292969 17.375 8.574219 C 17.453125 8.714844 17.53125 8.859375 17.613281 9.003906 C 17.664062 9.101562 17.664062 9.101562 17.714844 9.199219 C 17.800781 9.355469 17.898438 9.507812 18 9.65625 C 18.074219 10.3125 18.074219 10.3125 17.796875 10.667969 C 17.53125 10.875 17.53125 10.875 17.285156 10.976562 C 17.03125 11.179688 17.023438 11.222656 16.988281 11.53125 C 16.980469 11.683594 16.980469 11.832031 16.980469 11.980469 C 16.980469 12.058594 16.980469 12.136719 16.980469 12.214844 C 16.996094 12.582031 17.011719 12.78125 17.25 13.074219 C 17.464844 13.210938 17.671875 13.308594 17.90625 13.40625 C 18.058594 13.714844 18.054688 14.011719 18 14.34375 C 17.859375 14.691406 17.675781 15 17.476562 15.316406 C 17.429688 15.402344 17.382812 15.484375 17.332031 15.574219 C 17.097656 15.960938 16.953125 16.179688 16.539062 16.382812 C 16.167969 16.410156 16.027344 16.347656 15.714844 16.148438 C 15.457031 16.003906 15.457031 16.003906 15.1875 15.9375 C 14.917969 16.03125 14.75 16.160156 14.53125 16.34375 C 14.34375 16.5 14.34375 16.5 14.015625 16.605469 C 13.753906 16.757812 13.753906 16.757812 13.738281 17.035156 C 13.726562 17.234375 13.722656 17.433594 13.722656 17.632812 C 13.675781 17.980469 13.585938 18.066406 13.3125 18.28125 C 13.035156 18.328125 13.035156 18.328125 12.714844 18.332031 C 12.597656 18.332031 12.484375 18.332031 12.363281 18.332031 C 12.246094 18.332031 12.125 18.328125 12 18.328125 C 11.820312 18.328125 11.820312 18.328125 11.636719 18.332031 C 11.519531 18.332031 11.402344 18.332031 11.285156 18.332031 C 11.125 18.332031 11.125 18.332031 10.964844 18.328125 C 10.628906 18.269531 10.515625 18.175781 10.3125 17.90625 C 10.296875 17.644531 10.296875 17.644531 10.320312 17.363281 C 10.320312 17.058594 10.320312 17.058594 10.21875 16.78125 C 9.84375 16.484375 9.4375 16.308594 9 16.125 C 8.859375 16.03125 8.859375 16.03125 8.71875 15.9375 C 8.660156 15.972656 8.597656 16.007812 8.535156 16.046875 C 8.457031 16.09375 8.375 16.136719 8.289062 16.183594 C 8.210938 16.230469 8.132812 16.273438 8.050781 16.320312 C 7.664062 16.441406 7.488281 16.394531 7.125 16.21875 C 6.917969 15.976562 6.773438 15.710938 6.625 15.425781 C 6.546875 15.28125 6.46875 15.136719 6.386719 14.996094 C 6.355469 14.929688 6.320312 14.867188 6.285156 14.800781 C 6.199219 14.644531 6.101562 14.492188 6 14.34375 C 5.925781 13.6875 5.925781 13.6875 6.203125 13.332031 C 6.46875 13.125 6.46875 13.125 6.714844 13.023438 C 6.96875 12.816406 6.976562 12.777344 7.011719 12.464844 C 7.019531 12.316406 7.019531 12.167969 7.019531 12.019531 C 7.019531 11.941406 7.019531 11.863281 7.019531 11.785156 C 7.003906 11.417969 6.988281 11.21875 6.75 10.925781 C 6.535156 10.789062 6.328125 10.691406 6.09375 10.59375 C 5.941406 10.285156 5.945312 9.988281 6 9.65625 C 6.140625 9.3125 6.324219 9 6.523438 8.683594 C 6.59375 8.554688 6.59375 8.554688 6.667969 8.429688 C 6.902344 8.039062 7.046875 7.820312 7.460938 7.613281 C 7.832031 7.589844 7.972656 7.652344 8.285156 7.851562 C 8.542969 7.996094 8.542969 7.996094 8.8125 8.0625 C 9.082031 7.964844 9.25 7.839844 9.46875 7.65625 C 9.65625 7.5 9.65625 7.5 9.984375 7.394531 C 10.246094 7.242188 10.246094 7.242188 10.261719 6.964844 C 10.273438 6.765625 10.277344 6.566406 10.277344 6.367188 C 10.355469 5.773438 10.742188 5.671875 11.285156 5.667969 Z M 10.78125 6.28125 C 10.785156 6.371094 10.792969 6.460938 10.796875 6.554688 C 10.8125 6.9375 10.800781 7.226562 10.6875 7.59375 C 10.371094 7.839844 10.074219 7.976562 9.703125 8.117188 C 9.382812 8.246094 9.171875 8.402344 8.90625 8.625 C 8.582031 8.625 8.308594 8.40625 8.042969 8.234375 C 7.847656 8.128906 7.847656 8.128906 7.5 8.15625 C 7.351562 8.316406 7.351562 8.316406 7.234375 8.53125 C 7.1875 8.613281 7.144531 8.691406 7.09375 8.769531 C 7.027344 8.894531 7.027344 8.894531 6.953125 9.023438 C 6.882812 9.144531 6.882812 9.144531 6.808594 9.273438 C 6.554688 9.679688 6.554688 9.679688 6.472656 10.136719 C 6.601562 10.390625 6.773438 10.433594 7.03125 10.546875 C 7.324219 10.714844 7.46875 10.800781 7.59375 11.121094 C 7.628906 11.417969 7.632812 11.695312 7.625 11.996094 C 7.621094 12.09375 7.621094 12.195312 7.617188 12.300781 C 7.589844 12.773438 7.566406 13.042969 7.265625 13.417969 C 7.003906 13.582031 6.765625 13.695312 6.46875 13.78125 C 6.515625 14.28125 6.78125 14.65625 7.039062 15.074219 C 7.082031 15.148438 7.125 15.222656 7.171875 15.300781 C 7.28125 15.480469 7.390625 15.664062 7.5 15.84375 C 7.8125 15.792969 8.035156 15.726562 8.296875 15.550781 C 8.625 15.375 8.625 15.375 8.871094 15.375 C 9.09375 15.46875 9.09375 15.46875 9.304688 15.648438 C 9.578125 15.855469 9.828125 15.949219 10.148438 16.066406 C 10.449219 16.207031 10.449219 16.207031 10.6875 16.40625 C 10.8125 16.851562 10.796875 17.261719 10.78125 17.71875 C 10.941406 17.878906 11.152344 17.824219 11.375 17.824219 C 11.472656 17.824219 11.574219 17.824219 11.679688 17.824219 C 11.785156 17.824219 11.890625 17.824219 12 17.824219 C 12.105469 17.824219 12.210938 17.824219 12.320312 17.824219 C 12.421875 17.824219 12.523438 17.824219 12.625 17.824219 C 12.71875 17.824219 12.8125 17.824219 12.910156 17.824219 C 13.121094 17.835938 13.121094 17.835938 13.21875 17.71875 C 13.214844 17.628906 13.207031 17.539062 13.203125 17.445312 C 13.1875 17.0625 13.199219 16.773438 13.3125 16.40625 C 13.628906 16.160156 13.925781 16.023438 14.296875 15.882812 C 14.617188 15.753906 14.828125 15.597656 15.09375 15.375 C 15.417969 15.375 15.691406 15.59375 15.957031 15.765625 C 16.152344 15.871094 16.152344 15.871094 16.5 15.84375 C 16.648438 15.683594 16.648438 15.683594 16.765625 15.46875 C 16.8125 15.390625 16.855469 15.308594 16.90625 15.230469 C 16.949219 15.144531 16.996094 15.0625 17.046875 14.976562 C 17.09375 14.894531 17.140625 14.8125 17.191406 14.730469 C 17.445312 14.320312 17.445312 14.320312 17.527344 13.863281 C 17.398438 13.609375 17.226562 13.566406 16.96875 13.453125 C 16.675781 13.285156 16.53125 13.203125 16.40625 12.878906 C 16.371094 12.582031 16.367188 12.304688 16.375 12.003906 C 16.378906 11.855469 16.378906 11.855469 16.382812 11.699219 C 16.410156 11.226562 16.433594 10.957031 16.734375 10.582031 C 16.996094 10.417969 17.234375 10.304688 17.53125 10.21875 C 17.484375 9.71875 17.21875 9.34375 16.960938 8.925781 C 16.894531 8.8125 16.894531 8.8125 16.828125 8.699219 C 16.71875 8.519531 16.609375 8.335938 16.5 8.15625 C 16.1875 8.207031 15.964844 8.273438 15.703125 8.449219 C 15.375 8.625 15.375 8.625 15.128906 8.625 C 14.855469 8.507812 14.667969 8.34375 14.4375 8.15625 C 14.128906 7.988281 13.816406 7.820312 13.480469 7.71875 C 13.3125 7.59375 13.3125 7.59375 13.257812 7.292969 C 13.253906 7.113281 13.253906 7.113281 13.25 6.933594 C 13.273438 6.53125 13.273438 6.53125 13.125 6.1875 C 12.960938 6.179688 12.792969 6.175781 12.625 6.175781 C 12.527344 6.175781 12.425781 6.175781 12.320312 6.175781 C 12.214844 6.175781 12.109375 6.175781 12 6.175781 C 11.894531 6.175781 11.789062 6.175781 11.679688 6.175781 C 11.578125 6.175781 11.476562 6.175781 11.375 6.175781 C 11.28125 6.175781 11.1875 6.175781 11.089844 6.175781 C 10.878906 6.164062 10.878906 6.164062 10.78125 6.28125 Z M 10.78125 6.28125 "/>
<path style=" stroke:none;fill-rule:nonzero;fill:rgb(1.568628%,1.568628%,1.568628%);fill-opacity:1;" d="M 3.140625 7.035156 C 3.4375 7.148438 3.546875 7.285156 3.738281 7.539062 C 3.800781 7.625 3.863281 7.710938 3.929688 7.796875 C 3.996094 7.886719 4.058594 7.972656 4.125 8.0625 C 4.191406 8.144531 4.253906 8.226562 4.320312 8.3125 C 4.378906 8.394531 4.4375 8.472656 4.5 8.554688 C 4.582031 8.664062 4.582031 8.664062 4.664062 8.773438 C 4.808594 9.054688 4.808594 9.25 4.78125 9.5625 C 4.6875 9.738281 4.6875 9.738281 4.5 9.84375 C 4.25 9.859375 4 9.847656 3.75 9.84375 C 3.75 9.925781 3.75 10.007812 3.75 10.09375 C 3.757812 10.871094 3.761719 11.648438 3.765625 12.429688 C 3.765625 12.828125 3.769531 13.226562 3.769531 13.628906 C 3.773438 14.015625 3.777344 14.398438 3.777344 14.785156 C 3.777344 14.933594 3.777344 15.082031 3.78125 15.226562 C 3.78125 15.433594 3.78125 15.640625 3.78125 15.847656 C 3.78125 15.964844 3.785156 16.082031 3.785156 16.203125 C 3.746094 16.523438 3.699219 16.652344 3.46875 16.875 C 3.132812 16.984375 2.972656 17 2.648438 16.851562 C 2.4375 16.6875 2.4375 16.6875 2.25 16.40625 C 2.226562 16.125 2.226562 16.125 2.230469 15.773438 C 2.226562 15.707031 2.226562 15.644531 2.226562 15.578125 C 2.230469 15.367188 2.230469 15.15625 2.230469 14.941406 C 2.230469 14.796875 2.230469 14.648438 2.234375 14.503906 C 2.234375 14.117188 2.234375 13.730469 2.238281 13.34375 C 2.238281 12.949219 2.238281 12.554688 2.242188 12.164062 C 2.242188 11.390625 2.246094 10.617188 2.25 9.84375 C 2.148438 9.847656 2.046875 9.851562 1.941406 9.855469 C 1.59375 9.84375 1.59375 9.84375 1.3125 9.65625 C 1.222656 9.453125 1.222656 9.453125 1.21875 9.1875 C 1.457031 8.722656 1.742188 8.308594 2.0625 7.898438 C 2.101562 7.84375 2.140625 7.792969 2.183594 7.738281 C 2.730469 7.027344 2.730469 7.027344 3.140625 7.035156 Z M 3.140625 7.035156 "/>
<path style=" stroke:none;fill-rule:nonzero;fill:rgb(0.784314%,0.784314%,0.784314%);fill-opacity:1;" d="M 15 1.3125 C 15.289062 1.464844 15.546875 1.652344 15.808594 1.847656 C 15.878906 1.894531 15.949219 1.945312 16.023438 1.996094 C 16.738281 2.515625 16.738281 2.515625 16.96875 2.90625 C 16.972656 3.222656 16.914062 3.335938 16.695312 3.5625 C 16.617188 3.621094 16.539062 3.679688 16.457031 3.738281 C 16.375 3.800781 16.289062 3.867188 16.203125 3.929688 C 16.117188 3.996094 16.027344 4.058594 15.9375 4.125 C 15.8125 4.21875 15.8125 4.21875 15.6875 4.320312 C 15.605469 4.378906 15.527344 4.4375 15.445312 4.5 C 15.335938 4.582031 15.335938 4.582031 15.226562 4.664062 C 14.945312 4.808594 14.75 4.808594 14.4375 4.78125 C 14.261719 4.6875 14.261719 4.6875 14.15625 4.5 C 14.140625 4.25 14.152344 4 14.15625 3.75 C 14.03125 3.75 14.03125 3.75 13.902344 3.75 C 13.113281 3.757812 12.320312 3.761719 11.53125 3.765625 C 11.125 3.765625 10.71875 3.769531 10.3125 3.773438 C 9.917969 3.773438 9.527344 3.777344 9.136719 3.777344 C 8.984375 3.777344 8.835938 3.777344 8.6875 3.78125 C 8.476562 3.78125 8.265625 3.78125 8.058594 3.78125 C 7.9375 3.78125 7.820312 3.78125 7.695312 3.785156 C 7.40625 3.75 7.40625 3.75 7.230469 3.625 C 7.066406 3.382812 7.042969 3.191406 7.03125 2.90625 C 7.144531 2.648438 7.234375 2.488281 7.472656 2.332031 C 7.761719 2.222656 8.011719 2.226562 8.324219 2.226562 C 8.386719 2.226562 8.449219 2.226562 8.515625 2.226562 C 8.722656 2.226562 8.929688 2.230469 9.140625 2.230469 C 9.285156 2.230469 9.429688 2.230469 9.574219 2.230469 C 9.953125 2.234375 10.332031 2.234375 10.710938 2.238281 C 11.101562 2.238281 11.488281 2.238281 11.875 2.242188 C 12.636719 2.242188 13.394531 2.246094 14.15625 2.25 C 14.15625 2.144531 14.152344 2.039062 14.148438 1.933594 C 14.15625 1.59375 14.15625 1.59375 14.261719 1.410156 C 14.53125 1.257812 14.691406 1.273438 15 1.3125 Z M 15 1.3125 "/>
<path style=" stroke:none;fill-rule:nonzero;fill:rgb(0.784314%,0.784314%,0.784314%);fill-opacity:1;" d="M 9.5625 19.21875 C 9.738281 19.3125 9.738281 19.3125 9.84375 19.5 C 9.859375 19.75 9.847656 20 9.84375 20.25 C 9.96875 20.25 9.96875 20.25 10.097656 20.25 C 10.886719 20.242188 11.679688 20.238281 12.46875 20.234375 C 12.875 20.234375 13.28125 20.230469 13.6875 20.226562 C 14.082031 20.226562 14.472656 20.222656 14.863281 20.222656 C 15.015625 20.222656 15.164062 20.222656 15.3125 20.21875 C 15.523438 20.21875 15.734375 20.21875 15.941406 20.21875 C 16.0625 20.21875 16.179688 20.21875 16.304688 20.214844 C 16.59375 20.25 16.59375 20.25 16.769531 20.375 C 16.933594 20.617188 16.957031 20.808594 16.96875 21.09375 C 16.855469 21.351562 16.765625 21.511719 16.527344 21.667969 C 16.238281 21.777344 15.988281 21.773438 15.675781 21.773438 C 15.582031 21.773438 15.582031 21.773438 15.484375 21.773438 C 15.277344 21.773438 15.070312 21.769531 14.859375 21.769531 C 14.714844 21.769531 14.570312 21.769531 14.425781 21.769531 C 14.046875 21.765625 13.667969 21.765625 13.289062 21.761719 C 12.898438 21.761719 12.511719 21.761719 12.125 21.757812 C 11.363281 21.757812 10.605469 21.753906 9.84375 21.75 C 9.84375 21.855469 9.847656 21.960938 9.851562 22.066406 C 9.84375 22.40625 9.84375 22.40625 9.738281 22.589844 C 9.46875 22.742188 9.308594 22.726562 9 22.6875 C 8.710938 22.535156 8.453125 22.347656 8.191406 22.152344 C 8.085938 22.078125 8.085938 22.078125 7.976562 22.003906 C 7.261719 21.484375 7.261719 21.484375 7.03125 21.09375 C 7.027344 20.777344 7.085938 20.664062 7.304688 20.4375 C 7.382812 20.378906 7.460938 20.320312 7.542969 20.261719 C 7.625 20.199219 7.710938 20.132812 7.796875 20.070312 C 7.882812 20.003906 7.972656 19.941406 8.0625 19.875 C 8.1875 19.78125 8.1875 19.78125 8.3125 19.679688 C 8.394531 19.621094 8.472656 19.5625 8.554688 19.5 C 8.664062 19.417969 8.664062 19.417969 8.773438 19.335938 C 9.054688 19.191406 9.25 19.191406 9.5625 19.21875 Z M 9.5625 19.21875 "/>
<path style=" stroke:none;fill-rule:nonzero;fill:rgb(1.176471%,1.176471%,1.176471%);fill-opacity:1;" d="M 21.375 7.125 C 21.613281 7.332031 21.734375 7.496094 21.78125 7.8125 C 21.792969 8.074219 21.792969 8.332031 21.785156 8.597656 C 21.785156 8.6875 21.785156 8.777344 21.785156 8.867188 C 21.777344 9.535156 21.777344 9.535156 21.5625 9.75 C 21.503906 9.945312 21.503906 9.945312 21.46875 10.125 C 21.609375 10.171875 21.609375 10.171875 21.75 10.21875 C 21.683594 10.515625 21.585938 10.785156 21.46875 11.0625 C 21.609375 11.109375 21.609375 11.109375 21.75 11.15625 C 21.75 12.144531 21.75 13.136719 21.75 14.15625 C 21.964844 14.15625 22.183594 14.15625 22.40625 14.15625 C 22.6875 14.34375 22.6875 14.34375 22.777344 14.550781 C 22.789062 15.121094 22.277344 15.664062 21.9375 16.101562 C 21.878906 16.179688 21.878906 16.179688 21.816406 16.261719 C 21.390625 16.8125 21.390625 16.8125 21.09375 16.96875 C 20.78125 16.964844 20.664062 16.910156 20.4375 16.695312 C 20.378906 16.617188 20.320312 16.539062 20.261719 16.457031 C 20.199219 16.375 20.132812 16.289062 20.070312 16.203125 C 20.003906 16.117188 19.941406 16.027344 19.875 15.9375 C 19.8125 15.855469 19.746094 15.773438 19.679688 15.6875 C 19.621094 15.605469 19.5625 15.527344 19.5 15.445312 C 19.445312 15.375 19.390625 15.300781 19.335938 15.226562 C 19.191406 14.945312 19.191406 14.75 19.21875 14.4375 C 19.3125 14.261719 19.3125 14.261719 19.5 14.15625 C 19.75 14.140625 20 14.152344 20.25 14.15625 C 20.25 14.03125 20.25 14.03125 20.25 13.90625 C 20.242188 13.128906 20.238281 12.351562 20.234375 11.574219 C 20.234375 11.171875 20.230469 10.773438 20.226562 10.371094 C 20.226562 9.984375 20.222656 9.601562 20.222656 9.214844 C 20.222656 9.066406 20.222656 8.917969 20.21875 8.773438 C 20.21875 8.566406 20.21875 8.359375 20.21875 8.152344 C 20.21875 7.976562 20.21875 7.976562 20.214844 7.796875 C 20.253906 7.476562 20.300781 7.347656 20.53125 7.125 C 20.871094 7.011719 21.035156 7.027344 21.375 7.125 Z M 21.375 7.125 "/>
<path style=" stroke:none;fill-rule:nonzero;fill:rgb(0.392157%,0.392157%,0%);fill-opacity:1;" d="M 18.972656 0.140625 C 19.070312 0.140625 19.171875 0.136719 19.277344 0.136719 C 19.4375 0.140625 19.4375 0.140625 19.601562 0.140625 C 19.769531 0.140625 19.769531 0.140625 19.941406 0.140625 C 20.175781 0.140625 20.410156 0.140625 20.644531 0.144531 C 21.003906 0.144531 21.363281 0.144531 21.726562 0.144531 C 21.953125 0.144531 22.179688 0.144531 22.410156 0.148438 C 22.515625 0.148438 22.625 0.144531 22.738281 0.144531 C 22.835938 0.148438 22.9375 0.148438 23.039062 0.148438 C 23.171875 0.152344 23.171875 0.152344 23.308594 0.152344 C 23.574219 0.195312 23.652344 0.253906 23.8125 0.46875 C 23.902344 0.738281 23.917969 0.914062 23.921875 1.195312 C 23.921875 1.285156 23.921875 1.378906 23.925781 1.46875 C 23.925781 1.566406 23.925781 1.664062 23.925781 1.765625 C 23.925781 1.867188 23.925781 1.964844 23.925781 2.070312 C 23.929688 2.28125 23.929688 2.496094 23.929688 2.707031 C 23.929688 3.035156 23.933594 3.359375 23.9375 3.683594 C 23.9375 3.890625 23.9375 4.097656 23.9375 4.304688 C 23.9375 4.402344 23.9375 4.496094 23.941406 4.597656 C 23.9375 5.449219 23.9375 5.449219 23.625 5.8125 C 23.390625 5.929688 23.230469 5.921875 22.964844 5.921875 C 22.867188 5.925781 22.769531 5.925781 22.667969 5.925781 C 22.5625 5.925781 22.457031 5.925781 22.34375 5.929688 C 22.234375 5.929688 22.128906 5.929688 22.015625 5.929688 C 21.78125 5.933594 21.550781 5.933594 21.320312 5.933594 C 20.964844 5.933594 20.613281 5.941406 20.257812 5.945312 C 20.035156 5.945312 19.808594 5.945312 19.585938 5.945312 C 19.480469 5.949219 19.375 5.949219 19.265625 5.949219 C 19.164062 5.949219 19.066406 5.949219 18.964844 5.949219 C 18.878906 5.949219 18.789062 5.949219 18.703125 5.953125 C 18.390625 5.890625 18.28125 5.785156 18.09375 5.53125 C 18.046875 5.300781 18.046875 5.300781 18.046875 5.039062 C 18.042969 4.941406 18.042969 4.84375 18.042969 4.742188 C 18.042969 4.636719 18.042969 4.53125 18.042969 4.421875 C 18.042969 4.3125 18.042969 4.203125 18.042969 4.089844 C 18.042969 3.859375 18.042969 3.628906 18.042969 3.402344 C 18.046875 3.046875 18.046875 2.695312 18.042969 2.34375 C 18.042969 2.121094 18.042969 1.894531 18.042969 1.671875 C 18.042969 1.566406 18.042969 1.460938 18.042969 1.351562 C 18.042969 1.253906 18.042969 1.15625 18.046875 1.054688 C 18.046875 0.96875 18.046875 0.882812 18.046875 0.792969 C 18.152344 0.277344 18.480469 0.140625 18.972656 0.140625 Z M 18.5625 0.75 C 18.554688 0.890625 18.550781 1.03125 18.550781 1.171875 C 18.550781 1.261719 18.550781 1.351562 18.550781 1.441406 C 18.550781 1.539062 18.550781 1.636719 18.550781 1.738281 C 18.550781 1.835938 18.550781 1.9375 18.550781 2.039062 C 18.550781 2.246094 18.550781 2.457031 18.550781 2.667969 C 18.550781 2.992188 18.550781 3.316406 18.550781 3.636719 C 18.550781 3.84375 18.550781 4.046875 18.550781 4.25 C 18.550781 4.347656 18.550781 4.445312 18.550781 4.542969 C 18.550781 4.636719 18.550781 4.726562 18.550781 4.816406 C 18.550781 4.894531 18.550781 4.976562 18.550781 5.058594 C 18.550781 5.257812 18.550781 5.257812 18.65625 5.4375 C 19.308594 5.441406 19.960938 5.441406 20.613281 5.441406 C 20.835938 5.441406 21.058594 5.445312 21.28125 5.445312 C 21.597656 5.445312 21.917969 5.445312 22.234375 5.445312 C 22.335938 5.445312 22.4375 5.449219 22.539062 5.449219 C 22.628906 5.449219 22.722656 5.449219 22.816406 5.449219 C 22.898438 5.449219 22.980469 5.449219 23.066406 5.449219 C 23.25 5.457031 23.25 5.457031 23.34375 5.34375 C 23.351562 5.199219 23.355469 5.058594 23.355469 4.914062 C 23.355469 4.777344 23.355469 4.777344 23.355469 4.636719 C 23.355469 4.535156 23.355469 4.4375 23.355469 4.332031 C 23.355469 4.230469 23.355469 4.128906 23.355469 4.027344 C 23.355469 3.808594 23.355469 3.59375 23.355469 3.378906 C 23.355469 3.046875 23.355469 2.71875 23.355469 2.386719 C 23.355469 2.175781 23.355469 1.96875 23.355469 1.761719 C 23.355469 1.660156 23.355469 1.5625 23.355469 1.457031 C 23.355469 1.367188 23.355469 1.273438 23.355469 1.179688 C 23.355469 1.097656 23.355469 1.019531 23.355469 0.933594 C 23.363281 0.75 23.363281 0.75 23.25 0.65625 C 23.105469 0.648438 22.960938 0.644531 22.820312 0.644531 C 22.726562 0.644531 22.636719 0.644531 22.542969 0.644531 C 22.441406 0.644531 22.34375 0.644531 22.238281 0.644531 C 22.136719 0.644531 22.035156 0.644531 21.929688 0.644531 C 21.714844 0.644531 21.5 0.644531 21.285156 0.644531 C 20.953125 0.644531 20.625 0.644531 20.292969 0.644531 C 20.085938 0.644531 19.875 0.644531 19.667969 0.644531 C 19.566406 0.644531 19.46875 0.644531 19.363281 0.644531 C 19.226562 0.644531 19.226562 0.644531 19.085938 0.644531 C 18.964844 0.644531 18.964844 0.644531 18.839844 0.644531 C 18.65625 0.636719 18.65625 0.636719 18.5625 0.75 Z M 18.5625 0.75 "/>
<path style=" stroke:none;fill-rule:nonzero;fill:rgb(3.137255%,1.176471%,0.392157%);fill-opacity:1;" d="M 3.28125 0.132812 C 3.632812 0.199219 3.769531 0.320312 4.03125 0.5625 C 4.207031 0.820312 4.207031 0.820312 4.371094 1.117188 C 4.417969 1.199219 4.417969 1.199219 4.464844 1.28125 C 4.5625 1.453125 4.65625 1.625 4.753906 1.796875 C 4.851562 1.976562 4.953125 2.15625 5.050781 2.335938 C 5.117188 2.453125 5.183594 2.570312 5.25 2.691406 C 5.4375 3.027344 5.632812 3.363281 5.835938 3.691406 C 5.882812 3.765625 5.925781 3.835938 5.972656 3.910156 C 6.050781 4.035156 6.128906 4.164062 6.210938 4.289062 C 6.453125 4.6875 6.546875 4.976562 6.46875 5.4375 C 6.3125 5.675781 6.242188 5.773438 6 5.90625 C 5.601562 5.972656 5.203125 5.964844 4.796875 5.957031 C 4.621094 5.957031 4.621094 5.957031 4.445312 5.957031 C 4.195312 5.957031 3.949219 5.957031 3.703125 5.953125 C 3.386719 5.945312 3.070312 5.945312 2.753906 5.945312 C 2.449219 5.945312 2.148438 5.945312 1.84375 5.941406 C 1.730469 5.941406 1.617188 5.941406 1.5 5.941406 C 1.394531 5.9375 1.289062 5.9375 1.183594 5.933594 C 1.042969 5.933594 1.042969 5.933594 0.902344 5.933594 C 0.648438 5.90625 0.492188 5.855469 0.28125 5.71875 C 0.0625 5.34375 0.0859375 5.101562 0.1875 4.6875 C 0.308594 4.453125 0.433594 4.234375 0.574219 4.007812 C 0.660156 3.867188 0.742188 3.726562 0.828125 3.589844 C 0.875 3.511719 0.921875 3.433594 0.96875 3.355469 C 1.144531 3.058594 1.3125 2.761719 1.484375 2.464844 C 1.546875 2.355469 1.609375 2.242188 1.671875 2.132812 C 1.792969 1.917969 1.914062 1.699219 2.039062 1.484375 C 2.09375 1.382812 2.152344 1.28125 2.210938 1.179688 C 2.285156 1.046875 2.285156 1.046875 2.363281 0.90625 C 2.609375 0.535156 2.828125 0.21875 3.28125 0.132812 Z M 3.09375 0.75 C 3.054688 0.820312 3.011719 0.890625 2.972656 0.964844 C 2.816406 1.238281 2.660156 1.507812 2.507812 1.78125 C 2.402344 1.960938 2.300781 2.144531 2.195312 2.324219 C 1.898438 2.851562 1.597656 3.375 1.28125 3.890625 C 1.238281 3.964844 1.195312 4.035156 1.148438 4.113281 C 1.070312 4.242188 0.988281 4.371094 0.90625 4.503906 C 0.785156 4.691406 0.785156 4.691406 0.65625 4.96875 C 0.6875 5.09375 0.71875 5.214844 0.75 5.34375 C 2.453125 5.34375 4.152344 5.34375 5.90625 5.34375 C 6.03125 5.070312 6.03125 5.070312 5.90625 4.839844 C 5.855469 4.753906 5.804688 4.667969 5.753906 4.578125 C 5.699219 4.480469 5.644531 4.382812 5.589844 4.285156 C 5.53125 4.183594 5.46875 4.078125 5.410156 3.972656 C 5.347656 3.867188 5.289062 3.761719 5.226562 3.652344 C 5.046875 3.34375 4.867188 3.03125 4.6875 2.71875 C 4.636719 2.632812 4.589844 2.546875 4.539062 2.457031 C 4.066406 1.558594 4.066406 1.558594 3.46875 0.75 C 3.34375 0.75 3.222656 0.75 3.09375 0.75 Z M 3.09375 0.75 "/>
<path style=" stroke:none;fill-rule:nonzero;fill:rgb(1.176471%,0.392157%,0%);fill-opacity:1;" d="M 19.738281 18.050781 C 19.808594 18.050781 19.878906 18.046875 19.949219 18.046875 C 20.097656 18.046875 20.242188 18.046875 20.386719 18.046875 C 20.613281 18.046875 20.835938 18.042969 21.058594 18.039062 C 21.199219 18.039062 21.34375 18.039062 21.484375 18.039062 C 21.585938 18.035156 21.585938 18.035156 21.6875 18.035156 C 22.042969 18.039062 22.203125 18.082031 22.484375 18.308594 C 22.652344 18.519531 22.796875 18.71875 22.929688 18.957031 C 22.988281 19.066406 22.988281 19.066406 23.046875 19.175781 C 23.109375 19.289062 23.109375 19.289062 23.167969 19.402344 C 23.207031 19.472656 23.25 19.546875 23.289062 19.625 C 23.367188 19.765625 23.445312 19.910156 23.519531 20.054688 C 23.609375 20.222656 23.703125 20.386719 23.800781 20.550781 C 23.933594 20.878906 23.894531 21.03125 23.8125 21.375 C 23.683594 21.640625 23.683594 21.640625 23.523438 21.914062 C 23.464844 22.015625 23.40625 22.113281 23.347656 22.214844 C 23.285156 22.316406 23.226562 22.417969 23.164062 22.523438 C 23.101562 22.625 23.039062 22.730469 22.980469 22.835938 C 22.527344 23.597656 22.527344 23.597656 22.3125 23.8125 C 22.066406 23.832031 21.832031 23.84375 21.589844 23.84375 C 21.519531 23.84375 21.445312 23.84375 21.371094 23.84375 C 21.222656 23.847656 21.070312 23.847656 20.917969 23.847656 C 20.683594 23.847656 20.453125 23.851562 20.222656 23.855469 C 20.074219 23.855469 19.925781 23.855469 19.777344 23.855469 C 19.675781 23.859375 19.675781 23.859375 19.570312 23.859375 C 19.257812 23.855469 19.070312 23.839844 18.816406 23.652344 C 18.515625 23.25 18.273438 22.816406 18.023438 22.378906 C 17.964844 22.28125 17.910156 22.1875 17.851562 22.085938 C 17.800781 21.992188 17.746094 21.898438 17.691406 21.804688 C 17.640625 21.71875 17.59375 21.636719 17.542969 21.546875 C 17.371094 21.117188 17.375 20.777344 17.554688 20.347656 C 17.605469 20.257812 17.660156 20.171875 17.714844 20.078125 C 17.773438 19.980469 17.832031 19.882812 17.890625 19.78125 C 17.953125 19.679688 18.011719 19.578125 18.078125 19.476562 C 18.136719 19.375 18.195312 19.273438 18.257812 19.167969 C 18.925781 18.050781 18.925781 18.050781 19.738281 18.050781 Z M 18.972656 18.941406 C 18.894531 19.09375 18.820312 19.25 18.75 19.40625 C 18.671875 19.53125 18.589844 19.660156 18.507812 19.785156 C 18.433594 19.902344 18.359375 20.019531 18.289062 20.136719 C 18.25 20.199219 18.210938 20.257812 18.171875 20.320312 C 17.960938 20.632812 17.960938 20.632812 17.929688 20.996094 C 18.003906 21.203125 18.097656 21.382812 18.203125 21.578125 C 18.246094 21.648438 18.285156 21.722656 18.328125 21.796875 C 18.371094 21.871094 18.414062 21.949219 18.457031 22.027344 C 18.5 22.101562 18.539062 22.175781 18.585938 22.253906 C 18.699219 22.460938 18.816406 22.667969 18.9375 22.875 C 18.996094 23 18.996094 23 19.054688 23.128906 C 19.203125 23.367188 19.203125 23.367188 19.488281 23.429688 C 19.847656 23.464844 20.207031 23.492188 20.566406 23.503906 C 20.628906 23.503906 20.695312 23.507812 20.761719 23.507812 C 21.316406 23.515625 21.832031 23.503906 22.28125 23.148438 C 22.796875 22.519531 23.273438 21.636719 23.34375 20.8125 C 23.246094 20.554688 23.246094 20.554688 23.089844 20.296875 C 23.007812 20.15625 23.007812 20.15625 22.921875 20.007812 C 22.863281 19.910156 22.804688 19.8125 22.746094 19.710938 C 22.6875 19.609375 22.628906 19.511719 22.570312 19.410156 C 22.335938 18.960938 22.335938 18.960938 22.03125 18.5625 C 21.652344 18.527344 21.273438 18.515625 20.894531 18.507812 C 20.765625 18.503906 20.636719 18.5 20.511719 18.492188 C 19.621094 18.421875 19.621094 18.421875 18.972656 18.941406 Z M 18.972656 18.941406 "/>
<path style=" stroke:none;fill-rule:nonzero;fill:rgb(2.745098%,3.529412%,4.313726%);fill-opacity:1;" d="M 14.089844 9.238281 C 14.734375 9.75 15.160156 10.460938 15.375 11.25 C 15.476562 12.234375 15.375 12.988281 14.90625 13.875 C 14.75 13.84375 14.597656 13.8125 14.4375 13.78125 C 14.5625 13.40625 14.6875 13.03125 14.8125 12.65625 C 14.886719 11.765625 14.851562 11.070312 14.34375 10.3125 C 14.289062 10.226562 14.230469 10.136719 14.175781 10.050781 C 13.558594 9.433594 12.839844 9.160156 11.976562 9.144531 C 11.308594 9.15625 10.863281 9.285156 10.3125 9.65625 C 10.210938 9.71875 10.113281 9.785156 10.007812 9.847656 C 9.511719 10.308594 9.230469 10.941406 9.140625 11.601562 C 9.113281 12.496094 9.277344 13.152344 9.761719 13.898438 C 10.539062 14.640625 11.25 14.832031 12.296875 14.820312 C 12.703125 14.8125 13.097656 14.773438 13.5 14.71875 C 13.5 14.84375 13.5 14.964844 13.5 15.09375 C 12.726562 15.480469 11.8125 15.5 10.972656 15.3125 C 9.882812 14.917969 9.261719 14.164062 8.730469 13.171875 C 8.445312 12.296875 8.492188 11.269531 8.902344 10.449219 C 9.355469 9.644531 9.996094 9.035156 10.875 8.71875 C 12.019531 8.433594 13.113281 8.585938 14.089844 9.238281 Z M 14.089844 9.238281 "/>
<path style=" stroke:none;fill-rule:nonzero;fill:rgb(1.176471%,0.784314%,0%);fill-opacity:1;" d="M 4.425781 18.359375 C 4.59375 18.46875 4.59375 18.46875 4.6875 18.75 C 4.625 18.8125 4.5625 18.875 4.5 18.9375 C 4.226562 18.90625 3.988281 18.828125 3.726562 18.746094 C 2.984375 18.558594 2.476562 18.617188 1.800781 18.992188 C 1.28125 19.324219 0.929688 19.753906 0.75 20.34375 C 0.652344 21.070312 0.730469 21.691406 1.125 22.3125 C 1.53125 22.792969 2.035156 23.207031 2.679688 23.277344 C 3.476562 23.300781 4.058594 23.15625 4.671875 22.632812 C 5.136719 22.144531 5.355469 21.550781 5.367188 20.882812 C 5.351562 20.542969 5.351562 20.542969 5.285156 20.261719 C 5.265625 20.164062 5.265625 20.164062 5.25 20.0625 C 5.3125 20 5.375 19.9375 5.4375 19.875 C 5.636719 19.910156 5.636719 19.910156 5.8125 19.96875 C 6.039062 20.730469 5.988281 21.566406 5.65625 22.285156 C 5.210938 23.046875 4.605469 23.570312 3.75 23.8125 C 2.75 23.921875 1.964844 23.84375 1.125 23.25 C 0.558594 22.769531 0.171875 22.019531 0.09375 21.28125 C 0.03125 20.488281 0.257812 19.75 0.75 19.125 C 1.746094 18.027344 3.066406 17.78125 4.425781 18.359375 Z M 4.425781 18.359375 "/>
<path style=" stroke:none;fill-rule:nonzero;fill:rgb(89.019608%,89.019608%,89.019608%);fill-opacity:1;" d="M 20.8125 7.59375 C 20.9375 7.625 21.058594 7.65625 21.1875 7.6875 C 21.21875 8.304688 21.25 8.925781 21.28125 9.5625 C 21.34375 9.59375 21.40625 9.625 21.46875 9.65625 C 21.46875 9.8125 21.46875 9.964844 21.46875 10.125 C 21.5625 10.15625 21.65625 10.1875 21.75 10.21875 C 21.679688 10.578125 21.542969 10.988281 21.28125 11.25 C 21.273438 11.492188 21.269531 11.734375 21.273438 11.976562 C 21.273438 12.085938 21.273438 12.085938 21.273438 12.195312 C 21.273438 12.429688 21.273438 12.664062 21.277344 12.894531 C 21.277344 13.054688 21.277344 13.210938 21.277344 13.371094 C 21.277344 13.757812 21.28125 14.144531 21.28125 14.53125 C 21.589844 14.5625 21.898438 14.59375 22.21875 14.625 C 22.074219 15.054688 21.84375 15.375 21.566406 15.730469 C 21.527344 15.789062 21.484375 15.84375 21.441406 15.902344 C 21.332031 16.042969 21.214844 16.179688 21.09375 16.3125 C 21 16.3125 20.90625 16.3125 20.8125 16.3125 C 20.640625 16.105469 20.484375 15.902344 20.332031 15.679688 C 20.269531 15.589844 20.269531 15.589844 20.203125 15.5 C 19.988281 15.191406 19.875 15 19.78125 14.625 C 20.089844 14.625 20.398438 14.625 20.71875 14.625 C 20.71875 14.539062 20.71875 14.453125 20.71875 14.363281 C 20.714844 13.546875 20.714844 12.730469 20.714844 11.917969 C 20.714844 11.496094 20.714844 11.078125 20.710938 10.660156 C 20.710938 10.253906 20.710938 9.851562 20.710938 9.445312 C 20.710938 9.292969 20.710938 9.136719 20.707031 8.980469 C 20.707031 8.765625 20.707031 8.550781 20.707031 8.335938 C 20.707031 8.210938 20.707031 8.089844 20.707031 7.960938 C 20.71875 7.6875 20.71875 7.6875 20.8125 7.59375 Z M 20.8125 7.59375 "/>
<path style=" stroke:none;fill-rule:nonzero;fill:rgb(89.803922%,89.803922%,89.803922%);fill-opacity:1;" d="M 14.625 1.78125 C 15.003906 1.972656 15.332031 2.1875 15.679688 2.433594 C 15.769531 2.492188 15.769531 2.492188 15.863281 2.558594 C 16.019531 2.667969 16.167969 2.785156 16.3125 2.90625 C 16.3125 3.1875 16.3125 3.1875 16.175781 3.324219 C 16.117188 3.367188 16.054688 3.414062 15.992188 3.460938 C 15.925781 3.511719 15.855469 3.5625 15.789062 3.613281 C 15.71875 3.664062 15.648438 3.714844 15.574219 3.769531 C 15.503906 3.820312 15.433594 3.871094 15.363281 3.925781 C 14.839844 4.3125 14.839844 4.3125 14.625 4.3125 C 14.59375 4.003906 14.5625 3.695312 14.53125 3.375 C 12.273438 3.34375 10.015625 3.3125 7.6875 3.28125 C 7.65625 3.15625 7.625 3.035156 7.59375 2.90625 C 7.773438 2.726562 8.089844 2.796875 8.324219 2.792969 C 8.425781 2.792969 8.425781 2.792969 8.527344 2.789062 C 8.75 2.789062 8.972656 2.785156 9.195312 2.78125 C 9.347656 2.78125 9.5 2.777344 9.652344 2.777344 C 10.058594 2.773438 10.460938 2.765625 10.867188 2.761719 C 11.277344 2.757812 11.691406 2.753906 12.101562 2.746094 C 12.914062 2.738281 13.722656 2.726562 14.53125 2.71875 C 14.5625 2.410156 14.59375 2.101562 14.625 1.78125 Z M 14.625 1.78125 "/>
<path style=" stroke:none;fill-rule:nonzero;fill:rgb(89.803922%,89.803922%,89.803922%);fill-opacity:1;" d="M 9.1875 19.6875 C 9.25 19.6875 9.3125 19.6875 9.375 19.6875 C 9.40625 19.996094 9.4375 20.304688 9.46875 20.625 C 11.726562 20.65625 13.984375 20.6875 16.3125 20.71875 C 16.359375 20.90625 16.359375 20.90625 16.40625 21.09375 C 16.226562 21.273438 15.910156 21.203125 15.675781 21.207031 C 15.574219 21.207031 15.574219 21.207031 15.472656 21.210938 C 15.25 21.210938 15.027344 21.214844 14.804688 21.21875 C 14.652344 21.21875 14.5 21.222656 14.347656 21.222656 C 13.941406 21.226562 13.539062 21.234375 13.132812 21.238281 C 12.722656 21.242188 12.308594 21.246094 11.898438 21.253906 C 11.085938 21.261719 10.277344 21.273438 9.46875 21.28125 C 9.4375 21.589844 9.40625 21.898438 9.375 22.21875 C 8.996094 22.027344 8.667969 21.8125 8.320312 21.566406 C 8.257812 21.527344 8.199219 21.484375 8.136719 21.441406 C 7.980469 21.332031 7.832031 21.214844 7.6875 21.09375 C 7.6875 21 7.6875 20.90625 7.6875 20.8125 C 7.816406 20.6875 7.816406 20.6875 7.992188 20.5625 C 8.054688 20.515625 8.117188 20.472656 8.183594 20.425781 C 8.25 20.378906 8.316406 20.332031 8.386719 20.285156 C 8.515625 20.191406 8.648438 20.097656 8.777344 20.007812 C 8.835938 19.964844 8.894531 19.925781 8.953125 19.882812 C 9.089844 19.789062 9.089844 19.789062 9.1875 19.6875 Z M 9.1875 19.6875 "/>
<path style=" stroke:none;fill-rule:nonzero;fill:rgb(89.411765%,89.411765%,89.411765%);fill-opacity:1;" d="M 3 7.59375 C 3.480469 8.027344 3.875 8.542969 4.21875 9.09375 C 4.21875 9.1875 4.21875 9.28125 4.21875 9.375 C 3.910156 9.375 3.601562 9.375 3.28125 9.375 C 3.28125 11.664062 3.28125 13.953125 3.28125 16.3125 C 3.09375 16.359375 3.09375 16.359375 2.90625 16.40625 C 2.726562 16.226562 2.796875 15.910156 2.792969 15.675781 C 2.792969 15.605469 2.789062 15.539062 2.789062 15.472656 C 2.789062 15.25 2.785156 15.027344 2.78125 14.804688 C 2.78125 14.652344 2.777344 14.5 2.777344 14.347656 C 2.773438 13.941406 2.765625 13.539062 2.761719 13.132812 C 2.757812 12.722656 2.753906 12.308594 2.746094 11.898438 C 2.738281 11.085938 2.726562 10.277344 2.71875 9.46875 C 2.410156 9.4375 2.101562 9.40625 1.78125 9.375 C 1.925781 8.941406 2.164062 8.625 2.441406 8.273438 C 2.484375 8.21875 2.53125 8.164062 2.574219 8.105469 C 2.882812 7.710938 2.882812 7.710938 3 7.59375 Z M 3 7.59375 "/>
<path style=" stroke:none;fill-rule:nonzero;fill:rgb(3.921569%,5.882353%,5.098039%);fill-opacity:1;" d="M 13.3125 10.78125 C 13.535156 10.875 13.535156 10.875 13.6875 11.0625 C 13.757812 11.445312 13.78125 11.667969 13.570312 12 C 13.398438 12.195312 13.21875 12.378906 13.03125 12.5625 C 12.960938 12.636719 12.886719 12.714844 12.8125 12.789062 C 12.140625 13.488281 12.140625 13.488281 11.8125 13.59375 C 11.195312 13.574219 10.910156 13.242188 10.503906 12.816406 C 10.320312 12.570312 10.242188 12.453125 10.230469 12.152344 C 10.3125 11.8125 10.3125 11.8125 10.457031 11.574219 C 10.785156 11.378906 10.980469 11.441406 11.34375 11.53125 C 11.46875 11.589844 11.59375 11.652344 11.71875 11.71875 C 11.808594 11.628906 11.808594 11.628906 11.898438 11.539062 C 11.972656 11.460938 12.050781 11.382812 12.128906 11.300781 C 12.207031 11.226562 12.28125 11.148438 12.359375 11.070312 C 12.679688 10.765625 12.875 10.746094 13.3125 10.78125 Z M 13.3125 10.78125 "/>
<path style=" stroke:none;fill-rule:nonzero;fill:rgb(65.882355%,65.882355%,65.882355%);fill-opacity:1;" d="M 13.390625 9.347656 C 13.84375 9.617188 14.257812 9.953125 14.53125 10.40625 C 14.53125 10.46875 14.53125 10.53125 14.53125 10.59375 C 14.277344 10.488281 14.121094 10.375 13.917969 10.183594 C 13.265625 9.632812 12.464844 9.5 11.632812 9.527344 C 10.738281 9.640625 10.039062 10.210938 9.375 10.78125 C 9.644531 9.953125 10.226562 9.574219 10.96875 9.1875 C 11.726562 8.933594 12.675781 9.011719 13.390625 9.347656 Z M 13.390625 9.347656 "/>
<path style=" stroke:none;fill-rule:nonzero;fill:rgb(96.862745%,88.627452%,65.098041%);fill-opacity:1;" d="M 1.992188 19.523438 C 2.046875 19.546875 2.101562 19.570312 2.15625 19.59375 C 2.113281 19.871094 2.042969 19.996094 1.871094 20.226562 C 1.652344 20.589844 1.609375 20.871094 1.6875 21.28125 C 1.773438 21.484375 1.867188 21.667969 1.980469 21.855469 C 2.0625 22.03125 2.0625 22.03125 2.0625 22.40625 C 1.851562 22.402344 1.851562 22.402344 1.59375 22.3125 C 1.148438 21.746094 1.0625 21.140625 1.125 20.4375 C 1.269531 20.046875 1.503906 19.46875 1.992188 19.523438 Z M 1.992188 19.523438 "/>
<path style=" stroke:none;fill-rule:nonzero;fill:rgb(6.666667%,70.588237%,40.392157%);fill-opacity:1;" d="M 13.21875 11.25 C 13.199219 11.78125 12.847656 12.058594 12.492188 12.410156 C 12.433594 12.472656 12.375 12.53125 12.316406 12.597656 C 11.882812 13.03125 11.882812 13.03125 11.554688 13.039062 C 11.226562 12.878906 10.988281 12.679688 10.78125 12.375 C 10.792969 12.105469 10.792969 12.105469 10.875 11.90625 C 11.105469 12.015625 11.253906 12.097656 11.4375 12.28125 C 11.769531 12.273438 11.894531 12.199219 12.144531 11.972656 C 12.222656 11.886719 12.300781 11.800781 12.378906 11.714844 C 12.800781 11.25 12.800781 11.25 13.21875 11.25 Z M 13.21875 11.25 "/>
<path style=" stroke:none;fill-rule:nonzero;fill:rgb(99.607843%,76.47059%,72.549021%);fill-opacity:1;" d="M 19.59375 19.03125 C 19.6875 19.0625 19.78125 19.09375 19.875 19.125 C 19.816406 19.699219 19.566406 20.0625 19.257812 20.539062 C 19.105469 20.851562 19.113281 20.960938 19.21875 21.28125 C 19.25 21.4375 19.28125 21.59375 19.3125 21.75 C 19.1875 21.78125 19.066406 21.8125 18.9375 21.84375 C 18.855469 21.730469 18.777344 21.613281 18.699219 21.496094 C 18.652344 21.433594 18.609375 21.371094 18.5625 21.304688 C 18.4375 21.023438 18.460938 20.917969 18.5625 20.625 C 18.6875 20.375 18.832031 20.140625 18.980469 19.902344 C 19.015625 19.839844 19.054688 19.777344 19.09375 19.710938 C 19.246094 19.464844 19.386719 19.238281 19.59375 19.03125 Z M 19.59375 19.03125 "/>
<path style=" stroke:none;fill-rule:nonzero;fill:rgb(96.862745%,88.627452%,64.313728%);fill-opacity:1;" d="M 19.125 1.125 C 19.3125 1.171875 19.3125 1.171875 19.5 1.21875 C 19.5 2.023438 19.5 2.828125 19.5 3.65625 C 19.375 3.6875 19.253906 3.71875 19.125 3.75 C 18.960938 3.585938 19.019531 3.34375 19.019531 3.117188 C 19.019531 3.007812 19.019531 2.898438 19.019531 2.785156 C 19.019531 2.671875 19.019531 2.554688 19.019531 2.4375 C 19.019531 2.320312 19.019531 2.207031 19.019531 2.089844 C 19.019531 1.980469 19.019531 1.871094 19.019531 1.757812 C 19.019531 1.65625 19.019531 1.554688 19.019531 1.453125 C 19.03125 1.21875 19.03125 1.21875 19.125 1.125 Z M 19.125 1.125 "/>
<path style=" stroke:none;fill-rule:nonzero;fill:rgb(99.607843%,76.862746%,73.333335%);fill-opacity:1;" d="M 3.09375 1.6875 C 3.25 1.71875 3.402344 1.75 3.5625 1.78125 C 3.421875 2.292969 3.179688 2.691406 2.894531 3.128906 C 2.851562 3.199219 2.808594 3.265625 2.761719 3.339844 C 2.652344 3.507812 2.546875 3.675781 2.4375 3.84375 C 2.3125 3.8125 2.191406 3.78125 2.0625 3.75 C 2.109375 3.25 2.375 2.875 2.628906 2.457031 C 2.675781 2.382812 2.71875 2.308594 2.765625 2.230469 C 2.875 2.050781 2.984375 1.867188 3.09375 1.6875 Z M 3.09375 1.6875 "/>
<path style=" stroke:none;fill-rule:nonzero;fill:rgb(96.862745%,88.235295%,63.921571%);fill-opacity:1;" d="M 2.914062 22.398438 C 3.046875 22.402344 3.046875 22.402344 3.1875 22.40625 C 3.242188 22.585938 3.242188 22.585938 3.28125 22.78125 C 3.1875 22.875 3.1875 22.875 2.902344 22.878906 C 2.808594 22.878906 2.71875 22.875 2.625 22.875 C 2.574219 22.691406 2.574219 22.691406 2.53125 22.5 C 2.625 22.40625 2.625 22.40625 2.914062 22.398438 Z M 2.914062 22.398438 "/>
<path style=" stroke:none;fill-rule:nonzero;fill:rgb(96.862745%,87.843138%,62.352943%);fill-opacity:1;" d="M 19.125 4.21875 C 19.316406 4.261719 19.316406 4.261719 19.5 4.3125 C 19.5 4.5 19.5 4.683594 19.5 4.875 C 19.316406 4.925781 19.316406 4.925781 19.125 4.96875 C 19.03125 4.875 19.03125 4.875 19.019531 4.59375 C 19.03125 4.3125 19.03125 4.3125 19.125 4.21875 Z M 19.125 4.21875 "/>
<path style=" stroke:none;fill-rule:nonzero;fill:rgb(99.607843%,76.47059%,72.941178%);fill-opacity:1;" d="M 1.6875 4.21875 C 1.886719 4.253906 1.886719 4.253906 2.0625 4.3125 C 2.03125 4.46875 2 4.621094 1.96875 4.78125 C 1.8125 4.8125 1.660156 4.84375 1.5 4.875 C 1.488281 4.652344 1.488281 4.652344 1.5 4.40625 C 1.5625 4.34375 1.625 4.28125 1.6875 4.21875 Z M 1.6875 4.21875 "/>
<path style=" stroke:none;fill-rule:nonzero;fill:rgb(99.607843%,76.862746%,72.941178%);fill-opacity:1;" d="M 19.3125 22.21875 C 19.542969 22.265625 19.542969 22.265625 19.78125 22.3125 C 19.8125 22.46875 19.84375 22.621094 19.875 22.78125 C 19.75 22.8125 19.628906 22.84375 19.5 22.875 C 19.3125 22.59375 19.3125 22.59375 19.3125 22.21875 Z M 19.3125 22.21875 "/>
<path style=" stroke:none;fill-rule:nonzero;fill:rgb(5.882353%,5.098039%,0.392157%);fill-opacity:1;" d="M 4.875 19.03125 C 5.109375 19.078125 5.109375 19.078125 5.34375 19.125 C 5.34375 19.25 5.34375 19.371094 5.34375 19.5 C 5.160156 19.550781 5.160156 19.550781 4.96875 19.59375 C 4.875 19.5 4.875 19.5 4.871094 19.261719 C 4.871094 19.183594 4.875 19.109375 4.875 19.03125 Z M 4.875 19.03125 "/>
<path style=" stroke:none;fill-rule:nonzero;fill:rgb(3.921569%,3.921569%,3.921569%);fill-opacity:1;" d="M 21.375 10.125 C 21.5 10.15625 21.621094 10.1875 21.75 10.21875 C 21.714844 10.402344 21.714844 10.402344 21.65625 10.59375 C 21.5625 10.640625 21.5625 10.640625 21.46875 10.6875 C 21.375 10.625 21.28125 10.5625 21.1875 10.5 C 21.25 10.375 21.3125 10.253906 21.375 10.125 Z M 21.375 10.125 "/>
<path style=" stroke:none;fill-rule:nonzero;fill:rgb(3.529412%,4.313726%,5.098039%);fill-opacity:1;" d="M 13.96875 14.15625 C 14.0625 14.1875 14.15625 14.21875 14.25 14.25 C 14.25 14.375 14.25 14.496094 14.25 14.625 C 14.125 14.59375 14.003906 14.5625 13.875 14.53125 C 13.90625 14.40625 13.9375 14.285156 13.96875 14.15625 Z M 13.96875 14.15625 "/>
</g>
</svg>
