<?xml version="1.0" encoding="UTF-8"?>
<svg xmlns="http://www.w3.org/2000/svg" xmlns:xlink="http://www.w3.org/1999/xlink" width="24" height="24" viewBox="0 0 24 24" version="1.1">
<g id="surface1">
<path style=" stroke:none;fill-rule:nonzero;fill:rgb(99.607843%,28.627452%,28.627452%);fill-opacity:1;" d="M 0 0.75 C 1.359375 0.75 2.722656 0.75 4.125 0.75 C 4.402344 1.753906 4.671875 2.730469 4.875 3.75 C 4.96875 3.71875 5.058594 3.6875 5.152344 3.65625 C 5.546875 3.546875 5.921875 3.535156 6.328125 3.539062 C 6.429688 3.539062 6.429688 3.539062 6.53125 3.539062 C 6.984375 3.539062 7.355469 3.609375 7.78125 3.75 C 7.816406 3.589844 7.816406 3.589844 7.851562 3.425781 C 7.882812 3.28125 7.914062 3.132812 7.945312 2.988281 C 7.960938 2.917969 7.972656 2.847656 7.992188 2.777344 C 8.140625 2.089844 8.335938 1.433594 8.53125 0.75 C 9.890625 0.75 11.253906 0.75 12.65625 0.75 C 12.65625 1.214844 12.65625 1.679688 12.65625 2.15625 C 11.695312 2.15625 10.738281 2.15625 9.75 2.15625 C 9.609375 2.777344 9.609375 2.777344 9.472656 3.402344 C 9.417969 3.65625 9.359375 3.90625 9.292969 4.160156 C 9.171875 4.625 9.171875 4.625 9.273438 5.082031 C 9.355469 5.207031 9.441406 5.332031 9.535156 5.453125 C 9.753906 5.761719 9.835938 6.105469 9.851562 6.480469 C 9.875 7.050781 10.054688 7.320312 10.421875 7.75 C 11.425781 9.011719 11.25 10.402344 11.25 12 C 14.53125 12 17.808594 12 21.1875 12 C 21.21875 12.679688 21.25 13.359375 21.28125 14.0625 C 21.4375 13.90625 21.589844 13.753906 21.75 13.59375 C 22.1875 13.300781 22.640625 13.351562 23.15625 13.40625 C 23.585938 13.609375 23.796875 13.824219 24 14.25 C 24.027344 14.519531 24.039062 14.773438 24.039062 15.042969 C 24.039062 15.160156 24.039062 15.160156 24.039062 15.28125 C 24.042969 15.539062 24.042969 15.800781 24.039062 16.058594 C 24.042969 16.242188 24.042969 16.421875 24.042969 16.601562 C 24.042969 16.980469 24.042969 17.359375 24.042969 17.738281 C 24.039062 18.222656 24.042969 18.707031 24.046875 19.195312 C 24.046875 19.566406 24.046875 19.941406 24.046875 20.316406 C 24.046875 20.492188 24.046875 20.671875 24.046875 20.851562 C 24.050781 21.101562 24.046875 21.351562 24.046875 21.601562 C 24.046875 21.675781 24.046875 21.75 24.050781 21.824219 C 24.042969 22.308594 23.941406 22.582031 23.625 22.96875 C 23.136719 23.347656 22.625 23.320312 22.03125 23.25 C 21.597656 23.046875 21.398438 22.828125 21.1875 22.40625 C 21.148438 22.128906 21.148438 22.128906 21.148438 21.820312 C 21.144531 21.703125 21.144531 21.585938 21.140625 21.46875 C 21.140625 21.339844 21.140625 21.214844 21.140625 21.089844 C 21.136719 20.960938 21.136719 20.828125 21.132812 20.699219 C 21.128906 20.359375 21.128906 20.019531 21.125 19.679688 C 21.121094 19.332031 21.117188 18.984375 21.113281 18.636719 C 21.105469 17.957031 21.097656 17.273438 21.09375 16.59375 C 21.050781 16.695312 21.007812 16.800781 20.964844 16.902344 C 20.597656 17.773438 19.972656 18.4375 19.125 18.84375 C 18.5625 19.046875 18.042969 19.058594 17.445312 19.058594 C 17.347656 19.058594 17.25 19.058594 17.152344 19.058594 C 16.945312 19.0625 16.742188 19.0625 16.539062 19.0625 C 16.226562 19.058594 15.914062 19.0625 15.601562 19.066406 C 15.402344 19.066406 15.203125 19.066406 15.003906 19.066406 C 14.910156 19.066406 14.816406 19.066406 14.722656 19.066406 C 13.691406 19.0625 12.863281 18.671875 12.117188 17.964844 C 11.734375 17.5625 11.464844 17.140625 11.34375 16.59375 C 11.34375 16.660156 11.34375 16.726562 11.339844 16.796875 C 11.335938 17.105469 11.328125 17.410156 11.320312 17.71875 C 11.320312 17.824219 11.316406 17.929688 11.316406 18.039062 C 11.296875 18.773438 11.199219 19.3125 10.710938 19.875 C 10.660156 19.917969 10.605469 19.960938 10.550781 20.003906 C 10.476562 20.070312 10.476562 20.070312 10.394531 20.132812 C 10.03125 20.371094 9.707031 20.460938 9.273438 20.457031 C 9.140625 20.457031 9.140625 20.457031 9.007812 20.453125 C 8.875 20.453125 8.875 20.453125 8.738281 20.449219 C 8.644531 20.449219 8.554688 20.449219 8.457031 20.445312 C 8.230469 20.445312 8.007812 20.441406 7.78125 20.4375 C 7.785156 20.558594 7.789062 20.679688 7.792969 20.808594 C 7.792969 20.96875 7.796875 21.132812 7.800781 21.292969 C 7.800781 21.375 7.804688 21.453125 7.804688 21.535156 C 7.8125 22.023438 7.773438 22.359375 7.5 22.78125 C 7.015625 23.21875 6.714844 23.28125 6.070312 23.277344 C 5.621094 23.230469 5.371094 23.011719 5.082031 22.683594 C 4.898438 22.382812 4.863281 22.140625 4.867188 21.800781 C 4.867188 21.722656 4.867188 21.644531 4.867188 21.5625 C 4.867188 21.4375 4.867188 21.4375 4.871094 21.308594 C 4.871094 21.226562 4.871094 21.144531 4.871094 21.058594 C 4.871094 20.851562 4.875 20.644531 4.875 20.4375 C 4.820312 20.4375 4.761719 20.441406 4.707031 20.441406 C 4.449219 20.453125 4.195312 20.457031 3.9375 20.460938 C 3.851562 20.464844 3.761719 20.46875 3.671875 20.46875 C 2.984375 20.480469 2.492188 20.351562 1.96875 19.898438 C 1.925781 19.847656 1.882812 19.792969 1.839844 19.738281 C 1.796875 19.6875 1.753906 19.636719 1.710938 19.582031 C 1.382812 19.082031 1.378906 18.628906 1.382812 18.046875 C 1.378906 17.957031 1.378906 17.867188 1.378906 17.777344 C 1.378906 17.484375 1.378906 17.1875 1.378906 16.894531 C 1.378906 16.6875 1.378906 16.484375 1.378906 16.277344 C 1.375 15.847656 1.375 15.417969 1.375 14.988281 C 1.378906 14.4375 1.375 13.890625 1.375 13.339844 C 1.371094 12.914062 1.371094 12.492188 1.371094 12.066406 C 1.371094 11.863281 1.371094 11.664062 1.371094 11.460938 C 1.371094 11.175781 1.371094 10.890625 1.371094 10.605469 C 1.371094 10.523438 1.371094 10.441406 1.367188 10.355469 C 1.378906 9.300781 1.753906 8.175781 2.507812 7.410156 C 2.78125 7.039062 2.804688 6.722656 2.863281 6.273438 C 2.933594 5.835938 3.074219 5.480469 3.355469 5.132812 C 3.546875 4.695312 3.386719 4.292969 3.28125 3.84375 C 3.234375 3.625 3.1875 3.40625 3.136719 3.1875 C 3.0625 2.84375 2.984375 2.5 2.90625 2.15625 C 1.945312 2.15625 0.988281 2.15625 0 2.15625 C 0 1.691406 0 1.226562 0 0.75 Z M 0 0.75 "/>
<path style=" stroke:none;fill-rule:nonzero;fill:rgb(99.607843%,82.745099%,0.392157%);fill-opacity:1;" d="M 0 0.75 C 1.359375 0.75 2.722656 0.75 4.125 0.75 C 4.402344 1.753906 4.671875 2.730469 4.875 3.75 C 4.96875 3.71875 5.058594 3.6875 5.152344 3.65625 C 5.546875 3.546875 5.921875 3.535156 6.328125 3.539062 C 6.429688 3.539062 6.429688 3.539062 6.53125 3.539062 C 6.984375 3.539062 7.355469 3.609375 7.78125 3.75 C 7.816406 3.589844 7.816406 3.589844 7.851562 3.425781 C 7.882812 3.28125 7.914062 3.132812 7.945312 2.988281 C 7.960938 2.917969 7.972656 2.847656 7.992188 2.777344 C 8.140625 2.089844 8.335938 1.433594 8.53125 0.75 C 9.890625 0.75 11.253906 0.75 12.65625 0.75 C 12.65625 1.214844 12.65625 1.679688 12.65625 2.15625 C 11.695312 2.15625 10.738281 2.15625 9.75 2.15625 C 9.609375 2.777344 9.609375 2.777344 9.472656 3.402344 C 9.417969 3.65625 9.359375 3.90625 9.292969 4.160156 C 9.171875 4.625 9.171875 4.625 9.273438 5.082031 C 9.394531 5.273438 9.394531 5.273438 9.527344 5.433594 C 9.980469 6.109375 9.90625 7.003906 9.84375 7.78125 C 9.601562 8.761719 8.976562 9.546875 8.15625 10.125 C 7.234375 10.585938 6.320312 10.773438 5.308594 10.511719 C 4.6875 10.269531 4.210938 9.945312 3.75 9.46875 C 3.667969 9.386719 3.585938 9.304688 3.496094 9.214844 C 2.8125 8.324219 2.707031 7.359375 2.8125 6.28125 C 2.882812 5.945312 3 5.664062 3.203125 5.378906 C 3.4375 5.039062 3.492188 4.835938 3.421875 4.425781 C 3.375 4.230469 3.328125 4.035156 3.28125 3.84375 C 3.234375 3.625 3.183594 3.40625 3.136719 3.191406 C 3.0625 2.84375 2.984375 2.5 2.90625 2.15625 C 1.945312 2.15625 0.988281 2.15625 0 2.15625 C 0 1.691406 0 1.226562 0 0.75 Z M 0 0.75 "/>
<path style=" stroke:none;fill-rule:nonzero;fill:rgb(99.215686%,41.960785%,41.960785%);fill-opacity:1;" d="M 2.71875 7.125 C 2.75 7.125 2.78125 7.125 2.8125 7.125 C 2.84375 7.300781 2.84375 7.300781 2.878906 7.476562 C 3.109375 8.484375 3.46875 9.300781 4.3125 9.9375 C 4.964844 10.324219 5.519531 10.441406 6.28125 10.59375 C 6.28125 11.523438 6.28125 12.449219 6.28125 13.40625 C 6.035156 13.5 5.785156 13.59375 5.53125 13.6875 C 5.179688 13.957031 5.085938 14.101562 5.019531 14.539062 C 5 14.914062 4.996094 15.285156 4.996094 15.65625 C 4.996094 15.796875 4.992188 15.933594 4.992188 16.074219 C 4.988281 16.433594 4.988281 16.796875 4.988281 17.15625 C 4.984375 17.527344 4.984375 17.894531 4.980469 18.265625 C 4.972656 18.988281 4.96875 19.714844 4.96875 20.4375 C 4.640625 20.449219 4.3125 20.457031 3.984375 20.460938 C 3.890625 20.464844 3.800781 20.46875 3.703125 20.46875 C 3.003906 20.480469 2.511719 20.371094 1.96875 19.898438 C 1.925781 19.847656 1.882812 19.792969 1.839844 19.738281 C 1.796875 19.6875 1.753906 19.636719 1.710938 19.582031 C 1.382812 19.082031 1.378906 18.628906 1.382812 18.046875 C 1.378906 17.957031 1.378906 17.867188 1.378906 17.777344 C 1.378906 17.484375 1.378906 17.1875 1.378906 16.894531 C 1.378906 16.6875 1.378906 16.484375 1.378906 16.277344 C 1.375 15.847656 1.375 15.417969 1.375 14.988281 C 1.378906 14.4375 1.375 13.890625 1.375 13.339844 C 1.371094 12.914062 1.371094 12.492188 1.371094 12.066406 C 1.371094 11.863281 1.371094 11.664062 1.371094 11.460938 C 1.371094 11.175781 1.371094 10.890625 1.371094 10.605469 C 1.371094 10.523438 1.371094 10.441406 1.367188 10.355469 C 1.378906 9.144531 1.886719 8.003906 2.71875 7.125 Z M 2.71875 7.125 "/>
<path style=" stroke:none;fill-rule:nonzero;fill:rgb(65.882355%,82.745099%,84.705883%);fill-opacity:1;" d="M 11.25 12 C 14.53125 12 17.808594 12 21.1875 12 C 21.1875 12.929688 21.1875 13.855469 21.1875 14.8125 C 17.90625 14.8125 14.628906 14.8125 11.25 14.8125 C 11.25 13.882812 11.25 12.957031 11.25 12 Z M 11.25 12 "/>
<path style=" stroke:none;fill-rule:nonzero;fill:rgb(26.666668%,26.666668%,26.666668%);fill-opacity:1;" d="M 23.15625 13.40625 C 23.585938 13.609375 23.796875 13.824219 24 14.25 C 24.027344 14.519531 24.039062 14.773438 24.039062 15.042969 C 24.039062 15.121094 24.039062 15.199219 24.039062 15.28125 C 24.042969 15.539062 24.042969 15.800781 24.039062 16.058594 C 24.042969 16.242188 24.042969 16.421875 24.042969 16.601562 C 24.042969 16.980469 24.042969 17.359375 24.042969 17.738281 C 24.039062 18.222656 24.042969 18.707031 24.046875 19.195312 C 24.046875 19.566406 24.046875 19.941406 24.046875 20.316406 C 24.046875 20.492188 24.046875 20.671875 24.046875 20.851562 C 24.050781 21.101562 24.046875 21.351562 24.046875 21.601562 C 24.046875 21.675781 24.046875 21.75 24.050781 21.824219 C 24.042969 22.308594 23.941406 22.582031 23.625 22.96875 C 23.136719 23.347656 22.625 23.320312 22.03125 23.25 C 21.601562 23.046875 21.390625 22.832031 21.1875 22.40625 C 21.160156 22.136719 21.148438 21.882812 21.148438 21.613281 C 21.148438 21.535156 21.148438 21.457031 21.148438 21.375 C 21.144531 21.117188 21.144531 20.855469 21.148438 20.597656 C 21.144531 20.414062 21.144531 20.234375 21.144531 20.054688 C 21.144531 19.675781 21.144531 19.296875 21.144531 18.917969 C 21.148438 18.433594 21.144531 17.949219 21.140625 17.460938 C 21.140625 17.089844 21.140625 16.714844 21.140625 16.339844 C 21.140625 16.164062 21.140625 15.984375 21.140625 15.804688 C 21.136719 15.554688 21.140625 15.304688 21.140625 15.054688 C 21.140625 14.945312 21.140625 14.945312 21.136719 14.832031 C 21.144531 14.347656 21.246094 14.074219 21.5625 13.6875 C 22.050781 13.308594 22.5625 13.335938 23.15625 13.40625 Z M 23.15625 13.40625 "/>
<path style=" stroke:none;fill-rule:nonzero;fill:rgb(27.843139%,27.058825%,27.058825%);fill-opacity:1;" d="M 6.75 13.40625 C 7.246094 13.660156 7.601562 13.996094 7.78125 14.53125 C 7.792969 14.773438 7.796875 15.015625 7.796875 15.257812 C 7.796875 15.332031 7.796875 15.40625 7.796875 15.484375 C 7.800781 15.730469 7.800781 15.976562 7.800781 16.21875 C 7.800781 16.390625 7.800781 16.5625 7.800781 16.734375 C 7.804688 17.089844 7.804688 17.449219 7.804688 17.804688 C 7.804688 18.265625 7.804688 18.722656 7.808594 19.179688 C 7.8125 19.53125 7.8125 19.886719 7.8125 20.238281 C 7.8125 20.40625 7.8125 20.574219 7.8125 20.742188 C 7.816406 20.980469 7.816406 21.21875 7.816406 21.453125 C 7.816406 21.523438 7.816406 21.59375 7.816406 21.664062 C 7.8125 22.105469 7.734375 22.40625 7.5 22.78125 C 7.015625 23.21875 6.714844 23.28125 6.070312 23.277344 C 5.621094 23.230469 5.371094 23.011719 5.082031 22.683594 C 4.847656 22.300781 4.863281 21.941406 4.867188 21.507812 C 4.871094 21.347656 4.871094 21.183594 4.871094 21.023438 C 4.871094 20.929688 4.871094 20.839844 4.875 20.742188 C 4.875 20.402344 4.875 20.0625 4.875 19.722656 C 4.875 19.117188 4.878906 18.511719 4.882812 17.90625 C 4.886719 17.550781 4.886719 17.199219 4.886719 16.84375 C 4.886719 16.5 4.886719 16.148438 4.890625 15.804688 C 4.894531 15.671875 4.894531 15.542969 4.890625 15.410156 C 4.882812 14.273438 4.882812 14.273438 5.230469 13.847656 C 5.675781 13.410156 6.140625 13.320312 6.75 13.40625 Z M 6.75 13.40625 "/>
<path style=" stroke:none;fill-rule:nonzero;fill:rgb(98.823529%,74.509805%,0.392157%);fill-opacity:1;" d="M 8.53125 0.75 C 9.890625 0.75 11.253906 0.75 12.65625 0.75 C 12.65625 1.214844 12.65625 1.679688 12.65625 2.15625 C 11.695312 2.15625 10.738281 2.15625 9.75 2.15625 C 9.609375 2.777344 9.609375 2.777344 9.472656 3.402344 C 9.417969 3.65625 9.359375 3.90625 9.292969 4.160156 C 9.171875 4.625 9.171875 4.625 9.273438 5.082031 C 9.394531 5.273438 9.394531 5.273438 9.527344 5.433594 C 9.980469 6.109375 9.90625 7.003906 9.84375 7.78125 C 9.601562 8.761719 8.976562 9.546875 8.15625 10.125 C 7.527344 10.4375 7.015625 10.609375 6.308594 10.597656 C 6.246094 10.597656 6.179688 10.597656 6.113281 10.597656 C 5.949219 10.597656 5.789062 10.59375 5.625 10.59375 C 5.625 10.5625 5.625 10.53125 5.625 10.5 C 5.871094 10.5 6.121094 10.5 6.375 10.5 C 6.375 10.066406 6.375 9.632812 6.375 9.1875 C 6.605469 9.125 6.839844 9.058594 7.070312 8.996094 C 7.316406 8.90625 7.480469 8.785156 7.6875 8.625 C 7.75 8.625 7.8125 8.625 7.875 8.625 C 7.941406 8.5 8 8.375 8.0625 8.25 C 8.113281 8.15625 8.164062 8.0625 8.214844 7.964844 C 8.429688 7.453125 8.453125 6.863281 8.261719 6.339844 C 8.199219 6.214844 8.132812 6.089844 8.058594 5.96875 C 7.96875 5.8125 7.96875 5.8125 7.875 5.53125 C 7.714844 5.429688 7.714844 5.429688 7.5 5.34375 C 7.394531 5.296875 7.289062 5.246094 7.175781 5.199219 C 6.828125 5.042969 6.828125 5.042969 6.375 4.96875 C 6.375 4.503906 6.375 4.039062 6.375 3.5625 C 6.894531 3.542969 7.28125 3.59375 7.78125 3.75 C 7.804688 3.644531 7.828125 3.539062 7.851562 3.425781 C 7.882812 3.28125 7.914062 3.132812 7.945312 2.988281 C 7.96875 2.882812 7.96875 2.882812 7.992188 2.777344 C 8.140625 2.089844 8.335938 1.433594 8.53125 0.75 Z M 8.53125 0.75 "/>
<path style=" stroke:none;fill-rule:nonzero;fill:rgb(77.64706%,88.235295%,89.411765%);fill-opacity:1;" d="M 7.253906 5.125 C 7.832031 5.464844 8.234375 5.921875 8.4375 6.5625 C 8.535156 7.234375 8.453125 7.78125 8.0625 8.34375 C 7.671875 8.824219 7.207031 9.132812 6.59375 9.222656 C 6.003906 9.246094 5.539062 9.171875 5.0625 8.8125 C 4.496094 8.289062 4.222656 7.820312 4.183594 7.042969 C 4.199219 6.457031 4.367188 6.054688 4.769531 5.625 C 5.476562 4.976562 6.335938 4.695312 7.253906 5.125 Z M 7.253906 5.125 "/>
<path style=" stroke:none;fill-rule:nonzero;fill:rgb(35.294119%,35.294119%,35.294119%);fill-opacity:1;" d="M 6.28125 13.40625 C 6.28125 16.65625 6.28125 19.902344 6.28125 23.25 C 5.503906 23.140625 5.503906 23.140625 5.0625 22.6875 C 4.855469 22.292969 4.851562 21.929688 4.863281 21.496094 C 4.863281 21.335938 4.867188 21.175781 4.867188 21.015625 C 4.871094 20.925781 4.871094 20.835938 4.871094 20.742188 C 4.875 20.339844 4.875 19.933594 4.875 19.53125 C 4.875 18.988281 4.878906 18.445312 4.882812 17.90625 C 4.886719 17.550781 4.886719 17.199219 4.886719 16.84375 C 4.886719 16.5 4.886719 16.148438 4.890625 15.804688 C 4.894531 15.671875 4.894531 15.542969 4.890625 15.410156 C 4.882812 14.273438 4.882812 14.273438 5.230469 13.847656 C 5.558594 13.523438 5.816406 13.40625 6.28125 13.40625 Z M 6.28125 13.40625 "/>
<path style=" stroke:none;fill-rule:nonzero;fill:rgb(35.294119%,35.294119%,34.901962%);fill-opacity:1;" d="M 0 0.75 C 1.359375 0.75 2.722656 0.75 4.125 0.75 C 4.875 3.449219 4.875 3.449219 4.875 3.9375 C 4.730469 4.058594 4.730469 4.058594 4.535156 4.167969 C 4.171875 4.367188 3.875 4.605469 3.5625 4.875 C 3.46875 4.519531 3.375 4.160156 3.28125 3.804688 C 3.234375 3.621094 3.1875 3.441406 3.140625 3.257812 C 3.109375 3.144531 3.082031 3.03125 3.050781 2.914062 C 3.023438 2.8125 2.996094 2.707031 2.964844 2.597656 C 2.90625 2.34375 2.90625 2.34375 2.90625 2.15625 C 1.945312 2.15625 0.988281 2.15625 0 2.15625 C 0 1.691406 0 1.226562 0 0.75 Z M 0 0.75 "/>
<path style=" stroke:none;fill-rule:nonzero;fill:rgb(26.666668%,26.666668%,26.274511%);fill-opacity:1;" d="M 8.53125 0.75 C 9.890625 0.75 11.253906 0.75 12.65625 0.75 C 12.65625 1.214844 12.65625 1.679688 12.65625 2.15625 C 11.695312 2.15625 10.738281 2.15625 9.75 2.15625 C 9.695312 2.414062 9.636719 2.675781 9.582031 2.941406 C 9.445312 3.5625 9.292969 4.175781 9.09375 4.78125 C 9.03125 4.78125 8.96875 4.78125 8.90625 4.78125 C 8.75 4.625 8.59375 4.46875 8.4375 4.3125 C 8.222656 4.148438 8.003906 3.996094 7.78125 3.84375 C 7.886719 3.160156 8.042969 2.492188 8.207031 1.824219 C 8.230469 1.738281 8.25 1.65625 8.273438 1.570312 C 8.425781 0.960938 8.425781 0.960938 8.53125 0.75 Z M 8.53125 0.75 "/>
<path style=" stroke:none;fill-rule:nonzero;fill:rgb(87.058824%,92.156863%,92.54902%);fill-opacity:1;" d="M 6.375 4.96875 C 6.375 5.433594 6.375 5.898438 6.375 6.375 C 6.128906 6.375 5.878906 6.375 5.625 6.375 C 5.625 6.839844 5.625 7.304688 5.625 7.78125 C 5.871094 7.78125 6.121094 7.78125 6.375 7.78125 C 6.375 8.246094 6.375 8.710938 6.375 9.1875 C 5.613281 9.140625 5.191406 8.976562 4.664062 8.402344 C 4.261719 7.90625 4.171875 7.429688 4.191406 6.796875 C 4.273438 6.121094 4.644531 5.707031 5.160156 5.289062 C 5.597656 4.972656 5.820312 4.96875 6.375 4.96875 Z M 6.375 4.96875 "/>
<path style=" stroke:none;fill-rule:nonzero;fill:rgb(65.882355%,82.745099%,84.705883%);fill-opacity:1;" d="M 6.375 6.375 C 6.589844 6.375 6.808594 6.375 7.03125 6.375 C 7.03125 6.839844 7.03125 7.304688 7.03125 7.78125 C 6.816406 7.78125 6.597656 7.78125 6.375 7.78125 C 6.375 7.316406 6.375 6.851562 6.375 6.375 Z M 6.375 6.375 "/>
</g>
</svg>
