<?xml version="1.0" encoding="UTF-8"?>
<svg xmlns="http://www.w3.org/2000/svg" xmlns:xlink="http://www.w3.org/1999/xlink" width="24" height="24" viewBox="0 0 24 24" version="1.1">
<g id="surface1">
<path style=" stroke:none;fill-rule:nonzero;fill:rgb(17.647059%,21.176471%,37.254903%);fill-opacity:1;" d="M 12.523438 1.289062 C 12.628906 1.289062 12.734375 1.285156 12.839844 1.285156 C 12.949219 1.289062 13.058594 1.289062 13.171875 1.289062 C 13.28125 1.289062 13.390625 1.289062 13.503906 1.285156 C 13.605469 1.285156 13.710938 1.289062 13.820312 1.289062 C 13.914062 1.289062 14.011719 1.289062 14.109375 1.289062 C 14.34375 1.3125 14.34375 1.3125 14.53125 1.5 C 14.542969 1.839844 14.542969 1.839844 14.53125 2.15625 C 14.664062 2.207031 14.796875 2.253906 14.929688 2.304688 C 15.039062 2.34375 15.039062 2.34375 15.152344 2.386719 C 15.398438 2.445312 15.515625 2.433594 15.75 2.34375 C 15.84375 2.28125 15.9375 2.21875 16.03125 2.15625 C 16.585938 2.195312 16.863281 2.542969 17.238281 2.917969 C 17.304688 2.980469 17.371094 3.039062 17.4375 3.105469 C 17.90625 3.566406 17.90625 3.566406 17.914062 4.011719 C 17.8125 4.3125 17.8125 4.3125 17.625 4.59375 C 17.683594 4.835938 17.683594 4.835938 17.800781 5.078125 C 17.855469 5.207031 17.855469 5.207031 17.910156 5.335938 C 17.941406 5.402344 17.96875 5.464844 18 5.53125 C 18.105469 5.542969 18.214844 5.558594 18.320312 5.570312 C 18.65625 5.625 18.65625 5.625 18.75 5.71875 C 18.757812 5.898438 18.761719 6.078125 18.761719 6.257812 C 18.761719 6.367188 18.761719 6.476562 18.761719 6.589844 C 18.761719 6.703125 18.761719 6.820312 18.761719 6.9375 C 18.761719 7.050781 18.761719 7.167969 18.761719 7.285156 C 18.761719 7.394531 18.761719 7.503906 18.761719 7.617188 C 18.761719 7.71875 18.761719 7.820312 18.761719 7.921875 C 18.75 8.15625 18.75 8.15625 18.65625 8.25 C 18.4375 8.285156 18.21875 8.316406 18 8.34375 C 17.929688 8.507812 17.863281 8.671875 17.796875 8.835938 C 17.738281 8.972656 17.738281 8.972656 17.679688 9.113281 C 17.660156 9.199219 17.644531 9.285156 17.625 9.375 C 17.753906 9.570312 17.753906 9.570312 17.90625 9.75 C 17.941406 10.023438 17.941406 10.167969 17.785156 10.398438 C 17.726562 10.457031 17.671875 10.511719 17.613281 10.570312 C 17.554688 10.628906 17.492188 10.691406 17.429688 10.753906 C 17.363281 10.816406 17.300781 10.882812 17.234375 10.945312 C 17.167969 11.007812 17.105469 11.074219 17.042969 11.140625 C 16.492188 11.679688 16.492188 11.679688 16.03125 11.71875 C 15.972656 11.671875 15.914062 11.625 15.851562 11.578125 C 15.65625 11.40625 15.65625 11.40625 15.375 11.472656 C 15.273438 11.5 15.171875 11.53125 15.070312 11.5625 C 14.96875 11.589844 14.867188 11.617188 14.765625 11.648438 C 14.6875 11.671875 14.609375 11.695312 14.53125 11.71875 C 14.535156 11.824219 14.539062 11.925781 14.542969 12.035156 C 14.53125 12.375 14.53125 12.375 14.34375 12.5625 C 14.109375 12.585938 14.109375 12.585938 13.820312 12.585938 C 13.714844 12.585938 13.609375 12.589844 13.503906 12.589844 C 13.394531 12.585938 13.285156 12.585938 13.171875 12.585938 C 13.0625 12.585938 12.953125 12.585938 12.839844 12.589844 C 12.734375 12.589844 12.632812 12.585938 12.523438 12.585938 C 12.429688 12.585938 12.332031 12.585938 12.234375 12.585938 C 12 12.5625 12 12.5625 11.8125 12.375 C 11.800781 12.035156 11.800781 12.035156 11.8125 11.71875 C 11.632812 11.664062 11.453125 11.613281 11.273438 11.5625 C 11.171875 11.53125 11.074219 11.5 10.96875 11.472656 C 10.6875 11.40625 10.6875 11.40625 10.492188 11.578125 C 10.433594 11.625 10.375 11.671875 10.3125 11.71875 C 9.753906 11.671875 9.488281 11.332031 9.109375 10.953125 C 9.046875 10.890625 8.980469 10.828125 8.914062 10.765625 C 8.453125 10.304688 8.453125 10.304688 8.378906 9.914062 C 8.4375 9.65625 8.4375 9.65625 8.589844 9.464844 C 8.632812 9.402344 8.675781 9.34375 8.71875 9.28125 C 8.671875 9.03125 8.671875 9.03125 8.546875 8.789062 C 8.511719 8.707031 8.472656 8.621094 8.4375 8.535156 C 8.40625 8.472656 8.375 8.410156 8.34375 8.34375 C 8.238281 8.332031 8.136719 8.324219 8.027344 8.3125 C 7.914062 8.292969 7.804688 8.273438 7.6875 8.25 C 7.484375 7.945312 7.476562 7.855469 7.476562 7.5 C 7.476562 7.410156 7.476562 7.320312 7.472656 7.226562 C 7.476562 7.128906 7.476562 7.035156 7.476562 6.9375 C 7.476562 6.84375 7.476562 6.746094 7.472656 6.648438 C 7.476562 6.558594 7.476562 6.46875 7.476562 6.375 C 7.476562 6.292969 7.476562 6.207031 7.476562 6.125 C 7.5 5.90625 7.5 5.90625 7.6875 5.625 C 8.027344 5.5625 8.027344 5.5625 8.34375 5.53125 C 8.46875 5.191406 8.589844 4.851562 8.71875 4.5 C 8.625 4.40625 8.535156 4.316406 8.4375 4.21875 C 8.378906 3.964844 8.378906 3.964844 8.4375 3.65625 C 8.632812 3.382812 8.867188 3.15625 9.109375 2.921875 C 9.175781 2.859375 9.238281 2.796875 9.300781 2.730469 C 9.847656 2.195312 9.847656 2.195312 10.3125 2.15625 C 10.371094 2.203125 10.429688 2.25 10.492188 2.300781 C 10.6875 2.46875 10.6875 2.46875 10.96875 2.402344 C 11.070312 2.375 11.171875 2.34375 11.273438 2.3125 C 11.375 2.285156 11.476562 2.257812 11.578125 2.226562 C 11.65625 2.203125 11.734375 2.179688 11.8125 2.15625 C 11.808594 2.050781 11.804688 1.949219 11.800781 1.839844 C 11.820312 1.285156 12.03125 1.289062 12.523438 1.289062 Z M 10.875 4.78125 C 10.296875 5.472656 9.964844 6.25 10 7.160156 C 10.125 8.113281 10.585938 8.902344 11.332031 9.5 C 12.171875 10.078125 13.015625 10.160156 14.023438 9.992188 C 14.863281 9.753906 15.460938 9.179688 15.917969 8.457031 C 16.320312 7.714844 16.429688 6.839844 16.203125 6.019531 C 15.835938 5.0625 15.246094 4.449219 14.332031 4.007812 C 13.097656 3.511719 11.796875 3.882812 10.875 4.78125 Z M 10.875 4.78125 "/>
<path style=" stroke:none;fill-rule:nonzero;fill:rgb(17.647059%,21.176471%,37.254903%);fill-opacity:1;" d="M 13.125 12.9375 C 13.273438 12.976562 13.273438 12.976562 13.425781 13.015625 C 13.523438 13.046875 13.625 13.078125 13.730469 13.105469 C 13.871094 13.148438 13.871094 13.148438 14.015625 13.191406 C 14.25 13.3125 14.25 13.3125 14.378906 13.542969 C 14.445312 13.8125 14.417969 13.984375 14.34375 14.25 C 14.402344 14.277344 14.460938 14.304688 14.519531 14.332031 C 14.71875 14.4375 14.71875 14.4375 14.90625 14.625 C 15.113281 14.648438 15.113281 14.648438 15.339844 14.636719 C 15.417969 14.636719 15.492188 14.632812 15.570312 14.632812 C 15.660156 14.628906 15.660156 14.628906 15.75 14.625 C 15.890625 14.878906 16.03125 15.136719 16.171875 15.394531 C 16.210938 15.464844 16.253906 15.539062 16.292969 15.609375 C 16.683594 16.332031 16.683594 16.332031 16.59375 16.6875 C 16.46875 16.78125 16.34375 16.875 16.21875 16.96875 C 16.152344 17.203125 16.152344 17.203125 16.148438 17.457031 C 16.140625 17.582031 16.140625 17.582031 16.132812 17.710938 C 16.128906 17.777344 16.128906 17.839844 16.125 17.90625 C 16.3125 17.96875 16.496094 18.03125 16.6875 18.09375 C 16.710938 18.609375 16.636719 19.003906 16.464844 19.480469 C 16.445312 19.546875 16.421875 19.609375 16.402344 19.671875 C 16.308594 19.945312 16.238281 20.136719 16.03125 20.34375 C 15.53125 20.375 15.53125 20.375 15.28125 20.25 C 15.257812 20.304688 15.230469 20.359375 15.207031 20.414062 C 15.09375 20.625 15.09375 20.625 14.933594 20.792969 C 14.753906 21.097656 14.835938 21.320312 14.90625 21.65625 C 14.488281 21.929688 14.070312 22.179688 13.621094 22.402344 C 13.539062 22.441406 13.457031 22.484375 13.371094 22.527344 C 13.125 22.59375 13.125 22.59375 12.863281 22.523438 C 12.65625 22.40625 12.65625 22.40625 12.582031 22.207031 C 12.570312 22.121094 12.570312 22.121094 12.5625 22.03125 C 12.46875 22.0625 12.375 22.09375 12.28125 22.125 C 12.152344 22.132812 12.019531 22.132812 11.886719 22.128906 C 11.769531 22.128906 11.652344 22.125 11.53125 22.125 C 11.5 22.28125 11.46875 22.433594 11.4375 22.59375 C 10.910156 22.734375 10.550781 22.621094 10.054688 22.441406 C 9.984375 22.417969 9.910156 22.394531 9.835938 22.371094 C 9.320312 22.1875 9.320312 22.1875 9.140625 21.894531 C 9.09375 21.65625 9.09375 21.65625 9.09375 21.28125 C 8.910156 21.003906 8.910156 21.003906 8.625 20.8125 C 8.40625 20.839844 8.1875 20.871094 7.96875 20.90625 C 7.617188 20.632812 7.433594 20.273438 7.242188 19.878906 C 7.210938 19.824219 7.183594 19.765625 7.152344 19.707031 C 6.984375 19.375 6.902344 19.121094 6.9375 18.75 C 7.09375 18.6875 7.246094 18.625 7.40625 18.5625 C 7.40625 18.222656 7.40625 17.882812 7.40625 17.53125 C 7.21875 17.46875 7.035156 17.40625 6.84375 17.34375 C 6.808594 16.800781 6.917969 16.40625 7.121094 15.902344 C 7.144531 15.835938 7.171875 15.765625 7.199219 15.695312 C 7.390625 15.203125 7.390625 15.203125 7.5 15.09375 C 7.753906 15.109375 8 15.152344 8.25 15.1875 C 8.273438 15.132812 8.300781 15.078125 8.324219 15.023438 C 8.4375 14.8125 8.4375 14.8125 8.597656 14.644531 C 8.777344 14.34375 8.683594 14.117188 8.625 13.78125 C 8.878906 13.640625 9.132812 13.5 9.386719 13.359375 C 9.457031 13.320312 9.53125 13.277344 9.601562 13.238281 C 10.011719 13.015625 10.300781 12.882812 10.78125 12.9375 C 10.84375 13.09375 10.90625 13.246094 10.96875 13.40625 C 11.308594 13.375 11.648438 13.34375 12 13.3125 C 12.03125 13.15625 12.0625 13.003906 12.09375 12.84375 C 12.421875 12.679688 12.78125 12.847656 13.125 12.9375 Z M 9.886719 16.128906 C 9.367188 16.824219 9.269531 17.519531 9.375 18.375 C 9.601562 19.125 10.140625 19.5625 10.785156 19.96875 C 11.296875 20.230469 11.886719 20.238281 12.433594 20.089844 C 12.917969 19.910156 13.257812 19.71875 13.59375 19.3125 C 13.660156 19.238281 13.730469 19.160156 13.800781 19.082031 C 14.214844 18.492188 14.226562 17.859375 14.15625 17.15625 C 13.996094 16.535156 13.648438 16.03125 13.125 15.65625 C 11.980469 15.078125 10.78125 15.128906 9.886719 16.128906 Z M 9.886719 16.128906 "/>
<path style=" stroke:none;fill-rule:nonzero;fill:rgb(17.647059%,21.176471%,37.254903%);fill-opacity:1;" d="M 3.890625 7.476562 C 3.972656 7.476562 4.054688 7.472656 4.144531 7.472656 C 4.230469 7.476562 4.316406 7.476562 4.40625 7.476562 C 4.492188 7.476562 4.582031 7.476562 4.667969 7.472656 C 4.792969 7.476562 4.792969 7.476562 4.921875 7.476562 C 4.996094 7.476562 5.074219 7.476562 5.152344 7.476562 C 5.34375 7.5 5.34375 7.5 5.53125 7.6875 C 5.542969 7.933594 5.542969 7.933594 5.53125 8.15625 C 5.714844 8.183594 5.714844 8.183594 5.902344 8.210938 C 5.96875 8.21875 6.039062 8.230469 6.109375 8.238281 C 6.195312 8.242188 6.195312 8.242188 6.28125 8.25 C 6.3125 8.21875 6.34375 8.1875 6.375 8.15625 C 6.648438 8.113281 6.847656 8.097656 7.089844 8.253906 C 7.246094 8.390625 7.390625 8.53125 7.535156 8.683594 C 7.585938 8.730469 7.636719 8.78125 7.691406 8.832031 C 7.945312 9.089844 8.054688 9.214844 8.097656 9.589844 C 8.0625 9.84375 8.0625 9.84375 8.011719 10.039062 C 7.957031 10.273438 8.003906 10.453125 8.0625 10.6875 C 8.171875 10.679688 8.171875 10.679688 8.285156 10.675781 C 8.53125 10.6875 8.53125 10.6875 8.71875 10.875 C 8.742188 11.066406 8.742188 11.066406 8.742188 11.296875 C 8.742188 11.421875 8.742188 11.421875 8.742188 11.546875 C 8.742188 11.636719 8.742188 11.722656 8.742188 11.8125 C 8.742188 11.941406 8.742188 11.941406 8.742188 12.078125 C 8.742188 12.160156 8.742188 12.242188 8.742188 12.328125 C 8.742188 12.40625 8.742188 12.480469 8.742188 12.558594 C 8.71875 12.75 8.71875 12.75 8.53125 12.9375 C 8.285156 12.949219 8.285156 12.949219 8.0625 12.9375 C 8.042969 13.058594 8.027344 13.179688 8.011719 13.304688 C 8 13.375 7.992188 13.441406 7.980469 13.515625 C 7.976562 13.570312 7.972656 13.628906 7.96875 13.6875 C 8 13.71875 8.03125 13.75 8.0625 13.78125 C 8.105469 14.054688 8.121094 14.257812 7.964844 14.496094 C 7.828125 14.652344 7.679688 14.796875 7.527344 14.941406 C 7.480469 14.992188 7.429688 15.042969 7.378906 15.097656 C 7.15625 15.316406 6.996094 15.457031 6.683594 15.511719 C 6.46875 15.46875 6.46875 15.46875 6.1875 15.28125 C 5.84375 15.355469 5.84375 15.355469 5.53125 15.46875 C 5.535156 15.542969 5.539062 15.617188 5.542969 15.691406 C 5.53125 15.9375 5.53125 15.9375 5.34375 16.125 C 5.152344 16.148438 5.152344 16.148438 4.921875 16.148438 C 4.839844 16.148438 4.757812 16.152344 4.667969 16.152344 C 4.582031 16.148438 4.496094 16.148438 4.40625 16.148438 C 4.320312 16.148438 4.230469 16.148438 4.144531 16.152344 C 4.019531 16.152344 4.019531 16.152344 3.890625 16.148438 C 3.816406 16.148438 3.738281 16.148438 3.660156 16.148438 C 3.46875 16.125 3.46875 16.125 3.28125 15.9375 C 3.269531 15.691406 3.269531 15.691406 3.28125 15.46875 C 3.066406 15.40625 2.847656 15.34375 2.625 15.28125 C 2.53125 15.375 2.53125 15.375 2.4375 15.46875 C 2.160156 15.515625 1.96875 15.527344 1.722656 15.375 C 1.5625 15.238281 1.417969 15.097656 1.269531 14.945312 C 1.21875 14.898438 1.167969 14.851562 1.113281 14.800781 C 0.96875 14.65625 0.851562 14.523438 0.75 14.34375 C 0.757812 14.015625 0.792969 13.792969 0.9375 13.5 C 0.878906 13.3125 0.820312 13.121094 0.75 12.9375 C 0.640625 12.945312 0.640625 12.945312 0.527344 12.949219 C 0.28125 12.9375 0.28125 12.9375 0.09375 12.75 C 0.0703125 12.558594 0.0703125 12.558594 0.0703125 12.328125 C 0.0703125 12.246094 0.0703125 12.160156 0.0703125 12.078125 C 0.0703125 11.945312 0.0703125 11.945312 0.0703125 11.8125 C 0.0703125 11.726562 0.0703125 11.636719 0.0703125 11.546875 C 0.0703125 11.464844 0.0703125 11.382812 0.0703125 11.296875 C 0.0703125 11.21875 0.0703125 11.144531 0.0703125 11.066406 C 0.09375 10.875 0.09375 10.875 0.28125 10.6875 C 0.527344 10.675781 0.527344 10.675781 0.75 10.6875 C 0.785156 10.566406 0.820312 10.445312 0.855469 10.324219 C 0.875 10.257812 0.894531 10.1875 0.914062 10.121094 C 0.921875 10.058594 0.929688 10 0.9375 9.9375 C 0.875 9.875 0.8125 9.8125 0.75 9.75 C 0.703125 9.542969 0.703125 9.542969 0.75 9.28125 C 0.921875 9.0625 1.078125 8.882812 1.277344 8.6875 C 1.328125 8.636719 1.375 8.585938 1.425781 8.535156 C 1.6875 8.273438 1.808594 8.164062 2.179688 8.121094 C 2.4375 8.15625 2.4375 8.15625 2.628906 8.210938 C 2.867188 8.261719 3.046875 8.214844 3.28125 8.15625 C 3.277344 8.082031 3.273438 8.007812 3.269531 7.933594 C 3.289062 7.496094 3.507812 7.476562 3.890625 7.476562 Z M 2.625 10.59375 C 2.277344 11.148438 2.269531 11.738281 2.34375 12.375 C 2.507812 12.953125 2.875 13.363281 3.375 13.6875 C 3.941406 13.960938 4.585938 13.980469 5.1875 13.8125 C 5.785156 13.546875 6.195312 13.078125 6.464844 12.484375 C 6.632812 11.964844 6.597656 11.449219 6.375 10.945312 C 5.980469 10.265625 5.441406 9.859375 4.6875 9.65625 C 3.878906 9.53125 3.140625 10.015625 2.625 10.59375 Z M 2.625 10.59375 "/>
<path style=" stroke:none;fill-rule:nonzero;fill:rgb(100%,40.784314%,34.901962%);fill-opacity:1;" d="M 20.003906 10.703125 C 20.265625 10.785156 20.480469 10.890625 20.71875 11.027344 C 20.804688 11.078125 20.894531 11.128906 20.988281 11.179688 C 21.082031 11.234375 21.171875 11.289062 21.269531 11.34375 C 21.363281 11.398438 21.460938 11.453125 21.558594 11.507812 C 23.71875 12.75 23.71875 12.75 23.90625 12.9375 C 23.933594 13.160156 23.933594 13.160156 23.90625 13.40625 C 23.765625 13.550781 23.765625 13.550781 23.5625 13.671875 C 23.484375 13.71875 23.40625 13.765625 23.328125 13.816406 C 23.238281 13.867188 23.152344 13.917969 23.0625 13.96875 C 22.964844 14.027344 22.871094 14.082031 22.769531 14.140625 C 22.457031 14.324219 22.136719 14.507812 21.820312 14.691406 C 21.605469 14.8125 21.390625 14.9375 21.175781 15.058594 C 21.082031 15.113281 20.984375 15.167969 20.890625 15.222656 C 20.714844 15.324219 20.542969 15.425781 20.371094 15.535156 C 20.117188 15.675781 19.976562 15.703125 19.6875 15.65625 C 19.488281 15.355469 19.476562 15.277344 19.488281 14.933594 C 19.488281 14.859375 19.492188 14.785156 19.492188 14.707031 C 19.496094 14.648438 19.496094 14.589844 19.5 14.53125 C 19.417969 14.53125 19.339844 14.535156 19.253906 14.535156 C 18.953125 14.539062 18.652344 14.542969 18.355469 14.546875 C 18.222656 14.546875 18.09375 14.550781 17.964844 14.550781 C 17.777344 14.554688 17.589844 14.558594 17.402344 14.558594 C 17.289062 14.558594 17.179688 14.5625 17.0625 14.5625 C 16.78125 14.53125 16.78125 14.53125 16.605469 14.417969 C 16.464844 14.191406 16.464844 14.027344 16.464844 13.757812 C 16.464844 13.613281 16.464844 13.613281 16.464844 13.46875 C 16.46875 13.367188 16.46875 13.269531 16.46875 13.167969 C 16.46875 13.066406 16.46875 12.964844 16.46875 12.863281 C 16.476562 12.117188 16.476562 12.117188 16.6875 11.90625 C 16.96875 11.882812 16.96875 11.882812 17.320312 11.886719 C 17.414062 11.886719 17.414062 11.886719 17.507812 11.886719 C 17.707031 11.890625 17.90625 11.890625 18.105469 11.894531 C 18.242188 11.894531 18.375 11.898438 18.507812 11.898438 C 18.839844 11.898438 19.167969 11.902344 19.5 11.90625 C 19.496094 11.839844 19.492188 11.777344 19.488281 11.710938 C 19.488281 11.625 19.484375 11.542969 19.484375 11.457031 C 19.476562 11.328125 19.476562 11.328125 19.472656 11.199219 C 19.5 10.96875 19.5 10.96875 19.613281 10.792969 C 19.78125 10.6875 19.78125 10.6875 20.003906 10.703125 Z M 20.003906 10.703125 "/>
<path style=" stroke:none;fill-rule:nonzero;fill:rgb(17.647059%,21.176471%,37.254903%);fill-opacity:1;" d="M 14.511719 4.816406 C 15.132812 5.269531 15.507812 5.804688 15.65625 6.5625 C 15.738281 7.273438 15.558594 7.953125 15.140625 8.542969 C 14.679688 9.042969 14.160156 9.328125 13.484375 9.410156 C 12.679688 9.441406 12.085938 9.300781 11.460938 8.789062 C 10.917969 8.125 10.648438 7.589844 10.660156 6.722656 C 10.730469 6.039062 11.023438 5.472656 11.535156 5.011719 C 12.421875 4.347656 13.539062 4.253906 14.511719 4.816406 Z M 14.511719 4.816406 "/>
<path style=" stroke:none;fill-rule:nonzero;fill:rgb(17.647059%,21.176471%,37.254903%);fill-opacity:1;" d="M 12.75 16.21875 C 13.144531 16.476562 13.347656 16.707031 13.5 17.15625 C 13.578125 17.855469 13.558594 18.375 13.125 18.9375 C 12.714844 19.324219 12.34375 19.507812 11.785156 19.535156 C 11.253906 19.519531 10.832031 19.351562 10.445312 18.984375 C 10.015625 18.492188 10 18.070312 10.003906 17.4375 C 10.054688 16.925781 10.261719 16.640625 10.628906 16.285156 C 11.34375 15.824219 12.003906 15.832031 12.75 16.21875 Z M 12.75 16.21875 "/>
<path style=" stroke:none;fill-rule:nonzero;fill:rgb(17.647059%,21.176471%,37.254903%);fill-opacity:1;" d="M 5.273438 10.554688 C 5.652344 10.886719 5.886719 11.234375 5.921875 11.75 C 5.886719 12.230469 5.757812 12.5625 5.4375 12.9375 C 5 13.25 4.652344 13.28125 4.125 13.273438 C 3.664062 13.183594 3.386719 12.917969 3.09375 12.5625 C 2.898438 12.171875 2.960938 11.675781 3 11.25 C 3.234375 10.761719 3.519531 10.539062 4.011719 10.335938 C 4.480469 10.28125 4.855469 10.351562 5.273438 10.554688 Z M 5.273438 10.554688 "/>
</g>
</svg>
