<?xml version="1.0" encoding="UTF-8"?>
<svg xmlns="http://www.w3.org/2000/svg" xmlns:xlink="http://www.w3.org/1999/xlink" width="24" height="24" viewBox="0 0 24 24" version="1.1">
<g id="surface1">
<path style=" stroke:none;fill-rule:nonzero;fill:rgb(99.215686%,25.882354%,36.078432%);fill-opacity:1;" d="M 16.140625 0.363281 C 16.257812 0.359375 16.257812 0.359375 16.375 0.359375 C 16.628906 0.359375 16.882812 0.359375 17.136719 0.359375 C 17.316406 0.359375 17.492188 0.359375 17.667969 0.359375 C 18.039062 0.359375 18.410156 0.359375 18.78125 0.359375 C 19.257812 0.359375 19.730469 0.355469 20.207031 0.355469 C 20.574219 0.355469 20.9375 0.355469 21.304688 0.355469 C 21.480469 0.355469 21.65625 0.351562 21.828125 0.351562 C 22.074219 0.351562 22.320312 0.351562 22.566406 0.351562 C 22.636719 0.351562 22.710938 0.351562 22.785156 0.351562 C 23.28125 0.355469 23.640625 0.390625 24 0.75 C 24.03125 0.941406 24.03125 0.941406 24.035156 1.164062 C 24.039062 1.238281 24.039062 1.3125 24.042969 1.386719 C 24 1.59375 24 1.59375 23.855469 1.746094 C 23.535156 1.925781 23.242188 1.902344 22.886719 1.890625 C 22.730469 1.886719 22.578125 1.882812 22.421875 1.878906 C 22.339844 1.878906 22.257812 1.875 22.175781 1.875 C 21.742188 1.863281 21.304688 1.859375 20.871094 1.855469 C 20.316406 1.847656 19.765625 1.839844 19.214844 1.824219 C 16.925781 1.652344 16.925781 1.652344 14.910156 2.507812 C 14.421875 3.023438 14.105469 3.46875 14.066406 4.191406 C 14.070312 4.40625 14.070312 4.40625 14.128906 4.734375 C 14.160156 5.125 14.078125 5.296875 13.875 5.625 C 13.800781 5.742188 13.800781 5.742188 13.726562 5.867188 C 13.386719 6.207031 13.027344 6.425781 12.5625 6.5625 C 12.359375 6.542969 12.15625 6.515625 11.953125 6.484375 C 11.429688 6.460938 11.210938 6.5625 10.8125 6.910156 C 10.316406 7.390625 9.855469 7.90625 9.40625 8.433594 C 8.839844 9.09375 8.210938 9.699219 7.589844 10.308594 C 7.4375 10.457031 7.285156 10.605469 7.132812 10.757812 C 7.089844 10.800781 7.042969 10.847656 6.992188 10.894531 C 6.777344 11.105469 6.660156 11.238281 6.5625 11.53125 C 8.695312 11.53125 10.832031 11.53125 13.03125 11.53125 C 13.09375 11.347656 13.15625 11.160156 13.21875 10.96875 C 13.59375 10.492188 14.125 10.222656 14.71875 10.125 C 15.421875 10.089844 15.957031 10.230469 16.5 10.6875 C 16.765625 10.964844 16.886719 11.160156 16.96875 11.53125 C 17.042969 11.523438 17.121094 11.519531 17.195312 11.511719 C 18.058594 11.46875 18.570312 11.65625 19.296875 12.105469 C 19.394531 12.164062 19.492188 12.222656 19.597656 12.285156 C 19.804688 12.40625 20.011719 12.53125 20.21875 12.65625 C 20.527344 12.839844 20.835938 13.023438 21.148438 13.203125 C 21.613281 13.46875 22.070312 13.738281 22.53125 14.007812 C 22.703125 14.109375 22.871094 14.210938 23.042969 14.308594 C 23.128906 14.359375 23.210938 14.40625 23.296875 14.457031 C 23.371094 14.5 23.445312 14.542969 23.523438 14.589844 C 23.710938 14.714844 23.859375 14.820312 24 15 C 24.070312 15.636719 24.070312 15.636719 23.851562 15.984375 C 23.546875 16.175781 23.316406 16.195312 22.96875 16.125 C 22.582031 15.949219 22.222656 15.730469 21.859375 15.507812 C 21.699219 15.414062 21.539062 15.316406 21.378906 15.222656 C 21.210938 15.125 21.042969 15.023438 20.875 14.921875 C 20.53125 14.71875 20.183594 14.519531 19.839844 14.320312 C 19.78125 14.285156 19.726562 14.253906 19.671875 14.222656 C 19.558594 14.160156 19.449219 14.09375 19.339844 14.03125 C 19.082031 13.886719 18.824219 13.738281 18.570312 13.589844 C 18.484375 13.539062 18.398438 13.492188 18.3125 13.441406 C 18.140625 13.339844 17.976562 13.234375 17.8125 13.125 C 17.597656 13.082031 17.597656 13.082031 17.375 13.066406 C 17.296875 13.058594 17.222656 13.050781 17.144531 13.042969 C 17.054688 13.039062 17.054688 13.039062 16.96875 13.03125 C 16.964844 13.128906 16.964844 13.128906 16.960938 13.226562 C 16.796875 13.746094 16.375 14.058594 15.921875 14.335938 C 15.300781 14.511719 14.636719 14.5625 14.03125 14.296875 C 13.574219 14.03125 13.175781 13.597656 12.9375 13.125 C 9.78125 13.078125 9.78125 13.078125 6.5625 13.03125 C 6.46875 13.308594 6.46875 13.308594 6.375 13.59375 C 6.199219 13.789062 6.199219 13.789062 6 13.953125 C 5.933594 14.003906 5.867188 14.0625 5.800781 14.117188 C 5.625 14.25 5.625 14.25 5.4375 14.34375 C 5.292969 15.058594 5.207031 15.746094 5.601562 16.390625 C 5.816406 16.667969 6.046875 16.917969 6.292969 17.167969 C 6.371094 17.25 6.449219 17.332031 6.53125 17.414062 C 7.105469 17.953125 7.546875 18.089844 8.332031 18.085938 C 8.835938 18.097656 9.179688 18.28125 9.539062 18.625 C 9.890625 19.019531 10.132812 19.375 10.183594 19.910156 C 10.195312 20.011719 10.195312 20.011719 10.203125 20.117188 C 10.21875 20.34375 10.21875 20.34375 10.175781 20.605469 C 10.242188 21.085938 10.570312 21.316406 10.914062 21.632812 C 11.046875 21.757812 11.175781 21.882812 11.308594 22.007812 C 11.367188 22.0625 11.425781 22.113281 11.484375 22.171875 C 11.703125 22.390625 11.71875 22.5 11.75 22.816406 C 11.71875 23.15625 11.71875 23.15625 11.554688 23.378906 C 11.339844 23.535156 11.230469 23.609375 10.96875 23.625 C 10.460938 23.496094 10.164062 23.132812 9.8125 22.769531 C 9.753906 22.707031 9.695312 22.644531 9.628906 22.582031 C 9.484375 22.429688 9.335938 22.277344 9.1875 22.125 C 9.105469 22.15625 9.027344 22.183594 8.945312 22.214844 C 8.324219 22.402344 7.589844 22.4375 6.992188 22.164062 C 6.464844 21.851562 6.089844 21.394531 5.90625 20.8125 C 5.882812 20.519531 5.882812 20.519531 5.882812 20.210938 C 5.882812 20.054688 5.882812 20.054688 5.882812 19.898438 C 5.90625 19.582031 5.988281 19.328125 6.09375 19.03125 C 6.027344 18.96875 5.964844 18.902344 5.898438 18.835938 C 5.65625 18.597656 5.417969 18.359375 5.175781 18.121094 C 5.074219 18.015625 4.96875 17.914062 4.867188 17.808594 C 4.714844 17.660156 4.566406 17.515625 4.417969 17.363281 C 4.371094 17.320312 4.324219 17.273438 4.277344 17.226562 C 3.847656 16.792969 3.847656 16.792969 3.835938 16.460938 C 3.839844 16.367188 3.839844 16.273438 3.84375 16.175781 C 3.84375 16.074219 3.84375 15.972656 3.84375 15.867188 C 3.84375 15.648438 3.847656 15.433594 3.851562 15.21875 C 3.851562 14.90625 3.835938 14.644531 3.75 14.34375 C 3.550781 14.148438 3.359375 14.035156 3.109375 13.910156 C 2.875 13.765625 2.832031 13.671875 2.734375 13.421875 C 2.566406 13.109375 2.566406 13.109375 2.308594 13.070312 C 2.019531 13.050781 1.738281 13.050781 1.453125 13.0625 C 1.257812 13.0625 1.066406 13.066406 0.871094 13.066406 C 0.785156 13.066406 0.699219 13.070312 0.609375 13.070312 C 0.300781 13.019531 0.195312 12.894531 0 12.65625 C -0.0546875 12.46875 -0.0546875 12.46875 -0.0546875 12.28125 C -0.0546875 12.21875 -0.0546875 12.15625 -0.0585938 12.09375 C 0.0390625 11.777344 0.179688 11.691406 0.46875 11.53125 C 0.90625 11.472656 1.347656 11.492188 1.789062 11.5 C 2.046875 11.5 2.277344 11.496094 2.53125 11.4375 C 2.777344 11.183594 2.777344 11.183594 2.90625 10.875 C 3.179688 10.585938 3.449219 10.390625 3.84375 10.3125 C 3.84375 10.210938 3.839844 10.109375 3.839844 10 C 3.832031 9.035156 3.828125 8.070312 3.824219 7.105469 C 3.820312 6.609375 3.820312 6.113281 3.816406 5.613281 C 3.8125 5.136719 3.808594 4.65625 3.808594 4.179688 C 3.808594 3.996094 3.804688 3.8125 3.804688 3.628906 C 3.800781 3.375 3.800781 3.117188 3.800781 2.863281 C 3.800781 2.785156 3.796875 2.710938 3.796875 2.632812 C 3.800781 2.296875 3.8125 2.101562 4.019531 1.832031 C 4.257812 1.660156 4.394531 1.601562 4.6875 1.59375 C 5.015625 1.746094 5.140625 1.851562 5.34375 2.15625 C 5.363281 2.417969 5.371094 2.667969 5.375 2.929688 C 5.375 3.007812 5.375 3.085938 5.375 3.167969 C 5.378906 3.425781 5.382812 3.6875 5.382812 3.949219 C 5.382812 4.128906 5.386719 4.308594 5.386719 4.488281 C 5.394531 4.964844 5.398438 5.4375 5.398438 5.914062 C 5.402344 6.398438 5.40625 6.882812 5.414062 7.367188 C 5.421875 8.316406 5.429688 9.269531 5.4375 10.21875 C 5.8125 9.847656 6.1875 9.472656 6.5625 9.097656 C 6.691406 8.972656 6.816406 8.84375 6.945312 8.71875 C 7.84375 7.832031 7.84375 7.832031 8.6875 6.894531 C 8.828125 6.730469 8.984375 6.59375 9.148438 6.453125 C 9.789062 5.941406 9.789062 5.941406 10.0625 5.210938 C 10.007812 4.898438 10.007812 4.898438 9.917969 4.59375 C 9.785156 4.09375 9.902344 3.707031 10.144531 3.265625 C 10.527344 2.691406 10.988281 2.460938 11.625 2.25 C 12.03125 2.238281 12.324219 2.234375 12.714844 2.355469 C 13.015625 2.394531 13.105469 2.355469 13.355469 2.175781 C 13.609375 1.933594 13.847656 1.679688 14.085938 1.417969 C 14.25 1.242188 14.414062 1.066406 14.578125 0.890625 C 14.652344 0.8125 14.722656 0.734375 14.796875 0.652344 C 15.1875 0.300781 15.640625 0.363281 16.140625 0.363281 Z M 16.140625 0.363281 "/>
<path style=" stroke:none;fill-rule:nonzero;fill:rgb(99.607843%,80.392158%,0.784314%);fill-opacity:1;" d="M 16.140625 0.363281 C 16.21875 0.363281 16.296875 0.359375 16.375 0.359375 C 16.628906 0.359375 16.882812 0.359375 17.136719 0.359375 C 17.316406 0.359375 17.492188 0.359375 17.667969 0.359375 C 18.039062 0.359375 18.410156 0.359375 18.78125 0.359375 C 19.257812 0.359375 19.730469 0.355469 20.207031 0.355469 C 20.574219 0.355469 20.9375 0.355469 21.304688 0.355469 C 21.480469 0.355469 21.65625 0.351562 21.828125 0.351562 C 22.074219 0.351562 22.320312 0.351562 22.566406 0.351562 C 22.636719 0.351562 22.710938 0.351562 22.785156 0.351562 C 23.28125 0.355469 23.640625 0.390625 24 0.75 C 24.03125 0.941406 24.03125 0.941406 24.035156 1.164062 C 24.039062 1.238281 24.039062 1.3125 24.042969 1.386719 C 24 1.59375 24 1.59375 23.855469 1.746094 C 23.535156 1.925781 23.242188 1.902344 22.886719 1.890625 C 22.730469 1.886719 22.578125 1.882812 22.421875 1.878906 C 22.339844 1.878906 22.257812 1.875 22.175781 1.875 C 21.742188 1.863281 21.304688 1.859375 20.871094 1.855469 C 20.316406 1.847656 19.765625 1.839844 19.214844 1.824219 C 16.925781 1.652344 16.925781 1.652344 14.910156 2.507812 C 14.421875 3.023438 14.105469 3.46875 14.066406 4.191406 C 14.070312 4.40625 14.070312 4.40625 14.128906 4.734375 C 14.160156 5.125 14.078125 5.296875 13.875 5.625 C 13.800781 5.742188 13.800781 5.742188 13.726562 5.867188 C 13.386719 6.207031 13.027344 6.425781 12.5625 6.5625 C 12.359375 6.542969 12.15625 6.515625 11.953125 6.484375 C 11.429688 6.460938 11.210938 6.5625 10.8125 6.910156 C 10.316406 7.390625 9.859375 7.90625 9.410156 8.429688 C 8.921875 9 8.394531 9.527344 7.867188 10.058594 C 7.703125 10.21875 7.542969 10.382812 7.378906 10.546875 C 7.277344 10.652344 7.171875 10.753906 7.070312 10.859375 C 7.023438 10.90625 6.972656 10.957031 6.925781 11.003906 C 6.582031 11.34375 6.582031 11.34375 6.375 11.34375 C 6.320312 11.257812 6.265625 11.171875 6.210938 11.085938 C 5.972656 10.746094 5.789062 10.613281 5.4375 10.40625 C 5.589844 10.015625 5.878906 9.753906 6.175781 9.46875 C 6.226562 9.414062 6.28125 9.359375 6.339844 9.304688 C 6.511719 9.132812 6.6875 8.960938 6.859375 8.789062 C 7.089844 8.566406 7.316406 8.339844 7.542969 8.113281 C 7.628906 8.03125 7.628906 8.03125 7.710938 7.949219 C 8.046875 7.613281 8.363281 7.269531 8.667969 6.90625 C 8.820312 6.742188 8.980469 6.597656 9.148438 6.453125 C 9.789062 5.941406 9.789062 5.941406 10.0625 5.210938 C 10.007812 4.898438 10.007812 4.898438 9.917969 4.59375 C 9.785156 4.09375 9.902344 3.707031 10.144531 3.265625 C 10.527344 2.691406 10.988281 2.460938 11.625 2.25 C 12.03125 2.238281 12.324219 2.234375 12.714844 2.355469 C 13.015625 2.394531 13.105469 2.355469 13.355469 2.175781 C 13.609375 1.933594 13.847656 1.679688 14.085938 1.417969 C 14.25 1.242188 14.414062 1.066406 14.578125 0.890625 C 14.652344 0.8125 14.722656 0.734375 14.796875 0.652344 C 15.1875 0.300781 15.640625 0.363281 16.140625 0.363281 Z M 16.140625 0.363281 "/>
<path style=" stroke:none;fill-rule:nonzero;fill:rgb(0.392157%,25.882354%,61.56863%);fill-opacity:1;" d="M 16.34375 10.558594 C 16.6875 10.84375 16.875 11.097656 16.96875 11.53125 C 17.082031 11.519531 17.082031 11.519531 17.195312 11.511719 C 18.054688 11.46875 18.570312 11.65625 19.296875 12.105469 C 19.394531 12.164062 19.492188 12.222656 19.597656 12.285156 C 19.804688 12.40625 20.011719 12.53125 20.21875 12.65625 C 20.527344 12.839844 20.839844 13.023438 21.148438 13.203125 C 21.613281 13.46875 22.074219 13.738281 22.53125 14.007812 C 22.703125 14.109375 22.875 14.210938 23.042969 14.308594 C 23.128906 14.359375 23.210938 14.40625 23.296875 14.457031 C 23.371094 14.5 23.445312 14.542969 23.523438 14.589844 C 23.710938 14.714844 23.859375 14.820312 24 15 C 24.070312 15.636719 24.070312 15.636719 23.851562 15.984375 C 23.546875 16.171875 23.316406 16.195312 22.96875 16.125 C 22.582031 15.949219 22.222656 15.730469 21.859375 15.507812 C 21.699219 15.414062 21.539062 15.316406 21.378906 15.222656 C 21.210938 15.125 21.042969 15.023438 20.875 14.921875 C 20.53125 14.71875 20.1875 14.519531 19.839844 14.320312 C 19.753906 14.269531 19.753906 14.269531 19.671875 14.222656 C 19.558594 14.160156 19.449219 14.09375 19.339844 14.03125 C 19.082031 13.886719 18.824219 13.738281 18.570312 13.589844 C 18.484375 13.539062 18.398438 13.492188 18.3125 13.441406 C 18.140625 13.339844 17.976562 13.234375 17.8125 13.125 C 17.597656 13.082031 17.597656 13.082031 17.375 13.066406 C 17.296875 13.058594 17.222656 13.050781 17.144531 13.042969 C 17.085938 13.039062 17.027344 13.035156 16.96875 13.03125 C 16.96875 13.09375 16.964844 13.160156 16.960938 13.226562 C 16.796875 13.746094 16.378906 14.058594 15.921875 14.335938 C 15.300781 14.511719 14.636719 14.5625 14.03125 14.296875 C 13.574219 14.03125 13.175781 13.597656 12.9375 13.125 C 9.78125 13.078125 9.78125 13.078125 6.5625 13.03125 C 6.5625 12.535156 6.5625 12.039062 6.5625 11.53125 C 8.699219 11.53125 10.832031 11.53125 13.03125 11.53125 C 13.09375 11.34375 13.15625 11.160156 13.21875 10.96875 C 13.980469 10 15.363281 9.859375 16.34375 10.558594 Z M 16.34375 10.558594 "/>
<path style=" stroke:none;fill-rule:nonzero;fill:rgb(99.607843%,25.490198%,35.686275%);fill-opacity:1;" d="M 3.84375 14.34375 C 4.339844 14.34375 4.832031 14.34375 5.34375 14.34375 C 5.320312 14.503906 5.320312 14.503906 5.296875 14.667969 C 5.238281 15.453125 5.316406 16.027344 5.816406 16.65625 C 5.972656 16.832031 6.132812 17 6.300781 17.167969 C 6.375 17.25 6.453125 17.332031 6.535156 17.414062 C 7.109375 17.957031 7.546875 18.09375 8.332031 18.085938 C 8.835938 18.097656 9.179688 18.28125 9.539062 18.625 C 9.890625 19.019531 10.132812 19.375 10.183594 19.910156 C 10.191406 19.976562 10.195312 20.046875 10.203125 20.117188 C 10.21875 20.34375 10.21875 20.34375 10.175781 20.605469 C 10.242188 21.085938 10.570312 21.316406 10.917969 21.632812 C 11.046875 21.757812 11.179688 21.882812 11.308594 22.007812 C 11.394531 22.085938 11.394531 22.085938 11.484375 22.171875 C 11.703125 22.390625 11.71875 22.5 11.746094 22.816406 C 11.71875 23.15625 11.71875 23.15625 11.554688 23.378906 C 11.339844 23.53125 11.230469 23.609375 10.96875 23.625 C 10.460938 23.496094 10.164062 23.132812 9.816406 22.769531 C 9.753906 22.707031 9.695312 22.644531 9.632812 22.582031 C 9.484375 22.429688 9.335938 22.277344 9.1875 22.125 C 9.105469 22.15625 9.027344 22.183594 8.945312 22.21875 C 8.324219 22.402344 7.59375 22.4375 6.988281 22.167969 C 6.464844 21.851562 6.089844 21.394531 5.90625 20.8125 C 5.882812 20.519531 5.882812 20.519531 5.882812 20.207031 C 5.882812 20.105469 5.882812 20.003906 5.882812 19.898438 C 5.90625 19.582031 5.988281 19.328125 6.09375 19.03125 C 5.996094 18.933594 5.996094 18.933594 5.898438 18.835938 C 5.65625 18.597656 5.417969 18.359375 5.179688 18.121094 C 5.074219 18.015625 4.96875 17.914062 4.867188 17.8125 C 4.714844 17.664062 4.566406 17.511719 4.417969 17.367188 C 4.371094 17.320312 4.324219 17.273438 4.277344 17.226562 C 3.847656 16.796875 3.847656 16.796875 3.832031 16.453125 C 3.832031 16.355469 3.835938 16.257812 3.835938 16.15625 C 3.835938 16.050781 3.835938 15.945312 3.835938 15.839844 C 3.835938 15.726562 3.835938 15.617188 3.839844 15.503906 C 3.839844 15.394531 3.839844 15.28125 3.839844 15.167969 C 3.839844 14.894531 3.84375 14.617188 3.84375 14.34375 Z M 3.84375 14.34375 "/>
<path style=" stroke:none;fill-rule:nonzero;fill:rgb(99.607843%,86.666667%,27.058825%);fill-opacity:1;" d="M 12 2.25 C 12.046875 2.992188 12.046875 2.992188 12.09375 3.75 C 12.28125 3.796875 12.28125 3.796875 12.46875 3.84375 C 12.632812 3.957031 12.632812 3.957031 12.75 4.125 C 12.796875 4.394531 12.796875 4.394531 12.75 4.6875 C 12.527344 4.957031 12.527344 4.957031 12.28125 5.15625 C 12.21875 5.15625 12.15625 5.15625 12.09375 5.15625 C 12.0625 5.621094 12.03125 6.085938 12 6.5625 C 11.894531 6.546875 11.789062 6.53125 11.679688 6.511719 C 11.285156 6.515625 11.113281 6.640625 10.832031 6.90625 C 10.6875 7.054688 10.542969 7.207031 10.402344 7.359375 C 10.328125 7.433594 10.257812 7.507812 10.183594 7.585938 C 9.867188 7.917969 9.554688 8.253906 9.257812 8.605469 C 8.816406 9.113281 8.339844 9.582031 7.867188 10.058594 C 7.703125 10.21875 7.542969 10.382812 7.378906 10.546875 C 7.277344 10.652344 7.171875 10.753906 7.070312 10.855469 C 7.023438 10.90625 6.972656 10.957031 6.925781 11.003906 C 6.585938 11.34375 6.585938 11.34375 6.375 11.34375 C 6.320312 11.257812 6.265625 11.175781 6.210938 11.085938 C 5.972656 10.742188 5.789062 10.613281 5.4375 10.40625 C 5.589844 10.015625 5.878906 9.753906 6.175781 9.46875 C 6.230469 9.414062 6.28125 9.359375 6.339844 9.304688 C 6.511719 9.132812 6.6875 8.960938 6.863281 8.789062 C 7.089844 8.5625 7.316406 8.339844 7.546875 8.113281 C 7.597656 8.058594 7.65625 8.003906 7.710938 7.949219 C 8.046875 7.617188 8.363281 7.269531 8.671875 6.90625 C 8.820312 6.742188 8.980469 6.597656 9.148438 6.453125 C 9.789062 5.941406 9.789062 5.941406 10.0625 5.210938 C 10.007812 4.898438 10.007812 4.898438 9.917969 4.59375 C 9.785156 4.09375 9.898438 3.707031 10.144531 3.261719 C 10.578125 2.621094 11.21875 2.25 12 2.25 Z M 12 2.25 "/>
<path style=" stroke:none;fill-rule:nonzero;fill:rgb(100%,9.803922%,23.529412%);fill-opacity:1;" d="M 5.0625 1.78125 C 5.320312 2.019531 5.34375 2.15625 5.378906 2.511719 C 5.378906 2.65625 5.378906 2.800781 5.375 2.949219 C 5.375 3.066406 5.375 3.066406 5.375 3.1875 C 5.375 3.453125 5.375 3.714844 5.371094 3.976562 C 5.371094 4.160156 5.371094 4.339844 5.371094 4.523438 C 5.367188 5.003906 5.367188 5.484375 5.363281 5.960938 C 5.359375 6.453125 5.359375 6.941406 5.359375 7.429688 C 5.355469 8.390625 5.347656 9.351562 5.34375 10.3125 C 4.847656 10.3125 4.355469 10.3125 3.84375 10.3125 C 3.835938 9.242188 3.828125 8.175781 3.824219 7.105469 C 3.820312 6.609375 3.820312 6.113281 3.816406 5.617188 C 3.8125 5.136719 3.808594 4.65625 3.808594 4.179688 C 3.808594 3.996094 3.804688 3.8125 3.804688 3.628906 C 3.800781 3.375 3.800781 3.117188 3.800781 2.863281 C 3.800781 2.785156 3.796875 2.710938 3.796875 2.632812 C 3.800781 2.296875 3.8125 2.101562 4.015625 1.832031 C 4.414062 1.546875 4.628906 1.59375 5.0625 1.78125 Z M 5.0625 1.78125 "/>
<path style=" stroke:none;fill-rule:nonzero;fill:rgb(0%,43.921569%,99.215686%);fill-opacity:1;" d="M 16.96875 11.53125 C 17.9375 11.464844 18.476562 11.601562 19.292969 12.105469 C 19.394531 12.164062 19.492188 12.222656 19.597656 12.28125 C 19.804688 12.40625 20.011719 12.53125 20.21875 12.65625 C 20.527344 12.839844 20.835938 13.023438 21.148438 13.203125 C 21.613281 13.46875 22.074219 13.738281 22.53125 14.007812 C 22.703125 14.109375 22.875 14.210938 23.042969 14.308594 C 23.128906 14.359375 23.210938 14.40625 23.296875 14.457031 C 23.371094 14.5 23.445312 14.546875 23.523438 14.589844 C 23.714844 14.714844 23.859375 14.820312 24 15 C 24.070312 15.636719 24.070312 15.636719 23.855469 15.984375 C 23.546875 16.171875 23.316406 16.195312 22.96875 16.125 C 22.582031 15.949219 22.222656 15.730469 21.863281 15.511719 C 21.699219 15.414062 21.539062 15.320312 21.378906 15.222656 C 21.210938 15.125 21.042969 15.023438 20.875 14.921875 C 20.53125 14.71875 20.183594 14.519531 19.839844 14.320312 C 19.78125 14.285156 19.726562 14.253906 19.667969 14.222656 C 19.558594 14.15625 19.449219 14.09375 19.339844 14.03125 C 19.082031 13.882812 18.824219 13.738281 18.570312 13.589844 C 18.484375 13.539062 18.398438 13.492188 18.308594 13.441406 C 18.140625 13.339844 17.976562 13.234375 17.8125 13.125 C 17.53125 13.074219 17.253906 13.054688 16.96875 13.03125 C 16.96875 12.535156 16.96875 12.042969 16.96875 11.53125 Z M 16.96875 11.53125 "/>
<path style=" stroke:none;fill-rule:nonzero;fill:rgb(0%,67.058825%,90.980393%);fill-opacity:1;" d="M 6.5625 11.53125 C 8.695312 11.53125 10.832031 11.53125 13.03125 11.53125 C 13 12.027344 12.96875 12.519531 12.9375 13.03125 C 10.832031 13.03125 8.730469 13.03125 6.5625 13.03125 C 6.5625 12.535156 6.5625 12.042969 6.5625 11.53125 Z M 6.5625 11.53125 "/>
<path style=" stroke:none;fill-rule:nonzero;fill:rgb(98.823529%,74.901962%,0.784314%);fill-opacity:1;" d="M 12 2.25 C 12.046875 2.992188 12.046875 2.992188 12.09375 3.75 C 12.21875 3.78125 12.339844 3.8125 12.46875 3.84375 C 12.632812 3.957031 12.632812 3.957031 12.75 4.125 C 12.796875 4.394531 12.796875 4.394531 12.75 4.6875 C 12.527344 4.957031 12.527344 4.957031 12.28125 5.15625 C 12.21875 5.15625 12.15625 5.15625 12.09375 5.15625 C 12.0625 5.621094 12.03125 6.085938 12 6.5625 C 11.199219 6.449219 10.808594 6.1875 10.222656 5.652344 C 9.886719 5.109375 9.785156 4.507812 9.890625 3.871094 C 10.039062 3.34375 10.324219 2.894531 10.789062 2.59375 C 11.195312 2.382812 11.535156 2.25 12 2.25 Z M 12 2.25 "/>
<path style=" stroke:none;fill-rule:nonzero;fill:rgb(100%,9.803922%,23.921569%);fill-opacity:1;" d="M 3.84375 14.34375 C 4.339844 14.34375 4.832031 14.34375 5.34375 14.34375 C 5.328125 14.449219 5.3125 14.554688 5.296875 14.664062 C 5.242188 15.3125 5.246094 15.855469 5.636719 16.402344 C 6.179688 17.015625 6.78125 17.5625 7.40625 18.09375 C 7.332031 18.152344 7.257812 18.210938 7.183594 18.269531 C 6.980469 18.433594 6.777344 18.601562 6.582031 18.773438 C 6.523438 18.820312 6.46875 18.871094 6.410156 18.921875 C 6.34375 18.976562 6.34375 18.976562 6.28125 19.03125 C 5.929688 18.886719 5.707031 18.667969 5.441406 18.402344 C 5.355469 18.3125 5.269531 18.226562 5.179688 18.136719 C 5.132812 18.089844 5.085938 18.046875 5.042969 18 C 4.902344 17.859375 4.765625 17.71875 4.628906 17.582031 C 3.847656 16.800781 3.847656 16.800781 3.832031 16.453125 C 3.832031 16.355469 3.835938 16.257812 3.835938 16.15625 C 3.835938 16.050781 3.835938 15.945312 3.835938 15.839844 C 3.835938 15.726562 3.835938 15.617188 3.839844 15.503906 C 3.839844 15.394531 3.839844 15.28125 3.839844 15.167969 C 3.839844 14.894531 3.84375 14.617188 3.84375 14.34375 Z M 3.84375 14.34375 "/>
<path style=" stroke:none;fill-rule:nonzero;fill:rgb(99.607843%,57.647061%,0%);fill-opacity:1;" d="M 12 2.25 C 12.714844 2.332031 12.714844 2.332031 13.03125 2.4375 C 13.03125 2.5 13.03125 2.5625 13.03125 2.625 C 13.101562 2.648438 13.171875 2.667969 13.246094 2.691406 C 13.542969 2.832031 13.632812 2.957031 13.804688 3.234375 C 13.851562 3.308594 13.898438 3.382812 13.945312 3.460938 C 14.246094 3.96875 14.195312 4.484375 14.15625 5.0625 C 14.039062 5.390625 14.039062 5.390625 13.875 5.625 C 13.804688 5.742188 13.804688 5.742188 13.730469 5.863281 C 13.316406 6.277344 12.804688 6.542969 12.222656 6.589844 C 12.148438 6.582031 12.074219 6.574219 12 6.5625 C 11.992188 6.078125 12.015625 5.632812 12.09375 5.15625 C 12.25 5.09375 12.402344 5.03125 12.5625 4.96875 C 12.585938 4.835938 12.605469 4.699219 12.628906 4.566406 C 12.640625 4.488281 12.652344 4.414062 12.664062 4.335938 C 12.675781 4.121094 12.675781 4.121094 12.535156 3.960938 C 12.367188 3.824219 12.367188 3.824219 12.09375 3.75 C 12.0625 3.253906 12.03125 2.761719 12 2.25 Z M 12 2.25 "/>
<path style=" stroke:none;fill-rule:nonzero;fill:rgb(100%,9.803922%,23.921569%);fill-opacity:1;" d="M 10.03125 20.8125 C 11.46875 22 11.46875 22 11.71875 22.5 C 11.773438 23.082031 11.773438 23.082031 11.554688 23.378906 C 11.339844 23.53125 11.230469 23.609375 10.96875 23.625 C 10.460938 23.496094 10.164062 23.132812 9.816406 22.769531 C 9.753906 22.707031 9.695312 22.644531 9.632812 22.582031 C 9.484375 22.429688 9.335938 22.277344 9.1875 22.125 C 9.355469 21.761719 9.585938 21.492188 9.84375 21.1875 C 9.910156 21.0625 9.972656 20.9375 10.03125 20.8125 Z M 10.03125 20.8125 "/>
<path style=" stroke:none;fill-rule:nonzero;fill:rgb(0%,67.058825%,90.980393%);fill-opacity:1;" d="M 1.53125 11.507812 C 1.671875 11.511719 1.671875 11.511719 1.820312 11.511719 C 2.058594 11.515625 2.292969 11.523438 2.53125 11.53125 C 2.53125 12.027344 2.53125 12.519531 2.53125 13.03125 C 2.179688 13.042969 1.828125 13.050781 1.476562 13.054688 C 1.375 13.058594 1.277344 13.0625 1.175781 13.0625 C 1.078125 13.066406 0.984375 13.066406 0.882812 13.066406 C 0.796875 13.070312 0.707031 13.070312 0.617188 13.074219 C 0.304688 13.019531 0.195312 12.898438 0 12.65625 C -0.0546875 12.46875 -0.0546875 12.46875 -0.0546875 12.28125 C -0.0546875 12.21875 -0.0585938 12.15625 -0.0585938 12.09375 C 0.167969 11.375 0.921875 11.488281 1.53125 11.507812 Z M 1.53125 11.507812 "/>
<path style=" stroke:none;fill-rule:nonzero;fill:rgb(96.470588%,90.196079%,89.019608%);fill-opacity:1;" d="M 4.875 11.625 C 5.105469 11.777344 5.105469 11.777344 5.25 12 C 5.300781 12.277344 5.300781 12.277344 5.25 12.5625 C 5.035156 12.84375 4.894531 13.003906 4.546875 13.089844 C 4.195312 13.003906 4.054688 12.855469 3.84375 12.5625 C 3.84375 12.230469 3.875 12.011719 4.042969 11.722656 C 4.328125 11.5625 4.554688 11.585938 4.875 11.625 Z M 4.875 11.625 "/>
<path style=" stroke:none;fill-rule:nonzero;fill:rgb(96.470588%,90.980393%,89.411765%);fill-opacity:1;" d="M 8.4375 19.59375 C 8.621094 19.707031 8.621094 19.707031 8.71875 19.875 C 8.785156 20.253906 8.75 20.394531 8.527344 20.714844 C 8.25 20.90625 8.25 20.90625 7.910156 20.910156 C 7.59375 20.8125 7.59375 20.8125 7.40625 20.660156 C 7.269531 20.332031 7.3125 20.121094 7.40625 19.78125 C 7.707031 19.410156 8.003906 19.484375 8.4375 19.59375 Z M 8.4375 19.59375 "/>
<path style=" stroke:none;fill-rule:nonzero;fill:rgb(90.588236%,86.274511%,85.490197%);fill-opacity:1;" d="M 15.28125 11.625 C 15.503906 11.769531 15.503906 11.769531 15.65625 12 C 15.707031 12.328125 15.707031 12.328125 15.65625 12.65625 C 15.457031 12.890625 15.457031 12.890625 15.1875 13.03125 C 14.890625 13.027344 14.707031 12.984375 14.449219 12.839844 C 14.277344 12.539062 14.28125 12.238281 14.34375 11.90625 C 14.605469 11.585938 14.882812 11.566406 15.28125 11.625 Z M 15.28125 11.625 "/>
<path style=" stroke:none;fill-rule:nonzero;fill:rgb(96.078432%,92.54902%,89.019608%);fill-opacity:1;" d="M 12.375 3.75 C 12.605469 3.902344 12.605469 3.902344 12.75 4.125 C 12.808594 4.464844 12.792969 4.621094 12.605469 4.910156 C 12.285156 5.121094 12.089844 5.117188 11.71875 5.0625 C 11.488281 4.910156 11.488281 4.910156 11.34375 4.6875 C 11.285156 4.347656 11.300781 4.191406 11.488281 3.902344 C 11.808594 3.691406 12.003906 3.695312 12.375 3.75 Z M 12.375 3.75 "/>
<path style=" stroke:none;fill-rule:nonzero;fill:rgb(0%,44.705883%,98.431373%);fill-opacity:1;" d="M 12 11.53125 C 12.339844 11.53125 12.679688 11.53125 13.03125 11.53125 C 13 12.027344 12.96875 12.519531 12.9375 13.03125 C 12.628906 13.03125 12.320312 13.03125 12 13.03125 C 12 12.535156 12 12.042969 12 11.53125 Z M 12 11.53125 "/>
<path style=" stroke:none;fill-rule:nonzero;fill:rgb(93.333334%,87.058824%,82.745099%);fill-opacity:1;" d="M 12.09375 3.75 C 12.574219 3.871094 12.574219 3.871094 12.75 4.125 C 12.792969 4.402344 12.792969 4.402344 12.75 4.6875 C 12.582031 4.910156 12.582031 4.910156 12.375 5.0625 C 12.28125 5.0625 12.1875 5.0625 12.09375 5.0625 C 12.09375 4.628906 12.09375 4.195312 12.09375 3.75 Z M 12.09375 3.75 "/>
</g>
</svg>
