<?xml version="1.0" encoding="UTF-8"?>
<svg xmlns="http://www.w3.org/2000/svg" xmlns:xlink="http://www.w3.org/1999/xlink" width="24" height="24" viewBox="0 0 24 24" version="1.1">
<g id="surface1">
<path style=" stroke:none;fill-rule:nonzero;fill:rgb(96.470588%,96.862745%,97.254902%);fill-opacity:1;" d="M 2.78125 0.445312 C 2.863281 0.445312 2.945312 0.441406 3.027344 0.441406 C 3.304688 0.441406 3.578125 0.441406 3.851562 0.441406 C 4.046875 0.441406 4.246094 0.441406 4.441406 0.441406 C 4.976562 0.4375 5.507812 0.4375 6.042969 0.4375 C 6.488281 0.4375 6.933594 0.4375 7.378906 0.4375 C 8.429688 0.433594 9.484375 0.433594 10.535156 0.433594 C 11.621094 0.433594 12.703125 0.433594 13.789062 0.429688 C 14.71875 0.425781 15.652344 0.425781 16.582031 0.425781 C 17.136719 0.425781 17.695312 0.425781 18.25 0.421875 C 18.773438 0.421875 19.296875 0.421875 19.820312 0.421875 C 20.011719 0.421875 20.203125 0.421875 20.394531 0.421875 C 20.65625 0.421875 20.921875 0.421875 21.183594 0.421875 C 21.296875 0.421875 21.296875 0.421875 21.410156 0.417969 C 22.019531 0.425781 22.507812 0.605469 22.972656 1.007812 C 23.035156 1.085938 23.035156 1.085938 23.097656 1.164062 C 23.164062 1.246094 23.164062 1.246094 23.230469 1.324219 C 23.519531 1.769531 23.558594 2.183594 23.558594 2.707031 C 23.558594 2.78125 23.558594 2.855469 23.558594 2.929688 C 23.558594 3.175781 23.558594 3.425781 23.558594 3.671875 C 23.558594 3.847656 23.558594 4.023438 23.558594 4.203125 C 23.5625 4.683594 23.5625 5.164062 23.5625 5.644531 C 23.5625 5.945312 23.5625 6.246094 23.5625 6.546875 C 23.566406 7.597656 23.566406 8.644531 23.566406 9.691406 C 23.566406 10.671875 23.566406 11.648438 23.570312 12.625 C 23.574219 13.464844 23.574219 14.304688 23.574219 15.144531 C 23.574219 15.644531 23.574219 16.144531 23.578125 16.648438 C 23.578125 17.117188 23.578125 17.589844 23.578125 18.0625 C 23.578125 18.234375 23.578125 18.40625 23.578125 18.578125 C 23.582031 18.816406 23.578125 19.050781 23.578125 19.289062 C 23.578125 19.355469 23.578125 19.425781 23.582031 19.496094 C 23.570312 20.136719 23.347656 20.617188 22.898438 21.078125 C 22.242188 21.515625 21.605469 21.679688 20.8125 21.5625 C 20.558594 21.386719 20.558594 21.386719 20.4375 21.1875 C 20.4375 21.125 20.4375 21.0625 20.4375 21 C 20.222656 21.03125 20.003906 21.0625 19.78125 21.09375 C 19.828125 21.171875 19.875 21.253906 19.921875 21.335938 C 20.105469 21.753906 20.148438 22.070312 19.996094 22.507812 C 19.808594 22.917969 19.605469 23.1875 19.21875 23.4375 C 18.8125 23.574219 18.425781 23.578125 18 23.53125 C 17.53125 23.296875 17.203125 22.96875 16.96875 22.5 C 16.964844 22.1875 16.976562 21.875 16.984375 21.558594 C 17 21.269531 17 21.269531 16.78125 21.09375 C 16.53125 21.039062 16.285156 21.023438 16.03125 21 C 16.023438 21.097656 16.015625 21.195312 16.007812 21.292969 C 15.914062 21.769531 15.75 22.082031 15.351562 22.371094 C 15.042969 22.523438 14.828125 22.535156 14.484375 22.539062 C 14.359375 22.539062 14.238281 22.542969 14.113281 22.542969 C 13.980469 22.542969 13.851562 22.542969 13.71875 22.542969 C 13.582031 22.542969 13.445312 22.546875 13.308594 22.546875 C 13.023438 22.546875 12.738281 22.546875 12.449219 22.546875 C 12.085938 22.546875 11.722656 22.550781 11.355469 22.554688 C 11.074219 22.554688 10.792969 22.554688 10.511719 22.554688 C 10.375 22.554688 10.242188 22.554688 10.105469 22.558594 C 8.929688 22.570312 8.929688 22.570312 8.503906 22.28125 C 8.164062 21.945312 7.980469 21.675781 7.949219 21.199219 C 7.957031 21.132812 7.960938 21.066406 7.96875 21 C 7.445312 21.019531 7.445312 21.019531 7.03125 21.28125 C 7.027344 21.476562 7.03125 21.671875 7.042969 21.867188 C 7.050781 22.382812 7.023438 22.671875 6.65625 23.0625 C 6.183594 23.476562 5.917969 23.558594 5.300781 23.550781 C 4.855469 23.515625 4.59375 23.347656 4.289062 23.027344 C 3.980469 22.5625 3.890625 22.21875 3.9375 21.65625 C 4.015625 21.425781 4.109375 21.21875 4.21875 21 C 4.003906 21 3.785156 21 3.5625 21 C 3.523438 21.113281 3.523438 21.113281 3.480469 21.226562 C 3.375 21.46875 3.375 21.46875 3.1875 21.5625 C 2.472656 21.636719 1.839844 21.558594 1.21875 21.1875 C 0.753906 20.78125 0.488281 20.347656 0.445312 19.722656 C 0.445312 19.589844 0.441406 19.457031 0.445312 19.324219 C 0.445312 19.25 0.441406 19.175781 0.441406 19.101562 C 0.441406 18.855469 0.441406 18.605469 0.441406 18.359375 C 0.441406 18.183594 0.441406 18.007812 0.441406 17.828125 C 0.4375 17.347656 0.4375 16.867188 0.4375 16.386719 C 0.4375 16.085938 0.4375 15.785156 0.4375 15.484375 C 0.433594 14.4375 0.433594 13.386719 0.433594 12.335938 C 0.433594 11.359375 0.433594 10.382812 0.429688 9.40625 C 0.425781 8.566406 0.425781 7.726562 0.425781 6.886719 C 0.425781 6.386719 0.425781 5.886719 0.421875 5.382812 C 0.421875 4.914062 0.421875 4.441406 0.421875 3.96875 C 0.421875 3.796875 0.421875 3.625 0.421875 3.453125 C 0.421875 3.214844 0.421875 2.980469 0.421875 2.742188 C 0.421875 2.675781 0.421875 2.605469 0.417969 2.539062 C 0.425781 1.953125 0.625 1.472656 1.007812 1.027344 C 1.058594 0.988281 1.113281 0.945312 1.167969 0.902344 C 1.21875 0.859375 1.269531 0.816406 1.324219 0.769531 C 1.792969 0.464844 2.230469 0.441406 2.78125 0.445312 Z M 2.78125 0.445312 "/>
<path style=" stroke:none;fill-rule:nonzero;fill:rgb(25.882354%,25.882354%,25.882354%);fill-opacity:1;" d="M 2.78125 0.445312 C 2.863281 0.445312 2.945312 0.441406 3.027344 0.441406 C 3.304688 0.441406 3.578125 0.441406 3.851562 0.441406 C 4.046875 0.441406 4.246094 0.441406 4.441406 0.441406 C 4.976562 0.4375 5.507812 0.4375 6.042969 0.4375 C 6.488281 0.4375 6.933594 0.4375 7.378906 0.4375 C 8.429688 0.433594 9.484375 0.433594 10.535156 0.433594 C 11.621094 0.433594 12.703125 0.433594 13.789062 0.429688 C 14.71875 0.425781 15.652344 0.425781 16.582031 0.425781 C 17.136719 0.425781 17.695312 0.425781 18.25 0.421875 C 18.773438 0.421875 19.296875 0.421875 19.820312 0.421875 C 20.011719 0.421875 20.203125 0.421875 20.394531 0.421875 C 20.65625 0.421875 20.921875 0.421875 21.183594 0.421875 C 21.296875 0.421875 21.296875 0.421875 21.410156 0.417969 C 22.019531 0.425781 22.507812 0.605469 22.972656 1.007812 C 23.035156 1.085938 23.035156 1.085938 23.097656 1.164062 C 23.164062 1.246094 23.164062 1.246094 23.230469 1.324219 C 23.519531 1.769531 23.558594 2.183594 23.558594 2.707031 C 23.558594 2.78125 23.558594 2.855469 23.558594 2.929688 C 23.558594 3.175781 23.558594 3.425781 23.558594 3.671875 C 23.558594 3.847656 23.558594 4.023438 23.558594 4.203125 C 23.5625 4.683594 23.5625 5.164062 23.5625 5.644531 C 23.5625 5.945312 23.5625 6.246094 23.5625 6.546875 C 23.566406 7.597656 23.566406 8.644531 23.566406 9.691406 C 23.566406 10.671875 23.566406 11.648438 23.570312 12.625 C 23.574219 13.464844 23.574219 14.304688 23.574219 15.144531 C 23.574219 15.644531 23.574219 16.144531 23.578125 16.648438 C 23.578125 17.117188 23.578125 17.589844 23.578125 18.0625 C 23.578125 18.234375 23.578125 18.40625 23.578125 18.578125 C 23.582031 18.816406 23.578125 19.050781 23.578125 19.289062 C 23.578125 19.355469 23.578125 19.425781 23.582031 19.496094 C 23.570312 20.136719 23.347656 20.617188 22.898438 21.078125 C 22.246094 21.515625 21.605469 21.683594 20.8125 21.5625 C 20.558594 21.375 20.558594 21.375 20.4375 21.1875 C 20.613281 20.636719 20.613281 20.636719 20.71875 20.53125 C 20.882812 20.515625 21.046875 20.503906 21.210938 20.496094 C 21.617188 20.460938 21.898438 20.425781 22.21875 20.15625 C 22.445312 19.816406 22.429688 19.660156 22.433594 19.257812 C 22.433594 19.195312 22.433594 19.132812 22.433594 19.066406 C 22.433594 18.855469 22.433594 18.644531 22.4375 18.429688 C 22.4375 18.277344 22.4375 18.125 22.4375 17.96875 C 22.441406 17.558594 22.441406 17.144531 22.445312 16.730469 C 22.445312 16.34375 22.449219 15.957031 22.449219 15.570312 C 22.457031 14.4375 22.460938 13.304688 22.464844 12.171875 C 22.476562 9.640625 22.488281 7.109375 22.5 4.5 C 15.570312 4.5 8.640625 4.5 1.5 4.5 C 1.503906 7.027344 1.511719 9.554688 1.519531 12.15625 C 1.519531 12.957031 1.519531 13.753906 1.519531 14.578125 C 1.523438 15.292969 1.523438 15.292969 1.527344 16.007812 C 1.527344 16.324219 1.527344 16.644531 1.527344 16.964844 C 1.527344 17.371094 1.527344 17.777344 1.53125 18.183594 C 1.53125 18.332031 1.53125 18.480469 1.53125 18.628906 C 1.527344 18.832031 1.53125 19.035156 1.535156 19.234375 C 1.535156 19.347656 1.535156 19.460938 1.535156 19.578125 C 1.609375 19.960938 1.765625 20.097656 2.0625 20.34375 C 2.300781 20.464844 2.492188 20.449219 2.761719 20.460938 C 3.25 20.503906 3.25 20.503906 3.496094 20.742188 C 3.578125 21.058594 3.539062 21.191406 3.375 21.46875 C 2.9375 21.6875 2.359375 21.609375 1.898438 21.5 C 1.265625 21.277344 0.859375 20.9375 0.558594 20.332031 C 0.445312 19.992188 0.441406 19.675781 0.445312 19.324219 C 0.445312 19.25 0.441406 19.175781 0.441406 19.101562 C 0.441406 18.855469 0.441406 18.605469 0.441406 18.359375 C 0.441406 18.183594 0.441406 18.007812 0.441406 17.828125 C 0.4375 17.347656 0.4375 16.867188 0.4375 16.386719 C 0.4375 16.085938 0.4375 15.785156 0.4375 15.484375 C 0.433594 14.4375 0.433594 13.386719 0.433594 12.335938 C 0.433594 11.359375 0.433594 10.382812 0.429688 9.40625 C 0.425781 8.566406 0.425781 7.726562 0.425781 6.886719 C 0.425781 6.386719 0.425781 5.886719 0.421875 5.382812 C 0.421875 4.914062 0.421875 4.441406 0.421875 3.96875 C 0.421875 3.796875 0.421875 3.625 0.421875 3.453125 C 0.421875 3.214844 0.421875 2.980469 0.421875 2.742188 C 0.421875 2.675781 0.421875 2.605469 0.417969 2.539062 C 0.425781 1.953125 0.625 1.472656 1.007812 1.027344 C 1.058594 0.988281 1.113281 0.945312 1.167969 0.902344 C 1.21875 0.859375 1.269531 0.816406 1.324219 0.769531 C 1.792969 0.464844 2.230469 0.441406 2.78125 0.445312 Z M 2.78125 0.445312 "/>
<path style=" stroke:none;fill-rule:nonzero;fill:rgb(26.274511%,26.274511%,26.274511%);fill-opacity:1;" d="M 13.703125 12.09375 C 14.265625 12.621094 14.535156 13.253906 14.566406 14.011719 C 14.570312 14.496094 14.558594 14.984375 14.53125 15.46875 C 14.605469 15.480469 14.675781 15.496094 14.75 15.507812 C 15.207031 15.605469 15.554688 15.855469 15.851562 16.21875 C 15.972656 16.480469 15.957031 16.703125 15.949219 16.988281 C 15.949219 17.089844 15.945312 17.191406 15.945312 17.296875 C 15.941406 17.375 15.941406 17.453125 15.9375 17.53125 C 16.367188 17.53125 16.796875 17.527344 17.226562 17.519531 C 17.347656 17.519531 17.472656 17.519531 17.597656 17.519531 C 17.925781 17.511719 18.238281 17.5 18.5625 17.4375 C 18.828125 17.183594 18.828125 17.183594 18.9375 16.875 C 19.371094 16.554688 19.695312 16.4375 20.238281 16.464844 C 20.761719 16.558594 21.078125 16.925781 21.375 17.34375 C 21.550781 17.691406 21.511719 18.089844 21.46875 18.46875 C 21.261719 18.882812 21.003906 19.144531 20.625 19.40625 C 20.21875 19.542969 19.820312 19.578125 19.414062 19.4375 C 19.089844 19.269531 18.960938 19.183594 18.8125 18.835938 C 18.507812 18.503906 18.410156 18.515625 17.972656 18.488281 C 17.738281 18.480469 17.507812 18.480469 17.273438 18.480469 C 17.152344 18.476562 17.035156 18.476562 16.914062 18.472656 C 16.617188 18.46875 16.324219 18.46875 16.03125 18.46875 C 16.03125 18.964844 16.03125 19.457031 16.03125 19.96875 C 16.203125 19.957031 16.375 19.945312 16.554688 19.933594 C 17.101562 19.929688 17.101562 19.929688 17.335938 20.09375 C 17.410156 20.171875 17.410156 20.171875 17.484375 20.25 C 17.691406 20.46875 17.769531 20.527344 18.078125 20.554688 C 18.273438 20.546875 18.472656 20.539062 18.667969 20.527344 C 19.082031 20.53125 19.265625 20.652344 19.59375 20.90625 C 19.910156 21.246094 20.046875 21.488281 20.089844 21.957031 C 20.046875 22.511719 19.851562 22.90625 19.445312 23.292969 C 18.988281 23.585938 18.527344 23.589844 18 23.53125 C 17.53125 23.296875 17.203125 22.96875 16.96875 22.5 C 16.964844 22.1875 16.976562 21.875 16.984375 21.558594 C 17 21.269531 17 21.269531 16.78125 21.09375 C 16.53125 21.039062 16.285156 21.023438 16.03125 21 C 16.023438 21.097656 16.015625 21.191406 16.007812 21.292969 C 15.914062 21.773438 15.75 22.082031 15.351562 22.375 C 15.042969 22.523438 14.828125 22.535156 14.484375 22.539062 C 14.300781 22.542969 14.300781 22.542969 14.113281 22.542969 C 13.980469 22.542969 13.847656 22.542969 13.71875 22.542969 C 13.582031 22.546875 13.445312 22.546875 13.308594 22.546875 C 13.023438 22.546875 12.738281 22.546875 12.449219 22.546875 C 12.085938 22.546875 11.722656 22.550781 11.355469 22.554688 C 11.074219 22.554688 10.792969 22.554688 10.511719 22.554688 C 10.375 22.554688 10.242188 22.554688 10.105469 22.558594 C 8.925781 22.570312 8.925781 22.570312 8.5 22.28125 C 8.164062 21.945312 7.984375 21.675781 7.949219 21.199219 C 7.960938 21.101562 7.960938 21.101562 7.96875 21 C 7.445312 21.019531 7.445312 21.019531 7.03125 21.28125 C 7.027344 21.476562 7.03125 21.671875 7.042969 21.867188 C 7.050781 22.382812 7.023438 22.671875 6.65625 23.0625 C 6.183594 23.476562 5.917969 23.558594 5.300781 23.550781 C 4.851562 23.511719 4.59375 23.347656 4.289062 23.027344 C 3.980469 22.5625 3.890625 22.21875 3.9375 21.65625 C 4.078125 21.144531 4.28125 20.871094 4.734375 20.609375 C 5.121094 20.480469 5.5 20.53125 5.902344 20.550781 C 6.292969 20.523438 6.410156 20.371094 6.664062 20.09375 C 7.042969 19.828125 7.535156 19.941406 7.96875 19.96875 C 7.96875 19.472656 7.96875 18.980469 7.96875 18.46875 C 7.554688 18.46875 7.144531 18.46875 6.730469 18.472656 C 6.617188 18.472656 6.5 18.472656 6.378906 18.472656 C 5.78125 18.460938 5.78125 18.460938 5.261719 18.707031 C 5.117188 18.902344 5.117188 18.902344 4.96875 19.21875 C 4.527344 19.53125 4.085938 19.585938 3.5625 19.5 C 3.066406 19.246094 2.710938 18.910156 2.53125 18.375 C 2.492188 17.53125 2.492188 17.53125 2.71875 17.15625 C 3.09375 16.785156 3.40625 16.488281 3.949219 16.464844 C 4.441406 16.46875 4.796875 16.640625 5.15625 16.96875 C 5.195312 17.046875 5.230469 17.128906 5.269531 17.207031 C 5.417969 17.464844 5.417969 17.464844 5.710938 17.5 C 5.820312 17.5 5.925781 17.503906 6.039062 17.503906 C 6.214844 17.507812 6.214844 17.507812 6.394531 17.511719 C 6.578125 17.511719 6.578125 17.511719 6.765625 17.511719 C 6.894531 17.515625 7.019531 17.519531 7.144531 17.519531 C 7.449219 17.527344 7.753906 17.53125 8.0625 17.53125 C 8.058594 17.457031 8.054688 17.378906 8.050781 17.300781 C 8.046875 17.148438 8.046875 17.148438 8.042969 16.996094 C 8.039062 16.847656 8.039062 16.847656 8.03125 16.695312 C 8.074219 16.285156 8.253906 16.078125 8.542969 15.796875 C 8.851562 15.550781 9.074219 15.46875 9.46875 15.46875 C 9.464844 15.414062 9.460938 15.359375 9.460938 15.304688 C 9.402344 14.109375 9.359375 13.140625 10.191406 12.191406 C 11.25 11.199219 12.554688 11.371094 13.703125 12.09375 Z M 13.703125 12.09375 "/>
<path style=" stroke:none;fill-rule:nonzero;fill:rgb(74.509805%,77.64706%,77.64706%);fill-opacity:1;" d="M 9.808594 16.464844 C 9.914062 16.460938 10.023438 16.460938 10.136719 16.460938 C 10.308594 16.460938 10.308594 16.460938 10.488281 16.460938 C 10.667969 16.460938 10.667969 16.460938 10.851562 16.460938 C 11.101562 16.460938 11.355469 16.460938 11.609375 16.464844 C 11.933594 16.464844 12.257812 16.464844 12.582031 16.460938 C 12.894531 16.460938 13.203125 16.460938 13.511719 16.460938 C 13.628906 16.460938 13.746094 16.460938 13.867188 16.460938 C 14.027344 16.460938 14.027344 16.460938 14.191406 16.464844 C 14.289062 16.464844 14.382812 16.464844 14.480469 16.464844 C 14.71875 16.5 14.71875 16.5 14.890625 16.617188 C 15.03125 16.828125 15.035156 16.960938 15.035156 17.214844 C 15.039062 17.300781 15.039062 17.386719 15.039062 17.476562 C 15.039062 17.570312 15.039062 17.664062 15.039062 17.761719 C 15.039062 17.859375 15.039062 17.957031 15.039062 18.054688 C 15.039062 18.261719 15.039062 18.464844 15.035156 18.667969 C 15.035156 18.984375 15.035156 19.296875 15.039062 19.609375 C 15.039062 19.808594 15.039062 20.007812 15.039062 20.207031 C 15.039062 20.300781 15.039062 20.394531 15.039062 20.492188 C 15.039062 20.621094 15.039062 20.621094 15.035156 20.753906 C 15.035156 20.832031 15.035156 20.910156 15.035156 20.988281 C 15 21.1875 15 21.1875 14.890625 21.351562 C 14.648438 21.515625 14.472656 21.503906 14.183594 21.503906 C 14.070312 21.507812 13.960938 21.507812 13.847656 21.507812 C 13.730469 21.507812 13.609375 21.507812 13.488281 21.507812 C 13.304688 21.507812 13.304688 21.507812 13.117188 21.507812 C 12.859375 21.507812 12.601562 21.507812 12.34375 21.503906 C 12.015625 21.503906 11.683594 21.503906 11.351562 21.507812 C 11.035156 21.507812 10.722656 21.507812 10.40625 21.507812 C 10.226562 21.507812 10.226562 21.507812 10.046875 21.507812 C 9.933594 21.507812 9.824219 21.507812 9.710938 21.503906 C 9.613281 21.503906 9.519531 21.503906 9.417969 21.503906 C 9.34375 21.492188 9.265625 21.480469 9.1875 21.46875 C 8.988281 21.171875 8.976562 21.097656 8.972656 20.753906 C 8.972656 20.667969 8.972656 20.582031 8.972656 20.492188 C 8.972656 20.398438 8.972656 20.300781 8.972656 20.207031 C 8.972656 20.109375 8.96875 20.011719 8.96875 19.914062 C 8.96875 19.707031 8.96875 19.503906 8.96875 19.300781 C 8.96875 18.984375 8.96875 18.671875 8.964844 18.359375 C 8.964844 18.160156 8.964844 17.960938 8.964844 17.761719 C 8.964844 17.667969 8.964844 17.574219 8.964844 17.476562 C 8.964844 17.390625 8.964844 17.300781 8.964844 17.214844 C 8.964844 17.136719 8.964844 17.058594 8.964844 16.980469 C 9 16.78125 9 16.78125 9.109375 16.617188 C 9.347656 16.453125 9.519531 16.464844 9.808594 16.464844 Z M 9.808594 16.464844 "/>
<path style=" stroke:none;fill-rule:nonzero;fill:rgb(96.862745%,97.254902%,97.254902%);fill-opacity:1;" d="M 15.09375 1.5 C 15.953125 1.492188 16.8125 1.488281 17.671875 1.484375 C 18.070312 1.484375 18.472656 1.480469 18.871094 1.476562 C 19.257812 1.476562 19.640625 1.472656 20.027344 1.472656 C 20.175781 1.472656 20.320312 1.472656 20.46875 1.46875 C 20.671875 1.46875 20.878906 1.46875 21.085938 1.46875 C 21.203125 1.46875 21.320312 1.46875 21.441406 1.464844 C 21.78125 1.503906 21.949219 1.574219 22.21875 1.78125 C 22.5 2.15625 22.5 2.15625 22.5 3.46875 C 20.148438 3.46875 17.796875 3.46875 15.375 3.46875 C 15.28125 2.820312 15.1875 2.167969 15.09375 1.5 Z M 15.09375 1.5 "/>
<path style=" stroke:none;fill-rule:nonzero;fill:rgb(40.000001%,34.901962%,99.607843%);fill-opacity:1;" d="M 15.621094 5.5 C 15.796875 5.5 15.796875 5.5 15.976562 5.503906 C 16.15625 5.5 16.15625 5.5 16.335938 5.496094 C 16.445312 5.496094 16.558594 5.496094 16.675781 5.496094 C 16.777344 5.496094 16.882812 5.496094 16.988281 5.496094 C 17.25 5.53125 17.25 5.53125 17.429688 5.660156 C 17.53125 5.8125 17.53125 5.8125 17.515625 6.050781 C 17.4375 6.28125 17.4375 6.28125 17.25 6.46875 C 17.066406 6.488281 17.066406 6.488281 16.84375 6.488281 C 16.761719 6.488281 16.683594 6.484375 16.601562 6.484375 C 16.476562 6.484375 16.476562 6.484375 16.347656 6.480469 C 16.261719 6.480469 16.179688 6.480469 16.09375 6.476562 C 15.882812 6.476562 15.675781 6.472656 15.46875 6.46875 C 15.46875 6.808594 15.46875 7.148438 15.46875 7.5 C 15.585938 7.496094 15.703125 7.492188 15.824219 7.492188 C 15.980469 7.488281 16.132812 7.484375 16.289062 7.480469 C 16.367188 7.480469 16.445312 7.476562 16.523438 7.476562 C 16.597656 7.472656 16.671875 7.472656 16.75 7.472656 C 16.820312 7.472656 16.886719 7.46875 16.960938 7.46875 C 17.222656 7.511719 17.34375 7.585938 17.53125 7.78125 C 17.578125 8.023438 17.578125 8.023438 17.582031 8.308594 C 17.582031 8.460938 17.582031 8.460938 17.582031 8.621094 C 17.582031 8.730469 17.578125 8.835938 17.578125 8.949219 C 17.578125 9.054688 17.582031 9.160156 17.582031 9.273438 C 17.582031 9.375 17.582031 9.480469 17.582031 9.585938 C 17.582031 9.679688 17.582031 9.773438 17.578125 9.871094 C 17.515625 10.199219 17.425781 10.308594 17.15625 10.5 C 16.902344 10.546875 16.902344 10.546875 16.617188 10.546875 C 16.460938 10.546875 16.460938 10.546875 16.304688 10.546875 C 16.195312 10.542969 16.089844 10.542969 15.976562 10.542969 C 15.871094 10.542969 15.761719 10.542969 15.652344 10.542969 C 14.863281 10.539062 14.863281 10.539062 14.660156 10.382812 C 14.492188 10.167969 14.496094 10.046875 14.496094 9.777344 C 14.496094 9.6875 14.496094 9.597656 14.496094 9.507812 C 14.496094 9.410156 14.496094 9.3125 14.496094 9.214844 C 14.496094 9.113281 14.496094 9.015625 14.496094 8.914062 C 14.496094 8.703125 14.5 8.496094 14.5 8.285156 C 14.5 7.964844 14.5 7.640625 14.5 7.320312 C 14.5 7.117188 14.5 6.914062 14.503906 6.710938 C 14.503906 6.566406 14.503906 6.566406 14.503906 6.417969 C 14.503906 6.328125 14.503906 6.242188 14.503906 6.148438 C 14.503906 6.070312 14.507812 5.992188 14.507812 5.910156 C 14.578125 5.351562 15.195312 5.503906 15.621094 5.5 Z M 15.621094 5.5 "/>
<path style=" stroke:none;fill-rule:nonzero;fill:rgb(74.117649%,77.254903%,77.254903%);fill-opacity:1;" d="M 8.15625 1.5 C 8.898438 1.492188 9.636719 1.488281 10.378906 1.484375 C 10.722656 1.484375 11.066406 1.480469 11.410156 1.476562 C 11.742188 1.476562 12.074219 1.472656 12.40625 1.472656 C 12.59375 1.472656 12.78125 1.46875 12.972656 1.46875 C 13.144531 1.46875 13.144531 1.46875 13.316406 1.46875 C 13.46875 1.46875 13.46875 1.46875 13.625 1.464844 C 13.875 1.5 13.875 1.5 14.046875 1.628906 C 14.195312 1.835938 14.226562 2.019531 14.269531 2.273438 C 14.28125 2.359375 14.296875 2.445312 14.3125 2.53125 C 14.347656 2.84375 14.34375 3.15625 14.34375 3.46875 C 12.394531 3.46875 10.445312 3.46875 8.4375 3.46875 C 8.15625 1.875 8.15625 1.875 8.15625 1.5 Z M 8.15625 1.5 "/>
<path style=" stroke:none;fill-rule:nonzero;fill:rgb(74.117649%,77.254903%,77.254903%);fill-opacity:1;" d="M 2.601562 1.484375 C 2.695312 1.484375 2.789062 1.484375 2.882812 1.480469 C 2.984375 1.480469 3.085938 1.480469 3.191406 1.480469 C 3.292969 1.480469 3.398438 1.480469 3.503906 1.480469 C 3.722656 1.476562 3.9375 1.476562 4.15625 1.476562 C 4.492188 1.476562 4.828125 1.472656 5.160156 1.472656 C 5.375 1.46875 5.585938 1.46875 5.796875 1.46875 C 5.898438 1.46875 6 1.46875 6.101562 1.464844 C 6.195312 1.464844 6.289062 1.464844 6.382812 1.464844 C 6.507812 1.464844 6.507812 1.464844 6.632812 1.464844 C 6.890625 1.507812 6.972656 1.574219 7.125 1.78125 C 7.191406 2.019531 7.242188 2.242188 7.285156 2.484375 C 7.296875 2.546875 7.308594 2.609375 7.320312 2.675781 C 7.371094 2.945312 7.40625 3.195312 7.40625 3.46875 C 5.457031 3.46875 3.507812 3.46875 1.5 3.46875 C 1.5 2.15625 1.5 2.15625 1.722656 1.800781 C 2.046875 1.527344 2.191406 1.488281 2.601562 1.484375 Z M 2.601562 1.484375 "/>
<path style=" stroke:none;fill-rule:nonzero;fill:rgb(40.392157%,35.294119%,99.607843%);fill-opacity:1;" d="M 10.6875 5.53125 C 10.945312 5.496094 10.945312 5.496094 11.273438 5.496094 C 11.390625 5.496094 11.507812 5.496094 11.628906 5.496094 C 11.8125 5.5 11.8125 5.5 12 5.503906 C 12.121094 5.5 12.246094 5.5 12.371094 5.5 C 13.289062 5.507812 13.289062 5.507812 13.5 5.71875 C 13.445312 6.335938 13.445312 6.335938 13.3125 6.46875 C 13.179688 6.476562 13.046875 6.480469 12.914062 6.476562 C 12.832031 6.476562 12.753906 6.476562 12.671875 6.476562 C 12.585938 6.476562 12.503906 6.476562 12.417969 6.472656 C 12.332031 6.472656 12.246094 6.472656 12.160156 6.472656 C 11.949219 6.472656 11.742188 6.46875 11.53125 6.46875 C 11.53125 6.808594 11.53125 7.148438 11.53125 7.5 C 11.648438 7.496094 11.769531 7.492188 11.890625 7.488281 C 12.046875 7.488281 12.203125 7.484375 12.355469 7.480469 C 12.4375 7.480469 12.515625 7.476562 12.59375 7.476562 C 12.707031 7.472656 12.707031 7.472656 12.820312 7.472656 C 12.890625 7.472656 12.960938 7.46875 13.03125 7.46875 C 13.21875 7.5 13.21875 7.5 13.382812 7.609375 C 13.546875 7.851562 13.535156 8.039062 13.539062 8.332031 C 13.539062 8.492188 13.539062 8.492188 13.539062 8.660156 C 13.539062 8.769531 13.535156 8.882812 13.535156 9 C 13.535156 9.113281 13.539062 9.226562 13.539062 9.339844 C 13.539062 9.449219 13.539062 9.558594 13.539062 9.667969 C 13.539062 9.765625 13.535156 9.867188 13.535156 9.96875 C 13.5 10.21875 13.5 10.21875 13.390625 10.390625 C 13.144531 10.546875 12.957031 10.535156 12.667969 10.539062 C 12.5625 10.539062 12.453125 10.539062 12.339844 10.539062 C 12.230469 10.539062 12.117188 10.535156 12 10.535156 C 11.886719 10.535156 11.773438 10.539062 11.660156 10.539062 C 11.496094 10.539062 11.496094 10.539062 11.332031 10.539062 C 11.234375 10.539062 11.132812 10.535156 11.03125 10.535156 C 10.78125 10.5 10.78125 10.5 10.609375 10.371094 C 10.453125 10.152344 10.460938 10.011719 10.5 9.75 C 10.648438 9.558594 10.726562 9.476562 10.96875 9.4375 C 11.039062 9.4375 11.105469 9.441406 11.179688 9.441406 C 11.253906 9.441406 11.328125 9.445312 11.40625 9.445312 C 11.484375 9.445312 11.5625 9.449219 11.644531 9.449219 C 11.761719 9.453125 11.761719 9.453125 11.882812 9.453125 C 12.078125 9.457031 12.273438 9.464844 12.46875 9.46875 C 12.46875 9.160156 12.46875 8.851562 12.46875 8.53125 C 12.289062 8.539062 12.289062 8.539062 12.109375 8.542969 C 11.953125 8.546875 11.796875 8.550781 11.644531 8.554688 C 11.527344 8.558594 11.527344 8.558594 11.40625 8.5625 C 11.292969 8.566406 11.292969 8.566406 11.179688 8.566406 C 11.109375 8.570312 11.039062 8.570312 10.96875 8.574219 C 10.78125 8.53125 10.78125 8.53125 10.617188 8.375 C 10.472656 8.105469 10.464844 7.921875 10.464844 7.617188 C 10.464844 7.511719 10.464844 7.410156 10.464844 7.304688 C 10.46875 7.195312 10.46875 7.089844 10.472656 6.980469 C 10.46875 6.871094 10.46875 6.761719 10.46875 6.652344 C 10.476562 5.851562 10.476562 5.851562 10.6875 5.53125 Z M 10.6875 5.53125 "/>
<path style=" stroke:none;fill-rule:nonzero;fill:rgb(40.392157%,35.294119%,99.607843%);fill-opacity:1;" d="M 7.316406 5.507812 C 7.429688 5.507812 7.542969 5.503906 7.65625 5.503906 C 7.777344 5.507812 7.894531 5.507812 8.015625 5.507812 C 8.132812 5.507812 8.253906 5.507812 8.375 5.503906 C 8.488281 5.503906 8.601562 5.507812 8.714844 5.507812 C 8.820312 5.507812 8.921875 5.507812 9.03125 5.507812 C 9.28125 5.53125 9.28125 5.53125 9.46875 5.71875 C 9.511719 6.136719 9.5 6.558594 9.496094 6.976562 C 9.5 7.097656 9.5 7.214844 9.503906 7.335938 C 9.503906 7.445312 9.503906 7.558594 9.503906 7.675781 C 9.503906 7.777344 9.503906 7.882812 9.503906 7.988281 C 9.46875 8.25 9.46875 8.25 9.351562 8.425781 C 9.148438 8.558594 9.03125 8.5625 8.792969 8.558594 C 8.714844 8.558594 8.640625 8.558594 8.5625 8.554688 C 8.484375 8.554688 8.40625 8.550781 8.324219 8.546875 C 8.207031 8.546875 8.207031 8.546875 8.085938 8.542969 C 7.890625 8.542969 7.695312 8.535156 7.5 8.53125 C 7.5 8.839844 7.5 9.152344 7.5 9.46875 C 7.617188 9.464844 7.738281 9.460938 7.859375 9.457031 C 8.015625 9.457031 8.171875 9.453125 8.324219 9.453125 C 8.402344 9.449219 8.484375 9.445312 8.5625 9.445312 C 8.675781 9.441406 8.675781 9.441406 8.792969 9.441406 C 8.859375 9.441406 8.929688 9.4375 9 9.4375 C 9.242188 9.480469 9.324219 9.554688 9.46875 9.75 C 9.503906 10.039062 9.503906 10.039062 9.46875 10.3125 C 9.011719 10.617188 8.507812 10.535156 7.96875 10.535156 C 7.800781 10.539062 7.800781 10.539062 7.628906 10.542969 C 7.519531 10.542969 7.410156 10.542969 7.300781 10.542969 C 7.152344 10.542969 7.152344 10.542969 7 10.546875 C 6.75 10.5 6.75 10.5 6.578125 10.34375 C 6.445312 10.074219 6.433594 9.886719 6.429688 9.585938 C 6.429688 9.480469 6.429688 9.378906 6.429688 9.273438 C 6.433594 9.113281 6.433594 9.113281 6.433594 8.945312 C 6.433594 8.839844 6.429688 8.730469 6.429688 8.621094 C 6.429688 8.519531 6.429688 8.414062 6.429688 8.308594 C 6.429688 8.214844 6.433594 8.121094 6.433594 8.023438 C 6.46875 7.78125 6.46875 7.78125 6.585938 7.609375 C 6.792969 7.46875 6.917969 7.46875 7.167969 7.472656 C 7.246094 7.472656 7.324219 7.472656 7.410156 7.476562 C 7.53125 7.480469 7.53125 7.480469 7.660156 7.484375 C 7.742188 7.484375 7.824219 7.484375 7.910156 7.488281 C 8.117188 7.488281 8.324219 7.496094 8.53125 7.5 C 8.53125 7.160156 8.53125 6.820312 8.53125 6.46875 C 8.40625 6.472656 8.28125 6.476562 8.152344 6.480469 C 7.988281 6.480469 7.824219 6.484375 7.660156 6.484375 C 7.574219 6.488281 7.492188 6.492188 7.410156 6.492188 C 7.289062 6.496094 7.289062 6.496094 7.167969 6.496094 C 7.09375 6.496094 7.019531 6.5 6.945312 6.5 C 6.699219 6.460938 6.613281 6.386719 6.46875 6.1875 C 6.511719 5.582031 6.75 5.507812 7.316406 5.507812 Z M 7.316406 5.507812 "/>
<path style=" stroke:none;fill-rule:nonzero;fill:rgb(96.470588%,96.862745%,96.862745%);fill-opacity:1;" d="M 12.472656 12.527344 C 12.996094 12.746094 13.28125 13.074219 13.5 13.59375 C 13.550781 13.925781 13.542969 14.242188 13.527344 14.578125 C 13.519531 14.871094 13.511719 15.164062 13.5 15.46875 C 12.511719 15.46875 11.519531 15.46875 10.5 15.46875 C 10.492188 15.171875 10.484375 14.878906 10.476562 14.574219 C 10.472656 14.480469 10.46875 14.386719 10.464844 14.292969 C 10.457031 13.726562 10.539062 13.398438 10.875 12.9375 C 11.34375 12.496094 11.84375 12.332031 12.472656 12.527344 Z M 12.472656 12.527344 "/>
<path style=" stroke:none;fill-rule:nonzero;fill:rgb(96.470588%,96.862745%,96.862745%);fill-opacity:1;" d="M 12.375 17.53125 C 12.695312 17.726562 12.925781 17.917969 13.03125 18.28125 C 13.007812 18.605469 12.972656 18.863281 12.832031 19.15625 C 12.726562 19.484375 12.785156 19.671875 12.878906 19.996094 C 12.929688 20.175781 12.980469 20.351562 13.03125 20.53125 C 12.351562 20.53125 11.671875 20.53125 10.96875 20.53125 C 11.046875 20.199219 11.128906 19.867188 11.207031 19.535156 C 11.285156 19.207031 11.285156 19.207031 11.0625 18.9375 C 10.992188 18.507812 11.003906 18.1875 11.238281 17.8125 C 11.582031 17.488281 11.917969 17.46875 12.375 17.53125 Z M 12.375 17.53125 "/>
<path style=" stroke:none;fill-rule:nonzero;fill:rgb(95.294118%,95.686275%,97.647059%);fill-opacity:1;" d="M 15.46875 8.53125 C 15.808594 8.53125 16.148438 8.53125 16.5 8.53125 C 16.5 8.839844 16.5 9.148438 16.5 9.46875 C 16.160156 9.46875 15.820312 9.46875 15.46875 9.46875 C 15.46875 9.160156 15.46875 8.851562 15.46875 8.53125 Z M 15.46875 8.53125 "/>
<path style=" stroke:none;fill-rule:nonzero;fill:rgb(70.19608%,72.941178%,72.941178%);fill-opacity:1;" d="M 18.570312 21.480469 C 18.84375 21.5625 18.84375 21.5625 19.03125 21.84375 C 19 22.15625 18.972656 22.277344 18.75 22.5 C 18.484375 22.535156 18.339844 22.539062 18.109375 22.390625 C 17.960938 22.160156 17.960938 22.019531 18 21.75 C 18.167969 21.472656 18.242188 21.46875 18.570312 21.480469 Z M 18.570312 21.480469 "/>
<path style=" stroke:none;fill-rule:nonzero;fill:rgb(70.19608%,72.941178%,72.941178%);fill-opacity:1;" d="M 5.585938 21.492188 C 5.8125 21.5625 5.8125 21.5625 6 21.75 C 6.035156 22.015625 6.039062 22.160156 5.890625 22.386719 C 5.65625 22.539062 5.519531 22.539062 5.25 22.5 C 5.074219 22.394531 5.074219 22.394531 4.96875 22.21875 C 4.980469 21.933594 4.980469 21.933594 5.0625 21.65625 C 5.34375 21.46875 5.34375 21.46875 5.585938 21.492188 Z M 5.585938 21.492188 "/>
<path style=" stroke:none;fill-rule:nonzero;fill:rgb(71.764708%,74.901962%,74.901962%);fill-opacity:1;" d="M 19.6875 17.53125 C 19.988281 17.492188 20.171875 17.484375 20.433594 17.644531 C 20.53125 17.8125 20.53125 17.8125 20.511719 18.050781 C 20.4375 18.28125 20.4375 18.28125 20.25 18.46875 C 19.910156 18.433594 19.910156 18.433594 19.59375 18.375 C 19.535156 18.113281 19.535156 18.113281 19.5 17.8125 C 19.5625 17.71875 19.625 17.625 19.6875 17.53125 Z M 19.6875 17.53125 "/>
<path style=" stroke:none;fill-rule:nonzero;fill:rgb(72.156864%,75.294119%,75.294119%);fill-opacity:1;" d="M 3.75 17.53125 C 4.089844 17.566406 4.089844 17.566406 4.40625 17.625 C 4.53125 18.136719 4.53125 18.136719 4.394531 18.363281 C 4.160156 18.503906 4.019531 18.507812 3.75 18.46875 C 3.574219 18.355469 3.574219 18.355469 3.46875 18.1875 C 3.492188 17.875 3.527344 17.753906 3.75 17.53125 Z M 3.75 17.53125 "/>
</g>
</svg>
