<?xml version="1.0" encoding="UTF-8"?>
<svg xmlns="http://www.w3.org/2000/svg" xmlns:xlink="http://www.w3.org/1999/xlink" width="24" height="24" viewBox="0 0 24 24" version="1.1">
<g id="surface1">
<path style=" stroke:none;fill-rule:nonzero;fill:rgb(98.823529%,98.431373%,98.823529%);fill-opacity:1;" d="M 0 0 C 7.921875 0 15.839844 0 24 0 C 24 7.921875 24 15.839844 24 24 C 16.078125 24 8.160156 24 0 24 C 0 16.078125 0 8.160156 0 0 Z M 0 0 "/>
<path style=" stroke:none;fill-rule:nonzero;fill:rgb(95.686275%,73.725492%,11.764706%);fill-opacity:1;" d="M 2.625 2.0625 C 8.8125 2.0625 15 2.0625 21.375 2.0625 C 21.375 3.886719 21.375 5.714844 21.375 7.59375 C 15.1875 7.59375 9 7.59375 2.625 7.59375 C 2.625 5.769531 2.625 3.941406 2.625 2.0625 Z M 2.625 2.0625 "/>
<path style=" stroke:none;fill-rule:nonzero;fill:rgb(4.313726%,12.941177%,20.784314%);fill-opacity:1;" d="M 0 0 C 7.921875 0 15.839844 0 24 0 C 24 7.921875 24 15.839844 24 24 C 16.078125 24 8.160156 24 0 24 C 0 16.078125 0 8.160156 0 0 Z M 1.40625 0.84375 C 1.40625 8.207031 1.40625 15.570312 1.40625 23.15625 C 8.398438 23.15625 15.390625 23.15625 22.59375 23.15625 C 22.59375 15.792969 22.59375 8.429688 22.59375 0.84375 C 15.601562 0.84375 8.609375 0.84375 1.40625 0.84375 Z M 1.40625 0.84375 "/>
<path style=" stroke:none;fill-rule:nonzero;fill:rgb(70.588237%,74.901962%,81.960785%);fill-opacity:1;" d="M 2.625 9.28125 C 8.8125 9.28125 15 9.28125 21.375 9.28125 C 21.375 11.074219 21.375 12.871094 21.375 14.71875 C 15.1875 14.71875 9 14.71875 2.625 14.71875 C 2.625 12.925781 2.625 11.128906 2.625 9.28125 Z M 2.625 9.28125 "/>
<path style=" stroke:none;fill-rule:nonzero;fill:rgb(88.627452%,17.254902%,29.411766%);fill-opacity:1;" d="M 12.84375 16.40625 C 15.660156 16.40625 18.472656 16.40625 21.375 16.40625 C 21.375 18.230469 21.375 20.058594 21.375 21.9375 C 18.558594 21.9375 15.746094 21.9375 12.84375 21.9375 C 12.84375 20.113281 12.84375 18.285156 12.84375 16.40625 Z M 12.84375 16.40625 "/>
<path style=" stroke:none;fill-rule:nonzero;fill:rgb(4.705882%,15.294118%,26.274511%);fill-opacity:1;" d="M 2.625 16.40625 C 5.441406 16.40625 8.253906 16.40625 11.15625 16.40625 C 11.15625 18.230469 11.15625 20.058594 11.15625 21.9375 C 8.339844 21.9375 5.527344 21.9375 2.625 21.9375 C 2.625 20.113281 2.625 18.285156 2.625 16.40625 Z M 2.625 16.40625 "/>
<path style=" stroke:none;fill-rule:nonzero;fill:rgb(0%,0%,0%);fill-opacity:1;" d="M 23.25 0 C 23.496094 0 23.746094 0 24 0 C 24 7.921875 24 15.839844 24 24 C 23.753906 24 23.503906 24 23.25 24 C 23.296875 23.90625 23.296875 23.90625 23.34375 23.8125 C 23.351562 23.683594 23.355469 23.550781 23.355469 23.421875 C 23.355469 23.339844 23.355469 23.253906 23.355469 23.171875 C 23.355469 23.078125 23.355469 22.988281 23.355469 22.894531 C 23.355469 22.796875 23.355469 22.703125 23.355469 22.601562 C 23.355469 22.277344 23.355469 21.949219 23.355469 21.625 C 23.355469 21.394531 23.355469 21.160156 23.355469 20.929688 C 23.355469 20.359375 23.355469 19.792969 23.355469 19.226562 C 23.355469 18.765625 23.355469 18.304688 23.355469 17.84375 C 23.355469 17.777344 23.355469 17.714844 23.355469 17.644531 C 23.355469 17.511719 23.355469 17.378906 23.355469 17.246094 C 23.355469 16 23.355469 14.75 23.355469 13.5 C 23.355469 12.429688 23.355469 11.355469 23.355469 10.285156 C 23.355469 9.042969 23.355469 7.796875 23.355469 6.554688 C 23.355469 6.421875 23.355469 6.289062 23.355469 6.15625 C 23.355469 6.058594 23.355469 6.058594 23.355469 5.957031 C 23.355469 5.496094 23.355469 5.039062 23.355469 4.578125 C 23.355469 3.957031 23.355469 3.339844 23.355469 2.71875 C 23.355469 2.492188 23.355469 2.261719 23.355469 2.035156 C 23.355469 1.726562 23.355469 1.414062 23.355469 1.105469 C 23.355469 1.015625 23.355469 0.921875 23.355469 0.828125 C 23.355469 0.746094 23.355469 0.664062 23.355469 0.578125 C 23.355469 0.507812 23.355469 0.4375 23.355469 0.363281 C 23.355469 0.179688 23.355469 0.179688 23.25 0 Z M 23.25 0 "/>
<path style=" stroke:none;fill-rule:nonzero;fill:rgb(0%,0%,0%);fill-opacity:1;" d="M 0 0 C 0.246094 0 0.496094 0 0.75 0 C 0.71875 0.0625 0.6875 0.125 0.65625 0.1875 C 0.648438 0.316406 0.644531 0.449219 0.644531 0.578125 C 0.644531 0.660156 0.644531 0.746094 0.644531 0.828125 C 0.644531 0.921875 0.644531 1.011719 0.644531 1.105469 C 0.644531 1.203125 0.644531 1.296875 0.644531 1.398438 C 0.644531 1.722656 0.644531 2.050781 0.644531 2.375 C 0.644531 2.605469 0.644531 2.839844 0.644531 3.070312 C 0.644531 3.640625 0.644531 4.207031 0.644531 4.773438 C 0.644531 5.234375 0.644531 5.695312 0.644531 6.15625 C 0.644531 6.222656 0.644531 6.285156 0.644531 6.355469 C 0.644531 6.488281 0.644531 6.621094 0.644531 6.753906 C 0.644531 8 0.644531 9.25 0.644531 10.5 C 0.644531 11.570312 0.644531 12.644531 0.644531 13.714844 C 0.644531 14.957031 0.644531 16.203125 0.644531 17.445312 C 0.644531 17.578125 0.644531 17.710938 0.644531 17.84375 C 0.644531 17.910156 0.644531 17.976562 0.644531 18.042969 C 0.644531 18.503906 0.644531 18.960938 0.644531 19.421875 C 0.644531 20.042969 0.644531 20.660156 0.644531 21.28125 C 0.644531 21.507812 0.644531 21.738281 0.644531 21.964844 C 0.644531 22.273438 0.644531 22.585938 0.644531 22.894531 C 0.644531 22.984375 0.644531 23.078125 0.644531 23.171875 C 0.644531 23.253906 0.644531 23.335938 0.644531 23.421875 C 0.644531 23.492188 0.644531 23.5625 0.644531 23.636719 C 0.644531 23.820312 0.644531 23.820312 0.75 24 C 0.503906 24 0.253906 24 0 24 C 0 16.078125 0 8.160156 0 0 Z M 0 0 "/>
</g>
</svg>
