<?xml version="1.0" encoding="UTF-8"?>
<svg xmlns="http://www.w3.org/2000/svg" xmlns:xlink="http://www.w3.org/1999/xlink" width="24" height="24" viewBox="0 0 24 24" version="1.1">
<g id="surface1">
<path style=" stroke:none;fill-rule:nonzero;fill:rgb(1.568628%,1.568628%,1.568628%);fill-opacity:1;" d="M 17.71875 1.5 C 17.75 1.65625 17.78125 1.808594 17.8125 1.96875 C 17.914062 1.96875 18.015625 1.964844 18.117188 1.964844 C 18.496094 1.960938 18.875 1.957031 19.253906 1.953125 C 19.417969 1.953125 19.578125 1.949219 19.742188 1.945312 C 19.976562 1.945312 20.214844 1.941406 20.449219 1.941406 C 20.558594 1.9375 20.558594 1.9375 20.667969 1.9375 C 21.183594 1.9375 21.5625 2.035156 22.03125 2.25 C 22.488281 2.71875 22.617188 3.085938 22.617188 3.734375 C 22.617188 3.800781 22.621094 3.863281 22.621094 3.929688 C 22.621094 4.148438 22.621094 4.363281 22.621094 4.578125 C 22.621094 4.734375 22.621094 4.890625 22.621094 5.042969 C 22.625 5.464844 22.625 5.886719 22.625 6.304688 C 22.625 6.570312 22.625 6.832031 22.625 7.097656 C 22.628906 8.015625 22.628906 8.929688 22.628906 9.851562 C 22.628906 10.707031 22.628906 11.558594 22.632812 12.414062 C 22.636719 13.148438 22.636719 13.886719 22.636719 14.621094 C 22.636719 15.058594 22.636719 15.496094 22.640625 15.9375 C 22.640625 16.347656 22.640625 16.761719 22.640625 17.175781 C 22.640625 17.324219 22.640625 17.476562 22.640625 17.625 C 22.652344 19.058594 22.652344 19.058594 22.21875 19.6875 C 21.65625 20.15625 21.097656 20.113281 20.390625 20.097656 C 20.28125 20.097656 20.167969 20.097656 20.054688 20.097656 C 19.699219 20.09375 19.34375 20.089844 18.988281 20.085938 C 18.75 20.085938 18.507812 20.082031 18.265625 20.082031 C 17.679688 20.078125 17.089844 20.070312 16.5 20.0625 C 16.476562 20.125 16.453125 20.191406 16.429688 20.257812 C 16.292969 20.574219 16.136719 20.867188 15.972656 21.167969 C 15.941406 21.226562 15.914062 21.28125 15.878906 21.339844 C 15.804688 21.476562 15.730469 21.613281 15.65625 21.75 C 15.542969 21.75 15.429688 21.75 15.3125 21.75 C 14.246094 21.75 13.175781 21.75 12.105469 21.757812 C 11.554688 21.761719 11.007812 21.761719 10.457031 21.761719 C 9.925781 21.761719 9.398438 21.761719 8.867188 21.765625 C 8.664062 21.769531 8.460938 21.769531 8.257812 21.765625 C 7.976562 21.765625 7.691406 21.769531 7.40625 21.773438 C 7.324219 21.769531 7.242188 21.769531 7.15625 21.769531 C 6.589844 21.777344 6.257812 21.933594 5.808594 22.273438 C 5.269531 22.664062 4.574219 22.664062 3.9375 22.59375 C 3.039062 22.378906 2.335938 21.980469 1.839844 21.191406 C 1.410156 20.40625 1.277344 19.648438 1.460938 18.769531 C 1.710938 17.960938 2.234375 17.253906 2.976562 16.828125 C 3.78125 16.492188 4.707031 16.382812 5.53125 16.6875 C 5.65625 16.78125 5.777344 16.878906 5.898438 16.972656 C 6.613281 17.410156 7.425781 17.316406 8.234375 17.300781 C 8.535156 17.296875 8.835938 17.292969 9.132812 17.292969 C 9.984375 17.292969 10.835938 17.28125 11.6875 17.269531 C 12.207031 17.265625 12.730469 17.261719 13.253906 17.261719 C 13.449219 17.261719 13.648438 17.257812 13.847656 17.253906 C 15.390625 17.222656 15.390625 17.222656 15.796875 17.511719 C 15.953125 17.734375 16.039062 17.929688 16.125 18.1875 C 16.199219 18.332031 16.273438 18.472656 16.347656 18.613281 C 16.421875 18.773438 16.421875 18.773438 16.5 18.9375 C 17.179688 18.945312 17.855469 18.949219 18.53125 18.953125 C 18.761719 18.953125 18.992188 18.957031 19.222656 18.960938 C 19.554688 18.960938 19.886719 18.964844 20.21875 18.964844 C 20.320312 18.964844 20.425781 18.96875 20.53125 18.96875 C 20.675781 18.96875 20.675781 18.96875 20.820312 18.96875 C 20.90625 18.96875 20.988281 18.96875 21.078125 18.972656 C 21.144531 18.960938 21.210938 18.949219 21.28125 18.9375 C 21.507812 18.601562 21.492188 18.449219 21.492188 18.046875 C 21.492188 17.984375 21.492188 17.925781 21.492188 17.859375 C 21.492188 17.652344 21.492188 17.441406 21.492188 17.234375 C 21.492188 17.085938 21.492188 16.9375 21.492188 16.785156 C 21.496094 16.382812 21.492188 15.976562 21.492188 15.570312 C 21.492188 15.144531 21.492188 14.722656 21.492188 14.296875 C 21.496094 13.585938 21.492188 12.875 21.492188 12.160156 C 21.492188 11.339844 21.492188 10.515625 21.492188 9.691406 C 21.492188 8.984375 21.492188 8.277344 21.492188 7.570312 C 21.492188 7.148438 21.492188 6.726562 21.492188 6.304688 C 21.496094 5.90625 21.492188 5.507812 21.492188 5.109375 C 21.492188 4.964844 21.492188 4.820312 21.492188 4.671875 C 21.492188 4.476562 21.492188 4.277344 21.492188 4.078125 C 21.492188 3.964844 21.492188 3.855469 21.492188 3.738281 C 21.488281 3.449219 21.488281 3.449219 21.28125 3.1875 C 21.015625 3.15625 20.769531 3.140625 20.503906 3.140625 C 20.425781 3.136719 20.351562 3.136719 20.273438 3.132812 C 20.027344 3.128906 19.78125 3.125 19.535156 3.121094 C 19.367188 3.121094 19.203125 3.117188 19.035156 3.113281 C 18.628906 3.105469 18.21875 3.097656 17.8125 3.09375 C 17.75 3.28125 17.6875 3.464844 17.625 3.65625 C 17.132812 3.609375 16.761719 3.492188 16.324219 3.261719 C 16.21875 3.210938 16.113281 3.15625 16.003906 3.101562 C 15.75 2.90625 15.75 2.90625 15.667969 2.601562 C 15.664062 2.515625 15.660156 2.433594 15.65625 2.34375 C 15.957031 2.074219 16.285156 1.863281 16.636719 1.660156 C 16.71875 1.609375 16.804688 1.558594 16.890625 1.507812 C 17.207031 1.386719 17.394531 1.417969 17.71875 1.5 Z M 17.71875 1.5 "/>
<path style=" stroke:none;fill-rule:nonzero;fill:rgb(97.254902%,74.117649%,29.019609%);fill-opacity:1;" d="M 6.375 10.5 C 6.421875 10.546875 6.421875 10.546875 6.46875 10.59375 C 6.75 10.601562 7.027344 10.601562 7.304688 10.597656 C 7.488281 10.597656 7.667969 10.597656 7.851562 10.597656 C 7.949219 10.597656 8.046875 10.59375 8.144531 10.59375 C 8.65625 10.59375 9.167969 10.59375 9.683594 10.59375 C 10.335938 10.59375 10.988281 10.59375 11.640625 10.589844 C 12.167969 10.585938 12.691406 10.585938 13.21875 10.585938 C 13.421875 10.589844 13.621094 10.585938 13.820312 10.582031 C 14.101562 10.582031 14.382812 10.582031 14.664062 10.585938 C 14.746094 10.582031 14.832031 10.578125 14.917969 10.578125 C 15.160156 10.582031 15.335938 10.597656 15.5625 10.6875 C 15.804688 10.941406 15.964844 11.222656 16.125 11.53125 C 16.191406 11.640625 16.257812 11.753906 16.328125 11.863281 C 16.382812 11.960938 16.4375 12.0625 16.496094 12.164062 C 16.550781 12.265625 16.609375 12.363281 16.667969 12.46875 C 16.796875 12.792969 16.78125 12.890625 16.6875 13.21875 C 16.582031 13.445312 16.582031 13.445312 16.453125 13.675781 C 16.40625 13.757812 16.359375 13.839844 16.3125 13.925781 C 16.242188 14.054688 16.242188 14.054688 16.167969 14.183594 C 16.09375 14.316406 16.09375 14.316406 16.019531 14.449219 C 15.898438 14.664062 15.777344 14.878906 15.65625 15.09375 C 15.542969 15.09375 15.429688 15.09375 15.3125 15.09375 C 14.246094 15.09375 13.175781 15.09375 12.105469 15.101562 C 11.554688 15.105469 11.007812 15.105469 10.457031 15.105469 C 9.925781 15.105469 9.398438 15.105469 8.867188 15.109375 C 8.664062 15.113281 8.460938 15.113281 8.257812 15.109375 C 7.976562 15.109375 7.691406 15.113281 7.40625 15.117188 C 7.324219 15.113281 7.242188 15.113281 7.15625 15.113281 C 6.589844 15.121094 6.261719 15.273438 5.8125 15.617188 C 5.285156 15.992188 4.5625 16.011719 3.9375 15.9375 C 3.039062 15.71875 2.335938 15.328125 1.839844 14.535156 C 1.410156 13.753906 1.265625 12.984375 1.46875 12.105469 C 1.667969 11.484375 1.960938 11.039062 2.4375 10.59375 C 2.484375 10.546875 2.535156 10.5 2.585938 10.453125 C 3.75 9.496094 5.1875 9.800781 6.375 10.5 Z M 6.375 10.5 "/>
<path style=" stroke:none;fill-rule:nonzero;fill:rgb(92.156863%,39.607844%,38.039216%);fill-opacity:1;" d="M 5.695312 3.507812 C 6.457031 4.101562 7.316406 4.003906 8.234375 3.988281 C 8.535156 3.984375 8.832031 3.980469 9.132812 3.980469 C 9.984375 3.980469 10.835938 3.96875 11.6875 3.957031 C 12.207031 3.953125 12.730469 3.949219 13.25 3.949219 C 13.449219 3.949219 13.648438 3.945312 13.847656 3.941406 C 15.398438 3.910156 15.398438 3.910156 15.804688 4.214844 C 15.953125 4.433594 16.039062 4.625 16.125 4.875 C 16.191406 4.988281 16.257812 5.097656 16.328125 5.207031 C 16.382812 5.308594 16.4375 5.40625 16.492188 5.507812 C 16.550781 5.609375 16.609375 5.707031 16.667969 5.8125 C 16.796875 6.136719 16.78125 6.234375 16.6875 6.5625 C 16.582031 6.789062 16.582031 6.789062 16.453125 7.019531 C 16.40625 7.101562 16.359375 7.183594 16.3125 7.269531 C 16.238281 7.398438 16.238281 7.398438 16.164062 7.527344 C 16.09375 7.660156 16.09375 7.660156 16.019531 7.792969 C 15.898438 8.007812 15.777344 8.222656 15.65625 8.4375 C 15.542969 8.4375 15.429688 8.4375 15.3125 8.4375 C 14.242188 8.4375 13.175781 8.4375 12.105469 8.445312 C 11.558594 8.449219 11.007812 8.449219 10.457031 8.449219 C 9.925781 8.449219 9.394531 8.449219 8.867188 8.453125 C 8.664062 8.457031 8.460938 8.457031 8.257812 8.453125 C 7.976562 8.453125 7.691406 8.457031 7.40625 8.457031 C 7.324219 8.457031 7.242188 8.457031 7.15625 8.457031 C 6.589844 8.464844 6.261719 8.617188 5.8125 8.960938 C 5.28125 9.335938 4.5625 9.355469 3.9375 9.28125 C 3.039062 9.0625 2.335938 8.671875 1.839844 7.878906 C 1.410156 7.097656 1.269531 6.328125 1.46875 5.449219 C 1.75 4.578125 2.296875 3.921875 3.09375 3.46875 C 3.824219 3.164062 5.023438 2.972656 5.695312 3.507812 Z M 5.695312 3.507812 "/>
<path style=" stroke:none;fill-rule:nonzero;fill:rgb(90.588236%,90.588236%,90.588236%);fill-opacity:1;" d="M 6.84375 17.71875 C 7.941406 17.683594 9.035156 17.652344 10.132812 17.636719 C 10.640625 17.628906 11.152344 17.617188 11.660156 17.597656 C 12.152344 17.582031 12.640625 17.570312 13.132812 17.566406 C 13.320312 17.566406 13.507812 17.558594 13.695312 17.550781 C 15.109375 17.488281 15.109375 17.488281 15.550781 17.871094 C 15.976562 18.382812 16.320312 18.972656 16.304688 19.644531 C 16.132812 20.289062 15.90625 20.9375 15.375 21.375 C 14.765625 21.621094 14.066406 21.539062 13.425781 21.511719 C 13.238281 21.511719 13.046875 21.507812 12.855469 21.507812 C 12.359375 21.5 11.859375 21.488281 11.363281 21.472656 C 10.851562 21.457031 10.34375 21.449219 9.835938 21.445312 C 8.835938 21.429688 7.839844 21.40625 6.84375 21.375 C 6.875 21.285156 6.910156 21.199219 6.945312 21.109375 C 6.988281 20.992188 7.03125 20.875 7.074219 20.753906 C 7.117188 20.640625 7.160156 20.527344 7.203125 20.40625 C 7.480469 19.523438 7.324219 18.816406 6.9375 18 C 6.90625 17.90625 6.875 17.8125 6.84375 17.71875 Z M 6.84375 17.71875 "/>
<path style=" stroke:none;fill-rule:nonzero;fill:rgb(90.588236%,90.588236%,90.588236%);fill-opacity:1;" d="M 6.84375 11.0625 C 7.941406 11.027344 9.035156 10.996094 10.132812 10.980469 C 10.640625 10.972656 11.152344 10.960938 11.660156 10.941406 C 12.152344 10.925781 12.640625 10.914062 13.132812 10.910156 C 13.320312 10.910156 13.507812 10.902344 13.695312 10.894531 C 15.109375 10.832031 15.109375 10.832031 15.550781 11.214844 C 15.976562 11.726562 16.320312 12.316406 16.304688 12.988281 C 16.132812 13.632812 15.90625 14.28125 15.375 14.71875 C 14.765625 14.964844 14.066406 14.882812 13.425781 14.855469 C 13.238281 14.855469 13.046875 14.851562 12.855469 14.851562 C 12.359375 14.84375 11.859375 14.832031 11.363281 14.816406 C 10.851562 14.800781 10.34375 14.792969 9.835938 14.789062 C 8.835938 14.773438 7.839844 14.75 6.84375 14.71875 C 6.875 14.628906 6.910156 14.542969 6.945312 14.453125 C 6.988281 14.335938 7.03125 14.21875 7.074219 14.097656 C 7.117188 13.984375 7.160156 13.871094 7.203125 13.75 C 7.480469 12.867188 7.324219 12.160156 6.9375 11.34375 C 6.90625 11.25 6.875 11.15625 6.84375 11.0625 Z M 6.84375 11.0625 "/>
<path style=" stroke:none;fill-rule:nonzero;fill:rgb(90.588236%,90.588236%,90.588236%);fill-opacity:1;" d="M 6.84375 4.40625 C 7.941406 4.371094 9.035156 4.339844 10.132812 4.324219 C 10.640625 4.316406 11.152344 4.304688 11.660156 4.285156 C 12.152344 4.269531 12.640625 4.257812 13.132812 4.253906 C 13.320312 4.253906 13.507812 4.246094 13.695312 4.238281 C 15.109375 4.175781 15.109375 4.175781 15.550781 4.558594 C 15.976562 5.070312 16.320312 5.660156 16.304688 6.332031 C 16.132812 6.976562 15.90625 7.625 15.375 8.0625 C 14.765625 8.308594 14.066406 8.226562 13.425781 8.199219 C 13.238281 8.199219 13.046875 8.195312 12.855469 8.195312 C 12.359375 8.1875 11.859375 8.175781 11.363281 8.160156 C 10.851562 8.144531 10.34375 8.136719 9.835938 8.132812 C 8.835938 8.117188 7.839844 8.09375 6.84375 8.0625 C 6.875 7.972656 6.910156 7.886719 6.945312 7.796875 C 6.988281 7.679688 7.03125 7.5625 7.074219 7.441406 C 7.117188 7.328125 7.160156 7.214844 7.203125 7.09375 C 7.480469 6.210938 7.324219 5.503906 6.9375 4.6875 C 6.90625 4.59375 6.875 4.5 6.84375 4.40625 Z M 6.84375 4.40625 "/>
<path style=" stroke:none;fill-rule:nonzero;fill:rgb(55.686277%,78.039217%,39.215687%);fill-opacity:1;" d="M 5.648438 17.148438 C 6.339844 17.578125 6.851562 18.148438 7.089844 18.941406 C 7.253906 19.777344 6.992188 20.566406 6.539062 21.269531 C 6.160156 21.757812 5.570312 22.089844 4.96875 22.21875 C 4.09375 22.328125 3.449219 22.148438 2.71875 21.65625 C 2.484375 21.457031 2.316406 21.257812 2.15625 21 C 2.117188 20.9375 2.078125 20.878906 2.039062 20.8125 C 1.722656 20.214844 1.6875 19.605469 1.78125 18.9375 C 2.027344 18.15625 2.542969 17.546875 3.234375 17.113281 C 3.925781 16.800781 4.957031 16.824219 5.648438 17.148438 Z M 5.648438 17.148438 "/>
<path style=" stroke:none;fill-rule:nonzero;fill:rgb(3.137255%,3.137255%,2.352941%);fill-opacity:1;" d="M 6.375 10.5 C 6.421875 10.546875 6.421875 10.546875 6.46875 10.59375 C 6.75 10.601562 7.027344 10.601562 7.304688 10.597656 C 7.488281 10.597656 7.667969 10.597656 7.851562 10.597656 C 7.949219 10.597656 8.046875 10.59375 8.144531 10.59375 C 8.65625 10.59375 9.167969 10.59375 9.683594 10.59375 C 10.335938 10.59375 10.988281 10.59375 11.640625 10.589844 C 12.167969 10.585938 12.691406 10.585938 13.21875 10.585938 C 13.421875 10.589844 13.621094 10.585938 13.820312 10.582031 C 14.101562 10.582031 14.382812 10.582031 14.664062 10.585938 C 14.746094 10.582031 14.832031 10.578125 14.917969 10.578125 C 15.160156 10.582031 15.335938 10.597656 15.5625 10.6875 C 15.804688 10.941406 15.964844 11.222656 16.125 11.53125 C 16.191406 11.640625 16.257812 11.753906 16.328125 11.863281 C 16.382812 11.960938 16.4375 12.0625 16.496094 12.164062 C 16.550781 12.265625 16.609375 12.363281 16.667969 12.46875 C 16.796875 12.792969 16.78125 12.890625 16.6875 13.21875 C 16.582031 13.445312 16.582031 13.445312 16.453125 13.675781 C 16.40625 13.757812 16.359375 13.839844 16.3125 13.925781 C 16.242188 14.054688 16.242188 14.054688 16.167969 14.183594 C 16.09375 14.316406 16.09375 14.316406 16.019531 14.449219 C 15.898438 14.664062 15.777344 14.878906 15.65625 15.09375 C 15.542969 15.09375 15.429688 15.09375 15.3125 15.09375 C 14.246094 15.09375 13.175781 15.09375 12.105469 15.101562 C 11.554688 15.105469 11.007812 15.105469 10.457031 15.105469 C 9.925781 15.105469 9.398438 15.105469 8.867188 15.109375 C 8.664062 15.113281 8.460938 15.113281 8.257812 15.109375 C 7.976562 15.109375 7.691406 15.113281 7.40625 15.117188 C 7.324219 15.113281 7.242188 15.113281 7.15625 15.113281 C 6.589844 15.121094 6.261719 15.273438 5.8125 15.617188 C 5.285156 15.992188 4.5625 16.011719 3.9375 15.9375 C 3.039062 15.71875 2.335938 15.328125 1.839844 14.535156 C 1.410156 13.753906 1.265625 12.984375 1.46875 12.105469 C 1.667969 11.484375 1.960938 11.039062 2.4375 10.59375 C 2.484375 10.546875 2.535156 10.5 2.585938 10.453125 C 3.75 9.496094 5.1875 9.800781 6.375 10.5 Z M 2.90625 10.6875 C 2.847656 10.734375 2.792969 10.777344 2.734375 10.824219 C 2.203125 11.300781 1.851562 11.867188 1.734375 12.574219 C 1.6875 13.433594 1.9375 14.144531 2.496094 14.808594 C 3 15.277344 3.617188 15.578125 4.308594 15.605469 C 5.101562 15.5625 5.722656 15.363281 6.304688 14.808594 C 6.941406 14.09375 7.089844 13.417969 7.070312 12.476562 C 7.023438 11.78125 6.640625 11.292969 6.140625 10.832031 C 5.613281 10.402344 5.132812 10.261719 4.464844 10.269531 C 4.394531 10.273438 4.324219 10.273438 4.25 10.273438 C 3.726562 10.289062 3.324219 10.351562 2.90625 10.6875 Z M 6.84375 11.0625 C 6.949219 11.335938 7.0625 11.601562 7.183594 11.863281 C 7.511719 12.765625 7.300781 13.589844 6.9375 14.4375 C 6.90625 14.53125 6.875 14.625 6.84375 14.71875 C 7.941406 14.753906 9.035156 14.785156 10.132812 14.800781 C 10.640625 14.808594 11.152344 14.820312 11.660156 14.839844 C 12.152344 14.855469 12.640625 14.867188 13.132812 14.871094 C 13.320312 14.871094 13.507812 14.878906 13.695312 14.886719 C 14.6875 14.960938 14.6875 14.960938 15.550781 14.5625 C 15.941406 14.074219 16.242188 13.507812 16.355469 12.890625 C 16.230469 12.214844 15.886719 11.523438 15.375 11.0625 C 14.769531 10.789062 14.0625 10.875 13.417969 10.90625 C 13.226562 10.910156 13.039062 10.914062 12.847656 10.914062 C 12.351562 10.921875 11.851562 10.933594 11.355469 10.953125 C 10.847656 10.96875 10.339844 10.976562 9.832031 10.984375 C 8.835938 11 7.839844 11.027344 6.84375 11.0625 Z M 6.84375 11.0625 "/>
<path style=" stroke:none;fill-rule:nonzero;fill:rgb(3.137255%,2.745098%,2.352941%);fill-opacity:1;" d="M 5.695312 3.507812 C 6.457031 4.101562 7.316406 4.003906 8.234375 3.988281 C 8.535156 3.984375 8.832031 3.980469 9.132812 3.980469 C 9.984375 3.980469 10.835938 3.96875 11.6875 3.957031 C 12.207031 3.953125 12.730469 3.949219 13.25 3.949219 C 13.449219 3.949219 13.648438 3.945312 13.847656 3.941406 C 15.398438 3.910156 15.398438 3.910156 15.804688 4.214844 C 15.953125 4.433594 16.039062 4.625 16.125 4.875 C 16.191406 4.988281 16.257812 5.097656 16.328125 5.207031 C 16.382812 5.308594 16.4375 5.40625 16.492188 5.507812 C 16.550781 5.609375 16.609375 5.707031 16.667969 5.8125 C 16.796875 6.136719 16.78125 6.234375 16.6875 6.5625 C 16.582031 6.789062 16.582031 6.789062 16.453125 7.019531 C 16.40625 7.101562 16.359375 7.183594 16.3125 7.269531 C 16.238281 7.398438 16.238281 7.398438 16.164062 7.527344 C 16.09375 7.660156 16.09375 7.660156 16.019531 7.792969 C 15.898438 8.007812 15.777344 8.222656 15.65625 8.4375 C 15.542969 8.4375 15.429688 8.4375 15.3125 8.4375 C 14.242188 8.4375 13.175781 8.4375 12.105469 8.445312 C 11.558594 8.449219 11.007812 8.449219 10.457031 8.449219 C 9.925781 8.449219 9.394531 8.449219 8.867188 8.453125 C 8.664062 8.457031 8.460938 8.457031 8.257812 8.453125 C 7.976562 8.453125 7.691406 8.457031 7.40625 8.457031 C 7.324219 8.457031 7.242188 8.457031 7.15625 8.457031 C 6.589844 8.464844 6.261719 8.617188 5.8125 8.960938 C 5.28125 9.335938 4.5625 9.355469 3.9375 9.28125 C 3.039062 9.0625 2.335938 8.671875 1.839844 7.878906 C 1.410156 7.097656 1.269531 6.328125 1.46875 5.449219 C 1.75 4.578125 2.296875 3.921875 3.09375 3.46875 C 3.824219 3.164062 5.023438 2.972656 5.695312 3.507812 Z M 2.4375 4.5 C 2.339844 4.609375 2.339844 4.609375 2.238281 4.722656 C 1.757812 5.398438 1.667969 6.023438 1.78125 6.84375 C 2.082031 7.746094 2.558594 8.316406 3.390625 8.753906 C 4.046875 9.019531 4.757812 9.019531 5.414062 8.761719 C 6.097656 8.40625 6.632812 7.925781 6.949219 7.21875 C 7.152344 6.507812 7.183594 5.636719 6.84375 4.964844 C 6.449219 4.375 5.90625 3.921875 5.25 3.65625 C 4.988281 3.617188 4.730469 3.609375 4.464844 3.613281 C 4.359375 3.617188 4.359375 3.617188 4.25 3.617188 C 3.453125 3.640625 2.972656 3.890625 2.4375 4.5 Z M 6.84375 4.40625 C 6.949219 4.679688 7.0625 4.941406 7.183594 5.207031 C 7.511719 6.109375 7.300781 6.933594 6.9375 7.78125 C 6.90625 7.875 6.875 7.964844 6.84375 8.0625 C 7.941406 8.101562 9.035156 8.128906 10.132812 8.144531 C 10.640625 8.152344 11.148438 8.164062 11.660156 8.183594 C 12.152344 8.199219 12.640625 8.210938 13.132812 8.214844 C 13.320312 8.21875 13.507812 8.222656 13.695312 8.230469 C 14.6875 8.304688 14.6875 8.304688 15.550781 7.90625 C 15.941406 7.417969 16.242188 6.851562 16.355469 6.234375 C 16.230469 5.558594 15.886719 4.867188 15.375 4.40625 C 14.769531 4.132812 14.0625 4.21875 13.417969 4.25 C 13.226562 4.253906 13.039062 4.257812 12.847656 4.257812 C 12.351562 4.261719 11.851562 4.28125 11.355469 4.296875 C 10.847656 4.3125 10.339844 4.320312 9.832031 4.328125 C 8.835938 4.34375 7.839844 4.371094 6.84375 4.40625 Z M 6.84375 4.40625 "/>
<path style=" stroke:none;fill-rule:nonzero;fill:rgb(60.000002%,80.000001%,45.09804%);fill-opacity:1;" d="M 5.53125 17.15625 C 5.535156 17.386719 5.539062 17.613281 5.542969 17.839844 C 5.542969 17.90625 5.546875 17.972656 5.546875 18.039062 C 5.550781 18.390625 5.542969 18.542969 5.34375 18.84375 C 5.320312 18.753906 5.296875 18.660156 5.273438 18.566406 C 5.191406 18.28125 5.191406 18.28125 5.003906 18.199219 C 4.929688 18.195312 4.855469 18.191406 4.78125 18.1875 C 4.660156 18.179688 4.539062 18.167969 4.410156 18.160156 C 4.109375 18.160156 4.027344 18.191406 3.75 18.355469 C 3.53125 18.550781 3.53125 18.550781 3.5625 18.84375 C 3.6875 18.875 3.808594 18.90625 3.9375 18.9375 C 4 18.78125 4.0625 18.628906 4.125 18.46875 C 4.347656 18.457031 4.347656 18.457031 4.59375 18.46875 C 4.65625 18.53125 4.71875 18.59375 4.78125 18.65625 C 4.746094 18.902344 4.746094 18.902344 4.6875 19.125 C 4.148438 19.3125 4.148438 19.3125 3.9375 19.3125 C 3.96875 19.40625 4 19.5 4.03125 19.59375 C 4.136719 19.605469 4.242188 19.617188 4.347656 19.628906 C 4.6875 19.6875 4.6875 19.6875 4.875 19.875 C 4.898438 20.15625 4.898438 20.15625 4.875 20.4375 C 4.6875 20.625 4.6875 20.625 4.417969 20.671875 C 4.125 20.625 4.125 20.625 3.914062 20.34375 C 3.859375 20.25 3.804688 20.15625 3.75 20.0625 C 3.6875 20.0625 3.625 20.0625 3.5625 20.0625 C 3.53125 20.25 3.5 20.433594 3.46875 20.625 C 3.03125 20.769531 2.574219 20.738281 2.121094 20.699219 C 1.96875 20.625 1.96875 20.625 1.867188 20.421875 C 1.65625 19.769531 1.6875 19.054688 1.972656 18.433594 C 2.320312 17.835938 2.785156 17.320312 3.421875 17.03125 C 4.089844 16.855469 4.902344 16.855469 5.53125 17.15625 Z M 5.53125 17.15625 "/>
<path style=" stroke:none;fill-rule:nonzero;fill:rgb(94.117647%,45.882353%,44.313726%);fill-opacity:1;" d="M 4.453125 3.640625 C 4.5625 3.636719 4.5625 3.636719 4.671875 3.636719 C 5.039062 3.632812 5.21875 3.636719 5.53125 3.84375 C 5.648438 4.625 5.566406 5.410156 5.15625 6.09375 C 5.0625 6.140625 5.0625 6.140625 4.96875 6.1875 C 4.9375 5.785156 4.90625 5.382812 4.875 4.96875 C 4.75 4.9375 4.628906 4.90625 4.5 4.875 C 4.449219 4.945312 4.394531 5.019531 4.339844 5.09375 C 4.125 5.34375 3.949219 5.476562 3.65625 5.625 C 3.59375 5.625 3.53125 5.625 3.46875 5.625 C 3.5 5.71875 3.53125 5.8125 3.5625 5.90625 C 3.820312 5.855469 4.0625 5.800781 4.3125 5.71875 C 4.3125 6.121094 4.3125 6.523438 4.3125 6.9375 C 3.59375 7.296875 3.003906 7.421875 2.203125 7.394531 C 1.96875 7.3125 1.96875 7.3125 1.863281 7.109375 C 1.660156 6.445312 1.6875 5.738281 1.988281 5.109375 C 2.558594 4.117188 3.328125 3.640625 4.453125 3.640625 Z M 4.453125 3.640625 "/>
<path style=" stroke:none;fill-rule:nonzero;fill:rgb(97.254902%,76.47059%,36.078432%);fill-opacity:1;" d="M 5.25 10.3125 C 5.34375 10.375 5.4375 10.4375 5.53125 10.5 C 5.550781 10.746094 5.558594 10.96875 5.550781 11.214844 C 5.546875 11.3125 5.546875 11.3125 5.546875 11.414062 C 5.542969 11.578125 5.535156 11.742188 5.53125 11.90625 C 5.25 11.90625 5.25 11.90625 5.105469 11.769531 C 5.058594 11.722656 5.015625 11.675781 4.96875 11.625 C 4.667969 11.472656 4.359375 11.488281 4.03125 11.53125 C 3.746094 11.667969 3.746094 11.667969 3.5625 11.90625 C 3.480469 12.199219 3.480469 12.199219 3.46875 12.46875 C 3.59375 12.46875 3.714844 12.46875 3.84375 12.46875 C 3.871094 12.394531 3.898438 12.320312 3.925781 12.246094 C 4.03125 12 4.03125 12 4.21875 11.8125 C 4.527344 11.84375 4.652344 11.871094 4.875 12.09375 C 4.878906 12.382812 4.847656 12.578125 4.660156 12.804688 C 4.5 12.957031 4.339844 13.101562 4.171875 13.242188 C 3.769531 13.5625 3.769531 13.5625 3.46875 13.96875 C 3.023438 14.140625 2.414062 14.132812 1.96875 13.96875 C 1.664062 13.375 1.667969 12.644531 1.863281 12.015625 C 2.113281 11.480469 2.441406 11.054688 2.90625 10.6875 C 2.957031 10.648438 3.007812 10.605469 3.058594 10.5625 C 3.683594 10.160156 4.535156 10.246094 5.25 10.3125 Z M 5.25 10.3125 "/>
<path style=" stroke:none;fill-rule:nonzero;fill:rgb(21.960784%,25.098041%,26.274511%);fill-opacity:1;" d="M 17.71875 2.34375 C 18.230469 2.335938 18.738281 2.328125 19.25 2.324219 C 19.421875 2.320312 19.597656 2.320312 19.769531 2.316406 C 20.019531 2.3125 20.269531 2.308594 20.519531 2.308594 C 20.597656 2.304688 20.675781 2.304688 20.753906 2.300781 C 21.253906 2.300781 21.546875 2.375 21.9375 2.71875 C 22.21875 3.09375 22.253906 3.371094 22.253906 3.835938 C 22.253906 3.929688 22.253906 3.929688 22.257812 4.027344 C 22.257812 4.242188 22.257812 4.453125 22.253906 4.667969 C 22.253906 4.824219 22.257812 4.976562 22.257812 5.128906 C 22.257812 5.546875 22.257812 5.960938 22.257812 6.378906 C 22.257812 6.8125 22.257812 7.25 22.257812 7.6875 C 22.257812 8.417969 22.257812 9.148438 22.253906 9.882812 C 22.253906 10.726562 22.253906 11.574219 22.257812 12.417969 C 22.257812 13.144531 22.257812 13.871094 22.257812 14.597656 C 22.257812 15.03125 22.257812 15.464844 22.257812 15.898438 C 22.257812 16.308594 22.257812 16.714844 22.253906 17.121094 C 22.253906 17.273438 22.253906 17.421875 22.257812 17.570312 C 22.257812 17.777344 22.257812 17.980469 22.253906 18.183594 C 22.253906 18.300781 22.253906 18.414062 22.253906 18.53125 C 22.207031 18.960938 22.070312 19.28125 21.753906 19.582031 C 21.300781 19.75 20.855469 19.722656 20.378906 19.714844 C 20.273438 19.714844 20.167969 19.714844 20.058594 19.714844 C 19.722656 19.710938 19.382812 19.710938 19.050781 19.707031 C 18.820312 19.703125 18.59375 19.703125 18.363281 19.703125 C 17.804688 19.699219 17.246094 19.691406 16.6875 19.6875 C 16.6875 19.59375 16.6875 19.5 16.6875 19.40625 C 16.742188 19.40625 16.800781 19.40625 16.859375 19.40625 C 17.449219 19.394531 18.039062 19.386719 18.628906 19.375 C 18.847656 19.371094 19.070312 19.371094 19.289062 19.367188 C 19.605469 19.363281 19.921875 19.355469 20.238281 19.351562 C 20.339844 19.351562 20.4375 19.347656 20.539062 19.347656 C 20.675781 19.34375 20.675781 19.34375 20.816406 19.34375 C 20.9375 19.339844 20.9375 19.339844 21.0625 19.339844 C 21.304688 19.308594 21.453125 19.261719 21.65625 19.125 C 21.871094 18.796875 21.867188 18.507812 21.867188 18.121094 C 21.871094 18.058594 21.871094 17.996094 21.871094 17.929688 C 21.871094 17.71875 21.871094 17.507812 21.871094 17.296875 C 21.871094 17.144531 21.875 16.992188 21.875 16.839844 C 21.875 16.429688 21.878906 16.015625 21.878906 15.605469 C 21.878906 15.347656 21.878906 15.089844 21.878906 14.832031 C 21.882812 13.933594 21.882812 13.035156 21.882812 12.140625 C 21.882812 11.300781 21.886719 10.464844 21.890625 9.628906 C 21.894531 8.910156 21.894531 8.191406 21.894531 7.472656 C 21.894531 7.042969 21.894531 6.613281 21.898438 6.183594 C 21.902344 5.78125 21.902344 5.375 21.898438 4.972656 C 21.898438 4.824219 21.902344 4.675781 21.902344 4.527344 C 21.902344 4.328125 21.902344 4.125 21.902344 3.921875 C 21.902344 3.753906 21.902344 3.753906 21.902344 3.578125 C 21.828125 3.195312 21.675781 3.054688 21.375 2.8125 C 21.183594 2.742188 21.183594 2.742188 20.984375 2.75 C 20.914062 2.75 20.839844 2.746094 20.765625 2.746094 C 20.6875 2.746094 20.609375 2.746094 20.53125 2.746094 C 20.449219 2.746094 20.367188 2.742188 20.285156 2.742188 C 20.03125 2.738281 19.773438 2.738281 19.519531 2.738281 C 19.34375 2.734375 19.171875 2.730469 18.996094 2.730469 C 18.570312 2.722656 18.144531 2.71875 17.71875 2.71875 C 17.71875 2.59375 17.71875 2.472656 17.71875 2.34375 Z M 17.71875 2.34375 "/>
<path style=" stroke:none;fill-rule:nonzero;fill:rgb(50.588238%,74.901962%,32.156864%);fill-opacity:1;" d="M 6.375 17.8125 C 6.898438 18.222656 7.089844 18.855469 7.171875 19.496094 C 7.128906 20.226562 6.800781 21.039062 6.28125 21.5625 C 5.625 22.074219 4.980469 22.273438 4.148438 22.261719 C 3.617188 22.1875 3.164062 21.949219 2.71875 21.65625 C 2.6875 21.59375 2.65625 21.53125 2.625 21.46875 C 2.707031 21.484375 2.785156 21.5 2.867188 21.515625 C 3.769531 21.652344 4.621094 21.667969 5.375 21.121094 C 5.953125 20.648438 6.324219 20.144531 6.46875 19.40625 C 6.496094 18.867188 6.488281 18.339844 6.375 17.8125 Z M 6.375 17.8125 "/>
<path style=" stroke:none;fill-rule:nonzero;fill:rgb(97.254902%,71.372551%,21.568628%);fill-opacity:1;" d="M 6.375 11.15625 C 6.789062 11.527344 7.003906 11.882812 7.074219 12.445312 C 7.078125 12.570312 7.078125 12.695312 7.078125 12.820312 C 7.078125 12.886719 7.078125 12.953125 7.078125 13.019531 C 7.050781 13.792969 6.765625 14.335938 6.246094 14.902344 C 5.828125 15.289062 5.351562 15.496094 4.78125 15.5625 C 4.714844 15.570312 4.652344 15.578125 4.582031 15.585938 C 3.867188 15.636719 3.320312 15.382812 2.71875 15 C 2.6875 14.9375 2.65625 14.875 2.625 14.8125 C 2.691406 14.828125 2.753906 14.84375 2.820312 14.859375 C 3.796875 15.03125 4.605469 14.953125 5.429688 14.414062 C 5.988281 13.996094 6.253906 13.398438 6.46875 12.75 C 6.496094 12.210938 6.488281 11.683594 6.375 11.15625 Z M 6.375 11.15625 "/>
<path style=" stroke:none;fill-rule:nonzero;fill:rgb(92.156863%,33.725491%,31.764707%);fill-opacity:1;" d="M 6.375 4.5 C 6.789062 4.871094 7.003906 5.226562 7.074219 5.789062 C 7.097656 6.703125 7.003906 7.386719 6.371094 8.089844 C 5.691406 8.738281 5.082031 8.972656 4.140625 8.953125 C 3.617188 8.871094 3.160156 8.632812 2.71875 8.34375 C 2.6875 8.28125 2.65625 8.21875 2.625 8.15625 C 2.695312 8.179688 2.695312 8.179688 2.765625 8.203125 C 3.585938 8.375 4.511719 8.367188 5.238281 7.933594 C 5.824219 7.488281 6.285156 6.910156 6.46875 6.1875 C 6.515625 5.613281 6.503906 5.0625 6.375 4.5 Z M 6.375 4.5 "/>
<path style=" stroke:none;fill-rule:nonzero;fill:rgb(0%,0.392157%,0.392157%);fill-opacity:1;" d="M 17.519531 11.804688 C 18.070312 11.902344 18.59375 12.226562 19.03125 12.5625 C 19.160156 12.820312 19.160156 12.820312 19.21875 13.03125 C 18.925781 13.351562 18.621094 13.554688 18.242188 13.765625 C 18.136719 13.820312 18.03125 13.882812 17.925781 13.941406 C 17.605469 14.070312 17.476562 14.082031 17.15625 13.96875 C 16.941406 13.753906 17.046875 13.234375 17.046875 12.941406 C 17.042969 12.855469 17.042969 12.769531 17.042969 12.679688 C 17.042969 12.59375 17.042969 12.511719 17.039062 12.425781 C 17.039062 12.308594 17.039062 12.308594 17.039062 12.191406 C 17.078125 11.863281 17.199219 11.8125 17.519531 11.804688 Z M 17.519531 11.804688 "/>
<path style=" stroke:none;fill-rule:nonzero;fill:rgb(0%,0.392157%,0.392157%);fill-opacity:1;" d="M 17.519531 5.148438 C 18.070312 5.246094 18.59375 5.570312 19.03125 5.90625 C 19.160156 6.164062 19.160156 6.164062 19.21875 6.375 C 18.925781 6.695312 18.621094 6.898438 18.242188 7.109375 C 18.136719 7.164062 18.03125 7.226562 17.925781 7.285156 C 17.605469 7.414062 17.476562 7.425781 17.15625 7.3125 C 16.941406 7.097656 17.046875 6.578125 17.046875 6.285156 C 17.042969 6.199219 17.042969 6.113281 17.042969 6.023438 C 17.042969 5.9375 17.042969 5.855469 17.039062 5.769531 C 17.039062 5.652344 17.039062 5.652344 17.039062 5.535156 C 17.078125 5.207031 17.199219 5.15625 17.519531 5.148438 Z M 17.519531 5.148438 "/>
<path style=" stroke:none;fill-rule:nonzero;fill:rgb(5.098039%,3.921569%,1.568628%);fill-opacity:1;" d="M 4.78125 11.4375 C 5.117188 11.589844 5.230469 11.691406 5.4375 12 C 5.449219 12.566406 5.230469 12.84375 4.863281 13.238281 C 4.660156 13.433594 4.449219 13.613281 4.21875 13.78125 C 4.589844 13.8125 4.960938 13.84375 5.34375 13.875 C 5.375 14 5.40625 14.121094 5.4375 14.25 C 5.34375 14.34375 5.34375 14.34375 5.160156 14.355469 C 5.082031 14.355469 5.003906 14.351562 4.925781 14.351562 C 4.839844 14.351562 4.757812 14.351562 4.667969 14.351562 C 4.582031 14.351562 4.492188 14.351562 4.402344 14.347656 C 4.3125 14.347656 4.222656 14.347656 4.128906 14.347656 C 3.910156 14.347656 3.6875 14.34375 3.46875 14.34375 C 3.425781 13.839844 3.425781 13.839844 3.617188 13.574219 C 3.679688 13.515625 3.746094 13.457031 3.816406 13.394531 C 3.882812 13.332031 3.949219 13.265625 4.019531 13.199219 C 4.21875 13.03125 4.21875 13.03125 4.496094 12.832031 C 4.710938 12.664062 4.710938 12.664062 4.777344 12.363281 C 4.777344 12.273438 4.78125 12.1875 4.78125 12.09375 C 4.71875 12.03125 4.65625 11.96875 4.59375 11.90625 C 4.359375 11.898438 4.359375 11.898438 4.125 12 C 4.03125 12.15625 3.9375 12.3125 3.84375 12.46875 C 3.71875 12.46875 3.597656 12.46875 3.46875 12.46875 C 3.433594 12.214844 3.433594 12.214844 3.46875 11.90625 C 3.882812 11.433594 4.164062 11.359375 4.78125 11.4375 Z M 4.78125 11.4375 "/>
<path style=" stroke:none;fill-rule:nonzero;fill:rgb(3.137255%,4.705882%,2.352941%);fill-opacity:1;" d="M 4.78125 18.09375 C 5.042969 18.1875 5.125 18.21875 5.25 18.46875 C 5.273438 19.054688 5.273438 19.054688 5.183594 19.335938 C 5.175781 19.390625 5.167969 19.445312 5.15625 19.5 C 5.199219 19.539062 5.246094 19.582031 5.292969 19.621094 C 5.4375 19.78125 5.4375 19.78125 5.480469 20.097656 C 5.433594 20.488281 5.335938 20.632812 5.0625 20.90625 C 4.714844 21.082031 4.316406 21.054688 3.9375 21 C 3.644531 20.792969 3.644531 20.792969 3.46875 20.53125 C 3.441406 20.269531 3.441406 20.269531 3.46875 20.0625 C 3.59375 20.0625 3.714844 20.0625 3.84375 20.0625 C 3.886719 20.140625 3.929688 20.21875 3.972656 20.296875 C 4.023438 20.375 4.074219 20.453125 4.125 20.53125 C 4.414062 20.578125 4.414062 20.578125 4.6875 20.53125 C 4.8125 20.425781 4.8125 20.425781 4.792969 20.15625 C 4.8125 19.886719 4.8125 19.886719 4.6875 19.78125 C 4.46875 19.746094 4.25 19.714844 4.03125 19.6875 C 4 19.5625 3.96875 19.441406 3.9375 19.3125 C 4.183594 19.21875 4.433594 19.125 4.6875 19.03125 C 4.65625 18.875 4.625 18.722656 4.59375 18.5625 C 4.4375 18.5625 4.285156 18.5625 4.125 18.5625 C 4.0625 18.6875 4 18.808594 3.9375 18.9375 C 3.78125 18.90625 3.628906 18.875 3.46875 18.84375 C 3.496094 18.570312 3.566406 18.464844 3.753906 18.257812 C 4.136719 18.03125 4.339844 18.050781 4.78125 18.09375 Z M 4.78125 18.09375 "/>
<path style=" stroke:none;fill-rule:nonzero;fill:rgb(0%,0%,0%);fill-opacity:1;" d="M 7.5 20.0625 C 9.789062 20.0625 12.078125 20.0625 14.4375 20.0625 C 14.40625 20.15625 14.375 20.25 14.34375 20.34375 C 12.085938 20.34375 9.828125 20.34375 7.5 20.34375 C 7.5 20.25 7.5 20.15625 7.5 20.0625 Z M 7.5 20.0625 "/>
<path style=" stroke:none;fill-rule:nonzero;fill:rgb(0.392157%,0.392157%,0.392157%);fill-opacity:1;" d="M 7.5 13.40625 C 9.789062 13.40625 12.078125 13.40625 14.4375 13.40625 C 14.40625 13.5 14.375 13.59375 14.34375 13.6875 C 12.085938 13.6875 9.828125 13.6875 7.5 13.6875 C 7.5 13.59375 7.5 13.5 7.5 13.40625 Z M 7.5 13.40625 "/>
<path style=" stroke:none;fill-rule:nonzero;fill:rgb(0%,0%,0%);fill-opacity:1;" d="M 7.5 6.75 C 9.789062 6.75 12.078125 6.75 14.4375 6.75 C 14.40625 6.84375 14.375 6.9375 14.34375 7.03125 C 12.085938 7.03125 9.828125 7.03125 7.5 7.03125 C 7.5 6.9375 7.5 6.84375 7.5 6.75 Z M 7.5 6.75 "/>
<path style=" stroke:none;fill-rule:nonzero;fill:rgb(14.117648%,14.117648%,14.117648%);fill-opacity:1;" d="M 7.59375 18.75 C 9.171875 18.75 10.75 18.75 12.375 18.75 C 12.375 18.875 12.375 18.996094 12.375 19.125 C 10.765625 19.125 9.15625 19.125 7.5 19.125 C 7.53125 19 7.5625 18.878906 7.59375 18.75 Z M 7.59375 18.75 "/>
<path style=" stroke:none;fill-rule:nonzero;fill:rgb(12.54902%,12.54902%,12.54902%);fill-opacity:1;" d="M 7.59375 12.09375 C 9.171875 12.09375 10.75 12.09375 12.375 12.09375 C 12.375 12.21875 12.375 12.339844 12.375 12.46875 C 10.765625 12.46875 9.15625 12.46875 7.5 12.46875 C 7.53125 12.34375 7.5625 12.222656 7.59375 12.09375 Z M 7.59375 12.09375 "/>
<path style=" stroke:none;fill-rule:nonzero;fill:rgb(12.54902%,12.54902%,12.54902%);fill-opacity:1;" d="M 7.59375 5.4375 C 9.171875 5.4375 10.75 5.4375 12.375 5.4375 C 12.375 5.5625 12.375 5.683594 12.375 5.8125 C 10.796875 5.8125 9.21875 5.8125 7.59375 5.8125 C 7.59375 5.6875 7.59375 5.566406 7.59375 5.4375 Z M 7.59375 5.4375 "/>
<path style=" stroke:none;fill-rule:nonzero;fill:rgb(1.568628%,0.784314%,0.784314%);fill-opacity:1;" d="M 4.5 4.78125 C 4.625 4.8125 4.746094 4.84375 4.875 4.875 C 4.875 5.773438 4.875 6.667969 4.875 7.59375 C 4.71875 7.625 4.566406 7.65625 4.40625 7.6875 C 4.40625 7.007812 4.40625 6.328125 4.40625 5.625 C 4.128906 5.8125 4.128906 5.8125 3.84375 6 C 3.621094 5.976562 3.621094 5.976562 3.46875 5.90625 C 3.46875 5.8125 3.46875 5.71875 3.46875 5.625 C 3.648438 5.484375 3.648438 5.484375 3.878906 5.34375 C 4.171875 5.164062 4.304688 5.074219 4.5 4.78125 Z M 4.5 4.78125 "/>
<path style=" stroke:none;fill-rule:nonzero;fill:rgb(20.392157%,22.352941%,18.82353%);fill-opacity:1;" d="M 6.09375 17.25 C 6.09375 17.34375 6.09375 17.4375 6.09375 17.53125 C 5.933594 17.4375 5.777344 17.34375 5.617188 17.246094 C 4.992188 16.929688 4.097656 16.960938 3.421875 17.117188 C 2.777344 17.402344 2.328125 18 1.96875 18.585938 C 1.710938 19.550781 1.859375 20.324219 2.34375 21.1875 C 2.25 21.1875 2.15625 21.1875 2.0625 21.1875 C 1.628906 20.367188 1.566406 19.527344 1.730469 18.613281 C 1.972656 17.839844 2.574219 17.324219 3.269531 16.960938 C 4.21875 16.550781 5.246094 16.703125 6.09375 17.25 Z M 6.09375 17.25 "/>
<path style=" stroke:none;fill-rule:nonzero;fill:rgb(20.784314%,23.529412%,24.705882%);fill-opacity:1;" d="M 17.4375 1.78125 C 17.4375 2.277344 17.4375 2.769531 17.4375 3.28125 C 17.046875 3.152344 16.761719 3.046875 16.417969 2.847656 C 16.34375 2.804688 16.269531 2.765625 16.195312 2.71875 C 16.140625 2.691406 16.085938 2.65625 16.03125 2.625 C 16.03125 2.5625 16.03125 2.5 16.03125 2.4375 C 16.230469 2.328125 16.429688 2.21875 16.628906 2.109375 C 16.714844 2.0625 16.714844 2.0625 16.800781 2.015625 C 17.226562 1.78125 17.226562 1.78125 17.4375 1.78125 Z M 17.4375 1.78125 "/>
<path style=" stroke:none;fill-rule:nonzero;fill:rgb(21.960784%,25.098041%,26.274511%);fill-opacity:1;" d="M 17.4375 12.1875 C 17.824219 12.316406 18.082031 12.402344 18.410156 12.609375 C 18.472656 12.648438 18.539062 12.6875 18.605469 12.730469 C 18.652344 12.765625 18.703125 12.804688 18.75 12.84375 C 18.75 12.90625 18.75 12.96875 18.75 13.03125 C 18.101562 13.355469 18.101562 13.355469 17.4375 13.6875 C 17.4375 13.191406 17.4375 12.699219 17.4375 12.1875 Z M 17.4375 12.1875 "/>
<path style=" stroke:none;fill-rule:nonzero;fill:rgb(23.529412%,21.960784%,18.82353%);fill-opacity:1;" d="M 6.09375 10.59375 C 6.09375 10.65625 6.09375 10.71875 6.09375 10.78125 C 5.648438 10.605469 5.648438 10.605469 5.46875 10.496094 C 4.886719 10.257812 4.023438 10.324219 3.410156 10.460938 C 2.773438 10.742188 2.324219 11.351562 1.96875 11.929688 C 1.804688 12.550781 1.78125 13.253906 1.96875 13.875 C 1.90625 13.875 1.84375 13.875 1.78125 13.875 C 1.5625 13.21875 1.570312 12.238281 1.867188 11.601562 C 2.296875 10.910156 2.859375 10.417969 3.644531 10.160156 C 4.554688 9.996094 5.316406 10.09375 6.09375 10.59375 Z M 6.09375 10.59375 "/>
<path style=" stroke:none;fill-rule:nonzero;fill:rgb(21.960784%,25.098041%,26.274511%);fill-opacity:1;" d="M 17.4375 5.53125 C 17.824219 5.660156 18.082031 5.746094 18.410156 5.953125 C 18.472656 5.992188 18.539062 6.03125 18.605469 6.074219 C 18.652344 6.109375 18.703125 6.148438 18.75 6.1875 C 18.75 6.25 18.75 6.3125 18.75 6.375 C 18.101562 6.699219 18.101562 6.699219 17.4375 7.03125 C 17.4375 6.535156 17.4375 6.042969 17.4375 5.53125 Z M 17.4375 5.53125 "/>
<path style=" stroke:none;fill-rule:nonzero;fill:rgb(23.529412%,19.215687%,19.215687%);fill-opacity:1;" d="M 4.488281 3.445312 C 4.601562 3.441406 4.710938 3.441406 4.828125 3.4375 C 5.183594 3.472656 5.410156 3.570312 5.71875 3.75 C 5.6875 3.8125 5.65625 3.875 5.625 3.9375 C 5.554688 3.890625 5.554688 3.890625 5.484375 3.84375 C 5.152344 3.710938 4.832031 3.714844 4.476562 3.714844 C 4.371094 3.714844 4.371094 3.714844 4.257812 3.714844 C 3.714844 3.726562 3.367188 3.820312 2.90625 4.125 C 2.84375 4.152344 2.777344 4.179688 2.710938 4.207031 C 2.484375 4.339844 2.445312 4.449219 2.34375 4.6875 C 2.285156 4.785156 2.285156 4.785156 2.222656 4.886719 C 1.820312 5.582031 1.75 6.28125 1.925781 7.066406 C 1.9375 7.117188 1.953125 7.167969 1.96875 7.21875 C 1.90625 7.21875 1.84375 7.21875 1.78125 7.21875 C 1.5625 6.5625 1.570312 5.582031 1.867188 4.945312 C 2.296875 4.25 2.859375 3.765625 3.640625 3.503906 C 3.925781 3.453125 4.199219 3.449219 4.488281 3.445312 Z M 4.488281 3.445312 "/>
<path style=" stroke:none;fill-rule:nonzero;fill:rgb(54.509807%,76.47059%,38.431373%);fill-opacity:1;" d="M 4.6875 19.875 C 4.75 19.875 4.8125 19.875 4.875 19.875 C 4.886719 20.144531 4.886719 20.144531 4.875 20.4375 C 4.6875 20.625 4.6875 20.625 4.40625 20.652344 C 4.3125 20.644531 4.21875 20.636719 4.125 20.625 C 4.0625 20.53125 4 20.4375 3.9375 20.34375 C 4.105469 20.25 4.273438 20.15625 4.441406 20.058594 C 4.59375 19.976562 4.59375 19.976562 4.6875 19.875 Z M 4.6875 19.875 "/>
<path style=" stroke:none;fill-rule:nonzero;fill:rgb(27.058825%,24.705882%,19.607843%);fill-opacity:1;" d="M 2.8125 10.59375 C 2.90625 10.625 3 10.65625 3.09375 10.6875 C 3.015625 10.753906 3.015625 10.753906 2.9375 10.824219 C 2.867188 10.882812 2.800781 10.941406 2.730469 11.003906 C 2.664062 11.0625 2.597656 11.121094 2.527344 11.179688 C 2.398438 11.292969 2.277344 11.410156 2.15625 11.53125 C 2.171875 11.28125 2.203125 11.113281 2.371094 10.921875 C 2.519531 10.792969 2.519531 10.792969 2.8125 10.59375 Z M 2.8125 10.59375 "/>
<path style=" stroke:none;fill-rule:nonzero;fill:rgb(12.54902%,14.117648%,11.372549%);fill-opacity:1;" d="M 5.34375 16.875 C 5.714844 17.0625 5.714844 17.0625 6.09375 17.25 C 6.09375 17.34375 6.09375 17.4375 6.09375 17.53125 C 5.96875 17.457031 5.84375 17.382812 5.71875 17.308594 C 5.648438 17.265625 5.578125 17.226562 5.507812 17.183594 C 5.453125 17.144531 5.398438 17.105469 5.34375 17.0625 C 5.34375 17 5.34375 16.9375 5.34375 16.875 Z M 5.34375 16.875 "/>
<path style=" stroke:none;fill-rule:nonzero;fill:rgb(16.470589%,14.509805%,10.980392%);fill-opacity:1;" d="M 5.34375 10.21875 C 5.714844 10.40625 5.714844 10.40625 6.09375 10.59375 C 6.09375 10.65625 6.09375 10.71875 6.09375 10.78125 C 5.816406 10.675781 5.59375 10.574219 5.34375 10.40625 C 5.34375 10.34375 5.34375 10.28125 5.34375 10.21875 Z M 5.34375 10.21875 "/>
</g>
</svg>
