<?xml version="1.0" encoding="UTF-8"?>
<svg xmlns="http://www.w3.org/2000/svg" xmlns:xlink="http://www.w3.org/1999/xlink" width="24" height="24" viewBox="0 0 24 24" version="1.1">
<g id="surface1">
<path style=" stroke:none;fill-rule:nonzero;fill:rgb(99.607843%,32.156864%,89.803922%);fill-opacity:1;" d="M 8.414062 2.679688 C 9.257812 3.335938 9.832031 4.191406 10.03125 5.25 C 10.113281 6.105469 10.0625 6.839844 9.71875 7.644531 C 9.636719 7.863281 9.636719 7.863281 9.710938 8.039062 C 9.90625 8.351562 10.164062 8.59375 10.425781 8.851562 C 10.484375 8.910156 10.542969 8.972656 10.605469 9.03125 C 10.800781 9.226562 10.996094 9.425781 11.195312 9.621094 C 11.332031 9.757812 11.46875 9.890625 11.605469 10.027344 C 11.960938 10.386719 12.324219 10.742188 12.679688 11.101562 C 13.046875 11.464844 13.414062 11.832031 13.78125 12.195312 C 14.5 12.914062 15.21875 13.628906 15.9375 14.34375 C 16 14.324219 16.0625 14.304688 16.128906 14.285156 C 16.214844 14.261719 16.296875 14.234375 16.382812 14.210938 C 16.464844 14.183594 16.546875 14.160156 16.632812 14.132812 C 17.703125 13.820312 18.863281 13.847656 19.875 14.34375 C 20.90625 14.933594 21.636719 15.792969 21.972656 16.941406 C 22.210938 18.195312 22.035156 19.34375 21.324219 20.414062 C 20.625 21.304688 19.765625 21.828125 18.65625 22.03125 C 17.382812 22.160156 16.34375 21.914062 15.332031 21.125 C 14.515625 20.378906 14.039062 19.484375 13.933594 18.382812 C 13.902344 17.65625 13.992188 17.03125 14.28125 16.355469 C 14.363281 16.132812 14.363281 16.132812 14.289062 15.960938 C 14.09375 15.648438 13.835938 15.40625 13.574219 15.148438 C 13.515625 15.089844 13.457031 15.03125 13.394531 14.96875 C 13.199219 14.773438 13.003906 14.574219 12.804688 14.378906 C 12.667969 14.246094 12.53125 14.109375 12.394531 13.972656 C 12.039062 13.613281 11.675781 13.257812 11.320312 12.898438 C 10.953125 12.535156 10.585938 12.167969 10.21875 11.804688 C 9.5 11.089844 8.78125 10.371094 8.0625 9.65625 C 8 9.675781 7.9375 9.695312 7.875 9.714844 C 7.792969 9.738281 7.707031 9.765625 7.621094 9.792969 C 7.542969 9.816406 7.460938 9.839844 7.375 9.867188 C 6.292969 10.171875 5.144531 10.152344 4.125 9.65625 C 3.09375 9.066406 2.363281 8.207031 2.027344 7.058594 C 1.789062 5.808594 1.964844 4.65625 2.675781 3.585938 C 4.089844 1.777344 6.515625 1.410156 8.414062 2.679688 Z M 4.5 4.6875 C 4.136719 5.191406 4.007812 5.65625 4.03125 6.28125 C 4.164062 6.902344 4.464844 7.339844 4.980469 7.710938 C 5.449219 7.957031 5.972656 8.035156 6.492188 7.925781 C 7.078125 7.722656 7.507812 7.410156 7.800781 6.847656 C 7.996094 6.34375 8.035156 5.828125 7.855469 5.3125 C 7.601562 4.746094 7.246094 4.355469 6.65625 4.125 C 5.828125 3.925781 5.113281 4.074219 4.5 4.6875 Z M 16.5 16.6875 C 16.136719 17.191406 16.007812 17.65625 16.03125 18.28125 C 16.164062 18.902344 16.464844 19.339844 16.980469 19.710938 C 17.449219 19.957031 17.972656 20.035156 18.492188 19.925781 C 19.078125 19.722656 19.507812 19.410156 19.800781 18.847656 C 19.996094 18.34375 20.035156 17.828125 19.855469 17.3125 C 19.601562 16.746094 19.246094 16.355469 18.65625 16.125 C 17.828125 15.925781 17.113281 16.074219 16.5 16.6875 Z M 16.5 16.6875 "/>
<path style=" stroke:none;fill-rule:nonzero;fill:rgb(99.607843%,32.156864%,89.803922%);fill-opacity:1;" d="M 20.414062 14.679688 C 21.257812 15.335938 21.832031 16.191406 22.03125 17.25 C 22.15625 18.542969 21.9375 19.625 21.125 20.667969 C 20.351562 21.511719 19.441406 21.953125 18.304688 22.066406 C 17.039062 22.109375 16.035156 21.765625 15.09375 20.90625 C 14.21875 19.949219 13.878906 18.902344 13.929688 17.617188 C 13.992188 17.019531 14.167969 16.476562 14.4375 15.9375 C 14.5 15.9375 14.5625 15.9375 14.625 15.9375 C 14.648438 15.882812 14.675781 15.828125 14.703125 15.769531 C 14.941406 15.324219 15.3125 14.890625 15.75 14.625 C 15.8125 14.625 15.875 14.625 15.9375 14.625 C 15.9375 14.5625 15.9375 14.5 15.9375 14.4375 C 16.085938 14.375 16.234375 14.316406 16.382812 14.257812 C 16.464844 14.222656 16.546875 14.1875 16.632812 14.152344 C 17.898438 13.675781 19.3125 13.941406 20.414062 14.679688 Z M 16.5 16.6875 C 16.136719 17.191406 16.007812 17.65625 16.03125 18.28125 C 16.164062 18.902344 16.464844 19.339844 16.980469 19.710938 C 17.449219 19.957031 17.972656 20.035156 18.492188 19.925781 C 19.078125 19.722656 19.507812 19.410156 19.800781 18.847656 C 19.996094 18.34375 20.035156 17.828125 19.855469 17.3125 C 19.601562 16.746094 19.246094 16.355469 18.65625 16.125 C 17.828125 15.925781 17.113281 16.074219 16.5 16.6875 Z M 16.5 16.6875 "/>
<path style=" stroke:none;fill-rule:nonzero;fill:rgb(96.470588%,83.137256%,24.313726%);fill-opacity:1;" d="M 9.375 8.0625 C 9.820312 8.144531 10.054688 8.421875 10.359375 8.730469 C 10.421875 8.789062 10.480469 8.851562 10.542969 8.910156 C 10.742188 9.109375 10.941406 9.308594 11.140625 9.507812 C 11.277344 9.648438 11.417969 9.785156 11.554688 9.921875 C 11.84375 10.210938 12.132812 10.5 12.421875 10.792969 C 12.792969 11.164062 13.164062 11.535156 13.535156 11.90625 C 13.824219 12.1875 14.109375 12.476562 14.390625 12.761719 C 14.527344 12.898438 14.664062 13.035156 14.804688 13.171875 C 14.996094 13.363281 15.183594 13.554688 15.375 13.746094 C 15.433594 13.800781 15.492188 13.859375 15.550781 13.917969 C 15.9375 14.3125 15.9375 14.3125 15.9375 14.625 C 15.769531 14.773438 15.769531 14.773438 15.542969 14.929688 C 15.140625 15.226562 14.890625 15.515625 14.625 15.9375 C 14.332031 15.882812 14.175781 15.804688 13.96875 15.59375 C 13.914062 15.539062 13.859375 15.488281 13.804688 15.433594 C 13.746094 15.375 13.691406 15.316406 13.632812 15.257812 C 13.570312 15.195312 13.507812 15.132812 13.445312 15.070312 C 13.242188 14.867188 13.039062 14.664062 12.839844 14.460938 C 12.699219 14.320312 12.558594 14.179688 12.417969 14.039062 C 12.046875 13.667969 11.679688 13.296875 11.3125 12.925781 C 10.9375 12.546875 10.558594 12.167969 10.183594 11.789062 C 9.445312 11.046875 8.707031 10.304688 7.96875 9.5625 C 8.214844 9.3125 8.453125 9.082031 8.722656 8.863281 C 9.015625 8.609375 9.175781 8.390625 9.375 8.0625 Z M 9.375 8.0625 "/>
</g>
</svg>
