<?xml version="1.0" encoding="UTF-8"?>
<svg xmlns="http://www.w3.org/2000/svg" xmlns:xlink="http://www.w3.org/1999/xlink" width="24" height="24" viewBox="0 0 24 24" version="1.1">
<g id="surface1">
<path style=" stroke:none;fill-rule:nonzero;fill:rgb(54.509807%,80.000001%,89.803922%);fill-opacity:1;" d="M 2.023438 2.578125 C 2.113281 2.574219 2.203125 2.574219 2.292969 2.574219 C 2.589844 2.574219 2.886719 2.574219 3.183594 2.574219 C 3.398438 2.574219 3.609375 2.574219 3.824219 2.574219 C 4.402344 2.570312 4.980469 2.570312 5.558594 2.570312 C 6.042969 2.570312 6.523438 2.570312 7.007812 2.570312 C 8.210938 2.570312 9.417969 2.570312 10.621094 2.570312 C 11.667969 2.574219 12.710938 2.570312 13.757812 2.566406 C 14.832031 2.566406 15.90625 2.566406 16.980469 2.566406 C 17.582031 2.566406 18.183594 2.566406 18.789062 2.5625 C 19.355469 2.5625 19.921875 2.5625 20.488281 2.566406 C 20.695312 2.566406 20.902344 2.566406 21.109375 2.5625 C 21.394531 2.5625 21.679688 2.5625 21.964844 2.566406 C 22.085938 2.566406 22.085938 2.566406 22.210938 2.5625 C 22.785156 2.570312 23.191406 2.707031 23.625 3.09375 C 23.972656 3.507812 24.046875 3.917969 24.046875 4.449219 C 24.050781 4.515625 24.050781 4.585938 24.050781 4.652344 C 24.050781 4.878906 24.050781 5.101562 24.050781 5.328125 C 24.050781 5.488281 24.050781 5.648438 24.050781 5.8125 C 24.054688 6.25 24.054688 6.6875 24.054688 7.125 C 24.054688 7.488281 24.054688 7.855469 24.054688 8.21875 C 24.054688 9.082031 24.054688 9.945312 24.054688 10.808594 C 24.050781 11.695312 24.054688 12.585938 24.058594 13.476562 C 24.058594 14.238281 24.058594 15.003906 24.058594 15.765625 C 24.058594 16.222656 24.058594 16.679688 24.0625 17.136719 C 24.0625 17.5625 24.0625 17.992188 24.058594 18.421875 C 24.058594 18.578125 24.058594 18.734375 24.058594 18.894531 C 24.070312 20.316406 24.070312 20.316406 23.695312 20.855469 C 23.140625 21.34375 22.695312 21.429688 21.976562 21.421875 C 21.886719 21.425781 21.796875 21.425781 21.707031 21.425781 C 21.410156 21.425781 21.113281 21.425781 20.816406 21.425781 C 20.601562 21.425781 20.390625 21.425781 20.175781 21.425781 C 19.597656 21.429688 19.019531 21.429688 18.441406 21.429688 C 17.957031 21.429688 17.476562 21.429688 16.992188 21.429688 C 15.789062 21.429688 14.582031 21.429688 13.378906 21.429688 C 12.332031 21.425781 11.289062 21.429688 10.242188 21.433594 C 9.167969 21.433594 8.09375 21.433594 7.019531 21.433594 C 6.417969 21.433594 5.816406 21.433594 5.210938 21.4375 C 4.644531 21.4375 4.078125 21.4375 3.511719 21.433594 C 3.304688 21.433594 3.097656 21.433594 2.886719 21.433594 C 2.605469 21.4375 2.320312 21.4375 2.035156 21.433594 C 1.953125 21.433594 1.871094 21.4375 1.789062 21.4375 C 1.214844 21.429688 0.808594 21.292969 0.375 20.90625 C 0.0273438 20.492188 -0.046875 20.082031 -0.046875 19.550781 C -0.0507812 19.484375 -0.0507812 19.414062 -0.0507812 19.347656 C -0.0507812 19.121094 -0.0507812 18.898438 -0.0507812 18.671875 C -0.0507812 18.511719 -0.0507812 18.351562 -0.0546875 18.1875 C -0.0546875 17.75 -0.0546875 17.3125 -0.0546875 16.875 C -0.0546875 16.511719 -0.0546875 16.144531 -0.0546875 15.78125 C -0.0546875 14.917969 -0.0546875 14.054688 -0.0546875 13.191406 C -0.0546875 12.304688 -0.0546875 11.414062 -0.0585938 10.523438 C -0.0585938 9.761719 -0.0585938 8.996094 -0.0585938 8.234375 C -0.0585938 7.777344 -0.0585938 7.320312 -0.0625 6.863281 C -0.0625 6.4375 -0.0625 6.007812 -0.0585938 5.578125 C -0.0585938 5.421875 -0.0585938 5.265625 -0.0625 5.105469 C -0.0703125 3.683594 -0.0703125 3.683594 0.304688 3.144531 C 0.859375 2.65625 1.304688 2.570312 2.023438 2.578125 Z M 2.023438 2.578125 "/>
<path style=" stroke:none;fill-rule:nonzero;fill:rgb(79.607844%,88.627452%,91.37255%);fill-opacity:1;" d="M 2.9375 7.464844 C 3.015625 7.464844 3.097656 7.464844 3.179688 7.464844 C 3.449219 7.460938 3.71875 7.460938 3.992188 7.464844 C 4.183594 7.464844 4.378906 7.460938 4.570312 7.460938 C 5.097656 7.460938 5.625 7.460938 6.152344 7.460938 C 6.703125 7.464844 7.25 7.460938 7.800781 7.460938 C 8.726562 7.460938 9.648438 7.460938 10.574219 7.464844 C 11.644531 7.464844 12.710938 7.464844 13.78125 7.460938 C 14.699219 7.460938 15.617188 7.460938 16.53125 7.460938 C 17.082031 7.460938 17.628906 7.460938 18.175781 7.460938 C 18.691406 7.460938 19.207031 7.460938 19.722656 7.464844 C 19.910156 7.464844 20.101562 7.464844 20.289062 7.460938 C 20.546875 7.460938 20.804688 7.460938 21.0625 7.464844 C 21.175781 7.464844 21.175781 7.464844 21.292969 7.460938 C 21.796875 7.46875 21.796875 7.46875 22.03125 7.625 C 22.175781 7.863281 22.15625 8.066406 22.152344 8.339844 C 22.152344 8.449219 22.152344 8.558594 22.148438 8.671875 C 22.148438 8.785156 22.144531 8.902344 22.140625 9.019531 C 22.140625 9.132812 22.140625 9.246094 22.136719 9.367188 C 22.136719 9.652344 22.132812 9.933594 22.125 10.21875 C 21.78125 10.074219 21.5625 9.867188 21.304688 9.601562 C 21.21875 9.519531 21.136719 9.433594 21.050781 9.347656 C 20.964844 9.261719 20.878906 9.171875 20.789062 9.082031 C 20.699219 8.992188 20.613281 8.902344 20.523438 8.8125 C 20.304688 8.59375 20.089844 8.375 19.875 8.15625 C 19.644531 8.25 19.644531 8.25 19.40625 8.34375 C 19.457031 8.707031 19.621094 8.871094 19.878906 9.125 C 19.953125 9.199219 20.03125 9.273438 20.109375 9.351562 C 20.1875 9.429688 20.265625 9.507812 20.351562 9.585938 C 20.429688 9.664062 20.511719 9.742188 20.59375 9.824219 C 20.789062 10.019531 20.988281 10.214844 21.1875 10.40625 C 21.050781 10.722656 20.878906 10.925781 20.632812 11.167969 C 20.5625 11.238281 20.492188 11.308594 20.417969 11.382812 C 20.34375 11.453125 20.269531 11.527344 20.191406 11.601562 C 20.117188 11.675781 20.042969 11.75 19.964844 11.828125 C 19.777344 12.011719 19.59375 12.191406 19.40625 12.375 C 19.5 12.558594 19.5 12.558594 19.59375 12.75 C 19.96875 12.789062 19.96875 12.789062 20.1875 12.570312 C 20.269531 12.488281 20.347656 12.402344 20.429688 12.320312 C 20.492188 12.253906 20.492188 12.253906 20.558594 12.1875 C 20.695312 12.046875 20.828125 11.90625 20.964844 11.765625 C 21.101562 11.625 21.238281 11.484375 21.371094 11.34375 C 21.496094 11.21875 21.617188 11.089844 21.742188 10.960938 C 21.9375 10.78125 21.9375 10.78125 22.125 10.78125 C 22.132812 11.875 22.136719 12.972656 22.140625 14.066406 C 22.140625 14.574219 22.144531 15.085938 22.144531 15.59375 C 22.148438 16.082031 22.152344 16.574219 22.152344 17.0625 C 22.152344 17.25 22.152344 17.4375 22.15625 17.625 C 22.15625 17.886719 22.15625 18.148438 22.15625 18.414062 C 22.15625 18.488281 22.160156 18.566406 22.160156 18.648438 C 22.15625 19.183594 22.15625 19.183594 21.980469 19.382812 C 21.914062 19.441406 21.914062 19.441406 21.84375 19.5 C 21.75 19.46875 21.660156 19.4375 21.5625 19.40625 C 21.59375 19.375 21.625 19.34375 21.65625 19.3125 C 21.664062 19.121094 21.667969 18.925781 21.667969 18.730469 C 21.667969 18.554688 21.667969 18.554688 21.667969 18.375 C 21.667969 18.3125 21.667969 18.253906 21.667969 18.1875 C 21.667969 18 21.667969 17.8125 21.667969 17.625 C 21.667969 17.507812 21.667969 17.386719 21.667969 17.269531 C 21.667969 17.105469 21.667969 17.105469 21.667969 16.9375 C 21.683594 16.695312 21.683594 16.695312 21.5625 16.59375 C 21.386719 16.585938 21.214844 16.582031 21.039062 16.582031 C 20.925781 16.582031 20.8125 16.582031 20.695312 16.582031 C 20.566406 16.582031 20.441406 16.582031 20.3125 16.582031 C 20.179688 16.582031 20.046875 16.582031 19.914062 16.582031 C 19.554688 16.582031 19.191406 16.582031 18.828125 16.582031 C 18.453125 16.582031 18.074219 16.582031 17.695312 16.582031 C 17.0625 16.582031 16.425781 16.582031 15.792969 16.582031 C 15.058594 16.582031 14.324219 16.582031 13.589844 16.582031 C 12.957031 16.582031 12.328125 16.582031 11.699219 16.582031 C 11.324219 16.582031 10.945312 16.582031 10.570312 16.582031 C 10.214844 16.582031 9.863281 16.582031 9.507812 16.582031 C 9.378906 16.582031 9.246094 16.582031 9.117188 16.582031 C 8.941406 16.582031 8.761719 16.582031 8.585938 16.582031 C 8.488281 16.582031 8.386719 16.582031 8.285156 16.582031 C 8.066406 16.566406 8.066406 16.566406 7.96875 16.6875 C 7.960938 16.894531 7.957031 17.105469 7.960938 17.3125 C 7.960938 17.375 7.960938 17.4375 7.960938 17.5 C 7.960938 17.699219 7.960938 17.898438 7.960938 18.097656 C 7.964844 18.234375 7.964844 18.371094 7.964844 18.503906 C 7.964844 18.835938 7.96875 19.167969 7.96875 19.5 C 7.785156 19.5 7.597656 19.5 7.40625 19.5 C 7.40625 19.414062 7.40625 19.332031 7.40625 19.242188 C 7.410156 18.929688 7.410156 18.617188 7.410156 18.304688 C 7.414062 18.167969 7.414062 18.03125 7.414062 17.894531 C 7.414062 17.703125 7.414062 17.507812 7.414062 17.3125 C 7.414062 17.195312 7.417969 17.078125 7.417969 16.957031 C 7.4375 16.695312 7.4375 16.695312 7.3125 16.59375 C 7.160156 16.585938 7.007812 16.582031 6.855469 16.582031 C 6.757812 16.582031 6.660156 16.582031 6.5625 16.582031 C 6.453125 16.582031 6.347656 16.582031 6.242188 16.582031 C 6.132812 16.582031 6.023438 16.582031 5.914062 16.582031 C 5.683594 16.582031 5.457031 16.582031 5.226562 16.582031 C 4.875 16.582031 4.527344 16.582031 4.175781 16.582031 C 3.953125 16.582031 3.730469 16.582031 3.507812 16.582031 C 3.351562 16.582031 3.351562 16.582031 3.1875 16.582031 C 3.09375 16.582031 2.996094 16.582031 2.894531 16.582031 C 2.808594 16.582031 2.722656 16.582031 2.632812 16.582031 C 2.4375 16.570312 2.4375 16.570312 2.34375 16.6875 C 2.335938 16.878906 2.332031 17.070312 2.332031 17.265625 C 2.332031 17.382812 2.332031 17.5 2.332031 17.621094 C 2.332031 17.742188 2.332031 17.867188 2.332031 17.996094 C 2.332031 18.117188 2.332031 18.242188 2.332031 18.367188 C 2.332031 18.484375 2.332031 18.601562 2.332031 18.722656 C 2.332031 18.832031 2.332031 18.941406 2.332031 19.050781 C 2.328125 19.308594 2.328125 19.308594 2.4375 19.5 C 2.167969 19.445312 2.074219 19.417969 1.875 19.21875 C 1.859375 18.949219 1.851562 18.691406 1.855469 18.421875 C 1.855469 18.339844 1.855469 18.257812 1.855469 18.171875 C 1.855469 17.902344 1.855469 17.628906 1.855469 17.355469 C 1.859375 17.164062 1.859375 16.976562 1.859375 16.789062 C 1.859375 16.289062 1.859375 15.792969 1.863281 15.292969 C 1.863281 14.785156 1.863281 14.277344 1.867188 13.773438 C 1.867188 12.773438 1.871094 11.777344 1.875 10.78125 C 2.214844 10.941406 2.421875 11.128906 2.683594 11.402344 C 2.765625 11.484375 2.847656 11.570312 2.929688 11.65625 C 3.101562 11.835938 3.273438 12.015625 3.445312 12.195312 C 3.523438 12.277344 3.605469 12.363281 3.691406 12.449219 C 3.765625 12.527344 3.839844 12.605469 3.917969 12.683594 C 4.109375 12.871094 4.109375 12.871094 4.339844 12.820312 C 4.515625 12.765625 4.515625 12.765625 4.570312 12.589844 C 4.621094 12.359375 4.621094 12.359375 4.441406 12.167969 C 4.367188 12.097656 4.289062 12.023438 4.214844 11.949219 C 4.09375 11.832031 4.09375 11.832031 3.96875 11.710938 C 3.882812 11.625 3.796875 11.546875 3.710938 11.460938 C 3.625 11.378906 3.539062 11.292969 3.449219 11.207031 C 3.238281 11.003906 3.027344 10.796875 2.8125 10.59375 C 2.949219 10.277344 3.121094 10.082031 3.371094 9.847656 C 3.441406 9.777344 3.515625 9.707031 3.585938 9.636719 C 3.738281 9.492188 3.890625 9.347656 4.042969 9.207031 C 4.117188 9.136719 4.1875 9.066406 4.261719 8.996094 C 4.328125 8.933594 4.394531 8.871094 4.460938 8.808594 C 4.621094 8.632812 4.621094 8.632812 4.566406 8.414062 C 4.515625 8.234375 4.515625 8.234375 4.34375 8.175781 C 4.105469 8.128906 4.105469 8.128906 3.898438 8.335938 C 3.8125 8.421875 3.730469 8.507812 3.644531 8.597656 C 3.597656 8.644531 3.554688 8.691406 3.507812 8.738281 C 3.363281 8.882812 3.222656 9.03125 3.082031 9.183594 C 2.9375 9.328125 2.796875 9.476562 2.65625 9.625 C 2.523438 9.757812 2.394531 9.894531 2.265625 10.027344 C 2.0625 10.21875 2.0625 10.21875 1.875 10.21875 C 1.867188 9.816406 1.863281 9.417969 1.859375 9.019531 C 1.855469 8.902344 1.851562 8.789062 1.851562 8.671875 C 1.847656 8.5625 1.847656 8.453125 1.847656 8.339844 C 1.847656 8.242188 1.84375 8.140625 1.84375 8.035156 C 1.875 7.78125 1.875 7.78125 1.96875 7.625 C 2.265625 7.425781 2.585938 7.460938 2.9375 7.464844 Z M 2.9375 7.464844 "/>
<path style=" stroke:none;fill-rule:nonzero;fill:rgb(0%,0%,0%);fill-opacity:1;" d="M 2.023438 2.578125 C 2.113281 2.574219 2.203125 2.574219 2.292969 2.574219 C 2.589844 2.574219 2.886719 2.574219 3.183594 2.574219 C 3.398438 2.574219 3.609375 2.574219 3.824219 2.574219 C 4.402344 2.570312 4.980469 2.570312 5.558594 2.570312 C 6.042969 2.570312 6.523438 2.570312 7.007812 2.570312 C 8.210938 2.570312 9.417969 2.570312 10.621094 2.570312 C 11.667969 2.574219 12.710938 2.570312 13.757812 2.566406 C 14.832031 2.566406 15.90625 2.566406 16.980469 2.566406 C 17.582031 2.566406 18.183594 2.566406 18.789062 2.5625 C 19.355469 2.5625 19.921875 2.5625 20.488281 2.566406 C 20.695312 2.566406 20.902344 2.566406 21.109375 2.5625 C 21.394531 2.5625 21.679688 2.5625 21.964844 2.566406 C 22.085938 2.566406 22.085938 2.566406 22.210938 2.5625 C 22.785156 2.570312 23.191406 2.707031 23.625 3.09375 C 23.972656 3.507812 24.046875 3.917969 24.046875 4.449219 C 24.050781 4.515625 24.050781 4.585938 24.050781 4.652344 C 24.050781 4.878906 24.050781 5.101562 24.050781 5.328125 C 24.050781 5.488281 24.050781 5.648438 24.050781 5.8125 C 24.054688 6.25 24.054688 6.6875 24.054688 7.125 C 24.054688 7.488281 24.054688 7.855469 24.054688 8.21875 C 24.054688 9.082031 24.054688 9.945312 24.054688 10.808594 C 24.050781 11.695312 24.054688 12.585938 24.058594 13.476562 C 24.058594 14.238281 24.058594 15.003906 24.058594 15.765625 C 24.058594 16.222656 24.058594 16.679688 24.0625 17.136719 C 24.0625 17.5625 24.0625 17.992188 24.058594 18.421875 C 24.058594 18.578125 24.058594 18.734375 24.058594 18.894531 C 24.070312 20.316406 24.070312 20.316406 23.695312 20.855469 C 23.140625 21.34375 22.695312 21.429688 21.976562 21.421875 C 21.886719 21.425781 21.796875 21.425781 21.707031 21.425781 C 21.410156 21.425781 21.113281 21.425781 20.816406 21.425781 C 20.601562 21.425781 20.390625 21.425781 20.175781 21.425781 C 19.597656 21.429688 19.019531 21.429688 18.441406 21.429688 C 17.957031 21.429688 17.476562 21.429688 16.992188 21.429688 C 15.789062 21.429688 14.582031 21.429688 13.378906 21.429688 C 12.332031 21.425781 11.289062 21.429688 10.242188 21.433594 C 9.167969 21.433594 8.09375 21.433594 7.019531 21.433594 C 6.417969 21.433594 5.816406 21.433594 5.210938 21.4375 C 4.644531 21.4375 4.078125 21.4375 3.511719 21.433594 C 3.304688 21.433594 3.097656 21.433594 2.886719 21.433594 C 2.605469 21.4375 2.320312 21.4375 2.035156 21.433594 C 1.953125 21.433594 1.871094 21.4375 1.789062 21.4375 C 1.214844 21.429688 0.808594 21.292969 0.375 20.90625 C 0.0273438 20.492188 -0.046875 20.082031 -0.046875 19.550781 C -0.0507812 19.484375 -0.0507812 19.414062 -0.0507812 19.347656 C -0.0507812 19.121094 -0.0507812 18.898438 -0.0507812 18.671875 C -0.0507812 18.511719 -0.0507812 18.351562 -0.0546875 18.1875 C -0.0546875 17.75 -0.0546875 17.3125 -0.0546875 16.875 C -0.0546875 16.511719 -0.0546875 16.144531 -0.0546875 15.78125 C -0.0546875 14.917969 -0.0546875 14.054688 -0.0546875 13.191406 C -0.0546875 12.304688 -0.0546875 11.414062 -0.0585938 10.523438 C -0.0585938 9.761719 -0.0585938 8.996094 -0.0585938 8.234375 C -0.0585938 7.777344 -0.0585938 7.320312 -0.0625 6.863281 C -0.0625 6.4375 -0.0625 6.007812 -0.0585938 5.578125 C -0.0585938 5.421875 -0.0585938 5.265625 -0.0625 5.105469 C -0.0703125 3.683594 -0.0703125 3.683594 0.304688 3.144531 C 0.859375 2.65625 1.304688 2.570312 2.023438 2.578125 Z M 0.84375 3.84375 C 0.578125 4.375 0.75 5.03125 0.75 5.625 C 6.9375 5.625 13.125 5.625 19.5 5.625 C 19.5 5.871094 19.5 6.121094 19.5 6.375 C 13.3125 6.375 7.125 6.375 0.75 6.375 C 0.742188 8.59375 0.738281 10.8125 0.734375 13.09375 C 0.730469 13.796875 0.726562 14.496094 0.722656 15.21875 C 0.722656 15.847656 0.722656 15.847656 0.722656 16.472656 C 0.722656 16.753906 0.722656 17.03125 0.71875 17.3125 C 0.71875 17.667969 0.71875 18.027344 0.71875 18.382812 C 0.71875 18.511719 0.71875 18.644531 0.714844 18.777344 C 0.714844 18.953125 0.714844 19.128906 0.714844 19.304688 C 0.714844 19.40625 0.714844 19.503906 0.714844 19.605469 C 0.765625 19.996094 0.921875 20.222656 1.183594 20.511719 C 1.53125 20.6875 1.863281 20.664062 2.25 20.660156 C 2.378906 20.660156 2.378906 20.660156 2.511719 20.660156 C 2.800781 20.664062 3.089844 20.660156 3.378906 20.660156 C 3.585938 20.660156 3.792969 20.660156 4 20.664062 C 4.5625 20.664062 5.125 20.664062 5.6875 20.664062 C 6.277344 20.660156 6.867188 20.664062 7.453125 20.664062 C 8.507812 20.664062 9.558594 20.664062 10.609375 20.660156 C 11.566406 20.660156 12.519531 20.660156 13.472656 20.660156 C 14.582031 20.664062 15.6875 20.664062 16.796875 20.664062 C 17.382812 20.660156 17.96875 20.660156 18.554688 20.664062 C 19.105469 20.664062 19.65625 20.664062 20.210938 20.660156 C 20.410156 20.660156 20.613281 20.660156 20.816406 20.660156 C 21.09375 20.664062 21.367188 20.660156 21.644531 20.660156 C 21.765625 20.660156 21.765625 20.660156 21.890625 20.664062 C 22.324219 20.660156 22.625 20.636719 22.96875 20.34375 C 23.238281 19.996094 23.285156 19.742188 23.285156 19.304688 C 23.285156 19.191406 23.285156 19.078125 23.285156 18.960938 C 23.285156 18.832031 23.285156 18.707031 23.28125 18.582031 C 23.28125 18.449219 23.28125 18.316406 23.28125 18.183594 C 23.28125 17.824219 23.28125 17.460938 23.277344 17.101562 C 23.277344 16.722656 23.277344 16.347656 23.277344 15.96875 C 23.277344 15.257812 23.273438 14.542969 23.269531 13.828125 C 23.265625 13.015625 23.265625 12.203125 23.265625 11.390625 C 23.261719 9.71875 23.257812 8.046875 23.25 6.375 C 22.507812 6.375 21.765625 6.375 21 6.375 C 21 6.128906 21 5.878906 21 5.625 C 21.742188 5.625 22.484375 5.625 23.25 5.625 C 23.265625 5.246094 23.265625 5.246094 23.28125 4.863281 C 23.285156 4.785156 23.289062 4.707031 23.292969 4.628906 C 23.300781 4.246094 23.273438 4.003906 23.03125 3.703125 C 22.613281 3.3125 22.210938 3.359375 21.667969 3.359375 C 21.582031 3.359375 21.496094 3.359375 21.410156 3.359375 C 21.121094 3.359375 20.828125 3.359375 20.539062 3.355469 C 20.332031 3.355469 20.125 3.355469 19.917969 3.355469 C 19.238281 3.351562 18.558594 3.351562 17.878906 3.347656 C 17.644531 3.347656 17.410156 3.347656 17.175781 3.347656 C 16.203125 3.34375 15.226562 3.34375 14.253906 3.34375 C 14.003906 3.34375 13.75 3.34375 13.496094 3.339844 C 13.402344 3.339844 13.402344 3.339844 13.308594 3.339844 C 12.289062 3.339844 11.273438 3.339844 10.253906 3.332031 C 9.210938 3.328125 8.167969 3.328125 7.121094 3.328125 C 6.535156 3.328125 5.949219 3.324219 5.363281 3.324219 C 4.8125 3.320312 4.261719 3.320312 3.710938 3.320312 C 3.507812 3.320312 3.304688 3.320312 3.101562 3.316406 C 2.824219 3.316406 2.550781 3.316406 2.273438 3.316406 C 2.191406 3.316406 2.113281 3.316406 2.027344 3.3125 C 1.476562 3.320312 1.230469 3.441406 0.84375 3.84375 Z M 0.84375 3.84375 "/>
<path style=" stroke:none;fill-rule:nonzero;fill:rgb(85.882354%,85.882354%,85.882354%);fill-opacity:1;" d="M 2.226562 3.363281 C 2.3125 3.363281 2.398438 3.359375 2.488281 3.359375 C 2.777344 3.359375 3.066406 3.359375 3.355469 3.359375 C 3.5625 3.359375 3.769531 3.359375 3.976562 3.359375 C 4.542969 3.355469 5.105469 3.355469 5.667969 3.355469 C 6.019531 3.355469 6.371094 3.355469 6.726562 3.355469 C 7.699219 3.355469 8.671875 3.351562 9.648438 3.351562 C 9.742188 3.351562 9.742188 3.351562 9.835938 3.351562 C 9.898438 3.351562 9.960938 3.351562 10.027344 3.351562 C 10.152344 3.351562 10.28125 3.351562 10.40625 3.351562 C 10.5 3.351562 10.5 3.351562 10.597656 3.351562 C 11.617188 3.351562 12.632812 3.351562 13.652344 3.347656 C 14.699219 3.347656 15.742188 3.34375 16.789062 3.34375 C 17.375 3.34375 17.960938 3.34375 18.550781 3.34375 C 19.101562 3.339844 19.652344 3.339844 20.207031 3.339844 C 20.410156 3.339844 20.613281 3.339844 20.8125 3.339844 C 21.089844 3.339844 21.367188 3.339844 21.644531 3.339844 C 21.722656 3.339844 21.804688 3.339844 21.886719 3.339844 C 22.425781 3.34375 22.734375 3.441406 23.136719 3.808594 C 23.3125 4.152344 23.28125 4.476562 23.269531 4.851562 C 23.261719 5.105469 23.257812 5.363281 23.25 5.625 C 22.507812 5.625 21.765625 5.625 21 5.625 C 21 5.75 21 5.871094 21 6 C 20.503906 6 20.011719 6 19.5 6 C 19.5 5.875 19.5 5.753906 19.5 5.625 C 13.3125 5.625 7.125 5.625 0.75 5.625 C 0.75 4.03125 0.75 4.03125 1.21875 3.46875 C 1.53125 3.3125 1.882812 3.363281 2.226562 3.363281 Z M 2.226562 3.363281 "/>
<path style=" stroke:none;fill-rule:nonzero;fill:rgb(0%,0%,0%);fill-opacity:1;" d="M 2.960938 13.851562 C 3.035156 13.851562 3.109375 13.851562 3.183594 13.851562 C 3.300781 13.851562 3.300781 13.851562 3.421875 13.851562 C 3.683594 13.851562 3.949219 13.851562 4.210938 13.851562 C 4.398438 13.851562 4.589844 13.851562 4.777344 13.851562 C 5.289062 13.847656 5.800781 13.847656 6.3125 13.851562 C 6.847656 13.851562 7.382812 13.851562 7.917969 13.851562 C 8.816406 13.847656 9.714844 13.851562 10.613281 13.851562 C 11.652344 13.851562 12.691406 13.851562 13.730469 13.851562 C 14.625 13.847656 15.515625 13.847656 16.40625 13.851562 C 16.941406 13.851562 17.472656 13.851562 18.007812 13.847656 C 18.507812 13.847656 19.007812 13.847656 19.511719 13.851562 C 19.695312 13.851562 19.878906 13.851562 20.0625 13.851562 C 20.3125 13.851562 20.566406 13.851562 20.816406 13.851562 C 20.890625 13.851562 20.960938 13.851562 21.039062 13.851562 C 21.539062 13.855469 21.539062 13.855469 21.75 14.0625 C 21.773438 14.253906 21.773438 14.253906 21.773438 14.484375 C 21.773438 14.566406 21.773438 14.652344 21.777344 14.734375 C 21.773438 14.824219 21.773438 14.910156 21.773438 15 C 21.773438 15.085938 21.773438 15.171875 21.777344 15.265625 C 21.773438 15.347656 21.773438 15.429688 21.773438 15.515625 C 21.773438 15.59375 21.773438 15.667969 21.773438 15.746094 C 21.75 15.9375 21.75 15.9375 21.5625 16.125 C 21.308594 16.144531 21.066406 16.152344 20.816406 16.148438 C 20.699219 16.148438 20.699219 16.148438 20.578125 16.148438 C 20.316406 16.152344 20.050781 16.148438 19.789062 16.148438 C 19.601562 16.148438 19.414062 16.148438 19.222656 16.152344 C 18.710938 16.152344 18.199219 16.152344 17.6875 16.152344 C 17.152344 16.148438 16.617188 16.152344 16.082031 16.152344 C 15.183594 16.152344 14.285156 16.152344 13.386719 16.148438 C 12.347656 16.148438 11.308594 16.148438 10.265625 16.148438 C 9.375 16.152344 8.484375 16.152344 7.59375 16.152344 C 7.058594 16.148438 6.527344 16.148438 5.992188 16.152344 C 5.492188 16.152344 4.992188 16.152344 4.492188 16.148438 C 4.304688 16.148438 4.121094 16.148438 3.9375 16.148438 C 3.6875 16.152344 3.4375 16.148438 3.183594 16.148438 C 3.113281 16.148438 3.039062 16.148438 2.960938 16.148438 C 2.457031 16.148438 2.457031 16.148438 2.25 15.9375 C 2.226562 15.746094 2.226562 15.746094 2.226562 15.515625 C 2.222656 15.433594 2.222656 15.347656 2.222656 15.265625 C 2.226562 15.132812 2.226562 15.132812 2.226562 15 C 2.226562 14.914062 2.226562 14.824219 2.222656 14.734375 C 2.222656 14.652344 2.222656 14.570312 2.226562 14.484375 C 2.226562 14.40625 2.226562 14.332031 2.226562 14.253906 C 2.28125 13.8125 2.589844 13.851562 2.960938 13.851562 Z M 2.960938 13.851562 "/>
<path style=" stroke:none;fill-rule:nonzero;fill:rgb(0%,0%,0%);fill-opacity:1;" d="M 8.597656 16.476562 C 8.765625 16.476562 8.765625 16.476562 8.941406 16.472656 C 9.066406 16.476562 9.195312 16.476562 9.320312 16.476562 C 9.453125 16.476562 9.585938 16.476562 9.71875 16.472656 C 10.078125 16.472656 10.441406 16.472656 10.800781 16.476562 C 11.179688 16.476562 11.554688 16.476562 11.933594 16.472656 C 12.566406 16.472656 13.199219 16.472656 13.835938 16.476562 C 14.566406 16.476562 15.300781 16.476562 16.035156 16.476562 C 16.664062 16.472656 17.292969 16.472656 17.921875 16.472656 C 18.296875 16.476562 18.671875 16.476562 19.046875 16.472656 C 19.402344 16.472656 19.753906 16.472656 20.109375 16.476562 C 20.238281 16.476562 20.367188 16.476562 20.496094 16.476562 C 20.675781 16.472656 20.851562 16.476562 21.027344 16.476562 C 21.128906 16.476562 21.226562 16.476562 21.328125 16.476562 C 21.5625 16.5 21.5625 16.5 21.75 16.6875 C 21.773438 16.945312 21.773438 16.945312 21.773438 17.273438 C 21.773438 17.390625 21.777344 17.507812 21.777344 17.628906 C 21.773438 17.75 21.773438 17.875 21.773438 18 C 21.773438 18.121094 21.773438 18.246094 21.777344 18.371094 C 21.777344 18.488281 21.773438 18.605469 21.773438 18.726562 C 21.773438 18.835938 21.773438 18.941406 21.773438 19.054688 C 21.75 19.3125 21.75 19.3125 21.5625 19.5 C 21.328125 19.523438 21.328125 19.523438 21.027344 19.523438 C 20.859375 19.523438 20.859375 19.523438 20.683594 19.527344 C 20.558594 19.523438 20.429688 19.523438 20.304688 19.523438 C 20.171875 19.523438 20.039062 19.523438 19.90625 19.523438 C 19.546875 19.527344 19.183594 19.527344 18.824219 19.523438 C 18.445312 19.523438 18.070312 19.523438 17.691406 19.527344 C 17.058594 19.527344 16.425781 19.523438 15.789062 19.523438 C 15.058594 19.523438 14.324219 19.523438 13.589844 19.523438 C 12.960938 19.527344 12.332031 19.527344 11.703125 19.523438 C 11.328125 19.523438 10.953125 19.523438 10.578125 19.527344 C 10.222656 19.527344 9.871094 19.527344 9.515625 19.523438 C 9.386719 19.523438 9.257812 19.523438 9.125 19.523438 C 8.949219 19.523438 8.773438 19.523438 8.597656 19.523438 C 8.496094 19.523438 8.398438 19.523438 8.296875 19.523438 C 8.0625 19.5 8.0625 19.5 7.875 19.3125 C 7.851562 19.054688 7.851562 19.054688 7.851562 18.726562 C 7.851562 18.609375 7.851562 18.492188 7.847656 18.371094 C 7.851562 18.25 7.851562 18.125 7.851562 18 C 7.851562 17.875 7.851562 17.753906 7.847656 17.628906 C 7.851562 17.511719 7.851562 17.394531 7.851562 17.273438 C 7.851562 17.164062 7.851562 17.058594 7.851562 16.945312 C 7.898438 16.449219 8.164062 16.476562 8.597656 16.476562 Z M 8.597656 16.476562 "/>
<path style=" stroke:none;fill-rule:nonzero;fill:rgb(100%,79.607844%,34.901962%);fill-opacity:1;" d="M 8.625 17.25 C 12.707031 17.25 16.792969 17.25 21 17.25 C 21 17.746094 21 18.238281 21 18.75 C 16.917969 18.75 12.832031 18.75 8.625 18.75 C 8.625 18.253906 8.625 17.761719 8.625 17.25 Z M 8.625 17.25 "/>
<path style=" stroke:none;fill-rule:nonzero;fill:rgb(0%,0%,0%);fill-opacity:1;" d="M 2.902344 16.476562 C 3.046875 16.476562 3.046875 16.476562 3.195312 16.472656 C 3.355469 16.476562 3.355469 16.476562 3.515625 16.476562 C 3.625 16.476562 3.730469 16.476562 3.839844 16.476562 C 4.070312 16.476562 4.296875 16.476562 4.523438 16.476562 C 4.875 16.476562 5.222656 16.476562 5.574219 16.476562 C 5.792969 16.476562 6.015625 16.476562 6.234375 16.476562 C 6.339844 16.476562 6.445312 16.476562 6.554688 16.472656 C 6.648438 16.476562 6.746094 16.476562 6.847656 16.476562 C 6.976562 16.476562 6.976562 16.476562 7.105469 16.476562 C 7.3125 16.5 7.3125 16.5 7.5 16.6875 C 7.523438 16.945312 7.523438 16.945312 7.523438 17.273438 C 7.523438 17.449219 7.523438 17.449219 7.523438 17.628906 C 7.523438 17.75 7.523438 17.875 7.523438 18 C 7.523438 18.183594 7.523438 18.183594 7.523438 18.371094 C 7.523438 18.488281 7.523438 18.605469 7.523438 18.726562 C 7.523438 18.835938 7.523438 18.941406 7.523438 19.054688 C 7.5 19.3125 7.5 19.3125 7.3125 19.5 C 7.105469 19.523438 7.105469 19.523438 6.847656 19.523438 C 6.75 19.523438 6.652344 19.527344 6.554688 19.527344 C 6.394531 19.527344 6.394531 19.527344 6.234375 19.523438 C 6.074219 19.527344 6.074219 19.527344 5.910156 19.527344 C 5.679688 19.527344 5.453125 19.527344 5.226562 19.523438 C 4.875 19.523438 4.527344 19.523438 4.175781 19.527344 C 3.957031 19.527344 3.738281 19.527344 3.515625 19.523438 C 3.410156 19.527344 3.304688 19.527344 3.195312 19.527344 C 3.050781 19.527344 3.050781 19.527344 2.902344 19.523438 C 2.816406 19.523438 2.730469 19.523438 2.644531 19.523438 C 2.4375 19.5 2.4375 19.5 2.25 19.3125 C 2.226562 19.054688 2.226562 19.054688 2.226562 18.726562 C 2.222656 18.609375 2.222656 18.492188 2.222656 18.371094 C 2.226562 18.25 2.226562 18.125 2.226562 18 C 2.226562 17.878906 2.226562 17.753906 2.222656 17.628906 C 2.222656 17.511719 2.222656 17.394531 2.226562 17.273438 C 2.226562 17.164062 2.226562 17.058594 2.226562 16.945312 C 2.269531 16.480469 2.492188 16.476562 2.902344 16.476562 Z M 2.902344 16.476562 "/>
<path style=" stroke:none;fill-rule:nonzero;fill:rgb(100%,88.235295%,40.784314%);fill-opacity:1;" d="M 3 14.625 C 8.941406 14.625 14.878906 14.625 21 14.625 C 21 14.871094 21 15.121094 21 15.375 C 15.058594 15.375 9.121094 15.375 3 15.375 C 3 15.128906 3 14.878906 3 14.625 Z M 3 14.625 "/>
<path style=" stroke:none;fill-rule:nonzero;fill:rgb(0%,0%,0%);fill-opacity:1;" d="M 16.148438 8.601562 C 16.324219 8.601562 16.324219 8.601562 16.503906 8.597656 C 16.6875 8.601562 16.6875 8.601562 16.875 8.601562 C 16.996094 8.601562 17.121094 8.601562 17.246094 8.597656 C 17.363281 8.597656 17.480469 8.601562 17.601562 8.601562 C 17.710938 8.601562 17.816406 8.601562 17.929688 8.601562 C 18.1875 8.625 18.1875 8.625 18.375 8.8125 C 18.398438 9.003906 18.398438 9.003906 18.398438 9.234375 C 18.398438 9.359375 18.398438 9.359375 18.398438 9.484375 C 18.398438 9.574219 18.398438 9.660156 18.398438 9.75 C 18.398438 9.878906 18.398438 9.878906 18.398438 10.015625 C 18.398438 10.097656 18.398438 10.179688 18.398438 10.265625 C 18.398438 10.34375 18.398438 10.417969 18.398438 10.496094 C 18.375 10.6875 18.375 10.6875 18.1875 10.875 C 17.976562 10.894531 17.976562 10.894531 17.71875 10.894531 C 17.625 10.890625 17.53125 10.890625 17.4375 10.890625 C 17.292969 10.890625 17.292969 10.890625 17.144531 10.886719 C 17.046875 10.886719 16.949219 10.886719 16.847656 10.882812 C 16.609375 10.882812 16.367188 10.878906 16.125 10.875 C 16.125 11.371094 16.125 11.867188 16.125 12.375 C 15.878906 12.375 15.628906 12.375 15.375 12.375 C 15.371094 11.871094 15.367188 11.367188 15.363281 10.863281 C 15.363281 10.691406 15.363281 10.519531 15.359375 10.347656 C 15.359375 10.101562 15.355469 9.855469 15.355469 9.609375 C 15.355469 9.53125 15.355469 9.457031 15.351562 9.378906 C 15.351562 9.1875 15.363281 9 15.375 8.8125 C 15.632812 8.554688 15.785156 8.601562 16.148438 8.601562 Z M 16.148438 8.601562 "/>
<path style=" stroke:none;fill-rule:nonzero;fill:rgb(0%,0%,0%);fill-opacity:1;" d="M 5.625 8.625 C 5.871094 8.625 6.121094 8.625 6.375 8.625 C 6.375 9.121094 6.375 9.613281 6.375 10.125 C 6.871094 10.125 7.363281 10.125 7.875 10.125 C 7.875 9.628906 7.875 9.136719 7.875 8.625 C 8.121094 8.625 8.371094 8.625 8.625 8.625 C 8.625 9.863281 8.625 11.101562 8.625 12.375 C 8.378906 12.375 8.128906 12.375 7.875 12.375 C 7.875 11.878906 7.875 11.386719 7.875 10.875 C 7.378906 10.875 6.886719 10.875 6.375 10.875 C 6.375 11.371094 6.375 11.863281 6.375 12.375 C 6.128906 12.375 5.878906 12.375 5.625 12.375 C 5.625 11.136719 5.625 9.898438 5.625 8.625 Z M 5.625 8.625 "/>
<path style=" stroke:none;fill-rule:nonzero;fill:rgb(94.901961%,60.000002%,9.803922%);fill-opacity:1;" d="M 3 17.25 C 4.238281 17.25 5.476562 17.25 6.75 17.25 C 6.75 17.746094 6.75 18.238281 6.75 18.75 C 5.511719 18.75 4.273438 18.75 3 18.75 C 3 18.253906 3 17.761719 3 17.25 Z M 3 17.25 "/>
<path style=" stroke:none;fill-rule:nonzero;fill:rgb(1.568628%,1.568628%,1.568628%);fill-opacity:1;" d="M 4.332031 8.070312 C 4.5 8.15625 4.5 8.15625 4.6875 8.34375 C 4.664062 8.703125 4.464844 8.878906 4.214844 9.125 C 4.140625 9.199219 4.0625 9.273438 3.984375 9.351562 C 3.867188 9.46875 3.867188 9.46875 3.746094 9.585938 C 3.625 9.703125 3.625 9.703125 3.5 9.824219 C 3.304688 10.019531 3.105469 10.214844 2.90625 10.40625 C 3.042969 10.722656 3.214844 10.917969 3.464844 11.152344 C 3.535156 11.222656 3.609375 11.292969 3.683594 11.363281 C 3.832031 11.507812 3.984375 11.652344 4.136719 11.792969 C 4.246094 11.898438 4.246094 11.898438 4.355469 12.003906 C 4.421875 12.066406 4.488281 12.128906 4.554688 12.191406 C 4.6875 12.375 4.6875 12.375 4.671875 12.574219 C 4.59375 12.75 4.59375 12.75 4.40625 12.9375 C 4.015625 12.921875 3.78125 12.640625 3.519531 12.378906 C 3.472656 12.332031 3.425781 12.285156 3.375 12.238281 C 3.277344 12.140625 3.175781 12.039062 3.074219 11.941406 C 2.925781 11.789062 2.769531 11.640625 2.613281 11.492188 C 2.519531 11.394531 2.421875 11.296875 2.324219 11.203125 C 2.277344 11.15625 2.230469 11.113281 2.183594 11.066406 C 1.984375 10.863281 1.878906 10.742188 1.863281 10.453125 C 2 10.144531 2.199219 9.933594 2.4375 9.699219 C 2.507812 9.628906 2.507812 9.628906 2.578125 9.554688 C 2.675781 9.453125 2.777344 9.355469 2.875 9.257812 C 3.027344 9.105469 3.179688 8.953125 3.332031 8.796875 C 3.425781 8.703125 3.523438 8.605469 3.621094 8.507812 C 3.664062 8.460938 3.710938 8.417969 3.753906 8.367188 C 4.074219 8.058594 4.074219 8.058594 4.332031 8.070312 Z M 4.332031 8.070312 "/>
<path style=" stroke:none;fill-rule:nonzero;fill:rgb(1.176471%,1.176471%,1.176471%);fill-opacity:1;" d="M 19.6875 8.0625 C 20.210938 8.28125 20.582031 8.726562 20.976562 9.121094 C 21.121094 9.261719 21.269531 9.40625 21.417969 9.546875 C 21.511719 9.636719 21.605469 9.730469 21.695312 9.820312 C 21.78125 9.90625 21.867188 9.988281 21.953125 10.074219 C 22.125 10.3125 22.125 10.3125 22.136719 10.546875 C 21.996094 10.855469 21.792969 11.066406 21.550781 11.296875 C 21.503906 11.34375 21.453125 11.394531 21.40625 11.441406 C 21.253906 11.589844 21.101562 11.742188 20.949219 11.886719 C 20.84375 11.992188 20.742188 12.09375 20.636719 12.195312 C 20.382812 12.441406 20.128906 12.691406 19.875 12.9375 C 19.519531 12.796875 19.5 12.75 19.3125 12.375 C 19.898438 11.789062 20.488281 11.199219 21.09375 10.59375 C 20.921875 10.25 20.804688 10.101562 20.535156 9.847656 C 20.464844 9.777344 20.390625 9.707031 20.320312 9.636719 C 20.167969 9.492188 20.015625 9.351562 19.863281 9.207031 C 19.789062 9.136719 19.71875 9.070312 19.644531 8.996094 C 19.546875 8.902344 19.546875 8.902344 19.445312 8.808594 C 19.3125 8.625 19.3125 8.625 19.320312 8.425781 C 19.40625 8.25 19.40625 8.25 19.6875 8.0625 Z M 19.6875 8.0625 "/>
<path style=" stroke:none;fill-rule:nonzero;fill:rgb(0%,0%,0%);fill-opacity:1;" d="M 12.375 8.625 C 13.117188 8.625 13.859375 8.625 14.625 8.625 C 14.625 8.871094 14.625 9.121094 14.625 9.375 C 14.378906 9.375 14.128906 9.375 13.875 9.375 C 13.875 10.363281 13.875 11.355469 13.875 12.375 C 13.628906 12.375 13.378906 12.375 13.125 12.375 C 13.125 11.386719 13.125 10.394531 13.125 9.375 C 12.878906 9.375 12.628906 9.375 12.375 9.375 C 12.375 9.128906 12.375 8.878906 12.375 8.625 Z M 12.375 8.625 "/>
<path style=" stroke:none;fill-rule:nonzero;fill:rgb(0%,0%,0%);fill-opacity:1;" d="M 9.375 8.625 C 10.117188 8.625 10.859375 8.625 11.625 8.625 C 11.625 8.871094 11.625 9.121094 11.625 9.375 C 11.378906 9.375 11.128906 9.375 10.875 9.375 C 10.875 10.363281 10.875 11.355469 10.875 12.375 C 10.628906 12.375 10.378906 12.375 10.125 12.375 C 10.125 11.386719 10.125 10.394531 10.125 9.375 C 9.878906 9.375 9.628906 9.375 9.375 9.375 C 9.375 9.128906 9.375 8.878906 9.375 8.625 Z M 9.375 8.625 "/>
<path style=" stroke:none;fill-rule:nonzero;fill:rgb(80.000001%,89.019608%,91.764706%);fill-opacity:1;" d="M 16.125 9.375 C 16.621094 9.375 17.113281 9.375 17.625 9.375 C 17.625 9.621094 17.625 9.871094 17.625 10.125 C 17.128906 10.125 16.636719 10.125 16.125 10.125 C 16.125 9.878906 16.125 9.628906 16.125 9.375 Z M 16.125 9.375 "/>
<path style=" stroke:none;fill-rule:nonzero;fill:rgb(0%,0%,0%);fill-opacity:1;" d="M 4.5 4.125 C 4.746094 4.125 4.996094 4.125 5.25 4.125 C 5.25 4.371094 5.25 4.621094 5.25 4.875 C 5.003906 4.875 4.753906 4.875 4.5 4.875 C 4.5 4.628906 4.5 4.378906 4.5 4.125 Z M 4.5 4.125 "/>
<path style=" stroke:none;fill-rule:nonzero;fill:rgb(0%,0%,0%);fill-opacity:1;" d="M 3 4.125 C 3.246094 4.125 3.496094 4.125 3.75 4.125 C 3.75 4.371094 3.75 4.621094 3.75 4.875 C 3.503906 4.875 3.253906 4.875 3 4.875 C 3 4.628906 3 4.378906 3 4.125 Z M 3 4.125 "/>
<path style=" stroke:none;fill-rule:nonzero;fill:rgb(0%,0%,0%);fill-opacity:1;" d="M 1.5 4.125 C 1.746094 4.125 1.996094 4.125 2.25 4.125 C 2.25 4.371094 2.25 4.621094 2.25 4.875 C 2.003906 4.875 1.753906 4.875 1.5 4.875 C 1.5 4.628906 1.5 4.378906 1.5 4.125 Z M 1.5 4.125 "/>
</g>
</svg>
