<?xml version="1.0" encoding="UTF-8"?>
<svg xmlns="http://www.w3.org/2000/svg" xmlns:xlink="http://www.w3.org/1999/xlink" width="24" height="24" viewBox="0 0 24 24" version="1.1">
<g id="surface1">
<path style=" stroke:none;fill-rule:nonzero;fill:rgb(83.529413%,91.37255%,98.431373%);fill-opacity:1;" d="M 11.207031 0.824219 C 11.300781 0.824219 11.398438 0.824219 11.5 0.824219 C 11.605469 0.828125 11.710938 0.828125 11.816406 0.828125 C 11.929688 0.828125 12.039062 0.828125 12.152344 0.832031 C 12.320312 0.832031 12.320312 0.832031 12.488281 0.835938 C 12.761719 0.835938 13.039062 0.839844 13.3125 0.84375 C 13.46875 1.15625 13.414062 1.5 13.410156 1.839844 C 13.410156 1.914062 13.410156 1.992188 13.410156 2.066406 C 13.410156 2.253906 13.410156 2.441406 13.40625 2.625 C 13.503906 2.636719 13.597656 2.648438 13.695312 2.660156 C 14.042969 2.714844 14.328125 2.800781 14.652344 2.929688 C 14.757812 2.972656 14.863281 3.011719 14.972656 3.054688 C 15.335938 3.210938 15.679688 3.390625 16.019531 3.589844 C 16.21875 3.675781 16.21875 3.675781 16.410156 3.597656 C 16.695312 3.398438 16.902344 3.132812 17.128906 2.867188 C 17.34375 2.71875 17.34375 2.71875 17.648438 2.722656 C 18.074219 2.832031 18.296875 3.03125 18.59375 3.335938 C 18.648438 3.386719 18.699219 3.441406 18.753906 3.496094 C 18.867188 3.605469 18.976562 3.71875 19.085938 3.828125 C 19.253906 4 19.425781 4.171875 19.59375 4.339844 C 19.703125 4.449219 19.808594 4.554688 19.917969 4.664062 C 19.96875 4.714844 20.019531 4.765625 20.070312 4.816406 C 20.378906 5.132812 20.53125 5.367188 20.53125 5.8125 C 20.363281 6.027344 20.222656 6.183594 20.019531 6.363281 C 19.972656 6.410156 19.921875 6.457031 19.871094 6.503906 C 19.75 6.617188 19.625 6.730469 19.5 6.84375 C 19.523438 6.894531 19.546875 6.941406 19.574219 6.992188 C 19.683594 7.21875 19.792969 7.449219 19.902344 7.675781 C 19.941406 7.753906 19.980469 7.832031 20.019531 7.910156 C 20.625 9.171875 20.625 9.171875 20.625 9.84375 C 21.183594 9.84375 21.738281 9.84375 22.3125 9.84375 C 22.421875 10.058594 22.417969 10.179688 22.417969 10.421875 C 22.417969 10.5 22.417969 10.582031 22.417969 10.664062 C 22.417969 10.792969 22.417969 10.792969 22.417969 10.929688 C 22.417969 11.015625 22.417969 11.105469 22.417969 11.199219 C 22.417969 11.386719 22.417969 11.574219 22.417969 11.761719 C 22.417969 12.050781 22.417969 12.339844 22.417969 12.628906 C 22.417969 12.8125 22.417969 12.996094 22.417969 13.179688 C 22.417969 13.265625 22.417969 13.351562 22.417969 13.441406 C 22.417969 13.5625 22.417969 13.5625 22.417969 13.683594 C 22.417969 13.753906 22.417969 13.828125 22.417969 13.898438 C 22.40625 14.0625 22.40625 14.0625 22.3125 14.15625 C 22.1875 14.164062 22.058594 14.164062 21.933594 14.164062 C 21.859375 14.164062 21.78125 14.164062 21.703125 14.164062 C 21.625 14.164062 21.542969 14.164062 21.464844 14.164062 C 21.382812 14.164062 21.304688 14.160156 21.21875 14.160156 C 21.023438 14.160156 20.824219 14.160156 20.625 14.15625 C 20.617188 14.210938 20.609375 14.269531 20.601562 14.328125 C 20.457031 15.332031 19.953125 16.261719 19.5 17.15625 C 19.574219 17.222656 19.652344 17.292969 19.730469 17.363281 C 19.828125 17.453125 19.925781 17.542969 20.019531 17.636719 C 20.070312 17.679688 20.121094 17.726562 20.171875 17.773438 C 20.316406 17.90625 20.316406 17.90625 20.53125 18.1875 C 20.53125 18.632812 20.378906 18.867188 20.070312 19.183594 C 20.019531 19.234375 19.972656 19.28125 19.917969 19.335938 C 19.867188 19.386719 19.8125 19.441406 19.757812 19.496094 C 19.648438 19.605469 19.535156 19.71875 19.425781 19.828125 C 19.253906 19.996094 19.085938 20.167969 18.917969 20.339844 C 18.8125 20.449219 18.703125 20.558594 18.59375 20.664062 C 18.542969 20.714844 18.496094 20.765625 18.445312 20.820312 C 18.09375 21.160156 17.832031 21.277344 17.34375 21.28125 C 17.074219 21.085938 17.074219 21.085938 16.832031 20.820312 C 16.753906 20.730469 16.671875 20.644531 16.589844 20.550781 C 16.527344 20.484375 16.46875 20.414062 16.40625 20.34375 C 16.003906 20.46875 15.632812 20.625 15.253906 20.804688 C 14.035156 21.375 14.035156 21.375 13.40625 21.375 C 13.40625 21.488281 13.410156 21.601562 13.410156 21.71875 C 13.410156 21.863281 13.410156 22.011719 13.410156 22.160156 C 13.414062 22.234375 13.414062 22.308594 13.414062 22.386719 C 13.417969 22.949219 13.417969 22.949219 13.3125 23.15625 C 12.925781 23.160156 12.539062 23.164062 12.152344 23.167969 C 12.042969 23.167969 11.933594 23.171875 11.816406 23.171875 C 11.660156 23.171875 11.660156 23.171875 11.5 23.175781 C 11.402344 23.175781 11.304688 23.175781 11.207031 23.175781 C 10.96875 23.15625 10.96875 23.15625 10.78125 22.96875 C 10.757812 22.769531 10.757812 22.769531 10.757812 22.523438 C 10.757812 22.429688 10.757812 22.335938 10.753906 22.238281 C 10.753906 22.140625 10.757812 22.039062 10.757812 21.933594 C 10.757812 21.832031 10.757812 21.730469 10.757812 21.621094 C 10.757812 21.40625 10.757812 21.1875 10.757812 20.96875 C 10.757812 20.632812 10.757812 20.296875 10.753906 19.964844 C 10.757812 19.75 10.757812 19.539062 10.757812 19.328125 C 10.757812 19.226562 10.753906 19.125 10.753906 19.023438 C 10.757812 18.929688 10.757812 18.835938 10.757812 18.742188 C 10.757812 18.660156 10.757812 18.574219 10.757812 18.492188 C 10.78125 18.28125 10.78125 18.28125 10.96875 18 C 11.246094 17.945312 11.515625 17.90625 11.792969 17.871094 C 13.488281 17.632812 14.921875 16.9375 15.964844 15.558594 C 16.988281 14.113281 17.320312 12.5 17.023438 10.746094 C 16.6875 9.210938 15.71875 7.851562 14.40625 6.988281 C 13.414062 6.417969 12.402344 6.175781 11.273438 6.0625 C 10.96875 6 10.96875 6 10.78125 5.71875 C 10.757812 5.507812 10.757812 5.507812 10.757812 5.257812 C 10.757812 5.164062 10.757812 5.074219 10.753906 4.976562 C 10.753906 4.875 10.757812 4.777344 10.757812 4.671875 C 10.757812 4.570312 10.757812 4.464844 10.757812 4.359375 C 10.757812 4.140625 10.757812 3.921875 10.757812 3.707031 C 10.757812 3.371094 10.757812 3.035156 10.753906 2.699219 C 10.757812 2.488281 10.757812 2.277344 10.757812 2.066406 C 10.757812 1.914062 10.757812 1.914062 10.753906 1.761719 C 10.757812 1.667969 10.757812 1.574219 10.757812 1.480469 C 10.757812 1.394531 10.757812 1.316406 10.757812 1.230469 C 10.792969 0.921875 10.902344 0.851562 11.207031 0.824219 Z M 11.207031 0.824219 "/>
<path style=" stroke:none;fill-rule:nonzero;fill:rgb(0.784314%,0.784314%,0%);fill-opacity:1;" d="M 10.21875 2.4375 C 10.484375 2.703125 10.4375 2.972656 10.441406 3.332031 C 10.441406 3.398438 10.441406 3.46875 10.445312 3.542969 C 10.445312 3.691406 10.445312 3.839844 10.445312 3.984375 C 10.449219 4.210938 10.453125 4.4375 10.457031 4.664062 C 10.457031 4.808594 10.457031 4.949219 10.457031 5.09375 C 10.460938 5.160156 10.460938 5.230469 10.464844 5.300781 C 10.460938 5.492188 10.460938 5.492188 10.40625 5.8125 C 10.101562 6.058594 9.78125 6.152344 9.410156 6.261719 C 8.902344 6.425781 8.472656 6.644531 8.023438 6.929688 C 7.710938 7.058594 7.539062 7.03125 7.21875 6.9375 C 7.003906 6.800781 6.84375 6.644531 6.65625 6.46875 C 6.347656 6.777344 6.039062 7.085938 5.71875 7.40625 C 5.882812 7.773438 5.882812 7.773438 6.113281 8.011719 C 6.28125 8.25 6.28125 8.25 6.265625 8.460938 C 6.167969 8.78125 6.027344 9.050781 5.871094 9.347656 C 5.625 9.816406 5.433594 10.273438 5.308594 10.792969 C 5.25 10.96875 5.25 10.96875 5.0625 11.15625 C 4.71875 11.183594 4.378906 11.164062 4.03125 11.15625 C 4.03125 11.714844 4.03125 12.269531 4.03125 12.84375 C 4.195312 12.835938 4.359375 12.824219 4.527344 12.816406 C 4.808594 12.796875 4.808594 12.796875 5.0625 12.84375 C 5.304688 13.144531 5.40625 13.472656 5.511719 13.839844 C 5.675781 14.351562 5.898438 14.78125 6.179688 15.238281 C 6.304688 15.519531 6.289062 15.648438 6.1875 15.9375 C 5.949219 16.199219 5.949219 16.199219 5.71875 16.40625 C 5.859375 16.730469 6.042969 16.9375 6.292969 17.179688 C 6.359375 17.246094 6.429688 17.3125 6.5 17.378906 C 6.550781 17.429688 6.601562 17.480469 6.65625 17.53125 C 6.726562 17.46875 6.726562 17.46875 6.800781 17.40625 C 6.867188 17.351562 6.929688 17.296875 6.996094 17.246094 C 7.089844 17.164062 7.089844 17.164062 7.1875 17.082031 C 7.492188 16.925781 7.640625 16.96875 7.96875 17.0625 C 8.183594 17.160156 8.394531 17.269531 8.601562 17.378906 C 9.070312 17.625 9.527344 17.816406 10.042969 17.941406 C 10.21875 18 10.21875 18 10.40625 18.1875 C 10.425781 18.425781 10.433594 18.65625 10.429688 18.894531 C 10.429688 18.964844 10.429688 19.035156 10.429688 19.109375 C 10.429688 19.257812 10.429688 19.40625 10.429688 19.554688 C 10.429688 19.78125 10.429688 20.007812 10.429688 20.234375 C 10.429688 20.378906 10.429688 20.523438 10.429688 20.667969 C 10.429688 20.734375 10.429688 20.800781 10.433594 20.871094 C 10.429688 21.351562 10.429688 21.351562 10.21875 21.5625 C 8.183594 21.726562 6.0625 20.363281 4.582031 19.105469 C 2.808594 17.441406 1.652344 15.089844 1.5625 12.644531 C 1.546875 11.414062 1.601562 10.273438 1.96875 9.09375 C 2 8.988281 2.035156 8.882812 2.066406 8.773438 C 2.941406 6.289062 4.71875 4.390625 7.066406 3.214844 C 8.027344 2.78125 9.148438 2.359375 10.21875 2.4375 Z M 10.21875 2.4375 "/>
<path style=" stroke:none;fill-rule:nonzero;fill:rgb(1.176471%,1.176471%,1.176471%);fill-opacity:1;" d="M 11.207031 0.824219 C 11.300781 0.824219 11.398438 0.824219 11.5 0.824219 C 11.605469 0.828125 11.710938 0.828125 11.816406 0.828125 C 11.929688 0.828125 12.039062 0.828125 12.152344 0.832031 C 12.320312 0.832031 12.320312 0.832031 12.488281 0.835938 C 12.761719 0.835938 13.039062 0.839844 13.3125 0.84375 C 13.46875 1.15625 13.414062 1.5 13.410156 1.839844 C 13.410156 1.914062 13.410156 1.992188 13.410156 2.066406 C 13.410156 2.253906 13.410156 2.441406 13.40625 2.625 C 13.503906 2.636719 13.597656 2.648438 13.695312 2.660156 C 14.042969 2.714844 14.328125 2.800781 14.652344 2.929688 C 14.757812 2.972656 14.863281 3.011719 14.972656 3.054688 C 15.335938 3.210938 15.679688 3.390625 16.019531 3.589844 C 16.21875 3.675781 16.21875 3.675781 16.410156 3.597656 C 16.695312 3.398438 16.902344 3.132812 17.128906 2.867188 C 17.34375 2.71875 17.34375 2.71875 17.648438 2.722656 C 18.074219 2.832031 18.296875 3.03125 18.59375 3.335938 C 18.648438 3.386719 18.699219 3.441406 18.753906 3.496094 C 18.867188 3.605469 18.976562 3.71875 19.085938 3.828125 C 19.253906 4 19.425781 4.171875 19.59375 4.339844 C 19.703125 4.449219 19.808594 4.554688 19.917969 4.664062 C 19.96875 4.714844 20.019531 4.765625 20.070312 4.816406 C 20.378906 5.132812 20.53125 5.367188 20.53125 5.8125 C 20.363281 6.027344 20.222656 6.183594 20.019531 6.363281 C 19.972656 6.410156 19.921875 6.457031 19.871094 6.503906 C 19.75 6.617188 19.625 6.730469 19.5 6.84375 C 19.523438 6.894531 19.546875 6.941406 19.574219 6.992188 C 19.683594 7.21875 19.792969 7.449219 19.902344 7.675781 C 19.941406 7.753906 19.980469 7.832031 20.019531 7.910156 C 20.625 9.171875 20.625 9.171875 20.625 9.84375 C 21.183594 9.84375 21.738281 9.84375 22.3125 9.84375 C 22.421875 10.058594 22.417969 10.179688 22.417969 10.421875 C 22.417969 10.5 22.417969 10.582031 22.417969 10.664062 C 22.417969 10.792969 22.417969 10.792969 22.417969 10.929688 C 22.417969 11.015625 22.417969 11.105469 22.417969 11.199219 C 22.417969 11.386719 22.417969 11.574219 22.417969 11.761719 C 22.417969 12.050781 22.417969 12.339844 22.417969 12.628906 C 22.417969 12.8125 22.417969 12.996094 22.417969 13.179688 C 22.417969 13.265625 22.417969 13.351562 22.417969 13.441406 C 22.417969 13.5625 22.417969 13.5625 22.417969 13.683594 C 22.417969 13.753906 22.417969 13.828125 22.417969 13.898438 C 22.40625 14.0625 22.40625 14.0625 22.3125 14.15625 C 22.1875 14.164062 22.058594 14.164062 21.933594 14.164062 C 21.859375 14.164062 21.78125 14.164062 21.703125 14.164062 C 21.625 14.164062 21.542969 14.164062 21.464844 14.164062 C 21.382812 14.164062 21.304688 14.160156 21.21875 14.160156 C 21.023438 14.160156 20.824219 14.160156 20.625 14.15625 C 20.617188 14.210938 20.609375 14.269531 20.601562 14.328125 C 20.457031 15.332031 19.953125 16.261719 19.5 17.15625 C 19.574219 17.222656 19.652344 17.292969 19.730469 17.363281 C 19.828125 17.453125 19.925781 17.542969 20.019531 17.636719 C 20.070312 17.679688 20.121094 17.726562 20.171875 17.773438 C 20.316406 17.90625 20.316406 17.90625 20.53125 18.1875 C 20.53125 18.632812 20.378906 18.867188 20.070312 19.183594 C 20.019531 19.234375 19.972656 19.28125 19.917969 19.335938 C 19.867188 19.386719 19.8125 19.441406 19.757812 19.496094 C 19.648438 19.605469 19.535156 19.71875 19.425781 19.828125 C 19.253906 19.996094 19.085938 20.167969 18.917969 20.339844 C 18.8125 20.449219 18.703125 20.558594 18.59375 20.664062 C 18.542969 20.714844 18.496094 20.765625 18.445312 20.820312 C 18.09375 21.160156 17.832031 21.277344 17.34375 21.28125 C 17.074219 21.085938 17.074219 21.085938 16.832031 20.820312 C 16.753906 20.730469 16.671875 20.644531 16.589844 20.550781 C 16.527344 20.484375 16.46875 20.414062 16.40625 20.34375 C 16.003906 20.46875 15.632812 20.625 15.253906 20.804688 C 14.035156 21.375 14.035156 21.375 13.40625 21.375 C 13.40625 21.488281 13.410156 21.601562 13.410156 21.71875 C 13.410156 21.863281 13.410156 22.011719 13.410156 22.160156 C 13.414062 22.234375 13.414062 22.308594 13.414062 22.386719 C 13.417969 22.949219 13.417969 22.949219 13.3125 23.15625 C 12.925781 23.160156 12.539062 23.164062 12.152344 23.167969 C 12.042969 23.167969 11.933594 23.171875 11.816406 23.171875 C 11.660156 23.171875 11.660156 23.171875 11.5 23.175781 C 11.402344 23.175781 11.304688 23.175781 11.207031 23.175781 C 10.96875 23.15625 10.96875 23.15625 10.78125 22.96875 C 10.757812 22.769531 10.757812 22.769531 10.757812 22.523438 C 10.757812 22.429688 10.757812 22.335938 10.753906 22.238281 C 10.753906 22.140625 10.757812 22.039062 10.757812 21.933594 C 10.757812 21.832031 10.757812 21.730469 10.757812 21.621094 C 10.757812 21.40625 10.757812 21.1875 10.757812 20.96875 C 10.757812 20.632812 10.757812 20.296875 10.753906 19.964844 C 10.757812 19.75 10.757812 19.539062 10.757812 19.328125 C 10.757812 19.226562 10.753906 19.125 10.753906 19.023438 C 10.757812 18.929688 10.757812 18.835938 10.757812 18.742188 C 10.757812 18.660156 10.757812 18.574219 10.757812 18.492188 C 10.78125 18.28125 10.78125 18.28125 10.96875 18 C 11.246094 17.945312 11.515625 17.90625 11.792969 17.871094 C 13.488281 17.632812 14.921875 16.9375 15.964844 15.558594 C 16.988281 14.113281 17.320312 12.5 17.023438 10.746094 C 16.6875 9.210938 15.71875 7.851562 14.40625 6.988281 C 13.414062 6.417969 12.402344 6.175781 11.273438 6.0625 C 10.96875 6 10.96875 6 10.78125 5.71875 C 10.757812 5.507812 10.757812 5.507812 10.757812 5.257812 C 10.757812 5.164062 10.757812 5.074219 10.753906 4.976562 C 10.753906 4.875 10.757812 4.777344 10.757812 4.671875 C 10.757812 4.570312 10.757812 4.464844 10.757812 4.359375 C 10.757812 4.140625 10.757812 3.921875 10.757812 3.707031 C 10.757812 3.371094 10.757812 3.035156 10.753906 2.699219 C 10.757812 2.488281 10.757812 2.277344 10.757812 2.066406 C 10.757812 1.914062 10.757812 1.914062 10.753906 1.761719 C 10.757812 1.667969 10.757812 1.574219 10.757812 1.480469 C 10.757812 1.394531 10.757812 1.316406 10.757812 1.230469 C 10.792969 0.921875 10.902344 0.851562 11.207031 0.824219 Z M 11.625 1.59375 C 11.625 2.800781 11.625 4.007812 11.625 5.25 C 12.121094 5.34375 12.613281 5.4375 13.125 5.53125 C 14.945312 6.132812 16.355469 7.300781 17.25 9 C 17.972656 10.585938 18.179688 12.316406 17.660156 14 C 16.882812 16.074219 15.613281 17.355469 13.59375 18.28125 C 13.125 18.46875 13.125 18.46875 11.625 18.75 C 11.625 19.957031 11.625 21.164062 11.625 22.40625 C 11.964844 22.40625 12.304688 22.40625 12.65625 22.40625 C 12.6875 21.878906 12.71875 21.355469 12.75 20.8125 C 13.097656 20.71875 13.097656 20.71875 13.453125 20.625 C 14.402344 20.355469 15.304688 19.953125 16.125 19.40625 C 16.351562 19.367188 16.351562 19.367188 16.59375 19.40625 C 16.808594 19.59375 16.808594 19.59375 17.019531 19.835938 C 17.222656 20.074219 17.222656 20.074219 17.4375 20.25 C 17.796875 20.226562 17.972656 20.027344 18.21875 19.777344 C 18.292969 19.703125 18.367188 19.625 18.445312 19.546875 C 18.523438 19.46875 18.601562 19.390625 18.679688 19.304688 C 18.757812 19.226562 18.835938 19.148438 18.917969 19.0625 C 19.113281 18.867188 19.308594 18.667969 19.5 18.46875 C 19.324219 18.097656 19.105469 17.890625 18.792969 17.621094 C 18.597656 17.355469 18.613281 17.199219 18.65625 16.875 C 18.796875 16.605469 18.796875 16.605469 18.988281 16.3125 C 19.53125 15.445312 19.78125 14.472656 20.0625 13.5 C 20.851562 13.453125 20.851562 13.453125 21.65625 13.40625 C 21.65625 12.476562 21.65625 11.550781 21.65625 10.59375 C 21.128906 10.5625 20.605469 10.53125 20.0625 10.5 C 20.03125 10.382812 20 10.261719 19.964844 10.140625 C 19.546875 8.515625 19.546875 8.515625 18.65625 7.125 C 18.613281 6.765625 18.617188 6.613281 18.839844 6.324219 C 18.917969 6.25 18.996094 6.179688 19.078125 6.105469 C 19.195312 5.996094 19.195312 5.996094 19.316406 5.882812 C 19.375 5.828125 19.4375 5.773438 19.5 5.71875 C 19.285156 5.226562 18.898438 4.894531 18.527344 4.515625 C 18.417969 4.40625 18.417969 4.40625 18.308594 4.289062 C 18.238281 4.21875 18.167969 4.148438 18.097656 4.078125 C 18.035156 4.011719 17.96875 3.945312 17.90625 3.878906 C 17.730469 3.726562 17.730469 3.726562 17.519531 3.765625 C 17.207031 3.90625 17.015625 4.179688 16.789062 4.433594 C 16.59375 4.59375 16.59375 4.59375 16.363281 4.632812 C 16.085938 4.585938 15.941406 4.503906 15.714844 4.347656 C 14.808594 3.777344 13.785156 3.441406 12.75 3.1875 C 12.71875 2.660156 12.6875 2.136719 12.65625 1.59375 C 12.316406 1.59375 11.976562 1.59375 11.625 1.59375 Z M 11.625 1.59375 "/>
<path style=" stroke:none;fill-rule:nonzero;fill:rgb(97.254902%,67.843139%,15.294118%);fill-opacity:1;" d="M 9.65625 3.28125 C 9.65625 3.960938 9.65625 4.640625 9.65625 5.34375 C 9.488281 5.398438 9.316406 5.453125 9.140625 5.507812 C 8.777344 5.625 8.445312 5.753906 8.109375 5.941406 C 7.78125 6.09375 7.78125 6.09375 7.589844 6.023438 C 7.417969 5.914062 7.273438 5.796875 7.125 5.652344 C 6.878906 5.414062 6.878906 5.414062 6.664062 5.445312 C 6.214844 5.640625 5.890625 6.058594 5.550781 6.398438 C 5.464844 6.480469 5.378906 6.558594 5.292969 6.644531 C 5.214844 6.722656 5.136719 6.800781 5.054688 6.878906 C 4.980469 6.953125 4.910156 7.023438 4.835938 7.097656 C 4.660156 7.304688 4.660156 7.304688 4.703125 7.5625 C 4.789062 7.804688 4.878906 7.921875 5.066406 8.089844 C 5.160156 8.175781 5.25 8.257812 5.34375 8.34375 C 5.167969 8.785156 4.984375 9.222656 4.800781 9.660156 C 4.699219 9.910156 4.597656 10.15625 4.5 10.40625 C 4.425781 10.410156 4.355469 10.417969 4.277344 10.421875 C 4.183594 10.429688 4.089844 10.4375 3.988281 10.449219 C 3.894531 10.453125 3.800781 10.460938 3.703125 10.46875 C 3.472656 10.476562 3.472656 10.476562 3.375 10.59375 C 3.367188 10.800781 3.363281 11.007812 3.363281 11.214844 C 3.363281 11.277344 3.363281 11.339844 3.363281 11.402344 C 3.363281 11.535156 3.363281 11.667969 3.363281 11.796875 C 3.363281 12 3.363281 12.199219 3.363281 12.402344 C 3.363281 12.53125 3.363281 12.65625 3.363281 12.785156 C 3.363281 12.902344 3.363281 13.019531 3.363281 13.140625 C 3.34375 13.398438 3.34375 13.398438 3.46875 13.5 C 3.65625 13.523438 3.847656 13.539062 4.035156 13.550781 C 4.191406 13.566406 4.191406 13.566406 4.351562 13.578125 C 4.429688 13.582031 4.511719 13.589844 4.59375 13.59375 C 4.609375 13.652344 4.625 13.707031 4.640625 13.765625 C 4.789062 14.308594 4.988281 14.773438 5.269531 15.257812 C 5.34375 15.46875 5.34375 15.46875 5.277344 15.667969 C 5.15625 15.84375 5.15625 15.84375 4.902344 16.074219 C 4.660156 16.285156 4.660156 16.285156 4.699219 16.535156 C 4.855469 17.003906 5.25 17.3125 5.597656 17.652344 C 5.671875 17.734375 5.746094 17.8125 5.824219 17.890625 C 5.898438 17.964844 5.972656 18.039062 6.046875 18.117188 C 6.117188 18.183594 6.183594 18.25 6.25 18.320312 C 6.53125 18.511719 6.703125 18.503906 7.03125 18.46875 C 7.214844 18.351562 7.214844 18.351562 7.347656 18.1875 C 7.429688 18.09375 7.511719 18 7.59375 17.90625 C 8.082031 18.0625 8.546875 18.257812 9.019531 18.457031 C 9.296875 18.574219 9.296875 18.574219 9.65625 18.65625 C 9.65625 19.335938 9.65625 20.015625 9.65625 20.71875 C 7.800781 20.464844 6.300781 19.570312 4.96875 18.28125 C 4.871094 18.195312 4.871094 18.195312 4.773438 18.109375 C 3.433594 16.871094 2.828125 15.140625 2.4375 13.40625 C 2.417969 13.34375 2.402344 13.277344 2.382812 13.214844 C 1.972656 11.246094 2.625 9.199219 3.5625 7.5 C 3.609375 7.410156 3.65625 7.320312 3.703125 7.230469 C 4.75 5.390625 6.671875 4.058594 8.671875 3.464844 C 9.386719 3.28125 9.386719 3.28125 9.65625 3.28125 Z M 9.65625 3.28125 "/>
<path style=" stroke:none;fill-rule:nonzero;fill:rgb(0%,0%,0%);fill-opacity:1;" d="M 11.308594 8.554688 C 11.53125 8.625 11.53125 8.625 11.625 8.71875 C 11.636719 8.910156 11.640625 9.101562 11.644531 9.292969 C 11.648438 9.410156 11.648438 9.527344 11.652344 9.644531 C 11.65625 9.894531 11.660156 10.144531 11.664062 10.390625 C 11.667969 10.507812 11.671875 10.625 11.675781 10.746094 C 11.675781 10.851562 11.679688 10.960938 11.679688 11.070312 C 11.722656 11.375 11.78125 11.425781 12 11.625 C 12.070312 12.257812 12.070312 12.257812 11.859375 12.609375 C 11.539062 12.800781 11.242188 12.828125 10.875 12.75 C 10.820312 12.703125 10.769531 12.65625 10.714844 12.609375 C 10.390625 12.394531 10.066406 12.417969 9.6875 12.410156 C 8.917969 12.386719 8.917969 12.386719 8.8125 12.28125 C 8.800781 12 8.800781 12 8.8125 11.71875 C 9.027344 11.503906 9.617188 11.585938 9.921875 11.578125 C 10.347656 11.574219 10.347656 11.574219 10.6875 11.34375 C 10.71875 11.085938 10.71875 11.085938 10.714844 10.78125 C 10.71875 10.667969 10.722656 10.558594 10.722656 10.441406 C 10.726562 10.203125 10.730469 9.964844 10.730469 9.726562 C 10.734375 9.613281 10.738281 9.503906 10.738281 9.386719 C 10.742188 9.285156 10.742188 9.179688 10.742188 9.074219 C 10.78125 8.8125 10.78125 8.8125 10.910156 8.632812 C 11.0625 8.53125 11.0625 8.53125 11.308594 8.554688 Z M 11.308594 8.554688 "/>
<path style=" stroke:none;fill-rule:nonzero;fill:rgb(0%,0%,0%);fill-opacity:1;" d="M 10.96875 6.75 C 11.261719 6.730469 11.261719 6.730469 11.53125 6.75 C 11.640625 6.96875 11.640625 7.113281 11.644531 7.359375 C 11.644531 7.433594 11.644531 7.507812 11.648438 7.585938 C 11.625 7.78125 11.625 7.78125 11.4375 7.96875 C 11.152344 7.945312 11.152344 7.945312 10.875 7.875 C 10.734375 7.59375 10.765625 7.34375 10.78125 7.03125 C 10.84375 6.9375 10.90625 6.84375 10.96875 6.75 Z M 10.96875 6.75 "/>
<path style=" stroke:none;fill-rule:nonzero;fill:rgb(0%,0%,0%);fill-opacity:1;" d="M 11.308594 16.054688 C 11.53125 16.125 11.53125 16.125 11.625 16.21875 C 11.640625 16.40625 11.640625 16.40625 11.640625 16.636719 C 11.644531 16.710938 11.644531 16.785156 11.648438 16.863281 C 11.625 17.0625 11.625 17.0625 11.4375 17.25 C 11.203125 17.277344 11.203125 17.277344 10.96875 17.25 C 10.738281 16.902344 10.746094 16.722656 10.78125 16.3125 C 10.9375 16.046875 11 16.027344 11.308594 16.054688 Z M 11.308594 16.054688 "/>
<path style=" stroke:none;fill-rule:nonzero;fill:rgb(0%,0%,0%);fill-opacity:1;" d="M 6.328125 11.617188 C 6.46875 11.617188 6.46875 11.617188 6.617188 11.621094 C 6.710938 11.621094 6.804688 11.621094 6.902344 11.621094 C 7.011719 11.625 7.011719 11.625 7.125 11.625 C 7.230469 12.164062 7.230469 12.164062 7.125 12.375 C 6.953125 12.378906 6.785156 12.378906 6.617188 12.378906 C 6.519531 12.382812 6.425781 12.382812 6.328125 12.382812 C 6.09375 12.375 6.09375 12.375 6 12.28125 C 5.988281 12 5.988281 12 6 11.71875 C 6.09375 11.625 6.09375 11.625 6.328125 11.617188 Z M 6.328125 11.617188 "/>
<path style=" stroke:none;fill-rule:nonzero;fill:rgb(0%,0%,0%);fill-opacity:1;" d="M 15.375 11.625 C 15.714844 11.625 16.054688 11.625 16.40625 11.625 C 16.464844 11.894531 16.464844 11.894531 16.5 12.1875 C 16.3125 12.375 16.3125 12.375 16.09375 12.398438 C 16.007812 12.394531 15.925781 12.394531 15.839844 12.394531 C 15.753906 12.390625 15.667969 12.390625 15.582031 12.390625 C 15.375 12.375 15.375 12.375 15.28125 12.28125 C 15.308594 12.0625 15.339844 11.84375 15.375 11.625 Z M 15.375 11.625 "/>
</g>
</svg>
