<?xml version="1.0" encoding="UTF-8"?>
<svg xmlns="http://www.w3.org/2000/svg" xmlns:xlink="http://www.w3.org/1999/xlink" width="24" height="24" viewBox="0 0 24 24" version="1.1">
<g id="surface1">
<path style=" stroke:none;fill-rule:nonzero;fill:rgb(34.901962%,65.490198%,99.607843%);fill-opacity:1;" d="M 16.875 0.28125 C 16.972656 0.296875 17.074219 0.3125 17.175781 0.332031 C 18.269531 0.515625 19.351562 0.742188 20.417969 1.035156 C 20.539062 1.070312 20.539062 1.070312 20.664062 1.101562 C 20.738281 1.125 20.8125 1.148438 20.890625 1.167969 C 20.953125 1.1875 21.019531 1.207031 21.085938 1.226562 C 21.363281 1.347656 21.535156 1.472656 21.75 1.6875 C 21.796875 1.953125 21.8125 2.160156 21.808594 2.421875 C 21.8125 2.5 21.8125 2.574219 21.8125 2.648438 C 21.816406 2.898438 21.8125 3.148438 21.8125 3.402344 C 21.8125 3.582031 21.8125 3.757812 21.816406 3.9375 C 21.816406 4.425781 21.816406 4.914062 21.816406 5.402344 C 21.816406 5.808594 21.816406 6.214844 21.816406 6.621094 C 21.820312 7.582031 21.820312 8.539062 21.816406 9.5 C 21.8125 10.492188 21.816406 11.480469 21.820312 12.472656 C 21.820312 13.320312 21.824219 14.171875 21.820312 15.023438 C 21.820312 15.53125 21.820312 16.035156 21.824219 16.546875 C 21.824219 17.023438 21.824219 17.5 21.820312 17.976562 C 21.820312 18.152344 21.820312 18.328125 21.824219 18.503906 C 21.824219 18.742188 21.824219 18.980469 21.820312 19.21875 C 21.824219 19.324219 21.824219 19.324219 21.824219 19.429688 C 21.820312 19.695312 21.800781 19.90625 21.628906 20.113281 C 21.328125 20.367188 20.996094 20.558594 20.648438 20.738281 C 20.546875 20.789062 20.441406 20.84375 20.339844 20.898438 C 20.230469 20.953125 20.121094 21.007812 20.011719 21.066406 C 19.894531 21.121094 19.78125 21.179688 19.667969 21.238281 C 19.332031 21.410156 18.992188 21.582031 18.65625 21.75 C 18.566406 21.796875 18.472656 21.84375 18.378906 21.890625 C 12.925781 24.609375 12.925781 24.609375 10.125 23.753906 C 10 23.710938 9.875 23.667969 9.75 23.625 C 9.679688 23.601562 9.609375 23.578125 9.539062 23.550781 C 7.191406 22.734375 4.574219 21.691406 2.53125 20.25 C 2.484375 20.214844 2.433594 20.183594 2.382812 20.148438 C 2.175781 19.871094 2.210938 19.574219 2.214844 19.242188 C 2.210938 19.167969 2.210938 19.09375 2.210938 19.015625 C 2.210938 18.765625 2.210938 18.515625 2.210938 18.265625 C 2.210938 18.085938 2.207031 17.90625 2.207031 17.726562 C 2.207031 17.238281 2.207031 16.75 2.207031 16.261719 C 2.207031 15.855469 2.203125 15.445312 2.203125 15.039062 C 2.203125 14.078125 2.203125 13.117188 2.203125 12.15625 C 2.203125 11.164062 2.203125 10.171875 2.199219 9.183594 C 2.195312 8.332031 2.195312 7.480469 2.195312 6.628906 C 2.195312 6.121094 2.195312 5.613281 2.191406 5.105469 C 2.191406 4.625 2.191406 4.148438 2.191406 3.671875 C 2.191406 3.492188 2.191406 3.320312 2.191406 3.140625 C 2.1875 2.902344 2.191406 2.664062 2.191406 2.425781 C 2.191406 2.355469 2.1875 2.285156 2.1875 2.214844 C 2.195312 1.855469 2.222656 1.714844 2.476562 1.460938 C 2.691406 1.328125 2.871094 1.238281 3.109375 1.167969 C 3.222656 1.136719 3.222656 1.136719 3.335938 1.101562 C 3.417969 1.082031 3.496094 1.058594 3.582031 1.035156 C 3.664062 1.011719 3.75 0.988281 3.839844 0.964844 C 4.921875 0.675781 6.019531 0.464844 7.125 0.28125 C 7.214844 0.265625 7.300781 0.25 7.390625 0.234375 C 10.417969 -0.285156 13.855469 -0.253906 16.875 0.28125 Z M 16.875 0.28125 "/>
<path style=" stroke:none;fill-rule:nonzero;fill:rgb(19.215687%,38.039216%,58.823532%);fill-opacity:1;" d="M 12 0 C 14.871094 -0.046875 17.648438 0.269531 20.417969 1.035156 C 20.5 1.058594 20.582031 1.082031 20.664062 1.101562 C 20.738281 1.125 20.8125 1.148438 20.890625 1.167969 C 20.953125 1.1875 21.019531 1.207031 21.085938 1.226562 C 21.363281 1.347656 21.535156 1.472656 21.75 1.6875 C 21.796875 1.953125 21.8125 2.160156 21.808594 2.421875 C 21.8125 2.5 21.8125 2.574219 21.8125 2.648438 C 21.816406 2.898438 21.8125 3.148438 21.8125 3.402344 C 21.8125 3.582031 21.8125 3.757812 21.816406 3.9375 C 21.816406 4.425781 21.816406 4.914062 21.816406 5.402344 C 21.816406 5.808594 21.816406 6.214844 21.816406 6.621094 C 21.820312 7.582031 21.820312 8.539062 21.816406 9.5 C 21.8125 10.492188 21.816406 11.480469 21.820312 12.472656 C 21.820312 13.320312 21.824219 14.171875 21.820312 15.023438 C 21.820312 15.53125 21.820312 16.035156 21.824219 16.546875 C 21.824219 17.023438 21.824219 17.5 21.820312 17.976562 C 21.820312 18.152344 21.820312 18.328125 21.824219 18.503906 C 21.824219 18.742188 21.824219 18.980469 21.820312 19.21875 C 21.820312 19.289062 21.824219 19.359375 21.824219 19.429688 C 21.820312 19.695312 21.800781 19.90625 21.628906 20.113281 C 21.328125 20.367188 20.996094 20.558594 20.648438 20.738281 C 20.546875 20.789062 20.441406 20.84375 20.339844 20.898438 C 20.175781 20.980469 20.175781 20.980469 20.011719 21.066406 C 19.894531 21.121094 19.78125 21.179688 19.667969 21.238281 C 19.332031 21.410156 18.992188 21.582031 18.65625 21.75 C 18.566406 21.796875 18.472656 21.84375 18.378906 21.890625 C 16.761719 22.695312 15.070312 23.449219 13.3125 23.90625 C 13.242188 23.925781 13.171875 23.941406 13.101562 23.960938 C 12.738281 24.015625 12.367188 24 12 24 C 12 22.144531 12 20.289062 12 18.375 C 14.550781 18.355469 14.550781 18.355469 15.351562 18.355469 C 15.5625 18.351562 15.773438 18.351562 15.984375 18.347656 C 16.144531 18.347656 16.144531 18.347656 16.3125 18.347656 C 16.417969 18.347656 16.523438 18.34375 16.628906 18.34375 C 16.765625 18.34375 16.765625 18.34375 16.902344 18.339844 C 17.269531 18.253906 17.402344 18.113281 17.625 17.8125 C 17.671875 17.546875 17.6875 17.335938 17.683594 17.066406 C 17.683594 16.996094 17.6875 16.921875 17.6875 16.84375 C 17.6875 16.601562 17.6875 16.359375 17.683594 16.117188 C 17.683594 15.949219 17.683594 15.78125 17.683594 15.613281 C 17.683594 15.257812 17.683594 14.90625 17.679688 14.554688 C 17.675781 14.101562 17.679688 13.648438 17.679688 13.195312 C 17.679688 12.847656 17.679688 12.5 17.679688 12.152344 C 17.679688 11.984375 17.679688 11.816406 17.679688 11.648438 C 17.679688 11.417969 17.675781 11.183594 17.675781 10.949219 C 17.675781 10.882812 17.675781 10.8125 17.675781 10.742188 C 17.671875 10.417969 17.648438 10.246094 17.445312 9.988281 C 17.230469 9.832031 17.128906 9.796875 16.863281 9.785156 C 16.757812 9.78125 16.757812 9.78125 16.652344 9.777344 C 16.578125 9.777344 16.503906 9.773438 16.429688 9.773438 C 16.316406 9.769531 16.316406 9.769531 16.203125 9.765625 C 16.023438 9.757812 15.839844 9.753906 15.65625 9.75 C 15.65625 9.675781 15.65625 9.597656 15.65625 9.519531 C 15.652344 9.230469 15.648438 8.945312 15.640625 8.65625 C 15.636719 8.472656 15.636719 8.289062 15.636719 8.105469 C 15.609375 6.902344 15.320312 5.933594 14.464844 5.070312 C 13.691406 4.367188 13.125 4.3125 12 4.03125 C 12 2.699219 12 1.371094 12 0 Z M 12 0 "/>
<path style=" stroke:none;fill-rule:nonzero;fill:rgb(99.215686%,50.196081%,21.176471%);fill-opacity:1;" d="M 7.757812 9.6875 C 7.863281 9.6875 7.964844 9.6875 8.066406 9.6875 C 8.402344 9.683594 8.742188 9.6875 9.074219 9.6875 C 9.308594 9.6875 9.542969 9.6875 9.777344 9.6875 C 10.328125 9.6875 10.882812 9.6875 11.433594 9.6875 C 11.875 9.691406 12.3125 9.691406 12.753906 9.6875 C 13.359375 9.6875 13.96875 9.6875 14.578125 9.6875 C 14.808594 9.6875 15.039062 9.6875 15.269531 9.6875 C 15.59375 9.683594 15.917969 9.6875 16.242188 9.6875 C 16.335938 9.6875 16.429688 9.6875 16.53125 9.6875 C 16.953125 9.691406 17.183594 9.707031 17.542969 9.941406 C 17.761719 10.289062 17.785156 10.566406 17.777344 10.960938 C 17.777344 11.035156 17.78125 11.109375 17.78125 11.183594 C 17.78125 11.425781 17.78125 11.667969 17.777344 11.910156 C 17.777344 12.078125 17.777344 12.246094 17.777344 12.414062 C 17.777344 12.765625 17.777344 13.121094 17.773438 13.472656 C 17.769531 13.925781 17.773438 14.375 17.773438 14.828125 C 17.773438 15.175781 17.773438 15.523438 17.773438 15.871094 C 17.773438 16.039062 17.773438 16.203125 17.773438 16.371094 C 17.773438 16.605469 17.769531 16.835938 17.769531 17.070312 C 17.769531 17.136719 17.769531 17.207031 17.769531 17.277344 C 17.761719 17.730469 17.664062 17.960938 17.34375 18.28125 C 17.125 18.390625 16.992188 18.386719 16.746094 18.386719 C 16.617188 18.386719 16.617188 18.386719 16.484375 18.386719 C 16.390625 18.386719 16.296875 18.386719 16.199219 18.386719 C 16.046875 18.386719 16.046875 18.386719 15.894531 18.386719 C 15.5625 18.386719 15.234375 18.386719 14.902344 18.386719 C 14.730469 18.386719 14.730469 18.386719 14.558594 18.386719 C 13.894531 18.382812 13.230469 18.382812 12.566406 18.378906 C 12.125 18.375 11.679688 18.375 11.238281 18.371094 C 10.621094 18.371094 10.003906 18.367188 9.386719 18.359375 C 9.148438 18.359375 8.910156 18.359375 8.675781 18.355469 C 8.34375 18.355469 8.011719 18.351562 7.679688 18.347656 C 7.582031 18.347656 7.484375 18.347656 7.382812 18.347656 C 7.246094 18.347656 7.246094 18.347656 7.105469 18.34375 C 7.03125 18.34375 6.949219 18.339844 6.871094 18.339844 C 6.542969 18.25 6.449219 18.101562 6.28125 17.8125 C 6.246094 17.550781 6.230469 17.328125 6.230469 17.070312 C 6.230469 16.960938 6.230469 16.960938 6.230469 16.847656 C 6.226562 16.605469 6.226562 16.363281 6.226562 16.121094 C 6.226562 15.953125 6.226562 15.785156 6.226562 15.617188 C 6.226562 15.265625 6.226562 14.910156 6.226562 14.558594 C 6.230469 14.105469 6.226562 13.65625 6.222656 13.203125 C 6.222656 12.855469 6.222656 12.507812 6.222656 12.160156 C 6.222656 11.992188 6.222656 11.828125 6.21875 11.660156 C 6.21875 11.425781 6.21875 11.195312 6.222656 10.960938 C 6.222656 10.894531 6.21875 10.824219 6.21875 10.753906 C 6.226562 10.417969 6.277344 10.226562 6.457031 9.941406 C 6.886719 9.660156 7.257812 9.683594 7.757812 9.6875 Z M 7.757812 9.6875 "/>
<path style=" stroke:none;fill-rule:nonzero;fill:rgb(99.215686%,73.725492%,35.294119%);fill-opacity:1;" d="M 7.285156 9.695312 C 7.390625 9.695312 7.496094 9.695312 7.605469 9.695312 C 7.714844 9.699219 7.828125 9.703125 7.945312 9.703125 C 8.058594 9.707031 8.175781 9.707031 8.296875 9.707031 C 8.601562 9.707031 8.910156 9.710938 9.214844 9.71875 C 9.53125 9.722656 9.84375 9.726562 10.15625 9.726562 C 10.769531 9.730469 11.386719 9.742188 12 9.75 C 12 10.585938 12 11.421875 12 12.28125 C 12.0625 12.3125 12.125 12.34375 12.1875 12.375 C 12.027344 12.417969 12.027344 12.417969 11.863281 12.464844 C 11.550781 12.527344 11.550781 12.527344 11.4375 12.65625 C 11.414062 13.039062 11.414062 13.425781 11.414062 13.808594 C 11.414062 14.003906 11.410156 14.195312 11.410156 14.386719 C 11.40625 14.511719 11.40625 14.628906 11.40625 14.757812 C 11.40625 14.867188 11.40625 14.980469 11.40625 15.09375 C 11.414062 15.371094 11.414062 15.371094 11.5625 15.546875 C 11.730469 15.675781 11.730469 15.675781 12 15.75 C 12 16.585938 12 17.421875 12 18.28125 C 11.308594 18.289062 10.621094 18.300781 9.929688 18.304688 C 9.609375 18.308594 9.289062 18.3125 8.96875 18.316406 C 8.597656 18.324219 8.230469 18.324219 7.863281 18.328125 C 7.746094 18.328125 7.632812 18.332031 7.515625 18.332031 C 7.351562 18.332031 7.351562 18.332031 7.191406 18.335938 C 7.09375 18.335938 7 18.335938 6.90625 18.335938 C 6.65625 18.28125 6.65625 18.28125 6.4375 18.089844 C 6.242188 17.746094 6.226562 17.457031 6.230469 17.070312 C 6.230469 16.960938 6.230469 16.960938 6.230469 16.847656 C 6.226562 16.605469 6.226562 16.363281 6.230469 16.121094 C 6.226562 15.953125 6.226562 15.785156 6.226562 15.617188 C 6.226562 15.261719 6.226562 14.910156 6.226562 14.558594 C 6.230469 14.105469 6.226562 13.65625 6.222656 13.203125 C 6.222656 12.855469 6.222656 12.507812 6.222656 12.160156 C 6.222656 11.992188 6.222656 11.828125 6.21875 11.660156 C 6.21875 11.425781 6.21875 11.195312 6.222656 10.960938 C 6.222656 10.894531 6.21875 10.824219 6.21875 10.753906 C 6.226562 10.398438 6.273438 10.230469 6.484375 9.941406 C 6.785156 9.722656 6.917969 9.691406 7.285156 9.695312 Z M 7.285156 9.695312 "/>
<path style=" stroke:none;fill-rule:nonzero;fill:rgb(72.549021%,73.725492%,77.64706%);fill-opacity:1;" d="M 14.503906 5.003906 C 15.097656 5.542969 15.464844 6.257812 15.65625 7.03125 C 15.65625 7.929688 15.65625 8.824219 15.65625 9.75 C 13.242188 9.75 10.832031 9.75 8.34375 9.75 C 8.34375 6.230469 8.34375 6.230469 9.457031 5.066406 C 10.945312 3.691406 12.964844 3.757812 14.503906 5.003906 Z M 14.503906 5.003906 "/>
<path style=" stroke:none;fill-rule:nonzero;fill:rgb(93.333334%,94.117647%,96.078432%);fill-opacity:1;" d="M 12 4.125 C 12 4.898438 12 5.671875 12 6.46875 C 11.785156 6.53125 11.566406 6.59375 11.34375 6.65625 C 11.054688 6.902344 10.902344 7.046875 10.78125 7.40625 C 10.765625 7.585938 10.757812 7.765625 10.75 7.945312 C 10.75 8.039062 10.746094 8.136719 10.742188 8.234375 C 10.734375 8.414062 10.734375 8.414062 10.730469 8.597656 C 10.714844 8.976562 10.703125 9.355469 10.6875 9.75 C 9.914062 9.75 9.140625 9.75 8.34375 9.75 C 8.332031 9.332031 8.324219 8.917969 8.320312 8.503906 C 8.316406 8.386719 8.3125 8.269531 8.3125 8.148438 C 8.296875 6.949219 8.621094 5.945312 9.457031 5.066406 C 10.253906 4.332031 10.921875 4.125 12 4.125 Z M 12 4.125 "/>
<path style=" stroke:none;fill-rule:nonzero;fill:rgb(35.686275%,65.882355%,99.607843%);fill-opacity:1;" d="M 12.640625 6.578125 C 12.96875 6.851562 13.195312 7.070312 13.261719 7.503906 C 13.257812 7.660156 13.257812 7.660156 13.253906 7.820312 C 13.253906 7.917969 13.253906 8.019531 13.253906 8.125 C 13.246094 8.316406 13.246094 8.316406 13.242188 8.511719 C 13.234375 8.921875 13.226562 9.328125 13.21875 9.75 C 12.382812 9.75 11.546875 9.75 10.6875 9.75 C 10.679688 9.375 10.671875 9.003906 10.664062 8.617188 C 10.660156 8.503906 10.65625 8.386719 10.652344 8.265625 C 10.648438 7.644531 10.683594 7.253906 11.0625 6.75 C 11.507812 6.355469 12.105469 6.355469 12.640625 6.578125 Z M 12.640625 6.578125 "/>
<path style=" stroke:none;fill-rule:nonzero;fill:rgb(21.960784%,39.215687%,58.823532%);fill-opacity:1;" d="M 12.183594 12.320312 C 12.480469 12.40625 12.578125 12.589844 12.75 12.84375 C 12.796875 13.113281 12.796875 13.113281 12.800781 13.40625 C 12.800781 13.511719 12.800781 13.617188 12.800781 13.726562 C 12.800781 13.839844 12.796875 13.949219 12.796875 14.0625 C 12.796875 14.171875 12.800781 14.28125 12.800781 14.398438 C 12.800781 14.503906 12.800781 14.609375 12.800781 14.71875 C 12.800781 14.816406 12.800781 14.914062 12.796875 15.011719 C 12.738281 15.351562 12.617188 15.507812 12.375 15.75 C 12.046875 15.804688 12.046875 15.804688 11.71875 15.75 C 11.441406 15.542969 11.355469 15.433594 11.296875 15.085938 C 11.296875 14.976562 11.296875 14.867188 11.296875 14.753906 C 11.296875 14.632812 11.296875 14.511719 11.296875 14.390625 C 11.296875 14.296875 11.296875 14.296875 11.300781 14.199219 C 11.304688 14.007812 11.300781 13.820312 11.300781 13.628906 C 11.308594 12.710938 11.308594 12.710938 11.464844 12.480469 C 11.691406 12.332031 11.917969 12.332031 12.183594 12.320312 Z M 12.183594 12.320312 "/>
<path style=" stroke:none;fill-rule:nonzero;fill:rgb(19.215687%,38.039216%,58.823532%);fill-opacity:1;" d="M 12 6.46875 C 12.796875 6.582031 12.796875 6.582031 13.113281 6.992188 C 13.335938 7.476562 13.273438 8.007812 13.253906 8.527344 C 13.25 8.644531 13.25 8.761719 13.246094 8.882812 C 13.238281 9.171875 13.230469 9.460938 13.21875 9.75 C 12.816406 9.75 12.414062 9.75 12 9.75 C 12 8.667969 12 7.585938 12 6.46875 Z M 12 6.46875 "/>
<path style=" stroke:none;fill-rule:nonzero;fill:rgb(35.294119%,65.490198%,99.215686%);fill-opacity:1;" d="M 12 12.375 C 12 13.488281 12 14.601562 12 15.75 C 11.84375 15.71875 11.691406 15.6875 11.53125 15.65625 C 11.234375 15.210938 11.3125 14.730469 11.3125 14.207031 C 11.316406 14.015625 11.3125 13.824219 11.308594 13.632812 C 11.308594 13.511719 11.308594 13.394531 11.308594 13.269531 C 11.308594 13.15625 11.308594 13.046875 11.308594 12.933594 C 11.34375 12.65625 11.34375 12.65625 11.460938 12.476562 C 11.625 12.375 11.625 12.375 12 12.375 Z M 12 12.375 "/>
</g>
</svg>
