<?xml version="1.0" encoding="UTF-8"?>
<svg xmlns="http://www.w3.org/2000/svg" xmlns:xlink="http://www.w3.org/1999/xlink" width="24" height="24" viewBox="0 0 24 24" version="1.1">
<g id="surface1">
<path style=" stroke:none;fill-rule:nonzero;fill:rgb(77.254903%,92.54902%,94.117647%);fill-opacity:1;" d="M 8.25 0 C 8.460938 -0.0351562 8.460938 -0.0351562 8.726562 -0.0351562 C 8.828125 -0.0390625 8.929688 -0.0390625 9.035156 -0.0390625 C 9.203125 -0.0390625 9.203125 -0.0390625 9.371094 -0.0390625 C 9.546875 -0.0390625 9.546875 -0.0390625 9.726562 -0.0429688 C 10.050781 -0.0429688 10.371094 -0.0429688 10.691406 -0.0429688 C 10.960938 -0.0429688 11.230469 -0.046875 11.5 -0.046875 C 12.132812 -0.046875 12.765625 -0.046875 13.402344 -0.046875 C 14.054688 -0.046875 14.707031 -0.046875 15.359375 -0.0507812 C 15.921875 -0.0546875 16.484375 -0.0546875 17.042969 -0.0546875 C 17.378906 -0.0546875 17.714844 -0.0546875 18.050781 -0.0585938 C 18.425781 -0.0625 18.796875 -0.0585938 19.171875 -0.0585938 C 19.285156 -0.0585938 19.394531 -0.0585938 19.507812 -0.0625 C 20.34375 -0.0507812 20.34375 -0.0507812 20.691406 0.226562 C 20.953125 0.523438 21.011719 0.652344 21.011719 1.03125 C 21.011719 1.109375 21.015625 1.191406 21.015625 1.269531 C 21.015625 1.359375 21.015625 1.445312 21.015625 1.535156 C 21.015625 1.675781 21.015625 1.675781 21.015625 1.816406 C 21.015625 2.128906 21.019531 2.4375 21.019531 2.75 C 21.019531 2.972656 21.019531 3.195312 21.019531 3.417969 C 21.023438 4.089844 21.023438 4.757812 21.023438 5.429688 C 21.023438 5.617188 21.027344 5.804688 21.027344 5.996094 C 21.027344 7.167969 21.03125 8.34375 21.03125 9.515625 C 21.03125 9.789062 21.03125 10.058594 21.03125 10.332031 C 21.03125 10.402344 21.03125 10.46875 21.03125 10.539062 C 21.035156 11.632812 21.039062 12.726562 21.042969 13.824219 C 21.046875 14.945312 21.046875 16.070312 21.046875 17.195312 C 21.046875 17.824219 21.050781 18.457031 21.050781 19.089844 C 21.054688 19.683594 21.054688 20.277344 21.054688 20.871094 C 21.054688 21.085938 21.054688 21.304688 21.058594 21.523438 C 21.058594 21.820312 21.058594 22.117188 21.058594 22.414062 C 21.058594 22.503906 21.058594 22.589844 21.0625 22.679688 C 21.054688 23.085938 21.035156 23.355469 20.773438 23.675781 C 20.398438 24.03125 20.203125 24.011719 19.691406 24.015625 C 19.625 24.015625 19.554688 24.015625 19.484375 24.015625 C 19.257812 24.015625 19.027344 24.019531 18.800781 24.019531 C 18.636719 24.019531 18.472656 24.019531 18.308594 24.019531 C 17.769531 24.023438 17.234375 24.023438 16.695312 24.023438 C 16.507812 24.027344 16.324219 24.027344 16.140625 24.027344 C 15.371094 24.027344 14.601562 24.03125 13.828125 24.03125 C 12.726562 24.035156 11.621094 24.035156 10.519531 24.042969 C 9.742188 24.046875 8.96875 24.046875 8.191406 24.046875 C 7.726562 24.046875 7.265625 24.050781 6.800781 24.050781 C 6.363281 24.054688 5.929688 24.054688 5.492188 24.054688 C 5.332031 24.054688 5.171875 24.054688 5.011719 24.058594 C 4.792969 24.058594 4.574219 24.058594 4.355469 24.058594 C 4.171875 24.058594 4.171875 24.058594 3.984375 24.058594 C 3.554688 23.980469 3.402344 23.839844 3.09375 23.53125 C 2.953125 23.253906 2.984375 22.96875 2.984375 22.664062 C 2.984375 22.59375 2.984375 22.523438 2.984375 22.449219 C 2.980469 22.210938 2.980469 21.972656 2.980469 21.730469 C 2.976562 21.5625 2.976562 21.390625 2.976562 21.21875 C 2.972656 20.65625 2.96875 20.097656 2.96875 19.535156 C 2.96875 19.4375 2.96875 19.34375 2.964844 19.242188 C 2.964844 18.34375 2.960938 17.441406 2.957031 16.542969 C 2.957031 15.390625 2.953125 14.234375 2.941406 13.082031 C 2.9375 12.273438 2.933594 11.460938 2.933594 10.652344 C 2.933594 10.167969 2.933594 9.683594 2.929688 9.199219 C 2.925781 8.742188 2.921875 8.289062 2.925781 7.832031 C 2.925781 7.664062 2.921875 7.5 2.921875 7.332031 C 2.902344 6.070312 2.902344 6.070312 3.140625 5.667969 C 3.304688 5.503906 3.464844 5.382812 3.65625 5.25 C 3.757812 5.140625 3.859375 5.03125 3.957031 4.917969 C 4.007812 4.851562 4.0625 4.789062 4.121094 4.726562 C 4.265625 4.550781 4.417969 4.378906 4.566406 4.203125 C 5.089844 3.585938 5.621094 2.980469 6.171875 2.390625 C 6.472656 2.066406 6.769531 1.738281 7.054688 1.40625 C 7.328125 1.09375 7.605469 0.792969 7.882812 0.488281 C 8.074219 0.277344 8.074219 0.277344 8.25 0 Z M 8.25 0 "/>
<path style=" stroke:none;fill-rule:nonzero;fill:rgb(17.647059%,26.274511%,33.725491%);fill-opacity:1;" d="M 8.25 0 C 8.460938 -0.0351562 8.460938 -0.0351562 8.726562 -0.0351562 C 8.828125 -0.0390625 8.929688 -0.0390625 9.035156 -0.0390625 C 9.203125 -0.0390625 9.203125 -0.0390625 9.371094 -0.0390625 C 9.546875 -0.0390625 9.546875 -0.0390625 9.726562 -0.0429688 C 10.050781 -0.0429688 10.371094 -0.0429688 10.691406 -0.0429688 C 10.960938 -0.0429688 11.230469 -0.046875 11.5 -0.046875 C 12.132812 -0.046875 12.765625 -0.046875 13.402344 -0.046875 C 14.054688 -0.046875 14.707031 -0.046875 15.359375 -0.0507812 C 15.921875 -0.0546875 16.484375 -0.0546875 17.042969 -0.0546875 C 17.378906 -0.0546875 17.714844 -0.0546875 18.050781 -0.0585938 C 18.425781 -0.0625 18.796875 -0.0585938 19.171875 -0.0585938 C 19.285156 -0.0585938 19.394531 -0.0585938 19.507812 -0.0625 C 20.34375 -0.0507812 20.34375 -0.0507812 20.691406 0.226562 C 20.953125 0.523438 21.011719 0.652344 21.011719 1.03125 C 21.011719 1.109375 21.015625 1.191406 21.015625 1.269531 C 21.015625 1.359375 21.015625 1.445312 21.015625 1.535156 C 21.015625 1.675781 21.015625 1.675781 21.015625 1.816406 C 21.015625 2.128906 21.019531 2.4375 21.019531 2.75 C 21.019531 2.972656 21.019531 3.195312 21.019531 3.417969 C 21.023438 4.089844 21.023438 4.757812 21.023438 5.429688 C 21.023438 5.617188 21.027344 5.804688 21.027344 5.996094 C 21.027344 7.167969 21.03125 8.34375 21.03125 9.515625 C 21.03125 9.789062 21.03125 10.058594 21.03125 10.332031 C 21.03125 10.402344 21.03125 10.46875 21.03125 10.539062 C 21.035156 11.632812 21.039062 12.726562 21.042969 13.824219 C 21.046875 14.945312 21.046875 16.070312 21.046875 17.195312 C 21.046875 17.824219 21.050781 18.457031 21.050781 19.089844 C 21.054688 19.683594 21.054688 20.277344 21.054688 20.871094 C 21.054688 21.085938 21.054688 21.304688 21.058594 21.523438 C 21.058594 21.820312 21.058594 22.117188 21.058594 22.414062 C 21.058594 22.503906 21.058594 22.589844 21.0625 22.679688 C 21.054688 23.085938 21.035156 23.355469 20.773438 23.675781 C 20.398438 24.03125 20.203125 24.011719 19.691406 24.015625 C 19.625 24.015625 19.554688 24.015625 19.484375 24.015625 C 19.257812 24.015625 19.027344 24.019531 18.800781 24.019531 C 18.636719 24.019531 18.472656 24.019531 18.308594 24.019531 C 17.769531 24.023438 17.234375 24.023438 16.695312 24.023438 C 16.507812 24.027344 16.324219 24.027344 16.140625 24.027344 C 15.371094 24.027344 14.601562 24.03125 13.828125 24.03125 C 12.726562 24.035156 11.621094 24.035156 10.519531 24.042969 C 9.742188 24.046875 8.96875 24.046875 8.191406 24.046875 C 7.726562 24.046875 7.265625 24.050781 6.800781 24.050781 C 6.363281 24.054688 5.929688 24.054688 5.492188 24.054688 C 5.332031 24.054688 5.171875 24.054688 5.011719 24.058594 C 4.792969 24.058594 4.574219 24.058594 4.355469 24.058594 C 4.171875 24.058594 4.171875 24.058594 3.984375 24.058594 C 3.554688 23.980469 3.402344 23.839844 3.09375 23.53125 C 2.953125 23.253906 2.984375 22.96875 2.984375 22.664062 C 2.984375 22.59375 2.984375 22.523438 2.984375 22.449219 C 2.980469 22.210938 2.980469 21.972656 2.980469 21.730469 C 2.976562 21.5625 2.976562 21.390625 2.976562 21.21875 C 2.972656 20.65625 2.96875 20.097656 2.96875 19.535156 C 2.96875 19.4375 2.96875 19.34375 2.964844 19.242188 C 2.964844 18.34375 2.960938 17.441406 2.957031 16.542969 C 2.957031 15.390625 2.953125 14.234375 2.941406 13.082031 C 2.9375 12.273438 2.933594 11.460938 2.933594 10.652344 C 2.933594 10.167969 2.933594 9.683594 2.929688 9.199219 C 2.925781 8.742188 2.921875 8.289062 2.925781 7.832031 C 2.925781 7.664062 2.921875 7.5 2.921875 7.332031 C 2.902344 6.070312 2.902344 6.070312 3.140625 5.667969 C 3.304688 5.503906 3.464844 5.382812 3.65625 5.25 C 3.757812 5.140625 3.859375 5.03125 3.957031 4.917969 C 4.007812 4.851562 4.0625 4.789062 4.121094 4.726562 C 4.265625 4.550781 4.417969 4.378906 4.566406 4.203125 C 5.089844 3.585938 5.621094 2.980469 6.171875 2.390625 C 6.472656 2.066406 6.769531 1.738281 7.054688 1.40625 C 7.328125 1.09375 7.605469 0.792969 7.882812 0.488281 C 8.074219 0.277344 8.074219 0.277344 8.25 0 Z M 9 0.75 C 9 0.8125 9 0.875 9 0.9375 C 8.992188 1.585938 8.984375 2.234375 8.976562 2.882812 C 8.972656 3.125 8.96875 3.367188 8.96875 3.609375 C 8.964844 3.953125 8.960938 4.300781 8.953125 4.648438 C 8.953125 4.8125 8.953125 4.8125 8.953125 4.976562 C 8.933594 5.96875 8.933594 5.96875 8.625 6.375 C 8.144531 6.726562 7.636719 6.699219 7.0625 6.703125 C 6.921875 6.707031 6.921875 6.707031 6.777344 6.710938 C 6.472656 6.714844 6.171875 6.71875 5.871094 6.722656 C 5.667969 6.722656 5.460938 6.726562 5.253906 6.730469 C 4.753906 6.738281 4.25 6.746094 3.75 6.75 C 3.746094 8.875 3.742188 10.996094 3.742188 13.121094 C 3.738281 14.105469 3.738281 15.09375 3.734375 16.078125 C 3.734375 16.9375 3.734375 17.796875 3.730469 18.65625 C 3.730469 19.109375 3.730469 19.566406 3.730469 20.019531 C 3.730469 20.449219 3.726562 20.878906 3.726562 21.304688 C 3.726562 21.464844 3.726562 21.621094 3.726562 21.777344 C 3.726562 21.992188 3.726562 22.207031 3.726562 22.421875 C 3.726562 22.542969 3.726562 22.660156 3.726562 22.785156 C 3.722656 23.074219 3.722656 23.074219 3.9375 23.25 C 4.226562 23.277344 4.226562 23.277344 4.570312 23.273438 C 4.667969 23.273438 4.667969 23.273438 4.769531 23.273438 C 4.992188 23.273438 5.214844 23.273438 5.4375 23.273438 C 5.59375 23.273438 5.753906 23.273438 5.910156 23.273438 C 6.34375 23.277344 6.773438 23.273438 7.207031 23.273438 C 7.65625 23.273438 8.109375 23.273438 8.558594 23.273438 C 9.316406 23.277344 10.074219 23.273438 10.832031 23.273438 C 11.707031 23.273438 12.582031 23.273438 13.460938 23.273438 C 14.210938 23.273438 14.960938 23.273438 15.714844 23.273438 C 16.164062 23.273438 16.613281 23.273438 17.0625 23.273438 C 17.484375 23.277344 17.90625 23.273438 18.328125 23.273438 C 18.484375 23.273438 18.640625 23.273438 18.796875 23.273438 C 19.007812 23.273438 19.21875 23.273438 19.429688 23.273438 C 19.546875 23.273438 19.664062 23.273438 19.789062 23.273438 C 20.074219 23.277344 20.074219 23.277344 20.25 23.0625 C 20.269531 22.773438 20.273438 22.492188 20.273438 22.199219 C 20.273438 22.109375 20.273438 22.019531 20.273438 21.925781 C 20.273438 21.621094 20.273438 21.316406 20.273438 21.011719 C 20.273438 20.796875 20.273438 20.578125 20.273438 20.359375 C 20.277344 19.765625 20.273438 19.175781 20.273438 18.582031 C 20.273438 18.023438 20.273438 17.46875 20.273438 16.914062 C 20.277344 15.742188 20.273438 14.574219 20.273438 13.40625 C 20.273438 12.402344 20.273438 11.398438 20.273438 10.394531 C 20.273438 9.230469 20.277344 8.0625 20.273438 6.898438 C 20.273438 6.28125 20.273438 5.667969 20.273438 5.050781 C 20.277344 4.46875 20.273438 3.890625 20.273438 3.308594 C 20.273438 3.09375 20.273438 2.882812 20.273438 2.667969 C 20.273438 2.378906 20.273438 2.089844 20.273438 1.800781 C 20.273438 1.714844 20.273438 1.628906 20.273438 1.539062 C 20.292969 1.101562 20.292969 1.101562 20.0625 0.75 C 19.859375 0.722656 19.859375 0.722656 19.621094 0.726562 C 19.480469 0.726562 19.480469 0.726562 19.335938 0.726562 C 19.183594 0.726562 19.183594 0.726562 19.027344 0.726562 C 18.863281 0.726562 18.863281 0.726562 18.699219 0.726562 C 18.339844 0.726562 17.980469 0.730469 17.625 0.730469 C 17.375 0.730469 17.128906 0.730469 16.878906 0.730469 C 16.292969 0.734375 15.707031 0.734375 15.121094 0.738281 C 14.453125 0.738281 13.785156 0.738281 13.121094 0.742188 C 11.746094 0.742188 10.375 0.746094 9 0.75 Z M 9 0.75 "/>
<path style=" stroke:none;fill-rule:nonzero;fill:rgb(17.647059%,26.274511%,33.725491%);fill-opacity:1;" d="M 7.214844 18.128906 C 7.328125 18.128906 7.441406 18.128906 7.558594 18.128906 C 7.871094 18.128906 8.179688 18.128906 8.492188 18.128906 C 8.816406 18.132812 9.144531 18.132812 9.46875 18.132812 C 10.015625 18.132812 10.5625 18.132812 11.109375 18.136719 C 11.742188 18.140625 12.375 18.140625 13.003906 18.140625 C 13.613281 18.140625 14.222656 18.140625 14.832031 18.144531 C 15.089844 18.144531 15.347656 18.144531 15.605469 18.144531 C 15.96875 18.144531 16.328125 18.144531 16.691406 18.148438 C 16.796875 18.148438 16.90625 18.148438 17.015625 18.148438 C 17.164062 18.148438 17.164062 18.148438 17.3125 18.152344 C 17.398438 18.152344 17.484375 18.152344 17.574219 18.152344 C 17.863281 18.195312 18.042969 18.296875 18.28125 18.46875 C 18.457031 18.820312 18.398438 19.238281 18.398438 19.625 C 18.402344 19.757812 18.402344 19.757812 18.40625 19.894531 C 18.410156 20.734375 18.410156 20.734375 18.09375 21.09375 C 17.8125 21.1875 17.628906 21.199219 17.335938 21.199219 C 17.238281 21.199219 17.140625 21.203125 17.039062 21.203125 C 16.929688 21.203125 16.820312 21.203125 16.710938 21.203125 C 16.539062 21.203125 16.539062 21.203125 16.367188 21.203125 C 16.054688 21.203125 15.742188 21.207031 15.429688 21.207031 C 15.234375 21.207031 15.039062 21.207031 14.84375 21.207031 C 14.234375 21.207031 13.625 21.210938 13.015625 21.210938 C 12.3125 21.210938 11.609375 21.210938 10.902344 21.214844 C 10.359375 21.21875 9.816406 21.21875 9.269531 21.21875 C 8.945312 21.21875 8.621094 21.21875 8.296875 21.21875 C 7.933594 21.222656 7.570312 21.222656 7.207031 21.222656 C 7.101562 21.222656 6.992188 21.222656 6.878906 21.222656 C 6.734375 21.222656 6.734375 21.222656 6.582031 21.222656 C 6.496094 21.222656 6.410156 21.222656 6.320312 21.222656 C 6.046875 21.179688 5.917969 21.097656 5.71875 20.90625 C 5.582031 20.492188 5.597656 20.085938 5.589844 19.652344 C 5.585938 19.5625 5.582031 19.476562 5.578125 19.382812 C 5.578125 19.296875 5.578125 19.210938 5.574219 19.121094 C 5.574219 19.042969 5.570312 18.964844 5.570312 18.886719 C 5.632812 18.625 5.730469 18.472656 5.921875 18.289062 C 6.308594 18.0625 6.78125 18.125 7.214844 18.128906 Z M 7.214844 18.128906 "/>
<path style=" stroke:none;fill-rule:nonzero;fill:rgb(17.647059%,26.274511%,33.725491%);fill-opacity:1;" d="M 7.214844 9.128906 C 7.328125 9.128906 7.441406 9.128906 7.558594 9.128906 C 7.871094 9.128906 8.179688 9.128906 8.492188 9.128906 C 8.816406 9.132812 9.144531 9.132812 9.46875 9.132812 C 10.015625 9.132812 10.5625 9.132812 11.109375 9.136719 C 11.742188 9.140625 12.375 9.140625 13.003906 9.140625 C 13.613281 9.140625 14.222656 9.140625 14.832031 9.144531 C 15.089844 9.144531 15.347656 9.144531 15.605469 9.144531 C 15.96875 9.144531 16.328125 9.144531 16.691406 9.148438 C 16.796875 9.148438 16.90625 9.148438 17.015625 9.148438 C 17.164062 9.148438 17.164062 9.148438 17.3125 9.152344 C 17.398438 9.152344 17.484375 9.152344 17.574219 9.152344 C 17.863281 9.195312 18.042969 9.296875 18.28125 9.46875 C 18.457031 9.820312 18.398438 10.238281 18.398438 10.625 C 18.402344 10.757812 18.402344 10.757812 18.40625 10.894531 C 18.410156 11.761719 18.410156 11.761719 18.09375 12.09375 C 17.9375 12.125 17.785156 12.15625 17.625 12.1875 C 17.625 11.445312 17.625 10.703125 17.625 9.9375 C 17.050781 9.941406 16.476562 9.945312 15.902344 9.953125 C 15.710938 9.953125 15.515625 9.957031 15.320312 9.957031 C 15.039062 9.957031 14.757812 9.960938 14.476562 9.964844 C 14.390625 9.964844 14.304688 9.964844 14.214844 9.964844 C 13.621094 9.976562 13.203125 10.109375 12.75 10.5 C 12.476562 10.917969 12.457031 11.214844 12.511719 11.695312 C 12.523438 11.832031 12.523438 11.832031 12.539062 11.976562 C 12.546875 12.042969 12.554688 12.113281 12.5625 12.1875 C 11.726562 12.195312 10.886719 12.199219 10.050781 12.203125 C 9.664062 12.203125 9.273438 12.207031 8.886719 12.207031 C 8.511719 12.210938 8.136719 12.214844 7.761719 12.214844 C 7.617188 12.214844 7.472656 12.214844 7.332031 12.21875 C 7.132812 12.21875 6.929688 12.21875 6.730469 12.21875 C 6.558594 12.222656 6.558594 12.222656 6.382812 12.222656 C 6.066406 12.183594 5.941406 12.132812 5.71875 11.90625 C 5.582031 11.492188 5.597656 11.085938 5.589844 10.652344 C 5.585938 10.5625 5.582031 10.476562 5.578125 10.382812 C 5.578125 10.296875 5.578125 10.210938 5.574219 10.121094 C 5.574219 10.042969 5.570312 9.964844 5.570312 9.886719 C 5.632812 9.625 5.730469 9.472656 5.921875 9.289062 C 6.308594 9.0625 6.78125 9.125 7.214844 9.128906 Z M 7.214844 9.128906 "/>
<path style=" stroke:none;fill-rule:nonzero;fill:rgb(17.647059%,26.274511%,33.725491%);fill-opacity:1;" d="M 6.792969 13.632812 C 6.859375 13.632812 6.929688 13.632812 7 13.632812 C 7.226562 13.632812 7.453125 13.636719 7.675781 13.640625 C 7.835938 13.644531 7.992188 13.644531 8.148438 13.644531 C 8.558594 13.644531 8.972656 13.648438 9.386719 13.65625 C 9.804688 13.660156 10.226562 13.664062 10.648438 13.664062 C 11.472656 13.667969 12.300781 13.675781 13.125 13.6875 C 13.21875 13.933594 13.3125 14.183594 13.40625 14.4375 C 11.085938 14.4375 8.765625 14.4375 6.375 14.4375 C 6.375 14.933594 6.375 15.425781 6.375 15.9375 C 10.085938 15.9375 13.800781 15.9375 17.625 15.9375 C 17.625 15.441406 17.625 14.949219 17.625 14.4375 C 17.53125 14.390625 17.53125 14.390625 17.4375 14.34375 C 17.5625 14.160156 17.683594 13.972656 17.8125 13.78125 C 17.988281 13.808594 17.988281 13.808594 18.1875 13.875 C 18.460938 14.28125 18.40625 14.648438 18.402344 15.128906 C 18.40625 15.21875 18.40625 15.304688 18.410156 15.398438 C 18.410156 16.234375 18.410156 16.234375 18.09375 16.59375 C 17.8125 16.6875 17.628906 16.699219 17.335938 16.699219 C 17.238281 16.699219 17.140625 16.703125 17.039062 16.703125 C 16.929688 16.703125 16.820312 16.703125 16.710938 16.703125 C 16.539062 16.703125 16.539062 16.703125 16.367188 16.703125 C 16.054688 16.707031 15.742188 16.707031 15.429688 16.707031 C 15.234375 16.707031 15.039062 16.707031 14.84375 16.707031 C 14.234375 16.707031 13.625 16.710938 13.015625 16.710938 C 12.3125 16.710938 11.605469 16.710938 10.902344 16.714844 C 10.359375 16.714844 9.816406 16.71875 9.269531 16.71875 C 8.945312 16.71875 8.621094 16.71875 8.296875 16.71875 C 7.933594 16.722656 7.570312 16.722656 7.207031 16.71875 C 7.101562 16.722656 6.992188 16.722656 6.878906 16.722656 C 6.734375 16.722656 6.734375 16.722656 6.582031 16.722656 C 6.496094 16.722656 6.410156 16.722656 6.320312 16.722656 C 6.046875 16.679688 5.917969 16.597656 5.71875 16.40625 C 5.582031 15.992188 5.597656 15.585938 5.589844 15.152344 C 5.585938 15.0625 5.582031 14.976562 5.578125 14.882812 C 5.578125 14.796875 5.578125 14.710938 5.574219 14.621094 C 5.574219 14.542969 5.570312 14.464844 5.570312 14.386719 C 5.722656 13.75 6.210938 13.621094 6.792969 13.632812 Z M 6.792969 13.632812 "/>
<path style=" stroke:none;fill-rule:nonzero;fill:rgb(57.647061%,52.941179%,63.529414%);fill-opacity:1;" d="M 6.375 18.9375 C 10.085938 18.9375 13.800781 18.9375 17.625 18.9375 C 17.625 19.433594 17.625 19.925781 17.625 20.4375 C 13.914062 20.4375 10.199219 20.4375 6.375 20.4375 C 6.375 19.941406 6.375 19.449219 6.375 18.9375 Z M 6.375 18.9375 "/>
<path style=" stroke:none;fill-rule:nonzero;fill:rgb(99.607843%,85.882354%,50.196081%);fill-opacity:1;" d="M 6.375 14.4375 C 7.292969 14.425781 8.210938 14.417969 9.128906 14.414062 C 9.554688 14.410156 9.980469 14.40625 10.40625 14.402344 C 10.816406 14.398438 11.230469 14.394531 11.640625 14.394531 C 11.796875 14.390625 11.953125 14.390625 12.109375 14.386719 C 12.332031 14.382812 12.550781 14.382812 12.773438 14.382812 C 12.835938 14.382812 12.898438 14.382812 12.964844 14.378906 C 13.425781 14.382812 13.671875 14.519531 14.011719 14.800781 C 14.234375 14.960938 14.421875 14.945312 14.691406 14.925781 C 15.054688 14.894531 15.242188 14.917969 15.5625 15.09375 C 15.953125 15.171875 16.28125 15.160156 16.636719 14.972656 C 16.78125 14.871094 16.921875 14.769531 17.058594 14.664062 C 17.25 14.53125 17.25 14.53125 17.625 14.4375 C 17.625 14.933594 17.625 15.425781 17.625 15.9375 C 13.914062 15.9375 10.199219 15.9375 6.375 15.9375 C 6.375 15.441406 6.375 14.949219 6.375 14.4375 Z M 6.375 14.4375 "/>
<path style=" stroke:none;fill-rule:nonzero;fill:rgb(19.215687%,27.843139%,35.294119%);fill-opacity:1;" d="M 14.496094 10.726562 C 14.78125 10.777344 15.058594 10.835938 15.339844 10.898438 C 15.4375 10.917969 15.53125 10.9375 15.628906 10.957031 C 16.5625 11.15625 16.5625 11.15625 16.875 11.53125 C 16.90625 11.757812 16.90625 11.757812 16.878906 12 C 16.847656 12.378906 16.847656 12.378906 17.0625 12.679688 C 17.125 12.734375 17.1875 12.789062 17.25 12.84375 C 17.316406 13.101562 17.316406 13.101562 17.25 13.40625 C 16.96875 13.8125 16.632812 14.164062 16.21875 14.4375 C 15.832031 14.496094 15.683594 14.453125 15.339844 14.25 C 15.257812 14.1875 15.175781 14.125 15.09375 14.0625 C 15 14.125 14.910156 14.1875 14.8125 14.25 C 14.238281 14.21875 14.238281 14.21875 14.007812 14.042969 C 13.726562 13.691406 13.625 13.234375 13.480469 12.8125 C 13.449219 12.71875 13.414062 12.621094 13.378906 12.519531 C 13.34375 12.425781 13.3125 12.332031 13.277344 12.234375 C 13.25 12.148438 13.21875 12.0625 13.1875 11.976562 C 13.117188 11.6875 13.101562 11.449219 13.125 11.15625 C 13.519531 10.609375 13.886719 10.628906 14.496094 10.726562 Z M 14.496094 10.726562 "/>
<path style=" stroke:none;fill-rule:nonzero;fill:rgb(98.431373%,47.058824%,36.862746%);fill-opacity:1;" d="M 6.375 9.9375 C 8.726562 9.9375 11.078125 9.9375 13.5 9.9375 C 13.300781 10.089844 13.097656 10.238281 12.886719 10.371094 C 12.566406 10.648438 12.566406 10.648438 12.375 11.4375 C 10.394531 11.4375 8.414062 11.4375 6.375 11.4375 C 6.375 10.941406 6.375 10.449219 6.375 9.9375 Z M 6.375 9.9375 "/>
<path style=" stroke:none;fill-rule:nonzero;fill:rgb(87.843138%,91.764706%,95.294118%);fill-opacity:1;" d="M 8.15625 1.40625 C 8.1875 1.40625 8.21875 1.40625 8.25 1.40625 C 8.253906 2.03125 8.257812 2.652344 8.261719 3.277344 C 8.261719 3.492188 8.261719 3.703125 8.265625 3.914062 C 8.265625 4.21875 8.269531 4.523438 8.269531 4.828125 C 8.269531 4.925781 8.269531 5.019531 8.273438 5.121094 C 8.273438 5.25 8.273438 5.25 8.273438 5.386719 C 8.273438 5.464844 8.273438 5.542969 8.273438 5.625 C 8.25 5.8125 8.25 5.8125 8.0625 6 C 7.773438 6.015625 7.492188 6.023438 7.203125 6.019531 C 7.078125 6.019531 7.078125 6.019531 6.945312 6.019531 C 6.671875 6.015625 6.402344 6.015625 6.128906 6.011719 C 5.945312 6.011719 5.761719 6.011719 5.578125 6.007812 C 5.125 6.007812 4.671875 6.003906 4.21875 6 C 4.308594 5.882812 4.394531 5.761719 4.484375 5.644531 C 4.53125 5.578125 4.582031 5.511719 4.632812 5.445312 C 4.847656 5.164062 5.085938 4.914062 5.324219 4.660156 C 5.675781 4.289062 6.007812 3.914062 6.328125 3.515625 C 6.695312 3.054688 7.089844 2.625 7.492188 2.195312 C 7.730469 1.941406 7.949219 1.683594 8.15625 1.40625 Z M 8.15625 1.40625 "/>
<path style=" stroke:none;fill-rule:nonzero;fill:rgb(63.529414%,76.862746%,78.039217%);fill-opacity:1;" d="M 3.75 22.6875 C 3.84375 22.734375 3.84375 22.734375 3.9375 22.78125 C 4.148438 22.789062 4.359375 22.792969 4.570312 22.792969 C 4.667969 22.792969 4.667969 22.792969 4.769531 22.792969 C 4.992188 22.792969 5.214844 22.792969 5.4375 22.792969 C 5.59375 22.792969 5.753906 22.792969 5.910156 22.792969 C 6.34375 22.792969 6.773438 22.792969 7.207031 22.792969 C 7.65625 22.792969 8.109375 22.792969 8.558594 22.792969 C 9.316406 22.792969 10.074219 22.792969 10.832031 22.792969 C 11.707031 22.792969 12.582031 22.792969 13.460938 22.792969 C 14.210938 22.792969 14.960938 22.792969 15.714844 22.792969 C 16.164062 22.792969 16.613281 22.792969 17.0625 22.792969 C 17.484375 22.792969 17.90625 22.792969 18.328125 22.792969 C 18.484375 22.792969 18.640625 22.792969 18.796875 22.792969 C 19.007812 22.792969 19.21875 22.792969 19.429688 22.792969 C 19.546875 22.792969 19.664062 22.792969 19.789062 22.792969 C 20.058594 22.800781 20.058594 22.800781 20.25 22.6875 C 20.167969 23.144531 20.167969 23.144531 20.0625 23.25 C 19.855469 23.257812 19.648438 23.261719 19.441406 23.261719 C 19.339844 23.261719 19.339844 23.261719 19.242188 23.261719 C 19.019531 23.265625 18.796875 23.265625 18.574219 23.265625 C 18.417969 23.265625 18.257812 23.265625 18.097656 23.265625 C 17.667969 23.265625 17.234375 23.265625 16.804688 23.265625 C 16.441406 23.265625 16.082031 23.265625 15.722656 23.265625 C 14.875 23.265625 14.023438 23.269531 13.175781 23.269531 C 12.300781 23.265625 11.421875 23.269531 10.546875 23.269531 C 9.792969 23.269531 9.042969 23.273438 8.289062 23.273438 C 7.839844 23.273438 7.390625 23.273438 6.941406 23.273438 C 6.519531 23.273438 6.09375 23.273438 5.671875 23.273438 C 5.515625 23.273438 5.363281 23.273438 5.207031 23.273438 C 4.996094 23.273438 4.78125 23.273438 4.570312 23.273438 C 4.453125 23.273438 4.335938 23.273438 4.210938 23.273438 C 3.9375 23.25 3.9375 23.25 3.75 23.0625 C 3.75 22.9375 3.75 22.816406 3.75 22.6875 Z M 3.75 22.6875 "/>
<path style=" stroke:none;fill-rule:nonzero;fill:rgb(47.450981%,43.921569%,52.156866%);fill-opacity:1;" d="M 6.375 20.0625 C 10.085938 20.0625 13.800781 20.0625 17.625 20.0625 C 17.625 20.1875 17.625 20.308594 17.625 20.4375 C 13.914062 20.4375 10.199219 20.4375 6.375 20.4375 C 6.375 20.3125 6.375 20.191406 6.375 20.0625 Z M 6.375 20.0625 "/>
<path style=" stroke:none;fill-rule:nonzero;fill:rgb(63.529414%,58.431375%,69.803923%);fill-opacity:1;" d="M 6.375 18.9375 C 10.085938 18.9375 13.800781 18.9375 17.625 18.9375 C 17.625 19.0625 17.625 19.183594 17.625 19.3125 C 13.914062 19.3125 10.199219 19.3125 6.375 19.3125 C 6.375 19.1875 6.375 19.066406 6.375 18.9375 Z M 6.375 18.9375 "/>
<path style=" stroke:none;fill-rule:nonzero;fill:rgb(85.490197%,72.941178%,43.137255%);fill-opacity:1;" d="M 6.375 15.5625 C 10.085938 15.5625 13.800781 15.5625 17.625 15.5625 C 17.625 15.6875 17.625 15.808594 17.625 15.9375 C 13.914062 15.9375 10.199219 15.9375 6.375 15.9375 C 6.375 15.8125 6.375 15.691406 6.375 15.5625 Z M 6.375 15.5625 "/>
<path style=" stroke:none;fill-rule:nonzero;fill:rgb(85.490197%,89.803922%,93.333334%);fill-opacity:1;" d="M 13.875 11.4375 C 14.628906 11.539062 15.378906 11.652344 16.125 11.8125 C 16.125 11.875 16.125 11.9375 16.125 12 C 15.9375 12.09375 15.753906 12.1875 15.5625 12.28125 C 15.871094 12.558594 16.179688 12.839844 16.5 13.125 C 16.34375 13.3125 16.191406 13.496094 16.03125 13.6875 C 15.597656 13.441406 15.207031 13.148438 14.8125 12.84375 C 14.800781 12.917969 14.789062 12.996094 14.777344 13.074219 C 14.757812 13.152344 14.738281 13.230469 14.71875 13.3125 C 14.65625 13.34375 14.59375 13.375 14.53125 13.40625 C 14.4375 13.167969 14.347656 12.925781 14.253906 12.683594 C 14.230469 12.617188 14.203125 12.550781 14.175781 12.480469 C 14.046875 12.136719 13.933594 11.804688 13.875 11.4375 Z M 13.875 11.4375 "/>
<path style=" stroke:none;fill-rule:nonzero;fill:rgb(98.431373%,89.411765%,66.274512%);fill-opacity:1;" d="M 6.375 14.4375 C 7.296875 14.429688 8.21875 14.421875 9.140625 14.417969 C 9.570312 14.414062 10 14.414062 10.429688 14.410156 C 10.839844 14.40625 11.253906 14.402344 11.667969 14.402344 C 11.824219 14.402344 11.984375 14.398438 12.140625 14.398438 C 12.363281 14.394531 12.582031 14.394531 12.804688 14.394531 C 12.902344 14.390625 12.902344 14.390625 13 14.390625 C 13.476562 14.394531 13.503906 14.441406 13.875 14.8125 C 11.398438 14.8125 8.925781 14.8125 6.375 14.8125 C 6.375 14.6875 6.375 14.566406 6.375 14.4375 Z M 6.375 14.4375 "/>
<path style=" stroke:none;fill-rule:nonzero;fill:rgb(98.039216%,58.431375%,50.980395%);fill-opacity:1;" d="M 6.375 9.9375 C 8.726562 9.9375 11.078125 9.9375 13.5 9.9375 C 12.988281 10.320312 12.761719 10.429688 12.121094 10.417969 C 12.027344 10.417969 12.027344 10.417969 11.933594 10.417969 C 11.730469 10.414062 11.523438 10.40625 11.320312 10.40625 C 11.175781 10.402344 11.035156 10.398438 10.890625 10.398438 C 10.519531 10.390625 10.144531 10.382812 9.769531 10.375 C 9.386719 10.367188 9.003906 10.359375 8.625 10.355469 C 7.875 10.339844 7.125 10.328125 6.375 10.3125 C 6.375 10.1875 6.375 10.066406 6.375 9.9375 Z M 6.375 9.9375 "/>
<path style=" stroke:none;fill-rule:nonzero;fill:rgb(81.960785%,38.431373%,30.980393%);fill-opacity:1;" d="M 6.375 11.0625 C 8.355469 11.0625 10.335938 11.0625 12.375 11.0625 C 12.375 11.1875 12.375 11.308594 12.375 11.4375 C 10.394531 11.4375 8.414062 11.4375 6.375 11.4375 C 6.375 11.3125 6.375 11.191406 6.375 11.0625 Z M 6.375 11.0625 "/>
<path style=" stroke:none;fill-rule:nonzero;fill:rgb(97.254902%,59.607846%,52.156866%);fill-opacity:1;" d="M 14.25 9.9375 C 15.363281 9.9375 16.476562 9.9375 17.625 9.9375 C 17.625 10.433594 17.625 10.925781 17.625 11.4375 C 17.5 11.28125 17.378906 11.128906 17.25 10.96875 C 16.671875 10.421875 15.902344 10.355469 15.144531 10.207031 C 15.058594 10.191406 14.972656 10.171875 14.882812 10.15625 C 14.671875 10.113281 14.460938 10.074219 14.25 10.03125 C 14.25 10 14.25 9.96875 14.25 9.9375 Z M 14.25 9.9375 "/>
<path style=" stroke:none;fill-rule:nonzero;fill:rgb(74.901962%,78.039217%,80.784315%);fill-opacity:1;" d="M 8.15625 5.4375 C 8.214844 5.613281 8.214844 5.613281 8.25 5.8125 C 8.0625 6 8.0625 6 7.6875 6.023438 C 7.527344 6.023438 7.363281 6.019531 7.203125 6.019531 C 7.078125 6.019531 7.078125 6.019531 6.945312 6.019531 C 6.671875 6.015625 6.402344 6.015625 6.128906 6.011719 C 5.945312 6.011719 5.761719 6.011719 5.578125 6.007812 C 5.125 6.007812 4.671875 6.003906 4.21875 6 C 4.308594 5.816406 4.308594 5.816406 4.5 5.625 C 4.777344 5.585938 5.023438 5.570312 5.304688 5.570312 C 5.382812 5.570312 5.460938 5.570312 5.542969 5.566406 C 5.792969 5.5625 6.042969 5.5625 6.292969 5.558594 C 6.542969 5.558594 6.796875 5.554688 7.046875 5.550781 C 7.203125 5.550781 7.359375 5.546875 7.515625 5.546875 C 7.863281 5.578125 7.863281 5.578125 8.15625 5.4375 Z M 8.15625 5.4375 "/>
<path style=" stroke:none;fill-rule:nonzero;fill:rgb(97.647059%,49.019608%,39.215687%);fill-opacity:1;" d="M 16.3125 10.3125 C 16.746094 10.3125 17.179688 10.3125 17.625 10.3125 C 17.625 10.683594 17.625 11.054688 17.625 11.4375 C 17.574219 11.367188 17.519531 11.296875 17.464844 11.226562 C 17.132812 10.828125 16.808594 10.574219 16.3125 10.40625 C 16.3125 10.375 16.3125 10.34375 16.3125 10.3125 Z M 16.3125 10.3125 "/>
</g>
</svg>
