<?xml version="1.0" encoding="UTF-8"?>
<svg xmlns="http://www.w3.org/2000/svg" xmlns:xlink="http://www.w3.org/1999/xlink" width="24" height="24" viewBox="0 0 24 24" version="1.1">
<g id="surface1">
<path style=" stroke:none;fill-rule:nonzero;fill:rgb(93.725491%,29.019609%,31.37255%);fill-opacity:1;" d="M 10.5 0.65625 C 11.488281 0.65625 12.480469 0.65625 13.5 0.65625 C 13.59375 1.027344 13.6875 1.398438 13.78125 1.78125 C 14.335938 2.222656 14.335938 2.222656 15 2.355469 C 15.339844 2.226562 15.679688 2.097656 16.015625 1.953125 C 16.21875 1.875 16.21875 1.875 16.40625 1.875 C 16.417969 1.804688 16.429688 1.730469 16.445312 1.65625 C 16.460938 1.5625 16.476562 1.46875 16.496094 1.371094 C 16.511719 1.277344 16.527344 1.183594 16.542969 1.085938 C 16.59375 0.84375 16.59375 0.84375 16.6875 0.65625 C 17.183594 0.65625 17.675781 0.65625 18.1875 0.65625 C 18.46875 1.453125 18.46875 1.453125 18.46875 1.875 C 18.5625 1.902344 18.5625 1.902344 18.660156 1.929688 C 18.746094 1.953125 18.828125 1.980469 18.914062 2.003906 C 19.039062 2.039062 19.039062 2.039062 19.164062 2.078125 C 19.40625 2.15625 19.40625 2.15625 19.609375 2.261719 C 19.878906 2.390625 20.058594 2.328125 20.34375 2.25 C 20.441406 2.183594 20.535156 2.117188 20.636719 2.050781 C 20.90625 1.875 20.90625 1.875 21.082031 1.886719 C 21.355469 2 21.523438 2.164062 21.730469 2.371094 C 21.808594 2.445312 21.882812 2.519531 21.960938 2.59375 C 22.125 2.8125 22.125 2.8125 22.113281 3.007812 C 22.003906 3.242188 21.871094 3.453125 21.726562 3.667969 C 21.570312 4.058594 21.800781 4.476562 21.941406 4.847656 C 22.125 5.324219 22.125 5.324219 22.125 5.53125 C 22.238281 5.542969 22.351562 5.554688 22.472656 5.566406 C 22.8125 5.601562 23.003906 5.675781 23.34375 5.8125 C 23.34375 6.308594 23.34375 6.800781 23.34375 7.3125 C 22.441406 7.59375 22.441406 7.59375 22.125 7.59375 C 22.105469 7.65625 22.089844 7.71875 22.070312 7.785156 C 22.046875 7.871094 22.019531 7.953125 21.996094 8.039062 C 21.972656 8.121094 21.949219 8.203125 21.921875 8.289062 C 21.84375 8.53125 21.84375 8.53125 21.734375 8.71875 C 21.601562 9.035156 21.71875 9.285156 21.820312 9.59375 C 21.933594 9.855469 21.933594 9.855469 22.21875 10.21875 C 22.589844 10.3125 22.960938 10.40625 23.34375 10.5 C 23.34375 11.488281 23.34375 12.480469 23.34375 13.5 C 22.238281 13.734375 22.238281 13.734375 21.886719 13.804688 C 21.367188 13.90625 21.367188 13.90625 20.96875 14.226562 C 20.898438 14.421875 20.851562 14.609375 20.8125 14.8125 C 20.769531 14.929688 20.722656 15.050781 20.675781 15.167969 C 20.503906 15.605469 20.503906 15.605469 20.332031 16.039062 C 20.25 16.21875 20.25 16.21875 20.128906 16.394531 C 20 16.59375 19.921875 16.738281 19.875 16.96875 C 20 17.328125 20.207031 17.621094 20.425781 17.929688 C 20.539062 18.09375 20.648438 18.257812 20.757812 18.421875 C 20.835938 18.53125 20.835938 18.53125 20.910156 18.640625 C 21 18.84375 21 18.84375 20.945312 19.03125 C 20.785156 19.257812 20.605469 19.449219 20.40625 19.644531 C 20.324219 19.722656 20.246094 19.804688 20.164062 19.886719 C 20.078125 19.96875 19.996094 20.046875 19.910156 20.132812 C 19.828125 20.214844 19.742188 20.300781 19.65625 20.386719 C 19.449219 20.589844 19.238281 20.796875 19.03125 21 C 18.722656 20.886719 18.480469 20.765625 18.222656 20.5625 C 17.554688 20.042969 17.554688 20.042969 16.757812 19.898438 C 16.324219 20.042969 15.949219 20.28125 15.5625 20.523438 C 15.277344 20.679688 15 20.734375 14.683594 20.808594 C 14.308594 20.90625 14.308594 20.90625 14.03125 21.15625 C 13.949219 21.386719 13.914062 21.605469 13.875 21.84375 C 13.828125 22.035156 13.777344 22.226562 13.730469 22.421875 C 13.648438 22.726562 13.574219 23.035156 13.5 23.34375 C 12.511719 23.34375 11.519531 23.34375 10.5 23.34375 C 10.40625 22.972656 10.3125 22.601562 10.21875 22.21875 C 9.667969 21.777344 9.667969 21.777344 9.003906 21.644531 C 8.863281 21.695312 8.863281 21.695312 8.71875 21.75 C 8.636719 21.765625 8.554688 21.78125 8.46875 21.796875 C 8.164062 21.875 7.945312 21.945312 7.6875 22.125 C 7.480469 22.53125 7.40625 22.890625 7.3125 23.34375 C 6.816406 23.34375 6.324219 23.34375 5.8125 23.34375 C 5.53125 22.546875 5.53125 22.546875 5.53125 22.125 C 5.46875 22.105469 5.40625 22.089844 5.339844 22.070312 C 5.253906 22.046875 5.171875 22.019531 5.085938 21.996094 C 5.003906 21.972656 4.921875 21.949219 4.835938 21.921875 C 4.59375 21.84375 4.59375 21.84375 4.390625 21.738281 C 4.121094 21.609375 3.941406 21.671875 3.65625 21.75 C 3.558594 21.816406 3.464844 21.882812 3.363281 21.949219 C 3.09375 22.125 3.09375 22.125 2.917969 22.113281 C 2.644531 22 2.476562 21.835938 2.269531 21.628906 C 2.191406 21.554688 2.117188 21.480469 2.039062 21.40625 C 1.875 21.1875 1.875 21.1875 1.886719 20.992188 C 1.996094 20.757812 2.128906 20.546875 2.273438 20.332031 C 2.429688 19.941406 2.199219 19.523438 2.058594 19.152344 C 1.875 18.675781 1.875 18.675781 1.875 18.46875 C 1.761719 18.457031 1.648438 18.445312 1.527344 18.433594 C 1.1875 18.398438 0.996094 18.324219 0.65625 18.1875 C 0.65625 17.691406 0.65625 17.199219 0.65625 16.6875 C 1.558594 16.40625 1.558594 16.40625 1.875 16.40625 C 1.902344 16.3125 1.902344 16.3125 1.929688 16.214844 C 1.953125 16.128906 1.980469 16.046875 2.003906 15.960938 C 2.039062 15.835938 2.039062 15.835938 2.078125 15.710938 C 2.15625 15.46875 2.15625 15.46875 2.265625 15.28125 C 2.398438 14.964844 2.28125 14.714844 2.179688 14.40625 C 2.066406 14.144531 2.066406 14.144531 1.78125 13.78125 C 1.410156 13.6875 1.039062 13.59375 0.65625 13.5 C 0.65625 12.511719 0.65625 11.519531 0.65625 10.5 C 1.761719 10.265625 1.761719 10.265625 2.113281 10.195312 C 2.632812 10.09375 2.632812 10.09375 3.03125 9.773438 C 3.101562 9.578125 3.148438 9.390625 3.1875 9.1875 C 3.230469 9.070312 3.277344 8.949219 3.324219 8.832031 C 3.496094 8.394531 3.496094 8.394531 3.667969 7.960938 C 3.75 7.78125 3.75 7.78125 3.871094 7.605469 C 4 7.40625 4.078125 7.261719 4.125 7.03125 C 4 6.671875 3.792969 6.378906 3.574219 6.070312 C 3.460938 5.90625 3.351562 5.742188 3.242188 5.578125 C 3.191406 5.503906 3.140625 5.433594 3.089844 5.359375 C 3 5.15625 3 5.15625 3.054688 4.96875 C 3.214844 4.742188 3.394531 4.550781 3.59375 4.355469 C 3.675781 4.277344 3.753906 4.195312 3.835938 4.113281 C 3.921875 4.03125 4.003906 3.953125 4.089844 3.867188 C 4.171875 3.785156 4.257812 3.699219 4.34375 3.613281 C 4.550781 3.410156 4.761719 3.203125 4.96875 3 C 5.277344 3.113281 5.519531 3.234375 5.777344 3.4375 C 6.445312 3.957031 6.445312 3.957031 7.242188 4.101562 C 7.675781 3.957031 8.050781 3.71875 8.4375 3.476562 C 8.722656 3.320312 9 3.265625 9.316406 3.191406 C 9.691406 3.09375 9.691406 3.09375 9.96875 2.84375 C 10.050781 2.613281 10.085938 2.394531 10.125 2.15625 C 10.171875 1.964844 10.222656 1.773438 10.269531 1.578125 C 10.351562 1.273438 10.425781 0.964844 10.5 0.65625 Z M 8.464844 8.578125 C 7.679688 9.429688 7.210938 10.472656 7.125 11.625 C 7.1875 11.65625 7.25 11.6875 7.3125 11.71875 C 7.34375 11.898438 7.375 12.082031 7.402344 12.261719 C 7.496094 12.707031 7.496094 12.707031 7.824219 12.996094 C 8.089844 13.085938 8.351562 13.15625 8.625 13.21875 C 8.703125 13.257812 8.78125 13.296875 8.863281 13.335938 C 9.097656 13.433594 9.097656 13.433594 9.332031 13.292969 C 9.410156 13.238281 9.488281 13.183594 9.566406 13.125 C 9.804688 12.957031 9.804688 12.957031 10.03125 12.84375 C 10.363281 12.933594 10.570312 13.175781 10.804688 13.417969 C 10.871094 13.484375 10.9375 13.554688 11.003906 13.625 C 11.054688 13.675781 11.105469 13.726562 11.15625 13.78125 C 11.109375 13.878906 11.109375 13.878906 11.058594 13.976562 C 11.015625 14.0625 10.972656 14.144531 10.925781 14.230469 C 10.886719 14.316406 10.84375 14.398438 10.800781 14.484375 C 10.679688 14.722656 10.679688 14.722656 10.59375 15 C 10.683594 15.25 10.683594 15.25 10.816406 15.511719 C 10.960938 15.808594 11.089844 16.082031 11.15625 16.40625 C 11.234375 16.425781 11.316406 16.441406 11.398438 16.460938 C 11.503906 16.484375 11.605469 16.511719 11.714844 16.535156 C 11.816406 16.558594 11.917969 16.582031 12.027344 16.609375 C 12.109375 16.632812 12.195312 16.660156 12.28125 16.6875 C 12.3125 16.75 12.34375 16.8125 12.375 16.875 C 13.707031 16.753906 14.855469 16.1875 15.75 15.1875 C 16.394531 14.351562 16.796875 13.429688 16.875 12.375 C 16.8125 12.34375 16.75 12.3125 16.6875 12.28125 C 16.65625 12.101562 16.625 11.917969 16.597656 11.738281 C 16.503906 11.292969 16.503906 11.292969 16.175781 11.003906 C 15.910156 10.914062 15.648438 10.84375 15.375 10.78125 C 15.296875 10.742188 15.21875 10.703125 15.136719 10.664062 C 14.902344 10.566406 14.902344 10.566406 14.667969 10.707031 C 14.589844 10.761719 14.511719 10.816406 14.433594 10.875 C 14.195312 11.042969 14.195312 11.042969 13.96875 11.15625 C 13.636719 11.066406 13.429688 10.824219 13.195312 10.582031 C 13.128906 10.515625 13.0625 10.445312 12.996094 10.375 C 12.945312 10.324219 12.894531 10.273438 12.84375 10.21875 C 12.875 10.152344 12.910156 10.089844 12.941406 10.023438 C 12.984375 9.9375 13.027344 9.855469 13.074219 9.769531 C 13.136719 9.640625 13.136719 9.640625 13.199219 9.515625 C 13.320312 9.277344 13.320312 9.277344 13.40625 9 C 13.316406 8.75 13.316406 8.75 13.183594 8.488281 C 13.035156 8.183594 12.925781 7.929688 12.84375 7.59375 C 12.441406 7.5 12.039062 7.40625 11.625 7.3125 C 11.625 7.25 11.625 7.1875 11.625 7.125 C 10.410156 7.125 9.324219 7.765625 8.464844 8.578125 Z M 8.464844 8.578125 "/>
<path style=" stroke:none;fill-rule:nonzero;fill:rgb(47.843137%,53.725493%,57.647061%);fill-opacity:1;" d="M 5.8125 11.625 C 6.308594 11.625 6.800781 11.625 7.3125 11.625 C 7.59375 12.421875 7.59375 12.421875 7.59375 12.84375 C 7.683594 12.851562 7.777344 12.859375 7.871094 12.867188 C 8.179688 12.90625 8.382812 13.007812 8.652344 13.167969 C 8.863281 13.28125 8.863281 13.28125 9.09375 13.3125 C 9.367188 13.195312 9.582031 13.050781 9.820312 12.867188 C 10.03125 12.75 10.03125 12.75 10.21875 12.796875 C 10.453125 12.972656 10.648438 13.164062 10.851562 13.371094 C 10.925781 13.449219 11 13.523438 11.078125 13.601562 C 11.136719 13.664062 11.191406 13.71875 11.25 13.78125 C 11.203125 13.878906 11.203125 13.878906 11.152344 13.976562 C 11.109375 14.0625 11.066406 14.144531 11.019531 14.230469 C 10.980469 14.316406 10.9375 14.398438 10.894531 14.484375 C 10.773438 14.722656 10.773438 14.722656 10.6875 15 C 10.78125 15.25 10.78125 15.25 10.917969 15.511719 C 11.089844 15.855469 11.15625 16.011719 11.15625 16.40625 C 11.328125 16.425781 11.328125 16.425781 11.503906 16.441406 C 11.84375 16.476562 12.035156 16.550781 12.375 16.6875 C 12.375 17.183594 12.375 17.675781 12.375 18.1875 C 11.972656 18.28125 11.570312 18.375 11.15625 18.46875 C 11.113281 18.617188 11.070312 18.761719 11.027344 18.914062 C 10.957031 19.160156 10.886719 19.382812 10.769531 19.609375 C 10.640625 19.878906 10.703125 20.058594 10.78125 20.34375 C 10.964844 20.652344 10.964844 20.652344 11.15625 20.90625 C 11.023438 21.207031 10.871094 21.398438 10.636719 21.621094 C 10.394531 21.847656 10.394531 21.847656 10.21875 22.125 C 9.960938 22.03125 9.75 21.9375 9.519531 21.777344 C 9.195312 21.613281 9.070312 21.652344 8.71875 21.75 C 8.59375 21.773438 8.59375 21.773438 8.464844 21.796875 C 8.164062 21.875 7.945312 21.949219 7.6875 22.125 C 7.480469 22.53125 7.40625 22.890625 7.3125 23.34375 C 6.816406 23.34375 6.324219 23.34375 5.8125 23.34375 C 5.53125 22.546875 5.53125 22.546875 5.53125 22.125 C 5.46875 22.105469 5.40625 22.089844 5.339844 22.070312 C 5.253906 22.046875 5.171875 22.019531 5.085938 21.996094 C 5.003906 21.972656 4.921875 21.949219 4.835938 21.921875 C 4.59375 21.84375 4.59375 21.84375 4.390625 21.738281 C 4.121094 21.609375 3.941406 21.671875 3.65625 21.75 C 3.558594 21.816406 3.464844 21.882812 3.363281 21.949219 C 3.09375 22.125 3.09375 22.125 2.917969 22.113281 C 2.644531 22 2.476562 21.835938 2.269531 21.628906 C 2.191406 21.554688 2.117188 21.480469 2.039062 21.40625 C 1.875 21.1875 1.875 21.1875 1.886719 20.992188 C 1.996094 20.757812 2.128906 20.546875 2.273438 20.332031 C 2.429688 19.941406 2.199219 19.523438 2.058594 19.152344 C 1.875 18.675781 1.875 18.675781 1.875 18.46875 C 1.761719 18.457031 1.648438 18.445312 1.527344 18.433594 C 1.1875 18.398438 0.996094 18.324219 0.65625 18.1875 C 0.65625 17.691406 0.65625 17.199219 0.65625 16.6875 C 1.558594 16.40625 1.558594 16.40625 1.875 16.40625 C 1.894531 16.34375 1.910156 16.28125 1.929688 16.214844 C 1.953125 16.128906 1.980469 16.046875 2.003906 15.960938 C 2.027344 15.878906 2.050781 15.796875 2.078125 15.710938 C 2.15625 15.46875 2.15625 15.46875 2.261719 15.265625 C 2.382812 15.011719 2.335938 14.886719 2.25 14.625 C 2.132812 14.402344 2.003906 14.1875 1.875 13.96875 C 1.875 13.90625 1.875 13.84375 1.875 13.78125 C 2.027344 13.628906 2.027344 13.628906 2.230469 13.457031 C 2.464844 13.261719 2.691406 13.0625 2.90625 12.84375 C 3.164062 12.9375 3.378906 13.035156 3.609375 13.191406 C 3.902344 13.34375 3.996094 13.304688 4.3125 13.21875 C 4.554688 13.125 4.792969 13.023438 5.035156 12.921875 C 5.25 12.84375 5.25 12.84375 5.53125 12.84375 C 5.625 12.441406 5.71875 12.039062 5.8125 11.625 Z M 5.8125 11.625 "/>
<path style=" stroke:none;fill-rule:nonzero;fill:rgb(96.470588%,72.941178%,26.666668%);fill-opacity:1;" d="M 22.46875 10.265625 C 22.636719 10.308594 22.804688 10.355469 22.96875 10.40625 C 23.152344 10.453125 23.152344 10.453125 23.34375 10.5 C 23.34375 11.488281 23.34375 12.480469 23.34375 13.5 C 22.234375 13.734375 22.234375 13.734375 21.886719 13.804688 C 21.367188 13.90625 21.367188 13.90625 20.96875 14.226562 C 20.898438 14.421875 20.851562 14.609375 20.8125 14.8125 C 20.769531 14.929688 20.722656 15.050781 20.675781 15.167969 C 20.5 15.605469 20.5 15.605469 20.332031 16.039062 C 20.25 16.21875 20.25 16.21875 20.128906 16.394531 C 20 16.59375 19.917969 16.738281 19.875 16.96875 C 20 17.328125 20.207031 17.621094 20.425781 17.929688 C 20.539062 18.09375 20.648438 18.257812 20.757812 18.421875 C 20.835938 18.53125 20.835938 18.53125 20.910156 18.640625 C 21 18.84375 21 18.84375 20.945312 19.03125 C 20.785156 19.257812 20.605469 19.449219 20.40625 19.644531 C 20.324219 19.722656 20.246094 19.804688 20.164062 19.886719 C 20.039062 20.007812 20.039062 20.007812 19.910156 20.132812 C 19.824219 20.214844 19.742188 20.300781 19.65625 20.386719 C 19.445312 20.589844 19.238281 20.796875 19.03125 21 C 18.722656 20.886719 18.480469 20.765625 18.222656 20.5625 C 17.554688 20.042969 17.554688 20.042969 16.757812 19.898438 C 16.324219 20.042969 15.949219 20.28125 15.5625 20.523438 C 15.277344 20.679688 15 20.734375 14.683594 20.808594 C 14.308594 20.90625 14.308594 20.90625 14.03125 21.15625 C 13.949219 21.386719 13.914062 21.605469 13.875 21.84375 C 13.828125 22.035156 13.777344 22.226562 13.726562 22.421875 C 13.648438 22.726562 13.574219 23.035156 13.5 23.34375 C 12.507812 23.34375 11.519531 23.34375 10.5 23.34375 C 10.21875 22.21875 10.21875 22.21875 10.3125 21.84375 C 10.484375 21.644531 10.484375 21.644531 10.695312 21.445312 C 10.761719 21.378906 10.832031 21.3125 10.902344 21.246094 C 10.980469 21.167969 10.980469 21.167969 11.0625 21.09375 C 10.964844 20.835938 10.875 20.625 10.714844 20.394531 C 10.523438 20.015625 10.65625 19.699219 10.765625 19.300781 C 11.039062 18.539062 11.039062 18.539062 11.386719 18.332031 C 11.722656 18.230469 12.023438 18.1875 12.375 18.1875 C 12.375 17.753906 12.375 17.320312 12.375 16.875 C 12.570312 16.824219 12.761719 16.773438 12.960938 16.722656 C 14.347656 16.335938 15.421875 15.679688 16.171875 14.425781 C 16.511719 13.773438 16.714844 13.085938 16.875 12.375 C 17.308594 12.375 17.742188 12.375 18.1875 12.375 C 18.230469 12.125 18.230469 12.125 18.273438 11.871094 C 18.363281 11.367188 18.363281 11.367188 18.46875 11.15625 C 18.675781 11.046875 18.882812 10.949219 19.09375 10.855469 C 19.183594 10.816406 19.183594 10.816406 19.269531 10.777344 C 19.667969 10.601562 19.929688 10.566406 20.34375 10.6875 C 20.660156 10.878906 20.660156 10.878906 20.90625 11.0625 C 21.214844 10.929688 21.363281 10.785156 21.570312 10.523438 C 21.871094 10.203125 22.042969 10.1875 22.46875 10.265625 Z M 22.46875 10.265625 "/>
<path style=" stroke:none;fill-rule:nonzero;fill:rgb(96.470588%,72.941178%,26.666668%);fill-opacity:1;" d="M 10.5 0.65625 C 11.488281 0.65625 12.480469 0.65625 13.5 0.65625 C 13.78125 1.78125 13.78125 1.78125 13.6875 2.15625 C 13.515625 2.355469 13.515625 2.355469 13.308594 2.554688 C 13.238281 2.621094 13.167969 2.6875 13.097656 2.753906 C 13.046875 2.804688 12.992188 2.855469 12.9375 2.90625 C 13.035156 3.164062 13.128906 3.378906 13.285156 3.609375 C 13.472656 3.96875 13.332031 4.234375 13.234375 4.617188 C 12.960938 5.460938 12.960938 5.460938 12.613281 5.671875 C 12.277344 5.773438 11.976562 5.8125 11.625 5.8125 C 11.625 6.246094 11.625 6.679688 11.625 7.125 C 11.535156 7.144531 11.445312 7.167969 11.355469 7.1875 C 9.964844 7.519531 8.804688 8.089844 7.988281 9.308594 C 7.550781 10.035156 7.3125 10.804688 7.125 11.625 C 6.691406 11.625 6.257812 11.625 5.8125 11.625 C 5.785156 11.789062 5.753906 11.957031 5.722656 12.128906 C 5.636719 12.632812 5.636719 12.632812 5.53125 12.84375 C 5.339844 12.929688 5.144531 13.007812 4.945312 13.082031 C 4.785156 13.144531 4.785156 13.144531 4.621094 13.207031 C 4.097656 13.386719 4.097656 13.386719 3.84375 13.40625 C 3.632812 13.300781 3.464844 13.167969 3.277344 13.023438 C 3.09375 12.914062 3.09375 12.914062 2.902344 12.996094 C 2.703125 13.136719 2.582031 13.285156 2.433594 13.476562 C 2.261719 13.652344 2.261719 13.652344 2.0625 13.78125 C 1.699219 13.789062 1.378906 13.699219 1.03125 13.59375 C 0.90625 13.5625 0.785156 13.53125 0.65625 13.5 C 0.65625 12.511719 0.65625 11.519531 0.65625 10.5 C 1.761719 10.265625 1.761719 10.265625 2.113281 10.195312 C 2.632812 10.09375 2.632812 10.09375 3.03125 9.773438 C 3.101562 9.578125 3.148438 9.390625 3.1875 9.1875 C 3.230469 9.070312 3.277344 8.949219 3.324219 8.832031 C 3.496094 8.394531 3.496094 8.394531 3.667969 7.960938 C 3.75 7.78125 3.75 7.78125 3.871094 7.605469 C 4 7.40625 4.078125 7.261719 4.125 7.03125 C 4 6.671875 3.792969 6.378906 3.574219 6.070312 C 3.460938 5.90625 3.351562 5.742188 3.242188 5.578125 C 3.191406 5.503906 3.140625 5.433594 3.089844 5.359375 C 3 5.15625 3 5.15625 3.054688 4.96875 C 3.214844 4.742188 3.394531 4.550781 3.59375 4.355469 C 3.675781 4.277344 3.753906 4.195312 3.835938 4.113281 C 3.921875 4.03125 4.003906 3.953125 4.089844 3.867188 C 4.171875 3.785156 4.257812 3.699219 4.34375 3.613281 C 4.550781 3.410156 4.761719 3.203125 4.96875 3 C 5.277344 3.113281 5.519531 3.234375 5.777344 3.4375 C 6.445312 3.957031 6.445312 3.957031 7.242188 4.101562 C 7.675781 3.957031 8.050781 3.71875 8.4375 3.476562 C 8.722656 3.320312 9 3.265625 9.316406 3.191406 C 9.691406 3.09375 9.691406 3.09375 9.96875 2.84375 C 10.050781 2.613281 10.085938 2.394531 10.125 2.15625 C 10.171875 1.964844 10.222656 1.773438 10.269531 1.578125 C 10.351562 1.273438 10.425781 0.964844 10.5 0.65625 Z M 10.5 0.65625 "/>
<path style=" stroke:none;fill-rule:nonzero;fill:rgb(30.588236%,39.607844%,45.490196%);fill-opacity:1;" d="M 2.90625 12.84375 C 3.097656 12.910156 3.097656 12.910156 3.375 13.03125 C 3.433594 13.050781 3.488281 13.070312 3.550781 13.09375 C 3.78125 13.203125 3.886719 13.285156 4.03125 13.5 C 4.09375 13.898438 4.109375 14.285156 4.109375 14.6875 C 4.113281 14.972656 4.148438 15.222656 4.222656 15.5 C 4.320312 15.878906 4.296875 16.117188 4.21875 16.5 C 4.046875 17.367188 4.035156 18.160156 4.5 18.9375 C 4.964844 19.484375 5.511719 19.816406 6.222656 19.902344 C 6.808594 19.921875 7.332031 19.804688 7.875 19.59375 C 7.90625 19.5625 7.9375 19.53125 7.96875 19.5 C 8.113281 19.492188 8.257812 19.492188 8.402344 19.496094 C 8.492188 19.496094 8.582031 19.496094 8.671875 19.496094 C 8.859375 19.5 9.046875 19.5 9.238281 19.503906 C 9.761719 19.507812 10.261719 19.484375 10.78125 19.40625 C 10.757812 19.515625 10.730469 19.621094 10.707031 19.734375 C 10.65625 20.09375 10.722656 20.257812 10.925781 20.554688 C 10.972656 20.613281 11.019531 20.671875 11.070312 20.730469 C 11.15625 20.90625 11.15625 20.90625 11.097656 21.09375 C 10.960938 21.296875 10.8125 21.453125 10.636719 21.621094 C 10.394531 21.847656 10.394531 21.847656 10.21875 22.125 C 9.960938 22.03125 9.75 21.9375 9.519531 21.777344 C 9.195312 21.613281 9.070312 21.652344 8.71875 21.75 C 8.59375 21.773438 8.59375 21.773438 8.464844 21.796875 C 8.164062 21.875 7.945312 21.949219 7.6875 22.125 C 7.480469 22.53125 7.40625 22.890625 7.3125 23.34375 C 6.816406 23.34375 6.324219 23.34375 5.8125 23.34375 C 5.53125 22.546875 5.53125 22.546875 5.53125 22.125 C 5.46875 22.105469 5.40625 22.089844 5.339844 22.070312 C 5.253906 22.046875 5.171875 22.019531 5.085938 21.996094 C 5.003906 21.972656 4.921875 21.949219 4.835938 21.921875 C 4.59375 21.84375 4.59375 21.84375 4.390625 21.738281 C 4.121094 21.609375 3.941406 21.671875 3.65625 21.75 C 3.558594 21.816406 3.464844 21.882812 3.363281 21.949219 C 3.09375 22.125 3.09375 22.125 2.917969 22.113281 C 2.644531 22 2.476562 21.835938 2.269531 21.628906 C 2.191406 21.554688 2.117188 21.480469 2.039062 21.40625 C 1.875 21.1875 1.875 21.1875 1.886719 20.992188 C 1.996094 20.757812 2.128906 20.546875 2.273438 20.332031 C 2.429688 19.941406 2.199219 19.523438 2.058594 19.152344 C 1.875 18.675781 1.875 18.675781 1.875 18.46875 C 1.761719 18.457031 1.648438 18.445312 1.527344 18.433594 C 1.1875 18.398438 0.996094 18.324219 0.65625 18.1875 C 0.65625 17.691406 0.65625 17.199219 0.65625 16.6875 C 1.558594 16.40625 1.558594 16.40625 1.875 16.40625 C 1.894531 16.34375 1.910156 16.28125 1.929688 16.214844 C 1.953125 16.128906 1.980469 16.046875 2.003906 15.960938 C 2.027344 15.878906 2.050781 15.796875 2.078125 15.710938 C 2.15625 15.46875 2.15625 15.46875 2.261719 15.265625 C 2.382812 15.011719 2.335938 14.886719 2.25 14.625 C 2.132812 14.402344 2.003906 14.1875 1.875 13.96875 C 1.875 13.90625 1.875 13.84375 1.875 13.78125 C 2.027344 13.628906 2.027344 13.628906 2.230469 13.457031 C 2.464844 13.261719 2.691406 13.0625 2.90625 12.84375 Z M 2.90625 12.84375 "/>
<path style=" stroke:none;fill-rule:nonzero;fill:rgb(99.607843%,66.666669%,1.176471%);fill-opacity:1;" d="M 13.382812 17.046875 C 14.621094 17.535156 15.804688 17.753906 17.136719 17.75 C 17.246094 17.75 17.351562 17.75 17.460938 17.75 C 18.171875 17.742188 18.824219 17.671875 19.511719 17.492188 C 19.8125 17.429688 19.96875 17.410156 20.25 17.53125 C 20.414062 17.746094 20.539062 17.9375 20.667969 18.171875 C 20.71875 18.257812 20.71875 18.257812 20.773438 18.347656 C 20.871094 18.523438 20.871094 18.523438 21 18.84375 C 20.886719 19.183594 20.65625 19.398438 20.40625 19.644531 C 20.324219 19.722656 20.246094 19.804688 20.164062 19.882812 C 20.039062 20.007812 20.039062 20.007812 19.910156 20.132812 C 19.828125 20.214844 19.742188 20.300781 19.65625 20.386719 C 19.449219 20.589844 19.238281 20.796875 19.03125 21 C 18.722656 20.886719 18.480469 20.765625 18.222656 20.5625 C 17.554688 20.042969 17.554688 20.042969 16.757812 19.898438 C 16.324219 20.042969 15.949219 20.28125 15.5625 20.523438 C 15.277344 20.679688 15 20.734375 14.683594 20.804688 C 14.308594 20.90625 14.308594 20.90625 14.03125 21.15625 C 13.949219 21.386719 13.914062 21.605469 13.875 21.84375 C 13.828125 22.035156 13.777344 22.226562 13.730469 22.421875 C 13.648438 22.726562 13.574219 23.035156 13.5 23.34375 C 12.511719 23.34375 11.519531 23.34375 10.5 23.34375 C 10.21875 22.21875 10.21875 22.21875 10.3125 21.84375 C 10.484375 21.644531 10.484375 21.644531 10.691406 21.445312 C 10.761719 21.378906 10.832031 21.3125 10.902344 21.246094 C 10.953125 21.195312 11.007812 21.144531 11.0625 21.09375 C 10.964844 20.835938 10.875 20.625 10.714844 20.398438 C 10.523438 20.019531 10.660156 19.699219 10.765625 19.300781 C 11.039062 18.539062 11.039062 18.539062 11.386719 18.335938 C 11.722656 18.230469 12.023438 18.1875 12.375 18.1875 C 12.375 17.753906 12.375 17.320312 12.375 16.875 C 12.765625 16.746094 13.019531 16.898438 13.382812 17.046875 Z M 13.382812 17.046875 "/>
<path style=" stroke:none;fill-rule:nonzero;fill:rgb(99.607843%,66.666669%,1.176471%);fill-opacity:1;" d="M 4.96875 3 C 5.34375 3.144531 5.679688 3.320312 6.027344 3.527344 C 6.179688 3.617188 6.179688 3.617188 6.332031 3.707031 C 6.445312 3.773438 6.445312 3.773438 6.5625 3.84375 C 6.515625 4.03125 6.46875 4.222656 6.425781 4.410156 C 6.027344 6.605469 6.191406 8.894531 7.058594 10.953125 C 7.125 11.15625 7.125 11.15625 7.125 11.625 C 6.691406 11.625 6.257812 11.625 5.8125 11.625 C 5.785156 11.789062 5.753906 11.957031 5.722656 12.128906 C 5.636719 12.632812 5.636719 12.632812 5.53125 12.84375 C 5.339844 12.929688 5.144531 13.007812 4.945312 13.082031 C 4.785156 13.144531 4.785156 13.144531 4.621094 13.207031 C 4.097656 13.386719 4.097656 13.386719 3.84375 13.40625 C 3.632812 13.300781 3.464844 13.167969 3.277344 13.023438 C 3.09375 12.914062 3.09375 12.914062 2.902344 12.996094 C 2.703125 13.136719 2.582031 13.285156 2.433594 13.476562 C 2.261719 13.652344 2.261719 13.652344 2.0625 13.78125 C 1.699219 13.789062 1.378906 13.699219 1.03125 13.59375 C 0.90625 13.5625 0.785156 13.53125 0.65625 13.5 C 0.65625 12.511719 0.65625 11.519531 0.65625 10.5 C 1.761719 10.265625 1.761719 10.265625 2.113281 10.195312 C 2.632812 10.09375 2.632812 10.09375 3.03125 9.773438 C 3.101562 9.578125 3.148438 9.390625 3.1875 9.1875 C 3.230469 9.070312 3.277344 8.949219 3.324219 8.832031 C 3.496094 8.394531 3.496094 8.394531 3.667969 7.960938 C 3.75 7.78125 3.75 7.78125 3.871094 7.605469 C 4 7.40625 4.078125 7.261719 4.125 7.03125 C 4 6.671875 3.792969 6.378906 3.574219 6.070312 C 3.460938 5.90625 3.351562 5.742188 3.242188 5.578125 C 3.191406 5.503906 3.140625 5.433594 3.089844 5.359375 C 3 5.15625 3 5.15625 3.054688 4.96875 C 3.214844 4.742188 3.394531 4.550781 3.59375 4.355469 C 3.675781 4.277344 3.753906 4.195312 3.835938 4.113281 C 3.921875 4.03125 4.003906 3.953125 4.089844 3.867188 C 4.171875 3.785156 4.257812 3.699219 4.34375 3.613281 C 4.550781 3.410156 4.761719 3.203125 4.96875 3 Z M 4.96875 3 "/>
<path style=" stroke:none;fill-rule:nonzero;fill:rgb(92.156863%,46.27451%,48.235294%);fill-opacity:1;" d="M 16.6875 0.65625 C 17.183594 0.65625 17.675781 0.65625 18.1875 0.65625 C 18.46875 1.453125 18.46875 1.453125 18.46875 1.875 C 18.53125 1.894531 18.59375 1.910156 18.660156 1.929688 C 18.746094 1.953125 18.828125 1.980469 18.914062 2.003906 C 18.996094 2.027344 19.078125 2.050781 19.164062 2.078125 C 19.40625 2.15625 19.40625 2.15625 19.609375 2.261719 C 19.878906 2.390625 20.058594 2.328125 20.34375 2.25 C 20.441406 2.183594 20.535156 2.117188 20.636719 2.050781 C 20.90625 1.875 20.90625 1.875 21.082031 1.886719 C 21.355469 2 21.523438 2.164062 21.730469 2.371094 C 21.808594 2.445312 21.882812 2.519531 21.960938 2.59375 C 22.125 2.8125 22.125 2.8125 22.113281 3.007812 C 22.003906 3.242188 21.871094 3.453125 21.726562 3.667969 C 21.570312 4.058594 21.800781 4.476562 21.941406 4.847656 C 22.125 5.324219 22.125 5.324219 22.125 5.53125 C 22.296875 5.550781 22.296875 5.550781 22.472656 5.566406 C 22.8125 5.601562 23.003906 5.675781 23.34375 5.8125 C 23.34375 6.308594 23.34375 6.800781 23.34375 7.3125 C 22.441406 7.59375 22.441406 7.59375 22.125 7.59375 C 22.03125 7.902344 21.9375 8.210938 21.84375 8.53125 C 21.285156 8.652344 20.734375 8.636719 20.167969 8.628906 C 20.015625 8.628906 20.015625 8.628906 19.863281 8.628906 C 19.617188 8.628906 19.371094 8.625 19.125 8.625 C 19.234375 8.394531 19.347656 8.203125 19.5 7.992188 C 19.890625 7.359375 19.972656 6.636719 19.875 5.90625 C 19.640625 5.183594 19.238281 4.671875 18.574219 4.308594 C 17.921875 4.023438 17.175781 4.042969 16.496094 4.234375 C 16.023438 4.4375 15.636719 4.789062 15.28125 5.15625 C 14.929688 4.5 14.894531 3.980469 14.902344 3.253906 C 14.902344 3.171875 14.902344 3.09375 14.902344 3.015625 C 14.902344 2.820312 14.90625 2.628906 14.90625 2.4375 C 15.070312 2.359375 15.230469 2.285156 15.394531 2.207031 C 15.484375 2.167969 15.574219 2.125 15.667969 2.082031 C 15.914062 1.976562 16.140625 1.917969 16.40625 1.875 C 16.417969 1.804688 16.429688 1.730469 16.445312 1.65625 C 16.460938 1.5625 16.476562 1.46875 16.496094 1.371094 C 16.511719 1.277344 16.527344 1.183594 16.542969 1.085938 C 16.59375 0.84375 16.59375 0.84375 16.6875 0.65625 Z M 16.6875 0.65625 "/>
<path style=" stroke:none;fill-rule:nonzero;fill:rgb(96.078432%,72.941178%,27.058825%);fill-opacity:1;" d="M 17.476562 4 C 18.183594 4.011719 18.777344 4.226562 19.300781 4.703125 C 19.808594 5.269531 20.03125 5.855469 19.992188 6.613281 C 19.917969 7.355469 19.757812 7.890625 19.21875 8.4375 C 18.492188 8.996094 17.792969 9.203125 16.875 9.09375 C 16.054688 8.820312 15.535156 8.328125 15.09375 7.59375 C 14.824219 7.015625 14.804688 6.378906 14.96875 5.761719 C 15.28125 5.007812 15.757812 4.464844 16.5 4.125 C 16.769531 4.105469 16.769531 4.105469 16.96875 4.125 C 17.117188 3.976562 17.269531 4.007812 17.476562 4 Z M 17.476562 4 "/>
<path style=" stroke:none;fill-rule:nonzero;fill:rgb(99.215686%,66.666669%,1.568628%);fill-opacity:1;" d="M 7.746094 15.152344 C 8.414062 15.542969 8.898438 16.125 9.09375 16.875 C 9.207031 17.675781 9.035156 18.359375 8.59375 19.035156 C 8.21875 19.519531 7.761719 19.761719 7.183594 19.945312 C 6.316406 20.027344 5.601562 19.980469 4.871094 19.457031 C 4.375 19.007812 4.089844 18.445312 4.003906 17.78125 C 3.996094 17.570312 4.007812 17.367188 4.03125 17.15625 C 4.039062 17.085938 4.046875 17.015625 4.054688 16.941406 C 4.148438 16.378906 4.371094 15.960938 4.78125 15.5625 C 5.722656 14.890625 6.65625 14.65625 7.746094 15.152344 Z M 7.746094 15.152344 "/>
</g>
</svg>
