<?xml version="1.0" encoding="UTF-8"?>
<svg xmlns="http://www.w3.org/2000/svg" xmlns:xlink="http://www.w3.org/1999/xlink" width="24" height="24" viewBox="0 0 24 24" version="1.1">
<g id="surface1">
<path style=" stroke:none;fill-rule:nonzero;fill:rgb(94.509804%,0%,31.764707%);fill-opacity:1;" d="M 19.554688 2.5625 C 19.890625 2.855469 20.210938 3.160156 20.53125 3.46875 C 20.597656 3.53125 20.664062 3.589844 20.734375 3.65625 C 21.324219 4.207031 21.773438 4.863281 22.21875 5.53125 C 22.277344 5.617188 22.335938 5.707031 22.398438 5.796875 C 24.015625 8.371094 24.46875 11.785156 23.804688 14.734375 C 23.011719 17.851562 21.144531 20.605469 18.375 22.296875 C 17.304688 22.929688 16.195312 23.378906 15 23.71875 C 14.890625 23.75 14.777344 23.78125 14.664062 23.816406 C 11.675781 24.523438 8.300781 23.921875 5.691406 22.347656 C 2.960938 20.632812 1.152344 18.078125 0.28125 15 C 0.25 14.890625 0.21875 14.78125 0.183594 14.664062 C -0.527344 11.652344 0.0898438 8.273438 1.691406 5.652344 C 2.152344 4.925781 2.6875 4.277344 3.28125 3.65625 C 3.359375 3.574219 3.433594 3.492188 3.511719 3.40625 C 5 1.828125 6.933594 0.867188 9 0.28125 C 9.109375 0.25 9.21875 0.21875 9.335938 0.183594 C 12.800781 -0.636719 16.832031 0.273438 19.554688 2.5625 Z M 19.554688 2.5625 "/>
<path style=" stroke:none;fill-rule:nonzero;fill:rgb(99.607843%,0.392157%,34.901962%);fill-opacity:1;" d="M 19.554688 2.5625 C 19.890625 2.855469 20.210938 3.160156 20.53125 3.46875 C 20.597656 3.53125 20.664062 3.589844 20.734375 3.65625 C 21.402344 4.28125 21.898438 5.054688 22.40625 5.8125 C 22.324219 6.621094 21.53125 7.386719 21.003906 7.949219 C 20.800781 8.164062 20.800781 8.164062 20.589844 8.445312 C 20.207031 8.871094 19.765625 9.210938 19.3125 9.5625 C 19.242188 9.617188 19.171875 9.671875 19.101562 9.730469 C 17.609375 10.835938 15.96875 11.484375 14.15625 11.8125 C 14.125 14.660156 14.09375 17.503906 14.0625 20.4375 C 14.402344 20.4375 14.742188 20.4375 15.09375 20.4375 C 15.09375 21.117188 15.09375 21.796875 15.09375 22.5 C 13.484375 22.5 11.875 22.5 10.21875 22.5 C 10.21875 21.820312 10.21875 21.136719 10.21875 20.4375 C 10.558594 20.40625 10.898438 20.375 11.25 20.34375 C 11.21875 20.277344 11.1875 20.210938 11.152344 20.144531 C 11.113281 20.054688 11.070312 19.964844 11.027344 19.875 C 10.984375 19.789062 10.945312 19.703125 10.902344 19.609375 C 10.640625 18.964844 10.558594 18.378906 10.5625 17.6875 C 10.566406 17.613281 10.566406 17.53125 10.566406 17.453125 C 10.578125 16.796875 10.640625 16.167969 10.96875 15.585938 C 11.242188 15.089844 11.304688 14.6875 11.308594 14.121094 C 11.320312 13.335938 11.320312 13.335938 11.53125 13.125 C 11.796875 13.085938 11.796875 13.085938 12.09375 13.125 C 12.25 13.28125 12.402344 13.433594 12.5625 13.59375 C 12.59375 13.066406 12.625 12.542969 12.65625 12 C 12.398438 12.007812 12.136719 12.011719 11.871094 12.015625 C 9.867188 12.027344 7.992188 11.488281 6.210938 10.582031 C 6.132812 10.542969 6.058594 10.503906 5.980469 10.464844 C 5.910156 10.429688 5.839844 10.390625 5.765625 10.351562 C 5.707031 10.320312 5.644531 10.289062 5.582031 10.253906 C 5.378906 10.070312 5.382812 9.921875 5.34375 9.65625 C 5.335938 9.472656 5.332031 9.289062 5.332031 9.105469 C 5.332031 8.996094 5.332031 8.886719 5.332031 8.773438 C 5.332031 8.65625 5.332031 8.542969 5.335938 8.421875 C 5.335938 8.300781 5.335938 8.179688 5.335938 8.058594 C 5.335938 7.738281 5.335938 7.421875 5.335938 7.101562 C 5.339844 6.777344 5.339844 6.453125 5.339844 6.128906 C 5.339844 5.492188 5.34375 4.855469 5.34375 4.21875 C 4.507812 4.21875 3.671875 4.21875 2.8125 4.21875 C 4.511719 2.234375 6.484375 0.992188 9 0.28125 C 9.109375 0.25 9.21875 0.21875 9.335938 0.183594 C 12.800781 -0.636719 16.832031 0.273438 19.554688 2.5625 Z M 19.554688 2.5625 "/>
<path style=" stroke:none;fill-rule:nonzero;fill:rgb(94.901961%,0%,31.764707%);fill-opacity:1;" d="M 22.40625 6 C 22.777344 6.40625 22.960938 6.835938 23.15625 7.339844 C 23.203125 7.464844 23.203125 7.464844 23.253906 7.59375 C 24.410156 10.589844 24.3125 13.996094 23.0625 16.945312 C 21.742188 19.890625 19.28125 22.148438 16.285156 23.316406 C 15.9375 23.4375 15.9375 23.4375 15.65625 23.4375 C 15.65625 23.128906 15.65625 22.820312 15.65625 22.5 C 15.46875 22.5 15.285156 22.5 15.09375 22.5 C 15.09375 21.820312 15.09375 21.140625 15.09375 20.4375 C 14.753906 20.4375 14.414062 20.4375 14.0625 20.4375 C 14.0625 17.066406 14.0625 13.691406 14.0625 10.21875 C 14.09375 10.21875 14.125 10.21875 14.15625 10.21875 C 14.15625 10.746094 14.15625 11.269531 14.15625 11.8125 C 17.421875 11 20.070312 9.382812 21.984375 6.582031 C 22.121094 6.382812 22.261719 6.191406 22.40625 6 Z M 22.40625 6 "/>
<path style=" stroke:none;fill-rule:nonzero;fill:rgb(99.607843%,80.000001%,74.117649%);fill-opacity:1;" d="M 5.34375 4.6875 C 6.023438 4.6875 6.703125 4.6875 7.40625 4.6875 C 7.40625 5.058594 7.40625 5.429688 7.40625 5.8125 C 7.535156 5.8125 7.664062 5.8125 7.800781 5.8125 C 9.019531 5.804688 10.238281 5.800781 11.457031 5.796875 C 12.085938 5.796875 12.710938 5.792969 13.335938 5.789062 C 13.945312 5.789062 14.546875 5.785156 15.152344 5.785156 C 15.382812 5.785156 15.613281 5.785156 15.84375 5.78125 C 16.167969 5.78125 16.492188 5.78125 16.816406 5.78125 C 16.910156 5.78125 17.007812 5.777344 17.105469 5.777344 C 17.195312 5.777344 17.28125 5.777344 17.371094 5.777344 C 17.449219 5.777344 17.523438 5.777344 17.601562 5.777344 C 17.863281 5.820312 17.996094 5.917969 18.1875 6.09375 C 18.238281 6.277344 18.238281 6.277344 18.234375 6.46875 C 18.234375 6.5625 18.234375 6.5625 18.238281 6.660156 C 18.1875 6.84375 18.1875 6.84375 18.050781 6.992188 C 17.695312 7.191406 17.359375 7.171875 16.957031 7.171875 C 16.875 7.175781 16.789062 7.175781 16.707031 7.179688 C 16.441406 7.183594 16.175781 7.1875 15.914062 7.191406 C 15.734375 7.191406 15.554688 7.195312 15.375 7.199219 C 14.9375 7.207031 14.5 7.214844 14.0625 7.21875 C 14.152344 7.273438 14.242188 7.332031 14.332031 7.386719 C 14.625 7.59375 14.625 7.59375 14.8125 7.875 C 14.78125 8.1875 14.753906 8.308594 14.53125 8.53125 C 14.265625 8.546875 14.003906 8.554688 13.738281 8.558594 C 13.105469 8.582031 12.617188 8.65625 12.050781 8.976562 C 11.457031 9.269531 10.851562 9.316406 10.199219 9.316406 C 10.085938 9.316406 10.085938 9.316406 9.964844 9.316406 C 9.058594 9.300781 8.300781 9.039062 7.5 8.625 C 7.5 8.964844 7.5 9.304688 7.5 9.65625 C 6.789062 9.65625 6.078125 9.65625 5.34375 9.65625 C 5.34375 8.015625 5.34375 6.375 5.34375 4.6875 Z M 5.34375 4.6875 "/>
<path style=" stroke:none;fill-rule:nonzero;fill:rgb(99.607843%,79.215688%,73.725492%);fill-opacity:1;" d="M 13.6875 9.65625 C 13.890625 9.785156 13.890625 9.785156 14.0625 10.03125 C 14.117188 10.363281 14.109375 10.691406 14.105469 11.027344 C 14.105469 11.132812 14.105469 11.230469 14.105469 11.335938 C 14.105469 11.671875 14.101562 12.007812 14.097656 12.34375 C 14.097656 12.578125 14.097656 12.808594 14.097656 13.042969 C 14.097656 13.59375 14.09375 14.144531 14.089844 14.695312 C 14.085938 15.378906 14.082031 16.070312 14.082031 16.757812 C 14.078125 17.984375 14.070312 19.210938 14.0625 20.4375 C 14.402344 20.4375 14.742188 20.4375 15.09375 20.4375 C 15.09375 21.117188 15.09375 21.796875 15.09375 22.5 C 13.484375 22.5 11.875 22.5 10.21875 22.5 C 10.21875 21.820312 10.21875 21.140625 10.21875 20.4375 C 10.730469 20.390625 10.730469 20.390625 11.25 20.34375 C 11.203125 20.246094 11.203125 20.246094 11.15625 20.144531 C 11.113281 20.054688 11.070312 19.96875 11.027344 19.875 C 10.984375 19.789062 10.945312 19.699219 10.902344 19.613281 C 10.640625 18.964844 10.558594 18.378906 10.566406 17.691406 C 10.566406 17.609375 10.566406 17.53125 10.566406 17.453125 C 10.578125 16.796875 10.640625 16.167969 10.96875 15.585938 C 11.242188 15.089844 11.304688 14.6875 11.308594 14.121094 C 11.320312 13.335938 11.320312 13.335938 11.53125 13.125 C 11.792969 13.082031 11.792969 13.082031 12.09375 13.125 C 12.335938 13.328125 12.515625 13.5 12.65625 13.78125 C 12.65625 13.667969 12.65625 13.558594 12.660156 13.441406 C 12.664062 13.027344 12.667969 12.613281 12.675781 12.199219 C 12.679688 12.019531 12.679688 11.839844 12.679688 11.660156 C 12.683594 11.402344 12.6875 11.144531 12.691406 10.886719 C 12.691406 10.808594 12.691406 10.726562 12.691406 10.644531 C 12.707031 10.089844 12.707031 10.089844 12.921875 9.792969 C 13.199219 9.605469 13.359375 9.601562 13.6875 9.65625 Z M 13.6875 9.65625 "/>
<path style=" stroke:none;fill-rule:nonzero;fill:rgb(22.352941%,17.647059%,43.137255%);fill-opacity:1;" d="M 2.71875 4.21875 C 3.585938 4.21875 4.453125 4.21875 5.34375 4.21875 C 5.34375 6.167969 5.34375 8.117188 5.34375 10.125 C 3.609375 10.125 1.878906 10.125 0.09375 10.125 C 0.316406 8.800781 0.316406 8.800781 0.527344 8.179688 C 0.550781 8.109375 0.574219 8.039062 0.601562 7.964844 C 1.09375 6.566406 1.835938 5.398438 2.71875 4.21875 Z M 2.71875 4.21875 "/>
<path style=" stroke:none;fill-rule:nonzero;fill:rgb(98.431373%,72.549021%,66.274512%);fill-opacity:1;" d="M 5.34375 4.6875 C 5.375 4.6875 5.40625 4.6875 5.4375 4.6875 C 5.4375 6.296875 5.4375 7.90625 5.4375 9.5625 C 6.085938 9.5625 6.738281 9.5625 7.40625 9.5625 C 7.40625 9.421875 7.402344 9.28125 7.402344 9.136719 C 7.40625 8.464844 7.453125 7.792969 7.5 7.125 C 8.769531 7.125 10.035156 7.125 11.34375 7.125 C 11.34375 6.910156 11.34375 6.691406 11.34375 6.46875 C 13.601562 6.46875 15.859375 6.46875 18.1875 6.46875 C 18.15625 6.625 18.125 6.777344 18.09375 6.9375 C 17.8125 7.125 17.753906 7.148438 17.4375 7.15625 C 17.363281 7.15625 17.285156 7.160156 17.207031 7.160156 C 17.085938 7.164062 17.085938 7.164062 16.964844 7.164062 C 16.882812 7.164062 16.800781 7.167969 16.714844 7.167969 C 16.449219 7.175781 16.183594 7.179688 15.917969 7.183594 C 15.742188 7.1875 15.5625 7.191406 15.382812 7.195312 C 14.941406 7.203125 14.503906 7.210938 14.0625 7.21875 C 14.152344 7.273438 14.242188 7.332031 14.332031 7.386719 C 14.625 7.59375 14.625 7.59375 14.8125 7.875 C 14.78125 8.1875 14.753906 8.308594 14.53125 8.53125 C 14.265625 8.546875 14.003906 8.554688 13.738281 8.558594 C 13.105469 8.582031 12.617188 8.65625 12.050781 8.976562 C 11.457031 9.269531 10.851562 9.316406 10.199219 9.316406 C 10.085938 9.316406 10.085938 9.316406 9.964844 9.316406 C 9.058594 9.300781 8.300781 9.039062 7.5 8.625 C 7.5 8.964844 7.5 9.304688 7.5 9.65625 C 6.789062 9.65625 6.078125 9.65625 5.34375 9.65625 C 5.34375 8.015625 5.34375 6.375 5.34375 4.6875 Z M 5.34375 4.6875 "/>
<path style=" stroke:none;fill-rule:nonzero;fill:rgb(100%,74.117649%,66.274512%);fill-opacity:1;" d="M 13.40625 9.609375 C 13.6875 9.65625 13.6875 9.65625 13.890625 9.785156 C 14.160156 10.171875 14.109375 10.558594 14.105469 11.019531 C 14.105469 11.121094 14.105469 11.222656 14.105469 11.324219 C 14.105469 11.65625 14.101562 11.992188 14.097656 12.324219 C 14.097656 12.554688 14.097656 12.785156 14.097656 13.015625 C 14.097656 13.621094 14.09375 14.230469 14.085938 14.835938 C 14.085938 15.457031 14.082031 16.078125 14.082031 16.695312 C 14.078125 17.910156 14.070312 19.128906 14.0625 20.34375 C 13.597656 20.34375 13.132812 20.34375 12.65625 20.34375 C 12.636719 14.089844 12.636719 14.089844 12.675781 11.875 C 12.679688 11.707031 12.679688 11.542969 12.679688 11.378906 C 12.683594 11.15625 12.6875 10.929688 12.691406 10.707031 C 12.695312 10.582031 12.695312 10.460938 12.699219 10.335938 C 12.773438 9.882812 12.953125 9.683594 13.40625 9.609375 Z M 13.40625 9.609375 "/>
<path style=" stroke:none;fill-rule:nonzero;fill:rgb(27.058825%,22.745098%,51.764709%);fill-opacity:1;" d="M 4.066406 4.171875 C 4.699219 4.195312 4.699219 4.195312 5.34375 4.21875 C 5.34375 5.179688 5.34375 6.136719 5.34375 7.125 C 3.921875 7.125 2.496094 7.125 1.03125 7.125 C 1.242188 6.386719 1.242188 6.386719 1.421875 6.101562 C 1.480469 6.007812 1.480469 6.007812 1.539062 5.914062 C 1.582031 5.851562 1.621094 5.789062 1.664062 5.722656 C 1.703125 5.664062 1.742188 5.601562 1.78125 5.535156 C 1.863281 5.410156 1.945312 5.285156 2.03125 5.160156 C 2.160156 4.96875 2.160156 4.96875 2.265625 4.757812 C 2.683594 4.027344 3.296875 4.132812 4.066406 4.171875 Z M 4.066406 4.171875 "/>
<path style=" stroke:none;fill-rule:nonzero;fill:rgb(89.411765%,94.117647%,97.254902%);fill-opacity:1;" d="M 10.21875 20.4375 C 11.828125 20.4375 13.4375 20.4375 15.09375 20.4375 C 15.09375 21.117188 15.09375 21.796875 15.09375 22.5 C 13.484375 22.5 11.875 22.5 10.21875 22.5 C 10.21875 21.820312 10.21875 21.140625 10.21875 20.4375 Z M 10.21875 20.4375 "/>
<path style=" stroke:none;fill-rule:nonzero;fill:rgb(89.411765%,94.117647%,97.254902%);fill-opacity:1;" d="M 5.4375 4.6875 C 6.085938 4.6875 6.738281 4.6875 7.40625 4.6875 C 7.40625 6.296875 7.40625 7.90625 7.40625 9.5625 C 6.757812 9.5625 6.105469 9.5625 5.4375 9.5625 C 5.4375 7.953125 5.4375 6.34375 5.4375 4.6875 Z M 5.4375 4.6875 "/>
<path style=" stroke:none;fill-rule:nonzero;fill:rgb(27.450982%,23.137255%,51.372552%);fill-opacity:1;" d="M 9.75 22.5 C 11.699219 22.5 13.648438 22.5 15.65625 22.5 C 15.65625 22.839844 15.65625 23.179688 15.65625 23.53125 C 15.421875 23.59375 15.183594 23.652344 14.949219 23.714844 C 14.882812 23.730469 14.816406 23.746094 14.746094 23.765625 C 14.679688 23.78125 14.617188 23.796875 14.546875 23.816406 C 14.488281 23.832031 14.429688 23.84375 14.367188 23.859375 C 13.84375 23.972656 13.335938 24.011719 12.800781 24.011719 C 12.707031 24.011719 12.707031 24.011719 12.609375 24.011719 C 12.472656 24.011719 12.339844 24.011719 12.203125 24.011719 C 12 24.011719 11.796875 24.011719 11.59375 24.011719 C 11.460938 24.011719 11.328125 24.011719 11.199219 24.011719 C 11.078125 24.011719 10.960938 24.011719 10.839844 24.011719 C 9.917969 23.980469 9.917969 23.980469 9.75 23.8125 C 9.75 23.378906 9.75 22.945312 9.75 22.5 Z M 9.75 22.5 "/>
<path style=" stroke:none;fill-rule:nonzero;fill:rgb(81.568629%,90.588236%,99.607843%);fill-opacity:1;" d="M 12.75 20.4375 C 13.523438 20.4375 14.296875 20.4375 15.09375 20.4375 C 15.09375 21.117188 15.09375 21.796875 15.09375 22.5 C 14.320312 22.5 13.546875 22.5 12.75 22.5 C 12.75 21.820312 12.75 21.140625 12.75 20.4375 Z M 12.75 20.4375 "/>
<path style=" stroke:none;fill-rule:nonzero;fill:rgb(81.568629%,90.980393%,100%);fill-opacity:1;" d="M 5.4375 7.21875 C 6.085938 7.21875 6.738281 7.21875 7.40625 7.21875 C 7.40625 7.992188 7.40625 8.765625 7.40625 9.5625 C 6.757812 9.5625 6.105469 9.5625 5.4375 9.5625 C 5.4375 8.789062 5.4375 8.015625 5.4375 7.21875 Z M 5.4375 7.21875 "/>
<path style=" stroke:none;fill-rule:nonzero;fill:rgb(99.607843%,64.705884%,54.901963%);fill-opacity:1;" d="M 13.6875 9.65625 C 13.59375 9.6875 13.5 9.71875 13.40625 9.75 C 13.40625 11.976562 13.40625 14.203125 13.40625 16.5 C 13.191406 16.5 12.972656 16.5 12.75 16.5 C 12.664062 15.042969 12.644531 13.589844 12.667969 12.132812 C 12.671875 11.953125 12.675781 11.777344 12.675781 11.597656 C 12.679688 11.34375 12.683594 11.09375 12.691406 10.839844 C 12.691406 10.765625 12.691406 10.6875 12.691406 10.609375 C 12.703125 10.273438 12.722656 10.070312 12.921875 9.796875 C 13.1875 9.613281 13.371094 9.628906 13.6875 9.65625 Z M 13.6875 9.65625 "/>
<path style=" stroke:none;fill-rule:nonzero;fill:rgb(100%,64.705884%,54.901963%);fill-opacity:1;" d="M 11.34375 6.46875 C 13.601562 6.46875 15.859375 6.46875 18.1875 6.46875 C 18.15625 6.625 18.125 6.777344 18.09375 6.9375 C 17.804688 7.128906 17.738281 7.148438 17.410156 7.15625 C 17.328125 7.160156 17.246094 7.160156 17.160156 7.164062 C 17.074219 7.164062 16.984375 7.164062 16.894531 7.167969 C 16.800781 7.167969 16.710938 7.171875 16.613281 7.171875 C 16.417969 7.175781 16.21875 7.179688 16.023438 7.183594 C 15.726562 7.191406 15.433594 7.195312 15.140625 7.203125 C 13.871094 7.230469 12.609375 7.199219 11.34375 7.125 C 11.34375 6.910156 11.34375 6.691406 11.34375 6.46875 Z M 11.34375 6.46875 "/>
<path style=" stroke:none;fill-rule:nonzero;fill:rgb(22.745098%,17.647059%,42.745098%);fill-opacity:1;" d="M 12.75 22.5 C 13.710938 22.5 14.667969 22.5 15.65625 22.5 C 15.65625 22.839844 15.65625 23.179688 15.65625 23.53125 C 15.421875 23.59375 15.183594 23.652344 14.949219 23.714844 C 14.882812 23.730469 14.816406 23.746094 14.746094 23.765625 C 14.179688 23.90625 13.625 24.015625 13.035156 24.003906 C 12.964844 24.003906 12.890625 24.003906 12.816406 24.003906 C 12.765625 24 12.710938 24 12.65625 24 C 12.652344 23.804688 12.652344 23.605469 12.652344 23.410156 C 12.648438 23.296875 12.648438 23.1875 12.648438 23.074219 C 12.65625 22.78125 12.65625 22.78125 12.75 22.5 Z M 12.75 22.5 "/>
</g>
</svg>
