<?xml version="1.0" encoding="UTF-8"?>
<svg xmlns="http://www.w3.org/2000/svg" xmlns:xlink="http://www.w3.org/1999/xlink" width="24" height="24" viewBox="0 0 24 24" version="1.1">
<g id="surface1">
<path style=" stroke:none;fill-rule:nonzero;fill:rgb(94.509804%,38.039216%,38.039216%);fill-opacity:1;" d="M 9.539062 7.523438 C 10.761719 8.5 11.617188 9.792969 11.90625 11.34375 C 12.269531 14.800781 9.808594 18.144531 7.875 20.8125 C 7.996094 20.855469 7.996094 20.855469 8.117188 20.894531 C 9.527344 21.402344 9.527344 21.402344 9.84375 22.03125 C 9.910156 22.691406 9.910156 22.691406 9.664062 23.035156 C 8.539062 23.878906 7.351562 24.050781 5.964844 24.042969 C 5.847656 24.039062 5.726562 24.039062 5.601562 24.039062 C 4.378906 24.019531 3.242188 23.847656 2.25 23.0625 C 2.019531 22.714844 1.988281 22.433594 2.0625 22.03125 C 2.507812 21.304688 3.261719 21.085938 4.03125 20.8125 C 3.984375 20.746094 3.933594 20.679688 3.886719 20.609375 C -0.449219 14.4375 -0.449219 14.4375 0.0273438 11.144531 C 0.339844 9.589844 1.316406 8.285156 2.585938 7.363281 C 4.722656 6.015625 7.480469 6.023438 9.539062 7.523438 Z M 3.25 10.148438 C 2.664062 10.839844 2.398438 11.691406 2.410156 12.59375 C 2.515625 13.597656 2.910156 14.386719 3.644531 15.070312 C 4.394531 15.675781 5.320312 16 6.28125 15.9375 C 7.269531 15.757812 8.121094 15.347656 8.761719 14.558594 C 9.285156 13.78125 9.566406 12.9375 9.46875 12 C 9.226562 10.863281 8.730469 10.054688 7.78125 9.375 C 6.191406 8.496094 4.484375 8.859375 3.25 10.148438 Z M 3.25 10.148438 "/>
<path style=" stroke:none;fill-rule:nonzero;fill:rgb(7.058824%,72.549021%,46.27451%);fill-opacity:1;" d="M 22.769531 0.574219 C 23.359375 1.011719 23.855469 1.808594 24 2.53125 C 24.210938 4.550781 23.011719 6.261719 21.9375 7.875 C 21.988281 7.90625 22.042969 7.9375 22.09375 7.96875 C 22.164062 8.011719 22.230469 8.054688 22.300781 8.097656 C 22.367188 8.140625 22.4375 8.179688 22.503906 8.222656 C 22.6875 8.34375 22.6875 8.34375 22.875 8.53125 C 22.917969 8.855469 22.921875 9.027344 22.734375 9.300781 C 21.957031 9.863281 20.988281 9.90625 20.0625 9.84375 C 18.824219 9.640625 18.824219 9.640625 18.46875 9.1875 C 18.40625 8.863281 18.40625 8.863281 18.46875 8.53125 C 18.753906 8.238281 19.039062 8.050781 19.40625 7.875 C 19.359375 7.804688 19.359375 7.804688 19.316406 7.734375 C 16.996094 4.171875 16.996094 4.171875 17.34375 2.4375 C 17.695312 1.292969 18.429688 0.652344 19.453125 0.105469 C 20.578125 -0.269531 21.78125 -0.0234375 22.769531 0.574219 Z M 19.230469 2.15625 C 18.824219 2.726562 18.78125 3.148438 18.84375 3.84375 C 19.011719 4.390625 19.421875 4.730469 19.875 5.0625 C 20.367188 5.226562 20.917969 5.261719 21.410156 5.066406 C 21.933594 4.753906 22.335938 4.351562 22.5 3.75 C 22.578125 3.136719 22.484375 2.660156 22.125 2.15625 C 21.714844 1.714844 21.289062 1.496094 20.6875 1.464844 C 20.089844 1.480469 19.621094 1.703125 19.230469 2.15625 Z M 19.230469 2.15625 "/>
<path style=" stroke:none;fill-rule:nonzero;fill:rgb(3.529412%,1.960784%,1.176471%);fill-opacity:1;" d="M 9.539062 7.523438 C 10.761719 8.5 11.617188 9.792969 11.90625 11.34375 C 12.269531 14.800781 9.808594 18.144531 7.875 20.8125 C 7.996094 20.855469 7.996094 20.855469 8.117188 20.894531 C 9.527344 21.402344 9.527344 21.402344 9.84375 22.03125 C 9.910156 22.691406 9.910156 22.691406 9.664062 23.035156 C 8.539062 23.878906 7.351562 24.050781 5.964844 24.042969 C 5.847656 24.039062 5.726562 24.039062 5.601562 24.039062 C 4.378906 24.019531 3.242188 23.847656 2.25 23.0625 C 2.019531 22.714844 1.988281 22.433594 2.0625 22.03125 C 2.507812 21.304688 3.261719 21.085938 4.03125 20.8125 C 3.984375 20.746094 3.933594 20.679688 3.886719 20.609375 C -0.449219 14.4375 -0.449219 14.4375 0.0273438 11.144531 C 0.339844 9.589844 1.316406 8.285156 2.585938 7.363281 C 4.722656 6.015625 7.480469 6.023438 9.539062 7.523438 Z M 3.65625 7.125 C 3.5625 7.171875 3.46875 7.21875 3.371094 7.265625 C 1.871094 8.078125 0.863281 9.324219 0.359375 10.949219 C -0.0117188 12.855469 0.597656 14.460938 1.488281 16.113281 C 1.597656 16.324219 1.707031 16.535156 1.820312 16.742188 C 2.5 18.035156 3.296875 19.238281 4.125 20.4375 C 4.210938 20.5625 4.210938 20.5625 4.292969 20.6875 C 4.445312 20.910156 4.597656 21.128906 4.75 21.351562 C 4.796875 21.417969 4.839844 21.480469 4.886719 21.546875 C 5.128906 21.890625 5.359375 22.171875 5.71875 22.40625 C 6.046875 22.445312 6.046875 22.445312 6.375 22.3125 C 6.882812 21.851562 7.257812 21.21875 7.648438 20.660156 C 7.710938 20.566406 7.777344 20.472656 7.84375 20.371094 C 10.867188 16.121094 10.867188 16.121094 11.582031 11.136719 C 11.1875 9.550781 10.195312 8.257812 8.8125 7.40625 C 7.3125 6.625 5.214844 6.328125 3.65625 7.125 Z M 3.65625 7.125 "/>
<path style=" stroke:none;fill-rule:nonzero;fill:rgb(0.784314%,2.745098%,1.960784%);fill-opacity:1;" d="M 22.769531 0.574219 C 23.359375 1.011719 23.855469 1.808594 24 2.53125 C 24.210938 4.550781 23.011719 6.261719 21.9375 7.875 C 21.988281 7.90625 22.042969 7.9375 22.09375 7.96875 C 22.164062 8.011719 22.230469 8.054688 22.300781 8.097656 C 22.367188 8.140625 22.4375 8.179688 22.503906 8.222656 C 22.6875 8.34375 22.6875 8.34375 22.875 8.53125 C 22.917969 8.855469 22.921875 9.027344 22.734375 9.300781 C 21.957031 9.863281 20.988281 9.90625 20.0625 9.84375 C 18.824219 9.640625 18.824219 9.640625 18.46875 9.1875 C 18.40625 8.863281 18.40625 8.863281 18.46875 8.53125 C 18.753906 8.238281 19.039062 8.050781 19.40625 7.875 C 19.359375 7.804688 19.359375 7.804688 19.316406 7.734375 C 16.996094 4.171875 16.996094 4.171875 17.34375 2.4375 C 17.695312 1.292969 18.429688 0.652344 19.453125 0.105469 C 20.578125 -0.269531 21.78125 -0.0234375 22.769531 0.574219 Z M 18.152344 1.46875 C 17.601562 2.253906 17.457031 3.085938 17.625 4.03125 C 17.777344 4.53125 18.027344 4.980469 18.28125 5.4375 C 18.324219 5.527344 18.371094 5.613281 18.417969 5.707031 C 19.296875 7.5 19.296875 7.5 20.644531 8.785156 C 20.699219 8.796875 20.753906 8.804688 20.8125 8.8125 C 21.882812 7.585938 22.71875 6.140625 23.4375 4.6875 C 23.472656 4.621094 23.507812 4.554688 23.546875 4.484375 C 23.863281 3.796875 23.839844 2.925781 23.621094 2.21875 C 23.25 1.402344 22.691406 0.8125 21.882812 0.421875 C 20.484375 -0.0625 19.078125 0.304688 18.152344 1.46875 Z M 18.152344 1.46875 "/>
<path style=" stroke:none;fill-rule:nonzero;fill:rgb(98.039216%,79.215688%,15.686275%);fill-opacity:1;" d="M 4.5 21.28125 C 4.664062 21.46875 4.800781 21.640625 4.941406 21.84375 C 5.183594 22.226562 5.183594 22.226562 5.53125 22.5 C 5.953125 22.558594 6.269531 22.578125 6.621094 22.316406 C 6.75 22.152344 6.875 21.984375 6.992188 21.808594 C 7.148438 21.582031 7.300781 21.378906 7.5 21.1875 C 8.171875 21.109375 8.8125 21.496094 9.375 21.84375 C 9.5625 22.125 9.5625 22.125 9.558594 22.449219 C 9.449219 22.855469 9.339844 22.921875 9 23.15625 C 8.714844 23.292969 8.714844 23.292969 8.410156 23.410156 C 8.308594 23.445312 8.207031 23.484375 8.105469 23.527344 C 6.578125 23.992188 4.410156 23.949219 2.988281 23.203125 C 2.738281 23.058594 2.53125 22.910156 2.34375 22.6875 C 2.296875 22.417969 2.296875 22.417969 2.34375 22.125 C 2.71875 21.636719 3.234375 21.378906 3.816406 21.207031 C 4.078125 21.183594 4.246094 21.195312 4.5 21.28125 Z M 4.5 21.28125 "/>
<path style=" stroke:none;fill-rule:nonzero;fill:rgb(4.313726%,1.568628%,1.568628%);fill-opacity:1;" d="M 7.921875 9.125 C 8.84375 9.691406 9.457031 10.523438 9.714844 11.578125 C 9.863281 12.550781 9.746094 13.574219 9.21875 14.414062 C 8.632812 15.207031 8.054688 15.6875 7.125 16.03125 C 7.035156 16.066406 6.941406 16.101562 6.847656 16.136719 C 5.960938 16.394531 5.042969 16.226562 4.21875 15.84375 C 3.945312 15.679688 3.707031 15.492188 3.46875 15.28125 C 3.347656 15.171875 3.347656 15.171875 3.222656 15.066406 C 2.417969 14.15625 2.121094 13.289062 2.136719 12.078125 C 2.210938 11.082031 2.6875 10.203125 3.410156 9.527344 C 4.730469 8.425781 6.40625 8.320312 7.921875 9.125 Z M 3.25 10.148438 C 2.664062 10.839844 2.398438 11.691406 2.410156 12.59375 C 2.515625 13.597656 2.910156 14.386719 3.644531 15.070312 C 4.394531 15.675781 5.320312 16 6.28125 15.9375 C 7.269531 15.757812 8.121094 15.34375 8.761719 14.558594 C 9.285156 13.78125 9.566406 12.9375 9.46875 12 C 9.226562 10.863281 8.730469 10.054688 7.78125 9.375 C 6.191406 8.496094 4.484375 8.859375 3.25 10.148438 Z M 3.25 10.148438 "/>
<path style=" stroke:none;fill-rule:nonzero;fill:rgb(6.666667%,66.274512%,42.745098%);fill-opacity:1;" d="M 21.1875 0.28125 C 22.21875 0.523438 22.871094 0.980469 23.4375 1.875 C 23.820312 2.5 23.835938 3.226562 23.71875 3.9375 C 23.574219 4.46875 23.320312 4.953125 23.0625 5.4375 C 23.027344 5.503906 22.992188 5.566406 22.957031 5.632812 C 22.363281 6.71875 21.691406 7.933594 20.8125 8.8125 C 20.613281 8.777344 20.613281 8.777344 20.4375 8.71875 C 20.4375 8.363281 20.53125 8.285156 20.746094 8.011719 C 22.503906 5.664062 22.503906 5.664062 23.0625 2.90625 C 22.898438 2.054688 22.53125 1.335938 21.824219 0.808594 C 21.765625 0.765625 21.703125 0.726562 21.640625 0.683594 C 21.46875 0.5625 21.332031 0.433594 21.1875 0.28125 Z M 21.1875 0.28125 "/>
<path style=" stroke:none;fill-rule:nonzero;fill:rgb(0%,2.745098%,1.568628%);fill-opacity:1;" d="M 21.550781 1.324219 C 22.148438 1.65625 22.5625 2.058594 22.78125 2.71875 C 22.863281 3.5 22.789062 4.136719 22.3125 4.78125 C 21.6875 5.386719 21.136719 5.484375 20.28125 5.472656 C 19.617188 5.394531 19.195312 5.003906 18.789062 4.492188 C 18.4375 3.914062 18.457031 3.253906 18.609375 2.609375 C 18.808594 2.085938 19.164062 1.65625 19.640625 1.371094 C 20.246094 1.101562 20.9375 1.085938 21.550781 1.324219 Z M 19.230469 2.15625 C 18.828125 2.726562 18.78125 3.148438 18.84375 3.84375 C 19.011719 4.390625 19.421875 4.730469 19.875 5.0625 C 20.367188 5.226562 20.921875 5.261719 21.410156 5.066406 C 21.933594 4.753906 22.335938 4.351562 22.5 3.75 C 22.578125 3.140625 22.484375 2.660156 22.125 2.15625 C 21.714844 1.714844 21.289062 1.496094 20.6875 1.464844 C 20.09375 1.480469 19.625 1.703125 19.230469 2.15625 Z M 19.230469 2.15625 "/>
<path style=" stroke:none;fill-rule:nonzero;fill:rgb(90.588236%,89.803922%,89.803922%);fill-opacity:1;" d="M 19.875 8.34375 C 19.949219 8.4375 20.023438 8.53125 20.097656 8.628906 C 20.320312 8.933594 20.320312 8.933594 20.671875 8.980469 C 21.03125 8.898438 21.070312 8.859375 21.277344 8.578125 C 21.34375 8.46875 21.40625 8.359375 21.46875 8.25 C 21.917969 8.292969 22.222656 8.367188 22.59375 8.625 C 22.59375 8.835938 22.59375 8.835938 22.5 9.09375 C 21.75 9.625 20.851562 9.632812 19.96875 9.5625 C 19.519531 9.449219 19.082031 9.332031 18.75 9 C 18.75 8.769531 18.75 8.769531 18.84375 8.53125 C 19.203125 8.285156 19.464844 8.164062 19.875 8.34375 Z M 19.875 8.34375 "/>
<path style=" stroke:none;fill-rule:nonzero;fill:rgb(98.039216%,62.352943%,62.352943%);fill-opacity:1;" d="M 2.601562 8.589844 C 2.8125 8.625 2.8125 8.625 2.90625 8.71875 C 2.949219 9.035156 2.917969 9.167969 2.753906 9.441406 C 2.652344 9.570312 2.652344 9.570312 2.550781 9.703125 C 2.351562 9.960938 2.167969 10.199219 2.011719 10.484375 C 1.964844 10.550781 1.921875 10.617188 1.875 10.6875 C 1.574219 10.71875 1.574219 10.71875 1.3125 10.6875 C 1.226562 10.351562 1.195312 10.179688 1.335938 9.859375 C 2.160156 8.648438 2.160156 8.648438 2.601562 8.589844 Z M 2.601562 8.589844 "/>
<path style=" stroke:none;fill-rule:nonzero;fill:rgb(0.784314%,0.784314%,0.784314%);fill-opacity:1;" d="M 15.09375 8.8125 C 15.277344 8.964844 15.277344 8.964844 15.375 9.1875 C 15.382812 9.589844 15.308594 9.722656 15.027344 10.019531 C 14.691406 10.234375 14.546875 10.289062 14.15625 10.21875 C 13.972656 10.121094 13.972656 10.121094 13.875 9.9375 C 13.867188 9.5 13.921875 9.328125 14.222656 9.003906 C 14.558594 8.796875 14.707031 8.734375 15.09375 8.8125 Z M 15.09375 8.8125 "/>
<path style=" stroke:none;fill-rule:nonzero;fill:rgb(0%,0%,0%);fill-opacity:1;" d="M 16.96875 8.34375 C 17.207031 8.449219 17.207031 8.449219 17.34375 8.625 C 17.386719 8.917969 17.40625 9.097656 17.234375 9.34375 C 17 9.515625 16.835938 9.507812 16.546875 9.503906 C 16.457031 9.503906 16.367188 9.503906 16.273438 9.507812 C 16.03125 9.46875 16.03125 9.46875 15.859375 9.34375 C 15.6875 9.097656 15.707031 8.917969 15.75 8.625 C 16.046875 8.238281 16.523438 8.285156 16.96875 8.34375 Z M 16.96875 8.34375 "/>
<path style=" stroke:none;fill-rule:nonzero;fill:rgb(0.784314%,0.784314%,0.784314%);fill-opacity:1;" d="M 20.625 21.09375 C 20.8125 21.28125 20.8125 21.28125 20.863281 21.589844 C 20.808594 21.960938 20.796875 22 20.519531 22.214844 C 20.203125 22.40625 19.96875 22.476562 19.59375 22.40625 C 19.417969 22.300781 19.417969 22.300781 19.3125 22.125 C 19.253906 21.855469 19.253906 21.855469 19.3125 21.5625 C 19.679688 21.144531 20.070312 21.019531 20.625 21.09375 Z M 20.625 21.09375 "/>
<path style=" stroke:none;fill-rule:nonzero;fill:rgb(0.784314%,0.784314%,0.784314%);fill-opacity:1;" d="M 21.734375 19.511719 C 21.878906 19.550781 21.878906 19.550781 22.03125 19.59375 C 22.167969 19.867188 22.25 20.058594 22.15625 20.355469 C 21.898438 20.878906 21.898438 20.878906 21.65625 21 C 21.328125 21.023438 21.328125 21.023438 21 21 C 20.8125 20.71875 20.8125 20.71875 20.820312 20.40625 C 20.953125 19.878906 21.125 19.492188 21.734375 19.511719 Z M 21.734375 19.511719 "/>
<path style=" stroke:none;fill-rule:nonzero;fill:rgb(0.784314%,0.784314%,0.784314%);fill-opacity:1;" d="M 20.074219 14.023438 C 20.496094 14.070312 20.667969 14.175781 20.96875 14.464844 C 21.09375 14.625 21.09375 14.625 21.164062 14.921875 C 21.09375 15.1875 21.09375 15.1875 20.894531 15.375 C 20.625 15.46875 20.625 15.46875 20.34375 15.421875 C 20.011719 15.253906 19.816406 15.113281 19.59375 14.8125 C 19.617188 14.085938 19.617188 14.085938 20.074219 14.023438 Z M 20.074219 14.023438 "/>
<path style=" stroke:none;fill-rule:nonzero;fill:rgb(0.784314%,0.784314%,0.784314%);fill-opacity:1;" d="M 21.5 15.527344 C 21.84375 15.5625 21.84375 15.5625 22.066406 15.75 C 22.265625 16.121094 22.304688 16.359375 22.3125 16.78125 C 22.210938 16.96875 22.210938 16.96875 22.03125 17.0625 C 21.761719 17.125 21.761719 17.125 21.46875 17.0625 C 21.246094 16.839844 21.109375 16.605469 21 16.3125 C 21.023438 15.582031 21.023438 15.582031 21.5 15.527344 Z M 21.5 15.527344 "/>
<path style=" stroke:none;fill-rule:nonzero;fill:rgb(0.784314%,0.784314%,0.784314%);fill-opacity:1;" d="M 18.367188 13.371094 C 18.488281 13.371094 18.488281 13.371094 18.613281 13.371094 C 18.890625 13.414062 19.019531 13.488281 19.21875 13.6875 C 19.257812 14.023438 19.257812 14.023438 19.21875 14.34375 C 18.871094 14.574219 18.695312 14.558594 18.28125 14.53125 C 17.988281 14.441406 17.84375 14.375 17.625 14.15625 C 17.59375 13.894531 17.578125 13.75 17.738281 13.535156 C 17.957031 13.367188 18.09375 13.367188 18.367188 13.371094 Z M 18.367188 13.371094 "/>
<path style=" stroke:none;fill-rule:nonzero;fill:rgb(1.176471%,1.176471%,1.176471%);fill-opacity:1;" d="M 14.625 12.46875 C 14.863281 12.621094 15.035156 12.789062 15.1875 13.03125 C 15.234375 13.382812 15.234375 13.382812 15.1875 13.6875 C 15 13.875 15 13.875 14.695312 13.921875 C 14.289062 13.867188 14.148438 13.773438 13.882812 13.472656 C 13.722656 13.21875 13.722656 13.039062 13.78125 12.75 C 13.988281 12.402344 14.25 12.402344 14.625 12.46875 Z M 14.625 12.46875 "/>
<path style=" stroke:none;fill-rule:nonzero;fill:rgb(1.568628%,1.568628%,1.568628%);fill-opacity:1;" d="M 13.886719 10.507812 C 14.15625 10.59375 14.15625 10.59375 14.269531 10.757812 C 14.359375 11.011719 14.351562 11.183594 14.320312 11.449219 C 14.3125 11.53125 14.304688 11.613281 14.296875 11.695312 C 14.25 11.90625 14.25 11.90625 14.0625 12.09375 C 13.734375 12.117188 13.734375 12.117188 13.40625 12.09375 C 13.15625 11.84375 13.1875 11.699219 13.183594 11.351562 C 13.179688 11.25 13.179688 11.152344 13.175781 11.046875 C 13.21875 10.78125 13.21875 10.78125 13.390625 10.605469 C 13.59375 10.5 13.59375 10.5 13.886719 10.507812 Z M 13.886719 10.507812 "/>
<path style=" stroke:none;fill-rule:nonzero;fill:rgb(1.176471%,1.176471%,1.176471%);fill-opacity:1;" d="M 22.078125 17.507812 C 22.40625 17.53125 22.40625 17.53125 22.59375 17.71875 C 22.621094 17.972656 22.621094 17.972656 22.621094 18.277344 C 22.625 18.375 22.625 18.472656 22.628906 18.578125 C 22.59375 18.84375 22.59375 18.84375 22.472656 19.019531 C 22.3125 19.125 22.3125 19.125 21.972656 19.101562 C 21.65625 19.03125 21.65625 19.03125 21.5625 18.9375 C 21.550781 18.738281 21.546875 18.535156 21.542969 18.332031 C 21.542969 18.222656 21.542969 18.113281 21.539062 18 C 21.574219 17.582031 21.664062 17.539062 22.078125 17.507812 Z M 22.078125 17.507812 "/>
<path style=" stroke:none;fill-rule:nonzero;fill:rgb(1.568628%,1.568628%,1.568628%);fill-opacity:1;" d="M 18.195312 21.8125 C 18.34375 21.8125 18.34375 21.8125 18.496094 21.808594 C 18.578125 21.820312 18.664062 21.832031 18.75 21.84375 C 18.953125 22.148438 18.980469 22.242188 18.9375 22.59375 C 18.832031 22.746094 18.832031 22.746094 18.65625 22.875 C 18.390625 22.910156 18.390625 22.910156 18.089844 22.902344 C 17.988281 22.902344 17.890625 22.902344 17.785156 22.902344 C 17.53125 22.875 17.53125 22.875 17.34375 22.6875 C 17.3125 22.359375 17.3125 22.359375 17.34375 22.03125 C 17.667969 21.816406 17.8125 21.816406 18.195312 21.8125 Z M 18.195312 21.8125 "/>
<path style=" stroke:none;fill-rule:nonzero;fill:rgb(1.960784%,1.960784%,1.960784%);fill-opacity:1;" d="M 13.960938 21.808594 C 14.113281 21.804688 14.113281 21.804688 14.265625 21.800781 C 14.53125 21.84375 14.53125 21.84375 14.707031 22.019531 C 14.8125 22.21875 14.8125 22.21875 14.796875 22.464844 C 14.71875 22.6875 14.71875 22.6875 14.53125 22.875 C 14.277344 22.90625 14.277344 22.90625 13.972656 22.910156 C 13.875 22.914062 13.773438 22.914062 13.671875 22.917969 C 13.40625 22.875 13.40625 22.875 13.230469 22.699219 C 13.125 22.5 13.125 22.5 13.140625 22.253906 C 13.296875 21.800781 13.523438 21.8125 13.960938 21.808594 Z M 13.960938 21.808594 "/>
<path style=" stroke:none;fill-rule:nonzero;fill:rgb(1.176471%,1.176471%,1.176471%);fill-opacity:1;" d="M 16.351562 13.390625 C 16.519531 13.386719 16.519531 13.386719 16.6875 13.386719 C 16.96875 13.40625 16.96875 13.40625 17.15625 13.59375 C 17.1875 13.921875 17.1875 13.921875 17.15625 14.25 C 16.84375 14.457031 16.726562 14.464844 16.359375 14.46875 C 16.269531 14.46875 16.179688 14.46875 16.085938 14.472656 C 15.84375 14.4375 15.84375 14.4375 15.667969 14.316406 C 15.5625 14.15625 15.5625 14.15625 15.585938 13.816406 C 15.699219 13.296875 15.851562 13.390625 16.351562 13.390625 Z M 16.351562 13.390625 "/>
<path style=" stroke:none;fill-rule:nonzero;fill:rgb(1.960784%,1.960784%,1.960784%);fill-opacity:1;" d="M 16.023438 21.808594 C 16.175781 21.804688 16.175781 21.804688 16.328125 21.800781 C 16.59375 21.84375 16.59375 21.84375 16.769531 22.019531 C 16.875 22.21875 16.875 22.21875 16.859375 22.464844 C 16.78125 22.6875 16.78125 22.6875 16.59375 22.875 C 16.335938 22.898438 16.335938 22.898438 16.03125 22.898438 C 15.878906 22.898438 15.878906 22.898438 15.726562 22.898438 C 15.46875 22.875 15.46875 22.875 15.28125 22.6875 C 15.257812 22.359375 15.257812 22.359375 15.28125 22.03125 C 15.53125 21.78125 15.675781 21.8125 16.023438 21.808594 Z M 16.023438 21.808594 "/>
<path style=" stroke:none;fill-rule:nonzero;fill:rgb(1.960784%,1.960784%,1.960784%);fill-opacity:1;" d="M 11.898438 21.804688 C 12 21.800781 12.097656 21.796875 12.203125 21.792969 C 12.46875 21.84375 12.46875 21.84375 12.648438 22.0625 C 12.75 22.3125 12.75 22.3125 12.679688 22.570312 C 12.5625 22.78125 12.5625 22.78125 12.46875 22.875 C 12.285156 22.890625 12.101562 22.902344 11.917969 22.90625 C 11.816406 22.90625 11.71875 22.910156 11.613281 22.914062 C 11.34375 22.875 11.34375 22.875 11.167969 22.699219 C 11.0625 22.5 11.0625 22.5 11.078125 22.253906 C 11.234375 21.804688 11.460938 21.8125 11.898438 21.804688 Z M 11.898438 21.804688 "/>
<path style=" stroke:none;fill-rule:nonzero;fill:rgb(7.843138%,4.705882%,1.960784%);fill-opacity:1;" d="M 7.125 21.28125 C 7.1875 21.28125 7.25 21.28125 7.3125 21.28125 C 7.253906 21.625 7.109375 21.828125 6.894531 22.097656 C 6.839844 22.171875 6.78125 22.242188 6.722656 22.320312 C 6.542969 22.519531 6.453125 22.585938 6.1875 22.617188 C 5.824219 22.628906 5.59375 22.628906 5.273438 22.449219 C 4.59375 21.710938 4.59375 21.710938 4.59375 21.375 C 4.84375 21.410156 4.945312 21.4375 5.105469 21.636719 C 5.148438 21.707031 5.1875 21.773438 5.230469 21.84375 C 5.445312 22.144531 5.503906 22.210938 5.863281 22.335938 C 6.265625 22.308594 6.378906 22.226562 6.65625 21.9375 C 6.742188 21.820312 6.824219 21.703125 6.910156 21.585938 C 6.980469 21.484375 7.050781 21.382812 7.125 21.28125 Z M 7.125 21.28125 "/>
<path style=" stroke:none;fill-rule:nonzero;fill:rgb(37.64706%,37.64706%,37.64706%);fill-opacity:1;" d="M 16.695312 8.601562 C 16.875 8.625 16.875 8.625 17.0625 8.8125 C 17.0625 8.90625 17.0625 9 17.0625 9.09375 C 16.761719 9.246094 16.457031 9.191406 16.125 9.1875 C 16.089844 9.03125 16.058594 8.875 16.03125 8.71875 C 16.210938 8.542969 16.460938 8.609375 16.695312 8.601562 Z M 16.695312 8.601562 "/>
<path style=" stroke:none;fill-rule:nonzero;fill:rgb(39.215687%,39.215687%,39.215687%);fill-opacity:1;" d="M 18.570312 13.675781 C 18.75 13.6875 18.75 13.6875 18.9375 13.78125 C 18.90625 13.9375 18.875 14.089844 18.84375 14.25 C 18.566406 14.21875 18.285156 14.1875 18 14.15625 C 17.96875 14.03125 17.9375 13.910156 17.90625 13.78125 C 18.085938 13.601562 18.335938 13.675781 18.570312 13.675781 Z M 18.570312 13.675781 "/>
<path style=" stroke:none;fill-rule:nonzero;fill:rgb(39.215687%,39.215687%,39.215687%);fill-opacity:1;" d="M 14.835938 9.117188 C 14.917969 9.152344 14.917969 9.152344 15 9.1875 C 15 9.5625 15 9.5625 14.789062 9.777344 C 14.53125 9.9375 14.53125 9.9375 14.316406 9.914062 C 14.261719 9.890625 14.210938 9.867188 14.15625 9.84375 C 14.210938 9.460938 14.402344 9.070312 14.835938 9.117188 Z M 14.835938 9.117188 "/>
<path style=" stroke:none;fill-rule:nonzero;fill:rgb(39.607844%,39.607844%,39.607844%);fill-opacity:1;" d="M 21.46875 19.78125 C 21.59375 19.8125 21.714844 19.84375 21.84375 19.875 C 21.796875 20.226562 21.761719 20.417969 21.5625 20.71875 C 21.40625 20.6875 21.253906 20.65625 21.09375 20.625 C 21.15625 20.296875 21.289062 20.058594 21.46875 19.78125 Z M 21.46875 19.78125 "/>
<path style=" stroke:none;fill-rule:nonzero;fill:rgb(39.607844%,39.607844%,39.607844%);fill-opacity:1;" d="M 19.96875 14.34375 C 20.328125 14.394531 20.535156 14.484375 20.8125 14.71875 C 20.78125 14.84375 20.75 14.964844 20.71875 15.09375 C 20.359375 15.042969 20.152344 14.953125 19.875 14.71875 C 19.90625 14.59375 19.9375 14.472656 19.96875 14.34375 Z M 19.96875 14.34375 "/>
<path style=" stroke:none;fill-rule:nonzero;fill:rgb(40.392157%,40.392157%,40.392157%);fill-opacity:1;" d="M 20.53125 21.46875 C 20.511719 21.636719 20.511719 21.636719 20.4375 21.84375 C 20.222656 22.011719 20.222656 22.011719 19.96875 22.125 C 19.753906 22.097656 19.753906 22.097656 19.59375 22.03125 C 19.628906 21.78125 19.671875 21.671875 19.851562 21.488281 C 20.117188 21.34375 20.25 21.382812 20.53125 21.46875 Z M 20.53125 21.46875 "/>
<path style=" stroke:none;fill-rule:nonzero;fill:rgb(40.000001%,40.000001%,40.000001%);fill-opacity:1;" d="M 21.375 15.84375 C 21.5 15.84375 21.621094 15.84375 21.75 15.84375 C 22.039062 16.351562 22.039062 16.351562 22.003906 16.628906 C 21.980469 16.679688 21.960938 16.730469 21.9375 16.78125 C 21.769531 16.761719 21.769531 16.761719 21.5625 16.6875 C 21.394531 16.472656 21.394531 16.472656 21.28125 16.21875 C 21.308594 16.003906 21.308594 16.003906 21.375 15.84375 Z M 21.375 15.84375 "/>
<path style=" stroke:none;fill-rule:nonzero;fill:rgb(40.784314%,40.784314%,40.784314%);fill-opacity:1;" d="M 17.914062 22.117188 C 18.027344 22.117188 18.027344 22.117188 18.148438 22.121094 C 18.222656 22.121094 18.300781 22.121094 18.382812 22.121094 C 18.441406 22.121094 18.5 22.125 18.5625 22.125 C 18.617188 22.308594 18.617188 22.308594 18.65625 22.5 C 18.5625 22.59375 18.5625 22.59375 18.367188 22.601562 C 18.292969 22.601562 18.214844 22.601562 18.132812 22.597656 C 18.058594 22.597656 17.980469 22.597656 17.898438 22.597656 C 17.839844 22.597656 17.78125 22.59375 17.71875 22.59375 C 17.664062 22.410156 17.664062 22.410156 17.625 22.21875 C 17.71875 22.125 17.71875 22.125 17.914062 22.117188 Z M 17.914062 22.117188 "/>
<path style=" stroke:none;fill-rule:nonzero;fill:rgb(40.784314%,40.784314%,40.784314%);fill-opacity:1;" d="M 21.9375 17.8125 C 22.125 17.859375 22.125 17.859375 22.3125 17.90625 C 22.3125 18.183594 22.3125 18.464844 22.3125 18.75 C 22.1875 18.78125 22.066406 18.8125 21.9375 18.84375 C 21.84375 18.75 21.84375 18.75 21.832031 18.558594 C 21.832031 18.484375 21.832031 18.40625 21.832031 18.328125 C 21.832031 18.253906 21.832031 18.175781 21.832031 18.097656 C 21.84375 17.90625 21.84375 17.90625 21.9375 17.8125 Z M 21.9375 17.8125 "/>
<path style=" stroke:none;fill-rule:nonzero;fill:rgb(40.784314%,40.784314%,40.784314%);fill-opacity:1;" d="M 16.132812 13.679688 C 16.246094 13.679688 16.246094 13.679688 16.367188 13.683594 C 16.441406 13.683594 16.519531 13.683594 16.601562 13.683594 C 16.660156 13.683594 16.71875 13.6875 16.78125 13.6875 C 16.835938 13.871094 16.835938 13.871094 16.875 14.0625 C 16.78125 14.15625 16.78125 14.15625 16.585938 14.164062 C 16.511719 14.164062 16.433594 14.164062 16.351562 14.160156 C 16.277344 14.160156 16.199219 14.160156 16.117188 14.160156 C 16.058594 14.160156 16 14.15625 15.9375 14.15625 C 15.882812 13.972656 15.882812 13.972656 15.84375 13.78125 C 15.9375 13.6875 15.9375 13.6875 16.132812 13.679688 Z M 16.132812 13.679688 "/>
<path style=" stroke:none;fill-rule:nonzero;fill:rgb(40.784314%,40.784314%,40.784314%);fill-opacity:1;" d="M 14.15625 12.75 C 14.511719 12.800781 14.683594 12.941406 14.90625 13.21875 C 14.90625 13.34375 14.90625 13.464844 14.90625 13.59375 C 14.609375 13.5625 14.453125 13.511719 14.214844 13.332031 C 14.0625 13.125 14.0625 13.125 14.085938 12.914062 C 14.109375 12.859375 14.132812 12.804688 14.15625 12.75 Z M 14.15625 12.75 "/>
<path style=" stroke:none;fill-rule:nonzero;fill:rgb(40.784314%,40.784314%,40.784314%);fill-opacity:1;" d="M 13.6875 10.78125 C 13.78125 10.8125 13.875 10.84375 13.96875 10.875 C 13.96875 11.183594 13.96875 11.492188 13.96875 11.8125 C 13.8125 11.78125 13.660156 11.75 13.5 11.71875 C 13.480469 11.152344 13.480469 11.152344 13.5 10.96875 C 13.5625 10.90625 13.625 10.84375 13.6875 10.78125 Z M 13.6875 10.78125 "/>
<path style=" stroke:none;fill-rule:nonzero;fill:rgb(6.666667%,9.019608%,8.235294%);fill-opacity:1;" d="M 21.28125 8.15625 C 21.34375 8.15625 21.40625 8.15625 21.46875 8.15625 C 21.414062 8.523438 21.265625 8.746094 21 9 C 20.660156 9.046875 20.449219 9.074219 20.160156 8.871094 C 20.0625 8.71875 20.0625 8.71875 20.0625 8.53125 C 20.4375 8.625 20.4375 8.625 20.8125 8.71875 C 20.886719 8.625 20.960938 8.53125 21.035156 8.4375 C 21.117188 8.34375 21.199219 8.25 21.28125 8.15625 Z M 21.28125 8.15625 "/>
<path style=" stroke:none;fill-rule:nonzero;fill:rgb(41.960785%,41.960785%,41.960785%);fill-opacity:1;" d="M 15.65625 22.125 C 15.902344 22.125 16.152344 22.125 16.40625 22.125 C 16.4375 22.28125 16.46875 22.433594 16.5 22.59375 C 16.191406 22.59375 15.882812 22.59375 15.5625 22.59375 C 15.59375 22.4375 15.625 22.285156 15.65625 22.125 Z M 15.65625 22.125 "/>
<path style=" stroke:none;fill-rule:nonzero;fill:rgb(41.960785%,41.960785%,41.960785%);fill-opacity:1;" d="M 13.59375 22.125 C 13.839844 22.125 14.089844 22.125 14.34375 22.125 C 14.375 22.28125 14.40625 22.433594 14.4375 22.59375 C 14.128906 22.59375 13.820312 22.59375 13.5 22.59375 C 13.53125 22.4375 13.5625 22.285156 13.59375 22.125 Z M 13.59375 22.125 "/>
<path style=" stroke:none;fill-rule:nonzero;fill:rgb(41.960785%,41.960785%,41.960785%);fill-opacity:1;" d="M 11.53125 22.125 C 11.777344 22.125 12.027344 22.125 12.28125 22.125 C 12.3125 22.28125 12.34375 22.433594 12.375 22.59375 C 12.066406 22.59375 11.757812 22.59375 11.4375 22.59375 C 11.46875 22.4375 11.5 22.285156 11.53125 22.125 Z M 11.53125 22.125 "/>
<path style=" stroke:none;fill-rule:nonzero;fill:rgb(3.921569%,6.27451%,5.098039%);fill-opacity:1;" d="M 20.0625 8.53125 C 20.390625 8.59375 20.628906 8.722656 20.90625 8.90625 C 20.90625 8.9375 20.90625 8.96875 20.90625 9 C 20.390625 9.035156 20.390625 9.035156 20.167969 8.871094 C 20.0625 8.71875 20.0625 8.71875 20.0625 8.53125 Z M 20.0625 8.53125 "/>
</g>
</svg>
