<?xml version="1.0" encoding="UTF-8"?>
<svg xmlns="http://www.w3.org/2000/svg" xmlns:xlink="http://www.w3.org/1999/xlink" width="24" height="24" viewBox="0 0 24 24" version="1.1">
<g id="surface1">
<path style=" stroke:none;fill-rule:nonzero;fill:rgb(94.901961%,34.901962%,23.137255%);fill-opacity:1;" d="M 16.875 0 C 17.371094 0 17.863281 0 18.375 0 C 18.480469 2.203125 17.550781 4.3125 16.757812 6.324219 C 15.046875 10.679688 15.5625 14.730469 17.25 18.980469 C 17.90625 20.625 18.398438 22.210938 18.375 24 C 17.878906 24 17.386719 24 16.875 24 C 16.863281 23.886719 16.855469 23.773438 16.84375 23.660156 C 16.628906 21.703125 15.921875 19.910156 15.199219 18.09375 C 13.355469 13.449219 14.011719 8.953125 15.75 4.40625 C 16.308594 2.933594 16.699219 1.570312 16.875 0 Z M 16.875 0 "/>
<path style=" stroke:none;fill-rule:nonzero;fill:rgb(94.901961%,34.901962%,23.137255%);fill-opacity:1;" d="M 5.625 0 C 6.121094 0 6.613281 0 7.125 0 C 7.136719 0.117188 7.148438 0.234375 7.160156 0.351562 C 7.378906 2.273438 8.066406 4 8.765625 5.789062 C 10.59375 10.515625 10.046875 15.066406 8.214844 19.691406 C 7.773438 20.808594 7.390625 21.894531 7.242188 23.089844 C 7.230469 23.179688 7.21875 23.269531 7.207031 23.359375 C 7.179688 23.574219 7.152344 23.785156 7.125 24 C 6.628906 24 6.136719 24 5.625 24 C 5.53125 22.046875 6.269531 20.238281 6.953125 18.445312 C 8.757812 13.738281 8.605469 9.683594 6.75 5.019531 C 6.09375 3.375 5.601562 1.789062 5.625 0 Z M 5.625 0 "/>
<path style=" stroke:none;fill-rule:nonzero;fill:rgb(94.901961%,36.078432%,23.529412%);fill-opacity:1;" d="M 11.25 0 C 11.746094 0 12.238281 0 12.75 0 C 12.75 7.921875 12.75 15.839844 12.75 24 C 12.253906 24 11.761719 24 11.25 24 C 11.25 16.078125 11.25 8.160156 11.25 0 Z M 11.25 0 "/>
<path style=" stroke:none;fill-rule:nonzero;fill:rgb(22.745098%,28.627452%,31.37255%);fill-opacity:1;" d="M 21.445312 6.570312 C 21.757812 6.699219 21.972656 6.929688 22.207031 7.164062 C 22.261719 7.214844 22.3125 7.265625 22.367188 7.320312 C 22.476562 7.425781 22.582031 7.535156 22.691406 7.644531 C 22.855469 7.808594 23.023438 7.972656 23.195312 8.136719 C 23.300781 8.242188 23.40625 8.347656 23.511719 8.453125 C 23.558594 8.503906 23.609375 8.550781 23.664062 8.601562 C 23.800781 8.742188 23.800781 8.742188 24 9 C 23.957031 9.429688 23.65625 9.660156 23.363281 9.945312 C 23.308594 10 23.253906 10.050781 23.199219 10.105469 C 23.027344 10.277344 22.855469 10.445312 22.683594 10.617188 C 22.566406 10.734375 22.449219 10.847656 22.332031 10.964844 C 22.042969 11.246094 21.757812 11.53125 21.46875 11.8125 C 21.148438 11.664062 20.941406 11.492188 20.695312 11.238281 C 20.628906 11.171875 20.5625 11.101562 20.496094 11.03125 C 20.445312 10.980469 20.394531 10.929688 20.34375 10.875 C 20.503906 10.523438 20.71875 10.296875 21 10.03125 C 20.324219 9.988281 19.777344 9.988281 19.21875 10.40625 C 18.714844 10.871094 18.496094 11.304688 18.441406 11.992188 C 18.457031 12.5625 18.695312 13.046875 19.074219 13.46875 C 19.628906 13.949219 20.300781 14.023438 21.007812 14.027344 C 21.136719 14.027344 21.136719 14.027344 21.265625 14.03125 C 21.539062 14.035156 21.8125 14.035156 22.082031 14.039062 C 22.269531 14.042969 22.457031 14.042969 22.640625 14.046875 C 23.09375 14.054688 23.546875 14.058594 24 14.0625 C 24 14.558594 24 15.050781 24 15.5625 C 23.449219 15.570312 22.898438 15.578125 22.34375 15.582031 C 22.15625 15.585938 21.96875 15.585938 21.78125 15.589844 C 19.0625 15.636719 19.0625 15.636719 18 14.625 C 17.246094 13.890625 16.867188 13.085938 16.851562 12.03125 C 16.863281 11.03125 17.1875 10.230469 17.859375 9.492188 C 17.9375 9.421875 18.015625 9.351562 18.09375 9.28125 C 18.199219 9.183594 18.199219 9.183594 18.304688 9.085938 C 18.960938 8.625 19.625 8.441406 20.414062 8.382812 C 20.578125 8.375 20.578125 8.375 20.746094 8.359375 C 20.832031 8.355469 20.914062 8.351562 21 8.34375 C 20.785156 8.125 20.566406 7.910156 20.34375 7.6875 C 20.511719 7.355469 20.640625 7.167969 20.894531 6.90625 C 20.988281 6.808594 20.988281 6.808594 21.085938 6.703125 C 21.28125 6.5625 21.28125 6.5625 21.445312 6.570312 Z M 21.445312 6.570312 "/>
<path style=" stroke:none;fill-rule:nonzero;fill:rgb(34.509805%,41.960785%,45.490196%);fill-opacity:1;" d="M 2.644531 6.566406 C 2.894531 6.699219 3.0625 6.878906 3.257812 7.085938 C 3.332031 7.160156 3.40625 7.238281 3.484375 7.320312 C 3.542969 7.378906 3.597656 7.4375 3.65625 7.5 C 3.511719 7.859375 3.277344 8.082031 3 8.34375 C 3.152344 8.355469 3.152344 8.355469 3.308594 8.363281 C 4.429688 8.457031 5.441406 8.6875 6.230469 9.554688 C 7 10.589844 7.152344 11.585938 7.03125 12.84375 C 6.824219 13.714844 6.335938 14.4375 5.609375 14.957031 C 4.804688 15.4375 3.984375 15.605469 3.058594 15.589844 C 2.925781 15.589844 2.925781 15.589844 2.789062 15.589844 C 2.511719 15.585938 2.234375 15.582031 1.957031 15.578125 C 1.765625 15.578125 1.578125 15.578125 1.386719 15.574219 C 0.925781 15.574219 0.460938 15.570312 0 15.5625 C 0 15.066406 0 14.574219 0 14.0625 C 0.113281 14.0625 0.226562 14.058594 0.339844 14.058594 C 0.761719 14.050781 1.179688 14.046875 1.601562 14.039062 C 1.78125 14.035156 1.964844 14.03125 2.144531 14.03125 C 2.40625 14.027344 2.667969 14.023438 2.929688 14.015625 C 3.011719 14.015625 3.089844 14.015625 3.171875 14.015625 C 3.886719 13.996094 4.546875 13.84375 5.0625 13.3125 C 5.484375 12.738281 5.527344 12.132812 5.4375 11.4375 C 5.273438 10.878906 4.972656 10.539062 4.5 10.21875 C 4.003906 9.984375 3.539062 10.015625 3 10.03125 C 3.214844 10.25 3.433594 10.464844 3.65625 10.6875 C 3.484375 11.03125 3.351562 11.199219 3.082031 11.460938 C 3.015625 11.527344 2.945312 11.59375 2.875 11.660156 C 2.824219 11.710938 2.773438 11.761719 2.71875 11.8125 C 2.339844 11.660156 2.078125 11.390625 1.792969 11.105469 C 1.738281 11.054688 1.6875 11.003906 1.632812 10.953125 C 1.527344 10.84375 1.417969 10.738281 1.308594 10.628906 C 1.140625 10.464844 0.976562 10.300781 0.808594 10.136719 C 0.699219 10.035156 0.597656 9.929688 0.488281 9.824219 C 0.4375 9.777344 0.390625 9.726562 0.335938 9.675781 C 0.00390625 9.339844 0.00390625 9.339844 -0.015625 9.09375 C 0.152344 8.808594 0.371094 8.585938 0.601562 8.351562 C 0.652344 8.300781 0.703125 8.25 0.757812 8.195312 C 0.863281 8.089844 0.972656 7.980469 1.082031 7.871094 C 1.246094 7.707031 1.410156 7.535156 1.574219 7.367188 C 1.679688 7.261719 1.785156 7.15625 1.890625 7.054688 C 1.941406 7.003906 1.988281 6.953125 2.039062 6.898438 C 2.382812 6.5625 2.382812 6.5625 2.644531 6.566406 Z M 2.644531 6.566406 "/>
<path style=" stroke:none;fill-rule:nonzero;fill:rgb(100%,56.078434%,24.705882%);fill-opacity:1;" d="M 11.25 0 C 11.496094 0 11.746094 0 12 0 C 12 7.921875 12 15.839844 12 24 C 11.753906 24 11.503906 24 11.25 24 C 11.25 16.078125 11.25 8.160156 11.25 0 Z M 11.25 0 "/>
</g>
</svg>
