<?xml version="1.0" encoding="UTF-8"?>
<svg xmlns="http://www.w3.org/2000/svg" xmlns:xlink="http://www.w3.org/1999/xlink" width="24" height="24" viewBox="0 0 24 24" version="1.1">
<g id="surface1">
<path style=" stroke:none;fill-rule:nonzero;fill:rgb(19.607843%,84.313726%,21.176471%);fill-opacity:1;" d="M 18.1875 1.59375 C 18.230469 1.546875 18.269531 1.503906 18.3125 1.457031 C 18.503906 1.25 18.699219 1.046875 18.890625 0.84375 C 18.957031 0.773438 19.019531 0.699219 19.089844 0.628906 C 19.648438 0.046875 19.648438 0.046875 20.089844 0.0234375 C 20.4375 0.09375 20.4375 0.09375 20.660156 0.222656 C 20.886719 0.589844 20.925781 0.953125 20.980469 1.378906 C 21.003906 1.523438 21.003906 1.523438 21.023438 1.671875 C 21.058594 1.90625 21.09375 2.140625 21.125 2.375 C 21.1875 2.804688 21.25 3.230469 21.3125 3.660156 C 21.375 4.074219 21.433594 4.488281 21.492188 4.902344 C 21.523438 5.109375 21.554688 5.320312 21.585938 5.527344 C 21.628906 5.824219 21.671875 6.121094 21.714844 6.421875 C 21.726562 6.507812 21.738281 6.597656 21.753906 6.691406 C 21.925781 7.910156 21.925781 7.910156 21.691406 8.34375 C 20.910156 8.808594 19.554688 8.378906 18.683594 8.25 C 18.554688 8.230469 18.429688 8.214844 18.300781 8.195312 C 18.039062 8.15625 17.773438 8.117188 17.511719 8.082031 C 17.175781 8.03125 16.839844 7.984375 16.5 7.933594 C 16.242188 7.898438 15.980469 7.859375 15.71875 7.820312 C 15.535156 7.792969 15.351562 7.765625 15.164062 7.742188 C 15 7.714844 15 7.714844 14.828125 7.691406 C 14.726562 7.675781 14.628906 7.664062 14.53125 7.648438 C 14.167969 7.578125 13.824219 7.492188 13.511719 7.292969 C 13.328125 7 13.351562 6.8125 13.40625 6.46875 C 13.59375 6.1875 13.824219 5.957031 14.0625 5.71875 C 14.132812 5.648438 14.203125 5.578125 14.273438 5.503906 C 14.453125 5.324219 14.632812 5.144531 14.8125 4.96875 C 13.167969 4.148438 11.246094 4.25 9.535156 4.785156 C 8.351562 5.203125 7.355469 5.867188 6.46875 6.75 C 6.410156 6.804688 6.355469 6.859375 6.292969 6.917969 C 5.042969 8.21875 4.472656 10.011719 4.394531 11.78125 C 4.371094 12.152344 4.332031 12.34375 4.125 12.660156 C 3.742188 12.910156 3.4375 12.890625 3 12.84375 C 2.902344 12.832031 2.804688 12.824219 2.703125 12.8125 C 2.371094 12.773438 2.039062 12.726562 1.710938 12.679688 C 1.597656 12.664062 1.484375 12.652344 1.367188 12.632812 C 1.207031 12.609375 1.207031 12.609375 1.039062 12.585938 C 0.941406 12.574219 0.84375 12.558594 0.742188 12.546875 C 0.417969 12.453125 0.238281 12.332031 0 12.09375 C -0.046875 11.820312 -0.0625 11.609375 -0.0507812 11.339844 C -0.0507812 11.265625 -0.0507812 11.1875 -0.046875 11.113281 C 0.0507812 8.515625 1.171875 6.101562 2.8125 4.125 C 2.875 4.046875 2.9375 3.972656 3 3.890625 C 4.542969 2.074219 6.738281 0.921875 9 0.28125 C 9.113281 0.25 9.222656 0.21875 9.339844 0.183594 C 12.433594 -0.542969 15.410156 0.246094 18.1875 1.59375 Z M 18.1875 1.59375 "/>
<path style=" stroke:none;fill-rule:nonzero;fill:rgb(89.803922%,0%,15.294118%);fill-opacity:1;" d="M 21.632812 11.292969 C 21.824219 11.320312 22.019531 11.34375 22.210938 11.367188 C 22.335938 11.386719 22.460938 11.402344 22.582031 11.417969 C 22.695312 11.433594 22.808594 11.449219 22.921875 11.464844 C 23.289062 11.539062 23.570312 11.644531 23.90625 11.8125 C 24.445312 12.890625 23.824219 14.761719 23.484375 15.832031 C 22.96875 17.347656 22.207031 18.648438 21.1875 19.875 C 21.125 19.953125 21.0625 20.027344 20.996094 20.109375 C 19.160156 22.28125 16.300781 23.660156 13.5 24 C 13.03125 24.03125 12.5625 24.035156 12.09375 24.035156 C 12.03125 24.035156 11.964844 24.035156 11.902344 24.035156 C 9.660156 24.027344 7.804688 23.375 5.8125 22.40625 C 5.769531 22.449219 5.730469 22.496094 5.683594 22.542969 C 5.492188 22.746094 5.296875 22.949219 5.101562 23.152344 C 5.039062 23.222656 4.972656 23.292969 4.902344 23.363281 C 4.339844 23.941406 4.339844 23.941406 3.949219 24.003906 C 3.507812 23.996094 3.507812 23.996094 3.28125 23.8125 C 3.109375 23.453125 3.042969 23.105469 2.988281 22.710938 C 2.976562 22.648438 2.96875 22.589844 2.957031 22.523438 C 2.929688 22.320312 2.898438 22.121094 2.871094 21.914062 C 2.847656 21.773438 2.828125 21.632812 2.808594 21.488281 C 2.765625 21.191406 2.722656 20.894531 2.679688 20.597656 C 2.625 20.21875 2.570312 19.835938 2.511719 19.457031 C 2.46875 19.164062 2.425781 18.871094 2.386719 18.578125 C 2.363281 18.4375 2.34375 18.296875 2.324219 18.15625 C 2.03125 16.171875 2.03125 16.171875 2.285156 15.691406 C 3.042969 15.292969 4.164062 15.640625 4.980469 15.757812 C 5.125 15.777344 5.269531 15.796875 5.414062 15.816406 C 5.714844 15.863281 6.015625 15.90625 6.316406 15.949219 C 6.703125 16.003906 7.089844 16.054688 7.472656 16.109375 C 7.773438 16.152344 8.070312 16.195312 8.367188 16.238281 C 8.511719 16.257812 8.652344 16.277344 8.796875 16.296875 C 8.992188 16.324219 9.191406 16.351562 9.390625 16.382812 C 9.558594 16.40625 9.558594 16.40625 9.730469 16.429688 C 10.039062 16.5 10.246094 16.597656 10.5 16.78125 C 10.640625 17.0625 10.640625 17.214844 10.59375 17.53125 C 10.40625 17.808594 10.175781 18.042969 9.9375 18.28125 C 9.867188 18.351562 9.796875 18.421875 9.726562 18.496094 C 9.550781 18.675781 9.367188 18.855469 9.1875 19.03125 C 10.828125 19.851562 12.730469 19.757812 14.4375 19.21875 C 15.644531 18.808594 16.625 18.140625 17.53125 17.25 C 17.589844 17.195312 17.648438 17.140625 17.707031 17.082031 C 18.9375 15.796875 19.511719 14.023438 19.613281 12.277344 C 19.644531 11.824219 19.726562 11.5625 20.0625 11.25 C 20.554688 11.058594 21.121094 11.222656 21.632812 11.292969 Z M 21.632812 11.292969 "/>
<path style=" stroke:none;fill-rule:nonzero;fill:rgb(6.27451%,73.333335%,40.000001%);fill-opacity:1;" d="M 12 0 C 13.640625 0 13.640625 0 14.339844 0.152344 C 14.417969 0.167969 14.496094 0.1875 14.578125 0.203125 C 15.851562 0.488281 17.019531 1.027344 18.1875 1.59375 C 18.230469 1.546875 18.269531 1.503906 18.3125 1.457031 C 18.503906 1.25 18.699219 1.046875 18.890625 0.84375 C 18.988281 0.738281 18.988281 0.738281 19.089844 0.628906 C 19.648438 0.046875 19.648438 0.046875 20.089844 0.0234375 C 20.4375 0.09375 20.4375 0.09375 20.660156 0.222656 C 20.886719 0.589844 20.925781 0.953125 20.980469 1.378906 C 20.996094 1.472656 21.011719 1.570312 21.023438 1.671875 C 21.058594 1.90625 21.09375 2.140625 21.125 2.375 C 21.1875 2.804688 21.25 3.230469 21.3125 3.660156 C 21.375 4.074219 21.433594 4.488281 21.492188 4.902344 C 21.523438 5.109375 21.554688 5.320312 21.585938 5.527344 C 21.628906 5.824219 21.671875 6.121094 21.714844 6.421875 C 21.734375 6.554688 21.734375 6.554688 21.753906 6.691406 C 21.925781 7.910156 21.925781 7.910156 21.691406 8.34375 C 20.910156 8.808594 19.554688 8.378906 18.683594 8.25 C 18.554688 8.230469 18.429688 8.214844 18.300781 8.195312 C 18.039062 8.15625 17.773438 8.117188 17.511719 8.082031 C 17.175781 8.03125 16.839844 7.984375 16.5 7.933594 C 16.242188 7.898438 15.980469 7.859375 15.71875 7.820312 C 15.535156 7.792969 15.351562 7.765625 15.164062 7.742188 C 15.054688 7.726562 14.941406 7.707031 14.828125 7.691406 C 14.726562 7.675781 14.628906 7.664062 14.53125 7.648438 C 14.167969 7.578125 13.824219 7.492188 13.511719 7.292969 C 13.328125 7 13.351562 6.8125 13.40625 6.46875 C 13.59375 6.1875 13.824219 5.957031 14.0625 5.71875 C 14.132812 5.648438 14.203125 5.578125 14.273438 5.503906 C 14.453125 5.324219 14.632812 5.144531 14.8125 4.96875 C 13.933594 4.53125 12.964844 4.417969 12 4.3125 C 12 2.890625 12 1.464844 12 0 Z M 12 0 "/>
<path style=" stroke:none;fill-rule:nonzero;fill:rgb(99.215686%,0%,22.745098%);fill-opacity:1;" d="M 4.980469 15.757812 C 5.125 15.777344 5.269531 15.796875 5.414062 15.820312 C 5.714844 15.859375 6.015625 15.902344 6.316406 15.949219 C 6.703125 16.003906 7.089844 16.058594 7.472656 16.109375 C 7.773438 16.152344 8.070312 16.195312 8.367188 16.238281 C 8.511719 16.257812 8.652344 16.277344 8.796875 16.296875 C 8.992188 16.324219 9.191406 16.351562 9.390625 16.382812 C 9.503906 16.398438 9.617188 16.414062 9.734375 16.429688 C 10.039062 16.503906 10.246094 16.597656 10.5 16.78125 C 10.640625 17.066406 10.640625 17.214844 10.59375 17.53125 C 10.40625 17.808594 10.175781 18.042969 9.9375 18.28125 C 9.867188 18.351562 9.796875 18.421875 9.726562 18.496094 C 9.546875 18.675781 9.367188 18.855469 9.1875 19.03125 C 10.0625 19.46875 11.035156 19.578125 12 19.6875 C 12 21.109375 12 22.535156 12 24 C 10.359375 24 10.359375 24 9.664062 23.847656 C 9.582031 23.832031 9.503906 23.816406 9.421875 23.796875 C 8.148438 23.511719 6.980469 22.972656 5.8125 22.40625 C 5.769531 22.453125 5.726562 22.496094 5.683594 22.542969 C 5.492188 22.746094 5.296875 22.949219 5.101562 23.152344 C 5.039062 23.222656 4.972656 23.292969 4.902344 23.363281 C 4.339844 23.941406 4.339844 23.941406 3.949219 24.003906 C 3.507812 24 3.507812 24 3.28125 23.8125 C 3.109375 23.453125 3.042969 23.105469 2.984375 22.710938 C 2.976562 22.648438 2.96875 22.589844 2.960938 22.523438 C 2.929688 22.320312 2.898438 22.117188 2.871094 21.917969 C 2.847656 21.773438 2.828125 21.632812 2.808594 21.488281 C 2.765625 21.191406 2.722656 20.894531 2.679688 20.597656 C 2.625 20.214844 2.570312 19.835938 2.511719 19.457031 C 2.46875 19.164062 2.425781 18.871094 2.386719 18.578125 C 2.367188 18.4375 2.34375 18.296875 2.324219 18.15625 C 2.03125 16.175781 2.03125 16.175781 2.285156 15.691406 C 3.042969 15.292969 4.164062 15.640625 4.980469 15.757812 Z M 4.980469 15.757812 "/>
</g>
</svg>
