<?xml version="1.0" encoding="UTF-8"?>
<svg xmlns="http://www.w3.org/2000/svg" xmlns:xlink="http://www.w3.org/1999/xlink" width="24" height="24" viewBox="0 0 24 24" version="1.1">
<g id="surface1">
<path style=" stroke:none;fill-rule:nonzero;fill:rgb(89.803922%,18.039216%,18.431373%);fill-opacity:1;" d="M 12.253906 -0.0507812 C 12.664062 0.046875 12.871094 0.339844 13.125 0.65625 C 13.574219 1.179688 14.039062 1.6875 14.515625 2.183594 C 14.957031 2.65625 15.402344 3.125 15.835938 3.605469 C 15.945312 3.722656 15.945312 3.722656 16.058594 3.84375 C 16.273438 4.09375 16.308594 4.195312 16.347656 4.527344 C 16.3125 4.875 16.3125 4.875 16.160156 5.152344 C 15.84375 5.34375 15.84375 5.34375 14.53125 5.34375 C 14.5625 6.765625 14.59375 8.191406 14.625 9.65625 C 14.839844 9.441406 15.058594 9.222656 15.28125 9 C 15.527344 8.785156 15.789062 8.589844 16.046875 8.390625 C 16.117188 8.339844 16.1875 8.285156 16.257812 8.230469 C 16.8125 7.8125 17.382812 7.453125 18 7.125 C 17.980469 7.050781 17.960938 6.976562 17.9375 6.902344 C 17.644531 5.792969 17.644531 5.792969 17.71875 5.34375 C 17.941406 5.027344 18.074219 4.894531 18.460938 4.828125 C 19.027344 4.847656 19.519531 5.191406 20.003906 5.457031 C 20.117188 5.515625 20.226562 5.574219 20.335938 5.632812 C 20.566406 5.753906 20.796875 5.878906 21.027344 6.003906 C 21.367188 6.183594 21.710938 6.359375 22.050781 6.535156 C 22.160156 6.589844 22.265625 6.644531 22.375 6.703125 C 22.582031 6.804688 22.785156 6.910156 22.988281 7.015625 C 23.082031 7.0625 23.171875 7.109375 23.265625 7.15625 C 23.347656 7.199219 23.429688 7.242188 23.511719 7.285156 C 23.714844 7.40625 23.855469 7.5 24 7.6875 C 24.152344 8.324219 23.945312 8.820312 23.625 9.363281 C 23.570312 9.449219 23.515625 9.539062 23.460938 9.628906 C 23.347656 9.816406 23.238281 10.003906 23.125 10.195312 C 23.070312 10.289062 23.011719 10.386719 22.953125 10.484375 C 22.625 11.054688 22.328125 11.644531 22.035156 12.230469 C 21.433594 13.414062 21.433594 13.414062 20.96875 13.574219 C 20.40625 13.5625 20.40625 13.5625 20.121094 13.269531 C 19.945312 12.886719 19.808594 12.5 19.6875 12.09375 C 17.734375 13.179688 16.371094 15.3125 15.375 17.25 C 15.292969 17.410156 15.292969 17.410156 15.207031 17.578125 C 14.761719 18.398438 14.761719 18.398438 14.597656 19.300781 C 14.597656 19.390625 14.59375 19.480469 14.59375 19.570312 C 14.59375 19.664062 14.59375 19.761719 14.59375 19.855469 C 14.589844 20.003906 14.589844 20.003906 14.589844 20.15625 C 14.585938 20.46875 14.582031 20.78125 14.578125 21.09375 C 14.574219 21.507812 14.570312 21.917969 14.5625 22.332031 C 14.5625 22.425781 14.5625 22.519531 14.5625 22.617188 C 14.5625 22.707031 14.558594 22.792969 14.558594 22.882812 C 14.558594 22.960938 14.558594 23.039062 14.554688 23.121094 C 14.515625 23.484375 14.414062 23.742188 14.15625 24 C 13.972656 24.023438 13.972656 24.023438 13.742188 24.027344 C 13.65625 24.027344 13.574219 24.027344 13.484375 24.027344 C 13.347656 24.027344 13.347656 24.027344 13.203125 24.027344 C 13.0625 24.027344 13.0625 24.027344 12.917969 24.027344 C 12.714844 24.03125 12.515625 24.03125 12.316406 24.027344 C 12.007812 24.027344 11.699219 24.03125 11.390625 24.035156 C 11.199219 24.035156 11.003906 24.035156 10.808594 24.035156 C 10.714844 24.035156 10.625 24.035156 10.527344 24.035156 C 10.441406 24.035156 10.355469 24.035156 10.269531 24.035156 C 10.15625 24.035156 10.15625 24.035156 10.039062 24.035156 C 9.792969 23.992188 9.714844 23.914062 9.5625 23.71875 C 9.472656 23.453125 9.449219 23.257812 9.433594 22.980469 C 9.269531 20.28125 8.730469 17.75 7.40625 15.375 C 7.328125 15.234375 7.328125 15.234375 7.25 15.09375 C 6.5625 13.945312 5.480469 12.753906 4.3125 12.09375 C 4.28125 12.179688 4.25 12.265625 4.214844 12.355469 C 4.175781 12.464844 4.132812 12.578125 4.089844 12.691406 C 4.046875 12.800781 4.007812 12.914062 3.964844 13.027344 C 3.84375 13.3125 3.84375 13.3125 3.65625 13.5 C 3.363281 13.574219 3.109375 13.5625 2.8125 13.5 C 2.183594 12.964844 1.835938 12 1.460938 11.273438 C 1.324219 11.011719 1.1875 10.75 1.050781 10.488281 C 1.015625 10.425781 0.984375 10.363281 0.949219 10.296875 C 0.691406 9.808594 0.414062 9.335938 0.121094 8.867188 C -0.0429688 8.542969 -0.0703125 8.25 -0.0703125 7.890625 C 0.109375 7.363281 0.808594 7.121094 1.277344 6.886719 C 1.394531 6.824219 1.394531 6.824219 1.515625 6.765625 C 1.761719 6.636719 2.011719 6.511719 2.261719 6.386719 C 2.589844 6.222656 2.914062 6.054688 3.242188 5.890625 C 3.320312 5.851562 3.398438 5.8125 3.476562 5.769531 C 3.980469 5.515625 4.472656 5.25 4.960938 4.972656 C 5.265625 4.820312 5.480469 4.800781 5.8125 4.875 C 6.085938 5.066406 6.085938 5.066406 6.28125 5.34375 C 6.378906 5.945312 6.160156 6.546875 6 7.125 C 6.089844 7.175781 6.179688 7.226562 6.269531 7.28125 C 7.433594 7.953125 8.371094 8.753906 9.375 9.65625 C 9.40625 8.234375 9.4375 6.808594 9.46875 5.34375 C 9.035156 5.34375 8.601562 5.34375 8.15625 5.34375 C 7.839844 5.152344 7.839844 5.152344 7.6875 4.875 C 7.648438 4.503906 7.644531 4.289062 7.835938 3.964844 C 7.9375 3.847656 7.9375 3.847656 8.046875 3.726562 C 8.121094 3.636719 8.199219 3.550781 8.277344 3.460938 C 8.617188 3.09375 8.96875 2.742188 9.324219 2.394531 C 9.515625 2.203125 9.695312 2.011719 9.875 1.804688 C 9.921875 1.746094 9.972656 1.691406 10.023438 1.628906 C 10.136719 1.5 10.25 1.371094 10.359375 1.238281 C 10.523438 1.042969 10.691406 0.847656 10.859375 0.65625 C 10.910156 0.589844 10.960938 0.527344 11.015625 0.460938 C 11.402344 0.0273438 11.675781 -0.0703125 12.253906 -0.0507812 Z M 12.253906 -0.0507812 "/>
<path style=" stroke:none;fill-rule:nonzero;fill:rgb(99.607843%,76.078433%,29.803923%);fill-opacity:1;" d="M 5.8125 4.875 C 6.089844 5.066406 6.089844 5.066406 6.28125 5.34375 C 6.378906 5.945312 6.160156 6.546875 6 7.125 C 6.089844 7.175781 6.179688 7.226562 6.269531 7.28125 C 7.050781 7.734375 7.757812 8.214844 8.4375 8.8125 C 8.558594 8.917969 8.558594 8.917969 8.6875 9.023438 C 9.132812 9.410156 9.511719 9.800781 9.859375 10.273438 C 10.054688 10.53125 10.265625 10.769531 10.476562 11.011719 C 10.640625 11.214844 10.804688 11.417969 10.96875 11.625 C 11.011719 11.679688 11.058594 11.734375 11.105469 11.792969 C 12.105469 13.074219 12.140625 14.234375 12.101562 15.816406 C 12.097656 16.054688 12.097656 16.289062 12.097656 16.527344 C 12.09375 17.082031 12.085938 17.636719 12.074219 18.195312 C 12.0625 18.828125 12.058594 19.460938 12.050781 20.097656 C 12.042969 21.398438 12.023438 22.699219 12 24 C 11.648438 24.007812 11.292969 24.011719 10.941406 24.019531 C 10.839844 24.019531 10.738281 24.023438 10.636719 24.023438 C 10.539062 24.023438 10.441406 24.027344 10.34375 24.027344 C 10.253906 24.027344 10.164062 24.03125 10.074219 24.03125 C 9.84375 24 9.84375 24 9.679688 23.875 C 9.46875 23.59375 9.453125 23.320312 9.433594 22.980469 C 9.269531 20.28125 8.726562 17.75 7.40625 15.375 C 7.328125 15.234375 7.328125 15.234375 7.25 15.09375 C 6.5625 13.945312 5.480469 12.757812 4.3125 12.09375 C 4.28125 12.179688 4.25 12.265625 4.21875 12.351562 C 4.175781 12.464844 4.132812 12.578125 4.089844 12.691406 C 4.046875 12.800781 4.007812 12.914062 3.964844 13.027344 C 3.84375 13.3125 3.84375 13.3125 3.65625 13.5 C 3.363281 13.570312 3.109375 13.5625 2.8125 13.5 C 2.183594 12.964844 1.835938 12 1.457031 11.273438 C 1.324219 11.011719 1.1875 10.75 1.050781 10.488281 C 1.015625 10.425781 0.984375 10.363281 0.949219 10.296875 C 0.691406 9.808594 0.414062 9.335938 0.121094 8.867188 C -0.0429688 8.542969 -0.0703125 8.25 -0.0703125 7.890625 C 0.109375 7.359375 0.808594 7.121094 1.277344 6.886719 C 1.355469 6.84375 1.433594 6.804688 1.515625 6.765625 C 1.761719 6.636719 2.011719 6.511719 2.261719 6.386719 C 2.589844 6.222656 2.914062 6.054688 3.242188 5.890625 C 3.320312 5.851562 3.398438 5.8125 3.476562 5.769531 C 3.980469 5.515625 4.472656 5.25 4.960938 4.96875 C 5.265625 4.820312 5.484375 4.804688 5.8125 4.875 Z M 5.8125 4.875 "/>
<path style=" stroke:none;fill-rule:nonzero;fill:rgb(40.000001%,49.803922%,99.607843%);fill-opacity:1;" d="M 18.636719 4.832031 C 19.128906 4.933594 19.566406 5.21875 20.003906 5.453125 C 20.113281 5.515625 20.226562 5.574219 20.335938 5.632812 C 20.566406 5.757812 20.796875 5.878906 21.027344 6.003906 C 21.367188 6.183594 21.710938 6.359375 22.054688 6.535156 C 22.160156 6.589844 22.265625 6.644531 22.375 6.703125 C 22.582031 6.808594 22.785156 6.910156 22.988281 7.015625 C 23.082031 7.0625 23.171875 7.109375 23.269531 7.160156 C 23.347656 7.199219 23.429688 7.242188 23.511719 7.28125 C 23.714844 7.402344 23.855469 7.5 24 7.6875 C 24.148438 8.324219 23.945312 8.820312 23.625 9.363281 C 23.570312 9.453125 23.515625 9.539062 23.460938 9.625 C 23.347656 9.816406 23.238281 10.003906 23.125 10.191406 C 23.066406 10.289062 23.011719 10.386719 22.953125 10.484375 C 22.625 11.054688 22.332031 11.640625 22.035156 12.230469 C 21.429688 13.417969 21.429688 13.417969 20.96875 13.574219 C 20.40625 13.5625 20.40625 13.5625 20.121094 13.273438 C 19.945312 12.886719 19.804688 12.5 19.6875 12.09375 C 17.730469 13.179688 16.378906 15.316406 15.375 17.25 C 15.320312 17.355469 15.265625 17.457031 15.210938 17.5625 C 14.929688 18.105469 14.707031 18.636719 14.53125 19.21875 C 14.5 19.21875 14.46875 19.21875 14.4375 19.21875 C 14.417969 18.011719 14.402344 16.804688 14.394531 15.59375 C 14.390625 15.035156 14.382812 14.472656 14.375 13.914062 C 14.363281 13.371094 14.359375 12.828125 14.359375 12.289062 C 14.355469 12.082031 14.351562 11.875 14.347656 11.667969 C 14.3125 10.054688 14.3125 10.054688 14.617188 9.535156 C 14.828125 9.320312 15.027344 9.160156 15.28125 9 C 15.414062 8.894531 15.542969 8.785156 15.671875 8.675781 C 15.800781 8.574219 15.929688 8.476562 16.058594 8.378906 C 16.128906 8.328125 16.195312 8.273438 16.265625 8.222656 C 16.820312 7.808594 17.390625 7.449219 18 7.125 C 17.980469 7.050781 17.960938 6.976562 17.9375 6.902344 C 17.644531 5.796875 17.644531 5.796875 17.71875 5.34375 C 17.976562 4.976562 18.179688 4.816406 18.636719 4.832031 Z M 18.636719 4.832031 "/>
<path style=" stroke:none;fill-rule:nonzero;fill:rgb(99.607843%,29.803923%,29.803923%);fill-opacity:1;" d="M 12 0 C 12 4.394531 12 8.785156 12 13.3125 C 11.714844 12.957031 11.46875 12.609375 11.230469 12.222656 C 10.84375 11.605469 10.410156 11.054688 9.9375 10.5 C 9.457031 9.914062 9.457031 9.914062 9.457031 9.410156 C 9.457031 9.320312 9.457031 9.230469 9.457031 9.136719 C 9.457031 9.039062 9.460938 8.941406 9.460938 8.839844 C 9.460938 8.742188 9.460938 8.640625 9.460938 8.539062 C 9.460938 8.21875 9.460938 7.902344 9.464844 7.582031 C 9.464844 7.367188 9.464844 7.148438 9.464844 6.933594 C 9.464844 6.402344 9.46875 5.875 9.46875 5.34375 C 9.378906 5.34375 9.285156 5.347656 9.191406 5.351562 C 9.074219 5.351562 8.953125 5.355469 8.832031 5.355469 C 8.65625 5.359375 8.65625 5.359375 8.472656 5.363281 C 8.15625 5.34375 8.15625 5.34375 7.839844 5.152344 C 7.648438 4.804688 7.652344 4.609375 7.6875 4.21875 C 7.835938 3.964844 7.835938 3.964844 8.042969 3.726562 C 8.121094 3.636719 8.199219 3.550781 8.277344 3.460938 C 8.617188 3.09375 8.96875 2.742188 9.324219 2.394531 C 9.515625 2.203125 9.695312 2.011719 9.871094 1.804688 C 10.207031 1.417969 10.542969 1.035156 10.886719 0.65625 C 10.96875 0.558594 10.96875 0.558594 11.058594 0.460938 C 11.136719 0.371094 11.136719 0.371094 11.222656 0.28125 C 11.292969 0.199219 11.292969 0.199219 11.367188 0.117188 C 11.53125 0 11.53125 0 12 0 Z M 12 0 "/>
<path style=" stroke:none;fill-rule:nonzero;fill:rgb(99.607843%,46.27451%,19.607843%);fill-opacity:1;" d="M 12 13.40625 C 12.882812 14.730469 13.394531 16.378906 13.78125 17.90625 C 13.796875 17.96875 13.8125 18.03125 13.828125 18.09375 C 14.101562 19.199219 14.222656 20.3125 14.320312 21.445312 C 14.328125 21.515625 14.332031 21.585938 14.339844 21.65625 C 14.375 22.09375 14.414062 22.53125 14.4375 22.96875 C 14.445312 23.066406 14.445312 23.066406 14.449219 23.167969 C 14.457031 23.371094 14.457031 23.371094 14.4375 23.71875 C 14.34375 23.8125 14.25 23.90625 14.15625 24 C 13.445312 24 12.734375 24 12 24 C 12 20.503906 12 17.007812 12 13.40625 Z M 12 13.40625 "/>
<path style=" stroke:none;fill-rule:nonzero;fill:rgb(84.705883%,17.254902%,16.470589%);fill-opacity:1;" d="M 14.25 21.1875 C 14.34375 21.1875 14.4375 21.1875 14.53125 21.1875 C 14.53125 21.898438 14.53125 22.609375 14.53125 23.34375 C 14.363281 23.011719 14.320312 22.890625 14.304688 22.542969 C 14.300781 22.464844 14.296875 22.382812 14.292969 22.300781 C 14.292969 22.21875 14.289062 22.140625 14.285156 22.054688 C 14.28125 21.972656 14.277344 21.886719 14.273438 21.800781 C 14.265625 21.597656 14.257812 21.394531 14.25 21.1875 Z M 14.25 21.1875 "/>
</g>
</svg>
