<?xml version="1.0" encoding="UTF-8"?>
<svg xmlns="http://www.w3.org/2000/svg" xmlns:xlink="http://www.w3.org/1999/xlink" width="24" height="24" viewBox="0 0 24 24" version="1.1">
<g id="surface1">
<path style=" stroke:none;fill-rule:nonzero;fill:rgb(0%,83.92157%,74.117649%);fill-opacity:1;" d="M 5.625 0 C 5.988281 0.1875 6.148438 0.320312 6.375 0.65625 C 6.578125 0.699219 6.578125 0.699219 6.8125 0.691406 C 6.949219 0.695312 6.949219 0.695312 7.089844 0.695312 C 7.1875 0.695312 7.285156 0.695312 7.386719 0.695312 C 7.539062 0.695312 7.539062 0.695312 7.695312 0.699219 C 8.019531 0.699219 8.34375 0.703125 8.667969 0.703125 C 9.09375 0.703125 9.515625 0.707031 9.941406 0.710938 C 10.089844 0.710938 10.089844 0.710938 10.242188 0.710938 C 10.332031 0.710938 10.425781 0.710938 10.519531 0.714844 C 10.597656 0.714844 10.679688 0.714844 10.761719 0.714844 C 11.015625 0.757812 11.097656 0.828125 11.25 1.03125 C 11.289062 1.347656 11.261719 1.648438 11.25 1.96875 C 11.746094 1.96875 12.238281 1.96875 12.75 1.96875 C 12.746094 1.820312 12.738281 1.671875 12.730469 1.519531 C 12.714844 1.078125 12.714844 1.078125 12.863281 0.878906 C 13.082031 0.710938 13.207031 0.714844 13.476562 0.71875 C 13.566406 0.71875 13.660156 0.71875 13.75 0.71875 C 13.847656 0.71875 13.945312 0.722656 14.046875 0.722656 C 14.253906 0.722656 14.460938 0.71875 14.667969 0.71875 C 14.992188 0.71875 15.316406 0.722656 15.640625 0.722656 C 15.957031 0.726562 16.269531 0.722656 16.585938 0.722656 C 16.683594 0.722656 16.777344 0.726562 16.878906 0.726562 C 17.367188 0.734375 17.367188 0.734375 17.789062 0.53125 C 17.929688 0.359375 17.929688 0.359375 18.09375 0.09375 C 18.441406 -0.0820312 18.839844 -0.0429688 19.21875 0 C 19.570312 0.167969 19.734375 0.3125 19.964844 0.628906 C 20.09375 1.039062 20.082031 1.367188 19.96875 1.78125 C 19.769531 2.105469 19.585938 2.324219 19.21875 2.4375 C 18.613281 2.496094 18.308594 2.410156 17.8125 2.0625 C 17.71875 1.921875 17.71875 1.921875 17.625 1.78125 C 17.449219 1.738281 17.449219 1.738281 17.242188 1.742188 C 17.164062 1.738281 17.085938 1.738281 17.003906 1.734375 C 16.875 1.734375 16.875 1.734375 16.746094 1.734375 C 16.660156 1.730469 16.570312 1.730469 16.480469 1.726562 C 16.203125 1.722656 15.921875 1.71875 15.644531 1.714844 C 15.457031 1.714844 15.265625 1.710938 15.078125 1.707031 C 14.613281 1.699219 14.152344 1.691406 13.6875 1.6875 C 13.71875 1.8125 13.75 1.933594 13.78125 2.0625 C 13.867188 2.085938 13.957031 2.105469 14.046875 2.128906 C 15.664062 2.542969 16.996094 3.195312 18.375 4.125 C 18.414062 4.085938 18.453125 4.046875 18.492188 4.007812 C 18.667969 3.828125 18.84375 3.652344 19.019531 3.472656 C 19.109375 3.382812 19.109375 3.382812 19.203125 3.285156 C 19.261719 3.230469 19.320312 3.167969 19.382812 3.109375 C 19.4375 3.054688 19.488281 3 19.546875 2.945312 C 19.960938 2.558594 20.617188 2.695312 21.148438 2.695312 C 21.363281 2.695312 21.574219 2.691406 21.785156 2.691406 C 21.917969 2.6875 22.054688 2.6875 22.1875 2.6875 C 22.3125 2.6875 22.433594 2.6875 22.558594 2.683594 C 22.890625 2.71875 23.023438 2.761719 23.25 3 C 23.289062 3.234375 23.289062 3.234375 23.285156 3.503906 C 23.296875 3.878906 23.296875 3.878906 23.46875 4.195312 C 23.640625 4.335938 23.640625 4.335938 23.90625 4.5 C 24.082031 4.847656 24.042969 5.246094 24 5.625 C 23.832031 5.976562 23.6875 6.140625 23.371094 6.371094 C 22.960938 6.5 22.632812 6.488281 22.21875 6.375 C 21.894531 6.175781 21.675781 5.992188 21.5625 5.625 C 21.503906 5.019531 21.589844 4.714844 21.9375 4.21875 C 22.03125 4.15625 22.125 4.09375 22.21875 4.03125 C 22.285156 3.839844 22.285156 3.839844 22.3125 3.65625 C 20.980469 3.546875 20.980469 3.546875 19.78125 3.984375 C 19.53125 4.226562 19.320312 4.492188 19.125 4.78125 C 19.203125 4.867188 19.28125 4.957031 19.359375 5.042969 C 21.332031 7.355469 22.253906 10.003906 22.03125 13.03125 C 21.984375 13.398438 21.921875 13.761719 21.84375 14.121094 C 21.765625 14.476562 21.726562 14.746094 21.84375 15.09375 C 21.96875 15.28125 21.96875 15.28125 22.128906 15.449219 C 22.183594 15.507812 22.234375 15.5625 22.285156 15.621094 C 22.488281 15.839844 22.488281 15.839844 22.683594 15.988281 C 22.992188 16.25 23.214844 16.457031 23.316406 16.855469 C 23.335938 17.164062 23.335938 17.464844 23.324219 17.773438 C 23.320312 17.886719 23.320312 17.996094 23.320312 18.113281 C 23.316406 18.464844 23.304688 18.820312 23.296875 19.171875 C 23.292969 19.414062 23.289062 19.652344 23.285156 19.894531 C 23.277344 20.480469 23.265625 21.070312 23.25 21.65625 C 23.359375 21.695312 23.359375 21.695312 23.472656 21.738281 C 23.71875 21.84375 23.71875 21.84375 23.886719 22.03125 C 24.050781 22.441406 24.0625 22.816406 24 23.25 C 23.804688 23.636719 23.648438 23.839844 23.25 24 C 22.847656 24.054688 22.507812 24.046875 22.136719 23.878906 C 21.683594 23.515625 21.683594 23.515625 21.5625 23.15625 C 21.519531 22.582031 21.621094 22.207031 21.988281 21.761719 C 22.125 21.65625 22.125 21.65625 22.3125 21.65625 C 22.320312 20.992188 22.320312 20.324219 22.320312 19.660156 C 22.316406 19.433594 22.320312 19.207031 22.324219 18.980469 C 22.328125 18.65625 22.324219 18.328125 22.320312 18.003906 C 22.324219 17.851562 22.324219 17.851562 22.328125 17.699219 C 22.316406 17.109375 22.222656 16.8125 21.800781 16.386719 C 21.601562 16.210938 21.425781 16.058594 21.1875 15.9375 C 21.152344 16.058594 21.152344 16.058594 21.113281 16.179688 C 20.71875 17.285156 20 18.175781 19.21875 19.03125 C 19.164062 19.09375 19.105469 19.15625 19.050781 19.222656 C 17.878906 20.488281 16.15625 21.269531 14.53125 21.75 C 14.652344 22 14.652344 22 14.90625 22.21875 C 15.242188 22.292969 15.570312 22.292969 15.914062 22.292969 C 16.007812 22.296875 16.097656 22.300781 16.195312 22.300781 C 16.421875 22.308594 16.648438 22.3125 16.875 22.3125 C 16.902344 22.253906 16.929688 22.195312 16.957031 22.136719 C 17.109375 21.851562 17.25 21.730469 17.53125 21.5625 C 17.929688 21.496094 18.265625 21.515625 18.636719 21.675781 C 19.1875 22.128906 19.1875 22.128906 19.25 22.515625 C 19.273438 23.101562 19.136719 23.410156 18.738281 23.839844 C 18.363281 24.0625 18.050781 24.066406 17.625 24 C 17.324219 23.863281 17.085938 23.695312 16.875 23.4375 C 16.875 23.375 16.875 23.3125 16.875 23.25 C 16.808594 23.253906 16.746094 23.257812 16.679688 23.261719 C 16.386719 23.273438 16.089844 23.28125 15.796875 23.292969 C 15.644531 23.300781 15.644531 23.300781 15.492188 23.308594 C 14.964844 23.320312 14.617188 23.304688 14.210938 22.953125 C 14.042969 22.785156 13.894531 22.617188 13.75 22.429688 C 13.53125 22.160156 13.382812 22.046875 13.039062 21.96875 C 12.703125 21.933594 12.375 21.925781 12.035156 21.925781 C 11.917969 21.925781 11.800781 21.925781 11.675781 21.925781 C 11.046875 21.945312 10.582031 21.992188 10.109375 22.429688 C 9.910156 22.660156 9.734375 22.902344 9.5625 23.15625 C 9.316406 23.277344 9.136719 23.261719 8.863281 23.257812 C 8.765625 23.257812 8.664062 23.257812 8.558594 23.257812 C 8.453125 23.257812 8.347656 23.257812 8.238281 23.253906 C 8.078125 23.253906 8.078125 23.253906 7.914062 23.253906 C 7.652344 23.253906 7.386719 23.25 7.125 23.25 C 7.097656 23.324219 7.070312 23.398438 7.042969 23.472656 C 6.902344 23.796875 6.796875 23.867188 6.46875 24 C 6.070312 24.054688 5.734375 24.046875 5.363281 23.886719 C 4.8125 23.433594 4.8125 23.433594 4.75 23.046875 C 4.726562 22.460938 4.863281 22.152344 5.261719 21.722656 C 5.636719 21.5 5.949219 21.496094 6.375 21.5625 C 6.675781 21.699219 6.914062 21.867188 7.125 22.125 C 7.125 22.1875 7.125 22.25 7.125 22.3125 C 7.445312 22.3125 7.765625 22.304688 8.085938 22.292969 C 8.175781 22.292969 8.269531 22.292969 8.359375 22.292969 C 8.910156 22.285156 8.910156 22.285156 9.34375 21.980469 C 9.386719 21.902344 9.425781 21.828125 9.46875 21.75 C 9.40625 21.730469 9.339844 21.714844 9.277344 21.695312 C 6.644531 20.882812 4.425781 19.199219 3.121094 16.757812 C 2.8125 16.167969 2.8125 16.167969 2.8125 15.9375 C 2.695312 16.039062 2.574219 16.144531 2.457031 16.246094 C 2.390625 16.304688 2.320312 16.363281 2.253906 16.421875 C 2.191406 16.480469 2.128906 16.535156 2.0625 16.59375 C 2.011719 16.632812 1.964844 16.675781 1.914062 16.714844 C 1.734375 16.929688 1.746094 17.0625 1.742188 17.339844 C 1.738281 17.433594 1.738281 17.527344 1.738281 17.625 C 1.738281 17.726562 1.738281 17.832031 1.738281 17.933594 C 1.734375 18.039062 1.734375 18.144531 1.734375 18.253906 C 1.734375 18.472656 1.734375 18.695312 1.734375 18.917969 C 1.734375 19.257812 1.730469 19.597656 1.726562 19.9375 C 1.726562 20.152344 1.726562 20.367188 1.726562 20.582031 C 1.722656 20.683594 1.722656 20.789062 1.722656 20.890625 C 1.710938 21.453125 1.710938 21.453125 2.011719 21.902344 C 2.128906 21.964844 2.128906 21.964844 2.25 22.03125 C 2.5 22.363281 2.488281 22.757812 2.4375 23.15625 C 2.269531 23.542969 2.050781 23.789062 1.6875 24 C 1.210938 24.078125 0.855469 24.050781 0.421875 23.835938 C 0.148438 23.589844 0.0234375 23.410156 -0.0273438 23.046875 C -0.03125 22.492188 0.0625 22.195312 0.425781 21.769531 C 0.5625 21.65625 0.5625 21.65625 0.75 21.65625 C 0.746094 21.597656 0.742188 21.535156 0.738281 21.472656 C 0.703125 20.84375 0.679688 20.210938 0.664062 19.582031 C 0.65625 19.347656 0.644531 19.109375 0.628906 18.875 C 0.511719 16.808594 0.511719 16.808594 1.113281 16.097656 C 1.390625 15.8125 1.6875 15.566406 2.003906 15.320312 C 2.320312 15.0625 2.320312 15.0625 2.382812 14.644531 C 2.308594 14.332031 2.191406 14.074219 2.0625 13.78125 C 1.605469 11.140625 2.21875 8.378906 3.75 6.1875 C 4.015625 5.832031 4.304688 5.492188 4.59375 5.15625 C 4.6875 5.03125 4.78125 4.90625 4.875 4.78125 C 4.539062 4.28125 4.195312 3.828125 3.582031 3.691406 C 2.953125 3.625 2.320312 3.628906 1.6875 3.65625 C 1.761719 4.054688 1.933594 4.160156 2.25 4.40625 C 2.460938 4.691406 2.476562 4.984375 2.464844 5.335938 C 2.398438 5.792969 2.183594 6.097656 1.808594 6.375 C 1.398438 6.5 1.070312 6.496094 0.65625 6.375 C 0.328125 6.183594 0.121094 5.992188 0 5.625 C -0.0507812 5.175781 -0.0429688 4.863281 0.167969 4.457031 C 0.375 4.21875 0.375 4.21875 0.65625 4.03125 C 0.695312 3.769531 0.699219 3.511719 0.703125 3.246094 C 0.75 3 0.75 3 0.898438 2.847656 C 1.34375 2.59375 1.890625 2.664062 2.394531 2.660156 C 2.601562 2.660156 2.804688 2.652344 3.011719 2.648438 C 4.113281 2.628906 4.113281 2.628906 4.570312 3.023438 C 4.675781 3.140625 4.777344 3.253906 4.875 3.375 C 4.953125 3.449219 5.03125 3.527344 5.113281 3.601562 C 5.171875 3.664062 5.234375 3.726562 5.296875 3.792969 C 5.359375 3.855469 5.421875 3.917969 5.488281 3.984375 C 5.53125 4.03125 5.578125 4.078125 5.625 4.125 C 5.6875 4.085938 5.746094 4.046875 5.8125 4.003906 C 6.09375 3.824219 6.375 3.648438 6.65625 3.46875 C 6.785156 3.382812 6.785156 3.382812 6.914062 3.300781 C 7.929688 2.664062 9.0625 2.339844 10.21875 2.0625 C 10.25 1.9375 10.28125 1.816406 10.3125 1.6875 C 9.761719 1.6875 9.207031 1.695312 8.65625 1.703125 C 8.46875 1.703125 8.28125 1.707031 8.09375 1.707031 C 7.824219 1.707031 7.550781 1.710938 7.28125 1.714844 C 7.15625 1.714844 7.15625 1.714844 7.027344 1.714844 C 6.605469 1.722656 6.433594 1.734375 6.09375 2.011719 C 6.03125 2.089844 5.96875 2.167969 5.90625 2.25 C 5.574219 2.484375 5.273438 2.476562 4.875 2.4375 C 4.5 2.300781 4.269531 2.132812 4.03125 1.808594 C 3.90625 1.398438 3.910156 1.070312 4.03125 0.65625 C 4.429688 -0.0117188 4.894531 -0.0820312 5.625 0 Z M 5.625 0 "/>
<path style=" stroke:none;fill-rule:nonzero;fill:rgb(12.941177%,11.764706%,11.764706%);fill-opacity:1;" d="M 5.625 0 C 5.988281 0.1875 6.148438 0.320312 6.375 0.65625 C 6.578125 0.699219 6.578125 0.699219 6.8125 0.691406 C 6.949219 0.695312 6.949219 0.695312 7.089844 0.695312 C 7.1875 0.695312 7.285156 0.695312 7.386719 0.695312 C 7.539062 0.695312 7.539062 0.695312 7.695312 0.699219 C 8.019531 0.699219 8.34375 0.703125 8.667969 0.703125 C 9.09375 0.703125 9.515625 0.707031 9.941406 0.710938 C 10.089844 0.710938 10.089844 0.710938 10.242188 0.710938 C 10.332031 0.710938 10.425781 0.710938 10.519531 0.714844 C 10.597656 0.714844 10.679688 0.714844 10.761719 0.714844 C 11.015625 0.757812 11.097656 0.828125 11.25 1.03125 C 11.289062 1.347656 11.261719 1.648438 11.25 1.96875 C 11.746094 1.96875 12.238281 1.96875 12.75 1.96875 C 12.746094 1.820312 12.738281 1.671875 12.730469 1.519531 C 12.714844 1.078125 12.714844 1.078125 12.863281 0.878906 C 13.082031 0.710938 13.207031 0.714844 13.476562 0.71875 C 13.566406 0.71875 13.660156 0.71875 13.75 0.71875 C 13.847656 0.71875 13.945312 0.722656 14.046875 0.722656 C 14.253906 0.722656 14.460938 0.71875 14.667969 0.71875 C 14.992188 0.71875 15.316406 0.722656 15.640625 0.722656 C 15.957031 0.726562 16.269531 0.722656 16.585938 0.722656 C 16.683594 0.722656 16.777344 0.726562 16.878906 0.726562 C 17.367188 0.734375 17.367188 0.734375 17.789062 0.53125 C 17.929688 0.359375 17.929688 0.359375 18.09375 0.09375 C 18.441406 -0.0820312 18.839844 -0.0429688 19.21875 0 C 19.570312 0.167969 19.734375 0.3125 19.964844 0.628906 C 20.09375 1.039062 20.082031 1.367188 19.96875 1.78125 C 19.769531 2.105469 19.585938 2.324219 19.21875 2.4375 C 18.613281 2.496094 18.308594 2.410156 17.8125 2.0625 C 17.71875 1.921875 17.71875 1.921875 17.625 1.78125 C 17.449219 1.738281 17.449219 1.738281 17.242188 1.742188 C 17.164062 1.738281 17.085938 1.738281 17.003906 1.734375 C 16.875 1.734375 16.875 1.734375 16.746094 1.734375 C 16.660156 1.730469 16.570312 1.730469 16.480469 1.726562 C 16.203125 1.722656 15.921875 1.71875 15.644531 1.714844 C 15.457031 1.714844 15.265625 1.710938 15.078125 1.707031 C 14.613281 1.699219 14.152344 1.691406 13.6875 1.6875 C 13.71875 1.8125 13.75 1.933594 13.78125 2.0625 C 13.867188 2.085938 13.957031 2.105469 14.046875 2.128906 C 15.664062 2.542969 16.996094 3.195312 18.375 4.125 C 18.414062 4.085938 18.453125 4.046875 18.492188 4.007812 C 18.667969 3.828125 18.84375 3.652344 19.019531 3.472656 C 19.109375 3.382812 19.109375 3.382812 19.203125 3.285156 C 19.261719 3.230469 19.320312 3.167969 19.382812 3.109375 C 19.4375 3.054688 19.488281 3 19.546875 2.945312 C 19.960938 2.558594 20.617188 2.695312 21.148438 2.695312 C 21.363281 2.695312 21.574219 2.691406 21.785156 2.691406 C 21.917969 2.6875 22.054688 2.6875 22.1875 2.6875 C 22.3125 2.6875 22.433594 2.6875 22.558594 2.683594 C 22.890625 2.71875 23.023438 2.761719 23.25 3 C 23.289062 3.234375 23.289062 3.234375 23.285156 3.503906 C 23.296875 3.878906 23.296875 3.878906 23.46875 4.195312 C 23.640625 4.335938 23.640625 4.335938 23.90625 4.5 C 24.082031 4.847656 24.042969 5.246094 24 5.625 C 23.832031 5.976562 23.6875 6.140625 23.371094 6.371094 C 22.960938 6.5 22.632812 6.488281 22.21875 6.375 C 21.894531 6.175781 21.675781 5.992188 21.5625 5.625 C 21.503906 5.019531 21.589844 4.714844 21.9375 4.21875 C 22.03125 4.15625 22.125 4.09375 22.21875 4.03125 C 22.285156 3.839844 22.285156 3.839844 22.3125 3.65625 C 20.980469 3.546875 20.980469 3.546875 19.78125 3.984375 C 19.53125 4.226562 19.320312 4.492188 19.125 4.78125 C 19.203125 4.867188 19.28125 4.957031 19.359375 5.042969 C 21.332031 7.355469 22.253906 10.003906 22.03125 13.03125 C 21.984375 13.398438 21.921875 13.761719 21.84375 14.121094 C 21.765625 14.476562 21.726562 14.746094 21.84375 15.09375 C 21.96875 15.28125 21.96875 15.28125 22.128906 15.449219 C 22.183594 15.507812 22.234375 15.5625 22.285156 15.621094 C 22.488281 15.839844 22.488281 15.839844 22.683594 15.988281 C 22.992188 16.25 23.214844 16.457031 23.316406 16.855469 C 23.335938 17.164062 23.335938 17.464844 23.324219 17.773438 C 23.320312 17.886719 23.320312 17.996094 23.320312 18.113281 C 23.316406 18.464844 23.304688 18.820312 23.296875 19.171875 C 23.292969 19.414062 23.289062 19.652344 23.285156 19.894531 C 23.277344 20.480469 23.265625 21.070312 23.25 21.65625 C 23.359375 21.695312 23.359375 21.695312 23.472656 21.738281 C 23.71875 21.84375 23.71875 21.84375 23.886719 22.03125 C 24.050781 22.441406 24.0625 22.816406 24 23.25 C 23.804688 23.636719 23.648438 23.839844 23.25 24 C 22.847656 24.054688 22.507812 24.046875 22.136719 23.878906 C 21.683594 23.515625 21.683594 23.515625 21.5625 23.15625 C 21.519531 22.582031 21.621094 22.207031 21.988281 21.761719 C 22.125 21.65625 22.125 21.65625 22.3125 21.65625 C 22.320312 20.992188 22.320312 20.324219 22.320312 19.660156 C 22.316406 19.433594 22.320312 19.207031 22.324219 18.980469 C 22.328125 18.65625 22.324219 18.328125 22.320312 18.003906 C 22.324219 17.851562 22.324219 17.851562 22.328125 17.699219 C 22.316406 17.109375 22.222656 16.8125 21.800781 16.386719 C 21.601562 16.210938 21.425781 16.058594 21.1875 15.9375 C 21.152344 16.058594 21.152344 16.058594 21.113281 16.179688 C 20.71875 17.285156 20 18.175781 19.21875 19.03125 C 19.164062 19.09375 19.105469 19.15625 19.050781 19.222656 C 17.878906 20.488281 16.15625 21.269531 14.53125 21.75 C 14.652344 22 14.652344 22 14.90625 22.21875 C 15.242188 22.292969 15.570312 22.292969 15.914062 22.292969 C 16.007812 22.296875 16.097656 22.300781 16.195312 22.300781 C 16.421875 22.308594 16.648438 22.3125 16.875 22.3125 C 16.902344 22.253906 16.929688 22.195312 16.957031 22.136719 C 17.109375 21.851562 17.25 21.730469 17.53125 21.5625 C 17.929688 21.496094 18.265625 21.515625 18.636719 21.675781 C 19.1875 22.128906 19.1875 22.128906 19.25 22.515625 C 19.273438 23.101562 19.136719 23.410156 18.738281 23.839844 C 18.363281 24.0625 18.050781 24.066406 17.625 24 C 17.324219 23.863281 17.085938 23.695312 16.875 23.4375 C 16.875 23.375 16.875 23.3125 16.875 23.25 C 16.808594 23.253906 16.746094 23.257812 16.679688 23.261719 C 16.386719 23.273438 16.089844 23.28125 15.796875 23.292969 C 15.644531 23.300781 15.644531 23.300781 15.492188 23.308594 C 14.964844 23.320312 14.617188 23.304688 14.210938 22.953125 C 14.042969 22.785156 13.894531 22.617188 13.75 22.429688 C 13.53125 22.160156 13.382812 22.046875 13.039062 21.96875 C 12.703125 21.933594 12.375 21.925781 12.035156 21.925781 C 11.917969 21.925781 11.800781 21.925781 11.675781 21.925781 C 11.046875 21.945312 10.582031 21.992188 10.109375 22.429688 C 9.910156 22.660156 9.734375 22.902344 9.5625 23.15625 C 9.316406 23.277344 9.136719 23.261719 8.863281 23.257812 C 8.765625 23.257812 8.664062 23.257812 8.558594 23.257812 C 8.453125 23.257812 8.347656 23.257812 8.238281 23.253906 C 8.078125 23.253906 8.078125 23.253906 7.914062 23.253906 C 7.652344 23.253906 7.386719 23.25 7.125 23.25 C 7.097656 23.324219 7.070312 23.398438 7.042969 23.472656 C 6.902344 23.796875 6.796875 23.867188 6.46875 24 C 6.070312 24.054688 5.734375 24.046875 5.363281 23.886719 C 4.8125 23.433594 4.8125 23.433594 4.75 23.046875 C 4.726562 22.460938 4.863281 22.152344 5.261719 21.722656 C 5.636719 21.5 5.949219 21.496094 6.375 21.5625 C 6.675781 21.699219 6.914062 21.867188 7.125 22.125 C 7.125 22.1875 7.125 22.25 7.125 22.3125 C 7.445312 22.3125 7.765625 22.304688 8.085938 22.292969 C 8.175781 22.292969 8.269531 22.292969 8.359375 22.292969 C 8.910156 22.285156 8.910156 22.285156 9.34375 21.980469 C 9.386719 21.902344 9.425781 21.828125 9.46875 21.75 C 9.40625 21.730469 9.339844 21.714844 9.277344 21.695312 C 6.644531 20.882812 4.425781 19.199219 3.121094 16.757812 C 2.8125 16.167969 2.8125 16.167969 2.8125 15.9375 C 2.695312 16.039062 2.574219 16.144531 2.457031 16.246094 C 2.390625 16.304688 2.320312 16.363281 2.253906 16.421875 C 2.191406 16.480469 2.128906 16.535156 2.0625 16.59375 C 2.011719 16.632812 1.964844 16.675781 1.914062 16.714844 C 1.734375 16.929688 1.746094 17.0625 1.742188 17.339844 C 1.738281 17.433594 1.738281 17.527344 1.738281 17.625 C 1.738281 17.726562 1.738281 17.832031 1.738281 17.933594 C 1.734375 18.039062 1.734375 18.144531 1.734375 18.253906 C 1.734375 18.472656 1.734375 18.695312 1.734375 18.917969 C 1.734375 19.257812 1.730469 19.597656 1.726562 19.9375 C 1.726562 20.152344 1.726562 20.367188 1.726562 20.582031 C 1.722656 20.683594 1.722656 20.789062 1.722656 20.890625 C 1.710938 21.453125 1.710938 21.453125 2.011719 21.902344 C 2.128906 21.964844 2.128906 21.964844 2.25 22.03125 C 2.5 22.363281 2.488281 22.757812 2.4375 23.15625 C 2.269531 23.542969 2.050781 23.789062 1.6875 24 C 1.210938 24.078125 0.855469 24.050781 0.421875 23.835938 C 0.148438 23.589844 0.0234375 23.410156 -0.0273438 23.046875 C -0.03125 22.492188 0.0625 22.195312 0.425781 21.769531 C 0.5625 21.65625 0.5625 21.65625 0.75 21.65625 C 0.746094 21.597656 0.742188 21.535156 0.738281 21.472656 C 0.703125 20.84375 0.679688 20.210938 0.664062 19.582031 C 0.65625 19.347656 0.644531 19.109375 0.628906 18.875 C 0.511719 16.808594 0.511719 16.808594 1.113281 16.097656 C 1.390625 15.8125 1.6875 15.566406 2.003906 15.320312 C 2.320312 15.0625 2.320312 15.0625 2.382812 14.644531 C 2.308594 14.332031 2.191406 14.074219 2.0625 13.78125 C 1.605469 11.140625 2.21875 8.378906 3.75 6.1875 C 4.015625 5.832031 4.304688 5.492188 4.59375 5.15625 C 4.6875 5.03125 4.78125 4.90625 4.875 4.78125 C 4.539062 4.28125 4.195312 3.828125 3.582031 3.691406 C 2.953125 3.625 2.320312 3.628906 1.6875 3.65625 C 1.761719 4.054688 1.933594 4.160156 2.25 4.40625 C 2.460938 4.691406 2.476562 4.984375 2.464844 5.335938 C 2.398438 5.792969 2.183594 6.097656 1.808594 6.375 C 1.398438 6.5 1.070312 6.496094 0.65625 6.375 C 0.328125 6.183594 0.121094 5.992188 0 5.625 C -0.0507812 5.175781 -0.0429688 4.863281 0.167969 4.457031 C 0.375 4.21875 0.375 4.21875 0.65625 4.03125 C 0.695312 3.769531 0.699219 3.511719 0.703125 3.246094 C 0.75 3 0.75 3 0.898438 2.847656 C 1.34375 2.59375 1.890625 2.664062 2.394531 2.660156 C 2.601562 2.660156 2.804688 2.652344 3.011719 2.648438 C 4.113281 2.628906 4.113281 2.628906 4.570312 3.023438 C 4.675781 3.140625 4.777344 3.253906 4.875 3.375 C 4.953125 3.449219 5.03125 3.527344 5.113281 3.601562 C 5.171875 3.664062 5.234375 3.726562 5.296875 3.792969 C 5.359375 3.855469 5.421875 3.917969 5.488281 3.984375 C 5.53125 4.03125 5.578125 4.078125 5.625 4.125 C 5.6875 4.085938 5.746094 4.046875 5.8125 4.003906 C 6.09375 3.824219 6.375 3.648438 6.65625 3.46875 C 6.785156 3.382812 6.785156 3.382812 6.914062 3.300781 C 7.929688 2.664062 9.0625 2.339844 10.21875 2.0625 C 10.25 1.9375 10.28125 1.816406 10.3125 1.6875 C 9.761719 1.6875 9.207031 1.695312 8.65625 1.703125 C 8.46875 1.703125 8.28125 1.707031 8.09375 1.707031 C 7.824219 1.707031 7.550781 1.710938 7.28125 1.714844 C 7.15625 1.714844 7.15625 1.714844 7.027344 1.714844 C 6.605469 1.722656 6.433594 1.734375 6.09375 2.011719 C 6.03125 2.089844 5.96875 2.167969 5.90625 2.25 C 5.574219 2.484375 5.273438 2.476562 4.875 2.4375 C 4.5 2.300781 4.269531 2.132812 4.03125 1.808594 C 3.90625 1.398438 3.910156 1.070312 4.03125 0.65625 C 4.429688 -0.0117188 4.894531 -0.0820312 5.625 0 Z M 5.4375 5.53125 C 5.367188 5.601562 5.296875 5.671875 5.222656 5.742188 C 3.566406 7.46875 2.742188 9.832031 2.769531 12.203125 C 2.855469 14.769531 3.972656 17.085938 5.832031 18.855469 C 7.824219 20.605469 10.308594 21.355469 12.9375 21.1875 C 15.464844 20.894531 17.722656 19.605469 19.3125 17.625 C 20.265625 16.339844 20.773438 14.960938 21.09375 13.40625 C 21.113281 13.332031 21.128906 13.257812 21.148438 13.183594 C 21.515625 10.871094 20.832031 8.574219 19.53125 6.671875 C 19.207031 6.230469 18.859375 5.828125 18.46875 5.4375 C 18.398438 5.367188 18.324219 5.292969 18.25 5.21875 C 16.382812 3.449219 13.945312 2.738281 11.425781 2.785156 C 9.15625 2.871094 7.03125 3.941406 5.4375 5.53125 Z M 5.4375 5.53125 "/>
<path style=" stroke:none;fill-rule:nonzero;fill:rgb(82.745099%,0%,14.509805%);fill-opacity:1;" d="M 14.15625 6.65625 C 14.851562 7.199219 15.4375 7.984375 15.550781 8.878906 C 15.554688 8.980469 15.558594 9.082031 15.5625 9.1875 C 15.644531 9.195312 15.726562 9.203125 15.816406 9.210938 C 16.285156 9.316406 16.519531 9.542969 16.78125 9.9375 C 16.800781 10.167969 16.808594 10.390625 16.808594 10.621094 C 16.808594 10.691406 16.808594 10.761719 16.808594 10.832031 C 16.8125 11.0625 16.8125 11.292969 16.8125 11.523438 C 16.8125 11.683594 16.8125 11.84375 16.816406 12.003906 C 16.816406 12.339844 16.816406 12.675781 16.816406 13.011719 C 16.816406 13.441406 16.820312 13.871094 16.820312 14.300781 C 16.824219 14.632812 16.824219 14.960938 16.824219 15.292969 C 16.824219 15.453125 16.824219 15.609375 16.828125 15.769531 C 16.828125 15.988281 16.828125 16.210938 16.828125 16.433594 C 16.828125 16.5 16.828125 16.566406 16.828125 16.632812 C 16.824219 17.097656 16.707031 17.363281 16.40625 17.71875 C 16.023438 18.035156 15.648438 18.039062 15.171875 18.039062 C 15.09375 18.039062 15.019531 18.039062 14.941406 18.039062 C 14.691406 18.042969 14.4375 18.042969 14.1875 18.039062 C 14.015625 18.042969 13.839844 18.042969 13.664062 18.042969 C 13.300781 18.042969 12.933594 18.042969 12.566406 18.042969 C 12.101562 18.039062 11.632812 18.042969 11.164062 18.046875 C 10.804688 18.046875 10.445312 18.046875 10.082031 18.046875 C 9.910156 18.046875 9.738281 18.046875 9.566406 18.046875 C 9.324219 18.050781 9.082031 18.046875 8.839844 18.046875 C 8.769531 18.046875 8.699219 18.046875 8.625 18.050781 C 8.144531 18.042969 7.867188 17.9375 7.5 17.625 C 7.199219 17.253906 7.175781 16.910156 7.179688 16.449219 C 7.179688 16.378906 7.175781 16.308594 7.175781 16.238281 C 7.175781 16.007812 7.175781 15.78125 7.175781 15.550781 C 7.171875 15.390625 7.171875 15.230469 7.171875 15.070312 C 7.171875 14.738281 7.171875 14.402344 7.171875 14.066406 C 7.171875 13.640625 7.167969 13.210938 7.164062 12.78125 C 7.164062 12.453125 7.164062 12.121094 7.164062 11.792969 C 7.164062 11.636719 7.164062 11.476562 7.160156 11.320312 C 7.160156 11.097656 7.160156 10.878906 7.160156 10.65625 C 7.160156 10.59375 7.160156 10.527344 7.15625 10.460938 C 7.167969 9.941406 7.335938 9.730469 7.6875 9.375 C 7.976562 9.183594 8.070312 9.1875 8.4375 9.1875 C 8.441406 9.085938 8.445312 8.980469 8.449219 8.878906 C 8.554688 8.074219 9.042969 7.367188 9.625 6.824219 C 11.023438 5.757812 12.683594 5.738281 14.15625 6.65625 Z M 14.15625 6.65625 "/>
<path style=" stroke:none;fill-rule:nonzero;fill:rgb(46.666667%,71.372551%,90.980393%);fill-opacity:1;" d="M 16.789062 6.070312 C 18.210938 7.25 19.273438 8.949219 19.570312 10.792969 C 19.761719 12.992188 19.332031 15.042969 17.90625 16.78125 C 17.8125 16.902344 17.8125 16.902344 17.714844 17.023438 C 16.46875 18.507812 14.675781 19.316406 12.78125 19.570312 C 12.644531 19.582031 12.511719 19.589844 12.375 19.59375 C 12.242188 19.601562 12.242188 19.601562 12.109375 19.613281 C 10.109375 19.6875 8.28125 18.847656 6.785156 17.566406 C 5.351562 16.210938 4.476562 14.347656 4.382812 12.371094 C 4.328125 10.21875 5.054688 8.269531 6.53125 6.683594 C 9.308594 3.816406 13.6875 3.699219 16.789062 6.070312 Z M 9.148438 7.3125 C 8.699219 7.882812 8.476562 8.46875 8.4375 9.1875 C 8.355469 9.195312 8.269531 9.203125 8.1875 9.210938 C 7.714844 9.316406 7.484375 9.542969 7.21875 9.9375 C 7.199219 10.167969 7.191406 10.390625 7.191406 10.621094 C 7.191406 10.691406 7.191406 10.761719 7.191406 10.832031 C 7.1875 11.0625 7.1875 11.292969 7.1875 11.523438 C 7.1875 11.683594 7.1875 11.84375 7.183594 12.003906 C 7.183594 12.339844 7.183594 12.675781 7.183594 13.011719 C 7.183594 13.441406 7.179688 13.871094 7.179688 14.300781 C 7.175781 14.632812 7.175781 14.960938 7.175781 15.292969 C 7.175781 15.453125 7.175781 15.609375 7.171875 15.769531 C 7.171875 15.988281 7.171875 16.210938 7.171875 16.433594 C 7.171875 16.5 7.171875 16.566406 7.171875 16.632812 C 7.175781 17.097656 7.292969 17.363281 7.59375 17.71875 C 7.976562 18.035156 8.351562 18.039062 8.828125 18.039062 C 8.90625 18.039062 8.980469 18.039062 9.058594 18.039062 C 9.3125 18.042969 9.5625 18.042969 9.8125 18.039062 C 9.984375 18.042969 10.160156 18.042969 10.335938 18.042969 C 10.699219 18.042969 11.066406 18.042969 11.429688 18.042969 C 11.898438 18.039062 12.367188 18.042969 12.835938 18.046875 C 13.195312 18.046875 13.554688 18.046875 13.917969 18.046875 C 14.089844 18.046875 14.261719 18.046875 14.433594 18.046875 C 14.675781 18.050781 14.917969 18.046875 15.15625 18.046875 C 15.230469 18.046875 15.300781 18.046875 15.375 18.050781 C 15.855469 18.042969 16.132812 17.9375 16.5 17.625 C 16.800781 17.253906 16.824219 16.910156 16.820312 16.449219 C 16.820312 16.378906 16.820312 16.308594 16.824219 16.238281 C 16.824219 16.007812 16.824219 15.78125 16.824219 15.550781 C 16.824219 15.390625 16.828125 15.230469 16.828125 15.070312 C 16.828125 14.738281 16.828125 14.402344 16.828125 14.066406 C 16.828125 13.640625 16.832031 13.210938 16.835938 12.78125 C 16.835938 12.453125 16.835938 12.121094 16.835938 11.792969 C 16.835938 11.636719 16.835938 11.476562 16.839844 11.320312 C 16.839844 11.097656 16.839844 10.878906 16.839844 10.65625 C 16.839844 10.59375 16.839844 10.527344 16.84375 10.460938 C 16.835938 9.941406 16.664062 9.730469 16.3125 9.375 C 16.023438 9.183594 15.929688 9.1875 15.5625 9.1875 C 15.558594 9.085938 15.554688 8.980469 15.550781 8.878906 C 15.449219 8.074219 14.957031 7.367188 14.375 6.824219 C 12.675781 5.523438 10.589844 5.792969 9.148438 7.3125 Z M 9.148438 7.3125 "/>
<path style=" stroke:none;fill-rule:nonzero;fill:rgb(13.333334%,11.764706%,12.156863%);fill-opacity:1;" d="M 14.15625 6.65625 C 14.851562 7.199219 15.4375 7.984375 15.550781 8.878906 C 15.554688 8.980469 15.558594 9.082031 15.5625 9.1875 C 15.644531 9.195312 15.726562 9.203125 15.816406 9.210938 C 16.285156 9.316406 16.519531 9.542969 16.78125 9.9375 C 16.800781 10.167969 16.808594 10.390625 16.808594 10.621094 C 16.808594 10.691406 16.808594 10.761719 16.808594 10.832031 C 16.8125 11.0625 16.8125 11.292969 16.8125 11.523438 C 16.8125 11.683594 16.8125 11.84375 16.816406 12.003906 C 16.816406 12.339844 16.816406 12.675781 16.816406 13.011719 C 16.816406 13.441406 16.820312 13.871094 16.820312 14.300781 C 16.824219 14.632812 16.824219 14.960938 16.824219 15.292969 C 16.824219 15.453125 16.824219 15.609375 16.828125 15.769531 C 16.828125 15.988281 16.828125 16.210938 16.828125 16.433594 C 16.828125 16.5 16.828125 16.566406 16.828125 16.632812 C 16.824219 17.097656 16.707031 17.363281 16.40625 17.71875 C 16.023438 18.035156 15.648438 18.039062 15.171875 18.039062 C 15.09375 18.039062 15.019531 18.039062 14.941406 18.039062 C 14.691406 18.042969 14.4375 18.042969 14.1875 18.039062 C 14.015625 18.042969 13.839844 18.042969 13.664062 18.042969 C 13.300781 18.042969 12.933594 18.042969 12.566406 18.042969 C 12.101562 18.039062 11.632812 18.042969 11.164062 18.046875 C 10.804688 18.046875 10.445312 18.046875 10.082031 18.046875 C 9.910156 18.046875 9.738281 18.046875 9.566406 18.046875 C 9.324219 18.050781 9.082031 18.046875 8.839844 18.046875 C 8.769531 18.046875 8.699219 18.046875 8.625 18.050781 C 8.144531 18.042969 7.867188 17.9375 7.5 17.625 C 7.199219 17.253906 7.175781 16.910156 7.179688 16.449219 C 7.179688 16.378906 7.175781 16.308594 7.175781 16.238281 C 7.175781 16.007812 7.175781 15.78125 7.175781 15.550781 C 7.171875 15.390625 7.171875 15.230469 7.171875 15.070312 C 7.171875 14.738281 7.171875 14.402344 7.171875 14.066406 C 7.171875 13.640625 7.167969 13.210938 7.164062 12.78125 C 7.164062 12.453125 7.164062 12.121094 7.164062 11.792969 C 7.164062 11.636719 7.164062 11.476562 7.160156 11.320312 C 7.160156 11.097656 7.160156 10.878906 7.160156 10.65625 C 7.160156 10.59375 7.160156 10.527344 7.15625 10.460938 C 7.167969 9.941406 7.335938 9.730469 7.6875 9.375 C 7.976562 9.183594 8.070312 9.1875 8.4375 9.1875 C 8.441406 9.085938 8.445312 8.980469 8.449219 8.878906 C 8.554688 8.074219 9.042969 7.367188 9.625 6.824219 C 11.023438 5.757812 12.683594 5.738281 14.15625 6.65625 Z M 8.15625 10.03125 C 7.929688 10.375 7.945312 10.535156 7.945312 10.941406 C 7.945312 11.007812 7.945312 11.070312 7.945312 11.132812 C 7.941406 11.34375 7.945312 11.554688 7.945312 11.765625 C 7.945312 11.910156 7.945312 12.058594 7.945312 12.203125 C 7.945312 12.511719 7.945312 12.816406 7.945312 13.121094 C 7.945312 13.515625 7.945312 13.90625 7.945312 14.300781 C 7.941406 14.601562 7.945312 14.902344 7.945312 15.203125 C 7.945312 15.347656 7.945312 15.492188 7.945312 15.636719 C 7.941406 15.839844 7.945312 16.042969 7.945312 16.246094 C 7.945312 16.359375 7.945312 16.476562 7.945312 16.59375 C 7.945312 16.890625 7.945312 16.890625 8.15625 17.15625 C 8.40625 17.183594 8.632812 17.195312 8.878906 17.191406 C 8.953125 17.191406 9.03125 17.195312 9.105469 17.195312 C 9.355469 17.195312 9.601562 17.195312 9.847656 17.195312 C 10.019531 17.195312 10.191406 17.195312 10.363281 17.195312 C 10.726562 17.195312 11.085938 17.195312 11.445312 17.191406 C 11.90625 17.191406 12.367188 17.191406 12.832031 17.195312 C 13.1875 17.195312 13.539062 17.195312 13.894531 17.195312 C 14.066406 17.195312 14.234375 17.195312 14.40625 17.195312 C 14.644531 17.195312 14.882812 17.195312 15.121094 17.191406 C 15.226562 17.195312 15.226562 17.195312 15.335938 17.195312 C 15.550781 17.195312 15.550781 17.195312 15.84375 17.15625 C 16.070312 16.8125 16.054688 16.652344 16.054688 16.246094 C 16.054688 16.179688 16.054688 16.117188 16.054688 16.054688 C 16.058594 15.84375 16.054688 15.632812 16.054688 15.421875 C 16.054688 15.277344 16.054688 15.128906 16.054688 14.984375 C 16.054688 14.675781 16.054688 14.371094 16.054688 14.066406 C 16.054688 13.671875 16.054688 13.28125 16.054688 12.886719 C 16.058594 12.585938 16.054688 12.285156 16.054688 11.984375 C 16.054688 11.839844 16.054688 11.695312 16.054688 11.550781 C 16.058594 11.347656 16.054688 11.144531 16.054688 10.941406 C 16.054688 10.828125 16.054688 10.710938 16.054688 10.59375 C 16.054688 10.296875 16.054688 10.296875 15.84375 10.03125 C 15.59375 10.003906 15.367188 9.992188 15.121094 9.996094 C 15.046875 9.996094 14.96875 9.992188 14.894531 9.992188 C 14.644531 9.992188 14.398438 9.992188 14.152344 9.992188 C 13.980469 9.992188 13.808594 9.992188 13.636719 9.992188 C 13.273438 9.992188 12.914062 9.992188 12.554688 9.996094 C 12.09375 9.996094 11.632812 9.996094 11.167969 9.992188 C 10.8125 9.992188 10.460938 9.992188 10.105469 9.992188 C 9.933594 9.992188 9.765625 9.992188 9.59375 9.992188 C 9.355469 9.992188 9.117188 9.992188 8.878906 9.996094 C 8.808594 9.996094 8.738281 9.992188 8.664062 9.992188 C 8.449219 9.992188 8.449219 9.992188 8.15625 10.03125 Z M 8.15625 10.03125 "/>
<path style=" stroke:none;fill-rule:nonzero;fill:rgb(12.941177%,12.941177%,12.941177%);fill-opacity:1;" d="M 16.71875 4.980469 C 18.710938 6.410156 19.976562 8.429688 20.386719 10.851562 C 20.414062 11.078125 20.429688 11.300781 20.4375 11.53125 C 20.441406 11.609375 20.449219 11.691406 20.457031 11.773438 C 20.546875 13.871094 19.707031 15.984375 18.339844 17.550781 C 16.785156 19.203125 14.839844 20.277344 12.546875 20.375 C 10.042969 20.4375 7.976562 19.746094 6.125 18.023438 C 4.675781 16.617188 3.691406 14.6875 3.613281 12.648438 C 3.613281 12.421875 3.613281 12.191406 3.613281 11.964844 C 3.617188 11.785156 3.617188 11.785156 3.617188 11.601562 C 3.632812 10.738281 3.703125 9.996094 4.03125 9.1875 C 4.070312 9.089844 4.070312 9.089844 4.109375 8.996094 C 5.035156 6.75 6.65625 5.128906 8.863281 4.152344 C 9.457031 3.929688 10.070312 3.789062 10.6875 3.65625 C 10.761719 3.636719 10.839844 3.621094 10.917969 3.601562 C 12.925781 3.269531 15.03125 3.902344 16.71875 4.980469 Z M 6.28125 6.9375 C 5.503906 7.84375 4.898438 8.96875 4.59375 10.125 C 4.574219 10.191406 4.554688 10.257812 4.535156 10.324219 C 4.078125 12.175781 4.496094 14.226562 5.417969 15.863281 C 6.675781 17.832031 8.433594 18.988281 10.6875 19.5 C 10.765625 19.519531 10.847656 19.535156 10.929688 19.554688 C 12.769531 19.863281 14.828125 19.3125 16.34375 18.257812 C 18.054688 17.011719 19.144531 15.289062 19.546875 13.207031 C 19.820312 11.128906 19.351562 9.101562 18.09375 7.40625 C 16.765625 5.78125 14.960938 4.648438 12.84375 4.40625 C 10.3125 4.234375 8.039062 5.078125 6.28125 6.9375 Z M 6.28125 6.9375 "/>
<path style=" stroke:none;fill-rule:nonzero;fill:rgb(14.509805%,12.156863%,11.764706%);fill-opacity:1;" d="M 12.867188 10.546875 C 13.355469 10.828125 13.789062 11.273438 13.96875 11.8125 C 14.03125 12.511719 14.015625 13.101562 13.59375 13.6875 C 13.546875 13.726562 13.5 13.761719 13.449219 13.800781 C 13.246094 14.046875 13.273438 14.25 13.269531 14.5625 C 13.269531 14.679688 13.265625 14.796875 13.265625 14.917969 C 13.261719 15.101562 13.261719 15.101562 13.261719 15.285156 C 13.257812 15.527344 13.253906 15.769531 13.246094 16.011719 C 13.246094 16.117188 13.246094 16.226562 13.242188 16.335938 C 13.21875 16.59375 13.21875 16.59375 13.03125 16.78125 C 12.824219 16.804688 12.824219 16.804688 12.566406 16.804688 C 12.476562 16.804688 12.386719 16.804688 12.289062 16.804688 C 12.195312 16.804688 12.097656 16.804688 12 16.804688 C 11.90625 16.804688 11.808594 16.804688 11.710938 16.804688 C 11.570312 16.804688 11.570312 16.804688 11.433594 16.804688 C 11.347656 16.804688 11.261719 16.804688 11.175781 16.804688 C 10.96875 16.78125 10.96875 16.78125 10.78125 16.59375 C 10.761719 16.34375 10.761719 16.34375 10.761719 16.027344 C 10.761719 15.914062 10.757812 15.796875 10.757812 15.679688 C 10.757812 15.441406 10.757812 15.199219 10.761719 14.957031 C 10.753906 14.292969 10.71875 13.859375 10.253906 13.363281 C 9.945312 13.015625 9.992188 12.542969 10 12.105469 C 10.058594 11.539062 10.273438 11.164062 10.703125 10.792969 C 11.382812 10.328125 12.101562 10.21875 12.867188 10.546875 Z M 12.867188 10.546875 "/>
<path style=" stroke:none;fill-rule:nonzero;fill:rgb(46.666667%,71.372551%,91.37255%);fill-opacity:1;" d="M 13.5 7.21875 C 14.101562 7.632812 14.476562 8.121094 14.71875 8.8125 C 14.71875 8.9375 14.71875 9.058594 14.71875 9.1875 C 12.925781 9.1875 11.128906 9.1875 9.28125 9.1875 C 9.402344 8.339844 9.742188 7.769531 10.421875 7.238281 C 11.324219 6.636719 12.589844 6.625 13.5 7.21875 Z M 13.5 7.21875 "/>
<path style=" stroke:none;fill-rule:nonzero;fill:rgb(98.823529%,83.92157%,25.490198%);fill-opacity:1;" d="M 12.46875 11.25 C 12.769531 11.402344 12.957031 11.625 13.167969 11.886719 C 13.253906 12.226562 13.242188 12.519531 13.125 12.84375 C 12.976562 13.003906 12.976562 13.003906 12.796875 13.167969 C 12.34375 13.664062 12.375 14.167969 12.378906 14.8125 C 12.378906 14.921875 12.378906 15.027344 12.375 15.140625 C 12.375 15.40625 12.371094 15.671875 12.375 15.9375 C 12.128906 15.9375 11.878906 15.9375 11.625 15.9375 C 11.625 15.871094 11.625 15.804688 11.625 15.734375 C 11.628906 15.425781 11.625 15.121094 11.621094 14.8125 C 11.621094 14.707031 11.621094 14.601562 11.621094 14.492188 C 11.609375 13.941406 11.585938 13.585938 11.203125 13.167969 C 11.144531 13.113281 11.085938 13.058594 11.027344 13.003906 C 10.851562 12.820312 10.804688 12.703125 10.761719 12.457031 C 10.785156 12.027344 10.878906 11.855469 11.15625 11.53125 C 11.5625 11.171875 11.945312 11.160156 12.46875 11.25 Z M 12.46875 11.25 "/>
<path style=" stroke:none;fill-rule:nonzero;fill:rgb(94.509804%,56.078434%,5.882353%);fill-opacity:1;" d="M 1.03125 4.78125 C 1.277344 4.816406 1.277344 4.816406 1.5 4.875 C 1.605469 5.320312 1.605469 5.320312 1.5 5.53125 C 1.3125 5.535156 1.125 5.535156 0.9375 5.53125 C 0.84375 5.4375 0.84375 5.4375 0.824219 5.207031 C 0.84375 4.96875 0.84375 4.96875 1.03125 4.78125 Z M 1.03125 4.78125 "/>
<path style=" stroke:none;fill-rule:nonzero;fill:rgb(95.294118%,56.470591%,5.882353%);fill-opacity:1;" d="M 22.886719 4.804688 C 23.0625 4.875 23.0625 4.875 23.15625 4.96875 C 23.167969 5.203125 23.167969 5.203125 23.15625 5.4375 C 23.0625 5.53125 23.0625 5.53125 22.773438 5.535156 C 22.683594 5.535156 22.59375 5.53125 22.5 5.53125 C 22.4375 5.316406 22.4375 5.316406 22.40625 5.0625 C 22.550781 4.832031 22.613281 4.773438 22.886719 4.804688 Z M 22.886719 4.804688 "/>
<path style=" stroke:none;fill-rule:nonzero;fill:rgb(94.901961%,56.470591%,5.882353%);fill-opacity:1;" d="M 18.789062 0.828125 C 19.03125 0.84375 19.03125 0.84375 19.21875 1.03125 C 19.183594 1.277344 19.183594 1.277344 19.125 1.5 C 18.679688 1.605469 18.679688 1.605469 18.46875 1.5 C 18.464844 1.3125 18.464844 1.125 18.46875 0.9375 C 18.5625 0.84375 18.5625 0.84375 18.789062 0.828125 Z M 18.789062 0.828125 "/>
<path style=" stroke:none;fill-rule:nonzero;fill:rgb(94.901961%,56.470591%,5.882353%);fill-opacity:1;" d="M 5.195312 0.828125 C 5.4375 0.84375 5.4375 0.84375 5.625 1.03125 C 5.589844 1.277344 5.589844 1.277344 5.53125 1.5 C 5.085938 1.605469 5.085938 1.605469 4.875 1.5 C 4.871094 1.3125 4.871094 1.125 4.875 0.9375 C 4.96875 0.84375 4.96875 0.84375 5.195312 0.828125 Z M 5.195312 0.828125 "/>
<path style=" stroke:none;fill-rule:nonzero;fill:rgb(98.039216%,58.039218%,5.882353%);fill-opacity:1;" d="M 22.59375 22.40625 C 22.839844 22.441406 22.839844 22.441406 23.0625 22.5 C 23.121094 22.722656 23.121094 22.722656 23.15625 22.96875 C 23.09375 23.03125 23.03125 23.09375 22.96875 23.15625 C 22.722656 23.121094 22.722656 23.121094 22.5 23.0625 C 22.441406 22.839844 22.441406 22.839844 22.40625 22.59375 C 22.46875 22.53125 22.53125 22.46875 22.59375 22.40625 Z M 22.59375 22.40625 "/>
<path style=" stroke:none;fill-rule:nonzero;fill:rgb(98.823529%,58.431375%,5.882353%);fill-opacity:1;" d="M 17.8125 22.40625 C 18.058594 22.441406 18.058594 22.441406 18.28125 22.5 C 18.339844 22.722656 18.339844 22.722656 18.375 22.96875 C 18.3125 23.03125 18.25 23.09375 18.1875 23.15625 C 17.941406 23.121094 17.941406 23.121094 17.71875 23.0625 C 17.660156 22.839844 17.660156 22.839844 17.625 22.59375 C 17.6875 22.53125 17.75 22.46875 17.8125 22.40625 Z M 17.8125 22.40625 "/>
<path style=" stroke:none;fill-rule:nonzero;fill:rgb(98.431373%,58.431375%,5.882353%);fill-opacity:1;" d="M 5.8125 22.40625 C 6.058594 22.441406 6.058594 22.441406 6.28125 22.5 C 6.339844 22.722656 6.339844 22.722656 6.375 22.96875 C 6.3125 23.03125 6.25 23.09375 6.1875 23.15625 C 5.941406 23.121094 5.941406 23.121094 5.71875 23.0625 C 5.660156 22.839844 5.660156 22.839844 5.625 22.59375 C 5.6875 22.53125 5.75 22.46875 5.8125 22.40625 Z M 5.8125 22.40625 "/>
<path style=" stroke:none;fill-rule:nonzero;fill:rgb(98.431373%,58.431375%,5.882353%);fill-opacity:1;" d="M 1.03125 22.40625 C 1.277344 22.441406 1.277344 22.441406 1.5 22.5 C 1.558594 22.722656 1.558594 22.722656 1.59375 22.96875 C 1.53125 23.03125 1.46875 23.09375 1.40625 23.15625 C 1.160156 23.121094 1.160156 23.121094 0.9375 23.0625 C 0.878906 22.839844 0.878906 22.839844 0.84375 22.59375 C 0.90625 22.53125 0.96875 22.46875 1.03125 22.40625 Z M 1.03125 22.40625 "/>
</g>
</svg>
