<?xml version="1.0" encoding="UTF-8"?>
<svg xmlns="http://www.w3.org/2000/svg" xmlns:xlink="http://www.w3.org/1999/xlink" width="24" height="24" viewBox="0 0 24 24" version="1.1">
<g id="surface1">
<path style=" stroke:none;fill-rule:nonzero;fill:rgb(0.392157%,0.392157%,0.392157%);fill-opacity:1;" d="M 6.363281 0.632812 C 7.140625 1.09375 7.648438 1.746094 7.875 2.625 C 7.898438 3.011719 7.894531 3.398438 7.890625 3.789062 C 7.890625 4.019531 7.890625 4.25 7.894531 4.480469 C 7.894531 4.84375 7.894531 5.203125 7.890625 5.566406 C 7.886719 5.917969 7.886719 6.265625 7.890625 6.617188 C 7.886719 6.78125 7.886719 6.78125 7.886719 6.945312 C 7.878906 7.5 7.878906 7.5 8.121094 7.976562 C 8.28125 8.117188 8.441406 8.234375 8.625 8.34375 C 8.671875 8.304688 8.71875 8.265625 8.769531 8.226562 C 10.050781 7.214844 11.34375 7 12.9375 7.125 C 14.191406 7.339844 15.253906 8.035156 16.015625 9.039062 C 16.96875 10.425781 17.050781 11.976562 16.78125 13.59375 C 16.828125 13.554688 16.875 13.519531 16.921875 13.480469 C 16.984375 13.429688 17.050781 13.382812 17.113281 13.332031 C 17.175781 13.28125 17.238281 13.230469 17.304688 13.179688 C 18.148438 12.625 19.078125 12.625 20.0625 12.75 C 20.878906 12.988281 21.414062 13.425781 21.851562 14.136719 C 22.179688 14.765625 22.183594 15.394531 22.179688 16.085938 C 22.175781 16.285156 22.179688 16.480469 22.183594 16.675781 C 22.191406 17.722656 22.191406 17.722656 21.910156 18.082031 C 21.675781 18.265625 21.5625 18.347656 21.277344 18.375 C 20.945312 18.4375 20.914062 18.460938 20.671875 18.730469 C 20.535156 19.023438 20.492188 19.183594 20.53125 19.5 C 20.652344 19.519531 20.769531 19.539062 20.894531 19.558594 C 21.824219 19.769531 22.511719 20.332031 23.0625 21.09375 C 23.59375 21.992188 23.625 22.511719 23.625 23.625 C 20.65625 23.625 17.683594 23.625 14.625 23.625 C 14.625 22.140625 14.839844 21.414062 15.804688 20.371094 C 16.292969 19.902344 17.035156 19.5 17.71875 19.5 C 17.757812 19.183594 17.714844 19.023438 17.578125 18.730469 C 17.335938 18.460938 17.304688 18.4375 16.972656 18.375 C 16.640625 18.308594 16.414062 18.214844 16.203125 17.925781 C 16.035156 17.476562 16.105469 16.980469 16.121094 16.507812 C 16.125 16.175781 16.101562 15.851562 16.078125 15.519531 C 16.070312 15.402344 16.058594 15.285156 16.050781 15.164062 C 16.046875 15.078125 16.039062 14.992188 16.03125 14.90625 C 15.980469 14.96875 15.929688 15.027344 15.875 15.089844 C 15.058594 16.039062 14.035156 16.792969 12.738281 16.890625 C 10.863281 16.925781 10.863281 16.925781 10.125 16.59375 C 10.011719 16.550781 10.011719 16.550781 9.898438 16.503906 C 8.722656 15.988281 7.863281 15.023438 7.378906 13.851562 C 7.03125 12.960938 7.125 12.277344 7.125 11.25 C 4.898438 11.25 2.671875 11.25 0.375 11.25 C 0.375 9.886719 0.519531 9.136719 1.40625 8.15625 C 1.472656 8.101562 1.535156 8.046875 1.601562 7.988281 C 1.824219 7.734375 1.828125 7.613281 1.828125 7.28125 C 1.828125 7.179688 1.828125 7.082031 1.828125 6.976562 C 1.828125 6.816406 1.828125 6.816406 1.824219 6.648438 C 1.828125 6.539062 1.828125 6.425781 1.828125 6.3125 C 1.828125 5.832031 1.828125 5.355469 1.828125 4.878906 C 1.828125 4.527344 1.828125 4.179688 1.832031 3.832031 C 1.828125 3.671875 1.828125 3.671875 1.828125 3.507812 C 1.832031 2.609375 2.027344 1.84375 2.652344 1.175781 C 3.644531 0.28125 5.152344 0.0507812 6.363281 0.632812 Z M 16.59375 13.6875 C 16.6875 13.875 16.6875 13.875 16.6875 13.875 Z M 16.125 14.625 C 16.21875 14.8125 16.21875 14.8125 16.21875 14.8125 Z M 16.125 14.625 "/>
<path style=" stroke:none;fill-rule:nonzero;fill:rgb(0%,0%,0%);fill-opacity:1;" d="M 3.914062 14.730469 C 4.367188 15.007812 4.699219 15.332031 4.875 15.84375 C 4.929688 16.371094 4.914062 16.902344 4.90625 17.433594 C 4.910156 18.105469 4.976562 18.519531 5.402344 19.050781 C 5.738281 19.484375 5.652344 20.0625 5.660156 20.585938 C 5.664062 20.730469 5.664062 20.730469 5.671875 20.882812 C 5.679688 21.667969 5.515625 22.300781 4.96875 22.886719 C 4.332031 23.496094 3.691406 23.679688 2.820312 23.671875 C 2.019531 23.640625 1.484375 23.371094 0.945312 22.792969 C 0.375 22.125 0.324219 21.488281 0.328125 20.640625 C 0.324219 20.546875 0.324219 20.449219 0.320312 20.351562 C 0.316406 19.65625 0.464844 19.148438 0.84375 18.5625 C 0.90625 18.5 0.96875 18.4375 1.03125 18.375 C 1.058594 18.125 1.058594 18.125 1.050781 17.832031 C 1.050781 17.722656 1.050781 17.613281 1.054688 17.5 C 1.054688 17.269531 1.054688 17.039062 1.050781 16.808594 C 1.0625 16.054688 1.171875 15.5625 1.6875 15 C 2.292969 14.480469 3.179688 14.433594 3.914062 14.730469 Z M 2.0625 15.9375 C 1.878906 16.367188 1.855469 16.730469 1.863281 17.191406 C 1.863281 17.308594 1.867188 17.425781 1.867188 17.542969 C 1.871094 17.632812 1.871094 17.722656 1.875 17.8125 C 1.945312 17.789062 1.945312 17.789062 2.015625 17.765625 C 2.34375 17.699219 2.667969 17.707031 3 17.707031 C 3.066406 17.707031 3.132812 17.707031 3.203125 17.707031 C 3.523438 17.707031 3.820312 17.710938 4.125 17.8125 C 4.195312 16.617188 4.195312 16.617188 3.640625 15.617188 C 3 15.261719 2.535156 15.417969 2.0625 15.9375 Z M 2.0625 15.9375 "/>
<path style=" stroke:none;fill-rule:nonzero;fill:rgb(0%,0%,0%);fill-opacity:1;" d="M 21.914062 0.480469 C 22.367188 0.757812 22.699219 1.082031 22.875 1.59375 C 22.929688 2.121094 22.914062 2.652344 22.90625 3.183594 C 22.910156 3.855469 22.976562 4.269531 23.402344 4.800781 C 23.738281 5.234375 23.652344 5.8125 23.660156 6.335938 C 23.664062 6.480469 23.664062 6.480469 23.671875 6.632812 C 23.679688 7.417969 23.515625 8.050781 22.96875 8.636719 C 22.332031 9.246094 21.691406 9.429688 20.820312 9.421875 C 20.019531 9.390625 19.484375 9.121094 18.945312 8.542969 C 18.375 7.875 18.324219 7.238281 18.328125 6.390625 C 18.324219 6.296875 18.324219 6.199219 18.320312 6.101562 C 18.316406 5.40625 18.464844 4.898438 18.84375 4.3125 C 18.90625 4.25 18.96875 4.1875 19.03125 4.125 C 19.058594 3.875 19.058594 3.875 19.050781 3.582031 C 19.050781 3.472656 19.050781 3.363281 19.054688 3.25 C 19.054688 3.019531 19.054688 2.789062 19.050781 2.558594 C 19.0625 1.804688 19.171875 1.3125 19.6875 0.75 C 20.292969 0.230469 21.179688 0.183594 21.914062 0.480469 Z M 20.0625 1.6875 C 19.878906 2.117188 19.855469 2.480469 19.863281 2.941406 C 19.863281 3.058594 19.867188 3.175781 19.867188 3.292969 C 19.871094 3.382812 19.871094 3.472656 19.875 3.5625 C 19.945312 3.539062 19.945312 3.539062 20.015625 3.515625 C 20.34375 3.449219 20.667969 3.457031 21 3.457031 C 21.066406 3.457031 21.132812 3.457031 21.203125 3.457031 C 21.523438 3.457031 21.820312 3.460938 22.125 3.5625 C 22.195312 2.367188 22.195312 2.367188 21.640625 1.367188 C 21 1.011719 20.535156 1.167969 20.0625 1.6875 Z M 20.0625 1.6875 "/>
<path style=" stroke:none;fill-rule:nonzero;fill:rgb(68.627453%,84.313726%,48.235294%);fill-opacity:1;" d="M 4.023438 18.617188 C 4.441406 18.902344 4.714844 19.304688 4.875 19.78125 C 4.988281 21.550781 4.988281 21.550781 4.5 22.21875 C 4.136719 22.628906 3.722656 22.832031 3.179688 22.898438 C 2.636719 22.925781 2.226562 22.816406 1.78125 22.5 C 1.347656 22.101562 1.125 21.667969 1.09375 21.082031 C 1.089844 20.933594 1.089844 20.789062 1.089844 20.644531 C 1.085938 20.535156 1.085938 20.535156 1.082031 20.425781 C 1.078125 19.792969 1.242188 19.292969 1.691406 18.839844 C 1.753906 18.796875 1.816406 18.753906 1.878906 18.707031 C 1.945312 18.664062 2.007812 18.621094 2.070312 18.574219 C 2.691406 18.207031 3.402344 18.316406 4.023438 18.617188 Z M 4.023438 18.617188 "/>
<path style=" stroke:none;fill-rule:nonzero;fill:rgb(68.627453%,84.313726%,48.235294%);fill-opacity:1;" d="M 22.023438 4.367188 C 22.441406 4.652344 22.714844 5.054688 22.875 5.53125 C 22.988281 7.300781 22.988281 7.300781 22.5 7.96875 C 22.136719 8.378906 21.722656 8.582031 21.179688 8.648438 C 20.636719 8.675781 20.226562 8.566406 19.78125 8.25 C 19.347656 7.851562 19.125 7.417969 19.09375 6.832031 C 19.089844 6.683594 19.089844 6.539062 19.089844 6.394531 C 19.085938 6.285156 19.085938 6.285156 19.082031 6.175781 C 19.078125 5.542969 19.242188 5.042969 19.691406 4.589844 C 19.753906 4.546875 19.816406 4.503906 19.878906 4.457031 C 19.945312 4.414062 20.007812 4.371094 20.070312 4.324219 C 20.691406 3.957031 21.402344 4.066406 22.023438 4.367188 Z M 22.023438 4.367188 "/>
<path style=" stroke:none;fill-rule:nonzero;fill:rgb(68.235296%,46.27451%,26.666668%);fill-opacity:1;" d="M 20.34375 13.742188 C 20.800781 14.0625 21.253906 14.539062 21.375 15.09375 C 21.421875 15.84375 21.421875 15.84375 21.28125 16.125 C 21.1875 16.125 21.09375 16.125 21 16.125 C 21 16 21 15.878906 21 15.75 C 20.753906 15.75 20.503906 15.75 20.25 15.75 C 20.25 15.875 20.25 15.996094 20.25 16.125 C 20.007812 16.09375 19.894531 16.050781 19.71875 15.878906 C 19.558594 15.589844 19.53125 15.324219 19.5 15 C 19.253906 15 19.003906 15 18.75 15 C 18.882812 15.621094 19.023438 16.269531 19.539062 16.683594 C 19.777344 16.78125 20 16.828125 20.25 16.875 C 20.28125 17.566406 20.292969 17.996094 19.828125 18.539062 C 19.605469 18.726562 19.386719 18.753906 19.101562 18.792969 C 18.640625 18.738281 18.394531 18.535156 18.09375 18.1875 C 17.964844 17.800781 17.972656 17.433594 17.964844 17.027344 C 17.960938 16.949219 17.957031 16.867188 17.953125 16.785156 C 17.949219 16.351562 17.953125 16.183594 18.238281 15.835938 C 18.3125 15.773438 18.390625 15.71875 18.46875 15.65625 C 18.40625 15.46875 18.34375 15.285156 18.28125 15.09375 C 17.75 15.34375 17.75 15.34375 17.445312 15.820312 C 17.410156 15.921875 17.378906 16.023438 17.34375 16.125 C 17.21875 16.125 17.097656 16.125 16.96875 16.125 C 16.78125 15.75 16.816406 15.292969 16.933594 14.894531 C 17.191406 14.308594 17.648438 13.863281 18.222656 13.578125 C 18.90625 13.363281 19.703125 13.414062 20.34375 13.742188 Z M 20.34375 13.742188 "/>
<path style=" stroke:none;fill-rule:nonzero;fill:rgb(98.431373%,50.196081%,42.352942%);fill-opacity:1;" d="M 3.5625 8.0625 C 3.6875 8.25 3.8125 8.4375 3.9375 8.625 C 4.257812 8.890625 4.539062 8.957031 4.957031 8.9375 C 5.375 8.871094 5.753906 8.707031 6.035156 8.382812 C 6.152344 8.214844 6.152344 8.214844 6.28125 7.96875 C 6.847656 7.996094 7.257812 8.273438 7.6875 8.625 C 7.8125 8.78125 7.933594 8.933594 8.0625 9.09375 C 7.738281 9.789062 7.738281 9.789062 7.40625 10.5 C 5.332031 10.5 3.261719 10.5 1.125 10.5 C 1.347656 9.492188 1.6875 8.847656 2.546875 8.261719 C 3.191406 7.871094 3.191406 7.871094 3.5625 8.0625 Z M 3.5625 8.0625 "/>
<path style=" stroke:none;fill-rule:nonzero;fill:rgb(38.431373%,41.568628%,45.882353%);fill-opacity:1;" d="M 5.816406 1.304688 C 6.425781 1.644531 6.933594 2.128906 7.125 2.8125 C 7.152344 3.128906 7.148438 3.433594 7.125 3.75 C 7 3.75 6.878906 3.75 6.75 3.75 C 6.75 3.625 6.75 3.503906 6.75 3.375 C 6.503906 3.375 6.253906 3.375 6 3.375 C 6 3.5 6 3.621094 6 3.75 C 5.757812 3.71875 5.644531 3.675781 5.46875 3.503906 C 5.308594 3.214844 5.28125 2.949219 5.25 2.625 C 5.035156 2.65625 4.816406 2.6875 4.59375 2.71875 C 4.722656 3.617188 4.722656 3.617188 5.285156 4.289062 C 5.527344 4.402344 5.738281 4.453125 6 4.5 C 6.03125 5.191406 6.042969 5.621094 5.578125 6.164062 C 5.355469 6.351562 5.136719 6.378906 4.851562 6.417969 C 4.390625 6.363281 4.144531 6.160156 3.84375 5.8125 C 3.714844 5.425781 3.722656 5.058594 3.714844 4.652344 C 3.710938 4.574219 3.707031 4.492188 3.703125 4.410156 C 3.699219 3.976562 3.703125 3.808594 3.988281 3.460938 C 4.0625 3.398438 4.140625 3.34375 4.21875 3.28125 C 4.15625 3.09375 4.09375 2.910156 4.03125 2.71875 C 3.5 2.96875 3.5 2.96875 3.195312 3.445312 C 3.160156 3.546875 3.128906 3.648438 3.09375 3.75 C 2.941406 3.75 2.785156 3.75 2.625 3.75 C 2.578125 3.101562 2.601562 2.59375 3 2.0625 C 3.796875 1.222656 4.6875 0.8125 5.816406 1.304688 Z M 5.816406 1.304688 "/>
<path style=" stroke:none;fill-rule:nonzero;fill:rgb(0%,0%,0%);fill-opacity:1;" d="M 11.625 17.625 C 11.871094 17.625 12.121094 17.625 12.375 17.625 C 12.375 17.78125 12.375 17.78125 12.375 17.9375 C 12.378906 18.074219 12.382812 18.210938 12.386719 18.347656 C 12.386719 18.414062 12.386719 18.480469 12.386719 18.550781 C 12.398438 18.945312 12.398438 18.945312 12.597656 19.269531 C 12.734375 19.386719 12.882812 19.492188 13.03125 19.59375 C 13.207031 19.941406 13.179688 20.339844 13.125 20.71875 C 12.96875 21.011719 12.769531 21.222656 12.46875 21.375 C 12.085938 21.421875 11.695312 21.464844 11.347656 21.277344 C 11.148438 21.113281 10.992188 20.953125 10.875 20.71875 C 9.390625 20.6875 7.90625 20.65625 6.375 20.625 C 6.375 20.378906 6.375 20.128906 6.375 19.875 C 6.457031 19.875 6.457031 19.875 6.542969 19.875 C 7.121094 19.875 7.695312 19.871094 8.273438 19.867188 C 8.488281 19.863281 8.703125 19.863281 8.917969 19.863281 C 9.226562 19.863281 9.535156 19.859375 9.84375 19.855469 C 9.988281 19.859375 9.988281 19.859375 10.136719 19.859375 C 10.617188 19.863281 10.617188 19.863281 11.035156 19.65625 C 11.179688 19.484375 11.179688 19.484375 11.34375 19.21875 C 11.40625 19.1875 11.46875 19.15625 11.53125 19.125 C 11.558594 18.871094 11.578125 18.625 11.589844 18.371094 C 11.59375 18.296875 11.597656 18.226562 11.601562 18.152344 C 11.609375 17.976562 11.617188 17.800781 11.625 17.625 Z M 11.625 17.625 "/>
<path style=" stroke:none;fill-rule:nonzero;fill:rgb(0%,0%,0%);fill-opacity:1;" d="M 12.46875 2.625 C 12.761719 2.78125 12.972656 2.980469 13.125 3.28125 C 14.609375 3.3125 16.09375 3.34375 17.625 3.375 C 17.625 3.621094 17.625 3.871094 17.625 4.125 C 17.542969 4.125 17.542969 4.125 17.457031 4.125 C 16.878906 4.125 16.304688 4.128906 15.726562 4.132812 C 15.511719 4.136719 15.296875 4.136719 15.082031 4.136719 C 14.773438 4.136719 14.464844 4.140625 14.15625 4.144531 C 14.011719 4.140625 14.011719 4.140625 13.863281 4.140625 C 13.382812 4.136719 13.382812 4.136719 12.964844 4.34375 C 12.820312 4.515625 12.820312 4.515625 12.65625 4.78125 C 12.59375 4.8125 12.53125 4.84375 12.46875 4.875 C 12.441406 5.128906 12.421875 5.375 12.410156 5.628906 C 12.40625 5.703125 12.402344 5.773438 12.398438 5.847656 C 12.390625 6.023438 12.382812 6.199219 12.375 6.375 C 12.128906 6.375 11.878906 6.375 11.625 6.375 C 11.625 6.273438 11.625 6.167969 11.625 6.0625 C 11.621094 5.925781 11.617188 5.789062 11.613281 5.652344 C 11.613281 5.585938 11.613281 5.519531 11.613281 5.449219 C 11.601562 5.054688 11.601562 5.054688 11.402344 4.730469 C 11.265625 4.613281 11.117188 4.507812 10.96875 4.40625 C 10.792969 4.058594 10.820312 3.660156 10.875 3.28125 C 11.234375 2.609375 11.765625 2.527344 12.46875 2.625 Z M 12.46875 2.625 "/>
<path style=" stroke:none;fill-rule:nonzero;fill:rgb(92.54902%,80.392158%,69.411767%);fill-opacity:1;" d="M 18.46875 15.375 C 18.5625 15.375 18.65625 15.375 18.75 15.375 C 18.785156 15.453125 18.820312 15.53125 18.855469 15.609375 C 18.90625 15.714844 18.953125 15.816406 19.003906 15.917969 C 19.050781 16.019531 19.097656 16.121094 19.144531 16.226562 C 19.378906 16.609375 19.613281 16.738281 20.042969 16.847656 C 20.113281 16.855469 20.179688 16.863281 20.25 16.875 C 20.28125 17.566406 20.292969 18 19.828125 18.539062 C 19.601562 18.726562 19.386719 18.753906 19.101562 18.792969 C 18.640625 18.738281 18.394531 18.535156 18.09375 18.1875 C 17.964844 17.800781 17.972656 17.433594 17.964844 17.027344 C 17.960938 16.945312 17.957031 16.867188 17.953125 16.785156 C 17.945312 16.1875 17.945312 16.1875 18.234375 15.851562 C 18.3125 15.789062 18.390625 15.722656 18.46875 15.65625 C 18.46875 15.5625 18.46875 15.46875 18.46875 15.375 Z M 18.46875 15.375 "/>
<path style=" stroke:none;fill-rule:nonzero;fill:rgb(92.54902%,80.392158%,69.411767%);fill-opacity:1;" d="M 4.21875 3 C 4.3125 3 4.40625 3 4.5 3 C 4.535156 3.078125 4.570312 3.15625 4.605469 3.234375 C 4.65625 3.339844 4.703125 3.441406 4.753906 3.542969 C 4.800781 3.644531 4.847656 3.746094 4.894531 3.851562 C 5.128906 4.234375 5.363281 4.363281 5.792969 4.472656 C 5.863281 4.480469 5.929688 4.488281 6 4.5 C 6.03125 5.191406 6.042969 5.625 5.578125 6.164062 C 5.351562 6.351562 5.136719 6.378906 4.851562 6.417969 C 4.390625 6.363281 4.144531 6.160156 3.84375 5.8125 C 3.714844 5.425781 3.722656 5.058594 3.714844 4.652344 C 3.710938 4.570312 3.707031 4.492188 3.703125 4.410156 C 3.695312 3.8125 3.695312 3.8125 3.984375 3.476562 C 4.0625 3.414062 4.140625 3.347656 4.21875 3.28125 C 4.21875 3.1875 4.21875 3.09375 4.21875 3 Z M 4.21875 3 "/>
<path style=" stroke:none;fill-rule:nonzero;fill:rgb(1.568628%,1.960784%,0.784314%);fill-opacity:1;" d="M 3.28125 19.125 C 3.664062 19.292969 3.910156 19.515625 4.125 19.875 C 4.1875 20.265625 4.214844 20.480469 4.003906 20.820312 C 3.867188 20.988281 3.730469 21.140625 3.5625 21.28125 C 3.5 21.28125 3.4375 21.28125 3.375 21.28125 C 3.375 21.558594 3.375 21.839844 3.375 22.125 C 3.128906 22.125 2.878906 22.125 2.625 22.125 C 2.625 21.847656 2.625 21.566406 2.625 21.28125 C 2.5 21.21875 2.378906 21.15625 2.25 21.09375 C 1.957031 20.816406 1.878906 20.664062 1.816406 20.261719 C 1.835938 19.851562 2.023438 19.632812 2.296875 19.34375 C 2.605469 19.070312 2.878906 19.097656 3.28125 19.125 Z M 3.28125 19.125 "/>
<path style=" stroke:none;fill-rule:nonzero;fill:rgb(1.568628%,1.960784%,0.784314%);fill-opacity:1;" d="M 21.28125 4.875 C 21.664062 5.042969 21.910156 5.265625 22.125 5.625 C 22.1875 6.015625 22.214844 6.230469 22.003906 6.570312 C 21.867188 6.738281 21.730469 6.890625 21.5625 7.03125 C 21.5 7.03125 21.4375 7.03125 21.375 7.03125 C 21.375 7.308594 21.375 7.589844 21.375 7.875 C 21.128906 7.875 20.878906 7.875 20.625 7.875 C 20.625 7.597656 20.625 7.316406 20.625 7.03125 C 20.5 6.96875 20.378906 6.90625 20.25 6.84375 C 19.957031 6.566406 19.878906 6.414062 19.816406 6.011719 C 19.835938 5.601562 20.023438 5.382812 20.296875 5.09375 C 20.605469 4.820312 20.878906 4.847656 21.28125 4.875 Z M 21.28125 4.875 "/>
<path style=" stroke:none;fill-rule:nonzero;fill:rgb(40.000001%,81.960785%,93.333334%);fill-opacity:1;" d="M 10.6875 10.125 C 11.554688 10.125 12.421875 10.125 13.3125 10.125 C 13.5 10.78125 13.5 10.78125 13.5 11.625 C 12.511719 11.625 11.519531 11.625 10.5 11.625 C 10.5 10.78125 10.5 10.78125 10.6875 10.125 Z M 10.6875 10.125 "/>
<path style=" stroke:none;fill-rule:nonzero;fill:rgb(40.784314%,83.137256%,94.901961%);fill-opacity:1;" d="M 10.5 12.375 C 11.488281 12.375 12.480469 12.375 13.5 12.375 C 13.40625 13.59375 13.40625 13.59375 13.3125 13.875 C 12.445312 13.875 11.578125 13.875 10.6875 13.875 C 10.5 12.84375 10.5 12.84375 10.5 12.375 Z M 10.5 12.375 "/>
<path style=" stroke:none;fill-rule:nonzero;fill:rgb(96.078432%,81.960785%,42.352942%);fill-opacity:1;" d="M 20.8125 20.4375 C 21.449219 20.527344 21.886719 20.910156 22.296875 21.390625 C 22.667969 21.90625 22.722656 22.191406 22.875 22.875 C 22.101562 22.875 21.328125 22.875 20.53125 22.875 C 20.636719 21.609375 20.636719 21.609375 20.722656 21.023438 C 20.742188 20.910156 20.757812 20.800781 20.773438 20.683594 C 20.789062 20.601562 20.800781 20.523438 20.8125 20.4375 Z M 20.8125 20.4375 "/>
<path style=" stroke:none;fill-rule:nonzero;fill:rgb(95.686275%,81.568629%,42.352942%);fill-opacity:1;" d="M 17.4375 20.4375 C 17.484375 20.753906 17.53125 21.074219 17.578125 21.394531 C 17.589844 21.484375 17.605469 21.574219 17.617188 21.664062 C 17.632812 21.753906 17.644531 21.839844 17.65625 21.929688 C 17.675781 22.050781 17.675781 22.050781 17.691406 22.171875 C 17.71875 22.40625 17.71875 22.40625 17.71875 22.875 C 16.945312 22.875 16.171875 22.875 15.375 22.875 C 15.605469 21.847656 15.945312 21.230469 16.808594 20.628906 C 17.050781 20.480469 17.144531 20.4375 17.4375 20.4375 Z M 17.4375 20.4375 "/>
<path style=" stroke:none;fill-rule:nonzero;fill:rgb(40.000001%,81.568629%,92.941177%);fill-opacity:1;" d="M 14.15625 10.125 C 14.652344 10.125 15.144531 10.125 15.65625 10.125 C 15.96875 10.691406 16.039062 10.933594 16.125 11.625 C 15.507812 11.625 14.886719 11.625 14.25 11.625 C 14.039062 11.207031 14.152344 10.574219 14.15625 10.125 Z M 14.15625 10.125 "/>
<path style=" stroke:none;fill-rule:nonzero;fill:rgb(40.000001%,81.568629%,93.333334%);fill-opacity:1;" d="M 14.25 12.375 C 14.867188 12.375 15.488281 12.375 16.125 12.375 C 16.039062 13.066406 15.96875 13.308594 15.65625 13.875 C 15.128906 13.875 14.605469 13.875 14.0625 13.875 C 14.125 13.378906 14.1875 12.886719 14.25 12.375 Z M 14.25 12.375 "/>
<path style=" stroke:none;fill-rule:nonzero;fill:rgb(40.000001%,81.960785%,93.333334%);fill-opacity:1;" d="M 7.875 12.375 C 8.492188 12.375 9.113281 12.375 9.75 12.375 C 9.878906 12.882812 9.847656 13.351562 9.84375 13.875 C 9.347656 13.875 8.855469 13.875 8.34375 13.875 C 8.03125 13.308594 7.960938 13.066406 7.875 12.375 Z M 7.875 12.375 "/>
<path style=" stroke:none;fill-rule:nonzero;fill:rgb(40.392157%,82.352942%,94.117647%);fill-opacity:1;" d="M 8.34375 10.125 C 8.839844 10.125 9.332031 10.125 9.84375 10.125 C 9.8125 10.621094 9.78125 11.113281 9.75 11.625 C 9.132812 11.625 8.511719 11.625 7.875 11.625 C 7.960938 10.933594 8.03125 10.691406 8.34375 10.125 Z M 8.34375 10.125 "/>
<path style=" stroke:none;fill-rule:nonzero;fill:rgb(40.000001%,81.568629%,93.333334%);fill-opacity:1;" d="M 12.375 7.96875 C 12.722656 8.304688 12.941406 8.746094 13.125 9.1875 C 13.125 9.25 13.125 9.3125 13.125 9.375 C 12.382812 9.375 11.640625 9.375 10.875 9.375 C 11.085938 8.632812 11.085938 8.632812 11.34375 8.308594 C 11.390625 8.246094 11.441406 8.183594 11.488281 8.117188 C 11.769531 7.808594 11.992188 7.859375 12.375 7.96875 Z M 12.375 7.96875 "/>
<path style=" stroke:none;fill-rule:nonzero;fill:rgb(40.392157%,82.352942%,93.725491%);fill-opacity:1;" d="M 10.875 14.625 C 11.617188 14.625 12.359375 14.625 13.125 14.625 C 12.671875 15.761719 12.671875 15.761719 12.375 16.03125 C 12.097656 16.128906 12.097656 16.128906 11.8125 16.125 C 11.261719 15.855469 11.085938 15.257812 10.875 14.71875 C 10.875 14.6875 10.875 14.65625 10.875 14.625 Z M 10.875 14.625 "/>
<path style=" stroke:none;fill-rule:nonzero;fill:rgb(95.686275%,81.568629%,42.352942%);fill-opacity:1;" d="M 19.03125 21.5625 C 19.410156 21.714844 19.664062 21.984375 19.945312 22.269531 C 19.992188 22.320312 20.039062 22.367188 20.089844 22.414062 C 20.4375 22.769531 20.4375 22.769531 20.4375 22.875 C 19.570312 22.875 18.703125 22.875 17.8125 22.875 C 18.445312 22.136719 18.445312 22.136719 18.738281 21.847656 C 18.820312 21.765625 18.820312 21.765625 18.90625 21.683594 C 18.949219 21.644531 18.988281 21.605469 19.03125 21.5625 Z M 19.03125 21.5625 "/>
<path style=" stroke:none;fill-rule:nonzero;fill:rgb(89.803922%,77.64706%,67.058825%);fill-opacity:1;" d="M 4.566406 7.023438 C 4.722656 7.023438 4.722656 7.023438 4.882812 7.027344 C 5.035156 7.027344 5.035156 7.027344 5.195312 7.027344 C 5.273438 7.027344 5.355469 7.03125 5.4375 7.03125 C 5.582031 7.285156 5.625 7.390625 5.613281 7.691406 C 5.53125 7.96875 5.53125 7.96875 5.375 8.144531 C 5.082031 8.285156 4.914062 8.300781 4.59375 8.25 C 4.320312 8.058594 4.320312 8.058594 4.125 7.78125 C 4.148438 7.035156 4.148438 7.035156 4.566406 7.023438 Z M 4.566406 7.023438 "/>
<path style=" stroke:none;fill-rule:nonzero;fill:rgb(38.82353%,41.960785%,45.882353%);fill-opacity:1;" d="M 6.5625 6 C 6.75 6 6.933594 6 7.125 6 C 7.125 6.464844 7.125 6.929688 7.125 7.40625 C 6.707031 7.3125 6.707031 7.3125 6.28125 7.21875 C 6.1875 6.820312 6.160156 6.621094 6.332031 6.238281 C 6.410156 6.160156 6.484375 6.082031 6.5625 6 Z M 6.5625 6 "/>
<path style=" stroke:none;fill-rule:nonzero;fill:rgb(38.82353%,41.568628%,45.882353%);fill-opacity:1;" d="M 2.625 6 C 2.8125 6 2.996094 6 3.1875 6 C 3.417969 6.238281 3.417969 6.238281 3.5625 6.5625 C 3.539062 6.925781 3.539062 6.925781 3.46875 7.21875 C 3.191406 7.28125 2.910156 7.34375 2.625 7.40625 C 2.625 6.941406 2.625 6.476562 2.625 6 Z M 2.625 6 "/>
<path style=" stroke:none;fill-rule:nonzero;fill:rgb(38.82353%,79.215688%,90.196079%);fill-opacity:1;" d="M 13.875 14.625 C 14.277344 14.625 14.679688 14.625 15.09375 14.625 C 14.902344 15.007812 14.800781 15.105469 14.460938 15.339844 C 14.34375 15.421875 14.34375 15.421875 14.222656 15.507812 C 13.96875 15.65625 13.96875 15.65625 13.40625 15.84375 C 13.5625 15.441406 13.714844 15.039062 13.875 14.625 Z M 13.875 14.625 "/>
<path style=" stroke:none;fill-rule:nonzero;fill:rgb(38.82353%,79.215688%,90.588236%);fill-opacity:1;" d="M 8.90625 14.625 C 9.308594 14.625 9.710938 14.625 10.125 14.625 C 10.28125 15.027344 10.433594 15.429688 10.59375 15.84375 C 10.125 15.6875 9.871094 15.570312 9.488281 15.285156 C 9.398438 15.222656 9.308594 15.15625 9.214844 15.089844 C 9 14.90625 9 14.90625 8.90625 14.625 Z M 8.90625 14.625 "/>
<path style=" stroke:none;fill-rule:nonzero;fill:rgb(39.215687%,79.607844%,90.980393%);fill-opacity:1;" d="M 10.40625 8.15625 C 10.46875 8.1875 10.53125 8.21875 10.59375 8.25 C 10.4375 8.621094 10.285156 8.992188 10.125 9.375 C 9.691406 9.375 9.257812 9.375 8.8125 9.375 C 9.128906 8.976562 9.300781 8.808594 9.714844 8.554688 C 9.804688 8.5 9.894531 8.441406 9.988281 8.386719 C 10.125 8.304688 10.265625 8.226562 10.40625 8.15625 Z M 10.40625 8.15625 "/>
<path style=" stroke:none;fill-rule:nonzero;fill:rgb(39.215687%,80.000001%,91.37255%);fill-opacity:1;" d="M 13.40625 8.15625 C 13.875 8.3125 14.128906 8.429688 14.511719 8.714844 C 14.601562 8.777344 14.691406 8.84375 14.785156 8.910156 C 15 9.09375 15 9.09375 15.09375 9.375 C 14.691406 9.375 14.289062 9.375 13.875 9.375 C 13.71875 8.972656 13.566406 8.570312 13.40625 8.15625 Z M 13.40625 8.15625 "/>
<path style=" stroke:none;fill-rule:nonzero;fill:rgb(89.803922%,77.64706%,67.450982%);fill-opacity:1;" d="M 18.5625 19.40625 C 18.933594 19.40625 19.304688 19.40625 19.6875 19.40625 C 19.71875 19.5625 19.75 19.714844 19.78125 19.875 C 19.667969 20.042969 19.667969 20.042969 19.503906 20.183594 C 19.453125 20.234375 19.398438 20.28125 19.34375 20.332031 C 19.304688 20.367188 19.261719 20.402344 19.21875 20.4375 C 18.902344 20.300781 18.679688 20.148438 18.46875 19.875 C 18.5 19.71875 18.53125 19.566406 18.5625 19.40625 Z M 18.5625 19.40625 "/>
<path style=" stroke:none;fill-rule:nonzero;fill:rgb(93.333334%,47.450981%,40.000001%);fill-opacity:1;" d="M 11.8125 19.875 C 12.058594 19.910156 12.058594 19.910156 12.28125 19.96875 C 12.339844 20.191406 12.339844 20.191406 12.375 20.4375 C 12.3125 20.5 12.25 20.5625 12.1875 20.625 C 11.941406 20.589844 11.941406 20.589844 11.71875 20.53125 C 11.660156 20.308594 11.660156 20.308594 11.625 20.0625 C 11.6875 20 11.75 19.9375 11.8125 19.875 Z M 11.8125 19.875 "/>
<path style=" stroke:none;fill-rule:nonzero;fill:rgb(92.156863%,78.823531%,40.784314%);fill-opacity:1;" d="M 2.8125 19.875 C 3.058594 19.910156 3.058594 19.910156 3.28125 19.96875 C 3.339844 20.191406 3.339844 20.191406 3.375 20.4375 C 3.3125 20.5 3.25 20.5625 3.1875 20.625 C 2.941406 20.589844 2.941406 20.589844 2.71875 20.53125 C 2.660156 20.308594 2.660156 20.308594 2.625 20.0625 C 2.6875 20 2.75 19.9375 2.8125 19.875 Z M 2.8125 19.875 "/>
<path style=" stroke:none;fill-rule:nonzero;fill:rgb(92.156863%,78.823531%,40.784314%);fill-opacity:1;" d="M 20.8125 5.625 C 21.058594 5.660156 21.058594 5.660156 21.28125 5.71875 C 21.339844 5.941406 21.339844 5.941406 21.375 6.1875 C 21.3125 6.25 21.25 6.3125 21.1875 6.375 C 20.941406 6.339844 20.941406 6.339844 20.71875 6.28125 C 20.660156 6.058594 20.660156 6.058594 20.625 5.8125 C 20.6875 5.75 20.75 5.6875 20.8125 5.625 Z M 20.8125 5.625 "/>
<path style=" stroke:none;fill-rule:nonzero;fill:rgb(93.333334%,47.450981%,40.000001%);fill-opacity:1;" d="M 11.8125 3.375 C 12.058594 3.410156 12.058594 3.410156 12.28125 3.46875 C 12.339844 3.691406 12.339844 3.691406 12.375 3.9375 C 12.3125 4 12.25 4.0625 12.1875 4.125 C 11.941406 4.089844 11.941406 4.089844 11.71875 4.03125 C 11.660156 3.808594 11.660156 3.808594 11.625 3.5625 C 11.6875 3.5 11.75 3.4375 11.8125 3.375 Z M 11.8125 3.375 "/>
<path style=" stroke:none;fill-rule:nonzero;fill:rgb(87.843138%,76.078433%,65.882355%);fill-opacity:1;" d="M 21 16.875 C 21.1875 16.96875 21.1875 16.96875 21.375 17.0625 C 21.34375 17.21875 21.3125 17.371094 21.28125 17.53125 C 21.1875 17.5625 21.09375 17.59375 21 17.625 C 21 17.378906 21 17.128906 21 16.875 Z M 21 16.875 "/>
<path style=" stroke:none;fill-rule:nonzero;fill:rgb(87.843138%,76.078433%,65.882355%);fill-opacity:1;" d="M 17.0625 16.875 C 17.125 16.875 17.1875 16.875 17.25 16.875 C 17.25 17.121094 17.25 17.371094 17.25 17.625 C 17.125 17.5625 17.003906 17.5 16.875 17.4375 C 16.957031 16.980469 16.957031 16.980469 17.0625 16.875 Z M 17.0625 16.875 "/>
<path style=" stroke:none;fill-rule:nonzero;fill:rgb(87.843138%,76.078433%,65.882355%);fill-opacity:1;" d="M 6.75 4.5 C 6.9375 4.59375 6.9375 4.59375 7.125 4.6875 C 7.09375 4.84375 7.0625 4.996094 7.03125 5.15625 C 6.9375 5.1875 6.84375 5.21875 6.75 5.25 C 6.75 5.003906 6.75 4.753906 6.75 4.5 Z M 6.75 4.5 "/>
<path style=" stroke:none;fill-rule:nonzero;fill:rgb(87.843138%,76.078433%,65.882355%);fill-opacity:1;" d="M 2.8125 4.5 C 2.875 4.5 2.9375 4.5 3 4.5 C 3 4.746094 3 4.996094 3 5.25 C 2.875 5.1875 2.753906 5.125 2.625 5.0625 C 2.707031 4.605469 2.707031 4.605469 2.8125 4.5 Z M 2.8125 4.5 "/>
<path style=" stroke:none;fill-rule:nonzero;fill:rgb(81.176472%,63.529414%,12.941177%);fill-opacity:1;" d="M 19.96875 20.625 C 20 20.625 20.03125 20.625 20.0625 20.625 C 20.0625 20.839844 20.0625 21.058594 20.0625 21.28125 C 19.9375 21.21875 19.816406 21.15625 19.6875 21.09375 C 19.863281 20.730469 19.863281 20.730469 19.96875 20.625 Z M 19.96875 20.625 "/>
<path style=" stroke:none;fill-rule:nonzero;fill:rgb(81.568629%,63.529414%,12.941177%);fill-opacity:1;" d="M 18.1875 20.625 C 18.3125 20.71875 18.433594 20.8125 18.5625 20.90625 C 18.5 21.03125 18.4375 21.152344 18.375 21.28125 C 18.3125 21.28125 18.25 21.28125 18.1875 21.28125 C 18.1875 21.066406 18.1875 20.847656 18.1875 20.625 Z M 18.1875 20.625 "/>
</g>
</svg>
