<?xml version="1.0" encoding="UTF-8"?>
<svg xmlns="http://www.w3.org/2000/svg" xmlns:xlink="http://www.w3.org/1999/xlink" width="24" height="24" viewBox="0 0 24 24" version="1.1">
<g id="surface1">
<path style=" stroke:none;fill-rule:nonzero;fill:rgb(42.352942%,49.411765%,84.313726%);fill-opacity:1;" d="M 10.125 2.15625 C 10.332031 2.277344 10.332031 2.277344 10.5 2.441406 C 10.5625 2.503906 10.625 2.5625 10.6875 2.625 C 10.75 2.6875 10.8125 2.75 10.875 2.8125 C 10.972656 2.898438 10.972656 2.898438 11.070312 2.984375 C 11.527344 3.398438 11.527344 3.398438 11.550781 3.707031 C 11.4375 3.9375 11.4375 3.9375 11.238281 4.199219 C 11.035156 4.542969 11.027344 4.699219 11.101562 5.078125 C 11.1875 5.347656 11.292969 5.46875 11.53125 5.625 C 11.925781 5.734375 12.121094 5.742188 12.503906 5.597656 C 12.757812 5.460938 12.757812 5.460938 12.84375 5.25 C 13.039062 5.210938 13.039062 5.210938 13.3125 5.25 C 13.550781 5.425781 13.746094 5.632812 13.945312 5.847656 C 14 5.90625 14.054688 5.960938 14.113281 6.019531 C 14.605469 6.527344 14.605469 6.527344 14.671875 6.953125 C 14.605469 7.464844 14.339844 7.671875 13.96875 8.011719 C 13.90625 8.070312 13.84375 8.128906 13.78125 8.191406 C 13.625 8.335938 13.46875 8.480469 13.3125 8.625 C 13.414062 8.835938 13.515625 9.019531 13.652344 9.210938 C 13.824219 9.550781 13.859375 9.851562 13.78125 10.21875 C 13.617188 10.527344 13.390625 10.730469 13.101562 10.921875 C 12.714844 10.992188 12.367188 10.925781 12 10.78125 C 11.84375 10.65625 11.691406 10.535156 11.53125 10.40625 C 11.035156 10.902344 10.542969 11.394531 10.03125 11.90625 C 10.191406 12.230469 10.277344 12.359375 10.527344 12.589844 C 10.585938 12.644531 10.644531 12.699219 10.707031 12.757812 C 10.832031 12.875 10.957031 12.988281 11.082031 13.105469 C 11.246094 13.261719 11.398438 13.410156 11.53125 13.59375 C 11.53125 13.863281 11.53125 13.863281 11.4375 14.0625 C 11.390625 14.101562 11.34375 14.144531 11.296875 14.183594 C 11.105469 14.402344 11.078125 14.617188 11.050781 14.898438 C 11.070312 15.222656 11.230469 15.417969 11.4375 15.65625 C 11.738281 15.808594 12.046875 15.808594 12.375 15.75 C 12.539062 15.644531 12.539062 15.644531 12.679688 15.511719 C 12.808594 15.398438 12.808594 15.398438 12.9375 15.28125 C 13.402344 15.320312 13.675781 15.683594 13.992188 15.996094 C 14.054688 16.054688 14.113281 16.109375 14.175781 16.167969 C 14.476562 16.460938 14.613281 16.613281 14.683594 17.035156 C 14.621094 17.363281 14.566406 17.484375 14.339844 17.71875 C 14.277344 17.78125 14.21875 17.84375 14.15625 17.90625 C 13.605469 18.453125 13.605469 18.453125 13.433594 18.613281 C 13.292969 18.742188 13.292969 18.742188 13.3125 18.9375 C 13.433594 19.0625 13.5625 19.191406 13.6875 19.3125 C 13.839844 19.613281 13.824219 19.921875 13.78125 20.25 C 13.628906 20.539062 13.5 20.738281 13.242188 20.941406 C 12.742188 21.082031 12.402344 21.066406 11.953125 20.824219 C 11.875 20.757812 11.796875 20.691406 11.71875 20.625 C 11.71875 20.5625 11.71875 20.5 11.71875 20.4375 C 11.277344 20.816406 10.851562 21.203125 10.449219 21.621094 C 10.242188 21.816406 10.117188 21.84375 9.832031 21.890625 C 9.304688 21.820312 9.074219 21.539062 8.71875 21.164062 C 8.621094 21.070312 8.621094 21.070312 8.523438 20.96875 C 8.171875 20.613281 8.171875 20.613281 8.0625 20.4375 C 8.085938 20.152344 8.152344 20.066406 8.347656 19.851562 C 8.5625 19.550781 8.59375 19.382812 8.574219 19.023438 C 8.496094 18.699219 8.332031 18.5625 8.0625 18.375 C 7.6875 18.269531 7.5 18.238281 7.144531 18.402344 C 6.933594 18.558594 6.933594 18.558594 6.75 18.75 C 6.378906 18.722656 6.195312 18.617188 5.9375 18.351562 C 5.875 18.289062 5.8125 18.226562 5.746094 18.160156 C 5.679688 18.089844 5.613281 18.023438 5.542969 17.949219 C 5.476562 17.878906 5.40625 17.808594 5.332031 17.734375 C 5.109375 17.511719 4.890625 17.285156 4.667969 17.058594 C 4.449219 16.828125 4.226562 16.601562 4.003906 16.375 C 3.863281 16.234375 3.726562 16.09375 3.589844 15.953125 C 3.527344 15.890625 3.464844 15.824219 3.398438 15.761719 C 3.316406 15.675781 3.316406 15.675781 3.234375 15.589844 C 3.101562 15.449219 3.101562 15.449219 2.90625 15.46875 C 2.78125 15.589844 2.652344 15.71875 2.53125 15.84375 C 2.207031 16.003906 1.855469 15.972656 1.5 15.9375 C 1.132812 15.78125 0.992188 15.644531 0.84375 15.28125 C 0.785156 14.90625 0.738281 14.507812 0.949219 14.179688 C 1.078125 14.050781 1.078125 14.050781 1.3125 13.875 C 1.140625 13.421875 0.75 13.132812 0.390625 12.820312 C 0.101562 12.550781 0.0078125 12.410156 -0.078125 12.011719 C -0.0390625 11.492188 0.339844 11.203125 0.703125 10.875 C 0.769531 10.8125 0.835938 10.746094 0.90625 10.683594 C 1.070312 10.523438 1.238281 10.371094 1.40625 10.21875 C 1.613281 10.316406 1.78125 10.40625 1.957031 10.550781 C 2.21875 10.730469 2.402344 10.769531 2.71875 10.78125 C 3.117188 10.65625 3.25 10.550781 3.46875 10.191406 C 3.578125 9.789062 3.558594 9.648438 3.375 9.28125 C 3.1875 9.019531 3.1875 9.019531 3 8.8125 C 3.128906 8.527344 3.269531 8.335938 3.492188 8.117188 C 3.558594 8.054688 3.617188 7.996094 3.683594 7.933594 C 3.75 7.867188 3.816406 7.804688 3.886719 7.738281 C 4.027344 7.597656 4.167969 7.460938 4.308594 7.324219 C 4.53125 7.105469 4.753906 6.890625 4.976562 6.671875 C 5.191406 6.464844 5.40625 6.253906 5.621094 6.042969 C 5.6875 5.980469 5.753906 5.914062 5.824219 5.847656 C 5.886719 5.789062 5.949219 5.726562 6.011719 5.664062 C 6.066406 5.609375 6.121094 5.558594 6.175781 5.503906 C 6.304688 5.347656 6.304688 5.347656 6.257812 5.148438 C 6.195312 4.960938 6.195312 4.960938 6.046875 4.804688 C 5.84375 4.5 5.800781 4.199219 5.8125 3.84375 C 5.925781 3.511719 6.03125 3.335938 6.292969 3.105469 C 6.671875 2.957031 7.007812 2.921875 7.40625 3 C 7.636719 3.136719 7.78125 3.277344 7.96875 3.46875 C 8.425781 3.296875 8.714844 2.902344 9.027344 2.546875 C 9.378906 2.175781 9.597656 2.066406 10.125 2.15625 Z M 10.125 2.15625 "/>
<path style=" stroke:none;fill-rule:nonzero;fill:rgb(5.490196%,81.960785%,69.803923%);fill-opacity:1;" d="M 9.84375 12 C 10.265625 12.347656 10.667969 12.707031 11.0625 13.082031 C 11.109375 13.125 11.15625 13.171875 11.207031 13.214844 C 11.339844 13.34375 11.339844 13.34375 11.53125 13.59375 C 11.523438 13.851562 11.523438 13.851562 11.4375 14.0625 C 11.390625 14.101562 11.34375 14.144531 11.296875 14.183594 C 11.105469 14.402344 11.078125 14.617188 11.050781 14.898438 C 11.070312 15.222656 11.230469 15.417969 11.4375 15.65625 C 11.738281 15.808594 12.046875 15.808594 12.375 15.75 C 12.539062 15.644531 12.539062 15.644531 12.679688 15.511719 C 12.765625 15.433594 12.847656 15.359375 12.9375 15.28125 C 13.402344 15.320312 13.675781 15.683594 13.992188 15.996094 C 14.082031 16.082031 14.082031 16.082031 14.175781 16.167969 C 14.476562 16.460938 14.613281 16.613281 14.683594 17.035156 C 14.621094 17.363281 14.566406 17.484375 14.339844 17.71875 C 14.277344 17.78125 14.21875 17.84375 14.15625 17.90625 C 13.605469 18.453125 13.605469 18.453125 13.433594 18.613281 C 13.292969 18.742188 13.292969 18.742188 13.3125 18.9375 C 13.433594 19.0625 13.5625 19.191406 13.6875 19.3125 C 13.839844 19.613281 13.824219 19.921875 13.78125 20.25 C 13.628906 20.539062 13.5 20.738281 13.242188 20.941406 C 12.742188 21.082031 12.402344 21.066406 11.953125 20.824219 C 11.875 20.757812 11.796875 20.691406 11.71875 20.625 C 11.71875 20.5625 11.71875 20.5 11.71875 20.4375 C 11.277344 20.816406 10.851562 21.203125 10.449219 21.621094 C 10.242188 21.816406 10.117188 21.84375 9.832031 21.890625 C 9.304688 21.820312 9.074219 21.539062 8.71875 21.164062 C 8.652344 21.101562 8.589844 21.035156 8.523438 20.96875 C 8.171875 20.613281 8.171875 20.613281 8.0625 20.4375 C 8.085938 20.152344 8.152344 20.066406 8.347656 19.851562 C 8.5625 19.550781 8.59375 19.382812 8.574219 19.023438 C 8.496094 18.699219 8.332031 18.5625 8.0625 18.375 C 7.6875 18.269531 7.5 18.238281 7.144531 18.402344 C 6.933594 18.558594 6.933594 18.558594 6.75 18.75 C 6.359375 18.726562 6.175781 18.59375 5.90625 18.320312 C 5.839844 18.25 5.773438 18.183594 5.707031 18.113281 C 5.640625 18.042969 5.570312 17.972656 5.503906 17.902344 C 5.433594 17.828125 5.363281 17.757812 5.292969 17.683594 C 5.121094 17.507812 4.949219 17.332031 4.78125 17.15625 C 4.910156 16.863281 5.0625 16.667969 5.292969 16.445312 C 5.355469 16.386719 5.414062 16.324219 5.480469 16.261719 C 5.578125 16.167969 5.578125 16.167969 5.675781 16.074219 C 5.808594 15.949219 5.9375 15.820312 6.066406 15.695312 C 6.121094 15.640625 6.179688 15.585938 6.238281 15.53125 C 6.398438 15.371094 6.398438 15.371094 6.46875 15.09375 C 6.410156 15.070312 6.351562 15.046875 6.292969 15.023438 C 6.046875 14.878906 5.992188 14.804688 5.90625 14.53125 C 5.835938 13.902344 5.835938 13.902344 6.003906 13.609375 C 6.171875 13.40625 6.324219 13.242188 6.5625 13.125 C 7.023438 13.085938 7.230469 13.078125 7.640625 13.300781 C 7.757812 13.398438 7.757812 13.398438 7.875 13.5 C 7.875 13.5625 7.875 13.625 7.875 13.6875 C 8.339844 13.449219 8.660156 13.109375 9.019531 12.738281 C 9.132812 12.617188 9.25 12.5 9.367188 12.378906 C 9.417969 12.328125 9.46875 12.273438 9.523438 12.21875 C 9.65625 12.09375 9.65625 12.09375 9.84375 12 Z M 9.84375 12 "/>
<path style=" stroke:none;fill-rule:nonzero;fill:rgb(100%,87.843138%,46.27451%);fill-opacity:1;" d="M 19.398438 7.167969 C 19.789062 7.269531 20.023438 7.578125 20.285156 7.875 C 20.398438 8 20.511719 8.121094 20.628906 8.246094 C 20.675781 8.296875 20.726562 8.355469 20.777344 8.410156 C 20.898438 8.554688 20.898438 8.554688 21.09375 8.53125 C 21.222656 8.410156 21.347656 8.28125 21.46875 8.15625 C 21.6875 8.046875 21.824219 8.046875 22.066406 8.042969 C 22.175781 8.042969 22.175781 8.042969 22.285156 8.039062 C 22.625 8.074219 22.816406 8.183594 23.039062 8.4375 C 23.207031 8.84375 23.234375 9.222656 23.15625 9.65625 C 23.019531 9.871094 22.894531 9.96875 22.6875 10.125 C 22.859375 10.578125 23.25 10.867188 23.609375 11.179688 C 23.898438 11.449219 23.992188 11.589844 24.078125 11.988281 C 24.039062 12.507812 23.660156 12.796875 23.296875 13.125 C 23.230469 13.1875 23.164062 13.253906 23.09375 13.316406 C 22.929688 13.476562 22.761719 13.628906 22.59375 13.78125 C 22.386719 13.683594 22.21875 13.59375 22.042969 13.449219 C 21.78125 13.269531 21.597656 13.230469 21.28125 13.21875 C 20.878906 13.34375 20.75 13.449219 20.53125 13.808594 C 20.421875 14.210938 20.441406 14.351562 20.625 14.71875 C 20.8125 14.980469 20.8125 14.980469 21 15.1875 C 20.8125 15.59375 20.546875 15.875 20.238281 16.195312 C 20.1875 16.25 20.136719 16.308594 20.082031 16.367188 C 19.820312 16.640625 19.609375 16.820312 19.222656 16.859375 C 18.726562 16.816406 18.464844 16.476562 18.152344 16.125 C 18.039062 16 17.925781 15.878906 17.808594 15.753906 C 17.761719 15.703125 17.710938 15.644531 17.660156 15.589844 C 17.539062 15.445312 17.539062 15.445312 17.34375 15.46875 C 17.21875 15.589844 17.089844 15.71875 16.96875 15.84375 C 16.640625 16.007812 16.292969 15.992188 15.9375 15.9375 C 15.648438 15.777344 15.429688 15.582031 15.28125 15.28125 C 15.230469 14.777344 15.230469 14.378906 15.5625 13.96875 C 15.65625 13.921875 15.65625 13.921875 15.75 13.875 C 15.578125 13.421875 15.1875 13.132812 14.828125 12.820312 C 14.539062 12.550781 14.445312 12.410156 14.359375 12.011719 C 14.402344 11.496094 14.757812 11.203125 15.117188 10.871094 C 15.179688 10.804688 15.246094 10.738281 15.3125 10.671875 C 15.667969 10.328125 15.667969 10.328125 15.84375 10.21875 C 16.121094 10.242188 16.199219 10.292969 16.394531 10.5 C 16.652344 10.742188 16.804688 10.773438 17.15625 10.78125 C 17.523438 10.660156 17.679688 10.554688 17.902344 10.238281 C 18.019531 9.882812 18.019531 9.726562 17.90625 9.375 C 17.761719 9.140625 17.605469 8.933594 17.4375 8.71875 C 17.652344 8.464844 17.875 8.21875 18.09375 7.96875 C 18.15625 7.898438 18.214844 7.824219 18.277344 7.753906 C 18.339844 7.683594 18.398438 7.617188 18.464844 7.546875 C 18.519531 7.484375 18.574219 7.421875 18.628906 7.355469 C 18.882812 7.191406 19.09375 7.152344 19.398438 7.167969 Z M 19.398438 7.167969 "/>
<path style=" stroke:none;fill-rule:nonzero;fill:rgb(98.823529%,27.450982%,32.941177%);fill-opacity:1;" d="M 4.6875 6.9375 C 5.183594 7.351562 5.636719 7.789062 6.085938 8.253906 C 6.210938 8.378906 6.339844 8.503906 6.46875 8.625 C 6.6875 8.648438 6.6875 8.648438 6.890625 8.394531 C 7.007812 8.277344 7.007812 8.277344 7.125 8.15625 C 7.460938 7.988281 7.804688 8.054688 8.15625 8.15625 C 8.421875 8.335938 8.582031 8.519531 8.71875 8.8125 C 8.761719 9.117188 8.730469 9.367188 8.625 9.65625 C 8.386719 9.941406 8.386719 9.941406 8.15625 10.125 C 8.285156 10.421875 8.4375 10.617188 8.671875 10.84375 C 8.734375 10.90625 8.796875 10.96875 8.859375 11.03125 C 8.925781 11.097656 8.992188 11.160156 9.058594 11.226562 C 9.125 11.292969 9.191406 11.355469 9.257812 11.425781 C 9.421875 11.585938 9.585938 11.746094 9.75 11.90625 C 9.546875 12.359375 9.214844 12.660156 8.863281 13.007812 C 8.800781 13.074219 8.738281 13.136719 8.671875 13.207031 C 8.609375 13.265625 8.546875 13.328125 8.484375 13.394531 C 8.429688 13.449219 8.371094 13.507812 8.316406 13.566406 C 8.15625 13.6875 8.15625 13.6875 7.875 13.6875 C 7.746094 13.566406 7.621094 13.441406 7.5 13.3125 C 7.199219 13.164062 6.886719 13.171875 6.5625 13.21875 C 6.300781 13.386719 6.140625 13.5 6 13.78125 C 5.96875 14.28125 5.957031 14.589844 6.28125 15 C 6.34375 15.03125 6.40625 15.0625 6.46875 15.09375 C 6.414062 15.445312 6.269531 15.609375 6.015625 15.855469 C 5.910156 15.960938 5.910156 15.960938 5.800781 16.066406 C 5.726562 16.140625 5.648438 16.214844 5.574219 16.289062 C 5.496094 16.363281 5.421875 16.4375 5.34375 16.515625 C 5.15625 16.699219 4.96875 16.878906 4.78125 17.0625 C 4.308594 16.667969 3.871094 16.253906 3.445312 15.808594 C 3.332031 15.691406 3.210938 15.578125 3.09375 15.46875 C 2.886719 15.445312 2.886719 15.445312 2.71875 15.652344 C 2.65625 15.714844 2.59375 15.777344 2.53125 15.84375 C 2.207031 16.003906 1.855469 15.972656 1.5 15.9375 C 1.132812 15.78125 0.992188 15.644531 0.84375 15.28125 C 0.785156 14.90625 0.738281 14.507812 0.949219 14.179688 C 1.078125 14.050781 1.078125 14.050781 1.3125 13.875 C 1.140625 13.421875 0.75 13.132812 0.390625 12.820312 C 0.101562 12.550781 0.0078125 12.410156 -0.078125 12.011719 C -0.0390625 11.492188 0.339844 11.203125 0.703125 10.875 C 0.769531 10.8125 0.835938 10.746094 0.90625 10.683594 C 1.070312 10.523438 1.238281 10.371094 1.40625 10.21875 C 1.613281 10.316406 1.78125 10.40625 1.957031 10.550781 C 2.21875 10.730469 2.402344 10.769531 2.71875 10.78125 C 3.117188 10.65625 3.25 10.550781 3.46875 10.191406 C 3.578125 9.789062 3.558594 9.648438 3.375 9.28125 C 3.1875 9.019531 3.1875 9.019531 3 8.8125 C 3.132812 8.507812 3.296875 8.304688 3.535156 8.074219 C 3.601562 8.007812 3.667969 7.941406 3.738281 7.871094 C 3.808594 7.804688 3.878906 7.734375 3.949219 7.664062 C 4.019531 7.59375 4.089844 7.523438 4.164062 7.453125 C 4.335938 7.28125 4.511719 7.109375 4.6875 6.9375 Z M 4.6875 6.9375 "/>
<path style=" stroke:none;fill-rule:nonzero;fill:rgb(3.921569%,71.764708%,62.7451%);fill-opacity:1;" d="M 13.125 15.296875 C 13.480469 15.441406 13.722656 15.730469 13.992188 15.996094 C 14.054688 16.050781 14.113281 16.109375 14.175781 16.167969 C 14.476562 16.460938 14.613281 16.613281 14.683594 17.035156 C 14.621094 17.359375 14.566406 17.484375 14.335938 17.71875 C 14.277344 17.78125 14.21875 17.84375 14.160156 17.90625 C 13.605469 18.453125 13.605469 18.453125 13.433594 18.613281 C 13.292969 18.742188 13.292969 18.742188 13.3125 18.9375 C 13.433594 19.066406 13.5625 19.1875 13.6875 19.3125 C 13.839844 19.613281 13.824219 19.921875 13.78125 20.25 C 13.628906 20.542969 13.5 20.738281 13.242188 20.941406 C 12.921875 21.03125 12.613281 21.046875 12.28125 21 C 12.046875 20.859375 12.046875 20.859375 11.90625 20.71875 C 11.953125 20.65625 12 20.59375 12.046875 20.53125 C 12.222656 20.183594 12.273438 19.878906 12.1875 19.5 C 12.082031 19.335938 12.082031 19.335938 11.945312 19.195312 C 11.871094 19.109375 11.796875 19.023438 11.71875 18.9375 C 11.746094 18.625 11.863281 18.484375 12.085938 18.277344 C 12.144531 18.226562 12.199219 18.175781 12.253906 18.125 C 12.371094 18.015625 12.484375 17.914062 12.601562 17.808594 C 12.945312 17.488281 12.945312 17.488281 13.089844 17.046875 C 13.023438 16.734375 12.929688 16.613281 12.703125 16.390625 C 12.375 16.058594 12.375 16.058594 12.375 15.75 C 12.851562 15.273438 12.851562 15.273438 13.125 15.296875 Z M 13.125 15.296875 "/>
<path style=" stroke:none;fill-rule:nonzero;fill:rgb(31.37255%,40.000001%,81.568629%);fill-opacity:1;" d="M 12.84375 5.25 C 13.039062 5.210938 13.039062 5.210938 13.3125 5.25 C 13.550781 5.425781 13.746094 5.632812 13.945312 5.847656 C 14 5.90625 14.054688 5.960938 14.113281 6.019531 C 14.605469 6.527344 14.605469 6.527344 14.671875 6.953125 C 14.605469 7.464844 14.339844 7.671875 13.96875 8.011719 C 13.90625 8.070312 13.84375 8.128906 13.78125 8.191406 C 13.625 8.335938 13.46875 8.480469 13.3125 8.625 C 13.414062 8.835938 13.515625 9.019531 13.652344 9.210938 C 13.824219 9.550781 13.859375 9.851562 13.78125 10.21875 C 13.617188 10.527344 13.390625 10.730469 13.101562 10.921875 C 12.710938 10.992188 12.375 10.886719 12 10.78125 C 12 10.5 12 10.5 12.09375 10.339844 C 12.234375 10.019531 12.253906 9.714844 12.1875 9.375 C 12.050781 9.152344 11.90625 9 11.71875 8.8125 C 11.867188 8.433594 12.140625 8.1875 12.425781 7.910156 C 12.863281 7.507812 12.863281 7.507812 13.082031 6.972656 C 13.011719 6.53125 12.769531 6.359375 12.445312 6.070312 C 12.390625 6.015625 12.335938 5.960938 12.28125 5.90625 C 12.28125 5.84375 12.28125 5.78125 12.28125 5.71875 C 12.4375 5.625 12.59375 5.53125 12.75 5.4375 C 12.78125 5.375 12.8125 5.3125 12.84375 5.25 Z M 12.84375 5.25 "/>
<path style=" stroke:none;fill-rule:nonzero;fill:rgb(100%,81.960785%,36.078432%);fill-opacity:1;" d="M 22.078125 8.039062 C 22.148438 8.039062 22.21875 8.039062 22.292969 8.039062 C 22.625 8.078125 22.820312 8.1875 23.039062 8.4375 C 23.207031 8.84375 23.234375 9.222656 23.15625 9.65625 C 23.019531 9.871094 22.894531 9.96875 22.6875 10.125 C 22.859375 10.578125 23.25 10.867188 23.609375 11.179688 C 23.898438 11.449219 23.992188 11.589844 24.078125 11.988281 C 24.039062 12.507812 23.660156 12.796875 23.296875 13.125 C 23.230469 13.1875 23.164062 13.253906 23.09375 13.316406 C 22.929688 13.476562 22.761719 13.628906 22.59375 13.78125 C 22.261719 13.621094 21.960938 13.425781 21.65625 13.21875 C 21.746094 13.113281 21.835938 13.007812 21.925781 12.902344 C 21.976562 12.84375 22.027344 12.785156 22.078125 12.726562 C 22.183594 12.605469 22.292969 12.488281 22.40625 12.375 C 22.464844 12 22.5 11.761719 22.28125 11.441406 C 22.113281 11.257812 21.9375 11.089844 21.75 10.921875 C 21.6875 10.863281 21.625 10.804688 21.5625 10.742188 C 21.40625 10.597656 21.25 10.453125 21.09375 10.3125 C 21.191406 10.101562 21.273438 9.945312 21.433594 9.777344 C 21.636719 9.441406 21.617188 9.101562 21.5625 8.71875 C 21.4375 8.4375 21.4375 8.4375 21.28125 8.25 C 21.558594 8.089844 21.757812 8.039062 22.078125 8.039062 Z M 22.078125 8.039062 "/>
<path style=" stroke:none;fill-rule:nonzero;fill:rgb(97.647059%,16.862746%,23.137255%);fill-opacity:1;" d="M 7.941406 8.089844 C 8.261719 8.191406 8.429688 8.347656 8.628906 8.617188 C 8.792969 8.972656 8.757812 9.292969 8.625 9.65625 C 8.386719 9.945312 8.386719 9.945312 8.15625 10.125 C 8.285156 10.421875 8.441406 10.617188 8.671875 10.84375 C 8.734375 10.90625 8.796875 10.96875 8.859375 11.03125 C 8.957031 11.128906 8.957031 11.128906 9.058594 11.226562 C 9.125 11.292969 9.191406 11.359375 9.257812 11.425781 C 9.421875 11.585938 9.585938 11.746094 9.75 11.90625 C 9.546875 12.363281 9.214844 12.660156 8.863281 13.007812 C 8.800781 13.074219 8.738281 13.140625 8.671875 13.207031 C 8.609375 13.265625 8.546875 13.328125 8.484375 13.394531 C 8.429688 13.449219 8.371094 13.507812 8.316406 13.5625 C 8.15625 13.6875 8.15625 13.6875 7.875 13.6875 C 7.746094 13.566406 7.621094 13.441406 7.5 13.3125 C 7.4375 13.28125 7.375 13.25 7.3125 13.21875 C 7.476562 12.835938 7.71875 12.628906 8.027344 12.363281 C 8.175781 12.195312 8.175781 12.195312 8.171875 11.972656 C 7.976562 11.515625 7.570312 11.21875 7.203125 10.890625 C 7.039062 10.734375 6.886719 10.589844 6.75 10.40625 C 6.746094 10.101562 6.789062 10 6.988281 9.773438 C 7.246094 9.375 7.152344 8.882812 7.078125 8.429688 C 7.0625 8.371094 7.046875 8.3125 7.03125 8.25 C 7.378906 8.019531 7.539062 8.03125 7.941406 8.089844 Z M 7.941406 8.089844 "/>
<path style=" stroke:none;fill-rule:nonzero;fill:rgb(31.37255%,40.392157%,81.568629%);fill-opacity:1;" d="M 9.761719 2.101562 C 10.28125 2.179688 10.511719 2.449219 10.875 2.8125 C 10.941406 2.871094 11.003906 2.925781 11.070312 2.984375 C 11.527344 3.394531 11.527344 3.394531 11.546875 3.707031 C 11.4375 3.9375 11.4375 3.9375 11.238281 4.203125 C 10.996094 4.613281 11.050781 4.792969 11.15625 5.25 C 11.21875 5.34375 11.28125 5.433594 11.34375 5.53125 C 11.097656 5.777344 10.960938 5.8125 10.605469 5.851562 C 10.203125 5.839844 9.964844 5.695312 9.65625 5.4375 C 9.425781 5.09375 9.390625 4.804688 9.46875 4.40625 C 9.578125 4.246094 9.578125 4.246094 9.710938 4.101562 C 9.960938 3.878906 9.960938 3.878906 9.929688 3.664062 C 9.816406 3.410156 9.664062 3.261719 9.460938 3.070312 C 9.359375 2.96875 9.359375 2.96875 9.253906 2.871094 C 9.199219 2.820312 9.148438 2.769531 9.09375 2.71875 C 9.261719 2.359375 9.347656 2.179688 9.761719 2.101562 Z M 9.761719 2.101562 "/>
<path style=" stroke:none;fill-rule:nonzero;fill:rgb(3.921569%,71.372551%,62.352943%);fill-opacity:1;" d="M 9.84375 12 C 10.265625 12.347656 10.667969 12.707031 11.0625 13.082031 C 11.109375 13.125 11.15625 13.171875 11.207031 13.214844 C 11.339844 13.34375 11.339844 13.34375 11.53125 13.59375 C 11.523438 13.851562 11.523438 13.851562 11.4375 14.0625 C 11.390625 14.101562 11.34375 14.144531 11.296875 14.183594 C 11.066406 14.445312 11.058594 14.757812 11.0625 15.09375 C 11.140625 15.304688 11.140625 15.304688 11.25 15.46875 C 11.25 15.5625 11.25 15.65625 11.25 15.75 C 10.902344 15.972656 10.621094 15.992188 10.21875 15.9375 C 9.914062 15.738281 9.632812 15.515625 9.46875 15.1875 C 9.429688 14.78125 9.445312 14.574219 9.644531 14.207031 C 9.742188 14.089844 9.742188 14.089844 9.84375 13.96875 C 9.90625 13.96875 9.96875 13.96875 10.03125 13.96875 C 9.90625 13.589844 9.746094 13.371094 9.457031 13.097656 C 9.390625 13.03125 9.320312 12.964844 9.25 12.898438 C 9.199219 12.847656 9.148438 12.800781 9.09375 12.75 C 9.183594 12.640625 9.273438 12.535156 9.363281 12.425781 C 9.414062 12.367188 9.464844 12.308594 9.515625 12.246094 C 9.65625 12.09375 9.65625 12.09375 9.84375 12 Z M 9.84375 12 "/>
<path style=" stroke:none;fill-rule:nonzero;fill:rgb(100%,81.960785%,35.686275%);fill-opacity:1;" d="M 20.34375 13.125 C 20.578125 13.3125 20.578125 13.3125 20.71875 13.5 C 20.667969 13.597656 20.617188 13.691406 20.566406 13.792969 C 20.449219 14.066406 20.4375 14.144531 20.488281 14.449219 C 20.628906 14.730469 20.792969 14.953125 21 15.1875 C 20.8125 15.59375 20.546875 15.875 20.238281 16.195312 C 20.1875 16.25 20.136719 16.308594 20.085938 16.367188 C 19.808594 16.648438 19.605469 16.820312 19.203125 16.847656 C 18.84375 16.78125 18.84375 16.78125 18.46875 16.3125 C 18.777344 16.003906 19.085938 15.695312 19.40625 15.375 C 19.25 15.019531 19.25 15.019531 19.066406 14.839844 C 18.863281 14.5 18.863281 14.167969 18.9375 13.78125 C 19.265625 13.195312 19.691406 13.027344 20.34375 13.125 Z M 20.34375 13.125 "/>
<path style=" stroke:none;fill-rule:nonzero;fill:rgb(97.647059%,16.862746%,22.745098%);fill-opacity:1;" d="M 5.90625 13.125 C 6 13.1875 6.09375 13.25 6.1875 13.3125 C 6.15625 13.375 6.125 13.4375 6.09375 13.5 C 5.9375 13.964844 5.921875 14.359375 6.128906 14.808594 C 6.265625 15.007812 6.265625 15.007812 6.46875 15.09375 C 6.414062 15.445312 6.269531 15.609375 6.015625 15.855469 C 5.945312 15.925781 5.875 15.996094 5.800781 16.066406 C 5.6875 16.175781 5.6875 16.175781 5.574219 16.289062 C 5.496094 16.363281 5.421875 16.4375 5.34375 16.515625 C 5.15625 16.699219 4.96875 16.878906 4.78125 17.0625 C 4.671875 16.976562 4.5625 16.886719 4.453125 16.800781 C 4.390625 16.75 4.332031 16.699219 4.269531 16.652344 C 4.125 16.5 4.125 16.5 4.125 16.21875 C 4.3125 16.023438 4.515625 15.847656 4.71875 15.667969 C 4.902344 15.476562 4.902344 15.476562 4.859375 15.21875 C 4.796875 14.996094 4.796875 14.996094 4.636719 14.835938 C 4.421875 14.5 4.425781 14.167969 4.5 13.78125 C 4.832031 13.1875 5.25 13.046875 5.90625 13.125 Z M 5.90625 13.125 "/>
<path style=" stroke:none;fill-rule:nonzero;fill:rgb(3.921569%,72.156864%,62.7451%);fill-opacity:1;" d="M 10.179688 20.421875 C 10.460938 20.558594 10.714844 20.722656 10.96875 20.90625 C 10.78125 21.328125 10.515625 21.597656 10.125 21.84375 C 9.78125 21.902344 9.78125 21.902344 9.46875 21.84375 C 9.242188 21.65625 9.242188 21.65625 9.09375 21.46875 C 9.296875 21.019531 9.652344 20.457031 10.179688 20.421875 Z M 10.179688 20.421875 "/>
<path style=" stroke:none;fill-rule:nonzero;fill:rgb(32.156864%,40.000001%,80.784315%);fill-opacity:1;" d="M 10.3125 10.3125 C 10.441406 10.433594 10.566406 10.558594 10.6875 10.6875 C 10.75 10.71875 10.8125 10.75 10.875 10.78125 C 10.832031 11.1875 10.589844 11.375 10.308594 11.648438 C 10.21875 11.730469 10.132812 11.816406 10.046875 11.902344 C 9.980469 11.964844 9.914062 12.027344 9.84375 12.09375 C 9.570312 11.828125 9.316406 11.5625 9.09375 11.25 C 9.242188 11.09375 9.394531 10.9375 9.542969 10.78125 C 9.628906 10.695312 9.710938 10.605469 9.796875 10.519531 C 10.03125 10.3125 10.03125 10.3125 10.3125 10.3125 Z M 10.3125 10.3125 "/>
<path style=" stroke:none;fill-rule:nonzero;fill:rgb(100%,81.960785%,36.078432%);fill-opacity:1;" d="M 19.195312 7.140625 C 19.664062 7.167969 19.902344 7.460938 20.207031 7.785156 C 20.34375 7.96875 20.34375 7.96875 20.34375 8.15625 C 20.191406 8.253906 20.035156 8.347656 19.875 8.4375 C 19.8125 8.5 19.75 8.5625 19.6875 8.625 C 19.308594 8.605469 19.121094 8.367188 18.867188 8.101562 C 18.753906 7.988281 18.753906 7.988281 18.640625 7.867188 C 18.582031 7.808594 18.527344 7.75 18.46875 7.6875 C 18.679688 7.332031 18.785156 7.230469 19.195312 7.140625 Z M 19.195312 7.140625 "/>
<path style=" stroke:none;fill-rule:nonzero;fill:rgb(98.039216%,16.862746%,22.745098%);fill-opacity:1;" d="M 4.6875 6.9375 C 5.078125 7.265625 5.464844 7.59375 5.8125 7.96875 C 5.8125 8.03125 5.8125 8.09375 5.8125 8.15625 C 5.554688 8.410156 5.554688 8.410156 5.25 8.625 C 4.871094 8.609375 4.679688 8.367188 4.429688 8.105469 C 4.316406 7.988281 4.316406 7.988281 4.203125 7.867188 C 4.144531 7.808594 4.089844 7.75 4.03125 7.6875 C 4.125 7.578125 4.214844 7.472656 4.308594 7.363281 C 4.359375 7.304688 4.410156 7.246094 4.460938 7.183594 C 4.535156 7.101562 4.609375 7.015625 4.6875 6.9375 Z M 4.6875 6.9375 "/>
</g>
</svg>
