<?xml version="1.0" encoding="UTF-8"?>
<svg xmlns="http://www.w3.org/2000/svg" xmlns:xlink="http://www.w3.org/1999/xlink" width="24" height="24" viewBox="0 0 24 24" version="1.1">
<g id="surface1">
<path style=" stroke:none;fill-rule:nonzero;fill:rgb(94.509804%,38.039216%,45.882353%);fill-opacity:1;" d="M 1.898438 15.523438 C 2.019531 15.519531 2.136719 15.519531 2.261719 15.519531 C 2.390625 15.519531 2.519531 15.519531 2.648438 15.519531 C 2.78125 15.515625 2.914062 15.515625 3.046875 15.515625 C 3.328125 15.515625 3.605469 15.515625 3.882812 15.515625 C 4.242188 15.515625 4.597656 15.511719 4.953125 15.507812 C 5.230469 15.507812 5.503906 15.507812 5.777344 15.507812 C 5.910156 15.507812 6.042969 15.507812 6.171875 15.503906 C 6.355469 15.503906 6.542969 15.503906 6.726562 15.503906 C 6.828125 15.503906 6.933594 15.503906 7.042969 15.503906 C 7.3125 15.5625 7.3125 15.5625 7.535156 15.789062 C 7.691406 16.035156 7.734375 16.140625 7.722656 16.425781 C 7.722656 16.488281 7.722656 16.550781 7.722656 16.617188 C 7.71875 16.695312 7.714844 16.777344 7.710938 16.855469 C 7.703125 17.109375 7.695312 17.363281 7.6875 17.625 C 8.476562 17.578125 8.476562 17.578125 9.28125 17.53125 C 9.125 17.375 8.972656 17.222656 8.8125 17.0625 C 8.828125 16.847656 8.828125 16.847656 8.90625 16.6875 C 9.21875 16.824219 9.441406 17 9.6875 17.238281 C 9.753906 17.300781 9.820312 17.367188 9.890625 17.429688 C 10.03125 17.625 10.03125 17.625 10.03125 17.808594 C 9.902344 18.074219 9.722656 18.242188 9.507812 18.445312 C 9.433594 18.519531 9.355469 18.59375 9.273438 18.671875 C 9.214844 18.730469 9.15625 18.785156 9.09375 18.84375 C 8.953125 18.796875 8.953125 18.796875 8.8125 18.75 C 8.871094 18.410156 8.921875 18.359375 9.1875 18.09375 C 8.691406 18.0625 8.195312 18.03125 7.6875 18 C 7.6875 18.527344 7.6875 19.050781 7.6875 19.59375 C 8.738281 19.59375 9.789062 19.59375 10.875 19.59375 C 10.871094 19.335938 10.867188 19.074219 10.863281 18.808594 C 10.859375 18.554688 10.855469 18.304688 10.855469 18.050781 C 10.851562 17.878906 10.851562 17.703125 10.847656 17.527344 C 10.839844 17.277344 10.839844 17.023438 10.839844 16.773438 C 10.835938 16.695312 10.835938 16.617188 10.832031 16.539062 C 10.832031 16.429688 10.832031 16.429688 10.832031 16.316406 C 10.832031 16.25 10.832031 16.1875 10.828125 16.121094 C 10.898438 15.847656 11.039062 15.738281 11.25 15.5625 C 11.472656 15.515625 11.472656 15.515625 11.726562 15.515625 C 11.824219 15.515625 11.917969 15.515625 12.019531 15.511719 C 12.125 15.515625 12.226562 15.515625 12.335938 15.515625 C 12.503906 15.515625 12.503906 15.515625 12.671875 15.515625 C 12.976562 15.511719 13.28125 15.515625 13.585938 15.515625 C 13.902344 15.515625 14.222656 15.515625 14.539062 15.515625 C 15.074219 15.515625 15.609375 15.515625 16.144531 15.519531 C 16.761719 15.519531 17.378906 15.519531 17.996094 15.519531 C 18.59375 15.519531 19.1875 15.519531 19.78125 15.519531 C 20.035156 15.523438 20.289062 15.523438 20.542969 15.519531 C 20.894531 15.519531 21.246094 15.523438 21.601562 15.523438 C 21.707031 15.523438 21.808594 15.523438 21.917969 15.523438 C 22.015625 15.523438 22.113281 15.523438 22.210938 15.527344 C 22.335938 15.527344 22.335938 15.527344 22.464844 15.527344 C 22.734375 15.570312 22.863281 15.660156 23.0625 15.84375 C 23.109375 16.019531 23.109375 16.019531 23.105469 16.21875 C 23.105469 16.292969 23.105469 16.371094 23.105469 16.449219 C 23.101562 16.527344 23.101562 16.609375 23.097656 16.691406 C 23.097656 16.773438 23.097656 16.855469 23.097656 16.941406 C 23.097656 17.207031 23.089844 17.472656 23.085938 17.738281 C 23.082031 17.914062 23.082031 18.09375 23.082031 18.273438 C 23.078125 18.714844 23.070312 19.152344 23.0625 19.59375 C 23.15625 19.625 23.246094 19.65625 23.34375 19.6875 C 23.3125 19.78125 23.28125 19.875 23.25 19.96875 C 15.824219 19.96875 8.398438 19.96875 0.75 19.96875 C 0.75 19.84375 0.75 19.722656 0.75 19.59375 C 0.8125 19.59375 0.875 19.59375 0.9375 19.59375 C 0.933594 19.480469 0.933594 19.371094 0.929688 19.253906 C 0.925781 18.839844 0.921875 18.421875 0.917969 18.007812 C 0.914062 17.828125 0.914062 17.648438 0.910156 17.46875 C 0.902344 17.207031 0.902344 16.949219 0.902344 16.691406 C 0.898438 16.609375 0.898438 16.53125 0.894531 16.449219 C 0.894531 16.335938 0.894531 16.335938 0.894531 16.21875 C 0.894531 16.152344 0.894531 16.085938 0.890625 16.019531 C 0.9375 15.84375 0.9375 15.84375 1.089844 15.683594 C 1.375 15.527344 1.578125 15.527344 1.898438 15.523438 Z M 1.898438 15.523438 "/>
<path style=" stroke:none;fill-rule:nonzero;fill:rgb(61.176473%,61.176473%,61.56863%);fill-opacity:1;" d="M 11.730469 2.953125 C 11.875 2.953125 11.875 2.953125 12.023438 2.949219 C 12.132812 2.949219 12.238281 2.953125 12.347656 2.953125 C 12.515625 2.953125 12.515625 2.953125 12.6875 2.949219 C 12.992188 2.949219 13.300781 2.949219 13.605469 2.953125 C 13.929688 2.953125 14.25 2.953125 14.570312 2.953125 C 15.109375 2.953125 15.648438 2.953125 16.191406 2.957031 C 16.8125 2.957031 17.4375 2.957031 18.0625 2.957031 C 18.660156 2.957031 19.261719 2.957031 19.859375 2.957031 C 20.117188 2.960938 20.371094 2.960938 20.628906 2.957031 C 20.984375 2.957031 21.339844 2.960938 21.695312 2.960938 C 21.800781 2.960938 21.910156 2.960938 22.019531 2.960938 C 22.117188 2.960938 22.210938 2.960938 22.3125 2.964844 C 22.4375 2.964844 22.4375 2.964844 22.566406 2.964844 C 22.824219 3.007812 22.90625 3.078125 23.0625 3.28125 C 23.097656 3.460938 23.097656 3.460938 23.101562 3.660156 C 23.101562 3.773438 23.101562 3.773438 23.105469 3.890625 C 23.105469 3.972656 23.105469 4.054688 23.101562 4.140625 C 23.105469 4.222656 23.105469 4.308594 23.105469 4.394531 C 23.105469 4.574219 23.105469 4.75 23.105469 4.929688 C 23.105469 5.203125 23.105469 5.476562 23.109375 5.746094 C 23.109375 5.921875 23.109375 6.09375 23.109375 6.265625 C 23.109375 6.347656 23.109375 6.429688 23.113281 6.515625 C 23.109375 6.589844 23.109375 6.667969 23.109375 6.746094 C 23.109375 6.8125 23.109375 6.878906 23.109375 6.945312 C 23.039062 7.207031 22.914062 7.269531 22.6875 7.40625 C 22.464844 7.441406 22.464844 7.441406 22.210938 7.441406 C 22.113281 7.445312 22.019531 7.445312 21.917969 7.445312 C 21.8125 7.445312 21.707031 7.445312 21.601562 7.445312 C 21.433594 7.445312 21.433594 7.445312 21.265625 7.445312 C 20.960938 7.449219 20.65625 7.449219 20.351562 7.449219 C 20.097656 7.445312 19.84375 7.449219 19.589844 7.449219 C 18.992188 7.449219 18.390625 7.449219 17.792969 7.449219 C 17.175781 7.449219 16.558594 7.449219 15.9375 7.449219 C 15.410156 7.453125 14.878906 7.453125 14.347656 7.453125 C 14.03125 7.453125 13.710938 7.453125 13.394531 7.453125 C 13.042969 7.457031 12.691406 7.453125 12.335938 7.453125 C 12.179688 7.453125 12.179688 7.453125 12.019531 7.457031 C 11.921875 7.453125 11.824219 7.453125 11.726562 7.453125 C 11.644531 7.453125 11.558594 7.453125 11.472656 7.453125 C 11.179688 7.390625 11.0625 7.261719 10.875 7.03125 C 10.828125 6.851562 10.828125 6.851562 10.828125 6.660156 C 10.824219 6.585938 10.824219 6.515625 10.824219 6.441406 C 10.824219 6.363281 10.824219 6.285156 10.824219 6.207031 C 10.824219 6.128906 10.824219 6.046875 10.824219 5.964844 C 10.824219 5.796875 10.824219 5.628906 10.828125 5.460938 C 10.828125 5.203125 10.828125 4.945312 10.824219 4.6875 C 10.824219 4.523438 10.824219 4.363281 10.824219 4.199219 C 10.824219 4.121094 10.824219 4.042969 10.824219 3.964844 C 10.824219 3.894531 10.824219 3.820312 10.828125 3.746094 C 10.828125 3.683594 10.828125 3.621094 10.828125 3.558594 C 10.949219 3.089844 11.285156 2.953125 11.730469 2.953125 Z M 11.730469 2.953125 "/>
<path style=" stroke:none;fill-rule:nonzero;fill:rgb(38.039216%,72.156864%,89.019608%);fill-opacity:1;" d="M 11.726562 9.234375 C 11.824219 9.234375 11.917969 9.230469 12.019531 9.230469 C 12.125 9.230469 12.226562 9.234375 12.335938 9.234375 C 12.503906 9.234375 12.503906 9.234375 12.671875 9.230469 C 12.976562 9.230469 13.28125 9.230469 13.585938 9.234375 C 13.902344 9.234375 14.222656 9.234375 14.539062 9.234375 C 15.074219 9.234375 15.609375 9.234375 16.144531 9.238281 C 16.761719 9.238281 17.378906 9.238281 17.996094 9.238281 C 18.59375 9.238281 19.1875 9.238281 19.78125 9.238281 C 20.035156 9.242188 20.289062 9.242188 20.542969 9.238281 C 20.894531 9.238281 21.246094 9.242188 21.601562 9.242188 C 21.707031 9.242188 21.808594 9.242188 21.917969 9.242188 C 22.015625 9.242188 22.113281 9.242188 22.210938 9.246094 C 22.335938 9.246094 22.335938 9.246094 22.464844 9.246094 C 22.734375 9.289062 22.863281 9.378906 23.0625 9.5625 C 23.109375 9.742188 23.109375 9.742188 23.109375 9.941406 C 23.113281 10.019531 23.113281 10.09375 23.113281 10.171875 C 23.113281 10.253906 23.113281 10.335938 23.113281 10.421875 C 23.113281 10.503906 23.113281 10.589844 23.113281 10.675781 C 23.113281 10.855469 23.113281 11.03125 23.113281 11.210938 C 23.109375 11.484375 23.113281 11.757812 23.113281 12.027344 C 23.113281 12.203125 23.113281 12.375 23.113281 12.546875 C 23.113281 12.628906 23.113281 12.710938 23.113281 12.796875 C 23.113281 12.910156 23.113281 12.910156 23.109375 13.027344 C 23.109375 13.09375 23.109375 13.160156 23.109375 13.226562 C 23.039062 13.488281 22.910156 13.550781 22.6875 13.6875 C 22.464844 13.722656 22.464844 13.722656 22.210938 13.722656 C 22.113281 13.726562 22.019531 13.726562 21.917969 13.726562 C 21.8125 13.726562 21.710938 13.726562 21.601562 13.726562 C 21.433594 13.726562 21.433594 13.726562 21.265625 13.726562 C 20.960938 13.730469 20.65625 13.730469 20.351562 13.730469 C 20.097656 13.726562 19.84375 13.730469 19.589844 13.730469 C 18.992188 13.730469 18.390625 13.730469 17.792969 13.730469 C 17.175781 13.730469 16.558594 13.730469 15.9375 13.730469 C 15.410156 13.734375 14.878906 13.734375 14.347656 13.734375 C 14.03125 13.734375 13.714844 13.734375 13.394531 13.734375 C 13.042969 13.738281 12.691406 13.734375 12.335938 13.734375 C 12.179688 13.734375 12.179688 13.734375 12.019531 13.738281 C 11.921875 13.734375 11.824219 13.734375 11.726562 13.734375 C 11.644531 13.734375 11.558594 13.734375 11.472656 13.734375 C 11.175781 13.671875 11.0625 13.542969 10.875 13.3125 C 10.828125 13.132812 10.828125 13.132812 10.828125 12.941406 C 10.824219 12.867188 10.824219 12.796875 10.824219 12.722656 C 10.824219 12.644531 10.824219 12.566406 10.824219 12.488281 C 10.824219 12.410156 10.824219 12.328125 10.824219 12.246094 C 10.824219 12.078125 10.824219 11.910156 10.824219 11.742188 C 10.828125 11.484375 10.824219 11.226562 10.824219 10.96875 C 10.824219 10.804688 10.824219 10.644531 10.824219 10.480469 C 10.824219 10.402344 10.824219 10.324219 10.824219 10.246094 C 10.824219 10.175781 10.824219 10.101562 10.828125 10.027344 C 10.828125 9.964844 10.828125 9.902344 10.828125 9.839844 C 10.949219 9.375 11.285156 9.234375 11.726562 9.234375 Z M 11.726562 9.234375 "/>
<path style=" stroke:none;fill-rule:nonzero;fill:rgb(94.901961%,38.039216%,45.882353%);fill-opacity:1;" d="M 1.898438 15.523438 C 2.019531 15.519531 2.136719 15.519531 2.261719 15.519531 C 2.390625 15.519531 2.519531 15.519531 2.648438 15.519531 C 2.78125 15.515625 2.914062 15.515625 3.046875 15.515625 C 3.328125 15.515625 3.605469 15.515625 3.882812 15.515625 C 4.242188 15.515625 4.597656 15.511719 4.953125 15.507812 C 5.230469 15.507812 5.503906 15.507812 5.777344 15.507812 C 5.910156 15.507812 6.042969 15.507812 6.171875 15.503906 C 6.355469 15.503906 6.542969 15.503906 6.726562 15.503906 C 6.828125 15.503906 6.933594 15.503906 7.042969 15.503906 C 7.3125 15.5625 7.3125 15.5625 7.535156 15.789062 C 7.691406 16.035156 7.734375 16.140625 7.722656 16.425781 C 7.722656 16.488281 7.722656 16.550781 7.722656 16.617188 C 7.71875 16.695312 7.714844 16.777344 7.710938 16.855469 C 7.703125 17.109375 7.695312 17.363281 7.6875 17.625 C 8.476562 17.578125 8.476562 17.578125 9.28125 17.53125 C 9.125 17.375 8.972656 17.222656 8.8125 17.0625 C 8.828125 16.847656 8.828125 16.847656 8.90625 16.6875 C 9.21875 16.824219 9.441406 17 9.6875 17.238281 C 9.753906 17.300781 9.820312 17.367188 9.890625 17.429688 C 10.03125 17.625 10.03125 17.625 10.03125 17.808594 C 9.902344 18.074219 9.722656 18.242188 9.507812 18.445312 C 9.433594 18.519531 9.355469 18.59375 9.273438 18.671875 C 9.214844 18.730469 9.15625 18.785156 9.09375 18.84375 C 8.953125 18.796875 8.953125 18.796875 8.8125 18.75 C 8.871094 18.410156 8.921875 18.359375 9.1875 18.09375 C 8.691406 18.0625 8.195312 18.03125 7.6875 18 C 7.6875 18.527344 7.6875 19.050781 7.6875 19.59375 C 8.738281 19.59375 9.789062 19.59375 10.875 19.59375 C 10.871094 19.335938 10.867188 19.074219 10.863281 18.808594 C 10.859375 18.554688 10.855469 18.304688 10.855469 18.050781 C 10.851562 17.878906 10.851562 17.703125 10.847656 17.527344 C 10.839844 17.277344 10.839844 17.023438 10.839844 16.773438 C 10.835938 16.695312 10.835938 16.617188 10.832031 16.539062 C 10.832031 16.429688 10.832031 16.429688 10.832031 16.316406 C 10.832031 16.25 10.832031 16.1875 10.828125 16.121094 C 10.898438 15.847656 11.039062 15.738281 11.25 15.5625 C 11.472656 15.515625 11.472656 15.515625 11.726562 15.515625 C 11.824219 15.515625 11.917969 15.515625 12.019531 15.511719 C 12.125 15.515625 12.226562 15.515625 12.335938 15.515625 C 12.503906 15.515625 12.503906 15.515625 12.671875 15.515625 C 12.976562 15.511719 13.28125 15.515625 13.585938 15.515625 C 13.902344 15.515625 14.222656 15.515625 14.539062 15.515625 C 15.074219 15.515625 15.609375 15.515625 16.144531 15.519531 C 16.761719 15.519531 17.378906 15.519531 17.996094 15.519531 C 18.59375 15.519531 19.1875 15.519531 19.78125 15.519531 C 20.035156 15.523438 20.289062 15.523438 20.542969 15.519531 C 20.894531 15.519531 21.246094 15.523438 21.601562 15.523438 C 21.707031 15.523438 21.808594 15.523438 21.917969 15.523438 C 22.015625 15.523438 22.113281 15.523438 22.210938 15.527344 C 22.335938 15.527344 22.335938 15.527344 22.464844 15.527344 C 22.734375 15.570312 22.863281 15.660156 23.0625 15.84375 C 23.109375 16.019531 23.109375 16.019531 23.105469 16.21875 C 23.105469 16.292969 23.105469 16.371094 23.105469 16.449219 C 23.101562 16.527344 23.101562 16.609375 23.097656 16.691406 C 23.097656 16.773438 23.097656 16.855469 23.097656 16.941406 C 23.097656 17.207031 23.089844 17.472656 23.085938 17.738281 C 23.082031 17.914062 23.082031 18.09375 23.082031 18.273438 C 23.078125 18.714844 23.070312 19.152344 23.0625 19.59375 C 23.15625 19.625 23.246094 19.65625 23.34375 19.6875 C 23.3125 19.78125 23.28125 19.875 23.25 19.96875 C 15.824219 19.96875 8.398438 19.96875 0.75 19.96875 C 0.75 19.84375 0.75 19.722656 0.75 19.59375 C 0.8125 19.59375 0.875 19.59375 0.9375 19.59375 C 0.933594 19.480469 0.933594 19.371094 0.929688 19.253906 C 0.925781 18.839844 0.921875 18.421875 0.917969 18.007812 C 0.914062 17.828125 0.914062 17.648438 0.910156 17.46875 C 0.902344 17.207031 0.902344 16.949219 0.902344 16.691406 C 0.898438 16.609375 0.898438 16.53125 0.894531 16.449219 C 0.894531 16.335938 0.894531 16.335938 0.894531 16.21875 C 0.894531 16.152344 0.894531 16.085938 0.890625 16.019531 C 0.9375 15.84375 0.9375 15.84375 1.089844 15.683594 C 1.375 15.527344 1.578125 15.527344 1.898438 15.523438 Z M 11.25 16.03125 C 11.238281 16.285156 11.234375 16.539062 11.234375 16.792969 C 11.234375 16.871094 11.234375 16.945312 11.234375 17.023438 C 11.234375 17.1875 11.234375 17.347656 11.234375 17.507812 C 11.234375 17.757812 11.230469 18.007812 11.230469 18.253906 C 11.230469 18.414062 11.226562 18.570312 11.226562 18.726562 C 11.226562 18.800781 11.226562 18.875 11.226562 18.953125 C 11.210938 19.363281 11.210938 19.363281 11.4375 19.6875 C 11.640625 19.714844 11.640625 19.714844 11.882812 19.710938 C 11.976562 19.710938 12.070312 19.710938 12.167969 19.710938 C 12.269531 19.710938 12.375 19.710938 12.480469 19.710938 C 12.644531 19.710938 12.644531 19.710938 12.808594 19.710938 C 13.167969 19.714844 13.53125 19.710938 13.890625 19.710938 C 14.140625 19.710938 14.386719 19.710938 14.636719 19.710938 C 15.160156 19.710938 15.683594 19.710938 16.207031 19.710938 C 16.8125 19.710938 17.417969 19.710938 18.023438 19.710938 C 18.542969 19.710938 19.0625 19.710938 19.582031 19.710938 C 19.890625 19.710938 20.203125 19.710938 20.515625 19.710938 C 20.859375 19.714844 21.207031 19.710938 21.550781 19.710938 C 21.65625 19.710938 21.757812 19.710938 21.863281 19.710938 C 21.957031 19.710938 22.050781 19.710938 22.148438 19.710938 C 22.273438 19.710938 22.273438 19.710938 22.398438 19.710938 C 22.613281 19.707031 22.613281 19.707031 22.78125 19.5 C 22.796875 19.238281 22.804688 18.988281 22.800781 18.726562 C 22.800781 18.648438 22.800781 18.574219 22.800781 18.492188 C 22.800781 18.332031 22.800781 18.171875 22.800781 18.007812 C 22.796875 17.761719 22.796875 17.511719 22.796875 17.261719 C 22.796875 17.105469 22.796875 16.949219 22.796875 16.792969 C 22.796875 16.71875 22.796875 16.644531 22.796875 16.566406 C 22.824219 16.222656 22.824219 16.222656 22.6875 15.9375 C 22.539062 15.929688 22.394531 15.925781 22.246094 15.925781 C 22.152344 15.925781 22.054688 15.925781 21.957031 15.925781 C 21.851562 15.925781 21.746094 15.925781 21.636719 15.925781 C 21.472656 15.925781 21.472656 15.925781 21.300781 15.925781 C 21 15.925781 20.695312 15.925781 20.390625 15.925781 C 20.074219 15.925781 19.753906 15.925781 19.4375 15.925781 C 18.90625 15.925781 18.371094 15.925781 17.839844 15.925781 C 17.222656 15.925781 16.605469 15.925781 15.988281 15.925781 C 15.457031 15.925781 14.929688 15.925781 14.402344 15.925781 C 14.085938 15.925781 13.769531 15.925781 13.453125 15.925781 C 13.097656 15.925781 12.746094 15.925781 12.394531 15.925781 C 12.234375 15.925781 12.234375 15.925781 12.074219 15.925781 C 11.929688 15.925781 11.929688 15.925781 11.785156 15.925781 C 11.703125 15.925781 11.617188 15.925781 11.53125 15.925781 C 11.34375 15.917969 11.34375 15.917969 11.25 16.03125 Z M 11.25 16.03125 "/>
<path style=" stroke:none;fill-rule:nonzero;fill:rgb(61.56863%,61.56863%,61.56863%);fill-opacity:1;" d="M 1.898438 2.960938 C 2.019531 2.957031 2.136719 2.957031 2.261719 2.957031 C 2.390625 2.957031 2.519531 2.957031 2.648438 2.957031 C 2.78125 2.953125 2.914062 2.953125 3.046875 2.953125 C 3.328125 2.953125 3.605469 2.953125 3.882812 2.953125 C 4.242188 2.953125 4.597656 2.949219 4.953125 2.945312 C 5.230469 2.945312 5.503906 2.945312 5.777344 2.945312 C 5.910156 2.945312 6.042969 2.945312 6.171875 2.941406 C 6.355469 2.941406 6.542969 2.941406 6.726562 2.941406 C 6.828125 2.941406 6.933594 2.941406 7.042969 2.941406 C 7.3125 3 7.3125 3 7.535156 3.226562 C 7.691406 3.472656 7.734375 3.578125 7.722656 3.863281 C 7.722656 3.925781 7.722656 3.988281 7.722656 4.054688 C 7.71875 4.132812 7.714844 4.214844 7.710938 4.292969 C 7.703125 4.546875 7.695312 4.800781 7.6875 5.0625 C 8.476562 5.015625 8.476562 5.015625 9.28125 4.96875 C 9.125 4.8125 8.972656 4.660156 8.8125 4.5 C 8.828125 4.285156 8.828125 4.285156 8.90625 4.125 C 9.21875 4.261719 9.441406 4.4375 9.6875 4.675781 C 9.753906 4.738281 9.820312 4.804688 9.890625 4.867188 C 10.03125 5.0625 10.03125 5.0625 10.03125 5.246094 C 9.902344 5.511719 9.722656 5.679688 9.507812 5.882812 C 9.433594 5.957031 9.355469 6.03125 9.273438 6.109375 C 9.214844 6.167969 9.15625 6.222656 9.09375 6.28125 C 8.953125 6.234375 8.953125 6.234375 8.8125 6.1875 C 8.871094 5.792969 8.960938 5.757812 9.28125 5.4375 C 8.753906 5.40625 8.230469 5.375 7.6875 5.34375 C 7.691406 5.460938 7.695312 5.578125 7.699219 5.699219 C 7.703125 5.855469 7.707031 6.007812 7.710938 6.164062 C 7.714844 6.242188 7.71875 6.320312 7.722656 6.398438 C 7.722656 6.511719 7.722656 6.511719 7.722656 6.625 C 7.726562 6.726562 7.726562 6.726562 7.730469 6.832031 C 7.667969 7.121094 7.539062 7.222656 7.3125 7.40625 C 7.039062 7.453125 7.039062 7.453125 6.714844 7.453125 C 6.53125 7.453125 6.53125 7.453125 6.347656 7.457031 C 6.214844 7.453125 6.085938 7.453125 5.953125 7.453125 C 5.816406 7.453125 5.683594 7.453125 5.546875 7.453125 C 5.261719 7.453125 4.980469 7.453125 4.695312 7.449219 C 4.332031 7.449219 3.96875 7.449219 3.605469 7.449219 C 3.328125 7.449219 3.046875 7.449219 2.769531 7.449219 C 2.632812 7.449219 2.5 7.449219 2.367188 7.449219 C 2.179688 7.449219 1.992188 7.445312 1.804688 7.445312 C 1.699219 7.445312 1.589844 7.441406 1.480469 7.441406 C 1.21875 7.40625 1.21875 7.40625 1.042969 7.289062 C 0.914062 7.089844 0.902344 6.980469 0.898438 6.746094 C 0.898438 6.667969 0.898438 6.59375 0.894531 6.515625 C 0.894531 6.433594 0.898438 6.351562 0.898438 6.265625 C 0.894531 6.140625 0.894531 6.140625 0.894531 6.011719 C 0.894531 5.832031 0.894531 5.65625 0.894531 5.476562 C 0.898438 5.203125 0.894531 4.929688 0.890625 4.660156 C 0.890625 4.484375 0.890625 4.3125 0.890625 4.140625 C 0.890625 4.058594 0.890625 3.976562 0.886719 3.890625 C 0.886719 3.816406 0.890625 3.738281 0.890625 3.660156 C 0.890625 3.59375 0.890625 3.527344 0.890625 3.460938 C 0.9375 3.28125 0.9375 3.28125 1.089844 3.117188 C 1.375 2.964844 1.578125 2.964844 1.898438 2.960938 Z M 1.898438 2.960938 "/>
<path style=" stroke:none;fill-rule:nonzero;fill:rgb(38.431373%,73.333335%,90.196079%);fill-opacity:1;" d="M 1.898438 9.242188 C 2.019531 9.238281 2.136719 9.238281 2.261719 9.238281 C 2.390625 9.238281 2.519531 9.238281 2.648438 9.238281 C 2.78125 9.234375 2.914062 9.234375 3.046875 9.234375 C 3.328125 9.234375 3.605469 9.234375 3.882812 9.234375 C 4.242188 9.234375 4.597656 9.230469 4.953125 9.226562 C 5.230469 9.226562 5.503906 9.226562 5.777344 9.226562 C 5.910156 9.226562 6.042969 9.226562 6.171875 9.222656 C 6.355469 9.222656 6.542969 9.222656 6.726562 9.222656 C 6.828125 9.222656 6.933594 9.222656 7.042969 9.222656 C 7.3125 9.28125 7.3125 9.28125 7.535156 9.507812 C 7.691406 9.753906 7.734375 9.859375 7.722656 10.144531 C 7.722656 10.207031 7.722656 10.269531 7.722656 10.335938 C 7.71875 10.414062 7.714844 10.496094 7.710938 10.574219 C 7.703125 10.828125 7.695312 11.082031 7.6875 11.34375 C 8.476562 11.296875 8.476562 11.296875 9.28125 11.25 C 9.125 11.09375 8.972656 10.941406 8.8125 10.78125 C 8.828125 10.566406 8.828125 10.566406 8.90625 10.40625 C 9.21875 10.542969 9.441406 10.71875 9.6875 10.957031 C 9.753906 11.019531 9.820312 11.085938 9.890625 11.148438 C 10.03125 11.34375 10.03125 11.34375 10.03125 11.527344 C 9.902344 11.792969 9.722656 11.960938 9.507812 12.164062 C 9.433594 12.238281 9.355469 12.3125 9.273438 12.390625 C 9.214844 12.449219 9.15625 12.503906 9.09375 12.5625 C 8.953125 12.515625 8.953125 12.515625 8.8125 12.46875 C 8.871094 12.074219 8.960938 12.039062 9.28125 11.71875 C 8.753906 11.6875 8.230469 11.65625 7.6875 11.625 C 7.703125 12.128906 7.703125 12.128906 7.722656 12.632812 C 7.722656 12.695312 7.722656 12.757812 7.722656 12.824219 C 7.726562 12.890625 7.726562 12.953125 7.730469 13.019531 C 7.664062 13.320312 7.527344 13.46875 7.3125 13.6875 C 7.042969 13.746094 7.042969 13.746094 6.726562 13.746094 C 6.605469 13.746094 6.488281 13.746094 6.363281 13.746094 C 6.234375 13.746094 6.105469 13.746094 5.976562 13.742188 C 5.84375 13.742188 5.710938 13.742188 5.578125 13.742188 C 5.296875 13.742188 5.019531 13.742188 4.742188 13.738281 C 4.382812 13.734375 4.027344 13.734375 3.671875 13.734375 C 3.394531 13.734375 3.121094 13.734375 2.847656 13.734375 C 2.714844 13.730469 2.582031 13.730469 2.453125 13.730469 C 2.265625 13.730469 2.082031 13.730469 1.898438 13.726562 C 1.742188 13.726562 1.742188 13.726562 1.582031 13.722656 C 1.277344 13.683594 1.148438 13.628906 0.9375 13.40625 C 0.890625 13.226562 0.890625 13.226562 0.890625 13.027344 C 0.886719 12.914062 0.886719 12.914062 0.886719 12.796875 C 0.886719 12.714844 0.886719 12.632812 0.886719 12.546875 C 0.886719 12.464844 0.886719 12.378906 0.886719 12.292969 C 0.886719 12.113281 0.886719 11.9375 0.886719 11.757812 C 0.890625 11.484375 0.886719 11.210938 0.886719 10.941406 C 0.886719 10.765625 0.886719 10.59375 0.886719 10.421875 C 0.886719 10.339844 0.886719 10.257812 0.886719 10.171875 C 0.886719 10.097656 0.886719 10.019531 0.890625 9.941406 C 0.890625 9.875 0.890625 9.808594 0.890625 9.742188 C 0.9375 9.5625 0.9375 9.5625 1.089844 9.398438 C 1.375 9.246094 1.578125 9.246094 1.898438 9.242188 Z M 1.898438 9.242188 "/>
<path style=" stroke:none;fill-rule:nonzero;fill:rgb(27.843139%,21.960784%,47.058824%);fill-opacity:1;" d="M 1.898438 15.523438 C 2.019531 15.519531 2.136719 15.519531 2.261719 15.519531 C 2.390625 15.519531 2.519531 15.519531 2.648438 15.519531 C 2.78125 15.515625 2.914062 15.515625 3.046875 15.515625 C 3.328125 15.515625 3.605469 15.515625 3.882812 15.515625 C 4.242188 15.515625 4.597656 15.511719 4.953125 15.507812 C 5.230469 15.507812 5.503906 15.507812 5.777344 15.507812 C 5.910156 15.507812 6.042969 15.507812 6.171875 15.503906 C 6.355469 15.503906 6.542969 15.503906 6.726562 15.503906 C 6.828125 15.503906 6.933594 15.503906 7.042969 15.503906 C 7.3125 15.5625 7.3125 15.5625 7.535156 15.789062 C 7.691406 16.035156 7.734375 16.140625 7.722656 16.425781 C 7.722656 16.488281 7.722656 16.550781 7.722656 16.617188 C 7.71875 16.695312 7.714844 16.777344 7.710938 16.855469 C 7.703125 17.109375 7.695312 17.363281 7.6875 17.625 C 8.476562 17.578125 8.476562 17.578125 9.28125 17.53125 C 9.125 17.375 8.972656 17.222656 8.8125 17.0625 C 8.828125 16.847656 8.828125 16.847656 8.90625 16.6875 C 9.21875 16.824219 9.441406 17 9.6875 17.238281 C 9.753906 17.300781 9.820312 17.367188 9.890625 17.429688 C 10.03125 17.625 10.03125 17.625 10.03125 17.808594 C 9.902344 18.074219 9.722656 18.242188 9.507812 18.445312 C 9.433594 18.519531 9.355469 18.59375 9.273438 18.671875 C 9.214844 18.730469 9.15625 18.785156 9.09375 18.84375 C 8.953125 18.796875 8.953125 18.796875 8.8125 18.75 C 8.871094 18.410156 8.921875 18.359375 9.1875 18.09375 C 8.691406 18.0625 8.195312 18.03125 7.6875 18 C 7.6875 18.527344 7.6875 19.050781 7.6875 19.59375 C 8.738281 19.59375 9.789062 19.59375 10.875 19.59375 C 10.871094 19.335938 10.867188 19.074219 10.863281 18.808594 C 10.859375 18.554688 10.855469 18.304688 10.855469 18.050781 C 10.851562 17.878906 10.851562 17.703125 10.847656 17.527344 C 10.839844 17.277344 10.839844 17.023438 10.839844 16.773438 C 10.835938 16.695312 10.835938 16.617188 10.832031 16.539062 C 10.832031 16.429688 10.832031 16.429688 10.832031 16.316406 C 10.832031 16.25 10.832031 16.1875 10.828125 16.121094 C 10.898438 15.847656 11.039062 15.738281 11.25 15.5625 C 11.472656 15.515625 11.472656 15.515625 11.726562 15.515625 C 11.824219 15.515625 11.917969 15.515625 12.019531 15.511719 C 12.125 15.515625 12.226562 15.515625 12.335938 15.515625 C 12.503906 15.515625 12.503906 15.515625 12.671875 15.515625 C 12.976562 15.511719 13.28125 15.515625 13.585938 15.515625 C 13.902344 15.515625 14.222656 15.515625 14.539062 15.515625 C 15.074219 15.515625 15.609375 15.515625 16.144531 15.519531 C 16.761719 15.519531 17.378906 15.519531 17.996094 15.519531 C 18.59375 15.519531 19.1875 15.519531 19.78125 15.519531 C 20.035156 15.523438 20.289062 15.523438 20.542969 15.519531 C 20.894531 15.519531 21.246094 15.523438 21.601562 15.523438 C 21.707031 15.523438 21.808594 15.523438 21.917969 15.523438 C 22.015625 15.523438 22.113281 15.523438 22.210938 15.527344 C 22.335938 15.527344 22.335938 15.527344 22.464844 15.527344 C 22.734375 15.570312 22.863281 15.660156 23.0625 15.84375 C 23.109375 16.019531 23.109375 16.019531 23.105469 16.21875 C 23.105469 16.292969 23.105469 16.371094 23.105469 16.449219 C 23.101562 16.527344 23.101562 16.609375 23.097656 16.691406 C 23.097656 16.773438 23.097656 16.855469 23.097656 16.941406 C 23.097656 17.207031 23.089844 17.472656 23.085938 17.738281 C 23.082031 17.914062 23.082031 18.09375 23.082031 18.273438 C 23.078125 18.714844 23.070312 19.152344 23.0625 19.59375 C 23.15625 19.625 23.246094 19.65625 23.34375 19.6875 C 23.3125 19.78125 23.28125 19.875 23.25 19.96875 C 15.824219 19.96875 8.398438 19.96875 0.75 19.96875 C 0.75 19.84375 0.75 19.722656 0.75 19.59375 C 0.8125 19.59375 0.875 19.59375 0.9375 19.59375 C 0.933594 19.480469 0.933594 19.371094 0.929688 19.253906 C 0.925781 18.839844 0.921875 18.421875 0.917969 18.007812 C 0.914062 17.828125 0.914062 17.648438 0.910156 17.46875 C 0.902344 17.207031 0.902344 16.949219 0.902344 16.691406 C 0.898438 16.609375 0.898438 16.53125 0.894531 16.449219 C 0.894531 16.335938 0.894531 16.335938 0.894531 16.21875 C 0.894531 16.152344 0.894531 16.085938 0.890625 16.019531 C 0.9375 15.84375 0.9375 15.84375 1.089844 15.683594 C 1.375 15.527344 1.578125 15.527344 1.898438 15.523438 Z M 1.21875 16.03125 C 1.207031 16.285156 1.203125 16.539062 1.203125 16.792969 C 1.203125 16.871094 1.203125 16.945312 1.203125 17.023438 C 1.203125 17.1875 1.203125 17.347656 1.203125 17.507812 C 1.203125 17.757812 1.199219 18.007812 1.199219 18.253906 C 1.199219 18.414062 1.195312 18.570312 1.195312 18.726562 C 1.195312 18.800781 1.195312 18.875 1.195312 18.953125 C 1.179688 19.363281 1.179688 19.363281 1.40625 19.6875 C 1.65625 19.714844 1.65625 19.714844 1.949219 19.710938 C 2.0625 19.710938 2.175781 19.710938 2.292969 19.714844 C 2.417969 19.710938 2.542969 19.710938 2.667969 19.710938 C 2.796875 19.710938 2.921875 19.710938 3.050781 19.710938 C 3.316406 19.710938 3.585938 19.710938 3.855469 19.710938 C 4.195312 19.710938 4.539062 19.710938 4.882812 19.710938 C 5.144531 19.714844 5.410156 19.710938 5.671875 19.710938 C 5.859375 19.710938 6.046875 19.710938 6.238281 19.714844 C 6.351562 19.710938 6.464844 19.710938 6.582031 19.710938 C 6.683594 19.710938 6.785156 19.710938 6.886719 19.710938 C 7.140625 19.710938 7.140625 19.710938 7.3125 19.5 C 7.328125 19.238281 7.335938 18.988281 7.332031 18.726562 C 7.332031 18.648438 7.332031 18.574219 7.332031 18.492188 C 7.332031 18.332031 7.332031 18.171875 7.332031 18.007812 C 7.328125 17.761719 7.328125 17.511719 7.328125 17.261719 C 7.328125 17.105469 7.328125 16.949219 7.328125 16.792969 C 7.328125 16.71875 7.328125 16.644531 7.328125 16.566406 C 7.355469 16.222656 7.355469 16.222656 7.21875 15.9375 C 7.035156 15.929688 6.851562 15.925781 6.667969 15.925781 C 6.550781 15.925781 6.433594 15.925781 6.308594 15.925781 C 6.179688 15.925781 6.050781 15.925781 5.921875 15.925781 C 5.789062 15.925781 5.65625 15.925781 5.523438 15.925781 C 5.246094 15.925781 4.96875 15.925781 4.695312 15.925781 C 4.335938 15.925781 3.980469 15.925781 3.625 15.925781 C 3.351562 15.925781 3.082031 15.925781 2.808594 15.925781 C 2.675781 15.925781 2.542969 15.925781 2.414062 15.925781 C 2.230469 15.925781 2.046875 15.925781 1.863281 15.925781 C 1.757812 15.925781 1.65625 15.925781 1.546875 15.925781 C 1.316406 15.910156 1.316406 15.910156 1.21875 16.03125 Z M 11.25 16.03125 C 11.238281 16.285156 11.234375 16.539062 11.234375 16.792969 C 11.234375 16.871094 11.234375 16.945312 11.234375 17.023438 C 11.234375 17.1875 11.234375 17.347656 11.234375 17.507812 C 11.234375 17.757812 11.230469 18.007812 11.230469 18.253906 C 11.230469 18.414062 11.226562 18.570312 11.226562 18.726562 C 11.226562 18.800781 11.226562 18.875 11.226562 18.953125 C 11.210938 19.363281 11.210938 19.363281 11.4375 19.6875 C 11.640625 19.714844 11.640625 19.714844 11.882812 19.710938 C 11.976562 19.710938 12.070312 19.710938 12.167969 19.710938 C 12.269531 19.710938 12.375 19.710938 12.480469 19.710938 C 12.644531 19.710938 12.644531 19.710938 12.808594 19.710938 C 13.167969 19.714844 13.53125 19.710938 13.890625 19.710938 C 14.140625 19.710938 14.386719 19.710938 14.636719 19.710938 C 15.160156 19.710938 15.683594 19.710938 16.207031 19.710938 C 16.8125 19.710938 17.417969 19.710938 18.023438 19.710938 C 18.542969 19.710938 19.0625 19.710938 19.582031 19.710938 C 19.890625 19.710938 20.203125 19.710938 20.515625 19.710938 C 20.859375 19.714844 21.207031 19.710938 21.550781 19.710938 C 21.65625 19.710938 21.757812 19.710938 21.863281 19.710938 C 21.957031 19.710938 22.050781 19.710938 22.148438 19.710938 C 22.273438 19.710938 22.273438 19.710938 22.398438 19.710938 C 22.613281 19.707031 22.613281 19.707031 22.78125 19.5 C 22.796875 19.238281 22.804688 18.988281 22.800781 18.726562 C 22.800781 18.648438 22.800781 18.574219 22.800781 18.492188 C 22.800781 18.332031 22.800781 18.171875 22.800781 18.007812 C 22.796875 17.761719 22.796875 17.511719 22.796875 17.261719 C 22.796875 17.105469 22.796875 16.949219 22.796875 16.792969 C 22.796875 16.71875 22.796875 16.644531 22.796875 16.566406 C 22.824219 16.222656 22.824219 16.222656 22.6875 15.9375 C 22.539062 15.929688 22.394531 15.925781 22.246094 15.925781 C 22.152344 15.925781 22.054688 15.925781 21.957031 15.925781 C 21.851562 15.925781 21.746094 15.925781 21.636719 15.925781 C 21.472656 15.925781 21.472656 15.925781 21.300781 15.925781 C 21 15.925781 20.695312 15.925781 20.390625 15.925781 C 20.074219 15.925781 19.753906 15.925781 19.4375 15.925781 C 18.90625 15.925781 18.371094 15.925781 17.839844 15.925781 C 17.222656 15.925781 16.605469 15.925781 15.988281 15.925781 C 15.457031 15.925781 14.929688 15.925781 14.402344 15.925781 C 14.085938 15.925781 13.769531 15.925781 13.453125 15.925781 C 13.097656 15.925781 12.746094 15.925781 12.394531 15.925781 C 12.234375 15.925781 12.234375 15.925781 12.074219 15.925781 C 11.929688 15.925781 11.929688 15.925781 11.785156 15.925781 C 11.703125 15.925781 11.617188 15.925781 11.53125 15.925781 C 11.34375 15.917969 11.34375 15.917969 11.25 16.03125 Z M 11.25 16.03125 "/>
<path style=" stroke:none;fill-rule:nonzero;fill:rgb(25.098041%,21.568628%,47.450981%);fill-opacity:1;" d="M 1.898438 2.960938 C 2.019531 2.957031 2.136719 2.957031 2.261719 2.957031 C 2.390625 2.957031 2.519531 2.957031 2.648438 2.957031 C 2.78125 2.953125 2.914062 2.953125 3.046875 2.953125 C 3.328125 2.953125 3.605469 2.953125 3.882812 2.953125 C 4.242188 2.953125 4.597656 2.949219 4.953125 2.945312 C 5.230469 2.945312 5.503906 2.945312 5.777344 2.945312 C 5.910156 2.945312 6.042969 2.945312 6.171875 2.941406 C 6.355469 2.941406 6.542969 2.941406 6.726562 2.941406 C 6.828125 2.941406 6.933594 2.941406 7.042969 2.941406 C 7.3125 3 7.3125 3 7.535156 3.226562 C 7.691406 3.472656 7.734375 3.578125 7.722656 3.863281 C 7.722656 3.925781 7.722656 3.988281 7.722656 4.054688 C 7.71875 4.132812 7.714844 4.214844 7.710938 4.292969 C 7.703125 4.546875 7.695312 4.800781 7.6875 5.0625 C 8.476562 5.015625 8.476562 5.015625 9.28125 4.96875 C 9.125 4.8125 8.972656 4.660156 8.8125 4.5 C 8.828125 4.285156 8.828125 4.285156 8.90625 4.125 C 9.21875 4.261719 9.441406 4.4375 9.6875 4.675781 C 9.753906 4.738281 9.820312 4.804688 9.890625 4.867188 C 10.03125 5.0625 10.03125 5.0625 10.03125 5.246094 C 9.902344 5.511719 9.722656 5.679688 9.507812 5.882812 C 9.433594 5.957031 9.355469 6.03125 9.273438 6.109375 C 9.214844 6.167969 9.15625 6.222656 9.09375 6.28125 C 8.953125 6.234375 8.953125 6.234375 8.8125 6.1875 C 8.871094 5.792969 8.960938 5.757812 9.28125 5.4375 C 8.753906 5.40625 8.230469 5.375 7.6875 5.34375 C 7.691406 5.460938 7.695312 5.578125 7.699219 5.699219 C 7.703125 5.855469 7.707031 6.007812 7.710938 6.164062 C 7.714844 6.242188 7.71875 6.320312 7.722656 6.398438 C 7.722656 6.511719 7.722656 6.511719 7.722656 6.625 C 7.726562 6.726562 7.726562 6.726562 7.730469 6.832031 C 7.667969 7.121094 7.539062 7.222656 7.3125 7.40625 C 7.039062 7.453125 7.039062 7.453125 6.714844 7.453125 C 6.53125 7.453125 6.53125 7.453125 6.347656 7.457031 C 6.214844 7.453125 6.085938 7.453125 5.953125 7.453125 C 5.816406 7.453125 5.683594 7.453125 5.546875 7.453125 C 5.261719 7.453125 4.980469 7.453125 4.695312 7.449219 C 4.332031 7.449219 3.96875 7.449219 3.605469 7.449219 C 3.328125 7.449219 3.046875 7.449219 2.769531 7.449219 C 2.632812 7.449219 2.5 7.449219 2.367188 7.449219 C 2.179688 7.449219 1.992188 7.445312 1.804688 7.445312 C 1.699219 7.445312 1.589844 7.441406 1.480469 7.441406 C 1.21875 7.40625 1.21875 7.40625 1.042969 7.289062 C 0.914062 7.089844 0.902344 6.980469 0.898438 6.746094 C 0.898438 6.667969 0.898438 6.59375 0.894531 6.515625 C 0.894531 6.433594 0.898438 6.351562 0.898438 6.265625 C 0.894531 6.140625 0.894531 6.140625 0.894531 6.011719 C 0.894531 5.832031 0.894531 5.65625 0.894531 5.476562 C 0.898438 5.203125 0.894531 4.929688 0.890625 4.660156 C 0.890625 4.484375 0.890625 4.3125 0.890625 4.140625 C 0.890625 4.058594 0.890625 3.976562 0.886719 3.890625 C 0.886719 3.816406 0.890625 3.738281 0.890625 3.660156 C 0.890625 3.59375 0.890625 3.527344 0.890625 3.460938 C 0.9375 3.28125 0.9375 3.28125 1.089844 3.117188 C 1.375 2.964844 1.578125 2.964844 1.898438 2.960938 Z M 1.96875 3.46875 C 1.957031 3.726562 1.957031 3.976562 1.957031 4.234375 C 1.957031 4.308594 1.957031 4.386719 1.957031 4.464844 C 1.957031 4.628906 1.957031 4.789062 1.957031 4.953125 C 1.957031 5.203125 1.957031 5.453125 1.957031 5.699219 C 1.957031 5.859375 1.957031 6.015625 1.957031 6.171875 C 1.957031 6.246094 1.957031 6.324219 1.957031 6.398438 C 1.925781 6.746094 1.925781 6.746094 2.0625 7.03125 C 2.222656 7.039062 2.382812 7.042969 2.542969 7.042969 C 2.648438 7.042969 2.75 7.042969 2.855469 7.042969 C 2.96875 7.042969 3.082031 7.042969 3.195312 7.042969 C 3.367188 7.042969 3.367188 7.042969 3.542969 7.042969 C 3.785156 7.042969 4.023438 7.042969 4.265625 7.042969 C 4.640625 7.042969 5.011719 7.042969 5.382812 7.042969 C 5.617188 7.042969 5.851562 7.042969 6.085938 7.042969 C 6.253906 7.042969 6.253906 7.042969 6.425781 7.042969 C 6.527344 7.042969 6.628906 7.042969 6.738281 7.042969 C 6.828125 7.042969 6.917969 7.042969 7.011719 7.042969 C 7.214844 7.054688 7.214844 7.054688 7.3125 6.9375 C 7.324219 6.679688 7.324219 6.429688 7.324219 6.171875 C 7.324219 6.097656 7.324219 6.019531 7.324219 5.941406 C 7.324219 5.777344 7.324219 5.617188 7.324219 5.453125 C 7.324219 5.203125 7.324219 4.953125 7.324219 4.707031 C 7.324219 4.546875 7.324219 4.390625 7.324219 4.234375 C 7.324219 4.160156 7.324219 4.082031 7.324219 4.007812 C 7.355469 3.660156 7.355469 3.660156 7.21875 3.375 C 7.058594 3.367188 6.898438 3.363281 6.738281 3.363281 C 6.632812 3.363281 6.53125 3.363281 6.425781 3.363281 C 6.257812 3.363281 6.257812 3.363281 6.085938 3.363281 C 5.914062 3.363281 5.914062 3.363281 5.738281 3.363281 C 5.496094 3.363281 5.253906 3.363281 5.015625 3.363281 C 4.640625 3.363281 4.269531 3.363281 3.898438 3.363281 C 3.664062 3.363281 3.429688 3.363281 3.195312 3.363281 C 3.082031 3.363281 2.972656 3.363281 2.855469 3.363281 C 2.753906 3.363281 2.652344 3.363281 2.542969 3.363281 C 2.453125 3.363281 2.363281 3.363281 2.269531 3.363281 C 2.066406 3.351562 2.066406 3.351562 1.96875 3.46875 Z M 1.96875 3.46875 "/>
<path style=" stroke:none;fill-rule:nonzero;fill:rgb(26.666668%,23.529412%,48.235294%);fill-opacity:1;" d="M 11.730469 2.953125 C 11.875 2.953125 11.875 2.953125 12.023438 2.949219 C 12.132812 2.949219 12.238281 2.953125 12.347656 2.953125 C 12.515625 2.953125 12.515625 2.953125 12.6875 2.949219 C 12.992188 2.949219 13.300781 2.949219 13.605469 2.953125 C 13.929688 2.953125 14.25 2.953125 14.570312 2.953125 C 15.109375 2.953125 15.648438 2.953125 16.191406 2.957031 C 16.8125 2.957031 17.4375 2.957031 18.0625 2.957031 C 18.660156 2.957031 19.261719 2.957031 19.859375 2.957031 C 20.117188 2.960938 20.371094 2.960938 20.628906 2.957031 C 20.984375 2.957031 21.339844 2.960938 21.695312 2.960938 C 21.800781 2.960938 21.910156 2.960938 22.019531 2.960938 C 22.117188 2.960938 22.210938 2.960938 22.3125 2.964844 C 22.4375 2.964844 22.4375 2.964844 22.566406 2.964844 C 22.824219 3.007812 22.90625 3.078125 23.0625 3.28125 C 23.097656 3.460938 23.097656 3.460938 23.101562 3.660156 C 23.101562 3.773438 23.101562 3.773438 23.105469 3.890625 C 23.105469 3.972656 23.105469 4.054688 23.101562 4.140625 C 23.105469 4.222656 23.105469 4.308594 23.105469 4.394531 C 23.105469 4.574219 23.105469 4.75 23.105469 4.929688 C 23.105469 5.203125 23.105469 5.476562 23.109375 5.746094 C 23.109375 5.921875 23.109375 6.09375 23.109375 6.265625 C 23.109375 6.347656 23.109375 6.429688 23.113281 6.515625 C 23.109375 6.589844 23.109375 6.667969 23.109375 6.746094 C 23.109375 6.8125 23.109375 6.878906 23.109375 6.945312 C 23.039062 7.207031 22.914062 7.269531 22.6875 7.40625 C 22.464844 7.441406 22.464844 7.441406 22.210938 7.441406 C 22.113281 7.445312 22.019531 7.445312 21.917969 7.445312 C 21.8125 7.445312 21.707031 7.445312 21.601562 7.445312 C 21.433594 7.445312 21.433594 7.445312 21.265625 7.445312 C 20.960938 7.449219 20.65625 7.449219 20.351562 7.449219 C 20.097656 7.445312 19.84375 7.449219 19.589844 7.449219 C 18.992188 7.449219 18.390625 7.449219 17.792969 7.449219 C 17.175781 7.449219 16.558594 7.449219 15.9375 7.449219 C 15.410156 7.453125 14.878906 7.453125 14.347656 7.453125 C 14.03125 7.453125 13.710938 7.453125 13.394531 7.453125 C 13.042969 7.457031 12.691406 7.453125 12.335938 7.453125 C 12.179688 7.453125 12.179688 7.453125 12.019531 7.457031 C 11.921875 7.453125 11.824219 7.453125 11.726562 7.453125 C 11.644531 7.453125 11.558594 7.453125 11.472656 7.453125 C 11.179688 7.390625 11.0625 7.261719 10.875 7.03125 C 10.828125 6.851562 10.828125 6.851562 10.828125 6.660156 C 10.824219 6.585938 10.824219 6.515625 10.824219 6.441406 C 10.824219 6.363281 10.824219 6.285156 10.824219 6.207031 C 10.824219 6.128906 10.824219 6.046875 10.824219 5.964844 C 10.824219 5.796875 10.824219 5.628906 10.828125 5.460938 C 10.828125 5.203125 10.828125 4.945312 10.824219 4.6875 C 10.824219 4.523438 10.824219 4.363281 10.824219 4.199219 C 10.824219 4.121094 10.824219 4.042969 10.824219 3.964844 C 10.824219 3.894531 10.824219 3.820312 10.828125 3.746094 C 10.828125 3.683594 10.828125 3.621094 10.828125 3.558594 C 10.949219 3.089844 11.285156 2.953125 11.730469 2.953125 Z M 11.25 3.46875 C 11.230469 3.730469 11.226562 3.980469 11.226562 4.242188 C 11.226562 4.320312 11.226562 4.394531 11.226562 4.472656 C 11.226562 4.636719 11.230469 4.796875 11.230469 4.960938 C 11.230469 5.207031 11.230469 5.457031 11.230469 5.707031 C 11.234375 5.863281 11.234375 6.019531 11.234375 6.175781 C 11.234375 6.25 11.234375 6.324219 11.234375 6.402344 C 11.203125 6.746094 11.203125 6.746094 11.34375 7.03125 C 11.492188 7.039062 11.636719 7.042969 11.785156 7.042969 C 11.929688 7.042969 11.929688 7.042969 12.074219 7.042969 C 12.179688 7.042969 12.285156 7.042969 12.394531 7.042969 C 12.558594 7.042969 12.558594 7.042969 12.730469 7.042969 C 13.03125 7.042969 13.335938 7.042969 13.640625 7.042969 C 13.957031 7.042969 14.273438 7.042969 14.59375 7.042969 C 15.125 7.042969 15.660156 7.042969 16.191406 7.042969 C 16.808594 7.042969 17.425781 7.042969 18.042969 7.042969 C 18.574219 7.042969 19.101562 7.042969 19.628906 7.042969 C 19.945312 7.042969 20.261719 7.042969 20.578125 7.042969 C 20.933594 7.042969 21.285156 7.042969 21.636719 7.042969 C 21.796875 7.042969 21.796875 7.042969 21.957031 7.042969 C 22.054688 7.042969 22.148438 7.042969 22.246094 7.042969 C 22.371094 7.042969 22.371094 7.042969 22.5 7.042969 C 22.6875 7.050781 22.6875 7.050781 22.78125 6.9375 C 22.792969 6.683594 22.796875 6.429688 22.796875 6.175781 C 22.796875 6.101562 22.796875 6.023438 22.796875 5.945312 C 22.796875 5.78125 22.800781 5.621094 22.796875 5.457031 C 22.800781 5.210938 22.800781 4.960938 22.800781 4.714844 C 22.804688 4.558594 22.804688 4.398438 22.804688 4.242188 C 22.804688 4.128906 22.804688 4.128906 22.804688 4.015625 C 22.820312 3.605469 22.820312 3.605469 22.59375 3.28125 C 22.390625 3.253906 22.390625 3.253906 22.148438 3.257812 C 22.054688 3.257812 21.960938 3.257812 21.863281 3.253906 C 21.761719 3.253906 21.65625 3.257812 21.550781 3.257812 C 21.441406 3.257812 21.332031 3.257812 21.222656 3.253906 C 20.863281 3.253906 20.503906 3.253906 20.140625 3.257812 C 19.890625 3.253906 19.640625 3.253906 19.394531 3.253906 C 18.871094 3.253906 18.347656 3.253906 17.824219 3.257812 C 17.21875 3.257812 16.613281 3.257812 16.007812 3.257812 C 15.488281 3.253906 14.96875 3.253906 14.449219 3.253906 C 14.136719 3.253906 13.828125 3.253906 13.519531 3.253906 C 13.171875 3.253906 12.824219 3.253906 12.480469 3.257812 C 12.375 3.257812 12.273438 3.253906 12.167969 3.253906 C 12.074219 3.257812 11.980469 3.257812 11.882812 3.257812 C 11.800781 3.257812 11.71875 3.257812 11.632812 3.257812 C 11.417969 3.261719 11.417969 3.261719 11.25 3.46875 Z M 11.25 3.46875 "/>
<path style=" stroke:none;fill-rule:nonzero;fill:rgb(24.705882%,21.960784%,47.843137%);fill-opacity:1;" d="M 11.726562 9.234375 C 11.824219 9.234375 11.917969 9.230469 12.019531 9.230469 C 12.125 9.230469 12.226562 9.234375 12.335938 9.234375 C 12.503906 9.234375 12.503906 9.234375 12.671875 9.230469 C 12.976562 9.230469 13.28125 9.230469 13.585938 9.234375 C 13.902344 9.234375 14.222656 9.234375 14.539062 9.234375 C 15.074219 9.234375 15.609375 9.234375 16.144531 9.238281 C 16.761719 9.238281 17.378906 9.238281 17.996094 9.238281 C 18.59375 9.238281 19.1875 9.238281 19.78125 9.238281 C 20.035156 9.242188 20.289062 9.242188 20.542969 9.238281 C 20.894531 9.238281 21.246094 9.242188 21.601562 9.242188 C 21.707031 9.242188 21.808594 9.242188 21.917969 9.242188 C 22.015625 9.242188 22.113281 9.242188 22.210938 9.246094 C 22.335938 9.246094 22.335938 9.246094 22.464844 9.246094 C 22.734375 9.289062 22.863281 9.378906 23.0625 9.5625 C 23.109375 9.742188 23.109375 9.742188 23.109375 9.941406 C 23.113281 10.019531 23.113281 10.09375 23.113281 10.171875 C 23.113281 10.253906 23.113281 10.335938 23.113281 10.421875 C 23.113281 10.503906 23.113281 10.589844 23.113281 10.675781 C 23.113281 10.855469 23.113281 11.03125 23.113281 11.210938 C 23.109375 11.484375 23.113281 11.757812 23.113281 12.027344 C 23.113281 12.203125 23.113281 12.375 23.113281 12.546875 C 23.113281 12.628906 23.113281 12.710938 23.113281 12.796875 C 23.113281 12.910156 23.113281 12.910156 23.109375 13.027344 C 23.109375 13.09375 23.109375 13.160156 23.109375 13.226562 C 23.039062 13.488281 22.910156 13.550781 22.6875 13.6875 C 22.464844 13.722656 22.464844 13.722656 22.210938 13.722656 C 22.113281 13.726562 22.019531 13.726562 21.917969 13.726562 C 21.8125 13.726562 21.710938 13.726562 21.601562 13.726562 C 21.433594 13.726562 21.433594 13.726562 21.265625 13.726562 C 20.960938 13.730469 20.65625 13.730469 20.351562 13.730469 C 20.097656 13.726562 19.84375 13.730469 19.589844 13.730469 C 18.992188 13.730469 18.390625 13.730469 17.792969 13.730469 C 17.175781 13.730469 16.558594 13.730469 15.9375 13.730469 C 15.410156 13.734375 14.878906 13.734375 14.347656 13.734375 C 14.03125 13.734375 13.714844 13.734375 13.394531 13.734375 C 13.042969 13.738281 12.691406 13.734375 12.335938 13.734375 C 12.179688 13.734375 12.179688 13.734375 12.019531 13.738281 C 11.921875 13.734375 11.824219 13.734375 11.726562 13.734375 C 11.644531 13.734375 11.558594 13.734375 11.472656 13.734375 C 11.175781 13.671875 11.0625 13.542969 10.875 13.3125 C 10.828125 13.132812 10.828125 13.132812 10.828125 12.941406 C 10.824219 12.867188 10.824219 12.796875 10.824219 12.722656 C 10.824219 12.644531 10.824219 12.566406 10.824219 12.488281 C 10.824219 12.410156 10.824219 12.328125 10.824219 12.246094 C 10.824219 12.078125 10.824219 11.910156 10.824219 11.742188 C 10.828125 11.484375 10.824219 11.226562 10.824219 10.96875 C 10.824219 10.804688 10.824219 10.644531 10.824219 10.480469 C 10.824219 10.402344 10.824219 10.324219 10.824219 10.246094 C 10.824219 10.175781 10.824219 10.101562 10.828125 10.027344 C 10.828125 9.964844 10.828125 9.902344 10.828125 9.839844 C 10.949219 9.375 11.285156 9.234375 11.726562 9.234375 Z M 11.25 9.75 C 11.230469 10.007812 11.222656 10.261719 11.226562 10.519531 C 11.226562 10.597656 11.222656 10.671875 11.222656 10.753906 C 11.222656 10.914062 11.226562 11.074219 11.226562 11.234375 C 11.226562 11.484375 11.226562 11.730469 11.222656 11.976562 C 11.222656 12.136719 11.222656 12.292969 11.226562 12.449219 C 11.222656 12.523438 11.222656 12.597656 11.222656 12.671875 C 11.210938 13.082031 11.210938 13.082031 11.4375 13.40625 C 11.640625 13.433594 11.640625 13.433594 11.882812 13.429688 C 11.976562 13.429688 12.070312 13.429688 12.167969 13.429688 C 12.269531 13.429688 12.375 13.429688 12.480469 13.429688 C 12.644531 13.429688 12.644531 13.429688 12.808594 13.429688 C 13.167969 13.433594 13.53125 13.429688 13.890625 13.429688 C 14.140625 13.429688 14.386719 13.429688 14.636719 13.429688 C 15.160156 13.433594 15.683594 13.429688 16.207031 13.429688 C 16.8125 13.429688 17.417969 13.429688 18.023438 13.429688 C 18.542969 13.429688 19.0625 13.433594 19.582031 13.429688 C 19.890625 13.429688 20.203125 13.429688 20.515625 13.429688 C 20.859375 13.433594 21.207031 13.429688 21.550781 13.429688 C 21.65625 13.429688 21.757812 13.429688 21.863281 13.429688 C 21.957031 13.429688 22.050781 13.429688 22.148438 13.429688 C 22.273438 13.429688 22.273438 13.429688 22.398438 13.429688 C 22.613281 13.425781 22.613281 13.425781 22.78125 13.21875 C 22.800781 12.957031 22.808594 12.707031 22.804688 12.449219 C 22.804688 12.371094 22.804688 12.296875 22.808594 12.21875 C 22.808594 12.054688 22.804688 11.894531 22.804688 11.734375 C 22.804688 11.484375 22.804688 11.238281 22.808594 10.988281 C 22.808594 10.832031 22.804688 10.675781 22.804688 10.519531 C 22.804688 10.445312 22.808594 10.371094 22.808594 10.296875 C 22.820312 9.886719 22.820312 9.886719 22.59375 9.5625 C 22.390625 9.535156 22.390625 9.535156 22.148438 9.539062 C 22.054688 9.539062 21.960938 9.539062 21.863281 9.535156 C 21.761719 9.535156 21.65625 9.539062 21.550781 9.539062 C 21.441406 9.539062 21.335938 9.539062 21.222656 9.535156 C 20.863281 9.535156 20.5 9.535156 20.140625 9.539062 C 19.890625 9.535156 19.644531 9.535156 19.394531 9.535156 C 18.871094 9.535156 18.347656 9.535156 17.824219 9.539062 C 17.21875 9.539062 16.613281 9.539062 16.007812 9.539062 C 15.488281 9.535156 14.96875 9.535156 14.449219 9.535156 C 14.140625 9.535156 13.828125 9.535156 13.515625 9.535156 C 13.171875 9.535156 12.824219 9.535156 12.480469 9.539062 C 12.375 9.539062 12.273438 9.535156 12.167969 9.535156 C 12.074219 9.539062 11.980469 9.539062 11.882812 9.539062 C 11.800781 9.539062 11.71875 9.539062 11.632812 9.539062 C 11.417969 9.542969 11.417969 9.542969 11.25 9.75 Z M 11.25 9.75 "/>
<path style=" stroke:none;fill-rule:nonzero;fill:rgb(28.627452%,25.490198%,48.627451%);fill-opacity:1;" d="M 14.460938 4.570312 C 14.585938 4.570312 14.707031 4.570312 14.835938 4.566406 C 14.96875 4.566406 15.105469 4.570312 15.242188 4.570312 C 15.378906 4.570312 15.515625 4.570312 15.652344 4.570312 C 15.945312 4.566406 16.234375 4.570312 16.523438 4.570312 C 16.894531 4.570312 17.265625 4.570312 17.636719 4.570312 C 17.921875 4.566406 18.207031 4.570312 18.492188 4.570312 C 18.628906 4.570312 18.765625 4.570312 18.902344 4.570312 C 19.09375 4.566406 19.285156 4.570312 19.476562 4.570312 C 19.640625 4.570312 19.640625 4.570312 19.804688 4.570312 C 20.0625 4.59375 20.0625 4.59375 20.25 4.78125 C 20.273438 4.976562 20.273438 4.976562 20.273438 5.203125 C 20.273438 5.316406 20.273438 5.316406 20.273438 5.429688 C 20.25 5.625 20.25 5.625 20.0625 5.8125 C 19.8125 5.835938 19.8125 5.835938 19.484375 5.839844 C 19.367188 5.839844 19.246094 5.839844 19.121094 5.839844 C 18.988281 5.839844 18.851562 5.839844 18.722656 5.839844 C 18.585938 5.839844 18.449219 5.839844 18.3125 5.839844 C 18.03125 5.84375 17.746094 5.84375 17.460938 5.839844 C 17.09375 5.839844 16.730469 5.84375 16.367188 5.84375 C 16.085938 5.847656 15.804688 5.847656 15.523438 5.847656 C 15.390625 5.847656 15.253906 5.847656 15.121094 5.847656 C 14.933594 5.847656 14.746094 5.847656 14.558594 5.847656 C 14.449219 5.847656 14.34375 5.847656 14.234375 5.847656 C 13.96875 5.8125 13.96875 5.8125 13.792969 5.679688 C 13.59375 5.394531 13.660156 5.121094 13.6875 4.78125 C 13.945312 4.523438 14.097656 4.570312 14.460938 4.570312 Z M 14.460938 4.570312 "/>
<path style=" stroke:none;fill-rule:nonzero;fill:rgb(24.705882%,21.568628%,47.843137%);fill-opacity:1;" d="M 1.898438 9.242188 C 2.019531 9.238281 2.136719 9.238281 2.261719 9.238281 C 2.390625 9.238281 2.519531 9.238281 2.648438 9.238281 C 2.78125 9.234375 2.914062 9.234375 3.046875 9.234375 C 3.328125 9.234375 3.605469 9.234375 3.882812 9.234375 C 4.242188 9.234375 4.597656 9.230469 4.953125 9.226562 C 5.230469 9.226562 5.503906 9.226562 5.777344 9.226562 C 5.910156 9.226562 6.042969 9.226562 6.171875 9.222656 C 6.355469 9.222656 6.542969 9.222656 6.726562 9.222656 C 6.828125 9.222656 6.933594 9.222656 7.042969 9.222656 C 7.3125 9.28125 7.3125 9.28125 7.535156 9.507812 C 7.691406 9.753906 7.734375 9.859375 7.722656 10.144531 C 7.722656 10.207031 7.722656 10.269531 7.722656 10.335938 C 7.71875 10.414062 7.714844 10.496094 7.710938 10.574219 C 7.703125 10.828125 7.695312 11.082031 7.6875 11.34375 C 8.476562 11.296875 8.476562 11.296875 9.28125 11.25 C 9.125 11.09375 8.972656 10.941406 8.8125 10.78125 C 8.828125 10.566406 8.828125 10.566406 8.90625 10.40625 C 9.21875 10.542969 9.441406 10.71875 9.6875 10.957031 C 9.753906 11.019531 9.820312 11.085938 9.890625 11.148438 C 10.03125 11.34375 10.03125 11.34375 10.03125 11.527344 C 9.902344 11.792969 9.722656 11.960938 9.507812 12.164062 C 9.433594 12.238281 9.355469 12.3125 9.273438 12.390625 C 9.214844 12.449219 9.15625 12.503906 9.09375 12.5625 C 8.953125 12.515625 8.953125 12.515625 8.8125 12.46875 C 8.871094 12.074219 8.960938 12.039062 9.28125 11.71875 C 8.753906 11.6875 8.230469 11.65625 7.6875 11.625 C 7.703125 12.128906 7.703125 12.128906 7.722656 12.632812 C 7.722656 12.695312 7.722656 12.757812 7.722656 12.824219 C 7.726562 12.890625 7.726562 12.953125 7.730469 13.019531 C 7.664062 13.320312 7.527344 13.46875 7.3125 13.6875 C 7.042969 13.746094 7.042969 13.746094 6.726562 13.746094 C 6.605469 13.746094 6.488281 13.746094 6.363281 13.746094 C 6.234375 13.746094 6.105469 13.746094 5.976562 13.742188 C 5.84375 13.742188 5.710938 13.742188 5.578125 13.742188 C 5.296875 13.742188 5.019531 13.742188 4.742188 13.738281 C 4.382812 13.734375 4.027344 13.734375 3.671875 13.734375 C 3.394531 13.734375 3.121094 13.734375 2.847656 13.734375 C 2.714844 13.730469 2.582031 13.730469 2.453125 13.730469 C 2.265625 13.730469 2.082031 13.730469 1.898438 13.726562 C 1.742188 13.726562 1.742188 13.726562 1.582031 13.722656 C 1.277344 13.683594 1.148438 13.628906 0.9375 13.40625 C 0.890625 13.226562 0.890625 13.226562 0.890625 13.027344 C 0.886719 12.914062 0.886719 12.914062 0.886719 12.796875 C 0.886719 12.714844 0.886719 12.632812 0.886719 12.546875 C 0.886719 12.464844 0.886719 12.378906 0.886719 12.292969 C 0.886719 12.113281 0.886719 11.9375 0.886719 11.757812 C 0.890625 11.484375 0.886719 11.210938 0.886719 10.941406 C 0.886719 10.765625 0.886719 10.59375 0.886719 10.421875 C 0.886719 10.339844 0.886719 10.257812 0.886719 10.171875 C 0.886719 10.097656 0.886719 10.019531 0.890625 9.941406 C 0.890625 9.875 0.890625 9.808594 0.890625 9.742188 C 0.9375 9.5625 0.9375 9.5625 1.089844 9.398438 C 1.375 9.246094 1.578125 9.246094 1.898438 9.242188 Z M 1.21875 9.75 C 1.199219 10.007812 1.191406 10.261719 1.195312 10.519531 C 1.195312 10.597656 1.191406 10.671875 1.191406 10.75 C 1.191406 10.914062 1.195312 11.074219 1.195312 11.234375 C 1.195312 11.484375 1.195312 11.730469 1.191406 11.976562 C 1.191406 12.136719 1.191406 12.292969 1.195312 12.449219 C 1.191406 12.523438 1.191406 12.597656 1.191406 12.671875 C 1.179688 13.082031 1.179688 13.082031 1.40625 13.40625 C 1.65625 13.433594 1.65625 13.433594 1.949219 13.429688 C 2.0625 13.429688 2.175781 13.429688 2.292969 13.433594 C 2.417969 13.429688 2.542969 13.429688 2.667969 13.429688 C 2.796875 13.429688 2.921875 13.429688 3.050781 13.429688 C 3.316406 13.429688 3.585938 13.429688 3.855469 13.429688 C 4.195312 13.429688 4.539062 13.429688 4.882812 13.429688 C 5.144531 13.433594 5.410156 13.429688 5.671875 13.429688 C 5.859375 13.429688 6.046875 13.429688 6.238281 13.433594 C 6.351562 13.429688 6.464844 13.429688 6.582031 13.429688 C 6.683594 13.429688 6.785156 13.429688 6.886719 13.429688 C 7.140625 13.429688 7.140625 13.429688 7.3125 13.21875 C 7.332031 12.960938 7.339844 12.707031 7.335938 12.449219 C 7.335938 12.371094 7.335938 12.296875 7.339844 12.21875 C 7.339844 12.054688 7.335938 11.894531 7.335938 11.734375 C 7.335938 11.484375 7.335938 11.238281 7.339844 10.992188 C 7.339844 10.832031 7.335938 10.675781 7.335938 10.519531 C 7.335938 10.445312 7.339844 10.371094 7.339844 10.296875 C 7.351562 9.886719 7.351562 9.886719 7.125 9.5625 C 6.875 9.535156 6.875 9.535156 6.582031 9.539062 C 6.46875 9.539062 6.355469 9.539062 6.238281 9.535156 C 6.113281 9.539062 5.988281 9.539062 5.863281 9.539062 C 5.734375 9.539062 5.609375 9.539062 5.480469 9.539062 C 5.210938 9.539062 4.945312 9.539062 4.675781 9.539062 C 4.335938 9.539062 3.992188 9.539062 3.648438 9.539062 C 3.386719 9.535156 3.121094 9.539062 2.859375 9.539062 C 2.671875 9.539062 2.484375 9.539062 2.292969 9.535156 C 2.179688 9.539062 2.066406 9.539062 1.949219 9.539062 C 1.847656 9.539062 1.746094 9.539062 1.644531 9.539062 C 1.390625 9.539062 1.390625 9.539062 1.21875 9.75 Z M 1.21875 9.75 "/>
<path style=" stroke:none;fill-rule:nonzero;fill:rgb(24.313726%,21.176471%,47.058824%);fill-opacity:1;" d="M 3.375 20.625 C 9.066406 20.625 14.761719 20.625 20.625 20.625 C 20.625 20.75 20.625 20.871094 20.625 21 C 14.933594 21 9.238281 21 3.375 21 C 3.375 20.875 3.375 20.753906 3.375 20.625 Z M 3.375 20.625 "/>
<path style=" stroke:none;fill-rule:nonzero;fill:rgb(89.019608%,63.137257%,17.254902%);fill-opacity:1;" d="M 13.96875 17.4375 C 15.949219 17.4375 17.929688 17.4375 19.96875 17.4375 C 19.96875 17.652344 19.96875 17.871094 19.96875 18.09375 C 17.988281 18.09375 16.007812 18.09375 13.96875 18.09375 C 13.96875 17.878906 13.96875 17.660156 13.96875 17.4375 Z M 13.96875 17.4375 "/>
<path style=" stroke:none;fill-rule:nonzero;fill:rgb(32.941177%,23.137255%,47.058824%);fill-opacity:1;" d="M 14.558594 17.121094 C 14.679688 17.121094 14.800781 17.121094 14.925781 17.121094 C 15.058594 17.121094 15.191406 17.121094 15.324219 17.121094 C 15.457031 17.121094 15.59375 17.121094 15.730469 17.121094 C 16.015625 17.121094 16.300781 17.125 16.582031 17.125 C 16.949219 17.128906 17.3125 17.128906 17.679688 17.125 C 17.957031 17.125 18.238281 17.128906 18.519531 17.128906 C 18.652344 17.128906 18.789062 17.128906 18.921875 17.128906 C 19.109375 17.128906 19.296875 17.128906 19.488281 17.128906 C 19.648438 17.128906 19.648438 17.128906 19.8125 17.132812 C 20.0625 17.15625 20.0625 17.15625 20.25 17.34375 C 20.273438 17.539062 20.273438 17.539062 20.273438 17.765625 C 20.273438 17.878906 20.273438 17.878906 20.273438 17.992188 C 20.25 18.1875 20.25 18.1875 20.0625 18.375 C 19.804688 18.398438 19.804688 18.398438 19.476562 18.398438 C 19.351562 18.398438 19.230469 18.398438 19.101562 18.402344 C 18.96875 18.402344 18.832031 18.398438 18.695312 18.398438 C 18.558594 18.398438 18.421875 18.398438 18.285156 18.398438 C 17.992188 18.402344 17.703125 18.398438 17.414062 18.398438 C 17.042969 18.398438 16.671875 18.398438 16.300781 18.398438 C 16.015625 18.402344 15.730469 18.402344 15.445312 18.398438 C 15.308594 18.398438 15.171875 18.398438 15.035156 18.398438 C 14.84375 18.402344 14.652344 18.398438 14.460938 18.398438 C 14.296875 18.398438 14.296875 18.398438 14.132812 18.398438 C 13.875 18.375 13.875 18.375 13.6875 18.1875 C 13.632812 17.511719 13.632812 17.511719 13.792969 17.289062 C 14.046875 17.097656 14.242188 17.121094 14.558594 17.121094 Z M 13.96875 17.4375 C 13.96875 17.652344 13.96875 17.871094 13.96875 18.09375 C 15.949219 18.09375 17.929688 18.09375 19.96875 18.09375 C 19.96875 17.878906 19.96875 17.660156 19.96875 17.4375 C 17.988281 17.4375 16.007812 17.4375 13.96875 17.4375 Z M 13.96875 17.4375 "/>
<path style=" stroke:none;fill-rule:nonzero;fill:rgb(89.019608%,63.137257%,17.254902%);fill-opacity:1;" d="M 13.96875 11.15625 C 15.949219 11.15625 17.929688 11.15625 19.96875 11.15625 C 19.96875 11.371094 19.96875 11.589844 19.96875 11.8125 C 17.988281 11.8125 16.007812 11.8125 13.96875 11.8125 C 13.96875 11.597656 13.96875 11.378906 13.96875 11.15625 Z M 13.96875 11.15625 "/>
<path style=" stroke:none;fill-rule:nonzero;fill:rgb(89.803922%,63.921571%,16.862746%);fill-opacity:1;" d="M 13.96875 4.875 C 15.949219 4.875 17.929688 4.875 19.96875 4.875 C 19.96875 5.089844 19.96875 5.308594 19.96875 5.53125 C 19.199219 5.53125 18.433594 5.535156 17.664062 5.535156 C 17.304688 5.535156 16.949219 5.535156 16.59375 5.539062 C 16.25 5.539062 15.90625 5.539062 15.5625 5.539062 C 15.429688 5.539062 15.296875 5.539062 15.164062 5.542969 C 14.980469 5.542969 14.800781 5.542969 14.617188 5.542969 C 14.511719 5.542969 14.40625 5.542969 14.296875 5.542969 C 14.0625 5.53125 14.0625 5.53125 13.96875 5.4375 C 13.96875 5.25 13.96875 5.066406 13.96875 4.875 Z M 13.96875 4.875 "/>
<path style=" stroke:none;fill-rule:nonzero;fill:rgb(26.274511%,27.058825%,52.156866%);fill-opacity:1;" d="M 14.558594 10.839844 C 14.679688 10.839844 14.800781 10.839844 14.925781 10.839844 C 15.058594 10.839844 15.191406 10.839844 15.324219 10.839844 C 15.457031 10.839844 15.59375 10.839844 15.730469 10.839844 C 16.015625 10.839844 16.300781 10.84375 16.582031 10.84375 C 16.949219 10.847656 17.3125 10.847656 17.679688 10.84375 C 17.957031 10.84375 18.238281 10.847656 18.519531 10.847656 C 18.652344 10.847656 18.789062 10.847656 18.921875 10.847656 C 19.109375 10.847656 19.296875 10.847656 19.488281 10.847656 C 19.648438 10.847656 19.648438 10.847656 19.8125 10.851562 C 20.0625 10.875 20.0625 10.875 20.25 11.0625 C 20.273438 11.257812 20.273438 11.257812 20.273438 11.484375 C 20.273438 11.597656 20.273438 11.597656 20.273438 11.710938 C 20.25 11.90625 20.25 11.90625 20.0625 12.09375 C 19.8125 12.117188 19.8125 12.117188 19.488281 12.121094 C 19.367188 12.121094 19.246094 12.121094 19.117188 12.121094 C 18.988281 12.121094 18.855469 12.121094 18.722656 12.121094 C 18.585938 12.121094 18.449219 12.121094 18.3125 12.125 C 18.03125 12.125 17.746094 12.125 17.460938 12.125 C 17.097656 12.121094 16.730469 12.125 16.367188 12.125 C 16.085938 12.128906 15.804688 12.128906 15.523438 12.128906 C 15.390625 12.128906 15.253906 12.128906 15.121094 12.128906 C 14.933594 12.128906 14.746094 12.128906 14.558594 12.128906 C 14.449219 12.128906 14.34375 12.128906 14.234375 12.128906 C 13.96875 12.09375 13.96875 12.09375 13.792969 11.972656 C 13.613281 11.703125 13.652344 11.46875 13.6875 11.15625 C 13.914062 10.8125 14.167969 10.839844 14.558594 10.839844 Z M 13.96875 11.15625 C 13.96875 11.371094 13.96875 11.589844 13.96875 11.8125 C 15.949219 11.8125 17.929688 11.8125 19.96875 11.8125 C 19.96875 11.597656 19.96875 11.378906 19.96875 11.15625 C 17.988281 11.15625 16.007812 11.15625 13.96875 11.15625 Z M 13.96875 11.15625 "/>
<path style=" stroke:none;fill-rule:nonzero;fill:rgb(36.470589%,46.27451%,84.313726%);fill-opacity:1;" d="M 1.644531 9.539062 C 1.796875 9.539062 1.796875 9.539062 1.953125 9.539062 C 2.125 9.539062 2.125 9.539062 2.300781 9.539062 C 2.425781 9.542969 2.550781 9.542969 2.675781 9.542969 C 2.804688 9.542969 2.929688 9.542969 3.058594 9.542969 C 3.394531 9.546875 3.734375 9.546875 4.070312 9.550781 C 4.414062 9.550781 4.757812 9.550781 5.101562 9.554688 C 5.777344 9.554688 6.449219 9.558594 7.125 9.5625 C 7.125 9.59375 7.125 9.625 7.125 9.65625 C 5.453125 9.6875 3.785156 9.71875 2.0625 9.75 C 2.0625 10.894531 2.0625 12.039062 2.0625 13.21875 C 3.734375 13.25 5.402344 13.28125 7.125 13.3125 C 7.125 13.34375 7.125 13.375 7.125 13.40625 C 6.382812 13.410156 5.640625 13.414062 4.898438 13.414062 C 4.554688 13.417969 4.207031 13.417969 3.863281 13.421875 C 3.53125 13.421875 3.199219 13.425781 2.867188 13.425781 C 2.738281 13.425781 2.613281 13.425781 2.484375 13.425781 C 2.308594 13.429688 2.128906 13.429688 1.953125 13.429688 C 1.851562 13.429688 1.75 13.429688 1.644531 13.429688 C 1.40625 13.40625 1.40625 13.40625 1.21875 13.21875 C 1.199219 12.960938 1.191406 12.707031 1.195312 12.449219 C 1.195312 12.371094 1.191406 12.296875 1.191406 12.21875 C 1.191406 12.054688 1.191406 11.894531 1.195312 11.734375 C 1.195312 11.484375 1.195312 11.238281 1.191406 10.992188 C 1.191406 10.832031 1.191406 10.675781 1.195312 10.519531 C 1.191406 10.445312 1.191406 10.371094 1.191406 10.296875 C 1.199219 9.582031 1.199219 9.582031 1.644531 9.539062 Z M 1.644531 9.539062 "/>
<path style=" stroke:none;fill-rule:nonzero;fill:rgb(43.529412%,43.137255%,46.666667%);fill-opacity:1;" d="M 1.644531 3.257812 C 1.796875 3.257812 1.796875 3.257812 1.953125 3.257812 C 2.125 3.257812 2.125 3.257812 2.300781 3.257812 C 2.425781 3.261719 2.550781 3.261719 2.675781 3.261719 C 2.804688 3.261719 2.929688 3.261719 3.058594 3.261719 C 3.394531 3.265625 3.734375 3.265625 4.070312 3.269531 C 4.414062 3.269531 4.757812 3.269531 5.101562 3.273438 C 5.777344 3.273438 6.449219 3.277344 7.125 3.28125 C 7.125 3.3125 7.125 3.34375 7.125 3.375 C 5.453125 3.40625 3.785156 3.4375 2.0625 3.46875 C 2.0625 4.613281 2.0625 5.757812 2.0625 6.9375 C 3.734375 6.96875 5.402344 7 7.125 7.03125 C 7.125 7.0625 7.125 7.09375 7.125 7.125 C 6.382812 7.128906 5.640625 7.132812 4.898438 7.132812 C 4.554688 7.136719 4.207031 7.136719 3.863281 7.140625 C 3.53125 7.140625 3.199219 7.144531 2.867188 7.144531 C 2.738281 7.144531 2.613281 7.144531 2.484375 7.144531 C 2.308594 7.148438 2.128906 7.148438 1.953125 7.148438 C 1.851562 7.148438 1.75 7.148438 1.644531 7.148438 C 1.40625 7.125 1.40625 7.125 1.21875 6.9375 C 1.199219 6.679688 1.191406 6.425781 1.195312 6.167969 C 1.195312 6.089844 1.191406 6.015625 1.191406 5.9375 C 1.191406 5.773438 1.191406 5.613281 1.195312 5.453125 C 1.195312 5.203125 1.195312 4.957031 1.191406 4.710938 C 1.191406 4.550781 1.191406 4.394531 1.195312 4.238281 C 1.191406 4.164062 1.191406 4.089844 1.191406 4.015625 C 1.199219 3.300781 1.199219 3.300781 1.644531 3.257812 Z M 1.644531 3.257812 "/>
<path style=" stroke:none;fill-rule:nonzero;fill:rgb(94.509804%,52.549022%,45.882353%);fill-opacity:1;" d="M 21.9375 15.9375 C 22.183594 15.9375 22.433594 15.9375 22.6875 15.9375 C 22.859375 16.109375 22.792969 16.339844 22.792969 16.570312 C 22.792969 16.644531 22.792969 16.71875 22.792969 16.796875 C 22.792969 16.871094 22.792969 16.949219 22.792969 17.027344 C 22.792969 17.191406 22.792969 17.351562 22.792969 17.515625 C 22.792969 17.765625 22.792969 18.015625 22.792969 18.261719 C 22.792969 18.421875 22.792969 18.578125 22.792969 18.734375 C 22.792969 18.808594 22.792969 18.886719 22.792969 18.960938 C 22.792969 19.488281 22.792969 19.488281 22.6875 19.59375 C 22.441406 19.59375 22.191406 19.59375 21.9375 19.59375 C 21.9375 18.386719 21.9375 17.179688 21.9375 15.9375 Z M 21.9375 15.9375 "/>
<path style=" stroke:none;fill-rule:nonzero;fill:rgb(94.509804%,18.82353%,45.882353%);fill-opacity:1;" d="M 1.3125 15.9375 C 1.558594 15.9375 1.808594 15.9375 2.0625 15.9375 C 2.0625 17.144531 2.0625 18.351562 2.0625 19.59375 C 1.816406 19.59375 1.566406 19.59375 1.3125 19.59375 C 1.140625 19.421875 1.207031 19.191406 1.207031 18.960938 C 1.207031 18.886719 1.207031 18.8125 1.207031 18.734375 C 1.207031 18.660156 1.207031 18.582031 1.207031 18.503906 C 1.207031 18.339844 1.207031 18.179688 1.207031 18.015625 C 1.207031 17.765625 1.207031 17.515625 1.207031 17.269531 C 1.207031 17.109375 1.207031 16.953125 1.207031 16.796875 C 1.207031 16.722656 1.207031 16.644531 1.207031 16.570312 C 1.207031 16.042969 1.207031 16.042969 1.3125 15.9375 Z M 1.3125 15.9375 "/>
<path style=" stroke:none;fill-rule:nonzero;fill:rgb(38.431373%,87.450981%,89.803922%);fill-opacity:1;" d="M 21.9375 9.65625 C 22.183594 9.65625 22.433594 9.65625 22.6875 9.65625 C 22.859375 9.828125 22.792969 10.058594 22.792969 10.289062 C 22.792969 10.363281 22.792969 10.4375 22.792969 10.515625 C 22.792969 10.589844 22.792969 10.667969 22.792969 10.746094 C 22.792969 10.910156 22.792969 11.070312 22.792969 11.234375 C 22.792969 11.484375 22.792969 11.734375 22.792969 11.980469 C 22.792969 12.140625 22.792969 12.296875 22.792969 12.453125 C 22.792969 12.527344 22.792969 12.605469 22.792969 12.679688 C 22.792969 13.207031 22.792969 13.207031 22.6875 13.3125 C 22.441406 13.3125 22.191406 13.3125 21.9375 13.3125 C 21.9375 12.105469 21.9375 10.898438 21.9375 9.65625 Z M 21.9375 9.65625 "/>
<path style=" stroke:none;fill-rule:nonzero;fill:rgb(79.607844%,79.607844%,80.000001%);fill-opacity:1;" d="M 21.9375 3.375 C 22.183594 3.375 22.433594 3.375 22.6875 3.375 C 22.859375 3.546875 22.792969 3.777344 22.792969 4.007812 C 22.792969 4.082031 22.792969 4.15625 22.792969 4.234375 C 22.792969 4.308594 22.792969 4.386719 22.792969 4.464844 C 22.792969 4.628906 22.792969 4.789062 22.792969 4.953125 C 22.792969 5.203125 22.792969 5.453125 22.792969 5.699219 C 22.792969 5.859375 22.792969 6.015625 22.792969 6.171875 C 22.792969 6.246094 22.792969 6.324219 22.792969 6.398438 C 22.792969 6.925781 22.792969 6.925781 22.6875 7.03125 C 22.441406 7.03125 22.191406 7.03125 21.9375 7.03125 C 21.9375 5.824219 21.9375 4.617188 21.9375 3.375 Z M 21.9375 3.375 "/>
<path style=" stroke:none;fill-rule:nonzero;fill:rgb(24.705882%,20.784314%,47.450981%);fill-opacity:1;" d="M 21.28125 20.625 C 21.929688 20.625 22.582031 20.625 23.25 20.625 C 23.25 20.75 23.25 20.871094 23.25 21 C 22.601562 21 21.949219 21 21.28125 21 C 21.28125 20.875 21.28125 20.753906 21.28125 20.625 Z M 21.28125 20.625 "/>
<path style=" stroke:none;fill-rule:nonzero;fill:rgb(24.705882%,20.784314%,47.058824%);fill-opacity:1;" d="M 0.75 20.625 C 1.398438 20.625 2.050781 20.625 2.71875 20.625 C 2.71875 20.75 2.71875 20.871094 2.71875 21 C 2.070312 21 1.417969 21 0.75 21 C 0.75 20.875 0.75 20.753906 0.75 20.625 Z M 0.75 20.625 "/>
</g>
</svg>
