<?xml version="1.0" encoding="UTF-8"?>
<svg xmlns="http://www.w3.org/2000/svg" xmlns:xlink="http://www.w3.org/1999/xlink" width="24" height="24" viewBox="0 0 24 24" version="1.1">
<g id="surface1">
<path style=" stroke:none;fill-rule:nonzero;fill:rgb(10.588235%,13.333334%,12.54902%);fill-opacity:1;" d="M 5.390625 1.113281 C 5.511719 1.113281 5.632812 1.113281 5.757812 1.113281 C 5.890625 1.113281 6.023438 1.113281 6.15625 1.113281 C 6.296875 1.113281 6.4375 1.109375 6.578125 1.109375 C 6.960938 1.109375 7.34375 1.109375 7.726562 1.109375 C 7.964844 1.109375 8.203125 1.109375 8.441406 1.109375 C 9.277344 1.109375 10.113281 1.109375 10.945312 1.109375 C 11.722656 1.109375 12.5 1.105469 13.273438 1.105469 C 13.941406 1.105469 14.609375 1.101562 15.277344 1.101562 C 15.675781 1.105469 16.074219 1.101562 16.472656 1.101562 C 16.847656 1.101562 17.222656 1.101562 17.597656 1.101562 C 17.734375 1.101562 17.871094 1.101562 18.007812 1.101562 C 19.101562 1.097656 19.976562 1.113281 20.8125 1.875 C 21.433594 2.496094 21.585938 3.136719 21.589844 4 C 21.589844 4.261719 21.585938 4.523438 21.578125 4.789062 C 21.578125 4.921875 21.578125 5.058594 21.578125 5.195312 C 21.574219 5.527344 21.566406 5.855469 21.5625 6.1875 C 21.652344 6.183594 21.742188 6.179688 21.832031 6.175781 C 21.949219 6.171875 22.070312 6.167969 22.1875 6.164062 C 22.304688 6.160156 22.421875 6.15625 22.542969 6.152344 C 22.933594 6.195312 23.074219 6.277344 23.34375 6.5625 C 23.503906 6.894531 23.554688 7.15625 23.558594 7.523438 C 23.558594 7.617188 23.558594 7.714844 23.558594 7.8125 C 23.558594 7.964844 23.558594 7.964844 23.558594 8.125 C 23.558594 8.230469 23.558594 8.335938 23.5625 8.445312 C 23.5625 8.667969 23.5625 8.894531 23.5625 9.117188 C 23.5625 9.460938 23.5625 9.804688 23.566406 10.148438 C 23.566406 10.363281 23.566406 10.582031 23.566406 10.800781 C 23.566406 10.902344 23.566406 11.007812 23.566406 11.109375 C 23.5625 11.710938 23.542969 12.179688 23.09375 12.625 C 22.789062 12.800781 22.546875 12.777344 22.195312 12.765625 C 22.078125 12.765625 21.957031 12.761719 21.835938 12.761719 C 21.746094 12.757812 21.65625 12.753906 21.5625 12.75 C 21.5625 12.867188 21.5625 12.867188 21.5625 12.988281 C 21.570312 13.738281 21.574219 14.488281 21.578125 15.238281 C 21.578125 15.621094 21.578125 16.007812 21.582031 16.390625 C 21.585938 16.761719 21.589844 17.136719 21.589844 17.507812 C 21.589844 17.648438 21.589844 17.789062 21.59375 17.929688 C 21.601562 18.878906 21.609375 19.773438 20.941406 20.515625 C 20.882812 20.578125 20.828125 20.644531 20.769531 20.714844 C 20.074219 21.277344 19.382812 21.335938 18.515625 21.324219 C 18.402344 21.324219 18.289062 21.324219 18.167969 21.324219 C 17.859375 21.324219 17.546875 21.320312 17.234375 21.320312 C 16.910156 21.316406 16.582031 21.316406 16.257812 21.316406 C 15.640625 21.316406 15.023438 21.3125 14.40625 21.308594 C 13.703125 21.304688 13.003906 21.300781 12.300781 21.300781 C 10.855469 21.296875 9.414062 21.289062 7.96875 21.28125 C 7.941406 21.339844 7.914062 21.398438 7.886719 21.457031 C 7.542969 22.101562 6.652344 22.503906 5.984375 22.71875 C 4.730469 23.023438 3.582031 22.84375 2.460938 22.222656 C 1.527344 21.640625 0.914062 20.753906 0.601562 19.695312 C 0.347656 18.484375 0.554688 17.28125 1.203125 16.242188 C 1.503906 15.8125 1.867188 15.332031 2.34375 15.09375 C 2.375 14.320312 2.40625 13.546875 2.4375 12.75 C 2.125 12.761719 2.125 12.761719 1.8125 12.773438 C 1.417969 12.789062 1.199219 12.792969 0.859375 12.589844 C 0.523438 12.234375 0.445312 11.894531 0.441406 11.414062 C 0.441406 11.269531 0.441406 11.269531 0.441406 11.125 C 0.441406 11.023438 0.441406 10.917969 0.441406 10.8125 C 0.441406 10.707031 0.4375 10.601562 0.4375 10.492188 C 0.4375 10.269531 0.4375 10.042969 0.4375 9.820312 C 0.4375 9.476562 0.4375 9.132812 0.433594 8.789062 C 0.433594 8.570312 0.433594 8.355469 0.433594 8.136719 C 0.433594 8.035156 0.433594 7.933594 0.433594 7.824219 C 0.4375 7.207031 0.472656 6.765625 0.914062 6.292969 C 1.214844 6.140625 1.46875 6.160156 1.804688 6.171875 C 1.921875 6.171875 2.042969 6.175781 2.164062 6.179688 C 2.253906 6.179688 2.34375 6.183594 2.4375 6.1875 C 2.4375 6.105469 2.433594 6.019531 2.433594 5.933594 C 2.429688 5.621094 2.425781 5.304688 2.421875 4.992188 C 2.421875 4.855469 2.417969 4.722656 2.417969 4.585938 C 2.394531 3.457031 2.453125 2.628906 3.265625 1.777344 C 3.890625 1.214844 4.566406 1.113281 5.390625 1.113281 Z M 5.390625 1.113281 "/>
<path style=" stroke:none;fill-rule:nonzero;fill:rgb(88.627452%,89.803922%,98.823529%);fill-opacity:1;" d="M 3 12.75 C 8.941406 12.75 14.878906 12.75 21 12.75 C 21 19.535156 21 19.535156 20.460938 20.15625 C 20.410156 20.199219 20.355469 20.242188 20.300781 20.285156 C 20.25 20.328125 20.199219 20.371094 20.144531 20.414062 C 19.78125 20.652344 19.453125 20.742188 19.023438 20.742188 C 18.929688 20.742188 18.835938 20.742188 18.738281 20.742188 C 18.636719 20.742188 18.535156 20.742188 18.429688 20.742188 C 18.269531 20.742188 18.269531 20.742188 18.105469 20.742188 C 17.746094 20.742188 17.390625 20.738281 17.035156 20.738281 C 16.785156 20.738281 16.539062 20.738281 16.292969 20.738281 C 15.707031 20.734375 15.125 20.734375 14.539062 20.730469 C 13.875 20.730469 13.207031 20.730469 12.542969 20.726562 C 11.175781 20.726562 9.804688 20.722656 8.4375 20.71875 C 8.457031 20.664062 8.476562 20.605469 8.496094 20.546875 C 8.519531 20.472656 8.546875 20.398438 8.574219 20.320312 C 8.597656 20.246094 8.621094 20.171875 8.648438 20.097656 C 8.8125 19.574219 8.828125 19.113281 8.832031 18.566406 C 8.832031 18.441406 8.832031 18.441406 8.832031 18.3125 C 8.835938 17.875 8.800781 17.5625 8.625 17.15625 C 8.695312 16.664062 9.09375 16.398438 9.441406 16.078125 C 9.738281 15.796875 9.914062 15.617188 9.9375 15.1875 C 9.886719 15.164062 9.832031 15.140625 9.777344 15.117188 C 9.535156 14.984375 9.332031 14.832031 9.117188 14.660156 C 9.042969 14.601562 8.96875 14.542969 8.890625 14.480469 C 8.832031 14.4375 8.777344 14.390625 8.71875 14.34375 C 8.375 14.484375 8.183594 14.683594 7.945312 14.964844 C 7.878906 15.042969 7.8125 15.117188 7.746094 15.195312 C 7.695312 15.257812 7.644531 15.3125 7.59375 15.375 C 7.195312 15.222656 6.824219 15.035156 6.449219 14.832031 C 5.851562 14.574219 5.289062 14.5 4.644531 14.503906 C 4.546875 14.5 4.546875 14.5 4.449219 14.496094 C 3.882812 14.496094 3.582031 14.621094 3 14.8125 C 3 14.132812 3 13.453125 3 12.75 Z M 3 12.75 "/>
<path style=" stroke:none;fill-rule:nonzero;fill:rgb(98.431373%,81.176472%,30.588236%);fill-opacity:1;" d="M 7.03125 6.75 C 9.066406 6.742188 11.105469 6.738281 13.140625 6.734375 C 14.085938 6.734375 15.03125 6.730469 15.976562 6.726562 C 16.800781 6.726562 17.625 6.722656 18.449219 6.722656 C 18.886719 6.722656 19.320312 6.722656 19.757812 6.71875 C 20.167969 6.71875 20.578125 6.71875 20.988281 6.71875 C 21.140625 6.71875 21.292969 6.71875 21.441406 6.714844 C 21.648438 6.714844 21.855469 6.714844 22.058594 6.714844 C 22.230469 6.714844 22.230469 6.714844 22.40625 6.714844 C 22.6875 6.75 22.6875 6.75 22.863281 6.878906 C 23.011719 7.09375 23.003906 7.25 23.003906 7.507812 C 23.007812 7.601562 23.007812 7.699219 23.007812 7.800781 C 23.007812 7.957031 23.007812 7.957031 23.007812 8.113281 C 23.007812 8.277344 23.007812 8.277344 23.007812 8.441406 C 23.007812 8.667969 23.007812 8.894531 23.003906 9.121094 C 23.003906 9.46875 23.003906 9.816406 23.007812 10.164062 C 23.007812 10.382812 23.007812 10.601562 23.007812 10.824219 C 23.007812 10.925781 23.007812 11.03125 23.007812 11.136719 C 23.007812 11.285156 23.007812 11.285156 23.003906 11.429688 C 23.003906 11.515625 23.003906 11.601562 23.003906 11.691406 C 22.960938 11.960938 22.910156 12.027344 22.6875 12.1875 C 22.40625 12.222656 22.40625 12.222656 22.058594 12.222656 C 21.960938 12.222656 21.960938 12.222656 21.863281 12.222656 C 21.648438 12.222656 21.433594 12.222656 21.21875 12.21875 C 21.0625 12.21875 20.910156 12.21875 20.753906 12.21875 C 20.335938 12.21875 19.917969 12.21875 19.496094 12.214844 C 19.058594 12.214844 18.621094 12.214844 18.183594 12.214844 C 17.355469 12.210938 16.523438 12.210938 15.695312 12.207031 C 14.75 12.203125 13.804688 12.203125 12.859375 12.203125 C 10.917969 12.199219 8.976562 12.191406 7.03125 12.1875 C 7.03125 10.394531 7.03125 8.597656 7.03125 6.75 Z M 7.03125 6.75 "/>
<path style=" stroke:none;fill-rule:nonzero;fill:rgb(1.568628%,70.588237%,63.921571%);fill-opacity:1;" d="M 4.910156 1.769531 C 5.003906 1.769531 5.003906 1.769531 5.101562 1.765625 C 5.308594 1.765625 5.519531 1.765625 5.726562 1.765625 C 5.878906 1.765625 6.027344 1.765625 6.175781 1.765625 C 6.582031 1.761719 6.992188 1.761719 7.398438 1.761719 C 7.652344 1.761719 7.90625 1.761719 8.160156 1.761719 C 8.957031 1.761719 9.753906 1.757812 10.550781 1.757812 C 11.46875 1.757812 12.386719 1.757812 13.308594 1.753906 C 14.015625 1.753906 14.726562 1.75 15.4375 1.75 C 15.863281 1.75 16.285156 1.75 16.710938 1.75 C 17.109375 1.746094 17.507812 1.746094 17.90625 1.746094 C 18.054688 1.746094 18.199219 1.746094 18.347656 1.746094 C 18.546875 1.746094 18.746094 1.746094 18.949219 1.746094 C 19.058594 1.746094 19.171875 1.746094 19.285156 1.746094 C 19.929688 1.820312 20.28125 2.148438 20.671875 2.628906 C 21.089844 3.183594 21 3.449219 21 4.21875 C 15.058594 4.21875 9.121094 4.21875 3 4.21875 C 3 2.914062 3 2.914062 3.558594 2.34375 C 4.03125 1.917969 4.269531 1.769531 4.910156 1.769531 Z M 4.910156 1.769531 "/>
<path style=" stroke:none;fill-rule:nonzero;fill:rgb(1.568628%,69.803923%,63.137257%);fill-opacity:1;" d="M 6.765625 15.488281 C 6.886719 15.570312 7.007812 15.660156 7.125 15.75 C 6.804688 16.199219 6.472656 16.605469 6.074219 16.988281 C 5.835938 17.226562 5.621094 17.480469 5.40625 17.738281 C 5.242188 17.914062 5.070312 18.050781 4.875 18.1875 C 4.75 18.050781 4.625 17.914062 4.5 17.777344 C 4.429688 17.703125 4.359375 17.625 4.289062 17.546875 C 4.125 17.34375 4.125 17.34375 4.125 17.15625 C 3.789062 17.109375 3.679688 17.140625 3.402344 17.34375 C 3.320312 17.425781 3.238281 17.511719 3.152344 17.59375 C 3.070312 17.675781 2.984375 17.757812 2.898438 17.84375 C 2.699219 18.074219 2.699219 18.074219 2.710938 18.328125 C 2.84375 18.632812 3.015625 18.824219 3.246094 19.0625 C 3.332031 19.152344 3.414062 19.238281 3.5 19.332031 C 3.585938 19.417969 3.664062 19.503906 3.75 19.59375 C 3.875 19.730469 3.996094 19.871094 4.121094 20.007812 C 4.167969 20.066406 4.21875 20.121094 4.269531 20.179688 C 4.414062 20.355469 4.550781 20.535156 4.6875 20.71875 C 5.144531 20.703125 5.347656 20.472656 5.640625 20.160156 C 5.867188 19.910156 6.085938 19.65625 6.304688 19.402344 C 6.511719 19.167969 6.734375 18.949219 6.960938 18.730469 C 7.136719 18.550781 7.300781 18.363281 7.464844 18.171875 C 7.707031 17.890625 7.949219 17.65625 8.25 17.4375 C 8.589844 18.375 8.503906 19.238281 8.113281 20.152344 C 7.746094 20.871094 7.253906 21.425781 6.5625 21.84375 C 6.5 21.882812 6.433594 21.921875 6.371094 21.960938 C 5.578125 22.355469 4.496094 22.398438 3.648438 22.164062 C 2.511719 21.75 1.832031 21.015625 1.324219 19.945312 C 1.019531 19.203125 1 18.238281 1.1875 17.457031 C 1.277344 17.25 1.378906 17.066406 1.5 16.875 C 1.539062 16.804688 1.574219 16.734375 1.613281 16.664062 C 2.128906 15.78125 2.964844 15.242188 3.933594 14.964844 C 4.972656 14.75 5.847656 14.96875 6.765625 15.488281 Z M 6.765625 15.488281 "/>
<path style=" stroke:none;fill-rule:nonzero;fill:rgb(98.431373%,25.098041%,27.843139%);fill-opacity:1;" d="M 1.816406 6.71875 C 1.972656 6.71875 1.972656 6.71875 2.132812 6.71875 C 2.246094 6.71875 2.355469 6.722656 2.46875 6.722656 C 2.621094 6.722656 2.621094 6.722656 2.773438 6.722656 C 3.152344 6.726562 3.53125 6.726562 3.910156 6.730469 C 5.175781 6.742188 5.175781 6.742188 6.46875 6.75 C 6.46875 8.542969 6.46875 10.339844 6.46875 12.1875 C 5.625 12.191406 4.777344 12.199219 3.910156 12.207031 C 3.507812 12.210938 3.507812 12.210938 3.101562 12.210938 C 2.890625 12.214844 2.679688 12.214844 2.46875 12.214844 C 2.304688 12.21875 2.304688 12.21875 2.132812 12.21875 C 1.976562 12.21875 1.976562 12.21875 1.816406 12.21875 C 1.679688 12.21875 1.679688 12.21875 1.542969 12.222656 C 1.3125 12.1875 1.3125 12.1875 1.144531 12.074219 C 0.992188 11.851562 0.996094 11.699219 0.996094 11.429688 C 0.992188 11.335938 0.992188 11.238281 0.992188 11.136719 C 0.992188 11.035156 0.992188 10.929688 0.992188 10.824219 C 0.992188 10.714844 0.992188 10.609375 0.992188 10.496094 C 0.992188 10.269531 0.992188 10.042969 0.996094 9.816406 C 0.996094 9.46875 0.996094 9.121094 0.992188 8.773438 C 0.992188 8.554688 0.992188 8.335938 0.992188 8.113281 C 0.992188 8.011719 0.992188 7.90625 0.992188 7.800781 C 0.992188 7.703125 0.992188 7.605469 0.996094 7.507812 C 0.996094 7.421875 0.996094 7.335938 0.996094 7.25 C 1.03125 7.03125 1.03125 7.03125 1.144531 6.863281 C 1.375 6.707031 1.539062 6.714844 1.816406 6.71875 Z M 1.816406 6.71875 "/>
<path style=" stroke:none;fill-rule:nonzero;fill:rgb(89.411765%,90.588236%,99.607843%);fill-opacity:1;" d="M 3 4.78125 C 8.941406 4.78125 14.878906 4.78125 21 4.78125 C 21 5.246094 21 5.710938 21 6.1875 C 15.058594 6.1875 9.121094 6.1875 3 6.1875 C 3 5.722656 3 5.257812 3 4.78125 Z M 3 4.78125 "/>
<path style=" stroke:none;fill-rule:nonzero;fill:rgb(13.333334%,11.372549%,11.764706%);fill-opacity:1;" d="M 4.417969 7.777344 C 4.820312 8.003906 5.074219 8.390625 5.25 8.8125 C 5.308594 9.339844 5.269531 9.820312 5.0625 10.3125 C 5.179688 10.417969 5.179688 10.417969 5.300781 10.523438 C 5.378906 10.609375 5.453125 10.695312 5.53125 10.78125 C 5.511719 10.996094 5.511719 10.996094 5.4375 11.15625 C 5 11.097656 5 11.097656 4.835938 10.914062 C 4.785156 10.871094 4.738281 10.828125 4.6875 10.78125 C 4.5 10.792969 4.5 10.792969 4.300781 10.863281 C 3.714844 11.015625 3.238281 10.996094 2.695312 10.722656 C 2.292969 10.375 2.011719 10.113281 1.925781 9.570312 C 1.90625 8.996094 1.9375 8.597656 2.34375 8.15625 C 3 7.566406 3.585938 7.433594 4.417969 7.777344 Z M 4.417969 7.777344 "/>
<path style=" stroke:none;fill-rule:nonzero;fill:rgb(96.862745%,96.862745%,96.862745%);fill-opacity:1;" d="M 8.625 14.90625 C 8.90625 15.070312 8.90625 15.070312 9.1875 15.28125 C 9.1875 15.65625 9.1875 15.65625 9.046875 15.832031 C 8.984375 15.890625 8.917969 15.949219 8.855469 16.007812 C 8.589844 16.257812 8.339844 16.511719 8.105469 16.785156 C 7.84375 17.085938 7.570312 17.367188 7.289062 17.644531 C 7.121094 17.820312 6.960938 18 6.800781 18.183594 C 6.519531 18.511719 6.214844 18.816406 5.90625 19.121094 C 5.65625 19.375 5.429688 19.648438 5.207031 19.925781 C 5.0625 20.0625 5.0625 20.0625 4.78125 20.0625 C 4.539062 19.871094 4.335938 19.632812 4.125 19.40625 C 4.066406 19.34375 4.003906 19.277344 3.941406 19.210938 C 3.648438 18.890625 3.402344 18.617188 3.28125 18.1875 C 3.558594 17.957031 3.558594 17.957031 3.84375 17.71875 C 4.152344 18.058594 4.460938 18.398438 4.78125 18.75 C 5.1875 18.648438 5.277344 18.566406 5.558594 18.277344 C 5.636719 18.199219 5.710938 18.121094 5.789062 18.042969 C 6.015625 17.796875 6.238281 17.546875 6.457031 17.289062 C 6.734375 16.972656 7.023438 16.667969 7.3125 16.359375 C 7.757812 15.882812 8.203125 15.402344 8.625 14.90625 Z M 8.625 14.90625 "/>
<path style=" stroke:none;fill-rule:nonzero;fill:rgb(17.254902%,19.215687%,17.254902%);fill-opacity:1;" d="M 15.84375 7.875 C 16.089844 7.875 16.339844 7.875 16.59375 7.875 C 16.613281 7.980469 16.632812 8.089844 16.652344 8.199219 C 16.675781 8.339844 16.703125 8.480469 16.730469 8.621094 C 16.742188 8.691406 16.753906 8.761719 16.765625 8.832031 C 16.804688 9.179688 16.804688 9.179688 16.96875 9.46875 C 17.0625 9.160156 17.15625 8.851562 17.25 8.53125 C 17.4375 8.53125 17.621094 8.53125 17.8125 8.53125 C 17.90625 8.808594 18 9.089844 18.09375 9.375 C 18.125 9.375 18.15625 9.375 18.1875 9.375 C 18.28125 8.878906 18.375 8.386719 18.46875 7.875 C 18.714844 7.875 18.964844 7.875 19.21875 7.875 C 19.152344 8.300781 19.089844 8.726562 19.023438 9.152344 C 19 9.296875 18.980469 9.441406 18.957031 9.585938 C 18.925781 9.792969 18.894531 10.003906 18.863281 10.210938 C 18.851562 10.273438 18.84375 10.339844 18.832031 10.40625 C 18.761719 10.863281 18.761719 10.863281 18.65625 10.96875 C 18.46875 10.972656 18.28125 10.972656 18.09375 10.96875 C 17.871094 10.503906 17.679688 10.082031 17.625 9.5625 C 17.5625 9.5625 17.5 9.5625 17.4375 9.5625 C 17.421875 9.644531 17.421875 9.644531 17.40625 9.726562 C 17.316406 10.179688 17.199219 10.5625 16.96875 10.96875 C 16.78125 10.96875 16.597656 10.96875 16.40625 10.96875 C 16.203125 10.34375 16.117188 9.703125 16.019531 9.050781 C 15.992188 8.882812 15.992188 8.882812 15.96875 8.710938 C 15.925781 8.429688 15.886719 8.152344 15.84375 7.875 Z M 15.84375 7.875 "/>
<path style=" stroke:none;fill-rule:nonzero;fill:rgb(16.862746%,18.82353%,17.254902%);fill-opacity:1;" d="M 8.4375 7.875 C 8.683594 7.875 8.933594 7.875 9.1875 7.875 C 9.207031 7.988281 9.226562 8.101562 9.246094 8.21875 C 9.269531 8.367188 9.296875 8.515625 9.324219 8.667969 C 9.335938 8.742188 9.347656 8.816406 9.359375 8.894531 C 9.394531 9.257812 9.394531 9.257812 9.5625 9.5625 C 9.582031 9.496094 9.601562 9.429688 9.621094 9.359375 C 9.644531 9.273438 9.671875 9.1875 9.699219 9.097656 C 9.722656 9.015625 9.746094 8.929688 9.773438 8.839844 C 9.84375 8.625 9.84375 8.625 9.9375 8.53125 C 10.09375 8.527344 10.25 8.527344 10.40625 8.53125 C 10.453125 8.648438 10.5 8.769531 10.546875 8.886719 C 10.574219 8.953125 10.597656 9.023438 10.625 9.089844 C 10.6875 9.28125 10.6875 9.28125 10.6875 9.5625 C 10.75 9.5625 10.8125 9.5625 10.875 9.5625 C 10.882812 9.449219 10.882812 9.449219 10.890625 9.335938 C 10.96875 8.347656 10.96875 8.347656 11.0625 7.875 C 11.308594 7.875 11.558594 7.875 11.8125 7.875 C 11.402344 10.816406 11.402344 10.816406 11.25 10.96875 C 11.0625 10.972656 10.875 10.972656 10.6875 10.96875 C 10.664062 10.90625 10.636719 10.84375 10.613281 10.777344 C 10.578125 10.691406 10.546875 10.609375 10.511719 10.523438 C 10.480469 10.441406 10.445312 10.359375 10.414062 10.273438 C 10.324219 10.0625 10.226562 9.859375 10.125 9.65625 C 9.96875 10.089844 9.816406 10.523438 9.65625 10.96875 C 9.441406 10.96875 9.222656 10.96875 9 10.96875 C 8.765625 9.945312 8.59375 8.914062 8.4375 7.875 Z M 8.4375 7.875 "/>
<path style=" stroke:none;fill-rule:nonzero;fill:rgb(16.470589%,18.82353%,17.254902%);fill-opacity:1;" d="M 12.1875 7.875 C 12.402344 7.875 12.621094 7.875 12.84375 7.875 C 12.96875 8.460938 13.089844 9.050781 13.21875 9.65625 C 13.261719 9.488281 13.308594 9.320312 13.355469 9.144531 C 13.488281 8.636719 13.488281 8.636719 13.59375 8.53125 C 13.75 8.53125 13.902344 8.53125 14.0625 8.53125 C 14.1875 8.839844 14.308594 9.148438 14.4375 9.46875 C 14.464844 9.34375 14.492188 9.222656 14.519531 9.09375 C 14.609375 8.6875 14.710938 8.28125 14.8125 7.875 C 15.027344 7.875 15.246094 7.875 15.46875 7.875 C 15.425781 8.925781 15.207031 9.941406 15 10.96875 C 14.785156 10.96875 14.566406 10.96875 14.34375 10.96875 C 14.1875 10.535156 14.035156 10.101562 13.875 9.65625 C 13.582031 10.308594 13.582031 10.308594 13.3125 10.96875 C 13.125 10.96875 12.941406 10.96875 12.75 10.96875 C 12.617188 10.65625 12.523438 10.359375 12.460938 10.023438 C 12.445312 9.933594 12.429688 9.84375 12.414062 9.753906 C 12.386719 9.613281 12.386719 9.613281 12.363281 9.472656 C 12.347656 9.382812 12.328125 9.292969 12.3125 9.195312 C 12.230469 8.75 12.164062 8.328125 12.1875 7.875 Z M 12.1875 7.875 "/>
<path style=" stroke:none;fill-rule:nonzero;fill:rgb(7.843138%,14.901961%,14.509805%);fill-opacity:1;" d="M 11.257812 2.695312 C 11.335938 2.695312 11.414062 2.695312 11.496094 2.695312 C 11.582031 2.695312 11.664062 2.695312 11.753906 2.695312 C 12.03125 2.695312 12.308594 2.695312 12.585938 2.695312 C 12.777344 2.695312 12.972656 2.695312 13.164062 2.695312 C 13.566406 2.695312 13.972656 2.699219 14.375 2.699219 C 14.894531 2.699219 15.414062 2.699219 15.933594 2.699219 C 16.332031 2.699219 16.730469 2.703125 17.125 2.703125 C 17.316406 2.703125 17.511719 2.703125 17.703125 2.703125 C 17.96875 2.703125 18.234375 2.703125 18.503906 2.703125 C 18.582031 2.703125 18.660156 2.703125 18.742188 2.703125 C 19.292969 2.707031 19.292969 2.707031 19.5 2.8125 C 19.417969 3.175781 19.417969 3.175781 19.3125 3.28125 C 19.042969 3.289062 18.777344 3.292969 18.511719 3.292969 C 18.425781 3.292969 18.339844 3.292969 18.253906 3.292969 C 17.976562 3.292969 17.695312 3.292969 17.417969 3.289062 C 17.222656 3.289062 17.03125 3.289062 16.835938 3.289062 C 16.328125 3.289062 15.816406 3.289062 15.308594 3.289062 C 14.789062 3.285156 14.269531 3.285156 13.75 3.285156 C 12.726562 3.285156 11.707031 3.28125 10.6875 3.28125 C 10.625 3.15625 10.5625 3.035156 10.5 2.90625 C 10.746094 2.660156 10.921875 2.695312 11.257812 2.695312 Z M 11.257812 2.695312 "/>
<path style=" stroke:none;fill-rule:nonzero;fill:rgb(14.117648%,16.470589%,16.862746%);fill-opacity:1;" d="M 12.5625 14.515625 C 12.660156 14.515625 12.660156 14.515625 12.765625 14.515625 C 12.867188 14.515625 12.867188 14.515625 12.976562 14.515625 C 13.210938 14.515625 13.441406 14.515625 13.675781 14.515625 C 13.835938 14.515625 13.996094 14.515625 14.160156 14.515625 C 14.496094 14.515625 14.835938 14.515625 15.175781 14.515625 C 15.609375 14.515625 16.042969 14.511719 16.476562 14.511719 C 16.8125 14.511719 17.144531 14.511719 17.476562 14.511719 C 17.636719 14.511719 17.796875 14.507812 17.957031 14.507812 C 18.183594 14.507812 18.40625 14.507812 18.628906 14.507812 C 18.695312 14.507812 18.761719 14.507812 18.832031 14.507812 C 19.289062 14.511719 19.289062 14.511719 19.5 14.71875 C 19.5 14.8125 19.5 14.90625 19.5 15 C 19.21875 15.140625 18.933594 15.105469 18.628906 15.105469 C 18.523438 15.105469 18.523438 15.105469 18.414062 15.105469 C 18.183594 15.105469 17.949219 15.101562 17.714844 15.101562 C 17.554688 15.101562 17.390625 15.101562 17.230469 15.101562 C 16.804688 15.101562 16.378906 15.101562 15.953125 15.101562 C 15.519531 15.101562 15.085938 15.097656 14.648438 15.097656 C 13.796875 15.097656 12.945312 15.097656 12.09375 15.09375 C 12.058594 14.9375 12.027344 14.78125 12 14.625 C 12.15625 14.46875 12.351562 14.519531 12.5625 14.515625 Z M 12.5625 14.515625 "/>
<path style=" stroke:none;fill-rule:nonzero;fill:rgb(98.039216%,25.098041%,27.843139%);fill-opacity:1;" d="M 3.84375 8.15625 C 4.238281 8.308594 4.464844 8.453125 4.6875 8.8125 C 4.769531 9.257812 4.75 9.636719 4.527344 10.03125 C 4.214844 10.300781 3.976562 10.390625 3.566406 10.441406 C 3.199219 10.394531 3.007812 10.261719 2.71875 10.03125 C 2.453125 9.632812 2.457031 9.28125 2.53125 8.8125 C 2.84375 8.230469 3.207031 8.113281 3.84375 8.15625 Z M 3.84375 8.15625 "/>
<path style=" stroke:none;fill-rule:nonzero;fill:rgb(8.627451%,10.980392%,10.980392%);fill-opacity:1;" d="M 12.359375 17.988281 C 12.476562 17.988281 12.59375 17.988281 12.714844 17.988281 C 12.78125 17.988281 12.84375 17.988281 12.910156 17.988281 C 13.128906 17.988281 13.34375 17.988281 13.558594 17.992188 C 13.707031 17.992188 13.855469 17.992188 14.003906 17.992188 C 14.398438 17.992188 14.792969 17.992188 15.1875 17.992188 C 15.585938 17.996094 15.988281 17.996094 16.386719 17.996094 C 17.175781 17.996094 17.964844 18 18.75 18 C 18.804688 18.183594 18.804688 18.183594 18.84375 18.375 C 18.75 18.46875 18.75 18.46875 18.484375 18.480469 C 18.308594 18.480469 18.308594 18.480469 18.128906 18.480469 C 18.0625 18.480469 18 18.480469 17.929688 18.480469 C 17.714844 18.480469 17.5 18.480469 17.285156 18.476562 C 17.136719 18.476562 16.984375 18.476562 16.835938 18.476562 C 16.445312 18.476562 16.050781 18.476562 15.65625 18.476562 C 15.257812 18.472656 14.855469 18.472656 14.453125 18.472656 C 13.667969 18.472656 12.878906 18.46875 12.09375 18.46875 C 12.039062 18.285156 12.039062 18.285156 12 18.09375 C 12.09375 18 12.09375 18 12.359375 17.988281 Z M 12.359375 17.988281 "/>
<path style=" stroke:none;fill-rule:nonzero;fill:rgb(8.627451%,10.980392%,10.980392%);fill-opacity:1;" d="M 12 16.3125 C 13.761719 16.3125 15.527344 16.3125 17.34375 16.3125 C 17.390625 16.5 17.390625 16.5 17.4375 16.6875 C 17.34375 16.78125 17.34375 16.78125 17.132812 16.792969 C 17.039062 16.792969 16.945312 16.792969 16.851562 16.792969 C 16.746094 16.792969 16.640625 16.792969 16.53125 16.792969 C 16.359375 16.792969 16.359375 16.792969 16.1875 16.789062 C 16.070312 16.789062 15.953125 16.789062 15.832031 16.789062 C 15.523438 16.789062 15.214844 16.789062 14.902344 16.789062 C 14.585938 16.785156 14.273438 16.785156 13.957031 16.785156 C 13.335938 16.785156 12.714844 16.78125 12.09375 16.78125 C 12.0625 16.625 12.03125 16.472656 12 16.3125 Z M 12 16.3125 "/>
<path style=" stroke:none;fill-rule:nonzero;fill:rgb(21.176471%,21.960784%,17.647059%);fill-opacity:1;" d="M 19.5 10.21875 C 19.71875 10.214844 19.9375 10.214844 20.15625 10.21875 C 20.25 10.3125 20.25 10.3125 20.253906 10.644531 C 20.253906 10.753906 20.25 10.859375 20.25 10.96875 C 20.003906 10.96875 19.753906 10.96875 19.5 10.96875 C 19.5 10.722656 19.5 10.472656 19.5 10.21875 Z M 19.5 10.21875 "/>
<path style=" stroke:none;fill-rule:nonzero;fill:rgb(20%,21.176471%,17.647059%);fill-opacity:1;" d="M 21.09375 10.207031 C 21.375 10.21875 21.375 10.21875 21.46875 10.3125 C 21.472656 10.53125 21.472656 10.75 21.46875 10.96875 C 21.222656 10.96875 20.972656 10.96875 20.71875 10.96875 C 20.714844 10.75 20.714844 10.53125 20.71875 10.3125 C 20.8125 10.21875 20.8125 10.21875 21.09375 10.207031 Z M 21.09375 10.207031 "/>
<path style=" stroke:none;fill-rule:nonzero;fill:rgb(7.450981%,18.82353%,18.039216%);fill-opacity:1;" d="M 7.03125 2.71875 C 7.222656 2.761719 7.222656 2.761719 7.40625 2.8125 C 7.375 2.9375 7.34375 3.058594 7.3125 3.1875 C 7.1875 3.1875 7.066406 3.1875 6.9375 3.1875 C 6.9375 2.8125 6.9375 2.8125 7.03125 2.71875 Z M 7.03125 2.71875 "/>
<path style=" stroke:none;fill-rule:nonzero;fill:rgb(7.843138%,14.901961%,14.117648%);fill-opacity:1;" d="M 4.78125 2.71875 C 4.96875 2.765625 4.96875 2.765625 5.15625 2.8125 C 5.15625 2.9375 5.15625 3.058594 5.15625 3.1875 C 5 3.1875 4.847656 3.1875 4.6875 3.1875 C 4.71875 3.03125 4.75 2.878906 4.78125 2.71875 Z M 4.78125 2.71875 "/>
<path style=" stroke:none;fill-rule:nonzero;fill:rgb(7.843138%,14.117648%,13.725491%);fill-opacity:1;" d="M 5.90625 2.71875 C 6.09375 2.765625 6.09375 2.765625 6.28125 2.8125 C 6.25 2.9375 6.21875 3.058594 6.1875 3.1875 C 6.0625 3.1875 5.941406 3.1875 5.8125 3.1875 C 5.84375 3.03125 5.875 2.878906 5.90625 2.71875 Z M 5.90625 2.71875 "/>
</g>
</svg>
