<?xml version="1.0" encoding="UTF-8"?>
<svg xmlns="http://www.w3.org/2000/svg" xmlns:xlink="http://www.w3.org/1999/xlink" width="24" height="24" viewBox="0 0 24 24" version="1.1">
<g id="surface1">
<path style=" stroke:none;fill-rule:nonzero;fill:rgb(0.784314%,0.392157%,0%);fill-opacity:1;" d="M 7.3125 5.625 C 7.882812 5.9375 8.328125 6.40625 8.789062 6.863281 C 8.871094 6.9375 8.949219 7.011719 9.035156 7.09375 C 9.453125 7.503906 9.742188 7.835938 9.859375 8.417969 C 9.800781 9.132812 9.179688 9.628906 8.707031 10.105469 C 8.566406 10.246094 8.429688 10.390625 8.292969 10.535156 C 7.554688 11.296875 7.554688 11.296875 7.046875 11.382812 C 6.222656 11.367188 5.667969 10.566406 5.132812 10.027344 C 5.003906 9.898438 5.003906 9.898438 4.875 9.765625 C 4.246094 9.132812 4.246094 9.132812 4.03125 8.8125 C 3.148438 9.042969 2.492188 9.355469 1.96875 10.125 C 1.574219 10.835938 1.476562 11.527344 1.640625 12.324219 C 1.875 13.113281 2.273438 13.585938 2.953125 14.039062 C 3.496094 14.316406 4.03125 14.371094 4.625 14.382812 C 4.699219 14.382812 4.769531 14.386719 4.84375 14.386719 C 5.070312 14.394531 5.296875 14.398438 5.527344 14.402344 C 5.679688 14.40625 5.835938 14.410156 5.992188 14.414062 C 6.367188 14.421875 6.746094 14.429688 7.125 14.4375 C 7.105469 14.363281 7.089844 14.289062 7.070312 14.214844 C 7.03125 13.96875 7.03125 13.96875 7.136719 13.792969 C 7.3125 13.6875 7.3125 13.6875 7.527344 13.683594 C 7.78125 13.78125 7.78125 13.78125 7.996094 14.0625 C 8.367188 14.445312 8.785156 14.414062 9.292969 14.425781 C 9.46875 14.425781 9.46875 14.425781 9.644531 14.425781 C 9.761719 14.429688 9.882812 14.429688 10.003906 14.433594 C 10.292969 14.4375 10.585938 14.4375 10.875 14.4375 C 10.886719 14.378906 10.898438 14.324219 10.910156 14.265625 C 10.925781 14.191406 10.941406 14.113281 10.957031 14.039062 C 10.972656 13.964844 10.988281 13.890625 11 13.8125 C 11.171875 13.203125 11.578125 12.867188 12.105469 12.558594 C 12.691406 12.261719 13.429688 12.269531 14.050781 12.457031 C 14.675781 12.746094 15.09375 13.136719 15.410156 13.746094 C 15.46875 13.96875 15.46875 13.96875 15.46875 14.4375 C 15.871094 14.40625 16.273438 14.375 16.6875 14.34375 C 16.6875 14.1875 16.6875 14.035156 16.6875 13.875 C 16.75 13.8125 16.8125 13.75 16.875 13.6875 C 17.085938 13.6875 17.085938 13.6875 17.34375 13.78125 C 17.414062 13.875 17.488281 13.96875 17.5625 14.0625 C 17.851562 14.359375 18.074219 14.386719 18.480469 14.40625 C 18.699219 14.40625 18.921875 14.40625 19.144531 14.402344 C 20.402344 14.390625 21.375 14.574219 22.3125 15.46875 C 23.054688 16.265625 23.351562 17.203125 23.34375 18.28125 C 23.28125 19.265625 22.863281 20.175781 22.136719 20.851562 C 21.574219 21.269531 20.851562 21.675781 20.136719 21.660156 C 20.019531 21.660156 19.902344 21.65625 19.78125 21.65625 C 19.746094 21.734375 19.746094 21.734375 19.714844 21.816406 C 19.566406 22.078125 19.386719 22.261719 19.171875 22.476562 C 19.046875 22.597656 19.046875 22.597656 18.917969 22.726562 C 18.832031 22.8125 18.746094 22.898438 18.65625 22.988281 C 18.570312 23.074219 18.480469 23.160156 18.394531 23.25 C 17.625 24.015625 17.625 24.015625 17.097656 24.046875 C 17.019531 24.054688 16.945312 24.058594 16.867188 24.066406 C 16.425781 23.957031 16.164062 23.652344 15.84375 23.34375 C 15.777344 23.28125 15.710938 23.21875 15.644531 23.152344 C 15.445312 22.957031 15.25 22.761719 15.050781 22.566406 C 14.953125 22.464844 14.953125 22.464844 14.847656 22.359375 C 14.785156 22.296875 14.71875 22.234375 14.65625 22.167969 C 14.597656 22.109375 14.539062 22.050781 14.480469 21.992188 C 14.34375 21.84375 14.34375 21.84375 14.25 21.65625 C 13.664062 21.625 13.074219 21.59375 12.46875 21.5625 C 12.5 21.75 12.53125 21.933594 12.5625 22.125 C 12.375 22.3125 12.375 22.3125 12.15625 22.347656 C 11.820312 22.300781 11.695312 22.167969 11.457031 21.925781 C 11.382812 21.855469 11.308594 21.78125 11.230469 21.707031 C 11.019531 21.40625 11 21.265625 11.0625 20.90625 C 11.230469 20.667969 11.230469 20.667969 11.457031 20.449219 C 11.527344 20.375 11.601562 20.300781 11.675781 20.226562 C 11.9375 20.039062 12.058594 20.011719 12.375 20.0625 C 12.4375 20.125 12.5 20.1875 12.5625 20.25 C 12.527344 20.542969 12.527344 20.542969 12.46875 20.8125 C 12.753906 20.816406 13.035156 20.816406 13.316406 20.8125 C 13.398438 20.8125 13.476562 20.816406 13.558594 20.816406 C 13.90625 20.808594 14.152344 20.796875 14.429688 20.574219 C 14.597656 20.378906 14.75 20.175781 14.90625 19.96875 C 15.148438 19.699219 15.398438 19.441406 15.652344 19.183594 C 15.710938 19.117188 15.773438 19.050781 15.839844 18.980469 C 16.257812 18.554688 16.550781 18.332031 17.15625 18.28125 C 17.820312 18.425781 18.234375 18.933594 18.699219 19.40625 C 18.832031 19.542969 18.96875 19.675781 19.105469 19.8125 C 19.828125 20.539062 19.828125 20.539062 19.875 20.90625 C 20.882812 20.609375 21.539062 20.34375 22.105469 19.429688 C 22.464844 18.769531 22.523438 18.011719 22.34375 17.28125 C 22.066406 16.507812 21.628906 15.949219 20.894531 15.566406 C 20.261719 15.269531 19.636719 15.25 18.949219 15.234375 C 18.8125 15.226562 18.8125 15.226562 18.675781 15.21875 C 18.15625 15.207031 18.15625 15.207031 17.703125 15.429688 C 17.527344 15.609375 17.527344 15.609375 17.382812 15.796875 C 17.339844 15.84375 17.296875 15.890625 17.25 15.9375 C 16.980469 15.9375 16.980469 15.9375 16.78125 15.84375 C 16.75 15.8125 16.71875 15.78125 16.6875 15.75 C 16.6875 15.59375 16.6875 15.441406 16.6875 15.28125 C 16.082031 15.234375 16.082031 15.234375 15.46875 15.1875 C 15.4375 15.3125 15.402344 15.4375 15.371094 15.566406 C 15.164062 16.1875 14.785156 16.527344 14.246094 16.871094 C 13.554688 17.117188 12.710938 17.078125 12.046875 16.78125 C 11.613281 16.527344 11.285156 16.203125 11.0625 15.75 C 11.027344 15.5625 10.996094 15.375 10.96875 15.1875 C 10.546875 15.183594 10.121094 15.1875 9.699219 15.191406 C 9.578125 15.191406 9.457031 15.191406 9.335938 15.191406 C 8.5625 15.195312 8.5625 15.195312 7.949219 15.613281 C 7.902344 15.671875 7.855469 15.730469 7.808594 15.792969 C 7.6875 15.9375 7.6875 15.9375 7.410156 15.980469 C 7.347656 15.964844 7.285156 15.953125 7.21875 15.9375 C 7.121094 15.714844 7.121094 15.714844 7.03125 15.46875 C 7.0625 15.40625 7.09375 15.34375 7.125 15.28125 C 7.019531 15.28125 6.914062 15.28125 6.808594 15.28125 C 6.414062 15.277344 6.019531 15.273438 5.625 15.265625 C 5.457031 15.265625 5.285156 15.261719 5.117188 15.261719 C 3.730469 15.257812 2.648438 15.117188 1.613281 14.109375 C 0.894531 13.285156 0.621094 12.386719 0.660156 11.308594 C 0.769531 10.261719 1.1875 9.425781 1.96875 8.71875 C 2.535156 8.261719 3.226562 7.992188 3.957031 7.949219 C 4.3125 7.847656 4.4375 7.652344 4.667969 7.367188 C 4.929688 7.058594 5.210938 6.773438 5.496094 6.488281 C 5.546875 6.433594 5.601562 6.378906 5.652344 6.328125 C 6.132812 5.847656 6.589844 5.460938 7.3125 5.625 Z M 7.3125 5.625 "/>
<path style=" stroke:none;fill-rule:nonzero;fill:rgb(0%,0%,0.392157%);fill-opacity:1;" d="M 12.414062 0.140625 C 13.085938 0.550781 13.378906 1.035156 13.59375 1.78125 C 14.613281 1.75 15.636719 1.71875 16.6875 1.6875 C 16.6875 1.5 16.6875 1.316406 16.6875 1.125 C 16.78125 1.03125 16.78125 1.03125 17.027344 0.984375 C 17.398438 1.039062 17.398438 1.078125 17.613281 1.359375 C 17.921875 1.679688 18.136719 1.738281 18.578125 1.757812 C 18.796875 1.757812 19.015625 1.753906 19.234375 1.746094 C 20.335938 1.722656 21.316406 1.859375 22.160156 2.636719 C 22.964844 3.417969 23.324219 4.320312 23.347656 5.433594 C 23.308594 6.398438 22.984375 7.292969 22.304688 7.992188 C 21.742188 8.503906 21.257812 8.738281 20.519531 8.894531 C 19.964844 9.015625 19.636719 9.132812 19.304688 9.605469 C 19.050781 9.945312 18.75 10.234375 18.453125 10.535156 C 18.394531 10.59375 18.335938 10.652344 18.277344 10.710938 C 18.222656 10.765625 18.167969 10.820312 18.113281 10.875 C 18.0625 10.925781 18.015625 10.976562 17.964844 11.027344 C 17.625 11.316406 17.335938 11.367188 16.894531 11.386719 C 16.21875 11.246094 15.71875 10.585938 15.257812 10.121094 C 15.179688 10.042969 15.105469 9.964844 15.027344 9.886719 C 14.464844 9.320312 14.464844 9.320312 14.25 9 C 14.023438 8.960938 14.023438 8.960938 13.761719 8.972656 C 13.664062 8.972656 13.566406 8.976562 13.46875 8.976562 C 13.367188 8.976562 13.265625 8.980469 13.160156 8.980469 C 13.058594 8.984375 12.957031 8.984375 12.851562 8.984375 C 12.597656 8.988281 12.347656 8.996094 12.09375 9 C 12.0625 9.1875 12.03125 9.371094 12 9.5625 C 11.789062 9.628906 11.789062 9.628906 11.53125 9.65625 C 11.328125 9.527344 11.328125 9.527344 11.140625 9.347656 C 11.074219 9.285156 11.011719 9.226562 10.945312 9.164062 C 10.59375 8.8125 10.59375 8.8125 10.558594 8.546875 C 10.601562 8.171875 10.71875 8.054688 10.984375 7.792969 C 11.097656 7.683594 11.097656 7.683594 11.207031 7.570312 C 11.472656 7.382812 11.589844 7.355469 11.90625 7.40625 C 12.09375 7.59375 12.09375 7.59375 12.09375 7.96875 C 12.835938 8 13.578125 8.03125 14.34375 8.0625 C 14.40625 7.9375 14.46875 7.816406 14.53125 7.6875 C 14.785156 7.386719 15.0625 7.105469 15.339844 6.824219 C 15.429688 6.730469 15.519531 6.640625 15.605469 6.546875 C 16.425781 5.675781 16.425781 5.675781 16.949219 5.589844 C 17.777344 5.597656 18.332031 6.398438 18.867188 6.941406 C 18.996094 7.070312 18.996094 7.070312 19.125 7.203125 C 19.753906 7.835938 19.753906 7.835938 19.96875 8.15625 C 20.824219 7.957031 21.546875 7.605469 22.03125 6.84375 C 22.445312 6.050781 22.550781 5.292969 22.296875 4.429688 C 22 3.667969 21.542969 3.183594 20.8125 2.8125 C 20.226562 2.59375 19.65625 2.582031 19.035156 2.574219 C 18.9375 2.566406 18.839844 2.5625 18.742188 2.558594 C 18.195312 2.550781 17.890625 2.582031 17.484375 2.960938 C 17.429688 3.023438 17.375 3.085938 17.316406 3.148438 C 17.265625 3.191406 17.210938 3.234375 17.15625 3.28125 C 16.953125 3.257812 16.832031 3.238281 16.6875 3.09375 C 16.6875 2.9375 16.6875 2.785156 16.6875 2.625 C 15.667969 2.59375 14.644531 2.5625 13.59375 2.53125 C 13.5625 2.777344 13.53125 3.027344 13.5 3.28125 C 13.222656 3.855469 12.75 4.222656 12.1875 4.5 C 11.597656 4.695312 10.847656 4.710938 10.277344 4.449219 C 9.710938 4.105469 9.242188 3.660156 9.039062 3.023438 C 8.875 2.160156 9.003906 1.460938 9.472656 0.730469 C 10.207031 -0.0585938 11.425781 -0.289062 12.414062 0.140625 Z M 12.414062 0.140625 "/>
<path style=" stroke:none;fill-rule:nonzero;fill:rgb(0%,80.784315%,97.647059%);fill-opacity:1;" d="M 2.191406 19.097656 C 2.285156 19.097656 2.285156 19.097656 2.382812 19.097656 C 2.585938 19.101562 2.785156 19.105469 2.988281 19.109375 C 3.125 19.109375 3.261719 19.109375 3.402344 19.113281 C 3.734375 19.113281 4.070312 19.117188 4.40625 19.125 C 4.46875 19.25 4.53125 19.371094 4.59375 19.5 C 4.808594 19.5 5.027344 19.5 5.25 19.5 C 5.3125 19.375 5.375 19.253906 5.4375 19.125 C 5.949219 19.117188 6.457031 19.113281 6.96875 19.109375 C 7.140625 19.109375 7.316406 19.105469 7.488281 19.105469 C 7.738281 19.101562 7.988281 19.097656 8.238281 19.097656 C 8.355469 19.09375 8.355469 19.09375 8.472656 19.09375 C 8.933594 19.09375 9.261719 19.136719 9.65625 19.40625 C 10.078125 19.929688 9.980469 20.542969 9.976562 21.179688 C 9.980469 21.300781 9.980469 21.417969 9.984375 21.539062 C 9.984375 22.507812 9.984375 22.507812 9.777344 22.851562 C 9.355469 23.265625 8.917969 23.277344 8.351562 23.277344 C 8.242188 23.277344 8.242188 23.277344 8.128906 23.277344 C 7.886719 23.277344 7.644531 23.277344 7.402344 23.277344 C 7.234375 23.277344 7.066406 23.277344 6.898438 23.28125 C 6.546875 23.28125 6.191406 23.28125 5.839844 23.28125 C 5.386719 23.277344 4.9375 23.28125 4.484375 23.28125 C 4.136719 23.285156 3.789062 23.285156 3.441406 23.285156 C 3.273438 23.285156 3.109375 23.285156 2.941406 23.285156 C 2.707031 23.285156 2.476562 23.285156 2.242188 23.285156 C 2.175781 23.285156 2.105469 23.285156 2.035156 23.289062 C 1.53125 23.28125 1.25 23.148438 0.867188 22.835938 C 0.523438 22.402344 0.636719 21.722656 0.632812 21.203125 C 0.628906 21.105469 0.628906 21.003906 0.625 20.902344 C 0.625 20.335938 0.628906 19.890625 0.9375 19.40625 C 1.367188 19.136719 1.691406 19.089844 2.191406 19.097656 Z M 2.191406 19.097656 "/>
<path style=" stroke:none;fill-rule:nonzero;fill:rgb(1.176471%,0.784314%,0%);fill-opacity:1;" d="M 2.085938 -0.015625 C 2.15625 -0.015625 2.226562 -0.015625 2.296875 -0.015625 C 2.46875 -0.0117188 2.640625 -0.00390625 2.8125 0 C 2.84375 0.09375 2.875 0.1875 2.90625 0.28125 C 3.125 0.257812 3.34375 0.226562 3.5625 0.1875 C 3.59375 0.125 3.625 0.0625 3.65625 0 C 4.683594 -0.0742188 4.683594 -0.0742188 5.082031 0.222656 C 5.449219 0.753906 5.351562 1.234375 5.34375 1.875 C 5.808594 1.875 6.273438 1.875 6.75 1.875 C 6.703125 1.691406 6.703125 1.691406 6.65625 1.5 C 6.839844 1.289062 6.839844 1.289062 7.03125 1.125 C 7.511719 1.257812 7.863281 1.574219 8.15625 1.96875 C 8.242188 2.199219 8.242188 2.199219 8.25 2.4375 C 8.121094 2.640625 8.121094 2.640625 7.941406 2.832031 C 7.878906 2.894531 7.820312 2.957031 7.757812 3.023438 C 7.40625 3.375 7.40625 3.375 7.113281 3.386719 C 7.023438 3.382812 6.9375 3.378906 6.84375 3.375 C 6.746094 3.152344 6.746094 3.152344 6.65625 2.90625 C 6.6875 2.84375 6.71875 2.78125 6.75 2.71875 C 6.285156 2.71875 5.820312 2.71875 5.34375 2.71875 C 5.359375 3.003906 5.359375 3.003906 5.371094 3.292969 C 5.375 3.988281 5.375 3.988281 5.121094 4.289062 C 4.730469 4.625 4.441406 4.609375 3.949219 4.617188 C 3.835938 4.617188 3.835938 4.617188 3.726562 4.617188 C 3.570312 4.621094 3.414062 4.621094 3.257812 4.621094 C 3.019531 4.625 2.78125 4.625 2.542969 4.632812 C 2.390625 4.632812 2.242188 4.632812 2.089844 4.632812 C 2.019531 4.636719 1.949219 4.636719 1.875 4.640625 C 1.539062 4.636719 1.332031 4.605469 1.042969 4.433594 C 0.53125 3.882812 0.625 3.210938 0.625 2.503906 C 0.628906 2.304688 0.625 2.105469 0.621094 1.902344 C 0.621094 1.773438 0.621094 1.648438 0.621094 1.519531 C 0.621094 1.402344 0.621094 1.285156 0.621094 1.167969 C 0.667969 0.738281 0.808594 0.425781 1.09375 0.105469 C 1.417969 -0.0507812 1.734375 -0.03125 2.085938 -0.015625 Z M 2.085938 -0.015625 "/>
<path style=" stroke:none;fill-rule:nonzero;fill:rgb(0%,0%,0%);fill-opacity:1;" d="M 2.191406 19.097656 C 2.285156 19.097656 2.285156 19.097656 2.382812 19.097656 C 2.585938 19.101562 2.785156 19.105469 2.988281 19.109375 C 3.125 19.109375 3.261719 19.109375 3.402344 19.113281 C 3.734375 19.113281 4.070312 19.117188 4.40625 19.125 C 4.511719 19.289062 4.511719 19.289062 4.59375 19.5 C 4.511719 19.710938 4.511719 19.710938 4.40625 19.875 C 4.320312 19.878906 4.238281 19.878906 4.148438 19.882812 C 3.835938 19.890625 3.523438 19.898438 3.210938 19.910156 C 3.074219 19.914062 2.9375 19.917969 2.804688 19.921875 C 2.609375 19.925781 2.414062 19.933594 2.21875 19.9375 C 2.101562 19.941406 1.984375 19.945312 1.863281 19.949219 C 1.605469 19.9375 1.605469 19.9375 1.5 20.0625 C 1.492188 20.226562 1.488281 20.394531 1.488281 20.5625 C 1.488281 20.660156 1.488281 20.761719 1.488281 20.867188 C 1.488281 20.972656 1.488281 21.078125 1.488281 21.1875 C 1.488281 21.292969 1.488281 21.398438 1.488281 21.507812 C 1.488281 21.660156 1.488281 21.660156 1.488281 21.8125 C 1.488281 21.90625 1.488281 22 1.488281 22.097656 C 1.476562 22.308594 1.476562 22.308594 1.59375 22.40625 C 1.824219 22.414062 2.050781 22.417969 2.28125 22.417969 C 2.355469 22.417969 2.425781 22.417969 2.5 22.417969 C 2.742188 22.417969 2.980469 22.417969 3.21875 22.417969 C 3.386719 22.417969 3.550781 22.417969 3.71875 22.417969 C 4.066406 22.417969 4.414062 22.417969 4.761719 22.417969 C 5.207031 22.417969 5.652344 22.417969 6.101562 22.417969 C 6.441406 22.417969 6.785156 22.417969 7.125 22.417969 C 7.292969 22.417969 7.457031 22.417969 7.621094 22.417969 C 7.851562 22.417969 8.082031 22.417969 8.3125 22.417969 C 8.414062 22.417969 8.414062 22.417969 8.519531 22.417969 C 8.832031 22.445312 8.832031 22.445312 9.09375 22.3125 C 9.101562 22.144531 9.105469 21.980469 9.105469 21.8125 C 9.105469 21.714844 9.105469 21.613281 9.105469 21.507812 C 9.105469 21.402344 9.105469 21.296875 9.105469 21.1875 C 9.105469 21.082031 9.105469 20.976562 9.105469 20.867188 C 9.105469 20.765625 9.105469 20.664062 9.105469 20.5625 C 9.105469 20.421875 9.105469 20.421875 9.105469 20.277344 C 9.117188 20.066406 9.117188 20.066406 9 19.96875 C 8.738281 19.957031 8.480469 19.949219 8.21875 19.945312 C 8.054688 19.941406 7.894531 19.9375 7.734375 19.9375 C 7.480469 19.933594 7.222656 19.929688 6.96875 19.925781 C 6.722656 19.921875 6.476562 19.914062 6.230469 19.910156 C 6.15625 19.910156 6.078125 19.910156 6 19.910156 C 5.457031 19.894531 5.457031 19.894531 5.25 19.6875 C 5.300781 19.261719 5.300781 19.261719 5.4375 19.125 C 5.703125 19.113281 5.964844 19.105469 6.226562 19.105469 C 6.347656 19.105469 6.347656 19.105469 6.46875 19.105469 C 6.636719 19.101562 6.808594 19.101562 6.976562 19.101562 C 7.234375 19.101562 7.492188 19.097656 7.75 19.09375 C 7.914062 19.09375 8.078125 19.09375 8.242188 19.09375 C 8.359375 19.09375 8.359375 19.09375 8.476562 19.089844 C 8.9375 19.09375 9.265625 19.136719 9.65625 19.40625 C 10.078125 19.929688 9.980469 20.542969 9.976562 21.179688 C 9.980469 21.300781 9.980469 21.417969 9.984375 21.539062 C 9.984375 22.507812 9.984375 22.507812 9.777344 22.851562 C 9.355469 23.265625 8.917969 23.277344 8.351562 23.277344 C 8.242188 23.277344 8.242188 23.277344 8.128906 23.277344 C 7.886719 23.277344 7.644531 23.277344 7.402344 23.277344 C 7.234375 23.277344 7.066406 23.277344 6.898438 23.28125 C 6.546875 23.28125 6.191406 23.28125 5.839844 23.28125 C 5.386719 23.277344 4.9375 23.28125 4.484375 23.28125 C 4.136719 23.285156 3.789062 23.285156 3.441406 23.285156 C 3.273438 23.285156 3.109375 23.285156 2.941406 23.285156 C 2.707031 23.285156 2.476562 23.285156 2.242188 23.285156 C 2.175781 23.285156 2.105469 23.285156 2.035156 23.289062 C 1.53125 23.28125 1.25 23.148438 0.867188 22.835938 C 0.523438 22.402344 0.636719 21.722656 0.632812 21.203125 C 0.628906 21.105469 0.628906 21.003906 0.625 20.902344 C 0.625 20.335938 0.628906 19.890625 0.9375 19.40625 C 1.367188 19.136719 1.691406 19.089844 2.191406 19.097656 Z M 2.191406 19.097656 "/>
<path style=" stroke:none;fill-rule:nonzero;fill:rgb(98.039216%,80.392158%,34.901962%);fill-opacity:1;" d="M 2.90625 0.28125 C 3.152344 0.28125 3.402344 0.28125 3.65625 0.28125 C 3.675781 0.339844 3.691406 0.402344 3.707031 0.464844 C 3.835938 0.695312 3.835938 0.695312 4.175781 0.722656 C 4.285156 0.730469 4.390625 0.738281 4.5 0.75 C 4.679688 0.929688 4.605469 1.246094 4.605469 1.484375 C 4.605469 1.550781 4.605469 1.613281 4.605469 1.679688 C 4.605469 1.816406 4.605469 1.953125 4.605469 2.085938 C 4.605469 2.296875 4.605469 2.503906 4.605469 2.714844 C 4.605469 2.84375 4.605469 2.976562 4.605469 3.109375 C 4.605469 3.230469 4.605469 3.351562 4.605469 3.472656 C 4.59375 3.75 4.59375 3.75 4.5 3.84375 C 4.085938 3.863281 3.675781 3.863281 3.261719 3.863281 C 3.054688 3.863281 2.847656 3.863281 2.640625 3.863281 C 2.507812 3.867188 2.375 3.867188 2.246094 3.867188 C 2.125 3.867188 2.003906 3.867188 1.878906 3.867188 C 1.59375 3.84375 1.59375 3.84375 1.40625 3.65625 C 1.382812 3.378906 1.382812 3.378906 1.382812 3.027344 C 1.382812 2.964844 1.382812 2.902344 1.382812 2.839844 C 1.382812 2.707031 1.386719 2.578125 1.386719 2.445312 C 1.386719 2.246094 1.386719 2.042969 1.386719 1.84375 C 1.390625 0.859375 1.390625 0.859375 1.5 0.75 C 1.6875 0.730469 1.871094 0.714844 2.058594 0.703125 C 2.449219 0.6875 2.449219 0.6875 2.8125 0.5625 C 2.84375 0.46875 2.875 0.375 2.90625 0.28125 Z M 2.90625 0.28125 "/>
<path style=" stroke:none;fill-rule:nonzero;fill:rgb(98.823529%,49.803922%,52.549022%);fill-opacity:1;" d="M 17.109375 6.375 C 17.585938 6.566406 17.910156 6.976562 18.265625 7.335938 C 18.347656 7.417969 18.429688 7.496094 18.515625 7.582031 C 18.59375 7.660156 18.671875 7.738281 18.753906 7.816406 C 18.824219 7.890625 18.894531 7.960938 18.96875 8.035156 C 19.125 8.25 19.125 8.25 19.171875 8.480469 C 19.070312 8.992188 18.574219 9.339844 18.21875 9.691406 C 18.089844 9.824219 18.089844 9.824219 17.957031 9.957031 C 17.875 10.042969 17.792969 10.125 17.707031 10.210938 C 17.628906 10.285156 17.554688 10.359375 17.476562 10.441406 C 17.25 10.59375 17.25 10.59375 17.015625 10.59375 C 16.539062 10.402344 16.214844 9.992188 15.859375 9.632812 C 15.777344 9.550781 15.695312 9.472656 15.609375 9.390625 C 15.53125 9.308594 15.453125 9.230469 15.375 9.152344 C 15.265625 9.042969 15.265625 9.042969 15.15625 8.933594 C 15 8.71875 15 8.71875 14.953125 8.484375 C 15.054688 7.976562 15.550781 7.628906 15.90625 7.277344 C 15.992188 7.191406 16.078125 7.101562 16.167969 7.011719 C 16.25 6.929688 16.332031 6.84375 16.417969 6.757812 C 16.496094 6.683594 16.570312 6.605469 16.648438 6.527344 C 16.875 6.375 16.875 6.375 17.109375 6.375 Z M 17.109375 6.375 "/>
<path style=" stroke:none;fill-rule:nonzero;fill:rgb(58.039218%,84.313726%,47.450981%);fill-opacity:1;" d="M 6.984375 6.375 C 7.460938 6.566406 7.785156 6.976562 8.140625 7.335938 C 8.222656 7.417969 8.304688 7.496094 8.390625 7.582031 C 8.46875 7.660156 8.546875 7.738281 8.628906 7.816406 C 8.699219 7.890625 8.769531 7.960938 8.84375 8.035156 C 9 8.25 9 8.25 9.046875 8.480469 C 8.945312 8.992188 8.449219 9.339844 8.09375 9.691406 C 7.964844 9.824219 7.964844 9.824219 7.832031 9.957031 C 7.75 10.042969 7.667969 10.125 7.582031 10.210938 C 7.503906 10.285156 7.429688 10.359375 7.351562 10.441406 C 7.125 10.59375 7.125 10.59375 6.890625 10.59375 C 6.414062 10.402344 6.089844 9.992188 5.734375 9.632812 C 5.652344 9.550781 5.570312 9.472656 5.484375 9.390625 C 5.40625 9.308594 5.328125 9.230469 5.25 9.152344 C 5.140625 9.042969 5.140625 9.042969 5.03125 8.933594 C 4.875 8.71875 4.875 8.71875 4.828125 8.484375 C 4.929688 7.976562 5.425781 7.628906 5.78125 7.277344 C 5.867188 7.191406 5.953125 7.101562 6.042969 7.011719 C 6.125 6.929688 6.207031 6.84375 6.292969 6.757812 C 6.371094 6.683594 6.445312 6.605469 6.523438 6.527344 C 6.75 6.375 6.75 6.375 6.984375 6.375 Z M 6.984375 6.375 "/>
<path style=" stroke:none;fill-rule:nonzero;fill:rgb(98.823529%,49.803922%,52.549022%);fill-opacity:1;" d="M 17.109375 19.125 C 17.585938 19.316406 17.914062 19.726562 18.269531 20.085938 C 18.351562 20.167969 18.4375 20.246094 18.523438 20.328125 C 18.601562 20.410156 18.679688 20.488281 18.761719 20.566406 C 18.871094 20.675781 18.871094 20.675781 18.980469 20.785156 C 19.125 21 19.125 21 19.125 21.234375 C 18.933594 21.710938 18.523438 22.039062 18.164062 22.394531 C 18.082031 22.476562 18.003906 22.5625 17.917969 22.648438 C 17.800781 22.765625 17.800781 22.765625 17.683594 22.886719 C 17.574219 22.996094 17.574219 22.996094 17.464844 23.105469 C 17.25 23.25 17.25 23.25 17.015625 23.25 C 16.539062 23.058594 16.210938 22.648438 15.855469 22.289062 C 15.773438 22.207031 15.6875 22.128906 15.601562 22.042969 C 15.523438 21.964844 15.445312 21.886719 15.363281 21.808594 C 15.292969 21.734375 15.21875 21.664062 15.144531 21.589844 C 15 21.375 15 21.375 15 21.140625 C 15.191406 20.664062 15.601562 20.335938 15.960938 19.980469 C 16.042969 19.898438 16.121094 19.8125 16.207031 19.726562 C 16.324219 19.609375 16.324219 19.609375 16.441406 19.488281 C 16.515625 19.417969 16.585938 19.34375 16.660156 19.269531 C 16.875 19.125 16.875 19.125 17.109375 19.125 Z M 17.109375 19.125 "/>
<path style=" stroke:none;fill-rule:nonzero;fill:rgb(98.431373%,80.392158%,34.901962%);fill-opacity:1;" d="M 13.886719 13.191406 C 14.292969 13.398438 14.535156 13.648438 14.71875 14.0625 C 14.789062 14.574219 14.808594 15.089844 14.574219 15.5625 C 14.238281 15.976562 13.957031 16.179688 13.433594 16.253906 C 12.878906 16.277344 12.523438 16.230469 12.09375 15.84375 C 11.667969 15.359375 11.582031 15.0625 11.585938 14.429688 C 11.664062 13.886719 12.003906 13.574219 12.394531 13.21875 C 12.875 13.046875 13.398438 13.03125 13.886719 13.191406 Z M 13.886719 13.191406 "/>
<path style=" stroke:none;fill-rule:nonzero;fill:rgb(0%,80.784315%,97.254902%);fill-opacity:1;" d="M 12.011719 0.8125 C 12.414062 1.023438 12.648438 1.285156 12.84375 1.6875 C 12.957031 2.117188 12.960938 2.445312 12.84375 2.875 C 12.566406 3.332031 12.230469 3.671875 11.71875 3.84375 C 11.203125 3.917969 10.800781 3.90625 10.363281 3.601562 C 9.976562 3.265625 9.792969 2.929688 9.722656 2.414062 C 9.691406 1.90625 9.785156 1.613281 10.125 1.21875 C 10.6875 0.722656 11.273438 0.578125 12.011719 0.8125 Z M 12.011719 0.8125 "/>
<path style=" stroke:none;fill-rule:nonzero;fill:rgb(0%,70.980394%,92.156863%);fill-opacity:1;" d="M 5.53125 19.875 C 6.023438 19.871094 6.511719 19.867188 7.003906 19.863281 C 7.171875 19.863281 7.335938 19.863281 7.503906 19.859375 C 7.742188 19.859375 7.984375 19.855469 8.222656 19.855469 C 8.335938 19.855469 8.335938 19.855469 8.449219 19.851562 C 8.632812 19.851562 8.816406 19.863281 9 19.875 C 9.246094 20.121094 9.210938 20.226562 9.210938 20.566406 C 9.210938 20.71875 9.210938 20.71875 9.210938 20.871094 C 9.210938 20.976562 9.210938 21.078125 9.210938 21.1875 C 9.210938 21.34375 9.210938 21.34375 9.210938 21.503906 C 9.210938 21.605469 9.210938 21.707031 9.210938 21.808594 C 9.210938 21.902344 9.210938 21.992188 9.210938 22.085938 C 9.1875 22.3125 9.1875 22.3125 9 22.5 C 8.765625 22.519531 8.539062 22.523438 8.300781 22.523438 C 8.230469 22.523438 8.15625 22.523438 8.085938 22.523438 C 7.84375 22.527344 7.605469 22.523438 7.367188 22.523438 C 7.203125 22.523438 7.039062 22.523438 6.871094 22.523438 C 6.523438 22.523438 6.179688 22.523438 5.832031 22.523438 C 5.386719 22.523438 4.941406 22.523438 4.496094 22.523438 C 4.15625 22.527344 3.8125 22.523438 3.472656 22.523438 C 3.308594 22.523438 3.144531 22.523438 2.980469 22.523438 C 2.75 22.527344 2.519531 22.523438 2.292969 22.523438 C 2.222656 22.523438 2.15625 22.523438 2.085938 22.523438 C 1.617188 22.523438 1.617188 22.523438 1.40625 22.3125 C 1.382812 22.085938 1.382812 22.085938 1.386719 21.800781 C 1.386719 21.703125 1.390625 21.601562 1.390625 21.496094 C 1.390625 21.390625 1.394531 21.285156 1.394531 21.175781 C 1.394531 21.070312 1.394531 20.960938 1.398438 20.851562 C 1.398438 20.589844 1.402344 20.324219 1.40625 20.0625 C 1.4375 20.0625 1.46875 20.0625 1.5 20.0625 C 1.5 20.679688 1.5 21.300781 1.5 21.9375 C 2.300781 21.933594 3.101562 21.929688 3.902344 21.921875 C 4.273438 21.917969 4.644531 21.914062 5.015625 21.914062 C 5.375 21.910156 5.734375 21.90625 6.09375 21.902344 C 6.230469 21.902344 6.363281 21.902344 6.5 21.902344 C 6.695312 21.902344 6.886719 21.898438 7.078125 21.894531 C 7.1875 21.894531 7.292969 21.894531 7.40625 21.890625 C 7.746094 21.832031 7.859375 21.746094 8.0625 21.46875 C 8.105469 21.199219 8.128906 20.964844 8.132812 20.695312 C 8.140625 20.457031 8.148438 20.214844 8.15625 19.96875 C 7.289062 19.96875 6.421875 19.96875 5.53125 19.96875 C 5.53125 19.9375 5.53125 19.90625 5.53125 19.875 Z M 5.53125 19.875 "/>
<path style=" stroke:none;fill-rule:nonzero;fill:rgb(95.686275%,38.431373%,42.352942%);fill-opacity:1;" d="M 17.109375 6.375 C 17.585938 6.566406 17.910156 6.976562 18.261719 7.335938 C 18.347656 7.417969 18.429688 7.496094 18.515625 7.582031 C 18.59375 7.660156 18.671875 7.738281 18.75 7.816406 C 18.824219 7.890625 18.894531 7.960938 18.96875 8.035156 C 19.125 8.25 19.125 8.25 19.171875 8.480469 C 19.070312 8.992188 18.574219 9.339844 18.214844 9.691406 C 18.089844 9.824219 18.089844 9.824219 17.957031 9.957031 C 17.875 10.042969 17.792969 10.125 17.707031 10.210938 C 17.628906 10.285156 17.554688 10.359375 17.476562 10.441406 C 17.25 10.59375 17.25 10.59375 16.996094 10.578125 C 16.648438 10.453125 16.53125 10.230469 16.3125 9.9375 C 16.355469 9.902344 16.398438 9.863281 16.445312 9.828125 C 16.828125 9.496094 17.207031 9.15625 17.578125 8.808594 C 17.660156 8.730469 17.738281 8.65625 17.820312 8.582031 C 18.023438 8.355469 18.023438 8.355469 18.046875 8.058594 C 17.992188 7.742188 17.917969 7.625 17.699219 7.394531 C 17.644531 7.332031 17.589844 7.273438 17.53125 7.210938 C 17.324219 7.015625 17.097656 6.835938 16.875 6.65625 C 16.289062 7.242188 15.699219 7.832031 15.09375 8.4375 C 15.09375 7.921875 15.605469 7.589844 15.957031 7.242188 C 16.035156 7.15625 16.117188 7.074219 16.199219 6.984375 C 16.28125 6.90625 16.359375 6.828125 16.441406 6.746094 C 16.511719 6.671875 16.585938 6.597656 16.660156 6.523438 C 16.875 6.375 16.875 6.375 17.109375 6.375 Z M 17.109375 6.375 "/>
<path style=" stroke:none;fill-rule:nonzero;fill:rgb(49.019608%,80.000001%,36.862746%);fill-opacity:1;" d="M 6.75 6.375 C 7.382812 6.445312 7.710938 6.902344 8.136719 7.335938 C 8.222656 7.417969 8.304688 7.496094 8.390625 7.582031 C 8.46875 7.660156 8.546875 7.738281 8.625 7.816406 C 8.699219 7.890625 8.769531 7.960938 8.84375 8.035156 C 9 8.25 9 8.25 9.046875 8.484375 C 8.945312 8.992188 8.449219 9.339844 8.089844 9.691406 C 8.007812 9.777344 7.921875 9.867188 7.832031 9.957031 C 7.75 10.042969 7.667969 10.125 7.582031 10.210938 C 7.503906 10.285156 7.429688 10.359375 7.351562 10.441406 C 7.125 10.59375 7.125 10.59375 6.871094 10.578125 C 6.523438 10.453125 6.40625 10.230469 6.1875 9.9375 C 6.230469 9.902344 6.273438 9.863281 6.320312 9.828125 C 6.527344 9.648438 6.734375 9.464844 6.9375 9.28125 C 7.023438 9.207031 7.109375 9.128906 7.195312 9.050781 C 7.324219 8.933594 7.324219 8.933594 7.453125 8.8125 C 7.535156 8.738281 7.613281 8.664062 7.695312 8.589844 C 7.933594 8.261719 7.9375 8.085938 7.875 7.6875 C 7.707031 7.421875 7.707031 7.421875 7.472656 7.199219 C 7.210938 6.933594 6.964844 6.679688 6.75 6.375 Z M 6.75 6.375 "/>
<path style=" stroke:none;fill-rule:nonzero;fill:rgb(99.215686%,38.82353%,43.137255%);fill-opacity:1;" d="M 16.875 19.125 C 17.507812 19.195312 17.839844 19.652344 18.269531 20.085938 C 18.351562 20.167969 18.4375 20.246094 18.523438 20.332031 C 18.601562 20.410156 18.679688 20.488281 18.761719 20.566406 C 18.867188 20.675781 18.867188 20.675781 18.980469 20.785156 C 19.125 21 19.125 21 19.125 21.234375 C 18.933594 21.710938 18.523438 22.039062 18.164062 22.394531 C 18.082031 22.476562 18.003906 22.5625 17.917969 22.648438 C 17.800781 22.765625 17.800781 22.765625 17.683594 22.886719 C 17.574219 22.992188 17.574219 22.992188 17.464844 23.105469 C 17.25 23.25 17.25 23.25 17.003906 23.242188 C 16.703125 23.125 16.585938 22.945312 16.40625 22.6875 C 16.453125 22.644531 16.496094 22.597656 16.542969 22.550781 C 16.746094 22.351562 16.949219 22.148438 17.152344 21.949219 C 17.222656 21.878906 17.292969 21.808594 17.363281 21.738281 C 17.464844 21.636719 17.464844 21.636719 17.570312 21.535156 C 17.664062 21.441406 17.664062 21.441406 17.757812 21.347656 C 17.945312 21.144531 17.996094 21.023438 18.046875 20.753906 C 17.976562 20.273438 17.671875 20.03125 17.34375 19.6875 C 17.25 19.578125 17.160156 19.46875 17.066406 19.359375 C 16.972656 19.242188 16.972656 19.242188 16.875 19.125 Z M 16.875 19.125 "/>
<path style=" stroke:none;fill-rule:nonzero;fill:rgb(99.215686%,75.686276%,26.274511%);fill-opacity:1;" d="M 3.5625 0.28125 C 3.601562 0.34375 3.640625 0.402344 3.679688 0.464844 C 3.917969 0.742188 4.148438 0.71875 4.5 0.75 C 4.679688 0.929688 4.605469 1.246094 4.605469 1.484375 C 4.605469 1.550781 4.605469 1.613281 4.605469 1.679688 C 4.605469 1.816406 4.605469 1.953125 4.605469 2.085938 C 4.605469 2.296875 4.605469 2.503906 4.605469 2.714844 C 4.605469 2.84375 4.605469 2.976562 4.605469 3.109375 C 4.605469 3.230469 4.605469 3.351562 4.605469 3.472656 C 4.59375 3.75 4.59375 3.75 4.5 3.84375 C 4.285156 3.851562 4.070312 3.855469 3.855469 3.851562 C 3.757812 3.851562 3.757812 3.851562 3.660156 3.851562 C 3.453125 3.851562 3.246094 3.851562 3.042969 3.847656 C 2.902344 3.847656 2.761719 3.847656 2.621094 3.847656 C 2.277344 3.847656 1.9375 3.84375 1.59375 3.84375 C 1.59375 3.8125 1.59375 3.78125 1.59375 3.75 C 1.761719 3.746094 1.761719 3.746094 1.933594 3.742188 C 2.078125 3.738281 2.226562 3.730469 2.371094 3.726562 C 2.445312 3.726562 2.519531 3.722656 2.597656 3.722656 C 2.667969 3.71875 2.738281 3.714844 2.8125 3.714844 C 2.875 3.710938 2.941406 3.710938 3.007812 3.707031 C 3.199219 3.667969 3.199219 3.667969 3.347656 3.507812 C 3.515625 3.195312 3.511719 2.941406 3.515625 2.589844 C 3.519531 2.523438 3.519531 2.457031 3.523438 2.386719 C 3.527344 2.179688 3.53125 1.96875 3.535156 1.757812 C 3.535156 1.617188 3.539062 1.472656 3.542969 1.328125 C 3.550781 0.980469 3.558594 0.632812 3.5625 0.28125 Z M 3.5625 0.28125 "/>
<path style=" stroke:none;fill-rule:nonzero;fill:rgb(0%,73.725492%,95.686275%);fill-opacity:1;" d="M 11.53125 0.75 C 11.992188 0.792969 12.238281 0.886719 12.5625 1.21875 C 12.835938 1.601562 12.96875 1.933594 12.933594 2.410156 C 12.820312 3.050781 12.507812 3.371094 12 3.75 C 11.726562 3.839844 11.535156 3.863281 11.25 3.867188 C 11.167969 3.871094 11.085938 3.871094 11.003906 3.875 C 10.742188 3.839844 10.664062 3.765625 10.5 3.5625 C 10.644531 3.519531 10.644531 3.519531 10.792969 3.472656 C 11.269531 3.261719 11.527344 2.914062 11.71875 2.4375 C 11.800781 1.835938 11.785156 1.304688 11.53125 0.75 Z M 11.53125 0.75 "/>
<path style=" stroke:none;fill-rule:nonzero;fill:rgb(98.431373%,75.294119%,26.274511%);fill-opacity:1;" d="M 13.5 13.125 C 14.089844 13.277344 14.386719 13.5625 14.71875 14.0625 C 14.78125 14.566406 14.804688 15.101562 14.574219 15.5625 C 14.234375 15.980469 13.953125 16.191406 13.421875 16.246094 C 13.160156 16.253906 12.914062 16.253906 12.65625 16.21875 C 12.59375 16.15625 12.53125 16.09375 12.46875 16.03125 C 12.519531 16 12.566406 15.964844 12.621094 15.929688 C 13.050781 15.628906 13.445312 15.339844 13.59375 14.8125 C 13.640625 14.238281 13.628906 13.6875 13.5 13.125 Z M 13.5 13.125 "/>
</g>
</svg>
