<?xml version="1.0" encoding="UTF-8"?>
<svg xmlns="http://www.w3.org/2000/svg" xmlns:xlink="http://www.w3.org/1999/xlink" width="64" height="64" viewBox="0 0 64 64" version="1.1">
<g id="surface1">
<path style=" stroke:none;fill-rule:nonzero;fill:rgb(94.901961%,38.82353%,43.137255%);fill-opacity:1;" d="M 36 0 C 37.609375 0.703125 38.367188 2.117188 39.046875 3.679688 C 39.339844 4.445312 39.621094 5.210938 39.890625 5.984375 C 39.988281 6.261719 40.085938 6.539062 40.1875 6.820312 C 40.949219 9.015625 41.589844 11.210938 42 13.5 C 42.046875 13.734375 42.085938 13.96875 42.136719 14.210938 C 42.496094 16.304688 42.558594 18.332031 42.53125 20.453125 C 42.53125 20.773438 42.527344 21.09375 42.523438 21.421875 C 42.515625 22.199219 42.511719 22.972656 42.5 23.75 C 42.789062 23.796875 42.789062 23.796875 43.085938 23.84375 C 45.480469 24.238281 45.480469 24.238281 46.511719 24.460938 C 50.300781 25.253906 54.34375 25.390625 58.148438 24.613281 C 59.441406 24.367188 60.566406 24.351562 61.8125 24.78125 C 62.722656 25.398438 63.515625 26.109375 63.90625 27.175781 C 64.042969 28.015625 64.046875 28.855469 64.050781 29.703125 C 64.050781 29.894531 64.054688 30.085938 64.054688 30.28125 C 64.113281 38.367188 64.113281 38.367188 63.25 41.75 C 63.199219 41.953125 63.148438 42.152344 63.09375 42.359375 C 61.113281 49.9375 57.34375 56.75 50.484375 60.878906 C 46.664062 63.058594 41.949219 64.6875 37.5 64 C 32.824219 62.601562 28.5 57.84375 26.25 53.75 C 23.75 48.933594 23.75 48.933594 23.75 46.75 C 23.460938 46.734375 23.171875 46.71875 22.875 46.703125 C 16.726562 45.992188 10.953125 42.25 7 37.636719 C 2.507812 31.90625 -0.03125 24.277344 -0.0429688 17.011719 C -0.0429688 16.800781 -0.0429688 16.59375 -0.046875 16.378906 C -0.046875 15.945312 -0.046875 15.507812 -0.046875 15.070312 C -0.046875 14.410156 -0.0507812 13.75 -0.0546875 13.085938 C -0.0742188 7.242188 -0.0742188 7.242188 1.5 5.5 C 2.75 4.628906 3.71875 4.421875 5.25 4.5 C 5.824219 4.605469 6.398438 4.726562 6.96875 4.859375 C 8.324219 5.160156 9.613281 5.429688 11 5.5 C 11.296875 5.515625 11.59375 5.53125 11.898438 5.550781 C 18.667969 5.789062 25.90625 4.328125 31.699219 0.722656 C 33.148438 -0.171875 34.335938 -0.222656 36 0 Z M 36 0 "/>
<path style=" stroke:none;fill-rule:nonzero;fill:rgb(58.823532%,69.01961%,99.215686%);fill-opacity:1;" d="M 34.71875 1.96875 C 35.714844 2.328125 36.238281 2.757812 36.742188 3.707031 C 37 4.285156 37.238281 4.863281 37.46875 5.453125 C 37.554688 5.671875 37.640625 5.890625 37.730469 6.117188 C 39.847656 11.683594 40.617188 17.082031 40.5 23 C 39.191406 22.859375 38.210938 22.421875 37.0625 21.828125 C 36.886719 21.738281 36.707031 21.652344 36.527344 21.558594 C 35.527344 21.046875 34.582031 20.492188 33.640625 19.875 C 32.683594 19.289062 31.945312 19.082031 30.828125 19.078125 C 29.710938 19.414062 28.824219 20.019531 28.167969 20.992188 C 27.867188 21.5625 27.601562 22.140625 27.34375 22.734375 C 27.203125 23.050781 27.203125 23.050781 27.054688 23.375 C 25.925781 25.914062 25.011719 28.476562 24.394531 31.191406 C 24.25 31.75 24.25 31.75 24 32 C 20.53125 32.332031 17.332031 32.230469 14.332031 30.328125 C 13.757812 29.929688 13.757812 29.929688 13.046875 30.078125 C 12.867188 30.132812 12.6875 30.191406 12.5 30.25 C 12.421875 31.445312 12.609375 32.136719 13.203125 33.171875 C 13.398438 33.519531 13.398438 33.519531 13.597656 33.878906 C 13.945312 34.417969 14.296875 34.800781 14.75 35.25 C 14.75 35.414062 14.75 35.578125 14.75 35.75 C 14.894531 35.820312 15.039062 35.886719 15.1875 35.957031 C 15.753906 36.253906 16.246094 36.59375 16.765625 36.96875 C 18.875 38.382812 20.707031 38.746094 23.25 39 C 23.332031 40.8125 23.414062 42.632812 23.5 44.5 C 20.574219 44.207031 20.574219 44.207031 19.0625 43.609375 C 18.894531 43.542969 18.722656 43.476562 18.546875 43.410156 C 12.742188 41.070312 8.652344 37.007812 5.75 31.5 C 5.628906 31.277344 5.507812 31.050781 5.382812 30.820312 C 4.148438 28.453125 3.375 25.996094 2.828125 23.390625 C 2.773438 23.136719 2.722656 22.882812 2.667969 22.621094 C 2.3125 20.910156 2.027344 19.25 2 17.5 C 1.996094 17.304688 1.992188 17.105469 1.988281 16.902344 C 1.863281 8.550781 1.863281 8.550781 3 7 C 4.222656 6.390625 5.613281 6.8125 6.878906 7.117188 C 14.875 8.832031 24.953125 7.335938 31.996094 3.046875 C 32.207031 2.90625 32.421875 2.769531 32.640625 2.625 C 33.460938 2.109375 33.710938 2 34.71875 1.96875 Z M 34.71875 1.96875 "/>
<path style=" stroke:none;fill-rule:nonzero;fill:rgb(22.745098%,12.54902%,20.392157%);fill-opacity:1;" d="M 36 0 C 37.609375 0.703125 38.367188 2.117188 39.046875 3.679688 C 39.339844 4.445312 39.621094 5.210938 39.890625 5.984375 C 39.988281 6.261719 40.085938 6.539062 40.1875 6.820312 C 40.949219 9.015625 41.589844 11.210938 42 13.5 C 42.046875 13.734375 42.085938 13.96875 42.136719 14.210938 C 42.496094 16.304688 42.558594 18.332031 42.53125 20.453125 C 42.53125 20.773438 42.527344 21.09375 42.523438 21.421875 C 42.515625 22.199219 42.511719 22.972656 42.5 23.75 C 42.789062 23.796875 42.789062 23.796875 43.085938 23.84375 C 45.480469 24.238281 45.480469 24.238281 46.511719 24.460938 C 50.300781 25.253906 54.34375 25.390625 58.148438 24.613281 C 59.441406 24.367188 60.566406 24.351562 61.8125 24.78125 C 62.722656 25.398438 63.515625 26.109375 63.90625 27.175781 C 64.042969 28.015625 64.046875 28.855469 64.050781 29.703125 C 64.050781 29.894531 64.054688 30.085938 64.054688 30.28125 C 64.113281 38.367188 64.113281 38.367188 63.25 41.75 C 63.199219 41.953125 63.148438 42.152344 63.09375 42.359375 C 61.113281 49.9375 57.34375 56.75 50.484375 60.878906 C 46.664062 63.058594 41.949219 64.6875 37.5 64 C 32.824219 62.601562 28.5 57.84375 26.25 53.75 C 23.75 48.933594 23.75 48.933594 23.75 46.75 C 23.460938 46.734375 23.171875 46.71875 22.875 46.703125 C 16.726562 45.992188 10.953125 42.25 7 37.636719 C 2.507812 31.90625 -0.03125 24.277344 -0.0429688 17.011719 C -0.0429688 16.800781 -0.0429688 16.59375 -0.046875 16.378906 C -0.046875 15.945312 -0.046875 15.507812 -0.046875 15.070312 C -0.046875 14.410156 -0.0507812 13.75 -0.0546875 13.085938 C -0.0742188 7.242188 -0.0742188 7.242188 1.5 5.5 C 2.75 4.628906 3.71875 4.421875 5.25 4.5 C 5.824219 4.605469 6.398438 4.726562 6.96875 4.859375 C 8.324219 5.160156 9.613281 5.429688 11 5.5 C 11.296875 5.515625 11.59375 5.53125 11.898438 5.550781 C 18.667969 5.789062 25.90625 4.328125 31.699219 0.722656 C 33.148438 -0.171875 34.335938 -0.222656 36 0 Z M 31.953125 3.015625 C 26.390625 6.261719 20.136719 7.550781 13.734375 7.546875 C 13.414062 7.546875 13.089844 7.546875 12.757812 7.546875 C 10.371094 7.53125 8.03125 7.453125 5.710938 6.863281 C 4.949219 6.675781 4.28125 6.679688 3.5 6.75 C 2.910156 7.21875 2.585938 7.578125 2.25 8.25 C 1.164062 17.550781 2.324219 27.78125 8.109375 35.4375 C 8.402344 35.796875 8.699219 36.148438 9 36.5 C 9.167969 36.703125 9.332031 36.90625 9.503906 37.113281 C 12.703125 40.863281 17.234375 43.328125 22 44.5 C 22.496094 44.5 22.988281 44.5 23.5 44.5 C 23.417969 42.683594 23.335938 40.871094 23.25 39 C 22.746094 38.953125 22.238281 38.90625 21.71875 38.859375 C 19.242188 38.511719 17.015625 37.566406 15.25 35.75 C 15.085938 35.75 14.921875 35.75 14.75 35.75 C 14.683594 35.613281 14.617188 35.472656 14.546875 35.328125 C 14.21875 34.691406 13.859375 34.082031 13.484375 33.46875 C 12.761719 32.273438 12.46875 31.664062 12.5 30.25 C 13.308594 29.992188 13.671875 29.96875 14.476562 30.285156 C 14.726562 30.421875 14.976562 30.5625 15.234375 30.703125 C 17.324219 31.835938 18.867188 32.070312 21.21875 32.03125 C 21.484375 32.03125 21.753906 32.027344 22.03125 32.023438 C 22.6875 32.015625 23.34375 32.011719 24 32 C 24.460938 30.808594 24.859375 29.648438 25.171875 28.40625 C 25.585938 26.933594 26.113281 25.554688 26.734375 24.15625 C 26.816406 23.972656 26.898438 23.789062 26.980469 23.597656 C 28.351562 20.574219 28.351562 20.574219 29.5625 19.5 C 30.683594 19.09375 31.878906 19.019531 33.011719 19.4375 C 33.507812 19.699219 33.980469 19.980469 34.453125 20.28125 C 34.800781 20.488281 35.144531 20.695312 35.492188 20.898438 C 35.664062 21.003906 35.832031 21.101562 36.003906 21.207031 C 36.71875 21.628906 37.449219 22.011719 38.1875 22.390625 C 38.53125 22.570312 38.53125 22.570312 38.886719 22.75 C 39.546875 23.0625 39.546875 23.0625 40.5 23 C 40.703125 16.53125 39.605469 10.40625 37.09375 4.421875 C 37.027344 4.261719 36.960938 4.101562 36.890625 3.933594 C 36.445312 2.933594 36.015625 2.421875 35 2 C 33.78125 1.773438 32.953125 2.398438 31.953125 3.015625 Z M 30.234375 21.375 C 29.59375 22.199219 29.179688 23.066406 28.75 24.015625 C 28.664062 24.207031 28.574219 24.398438 28.484375 24.597656 C 27.460938 26.859375 26.699219 29.109375 26.078125 31.515625 C 26.023438 31.722656 25.96875 31.929688 25.914062 32.140625 C 24.210938 39.027344 24.867188 46.847656 28.328125 53.078125 C 30.601562 56.757812 33.515625 59.390625 37.25 61.5 C 37.40625 61.601562 37.566406 61.703125 37.730469 61.808594 C 40.371094 62.785156 44.363281 61.382812 46.761719 60.308594 C 53.386719 57.203125 57.734375 51.765625 60.21875 44.949219 C 61.433594 40.863281 62.046875 36.839844 62.058594 32.585938 C 62.0625 32.058594 62.070312 31.53125 62.078125 31.003906 C 62.078125 30.664062 62.078125 30.328125 62.082031 29.988281 C 62.085938 29.53125 62.085938 29.53125 62.089844 29.066406 C 61.984375 28.105469 61.691406 27.441406 61 26.75 C 59.613281 26.621094 58.273438 26.773438 56.90625 27 C 53.058594 27.578125 49.289062 27.324219 45.5 26.5 C 45.296875 26.453125 45.089844 26.414062 44.878906 26.363281 C 40.769531 25.457031 37.191406 24.128906 33.609375 21.902344 C 33.417969 21.785156 33.226562 21.671875 33.03125 21.550781 C 32.859375 21.441406 32.691406 21.335938 32.515625 21.226562 C 31.65625 20.851562 31 20.816406 30.234375 21.375 Z M 30.234375 21.375 "/>
<path style=" stroke:none;fill-rule:nonzero;fill:rgb(90.588236%,32.156864%,36.470589%);fill-opacity:1;" d="M 32 21 C 31.824219 22.191406 31.375 23.226562 30.921875 24.328125 C 30.082031 26.433594 29.441406 28.527344 29 30.75 C 28.953125 30.960938 28.914062 31.175781 28.863281 31.394531 C 28.464844 33.519531 28.398438 35.625 28.40625 37.78125 C 28.40625 38.054688 28.40625 38.054688 28.40625 38.332031 C 28.421875 43.210938 29.453125 47.414062 31.75 51.75 C 32.175781 51.195312 32.566406 50.640625 32.9375 50.046875 C 34.269531 48.160156 35.734375 46.886719 38 46.25 C 40.726562 45.886719 42.953125 46.363281 45.273438 47.828125 C 46.695312 48.921875 47.6875 50.558594 48.25 52.25 C 48.273438 52.84375 48.28125 53.4375 48.28125 54.03125 C 48.28125 54.503906 48.28125 54.503906 48.28125 54.988281 C 48.25 55.75 48.25 55.75 48 56 C 47.4375 56.109375 47.4375 56.109375 46.75 56 C 46.449219 55.648438 46.152344 55.296875 45.875 54.929688 C 44.414062 53.253906 42.03125 52.121094 39.84375 51.914062 C 37.242188 51.851562 35.296875 52.324219 33 53.5 C 35.886719 56.84375 39.386719 60.539062 44 61 C 43.0625 61.9375 41.523438 61.847656 40.25 62 C 40.066406 62.027344 39.878906 62.054688 39.6875 62.085938 C 37.210938 62.300781 34.851562 60.144531 33.035156 58.675781 C 29.929688 56.066406 27.898438 52.773438 26.5 49 C 26.425781 48.8125 26.351562 48.628906 26.273438 48.433594 C 23.480469 40.933594 25.339844 31.546875 28.527344 24.488281 C 30.175781 20.953125 30.175781 20.953125 32 21 Z M 32 21 "/>
<path style=" stroke:none;fill-rule:nonzero;fill:rgb(49.803922%,62.352943%,98.431373%);fill-opacity:1;" d="M 4.25 6.75 C 4.246094 7.09375 4.246094 7.09375 4.242188 7.441406 C 4.140625 17.691406 5.246094 27.789062 12.75 35.5 C 12.96875 35.738281 12.96875 35.738281 13.191406 35.980469 C 15.832031 38.773438 19.429688 40.460938 23 41.75 C 23 40.84375 23 39.933594 23 39 C 23.082031 39 23.164062 39 23.25 39 C 23.332031 40.816406 23.414062 42.628906 23.5 44.5 C 20.574219 44.207031 20.574219 44.207031 19.0625 43.609375 C 18.890625 43.542969 18.722656 43.476562 18.546875 43.410156 C 12.738281 41.066406 8.648438 37.011719 5.75 31.5 C 5.628906 31.273438 5.507812 31.050781 5.386719 30.820312 C 4.148438 28.453125 3.375 25.996094 2.828125 23.390625 C 2.773438 23.136719 2.71875 22.882812 2.664062 22.621094 C 2.316406 20.910156 2.027344 19.25 2 17.5 C 1.996094 17.300781 1.992188 17.109375 1.988281 16.90625 C 1.863281 8.550781 1.863281 8.550781 3 7 C 3.5 6.75 3.5 6.75 4.25 6.75 Z M 4.25 6.75 "/>
<path style=" stroke:none;fill-rule:nonzero;fill:rgb(23.921569%,13.333334%,20.784314%);fill-opacity:1;" d="M 44.75 47.5 C 46.46875 48.585938 47.609375 50.332031 48.25 52.25 C 48.273438 52.84375 48.28125 53.4375 48.28125 54.03125 C 48.28125 54.503906 48.28125 54.503906 48.28125 54.988281 C 48.25 55.75 48.25 55.75 48 56 C 47.4375 56.109375 47.4375 56.109375 46.75 56 C 46.449219 55.648438 46.152344 55.296875 45.875 54.929688 C 44.414062 53.253906 42.03125 52.121094 39.84375 51.914062 C 37.761719 51.863281 35.835938 52.03125 33.976562 53.03125 C 33.328125 53.328125 32.921875 53.183594 32.25 53 C 32.058594 52.316406 31.953125 51.886719 32.175781 51.203125 C 34.90625 46.441406 39.78125 44.671875 44.75 47.5 Z M 44.75 47.5 "/>
<path style=" stroke:none;fill-rule:nonzero;fill:rgb(23.137255%,14.117648%,22.745098%);fill-opacity:1;" d="M 17.566406 16.726562 C 17.710938 16.816406 17.851562 16.90625 18 17 C 18 17.492188 18 17.988281 18 18.5 C 17.46875 18.671875 17.46875 18.671875 16.75 18.75 C 16.410156 18.570312 16.410156 18.570312 16.0625 18.390625 C 14.691406 17.730469 13.503906 17.835938 12.078125 18.296875 C 11.417969 18.65625 11.007812 18.945312 10.46875 19.4375 C 9.75 20 9.75 20 9.03125 19.953125 C 8.855469 19.886719 8.679688 19.820312 8.5 19.75 C 8.3125 19.1875 8.3125 19.1875 8.25 18.5 C 10.578125 15.445312 14.316406 14.867188 17.566406 16.726562 Z M 17.566406 16.726562 "/>
<path style=" stroke:none;fill-rule:nonzero;fill:rgb(23.529412%,14.509805%,22.745098%);fill-opacity:1;" d="M 33.101562 14.105469 C 33.75 14.5 33.75 14.5 34 15.136719 C 34 15.441406 34 15.441406 34 15.75 C 33.835938 15.914062 33.671875 16.078125 33.5 16.25 C 32.640625 16.183594 31.917969 16.070312 31.125 15.734375 C 29.964844 15.300781 29.019531 15.410156 27.859375 15.796875 C 27.171875 16.160156 26.769531 16.433594 26.21875 16.9375 C 25.5 17.5 25.5 17.5 24.78125 17.453125 C 24.605469 17.386719 24.429688 17.320312 24.25 17.25 C 24.0625 16.691406 24.0625 16.691406 24 16 C 26.472656 12.753906 29.613281 12.820312 33.101562 14.105469 Z M 33.101562 14.105469 "/>
<path style=" stroke:none;fill-rule:nonzero;fill:rgb(24.705882%,12.941177%,20.392157%);fill-opacity:1;" d="M 32.25 31.25 C 33.566406 31.28125 34.1875 31.789062 35.097656 32.65625 C 35.894531 33.335938 36.746094 33.300781 37.753906 33.292969 C 38.398438 33.238281 38.90625 33 39.5 32.75 C 40.328125 32.71875 40.328125 32.71875 41 32.75 C 41.125 33.492188 41.125 33.492188 41.25 34.25 C 39.378906 35.363281 37.953125 35.714844 35.75 35.5 C 34.136719 35.027344 32.945312 33.882812 31.75 32.75 C 31.96875 31.53125 31.96875 31.53125 32.25 31.25 Z M 32.25 31.25 "/>
<path style=" stroke:none;fill-rule:nonzero;fill:rgb(25.098041%,13.333334%,20.392157%);fill-opacity:1;" d="M 47 34.25 C 47.6875 34.171875 47.6875 34.171875 48.5 34.25 C 48.84375 34.660156 49.175781 35.078125 49.5 35.5 C 50.898438 36.324219 51.964844 36.324219 53.5 36 C 53.746094 35.917969 53.996094 35.835938 54.25 35.75 C 54.832031 35.738281 55.417969 35.738281 56 35.75 C 56.125 36.367188 56.125 36.367188 56.25 37 C 54.859375 38.21875 53.210938 38.667969 51.398438 38.601562 C 49.59375 38.316406 48.09375 37.359375 46.980469 35.925781 C 46.75 35.5 46.75 35.5 46.78125 34.765625 C 46.851562 34.59375 46.925781 34.425781 47 34.25 Z M 47 34.25 "/>
<path style=" stroke:none;fill-rule:nonzero;fill:rgb(87.843138%,53.333336%,9.019608%);fill-opacity:1;" d="M 15.25 33 C 15.75 33.125 16.246094 33.25 16.746094 33.378906 C 18.214844 33.734375 19.636719 33.851562 21.140625 33.90625 C 21.484375 33.921875 21.484375 33.921875 21.832031 33.933594 C 22.386719 33.960938 22.945312 33.980469 23.5 34 C 23.5 34.988281 23.5 35.980469 23.5 37 C 21.09375 37.175781 19.199219 36.671875 17.261719 35.183594 C 15.613281 33.722656 15.613281 33.722656 15.25 33 Z M 15.25 33 "/>
<path style=" stroke:none;fill-rule:nonzero;fill:rgb(96.470588%,87.450981%,86.666667%);fill-opacity:1;" d="M 43.296875 48.914062 C 44.425781 49.746094 45.503906 50.566406 45.75 52 C 45.433594 51.84375 45.433594 51.84375 45.109375 51.691406 C 44.683594 51.488281 44.683594 51.488281 44.25 51.28125 C 43.972656 51.148438 43.691406 51.015625 43.40625 50.878906 C 41.554688 50.109375 39.980469 49.929688 38 49.96875 C 37.78125 49.96875 37.566406 49.972656 37.339844 49.976562 C 36.808594 49.984375 36.28125 49.988281 35.75 50 C 37.660156 47.972656 40.847656 47.476562 43.296875 48.914062 Z M 43.296875 48.914062 "/>
<path style=" stroke:none;fill-rule:nonzero;fill:rgb(94.117647%,58.823532%,12.941177%);fill-opacity:1;" d="M 17.25 33.75 C 19.3125 33.832031 21.375 33.914062 23.5 34 C 23.5 34.578125 23.5 35.15625 23.5 35.75 C 21.761719 36.25 19.976562 35.472656 18.398438 34.710938 C 18.007812 34.488281 17.628906 34.246094 17.25 34 C 17.25 33.917969 17.25 33.835938 17.25 33.75 Z M 17.25 33.75 "/>
</g>
</svg>
