<?xml version="1.0" encoding="UTF-8"?>
<svg xmlns="http://www.w3.org/2000/svg" xmlns:xlink="http://www.w3.org/1999/xlink" width="64" height="64" viewBox="0 0 64 64" version="1.1">
<g id="surface1">
<path style=" stroke:none;fill-rule:nonzero;fill:rgb(21.568628%,27.843139%,30.980393%);fill-opacity:1;" d="M 41.9375 7.1875 C 43.25 8.414062 44.425781 9.859375 45.039062 11.558594 C 45.453125 12.355469 45.453125 12.355469 46.460938 12.46875 C 46.847656 12.496094 47.238281 12.515625 47.625 12.53125 C 51.191406 12.800781 54.292969 14.03125 56.78125 16.6875 C 59.546875 19.996094 60.320312 23.449219 60.054688 27.671875 C 59.75 30.859375 58.089844 33.621094 55.796875 35.800781 C 54.710938 36.691406 53.5 37.375 52.25 38 C 52.25 38.238281 52.246094 38.484375 52.246094 38.730469 C 52.238281 41.003906 52.222656 43.277344 52.203125 45.550781 C 52.195312 46.71875 52.183594 47.886719 52.183594 49.054688 C 52.175781 50.183594 52.171875 51.3125 52.15625 52.441406 C 52.15625 52.871094 52.152344 53.300781 52.152344 53.730469 C 52.152344 54.332031 52.144531 54.9375 52.136719 55.539062 C 52.136719 55.804688 52.136719 55.804688 52.140625 56.074219 C 52.109375 57.667969 51.511719 58.503906 50.398438 59.585938 C 49.003906 60.230469 47.65625 60.140625 46.140625 60.128906 C 45.796875 60.128906 45.453125 60.132812 45.113281 60.136719 C 44.183594 60.140625 43.257812 60.136719 42.328125 60.136719 C 41.359375 60.132812 40.386719 60.136719 39.414062 60.136719 C 37.78125 60.136719 36.148438 60.136719 34.515625 60.128906 C 32.628906 60.125 30.746094 60.128906 28.859375 60.132812 C 27.238281 60.136719 25.617188 60.136719 23.996094 60.136719 C 23.03125 60.132812 22.0625 60.132812 21.09375 60.136719 C 20.183594 60.140625 19.273438 60.136719 18.367188 60.132812 C 17.875 60.128906 17.382812 60.132812 16.890625 60.136719 C 14.140625 60.109375 14.140625 60.109375 13 59 C 12.050781 57.878906 11.851562 56.96875 11.863281 55.539062 C 11.859375 55.351562 11.859375 55.160156 11.855469 54.960938 C 11.847656 54.335938 11.847656 53.710938 11.847656 53.085938 C 11.84375 52.652344 11.839844 52.21875 11.835938 51.78125 C 11.824219 50.640625 11.820312 49.5 11.816406 48.359375 C 11.808594 47.191406 11.800781 46.023438 11.789062 44.859375 C 11.769531 42.574219 11.757812 40.285156 11.75 38 C 11.515625 37.875 11.515625 37.875 11.28125 37.746094 C 11.078125 37.636719 10.878906 37.523438 10.671875 37.40625 C 10.46875 37.296875 10.265625 37.1875 10.058594 37.074219 C 7.214844 35.425781 5.21875 32.601562 4.25 29.5 C 3.371094 26.179688 3.816406 22.265625 5.386719 19.261719 C 6.867188 16.78125 8.691406 15.074219 11.25 13.75 C 11.519531 13.601562 11.519531 13.601562 11.796875 13.453125 C 13.058594 12.859375 14.167969 12.710938 15.542969 12.644531 C 17.476562 12.613281 17.476562 12.613281 19.070312 11.6875 C 19.433594 10.988281 19.433594 10.988281 19.710938 10.238281 C 20.738281 7.628906 23.488281 5.941406 25.921875 4.796875 C 31.34375 2.476562 37.398438 3.378906 41.9375 7.1875 Z M 22.710938 10.8125 C 22.324219 11.386719 22.105469 11.828125 21.867188 12.46875 C 21.046875 14.574219 21.046875 14.574219 20.25 15.25 C 18.761719 15.71875 17.140625 15.542969 15.601562 15.496094 C 13.113281 15.511719 11.246094 17.089844 9.515625 18.703125 C 7.53125 20.757812 6.65625 23.496094 6.699219 26.316406 C 6.933594 29.367188 8.367188 31.746094 10.515625 33.851562 C 10.992188 34.246094 11.445312 34.484375 12 34.75 C 12 34.601562 12.003906 34.449219 12.003906 34.296875 C 12.011719 32.730469 12.03125 31.164062 12.050781 29.597656 C 12.058594 29.015625 12.066406 28.429688 12.066406 27.847656 C 12.074219 27.007812 12.085938 26.167969 12.097656 25.324219 C 12.097656 25.066406 12.097656 24.804688 12.097656 24.539062 C 12.128906 23.078125 12.21875 22.125 13.25 21 C 14.183594 20.328125 14.824219 20.15625 15.96875 20.152344 C 16.261719 20.148438 16.558594 20.148438 16.859375 20.144531 C 17.179688 20.148438 17.5 20.148438 17.828125 20.148438 C 18.171875 20.148438 18.515625 20.144531 18.859375 20.144531 C 19.789062 20.140625 20.714844 20.140625 21.644531 20.140625 C 22.421875 20.140625 23.199219 20.140625 23.972656 20.140625 C 25.800781 20.136719 27.636719 20.136719 29.464844 20.136719 C 31.351562 20.140625 33.238281 20.136719 35.128906 20.128906 C 36.75 20.125 38.371094 20.125 39.992188 20.125 C 40.960938 20.128906 41.929688 20.125 42.898438 20.121094 C 43.808594 20.117188 44.71875 20.117188 45.628906 20.121094 C 46.121094 20.125 46.613281 20.121094 47.105469 20.117188 C 49.796875 20.140625 49.796875 20.140625 51 21.25 C 52.039062 22.402344 51.871094 23.832031 51.878906 25.300781 C 51.882812 25.574219 51.886719 25.84375 51.890625 26.121094 C 51.90625 26.984375 51.914062 27.84375 51.921875 28.703125 C 51.929688 29.289062 51.941406 29.871094 51.949219 30.457031 C 51.96875 31.886719 51.984375 33.320312 52 34.75 C 54.621094 33.015625 56.199219 31.046875 57.09375 27.96875 C 57.550781 25.140625 57.105469 22.515625 55.578125 20.046875 C 53.980469 17.863281 51.703125 16.039062 49 15.5 C 48.609375 15.503906 48.214844 15.523438 47.824219 15.550781 C 44.28125 15.695312 44.28125 15.695312 43.34375 14.90625 C 42.691406 14.011719 42.328125 12.992188 41.945312 11.960938 C 40.964844 9.632812 38.445312 8.113281 36.226562 7.171875 C 31.253906 5.441406 26.164062 6.863281 22.710938 10.8125 Z M 14.75 30.25 C 14.75 36.273438 14.75 42.296875 14.75 48.5 C 19.617188 48.5 24.484375 48.5 29.5 48.5 C 29.828125 47.839844 30.160156 47.179688 30.5 46.5 C 31.808594 45.246094 32.707031 44.683594 34.519531 44.699219 C 34.953125 44.703125 34.953125 44.703125 35.398438 44.703125 C 35.699219 44.710938 36.003906 44.714844 36.3125 44.71875 C 36.769531 44.722656 36.769531 44.722656 37.238281 44.726562 C 37.992188 44.734375 38.746094 44.738281 39.5 44.75 C 39.566406 44.914062 39.636719 45.074219 39.703125 45.238281 C 39.800781 45.410156 39.898438 45.578125 40 45.75 C 40.761719 45.917969 40.761719 45.917969 41.625 45.921875 C 43.21875 45.984375 43.21875 45.984375 43.75 46.25 C 43.796875 47.09375 43.796875 47.09375 43.75 48 C 42.898438 48.566406 42.457031 48.59375 41.453125 48.65625 C 41.046875 48.683594 41.046875 48.683594 40.628906 48.710938 C 40.421875 48.726562 40.214844 48.738281 40 48.75 C 40 49.492188 40 50.234375 40 51 C 40.3125 51.015625 40.3125 51.015625 40.628906 51.039062 C 41.039062 51.066406 41.039062 51.066406 41.453125 51.09375 C 41.722656 51.109375 41.992188 51.128906 42.269531 51.148438 C 43 51.25 43 51.25 43.75 51.75 C 43.796875 52.65625 43.796875 52.65625 43.75 53.5 C 42.84375 53.953125 41.746094 53.824219 40.742188 53.859375 C 40.496094 53.90625 40.253906 53.949219 40 54 C 39.699219 54.496094 39.699219 54.496094 39.5 55 C 38.5 55.03125 37.5 55.046875 36.5 55.0625 C 36.21875 55.070312 35.9375 55.078125 35.648438 55.085938 C 33.773438 55.109375 32.28125 54.960938 30.871094 53.648438 C 30.183594 52.878906 29.890625 52.222656 29.5 51.25 C 24.632812 51.25 19.765625 51.25 14.75 51.25 C 14.75 52.898438 14.75 54.550781 14.75 56.25 C 15.785156 57.328125 15.785156 57.328125 17.097656 57.378906 C 17.371094 57.378906 17.644531 57.382812 17.925781 57.386719 C 18.226562 57.382812 18.523438 57.382812 18.828125 57.378906 C 19.304688 57.382812 19.304688 57.382812 19.789062 57.386719 C 20.652344 57.390625 21.515625 57.386719 22.378906 57.386719 C 23.285156 57.382812 24.191406 57.386719 25.097656 57.386719 C 26.617188 57.386719 28.136719 57.386719 29.65625 57.378906 C 31.414062 57.375 33.171875 57.378906 34.925781 57.382812 C 36.433594 57.386719 37.945312 57.386719 39.453125 57.386719 C 40.355469 57.382812 41.253906 57.382812 42.15625 57.386719 C 43.160156 57.390625 44.164062 57.386719 45.171875 57.378906 C 45.46875 57.382812 45.765625 57.382812 46.074219 57.386719 C 46.347656 57.382812 46.621094 57.378906 46.902344 57.378906 C 47.140625 57.378906 47.378906 57.375 47.621094 57.375 C 48.449219 57.210938 48.746094 56.917969 49.25 56.25 C 49.394531 55.71875 49.394531 55.71875 49.371094 55.140625 C 49.371094 54.921875 49.371094 54.703125 49.375 54.476562 C 49.371094 54.238281 49.367188 53.996094 49.363281 53.75 C 49.363281 53.363281 49.363281 53.363281 49.363281 52.96875 C 49.363281 52.136719 49.355469 51.300781 49.347656 50.464844 C 49.34375 49.949219 49.34375 49.433594 49.34375 48.921875 C 49.339844 47.007812 49.324219 45.097656 49.3125 43.1875 C 49.292969 38.917969 49.273438 34.648438 49.25 30.25 C 37.863281 30.25 26.480469 30.25 14.75 30.25 Z M 14.75 30.25 "/>
<path style=" stroke:none;fill-rule:nonzero;fill:rgb(34.117648%,62.352943%,83.529413%);fill-opacity:1;" d="M 16.578125 22.6875 C 16.859375 22.683594 17.140625 22.683594 17.433594 22.679688 C 17.898438 22.683594 17.898438 22.683594 18.375 22.6875 C 18.699219 22.683594 19.027344 22.683594 19.359375 22.679688 C 20.257812 22.679688 21.152344 22.679688 22.046875 22.683594 C 22.984375 22.683594 23.921875 22.683594 24.855469 22.679688 C 26.429688 22.679688 28 22.679688 29.574219 22.683594 C 31.390625 22.6875 33.210938 22.6875 35.03125 22.683594 C 36.589844 22.679688 38.152344 22.679688 39.710938 22.679688 C 40.644531 22.683594 41.574219 22.683594 42.507812 22.679688 C 43.546875 22.679688 44.585938 22.679688 45.625 22.6875 C 45.9375 22.683594 46.25 22.683594 46.570312 22.679688 C 46.847656 22.683594 47.132812 22.683594 47.421875 22.6875 C 47.667969 22.6875 47.914062 22.6875 48.167969 22.6875 C 48.75 22.75 48.75 22.75 49.25 23.25 C 49.25 24.652344 49.25 26.054688 49.25 27.5 C 37.867188 27.5 26.480469 27.5 14.75 27.5 C 14.75 22.6875 14.75 22.6875 16.578125 22.6875 Z M 16.578125 22.6875 "/>
<path style=" stroke:none;fill-rule:nonzero;fill:rgb(21.176471%,27.843139%,30.980393%);fill-opacity:1;" d="M 27.25 33.25 C 28.691406 34.578125 29.121094 36.300781 29.703125 38.125 C 29.855469 38.578125 29.855469 38.578125 30.011719 39.042969 C 30.84375 41.582031 30.84375 41.582031 30.75 43 C 30.484375 43.484375 30.484375 43.484375 30 43.75 C 29.125 43.78125 29.125 43.78125 28.25 43.5 C 27.746094 42.621094 27.5 42.015625 27.5 41 C 26.097656 41 24.695312 41 23.25 41 C 23.167969 41.496094 23.085938 41.988281 23 42.5 C 22.617188 43.441406 22.617188 43.441406 22 43.75 C 21.25 43.796875 21.25 43.796875 20.5 43.75 C 20 43.25 20 43.25 19.902344 42.425781 C 19.945312 40.863281 20.53125 39.425781 21.046875 37.96875 C 21.140625 37.679688 21.238281 37.390625 21.339844 37.09375 C 21.867188 35.582031 22.328125 34.363281 23.5 33.25 C 24.765625 32.675781 26.011719 32.570312 27.25 33.25 Z M 25.25 35.75 C 24.703125 36.582031 24.390625 37.261719 24.25 38.25 C 24.910156 38.25 25.570312 38.25 26.25 38.25 C 26.179688 37.878906 26.105469 37.511719 26.03125 37.140625 C 25.96875 36.832031 25.96875 36.832031 25.90625 36.515625 C 25.855469 36.34375 25.804688 36.175781 25.75 36 C 25.585938 35.917969 25.421875 35.835938 25.25 35.75 Z M 25.25 35.75 "/>
<path style=" stroke:none;fill-rule:nonzero;fill:rgb(21.176471%,27.450982%,30.588236%);fill-opacity:1;" d="M 38.023438 33.234375 C 38.964844 33.757812 39.519531 34.542969 40 35.5 C 40.128906 36.882812 40.183594 38.101562 39.59375 39.375 C 38.097656 40.949219 38.097656 40.949219 36.792969 41.058594 C 36.109375 41.0625 35.433594 41.042969 34.75 41 C 34.765625 41.316406 34.78125 41.628906 34.796875 41.953125 C 34.792969 42.925781 34.792969 42.925781 34.46875 43.5 C 33.785156 43.867188 33.261719 43.832031 32.5 43.75 C 31.738281 42.992188 31.914062 42.113281 31.90625 41.09375 C 31.90625 40.878906 31.902344 40.667969 31.898438 40.445312 C 31.898438 39.992188 31.894531 39.539062 31.890625 39.085938 C 31.890625 38.394531 31.878906 37.699219 31.863281 37.007812 C 31.863281 36.566406 31.863281 36.128906 31.859375 35.6875 C 31.855469 35.480469 31.851562 35.273438 31.84375 35.058594 C 31.851562 34.472656 31.851562 34.472656 32 33.5 C 33.597656 32.132812 36.171875 32.53125 38.023438 33.234375 Z M 34.75 35.75 C 34.75 36.574219 34.75 37.398438 34.75 38.25 C 35.457031 38.332031 35.457031 38.332031 36.25 38.25 C 36.84375 37.78125 36.84375 37.78125 37.25 37.25 C 36.976562 36.4375 36.976562 36.4375 36.5 35.75 C 35.917969 35.742188 35.332031 35.742188 34.75 35.75 Z M 34.75 35.75 "/>
<path style=" stroke:none;fill-rule:nonzero;fill:rgb(21.176471%,27.450982%,30.588236%);fill-opacity:1;" d="M 43.1875 32.9375 C 43.75 33.25 43.75 33.25 44 33.5 C 44.027344 34.214844 44.039062 34.925781 44.042969 35.640625 C 44.042969 35.855469 44.042969 36.070312 44.046875 36.289062 C 44.046875 36.746094 44.046875 37.203125 44.046875 37.65625 C 44.046875 38.355469 44.050781 39.054688 44.054688 39.753906 C 44.058594 40.195312 44.058594 40.636719 44.058594 41.078125 C 44.058594 41.289062 44.058594 41.496094 44.0625 41.710938 C 44.058594 43.191406 44.058594 43.191406 43.5 43.75 C 42.183594 43.890625 42.183594 43.890625 41.582031 43.429688 C 41.007812 42.6875 41.132812 41.777344 41.132812 40.875 C 41.128906 40.667969 41.128906 40.460938 41.128906 40.246094 C 41.125 39.804688 41.121094 39.363281 41.125 38.925781 C 41.125 38.253906 41.113281 37.578125 41.101562 36.90625 C 41.101562 36.480469 41.101562 36.050781 41.101562 35.625 C 41.097656 35.421875 41.09375 35.222656 41.089844 35.015625 C 41.09375 34.445312 41.09375 34.445312 41.25 33.5 C 41.980469 32.859375 42.238281 32.675781 43.1875 32.9375 Z M 43.1875 32.9375 "/>
<path style=" stroke:none;fill-rule:nonzero;fill:rgb(33.725491%,62.352943%,83.529413%);fill-opacity:1;" d="M 37.25 47.25 C 37.25 48.984375 37.25 50.714844 37.25 52.5 C 33.699219 52.667969 33.699219 52.667969 32.796875 52.015625 C 32.085938 51.023438 31.828125 50.21875 32 49 C 33.183594 46.78125 35.019531 47.230469 37.25 47.25 Z M 37.25 47.25 "/>
<path style=" stroke:none;fill-rule:nonzero;fill:rgb(89.411765%,91.764706%,93.333334%);fill-opacity:1;" d="M 24.484375 23.671875 C 25.25 23.75 25.25 23.75 25.734375 24.03125 C 26 24.5 26 24.5 25.96875 25.265625 C 25.75 26 25.75 26 25 26.5 C 24.21875 26.4375 24.21875 26.4375 23.5 26.25 C 23.15625 25.558594 23.203125 25.015625 23.25 24.25 C 23.75 23.75 23.75 23.75 24.484375 23.671875 Z M 24.484375 23.671875 "/>
<path style=" stroke:none;fill-rule:nonzero;fill:rgb(89.803922%,91.764706%,93.333334%);fill-opacity:1;" d="M 19 23.6875 C 19.75 23.75 19.75 23.75 20.25 24.25 C 20.332031 25.035156 20.382812 25.542969 19.953125 26.21875 C 19.328125 26.605469 18.96875 26.625 18.25 26.5 C 17.78125 26.078125 17.78125 26.078125 17.5 25.5 C 17.578125 24.371094 17.796875 23.789062 19 23.6875 Z M 19 23.6875 "/>
<path style=" stroke:none;fill-rule:nonzero;fill:rgb(90.980393%,92.54902%,93.725491%);fill-opacity:1;" d="M 29.5 23.75 C 30.40625 23.84375 30.40625 23.84375 31.25 24 C 31.332031 24.578125 31.414062 25.15625 31.5 25.75 C 31.078125 26.140625 31.078125 26.140625 30.5 26.5 C 29.84375 26.46875 29.84375 26.46875 29.25 26.25 C 28.75 25.5 28.75 25.5 28.8125 24.859375 C 29 24.25 29 24.25 29.5 23.75 Z M 29.5 23.75 "/>
</g>
</svg>
