<?xml version="1.0" encoding="UTF-8"?>
<svg xmlns="http://www.w3.org/2000/svg" xmlns:xlink="http://www.w3.org/1999/xlink" width="64" height="64" viewBox="0 0 64 64" version="1.1">
<g id="surface1">
<path style=" stroke:none;fill-rule:nonzero;fill:rgb(0%,0%,0%);fill-opacity:1;" d="M 27.5625 21.546875 C 29.558594 23.585938 31.75 26.265625 31.75 29.25 C 32.0625 29.246094 32.375 29.246094 32.699219 29.242188 C 35.648438 29.21875 38.597656 29.195312 41.550781 29.183594 C 43.066406 29.179688 44.582031 29.167969 46.101562 29.15625 C 47.5625 29.140625 49.027344 29.132812 50.488281 29.132812 C 51.046875 29.128906 51.609375 29.125 52.164062 29.117188 C 52.949219 29.109375 53.730469 29.105469 54.511719 29.105469 C 54.742188 29.105469 54.972656 29.097656 55.210938 29.09375 C 56.300781 29.105469 57.023438 29.15625 57.890625 29.851562 C 58.71875 30.734375 58.847656 31.253906 58.839844 32.472656 C 58.679688 33.40625 58.164062 33.851562 57.5 34.5 C 56.835938 34.832031 56.328125 34.78125 55.585938 34.773438 C 55.164062 34.773438 55.164062 34.773438 54.734375 34.773438 C 54.441406 34.769531 54.148438 34.765625 53.84375 34.765625 C 53.546875 34.765625 53.253906 34.765625 52.949219 34.761719 C 52.214844 34.757812 51.484375 34.753906 50.75 34.75 C 50.757812 34.933594 50.761719 35.113281 50.769531 35.300781 C 50.796875 36.125 50.8125 36.953125 50.828125 37.78125 C 50.84375 38.210938 50.84375 38.210938 50.859375 38.648438 C 50.894531 41.023438 50.894531 41.023438 50.152344 41.933594 C 49.261719 42.710938 48.71875 42.847656 47.527344 42.839844 C 46.59375 42.683594 46.148438 42.164062 45.5 41.5 C 45.167969 40.835938 45.222656 40.328125 45.226562 39.585938 C 45.226562 39.304688 45.226562 39.023438 45.226562 38.734375 C 45.230469 38.4375 45.234375 38.148438 45.234375 37.84375 C 45.234375 37.546875 45.238281 37.25 45.238281 36.945312 C 45.238281 36.214844 45.246094 35.480469 45.25 34.75 C 44.425781 34.75 43.601562 34.75 42.75 34.75 C 42.757812 34.933594 42.761719 35.113281 42.769531 35.300781 C 42.796875 36.125 42.8125 36.953125 42.828125 37.78125 C 42.84375 38.210938 42.84375 38.210938 42.859375 38.648438 C 42.894531 41.023438 42.894531 41.023438 42.152344 41.933594 C 41.261719 42.710938 40.71875 42.847656 39.527344 42.839844 C 38.59375 42.683594 38.148438 42.164062 37.5 41.5 C 37.167969 40.835938 37.222656 40.328125 37.226562 39.585938 C 37.226562 39.164062 37.226562 39.164062 37.226562 38.734375 C 37.230469 38.292969 37.230469 38.292969 37.234375 37.84375 C 37.234375 37.546875 37.238281 37.25 37.238281 36.945312 C 37.238281 36.214844 37.246094 35.480469 37.25 34.75 C 35.433594 34.75 33.621094 34.75 31.75 34.75 C 31.667969 35.328125 31.585938 35.90625 31.5 36.5 C 30.058594 40.207031 27.683594 42.738281 24.109375 44.46875 C 20.546875 45.96875 16.855469 45.792969 13.25 44.5 C 9.953125 43.027344 7.589844 40.59375 6.195312 37.273438 C 4.84375 33.683594 4.773438 29.84375 6.304688 26.292969 C 7.960938 23 10.648438 20.457031 14.128906 19.195312 C 19.027344 17.664062 23.363281 18.71875 27.5625 21.546875 Z M 27.5625 21.546875 "/>
<path style=" stroke:none;fill-rule:nonzero;fill:rgb(96.862745%,6.666667%,15.294118%);fill-opacity:1;" d="M 23.25 25.25 C 25.042969 26.59375 26.3125 28.539062 26.75 30.75 C 26.960938 32.851562 26.546875 34.828125 25.3125 36.5625 C 23.726562 38.488281 21.992188 39.789062 19.453125 40.09375 C 17.023438 40.183594 15.214844 39.644531 13.3125 38.125 C 11.535156 36.40625 10.613281 34.484375 10.5625 32 C 10.613281 29.515625 11.535156 27.59375 13.3125 25.875 C 16.328125 23.464844 19.921875 23.289062 23.25 25.25 Z M 23.25 25.25 "/>
</g>
</svg>
