<?xml version="1.0" encoding="UTF-8"?>
<svg xmlns="http://www.w3.org/2000/svg" xmlns:xlink="http://www.w3.org/1999/xlink" width="64" height="64" viewBox="0 0 64 64" version="1.1">
<g id="surface1">
<path style=" stroke:none;fill-rule:nonzero;fill:rgb(98.823529%,27.450982%,32.941177%);fill-opacity:1;" d="M 9.15625 1.707031 C 9.40625 1.703125 9.40625 1.703125 9.65625 1.699219 C 10.199219 1.695312 10.738281 1.691406 11.28125 1.691406 C 11.46875 1.6875 11.65625 1.6875 11.847656 1.6875 C 12.835938 1.683594 13.824219 1.679688 14.808594 1.675781 C 15.824219 1.671875 16.835938 1.664062 17.851562 1.65625 C 18.632812 1.648438 19.417969 1.644531 20.203125 1.644531 C 20.574219 1.644531 20.949219 1.640625 21.324219 1.636719 C 23.820312 1.609375 25.765625 1.871094 27.9375 3.15625 C 29.46875 4.773438 30.277344 6.492188 30.292969 8.699219 C 30.292969 8.875 30.296875 9.046875 30.300781 9.222656 C 30.304688 9.792969 30.308594 10.363281 30.308594 10.929688 C 30.308594 11.125 30.3125 11.320312 30.3125 11.523438 C 30.316406 12.554688 30.324219 13.589844 30.324219 14.625 C 30.328125 15.6875 30.335938 16.75 30.34375 17.8125 C 30.351562 18.632812 30.355469 19.457031 30.355469 20.277344 C 30.355469 20.667969 30.359375 21.0625 30.363281 21.449219 C 30.394531 24.261719 30.144531 26.46875 28.179688 28.625 C 26.765625 29.863281 25.140625 30.277344 23.300781 30.296875 C 23.128906 30.300781 22.960938 30.304688 22.78125 30.304688 C 22.214844 30.3125 21.644531 30.316406 21.078125 30.316406 C 20.882812 30.320312 20.6875 30.320312 20.488281 30.324219 C 19.453125 30.328125 18.421875 30.332031 17.390625 30.339844 C 16.539062 30.339844 15.691406 30.347656 14.835938 30.359375 C 13.808594 30.371094 12.777344 30.375 11.746094 30.378906 C 11.355469 30.378906 10.964844 30.382812 10.574219 30.390625 C 7.800781 30.429688 5.691406 30.109375 3.53125 28.21875 C 1.585938 26.082031 1.601562 23.316406 1.625 20.589844 C 1.625 20.222656 1.625 19.847656 1.625 19.476562 C 1.625 18.699219 1.628906 17.929688 1.632812 17.152344 C 1.640625 16.164062 1.640625 15.179688 1.636719 14.191406 C 1.636719 13.425781 1.636719 12.660156 1.640625 11.894531 C 1.640625 11.53125 1.640625 11.164062 1.640625 10.804688 C 1.636719 7.847656 1.863281 5.691406 3.953125 3.488281 C 5.503906 2.109375 7.125 1.722656 9.15625 1.707031 Z M 9.15625 1.707031 "/>
<path style=" stroke:none;fill-rule:nonzero;fill:rgb(99.607843%,69.411767%,15.686275%);fill-opacity:1;" d="M 40.78125 33.671875 C 40.957031 33.671875 41.125 33.667969 41.304688 33.664062 C 41.867188 33.660156 42.433594 33.660156 42.996094 33.660156 C 43.390625 33.65625 43.789062 33.652344 44.183594 33.652344 C 45.011719 33.644531 45.839844 33.644531 46.664062 33.644531 C 47.71875 33.644531 48.777344 33.632812 49.832031 33.621094 C 50.648438 33.613281 51.464844 33.613281 52.28125 33.609375 C 52.671875 33.609375 53.058594 33.609375 53.449219 33.601562 C 56.097656 33.570312 58.089844 33.839844 60.203125 35.578125 C 61.640625 37.34375 62.277344 38.644531 62.296875 40.933594 C 62.296875 41.101562 62.296875 41.269531 62.300781 41.441406 C 62.304688 41.992188 62.308594 42.546875 62.308594 43.097656 C 62.308594 43.285156 62.308594 43.476562 62.3125 43.671875 C 62.316406 44.671875 62.320312 45.675781 62.324219 46.679688 C 62.324219 47.710938 62.335938 48.742188 62.34375 49.769531 C 62.351562 50.570312 62.351562 51.367188 62.355469 52.164062 C 62.355469 52.539062 62.359375 52.921875 62.363281 53.300781 C 62.398438 56.257812 62.03125 58.359375 59.984375 60.570312 C 58.476562 61.914062 56.816406 62.277344 54.84375 62.292969 C 54.679688 62.296875 54.511719 62.296875 54.34375 62.296875 C 53.804688 62.304688 53.261719 62.304688 52.71875 62.308594 C 52.53125 62.3125 52.34375 62.3125 52.152344 62.3125 C 51.164062 62.320312 50.179688 62.320312 49.191406 62.324219 C 48.179688 62.324219 47.164062 62.335938 46.152344 62.347656 C 45.367188 62.351562 44.582031 62.351562 43.796875 62.351562 C 43.425781 62.355469 43.050781 62.359375 42.679688 62.363281 C 40.234375 62.390625 38.15625 62.242188 36.101562 60.792969 C 35.882812 60.5625 35.882812 60.5625 35.65625 60.328125 C 35.503906 60.179688 35.351562 60.027344 35.199219 59.871094 C 33.636719 57.699219 33.59375 55.542969 33.601562 52.949219 C 33.597656 52.554688 33.59375 52.160156 33.59375 51.769531 C 33.589844 50.949219 33.589844 50.125 33.59375 49.304688 C 33.59375 48.261719 33.585938 47.214844 33.574219 46.171875 C 33.566406 45.359375 33.566406 44.546875 33.566406 43.734375 C 33.566406 43.351562 33.566406 42.964844 33.558594 42.582031 C 33.53125 40.117188 33.78125 38.082031 35.25 36 C 36.902344 34.367188 38.441406 33.695312 40.78125 33.671875 Z M 40.78125 33.671875 "/>
<path style=" stroke:none;fill-rule:nonzero;fill:rgb(0%,89.019608%,60.000002%);fill-opacity:1;" d="M 55.40625 5.3125 C 58.136719 7.324219 60.101562 10.144531 60.75 13.5 C 61.179688 17.824219 60.347656 21.277344 57.671875 24.75 C 55.46875 27.339844 52.308594 28.640625 49 28.96875 C 45.09375 29.144531 41.980469 27.992188 39 25.5 C 36.40625 23.113281 35.210938 19.816406 35.011719 16.363281 C 34.960938 12.757812 36.3125 9.402344 38.75 6.75 C 43.496094 2.605469 50.046875 1.882812 55.40625 5.3125 Z M 55.40625 5.3125 "/>
<path style=" stroke:none;fill-rule:nonzero;fill:rgb(37.254903%,71.372551%,99.607843%);fill-opacity:1;" d="M 18.578125 35.34375 C 20.566406 36.570312 21.671875 39.171875 22.765625 41.15625 C 23.046875 41.660156 23.332031 42.167969 23.613281 42.671875 C 23.832031 43.0625 23.832031 43.0625 24.054688 43.457031 C 24.796875 44.777344 25.5625 46.082031 26.328125 47.390625 C 26.621094 47.890625 26.910156 48.390625 27.203125 48.886719 C 27.339844 49.117188 27.476562 49.351562 27.617188 49.589844 C 28.148438 50.5 28.679688 51.414062 29.203125 52.328125 C 29.351562 52.589844 29.503906 52.851562 29.660156 53.121094 C 30.425781 54.535156 30.359375 55.925781 30.25 57.5 C 29.824219 58.855469 28.910156 59.714844 27.75 60.5 C 26.664062 61.046875 25.652344 61.074219 24.464844 61.074219 C 24.160156 61.078125 24.160156 61.078125 23.851562 61.078125 C 23.1875 61.082031 22.519531 61.082031 21.855469 61.082031 C 21.390625 61.085938 20.925781 61.085938 20.460938 61.089844 C 19.488281 61.089844 18.515625 61.09375 17.542969 61.09375 C 16.300781 61.09375 15.058594 61.097656 13.8125 61.109375 C 12.855469 61.113281 11.894531 61.113281 10.9375 61.113281 C 10.476562 61.113281 10.019531 61.117188 9.5625 61.121094 C 8.921875 61.125 8.277344 61.125 7.636719 61.121094 C 7.449219 61.125 7.261719 61.125 7.066406 61.128906 C 5.472656 61.109375 4.128906 60.625 2.984375 59.492188 C 2.816406 59.242188 2.816406 59.242188 2.640625 58.984375 C 2.464844 58.734375 2.464844 58.734375 2.28125 58.476562 C 1.574219 57.285156 1.523438 56.089844 1.75 54.75 C 2.726562 52.277344 4.160156 50 5.523438 47.722656 C 6.25 46.507812 6.957031 45.277344 7.660156 44.046875 C 8.300781 42.9375 8.941406 41.828125 9.585938 40.714844 C 9.835938 40.285156 10.085938 39.851562 10.335938 39.417969 C 12.171875 36.222656 14.59375 33.679688 18.578125 35.34375 Z M 18.578125 35.34375 "/>
<path style=" stroke:none;fill-rule:nonzero;fill:rgb(89.803922%,25.098041%,30.19608%);fill-opacity:1;" d="M 9.242188 1.675781 C 9.40625 1.675781 9.574219 1.675781 9.738281 1.671875 C 10.28125 1.667969 10.816406 1.667969 11.359375 1.664062 C 11.734375 1.664062 12.113281 1.664062 12.488281 1.660156 C 13.28125 1.65625 14.074219 1.65625 14.863281 1.65625 C 15.871094 1.65625 16.878906 1.648438 17.886719 1.640625 C 18.671875 1.636719 19.449219 1.636719 20.230469 1.636719 C 20.601562 1.636719 20.972656 1.632812 21.34375 1.628906 C 23.832031 1.605469 25.773438 1.878906 27.9375 3.15625 C 29.46875 4.773438 30.277344 6.488281 30.296875 8.703125 C 30.296875 8.875 30.296875 9.042969 30.300781 9.222656 C 30.304688 9.792969 30.308594 10.363281 30.308594 10.933594 C 30.308594 11.128906 30.3125 11.324219 30.3125 11.523438 C 30.316406 12.558594 30.324219 13.589844 30.324219 14.621094 C 30.328125 15.6875 30.335938 16.75 30.34375 17.8125 C 30.351562 18.636719 30.351562 19.453125 30.355469 20.277344 C 30.355469 20.667969 30.359375 21.058594 30.363281 21.453125 C 30.394531 24.304688 30.132812 26.460938 28.128906 28.640625 C 27.621094 29.121094 27.140625 29.472656 26.5 29.75 C 26.128906 29.628906 26.128906 29.628906 25.75 29.5 C 25.855469 29.296875 25.855469 29.296875 25.960938 29.089844 C 26.050781 28.910156 26.140625 28.730469 26.234375 28.546875 C 26.324219 28.371094 26.414062 28.191406 26.507812 28.011719 C 26.984375 27.011719 27.035156 26.214844 27.046875 25.117188 C 27.046875 24.953125 27.046875 24.789062 27.050781 24.617188 C 27.054688 24.074219 27.058594 23.527344 27.058594 22.980469 C 27.058594 22.792969 27.0625 22.609375 27.0625 22.417969 C 27.066406 21.425781 27.074219 20.4375 27.074219 19.449219 C 27.078125 18.429688 27.085938 17.414062 27.09375 16.390625 C 27.101562 15.605469 27.101562 14.820312 27.105469 14.035156 C 27.105469 13.660156 27.109375 13.285156 27.113281 12.910156 C 27.148438 9.941406 26.761719 7.878906 24.699219 5.664062 C 23.285156 4.359375 21.683594 4.21875 19.839844 4.21875 C 19.679688 4.21875 19.515625 4.21875 19.351562 4.21875 C 18.820312 4.214844 18.289062 4.214844 17.757812 4.21875 C 17.386719 4.21875 17.015625 4.21875 16.644531 4.214844 C 15.871094 4.214844 15.09375 4.21875 14.316406 4.21875 C 13.324219 4.21875 12.332031 4.21875 11.339844 4.21875 C 10.574219 4.214844 9.808594 4.214844 9.046875 4.21875 C 8.675781 4.21875 8.3125 4.21875 7.945312 4.214844 C 7.433594 4.214844 6.921875 4.21875 6.410156 4.21875 C 6.117188 4.21875 5.828125 4.21875 5.527344 4.21875 C 4.824219 4.246094 4.1875 4.335938 3.5 4.5 C 3.871094 3.386719 4.753906 2.785156 5.75 2.25 C 6.945312 1.855469 7.988281 1.683594 9.242188 1.675781 Z M 9.242188 1.675781 "/>
<path style=" stroke:none;fill-rule:nonzero;fill:rgb(90.588236%,62.7451%,14.509805%);fill-opacity:1;" d="M 40.699219 33.703125 C 40.871094 33.699219 41.039062 33.695312 41.21875 33.695312 C 41.785156 33.6875 42.355469 33.683594 42.921875 33.683594 C 43.117188 33.679688 43.3125 33.679688 43.511719 33.675781 C 44.546875 33.671875 45.578125 33.667969 46.609375 33.660156 C 47.460938 33.660156 48.308594 33.652344 49.164062 33.640625 C 50.191406 33.628906 51.222656 33.625 52.253906 33.621094 C 52.644531 33.621094 53.035156 33.617188 53.425781 33.609375 C 56.085938 33.570312 58.082031 33.835938 60.203125 35.578125 C 61.640625 37.34375 62.273438 38.644531 62.296875 40.933594 C 62.296875 41.101562 62.296875 41.269531 62.300781 41.441406 C 62.304688 41.992188 62.308594 42.542969 62.308594 43.097656 C 62.308594 43.285156 62.3125 43.472656 62.3125 43.667969 C 62.316406 44.675781 62.320312 45.675781 62.324219 46.679688 C 62.324219 47.710938 62.335938 48.742188 62.34375 49.773438 C 62.351562 50.570312 62.351562 51.363281 62.355469 52.160156 C 62.355469 52.542969 62.359375 52.921875 62.363281 53.300781 C 62.398438 56.308594 62.011719 58.347656 59.933594 60.585938 C 59.285156 61.207031 58.679688 61.75 57.75 61.75 C 57.816406 61.589844 57.882812 61.429688 57.953125 61.265625 C 58.050781 61.011719 58.148438 60.757812 58.25 60.5 C 58.3125 60.355469 58.375 60.210938 58.441406 60.0625 C 59.152344 58.246094 59.113281 56.4375 59.109375 54.507812 C 59.109375 54.148438 59.109375 53.785156 59.113281 53.425781 C 59.117188 52.675781 59.113281 51.921875 59.109375 51.167969 C 59.109375 50.210938 59.113281 49.25 59.121094 48.292969 C 59.125 47.550781 59.125 46.804688 59.125 46.0625 C 59.121094 45.707031 59.125 45.355469 59.128906 45 C 59.148438 42.140625 58.789062 39.792969 56.75 37.667969 C 54.671875 35.929688 52.066406 36.117188 49.511719 36.152344 C 49.109375 36.152344 48.703125 36.15625 48.296875 36.15625 C 47.238281 36.160156 46.179688 36.167969 45.117188 36.183594 C 44.03125 36.191406 42.949219 36.195312 41.867188 36.203125 C 39.742188 36.210938 37.621094 36.230469 35.5 36.25 C 35.90625 35.355469 36.230469 35.035156 37.109375 34.578125 C 37.304688 34.472656 37.5 34.371094 37.703125 34.261719 C 38.742188 33.765625 39.558594 33.714844 40.699219 33.703125 Z M 40.699219 33.703125 "/>
<path style=" stroke:none;fill-rule:nonzero;fill:rgb(33.725491%,64.705884%,90.588236%);fill-opacity:1;" d="M 18.578125 35.34375 C 20.566406 36.566406 21.671875 39.171875 22.765625 41.15625 C 23.046875 41.660156 23.332031 42.167969 23.613281 42.671875 C 23.757812 42.929688 23.902344 43.191406 24.054688 43.457031 C 24.796875 44.777344 25.5625 46.082031 26.328125 47.390625 C 26.621094 47.890625 26.910156 48.390625 27.203125 48.886719 C 27.339844 49.117188 27.476562 49.351562 27.617188 49.589844 C 28.148438 50.5 28.679688 51.414062 29.203125 52.328125 C 29.351562 52.589844 29.503906 52.851562 29.660156 53.121094 C 30.425781 54.535156 30.359375 55.925781 30.25 57.5 C 29.824219 58.859375 28.917969 59.722656 27.75 60.5 C 27.015625 60.71875 27.015625 60.71875 26.5 60.75 C 26.582031 60.542969 26.664062 60.335938 26.75 60.125 C 27.40625 57.820312 26.738281 56.140625 25.652344 54.089844 C 25.25 53.390625 24.839844 52.695312 24.421875 52 C 24.109375 51.472656 23.796875 50.945312 23.484375 50.417969 C 23.242188 50.007812 23.242188 50.007812 22.996094 49.589844 C 22.328125 48.457031 21.671875 47.316406 21.015625 46.171875 C 20.261719 44.863281 19.507812 43.554688 18.75 42.25 C 18.640625 42.058594 18.527344 41.867188 18.414062 41.667969 C 16.96875 39.046875 16.96875 39.046875 14.5 37.5 C 14.027344 37.445312 13.554688 37.398438 13.078125 37.359375 C 12.832031 37.339844 12.582031 37.316406 12.324219 37.296875 C 12.136719 37.28125 11.945312 37.265625 11.75 37.25 C 11.96875 36.964844 12.195312 36.6875 12.421875 36.40625 C 12.546875 36.25 12.671875 36.09375 12.800781 35.929688 C 14.238281 34.554688 16.820312 34.617188 18.578125 35.34375 Z M 18.578125 35.34375 "/>
<path style=" stroke:none;fill-rule:nonzero;fill:rgb(0%,80.784315%,54.509807%);fill-opacity:1;" d="M 54.796875 4.921875 C 57.632812 6.738281 59.589844 9.386719 60.578125 12.597656 C 61.328125 16.5 60.777344 20.105469 58.621094 23.457031 C 57.476562 25.132812 56.183594 26.148438 54.5 27.25 C 54.25 27.125 54.25 27.125 54 27 C 54.113281 26.871094 54.222656 26.738281 54.339844 26.605469 C 56.890625 23.496094 57.824219 20.242188 57.5 16.25 C 56.804688 12.84375 55.140625 9.769531 52.265625 7.730469 C 49.953125 6.328125 47.9375 5.621094 45.234375 5.671875 C 45.023438 5.671875 44.8125 5.667969 44.59375 5.667969 C 42.6875 5.683594 41.050781 6.121094 39.25 6.75 C 39.996094 5.675781 40.789062 5.125 41.953125 4.578125 C 42.25 4.433594 42.542969 4.285156 42.847656 4.136719 C 46.773438 2.449219 51.101562 2.898438 54.796875 4.921875 Z M 54.796875 4.921875 "/>
</g>
</svg>
