<?xml version="1.0" encoding="UTF-8"?>
<svg xmlns="http://www.w3.org/2000/svg" xmlns:xlink="http://www.w3.org/1999/xlink" width="64" height="64" viewBox="0 0 64 64" version="1.1">
<g id="surface1">
<path style=" stroke:none;fill-rule:nonzero;fill:rgb(4.313726%,41.176471%,75.686276%);fill-opacity:1;" d="M 28.023438 1.640625 C 28.335938 1.640625 28.652344 1.640625 28.976562 1.636719 C 29.640625 1.636719 30.300781 1.636719 30.96875 1.640625 C 31.8125 1.640625 32.660156 1.636719 33.503906 1.628906 C 34.316406 1.625 35.128906 1.625 35.945312 1.625 C 36.246094 1.625 36.546875 1.621094 36.859375 1.617188 C 38.78125 1.632812 40.246094 1.816406 41.710938 3.175781 C 41.800781 3.3125 41.890625 3.453125 41.984375 3.59375 C 42.128906 3.796875 42.128906 3.796875 42.273438 4.007812 C 43.003906 5.589844 42.796875 7.515625 42.796875 9.21875 C 42.800781 9.503906 42.800781 9.792969 42.804688 10.085938 C 42.808594 12.015625 42.796875 13.675781 41.703125 15.328125 C 40.292969 16.675781 39.027344 16.835938 37.140625 16.816406 C 36.890625 16.808594 36.644531 16.804688 36.390625 16.796875 C 36.136719 16.792969 35.882812 16.789062 35.621094 16.785156 C 34.996094 16.777344 34.371094 16.765625 33.75 16.75 C 33.75 18.316406 33.75 19.882812 33.75 21.5 C 34.492188 21.5 35.234375 21.5 36 21.5 C 37.175781 21.785156 38.03125 22.40625 38.75 23.375 C 39.25 24.5 39.25 24.5 39.25 27.5 C 41.808594 27.5 44.363281 27.5 47 27.5 C 47 26.589844 47 25.683594 47 24.75 C 47.433594 23.402344 48.335938 22.519531 49.5 21.75 C 50.859375 21.296875 52.359375 21.433594 53.777344 21.425781 C 54.132812 21.425781 54.488281 21.417969 54.84375 21.410156 C 56.863281 21.367188 58.523438 21.339844 60.25 22.5 C 61.820312 24.070312 61.820312 25.84375 61.828125 27.949219 C 61.828125 28.117188 61.828125 28.285156 61.828125 28.457031 C 61.828125 28.964844 61.835938 29.472656 61.839844 29.980469 C 61.84375 33.742188 61.84375 33.742188 60.570312 35.265625 C 60.421875 35.378906 60.277344 35.492188 60.125 35.609375 C 59.976562 35.726562 59.828125 35.847656 59.679688 35.964844 C 58.972656 36.429688 58.320312 36.535156 57.496094 36.578125 C 57.210938 36.59375 57.210938 36.59375 56.921875 36.613281 C 56.726562 36.621094 56.53125 36.632812 56.328125 36.640625 C 56.128906 36.652344 55.929688 36.660156 55.726562 36.675781 C 55.234375 36.699219 54.742188 36.722656 54.25 36.75 C 53.695312 37.964844 53.136719 39.179688 52.582031 40.390625 C 52.390625 40.804688 52.203125 41.214844 52.015625 41.628906 C 51.742188 42.222656 51.46875 42.820312 51.199219 43.414062 C 51.113281 43.597656 51.03125 43.777344 50.945312 43.964844 C 50.449219 45.054688 49.96875 46.148438 49.5 47.25 C 49.746094 47.253906 49.996094 47.257812 50.25 47.265625 C 51.535156 47.445312 52.425781 48.289062 53.25 49.25 C 53.78125 50.300781 53.828125 51.277344 53.824219 52.429688 C 53.828125 52.613281 53.828125 52.796875 53.828125 52.984375 C 53.828125 53.371094 53.828125 53.757812 53.828125 54.144531 C 53.828125 54.730469 53.835938 55.320312 53.839844 55.90625 C 53.839844 56.285156 53.839844 56.660156 53.839844 57.039062 C 53.84375 57.210938 53.84375 57.386719 53.847656 57.566406 C 53.835938 58.9375 53.503906 59.953125 52.570312 60.964844 C 52.421875 61.085938 52.277344 61.203125 52.125 61.328125 C 51.976562 61.453125 51.828125 61.574219 51.679688 61.699219 C 50.390625 62.597656 48.640625 62.316406 47.136719 62.324219 C 46.765625 62.328125 46.398438 62.332031 46.027344 62.339844 C 42.210938 62.417969 42.210938 62.417969 40.5 61.25 C 39.664062 60.417969 39.269531 59.648438 39 58.5 C 39 57.839844 39 57.179688 39 56.5 C 34.378906 56.5 29.761719 56.5 25 56.5 C 25 57.160156 25 57.820312 25 58.5 C 24.789062 59.609375 24.386719 60.46875 23.53125 61.21875 C 21.773438 62.414062 20.125 62.335938 18.070312 62.328125 C 17.515625 62.328125 16.96875 62.335938 16.414062 62.339844 C 16.058594 62.339844 15.707031 62.339844 15.351562 62.339844 C 15.03125 62.339844 14.714844 62.339844 14.386719 62.34375 C 13.015625 62.199219 12.039062 61.6875 11.171875 60.625 C 11.050781 60.480469 10.925781 60.332031 10.800781 60.179688 C 10.136719 59.230469 10.203125 58.230469 10.199219 57.117188 C 10.199219 56.9375 10.199219 56.75 10.195312 56.5625 C 10.191406 56.175781 10.191406 55.785156 10.191406 55.394531 C 10.1875 54.800781 10.179688 54.210938 10.171875 53.617188 C 10.171875 53.238281 10.171875 52.859375 10.167969 52.480469 C 10.164062 52.304688 10.164062 52.125 10.15625 51.945312 C 10.164062 50.578125 10.503906 49.589844 11.386719 48.542969 C 11.523438 48.425781 11.65625 48.308594 11.796875 48.1875 C 11.929688 48.066406 12.0625 47.945312 12.199219 47.824219 C 13.003906 47.347656 13.839844 47.214844 14.75 47 C 14.628906 46.699219 14.507812 46.398438 14.382812 46.089844 C 13.933594 44.980469 13.488281 43.867188 13.039062 42.753906 C 12.847656 42.273438 12.652344 41.792969 12.460938 41.308594 C 12.179688 40.617188 11.902344 39.925781 11.625 39.238281 C 11.539062 39.019531 11.449219 38.804688 11.359375 38.582031 C 11.28125 38.382812 11.199219 38.179688 11.117188 37.972656 C 11.046875 37.800781 10.976562 37.621094 10.902344 37.4375 C 10.75 37 10.75 37 10.75 36.5 C 10.601562 36.503906 10.449219 36.511719 10.296875 36.515625 C 9.609375 36.535156 8.921875 36.550781 8.234375 36.5625 C 7.996094 36.570312 7.761719 36.578125 7.519531 36.589844 C 5.945312 36.609375 5.035156 36.425781 3.75 35.5 C 2.074219 33.777344 2.164062 31.8125 2.171875 29.542969 C 2.171875 29.035156 2.164062 28.527344 2.160156 28.019531 C 2.15625 24.195312 2.15625 24.195312 3.335938 22.875 C 5.066406 21.324219 6.871094 21.414062 9.058594 21.421875 C 9.589844 21.421875 10.121094 21.417969 10.652344 21.410156 C 10.996094 21.410156 11.335938 21.410156 11.675781 21.410156 C 11.984375 21.410156 12.292969 21.40625 12.609375 21.40625 C 13.816406 21.535156 14.808594 21.863281 15.738281 22.679688 C 15.859375 22.828125 15.972656 22.972656 16.09375 23.125 C 16.214844 23.273438 16.335938 23.417969 16.460938 23.570312 C 17.328125 24.851562 17 25.785156 17 27.5 C 19.558594 27.5 22.113281 27.5 24.75 27.5 C 24.75 26.507812 24.75 25.519531 24.75 24.5 C 25.386719 23.066406 25.996094 22.347656 27.386719 21.648438 C 28 21.5 28 21.5 30.25 21.5 C 30.25 19.929688 30.25 18.363281 30.25 16.75 C 29.691406 16.765625 29.691406 16.765625 29.117188 16.785156 C 28.621094 16.792969 28.121094 16.804688 27.625 16.8125 C 27.257812 16.824219 27.257812 16.824219 26.878906 16.839844 C 24.949219 16.863281 23.578125 16.535156 22.15625 15.1875 C 21.070312 13.347656 21.171875 11.320312 21.1875 9.25 C 21.183594 8.824219 21.183594 8.824219 21.183594 8.390625 C 21.183594 6.472656 21.214844 4.8125 22.296875 3.171875 C 24.003906 1.542969 25.773438 1.636719 28.023438 1.640625 Z M 17 31 C 16.835938 31.988281 16.671875 32.980469 16.5 34 C 15.386719 35.558594 15.386719 35.558594 14.5 36 C 15.128906 38.425781 16.109375 40.714844 17.046875 43.03125 C 17.210938 43.441406 17.378906 43.851562 17.542969 44.261719 C 17.945312 45.257812 18.347656 46.253906 18.75 47.25 C 18.933594 47.265625 19.121094 47.277344 19.3125 47.289062 C 19.558594 47.308594 19.800781 47.328125 20.054688 47.347656 C 20.296875 47.367188 20.539062 47.382812 20.789062 47.402344 C 22.175781 47.589844 23.136719 48.117188 24.09375 49.125 C 24.5 50 24.5 50 25 53 C 29.621094 53 34.238281 53 39 53 C 39.164062 52.007812 39.328125 51.019531 39.5 50 C 40.046875 48.824219 40.703125 48.21875 41.871094 47.703125 C 42.609375 47.464844 43.292969 47.402344 44.070312 47.347656 C 44.335938 47.328125 44.609375 47.308594 44.882812 47.289062 C 45.1875 47.269531 45.1875 47.269531 45.5 47.25 C 45.933594 46.316406 46.371094 45.382812 46.804688 44.453125 C 46.953125 44.136719 47.101562 43.820312 47.246094 43.503906 C 48.054688 41.777344 48.851562 40.046875 49.609375 38.300781 C 49.730469 38.015625 49.855469 37.730469 49.984375 37.433594 C 50.28125 36.792969 50.28125 36.792969 50.25 36.25 C 50.027344 36.15625 49.808594 36.0625 49.578125 35.96875 C 48.578125 35.402344 48.117188 34.976562 47.5 34 C 47.253906 32.515625 47.253906 32.515625 47 31 C 44.441406 31 41.886719 31 39.25 31 C 39.085938 32.070312 38.921875 33.144531 38.75 34.25 C 37.617188 35.667969 36.890625 36.148438 35.097656 36.351562 C 33.234375 36.367188 33.234375 36.367188 32.558594 36.363281 C 32.015625 36.359375 31.476562 36.367188 30.933594 36.375 C 29.050781 36.382812 27.582031 36.339844 26 35.25 C 24.855469 33.78125 24.953125 33.015625 24.75 31 C 22.191406 31 19.636719 31 17 31 Z M 17 31 "/>
<path style=" stroke:none;fill-rule:nonzero;fill:rgb(82.745099%,12.54902%,19.607843%);fill-opacity:1;" d="M 53.777344 21.425781 C 54.132812 21.421875 54.488281 21.417969 54.839844 21.410156 C 56.863281 21.367188 58.523438 21.339844 60.25 22.5 C 61.820312 24.070312 61.820312 25.84375 61.832031 27.953125 C 61.828125 28.117188 61.828125 28.285156 61.828125 28.457031 C 61.828125 28.964844 61.835938 29.472656 61.839844 29.980469 C 61.839844 33.742188 61.839844 33.742188 60.570312 35.265625 C 60.425781 35.378906 60.277344 35.492188 60.125 35.609375 C 59.980469 35.730469 59.832031 35.847656 59.679688 35.96875 C 58.972656 36.429688 58.320312 36.535156 57.496094 36.578125 C 57.308594 36.589844 57.121094 36.601562 56.925781 36.609375 C 56.726562 36.621094 56.53125 36.632812 56.328125 36.640625 C 56.027344 36.65625 56.027344 36.65625 55.722656 36.671875 C 55.230469 36.699219 54.742188 36.726562 54.25 36.75 C 53.695312 37.964844 53.136719 39.179688 52.582031 40.390625 C 52.394531 40.804688 52.203125 41.214844 52.015625 41.628906 C 51.742188 42.222656 51.472656 42.820312 51.199219 43.417969 C 51.113281 43.597656 51.03125 43.777344 50.945312 43.96875 C 50.445312 45.054688 49.964844 46.148438 49.5 47.25 C 49.746094 47.257812 49.996094 47.261719 50.25 47.265625 C 51.535156 47.445312 52.425781 48.289062 53.25 49.25 C 53.78125 50.296875 53.828125 51.277344 53.824219 52.429688 C 53.828125 52.703125 53.828125 52.703125 53.828125 52.984375 C 53.828125 53.371094 53.828125 53.757812 53.828125 54.144531 C 53.828125 54.730469 53.835938 55.320312 53.839844 55.910156 C 53.839844 56.285156 53.839844 56.660156 53.839844 57.039062 C 53.84375 57.210938 53.84375 57.386719 53.847656 57.566406 C 53.835938 58.9375 53.503906 59.953125 52.570312 60.964844 C 52.425781 61.085938 52.277344 61.203125 52.125 61.328125 C 51.980469 61.453125 51.832031 61.574219 51.679688 61.703125 C 50.390625 62.597656 48.640625 62.316406 47.132812 62.324219 C 46.765625 62.328125 46.398438 62.332031 46.027344 62.339844 C 42.214844 62.417969 42.214844 62.417969 40.5 61.25 C 38.929688 59.679688 38.933594 57.90625 38.917969 55.796875 C 38.917969 55.632812 38.921875 55.464844 38.921875 55.292969 C 38.921875 54.785156 38.917969 54.277344 38.910156 53.769531 C 38.90625 49.945312 38.90625 49.945312 40.085938 48.625 C 41.328125 47.511719 42.4375 47.183594 44.078125 47.21875 C 44.34375 47.222656 44.613281 47.230469 44.886719 47.230469 C 45.089844 47.238281 45.292969 47.242188 45.5 47.25 C 45.5625 47.046875 45.625 46.847656 45.6875 46.640625 C 46.0625 45.570312 46.515625 44.554688 46.980469 43.527344 C 47.070312 43.316406 47.167969 43.109375 47.261719 42.894531 C 47.558594 42.230469 47.855469 41.570312 48.15625 40.90625 C 48.359375 40.457031 48.5625 40.003906 48.765625 39.554688 C 49.257812 38.453125 49.753906 37.351562 50.25 36.25 C 49.957031 36.203125 49.957031 36.203125 49.65625 36.152344 C 48.839844 35.960938 48.589844 35.671875 48.0625 35.03125 C 47.914062 34.855469 47.765625 34.679688 47.613281 34.5 C 46.902344 33.519531 46.957031 32.535156 46.949219 31.371094 C 46.945312 31.1875 46.945312 31 46.945312 30.8125 C 46.941406 30.421875 46.941406 30.035156 46.9375 29.644531 C 46.9375 29.050781 46.929688 28.457031 46.921875 27.867188 C 46.917969 27.488281 46.917969 27.109375 46.917969 26.730469 C 46.914062 26.554688 46.910156 26.378906 46.910156 26.195312 C 46.914062 24.820312 47.246094 23.8125 48.171875 22.785156 C 48.316406 22.664062 48.460938 22.546875 48.609375 22.421875 C 48.824219 22.238281 48.824219 22.238281 49.046875 22.046875 C 50.398438 21.160156 52.21875 21.4375 53.777344 21.425781 Z M 53.777344 21.425781 "/>
<path style=" stroke:none;fill-rule:nonzero;fill:rgb(83.137256%,12.54902%,19.607843%);fill-opacity:1;" d="M 28.023438 1.640625 C 28.496094 1.640625 28.496094 1.640625 28.976562 1.636719 C 29.640625 1.636719 30.300781 1.636719 30.96875 1.640625 C 31.8125 1.640625 32.660156 1.636719 33.503906 1.628906 C 34.316406 1.625 35.128906 1.625 35.945312 1.625 C 36.246094 1.625 36.546875 1.621094 36.859375 1.617188 C 38.78125 1.632812 40.246094 1.816406 41.710938 3.175781 C 41.84375 3.382812 41.84375 3.382812 41.984375 3.59375 C 42.078125 3.730469 42.175781 3.867188 42.273438 4.007812 C 43.003906 5.589844 42.796875 7.515625 42.796875 9.21875 C 42.800781 9.503906 42.800781 9.792969 42.804688 10.085938 C 42.808594 12.015625 42.796875 13.675781 41.703125 15.328125 C 40.292969 16.675781 39.027344 16.835938 37.140625 16.816406 C 36.890625 16.808594 36.644531 16.804688 36.390625 16.796875 C 36.136719 16.792969 35.882812 16.789062 35.621094 16.785156 C 34.996094 16.777344 34.371094 16.765625 33.75 16.75 C 33.75 18.316406 33.75 19.882812 33.75 21.5 C 32.59375 21.5 31.441406 21.5 30.25 21.5 C 30.25 19.929688 30.25 18.363281 30.25 16.75 C 29.691406 16.765625 29.691406 16.765625 29.117188 16.785156 C 28.621094 16.792969 28.121094 16.804688 27.625 16.8125 C 27.257812 16.824219 27.257812 16.824219 26.878906 16.839844 C 24.949219 16.863281 23.578125 16.535156 22.15625 15.1875 C 21.070312 13.347656 21.171875 11.320312 21.1875 9.25 C 21.183594 8.964844 21.183594 8.679688 21.183594 8.390625 C 21.183594 6.472656 21.214844 4.8125 22.296875 3.171875 C 24.003906 1.542969 25.773438 1.636719 28.023438 1.640625 Z M 28.023438 1.640625 "/>
<path style=" stroke:none;fill-rule:nonzero;fill:rgb(4.705882%,41.960785%,76.47059%);fill-opacity:1;" d="M 31.460938 21.371094 C 32 21.375 32.539062 21.371094 33.078125 21.363281 C 35.203125 21.359375 36.839844 21.4375 38.46875 22.929688 C 39.53125 24.613281 39.25 25.210938 39.25 27.5 C 41.890625 27.5 44.527344 27.5 47.25 27.5 C 47.25 28.65625 47.25 29.808594 47.25 31 C 44.609375 31 41.96875 31 39.25 31 C 39.25 31.824219 39.25 32.648438 39.25 33.5 C 38.679688 34.863281 38.035156 35.539062 36.75 36.25 C 35.429688 36.691406 34.015625 36.566406 32.636719 36.574219 C 32.265625 36.578125 31.898438 36.582031 31.527344 36.589844 C 27.707031 36.664062 27.707031 36.664062 26 35.5 C 24.5625 33.992188 24.75 33.246094 24.75 31 C 22.191406 31 19.632812 31 17 31 C 17 29.84375 17 28.691406 17 27.5 C 19.554688 27.5 22.113281 27.5 24.75 27.5 C 24.75 26.507812 24.75 25.519531 24.75 24.5 C 25.382812 23.078125 25.890625 22.382812 27.332031 21.699219 C 28.671875 21.300781 30.070312 21.351562 31.460938 21.371094 Z M 31.460938 21.371094 "/>
<path style=" stroke:none;fill-rule:nonzero;fill:rgb(96.862745%,60.000002%,26.666668%);fill-opacity:1;" d="M 9.058594 21.421875 C 9.589844 21.421875 10.121094 21.417969 10.652344 21.410156 C 10.996094 21.410156 11.335938 21.410156 11.675781 21.410156 C 11.984375 21.410156 12.292969 21.410156 12.609375 21.40625 C 13.8125 21.535156 14.8125 21.867188 15.738281 22.679688 C 15.855469 22.824219 15.972656 22.972656 16.09375 23.125 C 16.214844 23.269531 16.335938 23.417969 16.460938 23.570312 C 17.105469 24.527344 17.042969 25.519531 17.050781 26.632812 C 17.050781 26.8125 17.054688 27 17.054688 27.1875 C 17.058594 27.574219 17.058594 27.964844 17.058594 28.355469 C 17.0625 28.949219 17.070312 29.542969 17.078125 30.132812 C 17.078125 30.511719 17.082031 30.890625 17.082031 31.269531 C 17.085938 31.445312 17.089844 31.621094 17.09375 31.804688 C 17.085938 33.179688 16.757812 34.1875 15.828125 35.214844 C 15.683594 35.335938 15.539062 35.457031 15.390625 35.578125 C 15.175781 35.761719 15.175781 35.761719 14.953125 35.949219 C 13.574219 36.859375 11.691406 36.566406 10.101562 36.574219 C 9.734375 36.574219 9.363281 36.582031 8.996094 36.589844 C 8.460938 36.601562 7.921875 36.605469 7.386719 36.605469 C 6.90625 36.609375 6.90625 36.609375 6.417969 36.617188 C 5.050781 36.445312 4.140625 35.902344 3.171875 34.90625 C 2.085938 33.214844 2.164062 31.492188 2.171875 29.542969 C 2.171875 29.035156 2.167969 28.527344 2.160156 28.019531 C 2.15625 24.195312 2.15625 24.195312 3.335938 22.875 C 5.066406 21.324219 6.871094 21.414062 9.058594 21.421875 Z M 9.058594 21.421875 "/>
<path style=" stroke:none;fill-rule:nonzero;fill:rgb(96.862745%,60.000002%,26.666668%);fill-opacity:1;" d="M 53.777344 21.425781 C 54.132812 21.421875 54.488281 21.417969 54.839844 21.410156 C 56.863281 21.367188 58.523438 21.339844 60.25 22.5 C 61.820312 24.070312 61.820312 25.84375 61.832031 27.953125 C 61.828125 28.203125 61.828125 28.203125 61.828125 28.457031 C 61.828125 28.964844 61.835938 29.472656 61.839844 29.980469 C 61.839844 33.742188 61.839844 33.742188 60.570312 35.265625 C 60.425781 35.378906 60.277344 35.492188 60.125 35.609375 C 59.980469 35.730469 59.832031 35.847656 59.679688 35.96875 C 58.730469 36.589844 57.765625 36.542969 56.675781 36.550781 C 56.496094 36.550781 56.316406 36.554688 56.132812 36.554688 C 55.757812 36.558594 55.378906 36.558594 55 36.5625 C 54.425781 36.5625 53.851562 36.570312 53.277344 36.578125 C 52.910156 36.578125 52.542969 36.582031 52.175781 36.582031 C 52.003906 36.585938 51.835938 36.589844 51.660156 36.589844 C 50.296875 36.585938 49.289062 36.25 48.285156 35.320312 C 48.164062 35.171875 48.042969 35.027344 47.921875 34.875 C 47.800781 34.730469 47.675781 34.582031 47.550781 34.429688 C 46.886719 33.480469 46.957031 32.480469 46.949219 31.371094 C 46.945312 31.1875 46.945312 31 46.945312 30.8125 C 46.941406 30.421875 46.941406 30.035156 46.9375 29.644531 C 46.9375 29.050781 46.929688 28.457031 46.921875 27.867188 C 46.917969 27.488281 46.917969 27.109375 46.917969 26.730469 C 46.914062 26.554688 46.910156 26.378906 46.910156 26.195312 C 46.914062 24.820312 47.246094 23.8125 48.171875 22.785156 C 48.316406 22.664062 48.460938 22.546875 48.609375 22.421875 C 48.753906 22.296875 48.898438 22.175781 49.046875 22.046875 C 50.398438 21.160156 52.21875 21.4375 53.777344 21.425781 Z M 53.777344 21.425781 "/>
<path style=" stroke:none;fill-rule:nonzero;fill:rgb(90.980393%,15.686275%,22.745098%);fill-opacity:1;" d="M 28.484375 1.703125 C 28.828125 1.707031 29.167969 1.710938 29.507812 1.714844 C 30.339844 1.722656 31.167969 1.734375 32 1.75 C 32 3.484375 32 5.214844 32 7 C 30.0625 7.09375 30.0625 7.09375 29.457031 7.121094 C 28.53125 7.171875 27.777344 7.21875 27 7.75 C 26.515625 8.394531 26.496094 8.703125 26.5625 9.515625 C 26.71875 10.289062 26.71875 10.289062 27.25 11 C 27.898438 11.214844 28.335938 11.292969 29 11.328125 C 29.175781 11.339844 29.34375 11.347656 29.519531 11.359375 C 29.734375 11.367188 29.949219 11.378906 30.171875 11.390625 C 30.855469 11.425781 31.542969 11.464844 32.25 11.5 C 32.25 13.152344 32.25 14.800781 32.25 16.5 C 30.632812 16.703125 29.121094 16.8125 27.5 16.828125 C 27.265625 16.835938 27.027344 16.84375 26.785156 16.851562 C 24.902344 16.867188 23.539062 16.5 22.15625 15.1875 C 21.070312 13.347656 21.175781 11.324219 21.1875 9.25 C 21.183594 8.964844 21.183594 8.679688 21.183594 8.386719 C 21.1875 6.472656 21.214844 4.8125 22.296875 3.171875 C 24.121094 1.429688 26.09375 1.65625 28.484375 1.703125 Z M 28.484375 1.703125 "/>
<path style=" stroke:none;fill-rule:nonzero;fill:rgb(5.882353%,54.11765%,87.843138%);fill-opacity:1;" d="M 32 21.75 C 32 23.398438 32 25.050781 32 26.75 C 31.257812 26.832031 30.515625 26.914062 29.75 27 C 28.960938 27.355469 28.960938 27.355469 28.5 28 C 28.300781 29.082031 28.367188 29.554688 28.984375 30.46875 C 29.90625 31.199219 29.90625 31.199219 32 31.25 C 32 32.984375 32 34.714844 32 36.5 C 27.609375 36.648438 27.609375 36.648438 26 35.5 C 24.566406 33.988281 24.75 33.246094 24.75 31 C 22.191406 31 19.636719 31 17 31 C 17 29.84375 17 28.691406 17 27.5 C 19.558594 27.5 22.113281 27.5 24.75 27.5 C 24.75 26.511719 24.75 25.519531 24.75 24.5 C 25.386719 23.070312 26.011719 22.273438 27.453125 21.652344 C 28.984375 21.222656 30.453125 21.53125 32 21.75 Z M 32 21.75 "/>
<path style=" stroke:none;fill-rule:nonzero;fill:rgb(98.039216%,72.941178%,32.549021%);fill-opacity:1;" d="M 54.25 21.5 C 54.25 26.367188 54.25 31.234375 54.25 36.25 C 49.5 36.25 49.5 36.25 48.234375 35.453125 C 47.101562 34.226562 46.921875 32.941406 46.925781 31.324219 C 46.921875 31.136719 46.921875 30.953125 46.921875 30.765625 C 46.921875 30.378906 46.921875 29.992188 46.921875 29.609375 C 46.921875 29.015625 46.914062 28.429688 46.910156 27.84375 C 46.910156 27.464844 46.910156 27.085938 46.910156 26.710938 C 46.90625 26.539062 46.90625 26.363281 46.902344 26.183594 C 46.914062 24.816406 47.246094 23.804688 48.171875 22.785156 C 48.316406 22.664062 48.460938 22.546875 48.609375 22.421875 C 48.753906 22.300781 48.898438 22.175781 49.046875 22.050781 C 50.558594 21.050781 52.5625 21.5 54.25 21.5 Z M 54.25 21.5 "/>
<path style=" stroke:none;fill-rule:nonzero;fill:rgb(98.039216%,72.941178%,32.156864%);fill-opacity:1;" d="M 7.566406 21.453125 C 7.824219 21.453125 7.824219 21.453125 8.082031 21.453125 C 8.621094 21.457031 9.164062 21.460938 9.703125 21.46875 C 10.070312 21.472656 10.4375 21.472656 10.808594 21.476562 C 11.703125 21.480469 12.601562 21.488281 13.5 21.5 C 13.5 21.582031 13.5 21.667969 13.5 21.75 C 12.261719 21.75 11.023438 21.75 9.75 21.75 C 9.75 23.402344 9.75 25.050781 9.75 26.75 C 9.007812 26.832031 8.265625 26.917969 7.5 27 C 6.5 27.375 6.5 27.375 6.25 28 C 6.121094 29.367188 6.121094 29.367188 6.59375 30.609375 C 7.613281 31.214844 8.574219 31.1875 9.75 31.25 C 9.75 32.902344 9.75 34.550781 9.75 36.25 C 10.078125 36.332031 10.410156 36.417969 10.75 36.5 C 9.914062 36.527344 9.074219 36.546875 8.234375 36.5625 C 8 36.570312 7.761719 36.578125 7.519531 36.589844 C 5.945312 36.609375 5.035156 36.425781 3.75 35.5 C 2.074219 33.777344 2.164062 31.8125 2.167969 29.542969 C 2.171875 29.035156 2.164062 28.527344 2.160156 28.019531 C 2.15625 24.195312 2.15625 24.195312 3.335938 22.875 C 4.664062 21.6875 5.824219 21.4375 7.566406 21.453125 Z M 7.566406 21.453125 "/>
<path style=" stroke:none;fill-rule:nonzero;fill:rgb(90.980393%,15.686275%,22.352941%);fill-opacity:1;" d="M 44.015625 47.203125 C 44.398438 47.207031 44.398438 47.207031 44.789062 47.207031 C 45.5 47.25 45.5 47.25 46.5 47.5 C 46.5 49.152344 46.5 50.800781 46.5 52.5 C 45.757812 52.582031 45.015625 52.664062 44.25 52.75 C 43.25 53.125 43.25 53.125 43 53.75 C 42.828125 55.171875 42.828125 55.171875 43.484375 56.359375 C 44.214844 56.734375 44.625 56.824219 45.421875 56.902344 C 45.625 56.917969 45.824219 56.9375 46.035156 56.957031 C 46.1875 56.972656 46.339844 56.984375 46.5 57 C 46.507812 57.828125 46.511719 58.65625 46.515625 59.484375 C 46.519531 59.71875 46.519531 59.957031 46.523438 60.199219 C 46.523438 60.539062 46.523438 60.539062 46.527344 60.878906 C 46.527344 61.191406 46.527344 61.191406 46.527344 61.511719 C 46.5 62 46.5 62 46.25 62.25 C 42.15625 62.566406 42.15625 62.566406 40.5 61.25 C 38.929688 59.679688 38.929688 57.90625 38.921875 55.800781 C 38.921875 55.632812 38.921875 55.464844 38.921875 55.292969 C 38.921875 54.78125 38.914062 54.277344 38.910156 53.769531 C 38.90625 49.941406 38.90625 49.941406 40.085938 48.625 C 41.300781 47.535156 42.414062 47.179688 44.015625 47.203125 Z M 44.015625 47.203125 "/>
<path style=" stroke:none;fill-rule:nonzero;fill:rgb(6.27451%,54.509807%,88.235295%);fill-opacity:1;" d="M 15.546875 47.359375 C 16.515625 47.429688 16.515625 47.429688 17.5 47.5 C 17.5 49.148438 17.5 50.800781 17.5 52.5 C 16.757812 52.582031 16.015625 52.664062 15.25 52.75 C 14.382812 53.371094 14.0625 53.707031 13.84375 54.75 C 14.0625 55.792969 14.382812 56.132812 15.25 56.75 C 15.992188 56.832031 16.734375 56.914062 17.5 57 C 17.5 58.730469 17.5 60.464844 17.5 62.25 C 16.871094 62.265625 16.242188 62.28125 15.59375 62.296875 C 15.300781 62.308594 15.300781 62.308594 15 62.316406 C 13.597656 62.335938 12.59375 62.050781 11.535156 61.070312 C 11.414062 60.925781 11.292969 60.777344 11.171875 60.625 C 11.050781 60.476562 10.925781 60.332031 10.800781 60.179688 C 10.136719 59.230469 10.207031 58.230469 10.199219 57.121094 C 10.195312 56.9375 10.195312 56.75 10.195312 56.5625 C 10.191406 56.171875 10.191406 55.785156 10.1875 55.394531 C 10.1875 54.800781 10.179688 54.210938 10.171875 53.617188 C 10.167969 53.238281 10.167969 52.859375 10.167969 52.480469 C 10.164062 52.304688 10.160156 52.125 10.160156 51.945312 C 10.164062 50.570312 10.488281 49.554688 11.429688 48.535156 C 11.578125 48.414062 11.722656 48.292969 11.875 48.171875 C 12.023438 48.050781 12.167969 47.925781 12.320312 47.800781 C 13.34375 47.085938 14.371094 47.269531 15.546875 47.359375 Z M 15.546875 47.359375 "/>
<path style=" stroke:none;fill-rule:nonzero;fill:rgb(26.666668%,26.666668%,26.666668%);fill-opacity:1;" d="M 24.75 53 C 29.535156 53 34.320312 53 39.25 53 C 39.25 54.15625 39.25 55.308594 39.25 56.5 C 34.464844 56.5 29.679688 56.5 24.75 56.5 C 24.75 55.34375 24.75 54.191406 24.75 53 Z M 24.75 53 "/>
<path style=" stroke:none;fill-rule:nonzero;fill:rgb(26.666668%,26.666668%,26.666668%);fill-opacity:1;" d="M 51.148438 36.476562 C 51.523438 36.476562 51.894531 36.480469 52.265625 36.484375 C 52.453125 36.484375 52.644531 36.484375 52.839844 36.488281 C 53.308594 36.492188 53.78125 36.496094 54.25 36.5 C 52.695312 40.09375 51.117188 43.679688 49.5 47.25 C 48.179688 47.25 46.859375 47.25 45.5 47.25 C 46.0625 45.5625 46.0625 45.5625 46.417969 44.757812 C 46.5 44.578125 46.578125 44.398438 46.660156 44.214844 C 46.746094 44.027344 46.828125 43.839844 46.914062 43.644531 C 47 43.445312 47.089844 43.25 47.179688 43.046875 C 47.363281 42.632812 47.550781 42.21875 47.730469 41.804688 C 48.015625 41.171875 48.300781 40.53125 48.578125 39.898438 C 48.757812 39.496094 48.9375 39.09375 49.121094 38.691406 C 49.203125 38.5 49.285156 38.308594 49.375 38.113281 C 50.09375 36.503906 50.09375 36.503906 51.148438 36.476562 Z M 51.148438 36.476562 "/>
<path style=" stroke:none;fill-rule:nonzero;fill:rgb(27.058825%,27.058825%,27.058825%);fill-opacity:1;" d="M 14.75 36.5 C 15.195312 37.183594 15.460938 37.925781 15.746094 38.683594 C 15.835938 38.90625 15.921875 39.125 16.011719 39.351562 C 16.195312 39.816406 16.375 40.28125 16.550781 40.75 C 16.828125 41.464844 17.109375 42.179688 17.390625 42.890625 C 17.566406 43.34375 17.742188 43.796875 17.921875 44.246094 C 18.003906 44.460938 18.085938 44.675781 18.171875 44.898438 C 18.246094 45.09375 18.324219 45.296875 18.402344 45.5 C 18.46875 45.675781 18.539062 45.851562 18.609375 46.03125 C 18.75 46.5 18.75 46.5 18.75 47.25 C 17.511719 47.25 16.273438 47.25 15 47.25 C 14.058594 45.230469 13.199219 43.183594 12.375 41.113281 C 12.171875 40.601562 11.960938 40.089844 11.753906 39.574219 C 11.625 39.246094 11.492188 38.921875 11.363281 38.59375 C 11.246094 38.296875 11.128906 38.003906 11.003906 37.703125 C 10.75 37 10.75 37 10.75 36.5 C 11.183594 36.449219 11.613281 36.40625 12.046875 36.359375 C 12.289062 36.332031 12.527344 36.308594 12.777344 36.28125 C 14.082031 36.226562 14.082031 36.226562 14.75 36.5 Z M 14.75 36.5 "/>
<path style=" stroke:none;fill-rule:nonzero;fill:rgb(97.254902%,59.607846%,26.274511%);fill-opacity:1;" d="M 9.703125 26.671875 C 10.003906 26.660156 10.003906 26.660156 10.316406 26.648438 C 11.339844 26.640625 11.863281 26.664062 12.753906 27.222656 C 13.34375 27.851562 13.484375 28.09375 13.578125 28.953125 C 13.480469 29.9375 13.191406 30.308594 12.5 31 C 11.5 31.332031 10.578125 31.324219 9.53125 31.34375 C 9.230469 31.355469 9.230469 31.355469 8.921875 31.371094 C 7.839844 31.390625 7.386719 31.351562 6.492188 30.683594 C 5.753906 29.660156 5.824219 29.238281 6 28 C 7.042969 26.644531 8.089844 26.691406 9.703125 26.671875 Z M 9.703125 26.671875 "/>
<path style=" stroke:none;fill-rule:nonzero;fill:rgb(82.745099%,12.156863%,19.607843%);fill-opacity:1;" d="M 46.328125 52.4375 C 46.519531 52.433594 46.707031 52.425781 46.902344 52.421875 C 48.066406 52.414062 48.800781 52.511719 49.75 53.25 C 50.269531 53.914062 50.25 54.265625 50.234375 55.125 C 49.945312 56.207031 49.699219 56.425781 48.75 57 C 48 57.148438 47.277344 57.148438 46.515625 57.140625 C 46.316406 57.148438 46.125 57.152344 45.921875 57.15625 C 44.894531 57.15625 44.195312 57.066406 43.367188 56.429688 C 42.75 55.75 42.75 55.75 42.566406 55.226562 C 42.613281 54.359375 42.683594 53.835938 43.21875 53.140625 C 44.230469 52.398438 45.109375 52.445312 46.328125 52.4375 Z M 46.328125 52.4375 "/>
<path style=" stroke:none;fill-rule:nonzero;fill:rgb(26.666668%,26.666668%,26.666668%);fill-opacity:1;" d="M 39.25 27.5 C 41.890625 27.5 44.53125 27.5 47.25 27.5 C 47.25 28.65625 47.25 29.808594 47.25 31 C 44.609375 31 41.96875 31 39.25 31 C 39.25 29.84375 39.25 28.691406 39.25 27.5 Z M 39.25 27.5 "/>
<path style=" stroke:none;fill-rule:nonzero;fill:rgb(26.666668%,26.666668%,26.666668%);fill-opacity:1;" d="M 17 27.5 C 19.558594 27.5 22.113281 27.5 24.75 27.5 C 24.75 28.65625 24.75 29.808594 24.75 31 C 22.191406 31 19.636719 31 17 31 C 17 29.84375 17 28.691406 17 27.5 Z M 17 27.5 "/>
<path style=" stroke:none;fill-rule:nonzero;fill:rgb(82.745099%,12.156863%,19.607843%);fill-opacity:1;" d="M 30.15625 6.984375 C 30.847656 6.988281 31.539062 6.996094 32.25 7 C 32.25 8.484375 32.25 9.96875 32.25 11.5 C 31.574219 11.515625 30.898438 11.53125 30.203125 11.546875 C 29.992188 11.554688 29.78125 11.558594 29.566406 11.566406 C 28.417969 11.578125 27.679688 11.496094 26.75 10.75 C 26.355469 10.0625 26.242188 9.648438 26.28125 8.859375 C 26.96875 6.945312 28.390625 6.96875 30.15625 6.984375 Z M 30.15625 6.984375 "/>
<path style=" stroke:none;fill-rule:nonzero;fill:rgb(72.941178%,6.27451%,21.176471%);fill-opacity:1;" d="M 32.25 7 C 32.886719 6.976562 33.515625 6.949219 34.171875 6.921875 C 34.371094 6.910156 34.566406 6.898438 34.769531 6.886719 C 35.816406 6.867188 36.148438 6.917969 36.988281 7.613281 C 37.15625 7.824219 37.328125 8.035156 37.5 8.25 C 37.582031 8.332031 37.664062 8.414062 37.75 8.5 C 37.664062 9.628906 37.566406 10.433594 36.75 11.25 C 35.84375 11.550781 35.015625 11.527344 34.078125 11.515625 C 33.171875 11.507812 33.171875 11.507812 32.25 11.5 C 32.25 10.015625 32.25 8.53125 32.25 7 Z M 32.25 7 "/>
<path style=" stroke:none;fill-rule:nonzero;fill:rgb(26.666668%,26.666668%,26.666668%);fill-opacity:1;" d="M 30.25 16.75 C 31.40625 16.75 32.558594 16.75 33.75 16.75 C 33.75 18.316406 33.75 19.886719 33.75 21.5 C 32.59375 21.5 31.441406 21.5 30.25 21.5 C 30.25 19.933594 30.25 18.363281 30.25 16.75 Z M 30.25 16.75 "/>
<path style=" stroke:none;fill-rule:nonzero;fill:rgb(85.09804%,40.000001%,16.862746%);fill-opacity:1;" d="M 54.25 26.75 C 56.828125 26.75 56.828125 26.75 57.75 27.5 C 58.15625 28.308594 58.140625 29.125 58 30 C 57.53125 30.75 57.53125 30.75 56.75 31.25 C 55.886719 31.351562 55.121094 31.308594 54.25 31.25 C 54.25 29.765625 54.25 28.28125 54.25 26.75 Z M 54.25 26.75 "/>
<path style=" stroke:none;fill-rule:nonzero;fill:rgb(4.705882%,42.352942%,76.47059%);fill-opacity:1;" d="M 17.5 52.5 C 17.5 53.984375 17.5 55.46875 17.5 57 C 15.25 57 15.25 57 14.5 56.53125 C 13.90625 55.898438 13.765625 55.65625 13.671875 54.796875 C 13.765625 53.816406 14.074219 53.449219 14.75 52.75 C 15.25 52.5 15.25 52.5 17.5 52.5 Z M 17.5 52.5 "/>
<path style=" stroke:none;fill-rule:nonzero;fill:rgb(97.647059%,60.392159%,26.666668%);fill-opacity:1;" d="M 54.25 26.75 C 54.25 28.234375 54.25 29.71875 54.25 31.25 C 52 31.25 52 31.25 51.25 30.78125 C 50.65625 30.148438 50.515625 29.90625 50.421875 29.046875 C 50.515625 28.066406 50.824219 27.699219 51.5 27 C 52 26.75 52 26.75 54.25 26.75 Z M 54.25 26.75 "/>
<path style=" stroke:none;fill-rule:nonzero;fill:rgb(3.137255%,35.686275%,71.372551%);fill-opacity:1;" d="M 32 26.75 C 34.25 26.75 34.25 26.75 35 27.21875 C 35.59375 27.851562 35.734375 28.09375 35.828125 28.953125 C 35.734375 29.933594 35.425781 30.300781 34.75 31 C 34.25 31.25 34.25 31.25 32 31.25 C 32 29.765625 32 28.28125 32 26.75 Z M 32 26.75 "/>
<path style=" stroke:none;fill-rule:nonzero;fill:rgb(85.09804%,39.607844%,16.470589%);fill-opacity:1;" d="M 9.75 26.75 C 12 26.75 12 26.75 12.75 27.21875 C 13.34375 27.851562 13.484375 28.09375 13.578125 28.953125 C 13.484375 29.9375 13.191406 30.308594 12.5 31 C 11.75 31.25 11.75 31.25 9.75 31.25 C 9.75 29.765625 9.75 28.28125 9.75 26.75 Z M 9.75 26.75 "/>
<path style=" stroke:none;fill-rule:nonzero;fill:rgb(72.941178%,6.27451%,21.176471%);fill-opacity:1;" d="M 46.5 52.5 C 48.839844 52.5 48.839844 52.5 49.75 53.25 C 50.273438 53.914062 50.25 54.265625 50.234375 55.125 C 50 56 50 56 49.5 56.609375 C 48.75 57 48.75 57 46.5 57 C 46.5 55.515625 46.5 54.03125 46.5 52.5 Z M 46.5 52.5 "/>
<path style=" stroke:none;fill-rule:nonzero;fill:rgb(98.823529%,38.039216%,34.117648%);fill-opacity:1;" d="M 24.25 6 C 24.902344 6.652344 24.824219 7.128906 24.828125 8.015625 C 24.828125 8.210938 24.828125 8.40625 24.828125 8.609375 C 24.832031 8.800781 24.835938 8.996094 24.839844 9.199219 C 24.84375 10.632812 24.84375 10.632812 24.410156 11.191406 C 24 11.5 24 11.5 23.359375 11.453125 C 22.75 11.25 22.75 11.25 22.25 10.75 C 22.191406 10.078125 22.171875 9.4375 22.171875 8.765625 C 22.167969 8.582031 22.164062 8.398438 22.160156 8.210938 C 22.15625 6.882812 22.15625 6.882812 22.589844 6.253906 C 23.171875 5.894531 23.578125 5.914062 24.25 6 Z M 24.25 6 "/>
<path style=" stroke:none;fill-rule:nonzero;fill:rgb(28.235295%,70.19608%,98.823529%);fill-opacity:1;" d="M 13.734375 48.421875 C 14.386719 48.441406 14.691406 48.46875 15.265625 48.796875 C 15.5 49.25 15.5 49.25 15.453125 49.890625 C 15.25 50.5 15.25 50.5 14.75 51 C 12.992188 51.140625 12.992188 51.140625 12.234375 50.703125 C 12 50.25 12 50.25 12.046875 49.609375 C 12.394531 48.570312 12.628906 48.507812 13.734375 48.421875 Z M 13.734375 48.421875 "/>
<path style=" stroke:none;fill-rule:nonzero;fill:rgb(20%,18.039216%,18.039216%);fill-opacity:1;" d="M 37.75 53 C 38.246094 53 38.738281 53 39.25 53 C 39.25 54.15625 39.25 55.308594 39.25 56.5 C 38.753906 56.5 38.261719 56.5 37.75 56.5 C 37.75 55.34375 37.75 54.191406 37.75 53 Z M 37.75 53 "/>
<path style=" stroke:none;fill-rule:nonzero;fill:rgb(17.254902%,19.607843%,21.176471%);fill-opacity:1;" d="M 24.75 53 C 25.246094 53 25.738281 53 26.25 53 C 26.25 54.15625 26.25 55.308594 26.25 56.5 C 25.753906 56.5 25.261719 56.5 24.75 56.5 C 24.75 55.34375 24.75 54.191406 24.75 53 Z M 24.75 53 "/>
<path style=" stroke:none;fill-rule:nonzero;fill:rgb(24.313726%,21.960784%,18.82353%);fill-opacity:1;" d="M 45.75 27.5 C 46.246094 27.5 46.738281 27.5 47.25 27.5 C 47.25 28.65625 47.25 29.808594 47.25 31 C 46.753906 31 46.261719 31 45.75 31 C 45.75 29.84375 45.75 28.691406 45.75 27.5 Z M 45.75 27.5 "/>
<path style=" stroke:none;fill-rule:nonzero;fill:rgb(18.039216%,18.039216%,18.039216%);fill-opacity:1;" d="M 39.25 27.5 C 39.746094 27.5 40.238281 27.5 40.75 27.5 C 40.75 28.65625 40.75 29.808594 40.75 31 C 40.253906 31 39.761719 31 39.25 31 C 39.25 29.84375 39.25 28.691406 39.25 27.5 Z M 39.25 27.5 "/>
<path style=" stroke:none;fill-rule:nonzero;fill:rgb(18.039216%,18.039216%,18.039216%);fill-opacity:1;" d="M 23.25 27.5 C 23.746094 27.5 24.238281 27.5 24.75 27.5 C 24.75 28.65625 24.75 29.808594 24.75 31 C 24.253906 31 23.761719 31 23.25 31 C 23.25 29.84375 23.25 28.691406 23.25 27.5 Z M 23.25 27.5 "/>
<path style=" stroke:none;fill-rule:nonzero;fill:rgb(17.647059%,17.647059%,17.647059%);fill-opacity:1;" d="M 46 46 C 47.238281 46 48.476562 46 49.75 46 C 49.667969 46.414062 49.585938 46.824219 49.5 47.25 C 48.179688 47.25 46.859375 47.25 45.5 47.25 C 45.664062 46.835938 45.828125 46.425781 46 46 Z M 46 46 "/>
<path style=" stroke:none;fill-rule:nonzero;fill:rgb(17.647059%,17.647059%,17.647059%);fill-opacity:1;" d="M 14.5 46 C 15.820312 46 17.140625 46 18.5 46 C 18.582031 46.414062 18.664062 46.824219 18.75 47.25 C 17.511719 47.25 16.273438 47.25 15 47.25 C 14.835938 46.835938 14.671875 46.425781 14.5 46 Z M 14.5 46 "/>
<path style=" stroke:none;fill-rule:nonzero;fill:rgb(17.647059%,17.647059%,17.647059%);fill-opacity:1;" d="M 50.25 36.5 C 51.570312 36.5 52.890625 36.5 54.25 36.5 C 54.085938 36.914062 53.921875 37.324219 53.75 37.75 C 52.511719 37.75 51.273438 37.75 50 37.75 C 50.082031 37.335938 50.164062 36.925781 50.25 36.5 Z M 50.25 36.5 "/>
<path style=" stroke:none;fill-rule:nonzero;fill:rgb(18.039216%,18.039216%,18.039216%);fill-opacity:1;" d="M 14.75 36.5 C 14.75 36.828125 14.75 37.160156 14.75 37.5 C 13.960938 37.734375 13.257812 37.777344 12.4375 37.765625 C 12.214844 37.761719 11.992188 37.761719 11.761719 37.761719 C 11.59375 37.753906 11.425781 37.753906 11.25 37.75 C 11.085938 37.335938 10.921875 36.925781 10.75 36.5 C 11.183594 36.449219 11.613281 36.40625 12.046875 36.359375 C 12.289062 36.332031 12.527344 36.308594 12.777344 36.28125 C 13.484375 36.25 14.0625 36.328125 14.75 36.5 Z M 14.75 36.5 "/>
<path style=" stroke:none;fill-rule:nonzero;fill:rgb(17.647059%,17.647059%,17.647059%);fill-opacity:1;" d="M 17 27.5 C 17.414062 27.5 17.824219 27.5 18.25 27.5 C 18.25 28.65625 18.25 29.808594 18.25 31 C 17.835938 31 17.425781 31 17 31 C 17 29.84375 17 28.691406 17 27.5 Z M 17 27.5 "/>
<path style=" stroke:none;fill-rule:nonzero;fill:rgb(17.647059%,17.647059%,17.647059%);fill-opacity:1;" d="M 30.25 20.25 C 31.40625 20.25 32.558594 20.25 33.75 20.25 C 33.75 20.664062 33.75 21.074219 33.75 21.5 C 32.59375 21.5 31.441406 21.5 30.25 21.5 C 30.25 21.085938 30.25 20.675781 30.25 20.25 Z M 30.25 20.25 "/>
<path style=" stroke:none;fill-rule:nonzero;fill:rgb(17.647059%,17.647059%,17.647059%);fill-opacity:1;" d="M 30.25 16.75 C 31.40625 16.75 32.558594 16.75 33.75 16.75 C 33.75 17.164062 33.75 17.574219 33.75 18 C 32.59375 18 31.441406 18 30.25 18 C 30.25 17.585938 30.25 17.175781 30.25 16.75 Z M 30.25 16.75 "/>
</g>
</svg>
