<?xml version="1.0" encoding="UTF-8"?>
<svg xmlns="http://www.w3.org/2000/svg" xmlns:xlink="http://www.w3.org/1999/xlink" width="64" height="64" viewBox="0 0 64 64" version="1.1">
<g id="surface1">
<path style=" stroke:none;fill-rule:nonzero;fill:rgb(43.921569%,74.509805%,89.411765%);fill-opacity:1;" d="M 30.09375 15.117188 C 30.402344 15.113281 30.707031 15.113281 31.027344 15.113281 C 31.507812 15.121094 31.507812 15.121094 32 15.125 C 32.320312 15.121094 32.640625 15.117188 32.972656 15.113281 C 33.28125 15.113281 33.589844 15.113281 33.90625 15.117188 C 34.328125 15.121094 34.328125 15.121094 34.757812 15.121094 C 35.65625 15.277344 35.957031 15.53125 36.5 16.25 C 36.539062 16.941406 36.539062 16.941406 36.484375 17.703125 C 36.480469 18.503906 36.480469 18.503906 36.75 19.25 C 37.746094 20.046875 38.832031 20.507812 40 21 C 40.25 21.164062 40.496094 21.328125 40.75 21.5 C 40.910156 21.40625 41.070312 21.308594 41.234375 21.210938 C 41.558594 21.027344 41.558594 21.027344 41.890625 20.84375 C 42.101562 20.722656 42.3125 20.601562 42.53125 20.476562 C 43.558594 20.152344 44.03125 20.285156 45 20.75 C 45.550781 21.398438 45.933594 22.109375 46.328125 22.859375 C 46.542969 23.246094 46.753906 23.628906 46.964844 24.015625 C 47.101562 24.273438 47.101562 24.273438 47.242188 24.53125 C 47.472656 24.953125 47.734375 25.351562 48 25.75 C 48.195312 27.496094 48.195312 27.496094 47.453125 28.453125 C 46.75 29 46.75 29 46.09375 29.273438 C 45.417969 29.816406 45.394531 29.929688 45.296875 30.753906 C 45.285156 31.15625 45.277344 31.554688 45.28125 31.953125 C 45.28125 32.15625 45.28125 32.363281 45.28125 32.570312 C 45.324219 33.550781 45.367188 34.085938 45.996094 34.863281 C 46.570312 35.226562 47.128906 35.488281 47.75 35.75 C 48.160156 36.574219 48.144531 37.363281 48 38.25 C 47.625 39.171875 47.132812 39.996094 46.609375 40.84375 C 46.480469 41.070312 46.355469 41.292969 46.222656 41.527344 C 45.59375 42.5625 45.207031 43.144531 44.109375 43.691406 C 43.109375 43.757812 42.742188 43.589844 41.90625 43.0625 C 41.214844 42.683594 41.214844 42.683594 40.5 42.5 C 39.785156 42.753906 39.332031 43.09375 38.753906 43.585938 C 38.25 44 38.25 44 37.375 44.28125 C 36.679688 44.691406 36.679688 44.691406 36.640625 45.425781 C 36.609375 45.957031 36.597656 46.488281 36.597656 47.023438 C 36.472656 47.953125 36.234375 48.179688 35.5 48.75 C 34.757812 48.878906 34.757812 48.878906 33.90625 48.882812 C 33.597656 48.882812 33.292969 48.882812 32.972656 48.886719 C 32.652344 48.882812 32.332031 48.878906 32 48.875 C 31.519531 48.878906 31.519531 48.878906 31.027344 48.886719 C 30.71875 48.882812 30.410156 48.882812 30.09375 48.882812 C 29.671875 48.882812 29.671875 48.882812 29.242188 48.878906 C 28.34375 48.722656 28.042969 48.46875 27.5 47.75 C 27.460938 47.058594 27.460938 47.058594 27.515625 46.296875 C 27.519531 45.496094 27.519531 45.496094 27.25 44.75 C 26.253906 43.953125 25.167969 43.492188 24 43 C 23.628906 42.753906 23.628906 42.753906 23.25 42.5 C 23.089844 42.597656 22.929688 42.691406 22.765625 42.792969 C 22.546875 42.914062 22.332031 43.03125 22.109375 43.15625 C 21.898438 43.277344 21.6875 43.398438 21.46875 43.523438 C 20.441406 43.847656 19.96875 43.714844 19 43.25 C 18.449219 42.601562 18.066406 41.890625 17.671875 41.140625 C 17.457031 40.753906 17.246094 40.371094 17.035156 39.984375 C 16.945312 39.816406 16.851562 39.644531 16.757812 39.46875 C 16.527344 39.050781 16.265625 38.648438 16 38.25 C 15.804688 36.503906 15.804688 36.503906 16.546875 35.546875 C 17.25 35 17.25 35 17.90625 34.730469 C 18.582031 34.183594 18.605469 34.070312 18.703125 33.246094 C 18.714844 32.847656 18.722656 32.445312 18.71875 32.046875 C 18.71875 31.84375 18.71875 31.636719 18.71875 31.425781 C 18.675781 30.445312 18.632812 29.914062 18.003906 29.136719 C 17.429688 28.773438 16.871094 28.511719 16.25 28.25 C 15.839844 27.425781 15.855469 26.636719 16 25.75 C 16.375 24.828125 16.867188 24.003906 17.390625 23.15625 C 17.582031 22.816406 17.582031 22.816406 17.777344 22.476562 C 18.40625 21.4375 18.792969 20.855469 19.890625 20.308594 C 20.890625 20.238281 21.257812 20.410156 22.09375 20.9375 C 22.785156 21.320312 22.785156 21.320312 23.5 21.5 C 24.214844 21.246094 24.667969 20.90625 25.246094 20.417969 C 25.75 20 25.75 20 26.625 19.71875 C 27.320312 19.308594 27.320312 19.308594 27.359375 18.570312 C 27.390625 18.042969 27.402344 17.507812 27.402344 16.976562 C 27.617188 15.390625 28.644531 15.121094 30.09375 15.117188 Z M 30.09375 15.117188 "/>
<path style=" stroke:none;fill-rule:nonzero;fill:rgb(92.941177%,74.509805%,12.54902%);fill-opacity:1;" d="M 50.589844 0.375 C 50.859375 0.371094 51.125 0.371094 51.402344 0.367188 C 51.832031 0.371094 51.832031 0.371094 52.273438 0.378906 C 52.71875 0.375 52.71875 0.375 53.171875 0.375 C 53.796875 0.375 54.425781 0.378906 55.050781 0.382812 C 56.011719 0.390625 56.972656 0.390625 57.933594 0.382812 C 58.542969 0.386719 59.152344 0.390625 59.757812 0.390625 C 60.046875 0.390625 60.335938 0.390625 60.632812 0.390625 C 60.898438 0.390625 61.164062 0.394531 61.441406 0.398438 C 61.792969 0.402344 61.792969 0.402344 62.152344 0.402344 C 62.859375 0.515625 63.074219 0.679688 63.5 1.25 C 63.742188 1.972656 63.785156 2.441406 63.789062 3.191406 C 63.792969 3.433594 63.796875 3.671875 63.796875 3.917969 C 63.796875 4.179688 63.800781 4.441406 63.800781 4.710938 C 63.804688 4.976562 63.804688 5.246094 63.804688 5.519531 C 63.808594 6.085938 63.808594 6.65625 63.8125 7.222656 C 63.8125 8.089844 63.820312 8.953125 63.828125 9.820312 C 63.832031 10.371094 63.832031 10.925781 63.832031 11.472656 C 63.835938 11.734375 63.839844 11.992188 63.839844 12.257812 C 63.832031 14.527344 63.832031 14.527344 63 15.5 C 62.375 15.8125 61.945312 15.785156 61.242188 15.792969 C 60.980469 15.796875 60.71875 15.800781 60.449219 15.804688 C 60.164062 15.804688 59.882812 15.808594 59.589844 15.808594 C 59.296875 15.8125 59.007812 15.816406 58.707031 15.816406 C 58.089844 15.820312 57.472656 15.820312 56.855469 15.824219 C 55.910156 15.828125 54.96875 15.839844 54.023438 15.847656 C 53.425781 15.851562 52.824219 15.855469 52.226562 15.855469 C 51.945312 15.859375 51.664062 15.863281 51.371094 15.871094 C 51.105469 15.871094 50.84375 15.867188 50.570312 15.867188 C 50.339844 15.871094 50.109375 15.871094 49.871094 15.871094 C 49.039062 15.710938 48.75 15.425781 48.25 14.75 C 48.125 14.132812 48.125 14.132812 48.121094 13.4375 C 48.117188 13.175781 48.113281 12.910156 48.109375 12.640625 C 48.113281 12.359375 48.117188 12.078125 48.117188 11.789062 C 48.117188 11.5 48.117188 11.210938 48.113281 10.910156 C 48.113281 10.292969 48.117188 9.683594 48.117188 9.070312 C 48.125 8.128906 48.121094 7.191406 48.113281 6.25 C 48.113281 5.652344 48.117188 5.058594 48.117188 4.460938 C 48.117188 4.179688 48.113281 3.898438 48.109375 3.605469 C 48.113281 3.347656 48.117188 3.085938 48.121094 2.816406 C 48.121094 2.585938 48.125 2.355469 48.125 2.117188 C 48.410156 0.734375 49.277344 0.375 50.589844 0.375 Z M 50.589844 0.375 "/>
<path style=" stroke:none;fill-rule:nonzero;fill:rgb(97.647059%,36.078432%,23.529412%);fill-opacity:1;" d="M 52.640625 48.132812 C 52.824219 48.128906 53.007812 48.128906 53.199219 48.128906 C 53.589844 48.125 53.980469 48.121094 54.367188 48.125 C 54.964844 48.125 55.558594 48.117188 56.15625 48.101562 C 56.535156 48.101562 56.917969 48.101562 57.292969 48.101562 C 57.5625 48.09375 57.5625 48.09375 57.832031 48.089844 C 58.785156 48.101562 59.207031 48.214844 59.957031 48.816406 C 60.410156 49.386719 60.796875 49.914062 61.144531 50.554688 C 61.300781 50.84375 61.300781 50.84375 61.460938 51.136719 C 61.621094 51.433594 61.621094 51.433594 61.78125 51.734375 C 61.890625 51.929688 61.996094 52.128906 62.105469 52.332031 C 62.3125 52.710938 62.519531 53.09375 62.722656 53.480469 C 62.960938 53.925781 63.210938 54.363281 63.464844 54.796875 C 63.820312 55.675781 63.71875 56.085938 63.5 57 C 63.160156 57.710938 63.160156 57.710938 62.730469 58.441406 C 62.574219 58.707031 62.417969 58.96875 62.257812 59.242188 C 62.097656 59.511719 61.933594 59.78125 61.765625 60.0625 C 61.605469 60.335938 61.441406 60.613281 61.277344 60.894531 C 60.078125 62.921875 60.078125 62.921875 59.5 63.5 C 58.847656 63.554688 58.222656 63.582031 57.570312 63.582031 C 57.382812 63.585938 57.191406 63.585938 56.992188 63.585938 C 56.589844 63.589844 56.183594 63.59375 55.777344 63.59375 C 55.160156 63.59375 54.542969 63.601562 53.921875 63.613281 C 53.53125 63.613281 53.136719 63.617188 52.742188 63.617188 C 52.464844 63.621094 52.464844 63.621094 52.183594 63.625 C 51.355469 63.617188 50.855469 63.574219 50.175781 63.074219 C 49.375 61.996094 48.726562 60.839844 48.0625 59.671875 C 47.910156 59.417969 47.761719 59.164062 47.605469 58.898438 C 47.464844 58.648438 47.320312 58.398438 47.175781 58.144531 C 47.046875 57.917969 46.917969 57.691406 46.785156 57.460938 C 46.328125 56.308594 46.332031 55.402344 46.808594 54.261719 C 46.953125 54.023438 47.09375 53.789062 47.238281 53.542969 C 47.394531 53.28125 47.546875 53.019531 47.707031 52.75 C 47.871094 52.484375 48.035156 52.210938 48.203125 51.9375 C 48.363281 51.664062 48.523438 51.394531 48.691406 51.113281 C 50.46875 48.132812 50.46875 48.132812 52.640625 48.132812 Z M 52.640625 48.132812 "/>
<path style=" stroke:none;fill-rule:nonzero;fill:rgb(92.156863%,92.156863%,92.156863%);fill-opacity:1;" d="M 36.25 25.25 C 37.964844 26.390625 39.109375 28.050781 39.75 30 C 39.976562 32.308594 39.757812 34.15625 38.75 36.25 C 38.625 36.691406 38.625 36.691406 38.5 37.140625 C 38.417969 37.34375 38.335938 37.542969 38.25 37.75 C 37.71875 37.96875 37.71875 37.96875 37.25 38 C 37.167969 38.328125 37.085938 38.660156 37 39 C 34.300781 39.765625 31.253906 40.460938 28.609375 39.203125 C 28.234375 38.980469 27.863281 38.746094 27.5 38.5 C 27.355469 38.40625 27.207031 38.308594 27.058594 38.210938 C 25.574219 37.109375 24.738281 35.496094 24.25 33.75 C 23.949219 31.179688 24.242188 29.132812 25.75 27 C 28.398438 23.933594 32.707031 23.171875 36.25 25.25 Z M 36.25 25.25 "/>
<path style=" stroke:none;fill-rule:nonzero;fill:rgb(92.54902%,74.117649%,12.54902%);fill-opacity:1;" d="M 11.777344 48.910156 C 12.390625 49.351562 12.484375 49.804688 12.75 50.5 C 13.507812 50.84375 13.507812 50.84375 14.25 51 C 14.246094 51.191406 14.238281 51.382812 14.234375 51.578125 C 14.21875 52.277344 14.21875 52.277344 14.5 53 C 15.003906 53.183594 15.003906 53.183594 15.5 53.25 C 16.101562 55.277344 15.964844 57.515625 15.082031 59.429688 C 13.898438 61.464844 12.28125 62.855469 10 63.5 C 7.335938 63.792969 5.238281 63.585938 3 62 C 1.496094 60.71875 0.457031 58.71875 0.25 56.75 C 0.0859375 54.632812 0.683594 52.664062 2 51 C 4.648438 48.074219 8.136719 47.445312 11.777344 48.910156 Z M 11.777344 48.910156 "/>
<path style=" stroke:none;fill-rule:nonzero;fill:rgb(97.647059%,36.078432%,23.921569%);fill-opacity:1;" d="M 8.75 0.359375 C 9.6875 0.535156 10.050781 0.855469 10.75 1.5 C 11.21875 2.1875 11.21875 2.1875 11.660156 2.980469 C 11.78125 3.195312 11.78125 3.195312 11.902344 3.410156 C 12.164062 3.871094 12.417969 4.335938 12.671875 4.796875 C 12.9375 5.273438 13.203125 5.75 13.472656 6.226562 C 13.648438 6.542969 13.824219 6.855469 14 7.175781 C 14.503906 8.078125 15.023438 8.96875 15.566406 9.847656 C 15.683594 10.035156 15.800781 10.226562 15.921875 10.425781 C 16.132812 10.765625 16.347656 11.105469 16.566406 11.4375 C 17.210938 12.496094 17.453125 13.265625 17.25 14.5 C 16.835938 15.140625 16.648438 15.394531 16 15.75 C 14.933594 15.933594 13.878906 15.90625 12.796875 15.890625 C 12.328125 15.890625 12.328125 15.890625 11.851562 15.886719 C 11.191406 15.882812 10.53125 15.882812 9.871094 15.871094 C 9.027344 15.859375 8.183594 15.855469 7.34375 15.855469 C 6.535156 15.855469 5.726562 15.847656 4.921875 15.84375 C 4.617188 15.84375 4.316406 15.839844 4.003906 15.839844 C 3.722656 15.835938 3.441406 15.832031 3.152344 15.828125 C 2.78125 15.820312 2.78125 15.820312 2.402344 15.820312 C 1.726562 15.746094 1.316406 15.621094 0.75 15.25 C 0.171875 14.253906 0.234375 13.597656 0.5 12.5 C 0.824219 11.871094 1.160156 11.285156 1.53125 10.6875 C 1.757812 10.3125 1.984375 9.941406 2.207031 9.570312 C 2.332031 9.363281 2.457031 9.15625 2.585938 8.945312 C 3.054688 8.160156 3.503906 7.367188 3.953125 6.570312 C 4.121094 6.277344 4.289062 5.984375 4.453125 5.691406 C 4.78125 5.113281 5.109375 4.535156 5.433594 3.957031 C 5.585938 3.6875 5.738281 3.417969 5.894531 3.144531 C 6.097656 2.785156 6.097656 2.785156 6.300781 2.421875 C 6.960938 1.429688 7.546875 0.585938 8.75 0.359375 Z M 8.75 0.359375 "/>
<path style=" stroke:none;fill-rule:nonzero;fill:rgb(0.392157%,0.784314%,1.176471%);fill-opacity:1;" d="M 30.09375 15.117188 C 30.402344 15.113281 30.707031 15.113281 31.027344 15.113281 C 31.507812 15.121094 31.507812 15.121094 32 15.125 C 32.320312 15.121094 32.640625 15.117188 32.972656 15.113281 C 33.28125 15.113281 33.589844 15.113281 33.90625 15.117188 C 34.328125 15.121094 34.328125 15.121094 34.757812 15.121094 C 35.65625 15.277344 35.957031 15.53125 36.5 16.25 C 36.539062 16.941406 36.539062 16.941406 36.484375 17.703125 C 36.480469 18.503906 36.480469 18.503906 36.75 19.25 C 37.746094 20.046875 38.832031 20.507812 40 21 C 40.25 21.164062 40.496094 21.328125 40.75 21.5 C 40.910156 21.40625 41.070312 21.308594 41.234375 21.210938 C 41.558594 21.027344 41.558594 21.027344 41.890625 20.84375 C 42.101562 20.722656 42.3125 20.601562 42.53125 20.476562 C 43.558594 20.152344 44.03125 20.285156 45 20.75 C 45.550781 21.398438 45.933594 22.109375 46.328125 22.859375 C 46.542969 23.246094 46.753906 23.628906 46.964844 24.015625 C 47.101562 24.273438 47.101562 24.273438 47.242188 24.53125 C 47.472656 24.953125 47.734375 25.351562 48 25.75 C 48.195312 27.496094 48.195312 27.496094 47.453125 28.453125 C 46.75 29 46.75 29 46.09375 29.273438 C 45.417969 29.816406 45.394531 29.929688 45.296875 30.753906 C 45.285156 31.15625 45.277344 31.554688 45.28125 31.953125 C 45.28125 32.15625 45.28125 32.363281 45.28125 32.570312 C 45.324219 33.550781 45.367188 34.085938 45.996094 34.863281 C 46.570312 35.226562 47.128906 35.488281 47.75 35.75 C 48.160156 36.574219 48.144531 37.363281 48 38.25 C 47.625 39.171875 47.132812 39.996094 46.609375 40.84375 C 46.480469 41.070312 46.355469 41.292969 46.222656 41.527344 C 45.59375 42.5625 45.207031 43.144531 44.109375 43.691406 C 43.109375 43.757812 42.742188 43.589844 41.90625 43.0625 C 41.214844 42.683594 41.214844 42.683594 40.5 42.5 C 39.785156 42.753906 39.332031 43.09375 38.753906 43.585938 C 38.25 44 38.25 44 37.375 44.28125 C 36.679688 44.691406 36.679688 44.691406 36.640625 45.425781 C 36.609375 45.957031 36.597656 46.488281 36.597656 47.023438 C 36.472656 47.953125 36.234375 48.179688 35.5 48.75 C 34.757812 48.878906 34.757812 48.878906 33.90625 48.882812 C 33.597656 48.882812 33.292969 48.882812 32.972656 48.886719 C 32.652344 48.882812 32.332031 48.878906 32 48.875 C 31.519531 48.878906 31.519531 48.878906 31.027344 48.886719 C 30.71875 48.882812 30.410156 48.882812 30.09375 48.882812 C 29.671875 48.882812 29.671875 48.882812 29.242188 48.878906 C 28.34375 48.722656 28.042969 48.46875 27.5 47.75 C 27.460938 47.058594 27.460938 47.058594 27.515625 46.296875 C 27.519531 45.496094 27.519531 45.496094 27.25 44.75 C 26.253906 43.953125 25.167969 43.492188 24 43 C 23.628906 42.753906 23.628906 42.753906 23.25 42.5 C 23.089844 42.597656 22.929688 42.691406 22.765625 42.792969 C 22.546875 42.914062 22.332031 43.03125 22.109375 43.15625 C 21.898438 43.277344 21.6875 43.398438 21.46875 43.523438 C 20.441406 43.847656 19.96875 43.714844 19 43.25 C 18.449219 42.601562 18.066406 41.890625 17.671875 41.140625 C 17.457031 40.753906 17.246094 40.371094 17.035156 39.984375 C 16.945312 39.816406 16.851562 39.644531 16.757812 39.46875 C 16.527344 39.050781 16.265625 38.648438 16 38.25 C 15.804688 36.503906 15.804688 36.503906 16.546875 35.546875 C 17.25 35 17.25 35 17.90625 34.730469 C 18.582031 34.183594 18.605469 34.070312 18.703125 33.246094 C 18.714844 32.847656 18.722656 32.445312 18.71875 32.046875 C 18.71875 31.84375 18.71875 31.636719 18.71875 31.425781 C 18.675781 30.445312 18.632812 29.914062 18.003906 29.136719 C 17.429688 28.773438 16.871094 28.511719 16.25 28.25 C 15.839844 27.425781 15.855469 26.636719 16 25.75 C 16.375 24.828125 16.867188 24.003906 17.390625 23.15625 C 17.582031 22.816406 17.582031 22.816406 17.777344 22.476562 C 18.40625 21.4375 18.792969 20.855469 19.890625 20.308594 C 20.890625 20.238281 21.257812 20.410156 22.09375 20.9375 C 22.785156 21.320312 22.785156 21.320312 23.5 21.5 C 24.214844 21.246094 24.667969 20.90625 25.246094 20.417969 C 25.75 20 25.75 20 26.625 19.71875 C 27.320312 19.308594 27.320312 19.308594 27.359375 18.570312 C 27.390625 18.042969 27.402344 17.507812 27.402344 16.976562 C 27.617188 15.390625 28.644531 15.121094 30.09375 15.117188 Z M 28.75 16.75 C 28.765625 16.988281 28.777344 17.230469 28.792969 17.480469 C 28.832031 18.496094 28.804688 19.273438 28.5 20.25 C 27.660156 20.90625 26.867188 21.269531 25.878906 21.640625 C 25.015625 21.996094 24.457031 22.40625 23.75 23 C 22.882812 23 22.160156 22.414062 21.445312 21.960938 C 20.929688 21.679688 20.929688 21.679688 20 21.75 C 19.605469 22.175781 19.605469 22.175781 19.292969 22.753906 C 19.171875 22.964844 19.046875 23.175781 18.921875 23.390625 C 18.734375 23.722656 18.734375 23.722656 18.546875 24.0625 C 18.355469 24.390625 18.355469 24.390625 18.15625 24.726562 C 17.480469 25.808594 17.480469 25.808594 17.265625 27.03125 C 17.605469 27.710938 18.0625 27.820312 18.746094 28.128906 C 19.535156 28.574219 19.921875 28.796875 20.25 29.65625 C 20.347656 30.445312 20.359375 31.1875 20.328125 31.984375 C 20.324219 32.253906 20.320312 32.523438 20.316406 32.804688 C 20.242188 34.058594 20.171875 34.78125 19.378906 35.78125 C 18.671875 36.21875 18.046875 36.523438 17.25 36.75 C 17.375 38.082031 18.085938 39.085938 18.765625 40.203125 C 18.882812 40.398438 19 40.597656 19.125 40.800781 C 19.414062 41.285156 19.707031 41.765625 20 42.25 C 20.832031 42.113281 21.425781 41.941406 22.125 41.46875 C 23 41 23 41 23.65625 41 C 24.25 41.25 24.25 41.25 24.8125 41.730469 C 25.546875 42.285156 26.203125 42.527344 27.0625 42.84375 C 27.859375 43.21875 27.859375 43.21875 28.5 43.75 C 28.828125 44.933594 28.792969 46.03125 28.75 47.25 C 29.179688 47.679688 29.742188 47.53125 30.328125 47.53125 C 30.597656 47.535156 30.867188 47.535156 31.144531 47.535156 C 31.425781 47.53125 31.707031 47.53125 32 47.53125 C 32.285156 47.53125 32.566406 47.53125 32.855469 47.535156 C 33.125 47.535156 33.394531 47.535156 33.671875 47.53125 C 33.921875 47.53125 34.167969 47.53125 34.421875 47.53125 C 34.992188 47.566406 34.992188 47.566406 35.25 47.25 C 35.234375 47.007812 35.222656 46.769531 35.207031 46.523438 C 35.167969 45.503906 35.195312 44.726562 35.5 43.75 C 36.339844 43.09375 37.132812 42.730469 38.121094 42.355469 C 38.984375 42.007812 39.542969 41.59375 40.25 41 C 41.117188 41 41.839844 41.585938 42.554688 42.039062 C 43.070312 42.320312 43.070312 42.320312 44 42.25 C 44.394531 41.828125 44.394531 41.828125 44.707031 41.246094 C 44.828125 41.039062 44.953125 40.828125 45.078125 40.609375 C 45.203125 40.386719 45.328125 40.167969 45.453125 39.9375 C 45.582031 39.71875 45.710938 39.503906 45.84375 39.277344 C 46.519531 38.191406 46.519531 38.191406 46.734375 36.96875 C 46.394531 36.292969 45.9375 36.179688 45.253906 35.875 C 44.464844 35.425781 44.078125 35.203125 43.75 34.34375 C 43.652344 33.554688 43.640625 32.8125 43.671875 32.015625 C 43.679688 31.609375 43.679688 31.609375 43.683594 31.195312 C 43.757812 29.941406 43.828125 29.21875 44.621094 28.21875 C 45.328125 27.78125 45.953125 27.476562 46.75 27.25 C 46.625 25.917969 45.914062 24.914062 45.234375 23.796875 C 45.054688 23.503906 45.054688 23.503906 44.875 23.199219 C 44.585938 22.714844 44.292969 22.230469 44 21.75 C 43.167969 21.882812 42.574219 22.058594 41.875 22.53125 C 41 23 41 23 40.34375 23 C 39.613281 22.691406 39.113281 22.25 38.5 21.75 C 37.679688 21.296875 36.847656 20.855469 35.949219 20.582031 C 35.5 20.25 35.5 20.25 35.355469 19.445312 C 35.339844 18.96875 35.339844 18.96875 35.328125 18.484375 C 35.390625 17.414062 35.390625 17.414062 35 16.5 C 34.558594 16.476562 34.113281 16.46875 33.671875 16.46875 C 33.402344 16.46875 33.132812 16.46875 32.855469 16.464844 C 32.574219 16.46875 32.292969 16.46875 32 16.46875 C 31.714844 16.46875 31.433594 16.46875 31.144531 16.464844 C 30.875 16.46875 30.605469 16.46875 30.328125 16.46875 C 30.078125 16.46875 29.832031 16.46875 29.578125 16.46875 C 29.007812 16.433594 29.007812 16.433594 28.75 16.75 Z M 28.75 16.75 "/>
<path style=" stroke:none;fill-rule:nonzero;fill:rgb(1.568628%,1.568628%,1.568628%);fill-opacity:1;" d="M 8.375 18.757812 C 9.167969 19.066406 9.460938 19.429688 9.96875 20.109375 C 10.140625 20.332031 10.308594 20.558594 10.480469 20.792969 C 10.65625 21.027344 10.824219 21.257812 11 21.5 C 11.171875 21.722656 11.34375 21.941406 11.515625 22.167969 C 11.675781 22.382812 11.835938 22.59375 12 22.8125 C 12.21875 23.101562 12.21875 23.101562 12.4375 23.394531 C 12.824219 24.144531 12.824219 24.667969 12.75 25.5 C 12.5 25.96875 12.5 25.96875 12 26.25 C 11.332031 26.289062 10.667969 26.261719 10 26.25 C 10 26.472656 10.003906 26.691406 10.003906 26.917969 C 10.019531 28.992188 10.03125 31.066406 10.039062 33.140625 C 10.042969 34.207031 10.046875 35.273438 10.058594 36.339844 C 10.0625 37.371094 10.070312 38.398438 10.070312 39.429688 C 10.070312 39.820312 10.074219 40.214844 10.078125 40.605469 C 10.085938 41.15625 10.085938 41.707031 10.085938 42.257812 C 10.085938 42.570312 10.089844 42.882812 10.089844 43.207031 C 9.992188 44.0625 9.859375 44.402344 9.25 45 C 8.347656 45.292969 7.929688 45.332031 7.0625 44.9375 C 6.5 44.5 6.5 44.5 6 43.75 C 5.9375 42.996094 5.9375 42.996094 5.945312 42.058594 C 5.941406 41.890625 5.941406 41.714844 5.941406 41.542969 C 5.945312 40.976562 5.945312 40.414062 5.953125 39.847656 C 5.953125 39.457031 5.953125 39.066406 5.953125 38.671875 C 5.953125 37.644531 5.960938 36.617188 5.964844 35.585938 C 5.972656 34.535156 5.972656 33.484375 5.972656 32.433594 C 5.980469 30.375 5.988281 28.3125 6 26.25 C 5.726562 26.261719 5.453125 26.269531 5.171875 26.28125 C 4.25 26.25 4.25 26.25 3.5 25.75 C 3.265625 25.203125 3.265625 25.203125 3.25 24.5 C 3.890625 23.261719 4.648438 22.160156 5.5 21.0625 C 5.605469 20.921875 5.710938 20.78125 5.820312 20.636719 C 7.28125 18.742188 7.28125 18.742188 8.375 18.757812 Z M 8.375 18.757812 "/>
<path style=" stroke:none;fill-rule:nonzero;fill:rgb(0.784314%,0.784314%,0.784314%);fill-opacity:1;" d="M 40 3.5 C 40.773438 3.902344 41.457031 4.40625 42.15625 4.921875 C 42.34375 5.054688 42.53125 5.1875 42.726562 5.324219 C 44.640625 6.707031 44.640625 6.707031 45.25 7.75 C 45.261719 8.59375 45.101562 8.890625 44.515625 9.496094 C 44.308594 9.652344 44.101562 9.808594 43.890625 9.96875 C 43.664062 10.136719 43.441406 10.308594 43.207031 10.484375 C 42.976562 10.652344 42.738281 10.824219 42.5 11 C 42.171875 11.253906 42.171875 11.253906 41.828125 11.515625 C 41.617188 11.675781 41.40625 11.835938 41.1875 12 C 40.898438 12.21875 40.898438 12.21875 40.605469 12.4375 C 39.855469 12.824219 39.335938 12.824219 38.5 12.75 C 38.03125 12.5 38.03125 12.5 37.75 12 C 37.710938 11.332031 37.738281 10.671875 37.75 10 C 37.414062 10.003906 37.414062 10.003906 37.074219 10.003906 C 34.964844 10.019531 32.855469 10.03125 30.746094 10.039062 C 29.664062 10.042969 28.578125 10.046875 27.496094 10.058594 C 26.453125 10.066406 25.40625 10.070312 24.359375 10.070312 C 23.960938 10.074219 23.5625 10.074219 23.164062 10.078125 C 22.605469 10.085938 22.046875 10.085938 21.488281 10.085938 C 21.171875 10.085938 20.851562 10.085938 20.523438 10.089844 C 19.75 10 19.75 10 19.28125 9.664062 C 18.847656 9.023438 18.78125 8.515625 18.75 7.75 C 19.050781 7.058594 19.289062 6.640625 19.921875 6.21875 C 20.703125 5.925781 21.363281 5.941406 22.199219 5.941406 C 22.363281 5.941406 22.535156 5.941406 22.707031 5.941406 C 23.261719 5.941406 23.816406 5.949219 24.371094 5.949219 C 24.757812 5.953125 25.140625 5.953125 25.527344 5.953125 C 26.539062 5.953125 27.550781 5.960938 28.566406 5.964844 C 29.601562 5.96875 30.632812 5.972656 31.667969 5.976562 C 33.695312 5.980469 35.722656 5.988281 37.75 6 C 37.746094 5.71875 37.738281 5.441406 37.734375 5.15625 C 37.75 4.25 37.75 4.25 38.03125 3.765625 C 38.753906 3.359375 39.171875 3.398438 40 3.5 Z M 40 3.5 "/>
<path style=" stroke:none;fill-rule:nonzero;fill:rgb(0.784314%,0.784314%,0.784314%);fill-opacity:1;" d="M 25.5 51.25 C 25.96875 51.5 25.96875 51.5 26.25 52 C 26.289062 52.667969 26.261719 53.328125 26.25 54 C 26.585938 53.996094 26.585938 53.996094 26.925781 53.996094 C 29.035156 53.980469 31.144531 53.96875 33.253906 53.960938 C 34.335938 53.957031 35.421875 53.953125 36.503906 53.941406 C 37.546875 53.933594 38.59375 53.929688 39.640625 53.929688 C 40.039062 53.925781 40.4375 53.925781 40.835938 53.921875 C 41.394531 53.914062 41.953125 53.914062 42.511719 53.914062 C 42.828125 53.914062 43.148438 53.914062 43.476562 53.910156 C 44.25 54 44.25 54 44.71875 54.335938 C 45.152344 54.976562 45.21875 55.484375 45.25 56.25 C 44.949219 56.941406 44.710938 57.359375 44.078125 57.78125 C 43.296875 58.074219 42.636719 58.058594 41.800781 58.058594 C 41.550781 58.058594 41.550781 58.058594 41.292969 58.058594 C 40.738281 58.058594 40.183594 58.050781 39.628906 58.050781 C 39.242188 58.046875 38.859375 58.046875 38.472656 58.046875 C 37.460938 58.046875 36.449219 58.039062 35.433594 58.035156 C 34.398438 58.03125 33.367188 58.027344 32.332031 58.023438 C 30.304688 58.019531 28.277344 58.011719 26.25 58 C 26.253906 58.28125 26.261719 58.558594 26.265625 58.84375 C 26.25 59.75 26.25 59.75 25.96875 60.234375 C 25.246094 60.640625 24.828125 60.601562 24 60.5 C 23.226562 60.097656 22.542969 59.59375 21.84375 59.078125 C 21.5625 58.878906 21.5625 58.878906 21.273438 58.675781 C 19.359375 57.292969 19.359375 57.292969 18.75 56.25 C 18.738281 55.40625 18.898438 55.109375 19.484375 54.503906 C 19.691406 54.347656 19.898438 54.191406 20.109375 54.03125 C 20.335938 53.863281 20.558594 53.691406 20.792969 53.515625 C 21.023438 53.347656 21.261719 53.175781 21.5 53 C 21.828125 52.746094 21.828125 52.746094 22.171875 52.484375 C 22.382812 52.324219 22.59375 52.164062 22.8125 52 C 23.101562 51.78125 23.101562 51.78125 23.394531 51.5625 C 24.144531 51.175781 24.664062 51.175781 25.5 51.25 Z M 25.5 51.25 "/>
<path style=" stroke:none;fill-rule:nonzero;fill:rgb(1.176471%,1.176471%,1.176471%);fill-opacity:1;" d="M 57 19 C 57.636719 19.550781 57.960938 19.992188 58.085938 20.835938 C 58.117188 21.535156 58.113281 22.222656 58.09375 22.921875 C 58.09375 23.164062 58.09375 23.402344 58.09375 23.648438 C 58.070312 25.429688 58.070312 25.429688 57.5 26 C 57.339844 26.515625 57.339844 26.515625 57.25 27 C 57.621094 27.125 57.621094 27.125 58 27.25 C 57.824219 28.039062 57.558594 28.757812 57.25 29.5 C 57.621094 29.625 57.621094 29.625 58 29.75 C 58 32.390625 58 35.03125 58 37.75 C 58.578125 37.75 59.15625 37.75 59.75 37.75 C 60.5 38.25 60.5 38.25 60.734375 38.796875 C 60.765625 40.324219 59.40625 41.765625 58.5 42.9375 C 58.339844 43.148438 58.339844 43.148438 58.175781 43.363281 C 57.046875 44.835938 57.046875 44.835938 56.25 45.25 C 55.421875 45.238281 55.101562 45.097656 54.503906 44.515625 C 54.347656 44.308594 54.191406 44.101562 54.03125 43.890625 C 53.863281 43.664062 53.691406 43.441406 53.515625 43.207031 C 53.347656 42.976562 53.175781 42.738281 53 42.5 C 52.828125 42.28125 52.65625 42.058594 52.484375 41.828125 C 52.324219 41.617188 52.164062 41.40625 52 41.1875 C 51.855469 40.996094 51.710938 40.800781 51.5625 40.605469 C 51.175781 39.855469 51.175781 39.335938 51.25 38.5 C 51.5 38.03125 51.5 38.03125 52 37.75 C 52.667969 37.710938 53.328125 37.738281 54 37.75 C 53.996094 37.421875 53.996094 37.421875 53.996094 37.082031 C 53.980469 35.007812 53.96875 32.933594 53.960938 30.859375 C 53.957031 29.792969 53.953125 28.726562 53.941406 27.660156 C 53.933594 26.628906 53.929688 25.601562 53.929688 24.570312 C 53.925781 24.175781 53.925781 23.785156 53.921875 23.390625 C 53.914062 22.84375 53.914062 22.292969 53.914062 21.742188 C 53.914062 21.273438 53.914062 21.273438 53.910156 20.796875 C 54.007812 19.941406 54.140625 19.59375 54.75 19 C 55.652344 18.699219 56.089844 18.738281 57 19 Z M 57 19 "/>
<path style=" stroke:none;fill-rule:nonzero;fill:rgb(0.392157%,0.392157%,0%);fill-opacity:1;" d="M 50.589844 0.375 C 50.859375 0.371094 51.125 0.371094 51.402344 0.367188 C 51.832031 0.371094 51.832031 0.371094 52.273438 0.378906 C 52.71875 0.375 52.71875 0.375 53.171875 0.375 C 53.796875 0.375 54.425781 0.378906 55.050781 0.382812 C 56.011719 0.390625 56.972656 0.390625 57.933594 0.382812 C 58.542969 0.386719 59.152344 0.390625 59.757812 0.390625 C 60.046875 0.390625 60.335938 0.390625 60.632812 0.390625 C 60.898438 0.390625 61.164062 0.394531 61.441406 0.398438 C 61.792969 0.402344 61.792969 0.402344 62.152344 0.402344 C 62.859375 0.515625 63.074219 0.679688 63.5 1.25 C 63.742188 1.972656 63.785156 2.441406 63.789062 3.191406 C 63.792969 3.433594 63.796875 3.671875 63.796875 3.917969 C 63.796875 4.179688 63.800781 4.441406 63.800781 4.710938 C 63.804688 4.976562 63.804688 5.246094 63.804688 5.519531 C 63.808594 6.085938 63.808594 6.65625 63.8125 7.222656 C 63.8125 8.089844 63.820312 8.953125 63.828125 9.820312 C 63.832031 10.371094 63.832031 10.925781 63.832031 11.472656 C 63.835938 11.734375 63.839844 11.992188 63.839844 12.257812 C 63.832031 14.527344 63.832031 14.527344 63 15.5 C 62.375 15.8125 61.945312 15.785156 61.242188 15.792969 C 60.980469 15.796875 60.71875 15.800781 60.449219 15.804688 C 60.164062 15.804688 59.882812 15.808594 59.589844 15.808594 C 59.296875 15.8125 59.007812 15.816406 58.707031 15.816406 C 58.089844 15.820312 57.472656 15.820312 56.855469 15.824219 C 55.910156 15.828125 54.96875 15.839844 54.023438 15.847656 C 53.425781 15.851562 52.824219 15.855469 52.226562 15.855469 C 51.945312 15.859375 51.664062 15.863281 51.371094 15.871094 C 51.105469 15.871094 50.84375 15.867188 50.570312 15.867188 C 50.339844 15.871094 50.109375 15.871094 49.871094 15.871094 C 49.039062 15.710938 48.75 15.425781 48.25 14.75 C 48.125 14.132812 48.125 14.132812 48.121094 13.4375 C 48.117188 13.175781 48.113281 12.910156 48.109375 12.640625 C 48.113281 12.359375 48.117188 12.078125 48.117188 11.789062 C 48.117188 11.5 48.117188 11.210938 48.113281 10.910156 C 48.113281 10.292969 48.117188 9.683594 48.117188 9.070312 C 48.125 8.128906 48.121094 7.191406 48.113281 6.25 C 48.113281 5.652344 48.117188 5.058594 48.117188 4.460938 C 48.117188 4.179688 48.113281 3.898438 48.109375 3.605469 C 48.113281 3.347656 48.117188 3.085938 48.121094 2.816406 C 48.121094 2.585938 48.125 2.355469 48.125 2.117188 C 48.410156 0.734375 49.277344 0.375 50.589844 0.375 Z M 49.5 2 C 49.476562 2.375 49.46875 2.746094 49.46875 3.121094 C 49.464844 3.359375 49.464844 3.597656 49.464844 3.84375 C 49.464844 4.105469 49.464844 4.363281 49.464844 4.632812 C 49.464844 4.898438 49.464844 5.160156 49.464844 5.433594 C 49.464844 5.996094 49.464844 6.558594 49.46875 7.121094 C 49.46875 7.980469 49.46875 8.84375 49.464844 9.703125 C 49.464844 10.246094 49.464844 10.792969 49.464844 11.335938 C 49.464844 11.59375 49.464844 11.851562 49.464844 12.121094 C 49.464844 12.359375 49.464844 12.597656 49.46875 12.84375 C 49.46875 13.058594 49.46875 13.265625 49.46875 13.488281 C 49.46875 14.015625 49.46875 14.015625 49.75 14.5 C 51.492188 14.507812 53.230469 14.507812 54.972656 14.515625 C 55.5625 14.515625 56.15625 14.515625 56.75 14.519531 C 57.597656 14.523438 58.445312 14.523438 59.296875 14.523438 C 59.5625 14.523438 59.828125 14.527344 60.101562 14.53125 C 60.347656 14.53125 60.59375 14.53125 60.847656 14.53125 C 61.0625 14.53125 61.28125 14.53125 61.507812 14.53125 C 62 14.554688 62 14.554688 62.25 14.25 C 62.273438 13.867188 62.28125 13.484375 62.285156 13.101562 C 62.285156 12.734375 62.285156 12.734375 62.285156 12.359375 C 62.285156 12.09375 62.285156 11.828125 62.285156 11.554688 C 62.285156 11.285156 62.285156 11.011719 62.285156 10.734375 C 62.285156 10.160156 62.285156 9.585938 62.285156 9.011719 C 62.28125 8.128906 62.285156 7.246094 62.285156 6.363281 C 62.285156 5.808594 62.285156 5.253906 62.285156 4.695312 C 62.285156 4.429688 62.285156 4.164062 62.285156 3.890625 C 62.285156 3.644531 62.285156 3.398438 62.285156 3.148438 C 62.285156 2.933594 62.28125 2.71875 62.28125 2.496094 C 62.304688 2 62.304688 2 62 1.75 C 61.617188 1.722656 61.234375 1.71875 60.851562 1.71875 C 60.605469 1.71875 60.363281 1.71875 60.109375 1.714844 C 59.84375 1.714844 59.578125 1.71875 59.304688 1.71875 C 59.035156 1.71875 58.761719 1.71875 58.484375 1.71875 C 57.910156 1.71875 57.335938 1.71875 56.761719 1.71875 C 55.878906 1.71875 54.996094 1.71875 54.113281 1.714844 C 53.558594 1.71875 53 1.71875 52.445312 1.71875 C 52.179688 1.71875 51.914062 1.714844 51.636719 1.714844 C 51.273438 1.71875 51.273438 1.71875 50.898438 1.71875 C 50.574219 1.71875 50.574219 1.71875 50.242188 1.71875 C 49.75 1.695312 49.75 1.695312 49.5 2 Z M 49.5 2 "/>
<path style=" stroke:none;fill-rule:nonzero;fill:rgb(3.137255%,1.176471%,0.392157%);fill-opacity:1;" d="M 8.75 0.359375 C 9.6875 0.535156 10.050781 0.855469 10.75 1.5 C 11.21875 2.1875 11.21875 2.1875 11.660156 2.980469 C 11.78125 3.195312 11.78125 3.195312 11.902344 3.410156 C 12.164062 3.871094 12.417969 4.335938 12.671875 4.796875 C 12.9375 5.273438 13.203125 5.75 13.472656 6.226562 C 13.648438 6.542969 13.824219 6.855469 14 7.175781 C 14.503906 8.078125 15.023438 8.96875 15.566406 9.847656 C 15.683594 10.035156 15.800781 10.226562 15.921875 10.425781 C 16.132812 10.765625 16.347656 11.105469 16.566406 11.4375 C 17.210938 12.496094 17.453125 13.265625 17.25 14.5 C 16.835938 15.140625 16.648438 15.394531 16 15.75 C 14.933594 15.933594 13.878906 15.90625 12.796875 15.890625 C 12.328125 15.890625 12.328125 15.890625 11.851562 15.886719 C 11.191406 15.882812 10.53125 15.882812 9.871094 15.871094 C 9.027344 15.859375 8.183594 15.855469 7.34375 15.855469 C 6.535156 15.855469 5.726562 15.847656 4.921875 15.84375 C 4.617188 15.84375 4.316406 15.839844 4.003906 15.839844 C 3.722656 15.835938 3.441406 15.832031 3.152344 15.828125 C 2.78125 15.820312 2.78125 15.820312 2.402344 15.820312 C 1.726562 15.746094 1.316406 15.621094 0.75 15.25 C 0.171875 14.253906 0.234375 13.597656 0.5 12.5 C 0.824219 11.871094 1.160156 11.285156 1.53125 10.6875 C 1.757812 10.3125 1.984375 9.941406 2.207031 9.570312 C 2.332031 9.363281 2.457031 9.15625 2.585938 8.945312 C 3.054688 8.160156 3.503906 7.367188 3.953125 6.570312 C 4.121094 6.277344 4.289062 5.984375 4.453125 5.691406 C 4.78125 5.113281 5.109375 4.535156 5.433594 3.957031 C 5.585938 3.6875 5.738281 3.417969 5.894531 3.144531 C 6.097656 2.785156 6.097656 2.785156 6.300781 2.421875 C 6.960938 1.429688 7.546875 0.585938 8.75 0.359375 Z M 8.25 2 C 8.140625 2.1875 8.035156 2.378906 7.921875 2.574219 C 7.511719 3.300781 7.09375 4.023438 6.683594 4.75 C 6.40625 5.230469 6.132812 5.71875 5.859375 6.199219 C 5.058594 7.601562 4.257812 9 3.421875 10.375 C 3.300781 10.570312 3.183594 10.765625 3.0625 10.964844 C 2.851562 11.3125 2.632812 11.660156 2.414062 12.007812 C 2.09375 12.511719 2.09375 12.511719 1.75 13.25 C 1.832031 13.578125 1.914062 13.910156 2 14.25 C 6.539062 14.25 11.074219 14.25 15.75 14.25 C 16.085938 13.519531 16.085938 13.519531 15.746094 12.910156 C 15.613281 12.675781 15.484375 12.445312 15.347656 12.210938 C 15.199219 11.953125 15.054688 11.691406 14.90625 11.425781 C 14.746094 11.152344 14.585938 10.875 14.421875 10.59375 C 14.261719 10.3125 14.101562 10.035156 13.9375 9.746094 C 13.460938 8.910156 12.984375 8.082031 12.5 7.25 C 12.367188 7.023438 12.234375 6.792969 12.101562 6.558594 C 10.839844 4.15625 10.839844 4.15625 9.25 2 C 8.921875 2 8.589844 2 8.25 2 Z M 8.25 2 "/>
<path style=" stroke:none;fill-rule:nonzero;fill:rgb(1.176471%,0.392157%,0%);fill-opacity:1;" d="M 52.640625 48.132812 C 52.824219 48.128906 53.007812 48.128906 53.199219 48.128906 C 53.589844 48.125 53.980469 48.121094 54.367188 48.125 C 54.964844 48.125 55.558594 48.117188 56.15625 48.101562 C 56.535156 48.101562 56.917969 48.101562 57.292969 48.101562 C 57.5625 48.09375 57.5625 48.09375 57.832031 48.089844 C 58.785156 48.101562 59.207031 48.214844 59.957031 48.816406 C 60.410156 49.386719 60.796875 49.914062 61.144531 50.554688 C 61.300781 50.84375 61.300781 50.84375 61.460938 51.136719 C 61.621094 51.433594 61.621094 51.433594 61.78125 51.734375 C 61.890625 51.929688 61.996094 52.128906 62.105469 52.332031 C 62.3125 52.710938 62.519531 53.09375 62.722656 53.480469 C 62.960938 53.925781 63.210938 54.363281 63.464844 54.796875 C 63.820312 55.675781 63.71875 56.085938 63.5 57 C 63.160156 57.710938 63.160156 57.710938 62.730469 58.441406 C 62.574219 58.707031 62.417969 58.96875 62.257812 59.242188 C 62.097656 59.511719 61.933594 59.78125 61.765625 60.0625 C 61.605469 60.335938 61.441406 60.613281 61.277344 60.894531 C 60.078125 62.921875 60.078125 62.921875 59.5 63.5 C 58.847656 63.554688 58.222656 63.582031 57.570312 63.582031 C 57.382812 63.585938 57.191406 63.585938 56.992188 63.585938 C 56.589844 63.589844 56.183594 63.59375 55.777344 63.59375 C 55.160156 63.59375 54.542969 63.601562 53.921875 63.613281 C 53.53125 63.613281 53.136719 63.617188 52.742188 63.617188 C 52.464844 63.621094 52.464844 63.621094 52.183594 63.625 C 51.355469 63.617188 50.855469 63.574219 50.175781 63.074219 C 49.375 61.996094 48.726562 60.839844 48.0625 59.671875 C 47.910156 59.417969 47.761719 59.164062 47.605469 58.898438 C 47.464844 58.648438 47.320312 58.398438 47.175781 58.144531 C 47.046875 57.917969 46.917969 57.691406 46.785156 57.460938 C 46.328125 56.308594 46.332031 55.402344 46.808594 54.261719 C 46.953125 54.023438 47.09375 53.789062 47.238281 53.542969 C 47.394531 53.28125 47.546875 53.019531 47.707031 52.75 C 47.871094 52.484375 48.035156 52.210938 48.203125 51.9375 C 48.363281 51.664062 48.523438 51.394531 48.691406 51.113281 C 50.46875 48.132812 50.46875 48.132812 52.640625 48.132812 Z M 50.597656 50.511719 C 50.390625 50.921875 50.1875 51.332031 50 51.75 C 49.789062 52.085938 49.574219 52.421875 49.355469 52.753906 C 49.15625 53.070312 48.960938 53.386719 48.765625 53.703125 C 48.664062 53.863281 48.5625 54.023438 48.453125 54.1875 C 47.898438 55.023438 47.898438 55.023438 47.816406 55.988281 C 48.015625 56.539062 48.257812 57.023438 48.542969 57.539062 C 48.652344 57.734375 48.761719 57.925781 48.875 58.125 C 48.988281 58.328125 49.101562 58.527344 49.21875 58.734375 C 49.332031 58.933594 49.441406 59.132812 49.558594 59.339844 C 49.867188 59.894531 50.179688 60.449219 50.5 61 C 50.65625 61.332031 50.65625 61.332031 50.8125 61.671875 C 51.210938 62.316406 51.210938 62.316406 51.972656 62.480469 C 52.929688 62.574219 53.882812 62.648438 54.84375 62.671875 C 55.015625 62.679688 55.183594 62.683594 55.359375 62.6875 C 56.839844 62.707031 58.214844 62.671875 59.417969 61.726562 C 60.792969 60.054688 62.0625 57.691406 62.25 55.5 C 61.992188 54.808594 61.992188 54.808594 61.570312 54.128906 C 61.355469 53.746094 61.355469 53.746094 61.128906 53.359375 C 60.972656 53.09375 60.816406 52.832031 60.65625 52.5625 C 60.5 52.296875 60.347656 52.03125 60.1875 51.753906 C 59.5625 50.558594 59.5625 50.558594 58.75 49.5 C 57.742188 49.402344 56.730469 49.378906 55.714844 49.359375 C 55.375 49.347656 55.035156 49.335938 54.695312 49.316406 C 52.320312 49.128906 52.320312 49.128906 50.597656 50.511719 Z M 50.597656 50.511719 "/>
<path style=" stroke:none;fill-rule:nonzero;fill:rgb(2.745098%,3.529412%,4.313726%);fill-opacity:1;" d="M 37.578125 24.632812 C 39.289062 26.003906 40.425781 27.894531 41 30 C 41.265625 32.628906 41.003906 34.640625 39.75 37 C 39.335938 36.917969 38.925781 36.835938 38.5 36.75 C 38.832031 35.75 39.167969 34.75 39.5 33.75 C 39.703125 31.378906 39.605469 29.523438 38.25 27.5 C 38.101562 27.265625 37.953125 27.035156 37.796875 26.796875 C 36.15625 25.15625 34.246094 24.433594 31.9375 24.390625 C 30.160156 24.414062 28.96875 24.761719 27.5 25.75 C 27.230469 25.917969 26.964844 26.089844 26.6875 26.265625 C 25.363281 27.488281 24.613281 29.179688 24.371094 30.941406 C 24.304688 33.328125 24.734375 35.078125 26.03125 37.0625 C 28.105469 39.042969 29.996094 39.550781 32.792969 39.523438 C 33.878906 39.496094 34.925781 39.398438 36 39.25 C 36 39.578125 36 39.910156 36 40.25 C 33.933594 41.28125 31.5 41.335938 29.265625 40.835938 C 26.355469 39.78125 24.695312 37.769531 23.28125 35.125 C 22.519531 32.792969 22.644531 30.050781 23.734375 27.859375 C 24.953125 25.71875 26.65625 24.09375 29 23.25 C 32.046875 22.488281 34.964844 22.890625 37.578125 24.632812 Z M 37.578125 24.632812 "/>
<path style=" stroke:none;fill-rule:nonzero;fill:rgb(1.176471%,0.784314%,0%);fill-opacity:1;" d="M 11.800781 48.957031 C 12.25 49.25 12.25 49.25 12.5 50 C 12.335938 50.164062 12.167969 50.332031 12 50.5 C 11.273438 50.417969 10.632812 50.210938 9.9375 49.984375 C 7.953125 49.488281 6.605469 49.648438 4.808594 50.644531 C 3.417969 51.53125 2.484375 52.679688 2 54.25 C 1.738281 56.183594 1.953125 57.839844 3 59.5 C 4.085938 60.78125 5.425781 61.886719 7.140625 62.066406 C 9.269531 62.140625 10.820312 61.753906 12.460938 60.355469 C 13.695312 59.054688 14.277344 57.472656 14.3125 55.6875 C 14.273438 54.78125 14.273438 54.78125 14.09375 54.03125 C 14.046875 53.769531 14.046875 53.769531 14 53.5 C 14.164062 53.335938 14.328125 53.171875 14.5 53 C 15.03125 53.09375 15.03125 53.09375 15.5 53.25 C 16.101562 55.277344 15.964844 57.511719 15.082031 59.429688 C 13.898438 61.464844 12.28125 62.855469 10 63.5 C 7.335938 63.796875 5.238281 63.585938 3 62 C 1.496094 60.71875 0.457031 58.71875 0.25 56.75 C 0.0859375 54.632812 0.683594 52.664062 2 51 C 4.652344 48.070312 8.175781 47.414062 11.800781 48.957031 Z M 11.800781 48.957031 "/>
<path style=" stroke:none;fill-rule:nonzero;fill:rgb(89.019608%,89.019608%,89.019608%);fill-opacity:1;" d="M 55.5 20.25 C 55.828125 20.332031 56.160156 20.414062 56.5 20.5 C 56.582031 22.148438 56.664062 23.800781 56.75 25.5 C 56.914062 25.582031 57.078125 25.664062 57.25 25.75 C 57.25 26.164062 57.25 26.574219 57.25 27 C 57.496094 27.082031 57.746094 27.164062 58 27.25 C 57.816406 28.210938 57.453125 29.296875 56.75 30 C 56.726562 30.648438 56.71875 31.289062 56.726562 31.9375 C 56.726562 32.230469 56.726562 32.230469 56.726562 32.523438 C 56.726562 33.148438 56.730469 33.769531 56.734375 34.390625 C 56.734375 34.808594 56.738281 35.234375 56.738281 35.652344 C 56.738281 36.683594 56.746094 37.71875 56.75 38.75 C 57.574219 38.832031 58.398438 38.914062 59.25 39 C 58.867188 40.148438 58.246094 41.003906 57.515625 41.953125 C 57.40625 42.101562 57.296875 42.253906 57.179688 42.40625 C 56.890625 42.785156 56.570312 43.144531 56.25 43.5 C 56.003906 43.5 55.753906 43.5 55.5 43.5 C 55.039062 42.949219 54.628906 42.40625 54.21875 41.8125 C 54.046875 41.574219 54.046875 41.574219 53.875 41.332031 C 53.296875 40.511719 53 40 52.75 39 C 53.574219 39 54.398438 39 55.25 39 C 55.25 38.769531 55.25 38.539062 55.246094 38.300781 C 55.242188 36.125 55.238281 33.949219 55.238281 31.777344 C 55.234375 30.65625 55.234375 29.539062 55.230469 28.421875 C 55.226562 27.34375 55.226562 26.265625 55.226562 25.191406 C 55.226562 24.777344 55.226562 24.363281 55.222656 23.953125 C 55.222656 23.378906 55.222656 22.800781 55.222656 22.226562 C 55.21875 21.898438 55.21875 21.570312 55.21875 21.234375 C 55.25 20.5 55.25 20.5 55.5 20.25 Z M 55.5 20.25 "/>
<path style=" stroke:none;fill-rule:nonzero;fill:rgb(89.803922%,89.803922%,89.803922%);fill-opacity:1;" d="M 39 4.75 C 40.011719 5.257812 40.890625 5.835938 41.8125 6.484375 C 42.054688 6.648438 42.054688 6.648438 42.304688 6.820312 C 42.71875 7.109375 43.109375 7.425781 43.5 7.75 C 43.5 8.5 43.5 8.5 43.140625 8.859375 C 42.976562 8.984375 42.8125 9.105469 42.640625 9.230469 C 42.464844 9.363281 42.285156 9.496094 42.101562 9.632812 C 41.914062 9.769531 41.726562 9.90625 41.53125 10.046875 C 41.34375 10.1875 41.15625 10.328125 40.964844 10.46875 C 39.570312 11.5 39.570312 11.5 39 11.5 C 38.917969 10.675781 38.835938 9.851562 38.75 9 C 32.726562 8.917969 26.703125 8.835938 20.5 8.75 C 20.417969 8.421875 20.335938 8.089844 20.25 7.75 C 20.726562 7.273438 21.574219 7.457031 22.203125 7.449219 C 22.46875 7.445312 22.46875 7.445312 22.742188 7.441406 C 23.335938 7.433594 23.925781 7.425781 24.515625 7.421875 C 24.925781 7.414062 25.335938 7.410156 25.742188 7.40625 C 26.820312 7.390625 27.898438 7.378906 28.976562 7.367188 C 30.078125 7.355469 31.175781 7.339844 32.273438 7.328125 C 34.433594 7.300781 36.59375 7.273438 38.75 7.25 C 38.832031 6.425781 38.914062 5.601562 39 4.75 Z M 39 4.75 "/>
<path style=" stroke:none;fill-rule:nonzero;fill:rgb(89.803922%,89.803922%,89.803922%);fill-opacity:1;" d="M 24.5 52.5 C 24.664062 52.5 24.828125 52.5 25 52.5 C 25.082031 53.324219 25.164062 54.148438 25.25 55 C 31.273438 55.082031 37.296875 55.164062 43.5 55.25 C 43.625 55.746094 43.625 55.746094 43.75 56.25 C 43.273438 56.726562 42.425781 56.542969 41.796875 56.550781 C 41.53125 56.554688 41.53125 56.554688 41.257812 56.558594 C 40.664062 56.566406 40.074219 56.574219 39.484375 56.578125 C 39.074219 56.585938 38.664062 56.589844 38.257812 56.59375 C 37.179688 56.609375 36.101562 56.621094 35.023438 56.632812 C 33.921875 56.644531 32.824219 56.660156 31.726562 56.671875 C 29.566406 56.699219 27.40625 56.726562 25.25 56.75 C 25.167969 57.574219 25.085938 58.398438 25 59.25 C 23.988281 58.742188 23.109375 58.164062 22.1875 57.515625 C 22.023438 57.40625 21.863281 57.296875 21.695312 57.179688 C 21.28125 56.890625 20.890625 56.574219 20.5 56.25 C 20.5 56.003906 20.5 55.753906 20.5 55.5 C 20.839844 55.167969 20.839844 55.167969 21.3125 54.835938 C 21.480469 54.710938 21.648438 54.59375 21.820312 54.46875 C 21.996094 54.34375 22.175781 54.21875 22.359375 54.09375 C 22.707031 53.84375 23.058594 53.597656 23.40625 53.351562 C 23.558594 53.238281 23.71875 53.132812 23.878906 53.019531 C 24.242188 52.769531 24.242188 52.769531 24.5 52.5 Z M 24.5 52.5 "/>
<path style=" stroke:none;fill-rule:nonzero;fill:rgb(89.411765%,89.411765%,89.411765%);fill-opacity:1;" d="M 8 20.25 C 9.28125 21.410156 10.335938 22.785156 11.25 24.25 C 11.25 24.496094 11.25 24.746094 11.25 25 C 10.425781 25 9.601562 25 8.75 25 C 8.75 31.105469 8.75 37.210938 8.75 43.5 C 8.253906 43.625 8.253906 43.625 7.75 43.75 C 7.273438 43.273438 7.457031 42.425781 7.449219 41.796875 C 7.445312 41.617188 7.441406 41.441406 7.441406 41.257812 C 7.433594 40.664062 7.425781 40.074219 7.421875 39.484375 C 7.414062 39.074219 7.410156 38.664062 7.40625 38.257812 C 7.390625 37.179688 7.378906 36.101562 7.367188 35.023438 C 7.355469 33.921875 7.339844 32.824219 7.328125 31.726562 C 7.300781 29.566406 7.273438 27.40625 7.25 25.25 C 6.425781 25.167969 5.601562 25.085938 4.75 25 C 5.132812 23.839844 5.765625 23.003906 6.515625 22.0625 C 6.628906 21.914062 6.746094 21.765625 6.863281 21.613281 C 7.691406 20.558594 7.691406 20.558594 8 20.25 Z M 8 20.25 "/>
<path style=" stroke:none;fill-rule:nonzero;fill:rgb(3.921569%,5.882353%,5.098039%);fill-opacity:1;" d="M 35.5 28.75 C 36.09375 29 36.09375 29 36.5 29.5 C 36.691406 30.523438 36.746094 31.109375 36.183594 31.996094 C 35.730469 32.523438 35.25 33.011719 34.75 33.5 C 34.558594 33.699219 34.363281 33.902344 34.167969 34.109375 C 32.371094 35.96875 32.371094 35.96875 31.5 36.25 C 29.855469 36.199219 29.09375 35.316406 28.007812 34.175781 C 27.515625 33.523438 27.316406 33.207031 27.28125 32.40625 C 27.5 31.5 27.5 31.5 27.890625 30.859375 C 28.761719 30.34375 29.285156 30.511719 30.25 30.75 C 30.585938 30.910156 30.921875 31.074219 31.25 31.25 C 31.484375 31.011719 31.484375 31.011719 31.726562 30.765625 C 31.929688 30.558594 32.132812 30.351562 32.34375 30.140625 C 32.546875 29.933594 32.75 29.730469 32.960938 29.515625 C 33.808594 28.707031 34.335938 28.65625 35.5 28.75 Z M 35.5 28.75 "/>
<path style=" stroke:none;fill-rule:nonzero;fill:rgb(65.882355%,65.882355%,65.882355%);fill-opacity:1;" d="M 35.710938 24.929688 C 36.910156 25.640625 38.019531 26.546875 38.75 27.75 C 38.75 27.914062 38.75 28.078125 38.75 28.25 C 38.070312 27.964844 37.65625 27.664062 37.109375 27.15625 C 35.371094 25.691406 33.234375 25.328125 31.019531 25.402344 C 28.640625 25.703125 26.773438 27.230469 25 28.75 C 25.71875 26.535156 27.269531 25.527344 29.25 24.5 C 31.269531 23.828125 33.800781 24.035156 35.710938 24.929688 Z M 35.710938 24.929688 "/>
<path style=" stroke:none;fill-rule:nonzero;fill:rgb(96.862745%,88.627452%,65.098041%);fill-opacity:1;" d="M 5.3125 52.0625 C 5.457031 52.125 5.601562 52.1875 5.75 52.25 C 5.636719 52.988281 5.445312 53.324219 4.984375 53.9375 C 4.40625 54.90625 4.289062 55.660156 4.5 56.75 C 4.726562 57.289062 4.984375 57.78125 5.28125 58.285156 C 5.5 58.75 5.5 58.75 5.5 59.75 C 4.9375 59.734375 4.9375 59.734375 4.25 59.5 C 3.066406 57.984375 2.835938 56.378906 3 54.5 C 3.386719 53.457031 4.015625 51.917969 5.3125 52.0625 Z M 5.3125 52.0625 "/>
<path style=" stroke:none;fill-rule:nonzero;fill:rgb(6.666667%,70.588237%,40.392157%);fill-opacity:1;" d="M 35.25 30 C 35.195312 31.414062 34.257812 32.15625 33.3125 33.09375 C 33.15625 33.257812 33.003906 33.421875 32.84375 33.589844 C 31.691406 34.746094 31.691406 34.746094 30.816406 34.773438 C 29.933594 34.347656 29.296875 33.816406 28.75 33 C 28.78125 32.28125 28.78125 32.28125 29 31.75 C 29.617188 32.039062 30.011719 32.261719 30.5 32.75 C 31.386719 32.726562 31.71875 32.527344 32.386719 31.925781 C 32.59375 31.699219 32.800781 31.46875 33.015625 31.234375 C 34.140625 30 34.140625 30 35.25 30 Z M 35.25 30 "/>
<path style=" stroke:none;fill-rule:nonzero;fill:rgb(99.607843%,76.47059%,72.549021%);fill-opacity:1;" d="M 52.25 50.75 C 52.496094 50.832031 52.746094 50.914062 53 51 C 52.839844 52.53125 52.175781 53.503906 51.351562 54.773438 C 50.949219 55.601562 50.972656 55.890625 51.25 56.75 C 51.332031 57.167969 51.417969 57.582031 51.5 58 C 51.171875 58.082031 50.839844 58.164062 50.5 58.25 C 50.28125 57.945312 50.070312 57.636719 49.859375 57.328125 C 49.738281 57.15625 49.621094 56.984375 49.5 56.808594 C 49.164062 56.058594 49.234375 55.777344 49.5 55 C 49.835938 54.335938 50.21875 53.710938 50.609375 53.078125 C 50.710938 52.910156 50.8125 52.738281 50.917969 52.566406 C 51.324219 51.902344 51.699219 51.300781 52.25 50.75 Z M 52.25 50.75 "/>
<path style=" stroke:none;fill-rule:nonzero;fill:rgb(96.862745%,88.627452%,64.313728%);fill-opacity:1;" d="M 51 3 C 51.496094 3.121094 51.496094 3.121094 52 3.25 C 52 5.394531 52 7.539062 52 9.75 C 51.671875 9.832031 51.339844 9.914062 51 10 C 50.558594 9.558594 50.71875 8.914062 50.71875 8.3125 C 50.71875 8.019531 50.714844 7.730469 50.714844 7.429688 C 50.71875 7.121094 50.71875 6.816406 50.71875 6.5 C 50.71875 6.191406 50.71875 5.886719 50.714844 5.570312 C 50.714844 5.28125 50.71875 4.988281 50.71875 4.6875 C 50.71875 4.417969 50.71875 4.148438 50.71875 3.871094 C 50.75 3.25 50.75 3.25 51 3 Z M 51 3 "/>
<path style=" stroke:none;fill-rule:nonzero;fill:rgb(99.607843%,76.862746%,73.333335%);fill-opacity:1;" d="M 8.25 4.5 C 8.664062 4.582031 9.074219 4.664062 9.5 4.75 C 9.128906 6.109375 8.476562 7.171875 7.71875 8.34375 C 7.601562 8.527344 7.484375 8.710938 7.363281 8.902344 C 7.078125 9.351562 6.789062 9.800781 6.5 10.25 C 6.171875 10.167969 5.839844 10.085938 5.5 10 C 5.625 8.671875 6.335938 7.664062 7.015625 6.546875 C 7.132812 6.351562 7.253906 6.152344 7.371094 5.949219 C 7.664062 5.464844 7.957031 4.984375 8.25 4.5 Z M 8.25 4.5 "/>
<path style=" stroke:none;fill-rule:nonzero;fill:rgb(96.862745%,88.235295%,63.921571%);fill-opacity:1;" d="M 7.765625 59.734375 C 8.128906 59.742188 8.128906 59.742188 8.5 59.75 C 8.640625 60.234375 8.640625 60.234375 8.75 60.75 C 8.5 61 8.5 61 7.734375 61.015625 C 7.492188 61.007812 7.25 61.003906 7 61 C 6.859375 60.515625 6.859375 60.515625 6.75 60 C 7 59.75 7 59.75 7.765625 59.734375 Z M 7.765625 59.734375 "/>
<path style=" stroke:none;fill-rule:nonzero;fill:rgb(96.862745%,87.843138%,62.352943%);fill-opacity:1;" d="M 51 11.25 C 51.515625 11.359375 51.515625 11.359375 52 11.5 C 52 11.996094 52 12.488281 52 13 C 51.515625 13.140625 51.515625 13.140625 51 13.25 C 50.75 13 50.75 13 50.71875 12.25 C 50.75 11.5 50.75 11.5 51 11.25 Z M 51 11.25 "/>
<path style=" stroke:none;fill-rule:nonzero;fill:rgb(99.607843%,76.47059%,72.941178%);fill-opacity:1;" d="M 4.5 11.25 C 5.03125 11.34375 5.03125 11.34375 5.5 11.5 C 5.417969 11.914062 5.335938 12.324219 5.25 12.75 C 4.835938 12.832031 4.425781 12.914062 4 13 C 3.96875 12.40625 3.96875 12.40625 4 11.75 C 4.164062 11.585938 4.328125 11.421875 4.5 11.25 Z M 4.5 11.25 "/>
<path style=" stroke:none;fill-rule:nonzero;fill:rgb(99.607843%,76.862746%,72.941178%);fill-opacity:1;" d="M 51.5 59.25 C 52.117188 59.375 52.117188 59.375 52.75 59.5 C 52.832031 59.914062 52.914062 60.324219 53 60.75 C 52.671875 60.832031 52.339844 60.914062 52 61 C 51.5 60.25 51.5 60.25 51.5 59.25 Z M 51.5 59.25 "/>
<path style=" stroke:none;fill-rule:nonzero;fill:rgb(5.882353%,5.098039%,0.392157%);fill-opacity:1;" d="M 13 50.75 C 13.621094 50.875 13.621094 50.875 14.25 51 C 14.25 51.328125 14.25 51.660156 14.25 52 C 13.765625 52.140625 13.765625 52.140625 13.25 52.25 C 13 52 13 52 12.984375 51.359375 C 12.988281 51.15625 12.996094 50.957031 13 50.75 Z M 13 50.75 "/>
<path style=" stroke:none;fill-rule:nonzero;fill:rgb(3.921569%,3.921569%,3.921569%);fill-opacity:1;" d="M 57 27 C 57.328125 27.082031 57.660156 27.164062 58 27.25 C 57.90625 27.734375 57.90625 27.734375 57.75 28.25 C 57.503906 28.375 57.503906 28.375 57.25 28.5 C 57.003906 28.335938 56.753906 28.171875 56.5 28 C 56.664062 27.671875 56.828125 27.339844 57 27 Z M 57 27 "/>
<path style=" stroke:none;fill-rule:nonzero;fill:rgb(3.529412%,4.313726%,5.098039%);fill-opacity:1;" d="M 37.25 37.75 C 37.496094 37.832031 37.746094 37.914062 38 38 C 38 38.328125 38 38.660156 38 39 C 37.671875 38.917969 37.339844 38.835938 37 38.75 C 37.082031 38.421875 37.164062 38.089844 37.25 37.75 Z M 37.25 37.75 "/>
</g>
</svg>
