<?xml version="1.0" encoding="UTF-8"?>
<svg xmlns="http://www.w3.org/2000/svg" xmlns:xlink="http://www.w3.org/1999/xlink" width="64" height="64" viewBox="0 0 64 64" version="1.1">
<g id="surface1">
<path style=" stroke:none;fill-rule:nonzero;fill:rgb(99.607843%,28.627452%,28.627452%);fill-opacity:1;" d="M 0 2 C 3.628906 2 7.261719 2 11 2 C 11.742188 4.675781 12.460938 7.285156 13 10 C 13.246094 9.921875 13.488281 9.835938 13.742188 9.753906 C 14.796875 9.453125 15.789062 9.425781 16.875 9.4375 C 17.144531 9.433594 17.144531 9.433594 17.421875 9.433594 C 18.621094 9.433594 19.613281 9.621094 20.75 10 C 20.839844 9.574219 20.839844 9.574219 20.933594 9.136719 C 21.015625 8.746094 21.101562 8.359375 21.1875 7.96875 C 21.226562 7.78125 21.265625 7.597656 21.308594 7.40625 C 21.707031 5.570312 22.230469 3.820312 22.75 2 C 26.378906 2 30.011719 2 33.75 2 C 33.75 3.238281 33.75 4.476562 33.75 5.75 C 31.191406 5.75 28.636719 5.75 26 5.75 C 25.625 7.410156 25.625 7.410156 25.261719 9.074219 C 25.113281 9.753906 24.953125 10.421875 24.777344 11.089844 C 24.457031 12.332031 24.457031 12.332031 24.734375 13.550781 C 24.949219 13.886719 25.179688 14.21875 25.421875 14.546875 C 26.011719 15.359375 26.230469 16.28125 26.273438 17.28125 C 26.335938 18.800781 26.8125 19.519531 27.789062 20.671875 C 30.464844 24.03125 30 27.738281 30 32 C 38.746094 32 47.488281 32 56.5 32 C 56.582031 33.816406 56.664062 35.628906 56.75 37.5 C 57.164062 37.085938 57.574219 36.675781 58 36.25 C 59.171875 35.46875 60.378906 35.601562 61.75 35.75 C 62.898438 36.292969 63.460938 36.863281 64 38 C 64.074219 38.722656 64.105469 39.390625 64.101562 40.113281 C 64.101562 40.429688 64.101562 40.429688 64.105469 40.75 C 64.109375 41.441406 64.109375 42.136719 64.109375 42.828125 C 64.109375 43.308594 64.109375 43.792969 64.113281 44.273438 C 64.113281 45.285156 64.113281 46.296875 64.113281 47.304688 C 64.109375 48.597656 64.113281 49.890625 64.121094 51.183594 C 64.125 52.179688 64.125 53.175781 64.125 54.171875 C 64.125 54.648438 64.125 55.125 64.128906 55.601562 C 64.132812 56.269531 64.128906 56.933594 64.125 57.601562 C 64.128906 57.800781 64.128906 57.996094 64.132812 58.199219 C 64.113281 59.488281 63.847656 60.21875 63 61.25 C 61.695312 62.265625 60.335938 62.191406 58.75 62 C 57.597656 61.453125 57.066406 60.878906 56.5 59.75 C 56.398438 59.011719 56.398438 59.011719 56.390625 58.183594 C 56.386719 57.875 56.382812 57.566406 56.378906 57.246094 C 56.375 56.910156 56.371094 56.574219 56.371094 56.238281 C 56.367188 55.890625 56.363281 55.546875 56.359375 55.199219 C 56.347656 54.292969 56.339844 53.386719 56.332031 52.480469 C 56.324219 51.550781 56.3125 50.625 56.300781 49.699219 C 56.28125 47.882812 56.265625 46.066406 56.25 44.25 C 56.136719 44.523438 56.019531 44.796875 55.902344 45.078125 C 54.925781 47.398438 53.257812 49.164062 51 50.25 C 49.496094 50.789062 48.113281 50.828125 46.523438 50.824219 C 46.265625 50.828125 46.003906 50.828125 45.738281 50.828125 C 45.191406 50.828125 44.648438 50.828125 44.101562 50.828125 C 43.269531 50.828125 42.4375 50.835938 41.605469 50.839844 C 41.074219 50.839844 40.539062 50.839844 40.011719 50.839844 C 39.761719 50.84375 39.515625 50.84375 39.261719 50.847656 C 36.511719 50.828125 34.300781 49.796875 32.3125 47.90625 C 31.289062 46.832031 30.574219 45.710938 30.25 44.25 C 30.246094 44.429688 30.246094 44.609375 30.242188 44.792969 C 30.230469 45.613281 30.207031 46.429688 30.1875 47.25 C 30.183594 47.53125 30.179688 47.8125 30.175781 48.101562 C 30.121094 50.066406 29.863281 51.5 28.5625 53.003906 C 28.425781 53.117188 28.285156 53.230469 28.140625 53.34375 C 27.933594 53.515625 27.933594 53.515625 27.71875 53.691406 C 26.746094 54.328125 25.882812 54.5625 24.730469 54.550781 C 24.378906 54.546875 24.378906 54.546875 24.023438 54.546875 C 23.664062 54.539062 23.664062 54.539062 23.296875 54.53125 C 23.050781 54.53125 22.808594 54.527344 22.554688 54.523438 C 21.953125 54.515625 21.351562 54.511719 20.75 54.5 C 20.757812 54.824219 20.765625 55.148438 20.777344 55.488281 C 20.78125 55.917969 20.789062 56.351562 20.796875 56.78125 C 20.800781 56.996094 20.808594 57.210938 20.816406 57.429688 C 20.828125 58.734375 20.734375 59.625 20 60.75 C 18.703125 61.917969 17.902344 62.085938 16.191406 62.074219 C 14.988281 61.949219 14.320312 61.363281 13.546875 60.484375 C 13.058594 59.691406 12.96875 59.046875 12.976562 58.136719 C 12.976562 57.925781 12.976562 57.714844 12.976562 57.496094 C 12.980469 57.164062 12.980469 57.164062 12.984375 56.828125 C 12.984375 56.605469 12.988281 56.382812 12.988281 56.152344 C 12.988281 55.601562 12.996094 55.050781 13 54.5 C 12.851562 54.503906 12.703125 54.511719 12.550781 54.515625 C 11.867188 54.539062 11.183594 54.550781 10.5 54.5625 C 10.265625 54.570312 10.03125 54.578125 9.792969 54.585938 C 7.953125 54.613281 6.648438 54.273438 5.246094 53.0625 C 5.132812 52.925781 5.019531 52.785156 4.90625 52.640625 C 4.789062 52.503906 4.675781 52.363281 4.558594 52.21875 C 3.683594 50.882812 3.675781 49.675781 3.683594 48.125 C 3.679688 47.886719 3.679688 47.648438 3.675781 47.40625 C 3.675781 46.621094 3.675781 45.835938 3.675781 45.050781 C 3.675781 44.503906 3.671875 43.957031 3.671875 43.410156 C 3.671875 42.261719 3.671875 41.113281 3.671875 39.96875 C 3.671875 38.503906 3.667969 37.039062 3.664062 35.574219 C 3.660156 34.441406 3.65625 33.308594 3.660156 32.179688 C 3.660156 31.640625 3.65625 31.101562 3.65625 30.558594 C 3.652344 29.800781 3.65625 29.046875 3.65625 28.285156 C 3.65625 28.066406 3.652344 27.84375 3.648438 27.617188 C 3.675781 24.800781 4.675781 21.796875 6.6875 19.765625 C 7.414062 18.773438 7.476562 17.925781 7.636719 16.726562 C 7.820312 15.558594 8.203125 14.617188 8.953125 13.6875 C 9.457031 12.519531 9.03125 11.453125 8.75 10.25 C 8.621094 9.667969 8.496094 9.085938 8.367188 8.503906 C 8.164062 7.585938 7.957031 6.667969 7.75 5.75 C 5.191406 5.75 2.636719 5.75 0 5.75 C 0 4.511719 0 3.273438 0 2 Z M 0 2 "/>
<path style=" stroke:none;fill-rule:nonzero;fill:rgb(99.607843%,82.745099%,0.392157%);fill-opacity:1;" d="M 0 2 C 3.628906 2 7.261719 2 11 2 C 11.742188 4.675781 12.460938 7.285156 13 10 C 13.246094 9.921875 13.488281 9.835938 13.742188 9.753906 C 14.796875 9.453125 15.789062 9.425781 16.875 9.4375 C 17.144531 9.433594 17.144531 9.433594 17.421875 9.433594 C 18.621094 9.433594 19.613281 9.621094 20.75 10 C 20.839844 9.574219 20.839844 9.574219 20.933594 9.136719 C 21.015625 8.746094 21.101562 8.359375 21.1875 7.96875 C 21.226562 7.78125 21.265625 7.597656 21.308594 7.40625 C 21.707031 5.570312 22.230469 3.820312 22.75 2 C 26.378906 2 30.011719 2 33.75 2 C 33.75 3.238281 33.75 4.476562 33.75 5.75 C 31.191406 5.75 28.636719 5.75 26 5.75 C 25.625 7.410156 25.625 7.410156 25.261719 9.074219 C 25.113281 9.753906 24.953125 10.421875 24.777344 11.089844 C 24.457031 12.332031 24.457031 12.332031 24.734375 13.550781 C 25.046875 14.058594 25.046875 14.058594 25.410156 14.488281 C 26.609375 16.296875 26.417969 18.675781 26.25 20.75 C 25.601562 23.363281 23.933594 25.460938 21.75 27 C 19.292969 28.226562 16.859375 28.730469 14.15625 28.03125 C 12.5 27.386719 11.230469 26.523438 10 25.25 C 9.777344 25.027344 9.558594 24.808594 9.328125 24.578125 C 7.496094 22.203125 7.214844 19.628906 7.5 16.75 C 7.691406 15.851562 8.003906 15.101562 8.539062 14.339844 C 9.164062 13.433594 9.316406 12.890625 9.125 11.796875 C 9.003906 11.28125 8.878906 10.765625 8.75 10.25 C 8.621094 9.671875 8.492188 9.085938 8.367188 8.507812 C 8.164062 7.585938 7.957031 6.667969 7.75 5.75 C 5.191406 5.75 2.636719 5.75 0 5.75 C 0 4.511719 0 3.273438 0 2 Z M 0 2 "/>
<path style=" stroke:none;fill-rule:nonzero;fill:rgb(99.215686%,41.960785%,41.960785%);fill-opacity:1;" d="M 7.25 19 C 7.332031 19 7.414062 19 7.5 19 C 7.585938 19.464844 7.585938 19.464844 7.671875 19.9375 C 8.289062 22.628906 9.253906 24.800781 11.5 26.5 C 13.234375 27.535156 14.71875 27.84375 16.75 28.25 C 16.75 30.726562 16.75 33.199219 16.75 35.75 C 16.089844 35.996094 15.429688 36.246094 14.75 36.5 C 13.808594 37.21875 13.558594 37.601562 13.386719 38.773438 C 13.328125 39.765625 13.320312 40.757812 13.324219 41.753906 C 13.320312 42.121094 13.316406 42.492188 13.3125 42.859375 C 13.300781 43.824219 13.300781 44.789062 13.296875 45.753906 C 13.296875 46.738281 13.289062 47.722656 13.277344 48.707031 C 13.261719 50.636719 13.253906 52.570312 13.25 54.5 C 12.375 54.53125 11.5 54.546875 10.625 54.5625 C 10.378906 54.570312 10.136719 54.578125 9.878906 54.585938 C 8.007812 54.613281 6.703125 54.324219 5.246094 53.0625 C 5.132812 52.925781 5.019531 52.785156 4.90625 52.640625 C 4.789062 52.503906 4.675781 52.363281 4.558594 52.21875 C 3.683594 50.882812 3.675781 49.675781 3.683594 48.125 C 3.679688 47.886719 3.679688 47.648438 3.675781 47.40625 C 3.675781 46.621094 3.675781 45.835938 3.675781 45.050781 C 3.675781 44.503906 3.671875 43.957031 3.671875 43.410156 C 3.671875 42.261719 3.671875 41.113281 3.671875 39.96875 C 3.671875 38.503906 3.667969 37.039062 3.664062 35.574219 C 3.660156 34.441406 3.65625 33.308594 3.660156 32.179688 C 3.660156 31.640625 3.65625 31.101562 3.65625 30.558594 C 3.652344 29.800781 3.65625 29.046875 3.65625 28.285156 C 3.65625 28.066406 3.652344 27.84375 3.648438 27.617188 C 3.675781 24.386719 5.035156 21.34375 7.25 19 Z M 7.25 19 "/>
<path style=" stroke:none;fill-rule:nonzero;fill:rgb(65.882355%,82.745099%,84.705883%);fill-opacity:1;" d="M 30 32 C 38.746094 32 47.488281 32 56.5 32 C 56.5 34.476562 56.5 36.949219 56.5 39.5 C 47.753906 39.5 39.011719 39.5 30 39.5 C 30 37.023438 30 34.550781 30 32 Z M 30 32 "/>
<path style=" stroke:none;fill-rule:nonzero;fill:rgb(26.666668%,26.666668%,26.666668%);fill-opacity:1;" d="M 61.75 35.75 C 62.898438 36.292969 63.460938 36.863281 64 38 C 64.074219 38.722656 64.105469 39.390625 64.101562 40.113281 C 64.101562 40.324219 64.105469 40.535156 64.105469 40.75 C 64.109375 41.441406 64.109375 42.136719 64.109375 42.828125 C 64.109375 43.308594 64.109375 43.792969 64.113281 44.273438 C 64.113281 45.285156 64.113281 46.296875 64.113281 47.304688 C 64.109375 48.597656 64.113281 49.890625 64.121094 51.183594 C 64.125 52.179688 64.125 53.175781 64.125 54.171875 C 64.125 54.648438 64.125 55.125 64.128906 55.601562 C 64.132812 56.269531 64.128906 56.933594 64.125 57.601562 C 64.128906 57.800781 64.128906 57.996094 64.132812 58.199219 C 64.113281 59.488281 63.847656 60.21875 63 61.25 C 61.695312 62.265625 60.335938 62.191406 58.75 62 C 57.601562 61.457031 57.039062 60.886719 56.5 59.75 C 56.425781 59.027344 56.394531 58.359375 56.398438 57.636719 C 56.398438 57.425781 56.394531 57.214844 56.394531 57 C 56.390625 56.308594 56.390625 55.613281 56.390625 54.921875 C 56.390625 54.441406 56.390625 53.957031 56.386719 53.476562 C 56.386719 52.464844 56.386719 51.453125 56.386719 50.445312 C 56.390625 49.152344 56.386719 47.859375 56.378906 46.566406 C 56.375 45.570312 56.375 44.574219 56.375 43.578125 C 56.375 43.101562 56.375 42.625 56.371094 42.148438 C 56.367188 41.480469 56.371094 40.816406 56.375 40.148438 C 56.371094 39.851562 56.371094 39.851562 56.367188 39.550781 C 56.386719 38.261719 56.652344 37.53125 57.5 36.5 C 58.804688 35.484375 60.164062 35.558594 61.75 35.75 Z M 61.75 35.75 "/>
<path style=" stroke:none;fill-rule:nonzero;fill:rgb(27.843139%,27.058825%,27.058825%);fill-opacity:1;" d="M 18 35.75 C 19.324219 36.425781 20.273438 37.324219 20.75 38.75 C 20.777344 39.398438 20.789062 40.042969 20.789062 40.691406 C 20.792969 40.890625 20.792969 41.085938 20.796875 41.292969 C 20.796875 41.949219 20.800781 42.601562 20.800781 43.253906 C 20.800781 43.710938 20.800781 44.164062 20.804688 44.621094 C 20.808594 45.574219 20.808594 46.527344 20.808594 47.484375 C 20.8125 48.703125 20.816406 49.925781 20.824219 51.148438 C 20.828125 52.085938 20.828125 53.027344 20.828125 53.96875 C 20.832031 54.417969 20.832031 54.867188 20.835938 55.316406 C 20.839844 55.949219 20.839844 56.578125 20.839844 57.210938 C 20.84375 57.394531 20.84375 57.578125 20.84375 57.769531 C 20.835938 58.949219 20.621094 59.75 20 60.75 C 18.703125 61.917969 17.902344 62.085938 16.191406 62.074219 C 14.988281 61.949219 14.320312 61.363281 13.546875 60.484375 C 12.921875 59.464844 12.96875 58.507812 12.984375 57.355469 C 12.984375 56.921875 12.988281 56.492188 12.988281 56.058594 C 12.992188 55.816406 12.992188 55.570312 12.996094 55.316406 C 13 54.410156 13 53.5 13 52.59375 C 13 50.976562 13.007812 49.363281 13.019531 47.746094 C 13.027344 46.804688 13.03125 45.863281 13.03125 44.921875 C 13.027344 43.996094 13.035156 43.066406 13.046875 42.140625 C 13.046875 41.792969 13.046875 41.445312 13.046875 41.09375 C 13.023438 38.0625 13.023438 38.0625 13.949219 36.929688 C 15.140625 35.757812 16.378906 35.523438 18 35.75 Z M 18 35.75 "/>
<path style=" stroke:none;fill-rule:nonzero;fill:rgb(98.823529%,74.509805%,0.392157%);fill-opacity:1;" d="M 22.75 2 C 26.378906 2 30.011719 2 33.75 2 C 33.75 3.238281 33.75 4.476562 33.75 5.75 C 31.191406 5.75 28.636719 5.75 26 5.75 C 25.625 7.410156 25.625 7.410156 25.261719 9.074219 C 25.113281 9.753906 24.953125 10.421875 24.777344 11.089844 C 24.457031 12.332031 24.457031 12.332031 24.734375 13.550781 C 25.046875 14.058594 25.046875 14.058594 25.410156 14.488281 C 26.609375 16.296875 26.417969 18.675781 26.25 20.75 C 25.601562 23.363281 23.933594 25.460938 21.75 27 C 20.078125 27.832031 18.707031 28.289062 16.828125 28.265625 C 16.652344 28.265625 16.476562 28.261719 16.296875 28.261719 C 15.863281 28.261719 15.433594 28.253906 15 28.25 C 15 28.167969 15 28.085938 15 28 C 15.660156 28 16.320312 28 17 28 C 17 26.84375 17 25.691406 17 24.5 C 17.617188 24.328125 18.238281 24.15625 18.855469 23.988281 C 19.515625 23.746094 19.949219 23.425781 20.5 23 C 20.664062 23 20.828125 23 21 23 C 21.171875 22.671875 21.335938 22.335938 21.5 22 C 21.636719 21.746094 21.765625 21.496094 21.90625 21.234375 C 22.476562 19.871094 22.539062 18.296875 22.03125 16.90625 C 21.863281 16.570312 21.683594 16.238281 21.492188 15.914062 C 21.25 15.5 21.25 15.5 21 14.75 C 20.574219 14.476562 20.574219 14.476562 20 14.25 C 19.71875 14.121094 19.433594 13.992188 19.140625 13.859375 C 18.210938 13.453125 18.210938 13.453125 17 13.25 C 17 12.011719 17 10.773438 17 9.5 C 18.382812 9.453125 19.414062 9.585938 20.75 10 C 20.808594 9.714844 20.871094 9.433594 20.933594 9.136719 C 21.015625 8.746094 21.101562 8.359375 21.1875 7.96875 C 21.246094 7.691406 21.246094 7.691406 21.308594 7.40625 C 21.707031 5.570312 22.230469 3.820312 22.75 2 Z M 22.75 2 "/>
<path style=" stroke:none;fill-rule:nonzero;fill:rgb(77.64706%,88.235295%,89.411765%);fill-opacity:1;" d="M 19.34375 13.671875 C 20.882812 14.574219 21.957031 15.792969 22.5 17.5 C 22.757812 19.296875 22.542969 20.753906 21.5 22.25 C 20.453125 23.527344 19.222656 24.359375 17.582031 24.597656 C 16.011719 24.660156 14.765625 24.457031 13.5 23.5 C 11.992188 22.097656 11.261719 20.855469 11.15625 18.78125 C 11.199219 17.21875 11.644531 16.140625 12.71875 15.003906 C 14.605469 13.273438 16.894531 12.523438 19.34375 13.671875 Z M 19.34375 13.671875 "/>
<path style=" stroke:none;fill-rule:nonzero;fill:rgb(35.294119%,35.294119%,35.294119%);fill-opacity:1;" d="M 16.75 35.75 C 16.75 44.414062 16.75 53.074219 16.75 62 C 14.675781 61.703125 14.675781 61.703125 13.5 60.5 C 12.945312 59.453125 12.941406 58.480469 12.96875 57.324219 C 12.972656 56.898438 12.976562 56.46875 12.980469 56.042969 C 12.984375 55.800781 12.988281 55.558594 12.992188 55.308594 C 13.003906 54.234375 13.003906 53.15625 13 52.082031 C 13 50.636719 13.007812 49.191406 13.019531 47.746094 C 13.027344 46.804688 13.03125 45.863281 13.03125 44.921875 C 13.027344 43.996094 13.035156 43.066406 13.046875 42.140625 C 13.046875 41.792969 13.046875 41.445312 13.046875 41.09375 C 13.023438 38.0625 13.023438 38.0625 13.949219 36.929688 C 14.828125 36.066406 15.511719 35.75 16.75 35.75 Z M 16.75 35.75 "/>
<path style=" stroke:none;fill-rule:nonzero;fill:rgb(35.294119%,35.294119%,34.901962%);fill-opacity:1;" d="M 0 2 C 3.628906 2 7.261719 2 11 2 C 13 9.199219 13 9.199219 13 10.5 C 12.613281 10.828125 12.613281 10.828125 12.09375 11.109375 C 11.121094 11.640625 10.335938 12.28125 9.5 13 C 9.25 12.046875 9 11.09375 8.753906 10.140625 C 8.625 9.660156 8.5 9.175781 8.371094 8.691406 C 8.292969 8.390625 8.214844 8.085938 8.132812 7.773438 C 8.058594 7.496094 7.984375 7.214844 7.910156 6.925781 C 7.75 6.25 7.75 6.25 7.75 5.75 C 5.191406 5.75 2.636719 5.75 0 5.75 C 0 4.511719 0 3.273438 0 2 Z M 0 2 "/>
<path style=" stroke:none;fill-rule:nonzero;fill:rgb(26.666668%,26.666668%,26.274511%);fill-opacity:1;" d="M 22.75 2 C 26.378906 2 30.011719 2 33.75 2 C 33.75 3.238281 33.75 4.476562 33.75 5.75 C 31.191406 5.75 28.636719 5.75 26 5.75 C 25.851562 6.441406 25.699219 7.132812 25.546875 7.84375 C 25.183594 9.503906 24.785156 11.136719 24.25 12.75 C 24.085938 12.75 23.921875 12.75 23.75 12.75 C 23.332031 12.332031 22.917969 11.917969 22.5 11.5 C 21.929688 11.0625 21.34375 10.65625 20.75 10.25 C 21.03125 8.425781 21.445312 6.644531 21.890625 4.859375 C 21.945312 4.636719 22.003906 4.414062 22.058594 4.183594 C 22.46875 2.566406 22.46875 2.566406 22.75 2 Z M 22.75 2 "/>
<path style=" stroke:none;fill-rule:nonzero;fill:rgb(87.058824%,92.156863%,92.54902%);fill-opacity:1;" d="M 17 13.25 C 17 14.488281 17 15.726562 17 17 C 16.339844 17 15.679688 17 15 17 C 15 18.238281 15 19.476562 15 20.75 C 15.660156 20.75 16.320312 20.75 17 20.75 C 17 21.988281 17 23.226562 17 24.5 C 14.964844 24.378906 13.839844 23.933594 12.4375 22.40625 C 11.367188 21.078125 11.128906 19.808594 11.175781 18.128906 C 11.390625 16.328125 12.390625 15.214844 13.761719 14.101562 C 14.921875 13.265625 15.523438 13.25 17 13.25 Z M 17 13.25 "/>
<path style=" stroke:none;fill-rule:nonzero;fill:rgb(65.882355%,82.745099%,84.705883%);fill-opacity:1;" d="M 17 17 C 17.578125 17 18.15625 17 18.75 17 C 18.75 18.238281 18.75 19.476562 18.75 20.75 C 18.171875 20.75 17.59375 20.75 17 20.75 C 17 19.511719 17 18.273438 17 17 Z M 17 17 "/>
</g>
</svg>
