<?xml version="1.0" encoding="UTF-8"?>
<svg xmlns="http://www.w3.org/2000/svg" xmlns:xlink="http://www.w3.org/1999/xlink" width="64" height="64" viewBox="0 0 64 64" version="1.1">
<g id="surface1">
<path style=" stroke:none;fill-rule:nonzero;fill:rgb(0%,80.784315%,80.392158%);fill-opacity:1;" d="M 7.476562 9.871094 C 7.695312 9.867188 7.914062 9.863281 8.140625 9.863281 C 8.867188 9.859375 9.597656 9.859375 10.324219 9.863281 C 10.847656 9.859375 11.371094 9.855469 11.894531 9.855469 C 13.316406 9.847656 14.738281 9.847656 16.15625 9.851562 C 17.34375 9.851562 18.527344 9.847656 19.714844 9.84375 C 22.515625 9.839844 25.316406 9.839844 28.117188 9.84375 C 31.003906 9.84375 33.890625 9.839844 36.777344 9.828125 C 39.257812 9.820312 41.738281 9.816406 44.214844 9.816406 C 45.695312 9.820312 47.175781 9.816406 48.65625 9.808594 C 50.050781 9.804688 51.441406 9.804688 52.832031 9.8125 C 53.347656 9.8125 53.855469 9.8125 54.367188 9.808594 C 59.125 9.773438 59.125 9.773438 60.613281 11.070312 C 62.238281 12.878906 62.144531 14.496094 62.136719 16.855469 C 62.140625 17.222656 62.140625 17.585938 62.144531 17.953125 C 62.152344 18.945312 62.152344 19.933594 62.152344 20.925781 C 62.152344 21.753906 62.152344 22.582031 62.152344 23.414062 C 62.160156 25.367188 62.160156 27.324219 62.160156 29.28125 C 62.152344 31.292969 62.160156 33.308594 62.171875 35.320312 C 62.179688 37.054688 62.183594 38.789062 62.179688 40.519531 C 62.179688 41.554688 62.179688 42.585938 62.1875 43.621094 C 62.195312 44.59375 62.195312 45.566406 62.1875 46.539062 C 62.1875 46.890625 62.1875 47.246094 62.191406 47.605469 C 62.214844 49.515625 62.125 50.953125 60.992188 52.539062 C 59.578125 53.863281 58.394531 54.148438 56.523438 54.128906 C 56.195312 54.132812 56.195312 54.132812 55.863281 54.136719 C 55.132812 54.140625 54.402344 54.140625 53.675781 54.136719 C 53.152344 54.140625 52.628906 54.140625 52.105469 54.144531 C 50.683594 54.152344 49.265625 54.152344 47.84375 54.148438 C 46.65625 54.148438 45.472656 54.152344 44.285156 54.15625 C 41.484375 54.160156 38.683594 54.160156 35.882812 54.15625 C 32.996094 54.15625 30.113281 54.164062 27.222656 54.171875 C 24.742188 54.179688 22.265625 54.183594 19.785156 54.183594 C 18.304688 54.179688 16.824219 54.183594 15.339844 54.191406 C 13.949219 54.195312 12.554688 54.195312 11.164062 54.1875 C 10.652344 54.1875 10.144531 54.1875 9.632812 54.191406 C 4.875 54.226562 4.875 54.226562 3.386719 52.929688 C 1.765625 51.125 1.855469 49.503906 1.863281 47.144531 C 1.863281 46.78125 1.859375 46.414062 1.855469 46.046875 C 1.847656 45.054688 1.847656 44.066406 1.847656 43.074219 C 1.847656 42.246094 1.847656 41.417969 1.84375 40.585938 C 1.839844 38.632812 1.839844 36.675781 1.839844 34.71875 C 1.847656 32.703125 1.839844 30.691406 1.828125 28.675781 C 1.820312 26.945312 1.816406 25.210938 1.820312 23.480469 C 1.820312 22.445312 1.820312 21.414062 1.8125 20.378906 C 1.804688 19.40625 1.804688 18.433594 1.8125 17.460938 C 1.8125 17.105469 1.8125 16.753906 1.808594 16.398438 C 1.785156 14.480469 1.875 13.042969 3.007812 11.460938 C 4.425781 10.136719 5.605469 9.851562 7.476562 9.871094 Z M 7.476562 9.871094 "/>
<path style=" stroke:none;fill-rule:nonzero;fill:rgb(0%,2.745098%,30.588236%);fill-opacity:1;" d="M 7.476562 9.871094 C 7.695312 9.867188 7.914062 9.863281 8.140625 9.863281 C 8.867188 9.859375 9.597656 9.859375 10.324219 9.863281 C 10.847656 9.859375 11.371094 9.855469 11.894531 9.855469 C 13.316406 9.847656 14.738281 9.847656 16.15625 9.851562 C 17.34375 9.851562 18.527344 9.847656 19.714844 9.84375 C 22.515625 9.839844 25.316406 9.839844 28.117188 9.84375 C 31.003906 9.84375 33.890625 9.839844 36.777344 9.828125 C 39.257812 9.820312 41.738281 9.816406 44.214844 9.816406 C 45.695312 9.820312 47.175781 9.816406 48.65625 9.808594 C 50.050781 9.804688 51.441406 9.804688 52.832031 9.8125 C 53.347656 9.8125 53.855469 9.8125 54.367188 9.808594 C 59.125 9.773438 59.125 9.773438 60.613281 11.070312 C 62.238281 12.878906 62.144531 14.496094 62.136719 16.855469 C 62.140625 17.222656 62.140625 17.585938 62.144531 17.953125 C 62.152344 18.945312 62.152344 19.933594 62.152344 20.925781 C 62.152344 21.753906 62.152344 22.582031 62.152344 23.414062 C 62.160156 25.367188 62.160156 27.324219 62.160156 29.28125 C 62.152344 31.292969 62.160156 33.308594 62.171875 35.320312 C 62.179688 37.054688 62.183594 38.789062 62.179688 40.519531 C 62.179688 41.554688 62.179688 42.585938 62.1875 43.621094 C 62.195312 44.59375 62.195312 45.566406 62.1875 46.539062 C 62.1875 46.890625 62.1875 47.246094 62.191406 47.605469 C 62.214844 49.515625 62.125 50.953125 60.992188 52.539062 C 59.578125 53.863281 58.394531 54.148438 56.523438 54.128906 C 56.195312 54.132812 56.195312 54.132812 55.863281 54.136719 C 55.132812 54.140625 54.402344 54.140625 53.675781 54.136719 C 53.152344 54.140625 52.628906 54.140625 52.105469 54.144531 C 50.683594 54.152344 49.265625 54.152344 47.84375 54.148438 C 46.65625 54.148438 45.472656 54.152344 44.285156 54.15625 C 41.484375 54.160156 38.683594 54.160156 35.882812 54.15625 C 32.996094 54.15625 30.113281 54.164062 27.222656 54.171875 C 24.742188 54.179688 22.265625 54.183594 19.785156 54.183594 C 18.304688 54.179688 16.824219 54.183594 15.339844 54.191406 C 13.949219 54.195312 12.554688 54.195312 11.164062 54.1875 C 10.652344 54.1875 10.144531 54.1875 9.632812 54.191406 C 4.875 54.226562 4.875 54.226562 3.386719 52.929688 C 1.765625 51.125 1.855469 49.503906 1.863281 47.144531 C 1.863281 46.78125 1.859375 46.414062 1.855469 46.046875 C 1.847656 45.054688 1.847656 44.066406 1.847656 43.074219 C 1.847656 42.246094 1.847656 41.417969 1.84375 40.585938 C 1.839844 38.632812 1.839844 36.675781 1.839844 34.71875 C 1.847656 32.703125 1.839844 30.691406 1.828125 28.675781 C 1.820312 26.945312 1.816406 25.210938 1.820312 23.480469 C 1.820312 22.445312 1.820312 21.414062 1.8125 20.378906 C 1.804688 19.40625 1.804688 18.433594 1.8125 17.460938 C 1.8125 17.105469 1.8125 16.753906 1.808594 16.398438 C 1.785156 14.480469 1.875 13.042969 3.007812 11.460938 C 4.425781 10.136719 5.605469 9.851562 7.476562 9.871094 Z M 4 20 C 3.984375 24.882812 3.96875 29.765625 3.953125 34.796875 C 3.945312 36.339844 3.9375 37.878906 3.929688 39.46875 C 3.929688 40.851562 3.929688 40.851562 3.929688 42.230469 C 3.925781 42.851562 3.925781 43.464844 3.921875 44.078125 C 3.917969 45.011719 3.914062 45.945312 3.914062 46.878906 C 3.910156 47.152344 3.910156 47.425781 3.90625 47.707031 C 3.914062 49.398438 4.050781 50.296875 5.269531 51.523438 C 6.21875 52.140625 7.015625 52.140625 8.105469 52.125 C 8.425781 52.128906 8.425781 52.128906 8.746094 52.128906 C 9.457031 52.132812 10.164062 52.128906 10.871094 52.125 C 11.382812 52.128906 11.890625 52.128906 12.394531 52.128906 C 13.777344 52.132812 15.15625 52.128906 16.535156 52.128906 C 17.980469 52.121094 19.421875 52.125 20.863281 52.125 C 23.289062 52.125 25.710938 52.121094 28.136719 52.117188 C 30.9375 52.109375 33.742188 52.109375 36.542969 52.113281 C 39.238281 52.113281 41.933594 52.113281 44.628906 52.109375 C 45.777344 52.109375 46.925781 52.109375 48.070312 52.109375 C 49.425781 52.113281 50.773438 52.109375 52.125 52.101562 C 52.621094 52.101562 53.117188 52.101562 53.613281 52.101562 C 54.292969 52.105469 54.964844 52.101562 55.644531 52.097656 C 55.9375 52.101562 55.9375 52.101562 56.238281 52.101562 C 57.625 52.085938 58.402344 51.761719 59.4375 50.875 C 60.042969 50.148438 60.03125 49.429688 60.027344 48.53125 C 60.03125 48.28125 60.03125 48.03125 60.03125 47.769531 C 60.03125 47.496094 60.027344 47.21875 60.027344 46.933594 C 60.027344 46.640625 60.027344 46.34375 60.027344 46.039062 C 60.027344 45.082031 60.027344 44.128906 60.023438 43.167969 C 60.023438 42.578125 60.023438 41.988281 60.023438 41.398438 C 60.019531 39.210938 60.019531 37.019531 60.015625 34.828125 C 60.011719 29.933594 60.007812 25.042969 60 20 C 41.519531 20 23.039062 20 4 20 Z M 4 20 "/>
<path style=" stroke:none;fill-rule:nonzero;fill:rgb(98.823529%,82.745099%,27.843139%);fill-opacity:1;" d="M 18.75 24.5 C 19.5 25.359375 19.5 25.359375 19.5 26 C 21.148438 26 22.800781 26 24.5 26 C 24.664062 25.671875 24.828125 25.339844 25 25 C 25.164062 24.753906 25.328125 24.503906 25.5 24.25 C 26.242188 24.496094 26.984375 24.746094 27.75 25 C 27.679688 25.558594 27.679688 25.558594 27.609375 26.125 C 27.601562 27.023438 27.65625 27.386719 28.234375 28.085938 C 28.632812 28.425781 29.039062 28.761719 29.460938 29.078125 C 30 29.5 30 29.5 30.5 30.25 C 31.109375 30.339844 31.109375 30.339844 31.78125 30.296875 C 32.011719 30.289062 32.238281 30.28125 32.46875 30.277344 C 32.644531 30.265625 32.820312 30.261719 33 30.25 C 33.246094 30.992188 33.496094 31.734375 33.75 32.5 C 32.5625 33.5 32.5625 33.5 32 33.5 C 32.003906 34.265625 32.011719 35.03125 32.03125 35.796875 C 32.03125 36.011719 32.03125 36.230469 32.03125 36.453125 C 32.046875 37.65625 32.046875 37.65625 32.597656 38.683594 C 33.050781 39.074219 33.050781 39.074219 33.75 39.5 C 33.503906 40.242188 33.253906 40.984375 33 41.75 C 32.621094 41.707031 32.246094 41.667969 31.859375 41.625 C 31.023438 41.621094 30.636719 41.640625 29.980469 42.171875 C 29.6875 42.515625 29.40625 42.871094 29.140625 43.238281 C 28.75 43.75 28.75 43.75 28.203125 44.109375 C 27.683594 44.46875 27.683594 44.46875 27.652344 45.121094 C 27.664062 45.34375 27.675781 45.566406 27.6875 45.796875 C 27.699219 46.023438 27.703125 46.246094 27.714844 46.480469 C 27.726562 46.652344 27.738281 46.824219 27.75 47 C 27.007812 47.246094 26.265625 47.496094 25.5 47.75 C 24.5 46.5625 24.5 46.5625 24.5 46 C 22.851562 46 21.199219 46 19.5 46 C 19.335938 46.328125 19.171875 46.660156 19 47 C 18.835938 47.246094 18.671875 47.496094 18.5 47.75 C 17.757812 47.503906 17.015625 47.253906 16.25 47 C 16.3125 46.433594 16.3125 46.433594 16.375 45.859375 C 16.378906 45.023438 16.359375 44.636719 15.828125 43.980469 C 15.484375 43.6875 15.128906 43.40625 14.761719 43.140625 C 14.25 42.75 14.25 42.75 13.890625 42.203125 C 13.53125 41.683594 13.53125 41.683594 12.878906 41.652344 C 12.65625 41.664062 12.433594 41.675781 12.203125 41.6875 C 11.976562 41.699219 11.753906 41.703125 11.519531 41.714844 C 11.347656 41.726562 11.175781 41.738281 11 41.75 C 10.753906 41.007812 10.503906 40.265625 10.25 39.5 C 11.4375 38.5 11.4375 38.5 12 38.5 C 12 36.851562 12 35.199219 12 33.5 C 11.671875 33.335938 11.339844 33.171875 11 33 C 10.753906 32.835938 10.503906 32.671875 10.25 32.5 C 10.496094 31.757812 10.746094 31.015625 11 30.25 C 11.371094 30.296875 11.742188 30.34375 12.125 30.390625 C 13.023438 30.398438 13.386719 30.34375 14.085938 29.765625 C 14.425781 29.367188 14.761719 28.960938 15.078125 28.539062 C 15.5 28 15.5 28 16.25 27.5 C 16.339844 26.890625 16.339844 26.890625 16.296875 26.21875 C 16.289062 25.988281 16.28125 25.761719 16.277344 25.53125 C 16.265625 25.355469 16.261719 25.179688 16.25 25 C 17.90625 24.21875 17.90625 24.21875 18.75 24.5 Z M 18.75 24.5 "/>
<path style=" stroke:none;fill-rule:nonzero;fill:rgb(0%,64.313728%,66.666669%);fill-opacity:1;" d="M 8.015625 11.964844 C 8.226562 11.964844 8.4375 11.960938 8.65625 11.960938 C 9.367188 11.960938 10.078125 11.960938 10.785156 11.960938 C 11.296875 11.957031 11.804688 11.957031 12.3125 11.953125 C 13.695312 11.953125 15.078125 11.949219 16.457031 11.949219 C 17.324219 11.949219 18.1875 11.949219 19.050781 11.949219 C 21.75 11.945312 24.445312 11.941406 27.144531 11.941406 C 30.265625 11.941406 33.382812 11.933594 36.503906 11.925781 C 38.914062 11.921875 41.320312 11.917969 43.730469 11.917969 C 45.167969 11.917969 46.609375 11.917969 48.050781 11.914062 C 49.402344 11.910156 50.757812 11.90625 52.113281 11.910156 C 52.609375 11.910156 53.105469 11.910156 53.605469 11.90625 C 54.28125 11.90625 54.957031 11.90625 55.640625 11.90625 C 55.835938 11.90625 56.035156 11.90625 56.238281 11.902344 C 57.375 11.914062 58.105469 12.03125 59 12.75 C 60 14 60 14 60 18 C 41.519531 18 23.039062 18 4 18 C 4 14 4 14 4.71875 12.890625 C 5.757812 11.933594 6.652344 11.960938 8.015625 11.964844 Z M 8.015625 11.964844 "/>
<path style=" stroke:none;fill-rule:nonzero;fill:rgb(1.568628%,4.705882%,30.980393%);fill-opacity:1;" d="M 18.75 21.75 C 19.53125 22.488281 20.011719 23.023438 20.5 24 C 21.488281 24 22.480469 24 23.5 24 C 23.664062 23.671875 23.828125 23.339844 24 23 C 24.40625 22.574219 24.824219 22.15625 25.25 21.75 C 25.953125 22.035156 26.65625 22.324219 27.359375 22.609375 C 27.660156 22.734375 27.660156 22.734375 27.96875 22.855469 C 28.15625 22.933594 28.351562 23.011719 28.546875 23.09375 C 28.722656 23.164062 28.898438 23.238281 29.082031 23.308594 C 29.5 23.5 29.5 23.5 29.75 23.75 C 29.726562 24.183594 29.703125 24.613281 29.671875 25.046875 C 29.671875 26.007812 29.683594 26.65625 30.3125 27.40625 C 31.09375 28.074219 31.773438 28.070312 32.78125 28.09375 C 34.140625 28.148438 34.140625 28.148438 34.628906 28.609375 C 34.902344 29.148438 35.078125 29.671875 35.25 30.25 C 35.4375 30.75 35.625 31.25 35.8125 31.75 C 35.960938 32.164062 36.105469 32.582031 36.25 33 C 35.96875 33.253906 35.6875 33.5 35.40625 33.75 C 35.25 33.890625 35.09375 34.027344 34.933594 34.171875 C 34.5 34.5 34.5 34.5 34 34.5 C 34 35.488281 34 36.480469 34 37.5 C 34.496094 37.746094 34.496094 37.746094 35 38 C 35.425781 38.40625 35.84375 38.824219 36.25 39.25 C 35.964844 39.953125 35.675781 40.65625 35.390625 41.359375 C 35.265625 41.660156 35.265625 41.660156 35.144531 41.96875 C 35.066406 42.15625 34.988281 42.351562 34.90625 42.546875 C 34.835938 42.722656 34.761719 42.898438 34.691406 43.082031 C 34.5 43.5 34.5 43.5 34.25 43.75 C 33.824219 43.722656 33.394531 43.691406 32.96875 43.65625 C 31.894531 43.652344 31.273438 43.742188 30.453125 44.453125 C 29.578125 45.46875 29.601562 46.417969 29.6875 47.710938 C 29.71875 47.976562 29.71875 47.976562 29.75 48.25 C 29.238281 48.488281 28.730469 48.730469 28.21875 48.96875 C 27.933594 49.101562 27.648438 49.234375 27.359375 49.371094 C 26.578125 49.714844 25.808594 49.996094 25 50.25 C 24.746094 49.96875 24.5 49.6875 24.25 49.40625 C 24.109375 49.25 23.972656 49.09375 23.828125 48.933594 C 23.5 48.5 23.5 48.5 23.5 48 C 22.511719 48 21.519531 48 20.5 48 C 20.335938 48.328125 20.171875 48.660156 20 49 C 19.59375 49.425781 19.175781 49.84375 18.75 50.25 C 18.046875 49.964844 17.34375 49.675781 16.640625 49.390625 C 16.441406 49.308594 16.238281 49.226562 16.03125 49.144531 C 15.84375 49.066406 15.648438 48.988281 15.453125 48.90625 C 15.277344 48.835938 15.101562 48.761719 14.917969 48.691406 C 14.5 48.5 14.5 48.5 14.25 48.25 C 14.230469 47.773438 14.214844 47.300781 14.203125 46.828125 C 14.089844 45.460938 14.089844 45.460938 13.40625 44.3125 C 12.476562 43.535156 11.457031 43.632812 10.300781 43.699219 C 10.027344 43.722656 10.027344 43.722656 9.75 43.75 C 9.511719 43.238281 9.269531 42.730469 9.03125 42.21875 C 8.898438 41.933594 8.765625 41.648438 8.628906 41.359375 C 8.285156 40.578125 8.003906 39.808594 7.75 39 C 8.03125 38.746094 8.3125 38.5 8.59375 38.25 C 8.75 38.109375 8.90625 37.972656 9.066406 37.828125 C 9.5 37.5 9.5 37.5 10 37.5 C 10 36.511719 10 35.519531 10 34.5 C 9.671875 34.335938 9.339844 34.171875 9 34 C 8.574219 33.59375 8.15625 33.175781 7.75 32.75 C 8.035156 32.046875 8.324219 31.34375 8.609375 30.640625 C 8.691406 30.441406 8.773438 30.238281 8.855469 30.03125 C 8.933594 29.84375 9.011719 29.648438 9.09375 29.453125 C 9.164062 29.277344 9.238281 29.101562 9.308594 28.917969 C 9.5 28.5 9.5 28.5 9.75 28.25 C 10.175781 28.277344 10.605469 28.308594 11.03125 28.34375 C 12.105469 28.347656 12.726562 28.257812 13.546875 27.546875 C 14.421875 26.53125 14.398438 25.582031 14.3125 24.289062 C 14.289062 24.113281 14.269531 23.933594 14.25 23.75 C 15.71875 22.988281 17.203125 22.34375 18.75 21.75 Z M 16.25 25 C 16.273438 25.15625 16.300781 25.316406 16.328125 25.476562 C 16.429688 26.550781 16.476562 27.226562 15.765625 28.085938 C 15.367188 28.425781 14.960938 28.761719 14.539062 29.078125 C 13.945312 29.496094 13.945312 29.496094 13.5 30.25 C 12.90625 30.324219 12.90625 30.324219 12.21875 30.296875 C 11.988281 30.289062 11.761719 30.28125 11.53125 30.277344 C 11.355469 30.265625 11.179688 30.261719 11 30.25 C 10.628906 31.363281 10.628906 31.363281 10.25 32.5 C 11.023438 33.246094 11.023438 33.246094 12 33.5 C 12 35.148438 12 36.800781 12 38.5 C 11.671875 38.664062 11.339844 38.828125 11 39 C 10.753906 39.164062 10.503906 39.328125 10.25 39.5 C 10.496094 40.242188 10.746094 40.984375 11 41.75 C 11.371094 41.703125 11.742188 41.65625 12.125 41.609375 C 13.023438 41.601562 13.386719 41.65625 14.085938 42.234375 C 14.425781 42.632812 14.761719 43.039062 15.078125 43.460938 C 15.496094 44.054688 15.496094 44.054688 16.25 44.5 C 16.324219 45.09375 16.324219 45.09375 16.296875 45.78125 C 16.289062 46.011719 16.28125 46.238281 16.277344 46.46875 C 16.265625 46.644531 16.261719 46.820312 16.25 47 C 16.992188 47.246094 17.734375 47.496094 18.5 47.75 C 19.246094 46.976562 19.246094 46.976562 19.5 46 C 21.148438 46 22.800781 46 24.5 46 C 24.664062 46.328125 24.828125 46.660156 25 47 C 25.246094 47.371094 25.246094 47.371094 25.5 47.75 C 26.242188 47.503906 26.984375 47.253906 27.75 47 C 27.707031 46.621094 27.667969 46.246094 27.625 45.859375 C 27.621094 45.023438 27.640625 44.636719 28.171875 43.980469 C 28.515625 43.6875 28.871094 43.40625 29.238281 43.140625 C 29.777344 42.773438 29.777344 42.773438 30.109375 42.203125 C 30.5 41.75 30.5 41.75 31.121094 41.652344 C 31.34375 41.664062 31.566406 41.675781 31.796875 41.6875 C 32.023438 41.699219 32.246094 41.703125 32.480469 41.714844 C 32.652344 41.726562 32.824219 41.738281 33 41.75 C 33.246094 41.007812 33.496094 40.265625 33.75 39.5 C 33.507812 39.34375 33.265625 39.1875 33.011719 39.027344 C 32.496094 38.601562 32.277344 38.355469 32.101562 37.703125 C 32.046875 37.0625 32.03125 36.4375 32.03125 35.796875 C 32.023438 35.574219 32.019531 35.355469 32.015625 35.128906 C 32.003906 34.585938 32 34.042969 32 33.5 C 32.148438 33.425781 32.300781 33.355469 32.453125 33.28125 C 33.046875 32.988281 33.046875 32.988281 33.75 32.5 C 33.503906 31.757812 33.253906 31.015625 33 30.25 C 32.628906 30.296875 32.257812 30.34375 31.875 30.390625 C 30.976562 30.398438 30.613281 30.34375 29.914062 29.765625 C 29.574219 29.367188 29.238281 28.960938 28.921875 28.539062 C 28.503906 27.945312 28.503906 27.945312 27.75 27.5 C 27.675781 26.90625 27.675781 26.90625 27.703125 26.21875 C 27.710938 25.878906 27.710938 25.878906 27.722656 25.53125 C 27.734375 25.355469 27.738281 25.179688 27.75 25 C 27.007812 24.753906 26.265625 24.503906 25.5 24.25 C 24.753906 25.023438 24.753906 25.023438 24.5 26 C 22.851562 26 21.199219 26 19.5 26 C 19.335938 25.671875 19.171875 25.339844 19 25 C 18.835938 24.753906 18.671875 24.503906 18.5 24.25 C 17.675781 24.25 16.996094 24.671875 16.25 25 Z M 16.25 25 "/>
<path style=" stroke:none;fill-rule:nonzero;fill:rgb(0%,64.313728%,66.666669%);fill-opacity:1;" d="M 4 20 C 5.980469 20 7.960938 20 10 20 C 10 22.640625 10 25.28125 10 28 C 10.371094 28.125 10.371094 28.125 10.75 28.25 C 10.515625 28.28125 10.515625 28.28125 10.28125 28.316406 C 9.722656 28.449219 9.722656 28.449219 9.476562 28.917969 C 9.40625 29.09375 9.339844 29.273438 9.269531 29.453125 C 9.15625 29.738281 9.15625 29.738281 9.039062 30.03125 C 8.964844 30.234375 8.890625 30.433594 8.8125 30.640625 C 8.695312 30.941406 8.695312 30.941406 8.574219 31.253906 C 8.378906 31.75 8.191406 32.25 8 32.75 C 8.644531 33.414062 9.230469 33.984375 10 34.5 C 10.226562 35.523438 10.21875 36.476562 10 37.5 C 9.417969 38.191406 8.78125 38.570312 8 39 C 8.265625 39.742188 8.539062 40.480469 8.8125 41.21875 C 8.886719 41.429688 8.960938 41.640625 9.039062 41.859375 C 9.113281 42.058594 9.191406 42.261719 9.269531 42.46875 C 9.335938 42.652344 9.40625 42.835938 9.476562 43.03125 C 9.816406 43.609375 10.136719 43.757812 10.75 44 C 10.503906 44 10.253906 44 10 44 C 10.019531 44.921875 10.046875 45.84375 10.078125 46.765625 C 10.085938 47.023438 10.089844 47.285156 10.09375 47.550781 C 10.148438 49.054688 10.296875 50.167969 11 51.5 C 11.121094 51.746094 11.121094 51.746094 11.25 52 C 10.414062 52.046875 9.574219 52.070312 8.734375 52.09375 C 8.496094 52.109375 8.261719 52.121094 8.019531 52.132812 C 6.765625 52.15625 5.957031 52.109375 4.96875 51.289062 C 4.304688 50.648438 4.023438 50.140625 3.96875 49.191406 C 3.96875 48.976562 3.96875 48.753906 3.96875 48.53125 C 3.96875 48.28125 3.96875 48.027344 3.96875 47.765625 C 3.96875 47.492188 3.96875 47.21875 3.972656 46.933594 C 3.972656 46.640625 3.972656 46.351562 3.972656 46.054688 C 3.972656 45.09375 3.972656 44.128906 3.976562 43.171875 C 3.976562 42.503906 3.976562 41.835938 3.976562 41.171875 C 3.976562 39.59375 3.980469 38.019531 3.984375 36.445312 C 3.984375 34.652344 3.984375 32.859375 3.988281 31.066406 C 3.988281 27.378906 3.996094 23.6875 4 20 Z M 4 20 "/>
<path style=" stroke:none;fill-rule:nonzero;fill:rgb(1.960784%,4.313726%,30.19608%);fill-opacity:1;" d="M 24.898438 30.632812 C 26.355469 31.523438 27.480469 32.871094 28 34.5 C 28.234375 36.371094 27.957031 37.980469 26.878906 39.53125 C 25.738281 40.949219 24.609375 41.855469 22.773438 42.09375 C 21.144531 42.160156 19.816406 42.011719 18.5 41 C 16.933594 39.546875 15.984375 38.066406 15.890625 35.890625 C 15.949219 34.222656 16.371094 33.15625 17.523438 31.949219 C 19.773438 29.859375 22.027344 29.367188 24.898438 30.632812 Z M 24.898438 30.632812 "/>
<path style=" stroke:none;fill-rule:nonzero;fill:rgb(0%,2.745098%,30.588236%);fill-opacity:1;" d="M 45.625 41.933594 C 45.847656 41.933594 46.066406 41.929688 46.296875 41.929688 C 46.53125 41.933594 46.761719 41.9375 47 41.9375 C 47.234375 41.9375 47.464844 41.933594 47.703125 41.929688 C 48.035156 41.933594 48.035156 41.933594 48.375 41.933594 C 48.578125 41.933594 48.78125 41.933594 48.992188 41.9375 C 49.5 42 49.5 42 50 42.5 C 50 43.324219 50 44.152344 50 45 C 51.980469 45 53.960938 45 56 45 C 56 45.660156 56 46.320312 56 47 C 54.019531 47 52.039062 47 50 47 C 50 47.824219 50 48.652344 50 49.5 C 49.386719 50.113281 49.214844 50.0625 48.375 50.066406 C 48.152344 50.066406 47.933594 50.070312 47.703125 50.070312 C 47.46875 50.066406 47.238281 50.0625 47 50.0625 C 46.765625 50.0625 46.535156 50.066406 46.296875 50.070312 C 45.964844 50.070312 45.964844 50.070312 45.625 50.066406 C 45.421875 50.066406 45.21875 50.066406 45.007812 50.0625 C 44.5 50 44.5 50 44 49.5 C 44 48.675781 44 47.851562 44 47 C 42.019531 47 40.039062 47 38 47 C 38 46.339844 38 45.679688 38 45 C 39.980469 45 41.960938 45 44 45 C 44 44.175781 44 43.351562 44 42.5 C 44.613281 41.886719 44.785156 41.9375 45.625 41.933594 Z M 45.625 41.933594 "/>
<path style=" stroke:none;fill-rule:nonzero;fill:rgb(0%,2.745098%,30.588236%);fill-opacity:1;" d="M 41.625 31.933594 C 41.847656 31.933594 42.066406 31.929688 42.296875 31.929688 C 42.53125 31.933594 42.761719 31.9375 43 31.9375 C 43.347656 31.933594 43.347656 31.933594 43.703125 31.929688 C 44.035156 31.933594 44.035156 31.933594 44.375 31.933594 C 44.578125 31.933594 44.78125 31.933594 44.992188 31.9375 C 45.5 32 45.5 32 46 32.5 C 46 33.324219 46 34.152344 46 35 C 49.300781 35 52.601562 35 56 35 C 56 35.660156 56 36.320312 56 37 C 52.699219 37 49.398438 37 46 37 C 46 37.824219 46 38.652344 46 39.5 C 45.386719 40.113281 45.214844 40.0625 44.375 40.066406 C 44.152344 40.066406 43.933594 40.070312 43.703125 40.070312 C 43.46875 40.066406 43.238281 40.0625 43 40.0625 C 42.765625 40.0625 42.535156 40.066406 42.296875 40.070312 C 41.964844 40.070312 41.964844 40.070312 41.625 40.066406 C 41.421875 40.066406 41.21875 40.066406 41.007812 40.0625 C 40.5 40 40.5 40 40 39.5 C 39.949219 38.902344 39.949219 38.902344 39.96875 38.21875 C 39.972656 37.992188 39.976562 37.761719 39.984375 37.527344 C 39.988281 37.355469 39.996094 37.179688 40 37 C 39.339844 37 38.679688 37 38 37 C 38 36.339844 38 35.679688 38 35 C 38.660156 35 39.320312 35 40 35 C 39.996094 34.824219 39.988281 34.652344 39.984375 34.472656 C 39.976562 34.128906 39.976562 34.128906 39.96875 33.78125 C 39.960938 33.554688 39.957031 33.328125 39.949219 33.097656 C 40.042969 31.972656 40.644531 31.9375 41.625 31.933594 Z M 41.625 31.933594 "/>
<path style=" stroke:none;fill-rule:nonzero;fill:rgb(0%,2.745098%,30.588236%);fill-opacity:1;" d="M 47.625 21.933594 C 47.847656 21.933594 48.066406 21.929688 48.296875 21.929688 C 48.53125 21.933594 48.761719 21.9375 49 21.9375 C 49.234375 21.9375 49.464844 21.933594 49.703125 21.929688 C 50.035156 21.933594 50.035156 21.933594 50.375 21.933594 C 50.578125 21.933594 50.78125 21.933594 50.992188 21.9375 C 51.5 22 51.5 22 52 22.5 C 52.066406 23.335938 52.023438 24.160156 52 25 C 53.320312 25 54.640625 25 56 25 C 56 25.660156 56 26.320312 56 27 C 54.679688 27 53.359375 27 52 27 C 52.011719 27.402344 52.019531 27.804688 52.03125 28.21875 C 52.050781 28.902344 52.050781 28.902344 52 29.5 C 51.386719 30.113281 51.214844 30.0625 50.375 30.066406 C 50.152344 30.066406 49.933594 30.070312 49.703125 30.070312 C 49.46875 30.066406 49.238281 30.0625 49 30.0625 C 48.765625 30.0625 48.535156 30.066406 48.296875 30.070312 C 47.964844 30.070312 47.964844 30.070312 47.625 30.066406 C 47.421875 30.066406 47.21875 30.066406 47.007812 30.0625 C 46.5 30 46.5 30 46 29.5 C 46 28.675781 46 27.851562 46 27 C 43.359375 27 40.71875 27 38 27 C 38 26.339844 38 25.679688 38 25 C 40.640625 25 43.28125 25 46 25 C 46 24.175781 46 23.351562 46 22.5 C 46.613281 21.886719 46.785156 21.9375 47.625 21.933594 Z M 47.625 21.933594 "/>
<path style=" stroke:none;fill-rule:nonzero;fill:rgb(0%,79.215688%,79.215688%);fill-opacity:1;" d="M 23 32 C 24.417969 32.488281 25.328125 33.40625 26 34.75 C 26.136719 35.988281 26.140625 36.96875 25.578125 38.09375 C 24.789062 38.992188 23.949219 39.921875 22.707031 40.058594 C 21.246094 40.101562 20.390625 40.003906 19.25 39 C 18.175781 37.808594 17.910156 36.890625 17.929688 35.320312 C 18.078125 34.125 18.789062 33.4375 19.65625 32.671875 C 20.769531 31.878906 21.664062 31.878906 23 32 Z M 23 32 "/>
<path style=" stroke:none;fill-rule:nonzero;fill:rgb(0%,2.745098%,30.588236%);fill-opacity:1;" d="M 32 14 C 39.921875 14 47.839844 14 56 14 C 56 14.660156 56 15.320312 56 16 C 48.078125 16 40.160156 16 32 16 C 32 15.339844 32 14.679688 32 14 Z M 32 14 "/>
<path style=" stroke:none;fill-rule:nonzero;fill:rgb(0%,48.627451%,57.254905%);fill-opacity:1;" d="M 7.195312 11.976562 C 7.433594 11.976562 7.667969 11.976562 7.910156 11.976562 C 8.15625 11.980469 8.402344 11.984375 8.65625 11.984375 C 8.90625 11.984375 9.152344 11.984375 9.40625 11.988281 C 10.023438 11.992188 10.636719 11.996094 11.25 12 C 11.089844 12.242188 10.925781 12.484375 10.761719 12.734375 C 10.148438 13.808594 10.085938 14.769531 10.0625 15.984375 C 10.042969 16.652344 10.023438 17.316406 10 18 C 8.019531 18 6.039062 18 4 18 C 3.800781 13.949219 3.800781 13.949219 4.71875 12.890625 C 5.539062 12.132812 6.085938 11.96875 7.195312 11.976562 Z M 7.195312 11.976562 "/>
<path style=" stroke:none;fill-rule:nonzero;fill:rgb(100%,83.92157%,28.235295%);fill-opacity:1;" d="M 46 44 C 46.660156 44 47.320312 44 48 44 C 48 45.320312 48 46.640625 48 48 C 47.339844 48 46.679688 48 46 48 C 46 46.679688 46 45.359375 46 44 Z M 46 44 "/>
<path style=" stroke:none;fill-rule:nonzero;fill:rgb(100%,83.92157%,28.235295%);fill-opacity:1;" d="M 42 34 C 42.660156 34 43.320312 34 44 34 C 44 35.320312 44 36.640625 44 38 C 43.339844 38 42.679688 38 42 38 C 42 36.679688 42 35.359375 42 34 Z M 42 34 "/>
<path style=" stroke:none;fill-rule:nonzero;fill:rgb(100%,83.92157%,28.235295%);fill-opacity:1;" d="M 48 24 C 48.660156 24 49.320312 24 50 24 C 50 25.320312 50 26.640625 50 28 C 49.339844 28 48.679688 28 48 28 C 48 26.679688 48 25.359375 48 24 Z M 48 24 "/>
<path style=" stroke:none;fill-rule:nonzero;fill:rgb(96.078432%,68.235296%,3.137255%);fill-opacity:1;" d="M 26.25 31.75 C 27.40625 32.046875 27.851562 32.617188 28.496094 33.5625 C 29.171875 34.726562 29.136719 35.949219 29 37.25 C 28.539062 38.835938 27.550781 39.785156 26.25 40.75 C 26.085938 40.667969 25.921875 40.585938 25.75 40.5 C 25.902344 40.339844 25.902344 40.339844 26.058594 40.175781 C 27.46875 38.640625 27.871094 37.199219 27.832031 35.125 C 27.660156 33.824219 26.964844 32.824219 26.25 31.75 Z M 26.25 31.75 "/>
<path style=" stroke:none;fill-rule:nonzero;fill:rgb(98.039216%,70.19608%,3.137255%);fill-opacity:1;" d="M 11.25 33 C 11.789062 33.09375 12.191406 33.214844 12.65625 33.507812 C 13.203125 34.289062 13.078125 35.128906 13.046875 36.046875 C 13.042969 36.234375 13.039062 36.421875 13.039062 36.613281 C 13.027344 37.078125 13.015625 37.539062 13 38 C 12.503906 38.246094 12.503906 38.246094 12 38.5 C 12 36.851562 12 35.199219 12 33.5 C 11.753906 33.417969 11.503906 33.335938 11.25 33.25 C 11.25 33.167969 11.25 33.085938 11.25 33 Z M 11.25 33 "/>
<path style=" stroke:none;fill-rule:nonzero;fill:rgb(100%,70.19608%,0%);fill-opacity:1;" d="M 46 44 C 46.328125 44 46.660156 44 47 44 C 47 45.320312 47 46.640625 47 48 C 46.671875 48 46.339844 48 46 48 C 46 46.679688 46 45.359375 46 44 Z M 46 44 "/>
<path style=" stroke:none;fill-rule:nonzero;fill:rgb(100%,70.19608%,0%);fill-opacity:1;" d="M 42 34 C 42.328125 34 42.660156 34 43 34 C 43 35.320312 43 36.640625 43 38 C 42.671875 38 42.339844 38 42 38 C 42 36.679688 42 35.359375 42 34 Z M 42 34 "/>
<path style=" stroke:none;fill-rule:nonzero;fill:rgb(100%,70.19608%,0%);fill-opacity:1;" d="M 48 24 C 48.328125 24 48.660156 24 49 24 C 49 25.320312 49 26.640625 49 28 C 48.671875 28 48.339844 28 48 28 C 48 26.679688 48 25.359375 48 24 Z M 48 24 "/>
<path style=" stroke:none;fill-rule:nonzero;fill:rgb(0%,2.745098%,30.588236%);fill-opacity:1;" d="M 16 14 C 16.660156 14 17.320312 14 18 14 C 18 14.660156 18 15.320312 18 16 C 17.339844 16 16.679688 16 16 16 C 16 15.339844 16 14.679688 16 14 Z M 16 14 "/>
<path style=" stroke:none;fill-rule:nonzero;fill:rgb(0%,2.745098%,30.588236%);fill-opacity:1;" d="M 12 14 C 12.660156 14 13.320312 14 14 14 C 14 14.660156 14 15.320312 14 16 C 13.339844 16 12.679688 16 12 16 C 12 15.339844 12 14.679688 12 14 Z M 12 14 "/>
<path style=" stroke:none;fill-rule:nonzero;fill:rgb(0%,2.745098%,30.588236%);fill-opacity:1;" d="M 8 14 C 8.660156 14 9.320312 14 10 14 C 10 14.660156 10 15.320312 10 16 C 9.339844 16 8.679688 16 8 16 C 8 15.339844 8 14.679688 8 14 Z M 8 14 "/>
<path style=" stroke:none;fill-rule:nonzero;fill:rgb(97.647059%,69.411767%,1.960784%);fill-opacity:1;" d="M 14.25 42.5 C 15.496094 42.683594 16.199219 43.488281 17.050781 44.359375 C 17.5625 45.085938 17.621094 45.394531 17.515625 46.265625 C 17.386719 46.835938 17.386719 46.835938 17.25 47.25 C 16.921875 47.167969 16.589844 47.085938 16.25 47 C 16.273438 46.839844 16.296875 46.679688 16.320312 46.515625 C 16.445312 45.132812 16.445312 45.132812 15.804688 43.953125 C 15.300781 43.527344 14.78125 43.136719 14.25 42.75 C 14.25 42.667969 14.25 42.585938 14.25 42.5 Z M 14.25 42.5 "/>
<path style=" stroke:none;fill-rule:nonzero;fill:rgb(94.509804%,68.627453%,5.882353%);fill-opacity:1;" d="M 12 38.5 C 11.914062 38.625 11.824219 38.746094 11.734375 38.875 C 11.386719 39.808594 11.585938 40.523438 11.75 41.5 C 11.503906 41.582031 11.253906 41.664062 11 41.75 C 10.753906 41.007812 10.503906 40.265625 10.25 39.5 C 11.4375 38.5 11.4375 38.5 12 38.5 Z M 12 38.5 "/>
<path style=" stroke:none;fill-rule:nonzero;fill:rgb(96.470588%,68.627453%,2.352941%);fill-opacity:1;" d="M 17.25 24.75 C 17.3125 25.109375 17.367188 25.46875 17.421875 25.828125 C 17.453125 26.027344 17.484375 26.226562 17.515625 26.433594 C 17.5 27 17.5 27 17.128906 27.449219 C 17.003906 27.546875 16.878906 27.648438 16.75 27.75 C 16.585938 27.667969 16.421875 27.585938 16.25 27.5 C 16.25 26.675781 16.25 25.851562 16.25 25 C 16.75 24.75 16.75 24.75 17.25 24.75 Z M 17.25 24.75 "/>
<path style=" stroke:none;fill-rule:nonzero;fill:rgb(93.333334%,65.882355%,2.352941%);fill-opacity:1;" d="M 11 30.25 C 11.246094 30.332031 11.496094 30.414062 11.75 30.5 C 11.503906 31.242188 11.253906 31.984375 11 32.75 C 10.753906 32.667969 10.503906 32.585938 10.25 32.5 C 10.496094 31.757812 10.746094 31.015625 11 30.25 Z M 11 30.25 "/>
<path style=" stroke:none;fill-rule:nonzero;fill:rgb(89.019608%,64.313728%,6.27451%);fill-opacity:1;" d="M 14.25 42.5 C 15.085938 42.644531 15.484375 42.898438 16.0625 43.515625 C 16.257812 43.71875 16.257812 43.71875 16.457031 43.929688 C 16.601562 44.085938 16.601562 44.085938 16.75 44.25 C 16.667969 44.496094 16.585938 44.746094 16.5 45 C 15.683594 44.207031 14.945312 43.398438 14.25 42.5 Z M 14.25 42.5 "/>
</g>
</svg>
