<?xml version="1.0" encoding="UTF-8"?>
<svg xmlns="http://www.w3.org/2000/svg" xmlns:xlink="http://www.w3.org/1999/xlink" width="64" height="64" viewBox="0 0 64 64" version="1.1">
<g id="surface1">
<path style=" stroke:none;fill-rule:nonzero;fill:rgb(17.647059%,21.176471%,37.254903%);fill-opacity:1;" d="M 33.398438 3.433594 C 33.675781 3.433594 33.953125 3.429688 34.242188 3.429688 C 34.535156 3.433594 34.824219 3.4375 35.125 3.4375 C 35.414062 3.4375 35.707031 3.433594 36.007812 3.429688 C 36.285156 3.429688 36.566406 3.433594 36.851562 3.433594 C 37.109375 3.433594 37.363281 3.433594 37.628906 3.4375 C 38.25 3.5 38.25 3.5 38.75 4 C 38.78125 4.90625 38.78125 4.90625 38.75 5.75 C 39.101562 5.882812 39.457031 6.011719 39.8125 6.140625 C 40.109375 6.25 40.109375 6.25 40.410156 6.359375 C 41.0625 6.515625 41.375 6.484375 42 6.25 C 42.25 6.085938 42.496094 5.921875 42.75 5.75 C 44.230469 5.859375 44.96875 6.785156 45.96875 7.78125 C 46.144531 7.945312 46.320312 8.109375 46.5 8.277344 C 47.746094 9.507812 47.746094 9.507812 47.769531 10.699219 C 47.5 11.5 47.5 11.5 47 12.25 C 47.160156 12.890625 47.160156 12.890625 47.46875 13.546875 C 47.617188 13.882812 47.617188 13.882812 47.761719 14.230469 C 47.839844 14.402344 47.917969 14.574219 48 14.75 C 48.285156 14.785156 48.570312 14.820312 48.859375 14.859375 C 49.75 15 49.75 15 50 15.25 C 50.027344 15.730469 50.035156 16.207031 50.035156 16.6875 C 50.035156 16.980469 50.035156 17.269531 50.035156 17.570312 C 50.035156 17.875 50.035156 18.183594 50.03125 18.5 C 50.035156 18.804688 50.035156 19.113281 50.035156 19.429688 C 50.035156 19.722656 50.035156 20.011719 50.035156 20.3125 C 50.035156 20.582031 50.035156 20.851562 50.035156 21.128906 C 50 21.75 50 21.75 49.75 22 C 49.167969 22.089844 48.582031 22.175781 48 22.25 C 47.8125 22.6875 47.632812 23.125 47.453125 23.5625 C 47.300781 23.929688 47.300781 23.929688 47.144531 24.300781 C 47.097656 24.53125 47.046875 24.761719 47 25 C 47.339844 25.519531 47.339844 25.519531 47.75 26 C 47.839844 26.734375 47.84375 27.109375 47.425781 27.730469 C 47.277344 27.882812 47.128906 28.03125 46.972656 28.183594 C 46.8125 28.347656 46.644531 28.511719 46.476562 28.679688 C 46.304688 28.847656 46.132812 29.015625 45.953125 29.1875 C 45.785156 29.359375 45.617188 29.527344 45.445312 29.707031 C 43.984375 31.144531 43.984375 31.144531 42.75 31.25 C 42.589844 31.125 42.433594 31 42.269531 30.871094 C 41.753906 30.414062 41.753906 30.414062 40.996094 30.589844 C 40.726562 30.667969 40.464844 30.75 40.1875 30.828125 C 39.917969 30.902344 39.648438 30.980469 39.371094 31.058594 C 39.164062 31.125 38.960938 31.1875 38.75 31.25 C 38.761719 31.527344 38.769531 31.804688 38.78125 32.09375 C 38.75 33 38.75 33 38.25 33.5 C 37.628906 33.5625 37.628906 33.5625 36.851562 33.566406 C 36.574219 33.566406 36.296875 33.570312 36.007812 33.570312 C 35.714844 33.566406 35.425781 33.5625 35.125 33.5625 C 34.832031 33.5625 34.539062 33.566406 34.242188 33.570312 C 33.964844 33.570312 33.6875 33.566406 33.398438 33.566406 C 33.144531 33.566406 32.886719 33.566406 32.625 33.5625 C 32 33.5 32 33.5 31.5 33 C 31.46875 32.09375 31.46875 32.09375 31.5 31.25 C 31.023438 31.105469 30.542969 30.964844 30.0625 30.828125 C 29.796875 30.75 29.527344 30.671875 29.253906 30.589844 C 28.5 30.414062 28.5 30.414062 27.980469 30.871094 C 27.820312 30.996094 27.664062 31.121094 27.5 31.25 C 26.011719 31.121094 25.300781 30.214844 24.296875 29.203125 C 24.125 29.039062 23.949219 28.875 23.769531 28.703125 C 22.546875 27.480469 22.546875 27.480469 22.339844 26.441406 C 22.5 25.75 22.5 25.75 22.902344 25.238281 C 23.019531 25.074219 23.132812 24.917969 23.25 24.75 C 23.125 24.085938 23.125 24.085938 22.796875 23.4375 C 22.699219 23.214844 22.597656 22.992188 22.496094 22.761719 C 22.414062 22.59375 22.332031 22.421875 22.25 22.25 C 21.972656 22.222656 21.695312 22.199219 21.40625 22.171875 C 21.105469 22.117188 20.808594 22.058594 20.5 22 C 19.957031 21.1875 19.9375 20.945312 19.933594 20 C 19.933594 19.757812 19.933594 19.515625 19.929688 19.265625 C 19.933594 19.011719 19.9375 18.761719 19.9375 18.5 C 19.9375 18.246094 19.933594 17.992188 19.929688 17.734375 C 19.933594 17.492188 19.933594 17.25 19.933594 17 C 19.933594 16.777344 19.9375 16.554688 19.9375 16.328125 C 20 15.75 20 15.75 20.5 15 C 21.40625 14.828125 21.40625 14.828125 22.25 14.75 C 22.582031 13.84375 22.910156 12.9375 23.25 12 C 23.003906 11.753906 22.757812 11.507812 22.5 11.25 C 22.339844 10.574219 22.339844 10.574219 22.5 9.75 C 23.023438 9.019531 23.648438 8.417969 24.296875 7.796875 C 24.464844 7.625 24.632812 7.457031 24.804688 7.28125 C 26.261719 5.859375 26.261719 5.859375 27.5 5.75 C 27.660156 5.875 27.816406 6 27.980469 6.132812 C 28.5 6.585938 28.5 6.585938 29.253906 6.410156 C 29.519531 6.332031 29.789062 6.253906 30.0625 6.171875 C 30.332031 6.097656 30.601562 6.019531 30.878906 5.941406 C 31.082031 5.878906 31.289062 5.8125 31.5 5.75 C 31.492188 5.472656 31.476562 5.195312 31.46875 4.90625 C 31.519531 3.425781 32.078125 3.4375 33.398438 3.433594 Z M 29 12.75 C 27.453125 14.597656 26.574219 16.671875 26.664062 19.097656 C 27 21.636719 28.234375 23.738281 30.21875 25.328125 C 32.457031 26.871094 34.707031 27.09375 37.394531 26.640625 C 39.636719 26.007812 41.230469 24.480469 42.449219 22.554688 C 43.519531 20.570312 43.808594 18.242188 43.214844 16.054688 C 42.234375 13.5 40.660156 11.867188 38.222656 10.691406 C 34.925781 9.363281 31.464844 10.355469 29 12.75 Z M 29 12.75 "/>
<path style=" stroke:none;fill-rule:nonzero;fill:rgb(17.647059%,21.176471%,37.254903%);fill-opacity:1;" d="M 35 34.5 C 35.394531 34.605469 35.394531 34.605469 35.796875 34.710938 C 36.066406 34.792969 36.332031 34.871094 36.609375 34.953125 C 36.988281 35.066406 36.988281 35.066406 37.375 35.175781 C 38 35.5 38 35.5 38.34375 36.113281 C 38.523438 36.835938 38.453125 37.289062 38.25 38 C 38.40625 38.074219 38.558594 38.144531 38.71875 38.21875 C 39.25 38.5 39.25 38.5 39.75 39 C 40.300781 39.058594 40.300781 39.058594 40.90625 39.03125 C 41.109375 39.027344 41.316406 39.023438 41.523438 39.015625 C 41.761719 39.011719 41.761719 39.011719 42 39 C 42.378906 39.679688 42.753906 40.363281 43.125 41.046875 C 43.234375 41.238281 43.339844 41.433594 43.449219 41.628906 C 44.488281 43.546875 44.488281 43.546875 44.25 44.5 C 43.917969 44.753906 43.585938 45.003906 43.25 45.25 C 43.074219 45.871094 43.074219 45.871094 43.0625 46.546875 C 43.039062 46.886719 43.039062 46.886719 43.019531 47.230469 C 43.011719 47.402344 43.007812 47.574219 43 47.75 C 43.496094 47.914062 43.988281 48.078125 44.5 48.25 C 44.566406 49.628906 44.359375 50.675781 43.90625 51.953125 C 43.851562 52.121094 43.796875 52.289062 43.738281 52.457031 C 43.488281 53.191406 43.304688 53.695312 42.75 54.25 C 41.417969 54.332031 41.417969 54.332031 40.75 54 C 40.683594 54.144531 40.613281 54.289062 40.546875 54.4375 C 40.25 55 40.25 55 39.828125 55.453125 C 39.34375 56.261719 39.5625 56.859375 39.75 57.75 C 38.640625 58.484375 37.523438 59.144531 36.328125 59.734375 C 36.105469 59.84375 35.882812 59.953125 35.652344 60.070312 C 35 60.25 35 60.25 34.304688 60.066406 C 33.75 59.75 33.75 59.75 33.546875 59.21875 C 33.523438 58.988281 33.523438 58.988281 33.5 58.75 C 33.253906 58.832031 33.003906 58.914062 32.75 59 C 32.402344 59.015625 32.050781 59.023438 31.703125 59.015625 C 31.386719 59.011719 31.074219 59.003906 30.75 59 C 30.667969 59.414062 30.585938 59.824219 30.5 60.25 C 29.09375 60.628906 28.136719 60.324219 26.8125 59.84375 C 26.621094 59.78125 26.429688 59.71875 26.234375 59.65625 C 24.855469 59.167969 24.855469 59.167969 24.371094 58.386719 C 24.25 57.75 24.25 57.75 24.25 56.75 C 23.761719 56.011719 23.761719 56.011719 23 55.5 C 22.414062 55.574219 21.832031 55.65625 21.25 55.75 C 20.3125 55.023438 19.824219 54.058594 19.3125 53.015625 C 19.234375 52.863281 19.15625 52.710938 19.074219 52.554688 C 18.628906 51.667969 18.402344 50.992188 18.5 50 C 18.914062 49.835938 19.324219 49.671875 19.75 49.5 C 19.75 48.59375 19.75 47.683594 19.75 46.75 C 19.253906 46.585938 18.761719 46.421875 18.25 46.25 C 18.160156 44.796875 18.445312 43.746094 18.984375 42.40625 C 19.054688 42.226562 19.121094 42.046875 19.195312 41.859375 C 19.707031 40.542969 19.707031 40.542969 20 40.25 C 20.671875 40.296875 21.332031 40.40625 22 40.5 C 22.066406 40.355469 22.136719 40.210938 22.203125 40.0625 C 22.5 39.5 22.5 39.5 22.921875 39.046875 C 23.402344 38.246094 23.15625 37.644531 23 36.75 C 23.675781 36.371094 24.351562 35.996094 25.03125 35.625 C 25.222656 35.515625 25.414062 35.410156 25.609375 35.300781 C 26.699219 34.707031 27.472656 34.351562 28.75 34.5 C 28.914062 34.914062 29.078125 35.324219 29.25 35.75 C 30.15625 35.667969 31.066406 35.585938 32 35.5 C 32.082031 35.085938 32.164062 34.675781 32.25 34.25 C 33.128906 33.808594 34.085938 34.257812 35 34.5 Z M 26.367188 43.011719 C 24.980469 44.859375 24.714844 46.714844 25 49 C 25.601562 51.003906 27.039062 52.171875 28.761719 53.246094 C 30.125 53.953125 31.695312 53.96875 33.15625 53.570312 C 34.453125 53.089844 35.351562 52.582031 36.25 51.5 C 36.429688 51.300781 36.609375 51.097656 36.796875 50.890625 C 37.910156 49.316406 37.941406 47.621094 37.75 45.75 C 37.324219 44.089844 36.398438 42.746094 35 41.75 C 31.949219 40.210938 28.746094 40.347656 26.367188 43.011719 Z M 26.367188 43.011719 "/>
<path style=" stroke:none;fill-rule:nonzero;fill:rgb(17.647059%,21.176471%,37.254903%);fill-opacity:1;" d="M 10.375 19.933594 C 10.597656 19.933594 10.816406 19.929688 11.046875 19.929688 C 11.28125 19.933594 11.511719 19.9375 11.75 19.9375 C 11.984375 19.9375 12.214844 19.933594 12.453125 19.929688 C 12.785156 19.933594 12.785156 19.933594 13.125 19.933594 C 13.328125 19.933594 13.53125 19.933594 13.742188 19.9375 C 14.25 20 14.25 20 14.75 20.5 C 14.78125 21.15625 14.78125 21.15625 14.75 21.75 C 15.238281 21.820312 15.238281 21.820312 15.734375 21.890625 C 15.917969 21.917969 16.101562 21.945312 16.289062 21.96875 C 16.515625 21.984375 16.515625 21.984375 16.75 22 C 16.832031 21.917969 16.914062 21.835938 17 21.75 C 17.730469 21.636719 18.265625 21.597656 18.90625 22.007812 C 19.324219 22.371094 19.710938 22.753906 20.09375 23.15625 C 20.230469 23.285156 20.367188 23.417969 20.507812 23.550781 C 21.191406 24.242188 21.480469 24.574219 21.597656 25.570312 C 21.5 26.25 21.5 26.25 21.359375 26.765625 C 21.21875 27.398438 21.34375 27.878906 21.5 28.5 C 21.796875 28.484375 21.796875 28.484375 22.09375 28.46875 C 22.75 28.5 22.75 28.5 23.25 29 C 23.316406 29.507812 23.316406 29.507812 23.316406 30.125 C 23.316406 30.457031 23.316406 30.457031 23.316406 30.796875 C 23.316406 31.027344 23.316406 31.261719 23.3125 31.5 C 23.316406 31.847656 23.316406 31.847656 23.316406 32.203125 C 23.316406 32.425781 23.316406 32.644531 23.316406 32.875 C 23.316406 33.078125 23.316406 33.285156 23.316406 33.492188 C 23.25 34 23.25 34 22.75 34.5 C 22.09375 34.53125 22.09375 34.53125 21.5 34.5 C 21.453125 34.824219 21.40625 35.148438 21.359375 35.484375 C 21.332031 35.667969 21.308594 35.847656 21.28125 36.039062 C 21.269531 36.191406 21.261719 36.34375 21.25 36.5 C 21.332031 36.582031 21.414062 36.667969 21.5 36.75 C 21.613281 37.480469 21.652344 38.015625 21.238281 38.652344 C 20.871094 39.074219 20.484375 39.457031 20.078125 39.84375 C 19.945312 39.980469 19.8125 40.117188 19.675781 40.257812 C 19.078125 40.839844 18.65625 41.222656 17.824219 41.367188 C 17.25 41.25 17.25 41.25 16.5 40.75 C 15.585938 40.949219 15.585938 40.949219 14.75 41.25 C 14.761719 41.445312 14.769531 41.640625 14.78125 41.84375 C 14.75 42.5 14.75 42.5 14.25 43 C 13.742188 43.0625 13.742188 43.0625 13.125 43.066406 C 12.902344 43.066406 12.683594 43.070312 12.453125 43.070312 C 12.21875 43.066406 11.988281 43.0625 11.75 43.0625 C 11.515625 43.0625 11.285156 43.066406 11.046875 43.070312 C 10.714844 43.070312 10.714844 43.070312 10.375 43.066406 C 10.171875 43.066406 9.96875 43.066406 9.757812 43.0625 C 9.25 43 9.25 43 8.75 42.5 C 8.71875 41.84375 8.71875 41.84375 8.75 41.25 C 8.171875 41.085938 7.59375 40.921875 7 40.75 C 6.753906 41 6.753906 41 6.5 41.25 C 5.761719 41.378906 5.246094 41.402344 4.59375 40.996094 C 4.167969 40.636719 3.78125 40.257812 3.390625 39.859375 C 3.253906 39.730469 3.113281 39.605469 2.96875 39.472656 C 2.578125 39.078125 2.269531 38.734375 2 38.25 C 2.019531 37.375 2.109375 36.78125 2.5 36 C 2.347656 35.496094 2.183594 34.992188 2 34.5 C 1.703125 34.515625 1.703125 34.515625 1.40625 34.53125 C 0.75 34.5 0.75 34.5 0.25 34 C 0.183594 33.492188 0.183594 33.492188 0.183594 32.875 C 0.183594 32.652344 0.183594 32.429688 0.183594 32.203125 C 0.183594 31.855469 0.183594 31.855469 0.1875 31.5 C 0.183594 31.269531 0.183594 31.035156 0.183594 30.796875 C 0.183594 30.574219 0.183594 30.355469 0.183594 30.125 C 0.183594 29.921875 0.183594 29.71875 0.183594 29.507812 C 0.25 29 0.25 29 0.75 28.5 C 1.40625 28.46875 1.40625 28.46875 2 28.5 C 2.097656 28.179688 2.191406 27.855469 2.28125 27.53125 C 2.332031 27.351562 2.386719 27.171875 2.441406 26.984375 C 2.460938 26.824219 2.480469 26.667969 2.5 26.5 C 2.335938 26.335938 2.171875 26.171875 2 26 C 1.878906 25.445312 1.878906 25.445312 2 24.75 C 2.453125 24.164062 2.878906 23.683594 3.40625 23.171875 C 3.539062 23.035156 3.667969 22.894531 3.800781 22.757812 C 4.496094 22.066406 4.824219 21.769531 5.816406 21.652344 C 6.5 21.75 6.5 21.75 7.015625 21.890625 C 7.648438 22.035156 8.128906 21.90625 8.75 21.75 C 8.738281 21.554688 8.730469 21.359375 8.71875 21.15625 C 8.773438 19.984375 9.351562 19.9375 10.375 19.933594 Z M 7 28.25 C 6.070312 29.730469 6.050781 31.296875 6.25 33 C 6.683594 34.546875 7.667969 35.632812 9 36.5 C 10.507812 37.230469 12.226562 37.285156 13.835938 36.835938 C 15.429688 36.121094 16.523438 34.878906 17.234375 33.296875 C 17.683594 31.910156 17.589844 30.527344 17.003906 29.191406 C 15.949219 27.378906 14.511719 26.292969 12.5 25.75 C 10.339844 25.417969 8.375 26.707031 7 28.25 Z M 7 28.25 "/>
<path style=" stroke:none;fill-rule:nonzero;fill:rgb(100%,40.784314%,34.901962%);fill-opacity:1;" d="M 53.34375 28.539062 C 54.039062 28.761719 54.613281 29.042969 55.25 29.40625 C 55.484375 29.539062 55.722656 29.675781 55.964844 29.816406 C 56.214844 29.957031 56.460938 30.101562 56.71875 30.25 C 56.972656 30.398438 57.230469 30.542969 57.492188 30.691406 C 63.246094 33.996094 63.246094 33.996094 63.75 34.5 C 63.824219 35.097656 63.824219 35.097656 63.75 35.75 C 63.375 36.132812 63.375 36.132812 62.832031 36.457031 C 62.625 36.585938 62.421875 36.710938 62.207031 36.839844 C 61.972656 36.976562 61.742188 37.109375 61.5 37.25 C 61.242188 37.402344 60.988281 37.550781 60.722656 37.710938 C 59.882812 38.203125 59.035156 38.6875 58.1875 39.171875 C 57.613281 39.5 57.039062 39.828125 56.464844 40.160156 C 56.214844 40.300781 55.960938 40.445312 55.703125 40.59375 C 55.238281 40.863281 54.777344 41.136719 54.328125 41.421875 C 53.648438 41.808594 53.265625 41.875 52.5 41.75 C 51.964844 40.949219 51.941406 40.746094 51.96875 39.828125 C 51.972656 39.628906 51.980469 39.425781 51.980469 39.214844 C 51.988281 39.0625 51.992188 38.910156 52 38.75 C 51.785156 38.753906 51.570312 38.757812 51.347656 38.761719 C 50.546875 38.773438 49.742188 38.785156 48.945312 38.792969 C 48.597656 38.792969 48.25 38.800781 47.902344 38.808594 C 47.40625 38.816406 46.90625 38.820312 46.410156 38.820312 C 46.109375 38.828125 45.808594 38.832031 45.5 38.835938 C 44.75 38.75 44.75 38.75 44.277344 38.453125 C 43.902344 37.839844 43.90625 37.40625 43.910156 36.6875 C 43.910156 36.304688 43.910156 36.304688 43.910156 35.914062 C 43.914062 35.648438 43.917969 35.382812 43.921875 35.109375 C 43.921875 34.84375 43.921875 34.578125 43.917969 34.300781 C 43.933594 32.316406 43.933594 32.316406 44.5 31.75 C 45.246094 31.691406 45.246094 31.691406 46.1875 31.703125 C 46.4375 31.703125 46.4375 31.703125 46.691406 31.703125 C 47.222656 31.707031 47.75 31.710938 48.28125 31.71875 C 48.640625 31.722656 49 31.726562 49.359375 31.726562 C 50.238281 31.730469 51.117188 31.738281 52 31.75 C 51.992188 31.578125 51.980469 31.40625 51.972656 31.230469 C 51.964844 31.003906 51.957031 30.78125 51.953125 30.546875 C 51.9375 30.210938 51.9375 30.210938 51.925781 29.871094 C 52 29.25 52 29.25 52.300781 28.777344 C 52.75 28.5 52.75 28.5 53.34375 28.539062 Z M 53.34375 28.539062 "/>
<path style=" stroke:none;fill-rule:nonzero;fill:rgb(17.647059%,21.176471%,37.254903%);fill-opacity:1;" d="M 38.695312 12.847656 C 40.359375 14.050781 41.347656 15.480469 41.75 17.5 C 41.964844 19.398438 41.488281 21.210938 40.371094 22.78125 C 39.148438 24.109375 37.765625 24.878906 35.960938 25.09375 C 33.808594 25.171875 32.234375 24.804688 30.5625 23.4375 C 29.113281 21.664062 28.398438 20.238281 28.433594 17.929688 C 28.613281 16.101562 29.390625 14.589844 30.757812 13.367188 C 33.128906 11.59375 36.101562 11.347656 38.695312 12.847656 Z M 38.695312 12.847656 "/>
<path style=" stroke:none;fill-rule:nonzero;fill:rgb(17.647059%,21.176471%,37.254903%);fill-opacity:1;" d="M 34 43.25 C 35.050781 43.941406 35.59375 44.550781 36 45.75 C 36.210938 47.609375 36.15625 49 35 50.5 C 33.910156 51.535156 32.917969 52.015625 31.421875 52.09375 C 30.011719 52.054688 28.882812 51.601562 27.859375 50.625 C 26.710938 49.308594 26.664062 48.183594 26.679688 46.503906 C 26.808594 45.136719 27.359375 44.378906 28.34375 43.421875 C 30.25 42.195312 32.007812 42.21875 34 43.25 Z M 34 43.25 "/>
<path style=" stroke:none;fill-rule:nonzero;fill:rgb(17.647059%,21.176471%,37.254903%);fill-opacity:1;" d="M 14.0625 28.140625 C 15.070312 29.035156 15.695312 29.957031 15.789062 31.328125 C 15.699219 32.617188 15.355469 33.503906 14.5 34.5 C 13.335938 35.332031 12.410156 35.417969 11.003906 35.390625 C 9.769531 35.160156 9.035156 34.449219 8.25 33.5 C 7.726562 32.453125 7.890625 31.136719 8 30 C 8.621094 28.691406 9.390625 28.105469 10.703125 27.5625 C 11.953125 27.421875 12.945312 27.601562 14.0625 28.140625 Z M 14.0625 28.140625 "/>
</g>
</svg>
