<?xml version="1.0" encoding="UTF-8"?>
<svg xmlns="http://www.w3.org/2000/svg" xmlns:xlink="http://www.w3.org/1999/xlink" width="64" height="64" viewBox="0 0 64 64" version="1.1">
<g id="surface1">
<path style=" stroke:none;fill-rule:nonzero;fill:rgb(96.862745%,36.078432%,38.431373%);fill-opacity:1;" d="M 48.890625 3.9375 C 51.941406 6.246094 54.050781 9.378906 54.601562 13.203125 C 55.089844 17.789062 53.851562 21.441406 51 25 C 50.050781 26.050781 49.0625 27.050781 48.058594 28.050781 C 47.777344 28.335938 47.492188 28.617188 47.210938 28.898438 C 46.625 29.488281 46.035156 30.078125 45.445312 30.664062 C 44.695312 31.414062 43.949219 32.164062 43.207031 32.914062 C 42.628906 33.496094 42.046875 34.078125 41.460938 34.664062 C 41.1875 34.9375 40.910156 35.214844 40.636719 35.492188 C 37.296875 38.863281 33.652344 41.183594 28.796875 41.328125 C 27.140625 41.304688 25.59375 40.933594 24 40.5 C 24 38.851562 25.234375 38.039062 26.34375 36.914062 C 27.914062 35.421875 29.101562 35.085938 31.25 35 C 34.929688 33.933594 38.003906 29.578125 40.664062 26.9375 C 41.179688 26.425781 41.699219 25.917969 42.21875 25.410156 C 42.855469 24.789062 43.488281 24.164062 44.117188 23.535156 C 44.46875 23.183594 44.824219 22.84375 45.179688 22.496094 C 47.175781 20.492188 48.589844 18.324219 48.8125 15.453125 C 48.65625 13.078125 47.769531 10.953125 46.027344 9.300781 C 43.84375 7.5625 41.773438 7.230469 39 7.5 C 35.796875 8.175781 33.511719 11.195312 31.28125 13.40625 C 31.160156 13.527344 31.039062 13.648438 30.910156 13.773438 C 30.261719 14.421875 29.613281 15.066406 28.964844 15.710938 C 28.304688 16.371094 27.636719 17.027344 26.96875 17.683594 C 26.453125 18.195312 25.9375 18.710938 25.421875 19.226562 C 25.179688 19.46875 24.929688 19.710938 24.6875 19.949219 C 22.246094 22.289062 22.246094 22.289062 21.175781 25.382812 C 21.191406 25.804688 21.191406 25.804688 21.203125 26.234375 C 20.941406 29.144531 18.328125 30.933594 16.25 32.75 C 15.75 32.5 15.75 32.5 15.539062 32.050781 C 14.402344 28.363281 14.648438 24.296875 16.320312 20.835938 C 17.847656 18.085938 20.304688 15.902344 22.5 13.691406 C 22.625 13.566406 22.75 13.4375 22.882812 13.304688 C 23.554688 12.628906 24.222656 11.953125 24.894531 11.28125 C 25.582031 10.59375 26.265625 9.898438 26.949219 9.207031 C 27.480469 8.667969 28.015625 8.132812 28.550781 7.59375 C 28.804688 7.339844 29.054688 7.085938 29.304688 6.828125 C 31.269531 4.835938 33.359375 2.972656 36.09375 2.15625 C 36.332031 2.082031 36.574219 2.007812 36.816406 1.933594 C 41.007812 0.816406 45.308594 1.492188 48.890625 3.9375 Z M 48.890625 3.9375 "/>
<path style=" stroke:none;fill-rule:nonzero;fill:rgb(96.078432%,27.450982%,44.313726%);fill-opacity:1;" d="M 40 23.5 C 40 25.148438 38.765625 25.960938 37.652344 27.085938 C 36.367188 28.308594 35.398438 28.941406 33.566406 28.910156 C 30.84375 29.210938 28.988281 31.324219 27.160156 33.164062 C 26.871094 33.453125 26.578125 33.742188 26.289062 34.03125 C 25.683594 34.628906 25.082031 35.234375 24.484375 35.839844 C 23.71875 36.609375 22.949219 37.375 22.175781 38.136719 C 21.578125 38.726562 20.980469 39.324219 20.386719 39.921875 C 20.105469 40.203125 19.820312 40.488281 19.535156 40.765625 C 17.28125 42.992188 15.445312 45.273438 15.1875 48.546875 C 15.34375 50.921875 16.230469 53.046875 17.972656 54.699219 C 20.15625 56.4375 22.226562 56.769531 25 56.5 C 29.027344 55.648438 32.199219 51.132812 35.019531 48.332031 C 35.546875 47.808594 36.078125 47.285156 36.609375 46.765625 C 37.261719 46.128906 37.910156 45.488281 38.554688 44.847656 C 38.914062 44.488281 39.277344 44.136719 39.640625 43.785156 C 41.496094 41.925781 43.066406 39.941406 43.078125 37.214844 C 43.136719 35.640625 43.761719 34.949219 44.871094 33.886719 C 45.085938 33.699219 45.296875 33.507812 45.515625 33.3125 C 45.730469 33.113281 45.941406 32.910156 46.164062 32.703125 C 46.683594 32.210938 47.214844 31.726562 47.75 31.25 C 48.25 31.5 48.25 31.5 48.460938 31.949219 C 49.597656 35.636719 49.351562 39.703125 47.675781 43.164062 C 46.152344 45.914062 43.699219 48.097656 41.503906 50.308594 C 41.375 50.433594 41.246094 50.5625 41.117188 50.695312 C 40.449219 51.371094 39.773438 52.046875 39.105469 52.71875 C 38.417969 53.40625 37.734375 54.101562 37.050781 54.792969 C 36.519531 55.332031 35.984375 55.867188 35.449219 56.40625 C 35.199219 56.660156 34.945312 56.914062 34.695312 57.171875 C 32.734375 59.164062 30.640625 61.027344 27.90625 61.84375 C 27.667969 61.917969 27.425781 61.992188 27.183594 62.066406 C 23.535156 63.039062 19.691406 62.667969 16.359375 60.875 C 12.976562 58.792969 11.050781 56.082031 9.6875 52.40625 C 8.878906 48.488281 9.226562 44.539062 11.40625 41.113281 C 12.757812 39.222656 14.300781 37.585938 15.941406 35.949219 C 16.226562 35.664062 16.507812 35.382812 16.789062 35.101562 C 17.375 34.511719 17.964844 33.921875 18.554688 33.335938 C 19.300781 32.585938 20.046875 31.835938 20.792969 31.085938 C 21.371094 30.503906 21.953125 29.921875 22.539062 29.335938 C 22.816406 29.0625 23.089844 28.785156 23.363281 28.507812 C 28.171875 23.648438 33.246094 21.640625 40 23.5 Z M 40 23.5 "/>
</g>
</svg>
