<?xml version="1.0" encoding="UTF-8"?>
<svg xmlns="http://www.w3.org/2000/svg" xmlns:xlink="http://www.w3.org/1999/xlink" width="64" height="64" viewBox="0 0 64 64" version="1.1">
<g id="surface1">
<path style=" stroke:none;fill-rule:nonzero;fill:rgb(16.862746%,73.333335%,91.37255%);fill-opacity:1;" d="M 7.4375 24.898438 C 7.683594 24.898438 7.683594 24.898438 7.933594 24.898438 C 8.28125 24.898438 8.625 24.898438 8.96875 24.902344 C 9.496094 24.90625 10.023438 24.902344 10.554688 24.898438 C 10.890625 24.898438 11.226562 24.898438 11.5625 24.898438 C 11.867188 24.898438 12.171875 24.902344 12.488281 24.902344 C 13.25 25 13.25 25 13.726562 25.332031 C 14.167969 26.003906 14.070312 26.632812 14.046875 27.421875 C 14.039062 27.867188 14.039062 27.867188 14.027344 28.316406 C 14.015625 28.539062 14.011719 28.769531 14 29 C 14.660156 29 15.320312 29 16 29 C 15.988281 28.660156 15.988281 28.660156 15.972656 28.316406 C 15.96875 28.019531 15.960938 27.726562 15.953125 27.421875 C 15.945312 27.128906 15.933594 26.835938 15.925781 26.535156 C 16 25.75 16 25.75 16.273438 25.332031 C 16.988281 24.835938 17.578125 24.902344 18.4375 24.898438 C 18.683594 24.898438 18.683594 24.898438 18.933594 24.898438 C 19.28125 24.898438 19.625 24.898438 19.96875 24.902344 C 20.496094 24.90625 21.023438 24.902344 21.554688 24.898438 C 21.890625 24.898438 22.226562 24.898438 22.5625 24.898438 C 22.867188 24.898438 23.171875 24.902344 23.488281 24.902344 C 24.25 25 24.25 25 24.726562 25.332031 C 25.167969 26.003906 25.070312 26.632812 25.046875 27.421875 C 25.039062 27.867188 25.039062 27.867188 25.027344 28.316406 C 25.015625 28.539062 25.011719 28.769531 25 29 C 25.988281 29 26.980469 29 28 29 C 27.988281 28.660156 27.988281 28.660156 27.972656 28.316406 C 27.96875 28.019531 27.960938 27.726562 27.953125 27.421875 C 27.945312 27.128906 27.933594 26.835938 27.925781 26.535156 C 28 25.75 28 25.75 28.273438 25.332031 C 28.988281 24.835938 29.578125 24.902344 30.4375 24.898438 C 30.683594 24.898438 30.683594 24.898438 30.933594 24.898438 C 31.28125 24.898438 31.625 24.898438 31.96875 24.902344 C 32.496094 24.90625 33.023438 24.902344 33.554688 24.898438 C 33.890625 24.898438 34.226562 24.898438 34.5625 24.898438 C 34.867188 24.898438 35.171875 24.902344 35.488281 24.902344 C 36.25 25 36.25 25 36.726562 25.332031 C 37.167969 26.003906 37.070312 26.632812 37.046875 27.421875 C 37.039062 27.867188 37.039062 27.867188 37.027344 28.316406 C 37.015625 28.539062 37.011719 28.769531 37 29 C 37.203125 28.988281 37.410156 28.976562 37.621094 28.964844 C 37.890625 28.957031 38.160156 28.949219 38.4375 28.9375 C 38.703125 28.925781 38.96875 28.914062 39.246094 28.902344 C 40.191406 29.023438 40.417969 29.257812 41 30 C 41.128906 30.683594 41.128906 30.683594 41.128906 31.476562 C 41.132812 31.769531 41.136719 32.066406 41.140625 32.375 C 41.136719 32.695312 41.136719 33.015625 41.132812 33.34375 C 41.136719 33.671875 41.136719 34.003906 41.136719 34.339844 C 41.136719 35.039062 41.136719 35.734375 41.128906 36.429688 C 41.125 37.320312 41.128906 38.210938 41.136719 39.101562 C 41.136719 39.953125 41.136719 40.804688 41.132812 41.65625 C 41.136719 41.976562 41.136719 42.296875 41.140625 42.625 C 41.136719 43.070312 41.136719 43.070312 41.128906 43.523438 C 41.128906 43.785156 41.128906 44.046875 41.128906 44.316406 C 40.960938 45.199219 40.699219 45.449219 40 46 C 39.269531 46.125 39.269531 46.125 38.40625 46.128906 C 37.914062 46.128906 37.914062 46.128906 37.414062 46.136719 C 37.046875 46.132812 36.683594 46.128906 36.324219 46.128906 C 35.941406 46.128906 35.558594 46.132812 35.175781 46.136719 C 34.136719 46.140625 33.09375 46.136719 32.058594 46.136719 C 30.96875 46.132812 29.882812 46.136719 28.796875 46.136719 C 26.96875 46.136719 25.140625 46.136719 23.316406 46.128906 C 21.203125 46.125 19.09375 46.128906 16.984375 46.132812 C 15.171875 46.136719 13.359375 46.136719 11.546875 46.136719 C 10.460938 46.132812 9.378906 46.132812 8.296875 46.136719 C 7.28125 46.140625 6.261719 46.136719 5.246094 46.128906 C 4.871094 46.128906 4.496094 46.128906 4.121094 46.132812 C 3.613281 46.136719 3.105469 46.128906 2.59375 46.128906 C 2.308594 46.125 2.023438 46.125 1.730469 46.125 C 0.835938 45.972656 0.542969 45.710938 0 45 C -0.128906 44.316406 -0.128906 44.316406 -0.128906 43.523438 C -0.132812 43.226562 -0.136719 42.929688 -0.140625 42.625 C -0.136719 42.144531 -0.136719 42.144531 -0.132812 41.65625 C -0.136719 41.328125 -0.136719 40.996094 -0.136719 40.65625 C -0.136719 39.960938 -0.136719 39.269531 -0.128906 38.570312 C -0.125 37.679688 -0.128906 36.789062 -0.136719 35.898438 C -0.136719 35.046875 -0.136719 34.195312 -0.132812 33.34375 C -0.136719 33.023438 -0.136719 32.703125 -0.140625 32.375 C -0.136719 32.078125 -0.132812 31.78125 -0.128906 31.476562 C -0.128906 31.210938 -0.128906 30.953125 -0.128906 30.683594 C 0.03125 29.820312 0.300781 29.523438 1 29 C 1.722656 28.929688 2.34375 28.90625 3.0625 28.9375 C 3.34375 28.945312 3.34375 28.945312 3.628906 28.949219 C 4.085938 28.960938 4.542969 28.980469 5 29 C 4.988281 28.660156 4.988281 28.660156 4.972656 28.316406 C 4.96875 28.019531 4.960938 27.726562 4.953125 27.421875 C 4.945312 27.128906 4.933594 26.835938 4.925781 26.535156 C 5 25.75 5 25.75 5.273438 25.332031 C 5.988281 24.835938 6.578125 24.902344 7.4375 24.898438 Z M 7.4375 24.898438 "/>
<path style=" stroke:none;fill-rule:nonzero;fill:rgb(96.470588%,49.019608%,62.352943%);fill-opacity:1;" d="M 37 0 C 37.949219 0.449219 38.808594 1.003906 39.6875 1.578125 C 40.042969 1.800781 40.042969 1.800781 40.402344 2.03125 C 42.503906 3.363281 42.503906 3.363281 43 4 C 42.976562 5.539062 42.578125 6.46875 41.75 7.75 C 42.347656 8.222656 42.765625 8.503906 43.5 8.75 C 43.601562 8.480469 43.601562 8.480469 43.703125 8.203125 C 44.46875 6.390625 44.46875 6.390625 45.25 6 C 46.789062 5.84375 47.613281 6.226562 48.859375 7.03125 C 49.023438 7.132812 49.183594 7.234375 49.355469 7.339844 C 52.035156 9.035156 52.035156 9.035156 53 10 C 52.910156 11.347656 52.722656 12.101562 52 13.25 C 52.167969 14.027344 52.167969 14.027344 52.765625 14.296875 C 52.925781 14.363281 53.085938 14.429688 53.25 14.5 C 53.351562 14.339844 53.453125 14.179688 53.558594 14.015625 C 53.695312 13.808594 53.828125 13.601562 53.96875 13.390625 C 54.101562 13.183594 54.234375 12.980469 54.371094 12.765625 C 54.75 12.25 54.75 12.25 55.25 12 C 56.789062 11.84375 57.613281 12.226562 58.859375 13.03125 C 59.105469 13.183594 59.105469 13.183594 59.355469 13.339844 C 62.035156 15.035156 62.035156 15.035156 63 16 C 62.90625 17.359375 62.691406 18.300781 62 19.5 C 62.144531 19.585938 62.289062 19.671875 62.4375 19.757812 C 62.621094 19.878906 62.808594 20 63 20.125 C 63.183594 20.238281 63.371094 20.359375 63.5625 20.476562 C 64.085938 21.101562 64.191406 21.5625 64.148438 22.378906 C 63.800781 23.828125 62.921875 25.09375 62.15625 26.359375 C 61.972656 26.671875 61.789062 26.984375 61.605469 27.296875 C 61.242188 27.914062 60.875 28.53125 60.507812 29.148438 C 60.066406 29.886719 59.632812 30.628906 59.203125 31.378906 C 58.984375 31.757812 58.765625 32.136719 58.546875 32.515625 C 58.449219 32.683594 58.351562 32.855469 58.253906 33.027344 C 57.164062 34.886719 57.164062 34.886719 56.28125 35.128906 C 54.445312 35.183594 53.238281 34.410156 51.71875 33.453125 C 51.183594 33.128906 50.648438 32.804688 50.113281 32.484375 C 49.84375 32.316406 49.574219 32.152344 49.296875 31.984375 C 48.089844 31.253906 46.859375 30.5625 45.625 29.875 C 43.664062 28.773438 41.71875 27.652344 39.78125 26.515625 C 37.742188 25.320312 35.691406 24.148438 33.625 23 C 31.488281 21.808594 29.363281 20.605469 27.25 19.375 C 26.886719 19.164062 26.886719 19.164062 26.511719 18.949219 C 22.753906 16.753906 22.753906 16.753906 22 16 C 21.65625 13.894531 22.796875 12.371094 23.84375 10.640625 C 24.027344 10.328125 24.210938 10.015625 24.394531 9.703125 C 24.761719 9.085938 25.125 8.46875 25.492188 7.851562 C 25.933594 7.113281 26.363281 6.371094 26.789062 5.621094 C 26.898438 5.425781 27.011719 5.230469 27.128906 5.027344 C 27.328125 4.675781 27.527344 4.324219 27.726562 3.972656 C 28.214844 3.128906 28.636719 2.476562 29.5 2 C 30.886719 1.867188 31.59375 1.933594 32.75 2.75 C 32.914062 2.75 33.078125 2.75 33.25 2.75 C 33.628906 2.195312 33.628906 2.195312 34 1.515625 C 34.765625 0.148438 35.390625 -0.316406 37 0 Z M 37 0 "/>
<path style=" stroke:none;fill-rule:nonzero;fill:rgb(99.607843%,85.490197%,30.980393%);fill-opacity:1;" d="M 53.4375 42.898438 C 53.683594 42.898438 53.683594 42.898438 53.933594 42.898438 C 54.28125 42.898438 54.625 42.898438 54.96875 42.902344 C 55.496094 42.90625 56.023438 42.902344 56.554688 42.898438 C 56.890625 42.898438 57.226562 42.898438 57.5625 42.898438 C 57.867188 42.898438 58.171875 42.902344 58.488281 42.902344 C 59.25 43 59.25 43 59.726562 43.332031 C 60.167969 44.003906 60.070312 44.632812 60.046875 45.421875 C 60.039062 45.867188 60.039062 45.867188 60.027344 46.316406 C 60.015625 46.539062 60.011719 46.769531 60 47 C 60.203125 46.988281 60.410156 46.976562 60.621094 46.964844 C 60.890625 46.957031 61.160156 46.949219 61.4375 46.9375 C 61.703125 46.925781 61.96875 46.914062 62.246094 46.902344 C 63.191406 47.023438 63.417969 47.257812 64 48 C 64.128906 48.683594 64.128906 48.683594 64.128906 49.476562 C 64.132812 49.769531 64.136719 50.066406 64.140625 50.375 C 64.136719 50.695312 64.136719 51.015625 64.132812 51.34375 C 64.136719 51.671875 64.136719 52.003906 64.136719 52.339844 C 64.136719 53.039062 64.136719 53.734375 64.128906 54.429688 C 64.125 55.320312 64.128906 56.210938 64.136719 57.101562 C 64.136719 57.953125 64.136719 58.804688 64.132812 59.65625 C 64.136719 59.976562 64.136719 60.296875 64.140625 60.625 C 64.136719 61.070312 64.136719 61.070312 64.128906 61.523438 C 64.128906 61.785156 64.128906 62.046875 64.128906 62.316406 C 63.960938 63.199219 63.699219 63.449219 63 64 C 62.269531 64.125 62.269531 64.125 61.40625 64.128906 C 60.914062 64.128906 60.914062 64.128906 60.414062 64.136719 C 60.046875 64.132812 59.683594 64.128906 59.324219 64.128906 C 58.941406 64.128906 58.558594 64.132812 58.175781 64.136719 C 57.136719 64.140625 56.09375 64.136719 55.058594 64.136719 C 53.96875 64.132812 52.882812 64.136719 51.796875 64.136719 C 49.96875 64.136719 48.140625 64.136719 46.316406 64.128906 C 44.203125 64.125 42.09375 64.128906 39.984375 64.132812 C 38.171875 64.136719 36.359375 64.136719 34.546875 64.136719 C 33.460938 64.132812 32.378906 64.132812 31.296875 64.136719 C 30.28125 64.140625 29.261719 64.136719 28.246094 64.128906 C 27.871094 64.128906 27.496094 64.128906 27.121094 64.132812 C 26.613281 64.136719 26.105469 64.128906 25.59375 64.128906 C 25.308594 64.125 25.023438 64.125 24.730469 64.125 C 23.835938 63.972656 23.542969 63.710938 23 63 C 22.871094 62.316406 22.871094 62.316406 22.871094 61.523438 C 22.867188 61.226562 22.863281 60.929688 22.859375 60.625 C 22.863281 60.144531 22.863281 60.144531 22.867188 59.65625 C 22.863281 59.328125 22.863281 58.996094 22.863281 58.65625 C 22.863281 57.960938 22.863281 57.269531 22.871094 56.570312 C 22.875 55.679688 22.871094 54.789062 22.863281 53.898438 C 22.863281 53.046875 22.863281 52.195312 22.867188 51.34375 C 22.863281 51.023438 22.863281 50.703125 22.859375 50.375 C 22.863281 50.078125 22.867188 49.78125 22.871094 49.476562 C 22.871094 49.210938 22.871094 48.953125 22.871094 48.683594 C 23 48 23 48 23.34375 47.414062 C 24.378906 46.757812 25.390625 46.867188 26.59375 46.886719 C 26.855469 46.886719 27.121094 46.886719 27.390625 46.886719 C 28.261719 46.886719 29.132812 46.894531 30.003906 46.902344 C 30.609375 46.90625 31.210938 46.90625 31.816406 46.90625 C 33.40625 46.910156 34.996094 46.921875 36.585938 46.929688 C 38.207031 46.941406 39.828125 46.945312 41.449219 46.949219 C 44.636719 46.960938 47.816406 46.976562 51 47 C 50.988281 46.660156 50.988281 46.660156 50.972656 46.316406 C 50.96875 46.019531 50.960938 45.726562 50.953125 45.421875 C 50.945312 45.128906 50.933594 44.835938 50.925781 44.535156 C 51 43.75 51 43.75 51.328125 43.273438 C 52.007812 42.832031 52.636719 42.902344 53.4375 42.898438 Z M 53.4375 42.898438 "/>
<path style=" stroke:none;fill-rule:nonzero;fill:rgb(98.431373%,67.843139%,29.019609%);fill-opacity:1;" d="M 2.84375 46.871094 C 3.027344 46.867188 3.210938 46.867188 3.398438 46.867188 C 4.007812 46.859375 4.613281 46.863281 5.21875 46.867188 C 5.640625 46.867188 6.0625 46.867188 6.484375 46.863281 C 7.371094 46.863281 8.253906 46.867188 9.140625 46.871094 C 10.273438 46.875 11.40625 46.875 12.535156 46.867188 C 13.410156 46.863281 14.28125 46.863281 15.152344 46.867188 C 15.570312 46.867188 15.988281 46.867188 16.40625 46.863281 C 16.988281 46.859375 17.574219 46.867188 18.160156 46.871094 C 18.332031 46.867188 18.503906 46.867188 18.683594 46.867188 C 19.480469 46.878906 19.941406 46.960938 20.605469 47.414062 C 21.101562 48.152344 21.125 48.589844 21.128906 49.476562 C 21.132812 49.769531 21.136719 50.066406 21.140625 50.375 C 21.136719 50.695312 21.132812 51.011719 21.132812 51.34375 C 21.132812 51.839844 21.132812 51.839844 21.136719 52.339844 C 21.136719 53.039062 21.132812 53.734375 21.128906 54.429688 C 21.125 55.320312 21.125 56.210938 21.132812 57.101562 C 21.140625 57.953125 21.132812 58.804688 21.132812 59.65625 C 21.132812 59.976562 21.136719 60.296875 21.140625 60.625 C 21.136719 60.921875 21.132812 61.21875 21.128906 61.527344 C 21.128906 61.785156 21.125 62.046875 21.125 62.316406 C 21 63 21 63 20.605469 63.582031 C 19.800781 64.136719 19.105469 64.140625 18.160156 64.128906 C 17.972656 64.128906 17.789062 64.132812 17.601562 64.136719 C 16.996094 64.136719 16.386719 64.136719 15.78125 64.132812 C 15.359375 64.132812 14.9375 64.136719 14.515625 64.136719 C 13.628906 64.136719 12.746094 64.136719 11.863281 64.128906 C 10.730469 64.125 9.59375 64.128906 8.460938 64.132812 C 7.59375 64.136719 6.71875 64.136719 5.847656 64.132812 C 5.429688 64.132812 5.011719 64.132812 4.59375 64.136719 C 4.007812 64.136719 3.425781 64.136719 2.84375 64.128906 C 2.585938 64.132812 2.585938 64.132812 2.320312 64.136719 C 1.519531 64.121094 1.058594 64.039062 0.390625 63.582031 C -0.101562 62.847656 -0.125 62.410156 -0.128906 61.527344 C -0.132812 61.226562 -0.136719 60.929688 -0.136719 60.625 C -0.136719 60.144531 -0.136719 60.144531 -0.132812 59.65625 C -0.132812 59.328125 -0.136719 59 -0.136719 58.65625 C -0.136719 57.964844 -0.136719 57.265625 -0.128906 56.570312 C -0.125 55.679688 -0.128906 54.789062 -0.132812 53.898438 C -0.136719 53.046875 -0.136719 52.195312 -0.132812 51.34375 C -0.136719 51.023438 -0.136719 50.703125 -0.136719 50.375 C -0.136719 50.078125 -0.132812 49.78125 -0.128906 49.476562 C -0.128906 49.214844 -0.128906 48.953125 -0.128906 48.683594 C 0 48 0 48 0.390625 47.414062 C 1.203125 46.859375 1.894531 46.859375 2.84375 46.871094 Z M 2.84375 46.871094 "/>
<path style=" stroke:none;fill-rule:nonzero;fill:rgb(1.176471%,0.392157%,0.784314%);fill-opacity:1;" d="M 37 0 C 37.949219 0.449219 38.808594 1.003906 39.6875 1.578125 C 40.042969 1.800781 40.042969 1.800781 40.402344 2.03125 C 42.503906 3.363281 42.503906 3.363281 43 4 C 42.976562 5.539062 42.578125 6.46875 41.75 7.75 C 42.347656 8.222656 42.765625 8.503906 43.5 8.75 C 43.601562 8.480469 43.601562 8.480469 43.703125 8.203125 C 44.46875 6.390625 44.46875 6.390625 45.25 6 C 46.789062 5.84375 47.613281 6.226562 48.859375 7.03125 C 49.023438 7.132812 49.183594 7.234375 49.355469 7.339844 C 52.035156 9.035156 52.035156 9.035156 53 10 C 52.910156 11.347656 52.722656 12.101562 52 13.25 C 52.167969 14.027344 52.167969 14.027344 52.765625 14.296875 C 52.925781 14.363281 53.085938 14.429688 53.25 14.5 C 53.351562 14.339844 53.453125 14.179688 53.558594 14.015625 C 53.695312 13.808594 53.828125 13.601562 53.96875 13.390625 C 54.101562 13.183594 54.234375 12.980469 54.371094 12.765625 C 54.75 12.25 54.75 12.25 55.25 12 C 56.789062 11.84375 57.613281 12.226562 58.859375 13.03125 C 59.105469 13.183594 59.105469 13.183594 59.355469 13.339844 C 62.035156 15.035156 62.035156 15.035156 63 16 C 62.90625 17.359375 62.691406 18.300781 62 19.5 C 62.144531 19.585938 62.289062 19.671875 62.4375 19.757812 C 62.621094 19.878906 62.808594 20 63 20.125 C 63.183594 20.238281 63.371094 20.359375 63.5625 20.476562 C 64.085938 21.101562 64.191406 21.5625 64.148438 22.378906 C 63.800781 23.828125 62.921875 25.09375 62.15625 26.359375 C 61.972656 26.671875 61.789062 26.984375 61.605469 27.296875 C 61.242188 27.914062 60.875 28.53125 60.507812 29.148438 C 60.066406 29.886719 59.632812 30.628906 59.203125 31.378906 C 58.984375 31.757812 58.765625 32.136719 58.546875 32.515625 C 58.449219 32.683594 58.351562 32.855469 58.253906 33.027344 C 57.164062 34.886719 57.164062 34.886719 56.28125 35.128906 C 54.445312 35.183594 53.238281 34.410156 51.71875 33.453125 C 51.183594 33.128906 50.648438 32.804688 50.113281 32.484375 C 49.84375 32.316406 49.574219 32.152344 49.296875 31.984375 C 48.089844 31.253906 46.859375 30.5625 45.625 29.875 C 43.664062 28.773438 41.71875 27.652344 39.78125 26.515625 C 37.742188 25.320312 35.691406 24.148438 33.625 23 C 31.488281 21.808594 29.363281 20.605469 27.25 19.375 C 26.886719 19.164062 26.886719 19.164062 26.511719 18.949219 C 22.753906 16.753906 22.753906 16.753906 22 16 C 21.65625 13.894531 22.796875 12.371094 23.84375 10.640625 C 24.027344 10.328125 24.210938 10.015625 24.394531 9.703125 C 24.761719 9.085938 25.125 8.46875 25.492188 7.851562 C 25.933594 7.113281 26.363281 6.371094 26.789062 5.621094 C 26.898438 5.425781 27.011719 5.230469 27.128906 5.027344 C 27.328125 4.675781 27.527344 4.324219 27.726562 3.972656 C 28.214844 3.128906 28.636719 2.476562 29.5 2 C 30.886719 1.867188 31.59375 1.933594 32.75 2.75 C 32.914062 2.75 33.078125 2.75 33.25 2.75 C 33.628906 2.195312 33.628906 2.195312 34 1.515625 C 34.765625 0.148438 35.390625 -0.316406 37 0 Z M 30.25 4.25 C 29.835938 4.757812 29.835938 4.757812 29.4375 5.46875 C 29.316406 5.671875 29.316406 5.671875 29.191406 5.882812 C 28.875 6.421875 28.5625 6.960938 28.25 7.5 C 28.101562 7.753906 27.953125 8.011719 27.796875 8.273438 C 26.960938 9.710938 26.128906 11.152344 25.300781 12.59375 C 25.15625 12.839844 25.015625 13.085938 24.871094 13.34375 C 24.5625 13.886719 24.273438 14.4375 24 15 C 24.175781 15.101562 24.351562 15.199219 24.53125 15.300781 C 25.375 15.785156 26.21875 16.265625 27.0625 16.75 C 27.21875 16.839844 27.375 16.929688 27.539062 17.023438 C 28.027344 17.300781 28.515625 17.578125 29.003906 17.859375 C 29.253906 18.003906 29.253906 18.003906 29.507812 18.148438 C 30.707031 18.832031 30.707031 18.832031 31.90625 19.515625 C 32.050781 19.601562 32.195312 19.683594 32.34375 19.765625 C 33.355469 20.34375 34.363281 20.921875 35.371094 21.5 C 35.515625 21.582031 35.664062 21.664062 35.8125 21.75 C 36.46875 22.125 36.46875 22.125 37.125 22.5 C 37.269531 22.582031 37.414062 22.664062 37.5625 22.75 C 38.875 23.5 38.875 23.5 39.3125 23.75 C 39.605469 23.917969 39.894531 24.082031 40.1875 24.25 C 40.914062 24.664062 41.640625 25.078125 42.363281 25.496094 C 43.714844 26.265625 45.066406 27.039062 46.414062 27.808594 C 47.042969 28.164062 47.671875 28.523438 48.296875 28.882812 C 48.734375 29.128906 49.167969 29.378906 49.601562 29.628906 C 49.871094 29.78125 50.140625 29.933594 50.421875 30.09375 C 50.683594 30.242188 50.945312 30.390625 51.210938 30.546875 C 51.757812 30.859375 52.296875 31.183594 52.835938 31.511719 C 53.101562 31.675781 53.367188 31.839844 53.640625 32.007812 C 53.996094 32.230469 53.996094 32.230469 54.359375 32.457031 C 54.960938 32.785156 54.960938 32.785156 55.53125 32.753906 C 56.234375 32.371094 56.460938 31.863281 56.847656 31.167969 C 57.082031 30.753906 57.082031 30.753906 57.320312 30.328125 C 57.484375 30.03125 57.648438 29.734375 57.8125 29.4375 C 58.0625 28.988281 58.316406 28.539062 58.566406 28.09375 C 58.8125 27.65625 59.058594 27.21875 59.300781 26.78125 C 59.976562 25.601562 60.710938 24.460938 61.46875 23.328125 C 61.792969 22.785156 61.792969 22.785156 61.71875 22.261719 C 61.40625 21.53125 60.988281 21.359375 60.300781 20.972656 C 60.042969 20.828125 59.789062 20.683594 59.523438 20.53125 C 59.242188 20.378906 58.960938 20.222656 58.671875 20.0625 C 58.378906 19.898438 58.082031 19.730469 57.789062 19.566406 C 57.171875 19.21875 56.550781 18.871094 55.933594 18.523438 C 54.75 17.863281 53.574219 17.183594 52.394531 16.511719 C 51.519531 16.011719 50.644531 15.507812 49.765625 15.011719 C 48.59375 14.339844 47.421875 13.671875 46.246094 13 C 46.101562 12.917969 45.960938 12.835938 45.808594 12.75 C 45.371094 12.5 44.9375 12.25 44.5 12 C 42.863281 11.066406 41.226562 10.128906 39.585938 9.191406 C 38.957031 8.835938 38.328125 8.476562 37.703125 8.117188 C 37.265625 7.871094 36.832031 7.621094 36.398438 7.371094 C 36.128906 7.21875 35.859375 7.066406 35.578125 6.90625 C 35.316406 6.757812 35.058594 6.609375 34.789062 6.453125 C 34.242188 6.140625 33.699219 5.820312 33.15625 5.496094 C 32.890625 5.335938 32.621094 5.175781 32.34375 5.011719 C 32.101562 4.863281 31.863281 4.71875 31.613281 4.566406 C 31.003906 4.191406 31.003906 4.191406 30.25 4.25 Z M 30.25 4.25 "/>
<path style=" stroke:none;fill-rule:nonzero;fill:rgb(0%,0%,0%);fill-opacity:1;" d="M 7.4375 24.898438 C 7.683594 24.898438 7.683594 24.898438 7.933594 24.898438 C 8.28125 24.898438 8.625 24.898438 8.96875 24.902344 C 9.496094 24.90625 10.023438 24.902344 10.554688 24.898438 C 10.890625 24.898438 11.226562 24.898438 11.5625 24.898438 C 11.867188 24.898438 12.171875 24.902344 12.488281 24.902344 C 13.25 25 13.25 25 13.726562 25.332031 C 14.167969 26.003906 14.070312 26.632812 14.046875 27.421875 C 14.039062 27.867188 14.039062 27.867188 14.027344 28.316406 C 14.015625 28.539062 14.011719 28.769531 14 29 C 14.660156 29 15.320312 29 16 29 C 15.988281 28.660156 15.988281 28.660156 15.972656 28.316406 C 15.96875 28.019531 15.960938 27.726562 15.953125 27.421875 C 15.945312 27.128906 15.933594 26.835938 15.925781 26.535156 C 16 25.75 16 25.75 16.273438 25.332031 C 16.988281 24.835938 17.578125 24.902344 18.4375 24.898438 C 18.683594 24.898438 18.683594 24.898438 18.933594 24.898438 C 19.28125 24.898438 19.625 24.898438 19.96875 24.902344 C 20.496094 24.90625 21.023438 24.902344 21.554688 24.898438 C 21.890625 24.898438 22.226562 24.898438 22.5625 24.898438 C 22.867188 24.898438 23.171875 24.902344 23.488281 24.902344 C 24.25 25 24.25 25 24.726562 25.332031 C 25.167969 26.003906 25.070312 26.632812 25.046875 27.421875 C 25.039062 27.867188 25.039062 27.867188 25.027344 28.316406 C 25.015625 28.539062 25.011719 28.769531 25 29 C 25.988281 29 26.980469 29 28 29 C 27.988281 28.660156 27.988281 28.660156 27.972656 28.316406 C 27.96875 28.019531 27.960938 27.726562 27.953125 27.421875 C 27.945312 27.128906 27.933594 26.835938 27.925781 26.535156 C 28 25.75 28 25.75 28.273438 25.332031 C 28.988281 24.835938 29.578125 24.902344 30.4375 24.898438 C 30.683594 24.898438 30.683594 24.898438 30.933594 24.898438 C 31.28125 24.898438 31.625 24.898438 31.96875 24.902344 C 32.496094 24.90625 33.023438 24.902344 33.554688 24.898438 C 33.890625 24.898438 34.226562 24.898438 34.5625 24.898438 C 34.867188 24.898438 35.171875 24.902344 35.488281 24.902344 C 36.25 25 36.25 25 36.726562 25.332031 C 37.167969 26.003906 37.070312 26.632812 37.046875 27.421875 C 37.039062 27.867188 37.039062 27.867188 37.027344 28.316406 C 37.015625 28.539062 37.011719 28.769531 37 29 C 37.203125 28.988281 37.410156 28.976562 37.621094 28.964844 C 37.890625 28.957031 38.160156 28.949219 38.4375 28.9375 C 38.703125 28.925781 38.96875 28.914062 39.246094 28.902344 C 40.191406 29.023438 40.417969 29.257812 41 30 C 41.128906 30.683594 41.128906 30.683594 41.128906 31.476562 C 41.132812 31.769531 41.136719 32.066406 41.140625 32.375 C 41.136719 32.695312 41.136719 33.015625 41.132812 33.34375 C 41.136719 33.671875 41.136719 34.003906 41.136719 34.339844 C 41.136719 35.039062 41.136719 35.734375 41.128906 36.429688 C 41.125 37.320312 41.128906 38.210938 41.136719 39.101562 C 41.136719 39.953125 41.136719 40.804688 41.132812 41.65625 C 41.136719 41.976562 41.136719 42.296875 41.140625 42.625 C 41.136719 43.070312 41.136719 43.070312 41.128906 43.523438 C 41.128906 43.785156 41.128906 44.046875 41.128906 44.316406 C 40.960938 45.199219 40.699219 45.449219 40 46 C 39.269531 46.125 39.269531 46.125 38.40625 46.128906 C 37.914062 46.128906 37.914062 46.128906 37.414062 46.136719 C 37.046875 46.132812 36.683594 46.128906 36.324219 46.128906 C 35.941406 46.128906 35.558594 46.132812 35.175781 46.136719 C 34.136719 46.140625 33.09375 46.136719 32.058594 46.136719 C 30.96875 46.132812 29.882812 46.136719 28.796875 46.136719 C 26.96875 46.136719 25.140625 46.136719 23.316406 46.128906 C 21.203125 46.125 19.09375 46.128906 16.984375 46.132812 C 15.171875 46.136719 13.359375 46.136719 11.546875 46.136719 C 10.460938 46.132812 9.378906 46.132812 8.296875 46.136719 C 7.28125 46.140625 6.261719 46.136719 5.246094 46.128906 C 4.871094 46.128906 4.496094 46.128906 4.121094 46.132812 C 3.613281 46.136719 3.105469 46.128906 2.59375 46.128906 C 2.308594 46.125 2.023438 46.125 1.730469 46.125 C 0.835938 45.972656 0.542969 45.710938 0 45 C -0.128906 44.316406 -0.128906 44.316406 -0.128906 43.523438 C -0.132812 43.226562 -0.136719 42.929688 -0.140625 42.625 C -0.136719 42.144531 -0.136719 42.144531 -0.132812 41.65625 C -0.136719 41.328125 -0.136719 40.996094 -0.136719 40.65625 C -0.136719 39.960938 -0.136719 39.269531 -0.128906 38.570312 C -0.125 37.679688 -0.128906 36.789062 -0.136719 35.898438 C -0.136719 35.046875 -0.136719 34.195312 -0.132812 33.34375 C -0.136719 33.023438 -0.136719 32.703125 -0.140625 32.375 C -0.136719 32.078125 -0.132812 31.78125 -0.128906 31.476562 C -0.128906 31.210938 -0.128906 30.953125 -0.128906 30.683594 C 0.03125 29.820312 0.300781 29.523438 1 29 C 1.722656 28.929688 2.34375 28.90625 3.0625 28.9375 C 3.34375 28.945312 3.34375 28.945312 3.628906 28.949219 C 4.085938 28.960938 4.542969 28.980469 5 29 C 4.988281 28.660156 4.988281 28.660156 4.972656 28.316406 C 4.96875 28.019531 4.960938 27.726562 4.953125 27.421875 C 4.945312 27.128906 4.933594 26.835938 4.925781 26.535156 C 5 25.75 5 25.75 5.273438 25.332031 C 5.988281 24.835938 6.578125 24.902344 7.4375 24.898438 Z M 2 31 C 2 35.289062 2 39.582031 2 44 C 14.210938 44 26.421875 44 39 44 C 39 39.710938 39 35.421875 39 31 C 26.789062 31 14.578125 31 2 31 Z M 2 31 "/>
<path style=" stroke:none;fill-rule:nonzero;fill:rgb(0%,0%,0%);fill-opacity:1;" d="M 53.4375 42.898438 C 53.683594 42.898438 53.683594 42.898438 53.933594 42.898438 C 54.28125 42.898438 54.625 42.898438 54.96875 42.902344 C 55.496094 42.90625 56.023438 42.902344 56.554688 42.898438 C 56.890625 42.898438 57.226562 42.898438 57.5625 42.898438 C 57.867188 42.898438 58.171875 42.902344 58.488281 42.902344 C 59.25 43 59.25 43 59.726562 43.332031 C 60.167969 44.003906 60.070312 44.632812 60.046875 45.421875 C 60.039062 45.867188 60.039062 45.867188 60.027344 46.316406 C 60.015625 46.539062 60.011719 46.769531 60 47 C 60.203125 46.988281 60.410156 46.976562 60.621094 46.964844 C 60.890625 46.957031 61.160156 46.949219 61.4375 46.9375 C 61.703125 46.925781 61.96875 46.914062 62.246094 46.902344 C 63.191406 47.023438 63.417969 47.257812 64 48 C 64.128906 48.683594 64.128906 48.683594 64.128906 49.476562 C 64.132812 49.769531 64.136719 50.066406 64.140625 50.375 C 64.136719 50.695312 64.136719 51.015625 64.132812 51.34375 C 64.136719 51.671875 64.136719 52.003906 64.136719 52.339844 C 64.136719 53.039062 64.136719 53.734375 64.128906 54.429688 C 64.125 55.320312 64.128906 56.210938 64.136719 57.101562 C 64.136719 57.953125 64.136719 58.804688 64.132812 59.65625 C 64.136719 59.976562 64.136719 60.296875 64.140625 60.625 C 64.136719 61.070312 64.136719 61.070312 64.128906 61.523438 C 64.128906 61.785156 64.128906 62.046875 64.128906 62.316406 C 63.960938 63.199219 63.699219 63.449219 63 64 C 62.269531 64.125 62.269531 64.125 61.40625 64.128906 C 60.914062 64.128906 60.914062 64.128906 60.414062 64.136719 C 60.046875 64.132812 59.683594 64.128906 59.324219 64.128906 C 58.941406 64.128906 58.558594 64.132812 58.175781 64.136719 C 57.136719 64.140625 56.09375 64.136719 55.058594 64.136719 C 53.96875 64.132812 52.882812 64.136719 51.796875 64.136719 C 49.96875 64.136719 48.140625 64.136719 46.316406 64.128906 C 44.203125 64.125 42.09375 64.128906 39.984375 64.132812 C 38.171875 64.136719 36.359375 64.136719 34.546875 64.136719 C 33.460938 64.132812 32.378906 64.132812 31.296875 64.136719 C 30.28125 64.140625 29.261719 64.136719 28.246094 64.128906 C 27.871094 64.128906 27.496094 64.128906 27.121094 64.132812 C 26.613281 64.136719 26.105469 64.128906 25.59375 64.128906 C 25.308594 64.125 25.023438 64.125 24.730469 64.125 C 23.835938 63.972656 23.542969 63.710938 23 63 C 22.871094 62.316406 22.871094 62.316406 22.871094 61.523438 C 22.867188 61.226562 22.863281 60.929688 22.859375 60.625 C 22.863281 60.144531 22.863281 60.144531 22.867188 59.65625 C 22.863281 59.328125 22.863281 58.996094 22.863281 58.65625 C 22.863281 57.960938 22.863281 57.269531 22.871094 56.570312 C 22.875 55.679688 22.871094 54.789062 22.863281 53.898438 C 22.863281 53.046875 22.863281 52.195312 22.867188 51.34375 C 22.863281 51.023438 22.863281 50.703125 22.859375 50.375 C 22.863281 50.078125 22.867188 49.78125 22.871094 49.476562 C 22.871094 49.210938 22.871094 48.953125 22.871094 48.683594 C 23 48 23 48 23.34375 47.414062 C 24.378906 46.757812 25.390625 46.867188 26.59375 46.886719 C 26.855469 46.886719 27.121094 46.886719 27.390625 46.886719 C 28.261719 46.886719 29.132812 46.894531 30.003906 46.902344 C 30.609375 46.90625 31.210938 46.90625 31.816406 46.90625 C 33.40625 46.910156 34.996094 46.921875 36.585938 46.929688 C 38.207031 46.941406 39.828125 46.945312 41.449219 46.949219 C 44.636719 46.960938 47.816406 46.976562 51 47 C 50.988281 46.660156 50.988281 46.660156 50.972656 46.316406 C 50.96875 46.019531 50.960938 45.726562 50.953125 45.421875 C 50.945312 45.128906 50.933594 44.835938 50.925781 44.535156 C 51 43.75 51 43.75 51.328125 43.273438 C 52.007812 42.832031 52.636719 42.902344 53.4375 42.898438 Z M 25 49 C 25 53.289062 25 57.582031 25 62 C 37.210938 62 49.421875 62 62 62 C 62 57.710938 62 53.421875 62 49 C 49.789062 49 37.578125 49 25 49 Z M 25 49 "/>
<path style=" stroke:none;fill-rule:nonzero;fill:rgb(0%,0%,0%);fill-opacity:1;" d="M 2.84375 46.871094 C 3.027344 46.867188 3.210938 46.867188 3.398438 46.867188 C 4.007812 46.859375 4.613281 46.863281 5.21875 46.867188 C 5.640625 46.867188 6.0625 46.867188 6.484375 46.863281 C 7.371094 46.863281 8.253906 46.867188 9.140625 46.871094 C 10.273438 46.875 11.40625 46.875 12.535156 46.867188 C 13.410156 46.863281 14.28125 46.863281 15.152344 46.867188 C 15.570312 46.867188 15.988281 46.867188 16.40625 46.863281 C 16.988281 46.859375 17.574219 46.867188 18.160156 46.871094 C 18.332031 46.867188 18.503906 46.867188 18.683594 46.867188 C 19.480469 46.878906 19.941406 46.960938 20.605469 47.414062 C 21.101562 48.152344 21.125 48.589844 21.128906 49.476562 C 21.132812 49.769531 21.136719 50.066406 21.140625 50.375 C 21.136719 50.695312 21.132812 51.011719 21.132812 51.34375 C 21.132812 51.839844 21.132812 51.839844 21.136719 52.339844 C 21.136719 53.039062 21.132812 53.734375 21.128906 54.429688 C 21.125 55.320312 21.125 56.210938 21.132812 57.101562 C 21.140625 57.953125 21.132812 58.804688 21.132812 59.65625 C 21.132812 59.976562 21.136719 60.296875 21.140625 60.625 C 21.136719 60.921875 21.132812 61.21875 21.128906 61.527344 C 21.128906 61.785156 21.125 62.046875 21.125 62.316406 C 21 63 21 63 20.605469 63.582031 C 19.800781 64.136719 19.105469 64.140625 18.160156 64.128906 C 17.972656 64.128906 17.789062 64.132812 17.601562 64.136719 C 16.996094 64.136719 16.386719 64.136719 15.78125 64.132812 C 15.359375 64.132812 14.9375 64.136719 14.515625 64.136719 C 13.628906 64.136719 12.746094 64.136719 11.863281 64.128906 C 10.730469 64.125 9.59375 64.128906 8.460938 64.132812 C 7.59375 64.136719 6.71875 64.136719 5.847656 64.132812 C 5.429688 64.132812 5.011719 64.132812 4.59375 64.136719 C 4.007812 64.136719 3.425781 64.136719 2.84375 64.128906 C 2.585938 64.132812 2.585938 64.132812 2.320312 64.136719 C 1.519531 64.121094 1.058594 64.039062 0.390625 63.582031 C -0.101562 62.847656 -0.125 62.410156 -0.128906 61.527344 C -0.132812 61.226562 -0.136719 60.929688 -0.136719 60.625 C -0.136719 60.144531 -0.136719 60.144531 -0.132812 59.65625 C -0.132812 59.328125 -0.136719 59 -0.136719 58.65625 C -0.136719 57.964844 -0.136719 57.265625 -0.128906 56.570312 C -0.125 55.679688 -0.128906 54.789062 -0.132812 53.898438 C -0.136719 53.046875 -0.136719 52.195312 -0.132812 51.34375 C -0.136719 51.023438 -0.136719 50.703125 -0.136719 50.375 C -0.136719 50.078125 -0.132812 49.78125 -0.128906 49.476562 C -0.128906 49.214844 -0.128906 48.953125 -0.128906 48.683594 C 0 48 0 48 0.390625 47.414062 C 1.203125 46.859375 1.894531 46.859375 2.84375 46.871094 Z M 2 49 C 2 53.289062 2 57.582031 2 62 C 7.609375 62 13.21875 62 19 62 C 19 57.710938 19 53.421875 19 49 C 13.390625 49 7.78125 49 2 49 Z M 2 49 "/>
<path style=" stroke:none;fill-rule:nonzero;fill:rgb(88.627452%,31.37255%,48.235294%);fill-opacity:1;" d="M 36 2.25 C 37.097656 2.648438 38.074219 3.195312 39.078125 3.78125 C 39.238281 3.875 39.398438 3.96875 39.566406 4.0625 C 39.960938 4.292969 40.355469 4.519531 40.75 4.75 C 40.449219 5.519531 40.128906 6.265625 39.75 7 C 38.652344 6.601562 37.675781 6.054688 36.671875 5.46875 C 36.511719 5.375 36.351562 5.28125 36.183594 5.1875 C 35.789062 4.957031 35.394531 4.730469 35 4.5 C 35.300781 3.730469 35.621094 2.984375 36 2.25 Z M 36 2.25 "/>
<path style=" stroke:none;fill-rule:nonzero;fill:rgb(89.019608%,31.37255%,48.235294%);fill-opacity:1;" d="M 46 8.25 C 47.097656 8.648438 48.074219 9.195312 49.078125 9.78125 C 49.238281 9.875 49.398438 9.96875 49.566406 10.0625 C 49.960938 10.292969 50.355469 10.519531 50.75 10.75 C 50.449219 11.609375 50.160156 12.132812 49.5 12.75 C 48.835938 12.398438 48.175781 12.046875 47.515625 11.6875 C 47.328125 11.585938 47.136719 11.488281 46.945312 11.386719 C 46.765625 11.289062 46.585938 11.191406 46.398438 11.089844 C 46.234375 11 46.066406 10.914062 45.894531 10.820312 C 45.5 10.5 45.5 10.5 45.296875 10.003906 C 45.226562 9.253906 45.582031 8.851562 46 8.25 Z M 46 8.25 "/>
<path style=" stroke:none;fill-rule:nonzero;fill:rgb(88.627452%,31.37255%,48.235294%);fill-opacity:1;" d="M 56 14.25 C 57.097656 14.648438 58.074219 15.195312 59.078125 15.78125 C 59.238281 15.875 59.398438 15.96875 59.566406 16.0625 C 59.960938 16.292969 60.355469 16.519531 60.75 16.75 C 60.28125 17.9375 60.28125 17.9375 60 18.5 C 58.808594 18.15625 57.820312 17.632812 56.78125 16.96875 C 56.632812 16.875 56.484375 16.78125 56.332031 16.6875 C 55.96875 16.460938 55.609375 16.230469 55.25 16 C 55.71875 14.8125 55.71875 14.8125 56 14.25 Z M 56 14.25 "/>
<path style=" stroke:none;fill-rule:nonzero;fill:rgb(98.431373%,67.843139%,29.019609%);fill-opacity:1;" d="M 53 45 C 54.648438 45 56.300781 45 58 45 C 58 45.660156 58 46.320312 58 47 C 56.351562 47 54.699219 47 53 47 C 53 46.339844 53 45.679688 53 45 Z M 53 45 "/>
<path style=" stroke:none;fill-rule:nonzero;fill:rgb(16.470589%,55.686277%,90.196079%);fill-opacity:1;" d="M 30 27 C 31.648438 27 33.300781 27 35 27 C 35 27.660156 35 28.320312 35 29 C 33.351562 29 31.699219 29 30 29 C 30 28.339844 30 27.679688 30 27 Z M 30 27 "/>
<path style=" stroke:none;fill-rule:nonzero;fill:rgb(16.470589%,55.686277%,90.196079%);fill-opacity:1;" d="M 18 27 C 19.648438 27 21.300781 27 23 27 C 23 27.660156 23 28.320312 23 29 C 21.351562 29 19.699219 29 18 29 C 18 28.339844 18 27.679688 18 27 Z M 18 27 "/>
<path style=" stroke:none;fill-rule:nonzero;fill:rgb(16.470589%,55.686277%,90.196079%);fill-opacity:1;" d="M 7 27 C 8.648438 27 10.300781 27 12 27 C 12 27.660156 12 28.320312 12 29 C 10.351562 29 8.699219 29 7 29 C 7 28.339844 7 27.679688 7 27 Z M 7 27 "/>
</g>
</svg>
