<?xml version="1.0" encoding="UTF-8"?>
<svg xmlns="http://www.w3.org/2000/svg" xmlns:xlink="http://www.w3.org/1999/xlink" width="64" height="64" viewBox="0 0 64 64" version="1.1">
<g id="surface1">
<path style=" stroke:none;fill-rule:nonzero;fill:rgb(0.392157%,0.392157%,0.392157%);fill-opacity:1;" d="M 32.109375 -0.09375 C 32.320312 -0.0976562 32.53125 -0.0976562 32.75 -0.105469 C 33.945312 -0.0976562 34.808594 -0.0585938 35.75 0.75 C 36.4375 1.652344 36.597656 2.382812 36.703125 3.5 C 36.847656 4.523438 36.941406 5.125 37.765625 5.78125 C 38.007812 5.9375 38.25 6.089844 38.5 6.25 C 38.582031 6.417969 38.664062 6.582031 38.75 6.75 C 38.957031 6.75 39.164062 6.753906 39.375 6.753906 C 41.332031 6.769531 43.285156 6.785156 45.238281 6.808594 C 46.242188 6.820312 47.246094 6.828125 48.25 6.835938 C 49.21875 6.84375 50.1875 6.855469 51.15625 6.867188 C 51.527344 6.867188 51.898438 6.875 52.265625 6.875 C 52.785156 6.875 53.300781 6.882812 53.820312 6.890625 C 54.113281 6.894531 54.410156 6.894531 54.714844 6.902344 C 55.585938 7.011719 56.050781 7.226562 56.75 7.75 C 57.46875 8.851562 57.59375 9.71875 57.59375 11.019531 C 57.59375 11.265625 57.59375 11.265625 57.59375 11.515625 C 57.589844 11.855469 57.589844 12.199219 57.585938 12.542969 C 57.578125 13.0625 57.578125 13.589844 57.578125 14.113281 C 57.570312 16.679688 57.570312 16.679688 57 17.25 C 56.359375 17.296875 56.359375 17.296875 55.75 17.25 C 55.292969 16.796875 55.457031 16.082031 55.445312 15.472656 C 55.4375 15.160156 55.433594 14.847656 55.425781 14.527344 C 55.410156 13.863281 55.402344 13.203125 55.390625 12.542969 C 55.382812 12.074219 55.382812 12.074219 55.371094 11.597656 C 55.363281 11.308594 55.359375 11.019531 55.355469 10.722656 C 55.308594 10.015625 55.308594 10.015625 54.960938 9.585938 C 54.300781 9.105469 53.804688 9.144531 52.992188 9.132812 C 52.683594 9.125 52.371094 9.121094 52.050781 9.113281 C 51.710938 9.109375 51.375 9.109375 51.035156 9.105469 C 50.6875 9.105469 50.335938 9.097656 49.988281 9.097656 C 49.257812 9.089844 48.527344 9.085938 47.796875 9.082031 C 46.863281 9.082031 45.929688 9.066406 44.996094 9.046875 C 44.273438 9.035156 43.554688 9.03125 42.835938 9.03125 C 42.492188 9.027344 42.148438 9.023438 41.800781 9.015625 C 39.871094 8.914062 39.871094 8.914062 38.195312 9.710938 C 37.820312 10.207031 37.515625 10.6875 37.25 11.25 C 38.109375 12.660156 38.984375 14.015625 40.046875 15.28125 C 42.164062 17.859375 42.46875 20.519531 42.25 23.75 C 41.847656 26.28125 40.5 28.527344 38.519531 30.132812 C 37.71875 30.695312 36.902344 31.125 36 31.5 C 35.773438 31.597656 35.546875 31.695312 35.3125 31.796875 C 31.753906 32.6875 28.625 32.125 25.5 30.25 C 25 29.75 25 29.75 24.765625 28.90625 C 24.523438 28.070312 24.285156 27.660156 23.75 27 C 23.75 26.835938 23.75 26.671875 23.75 26.5 C 23.558594 26.492188 23.371094 26.488281 23.171875 26.484375 C 22.5 26.25 22.5 26.25 22.0625 25.46875 C 21.078125 22.730469 21.324219 19.734375 22.546875 17.117188 C 23.363281 15.695312 24.363281 14.410156 25.394531 13.140625 C 26 12.375 26.441406 11.679688 26.75 10.75 C 26.59375 10.695312 26.441406 10.636719 26.28125 10.578125 C 25.59375 10.152344 25.515625 9.742188 25.25 9 C 23.210938 9.015625 21.167969 9.035156 19.128906 9.058594 C 18.183594 9.070312 17.234375 9.078125 16.285156 9.085938 C 15.371094 9.09375 14.457031 9.105469 13.542969 9.117188 C 13.195312 9.117188 12.84375 9.125 12.496094 9.125 C 12.007812 9.125 11.519531 9.132812 11.03125 9.140625 C 10.613281 9.144531 10.613281 9.144531 10.1875 9.152344 C 9.511719 9.203125 9.511719 9.203125 9.035156 9.523438 C 8.597656 10.257812 8.648438 10.890625 8.640625 11.734375 C 8.640625 11.914062 8.636719 12.089844 8.632812 12.269531 C 8.625 12.851562 8.625 13.429688 8.621094 14.011719 C 8.617188 14.414062 8.613281 14.816406 8.609375 15.21875 C 8.597656 16.277344 8.589844 17.335938 8.582031 18.394531 C 8.574219 19.476562 8.5625 20.554688 8.550781 21.640625 C 8.53125 23.757812 8.515625 25.878906 8.5 28 C 8.65625 28.035156 8.808594 28.066406 8.96875 28.097656 C 9.171875 28.140625 9.375 28.1875 9.585938 28.230469 C 9.785156 28.273438 9.988281 28.316406 10.195312 28.359375 C 11.886719 28.785156 13.230469 30.039062 14.195312 31.453125 C 15.351562 33.535156 15.554688 35.707031 14.984375 38 C 14.332031 39.960938 13.085938 41.417969 11.347656 42.507812 C 10.429688 42.882812 9.46875 43.054688 8.5 43.25 C 8.515625 44.484375 8.539062 45.714844 8.5625 46.945312 C 8.574219 47.367188 8.582031 47.785156 8.585938 48.207031 C 8.59375 48.808594 8.605469 49.410156 8.621094 50.015625 C 8.625 50.203125 8.625 50.390625 8.625 50.582031 C 8.65625 51.589844 8.65625 51.589844 9.074219 52.492188 C 9.828125 52.949219 10.6875 52.894531 11.546875 52.921875 C 11.734375 52.929688 11.921875 52.9375 12.113281 52.949219 C 12.578125 52.96875 13.039062 52.984375 13.5 53 C 13.488281 52.707031 13.476562 52.417969 13.464844 52.113281 C 13.453125 51.726562 13.445312 51.339844 13.4375 50.953125 C 13.429688 50.761719 13.421875 50.570312 13.410156 50.371094 C 13.398438 49.425781 13.449219 48.851562 13.875 47.992188 C 14.746094 47.308594 15.507812 47.359375 16.5625 47.421875 C 16.84375 47.429688 16.84375 47.429688 17.125 47.4375 C 17.585938 47.453125 18.042969 47.476562 18.5 47.5 C 18.503906 47.351562 18.507812 47.203125 18.511719 47.050781 C 18.578125 45.945312 18.640625 45.390625 19.34375 44.5 C 20.230469 43.824219 20.863281 43.71875 21.945312 43.707031 C 22.3125 43.707031 22.3125 43.707031 22.683594 43.703125 C 22.945312 43.703125 23.207031 43.703125 23.476562 43.699219 C 23.746094 43.699219 24.015625 43.695312 24.292969 43.695312 C 24.863281 43.695312 25.429688 43.691406 26 43.6875 C 26.871094 43.6875 27.746094 43.679688 28.617188 43.671875 C 29.167969 43.671875 29.722656 43.667969 30.273438 43.667969 C 30.535156 43.664062 30.796875 43.660156 31.066406 43.660156 C 31.433594 43.660156 31.433594 43.660156 31.800781 43.660156 C 32.015625 43.660156 32.230469 43.660156 32.449219 43.660156 C 33.121094 43.769531 33.308594 44 33.75 44.5 C 34.316406 44.644531 34.316406 44.644531 34.921875 44.671875 C 35.222656 44.695312 35.222656 44.695312 35.535156 44.722656 C 35.6875 44.730469 35.84375 44.742188 36 44.75 C 36.164062 44.421875 36.328125 44.089844 36.5 43.75 C 38.148438 43.730469 39.792969 43.71875 41.4375 43.707031 C 41.996094 43.707031 42.558594 43.699219 43.117188 43.695312 C 43.921875 43.683594 44.726562 43.679688 45.535156 43.675781 C 45.90625 43.671875 45.90625 43.671875 46.289062 43.667969 C 47.613281 43.664062 48.644531 43.679688 49.75 44.5 C 50.464844 45.566406 50.59375 46.410156 50.574219 47.679688 C 50.570312 47.988281 50.570312 48.296875 50.566406 48.621094 C 50.558594 48.941406 50.554688 49.265625 50.546875 49.59375 C 50.542969 49.921875 50.539062 50.25 50.535156 50.582031 C 50.527344 51.390625 50.515625 52.195312 50.5 53 C 51.152344 52.980469 51.800781 52.953125 52.453125 52.921875 C 52.636719 52.917969 52.820312 52.910156 53.011719 52.902344 C 54.015625 52.867188 54.015625 52.867188 54.925781 52.492188 C 55.433594 51.722656 55.371094 50.90625 55.375 50.015625 C 55.382812 49.820312 55.386719 49.625 55.390625 49.425781 C 55.40625 48.8125 55.414062 48.195312 55.421875 47.578125 C 55.429688 47.160156 55.4375 46.742188 55.445312 46.324219 C 55.46875 45.296875 55.488281 44.273438 55.5 43.25 C 55.351562 43.222656 55.203125 43.195312 55.050781 43.164062 C 52.785156 42.703125 51.132812 41.734375 49.804688 39.796875 C 48.722656 37.855469 48.40625 35.714844 48.914062 33.550781 C 49.675781 31.171875 50.972656 29.671875 53.148438 28.480469 C 53.921875 28.183594 54.683594 28.09375 55.5 28 C 55.496094 27.832031 55.488281 27.667969 55.484375 27.496094 C 55.464844 26.734375 55.449219 25.980469 55.4375 25.21875 C 55.429688 24.957031 55.421875 24.695312 55.410156 24.425781 C 55.390625 22.902344 55.40625 21.90625 56.5 20.75 C 57.175781 20.171875 57.878906 19.660156 58.609375 19.15625 C 58.796875 19.019531 58.984375 18.882812 59.179688 18.742188 C 59.363281 18.613281 59.542969 18.484375 59.734375 18.355469 C 59.980469 18.179688 59.980469 18.179688 60.234375 18 C 60.871094 17.691406 61.300781 17.667969 62 17.75 C 62.5 18.25 62.5 18.25 62.53125 18.941406 C 62.117188 20.136719 61.3125 20.527344 60.265625 21.171875 C 59.898438 21.40625 59.53125 21.640625 59.164062 21.878906 C 59 21.980469 58.839844 22.082031 58.667969 22.1875 C 58.085938 22.621094 57.78125 23.046875 57.667969 23.769531 C 57.660156 23.964844 57.65625 24.160156 57.648438 24.359375 C 57.636719 24.574219 57.625 24.785156 57.617188 25.003906 C 57.609375 25.222656 57.601562 25.445312 57.59375 25.671875 C 57.578125 26.007812 57.578125 26.007812 57.5625 26.347656 C 57.542969 26.898438 57.519531 27.449219 57.5 28 C 57.648438 28.027344 57.800781 28.054688 57.953125 28.085938 C 60.167969 28.535156 61.445312 29.566406 62.917969 31.25 C 63.832031 32.632812 64.128906 33.839844 64.09375 35.484375 C 64.09375 35.660156 64.085938 35.839844 64.085938 36.019531 C 64.007812 38.464844 63.277344 39.675781 61.601562 41.449219 C 60.328125 42.613281 59.175781 42.980469 57.5 43.25 C 57.507812 43.683594 57.507812 43.683594 57.511719 44.125 C 57.523438 45.199219 57.535156 46.273438 57.542969 47.347656 C 57.542969 47.8125 57.550781 48.277344 57.558594 48.742188 C 57.566406 49.410156 57.570312 50.078125 57.574219 50.746094 C 57.578125 50.953125 57.582031 51.160156 57.585938 51.371094 C 57.585938 52.542969 57.5 53.292969 56.75 54.25 C 55.617188 55.25 54.347656 55.085938 52.921875 55.046875 C 52.6875 55.042969 52.457031 55.042969 52.21875 55.035156 C 51.644531 55.027344 51.070312 55.015625 50.5 55 C 50.503906 55.203125 50.507812 55.410156 50.511719 55.617188 C 50.527344 56.546875 50.535156 57.476562 50.546875 58.40625 C 50.554688 58.730469 50.558594 59.046875 50.566406 59.378906 C 50.570312 59.847656 50.570312 59.847656 50.574219 60.320312 C 50.578125 60.75 50.578125 60.75 50.585938 61.1875 C 50.488281 62.117188 50.238281 62.707031 49.75 63.5 C 48.949219 64.035156 48.738281 64.0625 47.816406 64.070312 C 47.574219 64.070312 47.332031 64.074219 47.078125 64.078125 C 46.8125 64.078125 46.546875 64.078125 46.273438 64.078125 C 45.992188 64.078125 45.710938 64.082031 45.421875 64.082031 C 44.488281 64.089844 43.558594 64.089844 42.625 64.09375 C 41.980469 64.097656 41.335938 64.097656 40.6875 64.097656 C 39.332031 64.105469 37.976562 64.105469 36.621094 64.105469 C 35.058594 64.105469 33.488281 64.113281 31.925781 64.125 C 30.417969 64.132812 28.910156 64.140625 27.402344 64.140625 C 26.761719 64.140625 26.121094 64.140625 25.480469 64.144531 C 24.585938 64.152344 23.6875 64.152344 22.792969 64.148438 C 22.394531 64.15625 22.394531 64.15625 21.988281 64.160156 C 20.1875 64.144531 20.1875 64.144531 19.210938 63.402344 C 18.730469 62.722656 18.585938 62.367188 18.546875 61.546875 C 18.53125 61.25 18.53125 61.25 18.511719 60.949219 C 18.507812 60.800781 18.503906 60.652344 18.5 60.5 C 18.117188 60.519531 18.117188 60.519531 17.722656 60.542969 C 17.382812 60.554688 17.042969 60.566406 16.703125 60.578125 C 16.449219 60.59375 16.449219 60.59375 16.191406 60.609375 C 15.265625 60.632812 14.785156 60.519531 14.007812 60.007812 C 13.320312 58.984375 13.355469 58.246094 13.421875 57.046875 C 13.425781 56.847656 13.433594 56.652344 13.4375 56.449219 C 13.453125 55.964844 13.476562 55.484375 13.5 55 C 13.28125 55.007812 13.28125 55.007812 13.0625 55.011719 C 12.398438 55.027344 11.738281 55.035156 11.078125 55.046875 C 10.847656 55.054688 10.621094 55.058594 10.386719 55.066406 C 8.203125 55.089844 8.203125 55.089844 7.25 54.25 C 6.359375 53.117188 6.402344 52.125 6.425781 50.746094 C 6.425781 50.53125 6.429688 50.316406 6.429688 50.09375 C 6.433594 49.410156 6.445312 48.730469 6.453125 48.046875 C 6.457031 47.582031 6.460938 47.117188 6.464844 46.652344 C 6.472656 45.519531 6.484375 44.382812 6.5 43.25 C 6.1875 43.175781 5.875 43.101562 5.554688 43.023438 C 3.222656 42.46875 1.746094 41.027344 0.457031 39.046875 C -0.386719 37.25 -0.328125 34.625 0.21875 32.746094 C 1.132812 30.773438 2.53125 29.378906 4.476562 28.429688 C 5.140625 28.203125 5.808594 28.109375 6.5 28 C 6.5 27.769531 6.496094 27.535156 6.496094 27.296875 C 6.480469 25.113281 6.46875 22.929688 6.460938 20.742188 C 6.457031 19.621094 6.453125 18.496094 6.445312 17.375 C 6.433594 16.289062 6.433594 15.207031 6.429688 14.121094 C 6.425781 13.707031 6.425781 13.292969 6.421875 12.882812 C 6.414062 12.300781 6.414062 11.722656 6.414062 11.140625 C 6.414062 10.8125 6.410156 10.480469 6.410156 10.140625 C 6.535156 8.894531 6.835938 8.089844 7.816406 7.285156 C 8.648438 6.9375 9.277344 6.910156 10.179688 6.914062 C 10.34375 6.914062 10.507812 6.914062 10.675781 6.914062 C 11.210938 6.917969 11.75 6.921875 12.285156 6.925781 C 12.660156 6.929688 13.035156 6.929688 13.40625 6.929688 C 14.390625 6.933594 15.371094 6.941406 16.347656 6.949219 C 17.351562 6.957031 18.355469 6.957031 19.355469 6.964844 C 21.320312 6.972656 23.285156 6.984375 25.25 7 C 25.3125 6.800781 25.378906 6.605469 25.445312 6.402344 C 25.75 5.75 25.75 5.75 26.640625 5.328125 C 27.125 5.109375 27.125 5.109375 27.5 4.75 C 27.652344 4.113281 27.671875 3.519531 27.695312 2.867188 C 27.792969 1.769531 28.40625 1.113281 29.136719 0.339844 C 30.09375 -0.191406 31.03125 -0.109375 32.109375 -0.09375 Z M 32.109375 -0.09375 "/>
<path style=" stroke:none;fill-rule:nonzero;fill:rgb(21.176471%,36.470589%,48.627451%);fill-opacity:1;" d="M 33.5 44.75 C 33.90625 44.730469 34.3125 44.714844 34.71875 44.703125 C 34.945312 44.695312 35.171875 44.683594 35.40625 44.675781 C 35.699219 44.710938 35.699219 44.710938 36 44.75 C 36.164062 44.996094 36.328125 45.246094 36.5 45.5 C 37.011719 45.613281 37.011719 45.613281 37.605469 45.601562 C 37.949219 45.605469 37.949219 45.605469 38.296875 45.609375 C 38.546875 45.609375 38.792969 45.609375 39.046875 45.609375 C 39.300781 45.613281 39.550781 45.617188 39.816406 45.621094 C 40.628906 45.628906 41.4375 45.636719 42.25 45.640625 C 43.0625 45.648438 43.871094 45.652344 44.683594 45.664062 C 45.191406 45.671875 45.699219 45.671875 46.203125 45.675781 C 46.433594 45.675781 46.660156 45.679688 46.894531 45.683594 C 47.097656 45.683594 47.300781 45.683594 47.507812 45.683594 C 48 45.75 48 45.75 48.5 46.25 C 48.5625 46.894531 48.5625 46.894531 48.566406 47.722656 C 48.566406 48.03125 48.566406 48.339844 48.570312 48.65625 C 48.566406 48.996094 48.566406 49.332031 48.566406 49.671875 C 48.566406 50.015625 48.566406 50.363281 48.566406 50.707031 C 48.566406 51.433594 48.566406 52.15625 48.566406 52.882812 C 48.5625 53.8125 48.566406 54.742188 48.566406 55.671875 C 48.570312 56.386719 48.566406 57.101562 48.566406 57.8125 C 48.566406 58.15625 48.566406 58.5 48.566406 58.84375 C 48.570312 59.320312 48.566406 59.800781 48.566406 60.277344 C 48.566406 60.550781 48.566406 60.824219 48.5625 61.105469 C 48.5 61.75 48.5 61.75 48 62.25 C 47.515625 62.3125 47.515625 62.3125 46.917969 62.3125 C 46.578125 62.316406 46.578125 62.316406 46.230469 62.316406 C 45.980469 62.316406 45.730469 62.316406 45.472656 62.316406 C 45.210938 62.316406 44.949219 62.316406 44.675781 62.316406 C 43.804688 62.320312 42.933594 62.316406 42.0625 62.316406 C 41.460938 62.316406 40.855469 62.316406 40.253906 62.316406 C 38.984375 62.316406 37.71875 62.316406 36.453125 62.316406 C 34.828125 62.3125 33.203125 62.316406 31.574219 62.316406 C 30.328125 62.320312 29.082031 62.316406 27.835938 62.316406 C 27.238281 62.316406 26.636719 62.316406 26.039062 62.316406 C 25.199219 62.320312 24.363281 62.316406 23.527344 62.316406 C 23.152344 62.316406 23.152344 62.316406 22.769531 62.316406 C 22.542969 62.316406 22.316406 62.316406 22.082031 62.3125 C 21.886719 62.3125 21.683594 62.3125 21.484375 62.3125 C 21 62.25 21 62.25 20.5 61.75 C 20.4375 61.105469 20.4375 61.105469 20.433594 60.277344 C 20.433594 59.96875 20.433594 59.660156 20.429688 59.34375 C 20.433594 59.003906 20.433594 58.667969 20.433594 58.328125 C 20.433594 57.984375 20.433594 57.636719 20.433594 57.292969 C 20.433594 56.566406 20.433594 55.84375 20.433594 55.117188 C 20.4375 54.1875 20.433594 53.257812 20.433594 52.328125 C 20.429688 51.613281 20.433594 50.898438 20.433594 50.1875 C 20.433594 49.84375 20.433594 49.5 20.433594 49.15625 C 20.429688 48.679688 20.433594 48.199219 20.433594 47.722656 C 20.433594 47.449219 20.433594 47.175781 20.4375 46.894531 C 20.5 46.25 20.5 46.25 21 45.75 C 21.523438 45.679688 21.523438 45.679688 22.183594 45.671875 C 22.550781 45.664062 22.550781 45.664062 22.925781 45.65625 C 23.324219 45.648438 23.324219 45.648438 23.726562 45.648438 C 24.136719 45.640625 24.136719 45.640625 24.550781 45.632812 C 25.421875 45.617188 26.289062 45.605469 27.15625 45.59375 C 27.746094 45.585938 28.332031 45.574219 28.921875 45.566406 C 30.363281 45.539062 31.808594 45.519531 33.25 45.5 C 33.332031 45.253906 33.414062 45.003906 33.5 44.75 Z M 33.5 44.75 "/>
<path style=" stroke:none;fill-rule:nonzero;fill:rgb(98.823529%,83.529413%,43.921569%);fill-opacity:1;" d="M 28.75 11.25 C 29.492188 11.25 30.234375 11.25 31 11.25 C 31.039062 12.371094 31.066406 13.492188 31.082031 14.613281 C 31.089844 14.996094 31.101562 15.375 31.113281 15.757812 C 31.132812 16.304688 31.140625 16.851562 31.148438 17.402344 C 31.15625 17.574219 31.164062 17.742188 31.171875 17.917969 C 31.171875 18.402344 31.171875 18.402344 31 19.25 C 30.273438 19.816406 30.273438 19.816406 29.5 20.25 C 28.757812 21.363281 28.84375 22.441406 29 23.75 C 29.503906 24.636719 30.019531 25.191406 31 25.5 C 32.300781 25.621094 33.164062 25.488281 34.25 24.75 C 34.925781 23.78125 35.148438 22.898438 35.109375 21.738281 C 34.851562 20.574219 33.960938 19.890625 33 19.25 C 32.933594 18.628906 32.914062 18.074219 32.925781 17.449219 C 32.925781 17.273438 32.929688 17.097656 32.929688 16.914062 C 32.933594 16.351562 32.941406 15.785156 32.953125 15.21875 C 32.957031 14.835938 32.960938 14.453125 32.960938 14.070312 C 32.972656 13.128906 32.984375 12.191406 33 11.25 C 33.660156 11.25 34.320312 11.25 35 11.25 C 35.078125 11.40625 35.152344 11.566406 35.234375 11.726562 C 35.988281 13.214844 36.859375 14.496094 37.90625 15.78125 C 39.9375 18.316406 40.589844 20.160156 40.25 23.5 C 39.796875 25.660156 38.761719 27.3125 36.988281 28.632812 C 36.496094 28.949219 36.015625 29.238281 35.5 29.5 C 35.320312 29.589844 35.140625 29.683594 34.953125 29.773438 C 33.015625 30.390625 30.476562 30.355469 28.574219 29.664062 C 27.796875 29.25 27.796875 29.25 27.136719 28.828125 C 26.371094 28.433594 25.84375 28.488281 25 28.5 C 24.0625 27.722656 24.0625 27.722656 23.75 27 C 23.738281 26.386719 23.808594 25.84375 23.925781 25.238281 C 24.050781 24.734375 24.050781 24.734375 23.75 24.25 C 23.34375 20.449219 24.035156 18.179688 26.390625 15.234375 C 26.574219 15.011719 26.574219 15.011719 26.761719 14.78125 C 27.65625 13.667969 28.261719 12.605469 28.75 11.25 Z M 28.75 11.25 "/>
<path style=" stroke:none;fill-rule:nonzero;fill:rgb(93.725491%,47.450981%,47.843137%);fill-opacity:1;" d="M 59.554688 30.664062 C 60.613281 31.460938 61.515625 32.507812 62 33.75 C 62.207031 35.480469 62.324219 37.253906 61.375 38.78125 C 60.453125 39.945312 59.304688 40.597656 58 41.25 C 56.144531 41.425781 54.519531 41.40625 53 40.25 C 51.582031 38.945312 50.734375 37.46875 50.640625 35.515625 C 50.710938 33.683594 51.390625 32.515625 52.71875 31.28125 C 54.667969 29.710938 57.335938 29.386719 59.554688 30.664062 Z M 59.554688 30.664062 "/>
<path style=" stroke:none;fill-rule:nonzero;fill:rgb(15.686275%,28.235295%,37.254903%);fill-opacity:1;" d="M 36.75 45.75 C 38.34375 45.738281 39.933594 45.726562 41.53125 45.722656 C 42.074219 45.71875 42.613281 45.71875 43.15625 45.710938 C 43.933594 45.703125 44.710938 45.703125 45.488281 45.699219 C 45.734375 45.699219 45.976562 45.695312 46.226562 45.691406 C 46.453125 45.691406 46.675781 45.691406 46.910156 45.691406 C 47.109375 45.691406 47.308594 45.691406 47.511719 45.691406 C 48 45.75 48 45.75 48.5 46.25 C 48.5625 46.894531 48.5625 46.894531 48.566406 47.722656 C 48.566406 48.03125 48.566406 48.339844 48.570312 48.65625 C 48.566406 48.996094 48.566406 49.332031 48.566406 49.671875 C 48.566406 50.015625 48.566406 50.363281 48.566406 50.707031 C 48.566406 51.433594 48.566406 52.15625 48.566406 52.882812 C 48.5625 53.8125 48.566406 54.742188 48.566406 55.671875 C 48.570312 56.386719 48.566406 57.101562 48.566406 57.8125 C 48.566406 58.15625 48.566406 58.5 48.566406 58.84375 C 48.570312 59.320312 48.566406 59.800781 48.566406 60.277344 C 48.566406 60.550781 48.566406 60.824219 48.5625 61.105469 C 48.5 61.75 48.5 61.75 48 62.25 C 47.515625 62.3125 47.515625 62.3125 46.917969 62.3125 C 46.578125 62.316406 46.578125 62.316406 46.230469 62.316406 C 45.980469 62.316406 45.730469 62.316406 45.472656 62.316406 C 45.210938 62.316406 44.949219 62.316406 44.675781 62.316406 C 43.804688 62.320312 42.933594 62.316406 42.0625 62.316406 C 41.460938 62.316406 40.855469 62.316406 40.253906 62.316406 C 38.984375 62.316406 37.71875 62.316406 36.453125 62.316406 C 34.828125 62.3125 33.203125 62.316406 31.574219 62.316406 C 30.328125 62.320312 29.082031 62.316406 27.835938 62.316406 C 27.238281 62.316406 26.636719 62.316406 26.039062 62.316406 C 25.199219 62.320312 24.363281 62.316406 23.527344 62.316406 C 23.152344 62.316406 23.152344 62.316406 22.769531 62.316406 C 22.542969 62.316406 22.316406 62.316406 22.082031 62.3125 C 21.886719 62.3125 21.683594 62.3125 21.484375 62.3125 C 21 62.25 21 62.25 20.5 61.75 C 20.441406 61.101562 20.441406 61.101562 20.441406 60.269531 C 20.441406 59.960938 20.441406 59.648438 20.441406 59.328125 C 20.445312 58.988281 20.449219 58.648438 20.449219 58.308594 C 20.453125 57.960938 20.453125 57.617188 20.453125 57.269531 C 20.453125 56.359375 20.460938 55.441406 20.464844 54.53125 C 20.46875 53.601562 20.472656 52.667969 20.476562 51.734375 C 20.480469 49.90625 20.488281 48.078125 20.5 46.25 C 20.582031 46.25 20.664062 46.25 20.75 46.25 C 20.75 50.789062 20.75 55.324219 20.75 60 C 29.246094 60 37.746094 60 46.5 60 C 46.5 55.378906 46.5 50.761719 46.5 46 C 43.28125 46 40.066406 46 36.75 46 C 36.75 45.917969 36.75 45.835938 36.75 45.75 Z M 36.75 45.75 "/>
<path style=" stroke:none;fill-rule:nonzero;fill:rgb(29.803923%,76.862746%,66.666669%);fill-opacity:1;" d="M 7.75 30 C 8.914062 30.824219 9.753906 31.914062 10.25 33.25 C 10.296875 33.96875 10.296875 33.96875 10.25 34.5 C 9.671875 34.5 9.09375 34.5 8.5 34.5 C 8.417969 33.921875 8.335938 33.34375 8.25 32.75 C 7.730469 32.613281 7.289062 32.5 6.75 32.5 C 6.75 33.242188 6.75 33.984375 6.75 34.75 C 6.007812 34.832031 5.265625 34.914062 4.5 35 C 4.582031 35.414062 4.664062 35.824219 4.75 36.25 C 5.328125 36.332031 5.90625 36.414062 6.5 36.5 C 6.53125 36.777344 6.5625 37.058594 6.59375 37.34375 C 6.664062 38.257812 6.664062 38.257812 7.25 38.75 C 7.777344 38.671875 7.777344 38.671875 8.25 38.5 C 8.332031 37.921875 8.414062 37.34375 8.5 36.75 C 9.078125 36.75 9.65625 36.75 10.25 36.75 C 10.09375 38.414062 9.355469 39.457031 8.1875 40.609375 C 7.457031 41.199219 7.261719 41.25 6.265625 41.3125 C 4.691406 40.960938 3.46875 39.890625 2.5 38.640625 C 1.65625 37.140625 1.75 35.40625 2 33.75 C 2.648438 32.121094 3.78125 31.136719 5.25 30.25 C 6.1875 29.9375 6.765625 29.867188 7.75 30 Z M 7.75 30 "/>
<path style=" stroke:none;fill-rule:nonzero;fill:rgb(14.901961%,70.980394%,60.000002%);fill-opacity:1;" d="M 7.75 30 C 9.667969 30.132812 10.757812 30.664062 12.0625 32.109375 C 13.089844 33.386719 13.382812 34.441406 13.34375 36.078125 C 13.089844 37.902344 12.121094 39.363281 10.671875 40.46875 C 9.519531 41.234375 8.625 41.304688 7.25 41.25 C 7.433594 41.070312 7.621094 40.890625 7.8125 40.703125 C 9.050781 39.4375 9.683594 38.414062 10.25 36.75 C 9.671875 36.75 9.09375 36.75 8.5 36.75 C 8.511719 37.027344 8.519531 37.308594 8.53125 37.59375 C 8.5 38.5 8.5 38.5 8 39 C 7.265625 38.90625 7.035156 38.785156 6.5 38.25 C 6.46875 37.34375 6.46875 37.34375 6.5 36.5 C 6.082031 36.515625 6.082031 36.515625 5.65625 36.53125 C 4.75 36.5 4.75 36.5 4.25 36 C 4.34375 35.34375 4.34375 35.34375 4.5 34.75 C 5.242188 34.75 5.984375 34.75 6.75 34.75 C 6.75 34.007812 6.75 33.265625 6.75 32.5 C 7.34375 32.34375 7.34375 32.34375 8 32.25 C 8.5 32.75 8.5 32.75 8.53125 33.65625 C 8.519531 33.933594 8.511719 34.210938 8.5 34.5 C 9.078125 34.5 9.65625 34.5 10.25 34.5 C 9.859375 32.882812 9.261719 31.835938 8.109375 30.632812 C 7.75 30.25 7.75 30.25 7.75 30 Z M 7.75 30 "/>
<path style=" stroke:none;fill-rule:nonzero;fill:rgb(86.666667%,37.64706%,41.568628%);fill-opacity:1;" d="M 56.75 30 C 58.335938 30.128906 59.605469 30.519531 60.683594 31.742188 C 62.109375 33.613281 62.242188 35.183594 62 37.5 C 61.269531 39.441406 59.777344 40.359375 58 41.25 C 57.417969 41.261719 56.832031 41.261719 56.25 41.25 C 56.429688 41.085938 56.609375 40.921875 56.796875 40.75 C 58.019531 39.523438 58.738281 38.140625 59.25 36.5 C 59.078125 36.503906 58.90625 36.503906 58.726562 36.503906 C 57.949219 36.511719 57.171875 36.511719 56.390625 36.515625 C 56.117188 36.515625 55.847656 36.519531 55.566406 36.523438 C 55.308594 36.523438 55.046875 36.523438 54.78125 36.523438 C 54.542969 36.523438 54.300781 36.527344 54.054688 36.527344 C 53.5 36.5 53.5 36.5 53.25 36.25 C 53.203125 35.640625 53.203125 35.640625 53.25 35 C 53.75 34.5 53.75 34.5 54.3125 34.441406 C 54.539062 34.445312 54.765625 34.449219 55.003906 34.449219 C 55.246094 34.453125 55.496094 34.453125 55.75 34.453125 C 56.136719 34.460938 56.136719 34.460938 56.53125 34.46875 C 56.792969 34.46875 57.050781 34.472656 57.320312 34.476562 C 57.960938 34.484375 58.609375 34.488281 59.25 34.5 C 59.136719 34.183594 59.023438 33.867188 58.90625 33.550781 C 58.84375 33.375 58.777344 33.199219 58.710938 33.015625 C 58.253906 31.898438 57.484375 30.953125 56.75 30 Z M 56.75 30 "/>
<path style=" stroke:none;fill-rule:nonzero;fill:rgb(97.254902%,96.470588%,96.862745%);fill-opacity:1;" d="M 15.5 49.25 C 16.574219 49.25 17.644531 49.25 18.75 49.25 C 18.75 52.300781 18.75 55.355469 18.75 58.5 C 17.675781 58.5 16.605469 58.5 15.5 58.5 C 15.5 55.449219 15.5 52.394531 15.5 49.25 Z M 15.5 49.25 "/>
<path style=" stroke:none;fill-rule:nonzero;fill:rgb(0.392157%,0.784314%,1.176471%);fill-opacity:1;" d="M 35.25 47.75 C 36.171875 47.921875 36.171875 47.921875 36.5 48.25 C 36.621094 49.113281 36.519531 49.464844 36.0625 50.222656 C 35.878906 50.464844 35.691406 50.703125 35.5 50.953125 C 35.316406 51.199219 35.128906 51.441406 34.9375 51.691406 C 34.792969 51.878906 34.648438 52.058594 34.5 52.25 C 34.777344 52.28125 35.058594 52.3125 35.34375 52.34375 C 36.25 52.5 36.25 52.5 36.75 53 C 36.714844 54.523438 36.171875 55.398438 35.28125 56.5625 C 35.171875 56.714844 35.058594 56.867188 34.941406 57.023438 C 33.820312 58.542969 33.820312 58.542969 33.25 59 C 32.703125 58.921875 32.703125 58.921875 32.25 58.75 C 32.054688 58.234375 32.054688 58.234375 32 57.5 C 32.347656 56.878906 32.683594 56.359375 33.109375 55.796875 C 33.21875 55.648438 33.328125 55.496094 33.4375 55.34375 C 33.703125 54.976562 33.976562 54.613281 34.25 54.25 C 33.769531 54.265625 33.769531 54.265625 33.28125 54.28125 C 32.738281 54.300781 32.738281 54.300781 32.25 54.25 C 32.085938 54.085938 31.921875 53.921875 31.75 53.75 C 31.75 52.230469 32.636719 51.214844 33.5 50.046875 C 33.640625 49.851562 33.78125 49.660156 33.925781 49.460938 C 34.933594 48.066406 34.933594 48.066406 35.25 47.75 Z M 35.25 47.75 "/>
<path style=" stroke:none;fill-rule:nonzero;fill:rgb(96.078432%,71.372551%,33.725491%);fill-opacity:1;" d="M 33.5 11.25 C 33.996094 11.25 34.488281 11.25 35 11.25 C 35.078125 11.40625 35.152344 11.566406 35.234375 11.726562 C 35.988281 13.214844 36.859375 14.496094 37.90625 15.78125 C 39.9375 18.316406 40.589844 20.160156 40.25 23.5 C 39.792969 25.671875 38.75 27.351562 36.941406 28.648438 C 36.46875 28.949219 35.992188 29.234375 35.5 29.5 C 35.5 29.253906 35.5 29.003906 35.5 28.75 C 35.675781 28.589844 35.851562 28.429688 36.03125 28.265625 C 37.558594 26.835938 38.378906 24.609375 38.558594 22.566406 C 38.640625 19.324219 37.472656 17.246094 35.5 14.75 C 33.851562 12.664062 33.851562 12.664062 33.5 11.25 Z M 33.5 11.25 "/>
<path style=" stroke:none;fill-rule:nonzero;fill:rgb(97.254902%,96.470588%,96.862745%);fill-opacity:1;" d="M 29.046875 6.679688 C 29.21875 6.679688 29.394531 6.683594 29.578125 6.683594 C 29.847656 6.683594 29.847656 6.683594 30.125 6.683594 C 30.507812 6.683594 30.890625 6.683594 31.269531 6.683594 C 31.855469 6.6875 32.441406 6.683594 33.023438 6.679688 C 33.398438 6.683594 33.769531 6.683594 34.140625 6.683594 C 34.316406 6.683594 34.492188 6.679688 34.671875 6.679688 C 35.585938 6.691406 35.964844 6.726562 36.75 7.25 C 36.84375 8 36.84375 8 36.75 8.75 C 35.851562 9.351562 35.1875 9.324219 34.148438 9.324219 C 33.878906 9.328125 33.878906 9.328125 33.601562 9.328125 C 33.21875 9.332031 32.839844 9.332031 32.460938 9.328125 C 31.878906 9.328125 31.296875 9.332031 30.710938 9.339844 C 30.34375 9.339844 29.972656 9.339844 29.601562 9.339844 C 29.339844 9.34375 29.339844 9.34375 29.074219 9.347656 C 28.347656 9.339844 27.863281 9.328125 27.253906 8.910156 C 27 8.5 27 8.5 27.046875 7.859375 C 27.429688 6.71875 27.921875 6.691406 29.046875 6.679688 Z M 29.046875 6.679688 "/>
<path style=" stroke:none;fill-rule:nonzero;fill:rgb(0.784314%,2.352941%,1.960784%);fill-opacity:1;" d="M 8.25 32.5 C 8.5 32.75 8.5 32.75 8.523438 33.210938 C 8.515625 33.726562 8.507812 34.238281 8.5 34.75 C 8.824219 34.746094 9.148438 34.738281 9.484375 34.734375 C 9.824219 34.730469 10.164062 34.734375 10.5 34.75 C 10.75 35 10.75 35 10.78125 35.625 C 10.75 36.25 10.75 36.25 10.5 36.5 C 9.832031 36.535156 9.171875 36.511719 8.5 36.5 C 8.511719 36.820312 8.519531 37.140625 8.53125 37.46875 C 8.550781 38.011719 8.550781 38.011719 8.5 38.5 C 8.335938 38.664062 8.171875 38.828125 8 39 C 7.265625 38.90625 7.035156 38.785156 6.5 38.25 C 6.46875 37.34375 6.46875 37.34375 6.5 36.5 C 6.082031 36.515625 6.082031 36.515625 5.65625 36.53125 C 4.75 36.5 4.75 36.5 4.25 36 C 4.34375 35.34375 4.34375 35.34375 4.5 34.75 C 5.242188 34.75 5.984375 34.75 6.75 34.75 C 6.75 34.007812 6.75 33.265625 6.75 32.5 C 7.375 32.1875 7.601562 32.289062 8.25 32.5 Z M 8.25 32.5 "/>
<path style=" stroke:none;fill-rule:nonzero;fill:rgb(21.176471%,36.470589%,48.627451%);fill-opacity:1;" d="M 33.5 1.75 C 34.296875 2.25 34.296875 2.25 34.75 3 C 34.75 3.660156 34.75 4.320312 34.75 5 C 33.101562 5 31.449219 5 29.75 5 C 29.75 2.75 29.75 2.75 30.078125 2.109375 C 31.183594 1.515625 32.277344 1.546875 33.5 1.75 Z M 33.5 1.75 "/>
<path style=" stroke:none;fill-rule:nonzero;fill:rgb(0.392157%,0%,0%);fill-opacity:1;" d="M 56.359375 34.703125 C 56.761719 34.699219 56.761719 34.699219 57.175781 34.691406 C 57.433594 34.691406 57.6875 34.691406 57.953125 34.691406 C 58.308594 34.691406 58.308594 34.691406 58.667969 34.6875 C 59.25 34.75 59.25 34.75 59.75 35.25 C 59.617188 36.132812 59.617188 36.132812 59.25 36.5 C 58.828125 36.527344 58.402344 36.53125 57.976562 36.53125 C 57.71875 36.53125 57.460938 36.53125 57.195312 36.53125 C 56.789062 36.53125 56.789062 36.53125 56.375 36.53125 C 56.105469 36.53125 55.832031 36.53125 55.554688 36.53125 C 55.296875 36.53125 55.039062 36.53125 54.773438 36.53125 C 54.535156 36.53125 54.296875 36.53125 54.050781 36.53125 C 53.5 36.5 53.5 36.5 53.25 36.25 C 53.21875 35.625 53.21875 35.625 53.25 35 C 53.871094 34.378906 55.527344 34.703125 56.359375 34.703125 Z M 56.359375 34.703125 "/>
<path style=" stroke:none;fill-rule:nonzero;fill:rgb(83.92157%,83.137256%,85.490197%);fill-opacity:1;" d="M 15.5 49.25 C 16.574219 49.25 17.644531 49.25 18.75 49.25 C 18.75 52.300781 18.75 55.355469 18.75 58.5 C 17.675781 58.5 16.605469 58.5 15.5 58.5 C 15.5 57.839844 15.5 57.179688 15.5 56.5 C 16.488281 56.5 17.480469 56.5 18.5 56.5 C 18.5 54.191406 18.5 51.878906 18.5 49.5 C 17.511719 49.5 16.519531 49.5 15.5 49.5 C 15.5 49.417969 15.5 49.335938 15.5 49.25 Z M 15.5 49.25 "/>
<path style=" stroke:none;fill-rule:nonzero;fill:rgb(94.901961%,94.117647%,94.509804%);fill-opacity:1;" d="M 33 21.25 C 33.25 21.5 33.25 21.5 33.296875 22.359375 C 33.25 23.25 33.25 23.25 32.75 23.75 C 31.964844 23.832031 31.457031 23.882812 30.78125 23.453125 C 30.398438 22.835938 30.390625 22.460938 30.5 21.75 C 31.101562 20.6875 31.941406 21.015625 33 21.25 Z M 33 21.25 "/>
<path style=" stroke:none;fill-rule:nonzero;fill:rgb(14.117648%,25.490198%,33.725491%);fill-opacity:1;" d="M 30.75 1.75 C 33.191406 1.558594 33.191406 1.558594 34.296875 2.25 C 34.75 3 34.75 3 34.75 5 C 33.101562 5 31.449219 5 29.75 5 C 29.75 4.917969 29.75 4.835938 29.75 4.75 C 30.824219 4.75 31.894531 4.75 33 4.75 C 32.917969 3.84375 32.835938 2.933594 32.75 2 C 32.089844 2 31.429688 2 30.75 2 C 30.75 1.917969 30.75 1.835938 30.75 1.75 Z M 30.75 1.75 "/>
<path style=" stroke:none;fill-rule:nonzero;fill:rgb(84.313726%,83.92157%,85.882354%);fill-opacity:1;" d="M 29.046875 6.679688 C 29.21875 6.679688 29.394531 6.683594 29.578125 6.683594 C 29.847656 6.683594 29.847656 6.683594 30.125 6.683594 C 30.507812 6.683594 30.890625 6.683594 31.269531 6.683594 C 31.855469 6.6875 32.441406 6.683594 33.023438 6.679688 C 33.398438 6.683594 33.769531 6.683594 34.140625 6.683594 C 34.316406 6.683594 34.492188 6.679688 34.671875 6.679688 C 35.585938 6.691406 35.964844 6.726562 36.75 7.25 C 36.84375 8 36.84375 8 36.75 8.75 C 36 9.25 36 9.25 35 9.25 C 35 8.507812 35 7.765625 35 7 C 33.851562 7.003906 32.707031 7.027344 31.5625 7.046875 C 31.238281 7.046875 30.914062 7.050781 30.574219 7.050781 C 30.261719 7.058594 29.949219 7.066406 29.628906 7.074219 C 29.339844 7.078125 29.054688 7.082031 28.753906 7.085938 C 27.789062 7.296875 27.527344 7.683594 27 8.5 C 27.230469 7.039062 27.535156 6.695312 29.046875 6.679688 Z M 29.046875 6.679688 "/>
</g>
</svg>
