<?xml version="1.0" encoding="UTF-8"?>
<svg xmlns="http://www.w3.org/2000/svg" xmlns:xlink="http://www.w3.org/1999/xlink" width="64" height="64" viewBox="0 0 64 64" version="1.1">
<g id="surface1">
<path style=" stroke:none;fill-rule:nonzero;fill:rgb(84.313726%,34.901962%,29.019609%);fill-opacity:1;" d="M 4.265625 34.707031 C 4.496094 34.703125 4.726562 34.703125 4.96875 34.699219 C 5.734375 34.695312 6.503906 34.691406 7.269531 34.691406 C 7.53125 34.6875 7.792969 34.6875 8.066406 34.6875 C 9.453125 34.683594 10.839844 34.679688 12.226562 34.675781 C 13.660156 34.671875 15.09375 34.664062 16.527344 34.65625 C 17.628906 34.648438 18.730469 34.644531 19.835938 34.644531 C 20.363281 34.644531 20.890625 34.640625 21.417969 34.636719 C 22.160156 34.628906 22.898438 34.628906 23.640625 34.632812 C 23.964844 34.628906 23.964844 34.628906 24.300781 34.625 C 25.652344 34.632812 26.433594 34.839844 27.5 35.75 C 28.007812 36.511719 28.0625 36.664062 28.066406 37.519531 C 28.070312 37.726562 28.070312 37.9375 28.074219 38.152344 C 28.070312 38.375 28.070312 38.601562 28.070312 38.839844 C 28.074219 39.074219 28.078125 39.316406 28.078125 39.5625 C 28.082031 40.355469 28.085938 41.152344 28.085938 41.941406 C 28.085938 42.492188 28.085938 43.046875 28.089844 43.597656 C 28.09375 44.75 28.09375 45.90625 28.09375 47.0625 C 28.09375 48.542969 28.097656 50.023438 28.105469 51.503906 C 28.113281 52.644531 28.113281 53.78125 28.113281 54.917969 C 28.113281 55.464844 28.117188 56.011719 28.121094 56.558594 C 28.128906 57.320312 28.125 58.082031 28.121094 58.847656 C 28.125 59.074219 28.128906 59.300781 28.128906 59.535156 C 28.121094 60.546875 28.085938 61.109375 27.554688 61.992188 C 26.738281 62.738281 26.085938 63.0625 24.976562 63.066406 C 24.675781 63.066406 24.675781 63.066406 24.367188 63.070312 C 24.035156 63.070312 24.035156 63.070312 23.703125 63.066406 C 23.472656 63.070312 23.238281 63.070312 23 63.074219 C 22.230469 63.074219 21.464844 63.074219 20.695312 63.074219 C 20.160156 63.074219 19.628906 63.078125 19.09375 63.078125 C 17.976562 63.082031 16.855469 63.082031 15.738281 63.078125 C 14.304688 63.078125 12.871094 63.082031 11.441406 63.089844 C 10.335938 63.089844 9.234375 63.089844 8.132812 63.089844 C 7.605469 63.089844 7.074219 63.09375 6.546875 63.097656 C 5.808594 63.097656 5.070312 63.097656 4.328125 63.09375 C 4.003906 63.097656 4.003906 63.097656 3.667969 63.097656 C 2.210938 63.085938 1.410156 62.839844 0.304688 61.851562 C -0.179688 60.894531 -0.109375 59.945312 -0.105469 58.886719 C -0.109375 58.648438 -0.109375 58.410156 -0.109375 58.164062 C -0.117188 57.375 -0.117188 56.582031 -0.117188 55.789062 C -0.117188 55.242188 -0.121094 54.691406 -0.121094 54.140625 C -0.125 52.988281 -0.125 51.835938 -0.125 50.683594 C -0.121094 49.207031 -0.128906 47.726562 -0.140625 46.253906 C -0.148438 45.117188 -0.148438 43.980469 -0.148438 42.847656 C -0.148438 42.300781 -0.152344 41.753906 -0.15625 41.210938 C -0.160156 40.449219 -0.15625 39.6875 -0.152344 38.925781 C -0.15625 38.699219 -0.160156 38.476562 -0.164062 38.246094 C -0.152344 37.179688 -0.0859375 36.464844 0.585938 35.613281 C 1.710938 34.574219 2.816406 34.710938 4.265625 34.707031 Z M 4.265625 34.707031 "/>
<path style=" stroke:none;fill-rule:nonzero;fill:rgb(49.411765%,66.666669%,85.490197%);fill-opacity:1;" d="M 38.863281 -0.105469 C 39.21875 -0.109375 39.21875 -0.109375 39.585938 -0.113281 C 40.375 -0.117188 41.167969 -0.117188 41.960938 -0.117188 C 42.507812 -0.121094 43.058594 -0.121094 43.609375 -0.121094 C 44.761719 -0.128906 45.914062 -0.128906 47.066406 -0.125 C 48.542969 -0.125 50.023438 -0.132812 51.496094 -0.140625 C 52.632812 -0.148438 53.769531 -0.148438 54.902344 -0.148438 C 55.449219 -0.148438 55.996094 -0.148438 56.539062 -0.15625 C 57.300781 -0.160156 58.0625 -0.15625 58.824219 -0.15625 C 59.050781 -0.15625 59.273438 -0.160156 59.503906 -0.164062 C 60.570312 -0.148438 61.285156 -0.0859375 62.136719 0.585938 C 63.175781 1.710938 63.039062 2.8125 63.042969 4.265625 C 63.046875 4.496094 63.046875 4.726562 63.050781 4.96875 C 63.054688 5.734375 63.058594 6.503906 63.058594 7.269531 C 63.0625 7.53125 63.0625 7.796875 63.0625 8.066406 C 63.066406 9.453125 63.070312 10.839844 63.074219 12.226562 C 63.078125 13.664062 63.085938 15.09375 63.09375 16.527344 C 63.101562 17.628906 63.105469 18.734375 63.105469 19.835938 C 63.105469 20.363281 63.109375 20.890625 63.113281 21.421875 C 63.121094 22.160156 63.121094 22.898438 63.117188 23.636719 C 63.121094 23.859375 63.125 24.074219 63.125 24.296875 C 63.117188 25.652344 62.910156 26.433594 62 27.5 C 61.238281 28.007812 61.085938 28.0625 60.230469 28.066406 C 59.917969 28.070312 59.917969 28.070312 59.597656 28.074219 C 59.257812 28.074219 59.257812 28.074219 58.910156 28.074219 C 58.675781 28.074219 58.433594 28.074219 58.1875 28.078125 C 57.394531 28.082031 56.597656 28.082031 55.808594 28.085938 C 55.257812 28.085938 54.703125 28.085938 54.152344 28.089844 C 53 28.09375 51.84375 28.09375 50.6875 28.09375 C 49.207031 28.09375 47.726562 28.101562 46.246094 28.109375 C 45.105469 28.113281 43.96875 28.113281 42.832031 28.113281 C 42.285156 28.113281 41.738281 28.117188 41.191406 28.121094 C 40.429688 28.125 39.667969 28.125 38.902344 28.121094 C 38.675781 28.125 38.453125 28.128906 38.214844 28.128906 C 37.203125 28.121094 36.640625 28.085938 35.757812 27.554688 C 35.011719 26.738281 34.6875 26.085938 34.683594 24.976562 C 34.683594 24.773438 34.683594 24.574219 34.679688 24.367188 C 34.679688 24.148438 34.683594 23.925781 34.683594 23.703125 C 34.679688 23.46875 34.679688 23.238281 34.675781 23 C 34.675781 22.234375 34.675781 21.464844 34.675781 20.699219 C 34.675781 20.164062 34.671875 19.628906 34.671875 19.09375 C 34.667969 17.976562 34.667969 16.859375 34.671875 15.738281 C 34.671875 14.304688 34.667969 12.871094 34.660156 11.4375 C 34.660156 10.335938 34.660156 9.234375 34.660156 8.132812 C 34.660156 7.601562 34.65625 7.074219 34.652344 6.546875 C 34.652344 5.808594 34.652344 5.066406 34.65625 4.328125 C 34.652344 4.109375 34.652344 3.890625 34.652344 3.667969 C 34.664062 2.210938 34.910156 1.410156 35.898438 0.300781 C 36.855469 -0.179688 37.804688 -0.109375 38.863281 -0.105469 Z M 38.863281 -0.105469 "/>
<path style=" stroke:none;fill-rule:nonzero;fill:rgb(93.725491%,80.784315%,28.627452%);fill-opacity:1;" d="M 2.5 -0.0390625 C 2.710938 -0.0390625 2.917969 -0.0429688 3.136719 -0.046875 C 3.367188 -0.046875 3.597656 -0.046875 3.832031 -0.046875 C 4.074219 -0.0507812 4.316406 -0.0546875 4.566406 -0.0546875 C 5.367188 -0.0625 6.171875 -0.0664062 6.972656 -0.0703125 C 7.382812 -0.0703125 7.382812 -0.0703125 7.804688 -0.0742188 C 9.253906 -0.078125 10.699219 -0.0820312 12.152344 -0.0898438 C 13.648438 -0.0898438 15.144531 -0.101562 16.644531 -0.117188 C 17.796875 -0.125 18.945312 -0.125 20.097656 -0.128906 C 20.648438 -0.132812 21.199219 -0.132812 21.753906 -0.140625 C 22.527344 -0.148438 23.296875 -0.148438 24.070312 -0.144531 C 24.414062 -0.152344 24.414062 -0.152344 24.761719 -0.160156 C 25.890625 -0.144531 26.347656 -0.117188 27.261719 0.605469 C 28.117188 1.734375 28.039062 2.65625 28.046875 4.03125 C 28.050781 4.386719 28.050781 4.386719 28.054688 4.75 C 28.0625 5.535156 28.066406 6.320312 28.066406 7.105469 C 28.070312 7.375 28.070312 7.640625 28.074219 7.917969 C 28.078125 9.335938 28.082031 10.753906 28.089844 12.175781 C 28.089844 13.640625 28.101562 15.105469 28.117188 16.570312 C 28.125 17.695312 28.125 18.820312 28.128906 19.949219 C 28.128906 20.488281 28.132812 21.027344 28.140625 21.570312 C 28.148438 22.328125 28.148438 23.082031 28.144531 23.839844 C 28.152344 24.0625 28.152344 24.285156 28.160156 24.515625 C 28.148438 25.585938 28.082031 26.285156 27.398438 27.132812 C 26.3125 28.167969 25.402344 28.039062 23.96875 28.042969 C 23.730469 28.046875 23.496094 28.046875 23.25 28.050781 C 22.464844 28.054688 21.679688 28.054688 20.894531 28.058594 C 20.492188 28.0625 20.492188 28.0625 20.082031 28.0625 C 18.664062 28.070312 17.246094 28.070312 15.828125 28.074219 C 14.359375 28.078125 12.894531 28.085938 11.429688 28.09375 C 10.304688 28.101562 9.179688 28.105469 8.050781 28.105469 C 7.511719 28.105469 6.972656 28.109375 6.429688 28.113281 C 5.671875 28.117188 4.917969 28.117188 4.160156 28.117188 C 3.9375 28.121094 3.714844 28.125 3.484375 28.125 C 2.085938 28.117188 1.324219 27.917969 0.25 27 C -0.03125 26.433594 -0.0351562 26.125 -0.0351562 25.5 C -0.0390625 25.289062 -0.0390625 25.082031 -0.0429688 24.863281 C -0.0429688 24.632812 -0.0429688 24.402344 -0.0429688 24.167969 C -0.046875 23.925781 -0.046875 23.683594 -0.0507812 23.433594 C -0.0546875 22.632812 -0.0585938 21.828125 -0.0585938 21.027344 C -0.0625 20.75 -0.0625 20.480469 -0.0625 20.195312 C -0.0664062 18.746094 -0.0703125 17.300781 -0.0742188 15.847656 C -0.078125 14.351562 -0.0859375 12.855469 -0.09375 11.355469 C -0.101562 10.203125 -0.105469 9.054688 -0.105469 7.902344 C -0.105469 7.351562 -0.109375 6.800781 -0.113281 6.246094 C -0.121094 5.472656 -0.121094 4.703125 -0.117188 3.929688 C -0.121094 3.703125 -0.125 3.472656 -0.125 3.238281 C -0.121094 2.191406 -0.0898438 1.644531 0.476562 0.738281 C 1.1875 0.078125 1.558594 -0.03125 2.5 -0.0390625 Z M 2.5 -0.0390625 "/>
<path style=" stroke:none;fill-rule:nonzero;fill:rgb(13.725491%,63.529414%,29.803923%);fill-opacity:1;" d="M 48 33.75 C 48.875 33.65625 48.875 33.65625 49.75 33.75 C 50.300781 34.578125 50.3125 34.820312 50.308594 35.777344 C 50.308594 36.039062 50.308594 36.300781 50.308594 36.566406 C 50.304688 36.847656 50.300781 37.128906 50.300781 37.417969 C 50.296875 37.703125 50.296875 37.992188 50.296875 38.289062 C 50.296875 39.207031 50.289062 40.128906 50.28125 41.046875 C 50.277344 41.671875 50.277344 42.292969 50.273438 42.914062 C 50.269531 44.441406 50.261719 45.972656 50.25 47.5 C 50.492188 47.496094 50.492188 47.496094 50.738281 47.496094 C 52.414062 47.484375 54.085938 47.476562 55.761719 47.472656 C 56.386719 47.46875 57.015625 47.46875 57.640625 47.460938 C 58.539062 47.453125 59.433594 47.453125 60.332031 47.449219 C 60.753906 47.449219 60.753906 47.449219 61.183594 47.441406 C 61.441406 47.441406 61.703125 47.441406 61.972656 47.441406 C 62.316406 47.441406 62.316406 47.441406 62.667969 47.441406 C 63.25 47.5 63.25 47.5 64 48 C 64.09375 48.875 64.09375 48.875 64 49.75 C 63.171875 50.300781 62.929688 50.3125 61.972656 50.308594 C 61.710938 50.308594 61.449219 50.308594 61.183594 50.308594 C 60.902344 50.304688 60.621094 50.300781 60.332031 50.300781 C 60.046875 50.296875 59.757812 50.296875 59.460938 50.296875 C 58.542969 50.296875 57.621094 50.289062 56.703125 50.28125 C 56.078125 50.277344 55.457031 50.277344 54.835938 50.273438 C 53.308594 50.269531 51.777344 50.261719 50.25 50.25 C 50.25 50.410156 50.253906 50.574219 50.253906 50.738281 C 50.265625 52.414062 50.273438 54.085938 50.277344 55.761719 C 50.28125 56.386719 50.28125 57.015625 50.289062 57.640625 C 50.296875 58.539062 50.296875 59.433594 50.300781 60.332031 C 50.300781 60.613281 50.304688 60.894531 50.308594 61.183594 C 50.308594 61.441406 50.308594 61.703125 50.308594 61.972656 C 50.308594 62.199219 50.308594 62.429688 50.308594 62.667969 C 50.25 63.25 50.25 63.25 49.75 64 C 48.875 64.09375 48.875 64.09375 48 64 C 47.449219 63.171875 47.4375 62.929688 47.441406 61.972656 C 47.441406 61.710938 47.441406 61.449219 47.441406 61.183594 C 47.445312 60.902344 47.449219 60.621094 47.449219 60.332031 C 47.453125 60.046875 47.453125 59.757812 47.453125 59.460938 C 47.453125 58.542969 47.460938 57.621094 47.46875 56.703125 C 47.472656 56.078125 47.472656 55.457031 47.476562 54.835938 C 47.480469 53.308594 47.488281 51.777344 47.5 50.25 C 47.339844 50.25 47.175781 50.253906 47.011719 50.253906 C 45.335938 50.265625 43.664062 50.273438 41.988281 50.277344 C 41.363281 50.28125 40.734375 50.28125 40.109375 50.289062 C 39.210938 50.296875 38.316406 50.296875 37.417969 50.300781 C 36.996094 50.300781 36.996094 50.300781 36.566406 50.308594 C 36.308594 50.308594 36.046875 50.308594 35.777344 50.308594 C 35.550781 50.308594 35.320312 50.308594 35.082031 50.308594 C 34.5 50.25 34.5 50.25 33.75 49.75 C 33.476562 49.117188 33.460938 48.851562 33.703125 48.203125 C 34 47.75 34 47.75 34.5 47.5 C 34.914062 47.476562 35.332031 47.46875 35.75 47.472656 C 36.140625 47.472656 36.140625 47.472656 36.539062 47.472656 C 36.820312 47.472656 37.101562 47.476562 37.390625 47.476562 C 37.679688 47.476562 37.96875 47.476562 38.265625 47.476562 C 39.1875 47.476562 40.109375 47.480469 41.03125 47.484375 C 41.65625 47.484375 42.28125 47.488281 42.902344 47.488281 C 44.433594 47.488281 45.96875 47.496094 47.5 47.5 C 47.5 47.339844 47.496094 47.175781 47.496094 47.011719 C 47.484375 45.335938 47.476562 43.664062 47.472656 41.988281 C 47.46875 41.363281 47.46875 40.734375 47.460938 40.109375 C 47.453125 39.210938 47.453125 38.316406 47.449219 37.417969 C 47.449219 37.136719 47.445312 36.855469 47.441406 36.566406 C 47.441406 36.175781 47.441406 36.175781 47.441406 35.777344 C 47.441406 35.550781 47.441406 35.320312 47.441406 35.082031 C 47.5 34.5 47.5 34.5 48 33.75 Z M 48 33.75 "/>
</g>
</svg>
