<?xml version="1.0" encoding="UTF-8"?>
<svg xmlns="http://www.w3.org/2000/svg" xmlns:xlink="http://www.w3.org/1999/xlink" width="64" height="64" viewBox="0 0 64 64" version="1.1">
<g id="surface1">
<path style=" stroke:none;fill-rule:nonzero;fill:rgb(100%,75.294119%,5.882353%);fill-opacity:1;" d="M 38.894531 33.960938 C 39.144531 33.957031 39.144531 33.957031 39.398438 33.953125 C 39.949219 33.953125 40.496094 33.949219 41.042969 33.949219 C 41.425781 33.945312 41.808594 33.945312 42.191406 33.945312 C 42.992188 33.941406 43.792969 33.941406 44.59375 33.941406 C 45.621094 33.941406 46.640625 33.933594 47.667969 33.925781 C 48.457031 33.917969 49.246094 33.917969 50.039062 33.917969 C 50.414062 33.917969 50.792969 33.917969 51.167969 33.914062 C 51.699219 33.910156 52.226562 33.910156 52.757812 33.910156 C 53.058594 33.910156 53.359375 33.910156 53.667969 33.90625 C 55 34.054688 55.980469 34.582031 56.828125 35.609375 C 57.011719 35.824219 57.011719 35.824219 57.199219 36.042969 C 57.828125 37 57.785156 38.003906 57.792969 39.121094 C 57.800781 39.613281 57.800781 39.613281 57.804688 40.113281 C 57.804688 40.476562 57.808594 40.832031 57.808594 41.191406 C 57.808594 41.371094 57.8125 41.554688 57.8125 41.742188 C 57.816406 42.703125 57.824219 43.664062 57.824219 44.621094 C 57.828125 45.609375 57.835938 46.597656 57.84375 47.585938 C 57.851562 48.351562 57.855469 49.113281 57.855469 49.875 C 57.855469 50.238281 57.859375 50.601562 57.863281 50.96875 C 57.886719 52.953125 57.878906 54.550781 56.75 56.25 C 55.496094 57.476562 54.328125 57.8125 52.597656 57.820312 C 52.269531 57.820312 51.941406 57.820312 51.601562 57.824219 C 51.242188 57.824219 50.882812 57.824219 50.523438 57.824219 C 50.15625 57.828125 49.789062 57.828125 49.417969 57.828125 C 48.640625 57.828125 47.871094 57.828125 47.09375 57.828125 C 46.105469 57.828125 45.121094 57.832031 44.128906 57.835938 C 43.367188 57.84375 42.605469 57.84375 41.84375 57.839844 C 41.476562 57.839844 41.113281 57.84375 40.75 57.84375 C 36.742188 57.871094 36.742188 57.871094 35.261719 56.570312 C 35.140625 56.421875 35.027344 56.277344 34.90625 56.125 C 34.726562 55.90625 34.726562 55.90625 34.539062 55.679688 C 33.925781 54.769531 33.964844 53.921875 33.960938 52.855469 C 33.957031 52.691406 33.957031 52.523438 33.953125 52.351562 C 33.953125 51.804688 33.949219 51.253906 33.949219 50.707031 C 33.949219 50.324219 33.949219 49.941406 33.945312 49.558594 C 33.941406 48.757812 33.941406 47.957031 33.941406 47.15625 C 33.9375 46.132812 33.933594 45.105469 33.925781 44.082031 C 33.917969 43.292969 33.917969 42.503906 33.917969 41.710938 C 33.917969 41.335938 33.917969 40.957031 33.914062 40.578125 C 33.910156 40.050781 33.910156 39.523438 33.910156 38.992188 C 33.910156 38.691406 33.910156 38.390625 33.90625 38.078125 C 34.058594 36.742188 34.585938 35.765625 35.625 34.921875 C 35.773438 34.800781 35.917969 34.675781 36.070312 34.550781 C 36.976562 33.917969 37.828125 33.964844 38.894531 33.960938 Z M 38.894531 33.960938 "/>
<path style=" stroke:none;fill-rule:nonzero;fill:rgb(89.803922%,23.529412%,21.176471%);fill-opacity:1;" d="M 11.144531 33.960938 C 11.394531 33.957031 11.394531 33.957031 11.648438 33.953125 C 12.199219 33.953125 12.746094 33.949219 13.292969 33.949219 C 13.675781 33.945312 14.058594 33.945312 14.441406 33.945312 C 15.242188 33.941406 16.042969 33.941406 16.84375 33.941406 C 17.871094 33.941406 18.890625 33.933594 19.917969 33.925781 C 20.707031 33.917969 21.496094 33.917969 22.289062 33.917969 C 22.664062 33.917969 23.042969 33.917969 23.417969 33.914062 C 23.949219 33.910156 24.476562 33.910156 25.007812 33.910156 C 25.308594 33.910156 25.609375 33.910156 25.917969 33.90625 C 27.261719 34.058594 28.230469 34.585938 29.078125 35.625 C 29.261719 35.84375 29.261719 35.84375 29.449219 36.070312 C 30.082031 36.976562 30.035156 37.828125 30.039062 38.894531 C 30.042969 39.144531 30.042969 39.144531 30.042969 39.398438 C 30.046875 39.945312 30.050781 40.496094 30.050781 41.042969 C 30.050781 41.425781 30.054688 41.808594 30.054688 42.191406 C 30.058594 42.992188 30.058594 43.792969 30.058594 44.59375 C 30.0625 45.621094 30.066406 46.644531 30.074219 47.667969 C 30.078125 48.457031 30.078125 49.246094 30.078125 50.039062 C 30.082031 50.414062 30.085938 50.792969 30.085938 51.167969 C 30.09375 51.699219 30.089844 52.230469 30.089844 52.757812 C 30.089844 53.210938 30.089844 53.210938 30.09375 53.667969 C 29.945312 55 29.417969 55.980469 28.390625 56.828125 C 28.246094 56.949219 28.101562 57.074219 27.953125 57.199219 C 27 57.828125 26 57.785156 24.878906 57.792969 C 24.550781 57.796875 24.222656 57.800781 23.886719 57.804688 C 23.523438 57.808594 23.167969 57.808594 22.808594 57.808594 C 22.539062 57.8125 22.539062 57.8125 22.261719 57.8125 C 21.300781 57.816406 20.335938 57.820312 19.378906 57.824219 C 18.390625 57.828125 17.402344 57.835938 16.414062 57.84375 C 15.652344 57.851562 14.886719 57.855469 14.125 57.855469 C 13.761719 57.855469 13.398438 57.859375 13.03125 57.863281 C 11.050781 57.886719 9.449219 57.878906 7.75 56.75 C 6.527344 55.496094 6.1875 54.328125 6.183594 52.597656 C 6.179688 52.269531 6.175781 51.941406 6.175781 51.601562 C 6.175781 51.242188 6.175781 50.882812 6.175781 50.523438 C 6.175781 50.15625 6.171875 49.789062 6.171875 49.417969 C 6.167969 48.640625 6.167969 47.871094 6.167969 47.09375 C 6.171875 46.105469 6.167969 45.121094 6.164062 44.128906 C 6.160156 43.367188 6.160156 42.605469 6.160156 41.84375 C 6.160156 41.476562 6.15625 41.113281 6.15625 40.75 C 6.128906 36.742188 6.128906 36.742188 7.429688 35.257812 C 7.578125 35.140625 7.726562 35.027344 7.875 34.90625 C 8.023438 34.785156 8.167969 34.664062 8.320312 34.542969 C 9.230469 33.925781 10.078125 33.964844 11.144531 33.960938 Z M 11.144531 33.960938 "/>
<path style=" stroke:none;fill-rule:nonzero;fill:rgb(17.254902%,67.058825%,88.235295%);fill-opacity:1;" d="M 11.402344 6.179688 C 11.730469 6.179688 12.0625 6.175781 12.402344 6.175781 C 12.757812 6.175781 13.117188 6.175781 13.472656 6.175781 C 13.84375 6.175781 14.214844 6.175781 14.585938 6.171875 C 15.355469 6.167969 16.132812 6.167969 16.902344 6.171875 C 17.890625 6.171875 18.882812 6.167969 19.871094 6.160156 C 20.632812 6.160156 21.394531 6.160156 22.160156 6.160156 C 22.523438 6.160156 22.886719 6.160156 23.25 6.15625 C 27.257812 6.132812 27.257812 6.132812 28.738281 7.429688 C 28.914062 7.652344 28.914062 7.652344 29.09375 7.875 C 29.214844 8.019531 29.335938 8.167969 29.460938 8.320312 C 30.078125 9.230469 30.035156 10.078125 30.039062 11.144531 C 30.042969 11.394531 30.042969 11.394531 30.042969 11.648438 C 30.046875 12.195312 30.050781 12.746094 30.050781 13.292969 C 30.050781 13.675781 30.054688 14.058594 30.054688 14.441406 C 30.058594 15.242188 30.058594 16.042969 30.058594 16.84375 C 30.0625 17.867188 30.066406 18.894531 30.074219 19.917969 C 30.078125 20.707031 30.082031 21.496094 30.082031 22.285156 C 30.082031 22.664062 30.085938 23.042969 30.085938 23.417969 C 30.089844 23.949219 30.089844 24.480469 30.089844 25.007812 C 30.089844 25.457031 30.089844 25.457031 30.089844 25.917969 C 29.945312 27.257812 29.417969 28.230469 28.375 29.078125 C 28.152344 29.261719 28.152344 29.261719 27.929688 29.453125 C 27.023438 30.082031 26.175781 30.035156 25.105469 30.042969 C 24.9375 30.042969 24.773438 30.042969 24.601562 30.042969 C 24.054688 30.050781 23.503906 30.050781 22.957031 30.050781 C 22.574219 30.050781 22.191406 30.054688 21.808594 30.054688 C 21.007812 30.058594 20.207031 30.058594 19.40625 30.058594 C 18.382812 30.0625 17.355469 30.066406 16.332031 30.074219 C 15.542969 30.078125 14.75 30.082031 13.964844 30.082031 C 13.585938 30.082031 13.207031 30.082031 12.828125 30.085938 C 12.300781 30.089844 11.773438 30.089844 11.242188 30.089844 C 10.941406 30.089844 10.640625 30.089844 10.328125 30.089844 C 9 29.945312 8.023438 29.417969 7.171875 28.390625 C 7.050781 28.246094 6.925781 28.101562 6.800781 27.953125 C 6.167969 27 6.214844 26 6.207031 24.882812 C 6.203125 24.550781 6.199219 24.222656 6.195312 23.882812 C 6.195312 23.527344 6.191406 23.167969 6.1875 22.808594 C 6.1875 22.625 6.1875 22.445312 6.1875 22.257812 C 6.183594 21.300781 6.179688 20.339844 6.175781 19.378906 C 6.175781 18.390625 6.164062 17.402344 6.152344 16.414062 C 6.148438 15.652344 6.148438 14.890625 6.144531 14.125 C 6.144531 13.761719 6.140625 13.394531 6.136719 13.035156 C 6.113281 11.050781 6.121094 9.449219 7.25 7.75 C 8.507812 6.527344 9.675781 6.1875 11.402344 6.179688 Z M 11.402344 6.179688 "/>
<path style=" stroke:none;fill-rule:nonzero;fill:rgb(48.627451%,70.19608%,25.882354%);fill-opacity:1;" d="M 39.121094 6.207031 C 39.613281 6.199219 39.613281 6.199219 40.117188 6.195312 C 40.472656 6.191406 40.832031 6.191406 41.191406 6.191406 C 41.371094 6.1875 41.554688 6.1875 41.742188 6.1875 C 42.703125 6.183594 43.660156 6.179688 44.621094 6.175781 C 45.609375 6.171875 46.597656 6.164062 47.585938 6.15625 C 48.347656 6.148438 49.113281 6.144531 49.875 6.144531 C 50.238281 6.144531 50.601562 6.140625 50.96875 6.136719 C 52.953125 6.113281 54.550781 6.117188 56.25 7.25 C 57.472656 8.503906 57.8125 9.671875 57.820312 11.402344 C 57.820312 11.730469 57.824219 12.0625 57.828125 12.402344 C 57.828125 12.757812 57.824219 13.117188 57.824219 13.476562 C 57.828125 13.84375 57.828125 14.214844 57.828125 14.582031 C 57.828125 15.359375 57.828125 16.128906 57.828125 16.90625 C 57.828125 17.894531 57.832031 18.878906 57.835938 19.867188 C 57.84375 20.632812 57.84375 21.394531 57.839844 22.160156 C 57.84375 22.523438 57.84375 22.886719 57.84375 23.25 C 57.871094 27.257812 57.871094 27.257812 56.570312 28.742188 C 56.347656 28.914062 56.347656 28.914062 56.125 29.09375 C 55.976562 29.214844 55.832031 29.335938 55.679688 29.457031 C 54.769531 30.074219 53.921875 30.035156 52.855469 30.039062 C 52.6875 30.039062 52.523438 30.042969 52.351562 30.042969 C 51.804688 30.046875 51.253906 30.046875 50.707031 30.050781 C 50.324219 30.054688 49.941406 30.054688 49.558594 30.054688 C 48.757812 30.058594 47.957031 30.058594 47.15625 30.0625 C 46.132812 30.0625 45.105469 30.066406 44.082031 30.074219 C 43.292969 30.078125 42.5 30.082031 41.714844 30.082031 C 41.335938 30.082031 40.957031 30.082031 40.578125 30.085938 C 40.050781 30.089844 39.523438 30.089844 38.992188 30.089844 C 38.691406 30.089844 38.390625 30.089844 38.078125 30.089844 C 36.742188 29.941406 35.769531 29.414062 34.921875 28.375 C 34.800781 28.226562 34.675781 28.082031 34.550781 27.929688 C 33.917969 27.027344 33.96875 26.171875 33.960938 25.105469 C 33.960938 24.9375 33.957031 24.773438 33.957031 24.601562 C 33.953125 24.054688 33.949219 23.503906 33.949219 22.957031 C 33.945312 22.574219 33.945312 22.191406 33.945312 21.8125 C 33.941406 21.007812 33.941406 20.207031 33.9375 19.40625 C 33.9375 18.378906 33.933594 17.355469 33.925781 16.332031 C 33.921875 15.542969 33.917969 14.753906 33.917969 13.964844 C 33.917969 13.585938 33.917969 13.207031 33.910156 12.832031 C 33.910156 12.300781 33.910156 11.769531 33.910156 11.242188 C 33.910156 10.941406 33.910156 10.640625 33.90625 10.332031 C 34.054688 9 34.582031 8.019531 35.609375 7.171875 C 35.753906 7.046875 35.898438 6.925781 36.046875 6.800781 C 37 6.167969 38 6.214844 39.121094 6.207031 Z M 39.121094 6.207031 "/>
<path style=" stroke:none;fill-rule:nonzero;fill:rgb(98.431373%,95.686275%,87.058824%);fill-opacity:1;" d="M 38.25 38.5 C 43.199219 38.5 48.148438 38.5 53.25 38.5 C 53.25 43.449219 53.25 48.398438 53.25 53.5 C 50.824219 53.503906 48.390625 53.511719 45.890625 53.515625 C 45.121094 53.515625 44.355469 53.519531 43.566406 53.523438 C 42.960938 53.523438 42.355469 53.523438 41.75 53.523438 C 41.433594 53.523438 41.117188 53.527344 40.789062 53.527344 C 40.488281 53.527344 40.191406 53.527344 39.882812 53.527344 C 39.488281 53.53125 39.488281 53.53125 39.089844 53.53125 C 38.5 53.5 38.5 53.5 38.25 53.25 C 38.226562 52.789062 38.21875 52.328125 38.222656 51.867188 C 38.222656 51.566406 38.222656 51.265625 38.222656 50.960938 C 38.222656 50.484375 38.222656 50.484375 38.226562 50 C 38.226562 49.710938 38.226562 49.421875 38.226562 49.121094 C 38.226562 48.035156 38.230469 46.949219 38.234375 45.859375 C 38.238281 43.429688 38.246094 41.003906 38.25 38.5 Z M 38.25 38.5 "/>
<path style=" stroke:none;fill-rule:nonzero;fill:rgb(92.941177%,95.294118%,90.196079%);fill-opacity:1;" d="M 38.25 10.75 C 43.199219 10.75 48.148438 10.75 53.25 10.75 C 53.25 15.699219 53.25 20.648438 53.25 25.75 C 50.824219 25.753906 48.390625 25.761719 45.890625 25.765625 C 45.121094 25.765625 44.355469 25.769531 43.566406 25.773438 C 42.960938 25.773438 42.355469 25.773438 41.75 25.773438 C 41.433594 25.773438 41.117188 25.777344 40.789062 25.777344 C 40.488281 25.777344 40.191406 25.777344 39.882812 25.777344 C 39.488281 25.78125 39.488281 25.78125 39.089844 25.78125 C 38.5 25.75 38.5 25.75 38.25 25.5 C 38.226562 25.039062 38.21875 24.578125 38.222656 24.117188 C 38.222656 23.816406 38.222656 23.515625 38.222656 23.210938 C 38.222656 22.734375 38.222656 22.734375 38.226562 22.25 C 38.226562 21.960938 38.226562 21.671875 38.226562 21.371094 C 38.226562 20.285156 38.230469 19.199219 38.234375 18.109375 C 38.238281 15.679688 38.246094 13.253906 38.25 10.75 Z M 38.25 10.75 "/>
<path style=" stroke:none;fill-rule:nonzero;fill:rgb(87.058824%,94.117647%,97.647059%);fill-opacity:1;" d="M 10.5 10.75 C 15.449219 10.75 20.398438 10.75 25.5 10.75 C 25.5 15.699219 25.5 20.648438 25.5 25.75 C 23.074219 25.753906 20.640625 25.761719 18.140625 25.765625 C 17.371094 25.765625 16.605469 25.769531 15.816406 25.773438 C 15.210938 25.773438 14.605469 25.773438 14 25.773438 C 13.683594 25.773438 13.367188 25.777344 13.039062 25.777344 C 12.738281 25.777344 12.441406 25.777344 12.132812 25.777344 C 11.738281 25.78125 11.738281 25.78125 11.339844 25.78125 C 10.75 25.75 10.75 25.75 10.5 25.5 C 10.476562 25.039062 10.46875 24.578125 10.472656 24.117188 C 10.472656 23.816406 10.472656 23.515625 10.472656 23.210938 C 10.472656 22.734375 10.472656 22.734375 10.476562 22.25 C 10.476562 21.960938 10.476562 21.671875 10.476562 21.371094 C 10.476562 20.285156 10.480469 19.199219 10.484375 18.109375 C 10.488281 15.679688 10.496094 13.253906 10.5 10.75 Z M 10.5 10.75 "/>
<path style=" stroke:none;fill-rule:nonzero;fill:rgb(97.647059%,90.588236%,91.764706%);fill-opacity:1;" d="M 10.75 38.5 C 15.617188 38.5 20.484375 38.5 25.5 38.5 C 25.5 43.367188 25.5 48.234375 25.5 53.25 C 20.632812 53.25 15.765625 53.25 10.75 53.25 C 10.75 48.382812 10.75 43.515625 10.75 38.5 Z M 10.75 38.5 "/>
<path style=" stroke:none;fill-rule:nonzero;fill:rgb(100%,91.37255%,67.058825%);fill-opacity:1;" d="M 38.25 38.5 C 39.15625 38.5 40.066406 38.5 41 38.5 C 41 42.542969 41 46.585938 41 50.75 C 45.042969 50.75 49.085938 50.75 53.25 50.75 C 53.25 51.65625 53.25 52.566406 53.25 53.5 C 51.328125 53.503906 49.414062 53.511719 47.492188 53.511719 C 46.601562 53.515625 45.710938 53.515625 44.820312 53.519531 C 43.796875 53.523438 42.773438 53.523438 41.75 53.523438 C 41.269531 53.527344 41.269531 53.527344 40.777344 53.527344 C 40.335938 53.527344 40.335938 53.527344 39.882812 53.527344 C 39.488281 53.53125 39.488281 53.53125 39.089844 53.53125 C 38.5 53.5 38.5 53.5 38.25 53.25 C 38.226562 52.789062 38.21875 52.328125 38.222656 51.867188 C 38.222656 51.574219 38.222656 51.277344 38.222656 50.972656 C 38.222656 50.652344 38.226562 50.328125 38.226562 50 C 38.226562 49.671875 38.226562 49.34375 38.226562 49.007812 C 38.226562 48.136719 38.230469 47.265625 38.234375 46.394531 C 38.234375 45.507812 38.238281 44.621094 38.238281 43.730469 C 38.238281 41.988281 38.246094 40.242188 38.25 38.5 Z M 38.25 38.5 "/>
<path style=" stroke:none;fill-rule:nonzero;fill:rgb(84.313726%,90.980393%,76.078433%);fill-opacity:1;" d="M 38.25 10.75 C 39.15625 10.75 40.066406 10.75 41 10.75 C 41 14.792969 41 18.835938 41 23 C 45.042969 23 49.085938 23 53.25 23 C 53.25 23.90625 53.25 24.816406 53.25 25.75 C 51.328125 25.753906 49.414062 25.761719 47.492188 25.761719 C 46.601562 25.765625 45.710938 25.765625 44.820312 25.769531 C 43.796875 25.773438 42.773438 25.773438 41.75 25.773438 C 41.269531 25.777344 41.269531 25.777344 40.777344 25.777344 C 40.335938 25.777344 40.335938 25.777344 39.882812 25.777344 C 39.488281 25.78125 39.488281 25.78125 39.089844 25.78125 C 38.5 25.75 38.5 25.75 38.25 25.5 C 38.226562 25.039062 38.21875 24.578125 38.222656 24.117188 C 38.222656 23.824219 38.222656 23.527344 38.222656 23.222656 C 38.222656 22.902344 38.226562 22.578125 38.226562 22.25 C 38.226562 21.921875 38.226562 21.59375 38.226562 21.257812 C 38.226562 20.386719 38.230469 19.515625 38.234375 18.644531 C 38.234375 17.757812 38.238281 16.871094 38.238281 15.980469 C 38.238281 14.238281 38.246094 12.492188 38.25 10.75 Z M 38.25 10.75 "/>
<path style=" stroke:none;fill-rule:nonzero;fill:rgb(68.235296%,87.843138%,97.254902%);fill-opacity:1;" d="M 10.5 10.75 C 11.40625 10.75 12.316406 10.75 13.25 10.75 C 13.25 14.792969 13.25 18.835938 13.25 23 C 17.292969 23 21.335938 23 25.5 23 C 25.5 23.90625 25.5 24.816406 25.5 25.75 C 23.578125 25.753906 21.664062 25.761719 19.742188 25.761719 C 18.851562 25.765625 17.960938 25.765625 17.070312 25.769531 C 16.046875 25.773438 15.023438 25.773438 14 25.773438 C 13.519531 25.777344 13.519531 25.777344 13.027344 25.777344 C 12.585938 25.777344 12.585938 25.777344 12.132812 25.777344 C 11.738281 25.78125 11.738281 25.78125 11.339844 25.78125 C 10.75 25.75 10.75 25.75 10.5 25.5 C 10.476562 25.039062 10.46875 24.578125 10.472656 24.117188 C 10.472656 23.824219 10.472656 23.527344 10.472656 23.222656 C 10.472656 22.902344 10.476562 22.578125 10.476562 22.25 C 10.476562 21.921875 10.476562 21.59375 10.476562 21.257812 C 10.476562 20.386719 10.480469 19.515625 10.484375 18.644531 C 10.484375 17.757812 10.488281 16.871094 10.488281 15.980469 C 10.488281 14.238281 10.496094 12.492188 10.5 10.75 Z M 10.5 10.75 "/>
<path style=" stroke:none;fill-rule:nonzero;fill:rgb(97.647059%,80.000001%,82.352942%);fill-opacity:1;" d="M 10.75 38.5 C 11.574219 38.5 12.398438 38.5 13.25 38.5 C 13.25 42.542969 13.25 46.585938 13.25 50.75 C 17.292969 50.75 21.335938 50.75 25.5 50.75 C 25.5 51.574219 25.5 52.398438 25.5 53.25 C 20.632812 53.25 15.765625 53.25 10.75 53.25 C 10.75 48.382812 10.75 43.515625 10.75 38.5 Z M 10.75 38.5 "/>
<path style=" stroke:none;fill-rule:nonzero;fill:rgb(30.19608%,37.64706%,41.568628%);fill-opacity:1;" d="M 13.75 41.5 C 16.636719 41.5 19.523438 41.5 22.5 41.5 C 22.5 42.574219 22.5 43.644531 22.5 44.75 C 19.613281 44.75 16.726562 44.75 13.75 44.75 C 13.75 43.675781 13.75 42.605469 13.75 41.5 Z M 13.75 41.5 "/>
<path style=" stroke:none;fill-rule:nonzero;fill:rgb(29.803923%,38.039216%,41.960785%);fill-opacity:1;" d="M 13.75 19.25 C 16.636719 19.25 19.523438 19.25 22.5 19.25 C 22.5 20.324219 22.5 21.394531 22.5 22.5 C 19.613281 22.5 16.726562 22.5 13.75 22.5 C 13.75 21.425781 13.75 20.355469 13.75 19.25 Z M 13.75 19.25 "/>
<path style=" stroke:none;fill-rule:nonzero;fill:rgb(27.058825%,35.294119%,39.215687%);fill-opacity:1;" d="M 41.5 47 C 44.304688 47 47.109375 47 50 47 C 50 47.988281 50 48.980469 50 50 C 47.195312 50.082031 44.390625 50.164062 41.5 50.25 C 41.5 49.175781 41.5 48.105469 41.5 47 Z M 41.5 47 "/>
<path style=" stroke:none;fill-rule:nonzero;fill:rgb(27.058825%,35.294119%,39.215687%);fill-opacity:1;" d="M 41.5 13.75 C 44.304688 13.832031 47.109375 13.914062 50 14 C 50 14.988281 50 15.980469 50 17 C 47.195312 17 44.390625 17 41.5 17 C 41.5 15.925781 41.5 14.855469 41.5 13.75 Z M 41.5 13.75 "/>
<path style=" stroke:none;fill-rule:nonzero;fill:rgb(33.333334%,40.392157%,43.137255%);fill-opacity:1;" d="M 41.5 41.5 C 42.984375 41.5 44.46875 41.5 46 41.5 C 46 42.574219 46 43.644531 46 44.75 C 44.515625 44.75 43.03125 44.75 41.5 44.75 C 41.5 43.675781 41.5 42.605469 41.5 41.5 Z M 41.5 41.5 "/>
<path style=" stroke:none;fill-rule:nonzero;fill:rgb(32.941177%,40.392157%,43.529412%);fill-opacity:1;" d="M 41.5 19.25 C 42.984375 19.25 44.46875 19.25 46 19.25 C 46 20.324219 46 21.394531 46 22.5 C 44.515625 22.5 43.03125 22.5 41.5 22.5 C 41.5 21.425781 41.5 20.355469 41.5 19.25 Z M 41.5 19.25 "/>
<path style=" stroke:none;fill-rule:nonzero;fill:rgb(19.215687%,23.529412%,26.274511%);fill-opacity:1;" d="M 13.75 47 C 15.152344 47 16.554688 47 18 47 C 18 47.988281 18 48.980469 18 50 C 16.566406 50.207031 15.199219 50.273438 13.75 50.25 C 13.75 49.175781 13.75 48.105469 13.75 47 Z M 13.75 47 "/>
<path style=" stroke:none;fill-rule:nonzero;fill:rgb(18.82353%,23.921569%,26.274511%);fill-opacity:1;" d="M 13.75 13.75 C 15.199219 13.726562 16.566406 13.792969 18 14 C 18 14.988281 18 15.980469 18 17 C 16.597656 17 15.195312 17 13.75 17 C 13.75 15.925781 13.75 14.855469 13.75 13.75 Z M 13.75 13.75 "/>
<path style=" stroke:none;fill-rule:nonzero;fill:rgb(18.431373%,23.137255%,25.098041%);fill-opacity:1;" d="M 41.5 47 C 42.40625 47 43.316406 47 44.25 47 C 44.25 48.074219 44.25 49.144531 44.25 50.25 C 43.34375 50.25 42.433594 50.25 41.5 50.25 C 41.5 49.175781 41.5 48.105469 41.5 47 Z M 41.5 47 "/>
<path style=" stroke:none;fill-rule:nonzero;fill:rgb(18.431373%,22.745098%,25.098041%);fill-opacity:1;" d="M 13.75 41.5 C 14.65625 41.5 15.566406 41.5 16.5 41.5 C 16.5 42.574219 16.5 43.644531 16.5 44.75 C 15.59375 44.75 14.683594 44.75 13.75 44.75 C 13.75 43.675781 13.75 42.605469 13.75 41.5 Z M 13.75 41.5 "/>
<path style=" stroke:none;fill-rule:nonzero;fill:rgb(18.039216%,22.745098%,25.490198%);fill-opacity:1;" d="M 13.75 19.25 C 14.65625 19.25 15.566406 19.25 16.5 19.25 C 16.5 20.324219 16.5 21.394531 16.5 22.5 C 15.59375 22.5 14.683594 22.5 13.75 22.5 C 13.75 21.425781 13.75 20.355469 13.75 19.25 Z M 13.75 19.25 "/>
<path style=" stroke:none;fill-rule:nonzero;fill:rgb(18.039216%,23.137255%,25.098041%);fill-opacity:1;" d="M 41.5 13.75 C 42.40625 13.75 43.316406 13.75 44.25 13.75 C 44.25 14.824219 44.25 15.894531 44.25 17 C 43.34375 17 42.433594 17 41.5 17 C 41.5 15.925781 41.5 14.855469 41.5 13.75 Z M 41.5 13.75 "/>
<path style=" stroke:none;fill-rule:nonzero;fill:rgb(18.431373%,23.137255%,25.098041%);fill-opacity:1;" d="M 41.5 41.5 C 42.242188 41.5 42.984375 41.5 43.75 41.5 C 43.75 42.574219 43.75 43.644531 43.75 44.75 C 43.007812 44.75 42.265625 44.75 41.5 44.75 C 41.5 43.675781 41.5 42.605469 41.5 41.5 Z M 41.5 41.5 "/>
<path style=" stroke:none;fill-rule:nonzero;fill:rgb(18.039216%,23.137255%,25.490198%);fill-opacity:1;" d="M 41.5 19.25 C 42.242188 19.25 42.984375 19.25 43.75 19.25 C 43.75 20.324219 43.75 21.394531 43.75 22.5 C 43.007812 22.5 42.265625 22.5 41.5 22.5 C 41.5 21.425781 41.5 20.355469 41.5 19.25 Z M 41.5 19.25 "/>
<path style=" stroke:none;fill-rule:nonzero;fill:rgb(27.058825%,35.294119%,39.215687%);fill-opacity:1;" d="M 16 47 C 16.660156 47 17.320312 47 18 47 C 18 47.988281 18 48.980469 18 50 C 17.339844 50 16.679688 50 16 50 C 16 49.011719 16 48.019531 16 47 Z M 16 47 "/>
<path style=" stroke:none;fill-rule:nonzero;fill:rgb(27.058825%,35.294119%,39.215687%);fill-opacity:1;" d="M 16 14 C 16.660156 14 17.320312 14 18 14 C 18 14.988281 18 15.980469 18 17 C 17.339844 17 16.679688 17 16 17 C 16 16.011719 16 15.019531 16 14 Z M 16 14 "/>
</g>
</svg>
