<?xml version="1.0" encoding="UTF-8"?>
<svg xmlns="http://www.w3.org/2000/svg" xmlns:xlink="http://www.w3.org/1999/xlink" width="64" height="64" viewBox="0 0 64 64" version="1.1">
<g id="surface1">
<path style=" stroke:none;fill-rule:nonzero;fill:rgb(99.215686%,25.882354%,36.078432%);fill-opacity:1;" d="M 43.042969 0.964844 C 43.351562 0.960938 43.351562 0.960938 43.667969 0.960938 C 44.34375 0.957031 45.023438 0.957031 45.703125 0.957031 C 46.175781 0.957031 46.648438 0.957031 47.121094 0.957031 C 48.105469 0.953125 49.097656 0.953125 50.085938 0.953125 C 51.351562 0.953125 52.621094 0.953125 53.886719 0.945312 C 54.863281 0.945312 55.835938 0.945312 56.8125 0.945312 C 57.28125 0.945312 57.746094 0.941406 58.210938 0.9375 C 58.867188 0.9375 59.519531 0.9375 60.175781 0.9375 C 60.367188 0.9375 60.558594 0.9375 60.757812 0.9375 C 62.078125 0.945312 63.046875 1.046875 64 2 C 64.085938 2.515625 64.085938 2.515625 64.09375 3.109375 C 64.101562 3.304688 64.105469 3.5 64.113281 3.703125 C 64 4.25 64 4.25 63.617188 4.65625 C 62.757812 5.132812 61.980469 5.078125 61.027344 5.042969 C 60.613281 5.03125 60.203125 5.023438 59.792969 5.015625 C 59.578125 5.007812 59.359375 5 59.132812 4.996094 C 57.972656 4.964844 56.8125 4.957031 55.65625 4.945312 C 54.183594 4.929688 52.710938 4.910156 51.238281 4.863281 C 45.136719 4.40625 45.136719 4.40625 39.761719 6.6875 C 38.460938 8.066406 37.613281 9.25 37.515625 11.179688 C 37.523438 11.75 37.523438 11.75 37.675781 12.628906 C 37.765625 13.667969 37.535156 14.121094 37 15 C 36.808594 15.316406 36.808594 15.316406 36.609375 15.640625 C 35.695312 16.554688 34.746094 17.132812 33.5 17.5 C 32.957031 17.445312 32.414062 17.375 31.875 17.296875 C 30.476562 17.230469 29.890625 17.5 28.835938 18.425781 C 27.507812 19.710938 26.28125 21.082031 25.085938 22.484375 C 23.574219 24.253906 21.898438 25.859375 20.238281 27.488281 C 19.832031 27.886719 19.429688 28.285156 19.023438 28.683594 C 18.902344 28.804688 18.777344 28.925781 18.648438 29.050781 C 18.078125 29.617188 17.757812 29.972656 17.5 30.75 C 23.191406 30.75 28.882812 30.75 34.75 30.75 C 34.914062 30.257812 35.078125 29.761719 35.25 29.25 C 36.25 27.976562 37.671875 27.265625 39.25 27 C 41.125 26.910156 42.558594 27.285156 44 28.5 C 44.707031 29.242188 45.035156 29.765625 45.25 30.75 C 45.449219 30.730469 45.652344 30.714844 45.855469 30.695312 C 48.152344 30.582031 49.523438 31.085938 51.453125 32.28125 C 51.71875 32.4375 51.984375 32.59375 52.257812 32.757812 C 52.8125 33.082031 53.363281 33.414062 53.917969 33.746094 C 54.738281 34.242188 55.566406 34.730469 56.398438 35.207031 C 57.632812 35.921875 58.859375 36.632812 60.085938 37.355469 C 60.539062 37.625 60.996094 37.894531 61.453125 38.160156 C 61.675781 38.289062 61.898438 38.417969 62.125 38.554688 C 62.324219 38.671875 62.523438 38.785156 62.726562 38.90625 C 63.234375 39.238281 63.621094 39.523438 64 40 C 64.1875 41.699219 64.1875 41.699219 63.609375 42.625 C 62.789062 43.132812 62.175781 43.191406 61.25 43 C 60.21875 42.535156 59.265625 41.949219 58.296875 41.359375 C 57.867188 41.105469 57.4375 40.847656 57.007812 40.597656 C 56.558594 40.328125 56.113281 40.0625 55.664062 39.792969 C 54.75 39.25 53.828125 38.714844 52.90625 38.183594 C 52.753906 38.097656 52.605469 38.015625 52.453125 37.921875 C 52.160156 37.757812 51.863281 37.585938 51.570312 37.417969 C 50.886719 37.027344 50.203125 36.632812 49.515625 36.234375 C 49.289062 36.105469 49.0625 35.976562 48.828125 35.839844 C 48.375 35.578125 47.9375 35.292969 47.5 35 C 46.929688 34.886719 46.929688 34.886719 46.328125 34.84375 C 46.125 34.828125 45.925781 34.804688 45.71875 34.785156 C 45.484375 34.769531 45.484375 34.769531 45.25 34.75 C 45.242188 35.007812 45.242188 35.007812 45.234375 35.265625 C 44.789062 36.660156 43.671875 37.492188 42.453125 38.234375 C 40.800781 38.695312 39.027344 38.828125 37.421875 38.125 C 36.203125 37.417969 35.132812 36.265625 34.5 35 C 26.085938 34.875 26.085938 34.875 17.5 34.75 C 17.25 35.492188 17.25 35.492188 17 36.25 C 16.53125 36.769531 16.53125 36.769531 16 37.203125 C 15.824219 37.347656 15.648438 37.496094 15.46875 37.644531 C 15 38 15 38 14.5 38.25 C 14.113281 40.152344 13.882812 41.988281 14.933594 43.710938 C 15.511719 44.449219 16.121094 45.117188 16.78125 45.78125 C 16.988281 46 17.199219 46.214844 17.414062 46.441406 C 18.953125 47.878906 20.121094 48.242188 22.21875 48.234375 C 23.566406 48.261719 24.480469 48.75 25.433594 49.667969 C 26.378906 50.722656 27.023438 51.664062 27.15625 53.09375 C 27.183594 53.367188 27.183594 53.367188 27.210938 53.644531 C 27.25 54.25 27.25 54.25 27.140625 54.953125 C 27.316406 56.226562 28.191406 56.839844 29.109375 57.6875 C 29.460938 58.019531 29.808594 58.351562 30.15625 58.683594 C 30.3125 58.828125 30.46875 58.972656 30.625 59.125 C 31.207031 59.710938 31.25 60 31.328125 60.84375 C 31.25 61.75 31.25 61.75 30.8125 62.34375 C 30.242188 62.757812 29.945312 62.957031 29.25 63 C 27.898438 62.660156 27.105469 61.6875 26.171875 60.71875 C 26.007812 60.554688 25.847656 60.390625 25.683594 60.21875 C 25.285156 59.8125 24.890625 59.410156 24.5 59 C 24.285156 59.082031 24.070312 59.160156 23.847656 59.242188 C 22.195312 59.742188 20.246094 59.828125 18.640625 59.109375 C 17.238281 58.273438 16.246094 57.054688 15.75 55.5 C 15.683594 54.71875 15.683594 54.71875 15.6875 53.890625 C 15.683594 53.480469 15.683594 53.480469 15.683594 53.0625 C 15.75 52.21875 15.96875 51.546875 16.25 50.75 C 16.078125 50.578125 15.90625 50.40625 15.726562 50.230469 C 15.085938 49.59375 14.445312 48.957031 13.808594 48.320312 C 13.53125 48.046875 13.25 47.769531 12.972656 47.492188 C 12.578125 47.097656 12.179688 46.703125 11.78125 46.304688 C 11.65625 46.183594 11.535156 46.0625 11.40625 45.933594 C 10.257812 44.785156 10.257812 44.785156 10.234375 43.894531 C 10.238281 43.644531 10.246094 43.394531 10.25 43.136719 C 10.25 42.863281 10.25 42.589844 10.25 42.308594 C 10.25 41.730469 10.257812 41.15625 10.273438 40.578125 C 10.265625 39.75 10.230469 39.046875 10 38.25 C 9.46875 37.730469 8.957031 37.429688 8.296875 37.089844 C 7.671875 36.703125 7.550781 36.460938 7.289062 35.792969 C 6.847656 34.953125 6.847656 34.953125 6.15625 34.855469 C 5.390625 34.804688 4.640625 34.804688 3.875 34.828125 C 3.355469 34.835938 2.839844 34.839844 2.320312 34.839844 C 2.09375 34.847656 1.863281 34.855469 1.625 34.859375 C 0.804688 34.714844 0.515625 34.386719 0 33.75 C -0.140625 33.25 -0.140625 33.25 -0.140625 32.75 C -0.144531 32.585938 -0.152344 32.421875 -0.15625 32.25 C 0.109375 31.40625 0.480469 31.179688 1.25 30.75 C 2.417969 30.597656 3.59375 30.648438 4.765625 30.671875 C 5.457031 30.667969 6.078125 30.652344 6.75 30.5 C 7.402344 29.820312 7.402344 29.820312 7.75 29 C 8.484375 28.230469 9.195312 27.710938 10.25 27.5 C 10.246094 27.226562 10.246094 26.953125 10.246094 26.671875 C 10.222656 24.097656 10.207031 21.519531 10.199219 18.945312 C 10.191406 17.625 10.1875 16.296875 10.175781 14.972656 C 10.164062 13.699219 10.15625 12.421875 10.15625 11.144531 C 10.15625 10.65625 10.148438 10.167969 10.144531 9.679688 C 10.136719 9 10.136719 8.316406 10.136719 7.632812 C 10.132812 7.429688 10.128906 7.230469 10.125 7.019531 C 10.132812 6.121094 10.167969 5.609375 10.71875 4.882812 C 11.347656 4.429688 11.722656 4.269531 12.5 4.25 C 13.371094 4.65625 13.710938 4.941406 14.25 5.75 C 14.304688 6.445312 14.328125 7.113281 14.328125 7.808594 C 14.332031 8.019531 14.335938 8.230469 14.335938 8.445312 C 14.34375 9.140625 14.347656 9.832031 14.355469 10.527344 C 14.359375 11.007812 14.363281 11.488281 14.371094 11.96875 C 14.382812 13.234375 14.390625 14.5 14.398438 15.769531 C 14.410156 17.0625 14.421875 18.351562 14.433594 19.644531 C 14.460938 22.179688 14.480469 24.714844 14.5 27.25 C 15.5 26.257812 16.5 25.257812 17.5 24.261719 C 17.84375 23.921875 18.179688 23.585938 18.519531 23.25 C 20.917969 20.890625 20.917969 20.890625 23.160156 18.382812 C 23.542969 17.953125 23.960938 17.582031 24.398438 17.207031 C 26.101562 15.839844 26.101562 15.839844 26.828125 13.898438 C 26.683594 13.0625 26.683594 13.0625 26.449219 12.25 C 26.097656 10.917969 26.402344 9.890625 27.050781 8.703125 C 28.070312 7.179688 29.300781 6.566406 31 6 C 32.085938 5.964844 32.863281 5.957031 33.90625 6.28125 C 34.703125 6.382812 34.953125 6.285156 35.613281 5.804688 C 36.292969 5.152344 36.929688 4.480469 37.5625 3.78125 C 38 3.3125 38.4375 2.84375 38.878906 2.375 C 39.070312 2.167969 39.261719 1.957031 39.460938 1.742188 C 40.496094 0.796875 41.703125 0.964844 43.042969 0.964844 Z M 43.042969 0.964844 "/>
<path style=" stroke:none;fill-rule:nonzero;fill:rgb(99.607843%,80.392158%,0.784314%);fill-opacity:1;" d="M 43.042969 0.964844 C 43.25 0.964844 43.453125 0.960938 43.667969 0.960938 C 44.34375 0.957031 45.023438 0.957031 45.703125 0.957031 C 46.175781 0.957031 46.648438 0.957031 47.121094 0.957031 C 48.105469 0.953125 49.097656 0.953125 50.085938 0.953125 C 51.351562 0.953125 52.621094 0.953125 53.886719 0.945312 C 54.863281 0.945312 55.835938 0.945312 56.8125 0.945312 C 57.28125 0.945312 57.746094 0.941406 58.210938 0.9375 C 58.867188 0.9375 59.519531 0.9375 60.175781 0.9375 C 60.367188 0.9375 60.558594 0.9375 60.757812 0.9375 C 62.078125 0.945312 63.046875 1.046875 64 2 C 64.085938 2.515625 64.085938 2.515625 64.09375 3.109375 C 64.101562 3.304688 64.105469 3.5 64.113281 3.703125 C 64 4.25 64 4.25 63.617188 4.65625 C 62.757812 5.132812 61.980469 5.078125 61.027344 5.042969 C 60.613281 5.03125 60.203125 5.023438 59.792969 5.015625 C 59.578125 5.007812 59.359375 5 59.132812 4.996094 C 57.972656 4.964844 56.8125 4.957031 55.65625 4.945312 C 54.183594 4.929688 52.710938 4.910156 51.238281 4.863281 C 45.136719 4.40625 45.136719 4.40625 39.761719 6.6875 C 38.460938 8.066406 37.613281 9.25 37.515625 11.179688 C 37.523438 11.75 37.523438 11.75 37.675781 12.628906 C 37.765625 13.667969 37.535156 14.121094 37 15 C 36.808594 15.316406 36.808594 15.316406 36.609375 15.640625 C 35.695312 16.554688 34.746094 17.132812 33.5 17.5 C 32.957031 17.445312 32.414062 17.375 31.875 17.296875 C 30.476562 17.230469 29.890625 17.5 28.835938 18.425781 C 27.511719 19.707031 26.285156 21.078125 25.089844 22.480469 C 23.789062 24 22.386719 25.410156 20.972656 26.820312 C 20.542969 27.253906 20.113281 27.691406 19.679688 28.125 C 19.40625 28.402344 19.128906 28.679688 18.855469 28.953125 C 18.726562 29.082031 18.597656 29.214844 18.464844 29.347656 C 17.558594 30.25 17.558594 30.25 17 30.25 C 16.855469 30.023438 16.710938 29.796875 16.5625 29.5625 C 15.933594 28.652344 15.4375 28.304688 14.5 27.75 C 14.910156 26.703125 15.675781 26.015625 16.464844 25.246094 C 16.609375 25.101562 16.753906 24.957031 16.90625 24.8125 C 17.367188 24.351562 17.832031 23.894531 18.296875 23.4375 C 18.90625 22.839844 19.515625 22.238281 20.121094 21.636719 C 20.339844 21.421875 20.339844 21.421875 20.5625 21.199219 C 21.460938 20.304688 22.304688 19.386719 23.121094 18.421875 C 23.523438 17.976562 23.945312 17.597656 24.398438 17.207031 C 26.101562 15.839844 26.101562 15.839844 26.828125 13.898438 C 26.683594 13.0625 26.683594 13.0625 26.449219 12.25 C 26.097656 10.917969 26.402344 9.890625 27.050781 8.703125 C 28.070312 7.179688 29.300781 6.566406 31 6 C 32.085938 5.964844 32.863281 5.957031 33.90625 6.28125 C 34.703125 6.382812 34.953125 6.285156 35.613281 5.804688 C 36.292969 5.152344 36.929688 4.480469 37.5625 3.78125 C 38 3.3125 38.4375 2.84375 38.878906 2.375 C 39.070312 2.167969 39.261719 1.957031 39.460938 1.742188 C 40.496094 0.796875 41.703125 0.964844 43.042969 0.964844 Z M 43.042969 0.964844 "/>
<path style=" stroke:none;fill-rule:nonzero;fill:rgb(0.392157%,25.882354%,61.56863%);fill-opacity:1;" d="M 43.585938 28.152344 C 44.5 28.917969 45 29.59375 45.25 30.75 C 45.550781 30.722656 45.550781 30.722656 45.855469 30.695312 C 48.152344 30.582031 49.523438 31.085938 51.453125 32.28125 C 51.71875 32.4375 51.984375 32.59375 52.257812 32.757812 C 52.8125 33.082031 53.363281 33.414062 53.914062 33.746094 C 54.738281 34.242188 55.570312 34.730469 56.402344 35.207031 C 57.632812 35.921875 58.859375 36.632812 60.085938 37.355469 C 60.539062 37.625 60.996094 37.894531 61.449219 38.160156 C 61.671875 38.289062 61.894531 38.417969 62.125 38.554688 C 62.324219 38.671875 62.523438 38.785156 62.726562 38.90625 C 63.234375 39.238281 63.625 39.523438 64 40 C 64.1875 41.699219 64.1875 41.699219 63.609375 42.625 C 62.789062 43.128906 62.175781 43.191406 61.25 43 C 60.21875 42.535156 59.261719 41.945312 58.296875 41.359375 C 57.867188 41.105469 57.4375 40.847656 57.007812 40.59375 C 56.558594 40.328125 56.109375 40.0625 55.664062 39.792969 C 54.75 39.25 53.828125 38.714844 52.902344 38.183594 C 52.679688 38.054688 52.679688 38.054688 52.453125 37.925781 C 52.160156 37.757812 51.867188 37.585938 51.570312 37.417969 C 50.886719 37.027344 50.199219 36.632812 49.515625 36.238281 C 49.289062 36.105469 49.0625 35.976562 48.828125 35.839844 C 48.375 35.574219 47.9375 35.292969 47.5 35 C 46.929688 34.886719 46.929688 34.886719 46.328125 34.84375 C 46.125 34.824219 45.921875 34.804688 45.714844 34.785156 C 45.5625 34.773438 45.410156 34.761719 45.25 34.75 C 45.246094 34.921875 45.242188 35.089844 45.234375 35.265625 C 44.789062 36.660156 43.671875 37.492188 42.453125 38.234375 C 40.796875 38.695312 39.027344 38.828125 37.421875 38.125 C 36.199219 37.417969 35.132812 36.265625 34.5 35 C 26.085938 34.875 26.085938 34.875 17.5 34.75 C 17.5 33.429688 17.5 32.109375 17.5 30.75 C 23.195312 30.75 28.886719 30.75 34.75 30.75 C 34.914062 30.253906 35.082031 29.757812 35.25 29.25 C 37.277344 26.671875 40.964844 26.289062 43.585938 28.152344 Z M 43.585938 28.152344 "/>
<path style=" stroke:none;fill-rule:nonzero;fill:rgb(99.607843%,25.490198%,35.686275%);fill-opacity:1;" d="M 10.25 38.25 C 11.570312 38.25 12.890625 38.25 14.25 38.25 C 14.191406 38.675781 14.191406 38.675781 14.128906 39.113281 C 13.964844 41.210938 14.171875 42.734375 15.507812 44.421875 C 15.925781 44.882812 16.359375 45.335938 16.796875 45.78125 C 17.003906 46 17.210938 46.21875 17.425781 46.441406 C 18.957031 47.882812 20.121094 48.246094 22.21875 48.234375 C 23.566406 48.261719 24.480469 48.75 25.433594 49.671875 C 26.378906 50.722656 27.019531 51.664062 27.15625 53.09375 C 27.175781 53.273438 27.191406 53.457031 27.210938 53.648438 C 27.25 54.25 27.25 54.25 27.140625 54.949219 C 27.316406 56.226562 28.191406 56.84375 29.109375 57.6875 C 29.457031 58.019531 29.808594 58.351562 30.15625 58.683594 C 30.390625 58.898438 30.390625 58.898438 30.628906 59.121094 C 31.207031 59.710938 31.25 60 31.328125 60.84375 C 31.25 61.75 31.25 61.75 30.8125 62.34375 C 30.242188 62.753906 29.949219 62.957031 29.25 63 C 27.898438 62.660156 27.105469 61.691406 26.171875 60.71875 C 26.011719 60.554688 25.851562 60.390625 25.683594 60.21875 C 25.289062 59.816406 24.890625 59.40625 24.5 59 C 24.285156 59.078125 24.070312 59.160156 23.851562 59.246094 C 22.195312 59.742188 20.246094 59.828125 18.640625 59.109375 C 17.238281 58.273438 16.242188 57.050781 15.75 55.5 C 15.683594 54.71875 15.683594 54.71875 15.6875 53.890625 C 15.683594 53.617188 15.683594 53.34375 15.683594 53.0625 C 15.753906 52.21875 15.96875 51.546875 16.25 50.75 C 15.988281 50.492188 15.988281 50.492188 15.726562 50.230469 C 15.085938 49.59375 14.449219 48.957031 13.808594 48.320312 C 13.53125 48.046875 13.253906 47.769531 12.976562 47.496094 C 12.578125 47.101562 12.179688 46.703125 11.78125 46.308594 C 11.65625 46.183594 11.53125 46.058594 11.40625 45.933594 C 10.261719 44.792969 10.261719 44.792969 10.222656 43.871094 C 10.222656 43.609375 10.226562 43.351562 10.226562 43.085938 C 10.226562 42.800781 10.226562 42.523438 10.226562 42.234375 C 10.230469 41.941406 10.234375 41.648438 10.234375 41.34375 C 10.234375 41.046875 10.238281 40.753906 10.238281 40.449219 C 10.238281 39.714844 10.246094 38.984375 10.25 38.25 Z M 10.25 38.25 "/>
<path style=" stroke:none;fill-rule:nonzero;fill:rgb(99.607843%,86.666667%,27.058825%);fill-opacity:1;" d="M 32 6 C 32.125 7.980469 32.125 7.980469 32.25 10 C 32.746094 10.121094 32.746094 10.121094 33.25 10.25 C 33.6875 10.546875 33.6875 10.546875 34 11 C 34.125 11.71875 34.125 11.71875 34 12.5 C 33.40625 13.21875 33.40625 13.21875 32.75 13.75 C 32.585938 13.75 32.421875 13.75 32.25 13.75 C 32.167969 14.988281 32.085938 16.226562 32 17.5 C 31.71875 17.453125 31.433594 17.414062 31.140625 17.367188 C 30.09375 17.371094 29.636719 17.707031 28.882812 18.414062 C 28.496094 18.8125 28.113281 19.21875 27.734375 19.625 C 27.542969 19.824219 27.351562 20.019531 27.15625 20.226562 C 26.308594 21.109375 25.484375 22.011719 24.683594 22.945312 C 23.511719 24.296875 22.238281 25.554688 20.976562 26.820312 C 20.542969 27.253906 20.109375 27.691406 19.679688 28.125 C 19.40625 28.402344 19.128906 28.675781 18.855469 28.953125 C 18.726562 29.082031 18.597656 29.214844 18.464844 29.347656 C 17.558594 30.25 17.558594 30.25 17 30.25 C 16.855469 30.023438 16.710938 29.796875 16.5625 29.5625 C 15.929688 28.648438 15.4375 28.304688 14.5 27.75 C 14.90625 26.703125 15.675781 26.015625 16.464844 25.246094 C 16.609375 25.101562 16.753906 24.960938 16.902344 24.808594 C 17.367188 24.351562 17.832031 23.894531 18.296875 23.4375 C 18.90625 22.835938 19.511719 22.238281 20.121094 21.636719 C 20.265625 21.492188 20.414062 21.347656 20.5625 21.199219 C 21.460938 20.308594 22.300781 19.386719 23.121094 18.421875 C 23.519531 17.976562 23.945312 17.59375 24.398438 17.207031 C 26.101562 15.839844 26.101562 15.839844 26.828125 13.898438 C 26.683594 13.058594 26.683594 13.058594 26.449219 12.25 C 26.097656 10.917969 26.398438 9.886719 27.050781 8.703125 C 28.203125 6.984375 29.914062 6 32 6 Z M 32 6 "/>
<path style=" stroke:none;fill-rule:nonzero;fill:rgb(100%,9.803922%,23.529412%);fill-opacity:1;" d="M 13.5 4.75 C 14.183594 5.386719 14.25 5.753906 14.339844 6.695312 C 14.34375 7.085938 14.339844 7.472656 14.335938 7.859375 C 14.335938 8.175781 14.335938 8.175781 14.335938 8.503906 C 14.335938 9.203125 14.328125 9.90625 14.324219 10.605469 C 14.324219 11.09375 14.320312 11.578125 14.320312 12.066406 C 14.316406 13.34375 14.308594 14.621094 14.300781 15.898438 C 14.296875 17.207031 14.289062 18.511719 14.289062 19.816406 C 14.277344 22.378906 14.265625 24.941406 14.25 27.5 C 12.929688 27.5 11.609375 27.5 10.25 27.5 C 10.226562 24.648438 10.210938 21.796875 10.199219 18.949219 C 10.191406 17.621094 10.183594 16.296875 10.175781 14.976562 C 10.164062 13.699219 10.15625 12.421875 10.15625 11.140625 C 10.152344 10.65625 10.148438 10.167969 10.144531 9.679688 C 10.136719 8.996094 10.136719 8.316406 10.136719 7.632812 C 10.132812 7.429688 10.128906 7.230469 10.125 7.019531 C 10.132812 6.128906 10.171875 5.609375 10.710938 4.882812 C 11.773438 4.128906 12.34375 4.246094 13.5 4.75 Z M 13.5 4.75 "/>
<path style=" stroke:none;fill-rule:nonzero;fill:rgb(0%,43.921569%,99.215686%);fill-opacity:1;" d="M 45.25 30.75 C 47.828125 30.578125 49.273438 30.933594 51.453125 32.28125 C 51.71875 32.4375 51.984375 32.59375 52.257812 32.753906 C 52.8125 33.082031 53.363281 33.414062 53.914062 33.746094 C 54.738281 34.242188 55.566406 34.726562 56.398438 35.210938 C 57.632812 35.921875 58.859375 36.636719 60.085938 37.359375 C 60.539062 37.625 60.996094 37.890625 61.453125 38.15625 C 61.675781 38.289062 61.898438 38.421875 62.125 38.554688 C 62.324219 38.671875 62.523438 38.789062 62.726562 38.90625 C 63.234375 39.238281 63.621094 39.523438 64 40 C 64.1875 41.699219 64.1875 41.699219 63.609375 42.625 C 62.789062 43.128906 62.175781 43.191406 61.25 43 C 60.21875 42.53125 59.265625 41.949219 58.296875 41.359375 C 57.867188 41.105469 57.4375 40.851562 57.007812 40.59375 C 56.558594 40.328125 56.113281 40.058594 55.664062 39.792969 C 54.75 39.246094 53.828125 38.714844 52.90625 38.183594 C 52.753906 38.097656 52.609375 38.011719 52.453125 37.925781 C 52.160156 37.753906 51.863281 37.585938 51.574219 37.421875 C 50.886719 37.023438 50.199219 36.632812 49.515625 36.238281 C 49.289062 36.109375 49.0625 35.976562 48.828125 35.84375 C 48.378906 35.574219 47.933594 35.289062 47.5 35 C 46.753906 34.863281 46.011719 34.816406 45.25 34.75 C 45.25 33.429688 45.25 32.109375 45.25 30.75 Z M 45.25 30.75 "/>
<path style=" stroke:none;fill-rule:nonzero;fill:rgb(0%,67.058825%,90.980393%);fill-opacity:1;" d="M 17.5 30.75 C 23.191406 30.75 28.886719 30.75 34.75 30.75 C 34.667969 32.070312 34.585938 33.390625 34.5 34.75 C 28.890625 34.75 23.28125 34.75 17.5 34.75 C 17.5 33.429688 17.5 32.109375 17.5 30.75 Z M 17.5 30.75 "/>
<path style=" stroke:none;fill-rule:nonzero;fill:rgb(98.823529%,74.901962%,0.784314%);fill-opacity:1;" d="M 32 6 C 32.125 7.980469 32.125 7.980469 32.25 10 C 32.578125 10.082031 32.910156 10.164062 33.25 10.25 C 33.6875 10.546875 33.6875 10.546875 34 11 C 34.125 11.71875 34.125 11.71875 34 12.5 C 33.40625 13.21875 33.40625 13.21875 32.75 13.75 C 32.585938 13.75 32.421875 13.75 32.25 13.75 C 32.167969 14.988281 32.085938 16.226562 32 17.5 C 29.859375 17.195312 28.824219 16.503906 27.265625 15.078125 C 26.363281 13.625 26.09375 12.015625 26.375 10.328125 C 26.773438 8.921875 27.53125 7.71875 28.765625 6.914062 C 29.851562 6.359375 30.765625 6 32 6 Z M 32 6 "/>
<path style=" stroke:none;fill-rule:nonzero;fill:rgb(100%,9.803922%,23.921569%);fill-opacity:1;" d="M 10.25 38.25 C 11.570312 38.25 12.890625 38.25 14.25 38.25 C 14.207031 38.53125 14.164062 38.816406 14.121094 39.105469 C 13.976562 40.832031 13.988281 42.28125 15.027344 43.738281 C 16.476562 45.375 18.085938 46.835938 19.75 48.25 C 19.554688 48.40625 19.359375 48.5625 19.15625 48.722656 C 18.609375 49.160156 18.074219 49.605469 17.546875 50.0625 C 17.394531 50.191406 17.246094 50.324219 17.089844 50.457031 C 16.921875 50.601562 16.921875 50.601562 16.75 50.75 C 15.816406 50.359375 15.222656 49.78125 14.511719 49.070312 C 14.28125 48.835938 14.046875 48.605469 13.808594 48.363281 C 13.6875 48.242188 13.566406 48.121094 13.445312 47.996094 C 13.078125 47.625 12.710938 47.253906 12.339844 46.886719 C 10.261719 44.796875 10.261719 44.796875 10.222656 43.871094 C 10.222656 43.609375 10.226562 43.351562 10.226562 43.085938 C 10.226562 42.800781 10.226562 42.523438 10.226562 42.234375 C 10.230469 41.941406 10.234375 41.648438 10.234375 41.34375 C 10.234375 41.046875 10.238281 40.753906 10.238281 40.449219 C 10.238281 39.714844 10.246094 38.984375 10.25 38.25 Z M 10.25 38.25 "/>
<path style=" stroke:none;fill-rule:nonzero;fill:rgb(99.607843%,57.647061%,0%);fill-opacity:1;" d="M 32 6 C 33.90625 6.21875 33.90625 6.21875 34.75 6.5 C 34.75 6.664062 34.75 6.828125 34.75 7 C 34.941406 7.058594 35.128906 7.117188 35.324219 7.179688 C 36.113281 7.554688 36.359375 7.886719 36.8125 8.625 C 36.9375 8.824219 37.0625 9.023438 37.191406 9.226562 C 37.988281 10.578125 37.855469 11.957031 37.75 13.5 C 37.4375 14.375 37.4375 14.375 37 15 C 36.808594 15.316406 36.808594 15.316406 36.609375 15.640625 C 35.507812 16.742188 34.148438 17.445312 32.59375 17.578125 C 32.398438 17.550781 32.203125 17.527344 32 17.5 C 31.976562 16.210938 32.039062 15.019531 32.25 13.75 C 32.664062 13.585938 33.074219 13.421875 33.5 13.25 C 33.5625 12.890625 33.617188 12.53125 33.671875 12.171875 C 33.703125 11.972656 33.734375 11.773438 33.765625 11.566406 C 33.800781 10.984375 33.800781 10.984375 33.425781 10.566406 C 32.976562 10.199219 32.976562 10.199219 32.25 10 C 32.167969 8.679688 32.085938 7.359375 32 6 Z M 32 6 "/>
<path style=" stroke:none;fill-rule:nonzero;fill:rgb(100%,9.803922%,23.921569%);fill-opacity:1;" d="M 26.75 55.5 C 30.582031 58.667969 30.582031 58.667969 31.25 60 C 31.394531 61.554688 31.394531 61.554688 30.8125 62.34375 C 30.242188 62.753906 29.949219 62.957031 29.25 63 C 27.898438 62.660156 27.105469 61.691406 26.171875 60.71875 C 26.011719 60.554688 25.851562 60.390625 25.683594 60.21875 C 25.289062 59.816406 24.890625 59.40625 24.5 59 C 24.949219 58.035156 25.566406 57.316406 26.25 56.5 C 26.425781 56.171875 26.59375 55.835938 26.75 55.5 Z M 26.75 55.5 "/>
<path style=" stroke:none;fill-rule:nonzero;fill:rgb(0%,67.058825%,90.980393%);fill-opacity:1;" d="M 4.078125 30.6875 C 4.464844 30.695312 4.464844 30.695312 4.855469 30.699219 C 5.488281 30.710938 6.117188 30.730469 6.75 30.75 C 6.75 32.070312 6.75 33.390625 6.75 34.75 C 5.8125 34.777344 4.875 34.796875 3.9375 34.8125 C 3.671875 34.820312 3.40625 34.828125 3.128906 34.835938 C 2.875 34.839844 2.621094 34.84375 2.355469 34.847656 C 2.121094 34.851562 1.882812 34.859375 1.640625 34.863281 C 0.8125 34.71875 0.523438 34.394531 0 33.75 C -0.140625 33.25 -0.140625 33.25 -0.140625 32.75 C -0.148438 32.585938 -0.152344 32.421875 -0.15625 32.25 C 0.445312 30.328125 2.457031 30.632812 4.078125 30.6875 Z M 4.078125 30.6875 "/>
<path style=" stroke:none;fill-rule:nonzero;fill:rgb(96.470588%,90.196079%,89.019608%);fill-opacity:1;" d="M 13 31 C 13.609375 31.40625 13.609375 31.40625 14 32 C 14.140625 32.734375 14.140625 32.734375 14 33.5 C 13.425781 34.253906 13.050781 34.675781 12.125 34.90625 C 11.183594 34.671875 10.8125 34.277344 10.25 33.5 C 10.25 32.613281 10.335938 32.03125 10.78125 31.265625 C 11.546875 30.832031 12.140625 30.894531 13 31 Z M 13 31 "/>
<path style=" stroke:none;fill-rule:nonzero;fill:rgb(96.470588%,90.980393%,89.411765%);fill-opacity:1;" d="M 22.5 52.25 C 22.984375 52.546875 22.984375 52.546875 23.25 53 C 23.425781 54.015625 23.328125 54.386719 22.734375 55.234375 C 22 55.75 22 55.75 21.09375 55.765625 C 20.25 55.5 20.25 55.5 19.75 55.09375 C 19.382812 54.21875 19.503906 53.652344 19.75 52.75 C 20.550781 51.765625 21.34375 51.953125 22.5 52.25 Z M 22.5 52.25 "/>
<path style=" stroke:none;fill-rule:nonzero;fill:rgb(90.588236%,86.274511%,85.490197%);fill-opacity:1;" d="M 40.75 31 C 41.34375 31.390625 41.34375 31.390625 41.75 32 C 41.890625 32.875 41.890625 32.875 41.75 33.75 C 41.21875 34.375 41.21875 34.375 40.5 34.75 C 39.710938 34.734375 39.214844 34.621094 38.53125 34.234375 C 38.070312 33.441406 38.085938 32.640625 38.25 31.75 C 38.949219 30.890625 39.6875 30.84375 40.75 31 Z M 40.75 31 "/>
<path style=" stroke:none;fill-rule:nonzero;fill:rgb(96.078432%,92.54902%,89.019608%);fill-opacity:1;" d="M 33 10 C 33.609375 10.40625 33.609375 10.40625 34 11 C 34.152344 11.910156 34.117188 12.320312 33.609375 13.09375 C 32.765625 13.65625 32.242188 13.640625 31.25 13.5 C 30.640625 13.09375 30.640625 13.09375 30.25 12.5 C 30.097656 11.589844 30.132812 11.179688 30.640625 10.40625 C 31.484375 9.84375 32.007812 9.859375 33 10 Z M 33 10 "/>
<path style=" stroke:none;fill-rule:nonzero;fill:rgb(0%,44.705883%,98.431373%);fill-opacity:1;" d="M 32 30.75 C 32.90625 30.75 33.816406 30.75 34.75 30.75 C 34.667969 32.070312 34.585938 33.390625 34.5 34.75 C 33.675781 34.75 32.851562 34.75 32 34.75 C 32 33.429688 32 32.109375 32 30.75 Z M 32 30.75 "/>
<path style=" stroke:none;fill-rule:nonzero;fill:rgb(93.333334%,87.058824%,82.745099%);fill-opacity:1;" d="M 32.25 10 C 33.53125 10.320312 33.53125 10.320312 34 11 C 34.109375 11.734375 34.109375 11.734375 34 12.5 C 33.546875 13.09375 33.546875 13.09375 33 13.5 C 32.753906 13.5 32.503906 13.5 32.25 13.5 C 32.25 12.34375 32.25 11.191406 32.25 10 Z M 32.25 10 "/>
</g>
</svg>
