<?xml version="1.0" encoding="UTF-8"?>
<svg xmlns="http://www.w3.org/2000/svg" xmlns:xlink="http://www.w3.org/1999/xlink" width="64" height="64" viewBox="0 0 64 64" version="1.1">
<g id="surface1">
<path style=" stroke:none;fill-rule:nonzero;fill:rgb(96.470588%,96.862745%,97.254902%);fill-opacity:1;" d="M 7.417969 1.183594 C 7.636719 1.183594 7.855469 1.179688 8.078125 1.179688 C 8.808594 1.175781 9.539062 1.179688 10.269531 1.179688 C 10.796875 1.175781 11.320312 1.171875 11.84375 1.171875 C 13.269531 1.167969 14.691406 1.164062 16.113281 1.164062 C 17.304688 1.164062 18.492188 1.164062 19.679688 1.164062 C 22.484375 1.15625 25.289062 1.15625 28.09375 1.15625 C 30.984375 1.15625 33.875 1.152344 36.769531 1.144531 C 39.253906 1.136719 41.734375 1.136719 44.21875 1.136719 C 45.703125 1.136719 47.183594 1.132812 48.667969 1.128906 C 50.0625 1.125 51.457031 1.125 52.851562 1.128906 C 53.367188 1.128906 53.878906 1.128906 54.386719 1.125 C 55.089844 1.121094 55.789062 1.125 56.488281 1.125 C 56.789062 1.125 56.789062 1.125 57.097656 1.117188 C 58.722656 1.136719 60.019531 1.617188 61.253906 2.6875 C 61.421875 2.894531 61.421875 2.894531 61.59375 3.109375 C 61.769531 3.316406 61.769531 3.316406 61.941406 3.53125 C 62.722656 4.722656 62.824219 5.824219 62.816406 7.21875 C 62.816406 7.414062 62.816406 7.613281 62.820312 7.816406 C 62.824219 8.472656 62.824219 9.128906 62.824219 9.789062 C 62.824219 10.261719 62.824219 10.734375 62.828125 11.207031 C 62.832031 12.488281 62.832031 13.769531 62.832031 15.054688 C 62.832031 15.855469 62.835938 16.65625 62.835938 17.457031 C 62.839844 20.253906 62.84375 23.054688 62.84375 25.847656 C 62.84375 28.457031 62.847656 31.0625 62.855469 33.667969 C 62.863281 35.90625 62.867188 38.144531 62.867188 40.378906 C 62.867188 41.71875 62.867188 43.054688 62.871094 44.390625 C 62.875 45.648438 62.875 46.90625 62.871094 48.164062 C 62.871094 48.625 62.871094 49.082031 62.875 49.546875 C 62.878906 50.175781 62.878906 50.804688 62.871094 51.4375 C 62.875 51.617188 62.878906 51.796875 62.878906 51.984375 C 62.859375 53.695312 62.253906 54.984375 61.0625 56.203125 C 59.316406 57.378906 57.617188 57.816406 55.5 57.5 C 54.828125 57.03125 54.828125 57.03125 54.5 56.5 C 54.5 56.335938 54.5 56.171875 54.5 56 C 53.921875 56.082031 53.34375 56.164062 52.75 56.25 C 52.871094 56.460938 52.996094 56.671875 53.125 56.890625 C 53.613281 58.007812 53.726562 58.851562 53.316406 60.019531 C 52.816406 61.117188 52.285156 61.835938 51.25 62.5 C 50.164062 62.863281 49.136719 62.878906 48 62.75 C 46.753906 62.125 45.875 61.25 45.25 60 C 45.242188 59.164062 45.269531 58.328125 45.289062 57.492188 C 45.332031 56.71875 45.332031 56.71875 44.75 56.25 C 44.085938 56.109375 43.429688 56.066406 42.75 56 C 42.730469 56.257812 42.707031 56.515625 42.6875 56.78125 C 42.441406 58.054688 41.996094 58.882812 40.941406 59.660156 C 40.113281 60.066406 39.539062 60.097656 38.621094 60.105469 C 38.296875 60.109375 37.972656 60.113281 37.636719 60.117188 C 37.285156 60.117188 36.933594 60.117188 36.582031 60.117188 C 36.214844 60.117188 35.851562 60.121094 35.488281 60.125 C 34.726562 60.125 33.964844 60.125 33.203125 60.125 C 32.226562 60.125 31.253906 60.128906 30.28125 60.140625 C 29.53125 60.148438 28.78125 60.148438 28.027344 60.148438 C 27.671875 60.148438 27.308594 60.152344 26.953125 60.15625 C 23.808594 60.191406 23.808594 60.191406 22.671875 59.414062 C 21.773438 58.527344 21.285156 57.804688 21.203125 56.53125 C 21.21875 56.355469 21.234375 56.179688 21.25 56 C 19.851562 56.050781 19.851562 56.050781 18.75 56.75 C 18.742188 57.269531 18.753906 57.792969 18.78125 58.3125 C 18.800781 59.691406 18.734375 60.464844 17.75 61.5 C 16.492188 62.609375 15.78125 62.824219 14.136719 62.804688 C 12.941406 62.703125 12.246094 62.261719 11.4375 61.40625 C 10.613281 60.171875 10.371094 59.246094 10.5 57.75 C 10.707031 57.132812 10.964844 56.585938 11.25 56 C 10.671875 56 10.09375 56 9.5 56 C 9.394531 56.300781 9.394531 56.300781 9.28125 56.609375 C 9 57.25 9 57.25 8.5 57.5 C 6.59375 57.699219 4.910156 57.492188 3.25 56.5 C 2.011719 55.417969 1.304688 54.261719 1.183594 52.597656 C 1.183594 52.242188 1.179688 51.886719 1.183594 51.53125 C 1.183594 51.335938 1.179688 51.136719 1.179688 50.9375 C 1.175781 50.277344 1.179688 49.617188 1.179688 48.960938 C 1.175781 48.488281 1.171875 48.015625 1.171875 47.542969 C 1.167969 46.261719 1.167969 44.976562 1.164062 43.695312 C 1.164062 42.894531 1.164062 42.09375 1.164062 41.289062 C 1.15625 38.496094 1.15625 35.699219 1.15625 32.902344 C 1.15625 30.296875 1.152344 27.6875 1.144531 25.082031 C 1.136719 22.84375 1.136719 20.605469 1.136719 18.367188 C 1.136719 17.03125 1.136719 15.695312 1.128906 14.359375 C 1.121094 13.101562 1.121094 11.84375 1.128906 10.589844 C 1.128906 10.125 1.128906 9.664062 1.121094 9.207031 C 1.121094 8.574219 1.121094 7.941406 1.125 7.3125 C 1.121094 7.132812 1.121094 6.949219 1.117188 6.765625 C 1.140625 5.207031 1.664062 3.925781 2.683594 2.742188 C 2.824219 2.632812 2.964844 2.519531 3.109375 2.40625 C 3.246094 2.289062 3.386719 2.175781 3.53125 2.054688 C 4.78125 1.238281 5.953125 1.179688 7.417969 1.183594 Z M 7.417969 1.183594 "/>
<path style=" stroke:none;fill-rule:nonzero;fill:rgb(25.882354%,25.882354%,25.882354%);fill-opacity:1;" d="M 7.417969 1.183594 C 7.636719 1.183594 7.855469 1.179688 8.078125 1.179688 C 8.808594 1.175781 9.539062 1.179688 10.269531 1.179688 C 10.796875 1.175781 11.320312 1.171875 11.84375 1.171875 C 13.269531 1.167969 14.691406 1.164062 16.113281 1.164062 C 17.304688 1.164062 18.492188 1.164062 19.679688 1.164062 C 22.484375 1.15625 25.289062 1.15625 28.09375 1.15625 C 30.984375 1.15625 33.875 1.152344 36.769531 1.144531 C 39.253906 1.136719 41.734375 1.136719 44.21875 1.136719 C 45.703125 1.136719 47.183594 1.132812 48.667969 1.128906 C 50.0625 1.125 51.457031 1.125 52.851562 1.128906 C 53.367188 1.128906 53.878906 1.128906 54.386719 1.125 C 55.089844 1.121094 55.789062 1.125 56.488281 1.125 C 56.789062 1.125 56.789062 1.125 57.097656 1.117188 C 58.722656 1.136719 60.019531 1.617188 61.253906 2.6875 C 61.421875 2.894531 61.421875 2.894531 61.59375 3.109375 C 61.769531 3.316406 61.769531 3.316406 61.941406 3.53125 C 62.722656 4.722656 62.824219 5.824219 62.816406 7.21875 C 62.816406 7.414062 62.816406 7.613281 62.820312 7.816406 C 62.824219 8.472656 62.824219 9.128906 62.824219 9.789062 C 62.824219 10.261719 62.824219 10.734375 62.828125 11.207031 C 62.832031 12.488281 62.832031 13.769531 62.832031 15.054688 C 62.832031 15.855469 62.835938 16.65625 62.835938 17.457031 C 62.839844 20.253906 62.84375 23.054688 62.84375 25.847656 C 62.84375 28.457031 62.847656 31.0625 62.855469 33.667969 C 62.863281 35.90625 62.867188 38.144531 62.867188 40.378906 C 62.867188 41.71875 62.867188 43.054688 62.871094 44.390625 C 62.875 45.648438 62.875 46.90625 62.871094 48.164062 C 62.871094 48.625 62.871094 49.082031 62.875 49.546875 C 62.878906 50.175781 62.878906 50.804688 62.871094 51.4375 C 62.875 51.617188 62.878906 51.796875 62.878906 51.984375 C 62.859375 53.695312 62.253906 54.984375 61.0625 56.203125 C 59.320312 57.375 57.613281 57.824219 55.5 57.5 C 54.828125 57 54.828125 57 54.5 56.5 C 54.96875 55.03125 54.96875 55.03125 55.25 54.75 C 55.6875 54.710938 56.125 54.679688 56.5625 54.65625 C 57.644531 54.566406 58.394531 54.464844 59.25 53.75 C 59.851562 52.84375 59.816406 52.429688 59.820312 51.351562 C 59.820312 51.1875 59.824219 51.019531 59.824219 50.84375 C 59.828125 50.28125 59.828125 49.714844 59.832031 49.152344 C 59.832031 48.742188 59.835938 48.332031 59.839844 47.921875 C 59.84375 46.816406 59.847656 45.71875 59.851562 44.617188 C 59.855469 43.582031 59.859375 42.550781 59.867188 41.519531 C 59.882812 38.496094 59.894531 35.476562 59.90625 32.453125 C 59.9375 25.703125 59.96875 18.953125 60 12 C 41.519531 12 23.039062 12 4 12 C 4.015625 18.738281 4.03125 25.476562 4.046875 32.421875 C 4.046875 34.550781 4.050781 36.679688 4.054688 38.875 C 4.058594 40.78125 4.058594 40.78125 4.066406 42.6875 C 4.074219 43.535156 4.074219 44.386719 4.070312 45.234375 C 4.070312 46.320312 4.074219 47.402344 4.082031 48.488281 C 4.082031 48.886719 4.082031 49.28125 4.082031 49.679688 C 4.078125 50.21875 4.082031 50.753906 4.089844 51.292969 C 4.089844 51.59375 4.089844 51.894531 4.09375 52.207031 C 4.296875 53.226562 4.710938 53.59375 5.5 54.25 C 6.140625 54.570312 6.644531 54.535156 7.359375 54.5625 C 8.671875 54.671875 8.671875 54.671875 9.328125 55.3125 C 9.539062 56.15625 9.433594 56.503906 9 57.25 C 7.839844 57.832031 6.296875 57.628906 5.066406 57.339844 C 3.371094 56.734375 2.289062 55.832031 1.484375 54.21875 C 1.191406 53.316406 1.179688 52.46875 1.183594 51.53125 C 1.183594 51.335938 1.179688 51.136719 1.179688 50.9375 C 1.175781 50.277344 1.179688 49.617188 1.179688 48.960938 C 1.175781 48.488281 1.171875 48.015625 1.171875 47.542969 C 1.167969 46.261719 1.167969 44.976562 1.164062 43.695312 C 1.164062 42.894531 1.164062 42.09375 1.164062 41.289062 C 1.15625 38.496094 1.15625 35.699219 1.15625 32.902344 C 1.15625 30.296875 1.152344 27.6875 1.144531 25.082031 C 1.136719 22.84375 1.136719 20.605469 1.136719 18.367188 C 1.136719 17.03125 1.136719 15.695312 1.128906 14.359375 C 1.121094 13.101562 1.121094 11.84375 1.128906 10.589844 C 1.128906 10.125 1.128906 9.664062 1.121094 9.207031 C 1.121094 8.574219 1.121094 7.941406 1.125 7.3125 C 1.121094 7.132812 1.121094 6.949219 1.117188 6.765625 C 1.140625 5.207031 1.664062 3.925781 2.683594 2.742188 C 2.824219 2.632812 2.964844 2.519531 3.109375 2.40625 C 3.246094 2.289062 3.386719 2.175781 3.53125 2.054688 C 4.78125 1.238281 5.953125 1.179688 7.417969 1.183594 Z M 7.417969 1.183594 "/>
<path style=" stroke:none;fill-rule:nonzero;fill:rgb(26.274511%,26.274511%,26.274511%);fill-opacity:1;" d="M 36.546875 32.25 C 38.046875 33.660156 38.757812 35.339844 38.84375 37.363281 C 38.859375 38.660156 38.820312 39.953125 38.75 41.25 C 38.945312 41.285156 39.136719 41.320312 39.335938 41.359375 C 40.550781 41.617188 41.480469 42.28125 42.269531 43.246094 C 42.59375 43.949219 42.550781 44.539062 42.535156 45.304688 C 42.53125 45.574219 42.523438 45.847656 42.519531 46.125 C 42.511719 46.332031 42.507812 46.539062 42.5 46.75 C 43.648438 46.753906 44.792969 46.738281 45.9375 46.71875 C 46.261719 46.71875 46.589844 46.71875 46.925781 46.71875 C 47.808594 46.703125 48.632812 46.671875 49.5 46.5 C 50.203125 45.824219 50.203125 45.824219 50.5 45 C 51.652344 44.140625 52.523438 43.832031 53.964844 43.902344 C 55.371094 44.15625 56.210938 45.136719 57 46.25 C 57.464844 47.175781 57.363281 48.238281 57.25 49.25 C 56.695312 50.355469 56.011719 51.046875 55 51.75 C 53.910156 52.113281 52.855469 52.210938 51.765625 51.828125 C 50.90625 51.382812 50.566406 51.152344 50.164062 50.226562 C 49.355469 49.34375 49.089844 49.375 47.925781 49.300781 C 47.304688 49.285156 46.683594 49.28125 46.0625 49.28125 C 45.746094 49.273438 45.425781 49.269531 45.097656 49.265625 C 44.316406 49.253906 43.535156 49.25 42.75 49.25 C 42.75 50.570312 42.75 51.890625 42.75 53.25 C 43.210938 53.21875 43.667969 53.1875 44.140625 53.15625 C 45.597656 53.144531 45.597656 53.144531 46.234375 53.585938 C 46.425781 53.789062 46.425781 53.789062 46.625 54 C 47.183594 54.585938 47.390625 54.738281 48.210938 54.816406 C 48.734375 54.792969 49.257812 54.765625 49.78125 54.738281 C 50.890625 54.753906 51.375 55.078125 52.25 55.75 C 53.09375 56.65625 53.457031 57.304688 53.578125 58.546875 C 53.457031 60.035156 52.9375 61.082031 51.859375 62.109375 C 50.640625 62.890625 49.410156 62.90625 48 62.75 C 46.753906 62.128906 45.875 61.253906 45.25 60 C 45.242188 59.164062 45.265625 58.328125 45.289062 57.492188 C 45.332031 56.71875 45.332031 56.71875 44.75 56.25 C 44.085938 56.109375 43.425781 56.066406 42.75 56 C 42.730469 56.257812 42.710938 56.515625 42.6875 56.78125 C 42.441406 58.058594 41.996094 58.886719 40.941406 59.664062 C 40.113281 60.066406 39.542969 60.097656 38.621094 60.105469 C 38.132812 60.109375 38.132812 60.109375 37.636719 60.117188 C 37.285156 60.117188 36.933594 60.117188 36.578125 60.117188 C 36.21875 60.121094 35.851562 60.121094 35.488281 60.121094 C 34.726562 60.128906 33.964844 60.128906 33.203125 60.125 C 32.230469 60.125 31.257812 60.132812 30.28125 60.140625 C 29.53125 60.148438 28.78125 60.148438 28.03125 60.148438 C 27.667969 60.148438 27.3125 60.148438 26.953125 60.15625 C 23.808594 60.191406 23.808594 60.191406 22.671875 59.414062 C 21.773438 58.523438 21.285156 57.804688 21.203125 56.53125 C 21.226562 56.265625 21.226562 56.265625 21.25 56 C 19.855469 56.050781 19.855469 56.050781 18.75 56.75 C 18.738281 57.269531 18.753906 57.792969 18.78125 58.3125 C 18.800781 59.691406 18.734375 60.460938 17.75 61.5 C 16.492188 62.609375 15.78125 62.824219 14.132812 62.800781 C 12.941406 62.703125 12.246094 62.261719 11.4375 61.40625 C 10.613281 60.171875 10.371094 59.246094 10.5 57.75 C 10.875 56.386719 11.417969 55.65625 12.621094 54.960938 C 13.65625 54.613281 14.667969 54.753906 15.742188 54.804688 C 16.785156 54.730469 17.09375 54.320312 17.773438 53.585938 C 18.777344 52.878906 20.089844 53.171875 21.25 53.25 C 21.25 51.929688 21.25 50.609375 21.25 49.25 C 20.148438 49.246094 19.050781 49.253906 17.953125 49.265625 C 17.640625 49.261719 17.328125 49.261719 17.007812 49.257812 C 15.410156 49.226562 15.410156 49.226562 14.03125 49.886719 C 13.648438 50.410156 13.648438 50.410156 13.25 51.25 C 12.074219 52.078125 10.898438 52.226562 9.5 52 C 8.175781 51.324219 7.222656 50.425781 6.75 49 C 6.640625 46.753906 6.640625 46.753906 7.25 45.75 C 8.25 44.761719 9.085938 43.972656 10.53125 43.90625 C 11.839844 43.921875 12.789062 44.371094 13.75 45.25 C 13.847656 45.460938 13.949219 45.671875 14.050781 45.886719 C 14.449219 46.574219 14.449219 46.574219 15.226562 46.664062 C 15.515625 46.671875 15.808594 46.671875 16.105469 46.675781 C 16.574219 46.6875 16.574219 46.6875 17.054688 46.699219 C 17.542969 46.699219 17.542969 46.699219 18.046875 46.703125 C 18.382812 46.710938 18.714844 46.714844 19.050781 46.722656 C 19.867188 46.738281 20.683594 46.746094 21.5 46.75 C 21.492188 46.546875 21.480469 46.34375 21.472656 46.136719 C 21.460938 45.734375 21.460938 45.734375 21.449219 45.324219 C 21.4375 44.925781 21.4375 44.925781 21.421875 44.519531 C 21.535156 43.421875 22.007812 42.875 22.78125 42.121094 C 23.609375 41.464844 24.203125 41.25 25.25 41.25 C 25.242188 41.109375 25.234375 40.960938 25.226562 40.816406 C 25.074219 37.621094 24.957031 35.039062 27.175781 32.511719 C 30 29.867188 33.476562 30.324219 36.546875 32.25 Z M 36.546875 32.25 "/>
<path style=" stroke:none;fill-rule:nonzero;fill:rgb(74.509805%,77.64706%,77.64706%);fill-opacity:1;" d="M 26.15625 43.902344 C 26.441406 43.902344 26.730469 43.898438 27.027344 43.894531 C 27.492188 43.898438 27.492188 43.898438 27.96875 43.902344 C 28.445312 43.902344 28.445312 43.902344 28.933594 43.898438 C 29.609375 43.898438 30.285156 43.898438 30.960938 43.902344 C 31.828125 43.90625 32.6875 43.902344 33.558594 43.902344 C 34.382812 43.894531 35.207031 43.898438 36.03125 43.902344 C 36.34375 43.898438 36.65625 43.898438 36.972656 43.894531 C 37.40625 43.902344 37.40625 43.902344 37.847656 43.902344 C 38.097656 43.902344 38.351562 43.902344 38.613281 43.90625 C 39.25 44 39.25 44 39.707031 44.308594 C 40.082031 44.875 40.09375 45.226562 40.097656 45.902344 C 40.097656 46.136719 40.101562 46.367188 40.105469 46.609375 C 40.101562 46.859375 40.101562 47.109375 40.097656 47.367188 C 40.097656 47.625 40.101562 47.882812 40.101562 48.148438 C 40.101562 48.695312 40.101562 49.242188 40.097656 49.785156 C 40.09375 50.621094 40.097656 51.457031 40.101562 52.292969 C 40.101562 52.824219 40.101562 53.351562 40.097656 53.882812 C 40.101562 54.132812 40.101562 54.386719 40.105469 54.644531 C 40.101562 54.992188 40.101562 54.992188 40.097656 55.347656 C 40.097656 55.554688 40.097656 55.757812 40.09375 55.96875 C 40 56.5 40 56.5 39.710938 56.941406 C 39.0625 57.375 38.59375 57.34375 37.820312 57.347656 C 37.523438 57.351562 37.230469 57.351562 36.929688 57.355469 C 36.613281 57.351562 36.292969 57.351562 35.96875 57.351562 C 35.480469 57.351562 35.480469 57.351562 34.980469 57.351562 C 34.292969 57.351562 33.605469 57.351562 32.917969 57.347656 C 32.035156 57.34375 31.15625 57.34375 30.273438 57.351562 C 29.433594 57.351562 28.589844 57.351562 27.75 57.351562 C 27.273438 57.351562 27.273438 57.351562 26.785156 57.355469 C 26.496094 57.351562 26.203125 57.351562 25.898438 57.347656 C 25.640625 57.34375 25.382812 57.34375 25.113281 57.34375 C 24.910156 57.3125 24.710938 57.28125 24.5 57.25 C 23.972656 56.457031 23.9375 56.257812 23.933594 55.347656 C 23.929688 55.117188 23.925781 54.882812 23.925781 54.644531 C 23.925781 54.394531 23.925781 54.140625 23.925781 53.882812 C 23.925781 53.625 23.921875 53.367188 23.921875 53.101562 C 23.917969 52.554688 23.917969 52.011719 23.921875 51.464844 C 23.921875 50.628906 23.917969 49.792969 23.910156 48.957031 C 23.910156 48.425781 23.910156 47.898438 23.910156 47.367188 C 23.90625 47.117188 23.90625 46.867188 23.902344 46.609375 C 23.90625 46.375 23.90625 46.140625 23.90625 45.902344 C 23.90625 45.699219 23.90625 45.492188 23.90625 45.28125 C 24 44.75 24 44.75 24.292969 44.308594 C 24.929688 43.878906 25.386719 43.90625 26.15625 43.902344 Z M 26.15625 43.902344 "/>
<path style=" stroke:none;fill-rule:nonzero;fill:rgb(96.862745%,97.254902%,97.254902%);fill-opacity:1;" d="M 40.25 4 C 42.542969 3.984375 44.835938 3.96875 47.128906 3.960938 C 48.191406 3.957031 49.257812 3.953125 50.324219 3.941406 C 51.351562 3.933594 52.378906 3.929688 53.40625 3.929688 C 53.796875 3.925781 54.191406 3.925781 54.578125 3.921875 C 55.128906 3.914062 55.679688 3.914062 56.226562 3.914062 C 56.539062 3.914062 56.855469 3.914062 57.175781 3.910156 C 58.085938 4.011719 58.53125 4.195312 59.25 4.75 C 60 5.75 60 5.75 60 9.25 C 53.730469 9.25 47.460938 9.25 41 9.25 C 40.753906 7.515625 40.503906 5.785156 40.25 4 Z M 40.25 4 "/>
<path style=" stroke:none;fill-rule:nonzero;fill:rgb(40.000001%,34.901962%,99.607843%);fill-opacity:1;" d="M 41.65625 14.667969 C 42.128906 14.667969 42.128906 14.667969 42.609375 14.671875 C 43.078125 14.667969 43.078125 14.667969 43.558594 14.660156 C 43.859375 14.660156 44.160156 14.660156 44.464844 14.660156 C 44.746094 14.660156 45.019531 14.65625 45.304688 14.65625 C 46 14.75 46 14.75 46.472656 15.089844 C 46.75 15.5 46.75 15.5 46.703125 16.140625 C 46.5 16.75 46.5 16.75 46 17.25 C 45.507812 17.308594 45.507812 17.308594 44.910156 17.300781 C 44.699219 17.296875 44.488281 17.292969 44.265625 17.292969 C 43.933594 17.285156 43.933594 17.285156 43.59375 17.28125 C 43.371094 17.28125 43.144531 17.277344 42.914062 17.273438 C 42.359375 17.269531 41.804688 17.257812 41.25 17.25 C 41.25 18.15625 41.25 19.0625 41.25 20 C 41.5625 19.992188 41.875 19.980469 42.199219 19.972656 C 42.613281 19.96875 43.023438 19.960938 43.4375 19.953125 C 43.644531 19.945312 43.847656 19.9375 44.0625 19.933594 C 44.261719 19.933594 44.460938 19.929688 44.667969 19.925781 C 44.851562 19.921875 45.035156 19.917969 45.222656 19.914062 C 45.933594 20.03125 46.25 20.230469 46.75 20.75 C 46.878906 21.390625 46.878906 21.390625 46.882812 22.15625 C 46.882812 22.566406 46.882812 22.566406 46.886719 22.988281 C 46.882812 23.277344 46.878906 23.5625 46.875 23.859375 C 46.878906 24.148438 46.882812 24.433594 46.886719 24.726562 C 46.882812 25 46.882812 25.277344 46.882812 25.5625 C 46.882812 25.8125 46.882812 26.0625 46.878906 26.324219 C 46.710938 27.195312 46.464844 27.488281 45.75 28 C 45.074219 28.125 45.074219 28.125 44.3125 28.125 C 43.898438 28.125 43.898438 28.125 43.476562 28.125 C 43.191406 28.121094 42.902344 28.113281 42.609375 28.109375 C 42.320312 28.113281 42.035156 28.113281 41.738281 28.113281 C 39.632812 28.097656 39.632812 28.097656 39.089844 27.691406 C 38.648438 27.121094 38.65625 26.789062 38.65625 26.070312 C 38.652344 25.832031 38.652344 25.59375 38.652344 25.347656 C 38.652344 25.09375 38.65625 24.835938 38.660156 24.570312 C 38.660156 24.304688 38.660156 24.042969 38.660156 23.769531 C 38.660156 23.210938 38.660156 22.652344 38.667969 22.09375 C 38.671875 21.238281 38.671875 20.378906 38.667969 19.523438 C 38.671875 18.980469 38.671875 18.4375 38.675781 17.898438 C 38.675781 17.511719 38.675781 17.511719 38.675781 17.117188 C 38.675781 16.878906 38.679688 16.640625 38.683594 16.398438 C 38.683594 16.1875 38.683594 15.976562 38.683594 15.757812 C 38.875 14.269531 40.515625 14.675781 41.65625 14.667969 Z M 41.65625 14.667969 "/>
<path style=" stroke:none;fill-rule:nonzero;fill:rgb(74.117649%,77.254903%,77.254903%);fill-opacity:1;" d="M 21.75 4 C 23.726562 3.984375 25.699219 3.96875 27.675781 3.960938 C 28.59375 3.957031 29.511719 3.953125 30.425781 3.941406 C 31.3125 3.933594 32.199219 3.929688 33.082031 3.929688 C 33.585938 3.925781 34.085938 3.921875 34.589844 3.914062 C 35.046875 3.914062 35.046875 3.914062 35.515625 3.914062 C 35.921875 3.914062 35.921875 3.914062 36.328125 3.910156 C 37 4 37 4 37.457031 4.34375 C 37.859375 4.898438 37.9375 5.386719 38.046875 6.0625 C 38.085938 6.289062 38.125 6.519531 38.167969 6.753906 C 38.261719 7.582031 38.25 8.417969 38.25 9.25 C 33.050781 9.25 27.855469 9.25 22.5 9.25 C 21.75 5 21.75 5 21.75 4 Z M 21.75 4 "/>
<path style=" stroke:none;fill-rule:nonzero;fill:rgb(74.117649%,77.254903%,77.254903%);fill-opacity:1;" d="M 6.941406 3.960938 C 7.191406 3.957031 7.4375 3.953125 7.691406 3.953125 C 7.960938 3.953125 8.230469 3.949219 8.507812 3.949219 C 8.78125 3.945312 9.058594 3.945312 9.339844 3.945312 C 9.921875 3.941406 10.503906 3.941406 11.085938 3.941406 C 11.980469 3.9375 12.871094 3.929688 13.765625 3.921875 C 14.328125 3.917969 14.894531 3.917969 15.460938 3.917969 C 15.726562 3.914062 15.996094 3.914062 16.273438 3.910156 C 16.519531 3.910156 16.769531 3.910156 17.023438 3.910156 C 17.355469 3.910156 17.355469 3.910156 17.691406 3.90625 C 18.378906 4.019531 18.589844 4.195312 19 4.75 C 19.171875 5.382812 19.308594 5.980469 19.421875 6.625 C 19.453125 6.792969 19.488281 6.960938 19.519531 7.136719 C 19.652344 7.851562 19.75 8.519531 19.75 9.25 C 14.550781 9.25 9.355469 9.25 4 9.25 C 4 5.75 4 5.75 4.59375 4.796875 C 5.460938 4.078125 5.84375 3.96875 6.941406 3.960938 Z M 6.941406 3.960938 "/>
<path style=" stroke:none;fill-rule:nonzero;fill:rgb(40.392157%,35.294119%,99.607843%);fill-opacity:1;" d="M 28.5 14.75 C 29.191406 14.65625 29.191406 14.65625 30.0625 14.660156 C 30.375 14.660156 30.6875 14.660156 31.007812 14.660156 C 31.5 14.664062 31.5 14.664062 32 14.671875 C 32.328125 14.671875 32.65625 14.671875 32.992188 14.671875 C 35.433594 14.683594 35.433594 14.683594 36 15.25 C 35.855469 16.894531 35.855469 16.894531 35.5 17.25 C 35.144531 17.273438 34.789062 17.277344 34.4375 17.273438 C 34.222656 17.273438 34.011719 17.273438 33.789062 17.273438 C 33.566406 17.269531 33.339844 17.265625 33.109375 17.265625 C 32.886719 17.265625 32.65625 17.261719 32.425781 17.261719 C 31.867188 17.261719 31.308594 17.253906 30.75 17.25 C 30.75 18.15625 30.75 19.066406 30.75 20 C 31.066406 19.992188 31.382812 19.984375 31.707031 19.972656 C 32.121094 19.96875 32.539062 19.960938 32.953125 19.953125 C 33.164062 19.949219 33.371094 19.941406 33.585938 19.933594 C 33.886719 19.929688 33.886719 19.929688 34.191406 19.925781 C 34.378906 19.921875 34.5625 19.921875 34.753906 19.914062 C 35.25 20 35.25 20 35.683594 20.289062 C 36.128906 20.941406 36.097656 21.433594 36.101562 22.21875 C 36.101562 22.648438 36.101562 22.648438 36.101562 23.089844 C 36.101562 23.390625 36.097656 23.691406 36.09375 24 C 36.097656 24.300781 36.101562 24.601562 36.101562 24.910156 C 36.101562 25.199219 36.101562 25.484375 36.101562 25.78125 C 36.101562 26.046875 36.097656 26.308594 36.097656 26.578125 C 36 27.25 36 27.25 35.710938 27.710938 C 35.054688 28.121094 34.550781 28.097656 33.78125 28.101562 C 33.496094 28.101562 33.207031 28.101562 32.910156 28.101562 C 32.609375 28.101562 32.308594 28.097656 32 28.09375 C 31.699219 28.097656 31.398438 28.101562 31.089844 28.101562 C 30.65625 28.101562 30.65625 28.101562 30.21875 28.101562 C 29.953125 28.101562 29.691406 28.097656 29.421875 28.097656 C 28.75 28 28.75 28 28.289062 27.65625 C 27.875 27.074219 27.894531 26.699219 28 26 C 28.390625 25.488281 28.609375 25.273438 29.246094 25.164062 C 29.433594 25.171875 29.617188 25.171875 29.808594 25.175781 C 30.007812 25.179688 30.210938 25.183594 30.414062 25.183594 C 30.625 25.191406 30.832031 25.199219 31.046875 25.203125 C 31.363281 25.207031 31.363281 25.207031 31.6875 25.210938 C 32.207031 25.222656 32.730469 25.234375 33.25 25.25 C 33.25 24.425781 33.25 23.601562 33.25 22.75 C 32.773438 22.765625 32.773438 22.765625 32.292969 22.785156 C 31.878906 22.796875 31.460938 22.800781 31.046875 22.8125 C 30.734375 22.824219 30.734375 22.824219 30.414062 22.835938 C 30.113281 22.84375 30.113281 22.84375 29.808594 22.847656 C 29.621094 22.851562 29.4375 22.859375 29.246094 22.863281 C 28.75 22.75 28.75 22.75 28.316406 22.335938 C 27.925781 21.613281 27.90625 21.128906 27.910156 20.3125 C 27.910156 20.035156 27.910156 19.761719 27.910156 19.476562 C 27.914062 19.191406 27.917969 18.90625 27.921875 18.609375 C 27.921875 18.324219 27.921875 18.035156 27.921875 17.738281 C 27.933594 15.601562 27.933594 15.601562 28.5 14.75 Z M 28.5 14.75 "/>
<path style=" stroke:none;fill-rule:nonzero;fill:rgb(40.392157%,35.294119%,99.607843%);fill-opacity:1;" d="M 19.507812 14.683594 C 19.808594 14.683594 20.109375 14.679688 20.417969 14.679688 C 20.734375 14.683594 21.050781 14.6875 21.375 14.6875 C 21.691406 14.6875 22.003906 14.683594 22.332031 14.679688 C 22.632812 14.679688 22.933594 14.683594 23.242188 14.683594 C 23.519531 14.683594 23.796875 14.683594 24.082031 14.6875 C 24.75 14.75 24.75 14.75 25.25 15.25 C 25.367188 16.367188 25.332031 17.488281 25.328125 18.609375 C 25.332031 18.921875 25.335938 19.234375 25.339844 19.558594 C 25.339844 19.859375 25.339844 20.160156 25.339844 20.46875 C 25.34375 20.742188 25.34375 21.019531 25.34375 21.304688 C 25.25 22 25.25 22 24.933594 22.464844 C 24.394531 22.820312 24.085938 22.835938 23.441406 22.824219 C 23.242188 22.820312 23.039062 22.820312 22.835938 22.816406 C 22.625 22.808594 22.417969 22.804688 22.203125 22.796875 C 21.886719 22.792969 21.886719 22.792969 21.5625 22.785156 C 21.042969 22.777344 20.519531 22.761719 20 22.75 C 20 23.574219 20 24.402344 20 25.25 C 20.316406 25.242188 20.632812 25.234375 20.957031 25.222656 C 21.371094 25.214844 21.789062 25.207031 22.203125 25.203125 C 22.410156 25.195312 22.621094 25.191406 22.835938 25.183594 C 23.136719 25.179688 23.136719 25.179688 23.441406 25.175781 C 23.628906 25.171875 23.8125 25.167969 24.003906 25.167969 C 24.644531 25.277344 24.859375 25.484375 25.25 26 C 25.34375 26.765625 25.34375 26.765625 25.25 27.5 C 24.03125 28.3125 22.683594 28.089844 21.25 28.09375 C 20.800781 28.105469 20.800781 28.105469 20.339844 28.109375 C 20.054688 28.113281 19.765625 28.113281 19.46875 28.117188 C 19.074219 28.117188 19.074219 28.117188 18.671875 28.121094 C 18 28 18 28 17.539062 27.582031 C 17.183594 26.867188 17.152344 26.359375 17.148438 25.5625 C 17.148438 25.285156 17.148438 25.011719 17.148438 24.726562 C 17.152344 24.296875 17.152344 24.296875 17.15625 23.859375 C 17.152344 23.570312 17.148438 23.285156 17.148438 22.988281 C 17.148438 22.714844 17.148438 22.4375 17.148438 22.15625 C 17.148438 21.902344 17.152344 21.652344 17.152344 21.394531 C 17.25 20.75 17.25 20.75 17.5625 20.292969 C 18.117188 19.921875 18.449219 19.914062 19.113281 19.925781 C 19.324219 19.929688 19.535156 19.929688 19.753906 19.933594 C 20.085938 19.945312 20.085938 19.945312 20.421875 19.953125 C 20.644531 19.957031 20.867188 19.960938 21.097656 19.964844 C 21.648438 19.972656 22.199219 19.984375 22.75 20 C 22.75 19.09375 22.75 18.1875 22.75 17.25 C 22.414062 17.257812 22.082031 17.269531 21.738281 17.277344 C 21.296875 17.285156 20.859375 17.292969 20.421875 17.296875 C 20.203125 17.304688 19.980469 17.308594 19.753906 17.316406 C 19.433594 17.320312 19.433594 17.320312 19.113281 17.324219 C 18.917969 17.324219 18.722656 17.332031 18.519531 17.335938 C 17.867188 17.230469 17.640625 17.03125 17.25 16.5 C 17.367188 14.886719 18.003906 14.6875 19.507812 14.683594 Z M 19.507812 14.683594 "/>
<path style=" stroke:none;fill-rule:nonzero;fill:rgb(96.470588%,96.862745%,96.862745%);fill-opacity:1;" d="M 33.257812 33.40625 C 34.660156 33.992188 35.414062 34.863281 36 36.25 C 36.140625 37.132812 36.121094 37.980469 36.078125 38.875 C 36.050781 39.660156 36.027344 40.441406 36 41.25 C 33.359375 41.25 30.71875 41.25 28 41.25 C 27.980469 40.460938 27.960938 39.671875 27.9375 38.859375 C 27.925781 38.613281 27.917969 38.371094 27.910156 38.117188 C 27.890625 36.601562 28.101562 35.730469 29 34.5 C 30.25 33.328125 31.585938 32.890625 33.257812 33.40625 Z M 33.257812 33.40625 "/>
<path style=" stroke:none;fill-rule:nonzero;fill:rgb(96.470588%,96.862745%,96.862745%);fill-opacity:1;" d="M 33 46.75 C 33.851562 47.265625 34.472656 47.777344 34.75 48.75 C 34.6875 49.609375 34.59375 50.304688 34.21875 51.082031 C 33.933594 51.953125 34.09375 52.453125 34.34375 53.328125 C 34.476562 53.796875 34.613281 54.265625 34.75 54.75 C 32.933594 54.75 31.121094 54.75 29.25 54.75 C 29.460938 53.863281 29.671875 52.976562 29.886719 52.089844 C 30.097656 51.21875 30.097656 51.21875 29.5 50.5 C 29.316406 49.351562 29.347656 48.496094 29.96875 47.5 C 30.886719 46.636719 31.777344 46.578125 33 46.75 Z M 33 46.75 "/>
<path style=" stroke:none;fill-rule:nonzero;fill:rgb(95.294118%,95.686275%,97.647059%);fill-opacity:1;" d="M 41.25 22.75 C 42.15625 22.75 43.066406 22.75 44 22.75 C 44 23.574219 44 24.398438 44 25.25 C 43.09375 25.25 42.183594 25.25 41.25 25.25 C 41.25 24.425781 41.25 23.601562 41.25 22.75 Z M 41.25 22.75 "/>
<path style=" stroke:none;fill-rule:nonzero;fill:rgb(70.19608%,72.941178%,72.941178%);fill-opacity:1;" d="M 49.515625 57.28125 C 50.25 57.5 50.25 57.5 50.75 58.25 C 50.667969 59.082031 50.597656 59.402344 50 60 C 49.289062 60.089844 48.902344 60.101562 48.296875 59.703125 C 47.894531 59.089844 47.890625 58.722656 48 58 C 48.441406 57.261719 48.648438 57.246094 49.515625 57.28125 Z M 49.515625 57.28125 "/>
<path style=" stroke:none;fill-rule:nonzero;fill:rgb(70.19608%,72.941178%,72.941178%);fill-opacity:1;" d="M 14.890625 57.3125 C 15.5 57.5 15.5 57.5 16 58 C 16.089844 58.710938 16.101562 59.097656 15.703125 59.703125 C 15.089844 60.109375 14.722656 60.109375 14 60 C 13.53125 59.71875 13.53125 59.71875 13.25 59.25 C 13.28125 58.484375 13.28125 58.484375 13.5 57.75 C 14.25 57.25 14.25 57.25 14.890625 57.3125 Z M 14.890625 57.3125 "/>
<path style=" stroke:none;fill-rule:nonzero;fill:rgb(71.764708%,74.901962%,74.901962%);fill-opacity:1;" d="M 52.5 46.75 C 53.296875 46.648438 53.789062 46.621094 54.484375 47.046875 C 54.75 47.5 54.75 47.5 54.703125 48.140625 C 54.5 48.75 54.5 48.75 54 49.25 C 53.09375 49.15625 53.09375 49.15625 52.25 49 C 52.09375 48.296875 52.09375 48.296875 52 47.5 C 52.164062 47.253906 52.328125 47.003906 52.5 46.75 Z M 52.5 46.75 "/>
<path style=" stroke:none;fill-rule:nonzero;fill:rgb(72.156864%,75.294119%,75.294119%);fill-opacity:1;" d="M 10 46.75 C 10.90625 46.84375 10.90625 46.84375 11.75 47 C 12.082031 48.363281 12.082031 48.363281 11.71875 48.96875 C 11.09375 49.34375 10.71875 49.359375 10 49.25 C 9.53125 48.953125 9.53125 48.953125 9.25 48.5 C 9.308594 47.664062 9.402344 47.347656 10 46.75 Z M 10 46.75 "/>
</g>
</svg>
