<?xml version="1.0" encoding="UTF-8"?>
<svg xmlns="http://www.w3.org/2000/svg" xmlns:xlink="http://www.w3.org/1999/xlink" width="64" height="64" viewBox="0 0 64 64" version="1.1">
<g id="surface1">
<path style=" stroke:none;fill-rule:nonzero;fill:rgb(98.823529%,98.431373%,98.823529%);fill-opacity:1;" d="M 0 0 C 21.121094 0 42.238281 0 64 0 C 64 21.121094 64 42.238281 64 64 C 42.878906 64 21.761719 64 0 64 C 0 42.878906 0 21.761719 0 0 Z M 0 0 "/>
<path style=" stroke:none;fill-rule:nonzero;fill:rgb(95.686275%,73.725492%,11.764706%);fill-opacity:1;" d="M 7 5.5 C 23.5 5.5 40 5.5 57 5.5 C 57 10.367188 57 15.234375 57 20.25 C 40.5 20.25 24 20.25 7 20.25 C 7 15.382812 7 10.515625 7 5.5 Z M 7 5.5 "/>
<path style=" stroke:none;fill-rule:nonzero;fill:rgb(4.313726%,12.941177%,20.784314%);fill-opacity:1;" d="M 0 0 C 21.121094 0 42.238281 0 64 0 C 64 21.121094 64 42.238281 64 64 C 42.878906 64 21.761719 64 0 64 C 0 42.878906 0 21.761719 0 0 Z M 3.75 2.25 C 3.75 21.886719 3.75 41.519531 3.75 61.75 C 22.394531 61.75 41.039062 61.75 60.25 61.75 C 60.25 42.113281 60.25 22.480469 60.25 2.25 C 41.605469 2.25 22.960938 2.25 3.75 2.25 Z M 3.75 2.25 "/>
<path style=" stroke:none;fill-rule:nonzero;fill:rgb(70.588237%,74.901962%,81.960785%);fill-opacity:1;" d="M 7 24.75 C 23.5 24.75 40 24.75 57 24.75 C 57 29.535156 57 34.320312 57 39.25 C 40.5 39.25 24 39.25 7 39.25 C 7 34.464844 7 29.679688 7 24.75 Z M 7 24.75 "/>
<path style=" stroke:none;fill-rule:nonzero;fill:rgb(88.627452%,17.254902%,29.411766%);fill-opacity:1;" d="M 34.25 43.75 C 41.757812 43.75 49.265625 43.75 57 43.75 C 57 48.617188 57 53.484375 57 58.5 C 49.492188 58.5 41.984375 58.5 34.25 58.5 C 34.25 53.632812 34.25 48.765625 34.25 43.75 Z M 34.25 43.75 "/>
<path style=" stroke:none;fill-rule:nonzero;fill:rgb(4.705882%,15.294118%,26.274511%);fill-opacity:1;" d="M 7 43.75 C 14.507812 43.75 22.015625 43.75 29.75 43.75 C 29.75 48.617188 29.75 53.484375 29.75 58.5 C 22.242188 58.5 14.734375 58.5 7 58.5 C 7 53.632812 7 48.765625 7 43.75 Z M 7 43.75 "/>
<path style=" stroke:none;fill-rule:nonzero;fill:rgb(0%,0%,0%);fill-opacity:1;" d="M 62 0 C 62.660156 0 63.320312 0 64 0 C 64 21.121094 64 42.238281 64 64 C 63.339844 64 62.679688 64 62 64 C 62.125 63.753906 62.125 63.753906 62.25 63.5 C 62.273438 63.152344 62.28125 62.804688 62.28125 62.453125 C 62.28125 62.234375 62.28125 62.015625 62.28125 61.789062 C 62.28125 61.546875 62.28125 61.300781 62.28125 61.050781 C 62.28125 60.796875 62.28125 60.539062 62.28125 60.273438 C 62.285156 59.40625 62.28125 58.535156 62.28125 57.667969 C 62.28125 57.046875 62.28125 56.425781 62.28125 55.808594 C 62.285156 54.296875 62.285156 52.78125 62.285156 51.269531 C 62.28125 50.042969 62.28125 48.8125 62.28125 47.585938 C 62.28125 47.410156 62.28125 47.234375 62.28125 47.054688 C 62.28125 46.699219 62.28125 46.34375 62.285156 45.988281 C 62.285156 42.664062 62.28125 39.332031 62.28125 36.003906 C 62.28125 33.144531 62.28125 30.285156 62.28125 27.425781 C 62.285156 24.109375 62.285156 20.792969 62.28125 17.476562 C 62.28125 17.121094 62.28125 16.769531 62.28125 16.414062 C 62.28125 16.15625 62.28125 16.15625 62.28125 15.886719 C 62.28125 14.660156 62.28125 13.433594 62.285156 12.203125 C 62.285156 10.550781 62.285156 8.902344 62.28125 7.25 C 62.28125 6.640625 62.28125 6.035156 62.28125 5.425781 C 62.285156 4.601562 62.28125 3.773438 62.28125 2.949219 C 62.28125 2.703125 62.28125 2.460938 62.28125 2.210938 C 62.28125 1.988281 62.28125 1.769531 62.28125 1.546875 C 62.28125 1.351562 62.28125 1.164062 62.28125 0.964844 C 62.277344 0.476562 62.277344 0.476562 62 0 Z M 62 0 "/>
<path style=" stroke:none;fill-rule:nonzero;fill:rgb(0%,0%,0%);fill-opacity:1;" d="M 0 0 C 0.660156 0 1.320312 0 2 0 C 1.917969 0.164062 1.835938 0.328125 1.75 0.5 C 1.726562 0.847656 1.71875 1.195312 1.71875 1.546875 C 1.71875 1.765625 1.71875 1.984375 1.71875 2.210938 C 1.71875 2.453125 1.71875 2.699219 1.71875 2.949219 C 1.71875 3.203125 1.71875 3.460938 1.71875 3.726562 C 1.714844 4.59375 1.71875 5.464844 1.71875 6.332031 C 1.71875 6.953125 1.71875 7.574219 1.71875 8.191406 C 1.714844 9.703125 1.714844 11.21875 1.714844 12.730469 C 1.71875 13.957031 1.71875 15.1875 1.71875 16.414062 C 1.71875 16.589844 1.71875 16.765625 1.71875 16.945312 C 1.71875 17.300781 1.71875 17.65625 1.714844 18.011719 C 1.714844 21.335938 1.71875 24.667969 1.71875 27.996094 C 1.71875 30.855469 1.71875 33.714844 1.71875 36.574219 C 1.714844 39.890625 1.714844 43.207031 1.71875 46.523438 C 1.71875 46.878906 1.71875 47.230469 1.71875 47.585938 C 1.71875 47.757812 1.71875 47.933594 1.71875 48.113281 C 1.71875 49.339844 1.71875 50.566406 1.714844 51.796875 C 1.714844 53.449219 1.714844 55.097656 1.71875 56.75 C 1.71875 57.359375 1.71875 57.964844 1.71875 58.574219 C 1.714844 59.398438 1.71875 60.226562 1.71875 61.050781 C 1.71875 61.296875 1.71875 61.539062 1.71875 61.789062 C 1.71875 62.011719 1.71875 62.230469 1.71875 62.453125 C 1.71875 62.648438 1.71875 62.835938 1.71875 63.035156 C 1.722656 63.523438 1.722656 63.523438 2 64 C 1.339844 64 0.679688 64 0 64 C 0 42.878906 0 21.761719 0 0 Z M 0 0 "/>
</g>
</svg>
