<?xml version="1.0" encoding="UTF-8"?>
<svg xmlns="http://www.w3.org/2000/svg" xmlns:xlink="http://www.w3.org/1999/xlink" width="64" height="64" viewBox="0 0 64 64" version="1.1">
<g id="surface1">
<path style=" stroke:none;fill-rule:nonzero;fill:rgb(81.568629%,1.176471%,31.764707%);fill-opacity:1;" d="M 9.71875 -0.128906 C 9.941406 -0.128906 10.164062 -0.128906 10.390625 -0.132812 C 11.128906 -0.132812 11.867188 -0.132812 12.601562 -0.128906 C 13.132812 -0.132812 13.664062 -0.132812 14.191406 -0.132812 C 15.628906 -0.140625 17.066406 -0.136719 18.507812 -0.132812 C 20.011719 -0.132812 21.515625 -0.132812 23.019531 -0.132812 C 25.546875 -0.136719 28.074219 -0.132812 30.601562 -0.128906 C 33.523438 -0.125 36.445312 -0.128906 39.367188 -0.132812 C 41.875 -0.136719 44.382812 -0.136719 46.894531 -0.132812 C 48.390625 -0.132812 49.886719 -0.132812 51.386719 -0.136719 C 52.796875 -0.140625 54.203125 -0.136719 55.613281 -0.132812 C 56.128906 -0.128906 56.644531 -0.128906 57.164062 -0.132812 C 57.867188 -0.132812 58.574219 -0.132812 59.28125 -0.128906 C 59.484375 -0.128906 59.691406 -0.132812 59.898438 -0.132812 C 61.214844 -0.113281 61.949219 0.144531 63 1 C 64.359375 2.539062 64.144531 4.671875 64.132812 6.59375 C 64.132812 6.941406 64.136719 7.289062 64.136719 7.636719 C 64.136719 8.363281 64.136719 9.089844 64.128906 9.808594 C 64.125 10.738281 64.128906 11.664062 64.132812 12.589844 C 64.136719 13.304688 64.136719 14.019531 64.132812 14.738281 C 64.132812 15.078125 64.132812 15.421875 64.136719 15.761719 C 64.136719 16.242188 64.136719 16.714844 64.128906 17.191406 C 64.128906 17.464844 64.128906 17.734375 64.128906 18.015625 C 63.96875 18.929688 63.648438 19.351562 63 20 C 62.289062 20.144531 62.289062 20.144531 61.480469 20.121094 C 61.21875 20.117188 60.957031 20.117188 60.6875 20.113281 C 60.191406 20.09375 60.191406 20.09375 59.6875 20.078125 C 58.636719 20.054688 57.582031 20.027344 56.5 20 C 56.5 24.042969 56.5 28.085938 56.5 32.25 C 56.914062 32.414062 57.324219 32.582031 57.75 32.75 C 58.191406 32.992188 58.625 33.238281 59.058594 33.492188 C 59.300781 33.636719 59.539062 33.777344 59.789062 33.925781 C 60.039062 34.074219 60.289062 34.222656 60.546875 34.375 C 60.800781 34.523438 61.054688 34.671875 61.3125 34.824219 C 63.183594 35.933594 63.183594 35.933594 63.75 36.5 C 64.042969 38.464844 63.199219 39.71875 62.21875 41.375 C 62.0625 41.652344 61.90625 41.929688 61.746094 42.214844 C 60.984375 43.566406 60.199219 44.847656 59.246094 46.070312 C 56.296875 50.046875 56.398438 53.878906 56.496094 58.679688 C 56.503906 58.933594 56.507812 59.195312 56.511719 59.460938 C 56.523438 59.949219 56.539062 60.441406 56.5625 60.933594 C 56.566406 61.152344 56.574219 61.371094 56.582031 61.601562 C 56.59375 61.890625 56.59375 61.890625 56.605469 62.183594 C 56.449219 63.03125 56.117188 63.402344 55.5 64 C 54.785156 64.125 54.21875 64.167969 53.507812 64.15625 C 53.304688 64.15625 53.101562 64.160156 52.894531 64.164062 C 52.214844 64.167969 51.539062 64.164062 50.859375 64.15625 C 50.371094 64.15625 49.886719 64.160156 49.398438 64.164062 C 48.078125 64.167969 46.757812 64.164062 45.433594 64.160156 C 44.054688 64.15625 42.671875 64.15625 41.289062 64.15625 C 38.96875 64.160156 36.648438 64.15625 34.332031 64.148438 C 31.648438 64.140625 28.960938 64.140625 26.277344 64.144531 C 23.699219 64.152344 21.117188 64.148438 18.539062 64.144531 C 17.441406 64.144531 16.339844 64.144531 15.242188 64.144531 C 13.949219 64.144531 12.65625 64.144531 11.363281 64.136719 C 10.886719 64.132812 10.410156 64.132812 9.933594 64.136719 C 9.289062 64.136719 8.640625 64.132812 7.992188 64.128906 C 7.804688 64.128906 7.617188 64.132812 7.421875 64.136719 C 6.582031 64.121094 6.082031 64.054688 5.382812 63.574219 C 4.914062 62.871094 4.882812 62.492188 4.898438 61.652344 C 4.898438 61.378906 4.902344 61.105469 4.90625 60.824219 C 4.914062 60.527344 4.921875 60.226562 4.929688 59.921875 C 4.933594 59.433594 4.9375 58.949219 4.945312 58.464844 C 4.949219 57.945312 4.960938 57.425781 4.96875 56.90625 C 4.992188 55.816406 4.996094 54.734375 5.003906 53.644531 C 5.007812 53.273438 5.007812 52.902344 5.011719 52.527344 C 5.011719 52.339844 5.011719 52.15625 5.015625 51.964844 C 5.03125 49.433594 5.058594 46.90625 5.101562 44.375 C 5.136719 42.667969 5.152344 40.964844 5.152344 39.253906 C 5.152344 38.351562 5.164062 37.449219 5.1875 36.546875 C 5.46875 32.957031 5.46875 32.957031 4.351562 29.710938 C 3.398438 28.867188 2.359375 28.390625 1.179688 27.945312 C 0.574219 27.671875 0.292969 27.34375 0 26.75 C 0.0390625 25.402344 0.457031 24.476562 1.132812 23.324219 C 1.21875 23.171875 1.304688 23.023438 1.394531 22.867188 C 1.671875 22.386719 1.953125 21.914062 2.234375 21.4375 C 2.421875 21.117188 2.609375 20.792969 2.796875 20.46875 C 4.097656 18.226562 4.097656 18.226562 4.75 17.25 C 4.824219 16.589844 4.824219 16.589844 4.8125 15.835938 C 4.816406 15.398438 4.816406 15.398438 4.820312 14.957031 C 4.816406 14.640625 4.816406 14.324219 4.816406 14.003906 C 4.824219 13.511719 4.824219 13.015625 4.832031 12.523438 C 4.839844 11.308594 4.84375 10.089844 4.84375 8.871094 C 4.84375 8.191406 4.851562 7.507812 4.855469 6.828125 C 4.863281 6.183594 4.863281 5.542969 4.859375 4.902344 C 4.894531 2.140625 4.894531 2.140625 6 1 C 7.261719 -0.03125 8.15625 -0.144531 9.71875 -0.128906 Z M 9.71875 -0.128906 "/>
<path style=" stroke:none;fill-rule:nonzero;fill:rgb(99.607843%,95.686275%,95.686275%);fill-opacity:1;" d="M 5 30.25 C 5.90625 30.453125 6.59375 30.800781 7.398438 31.265625 C 7.820312 31.507812 7.820312 31.507812 8.246094 31.753906 C 8.550781 31.929688 8.851562 32.105469 9.15625 32.28125 C 9.472656 32.460938 9.789062 32.644531 10.101562 32.824219 C 10.914062 33.292969 11.722656 33.761719 12.53125 34.230469 C 13.246094 34.640625 13.960938 35.054688 14.679688 35.46875 C 15.742188 36.078125 16.804688 36.695312 17.867188 37.308594 C 18.871094 37.886719 19.871094 38.460938 20.878906 39.035156 C 21.484375 39.382812 22.09375 39.730469 22.699219 40.078125 C 23.132812 40.324219 23.566406 40.566406 23.996094 40.8125 C 24.257812 40.960938 24.515625 41.109375 24.78125 41.261719 C 25.011719 41.390625 25.242188 41.523438 25.476562 41.65625 C 26 42 26 42 26.25 42.5 C 26.015625 42.503906 26.015625 42.503906 25.78125 42.503906 C 24.175781 42.511719 22.570312 42.53125 20.964844 42.550781 C 20.363281 42.558594 19.765625 42.566406 19.164062 42.566406 C 18.304688 42.574219 17.441406 42.585938 16.582031 42.597656 C 16.179688 42.597656 16.179688 42.597656 15.769531 42.597656 C 15.519531 42.601562 15.269531 42.609375 15.011719 42.613281 C 14.789062 42.613281 14.574219 42.617188 14.34375 42.621094 C 13.546875 42.796875 13.238281 43.109375 12.75 43.75 C 12.726562 44.65625 12.726562 44.65625 13 45.5 C 13.941406 46.128906 14.390625 46.046875 15.515625 46.015625 C 15.886719 46.007812 16.257812 46 16.628906 45.992188 C 16.824219 45.988281 17.023438 45.984375 17.226562 45.976562 C 18.285156 45.953125 19.34375 45.949219 20.40625 45.9375 C 21.746094 45.925781 23.089844 45.910156 24.433594 45.871094 C 30.425781 45.699219 34.546875 46.195312 39.503906 49.734375 C 40.75 50.597656 42.074219 51.328125 43.390625 52.078125 C 44.808594 52.898438 46.21875 53.726562 47.617188 54.578125 C 47.832031 54.707031 48.046875 54.835938 48.269531 54.96875 C 48.671875 55.210938 49.066406 55.453125 49.460938 55.699219 C 50.578125 56.367188 51.414062 56.75 52.75 56.5 C 53.753906 55.574219 54.371094 54.226562 55.046875 53.046875 C 55.265625 52.660156 55.488281 52.273438 55.714844 51.886719 C 55.808594 51.714844 55.90625 51.546875 56.007812 51.371094 C 56.085938 51.246094 56.167969 51.125 56.25 51 C 56.332031 51 56.414062 51 56.5 51 C 56.523438 52.648438 56.542969 54.300781 56.554688 55.953125 C 56.558594 56.511719 56.566406 57.074219 56.574219 57.636719 C 56.585938 58.441406 56.59375 59.25 56.597656 60.058594 C 56.601562 60.308594 56.609375 60.558594 56.613281 60.816406 C 56.613281 61.050781 56.613281 61.289062 56.613281 61.53125 C 56.613281 61.734375 56.617188 61.941406 56.621094 62.152344 C 56.449219 63.011719 56.128906 63.390625 55.5 64 C 54.789062 64.125 54.21875 64.167969 53.507812 64.15625 C 53.304688 64.160156 53.101562 64.160156 52.894531 64.164062 C 52.214844 64.167969 51.539062 64.164062 50.859375 64.15625 C 50.371094 64.160156 49.886719 64.160156 49.398438 64.164062 C 48.078125 64.167969 46.757812 64.164062 45.433594 64.160156 C 44.054688 64.15625 42.671875 64.15625 41.292969 64.160156 C 38.96875 64.160156 36.648438 64.15625 34.328125 64.148438 C 31.648438 64.140625 28.960938 64.140625 26.28125 64.144531 C 23.699219 64.148438 21.121094 64.148438 18.539062 64.140625 C 17.441406 64.140625 16.339844 64.140625 15.242188 64.144531 C 13.949219 64.144531 12.65625 64.140625 11.363281 64.136719 C 10.886719 64.136719 10.410156 64.136719 9.933594 64.136719 C 9.289062 64.136719 8.640625 64.136719 7.992188 64.128906 C 7.800781 64.128906 7.613281 64.132812 7.421875 64.136719 C 6.582031 64.121094 6.078125 64.054688 5.382812 63.578125 C 4.914062 62.871094 4.878906 62.480469 4.878906 61.636719 C 4.878906 61.359375 4.878906 61.082031 4.875 60.796875 C 4.878906 60.496094 4.882812 60.191406 4.886719 59.878906 C 4.886719 59.558594 4.886719 59.238281 4.886719 58.914062 C 4.886719 58.035156 4.890625 57.160156 4.898438 56.285156 C 4.90625 55.371094 4.90625 54.453125 4.90625 53.539062 C 4.910156 51.808594 4.917969 50.074219 4.925781 48.34375 C 4.941406 46.371094 4.945312 44.394531 4.949219 42.421875 C 4.960938 38.363281 4.976562 34.308594 5 30.25 Z M 5 30.25 "/>
<path style=" stroke:none;fill-rule:nonzero;fill:rgb(87.450981%,86.666667%,95.686275%);fill-opacity:1;" d="M 9.71875 -0.128906 C 9.941406 -0.128906 10.164062 -0.128906 10.390625 -0.132812 C 11.128906 -0.132812 11.867188 -0.132812 12.601562 -0.128906 C 13.132812 -0.132812 13.664062 -0.132812 14.191406 -0.132812 C 15.628906 -0.140625 17.066406 -0.136719 18.507812 -0.132812 C 20.011719 -0.132812 21.515625 -0.132812 23.019531 -0.132812 C 25.546875 -0.136719 28.074219 -0.132812 30.601562 -0.128906 C 33.523438 -0.125 36.445312 -0.128906 39.367188 -0.132812 C 41.875 -0.136719 44.382812 -0.136719 46.894531 -0.132812 C 48.390625 -0.132812 49.886719 -0.132812 51.386719 -0.136719 C 52.796875 -0.140625 54.203125 -0.136719 55.613281 -0.132812 C 56.128906 -0.128906 56.644531 -0.128906 57.164062 -0.132812 C 57.867188 -0.132812 58.574219 -0.132812 59.28125 -0.128906 C 59.484375 -0.128906 59.691406 -0.132812 59.898438 -0.132812 C 61.214844 -0.113281 61.949219 0.144531 63 1 C 64.359375 2.539062 64.144531 4.671875 64.132812 6.59375 C 64.132812 6.941406 64.136719 7.289062 64.136719 7.636719 C 64.136719 8.363281 64.136719 9.089844 64.128906 9.808594 C 64.125 10.738281 64.128906 11.664062 64.132812 12.589844 C 64.136719 13.304688 64.136719 14.019531 64.132812 14.738281 C 64.132812 15.078125 64.132812 15.421875 64.136719 15.761719 C 64.136719 16.242188 64.136719 16.714844 64.128906 17.191406 C 64.128906 17.464844 64.128906 17.734375 64.128906 18.015625 C 63.96875 18.929688 63.648438 19.351562 63 20 C 62.289062 20.144531 62.289062 20.144531 61.480469 20.121094 C 61.21875 20.117188 60.957031 20.117188 60.6875 20.113281 C 60.191406 20.09375 60.191406 20.09375 59.6875 20.078125 C 58.636719 20.054688 57.582031 20.027344 56.5 20 C 56.5 24.042969 56.5 28.085938 56.5 32.25 C 53.691406 30.84375 53.691406 30.84375 52.691406 30.253906 C 52.460938 30.121094 52.234375 29.984375 52.003906 29.847656 C 51.765625 29.707031 51.523438 29.566406 51.28125 29.421875 C 48.976562 28.066406 46.664062 26.730469 44.34375 25.40625 C 44.0625 25.246094 43.78125 25.085938 43.492188 24.921875 C 42.945312 24.609375 42.394531 24.296875 41.847656 23.984375 C 40.398438 23.15625 38.949219 22.328125 37.5 21.5 C 37.5 21.417969 37.5 21.335938 37.5 21.25 C 37.804688 21.242188 38.113281 21.238281 38.429688 21.230469 C 39.566406 21.207031 40.703125 21.183594 41.835938 21.15625 C 42.332031 21.144531 42.824219 21.136719 43.316406 21.125 C 44.019531 21.109375 44.726562 21.09375 45.433594 21.078125 C 45.65625 21.074219 45.875 21.070312 46.101562 21.066406 C 46.308594 21.058594 46.511719 21.054688 46.722656 21.050781 C 46.90625 21.046875 47.085938 21.042969 47.269531 21.039062 C 47.804688 21.015625 47.804688 21.015625 48.5 20.75 C 48.5 19.84375 48.5 18.933594 48.5 18 C 47.660156 17.71875 47.058594 17.734375 46.175781 17.753906 C 45.6875 17.761719 45.6875 17.761719 45.1875 17.773438 C 45.015625 17.777344 44.839844 17.78125 44.660156 17.78125 C 43.523438 17.804688 42.386719 17.808594 41.253906 17.8125 C 40.261719 17.816406 39.273438 17.832031 38.28125 17.859375 C 32.886719 17.992188 28.820312 17.644531 24.5 14 C 24.5 13.917969 24.5 13.835938 24.5 13.75 C 24.789062 13.746094 25.082031 13.746094 25.378906 13.742188 C 28.101562 13.71875 30.832031 13.691406 33.554688 13.664062 C 34.957031 13.652344 36.359375 13.636719 37.761719 13.625 C 39.113281 13.613281 40.460938 13.601562 41.816406 13.585938 C 42.332031 13.582031 42.847656 13.578125 43.367188 13.574219 C 44.085938 13.566406 44.808594 13.558594 45.53125 13.550781 C 45.746094 13.550781 45.960938 13.546875 46.179688 13.546875 C 47.015625 13.535156 47.703125 13.515625 48.5 13.25 C 48.5 12.34375 48.5 11.433594 48.5 10.5 C 47.765625 10.253906 47.308594 10.222656 46.542969 10.226562 C 46.296875 10.230469 46.046875 10.234375 45.789062 10.234375 C 45.519531 10.234375 45.246094 10.242188 44.960938 10.242188 C 44.367188 10.246094 43.769531 10.25 43.175781 10.253906 C 42.699219 10.257812 42.699219 10.257812 42.210938 10.261719 C 41.21875 10.269531 40.226562 10.269531 39.230469 10.269531 C 39.058594 10.273438 38.894531 10.273438 38.71875 10.273438 C 38.023438 10.273438 37.332031 10.273438 36.636719 10.273438 C 34.671875 10.277344 32.707031 10.28125 30.742188 10.300781 C 29.179688 10.316406 27.617188 10.320312 26.054688 10.316406 C 25.230469 10.3125 24.40625 10.316406 23.582031 10.332031 C 19.683594 10.386719 16.917969 10.132812 13.6875 7.839844 C 12.851562 7.261719 12.285156 7.082031 11.25 7.25 C 10.820312 7.546875 10.820312 7.546875 10.535156 8.027344 C 10.347656 8.300781 10.347656 8.300781 10.160156 8.582031 C 9.304688 9.976562 8.5 11.398438 7.703125 12.828125 C 7.433594 13.304688 7.171875 13.785156 6.898438 14.261719 C 6.65625 14.691406 6.417969 15.121094 6.179688 15.554688 C 5.816406 16.144531 5.492188 16.53125 5 17 C 4.976562 15.136719 4.957031 13.269531 4.949219 11.40625 C 4.941406 10.539062 4.933594 9.671875 4.925781 8.808594 C 4.910156 7.808594 4.90625 6.816406 4.902344 5.816406 C 4.898438 5.507812 4.894531 5.199219 4.886719 4.878906 C 4.886719 2.148438 4.886719 2.148438 6 1 C 7.261719 -0.03125 8.15625 -0.144531 9.71875 -0.128906 Z M 9.71875 -0.128906 "/>
<path style=" stroke:none;fill-rule:nonzero;fill:rgb(99.607843%,25.882354%,36.470589%);fill-opacity:1;" d="M 12.5 11.5 C 13.371094 11.671875 14.046875 12.015625 14.816406 12.453125 C 15.074219 12.597656 15.328125 12.738281 15.59375 12.890625 C 15.867188 13.046875 16.140625 13.199219 16.421875 13.359375 C 16.703125 13.519531 16.988281 13.675781 17.28125 13.84375 C 18.980469 14.804688 20.671875 15.78125 22.351562 16.773438 C 23.953125 17.726562 25.570312 18.664062 27.1875 19.59375 C 27.460938 19.753906 27.738281 19.914062 28.023438 20.074219 C 29.367188 20.851562 30.714844 21.621094 32.066406 22.390625 C 32.308594 22.527344 32.550781 22.664062 32.800781 22.808594 C 33.257812 23.066406 33.710938 23.324219 34.171875 23.578125 C 34.371094 23.695312 34.574219 23.808594 34.78125 23.925781 C 34.957031 24.023438 35.132812 24.125 35.316406 24.226562 C 35.75 24.5 35.75 24.5 36.25 25 C 36.085938 25 35.921875 25 35.75 25 C 35.675781 25.179688 35.605469 25.359375 35.53125 25.546875 C 35.269531 26.199219 35.011719 26.851562 34.75 27.5 C 35.121094 27.625 35.121094 27.625 35.5 27.75 C 35.765625 29.800781 34.863281 31.101562 33.8125 32.8125 C 33.65625 33.082031 33.496094 33.351562 33.332031 33.628906 C 31.921875 35.984375 31.921875 35.984375 31 36.75 C 30.0625 36.8125 30.0625 36.8125 29.25 36.75 C 28.835938 37.574219 28.425781 38.398438 28 39.25 C 27.6875 39.035156 27.378906 38.824219 27.054688 38.601562 C 25.699219 37.699219 24.289062 36.910156 22.859375 36.125 C 20.484375 34.804688 18.125 33.460938 15.78125 32.085938 C 14.445312 31.300781 13.101562 30.519531 11.757812 29.75 C 11.613281 29.664062 11.464844 29.582031 11.316406 29.496094 C 10.613281 29.09375 9.90625 28.691406 9.203125 28.289062 C 7.679688 27.414062 6.199219 26.5 4.75 25.5 C 5.085938 24.613281 5.476562 23.796875 5.941406 22.972656 C 6.078125 22.726562 6.21875 22.476562 6.359375 22.222656 C 6.511719 21.957031 6.660156 21.695312 6.8125 21.421875 C 6.964844 21.148438 7.121094 20.875 7.277344 20.59375 C 8.808594 17.882812 10.375 15.191406 11.953125 12.507812 C 12.148438 12.175781 12.328125 11.84375 12.5 11.5 Z M 12.5 11.5 "/>
<path style=" stroke:none;fill-rule:nonzero;fill:rgb(99.607843%,41.960785%,41.960785%);fill-opacity:1;" d="M 11.890625 6.898438 C 12.921875 7.019531 13.382812 7.375 14.210938 7.964844 C 17.492188 10.242188 20.675781 10.113281 24.546875 10.035156 C 25.214844 10.035156 25.882812 10.035156 26.554688 10.035156 C 28.121094 10.035156 29.6875 10.023438 31.257812 10.003906 C 34.078125 9.96875 36.894531 9.957031 39.710938 9.949219 C 40.855469 9.945312 42 9.933594 43.144531 9.917969 C 43.742188 9.914062 44.339844 9.910156 44.933594 9.90625 C 45.34375 9.898438 45.34375 9.898438 45.757812 9.890625 C 47.582031 9.886719 47.582031 9.886719 48.417969 10.453125 C 48.910156 11.261719 48.882812 11.820312 48.75 12.75 C 48.378906 13.296875 48.378906 13.296875 47.75 13.75 C 46.988281 13.847656 46.3125 13.890625 45.550781 13.886719 C 45.328125 13.890625 45.105469 13.890625 44.875 13.894531 C 44.140625 13.902344 43.410156 13.902344 42.675781 13.902344 C 42.167969 13.90625 41.660156 13.910156 41.148438 13.914062 C 39.8125 13.925781 38.472656 13.929688 37.136719 13.933594 C 35.769531 13.941406 34.402344 13.949219 33.039062 13.960938 C 30.359375 13.980469 27.679688 13.992188 25 14 C 29.425781 17.578125 33.40625 17.683594 38.816406 17.53125 C 40.382812 17.488281 41.953125 17.480469 43.519531 17.46875 C 44.0625 17.460938 44.605469 17.445312 45.148438 17.433594 C 45.476562 17.425781 45.804688 17.421875 46.140625 17.414062 C 46.429688 17.40625 46.714844 17.398438 47.011719 17.390625 C 47.75 17.5 47.75 17.5 48.34375 17.949219 C 48.933594 18.75 48.890625 19.28125 48.75 20.25 C 48.339844 20.855469 48.015625 21.195312 47.285156 21.34375 C 46.695312 21.390625 46.113281 21.402344 45.519531 21.402344 C 45.304688 21.40625 45.089844 21.410156 44.867188 21.414062 C 44.183594 21.425781 43.5 21.433594 42.8125 21.4375 C 42.347656 21.445312 41.882812 21.453125 41.417969 21.460938 C 40.277344 21.480469 39.140625 21.492188 38 21.5 C 37.132812 23.109375 37.132812 23.109375 36.25 24.75 C 35.148438 24.382812 34.382812 24.078125 33.410156 23.511719 C 33.15625 23.363281 32.902344 23.21875 32.640625 23.066406 C 32.230469 22.820312 32.230469 22.820312 31.8125 22.578125 C 31.523438 22.410156 31.234375 22.238281 30.945312 22.070312 C 30.34375 21.722656 29.742188 21.371094 29.144531 21.023438 C 27.765625 20.21875 26.382812 19.421875 25 18.625 C 23.480469 17.746094 21.957031 16.871094 20.4375 15.988281 C 19.996094 15.734375 19.554688 15.480469 19.117188 15.226562 C 18.570312 14.910156 18.019531 14.59375 17.472656 14.273438 C 15.828125 13.324219 14.171875 12.402344 12.5 11.5 C 12.449219 11.691406 12.398438 11.882812 12.347656 12.078125 C 11.855469 13.382812 11.148438 14.523438 10.4375 15.71875 C 10.285156 15.980469 10.132812 16.238281 9.972656 16.507812 C 9.148438 17.910156 8.316406 19.308594 7.480469 20.703125 C 7.320312 20.972656 7.160156 21.246094 6.992188 21.527344 C 6.679688 22.054688 6.363281 22.578125 6.046875 23.105469 C 5.902344 23.34375 5.765625 23.578125 5.617188 23.824219 C 5.492188 24.035156 5.367188 24.246094 5.238281 24.460938 C 4.917969 25.027344 4.917969 25.027344 5.25 25.75 C 5.722656 26.097656 5.722656 26.097656 6.320312 26.410156 C 6.664062 26.597656 6.664062 26.597656 7.011719 26.792969 C 7.382812 26.996094 7.382812 26.996094 7.765625 27.203125 C 8.296875 27.496094 8.828125 27.792969 9.355469 28.085938 C 9.632812 28.238281 9.902344 28.390625 10.1875 28.542969 C 11.441406 29.246094 12.679688 29.972656 13.921875 30.703125 C 16.152344 32.011719 18.394531 33.300781 20.640625 34.578125 C 23.027344 35.9375 25.40625 37.316406 27.75 38.75 C 27.355469 39.988281 26.847656 41.097656 26.25 42.25 C 24.460938 41.382812 22.742188 40.433594 21.03125 39.421875 C 18.613281 38 16.179688 36.601562 13.742188 35.214844 C 11.582031 33.988281 9.441406 32.730469 7.328125 31.429688 C 6.242188 30.765625 5.171875 30.242188 4 29.75 C 3.429688 29.433594 2.867188 29.105469 2.3125 28.765625 C 1.894531 28.515625 1.894531 28.515625 1.472656 28.257812 C 0.339844 27.460938 0.339844 27.460938 0 26.75 C 0.0898438 25.425781 0.433594 24.515625 1.097656 23.378906 C 1.179688 23.230469 1.265625 23.082031 1.355469 22.929688 C 1.625 22.460938 1.898438 21.996094 2.171875 21.53125 C 2.351562 21.222656 2.527344 20.910156 2.707031 20.597656 C 3.445312 19.328125 4.1875 18.070312 5.015625 16.859375 C 6.152344 15.183594 7.113281 13.390625 8.109375 11.628906 C 10.695312 7.085938 10.695312 7.085938 11.890625 6.898438 Z M 11.890625 6.898438 "/>
<path style=" stroke:none;fill-rule:nonzero;fill:rgb(99.607843%,25.098041%,36.078432%);fill-opacity:1;" d="M 37.75 21.75 C 38.703125 21.894531 39.382812 22.164062 40.203125 22.65625 C 40.441406 22.796875 40.671875 22.933594 40.914062 23.074219 C 41.289062 23.300781 41.289062 23.300781 41.671875 23.53125 C 42.210938 23.851562 42.753906 24.171875 43.296875 24.488281 C 43.574219 24.65625 43.855469 24.824219 44.144531 24.996094 C 45.53125 25.816406 46.929688 26.617188 48.328125 27.421875 C 48.871094 27.734375 49.414062 28.046875 49.960938 28.363281 C 50.21875 28.511719 50.476562 28.660156 50.746094 28.816406 C 51.453125 29.222656 52.164062 29.636719 52.871094 30.046875 C 55.246094 31.433594 55.246094 31.433594 57.65625 32.765625 C 58.875 33.421875 60.070312 34.113281 61.265625 34.8125 C 61.453125 34.921875 61.640625 35.03125 61.835938 35.140625 C 62.101562 35.300781 62.101562 35.300781 62.367188 35.457031 C 62.523438 35.550781 62.683594 35.640625 62.847656 35.738281 C 63.25 36 63.25 36 63.75 36.5 C 64.039062 38.453125 63.210938 39.710938 62.234375 41.359375 C 62.078125 41.632812 61.921875 41.902344 61.761719 42.183594 C 61.261719 43.042969 60.757812 43.898438 60.25 44.75 C 60.089844 45.019531 59.929688 45.289062 59.765625 45.570312 C 58.835938 47.136719 57.894531 48.699219 56.949219 50.253906 C 56.503906 50.992188 56.0625 51.734375 55.621094 52.476562 C 55.484375 52.707031 55.351562 52.941406 55.207031 53.175781 C 54.953125 53.609375 54.695312 54.042969 54.441406 54.476562 C 54.328125 54.664062 54.214844 54.855469 54.097656 55.050781 C 54 55.21875 53.902344 55.386719 53.800781 55.554688 C 53.269531 56.339844 52.960938 56.707031 52.011719 56.898438 C 50.53125 56.828125 49.277344 55.859375 48.046875 55.109375 C 47.761719 54.941406 47.472656 54.765625 47.183594 54.601562 C 46.585938 54.246094 45.992188 53.890625 45.398438 53.53125 C 43.988281 52.691406 42.5625 51.878906 41.140625 51.0625 C 40.644531 50.777344 40.152344 50.492188 39.65625 50.207031 C 39.390625 50.0625 39.128906 49.917969 38.859375 49.765625 C 38.222656 49.40625 37.667969 48.992188 37.097656 48.53125 C 33.21875 45.605469 28.578125 46.171875 23.957031 46.265625 C 22.171875 46.300781 20.386719 46.316406 18.601562 46.324219 C 17.984375 46.328125 17.363281 46.34375 16.742188 46.359375 C 16.363281 46.363281 15.984375 46.367188 15.609375 46.371094 C 15.113281 46.378906 15.113281 46.378906 14.609375 46.390625 C 13.523438 46.210938 13.15625 45.867188 12.5 45 C 12.484375 44.09375 12.484375 44.09375 12.75 43.25 C 13.488281 42.539062 14.003906 42.40625 15.011719 42.414062 C 15.261719 42.414062 15.511719 42.414062 15.769531 42.414062 C 16.171875 42.421875 16.171875 42.421875 16.582031 42.425781 C 16.859375 42.425781 17.136719 42.429688 17.417969 42.429688 C 18.300781 42.433594 19.179688 42.441406 20.0625 42.453125 C 20.660156 42.457031 21.257812 42.460938 21.855469 42.460938 C 23.320312 42.472656 24.785156 42.484375 26.25 42.5 C 26.289062 42.261719 26.324219 42.027344 26.363281 41.78125 C 26.546875 40.734375 26.910156 40.136719 27.5 39.25 C 28.25 39 28.25 39 28.882812 39.28125 C 29.132812 39.429688 29.386719 39.578125 29.640625 39.726562 C 29.925781 39.890625 30.207031 40.054688 30.5 40.222656 C 30.808594 40.402344 31.113281 40.585938 31.421875 40.765625 C 31.738281 40.949219 32.058594 41.136719 32.378906 41.320312 C 33.183594 41.789062 33.988281 42.261719 34.796875 42.734375 C 35.464844 43.125 36.132812 43.515625 36.800781 43.90625 C 37.523438 44.328125 38.246094 44.75 38.972656 45.171875 C 41.253906 46.507812 43.546875 47.816406 45.847656 49.125 C 47.335938 49.972656 48.816406 50.832031 50.269531 51.738281 C 50.734375 52.039062 50.734375 52.039062 51.25 52 C 51.351562 51.824219 51.453125 51.644531 51.558594 51.460938 C 54.027344 47.132812 56.507812 42.8125 59 38.5 C 58.148438 37.789062 57.292969 37.203125 56.324219 36.660156 C 56.046875 36.5 55.765625 36.34375 55.484375 36.179688 C 55.261719 36.058594 55.261719 36.058594 55.035156 35.929688 C 54.40625 35.578125 53.78125 35.21875 53.15625 34.863281 C 52.828125 34.679688 52.507812 34.496094 52.183594 34.3125 C 50.609375 33.421875 49.039062 32.515625 47.46875 31.609375 C 46.9375 31.300781 46.40625 30.996094 45.878906 30.691406 C 45.613281 30.539062 45.347656 30.386719 45.078125 30.226562 C 44.351562 29.808594 43.628906 29.390625 42.90625 28.976562 C 42.308594 28.636719 41.710938 28.292969 41.117188 27.949219 C 40.699219 27.710938 40.28125 27.46875 39.863281 27.230469 C 38.628906 26.523438 37.417969 25.808594 36.25 25 C 36.371094 23.710938 37.046875 22.796875 37.75 21.75 Z M 37.75 21.75 "/>
<path style=" stroke:none;fill-rule:nonzero;fill:rgb(87.450981%,86.666667%,95.686275%);fill-opacity:1;" d="M 30.75 46.25 C 33.5625 46.25 33.5625 46.25 34.816406 47.003906 C 35.09375 47.164062 35.367188 47.328125 35.65625 47.496094 C 35.949219 47.671875 36.238281 47.851562 36.53125 48.03125 C 36.839844 48.214844 37.148438 48.398438 37.457031 48.578125 C 38.085938 48.953125 38.714844 49.328125 39.339844 49.703125 C 40.679688 50.511719 42.039062 51.292969 43.390625 52.078125 C 44.804688 52.898438 46.21875 53.726562 47.617188 54.578125 C 47.832031 54.707031 48.046875 54.835938 48.269531 54.96875 C 48.671875 55.210938 49.066406 55.453125 49.460938 55.699219 C 50.578125 56.367188 51.414062 56.75 52.75 56.5 C 53.753906 55.574219 54.371094 54.226562 55.046875 53.046875 C 55.265625 52.660156 55.488281 52.273438 55.714844 51.886719 C 55.808594 51.714844 55.90625 51.546875 56.007812 51.371094 C 56.128906 51.1875 56.128906 51.1875 56.25 51 C 56.332031 51 56.414062 51 56.5 51 C 56.523438 52.648438 56.542969 54.300781 56.554688 55.953125 C 56.558594 56.511719 56.566406 57.074219 56.574219 57.636719 C 56.585938 58.441406 56.59375 59.25 56.597656 60.058594 C 56.601562 60.308594 56.609375 60.558594 56.613281 60.816406 C 56.613281 61.171875 56.613281 61.171875 56.613281 61.53125 C 56.613281 61.734375 56.617188 61.941406 56.621094 62.152344 C 56.441406 63.039062 56.183594 63.40625 55.5 64 C 54.703125 64.179688 53.925781 64.15625 53.113281 64.140625 C 52.753906 64.140625 52.753906 64.140625 52.382812 64.140625 C 51.585938 64.140625 50.789062 64.132812 49.988281 64.121094 C 49.433594 64.121094 48.882812 64.117188 48.328125 64.117188 C 46.871094 64.113281 45.414062 64.101562 43.957031 64.085938 C 42.210938 64.070312 40.460938 64.066406 38.714844 64.058594 C 36.058594 64.046875 33.40625 64.023438 30.75 64 C 30.75 58.140625 30.75 52.285156 30.75 46.25 Z M 30.75 46.25 "/>
<path style=" stroke:none;fill-rule:nonzero;fill:rgb(100%,95.686275%,95.686275%);fill-opacity:1;" d="M 9.804688 -0.113281 C 10.03125 -0.113281 10.257812 -0.113281 10.492188 -0.113281 C 11.238281 -0.113281 11.984375 -0.105469 12.730469 -0.0976562 C 13.253906 -0.0976562 13.769531 -0.09375 14.289062 -0.09375 C 15.65625 -0.0898438 17.015625 -0.078125 18.378906 -0.0703125 C 19.773438 -0.0585938 21.167969 -0.0546875 22.558594 -0.046875 C 25.289062 -0.0390625 28.019531 -0.0195312 30.75 0 C 30.75 3.300781 30.75 6.597656 30.75 10 C 28.949219 10.0625 27.152344 10.117188 25.347656 10.152344 C 24.738281 10.164062 24.128906 10.183594 23.519531 10.207031 C 19.628906 10.355469 16.914062 10.136719 13.691406 7.847656 C 13.027344 7.386719 12.742188 7.25 11.917969 7.117188 C 11.144531 7.269531 10.96875 7.382812 10.535156 8.027344 C 10.347656 8.300781 10.347656 8.300781 10.160156 8.582031 C 9.304688 9.976562 8.5 11.398438 7.703125 12.828125 C 7.4375 13.304688 7.167969 13.785156 6.898438 14.261719 C 6.660156 14.691406 6.417969 15.125 6.179688 15.554688 C 5.816406 16.140625 5.492188 16.53125 5 17 C 4.976562 15.136719 4.960938 13.269531 4.945312 11.40625 C 4.941406 10.539062 4.9375 9.675781 4.925781 8.808594 C 4.910156 7.8125 4.90625 6.8125 4.902344 5.820312 C 4.898438 5.507812 4.890625 5.199219 4.886719 4.882812 C 4.886719 2.144531 4.886719 2.144531 6 1 C 7.28125 -0.0585938 8.214844 -0.140625 9.804688 -0.113281 Z M 9.804688 -0.113281 "/>
<path style=" stroke:none;fill-rule:nonzero;fill:rgb(82.352942%,81.568629%,94.901961%);fill-opacity:1;" d="M 62.328125 0.375 C 63.683594 1.636719 64.054688 2.851562 64.128906 4.652344 C 64.136719 5.300781 64.136719 5.949219 64.132812 6.597656 C 64.132812 6.945312 64.136719 7.289062 64.136719 7.636719 C 64.136719 8.363281 64.136719 9.085938 64.128906 9.8125 C 64.125 10.738281 64.128906 11.664062 64.132812 12.589844 C 64.136719 13.304688 64.136719 14.023438 64.132812 14.738281 C 64.132812 15.078125 64.132812 15.421875 64.136719 15.761719 C 64.136719 16.238281 64.132812 16.71875 64.128906 17.195312 C 64.128906 17.601562 64.128906 17.601562 64.128906 18.015625 C 63.964844 18.953125 63.703125 19.363281 63 20 C 62.265625 20.140625 62.265625 20.140625 61.425781 20.121094 C 61.125 20.117188 60.824219 20.113281 60.511719 20.109375 C 60.199219 20.101562 59.886719 20.089844 59.5625 20.078125 C 59.246094 20.074219 58.929688 20.066406 58.601562 20.058594 C 57.816406 20.046875 57.03125 20.023438 56.25 20 C 56.234375 17.847656 56.21875 15.691406 56.210938 13.539062 C 56.207031 12.539062 56.203125 11.539062 56.191406 10.539062 C 56.1875 9.574219 56.179688 8.605469 56.179688 7.640625 C 56.179688 7.273438 56.175781 6.90625 56.171875 6.539062 C 56.164062 6.019531 56.164062 5.503906 56.164062 4.988281 C 56.164062 4.691406 56.160156 4.398438 56.160156 4.097656 C 56.28125 2.953125 56.609375 1.953125 57.375 1.066406 C 58.9375 -0.113281 60.511719 -0.449219 62.328125 0.375 Z M 62.328125 0.375 "/>
<path style=" stroke:none;fill-rule:nonzero;fill:rgb(27.058825%,23.921569%,51.372552%);fill-opacity:1;" d="M 18 10 C 21.863281 9.976562 25.722656 9.960938 29.585938 9.949219 C 31.378906 9.941406 33.171875 9.933594 34.964844 9.925781 C 36.527344 9.914062 38.089844 9.90625 39.652344 9.90625 C 40.480469 9.90625 41.308594 9.898438 42.136719 9.894531 C 43.058594 9.886719 43.984375 9.886719 44.90625 9.886719 C 45.179688 9.882812 45.453125 9.878906 45.738281 9.875 C 45.988281 9.878906 46.238281 9.878906 46.5 9.878906 C 46.71875 9.878906 46.9375 9.878906 47.164062 9.878906 C 47.953125 10.042969 48.253906 10.371094 48.75 11 C 48.886719 11.949219 48.925781 12.492188 48.378906 13.296875 C 47.480469 13.945312 46.621094 13.910156 45.550781 13.921875 C 45.21875 13.925781 45.21875 13.925781 44.878906 13.9375 C 44.140625 13.953125 43.40625 13.960938 42.667969 13.96875 C 42.414062 13.976562 42.160156 13.976562 41.898438 13.980469 C 40.550781 14 39.203125 14.011719 37.859375 14.015625 C 36.753906 14.023438 35.648438 14.042969 34.546875 14.070312 C 22.90625 14.351562 22.90625 14.351562 18.359375 10.59375 C 18.238281 10.484375 18.121094 10.367188 18 10.25 C 18 10.167969 18 10.085938 18 10 Z M 18 10 "/>
<path style=" stroke:none;fill-rule:nonzero;fill:rgb(87.058824%,85.09804%,94.509804%);fill-opacity:1;" d="M 49.492188 35.832031 C 51.175781 36.386719 52.492188 37.582031 53.5 39 C 54.015625 40.542969 53.90625 41.84375 53.203125 43.3125 C 52.667969 44.28125 52.101562 45.027344 51.25 45.75 C 51.078125 45.894531 50.910156 46.039062 50.734375 46.1875 C 49.640625 46.894531 48.257812 46.980469 47 46.75 C 45.648438 46.128906 44.335938 45.503906 43.5 44.25 C 43.570312 43.058594 43.976562 42.222656 44.566406 41.199219 C 44.648438 41.058594 44.730469 40.917969 44.816406 40.773438 C 44.984375 40.476562 45.15625 40.179688 45.328125 39.886719 C 45.59375 39.4375 45.855469 38.984375 46.113281 38.53125 C 47.855469 35.539062 47.855469 35.539062 49.492188 35.832031 Z M 49.492188 35.832031 "/>
<path style=" stroke:none;fill-rule:nonzero;fill:rgb(100%,94.117647%,94.509804%);fill-opacity:1;" d="M 14.335938 15.652344 C 15.175781 15.777344 15.679688 16.082031 16.390625 16.546875 C 16.621094 16.695312 16.855469 16.84375 17.09375 16.996094 C 18.476562 18.058594 19.136719 19.179688 19.375 20.890625 C 19.328125 22.542969 18.421875 24.21875 17.359375 25.453125 C 16.046875 26.601562 14.679688 26.886719 12.984375 26.863281 C 11.71875 26.667969 10.75 26.019531 9.75 25.25 C 9.597656 25.144531 9.445312 25.039062 9.289062 24.933594 C 9 24.5 9 24.5 9.054688 23.691406 C 9.257812 22.714844 9.550781 22.089844 10.066406 21.238281 C 10.234375 20.964844 10.398438 20.691406 10.566406 20.410156 C 10.742188 20.128906 10.914062 19.851562 11.09375 19.5625 C 11.265625 19.277344 11.441406 18.988281 11.613281 18.703125 C 13.375 15.8125 13.375 15.8125 14.335938 15.652344 Z M 14.335938 15.652344 "/>
<path style=" stroke:none;fill-rule:nonzero;fill:rgb(99.607843%,94.509804%,94.509804%);fill-opacity:1;" d="M 29.625 24.640625 C 30.5 24.75 30.5 24.75 30.921875 25.144531 C 31.363281 25.957031 31.371094 26.625 31.40625 27.546875 C 31.355469 28.601562 31.355469 28.601562 31.75 29.5 C 31.835938 29.359375 31.925781 29.21875 32.015625 29.070312 C 32.128906 28.886719 32.242188 28.707031 32.359375 28.515625 C 32.472656 28.332031 32.585938 28.152344 32.703125 27.964844 C 33 27.5 33 27.5 33.25 27.25 C 34.257812 27.183594 34.640625 27.175781 35.5 27.75 C 35.863281 29.761719 34.835938 31.144531 33.8125 32.8125 C 33.65625 33.082031 33.496094 33.351562 33.332031 33.628906 C 31.914062 35.992188 31.914062 35.992188 31 36.75 C 30.09375 36.734375 30.09375 36.734375 29.25 36.5 C 28.640625 35.585938 28.582031 34.765625 28.46875 33.703125 C 28.449219 33.515625 28.425781 33.328125 28.402344 33.136719 C 28.351562 32.671875 28.300781 32.214844 28.25 31.75 C 28.160156 31.910156 28.066406 32.066406 27.976562 32.234375 C 26.949219 33.914062 26.949219 33.914062 25.96875 34.328125 C 25.25 34.25 25.25 34.25 24.640625 33.875 C 24.207031 33.183594 24.1875 32.851562 24.324219 32.0625 C 24.734375 30.753906 25.515625 29.601562 26.21875 28.4375 C 26.378906 28.164062 26.539062 27.894531 26.703125 27.613281 C 28.371094 24.796875 28.371094 24.796875 29.625 24.640625 Z M 29.625 24.640625 "/>
<path style=" stroke:none;fill-rule:nonzero;fill:rgb(37.64706%,33.333334%,68.627453%);fill-opacity:1;" d="M 14.960938 42.359375 C 15.203125 42.347656 15.445312 42.335938 15.691406 42.328125 C 15.953125 42.320312 16.210938 42.3125 16.480469 42.304688 C 16.75 42.292969 17.023438 42.285156 17.300781 42.277344 C 18.183594 42.257812 19.058594 42.246094 19.9375 42.234375 C 20.234375 42.230469 20.527344 42.226562 20.835938 42.222656 C 25.425781 42.195312 28.820312 42.558594 32.40625 45.648438 C 32.75 46 32.75 46 32.75 46.25 C 30.292969 46.28125 27.839844 46.300781 25.382812 46.3125 C 24.242188 46.320312 23.101562 46.328125 21.960938 46.34375 C 20.863281 46.355469 19.761719 46.363281 18.660156 46.371094 C 18.238281 46.371094 17.820312 46.375 17.402344 46.382812 C 16.8125 46.390625 16.222656 46.390625 15.636719 46.390625 C 15.460938 46.398438 15.289062 46.402344 15.113281 46.40625 C 14.160156 46.394531 13.765625 46.261719 13.007812 45.671875 C 12.5 45 12.5 45 12.484375 44.09375 C 12.902344 42.765625 13.609375 42.417969 14.960938 42.359375 Z M 14.960938 42.359375 "/>
<path style=" stroke:none;fill-rule:nonzero;fill:rgb(37.64706%,33.725491%,68.627453%);fill-opacity:1;" d="M 15.21875 49.898438 C 15.664062 49.894531 15.664062 49.894531 16.117188 49.890625 C 16.59375 49.890625 16.59375 49.890625 17.085938 49.890625 C 17.414062 49.890625 17.742188 49.890625 18.082031 49.886719 C 18.777344 49.886719 19.46875 49.886719 20.164062 49.890625 C 21.054688 49.890625 21.941406 49.886719 22.832031 49.878906 C 23.679688 49.875 24.53125 49.875 25.378906 49.875 C 25.699219 49.875 26.019531 49.871094 26.347656 49.867188 C 26.644531 49.867188 26.941406 49.871094 27.25 49.875 C 27.507812 49.875 27.769531 49.875 28.039062 49.875 C 28.941406 50.035156 29.359375 50.351562 30 51 C 30.15625 51.875 30.15625 51.875 30 52.75 C 29.109375 53.648438 28.503906 53.875 27.25 53.882812 C 26.957031 53.886719 26.65625 53.890625 26.351562 53.898438 C 26.035156 53.894531 25.71875 53.894531 25.390625 53.890625 C 25.0625 53.894531 24.734375 53.894531 24.394531 53.898438 C 23.703125 53.898438 23.007812 53.898438 22.316406 53.894531 C 21.429688 53.890625 20.542969 53.898438 19.65625 53.902344 C 18.804688 53.910156 17.957031 53.910156 17.109375 53.90625 C 16.789062 53.910156 16.472656 53.914062 16.144531 53.917969 C 13.699219 53.890625 13.699219 53.890625 12.914062 53.171875 C 12.5 52.5 12.5 52.5 12.484375 51.59375 C 12.949219 50.117188 13.75 49.90625 15.21875 49.898438 Z M 15.21875 49.898438 "/>
<path style=" stroke:none;fill-rule:nonzero;fill:rgb(87.058824%,84.705883%,94.509804%);fill-opacity:1;" d="M 42.21875 31.726562 C 43.117188 32.042969 43.898438 32.425781 44.71875 32.90625 C 44.867188 32.984375 45.015625 33.066406 45.167969 33.148438 C 45.589844 33.398438 45.589844 33.398438 46.25 34 C 46.359375 34.882812 46.421875 35.457031 45.96875 36.234375 C 45.269531 36.632812 44.796875 36.59375 44 36.5 C 43.15625 36.125 43.15625 36.125 42.5 35.75 C 42.917969 36.1875 43.269531 36.507812 43.796875 36.8125 C 44.25 37.25 44.25 37.25 44.375 38.125 C 44.25 39 44.25 39 43.84375 39.5 C 43.042969 39.835938 42.582031 39.726562 41.75 39.5 C 41.15625 39.234375 41.15625 39.234375 40.75 39 C 40.667969 39.164062 40.585938 39.328125 40.5 39.5 C 40.785156 39.605469 40.785156 39.605469 41.078125 39.71875 C 41.75 40 41.75 40 42.5 40.5 C 42.59375 41.355469 42.65625 41.976562 42.21875 42.734375 C 41.53125 43.125 41.03125 43.066406 40.25 43 C 39.527344 42.644531 39.527344 42.644531 38.828125 42.171875 C 38.59375 42.015625 38.363281 41.863281 38.125 41.707031 C 37.074219 40.9375 37.074219 40.9375 36.75 40.5 C 36.628906 39.414062 36.921875 38.796875 37.46875 37.867188 C 37.625 37.605469 37.777344 37.347656 37.933594 37.078125 C 38.09375 36.8125 38.253906 36.542969 38.421875 36.265625 C 38.578125 35.996094 38.734375 35.730469 38.894531 35.453125 C 41.078125 31.765625 41.078125 31.765625 42.21875 31.726562 Z M 42.21875 31.726562 "/>
<path style=" stroke:none;fill-rule:nonzero;fill:rgb(100%,94.509804%,94.509804%);fill-opacity:1;" d="M 22.714844 20.617188 C 23.652344 20.773438 24.253906 21.097656 25.0625 21.59375 C 25.453125 21.828125 25.453125 21.828125 25.847656 22.070312 C 26.5 22.5 26.5 22.5 27 23 C 27.09375 23.859375 27.09375 23.859375 27 24.75 C 26.59375 25.25 26.59375 25.25 26 25.5 C 25 25.4375 24.164062 25.152344 23.25 24.75 C 23.445312 24.902344 23.640625 25.058594 23.84375 25.21875 C 24.5 25.75 24.5 25.75 25 26.25 C 24.886719 27.863281 24.886719 27.863281 24.25 28.5 C 23.039062 28.636719 22.296875 28.347656 21.25 27.75 C 21.703125 28.230469 22.113281 28.574219 22.671875 28.9375 C 23.25 29.5 23.25 29.5 23.359375 30.40625 C 23.25 31.25 23.25 31.25 22.75 31.75 C 21.105469 32.070312 20.03125 31.285156 18.640625 30.457031 C 18 30 18 30 17.5 29.25 C 17.355469 28.160156 17.679688 27.539062 18.230469 26.609375 C 18.386719 26.347656 18.539062 26.085938 18.695312 25.820312 C 18.855469 25.550781 19.019531 25.277344 19.1875 25 C 19.34375 24.730469 19.503906 24.460938 19.667969 24.179688 C 21.664062 20.8125 21.664062 20.8125 22.714844 20.617188 Z M 22.714844 20.617188 "/>
<path style=" stroke:none;fill-rule:nonzero;fill:rgb(27.450982%,23.921569%,51.372552%);fill-opacity:1;" d="M 31 17.5 C 33.167969 17.476562 35.332031 17.460938 37.5 17.449219 C 38.503906 17.441406 39.511719 17.433594 40.515625 17.425781 C 41.488281 17.414062 42.460938 17.40625 43.429688 17.40625 C 43.800781 17.402344 44.171875 17.398438 44.542969 17.394531 C 45.058594 17.386719 45.578125 17.386719 46.101562 17.386719 C 46.394531 17.386719 46.691406 17.382812 46.996094 17.378906 C 47.910156 17.523438 48.203125 17.761719 48.75 18.5 C 48.886719 19.441406 48.925781 19.988281 48.382812 20.789062 C 47.457031 21.460938 46.628906 21.441406 45.511719 21.46875 C 45.289062 21.480469 45.070312 21.488281 44.839844 21.496094 C 44.121094 21.515625 43.40625 21.523438 42.6875 21.53125 C 42.445312 21.535156 42.203125 21.539062 41.953125 21.539062 C 37.609375 21.5625 34.300781 20.789062 31 17.75 C 31 17.667969 31 17.585938 31 17.5 Z M 31 17.5 "/>
<path style=" stroke:none;fill-rule:nonzero;fill:rgb(37.64706%,33.333334%,68.235296%);fill-opacity:1;" d="M 18 10 C 22.207031 10 26.414062 10 30.75 10 C 30.75 11.238281 30.75 12.476562 30.75 13.75 C 25.632812 14.246094 22.101562 13.480469 18 10.25 C 18 10.167969 18 10.085938 18 10 Z M 18 10 "/>
<path style=" stroke:none;fill-rule:nonzero;fill:rgb(87.058824%,84.313726%,94.117647%);fill-opacity:1;" d="M 38.109375 29.390625 C 38.75 29.5 38.75 29.5 39.34375 29.90625 C 39.75 30.5 39.75 30.5 39.703125 31.191406 C 39.476562 32.089844 39.140625 32.75 38.671875 33.550781 C 38.59375 33.691406 38.507812 33.832031 38.425781 33.976562 C 38.253906 34.273438 38.078125 34.566406 37.90625 34.863281 C 37.640625 35.3125 37.375 35.765625 37.113281 36.21875 C 35.828125 38.421875 35.828125 38.421875 35.25 39 C 33.757812 39.136719 33.757812 39.136719 33 38.734375 C 32.597656 37.957031 32.828125 37.339844 33 36.5 C 33.363281 35.742188 33.363281 35.742188 33.820312 34.988281 C 33.984375 34.714844 34.148438 34.441406 34.320312 34.160156 C 34.492188 33.878906 34.664062 33.601562 34.84375 33.3125 C 35.015625 33.027344 35.1875 32.738281 35.363281 32.453125 C 37.121094 29.566406 37.121094 29.566406 38.109375 29.390625 Z M 38.109375 29.390625 "/>
<path style=" stroke:none;fill-rule:nonzero;fill:rgb(87.450981%,85.490197%,94.509804%);fill-opacity:1;" d="M 34.5 27.25 C 34.828125 27.414062 35.160156 27.578125 35.5 27.75 C 35.765625 29.800781 34.863281 31.101562 33.8125 32.8125 C 33.65625 33.082031 33.496094 33.351562 33.332031 33.628906 C 31.90625 36.011719 31.90625 36.011719 31 36.75 C 30.0625 36.6875 30.0625 36.6875 29.25 36.5 C 29.359375 36.316406 29.460938 36.128906 29.574219 35.9375 C 31.226562 33.046875 32.863281 30.148438 34.5 27.25 Z M 34.5 27.25 "/>
<path style=" stroke:none;fill-rule:nonzero;fill:rgb(100%,94.901961%,94.901961%);fill-opacity:1;" d="M 24.5 13.75 C 26.5625 13.75 28.625 13.75 30.75 13.75 C 30.75 14.988281 30.75 16.226562 30.75 17.5 C 30.230469 17.199219 29.707031 16.902344 29.171875 16.59375 C 27.625 15.707031 26.066406 14.84375 24.5 14 C 24.5 13.917969 24.5 13.835938 24.5 13.75 Z M 24.5 13.75 "/>
<path style=" stroke:none;fill-rule:nonzero;fill:rgb(81.568629%,4.313726%,34.117648%);fill-opacity:1;" d="M 49.25 39.5 C 50.21875 39.96875 50.21875 39.96875 50.5 40.25 C 50.613281 41.234375 50.535156 41.6875 50.046875 42.5625 C 49.5 43.25 49.5 43.25 48.75 43.75 C 48.09375 43.6875 48.09375 43.6875 47.5 43.5 C 47.417969 43.335938 47.335938 43.171875 47.25 43 C 47.558594 42.386719 47.882812 41.808594 48.234375 41.21875 C 48.378906 40.972656 48.378906 40.972656 48.527344 40.71875 C 48.765625 40.3125 49.007812 39.90625 49.25 39.5 Z M 49.25 39.5 "/>
<path style=" stroke:none;fill-rule:nonzero;fill:rgb(100%,28.235295%,38.82353%);fill-opacity:1;" d="M 14.75 19.5 C 15.71875 19.96875 15.71875 19.96875 16 20.25 C 16.113281 21.234375 16.035156 21.6875 15.546875 22.5625 C 15 23.25 15 23.25 14.25 23.75 C 13.453125 23.65625 13.453125 23.65625 12.75 23.5 C 13.109375 22.550781 13.539062 21.683594 14.03125 20.796875 C 14.164062 20.550781 14.300781 20.308594 14.441406 20.058594 C 14.542969 19.871094 14.644531 19.691406 14.75 19.5 Z M 14.75 19.5 "/>
<path style=" stroke:none;fill-rule:nonzero;fill:rgb(30.588236%,24.705882%,51.764709%);fill-opacity:1;" d="M 30.75 45 C 31.738281 45.496094 31.738281 45.496094 32.75 46 C 32.75 46.082031 32.75 46.164062 32.75 46.25 C 32.089844 46.25 31.429688 46.25 30.75 46.25 C 30.75 45.835938 30.75 45.425781 30.75 45 Z M 30.75 45 "/>
<path style=" stroke:none;fill-rule:nonzero;fill:rgb(81.960785%,8.627451%,37.254903%);fill-opacity:1;" d="M 42.5 35.75 C 43.117188 35.875 43.117188 35.875 43.75 36 C 43.832031 36.328125 43.914062 36.660156 44 37 C 43.503906 36.753906 43.011719 36.503906 42.5 36.25 C 42.5 36.085938 42.5 35.921875 42.5 35.75 Z M 42.5 35.75 "/>
</g>
</svg>
