<?xml version="1.0" encoding="UTF-8"?>
<svg xmlns="http://www.w3.org/2000/svg" xmlns:xlink="http://www.w3.org/1999/xlink" width="64" height="64" viewBox="0 0 64 64" version="1.1">
<g id="surface1">
<path style=" stroke:none;fill-rule:nonzero;fill:rgb(1.568628%,1.568628%,1.568628%);fill-opacity:1;" d="M 47.25 4 C 47.332031 4.414062 47.414062 4.824219 47.5 5.25 C 47.769531 5.246094 48.039062 5.242188 48.316406 5.238281 C 49.324219 5.226562 50.335938 5.214844 51.34375 5.210938 C 51.777344 5.203125 52.210938 5.199219 52.648438 5.191406 C 53.273438 5.183594 53.902344 5.179688 54.53125 5.175781 C 54.820312 5.171875 54.820312 5.171875 55.113281 5.164062 C 56.484375 5.164062 57.496094 5.429688 58.75 6 C 59.96875 7.246094 60.3125 8.234375 60.316406 9.960938 C 60.316406 10.132812 60.320312 10.304688 60.320312 10.484375 C 60.324219 11.058594 60.324219 11.636719 60.324219 12.210938 C 60.324219 12.621094 60.324219 13.039062 60.328125 13.449219 C 60.332031 14.574219 60.332031 15.695312 60.332031 16.816406 C 60.335938 17.515625 60.335938 18.21875 60.335938 18.921875 C 60.339844 21.371094 60.34375 23.816406 60.34375 26.265625 C 60.34375 28.546875 60.347656 30.828125 60.355469 33.109375 C 60.363281 35.066406 60.363281 37.027344 60.363281 38.984375 C 60.363281 40.15625 60.363281 41.324219 60.371094 42.496094 C 60.375 43.59375 60.375 44.695312 60.371094 45.796875 C 60.371094 46.199219 60.371094 46.601562 60.375 47.003906 C 60.402344 50.824219 60.402344 50.824219 59.25 52.5 C 57.753906 53.746094 56.257812 53.632812 54.375 53.597656 C 54.078125 53.59375 53.78125 53.59375 53.476562 53.59375 C 52.53125 53.585938 51.585938 53.574219 50.640625 53.5625 C 49.996094 53.558594 49.355469 53.550781 48.710938 53.550781 C 47.140625 53.539062 45.570312 53.519531 44 53.5 C 43.933594 53.671875 43.871094 53.84375 43.808594 54.015625 C 43.453125 54.863281 43.03125 55.648438 42.59375 56.453125 C 42.511719 56.601562 42.433594 56.753906 42.347656 56.90625 C 42.148438 57.269531 41.949219 57.636719 41.75 58 C 41.449219 58 41.144531 58 40.835938 58 C 37.984375 57.996094 35.136719 58.003906 32.28125 58.019531 C 30.816406 58.027344 29.351562 58.03125 27.886719 58.03125 C 26.472656 58.027344 25.058594 58.035156 23.640625 58.046875 C 23.101562 58.046875 22.566406 58.046875 22.023438 58.046875 C 21.265625 58.042969 20.511719 58.046875 19.753906 58.058594 C 19.53125 58.050781 19.3125 58.050781 19.085938 58.046875 C 17.574219 58.078125 16.691406 58.484375 15.488281 59.394531 C 14.054688 60.441406 12.199219 60.433594 10.5 60.25 C 8.105469 59.675781 6.230469 58.617188 4.90625 56.515625 C 3.761719 54.421875 3.40625 52.398438 3.894531 50.050781 C 4.5625 47.898438 5.960938 46.011719 7.9375 44.875 C 10.085938 43.976562 12.546875 43.691406 14.75 44.5 C 15.078125 44.753906 15.40625 45.007812 15.734375 45.265625 C 17.636719 46.425781 19.804688 46.175781 21.960938 46.136719 C 22.757812 46.121094 23.558594 46.117188 24.355469 46.117188 C 26.625 46.109375 28.894531 46.085938 31.164062 46.054688 C 32.554688 46.039062 33.949219 46.03125 35.339844 46.03125 C 35.867188 46.03125 36.398438 46.023438 36.925781 46.011719 C 41.042969 45.925781 41.042969 45.925781 42.128906 46.695312 C 42.539062 47.289062 42.769531 47.816406 43 48.5 C 43.195312 48.882812 43.390625 49.261719 43.59375 49.640625 C 43.796875 50.066406 43.796875 50.066406 44 50.5 C 45.808594 50.519531 47.613281 50.53125 49.421875 50.539062 C 50.035156 50.546875 50.648438 50.550781 51.265625 50.558594 C 52.148438 50.566406 53.03125 50.570312 53.914062 50.574219 C 54.1875 50.578125 54.464844 50.578125 54.75 50.585938 C 55.132812 50.585938 55.132812 50.585938 55.523438 50.585938 C 55.746094 50.585938 55.972656 50.585938 56.203125 50.589844 C 56.386719 50.558594 56.566406 50.53125 56.75 50.5 C 57.351562 49.601562 57.3125 49.199219 57.3125 48.128906 C 57.316406 47.960938 57.316406 47.796875 57.316406 47.625 C 57.316406 47.070312 57.316406 46.515625 57.316406 45.960938 C 57.316406 45.558594 57.316406 45.164062 57.316406 44.765625 C 57.320312 43.683594 57.316406 42.601562 57.316406 41.519531 C 57.316406 40.390625 57.316406 39.261719 57.316406 38.128906 C 57.320312 36.230469 57.316406 34.328125 57.316406 32.429688 C 57.3125 30.234375 57.3125 28.039062 57.316406 25.839844 C 57.316406 23.953125 57.316406 22.070312 57.316406 20.183594 C 57.316406 19.058594 57.316406 17.933594 57.316406 16.808594 C 57.320312 15.746094 57.316406 14.691406 57.316406 13.628906 C 57.316406 13.242188 57.316406 12.851562 57.316406 12.460938 C 57.316406 11.933594 57.316406 11.402344 57.3125 10.871094 C 57.3125 10.574219 57.3125 10.277344 57.3125 9.972656 C 57.304688 9.199219 57.304688 9.199219 56.75 8.5 C 56.042969 8.414062 55.386719 8.378906 54.675781 8.371094 C 54.472656 8.367188 54.265625 8.363281 54.058594 8.359375 C 53.402344 8.34375 52.746094 8.335938 52.09375 8.328125 C 51.648438 8.320312 51.207031 8.308594 50.761719 8.300781 C 49.675781 8.28125 48.585938 8.265625 47.5 8.25 C 47.335938 8.746094 47.171875 9.238281 47 9.75 C 45.683594 9.621094 44.699219 9.316406 43.53125 8.703125 C 43.246094 8.558594 42.964844 8.417969 42.675781 8.269531 C 42 7.75 42 7.75 41.78125 6.941406 C 41.769531 6.710938 41.761719 6.484375 41.75 6.25 C 42.554688 5.527344 43.425781 4.964844 44.359375 4.421875 C 44.585938 4.289062 44.8125 4.15625 45.046875 4.015625 C 45.890625 3.699219 46.386719 3.78125 47.25 4 Z M 47.25 4 "/>
<path style=" stroke:none;fill-rule:nonzero;fill:rgb(97.254902%,74.117649%,29.019609%);fill-opacity:1;" d="M 17 28 C 17.125 28.125 17.125 28.125 17.25 28.25 C 17.996094 28.269531 18.734375 28.273438 19.480469 28.265625 C 19.964844 28.261719 20.453125 28.261719 20.9375 28.257812 C 21.195312 28.257812 21.453125 28.253906 21.722656 28.253906 C 23.085938 28.246094 24.453125 28.25 25.820312 28.25 C 27.558594 28.253906 29.300781 28.25 31.039062 28.238281 C 32.445312 28.226562 33.847656 28.226562 35.253906 28.234375 C 35.789062 28.234375 36.324219 28.230469 36.859375 28.222656 C 37.609375 28.214844 38.359375 28.21875 39.109375 28.226562 C 39.328125 28.21875 39.550781 28.210938 39.777344 28.207031 C 40.425781 28.222656 40.898438 28.261719 41.5 28.5 C 42.144531 29.179688 42.570312 29.921875 43 30.75 C 43.175781 31.046875 43.359375 31.34375 43.539062 31.636719 C 43.683594 31.898438 43.832031 32.164062 43.984375 32.4375 C 44.136719 32.703125 44.289062 32.96875 44.445312 33.246094 C 44.796875 34.113281 44.746094 34.371094 44.5 35.25 C 44.21875 35.851562 44.21875 35.851562 43.875 36.464844 C 43.75 36.6875 43.628906 36.910156 43.5 37.136719 C 43.308594 37.480469 43.308594 37.480469 43.109375 37.828125 C 42.914062 38.175781 42.914062 38.175781 42.714844 38.53125 C 42.394531 39.109375 42.074219 39.675781 41.75 40.25 C 41.449219 40.25 41.144531 40.25 40.835938 40.25 C 37.984375 40.246094 35.136719 40.253906 32.28125 40.269531 C 30.816406 40.277344 29.351562 40.28125 27.886719 40.28125 C 26.472656 40.277344 25.058594 40.285156 23.640625 40.296875 C 23.101562 40.296875 22.566406 40.296875 22.023438 40.296875 C 21.265625 40.292969 20.511719 40.296875 19.753906 40.308594 C 19.53125 40.300781 19.3125 40.300781 19.085938 40.296875 C 17.578125 40.328125 16.699219 40.730469 15.5 41.644531 C 14.089844 42.644531 12.167969 42.699219 10.5 42.5 C 8.101562 41.914062 6.234375 40.871094 4.90625 38.765625 C 3.761719 36.675781 3.378906 34.625 3.914062 32.28125 C 4.449219 30.625 5.230469 29.433594 6.5 28.25 C 6.628906 28.128906 6.761719 28.003906 6.898438 27.875 C 10.003906 25.320312 13.835938 26.136719 17 28 Z M 17 28 "/>
<path style=" stroke:none;fill-rule:nonzero;fill:rgb(92.156863%,39.607844%,38.039216%);fill-opacity:1;" d="M 15.191406 9.351562 C 17.21875 10.941406 19.511719 10.683594 21.957031 10.636719 C 22.757812 10.621094 23.554688 10.617188 24.355469 10.617188 C 26.625 10.609375 28.894531 10.585938 31.164062 10.554688 C 32.554688 10.539062 33.949219 10.53125 35.339844 10.53125 C 35.867188 10.53125 36.398438 10.523438 36.925781 10.511719 C 41.066406 10.425781 41.066406 10.425781 42.144531 11.234375 C 42.539062 11.820312 42.777344 12.332031 43 13 C 43.171875 13.300781 43.351562 13.59375 43.539062 13.886719 C 43.6875 14.152344 43.832031 14.414062 43.984375 14.6875 C 44.136719 14.953125 44.289062 15.222656 44.445312 15.496094 C 44.796875 16.363281 44.746094 16.621094 44.5 17.5 C 44.21875 18.101562 44.21875 18.101562 43.875 18.714844 C 43.75 18.9375 43.628906 19.160156 43.5 19.386719 C 43.304688 19.730469 43.304688 19.730469 43.109375 20.078125 C 42.914062 20.425781 42.914062 20.425781 42.714844 20.785156 C 42.394531 21.355469 42.074219 21.929688 41.75 22.5 C 41.449219 22.5 41.144531 22.5 40.835938 22.5 C 37.984375 22.5 35.132812 22.503906 32.285156 22.519531 C 30.820312 22.527344 29.351562 22.53125 27.886719 22.53125 C 26.472656 22.527344 25.054688 22.535156 23.640625 22.542969 C 23.101562 22.546875 22.5625 22.546875 22.027344 22.542969 C 21.269531 22.542969 20.511719 22.546875 19.753906 22.558594 C 19.535156 22.554688 19.3125 22.550781 19.085938 22.546875 C 17.574219 22.578125 16.699219 22.980469 15.5 23.894531 C 14.089844 24.894531 12.164062 24.945312 10.5 24.75 C 8.101562 24.164062 6.234375 23.121094 4.90625 21.015625 C 3.761719 18.925781 3.382812 16.875 3.914062 14.53125 C 4.664062 12.207031 6.125 10.460938 8.25 9.25 C 10.199219 8.4375 13.394531 7.925781 15.191406 9.351562 Z M 15.191406 9.351562 "/>
<path style=" stroke:none;fill-rule:nonzero;fill:rgb(90.588236%,90.588236%,90.588236%);fill-opacity:1;" d="M 18.25 47.25 C 21.171875 47.152344 24.09375 47.074219 27.019531 47.03125 C 28.378906 47.007812 29.734375 46.976562 31.09375 46.929688 C 32.402344 46.882812 33.710938 46.859375 35.023438 46.847656 C 35.523438 46.839844 36.023438 46.824219 36.523438 46.800781 C 40.292969 46.632812 40.292969 46.632812 41.46875 47.660156 C 42.601562 49.019531 43.515625 50.59375 43.484375 52.390625 C 43.015625 54.105469 42.414062 55.835938 41 57 C 39.378906 57.65625 37.515625 57.433594 35.800781 57.363281 C 35.296875 57.359375 34.789062 57.355469 34.28125 57.351562 C 32.953125 57.335938 31.628906 57.300781 30.300781 57.257812 C 28.941406 57.21875 27.585938 57.203125 26.226562 57.183594 C 23.566406 57.140625 20.910156 57.078125 18.25 57 C 18.335938 56.765625 18.425781 56.53125 18.515625 56.289062 C 18.636719 55.976562 18.75 55.664062 18.863281 55.347656 C 18.980469 55.039062 19.09375 54.734375 19.210938 54.417969 C 19.949219 52.058594 19.53125 50.175781 18.5 48 C 18.417969 47.753906 18.335938 47.503906 18.25 47.25 Z M 18.25 47.25 "/>
<path style=" stroke:none;fill-rule:nonzero;fill:rgb(90.588236%,90.588236%,90.588236%);fill-opacity:1;" d="M 18.25 29.5 C 21.171875 29.402344 24.09375 29.324219 27.019531 29.28125 C 28.378906 29.257812 29.734375 29.226562 31.09375 29.179688 C 32.402344 29.132812 33.710938 29.109375 35.023438 29.097656 C 35.523438 29.089844 36.023438 29.074219 36.523438 29.050781 C 40.292969 28.882812 40.292969 28.882812 41.46875 29.910156 C 42.601562 31.269531 43.515625 32.84375 43.484375 34.640625 C 43.015625 36.355469 42.414062 38.085938 41 39.25 C 39.378906 39.90625 37.515625 39.683594 35.800781 39.613281 C 35.296875 39.609375 34.789062 39.605469 34.28125 39.601562 C 32.953125 39.585938 31.628906 39.550781 30.300781 39.507812 C 28.941406 39.46875 27.585938 39.453125 26.226562 39.433594 C 23.566406 39.390625 20.910156 39.328125 18.25 39.25 C 18.335938 39.015625 18.425781 38.78125 18.515625 38.539062 C 18.636719 38.226562 18.75 37.914062 18.863281 37.597656 C 18.980469 37.289062 19.09375 36.984375 19.210938 36.667969 C 19.949219 34.308594 19.53125 32.425781 18.5 30.25 C 18.417969 30.003906 18.335938 29.753906 18.25 29.5 Z M 18.25 29.5 "/>
<path style=" stroke:none;fill-rule:nonzero;fill:rgb(90.588236%,90.588236%,90.588236%);fill-opacity:1;" d="M 18.25 11.75 C 21.171875 11.652344 24.09375 11.574219 27.019531 11.53125 C 28.378906 11.507812 29.734375 11.476562 31.09375 11.429688 C 32.402344 11.382812 33.710938 11.359375 35.023438 11.347656 C 35.523438 11.339844 36.023438 11.324219 36.523438 11.300781 C 40.292969 11.132812 40.292969 11.132812 41.46875 12.160156 C 42.601562 13.519531 43.515625 15.09375 43.484375 16.890625 C 43.015625 18.605469 42.414062 20.335938 41 21.5 C 39.378906 22.15625 37.515625 21.933594 35.800781 21.863281 C 35.296875 21.859375 34.789062 21.855469 34.28125 21.851562 C 32.953125 21.835938 31.628906 21.800781 30.300781 21.757812 C 28.941406 21.71875 27.585938 21.703125 26.226562 21.683594 C 23.566406 21.640625 20.910156 21.578125 18.25 21.5 C 18.335938 21.265625 18.425781 21.03125 18.515625 20.789062 C 18.636719 20.476562 18.75 20.164062 18.863281 19.847656 C 18.980469 19.539062 19.09375 19.234375 19.210938 18.917969 C 19.949219 16.558594 19.53125 14.675781 18.5 12.5 C 18.417969 12.253906 18.335938 12.003906 18.25 11.75 Z M 18.25 11.75 "/>
<path style=" stroke:none;fill-rule:nonzero;fill:rgb(55.686277%,78.039217%,39.215687%);fill-opacity:1;" d="M 15.058594 45.726562 C 16.910156 46.875 18.273438 48.394531 18.902344 50.511719 C 19.347656 52.734375 18.644531 54.839844 17.4375 56.71875 C 16.421875 58.019531 14.851562 58.910156 13.25 59.25 C 10.917969 59.539062 9.199219 59.058594 7.25 57.75 C 6.625 57.222656 6.179688 56.691406 5.75 56 C 5.648438 55.835938 5.546875 55.671875 5.4375 55.503906 C 4.589844 53.902344 4.503906 52.277344 4.75 50.5 C 5.40625 48.414062 6.777344 46.789062 8.625 45.640625 C 10.46875 44.804688 13.222656 44.867188 15.058594 45.726562 Z M 15.058594 45.726562 "/>
<path style=" stroke:none;fill-rule:nonzero;fill:rgb(3.137255%,3.137255%,2.352941%);fill-opacity:1;" d="M 17 28 C 17.125 28.125 17.125 28.125 17.25 28.25 C 17.996094 28.269531 18.734375 28.273438 19.480469 28.265625 C 19.964844 28.261719 20.453125 28.261719 20.9375 28.257812 C 21.195312 28.257812 21.453125 28.253906 21.722656 28.253906 C 23.085938 28.246094 24.453125 28.25 25.820312 28.25 C 27.558594 28.253906 29.300781 28.25 31.039062 28.238281 C 32.445312 28.226562 33.847656 28.226562 35.253906 28.234375 C 35.789062 28.234375 36.324219 28.230469 36.859375 28.222656 C 37.609375 28.214844 38.359375 28.21875 39.109375 28.226562 C 39.328125 28.21875 39.550781 28.210938 39.777344 28.207031 C 40.425781 28.222656 40.898438 28.261719 41.5 28.5 C 42.144531 29.179688 42.570312 29.921875 43 30.75 C 43.175781 31.046875 43.359375 31.34375 43.539062 31.636719 C 43.683594 31.898438 43.832031 32.164062 43.984375 32.4375 C 44.136719 32.703125 44.289062 32.96875 44.445312 33.246094 C 44.796875 34.113281 44.746094 34.371094 44.5 35.25 C 44.21875 35.851562 44.21875 35.851562 43.875 36.464844 C 43.75 36.6875 43.628906 36.910156 43.5 37.136719 C 43.308594 37.480469 43.308594 37.480469 43.109375 37.828125 C 42.914062 38.175781 42.914062 38.175781 42.714844 38.53125 C 42.394531 39.109375 42.074219 39.675781 41.75 40.25 C 41.449219 40.25 41.144531 40.25 40.835938 40.25 C 37.984375 40.246094 35.136719 40.253906 32.28125 40.269531 C 30.816406 40.277344 29.351562 40.28125 27.886719 40.28125 C 26.472656 40.277344 25.058594 40.285156 23.640625 40.296875 C 23.101562 40.296875 22.566406 40.296875 22.023438 40.296875 C 21.265625 40.292969 20.511719 40.296875 19.753906 40.308594 C 19.53125 40.300781 19.3125 40.300781 19.085938 40.296875 C 17.578125 40.328125 16.699219 40.730469 15.5 41.644531 C 14.089844 42.644531 12.167969 42.699219 10.5 42.5 C 8.101562 41.914062 6.234375 40.871094 4.90625 38.765625 C 3.761719 36.675781 3.378906 34.625 3.914062 32.28125 C 4.449219 30.625 5.230469 29.433594 6.5 28.25 C 6.628906 28.128906 6.761719 28.003906 6.898438 27.875 C 10.003906 25.320312 13.835938 26.136719 17 28 Z M 7.75 28.5 C 7.597656 28.621094 7.445312 28.742188 7.289062 28.867188 C 5.875 30.136719 4.933594 31.640625 4.621094 33.527344 C 4.5 35.824219 5.171875 37.722656 6.660156 39.484375 C 8.003906 40.734375 9.640625 41.542969 11.484375 41.609375 C 13.601562 41.503906 15.261719 40.96875 16.808594 39.492188 C 18.511719 37.585938 18.90625 35.777344 18.851562 33.273438 C 18.734375 31.414062 17.710938 30.113281 16.375 28.890625 C 14.96875 27.734375 13.6875 27.363281 11.90625 27.390625 C 11.71875 27.390625 11.527344 27.394531 11.332031 27.398438 C 9.941406 27.441406 8.859375 27.601562 7.75 28.5 Z M 18.25 29.5 C 18.535156 30.226562 18.832031 30.933594 19.15625 31.640625 C 20.035156 34.039062 19.464844 36.238281 18.5 38.5 C 18.417969 38.746094 18.335938 38.996094 18.25 39.25 C 21.171875 39.347656 24.09375 39.425781 27.019531 39.46875 C 28.378906 39.492188 29.734375 39.523438 31.09375 39.570312 C 32.402344 39.617188 33.710938 39.640625 35.023438 39.652344 C 35.523438 39.660156 36.023438 39.675781 36.523438 39.699219 C 39.164062 39.894531 39.164062 39.894531 41.464844 38.832031 C 42.511719 37.535156 43.3125 36.023438 43.613281 34.375 C 43.28125 32.574219 42.367188 30.726562 41 29.5 C 39.386719 28.769531 37.503906 29.003906 35.78125 29.085938 C 35.273438 29.09375 34.765625 29.101562 34.261719 29.101562 C 32.933594 29.121094 31.609375 29.160156 30.28125 29.207031 C 28.925781 29.253906 27.570312 29.269531 26.214844 29.292969 C 23.558594 29.335938 20.90625 29.410156 18.25 29.5 Z M 18.25 29.5 "/>
<path style=" stroke:none;fill-rule:nonzero;fill:rgb(3.137255%,2.745098%,2.352941%);fill-opacity:1;" d="M 15.191406 9.351562 C 17.21875 10.941406 19.511719 10.683594 21.957031 10.636719 C 22.757812 10.621094 23.554688 10.617188 24.355469 10.617188 C 26.625 10.609375 28.894531 10.585938 31.164062 10.554688 C 32.554688 10.539062 33.949219 10.53125 35.339844 10.53125 C 35.867188 10.53125 36.398438 10.523438 36.925781 10.511719 C 41.066406 10.425781 41.066406 10.425781 42.144531 11.234375 C 42.539062 11.820312 42.777344 12.332031 43 13 C 43.171875 13.300781 43.351562 13.59375 43.539062 13.886719 C 43.6875 14.152344 43.832031 14.414062 43.984375 14.6875 C 44.136719 14.953125 44.289062 15.222656 44.445312 15.496094 C 44.796875 16.363281 44.746094 16.621094 44.5 17.5 C 44.21875 18.101562 44.21875 18.101562 43.875 18.714844 C 43.75 18.9375 43.628906 19.160156 43.5 19.386719 C 43.304688 19.730469 43.304688 19.730469 43.109375 20.078125 C 42.914062 20.425781 42.914062 20.425781 42.714844 20.785156 C 42.394531 21.355469 42.074219 21.929688 41.75 22.5 C 41.449219 22.5 41.144531 22.5 40.835938 22.5 C 37.984375 22.5 35.132812 22.503906 32.285156 22.519531 C 30.820312 22.527344 29.351562 22.53125 27.886719 22.53125 C 26.472656 22.527344 25.054688 22.535156 23.640625 22.542969 C 23.101562 22.546875 22.5625 22.546875 22.027344 22.542969 C 21.269531 22.542969 20.511719 22.546875 19.753906 22.558594 C 19.535156 22.554688 19.3125 22.550781 19.085938 22.546875 C 17.574219 22.578125 16.699219 22.980469 15.5 23.894531 C 14.089844 24.894531 12.164062 24.945312 10.5 24.75 C 8.101562 24.164062 6.234375 23.121094 4.90625 21.015625 C 3.761719 18.925781 3.382812 16.875 3.914062 14.53125 C 4.664062 12.207031 6.125 10.460938 8.25 9.25 C 10.199219 8.4375 13.394531 7.925781 15.191406 9.351562 Z M 6.5 12 C 6.234375 12.292969 6.234375 12.292969 5.96875 12.59375 C 4.683594 14.390625 4.445312 16.058594 4.75 18.25 C 5.554688 20.660156 6.824219 22.179688 9.046875 23.34375 C 10.789062 24.050781 12.691406 24.054688 14.4375 23.359375 C 16.257812 22.414062 17.6875 21.140625 18.535156 19.253906 C 19.074219 17.351562 19.15625 15.03125 18.25 13.234375 C 17.195312 11.667969 15.75 10.460938 14 9.75 C 13.296875 9.640625 12.613281 9.628906 11.90625 9.640625 C 11.625 9.640625 11.625 9.640625 11.335938 9.644531 C 9.214844 9.707031 7.929688 10.375 6.5 12 Z M 18.25 11.75 C 18.535156 12.476562 18.832031 13.183594 19.15625 13.890625 C 20.035156 16.289062 19.464844 18.488281 18.5 20.75 C 18.417969 20.996094 18.335938 21.246094 18.25 21.5 C 21.171875 21.601562 24.097656 21.675781 27.019531 21.71875 C 28.378906 21.742188 29.734375 21.773438 31.089844 21.820312 C 32.402344 21.867188 33.714844 21.890625 35.027344 21.902344 C 35.527344 21.914062 36.023438 21.925781 36.523438 21.949219 C 39.164062 22.144531 39.164062 22.144531 41.464844 21.082031 C 42.511719 19.785156 43.3125 18.273438 43.617188 16.625 C 43.285156 14.828125 42.367188 12.980469 41 11.75 C 39.382812 11.019531 37.503906 11.253906 35.777344 11.335938 C 35.273438 11.34375 34.765625 11.351562 34.261719 11.351562 C 32.933594 11.371094 31.609375 11.414062 30.285156 11.457031 C 28.925781 11.503906 27.570312 11.523438 26.214844 11.542969 C 23.558594 11.585938 20.90625 11.660156 18.25 11.75 Z M 18.25 11.75 "/>
<path style=" stroke:none;fill-rule:nonzero;fill:rgb(60.000002%,80.000001%,45.09804%);fill-opacity:1;" d="M 14.75 45.75 C 14.761719 46.359375 14.773438 46.96875 14.78125 47.578125 C 14.785156 47.75 14.789062 47.921875 14.796875 48.101562 C 14.800781 49.042969 14.785156 49.445312 14.25 50.25 C 14.1875 50.007812 14.128906 49.765625 14.0625 49.515625 C 13.84375 48.746094 13.84375 48.746094 13.34375 48.53125 C 13.148438 48.519531 12.953125 48.511719 12.75 48.5 C 12.425781 48.476562 12.101562 48.449219 11.765625 48.421875 C 10.953125 48.429688 10.734375 48.511719 10 48.953125 C 9.414062 49.46875 9.414062 49.46875 9.5 50.25 C 9.828125 50.332031 10.160156 50.414062 10.5 50.5 C 10.664062 50.085938 10.828125 49.675781 11 49.25 C 11.59375 49.21875 11.59375 49.21875 12.25 49.25 C 12.414062 49.414062 12.578125 49.578125 12.75 49.75 C 12.65625 50.40625 12.65625 50.40625 12.5 51 C 11.0625 51.5 11.0625 51.5 10.5 51.5 C 10.582031 51.746094 10.664062 51.996094 10.75 52.25 C 11.027344 52.28125 11.308594 52.3125 11.59375 52.34375 C 12.5 52.5 12.5 52.5 13 53 C 13.0625 53.75 13.0625 53.75 13 54.5 C 12.5 55 12.5 55 11.78125 55.125 C 11 55 11 55 10.4375 54.25 C 10.292969 54.003906 10.148438 53.753906 10 53.5 C 9.835938 53.5 9.671875 53.5 9.5 53.5 C 9.417969 53.996094 9.335938 54.488281 9.25 55 C 8.085938 55.386719 6.863281 55.296875 5.65625 55.203125 C 5.25 55 5.25 55 4.984375 54.460938 C 4.414062 52.722656 4.496094 50.8125 5.265625 49.15625 C 6.183594 47.566406 7.429688 46.1875 9.121094 45.414062 C 10.90625 44.949219 13.078125 44.949219 14.75 45.75 Z M 14.75 45.75 "/>
<path style=" stroke:none;fill-rule:nonzero;fill:rgb(94.117647%,45.882353%,44.313726%);fill-opacity:1;" d="M 11.875 9.703125 C 12.164062 9.699219 12.164062 9.699219 12.460938 9.691406 C 13.4375 9.691406 13.921875 9.695312 14.75 10.25 C 15.058594 12.335938 14.84375 14.421875 13.75 16.25 C 13.503906 16.375 13.503906 16.375 13.25 16.5 C 13.167969 15.429688 13.085938 14.355469 13 13.25 C 12.671875 13.167969 12.339844 13.085938 12 13 C 11.859375 13.191406 11.722656 13.378906 11.578125 13.578125 C 11.003906 14.246094 10.53125 14.609375 9.75 15 C 9.585938 15 9.421875 15 9.25 15 C 9.332031 15.25 9.414062 15.496094 9.5 15.75 C 10.191406 15.617188 10.832031 15.472656 11.5 15.25 C 11.5 16.324219 11.5 17.394531 11.5 18.5 C 9.585938 19.457031 8.011719 19.796875 5.875 19.71875 C 5.25 19.5 5.25 19.5 4.96875 18.957031 C 4.421875 17.1875 4.496094 15.300781 5.296875 13.625 C 6.824219 10.976562 8.878906 9.707031 11.875 9.703125 Z M 11.875 9.703125 "/>
<path style=" stroke:none;fill-rule:nonzero;fill:rgb(97.254902%,76.47059%,36.078432%);fill-opacity:1;" d="M 14 27.5 C 14.246094 27.664062 14.496094 27.828125 14.75 28 C 14.804688 28.65625 14.820312 29.253906 14.796875 29.90625 C 14.792969 30.171875 14.792969 30.171875 14.789062 30.441406 C 14.777344 30.878906 14.765625 31.316406 14.75 31.75 C 14 31.75 14 31.75 13.609375 31.390625 C 13.488281 31.261719 13.371094 31.132812 13.25 31 C 12.449219 30.597656 11.621094 30.632812 10.75 30.75 C 9.992188 31.113281 9.992188 31.113281 9.5 31.75 C 9.277344 32.535156 9.277344 32.535156 9.25 33.25 C 9.578125 33.25 9.910156 33.25 10.25 33.25 C 10.324219 33.054688 10.394531 32.859375 10.46875 32.65625 C 10.75 32 10.75 32 11.25 31.5 C 12.074219 31.582031 12.40625 31.65625 13 32.25 C 13.011719 33.019531 12.921875 33.539062 12.425781 34.144531 C 12.003906 34.550781 11.574219 34.933594 11.125 35.3125 C 10.050781 36.167969 10.050781 36.167969 9.25 37.25 C 8.0625 37.707031 6.433594 37.691406 5.25 37.25 C 4.4375 35.667969 4.449219 33.722656 4.96875 32.046875 C 5.636719 30.613281 6.515625 29.484375 7.75 28.5 C 7.886719 28.390625 8.019531 28.28125 8.15625 28.171875 C 9.828125 27.097656 12.097656 27.328125 14 27.5 Z M 14 27.5 "/>
<path style=" stroke:none;fill-rule:nonzero;fill:rgb(21.960784%,25.098041%,26.274511%);fill-opacity:1;" d="M 47.25 6.25 C 48.609375 6.226562 49.972656 6.207031 51.332031 6.195312 C 51.796875 6.191406 52.257812 6.183594 52.71875 6.175781 C 53.386719 6.164062 54.054688 6.15625 54.71875 6.152344 C 54.925781 6.148438 55.132812 6.140625 55.34375 6.136719 C 56.679688 6.136719 57.457031 6.335938 58.5 7.25 C 59.246094 8.253906 59.34375 8.984375 59.34375 10.226562 C 59.347656 10.480469 59.347656 10.480469 59.351562 10.742188 C 59.351562 11.3125 59.351562 11.878906 59.347656 12.449219 C 59.347656 12.859375 59.351562 13.269531 59.351562 13.675781 C 59.355469 14.789062 59.351562 15.898438 59.351562 17.007812 C 59.351562 18.171875 59.351562 19.332031 59.351562 20.496094 C 59.351562 22.445312 59.351562 24.398438 59.347656 26.351562 C 59.34375 28.605469 59.34375 30.859375 59.351562 33.113281 C 59.351562 35.050781 59.351562 36.988281 59.351562 38.925781 C 59.351562 40.085938 59.351562 41.238281 59.351562 42.398438 C 59.355469 43.484375 59.351562 44.574219 59.347656 45.660156 C 59.347656 46.058594 59.347656 46.457031 59.351562 46.859375 C 59.351562 47.402344 59.351562 47.949219 59.34375 48.492188 C 59.34375 48.796875 59.34375 49.101562 59.34375 49.417969 C 59.214844 50.566406 58.851562 51.414062 58.011719 52.214844 C 56.800781 52.667969 55.617188 52.59375 54.339844 52.574219 C 54.058594 52.574219 53.777344 52.570312 53.488281 52.570312 C 52.589844 52.566406 51.691406 52.558594 50.796875 52.546875 C 50.1875 52.542969 49.578125 52.539062 48.96875 52.539062 C 47.480469 52.527344 45.988281 52.515625 44.5 52.5 C 44.5 52.253906 44.5 52.003906 44.5 51.75 C 44.648438 51.746094 44.800781 51.746094 44.957031 51.746094 C 46.53125 51.722656 48.105469 51.699219 49.679688 51.671875 C 50.265625 51.660156 50.851562 51.652344 51.441406 51.644531 C 52.285156 51.632812 53.128906 51.617188 53.972656 51.601562 C 54.234375 51.601562 54.496094 51.597656 54.769531 51.59375 C 55.136719 51.585938 55.136719 51.585938 55.511719 51.578125 C 55.835938 51.574219 55.835938 51.574219 56.164062 51.570312 C 56.816406 51.492188 57.207031 51.367188 57.75 51 C 58.328125 50.125 58.316406 49.351562 58.316406 48.324219 C 58.320312 48.152344 58.320312 47.984375 58.324219 47.8125 C 58.328125 47.246094 58.328125 46.683594 58.328125 46.121094 C 58.328125 45.714844 58.328125 45.308594 58.332031 44.90625 C 58.335938 43.808594 58.339844 42.710938 58.34375 41.609375 C 58.34375 40.925781 58.34375 40.238281 58.34375 39.550781 C 58.351562 37.15625 58.355469 34.761719 58.359375 32.371094 C 58.359375 30.136719 58.363281 27.90625 58.375 25.671875 C 58.386719 23.757812 58.386719 21.839844 58.386719 19.925781 C 58.386719 18.78125 58.390625 17.636719 58.398438 16.488281 C 58.40625 15.414062 58.40625 14.335938 58.398438 13.261719 C 58.398438 12.867188 58.402344 12.472656 58.40625 12.078125 C 58.410156 11.539062 58.40625 11 58.402344 10.460938 C 58.40625 10.007812 58.40625 10.007812 58.40625 9.546875 C 58.203125 8.523438 57.796875 8.148438 57 7.5 C 56.488281 7.316406 56.488281 7.316406 55.960938 7.335938 C 55.765625 7.328125 55.574219 7.324219 55.371094 7.320312 C 55.164062 7.320312 54.957031 7.324219 54.746094 7.324219 C 54.53125 7.320312 54.316406 7.316406 54.09375 7.3125 C 53.414062 7.300781 52.730469 7.300781 52.046875 7.296875 C 51.582031 7.289062 51.121094 7.285156 50.65625 7.277344 C 49.519531 7.261719 48.386719 7.253906 47.25 7.25 C 47.25 6.921875 47.25 6.589844 47.25 6.25 Z M 47.25 6.25 "/>
<path style=" stroke:none;fill-rule:nonzero;fill:rgb(50.588238%,74.901962%,32.156864%);fill-opacity:1;" d="M 17 47.5 C 18.390625 48.59375 18.910156 50.285156 19.125 51.984375 C 19.011719 53.9375 18.132812 56.101562 16.75 57.5 C 14.996094 58.859375 13.277344 59.390625 11.0625 59.363281 C 9.648438 59.164062 8.433594 58.527344 7.25 57.75 C 7.167969 57.585938 7.085938 57.421875 7 57.25 C 7.214844 57.289062 7.429688 57.328125 7.648438 57.371094 C 10.054688 57.734375 12.324219 57.785156 14.335938 56.324219 C 15.871094 55.058594 16.863281 53.71875 17.25 51.75 C 17.324219 50.316406 17.304688 48.90625 17 47.5 Z M 17 47.5 "/>
<path style=" stroke:none;fill-rule:nonzero;fill:rgb(97.254902%,71.372551%,21.568628%);fill-opacity:1;" d="M 17 29.75 C 18.109375 30.742188 18.679688 31.691406 18.867188 33.183594 C 18.875 33.515625 18.878906 33.851562 18.875 34.1875 C 18.871094 34.363281 18.871094 34.539062 18.871094 34.71875 C 18.800781 36.777344 18.039062 38.226562 16.65625 39.734375 C 15.539062 40.765625 14.269531 41.324219 12.75 41.5 C 12.574219 41.523438 12.402344 41.546875 12.222656 41.566406 C 10.308594 41.699219 8.851562 41.015625 7.25 40 C 7.167969 39.835938 7.085938 39.671875 7 39.5 C 7.171875 39.539062 7.34375 39.578125 7.519531 39.621094 C 10.121094 40.082031 12.277344 39.871094 14.484375 38.4375 C 15.964844 37.320312 16.671875 35.730469 17.25 34 C 17.328125 32.566406 17.304688 31.15625 17 29.75 Z M 17 29.75 "/>
<path style=" stroke:none;fill-rule:nonzero;fill:rgb(92.156863%,33.725491%,31.764707%);fill-opacity:1;" d="M 17 12 C 18.109375 12.992188 18.679688 13.941406 18.867188 15.433594 C 18.929688 17.871094 18.675781 19.695312 16.988281 21.570312 C 15.179688 23.296875 13.546875 23.925781 11.046875 23.875 C 9.644531 23.65625 8.429688 23.023438 7.25 22.25 C 7.167969 22.085938 7.085938 21.921875 7 21.75 C 7.1875 21.808594 7.1875 21.808594 7.378906 21.871094 C 9.558594 22.328125 12.03125 22.3125 13.972656 21.152344 C 15.53125 19.964844 16.765625 18.421875 17.25 16.5 C 17.378906 14.96875 17.34375 13.5 17 12 Z M 17 12 "/>
<path style=" stroke:none;fill-rule:nonzero;fill:rgb(0%,0.392157%,0.392157%);fill-opacity:1;" d="M 46.71875 31.484375 C 48.1875 31.742188 49.582031 32.597656 50.75 33.5 C 51.089844 34.183594 51.089844 34.183594 51.25 34.75 C 50.472656 35.609375 49.65625 36.148438 48.640625 36.703125 C 48.363281 36.859375 48.082031 37.015625 47.796875 37.175781 C 46.945312 37.523438 46.601562 37.550781 45.75 37.25 C 45.171875 36.675781 45.453125 35.285156 45.453125 34.515625 C 45.453125 34.28125 45.445312 34.050781 45.445312 33.808594 C 45.445312 33.585938 45.445312 33.363281 45.441406 33.132812 C 45.441406 32.828125 45.441406 32.828125 45.4375 32.511719 C 45.542969 31.632812 45.867188 31.5 46.71875 31.484375 Z M 46.71875 31.484375 "/>
<path style=" stroke:none;fill-rule:nonzero;fill:rgb(0%,0.392157%,0.392157%);fill-opacity:1;" d="M 46.71875 13.734375 C 48.1875 13.992188 49.582031 14.847656 50.75 15.75 C 51.089844 16.433594 51.089844 16.433594 51.25 17 C 50.472656 17.859375 49.65625 18.398438 48.640625 18.953125 C 48.363281 19.109375 48.082031 19.265625 47.796875 19.425781 C 46.945312 19.773438 46.601562 19.800781 45.75 19.5 C 45.171875 18.925781 45.453125 17.535156 45.453125 16.765625 C 45.453125 16.53125 45.445312 16.300781 45.445312 16.058594 C 45.445312 15.835938 45.445312 15.613281 45.441406 15.382812 C 45.441406 15.078125 45.441406 15.078125 45.4375 14.761719 C 45.542969 13.882812 45.867188 13.75 46.71875 13.734375 Z M 46.71875 13.734375 "/>
<path style=" stroke:none;fill-rule:nonzero;fill:rgb(5.098039%,3.921569%,1.568628%);fill-opacity:1;" d="M 12.75 30.5 C 13.648438 30.910156 13.949219 31.171875 14.5 32 C 14.53125 33.511719 13.953125 34.25 12.964844 35.300781 C 12.421875 35.824219 11.859375 36.304688 11.25 36.75 C 12.238281 36.832031 13.230469 36.914062 14.25 37 C 14.332031 37.328125 14.414062 37.660156 14.5 38 C 14.25 38.25 14.25 38.25 13.761719 38.277344 C 13.554688 38.277344 13.347656 38.273438 13.132812 38.273438 C 12.90625 38.273438 12.683594 38.273438 12.449219 38.273438 C 12.214844 38.269531 11.976562 38.265625 11.734375 38.265625 C 11.496094 38.265625 11.261719 38.261719 11.015625 38.261719 C 10.425781 38.261719 9.835938 38.253906 9.25 38.25 C 9.136719 36.90625 9.136719 36.90625 9.640625 36.199219 C 9.816406 36.042969 9.992188 35.882812 10.171875 35.71875 C 10.351562 35.546875 10.535156 35.378906 10.722656 35.203125 C 11.25 34.75 11.25 34.75 11.984375 34.21875 C 12.566406 33.769531 12.566406 33.769531 12.734375 32.96875 C 12.738281 32.734375 12.746094 32.496094 12.75 32.25 C 12.585938 32.085938 12.421875 31.921875 12.25 31.75 C 11.621094 31.734375 11.621094 31.734375 11 32 C 10.746094 32.414062 10.496094 32.832031 10.25 33.25 C 9.921875 33.25 9.589844 33.25 9.25 33.25 C 9.15625 32.578125 9.15625 32.578125 9.25 31.75 C 10.351562 30.484375 11.105469 30.289062 12.75 30.5 Z M 12.75 30.5 "/>
<path style=" stroke:none;fill-rule:nonzero;fill:rgb(3.137255%,4.705882%,2.352941%);fill-opacity:1;" d="M 12.75 48.25 C 13.453125 48.503906 13.667969 48.582031 14 49.25 C 14.058594 50.808594 14.058594 50.808594 13.828125 51.5625 C 13.800781 51.707031 13.777344 51.851562 13.75 52 C 13.867188 52.109375 13.988281 52.21875 14.109375 52.328125 C 14.5 52.75 14.5 52.75 14.609375 53.59375 C 14.484375 54.632812 14.230469 55.019531 13.5 55.75 C 12.570312 56.214844 11.511719 56.140625 10.5 56 C 9.71875 55.453125 9.71875 55.453125 9.25 54.75 C 9.171875 54.046875 9.171875 54.046875 9.25 53.5 C 9.578125 53.5 9.910156 53.5 10.25 53.5 C 10.363281 53.703125 10.476562 53.914062 10.59375 54.125 C 10.726562 54.328125 10.863281 54.539062 11 54.75 C 11.769531 54.875 11.769531 54.875 12.5 54.75 C 12.835938 54.46875 12.835938 54.46875 12.78125 53.75 C 12.835938 53.03125 12.835938 53.03125 12.5 52.75 C 11.917969 52.65625 11.335938 52.574219 10.75 52.5 C 10.667969 52.171875 10.585938 51.839844 10.5 51.5 C 11.160156 51.253906 11.820312 51.003906 12.5 50.75 C 12.417969 50.335938 12.335938 49.925781 12.25 49.5 C 11.835938 49.5 11.425781 49.5 11 49.5 C 10.835938 49.828125 10.671875 50.160156 10.5 50.5 C 10.085938 50.417969 9.675781 50.335938 9.25 50.25 C 9.328125 49.515625 9.511719 49.238281 10.015625 48.6875 C 11.03125 48.085938 11.578125 48.136719 12.75 48.25 Z M 12.75 48.25 "/>
<path style=" stroke:none;fill-rule:nonzero;fill:rgb(0%,0%,0%);fill-opacity:1;" d="M 20 53.5 C 26.105469 53.5 32.210938 53.5 38.5 53.5 C 38.417969 53.746094 38.335938 53.996094 38.25 54.25 C 32.226562 54.25 26.203125 54.25 20 54.25 C 20 54.003906 20 53.753906 20 53.5 Z M 20 53.5 "/>
<path style=" stroke:none;fill-rule:nonzero;fill:rgb(0.392157%,0.392157%,0.392157%);fill-opacity:1;" d="M 20 35.75 C 26.105469 35.75 32.210938 35.75 38.5 35.75 C 38.417969 35.996094 38.335938 36.246094 38.25 36.5 C 32.226562 36.5 26.203125 36.5 20 36.5 C 20 36.253906 20 36.003906 20 35.75 Z M 20 35.75 "/>
<path style=" stroke:none;fill-rule:nonzero;fill:rgb(0%,0%,0%);fill-opacity:1;" d="M 20 18 C 26.105469 18 32.210938 18 38.5 18 C 38.417969 18.246094 38.335938 18.496094 38.25 18.75 C 32.226562 18.75 26.203125 18.75 20 18.75 C 20 18.503906 20 18.253906 20 18 Z M 20 18 "/>
<path style=" stroke:none;fill-rule:nonzero;fill:rgb(14.117648%,14.117648%,14.117648%);fill-opacity:1;" d="M 20.25 50 C 24.457031 50 28.664062 50 33 50 C 33 50.328125 33 50.660156 33 51 C 28.710938 51 24.421875 51 20 51 C 20.082031 50.671875 20.164062 50.339844 20.25 50 Z M 20.25 50 "/>
<path style=" stroke:none;fill-rule:nonzero;fill:rgb(12.54902%,12.54902%,12.54902%);fill-opacity:1;" d="M 20.25 32.25 C 24.457031 32.25 28.664062 32.25 33 32.25 C 33 32.578125 33 32.910156 33 33.25 C 28.710938 33.25 24.421875 33.25 20 33.25 C 20.082031 32.921875 20.164062 32.589844 20.25 32.25 Z M 20.25 32.25 "/>
<path style=" stroke:none;fill-rule:nonzero;fill:rgb(12.54902%,12.54902%,12.54902%);fill-opacity:1;" d="M 20.25 14.5 C 24.457031 14.5 28.664062 14.5 33 14.5 C 33 14.828125 33 15.160156 33 15.5 C 28.792969 15.5 24.585938 15.5 20.25 15.5 C 20.25 15.171875 20.25 14.839844 20.25 14.5 Z M 20.25 14.5 "/>
<path style=" stroke:none;fill-rule:nonzero;fill:rgb(1.568628%,0.784314%,0.784314%);fill-opacity:1;" d="M 12 12.75 C 12.328125 12.832031 12.660156 12.914062 13 13 C 13 15.390625 13 17.785156 13 20.25 C 12.585938 20.332031 12.175781 20.414062 11.75 20.5 C 11.75 18.683594 11.75 16.871094 11.75 15 C 11.007812 15.496094 11.007812 15.496094 10.25 16 C 9.65625 15.9375 9.65625 15.9375 9.25 15.75 C 9.25 15.503906 9.25 15.253906 9.25 15 C 9.726562 14.625 9.726562 14.625 10.34375 14.25 C 11.128906 13.773438 11.480469 13.527344 12 12.75 Z M 12 12.75 "/>
<path style=" stroke:none;fill-rule:nonzero;fill:rgb(20.392157%,22.352941%,18.82353%);fill-opacity:1;" d="M 16.25 46 C 16.25 46.246094 16.25 46.496094 16.25 46.75 C 15.828125 46.496094 15.402344 46.246094 14.980469 45.992188 C 13.308594 45.148438 10.921875 45.226562 9.128906 45.644531 C 7.40625 46.402344 6.210938 48 5.25 49.5625 C 4.5625 52.136719 4.960938 54.203125 6.25 56.5 C 6.003906 56.5 5.753906 56.5 5.5 56.5 C 4.34375 54.308594 4.175781 52.070312 4.609375 49.636719 C 5.261719 47.578125 6.867188 46.199219 8.722656 45.226562 C 11.25 44.136719 13.988281 44.539062 16.25 46 Z M 16.25 46 "/>
<path style=" stroke:none;fill-rule:nonzero;fill:rgb(20.784314%,23.529412%,24.705882%);fill-opacity:1;" d="M 46.5 4.75 C 46.5 6.070312 46.5 7.390625 46.5 8.75 C 45.457031 8.402344 44.703125 8.125 43.78125 7.59375 C 43.585938 7.484375 43.390625 7.371094 43.191406 7.253906 C 43.046875 7.171875 42.898438 7.085938 42.75 7 C 42.75 6.835938 42.75 6.671875 42.75 6.5 C 43.28125 6.207031 43.8125 5.914062 44.34375 5.625 C 44.570312 5.5 44.570312 5.5 44.800781 5.371094 C 45.941406 4.75 45.941406 4.75 46.5 4.75 Z M 46.5 4.75 "/>
<path style=" stroke:none;fill-rule:nonzero;fill:rgb(21.960784%,25.098041%,26.274511%);fill-opacity:1;" d="M 46.5 32.5 C 47.535156 32.84375 48.214844 33.074219 49.09375 33.625 C 49.265625 33.730469 49.4375 33.835938 49.613281 33.945312 C 49.742188 34.046875 49.871094 34.148438 50 34.25 C 50 34.414062 50 34.578125 50 34.75 C 48.265625 35.617188 48.265625 35.617188 46.5 36.5 C 46.5 35.179688 46.5 33.859375 46.5 32.5 Z M 46.5 32.5 "/>
<path style=" stroke:none;fill-rule:nonzero;fill:rgb(23.529412%,21.960784%,18.82353%);fill-opacity:1;" d="M 16.25 28.25 C 16.25 28.414062 16.25 28.578125 16.25 28.75 C 15.058594 28.285156 15.058594 28.285156 14.585938 27.988281 C 13.03125 27.359375 10.726562 27.53125 9.097656 27.894531 C 7.394531 28.640625 6.199219 30.273438 5.25 31.8125 C 4.808594 33.464844 4.753906 35.347656 5.25 37 C 5.085938 37 4.921875 37 4.75 37 C 4.167969 35.253906 4.183594 32.636719 4.976562 30.941406 C 6.125 29.09375 7.621094 27.78125 9.714844 27.097656 C 12.144531 26.652344 14.175781 26.914062 16.25 28.25 Z M 16.25 28.25 "/>
<path style=" stroke:none;fill-rule:nonzero;fill:rgb(21.960784%,25.098041%,26.274511%);fill-opacity:1;" d="M 46.5 14.75 C 47.535156 15.09375 48.214844 15.324219 49.09375 15.875 C 49.265625 15.980469 49.4375 16.085938 49.613281 16.195312 C 49.742188 16.296875 49.871094 16.398438 50 16.5 C 50 16.664062 50 16.828125 50 17 C 48.265625 17.867188 48.265625 17.867188 46.5 18.75 C 46.5 17.429688 46.5 16.109375 46.5 14.75 Z M 46.5 14.75 "/>
<path style=" stroke:none;fill-rule:nonzero;fill:rgb(23.529412%,19.215687%,19.215687%);fill-opacity:1;" d="M 11.96875 9.1875 C 12.265625 9.179688 12.566406 9.175781 12.875 9.167969 C 13.828125 9.257812 14.429688 9.523438 15.25 10 C 15.167969 10.164062 15.085938 10.328125 15 10.5 C 14.816406 10.378906 14.816406 10.378906 14.628906 10.253906 C 13.742188 9.894531 12.882812 9.90625 11.9375 9.90625 C 11.652344 9.90625 11.652344 9.90625 11.359375 9.90625 C 9.90625 9.933594 8.976562 10.183594 7.75 11 C 7.578125 11.074219 7.410156 11.144531 7.230469 11.21875 C 6.628906 11.570312 6.519531 11.863281 6.25 12.5 C 6.089844 12.761719 6.089844 12.761719 5.929688 13.03125 C 4.855469 14.886719 4.667969 16.746094 5.132812 18.84375 C 5.171875 18.980469 5.207031 19.113281 5.25 19.25 C 5.082031 19.25 4.917969 19.25 4.75 19.25 C 4.167969 17.503906 4.183594 14.886719 4.976562 13.191406 C 6.128906 11.335938 7.621094 10.042969 9.707031 9.347656 C 10.464844 9.210938 11.203125 9.199219 11.96875 9.1875 Z M 11.96875 9.1875 "/>
<path style=" stroke:none;fill-rule:nonzero;fill:rgb(54.509807%,76.47059%,38.431373%);fill-opacity:1;" d="M 12.5 53 C 12.664062 53 12.828125 53 13 53 C 13.03125 53.71875 13.03125 53.71875 13 54.5 C 12.5 55 12.5 55 11.75 55.078125 C 11.503906 55.050781 11.253906 55.027344 11 55 C 10.835938 54.753906 10.671875 54.503906 10.5 54.25 C 10.949219 53.996094 11.394531 53.746094 11.84375 53.492188 C 12.246094 53.273438 12.246094 53.273438 12.5 53 Z M 12.5 53 "/>
<path style=" stroke:none;fill-rule:nonzero;fill:rgb(27.058825%,24.705882%,19.607843%);fill-opacity:1;" d="M 7.5 28.25 C 7.746094 28.332031 7.996094 28.414062 8.25 28.5 C 8.042969 28.679688 8.042969 28.679688 7.828125 28.863281 C 7.648438 29.023438 7.46875 29.179688 7.28125 29.34375 C 7.101562 29.5 6.921875 29.65625 6.738281 29.816406 C 6.398438 30.117188 6.070312 30.429688 5.75 30.75 C 5.789062 30.085938 5.878906 29.636719 6.324219 29.128906 C 6.71875 28.78125 6.71875 28.78125 7.5 28.25 Z M 7.5 28.25 "/>
<path style=" stroke:none;fill-rule:nonzero;fill:rgb(12.54902%,14.117648%,11.372549%);fill-opacity:1;" d="M 14.25 45 C 15.238281 45.496094 15.238281 45.496094 16.25 46 C 16.25 46.246094 16.25 46.496094 16.25 46.75 C 15.914062 46.554688 15.582031 46.355469 15.25 46.15625 C 15.066406 46.046875 14.878906 45.933594 14.6875 45.824219 C 14.542969 45.714844 14.398438 45.609375 14.25 45.5 C 14.25 45.335938 14.25 45.171875 14.25 45 Z M 14.25 45 "/>
<path style=" stroke:none;fill-rule:nonzero;fill:rgb(16.470589%,14.509805%,10.980392%);fill-opacity:1;" d="M 14.25 27.25 C 15.238281 27.746094 15.238281 27.746094 16.25 28.25 C 16.25 28.414062 16.25 28.578125 16.25 28.75 C 15.507812 28.46875 14.917969 28.195312 14.25 27.75 C 14.25 27.585938 14.25 27.421875 14.25 27.25 Z M 14.25 27.25 "/>
</g>
</svg>
