<?xml version="1.0" encoding="UTF-8"?>
<svg xmlns="http://www.w3.org/2000/svg" xmlns:xlink="http://www.w3.org/1999/xlink" width="64" height="64" viewBox="0 0 64 64" version="1.1">
<g id="surface1">
<path style=" stroke:none;fill-rule:nonzero;fill:rgb(99.607843%,32.156864%,89.803922%);fill-opacity:1;" d="M 22.4375 7.140625 C 24.691406 8.902344 26.214844 11.175781 26.75 14 C 26.96875 16.285156 26.835938 18.242188 25.921875 20.386719 C 25.699219 20.972656 25.699219 20.972656 25.890625 21.4375 C 26.421875 22.269531 27.101562 22.914062 27.796875 23.605469 C 27.957031 23.761719 28.113281 23.921875 28.28125 24.085938 C 28.800781 24.609375 29.328125 25.128906 29.851562 25.652344 C 30.21875 26.015625 30.578125 26.378906 30.945312 26.742188 C 31.898438 27.695312 32.859375 28.648438 33.816406 29.601562 C 34.796875 30.574219 35.773438 31.546875 36.746094 32.523438 C 38.664062 34.433594 40.582031 36.34375 42.5 38.25 C 42.671875 38.199219 42.835938 38.148438 43.011719 38.09375 C 43.234375 38.027344 43.457031 37.960938 43.6875 37.890625 C 43.90625 37.824219 44.128906 37.757812 44.355469 37.6875 C 47.210938 36.851562 50.300781 36.925781 53 38.25 C 55.75 39.824219 57.703125 42.109375 58.59375 45.175781 C 59.226562 48.515625 58.761719 51.589844 56.859375 54.4375 C 55.003906 56.808594 52.710938 58.214844 49.75 58.75 C 46.355469 59.089844 43.585938 58.441406 40.886719 56.332031 C 38.710938 54.34375 37.441406 51.960938 37.15625 49.027344 C 37.070312 47.082031 37.308594 45.417969 38.078125 43.613281 C 38.300781 43.027344 38.300781 43.027344 38.109375 42.5625 C 37.578125 41.730469 36.898438 41.085938 36.203125 40.394531 C 36.042969 40.234375 35.886719 40.078125 35.71875 39.914062 C 35.199219 39.390625 34.671875 38.867188 34.148438 38.347656 C 33.78125 37.984375 33.421875 37.625 33.054688 37.257812 C 32.101562 36.304688 31.140625 35.351562 30.183594 34.398438 C 29.203125 33.425781 28.226562 32.449219 27.253906 31.476562 C 25.335938 29.566406 23.417969 27.65625 21.5 25.75 C 21.335938 25.800781 21.167969 25.851562 20.996094 25.90625 C 20.777344 25.972656 20.554688 26.039062 20.328125 26.109375 C 20.109375 26.175781 19.890625 26.242188 19.671875 26.3125 C 16.78125 27.125 13.722656 27.070312 11 25.75 C 8.25 24.179688 6.296875 21.886719 5.40625 18.824219 C 4.773438 15.484375 5.238281 12.414062 7.140625 9.5625 C 10.90625 4.738281 17.378906 3.761719 22.4375 7.140625 Z M 12 12.5 C 11.03125 13.847656 10.683594 15.082031 10.75 16.75 C 11.101562 18.40625 11.90625 19.574219 13.28125 20.5625 C 14.535156 21.21875 15.921875 21.425781 17.308594 21.128906 C 18.875 20.59375 20.015625 19.757812 20.800781 18.261719 C 21.324219 16.914062 21.425781 15.542969 20.953125 14.171875 C 20.273438 12.652344 19.324219 11.609375 17.75 11 C 15.539062 10.46875 13.632812 10.867188 12 12.5 Z M 44 44.5 C 43.03125 45.847656 42.683594 47.082031 42.75 48.75 C 43.101562 50.40625 43.90625 51.574219 45.28125 52.5625 C 46.535156 53.21875 47.921875 53.425781 49.308594 53.128906 C 50.875 52.59375 52.015625 51.757812 52.800781 50.261719 C 53.324219 48.914062 53.425781 47.542969 52.953125 46.171875 C 52.273438 44.652344 51.324219 43.609375 49.75 43 C 47.539062 42.46875 45.632812 42.867188 44 44.5 Z M 44 44.5 "/>
<path style=" stroke:none;fill-rule:nonzero;fill:rgb(99.607843%,32.156864%,89.803922%);fill-opacity:1;" d="M 54.4375 39.140625 C 56.691406 40.902344 58.214844 43.175781 58.75 46 C 59.082031 49.445312 58.503906 52.339844 56.328125 55.113281 C 54.273438 57.367188 51.84375 58.539062 48.816406 58.84375 C 45.4375 58.953125 42.757812 58.039062 40.25 55.75 C 37.917969 53.199219 37.011719 50.40625 37.148438 46.984375 C 37.3125 45.386719 37.78125 43.933594 38.5 42.5 C 38.664062 42.5 38.828125 42.5 39 42.5 C 39.066406 42.351562 39.136719 42.207031 39.203125 42.054688 C 39.839844 40.859375 40.835938 39.707031 42 39 C 42.164062 39 42.328125 39 42.5 39 C 42.5 38.835938 42.5 38.671875 42.5 38.5 C 42.894531 38.339844 43.292969 38.175781 43.6875 38.015625 C 43.90625 37.925781 44.128906 37.835938 44.355469 37.742188 C 47.726562 36.46875 51.5 37.179688 54.4375 39.140625 Z M 44 44.5 C 43.03125 45.847656 42.683594 47.082031 42.75 48.75 C 43.101562 50.40625 43.90625 51.574219 45.28125 52.5625 C 46.535156 53.21875 47.921875 53.425781 49.308594 53.128906 C 50.875 52.59375 52.015625 51.757812 52.800781 50.261719 C 53.324219 48.914062 53.425781 47.542969 52.953125 46.171875 C 52.273438 44.652344 51.324219 43.609375 49.75 43 C 47.539062 42.46875 45.632812 42.867188 44 44.5 Z M 44 44.5 "/>
<path style=" stroke:none;fill-rule:nonzero;fill:rgb(96.470588%,83.137256%,24.313726%);fill-opacity:1;" d="M 25 21.5 C 26.183594 21.71875 26.808594 22.453125 27.628906 23.28125 C 27.789062 23.441406 27.949219 23.601562 28.117188 23.765625 C 28.648438 24.296875 29.175781 24.824219 29.707031 25.359375 C 30.074219 25.726562 30.445312 26.09375 30.8125 26.460938 C 31.585938 27.234375 32.355469 28.003906 33.125 28.777344 C 34.113281 29.769531 35.105469 30.761719 36.097656 31.746094 C 36.859375 32.503906 37.621094 33.265625 38.378906 34.027344 C 38.742188 34.390625 39.109375 34.757812 39.476562 35.121094 C 39.984375 35.632812 40.492188 36.140625 41 36.65625 C 41.15625 36.804688 41.308594 36.957031 41.464844 37.113281 C 42.5 38.164062 42.5 38.164062 42.5 39 C 42.050781 39.394531 42.050781 39.394531 41.453125 39.8125 C 40.378906 40.609375 39.710938 41.375 39 42.5 C 38.214844 42.355469 37.804688 42.148438 37.246094 41.585938 C 37.101562 41.441406 36.960938 41.300781 36.8125 41.15625 C 36.660156 41 36.507812 40.84375 36.351562 40.683594 C 36.183594 40.519531 36.023438 40.359375 35.851562 40.191406 C 35.3125 39.648438 34.773438 39.105469 34.238281 38.5625 C 33.863281 38.183594 33.488281 37.808594 33.113281 37.433594 C 32.128906 36.449219 31.148438 35.457031 30.167969 34.46875 C 29.164062 33.457031 28.160156 32.449219 27.15625 31.441406 C 25.183594 29.460938 23.21875 27.484375 21.25 25.5 C 21.902344 24.835938 22.539062 24.21875 23.265625 23.640625 C 24.042969 22.960938 24.472656 22.371094 25 21.5 Z M 25 21.5 "/>
</g>
</svg>
