<?xml version="1.0" encoding="UTF-8"?>
<svg xmlns="http://www.w3.org/2000/svg" xmlns:xlink="http://www.w3.org/1999/xlink" width="64" height="64" viewBox="0 0 64 64" version="1.1">
<g id="surface1">
<path style=" stroke:none;fill-rule:nonzero;fill:rgb(54.509807%,80.000001%,89.803922%);fill-opacity:1;" d="M 5.398438 6.871094 C 5.636719 6.867188 5.875 6.867188 6.117188 6.867188 C 6.910156 6.863281 7.699219 6.863281 8.492188 6.867188 C 9.058594 6.863281 9.628906 6.863281 10.195312 6.863281 C 11.738281 6.855469 13.28125 6.855469 14.824219 6.855469 C 16.113281 6.859375 17.398438 6.855469 18.6875 6.855469 C 21.898438 6.851562 25.113281 6.851562 28.324219 6.855469 C 31.113281 6.863281 33.898438 6.855469 36.6875 6.847656 C 39.550781 6.839844 42.414062 6.839844 45.277344 6.839844 C 46.886719 6.84375 48.492188 6.839844 50.101562 6.835938 C 51.613281 6.832031 53.125 6.832031 54.632812 6.839844 C 55.1875 6.839844 55.742188 6.839844 56.296875 6.835938 C 57.054688 6.832031 57.8125 6.835938 58.570312 6.84375 C 58.894531 6.839844 58.894531 6.839844 59.230469 6.832031 C 60.765625 6.855469 61.847656 7.214844 63 8.25 C 63.929688 9.355469 64.125 10.445312 64.128906 11.867188 C 64.132812 12.046875 64.132812 12.226562 64.132812 12.410156 C 64.140625 13.011719 64.136719 13.609375 64.132812 14.207031 C 64.132812 14.636719 64.136719 15.066406 64.140625 15.496094 C 64.144531 16.664062 64.144531 17.832031 64.140625 18.996094 C 64.140625 19.972656 64.144531 20.945312 64.144531 21.921875 C 64.148438 24.222656 64.148438 26.519531 64.144531 28.820312 C 64.140625 31.191406 64.144531 33.5625 64.152344 35.933594 C 64.160156 37.972656 64.160156 40.007812 64.160156 42.046875 C 64.15625 43.261719 64.15625 44.476562 64.164062 45.695312 C 64.167969 46.835938 64.167969 47.980469 64.160156 49.125 C 64.160156 49.542969 64.160156 49.960938 64.160156 50.382812 C 64.1875 54.175781 64.1875 54.175781 63.1875 55.613281 C 61.707031 56.917969 60.515625 57.144531 58.601562 57.128906 C 58.363281 57.132812 58.125 57.132812 57.882812 57.132812 C 57.089844 57.140625 56.300781 57.136719 55.507812 57.132812 C 54.941406 57.136719 54.371094 57.136719 53.804688 57.140625 C 52.261719 57.144531 50.71875 57.144531 49.175781 57.140625 C 47.890625 57.140625 46.601562 57.144531 45.3125 57.144531 C 42.101562 57.148438 38.890625 57.148438 35.675781 57.144531 C 32.890625 57.140625 30.101562 57.144531 27.3125 57.152344 C 24.453125 57.160156 21.585938 57.160156 18.722656 57.160156 C 17.113281 57.15625 15.507812 57.160156 13.898438 57.164062 C 12.390625 57.167969 10.875 57.167969 9.367188 57.160156 C 8.8125 57.160156 8.257812 57.160156 7.703125 57.160156 C 6.945312 57.167969 6.1875 57.164062 5.429688 57.15625 C 5.210938 57.160156 4.992188 57.164062 4.769531 57.167969 C 3.238281 57.144531 2.152344 56.785156 1 55.75 C 0.0703125 54.644531 -0.125 53.554688 -0.128906 52.132812 C -0.132812 51.953125 -0.132812 51.773438 -0.132812 51.589844 C -0.136719 50.988281 -0.136719 50.390625 -0.132812 49.792969 C -0.136719 49.363281 -0.136719 48.933594 -0.140625 48.5 C -0.144531 47.335938 -0.144531 46.167969 -0.144531 45.003906 C -0.140625 44.027344 -0.144531 43.054688 -0.144531 42.078125 C -0.148438 39.777344 -0.148438 37.480469 -0.144531 35.179688 C -0.140625 32.808594 -0.144531 30.4375 -0.152344 28.066406 C -0.160156 26.027344 -0.160156 23.992188 -0.160156 21.953125 C -0.15625 20.738281 -0.160156 19.519531 -0.164062 18.304688 C -0.167969 17.164062 -0.167969 16.019531 -0.160156 14.875 C -0.160156 14.457031 -0.160156 14.039062 -0.164062 13.617188 C -0.1875 9.828125 -0.1875 9.828125 0.8125 8.386719 C 2.292969 7.082031 3.484375 6.855469 5.398438 6.871094 Z M 5.398438 6.871094 "/>
<path style=" stroke:none;fill-rule:nonzero;fill:rgb(79.607844%,88.627452%,91.37255%);fill-opacity:1;" d="M 7.828125 19.90625 C 8.042969 19.90625 8.257812 19.902344 8.476562 19.902344 C 9.199219 19.898438 9.921875 19.898438 10.644531 19.902344 C 11.160156 19.902344 11.675781 19.898438 12.191406 19.898438 C 13.597656 19.894531 15 19.898438 16.402344 19.898438 C 17.871094 19.902344 19.335938 19.898438 20.804688 19.898438 C 23.269531 19.898438 25.730469 19.898438 28.195312 19.902344 C 31.046875 19.90625 33.898438 19.90625 36.75 19.898438 C 39.195312 19.898438 41.640625 19.898438 44.085938 19.898438 C 45.546875 19.898438 47.007812 19.898438 48.472656 19.898438 C 49.847656 19.894531 51.21875 19.898438 52.59375 19.902344 C 53.097656 19.902344 53.601562 19.902344 54.109375 19.898438 C 54.796875 19.898438 55.484375 19.898438 56.171875 19.90625 C 56.472656 19.902344 56.472656 19.902344 56.785156 19.898438 C 58.125 19.914062 58.125 19.914062 58.75 20.335938 C 59.136719 20.972656 59.082031 21.507812 59.074219 22.246094 C 59.070312 22.535156 59.066406 22.828125 59.066406 23.128906 C 59.0625 23.429688 59.054688 23.734375 59.046875 24.046875 C 59.042969 24.351562 59.039062 24.660156 59.035156 24.976562 C 59.027344 25.734375 59.015625 26.492188 59 27.25 C 58.082031 26.863281 57.503906 26.3125 56.808594 25.605469 C 56.585938 25.382812 56.363281 25.160156 56.136719 24.929688 C 55.90625 24.695312 55.675781 24.460938 55.4375 24.21875 C 55.199219 23.980469 54.964844 23.742188 54.726562 23.503906 C 54.152344 22.917969 53.574219 22.335938 53 21.75 C 52.378906 21.996094 52.378906 21.996094 51.75 22.25 C 51.886719 23.21875 52.316406 23.65625 53.007812 24.332031 C 53.210938 24.53125 53.414062 24.730469 53.621094 24.9375 C 53.832031 25.144531 54.046875 25.351562 54.265625 25.5625 C 54.476562 25.773438 54.691406 25.980469 54.914062 26.199219 C 55.441406 26.71875 55.96875 27.234375 56.5 27.75 C 56.136719 28.589844 55.671875 29.136719 55.019531 29.777344 C 54.832031 29.964844 54.640625 30.15625 54.445312 30.351562 C 54.246094 30.542969 54.046875 30.738281 53.84375 30.9375 C 53.644531 31.132812 53.441406 31.335938 53.234375 31.539062 C 52.742188 32.027344 52.246094 32.515625 51.75 33 C 52 33.496094 52 33.496094 52.25 34 C 53.25 34.105469 53.25 34.105469 53.839844 33.515625 C 54.046875 33.296875 54.261719 33.078125 54.476562 32.851562 C 54.648438 32.675781 54.648438 32.675781 54.824219 32.496094 C 55.1875 32.128906 55.546875 31.75 55.90625 31.375 C 56.269531 31 56.628906 30.625 56.992188 30.253906 C 57.324219 29.914062 57.652344 29.570312 57.976562 29.230469 C 58.5 28.75 58.5 28.75 59 28.75 C 59.019531 31.667969 59.03125 34.59375 59.039062 37.511719 C 59.042969 38.867188 59.046875 40.226562 59.054688 41.578125 C 59.066406 42.886719 59.066406 44.195312 59.070312 45.503906 C 59.074219 46.003906 59.074219 46.503906 59.078125 47.003906 C 59.085938 47.703125 59.085938 48.398438 59.085938 49.101562 C 59.089844 49.308594 59.089844 49.515625 59.09375 49.730469 C 59.085938 51.152344 59.085938 51.152344 58.617188 51.683594 C 58.4375 51.839844 58.4375 51.839844 58.25 52 C 58.003906 51.917969 57.753906 51.835938 57.5 51.75 C 57.582031 51.667969 57.664062 51.585938 57.75 51.5 C 57.777344 50.984375 57.785156 50.46875 57.785156 49.953125 C 57.785156 49.480469 57.785156 49.480469 57.785156 49.003906 C 57.785156 48.835938 57.785156 48.671875 57.785156 48.503906 C 57.78125 48.003906 57.785156 47.5 57.785156 46.996094 C 57.785156 46.683594 57.785156 46.371094 57.785156 46.046875 C 57.785156 45.613281 57.785156 45.613281 57.785156 45.167969 C 57.824219 44.519531 57.824219 44.519531 57.5 44.25 C 57.035156 44.226562 56.570312 44.21875 56.105469 44.21875 C 55.804688 44.21875 55.5 44.21875 55.1875 44.21875 C 54.847656 44.21875 54.511719 44.21875 54.171875 44.21875 C 53.816406 44.21875 53.464844 44.21875 53.109375 44.21875 C 52.144531 44.214844 51.179688 44.214844 50.214844 44.21875 C 49.207031 44.21875 48.199219 44.21875 47.191406 44.21875 C 45.5 44.214844 43.804688 44.21875 42.113281 44.21875 C 40.15625 44.21875 38.195312 44.21875 36.234375 44.21875 C 34.554688 44.214844 32.878906 44.214844 31.199219 44.21875 C 30.191406 44.21875 29.191406 44.21875 28.1875 44.214844 C 27.242188 44.214844 26.296875 44.214844 25.351562 44.21875 C 25.003906 44.21875 24.660156 44.21875 24.3125 44.21875 C 23.839844 44.21875 23.367188 44.21875 22.894531 44.21875 C 22.628906 44.21875 22.367188 44.21875 22.09375 44.21875 C 21.511719 44.183594 21.511719 44.183594 21.25 44.5 C 21.226562 45.054688 21.222656 45.609375 21.226562 46.164062 C 21.226562 46.332031 21.226562 46.496094 21.226562 46.667969 C 21.226562 47.199219 21.230469 47.730469 21.234375 48.265625 C 21.234375 48.625 21.234375 48.984375 21.238281 49.347656 C 21.242188 50.230469 21.246094 51.113281 21.25 52 C 20.753906 52 20.261719 52 19.75 52 C 19.75 51.773438 19.753906 51.546875 19.753906 51.316406 C 19.757812 50.480469 19.761719 49.644531 19.761719 48.808594 C 19.765625 48.445312 19.765625 48.085938 19.769531 47.722656 C 19.769531 47.203125 19.773438 46.683594 19.773438 46.164062 C 19.777344 45.851562 19.777344 45.539062 19.777344 45.21875 C 19.832031 44.523438 19.832031 44.523438 19.5 44.25 C 19.097656 44.226562 18.6875 44.21875 18.285156 44.21875 C 18.023438 44.21875 17.761719 44.21875 17.496094 44.214844 C 17.214844 44.214844 16.929688 44.21875 16.640625 44.21875 C 16.351562 44.21875 16.066406 44.21875 15.769531 44.21875 C 15.160156 44.214844 14.550781 44.21875 13.941406 44.21875 C 13.003906 44.21875 12.066406 44.21875 11.128906 44.214844 C 10.539062 44.214844 9.949219 44.21875 9.359375 44.21875 C 8.9375 44.21875 8.9375 44.21875 8.503906 44.214844 C 8.246094 44.21875 7.984375 44.21875 7.71875 44.21875 C 7.488281 44.21875 7.257812 44.21875 7.019531 44.21875 C 6.503906 44.191406 6.503906 44.191406 6.25 44.5 C 6.226562 45.011719 6.21875 45.523438 6.214844 46.039062 C 6.214844 46.351562 6.214844 46.664062 6.214844 46.984375 C 6.214844 47.316406 6.21875 47.644531 6.21875 47.984375 C 6.21875 48.3125 6.214844 48.640625 6.214844 48.980469 C 6.214844 49.292969 6.214844 49.605469 6.214844 49.929688 C 6.21875 50.21875 6.21875 50.507812 6.21875 50.804688 C 6.203125 51.488281 6.203125 51.488281 6.5 52 C 5.785156 51.855469 5.535156 51.785156 5 51.25 C 4.953125 50.535156 4.9375 49.84375 4.941406 49.128906 C 4.941406 48.90625 4.941406 48.691406 4.941406 48.460938 C 4.941406 47.734375 4.949219 47.007812 4.949219 46.28125 C 4.953125 45.773438 4.953125 45.273438 4.953125 44.765625 C 4.957031 43.441406 4.960938 42.113281 4.964844 40.785156 C 4.972656 39.433594 4.972656 38.078125 4.976562 36.726562 C 4.980469 34.066406 4.988281 31.40625 5 28.75 C 5.910156 29.175781 6.464844 29.671875 7.15625 30.402344 C 7.375 30.628906 7.589844 30.851562 7.816406 31.082031 C 8.273438 31.558594 8.726562 32.039062 9.183594 32.519531 C 9.402344 32.742188 9.617188 32.96875 9.84375 33.195312 C 10.039062 33.40625 10.238281 33.613281 10.441406 33.828125 C 10.960938 34.320312 10.960938 34.320312 11.574219 34.191406 C 12.039062 34.039062 12.039062 34.039062 12.1875 33.570312 C 12.316406 32.960938 12.316406 32.960938 11.84375 32.449219 C 11.644531 32.257812 11.441406 32.0625 11.234375 31.863281 C 10.914062 31.546875 10.914062 31.546875 10.582031 31.226562 C 10.355469 31.003906 10.125 30.789062 9.890625 30.5625 C 9.664062 30.339844 9.4375 30.117188 9.199219 29.890625 C 8.636719 29.339844 8.070312 28.792969 7.5 28.25 C 7.863281 27.40625 8.320312 26.882812 8.988281 26.257812 C 9.179688 26.074219 9.371094 25.890625 9.566406 25.699219 C 9.972656 25.316406 10.378906 24.933594 10.785156 24.550781 C 10.976562 24.363281 11.164062 24.183594 11.363281 23.992188 C 11.539062 23.824219 11.714844 23.660156 11.894531 23.488281 C 12.316406 23.023438 12.316406 23.023438 12.179688 22.4375 C 12.039062 21.960938 12.039062 21.960938 11.582031 21.800781 C 10.949219 21.679688 10.949219 21.679688 10.390625 22.226562 C 10.167969 22.457031 9.945312 22.691406 9.714844 22.929688 C 9.597656 23.050781 9.476562 23.175781 9.355469 23.300781 C 8.972656 23.691406 8.597656 24.085938 8.21875 24.484375 C 7.839844 24.878906 7.457031 25.273438 7.078125 25.667969 C 6.730469 26.023438 6.386719 26.382812 6.046875 26.742188 C 5.5 27.25 5.5 27.25 5 27.25 C 4.976562 26.183594 4.964844 25.113281 4.953125 24.046875 C 4.945312 23.742188 4.941406 23.441406 4.933594 23.128906 C 4.929688 22.835938 4.929688 22.542969 4.925781 22.246094 C 4.921875 21.976562 4.917969 21.707031 4.914062 21.433594 C 5 20.75 5 20.75 5.25 20.335938 C 6.046875 19.800781 6.902344 19.898438 7.828125 19.90625 Z M 7.828125 19.90625 "/>
<path style=" stroke:none;fill-rule:nonzero;fill:rgb(0%,0%,0%);fill-opacity:1;" d="M 5.398438 6.871094 C 5.636719 6.867188 5.875 6.867188 6.117188 6.867188 C 6.910156 6.863281 7.699219 6.863281 8.492188 6.867188 C 9.058594 6.863281 9.628906 6.863281 10.195312 6.863281 C 11.738281 6.855469 13.28125 6.855469 14.824219 6.855469 C 16.113281 6.859375 17.398438 6.855469 18.6875 6.855469 C 21.898438 6.851562 25.113281 6.851562 28.324219 6.855469 C 31.113281 6.863281 33.898438 6.855469 36.6875 6.847656 C 39.550781 6.839844 42.414062 6.839844 45.277344 6.839844 C 46.886719 6.84375 48.492188 6.839844 50.101562 6.835938 C 51.613281 6.832031 53.125 6.832031 54.632812 6.839844 C 55.1875 6.839844 55.742188 6.839844 56.296875 6.835938 C 57.054688 6.832031 57.8125 6.835938 58.570312 6.84375 C 58.894531 6.839844 58.894531 6.839844 59.230469 6.832031 C 60.765625 6.855469 61.847656 7.214844 63 8.25 C 63.929688 9.355469 64.125 10.445312 64.128906 11.867188 C 64.132812 12.046875 64.132812 12.226562 64.132812 12.410156 C 64.140625 13.011719 64.136719 13.609375 64.132812 14.207031 C 64.132812 14.636719 64.136719 15.066406 64.140625 15.496094 C 64.144531 16.664062 64.144531 17.832031 64.140625 18.996094 C 64.140625 19.972656 64.144531 20.945312 64.144531 21.921875 C 64.148438 24.222656 64.148438 26.519531 64.144531 28.820312 C 64.140625 31.191406 64.144531 33.5625 64.152344 35.933594 C 64.160156 37.972656 64.160156 40.007812 64.160156 42.046875 C 64.15625 43.261719 64.15625 44.476562 64.164062 45.695312 C 64.167969 46.835938 64.167969 47.980469 64.160156 49.125 C 64.160156 49.542969 64.160156 49.960938 64.160156 50.382812 C 64.1875 54.175781 64.1875 54.175781 63.1875 55.613281 C 61.707031 56.917969 60.515625 57.144531 58.601562 57.128906 C 58.363281 57.132812 58.125 57.132812 57.882812 57.132812 C 57.089844 57.140625 56.300781 57.136719 55.507812 57.132812 C 54.941406 57.136719 54.371094 57.136719 53.804688 57.140625 C 52.261719 57.144531 50.71875 57.144531 49.175781 57.140625 C 47.890625 57.140625 46.601562 57.144531 45.3125 57.144531 C 42.101562 57.148438 38.890625 57.148438 35.675781 57.144531 C 32.890625 57.140625 30.101562 57.144531 27.3125 57.152344 C 24.453125 57.160156 21.585938 57.160156 18.722656 57.160156 C 17.113281 57.15625 15.507812 57.160156 13.898438 57.164062 C 12.390625 57.167969 10.875 57.167969 9.367188 57.160156 C 8.8125 57.160156 8.257812 57.160156 7.703125 57.160156 C 6.945312 57.167969 6.1875 57.164062 5.429688 57.15625 C 5.210938 57.160156 4.992188 57.164062 4.769531 57.167969 C 3.238281 57.144531 2.152344 56.785156 1 55.75 C 0.0703125 54.644531 -0.125 53.554688 -0.128906 52.132812 C -0.132812 51.953125 -0.132812 51.773438 -0.132812 51.589844 C -0.136719 50.988281 -0.136719 50.390625 -0.132812 49.792969 C -0.136719 49.363281 -0.136719 48.933594 -0.140625 48.5 C -0.144531 47.335938 -0.144531 46.167969 -0.144531 45.003906 C -0.140625 44.027344 -0.144531 43.054688 -0.144531 42.078125 C -0.148438 39.777344 -0.148438 37.480469 -0.144531 35.179688 C -0.140625 32.808594 -0.144531 30.4375 -0.152344 28.066406 C -0.160156 26.027344 -0.160156 23.992188 -0.160156 21.953125 C -0.15625 20.738281 -0.160156 19.519531 -0.164062 18.304688 C -0.167969 17.164062 -0.167969 16.019531 -0.160156 14.875 C -0.160156 14.457031 -0.160156 14.039062 -0.164062 13.617188 C -0.1875 9.828125 -0.1875 9.828125 0.8125 8.386719 C 2.292969 7.082031 3.484375 6.855469 5.398438 6.871094 Z M 2.25 10.25 C 1.542969 11.667969 2 13.414062 2 15 C 18.5 15 35 15 52 15 C 52 15.660156 52 16.320312 52 17 C 35.5 17 19 17 2 17 C 1.984375 22.914062 1.96875 28.828125 1.953125 34.921875 C 1.945312 36.789062 1.9375 38.660156 1.929688 40.582031 C 1.929688 42.257812 1.929688 42.257812 1.929688 43.929688 C 1.929688 44.675781 1.925781 45.421875 1.921875 46.167969 C 1.917969 47.117188 1.914062 48.070312 1.917969 49.019531 C 1.914062 49.367188 1.914062 49.71875 1.910156 50.070312 C 1.90625 50.539062 1.910156 51.011719 1.910156 51.484375 C 1.910156 51.746094 1.910156 52.011719 1.910156 52.285156 C 2.042969 53.324219 2.460938 53.929688 3.15625 54.695312 C 4.082031 55.167969 4.972656 55.105469 5.996094 55.097656 C 6.339844 55.097656 6.339844 55.097656 6.695312 55.097656 C 7.464844 55.101562 8.238281 55.097656 9.007812 55.097656 C 9.558594 55.097656 10.113281 55.097656 10.664062 55.101562 C 12.167969 55.105469 13.667969 55.105469 15.167969 55.101562 C 16.738281 55.097656 18.308594 55.101562 19.878906 55.101562 C 22.683594 55.105469 25.492188 55.101562 28.296875 55.097656 C 30.839844 55.09375 33.382812 55.09375 35.929688 55.097656 C 38.882812 55.101562 41.835938 55.105469 44.789062 55.101562 C 46.355469 55.097656 47.917969 55.097656 49.480469 55.101562 C 50.953125 55.105469 52.421875 55.105469 53.890625 55.097656 C 54.429688 55.097656 54.972656 55.097656 55.511719 55.097656 C 56.25 55.101562 56.984375 55.097656 57.722656 55.097656 C 58.042969 55.097656 58.042969 55.097656 58.371094 55.101562 C 59.527344 55.089844 60.328125 55.027344 61.25 54.25 C 61.96875 53.324219 62.09375 52.640625 62.089844 51.484375 C 62.089844 51.179688 62.089844 50.875 62.09375 50.558594 C 62.089844 50.222656 62.089844 49.890625 62.085938 49.554688 C 62.082031 49.199219 62.082031 48.84375 62.085938 48.488281 C 62.085938 47.527344 62.082031 46.566406 62.078125 45.605469 C 62.070312 44.597656 62.070312 43.589844 62.070312 42.585938 C 62.070312 40.683594 62.0625 38.777344 62.054688 36.875 C 62.046875 34.707031 62.042969 32.542969 62.039062 30.375 C 62.027344 25.917969 62.015625 21.457031 62 17 C 60.019531 17 58.039062 17 56 17 C 56 16.339844 56 15.679688 56 15 C 57.980469 15 59.957031 15 62 15 C 62.039062 13.992188 62.039062 13.992188 62.078125 12.96875 C 62.089844 12.761719 62.101562 12.550781 62.113281 12.339844 C 62.132812 11.328125 62.058594 10.679688 61.417969 9.875 C 60.304688 8.832031 59.230469 8.960938 57.785156 8.960938 C 57.554688 8.960938 57.328125 8.957031 57.089844 8.957031 C 56.320312 8.953125 55.546875 8.953125 54.773438 8.953125 C 54.222656 8.949219 53.671875 8.949219 53.117188 8.945312 C 51.304688 8.9375 49.488281 8.9375 47.675781 8.929688 C 47.050781 8.929688 46.425781 8.929688 45.800781 8.929688 C 43.207031 8.921875 40.609375 8.917969 38.015625 8.914062 C 37.339844 8.914062 36.667969 8.914062 35.992188 8.910156 C 35.742188 8.910156 35.742188 8.910156 35.488281 8.910156 C 32.773438 8.910156 30.0625 8.902344 27.347656 8.890625 C 24.5625 8.878906 21.777344 8.875 18.992188 8.871094 C 17.429688 8.871094 15.867188 8.867188 14.304688 8.863281 C 12.832031 8.855469 11.363281 8.851562 9.890625 8.855469 C 9.351562 8.855469 8.8125 8.851562 8.269531 8.847656 C 7.535156 8.839844 6.800781 8.84375 6.0625 8.847656 C 5.847656 8.84375 5.632812 8.839844 5.410156 8.835938 C 3.933594 8.855469 3.277344 9.179688 2.25 10.25 Z M 2.25 10.25 "/>
<path style=" stroke:none;fill-rule:nonzero;fill:rgb(85.882354%,85.882354%,85.882354%);fill-opacity:1;" d="M 5.9375 8.964844 C 6.167969 8.964844 6.394531 8.960938 6.632812 8.960938 C 7.40625 8.960938 8.175781 8.960938 8.949219 8.960938 C 9.503906 8.957031 10.054688 8.957031 10.605469 8.953125 C 12.109375 8.953125 13.613281 8.949219 15.117188 8.949219 C 16.058594 8.949219 16.996094 8.949219 17.933594 8.949219 C 20.53125 8.945312 23.128906 8.941406 25.730469 8.941406 C 25.976562 8.941406 25.976562 8.941406 26.230469 8.941406 C 26.398438 8.941406 26.566406 8.941406 26.738281 8.941406 C 27.074219 8.941406 27.414062 8.941406 27.753906 8.941406 C 28.003906 8.941406 28.003906 8.941406 28.257812 8.941406 C 30.976562 8.941406 33.691406 8.933594 36.40625 8.925781 C 39.195312 8.921875 41.980469 8.917969 44.769531 8.917969 C 46.335938 8.917969 47.898438 8.917969 49.464844 8.914062 C 50.9375 8.910156 52.410156 8.90625 53.882812 8.910156 C 54.425781 8.910156 54.964844 8.910156 55.503906 8.90625 C 56.242188 8.90625 56.980469 8.90625 57.71875 8.90625 C 57.933594 8.90625 58.148438 8.90625 58.371094 8.902344 C 59.796875 8.914062 60.621094 9.175781 61.699219 10.160156 C 62.164062 11.070312 62.078125 11.933594 62.046875 12.9375 C 62.03125 13.617188 62.015625 14.300781 62 15 C 60.019531 15 58.039062 15 56 15 C 56 15.328125 56 15.660156 56 16 C 54.679688 16 53.359375 16 52 16 C 52 15.667969 52 15.339844 52 15 C 35.5 15 19 15 2 15 C 2 10.75 2 10.75 3.25 9.25 C 4.085938 8.832031 5.019531 8.964844 5.9375 8.964844 Z M 5.9375 8.964844 "/>
<path style=" stroke:none;fill-rule:nonzero;fill:rgb(0%,0%,0%);fill-opacity:1;" d="M 7.898438 36.933594 C 8.09375 36.933594 8.289062 36.9375 8.492188 36.9375 C 8.804688 36.9375 8.804688 36.9375 9.125 36.933594 C 9.828125 36.933594 10.53125 36.933594 11.230469 36.9375 C 11.730469 36.9375 12.234375 36.933594 12.734375 36.933594 C 14.101562 36.929688 15.46875 36.929688 16.832031 36.933594 C 18.257812 36.933594 19.683594 36.933594 21.113281 36.933594 C 23.507812 36.929688 25.90625 36.933594 28.300781 36.9375 C 31.070312 36.9375 33.847656 36.9375 36.621094 36.933594 C 38.996094 36.929688 41.375 36.929688 43.753906 36.933594 C 45.175781 36.933594 46.597656 36.933594 48.015625 36.929688 C 49.355469 36.929688 50.691406 36.929688 52.027344 36.933594 C 52.515625 36.9375 53.007812 36.9375 53.503906 36.933594 C 54.167969 36.933594 54.839844 36.933594 55.507812 36.9375 C 55.703125 36.9375 55.898438 36.933594 56.101562 36.933594 C 57.441406 36.941406 57.441406 36.941406 58 37.5 C 58.066406 38.007812 58.066406 38.007812 58.066406 38.625 C 58.066406 38.84375 58.066406 39.066406 58.070312 39.296875 C 58.066406 39.527344 58.066406 39.761719 58.0625 40 C 58.066406 40.234375 58.066406 40.464844 58.070312 40.703125 C 58.066406 40.925781 58.066406 41.144531 58.066406 41.375 C 58.066406 41.578125 58.066406 41.78125 58.066406 41.992188 C 58 42.5 58 42.5 57.5 43 C 56.828125 43.050781 56.179688 43.066406 55.507812 43.0625 C 55.195312 43.066406 55.195312 43.066406 54.875 43.066406 C 54.175781 43.066406 53.472656 43.066406 52.769531 43.066406 C 52.265625 43.066406 51.765625 43.066406 51.265625 43.066406 C 49.898438 43.070312 48.53125 43.066406 47.167969 43.066406 C 45.742188 43.066406 44.316406 43.066406 42.886719 43.066406 C 40.492188 43.066406 38.097656 43.066406 35.699219 43.066406 C 32.925781 43.0625 30.15625 43.0625 27.378906 43.066406 C 25.003906 43.066406 22.625 43.066406 20.246094 43.066406 C 18.824219 43.066406 17.40625 43.066406 15.980469 43.066406 C 14.648438 43.070312 13.308594 43.066406 11.972656 43.066406 C 11.480469 43.066406 10.988281 43.066406 10.5 43.066406 C 9.828125 43.066406 9.160156 43.066406 8.492188 43.0625 C 8.296875 43.066406 8.097656 43.066406 7.898438 43.066406 C 6.558594 43.058594 6.558594 43.058594 6 42.5 C 5.933594 41.992188 5.933594 41.992188 5.933594 41.375 C 5.933594 41.152344 5.933594 40.929688 5.933594 40.703125 C 5.933594 40.355469 5.933594 40.355469 5.9375 40 C 5.933594 39.769531 5.933594 39.535156 5.933594 39.296875 C 5.933594 39.074219 5.933594 38.851562 5.933594 38.625 C 5.933594 38.421875 5.933594 38.21875 5.933594 38.007812 C 6.085938 36.828125 6.902344 36.941406 7.898438 36.933594 Z M 7.898438 36.933594 "/>
<path style=" stroke:none;fill-rule:nonzero;fill:rgb(0%,0%,0%);fill-opacity:1;" d="M 22.921875 43.9375 C 23.378906 43.933594 23.378906 43.933594 23.839844 43.929688 C 24.179688 43.933594 24.515625 43.933594 24.851562 43.9375 C 25.207031 43.933594 25.5625 43.933594 25.914062 43.929688 C 26.878906 43.929688 27.839844 43.929688 28.804688 43.933594 C 29.8125 43.933594 30.816406 43.933594 31.820312 43.929688 C 33.511719 43.929688 35.199219 43.929688 36.890625 43.933594 C 38.847656 43.9375 40.800781 43.9375 42.757812 43.933594 C 44.433594 43.929688 46.109375 43.929688 47.789062 43.929688 C 48.789062 43.933594 49.792969 43.933594 50.796875 43.929688 C 51.738281 43.929688 52.679688 43.929688 53.621094 43.933594 C 53.96875 43.933594 54.316406 43.933594 54.660156 43.933594 C 55.132812 43.929688 55.605469 43.933594 56.074219 43.9375 C 56.339844 43.9375 56.605469 43.9375 56.878906 43.9375 C 57.5 44 57.5 44 58 44.5 C 58.0625 45.191406 58.0625 45.191406 58.066406 46.0625 C 58.066406 46.375 58.070312 46.6875 58.070312 47.007812 C 58.066406 47.335938 58.0625 47.660156 58.0625 48 C 58.0625 48.328125 58.066406 48.652344 58.070312 48.992188 C 58.070312 49.304688 58.066406 49.617188 58.066406 49.9375 C 58.066406 50.222656 58.066406 50.511719 58.0625 50.808594 C 58 51.5 58 51.5 57.5 52 C 56.878906 52.0625 56.878906 52.0625 56.074219 52.0625 C 55.625 52.066406 55.625 52.066406 55.160156 52.070312 C 54.820312 52.066406 54.484375 52.066406 54.144531 52.0625 C 53.792969 52.066406 53.4375 52.066406 53.082031 52.066406 C 52.121094 52.070312 51.160156 52.070312 50.195312 52.066406 C 49.191406 52.066406 48.183594 52.066406 47.179688 52.070312 C 45.488281 52.070312 43.796875 52.066406 42.109375 52.0625 C 40.152344 52.0625 38.199219 52.0625 36.242188 52.066406 C 34.566406 52.070312 32.886719 52.070312 31.210938 52.066406 C 30.207031 52.066406 29.207031 52.066406 28.203125 52.070312 C 27.261719 52.070312 26.320312 52.070312 25.378906 52.066406 C 25.03125 52.0625 24.6875 52.0625 24.339844 52.066406 C 23.867188 52.066406 23.394531 52.066406 22.921875 52.0625 C 22.660156 52.0625 22.394531 52.0625 22.125 52.0625 C 21.5 52 21.5 52 21 51.5 C 20.9375 50.808594 20.9375 50.808594 20.933594 49.9375 C 20.933594 49.625 20.933594 49.3125 20.929688 48.992188 C 20.933594 48.664062 20.9375 48.335938 20.9375 48 C 20.9375 47.671875 20.933594 47.34375 20.929688 47.007812 C 20.933594 46.695312 20.933594 46.382812 20.933594 46.0625 C 20.933594 45.773438 20.9375 45.488281 20.9375 45.191406 C 21.0625 43.863281 21.769531 43.9375 22.921875 43.9375 Z M 22.921875 43.9375 "/>
<path style=" stroke:none;fill-rule:nonzero;fill:rgb(100%,79.607844%,34.901962%);fill-opacity:1;" d="M 23 46 C 33.890625 46 44.78125 46 56 46 C 56 47.320312 56 48.640625 56 50 C 45.109375 50 34.21875 50 23 50 C 23 48.679688 23 47.359375 23 46 Z M 23 46 "/>
<path style=" stroke:none;fill-rule:nonzero;fill:rgb(0%,0%,0%);fill-opacity:1;" d="M 7.742188 43.933594 C 8.128906 43.933594 8.128906 43.933594 8.523438 43.929688 C 8.945312 43.933594 8.945312 43.933594 9.375 43.933594 C 9.664062 43.933594 9.945312 43.933594 10.246094 43.933594 C 10.851562 43.933594 11.457031 43.933594 12.066406 43.933594 C 12.996094 43.9375 13.925781 43.933594 14.859375 43.933594 C 15.445312 43.933594 16.039062 43.933594 16.625 43.933594 C 16.90625 43.933594 17.183594 43.933594 17.476562 43.929688 C 17.730469 43.933594 17.992188 43.933594 18.257812 43.933594 C 18.601562 43.933594 18.601562 43.933594 18.949219 43.933594 C 19.5 44 19.5 44 20 44.5 C 20.066406 45.191406 20.066406 45.191406 20.066406 46.0625 C 20.066406 46.53125 20.066406 46.53125 20.066406 47.007812 C 20.066406 47.335938 20.066406 47.664062 20.0625 48 C 20.066406 48.492188 20.066406 48.492188 20.066406 48.992188 C 20.066406 49.304688 20.066406 49.617188 20.066406 49.9375 C 20.066406 50.226562 20.066406 50.511719 20.066406 50.808594 C 20 51.5 20 51.5 19.5 52 C 18.949219 52.0625 18.949219 52.0625 18.257812 52.066406 C 18 52.066406 17.738281 52.066406 17.476562 52.070312 C 17.054688 52.066406 17.054688 52.066406 16.625 52.066406 C 16.195312 52.066406 16.195312 52.066406 15.757812 52.066406 C 15.148438 52.066406 14.542969 52.066406 13.933594 52.066406 C 13.003906 52.0625 12.070312 52.066406 11.140625 52.066406 C 10.550781 52.066406 9.964844 52.066406 9.375 52.066406 C 9.09375 52.066406 8.816406 52.066406 8.523438 52.070312 C 8.136719 52.066406 8.136719 52.066406 7.742188 52.066406 C 7.515625 52.066406 7.285156 52.0625 7.050781 52.0625 C 6.5 52 6.5 52 6 51.5 C 5.933594 50.808594 5.933594 50.808594 5.933594 49.9375 C 5.933594 49.625 5.933594 49.3125 5.933594 48.992188 C 5.933594 48.664062 5.933594 48.335938 5.9375 48 C 5.933594 47.671875 5.933594 47.34375 5.933594 47.007812 C 5.933594 46.695312 5.933594 46.382812 5.933594 46.0625 C 5.933594 45.773438 5.933594 45.488281 5.933594 45.191406 C 6.050781 43.949219 6.640625 43.9375 7.742188 43.933594 Z M 7.742188 43.933594 "/>
<path style=" stroke:none;fill-rule:nonzero;fill:rgb(100%,88.235295%,40.784314%);fill-opacity:1;" d="M 8 39 C 23.839844 39 39.679688 39 56 39 C 56 39.660156 56 40.320312 56 41 C 40.160156 41 24.320312 41 8 41 C 8 40.339844 8 39.679688 8 39 Z M 8 39 "/>
<path style=" stroke:none;fill-rule:nonzero;fill:rgb(0%,0%,0%);fill-opacity:1;" d="M 43.0625 22.933594 C 43.53125 22.933594 43.53125 22.933594 44.007812 22.929688 C 44.5 22.933594 44.5 22.933594 45 22.9375 C 45.328125 22.9375 45.65625 22.933594 45.992188 22.929688 C 46.304688 22.929688 46.613281 22.933594 46.9375 22.933594 C 47.226562 22.933594 47.511719 22.933594 47.808594 22.9375 C 48.5 23 48.5 23 49 23.5 C 49.066406 24.007812 49.066406 24.007812 49.066406 24.625 C 49.066406 24.957031 49.066406 24.957031 49.066406 25.296875 C 49.066406 25.527344 49.066406 25.761719 49.0625 26 C 49.066406 26.347656 49.066406 26.347656 49.066406 26.703125 C 49.066406 26.925781 49.066406 27.144531 49.066406 27.375 C 49.066406 27.578125 49.066406 27.78125 49.066406 27.992188 C 49 28.5 49 28.5 48.5 29 C 47.9375 29.054688 47.9375 29.054688 47.246094 29.046875 C 47.003906 29.046875 46.753906 29.046875 46.5 29.042969 C 46.113281 29.039062 46.113281 29.039062 45.71875 29.03125 C 45.457031 29.027344 45.199219 29.027344 44.929688 29.023438 C 44.289062 29.019531 43.640625 29.007812 43 29 C 43 30.320312 43 31.640625 43 33 C 42.339844 33 41.679688 33 41 33 C 40.988281 31.65625 40.976562 30.3125 40.972656 28.96875 C 40.96875 28.511719 40.96875 28.054688 40.960938 27.597656 C 40.953125 26.941406 40.953125 26.285156 40.949219 25.625 C 40.949219 25.421875 40.945312 25.214844 40.941406 25.007812 C 40.941406 24.503906 40.96875 24 41 23.5 C 41.691406 22.8125 42.097656 22.9375 43.0625 22.933594 Z M 43.0625 22.933594 "/>
<path style=" stroke:none;fill-rule:nonzero;fill:rgb(0%,0%,0%);fill-opacity:1;" d="M 15 23 C 15.660156 23 16.320312 23 17 23 C 17 24.320312 17 25.640625 17 27 C 18.320312 27 19.640625 27 21 27 C 21 25.679688 21 24.359375 21 23 C 21.660156 23 22.320312 23 23 23 C 23 26.300781 23 29.601562 23 33 C 22.339844 33 21.679688 33 21 33 C 21 31.679688 21 30.359375 21 29 C 19.679688 29 18.359375 29 17 29 C 17 30.320312 17 31.640625 17 33 C 16.339844 33 15.679688 33 15 33 C 15 29.699219 15 26.398438 15 23 Z M 15 23 "/>
<path style=" stroke:none;fill-rule:nonzero;fill:rgb(94.901961%,60.000002%,9.803922%);fill-opacity:1;" d="M 8 46 C 11.300781 46 14.601562 46 18 46 C 18 47.320312 18 48.640625 18 50 C 14.699219 50 11.398438 50 8 50 C 8 48.679688 8 47.359375 8 46 Z M 8 46 "/>
<path style=" stroke:none;fill-rule:nonzero;fill:rgb(1.568628%,1.568628%,1.568628%);fill-opacity:1;" d="M 11.554688 21.519531 C 12 21.75 12 21.75 12.5 22.25 C 12.433594 23.210938 11.90625 23.679688 11.242188 24.332031 C 11.039062 24.53125 10.839844 24.730469 10.628906 24.9375 C 10.308594 25.246094 10.308594 25.246094 9.984375 25.5625 C 9.664062 25.875 9.664062 25.875 9.339844 26.199219 C 8.808594 26.71875 8.28125 27.234375 7.75 27.75 C 8.113281 28.59375 8.570312 29.113281 9.238281 29.742188 C 9.429688 29.925781 9.621094 30.109375 9.816406 30.300781 C 10.222656 30.683594 10.628906 31.070312 11.035156 31.449219 C 11.320312 31.726562 11.320312 31.726562 11.613281 32.007812 C 11.789062 32.175781 11.964844 32.34375 12.144531 32.511719 C 12.5 33 12.5 33 12.464844 33.53125 C 12.25 34 12.25 34 11.75 34.5 C 10.707031 34.460938 10.085938 33.707031 9.386719 33.011719 C 9.257812 32.886719 9.132812 32.761719 9 32.632812 C 8.734375 32.371094 8.46875 32.105469 8.203125 31.84375 C 7.796875 31.4375 7.386719 31.039062 6.972656 30.640625 C 6.714844 30.382812 6.457031 30.128906 6.199219 29.871094 C 6.074219 29.75 5.949219 29.632812 5.824219 29.511719 C 5.289062 28.96875 5.003906 28.648438 4.972656 27.875 C 5.339844 27.054688 5.867188 26.484375 6.496094 25.863281 C 6.683594 25.671875 6.683594 25.671875 6.875 25.476562 C 7.140625 25.210938 7.40625 24.949219 7.671875 24.683594 C 8.078125 24.28125 8.480469 23.871094 8.878906 23.460938 C 9.136719 23.203125 9.394531 22.945312 9.652344 22.6875 C 9.773438 22.566406 9.894531 22.445312 10.015625 22.316406 C 10.859375 21.496094 10.859375 21.496094 11.554688 21.519531 Z M 11.554688 21.519531 "/>
<path style=" stroke:none;fill-rule:nonzero;fill:rgb(1.176471%,1.176471%,1.176471%);fill-opacity:1;" d="M 52.5 21.5 C 53.898438 22.082031 54.882812 23.269531 55.941406 24.320312 C 56.328125 24.703125 56.722656 25.078125 57.113281 25.460938 C 57.363281 25.703125 57.609375 25.949219 57.859375 26.191406 C 58.082031 26.414062 58.308594 26.636719 58.539062 26.859375 C 59 27.5 59 27.5 59.027344 28.121094 C 58.660156 28.953125 58.113281 29.511719 57.46875 30.128906 C 57.339844 30.253906 57.210938 30.382812 57.082031 30.511719 C 56.675781 30.910156 56.265625 31.308594 55.859375 31.703125 C 55.582031 31.976562 55.308594 32.246094 55.03125 32.515625 C 54.359375 33.179688 53.679688 33.839844 53 34.5 C 52.054688 34.121094 51.996094 33.996094 51.5 33 C 53.066406 31.433594 54.636719 29.863281 56.25 28.25 C 55.792969 27.335938 55.484375 26.933594 54.761719 26.257812 C 54.574219 26.074219 54.378906 25.890625 54.183594 25.699219 C 53.777344 25.316406 53.371094 24.933594 52.964844 24.550781 C 52.773438 24.363281 52.585938 24.183594 52.386719 23.992188 C 52.121094 23.742188 52.121094 23.742188 51.855469 23.488281 C 51.5 23 51.5 23 51.523438 22.46875 C 51.75 22 51.75 22 52.5 21.5 Z M 52.5 21.5 "/>
<path style=" stroke:none;fill-rule:nonzero;fill:rgb(0%,0%,0%);fill-opacity:1;" d="M 33 23 C 34.980469 23 36.960938 23 39 23 C 39 23.660156 39 24.320312 39 25 C 38.339844 25 37.679688 25 37 25 C 37 27.640625 37 30.28125 37 33 C 36.339844 33 35.679688 33 35 33 C 35 30.359375 35 27.71875 35 25 C 34.339844 25 33.679688 25 33 25 C 33 24.339844 33 23.679688 33 23 Z M 33 23 "/>
<path style=" stroke:none;fill-rule:nonzero;fill:rgb(0%,0%,0%);fill-opacity:1;" d="M 25 23 C 26.980469 23 28.960938 23 31 23 C 31 23.660156 31 24.320312 31 25 C 30.339844 25 29.679688 25 29 25 C 29 27.640625 29 30.28125 29 33 C 28.339844 33 27.679688 33 27 33 C 27 30.359375 27 27.71875 27 25 C 26.339844 25 25.679688 25 25 25 C 25 24.339844 25 23.679688 25 23 Z M 25 23 "/>
<path style=" stroke:none;fill-rule:nonzero;fill:rgb(80.000001%,89.019608%,91.764706%);fill-opacity:1;" d="M 43 25 C 44.320312 25 45.640625 25 47 25 C 47 25.660156 47 26.320312 47 27 C 45.679688 27 44.359375 27 43 27 C 43 26.339844 43 25.679688 43 25 Z M 43 25 "/>
<path style=" stroke:none;fill-rule:nonzero;fill:rgb(0%,0%,0%);fill-opacity:1;" d="M 12 11 C 12.660156 11 13.320312 11 14 11 C 14 11.660156 14 12.320312 14 13 C 13.339844 13 12.679688 13 12 13 C 12 12.339844 12 11.679688 12 11 Z M 12 11 "/>
<path style=" stroke:none;fill-rule:nonzero;fill:rgb(0%,0%,0%);fill-opacity:1;" d="M 8 11 C 8.660156 11 9.320312 11 10 11 C 10 11.660156 10 12.320312 10 13 C 9.339844 13 8.679688 13 8 13 C 8 12.339844 8 11.679688 8 11 Z M 8 11 "/>
<path style=" stroke:none;fill-rule:nonzero;fill:rgb(0%,0%,0%);fill-opacity:1;" d="M 4 11 C 4.660156 11 5.320312 11 6 11 C 6 11.660156 6 12.320312 6 13 C 5.339844 13 4.679688 13 4 13 C 4 12.339844 4 11.679688 4 11 Z M 4 11 "/>
</g>
</svg>
