<?xml version="1.0" encoding="UTF-8"?>
<svg xmlns="http://www.w3.org/2000/svg" xmlns:xlink="http://www.w3.org/1999/xlink" width="64" height="64" viewBox="0 0 64 64" version="1.1">
<g id="surface1">
<path style=" stroke:none;fill-rule:nonzero;fill:rgb(83.529413%,91.37255%,98.431373%);fill-opacity:1;" d="M 29.878906 2.191406 C 30.140625 2.195312 30.398438 2.199219 30.664062 2.199219 C 30.945312 2.203125 31.226562 2.203125 31.515625 2.207031 C 31.808594 2.210938 32.101562 2.214844 32.40625 2.21875 C 32.851562 2.222656 32.851562 2.222656 33.304688 2.226562 C 34.035156 2.230469 34.769531 2.242188 35.5 2.25 C 35.914062 3.078125 35.777344 4 35.765625 4.90625 C 35.765625 5.105469 35.761719 5.308594 35.761719 5.511719 C 35.761719 6.007812 35.753906 6.503906 35.75 7 C 36.003906 7.03125 36.261719 7.058594 36.527344 7.089844 C 37.449219 7.242188 38.210938 7.472656 39.078125 7.8125 C 39.359375 7.921875 39.636719 8.035156 39.925781 8.144531 C 40.894531 8.5625 41.808594 9.042969 42.71875 9.566406 C 43.246094 9.804688 43.246094 9.804688 43.761719 9.597656 C 44.519531 9.058594 45.074219 8.351562 45.679688 7.644531 C 46.25 7.25 46.25 7.25 47.0625 7.261719 C 48.195312 7.546875 48.792969 8.082031 49.582031 8.894531 C 49.726562 9.035156 49.867188 9.171875 50.011719 9.316406 C 50.308594 9.617188 50.601562 9.914062 50.894531 10.214844 C 51.34375 10.671875 51.796875 11.121094 52.253906 11.570312 C 52.539062 11.859375 52.828125 12.152344 53.117188 12.441406 C 53.25 12.574219 53.386719 12.707031 53.527344 12.847656 C 54.339844 13.691406 54.746094 14.3125 54.75 15.5 C 54.304688 16.074219 53.921875 16.492188 53.390625 16.96875 C 53.257812 17.09375 53.125 17.21875 52.992188 17.347656 C 52.664062 17.652344 52.332031 17.949219 52 18.25 C 52.0625 18.378906 52.128906 18.511719 52.195312 18.644531 C 52.492188 19.253906 52.785156 19.859375 53.078125 20.46875 C 53.179688 20.671875 53.28125 20.878906 53.386719 21.089844 C 55 24.457031 55 24.457031 55 26.25 C 56.484375 26.25 57.96875 26.25 59.5 26.25 C 59.789062 26.824219 59.78125 27.152344 59.78125 27.789062 C 59.78125 28.003906 59.78125 28.21875 59.785156 28.4375 C 59.78125 28.785156 59.78125 28.785156 59.78125 29.140625 C 59.78125 29.378906 59.78125 29.617188 59.78125 29.859375 C 59.78125 30.363281 59.78125 30.867188 59.78125 31.367188 C 59.78125 32.136719 59.78125 32.910156 59.78125 33.679688 C 59.78125 34.167969 59.78125 34.65625 59.78125 35.140625 C 59.78125 35.375 59.78125 35.605469 59.785156 35.847656 C 59.78125 36.164062 59.78125 36.164062 59.78125 36.492188 C 59.78125 36.679688 59.78125 36.871094 59.78125 37.066406 C 59.75 37.5 59.75 37.5 59.5 37.75 C 59.164062 37.769531 58.828125 37.777344 58.492188 37.773438 C 58.289062 37.773438 58.089844 37.773438 57.878906 37.769531 C 57.664062 37.769531 57.453125 37.769531 57.234375 37.765625 C 57.019531 37.765625 56.808594 37.761719 56.589844 37.761719 C 56.058594 37.757812 55.527344 37.753906 55 37.75 C 54.980469 37.902344 54.957031 38.050781 54.9375 38.207031 C 54.550781 40.882812 53.214844 43.359375 52 45.75 C 52.199219 45.929688 52.402344 46.113281 52.609375 46.296875 C 52.871094 46.542969 53.128906 46.785156 53.390625 47.03125 C 53.523438 47.152344 53.65625 47.269531 53.796875 47.390625 C 54.171875 47.75 54.171875 47.75 54.75 48.5 C 54.746094 49.691406 54.339844 50.308594 53.527344 51.15625 C 53.390625 51.289062 53.253906 51.421875 53.117188 51.5625 C 52.976562 51.699219 52.835938 51.84375 52.691406 51.988281 C 52.394531 52.285156 52.097656 52.582031 51.800781 52.875 C 51.34375 53.324219 50.898438 53.785156 50.453125 54.242188 C 50.164062 54.53125 49.871094 54.816406 49.582031 55.105469 C 49.449219 55.242188 49.320312 55.378906 49.183594 55.519531 C 48.25 56.421875 47.550781 56.742188 46.25 56.75 C 45.53125 56.226562 45.53125 56.226562 44.890625 55.515625 C 44.675781 55.28125 44.457031 55.046875 44.234375 54.804688 C 44.074219 54.625 43.914062 54.4375 43.75 54.25 C 42.679688 54.585938 41.683594 55 40.671875 55.484375 C 37.425781 57 37.425781 57 35.75 57 C 35.753906 57.300781 35.753906 57.601562 35.757812 57.914062 C 35.761719 58.304688 35.761719 58.699219 35.765625 59.09375 C 35.769531 59.292969 35.769531 59.492188 35.773438 59.695312 C 35.777344 61.191406 35.777344 61.191406 35.5 61.75 C 34.46875 61.761719 33.4375 61.773438 32.40625 61.78125 C 32.113281 61.785156 31.816406 61.789062 31.515625 61.792969 C 31.09375 61.796875 31.09375 61.796875 30.664062 61.796875 C 30.40625 61.800781 30.148438 61.804688 29.878906 61.804688 C 29.25 61.75 29.25 61.75 28.75 61.25 C 28.683594 60.722656 28.683594 60.722656 28.683594 60.058594 C 28.683594 59.8125 28.683594 59.5625 28.679688 59.304688 C 28.679688 59.039062 28.683594 58.769531 28.683594 58.492188 C 28.683594 58.21875 28.683594 57.941406 28.683594 57.660156 C 28.683594 57.078125 28.683594 56.496094 28.683594 55.914062 C 28.6875 55.019531 28.683594 54.128906 28.679688 53.234375 C 28.683594 52.671875 28.683594 52.105469 28.683594 51.539062 C 28.683594 51.273438 28.679688 51.003906 28.679688 50.726562 C 28.683594 50.476562 28.683594 50.230469 28.683594 49.976562 C 28.683594 49.753906 28.683594 49.535156 28.683594 49.3125 C 28.75 48.75 28.75 48.75 29.25 48 C 29.992188 47.851562 30.707031 47.746094 31.453125 47.65625 C 35.96875 47.027344 39.789062 45.167969 42.578125 41.484375 C 45.304688 37.636719 46.191406 33.332031 45.402344 28.660156 C 44.496094 24.5625 41.914062 20.941406 38.421875 18.632812 C 35.769531 17.117188 33.074219 16.472656 30.058594 16.164062 C 29.25 16 29.25 16 28.75 15.25 C 28.683594 14.6875 28.683594 14.6875 28.683594 14.027344 C 28.683594 13.777344 28.683594 13.527344 28.679688 13.273438 C 28.679688 13.003906 28.683594 12.734375 28.683594 12.460938 C 28.683594 12.1875 28.683594 11.910156 28.683594 11.625 C 28.683594 11.042969 28.683594 10.464844 28.683594 9.878906 C 28.6875 8.988281 28.683594 8.09375 28.679688 7.199219 C 28.683594 6.636719 28.683594 6.070312 28.683594 5.503906 C 28.683594 5.101562 28.683594 5.101562 28.679688 4.691406 C 28.683594 4.445312 28.683594 4.199219 28.683594 3.941406 C 28.683594 3.722656 28.683594 3.503906 28.683594 3.28125 C 28.785156 2.453125 29.070312 2.265625 29.878906 2.191406 Z M 29.878906 2.191406 "/>
<path style=" stroke:none;fill-rule:nonzero;fill:rgb(0.784314%,0.784314%,0%);fill-opacity:1;" d="M 27.25 6.5 C 27.960938 7.210938 27.835938 7.925781 27.84375 8.882812 C 27.84375 9.066406 27.847656 9.253906 27.851562 9.445312 C 27.851562 9.839844 27.855469 10.234375 27.859375 10.628906 C 27.859375 11.234375 27.871094 11.835938 27.886719 12.4375 C 27.886719 12.820312 27.886719 13.203125 27.890625 13.585938 C 27.894531 13.765625 27.898438 13.945312 27.90625 14.132812 C 27.898438 14.640625 27.898438 14.640625 27.75 15.5 C 26.941406 16.15625 26.085938 16.410156 25.09375 16.703125 C 23.734375 17.132812 22.59375 17.722656 21.390625 18.484375 C 20.5625 18.828125 20.105469 18.746094 19.25 18.5 C 18.675781 18.136719 18.253906 17.71875 17.75 17.25 C 16.925781 18.074219 16.101562 18.898438 15.25 19.75 C 15.6875 20.734375 15.6875 20.734375 16.296875 21.359375 C 16.75 22 16.75 22 16.703125 22.558594 C 16.453125 23.414062 16.074219 24.136719 15.65625 24.921875 C 15.003906 26.175781 14.488281 27.398438 14.152344 28.777344 C 14 29.25 14 29.25 13.5 29.75 C 12.578125 29.820312 11.675781 29.773438 10.75 29.75 C 10.75 31.234375 10.75 32.71875 10.75 34.25 C 11.1875 34.226562 11.628906 34.199219 12.078125 34.171875 C 12.824219 34.128906 12.824219 34.128906 13.5 34.25 C 14.148438 35.054688 14.414062 35.925781 14.703125 36.90625 C 15.132812 38.269531 15.726562 39.421875 16.484375 40.632812 C 16.808594 41.386719 16.769531 41.730469 16.5 42.5 C 15.859375 43.203125 15.859375 43.203125 15.25 43.75 C 15.621094 44.613281 16.109375 45.164062 16.78125 45.8125 C 16.960938 45.988281 17.140625 46.164062 17.328125 46.347656 C 17.46875 46.480469 17.609375 46.613281 17.75 46.75 C 17.941406 46.582031 17.941406 46.582031 18.136719 46.414062 C 18.308594 46.273438 18.480469 46.128906 18.65625 45.984375 C 18.90625 45.769531 18.90625 45.769531 19.164062 45.550781 C 19.976562 45.132812 20.378906 45.253906 21.25 45.5 C 21.820312 45.765625 22.382812 46.046875 22.9375 46.34375 C 24.1875 47 25.402344 47.511719 26.777344 47.847656 C 27.25 48 27.25 48 27.75 48.5 C 27.800781 49.140625 27.820312 49.75 27.816406 50.390625 C 27.816406 50.578125 27.816406 50.765625 27.816406 50.957031 C 27.816406 51.351562 27.816406 51.746094 27.816406 52.140625 C 27.8125 52.746094 27.816406 53.351562 27.816406 53.960938 C 27.816406 54.34375 27.816406 54.726562 27.816406 55.109375 C 27.816406 55.289062 27.816406 55.472656 27.820312 55.660156 C 27.808594 56.941406 27.808594 56.941406 27.25 57.5 C 21.824219 57.941406 16.167969 54.304688 12.21875 50.953125 C 7.484375 46.511719 4.40625 40.242188 4.164062 33.71875 C 4.121094 30.433594 4.269531 27.390625 5.25 24.25 C 5.335938 23.96875 5.425781 23.683594 5.515625 23.390625 C 7.84375 16.765625 12.585938 11.710938 18.84375 8.578125 C 21.40625 7.414062 24.398438 6.296875 27.25 6.5 Z M 27.25 6.5 "/>
<path style=" stroke:none;fill-rule:nonzero;fill:rgb(1.176471%,1.176471%,1.176471%);fill-opacity:1;" d="M 29.878906 2.191406 C 30.140625 2.195312 30.398438 2.199219 30.664062 2.199219 C 30.945312 2.203125 31.226562 2.203125 31.515625 2.207031 C 31.808594 2.210938 32.101562 2.214844 32.40625 2.21875 C 32.851562 2.222656 32.851562 2.222656 33.304688 2.226562 C 34.035156 2.230469 34.769531 2.242188 35.5 2.25 C 35.914062 3.078125 35.777344 4 35.765625 4.90625 C 35.765625 5.105469 35.761719 5.308594 35.761719 5.511719 C 35.761719 6.007812 35.753906 6.503906 35.75 7 C 36.003906 7.03125 36.261719 7.058594 36.527344 7.089844 C 37.449219 7.242188 38.210938 7.472656 39.078125 7.8125 C 39.359375 7.921875 39.636719 8.035156 39.925781 8.144531 C 40.894531 8.5625 41.808594 9.042969 42.71875 9.566406 C 43.246094 9.804688 43.246094 9.804688 43.761719 9.597656 C 44.519531 9.058594 45.074219 8.351562 45.679688 7.644531 C 46.25 7.25 46.25 7.25 47.0625 7.261719 C 48.195312 7.546875 48.792969 8.082031 49.582031 8.894531 C 49.726562 9.035156 49.867188 9.171875 50.011719 9.316406 C 50.308594 9.617188 50.601562 9.914062 50.894531 10.214844 C 51.34375 10.671875 51.796875 11.121094 52.253906 11.570312 C 52.539062 11.859375 52.828125 12.152344 53.117188 12.441406 C 53.25 12.574219 53.386719 12.707031 53.527344 12.847656 C 54.339844 13.691406 54.746094 14.3125 54.75 15.5 C 54.304688 16.074219 53.921875 16.492188 53.390625 16.96875 C 53.257812 17.09375 53.125 17.21875 52.992188 17.347656 C 52.664062 17.652344 52.332031 17.949219 52 18.25 C 52.0625 18.378906 52.128906 18.511719 52.195312 18.644531 C 52.492188 19.253906 52.785156 19.859375 53.078125 20.46875 C 53.179688 20.671875 53.28125 20.878906 53.386719 21.089844 C 55 24.457031 55 24.457031 55 26.25 C 56.484375 26.25 57.96875 26.25 59.5 26.25 C 59.789062 26.824219 59.78125 27.152344 59.78125 27.789062 C 59.78125 28.003906 59.78125 28.21875 59.785156 28.4375 C 59.78125 28.785156 59.78125 28.785156 59.78125 29.140625 C 59.78125 29.378906 59.78125 29.617188 59.78125 29.859375 C 59.78125 30.363281 59.78125 30.867188 59.78125 31.367188 C 59.78125 32.136719 59.78125 32.910156 59.78125 33.679688 C 59.78125 34.167969 59.78125 34.65625 59.78125 35.140625 C 59.78125 35.375 59.78125 35.605469 59.785156 35.847656 C 59.78125 36.164062 59.78125 36.164062 59.78125 36.492188 C 59.78125 36.679688 59.78125 36.871094 59.78125 37.066406 C 59.75 37.5 59.75 37.5 59.5 37.75 C 59.164062 37.769531 58.828125 37.777344 58.492188 37.773438 C 58.289062 37.773438 58.089844 37.773438 57.878906 37.769531 C 57.664062 37.769531 57.453125 37.769531 57.234375 37.765625 C 57.019531 37.765625 56.808594 37.761719 56.589844 37.761719 C 56.058594 37.757812 55.527344 37.753906 55 37.75 C 54.980469 37.902344 54.957031 38.050781 54.9375 38.207031 C 54.550781 40.882812 53.214844 43.359375 52 45.75 C 52.199219 45.929688 52.402344 46.113281 52.609375 46.296875 C 52.871094 46.542969 53.128906 46.785156 53.390625 47.03125 C 53.523438 47.152344 53.65625 47.269531 53.796875 47.390625 C 54.171875 47.75 54.171875 47.75 54.75 48.5 C 54.746094 49.691406 54.339844 50.308594 53.527344 51.15625 C 53.390625 51.289062 53.253906 51.421875 53.117188 51.5625 C 52.976562 51.699219 52.835938 51.84375 52.691406 51.988281 C 52.394531 52.285156 52.097656 52.582031 51.800781 52.875 C 51.34375 53.324219 50.898438 53.785156 50.453125 54.242188 C 50.164062 54.53125 49.871094 54.816406 49.582031 55.105469 C 49.449219 55.242188 49.320312 55.378906 49.183594 55.519531 C 48.25 56.421875 47.550781 56.742188 46.25 56.75 C 45.53125 56.226562 45.53125 56.226562 44.890625 55.515625 C 44.675781 55.28125 44.457031 55.046875 44.234375 54.804688 C 44.074219 54.625 43.914062 54.4375 43.75 54.25 C 42.679688 54.585938 41.683594 55 40.671875 55.484375 C 37.425781 57 37.425781 57 35.75 57 C 35.753906 57.300781 35.753906 57.601562 35.757812 57.914062 C 35.761719 58.304688 35.761719 58.699219 35.765625 59.09375 C 35.769531 59.292969 35.769531 59.492188 35.773438 59.695312 C 35.777344 61.191406 35.777344 61.191406 35.5 61.75 C 34.46875 61.761719 33.4375 61.773438 32.40625 61.78125 C 32.113281 61.785156 31.816406 61.789062 31.515625 61.792969 C 31.09375 61.796875 31.09375 61.796875 30.664062 61.796875 C 30.40625 61.800781 30.148438 61.804688 29.878906 61.804688 C 29.25 61.75 29.25 61.75 28.75 61.25 C 28.683594 60.722656 28.683594 60.722656 28.683594 60.058594 C 28.683594 59.8125 28.683594 59.5625 28.679688 59.304688 C 28.679688 59.039062 28.683594 58.769531 28.683594 58.492188 C 28.683594 58.21875 28.683594 57.941406 28.683594 57.660156 C 28.683594 57.078125 28.683594 56.496094 28.683594 55.914062 C 28.6875 55.019531 28.683594 54.128906 28.679688 53.234375 C 28.683594 52.671875 28.683594 52.105469 28.683594 51.539062 C 28.683594 51.273438 28.679688 51.003906 28.679688 50.726562 C 28.683594 50.476562 28.683594 50.230469 28.683594 49.976562 C 28.683594 49.753906 28.683594 49.535156 28.683594 49.3125 C 28.75 48.75 28.75 48.75 29.25 48 C 29.992188 47.851562 30.707031 47.746094 31.453125 47.65625 C 35.96875 47.027344 39.789062 45.167969 42.578125 41.484375 C 45.304688 37.636719 46.191406 33.332031 45.402344 28.660156 C 44.496094 24.5625 41.914062 20.941406 38.421875 18.632812 C 35.769531 17.117188 33.074219 16.472656 30.058594 16.164062 C 29.25 16 29.25 16 28.75 15.25 C 28.683594 14.6875 28.683594 14.6875 28.683594 14.027344 C 28.683594 13.777344 28.683594 13.527344 28.679688 13.273438 C 28.679688 13.003906 28.683594 12.734375 28.683594 12.460938 C 28.683594 12.1875 28.683594 11.910156 28.683594 11.625 C 28.683594 11.042969 28.683594 10.464844 28.683594 9.878906 C 28.6875 8.988281 28.683594 8.09375 28.679688 7.199219 C 28.683594 6.636719 28.683594 6.070312 28.683594 5.503906 C 28.683594 5.101562 28.683594 5.101562 28.679688 4.691406 C 28.683594 4.445312 28.683594 4.199219 28.683594 3.941406 C 28.683594 3.722656 28.683594 3.503906 28.683594 3.28125 C 28.785156 2.453125 29.070312 2.265625 29.878906 2.191406 Z M 31 4.25 C 31 7.46875 31 10.6875 31 14 C 32.320312 14.25 33.640625 14.496094 35 14.75 C 39.851562 16.351562 43.617188 19.46875 46 24 C 47.929688 28.226562 48.480469 32.84375 47.09375 37.328125 C 45.027344 42.867188 41.636719 46.285156 36.25 48.75 C 35 49.25 35 49.25 31 50 C 31 53.21875 31 56.4375 31 59.75 C 31.90625 59.75 32.816406 59.75 33.75 59.75 C 33.832031 58.347656 33.914062 56.945312 34 55.5 C 34.929688 55.253906 34.929688 55.253906 35.875 55 C 38.40625 54.285156 40.808594 53.210938 43 51.75 C 43.601562 51.648438 43.601562 51.648438 44.25 51.75 C 44.828125 52.25 44.828125 52.25 45.390625 52.890625 C 45.925781 53.53125 45.925781 53.53125 46.5 54 C 47.464844 53.933594 47.929688 53.410156 48.582031 52.742188 C 48.78125 52.539062 48.980469 52.335938 49.1875 52.128906 C 49.394531 51.914062 49.601562 51.703125 49.8125 51.484375 C 50.023438 51.269531 50.234375 51.058594 50.449219 50.839844 C 50.96875 50.3125 51.484375 49.78125 52 49.25 C 51.53125 48.253906 50.941406 47.707031 50.117188 46.992188 C 49.589844 46.285156 49.628906 45.863281 49.75 45 C 50.125 44.28125 50.125 44.28125 50.640625 43.5 C 52.082031 41.191406 52.746094 38.597656 53.5 36 C 55.601562 35.875 55.601562 35.875 57.75 35.75 C 57.75 33.277344 57.75 30.800781 57.75 28.25 C 56.347656 28.167969 54.945312 28.085938 53.5 28 C 53.414062 27.683594 53.332031 27.367188 53.242188 27.039062 C 52.128906 22.710938 52.128906 22.710938 49.75 19 C 49.628906 18.039062 49.644531 17.636719 50.242188 16.859375 C 50.449219 16.671875 50.660156 16.476562 50.875 16.28125 C 51.1875 15.988281 51.1875 15.988281 51.507812 15.6875 C 51.671875 15.542969 51.832031 15.398438 52 15.25 C 51.425781 13.9375 50.402344 13.046875 49.40625 12.046875 C 49.117188 11.746094 49.117188 11.746094 48.824219 11.441406 C 48.636719 11.25 48.449219 11.0625 48.261719 10.871094 C 48.089844 10.699219 47.921875 10.523438 47.746094 10.347656 C 47.277344 9.941406 47.277344 9.941406 46.71875 10.039062 C 45.878906 10.414062 45.371094 11.144531 44.777344 11.820312 C 44.25 12.25 44.25 12.25 43.628906 12.351562 C 42.902344 12.234375 42.511719 12.007812 41.90625 11.59375 C 39.484375 10.066406 36.765625 9.179688 34 8.5 C 33.917969 7.097656 33.835938 5.695312 33.75 4.25 C 32.84375 4.25 31.933594 4.25 31 4.25 Z M 31 4.25 "/>
<path style=" stroke:none;fill-rule:nonzero;fill:rgb(97.254902%,67.843139%,15.294118%);fill-opacity:1;" d="M 25.75 8.75 C 25.75 10.566406 25.75 12.378906 25.75 14.25 C 25.296875 14.394531 24.84375 14.539062 24.375 14.6875 C 23.40625 15.003906 22.515625 15.347656 21.625 15.84375 C 20.75 16.25 20.75 16.25 20.242188 16.066406 C 19.777344 15.765625 19.398438 15.457031 19 15.078125 C 18.34375 14.441406 18.34375 14.441406 17.773438 14.523438 C 16.578125 15.039062 15.703125 16.15625 14.796875 17.0625 C 14.574219 17.277344 14.347656 17.492188 14.117188 17.714844 C 13.90625 17.921875 13.699219 18.132812 13.480469 18.347656 C 13.285156 18.539062 13.09375 18.730469 12.890625 18.925781 C 12.429688 19.476562 12.429688 19.476562 12.542969 20.171875 C 12.773438 20.8125 13.015625 21.121094 13.515625 21.578125 C 13.757812 21.800781 14 22.023438 14.25 22.25 C 13.78125 23.425781 13.296875 24.597656 12.804688 25.765625 C 12.53125 26.425781 12.261719 27.085938 12 27.75 C 11.804688 27.765625 11.609375 27.78125 11.40625 27.796875 C 11.15625 27.816406 10.902344 27.835938 10.640625 27.859375 C 10.386719 27.878906 10.136719 27.898438 9.875 27.921875 C 9.265625 27.933594 9.265625 27.933594 9 28.25 C 8.976562 28.800781 8.96875 29.355469 8.96875 29.90625 C 8.96875 30.074219 8.96875 30.238281 8.964844 30.40625 C 8.964844 30.757812 8.96875 31.109375 8.96875 31.460938 C 8.96875 31.996094 8.96875 32.535156 8.964844 33.074219 C 8.964844 33.414062 8.96875 33.753906 8.96875 34.09375 C 8.96875 34.40625 8.96875 34.71875 8.96875 35.039062 C 8.917969 35.726562 8.917969 35.726562 9.25 36 C 9.753906 36.058594 10.261719 36.101562 10.765625 36.140625 C 11.179688 36.171875 11.179688 36.171875 11.601562 36.203125 C 11.816406 36.21875 12.03125 36.234375 12.25 36.25 C 12.289062 36.402344 12.328125 36.550781 12.371094 36.710938 C 12.773438 38.15625 13.296875 39.394531 14.050781 40.691406 C 14.25 41.25 14.25 41.25 14.074219 41.785156 C 13.75 42.25 13.75 42.25 13.078125 42.859375 C 12.425781 43.429688 12.425781 43.429688 12.53125 44.09375 C 12.953125 45.347656 14 46.164062 14.921875 47.078125 C 15.121094 47.289062 15.324219 47.496094 15.53125 47.710938 C 15.726562 47.910156 15.925781 48.105469 16.128906 48.308594 C 16.308594 48.488281 16.484375 48.671875 16.671875 48.859375 C 17.414062 49.359375 17.871094 49.347656 18.75 49.25 C 19.238281 48.941406 19.238281 48.941406 19.59375 48.5 C 19.808594 48.253906 20.027344 48.003906 20.25 47.75 C 21.550781 48.167969 22.792969 48.683594 24.050781 49.21875 C 24.789062 49.53125 24.789062 49.53125 25.75 49.75 C 25.75 51.566406 25.75 53.378906 25.75 55.25 C 20.796875 54.574219 16.796875 52.191406 13.25 48.75 C 12.992188 48.519531 12.992188 48.519531 12.734375 48.289062 C 9.15625 44.984375 7.539062 40.378906 6.5 35.75 C 6.449219 35.578125 6.402344 35.410156 6.351562 35.234375 C 5.261719 29.988281 7 24.53125 9.5 20 C 9.625 19.761719 9.75 19.523438 9.878906 19.277344 C 12.671875 14.378906 17.792969 10.824219 23.121094 9.242188 C 25.027344 8.75 25.027344 8.75 25.75 8.75 Z M 25.75 8.75 "/>
<path style=" stroke:none;fill-rule:nonzero;fill:rgb(0%,0%,0%);fill-opacity:1;" d="M 30.15625 22.8125 C 30.75 23 30.75 23 31 23.25 C 31.03125 23.761719 31.042969 24.269531 31.054688 24.78125 C 31.058594 25.089844 31.066406 25.402344 31.074219 25.722656 C 31.085938 26.386719 31.097656 27.046875 31.105469 27.707031 C 31.117188 28.019531 31.125 28.332031 31.132812 28.65625 C 31.136719 28.941406 31.140625 29.230469 31.144531 29.523438 C 31.265625 30.335938 31.414062 30.472656 32 31 C 32.1875 32.6875 32.1875 32.6875 31.625 33.625 C 30.765625 34.140625 29.980469 34.210938 29 34 C 28.859375 33.878906 28.71875 33.753906 28.574219 33.628906 C 27.703125 33.054688 26.847656 33.117188 25.828125 33.09375 C 23.777344 33.027344 23.777344 33.027344 23.5 32.75 C 23.46875 32 23.46875 32 23.5 31.25 C 24.070312 30.675781 25.644531 30.898438 26.457031 30.871094 C 27.597656 30.867188 27.597656 30.867188 28.5 30.25 C 28.582031 29.558594 28.582031 29.558594 28.578125 28.75 C 28.582031 28.453125 28.589844 28.152344 28.597656 27.84375 C 28.605469 27.210938 28.613281 26.574219 28.617188 25.941406 C 28.625 25.640625 28.632812 25.339844 28.640625 25.03125 C 28.644531 24.757812 28.644531 24.480469 28.648438 24.199219 C 28.75 23.5 28.75 23.5 29.089844 23.023438 C 29.5 22.75 29.5 22.75 30.15625 22.8125 Z M 30.15625 22.8125 "/>
<path style=" stroke:none;fill-rule:nonzero;fill:rgb(0%,0%,0%);fill-opacity:1;" d="M 29.25 18 C 30.03125 17.953125 30.03125 17.953125 30.75 18 C 31.046875 18.585938 31.042969 18.96875 31.046875 19.625 C 31.050781 19.824219 31.054688 20.023438 31.058594 20.226562 C 31 20.75 31 20.75 30.5 21.25 C 29.734375 21.1875 29.734375 21.1875 29 21 C 28.621094 20.246094 28.703125 19.582031 28.75 18.75 C 28.914062 18.503906 29.078125 18.253906 29.25 18 Z M 29.25 18 "/>
<path style=" stroke:none;fill-rule:nonzero;fill:rgb(0%,0%,0%);fill-opacity:1;" d="M 30.15625 42.8125 C 30.75 43 30.75 43 31 43.25 C 31.042969 43.75 31.042969 43.75 31.046875 44.359375 C 31.050781 44.558594 31.054688 44.761719 31.058594 44.96875 C 31 45.5 31 45.5 30.5 46 C 29.875 46.078125 29.875 46.078125 29.25 46 C 28.632812 45.078125 28.652344 44.59375 28.75 43.5 C 29.171875 42.792969 29.332031 42.734375 30.15625 42.8125 Z M 30.15625 42.8125 "/>
<path style=" stroke:none;fill-rule:nonzero;fill:rgb(0%,0%,0%);fill-opacity:1;" d="M 16.875 30.976562 C 17.253906 30.980469 17.253906 30.980469 17.640625 30.984375 C 17.894531 30.984375 18.144531 30.988281 18.40625 30.992188 C 18.699219 30.996094 18.699219 30.996094 19 31 C 19.28125 32.4375 19.28125 32.4375 19 33 C 18.546875 33.003906 18.09375 33.011719 17.640625 33.015625 C 17.386719 33.019531 17.136719 33.019531 16.875 33.027344 C 16.25 33 16.25 33 16 32.75 C 15.96875 32 15.96875 32 16 31.25 C 16.25 31 16.25 31 16.875 30.976562 Z M 16.875 30.976562 "/>
<path style=" stroke:none;fill-rule:nonzero;fill:rgb(0%,0%,0%);fill-opacity:1;" d="M 41 31 C 41.90625 31 42.816406 31 43.75 31 C 43.90625 31.71875 43.90625 31.71875 44 32.5 C 43.5 33 43.5 33 42.914062 33.058594 C 42.691406 33.054688 42.464844 33.050781 42.234375 33.046875 C 42.011719 33.046875 41.785156 33.042969 41.550781 33.042969 C 41 33 41 33 40.75 32.75 C 40.824219 32.164062 40.90625 31.582031 41 31 Z M 41 31 "/>
</g>
</svg>
