<?xml version="1.0" encoding="UTF-8"?>
<svg xmlns="http://www.w3.org/2000/svg" xmlns:xlink="http://www.w3.org/1999/xlink" width="64" height="64" viewBox="0 0 64 64" version="1.1">
<g id="surface1">
<path style=" stroke:none;fill-rule:nonzero;fill:rgb(34.901962%,65.490198%,99.607843%);fill-opacity:1;" d="M 45 0.75 C 45.265625 0.796875 45.53125 0.835938 45.804688 0.886719 C 48.71875 1.375 51.601562 1.976562 54.453125 2.765625 C 54.773438 2.851562 54.773438 2.851562 55.105469 2.941406 C 55.300781 3 55.503906 3.058594 55.707031 3.117188 C 55.878906 3.167969 56.050781 3.21875 56.230469 3.265625 C 56.964844 3.59375 57.429688 3.925781 58 4.5 C 58.128906 5.203125 58.171875 5.757812 58.160156 6.460938 C 58.164062 6.664062 58.164062 6.859375 58.167969 7.066406 C 58.171875 7.734375 58.171875 8.398438 58.164062 9.070312 C 58.167969 9.546875 58.171875 10.023438 58.171875 10.503906 C 58.179688 11.804688 58.179688 13.105469 58.175781 14.40625 C 58.175781 15.488281 58.175781 16.574219 58.175781 17.65625 C 58.183594 20.21875 58.183594 22.773438 58.175781 25.335938 C 58.171875 27.976562 58.175781 30.617188 58.183594 33.257812 C 58.191406 35.523438 58.195312 37.789062 58.191406 40.058594 C 58.191406 41.414062 58.191406 42.765625 58.199219 44.121094 C 58.203125 45.390625 58.199219 46.667969 58.191406 47.941406 C 58.191406 48.40625 58.191406 48.875 58.195312 49.34375 C 58.199219 49.980469 58.195312 50.617188 58.191406 51.253906 C 58.195312 51.53125 58.195312 51.53125 58.199219 51.816406 C 58.183594 52.523438 58.140625 53.082031 57.675781 53.636719 C 56.878906 54.316406 55.988281 54.824219 55.0625 55.300781 C 54.789062 55.441406 54.515625 55.582031 54.234375 55.726562 C 53.945312 55.875 53.65625 56.019531 53.359375 56.171875 C 53.054688 56.328125 52.753906 56.484375 52.449219 56.636719 C 51.550781 57.09375 50.648438 57.546875 49.75 58 C 49.507812 58.121094 49.265625 58.246094 49.015625 58.371094 C 34.464844 65.621094 34.464844 65.621094 27 63.34375 C 26.664062 63.230469 26.332031 63.113281 26 63 C 25.8125 62.933594 25.625 62.871094 25.433594 62.804688 C 19.175781 60.621094 12.195312 57.839844 6.75 54 C 6.621094 53.910156 6.488281 53.820312 6.351562 53.726562 C 5.804688 52.984375 5.894531 52.203125 5.902344 51.316406 C 5.898438 51.117188 5.898438 50.917969 5.898438 50.710938 C 5.890625 50.042969 5.894531 49.375 5.894531 48.703125 C 5.890625 48.226562 5.890625 47.746094 5.886719 47.269531 C 5.882812 45.96875 5.882812 44.664062 5.882812 43.363281 C 5.882812 42.277344 5.878906 41.191406 5.878906 40.105469 C 5.875 37.542969 5.871094 34.984375 5.875 32.421875 C 5.878906 29.773438 5.871094 27.128906 5.863281 24.484375 C 5.855469 22.21875 5.851562 19.949219 5.851562 17.679688 C 5.851562 16.324219 5.851562 14.96875 5.84375 13.609375 C 5.839844 12.335938 5.839844 11.0625 5.84375 9.789062 C 5.84375 9.316406 5.84375 8.851562 5.839844 8.378906 C 5.835938 7.742188 5.839844 7.105469 5.84375 6.464844 C 5.84375 6.28125 5.835938 6.09375 5.835938 5.902344 C 5.851562 4.953125 5.921875 4.578125 6.601562 3.890625 C 7.175781 3.546875 7.652344 3.300781 8.292969 3.117188 C 8.589844 3.03125 8.589844 3.03125 8.894531 2.941406 C 9.109375 2.886719 9.324219 2.824219 9.546875 2.765625 C 9.773438 2.703125 10.003906 2.640625 10.238281 2.574219 C 13.128906 1.800781 16.050781 1.242188 19 0.75 C 19.234375 0.707031 19.46875 0.667969 19.710938 0.625 C 27.777344 -0.757812 36.949219 -0.675781 45 0.75 Z M 45 0.75 "/>
<path style=" stroke:none;fill-rule:nonzero;fill:rgb(19.215687%,38.039216%,58.823532%);fill-opacity:1;" d="M 32 0 C 39.65625 -0.125 47.058594 0.722656 54.453125 2.765625 C 54.667969 2.824219 54.882812 2.882812 55.105469 2.941406 C 55.300781 3 55.503906 3.058594 55.707031 3.117188 C 55.878906 3.167969 56.050781 3.21875 56.230469 3.265625 C 56.964844 3.59375 57.429688 3.925781 58 4.5 C 58.128906 5.203125 58.171875 5.757812 58.160156 6.460938 C 58.164062 6.664062 58.164062 6.859375 58.167969 7.066406 C 58.171875 7.734375 58.171875 8.398438 58.164062 9.070312 C 58.167969 9.546875 58.171875 10.023438 58.171875 10.503906 C 58.179688 11.804688 58.179688 13.105469 58.175781 14.40625 C 58.175781 15.488281 58.175781 16.574219 58.175781 17.65625 C 58.183594 20.21875 58.183594 22.773438 58.175781 25.335938 C 58.171875 27.976562 58.175781 30.617188 58.183594 33.257812 C 58.191406 35.523438 58.195312 37.789062 58.191406 40.058594 C 58.191406 41.414062 58.191406 42.765625 58.199219 44.121094 C 58.203125 45.390625 58.199219 46.667969 58.191406 47.941406 C 58.191406 48.40625 58.191406 48.875 58.195312 49.34375 C 58.199219 49.980469 58.195312 50.617188 58.191406 51.253906 C 58.191406 51.441406 58.195312 51.628906 58.199219 51.816406 C 58.183594 52.523438 58.140625 53.082031 57.675781 53.636719 C 56.878906 54.316406 55.988281 54.824219 55.0625 55.300781 C 54.789062 55.441406 54.515625 55.582031 54.234375 55.726562 C 53.800781 55.949219 53.800781 55.949219 53.359375 56.171875 C 53.054688 56.328125 52.753906 56.484375 52.449219 56.636719 C 51.550781 57.09375 50.648438 57.546875 49.75 58 C 49.507812 58.121094 49.265625 58.246094 49.015625 58.371094 C 44.695312 60.523438 40.183594 62.53125 35.5 63.75 C 35.3125 63.800781 35.125 63.847656 34.933594 63.898438 C 33.964844 64.042969 32.976562 64 32 64 C 32 59.050781 32 54.101562 32 49 C 38.796875 48.953125 38.796875 48.953125 40.9375 48.949219 C 41.496094 48.941406 42.058594 48.933594 42.621094 48.925781 C 43.054688 48.925781 43.054688 48.925781 43.5 48.929688 C 43.78125 48.925781 44.058594 48.921875 44.34375 48.914062 C 44.707031 48.914062 44.707031 48.914062 45.078125 48.910156 C 46.046875 48.679688 46.410156 48.296875 47 47.5 C 47.121094 46.789062 47.171875 46.226562 47.15625 45.515625 C 47.160156 45.320312 47.164062 45.121094 47.164062 44.921875 C 47.167969 44.273438 47.164062 43.628906 47.15625 42.984375 C 47.15625 42.53125 47.15625 42.082031 47.160156 41.636719 C 47.160156 40.691406 47.15625 39.75 47.148438 38.808594 C 47.140625 37.601562 47.140625 36.394531 47.148438 35.1875 C 47.148438 34.261719 47.148438 33.332031 47.140625 32.402344 C 47.140625 31.957031 47.140625 31.511719 47.144531 31.066406 C 47.144531 30.445312 47.140625 29.824219 47.132812 29.203125 C 47.136719 29.019531 47.136719 28.835938 47.136719 28.644531 C 47.121094 27.78125 47.058594 27.328125 46.523438 26.636719 C 45.949219 26.214844 45.675781 26.121094 44.972656 26.097656 C 44.691406 26.085938 44.691406 26.085938 44.402344 26.074219 C 44.207031 26.070312 44.011719 26.066406 43.8125 26.0625 C 43.515625 26.050781 43.515625 26.050781 43.210938 26.039062 C 42.726562 26.023438 42.238281 26.011719 41.75 26 C 41.75 25.796875 41.746094 25.59375 41.746094 25.386719 C 41.738281 24.617188 41.726562 23.851562 41.710938 23.078125 C 41.703125 22.59375 41.699219 22.101562 41.699219 21.613281 C 41.625 18.40625 40.859375 15.828125 38.574219 13.523438 C 36.515625 11.648438 34.996094 11.5 32 10.75 C 32 7.203125 32 3.65625 32 0 Z M 32 0 "/>
<path style=" stroke:none;fill-rule:nonzero;fill:rgb(99.215686%,50.196081%,21.176471%);fill-opacity:1;" d="M 20.691406 25.839844 C 20.964844 25.835938 21.234375 25.832031 21.515625 25.832031 C 22.410156 25.824219 23.308594 25.832031 24.203125 25.832031 C 24.824219 25.832031 25.449219 25.832031 26.074219 25.832031 C 27.542969 25.828125 29.015625 25.832031 30.488281 25.839844 C 31.664062 25.84375 32.835938 25.84375 34.011719 25.839844 C 35.628906 25.832031 37.25 25.828125 38.871094 25.832031 C 39.488281 25.832031 40.101562 25.832031 40.71875 25.832031 C 41.582031 25.824219 42.445312 25.832031 43.308594 25.839844 C 43.5625 25.835938 43.816406 25.832031 44.082031 25.832031 C 45.207031 25.847656 45.824219 25.886719 46.78125 26.511719 C 47.363281 27.433594 47.425781 28.171875 47.40625 29.230469 C 47.410156 29.425781 47.414062 29.625 47.414062 29.824219 C 47.417969 30.46875 47.414062 31.113281 47.40625 31.757812 C 47.40625 32.207031 47.40625 32.65625 47.410156 33.105469 C 47.410156 34.046875 47.40625 34.984375 47.398438 35.929688 C 47.390625 37.132812 47.390625 38.335938 47.398438 39.539062 C 47.398438 40.46875 47.398438 41.394531 47.390625 42.324219 C 47.390625 42.769531 47.390625 43.210938 47.394531 43.65625 C 47.394531 44.277344 47.390625 44.898438 47.382812 45.519531 C 47.386719 45.699219 47.386719 45.886719 47.386719 46.074219 C 47.363281 47.28125 47.105469 47.902344 46.25 48.75 C 45.664062 49.042969 45.3125 49.03125 44.65625 49.035156 C 44.3125 49.035156 44.3125 49.035156 43.960938 49.035156 C 43.707031 49.035156 43.453125 49.035156 43.195312 49.035156 C 42.792969 49.035156 42.792969 49.035156 42.386719 49.035156 C 41.503906 49.035156 40.621094 49.035156 39.734375 49.03125 C 39.28125 49.03125 39.28125 49.03125 38.820312 49.027344 C 37.050781 49.027344 35.28125 49.019531 33.511719 49.007812 C 32.328125 49 31.148438 49 29.96875 48.992188 C 28.320312 48.992188 26.675781 48.976562 25.027344 48.960938 C 24.394531 48.957031 23.761719 48.953125 23.132812 48.949219 C 22.246094 48.949219 21.363281 48.9375 20.480469 48.925781 C 20.21875 48.929688 19.953125 48.929688 19.683594 48.929688 C 19.324219 48.921875 19.324219 48.921875 18.953125 48.914062 C 18.746094 48.914062 18.535156 48.910156 18.320312 48.910156 C 17.449219 48.664062 17.199219 48.269531 16.75 47.5 C 16.652344 46.804688 16.609375 46.210938 16.617188 45.519531 C 16.613281 45.226562 16.613281 45.226562 16.609375 44.925781 C 16.605469 44.28125 16.605469 43.636719 16.605469 42.992188 C 16.605469 42.542969 16.605469 42.09375 16.605469 41.644531 C 16.601562 40.703125 16.601562 39.761719 16.605469 38.824219 C 16.609375 37.617188 16.605469 36.414062 16.59375 35.207031 C 16.589844 34.28125 16.589844 33.351562 16.59375 32.425781 C 16.59375 31.984375 16.589844 31.539062 16.585938 31.09375 C 16.582031 30.472656 16.585938 29.851562 16.59375 29.230469 C 16.589844 29.046875 16.585938 28.867188 16.582031 28.675781 C 16.601562 27.785156 16.738281 27.269531 17.21875 26.511719 C 18.363281 25.761719 19.351562 25.824219 20.691406 25.839844 Z M 20.691406 25.839844 "/>
<path style=" stroke:none;fill-rule:nonzero;fill:rgb(99.215686%,73.725492%,35.294119%);fill-opacity:1;" d="M 19.425781 25.859375 C 19.707031 25.859375 19.988281 25.859375 20.277344 25.859375 C 20.578125 25.867188 20.875 25.871094 21.183594 25.878906 C 21.496094 25.878906 21.800781 25.878906 22.121094 25.882812 C 22.941406 25.886719 23.757812 25.902344 24.574219 25.914062 C 25.410156 25.929688 26.246094 25.933594 27.085938 25.9375 C 28.722656 25.949219 30.363281 25.976562 32 26 C 32 28.226562 32 30.457031 32 32.75 C 32.164062 32.832031 32.328125 32.914062 32.5 33 C 32.074219 33.117188 32.074219 33.117188 31.640625 33.234375 C 30.800781 33.40625 30.800781 33.40625 30.5 33.75 C 30.441406 34.773438 30.441406 35.796875 30.441406 36.824219 C 30.4375 37.339844 30.429688 37.855469 30.421875 38.367188 C 30.417969 38.691406 30.417969 39.015625 30.417969 39.351562 C 30.414062 39.648438 30.410156 39.945312 30.410156 40.253906 C 30.4375 40.992188 30.4375 40.992188 30.832031 41.464844 C 31.28125 41.796875 31.28125 41.796875 32 42 C 32 44.226562 32 46.457031 32 48.75 C 30.160156 48.777344 28.320312 48.800781 26.480469 48.816406 C 25.628906 48.820312 24.769531 48.832031 23.914062 48.84375 C 22.929688 48.859375 21.945312 48.867188 20.964844 48.875 C 20.65625 48.878906 20.351562 48.886719 20.035156 48.890625 C 19.605469 48.890625 19.605469 48.890625 19.171875 48.894531 C 18.917969 48.894531 18.667969 48.898438 18.410156 48.902344 C 17.75 48.75 17.75 48.75 17.167969 48.242188 C 16.648438 47.316406 16.605469 46.550781 16.617188 45.519531 C 16.613281 45.226562 16.613281 45.226562 16.609375 44.925781 C 16.605469 44.28125 16.605469 43.636719 16.609375 42.992188 C 16.605469 42.542969 16.605469 42.09375 16.605469 41.644531 C 16.601562 40.703125 16.601562 39.761719 16.605469 38.824219 C 16.609375 37.617188 16.605469 36.414062 16.59375 35.207031 C 16.589844 34.28125 16.589844 33.351562 16.59375 32.425781 C 16.59375 31.984375 16.59375 31.539062 16.585938 31.09375 C 16.582031 30.472656 16.585938 29.851562 16.59375 29.230469 C 16.589844 29.046875 16.585938 28.867188 16.585938 28.675781 C 16.601562 27.734375 16.730469 27.277344 17.292969 26.511719 C 18.097656 25.929688 18.453125 25.847656 19.425781 25.859375 Z M 19.425781 25.859375 "/>
<path style=" stroke:none;fill-rule:nonzero;fill:rgb(72.549021%,73.725492%,77.64706%);fill-opacity:1;" d="M 38.679688 13.347656 C 40.265625 14.777344 41.234375 16.6875 41.75 18.75 C 41.75 21.140625 41.75 23.535156 41.75 26 C 35.316406 26 28.878906 26 22.25 26 C 22.25 16.621094 22.25 16.621094 25.21875 13.507812 C 29.191406 9.839844 34.570312 10.019531 38.679688 13.347656 Z M 38.679688 13.347656 "/>
<path style=" stroke:none;fill-rule:nonzero;fill:rgb(93.333334%,94.117647%,96.078432%);fill-opacity:1;" d="M 32 11 C 32 13.0625 32 15.125 32 17.25 C 31.421875 17.414062 30.84375 17.578125 30.25 17.75 C 29.480469 18.402344 29.070312 18.789062 28.75 19.75 C 28.710938 20.230469 28.6875 20.710938 28.671875 21.191406 C 28.664062 21.441406 28.652344 21.695312 28.640625 21.953125 C 28.625 22.433594 28.625 22.433594 28.609375 22.921875 C 28.574219 23.9375 28.539062 24.953125 28.5 26 C 26.4375 26 24.375 26 22.25 26 C 22.222656 24.890625 22.203125 23.78125 22.1875 22.671875 C 22.179688 22.359375 22.171875 22.050781 22.164062 21.730469 C 22.128906 18.53125 22.984375 15.851562 25.21875 13.507812 C 27.339844 11.550781 29.128906 11 32 11 Z M 32 11 "/>
<path style=" stroke:none;fill-rule:nonzero;fill:rgb(35.686275%,65.882355%,99.607843%);fill-opacity:1;" d="M 33.703125 17.546875 C 34.578125 18.273438 35.191406 18.859375 35.363281 20.011719 C 35.355469 20.425781 35.355469 20.425781 35.347656 20.847656 C 35.34375 21.121094 35.34375 21.390625 35.339844 21.667969 C 35.324219 22.183594 35.324219 22.183594 35.3125 22.703125 C 35.289062 23.792969 35.269531 24.878906 35.25 26 C 33.023438 26 30.796875 26 28.5 26 C 28.480469 25.003906 28.457031 24.007812 28.4375 22.984375 C 28.429688 22.675781 28.417969 22.363281 28.410156 22.042969 C 28.394531 20.382812 28.492188 19.339844 29.5 18 C 30.6875 16.945312 32.285156 16.945312 33.703125 17.546875 Z M 33.703125 17.546875 "/>
<path style=" stroke:none;fill-rule:nonzero;fill:rgb(21.960784%,39.215687%,58.823532%);fill-opacity:1;" d="M 32.492188 32.851562 C 33.285156 33.085938 33.546875 33.574219 34 34.25 C 34.128906 34.96875 34.128906 34.96875 34.132812 35.75 C 34.132812 36.035156 34.136719 36.316406 34.136719 36.609375 C 34.132812 36.902344 34.128906 37.195312 34.125 37.5 C 34.128906 37.792969 34.132812 38.085938 34.136719 38.390625 C 34.136719 38.675781 34.132812 38.960938 34.132812 39.25 C 34.132812 39.507812 34.132812 39.765625 34.128906 40.03125 C 33.964844 40.9375 33.648438 41.359375 33 42 C 32.125 42.140625 32.125 42.140625 31.25 42 C 30.507812 41.449219 30.277344 41.152344 30.125 40.234375 C 30.125 39.9375 30.125 39.648438 30.125 39.339844 C 30.125 39.023438 30.125 38.703125 30.125 38.371094 C 30.128906 38.121094 30.128906 38.121094 30.132812 37.867188 C 30.140625 37.359375 30.140625 36.851562 30.136719 36.34375 C 30.152344 33.894531 30.152344 33.894531 30.570312 33.28125 C 31.175781 32.882812 31.78125 32.882812 32.492188 32.851562 Z M 32.492188 32.851562 "/>
<path style=" stroke:none;fill-rule:nonzero;fill:rgb(19.215687%,38.039216%,58.823532%);fill-opacity:1;" d="M 32 17.25 C 34.128906 17.554688 34.128906 17.554688 34.96875 18.648438 C 35.566406 19.933594 35.398438 21.351562 35.34375 22.734375 C 35.335938 23.046875 35.328125 23.363281 35.324219 23.683594 C 35.304688 24.457031 35.277344 25.230469 35.25 26 C 34.175781 26 33.105469 26 32 26 C 32 23.113281 32 20.226562 32 17.25 Z M 32 17.25 "/>
<path style=" stroke:none;fill-rule:nonzero;fill:rgb(35.294119%,65.490198%,99.215686%);fill-opacity:1;" d="M 32 33 C 32 35.96875 32 38.941406 32 42 C 31.585938 41.917969 31.175781 41.835938 30.75 41.75 C 29.957031 40.5625 30.167969 39.285156 30.171875 37.886719 C 30.171875 37.378906 30.164062 36.867188 30.160156 36.359375 C 30.160156 36.035156 30.160156 35.714844 30.160156 35.382812 C 30.15625 35.085938 30.15625 34.792969 30.15625 34.488281 C 30.25 33.75 30.25 33.75 30.566406 33.273438 C 31 33 31 33 32 33 Z M 32 33 "/>
</g>
</svg>
