<?xml version="1.0" encoding="UTF-8"?>
<svg xmlns="http://www.w3.org/2000/svg" xmlns:xlink="http://www.w3.org/1999/xlink" width="64" height="64" viewBox="0 0 64 64" version="1.1">
<g id="surface1">
<path style=" stroke:none;fill-rule:nonzero;fill:rgb(1.960784%,1.568628%,1.176471%);fill-opacity:1;" d="M 17.4375 -0.0351562 C 17.6875 -0.0390625 17.941406 -0.0390625 18.199219 -0.0429688 C 18.476562 -0.0429688 18.75 -0.0429688 19.035156 -0.0429688 C 19.328125 -0.046875 19.617188 -0.046875 19.917969 -0.0507812 C 20.882812 -0.0546875 21.84375 -0.0585938 22.808594 -0.0585938 C 23.136719 -0.0625 23.464844 -0.0625 23.804688 -0.0625 C 25.363281 -0.0664062 26.925781 -0.0703125 28.484375 -0.0742188 C 30.285156 -0.0742188 32.082031 -0.0820312 33.882812 -0.0898438 C 35.273438 -0.0976562 36.667969 -0.105469 38.058594 -0.105469 C 38.890625 -0.105469 39.71875 -0.105469 40.550781 -0.113281 C 41.480469 -0.121094 42.40625 -0.121094 43.332031 -0.117188 C 43.746094 -0.121094 43.746094 -0.121094 44.164062 -0.125 C 45.929688 -0.113281 46.855469 0.171875 48.175781 1.394531 C 48.285156 1.519531 48.398438 1.644531 48.515625 1.777344 C 48.644531 1.917969 48.777344 2.0625 48.910156 2.214844 C 49.046875 2.367188 49.183594 2.519531 49.324219 2.675781 C 49.628906 3 49.933594 3.328125 50.238281 3.652344 C 50.714844 4.160156 51.183594 4.667969 51.644531 5.1875 C 53.777344 7.625 53.777344 7.625 56.769531 8.535156 C 57.335938 8.535156 57.890625 8.507812 58.453125 8.472656 C 59.636719 8.429688 60.527344 8.851562 61.5 9.5 C 62.558594 10.597656 62.609375 11.546875 62.589844 13 C 62.578125 13.355469 62.578125 13.355469 62.5625 13.71875 C 62.558594 13.964844 62.554688 14.207031 62.550781 14.457031 C 62.535156 15.054688 62.519531 15.652344 62.5 16.25 C 62.25 16.332031 62.003906 16.414062 61.75 16.5 C 61.75 17.324219 61.75 18.152344 61.75 19 C 61.996094 19.082031 62.242188 19.164062 62.5 19.25 C 62.515625 24.738281 62.53125 30.222656 62.539062 35.710938 C 62.542969 38.257812 62.550781 40.804688 62.554688 43.355469 C 62.5625 45.574219 62.570312 47.796875 62.570312 50.015625 C 62.570312 51.191406 62.574219 52.367188 62.578125 53.542969 C 62.582031 54.652344 62.585938 55.753906 62.582031 56.863281 C 62.582031 57.269531 62.585938 57.675781 62.589844 58.082031 C 62.59375 58.636719 62.589844 59.191406 62.589844 59.746094 C 62.589844 60.054688 62.589844 60.367188 62.589844 60.6875 C 62.453125 61.898438 61.933594 62.539062 61.152344 63.441406 C 59.972656 64.367188 58.5 64.164062 57.074219 64.140625 C 56.753906 64.144531 56.433594 64.144531 56.105469 64.144531 C 55.230469 64.144531 54.359375 64.136719 53.484375 64.125 C 52.570312 64.117188 51.65625 64.117188 50.742188 64.117188 C 49.015625 64.113281 47.285156 64.101562 45.554688 64.089844 C 43.585938 64.074219 41.617188 64.066406 39.648438 64.0625 C 35.597656 64.050781 31.550781 64.027344 27.5 64 C 27.417969 63.753906 27.332031 63.503906 27.25 63.25 C 26.425781 63.25 25.597656 63.25 24.75 63.25 C 24.667969 63.5 24.582031 63.746094 24.5 64 C 22.570312 64.023438 20.640625 64.039062 18.710938 64.050781 C 17.8125 64.058594 16.917969 64.0625 16.019531 64.074219 C 15.15625 64.085938 14.292969 64.09375 13.425781 64.097656 C 12.9375 64.097656 12.445312 64.105469 11.957031 64.113281 C 9.195312 64.113281 9.195312 64.113281 8 63 C 7.109375 61.984375 6.96875 61.15625 6.984375 59.828125 C 6.988281 59.582031 6.988281 59.332031 6.992188 59.074219 C 6.992188 58.886719 6.996094 58.695312 7 58.5 C 6.84375 58.507812 6.6875 58.519531 6.523438 58.527344 C 5.113281 58.570312 3.695312 58.582031 2.5 57.75 C 1.210938 56.339844 1.355469 54.875 1.367188 53.039062 C 1.367188 52.726562 1.367188 52.417969 1.363281 52.097656 C 1.363281 51.277344 1.367188 50.449219 1.375 49.628906 C 1.375 49.125 1.375 48.625 1.367188 48.117188 C 1.363281 47.152344 1.363281 46.179688 1.367188 45.210938 C 1.363281 44.910156 1.363281 44.613281 1.363281 44.304688 C 1.378906 42.71875 1.40625 41.691406 2.5 40.5 C 3.507812 39.742188 4.332031 39.71875 5.554688 39.734375 C 5.960938 39.734375 5.960938 39.734375 6.375 39.742188 C 6.582031 39.742188 6.785156 39.746094 7 39.75 C 7 39.605469 7 39.460938 6.996094 39.3125 C 6.972656 35.769531 6.957031 32.230469 6.949219 28.691406 C 6.945312 26.980469 6.9375 25.269531 6.925781 23.558594 C 6.914062 21.90625 6.910156 20.253906 6.902344 18.601562 C 6.902344 17.972656 6.898438 17.34375 6.894531 16.714844 C 6.886719 15.832031 6.886719 14.949219 6.886719 14.066406 C 6.882812 13.675781 6.882812 13.675781 6.875 13.277344 C 6.882812 11.710938 7.082031 10.78125 8 9.5 C 9.113281 8.425781 10.53125 8.425781 12 8.4375 C 12.582031 8.449219 13.167969 8.472656 13.75 8.5 C 13.746094 8.332031 13.742188 8.167969 13.738281 7.996094 C 13.722656 7.234375 13.714844 6.476562 13.703125 5.71875 C 13.695312 5.457031 13.691406 5.195312 13.683594 4.925781 C 13.671875 3.515625 13.675781 2.457031 14.5 1.25 C 15.503906 0.34375 16.097656 -0.0273438 17.4375 -0.0351562 Z M 17.4375 -0.0351562 "/>
<path style=" stroke:none;fill-rule:nonzero;fill:rgb(98.823529%,87.058824%,45.882353%);fill-opacity:1;" d="M 40.859375 28.414062 C 41.074219 28.414062 41.285156 28.414062 41.503906 28.414062 C 42.207031 28.414062 42.90625 28.417969 43.605469 28.425781 C 44.09375 28.425781 44.578125 28.429688 45.066406 28.429688 C 46.34375 28.433594 47.621094 28.441406 48.898438 28.449219 C 50.207031 28.457031 51.511719 28.460938 52.816406 28.460938 C 55.378906 28.472656 57.941406 28.484375 60.5 28.5 C 60.53125 32.714844 60.550781 36.933594 60.566406 41.148438 C 60.570312 43.105469 60.582031 45.0625 60.59375 47.019531 C 60.609375 48.726562 60.613281 50.433594 60.617188 52.140625 C 60.621094 53.042969 60.621094 53.945312 60.632812 54.851562 C 60.644531 55.855469 60.644531 56.863281 60.644531 57.875 C 60.648438 58.324219 60.648438 58.324219 60.65625 58.78125 C 60.648438 59.960938 60.628906 60.765625 60.054688 61.808594 C 58.800781 62.496094 57.628906 62.417969 56.226562 62.402344 C 55.917969 62.40625 55.609375 62.40625 55.296875 62.40625 C 54.628906 62.410156 53.964844 62.410156 53.300781 62.40625 C 52.246094 62.398438 51.199219 62.402344 50.144531 62.40625 C 48.292969 62.414062 46.441406 62.414062 44.589844 62.40625 C 41.800781 62.402344 39.011719 62.40625 36.21875 62.414062 C 35.175781 62.414062 34.128906 62.414062 33.082031 62.410156 C 32.28125 62.40625 31.480469 62.410156 30.675781 62.414062 C 30.386719 62.410156 30.097656 62.40625 29.796875 62.40625 C 29.53125 62.40625 29.269531 62.40625 28.996094 62.410156 C 28.769531 62.40625 28.539062 62.40625 28.300781 62.40625 C 28.117188 62.4375 27.9375 62.46875 27.75 62.5 C 27.585938 62.746094 27.421875 62.996094 27.25 63.25 C 26.65625 63.324219 26.65625 63.324219 25.96875 63.296875 C 25.738281 63.289062 25.511719 63.28125 25.28125 63.277344 C 25.105469 63.265625 24.929688 63.261719 24.75 63.25 C 24.667969 63.003906 24.585938 62.753906 24.5 62.5 C 24.324219 62.5 24.148438 62.5 23.96875 62.5 C 22.308594 62.496094 20.648438 62.484375 18.988281 62.46875 C 18.136719 62.457031 17.285156 62.453125 16.433594 62.453125 C 15.449219 62.449219 14.46875 62.4375 13.488281 62.425781 C 13.183594 62.425781 12.878906 62.429688 12.566406 62.429688 C 11.34375 62.410156 10.496094 62.386719 9.421875 61.785156 C 8.960938 60.925781 8.957031 60.53125 8.972656 59.574219 C 8.976562 59.328125 8.980469 59.078125 8.984375 58.824219 C 8.992188 58.539062 8.992188 58.539062 9 58.25 C 9.28125 58.25 9.28125 58.25 9.566406 58.246094 C 14.113281 58.230469 18.664062 58.214844 23.210938 58.191406 C 25.414062 58.179688 27.613281 58.167969 29.808594 58.164062 C 31.726562 58.15625 33.644531 58.148438 35.5625 58.136719 C 36.578125 58.132812 37.59375 58.128906 38.609375 58.125 C 39.5625 58.125 40.519531 58.121094 41.476562 58.113281 C 41.824219 58.109375 42.175781 58.105469 42.527344 58.109375 C 43.003906 58.109375 43.484375 58.105469 43.964844 58.101562 C 44.234375 58.097656 44.5 58.097656 44.773438 58.097656 C 45.910156 57.945312 46.550781 57.460938 47.320312 56.640625 C 47.941406 55.351562 47.894531 54.183594 47.882812 52.765625 C 47.882812 52.480469 47.886719 52.191406 47.886719 51.894531 C 47.886719 51.289062 47.886719 50.679688 47.878906 50.074219 C 47.875 49.144531 47.878906 48.21875 47.886719 47.289062 C 47.886719 46.699219 47.886719 46.105469 47.882812 45.515625 C 47.886719 45.238281 47.886719 44.964844 47.890625 44.679688 C 47.871094 43.074219 47.742188 42.039062 46.75 40.75 C 45.921875 40.203125 45.214844 40.183594 44.234375 40.179688 C 43.925781 40.175781 43.613281 40.175781 43.292969 40.171875 C 42.949219 40.171875 42.609375 40.167969 42.261719 40.167969 C 41.898438 40.167969 41.539062 40.164062 41.175781 40.164062 C 40.191406 40.15625 39.210938 40.152344 38.226562 40.148438 C 37.199219 40.144531 36.171875 40.136719 35.144531 40.132812 C 33.199219 40.121094 31.253906 40.109375 29.308594 40.101562 C 27.09375 40.09375 24.878906 40.078125 22.664062 40.066406 C 18.109375 40.042969 13.554688 40.019531 9 40 C 9 38.433594 9 36.863281 9 35.25 C 9.691406 35.25 10.386719 35.246094 11.101562 35.246094 C 13.398438 35.242188 15.695312 35.230469 17.988281 35.21875 C 19.382812 35.207031 20.773438 35.203125 22.164062 35.203125 C 23.511719 35.199219 24.851562 35.191406 26.199219 35.183594 C 26.710938 35.175781 27.21875 35.175781 27.734375 35.175781 C 28.453125 35.179688 29.171875 35.171875 29.886719 35.164062 C 30.101562 35.167969 30.308594 35.167969 30.523438 35.171875 C 32.34375 35.136719 33.574219 34.449219 34.832031 33.152344 C 34.980469 32.953125 35.128906 32.753906 35.28125 32.546875 C 35.445312 32.328125 35.609375 32.113281 35.78125 31.890625 C 36.078125 31.484375 36.375 31.078125 36.671875 30.667969 C 36.863281 30.40625 36.863281 30.40625 37.0625 30.140625 C 37.171875 29.988281 37.28125 29.832031 37.394531 29.671875 C 38.414062 28.460938 39.328125 28.394531 40.859375 28.414062 Z M 40.859375 28.414062 "/>
<path style=" stroke:none;fill-rule:nonzero;fill:rgb(90.588236%,95.294118%,98.823529%);fill-opacity:1;" d="M 17.941406 1.878906 C 18.183594 1.878906 18.421875 1.878906 18.667969 1.875 C 18.925781 1.878906 19.1875 1.882812 19.457031 1.886719 C 19.871094 1.886719 19.871094 1.886719 20.292969 1.886719 C 21.207031 1.886719 22.113281 1.894531 23.027344 1.902344 C 23.660156 1.90625 24.289062 1.90625 24.921875 1.90625 C 26.417969 1.910156 27.910156 1.917969 29.40625 1.925781 C 31.105469 1.941406 32.804688 1.945312 34.503906 1.949219 C 38.003906 1.960938 41.503906 1.976562 45 2 C 45 2.164062 45.003906 2.328125 45.003906 2.496094 C 45.011719 3.246094 45.03125 4 45.046875 4.75 C 45.046875 5.007812 45.050781 5.265625 45.050781 5.53125 C 45.097656 7.195312 45.316406 8.507812 46.5 9.75 C 48.671875 10.835938 51.324219 10.402344 53.75 10.5 C 53.75 15.863281 53.75 21.226562 53.75 26.75 C 52.347656 26.75 50.945312 26.75 49.5 26.75 C 49.488281 26.175781 49.488281 26.175781 49.480469 25.589844 C 49.464844 25.085938 49.453125 24.582031 49.4375 24.078125 C 49.433594 23.828125 49.429688 23.574219 49.425781 23.316406 C 49.394531 22.269531 49.324219 21.429688 48.925781 20.457031 C 47.789062 19.6875 46.585938 19.820312 45.25 19.84375 C 44.976562 19.839844 44.703125 19.835938 44.421875 19.828125 C 42.90625 19.828125 42.90625 19.828125 41.574219 20.457031 C 41.085938 21.652344 41.082031 22.796875 41.0625 24.078125 C 41.050781 24.460938 41.050781 24.460938 41.039062 24.855469 C 41.023438 25.488281 41.011719 26.117188 41 26.75 C 40.339844 26.75 39.679688 26.75 39 26.75 C 38.996094 26.445312 38.996094 26.140625 38.992188 25.824219 C 38.984375 24.691406 38.96875 23.558594 38.949219 22.425781 C 38.941406 21.933594 38.933594 21.445312 38.933594 20.953125 C 38.925781 20.25 38.914062 19.542969 38.902344 18.839844 C 38.902344 18.621094 38.902344 18.402344 38.898438 18.175781 C 38.878906 17.222656 38.863281 16.667969 38.324219 15.863281 C 37.257812 15.191406 36.113281 15.347656 34.890625 15.359375 C 34.628906 15.351562 34.371094 15.347656 34.105469 15.34375 C 33.726562 15.34375 33.726562 15.34375 33.34375 15.34375 C 33.117188 15.34375 32.886719 15.34375 32.652344 15.34375 C 31.707031 15.570312 31.335938 15.984375 30.75 16.75 C 30.582031 17.542969 30.582031 17.542969 30.628906 18.402344 C 30.632812 18.714844 30.636719 19.027344 30.640625 19.347656 C 30.648438 19.671875 30.660156 19.996094 30.671875 20.328125 C 30.679688 20.820312 30.679688 20.820312 30.6875 21.320312 C 30.703125 22.132812 30.726562 22.941406 30.75 23.75 C 31.492188 23.503906 31.492188 23.503906 32.25 23.25 C 32.332031 21.1875 32.414062 19.125 32.5 17 C 33.238281 16.996094 33.976562 16.988281 34.734375 16.984375 C 34.96875 16.980469 35.199219 16.980469 35.441406 16.976562 C 35.621094 16.976562 35.800781 16.976562 35.988281 16.976562 C 36.175781 16.976562 36.363281 16.972656 36.558594 16.972656 C 37 17 37 17 37.25 17.25 C 37.324219 18.691406 37.328125 20.132812 37.335938 21.578125 C 37.34375 22.066406 37.347656 22.550781 37.359375 23.039062 C 37.371094 23.742188 37.378906 24.441406 37.378906 25.144531 C 37.390625 25.46875 37.390625 25.46875 37.398438 25.800781 C 37.394531 26.890625 37.378906 27.34375 36.664062 28.210938 C 36.445312 28.386719 36.226562 28.566406 36 28.75 C 35.738281 29.074219 35.484375 29.40625 35.238281 29.746094 C 35.046875 30.011719 35.046875 30.011719 34.847656 30.28125 C 34.582031 30.648438 34.316406 31.019531 34.050781 31.390625 C 33.921875 31.566406 33.792969 31.738281 33.660156 31.917969 C 33.488281 32.15625 33.488281 32.15625 33.3125 32.402344 C 33.210938 32.515625 33.105469 32.632812 33 32.75 C 32.835938 32.75 32.671875 32.75 32.5 32.75 C 32.417969 30.851562 32.335938 28.953125 32.25 27 C 31.835938 26.917969 31.425781 26.835938 31 26.75 C 30.5625 27.1875 30.691406 27.796875 30.671875 28.390625 C 30.65625 28.8125 30.65625 28.8125 30.640625 29.246094 C 30.628906 29.539062 30.621094 29.835938 30.609375 30.140625 C 30.59375 30.585938 30.59375 30.585938 30.578125 31.039062 C 30.550781 31.777344 30.523438 32.511719 30.5 33.25 C 29.839844 33.25 29.179688 33.25 28.5 33.25 C 28.5 32.980469 28.5 32.714844 28.496094 32.441406 C 28.496094 29.925781 28.484375 27.40625 28.46875 24.890625 C 28.457031 23.597656 28.453125 22.304688 28.449219 21.011719 C 28.449219 19.761719 28.441406 18.515625 28.433594 17.265625 C 28.425781 16.789062 28.425781 16.316406 28.425781 15.835938 C 28.429688 15.167969 28.421875 14.503906 28.414062 13.835938 C 28.417969 13.539062 28.417969 13.539062 28.421875 13.238281 C 28.398438 12.265625 28.335938 11.84375 27.652344 11.128906 C 26.550781 10.488281 25.496094 10.59375 24.25 10.609375 C 24.003906 10.601562 23.757812 10.597656 23.503906 10.59375 C 23.265625 10.59375 23.027344 10.59375 22.78125 10.59375 C 22.566406 10.59375 22.351562 10.59375 22.128906 10.59375 C 21.195312 10.828125 20.84375 11.253906 20.25 12 C 20.125 12.746094 20.078125 13.347656 20.085938 14.09375 C 20.082031 14.40625 20.082031 14.40625 20.078125 14.722656 C 20.070312 15.40625 20.074219 16.085938 20.074219 16.769531 C 20.070312 17.246094 20.066406 17.71875 20.0625 18.195312 C 20.050781 19.441406 20.050781 20.691406 20.046875 21.9375 C 20.046875 23.210938 20.039062 24.484375 20.027344 25.757812 C 20.011719 28.253906 20.003906 30.753906 20 33.25 C 18.597656 33.25 17.195312 33.25 15.75 33.25 C 15.726562 29.320312 15.710938 25.398438 15.699219 21.46875 C 15.691406 19.648438 15.683594 17.820312 15.675781 16 C 15.664062 14.410156 15.65625 12.820312 15.65625 11.230469 C 15.65625 10.390625 15.652344 9.550781 15.644531 8.707031 C 15.636719 7.769531 15.636719 6.828125 15.636719 5.890625 C 15.632812 5.613281 15.628906 5.332031 15.625 5.042969 C 15.628906 4.789062 15.628906 4.53125 15.628906 4.269531 C 15.628906 4.046875 15.628906 3.824219 15.628906 3.59375 C 15.890625 2.320312 16.707031 1.875 17.941406 1.878906 Z M 17.941406 1.878906 "/>
<path style=" stroke:none;fill-rule:nonzero;fill:rgb(59.215689%,89.019608%,97.647059%);fill-opacity:1;" d="M 5.890625 41.65625 C 6.144531 41.652344 6.144531 41.652344 6.398438 41.652344 C 6.960938 41.648438 7.523438 41.648438 8.085938 41.652344 C 8.488281 41.652344 8.890625 41.648438 9.292969 41.648438 C 10.390625 41.644531 11.484375 41.648438 12.582031 41.648438 C 13.722656 41.652344 14.871094 41.648438 16.015625 41.648438 C 17.9375 41.648438 19.859375 41.648438 21.78125 41.652344 C 24.007812 41.65625 26.230469 41.65625 28.453125 41.648438 C 30.363281 41.648438 32.273438 41.648438 34.179688 41.648438 C 35.320312 41.648438 36.460938 41.648438 37.601562 41.648438 C 38.671875 41.644531 39.746094 41.648438 40.816406 41.652344 C 41.210938 41.652344 41.605469 41.652344 42 41.648438 C 42.535156 41.648438 43.070312 41.652344 43.609375 41.65625 C 43.910156 41.65625 44.210938 41.65625 44.519531 41.65625 C 45.25 41.75 45.25 41.75 45.722656 42.09375 C 46.113281 42.664062 46.097656 43.078125 46.101562 43.761719 C 46.105469 44.148438 46.105469 44.148438 46.113281 44.542969 C 46.109375 44.820312 46.109375 45.097656 46.109375 45.382812 C 46.109375 45.667969 46.113281 45.953125 46.113281 46.246094 C 46.113281 46.851562 46.113281 47.453125 46.113281 48.054688 C 46.109375 48.980469 46.117188 49.90625 46.125 50.828125 C 46.125 51.414062 46.125 52 46.125 52.585938 C 46.125 52.863281 46.128906 53.140625 46.132812 53.425781 C 46.128906 53.683594 46.125 53.941406 46.125 54.203125 C 46.125 54.433594 46.125 54.65625 46.125 54.890625 C 45.953125 55.71875 45.660156 55.980469 45 56.5 C 44.242188 56.625 44.242188 56.625 43.335938 56.625 C 43.171875 56.628906 43.003906 56.628906 42.832031 56.628906 C 42.273438 56.632812 41.714844 56.628906 41.15625 56.625 C 40.757812 56.628906 40.355469 56.628906 39.957031 56.628906 C 38.871094 56.632812 37.78125 56.628906 36.695312 56.628906 C 35.558594 56.621094 34.421875 56.625 33.285156 56.625 C 31.375 56.625 29.464844 56.621094 27.558594 56.617188 C 25.347656 56.609375 23.136719 56.609375 20.929688 56.613281 C 18.808594 56.613281 16.683594 56.613281 14.558594 56.609375 C 13.652344 56.609375 12.75 56.609375 11.847656 56.609375 C 10.78125 56.613281 9.714844 56.609375 8.652344 56.601562 C 8.261719 56.601562 7.871094 56.601562 7.480469 56.601562 C 6.945312 56.605469 6.414062 56.601562 5.882812 56.597656 C 5.582031 56.597656 5.285156 56.59375 4.976562 56.59375 C 4.25 56.5 4.25 56.5 3.777344 56.15625 C 3.382812 55.578125 3.402344 55.15625 3.402344 54.460938 C 3.402344 54.195312 3.398438 53.933594 3.398438 53.664062 C 3.398438 53.378906 3.398438 53.097656 3.398438 52.804688 C 3.398438 52.511719 3.398438 52.222656 3.398438 51.921875 C 3.398438 51.304688 3.398438 50.691406 3.402344 50.074219 C 3.40625 49.128906 3.402344 48.183594 3.398438 47.238281 C 3.398438 46.640625 3.398438 46.042969 3.398438 45.445312 C 3.398438 45.164062 3.398438 44.878906 3.398438 44.585938 C 3.398438 44.320312 3.402344 44.058594 3.402344 43.789062 C 3.402344 43.558594 3.402344 43.328125 3.402344 43.085938 C 3.640625 41.648438 4.605469 41.65625 5.890625 41.65625 Z M 5.890625 41.65625 "/>
<path style=" stroke:none;fill-rule:nonzero;fill:rgb(96.078432%,67.450982%,20.784314%);fill-opacity:1;" d="M 10.25 10.5 C 11.488281 10.5 12.726562 10.5 14 10.5 C 14 18.007812 14 25.515625 14 33.25 C 12.351562 33.25 10.699219 33.25 9 33.25 C 8.972656 30.46875 8.949219 27.6875 8.933594 24.90625 C 8.925781 23.613281 8.921875 22.324219 8.90625 21.03125 C 8.890625 19.78125 8.886719 18.539062 8.882812 17.289062 C 8.878906 16.816406 8.875 16.339844 8.867188 15.863281 C 8.859375 15.199219 8.859375 14.53125 8.859375 13.863281 C 8.851562 13.671875 8.851562 13.472656 8.84375 13.269531 C 8.859375 11.746094 9.054688 11.695312 10.25 10.5 Z M 10.25 10.5 "/>
<path style=" stroke:none;fill-rule:nonzero;fill:rgb(1.960784%,2.745098%,3.137255%);fill-opacity:1;" d="M 24.328125 43.75 C 25.550781 44.433594 26.296875 45.304688 27 46.5 C 27.09375 46.65625 27.1875 46.816406 27.28125 46.980469 C 27.863281 48.367188 27.65625 50.066406 27.125 51.4375 C 26.425781 52.824219 25.304688 53.851562 23.917969 54.539062 C 22.382812 55.023438 20.566406 55.078125 19.066406 54.476562 C 17.761719 53.65625 16.59375 52.542969 16.101562 51.046875 C 15.804688 49.425781 15.65625 47.601562 16.515625 46.140625 C 18.464844 43.527344 21.203125 42.347656 24.328125 43.75 Z M 24.328125 43.75 "/>
<path style=" stroke:none;fill-rule:nonzero;fill:rgb(26.666668%,77.254903%,53.333336%);fill-opacity:1;" d="M 23.769531 12.214844 C 23.96875 12.214844 24.171875 12.21875 24.375 12.21875 C 24.574219 12.21875 24.773438 12.214844 24.980469 12.214844 C 26.46875 12.21875 26.46875 12.21875 26.75 12.5 C 26.773438 13.144531 26.78125 13.785156 26.777344 14.433594 C 26.777344 14.636719 26.777344 14.839844 26.777344 15.046875 C 26.777344 15.71875 26.777344 16.390625 26.777344 17.0625 C 26.773438 17.527344 26.773438 17.992188 26.773438 18.457031 C 26.773438 19.683594 26.769531 20.910156 26.769531 22.136719 C 26.765625 23.386719 26.761719 24.636719 26.761719 25.886719 C 26.761719 28.339844 26.753906 30.796875 26.75 33.25 C 25.183594 33.25 23.617188 33.25 22 33.25 C 21.996094 30.546875 21.992188 27.847656 21.988281 25.144531 C 21.984375 23.894531 21.984375 22.636719 21.980469 21.382812 C 21.976562 20.175781 21.976562 18.964844 21.976562 17.753906 C 21.976562 17.292969 21.976562 16.832031 21.972656 16.367188 C 21.972656 15.722656 21.96875 15.078125 21.96875 14.433594 C 21.96875 14.242188 21.96875 14.046875 21.96875 13.847656 C 21.972656 12.183594 22.117188 12.21875 23.769531 12.214844 Z M 23.769531 12.214844 "/>
<path style=" stroke:none;fill-rule:nonzero;fill:rgb(94.509804%,78.039217%,34.509805%);fill-opacity:1;" d="M 38.75 28.5 C 45.925781 28.5 53.105469 28.5 60.5 28.5 C 60.550781 36.601562 60.550781 36.601562 60.558594 39.992188 C 60.566406 42.335938 60.578125 44.675781 60.59375 47.019531 C 60.609375 48.726562 60.613281 50.433594 60.617188 52.140625 C 60.621094 53.042969 60.621094 53.945312 60.632812 54.851562 C 60.640625 55.859375 60.640625 56.863281 60.640625 57.875 C 60.648438 58.324219 60.648438 58.324219 60.65625 58.78125 C 60.648438 59.960938 60.628906 60.765625 60.054688 61.8125 C 58.804688 62.492188 57.640625 62.414062 56.238281 62.390625 C 55.78125 62.390625 55.78125 62.390625 55.316406 62.390625 C 54.480469 62.390625 53.648438 62.386719 52.8125 62.378906 C 51.941406 62.371094 51.066406 62.367188 50.195312 62.367188 C 48.546875 62.363281 46.890625 62.351562 45.242188 62.339844 C 43.363281 62.324219 41.480469 62.320312 39.601562 62.3125 C 35.734375 62.300781 31.867188 62.277344 28 62.25 C 28 62.167969 28 62.085938 28 62 C 42.726562 61.875 42.726562 61.875 57.75 61.75 C 58.066406 61.113281 58.035156 60.667969 58.039062 59.953125 C 58.042969 59.683594 58.046875 59.40625 58.046875 59.125 C 58.046875 58.824219 58.050781 58.519531 58.050781 58.210938 C 58.054688 57.890625 58.058594 57.574219 58.058594 57.25 C 58.066406 56.378906 58.070312 55.507812 58.074219 54.636719 C 58.082031 53.726562 58.085938 52.816406 58.09375 51.90625 C 58.109375 50.183594 58.117188 48.460938 58.128906 46.738281 C 58.144531 44.410156 58.160156 42.082031 58.175781 39.753906 C 58.203125 36.085938 58.226562 32.417969 58.25 28.75 C 51.816406 28.75 45.378906 28.75 38.75 28.75 C 38.75 28.667969 38.75 28.585938 38.75 28.5 Z M 38.75 28.5 "/>
<path style=" stroke:none;fill-rule:nonzero;fill:rgb(98.823529%,69.01961%,21.176471%);fill-opacity:1;" d="M 55.75 10.5 C 59.25 10.5 59.25 10.5 60.5 11.5 C 60.664062 12.027344 60.664062 12.027344 60.675781 12.582031 C 60.683594 12.78125 60.691406 12.984375 60.699219 13.1875 C 60.699219 13.394531 60.703125 13.601562 60.703125 13.8125 C 60.710938 14.023438 60.714844 14.234375 60.722656 14.449219 C 60.738281 14.964844 60.746094 15.484375 60.75 16 C 61.078125 16.164062 61.410156 16.328125 61.75 16.5 C 61.75 17.324219 61.75 18.148438 61.75 19 C 61.421875 19.164062 61.089844 19.328125 60.75 19.5 C 60.667969 21.808594 60.585938 24.121094 60.5 26.5 C 58.933594 26.5 57.363281 26.5 55.75 26.5 C 55.75 21.21875 55.75 15.941406 55.75 10.5 Z M 55.75 10.5 "/>
<path style=" stroke:none;fill-rule:nonzero;fill:rgb(67.450982%,51.764709%,76.078433%);fill-opacity:1;" d="M 32.5 17 C 33.238281 16.996094 33.976562 16.988281 34.734375 16.984375 C 34.96875 16.984375 35.199219 16.980469 35.441406 16.976562 C 35.621094 16.976562 35.800781 16.976562 35.988281 16.976562 C 36.175781 16.976562 36.363281 16.972656 36.558594 16.972656 C 37 17 37 17 37.25 17.25 C 37.324219 18.691406 37.328125 20.136719 37.335938 21.578125 C 37.34375 22.066406 37.347656 22.550781 37.359375 23.039062 C 37.371094 23.742188 37.378906 24.441406 37.378906 25.144531 C 37.386719 25.363281 37.390625 25.578125 37.398438 25.800781 C 37.394531 26.890625 37.378906 27.34375 36.664062 28.210938 C 36.445312 28.386719 36.226562 28.566406 36 28.75 C 35.738281 29.074219 35.484375 29.40625 35.238281 29.746094 C 35.109375 29.921875 34.980469 30.101562 34.847656 30.28125 C 34.582031 30.648438 34.316406 31.019531 34.050781 31.390625 C 33.921875 31.566406 33.792969 31.738281 33.660156 31.921875 C 33.546875 32.078125 33.429688 32.238281 33.3125 32.402344 C 33.15625 32.574219 33.15625 32.574219 33 32.75 C 32.835938 32.75 32.671875 32.75 32.5 32.75 C 32.496094 32.578125 32.496094 32.410156 32.492188 32.234375 C 32.480469 31.460938 32.457031 30.691406 32.4375 29.921875 C 32.433594 29.65625 32.429688 29.386719 32.425781 29.109375 C 32.417969 28.851562 32.410156 28.59375 32.402344 28.328125 C 32.398438 28.09375 32.390625 27.859375 32.386719 27.613281 C 32.210938 26.828125 31.902344 26.683594 31.25 26.25 C 31.152344 25.628906 31.152344 25.628906 31.1875 24.953125 C 31.199219 24.726562 31.203125 24.503906 31.214844 24.269531 C 31.226562 24.097656 31.238281 23.925781 31.25 23.75 C 31.578125 23.585938 31.910156 23.421875 32.25 23.25 C 32.332031 21.1875 32.414062 19.125 32.5 17 Z M 32.5 17 "/>
<path style=" stroke:none;fill-rule:nonzero;fill:rgb(99.607843%,76.078433%,26.274511%);fill-opacity:1;" d="M 11.5 10.75 C 11.5 18.175781 11.5 25.601562 11.5 33.25 C 10.675781 33.25 9.851562 33.25 9 33.25 C 8.984375 30.464844 8.96875 27.675781 8.960938 24.890625 C 8.957031 23.597656 8.953125 22.304688 8.941406 21.011719 C 8.933594 19.761719 8.929688 18.515625 8.929688 17.265625 C 8.925781 16.789062 8.925781 16.316406 8.921875 15.835938 C 8.914062 15.171875 8.914062 14.503906 8.914062 13.835938 C 8.914062 13.640625 8.910156 13.441406 8.90625 13.238281 C 8.910156 12.460938 8.960938 11.835938 9.269531 11.121094 C 9.75 10.75 9.75 10.75 11.5 10.75 Z M 11.5 10.75 "/>
<path style=" stroke:none;fill-rule:nonzero;fill:rgb(1.568628%,2.745098%,2.745098%);fill-opacity:1;" d="M 40 44 C 40.5 44.5 40.5 44.5 40.53125 45.15625 C 40.519531 45.351562 40.511719 45.546875 40.5 45.75 C 39.371094 46.0625 39.371094 46.0625 38.792969 45.761719 C 38.121094 45.4375 37.617188 45.425781 36.875 45.421875 C 36.640625 45.417969 36.40625 45.414062 36.164062 45.410156 C 35.398438 45.515625 35.085938 45.765625 34.5 46.25 C 34.335938 46.25 34.171875 46.25 34 46.25 C 33.921875 46.445312 33.84375 46.640625 33.765625 46.84375 C 33.5 47.5 33.5 47.5 33.25 48 C 33.082031 49.015625 33.066406 49.898438 33.550781 50.824219 C 34.191406 51.703125 34.71875 52.347656 35.75 52.75 C 37.128906 52.863281 38.09375 52.84375 39.25 52 C 39.65625 51.359375 39.96875 50.703125 40.25 50 C 39.988281 50.007812 39.988281 50.007812 39.71875 50.015625 C 39.492188 50.023438 39.265625 50.027344 39.03125 50.03125 C 38.691406 50.039062 38.691406 50.039062 38.34375 50.050781 C 37.75 50 37.75 50 37.25 49.5 C 37.386719 48.613281 37.386719 48.613281 37.75 48.25 C 38.421875 48.226562 39.078125 48.214844 39.75 48.21875 C 39.9375 48.21875 40.125 48.21875 40.316406 48.214844 C 41.71875 48.21875 41.71875 48.21875 42 48.5 C 42.203125 50.15625 42.113281 51.449219 41.125 52.820312 C 40.15625 53.933594 39.253906 54.671875 37.738281 54.828125 C 35.941406 54.890625 34.65625 54.847656 33.210938 53.714844 C 31.925781 52.421875 31.21875 51.03125 31.1875 49.203125 C 31.214844 47.578125 31.382812 46.421875 32.507812 45.199219 C 34.835938 43.042969 37.101562 42.652344 40 44 Z M 40 44 "/>
<path style=" stroke:none;fill-rule:nonzero;fill:rgb(38.431373%,80.392158%,91.764706%);fill-opacity:1;" d="M 42.5 41.75 C 42.941406 41.730469 43.386719 41.714844 43.828125 41.703125 C 44.074219 41.695312 44.320312 41.683594 44.574219 41.675781 C 45.25 41.75 45.25 41.75 45.660156 42.050781 C 46.109375 42.648438 46.097656 43.019531 46.101562 43.761719 C 46.105469 44.148438 46.105469 44.148438 46.109375 44.542969 C 46.109375 44.816406 46.109375 45.09375 46.109375 45.382812 C 46.109375 45.667969 46.109375 45.953125 46.113281 46.246094 C 46.113281 46.851562 46.113281 47.453125 46.113281 48.054688 C 46.109375 48.980469 46.117188 49.902344 46.125 50.828125 C 46.125 51.414062 46.125 52 46.125 52.585938 C 46.128906 52.863281 46.128906 53.136719 46.132812 53.425781 C 46.128906 53.683594 46.128906 53.941406 46.125 54.203125 C 46.125 54.433594 46.125 54.65625 46.125 54.890625 C 45.953125 55.71875 45.660156 55.980469 45 56.5 C 44.238281 56.621094 44.238281 56.621094 43.332031 56.621094 C 43.082031 56.621094 43.082031 56.621094 42.824219 56.621094 C 42.265625 56.625 41.703125 56.621094 41.144531 56.613281 C 40.746094 56.613281 40.34375 56.613281 39.941406 56.613281 C 38.851562 56.613281 37.761719 56.609375 36.671875 56.601562 C 35.53125 56.59375 34.390625 56.59375 33.253906 56.59375 C 31.09375 56.589844 28.9375 56.582031 26.777344 56.574219 C 24.324219 56.558594 21.863281 56.554688 19.410156 56.550781 C 14.355469 56.539062 9.300781 56.523438 4.25 56.5 C 4.25 56.417969 4.25 56.335938 4.25 56.25 C 4.449219 56.25 4.644531 56.246094 4.847656 56.246094 C 9.628906 56.21875 14.414062 56.195312 19.199219 56.164062 C 21.511719 56.152344 23.824219 56.136719 26.140625 56.125 C 28.15625 56.113281 30.171875 56.101562 32.183594 56.089844 C 33.253906 56.085938 34.324219 56.078125 35.390625 56.074219 C 36.394531 56.066406 37.398438 56.0625 38.402344 56.054688 C 38.773438 56.050781 39.140625 56.050781 39.511719 56.050781 C 40.011719 56.046875 40.515625 56.042969 41.015625 56.039062 C 41.300781 56.039062 41.582031 56.039062 41.871094 56.035156 C 42.484375 56.070312 42.484375 56.070312 42.75 55.75 C 42.773438 55.339844 42.78125 54.925781 42.78125 54.515625 C 42.78125 54.121094 42.78125 54.121094 42.785156 53.71875 C 42.785156 53.433594 42.78125 53.148438 42.78125 52.851562 C 42.78125 52.5625 42.78125 52.269531 42.785156 51.96875 C 42.785156 51.351562 42.78125 50.730469 42.78125 50.113281 C 42.78125 49.164062 42.78125 48.210938 42.785156 47.261719 C 42.785156 46.664062 42.78125 46.0625 42.78125 45.460938 C 42.785156 45.035156 42.785156 45.035156 42.785156 44.597656 C 42.785156 44.335938 42.78125 44.070312 42.78125 43.796875 C 42.78125 43.566406 42.78125 43.332031 42.78125 43.09375 C 42.773438 42.460938 42.773438 42.460938 42.5 41.75 Z M 42.5 41.75 "/>
<path style=" stroke:none;fill-rule:nonzero;fill:rgb(58.823532%,88.627452%,97.254902%);fill-opacity:1;" d="M 23 45.25 C 23.859375 45.671875 23.859375 45.671875 24.5 46.25 C 24.695312 46.414062 24.890625 46.578125 25.09375 46.75 C 25.746094 47.953125 25.683594 49.160156 25.5 50.5 C 24.941406 51.636719 24.257812 52.453125 23.0625 52.921875 C 21.75 53.105469 20.863281 53.191406 19.6875 52.578125 C 18.773438 51.808594 18.128906 51.140625 17.75 50 C 17.621094 48.460938 17.765625 47.46875 18.75 46.25 C 20.007812 45.050781 21.347656 45.003906 23 45.25 Z M 23 45.25 "/>
<path style=" stroke:none;fill-rule:nonzero;fill:rgb(42.745098%,83.137256%,62.7451%);fill-opacity:1;" d="M 22 12.5 C 22.742188 12.5 23.484375 12.5 24.25 12.5 C 24.25 19.347656 24.25 26.195312 24.25 33.25 C 23.507812 33.25 22.765625 33.25 22 33.25 C 22 26.402344 22 19.554688 22 12.5 Z M 22 12.5 "/>
<path style=" stroke:none;fill-rule:nonzero;fill:rgb(99.607843%,76.078433%,26.274511%);fill-opacity:1;" d="M 55.75 10.75 C 56.410156 10.75 57.070312 10.75 57.75 10.75 C 58.328125 11.617188 58.308594 11.941406 58.308594 12.960938 C 58.308594 13.414062 58.308594 13.414062 58.308594 13.871094 C 58.304688 14.195312 58.300781 14.519531 58.300781 14.855469 C 58.296875 15.191406 58.296875 15.523438 58.296875 15.859375 C 58.296875 16.742188 58.289062 17.621094 58.285156 18.503906 C 58.28125 19.40625 58.277344 20.304688 58.273438 21.203125 C 58.269531 22.96875 58.261719 24.734375 58.25 26.5 C 57.425781 26.5 56.601562 26.5 55.75 26.5 C 55.75 21.300781 55.75 16.105469 55.75 10.75 Z M 55.75 10.75 "/>
<path style=" stroke:none;fill-rule:nonzero;fill:rgb(77.64706%,92.156863%,97.647059%);fill-opacity:1;" d="M 48.5 10.5 C 50.234375 10.5 51.964844 10.5 53.75 10.5 C 53.75 15.863281 53.75 21.226562 53.75 26.75 C 52.347656 26.75 50.945312 26.75 49.5 26.75 C 49.5 25.183594 49.5 23.613281 49.5 22 C 49.582031 22 49.664062 22 49.75 22 C 49.75 23.484375 49.75 24.96875 49.75 26.5 C 50.328125 26.5 50.90625 26.5 51.5 26.5 C 51.5 21.300781 51.5 16.105469 51.5 10.75 C 50.511719 10.75 49.519531 10.75 48.5 10.75 C 48.5 10.667969 48.5 10.585938 48.5 10.5 Z M 48.5 10.5 "/>
<path style=" stroke:none;fill-rule:nonzero;fill:rgb(5.882353%,5.098039%,2.745098%);fill-opacity:1;" d="M 42.214844 30.964844 C 42.527344 30.960938 42.84375 30.960938 43.167969 30.957031 C 43.511719 30.957031 43.855469 30.957031 44.203125 30.957031 C 44.554688 30.957031 44.90625 30.957031 45.257812 30.957031 C 45.992188 30.953125 46.734375 30.953125 47.472656 30.953125 C 48.417969 30.953125 49.363281 30.953125 50.3125 30.945312 C 51.039062 30.945312 51.765625 30.945312 52.492188 30.945312 C 52.839844 30.945312 53.1875 30.941406 53.539062 30.9375 C 54.027344 30.9375 54.515625 30.9375 55 30.9375 C 55.277344 30.9375 55.554688 30.9375 55.84375 30.9375 C 56.5 31 56.5 31 57 31.5 C 56.859375 32.640625 56.859375 32.640625 56.5 33 C 56.011719 33.027344 55.523438 33.035156 55.035156 33.035156 C 54.722656 33.039062 54.40625 33.039062 54.082031 33.042969 C 53.738281 33.042969 53.394531 33.042969 53.046875 33.042969 C 52.695312 33.042969 52.34375 33.042969 51.992188 33.042969 C 51.257812 33.046875 50.515625 33.046875 49.777344 33.046875 C 48.832031 33.046875 47.886719 33.046875 46.9375 33.054688 C 46.210938 33.054688 45.484375 33.054688 44.757812 33.054688 C 44.410156 33.058594 44.0625 33.058594 43.710938 33.0625 C 43.222656 33.0625 42.734375 33.0625 42.25 33.0625 C 41.832031 33.0625 41.832031 33.0625 41.40625 33.0625 C 40.75 33 40.75 33 40.25 32.5 C 40.4375 30.957031 40.726562 30.96875 42.214844 30.964844 Z M 42.214844 30.964844 "/>
<path style=" stroke:none;fill-rule:nonzero;fill:rgb(78.823531%,58.823532%,89.803922%);fill-opacity:1;" d="M 32.5 17.25 C 33.242188 17.25 33.984375 17.25 34.75 17.25 C 34.78125 18.757812 34.800781 20.265625 34.816406 21.773438 C 34.824219 22.289062 34.832031 22.800781 34.84375 23.3125 C 34.859375 24.050781 34.867188 24.789062 34.871094 25.527344 C 34.878906 25.753906 34.886719 25.984375 34.890625 26.21875 C 34.890625 27.351562 34.886719 27.832031 34.152344 28.742188 C 33.9375 28.910156 33.722656 29.078125 33.5 29.25 C 33.308594 29.441406 33.117188 29.632812 32.921875 29.828125 C 32.78125 29.96875 32.640625 30.109375 32.5 30.25 C 32.492188 30.023438 32.488281 29.796875 32.480469 29.566406 C 32.46875 29.269531 32.453125 28.976562 32.4375 28.671875 C 32.425781 28.378906 32.414062 28.085938 32.402344 27.785156 C 32.21875 26.839844 31.996094 26.78125 31.25 26.25 C 31.152344 25.628906 31.152344 25.628906 31.1875 24.953125 C 31.199219 24.726562 31.203125 24.503906 31.214844 24.269531 C 31.226562 24.097656 31.238281 23.925781 31.25 23.75 C 31.578125 23.585938 31.910156 23.421875 32.25 23.25 C 32.332031 21.269531 32.414062 19.289062 32.5 17.25 Z M 32.5 17.25 "/>
<path style=" stroke:none;fill-rule:nonzero;fill:rgb(3.529412%,5.490196%,6.27451%);fill-opacity:1;" d="M 7.75 43.25 C 8.890625 43.390625 8.890625 43.390625 9.25 43.75 C 9.273438 44.433594 9.28125 45.113281 9.273438 45.796875 C 9.273438 46.003906 9.273438 46.207031 9.273438 46.421875 C 9.273438 47.074219 9.269531 47.734375 9.265625 48.390625 C 9.265625 48.835938 9.261719 49.28125 9.261719 49.726562 C 9.261719 50.816406 9.253906 51.90625 9.25 53 C 9.539062 52.992188 9.539062 52.992188 9.835938 52.984375 C 10.085938 52.976562 10.335938 52.972656 10.59375 52.96875 C 10.84375 52.960938 11.09375 52.957031 11.351562 52.949219 C 12 53 12 53 12.5 53.5 C 12.359375 54.640625 12.359375 54.640625 12 55 C 11.339844 55.039062 10.691406 55.058594 10.03125 55.0625 C 9.847656 55.066406 9.664062 55.074219 9.476562 55.078125 C 8.121094 55.085938 8.121094 55.085938 7.574219 54.683594 C 7.175781 54.148438 7.15625 53.871094 7.15625 53.210938 C 7.15625 53 7.15625 52.792969 7.152344 52.578125 C 7.15625 52.351562 7.15625 52.128906 7.160156 51.898438 C 7.160156 51.667969 7.160156 51.433594 7.160156 51.199219 C 7.160156 50.710938 7.164062 50.222656 7.164062 49.734375 C 7.171875 48.988281 7.171875 48.238281 7.171875 47.488281 C 7.171875 47.015625 7.171875 46.542969 7.175781 46.070312 C 7.175781 45.84375 7.175781 45.621094 7.175781 45.386719 C 7.175781 45.179688 7.179688 44.972656 7.183594 44.757812 C 7.183594 44.574219 7.183594 44.390625 7.183594 44.203125 C 7.25 43.75 7.25 43.75 7.75 43.25 Z M 7.75 43.25 "/>
<path style=" stroke:none;fill-rule:nonzero;fill:rgb(84.705883%,23.921569%,30.19608%);fill-opacity:1;" d="M 44 21.46875 C 44.199219 21.46875 44.402344 21.46875 44.609375 21.46875 C 44.820312 21.46875 45.03125 21.46875 45.25 21.46875 C 45.566406 21.46875 45.566406 21.46875 45.890625 21.46875 C 46.09375 21.46875 46.292969 21.46875 46.5 21.46875 C 46.683594 21.46875 46.871094 21.46875 47.0625 21.46875 C 47.5 21.5 47.5 21.5 47.75 21.75 C 47.773438 22.121094 47.777344 22.496094 47.773438 22.871094 C 47.773438 23.070312 47.773438 23.273438 47.773438 23.480469 C 47.769531 23.738281 47.765625 24 47.765625 24.265625 C 47.761719 25.085938 47.753906 25.90625 47.75 26.75 C 46.101562 26.75 44.449219 26.75 42.75 26.75 C 42.746094 25.929688 42.738281 25.109375 42.734375 24.265625 C 42.734375 24.007812 42.730469 23.75 42.726562 23.480469 C 42.726562 23.175781 42.726562 23.175781 42.726562 22.871094 C 42.726562 22.660156 42.722656 22.453125 42.722656 22.238281 C 42.773438 21.34375 43.21875 21.46875 44 21.46875 Z M 44 21.46875 "/>
<path style=" stroke:none;fill-rule:nonzero;fill:rgb(6.27451%,6.666667%,6.666667%);fill-opacity:1;" d="M 23.164062 5.203125 C 23.425781 5.203125 23.425781 5.203125 23.695312 5.203125 C 24.230469 5.203125 24.765625 5.199219 25.300781 5.195312 C 25.640625 5.195312 25.980469 5.195312 26.320312 5.195312 C 26.628906 5.191406 26.9375 5.191406 27.257812 5.1875 C 28 5.25 28 5.25 28.5 5.75 C 28.359375 6.886719 28.359375 6.886719 28 7.25 C 26.9375 7.304688 25.871094 7.296875 24.804688 7.296875 C 24.269531 7.296875 23.734375 7.300781 23.199219 7.304688 C 22.859375 7.304688 22.519531 7.308594 22.179688 7.308594 C 21.871094 7.308594 21.5625 7.308594 21.242188 7.3125 C 20.5 7.25 20.5 7.25 20 6.75 C 20.246094 4.734375 21.421875 5.210938 23.164062 5.203125 Z M 23.164062 5.203125 "/>
<path style=" stroke:none;fill-rule:nonzero;fill:rgb(35.686275%,78.431374%,89.803922%);fill-opacity:1;" d="M 47 3.25 C 48.257812 4.304688 49.449219 5.402344 50.609375 6.5625 C 50.765625 6.71875 50.925781 6.875 51.09375 7.035156 C 51.316406 7.261719 51.316406 7.261719 51.546875 7.488281 C 51.683594 7.621094 51.816406 7.757812 51.957031 7.894531 C 52.25 8.25 52.25 8.25 52.25 8.75 C 51.5625 8.777344 50.875 8.796875 50.1875 8.8125 C 49.894531 8.824219 49.894531 8.824219 49.597656 8.835938 C 48.707031 8.851562 48.152344 8.835938 47.367188 8.390625 C 46.808594 7.421875 46.890625 6.535156 46.9375 5.4375 C 46.941406 5.226562 46.949219 5.015625 46.949219 4.800781 C 46.960938 4.28125 46.980469 3.765625 47 3.25 Z M 47 3.25 "/>
<path style=" stroke:none;fill-rule:nonzero;fill:rgb(98.431373%,37.254903%,47.843137%);fill-opacity:1;" d="M 43 21.75 C 43.742188 21.75 44.484375 21.75 45.25 21.75 C 45.25 23.316406 45.25 24.886719 45.25 26.5 C 44.507812 26.5 43.765625 26.5 43 26.5 C 43 24.933594 43 23.363281 43 21.75 Z M 43 21.75 "/>
<path style=" stroke:none;fill-rule:nonzero;fill:rgb(58.431375%,89.019608%,97.647059%);fill-opacity:1;" d="M 47 5.25 C 48.21875 6.234375 49.265625 7.28125 50.25 8.5 C 49.851562 8.519531 49.449219 8.535156 49.046875 8.546875 C 48.824219 8.554688 48.601562 8.566406 48.371094 8.574219 C 47.75 8.5 47.75 8.5 47.296875 8.203125 C 46.898438 7.59375 46.925781 7.175781 46.953125 6.453125 C 46.960938 6.226562 46.96875 6.003906 46.972656 5.769531 C 46.984375 5.597656 46.988281 5.425781 47 5.25 Z M 47 5.25 "/>
</g>
</svg>
