<?xml version="1.0" encoding="UTF-8"?>
<svg xmlns="http://www.w3.org/2000/svg" xmlns:xlink="http://www.w3.org/1999/xlink" width="64" height="64" viewBox="0 0 64 64" version="1.1">
<g id="surface1">
<path style=" stroke:none;fill-rule:nonzero;fill:rgb(81.568629%,86.666667%,87.450981%);fill-opacity:1;" d="M 29.25 17.75 C 31.066406 17.75 32.878906 17.75 34.75 17.75 C 34.9375 18.691406 35.027344 19.390625 35.015625 20.328125 C 35.011719 20.550781 35.011719 20.769531 35.011719 20.996094 C 35.003906 21.164062 35.003906 21.328125 35 21.5 C 35.625 21.625 35.625 21.625 36.25 21.75 C 36.441406 21.816406 36.636719 21.878906 36.835938 21.945312 C 37.535156 22.070312 37.535156 22.070312 38.171875 21.585938 C 38.386719 21.398438 38.605469 21.210938 38.828125 21.015625 C 39.160156 20.734375 39.160156 20.734375 39.496094 20.449219 C 39.746094 20.226562 39.746094 20.226562 40 20 C 41.414062 21.175781 42.710938 22.4375 44 23.75 C 43.574219 24.492188 43.15625 25.136719 42.5625 25.75 C 41.925781 26.429688 41.925781 26.429688 42.03125 27.140625 C 42.101562 27.34375 42.175781 27.542969 42.25 27.75 C 42.332031 28.167969 42.417969 28.582031 42.5 29 C 42.75 28.996094 42.75 28.996094 43.003906 28.988281 C 43.222656 28.988281 43.445312 28.988281 43.671875 28.984375 C 43.996094 28.980469 43.996094 28.980469 44.328125 28.976562 C 45 29 45 29 46.25 29.25 C 46.25 31.066406 46.25 32.878906 46.25 34.75 C 45.308594 34.9375 44.609375 35.027344 43.671875 35.015625 C 43.339844 35.011719 43.339844 35.011719 43.003906 35.011719 C 42.835938 35.003906 42.671875 35.003906 42.5 35 C 42.464844 35.179688 42.425781 35.359375 42.390625 35.546875 C 42.25 36.25 42.25 36.25 42.054688 36.84375 C 41.925781 37.53125 41.925781 37.53125 42.414062 38.113281 C 42.601562 38.308594 42.789062 38.503906 42.984375 38.703125 C 43.265625 39 43.265625 39 43.550781 39.300781 C 43.699219 39.449219 43.847656 39.597656 44 39.75 C 43.578125 40.8125 42.820312 41.53125 42.03125 42.328125 C 41.898438 42.46875 41.765625 42.609375 41.628906 42.753906 C 41.238281 43.152344 41.238281 43.152344 40.5 43.75 C 39.5625 43.640625 39.21875 43.246094 38.59375 42.5625 C 38.097656 42.066406 38.097656 42.066406 37.5 41.75 C 36.582031 41.820312 35.828125 42.109375 35 42.5 C 35.003906 42.664062 35.003906 42.832031 35.011719 43.003906 C 35.011719 43.222656 35.011719 43.445312 35.015625 43.671875 C 35.015625 43.890625 35.023438 44.109375 35.023438 44.328125 C 35 45 35 45 34.75 46.25 C 32.933594 46.25 31.121094 46.25 29.25 46.25 C 29.0625 45.308594 28.972656 44.609375 28.984375 43.671875 C 28.988281 43.449219 28.988281 43.230469 28.988281 43.003906 C 28.996094 42.835938 28.996094 42.671875 29 42.5 C 28.730469 42.445312 28.730469 42.445312 28.453125 42.390625 C 27.75 42.25 27.75 42.25 27.164062 42.054688 C 26.464844 41.929688 26.464844 41.929688 25.828125 42.414062 C 25.503906 42.695312 25.503906 42.695312 25.171875 42.984375 C 24.839844 43.265625 24.839844 43.265625 24.503906 43.550781 C 24.335938 43.699219 24.171875 43.847656 24 44 C 22.585938 42.824219 21.289062 41.5625 20 40.25 C 20.425781 39.507812 20.84375 38.863281 21.4375 38.25 C 22.074219 37.570312 22.074219 37.570312 21.96875 36.859375 C 21.898438 36.65625 21.824219 36.457031 21.75 36.25 C 21.625 35.625 21.625 35.625 21.5 35 C 21.335938 35.003906 21.167969 35.003906 20.996094 35.011719 C 20.664062 35.011719 20.664062 35.011719 20.328125 35.015625 C 20.109375 35.015625 19.890625 35.023438 19.671875 35.023438 C 19 35 19 35 17.75 34.75 C 17.75 32.933594 17.75 31.121094 17.75 29.25 C 18.988281 29.167969 20.226562 29.085938 21.5 29 C 21.921875 27.765625 21.921875 27.765625 22 26.5 C 21.453125 25.613281 20.773438 24.9375 20 24.25 C 20.421875 23.1875 21.179688 22.46875 21.96875 21.671875 C 22.101562 21.53125 22.234375 21.390625 22.371094 21.246094 C 22.761719 20.847656 22.761719 20.847656 23.5 20.25 C 24.4375 20.359375 24.78125 20.753906 25.40625 21.4375 C 25.902344 21.933594 25.902344 21.933594 26.5 22.25 C 27.417969 22.179688 28.171875 21.890625 29 21.5 C 28.996094 21.335938 28.996094 21.167969 28.988281 20.996094 C 28.988281 20.777344 28.988281 20.554688 28.984375 20.328125 C 28.984375 20.109375 28.976562 19.890625 28.976562 19.671875 C 29 19 29 19 29.25 17.75 Z M 29.25 17.75 "/>
<path style=" stroke:none;fill-rule:nonzero;fill:rgb(56.470591%,55.686277%,76.47059%);fill-opacity:1;" d="M 5.1875 -0.0625 C 5.488281 -0.0703125 5.792969 -0.0742188 6.105469 -0.0820312 C 7.703125 0.0664062 8.730469 0.792969 9.75 2 C 10.8125 3.519531 10.910156 4.933594 10.75 6.75 C 10.628906 7.089844 10.628906 7.089844 10.503906 7.4375 C 10.496094 9.058594 11.890625 10.09375 12.957031 11.195312 C 14.863281 12.964844 16.558594 13.191406 19.09375 13.140625 C 19.730469 13.109375 20.363281 13.058594 21 13 C 21 13.988281 21 14.980469 21 16 C 14.851562 16.855469 14.851562 16.855469 12.890625 15.453125 C 11.324219 14.171875 10.03125 12.582031 8.808594 10.976562 C 8.273438 10.40625 8.273438 10.40625 7.472656 10.546875 C 7.234375 10.613281 6.996094 10.679688 6.75 10.75 C 4.734375 10.957031 3.164062 10.703125 1.5 9.5 C 0.0742188 8 -0.09375 6.566406 -0.0664062 4.574219 C 0.046875 3.167969 0.441406 2.253906 1.496094 1.304688 C 2.78125 0.3125 3.539062 -0.0429688 5.1875 -0.0625 Z M 3.25 3.75 C 2.722656 4.414062 2.75 4.746094 2.765625 5.609375 C 3.050781 6.699219 3.328125 7.101562 4.25 7.75 C 4.953125 7.914062 5.546875 7.90625 6.25 7.75 C 6.953125 7.300781 7.378906 6.996094 7.75 6.25 C 7.90625 4.78125 7.90625 4.78125 7.234375 3.515625 C 5.714844 2.449219 4.640625 2.550781 3.25 3.75 Z M 3.25 3.75 "/>
<path style=" stroke:none;fill-rule:nonzero;fill:rgb(95.686275%,45.490196%,69.411767%);fill-opacity:1;" d="M 43 48 C 49.148438 47.144531 49.148438 47.144531 51.109375 48.546875 C 52.675781 49.828125 53.96875 51.417969 55.191406 53.023438 C 55.726562 53.59375 55.726562 53.59375 56.527344 53.453125 C 56.765625 53.386719 57.003906 53.320312 57.25 53.25 C 59.265625 53.042969 60.835938 53.296875 62.5 54.5 C 63.925781 56 64.09375 57.433594 64.066406 59.425781 C 63.953125 60.828125 63.554688 61.742188 62.515625 62.695312 C 60.738281 64.078125 59.21875 64.148438 57 64 C 55.480469 63.484375 54.472656 62.46875 53.671875 61.09375 C 53.015625 59.695312 52.976562 58.011719 53.496094 56.5625 C 53.503906 54.941406 52.109375 53.90625 51.042969 52.804688 C 49.136719 51.035156 47.441406 50.808594 44.90625 50.859375 C 44.269531 50.890625 43.636719 50.941406 43 51 C 43 50.011719 43 49.019531 43 48 Z M 56.5 57.25 C 56.097656 58.058594 56.105469 58.878906 56.25 59.75 C 56.882812 60.648438 57.308594 60.941406 58.359375 61.265625 C 59.46875 61.246094 59.914062 60.96875 60.75 60.25 C 61.277344 59.585938 61.25 59.253906 61.234375 58.390625 C 60.949219 57.300781 60.671875 56.898438 59.75 56.25 C 58.375 55.933594 57.488281 56.230469 56.5 57.25 Z M 56.5 57.25 "/>
<path style=" stroke:none;fill-rule:nonzero;fill:rgb(81.960785%,87.058824%,87.843138%);fill-opacity:1;" d="M 61.359375 0.375 C 62.566406 1.085938 63.382812 2.261719 64 3.5 C 64.035156 4.0625 64.054688 4.625 64.0625 5.1875 C 64.070312 5.488281 64.074219 5.792969 64.082031 6.105469 C 63.933594 7.703125 63.207031 8.730469 62 9.75 C 60.480469 10.8125 59.066406 10.910156 57.25 10.75 C 57.011719 10.683594 56.773438 10.617188 56.527344 10.546875 C 55.726562 10.40625 55.726562 10.40625 55.1875 10.976562 C 54.925781 11.324219 54.925781 11.324219 54.65625 11.675781 C 51.058594 16.023438 51.058594 16.023438 48.78125 16.328125 C 46.84375 16.472656 44.917969 16.265625 43 16 C 43 15.011719 43 14.019531 43 13 C 43.382812 13.035156 43.761719 13.066406 44.15625 13.101562 C 46.476562 13.214844 48.511719 13.28125 50.410156 11.785156 C 51.554688 10.722656 52.722656 9.613281 53.5 8.25 C 53.542969 7.441406 53.542969 7.441406 53.25 6.75 C 53.042969 4.734375 53.296875 3.164062 54.5 1.5 C 56.292969 -0.207031 59.070312 -0.632812 61.359375 0.375 Z M 56.75 3.5 C 56.136719 4.421875 56.074219 5.179688 56.25 6.25 C 56.699219 6.953125 57.003906 7.378906 57.75 7.75 C 59.21875 7.90625 59.21875 7.90625 60.484375 7.234375 C 61.105469 6.34375 61.269531 5.835938 61.25 4.75 C 60.839844 3.941406 60.496094 3.421875 59.75 2.90625 C 58.542969 2.53125 57.785156 2.890625 56.75 3.5 Z M 56.75 3.5 "/>
<path style=" stroke:none;fill-rule:nonzero;fill:rgb(22.745098%,70.19608%,75.294119%);fill-opacity:1;" d="M 21 48 C 21 48.988281 21 49.980469 21 51 C 20.621094 50.964844 20.238281 50.933594 19.84375 50.898438 C 17.523438 50.785156 15.488281 50.71875 13.589844 52.214844 C 12.449219 53.277344 11.277344 54.386719 10.5 55.75 C 10.460938 56.554688 10.460938 56.554688 10.75 57.25 C 10.910156 59.066406 10.8125 60.480469 9.75 62 C 8.75 63.183594 7.824219 63.914062 6.253906 64.078125 C 4.566406 64.136719 3.09375 64.101562 1.75 63 C 0.214844 61.328125 -0.0742188 60.042969 -0.0507812 57.792969 C 0.0351562 56.496094 0.484375 55.816406 1.296875 54.84375 C 2.832031 53.546875 4.054688 53.136719 6.074219 53.191406 C 6.75 53.25 6.75 53.25 7.476562 53.453125 C 8.273438 53.59375 8.273438 53.59375 8.808594 53.023438 C 8.988281 52.792969 9.164062 52.558594 9.34375 52.324219 C 12.960938 47.953125 15.265625 47.203125 21 48 Z M 3.515625 56.765625 C 2.890625 57.65625 2.730469 58.164062 2.75 59.25 C 3.148438 60.035156 3.511719 60.5625 4.203125 61.109375 C 5.054688 61.328125 5.652344 61.222656 6.5 61 C 7.214844 60.496094 7.660156 60.140625 7.863281 59.265625 C 7.914062 58.304688 7.808594 57.84375 7.28125 57.015625 C 6.550781 56.308594 6.339844 56.261719 5.296875 56.15625 C 4.441406 56.171875 4.257812 56.246094 3.515625 56.765625 Z M 3.515625 56.765625 "/>
<path style=" stroke:none;fill-rule:nonzero;fill:rgb(28.235295%,46.27451%,53.333336%);fill-opacity:1;" d="M 34.625 26.671875 C 36.011719 27.503906 37.234375 28.6875 37.75 30.25 C 37.996094 32.1875 37.917969 33.890625 36.75 35.5 C 35.65625 36.835938 34.441406 37.609375 32.738281 37.863281 C 30.726562 37.96875 29.273438 37.597656 27.75 36.25 C 26.441406 34.644531 26.125 33.15625 26.152344 31.105469 C 26.339844 29.460938 27.074219 28.355469 28.292969 27.261719 C 30.175781 25.945312 32.511719 25.703125 34.625 26.671875 Z M 34.625 26.671875 "/>
<path style=" stroke:none;fill-rule:nonzero;fill:rgb(18.039216%,66.666669%,80.392158%);fill-opacity:1;" d="M 61.472656 27.164062 C 62.617188 27.890625 63.503906 28.988281 64 30.25 C 64.214844 32.09375 64.28125 33.820312 63.121094 35.347656 C 61.851562 36.726562 60.710938 37.40625 58.8125 37.59375 C 57.328125 37.546875 55.902344 37.054688 54.765625 36.085938 C 53.945312 35.183594 53.75 34.765625 53.5 33.5 C 52.179688 33.5 50.859375 33.5 49.5 33.5 C 49.5 32.511719 49.5 31.519531 49.5 30.5 C 50.820312 30.5 52.140625 30.5 53.5 30.5 C 53.582031 30.085938 53.664062 29.675781 53.75 29.25 C 54.53125 27.863281 55.644531 27.175781 57.121094 26.664062 C 58.710938 26.246094 59.996094 26.449219 61.472656 27.164062 Z M 61.472656 27.164062 "/>
<path style=" stroke:none;fill-rule:nonzero;fill:rgb(98.039216%,81.176472%,29.411766%);fill-opacity:1;" d="M 8.75 27.5 C 9.84375 28.429688 10.214844 29.070312 10.5 30.5 C 11.820312 30.5 13.140625 30.5 14.5 30.5 C 14.5 31.488281 14.5 32.480469 14.5 33.5 C 13.179688 33.5 11.859375 33.5 10.5 33.5 C 10.378906 34.117188 10.378906 34.117188 10.25 34.75 C 9.46875 36.136719 8.355469 36.824219 6.878906 37.335938 C 5.289062 37.753906 4.003906 37.550781 2.527344 36.835938 C 1.382812 36.109375 0.496094 35.011719 0 33.75 C -0.214844 31.90625 -0.28125 30.179688 0.878906 28.652344 C 3.140625 26.203125 5.863281 25.851562 8.75 27.5 Z M 8.75 27.5 "/>
<path style=" stroke:none;fill-rule:nonzero;fill:rgb(27.450982%,45.490196%,52.941179%);fill-opacity:1;" d="M 53.75 8 C 53.914062 8 54.078125 8 54.25 8 C 54.671875 8.496094 55.085938 8.996094 55.5 9.5 C 55.664062 9.582031 55.828125 9.664062 56 9.75 C 54.886719 12.207031 52.582031 14.628906 50.25 16 C 47.859375 16.609375 45.425781 16.320312 43 16 C 43 15.011719 43 14.019531 43 13 C 43.378906 13.039062 43.753906 13.074219 44.144531 13.113281 C 46.539062 13.238281 48.539062 13.300781 50.4375 11.675781 C 51.484375 10.65625 52.441406 9.570312 53.351562 8.433594 C 53.484375 8.289062 53.613281 8.148438 53.75 8 Z M 53.75 8 "/>
<path style=" stroke:none;fill-rule:nonzero;fill:rgb(27.450982%,45.490196%,52.941179%);fill-opacity:1;" d="M 43 48 C 49.054688 47.113281 49.054688 47.113281 51.15625 48.558594 C 52.996094 49.996094 54.65625 51.847656 56 53.75 C 56 53.914062 56 54.078125 56 54.25 C 55.5625 54.683594 55.5625 54.683594 55 55.15625 C 54.722656 55.390625 54.722656 55.390625 54.4375 55.636719 C 54.292969 55.753906 54.148438 55.875 54 56 C 53.113281 55.277344 52.3125 54.601562 51.621094 53.683594 C 50.40625 52.167969 49.453125 51.214844 47.453125 50.984375 C 45.964844 50.894531 44.488281 50.925781 43 51 C 43 50.011719 43 49.019531 43 48 Z M 43 48 "/>
<path style=" stroke:none;fill-rule:nonzero;fill:rgb(27.450982%,45.490196%,52.941179%);fill-opacity:1;" d="M 9.75 8 C 10.585938 8.351562 11.011719 8.753906 11.566406 9.46875 C 13.640625 11.988281 13.640625 11.988281 16.613281 13.085938 C 18.085938 13.175781 19.53125 13.121094 21 13 C 21 13.988281 21 14.980469 21 16 C 14.929688 16.886719 14.929688 16.886719 12.84375 15.433594 C 10.992188 13.960938 9.449219 12.105469 8 10.25 C 8.105469 10.128906 8.210938 10.011719 8.320312 9.886719 C 8.457031 9.726562 8.59375 9.570312 8.734375 9.40625 C 8.871094 9.25 9.007812 9.09375 9.148438 8.933594 C 9.515625 8.511719 9.515625 8.511719 9.75 8 Z M 9.75 8 "/>
<path style=" stroke:none;fill-rule:nonzero;fill:rgb(27.450982%,45.490196%,52.941179%);fill-opacity:1;" d="M 21 48 C 21 48.988281 21 49.980469 21 51 C 20.621094 50.960938 20.246094 50.925781 19.855469 50.886719 C 17.453125 50.761719 15.457031 50.707031 13.546875 52.324219 C 12.359375 53.472656 11.273438 54.703125 10.25 56 C 9.96875 55.765625 9.6875 55.53125 9.40625 55.296875 C 9.25 55.167969 9.09375 55.035156 8.933594 54.902344 C 8.5 54.5 8.5 54.5 8 53.75 C 11.925781 48.734375 14.492188 47.050781 21 48 Z M 21 48 "/>
<path style=" stroke:none;fill-rule:nonzero;fill:rgb(98.039216%,98.431373%,98.823529%);fill-opacity:1;" d="M 32.75 28.75 C 34.816406 29.925781 34.816406 29.925781 35.164062 31.011719 C 35.296875 32.050781 35.316406 32.609375 34.859375 33.578125 C 33.417969 35.167969 33.417969 35.167969 32.203125 35.316406 C 31.316406 35.289062 30.726562 35.1875 30.03125 34.609375 C 29.203125 33.660156 28.679688 32.972656 28.765625 31.6875 C 28.902344 30.558594 29.277344 30.023438 30.109375 29.273438 C 30.953125 28.683594 31.753906 28.652344 32.75 28.75 Z M 32.75 28.75 "/>
<path style=" stroke:none;fill-rule:nonzero;fill:rgb(99.607843%,99.215686%,97.647059%);fill-opacity:1;" d="M 6.5 29.5 C 7.21875 30.125 7.21875 30.125 7.75 30.75 C 7.832031 30.832031 7.914062 30.914062 8 31 C 8.148438 32.761719 8.148438 32.761719 7.5625 33.71875 C 6.675781 34.558594 6.675781 34.558594 6 34.75 C 4.675781 34.703125 3.949219 34.421875 3 33.5 C 2.59375 32.691406 2.601562 31.871094 2.75 31 C 3.65625 29.367188 4.738281 29.074219 6.5 29.5 Z M 6.5 29.5 "/>
<path style=" stroke:none;fill-rule:nonzero;fill:rgb(97.254902%,98.823529%,99.215686%);fill-opacity:1;" d="M 59.75 29.5 C 60.425781 29.953125 60.886719 30.265625 61.25 31 C 61.394531 32.761719 61.394531 32.761719 60.8125 33.71875 C 59.953125 34.53125 59.59375 34.753906 58.390625 34.734375 C 57.34375 34.457031 56.941406 34.066406 56.25 33.25 C 56.167969 33.167969 56.085938 33.085938 56 33 C 55.851562 31.238281 55.851562 31.238281 56.4375 30.28125 C 57.5625 29.21875 58.214844 29.121094 59.75 29.5 Z M 59.75 29.5 "/>
<path style=" stroke:none;fill-rule:nonzero;fill:rgb(27.058825%,45.490196%,52.941179%);fill-opacity:1;" d="M 49.5 30.5 C 50.820312 30.5 52.140625 30.5 53.5 30.5 C 53.5 31.488281 53.5 32.480469 53.5 33.5 C 52.179688 33.5 50.859375 33.5 49.5 33.5 C 49.5 32.511719 49.5 31.519531 49.5 30.5 Z M 49.5 30.5 "/>
<path style=" stroke:none;fill-rule:nonzero;fill:rgb(27.450982%,45.490196%,52.549022%);fill-opacity:1;" d="M 10.5 30.5 C 11.820312 30.5 13.140625 30.5 14.5 30.5 C 14.5 31.488281 14.5 32.480469 14.5 33.5 C 13.179688 33.5 11.859375 33.5 10.5 33.5 C 10.5 32.511719 10.5 31.519531 10.5 30.5 Z M 10.5 30.5 "/>
</g>
</svg>
