<?xml version="1.0" encoding="UTF-8"?>
<svg xmlns="http://www.w3.org/2000/svg" xmlns:xlink="http://www.w3.org/1999/xlink" width="64" height="64" viewBox="0 0 64 64" version="1.1">
<g id="surface1">
<path style=" stroke:none;fill-rule:nonzero;fill:rgb(99.215686%,65.490198%,13.725491%);fill-opacity:1;" d="M 22.75 4.5 C 23.359375 4.464844 23.96875 4.441406 24.578125 4.421875 C 24.835938 4.40625 24.835938 4.40625 25.101562 4.390625 C 25.609375 4.378906 25.609375 4.378906 26.5 4.5 C 26.960938 5.039062 26.960938 5.039062 27.25 5.75 C 27.347656 5.984375 27.441406 6.214844 27.542969 6.453125 C 27.625 6.691406 27.710938 6.925781 27.796875 7.171875 C 27.882812 7.410156 27.96875 7.648438 28.058594 7.890625 C 28.25 8.5 28.25 8.5 28.25 9 C 28.496094 9.050781 28.746094 9.101562 29 9.15625 C 29.835938 9.378906 30.277344 9.726562 30.90625 10.3125 C 31.59375 10.871094 31.886719 11.003906 32.789062 10.988281 C 33.613281 10.847656 34.433594 10.6875 35.25 10.5 C 36.21875 10.28125 36.21875 10.28125 37 10.5 C 37.753906 11.425781 38.355469 12.371094 38.75 13.5 C 38.46875 14.871094 37.363281 15.808594 36.449219 16.820312 C 35.855469 17.546875 35.855469 17.546875 36.25 18.75 C 37.488281 18.75 38.726562 18.75 40 18.75 C 40.148438 17.960938 40.148438 17.960938 40.296875 17.15625 C 40.871094 14.515625 41.8125 12.421875 44 10.75 C 46.742188 9.132812 49.371094 8.484375 52.539062 9.171875 C 55.066406 10.023438 57.269531 11.722656 58.574219 14.085938 C 59.84375 16.839844 59.820312 19.648438 58.863281 22.511719 C 58.535156 23.183594 58.21875 23.578125 57.738281 24.136719 C 56.824219 25.34375 56.796875 26.339844 56.828125 27.816406 C 56.828125 28.066406 56.828125 28.316406 56.828125 28.574219 C 56.828125 29.390625 56.84375 30.207031 56.851562 31.023438 C 56.859375 31.59375 56.859375 32.160156 56.859375 32.730469 C 56.863281 34.222656 56.878906 35.714844 56.898438 37.207031 C 56.914062 38.734375 56.921875 40.257812 56.925781 41.78125 C 56.941406 44.773438 56.96875 47.761719 57 50.75 C 57.273438 50.738281 57.546875 50.730469 57.828125 50.71875 C 58.75 50.75 58.75 50.75 59.5 51.25 C 59.570312 51.867188 59.59375 52.421875 59.582031 53.039062 C 59.582031 53.21875 59.578125 53.390625 59.578125 53.574219 C 59.578125 53.949219 59.574219 54.320312 59.570312 54.691406 C 59.5625 55.265625 59.558594 55.835938 59.558594 56.40625 C 59.558594 56.769531 59.550781 57.132812 59.550781 57.492188 C 59.550781 57.664062 59.546875 57.835938 59.546875 58.015625 C 59.53125 59.21875 59.53125 59.21875 59.25 59.5 C 58.550781 59.523438 57.855469 59.53125 57.152344 59.53125 C 56.816406 59.53125 56.816406 59.53125 56.476562 59.53125 C 55.726562 59.535156 54.976562 59.53125 54.222656 59.53125 C 53.683594 59.53125 53.148438 59.53125 52.613281 59.53125 C 51.148438 59.535156 49.691406 59.535156 48.226562 59.53125 C 46.703125 59.53125 45.175781 59.53125 43.648438 59.535156 C 41.085938 59.535156 38.523438 59.535156 35.960938 59.53125 C 32.992188 59.53125 30.023438 59.53125 27.054688 59.53125 C 24.511719 59.535156 21.96875 59.535156 19.425781 59.53125 C 17.90625 59.53125 16.382812 59.53125 14.863281 59.535156 C 13.433594 59.535156 12.003906 59.535156 10.574219 59.53125 C 10.046875 59.53125 9.519531 59.53125 8.992188 59.53125 C 8.277344 59.535156 7.5625 59.53125 6.847656 59.53125 C 6.636719 59.53125 6.425781 59.53125 6.207031 59.53125 C 4.777344 59.527344 4.777344 59.527344 4.5 59.25 C 4.46875 58.664062 4.453125 58.082031 4.449219 57.492188 C 4.449219 57.230469 4.449219 57.230469 4.445312 56.960938 C 4.441406 56.585938 4.441406 56.210938 4.441406 55.839844 C 4.4375 55.269531 4.429688 54.699219 4.421875 54.125 C 4.421875 53.761719 4.421875 53.402344 4.417969 53.039062 C 4.414062 52.867188 4.414062 52.699219 4.40625 52.519531 C 4.410156 52.039062 4.410156 52.039062 4.5 51.25 C 5.410156 50.640625 5.925781 50.710938 7 50.75 C 7 50.585938 7 50.425781 7.003906 50.261719 C 7.015625 46.324219 7.035156 42.390625 7.058594 38.453125 C 7.070312 36.550781 7.078125 34.648438 7.085938 32.746094 C 7.09375 31.085938 7.101562 29.429688 7.113281 27.773438 C 7.117188 26.890625 7.121094 26.015625 7.125 25.136719 C 7.125 24.15625 7.136719 23.175781 7.140625 22.199219 C 7.140625 21.90625 7.140625 21.613281 7.140625 21.308594 C 7.144531 21.046875 7.148438 20.78125 7.148438 20.503906 C 7.152344 20.273438 7.152344 20.042969 7.15625 19.800781 C 7.203125 19.53125 7.203125 19.53125 7.25 19.25 C 8.0625 18.707031 8.28125 18.691406 9.222656 18.699219 C 9.453125 18.703125 9.691406 18.703125 9.933594 18.703125 C 10.175781 18.710938 10.421875 18.714844 10.671875 18.71875 C 10.921875 18.71875 11.164062 18.722656 11.421875 18.726562 C 12.03125 18.734375 12.640625 18.738281 13.25 18.75 C 13.375 17.722656 13.316406 17.34375 12.695312 16.488281 C 12.34375 16.105469 11.980469 15.730469 11.617188 15.351562 C 10.75 14.402344 10.75 14.402344 10.75 13.613281 C 11.03125 12.921875 11.367188 12.308594 11.765625 11.671875 C 11.902344 11.449219 12.039062 11.230469 12.179688 11.003906 C 12.285156 10.835938 12.390625 10.671875 12.5 10.5 C 12.960938 10.535156 13.425781 10.574219 13.890625 10.609375 C 14.167969 10.628906 14.441406 10.648438 14.726562 10.671875 C 15.5 10.75 15.5 10.75 16.390625 11 C 17.636719 11 18.347656 10.378906 19.335938 9.664062 C 20 9.25 20.480469 9.097656 21.25 9 C 21.273438 8.863281 21.300781 8.726562 21.324219 8.585938 C 21.613281 7.121094 22.097656 5.84375 22.75 4.5 Z M 22.75 4.5 "/>
<path style=" stroke:none;fill-rule:nonzero;fill:rgb(92.156863%,91.764706%,98.431373%);fill-opacity:1;" d="M 8.75 20.25 C 10.398438 20.25 12.050781 20.25 13.75 20.25 C 13.75 22.25 13.75 22.25 13.265625 22.949219 C 13.058594 23.144531 12.851562 23.34375 12.640625 23.546875 C 11.550781 24.582031 11.550781 24.582031 11.25 26 C 11.484375 26.628906 11.484375 26.628906 11.859375 27.203125 C 11.976562 27.398438 12.09375 27.597656 12.21875 27.800781 C 12.308594 27.949219 12.40625 28.097656 12.5 28.25 C 12.636719 28.234375 12.773438 28.21875 12.914062 28.199219 C 17.671875 27.664062 17.671875 27.664062 19.703125 29.285156 C 19.882812 29.4375 20.0625 29.59375 20.25 29.75 C 20.578125 29.917969 20.578125 29.917969 20.910156 30.089844 C 21.6875 30.628906 21.800781 31.085938 22.0625 31.984375 C 22.140625 32.246094 22.21875 32.503906 22.300781 32.773438 C 22.457031 33.347656 22.609375 33.921875 22.75 34.5 C 23.164062 34.5 23.574219 34.5 24 34.5 C 24 38.210938 24 41.925781 24 45.75 C 21.773438 45.75 19.546875 45.75 17.25 45.75 C 17.085938 45.171875 16.921875 44.59375 16.75 44 C 16.273438 43.636719 16.273438 43.636719 15.75 43.5 C 15.585938 43.417969 15.421875 43.335938 15.25 43.25 C 14.035156 43.121094 13.0625 43.058594 12 43.703125 C 11.148438 44.636719 10.902344 45.210938 10.9375 46.484375 C 11.058594 47.496094 11.5 48.210938 12.15625 48.96875 C 13.097656 49.414062 13.980469 49.410156 15 49.25 C 15.898438 48.800781 16.386719 48.546875 16.753906 47.597656 C 17.25 47 17.25 47 17.761719 46.890625 C 18.457031 46.855469 19.140625 46.859375 19.839844 46.878906 C 20.09375 46.878906 20.347656 46.882812 20.609375 46.882812 C 21.421875 46.890625 22.234375 46.90625 23.046875 46.921875 C 23.597656 46.925781 24.148438 46.933594 24.699219 46.941406 C 26.050781 46.953125 27.398438 46.972656 28.75 47 C 28.996094 47.445312 29.242188 47.886719 29.488281 48.332031 C 29.851562 48.910156 30.085938 49.085938 30.75 49.25 C 32.019531 49.332031 33.085938 49.328125 34.25 48.75 C 34.597656 48.140625 34.597656 48.140625 34.75 47.5 C 34.832031 47.335938 34.914062 47.171875 35 47 C 36.621094 46.960938 38.238281 46.933594 39.859375 46.917969 C 40.410156 46.910156 40.960938 46.898438 41.511719 46.886719 C 42.300781 46.867188 43.09375 46.859375 43.886719 46.851562 C 44.132812 46.84375 44.378906 46.835938 44.632812 46.828125 C 45.289062 46.828125 45.863281 46.84375 46.5 47 C 47.132812 47.730469 47.132812 47.730469 47.5 48.5 C 48.230469 49.195312 48.730469 49.359375 49.734375 49.359375 C 50.605469 49.328125 50.972656 49.265625 51.75 48.828125 C 52.648438 47.789062 52.863281 46.832031 52.828125 45.484375 C 52.699219 44.695312 52.316406 44.289062 51.75 43.75 C 50.691406 43.121094 49.703125 43.046875 48.5 43.25 C 47.363281 43.832031 46.976562 44.558594 46.5 45.75 C 42.703125 45.75 38.910156 45.75 35 45.75 C 34.753906 45.171875 34.503906 44.59375 34.25 44 C 33.476562 43.273438 32.777344 43.191406 31.75 43.140625 C 30.894531 43.171875 30.519531 43.238281 29.75 43.65625 C 29.121094 44.328125 29.121094 44.328125 28.75 45.75 C 27.675781 45.75 26.605469 45.75 25.5 45.75 C 25.5 42.039062 25.5 38.324219 25.5 34.5 C 25.914062 34.335938 26.324219 34.171875 26.75 34 C 27.035156 33.453125 27.035156 33.453125 27.15625 32.8125 C 27.476562 31.460938 27.746094 30.324219 28.960938 29.542969 C 29.226562 29.425781 29.492188 29.308594 29.765625 29.1875 C 30.84375 28.71875 30.84375 28.71875 31.75 28 C 32.449219 27.996094 32.449219 27.996094 33.296875 28.078125 C 33.585938 28.105469 33.878906 28.132812 34.175781 28.160156 C 35.039062 28.253906 35.894531 28.359375 36.75 28.5 C 37.011719 28.109375 37.261719 27.710938 37.515625 27.3125 C 37.65625 27.09375 37.800781 26.871094 37.949219 26.644531 C 38.289062 26.042969 38.289062 26.042969 38.242188 25.5 C 37.769531 24.523438 36.960938 23.78125 36.234375 22.988281 C 35.75 22.25 35.75 22.25 35.75 20.5 C 37.398438 20.5 39.050781 20.5 40.75 20.5 C 40.921875 20.949219 41.089844 21.398438 41.265625 21.859375 C 42.34375 24.421875 43.710938 26.050781 46.25 27.25 C 48.675781 28.222656 51.371094 27.996094 53.75 27 C 54.246094 26.835938 54.738281 26.671875 55.25 26.5 C 55.25 34.585938 55.25 42.671875 55.25 51 C 50.382812 51 45.515625 51 40.5 51 C 40.5 52.484375 40.5 53.96875 40.5 55.5 C 40.042969 55.957031 39.324219 55.78125 38.710938 55.78125 C 38.382812 55.78125 38.050781 55.785156 37.710938 55.785156 C 37.351562 55.785156 36.988281 55.785156 36.625 55.78125 C 36.253906 55.78125 35.886719 55.78125 35.515625 55.785156 C 34.746094 55.785156 33.96875 55.785156 33.195312 55.78125 C 32.199219 55.78125 31.203125 55.78125 30.210938 55.78125 C 29.449219 55.785156 28.6875 55.785156 27.925781 55.78125 C 27.558594 55.78125 27.191406 55.78125 26.824219 55.785156 C 26.3125 55.785156 25.800781 55.78125 25.289062 55.78125 C 24.851562 55.78125 24.851562 55.78125 24.40625 55.78125 C 23.75 55.75 23.75 55.75 23.5 55.5 C 23.5 54.015625 23.5 52.53125 23.5 51 C 18.632812 51 13.765625 51 8.75 51 C 8.75 40.851562 8.75 30.703125 8.75 20.25 Z M 8.75 20.25 "/>
<path style=" stroke:none;fill-rule:nonzero;fill:rgb(14.901961%,45.09804%,54.509807%);fill-opacity:1;" d="M 9.203125 18.691406 C 9.4375 18.691406 9.667969 18.691406 9.90625 18.695312 C 10.148438 18.699219 10.390625 18.699219 10.640625 18.703125 C 10.882812 18.703125 11.125 18.703125 11.375 18.703125 C 13.179688 18.714844 13.179688 18.714844 13.75 19 C 13.75 19.414062 13.75 19.824219 13.75 20.25 C 12.097656 20.25 10.449219 20.25 8.75 20.25 C 8.75 30.398438 8.75 40.542969 8.75 51 C 13.617188 51 18.484375 51 23.5 51 C 23.625 53.226562 23.625 53.226562 23.75 55.5 C 29.195312 55.5 34.640625 55.5 40.25 55.5 C 40.332031 54.015625 40.414062 52.53125 40.5 51 C 45.367188 51 50.234375 51 55.25 51 C 55.238281 49.222656 55.226562 47.445312 55.214844 45.613281 C 55.210938 44.488281 55.203125 43.363281 55.203125 42.238281 C 55.195312 40.453125 55.1875 38.667969 55.175781 36.878906 C 55.164062 35.441406 55.15625 34.003906 55.152344 32.5625 C 55.152344 32.011719 55.148438 31.460938 55.144531 30.914062 C 55.136719 30.144531 55.136719 29.375 55.136719 28.605469 C 55.132812 28.378906 55.128906 28.148438 55.125 27.914062 C 55.136719 26.375 55.136719 26.375 55.726562 25.726562 C 56.25 25.5 56.25 25.5 56.75 25.5 C 56.832031 33.832031 56.914062 42.164062 57 50.75 C 57.578125 50.75 58.152344 50.75 58.75 50.75 C 58.996094 50.914062 59.242188 51.078125 59.5 51.25 C 59.570312 51.867188 59.59375 52.421875 59.582031 53.039062 C 59.582031 53.21875 59.582031 53.390625 59.582031 53.574219 C 59.578125 53.949219 59.578125 54.320312 59.570312 54.691406 C 59.5625 55.265625 59.558594 55.835938 59.558594 56.410156 C 59.554688 56.769531 59.554688 57.132812 59.550781 57.492188 C 59.550781 57.664062 59.550781 57.835938 59.546875 58.015625 C 59.527344 59.21875 59.527344 59.21875 59.25 59.5 C 58.550781 59.523438 57.855469 59.53125 57.152344 59.53125 C 56.820312 59.53125 56.820312 59.53125 56.480469 59.53125 C 55.726562 59.535156 54.972656 59.53125 54.222656 59.53125 C 53.6875 59.53125 53.148438 59.53125 52.613281 59.535156 C 51.152344 59.535156 49.6875 59.535156 48.226562 59.53125 C 46.703125 59.53125 45.175781 59.53125 43.648438 59.535156 C 41.085938 59.535156 38.523438 59.535156 35.960938 59.53125 C 32.992188 59.53125 30.023438 59.53125 27.054688 59.53125 C 24.511719 59.535156 21.96875 59.535156 19.425781 59.535156 C 17.902344 59.53125 16.382812 59.53125 14.863281 59.535156 C 13.429688 59.535156 12 59.535156 10.570312 59.53125 C 10.046875 59.53125 9.519531 59.53125 8.992188 59.53125 C 8.277344 59.535156 7.5625 59.53125 6.847656 59.53125 C 6.636719 59.53125 6.425781 59.53125 6.207031 59.53125 C 4.777344 59.527344 4.777344 59.527344 4.5 59.25 C 4.46875 58.664062 4.453125 58.082031 4.449219 57.492188 C 4.445312 57.230469 4.445312 57.230469 4.445312 56.960938 C 4.441406 56.585938 4.441406 56.214844 4.4375 55.839844 C 4.4375 55.269531 4.429688 54.699219 4.421875 54.125 C 4.417969 53.765625 4.417969 53.402344 4.417969 53.039062 C 4.414062 52.867188 4.410156 52.699219 4.410156 52.519531 C 4.410156 52.039062 4.410156 52.039062 4.5 51.25 C 5.410156 50.640625 5.929688 50.710938 7 50.75 C 7 50.585938 7 50.425781 7 50.261719 C 7.015625 46.324219 7.035156 42.390625 7.058594 38.453125 C 7.070312 36.550781 7.078125 34.648438 7.085938 32.746094 C 7.089844 31.085938 7.101562 29.429688 7.113281 27.773438 C 7.117188 26.890625 7.121094 26.015625 7.125 25.136719 C 7.125 24.15625 7.132812 23.175781 7.140625 22.199219 C 7.140625 21.90625 7.140625 21.613281 7.140625 21.3125 C 7.144531 21.042969 7.148438 20.78125 7.148438 20.503906 C 7.152344 20.273438 7.152344 20.042969 7.152344 19.800781 C 7.1875 19.621094 7.214844 19.4375 7.25 19.25 C 8.054688 18.710938 8.273438 18.6875 9.203125 18.691406 Z M 9.203125 18.691406 "/>
<path style=" stroke:none;fill-rule:nonzero;fill:rgb(99.607843%,25.490198%,11.372549%);fill-opacity:1;" d="M 55.5625 10.6875 C 57.628906 12.378906 59.070312 14.324219 59.5 17 C 59.738281 19.933594 59.269531 22.671875 57.328125 24.972656 C 54.867188 27.207031 51.96875 28.128906 48.683594 28.078125 C 46.320312 27.878906 44.300781 26.71875 42.761719 24.933594 C 41.703125 23.519531 41.164062 22.210938 40.75 20.5 C 39.101562 20.5 37.449219 20.5 35.75 20.5 C 35.75 20.003906 35.75 19.511719 35.75 19 C 36.515625 18.617188 37.316406 18.726562 38.15625 18.734375 C 38.421875 18.734375 38.421875 18.734375 38.691406 18.738281 C 39.128906 18.738281 39.566406 18.746094 40 18.75 C 40.039062 18.527344 40.078125 18.300781 40.121094 18.074219 C 40.695312 15.089844 41.515625 12.648438 44 10.75 C 47.71875 8.558594 51.871094 8.105469 55.5625 10.6875 Z M 55.5625 10.6875 "/>
<path style=" stroke:none;fill-rule:nonzero;fill:rgb(97.647059%,83.92157%,61.176473%);fill-opacity:1;" d="M 31.707031 31.214844 C 31.917969 31.214844 32.125 31.214844 32.339844 31.21875 C 32.667969 31.214844 32.667969 31.214844 33.003906 31.214844 C 33.730469 31.214844 34.457031 31.214844 35.1875 31.214844 C 35.691406 31.214844 36.195312 31.214844 36.699219 31.214844 C 37.753906 31.214844 38.8125 31.214844 39.867188 31.21875 C 41.226562 31.21875 42.582031 31.21875 43.941406 31.214844 C 44.980469 31.214844 46.019531 31.214844 47.0625 31.214844 C 47.5625 31.214844 48.0625 31.214844 48.5625 31.214844 C 49.265625 31.214844 49.960938 31.214844 50.660156 31.21875 C 50.972656 31.214844 50.972656 31.214844 51.292969 31.214844 C 52.722656 31.222656 52.722656 31.222656 53 31.5 C 53.027344 32.125 53.035156 32.75 53.035156 33.375 C 53.035156 33.5625 53.035156 33.75 53.035156 33.945312 C 53.035156 34.339844 53.035156 34.738281 53.035156 35.136719 C 53.03125 35.75 53.035156 36.359375 53.035156 36.96875 C 53.035156 37.355469 53.035156 37.738281 53.035156 38.125 C 53.035156 38.308594 53.035156 38.492188 53.035156 38.679688 C 53.027344 39.972656 53.027344 39.972656 52.75 40.25 C 52.0625 40.277344 51.375 40.285156 50.6875 40.285156 C 50.472656 40.285156 50.253906 40.289062 50.03125 40.289062 C 49.3125 40.292969 48.59375 40.292969 47.875 40.292969 C 47.378906 40.292969 46.882812 40.292969 46.382812 40.292969 C 45.339844 40.296875 44.296875 40.296875 43.25 40.296875 C 41.910156 40.296875 40.570312 40.296875 39.230469 40.304688 C 38.203125 40.304688 37.175781 40.304688 36.148438 40.304688 C 35.652344 40.308594 35.160156 40.308594 34.667969 40.3125 C 33.976562 40.3125 33.285156 40.3125 32.597656 40.3125 C 32.390625 40.3125 32.183594 40.3125 31.972656 40.316406 C 30.554688 40.304688 30.554688 40.304688 30 39.75 C 29.953125 39.125 29.9375 38.527344 29.941406 37.90625 C 29.945312 37.722656 29.945312 37.542969 29.945312 37.355469 C 29.945312 36.972656 29.945312 36.585938 29.949219 36.199219 C 29.953125 35.609375 29.953125 35.019531 29.953125 34.429688 C 29.953125 34.054688 29.957031 33.683594 29.957031 33.3125 C 29.957031 33.132812 29.957031 32.957031 29.957031 32.773438 C 29.972656 31.1875 30.140625 31.222656 31.707031 31.214844 Z M 31.707031 31.214844 "/>
<path style=" stroke:none;fill-rule:nonzero;fill:rgb(99.215686%,25.490198%,11.764706%);fill-opacity:1;" d="M 24 34.5 C 24.414062 34.5 24.824219 34.5 25.25 34.5 C 25.25 38.210938 25.25 41.925781 25.25 45.75 C 26.40625 45.75 27.558594 45.75 28.75 45.75 C 28.832031 45.253906 28.914062 44.761719 29 44.25 C 29.675781 43.453125 30.074219 43.085938 31.09375 42.878906 C 32.441406 42.804688 33.339844 43.046875 34.429688 43.828125 C 34.75 44.25 34.75 44.25 35 45.75 C 38.796875 45.75 42.589844 45.75 46.5 45.75 C 46.582031 45.335938 46.664062 44.925781 46.75 44.5 C 47.34375 43.683594 48.070312 43.101562 49.0625 42.871094 C 50.398438 42.808594 51.21875 43.113281 52.25 44 C 52.960938 44.664062 52.996094 44.976562 53.09375 45.96875 C 53.039062 47.265625 52.582031 48.117188 51.734375 49.09375 C 50.65625 49.691406 49.703125 49.753906 48.5 49.5 C 47.503906 48.929688 46.863281 48.34375 46.5 47.25 C 42.703125 47.167969 38.910156 47.085938 35 47 C 34.835938 47.414062 34.671875 47.824219 34.5 48.25 C 33.914062 48.929688 33.609375 49.214844 32.75 49.5 C 31.421875 49.585938 30.566406 49.632812 29.5 48.75 C 28.75 47.691406 28.75 47.691406 28.75 47 C 27.125 47.003906 25.503906 47.015625 23.878906 47.039062 C 23.324219 47.046875 22.773438 47.046875 22.21875 47.050781 C 21.425781 47.050781 20.632812 47.0625 19.839844 47.074219 C 19.589844 47.074219 19.34375 47.074219 19.085938 47.070312 C 18.449219 47.085938 17.871094 47.105469 17.25 47.25 C 16.726562 47.820312 16.726562 47.820312 16.5 48.5 C 15.46875 49.40625 14.636719 49.675781 13.296875 49.613281 C 12.328125 49.414062 11.914062 48.976562 11.25 48.25 C 10.660156 47.261719 10.496094 46.128906 10.75 45 C 11.269531 44.171875 11.863281 43.441406 12.75 43 C 14.015625 42.859375 14.980469 42.859375 16.125 43.453125 C 16.75 44 16.75 44 17.25 44.75 C 17.25 45.078125 17.25 45.410156 17.25 45.75 C 19.476562 45.75 21.703125 45.75 24 45.75 C 24 42.039062 24 38.324219 24 34.5 Z M 24 34.5 "/>
<path style=" stroke:none;fill-rule:nonzero;fill:rgb(100%,99.215686%,98.431373%);fill-opacity:1;" d="M 24.34375 13.679688 C 26.058594 13.574219 27.34375 14.03125 28.75 15 C 29.898438 16.042969 30.632812 17.128906 30.84375 18.691406 C 30.890625 20.78125 30.503906 22.375 29.089844 23.960938 C 27.625 25.304688 26.105469 25.890625 24.121094 25.820312 C 22.414062 25.625 20.996094 24.925781 19.90625 23.574219 C 18.5625 21.757812 18.550781 19.949219 18.75 17.75 C 19.03125 16.929688 19.410156 16.375 20 15.75 C 20.199219 15.535156 20.199219 15.535156 20.402344 15.316406 C 21.609375 14.15625 22.722656 13.875 24.34375 13.679688 Z M 24.34375 13.679688 "/>
<path style=" stroke:none;fill-rule:nonzero;fill:rgb(99.607843%,99.607843%,99.607843%);fill-opacity:1;" d="M 23.75 51 C 29.195312 51 34.640625 51 40.25 51 C 40.25 52.566406 40.25 54.136719 40.25 55.75 C 34.804688 55.75 29.359375 55.75 23.75 55.75 C 23.75 54.183594 23.75 52.613281 23.75 51 Z M 23.75 51 "/>
<path style=" stroke:none;fill-rule:nonzero;fill:rgb(100%,59.215689%,14.509805%);fill-opacity:1;" d="M 29.21875 13.820312 C 30.621094 14.90625 31.441406 16.324219 32 18 C 32.226562 20.65625 31.871094 22.492188 30.1875 24.5625 C 28.898438 25.953125 27.492188 26.886719 25.582031 27.058594 C 23.171875 27.121094 21.183594 26.617188 19.382812 24.945312 C 17.726562 23.027344 17.386719 21.121094 17.417969 18.652344 C 17.59375 16.71875 18.453125 15.453125 19.84375 14.140625 C 22.730469 11.761719 26.171875 11.734375 29.21875 13.820312 Z M 19.75 16 C 18.558594 17.429688 18.601562 18.789062 18.652344 20.617188 C 18.78125 21.789062 19.027344 22.328125 19.75 23.25 C 19.898438 23.472656 20.050781 23.691406 20.203125 23.921875 C 21.425781 25.210938 22.898438 25.769531 24.65625 25.84375 C 26.335938 25.820312 27.707031 25.203125 28.960938 24.085938 C 30.429688 22.488281 30.898438 20.882812 30.835938 18.734375 C 30.65625 17.210938 30.039062 16.199219 28.921875 15.171875 C 25.914062 12.832031 22.273438 13.292969 19.75 16 Z M 19.75 16 "/>
<path style=" stroke:none;fill-rule:nonzero;fill:rgb(12.54902%,40.392157%,48.627451%);fill-opacity:1;" d="M 9.203125 18.691406 C 9.4375 18.691406 9.667969 18.691406 9.90625 18.695312 C 10.148438 18.699219 10.390625 18.699219 10.640625 18.703125 C 10.882812 18.703125 11.125 18.703125 11.375 18.703125 C 13.179688 18.714844 13.179688 18.714844 13.75 19 C 13.75 19.414062 13.75 19.824219 13.75 20.25 C 12.097656 20.332031 10.449219 20.414062 8.75 20.5 C 8.667969 30.566406 8.585938 40.628906 8.5 51 C 8.085938 51 7.675781 51 7.25 51 C 7.230469 46.871094 7.21875 42.738281 7.210938 38.605469 C 7.207031 36.691406 7.203125 34.769531 7.195312 32.851562 C 7.1875 31.183594 7.179688 29.511719 7.179688 27.839844 C 7.179688 26.953125 7.175781 26.066406 7.171875 25.183594 C 7.164062 24.195312 7.164062 23.207031 7.164062 22.222656 C 7.160156 21.925781 7.160156 21.632812 7.15625 21.328125 C 7.15625 21.058594 7.160156 20.792969 7.160156 20.515625 C 7.160156 20.28125 7.160156 20.046875 7.15625 19.808594 C 7.1875 19.621094 7.21875 19.441406 7.25 19.25 C 8.054688 18.710938 8.273438 18.6875 9.203125 18.691406 Z M 9.203125 18.691406 "/>
<path style=" stroke:none;fill-rule:nonzero;fill:rgb(99.607843%,25.882354%,12.156863%);fill-opacity:1;" d="M 15.25 43 C 16.214844 43.5 16.648438 43.851562 17.25 44.75 C 17.394531 45.871094 17.378906 46.914062 16.96875 47.96875 C 16.238281 48.796875 15.566406 49.390625 14.453125 49.605469 C 13.433594 49.667969 12.714844 49.589844 11.890625 48.953125 C 10.910156 47.878906 10.609375 46.996094 10.636719 45.515625 C 10.851562 44.550781 11.527344 43.894531 12.25 43.25 C 13.175781 42.789062 14.238281 42.886719 15.25 43 Z M 15.25 43 "/>
<path style=" stroke:none;fill-rule:nonzero;fill:rgb(99.607843%,25.882354%,12.156863%);fill-opacity:1;" d="M 50.75 43 C 51.707031 43.496094 52.511719 44.023438 53 45 C 53.136719 46.402344 53.046875 47.292969 52.25 48.5 C 51.683594 49.148438 51.273438 49.445312 50.425781 49.613281 C 49.210938 49.695312 48.4375 49.585938 47.484375 48.796875 C 46.671875 48.023438 46.453125 47.292969 46.390625 46.1875 C 46.398438 44.992188 46.816406 44.421875 47.621094 43.578125 C 48.539062 42.78125 49.59375 42.859375 50.75 43 Z M 50.75 43 "/>
<path style=" stroke:none;fill-rule:nonzero;fill:rgb(12.54902%,40.392157%,48.627451%);fill-opacity:1;" d="M 56.75 25.5 C 56.75 33.914062 56.75 42.328125 56.75 51 C 56.335938 51 55.925781 51 55.5 51 C 55.445312 47.785156 55.394531 44.574219 55.351562 41.359375 C 55.328125 39.863281 55.308594 38.371094 55.28125 36.878906 C 55.253906 35.441406 55.234375 34.003906 55.21875 32.5625 C 55.210938 32.011719 55.203125 31.460938 55.191406 30.914062 C 55.175781 30.144531 55.167969 29.375 55.160156 28.609375 C 55.152344 28.378906 55.148438 28.148438 55.140625 27.914062 C 55.136719 26.375 55.136719 26.375 55.726562 25.726562 C 56.25 25.5 56.25 25.5 56.75 25.5 Z M 56.75 25.5 "/>
<path style=" stroke:none;fill-rule:nonzero;fill:rgb(23.529412%,22.745098%,22.745098%);fill-opacity:1;" d="M 24 34.5 C 24.414062 34.5 24.824219 34.5 25.25 34.5 C 25.25 38.210938 25.25 41.925781 25.25 45.75 C 26.324219 45.75 27.394531 45.75 28.5 45.75 C 28.5 46.164062 28.5 46.574219 28.5 47 C 24.789062 47 21.074219 47 17.25 47 C 17.25 46.585938 17.25 46.175781 17.25 45.75 C 19.476562 45.75 21.703125 45.75 24 45.75 C 24 42.039062 24 38.324219 24 34.5 Z M 24 34.5 "/>
<path style=" stroke:none;fill-rule:nonzero;fill:rgb(16.470589%,43.137255%,50.980395%);fill-opacity:1;" d="M 22.5 51.25 C 22.828125 51.25 23.160156 51.25 23.5 51.25 C 23.582031 52.652344 23.664062 54.054688 23.75 55.5 C 29.195312 55.5 34.640625 55.5 40.25 55.5 C 40.332031 54.097656 40.414062 52.695312 40.5 51.25 C 40.828125 51.25 41.160156 51.25 41.5 51.25 C 41.527344 51.980469 41.546875 52.707031 41.5625 53.4375 C 41.570312 53.640625 41.578125 53.851562 41.585938 54.0625 C 41.59375 54.363281 41.59375 54.363281 41.597656 54.667969 C 41.605469 54.941406 41.605469 54.941406 41.613281 55.222656 C 41.449219 55.996094 41.113281 56.261719 40.5 56.75 C 39.730469 56.878906 39.730469 56.878906 38.816406 56.882812 C 38.566406 56.886719 38.566406 56.886719 38.308594 56.890625 C 37.757812 56.894531 37.207031 56.894531 36.65625 56.890625 C 36.273438 56.890625 35.886719 56.894531 35.503906 56.898438 C 34.703125 56.898438 33.898438 56.898438 33.09375 56.894531 C 32.066406 56.890625 31.039062 56.894531 30.007812 56.90625 C 29.214844 56.910156 28.425781 56.910156 27.632812 56.90625 C 27.253906 56.90625 26.871094 56.910156 26.492188 56.914062 C 25.960938 56.917969 25.433594 56.914062 24.902344 56.90625 C 24.601562 56.90625 24.300781 56.90625 23.988281 56.90625 C 23.25 56.75 23.25 56.75 22.777344 56.148438 C 22.507812 55.515625 22.410156 55.128906 22.425781 54.449219 C 22.429688 54.261719 22.433594 54.074219 22.433594 53.878906 C 22.441406 53.589844 22.441406 53.589844 22.453125 53.296875 C 22.457031 53.101562 22.460938 52.902344 22.460938 52.699219 C 22.472656 52.21875 22.484375 51.734375 22.5 51.25 Z M 22.5 51.25 "/>
<path style=" stroke:none;fill-rule:nonzero;fill:rgb(24.705882%,23.529412%,22.352941%);fill-opacity:1;" d="M 33.25 36.5 C 38.695312 36.5 44.140625 36.5 49.75 36.5 C 49.667969 36.914062 49.585938 37.324219 49.5 37.75 C 44.21875 37.75 38.941406 37.75 33.5 37.75 C 33.417969 37.335938 33.335938 36.925781 33.25 36.5 Z M 33.25 36.5 "/>
<path style=" stroke:none;fill-rule:nonzero;fill:rgb(24.313726%,23.529412%,21.960784%);fill-opacity:1;" d="M 33.25 34 C 38.695312 34 44.140625 34 49.75 34 C 49.667969 34.414062 49.585938 34.824219 49.5 35.25 C 44.21875 35.25 38.941406 35.25 33.5 35.25 C 33.417969 34.835938 33.335938 34.425781 33.25 34 Z M 33.25 34 "/>
<path style=" stroke:none;fill-rule:nonzero;fill:rgb(100%,96.470588%,96.078432%);fill-opacity:1;" d="M 49.75 15.5 C 50.988281 15.5 52.226562 15.5 53.5 15.5 C 53.5 16.820312 53.5 18.140625 53.5 19.5 C 52.59375 19.5 51.683594 19.5 50.75 19.5 C 50.75 20.242188 50.75 20.984375 50.75 21.75 C 50.421875 21.75 50.089844 21.75 49.75 21.75 C 49.75 19.6875 49.75 17.625 49.75 15.5 Z M 49.75 15.5 "/>
<path style=" stroke:none;fill-rule:nonzero;fill:rgb(100%,92.941177%,91.764706%);fill-opacity:1;" d="M 46 15.5 C 46.421875 15.574219 46.835938 15.65625 47.25 15.75 C 47.3125 15.949219 47.378906 16.148438 47.441406 16.351562 C 47.980469 18.015625 47.980469 18.015625 48.6875 19.609375 C 49.023438 20.300781 49.066406 20.738281 49 21.5 C 48.671875 21.582031 48.339844 21.664062 48 21.75 C 47.835938 21.253906 47.671875 20.761719 47.5 20.25 C 46.839844 20.25 46.179688 20.25 45.5 20.25 C 45.335938 20.746094 45.171875 21.238281 45 21.75 C 44.671875 21.667969 44.339844 21.585938 44 21.5 C 44.144531 20.121094 44.496094 18.945312 45 17.65625 C 45.066406 17.476562 45.136719 17.296875 45.207031 17.109375 C 45.710938 15.789062 45.710938 15.789062 46 15.5 Z M 46 15.5 "/>
<path style=" stroke:none;fill-rule:nonzero;fill:rgb(23.921569%,23.529412%,23.529412%);fill-opacity:1;" d="M 35.25 45.75 C 38.960938 45.75 42.675781 45.75 46.5 45.75 C 46.5 46.164062 46.5 46.574219 46.5 47 C 42.789062 47 39.074219 47 35.25 47 C 35.25 46.585938 35.25 46.175781 35.25 45.75 Z M 35.25 45.75 "/>
<path style=" stroke:none;fill-rule:nonzero;fill:rgb(20.392157%,43.921569%,51.372552%);fill-opacity:1;" d="M 38.125 18.71875 C 38.296875 18.71875 38.46875 18.714844 38.648438 18.714844 C 39.9375 18.71875 39.9375 18.71875 40.5 19 C 40.582031 19.496094 40.664062 19.988281 40.75 20.5 C 39.101562 20.5 37.449219 20.5 35.75 20.5 C 35.75 20.003906 35.75 19.511719 35.75 19 C 36.507812 18.621094 37.296875 18.714844 38.125 18.71875 Z M 38.125 18.71875 "/>
<path style=" stroke:none;fill-rule:nonzero;fill:rgb(100%,93.725491%,92.941177%);fill-opacity:1;" d="M 54.75 15.5 C 55.078125 15.5 55.410156 15.5 55.75 15.5 C 55.75 17.5625 55.75 19.625 55.75 21.75 C 55.335938 21.667969 54.925781 21.585938 54.5 21.5 C 54.492188 20.546875 54.488281 19.59375 54.484375 18.640625 C 54.484375 18.367188 54.480469 18.097656 54.476562 17.816406 C 54.476562 17.558594 54.476562 17.296875 54.476562 17.03125 C 54.476562 16.792969 54.472656 16.550781 54.472656 16.304688 C 54.5 15.75 54.5 15.75 54.75 15.5 Z M 54.75 15.5 "/>
<path style=" stroke:none;fill-rule:nonzero;fill:rgb(100%,25.882354%,12.156863%);fill-opacity:1;" d="M 51 16.75 C 51.414062 16.75 51.824219 16.75 52.25 16.75 C 52.25 17.246094 52.25 17.738281 52.25 18.25 C 51.835938 18.25 51.425781 18.25 51 18.25 C 51 17.753906 51 17.261719 51 16.75 Z M 51 16.75 "/>
</g>
</svg>
