<?xml version="1.0" encoding="UTF-8"?>
<svg xmlns="http://www.w3.org/2000/svg" xmlns:xlink="http://www.w3.org/1999/xlink" width="64" height="64" viewBox="0 0 64 64" version="1.1">
<g id="surface1">
<path style=" stroke:none;fill-rule:nonzero;fill:rgb(1.568628%,2.352941%,2.352941%);fill-opacity:1;" d="M 59.394531 2.292969 C 61.261719 3.703125 62.796875 5.660156 63.25 8 C 63.652344 12.75 61.65625 15.914062 58.75 19.5 C 58.949219 19.558594 59.152344 19.621094 59.363281 19.683594 C 62.0625 20.53125 62.0625 20.53125 63 21.5 C 63.402344 22.308594 63.367188 22.855469 63.25 23.75 C 61.789062 25.785156 59.046875 26.027344 56.761719 26.417969 C 56.507812 26.457031 56.507812 26.457031 56.25 26.5 C 56.417969 26.664062 56.582031 26.828125 56.75 27 C 57.792969 31.085938 57.6875 37.128906 55.75 41 C 55.105469 41.59375 54.894531 41.75 54 41.75 C 54.089844 41.9375 54.171875 42.125 54.261719 42.320312 C 55.527344 45.160156 55.824219 47.28125 54.75 50.25 C 53.847656 52.238281 52.695312 54.003906 51.375 55.738281 C 50.976562 56.175781 50.976562 56.175781 51 56.5 C 51.164062 56.542969 51.324219 56.585938 51.492188 56.628906 C 52.8125 56.996094 53.953125 57.335938 55 58.25 C 55.417969 59.070312 55.554688 59.503906 55.359375 60.40625 C 54.535156 61.765625 53.25 62.363281 51.75 62.75 C 47.632812 63.53125 42.363281 63.945312 38.5 62 C 37.75 61.34375 37.75 61.34375 37.25 60.75 C 37.167969 60.667969 37.085938 60.585938 37 60.5 C 36.867188 59.535156 36.957031 59.074219 37.4375 58.21875 C 38.410156 57.140625 39.894531 56.867188 41.25 56.5 C 41.25 55.71875 40.738281 55.328125 40.25 54.75 C 40.207031 54.941406 40.167969 55.132812 40.125 55.328125 C 39.667969 56.144531 39.234375 56.320312 38.359375 56.59375 C 31.984375 58.230469 25.117188 57.21875 19.429688 53.9375 C 14.4375 50.71875 10.519531 46.347656 8.554688 40.695312 C 8.460938 39.933594 8.886719 39.390625 9.25 38.75 C 8.960938 38.757812 8.671875 38.761719 8.375 38.769531 C 5.980469 38.765625 3.066406 38.433594 1.25 36.75 C 0.617188 35.800781 0.578125 35.378906 0.75 34.25 C 1.597656 33.175781 2.667969 32.539062 4 32.25 C 4.417969 32.246094 4.832031 32.242188 5.25 32.25 C 5.160156 32.121094 5.074219 31.988281 4.984375 31.855469 C 4.71875 31.460938 4.457031 31.066406 4.195312 30.671875 C 3.902344 30.226562 3.605469 29.785156 3.304688 29.34375 C 1.246094 26.238281 0.164062 23.511719 0.898438 19.738281 C 1.589844 17.464844 3.296875 15.523438 5.285156 14.238281 C 7.4375 13.128906 9.941406 12.820312 12.285156 13.46875 C 12.75 13.636719 13.207031 13.816406 13.667969 14.007812 C 14.195312 14.226562 14.695312 14.378906 15.25 14.5 C 15.3125 14.316406 15.371094 14.128906 15.429688 13.933594 C 16.652344 11.308594 20.625 9.675781 23.203125 8.6875 C 29.585938 6.382812 36.238281 6.730469 42.5 9.25 C 42.714844 9.335938 42.925781 9.421875 43.144531 9.507812 C 43.957031 9.871094 44.421875 10.082031 44.800781 10.90625 C 44.898438 11.199219 44.898438 11.199219 45 11.5 C 44.988281 11.296875 44.976562 11.09375 44.964844 10.886719 C 44.867188 7.964844 45.511719 5.683594 47.5 3.5 C 50.628906 0.1875 55.652344 -0.0976562 59.394531 2.292969 Z M 59.394531 2.292969 "/>
<path style=" stroke:none;fill-rule:nonzero;fill:rgb(1.960784%,1.568628%,1.568628%);fill-opacity:1;" d="M 59.394531 2.292969 C 61.261719 3.703125 62.796875 5.660156 63.25 8 C 63.652344 12.75 61.65625 15.914062 58.75 19.5 C 59.054688 19.59375 59.054688 19.59375 59.363281 19.683594 C 62.0625 20.53125 62.0625 20.53125 63 21.5 C 63.402344 22.308594 63.367188 22.855469 63.25 23.75 C 61.789062 25.785156 59.046875 26.027344 56.761719 26.417969 C 56.59375 26.445312 56.421875 26.472656 56.25 26.5 C 56.417969 26.664062 56.582031 26.828125 56.75 27 C 57.792969 31.085938 57.6875 37.128906 55.75 41 C 55.105469 41.59375 54.894531 41.75 54 41.75 C 54.089844 41.9375 54.171875 42.125 54.261719 42.320312 C 55.527344 45.160156 55.824219 47.28125 54.75 50.25 C 53.847656 52.238281 52.695312 54.003906 51.375 55.738281 C 50.976562 56.175781 50.976562 56.175781 51 56.5 C 51.164062 56.542969 51.324219 56.585938 51.492188 56.628906 C 52.8125 56.996094 53.953125 57.335938 55 58.25 C 55.417969 59.070312 55.554688 59.503906 55.359375 60.40625 C 54.535156 61.765625 53.25 62.363281 51.75 62.75 C 47.632812 63.53125 42.363281 63.945312 38.5 62 C 37.75 61.34375 37.75 61.34375 37.25 60.75 C 37.167969 60.667969 37.085938 60.585938 37 60.5 C 36.867188 59.535156 36.957031 59.074219 37.4375 58.21875 C 38.410156 57.140625 39.894531 56.867188 41.25 56.5 C 41.25 55.847656 41.042969 55.714844 40.625 55.21875 C 39.839844 54.203125 39.261719 53.128906 38.6875 51.984375 C 38.601562 51.816406 38.515625 51.648438 38.429688 51.472656 C 37.222656 49.023438 36.671875 46.472656 37.5625 43.816406 C 38.75 41.097656 40.554688 39.410156 43.25 38.25 C 43.972656 38.007812 44.421875 37.972656 45.171875 37.984375 C 45.375 37.988281 45.574219 37.988281 45.785156 37.992188 C 46.011719 37.996094 46.011719 37.996094 46.25 38 C 45.976562 36.648438 45.976562 36.648438 45 35.75 C 44.167969 35.6875 43.347656 35.660156 42.515625 35.652344 C 41.019531 35.601562 40.132812 35.113281 39.042969 34.054688 C 38.925781 33.910156 38.808594 33.773438 38.6875 33.625 C 38.570312 33.480469 38.449219 33.34375 38.324219 33.195312 C 37.546875 32.125 37.40625 31.417969 37.578125 30.121094 C 37.839844 29.179688 38.363281 28.449219 38.898438 27.640625 C 39.269531 26.960938 39.394531 26.433594 39.5 25.671875 C 39.636719 24.8125 39.777344 24.320312 40.421875 23.71875 C 41.410156 23.160156 41.882812 23.136719 43 23.25 C 43.199219 23.269531 43.402344 23.289062 43.609375 23.308594 C 44.160156 23.367188 44.703125 23.429688 45.25 23.5 C 45.25 23.167969 45.25 22.839844 45.25 22.5 C 45.042969 22.515625 44.832031 22.53125 44.621094 22.542969 C 44.347656 22.554688 44.074219 22.566406 43.796875 22.578125 C 43.527344 22.59375 43.257812 22.605469 42.980469 22.621094 C 42.25 22.5 42.25 22.5 41.792969 21.933594 C 41.132812 20.398438 40.878906 18.601562 41.421875 16.984375 C 42.304688 15.519531 43.960938 14.847656 45.5 14.25 C 45.75 14.25 45.996094 14.25 46.25 14.25 C 46.113281 14.007812 46.113281 14.007812 45.976562 13.761719 C 44.898438 11.660156 44.632812 9.816406 45.171875 7.503906 C 45.910156 5.257812 47.261719 3.316406 49.25 2 C 52.648438 0.332031 56.152344 0.21875 59.394531 2.292969 Z M 59.394531 2.292969 "/>
<path style=" stroke:none;fill-rule:nonzero;fill:rgb(52.941179%,77.254903%,97.647059%);fill-opacity:1;" d="M 42.75 12 C 43.25 12.011719 43.75 12.011719 44.25 12 C 44.578125 12 44.910156 12 45.25 12 C 45.941406 12.691406 46.082031 13.308594 46.25 14.25 C 46.046875 14.324219 45.84375 14.402344 45.636719 14.480469 C 43.726562 15.226562 42.640625 15.785156 41.5 17.5 C 41.28125 19.242188 41.53125 20.664062 42.25 22.25 C 43.238281 22.332031 44.230469 22.414062 45.25 22.5 C 45.332031 22.914062 45.414062 23.324219 45.5 23.75 C 43.84375 23.78125 43.84375 23.78125 43 23.5 C 42.058594 23.414062 41.429688 23.417969 40.5625 23.8125 C 39.8125 24.726562 39.695312 25.601562 39.453125 26.742188 C 39.257812 27.476562 39.023438 27.933594 38.59375 28.546875 C 37.898438 29.574219 37.605469 30.503906 37.75 31.75 C 38.355469 33.28125 39.527344 34.511719 41 35.25 C 41.828125 35.292969 42.660156 35.324219 43.492188 35.335938 C 44.378906 35.371094 44.972656 35.484375 45.753906 35.917969 C 46.25 36.5 46.25 36.5 46.328125 37.3125 C 46.289062 37.652344 46.289062 37.652344 46.25 38 C 46.058594 38.023438 45.863281 38.050781 45.664062 38.074219 C 44.023438 38.308594 42.640625 38.582031 41.25 39.5 C 41.082031 39.609375 40.917969 39.71875 40.746094 39.828125 C 38.890625 41.238281 37.71875 43.371094 37.359375 45.65625 C 37.277344 48.101562 37.925781 50.066406 39.171875 52.140625 C 39.859375 53.308594 39.96875 54.414062 40 55.75 C 36.578125 58.066406 30.925781 57.601562 27.042969 56.871094 C 20.476562 55.46875 14.835938 51.460938 11.085938 45.9375 C 10.132812 44.460938 9.402344 42.875 8.75 41.25 C 8.675781 41.085938 8.609375 40.921875 8.53125 40.753906 C 8.476562 39.90625 8.886719 39.253906 9.25 38.5 C 9.566406 38.46875 9.878906 38.441406 10.199219 38.40625 C 14.722656 38.175781 14.722656 38.175781 18.5 36 C 18.625 35.269531 18.625 35.269531 18.5 34.5 C 17.742188 33.523438 16.828125 33.183594 15.6875 32.8125 C 15.523438 32.757812 15.363281 32.703125 15.195312 32.644531 C 14.796875 32.511719 14.398438 32.378906 14 32.25 C 14.25 31.75 14.5 31.25 14.75 30.75 C 15.671875 30.914062 16.335938 31.316406 17.125 31.8125 C 17.359375 31.957031 17.59375 32.105469 17.835938 32.253906 C 18.671875 32.878906 19.28125 33.5625 19.75 34.5 C 19.773438 34.953125 19.796875 35.410156 19.808594 35.863281 C 19.863281 38.355469 19.863281 38.355469 21 40.5 C 21.453125 40.90625 21.914062 41.308594 22.375 41.703125 C 23.789062 42.941406 24.316406 43.945312 24.75 45.75 C 24.828125 46.074219 24.914062 46.398438 24.992188 46.726562 C 25.121094 47.246094 25.25 47.765625 25.375 48.285156 C 25.984375 50.78125 25.984375 50.78125 27.328125 52.921875 C 28.261719 53.378906 28.765625 53.304688 29.75 53 C 31.164062 51.746094 31.714844 49.703125 31.9375 47.890625 C 32.207031 46.179688 33.179688 45.066406 34.25 43.75 C 34.527344 43.386719 34.804688 43.023438 35.078125 42.65625 C 35.199219 42.496094 35.316406 42.339844 35.4375 42.175781 C 36.808594 40.300781 37 38.554688 36.75 36.25 C 36.300781 35.46875 36.300781 35.46875 35.5 35 C 35.335938 34.878906 35.171875 34.757812 35.003906 34.628906 C 33.671875 33.671875 32.296875 33.039062 30.75 32.5 C 30.585938 32.433594 30.425781 32.371094 30.261719 32.304688 C 28.996094 31.832031 27.953125 31.699219 26.613281 31.734375 C 23.855469 31.800781 23.855469 31.800781 22.789062 30.898438 C 22.167969 29.929688 21.75 29.164062 21.75 28 C 22.027344 27.941406 22.304688 27.878906 22.589844 27.816406 C 22.953125 27.734375 23.324219 27.648438 23.6875 27.5625 C 23.871094 27.523438 24.050781 27.484375 24.238281 27.441406 C 25.34375 27.183594 26.039062 26.941406 26.75 26 C 26.851562 25.722656 26.957031 25.441406 27.0625 25.15625 C 27.703125 23.523438 29.476562 22.679688 31 22 C 31.851562 21.757812 32.71875 21.582031 33.585938 21.40625 C 34.363281 21.234375 34.902344 21.09375 35.484375 20.53125 C 36.011719 19.484375 36.046875 18.546875 36.0625 17.375 C 36.070312 17.09375 36.074219 16.8125 36.082031 16.523438 C 35.988281 15.652344 35.898438 15.335938 35.25 14.75 C 34.46875 14.464844 34.46875 14.464844 33.578125 14.28125 C 32.425781 13.988281 31.625 13.75 30.75 12.9375 C 29.636719 11.984375 28.476562 12.105469 27.066406 12.164062 C 26.167969 12.261719 25.363281 12.480469 24.5 12.75 C 23.742188 12.828125 23.003906 12.886719 22.25 12.75 C 21.808594 12.371094 21.808594 12.371094 21.5 12 C 22.011719 11.761719 22.519531 11.519531 23.03125 11.28125 C 23.316406 11.148438 23.601562 11.015625 23.890625 10.878906 C 29.949219 8.214844 36.96875 9.109375 42.75 12 Z M 42.75 12 "/>
<path style=" stroke:none;fill-rule:nonzero;fill:rgb(41.568628%,94.509804%,74.901962%);fill-opacity:1;" d="M 19.46875 13.640625 C 20.25 13.75 20.25 13.75 21.078125 14.125 C 22.546875 14.722656 23.835938 14.625 25.359375 14.25 C 26.757812 13.921875 28.242188 13.574219 29.554688 14.3125 C 29.917969 14.574219 30.277344 14.84375 30.640625 15.117188 C 31.734375 15.804688 32.988281 16.007812 34.25 16.25 C 34.296875 17.449219 34.285156 18.414062 33.75 19.5 C 32.980469 19.8125 32.980469 19.8125 32.015625 20 C 29.726562 20.507812 27.5 21.351562 26 23.25 C 25.8125 23.640625 25.625 24.03125 25.4375 24.421875 C 24.910156 25.429688 24.910156 25.429688 24.230469 25.738281 C 23.652344 25.859375 23.085938 25.9375 22.5 26 C 21.332031 26.277344 21.332031 26.277344 20.265625 26.796875 C 19.828125 27.546875 19.816406 28.175781 20 29 C 20.421875 29.96875 20.921875 30.867188 21.5 31.75 C 21.671875 32.023438 21.84375 32.296875 22.019531 32.578125 C 23.070312 33.546875 23.890625 33.394531 25.265625 33.34375 C 27.332031 33.351562 29.050781 33.625 30.96875 34.40625 C 31.269531 34.527344 31.269531 34.527344 31.578125 34.648438 C 32.972656 35.257812 34.265625 36.066406 35.25 37.25 C 35.4375 39.582031 33.859375 41.386719 32.484375 43.125 C 31.019531 44.984375 30.277344 46.582031 29.875 48.90625 C 29.695312 49.753906 29.375 50.46875 29 51.25 C 28.75 51.25 28.507812 51.25 28.25 51.25 C 27.324219 49.394531 26.894531 47.566406 26.507812 45.542969 C 26.070312 43.445312 25.402344 41.53125 23.578125 40.265625 C 23.386719 40.128906 23.195312 39.992188 22.996094 39.851562 C 22.832031 39.734375 22.667969 39.621094 22.5 39.5 C 21.902344 38.90625 21.925781 38.734375 21.875 37.917969 C 21.859375 37.703125 21.84375 37.484375 21.828125 37.261719 C 21.796875 36.8125 21.769531 36.359375 21.742188 35.90625 C 21.609375 34.214844 21.257812 33.09375 20.097656 31.804688 C 18.949219 30.875 17.746094 30.046875 16.5 29.25 C 16.648438 28.316406 16.917969 27.597656 17.359375 26.765625 C 18.5625 24.5 18.972656 22.109375 18.328125 19.574219 C 17.617188 17.871094 16.515625 16.316406 15 15.25 C 15.082031 15.003906 15.164062 14.753906 15.25 14.5 C 15.390625 14.589844 15.527344 14.675781 15.671875 14.765625 C 16.417969 15.066406 16.742188 15.007812 17.5 14.75 C 17.703125 14.582031 17.902344 14.410156 18.109375 14.234375 C 18.75 13.75 18.75 13.75 19.46875 13.640625 Z M 19.46875 13.640625 "/>
<path style=" stroke:none;fill-rule:nonzero;fill:rgb(41.568628%,94.901961%,74.901962%);fill-opacity:1;" d="M 42.542969 25.492188 C 42.894531 25.5 43.25 25.511719 43.605469 25.519531 C 43.886719 25.53125 43.886719 25.53125 44.179688 25.539062 C 44.582031 25.546875 44.988281 25.5625 45.394531 25.574219 C 46 25.59375 46.605469 25.609375 47.210938 25.628906 C 48.199219 25.65625 49.1875 25.6875 50.171875 25.726562 C 50.554688 25.742188 50.9375 25.753906 51.320312 25.769531 C 51.859375 25.789062 52.398438 25.8125 52.9375 25.839844 C 53.242188 25.851562 53.554688 25.863281 53.871094 25.878906 C 54.894531 26.019531 55.582031 26.273438 56.5 26.75 C 58.492188 30.640625 57.089844 36.550781 55.984375 40.527344 C 55.679688 41.144531 55.34375 41.40625 54.75 41.75 C 53.292969 41.582031 52.601562 40.9375 51.5625 39.941406 C 50.917969 39.433594 50.304688 39.214844 49.53125 38.9375 C 48.820312 38.644531 48.820312 38.644531 48.25 38.25 C 47.980469 37.535156 47.910156 36.90625 47.84375 36.152344 C 47.792969 35.429688 47.792969 35.429688 47.171875 34.734375 C 45.917969 33.832031 44.945312 33.707031 43.40625 33.6875 C 42.027344 33.628906 40.984375 33.5 40.011719 32.449219 C 39.644531 31.824219 39.542969 31.238281 39.609375 30.515625 C 39.820312 29.75 40.234375 29.171875 40.6875 28.523438 C 41.132812 27.78125 41.265625 27.039062 41.410156 26.195312 C 41.570312 25.40625 41.699219 25.5 42.542969 25.492188 Z M 42.542969 25.492188 "/>
<path style=" stroke:none;fill-rule:nonzero;fill:rgb(3.921569%,2.352941%,2.745098%);fill-opacity:1;" d="M 11.949219 15.652344 C 13.890625 16.339844 15.304688 17.664062 16.375 19.40625 C 17.128906 21.160156 17.050781 23.101562 16.453125 24.878906 C 15.386719 27.167969 13.878906 29.089844 12.25 31 C 12.140625 31.128906 12.027344 31.261719 11.914062 31.394531 C 10.644531 32.886719 10.644531 32.886719 10 33.5 C 9.835938 33.5 9.671875 33.5 9.5 33.5 C 8.808594 32.757812 8.199219 31.957031 7.574219 31.160156 C 7.253906 30.753906 6.925781 30.351562 6.597656 29.949219 C 4.332031 27.128906 2.746094 24.464844 3 20.75 C 3.300781 19.230469 4.09375 18.019531 5.25 17 C 5.976562 16.527344 6.71875 16.125 7.5 15.75 C 8.765625 15.117188 10.609375 15.359375 11.949219 15.652344 Z M 11.949219 15.652344 "/>
<path style=" stroke:none;fill-rule:nonzero;fill:rgb(4.313726%,2.745098%,2.745098%);fill-opacity:1;" d="M 49.375 40.640625 C 51.167969 41.65625 52.1875 42.867188 53 44.75 C 53.441406 47.777344 52.566406 50.15625 50.84375 52.609375 C 49.808594 53.96875 48.699219 55.269531 47.578125 56.5625 C 46.988281 57.242188 46.988281 57.242188 46.5 58 C 45.425781 57.601562 44.796875 56.785156 44.078125 55.9375 C 43.949219 55.78125 43.816406 55.628906 43.679688 55.46875 C 42.378906 53.90625 41.296875 52.242188 40.25 50.5 C 40.109375 50.28125 39.972656 50.0625 39.828125 49.839844 C 39 48.359375 39.058594 46.644531 39.25 45 C 39.929688 42.972656 41.179688 41.585938 43 40.5 C 45.023438 39.511719 47.371094 39.703125 49.375 40.640625 Z M 49.375 40.640625 "/>
<path style=" stroke:none;fill-rule:nonzero;fill:rgb(4.313726%,2.745098%,2.745098%);fill-opacity:1;" d="M 57.75 4 C 59.21875 5.078125 60.414062 6.242188 61 8 C 61.464844 12.625 58.886719 15.765625 56.128906 19.152344 C 55.949219 19.371094 55.949219 19.371094 55.765625 19.59375 C 55.648438 19.734375 55.535156 19.878906 55.417969 20.023438 C 55.128906 20.363281 54.816406 20.683594 54.5 21 C 54.253906 21 54.003906 21 53.75 21 C 53.273438 20.511719 53.273438 20.511719 52.734375 19.828125 C 52.535156 19.574219 52.335938 19.324219 52.136719 19.066406 C 51.976562 18.863281 51.976562 18.863281 51.820312 18.65625 C 51.503906 18.253906 51.183594 17.859375 50.859375 17.46875 C 48.765625 14.890625 46.90625 12.269531 47.113281 8.796875 C 47.460938 6.761719 48.59375 5.460938 50.152344 4.164062 C 52.492188 2.535156 55.34375 2.519531 57.75 4 Z M 57.75 4 "/>
<path style=" stroke:none;fill-rule:nonzero;fill:rgb(0.392157%,0.784314%,1.176471%);fill-opacity:1;" d="M 9 39.25 C 10.550781 39.503906 10.550781 39.503906 11.058594 40.128906 C 11.324219 40.625 11.546875 41.125 11.765625 41.640625 C 11.933594 42.007812 12.105469 42.371094 12.273438 42.738281 C 12.398438 43 12.398438 43 12.519531 43.269531 C 13.480469 45.28125 14.960938 46.914062 16.5 48.5 C 16.683594 48.691406 16.871094 48.882812 17.058594 49.078125 C 21.085938 52.96875 26.523438 54.789062 32.03125 54.8125 C 32.429688 54.820312 32.429688 54.820312 32.835938 54.828125 C 34.507812 54.835938 35.960938 54.636719 37.558594 54.164062 C 38.316406 53.984375 38.976562 53.953125 39.75 54 C 40 54.25 40 54.25 40.09375 54.96875 C 40.046875 55.355469 40.046875 55.355469 40 55.75 C 37.164062 57.914062 31.984375 57.523438 28.628906 57.132812 C 22.027344 56.195312 16.050781 52.5625 12.023438 47.265625 C 10.570312 45.28125 8.871094 42.730469 8.5 40.25 C 8.734375 39.6875 8.734375 39.6875 9 39.25 Z M 9 39.25 "/>
<path style=" stroke:none;fill-rule:nonzero;fill:rgb(93.725491%,36.862746%,40.784314%);fill-opacity:1;" d="M 11.949219 15.652344 C 13.890625 16.339844 15.304688 17.664062 16.375 19.40625 C 17.128906 21.160156 17.050781 23.101562 16.453125 24.878906 C 15.386719 27.167969 13.878906 29.089844 12.25 31 C 12.140625 31.128906 12.027344 31.261719 11.914062 31.394531 C 10.644531 32.886719 10.644531 32.886719 10 33.5 C 9.835938 33.5 9.671875 33.5 9.5 33.5 C 8.808594 32.757812 8.199219 31.957031 7.574219 31.160156 C 7.253906 30.753906 6.925781 30.351562 6.597656 29.949219 C 4.332031 27.128906 2.746094 24.464844 3 20.75 C 3.300781 19.230469 4.09375 18.019531 5.25 17 C 5.976562 16.527344 6.71875 16.125 7.5 15.75 C 8.765625 15.117188 10.609375 15.359375 11.949219 15.652344 Z M 4.859375 19.03125 C 3.753906 20.589844 3.808594 22.402344 4 24.25 C 4.558594 25.847656 5.902344 27.027344 7.25 28 C 8.78125 28.511719 10.859375 28.5625 12.398438 28.023438 C 13.921875 27.109375 15.171875 25.679688 15.75 24 C 15.972656 22.160156 15.933594 20.566406 14.90625 18.984375 C 13.695312 17.539062 12.257812 16.664062 10.382812 16.421875 C 8.019531 16.269531 6.316406 17.179688 4.859375 19.03125 Z M 4.859375 19.03125 "/>
<path style=" stroke:none;fill-rule:nonzero;fill:rgb(93.725491%,36.470589%,40.784314%);fill-opacity:1;" d="M 57.75 4 C 59.21875 5.078125 60.414062 6.242188 61 8 C 61.464844 12.625 58.886719 15.765625 56.128906 19.152344 C 55.949219 19.371094 55.949219 19.371094 55.765625 19.59375 C 55.648438 19.734375 55.535156 19.878906 55.417969 20.023438 C 55.128906 20.363281 54.816406 20.683594 54.5 21 C 54.253906 21 54.003906 21 53.75 21 C 53.273438 20.511719 53.273438 20.511719 52.734375 19.828125 C 52.535156 19.574219 52.335938 19.324219 52.136719 19.066406 C 51.976562 18.863281 51.976562 18.863281 51.820312 18.65625 C 51.503906 18.253906 51.183594 17.859375 50.859375 17.46875 C 48.765625 14.890625 46.90625 12.269531 47.113281 8.796875 C 47.460938 6.761719 48.59375 5.460938 50.152344 4.164062 C 52.492188 2.535156 55.34375 2.519531 57.75 4 Z M 49.378906 6.300781 C 48.207031 7.695312 48.117188 8.921875 48.160156 10.699219 C 48.285156 11.8125 48.625 12.585938 49.25 13.5 C 49.386719 13.722656 49.515625 13.941406 49.65625 14.171875 C 50.90625 15.390625 52.375 16.070312 54.125 16.15625 C 55.824219 16.066406 57.289062 15.496094 58.472656 14.257812 C 58.851562 13.765625 59.1875 13.28125 59.5 12.75 C 59.59375 12.601562 59.6875 12.449219 59.78125 12.292969 C 60.351562 10.871094 60.226562 9.019531 59.800781 7.574219 C 59.066406 6.09375 57.941406 5.257812 56.5 4.5 C 53.773438 3.59375 51.28125 4.234375 49.378906 6.300781 Z M 49.378906 6.300781 "/>
<path style=" stroke:none;fill-rule:nonzero;fill:rgb(94.117647%,36.862746%,41.176471%);fill-opacity:1;" d="M 49.375 40.640625 C 51.167969 41.65625 52.1875 42.867188 53 44.75 C 53.441406 47.777344 52.566406 50.15625 50.84375 52.609375 C 49.808594 53.96875 48.699219 55.269531 47.578125 56.5625 C 46.988281 57.242188 46.988281 57.242188 46.5 58 C 45.425781 57.601562 44.796875 56.785156 44.078125 55.9375 C 43.949219 55.78125 43.816406 55.628906 43.679688 55.46875 C 42.378906 53.90625 41.296875 52.242188 40.25 50.5 C 40.109375 50.28125 39.972656 50.0625 39.828125 49.839844 C 39 48.359375 39.058594 46.644531 39.25 45 C 39.929688 42.972656 41.179688 41.585938 43 40.5 C 45.023438 39.511719 47.371094 39.703125 49.375 40.640625 Z M 41.519531 43.082031 C 40.308594 44.867188 40.101562 46.089844 40.25 48.25 C 40.746094 49.996094 41.898438 51.476562 43.441406 52.425781 C 45.03125 53.0625 47.011719 53.089844 48.636719 52.53125 C 50.058594 51.695312 51.398438 50.304688 52 48.75 C 52.207031 46.859375 52.332031 44.960938 51.121094 43.394531 C 49.640625 41.824219 48.210938 40.980469 46.046875 40.859375 C 44.148438 40.914062 42.730469 41.609375 41.519531 43.082031 Z M 41.519531 43.082031 "/>
<path style=" stroke:none;fill-rule:nonzero;fill:rgb(90.588236%,91.764706%,92.54902%);fill-opacity:1;" d="M 11 18.5 C 12.324219 19.175781 13.273438 20.074219 13.75 21.5 C 13.953125 22.820312 13.863281 23.753906 13.078125 24.859375 C 12.320312 25.828125 11.546875 26.167969 10.335938 26.351562 C 9.09375 26.394531 8.226562 26.386719 7.234375 25.578125 C 6.230469 24.542969 5.976562 23.691406 5.90625 22.265625 C 5.9375 21.066406 6.164062 20.398438 7 19.5 C 8.289062 18.539062 9.394531 18.210938 11 18.5 Z M 11 18.5 "/>
<path style=" stroke:none;fill-rule:nonzero;fill:rgb(90.196079%,91.37255%,92.156863%);fill-opacity:1;" d="M 55.5 6.25 C 56.375 6.671875 56.375 6.671875 57 7.25 C 57.195312 7.414062 57.390625 7.578125 57.59375 7.75 C 58.253906 8.96875 58.261719 10.148438 58 11.5 C 57.410156 12.546875 56.65625 13.25 55.640625 13.875 C 54.300781 14.136719 53.394531 14.203125 52.1875 13.578125 C 51.140625 12.699219 50.351562 11.890625 50.191406 10.488281 C 50.144531 9.101562 50.3125 8.335938 51.25 7.25 C 51.414062 7.054688 51.578125 6.859375 51.75 6.65625 C 52.957031 6.003906 54.160156 6.070312 55.5 6.25 Z M 55.5 6.25 "/>
<path style=" stroke:none;fill-rule:nonzero;fill:rgb(90.588236%,91.764706%,92.54902%);fill-opacity:1;" d="M 47.5 43 C 48.628906 43.585938 49.539062 44.289062 50 45.5 C 50.1875 46.976562 50.113281 48.25 49.25 49.5 C 47.996094 50.65625 47.011719 50.828125 45.359375 50.800781 C 44.542969 50.734375 44.113281 50.542969 43.5 50 C 42.476562 48.636719 42.015625 47.46875 42.25 45.75 C 43.363281 43.601562 45.109375 42.585938 47.5 43 Z M 47.5 43 "/>
<path style=" stroke:none;fill-rule:nonzero;fill:rgb(0%,1.176471%,0.784314%);fill-opacity:1;" d="M 55 26.5 C 55.625 26.421875 55.625 26.421875 56.25 26.5 C 57.515625 27.765625 57.292969 30.496094 57.328125 32.1875 C 57.320312 34.96875 57 38.5 55.75 41 C 55.265625 41.453125 55.265625 41.453125 54.75 41.75 C 54.0625 41.546875 54.0625 41.546875 53.5 41.25 C 53.601562 39.832031 53.863281 38.585938 54.265625 37.21875 C 55.066406 34.328125 55.046875 31.078125 54.589844 28.125 C 54.5 27.25 54.5 27.25 55 26.5 Z M 55 26.5 "/>
<path style=" stroke:none;fill-rule:nonzero;fill:rgb(0.784314%,85.882354%,58.039218%);fill-opacity:1;" d="M 52.5 26 C 53.242188 26 53.984375 26 54.75 26 C 54.996094 26.988281 54.941406 27.300781 54.75 28.25 C 54.828125 28.585938 54.914062 28.917969 55 29.25 C 55.296875 32.753906 54.941406 35.933594 53.886719 39.273438 C 53.699219 39.925781 53.59375 40.578125 53.5 41.25 C 52.546875 40.859375 51.953125 40.238281 51.25 39.5 C 51.414062 39.5 51.578125 39.5 51.75 39.5 C 51.921875 38.75 52.085938 38.003906 52.25 37.25 C 52.296875 37.046875 52.339844 36.84375 52.386719 36.636719 C 52.753906 34.824219 52.816406 33.078125 52.796875 31.234375 C 52.796875 30.953125 52.796875 30.671875 52.796875 30.382812 C 52.851562 29.023438 52.851562 29.023438 52.5 27.75 C 52.488281 27.167969 52.488281 26.582031 52.5 26 Z M 52.5 26 "/>
<path style=" stroke:none;fill-rule:nonzero;fill:rgb(39.215687%,92.156863%,72.549021%);fill-opacity:1;" d="M 47.5 16 C 48.015625 16.566406 48.015625 16.566406 48.53125 17.3125 C 48.703125 17.554688 48.871094 17.800781 49.050781 18.050781 C 49.410156 18.609375 49.722656 19.148438 50 19.75 C 47.773438 20.585938 45.597656 20.53125 43.25 20.5 C 43.160156 19.648438 43.128906 18.847656 43.25 18 C 44.359375 16.730469 45.796875 16 47.5 16 Z M 47.5 16 "/>
<path style=" stroke:none;fill-rule:nonzero;fill:rgb(56.862748%,52.941179%,56.862748%);fill-opacity:1;" d="M 7.75 34.25 C 8.304688 34.667969 8.695312 35.089844 9.113281 35.640625 C 9.242188 35.761719 9.371094 35.878906 9.5 36 C 10.128906 35.96875 10.398438 35.851562 10.835938 35.398438 C 10.996094 35.191406 10.996094 35.191406 11.15625 34.984375 C 11.636719 34.480469 11.898438 34.273438 12.582031 34.125 C 14.039062 34.089844 15.175781 34.414062 16.5 35 C 16.5 35.164062 16.5 35.328125 16.5 35.5 C 16.105469 35.621094 15.707031 35.738281 15.3125 35.859375 C 15.09375 35.925781 14.871094 35.992188 14.644531 36.0625 C 14.433594 36.121094 14.21875 36.183594 14 36.25 C 13.851562 36.296875 13.703125 36.335938 13.546875 36.382812 C 12.34375 36.640625 11.085938 36.558594 9.859375 36.5625 C 9.433594 36.570312 9.433594 36.570312 9.003906 36.578125 C 7.003906 36.585938 5.066406 36.40625 3.25 35.5 C 3.332031 35.253906 3.414062 35.003906 3.5 34.75 C 4.796875 34.101562 6.335938 33.96875 7.75 34.25 Z M 7.75 34.25 "/>
<path style=" stroke:none;fill-rule:nonzero;fill:rgb(57.254905%,53.333336%,57.254905%);fill-opacity:1;" d="M 50.363281 58.609375 C 51.230469 58.800781 51.953125 59.101562 52.75 59.5 C 51.738281 60.746094 50.011719 60.828125 48.5 61 C 45.730469 61.195312 42.613281 61.328125 40 60.25 C 39.835938 60 39.667969 59.753906 39.5 59.5 C 41.050781 58.796875 42.542969 58.40625 44.25 58.75 C 44.789062 59.191406 45.089844 59.675781 45.5 60.25 C 46.292969 60.492188 46.292969 60.492188 47 60.5 C 47.0625 60.355469 47.125 60.210938 47.1875 60.0625 C 48.039062 58.53125 48.679688 58.371094 50.363281 58.609375 Z M 50.363281 58.609375 "/>
<path style=" stroke:none;fill-rule:nonzero;fill:rgb(58.823532%,54.509807%,58.823532%);fill-opacity:1;" d="M 52 21.75 C 52.472656 22.164062 52.808594 22.597656 53.175781 23.101562 C 53.488281 23.558594 53.488281 23.558594 54.125 23.71875 C 54.871094 23.457031 54.945312 23.246094 55.375 22.609375 C 55.75 22.125 55.75 22.125 56.25 21.75 C 57.828125 21.589844 59.300781 21.859375 60.75 22.5 C 60.75 22.664062 60.75 22.828125 60.75 23 C 60.394531 23.121094 60.042969 23.238281 59.6875 23.359375 C 59.488281 23.425781 59.292969 23.492188 59.089844 23.5625 C 57.46875 24.078125 55.941406 24.054688 54.25 24.0625 C 53.8125 24.070312 53.8125 24.070312 53.363281 24.078125 C 51.453125 24.085938 49.53125 24.003906 47.75 23.25 C 47.667969 23.003906 47.585938 22.753906 47.5 22.5 C 48.960938 21.851562 50.398438 21.359375 52 21.75 Z M 52 21.75 "/>
<path style=" stroke:none;fill-rule:nonzero;fill:rgb(61.56863%,57.254905%,61.56863%);fill-opacity:1;" d="M 44.25 58.75 C 44.886719 59.199219 45.097656 59.558594 45.5 60.25 C 45.5 60.414062 45.5 60.578125 45.5 60.75 C 43.410156 60.828125 41.695312 60.804688 39.75 60 C 39.75 59.753906 39.75 59.503906 39.75 59.25 C 41.21875 58.726562 42.699219 58.46875 44.25 58.75 Z M 44.25 58.75 "/>
<path style=" stroke:none;fill-rule:nonzero;fill:rgb(61.960787%,57.647061%,61.960787%);fill-opacity:1;" d="M 14.5 34.25 C 15.207031 34.449219 15.824219 34.699219 16.5 35 C 16.5 35.164062 16.5 35.328125 16.5 35.5 C 14.675781 36.414062 12.492188 36.28125 10.5 36.25 C 11.449219 34.300781 12.378906 33.976562 14.5 34.25 Z M 14.5 34.25 "/>
<path style=" stroke:none;fill-rule:nonzero;fill:rgb(62.352943%,58.039218%,62.352943%);fill-opacity:1;" d="M 57.84375 21.796875 C 58.125 21.820312 58.402344 21.84375 58.695312 21.871094 C 59.449219 21.992188 60.054688 22.183594 60.75 22.5 C 60.75 22.664062 60.75 22.828125 60.75 23 C 58.804688 23.804688 57.089844 23.828125 55 23.75 C 55.597656 22.054688 56.007812 21.621094 57.84375 21.796875 Z M 57.84375 21.796875 "/>
<path style=" stroke:none;fill-rule:nonzero;fill:rgb(48.235294%,70.19608%,88.627452%);fill-opacity:1;" d="M 14.75 30.75 C 15.671875 30.914062 16.335938 31.316406 17.125 31.8125 C 17.359375 31.957031 17.59375 32.105469 17.835938 32.253906 C 18.671875 32.878906 19.28125 33.5625 19.75 34.5 C 19.78125 35.167969 19.761719 35.828125 19.75 36.5 C 19.667969 36.5 19.585938 36.5 19.5 36.5 C 19.5 35.921875 19.5 35.34375 19.5 34.75 C 19.335938 34.75 19.171875 34.75 19 34.75 C 18.917969 35.078125 18.835938 35.410156 18.75 35.75 C 18.710938 35.484375 18.667969 35.210938 18.625 34.9375 C 18.453125 34.347656 18.335938 34.066406 17.851562 33.6875 C 16.628906 33.066406 15.308594 32.648438 14 32.25 C 14.25 31.75 14.5 31.25 14.75 30.75 Z M 14.75 30.75 "/>
<path style=" stroke:none;fill-rule:nonzero;fill:rgb(35.686275%,61.56863%,83.137256%);fill-opacity:1;" d="M 39.25 52.75 C 39.75 53.25 39.75 53.25 39.75 54 C 35.847656 55.117188 31.515625 55.601562 27.5 54.75 C 27.5 54.667969 27.5 54.585938 27.5 54.5 C 27.710938 54.503906 27.925781 54.503906 28.144531 54.507812 C 28.941406 54.515625 29.734375 54.523438 30.53125 54.527344 C 30.871094 54.53125 31.214844 54.53125 31.558594 54.539062 C 32.050781 54.546875 32.546875 54.546875 33.042969 54.550781 C 33.488281 54.550781 33.488281 54.550781 33.941406 54.558594 C 34.742188 54.5 35.277344 54.335938 36 54 C 36.566406 53.808594 37.136719 53.628906 37.703125 53.445312 C 38.246094 53.253906 38.742188 53.015625 39.25 52.75 Z M 39.25 52.75 "/>
<path style=" stroke:none;fill-rule:nonzero;fill:rgb(36.078432%,67.843139%,93.725491%);fill-opacity:1;" d="M 45.03125 11.875 C 45.6875 12.398438 45.929688 12.984375 46.25 13.75 C 46.25 13.914062 46.25 14.078125 46.25 14.25 C 45.828125 14.453125 45.828125 14.453125 45.25 14.5 C 44.492188 13.863281 44.0625 13.441406 43.75 12.5 C 43.585938 12.417969 43.421875 12.335938 43.25 12.25 C 44.328125 11.710938 44.328125 11.710938 45.03125 11.875 Z M 45.03125 11.875 "/>
<path style=" stroke:none;fill-rule:nonzero;fill:rgb(47.450981%,69.411767%,87.450981%);fill-opacity:1;" d="M 42.75 22.5 C 43.574219 22.5 44.398438 22.5 45.25 22.5 C 45.332031 22.914062 45.414062 23.324219 45.5 23.75 C 43.640625 23.824219 43.640625 23.824219 42.75 23.25 C 42.75 23.003906 42.75 22.753906 42.75 22.5 Z M 42.75 22.5 "/>
<path style=" stroke:none;fill-rule:nonzero;fill:rgb(85.09804%,33.333334%,36.862746%);fill-opacity:1;" d="M 42.25 41 C 42.414062 41.082031 42.578125 41.164062 42.75 41.25 C 42.007812 41.992188 41.265625 42.734375 40.5 43.5 C 40.5 42.75 40.5 42.75 41.09375 42.109375 C 41.308594 41.90625 41.527344 41.707031 41.75 41.5 C 41.914062 41.335938 42.078125 41.171875 42.25 41 Z M 42.25 41 "/>
<path style=" stroke:none;fill-rule:nonzero;fill:rgb(76.078433%,76.862746%,77.64706%);fill-opacity:1;" d="M 8 18.75 C 8.164062 18.832031 8.328125 18.914062 8.5 19 C 7.839844 19.660156 7.179688 20.320312 6.5 21 C 6.5 20.25 6.5 20.25 7.109375 19.59375 C 7.320312 19.398438 7.53125 19.203125 7.75 19 C 7.832031 18.917969 7.914062 18.835938 8 18.75 Z M 8 18.75 "/>
</g>
</svg>
