<?xml version="1.0" encoding="UTF-8"?>
<svg xmlns="http://www.w3.org/2000/svg" xmlns:xlink="http://www.w3.org/1999/xlink" width="64" height="64" viewBox="0 0 64 64" version="1.1">
<g id="surface1">
<path style=" stroke:none;fill-rule:nonzero;fill:rgb(77.254903%,92.54902%,94.117647%);fill-opacity:1;" d="M 22 0 C 22.558594 -0.09375 22.558594 -0.09375 23.273438 -0.0976562 C 23.546875 -0.101562 23.816406 -0.105469 24.09375 -0.109375 C 24.539062 -0.105469 24.539062 -0.105469 24.992188 -0.105469 C 25.460938 -0.109375 25.460938 -0.109375 25.941406 -0.113281 C 26.796875 -0.117188 27.65625 -0.117188 28.511719 -0.117188 C 29.230469 -0.117188 29.945312 -0.121094 30.664062 -0.121094 C 32.351562 -0.125 34.042969 -0.128906 35.734375 -0.125 C 37.476562 -0.121094 39.21875 -0.128906 40.960938 -0.136719 C 42.460938 -0.148438 43.953125 -0.148438 45.453125 -0.148438 C 46.347656 -0.148438 47.238281 -0.148438 48.136719 -0.15625 C 49.132812 -0.164062 50.128906 -0.15625 51.128906 -0.15625 C 51.421875 -0.15625 51.71875 -0.160156 52.023438 -0.164062 C 54.253906 -0.140625 54.253906 -0.140625 55.179688 0.601562 C 55.875 1.390625 56.03125 1.734375 56.035156 2.753906 C 56.035156 2.960938 56.039062 3.175781 56.039062 3.390625 C 56.039062 3.625 56.039062 3.859375 56.039062 4.097656 C 56.039062 4.46875 56.039062 4.46875 56.042969 4.84375 C 56.046875 5.675781 56.046875 6.503906 56.046875 7.335938 C 56.050781 7.929688 56.050781 8.523438 56.054688 9.117188 C 56.058594 10.902344 56.066406 12.6875 56.066406 14.476562 C 56.066406 14.976562 56.070312 15.484375 56.070312 15.988281 C 56.078125 19.117188 56.082031 22.246094 56.085938 25.378906 C 56.085938 26.101562 56.085938 26.828125 56.085938 27.550781 C 56.085938 27.734375 56.085938 27.914062 56.085938 28.101562 C 56.09375 31.019531 56.101562 33.941406 56.109375 36.859375 C 56.121094 39.859375 56.128906 42.855469 56.128906 45.851562 C 56.128906 47.535156 56.132812 49.21875 56.140625 50.902344 C 56.148438 52.484375 56.148438 54.070312 56.144531 55.652344 C 56.144531 56.234375 56.148438 56.816406 56.152344 57.398438 C 56.15625 58.191406 56.15625 58.984375 56.152344 59.773438 C 56.15625 60.007812 56.160156 60.238281 56.164062 60.476562 C 56.148438 61.558594 56.09375 62.277344 55.398438 63.140625 C 54.398438 64.082031 53.871094 64.03125 52.511719 64.039062 C 52.328125 64.039062 52.148438 64.039062 51.960938 64.042969 C 51.351562 64.046875 50.742188 64.046875 50.132812 64.046875 C 49.695312 64.050781 49.261719 64.050781 48.824219 64.054688 C 47.390625 64.058594 45.953125 64.066406 44.519531 64.066406 C 44.023438 64.070312 43.53125 64.070312 43.039062 64.074219 C 40.984375 64.078125 38.933594 64.082031 36.878906 64.085938 C 33.9375 64.089844 30.992188 64.097656 28.050781 64.113281 C 25.980469 64.121094 23.914062 64.128906 21.84375 64.128906 C 20.609375 64.128906 19.371094 64.132812 18.136719 64.140625 C 16.972656 64.148438 15.808594 64.148438 14.644531 64.144531 C 14.21875 64.144531 13.792969 64.148438 13.363281 64.152344 C 12.78125 64.15625 12.199219 64.15625 11.617188 64.152344 C 11.128906 64.152344 11.128906 64.152344 10.628906 64.15625 C 9.476562 63.953125 9.074219 63.570312 8.25 62.75 C 7.878906 62.007812 7.960938 61.25 7.957031 60.4375 C 7.957031 60.246094 7.953125 60.058594 7.953125 59.863281 C 7.949219 59.226562 7.949219 58.589844 7.945312 57.953125 C 7.941406 57.496094 7.9375 57.042969 7.933594 56.585938 C 7.925781 55.085938 7.921875 53.589844 7.914062 52.089844 C 7.914062 51.835938 7.914062 51.578125 7.910156 51.316406 C 7.902344 48.914062 7.894531 46.511719 7.890625 44.109375 C 7.882812 41.039062 7.871094 37.960938 7.847656 34.886719 C 7.835938 32.726562 7.828125 30.566406 7.824219 28.40625 C 7.824219 27.113281 7.820312 25.824219 7.808594 24.53125 C 7.796875 23.316406 7.796875 22.101562 7.796875 20.886719 C 7.796875 20.441406 7.796875 19.996094 7.789062 19.550781 C 7.742188 16.183594 7.742188 16.183594 8.375 15.117188 C 8.808594 14.679688 9.242188 14.351562 9.75 14 C 10.023438 13.710938 10.289062 13.414062 10.546875 13.109375 C 10.691406 12.941406 10.835938 12.773438 10.984375 12.601562 C 11.378906 12.140625 11.777344 11.675781 12.171875 11.210938 C 13.570312 9.566406 14.988281 7.949219 16.460938 6.371094 C 17.261719 5.507812 18.046875 4.636719 18.816406 3.746094 C 19.539062 2.917969 20.28125 2.109375 21.019531 1.300781 C 21.53125 0.738281 21.53125 0.738281 22 0 Z M 22 0 "/>
<path style=" stroke:none;fill-rule:nonzero;fill:rgb(17.647059%,26.274511%,33.725491%);fill-opacity:1;" d="M 22 0 C 22.558594 -0.09375 22.558594 -0.09375 23.273438 -0.0976562 C 23.546875 -0.101562 23.816406 -0.105469 24.09375 -0.109375 C 24.539062 -0.105469 24.539062 -0.105469 24.992188 -0.105469 C 25.460938 -0.109375 25.460938 -0.109375 25.941406 -0.113281 C 26.796875 -0.117188 27.65625 -0.117188 28.511719 -0.117188 C 29.230469 -0.117188 29.945312 -0.121094 30.664062 -0.121094 C 32.351562 -0.125 34.042969 -0.128906 35.734375 -0.125 C 37.476562 -0.121094 39.21875 -0.128906 40.960938 -0.136719 C 42.460938 -0.148438 43.953125 -0.148438 45.453125 -0.148438 C 46.347656 -0.148438 47.238281 -0.148438 48.136719 -0.15625 C 49.132812 -0.164062 50.128906 -0.15625 51.128906 -0.15625 C 51.421875 -0.15625 51.71875 -0.160156 52.023438 -0.164062 C 54.253906 -0.140625 54.253906 -0.140625 55.179688 0.601562 C 55.875 1.390625 56.03125 1.734375 56.035156 2.753906 C 56.035156 2.960938 56.039062 3.175781 56.039062 3.390625 C 56.039062 3.625 56.039062 3.859375 56.039062 4.097656 C 56.039062 4.46875 56.039062 4.46875 56.042969 4.84375 C 56.046875 5.675781 56.046875 6.503906 56.046875 7.335938 C 56.050781 7.929688 56.050781 8.523438 56.054688 9.117188 C 56.058594 10.902344 56.066406 12.6875 56.066406 14.476562 C 56.066406 14.976562 56.070312 15.484375 56.070312 15.988281 C 56.078125 19.117188 56.082031 22.246094 56.085938 25.378906 C 56.085938 26.101562 56.085938 26.828125 56.085938 27.550781 C 56.085938 27.734375 56.085938 27.914062 56.085938 28.101562 C 56.09375 31.019531 56.101562 33.941406 56.109375 36.859375 C 56.121094 39.859375 56.128906 42.855469 56.128906 45.851562 C 56.128906 47.535156 56.132812 49.21875 56.140625 50.902344 C 56.148438 52.484375 56.148438 54.070312 56.144531 55.652344 C 56.144531 56.234375 56.148438 56.816406 56.152344 57.398438 C 56.15625 58.191406 56.15625 58.984375 56.152344 59.773438 C 56.15625 60.007812 56.160156 60.238281 56.164062 60.476562 C 56.148438 61.558594 56.09375 62.277344 55.398438 63.140625 C 54.398438 64.082031 53.871094 64.03125 52.511719 64.039062 C 52.328125 64.039062 52.148438 64.039062 51.960938 64.042969 C 51.351562 64.046875 50.742188 64.046875 50.132812 64.046875 C 49.695312 64.050781 49.261719 64.050781 48.824219 64.054688 C 47.390625 64.058594 45.953125 64.066406 44.519531 64.066406 C 44.023438 64.070312 43.53125 64.070312 43.039062 64.074219 C 40.984375 64.078125 38.933594 64.082031 36.878906 64.085938 C 33.9375 64.089844 30.992188 64.097656 28.050781 64.113281 C 25.980469 64.121094 23.914062 64.128906 21.84375 64.128906 C 20.609375 64.128906 19.371094 64.132812 18.136719 64.140625 C 16.972656 64.148438 15.808594 64.148438 14.644531 64.144531 C 14.21875 64.144531 13.792969 64.148438 13.363281 64.152344 C 12.78125 64.15625 12.199219 64.15625 11.617188 64.152344 C 11.128906 64.152344 11.128906 64.152344 10.628906 64.15625 C 9.476562 63.953125 9.074219 63.570312 8.25 62.75 C 7.878906 62.007812 7.960938 61.25 7.957031 60.4375 C 7.957031 60.246094 7.953125 60.058594 7.953125 59.863281 C 7.949219 59.226562 7.949219 58.589844 7.945312 57.953125 C 7.941406 57.496094 7.9375 57.042969 7.933594 56.585938 C 7.925781 55.085938 7.921875 53.589844 7.914062 52.089844 C 7.914062 51.835938 7.914062 51.578125 7.910156 51.316406 C 7.902344 48.914062 7.894531 46.511719 7.890625 44.109375 C 7.882812 41.039062 7.871094 37.960938 7.847656 34.886719 C 7.835938 32.726562 7.828125 30.566406 7.824219 28.40625 C 7.824219 27.113281 7.820312 25.824219 7.808594 24.53125 C 7.796875 23.316406 7.796875 22.101562 7.796875 20.886719 C 7.796875 20.441406 7.796875 19.996094 7.789062 19.550781 C 7.742188 16.183594 7.742188 16.183594 8.375 15.117188 C 8.808594 14.679688 9.242188 14.351562 9.75 14 C 10.023438 13.710938 10.289062 13.414062 10.546875 13.109375 C 10.691406 12.941406 10.835938 12.773438 10.984375 12.601562 C 11.378906 12.140625 11.777344 11.675781 12.171875 11.210938 C 13.570312 9.566406 14.988281 7.949219 16.460938 6.371094 C 17.261719 5.507812 18.046875 4.636719 18.816406 3.746094 C 19.539062 2.917969 20.28125 2.109375 21.019531 1.300781 C 21.53125 0.738281 21.53125 0.738281 22 0 Z M 24 2 C 23.996094 2.164062 23.996094 2.332031 23.996094 2.503906 C 23.980469 4.230469 23.957031 5.957031 23.933594 7.683594 C 23.925781 8.328125 23.921875 8.976562 23.914062 9.621094 C 23.90625 10.546875 23.890625 11.472656 23.878906 12.398438 C 23.875 12.832031 23.875 12.832031 23.871094 13.273438 C 23.824219 15.921875 23.824219 15.921875 23 17 C 21.71875 17.9375 20.363281 17.867188 18.835938 17.878906 C 18.457031 17.886719 18.457031 17.886719 18.070312 17.890625 C 17.265625 17.90625 16.460938 17.914062 15.65625 17.921875 C 15.109375 17.929688 14.5625 17.941406 14.015625 17.949219 C 12.675781 17.96875 11.335938 17.984375 10 18 C 9.988281 23.664062 9.980469 29.324219 9.976562 34.988281 C 9.972656 37.617188 9.96875 40.246094 9.960938 42.878906 C 9.957031 45.167969 9.953125 47.460938 9.953125 49.75 C 9.953125 50.960938 9.949219 52.175781 9.949219 53.390625 C 9.945312 54.53125 9.941406 55.671875 9.941406 56.816406 C 9.941406 57.234375 9.941406 57.65625 9.941406 58.074219 C 9.9375 58.644531 9.9375 59.21875 9.941406 59.789062 C 9.941406 60.109375 9.941406 60.429688 9.9375 60.761719 C 9.921875 61.53125 9.921875 61.53125 10.5 62 C 11.265625 62.078125 11.265625 62.078125 12.191406 62.0625 C 12.453125 62.066406 12.453125 62.066406 12.722656 62.066406 C 13.3125 62.066406 13.90625 62.066406 14.496094 62.066406 C 14.921875 62.066406 15.34375 62.066406 15.765625 62.066406 C 16.914062 62.070312 18.066406 62.066406 19.21875 62.066406 C 20.421875 62.066406 21.621094 62.066406 22.824219 62.066406 C 24.84375 62.070312 26.863281 62.066406 28.882812 62.066406 C 31.21875 62.0625 33.554688 62.0625 35.890625 62.066406 C 37.898438 62.066406 39.898438 62.066406 41.90625 62.066406 C 43.101562 62.066406 44.300781 62.066406 45.5 62.066406 C 46.625 62.070312 47.75 62.066406 48.878906 62.066406 C 49.292969 62.066406 49.703125 62.066406 50.121094 62.066406 C 50.683594 62.066406 51.246094 62.066406 51.808594 62.0625 C 52.128906 62.0625 52.441406 62.0625 52.765625 62.0625 C 53.53125 62.078125 53.53125 62.078125 54 61.5 C 54.050781 60.726562 54.066406 59.976562 54.0625 59.203125 C 54.066406 58.960938 54.066406 58.722656 54.066406 58.472656 C 54.066406 57.660156 54.066406 56.847656 54.066406 56.035156 C 54.066406 55.453125 54.066406 54.875 54.066406 54.292969 C 54.070312 52.710938 54.066406 51.132812 54.066406 49.550781 C 54.066406 48.066406 54.066406 46.585938 54.066406 45.101562 C 54.070312 41.984375 54.066406 38.867188 54.066406 35.75 C 54.0625 33.074219 54.0625 30.394531 54.066406 27.71875 C 54.066406 24.613281 54.070312 21.503906 54.066406 18.398438 C 54.066406 16.753906 54.066406 15.109375 54.066406 13.464844 C 54.070312 11.917969 54.066406 10.371094 54.066406 8.824219 C 54.066406 8.253906 54.066406 7.6875 54.066406 7.117188 C 54.066406 6.34375 54.066406 5.570312 54.0625 4.796875 C 54.066406 4.570312 54.066406 4.339844 54.066406 4.109375 C 54.117188 2.933594 54.117188 2.933594 53.5 2 C 52.957031 1.925781 52.957031 1.925781 52.320312 1.941406 C 51.949219 1.941406 51.949219 1.941406 51.566406 1.9375 C 51.15625 1.941406 51.15625 1.941406 50.734375 1.941406 C 50.300781 1.941406 50.300781 1.941406 49.863281 1.941406 C 48.90625 1.941406 47.953125 1.949219 46.996094 1.949219 C 46.335938 1.953125 45.675781 1.953125 45.015625 1.953125 C 43.453125 1.953125 41.890625 1.960938 40.324219 1.964844 C 38.546875 1.96875 36.765625 1.972656 34.984375 1.976562 C 31.324219 1.980469 27.664062 1.988281 24 2 Z M 24 2 "/>
<path style=" stroke:none;fill-rule:nonzero;fill:rgb(17.647059%,26.274511%,33.725491%);fill-opacity:1;" d="M 19.242188 48.347656 C 19.542969 48.34375 19.847656 48.34375 20.160156 48.339844 C 20.988281 48.339844 21.816406 48.34375 22.644531 48.347656 C 23.511719 48.355469 24.382812 48.351562 25.25 48.351562 C 26.710938 48.351562 28.167969 48.355469 29.628906 48.363281 C 31.3125 48.375 32.996094 48.375 34.679688 48.375 C 36.304688 48.375 37.925781 48.375 39.546875 48.382812 C 40.238281 48.382812 40.929688 48.382812 41.617188 48.382812 C 42.582031 48.382812 43.546875 48.390625 44.507812 48.394531 C 44.796875 48.394531 45.082031 48.394531 45.375 48.394531 C 45.769531 48.394531 45.769531 48.394531 46.171875 48.402344 C 46.398438 48.402344 46.628906 48.402344 46.859375 48.402344 C 47.636719 48.519531 48.117188 48.792969 48.75 49.25 C 49.214844 50.183594 49.058594 51.300781 49.0625 52.328125 C 49.070312 52.683594 49.070312 52.683594 49.078125 53.046875 C 49.089844 55.296875 49.089844 55.296875 48.25 56.25 C 47.503906 56.5 47.011719 56.535156 46.230469 56.535156 C 45.96875 56.535156 45.707031 56.539062 45.4375 56.539062 C 45.144531 56.539062 44.859375 56.542969 44.5625 56.542969 C 44.109375 56.542969 44.109375 56.542969 43.644531 56.542969 C 42.8125 56.546875 41.976562 56.546875 41.144531 56.550781 C 40.625 56.550781 40.105469 56.550781 39.589844 56.554688 C 37.960938 56.554688 36.332031 56.558594 34.707031 56.558594 C 32.832031 56.5625 30.953125 56.566406 29.074219 56.574219 C 27.625 56.578125 26.171875 56.582031 24.722656 56.582031 C 23.851562 56.582031 22.988281 56.582031 22.121094 56.585938 C 21.152344 56.589844 20.1875 56.589844 19.222656 56.589844 C 18.933594 56.589844 18.644531 56.59375 18.347656 56.597656 C 17.953125 56.59375 17.953125 56.59375 17.550781 56.589844 C 17.324219 56.589844 17.097656 56.59375 16.859375 56.59375 C 16.125 56.480469 15.785156 56.261719 15.25 55.75 C 14.878906 54.644531 14.921875 53.5625 14.90625 52.40625 C 14.894531 52.167969 14.886719 51.933594 14.878906 51.6875 C 14.875 51.460938 14.875 51.230469 14.867188 50.992188 C 14.863281 50.785156 14.859375 50.578125 14.851562 50.359375 C 15.019531 49.667969 15.277344 49.257812 15.792969 48.765625 C 16.816406 48.167969 18.089844 48.332031 19.242188 48.347656 Z M 19.242188 48.347656 "/>
<path style=" stroke:none;fill-rule:nonzero;fill:rgb(17.647059%,26.274511%,33.725491%);fill-opacity:1;" d="M 19.242188 24.347656 C 19.542969 24.34375 19.847656 24.34375 20.160156 24.339844 C 20.988281 24.339844 21.816406 24.34375 22.644531 24.347656 C 23.511719 24.355469 24.382812 24.351562 25.25 24.351562 C 26.710938 24.351562 28.167969 24.355469 29.628906 24.363281 C 31.3125 24.375 32.996094 24.375 34.679688 24.375 C 36.304688 24.375 37.925781 24.375 39.546875 24.382812 C 40.238281 24.382812 40.929688 24.382812 41.617188 24.382812 C 42.582031 24.382812 43.546875 24.390625 44.507812 24.394531 C 44.796875 24.394531 45.082031 24.394531 45.375 24.394531 C 45.769531 24.394531 45.769531 24.394531 46.171875 24.402344 C 46.398438 24.402344 46.628906 24.402344 46.859375 24.402344 C 47.636719 24.519531 48.117188 24.792969 48.75 25.25 C 49.214844 26.183594 49.058594 27.300781 49.0625 28.328125 C 49.070312 28.683594 49.070312 28.683594 49.078125 29.046875 C 49.089844 31.363281 49.089844 31.363281 48.25 32.25 C 47.839844 32.332031 47.425781 32.417969 47 32.5 C 47 30.519531 47 28.542969 47 26.5 C 45.472656 26.507812 43.941406 26.519531 42.410156 26.539062 C 41.890625 26.542969 41.371094 26.546875 40.851562 26.546875 C 40.101562 26.550781 39.351562 26.5625 38.601562 26.574219 C 38.371094 26.570312 38.140625 26.570312 37.902344 26.570312 C 36.324219 26.605469 35.207031 26.953125 34 28 C 33.265625 29.109375 33.222656 29.902344 33.359375 31.1875 C 33.398438 31.554688 33.398438 31.554688 33.4375 31.933594 C 33.457031 32.117188 33.476562 32.304688 33.5 32.5 C 31.269531 32.515625 29.035156 32.53125 26.804688 32.539062 C 25.769531 32.542969 24.730469 32.546875 23.695312 32.554688 C 22.695312 32.5625 21.695312 32.570312 20.695312 32.570312 C 20.3125 32.574219 19.929688 32.578125 19.550781 32.578125 C 19.015625 32.582031 18.480469 32.585938 17.949219 32.585938 C 17.492188 32.589844 17.492188 32.589844 17.027344 32.589844 C 16.179688 32.492188 15.839844 32.351562 15.25 31.75 C 14.878906 30.644531 14.921875 29.5625 14.90625 28.40625 C 14.894531 28.167969 14.886719 27.933594 14.878906 27.6875 C 14.875 27.460938 14.875 27.230469 14.867188 26.992188 C 14.863281 26.785156 14.859375 26.578125 14.851562 26.359375 C 15.019531 25.667969 15.277344 25.257812 15.792969 24.765625 C 16.816406 24.167969 18.089844 24.332031 19.242188 24.347656 Z M 19.242188 24.347656 "/>
<path style=" stroke:none;fill-rule:nonzero;fill:rgb(17.647059%,26.274511%,33.725491%);fill-opacity:1;" d="M 18.113281 36.359375 C 18.296875 36.359375 18.476562 36.359375 18.667969 36.359375 C 19.269531 36.359375 19.871094 36.367188 20.472656 36.378906 C 20.894531 36.378906 21.3125 36.382812 21.730469 36.382812 C 22.828125 36.386719 23.929688 36.402344 25.027344 36.414062 C 26.152344 36.429688 27.273438 36.433594 28.394531 36.4375 C 30.597656 36.453125 32.796875 36.472656 35 36.5 C 35.25 37.160156 35.496094 37.820312 35.75 38.5 C 29.5625 38.5 23.375 38.5 17 38.5 C 17 39.820312 17 41.140625 17 42.5 C 26.902344 42.5 36.800781 42.5 47 42.5 C 47 41.179688 47 39.859375 47 38.5 C 46.753906 38.375 46.753906 38.375 46.5 38.25 C 46.832031 37.753906 47.160156 37.261719 47.5 36.75 C 47.96875 36.828125 47.96875 36.828125 48.5 37 C 49.226562 38.089844 49.082031 39.066406 49.078125 40.34375 C 49.082031 40.582031 49.085938 40.816406 49.089844 41.0625 C 49.09375 43.289062 49.09375 43.289062 48.25 44.25 C 47.503906 44.5 47.011719 44.53125 46.230469 44.535156 C 45.96875 44.535156 45.707031 44.539062 45.4375 44.539062 C 45.144531 44.539062 44.859375 44.539062 44.5625 44.539062 C 44.109375 44.542969 44.109375 44.542969 43.644531 44.542969 C 42.8125 44.546875 41.976562 44.546875 41.144531 44.550781 C 40.625 44.550781 40.109375 44.550781 39.589844 44.554688 C 37.960938 44.554688 36.335938 44.558594 34.707031 44.5625 C 32.832031 44.5625 30.953125 44.566406 29.074219 44.574219 C 27.625 44.578125 26.171875 44.582031 24.71875 44.582031 C 23.851562 44.582031 22.988281 44.582031 22.121094 44.589844 C 21.152344 44.589844 20.1875 44.589844 19.21875 44.589844 C 18.933594 44.589844 18.644531 44.59375 18.347656 44.59375 C 17.957031 44.59375 17.957031 44.59375 17.550781 44.59375 C 17.324219 44.59375 17.09375 44.59375 16.859375 44.59375 C 16.125 44.480469 15.785156 44.261719 15.25 43.75 C 14.878906 42.644531 14.921875 41.566406 14.90625 40.40625 C 14.898438 40.171875 14.886719 39.933594 14.878906 39.691406 C 14.875 39.460938 14.875 39.230469 14.867188 38.992188 C 14.863281 38.785156 14.859375 38.578125 14.851562 38.363281 C 15.257812 36.671875 16.5625 36.316406 18.113281 36.359375 Z M 18.113281 36.359375 "/>
<path style=" stroke:none;fill-rule:nonzero;fill:rgb(57.647061%,52.941179%,63.529414%);fill-opacity:1;" d="M 17 50.5 C 26.898438 50.5 36.800781 50.5 47 50.5 C 47 51.820312 47 53.140625 47 54.5 C 37.101562 54.5 27.199219 54.5 17 54.5 C 17 53.179688 17 51.859375 17 50.5 Z M 17 50.5 "/>
<path style=" stroke:none;fill-rule:nonzero;fill:rgb(99.607843%,85.882354%,50.196081%);fill-opacity:1;" d="M 17 38.5 C 19.449219 38.472656 21.894531 38.449219 24.339844 38.433594 C 25.476562 38.425781 26.613281 38.421875 27.75 38.40625 C 28.847656 38.390625 29.945312 38.386719 31.042969 38.382812 C 31.460938 38.378906 31.878906 38.375 32.296875 38.367188 C 32.882812 38.359375 33.46875 38.359375 34.058594 38.359375 C 34.226562 38.351562 34.398438 38.351562 34.578125 38.34375 C 35.800781 38.359375 36.453125 38.714844 37.363281 39.472656 C 37.960938 39.898438 38.457031 39.859375 39.171875 39.796875 C 40.148438 39.722656 40.640625 39.785156 41.5 40.25 C 42.542969 40.457031 43.414062 40.425781 44.363281 39.921875 C 44.746094 39.660156 45.121094 39.386719 45.488281 39.101562 C 46 38.75 46 38.75 47 38.5 C 47 39.820312 47 41.140625 47 42.5 C 37.101562 42.5 27.199219 42.5 17 42.5 C 17 41.179688 17 39.859375 17 38.5 Z M 17 38.5 "/>
<path style=" stroke:none;fill-rule:nonzero;fill:rgb(19.215687%,27.843139%,35.294119%);fill-opacity:1;" d="M 38.660156 28.601562 C 39.414062 28.742188 40.15625 28.902344 40.90625 29.0625 C 41.164062 29.113281 41.417969 29.164062 41.679688 29.21875 C 44.164062 29.75 44.164062 29.75 45 30.75 C 45.089844 31.359375 45.089844 31.359375 45.015625 32 C 44.921875 33.011719 44.921875 33.011719 45.5 33.8125 C 45.664062 33.957031 45.832031 34.101562 46 34.25 C 46.171875 34.9375 46.171875 34.9375 46 35.75 C 45.246094 36.832031 44.351562 37.769531 43.25 38.5 C 42.214844 38.65625 41.816406 38.539062 40.90625 38 C 40.691406 37.835938 40.472656 37.671875 40.25 37.5 C 40.003906 37.664062 39.753906 37.832031 39.5 38 C 37.96875 37.917969 37.96875 37.917969 37.351562 37.441406 C 36.609375 36.507812 36.332031 35.289062 35.953125 34.171875 C 35.859375 33.914062 35.769531 33.65625 35.675781 33.386719 C 35.589844 33.136719 35.5 32.886719 35.410156 32.628906 C 35.332031 32.402344 35.253906 32.171875 35.171875 31.9375 C 34.980469 31.171875 34.933594 30.535156 35 29.75 C 36.046875 28.289062 37.03125 28.347656 38.660156 28.601562 Z M 38.660156 28.601562 "/>
<path style=" stroke:none;fill-rule:nonzero;fill:rgb(98.431373%,47.058824%,36.862746%);fill-opacity:1;" d="M 17 26.5 C 23.269531 26.5 29.539062 26.5 36 26.5 C 35.464844 26.902344 34.925781 27.296875 34.359375 27.65625 C 33.511719 28.390625 33.511719 28.390625 33 30.5 C 27.71875 30.5 22.441406 30.5 17 30.5 C 17 29.179688 17 27.859375 17 26.5 Z M 17 26.5 "/>
<path style=" stroke:none;fill-rule:nonzero;fill:rgb(87.843138%,91.764706%,95.294118%);fill-opacity:1;" d="M 21.75 3.75 C 21.832031 3.75 21.914062 3.75 22 3.75 C 22.011719 5.414062 22.023438 7.078125 22.027344 8.742188 C 22.03125 9.308594 22.03125 9.875 22.039062 10.441406 C 22.046875 11.253906 22.046875 12.066406 22.050781 12.878906 C 22.050781 13.136719 22.054688 13.390625 22.058594 13.652344 C 22.058594 14.003906 22.058594 14.003906 22.058594 14.363281 C 22.058594 14.574219 22.058594 14.78125 22.058594 14.996094 C 22 15.5 22 15.5 21.5 16 C 20.726562 16.046875 19.980469 16.058594 19.210938 16.050781 C 18.871094 16.046875 18.871094 16.046875 18.523438 16.046875 C 17.796875 16.046875 17.070312 16.039062 16.34375 16.03125 C 15.851562 16.027344 15.359375 16.027344 14.871094 16.023438 C 13.664062 16.019531 12.457031 16.011719 11.25 16 C 11.484375 15.683594 11.71875 15.367188 11.953125 15.050781 C 12.085938 14.875 12.21875 14.699219 12.351562 14.515625 C 12.925781 13.773438 13.558594 13.101562 14.203125 12.421875 C 15.132812 11.433594 16.023438 10.433594 16.875 9.375 C 17.859375 8.148438 18.90625 6.996094 19.984375 5.851562 C 20.613281 5.175781 21.195312 4.492188 21.75 3.75 Z M 21.75 3.75 "/>
<path style=" stroke:none;fill-rule:nonzero;fill:rgb(63.529414%,76.862746%,78.039217%);fill-opacity:1;" d="M 10 60.5 C 10.246094 60.625 10.246094 60.625 10.5 60.75 C 11.0625 60.773438 11.625 60.78125 12.191406 60.78125 C 12.453125 60.78125 12.453125 60.78125 12.722656 60.78125 C 13.3125 60.785156 13.90625 60.78125 14.496094 60.78125 C 14.921875 60.78125 15.34375 60.78125 15.765625 60.78125 C 16.914062 60.785156 18.066406 60.785156 19.21875 60.78125 C 20.421875 60.78125 21.621094 60.78125 22.824219 60.785156 C 24.84375 60.785156 26.863281 60.785156 28.882812 60.78125 C 31.21875 60.78125 33.554688 60.78125 35.890625 60.78125 C 37.898438 60.785156 39.898438 60.785156 41.90625 60.78125 C 43.101562 60.78125 44.300781 60.78125 45.5 60.785156 C 46.625 60.785156 47.75 60.785156 48.878906 60.78125 C 49.292969 60.78125 49.703125 60.78125 50.121094 60.78125 C 50.683594 60.785156 51.246094 60.78125 51.808594 60.78125 C 52.128906 60.78125 52.441406 60.78125 52.765625 60.78125 C 53.484375 60.800781 53.484375 60.800781 54 60.5 C 53.78125 61.71875 53.78125 61.71875 53.5 62 C 52.949219 62.023438 52.394531 62.03125 51.839844 62.03125 C 51.578125 62.035156 51.578125 62.035156 51.308594 62.035156 C 50.71875 62.039062 50.125 62.039062 49.53125 62.039062 C 49.109375 62.039062 48.6875 62.039062 48.261719 62.039062 C 47.113281 62.039062 45.960938 62.042969 44.808594 62.042969 C 43.847656 62.042969 42.886719 62.042969 41.925781 62.046875 C 39.664062 62.046875 37.398438 62.046875 35.136719 62.046875 C 32.796875 62.046875 30.460938 62.050781 28.121094 62.050781 C 26.113281 62.054688 24.109375 62.058594 22.105469 62.058594 C 20.90625 62.058594 19.707031 62.058594 18.507812 62.058594 C 17.382812 62.0625 16.253906 62.0625 15.128906 62.058594 C 14.710938 62.058594 14.296875 62.0625 13.882812 62.0625 C 13.320312 62.066406 12.753906 62.0625 12.191406 62.0625 C 11.875 62.0625 11.558594 62.0625 11.234375 62.0625 C 10.5 62 10.5 62 10 61.5 C 10 61.171875 10 60.839844 10 60.5 Z M 10 60.5 "/>
<path style=" stroke:none;fill-rule:nonzero;fill:rgb(47.450981%,43.921569%,52.156866%);fill-opacity:1;" d="M 17 53.5 C 26.898438 53.5 36.800781 53.5 47 53.5 C 47 53.828125 47 54.160156 47 54.5 C 37.101562 54.5 27.199219 54.5 17 54.5 C 17 54.171875 17 53.839844 17 53.5 Z M 17 53.5 "/>
<path style=" stroke:none;fill-rule:nonzero;fill:rgb(63.529414%,58.431375%,69.803923%);fill-opacity:1;" d="M 17 50.5 C 26.898438 50.5 36.800781 50.5 47 50.5 C 47 50.828125 47 51.160156 47 51.5 C 37.101562 51.5 27.199219 51.5 17 51.5 C 17 51.171875 17 50.839844 17 50.5 Z M 17 50.5 "/>
<path style=" stroke:none;fill-rule:nonzero;fill:rgb(85.490197%,72.941178%,43.137255%);fill-opacity:1;" d="M 17 41.5 C 26.898438 41.5 36.800781 41.5 47 41.5 C 47 41.828125 47 42.160156 47 42.5 C 37.101562 42.5 27.199219 42.5 17 42.5 C 17 42.171875 17 41.839844 17 41.5 Z M 17 41.5 "/>
<path style=" stroke:none;fill-rule:nonzero;fill:rgb(85.490197%,89.803922%,93.333334%);fill-opacity:1;" d="M 37 30.5 C 39.015625 30.773438 41.011719 31.070312 43 31.5 C 43 31.664062 43 31.828125 43 32 C 42.503906 32.246094 42.011719 32.496094 41.5 32.75 C 42.324219 33.492188 43.148438 34.234375 44 35 C 43.585938 35.496094 43.175781 35.988281 42.75 36.5 C 41.589844 35.847656 40.550781 35.058594 39.5 34.25 C 39.46875 34.449219 39.4375 34.652344 39.40625 34.859375 C 39.355469 35.070312 39.300781 35.28125 39.25 35.5 C 39.085938 35.582031 38.921875 35.664062 38.75 35.75 C 38.503906 35.109375 38.261719 34.46875 38.015625 33.828125 C 37.945312 33.648438 37.878906 33.46875 37.804688 33.28125 C 37.453125 32.359375 37.152344 31.480469 37 30.5 Z M 37 30.5 "/>
<path style=" stroke:none;fill-rule:nonzero;fill:rgb(98.431373%,89.411765%,66.274512%);fill-opacity:1;" d="M 17 38.5 C 19.460938 38.476562 21.921875 38.460938 24.378906 38.449219 C 25.523438 38.441406 26.664062 38.433594 27.808594 38.425781 C 28.910156 38.414062 30.011719 38.40625 31.113281 38.40625 C 31.535156 38.402344 31.953125 38.398438 32.375 38.394531 C 32.964844 38.386719 33.550781 38.386719 34.140625 38.386719 C 34.402344 38.378906 34.402344 38.378906 34.671875 38.375 C 35.941406 38.386719 36.015625 38.515625 37 39.5 C 30.398438 39.5 23.800781 39.5 17 39.5 C 17 39.171875 17 38.839844 17 38.5 Z M 17 38.5 "/>
<path style=" stroke:none;fill-rule:nonzero;fill:rgb(98.039216%,58.431375%,50.980395%);fill-opacity:1;" d="M 17 26.5 C 23.269531 26.5 29.539062 26.5 36 26.5 C 34.636719 27.519531 34.035156 27.816406 32.324219 27.785156 C 32.078125 27.78125 32.078125 27.78125 31.824219 27.777344 C 31.277344 27.765625 30.730469 27.753906 30.183594 27.746094 C 29.804688 27.738281 29.425781 27.734375 29.046875 27.726562 C 28.046875 27.707031 27.046875 27.691406 26.050781 27.667969 C 25.03125 27.648438 24.011719 27.628906 22.996094 27.613281 C 20.996094 27.578125 18.996094 27.539062 17 27.5 C 17 27.171875 17 26.839844 17 26.5 Z M 17 26.5 "/>
<path style=" stroke:none;fill-rule:nonzero;fill:rgb(81.960785%,38.431373%,30.980393%);fill-opacity:1;" d="M 17 29.5 C 22.28125 29.5 27.558594 29.5 33 29.5 C 33 29.828125 33 30.160156 33 30.5 C 27.71875 30.5 22.441406 30.5 17 30.5 C 17 30.171875 17 29.839844 17 29.5 Z M 17 29.5 "/>
<path style=" stroke:none;fill-rule:nonzero;fill:rgb(97.254902%,59.607846%,52.156866%);fill-opacity:1;" d="M 38 26.5 C 40.96875 26.5 43.941406 26.5 47 26.5 C 47 27.820312 47 29.140625 47 30.5 C 46.671875 30.085938 46.339844 29.675781 46 29.25 C 44.457031 27.792969 42.40625 27.609375 40.390625 27.21875 C 40.160156 27.171875 39.929688 27.128906 39.691406 27.078125 C 39.128906 26.96875 38.566406 26.859375 38 26.75 C 38 26.667969 38 26.585938 38 26.5 Z M 38 26.5 "/>
<path style=" stroke:none;fill-rule:nonzero;fill:rgb(74.901962%,78.039217%,80.784315%);fill-opacity:1;" d="M 21.75 14.5 C 21.90625 14.96875 21.90625 14.96875 22 15.5 C 21.5 16 21.5 16 20.503906 16.058594 C 20.070312 16.058594 19.640625 16.054688 19.210938 16.050781 C 18.871094 16.046875 18.871094 16.046875 18.523438 16.046875 C 17.796875 16.046875 17.070312 16.039062 16.34375 16.03125 C 15.851562 16.027344 15.359375 16.027344 14.871094 16.023438 C 13.664062 16.019531 12.457031 16.011719 11.25 16 C 11.488281 15.511719 11.488281 15.511719 12 15 C 12.742188 14.898438 13.398438 14.855469 14.140625 14.859375 C 14.351562 14.851562 14.558594 14.851562 14.777344 14.84375 C 15.445312 14.835938 16.113281 14.832031 16.78125 14.828125 C 17.453125 14.820312 18.121094 14.8125 18.792969 14.800781 C 19.207031 14.796875 19.625 14.792969 20.042969 14.789062 C 20.972656 14.871094 20.972656 14.871094 21.75 14.5 Z M 21.75 14.5 "/>
<path style=" stroke:none;fill-rule:nonzero;fill:rgb(97.647059%,49.019608%,39.215687%);fill-opacity:1;" d="M 43.5 27.5 C 44.65625 27.5 45.808594 27.5 47 27.5 C 47 28.488281 47 29.480469 47 30.5 C 46.859375 30.316406 46.722656 30.128906 46.578125 29.9375 C 45.683594 28.871094 44.820312 28.203125 43.5 27.75 C 43.5 27.667969 43.5 27.585938 43.5 27.5 Z M 43.5 27.5 "/>
</g>
</svg>
