<?xml version="1.0" encoding="UTF-8"?>
<svg xmlns="http://www.w3.org/2000/svg" xmlns:xlink="http://www.w3.org/1999/xlink" width="64" height="64" viewBox="0 0 64 64" version="1.1">
<g id="surface1">
<path style=" stroke:none;fill-rule:nonzero;fill:rgb(1.568628%,1.568628%,1.568628%);fill-opacity:1;" d="M 45.25 0 C 47.394531 0 49.539062 0 51.75 0 C 51.832031 0.90625 51.914062 1.816406 52 2.75 C 53.046875 2.421875 53.046875 2.421875 54.03125 1.953125 C 54.5 1.75 54.5 1.75 54.941406 1.773438 C 55.78125 2.113281 56.324219 2.746094 56.9375 3.390625 C 57.066406 3.519531 57.191406 3.648438 57.324219 3.785156 C 57.632812 4.105469 57.941406 4.425781 58.25 4.75 C 57.628906 6.359375 57.628906 6.359375 57 8 C 57.988281 8.082031 58.980469 8.164062 60 8.25 C 60 10.3125 60 12.375 60 14.5 C 59.09375 14.582031 58.183594 14.664062 57.25 14.75 C 57.425781 15.957031 57.425781 15.957031 57.921875 16.765625 C 58.25 17.5 58.25 17.5 58.078125 17.996094 C 57.726562 18.539062 57.351562 18.871094 56.859375 19.285156 C 55.964844 20.160156 55.792969 20.773438 55.761719 22.003906 C 55.765625 22.226562 55.769531 22.449219 55.773438 22.675781 C 55.769531 22.910156 55.765625 23.148438 55.765625 23.390625 C 55.757812 24.171875 55.761719 24.949219 55.765625 25.726562 C 55.765625 26.269531 55.765625 26.816406 55.761719 27.359375 C 55.761719 28.496094 55.761719 29.628906 55.773438 30.765625 C 55.78125 32.222656 55.773438 33.675781 55.765625 35.136719 C 55.761719 36.253906 55.761719 37.378906 55.765625 38.496094 C 55.765625 39.035156 55.765625 39.570312 55.761719 40.109375 C 55.757812 40.859375 55.765625 41.609375 55.773438 42.359375 C 55.769531 42.578125 55.765625 42.800781 55.761719 43.027344 C 55.785156 43.921875 55.800781 44.511719 56.386719 45.210938 C 56.847656 45.613281 56.847656 45.613281 57.328125 45.949219 C 57.886719 46.347656 58.210938 46.816406 58.578125 47.390625 C 58.695312 47.574219 58.8125 47.753906 58.933594 47.9375 C 59.492188 48.929688 59.75 49.597656 59.75 50.75 C 59.914062 50.761719 60.078125 50.769531 60.25 50.78125 C 61.664062 51.195312 62.859375 52.109375 63.625 53.375 C 64.316406 54.980469 64.289062 56.960938 63.824219 58.625 C 63.101562 60.234375 61.84375 61.175781 60.230469 61.847656 C 59.433594 62.101562 58.675781 62.082031 57.84375 62.074219 C 57.484375 62.078125 57.121094 62.078125 56.761719 62.082031 C 56.199219 62.078125 55.640625 62.078125 55.078125 62.070312 C 52.242188 61.996094 52.242188 61.996094 49.863281 63.402344 C 49.121094 64.109375 48.289062 64.03125 47.324219 64.039062 C 47.027344 64.039062 46.734375 64.039062 46.425781 64.042969 C 46.101562 64.042969 45.773438 64.042969 45.4375 64.046875 C 45.089844 64.046875 44.746094 64.046875 44.398438 64.050781 C 43.261719 64.054688 42.121094 64.058594 40.984375 64.058594 C 40.589844 64.058594 40.199219 64.0625 39.804688 64.0625 C 37.960938 64.066406 36.117188 64.070312 34.273438 64.074219 C 32.144531 64.074219 30.019531 64.082031 27.890625 64.09375 C 26.246094 64.101562 24.601562 64.101562 22.957031 64.105469 C 21.976562 64.105469 20.996094 64.109375 20.011719 64.113281 C 19.085938 64.121094 18.164062 64.121094 17.238281 64.117188 C 16.738281 64.117188 16.242188 64.121094 15.742188 64.128906 C 13.957031 64.117188 12.761719 63.984375 11.25 63 C 11.121094 62.867188 10.996094 62.734375 10.863281 62.597656 C 10.320312 62.078125 9.875 62.15625 9.136719 62.15625 C 8.734375 62.148438 8.734375 62.148438 8.324219 62.144531 C 7.761719 62.140625 7.195312 62.140625 6.632812 62.140625 C 4.710938 62.109375 2.988281 61.921875 1.53125 60.5625 C 0.0585938 58.96875 -0.113281 57.492188 -0.0742188 55.363281 C 0.0507812 53.933594 0.429688 53.042969 1.46875 52.054688 C 2.34375 51.355469 3.097656 50.824219 4.25 50.75 C 4.269531 50.546875 4.289062 50.335938 4.3125 50.125 C 4.707031 48.28125 5.664062 46.816406 7 45.5 C 7.171875 45.398438 7.339844 45.300781 7.515625 45.199219 C 8.066406 44.777344 8.066406 44.777344 8.121094 44.046875 C 8.121094 43.753906 8.121094 43.46875 8.121094 43.167969 C 8.121094 42.925781 8.121094 42.925781 8.125 42.679688 C 8.128906 42.140625 8.121094 41.601562 8.117188 41.058594 C 8.117188 40.671875 8.117188 40.285156 8.117188 39.898438 C 8.121094 39.0625 8.117188 38.226562 8.113281 37.390625 C 8.109375 36.074219 8.109375 34.753906 8.113281 33.433594 C 8.117188 30.15625 8.113281 26.878906 8.109375 23.601562 C 8.101562 21.058594 8.101562 18.511719 8.105469 15.964844 C 8.109375 14.652344 8.105469 13.339844 8.097656 12.03125 C 8.09375 11.210938 8.097656 10.398438 8.101562 9.578125 C 8.101562 9.203125 8.101562 8.824219 8.09375 8.445312 C 8.089844 7.925781 8.09375 7.414062 8.097656 6.894531 C 8.097656 6.605469 8.09375 6.316406 8.09375 6.015625 C 8.300781 4.996094 8.679688 4.628906 9.5 4 C 10.121094 3.847656 10.121094 3.847656 10.785156 3.851562 C 11.039062 3.851562 11.292969 3.851562 11.550781 3.851562 C 11.828125 3.855469 12.101562 3.863281 12.386719 3.867188 C 12.824219 3.867188 12.824219 3.867188 13.273438 3.867188 C 13.90625 3.871094 14.539062 3.875 15.171875 3.882812 C 16.175781 3.890625 17.179688 3.898438 18.183594 3.898438 C 20.859375 3.898438 23.53125 3.914062 26.203125 3.933594 C 27.960938 3.949219 29.71875 3.957031 31.476562 3.953125 C 32.308594 3.953125 33.140625 3.957031 33.976562 3.96875 C 34.90625 3.984375 35.835938 3.984375 36.765625 3.980469 C 37.039062 3.988281 37.3125 3.996094 37.59375 4 C 39.078125 3.988281 39.078125 3.988281 40.335938 3.28125 C 40.863281 2.734375 40.863281 2.734375 41.296875 2.15625 C 41.445312 2.023438 41.59375 1.886719 41.75 1.75 C 42.789062 1.816406 43.582031 2.28125 44.5 2.75 C 44.664062 2.75 44.828125 2.75 45 2.75 C 45.082031 1.84375 45.164062 0.933594 45.25 0 Z M 46.25 9.25 C 45.671875 10.097656 45.5 10.59375 45.5 11.625 C 45.8125 12.71875 46.210938 13.191406 47 14 C 47.800781 14.398438 48.628906 14.339844 49.5 14.25 C 50.367188 13.902344 50.683594 13.59375 51.21875 12.828125 C 51.566406 11.800781 51.609375 11.03125 51.25 10 C 50.664062 9.265625 50.664062 9.265625 50 8.75 C 49.917969 8.667969 49.835938 8.585938 49.75 8.5 C 48.429688 8.359375 47.285156 8.335938 46.25 9.25 Z M 46.25 9.25 "/>
<path style=" stroke:none;fill-rule:nonzero;fill:rgb(87.843138%,89.019608%,90.588236%);fill-opacity:1;" d="M 33.625 45.515625 C 34.132812 45.917969 34.515625 46.269531 34.90625 46.789062 C 35.828125 47.503906 36.742188 47.367188 37.875 47.359375 C 40.40625 47.417969 42.539062 47.796875 44.484375 49.546875 C 45.589844 50.789062 46.433594 52.238281 46.578125 53.90625 C 46.550781 54.101562 46.527344 54.296875 46.5 54.5 C 46.675781 54.527344 46.851562 54.550781 47.03125 54.578125 C 48.609375 54.957031 49.628906 55.617188 50.5 57 C 50.765625 58.398438 50.550781 59.5625 49.75 60.75 C 48.652344 61.765625 47.863281 62.03125 46.386719 62.035156 C 46.105469 62.039062 45.824219 62.039062 45.53125 62.042969 C 45.21875 62.042969 44.910156 62.042969 44.589844 62.042969 C 44.261719 62.046875 43.9375 62.046875 43.601562 62.046875 C 42.515625 62.054688 41.429688 62.058594 40.347656 62.0625 C 39.972656 62.0625 39.601562 62.0625 39.226562 62.0625 C 37.472656 62.066406 35.71875 62.070312 33.960938 62.074219 C 31.9375 62.074219 29.914062 62.082031 27.886719 62.09375 C 26.324219 62.101562 24.753906 62.101562 23.191406 62.101562 C 22.253906 62.105469 21.320312 62.109375 20.386719 62.113281 C 19.34375 62.121094 18.300781 62.117188 17.257812 62.117188 C 16.949219 62.121094 16.636719 62.125 16.320312 62.128906 C 14.71875 62.117188 13.710938 62.089844 12.5 61 C 12.304688 60.832031 12.109375 60.660156 11.90625 60.484375 C 11.277344 59.347656 11.316406 58.269531 11.5 57 C 12.039062 55.878906 12.613281 55.261719 13.75 54.75 C 14.25 54.660156 14.746094 54.574219 15.25 54.5 C 15.300781 54.246094 15.355469 53.992188 15.40625 53.730469 C 16.148438 50.339844 17.421875 47.410156 20.328125 45.339844 C 24.472656 42.683594 29.589844 42.617188 33.625 45.515625 Z M 33.625 45.515625 "/>
<path style=" stroke:none;fill-rule:nonzero;fill:rgb(90.980393%,78.823531%,68.235296%);fill-opacity:1;" d="M 10.25 12.25 C 19.160156 12.25 28.070312 12.25 37.25 12.25 C 37.25 12.992188 37.25 13.734375 37.25 14.5 C 38.15625 14.5 39.066406 14.5 40 14.5 C 40.25 15.5 40.25 15.5 40.015625 16.0625 C 39.925781 16.207031 39.839844 16.351562 39.75 16.5 C 39.4375 16.503906 39.121094 16.507812 38.800781 16.511719 C 38.386719 16.523438 37.976562 16.535156 37.5625 16.546875 C 37.253906 16.550781 37.253906 16.550781 36.9375 16.550781 C 36.738281 16.558594 36.539062 16.566406 36.332031 16.574219 C 36.148438 16.578125 35.964844 16.578125 35.777344 16.585938 C 34.960938 16.839844 34.691406 17.285156 34.25 18 C 34.09375 18.769531 34.09375 18.769531 34.097656 19.597656 C 34.089844 19.898438 34.082031 20.199219 34.074219 20.511719 C 34.070312 20.820312 34.066406 21.132812 34.0625 21.453125 C 34.050781 21.925781 34.050781 21.925781 34.039062 22.414062 C 34.023438 23.191406 34.011719 23.96875 34 24.75 C 33.574219 24.761719 33.574219 24.761719 33.136719 24.769531 C 27.953125 24.9375 23.386719 26.484375 19.710938 30.308594 C 17.171875 33.28125 16.011719 36.621094 15.71875 40.484375 C 15.699219 40.75 15.675781 41.015625 15.652344 41.292969 C 15.601562 41.945312 15.550781 42.597656 15.5 43.25 C 14.859375 43.335938 14.21875 43.417969 13.578125 43.5 C 13.398438 43.523438 13.21875 43.546875 13.03125 43.574219 C 12.855469 43.59375 12.679688 43.617188 12.496094 43.640625 C 12.335938 43.664062 12.175781 43.683594 12.011719 43.703125 C 11.425781 43.757812 10.835938 43.75 10.25 43.75 C 10.25 33.355469 10.25 22.960938 10.25 12.25 Z M 10.25 12.25 "/>
<path style=" stroke:none;fill-rule:nonzero;fill:rgb(95.686275%,81.960785%,42.352942%);fill-opacity:1;" d="M 47.5 2 C 48.160156 2 48.820312 2 49.5 2 C 49.546875 2.175781 49.589844 2.355469 49.636719 2.539062 C 49.699219 2.765625 49.761719 2.996094 49.828125 3.234375 C 49.890625 3.460938 49.949219 3.691406 50.011719 3.925781 C 50.089844 4.117188 50.171875 4.304688 50.25 4.5 C 51.523438 4.925781 52.933594 4.882812 54.234375 4.578125 C 54.40625 4.550781 54.574219 4.527344 54.75 4.5 C 55.203125 4.859375 55.203125 4.859375 55.5 5.25 C 55.417969 5.460938 55.335938 5.671875 55.25 5.890625 C 54.914062 7.050781 54.925781 8.015625 55.109375 9.203125 C 55.59375 9.882812 55.859375 9.898438 56.65625 10.078125 C 57.199219 10.164062 57.199219 10.164062 57.75 10.25 C 57.75 10.992188 57.75 11.734375 57.75 12.5 C 57.484375 12.5625 57.214844 12.621094 56.9375 12.6875 C 55.96875 13.011719 55.554688 13.15625 55 14 C 54.871094 15.316406 55.003906 16.261719 55.5 17.5 C 55.203125 17.890625 55.203125 17.890625 54.75 18.25 C 54.082031 18.183594 53.601562 18.050781 53 17.75 C 52.1875 17.675781 51.601562 17.714844 50.828125 17.984375 C 49.972656 18.746094 49.78125 19.664062 49.5 20.75 C 48.839844 20.75 48.179688 20.75 47.5 20.75 C 47.460938 20.597656 47.421875 20.441406 47.378906 20.285156 C 47.015625 18.992188 47.015625 18.992188 46.171875 17.984375 C 45.386719 17.710938 44.824219 17.664062 44 17.75 C 43.738281 17.882812 43.738281 17.882812 43.46875 18.015625 C 43 18.25 43 18.25 42.46875 18.21875 C 42 18 42 18 41.65625 17.546875 C 41.449219 16.824219 41.671875 16.664062 42 16 C 42.171875 14.523438 42.171875 14.523438 41.46875 13.265625 C 40.691406 12.710938 40.191406 12.566406 39.25 12.5 C 39.25 11.757812 39.25 11.015625 39.25 10.25 C 39.40625 10.207031 39.5625 10.164062 39.726562 10.121094 C 39.929688 10.058594 40.132812 10 40.34375 9.9375 C 40.546875 9.878906 40.75 9.824219 40.960938 9.761719 C 41.527344 9.542969 41.527344 9.542969 41.816406 9.035156 C 42.199219 7.917969 42.113281 6.84375 41.75 5.75 C 41.667969 5.585938 41.585938 5.421875 41.5 5.25 C 41.796875 4.859375 41.796875 4.859375 42.25 4.5 C 42.765625 4.578125 42.765625 4.578125 43.5 4.75 C 45.136719 4.914062 45.136719 4.914062 46.625 4.359375 C 47.09375 3.601562 47.300781 2.863281 47.5 2 Z M 46.25 9.25 C 45.671875 10.097656 45.5 10.59375 45.5 11.625 C 45.8125 12.71875 46.210938 13.191406 47 14 C 47.800781 14.398438 48.628906 14.339844 49.5 14.25 C 50.367188 13.902344 50.683594 13.59375 51.21875 12.828125 C 51.566406 11.800781 51.609375 11.03125 51.25 10 C 50.664062 9.265625 50.664062 9.265625 50 8.75 C 49.917969 8.667969 49.835938 8.585938 49.75 8.5 C 48.429688 8.359375 47.285156 8.335938 46.25 9.25 Z M 46.25 9.25 "/>
<path style=" stroke:none;fill-rule:nonzero;fill:rgb(78.823531%,80.784315%,83.92157%);fill-opacity:1;" d="M 48 45.5 C 50.90625 45.371094 53.191406 45.40625 55.578125 47.28125 C 56.71875 48.359375 57.609375 49.722656 57.824219 51.300781 C 57.828125 51.78125 57.828125 51.78125 57.75 52.5 C 57.894531 52.523438 58.039062 52.542969 58.191406 52.566406 C 59.648438 52.828125 60.472656 53.171875 61.5 54.25 C 62.109375 55.207031 62.054688 56.105469 61.902344 57.195312 C 61.613281 58.25 60.976562 58.9375 60.058594 59.539062 C 59.308594 59.824219 58.671875 59.804688 57.871094 59.800781 C 57.402344 59.796875 57.402344 59.796875 56.925781 59.796875 C 56.433594 59.789062 56.433594 59.789062 55.9375 59.78125 C 55.609375 59.78125 55.28125 59.777344 54.941406 59.773438 C 54.128906 59.765625 53.3125 59.761719 52.5 59.75 C 52.488281 59.527344 52.476562 59.308594 52.464844 59.078125 C 52.4375 58.640625 52.4375 58.640625 52.410156 58.199219 C 52.390625 57.90625 52.378906 57.621094 52.359375 57.324219 C 52.164062 55.835938 51.453125 54.925781 50.390625 53.921875 C 49.757812 53.46875 49.757812 53.46875 48.984375 53.21875 C 48.003906 52.59375 47.828125 51.921875 47.464844 50.84375 C 47.257812 50.199219 47.257812 50.199219 46.75 49.5 C 46.808594 48.011719 47.359375 46.816406 48 45.5 Z M 48 45.5 "/>
<path style=" stroke:none;fill-rule:nonzero;fill:rgb(97.647059%,49.803922%,41.960785%);fill-opacity:1;" d="M 36 18.5 C 39.613281 18.261719 39.613281 18.261719 40.710938 18.945312 C 41.191406 19.441406 41.613281 19.925781 42 20.5 C 42.210938 20.421875 42.421875 20.34375 42.640625 20.265625 C 43.515625 19.996094 44.339844 19.839844 45.25 19.75 C 45.5 20 45.5 20 45.523438 20.625 C 45.515625 21.335938 45.507812 22.042969 45.5 22.75 C 46.820312 22.75 48.140625 22.75 49.5 22.75 C 49.5 27.535156 49.5 32.320312 49.5 37.25 C 49.003906 37.25 48.511719 37.25 48 37.25 C 47.917969 37.027344 47.917969 37.027344 47.835938 36.800781 C 46.105469 32.28125 43.558594 28.609375 39.046875 26.53125 C 38.613281 26.351562 38.183594 26.175781 37.75 26 C 37.171875 25.753906 36.59375 25.503906 36 25.25 C 36 23.023438 36 20.796875 36 18.5 Z M 36 18.5 "/>
<path style=" stroke:none;fill-rule:nonzero;fill:rgb(3.529412%,2.352941%,1.960784%);fill-opacity:1;" d="M 15.175781 14.367188 C 15.34375 14.363281 15.507812 14.363281 15.683594 14.359375 C 16.230469 14.355469 16.78125 14.355469 17.328125 14.359375 C 17.710938 14.355469 18.09375 14.355469 18.476562 14.355469 C 19.273438 14.351562 20.074219 14.351562 20.878906 14.355469 C 21.902344 14.359375 22.925781 14.355469 23.953125 14.347656 C 24.742188 14.339844 25.53125 14.339844 26.320312 14.339844 C 26.695312 14.339844 27.074219 14.339844 27.453125 14.335938 C 27.980469 14.335938 28.511719 14.335938 29.039062 14.339844 C 29.492188 14.339844 29.492188 14.339844 29.953125 14.34375 C 30.980469 14.546875 31.355469 14.9375 32 15.75 C 32.148438 16.539062 32.148438 16.539062 32.125 17.375 C 32.121094 17.652344 32.121094 17.925781 32.117188 18.210938 C 31.988281 19.074219 31.769531 19.554688 31.25 20.25 C 30.359375 20.839844 29.976562 20.8125 28.917969 20.820312 C 28.429688 20.820312 28.429688 20.820312 27.933594 20.828125 C 27.574219 20.828125 27.21875 20.828125 26.863281 20.824219 C 26.496094 20.828125 26.128906 20.828125 25.765625 20.828125 C 24.996094 20.828125 24.230469 20.828125 23.460938 20.828125 C 22.480469 20.828125 21.5 20.832031 20.515625 20.835938 C 19.761719 20.839844 19.007812 20.839844 18.25 20.839844 C 17.890625 20.839844 17.527344 20.839844 17.164062 20.84375 C 16.65625 20.847656 16.152344 20.847656 15.644531 20.84375 C 15.355469 20.84375 15.070312 20.84375 14.773438 20.84375 C 13.914062 20.738281 13.441406 20.515625 12.75 20 C 12.359375 19.214844 12.433594 18.390625 12.421875 17.53125 C 12.414062 17.351562 12.40625 17.171875 12.398438 16.984375 C 12.390625 16.160156 12.40625 15.625 12.902344 14.949219 C 13.695312 14.355469 14.191406 14.371094 15.175781 14.367188 Z M 15.175781 14.367188 "/>
<path style=" stroke:none;fill-rule:nonzero;fill:rgb(78.823531%,80.784315%,83.92157%);fill-opacity:1;" d="M 13.859375 45.453125 C 14.167969 45.457031 14.167969 45.457031 14.488281 45.464844 C 14.992188 45.472656 15.496094 45.484375 16 45.5 C 16.226562 46.117188 16.3125 46.566406 16.09375 47.195312 C 15.839844 47.707031 15.574219 48.207031 15.296875 48.703125 C 14.730469 49.742188 14.238281 50.671875 14 51.839844 C 13.75 52.75 13.75 52.75 13.261719 53.15625 C 13.070312 53.234375 12.882812 53.3125 12.6875 53.390625 C 11.292969 54.058594 10.386719 54.9375 9.71875 56.339844 C 9.480469 57.058594 9.398438 57.699219 9.34375 58.453125 C 9.324219 58.699219 9.308594 58.941406 9.285156 59.191406 C 9.273438 59.375 9.261719 59.5625 9.25 59.75 C 8.453125 59.792969 7.65625 59.820312 6.859375 59.84375 C 6.632812 59.855469 6.410156 59.867188 6.183594 59.878906 C 4.953125 59.90625 4.195312 59.839844 3.234375 59.03125 C 2.3125 58.136719 2.046875 57.417969 1.90625 56.140625 C 2.046875 54.808594 2.648438 54.109375 3.5625 53.171875 C 4.480469 52.609375 5.179688 52.574219 6.25 52.5 C 6.222656 52.261719 6.199219 52.027344 6.171875 51.78125 C 6.183594 50.1875 6.972656 48.832031 8.023438 47.671875 C 9.875 45.945312 11.367188 45.375 13.859375 45.453125 Z M 13.859375 45.453125 "/>
<path style=" stroke:none;fill-rule:nonzero;fill:rgb(69.803923%,85.882354%,49.411765%);fill-opacity:1;" d="M 10.25 6.25 C 19.984375 6.25 29.71875 6.25 39.75 6.25 C 40.25 7.25 40.25 7.25 40 8.25 C 39.09375 8.25 38.183594 8.25 37.25 8.25 C 37.25 8.910156 37.25 9.570312 37.25 10.25 C 32.464844 10.25 27.679688 10.25 22.75 10.25 C 22.75 9.589844 22.75 8.929688 22.75 8.25 C 22.007812 8.25 21.265625 8.25 20.5 8.25 C 20.5 8.910156 20.5 9.570312 20.5 10.25 C 19.839844 10.25 19.179688 10.25 18.5 10.25 C 18.5 9.589844 18.5 8.929688 18.5 8.25 C 17.839844 8.25 17.179688 8.25 16.5 8.25 C 16.5 8.910156 16.5 9.570312 16.5 10.25 C 15.839844 10.25 15.179688 10.25 14.5 10.25 C 14.5 9.589844 14.5 8.929688 14.5 8.25 C 13.757812 8.25 13.015625 8.25 12.25 8.25 C 12.25 8.910156 12.25 9.570312 12.25 10.25 C 11.589844 10.25 10.929688 10.25 10.25 10.25 C 10.25 8.929688 10.25 7.609375 10.25 6.25 Z M 10.25 6.25 "/>
<path style=" stroke:none;fill-rule:nonzero;fill:rgb(40.392157%,82.352942%,94.117647%);fill-opacity:1;" d="M 26.25 37.25 C 30.046875 37.25 33.839844 37.25 37.75 37.25 C 38.3125 39.222656 38.3125 39.222656 38.316406 40.085938 C 38.316406 40.367188 38.316406 40.367188 38.316406 40.65625 C 38.316406 40.847656 38.316406 41.039062 38.3125 41.234375 C 38.316406 41.519531 38.316406 41.519531 38.316406 41.808594 C 38.316406 43.117188 38.109375 44.246094 37.75 45.5 C 36.632812 45.59375 36.632812 45.59375 36.046875 45.171875 C 35.902344 45.019531 35.757812 44.871094 35.609375 44.71875 C 32.972656 42.273438 29.496094 41.476562 26 41.25 C 25.992188 40.726562 25.988281 40.199219 25.984375 39.671875 C 25.984375 39.378906 25.976562 39.085938 25.976562 38.785156 C 26 38 26 38 26.25 37.25 Z M 26.25 37.25 "/>
<path style=" stroke:none;fill-rule:nonzero;fill:rgb(88.235295%,76.47059%,66.274512%);fill-opacity:1;" d="M 51.75 19.75 C 53.429688 19.929688 53.429688 19.929688 53.75 20.25 C 53.773438 20.980469 53.78125 21.703125 53.777344 22.433594 C 53.777344 22.664062 53.777344 22.894531 53.777344 23.128906 C 53.777344 23.890625 53.777344 24.652344 53.773438 25.414062 C 53.773438 25.941406 53.773438 26.46875 53.773438 26.996094 C 53.773438 28.382812 53.769531 29.773438 53.765625 31.160156 C 53.765625 32.578125 53.761719 33.992188 53.761719 35.40625 C 53.761719 38.191406 53.753906 40.96875 53.75 43.75 C 53.597656 43.734375 53.445312 43.714844 53.289062 43.699219 C 52.988281 43.664062 52.988281 43.664062 52.679688 43.628906 C 52.382812 43.597656 52.382812 43.597656 52.078125 43.5625 C 51.339844 43.484375 50.601562 43.421875 49.859375 43.359375 C 49.410156 43.324219 48.960938 43.289062 48.5 43.25 C 48.5 41.929688 48.5 40.609375 48.5 39.25 C 49.042969 39.148438 49.042969 39.148438 49.59375 39.046875 C 50.203125 38.949219 50.203125 38.949219 50.75 38.75 C 51.363281 37.828125 51.316406 37.363281 51.324219 36.265625 C 51.328125 36.089844 51.328125 35.914062 51.332031 35.734375 C 51.335938 35.15625 51.34375 34.578125 51.34375 33.996094 C 51.351562 33.59375 51.351562 33.195312 51.359375 32.792969 C 51.371094 31.734375 51.378906 30.675781 51.386719 29.621094 C 51.398438 27.925781 51.414062 26.230469 51.433594 24.535156 C 51.4375 23.941406 51.441406 23.347656 51.449219 22.753906 C 51.449219 22.390625 51.453125 22.03125 51.457031 21.671875 C 51.460938 21.191406 51.460938 21.191406 51.464844 20.707031 C 51.5 20 51.5 20 51.75 19.75 Z M 51.75 19.75 "/>
<path style=" stroke:none;fill-rule:nonzero;fill:rgb(1.960784%,1.960784%,1.960784%);fill-opacity:1;" d="M 20.703125 51.609375 C 20.898438 51.605469 21.09375 51.605469 21.296875 51.601562 C 22.722656 51.621094 23.582031 51.925781 24.75 52.75 C 25.652344 53.820312 25.902344 54.824219 25.828125 56.21875 C 25.59375 57.808594 24.722656 58.589844 23.5 59.5 C 22.6875 59.90625 21.800781 59.808594 20.90625 59.8125 C 20.714844 59.816406 20.523438 59.820312 20.324219 59.828125 C 19.464844 59.835938 18.902344 59.828125 18.128906 59.417969 C 17.207031 58.40625 17.4375 56.945312 17.421875 55.65625 C 17.414062 55.417969 17.40625 55.183594 17.402344 54.9375 C 17.390625 53.898438 17.421875 53.167969 17.867188 52.21875 C 18.796875 51.53125 19.574219 51.574219 20.703125 51.609375 Z M 20.703125 51.609375 "/>
<path style=" stroke:none;fill-rule:nonzero;fill:rgb(1.568628%,1.568628%,0.784314%);fill-opacity:1;" d="M 50.59375 6.480469 C 51.90625 7.246094 52.828125 8.253906 53.578125 9.578125 C 53.988281 11.183594 53.902344 12.582031 53.082031 14.035156 C 52.265625 15.171875 51.128906 16.171875 49.75 16.5 C 47.839844 16.699219 46.519531 16.296875 44.9375 15.171875 C 43.75 14.011719 43.386719 12.925781 43.359375 11.28125 C 43.394531 9.851562 43.566406 8.964844 44.546875 7.90625 C 44.695312 7.769531 44.84375 7.636719 45 7.5 C 45.144531 7.367188 45.289062 7.238281 45.441406 7.101562 C 46.9375 5.96875 48.84375 5.800781 50.59375 6.480469 Z M 46.25 9.25 C 45.671875 10.097656 45.5 10.59375 45.5 11.625 C 45.8125 12.71875 46.210938 13.191406 47 14 C 47.800781 14.402344 48.628906 14.339844 49.5 14.25 C 50.367188 13.902344 50.683594 13.59375 51.21875 12.828125 C 51.566406 11.800781 51.605469 11.03125 51.25 10 C 50.660156 9.265625 50.660156 9.265625 50 8.75 C 49.917969 8.667969 49.835938 8.585938 49.75 8.5 C 48.429688 8.359375 47.285156 8.335938 46.25 9.25 Z M 46.25 9.25 "/>
<path style=" stroke:none;fill-rule:nonzero;fill:rgb(40.392157%,82.745099%,94.117647%);fill-opacity:1;" d="M 40 37.25 C 41.980469 37.25 43.960938 37.25 46 37.25 C 46.796875 40.832031 46.664062 43.855469 45.25 47.25 C 44.101562 47.007812 43.066406 46.503906 41.992188 46.039062 C 41.183594 45.699219 41.183594 45.699219 40 45.5 C 40 42.777344 40 40.054688 40 37.25 Z M 40 37.25 "/>
<path style=" stroke:none;fill-rule:nonzero;fill:rgb(4.313726%,4.313726%,4.313726%);fill-opacity:1;" d="M 34 51.5 C 34.742188 51.5 35.484375 51.5 36.25 51.5 C 36.273438 52.558594 36.285156 53.613281 36.296875 54.671875 C 36.300781 54.972656 36.308594 55.269531 36.316406 55.578125 C 36.316406 55.871094 36.320312 56.15625 36.324219 56.453125 C 36.328125 56.722656 36.328125 56.988281 36.335938 57.261719 C 36.210938 58.34375 35.761719 58.988281 35 59.75 C 34.496094 59.84375 34.496094 59.84375 33.90625 59.859375 C 33.617188 59.875 33.617188 59.875 33.324219 59.890625 C 32.441406 59.675781 32.226562 59.261719 31.75 58.5 C 31.433594 57.738281 31.183594 56.960938 30.9375 56.171875 C 30.710938 55.453125 30.484375 54.738281 30.25 54 C 30.167969 55.898438 30.085938 57.796875 30 59.75 C 29.339844 59.75 28.679688 59.75 28 59.75 C 27.96875 58.605469 27.953125 57.457031 27.9375 56.3125 C 27.929688 55.988281 27.921875 55.664062 27.914062 55.324219 C 27.910156 55.011719 27.90625 54.699219 27.902344 54.378906 C 27.898438 54.089844 27.890625 53.800781 27.886719 53.503906 C 28.023438 52.59375 28.277344 52.308594 29 51.75 C 29.554688 51.617188 29.554688 51.617188 30.125 51.625 C 30.3125 51.621094 30.503906 51.621094 30.695312 51.617188 C 31.5 51.808594 31.746094 52.085938 32.25 52.75 C 32.578125 53.503906 32.824219 54.277344 33.0625 55.0625 C 33.289062 55.785156 33.515625 56.507812 33.75 57.25 C 33.832031 55.351562 33.914062 53.453125 34 51.5 Z M 34 51.5 "/>
<path style=" stroke:none;fill-rule:nonzero;fill:rgb(40.392157%,82.352942%,94.117647%);fill-opacity:1;" d="M 31.75 27.5 C 32.828125 27.890625 33.414062 28.714844 34.09375 29.59375 C 34.214844 29.746094 34.335938 29.902344 34.460938 30.0625 C 37 33.40625 37 33.40625 37 35 C 33.699219 35 30.398438 35 27 35 C 27.558594 33.328125 27.851562 32.449219 28.8125 31.109375 C 28.910156 30.972656 29.007812 30.835938 29.109375 30.691406 C 29.921875 29.566406 30.800781 28.511719 31.75 27.5 Z M 31.75 27.5 "/>
<path style=" stroke:none;fill-rule:nonzero;fill:rgb(3.921569%,3.921569%,3.921569%);fill-opacity:1;" d="M 41.03125 51.476562 C 41.234375 51.476562 41.4375 51.476562 41.644531 51.476562 C 41.957031 51.480469 41.957031 51.480469 42.28125 51.484375 C 42.601562 51.484375 42.601562 51.484375 42.925781 51.488281 C 43.449219 51.492188 43.976562 51.496094 44.5 51.5 C 44.5 52.242188 44.5 52.984375 44.5 53.75 C 42.519531 53.875 42.519531 53.875 40.5 54 C 41.640625 54.636719 41.640625 54.636719 42.78125 55.269531 C 43.972656 55.945312 43.972656 55.945312 44.25 56.5 C 44.421875 58.253906 44.421875 58.253906 43.773438 59.1875 C 42.6875 59.976562 41.851562 59.890625 40.546875 59.828125 C 40.324219 59.824219 40.105469 59.816406 39.878906 59.8125 C 39.335938 59.796875 38.792969 59.773438 38.25 59.75 C 38.25 59.089844 38.25 58.429688 38.25 57.75 C 39.570312 57.75 40.890625 57.75 42.25 57.75 C 42.25 57.585938 42.25 57.421875 42.25 57.25 C 42.042969 57.191406 41.839844 57.136719 41.625 57.078125 C 40.269531 56.570312 39.0625 55.96875 38.25 54.75 C 38.140625 53.90625 38.140625 53.90625 38.25 53 C 39.117188 51.949219 39.6875 51.464844 41.03125 51.476562 Z M 41.03125 51.476562 "/>
<path style=" stroke:none;fill-rule:nonzero;fill:rgb(40.000001%,81.960785%,93.333334%);fill-opacity:1;" d="M 18 37.25 C 19.980469 37.25 21.960938 37.25 24 37.25 C 23.917969 38.734375 23.835938 40.21875 23.75 41.75 C 23.300781 41.925781 22.851562 42.101562 22.390625 42.28125 C 21.128906 42.800781 20.054688 43.40625 18.960938 44.214844 C 18.5 44.5 18.5 44.5 17.75 44.5 C 17.285156 41.996094 17.449219 39.734375 18 37.25 Z M 18 37.25 "/>
<path style=" stroke:none;fill-rule:nonzero;fill:rgb(40.000001%,81.960785%,93.725491%);fill-opacity:1;" d="M 29.25 27.25 C 29.164062 27.355469 29.078125 27.457031 28.992188 27.566406 C 27.199219 29.84375 25.921875 32.359375 24.75 35 C 22.851562 35 20.953125 35 19 35 C 20.835938 31.324219 23.527344 29.007812 27.316406 27.453125 C 28.003906 27.25 28.542969 27.210938 29.25 27.25 Z M 29.25 27.25 "/>
<path style=" stroke:none;fill-rule:nonzero;fill:rgb(40.392157%,82.352942%,93.725491%);fill-opacity:1;" d="M 34.75 27.25 C 38.4375 27.503906 41.171875 29.746094 43.550781 32.382812 C 44.136719 33.191406 44.554688 34.109375 45 35 C 43.101562 35 41.203125 35 39.25 35 C 38.800781 34.078125 38.800781 34.078125 38.34375 33.140625 C 37.578125 31.59375 36.753906 30.152344 35.75 28.75 C 35.550781 28.453125 35.351562 28.15625 35.15625 27.859375 C 34.953125 27.558594 34.953125 27.558594 34.75 27.25 Z M 34.75 27.25 "/>
<path style=" stroke:none;fill-rule:nonzero;fill:rgb(98.431373%,50.196081%,42.352942%);fill-opacity:1;" d="M 14.5 16.5 C 19.613281 16.5 24.730469 16.5 30 16.5 C 30 17.160156 30 17.820312 30 18.5 C 24.886719 18.5 19.769531 18.5 14.5 18.5 C 14.5 17.839844 14.5 17.179688 14.5 16.5 Z M 14.5 16.5 "/>
<path style=" stroke:none;fill-rule:nonzero;fill:rgb(0%,0%,0%);fill-opacity:1;" d="M 12.5 22.75 C 15.882812 22.75 19.265625 22.75 22.75 22.75 C 22.75 23.410156 22.75 24.070312 22.75 24.75 C 19.367188 24.75 15.984375 24.75 12.5 24.75 C 12.5 24.089844 12.5 23.429688 12.5 22.75 Z M 12.5 22.75 "/>
<path style=" stroke:none;fill-rule:nonzero;fill:rgb(85.882354%,87.058824%,88.627452%);fill-opacity:1;" d="M 19.5 53.75 C 22.265625 53.597656 22.265625 53.597656 23.3125 54.28125 C 23.835938 55.136719 23.953125 55.515625 23.75 56.5 C 23.3125 57.21875 23.3125 57.21875 22.5 57.75 C 21.476562 57.855469 20.535156 57.808594 19.5 57.75 C 19.5 56.429688 19.5 55.109375 19.5 53.75 Z M 19.5 53.75 "/>
<path style=" stroke:none;fill-rule:nonzero;fill:rgb(11.764706%,9.803922%,8.627451%);fill-opacity:1;" d="M 12.25 26.75 C 14.394531 26.75 16.539062 26.75 18.75 26.75 C 18.75 27.492188 18.75 28.234375 18.75 29 C 16.605469 29 14.460938 29 12.25 29 C 12.25 28.257812 12.25 27.515625 12.25 26.75 Z M 12.25 26.75 "/>
<path style=" stroke:none;fill-rule:nonzero;fill:rgb(0%,0%,0%);fill-opacity:1;" d="M 12.5 31 C 13.820312 31 15.140625 31 16.5 31 C 16.5 31.660156 16.5 32.320312 16.5 33 C 15.179688 33 13.859375 33 12.5 33 C 12.5 32.339844 12.5 31.679688 12.5 31 Z M 12.5 31 "/>
</g>
</svg>
