<?xml version="1.0" encoding="UTF-8"?>
<svg xmlns="http://www.w3.org/2000/svg" xmlns:xlink="http://www.w3.org/1999/xlink" width="64" height="64" viewBox="0 0 64 64" version="1.1">
<g id="surface1">
<path style=" stroke:none;fill-rule:nonzero;fill:rgb(93.725491%,29.019609%,31.37255%);fill-opacity:1;" d="M 28 1.75 C 30.640625 1.75 33.28125 1.75 36 1.75 C 36.246094 2.738281 36.496094 3.730469 36.75 4.75 C 38.226562 5.925781 38.226562 5.925781 40 6.28125 C 40.910156 5.941406 41.8125 5.589844 42.707031 5.210938 C 43.25 5 43.25 5 43.75 5 C 43.78125 4.808594 43.816406 4.613281 43.851562 4.414062 C 43.894531 4.164062 43.941406 3.914062 43.984375 3.65625 C 44.027344 3.40625 44.074219 3.15625 44.113281 2.898438 C 44.25 2.25 44.25 2.25 44.5 1.75 C 45.820312 1.75 47.140625 1.75 48.5 1.75 C 49.25 3.875 49.25 3.875 49.25 5 C 49.503906 5.074219 49.503906 5.074219 49.761719 5.148438 C 49.984375 5.210938 50.207031 5.277344 50.4375 5.34375 C 50.765625 5.441406 50.765625 5.441406 51.105469 5.539062 C 51.75 5.75 51.75 5.75 52.289062 6.027344 C 53.011719 6.378906 53.488281 6.210938 54.25 6 C 54.507812 5.824219 54.765625 5.648438 55.03125 5.46875 C 55.75 5 55.75 5 56.21875 5.027344 C 56.949219 5.332031 57.390625 5.773438 57.953125 6.328125 C 58.15625 6.523438 58.359375 6.71875 58.566406 6.921875 C 59 7.5 59 7.5 58.972656 8.019531 C 58.679688 8.648438 58.324219 9.203125 57.933594 9.78125 C 57.523438 10.820312 58.140625 11.933594 58.515625 12.921875 C 59 14.195312 59 14.195312 59 14.75 C 59.304688 14.78125 59.609375 14.8125 59.921875 14.84375 C 60.832031 14.9375 61.34375 15.136719 62.25 15.5 C 62.25 16.820312 62.25 18.140625 62.25 19.5 C 59.84375 20.25 59.84375 20.25 59 20.25 C 58.953125 20.421875 58.902344 20.585938 58.851562 20.761719 C 58.789062 20.984375 58.722656 21.207031 58.65625 21.4375 C 58.59375 21.65625 58.527344 21.878906 58.460938 22.105469 C 58.25 22.75 58.25 22.75 57.960938 23.253906 C 57.609375 24.089844 57.921875 24.757812 58.191406 25.585938 C 58.484375 26.277344 58.484375 26.277344 59.25 27.25 C 60.238281 27.496094 61.230469 27.746094 62.25 28 C 62.25 30.640625 62.25 33.28125 62.25 36 C 59.296875 36.625 59.296875 36.625 58.367188 36.808594 C 56.976562 37.082031 56.976562 37.082031 55.917969 37.933594 C 55.726562 38.453125 55.609375 38.957031 55.5 39.5 C 55.386719 39.816406 55.261719 40.132812 55.136719 40.445312 C 54.671875 41.609375 54.671875 41.609375 54.21875 42.773438 C 54 43.25 54 43.25 53.675781 43.722656 C 53.335938 44.246094 53.121094 44.632812 53 45.25 C 53.328125 46.210938 53.886719 46.988281 54.46875 47.8125 C 54.765625 48.25 55.066406 48.6875 55.359375 49.128906 C 55.558594 49.414062 55.558594 49.414062 55.765625 49.710938 C 56 50.25 56 50.25 55.859375 50.75 C 55.421875 51.359375 54.945312 51.863281 54.414062 52.386719 C 54.199219 52.597656 53.988281 52.808594 53.765625 53.027344 C 53.546875 53.246094 53.324219 53.460938 53.09375 53.6875 C 52.871094 53.910156 52.644531 54.132812 52.414062 54.359375 C 51.859375 54.90625 51.304688 55.453125 50.75 56 C 49.929688 55.699219 49.28125 55.378906 48.597656 54.835938 C 46.816406 53.449219 46.816406 53.449219 44.691406 53.066406 C 43.53125 53.449219 42.53125 54.085938 41.5 54.726562 C 40.738281 55.140625 40 55.296875 39.15625 55.484375 C 38.15625 55.753906 38.15625 55.753906 37.421875 56.421875 C 37.203125 57.027344 37.105469 57.609375 37 58.25 C 36.875 58.765625 36.742188 59.273438 36.609375 59.789062 C 36.398438 60.605469 36.199219 61.425781 36 62.25 C 33.359375 62.25 30.71875 62.25 28 62.25 C 27.753906 61.261719 27.503906 60.269531 27.25 59.25 C 25.78125 58.074219 25.78125 58.074219 24.015625 57.71875 C 23.636719 57.859375 23.636719 57.859375 23.25 58 C 23.03125 58.042969 22.808594 58.085938 22.582031 58.128906 C 21.769531 58.328125 21.191406 58.523438 20.5 59 C 19.949219 60.085938 19.753906 61.042969 19.5 62.25 C 18.179688 62.25 16.859375 62.25 15.5 62.25 C 14.75 60.125 14.75 60.125 14.75 59 C 14.578125 58.953125 14.414062 58.902344 14.238281 58.851562 C 14.015625 58.789062 13.792969 58.722656 13.5625 58.65625 C 13.34375 58.59375 13.121094 58.527344 12.894531 58.460938 C 12.25 58.25 12.25 58.25 11.710938 57.972656 C 10.988281 57.621094 10.511719 57.789062 9.75 58 C 9.492188 58.175781 9.234375 58.351562 8.96875 58.53125 C 8.25 59 8.25 59 7.78125 58.972656 C 7.050781 58.667969 6.609375 58.226562 6.046875 57.671875 C 5.84375 57.476562 5.640625 57.28125 5.433594 57.078125 C 5 56.5 5 56.5 5.027344 55.980469 C 5.320312 55.351562 5.675781 54.796875 6.066406 54.21875 C 6.476562 53.179688 5.859375 52.066406 5.484375 51.078125 C 5 49.804688 5 49.804688 5 49.25 C 4.695312 49.21875 4.390625 49.1875 4.078125 49.15625 C 3.167969 49.0625 2.65625 48.863281 1.75 48.5 C 1.75 47.179688 1.75 45.859375 1.75 44.5 C 4.15625 43.75 4.15625 43.75 5 43.75 C 5.074219 43.496094 5.074219 43.496094 5.148438 43.238281 C 5.210938 43.015625 5.277344 42.792969 5.34375 42.5625 C 5.441406 42.234375 5.441406 42.234375 5.539062 41.894531 C 5.75 41.25 5.75 41.25 6.039062 40.746094 C 6.390625 39.910156 6.078125 39.242188 5.808594 38.414062 C 5.515625 37.722656 5.515625 37.722656 4.75 36.75 C 3.761719 36.503906 2.769531 36.253906 1.75 36 C 1.75 33.359375 1.75 30.71875 1.75 28 C 4.703125 27.375 4.703125 27.375 5.632812 27.191406 C 7.023438 26.917969 7.023438 26.917969 8.082031 26.066406 C 8.273438 25.546875 8.390625 25.042969 8.5 24.5 C 8.613281 24.183594 8.738281 23.867188 8.863281 23.554688 C 9.328125 22.390625 9.328125 22.390625 9.78125 21.226562 C 10 20.75 10 20.75 10.324219 20.277344 C 10.664062 19.753906 10.878906 19.367188 11 18.75 C 10.671875 17.789062 10.113281 17.011719 9.53125 16.1875 C 9.234375 15.75 8.933594 15.3125 8.640625 14.871094 C 8.507812 14.679688 8.371094 14.488281 8.234375 14.289062 C 8 13.75 8 13.75 8.140625 13.25 C 8.578125 12.640625 9.054688 12.136719 9.585938 11.613281 C 9.800781 11.402344 10.011719 11.191406 10.234375 10.972656 C 10.453125 10.753906 10.675781 10.539062 10.90625 10.3125 C 11.128906 10.089844 11.355469 9.867188 11.585938 9.640625 C 12.140625 9.09375 12.695312 8.546875 13.25 8 C 14.070312 8.300781 14.71875 8.621094 15.402344 9.164062 C 17.183594 10.550781 17.183594 10.550781 19.308594 10.933594 C 20.46875 10.550781 21.46875 9.914062 22.5 9.273438 C 23.261719 8.859375 24 8.703125 24.84375 8.515625 C 25.84375 8.246094 25.84375 8.246094 26.578125 7.578125 C 26.796875 6.972656 26.894531 6.390625 27 5.75 C 27.125 5.234375 27.257812 4.726562 27.390625 4.210938 C 27.601562 3.394531 27.800781 2.574219 28 1.75 Z M 22.574219 22.878906 C 20.480469 25.148438 19.234375 27.925781 19 31 C 19.164062 31.082031 19.328125 31.164062 19.5 31.25 C 19.585938 31.734375 19.664062 32.21875 19.734375 32.703125 C 19.992188 33.886719 19.992188 33.886719 20.863281 34.652344 C 21.574219 34.898438 22.273438 35.078125 23 35.25 C 23.210938 35.355469 23.417969 35.460938 23.636719 35.566406 C 24.265625 35.828125 24.265625 35.828125 24.886719 35.453125 C 25.09375 35.300781 25.300781 35.15625 25.515625 35 C 26.148438 34.546875 26.148438 34.546875 26.75 34.25 C 27.636719 34.488281 28.183594 35.132812 28.8125 35.78125 C 28.988281 35.960938 29.164062 36.140625 29.347656 36.328125 C 29.480469 36.46875 29.613281 36.609375 29.75 36.75 C 29.621094 37.007812 29.621094 37.007812 29.484375 37.269531 C 29.371094 37.496094 29.257812 37.71875 29.140625 37.953125 C 29.027344 38.175781 28.914062 38.398438 28.796875 38.628906 C 28.480469 39.261719 28.480469 39.261719 28.25 40 C 28.488281 40.664062 28.488281 40.664062 28.84375 41.359375 C 29.230469 42.15625 29.574219 42.882812 29.75 43.75 C 29.960938 43.796875 30.175781 43.847656 30.398438 43.898438 C 30.671875 43.960938 30.949219 44.027344 31.234375 44.09375 C 31.511719 44.15625 31.785156 44.222656 32.070312 44.289062 C 32.296875 44.359375 32.515625 44.425781 32.75 44.5 C 32.832031 44.664062 32.914062 44.828125 33 45 C 36.550781 44.679688 39.617188 43.167969 42 40.5 C 43.71875 38.265625 44.789062 35.816406 45 33 C 44.835938 32.917969 44.671875 32.835938 44.5 32.75 C 44.414062 32.265625 44.335938 31.78125 44.265625 31.296875 C 44.007812 30.113281 44.007812 30.113281 43.136719 29.347656 C 42.425781 29.101562 41.726562 28.921875 41 28.75 C 40.789062 28.644531 40.582031 28.539062 40.363281 28.433594 C 39.734375 28.171875 39.734375 28.171875 39.113281 28.546875 C 38.90625 28.699219 38.699219 28.84375 38.484375 29 C 37.851562 29.453125 37.851562 29.453125 37.25 29.75 C 36.363281 29.511719 35.816406 28.867188 35.1875 28.21875 C 35.011719 28.039062 34.835938 27.859375 34.652344 27.671875 C 34.519531 27.53125 34.386719 27.390625 34.25 27.25 C 34.335938 27.078125 34.425781 26.90625 34.515625 26.730469 C 34.628906 26.503906 34.742188 26.28125 34.859375 26.046875 C 35.03125 25.710938 35.03125 25.710938 35.203125 25.371094 C 35.519531 24.738281 35.519531 24.738281 35.75 24 C 35.511719 23.335938 35.511719 23.335938 35.15625 22.640625 C 34.757812 21.820312 34.472656 21.140625 34.25 20.25 C 33.175781 20.003906 32.105469 19.753906 31 19.5 C 31 19.335938 31 19.171875 31 19 C 27.757812 19 24.863281 20.710938 22.574219 22.878906 Z M 22.574219 22.878906 "/>
<path style=" stroke:none;fill-rule:nonzero;fill:rgb(47.843137%,53.725493%,57.647061%);fill-opacity:1;" d="M 15.5 31 C 16.820312 31 18.140625 31 19.5 31 C 20.25 33.125 20.25 33.125 20.25 34.25 C 20.492188 34.269531 20.734375 34.289062 20.984375 34.3125 C 21.816406 34.414062 22.359375 34.691406 23.078125 35.109375 C 23.636719 35.414062 23.636719 35.414062 24.25 35.5 C 24.984375 35.183594 25.550781 34.800781 26.183594 34.316406 C 26.75 34 26.75 34 27.25 34.128906 C 27.871094 34.589844 28.398438 35.101562 28.9375 35.65625 C 29.136719 35.859375 29.335938 36.066406 29.542969 36.273438 C 29.695312 36.433594 29.84375 36.585938 30 36.75 C 29.871094 37.007812 29.871094 37.007812 29.734375 37.269531 C 29.621094 37.496094 29.507812 37.71875 29.390625 37.953125 C 29.277344 38.175781 29.164062 38.398438 29.046875 38.628906 C 28.730469 39.261719 28.730469 39.261719 28.5 40 C 28.746094 40.664062 28.746094 40.664062 29.109375 41.359375 C 29.570312 42.28125 29.75 42.695312 29.75 43.75 C 30.207031 43.796875 30.207031 43.796875 30.671875 43.84375 C 31.582031 43.9375 32.09375 44.136719 33 44.5 C 33 45.820312 33 47.140625 33 48.5 C 31.925781 48.746094 30.855469 48.996094 29.75 49.25 C 29.636719 49.640625 29.523438 50.03125 29.40625 50.4375 C 29.21875 51.089844 29.035156 51.683594 28.722656 52.289062 C 28.371094 53.011719 28.539062 53.488281 28.75 54.25 C 29.238281 55.078125 29.238281 55.078125 29.75 55.75 C 29.398438 56.546875 28.988281 57.058594 28.359375 57.65625 C 27.714844 58.261719 27.714844 58.261719 27.25 59 C 26.566406 58.746094 25.996094 58.496094 25.390625 58.078125 C 24.523438 57.632812 24.191406 57.738281 23.25 58 C 22.917969 58.0625 22.917969 58.0625 22.578125 58.128906 C 21.769531 58.332031 21.191406 58.527344 20.5 59 C 19.949219 60.085938 19.753906 61.042969 19.5 62.25 C 18.179688 62.25 16.859375 62.25 15.5 62.25 C 14.75 60.125 14.75 60.125 14.75 59 C 14.578125 58.953125 14.414062 58.902344 14.238281 58.851562 C 14.015625 58.789062 13.792969 58.722656 13.5625 58.65625 C 13.34375 58.59375 13.121094 58.527344 12.894531 58.460938 C 12.25 58.25 12.25 58.25 11.710938 57.972656 C 10.988281 57.621094 10.511719 57.789062 9.75 58 C 9.492188 58.175781 9.234375 58.351562 8.96875 58.53125 C 8.25 59 8.25 59 7.78125 58.972656 C 7.050781 58.667969 6.609375 58.226562 6.046875 57.671875 C 5.84375 57.476562 5.640625 57.28125 5.433594 57.078125 C 5 56.5 5 56.5 5.027344 55.980469 C 5.320312 55.351562 5.675781 54.796875 6.066406 54.21875 C 6.476562 53.179688 5.859375 52.066406 5.484375 51.078125 C 5 49.804688 5 49.804688 5 49.25 C 4.695312 49.21875 4.390625 49.1875 4.078125 49.15625 C 3.167969 49.0625 2.65625 48.863281 1.75 48.5 C 1.75 47.179688 1.75 45.859375 1.75 44.5 C 4.15625 43.75 4.15625 43.75 5 43.75 C 5.046875 43.578125 5.097656 43.414062 5.148438 43.238281 C 5.210938 43.015625 5.277344 42.792969 5.34375 42.5625 C 5.40625 42.34375 5.472656 42.121094 5.539062 41.894531 C 5.75 41.25 5.75 41.25 6.027344 40.703125 C 6.355469 40.035156 6.230469 39.703125 6 39 C 5.683594 38.40625 5.339844 37.828125 5 37.25 C 5 37.085938 5 36.921875 5 36.75 C 5.410156 36.34375 5.410156 36.34375 5.953125 35.890625 C 6.578125 35.363281 7.179688 34.835938 7.75 34.25 C 8.4375 34.503906 9.015625 34.761719 9.625 35.171875 C 10.410156 35.582031 10.660156 35.476562 11.5 35.25 C 12.148438 35.003906 12.785156 34.734375 13.425781 34.460938 C 14 34.25 14 34.25 14.75 34.25 C 14.996094 33.175781 15.246094 32.105469 15.5 31 Z M 15.5 31 "/>
<path style=" stroke:none;fill-rule:nonzero;fill:rgb(96.470588%,72.941178%,26.666668%);fill-opacity:1;" d="M 59.921875 27.375 C 60.367188 27.488281 60.808594 27.613281 61.25 27.75 C 61.746094 27.875 61.746094 27.875 62.25 28 C 62.25 30.640625 62.25 33.28125 62.25 36 C 59.296875 36.625 59.296875 36.625 58.371094 36.808594 C 56.976562 37.082031 56.976562 37.082031 55.917969 37.933594 C 55.722656 38.453125 55.605469 38.957031 55.5 39.5 C 55.382812 39.816406 55.261719 40.132812 55.132812 40.445312 C 54.671875 41.609375 54.671875 41.609375 54.21875 42.773438 C 54 43.25 54 43.25 53.675781 43.722656 C 53.335938 44.246094 53.121094 44.632812 53 45.25 C 53.328125 46.210938 53.882812 46.988281 54.46875 47.8125 C 54.769531 48.25 55.0625 48.6875 55.355469 49.128906 C 55.558594 49.414062 55.558594 49.414062 55.765625 49.710938 C 56 50.25 56 50.25 55.859375 50.75 C 55.425781 51.359375 54.945312 51.863281 54.410156 52.386719 C 54.199219 52.597656 53.988281 52.808594 53.765625 53.027344 C 53.433594 53.351562 53.433594 53.351562 53.09375 53.6875 C 52.871094 53.910156 52.644531 54.132812 52.414062 54.359375 C 51.859375 54.90625 51.308594 55.453125 50.75 56 C 49.929688 55.699219 49.28125 55.378906 48.597656 54.835938 C 46.816406 53.449219 46.816406 53.449219 44.6875 53.066406 C 43.53125 53.449219 42.53125 54.085938 41.5 54.726562 C 40.738281 55.140625 40 55.296875 39.15625 55.484375 C 38.15625 55.753906 38.15625 55.753906 37.417969 56.421875 C 37.203125 57.027344 37.105469 57.609375 37 58.25 C 36.875 58.765625 36.742188 59.273438 36.609375 59.789062 C 36.398438 60.605469 36.199219 61.425781 36 62.25 C 33.359375 62.25 30.71875 62.25 28 62.25 C 27.25 59.25 27.25 59.25 27.5 58.25 C 27.960938 57.714844 27.960938 57.714844 28.515625 57.1875 C 28.699219 57.011719 28.882812 56.835938 29.070312 56.652344 C 29.285156 56.453125 29.285156 56.453125 29.5 56.25 C 29.238281 55.566406 28.996094 54.996094 28.578125 54.390625 C 28.058594 53.378906 28.421875 52.535156 28.710938 51.472656 C 29.4375 49.433594 29.4375 49.433594 30.363281 48.890625 C 31.265625 48.617188 32.058594 48.5 33 48.5 C 33 47.34375 33 46.191406 33 45 C 33.515625 44.863281 34.03125 44.734375 34.5625 44.59375 C 38.265625 43.558594 41.125 41.8125 43.125 38.46875 C 44.03125 36.734375 44.570312 34.898438 45 33 C 46.15625 33 47.308594 33 48.5 33 C 48.617188 32.335938 48.617188 32.335938 48.734375 31.65625 C 48.96875 30.3125 48.96875 30.3125 49.25 29.75 C 49.804688 29.460938 50.347656 29.203125 50.921875 28.953125 C 51.152344 28.84375 51.152344 28.84375 51.386719 28.738281 C 52.445312 28.273438 53.140625 28.175781 54.25 28.5 C 55.09375 29.015625 55.09375 29.015625 55.75 29.5 C 56.574219 29.148438 56.96875 28.761719 57.515625 28.0625 C 58.328125 27.210938 58.777344 27.164062 59.921875 27.375 Z M 59.921875 27.375 "/>
<path style=" stroke:none;fill-rule:nonzero;fill:rgb(96.470588%,72.941178%,26.666668%);fill-opacity:1;" d="M 28 1.75 C 30.640625 1.75 33.28125 1.75 36 1.75 C 36.75 4.75 36.75 4.75 36.5 5.75 C 36.039062 6.285156 36.039062 6.285156 35.484375 6.8125 C 35.300781 6.988281 35.117188 7.164062 34.925781 7.347656 C 34.789062 7.480469 34.644531 7.613281 34.5 7.75 C 34.761719 8.4375 35.007812 9.011719 35.421875 9.625 C 35.925781 10.585938 35.554688 11.289062 35.289062 12.308594 C 34.5625 14.558594 34.5625 14.558594 33.636719 15.128906 C 32.738281 15.398438 31.941406 15.5 31 15.5 C 31 16.65625 31 17.808594 31 19 C 30.761719 19.054688 30.523438 19.109375 30.277344 19.164062 C 26.574219 20.054688 23.476562 21.578125 21.296875 24.828125 C 20.140625 26.761719 19.496094 28.816406 19 31 C 17.84375 31 16.691406 31 15.5 31 C 15.421875 31.441406 15.34375 31.886719 15.265625 32.34375 C 15.03125 33.6875 15.03125 33.6875 14.75 34.25 C 14.238281 34.484375 13.714844 34.691406 13.1875 34.890625 C 12.761719 35.050781 12.761719 35.050781 12.324219 35.21875 C 10.925781 35.695312 10.925781 35.695312 10.25 35.75 C 9.691406 35.464844 9.238281 35.113281 8.738281 34.734375 C 8.253906 34.433594 8.253906 34.433594 7.738281 34.652344 C 7.207031 35.03125 6.882812 35.425781 6.484375 35.9375 C 6.03125 36.410156 6.03125 36.410156 5.5 36.75 C 4.527344 36.765625 3.675781 36.53125 2.75 36.25 C 2.421875 36.167969 2.089844 36.085938 1.75 36 C 1.75 33.359375 1.75 30.71875 1.75 28 C 4.703125 27.375 4.703125 27.375 5.632812 27.191406 C 7.023438 26.917969 7.023438 26.917969 8.082031 26.066406 C 8.273438 25.546875 8.390625 25.042969 8.5 24.5 C 8.613281 24.183594 8.738281 23.867188 8.863281 23.554688 C 9.328125 22.390625 9.328125 22.390625 9.78125 21.226562 C 10 20.75 10 20.75 10.324219 20.277344 C 10.664062 19.753906 10.878906 19.367188 11 18.75 C 10.671875 17.789062 10.113281 17.011719 9.53125 16.1875 C 9.234375 15.75 8.933594 15.3125 8.640625 14.871094 C 8.507812 14.679688 8.371094 14.488281 8.234375 14.289062 C 8 13.75 8 13.75 8.140625 13.25 C 8.578125 12.640625 9.054688 12.136719 9.585938 11.613281 C 9.800781 11.402344 10.011719 11.191406 10.234375 10.972656 C 10.453125 10.753906 10.675781 10.539062 10.90625 10.3125 C 11.128906 10.089844 11.355469 9.867188 11.585938 9.640625 C 12.140625 9.09375 12.695312 8.546875 13.25 8 C 14.070312 8.300781 14.71875 8.621094 15.402344 9.164062 C 17.183594 10.550781 17.183594 10.550781 19.308594 10.933594 C 20.46875 10.550781 21.46875 9.914062 22.5 9.273438 C 23.261719 8.859375 24 8.703125 24.84375 8.515625 C 25.84375 8.246094 25.84375 8.246094 26.578125 7.578125 C 26.796875 6.972656 26.894531 6.390625 27 5.75 C 27.125 5.234375 27.257812 4.726562 27.390625 4.210938 C 27.601562 3.394531 27.800781 2.574219 28 1.75 Z M 28 1.75 "/>
<path style=" stroke:none;fill-rule:nonzero;fill:rgb(30.588236%,39.607844%,45.490196%);fill-opacity:1;" d="M 7.75 34.25 C 8.265625 34.421875 8.265625 34.421875 9 34.75 C 9.152344 34.800781 9.304688 34.859375 9.464844 34.914062 C 10.082031 35.210938 10.363281 35.421875 10.75 36 C 10.917969 37.066406 10.953125 38.089844 10.957031 39.171875 C 10.964844 39.929688 11.058594 40.59375 11.257812 41.328125 C 11.523438 42.347656 11.457031 42.976562 11.25 44 C 10.789062 46.316406 10.761719 48.421875 12 50.5 C 13.234375 51.953125 14.695312 52.847656 16.59375 53.070312 C 18.152344 53.128906 19.550781 52.816406 21 52.25 C 21.082031 52.167969 21.164062 52.085938 21.25 52 C 21.636719 51.980469 22.023438 51.980469 22.40625 51.984375 C 22.644531 51.988281 22.886719 51.988281 23.128906 51.988281 C 23.628906 51.996094 24.128906 52.003906 24.632812 52.011719 C 26.03125 52.019531 27.363281 51.960938 28.75 51.75 C 28.683594 52.039062 28.613281 52.328125 28.546875 52.625 C 28.414062 53.582031 28.59375 54.023438 29.140625 54.8125 C 29.265625 54.96875 29.390625 55.125 29.515625 55.285156 C 29.75 55.75 29.75 55.75 29.59375 56.253906 C 29.226562 56.789062 28.828125 57.210938 28.359375 57.65625 C 27.714844 58.261719 27.714844 58.261719 27.25 59 C 26.566406 58.746094 25.996094 58.496094 25.390625 58.078125 C 24.523438 57.632812 24.191406 57.738281 23.25 58 C 22.917969 58.0625 22.917969 58.0625 22.578125 58.128906 C 21.769531 58.332031 21.191406 58.527344 20.5 59 C 19.949219 60.085938 19.753906 61.042969 19.5 62.25 C 18.179688 62.25 16.859375 62.25 15.5 62.25 C 14.75 60.125 14.75 60.125 14.75 59 C 14.578125 58.953125 14.414062 58.902344 14.238281 58.851562 C 14.015625 58.789062 13.792969 58.722656 13.5625 58.65625 C 13.34375 58.59375 13.121094 58.527344 12.894531 58.460938 C 12.25 58.25 12.25 58.25 11.710938 57.972656 C 10.988281 57.621094 10.511719 57.789062 9.75 58 C 9.492188 58.175781 9.234375 58.351562 8.96875 58.53125 C 8.25 59 8.25 59 7.78125 58.972656 C 7.050781 58.667969 6.609375 58.226562 6.046875 57.671875 C 5.84375 57.476562 5.640625 57.28125 5.433594 57.078125 C 5 56.5 5 56.5 5.027344 55.980469 C 5.320312 55.351562 5.675781 54.796875 6.066406 54.21875 C 6.476562 53.179688 5.859375 52.066406 5.484375 51.078125 C 5 49.804688 5 49.804688 5 49.25 C 4.695312 49.21875 4.390625 49.1875 4.078125 49.15625 C 3.167969 49.0625 2.65625 48.863281 1.75 48.5 C 1.75 47.179688 1.75 45.859375 1.75 44.5 C 4.15625 43.75 4.15625 43.75 5 43.75 C 5.046875 43.578125 5.097656 43.414062 5.148438 43.238281 C 5.210938 43.015625 5.277344 42.792969 5.34375 42.5625 C 5.40625 42.34375 5.472656 42.121094 5.539062 41.894531 C 5.75 41.25 5.75 41.25 6.027344 40.703125 C 6.355469 40.035156 6.230469 39.703125 6 39 C 5.683594 38.40625 5.339844 37.828125 5 37.25 C 5 37.085938 5 36.921875 5 36.75 C 5.410156 36.34375 5.410156 36.34375 5.953125 35.890625 C 6.578125 35.363281 7.179688 34.835938 7.75 34.25 Z M 7.75 34.25 "/>
<path style=" stroke:none;fill-rule:nonzero;fill:rgb(99.607843%,66.666669%,1.176471%);fill-opacity:1;" d="M 35.6875 45.453125 C 38.988281 46.761719 42.148438 47.34375 45.703125 47.328125 C 45.984375 47.328125 46.269531 47.328125 46.558594 47.328125 C 48.460938 47.308594 50.203125 47.125 52.035156 46.640625 C 52.835938 46.484375 53.246094 46.429688 54 46.75 C 54.4375 47.324219 54.769531 47.828125 55.109375 48.453125 C 55.25 48.6875 55.25 48.6875 55.394531 48.929688 C 55.65625 49.394531 55.65625 49.394531 56 50.25 C 55.699219 51.15625 55.082031 51.726562 54.414062 52.386719 C 54.199219 52.597656 53.988281 52.808594 53.765625 53.027344 C 53.433594 53.351562 53.433594 53.351562 53.09375 53.6875 C 52.871094 53.910156 52.644531 54.128906 52.414062 54.359375 C 51.859375 54.90625 51.304688 55.457031 50.75 56 C 49.929688 55.699219 49.28125 55.378906 48.597656 54.832031 C 46.816406 53.445312 46.816406 53.445312 44.691406 53.0625 C 43.53125 53.449219 42.53125 54.085938 41.5 54.726562 C 40.738281 55.144531 40 55.296875 39.15625 55.484375 C 38.15625 55.753906 38.15625 55.753906 37.421875 56.417969 C 37.203125 57.027344 37.105469 57.609375 37 58.25 C 36.875 58.761719 36.742188 59.277344 36.609375 59.789062 C 36.398438 60.605469 36.199219 61.429688 36 62.25 C 33.359375 62.25 30.71875 62.25 28 62.25 C 27.25 59.25 27.25 59.25 27.5 58.25 C 27.960938 57.714844 27.960938 57.714844 28.515625 57.1875 C 28.699219 57.011719 28.882812 56.832031 29.074219 56.652344 C 29.210938 56.519531 29.355469 56.386719 29.5 56.25 C 29.238281 55.566406 28.996094 54.996094 28.578125 54.390625 C 28.058594 53.378906 28.421875 52.535156 28.710938 51.472656 C 29.433594 49.4375 29.433594 49.4375 30.363281 48.890625 C 31.261719 48.617188 32.058594 48.5 33 48.5 C 33 47.34375 33 46.191406 33 45 C 34.039062 44.652344 34.71875 45.0625 35.6875 45.453125 Z M 35.6875 45.453125 "/>
<path style=" stroke:none;fill-rule:nonzero;fill:rgb(99.607843%,66.666669%,1.176471%);fill-opacity:1;" d="M 13.25 8 C 14.253906 8.390625 15.148438 8.855469 16.078125 9.40625 C 16.480469 9.640625 16.480469 9.640625 16.886719 9.886719 C 17.191406 10.066406 17.191406 10.066406 17.5 10.25 C 17.378906 10.753906 17.253906 11.261719 17.136719 11.761719 C 16.070312 17.613281 16.511719 23.71875 18.824219 29.210938 C 19 29.75 19 29.75 19 31 C 17.84375 31 16.691406 31 15.5 31 C 15.421875 31.441406 15.34375 31.886719 15.265625 32.34375 C 15.03125 33.6875 15.03125 33.6875 14.75 34.25 C 14.238281 34.484375 13.714844 34.691406 13.1875 34.890625 C 12.761719 35.050781 12.761719 35.050781 12.324219 35.21875 C 10.925781 35.695312 10.925781 35.695312 10.25 35.75 C 9.691406 35.464844 9.238281 35.113281 8.738281 34.734375 C 8.253906 34.433594 8.253906 34.433594 7.738281 34.652344 C 7.207031 35.03125 6.882812 35.425781 6.484375 35.9375 C 6.03125 36.410156 6.03125 36.410156 5.5 36.75 C 4.527344 36.765625 3.675781 36.53125 2.75 36.25 C 2.421875 36.167969 2.089844 36.085938 1.75 36 C 1.75 33.359375 1.75 30.71875 1.75 28 C 4.703125 27.375 4.703125 27.375 5.632812 27.191406 C 7.023438 26.917969 7.023438 26.917969 8.082031 26.066406 C 8.273438 25.546875 8.390625 25.042969 8.5 24.5 C 8.613281 24.183594 8.738281 23.867188 8.863281 23.554688 C 9.328125 22.390625 9.328125 22.390625 9.78125 21.226562 C 10 20.75 10 20.75 10.324219 20.277344 C 10.664062 19.753906 10.878906 19.367188 11 18.75 C 10.671875 17.789062 10.113281 17.011719 9.53125 16.1875 C 9.234375 15.75 8.933594 15.3125 8.640625 14.871094 C 8.507812 14.679688 8.371094 14.488281 8.234375 14.289062 C 8 13.75 8 13.75 8.140625 13.25 C 8.578125 12.640625 9.054688 12.136719 9.585938 11.613281 C 9.800781 11.402344 10.011719 11.191406 10.234375 10.972656 C 10.453125 10.753906 10.675781 10.539062 10.90625 10.3125 C 11.128906 10.089844 11.355469 9.867188 11.585938 9.640625 C 12.140625 9.09375 12.695312 8.546875 13.25 8 Z M 13.25 8 "/>
<path style=" stroke:none;fill-rule:nonzero;fill:rgb(92.156863%,46.27451%,48.235294%);fill-opacity:1;" d="M 44.5 1.75 C 45.820312 1.75 47.140625 1.75 48.5 1.75 C 49.25 3.875 49.25 3.875 49.25 5 C 49.421875 5.046875 49.585938 5.097656 49.761719 5.148438 C 49.984375 5.210938 50.207031 5.277344 50.4375 5.34375 C 50.65625 5.40625 50.878906 5.472656 51.105469 5.539062 C 51.75 5.75 51.75 5.75 52.289062 6.027344 C 53.011719 6.378906 53.488281 6.210938 54.25 6 C 54.507812 5.824219 54.765625 5.648438 55.03125 5.46875 C 55.75 5 55.75 5 56.21875 5.027344 C 56.949219 5.332031 57.390625 5.773438 57.953125 6.328125 C 58.15625 6.523438 58.359375 6.71875 58.566406 6.921875 C 59 7.5 59 7.5 58.972656 8.019531 C 58.679688 8.648438 58.324219 9.203125 57.933594 9.78125 C 57.523438 10.820312 58.140625 11.933594 58.515625 12.921875 C 59 14.195312 59 14.195312 59 14.75 C 59.457031 14.796875 59.457031 14.796875 59.921875 14.84375 C 60.832031 14.9375 61.34375 15.136719 62.25 15.5 C 62.25 16.820312 62.25 18.140625 62.25 19.5 C 59.84375 20.25 59.84375 20.25 59 20.25 C 58.753906 21.074219 58.503906 21.898438 58.25 22.75 C 56.765625 23.074219 55.292969 23.027344 53.78125 23.015625 C 53.378906 23.015625 53.378906 23.015625 52.96875 23.011719 C 52.316406 23.011719 51.65625 23.003906 51 23 C 51.296875 22.382812 51.59375 21.871094 52 21.3125 C 53.039062 19.628906 53.261719 17.699219 53 15.75 C 52.378906 13.824219 51.300781 12.460938 49.53125 11.492188 C 47.789062 10.730469 45.800781 10.78125 43.988281 11.292969 C 42.726562 11.828125 41.695312 12.773438 40.75 13.75 C 39.816406 12.003906 39.714844 10.609375 39.734375 8.671875 C 39.734375 8.460938 39.738281 8.253906 39.738281 8.039062 C 39.738281 7.523438 39.746094 7.011719 39.75 6.5 C 40.183594 6.296875 40.613281 6.09375 41.046875 5.890625 C 41.289062 5.777344 41.527344 5.664062 41.777344 5.546875 C 42.441406 5.273438 43.042969 5.113281 43.75 5 C 43.78125 4.808594 43.816406 4.613281 43.851562 4.414062 C 43.894531 4.164062 43.941406 3.914062 43.984375 3.65625 C 44.027344 3.40625 44.074219 3.15625 44.113281 2.898438 C 44.25 2.25 44.25 2.25 44.5 1.75 Z M 44.5 1.75 "/>
<path style=" stroke:none;fill-rule:nonzero;fill:rgb(96.078432%,72.941178%,27.058825%);fill-opacity:1;" d="M 46.609375 10.671875 C 48.488281 10.699219 50.074219 11.269531 51.46875 12.546875 C 52.820312 14.050781 53.410156 15.613281 53.3125 17.632812 C 53.113281 19.621094 52.691406 21.046875 51.25 22.5 C 49.3125 23.996094 47.445312 24.546875 45 24.25 C 42.816406 23.519531 41.433594 22.207031 40.25 20.25 C 39.527344 18.703125 39.472656 17.011719 39.921875 15.367188 C 40.75 13.355469 42.019531 11.902344 44 11 C 44.71875 10.953125 44.71875 10.953125 45.25 11 C 45.648438 10.601562 46.058594 10.6875 46.609375 10.671875 Z M 46.609375 10.671875 "/>
<path style=" stroke:none;fill-rule:nonzero;fill:rgb(99.215686%,66.666669%,1.568628%);fill-opacity:1;" d="M 20.660156 40.402344 C 22.433594 41.449219 23.730469 43 24.25 45 C 24.550781 47.136719 24.089844 48.953125 22.921875 50.761719 C 21.914062 52.054688 20.699219 52.699219 19.15625 53.1875 C 16.84375 53.410156 14.9375 53.285156 12.988281 51.878906 C 11.664062 50.6875 10.910156 49.191406 10.671875 47.417969 C 10.65625 46.851562 10.6875 46.316406 10.75 45.75 C 10.769531 45.5625 10.792969 45.375 10.8125 45.179688 C 11.058594 43.675781 11.652344 42.5625 12.75 41.5 C 15.257812 39.703125 17.75 39.085938 20.660156 40.402344 Z M 20.660156 40.402344 "/>
</g>
</svg>
