<?xml version="1.0" encoding="UTF-8"?>
<svg xmlns="http://www.w3.org/2000/svg" xmlns:xlink="http://www.w3.org/1999/xlink" width="64" height="64" viewBox="0 0 64 64" version="1.1">
<g id="surface1">
<path style=" stroke:none;fill-rule:nonzero;fill:rgb(99.607843%,61.176473%,0%);fill-opacity:1;" d="M 16.515625 1.679688 C 16.890625 1.679688 17.265625 1.679688 17.640625 1.675781 C 18.648438 1.675781 19.660156 1.675781 20.671875 1.675781 C 21.515625 1.675781 22.363281 1.675781 23.210938 1.671875 C 25.210938 1.667969 27.207031 1.667969 29.207031 1.671875 C 31.265625 1.675781 33.320312 1.667969 35.375 1.664062 C 37.144531 1.660156 38.917969 1.660156 40.6875 1.660156 C 41.742188 1.660156 42.800781 1.660156 43.855469 1.65625 C 44.847656 1.652344 45.839844 1.652344 46.832031 1.65625 C 47.195312 1.65625 47.554688 1.65625 47.917969 1.652344 C 52.53125 1.628906 56.625 2.707031 60 6 C 62.648438 9.023438 64.078125 12.207031 64.070312 16.222656 C 64.074219 16.457031 64.078125 16.699219 64.078125 16.945312 C 64.082031 17.730469 64.082031 18.515625 64.082031 19.300781 C 64.085938 19.847656 64.085938 20.398438 64.089844 20.949219 C 64.089844 22.101562 64.09375 23.25 64.089844 24.402344 C 64.089844 25.871094 64.097656 27.339844 64.109375 28.808594 C 64.113281 29.945312 64.113281 31.078125 64.113281 32.214844 C 64.113281 32.757812 64.117188 33.296875 64.121094 33.839844 C 64.152344 38.984375 63.355469 42.992188 59.679688 46.867188 C 58.394531 48.058594 56.976562 49.105469 55.25 49.5 C 55.316406 49.792969 55.316406 49.792969 55.382812 50.089844 C 55.582031 50.972656 55.785156 51.863281 55.984375 52.75 C 56.054688 53.054688 56.125 53.363281 56.195312 53.675781 C 57.269531 58.472656 57.269531 58.472656 56.5 60.25 C 55.621094 61.347656 54.636719 62.097656 53.222656 62.339844 C 50.894531 62.488281 49.285156 60.882812 47.59375 59.46875 C 47.242188 59.179688 46.890625 58.890625 46.535156 58.597656 C 46.363281 58.457031 46.1875 58.3125 46.007812 58.164062 C 45.265625 57.554688 44.507812 56.964844 43.75 56.375 C 42.253906 55.207031 40.777344 54.015625 39.308594 52.808594 C 39.148438 52.679688 38.988281 52.550781 38.828125 52.414062 C 38.683594 52.296875 38.542969 52.179688 38.394531 52.0625 C 36.820312 50.824219 34.859375 51.070312 32.925781 51.035156 C 32.449219 51.019531 31.972656 51.003906 31.496094 50.976562 C 28.707031 50.828125 26.703125 50.929688 24.519531 52.804688 C 24.0625 53.222656 23.617188 53.652344 23.179688 54.089844 C 22.496094 54.742188 21.75 55.304688 21 55.875 C 19.886719 56.742188 18.785156 57.625 17.695312 58.523438 C 13.035156 62.351562 13.035156 62.351562 10.863281 62.320312 C 9.488281 62.164062 8.546875 61.582031 7.640625 60.5625 C 6.574219 58.34375 7.226562 56.214844 7.71875 53.921875 C 7.792969 53.578125 7.863281 53.230469 7.929688 52.882812 C 8.445312 50.417969 8.445312 50.417969 8.75 49.5 C 8.613281 49.472656 8.472656 49.449219 8.332031 49.425781 C 5.195312 48.488281 3.007812 45.742188 1.5 43 C 0.417969 40.714844 -0.0351562 38.867188 -0.0429688 36.363281 C -0.046875 36.125 -0.046875 35.886719 -0.046875 35.640625 C -0.0546875 34.851562 -0.0546875 34.0625 -0.0585938 33.273438 C -0.0625 33.003906 -0.0625 32.730469 -0.0625 32.453125 C -0.0703125 31.019531 -0.0703125 29.585938 -0.0742188 28.152344 C -0.0742188 26.679688 -0.0859375 25.203125 -0.0976562 23.730469 C -0.101562 22.589844 -0.105469 21.453125 -0.105469 20.3125 C -0.105469 19.769531 -0.109375 19.230469 -0.113281 18.6875 C -0.152344 13.949219 0.433594 9.820312 3.789062 6.179688 C 7.605469 2.625 11.445312 1.671875 16.515625 1.679688 Z M 16.515625 1.679688 "/>
<path style=" stroke:none;fill-rule:nonzero;fill:rgb(97.254902%,45.882353%,9.019608%);fill-opacity:1;" d="M 16.515625 1.679688 C 16.890625 1.679688 17.265625 1.679688 17.640625 1.675781 C 18.648438 1.675781 19.660156 1.675781 20.671875 1.675781 C 21.515625 1.675781 22.363281 1.675781 23.210938 1.671875 C 25.210938 1.667969 27.207031 1.667969 29.207031 1.671875 C 31.265625 1.675781 33.320312 1.667969 35.375 1.664062 C 37.144531 1.660156 38.917969 1.660156 40.6875 1.660156 C 41.742188 1.660156 42.800781 1.660156 43.855469 1.65625 C 44.847656 1.652344 45.839844 1.652344 46.832031 1.65625 C 47.195312 1.65625 47.554688 1.65625 47.917969 1.652344 C 52.53125 1.628906 56.625 2.707031 60 6 C 62.648438 9.023438 64.078125 12.207031 64.070312 16.222656 C 64.074219 16.457031 64.078125 16.699219 64.078125 16.945312 C 64.082031 17.730469 64.082031 18.515625 64.082031 19.300781 C 64.085938 19.847656 64.085938 20.398438 64.089844 20.949219 C 64.089844 22.101562 64.09375 23.25 64.089844 24.402344 C 64.089844 25.871094 64.097656 27.339844 64.109375 28.808594 C 64.113281 29.945312 64.113281 31.078125 64.113281 32.214844 C 64.113281 32.757812 64.117188 33.296875 64.121094 33.839844 C 64.152344 38.984375 63.355469 42.992188 59.679688 46.867188 C 58.394531 48.058594 56.976562 49.105469 55.25 49.5 C 55.316406 49.792969 55.316406 49.792969 55.382812 50.089844 C 55.582031 50.972656 55.785156 51.863281 55.984375 52.75 C 56.054688 53.054688 56.125 53.363281 56.195312 53.675781 C 57.269531 58.472656 57.269531 58.472656 56.5 60.25 C 55.621094 61.347656 54.636719 62.097656 53.222656 62.339844 C 50.894531 62.488281 49.285156 60.882812 47.59375 59.46875 C 47.242188 59.179688 46.890625 58.890625 46.535156 58.597656 C 46.363281 58.457031 46.1875 58.3125 46.007812 58.164062 C 45.265625 57.554688 44.507812 56.964844 43.75 56.375 C 42.253906 55.207031 40.777344 54.015625 39.308594 52.808594 C 39.148438 52.679688 38.988281 52.550781 38.828125 52.414062 C 38.683594 52.296875 38.542969 52.179688 38.394531 52.0625 C 36.820312 50.824219 34.859375 51.070312 32.925781 51.035156 C 32.449219 51.019531 31.972656 51.003906 31.496094 50.976562 C 28.707031 50.828125 26.703125 50.929688 24.519531 52.804688 C 24.0625 53.222656 23.617188 53.652344 23.179688 54.089844 C 22.496094 54.742188 21.75 55.304688 21 55.875 C 19.886719 56.742188 18.785156 57.625 17.695312 58.523438 C 13.035156 62.351562 13.035156 62.351562 10.863281 62.320312 C 9.488281 62.164062 8.546875 61.582031 7.640625 60.5625 C 6.574219 58.34375 7.226562 56.214844 7.71875 53.921875 C 7.792969 53.578125 7.863281 53.230469 7.929688 52.882812 C 8.445312 50.417969 8.445312 50.417969 8.75 49.5 C 8.613281 49.472656 8.472656 49.449219 8.332031 49.425781 C 5.195312 48.488281 3.007812 45.742188 1.5 43 C 0.417969 40.714844 -0.0351562 38.867188 -0.0429688 36.363281 C -0.046875 36.125 -0.046875 35.886719 -0.046875 35.640625 C -0.0546875 34.851562 -0.0546875 34.0625 -0.0585938 33.273438 C -0.0625 33.003906 -0.0625 32.730469 -0.0625 32.453125 C -0.0703125 31.019531 -0.0703125 29.585938 -0.0742188 28.152344 C -0.0742188 26.679688 -0.0859375 25.203125 -0.0976562 23.730469 C -0.101562 22.589844 -0.105469 21.453125 -0.105469 20.3125 C -0.105469 19.769531 -0.109375 19.230469 -0.113281 18.6875 C -0.152344 13.949219 0.433594 9.820312 3.789062 6.179688 C 7.605469 2.625 11.445312 1.671875 16.515625 1.679688 Z M 4.9375 7.707031 C 4.175781 8.65625 3.578125 9.679688 3 10.75 C 2.855469 11.003906 2.710938 11.257812 2.5625 11.515625 C 1.589844 13.800781 1.671875 16.160156 1.675781 18.597656 C 1.675781 18.996094 1.675781 19.394531 1.671875 19.792969 C 1.667969 20.625 1.667969 21.457031 1.671875 22.289062 C 1.671875 23.347656 1.667969 24.402344 1.660156 25.460938 C 1.660156 26.285156 1.660156 27.105469 1.660156 27.925781 C 1.660156 28.316406 1.660156 28.707031 1.65625 29.097656 C 1.628906 33.585938 2.425781 37.304688 5.59375 40.660156 C 8.132812 42.945312 11.167969 44.277344 14.574219 44.285156 C 15.050781 44.285156 15.050781 44.285156 15.535156 44.289062 C 15.886719 44.289062 16.238281 44.289062 16.585938 44.292969 C 16.957031 44.292969 17.328125 44.292969 17.695312 44.292969 C 18.703125 44.296875 19.707031 44.300781 20.707031 44.300781 C 21.339844 44.300781 21.964844 44.300781 22.59375 44.304688 C 24.5625 44.304688 26.53125 44.308594 28.5 44.308594 C 30.765625 44.3125 33.035156 44.316406 35.300781 44.320312 C 37.054688 44.328125 38.8125 44.332031 40.570312 44.332031 C 41.617188 44.332031 42.664062 44.332031 43.707031 44.335938 C 44.695312 44.339844 45.679688 44.339844 46.667969 44.339844 C 47.027344 44.339844 47.390625 44.339844 47.75 44.34375 C 52.058594 44.371094 55.703125 43.265625 58.863281 40.222656 C 61.820312 36.863281 62.367188 33.097656 62.347656 28.757812 C 62.347656 28.355469 62.351562 27.949219 62.351562 27.546875 C 62.355469 26.703125 62.351562 25.863281 62.347656 25.019531 C 62.34375 23.949219 62.347656 22.878906 62.351562 21.804688 C 62.355469 20.972656 62.351562 20.140625 62.351562 19.308594 C 62.347656 18.914062 62.351562 18.519531 62.351562 18.125 C 62.367188 13.765625 61.441406 10.3125 58.367188 7.070312 C 55.800781 4.703125 52.628906 3.476562 49.148438 3.464844 C 48.675781 3.460938 48.675781 3.460938 48.1875 3.457031 C 47.839844 3.457031 47.492188 3.457031 47.144531 3.457031 C 46.773438 3.453125 46.402344 3.453125 46.035156 3.453125 C 44.824219 3.445312 43.617188 3.445312 42.40625 3.441406 C 41.988281 3.4375 41.570312 3.4375 41.152344 3.4375 C 39.1875 3.429688 37.222656 3.429688 35.257812 3.425781 C 32.996094 3.425781 30.738281 3.417969 28.472656 3.410156 C 26.722656 3.402344 24.96875 3.394531 23.21875 3.394531 C 22.175781 3.394531 21.128906 3.394531 20.085938 3.386719 C 19.101562 3.382812 18.117188 3.378906 17.132812 3.382812 C 16.773438 3.382812 16.417969 3.382812 16.054688 3.375 C 11.828125 3.339844 7.890625 4.542969 4.9375 7.707031 Z M 4.9375 7.707031 "/>
<path style=" stroke:none;fill-rule:nonzero;fill:rgb(1.176471%,0.392157%,0%);fill-opacity:1;" d="M 16.515625 1.679688 C 16.890625 1.679688 17.265625 1.679688 17.640625 1.675781 C 18.648438 1.675781 19.660156 1.675781 20.671875 1.675781 C 21.515625 1.675781 22.363281 1.675781 23.210938 1.671875 C 25.210938 1.667969 27.207031 1.667969 29.207031 1.671875 C 31.265625 1.675781 33.320312 1.667969 35.375 1.664062 C 37.144531 1.660156 38.917969 1.660156 40.6875 1.660156 C 41.742188 1.660156 42.800781 1.660156 43.855469 1.65625 C 44.847656 1.652344 45.839844 1.652344 46.832031 1.65625 C 47.195312 1.65625 47.554688 1.65625 47.917969 1.652344 C 52.53125 1.628906 56.625 2.707031 60 6 C 62.648438 9.023438 64.078125 12.207031 64.070312 16.222656 C 64.074219 16.457031 64.078125 16.699219 64.078125 16.945312 C 64.082031 17.730469 64.082031 18.515625 64.082031 19.300781 C 64.085938 19.847656 64.085938 20.398438 64.089844 20.949219 C 64.089844 22.101562 64.09375 23.25 64.089844 24.402344 C 64.089844 25.871094 64.097656 27.339844 64.109375 28.808594 C 64.113281 29.945312 64.113281 31.078125 64.113281 32.214844 C 64.113281 32.757812 64.117188 33.296875 64.121094 33.839844 C 64.152344 38.984375 63.355469 42.992188 59.679688 46.867188 C 58.394531 48.058594 56.976562 49.105469 55.25 49.5 C 55.316406 49.792969 55.316406 49.792969 55.382812 50.089844 C 55.582031 50.972656 55.785156 51.863281 55.984375 52.75 C 56.054688 53.054688 56.125 53.363281 56.195312 53.675781 C 57.269531 58.472656 57.269531 58.472656 56.5 60.25 C 55.621094 61.347656 54.636719 62.097656 53.222656 62.339844 C 50.894531 62.488281 49.285156 60.882812 47.59375 59.46875 C 47.242188 59.179688 46.890625 58.890625 46.535156 58.597656 C 46.363281 58.457031 46.1875 58.3125 46.007812 58.164062 C 45.265625 57.554688 44.507812 56.964844 43.75 56.375 C 42.253906 55.207031 40.777344 54.015625 39.308594 52.808594 C 39.148438 52.679688 38.988281 52.550781 38.828125 52.414062 C 38.683594 52.296875 38.542969 52.179688 38.394531 52.0625 C 36.820312 50.824219 34.859375 51.070312 32.925781 51.035156 C 32.449219 51.019531 31.972656 51.003906 31.496094 50.976562 C 28.707031 50.828125 26.703125 50.929688 24.519531 52.804688 C 24.0625 53.222656 23.617188 53.652344 23.179688 54.089844 C 22.496094 54.742188 21.75 55.304688 21 55.875 C 19.886719 56.742188 18.785156 57.625 17.695312 58.523438 C 13.035156 62.351562 13.035156 62.351562 10.863281 62.320312 C 9.488281 62.164062 8.546875 61.582031 7.640625 60.5625 C 6.574219 58.34375 7.226562 56.214844 7.71875 53.921875 C 7.792969 53.578125 7.863281 53.230469 7.929688 52.882812 C 8.445312 50.417969 8.445312 50.417969 8.75 49.5 C 8.613281 49.472656 8.472656 49.449219 8.332031 49.425781 C 5.195312 48.488281 3.007812 45.742188 1.5 43 C 0.417969 40.714844 -0.0351562 38.867188 -0.0429688 36.363281 C -0.046875 36.125 -0.046875 35.886719 -0.046875 35.640625 C -0.0546875 34.851562 -0.0546875 34.0625 -0.0585938 33.273438 C -0.0625 33.003906 -0.0625 32.730469 -0.0625 32.453125 C -0.0703125 31.019531 -0.0703125 29.585938 -0.0742188 28.152344 C -0.0742188 26.679688 -0.0859375 25.203125 -0.0976562 23.730469 C -0.101562 22.589844 -0.105469 21.453125 -0.105469 20.3125 C -0.105469 19.769531 -0.109375 19.230469 -0.113281 18.6875 C -0.152344 13.949219 0.433594 9.820312 3.789062 6.179688 C 7.605469 2.625 11.445312 1.671875 16.515625 1.679688 Z M 4.9375 7.707031 C 4.175781 8.65625 3.578125 9.679688 3 10.75 C 2.855469 11.003906 2.710938 11.257812 2.5625 11.515625 C 1.820312 13.265625 1.675781 15.027344 1.675781 16.910156 C 1.675781 17.140625 1.675781 17.371094 1.671875 17.605469 C 1.667969 18.359375 1.667969 19.113281 1.667969 19.863281 C 1.664062 20.390625 1.664062 20.917969 1.660156 21.445312 C 1.660156 22.550781 1.65625 23.652344 1.65625 24.757812 C 1.65625 26.167969 1.652344 27.574219 1.640625 28.980469 C 1.636719 30.070312 1.636719 31.160156 1.636719 32.25 C 1.632812 32.769531 1.632812 33.289062 1.628906 33.804688 C 1.597656 38.25 2.222656 41.917969 5.3125 45.335938 C 6.824219 46.765625 8.570312 47.75 10.5 48.5 C 10.269531 50.203125 9.980469 51.875 9.605469 53.550781 C 8.738281 56.730469 8.738281 56.730469 9.46875 59.765625 C 10.105469 60.347656 10.347656 60.488281 11.207031 60.5625 C 12.132812 60.488281 12.472656 60.285156 13.203125 59.71875 C 13.441406 59.535156 13.675781 59.355469 13.921875 59.167969 C 15.269531 58.085938 16.605469 56.984375 17.929688 55.878906 C 18.992188 55 20.0625 54.136719 21.160156 53.304688 C 21.914062 52.730469 22.617188 52.148438 23.285156 51.476562 C 25.503906 49.339844 27.410156 48.816406 30.457031 48.816406 C 30.707031 48.820312 30.957031 48.828125 31.214844 48.832031 C 31.96875 48.84375 32.714844 48.820312 33.472656 48.796875 C 36.804688 48.765625 38.707031 49.542969 41.101562 51.863281 C 41.324219 52.085938 41.324219 52.085938 41.550781 52.316406 C 42.242188 52.988281 43 53.5625 43.765625 54.140625 C 44.871094 55 45.957031 55.871094 47.042969 56.757812 C 48.949219 58.324219 48.949219 58.324219 50.90625 59.828125 C 51.175781 60.027344 51.175781 60.027344 51.445312 60.230469 C 52.175781 60.582031 52.703125 60.578125 53.5 60.5 C 54.175781 60.050781 54.636719 59.730469 55 59 C 55.230469 56.875 54.707031 54.828125 54.25 52.765625 C 54.109375 52.117188 53.96875 51.46875 53.828125 50.820312 C 53.734375 50.394531 53.734375 50.394531 53.640625 49.960938 C 53.5 49.25 53.5 49.25 53.5 48.5 C 53.730469 48.394531 53.957031 48.289062 54.195312 48.179688 C 57.992188 46.382812 60.183594 44.128906 61.765625 40.167969 C 62.085938 39.253906 62.28125 38.457031 62.285156 37.488281 C 62.285156 37.289062 62.289062 37.089844 62.289062 36.882812 C 62.289062 36.667969 62.289062 36.449219 62.292969 36.226562 C 62.292969 35.996094 62.292969 35.765625 62.292969 35.53125 C 62.300781 34.769531 62.300781 34.007812 62.300781 33.25 C 62.300781 32.71875 62.304688 32.1875 62.304688 31.660156 C 62.308594 30.546875 62.308594 29.433594 62.308594 28.320312 C 62.3125 26.902344 62.316406 25.480469 62.324219 24.0625 C 62.328125 22.964844 62.332031 21.871094 62.332031 20.773438 C 62.332031 20.25 62.332031 19.730469 62.335938 19.203125 C 62.363281 14.414062 61.804688 10.695312 58.367188 7.070312 C 55.800781 4.703125 52.628906 3.476562 49.148438 3.464844 C 48.675781 3.460938 48.675781 3.460938 48.1875 3.457031 C 47.839844 3.457031 47.492188 3.457031 47.144531 3.457031 C 46.773438 3.453125 46.402344 3.453125 46.035156 3.453125 C 44.824219 3.445312 43.617188 3.445312 42.40625 3.441406 C 41.988281 3.4375 41.570312 3.4375 41.152344 3.4375 C 39.1875 3.429688 37.222656 3.429688 35.257812 3.425781 C 32.996094 3.425781 30.738281 3.417969 28.472656 3.410156 C 26.722656 3.402344 24.96875 3.394531 23.21875 3.394531 C 22.175781 3.394531 21.128906 3.394531 20.085938 3.386719 C 19.101562 3.382812 18.117188 3.378906 17.132812 3.382812 C 16.773438 3.382812 16.417969 3.382812 16.054688 3.375 C 11.828125 3.339844 7.890625 4.542969 4.9375 7.707031 Z M 4.9375 7.707031 "/>
<path style=" stroke:none;fill-rule:nonzero;fill:rgb(3.529412%,2.745098%,0.784314%);fill-opacity:1;" d="M 47.183594 20.839844 C 48.234375 21.597656 48.925781 22.601562 49.5 23.75 C 49.71875 25.914062 49.578125 27.722656 48.25 29.5 C 46.699219 30.972656 45.191406 31.101562 43.132812 31.085938 C 41.574219 30.933594 40.734375 30.246094 39.671875 29.15625 C 38.621094 27.527344 38.234375 26.1875 38.5 24.25 C 39.039062 22.359375 40.457031 21.128906 42.09375 20.140625 C 43.980469 19.734375 45.484375 19.90625 47.183594 20.839844 Z M 47.183594 20.839844 "/>
<path style=" stroke:none;fill-rule:nonzero;fill:rgb(3.137255%,2.352941%,0.784314%);fill-opacity:1;" d="M 22.296875 20.515625 C 23.6875 21.277344 24.542969 22.226562 25.34375 23.578125 C 25.78125 25.460938 25.59375 26.984375 24.660156 28.683594 C 23.847656 29.808594 22.808594 30.5625 21.5 31 C 19.53125 31.199219 17.808594 31.269531 16.210938 29.988281 C 14.921875 28.625 14.429688 27.21875 14.328125 25.359375 C 14.398438 23.734375 14.855469 22.65625 16 21.5 C 17.960938 19.964844 19.972656 19.445312 22.296875 20.515625 Z M 22.296875 20.515625 "/>
<path style=" stroke:none;fill-rule:nonzero;fill:rgb(3.137255%,2.352941%,1.176471%);fill-opacity:1;" d="M 34.777344 20.648438 C 35.925781 21.503906 36.96875 22.660156 37.5 24 C 37.695312 25.628906 37.652344 27.335938 36.75 28.75 C 35.601562 30.007812 34.464844 30.882812 32.738281 31.09375 C 30.617188 31.136719 29.402344 30.851562 27.867188 29.386719 C 26.589844 27.984375 26.367188 26.519531 26.40625 24.6875 C 26.636719 22.988281 27.777344 21.824219 29.082031 20.796875 C 30.78125 19.59375 32.984375 19.632812 34.777344 20.648438 Z M 34.777344 20.648438 "/>
<path style=" stroke:none;fill-rule:nonzero;fill:rgb(87.450981%,89.411765%,80.784315%);fill-opacity:1;" d="M 21.546875 22.03125 C 22.515625 22.679688 23.222656 23.445312 23.75 24.5 C 23.890625 25.664062 23.863281 26.523438 23.328125 27.578125 C 22.320312 28.746094 21.507812 29.410156 19.953125 29.59375 C 18.707031 29.472656 17.933594 29.082031 17 28.25 C 16.230469 27.28125 15.917969 26.347656 15.96875 25.109375 C 16.175781 23.875 16.808594 23.046875 17.75 22.25 C 18.992188 21.507812 20.21875 21.5625 21.546875 22.03125 Z M 21.546875 22.03125 "/>
<path style=" stroke:none;fill-rule:nonzero;fill:rgb(87.450981%,89.803922%,80.784315%);fill-opacity:1;" d="M 45.25 21.75 C 46.078125 22.171875 46.078125 22.171875 46.75 22.75 C 46.945312 22.914062 47.140625 23.078125 47.34375 23.25 C 47.996094 24.460938 47.925781 25.65625 47.75 27 C 47.21875 28.242188 46.476562 28.796875 45.269531 29.324219 C 44.457031 29.597656 43.84375 29.625 43 29.5 C 41.679688 28.800781 40.726562 27.933594 40.25 26.5 C 40.140625 25.175781 40.183594 24.261719 40.921875 23.136719 C 42.0625 21.800781 43.550781 21.441406 45.25 21.75 Z M 45.25 21.75 "/>
<path style=" stroke:none;fill-rule:nonzero;fill:rgb(87.450981%,89.803922%,80.784315%);fill-opacity:1;" d="M 33.289062 21.921875 C 34.480469 22.453125 35.203125 23.027344 35.75 24.25 C 35.972656 25.648438 35.898438 26.933594 35.101562 28.132812 C 34.195312 29.082031 33.132812 29.445312 31.859375 29.625 C 30.378906 29.410156 29.5625 28.898438 28.640625 27.71875 C 28.085938 26.601562 28.050781 25.46875 28.25 24.25 C 29.257812 22.152344 31.046875 21.199219 33.289062 21.921875 Z M 33.289062 21.921875 "/>
</g>
</svg>
