<?xml version="1.0" encoding="UTF-8"?>
<svg xmlns="http://www.w3.org/2000/svg" xmlns:xlink="http://www.w3.org/1999/xlink" width="64" height="64" viewBox="0 0 64 64" version="1.1">
<g id="surface1">
<path style=" stroke:none;fill-rule:nonzero;fill:rgb(94.901961%,34.901962%,23.137255%);fill-opacity:1;" d="M 45 0 C 46.320312 0 47.640625 0 49 0 C 49.28125 5.871094 46.800781 11.503906 44.6875 16.859375 C 40.121094 28.480469 41.496094 39.285156 46.003906 50.609375 C 47.746094 55.003906 49.066406 59.226562 49 64 C 47.679688 64 46.359375 64 45 64 C 44.972656 63.699219 44.945312 63.398438 44.914062 63.089844 C 44.34375 57.871094 42.460938 53.097656 40.527344 48.253906 C 35.617188 35.863281 37.367188 23.878906 42 11.75 C 43.492188 7.824219 44.53125 4.183594 45 0 Z M 45 0 "/>
<path style=" stroke:none;fill-rule:nonzero;fill:rgb(94.901961%,34.901962%,23.137255%);fill-opacity:1;" d="M 15 0 C 16.320312 0 17.640625 0 19 0 C 19.03125 0.308594 19.0625 0.621094 19.09375 0.9375 C 19.675781 6.066406 21.507812 10.664062 23.371094 15.441406 C 28.253906 28.039062 26.789062 40.171875 21.90625 52.511719 C 20.726562 55.484375 19.703125 58.386719 19.3125 61.578125 C 19.28125 61.816406 19.25 62.050781 19.21875 62.292969 C 19.140625 62.863281 19.070312 63.429688 19 64 C 17.679688 64 16.359375 64 15 64 C 14.753906 58.792969 16.714844 53.964844 18.542969 49.191406 C 23.351562 36.636719 22.945312 25.820312 17.996094 13.390625 C 16.253906 8.996094 14.933594 4.773438 15 0 Z M 15 0 "/>
<path style=" stroke:none;fill-rule:nonzero;fill:rgb(94.901961%,36.078432%,23.529412%);fill-opacity:1;" d="M 30 0 C 31.320312 0 32.640625 0 34 0 C 34 21.121094 34 42.238281 34 64 C 32.679688 64 31.359375 64 30 64 C 30 42.878906 30 21.761719 30 0 Z M 30 0 "/>
<path style=" stroke:none;fill-rule:nonzero;fill:rgb(22.745098%,28.627452%,31.37255%);fill-opacity:1;" d="M 57.191406 17.515625 C 58.023438 17.863281 58.59375 18.476562 59.222656 19.105469 C 59.363281 19.242188 59.5 19.378906 59.644531 19.519531 C 59.933594 19.804688 60.21875 20.09375 60.511719 20.382812 C 60.953125 20.828125 61.398438 21.265625 61.851562 21.703125 C 62.128906 21.980469 62.414062 22.265625 62.691406 22.542969 C 62.828125 22.675781 62.960938 22.804688 63.101562 22.9375 C 63.46875 23.316406 63.46875 23.316406 64 24 C 63.878906 25.140625 63.085938 25.757812 62.304688 26.519531 C 62.160156 26.660156 62.015625 26.804688 61.867188 26.953125 C 61.40625 27.40625 60.945312 27.859375 60.484375 28.3125 C 60.171875 28.621094 59.859375 28.929688 59.546875 29.238281 C 58.785156 29.992188 58.019531 30.746094 57.25 31.5 C 56.398438 31.097656 55.84375 30.648438 55.1875 29.96875 C 55.011719 29.785156 54.835938 29.605469 54.652344 29.417969 C 54.519531 29.28125 54.386719 29.140625 54.25 29 C 54.679688 28.058594 55.246094 27.460938 56 26.75 C 54.195312 26.632812 52.742188 26.640625 51.25 27.75 C 49.902344 28.988281 49.316406 30.144531 49.171875 31.984375 C 49.21875 33.496094 49.855469 34.789062 50.859375 35.914062 C 52.347656 37.195312 54.128906 37.398438 56.019531 37.402344 C 56.359375 37.410156 56.359375 37.410156 56.710938 37.414062 C 57.441406 37.425781 58.164062 37.429688 58.890625 37.4375 C 59.386719 37.445312 59.882812 37.453125 60.378906 37.460938 C 61.585938 37.480469 62.792969 37.492188 64 37.5 C 64 38.820312 64 40.140625 64 41.5 C 62.527344 41.523438 61.058594 41.542969 59.585938 41.554688 C 59.085938 41.558594 58.585938 41.566406 58.085938 41.578125 C 50.832031 41.699219 50.832031 41.699219 48 39 C 45.984375 37.039062 44.984375 34.898438 44.9375 32.078125 C 44.96875 29.414062 45.835938 27.277344 47.625 25.3125 C 47.832031 25.125 48.039062 24.941406 48.25 24.75 C 48.527344 24.492188 48.527344 24.492188 48.8125 24.234375 C 50.558594 23.003906 52.332031 22.507812 54.4375 22.359375 C 54.875 22.328125 54.875 22.328125 55.324219 22.296875 C 55.546875 22.28125 55.769531 22.265625 56 22.25 C 55.421875 21.671875 54.84375 21.09375 54.25 20.5 C 54.691406 19.617188 55.046875 19.117188 55.71875 18.421875 C 55.972656 18.152344 55.972656 18.152344 56.234375 17.878906 C 56.75 17.5 56.75 17.5 57.191406 17.515625 Z M 57.191406 17.515625 "/>
<path style=" stroke:none;fill-rule:nonzero;fill:rgb(34.509805%,41.960785%,45.490196%);fill-opacity:1;" d="M 7.054688 17.511719 C 7.714844 17.867188 8.167969 18.347656 8.6875 18.890625 C 8.886719 19.097656 9.085938 19.304688 9.292969 19.515625 C 9.445312 19.675781 9.59375 19.835938 9.75 20 C 9.363281 20.953125 8.742188 21.546875 8 22.25 C 8.410156 22.277344 8.410156 22.277344 8.824219 22.304688 C 11.8125 22.554688 14.507812 23.167969 16.617188 25.484375 C 18.664062 28.242188 19.078125 30.894531 18.75 34.25 C 18.203125 36.570312 16.894531 38.496094 14.960938 39.886719 C 12.8125 41.164062 10.625 41.617188 8.152344 41.574219 C 7.800781 41.570312 7.800781 41.570312 7.441406 41.570312 C 6.703125 41.566406 5.960938 41.554688 5.21875 41.546875 C 4.710938 41.542969 4.207031 41.539062 3.699219 41.535156 C 2.464844 41.527344 1.234375 41.515625 0 41.5 C 0 40.179688 0 38.859375 0 37.5 C 0.300781 37.496094 0.597656 37.492188 0.910156 37.488281 C 2.027344 37.472656 3.148438 37.457031 4.269531 37.433594 C 4.75 37.425781 5.238281 37.417969 5.71875 37.414062 C 6.417969 37.40625 7.113281 37.390625 7.8125 37.378906 C 8.027344 37.375 8.238281 37.375 8.460938 37.375 C 10.367188 37.324219 12.121094 36.914062 13.5 35.5 C 14.628906 33.972656 14.742188 32.351562 14.5 30.5 C 14.0625 29.011719 13.265625 28.109375 12 27.25 C 10.679688 26.621094 9.433594 26.710938 8 26.75 C 8.578125 27.328125 9.152344 27.90625 9.75 28.5 C 9.292969 29.414062 8.9375 29.867188 8.21875 30.5625 C 8.035156 30.738281 7.855469 30.914062 7.667969 31.097656 C 7.53125 31.230469 7.390625 31.363281 7.25 31.5 C 6.238281 31.09375 5.539062 30.375 4.777344 29.617188 C 4.640625 29.484375 4.5 29.347656 4.359375 29.207031 C 4.070312 28.921875 3.777344 28.632812 3.492188 28.347656 C 3.046875 27.90625 2.597656 27.472656 2.152344 27.035156 C 1.867188 26.757812 1.589844 26.476562 1.304688 26.199219 C 1.171875 26.070312 1.039062 25.9375 0.898438 25.804688 C 0.015625 24.90625 0.015625 24.90625 -0.0390625 24.25 C 0.402344 23.492188 0.988281 22.894531 1.605469 22.277344 C 1.742188 22.136719 1.878906 22 2.019531 21.859375 C 2.304688 21.570312 2.59375 21.277344 2.882812 20.992188 C 3.328125 20.546875 3.765625 20.097656 4.203125 19.652344 C 4.480469 19.367188 4.765625 19.089844 5.042969 18.808594 C 5.175781 18.671875 5.304688 18.539062 5.4375 18.398438 C 6.359375 17.496094 6.359375 17.496094 7.054688 17.511719 Z M 7.054688 17.511719 "/>
<path style=" stroke:none;fill-rule:nonzero;fill:rgb(100%,56.078434%,24.705882%);fill-opacity:1;" d="M 30 0 C 30.660156 0 31.320312 0 32 0 C 32 21.121094 32 42.238281 32 64 C 31.339844 64 30.679688 64 30 64 C 30 42.878906 30 21.761719 30 0 Z M 30 0 "/>
</g>
</svg>
