<?xml version="1.0" encoding="UTF-8"?>
<svg xmlns="http://www.w3.org/2000/svg" xmlns:xlink="http://www.w3.org/1999/xlink" width="64" height="64" viewBox="0 0 64 64" version="1.1">
<g id="surface1">
<path style=" stroke:none;fill-rule:nonzero;fill:rgb(94.509804%,0%,31.764707%);fill-opacity:1;" d="M 52.152344 6.835938 C 53.042969 7.613281 53.898438 8.429688 54.75 9.25 C 54.929688 9.414062 55.109375 9.578125 55.292969 9.746094 C 56.867188 11.222656 58.058594 12.964844 59.25 14.75 C 59.410156 14.984375 59.566406 15.214844 59.726562 15.460938 C 64.039062 22.320312 65.253906 31.425781 63.476562 39.292969 C 61.363281 47.605469 56.386719 54.949219 49 59.457031 C 46.144531 61.140625 43.1875 62.347656 40 63.25 C 39.707031 63.335938 39.410156 63.421875 39.109375 63.507812 C 31.136719 65.390625 22.128906 63.796875 15.171875 59.589844 C 7.902344 55.015625 3.074219 48.207031 0.75 40 C 0.664062 39.707031 0.578125 39.410156 0.492188 39.105469 C -1.40625 31.078125 0.238281 22.0625 4.511719 15.074219 C 5.742188 13.140625 7.164062 11.402344 8.75 9.75 C 8.953125 9.527344 9.152344 9.308594 9.363281 9.082031 C 13.339844 4.878906 18.488281 2.3125 24 0.75 C 24.296875 0.664062 24.589844 0.578125 24.894531 0.492188 C 34.136719 -1.695312 44.882812 0.730469 52.152344 6.835938 Z M 52.152344 6.835938 "/>
<path style=" stroke:none;fill-rule:nonzero;fill:rgb(99.607843%,0.392157%,34.901962%);fill-opacity:1;" d="M 52.152344 6.835938 C 53.042969 7.613281 53.898438 8.429688 54.75 9.25 C 54.929688 9.414062 55.109375 9.578125 55.292969 9.746094 C 57.074219 11.417969 58.402344 13.476562 59.75 15.5 C 59.535156 17.652344 57.414062 19.703125 56.011719 21.199219 C 55.464844 21.769531 55.464844 21.769531 54.90625 22.515625 C 53.886719 23.652344 52.707031 24.566406 51.5 25.5 C 51.3125 25.648438 51.125 25.792969 50.933594 25.945312 C 46.964844 28.894531 42.582031 30.621094 37.75 31.5 C 37.667969 39.089844 37.585938 46.679688 37.5 54.5 C 38.410156 54.5 39.316406 54.5 40.25 54.5 C 40.25 56.3125 40.25 58.128906 40.25 60 C 35.960938 60 31.671875 60 27.25 60 C 27.25 58.183594 27.25 56.367188 27.25 54.5 C 28.160156 54.417969 29.066406 54.335938 30 54.25 C 29.914062 54.074219 29.832031 53.898438 29.742188 53.71875 C 29.632812 53.480469 29.519531 53.242188 29.40625 53 C 29.296875 52.769531 29.1875 52.535156 29.074219 52.296875 C 28.375 50.570312 28.160156 49.015625 28.171875 47.171875 C 28.171875 46.964844 28.171875 46.753906 28.175781 46.539062 C 28.207031 44.796875 28.375 43.113281 29.246094 41.5625 C 29.980469 40.238281 30.144531 39.160156 30.15625 37.65625 C 30.191406 35.558594 30.191406 35.558594 30.75 35 C 31.453125 34.890625 31.453125 34.890625 32.25 35 C 32.664062 35.410156 33.074219 35.824219 33.5 36.25 C 33.582031 34.847656 33.664062 33.445312 33.75 32 C 33.058594 32.015625 32.367188 32.03125 31.65625 32.046875 C 26.308594 32.074219 21.316406 30.640625 16.5625 28.21875 C 16.359375 28.117188 16.152344 28.015625 15.941406 27.910156 C 15.757812 27.808594 15.570312 27.710938 15.378906 27.605469 C 15.214844 27.523438 15.050781 27.433594 14.878906 27.34375 C 14.34375 26.859375 14.355469 26.460938 14.25 25.75 C 14.226562 25.257812 14.222656 24.769531 14.222656 24.277344 C 14.222656 23.988281 14.222656 23.695312 14.222656 23.398438 C 14.222656 23.085938 14.222656 22.777344 14.226562 22.457031 C 14.226562 22.136719 14.226562 21.816406 14.226562 21.488281 C 14.226562 20.640625 14.230469 19.792969 14.234375 18.941406 C 14.234375 18.078125 14.234375 17.210938 14.238281 16.34375 C 14.242188 14.648438 14.246094 12.945312 14.25 11.25 C 12.023438 11.25 9.796875 11.25 7.5 11.25 C 12.035156 5.960938 17.296875 2.648438 24 0.75 C 24.296875 0.664062 24.589844 0.578125 24.894531 0.492188 C 34.136719 -1.695312 44.882812 0.730469 52.152344 6.835938 Z M 52.152344 6.835938 "/>
<path style=" stroke:none;fill-rule:nonzero;fill:rgb(94.901961%,0%,31.764707%);fill-opacity:1;" d="M 59.75 16 C 60.738281 17.082031 61.226562 18.234375 61.75 19.578125 C 61.878906 19.90625 61.878906 19.90625 62.011719 20.246094 C 65.09375 28.238281 64.828125 37.324219 61.5 45.191406 C 57.984375 53.046875 51.414062 59.0625 43.429688 62.179688 C 42.5 62.5 42.5 62.5 41.75 62.5 C 41.75 61.675781 41.75 60.851562 41.75 60 C 41.253906 60 40.761719 60 40.25 60 C 40.25 58.183594 40.25 56.371094 40.25 54.5 C 39.34375 54.5 38.433594 54.5 37.5 54.5 C 37.5 45.507812 37.5 36.515625 37.5 27.25 C 37.582031 27.25 37.664062 27.25 37.75 27.25 C 37.75 28.652344 37.75 30.054688 37.75 31.5 C 46.460938 29.328125 53.523438 25.023438 58.621094 17.546875 C 58.984375 17.019531 59.363281 16.511719 59.75 16 Z M 59.75 16 "/>
<path style=" stroke:none;fill-rule:nonzero;fill:rgb(99.607843%,80.000001%,74.117649%);fill-opacity:1;" d="M 14.25 12.5 C 16.066406 12.5 17.878906 12.5 19.75 12.5 C 19.75 13.488281 19.75 14.480469 19.75 15.5 C 20.09375 15.496094 20.441406 15.496094 20.796875 15.496094 C 24.046875 15.480469 27.300781 15.46875 30.550781 15.460938 C 32.226562 15.457031 33.898438 15.453125 35.566406 15.441406 C 37.183594 15.433594 38.796875 15.429688 40.40625 15.429688 C 41.023438 15.425781 41.640625 15.425781 42.253906 15.421875 C 43.117188 15.414062 43.976562 15.414062 44.839844 15.414062 C 45.09375 15.414062 45.351562 15.410156 45.613281 15.40625 C 45.851562 15.40625 46.085938 15.40625 46.324219 15.410156 C 46.53125 15.410156 46.734375 15.40625 46.941406 15.40625 C 47.636719 15.523438 47.984375 15.777344 48.5 16.25 C 48.632812 16.734375 48.632812 16.734375 48.625 17.25 C 48.628906 17.503906 48.628906 17.503906 48.632812 17.765625 C 48.5 18.25 48.5 18.25 48.136719 18.648438 C 47.183594 19.175781 46.289062 19.121094 45.214844 19.128906 C 44.996094 19.132812 44.773438 19.136719 44.546875 19.140625 C 43.84375 19.15625 43.140625 19.164062 42.4375 19.171875 C 41.960938 19.179688 41.484375 19.191406 41.003906 19.199219 C 39.835938 19.21875 38.667969 19.234375 37.5 19.25 C 37.738281 19.398438 37.976562 19.550781 38.21875 19.703125 C 39 20.25 39 20.25 39.5 21 C 39.421875 21.828125 39.347656 22.152344 38.75 22.75 C 38.042969 22.796875 37.347656 22.816406 36.640625 22.828125 C 34.945312 22.882812 33.640625 23.085938 32.136719 23.9375 C 30.550781 24.714844 28.941406 24.847656 27.203125 24.84375 C 26.890625 24.84375 26.890625 24.84375 26.578125 24.84375 C 24.15625 24.796875 22.136719 24.101562 20 23 C 20 23.90625 20 24.816406 20 25.75 C 18.101562 25.75 16.203125 25.75 14.25 25.75 C 14.25 21.378906 14.25 17.003906 14.25 12.5 Z M 14.25 12.5 "/>
<path style=" stroke:none;fill-rule:nonzero;fill:rgb(99.607843%,79.215688%,73.725492%);fill-opacity:1;" d="M 36.5 25.75 C 37.039062 26.09375 37.039062 26.09375 37.5 26.75 C 37.648438 27.636719 37.625 28.515625 37.613281 29.410156 C 37.613281 29.683594 37.613281 29.953125 37.613281 30.234375 C 37.613281 31.128906 37.605469 32.023438 37.597656 32.917969 C 37.59375 33.539062 37.59375 34.160156 37.59375 34.78125 C 37.589844 36.246094 37.582031 37.714844 37.574219 39.183594 C 37.558594 41.015625 37.554688 42.851562 37.550781 44.683594 C 37.539062 47.957031 37.519531 51.226562 37.5 54.5 C 38.40625 54.5 39.316406 54.5 40.25 54.5 C 40.25 56.316406 40.25 58.128906 40.25 60 C 35.960938 60 31.671875 60 27.25 60 C 27.25 58.183594 27.25 56.371094 27.25 54.5 C 28.609375 54.375 28.609375 54.375 30 54.25 C 29.871094 53.988281 29.871094 53.988281 29.746094 53.71875 C 29.632812 53.484375 29.519531 53.246094 29.40625 53 C 29.296875 52.765625 29.183594 52.535156 29.074219 52.296875 C 28.375 50.574219 28.160156 49.015625 28.171875 47.171875 C 28.171875 46.960938 28.175781 46.753906 28.175781 46.539062 C 28.207031 44.796875 28.375 43.113281 29.246094 41.5625 C 29.980469 40.234375 30.148438 39.164062 30.15625 37.65625 C 30.191406 35.558594 30.191406 35.558594 30.75 35 C 31.453125 34.890625 31.453125 34.890625 32.25 35 C 32.890625 35.542969 33.371094 35.996094 33.75 36.75 C 33.753906 36.453125 33.753906 36.15625 33.757812 35.847656 C 33.765625 34.742188 33.78125 33.636719 33.800781 32.53125 C 33.808594 32.054688 33.816406 31.574219 33.816406 31.097656 C 33.824219 30.410156 33.835938 29.722656 33.847656 29.035156 C 33.847656 28.824219 33.847656 28.609375 33.847656 28.386719 C 33.886719 26.90625 33.886719 26.90625 34.460938 26.113281 C 35.199219 25.613281 35.628906 25.605469 36.5 25.75 Z M 36.5 25.75 "/>
<path style=" stroke:none;fill-rule:nonzero;fill:rgb(22.352941%,17.647059%,43.137255%);fill-opacity:1;" d="M 7.25 11.25 C 9.558594 11.25 11.871094 11.25 14.25 11.25 C 14.25 16.449219 14.25 21.644531 14.25 27 C 9.628906 27 5.011719 27 0.25 27 C 0.839844 23.464844 0.839844 23.464844 1.40625 21.8125 C 1.46875 21.621094 1.535156 21.433594 1.601562 21.238281 C 2.914062 17.515625 4.890625 14.394531 7.25 11.25 Z M 7.25 11.25 "/>
<path style=" stroke:none;fill-rule:nonzero;fill:rgb(98.431373%,72.549021%,66.274512%);fill-opacity:1;" d="M 14.25 12.5 C 14.332031 12.5 14.414062 12.5 14.5 12.5 C 14.5 16.789062 14.5 21.078125 14.5 25.5 C 16.234375 25.5 17.964844 25.5 19.75 25.5 C 19.746094 25.121094 19.738281 24.746094 19.734375 24.359375 C 19.753906 22.570312 19.878906 20.785156 20 19 C 23.382812 19 26.765625 19 30.25 19 C 30.25 18.421875 30.25 17.84375 30.25 17.25 C 36.273438 17.25 42.296875 17.25 48.5 17.25 C 48.417969 17.664062 48.335938 18.074219 48.25 18.5 C 47.496094 19.003906 47.34375 19.0625 46.496094 19.078125 C 46.296875 19.085938 46.097656 19.089844 45.890625 19.09375 C 45.566406 19.101562 45.566406 19.101562 45.238281 19.101562 C 45.015625 19.109375 44.796875 19.113281 44.570312 19.117188 C 43.863281 19.132812 43.15625 19.144531 42.453125 19.15625 C 41.976562 19.164062 41.496094 19.175781 41.015625 19.183594 C 39.84375 19.210938 38.671875 19.230469 37.5 19.25 C 37.738281 19.398438 37.976562 19.550781 38.21875 19.703125 C 39 20.25 39 20.25 39.5 21 C 39.421875 21.828125 39.347656 22.152344 38.75 22.75 C 38.042969 22.796875 37.347656 22.816406 36.640625 22.828125 C 34.945312 22.882812 33.640625 23.085938 32.136719 23.9375 C 30.550781 24.714844 28.941406 24.847656 27.203125 24.84375 C 26.890625 24.84375 26.890625 24.84375 26.578125 24.84375 C 24.15625 24.796875 22.136719 24.101562 20 23 C 20 23.90625 20 24.816406 20 25.75 C 18.101562 25.75 16.203125 25.75 14.25 25.75 C 14.25 21.378906 14.25 17.003906 14.25 12.5 Z M 14.25 12.5 "/>
<path style=" stroke:none;fill-rule:nonzero;fill:rgb(100%,74.117649%,66.274512%);fill-opacity:1;" d="M 35.75 25.625 C 36.5 25.75 36.5 25.75 37.039062 26.09375 C 37.765625 27.128906 37.628906 28.152344 37.613281 29.386719 C 37.613281 29.65625 37.613281 29.925781 37.613281 30.199219 C 37.613281 31.085938 37.605469 31.976562 37.597656 32.863281 C 37.59375 33.476562 37.59375 34.09375 37.59375 34.707031 C 37.589844 36.328125 37.578125 37.949219 37.566406 39.566406 C 37.558594 41.21875 37.554688 42.871094 37.550781 44.523438 C 37.539062 47.765625 37.519531 51.007812 37.5 54.25 C 36.261719 54.25 35.023438 54.25 33.75 54.25 C 33.703125 37.574219 33.703125 37.574219 33.800781 31.664062 C 33.808594 31.222656 33.816406 30.78125 33.816406 30.34375 C 33.824219 29.746094 33.835938 29.144531 33.847656 28.546875 C 33.851562 28.21875 33.859375 27.894531 33.863281 27.558594 C 34.066406 26.351562 34.542969 25.828125 35.75 25.625 Z M 35.75 25.625 "/>
<path style=" stroke:none;fill-rule:nonzero;fill:rgb(27.058825%,22.745098%,51.764709%);fill-opacity:1;" d="M 10.84375 11.125 C 12.527344 11.1875 12.527344 11.1875 14.25 11.25 C 14.25 13.808594 14.25 16.363281 14.25 19 C 10.457031 19 6.660156 19 2.75 19 C 3.3125 17.03125 3.3125 17.03125 3.792969 16.273438 C 3.949219 16.023438 3.949219 16.023438 4.109375 15.773438 C 4.21875 15.605469 4.328125 15.4375 4.4375 15.265625 C 4.542969 15.101562 4.644531 14.933594 4.753906 14.761719 C 4.96875 14.425781 5.1875 14.09375 5.414062 13.761719 C 5.761719 13.253906 5.761719 13.253906 6.042969 12.683594 C 7.160156 10.734375 8.792969 11.019531 10.84375 11.125 Z M 10.84375 11.125 "/>
<path style=" stroke:none;fill-rule:nonzero;fill:rgb(89.411765%,94.117647%,97.254902%);fill-opacity:1;" d="M 27.25 54.5 C 31.539062 54.5 35.828125 54.5 40.25 54.5 C 40.25 56.316406 40.25 58.128906 40.25 60 C 35.960938 60 31.671875 60 27.25 60 C 27.25 58.183594 27.25 56.371094 27.25 54.5 Z M 27.25 54.5 "/>
<path style=" stroke:none;fill-rule:nonzero;fill:rgb(89.411765%,94.117647%,97.254902%);fill-opacity:1;" d="M 14.5 12.5 C 16.234375 12.5 17.964844 12.5 19.75 12.5 C 19.75 16.789062 19.75 21.078125 19.75 25.5 C 18.015625 25.5 16.285156 25.5 14.5 25.5 C 14.5 21.210938 14.5 16.921875 14.5 12.5 Z M 14.5 12.5 "/>
<path style=" stroke:none;fill-rule:nonzero;fill:rgb(27.450982%,23.137255%,51.372552%);fill-opacity:1;" d="M 26 60 C 31.199219 60 36.394531 60 41.75 60 C 41.75 60.90625 41.75 61.816406 41.75 62.75 C 41.121094 62.914062 40.488281 63.074219 39.859375 63.234375 C 39.683594 63.28125 39.507812 63.324219 39.324219 63.371094 C 39.148438 63.417969 38.976562 63.460938 38.796875 63.507812 C 38.636719 63.546875 38.480469 63.585938 38.316406 63.628906 C 36.921875 63.925781 35.566406 64.03125 34.140625 64.03125 C 33.886719 64.03125 33.886719 64.03125 33.621094 64.035156 C 33.265625 64.035156 32.90625 64.03125 32.546875 64.03125 C 32.003906 64.03125 31.457031 64.03125 30.914062 64.035156 C 30.558594 64.035156 30.210938 64.03125 29.859375 64.03125 C 29.546875 64.03125 29.230469 64.03125 28.90625 64.03125 C 26.445312 63.945312 26.445312 63.945312 26 63.5 C 26 62.34375 26 61.191406 26 60 Z M 26 60 "/>
<path style=" stroke:none;fill-rule:nonzero;fill:rgb(81.568629%,90.588236%,99.607843%);fill-opacity:1;" d="M 34 54.5 C 36.0625 54.5 38.125 54.5 40.25 54.5 C 40.25 56.316406 40.25 58.128906 40.25 60 C 38.1875 60 36.125 60 34 60 C 34 58.183594 34 56.371094 34 54.5 Z M 34 54.5 "/>
<path style=" stroke:none;fill-rule:nonzero;fill:rgb(81.568629%,90.980393%,100%);fill-opacity:1;" d="M 14.5 19.25 C 16.234375 19.25 17.964844 19.25 19.75 19.25 C 19.75 21.3125 19.75 23.375 19.75 25.5 C 18.015625 25.5 16.285156 25.5 14.5 25.5 C 14.5 23.4375 14.5 21.375 14.5 19.25 Z M 14.5 19.25 "/>
<path style=" stroke:none;fill-rule:nonzero;fill:rgb(99.607843%,64.705884%,54.901963%);fill-opacity:1;" d="M 36.5 25.75 C 36.253906 25.832031 36.003906 25.914062 35.75 26 C 35.75 31.941406 35.75 37.878906 35.75 44 C 35.171875 44 34.59375 44 34 44 C 33.769531 40.117188 33.71875 36.242188 33.785156 32.351562 C 33.792969 31.878906 33.800781 31.402344 33.800781 30.929688 C 33.808594 30.253906 33.824219 29.578125 33.839844 28.90625 C 33.839844 28.703125 33.839844 28.5 33.84375 28.292969 C 33.871094 27.398438 33.925781 26.851562 34.460938 26.121094 C 35.167969 25.636719 35.660156 25.671875 36.5 25.75 Z M 36.5 25.75 "/>
<path style=" stroke:none;fill-rule:nonzero;fill:rgb(100%,64.705884%,54.901963%);fill-opacity:1;" d="M 30.25 17.25 C 36.273438 17.25 42.296875 17.25 48.5 17.25 C 48.417969 17.664062 48.335938 18.074219 48.25 18.5 C 47.480469 19.011719 47.296875 19.066406 46.421875 19.082031 C 46.203125 19.089844 45.988281 19.09375 45.765625 19.101562 C 45.527344 19.105469 45.292969 19.109375 45.050781 19.113281 C 44.800781 19.117188 44.558594 19.121094 44.300781 19.128906 C 43.777344 19.140625 43.25 19.148438 42.726562 19.15625 C 41.941406 19.171875 41.15625 19.191406 40.371094 19.207031 C 36.988281 19.277344 33.628906 19.199219 30.25 19 C 30.25 18.421875 30.25 17.84375 30.25 17.25 Z M 30.25 17.25 "/>
<path style=" stroke:none;fill-rule:nonzero;fill:rgb(22.745098%,17.647059%,42.745098%);fill-opacity:1;" d="M 34 60 C 36.558594 60 39.113281 60 41.75 60 C 41.75 60.90625 41.75 61.816406 41.75 62.75 C 41.121094 62.914062 40.488281 63.074219 39.859375 63.234375 C 39.683594 63.28125 39.507812 63.324219 39.324219 63.371094 C 37.816406 63.753906 36.328125 64.039062 34.765625 64.015625 C 34.574219 64.011719 34.378906 64.011719 34.179688 64.011719 C 34.039062 64.003906 33.898438 64.003906 33.75 64 C 33.742188 63.476562 33.738281 62.949219 33.734375 62.421875 C 33.734375 62.128906 33.726562 61.835938 33.726562 61.535156 C 33.75 60.75 33.75 60.75 34 60 Z M 34 60 "/>
</g>
</svg>
