<?xml version="1.0" encoding="UTF-8"?>
<svg xmlns="http://www.w3.org/2000/svg" xmlns:xlink="http://www.w3.org/1999/xlink" width="64" height="64" viewBox="0 0 64 64" version="1.1">
<g id="surface1">
<path style=" stroke:none;fill-rule:nonzero;fill:rgb(89.411765%,89.803922%,91.764706%);fill-opacity:1;" d="M 5.515625 0.964844 C 5.75 0.964844 5.984375 0.960938 6.226562 0.960938 C 7.015625 0.960938 7.804688 0.960938 8.59375 0.960938 C 9.15625 0.957031 9.722656 0.957031 10.289062 0.953125 C 11.824219 0.953125 13.359375 0.949219 14.894531 0.949219 C 15.855469 0.949219 16.816406 0.949219 17.773438 0.949219 C 20.425781 0.945312 23.082031 0.941406 25.738281 0.941406 C 25.90625 0.941406 26.078125 0.941406 26.253906 0.941406 C 26.421875 0.941406 26.59375 0.941406 26.769531 0.941406 C 27.113281 0.941406 27.460938 0.941406 27.804688 0.941406 C 27.976562 0.941406 28.148438 0.941406 28.320312 0.941406 C 31.097656 0.941406 33.871094 0.933594 36.648438 0.925781 C 39.496094 0.921875 42.34375 0.917969 45.195312 0.917969 C 46.792969 0.917969 48.390625 0.917969 49.992188 0.914062 C 51.496094 0.910156 53 0.90625 54.503906 0.910156 C 55.058594 0.910156 55.609375 0.910156 56.164062 0.90625 C 56.914062 0.90625 57.667969 0.90625 58.421875 0.90625 C 58.753906 0.90625 58.753906 0.90625 59.085938 0.902344 C 60.519531 0.914062 61.328125 1.175781 62.4375 2.125 C 63.238281 3.085938 63.039062 4.335938 63.035156 5.515625 C 63.035156 5.75 63.039062 5.984375 63.039062 6.226562 C 63.039062 7.015625 63.039062 7.804688 63.039062 8.59375 C 63.042969 9.15625 63.042969 9.722656 63.042969 10.289062 C 63.046875 11.824219 63.050781 13.359375 63.050781 14.894531 C 63.050781 15.855469 63.050781 16.816406 63.050781 17.773438 C 63.054688 20.425781 63.058594 23.082031 63.058594 25.738281 C 63.058594 25.992188 63.058594 25.992188 63.058594 26.253906 C 63.058594 26.421875 63.058594 26.59375 63.058594 26.769531 C 63.058594 27.113281 63.058594 27.460938 63.058594 27.804688 C 63.058594 28.0625 63.058594 28.0625 63.058594 28.324219 C 63.0625 31.097656 63.066406 33.871094 63.070312 36.648438 C 63.078125 39.496094 63.078125 42.34375 63.078125 45.191406 C 63.082031 46.792969 63.082031 48.390625 63.085938 49.992188 C 63.09375 51.496094 63.09375 53 63.089844 54.503906 C 63.089844 55.058594 63.089844 55.609375 63.09375 56.164062 C 63.09375 56.914062 63.09375 57.667969 63.09375 58.421875 C 63.09375 58.753906 63.09375 58.753906 63.097656 59.085938 C 63.085938 60.519531 62.824219 61.328125 61.875 62.4375 C 60.914062 63.238281 59.664062 63.039062 58.484375 63.035156 C 58.25 63.035156 58.015625 63.039062 57.773438 63.039062 C 56.984375 63.039062 56.195312 63.039062 55.40625 63.039062 C 54.84375 63.042969 54.277344 63.042969 53.710938 63.042969 C 52.175781 63.046875 50.640625 63.050781 49.105469 63.050781 C 48.144531 63.050781 47.1875 63.050781 46.226562 63.050781 C 43.570312 63.054688 40.917969 63.058594 38.261719 63.058594 C 38.09375 63.058594 37.921875 63.058594 37.746094 63.058594 C 37.578125 63.058594 37.40625 63.058594 37.230469 63.058594 C 36.882812 63.058594 36.539062 63.058594 36.195312 63.058594 C 36.023438 63.058594 35.851562 63.058594 35.675781 63.058594 C 32.902344 63.0625 30.128906 63.066406 27.351562 63.074219 C 24.503906 63.078125 21.65625 63.078125 18.808594 63.078125 C 17.207031 63.078125 15.605469 63.082031 14.007812 63.085938 C 12.503906 63.089844 11 63.09375 9.496094 63.089844 C 8.941406 63.089844 8.390625 63.089844 7.835938 63.09375 C 7.085938 63.09375 6.332031 63.09375 5.578125 63.09375 C 5.359375 63.09375 5.140625 63.09375 4.914062 63.097656 C 3.480469 63.085938 2.667969 62.824219 1.5625 61.875 C 0.761719 60.914062 0.964844 59.664062 0.964844 58.484375 C 0.964844 58.25 0.960938 58.015625 0.960938 57.773438 C 0.960938 56.984375 0.960938 56.195312 0.960938 55.40625 C 0.960938 54.84375 0.957031 54.277344 0.957031 53.710938 C 0.953125 52.175781 0.953125 50.640625 0.949219 49.105469 C 0.949219 48.144531 0.945312 47.183594 0.945312 46.226562 C 0.945312 43.574219 0.941406 40.917969 0.941406 38.261719 C 0.941406 38.09375 0.941406 37.921875 0.941406 37.746094 C 0.941406 37.578125 0.941406 37.40625 0.941406 37.230469 C 0.941406 36.886719 0.941406 36.539062 0.941406 36.195312 C 0.941406 35.9375 0.941406 35.9375 0.941406 35.675781 C 0.941406 32.902344 0.933594 30.128906 0.929688 27.351562 C 0.921875 24.503906 0.917969 21.65625 0.917969 18.808594 C 0.917969 17.207031 0.917969 15.605469 0.914062 14.007812 C 0.910156 12.503906 0.90625 11 0.910156 9.496094 C 0.910156 8.941406 0.910156 8.390625 0.90625 7.835938 C 0.90625 7.085938 0.90625 6.332031 0.90625 5.578125 C 0.90625 5.355469 0.90625 5.140625 0.902344 4.914062 C 0.914062 3.480469 1.175781 2.667969 2.125 1.5625 C 3.085938 0.761719 4.335938 0.964844 5.515625 0.964844 Z M 5.515625 0.964844 "/>
<path style=" stroke:none;fill-rule:nonzero;fill:rgb(10.588235%,16.078432%,39.607844%);fill-opacity:1;" d="M 5.515625 0.964844 C 5.75 0.964844 5.984375 0.960938 6.226562 0.960938 C 7.015625 0.960938 7.804688 0.960938 8.59375 0.960938 C 9.15625 0.957031 9.722656 0.957031 10.289062 0.953125 C 11.824219 0.953125 13.359375 0.949219 14.894531 0.949219 C 15.855469 0.949219 16.816406 0.949219 17.773438 0.949219 C 20.425781 0.945312 23.082031 0.941406 25.738281 0.941406 C 25.90625 0.941406 26.078125 0.941406 26.253906 0.941406 C 26.421875 0.941406 26.59375 0.941406 26.769531 0.941406 C 27.113281 0.941406 27.460938 0.941406 27.804688 0.941406 C 27.976562 0.941406 28.148438 0.941406 28.320312 0.941406 C 31.097656 0.941406 33.871094 0.933594 36.648438 0.925781 C 39.496094 0.921875 42.34375 0.917969 45.195312 0.917969 C 46.792969 0.917969 48.390625 0.917969 49.992188 0.914062 C 51.496094 0.910156 53 0.90625 54.503906 0.910156 C 55.058594 0.910156 55.609375 0.910156 56.164062 0.90625 C 56.914062 0.90625 57.667969 0.90625 58.421875 0.90625 C 58.753906 0.90625 58.753906 0.90625 59.085938 0.902344 C 60.519531 0.914062 61.328125 1.175781 62.4375 2.125 C 63.96875 3.960938 63 8.289062 63 9.5 C 42.539062 9.5 22.078125 9.5 1 9.5 C 1 2.875 1 2.875 2.125 1.5625 C 3.085938 0.761719 4.335938 0.964844 5.515625 0.964844 Z M 5.515625 0.964844 "/>
<path style=" stroke:none;fill-rule:nonzero;fill:rgb(66.666669%,68.627453%,73.725492%);fill-opacity:1;" d="M 12 14 C 12.5 13.988281 13 13.988281 13.5 14 C 13.976562 14.476562 13.78125 15.316406 13.78125 15.949219 C 13.785156 16.128906 13.785156 16.304688 13.785156 16.488281 C 13.789062 17.097656 13.789062 17.703125 13.789062 18.308594 C 13.789062 18.742188 13.789062 19.175781 13.789062 19.609375 C 13.789062 20.789062 13.792969 21.964844 13.792969 23.144531 C 13.792969 24.125 13.792969 25.109375 13.796875 26.089844 C 13.796875 28.40625 13.796875 30.722656 13.796875 33.039062 C 13.796875 35.433594 13.800781 37.828125 13.800781 40.21875 C 13.804688 42.273438 13.808594 44.324219 13.808594 46.375 C 13.808594 47.601562 13.808594 48.828125 13.808594 50.054688 C 13.8125 51.210938 13.8125 52.363281 13.808594 53.515625 C 13.808594 53.941406 13.8125 54.363281 13.8125 54.789062 C 13.816406 55.367188 13.8125 55.945312 13.8125 56.519531 C 13.8125 56.84375 13.8125 57.167969 13.8125 57.503906 C 13.75 58.25 13.75 58.25 13.25 58.75 C 12.609375 58.6875 12.609375 58.6875 12 58.5 C 11.632812 57.765625 11.71875 57.113281 11.71875 56.292969 C 11.71875 56.113281 11.71875 55.9375 11.71875 55.753906 C 11.714844 55.15625 11.71875 54.558594 11.71875 53.957031 C 11.71875 53.53125 11.71875 53.101562 11.71875 52.675781 C 11.714844 51.511719 11.714844 50.34375 11.71875 49.183594 C 11.71875 47.964844 11.71875 46.75 11.714844 45.53125 C 11.714844 43.488281 11.714844 41.449219 11.71875 39.40625 C 11.71875 37.039062 11.71875 34.675781 11.71875 32.308594 C 11.714844 30.285156 11.714844 28.257812 11.71875 26.230469 C 11.71875 25.015625 11.71875 23.804688 11.714844 22.59375 C 11.714844 21.453125 11.714844 20.316406 11.71875 19.175781 C 11.71875 18.757812 11.71875 18.335938 11.71875 17.917969 C 11.714844 17.347656 11.71875 16.777344 11.71875 16.207031 C 11.71875 15.886719 11.71875 15.570312 11.71875 15.238281 C 11.75 14.5 11.75 14.5 12 14 Z M 12 14 "/>
<path style=" stroke:none;fill-rule:nonzero;fill:rgb(5.882353%,9.411765%,30.19608%);fill-opacity:1;" d="M 25.28125 4.214844 C 25.558594 4.214844 25.835938 4.214844 26.121094 4.214844 C 26.425781 4.214844 26.734375 4.214844 27.050781 4.214844 C 27.53125 4.210938 27.53125 4.210938 28.023438 4.210938 C 28.90625 4.210938 29.789062 4.210938 30.671875 4.210938 C 31.410156 4.210938 32.144531 4.207031 32.882812 4.207031 C 34.617188 4.203125 36.355469 4.203125 38.089844 4.203125 C 39.882812 4.203125 41.675781 4.203125 43.472656 4.195312 C 45.007812 4.195312 46.546875 4.191406 48.085938 4.191406 C 49.003906 4.195312 49.925781 4.191406 50.84375 4.1875 C 51.867188 4.1875 52.890625 4.1875 53.917969 4.1875 C 54.222656 4.1875 54.53125 4.1875 54.847656 4.183594 C 55.265625 4.1875 55.265625 4.1875 55.691406 4.1875 C 55.933594 4.1875 56.175781 4.1875 56.425781 4.1875 C 57 4.25 57 4.25 57.5 4.75 C 57.5625 5.375 57.5625 5.375 57.5 6 C 56.855469 6.648438 56.597656 6.5625 55.703125 6.5625 C 55.425781 6.566406 55.152344 6.570312 54.867188 6.570312 C 54.566406 6.570312 54.261719 6.570312 53.949219 6.570312 C 53.628906 6.570312 53.3125 6.570312 52.984375 6.570312 C 52.109375 6.578125 51.234375 6.578125 50.363281 6.578125 C 49.632812 6.574219 48.902344 6.578125 48.171875 6.578125 C 46.453125 6.582031 44.730469 6.582031 43.011719 6.578125 C 41.234375 6.578125 39.460938 6.582031 37.683594 6.585938 C 36.160156 6.589844 34.632812 6.589844 33.113281 6.589844 C 32.199219 6.589844 31.289062 6.589844 30.378906 6.59375 C 29.363281 6.597656 28.347656 6.597656 27.335938 6.59375 C 27.03125 6.59375 26.726562 6.597656 26.417969 6.597656 C 26.140625 6.597656 25.863281 6.597656 25.578125 6.59375 C 25.339844 6.59375 25.097656 6.59375 24.851562 6.59375 C 24.25 6.5 24.25 6.5 23.785156 6.160156 C 23.5 5.75 23.5 5.75 23.5625 5.09375 C 23.890625 4.058594 24.25 4.21875 25.28125 4.214844 Z M 25.28125 4.214844 "/>
<path style=" stroke:none;fill-rule:nonzero;fill:rgb(89.803922%,77.64706%,18.431373%);fill-opacity:1;" d="M 38.0625 52.214844 C 38.25 52.214844 38.4375 52.214844 38.628906 52.214844 C 38.824219 52.214844 39.023438 52.210938 39.226562 52.210938 C 39.878906 52.207031 40.53125 52.207031 41.1875 52.207031 C 41.636719 52.207031 42.089844 52.207031 42.542969 52.207031 C 43.492188 52.203125 44.441406 52.203125 45.394531 52.203125 C 46.613281 52.203125 47.832031 52.199219 49.050781 52.195312 C 49.984375 52.191406 50.921875 52.191406 51.855469 52.191406 C 52.304688 52.191406 52.753906 52.191406 53.207031 52.1875 C 53.832031 52.1875 54.460938 52.1875 55.089844 52.1875 C 55.277344 52.1875 55.464844 52.1875 55.65625 52.1875 C 56.941406 52.191406 56.941406 52.191406 57.5 52.75 C 57.5625 53.375 57.5625 53.375 57.5 54 C 56.878906 54.617188 56.523438 54.5625 55.679688 54.570312 C 55.492188 54.570312 55.308594 54.566406 55.117188 54.566406 C 54.925781 54.570312 54.730469 54.570312 54.53125 54.574219 C 53.886719 54.574219 53.246094 54.574219 52.601562 54.574219 C 52.15625 54.574219 51.710938 54.578125 51.265625 54.578125 C 50.332031 54.582031 49.394531 54.582031 48.457031 54.578125 C 47.257812 54.578125 46.058594 54.582031 44.859375 54.589844 C 43.9375 54.589844 43.015625 54.589844 42.09375 54.589844 C 41.652344 54.589844 41.210938 54.589844 40.769531 54.59375 C 40.152344 54.597656 39.53125 54.597656 38.914062 54.59375 C 38.730469 54.597656 38.546875 54.597656 38.359375 54.597656 C 37.621094 54.589844 37.117188 54.582031 36.5 54.160156 C 36.25 53.75 36.25 53.75 36.3125 53.09375 C 36.640625 52.054688 37.03125 52.222656 38.0625 52.214844 Z M 38.0625 52.214844 "/>
<path style=" stroke:none;fill-rule:nonzero;fill:rgb(89.803922%,77.254903%,14.509805%);fill-opacity:1;" d="M 38.0625 35.214844 C 38.25 35.214844 38.4375 35.214844 38.628906 35.214844 C 38.824219 35.214844 39.023438 35.210938 39.226562 35.210938 C 39.878906 35.207031 40.53125 35.207031 41.1875 35.207031 C 41.636719 35.207031 42.089844 35.207031 42.542969 35.207031 C 43.492188 35.203125 44.441406 35.203125 45.394531 35.203125 C 46.613281 35.203125 47.832031 35.199219 49.050781 35.195312 C 49.984375 35.191406 50.921875 35.191406 51.855469 35.191406 C 52.304688 35.191406 52.753906 35.191406 53.207031 35.1875 C 53.832031 35.1875 54.460938 35.1875 55.089844 35.1875 C 55.277344 35.1875 55.464844 35.1875 55.65625 35.1875 C 56.941406 35.191406 56.941406 35.191406 57.5 35.75 C 57.546875 36.390625 57.546875 36.390625 57.5 37 C 57.066406 37.433594 56.503906 37.285156 55.921875 37.285156 C 55.734375 37.285156 55.542969 37.285156 55.347656 37.285156 C 55.046875 37.289062 55.046875 37.289062 54.742188 37.289062 C 54.082031 37.289062 53.421875 37.289062 52.757812 37.289062 C 52.300781 37.292969 51.84375 37.292969 51.386719 37.292969 C 50.421875 37.296875 49.460938 37.296875 48.5 37.296875 C 47.265625 37.296875 46.03125 37.300781 44.796875 37.304688 C 43.851562 37.304688 42.902344 37.308594 41.957031 37.308594 C 41.503906 37.308594 41.046875 37.308594 40.589844 37.3125 C 39.957031 37.3125 39.320312 37.3125 38.6875 37.3125 C 38.402344 37.3125 38.402344 37.3125 38.109375 37.316406 C 36.808594 37.304688 36.808594 37.304688 36.25 36.75 C 36.425781 35.304688 36.632812 35.222656 38.0625 35.214844 Z M 38.0625 35.214844 "/>
<path style=" stroke:none;fill-rule:nonzero;fill:rgb(89.803922%,77.254903%,14.509805%);fill-opacity:1;" d="M 38.078125 18.214844 C 38.363281 18.214844 38.363281 18.214844 38.65625 18.21875 C 38.855469 18.214844 39.054688 18.214844 39.261719 18.214844 C 39.925781 18.214844 40.585938 18.214844 41.25 18.214844 C 41.710938 18.214844 42.167969 18.214844 42.625 18.214844 C 43.589844 18.214844 44.550781 18.214844 45.515625 18.21875 C 46.75 18.21875 47.988281 18.21875 49.222656 18.214844 C 50.171875 18.214844 51.121094 18.214844 52.066406 18.214844 C 52.523438 18.214844 52.980469 18.214844 53.433594 18.214844 C 54.070312 18.214844 54.707031 18.214844 55.34375 18.21875 C 55.535156 18.214844 55.722656 18.214844 55.921875 18.214844 C 57.222656 18.222656 57.222656 18.222656 57.5 18.5 C 57.546875 19.109375 57.546875 19.109375 57.5 19.75 C 56.875 20.375 56.507812 20.3125 55.660156 20.320312 C 55.378906 20.316406 55.378906 20.316406 55.089844 20.3125 C 54.894531 20.316406 54.699219 20.316406 54.496094 20.316406 C 53.84375 20.320312 53.191406 20.320312 52.539062 20.316406 C 52.085938 20.316406 51.632812 20.316406 51.183594 20.320312 C 50.234375 20.320312 49.285156 20.320312 48.335938 20.316406 C 47.121094 20.3125 45.902344 20.3125 44.6875 20.316406 C 43.75 20.320312 42.820312 20.320312 41.882812 20.316406 C 41.4375 20.316406 40.988281 20.316406 40.535156 20.320312 C 39.910156 20.320312 39.285156 20.320312 38.65625 20.3125 C 38.472656 20.316406 38.285156 20.316406 38.089844 20.320312 C 36.808594 20.304688 36.808594 20.304688 36.25 19.75 C 36.425781 18.292969 36.640625 18.222656 38.078125 18.214844 Z M 38.078125 18.214844 "/>
<path style=" stroke:none;fill-rule:nonzero;fill:rgb(89.803922%,77.64706%,18.431373%);fill-opacity:1;" d="M 44.5625 56.433594 C 44.832031 56.433594 45.109375 56.433594 45.390625 56.429688 C 45.835938 56.433594 45.835938 56.433594 46.289062 56.433594 C 46.59375 56.433594 46.894531 56.433594 47.207031 56.433594 C 47.851562 56.433594 48.492188 56.433594 49.136719 56.433594 C 50.121094 56.4375 51.105469 56.433594 52.09375 56.433594 C 52.714844 56.433594 53.339844 56.433594 53.960938 56.433594 C 54.257812 56.433594 54.554688 56.433594 54.859375 56.429688 C 55.269531 56.433594 55.269531 56.433594 55.6875 56.433594 C 56.050781 56.433594 56.050781 56.433594 56.421875 56.433594 C 57 56.5 57 56.5 57.5 57 C 57.5625 57.625 57.5625 57.625 57.5 58.25 C 56.851562 58.898438 56.589844 58.8125 55.6875 58.816406 C 55.277344 58.816406 55.277344 58.816406 54.859375 58.820312 C 54.5625 58.816406 54.265625 58.816406 53.960938 58.816406 C 53.660156 58.816406 53.355469 58.816406 53.042969 58.816406 C 52.398438 58.816406 51.757812 58.816406 51.117188 58.816406 C 50.128906 58.8125 49.144531 58.816406 48.15625 58.816406 C 47.535156 58.816406 46.910156 58.816406 46.289062 58.816406 C 45.84375 58.816406 45.84375 58.816406 45.390625 58.820312 C 45.117188 58.816406 44.84375 58.816406 44.5625 58.816406 C 44.320312 58.816406 44.078125 58.8125 43.828125 58.8125 C 43.25 58.75 43.25 58.75 42.75 58.25 C 42.6875 57.625 42.6875 57.625 42.75 57 C 43.398438 56.351562 43.660156 56.4375 44.5625 56.433594 Z M 44.5625 56.433594 "/>
<path style=" stroke:none;fill-rule:nonzero;fill:rgb(89.803922%,77.254903%,14.509805%);fill-opacity:1;" d="M 44.5625 39.433594 C 44.832031 39.433594 45.109375 39.433594 45.390625 39.429688 C 45.835938 39.433594 45.835938 39.433594 46.289062 39.433594 C 46.59375 39.433594 46.894531 39.433594 47.207031 39.433594 C 47.851562 39.433594 48.492188 39.433594 49.136719 39.433594 C 50.121094 39.4375 51.105469 39.433594 52.09375 39.433594 C 52.714844 39.433594 53.339844 39.433594 53.960938 39.433594 C 54.257812 39.433594 54.554688 39.433594 54.859375 39.429688 C 55.269531 39.433594 55.269531 39.433594 55.6875 39.433594 C 56.050781 39.433594 56.050781 39.433594 56.421875 39.433594 C 57 39.5 57 39.5 57.5 40 C 57.546875 40.640625 57.546875 40.640625 57.5 41.25 C 57.070312 41.679688 56.503906 41.53125 55.917969 41.53125 C 55.632812 41.53125 55.347656 41.53125 55.054688 41.535156 C 54.746094 41.535156 54.4375 41.53125 54.117188 41.53125 C 53.800781 41.53125 53.484375 41.53125 53.160156 41.53125 C 52.492188 41.535156 51.824219 41.53125 51.15625 41.53125 C 50.296875 41.53125 49.441406 41.53125 48.582031 41.53125 C 47.765625 41.535156 46.949219 41.53125 46.132812 41.53125 C 45.824219 41.53125 45.511719 41.535156 45.195312 41.535156 C 44.910156 41.53125 44.625 41.53125 44.332031 41.53125 C 44.082031 41.53125 43.828125 41.53125 43.570312 41.53125 C 43 41.5 43 41.5 42.75 41.25 C 42.703125 40.640625 42.703125 40.640625 42.75 40 C 43.398438 39.351562 43.660156 39.4375 44.5625 39.433594 Z M 44.5625 39.433594 "/>
<path style=" stroke:none;fill-rule:nonzero;fill:rgb(89.803922%,77.254903%,14.509805%);fill-opacity:1;" d="M 44.332031 22.46875 C 44.617188 22.46875 44.902344 22.464844 45.195312 22.464844 C 45.503906 22.464844 45.816406 22.464844 46.132812 22.46875 C 46.449219 22.46875 46.761719 22.464844 47.085938 22.464844 C 47.757812 22.464844 48.425781 22.464844 49.09375 22.46875 C 49.953125 22.46875 50.808594 22.46875 51.667969 22.46875 C 52.484375 22.464844 53.300781 22.464844 54.117188 22.46875 C 54.425781 22.464844 54.738281 22.464844 55.054688 22.464844 C 55.339844 22.464844 55.625 22.46875 55.917969 22.46875 C 56.171875 22.46875 56.421875 22.46875 56.679688 22.46875 C 57.25 22.5 57.25 22.5 57.5 22.75 C 57.546875 23.359375 57.546875 23.359375 57.5 24 C 56.851562 24.648438 56.589844 24.5625 55.691406 24.566406 C 55.277344 24.566406 55.277344 24.566406 54.859375 24.570312 C 54.5625 24.566406 54.265625 24.566406 53.960938 24.566406 C 53.65625 24.566406 53.355469 24.566406 53.042969 24.566406 C 52.398438 24.566406 51.757812 24.566406 51.113281 24.566406 C 50.128906 24.5625 49.140625 24.566406 48.15625 24.566406 C 47.535156 24.566406 46.914062 24.566406 46.289062 24.566406 C 45.84375 24.566406 45.84375 24.566406 45.390625 24.570312 C 45.117188 24.566406 44.84375 24.566406 44.558594 24.566406 C 44.320312 24.566406 44.078125 24.566406 43.828125 24.5625 C 43.25 24.5 43.25 24.5 42.75 24 C 42.703125 23.359375 42.703125 23.359375 42.75 22.75 C 43.179688 22.320312 43.746094 22.46875 44.332031 22.46875 Z M 44.332031 22.46875 "/>
<path style=" stroke:none;fill-rule:nonzero;fill:rgb(89.803922%,77.64706%,18.431373%);fill-opacity:1;" d="M 41.355469 13.679688 C 41.691406 13.679688 41.691406 13.679688 42.03125 13.675781 C 42.269531 13.675781 42.511719 13.675781 42.757812 13.675781 C 43.003906 13.675781 43.25 13.675781 43.507812 13.671875 C 44.027344 13.671875 44.550781 13.667969 45.070312 13.671875 C 45.871094 13.671875 46.671875 13.667969 47.472656 13.660156 C 47.976562 13.660156 48.484375 13.660156 48.992188 13.660156 C 49.230469 13.65625 49.472656 13.652344 49.71875 13.652344 C 49.941406 13.652344 50.164062 13.65625 50.394531 13.65625 C 50.589844 13.65625 50.785156 13.65625 50.988281 13.65625 C 51.632812 13.773438 51.863281 13.976562 52.25 14.5 C 52.144531 15.605469 52.144531 15.605469 51.75 16 C 51.382812 16.027344 51.019531 16.035156 50.652344 16.035156 C 50.300781 16.039062 50.300781 16.039062 49.945312 16.042969 C 49.6875 16.042969 49.4375 16.042969 49.171875 16.042969 C 48.914062 16.042969 48.652344 16.042969 48.386719 16.042969 C 47.839844 16.046875 47.289062 16.046875 46.738281 16.046875 C 45.894531 16.046875 45.050781 16.050781 44.207031 16.054688 C 43.675781 16.054688 43.144531 16.054688 42.609375 16.058594 C 42.355469 16.058594 42.101562 16.0625 41.839844 16.0625 C 41.609375 16.0625 41.375 16.0625 41.132812 16.0625 C 40.921875 16.0625 40.71875 16.0625 40.503906 16.0625 C 40 16 40 16 39.5 15.5 C 39.421875 14.875 39.421875 14.875 39.5 14.25 C 40.285156 13.730469 40.464844 13.6875 41.355469 13.679688 Z M 41.355469 13.679688 "/>
<path style=" stroke:none;fill-rule:nonzero;fill:rgb(89.803922%,77.64706%,18.431373%);fill-opacity:1;" d="M 41.097656 47.964844 C 41.449219 47.960938 41.449219 47.960938 41.804688 47.957031 C 42.0625 47.957031 42.3125 47.957031 42.578125 47.957031 C 42.835938 47.957031 43.097656 47.957031 43.363281 47.957031 C 43.910156 47.953125 44.460938 47.953125 45.011719 47.953125 C 45.855469 47.953125 46.699219 47.949219 47.542969 47.945312 C 48.074219 47.945312 48.605469 47.945312 49.140625 47.941406 C 49.394531 47.941406 49.648438 47.9375 49.910156 47.9375 C 50.140625 47.9375 50.375 47.9375 50.617188 47.9375 C 50.828125 47.9375 51.03125 47.9375 51.246094 47.9375 C 51.75 48 51.75 48 52.25 48.5 C 52.1875 49.265625 52.1875 49.265625 52 50 C 51.417969 50.292969 51.070312 50.285156 50.421875 50.292969 C 50.199219 50.292969 49.976562 50.296875 49.746094 50.296875 C 49.386719 50.296875 49.386719 50.296875 49.015625 50.300781 C 48.648438 50.304688 48.648438 50.304688 48.265625 50.304688 C 47.742188 50.308594 47.222656 50.308594 46.695312 50.3125 C 45.894531 50.3125 45.089844 50.320312 44.292969 50.328125 C 43.78125 50.328125 43.273438 50.332031 42.765625 50.332031 C 42.40625 50.335938 42.40625 50.335938 42.035156 50.339844 C 41.8125 50.339844 41.589844 50.339844 41.359375 50.339844 C 41.0625 50.339844 41.0625 50.339844 40.765625 50.339844 C 40.117188 50.226562 39.886719 50.027344 39.5 49.5 C 39.625 48.171875 39.8125 47.96875 41.097656 47.964844 Z M 41.097656 47.964844 "/>
<path style=" stroke:none;fill-rule:nonzero;fill:rgb(92.54902%,34.117648%,38.431373%);fill-opacity:1;" d="M 17.597656 47.964844 C 17.949219 47.960938 17.949219 47.960938 18.304688 47.957031 C 18.5625 47.957031 18.8125 47.957031 19.078125 47.957031 C 19.335938 47.957031 19.597656 47.957031 19.863281 47.957031 C 20.410156 47.953125 20.960938 47.953125 21.511719 47.953125 C 22.355469 47.953125 23.199219 47.949219 24.042969 47.945312 C 24.574219 47.945312 25.105469 47.945312 25.640625 47.941406 C 25.894531 47.941406 26.148438 47.9375 26.410156 47.9375 C 26.640625 47.9375 26.875 47.9375 27.117188 47.9375 C 27.328125 47.9375 27.53125 47.9375 27.746094 47.9375 C 28.25 48 28.25 48 28.75 48.5 C 28.828125 49.125 28.828125 49.125 28.75 49.75 C 27.964844 50.269531 27.785156 50.3125 26.894531 50.320312 C 26.558594 50.320312 26.558594 50.320312 26.21875 50.328125 C 25.980469 50.328125 25.738281 50.328125 25.492188 50.328125 C 25.246094 50.328125 25 50.328125 24.742188 50.328125 C 24.222656 50.328125 23.699219 50.332031 23.179688 50.328125 C 22.378906 50.328125 21.578125 50.332031 20.777344 50.339844 C 20.273438 50.339844 19.765625 50.339844 19.257812 50.339844 C 18.898438 50.34375 18.898438 50.34375 18.53125 50.347656 C 18.308594 50.347656 18.085938 50.34375 17.855469 50.34375 C 17.5625 50.34375 17.5625 50.34375 17.261719 50.34375 C 16.617188 50.226562 16.386719 50.023438 16 49.5 C 16.125 48.171875 16.3125 47.96875 17.597656 47.964844 Z M 17.597656 47.964844 "/>
<path style=" stroke:none;fill-rule:nonzero;fill:rgb(92.54902%,34.117648%,38.431373%);fill-opacity:1;" d="M 17.828125 13.683594 C 18.050781 13.683594 18.273438 13.683594 18.503906 13.679688 C 18.863281 13.683594 18.863281 13.683594 19.234375 13.683594 C 19.605469 13.683594 19.605469 13.683594 19.984375 13.683594 C 20.503906 13.683594 21.03125 13.683594 21.550781 13.683594 C 22.355469 13.6875 23.15625 13.683594 23.960938 13.683594 C 24.46875 13.683594 24.976562 13.683594 25.484375 13.683594 C 25.84375 13.683594 25.84375 13.683594 26.210938 13.679688 C 26.433594 13.683594 26.660156 13.683594 26.890625 13.683594 C 27.085938 13.683594 27.28125 13.683594 27.484375 13.683594 C 28 13.75 28 13.75 28.75 14.25 C 28.828125 14.875 28.828125 14.875 28.75 15.5 C 28.136719 16.117188 27.96875 16.0625 27.121094 16.066406 C 26.890625 16.066406 26.65625 16.066406 26.414062 16.070312 C 26.164062 16.066406 25.910156 16.066406 25.648438 16.066406 C 25.390625 16.066406 25.128906 16.066406 24.863281 16.066406 C 24.316406 16.066406 23.765625 16.066406 23.21875 16.066406 C 22.378906 16.0625 21.539062 16.066406 20.695312 16.066406 C 20.164062 16.066406 19.632812 16.066406 19.101562 16.066406 C 18.722656 16.066406 18.722656 16.066406 18.335938 16.070312 C 18.101562 16.066406 17.867188 16.066406 17.628906 16.066406 C 17.316406 16.066406 17.316406 16.066406 17.003906 16.0625 C 16.5 16 16.5 16 16 15.5 C 16.132812 14.171875 16.488281 13.6875 17.828125 13.683594 Z M 17.828125 13.683594 "/>
<path style=" stroke:none;fill-rule:nonzero;fill:rgb(89.803922%,77.254903%,14.509805%);fill-opacity:1;" d="M 41.097656 30.964844 C 41.449219 30.960938 41.449219 30.960938 41.804688 30.957031 C 42.0625 30.957031 42.3125 30.957031 42.578125 30.957031 C 42.835938 30.957031 43.097656 30.957031 43.363281 30.957031 C 43.910156 30.953125 44.460938 30.953125 45.011719 30.953125 C 45.855469 30.953125 46.699219 30.949219 47.542969 30.945312 C 48.074219 30.945312 48.605469 30.945312 49.140625 30.941406 C 49.394531 30.941406 49.648438 30.9375 49.910156 30.9375 C 50.140625 30.9375 50.375 30.9375 50.617188 30.9375 C 50.828125 30.9375 51.03125 30.9375 51.246094 30.9375 C 51.75 31 51.75 31 52.25 31.5 C 52.113281 32.640625 52.113281 32.640625 51.75 33 C 51.382812 33.027344 51.015625 33.035156 50.652344 33.035156 C 50.300781 33.039062 50.300781 33.039062 49.945312 33.042969 C 49.6875 33.042969 49.433594 33.042969 49.175781 33.042969 C 48.914062 33.042969 48.652344 33.042969 48.386719 33.042969 C 47.835938 33.046875 47.289062 33.046875 46.738281 33.046875 C 45.894531 33.046875 45.050781 33.050781 44.210938 33.054688 C 43.675781 33.054688 43.144531 33.054688 42.613281 33.058594 C 42.355469 33.058594 42.105469 33.0625 41.839844 33.0625 C 41.605469 33.0625 41.375 33.0625 41.132812 33.0625 C 40.925781 33.0625 40.714844 33.0625 40.503906 33.0625 C 40 33 40 33 39.5 32.5 C 39.660156 31.179688 39.796875 30.96875 41.097656 30.964844 Z M 41.097656 30.964844 "/>
<path style=" stroke:none;fill-rule:nonzero;fill:rgb(92.54902%,30.980393%,35.686275%);fill-opacity:1;" d="M 17.597656 30.964844 C 17.949219 30.960938 17.949219 30.960938 18.304688 30.957031 C 18.5625 30.957031 18.8125 30.957031 19.078125 30.957031 C 19.335938 30.957031 19.597656 30.957031 19.863281 30.957031 C 20.410156 30.953125 20.960938 30.953125 21.511719 30.953125 C 22.355469 30.953125 23.199219 30.949219 24.042969 30.945312 C 24.574219 30.945312 25.105469 30.945312 25.640625 30.941406 C 25.894531 30.941406 26.148438 30.9375 26.410156 30.9375 C 26.640625 30.9375 26.875 30.9375 27.117188 30.9375 C 27.328125 30.9375 27.53125 30.9375 27.746094 30.9375 C 28.25 31 28.25 31 28.75 31.5 C 28.613281 32.640625 28.613281 32.640625 28.25 33 C 27.882812 33.027344 27.515625 33.035156 27.152344 33.035156 C 26.800781 33.039062 26.800781 33.039062 26.445312 33.042969 C 26.1875 33.042969 25.933594 33.042969 25.675781 33.042969 C 25.414062 33.042969 25.152344 33.042969 24.886719 33.042969 C 24.335938 33.046875 23.789062 33.046875 23.238281 33.046875 C 22.394531 33.046875 21.550781 33.050781 20.710938 33.054688 C 20.175781 33.054688 19.644531 33.054688 19.113281 33.058594 C 18.855469 33.058594 18.605469 33.0625 18.339844 33.0625 C 18.105469 33.0625 17.875 33.0625 17.632812 33.0625 C 17.425781 33.0625 17.214844 33.0625 17.003906 33.0625 C 16.5 33 16.5 33 16 32.5 C 16.160156 31.179688 16.296875 30.96875 17.597656 30.964844 Z M 17.597656 30.964844 "/>
<path style=" stroke:none;fill-rule:nonzero;fill:rgb(92.54902%,34.117648%,38.82353%);fill-opacity:1;" d="M 21.089844 56.429688 C 21.273438 56.429688 21.453125 56.433594 21.640625 56.433594 C 21.828125 56.433594 22.015625 56.433594 22.207031 56.433594 C 22.601562 56.433594 22.996094 56.433594 23.390625 56.433594 C 23.996094 56.4375 24.601562 56.433594 25.210938 56.429688 C 25.59375 56.433594 25.976562 56.433594 26.359375 56.433594 C 26.542969 56.433594 26.722656 56.429688 26.910156 56.429688 C 28.191406 56.441406 28.191406 56.441406 28.75 57 C 28.8125 57.625 28.8125 57.625 28.75 58.25 C 28.128906 58.871094 27.761719 58.808594 26.910156 58.820312 C 26.726562 58.816406 26.546875 58.816406 26.359375 58.816406 C 26.078125 58.816406 26.078125 58.816406 25.792969 58.816406 C 25.398438 58.816406 25.003906 58.816406 24.605469 58.816406 C 24.003906 58.8125 23.398438 58.816406 22.789062 58.816406 C 22.40625 58.816406 22.023438 58.816406 21.640625 58.816406 C 21.460938 58.816406 21.277344 58.816406 21.089844 58.820312 C 19.808594 58.808594 19.808594 58.808594 19.25 58.25 C 19.1875 57.625 19.1875 57.625 19.25 57 C 19.871094 56.378906 20.238281 56.4375 21.089844 56.429688 Z M 21.089844 56.429688 "/>
<path style=" stroke:none;fill-rule:nonzero;fill:rgb(23.921569%,80.392158%,57.647061%);fill-opacity:1;" d="M 32.839844 56.429688 C 33.023438 56.429688 33.203125 56.433594 33.390625 56.433594 C 33.578125 56.433594 33.765625 56.433594 33.957031 56.433594 C 34.351562 56.433594 34.746094 56.433594 35.140625 56.433594 C 35.746094 56.4375 36.351562 56.433594 36.960938 56.429688 C 37.34375 56.433594 37.726562 56.433594 38.109375 56.433594 C 38.292969 56.433594 38.472656 56.429688 38.660156 56.429688 C 39.941406 56.441406 39.941406 56.441406 40.5 57 C 40.578125 57.625 40.578125 57.625 40.5 58.25 C 39.597656 58.851562 38.933594 58.824219 37.890625 58.816406 C 37.617188 58.816406 37.617188 58.816406 37.34375 58.816406 C 36.960938 58.816406 36.578125 58.816406 36.199219 58.816406 C 35.609375 58.8125 35.023438 58.816406 34.441406 58.816406 C 34.070312 58.816406 33.699219 58.816406 33.328125 58.816406 C 33.066406 58.816406 33.066406 58.816406 32.792969 58.820312 C 31.558594 58.808594 31.558594 58.808594 31 58.25 C 30.9375 57.625 30.9375 57.625 31 57 C 31.621094 56.378906 31.988281 56.4375 32.839844 56.429688 Z M 32.839844 56.429688 "/>
<path style=" stroke:none;fill-rule:nonzero;fill:rgb(92.54902%,31.37255%,36.078432%);fill-opacity:1;" d="M 20.355469 22.472656 C 20.734375 22.472656 21.113281 22.472656 21.492188 22.476562 C 21.691406 22.476562 21.890625 22.476562 22.097656 22.476562 C 22.738281 22.480469 23.378906 22.480469 24.015625 22.484375 C 24.445312 22.488281 24.878906 22.488281 25.3125 22.488281 C 26.375 22.492188 27.4375 22.492188 28.5 22.5 C 28.65625 23.21875 28.65625 23.21875 28.75 24 C 28.128906 24.621094 27.757812 24.5625 26.910156 24.570312 C 26.730469 24.570312 26.546875 24.566406 26.359375 24.566406 C 26.078125 24.566406 26.078125 24.566406 25.792969 24.566406 C 25.398438 24.570312 25.003906 24.566406 24.605469 24.5625 C 24.003906 24.5625 23.398438 24.5625 22.792969 24.570312 C 22.40625 24.570312 22.023438 24.566406 21.640625 24.566406 C 21.460938 24.566406 21.277344 24.570312 21.089844 24.570312 C 19.808594 24.554688 19.808594 24.554688 19.25 24 C 19.203125 23.359375 19.203125 23.359375 19.25 22.75 C 19.5 22.5 19.5 22.5 20.355469 22.472656 Z M 20.355469 22.472656 "/>
<path style=" stroke:none;fill-rule:nonzero;fill:rgb(20.392157%,80.000001%,55.686277%);fill-opacity:1;" d="M 32.839844 39.429688 C 33.023438 39.429688 33.203125 39.433594 33.390625 39.433594 C 33.578125 39.433594 33.765625 39.433594 33.957031 39.433594 C 34.351562 39.433594 34.746094 39.433594 35.140625 39.433594 C 35.746094 39.4375 36.351562 39.433594 36.960938 39.429688 C 37.34375 39.433594 37.726562 39.433594 38.109375 39.433594 C 38.292969 39.433594 38.472656 39.429688 38.660156 39.429688 C 39.941406 39.441406 39.941406 39.441406 40.5 40 C 40.363281 41.136719 40.363281 41.136719 40 41.5 C 39.355469 41.527344 38.714844 41.535156 38.070312 41.53125 C 37.78125 41.53125 37.78125 41.53125 37.484375 41.53125 C 37.074219 41.53125 36.664062 41.53125 36.257812 41.53125 C 35.628906 41.53125 35 41.53125 34.371094 41.53125 C 33.972656 41.53125 33.578125 41.53125 33.179688 41.53125 C 32.988281 41.53125 32.800781 41.53125 32.605469 41.535156 C 31.28125 41.527344 31.28125 41.527344 31 41.25 C 30.953125 40.640625 30.953125 40.640625 31 40 C 31.621094 39.378906 31.988281 39.4375 32.839844 39.429688 Z M 32.839844 39.429688 "/>
<path style=" stroke:none;fill-rule:nonzero;fill:rgb(20.392157%,80.000001%,55.686277%);fill-opacity:1;" d="M 33.171875 22.457031 C 33.363281 22.457031 33.554688 22.457031 33.757812 22.457031 C 34.164062 22.453125 34.570312 22.453125 34.980469 22.453125 C 35.605469 22.453125 36.230469 22.449219 36.859375 22.441406 C 37.253906 22.441406 37.652344 22.441406 38.046875 22.441406 C 38.234375 22.441406 38.421875 22.4375 38.617188 22.4375 C 39.945312 22.441406 39.945312 22.441406 40.5 23 C 40.359375 24.136719 40.359375 24.136719 40 24.5 C 39.375 24.527344 38.757812 24.539062 38.132812 24.542969 C 37.851562 24.542969 37.851562 24.542969 37.566406 24.546875 C 37.171875 24.546875 36.773438 24.546875 36.375 24.546875 C 35.769531 24.546875 35.160156 24.550781 34.554688 24.554688 C 34.167969 24.558594 33.785156 24.558594 33.398438 24.558594 C 33.125 24.558594 33.125 24.558594 32.847656 24.5625 C 31.558594 24.558594 31.558594 24.558594 31 24 C 30.953125 23.359375 30.953125 23.359375 31 22.75 C 31.5 22.25 32.488281 22.457031 33.171875 22.457031 Z M 33.171875 22.457031 "/>
<path style=" stroke:none;fill-rule:nonzero;fill:rgb(92.54902%,30.980393%,35.686275%);fill-opacity:1;" d="M 21.089844 39.429688 C 21.273438 39.429688 21.453125 39.433594 21.640625 39.433594 C 21.828125 39.433594 22.015625 39.433594 22.207031 39.433594 C 22.601562 39.433594 22.996094 39.433594 23.390625 39.433594 C 23.996094 39.4375 24.601562 39.433594 25.210938 39.429688 C 25.59375 39.433594 25.976562 39.433594 26.359375 39.433594 C 26.542969 39.433594 26.722656 39.429688 26.910156 39.429688 C 28.191406 39.441406 28.191406 39.441406 28.75 40 C 28.613281 41.136719 28.613281 41.136719 28.25 41.5 C 27.601562 41.523438 26.960938 41.527344 26.3125 41.527344 C 26.117188 41.523438 25.925781 41.523438 25.726562 41.523438 C 25.101562 41.523438 24.480469 41.519531 23.859375 41.515625 C 23.441406 41.515625 23.019531 41.511719 22.597656 41.511719 C 21.566406 41.511719 20.53125 41.503906 19.5 41.5 C 19.34375 40.78125 19.34375 40.78125 19.25 40 C 19.871094 39.378906 20.238281 39.4375 21.089844 39.429688 Z M 21.089844 39.429688 "/>
<path style=" stroke:none;fill-rule:nonzero;fill:rgb(92.54902%,34.117648%,38.82353%);fill-opacity:1;" d="M 20.929688 52.183594 C 21.164062 52.183594 21.394531 52.179688 21.632812 52.179688 C 21.878906 52.183594 22.125 52.1875 22.375 52.1875 C 22.621094 52.1875 22.863281 52.183594 23.113281 52.179688 C 23.347656 52.179688 23.578125 52.183594 23.820312 52.183594 C 24.035156 52.183594 24.25 52.183594 24.46875 52.1875 C 25 52.25 25 52.25 25.5 52.75 C 25.5625 53.375 25.5625 53.375 25.5 54 C 24.890625 54.609375 24.722656 54.5625 23.882812 54.566406 C 23.664062 54.566406 23.441406 54.570312 23.214844 54.570312 C 22.984375 54.566406 22.753906 54.5625 22.515625 54.5625 C 22.285156 54.5625 22.054688 54.566406 21.820312 54.570312 C 21.597656 54.570312 21.378906 54.566406 21.148438 54.566406 C 20.945312 54.566406 20.746094 54.566406 20.539062 54.5625 C 20 54.5 20 54.5 19.25 54 C 19.171875 53.375 19.171875 53.375 19.25 52.75 C 19.871094 52.128906 20.070312 52.1875 20.929688 52.183594 Z M 20.929688 52.183594 "/>
<path style=" stroke:none;fill-rule:nonzero;fill:rgb(23.529412%,80.392158%,57.647061%);fill-opacity:1;" d="M 30.859375 52.203125 C 31.105469 52.199219 31.347656 52.199219 31.601562 52.191406 C 31.835938 52.191406 32.070312 52.191406 32.3125 52.191406 C 32.527344 52.191406 32.742188 52.191406 32.964844 52.1875 C 33.5 52.25 33.5 52.25 34 52.75 C 34.0625 53.375 34.0625 53.375 34 54 C 33.28125 54.71875 32.699219 54.574219 31.714844 54.582031 C 31.484375 54.582031 31.253906 54.578125 31.015625 54.578125 C 30.671875 54.582031 30.671875 54.582031 30.320312 54.589844 C 29.988281 54.589844 29.988281 54.589844 29.648438 54.589844 C 29.445312 54.589844 29.246094 54.59375 29.035156 54.59375 C 28.371094 54.476562 28.144531 54.289062 27.75 53.75 C 27.941406 51.742188 29.160156 52.203125 30.859375 52.203125 Z M 30.859375 52.203125 "/>
<path style=" stroke:none;fill-rule:nonzero;fill:rgb(23.529412%,80.392158%,57.647061%);fill-opacity:1;" d="M 32.679688 47.933594 C 32.914062 47.933594 33.144531 47.929688 33.382812 47.929688 C 33.628906 47.933594 33.875 47.9375 34.125 47.9375 C 34.371094 47.9375 34.613281 47.933594 34.863281 47.929688 C 35.097656 47.929688 35.328125 47.933594 35.570312 47.933594 C 35.785156 47.933594 36 47.933594 36.21875 47.9375 C 36.75 48 36.75 48 37.25 48.5 C 37.328125 49.125 37.328125 49.125 37.25 49.75 C 36.476562 50.265625 36.292969 50.3125 35.414062 50.316406 C 35.203125 50.316406 34.996094 50.320312 34.78125 50.320312 C 34.566406 50.316406 34.351562 50.3125 34.125 50.3125 C 33.800781 50.316406 33.800781 50.316406 33.46875 50.320312 C 33.257812 50.320312 33.050781 50.316406 32.835938 50.316406 C 32.644531 50.316406 32.453125 50.316406 32.257812 50.3125 C 31.75 50.25 31.75 50.25 31 49.75 C 30.921875 49.125 30.921875 49.125 31 48.5 C 31.621094 47.878906 31.820312 47.9375 32.679688 47.933594 Z M 32.679688 47.933594 "/>
<path style=" stroke:none;fill-rule:nonzero;fill:rgb(23.529412%,80.392158%,57.647061%);fill-opacity:1;" d="M 32.835938 13.683594 C 33.042969 13.683594 33.253906 13.679688 33.46875 13.679688 C 33.683594 13.683594 33.902344 13.6875 34.125 13.6875 C 34.449219 13.683594 34.449219 13.683594 34.785156 13.679688 C 34.992188 13.679688 35.199219 13.683594 35.414062 13.683594 C 35.601562 13.683594 35.792969 13.683594 35.992188 13.6875 C 36.5 13.75 36.5 13.75 37.25 14.25 C 37.328125 14.875 37.328125 14.875 37.25 15.5 C 36.628906 16.125 36.429688 16.0625 35.570312 16.066406 C 35.339844 16.066406 35.101562 16.070312 34.863281 16.070312 C 34.621094 16.066406 34.375 16.0625 34.125 16.0625 C 33.882812 16.0625 33.636719 16.066406 33.386719 16.070312 C 33.152344 16.070312 32.921875 16.066406 32.679688 16.066406 C 32.464844 16.066406 32.25 16.066406 32.03125 16.0625 C 31.5 16 31.5 16 31 15.5 C 30.921875 14.875 30.921875 14.875 31 14.25 C 31.777344 13.734375 31.957031 13.6875 32.835938 13.683594 Z M 32.835938 13.683594 "/>
<path style=" stroke:none;fill-rule:nonzero;fill:rgb(20.784314%,80.000001%,56.078434%);fill-opacity:1;" d="M 29.46875 35.21875 C 29.714844 35.21875 29.960938 35.21875 30.214844 35.21875 C 30.472656 35.21875 30.734375 35.21875 31 35.21875 C 31.390625 35.21875 31.390625 35.21875 31.785156 35.21875 C 32.03125 35.21875 32.277344 35.21875 32.53125 35.21875 C 32.757812 35.21875 32.984375 35.21875 33.222656 35.21875 C 33.75 35.25 33.75 35.25 34 35.5 C 34.03125 36.25 34.03125 36.25 34 37 C 33.394531 37.605469 31.828125 37.296875 31.015625 37.296875 C 30.757812 37.300781 30.5 37.300781 30.234375 37.308594 C 29.867188 37.308594 29.867188 37.308594 29.492188 37.308594 C 29.152344 37.308594 29.152344 37.308594 28.808594 37.3125 C 28.25 37.25 28.25 37.25 27.75 36.75 C 27.921875 35.351562 28.101562 35.21875 29.46875 35.21875 Z M 29.46875 35.21875 "/>
<path style=" stroke:none;fill-rule:nonzero;fill:rgb(92.54902%,31.37255%,36.078432%);fill-opacity:1;" d="M 20.773438 18.21875 C 21.03125 18.21875 21.289062 18.21875 21.554688 18.21875 C 21.960938 18.21875 21.960938 18.21875 22.375 18.21875 C 22.644531 18.21875 22.914062 18.21875 23.195312 18.21875 C 23.453125 18.21875 23.710938 18.21875 23.976562 18.21875 C 24.332031 18.21875 24.332031 18.21875 24.699219 18.21875 C 25.25 18.25 25.25 18.25 25.5 18.5 C 25.546875 19.109375 25.546875 19.109375 25.5 19.75 C 24.878906 20.371094 24.679688 20.3125 23.820312 20.316406 C 23.589844 20.316406 23.351562 20.316406 23.113281 20.320312 C 22.871094 20.316406 22.625 20.3125 22.375 20.3125 C 22.132812 20.3125 21.886719 20.316406 21.636719 20.320312 C 21.402344 20.316406 21.171875 20.316406 20.929688 20.316406 C 20.714844 20.316406 20.5 20.3125 20.28125 20.3125 C 19.75 20.25 19.75 20.25 19.25 19.75 C 19.203125 19.109375 19.203125 19.109375 19.25 18.5 C 19.671875 18.078125 20.195312 18.21875 20.773438 18.21875 Z M 20.773438 18.21875 "/>
<path style=" stroke:none;fill-rule:nonzero;fill:rgb(92.54902%,31.37255%,36.078432%);fill-opacity:1;" d="M 20.90625 35.21875 C 21.253906 35.21875 21.253906 35.21875 21.613281 35.21875 C 21.984375 35.21875 21.984375 35.21875 22.359375 35.21875 C 22.605469 35.21875 22.851562 35.21875 23.101562 35.21875 C 23.335938 35.21875 23.570312 35.21875 23.808594 35.21875 C 24.136719 35.21875 24.136719 35.21875 24.464844 35.21875 C 25 35.25 25 35.25 25.5 35.5 C 25.511719 36 25.511719 36.5 25.5 37 C 24.894531 37.605469 23.328125 37.296875 22.515625 37.296875 C 22.257812 37.300781 22.003906 37.300781 21.738281 37.308594 C 21.367188 37.308594 21.367188 37.308594 20.992188 37.308594 C 20.652344 37.308594 20.652344 37.308594 20.308594 37.3125 C 19.75 37.25 19.75 37.25 19.25 36.75 C 19.414062 35.390625 19.570312 35.21875 20.90625 35.21875 Z M 20.90625 35.21875 "/>
<path style=" stroke:none;fill-rule:nonzero;fill:rgb(20.392157%,80.000001%,55.686277%);fill-opacity:1;" d="M 29.46875 18.21875 C 29.714844 18.21875 29.960938 18.21875 30.214844 18.21875 C 30.472656 18.21875 30.734375 18.21875 31 18.21875 C 31.390625 18.21875 31.390625 18.21875 31.785156 18.21875 C 32.03125 18.21875 32.277344 18.21875 32.53125 18.21875 C 32.757812 18.21875 32.984375 18.21875 33.222656 18.21875 C 33.75 18.25 33.75 18.25 34 18.5 C 34.011719 19 34.011719 19.5 34 20 C 33.054688 20.472656 31.910156 20.296875 30.875 20.296875 C 30.632812 20.300781 30.386719 20.300781 30.136719 20.308594 C 29.785156 20.308594 29.785156 20.308594 29.429688 20.308594 C 29.214844 20.308594 29 20.308594 28.78125 20.3125 C 28.25 20.25 28.25 20.25 27.75 19.75 C 27.921875 18.351562 28.101562 18.21875 29.46875 18.21875 Z M 29.46875 18.21875 "/>
<path style=" stroke:none;fill-rule:nonzero;fill:rgb(20%,80.000001%,55.686277%);fill-opacity:1;" d="M 34.109375 30.953125 C 34.355469 30.949219 34.597656 30.949219 34.851562 30.941406 C 35.085938 30.941406 35.320312 30.941406 35.5625 30.941406 C 35.777344 30.941406 35.992188 30.941406 36.214844 30.9375 C 36.75 31 36.75 31 37.25 31.5 C 37.113281 32.636719 37.113281 32.636719 36.75 33 C 35.882812 33.0625 35.011719 33.046875 34.140625 33.046875 C 33.894531 33.050781 33.648438 33.054688 33.398438 33.054688 C 33.164062 33.054688 32.929688 33.058594 32.6875 33.058594 C 32.472656 33.058594 32.257812 33.0625 32.035156 33.0625 C 31.5 33 31.5 33 31 32.5 C 31.246094 30.5 32.371094 30.953125 34.109375 30.953125 Z M 34.109375 30.953125 "/>
<path style=" stroke:none;fill-rule:nonzero;fill:rgb(67.843139%,69.803923%,74.509805%);fill-opacity:1;" d="M 7.46875 56.433594 C 7.644531 56.4375 7.820312 56.4375 8 56.4375 C 8.175781 56.4375 8.351562 56.4375 8.53125 56.433594 C 9 56.5 9 56.5 9.5 57 C 9.5625 57.625 9.5625 57.625 9.5 58.25 C 9 58.75 9 58.75 8.53125 58.816406 C 8.355469 58.816406 8.179688 58.8125 8 58.8125 C 7.824219 58.8125 7.648438 58.816406 7.46875 58.816406 C 7 58.75 7 58.75 6.5 58.25 C 6.4375 57.625 6.4375 57.625 6.5 57 C 7 56.5 7 56.5 7.46875 56.433594 Z M 7.46875 56.433594 "/>
<path style=" stroke:none;fill-rule:nonzero;fill:rgb(67.843139%,69.803923%,74.509805%);fill-opacity:1;" d="M 7.46875 52.183594 C 7.644531 52.1875 7.820312 52.1875 8 52.1875 C 8.175781 52.1875 8.351562 52.1875 8.53125 52.183594 C 9 52.25 9 52.25 9.5 52.75 C 9.5625 53.375 9.5625 53.375 9.5 54 C 9 54.5 9 54.5 8.53125 54.566406 C 8.355469 54.566406 8.179688 54.5625 8 54.5625 C 7.824219 54.5625 7.648438 54.566406 7.46875 54.566406 C 7 54.5 7 54.5 6.5 54 C 6.4375 53.375 6.4375 53.375 6.5 52.75 C 7 52.25 7 52.25 7.46875 52.183594 Z M 7.46875 52.183594 "/>
<path style=" stroke:none;fill-rule:nonzero;fill:rgb(67.450982%,69.411767%,74.509805%);fill-opacity:1;" d="M 7.3125 30.96875 C 7.539062 30.96875 7.765625 30.96875 8 30.96875 C 8.339844 30.96875 8.339844 30.96875 8.6875 30.96875 C 9.25 31 9.25 31 9.5 31.25 C 9.53125 32 9.53125 32 9.5 32.75 C 9.25 33 9.25 33 8.6875 33.035156 C 8.460938 33.03125 8.234375 33.03125 8 33.03125 C 7.660156 33.03125 7.660156 33.03125 7.3125 33.035156 C 6.75 33 6.75 33 6.5 32.75 C 6.46875 32 6.46875 32 6.5 31.25 C 6.75 31 6.75 31 7.3125 30.96875 Z M 7.3125 30.96875 "/>
<path style=" stroke:none;fill-rule:nonzero;fill:rgb(67.058825%,69.01961%,74.117649%);fill-opacity:1;" d="M 8 35.203125 C 8.261719 35.199219 8.261719 35.199219 8.53125 35.191406 C 9 35.25 9 35.25 9.5 35.75 C 9.546875 36.390625 9.546875 36.390625 9.5 37 C 9.25 37.25 9.25 37.25 8.6875 37.28125 C 8.460938 37.28125 8.234375 37.28125 8 37.28125 C 7.660156 37.28125 7.660156 37.28125 7.3125 37.28125 C 6.75 37.25 6.75 37.25 6.5 37 C 6.488281 36.5 6.488281 36 6.5 35.5 C 7.058594 35.21875 7.382812 35.207031 8 35.203125 Z M 8 35.203125 "/>
<path style=" stroke:none;fill-rule:nonzero;fill:rgb(67.058825%,69.01961%,73.725492%);fill-opacity:1;" d="M 7.46875 47.933594 C 7.644531 47.9375 7.820312 47.9375 8 47.9375 C 8.175781 47.9375 8.351562 47.9375 8.53125 47.933594 C 9 48 9 48 9.5 48.5 C 9.546875 49.140625 9.546875 49.140625 9.5 49.75 C 9.25 50 9.25 50 8.6875 50.035156 C 8.460938 50.035156 8.234375 50.03125 8 50.03125 C 7.660156 50.03125 7.660156 50.03125 7.3125 50.035156 C 6.75 50 6.75 50 6.5 49.75 C 6.453125 49.140625 6.453125 49.140625 6.5 48.5 C 7 48 7 48 7.46875 47.933594 Z M 7.46875 47.933594 "/>
<path style=" stroke:none;fill-rule:nonzero;fill:rgb(67.058825%,69.01961%,73.725492%);fill-opacity:1;" d="M 7.46875 43.683594 C 7.644531 43.6875 7.820312 43.6875 8 43.6875 C 8.175781 43.6875 8.351562 43.6875 8.53125 43.683594 C 9 43.75 9 43.75 9.5 44.25 C 9.546875 44.890625 9.546875 44.890625 9.5 45.5 C 9.25 45.75 9.25 45.75 8.6875 45.785156 C 8.460938 45.785156 8.234375 45.78125 8 45.78125 C 7.660156 45.78125 7.660156 45.78125 7.3125 45.785156 C 6.75 45.75 6.75 45.75 6.5 45.5 C 6.453125 44.890625 6.453125 44.890625 6.5 44.25 C 7 43.75 7 43.75 7.46875 43.683594 Z M 7.46875 43.683594 "/>
<path style=" stroke:none;fill-rule:nonzero;fill:rgb(67.058825%,69.01961%,73.725492%);fill-opacity:1;" d="M 7.46875 39.433594 C 7.644531 39.4375 7.820312 39.4375 8 39.4375 C 8.175781 39.4375 8.351562 39.4375 8.53125 39.433594 C 9 39.5 9 39.5 9.5 40 C 9.546875 40.640625 9.546875 40.640625 9.5 41.25 C 9.25 41.5 9.25 41.5 8.6875 41.535156 C 8.460938 41.535156 8.234375 41.53125 8 41.53125 C 7.660156 41.53125 7.660156 41.53125 7.3125 41.535156 C 6.75 41.5 6.75 41.5 6.5 41.25 C 6.453125 40.640625 6.453125 40.640625 6.5 40 C 7 39.5 7 39.5 7.46875 39.433594 Z M 7.46875 39.433594 "/>
<path style=" stroke:none;fill-rule:nonzero;fill:rgb(67.058825%,69.01961%,74.117649%);fill-opacity:1;" d="M 7.3125 26.71875 C 7.539062 26.71875 7.765625 26.71875 8 26.71875 C 8.339844 26.71875 8.339844 26.71875 8.6875 26.71875 C 9.25 26.75 9.25 26.75 9.5 27 C 9.546875 27.609375 9.546875 27.609375 9.5 28.25 C 9 28.75 9 28.75 8.53125 28.816406 C 8.355469 28.8125 8.179688 28.8125 8 28.8125 C 7.824219 28.8125 7.648438 28.8125 7.46875 28.816406 C 7 28.75 7 28.75 6.5 28.25 C 6.453125 27.609375 6.453125 27.609375 6.5 27 C 6.75 26.75 6.75 26.75 7.3125 26.71875 Z M 7.3125 26.71875 "/>
<path style=" stroke:none;fill-rule:nonzero;fill:rgb(67.058825%,69.01961%,73.725492%);fill-opacity:1;" d="M 7.3125 22.46875 C 7.539062 22.46875 7.765625 22.46875 8 22.46875 C 8.339844 22.46875 8.339844 22.46875 8.6875 22.46875 C 9.25 22.5 9.25 22.5 9.5 22.75 C 9.546875 23.359375 9.546875 23.359375 9.5 24 C 9 24.5 9 24.5 8.53125 24.566406 C 8.355469 24.5625 8.179688 24.5625 8 24.5625 C 7.824219 24.5625 7.648438 24.5625 7.46875 24.566406 C 7 24.5 7 24.5 6.5 24 C 6.453125 23.359375 6.453125 23.359375 6.5 22.75 C 6.75 22.5 6.75 22.5 7.3125 22.46875 Z M 7.3125 22.46875 "/>
<path style=" stroke:none;fill-rule:nonzero;fill:rgb(67.058825%,69.01961%,73.725492%);fill-opacity:1;" d="M 7.3125 18.21875 C 7.539062 18.21875 7.765625 18.21875 8 18.21875 C 8.339844 18.21875 8.339844 18.21875 8.6875 18.21875 C 9.25 18.25 9.25 18.25 9.5 18.5 C 9.546875 19.109375 9.546875 19.109375 9.5 19.75 C 9 20.25 9 20.25 8.53125 20.316406 C 8.355469 20.3125 8.179688 20.3125 8 20.3125 C 7.824219 20.3125 7.648438 20.3125 7.46875 20.316406 C 7 20.25 7 20.25 6.5 19.75 C 6.453125 19.109375 6.453125 19.109375 6.5 18.5 C 6.75 18.25 6.75 18.25 7.3125 18.21875 Z M 7.3125 18.21875 "/>
<path style=" stroke:none;fill-rule:nonzero;fill:rgb(67.058825%,69.01961%,73.725492%);fill-opacity:1;" d="M 7.3125 13.96875 C 7.539062 13.96875 7.765625 13.96875 8 13.96875 C 8.339844 13.96875 8.339844 13.96875 8.6875 13.96875 C 9.25 14 9.25 14 9.5 14.25 C 9.546875 14.859375 9.546875 14.859375 9.5 15.5 C 9 16 9 16 8.53125 16.066406 C 8.355469 16.0625 8.179688 16.0625 8 16.0625 C 7.824219 16.0625 7.648438 16.0625 7.46875 16.066406 C 7 16 7 16 6.5 15.5 C 6.453125 14.859375 6.453125 14.859375 6.5 14.25 C 6.75 14 6.75 14 7.3125 13.96875 Z M 7.3125 13.96875 "/>
<path style=" stroke:none;fill-rule:nonzero;fill:rgb(85.882354%,80.000001%,22.745098%);fill-opacity:1;" d="M 9 4.25 C 9.78125 4.34375 9.78125 4.34375 10.5 4.5 C 10.671875 5.078125 10.671875 5.078125 10.75 5.75 C 10.46875 6.21875 10.46875 6.21875 10 6.5 C 9.328125 6.421875 9.328125 6.421875 8.75 6.25 C 8.59375 5.53125 8.59375 5.53125 8.5 4.75 C 8.664062 4.585938 8.828125 4.421875 9 4.25 Z M 9 4.25 "/>
<path style=" stroke:none;fill-rule:nonzero;fill:rgb(18.82353%,73.725492%,54.11765%);fill-opacity:1;" d="M 4.75 4.25 C 5.574219 4.332031 5.90625 4.40625 6.5 5 C 6.40625 5.734375 6.285156 5.964844 5.75 6.5 C 5.09375 6.40625 5.09375 6.40625 4.5 6.25 C 4.34375 5.53125 4.34375 5.53125 4.25 4.75 C 4.414062 4.585938 4.578125 4.421875 4.75 4.25 Z M 4.75 4.25 "/>
<path style=" stroke:none;fill-rule:nonzero;fill:rgb(85.490197%,29.411766%,36.078432%);fill-opacity:1;" d="M 13.25 4.25 C 13.753906 4.324219 14.253906 4.40625 14.75 4.5 C 14.921875 5.078125 14.921875 5.078125 15 5.75 C 14.703125 6.21875 14.703125 6.21875 14.25 6.5 C 13.507812 6.433594 13.289062 6.289062 12.75 5.75 C 12.890625 4.609375 12.890625 4.609375 13.25 4.25 Z M 13.25 4.25 "/>
</g>
</svg>
