<?xml version="1.0" encoding="UTF-8"?>
<svg xmlns="http://www.w3.org/2000/svg" xmlns:xlink="http://www.w3.org/1999/xlink" width="64" height="64" viewBox="0 0 64 64" version="1.1">
<g id="surface1">
<path style=" stroke:none;fill-rule:nonzero;fill:rgb(94.509804%,38.039216%,38.039216%);fill-opacity:1;" d="M 25.433594 20.066406 C 28.703125 22.660156 30.984375 26.117188 31.75 30.25 C 32.722656 39.46875 26.15625 48.390625 21 55.5 C 21.320312 55.609375 21.320312 55.609375 21.648438 55.71875 C 25.410156 57.070312 25.410156 57.070312 26.25 58.75 C 26.425781 60.507812 26.425781 60.507812 25.765625 61.421875 C 22.773438 63.683594 19.601562 64.140625 15.90625 64.109375 C 15.589844 64.105469 15.269531 64.105469 14.941406 64.105469 C 11.675781 64.046875 8.648438 63.589844 6 61.5 C 5.382812 60.570312 5.304688 59.824219 5.5 58.75 C 6.691406 56.816406 8.695312 56.230469 10.75 55.5 C 10.621094 55.320312 10.492188 55.140625 10.363281 54.957031 C -1.195312 38.503906 -1.195312 38.503906 0.078125 29.722656 C 0.902344 25.574219 3.507812 22.089844 6.898438 19.632812 C 12.589844 16.042969 19.945312 16.058594 25.433594 20.066406 Z M 8.671875 27.0625 C 7.109375 28.90625 6.390625 31.179688 6.429688 33.585938 C 6.707031 36.265625 7.761719 38.371094 9.71875 40.183594 C 11.714844 41.804688 14.183594 42.664062 16.75 42.5 C 19.386719 42.023438 21.65625 40.921875 23.367188 38.820312 C 24.761719 36.746094 25.511719 34.496094 25.25 32 C 24.597656 28.964844 23.277344 26.8125 20.75 25 C 16.507812 22.660156 11.960938 23.621094 8.671875 27.0625 Z M 8.671875 27.0625 "/>
<path style=" stroke:none;fill-rule:nonzero;fill:rgb(7.058824%,72.549021%,46.27451%);fill-opacity:1;" d="M 60.714844 1.53125 C 62.289062 2.695312 63.617188 4.828125 64 6.75 C 64.558594 12.132812 61.363281 16.695312 58.5 21 C 58.640625 21.085938 58.777344 21.167969 58.917969 21.253906 C 59.101562 21.367188 59.28125 21.480469 59.46875 21.59375 C 59.648438 21.703125 59.828125 21.816406 60.015625 21.925781 C 60.5 22.25 60.5 22.25 61 22.75 C 61.113281 23.613281 61.125 24.070312 60.625 24.796875 C 58.554688 26.296875 55.972656 26.417969 53.5 26.25 C 50.195312 25.710938 50.195312 25.710938 49.25 24.5 C 49.078125 23.640625 49.078125 23.640625 49.25 22.75 C 50.015625 21.96875 50.773438 21.46875 51.75 21 C 51.628906 20.816406 51.628906 20.816406 51.507812 20.628906 C 45.324219 11.128906 45.324219 11.128906 46.25 6.5 C 47.183594 3.445312 49.144531 1.746094 51.875 0.28125 C 54.875 -0.714844 58.085938 -0.0664062 60.714844 1.53125 Z M 51.28125 5.75 C 50.203125 7.273438 50.085938 8.398438 50.25 10.25 C 50.699219 11.710938 51.792969 12.617188 53 13.5 C 54.3125 13.9375 55.785156 14.035156 57.089844 13.515625 C 58.488281 12.675781 59.5625 11.605469 60 10 C 60.207031 8.371094 59.957031 7.097656 59 5.75 C 57.910156 4.570312 56.765625 3.988281 55.171875 3.90625 C 53.578125 3.949219 52.328125 4.542969 51.28125 5.75 Z M 51.28125 5.75 "/>
<path style=" stroke:none;fill-rule:nonzero;fill:rgb(3.529412%,1.960784%,1.176471%);fill-opacity:1;" d="M 25.433594 20.066406 C 28.703125 22.660156 30.984375 26.117188 31.75 30.25 C 32.722656 39.46875 26.15625 48.390625 21 55.5 C 21.320312 55.609375 21.320312 55.609375 21.648438 55.71875 C 25.410156 57.070312 25.410156 57.070312 26.25 58.75 C 26.425781 60.507812 26.425781 60.507812 25.765625 61.421875 C 22.773438 63.683594 19.601562 64.140625 15.90625 64.109375 C 15.589844 64.105469 15.269531 64.105469 14.941406 64.105469 C 11.675781 64.046875 8.648438 63.589844 6 61.5 C 5.382812 60.570312 5.304688 59.824219 5.5 58.75 C 6.691406 56.816406 8.695312 56.230469 10.75 55.5 C 10.621094 55.320312 10.492188 55.140625 10.363281 54.957031 C -1.195312 38.503906 -1.195312 38.503906 0.078125 29.722656 C 0.902344 25.574219 3.507812 22.089844 6.898438 19.632812 C 12.589844 16.042969 19.945312 16.058594 25.433594 20.066406 Z M 9.75 19 C 9.5 19.125 9.25 19.25 8.992188 19.378906 C 4.992188 21.542969 2.304688 24.863281 0.953125 29.203125 C -0.0351562 34.277344 1.589844 38.5625 3.964844 42.96875 C 4.265625 43.527344 4.554688 44.089844 4.847656 44.648438 C 6.664062 48.09375 8.796875 51.296875 11 54.5 C 11.222656 54.828125 11.222656 54.828125 11.453125 55.160156 C 11.855469 55.757812 12.265625 56.347656 12.671875 56.9375 C 12.789062 57.109375 12.90625 57.28125 13.027344 57.457031 C 13.675781 58.378906 14.292969 59.125 15.25 59.75 C 16.128906 59.847656 16.128906 59.847656 17 59.5 C 18.351562 58.265625 19.355469 56.585938 20.390625 55.09375 C 20.566406 54.84375 20.742188 54.589844 20.921875 54.328125 C 28.980469 42.996094 28.980469 42.996094 30.882812 29.699219 C 29.835938 25.472656 27.1875 22.019531 23.5 19.75 C 19.496094 17.660156 13.90625 16.878906 9.75 19 Z M 9.75 19 "/>
<path style=" stroke:none;fill-rule:nonzero;fill:rgb(0.784314%,2.745098%,1.960784%);fill-opacity:1;" d="M 60.714844 1.53125 C 62.289062 2.695312 63.617188 4.828125 64 6.75 C 64.558594 12.132812 61.363281 16.695312 58.5 21 C 58.640625 21.085938 58.777344 21.167969 58.917969 21.253906 C 59.101562 21.367188 59.28125 21.480469 59.46875 21.59375 C 59.648438 21.703125 59.828125 21.816406 60.015625 21.925781 C 60.5 22.25 60.5 22.25 61 22.75 C 61.113281 23.613281 61.125 24.070312 60.625 24.796875 C 58.554688 26.296875 55.972656 26.417969 53.5 26.25 C 50.195312 25.710938 50.195312 25.710938 49.25 24.5 C 49.078125 23.640625 49.078125 23.640625 49.25 22.75 C 50.015625 21.96875 50.773438 21.46875 51.75 21 C 51.628906 20.816406 51.628906 20.816406 51.507812 20.628906 C 45.324219 11.128906 45.324219 11.128906 46.25 6.5 C 47.183594 3.445312 49.144531 1.746094 51.875 0.28125 C 54.875 -0.714844 58.085938 -0.0664062 60.714844 1.53125 Z M 48.40625 3.917969 C 46.941406 6.015625 46.554688 8.230469 47 10.75 C 47.402344 12.085938 48.074219 13.285156 48.75 14.5 C 48.867188 14.734375 48.988281 14.972656 49.113281 15.214844 C 51.457031 20.003906 51.457031 20.003906 55.050781 23.433594 C 55.199219 23.453125 55.347656 23.476562 55.5 23.5 C 58.355469 20.230469 60.578125 16.378906 62.5 12.5 C 62.59375 12.320312 62.691406 12.140625 62.789062 11.957031 C 63.640625 10.125 63.574219 7.804688 62.992188 5.914062 C 62 3.738281 60.515625 2.167969 58.359375 1.125 C 54.628906 -0.164062 50.875 0.8125 48.40625 3.917969 Z M 48.40625 3.917969 "/>
<path style=" stroke:none;fill-rule:nonzero;fill:rgb(98.039216%,79.215688%,15.686275%);fill-opacity:1;" d="M 12 56.75 C 12.441406 57.246094 12.800781 57.703125 13.171875 58.25 C 13.820312 59.273438 13.820312 59.273438 14.75 60 C 15.878906 60.15625 16.71875 60.203125 17.65625 59.515625 C 18 59.074219 18.335938 58.621094 18.640625 58.15625 C 19.066406 57.550781 19.464844 57.011719 20 56.5 C 21.789062 56.289062 23.503906 57.324219 25 58.25 C 25.5 59 25.5 59 25.484375 59.859375 C 25.199219 60.945312 24.910156 61.125 24 61.75 C 23.238281 62.113281 23.238281 62.113281 22.421875 62.421875 C 22.15625 62.523438 21.886719 62.628906 21.613281 62.738281 C 17.546875 63.976562 11.761719 63.867188 7.96875 61.875 C 7.304688 61.484375 6.746094 61.089844 6.25 60.5 C 6.125 59.78125 6.125 59.78125 6.25 59 C 7.246094 57.695312 8.628906 57.011719 10.171875 56.546875 C 10.878906 56.488281 11.320312 56.523438 12 56.75 Z M 12 56.75 "/>
<path style=" stroke:none;fill-rule:nonzero;fill:rgb(4.313726%,1.568628%,1.568628%);fill-opacity:1;" d="M 21.125 24.328125 C 23.582031 25.847656 25.214844 28.058594 25.902344 30.878906 C 26.304688 33.46875 25.992188 36.195312 24.578125 38.4375 C 23.015625 40.550781 21.476562 41.828125 19 42.75 C 18.757812 42.84375 18.511719 42.933594 18.261719 43.027344 C 15.890625 43.71875 13.453125 43.273438 11.25 42.25 C 10.523438 41.808594 9.882812 41.316406 9.25 40.75 C 8.925781 40.460938 8.925781 40.460938 8.59375 40.171875 C 6.449219 37.746094 5.652344 35.441406 5.695312 32.207031 C 5.894531 29.554688 7.164062 27.203125 9.09375 25.40625 C 12.617188 22.46875 17.085938 22.191406 21.125 24.328125 Z M 8.671875 27.0625 C 7.109375 28.90625 6.390625 31.179688 6.429688 33.585938 C 6.707031 36.265625 7.761719 38.367188 9.71875 40.183594 C 11.714844 41.804688 14.183594 42.664062 16.75 42.5 C 19.386719 42.023438 21.65625 40.921875 23.367188 38.820312 C 24.761719 36.746094 25.511719 34.496094 25.25 32 C 24.597656 28.964844 23.277344 26.8125 20.75 25 C 16.507812 22.660156 11.960938 23.621094 8.671875 27.0625 Z M 8.671875 27.0625 "/>
<path style=" stroke:none;fill-rule:nonzero;fill:rgb(6.666667%,66.274512%,42.745098%);fill-opacity:1;" d="M 56.5 0.75 C 59.25 1.390625 60.984375 2.613281 62.5 5 C 63.515625 6.664062 63.5625 8.601562 63.25 10.5 C 62.863281 11.917969 62.191406 13.210938 61.5 14.5 C 61.40625 14.671875 61.316406 14.84375 61.21875 15.023438 C 59.636719 17.917969 57.84375 21.15625 55.5 23.5 C 54.96875 23.40625 54.96875 23.40625 54.5 23.25 C 54.5 22.304688 54.753906 22.097656 55.328125 21.359375 C 60.007812 15.101562 60.007812 15.101562 61.5 7.75 C 61.0625 5.476562 60.078125 3.558594 58.203125 2.15625 C 58.039062 2.046875 57.878906 1.933594 57.707031 1.824219 C 57.253906 1.503906 56.882812 1.15625 56.5 0.75 Z M 56.5 0.75 "/>
<path style=" stroke:none;fill-rule:nonzero;fill:rgb(0%,2.745098%,1.568628%);fill-opacity:1;" d="M 57.46875 3.527344 C 59.066406 4.414062 60.164062 5.488281 60.75 7.25 C 60.972656 9.335938 60.769531 11.035156 59.5 12.75 C 57.835938 14.367188 56.367188 14.625 54.082031 14.597656 C 52.3125 14.390625 51.1875 13.339844 50.109375 11.984375 C 49.167969 10.441406 49.21875 8.679688 49.628906 6.957031 C 50.15625 5.566406 51.101562 4.417969 52.375 3.65625 C 53.984375 2.9375 55.828125 2.894531 57.46875 3.527344 Z M 51.28125 5.75 C 50.203125 7.273438 50.085938 8.394531 50.25 10.25 C 50.699219 11.707031 51.796875 12.617188 53 13.5 C 54.3125 13.9375 55.789062 14.035156 57.089844 13.515625 C 58.488281 12.675781 59.5625 11.605469 60 10 C 60.207031 8.371094 59.957031 7.097656 59 5.75 C 57.90625 4.570312 56.765625 3.992188 55.171875 3.90625 C 53.578125 3.949219 52.328125 4.542969 51.28125 5.75 Z M 51.28125 5.75 "/>
<path style=" stroke:none;fill-rule:nonzero;fill:rgb(90.588236%,89.803922%,89.803922%);fill-opacity:1;" d="M 53 22.25 C 53.195312 22.503906 53.390625 22.753906 53.59375 23.015625 C 54.191406 23.824219 54.191406 23.824219 55.125 23.953125 C 56.082031 23.730469 56.191406 23.628906 56.734375 22.875 C 56.914062 22.585938 57.085938 22.296875 57.25 22 C 58.445312 22.117188 59.261719 22.308594 60.25 23 C 60.25 23.5625 60.25 23.5625 60 24.25 C 58.003906 25.667969 55.605469 25.6875 53.25 25.5 C 52.050781 25.199219 50.886719 24.886719 50 24 C 50 23.390625 50 23.390625 50.25 22.75 C 51.207031 22.097656 51.90625 21.773438 53 22.25 Z M 53 22.25 "/>
<path style=" stroke:none;fill-rule:nonzero;fill:rgb(98.039216%,62.352943%,62.352943%);fill-opacity:1;" d="M 6.9375 22.90625 C 7.5 23 7.5 23 7.75 23.25 C 7.863281 24.089844 7.78125 24.445312 7.339844 25.179688 C 7.070312 25.523438 7.070312 25.523438 6.796875 25.875 C 6.269531 26.558594 5.777344 27.203125 5.359375 27.957031 C 5.238281 28.136719 5.121094 28.316406 5 28.5 C 4.203125 28.578125 4.203125 28.578125 3.5 28.5 C 3.265625 27.609375 3.183594 27.148438 3.566406 26.296875 C 5.761719 23.066406 5.761719 23.066406 6.9375 22.90625 Z M 6.9375 22.90625 "/>
<path style=" stroke:none;fill-rule:nonzero;fill:rgb(0.784314%,0.784314%,0.784314%);fill-opacity:1;" d="M 40.25 23.5 C 40.734375 23.90625 40.734375 23.90625 41 24.5 C 41.023438 25.578125 40.820312 25.925781 40.078125 26.71875 C 39.179688 27.296875 38.792969 27.433594 37.75 27.25 C 37.265625 26.984375 37.265625 26.984375 37 26.5 C 36.976562 25.335938 37.128906 24.878906 37.921875 24.015625 C 38.820312 23.457031 39.21875 23.292969 40.25 23.5 Z M 40.25 23.5 "/>
<path style=" stroke:none;fill-rule:nonzero;fill:rgb(0%,0%,0%);fill-opacity:1;" d="M 45.25 22.25 C 45.890625 22.53125 45.890625 22.53125 46.25 23 C 46.363281 23.777344 46.421875 24.261719 45.953125 24.914062 C 45.328125 25.375 44.890625 25.351562 44.125 25.34375 C 43.886719 25.34375 43.644531 25.347656 43.398438 25.351562 C 42.75 25.25 42.75 25.25 42.296875 24.914062 C 41.828125 24.261719 41.886719 23.777344 42 23 C 42.792969 21.96875 44.0625 22.09375 45.25 22.25 Z M 45.25 22.25 "/>
<path style=" stroke:none;fill-rule:nonzero;fill:rgb(0.784314%,0.784314%,0.784314%);fill-opacity:1;" d="M 55 56.25 C 55.5 56.75 55.5 56.75 55.640625 57.578125 C 55.488281 58.558594 55.453125 58.664062 54.71875 59.234375 C 53.875 59.753906 53.246094 59.933594 52.25 59.75 C 51.78125 59.46875 51.78125 59.46875 51.5 59 C 51.34375 58.28125 51.34375 58.28125 51.5 57.5 C 52.484375 56.386719 53.523438 56.046875 55 56.25 Z M 55 56.25 "/>
<path style=" stroke:none;fill-rule:nonzero;fill:rgb(0.784314%,0.784314%,0.784314%);fill-opacity:1;" d="M 57.953125 52.03125 C 58.347656 52.140625 58.347656 52.140625 58.75 52.25 C 59.113281 52.980469 59.332031 53.488281 59.078125 54.285156 C 58.394531 55.675781 58.394531 55.675781 57.75 56 C 56.875 56.0625 56.875 56.0625 56 56 C 55.5 55.25 55.5 55.25 55.515625 54.421875 C 55.875 53.007812 56.328125 51.980469 57.953125 52.03125 Z M 57.953125 52.03125 "/>
<path style=" stroke:none;fill-rule:nonzero;fill:rgb(0.784314%,0.784314%,0.784314%);fill-opacity:1;" d="M 53.53125 37.390625 C 54.660156 37.519531 55.113281 37.804688 55.917969 38.566406 C 56.25 39 56.25 39 56.4375 39.796875 C 56.25 40.5 56.25 40.5 55.71875 41 C 55 41.25 55 41.25 54.25 41.125 C 53.359375 40.679688 52.839844 40.304688 52.25 39.5 C 52.3125 37.5625 52.3125 37.5625 53.53125 37.390625 Z M 53.53125 37.390625 "/>
<path style=" stroke:none;fill-rule:nonzero;fill:rgb(0.784314%,0.784314%,0.784314%);fill-opacity:1;" d="M 57.328125 41.40625 C 58.25 41.5 58.25 41.5 58.84375 42 C 59.378906 42.984375 59.484375 43.625 59.5 44.75 C 59.234375 45.25 59.234375 45.25 58.75 45.5 C 58.03125 45.671875 58.03125 45.671875 57.25 45.5 C 56.660156 44.90625 56.292969 44.28125 56 43.5 C 56.0625 41.546875 56.0625 41.546875 57.328125 41.40625 Z M 57.328125 41.40625 "/>
<path style=" stroke:none;fill-rule:nonzero;fill:rgb(0.784314%,0.784314%,0.784314%);fill-opacity:1;" d="M 48.984375 35.65625 C 49.304688 35.652344 49.304688 35.652344 49.632812 35.652344 C 50.375 35.769531 50.71875 35.972656 51.25 36.5 C 51.359375 37.390625 51.359375 37.390625 51.25 38.25 C 50.320312 38.867188 49.847656 38.828125 48.75 38.75 C 47.96875 38.507812 47.582031 38.332031 47 37.75 C 46.910156 37.054688 46.875 36.667969 47.300781 36.089844 C 47.890625 35.644531 48.25 35.648438 48.984375 35.65625 Z M 48.984375 35.65625 "/>
<path style=" stroke:none;fill-rule:nonzero;fill:rgb(1.176471%,1.176471%,1.176471%);fill-opacity:1;" d="M 39 33.25 C 39.640625 33.65625 40.09375 34.109375 40.5 34.75 C 40.625 35.6875 40.625 35.6875 40.5 36.5 C 40 37 40 37 39.1875 37.125 C 38.101562 36.980469 37.734375 36.730469 37.023438 35.929688 C 36.59375 35.253906 36.59375 34.773438 36.75 34 C 37.300781 33.078125 37.996094 33.074219 39 33.25 Z M 39 33.25 "/>
<path style=" stroke:none;fill-rule:nonzero;fill:rgb(1.568628%,1.568628%,1.568628%);fill-opacity:1;" d="M 37.03125 28.015625 C 37.75 28.25 37.75 28.25 38.046875 28.6875 C 38.289062 29.359375 38.269531 29.820312 38.1875 30.53125 C 38.167969 30.75 38.144531 30.964844 38.121094 31.191406 C 38 31.75 38 31.75 37.5 32.25 C 36.625 32.3125 36.625 32.3125 35.75 32.25 C 35.078125 31.578125 35.167969 31.199219 35.15625 30.265625 C 35.148438 30 35.140625 29.734375 35.132812 29.464844 C 35.25 28.75 35.25 28.75 35.707031 28.277344 C 36.25 28 36.25 28 37.03125 28.015625 Z M 37.03125 28.015625 "/>
<path style=" stroke:none;fill-rule:nonzero;fill:rgb(1.176471%,1.176471%,1.176471%);fill-opacity:1;" d="M 58.875 46.6875 C 59.75 46.75 59.75 46.75 60.25 47.25 C 60.324219 47.925781 60.324219 47.925781 60.328125 48.734375 C 60.332031 49 60.335938 49.265625 60.339844 49.539062 C 60.25 50.25 60.25 50.25 59.925781 50.722656 C 59.5 51 59.5 51 58.59375 50.9375 C 57.75 50.75 57.75 50.75 57.5 50.5 C 57.46875 49.964844 57.453125 49.425781 57.453125 48.890625 C 57.449219 48.597656 57.445312 48.300781 57.441406 48 C 57.527344 46.882812 57.769531 46.765625 58.875 46.6875 Z M 58.875 46.6875 "/>
<path style=" stroke:none;fill-rule:nonzero;fill:rgb(1.568628%,1.568628%,1.568628%);fill-opacity:1;" d="M 48.515625 58.171875 C 48.914062 58.164062 48.914062 58.164062 49.320312 58.160156 C 49.546875 58.1875 49.769531 58.21875 50 58.25 C 50.539062 59.058594 50.617188 59.3125 50.5 60.25 C 50.214844 60.660156 50.214844 60.660156 49.75 61 C 49.039062 61.09375 49.039062 61.09375 48.234375 61.078125 C 47.96875 61.078125 47.703125 61.078125 47.429688 61.074219 C 46.75 61 46.75 61 46.25 60.5 C 46.171875 59.625 46.171875 59.625 46.25 58.75 C 47.117188 58.175781 47.496094 58.175781 48.515625 58.171875 Z M 48.515625 58.171875 "/>
<path style=" stroke:none;fill-rule:nonzero;fill:rgb(1.960784%,1.960784%,1.960784%);fill-opacity:1;" d="M 37.234375 58.15625 C 37.632812 58.144531 37.632812 58.144531 38.035156 58.132812 C 38.75 58.25 38.75 58.25 39.222656 58.714844 C 39.5 59.25 39.5 59.25 39.453125 59.90625 C 39.25 60.5 39.25 60.5 38.75 61 C 38.070312 61.082031 38.070312 61.082031 37.265625 61.09375 C 37 61.101562 36.734375 61.109375 36.460938 61.117188 C 35.75 61 35.75 61 35.277344 60.535156 C 35 60 35 60 35.046875 59.34375 C 35.460938 58.136719 36.0625 58.171875 37.234375 58.15625 Z M 37.234375 58.15625 "/>
<path style=" stroke:none;fill-rule:nonzero;fill:rgb(1.176471%,1.176471%,1.176471%);fill-opacity:1;" d="M 43.609375 35.703125 C 44.050781 35.699219 44.050781 35.699219 44.5 35.691406 C 45.25 35.75 45.25 35.75 45.75 36.25 C 45.828125 37.125 45.828125 37.125 45.75 38 C 44.917969 38.554688 44.601562 38.574219 43.625 38.578125 C 43.382812 38.582031 43.144531 38.585938 42.898438 38.589844 C 42.25 38.5 42.25 38.5 41.785156 38.175781 C 41.5 37.75 41.5 37.75 41.5625 36.84375 C 41.871094 35.464844 42.273438 35.710938 43.609375 35.703125 Z M 43.609375 35.703125 "/>
<path style=" stroke:none;fill-rule:nonzero;fill:rgb(1.960784%,1.960784%,1.960784%);fill-opacity:1;" d="M 42.734375 58.15625 C 43.132812 58.144531 43.132812 58.144531 43.535156 58.132812 C 44.25 58.25 44.25 58.25 44.722656 58.714844 C 45 59.25 45 59.25 44.953125 59.90625 C 44.75 60.5 44.75 60.5 44.25 61 C 43.5625 61.066406 43.5625 61.066406 42.75 61.0625 C 42.347656 61.0625 42.347656 61.0625 41.9375 61.066406 C 41.25 61 41.25 61 40.75 60.5 C 40.6875 59.625 40.6875 59.625 40.75 58.75 C 41.421875 58.078125 41.800781 58.167969 42.734375 58.15625 Z M 42.734375 58.15625 "/>
<path style=" stroke:none;fill-rule:nonzero;fill:rgb(1.960784%,1.960784%,1.960784%);fill-opacity:1;" d="M 31.734375 58.140625 C 32 58.128906 32.265625 58.121094 32.535156 58.109375 C 33.25 58.25 33.25 58.25 33.730469 58.839844 C 34 59.5 34 59.5 33.8125 60.1875 C 33.5 60.75 33.5 60.75 33.25 61 C 32.761719 61.046875 32.273438 61.066406 31.78125 61.078125 C 31.515625 61.089844 31.246094 61.09375 30.972656 61.105469 C 30.25 61 30.25 61 29.777344 60.535156 C 29.5 60 29.5 60 29.546875 59.34375 C 29.960938 58.140625 30.5625 58.164062 31.734375 58.140625 Z M 31.734375 58.140625 "/>
<path style=" stroke:none;fill-rule:nonzero;fill:rgb(7.843138%,4.705882%,1.960784%);fill-opacity:1;" d="M 19 56.75 C 19.164062 56.75 19.328125 56.75 19.5 56.75 C 19.347656 57.664062 18.960938 58.203125 18.390625 58.921875 C 18.238281 59.121094 18.082031 59.316406 17.921875 59.515625 C 17.453125 60.054688 17.207031 60.226562 16.503906 60.308594 C 15.535156 60.339844 14.921875 60.347656 14.0625 59.859375 C 12.25 57.894531 12.25 57.894531 12.25 57 C 12.917969 57.09375 13.183594 57.167969 13.613281 57.703125 C 13.726562 57.882812 13.835938 58.066406 13.953125 58.25 C 14.519531 59.046875 14.675781 59.226562 15.640625 59.5625 C 16.710938 59.484375 17.015625 59.273438 17.75 58.5 C 17.976562 58.191406 18.203125 57.878906 18.421875 57.5625 C 18.613281 57.296875 18.800781 57.023438 19 56.75 Z M 19 56.75 "/>
<path style=" stroke:none;fill-rule:nonzero;fill:rgb(37.64706%,37.64706%,37.64706%);fill-opacity:1;" d="M 44.523438 22.941406 C 45 23 45 23 45.5 23.5 C 45.5 23.746094 45.5 23.996094 45.5 24.25 C 44.699219 24.652344 43.890625 24.515625 43 24.5 C 42.90625 24.085938 42.824219 23.667969 42.75 23.25 C 43.226562 22.777344 43.890625 22.953125 44.523438 22.941406 Z M 44.523438 22.941406 "/>
<path style=" stroke:none;fill-rule:nonzero;fill:rgb(39.215687%,39.215687%,39.215687%);fill-opacity:1;" d="M 49.523438 36.46875 C 50 36.5 50 36.5 50.5 36.75 C 50.417969 37.160156 50.335938 37.574219 50.25 38 C 49.507812 37.917969 48.765625 37.835938 48 37.75 C 47.917969 37.417969 47.835938 37.089844 47.75 36.75 C 48.226562 36.273438 48.890625 36.46875 49.523438 36.46875 Z M 49.523438 36.46875 "/>
<path style=" stroke:none;fill-rule:nonzero;fill:rgb(39.215687%,39.215687%,39.215687%);fill-opacity:1;" d="M 39.5625 24.3125 C 39.78125 24.40625 39.78125 24.40625 40 24.5 C 40 25.5 40 25.5 39.4375 26.078125 C 38.75 26.5 38.75 26.5 38.171875 26.4375 C 38.03125 26.375 37.890625 26.3125 37.75 26.25 C 37.894531 25.226562 38.40625 24.183594 39.5625 24.3125 Z M 39.5625 24.3125 "/>
<path style=" stroke:none;fill-rule:nonzero;fill:rgb(39.607844%,39.607844%,39.607844%);fill-opacity:1;" d="M 57.25 52.75 C 57.578125 52.832031 57.910156 52.914062 58.25 53 C 58.125 53.933594 58.03125 54.453125 57.5 55.25 C 57.085938 55.167969 56.675781 55.085938 56.25 55 C 56.414062 54.128906 56.773438 53.492188 57.25 52.75 Z M 57.25 52.75 "/>
<path style=" stroke:none;fill-rule:nonzero;fill:rgb(39.607844%,39.607844%,39.607844%);fill-opacity:1;" d="M 53.25 38.25 C 54.203125 38.382812 54.765625 38.625 55.5 39.25 C 55.417969 39.578125 55.335938 39.910156 55.25 40.25 C 54.296875 40.117188 53.734375 39.875 53 39.25 C 53.082031 38.921875 53.164062 38.589844 53.25 38.25 Z M 53.25 38.25 "/>
<path style=" stroke:none;fill-rule:nonzero;fill:rgb(40.392157%,40.392157%,40.392157%);fill-opacity:1;" d="M 54.75 57.25 C 54.703125 57.703125 54.703125 57.703125 54.5 58.25 C 53.921875 58.703125 53.921875 58.703125 53.25 59 C 52.671875 58.921875 52.671875 58.921875 52.25 58.75 C 52.34375 58.078125 52.460938 57.789062 52.9375 57.296875 C 53.648438 56.921875 53.996094 57.019531 54.75 57.25 Z M 54.75 57.25 "/>
<path style=" stroke:none;fill-rule:nonzero;fill:rgb(40.000001%,40.000001%,40.000001%);fill-opacity:1;" d="M 57 42.25 C 57.328125 42.25 57.660156 42.25 58 42.25 C 58.769531 43.605469 58.769531 43.605469 58.671875 44.34375 C 58.613281 44.476562 58.558594 44.613281 58.5 44.75 C 58.046875 44.703125 58.046875 44.703125 57.5 44.5 C 57.046875 43.921875 57.046875 43.921875 56.75 43.25 C 56.828125 42.671875 56.828125 42.671875 57 42.25 Z M 57 42.25 "/>
<path style=" stroke:none;fill-rule:nonzero;fill:rgb(40.784314%,40.784314%,40.784314%);fill-opacity:1;" d="M 47.765625 58.976562 C 48.078125 58.980469 48.078125 58.980469 48.390625 58.984375 C 48.597656 58.984375 48.804688 58.988281 49.015625 58.992188 C 49.175781 58.992188 49.335938 59 49.5 59 C 49.640625 59.484375 49.640625 59.484375 49.75 60 C 49.5 60.25 49.5 60.25 48.984375 60.277344 C 48.777344 60.269531 48.570312 60.269531 48.359375 60.265625 C 48.152344 60.261719 47.945312 60.261719 47.734375 60.257812 C 47.574219 60.253906 47.414062 60.253906 47.25 60.25 C 47.109375 59.765625 47.109375 59.765625 47 59.25 C 47.25 59 47.25 59 47.765625 58.976562 Z M 47.765625 58.976562 "/>
<path style=" stroke:none;fill-rule:nonzero;fill:rgb(40.784314%,40.784314%,40.784314%);fill-opacity:1;" d="M 58.5 47.5 C 58.996094 47.625 58.996094 47.625 59.5 47.75 C 59.5 48.492188 59.5 49.234375 59.5 50 C 59.171875 50.082031 58.839844 50.164062 58.5 50.25 C 58.25 50 58.25 50 58.21875 49.492188 C 58.21875 49.289062 58.21875 49.085938 58.21875 48.875 C 58.21875 48.671875 58.21875 48.46875 58.21875 48.257812 C 58.25 47.75 58.25 47.75 58.5 47.5 Z M 58.5 47.5 "/>
<path style=" stroke:none;fill-rule:nonzero;fill:rgb(40.784314%,40.784314%,40.784314%);fill-opacity:1;" d="M 43.015625 36.476562 C 43.328125 36.480469 43.328125 36.480469 43.640625 36.484375 C 43.847656 36.484375 44.054688 36.488281 44.265625 36.492188 C 44.425781 36.492188 44.585938 36.5 44.75 36.5 C 44.890625 36.984375 44.890625 36.984375 45 37.5 C 44.75 37.75 44.75 37.75 44.234375 37.777344 C 44.027344 37.769531 43.820312 37.769531 43.609375 37.765625 C 43.402344 37.761719 43.195312 37.761719 42.984375 37.757812 C 42.824219 37.753906 42.664062 37.753906 42.5 37.75 C 42.359375 37.265625 42.359375 37.265625 42.25 36.75 C 42.5 36.5 42.5 36.5 43.015625 36.476562 Z M 43.015625 36.476562 "/>
<path style=" stroke:none;fill-rule:nonzero;fill:rgb(40.784314%,40.784314%,40.784314%);fill-opacity:1;" d="M 37.75 34 C 38.699219 34.136719 39.15625 34.507812 39.75 35.25 C 39.75 35.578125 39.75 35.910156 39.75 36.25 C 38.960938 36.164062 38.546875 36.03125 37.90625 35.546875 C 37.5 35 37.5 35 37.5625 34.4375 C 37.625 34.292969 37.6875 34.148438 37.75 34 Z M 37.75 34 "/>
<path style=" stroke:none;fill-rule:nonzero;fill:rgb(40.784314%,40.784314%,40.784314%);fill-opacity:1;" d="M 36.5 28.75 C 36.746094 28.832031 36.996094 28.914062 37.25 29 C 37.25 29.824219 37.25 30.648438 37.25 31.5 C 36.835938 31.417969 36.425781 31.335938 36 31.25 C 35.949219 29.738281 35.949219 29.738281 36 29.25 C 36.164062 29.085938 36.328125 28.921875 36.5 28.75 Z M 36.5 28.75 "/>
<path style=" stroke:none;fill-rule:nonzero;fill:rgb(6.666667%,9.019608%,8.235294%);fill-opacity:1;" d="M 56.75 21.75 C 56.914062 21.75 57.078125 21.75 57.25 21.75 C 57.105469 22.726562 56.710938 23.324219 56 24 C 55.089844 24.128906 54.53125 24.199219 53.765625 23.65625 C 53.5 23.25 53.5 23.25 53.5 22.75 C 54.5 23 54.5 23 55.5 23.25 C 55.695312 23.003906 55.890625 22.753906 56.09375 22.5 C 56.308594 22.253906 56.527344 22.003906 56.75 21.75 Z M 56.75 21.75 "/>
<path style=" stroke:none;fill-rule:nonzero;fill:rgb(41.960785%,41.960785%,41.960785%);fill-opacity:1;" d="M 41.75 59 C 42.410156 59 43.070312 59 43.75 59 C 43.832031 59.414062 43.914062 59.824219 44 60.25 C 43.175781 60.25 42.351562 60.25 41.5 60.25 C 41.582031 59.835938 41.664062 59.425781 41.75 59 Z M 41.75 59 "/>
<path style=" stroke:none;fill-rule:nonzero;fill:rgb(41.960785%,41.960785%,41.960785%);fill-opacity:1;" d="M 36.25 59 C 36.910156 59 37.570312 59 38.25 59 C 38.332031 59.414062 38.414062 59.824219 38.5 60.25 C 37.675781 60.25 36.851562 60.25 36 60.25 C 36.082031 59.835938 36.164062 59.425781 36.25 59 Z M 36.25 59 "/>
<path style=" stroke:none;fill-rule:nonzero;fill:rgb(41.960785%,41.960785%,41.960785%);fill-opacity:1;" d="M 30.75 59 C 31.410156 59 32.070312 59 32.75 59 C 32.832031 59.414062 32.914062 59.824219 33 60.25 C 32.175781 60.25 31.351562 60.25 30.5 60.25 C 30.582031 59.835938 30.664062 59.425781 30.75 59 Z M 30.75 59 "/>
<path style=" stroke:none;fill-rule:nonzero;fill:rgb(3.921569%,6.27451%,5.098039%);fill-opacity:1;" d="M 53.5 22.75 C 54.371094 22.914062 55.015625 23.261719 55.75 23.75 C 55.75 23.832031 55.75 23.914062 55.75 24 C 54.375 24.09375 54.375 24.09375 53.78125 23.65625 C 53.5 23.25 53.5 23.25 53.5 22.75 Z M 53.5 22.75 "/>
</g>
</svg>
