<?xml version="1.0" encoding="UTF-8"?>
<svg xmlns="http://www.w3.org/2000/svg" xmlns:xlink="http://www.w3.org/1999/xlink" width="64" height="64" viewBox="0 0 64 64" version="1.1">
<g id="surface1">
<path style=" stroke:none;fill-rule:nonzero;fill:rgb(19.607843%,84.313726%,21.176471%);fill-opacity:1;" d="M 48.5 4.25 C 48.609375 4.128906 48.722656 4.007812 48.835938 3.882812 C 49.34375 3.332031 49.859375 2.792969 50.375 2.25 C 50.550781 2.058594 50.722656 1.867188 50.902344 1.671875 C 52.394531 0.121094 52.394531 0.121094 53.570312 0.0625 C 54.5 0.25 54.5 0.25 55.097656 0.597656 C 55.703125 1.578125 55.800781 2.539062 55.953125 3.671875 C 56.011719 4.058594 56.011719 4.058594 56.066406 4.453125 C 56.160156 5.078125 56.246094 5.703125 56.335938 6.328125 C 56.496094 7.476562 56.664062 8.617188 56.832031 9.761719 C 56.996094 10.863281 57.15625 11.96875 57.316406 13.070312 C 57.398438 13.625 57.476562 14.183594 57.558594 14.738281 C 57.675781 15.53125 57.789062 16.324219 57.902344 17.121094 C 57.9375 17.359375 57.972656 17.597656 58.007812 17.84375 C 58.46875 21.09375 58.46875 21.09375 57.84375 22.25 C 55.757812 23.488281 52.140625 22.34375 49.820312 22 C 49.484375 21.953125 49.140625 21.902344 48.800781 21.855469 C 48.101562 21.753906 47.398438 21.648438 46.695312 21.546875 C 45.800781 21.414062 44.902344 21.289062 44.003906 21.15625 C 43.308594 21.058594 42.613281 20.957031 41.914062 20.855469 C 41.425781 20.78125 40.933594 20.710938 40.441406 20.640625 C 39.996094 20.578125 39.996094 20.578125 39.539062 20.511719 C 39.273438 20.46875 39.015625 20.433594 38.746094 20.394531 C 37.78125 20.207031 36.863281 19.980469 36.03125 19.453125 C 35.539062 18.664062 35.601562 18.164062 35.75 17.25 C 36.246094 16.496094 36.859375 15.882812 37.5 15.25 C 37.683594 15.0625 37.871094 14.871094 38.0625 14.675781 C 38.539062 14.199219 39.015625 13.722656 39.5 13.25 C 35.113281 11.058594 29.984375 11.332031 25.425781 12.757812 C 22.265625 13.875 19.613281 15.640625 17.25 18 C 17.097656 18.148438 16.945312 18.296875 16.785156 18.449219 C 13.449219 21.921875 11.929688 26.699219 11.722656 31.417969 C 11.660156 32.40625 11.554688 32.914062 11 33.761719 C 9.976562 34.425781 9.167969 34.371094 8 34.25 C 7.738281 34.222656 7.476562 34.195312 7.207031 34.167969 C 6.324219 34.0625 5.441406 33.941406 4.5625 33.8125 C 4.261719 33.773438 3.960938 33.734375 3.648438 33.691406 C 3.214844 33.628906 3.214844 33.628906 2.769531 33.566406 C 2.507812 33.53125 2.246094 33.492188 1.976562 33.453125 C 1.113281 33.210938 0.636719 32.882812 0 32.25 C -0.125 31.519531 -0.167969 30.960938 -0.140625 30.234375 C -0.136719 30.039062 -0.132812 29.835938 -0.128906 29.636719 C 0.140625 22.703125 3.128906 16.273438 7.5 11 C 7.667969 10.796875 7.835938 10.589844 8.003906 10.378906 C 12.113281 5.527344 17.96875 2.453125 24 0.75 C 24.296875 0.664062 24.59375 0.578125 24.902344 0.488281 C 33.160156 -1.445312 41.09375 0.652344 48.5 4.25 Z M 48.5 4.25 "/>
<path style=" stroke:none;fill-rule:nonzero;fill:rgb(89.803922%,0%,15.294118%);fill-opacity:1;" d="M 57.683594 30.117188 C 58.199219 30.1875 58.714844 30.253906 59.230469 30.316406 C 59.5625 30.359375 59.890625 30.40625 60.222656 30.449219 C 60.519531 30.488281 60.820312 30.527344 61.128906 30.570312 C 62.105469 30.773438 62.859375 31.058594 63.75 31.5 C 65.1875 34.378906 63.535156 39.363281 62.625 42.214844 C 61.253906 46.257812 59.214844 49.726562 56.5 53 C 56.332031 53.203125 56.167969 53.410156 55.992188 53.621094 C 51.09375 59.414062 43.464844 63.089844 36 64 C 34.75 64.078125 33.503906 64.09375 32.25 64.09375 C 32.082031 64.09375 31.910156 64.09375 31.734375 64.09375 C 25.761719 64.070312 20.8125 62.328125 15.5 59.75 C 15.386719 59.871094 15.277344 59.988281 15.160156 60.113281 C 14.648438 60.65625 14.128906 61.195312 13.609375 61.734375 C 13.433594 61.921875 13.257812 62.113281 13.074219 62.308594 C 11.574219 63.847656 11.574219 63.847656 10.527344 64.007812 C 9.355469 63.996094 9.355469 63.996094 8.75 63.5 C 8.292969 62.539062 8.117188 61.613281 7.964844 60.566406 C 7.9375 60.398438 7.914062 60.234375 7.886719 60.066406 C 7.808594 59.523438 7.730469 58.984375 7.652344 58.441406 C 7.597656 58.0625 7.542969 57.683594 7.488281 57.304688 C 7.375 56.511719 7.257812 55.71875 7.144531 54.921875 C 7 53.914062 6.851562 52.898438 6.699219 51.886719 C 6.585938 51.105469 6.472656 50.320312 6.359375 49.539062 C 6.304688 49.167969 6.253906 48.792969 6.199219 48.417969 C 5.417969 43.128906 5.417969 43.128906 6.09375 41.84375 C 8.117188 40.785156 11.105469 41.710938 13.277344 42.019531 C 13.664062 42.074219 14.046875 42.128906 14.4375 42.183594 C 15.238281 42.296875 16.042969 42.414062 16.847656 42.527344 C 17.875 42.675781 18.902344 42.816406 19.929688 42.960938 C 20.726562 43.070312 21.519531 43.183594 22.316406 43.296875 C 22.695312 43.351562 23.074219 43.40625 23.453125 43.457031 C 23.984375 43.53125 24.511719 43.605469 25.042969 43.683594 C 25.492188 43.75 25.492188 43.75 25.949219 43.816406 C 26.773438 44.003906 27.320312 44.257812 28 44.75 C 28.375 45.503906 28.375 45.90625 28.25 46.75 C 27.746094 47.496094 27.132812 48.113281 26.5 48.75 C 26.3125 48.941406 26.128906 49.128906 25.9375 49.320312 C 25.464844 49.800781 24.984375 50.277344 24.5 50.75 C 28.875 52.9375 33.949219 52.683594 38.5 51.25 C 41.722656 50.15625 44.332031 48.371094 46.75 46 C 46.902344 45.851562 47.058594 45.703125 47.214844 45.550781 C 50.503906 42.121094 52.03125 37.398438 52.296875 32.746094 C 52.386719 31.53125 52.605469 30.835938 53.5 30 C 54.8125 29.488281 56.324219 29.933594 57.683594 30.117188 Z M 57.683594 30.117188 "/>
<path style=" stroke:none;fill-rule:nonzero;fill:rgb(6.27451%,73.333335%,40.000001%);fill-opacity:1;" d="M 32 0 C 36.378906 0 36.378906 0 38.234375 0.40625 C 38.445312 0.449219 38.65625 0.496094 38.871094 0.539062 C 42.269531 1.296875 45.382812 2.734375 48.5 4.25 C 48.609375 4.128906 48.722656 4.007812 48.835938 3.882812 C 49.34375 3.332031 49.859375 2.792969 50.375 2.25 C 50.636719 1.964844 50.636719 1.964844 50.902344 1.671875 C 52.394531 0.121094 52.394531 0.121094 53.570312 0.0625 C 54.5 0.25 54.5 0.25 55.097656 0.597656 C 55.703125 1.578125 55.800781 2.539062 55.953125 3.671875 C 55.988281 3.929688 56.03125 4.191406 56.066406 4.453125 C 56.160156 5.078125 56.246094 5.703125 56.335938 6.328125 C 56.496094 7.476562 56.664062 8.617188 56.832031 9.761719 C 56.996094 10.863281 57.15625 11.96875 57.316406 13.070312 C 57.398438 13.625 57.476562 14.183594 57.558594 14.738281 C 57.675781 15.53125 57.789062 16.324219 57.902344 17.121094 C 57.953125 17.476562 57.953125 17.476562 58.007812 17.84375 C 58.46875 21.09375 58.46875 21.09375 57.84375 22.25 C 55.757812 23.488281 52.140625 22.34375 49.820312 22 C 49.484375 21.953125 49.140625 21.902344 48.800781 21.855469 C 48.101562 21.753906 47.398438 21.648438 46.695312 21.546875 C 45.800781 21.414062 44.902344 21.289062 44.003906 21.15625 C 43.308594 21.058594 42.613281 20.957031 41.914062 20.855469 C 41.425781 20.78125 40.933594 20.710938 40.441406 20.640625 C 40.144531 20.601562 39.84375 20.554688 39.539062 20.511719 C 39.273438 20.46875 39.015625 20.433594 38.746094 20.394531 C 37.78125 20.207031 36.863281 19.980469 36.03125 19.453125 C 35.539062 18.664062 35.601562 18.164062 35.75 17.25 C 36.246094 16.496094 36.859375 15.882812 37.5 15.25 C 37.683594 15.0625 37.871094 14.871094 38.0625 14.675781 C 38.539062 14.199219 39.015625 13.722656 39.5 13.25 C 37.160156 12.078125 34.574219 11.785156 32 11.5 C 32 7.703125 32 3.910156 32 0 Z M 32 0 "/>
<path style=" stroke:none;fill-rule:nonzero;fill:rgb(99.215686%,0%,22.745098%);fill-opacity:1;" d="M 13.277344 42.019531 C 13.664062 42.074219 14.050781 42.128906 14.4375 42.183594 C 15.238281 42.296875 16.042969 42.410156 16.847656 42.527344 C 17.875 42.675781 18.902344 42.816406 19.929688 42.960938 C 20.726562 43.070312 21.519531 43.183594 22.316406 43.296875 C 22.695312 43.351562 23.074219 43.40625 23.453125 43.457031 C 23.984375 43.53125 24.511719 43.609375 25.039062 43.683594 C 25.339844 43.726562 25.644531 43.769531 25.953125 43.816406 C 26.773438 44.003906 27.316406 44.257812 28 44.75 C 28.378906 45.503906 28.375 45.90625 28.25 46.75 C 27.746094 47.492188 27.132812 48.113281 26.5 48.75 C 26.316406 48.9375 26.128906 49.128906 25.9375 49.324219 C 25.464844 49.804688 24.984375 50.277344 24.5 50.75 C 26.839844 51.921875 29.429688 52.214844 32 52.5 C 32 56.296875 32 60.089844 32 64 C 27.621094 64 27.621094 64 25.765625 63.59375 C 25.554688 63.550781 25.347656 63.503906 25.128906 63.460938 C 21.730469 62.703125 18.617188 61.265625 15.5 59.75 C 15.386719 59.871094 15.277344 59.992188 15.160156 60.113281 C 14.648438 60.65625 14.128906 61.195312 13.609375 61.734375 C 13.433594 61.921875 13.257812 62.109375 13.074219 62.304688 C 11.574219 63.84375 11.574219 63.84375 10.527344 64.011719 C 9.355469 63.996094 9.355469 63.996094 8.75 63.5 C 8.289062 62.539062 8.117188 61.613281 7.964844 60.566406 C 7.9375 60.402344 7.914062 60.234375 7.890625 60.066406 C 7.8125 59.527344 7.730469 58.984375 7.652344 58.441406 C 7.597656 58.0625 7.542969 57.683594 7.488281 57.304688 C 7.375 56.511719 7.257812 55.71875 7.144531 54.921875 C 7 53.910156 6.851562 52.902344 6.699219 51.886719 C 6.585938 51.105469 6.472656 50.324219 6.359375 49.539062 C 6.308594 49.164062 6.253906 48.792969 6.199219 48.421875 C 5.417969 43.128906 5.417969 43.128906 6.09375 41.84375 C 8.117188 40.78125 11.101562 41.707031 13.277344 42.019531 Z M 13.277344 42.019531 "/>
</g>
</svg>
