<?xml version="1.0" encoding="UTF-8"?>
<svg xmlns="http://www.w3.org/2000/svg" xmlns:xlink="http://www.w3.org/1999/xlink" width="64" height="64" viewBox="0 0 64 64" version="1.1">
<g id="surface1">
<path style=" stroke:none;fill-rule:nonzero;fill:rgb(89.803922%,18.039216%,18.431373%);fill-opacity:1;" d="M 32.675781 -0.132812 C 33.765625 0.121094 34.328125 0.902344 35 1.75 C 36.195312 3.148438 37.4375 4.496094 38.703125 5.828125 C 39.890625 7.082031 41.070312 8.335938 42.234375 9.609375 C 42.523438 9.925781 42.523438 9.925781 42.820312 10.25 C 43.394531 10.917969 43.492188 11.183594 43.59375 12.078125 C 43.5 13 43.5 13 43.09375 13.734375 C 42.25 14.25 42.25 14.25 38.75 14.25 C 38.832031 18.046875 38.914062 21.839844 39 25.75 C 39.578125 25.171875 40.152344 24.59375 40.75 24 C 41.410156 23.429688 42.101562 22.902344 42.796875 22.375 C 42.980469 22.234375 43.164062 22.09375 43.355469 21.949219 C 44.835938 20.835938 46.359375 19.871094 48 19 C 47.945312 18.804688 47.890625 18.609375 47.835938 18.40625 C 47.054688 15.453125 47.054688 15.453125 47.25 14.25 C 47.84375 13.40625 48.203125 13.054688 49.230469 12.871094 C 50.734375 12.921875 52.054688 13.84375 53.34375 14.546875 C 53.640625 14.707031 53.9375 14.863281 54.234375 15.019531 C 54.847656 15.347656 55.460938 15.679688 56.074219 16.003906 C 56.980469 16.492188 57.890625 16.960938 58.804688 17.429688 C 59.089844 17.574219 59.375 17.722656 59.667969 17.871094 C 60.214844 18.148438 60.757812 18.429688 61.304688 18.707031 C 61.546875 18.832031 61.792969 18.957031 62.046875 19.085938 C 62.261719 19.199219 62.476562 19.308594 62.699219 19.421875 C 63.242188 19.746094 63.617188 19.996094 64 20.5 C 64.402344 22.199219 63.855469 23.523438 62.996094 24.972656 C 62.855469 25.203125 62.710938 25.433594 62.5625 25.671875 C 62.265625 26.175781 61.964844 26.679688 61.667969 27.183594 C 61.515625 27.4375 61.363281 27.695312 61.207031 27.960938 C 60.328125 29.480469 59.546875 31.046875 58.761719 32.617188 C 57.152344 35.773438 57.152344 35.773438 55.921875 36.199219 C 54.414062 36.167969 54.414062 36.167969 53.65625 35.390625 C 53.1875 34.363281 52.820312 33.332031 52.5 32.25 C 47.289062 35.144531 43.660156 40.835938 41 46 C 40.777344 46.429688 40.777344 46.429688 40.546875 46.871094 C 39.363281 49.066406 39.363281 49.066406 38.929688 51.472656 C 38.921875 51.710938 38.921875 51.945312 38.917969 52.191406 C 38.917969 52.441406 38.917969 52.691406 38.914062 52.953125 C 38.910156 53.34375 38.910156 53.34375 38.902344 53.746094 C 38.890625 54.582031 38.882812 55.414062 38.875 56.25 C 38.863281 57.351562 38.851562 58.449219 38.835938 59.546875 C 38.832031 59.800781 38.832031 60.050781 38.832031 60.308594 C 38.828125 60.546875 38.828125 60.78125 38.820312 61.023438 C 38.820312 61.234375 38.820312 61.441406 38.816406 61.652344 C 38.707031 62.625 38.441406 63.308594 37.75 64 C 37.257812 64.066406 37.257812 64.066406 36.648438 64.066406 C 36.421875 64.070312 36.195312 64.074219 35.957031 64.074219 C 35.589844 64.074219 35.589844 64.074219 35.210938 64.074219 C 34.832031 64.078125 34.832031 64.078125 34.445312 64.078125 C 33.910156 64.082031 33.375 64.082031 32.839844 64.078125 C 32.019531 64.078125 31.199219 64.085938 30.378906 64.089844 C 29.859375 64.089844 29.339844 64.089844 28.820312 64.089844 C 28.578125 64.09375 28.328125 64.09375 28.078125 64.097656 C 27.847656 64.09375 27.617188 64.09375 27.382812 64.09375 C 27.082031 64.09375 27.082031 64.09375 26.773438 64.09375 C 26.117188 63.976562 25.902344 63.773438 25.5 63.25 C 25.265625 62.539062 25.199219 62.019531 25.160156 61.28125 C 24.71875 54.085938 23.277344 47.332031 19.75 41 C 19.542969 40.628906 19.542969 40.628906 19.332031 40.246094 C 17.5 37.183594 14.613281 34.015625 11.5 32.25 C 11.417969 32.476562 11.332031 32.707031 11.242188 32.941406 C 11.132812 33.242188 11.019531 33.539062 10.90625 33.84375 C 10.796875 34.140625 10.6875 34.433594 10.570312 34.742188 C 10.25 35.5 10.25 35.5 9.75 36 C 8.964844 36.191406 8.289062 36.167969 7.5 36 C 5.820312 34.574219 4.894531 31.996094 3.890625 30.0625 C 3.527344 29.367188 3.164062 28.667969 2.796875 27.972656 C 2.707031 27.804688 2.621094 27.636719 2.53125 27.460938 C 1.847656 26.15625 1.105469 24.898438 0.328125 23.648438 C -0.109375 22.777344 -0.191406 22.003906 -0.183594 21.039062 C 0.296875 19.628906 2.160156 18.988281 3.410156 18.359375 C 3.722656 18.203125 3.722656 18.203125 4.039062 18.039062 C 4.703125 17.703125 5.367188 17.367188 6.03125 17.03125 C 6.902344 16.589844 7.769531 16.148438 8.644531 15.707031 C 8.851562 15.601562 9.058594 15.496094 9.273438 15.386719 C 10.609375 14.707031 11.929688 14.003906 13.230469 13.253906 C 14.042969 12.855469 14.617188 12.804688 15.5 13 C 16.234375 13.515625 16.234375 13.515625 16.75 14.25 C 17.011719 15.851562 16.425781 17.460938 16 19 C 16.238281 19.136719 16.480469 19.273438 16.722656 19.414062 C 19.828125 21.210938 22.320312 23.339844 25 25.75 C 25.082031 21.957031 25.164062 18.160156 25.25 14.25 C 24.09375 14.25 22.9375 14.25 21.75 14.25 C 20.90625 13.734375 20.90625 13.734375 20.5 13 C 20.398438 12.011719 20.390625 11.441406 20.894531 10.574219 C 21.171875 10.261719 21.171875 10.261719 21.453125 9.9375 C 21.660156 9.703125 21.859375 9.46875 22.074219 9.226562 C 22.980469 8.253906 23.914062 7.316406 24.863281 6.382812 C 25.375 5.871094 25.859375 5.359375 26.328125 4.8125 C 26.460938 4.660156 26.597656 4.503906 26.734375 4.347656 C 27.035156 4 27.332031 3.652344 27.625 3.300781 C 28.0625 2.777344 28.507812 2.261719 28.953125 1.75 C 29.089844 1.578125 29.230469 1.40625 29.375 1.234375 C 30.402344 0.0742188 31.132812 -0.1875 32.675781 -0.132812 Z M 32.675781 -0.132812 "/>
<path style=" stroke:none;fill-rule:nonzero;fill:rgb(99.607843%,76.078433%,29.803923%);fill-opacity:1;" d="M 15.5 13 C 16.234375 13.515625 16.234375 13.515625 16.75 14.25 C 17.011719 15.851562 16.425781 17.460938 16 19 C 16.238281 19.136719 16.476562 19.273438 16.722656 19.414062 C 18.804688 20.621094 20.6875 21.90625 22.5 23.5 C 22.828125 23.777344 22.828125 23.777344 23.164062 24.0625 C 24.351562 25.089844 25.363281 26.132812 26.292969 27.398438 C 26.808594 28.078125 27.371094 28.714844 27.9375 29.359375 C 28.378906 29.902344 28.816406 30.449219 29.25 31 C 29.367188 31.148438 29.488281 31.296875 29.609375 31.449219 C 32.277344 34.867188 32.371094 37.953125 32.265625 42.175781 C 32.261719 42.808594 32.261719 43.441406 32.257812 44.074219 C 32.246094 45.550781 32.226562 47.035156 32.199219 48.515625 C 32.167969 50.207031 32.152344 51.898438 32.136719 53.589844 C 32.109375 57.058594 32.0625 60.53125 32 64 C 31.058594 64.023438 30.113281 64.035156 29.171875 64.046875 C 28.90625 64.050781 28.636719 64.058594 28.359375 64.066406 C 28.101562 64.066406 27.84375 64.070312 27.578125 64.074219 C 27.34375 64.078125 27.109375 64.078125 26.863281 64.085938 C 26.25 64 26.25 64 25.808594 63.667969 C 25.253906 62.914062 25.207031 62.183594 25.160156 61.28125 C 24.71875 54.085938 23.273438 47.332031 19.75 41 C 19.542969 40.628906 19.542969 40.628906 19.328125 40.246094 C 17.5 37.183594 14.613281 34.015625 11.5 32.25 C 11.414062 32.480469 11.328125 32.707031 11.246094 32.941406 C 11.132812 33.238281 11.019531 33.539062 10.90625 33.84375 C 10.796875 34.140625 10.683594 34.433594 10.574219 34.738281 C 10.25 35.5 10.25 35.5 9.75 36 C 8.964844 36.191406 8.289062 36.167969 7.5 36 C 5.824219 34.574219 4.890625 31.996094 3.890625 30.0625 C 3.527344 29.363281 3.164062 28.671875 2.796875 27.972656 C 2.710938 27.804688 2.621094 27.636719 2.53125 27.460938 C 1.847656 26.15625 1.105469 24.898438 0.324219 23.648438 C -0.113281 22.777344 -0.191406 22.003906 -0.183594 21.039062 C 0.296875 19.628906 2.160156 18.988281 3.40625 18.363281 C 3.617188 18.253906 3.824219 18.148438 4.039062 18.039062 C 4.703125 17.703125 5.367188 17.367188 6.03125 17.03125 C 6.902344 16.589844 7.773438 16.148438 8.640625 15.703125 C 8.851562 15.601562 9.058594 15.496094 9.273438 15.386719 C 10.609375 14.703125 11.925781 14.003906 13.226562 13.253906 C 14.042969 12.855469 14.621094 12.808594 15.5 13 Z M 15.5 13 "/>
<path style=" stroke:none;fill-rule:nonzero;fill:rgb(40.000001%,49.803922%,99.607843%);fill-opacity:1;" d="M 49.695312 12.886719 C 51.011719 13.152344 52.175781 13.910156 53.34375 14.546875 C 53.640625 14.703125 53.9375 14.863281 54.234375 15.023438 C 54.847656 15.347656 55.460938 15.675781 56.074219 16.007812 C 56.980469 16.492188 57.890625 16.960938 58.808594 17.429688 C 59.09375 17.578125 59.375 17.722656 59.671875 17.871094 C 60.214844 18.152344 60.761719 18.429688 61.304688 18.707031 C 61.550781 18.832031 61.796875 18.960938 62.046875 19.089844 C 62.261719 19.199219 62.476562 19.308594 62.699219 19.421875 C 63.238281 19.746094 63.617188 20 64 20.5 C 64.398438 22.203125 63.851562 23.523438 62.996094 24.972656 C 62.851562 25.203125 62.710938 25.433594 62.5625 25.671875 C 62.261719 26.175781 61.964844 26.675781 61.667969 27.183594 C 61.515625 27.4375 61.363281 27.695312 61.203125 27.960938 C 60.328125 29.480469 59.546875 31.046875 58.761719 32.613281 C 57.148438 35.777344 57.148438 35.777344 55.921875 36.199219 C 54.414062 36.167969 54.414062 36.167969 53.65625 35.390625 C 53.1875 34.363281 52.816406 33.332031 52.5 32.25 C 47.28125 35.148438 43.671875 40.839844 41 46 C 40.851562 46.277344 40.707031 46.550781 40.558594 46.835938 C 39.808594 48.277344 39.21875 49.695312 38.75 51.25 C 38.667969 51.25 38.585938 51.25 38.5 51.25 C 38.449219 48.027344 38.40625 44.808594 38.382812 41.585938 C 38.371094 40.089844 38.355469 38.597656 38.328125 37.101562 C 38.304688 35.65625 38.292969 34.210938 38.289062 32.765625 C 38.28125 32.214844 38.273438 31.667969 38.261719 31.117188 C 38.171875 26.8125 38.171875 26.8125 38.980469 25.429688 C 39.539062 24.855469 40.078125 24.433594 40.75 24 C 41.101562 23.714844 41.449219 23.425781 41.796875 23.132812 C 42.136719 22.867188 42.484375 22.605469 42.828125 22.34375 C 43.011719 22.207031 43.191406 22.066406 43.378906 21.925781 C 44.851562 20.820312 46.371094 19.863281 48 19 C 47.945312 18.804688 47.890625 18.605469 47.835938 18.402344 C 47.050781 15.453125 47.050781 15.453125 47.25 14.25 C 47.933594 13.273438 48.484375 12.847656 49.695312 12.886719 Z M 49.695312 12.886719 "/>
<path style=" stroke:none;fill-rule:nonzero;fill:rgb(99.607843%,29.803923%,29.803923%);fill-opacity:1;" d="M 32 0 C 32 11.714844 32 23.429688 32 35.5 C 31.242188 34.550781 30.585938 33.621094 29.953125 32.59375 C 28.917969 30.949219 27.761719 29.480469 26.5 28 C 25.21875 26.433594 25.21875 26.433594 25.222656 25.09375 C 25.222656 24.851562 25.222656 24.613281 25.222656 24.363281 C 25.222656 24.105469 25.226562 23.84375 25.226562 23.574219 C 25.226562 23.308594 25.226562 23.046875 25.226562 22.769531 C 25.226562 21.921875 25.230469 21.070312 25.234375 20.21875 C 25.234375 19.640625 25.238281 19.066406 25.238281 18.488281 C 25.238281 17.078125 25.246094 15.664062 25.25 14.25 C 25.007812 14.253906 24.765625 14.261719 24.515625 14.265625 C 24.199219 14.273438 23.878906 14.277344 23.550781 14.28125 C 23.078125 14.289062 23.078125 14.289062 22.597656 14.300781 C 21.75 14.25 21.75 14.25 20.90625 13.734375 C 20.398438 12.816406 20.402344 12.289062 20.5 11.25 C 20.894531 10.574219 20.894531 10.574219 21.453125 9.9375 C 21.65625 9.703125 21.863281 9.46875 22.074219 9.226562 C 22.980469 8.253906 23.914062 7.316406 24.863281 6.386719 C 25.375 5.871094 25.859375 5.359375 26.328125 4.8125 C 27.21875 3.78125 28.117188 2.761719 29.03125 1.75 C 29.253906 1.492188 29.253906 1.492188 29.484375 1.234375 C 29.703125 0.992188 29.703125 0.992188 29.925781 0.75 C 30.117188 0.53125 30.117188 0.53125 30.316406 0.3125 C 30.75 0 30.75 0 32 0 Z M 32 0 "/>
<path style=" stroke:none;fill-rule:nonzero;fill:rgb(99.607843%,46.27451%,19.607843%);fill-opacity:1;" d="M 32 35.75 C 34.355469 39.28125 35.71875 43.675781 36.75 47.75 C 36.792969 47.917969 36.835938 48.082031 36.878906 48.253906 C 37.601562 51.203125 37.925781 54.171875 38.1875 57.1875 C 38.203125 57.371094 38.21875 57.558594 38.238281 57.753906 C 38.335938 58.917969 38.433594 60.082031 38.5 61.25 C 38.515625 61.515625 38.515625 61.515625 38.535156 61.785156 C 38.554688 62.320312 38.554688 62.320312 38.5 63.25 C 38.253906 63.496094 38.003906 63.746094 37.75 64 C 35.851562 64 33.953125 64 32 64 C 32 54.675781 32 45.355469 32 35.75 Z M 32 35.75 "/>
<path style=" stroke:none;fill-rule:nonzero;fill:rgb(84.705883%,17.254902%,16.470589%);fill-opacity:1;" d="M 38 56.5 C 38.246094 56.5 38.496094 56.5 38.75 56.5 C 38.75 58.398438 38.75 60.296875 38.75 62.25 C 38.304688 61.359375 38.183594 61.046875 38.148438 60.113281 C 38.136719 59.902344 38.128906 59.691406 38.117188 59.472656 C 38.109375 59.253906 38.101562 59.039062 38.09375 58.8125 C 38.085938 58.589844 38.074219 58.367188 38.066406 58.140625 C 38.039062 57.59375 38.019531 57.046875 38 56.5 Z M 38 56.5 "/>
</g>
</svg>
