<?xml version="1.0" encoding="UTF-8"?>
<svg xmlns="http://www.w3.org/2000/svg" xmlns:xlink="http://www.w3.org/1999/xlink" width="64" height="64" viewBox="0 0 64 64" version="1.1">
<g id="surface1">
<path style=" stroke:none;fill-rule:nonzero;fill:rgb(0%,83.92157%,74.117649%);fill-opacity:1;" d="M 15 0 C 15.964844 0.5 16.398438 0.851562 17 1.75 C 17.539062 1.863281 17.539062 1.863281 18.171875 1.84375 C 18.53125 1.851562 18.53125 1.851562 18.90625 1.855469 C 19.167969 1.851562 19.429688 1.851562 19.703125 1.851562 C 20.109375 1.855469 20.109375 1.855469 20.515625 1.859375 C 21.382812 1.867188 22.246094 1.871094 23.109375 1.875 C 24.246094 1.878906 25.378906 1.886719 26.515625 1.898438 C 26.90625 1.898438 26.90625 1.898438 27.308594 1.894531 C 27.550781 1.898438 27.796875 1.898438 28.046875 1.90625 C 28.261719 1.90625 28.476562 1.90625 28.699219 1.90625 C 29.371094 2.019531 29.59375 2.207031 30 2.75 C 30.101562 3.59375 30.03125 4.398438 30 5.25 C 31.320312 5.25 32.640625 5.25 34 5.25 C 33.984375 4.851562 33.96875 4.453125 33.953125 4.046875 C 33.90625 2.875 33.90625 2.875 34.304688 2.34375 C 34.886719 1.898438 35.214844 1.910156 35.941406 1.914062 C 36.179688 1.914062 36.421875 1.914062 36.671875 1.914062 C 36.929688 1.917969 37.191406 1.921875 37.460938 1.925781 C 38.011719 1.921875 38.558594 1.921875 39.109375 1.917969 C 39.976562 1.921875 40.84375 1.921875 41.710938 1.929688 C 42.550781 1.933594 43.386719 1.929688 44.226562 1.925781 C 44.484375 1.929688 44.742188 1.933594 45.011719 1.941406 C 46.308594 1.960938 46.308594 1.960938 47.433594 1.414062 C 47.816406 0.960938 47.816406 0.960938 48.25 0.25 C 49.175781 -0.214844 50.238281 -0.109375 51.25 0 C 52.191406 0.445312 52.628906 0.832031 53.234375 1.671875 C 53.585938 2.769531 53.550781 3.640625 53.25 4.75 C 52.71875 5.609375 52.226562 6.203125 51.25 6.5 C 49.640625 6.65625 48.824219 6.425781 47.5 5.5 C 47.253906 5.128906 47.253906 5.128906 47 4.75 C 46.527344 4.632812 46.527344 4.632812 45.980469 4.640625 C 45.769531 4.636719 45.558594 4.632812 45.34375 4.628906 C 45.003906 4.625 45.003906 4.625 44.65625 4.621094 C 44.421875 4.617188 44.191406 4.613281 43.949219 4.609375 C 43.207031 4.59375 42.460938 4.585938 41.71875 4.578125 C 41.214844 4.570312 40.710938 4.558594 40.207031 4.550781 C 38.972656 4.53125 37.734375 4.515625 36.5 4.5 C 36.582031 4.828125 36.664062 5.160156 36.75 5.5 C 36.984375 5.558594 37.214844 5.613281 37.453125 5.675781 C 41.773438 6.78125 45.320312 8.523438 49 11 C 49.101562 10.894531 49.207031 10.789062 49.3125 10.683594 C 49.78125 10.210938 50.25 9.738281 50.71875 9.265625 C 50.960938 9.015625 50.960938 9.015625 51.210938 8.765625 C 51.367188 8.609375 51.523438 8.453125 51.683594 8.289062 C 51.828125 8.144531 51.972656 8 52.121094 7.851562 C 53.226562 6.828125 54.980469 7.191406 56.398438 7.191406 C 56.964844 7.1875 57.527344 7.179688 58.09375 7.171875 C 58.453125 7.171875 58.808594 7.171875 59.171875 7.167969 C 59.496094 7.164062 59.824219 7.164062 60.160156 7.160156 C 61.039062 7.253906 61.394531 7.367188 62 8 C 62.101562 8.628906 62.101562 8.628906 62.09375 9.34375 C 62.125 10.34375 62.125 10.34375 62.585938 11.191406 C 63.042969 11.558594 63.042969 11.558594 63.75 12 C 64.214844 12.925781 64.109375 13.988281 64 15 C 63.554688 15.941406 63.167969 16.378906 62.328125 16.984375 C 61.230469 17.335938 60.359375 17.300781 59.25 17 C 58.390625 16.46875 57.796875 15.976562 57.5 15 C 57.34375 13.390625 57.574219 12.574219 58.5 11.25 C 58.746094 11.085938 58.996094 10.921875 59.25 10.75 C 59.429688 10.234375 59.429688 10.234375 59.5 9.75 C 55.953125 9.453125 55.953125 9.453125 52.753906 10.628906 C 52.078125 11.265625 51.519531 11.976562 51 12.75 C 51.203125 12.984375 51.414062 13.214844 51.625 13.453125 C 56.886719 19.617188 59.339844 26.675781 58.75 34.75 C 58.625 35.730469 58.457031 36.695312 58.246094 37.65625 C 58.039062 38.605469 57.933594 39.324219 58.25 40.25 C 58.578125 40.753906 58.578125 40.753906 59.015625 41.203125 C 59.152344 41.355469 59.289062 41.503906 59.429688 41.660156 C 59.964844 42.238281 59.964844 42.238281 60.484375 42.636719 C 61.308594 43.328125 61.90625 43.886719 62.175781 44.949219 C 62.230469 45.773438 62.226562 46.574219 62.195312 47.398438 C 62.191406 47.695312 62.191406 47.992188 62.1875 48.296875 C 62.175781 49.238281 62.148438 50.183594 62.125 51.125 C 62.113281 51.765625 62.105469 52.40625 62.097656 53.050781 C 62.074219 54.613281 62.042969 56.183594 62 57.75 C 62.296875 57.859375 62.296875 57.859375 62.597656 57.96875 C 63.25 58.25 63.25 58.25 63.703125 58.75 C 64.136719 59.84375 64.171875 60.839844 64 62 C 63.484375 63.03125 63.0625 63.570312 62 64 C 60.929688 64.148438 60.015625 64.121094 59.03125 63.671875 C 57.820312 62.710938 57.820312 62.710938 57.5 61.75 C 57.386719 60.222656 57.65625 59.214844 58.640625 58.03125 C 59 57.75 59 57.75 59.5 57.75 C 59.523438 55.976562 59.523438 54.199219 59.515625 52.425781 C 59.515625 51.824219 59.519531 51.21875 59.527344 50.617188 C 59.539062 49.746094 59.53125 48.878906 59.523438 48.011719 C 59.53125 47.609375 59.53125 47.609375 59.542969 47.199219 C 59.511719 45.628906 59.257812 44.835938 58.140625 43.703125 C 57.601562 43.226562 57.140625 42.820312 56.5 42.5 C 56.402344 42.820312 56.402344 42.820312 56.300781 43.148438 C 55.253906 46.097656 53.328125 48.46875 51.25 50.75 C 51.101562 50.921875 50.953125 51.085938 50.800781 51.261719 C 47.671875 54.636719 43.085938 56.71875 38.75 58 C 39.074219 58.667969 39.074219 58.667969 39.75 59.25 C 40.640625 59.449219 41.523438 59.449219 42.4375 59.453125 C 42.683594 59.460938 42.929688 59.464844 43.183594 59.472656 C 43.789062 59.488281 44.394531 59.496094 45 59.5 C 45.074219 59.347656 45.140625 59.191406 45.21875 59.035156 C 45.621094 58.269531 46.003906 57.945312 46.75 57.5 C 47.816406 57.324219 48.703125 57.375 49.703125 57.796875 C 51.171875 59.011719 51.171875 59.011719 51.335938 60.039062 C 51.394531 61.601562 51.03125 62.421875 49.96875 63.578125 C 48.96875 64.164062 48.132812 64.171875 47 64 C 46.195312 63.632812 45.566406 63.183594 45 62.5 C 45 62.335938 45 62.171875 45 62 C 44.828125 62.011719 44.65625 62.015625 44.480469 62.027344 C 43.695312 62.066406 42.910156 62.085938 42.125 62.109375 C 41.71875 62.132812 41.71875 62.132812 41.308594 62.15625 C 39.910156 62.183594 38.984375 62.148438 37.898438 61.210938 C 37.449219 60.765625 37.046875 60.3125 36.664062 59.808594 C 36.082031 59.09375 35.691406 58.796875 34.773438 58.585938 C 33.875 58.492188 33 58.464844 32.09375 58.46875 C 31.78125 58.46875 31.464844 58.46875 31.140625 58.46875 C 29.460938 58.523438 28.21875 58.640625 26.960938 59.816406 C 26.421875 60.429688 25.957031 61.070312 25.5 61.75 C 24.847656 62.074219 24.367188 62.027344 23.636719 62.023438 C 23.371094 62.023438 23.101562 62.023438 22.824219 62.023438 C 22.542969 62.019531 22.261719 62.015625 21.96875 62.015625 C 21.542969 62.015625 21.542969 62.015625 21.109375 62.011719 C 20.40625 62.011719 19.703125 62.003906 19 62 C 18.925781 62.199219 18.859375 62.394531 18.78125 62.597656 C 18.40625 63.460938 18.121094 63.648438 17.25 64 C 16.183594 64.140625 15.296875 64.125 14.296875 63.703125 C 12.828125 62.488281 12.828125 62.488281 12.664062 61.460938 C 12.605469 59.898438 12.96875 59.078125 14.03125 57.921875 C 15.03125 57.335938 15.867188 57.328125 17 57.5 C 17.804688 57.867188 18.433594 58.316406 19 59 C 19 59.164062 19 59.328125 19 59.5 C 19.855469 59.496094 20.707031 59.476562 21.5625 59.453125 C 21.804688 59.453125 22.046875 59.449219 22.296875 59.449219 C 23.757812 59.429688 23.757812 59.429688 24.917969 58.613281 C 25.027344 58.410156 25.136719 58.207031 25.25 58 C 25.078125 57.949219 24.910156 57.902344 24.734375 57.851562 C 17.714844 55.683594 11.804688 51.199219 8.328125 44.6875 C 7.5 43.113281 7.5 43.113281 7.5 42.5 C 7.183594 42.773438 6.863281 43.050781 6.546875 43.328125 C 6.371094 43.484375 6.191406 43.636719 6.011719 43.796875 C 5.84375 43.945312 5.671875 44.09375 5.5 44.25 C 5.367188 44.359375 5.234375 44.464844 5.101562 44.574219 C 4.628906 45.148438 4.652344 45.503906 4.644531 46.238281 C 4.640625 46.492188 4.636719 46.742188 4.632812 47.003906 C 4.632812 47.273438 4.632812 47.546875 4.632812 47.828125 C 4.628906 48.109375 4.628906 48.386719 4.628906 48.675781 C 4.625 49.265625 4.621094 49.859375 4.625 50.449219 C 4.625 51.355469 4.613281 52.261719 4.601562 53.167969 C 4.601562 53.738281 4.601562 54.316406 4.601562 54.890625 C 4.597656 55.160156 4.59375 55.433594 4.589844 55.710938 C 4.566406 57.207031 4.566406 57.207031 5.363281 58.402344 C 5.675781 58.574219 5.675781 58.574219 6 58.75 C 6.664062 59.636719 6.636719 60.683594 6.5 61.75 C 6.054688 62.78125 5.472656 63.441406 4.5 64 C 3.230469 64.210938 2.28125 64.140625 1.125 63.5625 C 0.398438 62.910156 0.0585938 62.425781 -0.0742188 61.453125 C -0.0820312 59.976562 0.164062 59.183594 1.140625 58.046875 C 1.5 57.75 1.5 57.75 2 57.75 C 1.988281 57.589844 1.980469 57.429688 1.972656 57.265625 C 1.878906 55.582031 1.8125 53.898438 1.765625 52.214844 C 1.746094 51.589844 1.71875 50.960938 1.679688 50.335938 C 1.359375 44.824219 1.359375 44.824219 2.96875 42.925781 C 3.710938 42.164062 4.503906 41.511719 5.339844 40.855469 C 6.1875 40.167969 6.1875 40.167969 6.355469 39.050781 C 6.152344 38.222656 5.847656 37.527344 5.5 36.75 C 4.28125 29.703125 5.921875 22.34375 10 16.5 C 10.710938 15.550781 11.476562 14.648438 12.25 13.75 C 12.503906 13.421875 12.753906 13.085938 13 12.75 C 12.101562 11.414062 11.183594 10.207031 9.554688 9.84375 C 7.875 9.664062 6.1875 9.675781 4.5 9.75 C 4.699219 10.816406 5.15625 11.089844 6 11.75 C 6.566406 12.507812 6.605469 13.289062 6.578125 14.226562 C 6.398438 15.445312 5.820312 16.261719 4.828125 17 C 3.726562 17.332031 2.851562 17.328125 1.75 17 C 0.871094 16.492188 0.328125 15.984375 0 15 C -0.140625 13.804688 -0.113281 12.96875 0.453125 11.890625 C 1 11.25 1 11.25 1.75 10.75 C 1.855469 10.046875 1.859375 9.363281 1.875 8.65625 C 2 8 2 8 2.398438 7.59375 C 3.585938 6.917969 5.046875 7.101562 6.382812 7.097656 C 6.933594 7.09375 7.480469 7.078125 8.03125 7.058594 C 10.96875 7.011719 10.96875 7.011719 12.183594 8.066406 C 12.464844 8.371094 12.738281 8.679688 13 9 C 13.210938 9.199219 13.417969 9.402344 13.632812 9.609375 C 13.796875 9.773438 13.957031 9.941406 14.125 10.109375 C 14.292969 10.28125 14.460938 10.449219 14.632812 10.625 C 14.753906 10.746094 14.875 10.871094 15 11 C 15.164062 10.894531 15.328125 10.789062 15.496094 10.675781 C 16.246094 10.199219 16.996094 9.726562 17.75 9.25 C 18.09375 9.023438 18.09375 9.023438 18.441406 8.796875 C 21.148438 7.101562 24.171875 6.242188 27.25 5.5 C 27.332031 5.171875 27.414062 4.839844 27.5 4.5 C 26.027344 4.503906 24.554688 4.515625 23.082031 4.539062 C 22.582031 4.546875 22.078125 4.546875 21.578125 4.550781 C 20.859375 4.550781 20.140625 4.5625 19.421875 4.574219 C 19.085938 4.574219 19.085938 4.574219 18.742188 4.570312 C 17.613281 4.597656 17.152344 4.625 16.253906 5.363281 C 16.085938 5.574219 15.921875 5.785156 15.75 6 C 14.863281 6.621094 14.0625 6.609375 13 6.5 C 12 6.136719 11.386719 5.683594 10.75 4.828125 C 10.417969 3.730469 10.421875 2.851562 10.75 1.75 C 11.816406 -0.03125 13.046875 -0.222656 15 0 Z M 15 0 "/>
<path style=" stroke:none;fill-rule:nonzero;fill:rgb(12.941177%,11.764706%,11.764706%);fill-opacity:1;" d="M 15 0 C 15.964844 0.5 16.398438 0.851562 17 1.75 C 17.539062 1.863281 17.539062 1.863281 18.171875 1.84375 C 18.53125 1.851562 18.53125 1.851562 18.90625 1.855469 C 19.167969 1.851562 19.429688 1.851562 19.703125 1.851562 C 20.109375 1.855469 20.109375 1.855469 20.515625 1.859375 C 21.382812 1.867188 22.246094 1.871094 23.109375 1.875 C 24.246094 1.878906 25.378906 1.886719 26.515625 1.898438 C 26.90625 1.898438 26.90625 1.898438 27.308594 1.894531 C 27.550781 1.898438 27.796875 1.898438 28.046875 1.90625 C 28.261719 1.90625 28.476562 1.90625 28.699219 1.90625 C 29.371094 2.019531 29.59375 2.207031 30 2.75 C 30.101562 3.59375 30.03125 4.398438 30 5.25 C 31.320312 5.25 32.640625 5.25 34 5.25 C 33.984375 4.851562 33.96875 4.453125 33.953125 4.046875 C 33.90625 2.875 33.90625 2.875 34.304688 2.34375 C 34.886719 1.898438 35.214844 1.910156 35.941406 1.914062 C 36.179688 1.914062 36.421875 1.914062 36.671875 1.914062 C 36.929688 1.917969 37.191406 1.921875 37.460938 1.925781 C 38.011719 1.921875 38.558594 1.921875 39.109375 1.917969 C 39.976562 1.921875 40.84375 1.921875 41.710938 1.929688 C 42.550781 1.933594 43.386719 1.929688 44.226562 1.925781 C 44.484375 1.929688 44.742188 1.933594 45.011719 1.941406 C 46.308594 1.960938 46.308594 1.960938 47.433594 1.414062 C 47.816406 0.960938 47.816406 0.960938 48.25 0.25 C 49.175781 -0.214844 50.238281 -0.109375 51.25 0 C 52.191406 0.445312 52.628906 0.832031 53.234375 1.671875 C 53.585938 2.769531 53.550781 3.640625 53.25 4.75 C 52.71875 5.609375 52.226562 6.203125 51.25 6.5 C 49.640625 6.65625 48.824219 6.425781 47.5 5.5 C 47.253906 5.128906 47.253906 5.128906 47 4.75 C 46.527344 4.632812 46.527344 4.632812 45.980469 4.640625 C 45.769531 4.636719 45.558594 4.632812 45.34375 4.628906 C 45.003906 4.625 45.003906 4.625 44.65625 4.621094 C 44.421875 4.617188 44.191406 4.613281 43.949219 4.609375 C 43.207031 4.59375 42.460938 4.585938 41.71875 4.578125 C 41.214844 4.570312 40.710938 4.558594 40.207031 4.550781 C 38.972656 4.53125 37.734375 4.515625 36.5 4.5 C 36.582031 4.828125 36.664062 5.160156 36.75 5.5 C 36.984375 5.558594 37.214844 5.613281 37.453125 5.675781 C 41.773438 6.78125 45.320312 8.523438 49 11 C 49.101562 10.894531 49.207031 10.789062 49.3125 10.683594 C 49.78125 10.210938 50.25 9.738281 50.71875 9.265625 C 50.960938 9.015625 50.960938 9.015625 51.210938 8.765625 C 51.367188 8.609375 51.523438 8.453125 51.683594 8.289062 C 51.828125 8.144531 51.972656 8 52.121094 7.851562 C 53.226562 6.828125 54.980469 7.191406 56.398438 7.191406 C 56.964844 7.1875 57.527344 7.179688 58.09375 7.171875 C 58.453125 7.171875 58.808594 7.171875 59.171875 7.167969 C 59.496094 7.164062 59.824219 7.164062 60.160156 7.160156 C 61.039062 7.253906 61.394531 7.367188 62 8 C 62.101562 8.628906 62.101562 8.628906 62.09375 9.34375 C 62.125 10.34375 62.125 10.34375 62.585938 11.191406 C 63.042969 11.558594 63.042969 11.558594 63.75 12 C 64.214844 12.925781 64.109375 13.988281 64 15 C 63.554688 15.941406 63.167969 16.378906 62.328125 16.984375 C 61.230469 17.335938 60.359375 17.300781 59.25 17 C 58.390625 16.46875 57.796875 15.976562 57.5 15 C 57.34375 13.390625 57.574219 12.574219 58.5 11.25 C 58.746094 11.085938 58.996094 10.921875 59.25 10.75 C 59.429688 10.234375 59.429688 10.234375 59.5 9.75 C 55.953125 9.453125 55.953125 9.453125 52.753906 10.628906 C 52.078125 11.265625 51.519531 11.976562 51 12.75 C 51.203125 12.984375 51.414062 13.214844 51.625 13.453125 C 56.886719 19.617188 59.339844 26.675781 58.75 34.75 C 58.625 35.730469 58.457031 36.695312 58.246094 37.65625 C 58.039062 38.605469 57.933594 39.324219 58.25 40.25 C 58.578125 40.753906 58.578125 40.753906 59.015625 41.203125 C 59.152344 41.355469 59.289062 41.503906 59.429688 41.660156 C 59.964844 42.238281 59.964844 42.238281 60.484375 42.636719 C 61.308594 43.328125 61.90625 43.886719 62.175781 44.949219 C 62.230469 45.773438 62.226562 46.574219 62.195312 47.398438 C 62.191406 47.695312 62.191406 47.992188 62.1875 48.296875 C 62.175781 49.238281 62.148438 50.183594 62.125 51.125 C 62.113281 51.765625 62.105469 52.40625 62.097656 53.050781 C 62.074219 54.613281 62.042969 56.183594 62 57.75 C 62.296875 57.859375 62.296875 57.859375 62.597656 57.96875 C 63.25 58.25 63.25 58.25 63.703125 58.75 C 64.136719 59.84375 64.171875 60.839844 64 62 C 63.484375 63.03125 63.0625 63.570312 62 64 C 60.929688 64.148438 60.015625 64.121094 59.03125 63.671875 C 57.820312 62.710938 57.820312 62.710938 57.5 61.75 C 57.386719 60.222656 57.65625 59.214844 58.640625 58.03125 C 59 57.75 59 57.75 59.5 57.75 C 59.523438 55.976562 59.523438 54.199219 59.515625 52.425781 C 59.515625 51.824219 59.519531 51.21875 59.527344 50.617188 C 59.539062 49.746094 59.53125 48.878906 59.523438 48.011719 C 59.53125 47.609375 59.53125 47.609375 59.542969 47.199219 C 59.511719 45.628906 59.257812 44.835938 58.140625 43.703125 C 57.601562 43.226562 57.140625 42.820312 56.5 42.5 C 56.402344 42.820312 56.402344 42.820312 56.300781 43.148438 C 55.253906 46.097656 53.328125 48.46875 51.25 50.75 C 51.101562 50.921875 50.953125 51.085938 50.800781 51.261719 C 47.671875 54.636719 43.085938 56.71875 38.75 58 C 39.074219 58.667969 39.074219 58.667969 39.75 59.25 C 40.640625 59.449219 41.523438 59.449219 42.4375 59.453125 C 42.683594 59.460938 42.929688 59.464844 43.183594 59.472656 C 43.789062 59.488281 44.394531 59.496094 45 59.5 C 45.074219 59.347656 45.140625 59.191406 45.21875 59.035156 C 45.621094 58.269531 46.003906 57.945312 46.75 57.5 C 47.816406 57.324219 48.703125 57.375 49.703125 57.796875 C 51.171875 59.011719 51.171875 59.011719 51.335938 60.039062 C 51.394531 61.601562 51.03125 62.421875 49.96875 63.578125 C 48.96875 64.164062 48.132812 64.171875 47 64 C 46.195312 63.632812 45.566406 63.183594 45 62.5 C 45 62.335938 45 62.171875 45 62 C 44.828125 62.011719 44.65625 62.015625 44.480469 62.027344 C 43.695312 62.066406 42.910156 62.085938 42.125 62.109375 C 41.71875 62.132812 41.71875 62.132812 41.308594 62.15625 C 39.910156 62.183594 38.984375 62.148438 37.898438 61.210938 C 37.449219 60.765625 37.046875 60.3125 36.664062 59.808594 C 36.082031 59.09375 35.691406 58.796875 34.773438 58.585938 C 33.875 58.492188 33 58.464844 32.09375 58.46875 C 31.78125 58.46875 31.464844 58.46875 31.140625 58.46875 C 29.460938 58.523438 28.21875 58.640625 26.960938 59.816406 C 26.421875 60.429688 25.957031 61.070312 25.5 61.75 C 24.847656 62.074219 24.367188 62.027344 23.636719 62.023438 C 23.371094 62.023438 23.101562 62.023438 22.824219 62.023438 C 22.542969 62.019531 22.261719 62.015625 21.96875 62.015625 C 21.542969 62.015625 21.542969 62.015625 21.109375 62.011719 C 20.40625 62.011719 19.703125 62.003906 19 62 C 18.925781 62.199219 18.859375 62.394531 18.78125 62.597656 C 18.40625 63.460938 18.121094 63.648438 17.25 64 C 16.183594 64.140625 15.296875 64.125 14.296875 63.703125 C 12.828125 62.488281 12.828125 62.488281 12.664062 61.460938 C 12.605469 59.898438 12.96875 59.078125 14.03125 57.921875 C 15.03125 57.335938 15.867188 57.328125 17 57.5 C 17.804688 57.867188 18.433594 58.316406 19 59 C 19 59.164062 19 59.328125 19 59.5 C 19.855469 59.496094 20.707031 59.476562 21.5625 59.453125 C 21.804688 59.453125 22.046875 59.449219 22.296875 59.449219 C 23.757812 59.429688 23.757812 59.429688 24.917969 58.613281 C 25.027344 58.410156 25.136719 58.207031 25.25 58 C 25.078125 57.949219 24.910156 57.902344 24.734375 57.851562 C 17.714844 55.683594 11.804688 51.199219 8.328125 44.6875 C 7.5 43.113281 7.5 43.113281 7.5 42.5 C 7.183594 42.773438 6.863281 43.050781 6.546875 43.328125 C 6.371094 43.484375 6.191406 43.636719 6.011719 43.796875 C 5.84375 43.945312 5.671875 44.09375 5.5 44.25 C 5.367188 44.359375 5.234375 44.464844 5.101562 44.574219 C 4.628906 45.148438 4.652344 45.503906 4.644531 46.238281 C 4.640625 46.492188 4.636719 46.742188 4.632812 47.003906 C 4.632812 47.273438 4.632812 47.546875 4.632812 47.828125 C 4.628906 48.109375 4.628906 48.386719 4.628906 48.675781 C 4.625 49.265625 4.621094 49.859375 4.625 50.449219 C 4.625 51.355469 4.613281 52.261719 4.601562 53.167969 C 4.601562 53.738281 4.601562 54.316406 4.601562 54.890625 C 4.597656 55.160156 4.59375 55.433594 4.589844 55.710938 C 4.566406 57.207031 4.566406 57.207031 5.363281 58.402344 C 5.675781 58.574219 5.675781 58.574219 6 58.75 C 6.664062 59.636719 6.636719 60.683594 6.5 61.75 C 6.054688 62.78125 5.472656 63.441406 4.5 64 C 3.230469 64.210938 2.28125 64.140625 1.125 63.5625 C 0.398438 62.910156 0.0585938 62.425781 -0.0742188 61.453125 C -0.0820312 59.976562 0.164062 59.183594 1.140625 58.046875 C 1.5 57.75 1.5 57.75 2 57.75 C 1.988281 57.589844 1.980469 57.429688 1.972656 57.265625 C 1.878906 55.582031 1.8125 53.898438 1.765625 52.214844 C 1.746094 51.589844 1.71875 50.960938 1.679688 50.335938 C 1.359375 44.824219 1.359375 44.824219 2.96875 42.925781 C 3.710938 42.164062 4.503906 41.511719 5.339844 40.855469 C 6.1875 40.167969 6.1875 40.167969 6.355469 39.050781 C 6.152344 38.222656 5.847656 37.527344 5.5 36.75 C 4.28125 29.703125 5.921875 22.34375 10 16.5 C 10.710938 15.550781 11.476562 14.648438 12.25 13.75 C 12.503906 13.421875 12.753906 13.085938 13 12.75 C 12.101562 11.414062 11.183594 10.207031 9.554688 9.84375 C 7.875 9.664062 6.1875 9.675781 4.5 9.75 C 4.699219 10.816406 5.15625 11.089844 6 11.75 C 6.566406 12.507812 6.605469 13.289062 6.578125 14.226562 C 6.398438 15.445312 5.820312 16.261719 4.828125 17 C 3.726562 17.332031 2.851562 17.328125 1.75 17 C 0.871094 16.492188 0.328125 15.984375 0 15 C -0.140625 13.804688 -0.113281 12.96875 0.453125 11.890625 C 1 11.25 1 11.25 1.75 10.75 C 1.855469 10.046875 1.859375 9.363281 1.875 8.65625 C 2 8 2 8 2.398438 7.59375 C 3.585938 6.917969 5.046875 7.101562 6.382812 7.097656 C 6.933594 7.09375 7.480469 7.078125 8.03125 7.058594 C 10.96875 7.011719 10.96875 7.011719 12.183594 8.066406 C 12.464844 8.371094 12.738281 8.679688 13 9 C 13.210938 9.199219 13.417969 9.402344 13.632812 9.609375 C 13.796875 9.773438 13.957031 9.941406 14.125 10.109375 C 14.292969 10.28125 14.460938 10.449219 14.632812 10.625 C 14.753906 10.746094 14.875 10.871094 15 11 C 15.164062 10.894531 15.328125 10.789062 15.496094 10.675781 C 16.246094 10.199219 16.996094 9.726562 17.75 9.25 C 18.09375 9.023438 18.09375 9.023438 18.441406 8.796875 C 21.148438 7.101562 24.171875 6.242188 27.25 5.5 C 27.332031 5.171875 27.414062 4.839844 27.5 4.5 C 26.027344 4.503906 24.554688 4.515625 23.082031 4.539062 C 22.582031 4.546875 22.078125 4.546875 21.578125 4.550781 C 20.859375 4.550781 20.140625 4.5625 19.421875 4.574219 C 19.085938 4.574219 19.085938 4.574219 18.742188 4.570312 C 17.613281 4.597656 17.152344 4.625 16.253906 5.363281 C 16.085938 5.574219 15.921875 5.785156 15.75 6 C 14.863281 6.621094 14.0625 6.609375 13 6.5 C 12 6.136719 11.386719 5.683594 10.75 4.828125 C 10.417969 3.730469 10.421875 2.851562 10.75 1.75 C 11.816406 -0.03125 13.046875 -0.222656 15 0 Z M 14.5 14.75 C 14.308594 14.9375 14.121094 15.121094 13.925781 15.316406 C 9.511719 19.921875 7.316406 26.21875 7.382812 32.539062 C 7.613281 39.386719 10.589844 45.566406 15.546875 50.28125 C 20.863281 54.949219 27.488281 56.949219 34.5 56.5 C 41.234375 55.71875 47.261719 52.285156 51.5 47 C 54.046875 43.578125 55.398438 39.898438 56.25 35.75 C 56.296875 35.550781 56.347656 35.355469 56.398438 35.152344 C 57.375 28.988281 55.546875 22.863281 52.078125 17.796875 C 51.214844 16.609375 50.289062 15.539062 49.25 14.5 C 49.058594 14.308594 48.863281 14.113281 48.667969 13.917969 C 43.6875 9.195312 37.191406 7.300781 30.46875 7.421875 C 24.417969 7.660156 18.746094 10.511719 14.5 14.75 Z M 14.5 14.75 "/>
<path style=" stroke:none;fill-rule:nonzero;fill:rgb(82.745099%,0%,14.509805%);fill-opacity:1;" d="M 37.75 17.75 C 39.601562 19.195312 41.164062 21.296875 41.46875 23.671875 C 41.480469 23.945312 41.488281 24.21875 41.5 24.5 C 41.722656 24.519531 41.941406 24.539062 42.171875 24.5625 C 43.425781 24.847656 44.046875 25.445312 44.75 26.5 C 44.800781 27.117188 44.824219 27.710938 44.824219 28.328125 C 44.824219 28.515625 44.824219 28.699219 44.828125 28.890625 C 44.832031 29.503906 44.832031 30.117188 44.835938 30.734375 C 44.835938 31.15625 44.835938 31.585938 44.839844 32.011719 C 44.84375 32.90625 44.84375 33.800781 44.84375 34.699219 C 44.84375 35.84375 44.851562 36.988281 44.859375 38.136719 C 44.863281 39.015625 44.863281 39.898438 44.863281 40.78125 C 44.863281 41.203125 44.867188 41.628906 44.871094 42.050781 C 44.875 42.640625 44.875 43.234375 44.871094 43.824219 C 44.875 43.996094 44.878906 44.171875 44.878906 44.351562 C 44.863281 45.59375 44.546875 46.300781 43.75 47.25 C 42.726562 48.097656 41.734375 48.109375 40.453125 48.101562 C 40.253906 48.101562 40.050781 48.105469 39.839844 48.105469 C 39.171875 48.109375 38.503906 48.109375 37.835938 48.109375 C 37.371094 48.109375 36.90625 48.109375 36.441406 48.113281 C 35.464844 48.113281 34.488281 48.113281 33.515625 48.113281 C 32.265625 48.109375 31.019531 48.113281 29.773438 48.121094 C 28.8125 48.125 27.851562 48.125 26.890625 48.125 C 26.429688 48.125 25.96875 48.125 25.511719 48.128906 C 24.863281 48.132812 24.222656 48.128906 23.578125 48.125 C 23.390625 48.128906 23.199219 48.128906 23.003906 48.132812 C 21.71875 48.113281 20.976562 47.835938 20 47 C 19.199219 46.011719 19.140625 45.097656 19.144531 43.863281 C 19.140625 43.679688 19.140625 43.492188 19.136719 43.300781 C 19.132812 42.691406 19.132812 42.078125 19.132812 41.46875 C 19.128906 41.042969 19.128906 40.617188 19.128906 40.191406 C 19.121094 39.296875 19.121094 38.40625 19.125 37.511719 C 19.125 36.371094 19.117188 35.230469 19.109375 34.085938 C 19.101562 33.207031 19.101562 32.328125 19.101562 31.449219 C 19.101562 31.027344 19.101562 30.609375 19.09375 30.183594 C 19.089844 29.59375 19.09375 29.007812 19.09375 28.417969 C 19.09375 28.246094 19.089844 28.074219 19.085938 27.894531 C 19.109375 26.507812 19.558594 25.945312 20.5 25 C 21.269531 24.488281 21.523438 24.5 22.5 24.5 C 22.511719 24.226562 22.519531 23.953125 22.53125 23.671875 C 22.808594 21.535156 24.117188 19.644531 25.664062 18.199219 C 29.394531 15.351562 33.828125 15.300781 37.75 17.75 Z M 37.75 17.75 "/>
<path style=" stroke:none;fill-rule:nonzero;fill:rgb(46.666667%,71.372551%,90.980393%);fill-opacity:1;" d="M 44.765625 16.1875 C 48.5625 19.328125 51.394531 23.863281 52.1875 28.785156 C 52.699219 34.648438 51.546875 40.109375 47.75 44.75 C 47.496094 45.070312 47.496094 45.070312 47.234375 45.398438 C 43.914062 49.351562 39.128906 51.511719 34.078125 52.1875 C 33.71875 52.214844 33.359375 52.234375 33 52.25 C 32.652344 52.273438 32.652344 52.273438 32.292969 52.296875 C 26.957031 52.503906 22.085938 50.261719 18.09375 46.84375 C 14.265625 43.234375 11.9375 38.265625 11.691406 32.984375 C 11.546875 27.246094 13.476562 22.050781 17.417969 17.820312 C 24.824219 10.171875 36.5 9.867188 44.765625 16.1875 Z M 24.394531 19.503906 C 23.191406 21.015625 22.605469 22.585938 22.5 24.5 C 22.277344 24.519531 22.054688 24.539062 21.828125 24.5625 C 20.574219 24.847656 19.953125 25.445312 19.25 26.5 C 19.199219 27.117188 19.175781 27.710938 19.179688 28.328125 C 19.175781 28.515625 19.171875 28.699219 19.171875 28.890625 C 19.167969 29.503906 19.164062 30.117188 19.164062 30.734375 C 19.164062 31.15625 19.164062 31.585938 19.160156 32.011719 C 19.15625 32.90625 19.15625 33.800781 19.15625 34.699219 C 19.15625 35.84375 19.152344 36.988281 19.144531 38.136719 C 19.136719 39.015625 19.136719 39.898438 19.136719 40.78125 C 19.136719 41.203125 19.132812 41.628906 19.128906 42.050781 C 19.125 42.640625 19.125 43.234375 19.128906 43.824219 C 19.125 43.996094 19.125 44.171875 19.121094 44.351562 C 19.136719 45.59375 19.449219 46.300781 20.25 47.25 C 21.277344 48.097656 22.269531 48.109375 23.546875 48.101562 C 23.75 48.101562 23.949219 48.105469 24.160156 48.105469 C 24.828125 48.109375 25.496094 48.109375 26.164062 48.109375 C 26.628906 48.109375 27.09375 48.109375 27.5625 48.113281 C 28.53125 48.113281 29.507812 48.113281 30.484375 48.113281 C 31.734375 48.109375 32.980469 48.113281 34.226562 48.121094 C 35.1875 48.125 36.152344 48.125 37.109375 48.125 C 37.570312 48.125 38.03125 48.125 38.492188 48.128906 C 39.136719 48.132812 39.777344 48.128906 40.421875 48.125 C 40.609375 48.128906 40.800781 48.128906 40.996094 48.132812 C 42.28125 48.113281 43.023438 47.835938 44 47 C 44.804688 46.011719 44.859375 45.097656 44.855469 43.863281 C 44.859375 43.679688 44.859375 43.492188 44.859375 43.300781 C 44.867188 42.691406 44.867188 42.078125 44.867188 41.46875 C 44.867188 41.042969 44.871094 40.617188 44.875 40.191406 C 44.875 39.296875 44.875 38.40625 44.875 37.511719 C 44.875 36.371094 44.878906 35.230469 44.890625 34.085938 C 44.898438 33.207031 44.898438 32.328125 44.898438 31.449219 C 44.898438 31.027344 44.902344 30.609375 44.90625 30.183594 C 44.910156 29.59375 44.90625 29.007812 44.902344 28.417969 C 44.90625 28.246094 44.910156 28.074219 44.914062 27.894531 C 44.890625 26.507812 44.441406 25.945312 43.5 25 C 42.730469 24.488281 42.476562 24.5 41.5 24.5 C 41.492188 24.226562 41.480469 23.953125 41.46875 23.671875 C 41.191406 21.535156 39.882812 19.640625 38.335938 18.199219 C 33.796875 14.734375 28.242188 15.449219 24.394531 19.503906 Z M 24.394531 19.503906 "/>
<path style=" stroke:none;fill-rule:nonzero;fill:rgb(13.333334%,11.764706%,12.156863%);fill-opacity:1;" d="M 37.75 17.75 C 39.601562 19.195312 41.164062 21.296875 41.46875 23.671875 C 41.480469 23.945312 41.488281 24.21875 41.5 24.5 C 41.722656 24.519531 41.941406 24.539062 42.171875 24.5625 C 43.425781 24.847656 44.046875 25.445312 44.75 26.5 C 44.800781 27.117188 44.824219 27.710938 44.824219 28.328125 C 44.824219 28.515625 44.824219 28.699219 44.828125 28.890625 C 44.832031 29.503906 44.832031 30.117188 44.835938 30.734375 C 44.835938 31.15625 44.835938 31.585938 44.839844 32.011719 C 44.84375 32.90625 44.84375 33.800781 44.84375 34.699219 C 44.84375 35.84375 44.851562 36.988281 44.859375 38.136719 C 44.863281 39.015625 44.863281 39.898438 44.863281 40.78125 C 44.863281 41.203125 44.867188 41.628906 44.871094 42.050781 C 44.875 42.640625 44.875 43.234375 44.871094 43.824219 C 44.875 43.996094 44.878906 44.171875 44.878906 44.351562 C 44.863281 45.59375 44.546875 46.300781 43.75 47.25 C 42.726562 48.097656 41.734375 48.109375 40.453125 48.101562 C 40.253906 48.101562 40.050781 48.105469 39.839844 48.105469 C 39.171875 48.109375 38.503906 48.109375 37.835938 48.109375 C 37.371094 48.109375 36.90625 48.109375 36.441406 48.113281 C 35.464844 48.113281 34.488281 48.113281 33.515625 48.113281 C 32.265625 48.109375 31.019531 48.113281 29.773438 48.121094 C 28.8125 48.125 27.851562 48.125 26.890625 48.125 C 26.429688 48.125 25.96875 48.125 25.511719 48.128906 C 24.863281 48.132812 24.222656 48.128906 23.578125 48.125 C 23.390625 48.128906 23.199219 48.128906 23.003906 48.132812 C 21.71875 48.113281 20.976562 47.835938 20 47 C 19.199219 46.011719 19.140625 45.097656 19.144531 43.863281 C 19.140625 43.679688 19.140625 43.492188 19.136719 43.300781 C 19.132812 42.691406 19.132812 42.078125 19.132812 41.46875 C 19.128906 41.042969 19.128906 40.617188 19.128906 40.191406 C 19.121094 39.296875 19.121094 38.40625 19.125 37.511719 C 19.125 36.371094 19.117188 35.230469 19.109375 34.085938 C 19.101562 33.207031 19.101562 32.328125 19.101562 31.449219 C 19.101562 31.027344 19.101562 30.609375 19.09375 30.183594 C 19.089844 29.59375 19.09375 29.007812 19.09375 28.417969 C 19.09375 28.246094 19.089844 28.074219 19.085938 27.894531 C 19.109375 26.507812 19.558594 25.945312 20.5 25 C 21.269531 24.488281 21.523438 24.5 22.5 24.5 C 22.511719 24.226562 22.519531 23.953125 22.53125 23.671875 C 22.808594 21.535156 24.117188 19.644531 25.664062 18.199219 C 29.394531 15.351562 33.828125 15.300781 37.75 17.75 Z M 21.75 26.75 C 21.140625 27.664062 21.1875 28.09375 21.183594 29.179688 C 21.183594 29.351562 21.183594 29.519531 21.183594 29.691406 C 21.179688 30.253906 21.183594 30.816406 21.183594 31.375 C 21.183594 31.765625 21.183594 32.15625 21.183594 32.542969 C 21.183594 33.359375 21.183594 34.175781 21.183594 34.992188 C 21.1875 36.039062 21.183594 37.085938 21.183594 38.132812 C 21.179688 38.9375 21.183594 39.738281 21.183594 40.546875 C 21.183594 40.929688 21.183594 41.316406 21.183594 41.703125 C 21.179688 42.242188 21.183594 42.78125 21.183594 43.320312 C 21.183594 43.628906 21.183594 43.933594 21.1875 44.25 C 21.191406 45.046875 21.191406 45.046875 21.75 45.75 C 22.414062 45.824219 23.015625 45.851562 23.679688 45.847656 C 23.878906 45.847656 24.078125 45.851562 24.285156 45.851562 C 24.945312 45.855469 25.605469 45.851562 26.265625 45.851562 C 26.722656 45.851562 27.179688 45.851562 27.636719 45.851562 C 28.601562 45.851562 29.558594 45.851562 30.519531 45.847656 C 31.753906 45.84375 32.984375 45.84375 34.214844 45.851562 C 35.164062 45.851562 36.109375 45.851562 37.050781 45.851562 C 37.507812 45.851562 37.960938 45.851562 38.414062 45.851562 C 39.050781 45.855469 39.683594 45.851562 40.320312 45.847656 C 40.601562 45.851562 40.601562 45.851562 40.890625 45.851562 C 41.46875 45.851562 41.46875 45.851562 42.25 45.75 C 42.859375 44.835938 42.8125 44.40625 42.816406 43.320312 C 42.816406 43.148438 42.816406 42.980469 42.816406 42.808594 C 42.820312 42.246094 42.816406 41.683594 42.816406 41.125 C 42.816406 40.734375 42.816406 40.34375 42.816406 39.957031 C 42.816406 39.140625 42.816406 38.324219 42.816406 37.507812 C 42.8125 36.460938 42.816406 35.414062 42.816406 34.367188 C 42.820312 33.5625 42.816406 32.761719 42.816406 31.953125 C 42.816406 31.570312 42.816406 31.183594 42.816406 30.796875 C 42.820312 30.257812 42.816406 29.71875 42.816406 29.179688 C 42.816406 28.871094 42.816406 28.566406 42.8125 28.25 C 42.808594 27.453125 42.808594 27.453125 42.25 26.75 C 41.585938 26.675781 40.984375 26.648438 40.320312 26.652344 C 40.121094 26.652344 39.921875 26.648438 39.714844 26.648438 C 39.054688 26.644531 38.394531 26.648438 37.734375 26.648438 C 37.277344 26.648438 36.820312 26.648438 36.363281 26.648438 C 35.398438 26.648438 34.441406 26.648438 33.480469 26.652344 C 32.246094 26.65625 31.015625 26.65625 29.785156 26.648438 C 28.835938 26.648438 27.890625 26.648438 26.949219 26.648438 C 26.492188 26.648438 26.039062 26.648438 25.585938 26.648438 C 24.949219 26.644531 24.316406 26.648438 23.679688 26.652344 C 23.492188 26.652344 23.300781 26.648438 23.109375 26.648438 C 22.53125 26.648438 22.53125 26.648438 21.75 26.75 Z M 21.75 26.75 "/>
<path style=" stroke:none;fill-rule:nonzero;fill:rgb(12.941177%,12.941177%,12.941177%);fill-opacity:1;" d="M 44.582031 13.28125 C 49.894531 17.09375 53.277344 22.476562 54.367188 28.9375 C 54.4375 29.542969 54.476562 30.140625 54.5 30.75 C 54.515625 30.960938 54.53125 31.175781 54.546875 31.394531 C 54.789062 36.988281 52.554688 42.621094 48.90625 46.796875 C 44.761719 51.210938 39.578125 54.070312 33.457031 54.328125 C 26.78125 54.503906 21.277344 52.65625 16.335938 48.066406 C 12.464844 44.316406 9.84375 39.164062 9.640625 33.730469 C 9.636719 33.121094 9.636719 32.515625 9.640625 31.90625 C 9.644531 31.425781 9.644531 31.425781 9.648438 30.941406 C 9.691406 28.632812 9.871094 26.652344 10.75 24.5 C 10.851562 24.246094 10.851562 24.246094 10.957031 23.984375 C 13.421875 18 17.746094 13.675781 23.636719 11.070312 C 25.21875 10.480469 26.851562 10.105469 28.5 9.75 C 28.703125 9.703125 28.90625 9.65625 29.117188 9.605469 C 34.46875 8.71875 40.082031 10.40625 44.582031 13.28125 Z M 16.75 18.5 C 14.671875 20.914062 13.0625 23.914062 12.25 27 C 12.199219 27.175781 12.148438 27.351562 12.09375 27.535156 C 10.871094 32.472656 11.992188 37.933594 14.453125 42.304688 C 17.804688 47.550781 22.492188 50.632812 28.5 52 C 28.714844 52.050781 28.925781 52.097656 29.144531 52.148438 C 34.046875 52.96875 39.539062 51.5 43.582031 48.683594 C 48.148438 45.367188 51.046875 40.773438 52.121094 35.214844 C 52.851562 29.679688 51.601562 24.273438 48.25 19.75 C 44.714844 15.414062 39.894531 12.390625 34.25 11.75 C 27.503906 11.292969 21.4375 13.542969 16.75 18.5 Z M 16.75 18.5 "/>
<path style=" stroke:none;fill-rule:nonzero;fill:rgb(14.509805%,12.156863%,11.764706%);fill-opacity:1;" d="M 34.3125 28.125 C 35.617188 28.875 36.773438 30.066406 37.25 31.5 C 37.421875 33.367188 37.371094 34.941406 36.25 36.5 C 36.121094 36.601562 35.996094 36.699219 35.863281 36.800781 C 35.328125 37.460938 35.398438 37.996094 35.390625 38.835938 C 35.382812 39.148438 35.378906 39.460938 35.371094 39.78125 C 35.363281 40.265625 35.363281 40.265625 35.359375 40.765625 C 35.351562 41.410156 35.339844 42.050781 35.328125 42.699219 C 35.324219 42.984375 35.320312 43.265625 35.316406 43.5625 C 35.25 44.25 35.25 44.25 34.75 44.75 C 34.199219 44.816406 34.199219 44.816406 33.515625 44.816406 C 33.273438 44.816406 33.027344 44.816406 32.773438 44.816406 C 32.519531 44.816406 32.261719 44.816406 32 44.8125 C 31.746094 44.816406 31.488281 44.816406 31.226562 44.816406 C 30.859375 44.816406 30.859375 44.816406 30.484375 44.816406 C 30.261719 44.816406 30.035156 44.816406 29.800781 44.816406 C 29.25 44.75 29.25 44.75 28.75 44.25 C 28.695312 43.582031 28.695312 43.582031 28.699219 42.738281 C 28.699219 42.433594 28.691406 42.128906 28.691406 41.816406 C 28.6875 41.171875 28.691406 40.53125 28.699219 39.890625 C 28.671875 38.113281 28.582031 36.960938 27.34375 35.636719 C 26.515625 34.710938 26.648438 33.453125 26.667969 32.285156 C 26.824219 30.773438 27.398438 29.769531 28.542969 28.777344 C 30.351562 27.542969 32.265625 27.25 34.3125 28.125 Z M 34.3125 28.125 "/>
<path style=" stroke:none;fill-rule:nonzero;fill:rgb(46.666667%,71.372551%,91.37255%);fill-opacity:1;" d="M 36 19.25 C 37.601562 20.351562 38.609375 21.65625 39.25 23.5 C 39.25 23.828125 39.25 24.160156 39.25 24.5 C 34.464844 24.5 29.679688 24.5 24.75 24.5 C 25.074219 22.234375 25.984375 20.71875 27.796875 19.304688 C 30.199219 17.699219 33.570312 17.671875 36 19.25 Z M 36 19.25 "/>
<path style=" stroke:none;fill-rule:nonzero;fill:rgb(98.823529%,83.92157%,25.490198%);fill-opacity:1;" d="M 33.25 30 C 34.046875 30.410156 34.550781 31.003906 35.109375 31.703125 C 35.339844 32.601562 35.308594 33.386719 35 34.25 C 34.601562 34.675781 34.601562 34.675781 34.121094 35.113281 C 32.917969 36.4375 33 37.78125 33.015625 39.5 C 33.011719 39.789062 33.007812 40.078125 33.003906 40.375 C 32.996094 41.085938 32.992188 41.792969 33 42.5 C 32.339844 42.5 31.679688 42.5 31 42.5 C 31.003906 42.320312 31.003906 42.140625 31.003906 41.957031 C 31.007812 41.136719 30.996094 40.320312 30.984375 39.5 C 30.988281 39.21875 30.988281 38.9375 30.992188 38.648438 C 30.960938 37.171875 30.890625 36.230469 29.878906 35.113281 C 29.722656 34.96875 29.566406 34.824219 29.402344 34.675781 C 28.941406 34.183594 28.816406 33.878906 28.703125 33.21875 C 28.757812 32.070312 29.007812 31.613281 29.75 30.75 C 30.832031 29.789062 31.855469 29.761719 33.25 30 Z M 33.25 30 "/>
<path style=" stroke:none;fill-rule:nonzero;fill:rgb(94.509804%,56.078434%,5.882353%);fill-opacity:1;" d="M 2.75 12.75 C 3.40625 12.84375 3.40625 12.84375 4 13 C 4.28125 14.1875 4.28125 14.1875 4 14.75 C 3.5 14.761719 3 14.761719 2.5 14.75 C 2.25 14.5 2.25 14.5 2.203125 13.890625 C 2.25 13.25 2.25 13.25 2.75 12.75 Z M 2.75 12.75 "/>
<path style=" stroke:none;fill-rule:nonzero;fill:rgb(95.294118%,56.470591%,5.882353%);fill-opacity:1;" d="M 61.03125 12.8125 C 61.5 13 61.5 13 61.75 13.25 C 61.78125 13.875 61.78125 13.875 61.75 14.5 C 61.5 14.75 61.5 14.75 60.734375 14.765625 C 60.492188 14.761719 60.25 14.753906 60 14.75 C 59.828125 14.171875 59.828125 14.171875 59.75 13.5 C 60.140625 12.886719 60.296875 12.726562 61.03125 12.8125 Z M 61.03125 12.8125 "/>
<path style=" stroke:none;fill-rule:nonzero;fill:rgb(94.901961%,56.470591%,5.882353%);fill-opacity:1;" d="M 50.109375 2.203125 C 50.75 2.25 50.75 2.25 51.25 2.75 C 51.15625 3.40625 51.15625 3.40625 51 4 C 49.8125 4.28125 49.8125 4.28125 49.25 4 C 49.238281 3.5 49.238281 3 49.25 2.5 C 49.5 2.25 49.5 2.25 50.109375 2.203125 Z M 50.109375 2.203125 "/>
<path style=" stroke:none;fill-rule:nonzero;fill:rgb(94.901961%,56.470591%,5.882353%);fill-opacity:1;" d="M 13.859375 2.203125 C 14.5 2.25 14.5 2.25 15 2.75 C 14.90625 3.40625 14.90625 3.40625 14.75 4 C 13.5625 4.28125 13.5625 4.28125 13 4 C 12.988281 3.5 12.988281 3 13 2.5 C 13.25 2.25 13.25 2.25 13.859375 2.203125 Z M 13.859375 2.203125 "/>
<path style=" stroke:none;fill-rule:nonzero;fill:rgb(98.039216%,58.039218%,5.882353%);fill-opacity:1;" d="M 60.25 59.75 C 60.90625 59.84375 60.90625 59.84375 61.5 60 C 61.65625 60.59375 61.65625 60.59375 61.75 61.25 C 61.585938 61.414062 61.421875 61.578125 61.25 61.75 C 60.59375 61.65625 60.59375 61.65625 60 61.5 C 59.84375 60.90625 59.84375 60.90625 59.75 60.25 C 59.914062 60.085938 60.078125 59.921875 60.25 59.75 Z M 60.25 59.75 "/>
<path style=" stroke:none;fill-rule:nonzero;fill:rgb(98.823529%,58.431375%,5.882353%);fill-opacity:1;" d="M 47.5 59.75 C 48.15625 59.84375 48.15625 59.84375 48.75 60 C 48.90625 60.59375 48.90625 60.59375 49 61.25 C 48.835938 61.414062 48.671875 61.578125 48.5 61.75 C 47.84375 61.65625 47.84375 61.65625 47.25 61.5 C 47.09375 60.90625 47.09375 60.90625 47 60.25 C 47.164062 60.085938 47.328125 59.921875 47.5 59.75 Z M 47.5 59.75 "/>
<path style=" stroke:none;fill-rule:nonzero;fill:rgb(98.431373%,58.431375%,5.882353%);fill-opacity:1;" d="M 15.5 59.75 C 16.15625 59.84375 16.15625 59.84375 16.75 60 C 16.90625 60.59375 16.90625 60.59375 17 61.25 C 16.835938 61.414062 16.671875 61.578125 16.5 61.75 C 15.84375 61.65625 15.84375 61.65625 15.25 61.5 C 15.09375 60.90625 15.09375 60.90625 15 60.25 C 15.164062 60.085938 15.328125 59.921875 15.5 59.75 Z M 15.5 59.75 "/>
<path style=" stroke:none;fill-rule:nonzero;fill:rgb(98.431373%,58.431375%,5.882353%);fill-opacity:1;" d="M 2.75 59.75 C 3.40625 59.84375 3.40625 59.84375 4 60 C 4.15625 60.59375 4.15625 60.59375 4.25 61.25 C 4.085938 61.414062 3.921875 61.578125 3.75 61.75 C 3.09375 61.65625 3.09375 61.65625 2.5 61.5 C 2.34375 60.90625 2.34375 60.90625 2.25 60.25 C 2.414062 60.085938 2.578125 59.921875 2.75 59.75 Z M 2.75 59.75 "/>
</g>
</svg>
