<?xml version="1.0" encoding="UTF-8"?>
<svg xmlns="http://www.w3.org/2000/svg" xmlns:xlink="http://www.w3.org/1999/xlink" width="64" height="64" viewBox="0 0 64 64" version="1.1">
<g id="surface1">
<path style=" stroke:none;fill-rule:nonzero;fill:rgb(0.392157%,0.392157%,0.392157%);fill-opacity:1;" d="M 16.972656 1.6875 C 19.039062 2.917969 20.394531 4.65625 21 7 C 21.066406 8.03125 21.050781 9.066406 21.042969 10.101562 C 21.042969 10.714844 21.046875 11.332031 21.046875 11.945312 C 21.046875 12.914062 21.046875 13.878906 21.039062 14.84375 C 21.03125 15.78125 21.035156 16.714844 21.042969 17.648438 C 21.035156 18.082031 21.035156 18.082031 21.027344 18.523438 C 21.015625 20 21.015625 20 21.652344 21.277344 C 22.085938 21.648438 22.507812 21.964844 23 22.25 C 23.128906 22.148438 23.253906 22.046875 23.386719 21.941406 C 26.800781 19.234375 30.253906 18.664062 34.5 19 C 37.84375 19.574219 40.675781 21.421875 42.710938 24.109375 C 45.246094 27.804688 45.464844 31.933594 44.75 36.25 C 44.875 36.152344 44.996094 36.050781 45.125 35.949219 C 45.296875 35.816406 45.464844 35.683594 45.640625 35.546875 C 45.804688 35.414062 45.96875 35.285156 46.144531 35.152344 C 48.398438 33.664062 50.878906 33.667969 53.5 34 C 55.675781 34.636719 57.101562 35.800781 58.273438 37.695312 C 59.144531 39.371094 59.160156 41.050781 59.144531 42.898438 C 59.140625 43.421875 59.148438 43.949219 59.15625 44.472656 C 59.175781 47.261719 59.175781 47.261719 58.429688 48.222656 C 57.800781 48.710938 57.503906 48.925781 56.734375 49 C 55.855469 49.164062 55.769531 49.226562 55.125 49.953125 C 54.757812 50.734375 54.648438 51.15625 54.75 52 C 55.070312 52.050781 55.390625 52.101562 55.71875 52.15625 C 58.195312 52.71875 60.035156 54.214844 61.5 56.25 C 62.914062 58.644531 63 60.03125 63 63 C 55.082031 63 47.160156 63 39 63 C 39 59.046875 39.578125 57.101562 42.148438 54.320312 C 43.449219 53.074219 45.425781 52 47.25 52 C 47.351562 51.15625 47.242188 50.734375 46.875 49.953125 C 46.230469 49.226562 46.144531 49.164062 45.265625 49 C 44.375 48.816406 43.769531 48.570312 43.207031 47.800781 C 42.757812 46.601562 42.945312 45.28125 42.992188 44.019531 C 43.003906 43.140625 42.941406 42.269531 42.875 41.390625 C 42.851562 41.074219 42.828125 40.761719 42.804688 40.4375 C 42.789062 40.210938 42.769531 39.984375 42.75 39.75 C 42.613281 39.914062 42.476562 40.074219 42.335938 40.242188 C 40.152344 42.777344 37.425781 44.777344 33.96875 45.039062 C 28.96875 45.132812 28.96875 45.132812 27 44.25 C 26.699219 44.128906 26.699219 44.128906 26.394531 44.011719 C 23.257812 42.636719 20.972656 40.058594 19.671875 36.9375 C 18.753906 34.566406 19 32.738281 19 30 C 13.058594 30 7.121094 30 1 30 C 1 26.363281 1.390625 24.367188 3.75 21.75 C 3.921875 21.601562 4.09375 21.457031 4.269531 21.304688 C 4.863281 20.621094 4.871094 20.304688 4.871094 19.414062 C 4.871094 19.148438 4.875 18.878906 4.875 18.605469 C 4.871094 18.171875 4.871094 18.171875 4.867188 17.734375 C 4.871094 17.4375 4.871094 17.136719 4.871094 16.832031 C 4.878906 15.554688 4.875 14.28125 4.871094 13.007812 C 4.871094 12.078125 4.878906 11.148438 4.882812 10.214844 C 4.878906 9.789062 4.878906 9.789062 4.875 9.351562 C 4.890625 6.957031 5.40625 4.917969 7.074219 3.132812 C 9.722656 0.75 13.734375 0.128906 16.972656 1.6875 Z M 44.25 36.5 C 44.5 37 44.5 37 44.5 37 Z M 43 39 C 43.25 39.5 43.25 39.5 43.25 39.5 Z M 43 39 "/>
<path style=" stroke:none;fill-rule:nonzero;fill:rgb(0%,0%,0%);fill-opacity:1;" d="M 10.441406 39.277344 C 11.644531 40.019531 12.535156 40.886719 13 42.25 C 13.148438 43.660156 13.105469 45.074219 13.078125 46.488281 C 13.089844 48.277344 13.273438 49.386719 14.402344 50.804688 C 15.300781 51.957031 15.078125 53.503906 15.09375 54.890625 C 15.109375 55.285156 15.109375 55.285156 15.121094 55.683594 C 15.144531 57.785156 14.707031 59.464844 13.25 61.035156 C 11.550781 62.652344 9.847656 63.140625 7.515625 63.121094 C 5.386719 63.046875 3.957031 62.320312 2.515625 60.78125 C 1 59 0.867188 57.300781 0.875 55.046875 C 0.867188 54.789062 0.863281 54.53125 0.855469 54.265625 C 0.847656 52.414062 1.238281 51.058594 2.25 49.5 C 2.414062 49.332031 2.578125 49.167969 2.75 49 C 2.820312 48.332031 2.820312 48.332031 2.800781 47.554688 C 2.804688 47.261719 2.804688 46.96875 2.808594 46.667969 C 2.8125 46.050781 2.808594 45.4375 2.804688 44.824219 C 2.832031 42.8125 3.125 41.503906 4.5 40 C 6.117188 38.617188 8.480469 38.492188 10.441406 39.277344 Z M 5.5 42.5 C 5.015625 43.640625 4.945312 44.613281 4.96875 45.84375 C 4.972656 46.152344 4.980469 46.464844 4.980469 46.785156 C 4.988281 47.019531 4.992188 47.257812 5 47.5 C 5.1875 47.4375 5.1875 47.4375 5.375 47.375 C 6.25 47.199219 7.113281 47.214844 8 47.21875 C 8.179688 47.21875 8.355469 47.214844 8.539062 47.214844 C 9.394531 47.214844 10.183594 47.230469 11 47.5 C 11.1875 44.316406 11.1875 44.316406 9.703125 41.640625 C 8 40.695312 6.761719 41.117188 5.5 42.5 Z M 5.5 42.5 "/>
<path style=" stroke:none;fill-rule:nonzero;fill:rgb(0%,0%,0%);fill-opacity:1;" d="M 58.441406 1.277344 C 59.644531 2.019531 60.535156 2.886719 61 4.25 C 61.148438 5.660156 61.105469 7.074219 61.078125 8.488281 C 61.089844 10.277344 61.273438 11.386719 62.402344 12.804688 C 63.300781 13.957031 63.078125 15.503906 63.09375 16.890625 C 63.109375 17.285156 63.109375 17.285156 63.121094 17.683594 C 63.144531 19.785156 62.707031 21.464844 61.25 23.035156 C 59.550781 24.652344 57.847656 25.140625 55.515625 25.121094 C 53.386719 25.046875 51.957031 24.320312 50.515625 22.78125 C 49 21 48.867188 19.300781 48.875 17.046875 C 48.867188 16.789062 48.863281 16.53125 48.855469 16.265625 C 48.847656 14.414062 49.238281 13.058594 50.25 11.5 C 50.414062 11.332031 50.578125 11.167969 50.75 11 C 50.820312 10.332031 50.820312 10.332031 50.800781 9.554688 C 50.804688 9.261719 50.804688 8.96875 50.808594 8.667969 C 50.8125 8.050781 50.808594 7.4375 50.804688 6.824219 C 50.832031 4.8125 51.125 3.503906 52.5 2 C 54.117188 0.617188 56.480469 0.492188 58.441406 1.277344 Z M 53.5 4.5 C 53.015625 5.640625 52.945312 6.613281 52.96875 7.84375 C 52.972656 8.152344 52.980469 8.464844 52.980469 8.785156 C 52.988281 9.019531 52.992188 9.257812 53 9.5 C 53.1875 9.4375 53.1875 9.4375 53.375 9.375 C 54.25 9.199219 55.113281 9.214844 56 9.21875 C 56.179688 9.21875 56.355469 9.214844 56.539062 9.214844 C 57.394531 9.214844 58.183594 9.230469 59 9.5 C 59.1875 6.316406 59.1875 6.316406 57.703125 3.640625 C 56 2.695312 54.761719 3.117188 53.5 4.5 Z M 53.5 4.5 "/>
<path style=" stroke:none;fill-rule:nonzero;fill:rgb(68.627453%,84.313726%,48.235294%);fill-opacity:1;" d="M 10.730469 49.648438 C 11.84375 50.402344 12.578125 51.484375 13 52.75 C 13.304688 57.46875 13.304688 57.46875 12 59.25 C 11.03125 60.347656 9.925781 60.886719 8.472656 61.0625 C 7.027344 61.140625 5.9375 60.84375 4.75 60 C 3.597656 58.933594 2.996094 57.777344 2.917969 56.214844 C 2.910156 55.824219 2.90625 55.433594 2.90625 55.046875 C 2.898438 54.757812 2.898438 54.757812 2.886719 54.464844 C 2.878906 52.78125 3.308594 51.449219 4.507812 50.234375 C 4.675781 50.121094 4.84375 50.007812 5.015625 49.890625 C 5.183594 49.773438 5.351562 49.65625 5.523438 49.53125 C 7.171875 48.554688 9.074219 48.839844 10.730469 49.648438 Z M 10.730469 49.648438 "/>
<path style=" stroke:none;fill-rule:nonzero;fill:rgb(68.627453%,84.313726%,48.235294%);fill-opacity:1;" d="M 58.730469 11.648438 C 59.84375 12.402344 60.578125 13.484375 61 14.75 C 61.304688 19.46875 61.304688 19.46875 60 21.25 C 59.03125 22.347656 57.925781 22.886719 56.472656 23.0625 C 55.027344 23.140625 53.9375 22.84375 52.75 22 C 51.597656 20.933594 50.996094 19.777344 50.917969 18.214844 C 50.910156 17.824219 50.90625 17.433594 50.90625 17.046875 C 50.898438 16.757812 50.898438 16.757812 50.886719 16.464844 C 50.878906 14.78125 51.308594 13.449219 52.507812 12.234375 C 52.675781 12.121094 52.84375 12.007812 53.015625 11.890625 C 53.183594 11.773438 53.351562 11.65625 53.523438 11.53125 C 55.171875 10.554688 57.074219 10.839844 58.730469 11.648438 Z M 58.730469 11.648438 "/>
<path style=" stroke:none;fill-rule:nonzero;fill:rgb(68.235296%,46.27451%,26.666668%);fill-opacity:1;" d="M 54.25 36.648438 C 55.46875 37.5 56.675781 38.765625 57 40.25 C 57.125 42.25 57.125 42.25 56.75 43 C 56.5 43 56.253906 43 56 43 C 56 42.667969 56 42.339844 56 42 C 55.339844 42 54.679688 42 54 42 C 54 42.328125 54 42.660156 54 43 C 53.355469 42.910156 53.050781 42.800781 52.578125 42.34375 C 52.152344 41.574219 52.085938 40.871094 52 40 C 51.339844 40 50.679688 40 50 40 C 50.355469 41.660156 50.730469 43.386719 52.109375 44.484375 C 52.742188 44.746094 53.328125 44.875 54 45 C 54.085938 46.847656 54.113281 47.996094 52.875 49.4375 C 52.277344 49.9375 51.699219 50.007812 50.9375 50.109375 C 49.703125 49.964844 49.050781 49.429688 48.25 48.5 C 47.90625 47.46875 47.925781 46.488281 47.90625 45.40625 C 47.898438 45.195312 47.886719 44.980469 47.878906 44.761719 C 47.863281 43.601562 47.875 43.15625 48.632812 42.222656 C 48.835938 42.066406 49.039062 41.910156 49.25 41.75 C 49.085938 41.253906 48.917969 40.757812 48.75 40.25 C 47.328125 40.910156 47.328125 40.910156 46.515625 42.1875 C 46.429688 42.453125 46.339844 42.722656 46.25 43 C 45.917969 43 45.589844 43 45.25 43 C 44.75 41.996094 44.847656 40.78125 45.152344 39.71875 C 45.84375 38.160156 47.066406 36.964844 48.589844 36.207031 C 50.421875 35.632812 52.542969 35.765625 54.25 36.648438 Z M 54.25 36.648438 "/>
<path style=" stroke:none;fill-rule:nonzero;fill:rgb(98.431373%,50.196081%,42.352942%);fill-opacity:1;" d="M 9.5 21.5 C 9.835938 21.996094 10.171875 22.496094 10.5 23 C 11.355469 23.710938 12.101562 23.886719 13.21875 23.835938 C 14.335938 23.652344 15.347656 23.214844 16.097656 22.351562 C 16.40625 21.902344 16.40625 21.902344 16.75 21.25 C 18.261719 21.328125 19.359375 22.0625 20.5 23 C 20.828125 23.414062 21.160156 23.824219 21.5 24.25 C 20.632812 26.105469 20.632812 26.105469 19.75 28 C 14.222656 28 8.695312 28 3 28 C 3.597656 25.316406 4.5 23.589844 6.789062 22.03125 C 8.507812 20.988281 8.507812 20.988281 9.5 21.5 Z M 9.5 21.5 "/>
<path style=" stroke:none;fill-rule:nonzero;fill:rgb(38.431373%,41.568628%,45.882353%);fill-opacity:1;" d="M 15.515625 3.476562 C 17.132812 4.390625 18.492188 5.671875 19 7.5 C 19.070312 8.34375 19.0625 9.15625 19 10 C 18.671875 10 18.339844 10 18 10 C 18 9.667969 18 9.339844 18 9 C 17.339844 9 16.679688 9 16 9 C 16 9.328125 16 9.660156 16 10 C 15.355469 9.914062 15.050781 9.800781 14.578125 9.34375 C 14.152344 8.574219 14.082031 7.871094 14 7 C 13.421875 7.082031 12.847656 7.164062 12.25 7.25 C 12.59375 9.644531 12.59375 9.644531 14.09375 11.4375 C 14.742188 11.746094 15.296875 11.875 16 12 C 16.085938 13.847656 16.113281 14.996094 14.875 16.4375 C 14.277344 16.9375 13.699219 17.007812 12.9375 17.109375 C 11.703125 16.964844 11.050781 16.429688 10.25 15.5 C 9.90625 14.46875 9.921875 13.488281 9.90625 12.40625 C 9.894531 12.195312 9.890625 11.980469 9.878906 11.761719 C 9.859375 10.601562 9.875 10.15625 10.632812 9.226562 C 10.835938 9.066406 11.039062 8.914062 11.25 8.75 C 11.085938 8.253906 10.921875 7.757812 10.75 7.25 C 9.332031 7.914062 9.332031 7.914062 8.515625 9.1875 C 8.429688 9.453125 8.339844 9.726562 8.25 10 C 7.839844 10 7.425781 10 7 10 C 6.875 8.273438 6.933594 6.917969 8 5.5 C 10.128906 3.257812 12.503906 2.167969 15.515625 3.476562 Z M 15.515625 3.476562 "/>
<path style=" stroke:none;fill-rule:nonzero;fill:rgb(0%,0%,0%);fill-opacity:1;" d="M 31 47 C 31.660156 47 32.320312 47 33 47 C 33 47.414062 33 47.414062 33.003906 47.828125 C 33.011719 48.195312 33.019531 48.558594 33.03125 48.921875 C 33.03125 49.101562 33.03125 49.28125 33.03125 49.46875 C 33.0625 50.515625 33.0625 50.515625 33.589844 51.390625 C 33.960938 51.695312 34.355469 51.976562 34.75 52.25 C 35.214844 53.179688 35.140625 54.234375 35 55.25 C 34.582031 56.03125 34.050781 56.597656 33.25 57 C 32.226562 57.128906 31.191406 57.234375 30.261719 56.738281 C 29.726562 56.296875 29.3125 55.871094 29 55.25 C 25.039062 55.167969 21.078125 55.085938 17 55 C 17 54.339844 17 53.679688 17 53 C 17.222656 53 17.222656 53 17.449219 53 C 18.984375 53 20.519531 52.992188 22.058594 52.976562 C 22.632812 52.96875 23.203125 52.96875 23.777344 52.96875 C 24.601562 52.96875 25.425781 52.960938 26.253906 52.949219 C 26.636719 52.953125 26.636719 52.953125 27.03125 52.957031 C 28.316406 52.964844 28.316406 52.964844 29.429688 52.414062 C 29.8125 51.960938 29.8125 51.960938 30.25 51.25 C 30.414062 51.167969 30.578125 51.085938 30.75 51 C 30.828125 50.324219 30.878906 49.664062 30.90625 48.984375 C 30.914062 48.796875 30.925781 48.605469 30.933594 48.410156 C 30.960938 47.941406 30.980469 47.46875 31 47 Z M 31 47 "/>
<path style=" stroke:none;fill-rule:nonzero;fill:rgb(0%,0%,0%);fill-opacity:1;" d="M 33.25 7 C 34.03125 7.417969 34.597656 7.949219 35 8.75 C 38.960938 8.832031 42.921875 8.914062 47 9 C 47 9.660156 47 10.320312 47 11 C 46.777344 11 46.777344 11 46.550781 11 C 45.015625 11 43.480469 11.007812 41.941406 11.023438 C 41.367188 11.03125 40.796875 11.03125 40.222656 11.03125 C 39.398438 11.03125 38.574219 11.039062 37.746094 11.050781 C 37.363281 11.046875 37.363281 11.046875 36.96875 11.042969 C 35.683594 11.035156 35.683594 11.035156 34.570312 11.585938 C 34.1875 12.039062 34.1875 12.039062 33.75 12.75 C 33.585938 12.832031 33.421875 12.914062 33.25 13 C 33.171875 13.675781 33.121094 14.335938 33.09375 15.015625 C 33.085938 15.203125 33.074219 15.394531 33.066406 15.589844 C 33.039062 16.058594 33.019531 16.53125 33 17 C 32.339844 17 31.679688 17 31 17 C 31 16.726562 30.996094 16.453125 30.996094 16.171875 C 30.988281 15.804688 30.980469 15.441406 30.96875 15.078125 C 30.96875 14.898438 30.96875 14.71875 30.96875 14.53125 C 30.9375 13.484375 30.9375 13.484375 30.410156 12.609375 C 30.039062 12.304688 29.644531 12.023438 29.25 11.75 C 28.785156 10.820312 28.859375 9.765625 29 8.75 C 29.957031 6.960938 31.371094 6.734375 33.25 7 Z M 33.25 7 "/>
<path style=" stroke:none;fill-rule:nonzero;fill:rgb(92.54902%,80.392158%,69.411767%);fill-opacity:1;" d="M 49.25 41 C 49.496094 41 49.746094 41 50 41 C 50.09375 41.207031 50.1875 41.414062 50.285156 41.628906 C 50.414062 41.902344 50.539062 42.171875 50.671875 42.453125 C 50.796875 42.722656 50.921875 42.992188 51.050781 43.269531 C 51.679688 44.292969 52.300781 44.640625 53.453125 44.921875 C 53.632812 44.949219 53.816406 44.972656 54 45 C 54.085938 46.847656 54.113281 47.996094 52.875 49.4375 C 52.273438 49.9375 51.699219 50.007812 50.9375 50.109375 C 49.703125 49.964844 49.050781 49.429688 48.25 48.5 C 47.90625 47.464844 47.925781 46.488281 47.90625 45.40625 C 47.898438 45.191406 47.886719 44.980469 47.878906 44.761719 C 47.855469 43.167969 47.855469 43.167969 48.628906 42.273438 C 48.835938 42.101562 49.039062 41.925781 49.25 41.75 C 49.25 41.503906 49.25 41.253906 49.25 41 Z M 49.25 41 "/>
<path style=" stroke:none;fill-rule:nonzero;fill:rgb(92.54902%,80.392158%,69.411767%);fill-opacity:1;" d="M 11.25 8 C 11.496094 8 11.746094 8 12 8 C 12.09375 8.207031 12.1875 8.414062 12.285156 8.628906 C 12.414062 8.902344 12.539062 9.171875 12.671875 9.453125 C 12.796875 9.722656 12.921875 9.992188 13.050781 10.269531 C 13.679688 11.292969 14.300781 11.640625 15.453125 11.921875 C 15.632812 11.949219 15.816406 11.972656 16 12 C 16.085938 13.847656 16.113281 14.996094 14.875 16.4375 C 14.273438 16.9375 13.699219 17.007812 12.9375 17.109375 C 11.703125 16.964844 11.050781 16.429688 10.25 15.5 C 9.90625 14.464844 9.925781 13.488281 9.90625 12.40625 C 9.898438 12.191406 9.886719 11.980469 9.878906 11.761719 C 9.855469 10.167969 9.855469 10.167969 10.628906 9.273438 C 10.835938 9.101562 11.039062 8.925781 11.25 8.75 C 11.25 8.503906 11.25 8.253906 11.25 8 Z M 11.25 8 "/>
<path style=" stroke:none;fill-rule:nonzero;fill:rgb(1.568628%,1.960784%,0.784314%);fill-opacity:1;" d="M 8.75 51 C 9.773438 51.453125 10.425781 52.039062 11 53 C 11.167969 54.046875 11.238281 54.613281 10.679688 55.515625 C 10.308594 55.96875 9.949219 56.378906 9.5 56.75 C 9.335938 56.75 9.171875 56.75 9 56.75 C 9 57.492188 9 58.234375 9 59 C 8.339844 59 7.679688 59 7 59 C 7 58.257812 7 57.515625 7 56.75 C 6.671875 56.585938 6.339844 56.421875 6 56.25 C 5.21875 55.515625 5.015625 55.101562 4.84375 54.03125 C 4.890625 52.941406 5.394531 52.359375 6.121094 51.585938 C 6.945312 50.851562 7.675781 50.925781 8.75 51 Z M 8.75 51 "/>
<path style=" stroke:none;fill-rule:nonzero;fill:rgb(1.568628%,1.960784%,0.784314%);fill-opacity:1;" d="M 56.75 13 C 57.773438 13.453125 58.425781 14.039062 59 15 C 59.167969 16.046875 59.238281 16.613281 58.679688 17.515625 C 58.308594 17.96875 57.949219 18.378906 57.5 18.75 C 57.335938 18.75 57.171875 18.75 57 18.75 C 57 19.492188 57 20.234375 57 21 C 56.339844 21 55.679688 21 55 21 C 55 20.257812 55 19.515625 55 18.75 C 54.671875 18.585938 54.339844 18.421875 54 18.25 C 53.21875 17.515625 53.015625 17.101562 52.84375 16.03125 C 52.890625 14.941406 53.394531 14.359375 54.121094 13.585938 C 54.945312 12.851562 55.675781 12.925781 56.75 13 Z M 56.75 13 "/>
<path style=" stroke:none;fill-rule:nonzero;fill:rgb(40.000001%,81.960785%,93.333334%);fill-opacity:1;" d="M 28.5 27 C 30.808594 27 33.121094 27 35.5 27 C 36 28.75 36 28.75 36 31 C 33.359375 31 30.71875 31 28 31 C 28 28.75 28 28.75 28.5 27 Z M 28.5 27 "/>
<path style=" stroke:none;fill-rule:nonzero;fill:rgb(40.784314%,83.137256%,94.901961%);fill-opacity:1;" d="M 28 33 C 30.640625 33 33.28125 33 36 33 C 35.75 36.25 35.75 36.25 35.5 37 C 33.191406 37 30.878906 37 28.5 37 C 28 34.25 28 34.25 28 33 Z M 28 33 "/>
<path style=" stroke:none;fill-rule:nonzero;fill:rgb(96.078432%,81.960785%,42.352942%);fill-opacity:1;" d="M 55.5 54.5 C 57.195312 54.738281 58.363281 55.761719 59.460938 57.039062 C 60.449219 58.417969 60.59375 59.179688 61 61 C 58.9375 61 56.875 61 54.75 61 C 55.03125 57.625 55.03125 57.625 55.265625 56.0625 C 55.308594 55.765625 55.355469 55.46875 55.398438 55.160156 C 55.433594 54.941406 55.464844 54.726562 55.5 54.5 Z M 55.5 54.5 "/>
<path style=" stroke:none;fill-rule:nonzero;fill:rgb(95.686275%,81.568629%,42.352942%);fill-opacity:1;" d="M 46.5 54.5 C 46.628906 55.347656 46.75 56.199219 46.875 57.046875 C 46.910156 57.289062 46.949219 57.527344 46.984375 57.773438 C 47.015625 58.007812 47.050781 58.238281 47.085938 58.480469 C 47.132812 58.800781 47.132812 58.800781 47.179688 59.125 C 47.25 59.75 47.25 59.75 47.25 61 C 45.1875 61 43.125 61 41 61 C 41.609375 58.261719 42.519531 56.613281 44.824219 55.015625 C 45.46875 54.613281 45.71875 54.5 46.5 54.5 Z M 46.5 54.5 "/>
<path style=" stroke:none;fill-rule:nonzero;fill:rgb(40.000001%,81.568629%,92.941177%);fill-opacity:1;" d="M 37.75 27 C 39.070312 27 40.390625 27 41.75 27 C 42.585938 28.507812 42.769531 29.15625 43 31 C 41.351562 31 39.699219 31 38 31 C 37.441406 29.886719 37.738281 28.195312 37.75 27 Z M 37.75 27 "/>
<path style=" stroke:none;fill-rule:nonzero;fill:rgb(40.000001%,81.568629%,93.333334%);fill-opacity:1;" d="M 38 33 C 39.648438 33 41.300781 33 43 33 C 42.769531 34.84375 42.585938 35.492188 41.75 37 C 40.347656 37 38.945312 37 37.5 37 C 37.664062 35.679688 37.828125 34.359375 38 33 Z M 38 33 "/>
<path style=" stroke:none;fill-rule:nonzero;fill:rgb(40.000001%,81.960785%,93.333334%);fill-opacity:1;" d="M 21 33 C 22.648438 33 24.300781 33 26 33 C 26.339844 34.359375 26.265625 35.601562 26.25 37 C 24.929688 37 23.609375 37 22.25 37 C 21.414062 35.492188 21.230469 34.84375 21 33 Z M 21 33 "/>
<path style=" stroke:none;fill-rule:nonzero;fill:rgb(40.392157%,82.352942%,94.117647%);fill-opacity:1;" d="M 22.25 27 C 23.570312 27 24.890625 27 26.25 27 C 26.167969 28.320312 26.085938 29.640625 26 31 C 24.351562 31 22.699219 31 21 31 C 21.230469 29.15625 21.414062 28.507812 22.25 27 Z M 22.25 27 "/>
<path style=" stroke:none;fill-rule:nonzero;fill:rgb(40.000001%,81.568629%,93.333334%);fill-opacity:1;" d="M 33 21.25 C 33.921875 22.144531 34.511719 23.320312 35 24.5 C 35 24.664062 35 24.828125 35 25 C 33.019531 25 31.039062 25 29 25 C 29.566406 23.023438 29.566406 23.023438 30.25 22.15625 C 30.378906 21.988281 30.507812 21.824219 30.640625 21.648438 C 31.386719 20.824219 31.976562 20.960938 33 21.25 Z M 33 21.25 "/>
<path style=" stroke:none;fill-rule:nonzero;fill:rgb(40.392157%,82.352942%,93.725491%);fill-opacity:1;" d="M 29 39 C 30.980469 39 32.960938 39 35 39 C 33.789062 42.03125 33.789062 42.03125 33 42.75 C 32.265625 43.015625 32.265625 43.015625 31.5 43 C 30.035156 42.285156 29.558594 40.691406 29 39.25 C 29 39.167969 29 39.085938 29 39 Z M 29 39 "/>
<path style=" stroke:none;fill-rule:nonzero;fill:rgb(95.686275%,81.568629%,42.352942%);fill-opacity:1;" d="M 50.75 57.5 C 51.761719 57.902344 52.441406 58.625 53.1875 59.390625 C 53.316406 59.515625 53.441406 59.644531 53.574219 59.773438 C 54.5 60.714844 54.5 60.714844 54.5 61 C 52.191406 61 49.878906 61 47.5 61 C 49.1875 59.03125 49.1875 59.03125 49.96875 58.265625 C 50.191406 58.046875 50.191406 58.046875 50.421875 57.824219 C 50.53125 57.714844 50.636719 57.609375 50.75 57.5 Z M 50.75 57.5 "/>
<path style=" stroke:none;fill-rule:nonzero;fill:rgb(89.803922%,77.64706%,67.058825%);fill-opacity:1;" d="M 12.179688 18.726562 C 12.59375 18.730469 12.59375 18.730469 13.015625 18.734375 C 13.429688 18.738281 13.429688 18.738281 13.851562 18.742188 C 14.066406 18.742188 14.28125 18.75 14.5 18.75 C 14.878906 19.429688 15 19.710938 14.96875 20.515625 C 14.75 21.25 14.75 21.25 14.328125 21.71875 C 13.554688 22.09375 13.101562 22.136719 12.25 22 C 11.515625 21.484375 11.515625 21.484375 11 20.75 C 11.066406 18.765625 11.066406 18.765625 12.179688 18.726562 Z M 12.179688 18.726562 "/>
<path style=" stroke:none;fill-rule:nonzero;fill:rgb(38.82353%,41.960785%,45.882353%);fill-opacity:1;" d="M 17.5 16 C 17.996094 16 18.488281 16 19 16 C 19 17.238281 19 18.476562 19 19.75 C 17.886719 19.503906 17.886719 19.503906 16.75 19.25 C 16.496094 18.183594 16.429688 17.652344 16.890625 16.640625 C 17.09375 16.429688 17.292969 16.21875 17.5 16 Z M 17.5 16 "/>
<path style=" stroke:none;fill-rule:nonzero;fill:rgb(38.82353%,41.568628%,45.882353%);fill-opacity:1;" d="M 7 16 C 7.496094 16 7.988281 16 8.5 16 C 9.109375 16.640625 9.109375 16.640625 9.5 17.5 C 9.4375 18.46875 9.4375 18.46875 9.25 19.25 C 8.507812 19.414062 7.765625 19.578125 7 19.75 C 7 18.511719 7 17.273438 7 16 Z M 7 16 "/>
<path style=" stroke:none;fill-rule:nonzero;fill:rgb(38.82353%,79.215688%,90.196079%);fill-opacity:1;" d="M 37 39 C 38.074219 39 39.144531 39 40.25 39 C 39.738281 40.023438 39.46875 40.28125 38.5625 40.90625 C 38.246094 41.128906 38.246094 41.128906 37.925781 41.351562 C 37.25 41.75 37.25 41.75 35.75 42.25 C 36.164062 41.175781 36.574219 40.105469 37 39 Z M 37 39 "/>
<path style=" stroke:none;fill-rule:nonzero;fill:rgb(38.82353%,79.215688%,90.588236%);fill-opacity:1;" d="M 23.75 39 C 24.824219 39 25.894531 39 27 39 C 27.414062 40.074219 27.824219 41.144531 28.25 42.25 C 26.996094 41.832031 26.324219 41.519531 25.296875 40.765625 C 25.058594 40.59375 24.820312 40.421875 24.574219 40.242188 C 24 39.75 24 39.75 23.75 39 Z M 23.75 39 "/>
<path style=" stroke:none;fill-rule:nonzero;fill:rgb(39.215687%,79.607844%,90.980393%);fill-opacity:1;" d="M 27.75 21.75 C 27.914062 21.832031 28.078125 21.914062 28.25 22 C 27.835938 22.988281 27.425781 23.980469 27 25 C 25.84375 25 24.691406 25 23.5 25 C 24.347656 23.941406 24.800781 23.484375 25.90625 22.8125 C 26.148438 22.664062 26.386719 22.515625 26.636719 22.363281 C 27 22.148438 27.371094 21.941406 27.75 21.75 Z M 27.75 21.75 "/>
<path style=" stroke:none;fill-rule:nonzero;fill:rgb(39.215687%,80.000001%,91.37255%);fill-opacity:1;" d="M 35.75 21.75 C 37.003906 22.167969 37.675781 22.480469 38.703125 23.234375 C 38.941406 23.40625 39.179688 23.578125 39.425781 23.757812 C 40 24.25 40 24.25 40.25 25 C 39.175781 25 38.105469 25 37 25 C 36.585938 23.925781 36.175781 22.855469 35.75 21.75 Z M 35.75 21.75 "/>
<path style=" stroke:none;fill-rule:nonzero;fill:rgb(89.803922%,77.64706%,67.450982%);fill-opacity:1;" d="M 49.5 51.75 C 50.488281 51.75 51.480469 51.75 52.5 51.75 C 52.582031 52.164062 52.664062 52.574219 52.75 53 C 52.449219 53.449219 52.449219 53.449219 52.015625 53.828125 C 51.875 53.953125 51.734375 54.085938 51.585938 54.214844 C 51.476562 54.308594 51.363281 54.402344 51.25 54.5 C 50.40625 54.140625 49.8125 53.730469 49.25 53 C 49.332031 52.585938 49.414062 52.175781 49.5 51.75 Z M 49.5 51.75 "/>
<path style=" stroke:none;fill-rule:nonzero;fill:rgb(93.333334%,47.450981%,40.000001%);fill-opacity:1;" d="M 31.5 53 C 32.15625 53.09375 32.15625 53.09375 32.75 53.25 C 32.90625 53.84375 32.90625 53.84375 33 54.5 C 32.835938 54.664062 32.671875 54.828125 32.5 55 C 31.84375 54.90625 31.84375 54.90625 31.25 54.75 C 31.09375 54.15625 31.09375 54.15625 31 53.5 C 31.164062 53.335938 31.328125 53.171875 31.5 53 Z M 31.5 53 "/>
<path style=" stroke:none;fill-rule:nonzero;fill:rgb(92.156863%,78.823531%,40.784314%);fill-opacity:1;" d="M 7.5 53 C 8.15625 53.09375 8.15625 53.09375 8.75 53.25 C 8.90625 53.84375 8.90625 53.84375 9 54.5 C 8.835938 54.664062 8.671875 54.828125 8.5 55 C 7.84375 54.90625 7.84375 54.90625 7.25 54.75 C 7.09375 54.15625 7.09375 54.15625 7 53.5 C 7.164062 53.335938 7.328125 53.171875 7.5 53 Z M 7.5 53 "/>
<path style=" stroke:none;fill-rule:nonzero;fill:rgb(92.156863%,78.823531%,40.784314%);fill-opacity:1;" d="M 55.5 15 C 56.15625 15.09375 56.15625 15.09375 56.75 15.25 C 56.90625 15.84375 56.90625 15.84375 57 16.5 C 56.835938 16.664062 56.671875 16.828125 56.5 17 C 55.84375 16.90625 55.84375 16.90625 55.25 16.75 C 55.09375 16.15625 55.09375 16.15625 55 15.5 C 55.164062 15.335938 55.328125 15.171875 55.5 15 Z M 55.5 15 "/>
<path style=" stroke:none;fill-rule:nonzero;fill:rgb(93.333334%,47.450981%,40.000001%);fill-opacity:1;" d="M 31.5 9 C 32.15625 9.09375 32.15625 9.09375 32.75 9.25 C 32.90625 9.84375 32.90625 9.84375 33 10.5 C 32.835938 10.664062 32.671875 10.828125 32.5 11 C 31.84375 10.90625 31.84375 10.90625 31.25 10.75 C 31.09375 10.15625 31.09375 10.15625 31 9.5 C 31.164062 9.335938 31.328125 9.171875 31.5 9 Z M 31.5 9 "/>
<path style=" stroke:none;fill-rule:nonzero;fill:rgb(87.843138%,76.078433%,65.882355%);fill-opacity:1;" d="M 56 45 C 56.496094 45.246094 56.496094 45.246094 57 45.5 C 56.917969 45.914062 56.835938 46.324219 56.75 46.75 C 56.503906 46.832031 56.253906 46.914062 56 47 C 56 46.339844 56 45.679688 56 45 Z M 56 45 "/>
<path style=" stroke:none;fill-rule:nonzero;fill:rgb(87.843138%,76.078433%,65.882355%);fill-opacity:1;" d="M 45.5 45 C 45.664062 45 45.828125 45 46 45 C 46 45.660156 46 46.320312 46 47 C 45.671875 46.835938 45.339844 46.671875 45 46.5 C 45.21875 45.28125 45.21875 45.28125 45.5 45 Z M 45.5 45 "/>
<path style=" stroke:none;fill-rule:nonzero;fill:rgb(87.843138%,76.078433%,65.882355%);fill-opacity:1;" d="M 18 12 C 18.496094 12.246094 18.496094 12.246094 19 12.5 C 18.917969 12.914062 18.835938 13.324219 18.75 13.75 C 18.503906 13.832031 18.253906 13.914062 18 14 C 18 13.339844 18 12.679688 18 12 Z M 18 12 "/>
<path style=" stroke:none;fill-rule:nonzero;fill:rgb(87.843138%,76.078433%,65.882355%);fill-opacity:1;" d="M 7.5 12 C 7.664062 12 7.828125 12 8 12 C 8 12.660156 8 13.320312 8 14 C 7.671875 13.835938 7.339844 13.671875 7 13.5 C 7.21875 12.28125 7.21875 12.28125 7.5 12 Z M 7.5 12 "/>
<path style=" stroke:none;fill-rule:nonzero;fill:rgb(81.176472%,63.529414%,12.941177%);fill-opacity:1;" d="M 53.25 55 C 53.332031 55 53.414062 55 53.5 55 C 53.5 55.578125 53.5 56.15625 53.5 56.75 C 53.171875 56.585938 52.839844 56.421875 52.5 56.25 C 52.96875 55.28125 52.96875 55.28125 53.25 55 Z M 53.25 55 "/>
<path style=" stroke:none;fill-rule:nonzero;fill:rgb(81.568629%,63.529414%,12.941177%);fill-opacity:1;" d="M 48.5 55 C 48.828125 55.246094 49.160156 55.496094 49.5 55.75 C 49.335938 56.078125 49.171875 56.410156 49 56.75 C 48.835938 56.75 48.671875 56.75 48.5 56.75 C 48.5 56.171875 48.5 55.59375 48.5 55 Z M 48.5 55 "/>
</g>
</svg>
