<?xml version="1.0" encoding="UTF-8"?>
<svg xmlns="http://www.w3.org/2000/svg" xmlns:xlink="http://www.w3.org/1999/xlink" width="64" height="64" viewBox="0 0 64 64" version="1.1">
<g id="surface1">
<path style=" stroke:none;fill-rule:nonzero;fill:rgb(6.27451%,12.156863%,17.647059%);fill-opacity:1;" d="M 37.070312 1.125 C 37.246094 1.121094 37.425781 1.121094 37.605469 1.121094 C 38.183594 1.117188 38.757812 1.121094 39.335938 1.128906 C 39.738281 1.128906 40.140625 1.125 40.546875 1.125 C 41.390625 1.125 42.234375 1.128906 43.078125 1.132812 C 44.15625 1.140625 45.238281 1.140625 46.316406 1.136719 C 47.148438 1.132812 47.980469 1.136719 48.8125 1.140625 C 49.210938 1.140625 49.609375 1.140625 50.007812 1.140625 C 50.5625 1.140625 51.121094 1.144531 51.679688 1.148438 C 51.996094 1.148438 52.3125 1.152344 52.636719 1.152344 C 53.585938 1.257812 54.1875 1.503906 55 2 C 55.910156 3.195312 56.03125 4.390625 56.027344 5.855469 C 56.027344 6.125 56.027344 6.390625 56.027344 6.660156 C 56.027344 6.945312 56.027344 7.230469 56.023438 7.519531 C 56.023438 7.960938 56.023438 7.960938 56.023438 8.40625 C 56.023438 9.339844 56.019531 10.273438 56.015625 11.203125 C 56.015625 11.835938 56.015625 12.46875 56.011719 13.101562 C 56.007812 14.648438 56.003906 16.199219 56 17.75 C 56.230469 17.742188 56.460938 17.730469 56.703125 17.722656 C 57.757812 17.757812 58.191406 18.082031 59 18.75 C 60.339844 20.183594 60.132812 21.757812 60.113281 23.632812 C 60.113281 23.976562 60.113281 24.320312 60.113281 24.667969 C 60.113281 25.601562 60.109375 26.535156 60.101562 27.46875 C 60.09375 28.445312 60.09375 29.425781 60.09375 30.398438 C 60.089844 32.25 60.082031 34.097656 60.070312 35.945312 C 60.0625 38.050781 60.054688 40.15625 60.050781 42.261719 C 60.039062 46.59375 60.023438 50.917969 60 55.25 C 60.273438 55.238281 60.546875 55.226562 60.828125 55.214844 C 61.75 55.25 61.75 55.25 62.46875 55.8125 C 63.273438 56.851562 63.289062 57.691406 63.296875 58.984375 C 63.300781 59.238281 63.304688 59.496094 63.308594 59.757812 C 63.222656 60.84375 63.003906 61.480469 62.253906 62.28125 C 61.195312 62.941406 60.339844 62.890625 59.121094 62.878906 C 58.875 62.878906 58.636719 62.878906 58.386719 62.882812 C 57.578125 62.882812 56.773438 62.882812 55.960938 62.878906 C 55.382812 62.878906 54.804688 62.882812 54.222656 62.882812 C 52.648438 62.890625 51.074219 62.886719 49.5 62.882812 C 47.855469 62.882812 46.207031 62.882812 44.5625 62.882812 C 41.621094 62.886719 38.675781 62.882812 35.734375 62.878906 C 33.066406 62.875 30.402344 62.875 27.734375 62.878906 C 24.632812 62.882812 21.535156 62.886719 18.4375 62.882812 C 16.800781 62.882812 15.160156 62.882812 13.519531 62.886719 C 11.980469 62.890625 10.4375 62.886719 8.898438 62.882812 C 8.328125 62.878906 7.765625 62.878906 7.195312 62.882812 C 6.425781 62.882812 5.652344 62.882812 4.882812 62.878906 C 4.65625 62.878906 4.433594 62.882812 4.199219 62.882812 C 3.171875 62.871094 2.636719 62.835938 1.746094 62.28125 C 0.570312 61.023438 0.660156 59.667969 0.6875 58.027344 C 0.761719 57.109375 0.957031 56.496094 1.5 55.75 C 2.359375 55.175781 2.746094 55.203125 3.75 55.25 C 3.75 55.074219 3.75 54.898438 3.746094 54.71875 C 3.730469 50.46875 3.71875 46.210938 3.710938 41.957031 C 3.707031 39.898438 3.703125 37.84375 3.695312 35.785156 C 3.6875 33.988281 3.683594 32.195312 3.679688 30.402344 C 3.679688 29.453125 3.675781 28.503906 3.671875 27.554688 C 3.667969 26.660156 3.664062 25.765625 3.664062 24.871094 C 3.664062 24.386719 3.660156 23.90625 3.65625 23.421875 C 3.660156 21.769531 3.765625 20.492188 4.5 19 C 5.597656 17.933594 6.441406 17.71875 7.9375 17.722656 C 8.21875 17.726562 8.5 17.726562 8.785156 17.726562 C 9.078125 17.730469 9.371094 17.730469 9.671875 17.734375 C 9.964844 17.734375 10.261719 17.738281 10.5625 17.738281 C 11.292969 17.738281 12.023438 17.746094 12.75 17.75 C 12.746094 17.550781 12.738281 17.351562 12.730469 17.148438 C 12.703125 16.234375 12.6875 15.320312 12.671875 14.40625 C 12.660156 14.09375 12.652344 13.78125 12.640625 13.457031 C 12.613281 11.226562 12.898438 9.472656 14.425781 7.773438 C 15.773438 6.488281 17.253906 5.972656 19.09375 5.890625 C 20.972656 5.953125 22.5625 6.515625 23.96875 7.78125 C 25.753906 9.828125 25.886719 12.035156 25.8125 14.65625 C 25.792969 15.675781 25.773438 16.695312 25.75 17.75 C 28.140625 17.75 30.535156 17.75 33 17.75 C 32.992188 16.757812 32.980469 15.765625 32.972656 14.738281 C 32.964844 13.777344 32.964844 12.816406 32.960938 11.851562 C 32.953125 11.183594 32.949219 10.515625 32.945312 9.84375 C 32.933594 8.882812 32.929688 7.921875 32.925781 6.960938 C 32.921875 6.660156 32.917969 6.363281 32.914062 6.054688 C 32.914062 3.351562 32.914062 3.351562 33.75 2.25 C 34.882812 1.347656 35.632812 1.125 37.070312 1.125 Z M 35.25 4 C 35.175781 4.578125 35.175781 4.578125 35.1875 5.261719 C 35.183594 5.53125 35.183594 5.796875 35.183594 6.070312 C 35.183594 6.367188 35.183594 6.660156 35.183594 6.964844 C 35.183594 7.273438 35.183594 7.582031 35.183594 7.898438 C 35.183594 8.746094 35.183594 9.597656 35.183594 10.445312 C 35.183594 11.332031 35.183594 12.21875 35.183594 13.105469 C 35.183594 14.597656 35.183594 16.085938 35.183594 17.574219 C 35.1875 19.300781 35.1875 21.023438 35.183594 22.746094 C 35.183594 24.222656 35.183594 25.703125 35.183594 27.183594 C 35.183594 28.066406 35.183594 28.949219 35.183594 29.832031 C 35.179688 30.816406 35.183594 31.800781 35.183594 32.785156 C 35.183594 33.082031 35.183594 33.375 35.183594 33.679688 C 35.183594 33.945312 35.183594 34.210938 35.1875 34.488281 C 35.1875 34.722656 35.1875 34.953125 35.1875 35.195312 C 35.195312 35.800781 35.195312 35.800781 35.75 36.25 C 36.503906 36.328125 36.503906 36.328125 37.402344 36.320312 C 37.574219 36.320312 37.746094 36.320312 37.917969 36.320312 C 38.484375 36.328125 39.046875 36.324219 39.609375 36.324219 C 40 36.328125 40.390625 36.328125 40.78125 36.328125 C 41.597656 36.328125 42.417969 36.328125 43.238281 36.328125 C 44.285156 36.328125 45.339844 36.332031 46.390625 36.335938 C 47.195312 36.34375 48 36.34375 48.808594 36.339844 C 49.195312 36.339844 49.585938 36.34375 49.972656 36.34375 C 50.511719 36.347656 51.054688 36.347656 51.59375 36.34375 C 51.902344 36.34375 52.210938 36.34375 52.527344 36.34375 C 52.765625 36.3125 53.003906 36.28125 53.25 36.25 C 53.800781 35.425781 53.8125 35.183594 53.8125 34.230469 C 53.8125 33.964844 53.816406 33.703125 53.816406 33.433594 C 53.816406 33.144531 53.816406 32.855469 53.8125 32.558594 C 53.816406 32.253906 53.816406 31.949219 53.816406 31.636719 C 53.820312 30.804688 53.820312 29.972656 53.816406 29.140625 C 53.816406 28.265625 53.816406 27.394531 53.816406 26.523438 C 53.820312 25.058594 53.816406 23.597656 53.8125 22.132812 C 53.8125 20.441406 53.8125 18.746094 53.816406 17.054688 C 53.820312 15.601562 53.820312 14.148438 53.816406 12.695312 C 53.816406 11.828125 53.816406 10.960938 53.820312 10.09375 C 53.820312 9.128906 53.816406 8.160156 53.8125 7.191406 C 53.816406 6.90625 53.816406 6.613281 53.816406 6.316406 C 53.816406 6.054688 53.8125 5.792969 53.8125 5.523438 C 53.8125 5.292969 53.8125 5.066406 53.8125 4.828125 C 53.785156 4.183594 53.785156 4.183594 53.25 3.5 C 52.46875 3.410156 52.46875 3.410156 51.59375 3.453125 C 51.296875 3.460938 51 3.46875 50.695312 3.472656 C 50.347656 3.488281 50.347656 3.488281 50 3.5 C 49.972656 3.671875 49.953125 3.84375 49.925781 4.019531 C 49.890625 4.246094 49.851562 4.472656 49.8125 4.703125 C 49.777344 4.925781 49.742188 5.148438 49.707031 5.378906 C 49.441406 6.171875 49.222656 6.339844 48.5 6.75 C 47.855469 6.816406 47.269531 6.84375 46.625 6.832031 C 46.355469 6.832031 46.355469 6.832031 46.078125 6.828125 C 45.699219 6.828125 45.320312 6.824219 44.941406 6.820312 C 44.359375 6.8125 43.777344 6.808594 43.199219 6.808594 C 42.832031 6.808594 42.460938 6.804688 42.089844 6.800781 C 41.917969 6.800781 41.746094 6.800781 41.566406 6.796875 C 40.8125 6.785156 40.222656 6.742188 39.5 6.5 C 39.335938 5.507812 39.167969 4.519531 39 3.5 C 38.46875 3.488281 37.9375 3.476562 37.40625 3.46875 C 37.109375 3.460938 36.8125 3.457031 36.507812 3.453125 C 35.722656 3.417969 35.722656 3.417969 35.25 4 Z M 15.671875 9.828125 C 14.640625 11.46875 14.683594 13.105469 14.71875 14.984375 C 14.722656 15.226562 14.722656 15.46875 14.726562 15.71875 C 14.730469 16.3125 14.738281 16.90625 14.75 17.5 C 15.246094 17.335938 15.738281 17.167969 16.25 17 C 16.25 16.847656 16.253906 16.695312 16.257812 16.542969 C 16.273438 15.847656 16.292969 15.160156 16.3125 14.46875 C 16.316406 14.113281 16.316406 14.113281 16.324219 13.746094 C 16.375 12.269531 16.515625 11.378906 17.5 10.25 C 18.082031 9.960938 18.445312 9.960938 19.09375 9.953125 C 19.382812 9.945312 19.382812 9.945312 19.675781 9.941406 C 20.320312 10.007812 20.707031 10.152344 21.25 10.5 C 22.132812 11.824219 22.066406 13.28125 22.140625 14.828125 C 22.152344 15.035156 22.160156 15.246094 22.175781 15.460938 C 22.199219 15.972656 22.222656 16.488281 22.25 17 C 22.660156 17.164062 23.074219 17.328125 23.5 17.5 C 23.527344 16.542969 23.546875 15.585938 23.5625 14.625 C 23.570312 14.355469 23.578125 14.085938 23.585938 13.808594 C 23.613281 11.894531 23.40625 10.449219 22.050781 9.03125 C 19.75 7.621094 17.570312 7.925781 15.671875 9.828125 Z M 19 11.75 C 18.460938 12.191406 18.460938 12.191406 18.445312 12.71875 C 18.445312 12.90625 18.449219 13.09375 18.453125 13.28125 C 18.453125 13.484375 18.453125 13.6875 18.457031 13.894531 C 18.460938 14.105469 18.464844 14.316406 18.46875 14.53125 C 18.472656 14.746094 18.472656 14.957031 18.476562 15.175781 C 18.480469 15.699219 18.488281 16.222656 18.5 16.75 C 18.996094 16.75 19.488281 16.75 20 16.75 C 20 15.265625 20 13.78125 20 12.25 C 19.667969 12.085938 19.339844 11.917969 19 11.75 Z M 6.347656 20.417969 C 5.917969 21.140625 5.90625 21.582031 5.910156 22.417969 C 5.910156 22.710938 5.90625 23 5.90625 23.296875 C 5.910156 23.613281 5.910156 23.929688 5.914062 24.257812 C 5.914062 24.597656 5.914062 24.945312 5.914062 25.285156 C 5.914062 26.203125 5.917969 27.121094 5.925781 28.042969 C 5.929688 28.90625 5.929688 29.765625 5.929688 30.628906 C 5.933594 33.148438 5.945312 35.667969 5.953125 38.1875 C 5.96875 43.816406 5.984375 49.449219 6 55.25 C 23.078125 55.25 40.152344 55.25 57.75 55.25 C 57.765625 49.570312 57.78125 43.898438 57.796875 38.046875 C 57.804688 36.253906 57.8125 34.457031 57.816406 32.609375 C 57.820312 31.003906 57.820312 31.003906 57.820312 29.398438 C 57.820312 28.683594 57.824219 27.96875 57.828125 27.253906 C 57.835938 26.339844 57.835938 25.425781 57.835938 24.511719 C 57.835938 24.019531 57.839844 23.523438 57.84375 23.03125 C 57.839844 22.738281 57.839844 22.449219 57.839844 22.148438 C 57.839844 21.898438 57.839844 21.640625 57.839844 21.382812 C 57.796875 20.746094 57.796875 20.746094 57.433594 20.285156 C 56.945312 19.90625 56.945312 19.90625 56 20 C 55.996094 20.28125 55.996094 20.28125 55.996094 20.566406 C 55.972656 22.335938 55.953125 24.105469 55.929688 25.875 C 55.917969 26.785156 55.902344 27.691406 55.894531 28.601562 C 55.882812 29.480469 55.875 30.359375 55.859375 31.238281 C 55.855469 31.734375 55.847656 32.230469 55.84375 32.726562 C 55.820312 34.242188 55.777344 35.570312 55.25 37 C 55.167969 37.246094 55.085938 37.496094 55 37.75 C 53.886719 38.25 52.886719 38.316406 51.679688 38.320312 C 51.414062 38.324219 51.414062 38.324219 51.144531 38.328125 C 50.570312 38.332031 49.992188 38.335938 49.414062 38.335938 C 49.011719 38.335938 48.605469 38.335938 48.203125 38.339844 C 47.359375 38.34375 46.515625 38.34375 45.671875 38.34375 C 44.589844 38.34375 43.515625 38.347656 42.433594 38.355469 C 41.601562 38.363281 40.769531 38.363281 39.9375 38.363281 C 39.539062 38.363281 39.140625 38.367188 38.742188 38.371094 C 38.183594 38.378906 37.628906 38.375 37.070312 38.371094 C 36.753906 38.371094 36.4375 38.371094 36.113281 38.375 C 35.074219 38.222656 34.546875 37.929688 33.75 37.25 C 33.210938 36.3125 33.183594 35.460938 33.167969 34.390625 C 33.164062 34.070312 33.160156 33.75 33.152344 33.417969 C 33.152344 33.070312 33.148438 32.722656 33.148438 32.378906 C 33.140625 32.023438 33.136719 31.664062 33.132812 31.308594 C 33.121094 30.371094 33.109375 29.433594 33.097656 28.496094 C 33.089844 27.539062 33.078125 26.585938 33.0625 25.628906 C 33.039062 23.753906 33.019531 21.875 33 20 C 31.019531 20 29.039062 20 27 20 C 27.273438 20.4375 27.546875 20.878906 27.828125 21.328125 C 29.425781 24.078125 29.960938 26.789062 29.203125 29.90625 C 28.769531 31.34375 28.175781 32.839844 27.085938 33.90625 C 26.691406 34.230469 26.691406 34.230469 26.75 34.75 C 26.605469 34.816406 26.464844 34.882812 26.320312 34.953125 C 25.746094 35.238281 25.746094 35.238281 25.230469 35.597656 C 22.574219 37.378906 19.769531 37.757812 16.675781 37.214844 C 14.015625 36.597656 11.890625 35.097656 10.421875 32.796875 C 8.960938 30.148438 8.539062 27.398438 9.183594 24.40625 C 9.648438 22.890625 10.277344 21.742188 11.25 20.5 C 11.25 20.335938 11.25 20.167969 11.25 20 C 10.515625 19.972656 9.78125 19.953125 9.046875 19.9375 C 8.839844 19.929688 8.628906 19.917969 8.417969 19.910156 C 8.113281 19.90625 8.113281 19.90625 7.808594 19.902344 C 7.621094 19.898438 7.4375 19.890625 7.25 19.886719 C 6.714844 19.960938 6.714844 19.960938 6.347656 20.417969 Z M 6.347656 20.417969 "/>
<path style=" stroke:none;fill-rule:nonzero;fill:rgb(38.431373%,75.686276%,95.294118%);fill-opacity:1;" d="M 23.996094 20.007812 C 25.566406 20.984375 26.691406 22.617188 27.292969 24.34375 C 27.929688 27.140625 27.597656 29.585938 26.1875 32.042969 C 24.972656 33.875 23.09375 34.925781 21 35.5 C 18.210938 35.75 15.917969 35.464844 13.710938 33.683594 C 12.082031 32.160156 10.925781 30.238281 10.660156 28 C 10.585938 25.375 11.3125 23.273438 13 21.25 C 13.621094 20.660156 14.269531 20.195312 15 19.75 C 15.167969 19.648438 15.332031 19.542969 15.503906 19.4375 C 18.265625 17.96875 21.351562 18.640625 23.996094 20.007812 Z M 23.996094 20.007812 "/>
<path style=" stroke:none;fill-rule:nonzero;fill:rgb(92.156863%,38.82353%,37.64706%);fill-opacity:1;" d="M 3 57.25 C 22.140625 57.25 41.28125 57.25 61 57.25 C 61 58.324219 61 59.394531 61 60.5 C 60.527344 60.972656 59.84375 60.78125 59.214844 60.78125 C 58.988281 60.78125 58.765625 60.78125 58.539062 60.78125 C 58.304688 60.78125 58.070312 60.78125 57.828125 60.78125 C 57.035156 60.785156 56.238281 60.78125 55.449219 60.78125 C 54.878906 60.78125 54.316406 60.78125 53.75 60.78125 C 52.207031 60.785156 50.664062 60.785156 49.121094 60.78125 C 47.511719 60.78125 45.902344 60.78125 44.292969 60.785156 C 41.414062 60.785156 38.535156 60.78125 35.65625 60.78125 C 33.046875 60.78125 30.433594 60.78125 27.824219 60.78125 C 24.792969 60.785156 21.761719 60.785156 18.734375 60.78125 C 17.128906 60.78125 15.523438 60.78125 13.917969 60.785156 C 12.410156 60.785156 10.898438 60.785156 9.390625 60.78125 C 8.835938 60.78125 8.28125 60.78125 7.726562 60.78125 C 6.96875 60.785156 6.214844 60.78125 5.460938 60.78125 C 5.128906 60.78125 5.128906 60.78125 4.785156 60.78125 C 3.277344 60.777344 3.277344 60.777344 3 60.5 C 3 59.425781 3 58.355469 3 57.25 Z M 3 57.25 "/>
<path style=" stroke:none;fill-rule:nonzero;fill:rgb(5.882353%,11.764706%,17.254902%);fill-opacity:1;" d="M 49.25 12.5 C 49.40625 12.597656 49.558594 12.691406 49.71875 12.792969 C 50.140625 13.09375 50.140625 13.09375 50.75 13.75 C 50.859375 14.5625 50.859375 14.5625 50.75 15.25 C 50.5 15.5 50.5 15.5 49.8125 15.578125 C 48.804688 15.484375 48.515625 15.140625 47.75 14.5 C 46.339844 13.730469 45.050781 13.5625 43.5 14 C 41.890625 14.675781 40.992188 15.6875 40.25 17.25 C 40.046875 18.023438 39.957031 18.796875 39.875 19.59375 C 39.640625 21.414062 39.363281 23.386719 38 24.75 C 37.5 24.761719 37 24.761719 36.5 24.75 C 36.199219 23.765625 36.21875 23.210938 36.6875 22.328125 C 37.289062 21.125 37.425781 19.957031 37.59375 18.640625 C 37.925781 16.230469 38.527344 14.460938 40.484375 12.890625 C 40.816406 12.671875 41.15625 12.453125 41.5 12.25 C 41.753906 12.09375 42.003906 11.941406 42.265625 11.78125 C 44.484375 10.929688 47.273438 11.234375 49.25 12.5 Z M 49.25 12.5 "/>
<path style=" stroke:none;fill-rule:nonzero;fill:rgb(5.882353%,11.764706%,17.254902%);fill-opacity:1;" d="M 47.089844 15.003906 C 47.941406 15.519531 48.4375 15.90625 49 16.75 C 49.046875 17.53125 49.046875 17.53125 49 18.25 C 48.75 18.5 48.75 18.5 48.0625 18.59375 C 47.25 18.5 47.25 18.5 46.640625 17.875 C 46.039062 17.171875 46.039062 17.171875 45.109375 17.09375 C 44.230469 17.171875 44.230469 17.171875 43.710938 17.773438 C 43.15625 18.644531 43.085938 19.253906 43 20.28125 C 42.769531 22.503906 42.25 24.773438 40.75 26.5 C 40.0625 26.71875 40.0625 26.71875 39.5 26.75 C 39.09375 26.328125 39.09375 26.328125 38.75 25.75 C 38.910156 25.136719 39.171875 24.636719 39.484375 24.089844 C 40.285156 22.519531 40.5 20.9375 40.695312 19.207031 C 40.90625 17.582031 41.394531 16.546875 42.640625 15.421875 C 43.929688 14.527344 45.644531 14.382812 47.089844 15.003906 Z M 47.089844 15.003906 "/>
<path style=" stroke:none;fill-rule:nonzero;fill:rgb(7.450981%,14.117648%,20%);fill-opacity:1;" d="M 20 25.25 C 21.058594 25.648438 21.660156 26.039062 22.25 27 C 22.449219 28.089844 22.511719 29.253906 21.988281 30.253906 C 21.546875 30.789062 21.121094 31.191406 20.5 31.5 C 20.414062 32.082031 20.332031 32.667969 20.25 33.25 C 20.085938 33.414062 19.921875 33.578125 19.75 33.75 C 18.609375 33.609375 18.609375 33.609375 18.25 33.25 C 18.234375 32.855469 18.234375 32.855469 18.21875 32.453125 C 17.953125 31.296875 17.574219 31.015625 16.648438 30.339844 C 16.007812 29.792969 15.996094 29.238281 15.921875 28.421875 C 16.03125 27.128906 16.574219 26.457031 17.4375 25.53125 C 18.28125 25.109375 19.085938 25.121094 20 25.25 Z M 20 25.25 "/>
<path style=" stroke:none;fill-rule:nonzero;fill:rgb(5.882353%,11.764706%,17.254902%);fill-opacity:1;" d="M 41.25 41 C 41.664062 41.082031 42.074219 41.164062 42.5 41.25 C 42.582031 41.578125 42.664062 41.910156 42.75 42.25 C 42.996094 42.085938 43.246094 41.921875 43.5 41.75 C 44.140625 41.6875 44.140625 41.6875 44.75 41.75 C 44.914062 41.914062 45.078125 42.078125 45.25 42.25 C 45.21875 42.984375 45.21875 42.984375 45 43.75 C 44.484375 44.21875 44.484375 44.21875 44 44.5 C 44.210938 44.679688 44.421875 44.859375 44.640625 45.046875 C 45.25 45.75 45.25 45.75 45.21875 46.4375 C 45 47 45 47 44.75 47.25 C 44.164062 47.175781 43.582031 47.09375 43 47 C 42.902344 47.164062 42.804688 47.328125 42.703125 47.5 C 42.25 48 42.25 48 41.609375 48.109375 C 41.40625 48.074219 41.207031 48.039062 41 48 C 40.835938 47.753906 40.671875 47.503906 40.5 47.25 C 39.917969 47.238281 39.332031 47.238281 38.75 47.25 C 38.585938 47.085938 38.421875 46.921875 38.25 46.75 C 38.296875 45.90625 38.449219 45.558594 39.015625 44.921875 C 39.253906 44.710938 39.253906 44.710938 39.5 44.5 C 39.296875 44.359375 39.085938 44.222656 38.875 44.078125 C 38.25 43.5 38.25 43.5 38.140625 42.84375 C 38.25 42.25 38.25 42.25 38.75 41.75 C 39.445312 41.699219 39.871094 41.683594 40.5 42 C 40.746094 41.671875 40.996094 41.339844 41.25 41 Z M 41.25 41 "/>
<path style=" stroke:none;fill-rule:nonzero;fill:rgb(5.882353%,11.764706%,17.254902%);fill-opacity:1;" d="M 22.484375 41.0625 C 23.066406 41.273438 23.347656 41.539062 23.75 42 C 23.832031 41.917969 23.914062 41.835938 24 41.75 C 24.609375 41.703125 24.609375 41.703125 25.25 41.75 C 25.75 42.25 25.75 42.25 25.859375 42.84375 C 25.75 43.5 25.75 43.5 25.125 44.078125 C 24.816406 44.289062 24.816406 44.289062 24.5 44.5 C 24.710938 44.679688 24.921875 44.859375 25.140625 45.046875 C 25.75 45.75 25.75 45.75 25.71875 46.4375 C 25.5 47 25.5 47 25.25 47.25 C 24.96875 47.238281 24.683594 47.230469 24.390625 47.21875 C 23.949219 47.234375 23.949219 47.234375 23.5 47.25 C 23.335938 47.496094 23.167969 47.746094 23 48 C 22.390625 48.109375 22.390625 48.109375 21.75 48 C 21.296875 47.5 21.296875 47.5 21 47 C 20.722656 47.050781 20.441406 47.101562 20.15625 47.15625 C 19.855469 47.1875 19.558594 47.21875 19.25 47.25 C 19.085938 47.085938 18.917969 46.921875 18.75 46.75 C 18.792969 45.90625 18.945312 45.558594 19.515625 44.921875 C 19.753906 44.710938 19.753906 44.710938 20 44.5 C 19.789062 44.320312 19.578125 44.140625 19.359375 43.953125 C 18.75 43.25 18.75 43.25 18.78125 42.5625 C 19 42 19 42 19.25 41.75 C 20.179688 41.675781 20.445312 41.710938 21.25 42.25 C 21.28125 42.089844 21.3125 41.929688 21.34375 41.765625 C 21.394531 41.59375 21.445312 41.425781 21.5 41.25 C 22 41 22 41 22.484375 41.0625 Z M 22.484375 41.0625 "/>
<path style=" stroke:none;fill-rule:nonzero;fill:rgb(5.882353%,11.764706%,17.647059%);fill-opacity:1;" d="M 51 41 C 51.6875 41.0625 51.6875 41.0625 52.25 41.25 C 52.332031 41.578125 52.414062 41.910156 52.5 42.25 C 52.746094 42.085938 52.996094 41.921875 53.25 41.75 C 54.046875 41.84375 54.046875 41.84375 54.75 42 C 54.953125 42.53125 54.953125 42.53125 55 43.25 C 54.640625 43.824219 54.222656 44.253906 53.75 44.75 C 54.164062 45.164062 54.574219 45.574219 55 46 C 54.753906 46.617188 54.753906 46.617188 54.5 47.25 C 54 47.261719 53.5 47.261719 53 47.25 C 52.917969 47.167969 52.835938 47.085938 52.75 47 C 52.652344 47.164062 52.554688 47.328125 52.453125 47.5 C 52 48 52 48 51.328125 48.0625 C 51.136719 48.042969 50.949219 48.023438 50.75 48 C 50.585938 47.671875 50.421875 47.339844 50.25 47 C 50.085938 47.082031 49.921875 47.164062 49.75 47.25 C 49.25 47.261719 48.75 47.261719 48.25 47.25 C 48.046875 46.578125 48.046875 46.578125 48 45.75 C 48.609375 45.03125 48.609375 45.03125 49.25 44.5 C 49.046875 44.359375 48.835938 44.222656 48.625 44.078125 C 48 43.5 48 43.5 47.890625 42.84375 C 48 42.25 48 42.25 48.5 41.75 C 48.738281 41.800781 48.976562 41.851562 49.21875 41.90625 C 49.476562 41.9375 49.734375 41.96875 50 42 C 50.335938 41.671875 50.671875 41.335938 51 41 Z M 51 41 "/>
<path style=" stroke:none;fill-rule:nonzero;fill:rgb(5.882353%,11.764706%,17.254902%);fill-opacity:1;" d="M 13.5 41.25 C 13.664062 41.496094 13.828125 41.746094 14 42 C 14.355469 41.921875 14.355469 41.921875 14.71875 41.84375 C 14.976562 41.8125 15.234375 41.78125 15.5 41.75 C 16 42.25 16 42.25 16.109375 42.84375 C 16 43.5 16 43.5 15.375 44.078125 C 15.066406 44.289062 15.066406 44.289062 14.75 44.5 C 14.960938 44.675781 15.171875 44.851562 15.390625 45.03125 C 16 45.75 16 45.75 15.953125 46.578125 C 15.886719 46.800781 15.820312 47.023438 15.75 47.25 C 14.3125 47.28125 14.3125 47.28125 13.75 47 C 13.585938 47.328125 13.421875 47.660156 13.25 48 C 12.671875 48.0625 12.671875 48.0625 12 48 C 11.546875 47.5 11.546875 47.5 11.25 47 C 11.167969 47.082031 11.085938 47.164062 11 47.25 C 10.5 47.261719 10 47.261719 9.5 47.25 C 9.335938 46.835938 9.171875 46.425781 9 46 C 9.414062 45.503906 9.824219 45.011719 10.25 44.5 C 10.039062 44.320312 9.828125 44.140625 9.609375 43.953125 C 9 43.25 9 43.25 9.046875 42.546875 C 9.113281 42.367188 9.179688 42.183594 9.25 42 C 9.953125 41.84375 9.953125 41.84375 10.75 41.75 C 10.996094 41.914062 11.246094 42.078125 11.5 42.25 C 11.53125 42.089844 11.5625 41.929688 11.59375 41.765625 C 11.644531 41.59375 11.699219 41.425781 11.75 41.25 C 12.429688 40.910156 12.78125 41.035156 13.5 41.25 Z M 13.5 41.25 "/>
<path style=" stroke:none;fill-rule:nonzero;fill:rgb(5.882353%,11.764706%,17.647059%);fill-opacity:1;" d="M 31.75 41 C 32.40625 41.234375 32.40625 41.234375 33 41.5 C 33 41.746094 33 41.996094 33 42.25 C 33.246094 42.085938 33.496094 41.921875 33.75 41.75 C 34.546875 41.84375 34.546875 41.84375 35.25 42 C 35.453125 42.53125 35.453125 42.53125 35.5 43.25 C 35.140625 43.824219 34.722656 44.253906 34.25 44.75 C 34.460938 44.933594 34.671875 45.121094 34.890625 45.3125 C 35.5 46 35.5 46 35.46875 46.5625 C 35.25 47 35.25 47 35 47.25 C 34.25 47.28125 34.25 47.28125 33.5 47.25 C 33.417969 47.167969 33.335938 47.085938 33.25 47 C 33.167969 47.246094 33.085938 47.496094 33 47.75 C 31.5625 48.03125 31.5625 48.03125 31 47.75 C 30.917969 47.503906 30.835938 47.253906 30.75 47 C 30.667969 47.082031 30.585938 47.164062 30.5 47.25 C 29.765625 47.296875 29.765625 47.296875 29 47.25 C 28.835938 47.085938 28.671875 46.921875 28.5 46.75 C 28.546875 45.90625 28.699219 45.558594 29.265625 44.921875 C 29.503906 44.710938 29.503906 44.710938 29.75 44.5 C 29.539062 44.320312 29.328125 44.140625 29.109375 43.953125 C 28.5 43.25 28.5 43.25 28.546875 42.546875 C 28.613281 42.367188 28.679688 42.183594 28.75 42 C 29.453125 41.84375 29.453125 41.84375 30.25 41.75 C 30.496094 41.914062 30.746094 42.078125 31 42.25 C 31.03125 42.089844 31.0625 41.929688 31.09375 41.765625 C 31.144531 41.59375 31.199219 41.425781 31.25 41.25 C 31.414062 41.167969 31.578125 41.085938 31.75 41 Z M 31.75 41 "/>
<path style=" stroke:none;fill-rule:nonzero;fill:rgb(5.882353%,11.764706%,17.647059%);fill-opacity:1;" d="M 51.5 17.21875 C 52.25 17.25 52.25 17.25 52.5 17.5 C 52.734375 20.839844 52.5 24.4375 51 27.5 C 50.390625 27.75 50.390625 27.75 49.75 27.75 C 49.28125 27.5 49.28125 27.5 49 27 C 49.039062 26.148438 49.210938 25.394531 49.421875 24.570312 C 49.878906 22.703125 50.15625 20.871094 50.335938 18.957031 C 50.503906 17.261719 50.503906 17.261719 51.5 17.21875 Z M 51.5 17.21875 "/>
<path style=" stroke:none;fill-rule:nonzero;fill:rgb(5.882353%,11.764706%,17.647059%);fill-opacity:1;" d="M 45.40625 18.3125 C 45.601562 18.375 45.796875 18.4375 46 18.5 C 46.742188 19.984375 46.0625 22.210938 45.585938 23.730469 C 45.109375 25.15625 44.578125 26.488281 43.75 27.75 C 43.257812 27.75 42.757812 27.75 42.25 27.75 C 41.957031 27.222656 41.957031 27.222656 41.75 26.5 C 42.003906 25.761719 42.003906 25.761719 42.421875 24.9375 C 43.179688 23.363281 43.523438 21.859375 43.742188 20.128906 C 43.804688 19.664062 43.902344 19.207031 44 18.75 C 44.75 18.25 44.75 18.25 45.40625 18.3125 Z M 45.40625 18.3125 "/>
<path style=" stroke:none;fill-rule:nonzero;fill:rgb(5.882353%,11.764706%,17.254902%);fill-opacity:1;" d="M 49 20.5 C 49.617188 23.117188 48.289062 26.003906 47 28.25 C 46.40625 28.28125 46.40625 28.28125 45.75 28.25 C 45.585938 28.085938 45.421875 27.921875 45.25 27.75 C 45.34375 26.433594 45.703125 25.230469 46.109375 23.984375 C 46.164062 23.816406 46.21875 23.640625 46.273438 23.46875 C 46.378906 23.136719 46.488281 22.800781 46.597656 22.46875 C 46.738281 22.03125 46.875 21.585938 47.011719 21.140625 C 47.429688 20.015625 47.96875 20.253906 49 20.5 Z M 49 20.5 "/>
<path style=" stroke:none;fill-rule:nonzero;fill:rgb(5.882353%,12.156863%,17.254902%);fill-opacity:1;" d="M 41.734375 49.203125 C 42.015625 49.199219 42.296875 49.199219 42.585938 49.191406 C 42.988281 49.191406 42.988281 49.191406 43.398438 49.191406 C 43.769531 49.191406 43.769531 49.191406 44.148438 49.1875 C 44.75 49.25 44.75 49.25 45.25 49.75 C 45.1875 50.515625 45.1875 50.515625 45 51.25 C 44.03125 51.734375 42.832031 51.558594 41.765625 51.5625 C 41.511719 51.566406 41.257812 51.574219 40.996094 51.578125 C 40.75 51.582031 40.507812 51.582031 40.257812 51.582031 C 40.035156 51.582031 39.8125 51.585938 39.582031 51.589844 C 39 51.5 39 51.5 38.542969 51.160156 C 38.25 50.75 38.25 50.75 38.3125 50.09375 C 38.757812 48.6875 40.472656 49.203125 41.734375 49.203125 Z M 41.734375 49.203125 "/>
<path style=" stroke:none;fill-rule:nonzero;fill:rgb(5.882353%,12.156863%,17.254902%);fill-opacity:1;" d="M 22.234375 49.203125 C 22.515625 49.199219 22.796875 49.199219 23.085938 49.191406 C 23.488281 49.191406 23.488281 49.191406 23.898438 49.191406 C 24.269531 49.191406 24.269531 49.191406 24.648438 49.1875 C 25.25 49.25 25.25 49.25 25.75 49.75 C 25.6875 50.515625 25.6875 50.515625 25.5 51.25 C 24.53125 51.734375 23.332031 51.558594 22.265625 51.5625 C 22.011719 51.566406 21.757812 51.574219 21.496094 51.578125 C 21.25 51.582031 21.007812 51.582031 20.757812 51.582031 C 20.535156 51.582031 20.3125 51.585938 20.082031 51.589844 C 19.5 51.5 19.5 51.5 19.042969 51.160156 C 18.75 50.75 18.75 50.75 18.8125 50.09375 C 19.257812 48.6875 20.972656 49.203125 22.234375 49.203125 Z M 22.234375 49.203125 "/>
<path style=" stroke:none;fill-rule:nonzero;fill:rgb(5.882353%,12.156863%,17.647059%);fill-opacity:1;" d="M 50.652344 49.167969 C 50.933594 49.167969 51.210938 49.171875 51.5 49.171875 C 51.917969 49.167969 51.917969 49.167969 52.347656 49.160156 C 52.746094 49.160156 52.746094 49.160156 53.15625 49.160156 C 53.402344 49.160156 53.648438 49.15625 53.898438 49.15625 C 54.199219 49.203125 54.199219 49.203125 54.5 49.25 C 55 50 55 50 54.9375 50.515625 C 54.75 51 54.75 51 54.25 51.5 C 53.699219 51.5625 53.699219 51.5625 53.023438 51.566406 C 52.660156 51.566406 52.660156 51.566406 52.289062 51.570312 C 52.03125 51.566406 51.777344 51.5625 51.515625 51.5625 C 51.261719 51.5625 51.007812 51.566406 50.746094 51.570312 C 50.503906 51.566406 50.261719 51.566406 50.011719 51.566406 C 49.785156 51.566406 49.5625 51.5625 49.332031 51.5625 C 48.75 51.5 48.75 51.5 48 51 C 47.921875 50.375 47.921875 50.375 48 49.75 C 48.773438 48.972656 49.59375 49.175781 50.652344 49.167969 Z M 50.652344 49.167969 "/>
<path style=" stroke:none;fill-rule:nonzero;fill:rgb(5.882353%,12.156863%,17.647059%);fill-opacity:1;" d="M 12.484375 49.203125 C 12.765625 49.199219 13.046875 49.199219 13.335938 49.191406 C 13.738281 49.191406 13.738281 49.191406 14.148438 49.191406 C 14.519531 49.191406 14.519531 49.191406 14.898438 49.1875 C 15.5 49.25 15.5 49.25 16 49.75 C 16.078125 50.375 16.078125 50.375 16 51 C 14.882812 51.746094 13.8125 51.582031 12.5 51.578125 C 12.246094 51.582031 11.996094 51.585938 11.734375 51.589844 C 11.371094 51.589844 11.371094 51.589844 11 51.589844 C 10.78125 51.589844 10.558594 51.59375 10.328125 51.59375 C 9.75 51.5 9.75 51.5 9.292969 51.160156 C 9 50.75 9 50.75 9.0625 50.09375 C 9.507812 48.6875 11.222656 49.203125 12.484375 49.203125 Z M 12.484375 49.203125 "/>
<path style=" stroke:none;fill-rule:nonzero;fill:rgb(5.882353%,11.764706%,17.254902%);fill-opacity:1;" d="M 31.984375 49.1875 C 32.265625 49.183594 32.546875 49.175781 32.835938 49.171875 C 33.105469 49.171875 33.371094 49.171875 33.648438 49.167969 C 33.894531 49.164062 34.140625 49.164062 34.398438 49.160156 C 34.59375 49.191406 34.792969 49.21875 35 49.25 C 35.5 50 35.5 50 35.4375 50.65625 C 35.375 50.851562 35.3125 51.046875 35.25 51.25 C 34.28125 51.734375 33.082031 51.558594 32.015625 51.5625 C 31.761719 51.566406 31.507812 51.574219 31.246094 51.578125 C 31 51.578125 30.757812 51.578125 30.507812 51.582031 C 30.285156 51.585938 30.0625 51.585938 29.832031 51.589844 C 29.25 51.5 29.25 51.5 28.792969 51.160156 C 28.5 50.75 28.5 50.75 28.5625 50.09375 C 29.007812 48.683594 30.722656 49.191406 31.984375 49.1875 Z M 31.984375 49.1875 "/>
<path style=" stroke:none;fill-rule:nonzero;fill:rgb(36.862746%,72.156864%,90.980393%);fill-opacity:1;" d="M 41 3.25 C 43.308594 3.25 45.621094 3.25 48 3.25 C 48 3.746094 48 4.238281 48 4.75 C 47.75 5 47.75 5 47.101562 5.027344 C 46.820312 5.027344 46.539062 5.023438 46.25 5.023438 C 45.945312 5.023438 45.640625 5.023438 45.328125 5.023438 C 45.011719 5.019531 44.691406 5.015625 44.359375 5.015625 C 44.039062 5.015625 43.71875 5.011719 43.386719 5.011719 C 42.59375 5.011719 41.796875 5.003906 41 5 C 41 4.421875 41 3.84375 41 3.25 Z M 41 3.25 "/>
<path style=" stroke:none;fill-rule:nonzero;fill:rgb(5.882353%,11.764706%,17.647059%);fill-opacity:1;" d="M 44.359375 32.453125 C 44.648438 32.449219 44.9375 32.445312 45.234375 32.441406 C 46 32.5 46 32.5 46.75 33 C 46.828125 33.625 46.828125 33.625 46.75 34.25 C 46.128906 34.871094 45.746094 34.820312 44.898438 34.832031 C 44.640625 34.828125 44.640625 34.828125 44.375 34.828125 C 44.203125 34.832031 44.03125 34.835938 43.851562 34.839844 C 43.351562 34.839844 43.351562 34.839844 42.5 34.75 C 42 34 42 34 42.0625 33.34375 C 42.125 33.148438 42.1875 32.953125 42.25 32.75 C 42.960938 32.394531 43.570312 32.457031 44.359375 32.453125 Z M 44.359375 32.453125 "/>
<path style=" stroke:none;fill-rule:nonzero;fill:rgb(93.725491%,94.117647%,94.509804%);fill-opacity:1;" d="M 19.25 27.1875 C 20 27.25 20 27.25 20.5 27.75 C 20.589844 28.457031 20.589844 28.851562 20.21875 29.46875 C 19.519531 29.886719 19.015625 29.6875 18.25 29.5 C 18.09375 28.65625 18.09375 28.65625 18 27.75 C 18.5 27.25 18.5 27.25 19.25 27.1875 Z M 19.25 27.1875 "/>
</g>
</svg>
