<?xml version="1.0" encoding="UTF-8"?>
<svg xmlns="http://www.w3.org/2000/svg" xmlns:xlink="http://www.w3.org/1999/xlink" width="64" height="64" viewBox="0 0 64 64" version="1.1">
<g id="surface1">
<path style=" stroke:none;fill-rule:nonzero;fill:rgb(0.784314%,0.392157%,0%);fill-opacity:1;" d="M 20.75 1 C 21.324219 1.296875 21.878906 1.601562 22.4375 1.921875 C 26.78125 4.308594 31.496094 5.367188 36.402344 5.777344 C 36.65625 5.800781 36.90625 5.820312 37.164062 5.84375 C 37.777344 5.898438 38.386719 5.949219 39 6 C 39.015625 7.894531 39.03125 9.789062 39.039062 11.683594 C 39.042969 12.566406 39.046875 13.449219 39.058594 14.328125 C 39.066406 15.34375 39.070312 16.359375 39.074219 17.378906 C 39.078125 17.6875 39.078125 17.996094 39.085938 18.316406 C 39.085938 24.003906 36.921875 29.203125 33.25 33.5 C 33.015625 33.808594 33.015625 33.808594 32.78125 34.121094 C 32.1875 34.824219 31.546875 35.363281 30.828125 35.9375 C 30.585938 36.132812 30.34375 36.328125 30.089844 36.527344 C 29.796875 36.761719 29.796875 36.761719 29.5 37 C 28.550781 37.949219 29.089844 39.660156 29 41 C 34.28125 40.917969 39.558594 40.835938 45 40.75 C 44.585938 40.421875 44.175781 40.089844 43.75 39.75 C 41.246094 36.828125 40.675781 33.835938 40.933594 30.089844 C 41.246094 27.328125 42.769531 25.027344 44.835938 23.242188 C 47.804688 21.015625 50.878906 20.589844 54.5 21 C 57.546875 21.675781 59.960938 23.484375 61.632812 26.101562 C 63.253906 28.960938 63.472656 32.152344 62.824219 35.363281 C 62.09375 37.566406 60.65625 39.175781 59 40.75 C 60.320312 40.832031 61.640625 40.914062 63 41 C 63 46.941406 63 52.878906 63 59 C 60.585938 58.972656 58.167969 58.941406 55.679688 58.914062 C 54.132812 58.90625 52.585938 58.898438 51.039062 58.890625 C 48.59375 58.886719 46.144531 58.878906 43.699219 58.84375 C 41.34375 58.808594 38.988281 58.792969 36.632812 58.804688 C 36.441406 58.804688 36.253906 58.808594 36.058594 58.808594 C 30.398438 58.851562 25.476562 59.324219 20.871094 62.945312 C 20.25 63.25 20.25 63.25 19.476562 63.074219 C 18.628906 62.699219 17.796875 62.308594 16.972656 61.890625 C 16.808594 61.808594 16.644531 61.726562 16.476562 61.640625 C 16.132812 61.46875 15.789062 61.296875 15.445312 61.125 C 14.921875 60.859375 14.390625 60.59375 13.863281 60.328125 C 13.53125 60.164062 13.199219 59.996094 12.863281 59.828125 C 12.703125 59.746094 12.546875 59.671875 12.382812 59.585938 C 11.28125 59.03125 11.28125 59.03125 11 58.75 C 10.984375 58.117188 10.976562 57.492188 10.984375 56.859375 C 10.984375 56.683594 10.988281 56.503906 10.988281 56.320312 C 10.988281 55.878906 10.996094 55.441406 11 55 C 11.988281 55 12.980469 55 14 55 C 14 54.339844 14 53.679688 14 53 C 13.011719 53 12.019531 53 11 53 C 11 50.359375 11 47.71875 11 45 C 11.988281 45 12.980469 45 14 45 C 14 44.339844 14 43.679688 14 43 C 13.011719 43 12.019531 43 11 43 C 11.011719 42.609375 11.023438 42.222656 11.03125 41.824219 C 11.140625 38.996094 11.140625 38.996094 10.21875 36.410156 C 9.589844 35.867188 8.960938 35.425781 8.25 35 C 7.824219 34.59375 7.40625 34.175781 7 33.75 C 6.871094 33.621094 6.738281 33.488281 6.609375 33.351562 C 3.265625 29.800781 0.960938 24.324219 0.972656 19.453125 C 0.972656 19.152344 0.972656 18.851562 0.972656 18.542969 C 0.972656 18.222656 0.976562 17.902344 0.976562 17.574219 C 0.976562 17.238281 0.976562 16.90625 0.976562 16.570312 C 0.976562 15.695312 0.980469 14.820312 0.984375 13.941406 C 0.984375 13.046875 0.988281 12.152344 0.988281 11.261719 C 0.988281 9.503906 0.996094 7.753906 1 6 C 1.300781 5.96875 1.300781 5.96875 1.609375 5.9375 C 2.523438 5.84375 3.441406 5.746094 4.359375 5.652344 C 4.671875 5.621094 4.988281 5.585938 5.3125 5.550781 C 10.160156 5.042969 14.960938 3.851562 18.996094 0.984375 C 19.699219 0.65625 20.015625 0.757812 20.75 1 Z M 20.75 1 "/>
<path style=" stroke:none;fill-rule:nonzero;fill:rgb(2.352941%,1.960784%,1.176471%);fill-opacity:1;" d="M 20.75 3.5 C 21.09375 3.652344 21.429688 3.8125 21.761719 3.984375 C 24.152344 5.164062 26.402344 6.121094 29 6.75 C 29.351562 6.851562 29.351562 6.851562 29.703125 6.957031 C 31.328125 7.417969 32.925781 7.613281 34.601562 7.773438 C 34.828125 7.796875 35.0625 7.816406 35.300781 7.839844 C 35.867188 7.890625 36.433594 7.949219 37 8 C 37.011719 9.65625 37.023438 11.308594 37.027344 12.960938 C 37.03125 13.523438 37.03125 14.085938 37.039062 14.648438 C 37.046875 15.457031 37.046875 16.269531 37.050781 17.082031 C 37.050781 17.328125 37.054688 17.574219 37.058594 17.828125 C 37.058594 20.308594 36.730469 22.703125 35.8125 25.015625 C 35.714844 25.269531 35.714844 25.269531 35.613281 25.527344 C 33.414062 31.042969 29.402344 35.203125 24.046875 37.71875 C 23.617188 37.898438 23.183594 38.078125 22.75 38.25 C 22.550781 38.332031 22.355469 38.414062 22.148438 38.5 C 19.953125 39.339844 18.351562 38.777344 16.269531 37.863281 C 10.363281 35.09375 6.386719 30.722656 4.027344 24.675781 C 3.160156 22.261719 2.925781 19.851562 2.949219 17.300781 C 2.953125 17.03125 2.953125 16.765625 2.953125 16.488281 C 2.953125 15.644531 2.960938 14.796875 2.96875 13.953125 C 2.972656 13.375 2.972656 12.796875 2.976562 12.21875 C 2.980469 10.8125 2.988281 9.40625 3 8 C 3.167969 7.980469 3.335938 7.960938 3.507812 7.941406 C 4.28125 7.851562 5.054688 7.761719 5.828125 7.667969 C 6.222656 7.621094 6.222656 7.621094 6.625 7.578125 C 10.980469 7.050781 15.207031 5.6875 19.046875 3.558594 C 19.835938 3.210938 19.96875 3.238281 20.75 3.5 Z M 20.75 3.5 "/>
<path style=" stroke:none;fill-rule:nonzero;fill:rgb(89.411765%,90.588236%,92.156863%);fill-opacity:1;" d="M 29 43 C 39.558594 43 50.121094 43 61 43 C 61 47.621094 61 52.238281 61 57 C 50.441406 57 39.878906 57 29 57 C 29 52.378906 29 47.761719 29 43 Z M 29 43 "/>
<path style=" stroke:none;fill-rule:nonzero;fill:rgb(98.431373%,50.196081%,42.352942%);fill-opacity:1;" d="M 58.042969 25.1875 C 59.808594 26.828125 60.875 28.78125 61.050781 31.199219 C 61.097656 34.195312 60.234375 36.457031 58.203125 38.671875 C 56.757812 40.046875 54.996094 40.894531 53 41 C 52.808594 41.011719 52.613281 41.027344 52.417969 41.039062 C 49.625 41.144531 47.363281 40.074219 45.328125 38.203125 C 43.4375 36.222656 42.914062 33.941406 42.945312 31.285156 C 43.128906 28.628906 44.304688 26.832031 46.21875 25.0625 C 49.730469 22.121094 54.519531 22.339844 58.042969 25.1875 Z M 58.042969 25.1875 "/>
<path style=" stroke:none;fill-rule:nonzero;fill:rgb(98.431373%,90.196079%,64.313728%);fill-opacity:1;" d="M 22.6875 9.1875 C 24.101562 9.773438 25.523438 10.269531 27 10.6875 C 27.167969 10.738281 27.335938 10.789062 27.511719 10.835938 C 29.308594 11.328125 31.15625 11.527344 33 11.75 C 33.011719 12.800781 33.023438 13.847656 33.027344 14.898438 C 33.03125 15.253906 33.03125 15.609375 33.039062 15.960938 C 33.074219 18.910156 32.988281 21.765625 31.734375 24.484375 C 31.621094 24.734375 31.621094 24.734375 31.507812 24.988281 C 29.53125 29.210938 29.53125 29.210938 28.050781 29.984375 C 27.199219 30.007812 26.390625 29.824219 25.5625 29.640625 C 25.386719 29.601562 25.214844 29.566406 25.035156 29.53125 C 24.605469 29.4375 24.175781 29.34375 23.75 29.25 C 23.589844 28.535156 23.589844 28.535156 23.5 27.75 C 23.90625 27.324219 24.324219 26.90625 24.75 26.5 C 25.03125 25.980469 25.25 25.449219 25.472656 24.902344 C 25.902344 23.890625 26.410156 22.925781 26.90625 21.949219 C 27.882812 19.957031 28.191406 18.085938 27.476562 15.925781 C 26.523438 13.882812 25.421875 12.644531 23.40625 11.65625 C 21.066406 10.816406 18.335938 10.84375 16.078125 11.890625 C 14.882812 12.589844 13.984375 13.324219 13.25 14.5 C 13.148438 14.664062 13.046875 14.828125 12.941406 14.996094 C 11.972656 16.824219 11.894531 18.839844 12.496094 20.804688 C 12.800781 21.554688 13.136719 22.277344 13.5 23 C 13.59375 23.191406 13.683594 23.382812 13.78125 23.578125 C 13.941406 23.910156 14.109375 24.238281 14.277344 24.566406 C 14.484375 24.96875 14.671875 25.382812 14.859375 25.796875 C 15.226562 26.546875 15.226562 26.546875 15.9375 27.125 C 16.214844 27.433594 16.214844 27.433594 16.5 27.75 C 16.410156 28.539062 16.410156 28.539062 16.25 29.25 C 16.03125 29.28125 15.808594 29.316406 15.582031 29.351562 C 15.148438 29.417969 15.148438 29.417969 14.703125 29.484375 C 14.273438 29.550781 14.273438 29.550781 13.832031 29.613281 C 13.136719 29.726562 12.441406 29.855469 11.75 30 C 8.796875 26.355469 6.953125 22.398438 6.976562 17.636719 C 6.976562 17.464844 6.976562 17.296875 6.976562 17.121094 C 6.976562 16.585938 6.980469 16.050781 6.984375 15.515625 C 6.984375 15.148438 6.988281 14.785156 6.988281 14.421875 C 6.988281 13.53125 6.996094 12.640625 7 11.75 C 7.296875 11.710938 7.59375 11.671875 7.898438 11.628906 C 10.992188 11.191406 13.890625 10.53125 16.78125 9.328125 C 16.949219 9.257812 17.113281 9.1875 17.289062 9.113281 C 17.753906 8.917969 18.210938 8.714844 18.675781 8.511719 C 20.183594 8.035156 21.28125 8.582031 22.6875 9.1875 Z M 22.6875 9.1875 "/>
<path style=" stroke:none;fill-rule:nonzero;fill:rgb(96.078432%,81.960785%,42.745098%);fill-opacity:1;" d="M 20.75 3.5 C 21.09375 3.652344 21.429688 3.8125 21.761719 3.984375 C 24.152344 5.164062 26.402344 6.121094 29 6.75 C 29.351562 6.851562 29.351562 6.851562 29.703125 6.957031 C 31.328125 7.417969 32.925781 7.613281 34.601562 7.773438 C 34.828125 7.796875 35.0625 7.816406 35.300781 7.839844 C 35.867188 7.890625 36.433594 7.949219 37 8 C 37.011719 9.65625 37.023438 11.308594 37.027344 12.960938 C 37.03125 13.523438 37.03125 14.085938 37.039062 14.648438 C 37.046875 15.457031 37.046875 16.269531 37.050781 17.082031 C 37.050781 17.328125 37.054688 17.574219 37.058594 17.828125 C 37.058594 20.308594 36.730469 22.703125 35.8125 25.015625 C 35.714844 25.269531 35.714844 25.269531 35.613281 25.527344 C 33.414062 31.042969 29.402344 35.203125 24.046875 37.71875 C 23.617188 37.898438 23.183594 38.078125 22.75 38.25 C 22.550781 38.332031 22.355469 38.414062 22.148438 38.5 C 19.953125 39.339844 18.351562 38.777344 16.269531 37.863281 C 10.363281 35.09375 6.386719 30.722656 4.027344 24.675781 C 3.160156 22.261719 2.925781 19.851562 2.949219 17.300781 C 2.953125 17.03125 2.953125 16.765625 2.953125 16.488281 C 2.953125 15.644531 2.960938 14.796875 2.96875 13.953125 C 2.972656 13.375 2.972656 12.796875 2.976562 12.21875 C 2.980469 10.8125 2.988281 9.40625 3 8 C 3.167969 7.980469 3.335938 7.960938 3.507812 7.941406 C 4.28125 7.851562 5.054688 7.761719 5.828125 7.667969 C 6.222656 7.621094 6.222656 7.621094 6.625 7.578125 C 10.980469 7.050781 15.207031 5.6875 19.046875 3.558594 C 19.835938 3.210938 19.96875 3.238281 20.75 3.5 Z M 17.765625 6.78125 C 13.675781 8.636719 9.4375 9.488281 5 10 C 4.988281 11.292969 4.976562 12.585938 4.972656 13.878906 C 4.96875 14.320312 4.96875 14.757812 4.960938 15.195312 C 4.898438 21.609375 6.1875 27.09375 10.800781 31.8125 C 13.203125 34.171875 16.050781 35.902344 19.25 37 C 23.21875 36.929688 26.792969 34.160156 29.5 31.5 C 29.65625 31.347656 29.8125 31.191406 29.976562 31.035156 C 34.316406 26.4375 35.09375 20.589844 35.03125 14.546875 C 35.027344 14.105469 35.027344 13.660156 35.023438 13.21875 C 35.019531 12.144531 35.011719 11.074219 35 10 C 34.859375 9.984375 34.722656 9.96875 34.578125 9.953125 C 29.878906 9.433594 25.460938 8.507812 21.234375 6.328125 C 19.871094 5.71875 19.011719 6.183594 17.765625 6.78125 Z M 17.765625 6.78125 "/>
<path style=" stroke:none;fill-rule:nonzero;fill:rgb(98.039216%,83.529413%,43.529412%);fill-opacity:1;" d="M 27 38.5 C 27 39.078125 27 39.65625 27 40.25 C 25.761719 40.578125 24.523438 40.910156 23.25 41.25 C 23.25 43.726562 23.25 46.199219 23.25 48.75 C 24.488281 49.078125 25.726562 49.410156 27 49.75 C 27 52.308594 27 54.863281 27 57.5 C 25.65625 58.179688 25.65625 58.179688 24.28125 58.875 C 23.859375 59.089844 23.859375 59.089844 23.425781 59.308594 C 23.203125 59.421875 22.980469 59.53125 22.753906 59.648438 C 22.523438 59.761719 22.296875 59.878906 22.0625 59.996094 C 21.5 60.25 21.5 60.25 21 60.25 C 21 53.816406 21 47.378906 21 40.75 C 21.660156 40.503906 22.320312 40.253906 23 40 C 23.921875 39.609375 24.839844 39.203125 25.753906 38.800781 C 26.5 38.5 26.5 38.5 27 38.5 Z M 27 38.5 "/>
<path style=" stroke:none;fill-rule:nonzero;fill:rgb(98.039216%,83.92157%,43.529412%);fill-opacity:1;" d="M 13 38.5 C 14.285156 38.914062 15.511719 39.414062 16.75 39.945312 C 17.488281 40.246094 18.246094 40.496094 19 40.75 C 19 47.183594 19 53.621094 19 60.25 C 18.039062 59.929688 17.25 59.65625 16.371094 59.210938 C 16.074219 59.058594 16.074219 59.058594 15.765625 58.90625 C 15.566406 58.800781 15.363281 58.699219 15.15625 58.59375 C 14.949219 58.488281 14.738281 58.382812 14.527344 58.273438 C 14.015625 58.015625 13.507812 57.761719 13 57.5 C 13 57.335938 13 57.171875 13 57 C 13.988281 57 14.980469 57 16 57 C 16 55.019531 16 53.039062 16 51 C 15.011719 51 14.019531 51 13 51 C 13 49.679688 13 48.359375 13 47 C 13.988281 47 14.980469 47 16 47 C 16 45.019531 16 43.039062 16 41 C 15.011719 41 14.019531 41 13 41 C 13 40.175781 13 39.351562 13 38.5 Z M 13 38.5 "/>
<path style=" stroke:none;fill-rule:nonzero;fill:rgb(0.392157%,0.392157%,0.392157%);fill-opacity:1;" d="M 51 45 C 51.660156 45 52.320312 45 53 45 C 53.082031 45.742188 53.164062 46.484375 53.25 47.25 C 53.496094 47.003906 53.746094 46.753906 54 46.5 C 54.742188 46.566406 54.960938 46.710938 55.5 47.25 C 55.40625 47.984375 55.285156 48.214844 54.75 48.75 C 55.492188 48.832031 56.234375 48.914062 57 49 C 57 49.660156 57 50.320312 57 51 C 56.257812 51.082031 55.515625 51.164062 54.75 51.25 C 54.996094 51.496094 55.246094 51.746094 55.5 52 C 55.238281 52.65625 55.085938 52.949219 54.46875 53.3125 C 54.316406 53.375 54.160156 53.4375 54 53.5 C 53.753906 53.253906 53.503906 53.003906 53.25 52.75 C 53.167969 53.492188 53.085938 54.234375 53 55 C 52.339844 55 51.679688 55 51 55 C 50.917969 54.257812 50.835938 53.515625 50.75 52.75 C 50.378906 53.121094 50.378906 53.121094 50 53.5 C 49.34375 53.238281 49.050781 53.085938 48.6875 52.46875 C 48.625 52.316406 48.5625 52.160156 48.5 52 C 48.746094 51.753906 48.996094 51.503906 49.25 51.25 C 48.507812 51.167969 47.765625 51.085938 47 51 C 47 50.339844 47 49.679688 47 49 C 48.113281 48.875 48.113281 48.875 49.25 48.75 C 49.003906 48.503906 48.753906 48.253906 48.5 48 C 48.761719 47.34375 48.914062 47.050781 49.53125 46.6875 C 49.683594 46.625 49.839844 46.5625 50 46.5 C 50.246094 46.746094 50.496094 46.996094 50.75 47.25 C 50.832031 46.507812 50.914062 45.765625 51 45 Z M 51 45 "/>
<path style=" stroke:none;fill-rule:nonzero;fill:rgb(0.392157%,0.392157%,0.392157%);fill-opacity:1;" d="M 37 45 C 37.660156 45 38.320312 45 39 45 C 39.082031 45.742188 39.164062 46.484375 39.25 47.25 C 39.496094 47.003906 39.746094 46.753906 40 46.5 C 40.742188 46.566406 40.960938 46.710938 41.5 47.25 C 41.40625 47.984375 41.285156 48.214844 40.75 48.75 C 41.492188 48.832031 42.234375 48.914062 43 49 C 43 49.660156 43 50.320312 43 51 C 42.257812 51.082031 41.515625 51.164062 40.75 51.25 C 40.996094 51.496094 41.246094 51.746094 41.5 52 C 41.238281 52.65625 41.085938 52.949219 40.46875 53.3125 C 40.316406 53.375 40.160156 53.4375 40 53.5 C 39.753906 53.253906 39.503906 53.003906 39.25 52.75 C 39.167969 53.492188 39.085938 54.234375 39 55 C 38.339844 55 37.679688 55 37 55 C 36.917969 54.257812 36.835938 53.515625 36.75 52.75 C 36.378906 53.121094 36.378906 53.121094 36 53.5 C 35.34375 53.238281 35.050781 53.085938 34.6875 52.46875 C 34.625 52.316406 34.5625 52.160156 34.5 52 C 34.746094 51.753906 34.996094 51.503906 35.25 51.25 C 34.507812 51.167969 33.765625 51.085938 33 51 C 33 50.339844 33 49.679688 33 49 C 34.113281 48.875 34.113281 48.875 35.25 48.75 C 35.003906 48.503906 34.753906 48.253906 34.5 48 C 34.761719 47.34375 34.914062 47.050781 35.53125 46.6875 C 35.683594 46.625 35.839844 46.5625 36 46.5 C 36.246094 46.746094 36.496094 46.996094 36.75 47.25 C 36.832031 46.507812 36.914062 45.765625 37 45 Z M 37 45 "/>
<path style=" stroke:none;fill-rule:nonzero;fill:rgb(67.843139%,45.882353%,26.666668%);fill-opacity:1;" d="M 22.5 13.199219 C 24.292969 13.996094 25.144531 15.289062 26 17 C 26.03125 17.410156 26.042969 17.824219 26.046875 18.234375 C 26.050781 18.453125 26.054688 18.671875 26.058594 18.898438 C 26 19.5 26 19.5 25.5 20.25 C 25.3125 20.054688 25.128906 19.859375 24.9375 19.65625 C 24.160156 18.996094 23.519531 18.886719 22.515625 18.765625 C 21.226562 18.59375 20.476562 18.3125 19.550781 17.398438 C 19.152344 16.867188 19.019531 16.414062 19 15.75 C 18.421875 15.914062 17.847656 16.082031 17.25 16.25 C 17.332031 16.828125 17.414062 17.40625 17.5 18 C 17.328125 18.101562 17.15625 18.199219 16.976562 18.300781 C 16.753906 18.433594 16.527344 18.566406 16.296875 18.703125 C 16.074219 18.832031 15.851562 18.964844 15.621094 19.097656 C 15.082031 19.445312 14.675781 19.777344 14.25 20.25 C 13.746094 18.738281 13.777344 17.25 14.484375 15.8125 C 16.214844 13.003906 19.476562 12.394531 22.5 13.199219 Z M 22.5 13.199219 "/>
<path style=" stroke:none;fill-rule:nonzero;fill:rgb(92.54902%,80.392158%,69.411767%);fill-opacity:1;" d="M 20 20 C 20.90625 20.203125 21.816406 20.378906 22.730469 20.554688 C 23.5 20.75 23.5 20.75 24 21.25 C 24.191406 22.78125 24.167969 24.214844 23.25 25.5 C 22.246094 26.507812 21.355469 27.03125 19.921875 27.078125 C 18.765625 27.0625 18.140625 26.765625 17.25 26 C 16.050781 24.640625 15.882812 23.777344 15.898438 21.984375 C 16.003906 21.210938 16.089844 20.960938 16.671875 20.46875 C 18.539062 19.410156 18.539062 19.410156 20 20 Z M 20 20 "/>
<path style=" stroke:none;fill-rule:nonzero;fill:rgb(2.352941%,1.176471%,0.784314%);fill-opacity:1;" d="M 57 26.5 C 57.65625 26.761719 57.949219 26.914062 58.3125 27.53125 C 58.375 27.683594 58.4375 27.839844 58.5 28 C 52.875 34.25 52.875 34.25 52.316406 34.863281 C 51.921875 35.308594 51.53125 35.761719 51.140625 36.210938 C 50.949219 36.441406 50.75 36.671875 50.546875 36.90625 C 50.28125 37.21875 50.28125 37.21875 50.011719 37.539062 C 49.5 38 49.5 38 48.5 38 C 47.941406 37.511719 47.441406 37.039062 46.9375 36.5 C 46.730469 36.285156 46.730469 36.285156 46.515625 36.066406 C 46.175781 35.710938 45.835938 35.359375 45.5 35 C 45.878906 34.054688 46.003906 33.996094 47 33.5 C 47.578125 34.078125 48.15625 34.65625 48.75 35.25 C 50.9375 33.5 52.742188 31.351562 54.574219 29.238281 C 55.375 28.320312 56.1875 27.410156 57 26.5 Z M 57 26.5 "/>
<path style=" stroke:none;fill-rule:nonzero;fill:rgb(67.450982%,82.745099%,47.450981%);fill-opacity:1;" d="M 16.75 31.25 C 17.375 31.875 17.375 31.875 18 32.5 C 19.429688 32.976562 20.761719 32.941406 22.125 32.28125 C 22.832031 31.910156 22.832031 31.910156 23.25 31.25 C 23.609375 31.238281 23.96875 31.226562 24.328125 31.21875 C 24.527344 31.210938 24.726562 31.207031 24.933594 31.199219 C 25.5 31.25 25.5 31.25 26.25 31.75 C 21.921875 35.054688 21.921875 35.054688 19.777344 34.972656 C 18.785156 34.6875 17.90625 34.28125 16.984375 33.8125 C 16.808594 33.726562 16.636719 33.644531 16.457031 33.558594 C 15.355469 33.003906 14.574219 32.421875 13.75 31.5 C 14.109375 31.410156 14.46875 31.320312 14.828125 31.234375 C 15.027344 31.183594 15.226562 31.136719 15.433594 31.085938 C 16 31 16 31 16.75 31.25 Z M 16.75 31.25 "/>
<path style=" stroke:none;fill-rule:nonzero;fill:rgb(97.647059%,76.078433%,15.686275%);fill-opacity:1;" d="M 27 42.25 C 27 44.066406 27 45.878906 27 47.75 C 26.339844 47.585938 25.679688 47.421875 25 47.25 C 25 45.765625 25 44.28125 25 42.75 C 26.5 42.25 26.5 42.25 27 42.25 Z M 27 42.25 "/>
<path style=" stroke:none;fill-rule:nonzero;fill:rgb(91.37255%,79.215688%,68.235296%);fill-opacity:1;" d="M 18.25 29 C 19.40625 29 20.558594 29 21.75 29 C 21.75 30.25 21.75 30.25 21.359375 30.703125 C 20.523438 31.109375 19.917969 31.101562 19 31 C 18.515625 30.703125 18.515625 30.703125 18.25 30.25 C 18.25 29.835938 18.25 29.425781 18.25 29 Z M 18.25 29 "/>
<path style=" stroke:none;fill-rule:nonzero;fill:rgb(0%,0%,0%);fill-opacity:1;" d="M 23 55 C 23.660156 55 24.320312 55 25 55 C 25 55.660156 25 56.320312 25 57 C 24.339844 57 23.679688 57 23 57 C 23 56.339844 23 55.679688 23 55 Z M 23 55 "/>
<path style=" stroke:none;fill-rule:nonzero;fill:rgb(0%,0%,0%);fill-opacity:1;" d="M 23 51 C 23.660156 51 24.320312 51 25 51 C 25 51.660156 25 52.320312 25 53 C 24.339844 53 23.679688 53 23 53 C 23 52.339844 23 51.679688 23 51 Z M 23 51 "/>
</g>
</svg>
