<?xml version="1.0" encoding="UTF-8"?>
<svg xmlns="http://www.w3.org/2000/svg" xmlns:xlink="http://www.w3.org/1999/xlink" width="64" height="64" viewBox="0 0 64 64" version="1.1">
<g id="surface1">
<path style=" stroke:none;fill-rule:nonzero;fill:rgb(42.352942%,49.411765%,84.313726%);fill-opacity:1;" d="M 27 5.75 C 27.546875 6.074219 27.546875 6.074219 28 6.515625 C 28.164062 6.675781 28.328125 6.835938 28.5 7 C 28.664062 7.164062 28.828125 7.328125 29 7.5 C 29.261719 7.726562 29.261719 7.726562 29.523438 7.960938 C 30.734375 9.058594 30.734375 9.058594 30.796875 9.890625 C 30.5 10.5 30.5 10.5 29.96875 11.203125 C 29.429688 12.117188 29.402344 12.53125 29.601562 13.542969 C 29.835938 14.265625 30.113281 14.582031 30.75 15 C 31.796875 15.289062 32.324219 15.316406 33.34375 14.921875 C 34.019531 14.566406 34.019531 14.566406 34.25 14 C 34.769531 13.898438 34.769531 13.898438 35.5 14 C 36.132812 14.464844 36.652344 15.023438 37.1875 15.59375 C 37.335938 15.746094 37.484375 15.894531 37.636719 16.050781 C 38.945312 17.40625 38.945312 17.40625 39.125 18.539062 C 38.949219 19.910156 38.242188 20.453125 37.25 21.359375 C 37.082031 21.515625 36.914062 21.675781 36.746094 21.84375 C 36.332031 22.234375 35.917969 22.617188 35.5 23 C 35.773438 23.5625 36.039062 24.054688 36.40625 24.5625 C 36.859375 25.46875 36.953125 26.265625 36.75 27.25 C 36.3125 28.070312 35.710938 28.609375 34.9375 29.125 C 33.902344 29.3125 32.976562 29.136719 32 28.75 C 31.585938 28.421875 31.175781 28.089844 30.75 27.75 C 29.429688 29.070312 28.109375 30.390625 26.75 31.75 C 27.179688 32.613281 27.402344 32.953125 28.074219 33.570312 C 28.230469 33.71875 28.386719 33.867188 28.550781 34.019531 C 28.882812 34.328125 29.21875 34.640625 29.550781 34.945312 C 29.988281 35.363281 30.390625 35.761719 30.75 36.25 C 30.753906 36.964844 30.753906 36.964844 30.5 37.5 C 30.375 37.609375 30.253906 37.71875 30.125 37.828125 C 29.613281 38.402344 29.539062 38.984375 29.464844 39.734375 C 29.523438 40.59375 29.953125 41.109375 30.5 41.75 C 31.304688 42.152344 32.128906 42.15625 33 42 C 33.4375 41.722656 33.4375 41.722656 33.8125 41.359375 C 34.152344 41.058594 34.152344 41.058594 34.5 40.75 C 35.742188 40.855469 36.472656 41.824219 37.3125 42.65625 C 37.476562 42.808594 37.636719 42.957031 37.804688 43.113281 C 38.601562 43.898438 38.96875 44.300781 39.152344 45.425781 C 38.988281 46.296875 38.84375 46.628906 38.234375 47.25 C 38.078125 47.414062 37.917969 47.582031 37.753906 47.753906 C 36.277344 49.207031 36.277344 49.207031 35.824219 49.636719 C 35.445312 49.984375 35.445312 49.984375 35.5 50.5 C 35.828125 50.835938 36.164062 51.171875 36.5 51.5 C 36.902344 52.300781 36.867188 53.128906 36.75 54 C 36.347656 54.773438 36 55.304688 35.3125 55.84375 C 33.976562 56.214844 33.074219 56.171875 31.875 55.53125 C 31.667969 55.355469 31.460938 55.179688 31.25 55 C 31.25 54.835938 31.25 54.671875 31.25 54.5 C 30.070312 55.507812 28.9375 56.539062 27.863281 57.65625 C 27.316406 58.175781 26.976562 58.253906 26.21875 58.378906 C 24.808594 58.191406 24.203125 57.441406 23.25 56.4375 C 22.988281 56.183594 22.988281 56.183594 22.726562 55.921875 C 21.796875 54.96875 21.796875 54.96875 21.5 54.5 C 21.566406 53.738281 21.738281 53.515625 22.265625 52.9375 C 22.828125 52.136719 22.914062 51.691406 22.863281 50.734375 C 22.660156 49.859375 22.214844 49.503906 21.5 49 C 20.5 48.714844 19.996094 48.636719 19.046875 49.078125 C 18.488281 49.488281 18.488281 49.488281 18 50 C 17.011719 49.925781 16.519531 49.640625 15.835938 48.941406 C 15.667969 48.769531 15.5 48.601562 15.324219 48.425781 C 15.148438 48.238281 14.96875 48.058594 14.785156 47.863281 C 14.601562 47.675781 14.414062 47.488281 14.222656 47.296875 C 13.628906 46.695312 13.042969 46.089844 12.453125 45.484375 C 11.863281 44.878906 11.269531 44.273438 10.675781 43.671875 C 10.304688 43.296875 9.9375 42.917969 9.570312 42.539062 C 9.40625 42.371094 9.238281 42.199219 9.066406 42.027344 C 8.847656 41.800781 8.847656 41.800781 8.625 41.570312 C 8.269531 41.195312 8.269531 41.195312 7.75 41.25 C 7.414062 41.578125 7.078125 41.914062 6.75 42.25 C 5.886719 42.679688 4.945312 42.59375 4 42.5 C 3.023438 42.085938 2.644531 41.714844 2.25 40.75 C 2.097656 39.753906 1.972656 38.6875 2.53125 37.808594 C 2.875 37.46875 2.875 37.46875 3.5 37 C 3.046875 35.789062 1.996094 35.019531 1.042969 34.191406 C 0.269531 33.46875 0.0195312 33.09375 -0.210938 32.027344 C -0.101562 30.648438 0.902344 29.878906 1.875 29 C 2.054688 28.828125 2.234375 28.660156 2.417969 28.484375 C 2.859375 28.066406 3.300781 27.65625 3.75 27.25 C 4.300781 27.511719 4.75 27.75 5.21875 28.140625 C 5.921875 28.613281 6.40625 28.714844 7.25 28.75 C 8.316406 28.414062 8.667969 28.136719 9.25 27.171875 C 9.539062 26.105469 9.488281 25.726562 9 24.75 C 8.496094 24.046875 8.496094 24.046875 8 23.5 C 8.339844 22.738281 8.71875 22.226562 9.316406 21.644531 C 9.484375 21.484375 9.648438 21.324219 9.820312 21.15625 C 10 20.984375 10.175781 20.808594 10.363281 20.632812 C 10.738281 20.265625 11.113281 19.898438 11.488281 19.527344 C 12.082031 18.949219 12.675781 18.371094 13.273438 17.796875 C 13.84375 17.238281 14.417969 16.675781 14.988281 16.117188 C 15.167969 15.945312 15.347656 15.773438 15.53125 15.59375 C 15.699219 15.433594 15.859375 15.273438 16.03125 15.105469 C 16.175781 14.960938 16.320312 14.824219 16.46875 14.675781 C 16.808594 14.261719 16.808594 14.261719 16.691406 13.726562 C 16.519531 13.226562 16.519531 13.226562 16.125 12.8125 C 15.585938 12.003906 15.46875 11.199219 15.5 10.25 C 15.800781 9.367188 16.085938 8.898438 16.78125 8.28125 C 17.789062 7.886719 18.683594 7.789062 19.75 8 C 20.359375 8.359375 20.75 8.734375 21.25 9.25 C 22.46875 8.789062 23.242188 7.742188 24.078125 6.792969 C 25.007812 5.804688 25.59375 5.515625 27 5.75 Z M 27 5.75 "/>
<path style=" stroke:none;fill-rule:nonzero;fill:rgb(5.490196%,81.960785%,69.803923%);fill-opacity:1;" d="M 26.25 32 C 27.371094 32.921875 28.449219 33.890625 29.5 34.890625 C 29.628906 35.003906 29.753906 35.121094 29.882812 35.238281 C 30.234375 35.578125 30.234375 35.578125 30.75 36.25 C 30.726562 36.941406 30.726562 36.941406 30.5 37.5 C 30.375 37.609375 30.253906 37.71875 30.125 37.828125 C 29.613281 38.402344 29.539062 38.984375 29.464844 39.734375 C 29.523438 40.59375 29.953125 41.109375 30.5 41.75 C 31.304688 42.152344 32.128906 42.15625 33 42 C 33.4375 41.722656 33.4375 41.722656 33.8125 41.359375 C 34.039062 41.15625 34.265625 40.957031 34.5 40.75 C 35.742188 40.855469 36.472656 41.824219 37.3125 42.65625 C 37.554688 42.882812 37.554688 42.882812 37.804688 43.113281 C 38.601562 43.898438 38.96875 44.300781 39.152344 45.425781 C 38.988281 46.296875 38.84375 46.628906 38.234375 47.25 C 38.078125 47.414062 37.917969 47.582031 37.753906 47.753906 C 36.277344 49.207031 36.277344 49.207031 35.824219 49.636719 C 35.445312 49.984375 35.445312 49.984375 35.5 50.5 C 35.828125 50.835938 36.164062 51.171875 36.5 51.5 C 36.902344 52.300781 36.867188 53.128906 36.75 54 C 36.347656 54.773438 36 55.304688 35.3125 55.84375 C 33.976562 56.214844 33.074219 56.171875 31.875 55.53125 C 31.667969 55.355469 31.460938 55.179688 31.25 55 C 31.25 54.835938 31.25 54.671875 31.25 54.5 C 30.070312 55.507812 28.9375 56.539062 27.863281 57.65625 C 27.316406 58.175781 26.976562 58.253906 26.21875 58.378906 C 24.808594 58.191406 24.203125 57.441406 23.25 56.4375 C 23.078125 56.265625 22.90625 56.097656 22.726562 55.921875 C 21.796875 54.96875 21.796875 54.96875 21.5 54.5 C 21.566406 53.738281 21.738281 53.515625 22.265625 52.9375 C 22.828125 52.136719 22.914062 51.691406 22.863281 50.734375 C 22.660156 49.859375 22.214844 49.503906 21.5 49 C 20.5 48.714844 19.996094 48.636719 19.046875 49.078125 C 18.488281 49.488281 18.488281 49.488281 18 50 C 16.957031 49.933594 16.46875 49.585938 15.753906 48.851562 C 15.578125 48.671875 15.398438 48.492188 15.21875 48.304688 C 15.039062 48.117188 14.859375 47.929688 14.671875 47.734375 C 14.488281 47.546875 14.300781 47.355469 14.109375 47.160156 C 13.65625 46.691406 13.203125 46.222656 12.75 45.75 C 13.09375 44.96875 13.496094 44.449219 14.109375 43.859375 C 14.277344 43.695312 14.441406 43.53125 14.613281 43.363281 C 14.875 43.113281 14.875 43.113281 15.140625 42.859375 C 15.484375 42.527344 15.828125 42.191406 16.171875 41.859375 C 16.324219 41.710938 16.476562 41.566406 16.636719 41.414062 C 17.058594 40.988281 17.058594 40.988281 17.25 40.25 C 17.09375 40.1875 16.941406 40.125 16.78125 40.0625 C 16.121094 39.671875 15.980469 39.480469 15.75 38.75 C 15.558594 37.078125 15.558594 37.078125 16.011719 36.296875 C 16.457031 35.753906 16.867188 35.316406 17.5 35 C 18.726562 34.898438 19.277344 34.878906 20.375 35.46875 C 20.683594 35.734375 20.683594 35.734375 21 36 C 21 36.164062 21 36.328125 21 36.5 C 22.234375 35.863281 23.09375 34.953125 24.046875 33.96875 C 24.359375 33.648438 24.667969 33.332031 24.980469 33.011719 C 25.113281 32.871094 25.253906 32.734375 25.390625 32.585938 C 25.75 32.25 25.75 32.25 26.25 32 Z M 26.25 32 "/>
<path style=" stroke:none;fill-rule:nonzero;fill:rgb(100%,87.843138%,46.27451%);fill-opacity:1;" d="M 51.722656 19.109375 C 52.773438 19.390625 53.398438 20.210938 54.09375 21 C 54.398438 21.328125 54.703125 21.65625 55.007812 21.984375 C 55.136719 22.128906 55.269531 22.277344 55.40625 22.429688 C 55.730469 22.808594 55.730469 22.808594 56.25 22.75 C 56.589844 22.421875 56.921875 22.085938 57.25 21.75 C 57.832031 21.460938 58.195312 21.457031 58.84375 21.453125 C 59.132812 21.449219 59.132812 21.449219 59.425781 21.441406 C 60.328125 21.53125 60.84375 21.824219 61.4375 22.5 C 61.890625 23.585938 61.960938 24.59375 61.75 25.75 C 61.382812 26.320312 61.050781 26.585938 60.5 27 C 60.957031 28.210938 62.003906 28.980469 62.957031 29.808594 C 63.730469 30.53125 63.980469 30.90625 64.210938 31.972656 C 64.097656 33.351562 63.097656 34.121094 62.125 35 C 61.945312 35.167969 61.765625 35.339844 61.582031 35.515625 C 61.140625 35.933594 60.699219 36.34375 60.25 36.75 C 59.703125 36.488281 59.25 36.25 58.78125 35.859375 C 58.082031 35.386719 57.59375 35.285156 56.75 35.25 C 55.683594 35.585938 55.332031 35.863281 54.75 36.828125 C 54.460938 37.894531 54.511719 38.273438 55 39.25 C 55.5 39.953125 55.5 39.953125 56 40.5 C 55.5 41.585938 54.792969 42.335938 53.96875 43.1875 C 53.832031 43.335938 53.695312 43.488281 53.558594 43.640625 C 52.851562 44.371094 52.289062 44.855469 51.257812 44.957031 C 49.941406 44.84375 49.238281 43.941406 48.40625 43 C 48.105469 42.667969 47.800781 42.34375 47.496094 42.015625 C 47.363281 41.871094 47.230469 41.722656 47.097656 41.574219 C 46.765625 41.191406 46.765625 41.191406 46.25 41.25 C 45.910156 41.578125 45.578125 41.914062 45.25 42.25 C 44.378906 42.683594 43.449219 42.648438 42.5 42.5 C 41.730469 42.074219 41.148438 41.546875 40.75 40.75 C 40.613281 39.40625 40.613281 38.339844 41.5 37.25 C 41.746094 37.128906 41.746094 37.128906 42 37 C 41.542969 35.789062 40.496094 35.019531 39.542969 34.191406 C 38.769531 33.46875 38.519531 33.097656 38.292969 32.027344 C 38.40625 30.65625 39.355469 29.878906 40.3125 28.984375 C 40.480469 28.8125 40.65625 28.640625 40.828125 28.460938 C 41.78125 27.542969 41.78125 27.542969 42.25 27.25 C 42.996094 27.316406 43.199219 27.445312 43.71875 28 C 44.40625 28.648438 44.808594 28.730469 45.75 28.75 C 46.730469 28.421875 47.148438 28.148438 47.734375 27.296875 C 48.050781 26.355469 48.058594 25.941406 47.75 25 C 47.367188 24.378906 46.949219 23.828125 46.5 23.25 C 47.074219 22.574219 47.660156 21.914062 48.25 21.25 C 48.410156 21.058594 48.574219 20.867188 48.742188 20.671875 C 48.90625 20.492188 49.066406 20.308594 49.234375 20.125 C 49.382812 19.957031 49.527344 19.789062 49.679688 19.617188 C 50.355469 19.179688 50.917969 19.074219 51.722656 19.109375 Z M 51.722656 19.109375 "/>
<path style=" stroke:none;fill-rule:nonzero;fill:rgb(98.823529%,27.450982%,32.941177%);fill-opacity:1;" d="M 12.5 18.5 C 13.824219 19.601562 15.035156 20.765625 16.226562 22.007812 C 16.558594 22.347656 16.902344 22.675781 17.25 23 C 17.835938 23.058594 17.835938 23.058594 18.375 22.390625 C 18.683594 22.074219 18.683594 22.074219 19 21.75 C 19.894531 21.300781 20.8125 21.476562 21.75 21.75 C 22.460938 22.226562 22.890625 22.722656 23.25 23.5 C 23.363281 24.316406 23.28125 24.976562 23 25.75 C 22.359375 26.515625 22.359375 26.515625 21.75 27 C 22.097656 27.789062 22.503906 28.316406 23.121094 28.917969 C 23.289062 29.085938 23.453125 29.25 23.628906 29.421875 C 23.800781 29.59375 23.976562 29.761719 24.15625 29.9375 C 24.332031 30.113281 24.511719 30.285156 24.691406 30.464844 C 25.128906 30.894531 25.5625 31.324219 26 31.75 C 25.460938 32.960938 24.570312 33.761719 23.640625 34.6875 C 23.46875 34.863281 23.300781 35.035156 23.125 35.214844 C 22.960938 35.378906 22.796875 35.546875 22.625 35.714844 C 22.476562 35.863281 22.324219 36.015625 22.171875 36.171875 C 21.75 36.5 21.75 36.5 21 36.5 C 20.65625 36.175781 20.324219 35.84375 20 35.5 C 19.199219 35.101562 18.367188 35.125 17.5 35.25 C 16.796875 35.699219 16.371094 36.003906 16 36.75 C 15.914062 38.085938 15.890625 38.90625 16.75 40 C 16.914062 40.082031 17.078125 40.164062 17.25 40.25 C 17.109375 41.191406 16.71875 41.621094 16.046875 42.277344 C 15.761719 42.558594 15.761719 42.558594 15.46875 42.847656 C 15.265625 43.042969 15.066406 43.238281 14.859375 43.4375 C 14.65625 43.636719 14.453125 43.835938 14.246094 44.039062 C 13.75 44.527344 13.25 45.015625 12.75 45.5 C 11.488281 44.449219 10.324219 43.339844 9.183594 42.15625 C 8.882812 41.84375 8.566406 41.546875 8.25 41.25 C 7.695312 41.191406 7.695312 41.191406 7.25 41.734375 C 7.085938 41.90625 6.921875 42.074219 6.75 42.25 C 5.886719 42.679688 4.945312 42.59375 4 42.5 C 3.023438 42.085938 2.644531 41.714844 2.25 40.75 C 2.097656 39.753906 1.972656 38.6875 2.53125 37.808594 C 2.875 37.46875 2.875 37.46875 3.5 37 C 3.046875 35.789062 1.996094 35.019531 1.042969 34.191406 C 0.269531 33.46875 0.0195312 33.09375 -0.210938 32.027344 C -0.101562 30.648438 0.902344 29.878906 1.875 29 C 2.054688 28.828125 2.234375 28.660156 2.417969 28.484375 C 2.859375 28.066406 3.300781 27.65625 3.75 27.25 C 4.300781 27.511719 4.75 27.75 5.21875 28.140625 C 5.921875 28.613281 6.40625 28.714844 7.25 28.75 C 8.316406 28.414062 8.667969 28.136719 9.25 27.171875 C 9.539062 26.105469 9.488281 25.726562 9 24.75 C 8.496094 24.046875 8.496094 24.046875 8 23.5 C 8.359375 22.683594 8.792969 22.148438 9.425781 21.527344 C 9.601562 21.351562 9.78125 21.171875 9.964844 20.988281 C 10.152344 20.808594 10.339844 20.625 10.53125 20.4375 C 10.71875 20.25 10.90625 20.066406 11.101562 19.871094 C 11.566406 19.414062 12.03125 18.957031 12.5 18.5 Z M 12.5 18.5 "/>
<path style=" stroke:none;fill-rule:nonzero;fill:rgb(3.921569%,71.764708%,62.7451%);fill-opacity:1;" d="M 34.996094 40.792969 C 35.945312 41.183594 36.59375 41.945312 37.3125 42.65625 C 37.472656 42.808594 37.636719 42.960938 37.804688 43.113281 C 38.597656 43.898438 38.96875 44.300781 39.15625 45.425781 C 38.992188 46.296875 38.84375 46.628906 38.234375 47.25 C 38.078125 47.417969 37.917969 47.582031 37.757812 47.75 C 36.277344 49.210938 36.277344 49.210938 35.820312 49.640625 C 35.445312 49.980469 35.445312 49.980469 35.5 50.5 C 35.828125 50.839844 36.160156 51.171875 36.5 51.5 C 36.902344 52.304688 36.871094 53.128906 36.75 54 C 36.347656 54.777344 36 55.304688 35.3125 55.84375 C 34.453125 56.082031 33.632812 56.125 32.75 56 C 32.125 55.625 32.125 55.625 31.75 55.25 C 31.875 55.085938 31.996094 54.917969 32.125 54.75 C 32.589844 53.820312 32.722656 53.007812 32.5 52 C 32.21875 51.5625 32.21875 51.5625 31.859375 51.1875 C 31.660156 50.960938 31.457031 50.734375 31.25 50.5 C 31.320312 49.671875 31.632812 49.285156 32.234375 48.746094 C 32.382812 48.605469 32.527344 48.472656 32.675781 48.328125 C 32.988281 48.046875 33.296875 47.765625 33.605469 47.488281 C 34.515625 46.632812 34.515625 46.632812 34.90625 45.460938 C 34.722656 44.628906 34.472656 44.300781 33.875 43.703125 C 33 42.820312 33 42.820312 33 42 C 34.269531 40.730469 34.269531 40.730469 34.996094 40.792969 Z M 34.996094 40.792969 "/>
<path style=" stroke:none;fill-rule:nonzero;fill:rgb(31.37255%,40.000001%,81.568629%);fill-opacity:1;" d="M 34.25 14 C 34.769531 13.898438 34.769531 13.898438 35.5 14 C 36.132812 14.464844 36.652344 15.023438 37.1875 15.59375 C 37.335938 15.746094 37.484375 15.894531 37.636719 16.050781 C 38.945312 17.40625 38.945312 17.40625 39.125 18.539062 C 38.949219 19.910156 38.242188 20.453125 37.25 21.359375 C 37.082031 21.515625 36.914062 21.675781 36.746094 21.84375 C 36.332031 22.234375 35.917969 22.617188 35.5 23 C 35.773438 23.5625 36.039062 24.054688 36.40625 24.5625 C 36.859375 25.46875 36.953125 26.265625 36.75 27.25 C 36.3125 28.070312 35.710938 28.609375 34.9375 29.125 C 33.898438 29.3125 33 29.03125 32 28.75 C 32 28 32 28 32.25 27.578125 C 32.621094 26.71875 32.679688 25.90625 32.5 25 C 32.136719 24.402344 31.75 24 31.25 23.5 C 31.648438 22.488281 32.371094 21.828125 33.140625 21.09375 C 34.300781 20.023438 34.300781 20.023438 34.890625 18.59375 C 34.695312 17.417969 34.054688 16.960938 33.1875 16.183594 C 33.042969 16.039062 32.898438 15.898438 32.75 15.75 C 32.75 15.585938 32.75 15.421875 32.75 15.25 C 33.164062 14.996094 33.578125 14.746094 34 14.5 C 34.082031 14.335938 34.164062 14.171875 34.25 14 Z M 34.25 14 "/>
<path style=" stroke:none;fill-rule:nonzero;fill:rgb(100%,81.960785%,36.078432%);fill-opacity:1;" d="M 58.875 21.4375 C 59.0625 21.433594 59.253906 21.433594 59.445312 21.433594 C 60.332031 21.539062 60.851562 21.828125 61.4375 22.5 C 61.890625 23.585938 61.960938 24.59375 61.75 25.75 C 61.386719 26.320312 61.050781 26.585938 60.5 27 C 60.953125 28.210938 62.003906 28.980469 62.957031 29.808594 C 63.730469 30.53125 63.980469 30.90625 64.210938 31.972656 C 64.101562 33.351562 63.097656 34.121094 62.125 35 C 61.945312 35.171875 61.765625 35.339844 61.582031 35.515625 C 61.140625 35.933594 60.699219 36.34375 60.25 36.75 C 59.363281 36.324219 58.566406 35.804688 57.75 35.25 C 57.988281 34.96875 58.230469 34.6875 58.46875 34.40625 C 58.601562 34.25 58.734375 34.09375 58.871094 33.933594 C 59.152344 33.609375 59.449219 33.300781 59.75 33 C 59.90625 31.996094 59.996094 31.367188 59.421875 30.511719 C 58.96875 30.019531 58.496094 29.570312 58 29.125 C 57.832031 28.96875 57.664062 28.808594 57.496094 28.648438 C 57.082031 28.261719 56.671875 27.878906 56.25 27.5 C 56.515625 26.941406 56.726562 26.523438 57.15625 26.078125 C 57.695312 25.171875 57.640625 24.273438 57.5 23.25 C 57.167969 22.503906 57.167969 22.503906 56.75 22 C 57.488281 21.578125 58.023438 21.433594 58.875 21.4375 Z M 58.875 21.4375 "/>
<path style=" stroke:none;fill-rule:nonzero;fill:rgb(97.647059%,16.862746%,23.137255%);fill-opacity:1;" d="M 21.175781 21.570312 C 22.03125 21.839844 22.480469 22.257812 23.007812 22.972656 C 23.449219 23.933594 23.355469 24.777344 23 25.75 C 22.359375 26.515625 22.359375 26.515625 21.75 27 C 22.097656 27.785156 22.507812 28.3125 23.121094 28.917969 C 23.289062 29.085938 23.453125 29.25 23.628906 29.421875 C 23.890625 29.675781 23.890625 29.675781 24.15625 29.9375 C 24.332031 30.113281 24.511719 30.285156 24.691406 30.46875 C 25.128906 30.894531 25.5625 31.320312 26 31.75 C 25.460938 32.964844 24.570312 33.761719 23.640625 34.6875 C 23.46875 34.863281 23.300781 35.035156 23.125 35.21875 C 22.960938 35.378906 22.792969 35.542969 22.625 35.714844 C 22.476562 35.863281 22.324219 36.015625 22.171875 36.171875 C 21.75 36.5 21.75 36.5 21 36.5 C 20.65625 36.175781 20.324219 35.84375 20 35.5 C 19.835938 35.417969 19.667969 35.335938 19.5 35.25 C 19.9375 34.234375 20.585938 33.683594 21.410156 32.96875 C 21.800781 32.519531 21.800781 32.519531 21.789062 31.929688 C 21.265625 30.703125 20.183594 29.917969 19.210938 29.042969 C 18.769531 28.628906 18.363281 28.238281 18 27.75 C 17.992188 26.933594 18.101562 26.664062 18.640625 26.0625 C 19.320312 25 19.074219 23.683594 18.875 22.484375 C 18.835938 22.324219 18.792969 22.164062 18.75 22 C 19.675781 21.382812 20.105469 21.417969 21.175781 21.570312 Z M 21.175781 21.570312 "/>
<path style=" stroke:none;fill-rule:nonzero;fill:rgb(31.37255%,40.392157%,81.568629%);fill-opacity:1;" d="M 26.03125 5.609375 C 27.417969 5.8125 28.035156 6.535156 29 7.5 C 29.171875 7.652344 29.347656 7.804688 29.523438 7.960938 C 30.734375 9.058594 30.734375 9.058594 30.796875 9.890625 C 30.5 10.5 30.5 10.5 29.96875 11.203125 C 29.324219 12.300781 29.46875 12.777344 29.75 14 C 29.914062 14.246094 30.078125 14.496094 30.25 14.75 C 29.589844 15.410156 29.226562 15.5 28.28125 15.609375 C 27.210938 15.570312 26.578125 15.1875 25.75 14.5 C 25.140625 13.582031 25.039062 12.816406 25.25 11.75 C 25.539062 11.320312 25.539062 11.320312 25.890625 10.9375 C 26.5625 10.34375 26.5625 10.34375 26.476562 9.773438 C 26.179688 9.089844 25.769531 8.699219 25.234375 8.1875 C 24.957031 7.921875 24.957031 7.921875 24.679688 7.652344 C 24.535156 7.519531 24.394531 7.386719 24.25 7.25 C 24.699219 6.285156 24.925781 5.808594 26.03125 5.609375 Z M 26.03125 5.609375 "/>
<path style=" stroke:none;fill-rule:nonzero;fill:rgb(3.921569%,71.372551%,62.352943%);fill-opacity:1;" d="M 26.25 32 C 27.371094 32.921875 28.449219 33.890625 29.5 34.890625 C 29.628906 35.003906 29.753906 35.121094 29.882812 35.238281 C 30.234375 35.578125 30.234375 35.578125 30.75 36.25 C 30.726562 36.941406 30.726562 36.941406 30.5 37.5 C 30.375 37.609375 30.253906 37.71875 30.125 37.828125 C 29.511719 38.515625 29.492188 39.351562 29.5 40.25 C 29.710938 40.816406 29.710938 40.816406 30 41.25 C 30 41.496094 30 41.746094 30 42 C 29.078125 42.589844 28.328125 42.644531 27.25 42.5 C 26.433594 41.972656 25.691406 41.378906 25.25 40.5 C 25.144531 39.414062 25.191406 38.863281 25.71875 37.890625 C 25.984375 37.574219 25.984375 37.574219 26.25 37.25 C 26.414062 37.25 26.578125 37.25 26.75 37.25 C 26.414062 36.238281 25.988281 35.652344 25.21875 34.921875 C 25.039062 34.746094 24.859375 34.574219 24.671875 34.390625 C 24.53125 34.261719 24.390625 34.136719 24.25 34 C 24.488281 33.710938 24.726562 33.425781 24.96875 33.140625 C 25.101562 32.980469 25.234375 32.824219 25.371094 32.65625 C 25.75 32.25 25.75 32.25 26.25 32 Z M 26.25 32 "/>
<path style=" stroke:none;fill-rule:nonzero;fill:rgb(100%,81.960785%,35.686275%);fill-opacity:1;" d="M 54.25 35 C 54.875 35.5 54.875 35.5 55.25 36 C 55.113281 36.257812 54.984375 36.515625 54.84375 36.78125 C 54.535156 37.507812 54.496094 37.71875 54.640625 38.53125 C 55.015625 39.28125 55.445312 39.871094 56 40.5 C 55.5 41.585938 54.796875 42.332031 53.96875 43.1875 C 53.832031 43.335938 53.699219 43.488281 53.558594 43.640625 C 52.824219 44.398438 52.28125 44.855469 51.203125 44.925781 C 50.25 44.75 50.25 44.75 49.25 43.5 C 50.074219 42.675781 50.898438 41.851562 51.75 41 C 51.335938 40.046875 51.335938 40.046875 50.84375 39.578125 C 50.300781 38.664062 50.300781 37.78125 50.5 36.75 C 51.371094 35.191406 52.507812 34.734375 54.25 35 Z M 54.25 35 "/>
<path style=" stroke:none;fill-rule:nonzero;fill:rgb(97.647059%,16.862746%,22.745098%);fill-opacity:1;" d="M 15.75 35 C 15.996094 35.164062 16.246094 35.328125 16.5 35.5 C 16.417969 35.664062 16.335938 35.828125 16.25 36 C 15.835938 37.234375 15.789062 38.296875 16.34375 39.484375 C 16.710938 40.023438 16.710938 40.023438 17.25 40.25 C 17.109375 41.191406 16.71875 41.621094 16.046875 42.277344 C 15.855469 42.464844 15.664062 42.65625 15.46875 42.847656 C 15.167969 43.140625 15.167969 43.140625 14.859375 43.4375 C 14.65625 43.636719 14.453125 43.835938 14.246094 44.039062 C 13.75 44.527344 13.25 45.015625 12.75 45.5 C 12.453125 45.265625 12.164062 45.03125 11.875 44.796875 C 11.710938 44.667969 11.550781 44.535156 11.382812 44.402344 C 11 44 11 44 11 43.25 C 11.503906 42.726562 12.039062 42.261719 12.585938 41.78125 C 13.074219 41.273438 13.074219 41.273438 12.960938 40.585938 C 12.789062 39.984375 12.789062 39.984375 12.359375 39.5625 C 11.789062 38.667969 11.804688 37.78125 12 36.75 C 12.886719 35.164062 13.996094 34.796875 15.75 35 Z M 15.75 35 "/>
<path style=" stroke:none;fill-rule:nonzero;fill:rgb(3.921569%,72.156864%,62.7451%);fill-opacity:1;" d="M 27.140625 54.453125 C 27.894531 54.820312 28.566406 55.257812 29.25 55.75 C 28.75 56.875 28.042969 57.597656 27 58.25 C 26.078125 58.40625 26.078125 58.40625 25.25 58.25 C 24.640625 57.75 24.640625 57.75 24.25 57.25 C 24.789062 56.054688 25.742188 54.554688 27.140625 54.453125 Z M 27.140625 54.453125 "/>
<path style=" stroke:none;fill-rule:nonzero;fill:rgb(32.156864%,40.000001%,80.784315%);fill-opacity:1;" d="M 27.5 27.5 C 27.84375 27.824219 28.175781 28.15625 28.5 28.5 C 28.664062 28.582031 28.828125 28.664062 29 28.75 C 28.882812 29.828125 28.242188 30.335938 27.484375 31.0625 C 27.253906 31.285156 27.023438 31.507812 26.789062 31.738281 C 26.609375 31.90625 26.433594 32.074219 26.25 32.25 C 25.515625 31.539062 24.839844 30.835938 24.25 30 C 24.648438 29.578125 25.050781 29.164062 25.453125 28.75 C 25.675781 28.515625 25.898438 28.285156 26.128906 28.046875 C 26.75 27.5 26.75 27.5 27.5 27.5 Z M 27.5 27.5 "/>
<path style=" stroke:none;fill-rule:nonzero;fill:rgb(100%,81.960785%,36.078432%);fill-opacity:1;" d="M 51.1875 19.046875 C 52.433594 19.113281 53.074219 19.890625 53.882812 20.765625 C 54.25 21.25 54.25 21.25 54.25 21.75 C 53.839844 22.007812 53.421875 22.257812 53 22.5 C 52.835938 22.664062 52.671875 22.828125 52.5 23 C 51.484375 22.949219 50.984375 22.3125 50.3125 21.609375 C 50.011719 21.300781 50.011719 21.300781 49.707031 20.984375 C 49.554688 20.824219 49.40625 20.664062 49.25 20.5 C 49.816406 19.558594 50.09375 19.285156 51.1875 19.046875 Z M 51.1875 19.046875 "/>
<path style=" stroke:none;fill-rule:nonzero;fill:rgb(98.039216%,16.862746%,22.745098%);fill-opacity:1;" d="M 12.5 18.5 C 13.542969 19.375 14.578125 20.246094 15.5 21.25 C 15.5 21.414062 15.5 21.578125 15.5 21.75 C 14.8125 22.421875 14.8125 22.421875 14 23 C 12.984375 22.960938 12.484375 22.308594 11.8125 21.609375 C 11.511719 21.300781 11.511719 21.300781 11.207031 20.984375 C 11.054688 20.824219 10.90625 20.664062 10.75 20.5 C 10.996094 20.210938 11.238281 19.925781 11.484375 19.640625 C 11.621094 19.480469 11.757812 19.324219 11.898438 19.15625 C 12.09375 18.933594 12.289062 18.710938 12.5 18.5 Z M 12.5 18.5 "/>
</g>
</svg>
