<?xml version="1.0" encoding="UTF-8"?>
<svg xmlns="http://www.w3.org/2000/svg" xmlns:xlink="http://www.w3.org/1999/xlink" width="64" height="64" viewBox="0 0 64 64" version="1.1">
<g id="surface1">
<path style=" stroke:none;fill-rule:nonzero;fill:rgb(99.607843%,99.607843%,99.607843%);fill-opacity:1;" d="M 2.5 2.5 C 21.96875 2.5 41.441406 2.5 61.5 2.5 C 61.5 21.96875 61.5 41.441406 61.5 61.5 C 42.03125 61.5 22.558594 61.5 2.5 61.5 C 2.5 42.03125 2.5 22.558594 2.5 2.5 Z M 2.5 2.5 "/>
<path style=" stroke:none;fill-rule:nonzero;fill:rgb(16.078432%,16.078432%,19.607843%);fill-opacity:1;" d="M 2.5 2.5 C 21.96875 2.5 41.441406 2.5 61.5 2.5 C 61.5 21.96875 61.5 41.441406 61.5 61.5 C 42.03125 61.5 22.558594 61.5 2.5 61.5 C 2.5 42.03125 2.5 22.558594 2.5 2.5 Z M 8 8 C 8 23.839844 8 39.679688 8 56 C 23.839844 56 39.679688 56 56 56 C 56 40.160156 56 24.320312 56 8 C 40.160156 8 24.320312 8 8 8 Z M 8 8 "/>
<path style=" stroke:none;fill-rule:nonzero;fill:rgb(72.549021%,85.09804%,95.686275%);fill-opacity:1;" d="M 8 8 C 23.839844 8 39.679688 8 56 8 C 56 9.734375 56 11.464844 56 13.25 C 54.824219 13.21875 54.824219 13.21875 53.628906 13.191406 C 51.023438 13.128906 48.414062 13.09375 45.808594 13.074219 C 44.230469 13.0625 42.652344 13.042969 41.074219 12.996094 C 33.890625 12.324219 33.890625 12.324219 27.515625 14.6875 C 26.871094 15.386719 26.308594 16.105469 25.746094 16.871094 C 24.828125 18.074219 24.175781 18.84375 22.628906 19.121094 C 20.503906 19.371094 18.355469 19.25 16.222656 19.109375 C 15.292969 19.054688 14.363281 19.03125 13.429688 19.007812 C 11.617188 18.953125 9.816406 18.851562 8 18.75 C 8 15.203125 8 11.65625 8 8 Z M 8 8 "/>
<path style=" stroke:none;fill-rule:nonzero;fill:rgb(16.470589%,16.470589%,20%);fill-opacity:1;" d="M 29.25 34.75 C 36.34375 34.75 43.441406 34.75 50.75 34.75 C 50.75 36.484375 50.75 38.214844 50.75 40 C 43.65625 40 36.558594 40 29.25 40 C 29.25 38.265625 29.25 36.535156 29.25 34.75 Z M 29.25 34.75 "/>
<path style=" stroke:none;fill-rule:nonzero;fill:rgb(18.82353%,18.82353%,22.352941%);fill-opacity:1;" d="M 29.25 45.25 C 34.53125 45.25 39.808594 45.25 45.25 45.25 C 45.25 47.066406 45.25 48.878906 45.25 50.75 C 39.96875 50.75 34.691406 50.75 29.25 50.75 C 29.25 48.933594 29.25 47.121094 29.25 45.25 Z M 29.25 45.25 "/>
<path style=" stroke:none;fill-rule:nonzero;fill:rgb(16.078432%,16.078432%,19.607843%);fill-opacity:1;" d="M 24 24 C 29.28125 24 34.558594 24 40 24 C 40 25.734375 40 27.464844 40 29.25 C 34.71875 29.25 29.441406 29.25 24 29.25 C 24 27.515625 24 25.785156 24 24 Z M 24 24 "/>
<path style=" stroke:none;fill-rule:nonzero;fill:rgb(2.745098%,52.941179%,94.117647%);fill-opacity:1;" d="M 18.75 45.25 C 20.484375 45.25 22.214844 45.25 24 45.25 C 24 47.066406 24 48.878906 24 50.75 C 22.265625 50.75 20.535156 50.75 18.75 50.75 C 18.75 48.933594 18.75 47.121094 18.75 45.25 Z M 18.75 45.25 "/>
<path style=" stroke:none;fill-rule:nonzero;fill:rgb(2.745098%,52.941179%,94.117647%);fill-opacity:1;" d="M 13.25 24 C 15.066406 24 16.878906 24 18.75 24 C 18.75 25.734375 18.75 27.464844 18.75 29.25 C 16.933594 29.25 15.121094 29.25 13.25 29.25 C 13.25 27.515625 13.25 25.785156 13.25 24 Z M 13.25 24 "/>
<path style=" stroke:none;fill-rule:nonzero;fill:rgb(0%,51.764709%,94.117647%);fill-opacity:1;" d="M 18.75 34.75 C 20.484375 34.75 22.214844 34.75 24 34.75 C 24 36.484375 24 38.214844 24 40 C 22.265625 40 20.535156 40 18.75 40 C 18.75 38.265625 18.75 36.535156 18.75 34.75 Z M 18.75 34.75 "/>
</g>
</svg>
