<?xml version="1.0" encoding="UTF-8"?>
<svg xmlns="http://www.w3.org/2000/svg" xmlns:xlink="http://www.w3.org/1999/xlink" width="64" height="64" viewBox="0 0 64 64" version="1.1">
<g id="surface1">
<path style=" stroke:none;fill-rule:nonzero;fill:rgb(94.509804%,38.039216%,45.882353%);fill-opacity:1;" d="M 5.066406 41.394531 C 5.382812 41.390625 5.703125 41.386719 6.027344 41.382812 C 6.371094 41.382812 6.714844 41.382812 7.0625 41.382812 C 7.417969 41.378906 7.769531 41.378906 8.125 41.378906 C 8.871094 41.371094 9.613281 41.371094 10.355469 41.375 C 11.308594 41.375 12.257812 41.367188 13.210938 41.359375 C 13.945312 41.351562 14.675781 41.351562 15.410156 41.351562 C 15.757812 41.351562 16.113281 41.351562 16.460938 41.34375 C 16.953125 41.339844 17.445312 41.34375 17.933594 41.34375 C 18.210938 41.34375 18.492188 41.34375 18.777344 41.34375 C 19.5 41.5 19.5 41.5 20.089844 42.101562 C 20.507812 42.757812 20.621094 43.042969 20.597656 43.800781 C 20.597656 43.96875 20.59375 44.140625 20.589844 44.316406 C 20.582031 44.523438 20.570312 44.734375 20.5625 44.953125 C 20.542969 45.628906 20.519531 46.304688 20.5 47 C 22.605469 46.875 22.605469 46.875 24.75 46.75 C 24.335938 46.335938 23.925781 45.925781 23.5 45.5 C 23.546875 44.921875 23.546875 44.921875 23.75 44.5 C 24.585938 44.867188 25.175781 45.335938 25.828125 45.96875 C 26.007812 46.136719 26.1875 46.308594 26.371094 46.484375 C 26.75 47 26.75 47 26.753906 47.488281 C 26.402344 48.195312 25.925781 48.644531 25.359375 49.1875 C 25.152344 49.386719 24.945312 49.585938 24.734375 49.792969 C 24.574219 49.945312 24.414062 50.09375 24.25 50.25 C 23.878906 50.125 23.878906 50.125 23.5 50 C 23.65625 49.09375 23.792969 48.957031 24.5 48.25 C 23.179688 48.167969 21.859375 48.085938 20.5 48 C 20.5 49.402344 20.5 50.804688 20.5 52.25 C 23.304688 52.25 26.109375 52.25 29 52.25 C 28.988281 51.558594 28.976562 50.863281 28.964844 50.152344 C 28.957031 49.484375 28.953125 48.808594 28.945312 48.140625 C 28.9375 47.671875 28.933594 47.207031 28.925781 46.738281 C 28.910156 46.070312 28.90625 45.398438 28.902344 44.730469 C 28.894531 44.523438 28.890625 44.316406 28.886719 44.101562 C 28.886719 43.808594 28.886719 43.808594 28.886719 43.507812 C 28.882812 43.335938 28.882812 43.167969 28.878906 42.988281 C 29.058594 42.265625 29.433594 41.972656 30 41.5 C 30.597656 41.375 30.597656 41.375 31.269531 41.375 C 31.527344 41.371094 31.785156 41.371094 32.050781 41.367188 C 32.328125 41.371094 32.609375 41.371094 32.894531 41.375 C 33.339844 41.371094 33.339844 41.371094 33.792969 41.371094 C 34.605469 41.367188 35.417969 41.371094 36.226562 41.375 C 37.078125 41.378906 37.925781 41.375 38.773438 41.375 C 40.199219 41.375 41.625 41.378906 43.050781 41.382812 C 44.699219 41.390625 46.347656 41.390625 47.992188 41.386719 C 49.582031 41.386719 51.167969 41.386719 52.75 41.390625 C 53.425781 41.390625 54.101562 41.390625 54.777344 41.390625 C 55.71875 41.390625 56.660156 41.390625 57.601562 41.398438 C 57.882812 41.398438 58.160156 41.398438 58.453125 41.394531 C 58.707031 41.398438 58.964844 41.398438 59.230469 41.402344 C 59.5625 41.40625 59.5625 41.40625 59.902344 41.40625 C 60.625 41.519531 60.972656 41.757812 61.5 42.25 C 61.621094 42.71875 61.621094 42.71875 61.613281 43.253906 C 61.613281 43.453125 61.613281 43.652344 61.613281 43.859375 C 61.609375 44.074219 61.605469 44.289062 61.597656 44.511719 C 61.597656 44.734375 61.59375 44.953125 61.59375 45.179688 C 61.589844 45.886719 61.578125 46.589844 61.5625 47.296875 C 61.554688 47.773438 61.554688 48.253906 61.550781 48.734375 C 61.539062 49.90625 61.519531 51.078125 61.5 52.25 C 61.746094 52.332031 61.992188 52.414062 62.25 52.5 C 62.167969 52.746094 62.082031 52.996094 62 53.25 C 42.199219 53.25 22.398438 53.25 2 53.25 C 2 52.921875 2 52.589844 2 52.25 C 2.164062 52.25 2.328125 52.25 2.5 52.25 C 2.492188 51.949219 2.488281 51.652344 2.484375 51.34375 C 2.464844 50.234375 2.453125 49.128906 2.445312 48.015625 C 2.4375 47.539062 2.433594 47.058594 2.425781 46.578125 C 2.410156 45.890625 2.40625 45.199219 2.402344 44.511719 C 2.394531 44.296875 2.390625 44.078125 2.386719 43.859375 C 2.386719 43.558594 2.386719 43.558594 2.386719 43.253906 C 2.382812 43.078125 2.382812 42.898438 2.378906 42.71875 C 2.5 42.25 2.5 42.25 2.910156 41.820312 C 3.667969 41.410156 4.207031 41.402344 5.066406 41.394531 Z M 5.066406 41.394531 "/>
<path style=" stroke:none;fill-rule:nonzero;fill:rgb(61.176473%,61.176473%,61.56863%);fill-opacity:1;" d="M 31.28125 7.875 C 31.671875 7.871094 31.671875 7.871094 32.066406 7.867188 C 32.351562 7.871094 32.632812 7.871094 32.925781 7.875 C 33.371094 7.871094 33.371094 7.871094 33.832031 7.871094 C 34.648438 7.867188 35.46875 7.871094 36.285156 7.875 C 37.144531 7.878906 38 7.875 38.859375 7.875 C 40.296875 7.875 41.734375 7.878906 43.171875 7.882812 C 44.835938 7.890625 46.5 7.890625 48.164062 7.886719 C 49.761719 7.882812 51.363281 7.886719 52.960938 7.890625 C 53.644531 7.890625 54.324219 7.890625 55.007812 7.890625 C 55.957031 7.890625 56.90625 7.894531 57.859375 7.898438 C 58.140625 7.898438 58.425781 7.898438 58.71875 7.894531 C 58.976562 7.898438 59.234375 7.898438 59.5 7.902344 C 59.835938 7.90625 59.835938 7.90625 60.179688 7.90625 C 60.863281 8.019531 61.085938 8.203125 61.5 8.75 C 61.597656 9.226562 61.597656 9.226562 61.601562 9.765625 C 61.605469 10.066406 61.605469 10.066406 61.609375 10.378906 C 61.609375 10.597656 61.609375 10.816406 61.609375 11.039062 C 61.609375 11.265625 61.609375 11.488281 61.613281 11.71875 C 61.613281 12.195312 61.613281 12.667969 61.613281 13.144531 C 61.609375 13.871094 61.617188 14.601562 61.625 15.328125 C 61.625 15.789062 61.625 16.25 61.625 16.710938 C 61.628906 16.929688 61.628906 17.148438 61.632812 17.371094 C 61.628906 17.574219 61.628906 17.777344 61.625 17.984375 C 61.625 18.164062 61.625 18.34375 61.625 18.523438 C 61.441406 19.214844 61.101562 19.382812 60.5 19.75 C 59.902344 19.84375 59.902344 19.84375 59.226562 19.847656 C 58.972656 19.851562 58.714844 19.851562 58.449219 19.855469 C 58.171875 19.851562 57.890625 19.851562 57.601562 19.851562 C 57.15625 19.855469 57.15625 19.855469 56.707031 19.855469 C 55.894531 19.859375 55.082031 19.859375 54.273438 19.859375 C 53.59375 19.855469 52.917969 19.859375 52.238281 19.863281 C 50.644531 19.863281 49.046875 19.863281 47.449219 19.863281 C 45.800781 19.859375 44.152344 19.863281 42.503906 19.871094 C 41.089844 19.875 39.675781 19.878906 38.261719 19.875 C 37.414062 19.875 36.566406 19.875 35.722656 19.878906 C 34.78125 19.882812 33.839844 19.878906 32.898438 19.875 C 32.476562 19.878906 32.476562 19.878906 32.050781 19.882812 C 31.792969 19.878906 31.535156 19.878906 31.273438 19.875 C 31.046875 19.875 30.824219 19.875 30.597656 19.875 C 29.808594 19.710938 29.503906 19.363281 29 18.75 C 28.871094 18.265625 28.871094 18.265625 28.871094 17.757812 C 28.867188 17.566406 28.863281 17.375 28.859375 17.175781 C 28.863281 16.96875 28.863281 16.765625 28.867188 16.554688 C 28.863281 16.34375 28.863281 16.128906 28.863281 15.910156 C 28.863281 15.460938 28.863281 15.011719 28.871094 14.566406 C 28.875 13.878906 28.871094 13.191406 28.863281 12.503906 C 28.863281 12.066406 28.863281 11.632812 28.867188 11.195312 C 28.863281 10.988281 28.863281 10.785156 28.859375 10.574219 C 28.863281 10.382812 28.867188 10.191406 28.871094 9.992188 C 28.871094 9.824219 28.871094 9.65625 28.871094 9.484375 C 29.199219 8.246094 30.097656 7.875 31.28125 7.875 Z M 31.28125 7.875 "/>
<path style=" stroke:none;fill-rule:nonzero;fill:rgb(38.039216%,72.156864%,89.019608%);fill-opacity:1;" d="M 31.269531 24.625 C 31.527344 24.621094 31.785156 24.621094 32.050781 24.617188 C 32.328125 24.621094 32.609375 24.621094 32.894531 24.625 C 33.339844 24.621094 33.339844 24.621094 33.792969 24.621094 C 34.605469 24.617188 35.417969 24.621094 36.226562 24.625 C 37.078125 24.628906 37.925781 24.625 38.773438 24.625 C 40.199219 24.625 41.625 24.628906 43.050781 24.632812 C 44.699219 24.640625 46.347656 24.640625 47.992188 24.636719 C 49.582031 24.632812 51.167969 24.636719 52.75 24.640625 C 53.425781 24.640625 54.101562 24.640625 54.777344 24.640625 C 55.71875 24.640625 56.660156 24.644531 57.601562 24.648438 C 57.882812 24.648438 58.160156 24.648438 58.453125 24.644531 C 58.707031 24.648438 58.964844 24.648438 59.230469 24.652344 C 59.5625 24.65625 59.5625 24.65625 59.902344 24.65625 C 60.625 24.769531 60.96875 25.007812 61.5 25.5 C 61.625 25.976562 61.625 25.976562 61.628906 26.515625 C 61.632812 26.71875 61.636719 26.917969 61.640625 27.128906 C 61.636719 27.347656 61.632812 27.566406 61.632812 27.789062 C 61.632812 28.015625 61.632812 28.238281 61.636719 28.46875 C 61.636719 28.945312 61.632812 29.417969 61.632812 29.894531 C 61.625 30.621094 61.632812 31.351562 61.636719 32.078125 C 61.636719 32.539062 61.632812 33 61.632812 33.460938 C 61.632812 33.679688 61.636719 33.898438 61.640625 34.121094 C 61.632812 34.425781 61.632812 34.425781 61.628906 34.734375 C 61.628906 34.914062 61.628906 35.09375 61.625 35.273438 C 61.441406 35.964844 61.097656 36.132812 60.5 36.5 C 59.902344 36.59375 59.902344 36.59375 59.230469 36.597656 C 58.972656 36.601562 58.714844 36.601562 58.453125 36.605469 C 58.171875 36.601562 57.890625 36.601562 57.601562 36.601562 C 57.160156 36.605469 57.160156 36.605469 56.707031 36.605469 C 55.894531 36.609375 55.082031 36.609375 54.273438 36.609375 C 53.597656 36.605469 52.917969 36.609375 52.242188 36.613281 C 50.644531 36.613281 49.046875 36.613281 47.449219 36.613281 C 45.800781 36.609375 44.152344 36.613281 42.503906 36.621094 C 41.089844 36.625 39.675781 36.628906 38.257812 36.625 C 37.414062 36.625 36.570312 36.625 35.722656 36.628906 C 34.78125 36.632812 33.839844 36.628906 32.894531 36.625 C 32.476562 36.628906 32.476562 36.628906 32.050781 36.632812 C 31.792969 36.628906 31.535156 36.628906 31.269531 36.625 C 31.050781 36.625 30.828125 36.625 30.597656 36.625 C 29.804688 36.460938 29.503906 36.113281 29 35.5 C 28.875 35.015625 28.875 35.015625 28.871094 34.507812 C 28.867188 34.316406 28.863281 34.125 28.863281 33.925781 C 28.863281 33.71875 28.863281 33.515625 28.867188 33.304688 C 28.867188 33.09375 28.867188 32.878906 28.863281 32.660156 C 28.863281 32.210938 28.867188 31.761719 28.867188 31.316406 C 28.875 30.628906 28.867188 29.941406 28.863281 29.253906 C 28.863281 28.816406 28.867188 28.382812 28.867188 27.945312 C 28.863281 27.738281 28.863281 27.535156 28.863281 27.324219 C 28.863281 27.132812 28.867188 26.941406 28.871094 26.742188 C 28.871094 26.574219 28.871094 26.40625 28.875 26.234375 C 29.195312 25.003906 30.089844 24.625 31.269531 24.625 Z M 31.269531 24.625 "/>
<path style=" stroke:none;fill-rule:nonzero;fill:rgb(94.901961%,38.039216%,45.882353%);fill-opacity:1;" d="M 5.066406 41.394531 C 5.382812 41.390625 5.703125 41.386719 6.027344 41.382812 C 6.371094 41.382812 6.714844 41.382812 7.0625 41.382812 C 7.417969 41.378906 7.769531 41.378906 8.125 41.378906 C 8.871094 41.371094 9.613281 41.371094 10.355469 41.375 C 11.308594 41.375 12.257812 41.367188 13.210938 41.359375 C 13.945312 41.351562 14.675781 41.351562 15.410156 41.351562 C 15.757812 41.351562 16.113281 41.351562 16.460938 41.34375 C 16.953125 41.339844 17.445312 41.34375 17.933594 41.34375 C 18.210938 41.34375 18.492188 41.34375 18.777344 41.34375 C 19.5 41.5 19.5 41.5 20.089844 42.101562 C 20.507812 42.757812 20.621094 43.042969 20.597656 43.800781 C 20.597656 43.96875 20.59375 44.140625 20.589844 44.316406 C 20.582031 44.523438 20.570312 44.734375 20.5625 44.953125 C 20.542969 45.628906 20.519531 46.304688 20.5 47 C 22.605469 46.875 22.605469 46.875 24.75 46.75 C 24.335938 46.335938 23.925781 45.925781 23.5 45.5 C 23.546875 44.921875 23.546875 44.921875 23.75 44.5 C 24.585938 44.867188 25.175781 45.335938 25.828125 45.96875 C 26.007812 46.136719 26.1875 46.308594 26.371094 46.484375 C 26.75 47 26.75 47 26.753906 47.488281 C 26.402344 48.195312 25.925781 48.644531 25.359375 49.1875 C 25.152344 49.386719 24.945312 49.585938 24.734375 49.792969 C 24.574219 49.945312 24.414062 50.09375 24.25 50.25 C 23.878906 50.125 23.878906 50.125 23.5 50 C 23.65625 49.09375 23.792969 48.957031 24.5 48.25 C 23.179688 48.167969 21.859375 48.085938 20.5 48 C 20.5 49.402344 20.5 50.804688 20.5 52.25 C 23.304688 52.25 26.109375 52.25 29 52.25 C 28.988281 51.558594 28.976562 50.863281 28.964844 50.152344 C 28.957031 49.484375 28.953125 48.808594 28.945312 48.140625 C 28.9375 47.671875 28.933594 47.207031 28.925781 46.738281 C 28.910156 46.070312 28.90625 45.398438 28.902344 44.730469 C 28.894531 44.523438 28.890625 44.316406 28.886719 44.101562 C 28.886719 43.808594 28.886719 43.808594 28.886719 43.507812 C 28.882812 43.335938 28.882812 43.167969 28.878906 42.988281 C 29.058594 42.265625 29.433594 41.972656 30 41.5 C 30.597656 41.375 30.597656 41.375 31.269531 41.375 C 31.527344 41.371094 31.785156 41.371094 32.050781 41.367188 C 32.328125 41.371094 32.609375 41.371094 32.894531 41.375 C 33.339844 41.371094 33.339844 41.371094 33.792969 41.371094 C 34.605469 41.367188 35.417969 41.371094 36.226562 41.375 C 37.078125 41.378906 37.925781 41.375 38.773438 41.375 C 40.199219 41.375 41.625 41.378906 43.050781 41.382812 C 44.699219 41.390625 46.347656 41.390625 47.992188 41.386719 C 49.582031 41.386719 51.167969 41.386719 52.75 41.390625 C 53.425781 41.390625 54.101562 41.390625 54.777344 41.390625 C 55.71875 41.390625 56.660156 41.390625 57.601562 41.398438 C 57.882812 41.398438 58.160156 41.398438 58.453125 41.394531 C 58.707031 41.398438 58.964844 41.398438 59.230469 41.402344 C 59.5625 41.40625 59.5625 41.40625 59.902344 41.40625 C 60.625 41.519531 60.972656 41.757812 61.5 42.25 C 61.621094 42.71875 61.621094 42.71875 61.613281 43.253906 C 61.613281 43.453125 61.613281 43.652344 61.613281 43.859375 C 61.609375 44.074219 61.605469 44.289062 61.597656 44.511719 C 61.597656 44.734375 61.59375 44.953125 61.59375 45.179688 C 61.589844 45.886719 61.578125 46.589844 61.5625 47.296875 C 61.554688 47.773438 61.554688 48.253906 61.550781 48.734375 C 61.539062 49.90625 61.519531 51.078125 61.5 52.25 C 61.746094 52.332031 61.992188 52.414062 62.25 52.5 C 62.167969 52.746094 62.082031 52.996094 62 53.25 C 42.199219 53.25 22.398438 53.25 2 53.25 C 2 52.921875 2 52.589844 2 52.25 C 2.164062 52.25 2.328125 52.25 2.5 52.25 C 2.492188 51.949219 2.488281 51.652344 2.484375 51.34375 C 2.464844 50.234375 2.453125 49.128906 2.445312 48.015625 C 2.4375 47.539062 2.433594 47.058594 2.425781 46.578125 C 2.410156 45.890625 2.40625 45.199219 2.402344 44.511719 C 2.394531 44.296875 2.390625 44.078125 2.386719 43.859375 C 2.386719 43.558594 2.386719 43.558594 2.386719 43.253906 C 2.382812 43.078125 2.382812 42.898438 2.378906 42.71875 C 2.5 42.25 2.5 42.25 2.910156 41.820312 C 3.667969 41.410156 4.207031 41.402344 5.066406 41.394531 Z M 30 42.75 C 29.972656 43.429688 29.957031 44.101562 29.957031 44.78125 C 29.957031 44.984375 29.957031 45.1875 29.957031 45.398438 C 29.953125 45.828125 29.953125 46.261719 29.953125 46.691406 C 29.953125 47.355469 29.949219 48.015625 29.945312 48.679688 C 29.945312 49.101562 29.941406 49.515625 29.941406 49.9375 C 29.941406 50.136719 29.9375 50.335938 29.9375 50.539062 C 29.894531 51.636719 29.894531 51.636719 30.5 52.5 C 31.046875 52.574219 31.046875 52.574219 31.6875 52.5625 C 31.9375 52.566406 32.1875 52.566406 32.445312 52.566406 C 32.722656 52.566406 32.996094 52.566406 33.277344 52.566406 C 33.714844 52.566406 33.714844 52.566406 34.15625 52.566406 C 35.117188 52.570312 36.078125 52.566406 37.039062 52.566406 C 37.703125 52.566406 38.367188 52.566406 39.035156 52.566406 C 40.429688 52.566406 41.828125 52.566406 43.222656 52.566406 C 44.835938 52.5625 46.449219 52.5625 48.0625 52.566406 C 49.449219 52.566406 50.832031 52.566406 52.21875 52.566406 C 53.046875 52.566406 53.875 52.566406 54.703125 52.566406 C 55.625 52.570312 56.550781 52.566406 57.472656 52.566406 C 57.746094 52.566406 58.019531 52.566406 58.304688 52.566406 C 58.554688 52.566406 58.804688 52.566406 59.0625 52.5625 C 59.390625 52.5625 59.390625 52.5625 59.726562 52.5625 C 60.304688 52.546875 60.304688 52.546875 60.75 52 C 60.796875 51.300781 60.8125 50.632812 60.804688 49.9375 C 60.804688 49.734375 60.804688 49.527344 60.804688 49.316406 C 60.804688 48.886719 60.804688 48.453125 60.800781 48.023438 C 60.796875 47.359375 60.796875 46.699219 60.796875 46.035156 C 60.796875 45.617188 60.792969 45.199219 60.792969 44.78125 C 60.792969 44.578125 60.792969 44.382812 60.792969 44.175781 C 60.867188 43.261719 60.867188 43.261719 60.5 42.5 C 60.109375 42.476562 59.714844 42.46875 59.324219 42.46875 C 59.070312 42.46875 58.8125 42.46875 58.550781 42.464844 C 58.269531 42.46875 57.988281 42.46875 57.699219 42.46875 C 57.257812 42.46875 57.257812 42.46875 56.804688 42.46875 C 55.996094 42.464844 55.183594 42.464844 54.375 42.46875 C 53.527344 42.46875 52.679688 42.46875 51.835938 42.464844 C 50.414062 42.464844 48.992188 42.464844 47.570312 42.46875 C 45.925781 42.46875 44.277344 42.46875 42.632812 42.46875 C 41.222656 42.464844 39.8125 42.464844 38.402344 42.46875 C 37.558594 42.46875 36.714844 42.46875 35.871094 42.464844 C 34.929688 42.464844 33.992188 42.464844 33.050781 42.46875 C 32.628906 42.46875 32.628906 42.46875 32.199219 42.464844 C 31.816406 42.46875 31.816406 42.46875 31.425781 42.46875 C 31.203125 42.46875 30.980469 42.46875 30.75 42.46875 C 30.25 42.445312 30.25 42.445312 30 42.75 Z M 30 42.75 "/>
<path style=" stroke:none;fill-rule:nonzero;fill:rgb(61.56863%,61.56863%,61.56863%);fill-opacity:1;" d="M 5.066406 7.894531 C 5.382812 7.890625 5.703125 7.886719 6.027344 7.882812 C 6.371094 7.882812 6.714844 7.882812 7.0625 7.882812 C 7.417969 7.878906 7.769531 7.878906 8.125 7.878906 C 8.871094 7.871094 9.613281 7.871094 10.355469 7.875 C 11.308594 7.875 12.257812 7.867188 13.210938 7.859375 C 13.945312 7.851562 14.675781 7.851562 15.410156 7.851562 C 15.757812 7.851562 16.113281 7.851562 16.460938 7.84375 C 16.953125 7.839844 17.445312 7.84375 17.933594 7.84375 C 18.210938 7.84375 18.492188 7.84375 18.777344 7.84375 C 19.5 8 19.5 8 20.089844 8.601562 C 20.507812 9.257812 20.621094 9.542969 20.597656 10.300781 C 20.597656 10.46875 20.59375 10.640625 20.589844 10.816406 C 20.582031 11.023438 20.570312 11.234375 20.5625 11.453125 C 20.542969 12.128906 20.519531 12.804688 20.5 13.5 C 22.605469 13.375 22.605469 13.375 24.75 13.25 C 24.335938 12.835938 23.925781 12.425781 23.5 12 C 23.546875 11.421875 23.546875 11.421875 23.75 11 C 24.585938 11.367188 25.175781 11.835938 25.828125 12.46875 C 26.007812 12.636719 26.1875 12.808594 26.371094 12.984375 C 26.75 13.5 26.75 13.5 26.753906 13.988281 C 26.402344 14.695312 25.925781 15.144531 25.359375 15.6875 C 25.152344 15.886719 24.945312 16.085938 24.734375 16.292969 C 24.574219 16.445312 24.414062 16.59375 24.25 16.75 C 23.878906 16.625 23.878906 16.625 23.5 16.5 C 23.652344 15.445312 23.894531 15.359375 24.75 14.5 C 23.347656 14.417969 21.945312 14.335938 20.5 14.25 C 20.511719 14.5625 20.523438 14.878906 20.535156 15.199219 C 20.542969 15.613281 20.554688 16.023438 20.5625 16.4375 C 20.570312 16.640625 20.578125 16.851562 20.589844 17.0625 C 20.59375 17.363281 20.59375 17.363281 20.597656 17.667969 C 20.605469 17.941406 20.605469 17.941406 20.613281 18.222656 C 20.449219 18.992188 20.109375 19.261719 19.5 19.75 C 18.769531 19.875 18.769531 19.875 17.90625 19.875 C 17.421875 19.878906 17.421875 19.878906 16.929688 19.882812 C 16.578125 19.878906 16.226562 19.878906 15.875 19.875 C 15.515625 19.875 15.152344 19.875 14.792969 19.875 C 14.035156 19.875 13.277344 19.871094 12.523438 19.867188 C 11.554688 19.859375 10.582031 19.859375 9.617188 19.863281 C 8.871094 19.863281 8.125 19.863281 7.382812 19.859375 C 7.023438 19.859375 6.667969 19.859375 6.308594 19.859375 C 5.808594 19.859375 5.308594 19.855469 4.8125 19.851562 C 4.527344 19.851562 4.242188 19.847656 3.953125 19.847656 C 3.25 19.75 3.25 19.75 2.785156 19.433594 C 2.4375 18.90625 2.402344 18.609375 2.398438 17.984375 C 2.394531 17.78125 2.390625 17.578125 2.390625 17.371094 C 2.390625 17.152344 2.390625 16.933594 2.390625 16.710938 C 2.390625 16.375 2.390625 16.375 2.386719 16.03125 C 2.386719 15.554688 2.386719 15.078125 2.390625 14.605469 C 2.390625 13.878906 2.382812 13.148438 2.375 12.421875 C 2.375 11.960938 2.375 11.5 2.375 11.039062 C 2.375 10.820312 2.371094 10.601562 2.367188 10.378906 C 2.367188 10.175781 2.371094 9.972656 2.375 9.765625 C 2.375 9.585938 2.375 9.40625 2.375 9.226562 C 2.5 8.75 2.5 8.75 2.910156 8.316406 C 3.667969 7.910156 4.207031 7.902344 5.066406 7.894531 Z M 5.066406 7.894531 "/>
<path style=" stroke:none;fill-rule:nonzero;fill:rgb(38.431373%,73.333335%,90.196079%);fill-opacity:1;" d="M 5.066406 24.644531 C 5.382812 24.640625 5.703125 24.636719 6.027344 24.632812 C 6.371094 24.632812 6.714844 24.632812 7.0625 24.632812 C 7.417969 24.628906 7.769531 24.628906 8.125 24.628906 C 8.871094 24.621094 9.613281 24.621094 10.355469 24.625 C 11.308594 24.625 12.257812 24.617188 13.210938 24.609375 C 13.945312 24.601562 14.675781 24.601562 15.410156 24.601562 C 15.757812 24.601562 16.113281 24.601562 16.460938 24.59375 C 16.953125 24.589844 17.445312 24.59375 17.933594 24.59375 C 18.210938 24.59375 18.492188 24.59375 18.777344 24.59375 C 19.5 24.75 19.5 24.75 20.089844 25.351562 C 20.507812 26.007812 20.621094 26.292969 20.597656 27.050781 C 20.597656 27.21875 20.59375 27.390625 20.589844 27.566406 C 20.582031 27.773438 20.570312 27.984375 20.5625 28.203125 C 20.542969 28.878906 20.519531 29.554688 20.5 30.25 C 22.605469 30.125 22.605469 30.125 24.75 30 C 24.335938 29.585938 23.925781 29.175781 23.5 28.75 C 23.546875 28.171875 23.546875 28.171875 23.75 27.75 C 24.585938 28.117188 25.175781 28.585938 25.828125 29.21875 C 26.007812 29.386719 26.1875 29.558594 26.371094 29.734375 C 26.75 30.25 26.75 30.25 26.753906 30.738281 C 26.402344 31.445312 25.925781 31.894531 25.359375 32.4375 C 25.152344 32.636719 24.945312 32.835938 24.734375 33.042969 C 24.574219 33.195312 24.414062 33.34375 24.25 33.5 C 23.878906 33.375 23.878906 33.375 23.5 33.25 C 23.652344 32.195312 23.894531 32.109375 24.75 31.25 C 23.347656 31.167969 21.945312 31.085938 20.5 31 C 20.539062 32.34375 20.539062 32.34375 20.589844 33.683594 C 20.589844 33.855469 20.59375 34.023438 20.597656 34.199219 C 20.605469 34.371094 20.609375 34.539062 20.613281 34.71875 C 20.441406 35.519531 20.070312 35.921875 19.5 36.5 C 18.777344 36.65625 18.777344 36.65625 17.933594 36.65625 C 17.617188 36.65625 17.300781 36.65625 16.972656 36.660156 C 16.628906 36.65625 16.28125 36.652344 15.9375 36.648438 C 15.582031 36.648438 15.230469 36.648438 14.875 36.648438 C 14.128906 36.648438 13.386719 36.640625 12.644531 36.636719 C 11.691406 36.625 10.742188 36.625 9.789062 36.628906 C 9.054688 36.628906 8.324219 36.625 7.589844 36.621094 C 7.238281 36.617188 6.890625 36.617188 6.539062 36.617188 C 6.046875 36.617188 5.554688 36.609375 5.066406 36.605469 C 4.648438 36.601562 4.648438 36.601562 4.222656 36.597656 C 3.410156 36.488281 3.0625 36.339844 2.5 35.75 C 2.375 35.273438 2.375 35.273438 2.371094 34.734375 C 2.367188 34.433594 2.367188 34.433594 2.363281 34.121094 C 2.363281 33.902344 2.363281 33.683594 2.367188 33.460938 C 2.367188 33.234375 2.367188 33.011719 2.363281 32.78125 C 2.363281 32.304688 2.367188 31.828125 2.367188 31.355469 C 2.375 30.628906 2.367188 29.898438 2.363281 29.171875 C 2.363281 28.710938 2.367188 28.25 2.367188 27.789062 C 2.367188 27.570312 2.363281 27.351562 2.363281 27.128906 C 2.363281 26.925781 2.367188 26.722656 2.371094 26.515625 C 2.371094 26.335938 2.371094 26.15625 2.375 25.976562 C 2.5 25.5 2.5 25.5 2.910156 25.066406 C 3.667969 24.660156 4.207031 24.652344 5.066406 24.644531 Z M 5.066406 24.644531 "/>
<path style=" stroke:none;fill-rule:nonzero;fill:rgb(27.843139%,21.960784%,47.058824%);fill-opacity:1;" d="M 5.066406 41.394531 C 5.382812 41.390625 5.703125 41.386719 6.027344 41.382812 C 6.371094 41.382812 6.714844 41.382812 7.0625 41.382812 C 7.417969 41.378906 7.769531 41.378906 8.125 41.378906 C 8.871094 41.371094 9.613281 41.371094 10.355469 41.375 C 11.308594 41.375 12.257812 41.367188 13.210938 41.359375 C 13.945312 41.351562 14.675781 41.351562 15.410156 41.351562 C 15.757812 41.351562 16.113281 41.351562 16.460938 41.34375 C 16.953125 41.339844 17.445312 41.34375 17.933594 41.34375 C 18.210938 41.34375 18.492188 41.34375 18.777344 41.34375 C 19.5 41.5 19.5 41.5 20.089844 42.101562 C 20.507812 42.757812 20.621094 43.042969 20.597656 43.800781 C 20.597656 43.96875 20.59375 44.140625 20.589844 44.316406 C 20.582031 44.523438 20.570312 44.734375 20.5625 44.953125 C 20.542969 45.628906 20.519531 46.304688 20.5 47 C 22.605469 46.875 22.605469 46.875 24.75 46.75 C 24.335938 46.335938 23.925781 45.925781 23.5 45.5 C 23.546875 44.921875 23.546875 44.921875 23.75 44.5 C 24.585938 44.867188 25.175781 45.335938 25.828125 45.96875 C 26.007812 46.136719 26.1875 46.308594 26.371094 46.484375 C 26.75 47 26.75 47 26.753906 47.488281 C 26.402344 48.195312 25.925781 48.644531 25.359375 49.1875 C 25.152344 49.386719 24.945312 49.585938 24.734375 49.792969 C 24.574219 49.945312 24.414062 50.09375 24.25 50.25 C 23.878906 50.125 23.878906 50.125 23.5 50 C 23.65625 49.09375 23.792969 48.957031 24.5 48.25 C 23.179688 48.167969 21.859375 48.085938 20.5 48 C 20.5 49.402344 20.5 50.804688 20.5 52.25 C 23.304688 52.25 26.109375 52.25 29 52.25 C 28.988281 51.558594 28.976562 50.863281 28.964844 50.152344 C 28.957031 49.484375 28.953125 48.808594 28.945312 48.140625 C 28.9375 47.671875 28.933594 47.207031 28.925781 46.738281 C 28.910156 46.070312 28.90625 45.398438 28.902344 44.730469 C 28.894531 44.523438 28.890625 44.316406 28.886719 44.101562 C 28.886719 43.808594 28.886719 43.808594 28.886719 43.507812 C 28.882812 43.335938 28.882812 43.167969 28.878906 42.988281 C 29.058594 42.265625 29.433594 41.972656 30 41.5 C 30.597656 41.375 30.597656 41.375 31.269531 41.375 C 31.527344 41.371094 31.785156 41.371094 32.050781 41.367188 C 32.328125 41.371094 32.609375 41.371094 32.894531 41.375 C 33.339844 41.371094 33.339844 41.371094 33.792969 41.371094 C 34.605469 41.367188 35.417969 41.371094 36.226562 41.375 C 37.078125 41.378906 37.925781 41.375 38.773438 41.375 C 40.199219 41.375 41.625 41.378906 43.050781 41.382812 C 44.699219 41.390625 46.347656 41.390625 47.992188 41.386719 C 49.582031 41.386719 51.167969 41.386719 52.75 41.390625 C 53.425781 41.390625 54.101562 41.390625 54.777344 41.390625 C 55.71875 41.390625 56.660156 41.390625 57.601562 41.398438 C 57.882812 41.398438 58.160156 41.398438 58.453125 41.394531 C 58.707031 41.398438 58.964844 41.398438 59.230469 41.402344 C 59.5625 41.40625 59.5625 41.40625 59.902344 41.40625 C 60.625 41.519531 60.972656 41.757812 61.5 42.25 C 61.621094 42.71875 61.621094 42.71875 61.613281 43.253906 C 61.613281 43.453125 61.613281 43.652344 61.613281 43.859375 C 61.609375 44.074219 61.605469 44.289062 61.597656 44.511719 C 61.597656 44.734375 61.59375 44.953125 61.59375 45.179688 C 61.589844 45.886719 61.578125 46.589844 61.5625 47.296875 C 61.554688 47.773438 61.554688 48.253906 61.550781 48.734375 C 61.539062 49.90625 61.519531 51.078125 61.5 52.25 C 61.746094 52.332031 61.992188 52.414062 62.25 52.5 C 62.167969 52.746094 62.082031 52.996094 62 53.25 C 42.199219 53.25 22.398438 53.25 2 53.25 C 2 52.921875 2 52.589844 2 52.25 C 2.164062 52.25 2.328125 52.25 2.5 52.25 C 2.492188 51.949219 2.488281 51.652344 2.484375 51.34375 C 2.464844 50.234375 2.453125 49.128906 2.445312 48.015625 C 2.4375 47.539062 2.433594 47.058594 2.425781 46.578125 C 2.410156 45.890625 2.40625 45.199219 2.402344 44.511719 C 2.394531 44.296875 2.390625 44.078125 2.386719 43.859375 C 2.386719 43.558594 2.386719 43.558594 2.386719 43.253906 C 2.382812 43.078125 2.382812 42.898438 2.378906 42.71875 C 2.5 42.25 2.5 42.25 2.910156 41.820312 C 3.667969 41.410156 4.207031 41.402344 5.066406 41.394531 Z M 3.25 42.75 C 3.222656 43.429688 3.207031 44.101562 3.207031 44.78125 C 3.207031 44.984375 3.207031 45.1875 3.207031 45.398438 C 3.203125 45.828125 3.203125 46.261719 3.203125 46.691406 C 3.203125 47.355469 3.199219 48.015625 3.195312 48.679688 C 3.195312 49.101562 3.191406 49.515625 3.191406 49.9375 C 3.191406 50.136719 3.1875 50.335938 3.1875 50.539062 C 3.144531 51.636719 3.144531 51.636719 3.75 52.5 C 4.414062 52.578125 4.414062 52.578125 5.199219 52.566406 C 5.5 52.566406 5.804688 52.566406 6.117188 52.570312 C 6.449219 52.566406 6.777344 52.566406 7.117188 52.566406 C 7.457031 52.566406 7.796875 52.566406 8.136719 52.566406 C 8.847656 52.566406 9.5625 52.566406 10.277344 52.566406 C 11.191406 52.5625 12.105469 52.566406 13.019531 52.566406 C 13.722656 52.570312 14.425781 52.566406 15.125 52.566406 C 15.628906 52.566406 16.128906 52.566406 16.632812 52.570312 C 16.933594 52.566406 17.238281 52.566406 17.550781 52.566406 C 17.820312 52.566406 18.089844 52.566406 18.363281 52.5625 C 19.042969 52.5625 19.042969 52.5625 19.5 52 C 19.546875 51.300781 19.5625 50.632812 19.554688 49.9375 C 19.554688 49.734375 19.554688 49.527344 19.554688 49.316406 C 19.554688 48.886719 19.554688 48.453125 19.550781 48.023438 C 19.546875 47.359375 19.546875 46.699219 19.546875 46.035156 C 19.546875 45.617188 19.542969 45.199219 19.542969 44.78125 C 19.542969 44.578125 19.542969 44.382812 19.542969 44.175781 C 19.617188 43.261719 19.617188 43.261719 19.25 42.5 C 18.761719 42.476562 18.269531 42.46875 17.777344 42.46875 C 17.464844 42.46875 17.152344 42.464844 16.828125 42.464844 C 16.480469 42.464844 16.132812 42.464844 15.789062 42.46875 C 15.4375 42.46875 15.082031 42.46875 14.730469 42.464844 C 13.992188 42.464844 13.253906 42.464844 12.515625 42.46875 C 11.566406 42.46875 10.617188 42.46875 9.667969 42.46875 C 8.941406 42.464844 8.214844 42.464844 7.488281 42.46875 C 7.136719 42.46875 6.785156 42.46875 6.4375 42.464844 C 5.945312 42.464844 5.457031 42.46875 4.972656 42.46875 C 4.691406 42.46875 4.414062 42.46875 4.125 42.46875 C 3.515625 42.429688 3.515625 42.429688 3.25 42.75 Z M 30 42.75 C 29.972656 43.429688 29.957031 44.101562 29.957031 44.78125 C 29.957031 44.984375 29.957031 45.1875 29.957031 45.398438 C 29.953125 45.828125 29.953125 46.261719 29.953125 46.691406 C 29.953125 47.355469 29.949219 48.015625 29.945312 48.679688 C 29.945312 49.101562 29.941406 49.515625 29.941406 49.9375 C 29.941406 50.136719 29.9375 50.335938 29.9375 50.539062 C 29.894531 51.636719 29.894531 51.636719 30.5 52.5 C 31.046875 52.574219 31.046875 52.574219 31.6875 52.5625 C 31.9375 52.566406 32.1875 52.566406 32.445312 52.566406 C 32.722656 52.566406 32.996094 52.566406 33.277344 52.566406 C 33.714844 52.566406 33.714844 52.566406 34.15625 52.566406 C 35.117188 52.570312 36.078125 52.566406 37.039062 52.566406 C 37.703125 52.566406 38.367188 52.566406 39.035156 52.566406 C 40.429688 52.566406 41.828125 52.566406 43.222656 52.566406 C 44.835938 52.5625 46.449219 52.5625 48.0625 52.566406 C 49.449219 52.566406 50.832031 52.566406 52.21875 52.566406 C 53.046875 52.566406 53.875 52.566406 54.703125 52.566406 C 55.625 52.570312 56.550781 52.566406 57.472656 52.566406 C 57.746094 52.566406 58.019531 52.566406 58.304688 52.566406 C 58.554688 52.566406 58.804688 52.566406 59.0625 52.5625 C 59.390625 52.5625 59.390625 52.5625 59.726562 52.5625 C 60.304688 52.546875 60.304688 52.546875 60.75 52 C 60.796875 51.300781 60.8125 50.632812 60.804688 49.9375 C 60.804688 49.734375 60.804688 49.527344 60.804688 49.316406 C 60.804688 48.886719 60.804688 48.453125 60.800781 48.023438 C 60.796875 47.359375 60.796875 46.699219 60.796875 46.035156 C 60.796875 45.617188 60.792969 45.199219 60.792969 44.78125 C 60.792969 44.578125 60.792969 44.382812 60.792969 44.175781 C 60.867188 43.261719 60.867188 43.261719 60.5 42.5 C 60.109375 42.476562 59.714844 42.46875 59.324219 42.46875 C 59.070312 42.46875 58.8125 42.46875 58.550781 42.464844 C 58.269531 42.46875 57.988281 42.46875 57.699219 42.46875 C 57.257812 42.46875 57.257812 42.46875 56.804688 42.46875 C 55.996094 42.464844 55.183594 42.464844 54.375 42.46875 C 53.527344 42.46875 52.679688 42.46875 51.835938 42.464844 C 50.414062 42.464844 48.992188 42.464844 47.570312 42.46875 C 45.925781 42.46875 44.277344 42.46875 42.632812 42.46875 C 41.222656 42.464844 39.8125 42.464844 38.402344 42.46875 C 37.558594 42.46875 36.714844 42.46875 35.871094 42.464844 C 34.929688 42.464844 33.992188 42.464844 33.050781 42.46875 C 32.628906 42.46875 32.628906 42.46875 32.199219 42.464844 C 31.816406 42.46875 31.816406 42.46875 31.425781 42.46875 C 31.203125 42.46875 30.980469 42.46875 30.75 42.46875 C 30.25 42.445312 30.25 42.445312 30 42.75 Z M 30 42.75 "/>
<path style=" stroke:none;fill-rule:nonzero;fill:rgb(25.098041%,21.568628%,47.450981%);fill-opacity:1;" d="M 5.066406 7.894531 C 5.382812 7.890625 5.703125 7.886719 6.027344 7.882812 C 6.371094 7.882812 6.714844 7.882812 7.0625 7.882812 C 7.417969 7.878906 7.769531 7.878906 8.125 7.878906 C 8.871094 7.871094 9.613281 7.871094 10.355469 7.875 C 11.308594 7.875 12.257812 7.867188 13.210938 7.859375 C 13.945312 7.851562 14.675781 7.851562 15.410156 7.851562 C 15.757812 7.851562 16.113281 7.851562 16.460938 7.84375 C 16.953125 7.839844 17.445312 7.84375 17.933594 7.84375 C 18.210938 7.84375 18.492188 7.84375 18.777344 7.84375 C 19.5 8 19.5 8 20.089844 8.601562 C 20.507812 9.257812 20.621094 9.542969 20.597656 10.300781 C 20.597656 10.46875 20.59375 10.640625 20.589844 10.816406 C 20.582031 11.023438 20.570312 11.234375 20.5625 11.453125 C 20.542969 12.128906 20.519531 12.804688 20.5 13.5 C 22.605469 13.375 22.605469 13.375 24.75 13.25 C 24.335938 12.835938 23.925781 12.425781 23.5 12 C 23.546875 11.421875 23.546875 11.421875 23.75 11 C 24.585938 11.367188 25.175781 11.835938 25.828125 12.46875 C 26.007812 12.636719 26.1875 12.808594 26.371094 12.984375 C 26.75 13.5 26.75 13.5 26.753906 13.988281 C 26.402344 14.695312 25.925781 15.144531 25.359375 15.6875 C 25.152344 15.886719 24.945312 16.085938 24.734375 16.292969 C 24.574219 16.445312 24.414062 16.59375 24.25 16.75 C 23.878906 16.625 23.878906 16.625 23.5 16.5 C 23.652344 15.445312 23.894531 15.359375 24.75 14.5 C 23.347656 14.417969 21.945312 14.335938 20.5 14.25 C 20.511719 14.5625 20.523438 14.878906 20.535156 15.199219 C 20.542969 15.613281 20.554688 16.023438 20.5625 16.4375 C 20.570312 16.640625 20.578125 16.851562 20.589844 17.0625 C 20.59375 17.363281 20.59375 17.363281 20.597656 17.667969 C 20.605469 17.941406 20.605469 17.941406 20.613281 18.222656 C 20.449219 18.992188 20.109375 19.261719 19.5 19.75 C 18.769531 19.875 18.769531 19.875 17.90625 19.875 C 17.421875 19.878906 17.421875 19.878906 16.929688 19.882812 C 16.578125 19.878906 16.226562 19.878906 15.875 19.875 C 15.515625 19.875 15.152344 19.875 14.792969 19.875 C 14.035156 19.875 13.277344 19.871094 12.523438 19.867188 C 11.554688 19.859375 10.582031 19.859375 9.617188 19.863281 C 8.871094 19.863281 8.125 19.863281 7.382812 19.859375 C 7.023438 19.859375 6.667969 19.859375 6.308594 19.859375 C 5.808594 19.859375 5.308594 19.855469 4.8125 19.851562 C 4.527344 19.851562 4.242188 19.847656 3.953125 19.847656 C 3.25 19.75 3.25 19.75 2.785156 19.433594 C 2.4375 18.90625 2.402344 18.609375 2.398438 17.984375 C 2.394531 17.78125 2.390625 17.578125 2.390625 17.371094 C 2.390625 17.152344 2.390625 16.933594 2.390625 16.710938 C 2.390625 16.375 2.390625 16.375 2.386719 16.03125 C 2.386719 15.554688 2.386719 15.078125 2.390625 14.605469 C 2.390625 13.878906 2.382812 13.148438 2.375 12.421875 C 2.375 11.960938 2.375 11.5 2.375 11.039062 C 2.375 10.820312 2.371094 10.601562 2.367188 10.378906 C 2.367188 10.175781 2.371094 9.972656 2.375 9.765625 C 2.375 9.585938 2.375 9.40625 2.375 9.226562 C 2.5 8.75 2.5 8.75 2.910156 8.316406 C 3.667969 7.910156 4.207031 7.902344 5.066406 7.894531 Z M 5.25 9.25 C 5.222656 9.933594 5.214844 10.609375 5.214844 11.289062 C 5.214844 11.492188 5.214844 11.699219 5.214844 11.90625 C 5.214844 12.34375 5.214844 12.773438 5.214844 13.207031 C 5.21875 13.871094 5.214844 14.539062 5.214844 15.203125 C 5.214844 15.621094 5.214844 16.042969 5.214844 16.460938 C 5.214844 16.660156 5.214844 16.863281 5.214844 17.066406 C 5.132812 17.984375 5.132812 17.984375 5.5 18.75 C 5.929688 18.773438 6.355469 18.78125 6.785156 18.78125 C 7.0625 18.78125 7.335938 18.785156 7.617188 18.785156 C 7.917969 18.785156 8.214844 18.78125 8.523438 18.78125 C 8.980469 18.78125 8.980469 18.78125 9.445312 18.785156 C 10.089844 18.785156 10.734375 18.78125 11.378906 18.78125 C 12.371094 18.78125 13.363281 18.78125 14.351562 18.785156 C 14.976562 18.785156 15.601562 18.78125 16.226562 18.78125 C 16.675781 18.785156 16.675781 18.785156 17.132812 18.785156 C 17.40625 18.785156 17.679688 18.78125 17.964844 18.78125 C 18.207031 18.78125 18.449219 18.78125 18.699219 18.78125 C 19.242188 18.8125 19.242188 18.8125 19.5 18.5 C 19.527344 17.816406 19.535156 17.140625 19.535156 16.460938 C 19.535156 16.257812 19.535156 16.050781 19.535156 15.84375 C 19.535156 15.40625 19.535156 14.976562 19.53125 14.542969 C 19.53125 13.878906 19.53125 13.210938 19.535156 12.546875 C 19.535156 12.128906 19.535156 11.707031 19.535156 11.289062 C 19.535156 11.089844 19.535156 10.886719 19.535156 10.683594 C 19.617188 9.765625 19.617188 9.765625 19.25 9 C 18.820312 8.976562 18.390625 8.96875 17.964844 8.96875 C 17.6875 8.96875 17.414062 8.964844 17.132812 8.964844 C 16.683594 8.964844 16.683594 8.964844 16.226562 8.96875 C 15.769531 8.96875 15.769531 8.96875 15.304688 8.964844 C 14.660156 8.964844 14.015625 8.96875 13.371094 8.96875 C 12.378906 8.96875 11.390625 8.96875 10.394531 8.964844 C 9.773438 8.964844 9.148438 8.96875 8.523438 8.96875 C 8.222656 8.96875 7.925781 8.964844 7.617188 8.964844 C 7.34375 8.964844 7.070312 8.96875 6.785156 8.96875 C 6.542969 8.96875 6.300781 8.96875 6.050781 8.96875 C 5.507812 8.9375 5.507812 8.9375 5.25 9.25 Z M 5.25 9.25 "/>
<path style=" stroke:none;fill-rule:nonzero;fill:rgb(26.666668%,23.529412%,48.235294%);fill-opacity:1;" d="M 31.28125 7.875 C 31.671875 7.871094 31.671875 7.871094 32.066406 7.867188 C 32.351562 7.871094 32.632812 7.871094 32.925781 7.875 C 33.371094 7.871094 33.371094 7.871094 33.832031 7.871094 C 34.648438 7.867188 35.46875 7.871094 36.285156 7.875 C 37.144531 7.878906 38 7.875 38.859375 7.875 C 40.296875 7.875 41.734375 7.878906 43.171875 7.882812 C 44.835938 7.890625 46.5 7.890625 48.164062 7.886719 C 49.761719 7.882812 51.363281 7.886719 52.960938 7.890625 C 53.644531 7.890625 54.324219 7.890625 55.007812 7.890625 C 55.957031 7.890625 56.90625 7.894531 57.859375 7.898438 C 58.140625 7.898438 58.425781 7.898438 58.71875 7.894531 C 58.976562 7.898438 59.234375 7.898438 59.5 7.902344 C 59.835938 7.90625 59.835938 7.90625 60.179688 7.90625 C 60.863281 8.019531 61.085938 8.203125 61.5 8.75 C 61.597656 9.226562 61.597656 9.226562 61.601562 9.765625 C 61.605469 10.066406 61.605469 10.066406 61.609375 10.378906 C 61.609375 10.597656 61.609375 10.816406 61.609375 11.039062 C 61.609375 11.265625 61.609375 11.488281 61.613281 11.71875 C 61.613281 12.195312 61.613281 12.667969 61.613281 13.144531 C 61.609375 13.871094 61.617188 14.601562 61.625 15.328125 C 61.625 15.789062 61.625 16.25 61.625 16.710938 C 61.628906 16.929688 61.628906 17.148438 61.632812 17.371094 C 61.628906 17.574219 61.628906 17.777344 61.625 17.984375 C 61.625 18.164062 61.625 18.34375 61.625 18.523438 C 61.441406 19.214844 61.101562 19.382812 60.5 19.75 C 59.902344 19.84375 59.902344 19.84375 59.226562 19.847656 C 58.972656 19.851562 58.714844 19.851562 58.449219 19.855469 C 58.171875 19.851562 57.890625 19.851562 57.601562 19.851562 C 57.15625 19.855469 57.15625 19.855469 56.707031 19.855469 C 55.894531 19.859375 55.082031 19.859375 54.273438 19.859375 C 53.59375 19.855469 52.917969 19.859375 52.238281 19.863281 C 50.644531 19.863281 49.046875 19.863281 47.449219 19.863281 C 45.800781 19.859375 44.152344 19.863281 42.503906 19.871094 C 41.089844 19.875 39.675781 19.878906 38.261719 19.875 C 37.414062 19.875 36.566406 19.875 35.722656 19.878906 C 34.78125 19.882812 33.839844 19.878906 32.898438 19.875 C 32.476562 19.878906 32.476562 19.878906 32.050781 19.882812 C 31.792969 19.878906 31.535156 19.878906 31.273438 19.875 C 31.046875 19.875 30.824219 19.875 30.597656 19.875 C 29.808594 19.710938 29.503906 19.363281 29 18.75 C 28.871094 18.265625 28.871094 18.265625 28.871094 17.757812 C 28.867188 17.566406 28.863281 17.375 28.859375 17.175781 C 28.863281 16.96875 28.863281 16.765625 28.867188 16.554688 C 28.863281 16.34375 28.863281 16.128906 28.863281 15.910156 C 28.863281 15.460938 28.863281 15.011719 28.871094 14.566406 C 28.875 13.878906 28.871094 13.191406 28.863281 12.503906 C 28.863281 12.066406 28.863281 11.632812 28.867188 11.195312 C 28.863281 10.988281 28.863281 10.785156 28.859375 10.574219 C 28.863281 10.382812 28.867188 10.191406 28.871094 9.992188 C 28.871094 9.824219 28.871094 9.65625 28.871094 9.484375 C 29.199219 8.246094 30.097656 7.875 31.28125 7.875 Z M 30 9.25 C 29.953125 9.945312 29.933594 10.617188 29.941406 11.316406 C 29.941406 11.515625 29.941406 11.722656 29.941406 11.933594 C 29.941406 12.363281 29.945312 12.792969 29.949219 13.226562 C 29.953125 13.890625 29.953125 14.550781 29.953125 15.214844 C 29.957031 15.632812 29.957031 16.050781 29.957031 16.46875 C 29.957031 16.667969 29.957031 16.871094 29.960938 17.074219 C 29.878906 17.988281 29.878906 17.988281 30.25 18.75 C 30.644531 18.773438 31.035156 18.78125 31.425781 18.78125 C 31.808594 18.78125 31.808594 18.78125 32.199219 18.785156 C 32.480469 18.78125 32.761719 18.78125 33.050781 18.78125 C 33.492188 18.78125 33.492188 18.78125 33.945312 18.785156 C 34.753906 18.785156 35.566406 18.785156 36.375 18.785156 C 37.222656 18.78125 38.066406 18.785156 38.914062 18.785156 C 40.335938 18.785156 41.757812 18.785156 43.179688 18.78125 C 44.824219 18.78125 46.46875 18.78125 48.117188 18.78125 C 49.527344 18.785156 50.9375 18.785156 52.347656 18.785156 C 53.191406 18.78125 54.035156 18.78125 54.878906 18.785156 C 55.820312 18.785156 56.757812 18.785156 57.699219 18.78125 C 58.121094 18.78125 58.121094 18.78125 58.550781 18.785156 C 58.808594 18.78125 59.058594 18.78125 59.324219 18.78125 C 59.65625 18.78125 59.65625 18.78125 59.996094 18.78125 C 60.5 18.804688 60.5 18.804688 60.75 18.5 C 60.777344 17.820312 60.789062 17.148438 60.792969 16.46875 C 60.792969 16.265625 60.792969 16.0625 60.796875 15.851562 C 60.796875 15.417969 60.796875 14.988281 60.796875 14.558594 C 60.796875 13.894531 60.800781 13.230469 60.804688 12.570312 C 60.808594 12.152344 60.808594 11.730469 60.808594 11.316406 C 60.808594 11.015625 60.808594 11.015625 60.8125 10.710938 C 60.851562 9.613281 60.851562 9.613281 60.25 8.75 C 59.707031 8.675781 59.707031 8.675781 59.0625 8.6875 C 58.8125 8.683594 58.5625 8.683594 58.304688 8.683594 C 58.03125 8.683594 57.753906 8.683594 57.46875 8.683594 C 57.179688 8.683594 56.890625 8.683594 56.59375 8.683594 C 55.632812 8.679688 54.671875 8.683594 53.710938 8.683594 C 53.046875 8.683594 52.378906 8.683594 51.714844 8.683594 C 50.320312 8.683594 48.925781 8.683594 47.53125 8.683594 C 45.914062 8.6875 44.300781 8.6875 42.683594 8.683594 C 41.300781 8.683594 39.914062 8.683594 38.53125 8.683594 C 37.703125 8.683594 36.875 8.683594 36.046875 8.683594 C 35.125 8.679688 34.203125 8.683594 33.28125 8.683594 C 33.003906 8.683594 32.726562 8.683594 32.445312 8.683594 C 32.195312 8.683594 31.945312 8.683594 31.683594 8.6875 C 31.46875 8.6875 31.25 8.6875 31.023438 8.6875 C 30.445312 8.703125 30.445312 8.703125 30 9.25 Z M 30 9.25 "/>
<path style=" stroke:none;fill-rule:nonzero;fill:rgb(24.705882%,21.960784%,47.843137%);fill-opacity:1;" d="M 31.269531 24.625 C 31.527344 24.621094 31.785156 24.621094 32.050781 24.617188 C 32.328125 24.621094 32.609375 24.621094 32.894531 24.625 C 33.339844 24.621094 33.339844 24.621094 33.792969 24.621094 C 34.605469 24.617188 35.417969 24.621094 36.226562 24.625 C 37.078125 24.628906 37.925781 24.625 38.773438 24.625 C 40.199219 24.625 41.625 24.628906 43.050781 24.632812 C 44.699219 24.640625 46.347656 24.640625 47.992188 24.636719 C 49.582031 24.632812 51.167969 24.636719 52.75 24.640625 C 53.425781 24.640625 54.101562 24.640625 54.777344 24.640625 C 55.71875 24.640625 56.660156 24.644531 57.601562 24.648438 C 57.882812 24.648438 58.160156 24.648438 58.453125 24.644531 C 58.707031 24.648438 58.964844 24.648438 59.230469 24.652344 C 59.5625 24.65625 59.5625 24.65625 59.902344 24.65625 C 60.625 24.769531 60.96875 25.007812 61.5 25.5 C 61.625 25.976562 61.625 25.976562 61.628906 26.515625 C 61.632812 26.71875 61.636719 26.917969 61.640625 27.128906 C 61.636719 27.347656 61.632812 27.566406 61.632812 27.789062 C 61.632812 28.015625 61.632812 28.238281 61.636719 28.46875 C 61.636719 28.945312 61.632812 29.417969 61.632812 29.894531 C 61.625 30.621094 61.632812 31.351562 61.636719 32.078125 C 61.636719 32.539062 61.632812 33 61.632812 33.460938 C 61.632812 33.679688 61.636719 33.898438 61.640625 34.121094 C 61.632812 34.425781 61.632812 34.425781 61.628906 34.734375 C 61.628906 34.914062 61.628906 35.09375 61.625 35.273438 C 61.441406 35.964844 61.097656 36.132812 60.5 36.5 C 59.902344 36.59375 59.902344 36.59375 59.230469 36.597656 C 58.972656 36.601562 58.714844 36.601562 58.453125 36.605469 C 58.171875 36.601562 57.890625 36.601562 57.601562 36.601562 C 57.160156 36.605469 57.160156 36.605469 56.707031 36.605469 C 55.894531 36.609375 55.082031 36.609375 54.273438 36.609375 C 53.597656 36.605469 52.917969 36.609375 52.242188 36.613281 C 50.644531 36.613281 49.046875 36.613281 47.449219 36.613281 C 45.800781 36.609375 44.152344 36.613281 42.503906 36.621094 C 41.089844 36.625 39.675781 36.628906 38.257812 36.625 C 37.414062 36.625 36.570312 36.625 35.722656 36.628906 C 34.78125 36.632812 33.839844 36.628906 32.894531 36.625 C 32.476562 36.628906 32.476562 36.628906 32.050781 36.632812 C 31.792969 36.628906 31.535156 36.628906 31.269531 36.625 C 31.050781 36.625 30.828125 36.625 30.597656 36.625 C 29.804688 36.460938 29.503906 36.113281 29 35.5 C 28.875 35.015625 28.875 35.015625 28.871094 34.507812 C 28.867188 34.316406 28.863281 34.125 28.863281 33.925781 C 28.863281 33.71875 28.863281 33.515625 28.867188 33.304688 C 28.867188 33.09375 28.867188 32.878906 28.863281 32.660156 C 28.863281 32.210938 28.867188 31.761719 28.867188 31.316406 C 28.875 30.628906 28.867188 29.941406 28.863281 29.253906 C 28.863281 28.816406 28.867188 28.382812 28.867188 27.945312 C 28.863281 27.738281 28.863281 27.535156 28.863281 27.324219 C 28.863281 27.132812 28.867188 26.941406 28.871094 26.742188 C 28.871094 26.574219 28.871094 26.40625 28.875 26.234375 C 29.195312 25.003906 30.089844 24.625 31.269531 24.625 Z M 30 26 C 29.949219 26.691406 29.929688 27.363281 29.933594 28.054688 C 29.933594 28.257812 29.929688 28.460938 29.929688 28.671875 C 29.929688 29.101562 29.933594 29.53125 29.933594 29.960938 C 29.9375 30.621094 29.933594 31.28125 29.929688 31.941406 C 29.929688 32.359375 29.929688 32.777344 29.933594 33.195312 C 29.929688 33.394531 29.929688 33.59375 29.929688 33.792969 C 29.894531 34.890625 29.894531 34.890625 30.5 35.75 C 31.046875 35.828125 31.046875 35.828125 31.6875 35.816406 C 31.9375 35.816406 32.1875 35.816406 32.445312 35.816406 C 32.722656 35.816406 32.996094 35.816406 33.277344 35.816406 C 33.714844 35.816406 33.714844 35.816406 34.15625 35.816406 C 35.117188 35.820312 36.078125 35.816406 37.039062 35.816406 C 37.703125 35.816406 38.367188 35.816406 39.035156 35.816406 C 40.429688 35.820312 41.828125 35.816406 43.222656 35.816406 C 44.835938 35.8125 46.449219 35.8125 48.0625 35.816406 C 49.449219 35.816406 50.832031 35.820312 52.21875 35.816406 C 53.046875 35.816406 53.875 35.816406 54.703125 35.816406 C 55.625 35.820312 56.550781 35.816406 57.472656 35.816406 C 57.746094 35.816406 58.019531 35.816406 58.304688 35.816406 C 58.554688 35.816406 58.804688 35.816406 59.0625 35.816406 C 59.390625 35.8125 59.390625 35.8125 59.726562 35.8125 C 60.304688 35.796875 60.304688 35.796875 60.75 35.25 C 60.800781 34.558594 60.820312 33.890625 60.816406 33.195312 C 60.816406 32.992188 60.816406 32.789062 60.820312 32.578125 C 60.820312 32.148438 60.816406 31.71875 60.816406 31.289062 C 60.8125 30.628906 60.8125 29.96875 60.820312 29.308594 C 60.820312 28.890625 60.816406 28.472656 60.816406 28.054688 C 60.816406 27.855469 60.820312 27.65625 60.820312 27.453125 C 60.855469 26.359375 60.855469 26.359375 60.25 25.5 C 59.703125 25.425781 59.703125 25.425781 59.0625 25.4375 C 58.8125 25.433594 58.5625 25.433594 58.304688 25.433594 C 58.027344 25.433594 57.753906 25.433594 57.472656 25.433594 C 57.179688 25.433594 56.890625 25.433594 56.59375 25.433594 C 55.632812 25.429688 54.671875 25.433594 53.710938 25.433594 C 53.046875 25.433594 52.382812 25.433594 51.714844 25.433594 C 50.320312 25.433594 48.925781 25.433594 47.527344 25.433594 C 45.914062 25.4375 44.300781 25.4375 42.6875 25.433594 C 41.300781 25.433594 39.917969 25.433594 38.53125 25.433594 C 37.703125 25.433594 36.875 25.433594 36.046875 25.433594 C 35.125 25.429688 34.203125 25.433594 33.277344 25.433594 C 33.003906 25.433594 32.730469 25.433594 32.445312 25.433594 C 32.195312 25.433594 31.945312 25.433594 31.6875 25.4375 C 31.46875 25.4375 31.25 25.4375 31.023438 25.4375 C 30.445312 25.453125 30.445312 25.453125 30 26 Z M 30 26 "/>
<path style=" stroke:none;fill-rule:nonzero;fill:rgb(28.627452%,25.490198%,48.627451%);fill-opacity:1;" d="M 38.5625 12.183594 C 38.890625 12.183594 39.222656 12.183594 39.558594 12.179688 C 39.921875 12.179688 40.28125 12.183594 40.640625 12.183594 C 41.007812 12.183594 41.375 12.183594 41.742188 12.183594 C 42.515625 12.179688 43.289062 12.183594 44.0625 12.183594 C 45.050781 12.1875 46.039062 12.183594 47.03125 12.183594 C 47.789062 12.179688 48.550781 12.183594 49.3125 12.183594 C 49.675781 12.183594 50.039062 12.183594 50.40625 12.183594 C 50.914062 12.179688 51.425781 12.183594 51.9375 12.183594 C 52.375 12.183594 52.375 12.183594 52.816406 12.183594 C 53.5 12.25 53.5 12.25 54 12.75 C 54.066406 13.273438 54.066406 13.273438 54.0625 13.875 C 54.0625 14.171875 54.0625 14.171875 54.066406 14.476562 C 54 15 54 15 53.5 15.5 C 52.828125 15.566406 52.828125 15.566406 51.964844 15.566406 C 51.640625 15.570312 51.320312 15.574219 50.984375 15.574219 C 50.632812 15.574219 50.277344 15.574219 49.921875 15.574219 C 49.5625 15.574219 49.199219 15.578125 48.839844 15.578125 C 48.078125 15.582031 47.320312 15.582031 46.5625 15.578125 C 45.589844 15.578125 44.617188 15.582031 43.640625 15.585938 C 42.894531 15.589844 42.144531 15.589844 41.398438 15.589844 C 41.039062 15.589844 40.679688 15.59375 40.324219 15.59375 C 39.820312 15.597656 39.320312 15.59375 38.820312 15.59375 C 38.535156 15.59375 38.25 15.59375 37.953125 15.59375 C 37.25 15.5 37.25 15.5 36.785156 15.148438 C 36.246094 14.390625 36.429688 13.652344 36.5 12.75 C 37.191406 12.058594 37.597656 12.1875 38.5625 12.183594 Z M 38.5625 12.183594 "/>
<path style=" stroke:none;fill-rule:nonzero;fill:rgb(24.705882%,21.568628%,47.843137%);fill-opacity:1;" d="M 5.066406 24.644531 C 5.382812 24.640625 5.703125 24.636719 6.027344 24.632812 C 6.371094 24.632812 6.714844 24.632812 7.0625 24.632812 C 7.417969 24.628906 7.769531 24.628906 8.125 24.628906 C 8.871094 24.621094 9.613281 24.621094 10.355469 24.625 C 11.308594 24.625 12.257812 24.617188 13.210938 24.609375 C 13.945312 24.601562 14.675781 24.601562 15.410156 24.601562 C 15.757812 24.601562 16.113281 24.601562 16.460938 24.59375 C 16.953125 24.589844 17.445312 24.59375 17.933594 24.59375 C 18.210938 24.59375 18.492188 24.59375 18.777344 24.59375 C 19.5 24.75 19.5 24.75 20.089844 25.351562 C 20.507812 26.007812 20.621094 26.292969 20.597656 27.050781 C 20.597656 27.21875 20.59375 27.390625 20.589844 27.566406 C 20.582031 27.773438 20.570312 27.984375 20.5625 28.203125 C 20.542969 28.878906 20.519531 29.554688 20.5 30.25 C 22.605469 30.125 22.605469 30.125 24.75 30 C 24.335938 29.585938 23.925781 29.175781 23.5 28.75 C 23.546875 28.171875 23.546875 28.171875 23.75 27.75 C 24.585938 28.117188 25.175781 28.585938 25.828125 29.21875 C 26.007812 29.386719 26.1875 29.558594 26.371094 29.734375 C 26.75 30.25 26.75 30.25 26.753906 30.738281 C 26.402344 31.445312 25.925781 31.894531 25.359375 32.4375 C 25.152344 32.636719 24.945312 32.835938 24.734375 33.042969 C 24.574219 33.195312 24.414062 33.34375 24.25 33.5 C 23.878906 33.375 23.878906 33.375 23.5 33.25 C 23.652344 32.195312 23.894531 32.109375 24.75 31.25 C 23.347656 31.167969 21.945312 31.085938 20.5 31 C 20.539062 32.34375 20.539062 32.34375 20.589844 33.683594 C 20.589844 33.855469 20.59375 34.023438 20.597656 34.199219 C 20.605469 34.371094 20.609375 34.539062 20.613281 34.71875 C 20.441406 35.519531 20.070312 35.921875 19.5 36.5 C 18.777344 36.65625 18.777344 36.65625 17.933594 36.65625 C 17.617188 36.65625 17.300781 36.65625 16.972656 36.660156 C 16.628906 36.65625 16.28125 36.652344 15.9375 36.648438 C 15.582031 36.648438 15.230469 36.648438 14.875 36.648438 C 14.128906 36.648438 13.386719 36.640625 12.644531 36.636719 C 11.691406 36.625 10.742188 36.625 9.789062 36.628906 C 9.054688 36.628906 8.324219 36.625 7.589844 36.621094 C 7.238281 36.617188 6.890625 36.617188 6.539062 36.617188 C 6.046875 36.617188 5.554688 36.609375 5.066406 36.605469 C 4.648438 36.601562 4.648438 36.601562 4.222656 36.597656 C 3.410156 36.488281 3.0625 36.339844 2.5 35.75 C 2.375 35.273438 2.375 35.273438 2.371094 34.734375 C 2.367188 34.433594 2.367188 34.433594 2.363281 34.121094 C 2.363281 33.902344 2.363281 33.683594 2.367188 33.460938 C 2.367188 33.234375 2.367188 33.011719 2.363281 32.78125 C 2.363281 32.304688 2.367188 31.828125 2.367188 31.355469 C 2.375 30.628906 2.367188 29.898438 2.363281 29.171875 C 2.363281 28.710938 2.367188 28.25 2.367188 27.789062 C 2.367188 27.570312 2.363281 27.351562 2.363281 27.128906 C 2.363281 26.925781 2.367188 26.722656 2.371094 26.515625 C 2.371094 26.335938 2.371094 26.15625 2.375 25.976562 C 2.5 25.5 2.5 25.5 2.910156 25.066406 C 3.667969 24.660156 4.207031 24.652344 5.066406 24.644531 Z M 3.25 26 C 3.199219 26.691406 3.179688 27.359375 3.183594 28.054688 C 3.183594 28.257812 3.179688 28.460938 3.179688 28.671875 C 3.179688 29.101562 3.183594 29.53125 3.183594 29.960938 C 3.1875 30.621094 3.183594 31.28125 3.179688 31.941406 C 3.179688 32.359375 3.179688 32.777344 3.183594 33.195312 C 3.179688 33.390625 3.179688 33.59375 3.179688 33.796875 C 3.144531 34.890625 3.144531 34.890625 3.75 35.75 C 4.414062 35.828125 4.414062 35.828125 5.199219 35.816406 C 5.5 35.816406 5.804688 35.816406 6.117188 35.820312 C 6.449219 35.816406 6.777344 35.816406 7.117188 35.816406 C 7.457031 35.816406 7.796875 35.816406 8.136719 35.816406 C 8.847656 35.816406 9.5625 35.816406 10.277344 35.816406 C 11.191406 35.8125 12.105469 35.816406 13.019531 35.816406 C 13.722656 35.820312 14.425781 35.816406 15.125 35.816406 C 15.628906 35.816406 16.128906 35.816406 16.632812 35.820312 C 16.933594 35.816406 17.238281 35.816406 17.550781 35.816406 C 17.820312 35.816406 18.089844 35.816406 18.363281 35.8125 C 19.042969 35.8125 19.042969 35.8125 19.5 35.25 C 19.550781 34.558594 19.570312 33.890625 19.566406 33.195312 C 19.566406 32.992188 19.566406 32.789062 19.570312 32.578125 C 19.570312 32.148438 19.566406 31.71875 19.566406 31.289062 C 19.5625 30.628906 19.566406 29.96875 19.570312 29.308594 C 19.570312 28.890625 19.566406 28.472656 19.566406 28.054688 C 19.566406 27.859375 19.570312 27.65625 19.570312 27.453125 C 19.605469 26.359375 19.605469 26.359375 19 25.5 C 18.335938 25.421875 18.335938 25.421875 17.550781 25.433594 C 17.246094 25.433594 16.945312 25.433594 16.632812 25.429688 C 16.300781 25.433594 15.972656 25.433594 15.632812 25.433594 C 15.292969 25.433594 14.953125 25.433594 14.613281 25.433594 C 13.898438 25.433594 13.1875 25.433594 12.472656 25.433594 C 11.558594 25.4375 10.644531 25.433594 9.730469 25.433594 C 9.027344 25.429688 8.328125 25.433594 7.625 25.433594 C 7.121094 25.433594 6.621094 25.433594 6.117188 25.429688 C 5.816406 25.433594 5.511719 25.433594 5.199219 25.433594 C 4.929688 25.433594 4.660156 25.433594 4.386719 25.4375 C 3.707031 25.4375 3.707031 25.4375 3.25 26 Z M 3.25 26 "/>
<path style=" stroke:none;fill-rule:nonzero;fill:rgb(24.313726%,21.176471%,47.058824%);fill-opacity:1;" d="M 9 55 C 24.179688 55 39.359375 55 55 55 C 55 55.328125 55 55.660156 55 56 C 39.820312 56 24.640625 56 9 56 C 9 55.671875 9 55.339844 9 55 Z M 9 55 "/>
<path style=" stroke:none;fill-rule:nonzero;fill:rgb(89.019608%,63.137257%,17.254902%);fill-opacity:1;" d="M 37.25 46.5 C 42.53125 46.5 47.808594 46.5 53.25 46.5 C 53.25 47.078125 53.25 47.65625 53.25 48.25 C 47.96875 48.25 42.691406 48.25 37.25 48.25 C 37.25 47.671875 37.25 47.09375 37.25 46.5 Z M 37.25 46.5 "/>
<path style=" stroke:none;fill-rule:nonzero;fill:rgb(32.941177%,23.137255%,47.058824%);fill-opacity:1;" d="M 38.820312 45.65625 C 39.140625 45.65625 39.464844 45.65625 39.800781 45.652344 C 40.152344 45.65625 40.507812 45.65625 40.863281 45.660156 C 41.222656 45.660156 41.582031 45.660156 41.945312 45.660156 C 42.703125 45.660156 43.464844 45.660156 44.222656 45.667969 C 45.195312 45.671875 46.167969 45.671875 47.140625 45.667969 C 47.890625 45.667969 48.636719 45.671875 49.382812 45.675781 C 49.742188 45.675781 50.101562 45.675781 50.460938 45.675781 C 50.960938 45.675781 51.460938 45.675781 51.964844 45.683594 C 52.390625 45.683594 52.390625 45.683594 52.828125 45.683594 C 53.5 45.75 53.5 45.75 54 46.25 C 54.066406 46.773438 54.066406 46.773438 54.0625 47.375 C 54.0625 47.671875 54.0625 47.671875 54.066406 47.976562 C 54 48.5 54 48.5 53.5 49 C 52.816406 49.0625 52.816406 49.0625 51.9375 49.0625 C 51.609375 49.066406 51.277344 49.066406 50.941406 49.070312 C 50.578125 49.070312 50.21875 49.066406 49.859375 49.066406 C 49.492188 49.066406 49.125 49.066406 48.757812 49.066406 C 47.984375 49.070312 47.210938 49.066406 46.441406 49.0625 C 45.449219 49.0625 44.457031 49.0625 43.46875 49.066406 C 42.707031 49.070312 41.949219 49.070312 41.1875 49.066406 C 40.824219 49.066406 40.457031 49.066406 40.09375 49.066406 C 39.582031 49.070312 39.074219 49.066406 38.5625 49.0625 C 38.128906 49.0625 38.128906 49.0625 37.683594 49.0625 C 37 49 37 49 36.5 48.5 C 36.355469 46.703125 36.355469 46.703125 36.78125 46.097656 C 37.460938 45.59375 37.976562 45.65625 38.820312 45.65625 Z M 37.25 46.5 C 37.25 47.078125 37.25 47.65625 37.25 48.25 C 42.527344 48.25 47.808594 48.25 53.25 48.25 C 53.25 47.671875 53.25 47.09375 53.25 46.5 C 47.96875 46.5 42.6875 46.5 37.25 46.5 Z M 37.25 46.5 "/>
<path style=" stroke:none;fill-rule:nonzero;fill:rgb(89.019608%,63.137257%,17.254902%);fill-opacity:1;" d="M 37.25 29.75 C 42.53125 29.75 47.808594 29.75 53.25 29.75 C 53.25 30.328125 53.25 30.90625 53.25 31.5 C 47.96875 31.5 42.691406 31.5 37.25 31.5 C 37.25 30.921875 37.25 30.34375 37.25 29.75 Z M 37.25 29.75 "/>
<path style=" stroke:none;fill-rule:nonzero;fill:rgb(89.803922%,63.921571%,16.862746%);fill-opacity:1;" d="M 37.25 13 C 42.53125 13 47.808594 13 53.25 13 C 53.25 13.578125 53.25 14.15625 53.25 14.75 C 51.199219 14.753906 49.152344 14.761719 47.101562 14.761719 C 46.148438 14.765625 45.199219 14.765625 44.246094 14.769531 C 43.328125 14.773438 42.414062 14.773438 41.496094 14.773438 C 41.144531 14.773438 40.796875 14.773438 40.441406 14.777344 C 39.953125 14.777344 39.464844 14.777344 38.976562 14.777344 C 38.695312 14.78125 38.414062 14.78125 38.128906 14.78125 C 37.5 14.75 37.5 14.75 37.25 14.5 C 37.25 14.003906 37.25 13.511719 37.25 13 Z M 37.25 13 "/>
<path style=" stroke:none;fill-rule:nonzero;fill:rgb(26.274511%,27.058825%,52.156866%);fill-opacity:1;" d="M 38.820312 28.90625 C 39.140625 28.90625 39.464844 28.90625 39.800781 28.902344 C 40.152344 28.90625 40.507812 28.90625 40.863281 28.910156 C 41.222656 28.910156 41.582031 28.910156 41.945312 28.910156 C 42.703125 28.910156 43.464844 28.910156 44.222656 28.917969 C 45.195312 28.921875 46.167969 28.921875 47.140625 28.917969 C 47.890625 28.917969 48.636719 28.921875 49.382812 28.925781 C 49.742188 28.925781 50.101562 28.925781 50.460938 28.925781 C 50.960938 28.925781 51.460938 28.925781 51.964844 28.933594 C 52.390625 28.933594 52.390625 28.933594 52.828125 28.933594 C 53.5 29 53.5 29 54 29.5 C 54.066406 30.023438 54.066406 30.023438 54.0625 30.625 C 54.0625 30.921875 54.0625 30.921875 54.066406 31.226562 C 54 31.75 54 31.75 53.5 32.25 C 52.828125 32.3125 52.828125 32.3125 51.964844 32.320312 C 51.640625 32.320312 51.320312 32.324219 50.984375 32.328125 C 50.632812 32.328125 50.277344 32.324219 49.925781 32.324219 C 49.5625 32.328125 49.199219 32.328125 48.835938 32.328125 C 48.078125 32.328125 47.320312 32.328125 46.5625 32.328125 C 45.589844 32.328125 44.613281 32.332031 43.640625 32.335938 C 42.894531 32.34375 42.144531 32.34375 41.398438 32.339844 C 41.042969 32.34375 40.679688 32.34375 40.324219 32.34375 C 39.820312 32.347656 39.320312 32.34375 38.820312 32.34375 C 38.535156 32.34375 38.25 32.34375 37.953125 32.34375 C 37.25 32.25 37.25 32.25 36.785156 31.925781 C 36.304688 31.210938 36.410156 30.578125 36.5 29.75 C 37.109375 28.835938 37.777344 28.90625 38.820312 28.90625 Z M 37.25 29.75 C 37.25 30.328125 37.25 30.90625 37.25 31.5 C 42.527344 31.5 47.808594 31.5 53.25 31.5 C 53.25 30.921875 53.25 30.34375 53.25 29.75 C 47.96875 29.75 42.6875 29.75 37.25 29.75 Z M 37.25 29.75 "/>
<path style=" stroke:none;fill-rule:nonzero;fill:rgb(36.470589%,46.27451%,84.313726%);fill-opacity:1;" d="M 4.390625 25.441406 C 4.792969 25.441406 4.792969 25.441406 5.207031 25.441406 C 5.664062 25.441406 5.664062 25.441406 6.132812 25.441406 C 6.464844 25.445312 6.800781 25.449219 7.132812 25.453125 C 7.476562 25.453125 7.816406 25.453125 8.160156 25.453125 C 9.054688 25.453125 9.953125 25.460938 10.855469 25.464844 C 11.769531 25.46875 12.6875 25.472656 13.605469 25.476562 C 15.402344 25.480469 17.203125 25.488281 19 25.5 C 19 25.582031 19 25.664062 19 25.75 C 14.542969 25.832031 10.089844 25.914062 5.5 26 C 5.5 29.050781 5.5 32.105469 5.5 35.25 C 9.953125 35.332031 14.410156 35.414062 19 35.5 C 19 35.582031 19 35.664062 19 35.75 C 17.019531 35.761719 15.042969 35.769531 13.0625 35.773438 C 12.140625 35.777344 11.222656 35.78125 10.304688 35.789062 C 9.417969 35.792969 8.527344 35.796875 7.644531 35.796875 C 7.304688 35.796875 6.964844 35.800781 6.625 35.800781 C 6.152344 35.808594 5.679688 35.808594 5.207031 35.808594 C 4.9375 35.808594 4.667969 35.808594 4.390625 35.808594 C 3.75 35.75 3.75 35.75 3.25 35.25 C 3.199219 34.558594 3.179688 33.890625 3.183594 33.195312 C 3.183594 32.992188 3.179688 32.789062 3.179688 32.578125 C 3.179688 32.148438 3.179688 31.71875 3.183594 31.289062 C 3.1875 30.628906 3.183594 29.96875 3.179688 29.308594 C 3.179688 28.890625 3.179688 28.472656 3.183594 28.054688 C 3.179688 27.855469 3.179688 27.65625 3.179688 27.453125 C 3.195312 25.550781 3.195312 25.550781 4.390625 25.441406 Z M 4.390625 25.441406 "/>
<path style=" stroke:none;fill-rule:nonzero;fill:rgb(43.529412%,43.137255%,46.666667%);fill-opacity:1;" d="M 4.390625 8.691406 C 4.792969 8.691406 4.792969 8.691406 5.207031 8.691406 C 5.664062 8.691406 5.664062 8.691406 6.132812 8.691406 C 6.464844 8.695312 6.800781 8.699219 7.132812 8.703125 C 7.476562 8.703125 7.816406 8.703125 8.160156 8.703125 C 9.054688 8.703125 9.953125 8.710938 10.855469 8.714844 C 11.769531 8.71875 12.6875 8.722656 13.605469 8.726562 C 15.402344 8.730469 17.203125 8.738281 19 8.75 C 19 8.832031 19 8.914062 19 9 C 14.542969 9.082031 10.089844 9.164062 5.5 9.25 C 5.5 12.300781 5.5 15.355469 5.5 18.5 C 9.953125 18.582031 14.410156 18.664062 19 18.75 C 19 18.832031 19 18.914062 19 19 C 17.019531 19.011719 15.042969 19.019531 13.0625 19.023438 C 12.140625 19.027344 11.222656 19.03125 10.304688 19.039062 C 9.417969 19.042969 8.527344 19.046875 7.644531 19.046875 C 7.304688 19.046875 6.964844 19.050781 6.625 19.050781 C 6.152344 19.058594 5.679688 19.058594 5.207031 19.058594 C 4.9375 19.058594 4.667969 19.058594 4.390625 19.058594 C 3.75 19 3.75 19 3.25 18.5 C 3.199219 17.808594 3.179688 17.140625 3.183594 16.445312 C 3.183594 16.242188 3.179688 16.039062 3.179688 15.828125 C 3.179688 15.398438 3.179688 14.96875 3.183594 14.539062 C 3.1875 13.878906 3.183594 13.21875 3.179688 12.558594 C 3.179688 12.140625 3.179688 11.722656 3.183594 11.304688 C 3.179688 11.105469 3.179688 10.90625 3.179688 10.703125 C 3.195312 8.800781 3.195312 8.800781 4.390625 8.691406 Z M 4.390625 8.691406 "/>
<path style=" stroke:none;fill-rule:nonzero;fill:rgb(94.509804%,52.549022%,45.882353%);fill-opacity:1;" d="M 58.5 42.5 C 59.160156 42.5 59.820312 42.5 60.5 42.5 C 60.953125 42.953125 60.78125 43.578125 60.785156 44.183594 C 60.785156 44.382812 60.78125 44.582031 60.78125 44.789062 C 60.78125 44.992188 60.78125 45.199219 60.785156 45.40625 C 60.785156 45.84375 60.78125 46.273438 60.78125 46.707031 C 60.78125 47.371094 60.78125 48.039062 60.785156 48.703125 C 60.785156 49.121094 60.78125 49.542969 60.78125 49.960938 C 60.78125 50.160156 60.785156 50.363281 60.785156 50.566406 C 60.777344 51.972656 60.777344 51.972656 60.5 52.25 C 59.839844 52.25 59.179688 52.25 58.5 52.25 C 58.5 49.03125 58.5 45.816406 58.5 42.5 Z M 58.5 42.5 "/>
<path style=" stroke:none;fill-rule:nonzero;fill:rgb(94.509804%,18.82353%,45.882353%);fill-opacity:1;" d="M 3.5 42.5 C 4.160156 42.5 4.820312 42.5 5.5 42.5 C 5.5 45.71875 5.5 48.933594 5.5 52.25 C 4.839844 52.25 4.179688 52.25 3.5 52.25 C 3.046875 51.796875 3.21875 51.171875 3.214844 50.566406 C 3.214844 50.367188 3.21875 50.167969 3.21875 49.960938 C 3.21875 49.757812 3.21875 49.550781 3.214844 49.34375 C 3.214844 48.90625 3.21875 48.476562 3.21875 48.042969 C 3.21875 47.378906 3.21875 46.710938 3.214844 46.046875 C 3.214844 45.628906 3.21875 45.207031 3.21875 44.789062 C 3.21875 44.589844 3.214844 44.386719 3.214844 44.183594 C 3.222656 42.777344 3.222656 42.777344 3.5 42.5 Z M 3.5 42.5 "/>
<path style=" stroke:none;fill-rule:nonzero;fill:rgb(38.431373%,87.450981%,89.803922%);fill-opacity:1;" d="M 58.5 25.75 C 59.160156 25.75 59.820312 25.75 60.5 25.75 C 60.953125 26.203125 60.78125 26.828125 60.785156 27.433594 C 60.785156 27.632812 60.78125 27.832031 60.78125 28.039062 C 60.78125 28.242188 60.78125 28.449219 60.785156 28.65625 C 60.785156 29.09375 60.78125 29.523438 60.78125 29.957031 C 60.78125 30.621094 60.78125 31.289062 60.785156 31.953125 C 60.785156 32.371094 60.78125 32.792969 60.78125 33.210938 C 60.78125 33.410156 60.785156 33.613281 60.785156 33.816406 C 60.777344 35.222656 60.777344 35.222656 60.5 35.5 C 59.839844 35.5 59.179688 35.5 58.5 35.5 C 58.5 32.28125 58.5 29.066406 58.5 25.75 Z M 58.5 25.75 "/>
<path style=" stroke:none;fill-rule:nonzero;fill:rgb(79.607844%,79.607844%,80.000001%);fill-opacity:1;" d="M 58.5 9 C 59.160156 9 59.820312 9 60.5 9 C 60.953125 9.453125 60.78125 10.078125 60.785156 10.683594 C 60.785156 10.882812 60.78125 11.082031 60.78125 11.289062 C 60.78125 11.492188 60.78125 11.699219 60.785156 11.90625 C 60.785156 12.34375 60.78125 12.773438 60.78125 13.207031 C 60.78125 13.871094 60.78125 14.539062 60.785156 15.203125 C 60.785156 15.621094 60.78125 16.042969 60.78125 16.460938 C 60.78125 16.660156 60.785156 16.863281 60.785156 17.066406 C 60.777344 18.472656 60.777344 18.472656 60.5 18.75 C 59.839844 18.75 59.179688 18.75 58.5 18.75 C 58.5 15.53125 58.5 12.316406 58.5 9 Z M 58.5 9 "/>
<path style=" stroke:none;fill-rule:nonzero;fill:rgb(24.705882%,20.784314%,47.450981%);fill-opacity:1;" d="M 56.75 55 C 58.484375 55 60.214844 55 62 55 C 62 55.328125 62 55.660156 62 56 C 60.265625 56 58.535156 56 56.75 56 C 56.75 55.671875 56.75 55.339844 56.75 55 Z M 56.75 55 "/>
<path style=" stroke:none;fill-rule:nonzero;fill:rgb(24.705882%,20.784314%,47.058824%);fill-opacity:1;" d="M 2 55 C 3.734375 55 5.464844 55 7.25 55 C 7.25 55.328125 7.25 55.660156 7.25 56 C 5.515625 56 3.785156 56 2 56 C 2 55.671875 2 55.339844 2 55 Z M 2 55 "/>
</g>
</svg>
