<?xml version="1.0" encoding="UTF-8"?>
<svg xmlns="http://www.w3.org/2000/svg" xmlns:xlink="http://www.w3.org/1999/xlink" width="64" height="64" viewBox="0 0 64 64" version="1.1">
<g id="surface1">
<path style=" stroke:none;fill-rule:nonzero;fill:rgb(4.705882%,3.921569%,3.137255%);fill-opacity:1;" d="M 48.5 2.5 C 49.992188 3.160156 50.609375 4.316406 51.25 5.75 C 51.308594 6.003906 51.371094 6.261719 51.433594 6.523438 C 51.871094 7.53125 52.375 7.648438 53.375 8.0625 C 56.207031 9.351562 57.800781 11.316406 59.15625 14.078125 C 59.941406 16.175781 60.070312 18.230469 60.066406 20.453125 C 60.074219 21.015625 60.078125 21.578125 60.085938 22.140625 C 60.089844 23.015625 60.09375 23.894531 60.09375 24.769531 C 60.097656 25.621094 60.105469 26.476562 60.113281 27.328125 C 60.113281 27.71875 60.113281 27.71875 60.113281 28.113281 C 60.140625 30.277344 60.683594 32.183594 62.25 33.75 C 62.820312 34.125 63.390625 34.433594 64 34.75 C 64.125 35.40625 64.125 35.40625 64 36.25 C 62.308594 38.296875 59.152344 38.871094 56.683594 39.390625 C 56.371094 39.460938 56.054688 39.527344 55.730469 39.597656 C 55.367188 39.671875 55.367188 39.671875 55 39.75 C 54.996094 39.976562 54.996094 40.203125 54.996094 40.441406 C 54.980469 42.59375 54.960938 44.746094 54.941406 46.894531 C 54.929688 48.003906 54.921875 49.109375 54.914062 50.214844 C 54.90625 51.28125 54.898438 52.351562 54.886719 53.417969 C 54.878906 53.824219 54.878906 54.234375 54.875 54.640625 C 54.871094 55.210938 54.863281 55.78125 54.859375 56.351562 C 54.855469 56.839844 54.855469 56.839844 54.851562 57.335938 C 54.667969 59.003906 54.046875 60.148438 52.75 61.25 C 51.835938 61.554688 50.992188 61.535156 50.039062 61.535156 C 49.835938 61.535156 49.636719 61.539062 49.425781 61.539062 C 48.746094 61.539062 48.070312 61.539062 47.390625 61.539062 C 46.90625 61.542969 46.421875 61.542969 45.933594 61.546875 C 44.613281 61.546875 43.289062 61.550781 41.96875 61.550781 C 41.144531 61.550781 40.320312 61.550781 39.496094 61.550781 C 36.914062 61.558594 34.335938 61.558594 31.753906 61.558594 C 28.773438 61.558594 25.792969 61.566406 22.8125 61.574219 C 20.511719 61.578125 18.207031 61.578125 15.90625 61.578125 C 14.527344 61.578125 13.152344 61.582031 11.777344 61.585938 C 10.484375 61.589844 9.1875 61.59375 7.894531 61.589844 C 7.421875 61.589844 6.945312 61.589844 6.46875 61.59375 C 5.820312 61.59375 5.171875 61.59375 4.523438 61.59375 C 4.335938 61.59375 4.148438 61.59375 3.953125 61.597656 C 2.414062 61.582031 1.675781 61.128906 0.558594 60.128906 C -0.296875 59.035156 -0.171875 57.796875 -0.15625 56.464844 C -0.160156 56.183594 -0.164062 55.90625 -0.164062 55.621094 C -0.167969 54.703125 -0.164062 53.785156 -0.15625 52.867188 C -0.15625 52.226562 -0.15625 51.589844 -0.160156 50.949219 C -0.160156 49.613281 -0.15625 48.273438 -0.148438 46.933594 C -0.140625 45.390625 -0.140625 43.847656 -0.144531 42.300781 C -0.148438 40.8125 -0.148438 39.324219 -0.140625 37.835938 C -0.140625 37.203125 -0.140625 36.570312 -0.144531 35.9375 C -0.144531 35.050781 -0.140625 34.171875 -0.132812 33.285156 C -0.136719 33.023438 -0.136719 32.761719 -0.136719 32.496094 C -0.117188 31 0.0117188 30.144531 1 29 C 1.449219 28.574219 1.449219 28.574219 1.90625 28.238281 C 2.078125 28.109375 2.25 27.980469 2.425781 27.847656 C 2.609375 27.71875 2.785156 27.585938 2.96875 27.453125 C 3.511719 27.050781 4.046875 26.648438 4.578125 26.238281 C 5.101562 25.859375 5.605469 25.539062 6.164062 25.21875 C 7.332031 24.5 8.488281 23.789062 8.941406 22.425781 C 9.21875 20.824219 9.140625 19.214844 9.078125 17.59375 C 9.070312 17.101562 9.066406 16.613281 9.058594 16.121094 C 9.050781 15.230469 9.03125 14.339844 9.003906 13.449219 C 9.003906 13.136719 9.003906 12.824219 9 12.5 C 9.25 12.25 9.25 12.25 9.769531 12.230469 C 9.996094 12.234375 10.226562 12.238281 10.460938 12.242188 C 10.71875 12.246094 10.980469 12.25 11.246094 12.253906 C 11.53125 12.257812 11.8125 12.261719 12.105469 12.265625 C 12.703125 12.269531 13.300781 12.273438 13.898438 12.273438 C 14.84375 12.273438 15.789062 12.28125 16.734375 12.300781 C 21.089844 12.507812 21.089844 12.507812 24.859375 10.636719 C 25.109375 10.390625 25.359375 10.144531 25.609375 9.890625 C 26.242188 9.257812 26.625 8.933594 27.5 8.75 C 28.003906 8.964844 28.003906 8.964844 28.488281 9.347656 C 28.75 9.550781 28.75 9.550781 29.019531 9.761719 C 29.289062 9.980469 29.289062 9.980469 29.5625 10.203125 C 29.746094 10.347656 29.925781 10.488281 30.117188 10.636719 C 31.378906 11.628906 31.378906 11.628906 31.75 12 C 33.492188 12.226562 35.863281 12.53125 37.410156 11.609375 C 37.828125 11.09375 38.164062 10.570312 38.5 10 C 39.449219 8.972656 40.367188 8.4375 41.671875 7.953125 C 42.523438 7.597656 42.90625 7.414062 43.363281 6.605469 C 43.523438 6.121094 43.675781 5.636719 43.8125 5.148438 C 44.121094 4.074219 44.707031 3.492188 45.546875 2.796875 C 46.550781 2.371094 47.425781 2.335938 48.5 2.5 Z M 48.5 2.5 "/>
<path style=" stroke:none;fill-rule:nonzero;fill:rgb(99.215686%,38.82353%,43.137255%);fill-opacity:1;" d="M 47.296875 7.9375 C 47.523438 7.933594 47.746094 7.925781 47.972656 7.921875 C 51.007812 7.90625 53.488281 8.933594 55.757812 10.953125 C 57.507812 12.804688 58.777344 15.242188 58.785156 17.808594 C 58.785156 18.199219 58.785156 18.199219 58.792969 18.601562 C 58.792969 18.882812 58.792969 19.164062 58.792969 19.453125 C 58.800781 20.050781 58.808594 20.652344 58.8125 21.253906 C 58.820312 22.195312 58.828125 23.136719 58.832031 24.078125 C 58.835938 24.988281 58.84375 25.902344 58.855469 26.8125 C 58.855469 27.09375 58.855469 27.371094 58.855469 27.65625 C 58.890625 29.96875 59.347656 31.886719 60.75 33.75 C 60.75 33.914062 60.75 34.078125 60.75 34.25 C 60.96875 34.34375 60.96875 34.34375 61.1875 34.4375 C 61.824219 34.792969 62.253906 35.21875 62.75 35.75 C 62.453125 35.945312 62.15625 36.136719 61.859375 36.328125 C 61.613281 36.488281 61.613281 36.488281 61.359375 36.652344 C 59.90625 37.480469 58.480469 37.921875 56.859375 38.265625 C 56.59375 38.324219 56.59375 38.324219 56.320312 38.386719 C 53.355469 39.035156 50.4375 39.335938 47.40625 39.3125 C 47.089844 39.308594 46.773438 39.308594 46.445312 39.308594 C 41.4375 39.25 36.644531 38.507812 32.25 36 C 32.25 35.753906 32.25 35.503906 32.25 35.25 C 32.652344 34.863281 32.652344 34.863281 33.1875 34.453125 C 34.222656 33.585938 34.777344 32.753906 35.25 31.5 C 35.335938 31.300781 35.417969 31.105469 35.507812 30.902344 C 35.855469 29.613281 35.824219 28.371094 35.828125 27.042969 C 35.835938 26.453125 35.839844 25.867188 35.847656 25.28125 C 35.855469 24.359375 35.859375 23.4375 35.863281 22.515625 C 35.871094 21.625 35.878906 20.734375 35.890625 19.839844 C 35.890625 19.566406 35.890625 19.296875 35.890625 19.015625 C 35.929688 15.875 36.847656 13.359375 38.953125 10.988281 C 41.375 8.699219 44.066406 7.953125 47.296875 7.9375 Z M 47.296875 7.9375 "/>
<path style=" stroke:none;fill-rule:nonzero;fill:rgb(99.215686%,88.627452%,34.901962%);fill-opacity:1;" d="M 27 37.5 C 28.039062 37.914062 28.765625 38.664062 29.5625 39.421875 C 29.855469 39.695312 30.148438 39.96875 30.4375 40.242188 C 30.578125 40.371094 30.71875 40.503906 30.863281 40.640625 C 31.484375 41.21875 32.121094 41.773438 32.761719 42.324219 C 33.335938 42.824219 33.890625 43.332031 34.453125 43.84375 C 35.296875 44.609375 36.15625 45.335938 37.046875 46.046875 C 38.5625 47.273438 39.96875 48.605469 41.386719 49.941406 C 42.171875 50.675781 42.964844 51.390625 43.777344 52.089844 C 44.359375 52.59375 44.929688 53.109375 45.5 53.625 C 46.246094 54.296875 46.992188 54.964844 47.75 55.625 C 51.058594 58.511719 51.058594 58.511719 52.5 60 C 51.558594 60.613281 50.625 60.570312 49.542969 60.5625 C 49.246094 60.566406 49.246094 60.566406 48.941406 60.566406 C 48.277344 60.566406 47.613281 60.566406 46.945312 60.566406 C 46.46875 60.566406 45.992188 60.566406 45.515625 60.566406 C 44.21875 60.570312 42.925781 60.566406 41.628906 60.566406 C 40.273438 60.566406 38.921875 60.566406 37.566406 60.566406 C 35.292969 60.570312 33.015625 60.566406 30.746094 60.566406 C 28.113281 60.5625 25.484375 60.5625 22.851562 60.566406 C 20.59375 60.566406 18.335938 60.566406 16.078125 60.566406 C 14.730469 60.566406 13.378906 60.566406 12.03125 60.566406 C 10.761719 60.570312 9.496094 60.566406 8.226562 60.566406 C 7.761719 60.566406 7.296875 60.566406 6.828125 60.566406 C 6.195312 60.566406 5.558594 60.566406 4.925781 60.5625 C 4.738281 60.566406 4.550781 60.566406 4.363281 60.566406 C 3.433594 60.558594 3.042969 60.527344 2.25 60 C 2.25 59.5 2.25 59.5 2.601562 59.148438 C 2.761719 59.011719 2.925781 58.875 3.09375 58.734375 C 3.90625 58.042969 4.707031 57.34375 5.5 56.625 C 6.40625 55.808594 7.316406 55.003906 8.234375 54.203125 C 8.828125 53.683594 9.414062 53.15625 10 52.625 C 10.90625 51.808594 11.816406 51 12.738281 50.199219 C 13.316406 49.691406 13.886719 49.175781 14.453125 48.65625 C 15.335938 47.855469 16.242188 47.09375 17.171875 46.34375 C 18.117188 45.578125 18.988281 44.789062 19.835938 43.917969 C 20.429688 43.320312 21.066406 42.773438 21.707031 42.21875 C 22.3125 41.695312 22.90625 41.164062 23.5 40.625 C 24.449219 39.765625 25.410156 38.917969 26.375 38.078125 C 26.589844 37.890625 26.800781 37.699219 27 37.5 Z M 27 37.5 "/>
<path style=" stroke:none;fill-rule:nonzero;fill:rgb(97.254902%,96.470588%,96.862745%);fill-opacity:1;" d="M 10.25 13.5 C 18.746094 13.5 27.246094 13.5 36 13.5 C 35.753906 14.488281 35.503906 15.480469 35.25 16.5 C 34.988281 16.503906 34.730469 16.503906 34.464844 16.507812 C 32.023438 16.53125 29.585938 16.558594 27.148438 16.585938 C 25.890625 16.597656 24.636719 16.613281 23.386719 16.625 C 22.175781 16.636719 20.964844 16.648438 19.757812 16.664062 C 19.296875 16.667969 18.832031 16.671875 18.371094 16.675781 C 17.726562 16.683594 17.078125 16.691406 16.433594 16.699219 C 16.238281 16.699219 16.046875 16.703125 15.847656 16.703125 C 14.976562 16.636719 14.976562 16.636719 14.25 17 C 14.226562 17.371094 14.21875 17.738281 14.21875 18.109375 C 14.21875 18.332031 14.214844 18.558594 14.214844 18.789062 C 14.21875 19.023438 14.21875 19.257812 14.21875 19.5 C 14.21875 19.734375 14.21875 19.96875 14.214844 20.210938 C 14.21875 20.546875 14.21875 20.546875 14.21875 20.890625 C 14.21875 21.097656 14.21875 21.304688 14.21875 21.515625 C 14.199219 22.003906 14.199219 22.003906 14.5 22.25 C 15.136719 22.28125 15.769531 22.296875 16.410156 22.300781 C 16.609375 22.304688 16.808594 22.308594 17.015625 22.308594 C 17.679688 22.316406 18.34375 22.324219 19.011719 22.328125 C 19.46875 22.335938 19.925781 22.339844 20.386719 22.34375 C 21.597656 22.359375 22.808594 22.371094 24.019531 22.382812 C 25.253906 22.394531 26.488281 22.410156 27.726562 22.421875 C 30.148438 22.449219 32.574219 22.476562 35 22.5 C 35.015625 23.578125 35.023438 24.65625 35.03125 25.734375 C 35.035156 26.039062 35.039062 26.339844 35.046875 26.652344 C 35.058594 29.359375 34.863281 31.652344 33 33.75 C 32.363281 34.238281 31.714844 34.640625 31 35 C 30.96875 35.585938 30.96875 35.585938 31.25 36.25 C 33.445312 38.253906 36.9375 38.933594 39.75 39.5 C 38.851562 40.421875 37.917969 41.261719 36.921875 42.078125 C 36.785156 42.191406 36.648438 42.304688 36.503906 42.421875 C 36.171875 42.699219 35.835938 42.976562 35.5 43.25 C 34.796875 42.925781 34.265625 42.585938 33.707031 42.050781 C 33.5625 41.914062 33.417969 41.78125 33.269531 41.640625 C 33.117188 41.496094 32.96875 41.351562 32.8125 41.203125 C 32.5 40.90625 32.183594 40.613281 31.871094 40.316406 C 31.71875 40.175781 31.570312 40.035156 31.414062 39.886719 C 30.152344 38.710938 28.832031 37.601562 27.5 36.5 C 26.566406 36.894531 25.925781 37.484375 25.1875 38.171875 C 24.941406 38.398438 24.699219 38.625 24.453125 38.851562 C 24.21875 39.066406 23.988281 39.28125 23.75 39.5 C 23.246094 39.949219 22.738281 40.390625 22.226562 40.828125 C 21.886719 41.128906 21.550781 41.441406 21.226562 41.753906 C 21.054688 41.917969 20.878906 42.082031 20.703125 42.25 C 20.550781 42.398438 20.398438 42.550781 20.238281 42.703125 C 19.75 43 19.75 43 19.179688 43.011719 C 18.183594 42.628906 17.476562 41.988281 16.671875 41.296875 C 16.320312 41.003906 15.964844 40.707031 15.613281 40.414062 C 15.339844 40.1875 15.339844 40.1875 15.058594 39.953125 C 13.824219 38.953125 12.539062 38.015625 11.261719 37.066406 C 10.5 36.5 10.5 36.5 10.25 36.25 C 10.226562 35.542969 10.21875 34.839844 10.222656 34.132812 C 10.222656 33.796875 10.222656 33.796875 10.222656 33.449219 C 10.222656 32.714844 10.222656 31.984375 10.226562 31.25 C 10.226562 30.796875 10.226562 30.34375 10.226562 29.894531 C 10.226562 28.214844 10.230469 26.539062 10.234375 24.859375 C 10.238281 21.109375 10.246094 17.363281 10.25 13.5 Z M 10.25 13.5 "/>
<path style=" stroke:none;fill-rule:nonzero;fill:rgb(99.215686%,89.019608%,34.901962%);fill-opacity:1;" d="M 1.25 30.5 C 2.269531 30.929688 3.074219 31.632812 3.921875 32.328125 C 5.300781 33.445312 6.695312 34.539062 8.109375 35.609375 C 9.703125 36.816406 11.261719 38.058594 12.808594 39.328125 C 14.128906 40.40625 15.472656 41.445312 16.832031 42.46875 C 17.433594 42.949219 17.96875 43.445312 18.5 44 C 14.703125 47.566406 14.703125 47.566406 13.21875 48.84375 C 12.652344 49.335938 12.101562 49.839844 11.546875 50.34375 C 10.703125 51.109375 9.84375 51.835938 8.953125 52.546875 C 7.78125 53.496094 6.675781 54.5 5.578125 55.53125 C 5.335938 55.757812 5.335938 55.757812 5.089844 55.988281 C 4.425781 56.613281 3.757812 57.242188 3.09375 57.871094 C 2.917969 58.03125 2.742188 58.191406 2.5625 58.359375 C 2.421875 58.492188 2.277344 58.628906 2.128906 58.765625 C 2.003906 58.84375 1.878906 58.921875 1.75 59 C 1.503906 58.917969 1.253906 58.835938 1 58.75 C 0.996094 55.140625 0.988281 51.53125 0.988281 47.921875 C 0.984375 46.246094 0.984375 44.570312 0.980469 42.894531 C 0.976562 41.277344 0.976562 39.664062 0.976562 38.046875 C 0.976562 37.425781 0.976562 36.808594 0.972656 36.191406 C 0.972656 35.328125 0.972656 34.46875 0.972656 33.605469 C 0.96875 33.347656 0.96875 33.089844 0.96875 32.824219 C 0.96875 32.589844 0.96875 32.355469 0.96875 32.113281 C 0.96875 31.910156 0.96875 31.703125 0.96875 31.496094 C 1 31 1 31 1.25 30.5 Z M 1.25 30.5 "/>
<path style=" stroke:none;fill-rule:nonzero;fill:rgb(99.215686%,88.627452%,34.901962%);fill-opacity:1;" d="M 40 40.75 C 40.609375 41.339844 41.148438 41.933594 41.65625 42.609375 C 42.722656 43.878906 44.203125 44.484375 45.75 45 C 48.621094 45.242188 50.429688 44.65625 52.75 43 C 52.996094 42.835938 53.246094 42.671875 53.5 42.5 C 53.511719 44.578125 53.519531 46.65625 53.523438 48.734375 C 53.527344 49.699219 53.53125 50.664062 53.539062 51.628906 C 53.542969 52.558594 53.546875 53.488281 53.546875 54.417969 C 53.546875 54.773438 53.550781 55.128906 53.550781 55.484375 C 53.558594 55.980469 53.558594 56.476562 53.558594 56.976562 C 53.558594 57.257812 53.558594 57.539062 53.558594 57.832031 C 53.5 58.5 53.5 58.5 53 59 C 51.90625 58.050781 50.824219 57.09375 49.75 56.125 C 48.84375 55.308594 47.933594 54.5 47.011719 53.699219 C 46.433594 53.191406 45.863281 52.675781 45.296875 52.15625 C 44.453125 51.390625 43.59375 50.664062 42.703125 49.953125 C 41.351562 48.859375 40.085938 47.6875 38.824219 46.488281 C 37.910156 45.621094 36.976562 44.796875 36 44 C 37.171875 42.707031 38.578125 41.753906 40 40.75 Z M 40 40.75 "/>
<path style=" stroke:none;fill-rule:nonzero;fill:rgb(96.862745%,96.078432%,96.862745%);fill-opacity:1;" d="M 15 17.5 C 21.601562 17.5 28.199219 17.5 35 17.5 C 35 18.820312 35 20.140625 35 21.5 C 28.398438 21.5 21.800781 21.5 15 21.5 C 15 20.179688 15 18.859375 15 17.5 Z M 15 17.5 "/>
<path style=" stroke:none;fill-rule:nonzero;fill:rgb(85.882354%,84.705883%,91.764706%);fill-opacity:1;" d="M 10.25 13.5 C 10.664062 13.5 11.074219 13.5 11.5 13.5 C 11.496094 13.761719 11.488281 14.027344 11.484375 14.296875 C 11.445312 16.789062 11.421875 19.277344 11.417969 21.765625 C 11.414062 23.046875 11.402344 24.328125 11.378906 25.609375 C 11.355469 26.84375 11.351562 28.078125 11.355469 29.316406 C 11.355469 29.789062 11.347656 30.257812 11.332031 30.726562 C 11.199219 33.21875 11.199219 33.21875 12.09375 35.464844 C 13.035156 36.40625 14.113281 37.074219 15.25 37.75 C 15.613281 38.023438 15.972656 38.304688 16.324219 38.59375 C 16.464844 38.703125 16.609375 38.816406 16.753906 38.933594 C 17.03125 39.152344 17.308594 39.371094 17.589844 39.589844 C 18.300781 40.152344 19.019531 40.710938 19.75 41.25 C 20.730469 40.84375 21.425781 40.171875 22.1875 39.453125 C 22.453125 39.203125 22.722656 38.953125 22.988281 38.703125 C 23.183594 38.523438 23.183594 38.523438 23.382812 38.339844 C 24.015625 37.753906 24.664062 37.1875 25.316406 36.625 C 25.601562 36.378906 25.878906 36.125 26.152344 35.863281 C 26.746094 35.316406 27.148438 35.015625 27.953125 34.886719 C 29 35.035156 29.503906 35.542969 30.21875 36.265625 C 30.484375 36.519531 30.746094 36.773438 31.011719 37.027344 C 31.136719 37.152344 31.261719 37.277344 31.394531 37.40625 C 31.851562 37.851562 32.328125 38.269531 32.8125 38.6875 C 32.964844 38.820312 33.121094 38.953125 33.277344 39.089844 C 33.433594 39.226562 33.589844 39.359375 33.75 39.5 C 34.125 39.828125 34.5 40.15625 34.875 40.484375 C 35.042969 40.628906 35.210938 40.777344 35.382812 40.925781 C 35.503906 41.035156 35.625 41.140625 35.75 41.25 C 36.308594 40.980469 36.785156 40.722656 37.28125 40.34375 C 37.75 40 37.75 40 38.25 40 C 38.25 39.753906 38.25 39.503906 38.25 39.25 C 38.746094 39.332031 39.238281 39.414062 39.75 39.5 C 38.851562 40.421875 37.917969 41.261719 36.921875 42.078125 C 36.785156 42.191406 36.648438 42.304688 36.503906 42.421875 C 36.171875 42.699219 35.835938 42.976562 35.5 43.25 C 34.796875 42.925781 34.265625 42.585938 33.707031 42.050781 C 33.5625 41.914062 33.417969 41.78125 33.269531 41.640625 C 33.117188 41.496094 32.96875 41.351562 32.8125 41.203125 C 32.5 40.90625 32.183594 40.613281 31.871094 40.316406 C 31.71875 40.175781 31.570312 40.035156 31.414062 39.886719 C 30.152344 38.710938 28.832031 37.601562 27.5 36.5 C 26.566406 36.894531 25.925781 37.484375 25.1875 38.171875 C 24.941406 38.398438 24.699219 38.625 24.453125 38.851562 C 24.21875 39.066406 23.988281 39.28125 23.75 39.5 C 23.246094 39.949219 22.738281 40.390625 22.226562 40.828125 C 21.886719 41.128906 21.550781 41.441406 21.226562 41.753906 C 21.054688 41.917969 20.878906 42.082031 20.703125 42.25 C 20.550781 42.398438 20.398438 42.550781 20.238281 42.703125 C 19.75 43 19.75 43 19.179688 43.011719 C 18.183594 42.628906 17.476562 41.988281 16.671875 41.296875 C 16.320312 41.003906 15.964844 40.707031 15.613281 40.414062 C 15.339844 40.1875 15.339844 40.1875 15.058594 39.953125 C 13.824219 38.953125 12.539062 38.015625 11.261719 37.066406 C 10.5 36.5 10.5 36.5 10.25 36.25 C 10.226562 35.542969 10.21875 34.839844 10.222656 34.132812 C 10.222656 33.914062 10.222656 33.691406 10.222656 33.460938 C 10.222656 32.722656 10.222656 31.988281 10.226562 31.25 C 10.226562 30.738281 10.226562 30.230469 10.226562 29.71875 C 10.226562 28.375 10.230469 27.03125 10.234375 25.6875 C 10.234375 24.316406 10.238281 22.945312 10.238281 21.574219 C 10.238281 18.882812 10.246094 16.191406 10.25 13.5 Z M 10.25 13.5 "/>
<path style=" stroke:none;fill-rule:nonzero;fill:rgb(96.078432%,78.823531%,34.117648%);fill-opacity:1;" d="M 5.25 57 C 5.332031 57.164062 5.414062 57.328125 5.5 57.5 C 5.335938 57.417969 5.171875 57.335938 5 57.25 C 5.082031 57.167969 5.164062 57.085938 5.25 57 Z M 4.5 57.5 C 4.664062 57.582031 4.828125 57.664062 5 57.75 C 4.671875 58.164062 4.339844 58.574219 4 59 C 4.246094 59 4.488281 58.996094 4.742188 58.996094 C 10.707031 58.976562 16.671875 58.957031 22.636719 58.949219 C 25.523438 58.941406 28.40625 58.933594 31.292969 58.925781 C 33.804688 58.914062 36.320312 58.90625 38.832031 58.90625 C 40.164062 58.90625 41.496094 58.902344 42.828125 58.894531 C 44.078125 58.886719 45.332031 58.886719 46.585938 58.886719 C 47.046875 58.886719 47.503906 58.886719 47.964844 58.878906 C 48.59375 58.875 49.21875 58.878906 49.847656 58.878906 C 50.03125 58.878906 50.214844 58.875 50.402344 58.871094 C 50.914062 58.878906 50.914062 58.878906 51.75 59 C 52.246094 59.507812 52.246094 59.507812 52.5 60 C 51.558594 60.613281 50.625 60.570312 49.542969 60.5625 C 49.34375 60.566406 49.148438 60.566406 48.941406 60.566406 C 48.277344 60.566406 47.613281 60.566406 46.945312 60.566406 C 46.46875 60.566406 45.992188 60.566406 45.515625 60.566406 C 44.21875 60.570312 42.925781 60.566406 41.628906 60.566406 C 40.273438 60.566406 38.921875 60.566406 37.566406 60.566406 C 35.292969 60.570312 33.015625 60.566406 30.746094 60.566406 C 28.113281 60.5625 25.484375 60.5625 22.851562 60.566406 C 20.59375 60.566406 18.335938 60.566406 16.078125 60.566406 C 14.730469 60.566406 13.378906 60.566406 12.03125 60.566406 C 10.761719 60.570312 9.496094 60.566406 8.226562 60.566406 C 7.761719 60.566406 7.296875 60.566406 6.828125 60.566406 C 6.195312 60.566406 5.558594 60.566406 4.925781 60.5625 C 4.644531 60.566406 4.644531 60.566406 4.363281 60.566406 C 3.433594 60.558594 3.042969 60.527344 2.25 60 C 2.25 59.835938 2.25 59.671875 2.25 59.5 C 2.675781 59.078125 2.675781 59.078125 3.234375 58.609375 C 3.507812 58.378906 3.507812 58.378906 3.789062 58.140625 C 3.941406 58.011719 4.09375 57.882812 4.25 57.75 C 4.332031 57.667969 4.414062 57.585938 4.5 57.5 Z M 4.5 57.5 "/>
<path style=" stroke:none;fill-rule:nonzero;fill:rgb(96.078432%,27.058825%,32.156864%);fill-opacity:1;" d="M 40.5 9.75 C 40.664062 9.832031 40.828125 9.914062 41 10 C 40.742188 10.175781 40.484375 10.351562 40.21875 10.53125 C 38.699219 11.816406 37.898438 14.085938 37.5 16 C 37.476562 16.414062 37.460938 16.824219 37.460938 17.238281 C 37.457031 17.605469 37.457031 17.605469 37.453125 17.980469 C 37.449219 18.246094 37.449219 18.511719 37.449219 18.78125 C 37.441406 19.34375 37.433594 19.910156 37.425781 20.472656 C 37.414062 21.359375 37.40625 22.246094 37.398438 23.128906 C 37.390625 23.988281 37.378906 24.84375 37.371094 25.703125 C 37.367188 25.960938 37.367188 26.222656 37.367188 26.492188 C 37.3125 29.726562 36.632812 32.03125 34.40625 34.375 C 34.273438 34.5 34.136719 34.621094 34 34.75 C 38.191406 37.207031 43.300781 37.601562 48.0625 37.578125 C 48.230469 37.578125 48.398438 37.578125 48.574219 37.578125 C 53.09375 37.550781 57.882812 37.058594 62 35 C 62.246094 35.246094 62.496094 35.496094 62.75 35.75 C 62.453125 35.945312 62.15625 36.136719 61.859375 36.328125 C 61.613281 36.488281 61.613281 36.488281 61.359375 36.652344 C 59.90625 37.480469 58.480469 37.921875 56.859375 38.265625 C 56.59375 38.324219 56.59375 38.324219 56.324219 38.386719 C 53.359375 39.035156 50.441406 39.335938 47.40625 39.3125 C 47.085938 39.308594 46.769531 39.308594 46.441406 39.308594 C 41.4375 39.25 36.644531 38.507812 32.25 36 C 32.25 35.753906 32.25 35.503906 32.25 35.25 C 32.652344 34.863281 32.652344 34.863281 33.1875 34.453125 C 34.226562 33.585938 34.773438 32.753906 35.25 31.5 C 35.335938 31.300781 35.421875 31.105469 35.507812 30.902344 C 35.851562 29.613281 35.824219 28.371094 35.828125 27.042969 C 35.832031 26.453125 35.839844 25.867188 35.84375 25.28125 C 35.851562 24.359375 35.859375 23.4375 35.863281 22.515625 C 35.871094 21.625 35.878906 20.734375 35.890625 19.839844 C 35.890625 19.566406 35.890625 19.296875 35.890625 19.015625 C 35.929688 15.894531 36.820312 13.191406 39.058594 10.9375 C 39.527344 10.523438 40.003906 10.128906 40.5 9.75 Z M 40.5 9.75 "/>
<path style=" stroke:none;fill-rule:nonzero;fill:rgb(98.039216%,80.392158%,34.901962%);fill-opacity:1;" d="M 1.25 30.5 C 2.21875 30.9375 2.21875 30.9375 2.5 31.5 C 2.519531 31.84375 2.523438 32.183594 2.519531 32.527344 C 2.519531 32.742188 2.515625 32.957031 2.515625 33.179688 C 2.511719 33.417969 2.511719 33.65625 2.503906 33.898438 C 2.503906 34.148438 2.5 34.394531 2.496094 34.652344 C 2.488281 35.476562 2.480469 36.300781 2.46875 37.128906 C 2.460938 37.699219 2.457031 38.269531 2.453125 38.839844 C 2.433594 40.34375 2.421875 41.851562 2.402344 43.355469 C 2.382812 44.890625 2.367188 46.425781 2.351562 47.960938 C 2.320312 50.972656 2.285156 53.988281 2.25 57 C 2.648438 56.683594 3.046875 56.371094 3.441406 56.050781 C 3.664062 55.878906 3.882812 55.699219 4.113281 55.519531 C 4.953125 54.835938 5.746094 54.109375 6.53125 53.359375 C 6.832031 53.078125 7.136719 52.792969 7.433594 52.511719 C 7.578125 52.378906 7.71875 52.246094 7.863281 52.109375 C 8.484375 51.53125 9.125 50.972656 9.769531 50.417969 C 10.351562 49.910156 10.925781 49.390625 11.5 48.875 C 12.402344 48.058594 13.3125 47.253906 14.230469 46.460938 C 14.621094 46.113281 15.011719 45.757812 15.394531 45.398438 C 15.726562 45.09375 15.726562 45.09375 16.0625 44.78125 C 16.265625 44.589844 16.46875 44.398438 16.675781 44.203125 C 17.230469 43.765625 17.558594 43.597656 18.25 43.5 C 18.25 44.25 18.25 44.25 17.960938 44.605469 C 17.828125 44.726562 17.691406 44.847656 17.554688 44.972656 C 17.40625 45.109375 17.261719 45.242188 17.109375 45.382812 C 16.949219 45.523438 16.789062 45.667969 16.625 45.8125 C 16.464844 45.960938 16.300781 46.105469 16.136719 46.253906 C 15.175781 47.128906 14.210938 47.988281 13.226562 48.835938 C 12.660156 49.328125 12.105469 49.835938 11.546875 50.34375 C 10.703125 51.109375 9.84375 51.835938 8.953125 52.546875 C 7.78125 53.496094 6.675781 54.5 5.578125 55.53125 C 5.335938 55.757812 5.335938 55.757812 5.089844 55.988281 C 4.425781 56.613281 3.757812 57.242188 3.09375 57.871094 C 2.917969 58.03125 2.742188 58.191406 2.5625 58.359375 C 2.421875 58.492188 2.277344 58.628906 2.128906 58.765625 C 2.003906 58.84375 1.878906 58.921875 1.75 59 C 1.503906 58.917969 1.253906 58.835938 1 58.75 C 0.996094 55.140625 0.988281 51.53125 0.988281 47.921875 C 0.984375 46.246094 0.984375 44.570312 0.980469 42.894531 C 0.976562 41.277344 0.976562 39.664062 0.976562 38.046875 C 0.976562 37.425781 0.976562 36.808594 0.972656 36.191406 C 0.972656 35.328125 0.972656 34.46875 0.972656 33.605469 C 0.96875 33.347656 0.96875 33.089844 0.96875 32.824219 C 0.96875 32.589844 0.96875 32.355469 0.96875 32.113281 C 0.96875 31.910156 0.96875 31.703125 0.96875 31.496094 C 1 31 1 31 1.25 30.5 Z M 1.25 30.5 "/>
<path style=" stroke:none;fill-rule:nonzero;fill:rgb(98.039216%,80.392158%,34.901962%);fill-opacity:1;" d="M 38.5 41.75 C 38.664062 41.832031 38.828125 41.914062 39 42 C 38.671875 42.414062 38.339844 42.824219 38 43.25 C 39.726562 44.808594 39.726562 44.808594 41.46875 46.34375 C 42.179688 46.960938 42.878906 47.597656 43.570312 48.238281 C 44.671875 49.257812 45.78125 50.246094 46.953125 51.1875 C 47.886719 51.941406 48.746094 52.71875 49.578125 53.578125 C 50.476562 54.476562 51.433594 55.335938 52.460938 56.085938 C 53.199219 56.628906 53.480469 56.867188 53.625 57.796875 C 53.5 58.5 53.5 58.5 53 59 C 51.90625 58.050781 50.824219 57.09375 49.75 56.125 C 48.84375 55.308594 47.933594 54.5 47.011719 53.699219 C 46.433594 53.191406 45.863281 52.675781 45.296875 52.15625 C 44.453125 51.390625 43.59375 50.664062 42.703125 49.953125 C 41.351562 48.859375 40.085938 47.6875 38.824219 46.488281 C 37.910156 45.621094 36.976562 44.796875 36 44 C 36.792969 43.183594 37.601562 42.445312 38.5 41.75 Z M 38.5 41.75 "/>
<path style=" stroke:none;fill-rule:nonzero;fill:rgb(75.686276%,74.901962%,80.784315%);fill-opacity:1;" d="M 15 17.5 C 21.601562 17.5 28.199219 17.5 35 17.5 C 35 18.820312 35 20.140625 35 21.5 C 28.398438 21.5 21.800781 21.5 15 21.5 C 15 20.179688 15 18.859375 15 17.5 Z M 16.5 17.75 C 16.5 18.492188 16.5 19.234375 16.5 20 C 22.523438 20 28.546875 20 34.75 20 C 34.75 19.257812 34.75 18.515625 34.75 17.75 C 28.726562 17.75 22.703125 17.75 16.5 17.75 Z M 16.5 17.75 "/>
<path style=" stroke:none;fill-rule:nonzero;fill:rgb(95.294118%,27.058825%,32.156864%);fill-opacity:1;" d="M 41 39.75 C 41.15625 39.765625 41.308594 39.785156 41.46875 39.800781 C 43.488281 40.011719 45.488281 40.039062 47.515625 40.03125 C 47.839844 40.03125 48.164062 40.03125 48.496094 40.035156 C 50.265625 40.03125 51.996094 39.976562 53.75 39.75 C 53.425781 41.234375 52.65625 42.074219 51.5 43 C 49.636719 44.152344 47.859375 44.503906 45.691406 44.160156 C 43.96875 43.703125 42.636719 42.597656 41.5 41.25 C 41.175781 40.425781 41.175781 40.425781 41 39.75 Z M 41 39.75 "/>
<path style=" stroke:none;fill-rule:nonzero;fill:rgb(98.823529%,88.235295%,34.901962%);fill-opacity:1;" d="M 9 24.5 C 9 27.964844 9 31.429688 9 35 C 7.742188 34.28125 6.828125 33.699219 5.765625 32.78125 C 4.738281 31.898438 3.691406 31.066406 2.582031 30.289062 C 2.472656 30.191406 2.363281 30.097656 2.25 30 C 2.25 29.835938 2.25 29.671875 2.25 29.5 C 2.605469 29.171875 2.605469 29.171875 3.101562 28.800781 C 3.28125 28.664062 3.460938 28.53125 3.648438 28.390625 C 3.839844 28.246094 4.035156 28.101562 4.234375 27.953125 C 4.625 27.660156 5.015625 27.363281 5.40625 27.074219 C 5.59375 26.929688 5.78125 26.789062 5.976562 26.644531 C 6.789062 26.03125 7.585938 25.398438 8.382812 24.765625 C 8.75 24.5 8.75 24.5 9 24.5 Z M 9 24.5 "/>
<path style=" stroke:none;fill-rule:nonzero;fill:rgb(80.784315%,80.000001%,86.666667%);fill-opacity:1;" d="M 16.015625 27.433594 C 16.277344 27.433594 16.542969 27.433594 16.816406 27.429688 C 17.242188 27.433594 17.242188 27.433594 17.679688 27.433594 C 18.117188 27.433594 18.117188 27.433594 18.566406 27.433594 C 19.183594 27.433594 19.800781 27.433594 20.421875 27.433594 C 21.371094 27.4375 22.320312 27.433594 23.269531 27.433594 C 23.871094 27.433594 24.46875 27.433594 25.070312 27.433594 C 25.355469 27.433594 25.644531 27.433594 25.933594 27.429688 C 26.332031 27.433594 26.332031 27.433594 26.734375 27.433594 C 26.96875 27.433594 27.199219 27.433594 27.441406 27.433594 C 28 27.5 28 27.5 28.5 28 C 28.484375 28.609375 28.484375 28.609375 28.25 29.25 C 27.070312 30.296875 25.636719 30.101562 24.152344 30.082031 C 23.878906 30.082031 23.601562 30.082031 23.316406 30.082031 C 22.738281 30.078125 22.15625 30.074219 21.578125 30.070312 C 20.6875 30.0625 19.796875 30.058594 18.90625 30.058594 C 18.339844 30.054688 17.777344 30.054688 17.214844 30.050781 C 16.8125 30.050781 16.8125 30.050781 16.402344 30.046875 C 16.03125 30.042969 16.03125 30.042969 15.65625 30.039062 C 15.4375 30.039062 15.21875 30.039062 14.996094 30.035156 C 14.5 30 14.5 30 14.25 29.75 C 14.203125 28.890625 14.203125 28.890625 14.25 28 C 14.890625 27.359375 15.128906 27.4375 16.015625 27.433594 Z M 16.015625 27.433594 "/>
<path style=" stroke:none;fill-rule:nonzero;fill:rgb(87.450981%,86.274511%,92.941177%);fill-opacity:1;" d="M 16.96875 14.914062 C 17.167969 14.914062 17.367188 14.914062 17.570312 14.914062 C 18.234375 14.914062 18.898438 14.917969 19.558594 14.925781 C 20.015625 14.925781 20.472656 14.929688 20.933594 14.929688 C 22.140625 14.933594 23.347656 14.941406 24.554688 14.949219 C 25.785156 14.957031 27.015625 14.960938 28.25 14.960938 C 30.667969 14.972656 33.082031 14.984375 35.5 15 C 35.417969 15.496094 35.335938 15.988281 35.25 16.5 C 34.992188 16.503906 34.730469 16.503906 34.464844 16.507812 C 32.03125 16.53125 29.59375 16.558594 27.160156 16.585938 C 25.90625 16.601562 24.65625 16.613281 23.402344 16.625 C 22.195312 16.636719 20.988281 16.648438 19.78125 16.664062 C 19.320312 16.667969 18.855469 16.671875 18.394531 16.675781 C 17.753906 16.683594 17.105469 16.691406 16.460938 16.699219 C 16.171875 16.699219 16.171875 16.699219 15.878906 16.703125 C 14.90625 16.699219 14.90625 16.699219 14 17 C 14.085938 16.371094 14.167969 15.875 14.511719 15.335938 C 15.273438 14.808594 16.074219 14.902344 16.96875 14.914062 Z M 16.96875 14.914062 "/>
<path style=" stroke:none;fill-rule:nonzero;fill:rgb(99.215686%,38.82353%,43.137255%);fill-opacity:1;" d="M 53.25 40 C 52.1875 41.539062 51.070312 42.304688 49.25 42.75 C 47.265625 43.046875 45.863281 42.675781 44.25 41.5 C 43.609375 40.9375 43.609375 40.9375 43.25 40.5 C 43.25 40.417969 43.25 40.335938 43.25 40.25 C 44.351562 40.214844 45.453125 40.175781 46.558594 40.140625 C 46.933594 40.128906 47.308594 40.121094 47.679688 40.109375 C 48.222656 40.089844 48.761719 40.074219 49.304688 40.054688 C 49.628906 40.046875 49.953125 40.03125 50.289062 40.023438 C 51.277344 40 52.261719 39.996094 53.25 40 Z M 53.25 40 "/>
<path style=" stroke:none;fill-rule:nonzero;fill:rgb(83.529413%,82.352942%,89.411765%);fill-opacity:1;" d="M 15.355469 24.1875 C 15.722656 24.191406 15.722656 24.191406 16.105469 24.191406 C 16.371094 24.191406 16.636719 24.195312 16.914062 24.195312 C 17.195312 24.195312 17.476562 24.199219 17.765625 24.203125 C 18.1875 24.203125 18.1875 24.203125 18.617188 24.203125 C 20.714844 24.214844 20.714844 24.214844 21 24.5 C 21.046875 25.234375 21.046875 25.234375 21 26 C 20.332031 26.667969 19.832031 26.734375 18.902344 26.777344 C 18.582031 26.777344 18.582031 26.777344 18.253906 26.773438 C 18.019531 26.773438 17.785156 26.773438 17.546875 26.773438 C 17.304688 26.769531 17.0625 26.765625 16.8125 26.765625 C 16.445312 26.765625 16.445312 26.765625 16.070312 26.761719 C 15.460938 26.757812 14.855469 26.753906 14.25 26.75 C 14.199219 25.238281 14.199219 25.238281 14.25 24.75 C 14.75 24.25 14.75 24.25 15.355469 24.1875 Z M 15.355469 24.1875 "/>
<path style=" stroke:none;fill-rule:nonzero;fill:rgb(95.294118%,26.666668%,32.156864%);fill-opacity:1;" d="M 48.5 3.75 C 49.460938 4.710938 50.25 5.613281 50.25 7 C 48.351562 7 46.453125 7 44.5 7 C 44.78125 5.59375 45.234375 4.800781 46.203125 3.765625 C 47.066406 3.347656 47.59375 3.480469 48.5 3.75 Z M 48.5 3.75 "/>
<path style=" stroke:none;fill-rule:nonzero;fill:rgb(97.254902%,79.607844%,34.509805%);fill-opacity:1;" d="M 4.75 27.5 C 4.914062 27.582031 5.078125 27.664062 5.25 27.75 C 4.835938 28.246094 4.425781 28.738281 4 29.25 C 4.222656 29.355469 4.222656 29.355469 4.449219 29.460938 C 4.964844 29.734375 5.386719 30.019531 5.84375 30.382812 C 6.074219 30.5625 6.074219 30.5625 6.308594 30.746094 C 6.464844 30.871094 6.621094 30.996094 6.78125 31.125 C 6.941406 31.25 7.097656 31.375 7.261719 31.503906 C 7.867188 31.984375 8.453125 32.453125 9 33 C 9.066406 33.671875 9.023438 34.324219 9 35 C 7.640625 34.320312 6.523438 33.429688 5.375 32.449219 C 4.476562 31.679688 3.550781 30.96875 2.582031 30.289062 C 2.472656 30.191406 2.363281 30.097656 2.25 30 C 2.25 29.835938 2.25 29.671875 2.25 29.5 C 2.652344 29.140625 3.074219 28.800781 3.5 28.46875 C 3.734375 28.289062 3.964844 28.109375 4.203125 27.921875 C 4.382812 27.78125 4.566406 27.640625 4.75 27.5 Z M 4.75 27.5 "/>
<path style=" stroke:none;fill-rule:nonzero;fill:rgb(11.372549%,11.372549%,11.764706%);fill-opacity:1;" d="M 14.25 29 C 18.539062 29 22.828125 29 27.25 29 C 27.167969 29.328125 27.085938 29.660156 27 30 C 22.875 30 18.75 30 14.5 30 C 14.417969 29.671875 14.335938 29.339844 14.25 29 Z M 14.25 29 "/>
<path style=" stroke:none;fill-rule:nonzero;fill:rgb(92.941177%,76.862746%,32.941177%);fill-opacity:1;" d="M 27.480469 10.285156 C 28.140625 10.558594 28.628906 10.929688 29.1875 11.375 C 29.386719 11.53125 29.589844 11.6875 29.792969 11.851562 C 29.941406 11.984375 30.09375 12.113281 30.25 12.25 C 30.25 12.332031 30.25 12.417969 30.25 12.5 C 28.269531 12.5 26.289062 12.5 24.25 12.5 C 25.429688 11.320312 25.429688 11.320312 26.125 10.796875 C 26.269531 10.6875 26.40625 10.574219 26.554688 10.464844 C 27 10.25 27 10.25 27.480469 10.285156 Z M 27.480469 10.285156 "/>
<path style=" stroke:none;fill-rule:nonzero;fill:rgb(8.235294%,8.235294%,8.235294%);fill-opacity:1;" d="M 14.25 25.75 C 16.066406 25.75 17.878906 25.75 19.75 25.75 C 19.667969 26.078125 19.585938 26.410156 19.5 26.75 C 17.765625 26.75 16.035156 26.75 14.25 26.75 C 14.25 26.421875 14.25 26.089844 14.25 25.75 Z M 14.25 25.75 "/>
<path style=" stroke:none;fill-rule:nonzero;fill:rgb(95.294118%,36.470589%,40.784314%);fill-opacity:1;" d="M 46.75 3.5 C 48.332031 3.621094 48.332031 3.621094 49.109375 4.21875 C 49.5 4.75 49.5 4.75 49.5 5.5 C 48.34375 5.5 47.191406 5.5 46 5.5 C 46.246094 4.839844 46.496094 4.179688 46.75 3.5 Z M 46.75 3.5 "/>
<path style=" stroke:none;fill-rule:nonzero;fill:rgb(82.352942%,81.176472%,87.843138%);fill-opacity:1;" d="M 34.5 30.5 C 34.582031 30.664062 34.664062 30.828125 34.75 31 C 33.960938 32.90625 32.785156 34.023438 31 35 C 30.917969 34.753906 30.835938 34.503906 30.75 34.25 C 31.296875 33.660156 31.796875 33.222656 32.484375 32.796875 C 33.421875 32.128906 33.875 31.457031 34.5 30.5 Z M 34.5 30.5 "/>
<path style=" stroke:none;fill-rule:nonzero;fill:rgb(97.647059%,33.725491%,38.431373%);fill-opacity:1;" d="M 41.25 9.25 C 41.414062 9.25 41.578125 9.25 41.75 9.25 C 41.378906 10.113281 40.890625 10.664062 40.21875 11.3125 C 40.039062 11.488281 39.859375 11.664062 39.671875 11.847656 C 39.53125 11.980469 39.390625 12.113281 39.25 12.25 C 39.167969 12.003906 39.085938 11.753906 39 11.5 C 39.121094 11.398438 39.238281 11.300781 39.363281 11.199219 C 39.523438 11.066406 39.679688 10.933594 39.84375 10.796875 C 40 10.667969 40.15625 10.535156 40.316406 10.402344 C 40.804688 9.980469 40.804688 9.980469 41.25 9.25 Z M 41.25 9.25 "/>
</g>
</svg>
