<?xml version="1.0" encoding="UTF-8"?>
<svg xmlns="http://www.w3.org/2000/svg" xmlns:xlink="http://www.w3.org/1999/xlink" width="64" height="64" viewBox="0 0 64 64" version="1.1">
<g id="surface1">
<path style=" stroke:none;fill-rule:nonzero;fill:rgb(64.705884%,83.529413%,96.862745%);fill-opacity:1;" d="M 37.75 0.75 C 46.164062 0.75 54.578125 0.75 63.25 0.75 C 63.253906 3.507812 63.261719 6.265625 63.265625 9.109375 C 63.265625 9.984375 63.269531 10.855469 63.273438 11.753906 C 63.273438 12.441406 63.273438 13.125 63.273438 13.8125 C 63.273438 13.988281 63.273438 14.171875 63.277344 14.355469 C 63.277344 14.882812 63.277344 15.40625 63.277344 15.933594 C 63.28125 16.230469 63.28125 16.527344 63.28125 16.835938 C 63.25 17.5 63.25 17.5 63 17.75 C 62.261719 17.773438 61.527344 17.78125 60.789062 17.773438 C 60.453125 17.773438 60.453125 17.773438 60.117188 17.773438 C 59.40625 17.773438 58.695312 17.769531 57.984375 17.765625 C 57.503906 17.765625 57.023438 17.761719 56.542969 17.761719 C 55.363281 17.761719 54.179688 17.753906 53 17.75 C 53.125 18.738281 53.125 18.738281 53.25 19.75 C 54.15625 20.078125 55.066406 20.410156 56 20.75 C 56 21.164062 56 21.574219 56 22 C 55.917969 22.082031 55.835938 22.164062 55.75 22.25 C 54.804688 22.15625 53.878906 22.023438 52.945312 21.851562 C 50.894531 21.503906 49.273438 21.574219 47.25 22 C 46.5 22.101562 45.753906 22.175781 45 22.25 C 44.84375 21.796875 44.84375 21.796875 44.75 21.25 C 45.332031 20.375 45.550781 20.34375 46.53125 20.078125 C 46.761719 20.015625 46.988281 19.953125 47.21875 19.886719 C 47.394531 19.84375 47.570312 19.796875 47.75 19.75 C 47.832031 19.089844 47.914062 18.429688 48 17.75 C 47.699219 17.753906 47.398438 17.753906 47.089844 17.757812 C 45.976562 17.765625 44.867188 17.773438 43.753906 17.777344 C 43.273438 17.78125 42.792969 17.78125 42.308594 17.789062 C 41.621094 17.796875 40.925781 17.796875 40.238281 17.800781 C 40.019531 17.800781 39.804688 17.804688 39.582031 17.808594 C 39.054688 17.808594 38.527344 17.78125 38 17.75 C 37.5 17.25 37.5 17.25 37.4375 16.585938 C 37.4375 16.164062 37.4375 16.164062 37.441406 15.734375 C 37.4375 15.414062 37.4375 15.09375 37.4375 14.765625 C 37.4375 14.417969 37.441406 14.066406 37.441406 13.71875 C 37.441406 13.363281 37.441406 13.003906 37.441406 12.648438 C 37.441406 11.898438 37.445312 11.152344 37.449219 10.40625 C 37.453125 9.441406 37.453125 8.484375 37.453125 7.523438 C 37.453125 6.789062 37.453125 6.050781 37.457031 5.3125 C 37.457031 4.960938 37.457031 4.605469 37.457031 4.25 C 37.460938 3.757812 37.460938 3.261719 37.460938 2.765625 C 37.464844 2.484375 37.464844 2.203125 37.46875 1.914062 C 37.5 1.25 37.5 1.25 37.75 0.75 Z M 37.75 0.75 "/>
<path style=" stroke:none;fill-rule:nonzero;fill:rgb(63.921571%,82.352942%,95.294118%);fill-opacity:1;" d="M 2.632812 41.71875 C 2.867188 41.71875 3.101562 41.722656 3.347656 41.722656 C 3.714844 41.722656 3.714844 41.722656 4.09375 41.722656 C 4.910156 41.722656 5.726562 41.722656 6.546875 41.726562 C 7.113281 41.726562 7.679688 41.726562 8.246094 41.726562 C 9.738281 41.726562 11.230469 41.730469 12.722656 41.734375 C 14.242188 41.738281 15.765625 41.738281 17.285156 41.738281 C 20.273438 41.742188 23.261719 41.742188 26.25 41.75 C 26.597656 42.4375 26.53125 42.996094 26.535156 43.765625 C 26.535156 44.085938 26.535156 44.402344 26.535156 44.734375 C 26.535156 45.082031 26.535156 45.429688 26.535156 45.78125 C 26.535156 46.140625 26.535156 46.492188 26.535156 46.851562 C 26.535156 47.597656 26.535156 48.347656 26.535156 49.097656 C 26.53125 50.054688 26.53125 51.015625 26.535156 51.976562 C 26.535156 52.714844 26.535156 53.453125 26.535156 54.1875 C 26.535156 54.542969 26.535156 54.894531 26.535156 55.25 C 26.535156 55.742188 26.535156 56.238281 26.535156 56.730469 C 26.53125 57.015625 26.53125 57.296875 26.53125 57.585938 C 26.5 58.25 26.5 58.25 26.25 58.75 C 22.867188 58.75 19.484375 58.75 16 58.75 C 16 59.492188 16 60.234375 16 61 C 16.464844 61.046875 16.464844 61.046875 16.9375 61.09375 C 18.382812 61.28125 18.382812 61.28125 19 61.75 C 19.203125 62.25 19.203125 62.25 19.25 62.75 C 19.167969 62.914062 19.085938 63.078125 19 63.25 C 18.117188 63.285156 17.40625 63.304688 16.570312 63 C 15.566406 62.695312 14.683594 62.675781 13.640625 62.6875 C 13.457031 62.6875 13.277344 62.683594 13.089844 62.679688 C 11.894531 62.6875 10.902344 62.894531 9.75 63.25 C 9.164062 63.269531 8.582031 63.273438 8 63.25 C 8 62.753906 8 62.257812 8 61.75 C 8.992188 61.417969 9.980469 61.089844 11 60.75 C 11.082031 60.089844 11.164062 59.429688 11.25 58.75 C 7.785156 58.75 4.320312 58.75 0.75 58.75 C 0.742188 54.578125 0.742188 54.578125 0.738281 52.808594 C 0.734375 51.597656 0.734375 50.386719 0.730469 49.175781 C 0.726562 48.199219 0.726562 47.222656 0.726562 46.25 C 0.726562 45.875 0.726562 45.5 0.722656 45.128906 C 0.722656 44.605469 0.722656 44.085938 0.722656 43.566406 C 0.722656 43.269531 0.722656 42.972656 0.722656 42.667969 C 0.777344 41.382812 1.523438 41.722656 2.632812 41.71875 Z M 2.632812 41.71875 "/>
<path style=" stroke:none;fill-rule:nonzero;fill:rgb(0%,0%,0%);fill-opacity:1;" d="M 33.25 6 C 34.503906 6.078125 35.09375 6.425781 35.96875 7.3125 C 36.164062 7.503906 36.359375 7.699219 36.558594 7.894531 C 37 8.5 37 8.5 37.144531 9.109375 C 36.933594 10.042969 36.371094 10.574219 35.703125 11.21875 C 35.582031 11.347656 35.460938 11.476562 35.335938 11.605469 C 34.972656 11.96875 34.972656 11.96875 34.25 12.5 C 33.535156 12.453125 33.535156 12.453125 33 12.25 C 32.953125 11.671875 32.953125 11.671875 33 11 C 33.378906 10.582031 33.378906 10.582031 33.75 10.25 C 31.21875 10.238281 28.683594 10.230469 26.15625 10.226562 C 24.976562 10.222656 23.800781 10.21875 22.628906 10.210938 C 21.488281 10.207031 20.355469 10.203125 19.21875 10.203125 C 18.785156 10.203125 18.355469 10.199219 17.921875 10.199219 C 13.921875 10.171875 10.816406 10.386719 7.761719 13.191406 C 6.988281 14.035156 6.476562 14.964844 6 16 C 6.121094 16.125 6.246094 16.246094 6.375 16.375 C 7.140625 17.1875 7.683594 17.800781 8.03125 18.875 C 7.980469 20.316406 7.605469 21.464844 6.578125 22.5 C 6.292969 22.746094 6.292969 22.746094 6 23 C 7.390625 25.621094 8.871094 27.121094 11.636719 28.238281 C 13.160156 28.699219 14.679688 28.683594 16.257812 28.675781 C 16.609375 28.675781 16.960938 28.675781 17.316406 28.679688 C 18.046875 28.683594 18.773438 28.683594 19.507812 28.675781 C 20.441406 28.671875 21.378906 28.675781 22.316406 28.6875 C 23.039062 28.695312 23.761719 28.691406 24.488281 28.691406 C 24.832031 28.691406 25.175781 28.691406 25.523438 28.699219 C 27.324219 28.804688 27.324219 28.804688 28.921875 28.171875 C 29.234375 27.726562 29.234375 27.726562 29.5 27 C 30.28125 26.238281 30.875 26.128906 31.953125 26.109375 C 33.289062 26.140625 33.992188 26.402344 34.949219 27.324219 C 35.285156 27.796875 35.375 28.1875 35.5 28.75 C 35.671875 28.75 35.84375 28.746094 36.019531 28.746094 C 37.652344 28.738281 39.285156 28.730469 40.917969 28.726562 C 41.757812 28.722656 42.597656 28.71875 43.433594 28.710938 C 44.402344 28.703125 45.371094 28.703125 46.339844 28.699219 C 46.636719 28.699219 46.933594 28.695312 47.238281 28.691406 C 50.710938 28.691406 53.648438 29.175781 56.5 31.25 C 56.699219 31.386719 56.902344 31.515625 57.109375 31.65625 C 58.546875 32.988281 59.621094 34.566406 60 36.5 C 60.222656 36.519531 60.441406 36.542969 60.671875 36.5625 C 61.621094 36.777344 62.054688 37.074219 62.75 37.75 C 63.472656 38.925781 63.460938 40.164062 63.25 41.5 C 62.878906 42.261719 62.449219 42.769531 61.75 43.25 C 60.78125 43.484375 60.78125 43.484375 60 43.5 C 59.96875 43.632812 59.9375 43.765625 59.90625 43.90625 C 59.210938 46.421875 57.574219 48.222656 55.414062 49.632812 C 53.128906 50.898438 50.859375 51.292969 48.265625 51.273438 C 47.871094 51.273438 47.480469 51.273438 47.085938 51.273438 C 46.878906 51.269531 46.671875 51.269531 46.460938 51.269531 C 45.359375 51.265625 44.261719 51.273438 43.160156 51.273438 C 41.765625 51.28125 40.371094 51.28125 38.976562 51.273438 C 37.84375 51.269531 36.710938 51.273438 35.578125 51.28125 C 35.148438 51.28125 34.71875 51.28125 34.289062 51.277344 C 31.984375 51.175781 31.984375 51.175781 29.867188 51.894531 C 29.398438 52.351562 29.398438 52.351562 29.058594 52.851562 C 28.75 53.25 28.75 53.25 27.90625 53.5 C 27.691406 53.5 27.472656 53.5 27.25 53.5 C 27 53.25 27 53.25 26.890625 52.703125 C 27.050781 51.65625 27.722656 51.175781 28.5 50.5 C 28.226562 49.859375 27.988281 49.492188 27.46875 49.015625 C 27 48.5 27 48.5 26.9375 47.8125 C 26.957031 47.628906 26.980469 47.441406 27 47.25 C 27.566406 47.058594 27.566406 47.058594 28.25 47 C 28.710938 47.460938 28.710938 47.460938 29.175781 48.09375 C 30.203125 49.183594 31.042969 49.46875 32.503906 49.511719 C 33.304688 49.523438 34.101562 49.507812 34.898438 49.488281 C 35.324219 49.484375 35.753906 49.484375 36.183594 49.484375 C 37.074219 49.476562 37.96875 49.464844 38.863281 49.449219 C 40.003906 49.425781 41.140625 49.414062 42.285156 49.40625 C 43.378906 49.402344 44.476562 49.390625 45.570312 49.378906 C 45.773438 49.375 45.980469 49.375 46.191406 49.371094 C 49.738281 49.328125 53.210938 49.242188 55.953125 46.6875 C 56.835938 45.738281 57.429688 44.65625 58 43.5 C 57.894531 43.398438 57.789062 43.300781 57.679688 43.199219 C 57.542969 43.066406 57.40625 42.933594 57.265625 42.796875 C 57.128906 42.667969 56.992188 42.535156 56.851562 42.402344 C 56.085938 41.53125 56.167969 40.476562 56.175781 39.378906 C 56.324219 38.113281 57.136719 37.351562 58 36.5 C 56.714844 34.078125 55.136719 32.199219 52.5 31.25 C 50.390625 30.765625 48.300781 30.667969 46.144531 30.648438 C 45.835938 30.640625 45.53125 30.636719 45.214844 30.632812 C 44.246094 30.617188 43.28125 30.605469 42.3125 30.59375 C 41.652344 30.585938 40.988281 30.574219 40.328125 30.566406 C 38.71875 30.539062 37.109375 30.519531 35.5 30.5 C 35.429688 30.734375 35.359375 30.964844 35.289062 31.203125 C 34.996094 32.011719 34.699219 32.496094 34.011719 33.019531 C 32.886719 33.527344 31.691406 33.453125 30.5 33.25 C 29.765625 32.917969 29.535156 32.648438 29 32 C 28.820312 31.503906 28.652344 31.003906 28.5 30.5 C 28.300781 30.503906 28.105469 30.503906 27.902344 30.507812 C 26.035156 30.527344 24.167969 30.542969 22.300781 30.550781 C 21.339844 30.558594 20.378906 30.566406 19.421875 30.574219 C 18.488281 30.585938 17.5625 30.59375 16.632812 30.59375 C 16.28125 30.597656 15.925781 30.601562 15.578125 30.605469 C 11.871094 30.660156 9.269531 29.878906 6.5625 27.359375 C 4 24.582031 4 24.582031 4 23 C 3.777344 22.980469 3.558594 22.957031 3.328125 22.9375 C 2.378906 22.722656 1.945312 22.425781 1.25 21.75 C 0.527344 20.574219 0.539062 19.335938 0.75 18 C 1.121094 17.238281 1.550781 16.730469 2.25 16.25 C 3.21875 16.015625 3.21875 16.015625 4 16 C 4.039062 15.765625 4.082031 15.535156 4.125 15.296875 C 4.882812 12.710938 6.988281 10.804688 9.25 9.5 C 11.378906 8.515625 13.425781 8.21875 15.761719 8.199219 C 16.050781 8.195312 16.050781 8.195312 16.34375 8.191406 C 16.976562 8.183594 17.609375 8.175781 18.238281 8.171875 C 18.683594 8.164062 19.121094 8.160156 19.5625 8.15625 C 20.71875 8.140625 21.871094 8.128906 23.023438 8.117188 C 24.203125 8.105469 25.386719 8.089844 26.566406 8.078125 C 28.878906 8.050781 31.1875 8.023438 33.5 8 C 33.253906 7.753906 33.253906 7.753906 33 7.5 C 32.953125 6.859375 32.953125 6.859375 33 6.25 C 33.082031 6.167969 33.164062 6.085938 33.25 6 Z M 33.25 6 "/>
<path style=" stroke:none;fill-rule:nonzero;fill:rgb(0.784314%,1.176471%,1.176471%);fill-opacity:1;" d="M 37.75 0.75 C 46.164062 0.75 54.578125 0.75 63.25 0.75 C 63.253906 3.507812 63.261719 6.265625 63.265625 9.109375 C 63.265625 9.984375 63.269531 10.855469 63.273438 11.753906 C 63.273438 12.441406 63.273438 13.125 63.273438 13.8125 C 63.273438 13.988281 63.273438 14.171875 63.277344 14.355469 C 63.277344 14.882812 63.277344 15.40625 63.277344 15.933594 C 63.28125 16.230469 63.28125 16.527344 63.28125 16.835938 C 63.25 17.5 63.25 17.5 63 17.75 C 62.261719 17.773438 61.527344 17.78125 60.789062 17.773438 C 60.453125 17.773438 60.453125 17.773438 60.117188 17.773438 C 59.40625 17.773438 58.695312 17.769531 57.984375 17.765625 C 57.503906 17.765625 57.023438 17.761719 56.542969 17.761719 C 55.363281 17.761719 54.179688 17.753906 53 17.75 C 53.125 18.738281 53.125 18.738281 53.25 19.75 C 54.15625 20.078125 55.066406 20.410156 56 20.75 C 56 21.164062 56 21.574219 56 22 C 55.917969 22.082031 55.835938 22.164062 55.75 22.25 C 54.804688 22.15625 53.878906 22.023438 52.945312 21.851562 C 50.894531 21.503906 49.273438 21.574219 47.25 22 C 46.5 22.101562 45.753906 22.175781 45 22.25 C 44.84375 21.796875 44.84375 21.796875 44.75 21.25 C 45.332031 20.375 45.550781 20.34375 46.53125 20.078125 C 46.761719 20.015625 46.988281 19.953125 47.21875 19.886719 C 47.394531 19.84375 47.570312 19.796875 47.75 19.75 C 47.832031 19.089844 47.914062 18.429688 48 17.75 C 47.699219 17.753906 47.398438 17.753906 47.089844 17.757812 C 45.976562 17.765625 44.867188 17.773438 43.753906 17.777344 C 43.273438 17.78125 42.792969 17.78125 42.308594 17.789062 C 41.621094 17.796875 40.925781 17.796875 40.238281 17.800781 C 40.019531 17.800781 39.804688 17.804688 39.582031 17.808594 C 39.054688 17.808594 38.527344 17.78125 38 17.75 C 37.5 17.25 37.5 17.25 37.4375 16.585938 C 37.4375 16.164062 37.4375 16.164062 37.441406 15.734375 C 37.4375 15.414062 37.4375 15.09375 37.4375 14.765625 C 37.4375 14.417969 37.441406 14.066406 37.441406 13.71875 C 37.441406 13.363281 37.441406 13.003906 37.441406 12.648438 C 37.441406 11.898438 37.445312 11.152344 37.449219 10.40625 C 37.453125 9.441406 37.453125 8.484375 37.453125 7.523438 C 37.453125 6.789062 37.453125 6.050781 37.457031 5.3125 C 37.457031 4.960938 37.457031 4.605469 37.457031 4.25 C 37.460938 3.757812 37.460938 3.261719 37.460938 2.765625 C 37.464844 2.484375 37.464844 2.203125 37.46875 1.914062 C 37.5 1.25 37.5 1.25 37.75 0.75 Z M 39.25 2.25 C 39.25 5.796875 39.25 9.34375 39.25 13 C 46.675781 13 54.101562 13 61.75 13 C 61.75 9.453125 61.75 5.90625 61.75 2.25 C 54.324219 2.25 46.898438 2.25 39.25 2.25 Z M 39.25 2.25 "/>
<path style=" stroke:none;fill-rule:nonzero;fill:rgb(0.392157%,0.392157%,0.784314%);fill-opacity:1;" d="M 2.632812 41.71875 C 2.867188 41.71875 3.101562 41.722656 3.347656 41.722656 C 3.714844 41.722656 3.714844 41.722656 4.09375 41.722656 C 4.910156 41.722656 5.726562 41.722656 6.546875 41.726562 C 7.113281 41.726562 7.679688 41.726562 8.246094 41.726562 C 9.738281 41.726562 11.230469 41.730469 12.722656 41.734375 C 14.242188 41.738281 15.765625 41.738281 17.285156 41.738281 C 20.273438 41.742188 23.261719 41.742188 26.25 41.75 C 26.597656 42.4375 26.53125 42.996094 26.535156 43.765625 C 26.535156 44.085938 26.535156 44.402344 26.535156 44.734375 C 26.535156 45.082031 26.535156 45.429688 26.535156 45.78125 C 26.535156 46.140625 26.535156 46.492188 26.535156 46.851562 C 26.535156 47.597656 26.535156 48.347656 26.535156 49.097656 C 26.53125 50.054688 26.53125 51.015625 26.535156 51.976562 C 26.535156 52.714844 26.535156 53.453125 26.535156 54.1875 C 26.535156 54.542969 26.535156 54.894531 26.535156 55.25 C 26.535156 55.742188 26.535156 56.238281 26.535156 56.730469 C 26.53125 57.015625 26.53125 57.296875 26.53125 57.585938 C 26.5 58.25 26.5 58.25 26.25 58.75 C 22.867188 58.75 19.484375 58.75 16 58.75 C 16 59.492188 16 60.234375 16 61 C 16.464844 61.046875 16.464844 61.046875 16.9375 61.09375 C 18.382812 61.28125 18.382812 61.28125 19 61.75 C 19.203125 62.25 19.203125 62.25 19.25 62.75 C 19.167969 62.914062 19.085938 63.078125 19 63.25 C 18.117188 63.285156 17.40625 63.304688 16.570312 63 C 15.566406 62.695312 14.683594 62.675781 13.640625 62.6875 C 13.457031 62.6875 13.277344 62.683594 13.089844 62.679688 C 11.894531 62.6875 10.902344 62.894531 9.75 63.25 C 9.164062 63.269531 8.582031 63.273438 8 63.25 C 8 62.753906 8 62.257812 8 61.75 C 8.992188 61.417969 9.980469 61.089844 11 60.75 C 11.082031 60.089844 11.164062 59.429688 11.25 58.75 C 7.785156 58.75 4.320312 58.75 0.75 58.75 C 0.742188 54.578125 0.742188 54.578125 0.738281 52.808594 C 0.734375 51.597656 0.734375 50.386719 0.730469 49.175781 C 0.726562 48.199219 0.726562 47.222656 0.726562 46.25 C 0.726562 45.875 0.726562 45.5 0.722656 45.128906 C 0.722656 44.605469 0.722656 44.085938 0.722656 43.566406 C 0.722656 43.269531 0.722656 42.972656 0.722656 42.667969 C 0.777344 41.382812 1.523438 41.722656 2.632812 41.71875 Z M 2.25 43.25 C 2.25 46.878906 2.25 50.507812 2.25 54.25 C 9.675781 54.25 17.101562 54.25 24.75 54.25 C 24.75 50.617188 24.75 46.988281 24.75 43.25 C 17.324219 43.25 9.902344 43.25 2.25 43.25 Z M 2.25 43.25 "/>
<path style=" stroke:none;fill-rule:nonzero;fill:rgb(27.058825%,37.64706%,49.411765%);fill-opacity:1;" d="M 39.25 14.5 C 46.675781 14.5 54.101562 14.5 61.75 14.5 C 61.75 15.078125 61.75 15.65625 61.75 16.25 C 54.324219 16.25 46.898438 16.25 39.25 16.25 C 39.25 15.671875 39.25 15.09375 39.25 14.5 Z M 39.25 14.5 "/>
<path style=" stroke:none;fill-rule:nonzero;fill:rgb(0%,0%,0%);fill-opacity:1;" d="M 12.75 15 C 13.277344 14.90625 13.277344 14.90625 14 15 C 14.59375 15.433594 15.078125 15.960938 15.578125 16.5 C 15.785156 16.714844 15.785156 16.714844 15.996094 16.933594 C 16.332031 17.289062 16.667969 17.640625 17 18 C 17.890625 17.253906 18.746094 16.515625 19.53125 15.65625 C 20.25 15 20.25 15 20.96875 14.90625 C 21.234375 14.953125 21.234375 14.953125 21.5 15 C 21.71875 15.527344 21.71875 15.527344 21.75 16.25 C 21.335938 16.859375 20.808594 17.332031 20.265625 17.828125 C 20.050781 18.035156 20.050781 18.035156 19.828125 18.246094 C 19.472656 18.582031 19.113281 18.917969 18.75 19.25 C 19.25 20.496094 20.277344 21.253906 21.246094 22.140625 C 21.75 22.75 21.75 22.75 21.699219 23.328125 C 21.5 23.75 21.5 23.75 20.972656 23.96875 C 20.25 24 20.25 24 19.863281 23.738281 C 19.449219 23.347656 19.058594 22.941406 18.671875 22.515625 C 18.464844 22.300781 18.464844 22.300781 18.253906 22.078125 C 17.917969 21.722656 17.582031 21.363281 17.25 21 C 16.355469 21.75 15.5 22.488281 14.71875 23.359375 C 14 24 14 24 13.28125 23.96875 C 13.015625 23.859375 13.015625 23.859375 12.75 23.75 C 12.585938 23.296875 12.585938 23.296875 12.5 22.75 C 12.980469 22.175781 13.441406 21.691406 13.984375 21.1875 C 14.128906 21.050781 14.273438 20.910156 14.421875 20.765625 C 14.777344 20.425781 15.140625 20.085938 15.5 19.75 C 15.003906 18.507812 13.976562 17.761719 13.003906 16.886719 C 12.5 16.25 12.5 16.25 12.550781 15.546875 C 12.613281 15.363281 12.683594 15.183594 12.75 15 Z M 12.75 15 "/>
<path style=" stroke:none;fill-rule:nonzero;fill:rgb(0%,0%,0%);fill-opacity:1;" d="M 42.75 35.5 C 43.679688 35.511719 44.015625 35.761719 44.722656 36.375 C 44.96875 36.628906 45.210938 36.882812 45.453125 37.140625 C 45.578125 37.269531 45.703125 37.398438 45.832031 37.535156 C 46.140625 37.855469 46.445312 38.175781 46.75 38.5 C 47.640625 37.753906 48.496094 37.015625 49.28125 36.15625 C 50 35.5 50 35.5 50.71875 35.40625 C 50.984375 35.453125 50.984375 35.453125 51.25 35.5 C 51.46875 36.027344 51.46875 36.027344 51.5 36.75 C 51.085938 37.359375 50.558594 37.832031 50.015625 38.328125 C 49.800781 38.535156 49.800781 38.535156 49.578125 38.746094 C 49.222656 39.082031 48.863281 39.417969 48.5 39.75 C 48.996094 40.992188 50.023438 41.738281 50.996094 42.613281 C 51.5 43.25 51.5 43.25 51.449219 43.953125 C 51.351562 44.226562 51.351562 44.226562 51.25 44.5 C 50.722656 44.59375 50.722656 44.59375 50 44.5 C 49.40625 44.066406 48.921875 43.539062 48.421875 43 C 48.285156 42.859375 48.148438 42.714844 48.003906 42.566406 C 47.667969 42.210938 47.332031 41.859375 47 41.5 C 46.105469 42.25 45.25 42.988281 44.46875 43.859375 C 43.75 44.5 43.75 44.5 43.03125 44.46875 C 42.765625 44.359375 42.765625 44.359375 42.5 44.25 C 42.375 43.878906 42.375 43.878906 42.25 43.5 C 42.566406 43.03125 42.566406 43.03125 43.03125 42.53125 C 43.191406 42.359375 43.351562 42.183594 43.515625 42.003906 C 44.085938 41.40625 44.660156 40.824219 45.25 40.25 C 44.765625 39.09375 43.898438 38.394531 43 37.554688 C 42.507812 37.007812 42.289062 36.730469 42.25 36 C 42.414062 35.835938 42.578125 35.671875 42.75 35.5 Z M 42.75 35.5 "/>
<path style=" stroke:none;fill-rule:nonzero;fill:rgb(30.19608%,41.568628%,54.509807%);fill-opacity:1;" d="M 2.25 55.75 C 9.675781 55.75 17.101562 55.75 24.75 55.75 C 24.75 56.246094 24.75 56.738281 24.75 57.25 C 17.324219 57.25 9.898438 57.25 2.25 57.25 C 2.25 56.753906 2.25 56.261719 2.25 55.75 Z M 2.25 55.75 "/>
<path style=" stroke:none;fill-rule:nonzero;fill:rgb(88.235295%,76.862746%,40.784314%);fill-opacity:1;" d="M 32 27.59375 C 33.015625 27.804688 33.386719 28.167969 34 29 C 34.15625 29.75 34.15625 29.75 34 30.5 C 33.386719 31.332031 33.015625 31.695312 32 31.90625 C 30.984375 31.695312 30.613281 31.332031 30 30.5 C 29.84375 29.75 29.84375 29.75 30 29 C 30.613281 28.167969 30.984375 27.804688 32 27.59375 Z M 32 27.59375 "/>
<path style=" stroke:none;fill-rule:nonzero;fill:rgb(88.627452%,77.254903%,41.176471%);fill-opacity:1;" d="M 4.25 17.34375 C 5.265625 17.554688 5.636719 17.917969 6.25 18.75 C 6.40625 19.5 6.40625 19.5 6.25 20.25 C 5.636719 21.082031 5.265625 21.445312 4.25 21.65625 C 3.234375 21.445312 2.863281 21.082031 2.25 20.25 C 2.09375 19.5 2.09375 19.5 2.25 18.75 C 2.863281 17.917969 3.234375 17.554688 4.25 17.34375 Z M 4.25 17.34375 "/>
<path style=" stroke:none;fill-rule:nonzero;fill:rgb(89.019608%,77.254903%,41.176471%);fill-opacity:1;" d="M 59.75 37.84375 C 60.765625 38.054688 61.136719 38.417969 61.75 39.25 C 61.90625 40 61.90625 40 61.75 40.75 C 61.136719 41.582031 60.765625 41.945312 59.75 42.15625 C 58.734375 41.945312 58.363281 41.582031 57.75 40.75 C 57.59375 40 57.59375 40 57.75 39.25 C 58.363281 38.417969 58.734375 38.054688 59.75 37.84375 Z M 59.75 37.84375 "/>
<path style=" stroke:none;fill-rule:nonzero;fill:rgb(26.666668%,36.078432%,48.627451%);fill-opacity:1;" d="M 12.75 58.75 C 13.246094 58.75 13.738281 58.75 14.25 58.75 C 14.25 59.410156 14.25 60.070312 14.25 60.75 C 13.753906 60.75 13.261719 60.75 12.75 60.75 C 12.75 60.089844 12.75 59.429688 12.75 58.75 Z M 12.75 58.75 "/>
<path style=" stroke:none;fill-rule:nonzero;fill:rgb(26.666668%,36.470589%,48.627451%);fill-opacity:1;" d="M 49.75 17.75 C 50.246094 17.75 50.738281 17.75 51.25 17.75 C 51.25 18.410156 51.25 19.070312 51.25 19.75 C 50.753906 19.75 50.261719 19.75 49.75 19.75 C 49.75 19.089844 49.75 18.429688 49.75 17.75 Z M 49.75 17.75 "/>
</g>
</svg>
