<?xml version="1.0" encoding="UTF-8"?>
<svg xmlns="http://www.w3.org/2000/svg" xmlns:xlink="http://www.w3.org/1999/xlink" width="64" height="64" viewBox="0 0 64 64" version="1.1">
<g id="surface1">
<path style=" stroke:none;fill-rule:nonzero;fill:rgb(10.588235%,13.333334%,12.54902%);fill-opacity:1;" d="M 14.375 2.964844 C 14.699219 2.964844 15.023438 2.964844 15.355469 2.964844 C 15.710938 2.964844 16.0625 2.964844 16.417969 2.964844 C 16.792969 2.964844 17.167969 2.960938 17.546875 2.960938 C 18.5625 2.960938 19.585938 2.960938 20.601562 2.960938 C 21.238281 2.960938 21.875 2.957031 22.515625 2.957031 C 24.738281 2.953125 26.964844 2.953125 29.1875 2.953125 C 31.257812 2.953125 33.328125 2.953125 35.398438 2.945312 C 37.179688 2.945312 38.960938 2.941406 40.742188 2.941406 C 41.804688 2.945312 42.867188 2.941406 43.925781 2.9375 C 44.925781 2.9375 45.925781 2.9375 46.925781 2.9375 C 47.292969 2.9375 47.65625 2.9375 48.023438 2.9375 C 50.9375 2.925781 53.269531 2.964844 55.5 5 C 57.15625 6.660156 57.5625 8.367188 57.574219 10.664062 C 57.570312 11.367188 57.558594 12.066406 57.546875 12.765625 C 57.542969 13.128906 57.539062 13.492188 57.535156 13.855469 C 57.53125 14.738281 57.515625 15.617188 57.5 16.5 C 57.738281 16.488281 57.976562 16.476562 58.222656 16.464844 C 58.535156 16.457031 58.847656 16.445312 59.171875 16.4375 C 59.480469 16.425781 59.792969 16.414062 60.113281 16.402344 C 61.160156 16.515625 61.535156 16.742188 62.25 17.5 C 62.675781 18.382812 62.8125 19.085938 62.820312 20.0625 C 62.820312 20.316406 62.824219 20.570312 62.828125 20.835938 C 62.824219 21.242188 62.824219 21.242188 62.824219 21.664062 C 62.828125 21.945312 62.828125 22.230469 62.828125 22.523438 C 62.828125 23.117188 62.828125 23.71875 62.828125 24.316406 C 62.828125 25.230469 62.835938 26.144531 62.839844 27.058594 C 62.84375 27.640625 62.84375 28.222656 62.84375 28.804688 C 62.84375 29.078125 62.84375 29.347656 62.847656 29.628906 C 62.835938 31.230469 62.785156 32.472656 61.585938 33.660156 C 60.765625 34.132812 60.125 34.074219 59.1875 34.046875 C 58.871094 34.039062 58.558594 34.035156 58.230469 34.027344 C 57.988281 34.015625 57.75 34.007812 57.5 34 C 57.5 34.316406 57.5 34.316406 57.503906 34.640625 C 57.519531 36.636719 57.53125 38.632812 57.539062 40.632812 C 57.542969 41.65625 57.546875 42.683594 57.558594 43.710938 C 57.5625 44.703125 57.570312 45.695312 57.570312 46.6875 C 57.570312 47.0625 57.574219 47.441406 57.578125 47.816406 C 57.605469 50.347656 57.625 52.726562 55.84375 54.703125 C 55.691406 54.878906 55.539062 55.054688 55.382812 55.238281 C 53.53125 56.738281 51.6875 56.890625 49.375 56.863281 C 49.070312 56.863281 48.765625 56.863281 48.453125 56.863281 C 47.621094 56.863281 46.792969 56.859375 45.960938 56.851562 C 45.09375 56.84375 44.222656 56.84375 43.351562 56.84375 C 41.707031 56.839844 40.0625 56.832031 38.417969 56.820312 C 36.546875 56.8125 34.675781 56.804688 32.800781 56.800781 C 28.949219 56.789062 25.097656 56.773438 21.25 56.75 C 21.179688 56.902344 21.105469 57.058594 21.035156 57.21875 C 20.113281 58.9375 17.742188 60.007812 15.953125 60.578125 C 12.613281 61.390625 9.554688 60.921875 6.566406 59.257812 C 4.070312 57.703125 2.4375 55.339844 1.609375 52.515625 C 0.933594 49.292969 1.476562 46.078125 3.203125 43.3125 C 4.011719 42.167969 4.976562 40.886719 6.25 40.25 C 6.332031 38.1875 6.414062 36.125 6.5 34 C 5.671875 34.03125 5.671875 34.03125 4.828125 34.0625 C 3.78125 34.101562 3.195312 34.117188 2.292969 33.574219 C 1.398438 32.625 1.1875 31.722656 1.183594 30.4375 C 1.175781 30.054688 1.175781 30.054688 1.175781 29.664062 C 1.175781 29.390625 1.175781 29.117188 1.175781 28.835938 C 1.175781 28.554688 1.171875 28.273438 1.171875 27.980469 C 1.167969 27.382812 1.167969 26.78125 1.171875 26.183594 C 1.171875 25.269531 1.167969 24.355469 1.160156 23.441406 C 1.160156 22.859375 1.160156 22.277344 1.160156 21.695312 C 1.15625 21.425781 1.15625 21.152344 1.152344 20.867188 C 1.160156 19.21875 1.261719 18.042969 2.433594 16.785156 C 3.242188 16.378906 3.914062 16.429688 4.8125 16.453125 C 5.128906 16.460938 5.445312 16.464844 5.769531 16.472656 C 6.007812 16.480469 6.25 16.492188 6.5 16.5 C 6.496094 16.277344 6.492188 16.054688 6.488281 15.824219 C 6.472656 14.988281 6.46875 14.148438 6.460938 13.3125 C 6.453125 12.953125 6.449219 12.589844 6.445312 12.230469 C 6.390625 9.222656 6.546875 7.007812 8.703125 4.738281 C 10.375 3.242188 12.179688 2.96875 14.375 2.964844 Z M 14.375 2.964844 "/>
<path style=" stroke:none;fill-rule:nonzero;fill:rgb(88.627452%,89.803922%,98.823529%);fill-opacity:1;" d="M 8 34 C 23.839844 34 39.679688 34 56 34 C 56 52.089844 56 52.089844 54.5625 53.753906 C 54.425781 53.867188 54.285156 53.980469 54.140625 54.09375 C 54.003906 54.210938 53.863281 54.324219 53.71875 54.441406 C 52.75 55.074219 51.878906 55.3125 50.730469 55.308594 C 50.480469 55.308594 50.230469 55.3125 49.972656 55.3125 C 49.699219 55.308594 49.429688 55.308594 49.148438 55.308594 C 48.71875 55.308594 48.71875 55.308594 48.277344 55.308594 C 47.328125 55.308594 46.375 55.300781 45.425781 55.300781 C 44.765625 55.296875 44.105469 55.296875 43.445312 55.296875 C 41.886719 55.296875 40.328125 55.289062 38.769531 55.285156 C 36.996094 55.28125 35.222656 55.277344 33.449219 55.273438 C 29.796875 55.269531 26.148438 55.261719 22.5 55.25 C 22.550781 55.101562 22.601562 54.949219 22.65625 54.792969 C 22.722656 54.59375 22.789062 54.390625 22.859375 54.1875 C 22.925781 53.988281 22.992188 53.792969 23.0625 53.589844 C 23.503906 52.203125 23.546875 50.96875 23.546875 49.515625 C 23.550781 49.179688 23.550781 49.179688 23.554688 48.835938 C 23.558594 47.664062 23.472656 46.835938 23 45.75 C 23.183594 44.433594 24.246094 43.730469 25.175781 42.878906 C 25.964844 42.125 26.433594 41.644531 26.5 40.5 C 26.359375 40.433594 26.21875 40.371094 26.074219 40.308594 C 25.425781 39.960938 24.886719 39.550781 24.3125 39.09375 C 24.113281 38.933594 23.914062 38.777344 23.707031 38.613281 C 23.554688 38.496094 23.40625 38.375 23.25 38.25 C 22.332031 38.625 21.828125 39.160156 21.1875 39.90625 C 21.011719 40.109375 20.835938 40.316406 20.652344 40.523438 C 20.519531 40.683594 20.386719 40.835938 20.25 41 C 19.1875 40.59375 18.199219 40.09375 17.199219 39.554688 C 15.609375 38.859375 14.101562 38.664062 12.390625 38.671875 C 12.128906 38.664062 12.128906 38.664062 11.859375 38.660156 C 10.351562 38.65625 9.546875 38.984375 8 39.5 C 8 37.683594 8 35.871094 8 34 Z M 8 34 "/>
<path style=" stroke:none;fill-rule:nonzero;fill:rgb(98.431373%,81.176472%,30.588236%);fill-opacity:1;" d="M 18.75 18 C 24.179688 17.984375 29.609375 17.96875 35.042969 17.960938 C 37.5625 17.957031 40.085938 17.953125 42.605469 17.941406 C 44.800781 17.933594 47 17.929688 49.199219 17.929688 C 50.359375 17.925781 51.523438 17.925781 52.691406 17.921875 C 53.78125 17.914062 54.878906 17.914062 55.972656 17.914062 C 56.375 17.914062 56.777344 17.914062 57.179688 17.910156 C 57.726562 17.90625 58.277344 17.90625 58.824219 17.910156 C 59.285156 17.910156 59.285156 17.910156 59.753906 17.90625 C 60.5 18 60.5 18 60.972656 18.34375 C 61.363281 18.914062 61.34375 19.328125 61.347656 20.015625 C 61.351562 20.273438 61.351562 20.53125 61.355469 20.796875 C 61.351562 21.214844 61.351562 21.214844 61.351562 21.640625 C 61.351562 22.070312 61.351562 22.070312 61.351562 22.507812 C 61.351562 23.109375 61.351562 23.714844 61.347656 24.320312 C 61.34375 25.246094 61.347656 26.171875 61.351562 27.101562 C 61.351562 27.683594 61.351562 28.273438 61.351562 28.859375 C 61.351562 29.136719 61.351562 29.414062 61.355469 29.703125 C 61.351562 30.089844 61.351562 30.089844 61.347656 30.484375 C 61.347656 30.710938 61.34375 30.9375 61.34375 31.171875 C 61.226562 31.898438 61.09375 32.070312 60.5 32.5 C 59.753906 32.59375 59.753906 32.59375 58.824219 32.589844 C 58.566406 32.589844 58.566406 32.589844 58.304688 32.59375 C 57.734375 32.59375 57.15625 32.589844 56.582031 32.585938 C 56.171875 32.585938 55.761719 32.585938 55.347656 32.585938 C 54.230469 32.585938 53.113281 32.582031 51.992188 32.574219 C 50.824219 32.574219 49.65625 32.570312 48.488281 32.570312 C 46.277344 32.566406 44.066406 32.5625 41.851562 32.554688 C 39.332031 32.546875 36.816406 32.542969 34.296875 32.539062 C 29.113281 32.53125 23.933594 32.515625 18.75 32.5 C 18.75 27.714844 18.75 22.929688 18.75 18 Z M 18.75 18 "/>
<path style=" stroke:none;fill-rule:nonzero;fill:rgb(1.568628%,70.588237%,63.921571%);fill-opacity:1;" d="M 13.097656 4.714844 C 13.34375 4.714844 13.34375 4.714844 13.597656 4.710938 C 14.15625 4.710938 14.714844 4.710938 15.273438 4.710938 C 15.671875 4.707031 16.070312 4.707031 16.472656 4.703125 C 17.558594 4.703125 18.644531 4.699219 19.730469 4.699219 C 20.410156 4.699219 21.085938 4.699219 21.765625 4.699219 C 23.886719 4.695312 26.007812 4.691406 28.132812 4.691406 C 30.585938 4.691406 33.035156 4.683594 35.484375 4.675781 C 37.378906 4.671875 39.273438 4.667969 41.167969 4.667969 C 42.296875 4.667969 43.429688 4.667969 44.558594 4.664062 C 45.625 4.660156 46.691406 4.65625 47.753906 4.660156 C 48.144531 4.660156 48.535156 4.660156 48.925781 4.65625 C 49.460938 4.65625 49.992188 4.65625 50.527344 4.65625 C 50.824219 4.65625 51.121094 4.65625 51.429688 4.65625 C 53.148438 4.851562 54.082031 5.730469 55.128906 7.007812 C 56.238281 8.484375 56 9.203125 56 11.25 C 40.160156 11.25 24.320312 11.25 8 11.25 C 8 7.769531 8 7.769531 9.496094 6.246094 C 10.753906 5.117188 11.382812 4.71875 13.097656 4.714844 Z M 13.097656 4.714844 "/>
<path style=" stroke:none;fill-rule:nonzero;fill:rgb(1.568628%,69.803923%,63.137257%);fill-opacity:1;" d="M 18.039062 41.304688 C 18.367188 41.523438 18.6875 41.757812 19 42 C 18.148438 43.199219 17.257812 44.277344 16.199219 45.300781 C 15.566406 45.933594 14.992188 46.617188 14.417969 47.300781 C 13.984375 47.769531 13.523438 48.128906 13 48.5 C 12.664062 48.136719 12.332031 47.769531 12 47.40625 C 11.816406 47.203125 11.628906 47 11.4375 46.789062 C 11 46.25 11 46.25 11 45.75 C 10.109375 45.628906 9.808594 45.707031 9.074219 46.253906 C 8.851562 46.472656 8.632812 46.695312 8.40625 46.921875 C 8.183594 47.136719 7.957031 47.359375 7.726562 47.582031 C 7.191406 48.199219 7.191406 48.199219 7.230469 48.875 C 7.582031 49.683594 8.046875 50.191406 8.65625 50.828125 C 8.878906 51.066406 9.105469 51.304688 9.339844 51.554688 C 9.558594 51.78125 9.777344 52.011719 10 52.25 C 10.332031 52.617188 10.65625 52.988281 10.984375 53.359375 C 11.117188 53.507812 11.246094 53.65625 11.382812 53.8125 C 11.773438 54.277344 12.136719 54.761719 12.5 55.25 C 13.71875 55.214844 14.253906 54.59375 15.046875 53.753906 C 15.644531 53.09375 16.226562 52.417969 16.8125 51.742188 C 17.367188 51.117188 17.964844 50.53125 18.5625 49.949219 C 19.03125 49.46875 19.46875 48.964844 19.90625 48.453125 C 20.546875 47.707031 21.199219 47.082031 22 46.5 C 22.910156 49.003906 22.671875 51.304688 21.636719 53.738281 C 20.660156 55.660156 19.347656 57.132812 17.5 58.25 C 17.332031 58.351562 17.160156 58.457031 16.984375 58.5625 C 14.875 59.617188 11.992188 59.726562 9.726562 59.105469 C 6.695312 57.996094 4.890625 56.039062 3.53125 53.183594 C 2.714844 51.207031 2.664062 48.632812 3.171875 46.550781 C 3.40625 45.996094 3.679688 45.507812 4 45 C 4.101562 44.8125 4.199219 44.628906 4.304688 44.4375 C 5.675781 42.089844 7.90625 40.652344 10.492188 39.90625 C 13.261719 39.332031 15.59375 39.914062 18.039062 41.304688 Z M 18.039062 41.304688 "/>
<path style=" stroke:none;fill-rule:nonzero;fill:rgb(98.431373%,25.098041%,27.843139%);fill-opacity:1;" d="M 4.847656 17.914062 C 5.265625 17.914062 5.265625 17.914062 5.691406 17.914062 C 5.984375 17.917969 6.28125 17.921875 6.578125 17.925781 C 6.984375 17.925781 6.984375 17.925781 7.398438 17.929688 C 8.40625 17.933594 9.414062 17.941406 10.421875 17.953125 C 13.800781 17.976562 13.800781 17.976562 17.25 18 C 17.25 22.785156 17.25 27.570312 17.25 32.5 C 14.996094 32.515625 12.742188 32.53125 10.421875 32.546875 C 9.355469 32.558594 9.355469 32.558594 8.265625 32.566406 C 7.703125 32.570312 7.140625 32.574219 6.578125 32.574219 C 6.140625 32.578125 6.140625 32.578125 5.691406 32.585938 C 5.273438 32.585938 5.273438 32.585938 4.847656 32.585938 C 4.480469 32.585938 4.480469 32.585938 4.113281 32.589844 C 3.5 32.5 3.5 32.5 3.046875 32.199219 C 2.648438 31.601562 2.65625 31.199219 2.652344 30.480469 C 2.648438 30.226562 2.648438 29.96875 2.644531 29.703125 C 2.648438 29.425781 2.648438 29.144531 2.648438 28.859375 C 2.648438 28.574219 2.648438 28.289062 2.648438 27.992188 C 2.648438 27.390625 2.648438 26.785156 2.652344 26.179688 C 2.65625 25.253906 2.652344 24.328125 2.648438 23.398438 C 2.648438 22.816406 2.648438 22.226562 2.648438 21.640625 C 2.648438 21.363281 2.648438 21.085938 2.644531 20.796875 C 2.648438 20.539062 2.648438 20.28125 2.652344 20.015625 C 2.652344 19.789062 2.65625 19.5625 2.65625 19.328125 C 2.75 18.75 2.75 18.75 3.046875 18.300781 C 3.667969 17.886719 4.101562 17.910156 4.847656 17.914062 Z M 4.847656 17.914062 "/>
<path style=" stroke:none;fill-rule:nonzero;fill:rgb(89.411765%,90.588236%,99.607843%);fill-opacity:1;" d="M 8 12.75 C 23.839844 12.75 39.679688 12.75 56 12.75 C 56 13.988281 56 15.226562 56 16.5 C 40.160156 16.5 24.320312 16.5 8 16.5 C 8 15.261719 8 14.023438 8 12.75 Z M 8 12.75 "/>
<path style=" stroke:none;fill-rule:nonzero;fill:rgb(13.333334%,11.372549%,11.764706%);fill-opacity:1;" d="M 11.785156 20.738281 C 12.859375 21.34375 13.53125 22.378906 14 23.5 C 14.15625 24.90625 14.050781 26.1875 13.5 27.5 C 13.816406 27.777344 13.816406 27.777344 14.140625 28.0625 C 14.34375 28.289062 14.542969 28.515625 14.75 28.75 C 14.703125 29.328125 14.703125 29.328125 14.5 29.75 C 13.332031 29.59375 13.332031 29.59375 12.898438 29.101562 C 12.765625 28.984375 12.636719 28.871094 12.5 28.75 C 11.996094 28.78125 11.996094 28.78125 11.46875 28.96875 C 9.90625 29.375 8.640625 29.320312 7.1875 28.59375 C 6.117188 27.667969 5.359375 26.96875 5.136719 25.523438 C 5.082031 23.984375 5.164062 22.921875 6.25 21.75 C 8 20.175781 9.5625 19.828125 11.785156 20.738281 Z M 11.785156 20.738281 "/>
<path style=" stroke:none;fill-rule:nonzero;fill:rgb(96.862745%,96.862745%,96.862745%);fill-opacity:1;" d="M 23 39.75 C 23.75 40.1875 23.75 40.1875 24.5 40.75 C 24.5 41.75 24.5 41.75 24.125 42.214844 C 23.953125 42.371094 23.785156 42.527344 23.609375 42.6875 C 22.90625 43.355469 22.238281 44.027344 21.609375 44.765625 C 20.921875 45.566406 20.191406 46.316406 19.4375 47.054688 C 18.984375 47.515625 18.5625 47.996094 18.140625 48.484375 C 17.382812 49.363281 16.578125 50.179688 15.746094 50.992188 C 15.082031 51.671875 14.484375 52.394531 13.886719 53.132812 C 13.5 53.5 13.5 53.5 12.75 53.5 C 12.101562 52.988281 11.558594 52.359375 11 51.75 C 10.839844 51.578125 10.679688 51.40625 10.515625 51.234375 C 9.734375 50.375 9.074219 49.640625 8.75 48.5 C 9.492188 47.882812 9.492188 47.882812 10.25 47.25 C 11.074219 48.15625 11.898438 49.066406 12.75 50 C 13.832031 49.730469 14.078125 49.511719 14.828125 48.734375 C 15.027344 48.527344 15.226562 48.324219 15.433594 48.109375 C 16.042969 47.453125 16.632812 46.789062 17.214844 46.109375 C 17.957031 45.261719 18.730469 44.445312 19.5 43.625 C 20.691406 42.355469 21.871094 41.078125 23 39.75 Z M 23 39.75 "/>
<path style=" stroke:none;fill-rule:nonzero;fill:rgb(17.254902%,19.215687%,17.254902%);fill-opacity:1;" d="M 42.25 21 C 42.910156 21 43.570312 21 44.25 21 C 44.300781 21.285156 44.351562 21.574219 44.40625 21.863281 C 44.472656 22.238281 44.542969 22.613281 44.609375 22.984375 C 44.640625 23.171875 44.675781 23.363281 44.710938 23.554688 C 44.808594 24.480469 44.808594 24.480469 45.25 25.25 C 45.496094 24.425781 45.746094 23.601562 46 22.75 C 46.496094 22.75 46.988281 22.75 47.5 22.75 C 47.746094 23.492188 47.996094 24.234375 48.25 25 C 48.332031 25 48.414062 25 48.5 25 C 48.746094 23.679688 48.996094 22.359375 49.25 21 C 49.910156 21 50.570312 21 51.25 21 C 51.078125 22.136719 50.90625 23.269531 50.730469 24.40625 C 50.671875 24.789062 50.613281 25.175781 50.550781 25.5625 C 50.46875 26.117188 50.382812 26.671875 50.296875 27.226562 C 50.273438 27.398438 50.246094 27.574219 50.21875 27.753906 C 50.027344 28.972656 50.027344 28.972656 49.75 29.25 C 49.25 29.261719 48.75 29.261719 48.25 29.25 C 47.65625 28.011719 47.140625 26.886719 47 25.5 C 46.835938 25.5 46.671875 25.5 46.5 25.5 C 46.460938 25.71875 46.460938 25.71875 46.417969 25.941406 C 46.171875 27.148438 45.863281 28.164062 45.25 29.25 C 44.753906 29.25 44.261719 29.25 43.75 29.25 C 43.203125 27.578125 42.976562 25.875 42.71875 24.140625 C 42.648438 23.6875 42.648438 23.6875 42.578125 23.226562 C 42.46875 22.484375 42.359375 21.742188 42.25 21 Z M 42.25 21 "/>
<path style=" stroke:none;fill-rule:nonzero;fill:rgb(16.862746%,18.82353%,17.254902%);fill-opacity:1;" d="M 22.5 21 C 23.160156 21 23.820312 21 24.5 21 C 24.550781 21.304688 24.601562 21.609375 24.65625 21.921875 C 24.722656 22.316406 24.792969 22.710938 24.859375 23.109375 C 24.890625 23.308594 24.925781 23.511719 24.960938 23.71875 C 25.050781 24.6875 25.050781 24.6875 25.5 25.5 C 25.550781 25.324219 25.601562 25.144531 25.65625 24.960938 C 25.722656 24.734375 25.789062 24.503906 25.859375 24.265625 C 25.925781 24.039062 25.992188 23.808594 26.0625 23.574219 C 26.25 23 26.25 23 26.5 22.75 C 26.917969 22.738281 27.332031 22.738281 27.75 22.75 C 27.878906 23.066406 28 23.386719 28.125 23.703125 C 28.195312 23.878906 28.265625 24.058594 28.335938 24.238281 C 28.5 24.75 28.5 24.75 28.5 25.5 C 28.664062 25.5 28.828125 25.5 29 25.5 C 29.023438 25.203125 29.023438 25.203125 29.046875 24.898438 C 29.253906 22.265625 29.253906 22.265625 29.5 21 C 30.160156 21 30.820312 21 31.5 21 C 30.410156 28.839844 30.410156 28.839844 30 29.25 C 29.5 29.261719 29 29.261719 28.5 29.25 C 28.433594 29.078125 28.367188 28.914062 28.300781 28.738281 C 28.210938 28.515625 28.121094 28.292969 28.03125 28.0625 C 27.945312 27.84375 27.859375 27.621094 27.765625 27.394531 C 27.535156 26.835938 27.269531 26.289062 27 25.75 C 26.585938 26.90625 26.175781 28.058594 25.75 29.25 C 25.171875 29.25 24.59375 29.25 24 29.25 C 23.371094 26.515625 22.917969 23.773438 22.5 21 Z M 22.5 21 "/>
<path style=" stroke:none;fill-rule:nonzero;fill:rgb(16.470589%,18.82353%,17.254902%);fill-opacity:1;" d="M 32.5 21 C 33.078125 21 33.65625 21 34.25 21 C 34.578125 22.566406 34.910156 24.136719 35.25 25.75 C 35.367188 25.300781 35.488281 24.851562 35.609375 24.390625 C 35.96875 23.03125 35.96875 23.03125 36.25 22.75 C 36.664062 22.75 37.074219 22.75 37.5 22.75 C 37.828125 23.574219 38.160156 24.398438 38.5 25.25 C 38.574219 24.921875 38.644531 24.589844 38.71875 24.25 C 38.960938 23.164062 39.226562 22.078125 39.5 21 C 40.078125 21 40.65625 21 41.25 21 C 41.136719 23.800781 40.554688 26.511719 40 29.25 C 39.421875 29.25 38.84375 29.25 38.25 29.25 C 37.835938 28.09375 37.425781 26.941406 37 25.75 C 36.21875 27.488281 36.21875 27.488281 35.5 29.25 C 35.003906 29.25 34.511719 29.25 34 29.25 C 33.640625 28.414062 33.398438 27.621094 33.234375 26.726562 C 33.191406 26.488281 33.144531 26.253906 33.101562 26.007812 C 33.035156 25.640625 33.035156 25.640625 32.96875 25.265625 C 32.921875 25.023438 32.878906 24.777344 32.828125 24.523438 C 32.617188 23.335938 32.4375 22.210938 32.5 21 Z M 32.5 21 "/>
<path style=" stroke:none;fill-rule:nonzero;fill:rgb(7.843138%,14.901961%,14.509805%);fill-opacity:1;" d="M 30.015625 7.183594 C 30.230469 7.1875 30.441406 7.1875 30.660156 7.191406 C 30.882812 7.191406 31.105469 7.1875 31.339844 7.1875 C 32.078125 7.1875 32.820312 7.191406 33.5625 7.191406 C 34.078125 7.191406 34.589844 7.191406 35.105469 7.191406 C 36.179688 7.191406 37.257812 7.195312 38.335938 7.199219 C 39.722656 7.203125 41.105469 7.203125 42.488281 7.203125 C 43.546875 7.203125 44.609375 7.203125 45.671875 7.207031 C 46.179688 7.207031 46.695312 7.207031 47.203125 7.207031 C 47.917969 7.210938 48.628906 7.210938 49.339844 7.210938 C 49.550781 7.210938 49.765625 7.210938 49.984375 7.210938 C 51.445312 7.222656 51.445312 7.222656 52 7.5 C 51.78125 8.46875 51.78125 8.46875 51.5 8.75 C 50.785156 8.773438 50.078125 8.78125 49.359375 8.777344 C 49.136719 8.777344 48.910156 8.777344 48.679688 8.777344 C 47.9375 8.777344 47.1875 8.777344 46.445312 8.773438 C 45.929688 8.773438 45.414062 8.773438 44.898438 8.773438 C 43.539062 8.773438 42.179688 8.769531 40.820312 8.765625 C 39.4375 8.765625 38.046875 8.761719 36.664062 8.761719 C 33.941406 8.761719 31.222656 8.753906 28.5 8.75 C 28.332031 8.421875 28.167969 8.089844 28 7.75 C 28.65625 7.09375 29.125 7.191406 30.015625 7.183594 Z M 30.015625 7.183594 "/>
<path style=" stroke:none;fill-rule:nonzero;fill:rgb(14.117648%,16.470589%,16.862746%);fill-opacity:1;" d="M 33.496094 38.714844 C 33.765625 38.714844 33.765625 38.714844 34.039062 38.714844 C 34.316406 38.714844 34.316406 38.714844 34.605469 38.710938 C 35.226562 38.707031 35.847656 38.707031 36.46875 38.707031 C 36.898438 38.707031 37.328125 38.707031 37.757812 38.707031 C 38.660156 38.703125 39.5625 38.703125 40.464844 38.703125 C 41.625 38.703125 42.785156 38.699219 43.941406 38.695312 C 44.828125 38.691406 45.71875 38.691406 46.605469 38.691406 C 47.035156 38.691406 47.460938 38.691406 47.890625 38.6875 C 48.488281 38.6875 49.082031 38.6875 49.679688 38.6875 C 49.855469 38.6875 50.035156 38.6875 50.21875 38.6875 C 51.441406 38.691406 51.441406 38.691406 52 39.25 C 52 39.5 52 39.746094 52 40 C 51.253906 40.375 50.496094 40.285156 49.675781 40.277344 C 49.394531 40.277344 49.394531 40.277344 49.105469 40.277344 C 48.484375 40.277344 47.863281 40.277344 47.238281 40.273438 C 46.808594 40.273438 46.378906 40.273438 45.945312 40.273438 C 44.8125 40.273438 43.675781 40.269531 42.542969 40.269531 C 41.382812 40.265625 40.226562 40.261719 39.066406 40.261719 C 36.792969 40.257812 34.523438 40.253906 32.25 40.25 C 32.15625 39.835938 32.070312 39.417969 32 39 C 32.417969 38.582031 32.9375 38.714844 33.496094 38.714844 Z M 33.496094 38.714844 "/>
<path style=" stroke:none;fill-rule:nonzero;fill:rgb(98.039216%,25.098041%,27.843139%);fill-opacity:1;" d="M 10.25 21.75 C 11.304688 22.15625 11.90625 22.539062 12.5 23.5 C 12.714844 24.683594 12.671875 25.695312 12.078125 26.75 C 11.242188 27.472656 10.605469 27.703125 9.515625 27.84375 C 8.53125 27.722656 8.015625 27.359375 7.25 26.75 C 6.542969 25.691406 6.554688 24.746094 6.75 23.5 C 7.585938 21.945312 8.554688 21.636719 10.25 21.75 Z M 10.25 21.75 "/>
<path style=" stroke:none;fill-rule:nonzero;fill:rgb(8.627451%,10.980392%,10.980392%);fill-opacity:1;" d="M 32.953125 47.96875 C 33.269531 47.96875 33.582031 47.96875 33.910156 47.972656 C 34.082031 47.972656 34.253906 47.972656 34.429688 47.972656 C 35.007812 47.972656 35.582031 47.972656 36.15625 47.976562 C 36.554688 47.976562 36.953125 47.976562 37.347656 47.976562 C 38.398438 47.976562 39.445312 47.980469 40.496094 47.984375 C 41.5625 47.984375 42.632812 47.988281 43.703125 47.988281 C 45.800781 47.988281 47.902344 47.996094 50 48 C 50.140625 48.484375 50.140625 48.484375 50.25 49 C 50 49.25 50 49.25 49.296875 49.28125 C 48.824219 49.28125 48.824219 49.28125 48.339844 49.277344 C 48.167969 49.277344 47.996094 49.277344 47.816406 49.277344 C 47.242188 49.277344 46.667969 49.277344 46.09375 49.273438 C 45.695312 49.273438 45.296875 49.273438 44.898438 49.273438 C 43.851562 49.273438 42.804688 49.269531 41.753906 49.265625 C 40.6875 49.265625 39.617188 49.261719 38.546875 49.261719 C 36.449219 49.261719 34.347656 49.253906 32.25 49.25 C 32.109375 48.765625 32.109375 48.765625 32 48.25 C 32.25 48 32.25 48 32.953125 47.96875 Z M 32.953125 47.96875 "/>
<path style=" stroke:none;fill-rule:nonzero;fill:rgb(8.627451%,10.980392%,10.980392%);fill-opacity:1;" d="M 32 43.5 C 36.703125 43.5 41.40625 43.5 46.25 43.5 C 46.375 43.996094 46.375 43.996094 46.5 44.5 C 46.25 44.75 46.25 44.75 45.6875 44.78125 C 45.441406 44.78125 45.191406 44.78125 44.9375 44.777344 C 44.65625 44.777344 44.375 44.777344 44.085938 44.777344 C 43.628906 44.777344 43.628906 44.777344 43.164062 44.773438 C 42.851562 44.773438 42.542969 44.773438 42.222656 44.773438 C 41.394531 44.773438 40.570312 44.769531 39.742188 44.765625 C 38.898438 44.765625 38.058594 44.761719 37.214844 44.761719 C 35.558594 44.761719 33.90625 44.753906 32.25 44.75 C 32.167969 44.335938 32.085938 43.925781 32 43.5 Z M 32 43.5 "/>
<path style=" stroke:none;fill-rule:nonzero;fill:rgb(21.176471%,21.960784%,17.647059%);fill-opacity:1;" d="M 52 27.25 C 52.582031 27.238281 53.167969 27.238281 53.75 27.25 C 54 27.5 54 27.5 54.015625 28.390625 C 54.011719 28.675781 54.003906 28.957031 54 29.25 C 53.339844 29.25 52.679688 29.25 52 29.25 C 52 28.589844 52 27.929688 52 27.25 Z M 52 27.25 "/>
<path style=" stroke:none;fill-rule:nonzero;fill:rgb(20%,21.176471%,17.647059%);fill-opacity:1;" d="M 56.25 27.21875 C 57 27.25 57 27.25 57.25 27.5 C 57.261719 28.082031 57.261719 28.667969 57.25 29.25 C 56.589844 29.25 55.929688 29.25 55.25 29.25 C 55.238281 28.667969 55.238281 28.082031 55.25 27.5 C 55.5 27.25 55.5 27.25 56.25 27.21875 Z M 56.25 27.21875 "/>
<path style=" stroke:none;fill-rule:nonzero;fill:rgb(7.450981%,18.82353%,18.039216%);fill-opacity:1;" d="M 18.75 7.25 C 19.265625 7.359375 19.265625 7.359375 19.75 7.5 C 19.667969 7.828125 19.585938 8.160156 19.5 8.5 C 19.171875 8.5 18.839844 8.5 18.5 8.5 C 18.5 7.5 18.5 7.5 18.75 7.25 Z M 18.75 7.25 "/>
<path style=" stroke:none;fill-rule:nonzero;fill:rgb(7.843138%,14.901961%,14.117648%);fill-opacity:1;" d="M 12.75 7.25 C 13.246094 7.375 13.246094 7.375 13.75 7.5 C 13.75 7.828125 13.75 8.160156 13.75 8.5 C 13.335938 8.5 12.925781 8.5 12.5 8.5 C 12.582031 8.085938 12.664062 7.675781 12.75 7.25 Z M 12.75 7.25 "/>
<path style=" stroke:none;fill-rule:nonzero;fill:rgb(7.843138%,14.117648%,13.725491%);fill-opacity:1;" d="M 15.75 7.25 C 16.246094 7.375 16.246094 7.375 16.75 7.5 C 16.667969 7.828125 16.585938 8.160156 16.5 8.5 C 16.171875 8.5 15.839844 8.5 15.5 8.5 C 15.582031 8.085938 15.664062 7.675781 15.75 7.25 Z M 15.75 7.25 "/>
</g>
</svg>
