<?xml version="1.0" encoding="UTF-8"?>
<svg xmlns="http://www.w3.org/2000/svg" xmlns:xlink="http://www.w3.org/1999/xlink" width="64" height="64" viewBox="0 0 64 64" version="1.1">
<g id="surface1">
<path style=" stroke:none;fill-rule:nonzero;fill:rgb(0.784314%,0.392157%,0%);fill-opacity:1;" d="M 19.5 15 C 21.023438 15.835938 22.207031 17.085938 23.4375 18.296875 C 23.652344 18.5 23.867188 18.703125 24.089844 18.914062 C 25.207031 20.011719 25.980469 20.890625 26.296875 22.449219 C 26.140625 24.351562 24.484375 25.675781 23.21875 26.949219 C 22.84375 27.328125 22.480469 27.710938 22.113281 28.09375 C 20.140625 30.128906 20.140625 30.128906 18.789062 30.355469 C 16.589844 30.316406 15.113281 28.179688 13.6875 26.734375 C 13.34375 26.390625 13.34375 26.390625 12.996094 26.046875 C 11.320312 24.355469 11.320312 24.355469 10.75 23.5 C 8.394531 24.113281 6.648438 24.949219 5.25 27 C 4.203125 28.894531 3.9375 30.742188 4.378906 32.863281 C 5 34.96875 6.066406 36.234375 7.878906 37.433594 C 9.328125 38.171875 10.746094 38.328125 12.335938 38.351562 C 12.527344 38.359375 12.71875 38.363281 12.914062 38.367188 C 13.523438 38.382812 14.128906 38.394531 14.734375 38.40625 C 15.148438 38.414062 15.5625 38.425781 15.976562 38.433594 C 16.984375 38.460938 17.992188 38.480469 19 38.5 C 18.953125 38.300781 18.90625 38.109375 18.859375 37.90625 C 18.75 37.25 18.75 37.25 19.03125 36.78125 C 19.5 36.5 19.5 36.5 20.078125 36.484375 C 20.75 36.75 20.75 36.75 21.324219 37.503906 C 22.316406 38.523438 23.421875 38.441406 24.78125 38.46875 C 25.246094 38.46875 25.246094 38.46875 25.71875 38.46875 C 26.035156 38.476562 26.351562 38.480469 26.675781 38.484375 C 27.449219 38.496094 28.226562 38.5 29 38.5 C 29.03125 38.347656 29.058594 38.199219 29.089844 38.039062 C 29.132812 37.839844 29.175781 37.640625 29.21875 37.433594 C 29.257812 37.234375 29.296875 37.039062 29.335938 36.832031 C 29.789062 35.203125 30.871094 34.316406 32.28125 33.488281 C 33.84375 32.695312 35.8125 32.714844 37.46875 33.21875 C 39.132812 33.988281 40.246094 35.035156 41.09375 36.65625 C 41.25 37.25 41.25 37.25 41.25 38.5 C 42.324219 38.417969 43.394531 38.335938 44.5 38.25 C 44.5 37.835938 44.5 37.425781 44.5 37 C 44.664062 36.835938 44.828125 36.671875 45 36.5 C 45.5625 36.5 45.5625 36.5 46.25 36.75 C 46.441406 37 46.636719 37.25 46.835938 37.503906 C 47.601562 38.292969 48.195312 38.367188 49.277344 38.414062 C 49.867188 38.421875 50.457031 38.417969 51.046875 38.40625 C 54.410156 38.371094 57.003906 38.867188 59.5 41.25 C 61.480469 43.375 62.273438 45.871094 62.25 48.75 C 62.078125 51.375 60.972656 53.804688 59.03125 55.609375 C 57.527344 56.714844 55.605469 57.796875 53.703125 57.765625 C 53.386719 57.761719 53.074219 57.753906 52.75 57.75 C 52.660156 57.960938 52.660156 57.960938 52.570312 58.175781 C 52.175781 58.878906 51.699219 59.363281 51.125 59.933594 C 50.792969 60.265625 50.792969 60.265625 50.453125 60.601562 C 50.21875 60.832031 49.988281 61.058594 49.75 61.296875 C 49.515625 61.527344 49.285156 61.761719 49.046875 62 C 46.996094 64.039062 46.996094 64.039062 45.59375 64.125 C 45.390625 64.140625 45.183594 64.160156 44.976562 64.179688 C 43.804688 63.890625 43.101562 63.074219 42.25 62.25 C 42.074219 62.082031 41.898438 61.914062 41.71875 61.738281 C 41.1875 61.222656 40.664062 60.699219 40.140625 60.171875 C 39.871094 59.90625 39.871094 59.90625 39.59375 59.628906 C 39.425781 59.460938 39.253906 59.289062 39.078125 59.113281 C 38.925781 58.957031 38.773438 58.804688 38.613281 58.644531 C 38.25 58.25 38.25 58.25 38 57.75 C 36.433594 57.667969 34.863281 57.585938 33.25 57.5 C 33.332031 57.996094 33.414062 58.488281 33.5 59 C 33 59.5 33 59.5 32.421875 59.59375 C 31.515625 59.46875 31.183594 59.109375 30.546875 58.46875 C 30.351562 58.277344 30.152344 58.085938 29.949219 57.886719 C 29.386719 57.085938 29.332031 56.710938 29.5 55.75 C 29.949219 55.113281 29.949219 55.113281 30.546875 54.53125 C 30.738281 54.335938 30.933594 54.140625 31.136719 53.941406 C 31.835938 53.4375 32.15625 53.359375 33 53.5 C 33.164062 53.664062 33.328125 53.828125 33.5 54 C 33.40625 54.78125 33.40625 54.78125 33.25 55.5 C 34.007812 55.511719 34.761719 55.511719 35.515625 55.5 C 35.726562 55.503906 35.941406 55.511719 36.15625 55.515625 C 37.082031 55.492188 37.742188 55.460938 38.476562 54.863281 C 38.925781 54.34375 39.335938 53.800781 39.75 53.25 C 40.390625 52.535156 41.0625 51.84375 41.734375 51.15625 C 41.898438 50.976562 42.066406 50.800781 42.238281 50.617188 C 43.355469 49.476562 44.136719 48.886719 45.75 48.75 C 47.515625 49.136719 48.628906 50.488281 49.863281 51.746094 C 50.21875 52.109375 50.582031 52.472656 50.949219 52.832031 C 52.871094 54.773438 52.871094 54.773438 53 55.75 C 55.691406 54.957031 57.441406 54.246094 58.945312 51.8125 C 59.90625 50.046875 60.066406 48.03125 59.585938 46.085938 C 58.84375 44.019531 57.675781 42.535156 55.71875 41.515625 C 54.03125 40.71875 52.367188 40.667969 50.53125 40.625 C 50.167969 40.605469 50.167969 40.605469 49.796875 40.585938 C 48.414062 40.546875 48.414062 40.546875 47.210938 41.148438 C 46.742188 41.621094 46.742188 41.621094 46.355469 42.121094 C 46.238281 42.246094 46.121094 42.371094 46 42.5 C 45.28125 42.5 45.28125 42.5 44.75 42.25 C 44.667969 42.167969 44.585938 42.085938 44.5 42 C 44.5 41.585938 44.5 41.175781 44.5 40.75 C 42.890625 40.625 42.890625 40.625 41.25 40.5 C 41.164062 40.835938 41.074219 41.171875 40.984375 41.515625 C 40.433594 43.164062 39.425781 44.074219 37.984375 44.984375 C 36.140625 45.644531 33.898438 45.542969 32.125 44.75 C 30.964844 44.074219 30.09375 43.210938 29.5 42 C 29.410156 41.5 29.324219 41 29.25 40.5 C 28.121094 40.488281 26.988281 40.503906 25.859375 40.515625 C 25.539062 40.511719 25.21875 40.511719 24.890625 40.507812 C 22.832031 40.515625 22.832031 40.515625 21.195312 41.632812 C 21.074219 41.792969 20.953125 41.949219 20.828125 42.113281 C 20.5 42.5 20.5 42.5 19.765625 42.609375 C 19.59375 42.574219 19.425781 42.539062 19.25 42.5 C 18.984375 41.90625 18.984375 41.90625 18.75 41.25 C 18.832031 41.085938 18.914062 40.921875 19 40.75 C 18.71875 40.75 18.441406 40.746094 18.152344 40.746094 C 17.101562 40.742188 16.050781 40.726562 15 40.710938 C 14.546875 40.703125 14.09375 40.703125 13.640625 40.699219 C 9.949219 40.6875 7.066406 40.316406 4.300781 37.628906 C 2.382812 35.429688 1.65625 33.03125 1.765625 30.15625 C 2.054688 27.359375 3.171875 25.136719 5.25 23.25 C 6.765625 22.03125 8.601562 21.316406 10.546875 21.203125 C 11.503906 20.925781 11.835938 20.410156 12.453125 19.648438 C 13.148438 18.824219 13.894531 18.0625 14.65625 17.296875 C 14.796875 17.15625 14.933594 17.015625 15.074219 16.871094 C 16.351562 15.589844 17.574219 14.558594 19.5 15 Z M 19.5 15 "/>
<path style=" stroke:none;fill-rule:nonzero;fill:rgb(0%,0%,0.392157%);fill-opacity:1;" d="M 33.109375 0.375 C 34.898438 1.464844 35.683594 2.761719 36.25 4.75 C 38.972656 4.667969 41.695312 4.585938 44.5 4.5 C 44.5 4.003906 44.5 3.511719 44.5 3 C 44.75 2.75 44.75 2.75 45.40625 2.625 C 46.390625 2.769531 46.398438 2.878906 46.972656 3.621094 C 47.792969 4.480469 48.363281 4.632812 49.542969 4.683594 C 50.125 4.683594 50.710938 4.671875 51.296875 4.65625 C 54.234375 4.589844 56.847656 4.957031 59.09375 7.03125 C 61.238281 9.113281 62.203125 11.519531 62.265625 14.484375 C 62.160156 17.0625 61.296875 19.449219 59.480469 21.316406 C 57.976562 22.679688 56.6875 23.304688 54.71875 23.71875 C 53.246094 24.039062 52.367188 24.359375 51.476562 25.609375 C 50.800781 26.519531 50.003906 27.296875 49.203125 28.09375 C 49.050781 28.246094 48.898438 28.402344 48.742188 28.5625 C 48.597656 28.710938 48.453125 28.855469 48.300781 29.003906 C 48.171875 29.136719 48.042969 29.265625 47.90625 29.402344 C 47 30.171875 46.230469 30.3125 45.050781 30.363281 C 43.25 29.988281 41.917969 28.234375 40.6875 26.984375 C 40.484375 26.78125 40.28125 26.578125 40.070312 26.367188 C 38.570312 24.855469 38.570312 24.855469 38 24 C 37.394531 23.894531 37.394531 23.894531 36.695312 23.925781 C 36.433594 23.929688 36.175781 23.933594 35.910156 23.933594 C 35.640625 23.941406 35.371094 23.949219 35.09375 23.953125 C 34.820312 23.957031 34.550781 23.960938 34.269531 23.960938 C 33.597656 23.972656 32.925781 23.984375 32.25 24 C 32.167969 24.496094 32.085938 24.988281 32 25.5 C 31.4375 25.675781 31.4375 25.675781 30.75 25.75 C 30.207031 25.410156 30.207031 25.410156 29.703125 24.921875 C 29.535156 24.761719 29.367188 24.605469 29.191406 24.441406 C 28.25 23.503906 28.25 23.503906 28.15625 22.796875 C 28.273438 21.792969 28.578125 21.476562 29.296875 20.78125 C 29.589844 20.488281 29.589844 20.488281 29.886719 20.191406 C 30.589844 19.6875 30.90625 19.609375 31.75 19.75 C 32.25 20.25 32.25 20.25 32.25 21.25 C 34.230469 21.332031 36.210938 21.414062 38.25 21.5 C 38.414062 21.171875 38.578125 20.839844 38.75 20.5 C 39.433594 19.699219 40.167969 18.949219 40.90625 18.195312 C 41.144531 17.953125 41.382812 17.703125 41.613281 17.457031 C 43.800781 15.136719 43.800781 15.136719 45.203125 14.902344 C 47.40625 14.929688 48.882812 17.066406 50.3125 18.515625 C 50.65625 18.859375 50.65625 18.859375 51 19.203125 C 52.679688 20.894531 52.679688 20.894531 53.25 21.75 C 55.53125 21.21875 57.453125 20.285156 58.75 18.25 C 59.855469 16.140625 60.132812 14.113281 59.453125 11.8125 C 58.667969 9.78125 57.449219 8.492188 55.5 7.5 C 53.941406 6.921875 52.417969 6.882812 50.765625 6.859375 C 50.503906 6.847656 50.242188 6.835938 49.972656 6.824219 C 48.523438 6.800781 47.707031 6.890625 46.625 7.898438 C 46.476562 8.0625 46.328125 8.226562 46.179688 8.398438 C 46.035156 8.511719 45.898438 8.628906 45.75 8.75 C 45.207031 8.691406 44.890625 8.640625 44.5 8.25 C 44.5 7.835938 44.5 7.425781 44.5 7 C 41.777344 6.917969 39.054688 6.835938 36.25 6.75 C 36.167969 7.410156 36.085938 8.070312 36 8.75 C 35.265625 10.28125 33.996094 11.257812 32.5 12 C 30.933594 12.523438 28.925781 12.558594 27.40625 11.859375 C 25.898438 10.953125 24.640625 9.765625 24.109375 8.058594 C 23.660156 5.765625 24.007812 3.894531 25.265625 1.953125 C 27.21875 -0.15625 30.46875 -0.769531 33.109375 0.375 Z M 33.109375 0.375 "/>
<path style=" stroke:none;fill-rule:nonzero;fill:rgb(0%,80.784315%,97.647059%);fill-opacity:1;" d="M 5.84375 50.925781 C 6.097656 50.929688 6.097656 50.929688 6.355469 50.929688 C 6.894531 50.933594 7.433594 50.945312 7.96875 50.953125 C 8.335938 50.957031 8.703125 50.960938 9.070312 50.964844 C 9.960938 50.972656 10.855469 50.984375 11.75 51 C 11.914062 51.328125 12.078125 51.660156 12.25 52 C 12.828125 52 13.40625 52 14 52 C 14.164062 51.667969 14.328125 51.339844 14.5 51 C 15.863281 50.980469 17.222656 50.964844 18.585938 50.960938 C 19.046875 50.953125 19.507812 50.949219 19.972656 50.945312 C 20.636719 50.933594 21.304688 50.929688 21.972656 50.925781 C 22.28125 50.921875 22.28125 50.921875 22.59375 50.914062 C 23.828125 50.914062 24.703125 51.03125 25.75 51.75 C 26.875 53.140625 26.621094 54.78125 26.609375 56.484375 C 26.613281 56.800781 26.621094 57.117188 26.625 57.441406 C 26.625 60.023438 26.625 60.023438 26.070312 60.9375 C 24.949219 62.042969 23.78125 62.074219 22.269531 62.070312 C 21.972656 62.070312 21.972656 62.070312 21.675781 62.070312 C 21.03125 62.078125 20.386719 62.078125 19.742188 62.074219 C 19.292969 62.078125 18.84375 62.078125 18.394531 62.078125 C 17.453125 62.078125 16.515625 62.078125 15.570312 62.078125 C 14.367188 62.078125 13.164062 62.082031 11.960938 62.085938 C 11.03125 62.089844 10.105469 62.089844 9.175781 62.089844 C 8.730469 62.089844 8.289062 62.089844 7.84375 62.09375 C 7.222656 62.097656 6.601562 62.097656 5.980469 62.09375 C 5.800781 62.09375 5.613281 62.097656 5.425781 62.097656 C 4.082031 62.085938 3.332031 61.730469 2.3125 60.890625 C 1.398438 59.746094 1.695312 57.925781 1.6875 56.546875 C 1.683594 56.277344 1.675781 56.011719 1.671875 55.738281 C 1.664062 54.226562 1.675781 53.042969 2.5 51.75 C 3.640625 51.035156 4.507812 50.910156 5.84375 50.925781 Z M 5.84375 50.925781 "/>
<path style=" stroke:none;fill-rule:nonzero;fill:rgb(1.176471%,0.784314%,0%);fill-opacity:1;" d="M 5.5625 -0.046875 C 5.75 -0.0429688 5.933594 -0.0390625 6.128906 -0.0351562 C 6.585938 -0.0273438 7.042969 -0.015625 7.5 0 C 7.582031 0.25 7.664062 0.496094 7.75 0.75 C 8.335938 0.6875 8.921875 0.601562 9.5 0.5 C 9.582031 0.335938 9.664062 0.171875 9.75 0 C 12.488281 -0.195312 12.488281 -0.195312 13.546875 0.59375 C 14.527344 2.011719 14.265625 3.292969 14.25 5 C 15.488281 5 16.726562 5 18 5 C 17.875 4.503906 17.875 4.503906 17.75 4 C 18.234375 3.4375 18.234375 3.4375 18.75 3 C 20.03125 3.351562 20.96875 4.199219 21.75 5.25 C 21.976562 5.867188 21.976562 5.867188 22 6.5 C 21.660156 7.042969 21.660156 7.042969 21.171875 7.546875 C 21.011719 7.714844 20.855469 7.882812 20.691406 8.058594 C 19.753906 9 19.753906 9 18.96875 9.03125 C 18.734375 9.019531 18.496094 9.011719 18.25 9 C 17.984375 8.40625 17.984375 8.40625 17.75 7.75 C 17.832031 7.585938 17.914062 7.421875 18 7.25 C 16.761719 7.25 15.523438 7.25 14.25 7.25 C 14.289062 8.007812 14.289062 8.007812 14.328125 8.78125 C 14.335938 10.628906 14.335938 10.628906 13.65625 11.4375 C 12.617188 12.328125 11.847656 12.296875 10.527344 12.3125 C 10.234375 12.3125 10.234375 12.3125 9.933594 12.316406 C 9.515625 12.316406 9.101562 12.320312 8.683594 12.324219 C 8.050781 12.328125 7.417969 12.339844 6.785156 12.351562 C 6.378906 12.351562 5.976562 12.355469 5.574219 12.355469 C 5.386719 12.359375 5.195312 12.367188 5 12.371094 C 4.109375 12.367188 3.550781 12.28125 2.777344 11.820312 C 1.421875 10.351562 1.664062 8.558594 1.671875 6.679688 C 1.671875 6.144531 1.664062 5.609375 1.660156 5.074219 C 1.660156 4.734375 1.660156 4.390625 1.660156 4.046875 C 1.65625 3.738281 1.65625 3.429688 1.65625 3.113281 C 1.78125 1.96875 2.152344 1.136719 2.917969 0.28125 C 3.78125 -0.136719 4.625 -0.078125 5.5625 -0.046875 Z M 5.5625 -0.046875 "/>
<path style=" stroke:none;fill-rule:nonzero;fill:rgb(0%,0%,0%);fill-opacity:1;" d="M 5.84375 50.925781 C 6.097656 50.929688 6.097656 50.929688 6.355469 50.929688 C 6.894531 50.933594 7.433594 50.945312 7.96875 50.953125 C 8.335938 50.957031 8.703125 50.960938 9.070312 50.964844 C 9.960938 50.972656 10.855469 50.984375 11.75 51 C 12.03125 51.4375 12.03125 51.4375 12.25 52 C 12.03125 52.5625 12.03125 52.5625 11.75 53 C 11.523438 53.007812 11.300781 53.011719 11.0625 53.019531 C 10.230469 53.042969 9.394531 53.066406 8.558594 53.09375 C 8.195312 53.105469 7.835938 53.113281 7.472656 53.125 C 6.953125 53.140625 6.433594 53.152344 5.914062 53.171875 C 5.601562 53.179688 5.289062 53.1875 4.96875 53.199219 C 4.277344 53.167969 4.277344 53.167969 4 53.5 C 3.972656 53.941406 3.96875 54.382812 3.96875 54.828125 C 3.96875 55.097656 3.96875 55.367188 3.96875 55.640625 C 3.96875 55.925781 3.96875 56.210938 3.96875 56.5 C 3.96875 56.78125 3.96875 57.066406 3.96875 57.355469 C 3.96875 57.761719 3.96875 57.761719 3.96875 58.171875 C 3.96875 58.417969 3.96875 58.667969 3.96875 58.925781 C 3.933594 59.492188 3.933594 59.492188 4.25 59.75 C 4.863281 59.773438 5.472656 59.785156 6.085938 59.78125 C 6.28125 59.78125 6.472656 59.785156 6.667969 59.785156 C 7.308594 59.785156 7.945312 59.785156 8.585938 59.785156 C 9.027344 59.785156 9.46875 59.785156 9.910156 59.785156 C 10.839844 59.785156 11.765625 59.785156 12.695312 59.78125 C 13.882812 59.78125 15.078125 59.78125 16.265625 59.785156 C 17.179688 59.785156 18.09375 59.785156 19.003906 59.785156 C 19.445312 59.785156 19.882812 59.785156 20.324219 59.785156 C 20.9375 59.785156 21.550781 59.785156 22.160156 59.78125 C 22.4375 59.785156 22.4375 59.785156 22.71875 59.785156 C 23.554688 59.855469 23.554688 59.855469 24.25 59.5 C 24.273438 59.058594 24.28125 58.613281 24.285156 58.171875 C 24.285156 57.902344 24.285156 57.632812 24.285156 57.355469 C 24.285156 57.074219 24.28125 56.792969 24.28125 56.5 C 24.28125 56.214844 24.285156 55.933594 24.285156 55.640625 C 24.285156 55.375 24.285156 55.105469 24.285156 54.828125 C 24.28125 54.453125 24.28125 54.453125 24.28125 54.074219 C 24.3125 53.507812 24.3125 53.507812 24 53.25 C 23.304688 53.214844 22.613281 53.195312 21.914062 53.1875 C 21.484375 53.179688 21.054688 53.171875 20.625 53.164062 C 19.945312 53.152344 19.265625 53.140625 18.582031 53.132812 C 17.925781 53.121094 17.273438 53.105469 16.621094 53.09375 C 16.414062 53.089844 16.210938 53.089844 16 53.089844 C 14.558594 53.058594 14.558594 53.058594 14 52.5 C 14.140625 51.363281 14.140625 51.363281 14.5 51 C 15.203125 50.96875 15.902344 50.953125 16.605469 50.949219 C 16.925781 50.945312 16.925781 50.945312 17.25 50.945312 C 17.699219 50.941406 18.152344 50.941406 18.601562 50.9375 C 19.289062 50.9375 19.976562 50.929688 20.664062 50.921875 C 21.101562 50.917969 21.542969 50.917969 21.980469 50.917969 C 22.285156 50.914062 22.285156 50.914062 22.597656 50.910156 C 23.828125 50.914062 24.703125 51.035156 25.75 51.75 C 26.875 53.140625 26.621094 54.78125 26.609375 56.484375 C 26.613281 56.800781 26.621094 57.117188 26.625 57.441406 C 26.625 60.023438 26.625 60.023438 26.070312 60.9375 C 24.949219 62.042969 23.78125 62.074219 22.269531 62.070312 C 21.972656 62.070312 21.972656 62.070312 21.675781 62.070312 C 21.03125 62.078125 20.386719 62.078125 19.742188 62.074219 C 19.292969 62.078125 18.84375 62.078125 18.394531 62.078125 C 17.453125 62.078125 16.515625 62.078125 15.570312 62.078125 C 14.367188 62.078125 13.164062 62.082031 11.960938 62.085938 C 11.03125 62.089844 10.105469 62.089844 9.175781 62.089844 C 8.730469 62.089844 8.289062 62.089844 7.84375 62.09375 C 7.222656 62.097656 6.601562 62.097656 5.980469 62.09375 C 5.800781 62.09375 5.613281 62.097656 5.425781 62.097656 C 4.082031 62.085938 3.332031 61.730469 2.3125 60.890625 C 1.398438 59.746094 1.695312 57.925781 1.6875 56.546875 C 1.683594 56.277344 1.675781 56.011719 1.671875 55.738281 C 1.664062 54.226562 1.675781 53.042969 2.5 51.75 C 3.640625 51.035156 4.507812 50.910156 5.84375 50.925781 Z M 5.84375 50.925781 "/>
<path style=" stroke:none;fill-rule:nonzero;fill:rgb(98.039216%,80.392158%,34.901962%);fill-opacity:1;" d="M 7.75 0.75 C 8.410156 0.75 9.070312 0.75 9.75 0.75 C 9.796875 0.910156 9.84375 1.070312 9.890625 1.234375 C 10.234375 1.855469 10.234375 1.855469 11.140625 1.921875 C 11.425781 1.949219 11.707031 1.972656 12 2 C 12.476562 2.476562 12.28125 3.328125 12.28125 3.960938 C 12.28125 4.132812 12.28125 4.300781 12.285156 4.480469 C 12.285156 4.84375 12.28125 5.203125 12.28125 5.566406 C 12.28125 6.121094 12.28125 6.679688 12.285156 7.234375 C 12.285156 7.585938 12.28125 7.9375 12.28125 8.289062 C 12.28125 8.609375 12.28125 8.933594 12.28125 9.265625 C 12.25 10 12.25 10 12 10.25 C 10.898438 10.304688 9.796875 10.296875 8.699219 10.296875 C 8.144531 10.296875 7.589844 10.300781 7.039062 10.304688 C 6.683594 10.308594 6.335938 10.308594 5.984375 10.308594 C 5.664062 10.308594 5.34375 10.308594 5.015625 10.308594 C 4.25 10.25 4.25 10.25 3.75 9.75 C 3.691406 9.007812 3.691406 9.007812 3.691406 8.070312 C 3.691406 7.90625 3.691406 7.738281 3.691406 7.570312 C 3.691406 7.21875 3.695312 6.871094 3.699219 6.523438 C 3.703125 5.984375 3.703125 5.449219 3.703125 4.914062 C 3.710938 2.289062 3.710938 2.289062 4 2 C 4.496094 1.949219 4.988281 1.90625 5.484375 1.875 C 6.53125 1.828125 6.53125 1.828125 7.5 1.5 C 7.582031 1.253906 7.664062 1.003906 7.75 0.75 Z M 7.75 0.75 "/>
<path style=" stroke:none;fill-rule:nonzero;fill:rgb(98.823529%,49.803922%,52.549022%);fill-opacity:1;" d="M 45.628906 16.996094 C 46.894531 17.511719 47.757812 18.605469 48.703125 19.5625 C 48.921875 19.777344 49.144531 19.992188 49.375 20.214844 C 49.582031 20.421875 49.789062 20.632812 50.007812 20.847656 C 50.195312 21.039062 50.386719 21.230469 50.582031 21.425781 C 51 22 51 22 51.128906 22.621094 C 50.851562 23.980469 49.535156 24.902344 48.578125 25.84375 C 48.234375 26.195312 48.234375 26.195312 47.886719 26.554688 C 47.664062 26.777344 47.445312 26.996094 47.214844 27.226562 C 47.011719 27.425781 46.8125 27.628906 46.601562 27.839844 C 46 28.25 46 28.25 45.371094 28.253906 C 44.105469 27.738281 43.242188 26.644531 42.296875 25.6875 C 42.074219 25.472656 41.855469 25.257812 41.628906 25.039062 C 41.417969 24.828125 41.210938 24.617188 40.996094 24.402344 C 40.707031 24.117188 40.707031 24.117188 40.414062 23.824219 C 40 23.25 40 23.25 39.875 22.628906 C 40.148438 21.265625 41.464844 20.347656 42.421875 19.40625 C 42.652344 19.171875 42.878906 18.9375 43.113281 18.695312 C 43.332031 18.476562 43.554688 18.253906 43.785156 18.023438 C 43.984375 17.820312 44.191406 17.621094 44.398438 17.410156 C 45 17 45 17 45.628906 16.996094 Z M 45.628906 16.996094 "/>
<path style=" stroke:none;fill-rule:nonzero;fill:rgb(58.039218%,84.313726%,47.450981%);fill-opacity:1;" d="M 18.628906 16.996094 C 19.894531 17.511719 20.757812 18.605469 21.703125 19.5625 C 21.921875 19.777344 22.144531 19.992188 22.375 20.214844 C 22.582031 20.421875 22.789062 20.632812 23.007812 20.847656 C 23.195312 21.039062 23.386719 21.230469 23.582031 21.425781 C 24 22 24 22 24.128906 22.621094 C 23.851562 23.980469 22.535156 24.902344 21.578125 25.84375 C 21.234375 26.195312 21.234375 26.195312 20.886719 26.554688 C 20.664062 26.777344 20.445312 26.996094 20.214844 27.226562 C 20.011719 27.425781 19.8125 27.628906 19.601562 27.839844 C 19 28.25 19 28.25 18.371094 28.253906 C 17.105469 27.738281 16.242188 26.644531 15.296875 25.6875 C 15.074219 25.472656 14.855469 25.257812 14.628906 25.039062 C 14.417969 24.828125 14.210938 24.617188 13.996094 24.402344 C 13.707031 24.117188 13.707031 24.117188 13.414062 23.824219 C 13 23.25 13 23.25 12.875 22.628906 C 13.148438 21.265625 14.464844 20.347656 15.421875 19.40625 C 15.652344 19.171875 15.878906 18.9375 16.113281 18.695312 C 16.332031 18.476562 16.554688 18.253906 16.785156 18.023438 C 16.984375 17.820312 17.191406 17.621094 17.398438 17.410156 C 18 17 18 17 18.628906 16.996094 Z M 18.628906 16.996094 "/>
<path style=" stroke:none;fill-rule:nonzero;fill:rgb(98.823529%,49.803922%,52.549022%);fill-opacity:1;" d="M 45.625 51 C 46.894531 51.507812 47.769531 52.605469 48.71875 53.5625 C 48.941406 53.777344 49.164062 53.992188 49.394531 54.214844 C 49.605469 54.421875 49.8125 54.632812 50.027344 54.847656 C 50.320312 55.132812 50.320312 55.132812 50.613281 55.425781 C 51 56 51 56 51 56.625 C 50.492188 57.898438 49.394531 58.769531 48.4375 59.71875 C 48.222656 59.941406 48.007812 60.164062 47.785156 60.394531 C 47.472656 60.707031 47.472656 60.707031 47.152344 61.027344 C 46.867188 61.316406 46.867188 61.316406 46.574219 61.613281 C 46 62 46 62 45.375 62 C 44.105469 61.492188 43.230469 60.394531 42.28125 59.4375 C 42.058594 59.222656 41.835938 59.007812 41.605469 58.785156 C 41.394531 58.578125 41.1875 58.367188 40.972656 58.152344 C 40.777344 57.960938 40.585938 57.769531 40.390625 57.574219 C 40 57 40 57 40 56.375 C 40.507812 55.101562 41.605469 54.230469 42.5625 53.28125 C 42.777344 53.058594 42.992188 52.835938 43.214844 52.605469 C 43.527344 52.289062 43.527344 52.289062 43.847656 51.96875 C 44.039062 51.777344 44.230469 51.585938 44.425781 51.386719 C 45 51 45 51 45.625 51 Z M 45.625 51 "/>
<path style=" stroke:none;fill-rule:nonzero;fill:rgb(98.431373%,80.392158%,34.901962%);fill-opacity:1;" d="M 37.03125 35.171875 C 38.113281 35.730469 38.757812 36.398438 39.25 37.5 C 39.433594 38.863281 39.488281 40.242188 38.859375 41.5 C 37.964844 42.601562 37.21875 43.148438 35.828125 43.34375 C 34.34375 43.40625 33.390625 43.28125 32.25 42.25 C 31.117188 40.960938 30.882812 40.171875 30.898438 38.476562 C 31.101562 37.03125 32.011719 36.195312 33.046875 35.25 C 34.328125 34.796875 35.730469 34.75 37.03125 35.171875 Z M 37.03125 35.171875 "/>
<path style=" stroke:none;fill-rule:nonzero;fill:rgb(0%,80.784315%,97.254902%);fill-opacity:1;" d="M 32.035156 2.171875 C 33.105469 2.730469 33.726562 3.429688 34.25 4.5 C 34.550781 5.644531 34.558594 6.523438 34.25 7.671875 C 33.515625 8.886719 32.613281 9.796875 31.25 10.25 C 29.878906 10.445312 28.800781 10.414062 27.640625 9.609375 C 26.601562 8.714844 26.113281 7.816406 25.921875 6.441406 C 25.847656 5.085938 26.09375 4.304688 27 3.25 C 28.503906 1.925781 30.0625 1.539062 32.035156 2.171875 Z M 32.035156 2.171875 "/>
<path style=" stroke:none;fill-rule:nonzero;fill:rgb(0%,70.980394%,92.156863%);fill-opacity:1;" d="M 14.75 53 C 16.058594 52.988281 17.367188 52.976562 18.675781 52.972656 C 19.121094 52.96875 19.566406 52.96875 20.011719 52.960938 C 20.648438 52.953125 21.289062 52.953125 21.925781 52.949219 C 22.226562 52.949219 22.226562 52.949219 22.53125 52.941406 C 23.023438 52.941406 23.511719 52.96875 24 53 C 24.652344 53.652344 24.566406 53.9375 24.566406 54.84375 C 24.566406 55.246094 24.566406 55.246094 24.566406 55.652344 C 24.566406 55.933594 24.566406 56.210938 24.5625 56.5 C 24.566406 56.921875 24.566406 56.921875 24.566406 57.347656 C 24.566406 57.613281 24.566406 57.882812 24.566406 58.15625 C 24.566406 58.402344 24.566406 58.648438 24.566406 58.898438 C 24.5 59.5 24.5 59.5 24 60 C 23.371094 60.050781 22.765625 60.066406 22.136719 60.066406 C 21.949219 60.066406 21.753906 60.066406 21.558594 60.066406 C 20.921875 60.070312 20.285156 60.066406 19.648438 60.066406 C 19.207031 60.066406 18.765625 60.066406 18.324219 60.066406 C 17.398438 60.066406 16.476562 60.066406 15.550781 60.066406 C 14.363281 60.0625 13.175781 60.066406 11.988281 60.066406 C 11.078125 60.070312 10.171875 60.066406 9.257812 60.066406 C 8.820312 60.066406 8.382812 60.066406 7.945312 60.066406 C 7.335938 60.070312 6.722656 60.066406 6.113281 60.066406 C 5.929688 60.066406 5.746094 60.066406 5.558594 60.066406 C 4.308594 60.058594 4.308594 60.058594 3.75 59.5 C 3.691406 58.890625 3.691406 58.890625 3.699219 58.136719 C 3.703125 57.871094 3.703125 57.601562 3.703125 57.324219 C 3.710938 57.042969 3.714844 56.761719 3.71875 56.46875 C 3.71875 56.183594 3.722656 55.898438 3.726562 55.609375 C 3.734375 54.90625 3.738281 54.203125 3.75 53.5 C 3.832031 53.5 3.914062 53.5 4 53.5 C 4 55.148438 4 56.800781 4 58.5 C 6.136719 58.488281 8.265625 58.476562 10.402344 58.453125 C 11.390625 58.445312 12.386719 58.433594 13.375 58.433594 C 14.332031 58.425781 15.289062 58.421875 16.246094 58.40625 C 16.609375 58.40625 16.972656 58.402344 17.335938 58.402344 C 17.851562 58.402344 18.359375 58.394531 18.871094 58.386719 C 19.164062 58.386719 19.453125 58.382812 19.753906 58.378906 C 20.660156 58.222656 20.957031 57.984375 21.5 57.25 C 21.613281 56.527344 21.671875 55.910156 21.6875 55.1875 C 21.707031 54.546875 21.730469 53.90625 21.75 53.25 C 19.441406 53.25 17.128906 53.25 14.75 53.25 C 14.75 53.167969 14.75 53.085938 14.75 53 Z M 14.75 53 "/>
<path style=" stroke:none;fill-rule:nonzero;fill:rgb(95.686275%,38.431373%,42.352942%);fill-opacity:1;" d="M 45.625 17 C 46.890625 17.507812 47.757812 18.605469 48.703125 19.5625 C 48.925781 19.777344 49.144531 19.992188 49.371094 20.214844 C 49.578125 20.421875 49.789062 20.632812 50.003906 20.847656 C 50.195312 21.039062 50.386719 21.230469 50.585938 21.425781 C 51 22 51 22 51.128906 22.621094 C 50.851562 23.980469 49.535156 24.902344 48.578125 25.84375 C 48.234375 26.195312 48.234375 26.195312 47.886719 26.554688 C 47.664062 26.777344 47.445312 26.996094 47.214844 27.222656 C 47.011719 27.425781 46.808594 27.628906 46.601562 27.839844 C 46 28.25 46 28.25 45.324219 28.210938 C 44.398438 27.871094 44.078125 27.277344 43.5 26.5 C 43.613281 26.402344 43.730469 26.304688 43.851562 26.203125 C 44.878906 25.320312 45.886719 24.414062 46.875 23.484375 C 47.089844 23.285156 47.300781 23.085938 47.523438 22.882812 C 48.058594 22.277344 48.058594 22.277344 48.121094 21.488281 C 47.984375 20.644531 47.785156 20.332031 47.203125 19.71875 C 47.054688 19.558594 46.90625 19.398438 46.753906 19.230469 C 46.199219 18.703125 45.597656 18.230469 45 17.75 C 43.433594 19.316406 41.863281 20.882812 40.25 22.5 C 40.25 21.121094 41.617188 20.246094 42.546875 19.3125 C 42.761719 19.085938 42.980469 18.863281 43.203125 18.628906 C 43.414062 18.417969 43.621094 18.207031 43.839844 17.988281 C 44.03125 17.792969 44.226562 17.597656 44.421875 17.394531 C 45 17 45 17 45.625 17 Z M 45.625 17 "/>
<path style=" stroke:none;fill-rule:nonzero;fill:rgb(49.019608%,80.000001%,36.862746%);fill-opacity:1;" d="M 18 17 C 19.691406 17.1875 20.558594 18.40625 21.703125 19.5625 C 21.925781 19.777344 22.144531 19.992188 22.371094 20.214844 C 22.578125 20.421875 22.789062 20.632812 23.003906 20.847656 C 23.195312 21.039062 23.386719 21.230469 23.585938 21.425781 C 24 22 24 22 24.128906 22.621094 C 23.851562 23.984375 22.535156 24.902344 21.578125 25.84375 C 21.351562 26.078125 21.121094 26.3125 20.886719 26.554688 C 20.664062 26.777344 20.445312 26.996094 20.214844 27.226562 C 20.011719 27.425781 19.808594 27.628906 19.601562 27.839844 C 19 28.25 19 28.25 18.324219 28.210938 C 17.398438 27.871094 17.078125 27.277344 16.5 26.5 C 16.613281 26.402344 16.730469 26.304688 16.851562 26.203125 C 17.40625 25.726562 17.953125 25.238281 18.5 24.75 C 18.726562 24.546875 18.953125 24.347656 19.191406 24.136719 C 19.53125 23.824219 19.53125 23.824219 19.875 23.5 C 20.089844 23.304688 20.300781 23.109375 20.523438 22.90625 C 21.15625 22.03125 21.164062 21.558594 21 20.5 C 20.550781 19.796875 20.550781 19.796875 19.921875 19.203125 C 19.226562 18.492188 18.574219 17.808594 18 17 Z M 18 17 "/>
<path style=" stroke:none;fill-rule:nonzero;fill:rgb(99.215686%,38.82353%,43.137255%);fill-opacity:1;" d="M 45 51 C 46.691406 51.1875 47.574219 52.40625 48.71875 53.5625 C 48.941406 53.777344 49.164062 53.992188 49.394531 54.214844 C 49.605469 54.421875 49.8125 54.632812 50.03125 54.847656 C 50.316406 55.136719 50.316406 55.136719 50.613281 55.425781 C 51 56 51 56 51 56.625 C 50.492188 57.898438 49.394531 58.765625 48.4375 59.71875 C 48.222656 59.941406 48.007812 60.164062 47.785156 60.394531 C 47.472656 60.707031 47.472656 60.707031 47.152344 61.03125 C 46.863281 61.316406 46.863281 61.316406 46.574219 61.613281 C 46 62 46 62 45.339844 61.976562 C 44.542969 61.671875 44.226562 61.191406 43.75 60.5 C 43.871094 60.382812 43.988281 60.261719 44.113281 60.140625 C 44.65625 59.605469 45.195312 59.066406 45.734375 58.53125 C 45.921875 58.34375 46.113281 58.15625 46.304688 57.964844 C 46.574219 57.699219 46.574219 57.699219 46.851562 57.425781 C 47.101562 57.175781 47.101562 57.175781 47.355469 56.925781 C 47.851562 56.390625 47.988281 56.066406 48.125 55.34375 C 47.933594 54.058594 47.125 53.414062 46.25 52.5 C 46.003906 52.210938 45.757812 51.921875 45.515625 51.625 C 45.261719 51.316406 45.261719 51.316406 45 51 Z M 45 51 "/>
<path style=" stroke:none;fill-rule:nonzero;fill:rgb(99.215686%,75.686276%,26.274511%);fill-opacity:1;" d="M 9.5 0.75 C 9.605469 0.914062 9.710938 1.074219 9.816406 1.238281 C 10.445312 1.984375 11.0625 1.914062 12 2 C 12.476562 2.476562 12.28125 3.328125 12.28125 3.960938 C 12.28125 4.132812 12.28125 4.300781 12.285156 4.480469 C 12.285156 4.84375 12.28125 5.203125 12.28125 5.566406 C 12.28125 6.121094 12.28125 6.679688 12.285156 7.234375 C 12.285156 7.585938 12.28125 7.9375 12.28125 8.289062 C 12.28125 8.609375 12.28125 8.933594 12.28125 9.265625 C 12.25 10 12.25 10 12 10.25 C 11.425781 10.273438 10.851562 10.277344 10.28125 10.273438 C 10.023438 10.273438 10.023438 10.273438 9.761719 10.273438 C 9.210938 10.273438 8.660156 10.269531 8.109375 10.265625 C 7.738281 10.265625 7.363281 10.261719 6.992188 10.261719 C 6.078125 10.261719 5.164062 10.253906 4.25 10.25 C 4.25 10.167969 4.25 10.085938 4.25 10 C 4.699219 9.988281 4.699219 9.988281 5.152344 9.980469 C 5.546875 9.96875 5.9375 9.953125 6.328125 9.9375 C 6.523438 9.933594 6.71875 9.929688 6.921875 9.925781 C 7.113281 9.917969 7.300781 9.910156 7.496094 9.902344 C 7.671875 9.898438 7.84375 9.890625 8.023438 9.886719 C 8.53125 9.78125 8.53125 9.78125 8.929688 9.355469 C 9.371094 8.519531 9.359375 7.84375 9.378906 6.902344 C 9.382812 6.726562 9.386719 6.550781 9.390625 6.367188 C 9.40625 5.808594 9.414062 5.246094 9.421875 4.6875 C 9.429688 4.308594 9.441406 3.925781 9.449219 3.546875 C 9.46875 2.613281 9.484375 1.683594 9.5 0.75 Z M 9.5 0.75 "/>
<path style=" stroke:none;fill-rule:nonzero;fill:rgb(0%,73.725492%,95.686275%);fill-opacity:1;" d="M 30.75 2 C 31.976562 2.113281 32.636719 2.363281 33.5 3.25 C 34.234375 4.273438 34.585938 5.15625 34.484375 6.421875 C 34.183594 8.132812 33.351562 8.988281 32 10 C 31.273438 10.242188 30.757812 10.300781 30 10.3125 C 29.78125 10.320312 29.566406 10.324219 29.34375 10.332031 C 28.640625 10.234375 28.433594 10.042969 28 9.5 C 28.386719 9.386719 28.386719 9.386719 28.78125 9.265625 C 30.050781 8.703125 30.738281 7.773438 31.25 6.5 C 31.464844 4.898438 31.429688 3.480469 30.75 2 Z M 30.75 2 "/>
<path style=" stroke:none;fill-rule:nonzero;fill:rgb(98.431373%,75.294119%,26.274511%);fill-opacity:1;" d="M 36 35 C 37.574219 35.402344 38.363281 36.167969 39.25 37.5 C 39.417969 38.839844 39.484375 40.269531 38.859375 41.5 C 37.953125 42.613281 37.210938 43.171875 35.792969 43.328125 C 35.097656 43.34375 34.441406 43.347656 33.75 43.25 C 33.585938 43.085938 33.421875 42.921875 33.25 42.75 C 33.382812 42.664062 33.515625 42.574219 33.652344 42.484375 C 34.800781 41.679688 35.859375 40.90625 36.25 39.5 C 36.378906 37.972656 36.34375 36.496094 36 35 Z M 36 35 "/>
</g>
</svg>
