<?xml version="1.0" encoding="UTF-8"?>
<svg xmlns="http://www.w3.org/2000/svg" xmlns:xlink="http://www.w3.org/1999/xlink" width="24" height="24" viewBox="0 0 24 24" version="1.1">
<g id="surface1">
<path style=" stroke:none;fill-rule:nonzero;fill:rgb(94.901961%,38.82353%,43.137255%);fill-opacity:1;" d="M 13.5 0 C 14.105469 0.261719 14.386719 0.792969 14.640625 1.378906 C 14.753906 1.667969 14.859375 1.953125 14.957031 2.246094 C 14.996094 2.347656 15.03125 2.453125 15.070312 2.558594 C 15.355469 3.382812 15.597656 4.203125 15.75 5.0625 C 15.765625 5.152344 15.78125 5.238281 15.800781 5.328125 C 15.9375 6.113281 15.960938 6.875 15.949219 7.667969 C 15.949219 7.789062 15.949219 7.910156 15.945312 8.03125 C 15.945312 8.324219 15.941406 8.613281 15.9375 8.90625 C 16.046875 8.925781 16.046875 8.925781 16.15625 8.941406 C 17.054688 9.089844 17.054688 9.089844 17.441406 9.171875 C 18.863281 9.46875 20.378906 9.519531 21.804688 9.230469 C 22.289062 9.136719 22.710938 9.132812 23.179688 9.292969 C 23.519531 9.523438 23.816406 9.792969 23.964844 10.191406 C 24.015625 10.507812 24.015625 10.820312 24.019531 11.140625 C 24.019531 11.210938 24.019531 11.28125 24.019531 11.355469 C 24.042969 14.386719 24.042969 14.386719 23.71875 15.65625 C 23.699219 15.730469 23.679688 15.808594 23.660156 15.886719 C 22.917969 18.726562 21.503906 21.28125 18.929688 22.828125 C 17.5 23.648438 15.730469 24.257812 14.0625 24 C 12.308594 23.476562 10.6875 21.691406 9.84375 20.15625 C 8.90625 18.351562 8.90625 18.351562 8.90625 17.53125 C 8.796875 17.527344 8.691406 17.519531 8.578125 17.511719 C 6.273438 17.246094 4.105469 15.84375 2.625 14.113281 C 0.941406 11.964844 -0.0117188 9.105469 -0.015625 6.378906 C -0.015625 6.300781 -0.015625 6.222656 -0.015625 6.140625 C -0.015625 5.980469 -0.0195312 5.816406 -0.0195312 5.652344 C -0.0195312 5.402344 -0.0195312 5.15625 -0.0195312 4.90625 C -0.0273438 2.714844 -0.0273438 2.714844 0.5625 2.0625 C 1.03125 1.734375 1.394531 1.65625 1.96875 1.6875 C 2.183594 1.726562 2.398438 1.773438 2.613281 1.824219 C 3.121094 1.933594 3.605469 2.035156 4.125 2.0625 C 4.238281 2.066406 4.347656 2.074219 4.460938 2.082031 C 7 2.171875 9.714844 1.625 11.886719 0.269531 C 12.429688 -0.0664062 12.875 -0.0820312 13.5 0 Z M 13.5 0 "/>
<path style=" stroke:none;fill-rule:nonzero;fill:rgb(58.823532%,69.01961%,99.215686%);fill-opacity:1;" d="M 13.019531 0.738281 C 13.394531 0.875 13.589844 1.035156 13.777344 1.390625 C 13.875 1.605469 13.964844 1.824219 14.050781 2.046875 C 14.082031 2.125 14.117188 2.210938 14.148438 2.292969 C 14.941406 4.382812 15.230469 6.40625 15.1875 8.625 C 14.695312 8.570312 14.328125 8.410156 13.898438 8.1875 C 13.832031 8.152344 13.765625 8.121094 13.699219 8.085938 C 13.324219 7.890625 12.96875 7.683594 12.617188 7.453125 C 12.257812 7.234375 11.980469 7.15625 11.558594 7.152344 C 11.140625 7.28125 10.808594 7.507812 10.5625 7.871094 C 10.449219 8.085938 10.351562 8.304688 10.253906 8.523438 C 10.199219 8.644531 10.199219 8.644531 10.144531 8.765625 C 9.722656 9.71875 9.378906 10.679688 9.148438 11.695312 C 9.09375 11.90625 9.09375 11.90625 9 12 C 7.699219 12.125 6.5 12.085938 5.375 11.375 C 5.160156 11.222656 5.160156 11.222656 4.890625 11.28125 C 4.824219 11.300781 4.757812 11.320312 4.6875 11.34375 C 4.65625 11.792969 4.726562 12.050781 4.953125 12.4375 C 5.023438 12.570312 5.023438 12.570312 5.097656 12.703125 C 5.230469 12.90625 5.363281 13.050781 5.53125 13.21875 C 5.53125 13.28125 5.53125 13.34375 5.53125 13.40625 C 5.585938 13.433594 5.640625 13.457031 5.695312 13.484375 C 5.90625 13.59375 6.09375 13.722656 6.289062 13.863281 C 7.078125 14.394531 7.765625 14.53125 8.71875 14.625 C 8.75 15.304688 8.78125 15.988281 8.8125 16.6875 C 7.714844 16.578125 7.714844 16.578125 7.148438 16.351562 C 7.085938 16.328125 7.019531 16.304688 6.957031 16.277344 C 4.777344 15.402344 3.246094 13.878906 2.15625 11.8125 C 2.109375 11.730469 2.066406 11.644531 2.019531 11.558594 C 1.554688 10.671875 1.265625 9.75 1.0625 8.773438 C 1.039062 8.675781 1.019531 8.582031 1 8.484375 C 0.867188 7.839844 0.761719 7.21875 0.75 6.5625 C 0.75 6.488281 0.746094 6.414062 0.746094 6.339844 C 0.699219 3.207031 0.699219 3.207031 1.125 2.625 C 1.582031 2.394531 2.105469 2.554688 2.578125 2.667969 C 5.578125 3.3125 9.359375 2.75 12 1.140625 C 12.078125 1.089844 12.15625 1.039062 12.242188 0.984375 C 12.546875 0.789062 12.640625 0.75 13.019531 0.738281 Z M 13.019531 0.738281 "/>
<path style=" stroke:none;fill-rule:nonzero;fill:rgb(22.745098%,12.54902%,20.392157%);fill-opacity:1;" d="M 13.5 0 C 14.105469 0.261719 14.386719 0.792969 14.640625 1.378906 C 14.753906 1.667969 14.859375 1.953125 14.957031 2.246094 C 14.996094 2.347656 15.03125 2.453125 15.070312 2.558594 C 15.355469 3.382812 15.597656 4.203125 15.75 5.0625 C 15.765625 5.152344 15.78125 5.238281 15.800781 5.328125 C 15.9375 6.113281 15.960938 6.875 15.949219 7.667969 C 15.949219 7.789062 15.949219 7.910156 15.945312 8.03125 C 15.945312 8.324219 15.941406 8.613281 15.9375 8.90625 C 16.046875 8.925781 16.046875 8.925781 16.15625 8.941406 C 17.054688 9.089844 17.054688 9.089844 17.441406 9.171875 C 18.863281 9.46875 20.378906 9.519531 21.804688 9.230469 C 22.289062 9.136719 22.710938 9.132812 23.179688 9.292969 C 23.519531 9.523438 23.816406 9.792969 23.964844 10.191406 C 24.015625 10.507812 24.015625 10.820312 24.019531 11.140625 C 24.019531 11.210938 24.019531 11.28125 24.019531 11.355469 C 24.042969 14.386719 24.042969 14.386719 23.71875 15.65625 C 23.699219 15.730469 23.679688 15.808594 23.660156 15.886719 C 22.917969 18.726562 21.503906 21.28125 18.929688 22.828125 C 17.5 23.648438 15.730469 24.257812 14.0625 24 C 12.308594 23.476562 10.6875 21.691406 9.84375 20.15625 C 8.90625 18.351562 8.90625 18.351562 8.90625 17.53125 C 8.796875 17.527344 8.691406 17.519531 8.578125 17.511719 C 6.273438 17.246094 4.105469 15.84375 2.625 14.113281 C 0.941406 11.964844 -0.0117188 9.105469 -0.015625 6.378906 C -0.015625 6.300781 -0.015625 6.222656 -0.015625 6.140625 C -0.015625 5.980469 -0.0195312 5.816406 -0.0195312 5.652344 C -0.0195312 5.402344 -0.0195312 5.15625 -0.0195312 4.90625 C -0.0273438 2.714844 -0.0273438 2.714844 0.5625 2.0625 C 1.03125 1.734375 1.394531 1.65625 1.96875 1.6875 C 2.183594 1.726562 2.398438 1.773438 2.613281 1.824219 C 3.121094 1.933594 3.605469 2.035156 4.125 2.0625 C 4.238281 2.066406 4.347656 2.074219 4.460938 2.082031 C 7 2.171875 9.714844 1.625 11.886719 0.269531 C 12.429688 -0.0664062 12.875 -0.0820312 13.5 0 Z M 11.980469 1.128906 C 9.894531 2.347656 7.550781 2.832031 5.152344 2.832031 C 5.03125 2.832031 4.910156 2.832031 4.785156 2.832031 C 3.890625 2.824219 3.011719 2.792969 2.140625 2.574219 C 1.855469 2.503906 1.605469 2.503906 1.3125 2.53125 C 1.089844 2.707031 0.96875 2.84375 0.84375 3.09375 C 0.4375 6.582031 0.871094 10.417969 3.042969 13.289062 C 3.152344 13.421875 3.261719 13.554688 3.375 13.6875 C 3.4375 13.761719 3.5 13.839844 3.5625 13.917969 C 4.761719 15.324219 6.460938 16.246094 8.25 16.6875 C 8.4375 16.6875 8.621094 16.6875 8.8125 16.6875 C 8.78125 16.007812 8.75 15.328125 8.71875 14.625 C 8.53125 14.605469 8.339844 14.589844 8.144531 14.574219 C 7.214844 14.441406 6.382812 14.085938 5.71875 13.40625 C 5.65625 13.40625 5.59375 13.40625 5.53125 13.40625 C 5.507812 13.355469 5.480469 13.300781 5.457031 13.25 C 5.332031 13.007812 5.195312 12.78125 5.058594 12.550781 C 4.785156 12.101562 4.675781 11.875 4.6875 11.34375 C 4.992188 11.246094 5.128906 11.238281 5.429688 11.355469 C 5.523438 11.410156 5.617188 11.460938 5.714844 11.511719 C 6.496094 11.9375 7.074219 12.027344 7.957031 12.011719 C 8.058594 12.011719 8.15625 12.011719 8.261719 12.007812 C 8.507812 12.007812 8.753906 12.003906 9 12 C 9.171875 11.554688 9.320312 11.117188 9.441406 10.652344 C 9.59375 10.101562 9.792969 9.582031 10.027344 9.058594 C 10.054688 8.988281 10.085938 8.921875 10.117188 8.847656 C 10.632812 7.714844 10.632812 7.714844 11.085938 7.3125 C 11.507812 7.160156 11.953125 7.132812 12.378906 7.289062 C 12.566406 7.386719 12.742188 7.492188 12.917969 7.605469 C 13.050781 7.683594 13.179688 7.761719 13.308594 7.835938 C 13.375 7.875 13.4375 7.914062 13.5 7.953125 C 13.769531 8.109375 14.042969 8.253906 14.320312 8.394531 C 14.449219 8.464844 14.449219 8.464844 14.582031 8.53125 C 14.828125 8.648438 14.828125 8.648438 15.1875 8.625 C 15.261719 6.199219 14.851562 3.902344 13.910156 1.660156 C 13.886719 1.597656 13.859375 1.539062 13.835938 1.476562 C 13.667969 1.101562 13.507812 0.910156 13.125 0.75 C 12.667969 0.664062 12.355469 0.898438 11.980469 1.128906 Z M 11.339844 8.015625 C 11.097656 8.324219 10.941406 8.648438 10.78125 9.003906 C 10.75 9.078125 10.714844 9.148438 10.683594 9.222656 C 10.296875 10.074219 10.011719 10.917969 9.777344 11.816406 C 9.757812 11.894531 9.738281 11.972656 9.71875 12.054688 C 9.078125 14.636719 9.324219 17.566406 10.621094 19.902344 C 11.476562 21.285156 12.570312 22.269531 13.96875 23.0625 C 14.027344 23.101562 14.085938 23.136719 14.148438 23.179688 C 15.140625 23.542969 16.636719 23.019531 17.535156 22.617188 C 20.019531 21.449219 21.648438 19.410156 22.582031 16.855469 C 23.039062 15.324219 23.269531 13.816406 23.273438 12.21875 C 23.273438 12.023438 23.277344 11.824219 23.277344 11.625 C 23.28125 11.5 23.28125 11.371094 23.28125 11.246094 C 23.28125 11.074219 23.28125 11.074219 23.285156 10.898438 C 23.246094 10.539062 23.132812 10.289062 22.875 10.03125 C 22.355469 9.984375 21.851562 10.039062 21.339844 10.125 C 19.898438 10.34375 18.484375 10.246094 17.0625 9.9375 C 16.984375 9.921875 16.910156 9.90625 16.828125 9.886719 C 15.289062 9.546875 13.945312 9.046875 12.601562 8.214844 C 12.53125 8.167969 12.460938 8.125 12.386719 8.082031 C 12.324219 8.039062 12.257812 8 12.195312 7.960938 C 11.871094 7.820312 11.625 7.804688 11.339844 8.015625 Z M 11.339844 8.015625 "/>
<path style=" stroke:none;fill-rule:nonzero;fill:rgb(90.588236%,32.156864%,36.470589%);fill-opacity:1;" d="M 12 7.875 C 11.933594 8.320312 11.765625 8.710938 11.597656 9.121094 C 11.28125 9.914062 11.039062 10.699219 10.875 11.53125 C 10.859375 11.609375 10.84375 11.691406 10.824219 11.773438 C 10.675781 12.570312 10.648438 13.359375 10.652344 14.167969 C 10.652344 14.269531 10.652344 14.269531 10.652344 14.375 C 10.65625 16.203125 11.042969 17.78125 11.90625 19.40625 C 12.066406 19.199219 12.210938 18.992188 12.351562 18.769531 C 12.851562 18.058594 13.402344 17.582031 14.25 17.34375 C 15.273438 17.207031 16.105469 17.386719 16.976562 17.9375 C 17.511719 18.34375 17.882812 18.960938 18.09375 19.59375 C 18.101562 19.816406 18.105469 20.039062 18.105469 20.261719 C 18.105469 20.4375 18.105469 20.4375 18.105469 20.621094 C 18.09375 20.90625 18.09375 20.90625 18 21 C 17.789062 21.042969 17.789062 21.042969 17.53125 21 C 17.417969 20.867188 17.308594 20.738281 17.203125 20.597656 C 16.65625 19.96875 15.761719 19.546875 14.941406 19.46875 C 13.964844 19.445312 13.238281 19.621094 12.375 20.0625 C 13.457031 21.316406 14.769531 22.703125 16.5 22.875 C 16.148438 23.226562 15.570312 23.191406 15.09375 23.25 C 15.023438 23.261719 14.953125 23.269531 14.882812 23.28125 C 13.953125 23.363281 13.070312 22.554688 12.386719 22.003906 C 11.222656 21.023438 10.460938 19.789062 9.9375 18.375 C 9.910156 18.304688 9.882812 18.234375 9.851562 18.164062 C 8.804688 15.351562 9.503906 11.832031 10.699219 9.183594 C 11.316406 7.855469 11.316406 7.855469 12 7.875 Z M 12 7.875 "/>
<path style=" stroke:none;fill-rule:nonzero;fill:rgb(49.803922%,62.352943%,98.431373%);fill-opacity:1;" d="M 1.59375 2.53125 C 1.59375 2.660156 1.59375 2.660156 1.589844 2.789062 C 1.550781 6.632812 1.96875 10.421875 4.78125 13.3125 C 4.863281 13.402344 4.863281 13.402344 4.945312 13.492188 C 5.9375 14.539062 7.285156 15.171875 8.625 15.65625 C 8.625 15.316406 8.625 14.976562 8.625 14.625 C 8.65625 14.625 8.6875 14.625 8.71875 14.625 C 8.75 15.304688 8.78125 15.984375 8.8125 16.6875 C 7.714844 16.578125 7.714844 16.578125 7.148438 16.355469 C 7.085938 16.328125 7.019531 16.304688 6.957031 16.277344 C 4.777344 15.398438 3.242188 13.878906 2.15625 11.8125 C 2.109375 11.726562 2.066406 11.644531 2.019531 11.558594 C 1.554688 10.667969 1.265625 9.75 1.058594 8.769531 C 1.039062 8.675781 1.019531 8.582031 1 8.484375 C 0.867188 7.839844 0.761719 7.21875 0.75 6.5625 C 0.75 6.488281 0.746094 6.414062 0.746094 6.339844 C 0.699219 3.207031 0.699219 3.207031 1.125 2.625 C 1.3125 2.53125 1.3125 2.53125 1.59375 2.53125 Z M 1.59375 2.53125 "/>
<path style=" stroke:none;fill-rule:nonzero;fill:rgb(23.921569%,13.333334%,20.784314%);fill-opacity:1;" d="M 16.78125 17.8125 C 17.425781 18.21875 17.855469 18.875 18.09375 19.59375 C 18.101562 19.816406 18.105469 20.039062 18.105469 20.261719 C 18.105469 20.4375 18.105469 20.4375 18.105469 20.621094 C 18.09375 20.90625 18.09375 20.90625 18 21 C 17.789062 21.042969 17.789062 21.042969 17.53125 21 C 17.417969 20.867188 17.308594 20.738281 17.203125 20.597656 C 16.65625 19.96875 15.761719 19.546875 14.941406 19.46875 C 14.160156 19.449219 13.4375 19.511719 12.742188 19.886719 C 12.5 19.996094 12.34375 19.945312 12.09375 19.875 C 12.023438 19.617188 11.984375 19.457031 12.066406 19.203125 C 13.089844 17.414062 14.917969 16.75 16.78125 17.8125 Z M 16.78125 17.8125 "/>
<path style=" stroke:none;fill-rule:nonzero;fill:rgb(23.137255%,14.117648%,22.745098%);fill-opacity:1;" d="M 6.585938 6.273438 C 6.640625 6.304688 6.695312 6.339844 6.75 6.375 C 6.75 6.558594 6.75 6.746094 6.75 6.9375 C 6.550781 7 6.550781 7 6.28125 7.03125 C 6.152344 6.964844 6.152344 6.964844 6.023438 6.898438 C 5.507812 6.648438 5.0625 6.6875 4.527344 6.859375 C 4.28125 6.996094 4.128906 7.105469 3.925781 7.289062 C 3.65625 7.5 3.65625 7.5 3.386719 7.484375 C 3.320312 7.457031 3.253906 7.433594 3.1875 7.40625 C 3.117188 7.195312 3.117188 7.195312 3.09375 6.9375 C 3.964844 5.792969 5.367188 5.574219 6.585938 6.273438 Z M 6.585938 6.273438 "/>
<path style=" stroke:none;fill-rule:nonzero;fill:rgb(23.529412%,14.509805%,22.745098%);fill-opacity:1;" d="M 12.414062 5.289062 C 12.65625 5.4375 12.65625 5.4375 12.75 5.675781 C 12.75 5.789062 12.75 5.789062 12.75 5.90625 C 12.6875 5.96875 12.625 6.03125 12.5625 6.09375 C 12.242188 6.070312 11.96875 6.027344 11.671875 5.902344 C 11.238281 5.738281 10.882812 5.777344 10.449219 5.925781 C 10.191406 6.058594 10.039062 6.160156 9.832031 6.351562 C 9.5625 6.5625 9.5625 6.5625 9.292969 6.542969 C 9.226562 6.519531 9.160156 6.496094 9.09375 6.46875 C 9.023438 6.257812 9.023438 6.257812 9 6 C 9.925781 4.78125 11.105469 4.808594 12.414062 5.289062 Z M 12.414062 5.289062 "/>
<path style=" stroke:none;fill-rule:nonzero;fill:rgb(24.705882%,12.941177%,20.392157%);fill-opacity:1;" d="M 12.09375 11.71875 C 12.585938 11.730469 12.820312 11.921875 13.160156 12.246094 C 13.460938 12.5 13.78125 12.488281 14.15625 12.484375 C 14.398438 12.464844 14.589844 12.375 14.8125 12.28125 C 15.121094 12.269531 15.121094 12.269531 15.375 12.28125 C 15.421875 12.558594 15.421875 12.558594 15.46875 12.84375 C 14.765625 13.261719 14.234375 13.394531 13.40625 13.3125 C 12.800781 13.136719 12.355469 12.707031 11.90625 12.28125 C 11.988281 11.824219 11.988281 11.824219 12.09375 11.71875 Z M 12.09375 11.71875 "/>
<path style=" stroke:none;fill-rule:nonzero;fill:rgb(25.098041%,13.333334%,20.392157%);fill-opacity:1;" d="M 17.625 12.84375 C 17.882812 12.816406 17.882812 12.816406 18.1875 12.84375 C 18.316406 12.996094 18.441406 13.152344 18.5625 13.3125 C 19.085938 13.621094 19.488281 13.621094 20.0625 13.5 C 20.15625 13.46875 20.25 13.4375 20.34375 13.40625 C 20.5625 13.402344 20.78125 13.402344 21 13.40625 C 21.046875 13.636719 21.046875 13.636719 21.09375 13.875 C 20.574219 14.332031 19.953125 14.5 19.273438 14.476562 C 18.597656 14.367188 18.035156 14.007812 17.617188 13.472656 C 17.53125 13.3125 17.53125 13.3125 17.542969 13.035156 C 17.570312 12.972656 17.597656 12.910156 17.625 12.84375 Z M 17.625 12.84375 "/>
<path style=" stroke:none;fill-rule:nonzero;fill:rgb(87.843138%,53.333336%,9.019608%);fill-opacity:1;" d="M 5.71875 12.375 C 5.90625 12.421875 6.09375 12.46875 6.28125 12.515625 C 6.832031 12.652344 7.363281 12.695312 7.925781 12.714844 C 8.054688 12.71875 8.054688 12.71875 8.1875 12.726562 C 8.394531 12.734375 8.605469 12.742188 8.8125 12.75 C 8.8125 13.121094 8.8125 13.492188 8.8125 13.875 C 7.910156 13.941406 7.199219 13.75 6.472656 13.195312 C 5.855469 12.644531 5.855469 12.644531 5.71875 12.375 Z M 5.71875 12.375 "/>
<path style=" stroke:none;fill-rule:nonzero;fill:rgb(96.470588%,87.450981%,86.666667%);fill-opacity:1;" d="M 16.234375 18.34375 C 16.660156 18.65625 17.0625 18.960938 17.15625 19.5 C 17.039062 19.441406 17.039062 19.441406 16.917969 19.382812 C 16.757812 19.308594 16.757812 19.308594 16.59375 19.230469 C 16.488281 19.179688 16.382812 19.128906 16.277344 19.078125 C 15.582031 18.789062 14.992188 18.722656 14.25 18.738281 C 14.167969 18.738281 14.085938 18.738281 14.003906 18.742188 C 13.804688 18.742188 13.605469 18.746094 13.40625 18.75 C 14.121094 17.988281 15.316406 17.804688 16.234375 18.34375 Z M 16.234375 18.34375 "/>
<path style=" stroke:none;fill-rule:nonzero;fill:rgb(94.117647%,58.823532%,12.941177%);fill-opacity:1;" d="M 6.46875 12.65625 C 7.242188 12.6875 8.015625 12.71875 8.8125 12.75 C 8.8125 12.964844 8.8125 13.183594 8.8125 13.40625 C 8.160156 13.59375 7.492188 13.300781 6.898438 13.015625 C 6.753906 12.933594 6.609375 12.84375 6.46875 12.75 C 6.46875 12.71875 6.46875 12.6875 6.46875 12.65625 Z M 6.46875 12.65625 "/>
</g>
</svg>
