<?xml version="1.0" encoding="UTF-8"?>
<svg xmlns="http://www.w3.org/2000/svg" xmlns:xlink="http://www.w3.org/1999/xlink" width="24" height="24" viewBox="0 0 24 24" version="1.1">
<g id="surface1">
<path style=" stroke:none;fill-rule:nonzero;fill:rgb(0%,0%,0%);fill-opacity:1;" d="M 10.335938 8.078125 C 11.085938 8.84375 11.90625 9.847656 11.90625 10.96875 C 12.023438 10.96875 12.140625 10.964844 12.261719 10.964844 C 13.367188 10.957031 14.472656 10.949219 15.582031 10.945312 C 16.148438 10.941406 16.71875 10.9375 17.289062 10.933594 C 17.835938 10.929688 18.386719 10.925781 18.933594 10.925781 C 19.144531 10.921875 19.351562 10.921875 19.5625 10.917969 C 19.855469 10.914062 20.148438 10.914062 20.441406 10.914062 C 20.527344 10.914062 20.613281 10.914062 20.703125 10.910156 C 21.113281 10.914062 21.382812 10.933594 21.707031 11.195312 C 22.019531 11.523438 22.066406 11.71875 22.066406 12.179688 C 22.003906 12.527344 21.8125 12.695312 21.5625 12.9375 C 21.3125 13.0625 21.121094 13.042969 20.84375 13.039062 C 20.6875 13.039062 20.6875 13.039062 20.527344 13.039062 C 20.414062 13.039062 20.304688 13.039062 20.191406 13.039062 C 20.082031 13.035156 19.96875 13.035156 19.855469 13.035156 C 19.582031 13.035156 19.304688 13.03125 19.03125 13.03125 C 19.035156 13.097656 19.035156 13.167969 19.039062 13.238281 C 19.046875 13.546875 19.054688 13.859375 19.058594 14.167969 C 19.066406 14.328125 19.066406 14.328125 19.074219 14.492188 C 19.085938 15.382812 19.085938 15.382812 18.808594 15.726562 C 18.472656 16.015625 18.269531 16.070312 17.824219 16.066406 C 17.472656 16.003906 17.304688 15.8125 17.0625 15.5625 C 16.9375 15.3125 16.957031 15.125 16.960938 14.84375 C 16.960938 14.738281 16.960938 14.632812 16.960938 14.523438 C 16.960938 14.414062 16.960938 14.304688 16.964844 14.191406 C 16.964844 14.078125 16.964844 13.96875 16.964844 13.855469 C 16.964844 13.582031 16.96875 13.304688 16.96875 13.03125 C 16.660156 13.03125 16.351562 13.03125 16.03125 13.03125 C 16.035156 13.097656 16.035156 13.167969 16.039062 13.238281 C 16.046875 13.546875 16.054688 13.859375 16.058594 14.167969 C 16.066406 14.328125 16.066406 14.328125 16.074219 14.492188 C 16.085938 15.382812 16.085938 15.382812 15.808594 15.726562 C 15.472656 16.015625 15.269531 16.070312 14.824219 16.066406 C 14.472656 16.003906 14.304688 15.8125 14.0625 15.5625 C 13.9375 15.3125 13.957031 15.125 13.960938 14.84375 C 13.960938 14.6875 13.960938 14.6875 13.960938 14.523438 C 13.960938 14.359375 13.960938 14.359375 13.964844 14.191406 C 13.964844 14.078125 13.964844 13.96875 13.964844 13.855469 C 13.964844 13.582031 13.96875 13.304688 13.96875 13.03125 C 13.289062 13.03125 12.609375 13.03125 11.90625 13.03125 C 11.875 13.246094 11.84375 13.464844 11.8125 13.6875 C 11.273438 15.078125 10.382812 16.027344 9.042969 16.675781 C 7.703125 17.238281 6.320312 17.171875 4.96875 16.6875 C 3.734375 16.136719 2.847656 15.222656 2.324219 13.976562 C 1.816406 12.632812 1.789062 11.191406 2.363281 9.859375 C 2.984375 8.625 3.992188 7.671875 5.296875 7.199219 C 7.136719 6.625 8.761719 7.019531 10.335938 8.078125 Z M 10.335938 8.078125 "/>
<path style=" stroke:none;fill-rule:nonzero;fill:rgb(96.862745%,6.666667%,15.294118%);fill-opacity:1;" d="M 8.71875 9.46875 C 9.390625 9.972656 9.867188 10.703125 10.03125 11.53125 C 10.109375 12.320312 9.953125 13.0625 9.492188 13.710938 C 8.898438 14.433594 8.246094 14.921875 7.296875 15.035156 C 6.382812 15.070312 5.707031 14.867188 4.992188 14.296875 C 4.324219 13.652344 3.980469 12.933594 3.960938 12 C 3.980469 11.066406 4.324219 10.347656 4.992188 9.703125 C 6.121094 8.800781 7.46875 8.734375 8.71875 9.46875 Z M 8.71875 9.46875 "/>
</g>
</svg>
