<?xml version="1.0" encoding="UTF-8"?>
<svg xmlns="http://www.w3.org/2000/svg" xmlns:xlink="http://www.w3.org/1999/xlink" width="24" height="24" viewBox="0 0 24 24" version="1.1">
<g id="surface1">
<path style=" stroke:none;fill-rule:nonzero;fill:rgb(4.313726%,41.176471%,75.686276%);fill-opacity:1;" d="M 10.507812 0.617188 C 10.625 0.613281 10.746094 0.613281 10.867188 0.613281 C 11.113281 0.613281 11.363281 0.613281 11.613281 0.613281 C 11.929688 0.617188 12.246094 0.613281 12.5625 0.609375 C 12.867188 0.609375 13.171875 0.609375 13.480469 0.609375 C 13.59375 0.609375 13.707031 0.609375 13.820312 0.605469 C 14.542969 0.613281 15.09375 0.679688 15.640625 1.191406 C 15.675781 1.242188 15.707031 1.292969 15.746094 1.347656 C 15.796875 1.421875 15.796875 1.421875 15.851562 1.503906 C 16.125 2.097656 16.046875 2.820312 16.050781 3.457031 C 16.050781 3.5625 16.050781 3.671875 16.050781 3.78125 C 16.054688 4.503906 16.046875 5.128906 15.636719 5.75 C 15.109375 6.253906 14.636719 6.3125 13.925781 6.304688 C 13.835938 6.304688 13.742188 6.300781 13.644531 6.296875 C 13.550781 6.296875 13.457031 6.296875 13.359375 6.296875 C 13.125 6.292969 12.890625 6.285156 12.65625 6.28125 C 12.65625 6.867188 12.65625 7.457031 12.65625 8.0625 C 12.933594 8.0625 13.214844 8.0625 13.5 8.0625 C 13.941406 8.167969 14.261719 8.402344 14.53125 8.765625 C 14.71875 9.1875 14.71875 9.1875 14.71875 10.3125 C 15.679688 10.3125 16.636719 10.3125 17.625 10.3125 C 17.625 9.972656 17.625 9.632812 17.625 9.28125 C 17.789062 8.777344 18.125 8.445312 18.5625 8.15625 C 19.074219 7.984375 19.636719 8.039062 20.167969 8.035156 C 20.300781 8.035156 20.433594 8.03125 20.566406 8.03125 C 21.324219 8.011719 21.945312 8.003906 22.59375 8.4375 C 23.183594 9.027344 23.183594 9.691406 23.1875 10.480469 C 23.1875 10.542969 23.1875 10.605469 23.1875 10.671875 C 23.183594 10.863281 23.1875 11.054688 23.191406 11.242188 C 23.191406 12.652344 23.191406 12.652344 22.714844 13.222656 C 22.660156 13.265625 22.605469 13.308594 22.546875 13.351562 C 22.492188 13.398438 22.4375 13.441406 22.378906 13.488281 C 22.113281 13.660156 21.871094 13.703125 21.5625 13.71875 C 21.453125 13.722656 21.453125 13.722656 21.347656 13.730469 C 21.273438 13.734375 21.199219 13.738281 21.121094 13.742188 C 21.046875 13.746094 20.972656 13.75 20.898438 13.753906 C 20.710938 13.761719 20.527344 13.773438 20.34375 13.78125 C 20.136719 14.238281 19.925781 14.691406 19.71875 15.148438 C 19.648438 15.300781 19.578125 15.457031 19.503906 15.609375 C 19.402344 15.835938 19.300781 16.058594 19.199219 16.28125 C 19.167969 16.347656 19.136719 16.417969 19.105469 16.488281 C 18.917969 16.894531 18.738281 17.304688 18.5625 17.71875 C 18.65625 17.71875 18.75 17.722656 18.84375 17.726562 C 19.324219 17.792969 19.660156 18.109375 19.96875 18.46875 C 20.167969 18.863281 20.183594 19.230469 20.183594 19.660156 C 20.183594 19.730469 20.183594 19.796875 20.183594 19.867188 C 20.1875 20.015625 20.1875 20.160156 20.1875 20.304688 C 20.183594 20.523438 20.1875 20.746094 20.191406 20.964844 C 20.191406 21.105469 20.191406 21.25 20.191406 21.390625 C 20.191406 21.453125 20.191406 21.519531 20.191406 21.585938 C 20.1875 22.101562 20.0625 22.480469 19.714844 22.863281 C 19.660156 22.90625 19.605469 22.953125 19.546875 23 C 19.492188 23.042969 19.4375 23.089844 19.378906 23.136719 C 18.898438 23.476562 18.242188 23.367188 17.675781 23.371094 C 17.535156 23.371094 17.398438 23.375 17.261719 23.378906 C 15.828125 23.40625 15.828125 23.40625 15.1875 22.96875 C 14.875 22.65625 14.726562 22.367188 14.625 21.9375 C 14.625 21.691406 14.625 21.441406 14.625 21.1875 C 12.890625 21.1875 11.160156 21.1875 9.375 21.1875 C 9.375 21.433594 9.375 21.683594 9.375 21.9375 C 9.296875 22.351562 9.144531 22.675781 8.824219 22.957031 C 8.164062 23.40625 7.546875 23.375 6.777344 23.375 C 6.570312 23.375 6.363281 23.375 6.15625 23.378906 C 6.023438 23.378906 5.890625 23.378906 5.757812 23.378906 C 5.636719 23.378906 5.519531 23.378906 5.394531 23.378906 C 4.882812 23.324219 4.515625 23.132812 4.191406 22.734375 C 4.144531 22.679688 4.097656 22.625 4.050781 22.566406 C 3.800781 22.210938 3.828125 21.835938 3.824219 21.417969 C 3.824219 21.351562 3.824219 21.28125 3.824219 21.210938 C 3.820312 21.066406 3.820312 20.917969 3.820312 20.773438 C 3.820312 20.550781 3.816406 20.328125 3.816406 20.105469 C 3.8125 19.964844 3.8125 19.820312 3.8125 19.679688 C 3.8125 19.613281 3.8125 19.546875 3.808594 19.480469 C 3.8125 18.964844 3.9375 18.597656 4.269531 18.203125 C 4.320312 18.160156 4.371094 18.117188 4.425781 18.070312 C 4.472656 18.023438 4.523438 17.980469 4.574219 17.933594 C 4.875 17.757812 5.191406 17.707031 5.53125 17.625 C 5.484375 17.511719 5.441406 17.398438 5.394531 17.285156 C 5.226562 16.867188 5.058594 16.449219 4.890625 16.03125 C 4.816406 15.851562 4.746094 15.671875 4.671875 15.492188 C 4.566406 15.230469 4.464844 14.972656 4.359375 14.714844 C 4.328125 14.632812 4.292969 14.550781 4.261719 14.46875 C 4.230469 14.394531 4.199219 14.316406 4.167969 14.242188 C 4.140625 14.175781 4.117188 14.109375 4.089844 14.039062 C 4.03125 13.875 4.03125 13.875 4.03125 13.6875 C 3.976562 13.6875 3.917969 13.691406 3.859375 13.695312 C 3.605469 13.703125 3.347656 13.707031 3.089844 13.710938 C 3 13.714844 2.910156 13.71875 2.820312 13.722656 C 2.230469 13.726562 1.886719 13.660156 1.40625 13.3125 C 0.777344 12.667969 0.8125 11.929688 0.8125 11.078125 C 0.816406 10.886719 0.8125 10.699219 0.808594 10.507812 C 0.808594 9.074219 0.808594 9.074219 1.25 8.578125 C 1.898438 7.996094 2.578125 8.03125 3.398438 8.03125 C 3.597656 8.03125 3.796875 8.03125 3.996094 8.027344 C 4.125 8.027344 4.25 8.027344 4.378906 8.027344 C 4.496094 8.027344 4.609375 8.027344 4.730469 8.027344 C 5.179688 8.074219 5.554688 8.199219 5.902344 8.503906 C 5.945312 8.558594 5.988281 8.617188 6.035156 8.671875 C 6.082031 8.726562 6.125 8.78125 6.171875 8.839844 C 6.496094 9.320312 6.375 9.671875 6.375 10.3125 C 7.335938 10.3125 8.292969 10.3125 9.28125 10.3125 C 9.28125 9.941406 9.28125 9.570312 9.28125 9.1875 C 9.519531 8.648438 9.75 8.382812 10.269531 8.117188 C 10.5 8.0625 10.5 8.0625 11.34375 8.0625 C 11.34375 7.472656 11.34375 6.886719 11.34375 6.28125 C 11.132812 6.289062 11.132812 6.289062 10.917969 6.292969 C 10.734375 6.296875 10.546875 6.300781 10.359375 6.304688 C 10.222656 6.308594 10.222656 6.308594 10.078125 6.316406 C 9.355469 6.324219 8.839844 6.199219 8.308594 5.695312 C 7.902344 5.007812 7.941406 4.246094 7.945312 3.46875 C 7.945312 3.308594 7.945312 3.308594 7.945312 3.144531 C 7.945312 2.429688 7.957031 1.804688 8.363281 1.1875 C 9 0.578125 9.664062 0.613281 10.507812 0.617188 Z M 6.375 11.625 C 6.3125 11.996094 6.25 12.367188 6.1875 12.75 C 5.769531 13.335938 5.769531 13.335938 5.4375 13.5 C 5.671875 14.410156 6.039062 15.269531 6.394531 16.136719 C 6.453125 16.289062 6.515625 16.445312 6.578125 16.597656 C 6.730469 16.972656 6.878906 17.34375 7.03125 17.71875 C 7.101562 17.722656 7.171875 17.730469 7.242188 17.734375 C 7.335938 17.742188 7.425781 17.75 7.519531 17.757812 C 7.613281 17.761719 7.703125 17.769531 7.796875 17.777344 C 8.316406 17.847656 8.675781 18.042969 9.035156 18.421875 C 9.1875 18.75 9.1875 18.75 9.375 19.875 C 11.109375 19.875 12.839844 19.875 14.625 19.875 C 14.6875 19.503906 14.75 19.132812 14.8125 18.75 C 15.019531 18.308594 15.261719 18.082031 15.703125 17.890625 C 15.980469 17.800781 16.234375 17.777344 16.527344 17.757812 C 16.625 17.75 16.726562 17.742188 16.832031 17.734375 C 16.945312 17.726562 16.945312 17.726562 17.0625 17.71875 C 17.226562 17.367188 17.390625 17.019531 17.550781 16.667969 C 17.605469 16.550781 17.664062 16.433594 17.71875 16.3125 C 18.019531 15.667969 18.320312 15.015625 18.601562 14.363281 C 18.648438 14.253906 18.695312 14.148438 18.742188 14.039062 C 18.855469 13.796875 18.855469 13.796875 18.84375 13.59375 C 18.761719 13.558594 18.679688 13.523438 18.589844 13.488281 C 18.214844 13.277344 18.042969 13.117188 17.8125 12.75 C 17.71875 12.191406 17.71875 12.191406 17.625 11.625 C 16.664062 11.625 15.707031 11.625 14.71875 11.625 C 14.65625 12.027344 14.59375 12.429688 14.53125 12.84375 C 14.105469 13.375 13.832031 13.554688 13.160156 13.632812 C 12.460938 13.636719 12.460938 13.636719 12.210938 13.636719 C 12.007812 13.632812 11.804688 13.636719 11.601562 13.640625 C 10.894531 13.644531 10.34375 13.628906 9.75 13.21875 C 9.320312 12.667969 9.355469 12.382812 9.28125 11.625 C 8.320312 11.625 7.363281 11.625 6.375 11.625 Z M 6.375 11.625 "/>
<path style=" stroke:none;fill-rule:nonzero;fill:rgb(82.745099%,12.54902%,19.607843%);fill-opacity:1;" d="M 20.167969 8.035156 C 20.300781 8.035156 20.433594 8.03125 20.566406 8.027344 C 21.324219 8.011719 21.945312 8.003906 22.59375 8.4375 C 23.183594 9.027344 23.183594 9.691406 23.1875 10.480469 C 23.1875 10.542969 23.1875 10.605469 23.1875 10.671875 C 23.1875 10.863281 23.1875 11.050781 23.191406 11.242188 C 23.191406 12.652344 23.191406 12.652344 22.714844 13.222656 C 22.660156 13.265625 22.605469 13.308594 22.546875 13.351562 C 22.492188 13.398438 22.4375 13.441406 22.378906 13.488281 C 22.113281 13.660156 21.871094 13.699219 21.5625 13.71875 C 21.488281 13.722656 21.417969 13.726562 21.347656 13.730469 C 21.273438 13.734375 21.199219 13.738281 21.125 13.742188 C 21.011719 13.746094 21.011719 13.746094 20.898438 13.753906 C 20.710938 13.761719 20.527344 13.773438 20.34375 13.78125 C 20.136719 14.238281 19.925781 14.691406 19.71875 15.148438 C 19.648438 15.300781 19.578125 15.457031 19.507812 15.609375 C 19.402344 15.832031 19.300781 16.058594 19.199219 16.28125 C 19.167969 16.347656 19.136719 16.417969 19.105469 16.488281 C 18.917969 16.894531 18.738281 17.304688 18.5625 17.71875 C 18.65625 17.722656 18.746094 17.722656 18.84375 17.726562 C 19.324219 17.792969 19.660156 18.109375 19.96875 18.46875 C 20.167969 18.863281 20.183594 19.230469 20.183594 19.660156 C 20.183594 19.765625 20.183594 19.765625 20.1875 19.867188 C 20.1875 20.015625 20.1875 20.160156 20.1875 20.304688 C 20.1875 20.523438 20.1875 20.746094 20.191406 20.964844 C 20.191406 21.105469 20.191406 21.246094 20.191406 21.390625 C 20.191406 21.453125 20.191406 21.519531 20.191406 21.585938 C 20.1875 22.101562 20.0625 22.484375 19.714844 22.863281 C 19.660156 22.90625 19.605469 22.953125 19.546875 23 C 19.492188 23.042969 19.4375 23.089844 19.378906 23.136719 C 18.898438 23.472656 18.242188 23.367188 17.675781 23.371094 C 17.539062 23.371094 17.398438 23.375 17.261719 23.378906 C 15.832031 23.40625 15.832031 23.40625 15.1875 22.96875 C 14.597656 22.378906 14.597656 21.714844 14.59375 20.925781 C 14.59375 20.863281 14.59375 20.800781 14.59375 20.734375 C 14.59375 20.542969 14.59375 20.355469 14.589844 20.164062 C 14.589844 18.730469 14.589844 18.730469 15.03125 18.234375 C 15.5 17.816406 15.914062 17.695312 16.53125 17.707031 C 16.628906 17.707031 16.730469 17.710938 16.832031 17.710938 C 16.910156 17.714844 16.984375 17.714844 17.0625 17.71875 C 17.085938 17.644531 17.109375 17.566406 17.132812 17.488281 C 17.273438 17.089844 17.441406 16.707031 17.617188 16.324219 C 17.652344 16.242188 17.6875 16.164062 17.722656 16.085938 C 17.835938 15.835938 17.945312 15.589844 18.058594 15.339844 C 18.132812 15.171875 18.210938 15 18.285156 14.832031 C 18.472656 14.417969 18.65625 14.007812 18.84375 13.59375 C 18.734375 13.574219 18.734375 13.574219 18.621094 13.558594 C 18.316406 13.484375 18.222656 13.375 18.023438 13.136719 C 17.96875 13.070312 17.914062 13.003906 17.855469 12.9375 C 17.589844 12.570312 17.609375 12.199219 17.605469 11.765625 C 17.605469 11.695312 17.605469 11.625 17.605469 11.554688 C 17.601562 11.410156 17.601562 11.261719 17.601562 11.117188 C 17.601562 10.894531 17.597656 10.671875 17.59375 10.449219 C 17.59375 10.308594 17.59375 10.164062 17.59375 10.023438 C 17.59375 9.957031 17.59375 9.890625 17.589844 9.824219 C 17.59375 9.308594 17.714844 8.929688 18.0625 8.542969 C 18.117188 8.5 18.171875 8.453125 18.226562 8.40625 C 18.308594 8.339844 18.308594 8.339844 18.390625 8.269531 C 18.898438 7.933594 19.582031 8.039062 20.167969 8.035156 Z M 20.167969 8.035156 "/>
<path style=" stroke:none;fill-rule:nonzero;fill:rgb(83.137256%,12.54902%,19.607843%);fill-opacity:1;" d="M 10.507812 0.617188 C 10.6875 0.613281 10.6875 0.613281 10.867188 0.613281 C 11.113281 0.613281 11.363281 0.613281 11.613281 0.613281 C 11.929688 0.617188 12.246094 0.613281 12.5625 0.609375 C 12.867188 0.609375 13.171875 0.609375 13.480469 0.609375 C 13.59375 0.609375 13.707031 0.609375 13.820312 0.605469 C 14.542969 0.613281 15.09375 0.679688 15.640625 1.191406 C 15.691406 1.269531 15.691406 1.269531 15.746094 1.347656 C 15.78125 1.398438 15.816406 1.449219 15.851562 1.503906 C 16.125 2.097656 16.046875 2.820312 16.050781 3.457031 C 16.050781 3.5625 16.050781 3.671875 16.050781 3.78125 C 16.054688 4.503906 16.046875 5.128906 15.636719 5.75 C 15.109375 6.253906 14.636719 6.3125 13.925781 6.304688 C 13.835938 6.304688 13.742188 6.300781 13.644531 6.296875 C 13.550781 6.296875 13.457031 6.296875 13.359375 6.296875 C 13.125 6.292969 12.890625 6.285156 12.65625 6.28125 C 12.65625 6.867188 12.65625 7.457031 12.65625 8.0625 C 12.222656 8.0625 11.789062 8.0625 11.34375 8.0625 C 11.34375 7.472656 11.34375 6.886719 11.34375 6.28125 C 11.132812 6.289062 11.132812 6.289062 10.917969 6.292969 C 10.734375 6.296875 10.546875 6.300781 10.359375 6.304688 C 10.222656 6.308594 10.222656 6.308594 10.078125 6.316406 C 9.355469 6.324219 8.839844 6.199219 8.308594 5.695312 C 7.902344 5.007812 7.941406 4.246094 7.945312 3.46875 C 7.945312 3.363281 7.945312 3.253906 7.945312 3.144531 C 7.945312 2.429688 7.957031 1.804688 8.363281 1.1875 C 9 0.578125 9.664062 0.613281 10.507812 0.617188 Z M 10.507812 0.617188 "/>
<path style=" stroke:none;fill-rule:nonzero;fill:rgb(4.705882%,41.960785%,76.47059%);fill-opacity:1;" d="M 11.796875 8.011719 C 12 8.015625 12.203125 8.011719 12.40625 8.011719 C 13.203125 8.011719 13.816406 8.039062 14.425781 8.597656 C 14.824219 9.230469 14.71875 9.453125 14.71875 10.3125 C 15.707031 10.3125 16.699219 10.3125 17.71875 10.3125 C 17.71875 10.746094 17.71875 11.179688 17.71875 11.625 C 16.726562 11.625 15.738281 11.625 14.71875 11.625 C 14.71875 11.933594 14.71875 12.242188 14.71875 12.5625 C 14.503906 13.074219 14.265625 13.328125 13.78125 13.59375 C 13.285156 13.757812 12.753906 13.710938 12.238281 13.714844 C 12.101562 13.714844 11.960938 13.71875 11.824219 13.722656 C 10.390625 13.75 10.390625 13.75 9.75 13.3125 C 9.210938 12.746094 9.28125 12.464844 9.28125 11.625 C 8.320312 11.625 7.363281 11.625 6.375 11.625 C 6.375 11.191406 6.375 10.757812 6.375 10.3125 C 7.332031 10.3125 8.292969 10.3125 9.28125 10.3125 C 9.28125 9.941406 9.28125 9.570312 9.28125 9.1875 C 9.519531 8.65625 9.707031 8.394531 10.25 8.136719 C 10.75 7.988281 11.277344 8.007812 11.796875 8.011719 Z M 11.796875 8.011719 "/>
<path style=" stroke:none;fill-rule:nonzero;fill:rgb(96.862745%,60.000002%,26.666668%);fill-opacity:1;" d="M 3.398438 8.03125 C 3.597656 8.03125 3.796875 8.03125 3.996094 8.027344 C 4.121094 8.027344 4.25 8.027344 4.378906 8.027344 C 4.492188 8.027344 4.609375 8.027344 4.726562 8.027344 C 5.179688 8.074219 5.554688 8.199219 5.902344 8.503906 C 5.945312 8.558594 5.992188 8.613281 6.035156 8.671875 C 6.082031 8.726562 6.125 8.78125 6.171875 8.839844 C 6.414062 9.199219 6.390625 9.570312 6.394531 9.988281 C 6.394531 10.054688 6.394531 10.125 6.394531 10.195312 C 6.394531 10.339844 6.398438 10.488281 6.398438 10.632812 C 6.398438 10.855469 6.402344 11.078125 6.40625 11.300781 C 6.40625 11.441406 6.40625 11.585938 6.40625 11.726562 C 6.40625 11.792969 6.410156 11.859375 6.410156 11.925781 C 6.40625 12.441406 6.285156 12.820312 5.9375 13.207031 C 5.882812 13.25 5.828125 13.296875 5.773438 13.34375 C 5.691406 13.410156 5.691406 13.410156 5.609375 13.480469 C 5.089844 13.824219 4.382812 13.710938 3.789062 13.714844 C 3.648438 13.714844 3.511719 13.71875 3.371094 13.722656 C 3.171875 13.726562 2.96875 13.726562 2.769531 13.726562 C 2.589844 13.730469 2.589844 13.730469 2.40625 13.730469 C 1.894531 13.667969 1.554688 13.464844 1.1875 13.089844 C 0.78125 12.457031 0.8125 11.808594 0.8125 11.078125 C 0.8125 10.886719 0.8125 10.699219 0.808594 10.507812 C 0.808594 9.074219 0.808594 9.074219 1.25 8.578125 C 1.898438 7.996094 2.574219 8.03125 3.398438 8.03125 Z M 3.398438 8.03125 "/>
<path style=" stroke:none;fill-rule:nonzero;fill:rgb(96.862745%,60.000002%,26.666668%);fill-opacity:1;" d="M 20.167969 8.035156 C 20.300781 8.035156 20.433594 8.03125 20.566406 8.027344 C 21.324219 8.011719 21.945312 8.003906 22.59375 8.4375 C 23.183594 9.027344 23.183594 9.691406 23.1875 10.480469 C 23.1875 10.574219 23.1875 10.574219 23.1875 10.671875 C 23.1875 10.863281 23.1875 11.050781 23.191406 11.242188 C 23.191406 12.652344 23.191406 12.652344 22.714844 13.222656 C 22.660156 13.265625 22.605469 13.308594 22.546875 13.351562 C 22.492188 13.398438 22.4375 13.441406 22.378906 13.488281 C 22.023438 13.722656 21.664062 13.703125 21.253906 13.707031 C 21.1875 13.707031 21.117188 13.707031 21.050781 13.707031 C 20.910156 13.710938 20.765625 13.710938 20.625 13.710938 C 20.410156 13.710938 20.195312 13.714844 19.980469 13.71875 C 19.839844 13.71875 19.703125 13.71875 19.566406 13.71875 C 19.5 13.71875 19.4375 13.722656 19.371094 13.722656 C 18.859375 13.71875 18.484375 13.59375 18.105469 13.246094 C 18.0625 13.191406 18.015625 13.136719 17.96875 13.078125 C 17.925781 13.023438 17.878906 12.96875 17.832031 12.910156 C 17.582031 12.554688 17.609375 12.179688 17.605469 11.765625 C 17.605469 11.695312 17.605469 11.625 17.605469 11.554688 C 17.601562 11.410156 17.601562 11.261719 17.601562 11.117188 C 17.601562 10.894531 17.597656 10.671875 17.59375 10.449219 C 17.59375 10.308594 17.59375 10.164062 17.59375 10.023438 C 17.59375 9.957031 17.59375 9.890625 17.589844 9.824219 C 17.59375 9.308594 17.714844 8.929688 18.0625 8.542969 C 18.117188 8.5 18.171875 8.453125 18.226562 8.40625 C 18.28125 8.363281 18.335938 8.316406 18.390625 8.269531 C 18.898438 7.933594 19.582031 8.039062 20.167969 8.035156 Z M 20.167969 8.035156 "/>
<path style=" stroke:none;fill-rule:nonzero;fill:rgb(90.980393%,15.686275%,22.745098%);fill-opacity:1;" d="M 10.679688 0.640625 C 10.808594 0.640625 10.9375 0.640625 11.066406 0.640625 C 11.378906 0.644531 11.6875 0.652344 12 0.65625 C 12 1.304688 12 1.957031 12 2.625 C 11.273438 2.660156 11.273438 2.660156 11.046875 2.671875 C 10.699219 2.6875 10.417969 2.707031 10.125 2.90625 C 9.945312 3.148438 9.9375 3.265625 9.960938 3.570312 C 10.019531 3.859375 10.019531 3.859375 10.21875 4.125 C 10.460938 4.207031 10.625 4.234375 10.875 4.25 C 10.941406 4.25 11.003906 4.253906 11.070312 4.257812 C 11.148438 4.261719 11.230469 4.269531 11.3125 4.273438 C 11.570312 4.285156 11.828125 4.296875 12.09375 4.3125 C 12.09375 4.929688 12.09375 5.550781 12.09375 6.1875 C 11.488281 6.265625 10.917969 6.304688 10.3125 6.3125 C 10.222656 6.3125 10.136719 6.316406 10.042969 6.320312 C 9.339844 6.324219 8.828125 6.1875 8.308594 5.695312 C 7.902344 5.003906 7.941406 4.246094 7.945312 3.46875 C 7.945312 3.363281 7.945312 3.253906 7.941406 3.144531 C 7.945312 2.425781 7.957031 1.804688 8.359375 1.191406 C 9.042969 0.535156 9.785156 0.621094 10.679688 0.640625 Z M 10.679688 0.640625 "/>
<path style=" stroke:none;fill-rule:nonzero;fill:rgb(5.882353%,54.11765%,87.843138%);fill-opacity:1;" d="M 12 8.15625 C 12 8.773438 12 9.394531 12 10.03125 C 11.722656 10.0625 11.441406 10.09375 11.15625 10.125 C 10.859375 10.257812 10.859375 10.257812 10.6875 10.5 C 10.613281 10.90625 10.636719 11.082031 10.871094 11.425781 C 11.214844 11.699219 11.214844 11.699219 12 11.71875 C 12 12.367188 12 13.019531 12 13.6875 C 10.355469 13.742188 10.355469 13.742188 9.75 13.3125 C 9.210938 12.746094 9.28125 12.46875 9.28125 11.625 C 8.320312 11.625 7.363281 11.625 6.375 11.625 C 6.375 11.191406 6.375 10.757812 6.375 10.3125 C 7.335938 10.3125 8.292969 10.3125 9.28125 10.3125 C 9.28125 9.941406 9.28125 9.570312 9.28125 9.1875 C 9.519531 8.652344 9.753906 8.351562 10.296875 8.121094 C 10.867188 7.957031 11.421875 8.074219 12 8.15625 Z M 12 8.15625 "/>
<path style=" stroke:none;fill-rule:nonzero;fill:rgb(98.039216%,72.941178%,32.549021%);fill-opacity:1;" d="M 20.34375 8.0625 C 20.34375 9.886719 20.34375 11.714844 20.34375 13.59375 C 18.5625 13.59375 18.5625 13.59375 18.089844 13.292969 C 17.664062 12.835938 17.597656 12.351562 17.597656 11.746094 C 17.597656 11.675781 17.597656 11.609375 17.597656 11.535156 C 17.59375 11.390625 17.59375 11.246094 17.59375 11.101562 C 17.597656 10.882812 17.59375 10.660156 17.589844 10.441406 C 17.589844 10.300781 17.589844 10.15625 17.589844 10.015625 C 17.589844 9.953125 17.589844 9.886719 17.589844 9.820312 C 17.59375 9.304688 17.71875 8.925781 18.0625 8.542969 C 18.117188 8.5 18.171875 8.453125 18.230469 8.410156 C 18.28125 8.363281 18.335938 8.316406 18.390625 8.269531 C 18.960938 7.894531 19.710938 8.0625 20.34375 8.0625 Z M 20.34375 8.0625 "/>
<path style=" stroke:none;fill-rule:nonzero;fill:rgb(98.039216%,72.941178%,32.156864%);fill-opacity:1;" d="M 2.835938 8.042969 C 2.933594 8.042969 2.933594 8.042969 3.03125 8.046875 C 3.234375 8.046875 3.4375 8.046875 3.636719 8.050781 C 3.777344 8.050781 3.914062 8.050781 4.054688 8.054688 C 4.390625 8.054688 4.726562 8.058594 5.0625 8.0625 C 5.0625 8.09375 5.0625 8.125 5.0625 8.15625 C 4.597656 8.15625 4.132812 8.15625 3.65625 8.15625 C 3.65625 8.777344 3.65625 9.394531 3.65625 10.03125 C 3.378906 10.0625 3.097656 10.09375 2.8125 10.125 C 2.4375 10.265625 2.4375 10.265625 2.34375 10.5 C 2.296875 11.011719 2.296875 11.011719 2.472656 11.476562 C 2.855469 11.707031 3.214844 11.695312 3.65625 11.71875 C 3.65625 12.339844 3.65625 12.957031 3.65625 13.59375 C 3.78125 13.625 3.902344 13.65625 4.03125 13.6875 C 3.71875 13.699219 3.402344 13.703125 3.089844 13.710938 C 3 13.714844 2.910156 13.71875 2.820312 13.722656 C 2.230469 13.726562 1.886719 13.660156 1.40625 13.3125 C 0.777344 12.667969 0.8125 11.929688 0.8125 11.078125 C 0.816406 10.886719 0.8125 10.699219 0.808594 10.507812 C 0.808594 9.074219 0.808594 9.074219 1.25 8.578125 C 1.75 8.132812 2.183594 8.039062 2.835938 8.042969 Z M 2.835938 8.042969 "/>
<path style=" stroke:none;fill-rule:nonzero;fill:rgb(90.980393%,15.686275%,22.352941%);fill-opacity:1;" d="M 16.507812 17.703125 C 16.648438 17.703125 16.648438 17.703125 16.796875 17.703125 C 17.0625 17.71875 17.0625 17.71875 17.4375 17.8125 C 17.4375 18.429688 17.4375 19.050781 17.4375 19.6875 C 17.160156 19.71875 16.882812 19.75 16.59375 19.78125 C 16.21875 19.921875 16.21875 19.921875 16.125 20.15625 C 16.0625 20.6875 16.0625 20.6875 16.308594 21.132812 C 16.582031 21.273438 16.734375 21.308594 17.035156 21.335938 C 17.109375 21.34375 17.183594 21.351562 17.261719 21.359375 C 17.320312 21.363281 17.378906 21.371094 17.4375 21.375 C 17.441406 21.6875 17.441406 21.996094 17.445312 22.304688 C 17.445312 22.394531 17.445312 22.484375 17.445312 22.574219 C 17.445312 22.703125 17.445312 22.703125 17.445312 22.832031 C 17.445312 22.949219 17.445312 22.949219 17.449219 23.066406 C 17.4375 23.25 17.4375 23.25 17.34375 23.34375 C 15.808594 23.460938 15.808594 23.460938 15.1875 22.96875 C 14.597656 22.378906 14.597656 21.714844 14.59375 20.925781 C 14.59375 20.863281 14.59375 20.800781 14.59375 20.734375 C 14.59375 20.542969 14.59375 20.351562 14.589844 20.164062 C 14.589844 18.730469 14.589844 18.730469 15.03125 18.234375 C 15.488281 17.824219 15.90625 17.691406 16.507812 17.703125 Z M 16.507812 17.703125 "/>
<path style=" stroke:none;fill-rule:nonzero;fill:rgb(6.27451%,54.509807%,88.235295%);fill-opacity:1;" d="M 5.828125 17.757812 C 6.191406 17.785156 6.191406 17.785156 6.5625 17.8125 C 6.5625 18.429688 6.5625 19.050781 6.5625 19.6875 C 6.285156 19.71875 6.003906 19.75 5.71875 19.78125 C 5.394531 20.011719 5.273438 20.140625 5.191406 20.53125 C 5.273438 20.921875 5.394531 21.050781 5.71875 21.28125 C 5.996094 21.3125 6.273438 21.34375 6.5625 21.375 C 6.5625 22.023438 6.5625 22.675781 6.5625 23.34375 C 6.328125 23.347656 6.089844 23.355469 5.847656 23.359375 C 5.738281 23.363281 5.738281 23.363281 5.625 23.367188 C 5.101562 23.375 4.722656 23.269531 4.324219 22.902344 C 4.28125 22.847656 4.234375 22.792969 4.1875 22.734375 C 4.144531 22.679688 4.097656 22.625 4.050781 22.566406 C 3.800781 22.210938 3.828125 21.835938 3.824219 21.417969 C 3.824219 21.351562 3.824219 21.28125 3.824219 21.210938 C 3.820312 21.0625 3.820312 20.917969 3.820312 20.773438 C 3.820312 20.550781 3.816406 20.328125 3.8125 20.105469 C 3.8125 19.964844 3.8125 19.820312 3.8125 19.679688 C 3.8125 19.613281 3.8125 19.546875 3.808594 19.480469 C 3.8125 18.964844 3.933594 18.582031 4.285156 18.199219 C 4.339844 18.15625 4.398438 18.109375 4.453125 18.0625 C 4.507812 18.019531 4.5625 17.972656 4.621094 17.925781 C 5.003906 17.65625 5.386719 17.726562 5.828125 17.757812 Z M 5.828125 17.757812 "/>
<path style=" stroke:none;fill-rule:nonzero;fill:rgb(26.666668%,26.666668%,26.666668%);fill-opacity:1;" d="M 9.28125 19.875 C 11.074219 19.875 12.871094 19.875 14.71875 19.875 C 14.71875 20.308594 14.71875 20.742188 14.71875 21.1875 C 12.925781 21.1875 11.128906 21.1875 9.28125 21.1875 C 9.28125 20.753906 9.28125 20.320312 9.28125 19.875 Z M 9.28125 19.875 "/>
<path style=" stroke:none;fill-rule:nonzero;fill:rgb(26.666668%,26.666668%,26.666668%);fill-opacity:1;" d="M 19.179688 13.679688 C 19.320312 13.679688 19.460938 13.679688 19.597656 13.683594 C 19.671875 13.683594 19.742188 13.683594 19.816406 13.683594 C 19.992188 13.683594 20.167969 13.6875 20.34375 13.6875 C 19.761719 15.035156 19.167969 16.378906 18.5625 17.71875 C 18.066406 17.71875 17.574219 17.71875 17.0625 17.71875 C 17.273438 17.085938 17.273438 17.085938 17.40625 16.785156 C 17.4375 16.714844 17.46875 16.648438 17.496094 16.578125 C 17.527344 16.507812 17.5625 16.4375 17.59375 16.367188 C 17.625 16.292969 17.660156 16.21875 17.691406 16.140625 C 17.761719 15.988281 17.832031 15.832031 17.898438 15.675781 C 18.007812 15.4375 18.113281 15.199219 18.21875 14.960938 C 18.285156 14.8125 18.351562 14.660156 18.417969 14.507812 C 18.449219 14.4375 18.484375 14.367188 18.515625 14.292969 C 18.785156 13.6875 18.785156 13.6875 19.179688 13.679688 Z M 19.179688 13.679688 "/>
<path style=" stroke:none;fill-rule:nonzero;fill:rgb(27.058825%,27.058825%,27.058825%);fill-opacity:1;" d="M 5.53125 13.6875 C 5.699219 13.945312 5.796875 14.222656 5.90625 14.507812 C 5.9375 14.589844 5.96875 14.671875 6.003906 14.757812 C 6.074219 14.929688 6.140625 15.105469 6.207031 15.28125 C 6.308594 15.550781 6.414062 15.816406 6.519531 16.085938 C 6.585938 16.253906 6.652344 16.421875 6.71875 16.59375 C 6.75 16.671875 6.78125 16.753906 6.816406 16.835938 C 6.84375 16.910156 6.871094 16.984375 6.902344 17.0625 C 6.925781 17.128906 6.953125 17.195312 6.976562 17.261719 C 7.03125 17.4375 7.03125 17.4375 7.03125 17.71875 C 6.566406 17.71875 6.101562 17.71875 5.625 17.71875 C 5.273438 16.960938 4.949219 16.195312 4.640625 15.417969 C 4.5625 15.226562 4.484375 15.035156 4.40625 14.839844 C 4.359375 14.71875 4.308594 14.59375 4.261719 14.472656 C 4.21875 14.363281 4.171875 14.25 4.125 14.136719 C 4.03125 13.875 4.03125 13.875 4.03125 13.6875 C 4.195312 13.667969 4.355469 13.652344 4.519531 13.636719 C 4.609375 13.625 4.699219 13.617188 4.792969 13.605469 C 5.28125 13.585938 5.28125 13.585938 5.53125 13.6875 Z M 5.53125 13.6875 "/>
<path style=" stroke:none;fill-rule:nonzero;fill:rgb(97.254902%,59.607846%,26.274511%);fill-opacity:1;" d="M 3.640625 10 C 3.753906 10 3.753906 10 3.867188 9.992188 C 4.253906 9.988281 4.449219 10 4.78125 10.210938 C 5.003906 10.445312 5.054688 10.535156 5.09375 10.855469 C 5.054688 11.226562 4.945312 11.367188 4.6875 11.625 C 4.3125 11.75 3.96875 11.746094 3.574219 11.753906 C 3.460938 11.757812 3.460938 11.757812 3.347656 11.765625 C 2.9375 11.769531 2.769531 11.757812 2.433594 11.503906 C 2.15625 11.121094 2.183594 10.964844 2.25 10.5 C 2.640625 9.992188 3.035156 10.007812 3.640625 10 Z M 3.640625 10 "/>
<path style=" stroke:none;fill-rule:nonzero;fill:rgb(82.745099%,12.156863%,19.607843%);fill-opacity:1;" d="M 17.375 19.664062 C 17.445312 19.664062 17.515625 19.660156 17.589844 19.660156 C 18.023438 19.65625 18.300781 19.691406 18.65625 19.96875 C 18.851562 20.21875 18.84375 20.351562 18.835938 20.671875 C 18.730469 21.078125 18.636719 21.160156 18.28125 21.375 C 18 21.429688 17.730469 21.429688 17.445312 21.425781 C 17.371094 21.429688 17.296875 21.433594 17.21875 21.433594 C 16.835938 21.433594 16.574219 21.398438 16.261719 21.160156 C 16.03125 20.90625 16.03125 20.90625 15.964844 20.710938 C 15.980469 20.382812 16.007812 20.1875 16.207031 19.925781 C 16.585938 19.648438 16.917969 19.667969 17.375 19.664062 Z M 17.375 19.664062 "/>
<path style=" stroke:none;fill-rule:nonzero;fill:rgb(26.666668%,26.666668%,26.666668%);fill-opacity:1;" d="M 14.71875 10.3125 C 15.707031 10.3125 16.699219 10.3125 17.71875 10.3125 C 17.71875 10.746094 17.71875 11.179688 17.71875 11.625 C 16.730469 11.625 15.738281 11.625 14.71875 11.625 C 14.71875 11.191406 14.71875 10.757812 14.71875 10.3125 Z M 14.71875 10.3125 "/>
<path style=" stroke:none;fill-rule:nonzero;fill:rgb(26.666668%,26.666668%,26.666668%);fill-opacity:1;" d="M 6.375 10.3125 C 7.335938 10.3125 8.292969 10.3125 9.28125 10.3125 C 9.28125 10.746094 9.28125 11.179688 9.28125 11.625 C 8.320312 11.625 7.363281 11.625 6.375 11.625 C 6.375 11.191406 6.375 10.757812 6.375 10.3125 Z M 6.375 10.3125 "/>
<path style=" stroke:none;fill-rule:nonzero;fill:rgb(82.745099%,12.156863%,19.607843%);fill-opacity:1;" d="M 11.308594 2.617188 C 11.566406 2.621094 11.828125 2.621094 12.09375 2.625 C 12.09375 3.179688 12.09375 3.738281 12.09375 4.3125 C 11.839844 4.316406 11.585938 4.324219 11.328125 4.328125 C 11.246094 4.332031 11.167969 4.335938 11.085938 4.335938 C 10.65625 4.34375 10.378906 4.3125 10.03125 4.03125 C 9.882812 3.773438 9.839844 3.617188 9.855469 3.320312 C 10.113281 2.605469 10.648438 2.613281 11.308594 2.617188 Z M 11.308594 2.617188 "/>
<path style=" stroke:none;fill-rule:nonzero;fill:rgb(72.941178%,6.27451%,21.176471%);fill-opacity:1;" d="M 12.09375 2.625 C 12.332031 2.617188 12.570312 2.605469 12.816406 2.597656 C 12.890625 2.589844 12.960938 2.585938 13.039062 2.582031 C 13.429688 2.574219 13.554688 2.59375 13.871094 2.855469 C 13.933594 2.933594 13.996094 3.011719 14.0625 3.09375 C 14.09375 3.125 14.125 3.15625 14.15625 3.1875 C 14.125 3.609375 14.085938 3.914062 13.78125 4.21875 C 13.441406 4.332031 13.132812 4.324219 12.777344 4.316406 C 12.441406 4.316406 12.441406 4.316406 12.09375 4.3125 C 12.09375 3.753906 12.09375 3.199219 12.09375 2.625 Z M 12.09375 2.625 "/>
<path style=" stroke:none;fill-rule:nonzero;fill:rgb(26.666668%,26.666668%,26.666668%);fill-opacity:1;" d="M 11.34375 6.28125 C 11.777344 6.28125 12.210938 6.28125 12.65625 6.28125 C 12.65625 6.867188 12.65625 7.457031 12.65625 8.0625 C 12.222656 8.0625 11.789062 8.0625 11.34375 8.0625 C 11.34375 7.476562 11.34375 6.886719 11.34375 6.28125 Z M 11.34375 6.28125 "/>
<path style=" stroke:none;fill-rule:nonzero;fill:rgb(85.09804%,40.000001%,16.862746%);fill-opacity:1;" d="M 20.34375 10.03125 C 21.308594 10.03125 21.308594 10.03125 21.65625 10.3125 C 21.808594 10.617188 21.800781 10.921875 21.75 11.25 C 21.574219 11.53125 21.574219 11.53125 21.28125 11.71875 C 20.957031 11.757812 20.671875 11.742188 20.34375 11.71875 C 20.34375 11.160156 20.34375 10.605469 20.34375 10.03125 Z M 20.34375 10.03125 "/>
<path style=" stroke:none;fill-rule:nonzero;fill:rgb(4.705882%,42.352942%,76.47059%);fill-opacity:1;" d="M 6.5625 19.6875 C 6.5625 20.246094 6.5625 20.800781 6.5625 21.375 C 5.71875 21.375 5.71875 21.375 5.4375 21.199219 C 5.214844 20.960938 5.164062 20.871094 5.128906 20.550781 C 5.164062 20.179688 5.277344 20.042969 5.53125 19.78125 C 5.71875 19.6875 5.71875 19.6875 6.5625 19.6875 Z M 6.5625 19.6875 "/>
<path style=" stroke:none;fill-rule:nonzero;fill:rgb(97.647059%,60.392159%,26.666668%);fill-opacity:1;" d="M 20.34375 10.03125 C 20.34375 10.589844 20.34375 11.144531 20.34375 11.71875 C 19.5 11.71875 19.5 11.71875 19.21875 11.542969 C 18.996094 11.304688 18.945312 11.214844 18.910156 10.894531 C 18.945312 10.523438 19.058594 10.386719 19.3125 10.125 C 19.5 10.03125 19.5 10.03125 20.34375 10.03125 Z M 20.34375 10.03125 "/>
<path style=" stroke:none;fill-rule:nonzero;fill:rgb(3.137255%,35.686275%,71.372551%);fill-opacity:1;" d="M 12 10.03125 C 12.84375 10.03125 12.84375 10.03125 13.125 10.207031 C 13.347656 10.445312 13.398438 10.535156 13.433594 10.855469 C 13.398438 11.226562 13.285156 11.363281 13.03125 11.625 C 12.84375 11.71875 12.84375 11.71875 12 11.71875 C 12 11.160156 12 10.605469 12 10.03125 Z M 12 10.03125 "/>
<path style=" stroke:none;fill-rule:nonzero;fill:rgb(85.09804%,39.607844%,16.470589%);fill-opacity:1;" d="M 3.65625 10.03125 C 4.5 10.03125 4.5 10.03125 4.78125 10.207031 C 5.003906 10.445312 5.054688 10.535156 5.089844 10.855469 C 5.054688 11.226562 4.945312 11.367188 4.6875 11.625 C 4.40625 11.71875 4.40625 11.71875 3.65625 11.71875 C 3.65625 11.160156 3.65625 10.605469 3.65625 10.03125 Z M 3.65625 10.03125 "/>
<path style=" stroke:none;fill-rule:nonzero;fill:rgb(72.941178%,6.27451%,21.176471%);fill-opacity:1;" d="M 17.4375 19.6875 C 18.316406 19.6875 18.316406 19.6875 18.65625 19.96875 C 18.851562 20.21875 18.84375 20.351562 18.839844 20.671875 C 18.75 21 18.75 21 18.5625 21.230469 C 18.28125 21.375 18.28125 21.375 17.4375 21.375 C 17.4375 20.816406 17.4375 20.261719 17.4375 19.6875 Z M 17.4375 19.6875 "/>
<path style=" stroke:none;fill-rule:nonzero;fill:rgb(98.823529%,38.039216%,34.117648%);fill-opacity:1;" d="M 9.09375 2.25 C 9.339844 2.496094 9.308594 2.671875 9.3125 3.007812 C 9.3125 3.078125 9.3125 3.152344 9.308594 3.230469 C 9.3125 3.300781 9.3125 3.375 9.316406 3.449219 C 9.316406 3.988281 9.316406 3.988281 9.152344 4.195312 C 9 4.3125 9 4.3125 8.761719 4.292969 C 8.53125 4.21875 8.53125 4.21875 8.34375 4.03125 C 8.320312 3.777344 8.3125 3.539062 8.316406 3.285156 C 8.3125 3.21875 8.3125 3.148438 8.308594 3.078125 C 8.308594 2.582031 8.308594 2.582031 8.472656 2.34375 C 8.691406 2.210938 8.84375 2.21875 9.09375 2.25 Z M 9.09375 2.25 "/>
<path style=" stroke:none;fill-rule:nonzero;fill:rgb(28.235295%,70.19608%,98.823529%);fill-opacity:1;" d="M 5.148438 18.15625 C 5.394531 18.164062 5.507812 18.175781 5.722656 18.296875 C 5.8125 18.46875 5.8125 18.46875 5.796875 18.710938 C 5.71875 18.9375 5.71875 18.9375 5.53125 19.125 C 4.871094 19.175781 4.871094 19.175781 4.585938 19.011719 C 4.5 18.84375 4.5 18.84375 4.515625 18.601562 C 4.648438 18.214844 4.734375 18.191406 5.148438 18.15625 Z M 5.148438 18.15625 "/>
<path style=" stroke:none;fill-rule:nonzero;fill:rgb(20%,18.039216%,18.039216%);fill-opacity:1;" d="M 14.15625 19.875 C 14.34375 19.875 14.527344 19.875 14.71875 19.875 C 14.71875 20.308594 14.71875 20.742188 14.71875 21.1875 C 14.53125 21.1875 14.347656 21.1875 14.15625 21.1875 C 14.15625 20.753906 14.15625 20.320312 14.15625 19.875 Z M 14.15625 19.875 "/>
<path style=" stroke:none;fill-rule:nonzero;fill:rgb(17.254902%,19.607843%,21.176471%);fill-opacity:1;" d="M 9.28125 19.875 C 9.46875 19.875 9.652344 19.875 9.84375 19.875 C 9.84375 20.308594 9.84375 20.742188 9.84375 21.1875 C 9.65625 21.1875 9.472656 21.1875 9.28125 21.1875 C 9.28125 20.753906 9.28125 20.320312 9.28125 19.875 Z M 9.28125 19.875 "/>
<path style=" stroke:none;fill-rule:nonzero;fill:rgb(24.313726%,21.960784%,18.82353%);fill-opacity:1;" d="M 17.15625 10.3125 C 17.34375 10.3125 17.527344 10.3125 17.71875 10.3125 C 17.71875 10.746094 17.71875 11.179688 17.71875 11.625 C 17.53125 11.625 17.347656 11.625 17.15625 11.625 C 17.15625 11.191406 17.15625 10.757812 17.15625 10.3125 Z M 17.15625 10.3125 "/>
<path style=" stroke:none;fill-rule:nonzero;fill:rgb(18.039216%,18.039216%,18.039216%);fill-opacity:1;" d="M 14.71875 10.3125 C 14.90625 10.3125 15.089844 10.3125 15.28125 10.3125 C 15.28125 10.746094 15.28125 11.179688 15.28125 11.625 C 15.09375 11.625 14.910156 11.625 14.71875 11.625 C 14.71875 11.191406 14.71875 10.757812 14.71875 10.3125 Z M 14.71875 10.3125 "/>
<path style=" stroke:none;fill-rule:nonzero;fill:rgb(18.039216%,18.039216%,18.039216%);fill-opacity:1;" d="M 8.71875 10.3125 C 8.90625 10.3125 9.089844 10.3125 9.28125 10.3125 C 9.28125 10.746094 9.28125 11.179688 9.28125 11.625 C 9.09375 11.625 8.910156 11.625 8.71875 11.625 C 8.71875 11.191406 8.71875 10.757812 8.71875 10.3125 Z M 8.71875 10.3125 "/>
<path style=" stroke:none;fill-rule:nonzero;fill:rgb(17.647059%,17.647059%,17.647059%);fill-opacity:1;" d="M 17.25 17.25 C 17.714844 17.25 18.179688 17.25 18.65625 17.25 C 18.625 17.40625 18.59375 17.558594 18.5625 17.71875 C 18.066406 17.71875 17.574219 17.71875 17.0625 17.71875 C 17.125 17.5625 17.1875 17.410156 17.25 17.25 Z M 17.25 17.25 "/>
<path style=" stroke:none;fill-rule:nonzero;fill:rgb(17.647059%,17.647059%,17.647059%);fill-opacity:1;" d="M 5.4375 17.25 C 5.933594 17.25 6.425781 17.25 6.9375 17.25 C 6.96875 17.40625 7 17.558594 7.03125 17.71875 C 6.566406 17.71875 6.101562 17.71875 5.625 17.71875 C 5.5625 17.5625 5.5 17.410156 5.4375 17.25 Z M 5.4375 17.25 "/>
<path style=" stroke:none;fill-rule:nonzero;fill:rgb(17.647059%,17.647059%,17.647059%);fill-opacity:1;" d="M 18.84375 13.6875 C 19.339844 13.6875 19.832031 13.6875 20.34375 13.6875 C 20.28125 13.84375 20.21875 13.996094 20.15625 14.15625 C 19.691406 14.15625 19.226562 14.15625 18.75 14.15625 C 18.78125 14 18.8125 13.847656 18.84375 13.6875 Z M 18.84375 13.6875 "/>
<path style=" stroke:none;fill-rule:nonzero;fill:rgb(18.039216%,18.039216%,18.039216%);fill-opacity:1;" d="M 5.53125 13.6875 C 5.53125 13.8125 5.53125 13.933594 5.53125 14.0625 C 5.234375 14.152344 4.972656 14.167969 4.664062 14.160156 C 4.582031 14.160156 4.496094 14.160156 4.410156 14.160156 C 4.347656 14.15625 4.285156 14.15625 4.21875 14.15625 C 4.15625 14 4.09375 13.847656 4.03125 13.6875 C 4.195312 13.667969 4.355469 13.652344 4.519531 13.636719 C 4.609375 13.625 4.699219 13.617188 4.792969 13.605469 C 5.058594 13.59375 5.273438 13.625 5.53125 13.6875 Z M 5.53125 13.6875 "/>
<path style=" stroke:none;fill-rule:nonzero;fill:rgb(17.647059%,17.647059%,17.647059%);fill-opacity:1;" d="M 6.375 10.3125 C 6.53125 10.3125 6.683594 10.3125 6.84375 10.3125 C 6.84375 10.746094 6.84375 11.179688 6.84375 11.625 C 6.6875 11.625 6.535156 11.625 6.375 11.625 C 6.375 11.191406 6.375 10.757812 6.375 10.3125 Z M 6.375 10.3125 "/>
<path style=" stroke:none;fill-rule:nonzero;fill:rgb(17.647059%,17.647059%,17.647059%);fill-opacity:1;" d="M 11.34375 7.59375 C 11.777344 7.59375 12.210938 7.59375 12.65625 7.59375 C 12.65625 7.75 12.65625 7.902344 12.65625 8.0625 C 12.222656 8.0625 11.789062 8.0625 11.34375 8.0625 C 11.34375 7.90625 11.34375 7.753906 11.34375 7.59375 Z M 11.34375 7.59375 "/>
<path style=" stroke:none;fill-rule:nonzero;fill:rgb(17.647059%,17.647059%,17.647059%);fill-opacity:1;" d="M 11.34375 6.28125 C 11.777344 6.28125 12.210938 6.28125 12.65625 6.28125 C 12.65625 6.4375 12.65625 6.589844 12.65625 6.75 C 12.222656 6.75 11.789062 6.75 11.34375 6.75 C 11.34375 6.59375 11.34375 6.441406 11.34375 6.28125 Z M 11.34375 6.28125 "/>
</g>
</svg>
