<?xml version="1.0" encoding="UTF-8"?>
<svg xmlns="http://www.w3.org/2000/svg" xmlns:xlink="http://www.w3.org/1999/xlink" width="24" height="24" viewBox="0 0 24 24" version="1.1">
<g id="surface1">
<path style=" stroke:none;fill-rule:nonzero;fill:rgb(0%,80.784315%,80.392158%);fill-opacity:1;" d="M 2.804688 3.699219 C 2.886719 3.699219 2.96875 3.699219 3.050781 3.699219 C 3.324219 3.699219 3.597656 3.699219 3.871094 3.699219 C 4.066406 3.699219 4.265625 3.695312 4.460938 3.695312 C 4.992188 3.691406 5.527344 3.691406 6.058594 3.695312 C 6.503906 3.695312 6.949219 3.691406 7.394531 3.691406 C 8.445312 3.691406 9.492188 3.691406 10.542969 3.691406 C 11.625 3.691406 12.707031 3.691406 13.792969 3.683594 C 14.722656 3.683594 15.652344 3.679688 16.582031 3.679688 C 17.136719 3.683594 17.691406 3.679688 18.246094 3.679688 C 18.769531 3.675781 19.289062 3.675781 19.8125 3.679688 C 20.003906 3.679688 20.195312 3.679688 20.386719 3.675781 C 22.171875 3.664062 22.171875 3.664062 22.730469 4.152344 C 23.339844 4.828125 23.304688 5.4375 23.300781 6.320312 C 23.300781 6.457031 23.304688 6.59375 23.304688 6.734375 C 23.308594 7.105469 23.308594 7.476562 23.308594 7.847656 C 23.308594 8.15625 23.308594 8.46875 23.308594 8.78125 C 23.308594 9.511719 23.308594 10.246094 23.308594 10.980469 C 23.308594 11.734375 23.308594 12.488281 23.3125 13.246094 C 23.316406 13.894531 23.320312 14.546875 23.316406 15.195312 C 23.316406 15.582031 23.316406 15.96875 23.320312 16.355469 C 23.324219 16.722656 23.324219 17.085938 23.320312 17.453125 C 23.320312 17.585938 23.320312 17.71875 23.320312 17.851562 C 23.332031 18.570312 23.296875 19.109375 22.871094 19.703125 C 22.339844 20.199219 21.898438 20.304688 21.195312 20.296875 C 21.074219 20.300781 21.074219 20.300781 20.949219 20.300781 C 20.675781 20.304688 20.402344 20.300781 20.128906 20.300781 C 19.933594 20.300781 19.734375 20.304688 19.539062 20.304688 C 19.007812 20.308594 18.472656 20.308594 17.941406 20.304688 C 17.496094 20.304688 17.050781 20.308594 16.605469 20.308594 C 15.554688 20.308594 14.507812 20.308594 13.457031 20.308594 C 12.375 20.308594 11.292969 20.3125 10.207031 20.316406 C 9.277344 20.316406 8.347656 20.320312 7.417969 20.316406 C 6.863281 20.316406 6.308594 20.316406 5.753906 20.320312 C 5.230469 20.324219 4.707031 20.324219 4.1875 20.320312 C 3.996094 20.320312 3.804688 20.320312 3.613281 20.320312 C 1.828125 20.335938 1.828125 20.335938 1.269531 19.847656 C 0.660156 19.171875 0.695312 18.5625 0.699219 17.679688 C 0.699219 17.542969 0.695312 17.40625 0.695312 17.269531 C 0.691406 16.894531 0.691406 16.523438 0.691406 16.152344 C 0.691406 15.839844 0.691406 15.53125 0.691406 15.21875 C 0.691406 14.488281 0.691406 13.753906 0.691406 13.019531 C 0.691406 12.265625 0.691406 11.507812 0.6875 10.753906 C 0.683594 10.105469 0.679688 9.453125 0.683594 8.804688 C 0.683594 8.417969 0.683594 8.03125 0.679688 7.640625 C 0.675781 7.277344 0.675781 6.914062 0.679688 6.546875 C 0.679688 6.414062 0.679688 6.28125 0.679688 6.148438 C 0.667969 5.429688 0.703125 4.890625 1.128906 4.296875 C 1.660156 3.800781 2.101562 3.695312 2.804688 3.699219 Z M 2.804688 3.699219 "/>
<path style=" stroke:none;fill-rule:nonzero;fill:rgb(0%,2.745098%,30.588236%);fill-opacity:1;" d="M 2.804688 3.699219 C 2.886719 3.699219 2.96875 3.699219 3.050781 3.699219 C 3.324219 3.699219 3.597656 3.699219 3.871094 3.699219 C 4.066406 3.699219 4.265625 3.695312 4.460938 3.695312 C 4.992188 3.691406 5.527344 3.691406 6.058594 3.695312 C 6.503906 3.695312 6.949219 3.691406 7.394531 3.691406 C 8.445312 3.691406 9.492188 3.691406 10.542969 3.691406 C 11.625 3.691406 12.707031 3.691406 13.792969 3.683594 C 14.722656 3.683594 15.652344 3.679688 16.582031 3.679688 C 17.136719 3.683594 17.691406 3.679688 18.246094 3.679688 C 18.769531 3.675781 19.289062 3.675781 19.8125 3.679688 C 20.003906 3.679688 20.195312 3.679688 20.386719 3.675781 C 22.171875 3.664062 22.171875 3.664062 22.730469 4.152344 C 23.339844 4.828125 23.304688 5.4375 23.300781 6.320312 C 23.300781 6.457031 23.304688 6.59375 23.304688 6.734375 C 23.308594 7.105469 23.308594 7.476562 23.308594 7.847656 C 23.308594 8.15625 23.308594 8.46875 23.308594 8.78125 C 23.308594 9.511719 23.308594 10.246094 23.308594 10.980469 C 23.308594 11.734375 23.308594 12.488281 23.3125 13.246094 C 23.316406 13.894531 23.320312 14.546875 23.316406 15.195312 C 23.316406 15.582031 23.316406 15.96875 23.320312 16.355469 C 23.324219 16.722656 23.324219 17.085938 23.320312 17.453125 C 23.320312 17.585938 23.320312 17.71875 23.320312 17.851562 C 23.332031 18.570312 23.296875 19.109375 22.871094 19.703125 C 22.339844 20.199219 21.898438 20.304688 21.195312 20.296875 C 21.074219 20.300781 21.074219 20.300781 20.949219 20.300781 C 20.675781 20.304688 20.402344 20.300781 20.128906 20.300781 C 19.933594 20.300781 19.734375 20.304688 19.539062 20.304688 C 19.007812 20.308594 18.472656 20.308594 17.941406 20.304688 C 17.496094 20.304688 17.050781 20.308594 16.605469 20.308594 C 15.554688 20.308594 14.507812 20.308594 13.457031 20.308594 C 12.375 20.308594 11.292969 20.3125 10.207031 20.316406 C 9.277344 20.316406 8.347656 20.320312 7.417969 20.316406 C 6.863281 20.316406 6.308594 20.316406 5.753906 20.320312 C 5.230469 20.324219 4.707031 20.324219 4.1875 20.320312 C 3.996094 20.320312 3.804688 20.320312 3.613281 20.320312 C 1.828125 20.335938 1.828125 20.335938 1.269531 19.847656 C 0.660156 19.171875 0.695312 18.5625 0.699219 17.679688 C 0.699219 17.542969 0.695312 17.40625 0.695312 17.269531 C 0.691406 16.894531 0.691406 16.523438 0.691406 16.152344 C 0.691406 15.839844 0.691406 15.53125 0.691406 15.21875 C 0.691406 14.488281 0.691406 13.753906 0.691406 13.019531 C 0.691406 12.265625 0.691406 11.507812 0.6875 10.753906 C 0.683594 10.105469 0.679688 9.453125 0.683594 8.804688 C 0.683594 8.417969 0.683594 8.03125 0.679688 7.640625 C 0.675781 7.277344 0.675781 6.914062 0.679688 6.546875 C 0.679688 6.414062 0.679688 6.28125 0.679688 6.148438 C 0.667969 5.429688 0.703125 4.890625 1.128906 4.296875 C 1.660156 3.800781 2.101562 3.695312 2.804688 3.699219 Z M 1.5 7.5 C 1.492188 9.332031 1.488281 11.164062 1.484375 13.050781 C 1.480469 13.628906 1.476562 14.203125 1.472656 14.800781 C 1.472656 15.320312 1.472656 15.320312 1.472656 15.835938 C 1.472656 16.070312 1.472656 16.300781 1.46875 16.53125 C 1.46875 16.878906 1.46875 17.230469 1.46875 17.578125 C 1.464844 17.683594 1.464844 17.785156 1.464844 17.890625 C 1.46875 18.523438 1.519531 18.863281 1.976562 19.320312 C 2.332031 19.554688 2.628906 19.550781 3.039062 19.546875 C 3.160156 19.546875 3.160156 19.546875 3.28125 19.546875 C 3.546875 19.550781 3.8125 19.546875 4.078125 19.546875 C 4.269531 19.546875 4.457031 19.546875 4.648438 19.546875 C 5.167969 19.550781 5.683594 19.546875 6.199219 19.546875 C 6.742188 19.546875 7.28125 19.546875 7.824219 19.546875 C 8.734375 19.546875 9.640625 19.546875 10.550781 19.542969 C 11.601562 19.542969 12.652344 19.542969 13.703125 19.542969 C 14.714844 19.542969 15.726562 19.542969 16.734375 19.542969 C 17.167969 19.542969 17.597656 19.542969 18.027344 19.542969 C 18.535156 19.542969 19.039062 19.542969 19.546875 19.539062 C 19.734375 19.539062 19.917969 19.539062 20.105469 19.539062 C 20.359375 19.539062 20.613281 19.539062 20.867188 19.535156 C 20.976562 19.539062 20.976562 19.539062 21.089844 19.539062 C 21.609375 19.53125 21.902344 19.410156 22.289062 19.078125 C 22.515625 18.804688 22.511719 18.535156 22.511719 18.199219 C 22.511719 18.105469 22.511719 18.011719 22.511719 17.914062 C 22.511719 17.808594 22.511719 17.707031 22.511719 17.601562 C 22.511719 17.488281 22.511719 17.378906 22.511719 17.265625 C 22.511719 16.90625 22.511719 16.546875 22.507812 16.1875 C 22.507812 15.96875 22.507812 15.746094 22.507812 15.523438 C 22.507812 14.703125 22.507812 13.882812 22.507812 13.058594 C 22.503906 11.226562 22.503906 9.390625 22.5 7.5 C 15.570312 7.5 8.640625 7.5 1.5 7.5 Z M 1.5 7.5 "/>
<path style=" stroke:none;fill-rule:nonzero;fill:rgb(98.823529%,82.745099%,27.843139%);fill-opacity:1;" d="M 7.03125 9.1875 C 7.3125 9.511719 7.3125 9.511719 7.3125 9.75 C 7.929688 9.75 8.550781 9.75 9.1875 9.75 C 9.25 9.625 9.3125 9.503906 9.375 9.375 C 9.4375 9.28125 9.5 9.1875 9.5625 9.09375 C 9.839844 9.1875 10.121094 9.28125 10.40625 9.375 C 10.378906 9.585938 10.378906 9.585938 10.355469 9.796875 C 10.351562 10.132812 10.371094 10.269531 10.585938 10.53125 C 10.738281 10.660156 10.890625 10.785156 11.046875 10.902344 C 11.25 11.0625 11.25 11.0625 11.4375 11.34375 C 11.667969 11.378906 11.667969 11.378906 11.917969 11.363281 C 12.003906 11.359375 12.089844 11.355469 12.175781 11.355469 C 12.242188 11.351562 12.308594 11.347656 12.375 11.34375 C 12.46875 11.621094 12.5625 11.902344 12.65625 12.1875 C 12.210938 12.5625 12.210938 12.5625 12 12.5625 C 12 12.851562 12.003906 13.136719 12.011719 13.425781 C 12.011719 13.503906 12.011719 13.585938 12.011719 13.667969 C 12.019531 14.121094 12.019531 14.121094 12.222656 14.507812 C 12.394531 14.652344 12.394531 14.652344 12.65625 14.8125 C 12.5625 15.089844 12.46875 15.371094 12.375 15.65625 C 12.234375 15.640625 12.09375 15.625 11.949219 15.609375 C 11.632812 15.609375 11.488281 15.613281 11.242188 15.8125 C 11.132812 15.941406 11.027344 16.078125 10.929688 16.214844 C 10.78125 16.40625 10.78125 16.40625 10.578125 16.542969 C 10.382812 16.675781 10.382812 16.675781 10.371094 16.921875 C 10.375 17.003906 10.378906 17.085938 10.382812 17.175781 C 10.386719 17.257812 10.390625 17.34375 10.394531 17.429688 C 10.398438 17.496094 10.402344 17.558594 10.40625 17.625 C 10.128906 17.71875 9.847656 17.8125 9.5625 17.90625 C 9.1875 17.460938 9.1875 17.460938 9.1875 17.25 C 8.570312 17.25 7.949219 17.25 7.3125 17.25 C 7.25 17.375 7.1875 17.496094 7.125 17.625 C 7.0625 17.71875 7 17.8125 6.9375 17.90625 C 6.660156 17.8125 6.378906 17.71875 6.09375 17.625 C 6.117188 17.414062 6.117188 17.414062 6.140625 17.199219 C 6.140625 16.882812 6.136719 16.738281 5.9375 16.492188 C 5.808594 16.382812 5.671875 16.277344 5.535156 16.179688 C 5.34375 16.03125 5.34375 16.03125 5.207031 15.828125 C 5.074219 15.632812 5.074219 15.632812 4.828125 15.621094 C 4.746094 15.625 4.664062 15.628906 4.574219 15.632812 C 4.492188 15.636719 4.40625 15.640625 4.320312 15.644531 C 4.253906 15.648438 4.191406 15.652344 4.125 15.65625 C 4.03125 15.378906 3.9375 15.097656 3.84375 14.8125 C 4.289062 14.4375 4.289062 14.4375 4.5 14.4375 C 4.5 13.820312 4.5 13.199219 4.5 12.5625 C 4.375 12.5 4.253906 12.4375 4.125 12.375 C 4.03125 12.3125 3.9375 12.25 3.84375 12.1875 C 3.9375 11.910156 4.03125 11.628906 4.125 11.34375 C 4.265625 11.363281 4.402344 11.378906 4.546875 11.394531 C 4.882812 11.398438 5.019531 11.378906 5.28125 11.164062 C 5.410156 11.011719 5.535156 10.859375 5.652344 10.703125 C 5.8125 10.5 5.8125 10.5 6.09375 10.3125 C 6.128906 10.082031 6.128906 10.082031 6.113281 9.832031 C 6.109375 9.746094 6.105469 9.660156 6.105469 9.574219 C 6.101562 9.507812 6.097656 9.441406 6.09375 9.375 C 6.714844 9.082031 6.714844 9.082031 7.03125 9.1875 Z M 7.03125 9.1875 "/>
<path style=" stroke:none;fill-rule:nonzero;fill:rgb(0%,64.313728%,66.666669%);fill-opacity:1;" d="M 3.007812 4.488281 C 3.085938 4.488281 3.164062 4.484375 3.246094 4.484375 C 3.511719 4.484375 3.777344 4.484375 4.042969 4.484375 C 4.234375 4.484375 4.425781 4.484375 4.617188 4.484375 C 5.136719 4.480469 5.652344 4.480469 6.171875 4.480469 C 6.496094 4.480469 6.820312 4.480469 7.144531 4.480469 C 8.15625 4.480469 9.167969 4.476562 10.179688 4.476562 C 11.351562 4.476562 12.519531 4.476562 13.6875 4.472656 C 14.59375 4.472656 15.496094 4.46875 16.398438 4.46875 C 16.9375 4.46875 17.476562 4.46875 18.019531 4.46875 C 18.527344 4.464844 19.035156 4.464844 19.542969 4.464844 C 19.726562 4.464844 19.914062 4.464844 20.101562 4.464844 C 20.355469 4.464844 20.609375 4.464844 20.863281 4.464844 C 20.9375 4.464844 21.011719 4.464844 21.089844 4.464844 C 21.515625 4.46875 21.789062 4.511719 22.125 4.78125 C 22.5 5.25 22.5 5.25 22.5 6.75 C 15.570312 6.75 8.640625 6.75 1.5 6.75 C 1.5 5.25 1.5 5.25 1.769531 4.832031 C 2.160156 4.476562 2.496094 4.484375 3.007812 4.488281 Z M 3.007812 4.488281 "/>
<path style=" stroke:none;fill-rule:nonzero;fill:rgb(1.568628%,4.705882%,30.980393%);fill-opacity:1;" d="M 7.03125 8.15625 C 7.324219 8.433594 7.503906 8.632812 7.6875 9 C 8.058594 9 8.429688 9 8.8125 9 C 8.875 8.875 8.9375 8.753906 9 8.625 C 9.152344 8.464844 9.308594 8.308594 9.46875 8.15625 C 9.730469 8.261719 9.996094 8.371094 10.261719 8.480469 C 10.371094 8.523438 10.371094 8.523438 10.488281 8.570312 C 10.558594 8.601562 10.632812 8.628906 10.703125 8.660156 C 10.769531 8.6875 10.835938 8.714844 10.90625 8.742188 C 11.0625 8.8125 11.0625 8.8125 11.15625 8.90625 C 11.148438 9.070312 11.136719 9.230469 11.128906 9.394531 C 11.125 9.753906 11.132812 9.996094 11.367188 10.277344 C 11.660156 10.527344 11.914062 10.527344 12.292969 10.535156 C 12.804688 10.554688 12.804688 10.554688 12.984375 10.730469 C 13.089844 10.929688 13.152344 11.125 13.21875 11.34375 C 13.289062 11.53125 13.359375 11.71875 13.429688 11.90625 C 13.484375 12.0625 13.539062 12.21875 13.59375 12.375 C 13.488281 12.46875 13.382812 12.5625 13.277344 12.65625 C 13.21875 12.707031 13.160156 12.761719 13.101562 12.816406 C 12.9375 12.9375 12.9375 12.9375 12.75 12.9375 C 12.75 13.308594 12.75 13.679688 12.75 14.0625 C 12.9375 14.15625 12.9375 14.15625 13.125 14.25 C 13.285156 14.402344 13.441406 14.558594 13.59375 14.71875 C 13.488281 14.980469 13.378906 15.246094 13.269531 15.511719 C 13.226562 15.621094 13.226562 15.621094 13.179688 15.738281 C 13.148438 15.808594 13.121094 15.882812 13.089844 15.953125 C 13.0625 16.019531 13.035156 16.085938 13.007812 16.15625 C 12.9375 16.3125 12.9375 16.3125 12.84375 16.40625 C 12.683594 16.394531 12.523438 16.382812 12.363281 16.371094 C 11.960938 16.371094 11.726562 16.402344 11.417969 16.667969 C 11.089844 17.050781 11.101562 17.40625 11.132812 17.890625 C 11.144531 17.992188 11.144531 17.992188 11.15625 18.09375 C 10.964844 18.183594 10.773438 18.273438 10.582031 18.363281 C 10.476562 18.414062 10.367188 18.464844 10.257812 18.515625 C 9.96875 18.644531 9.679688 18.75 9.375 18.84375 C 9.28125 18.738281 9.1875 18.632812 9.09375 18.527344 C 9.042969 18.46875 8.988281 18.410156 8.933594 18.351562 C 8.8125 18.1875 8.8125 18.1875 8.8125 18 C 8.441406 18 8.070312 18 7.6875 18 C 7.625 18.125 7.5625 18.246094 7.5 18.375 C 7.347656 18.535156 7.191406 18.691406 7.03125 18.84375 C 6.769531 18.738281 6.503906 18.628906 6.238281 18.519531 C 6.164062 18.492188 6.089844 18.460938 6.011719 18.429688 C 5.941406 18.398438 5.867188 18.371094 5.796875 18.339844 C 5.730469 18.3125 5.664062 18.285156 5.59375 18.257812 C 5.4375 18.1875 5.4375 18.1875 5.34375 18.09375 C 5.335938 17.914062 5.332031 17.738281 5.324219 17.558594 C 5.285156 17.046875 5.285156 17.046875 5.027344 16.617188 C 4.679688 16.324219 4.296875 16.363281 3.863281 16.386719 C 3.761719 16.394531 3.761719 16.394531 3.65625 16.40625 C 3.566406 16.214844 3.476562 16.023438 3.386719 15.832031 C 3.335938 15.726562 3.285156 15.617188 3.234375 15.507812 C 3.105469 15.21875 3 14.929688 2.90625 14.625 C 3.011719 14.53125 3.117188 14.4375 3.222656 14.34375 C 3.28125 14.292969 3.339844 14.238281 3.398438 14.183594 C 3.5625 14.0625 3.5625 14.0625 3.75 14.0625 C 3.75 13.691406 3.75 13.320312 3.75 12.9375 C 3.625 12.875 3.503906 12.8125 3.375 12.75 C 3.214844 12.597656 3.058594 12.441406 2.90625 12.28125 C 3.011719 12.019531 3.121094 11.753906 3.230469 11.488281 C 3.257812 11.414062 3.289062 11.339844 3.320312 11.261719 C 3.351562 11.191406 3.378906 11.117188 3.410156 11.046875 C 3.4375 10.980469 3.464844 10.914062 3.492188 10.84375 C 3.5625 10.6875 3.5625 10.6875 3.65625 10.59375 C 3.816406 10.605469 3.976562 10.617188 4.136719 10.628906 C 4.539062 10.628906 4.773438 10.597656 5.082031 10.332031 C 5.410156 9.949219 5.398438 9.59375 5.367188 9.109375 C 5.359375 9.042969 5.351562 8.976562 5.34375 8.90625 C 5.894531 8.621094 6.453125 8.378906 7.03125 8.15625 Z M 6.09375 9.375 C 6.101562 9.433594 6.113281 9.492188 6.125 9.554688 C 6.160156 9.957031 6.179688 10.210938 5.914062 10.53125 C 5.761719 10.660156 5.609375 10.785156 5.453125 10.902344 C 5.230469 11.0625 5.230469 11.0625 5.0625 11.34375 C 4.839844 11.371094 4.839844 11.371094 4.582031 11.363281 C 4.496094 11.359375 4.410156 11.355469 4.324219 11.355469 C 4.257812 11.351562 4.191406 11.347656 4.125 11.34375 C 3.984375 11.761719 3.984375 11.761719 3.84375 12.1875 C 4.132812 12.46875 4.132812 12.46875 4.5 12.5625 C 4.5 13.179688 4.5 13.800781 4.5 14.4375 C 4.375 14.5 4.253906 14.5625 4.125 14.625 C 4.03125 14.6875 3.9375 14.75 3.84375 14.8125 C 3.9375 15.089844 4.03125 15.371094 4.125 15.65625 C 4.265625 15.636719 4.402344 15.621094 4.546875 15.605469 C 4.882812 15.601562 5.019531 15.621094 5.28125 15.835938 C 5.410156 15.988281 5.535156 16.140625 5.652344 16.296875 C 5.8125 16.519531 5.8125 16.519531 6.09375 16.6875 C 6.121094 16.910156 6.121094 16.910156 6.113281 17.167969 C 6.109375 17.253906 6.105469 17.339844 6.105469 17.425781 C 6.101562 17.492188 6.097656 17.558594 6.09375 17.625 C 6.371094 17.71875 6.652344 17.8125 6.9375 17.90625 C 7.21875 17.617188 7.21875 17.617188 7.3125 17.25 C 7.929688 17.25 8.550781 17.25 9.1875 17.25 C 9.25 17.375 9.3125 17.496094 9.375 17.625 C 9.46875 17.765625 9.46875 17.765625 9.5625 17.90625 C 9.839844 17.8125 10.121094 17.71875 10.40625 17.625 C 10.390625 17.484375 10.375 17.34375 10.359375 17.199219 C 10.359375 16.882812 10.363281 16.738281 10.5625 16.492188 C 10.691406 16.382812 10.828125 16.277344 10.964844 16.179688 C 11.167969 16.039062 11.167969 16.039062 11.292969 15.828125 C 11.4375 15.65625 11.4375 15.65625 11.671875 15.621094 C 11.753906 15.625 11.835938 15.628906 11.925781 15.632812 C 12.007812 15.636719 12.09375 15.640625 12.179688 15.644531 C 12.246094 15.648438 12.308594 15.652344 12.375 15.65625 C 12.46875 15.378906 12.5625 15.097656 12.65625 14.8125 C 12.566406 14.753906 12.472656 14.695312 12.378906 14.636719 C 12.1875 14.476562 12.105469 14.382812 12.039062 14.136719 C 12.019531 13.898438 12.011719 13.664062 12.011719 13.425781 C 12.007812 13.339844 12.007812 13.257812 12.003906 13.171875 C 12 12.96875 12 12.765625 12 12.5625 C 12.054688 12.535156 12.113281 12.507812 12.167969 12.480469 C 12.394531 12.371094 12.394531 12.371094 12.65625 12.1875 C 12.5625 11.910156 12.46875 11.628906 12.375 11.34375 C 12.234375 11.363281 12.097656 11.378906 11.953125 11.394531 C 11.617188 11.398438 11.480469 11.378906 11.21875 11.164062 C 11.089844 11.011719 10.964844 10.859375 10.847656 10.703125 C 10.6875 10.480469 10.6875 10.480469 10.40625 10.3125 C 10.378906 10.089844 10.378906 10.089844 10.386719 9.832031 C 10.390625 9.703125 10.390625 9.703125 10.394531 9.574219 C 10.398438 9.507812 10.402344 9.441406 10.40625 9.375 C 10.128906 9.28125 9.847656 9.1875 9.5625 9.09375 C 9.28125 9.382812 9.28125 9.382812 9.1875 9.75 C 8.570312 9.75 7.949219 9.75 7.3125 9.75 C 7.25 9.625 7.1875 9.503906 7.125 9.375 C 7.0625 9.28125 7 9.1875 6.9375 9.09375 C 6.628906 9.09375 6.375 9.25 6.09375 9.375 Z M 6.09375 9.375 "/>
<path style=" stroke:none;fill-rule:nonzero;fill:rgb(0%,64.313728%,66.666669%);fill-opacity:1;" d="M 1.5 7.5 C 2.242188 7.5 2.984375 7.5 3.75 7.5 C 3.75 8.488281 3.75 9.480469 3.75 10.5 C 3.890625 10.546875 3.890625 10.546875 4.03125 10.59375 C 3.945312 10.605469 3.945312 10.605469 3.855469 10.617188 C 3.644531 10.667969 3.644531 10.667969 3.554688 10.84375 C 3.527344 10.910156 3.503906 10.976562 3.476562 11.046875 C 3.433594 11.152344 3.433594 11.152344 3.390625 11.261719 C 3.363281 11.335938 3.332031 11.414062 3.304688 11.488281 C 3.261719 11.601562 3.261719 11.601562 3.214844 11.71875 C 3.140625 11.90625 3.070312 12.09375 3 12.28125 C 3.242188 12.53125 3.460938 12.746094 3.75 12.9375 C 3.835938 13.320312 3.832031 13.679688 3.75 14.0625 C 3.53125 14.320312 3.292969 14.464844 3 14.625 C 3.097656 14.902344 3.203125 15.179688 3.304688 15.457031 C 3.332031 15.535156 3.359375 15.613281 3.390625 15.695312 C 3.417969 15.773438 3.445312 15.847656 3.476562 15.925781 C 3.5 15.996094 3.527344 16.0625 3.554688 16.136719 C 3.679688 16.355469 3.800781 16.410156 4.03125 16.5 C 3.9375 16.5 3.84375 16.5 3.75 16.5 C 3.757812 16.847656 3.769531 17.191406 3.777344 17.535156 C 3.78125 17.632812 3.785156 17.730469 3.785156 17.832031 C 3.804688 18.394531 3.863281 18.8125 4.125 19.3125 C 4.171875 19.40625 4.171875 19.40625 4.21875 19.5 C 3.90625 19.515625 3.589844 19.527344 3.277344 19.535156 C 3.1875 19.539062 3.097656 19.546875 3.007812 19.550781 C 2.539062 19.558594 2.234375 19.539062 1.863281 19.234375 C 1.613281 18.992188 1.507812 18.800781 1.488281 18.445312 C 1.488281 18.367188 1.488281 18.28125 1.488281 18.199219 C 1.488281 18.105469 1.488281 18.011719 1.488281 17.914062 C 1.488281 17.808594 1.488281 17.707031 1.488281 17.601562 C 1.488281 17.492188 1.488281 17.382812 1.488281 17.269531 C 1.488281 16.910156 1.488281 16.546875 1.492188 16.1875 C 1.492188 15.9375 1.492188 15.6875 1.492188 15.4375 C 1.492188 14.847656 1.492188 14.257812 1.492188 13.667969 C 1.496094 12.996094 1.496094 12.324219 1.496094 11.648438 C 1.496094 10.265625 1.5 8.882812 1.5 7.5 Z M 1.5 7.5 "/>
<path style=" stroke:none;fill-rule:nonzero;fill:rgb(1.960784%,4.313726%,30.19608%);fill-opacity:1;" d="M 9.335938 11.488281 C 9.882812 11.820312 10.304688 12.328125 10.5 12.9375 C 10.589844 13.640625 10.484375 14.242188 10.082031 14.824219 C 9.652344 15.355469 9.226562 15.695312 8.539062 15.785156 C 7.929688 15.808594 7.429688 15.753906 6.9375 15.375 C 6.351562 14.828125 5.996094 14.273438 5.957031 13.457031 C 5.980469 12.832031 6.140625 12.433594 6.570312 11.980469 C 7.414062 11.199219 8.261719 11.011719 9.335938 11.488281 Z M 9.335938 11.488281 "/>
<path style=" stroke:none;fill-rule:nonzero;fill:rgb(0%,2.745098%,30.588236%);fill-opacity:1;" d="M 17.109375 15.726562 C 17.191406 15.726562 17.273438 15.722656 17.363281 15.722656 C 17.449219 15.726562 17.535156 15.726562 17.625 15.726562 C 17.710938 15.726562 17.800781 15.726562 17.886719 15.722656 C 18.011719 15.726562 18.011719 15.726562 18.140625 15.726562 C 18.214844 15.726562 18.292969 15.726562 18.371094 15.726562 C 18.5625 15.75 18.5625 15.75 18.75 15.9375 C 18.75 16.246094 18.75 16.558594 18.75 16.875 C 19.492188 16.875 20.234375 16.875 21 16.875 C 21 17.121094 21 17.371094 21 17.625 C 20.257812 17.625 19.515625 17.625 18.75 17.625 C 18.75 17.933594 18.75 18.246094 18.75 18.5625 C 18.519531 18.792969 18.457031 18.773438 18.140625 18.773438 C 18.058594 18.773438 17.976562 18.777344 17.886719 18.777344 C 17.800781 18.773438 17.714844 18.773438 17.625 18.773438 C 17.539062 18.773438 17.449219 18.773438 17.363281 18.777344 C 17.238281 18.777344 17.238281 18.777344 17.109375 18.773438 C 17.035156 18.773438 16.957031 18.773438 16.878906 18.773438 C 16.6875 18.75 16.6875 18.75 16.5 18.5625 C 16.5 18.253906 16.5 17.945312 16.5 17.625 C 15.757812 17.625 15.015625 17.625 14.25 17.625 C 14.25 17.378906 14.25 17.128906 14.25 16.875 C 14.992188 16.875 15.734375 16.875 16.5 16.875 C 16.5 16.566406 16.5 16.257812 16.5 15.9375 C 16.730469 15.707031 16.792969 15.726562 17.109375 15.726562 Z M 17.109375 15.726562 "/>
<path style=" stroke:none;fill-rule:nonzero;fill:rgb(0%,2.745098%,30.588236%);fill-opacity:1;" d="M 15.609375 11.976562 C 15.691406 11.976562 15.773438 11.972656 15.863281 11.972656 C 15.949219 11.976562 16.035156 11.976562 16.125 11.976562 C 16.253906 11.976562 16.253906 11.976562 16.386719 11.972656 C 16.511719 11.976562 16.511719 11.976562 16.640625 11.976562 C 16.714844 11.976562 16.792969 11.976562 16.871094 11.976562 C 17.0625 12 17.0625 12 17.25 12.1875 C 17.25 12.496094 17.25 12.808594 17.25 13.125 C 18.488281 13.125 19.726562 13.125 21 13.125 C 21 13.371094 21 13.621094 21 13.875 C 19.761719 13.875 18.523438 13.875 17.25 13.875 C 17.25 14.183594 17.25 14.496094 17.25 14.8125 C 17.019531 15.042969 16.957031 15.023438 16.640625 15.023438 C 16.558594 15.023438 16.476562 15.027344 16.386719 15.027344 C 16.300781 15.023438 16.214844 15.023438 16.125 15.023438 C 16.039062 15.023438 15.949219 15.023438 15.863281 15.027344 C 15.738281 15.027344 15.738281 15.027344 15.609375 15.023438 C 15.535156 15.023438 15.457031 15.023438 15.378906 15.023438 C 15.1875 15 15.1875 15 15 14.8125 C 14.980469 14.589844 14.980469 14.589844 14.988281 14.332031 C 14.988281 14.246094 14.992188 14.160156 14.992188 14.074219 C 14.996094 14.007812 15 13.941406 15 13.875 C 14.753906 13.875 14.503906 13.875 14.25 13.875 C 14.25 13.628906 14.25 13.378906 14.25 13.125 C 14.496094 13.125 14.746094 13.125 15 13.125 C 15 13.058594 14.996094 12.996094 14.992188 12.925781 C 14.992188 12.796875 14.992188 12.796875 14.988281 12.667969 C 14.984375 12.582031 14.984375 12.5 14.980469 12.410156 C 15.015625 11.988281 15.242188 11.976562 15.609375 11.976562 Z M 15.609375 11.976562 "/>
<path style=" stroke:none;fill-rule:nonzero;fill:rgb(0%,2.745098%,30.588236%);fill-opacity:1;" d="M 17.859375 8.226562 C 17.941406 8.226562 18.023438 8.222656 18.113281 8.222656 C 18.199219 8.226562 18.285156 8.226562 18.375 8.226562 C 18.460938 8.226562 18.550781 8.226562 18.636719 8.222656 C 18.761719 8.226562 18.761719 8.226562 18.890625 8.226562 C 18.964844 8.226562 19.042969 8.226562 19.121094 8.226562 C 19.3125 8.25 19.3125 8.25 19.5 8.4375 C 19.523438 8.75 19.507812 9.058594 19.5 9.375 C 19.996094 9.375 20.488281 9.375 21 9.375 C 21 9.621094 21 9.871094 21 10.125 C 20.503906 10.125 20.011719 10.125 19.5 10.125 C 19.503906 10.277344 19.507812 10.425781 19.511719 10.582031 C 19.519531 10.839844 19.519531 10.839844 19.5 11.0625 C 19.269531 11.292969 19.207031 11.273438 18.890625 11.273438 C 18.808594 11.273438 18.726562 11.277344 18.636719 11.277344 C 18.550781 11.273438 18.464844 11.273438 18.375 11.273438 C 18.289062 11.273438 18.199219 11.273438 18.113281 11.277344 C 17.988281 11.277344 17.988281 11.277344 17.859375 11.273438 C 17.785156 11.273438 17.707031 11.273438 17.628906 11.273438 C 17.4375 11.25 17.4375 11.25 17.25 11.0625 C 17.25 10.753906 17.25 10.445312 17.25 10.125 C 16.261719 10.125 15.269531 10.125 14.25 10.125 C 14.25 9.878906 14.25 9.628906 14.25 9.375 C 15.238281 9.375 16.230469 9.375 17.25 9.375 C 17.25 9.066406 17.25 8.757812 17.25 8.4375 C 17.480469 8.207031 17.542969 8.226562 17.859375 8.226562 Z M 17.859375 8.226562 "/>
<path style=" stroke:none;fill-rule:nonzero;fill:rgb(0%,79.215688%,79.215688%);fill-opacity:1;" d="M 8.625 12 C 9.15625 12.183594 9.496094 12.527344 9.75 13.03125 C 9.800781 13.496094 9.800781 13.863281 9.589844 14.285156 C 9.296875 14.621094 8.980469 14.972656 8.515625 15.023438 C 7.96875 15.039062 7.648438 15 7.21875 14.625 C 6.816406 14.179688 6.714844 13.832031 6.722656 13.246094 C 6.777344 12.796875 7.046875 12.539062 7.371094 12.253906 C 7.789062 11.953125 8.125 11.953125 8.625 12 Z M 8.625 12 "/>
<path style=" stroke:none;fill-rule:nonzero;fill:rgb(0%,2.745098%,30.588236%);fill-opacity:1;" d="M 12 5.25 C 14.96875 5.25 17.941406 5.25 21 5.25 C 21 5.496094 21 5.746094 21 6 C 18.03125 6 15.058594 6 12 6 C 12 5.753906 12 5.503906 12 5.25 Z M 12 5.25 "/>
<path style=" stroke:none;fill-rule:nonzero;fill:rgb(0%,48.627451%,57.254905%);fill-opacity:1;" d="M 2.699219 4.492188 C 2.785156 4.492188 2.875 4.492188 2.964844 4.492188 C 3.058594 4.492188 3.152344 4.492188 3.246094 4.496094 C 3.339844 4.496094 3.433594 4.496094 3.527344 4.496094 C 3.757812 4.496094 3.988281 4.5 4.21875 4.5 C 4.160156 4.589844 4.097656 4.683594 4.035156 4.777344 C 3.804688 5.179688 3.78125 5.539062 3.773438 5.996094 C 3.765625 6.242188 3.757812 6.492188 3.75 6.75 C 3.007812 6.75 2.265625 6.75 1.5 6.75 C 1.425781 5.230469 1.425781 5.230469 1.769531 4.832031 C 2.078125 4.550781 2.28125 4.488281 2.699219 4.492188 Z M 2.699219 4.492188 "/>
<path style=" stroke:none;fill-rule:nonzero;fill:rgb(100%,83.92157%,28.235295%);fill-opacity:1;" d="M 17.25 16.5 C 17.496094 16.5 17.746094 16.5 18 16.5 C 18 16.996094 18 17.488281 18 18 C 17.753906 18 17.503906 18 17.25 18 C 17.25 17.503906 17.25 17.011719 17.25 16.5 Z M 17.25 16.5 "/>
<path style=" stroke:none;fill-rule:nonzero;fill:rgb(100%,83.92157%,28.235295%);fill-opacity:1;" d="M 15.75 12.75 C 15.996094 12.75 16.246094 12.75 16.5 12.75 C 16.5 13.246094 16.5 13.738281 16.5 14.25 C 16.253906 14.25 16.003906 14.25 15.75 14.25 C 15.75 13.753906 15.75 13.261719 15.75 12.75 Z M 15.75 12.75 "/>
<path style=" stroke:none;fill-rule:nonzero;fill:rgb(100%,83.92157%,28.235295%);fill-opacity:1;" d="M 18 9 C 18.246094 9 18.496094 9 18.75 9 C 18.75 9.496094 18.75 9.988281 18.75 10.5 C 18.503906 10.5 18.253906 10.5 18 10.5 C 18 10.003906 18 9.511719 18 9 Z M 18 9 "/>
<path style=" stroke:none;fill-rule:nonzero;fill:rgb(96.078432%,68.235296%,3.137255%);fill-opacity:1;" d="M 9.84375 11.90625 C 10.277344 12.019531 10.445312 12.230469 10.6875 12.585938 C 10.9375 13.023438 10.925781 13.480469 10.875 13.96875 C 10.703125 14.5625 10.332031 14.917969 9.84375 15.28125 C 9.78125 15.25 9.71875 15.21875 9.65625 15.1875 C 9.714844 15.128906 9.714844 15.128906 9.773438 15.066406 C 10.300781 14.492188 10.453125 13.949219 10.4375 13.171875 C 10.371094 12.683594 10.113281 12.308594 9.84375 11.90625 Z M 9.84375 11.90625 "/>
<path style=" stroke:none;fill-rule:nonzero;fill:rgb(98.039216%,70.19608%,3.137255%);fill-opacity:1;" d="M 4.21875 12.375 C 4.421875 12.410156 4.570312 12.457031 4.746094 12.566406 C 4.949219 12.859375 4.902344 13.171875 4.894531 13.519531 C 4.890625 13.589844 4.890625 13.660156 4.890625 13.730469 C 4.886719 13.902344 4.878906 14.078125 4.875 14.25 C 4.6875 14.34375 4.6875 14.34375 4.5 14.4375 C 4.5 13.820312 4.5 13.199219 4.5 12.5625 C 4.40625 12.53125 4.3125 12.5 4.21875 12.46875 C 4.21875 12.4375 4.21875 12.40625 4.21875 12.375 Z M 4.21875 12.375 "/>
<path style=" stroke:none;fill-rule:nonzero;fill:rgb(100%,70.19608%,0%);fill-opacity:1;" d="M 17.25 16.5 C 17.375 16.5 17.496094 16.5 17.625 16.5 C 17.625 16.996094 17.625 17.488281 17.625 18 C 17.5 18 17.378906 18 17.25 18 C 17.25 17.503906 17.25 17.011719 17.25 16.5 Z M 17.25 16.5 "/>
<path style=" stroke:none;fill-rule:nonzero;fill:rgb(100%,70.19608%,0%);fill-opacity:1;" d="M 15.75 12.75 C 15.875 12.75 15.996094 12.75 16.125 12.75 C 16.125 13.246094 16.125 13.738281 16.125 14.25 C 16 14.25 15.878906 14.25 15.75 14.25 C 15.75 13.753906 15.75 13.261719 15.75 12.75 Z M 15.75 12.75 "/>
<path style=" stroke:none;fill-rule:nonzero;fill:rgb(100%,70.19608%,0%);fill-opacity:1;" d="M 18 9 C 18.125 9 18.246094 9 18.375 9 C 18.375 9.496094 18.375 9.988281 18.375 10.5 C 18.25 10.5 18.128906 10.5 18 10.5 C 18 10.003906 18 9.511719 18 9 Z M 18 9 "/>
<path style=" stroke:none;fill-rule:nonzero;fill:rgb(0%,2.745098%,30.588236%);fill-opacity:1;" d="M 6 5.25 C 6.246094 5.25 6.496094 5.25 6.75 5.25 C 6.75 5.496094 6.75 5.746094 6.75 6 C 6.503906 6 6.253906 6 6 6 C 6 5.753906 6 5.503906 6 5.25 Z M 6 5.25 "/>
<path style=" stroke:none;fill-rule:nonzero;fill:rgb(0%,2.745098%,30.588236%);fill-opacity:1;" d="M 4.5 5.25 C 4.746094 5.25 4.996094 5.25 5.25 5.25 C 5.25 5.496094 5.25 5.746094 5.25 6 C 5.003906 6 4.753906 6 4.5 6 C 4.5 5.753906 4.5 5.503906 4.5 5.25 Z M 4.5 5.25 "/>
<path style=" stroke:none;fill-rule:nonzero;fill:rgb(0%,2.745098%,30.588236%);fill-opacity:1;" d="M 3 5.25 C 3.246094 5.25 3.496094 5.25 3.75 5.25 C 3.75 5.496094 3.75 5.746094 3.75 6 C 3.503906 6 3.253906 6 3 6 C 3 5.753906 3 5.503906 3 5.25 Z M 3 5.25 "/>
<path style=" stroke:none;fill-rule:nonzero;fill:rgb(97.647059%,69.411767%,1.960784%);fill-opacity:1;" d="M 5.34375 15.9375 C 5.8125 16.007812 6.074219 16.308594 6.394531 16.632812 C 6.585938 16.90625 6.609375 17.023438 6.566406 17.347656 C 6.519531 17.5625 6.519531 17.5625 6.46875 17.71875 C 6.34375 17.6875 6.222656 17.65625 6.09375 17.625 C 6.101562 17.566406 6.113281 17.503906 6.121094 17.441406 C 6.167969 16.925781 6.167969 16.925781 5.925781 16.480469 C 5.738281 16.324219 5.542969 16.175781 5.34375 16.03125 C 5.34375 16 5.34375 15.96875 5.34375 15.9375 Z M 5.34375 15.9375 "/>
<path style=" stroke:none;fill-rule:nonzero;fill:rgb(94.509804%,68.627453%,5.882353%);fill-opacity:1;" d="M 4.5 14.4375 C 4.46875 14.484375 4.433594 14.53125 4.402344 14.578125 C 4.269531 14.929688 4.34375 15.195312 4.40625 15.5625 C 4.3125 15.59375 4.21875 15.625 4.125 15.65625 C 4.03125 15.378906 3.9375 15.097656 3.84375 14.8125 C 4.289062 14.4375 4.289062 14.4375 4.5 14.4375 Z M 4.5 14.4375 "/>
<path style=" stroke:none;fill-rule:nonzero;fill:rgb(96.470588%,68.627453%,2.352941%);fill-opacity:1;" d="M 6.46875 9.28125 C 6.492188 9.414062 6.511719 9.550781 6.535156 9.683594 C 6.546875 9.761719 6.558594 9.835938 6.570312 9.914062 C 6.5625 10.125 6.5625 10.125 6.421875 10.292969 C 6.375 10.332031 6.328125 10.367188 6.28125 10.40625 C 6.21875 10.375 6.15625 10.34375 6.09375 10.3125 C 6.09375 10.003906 6.09375 9.695312 6.09375 9.375 C 6.28125 9.28125 6.28125 9.28125 6.46875 9.28125 Z M 6.46875 9.28125 "/>
<path style=" stroke:none;fill-rule:nonzero;fill:rgb(93.333334%,65.882355%,2.352941%);fill-opacity:1;" d="M 4.125 11.34375 C 4.21875 11.375 4.3125 11.40625 4.40625 11.4375 C 4.3125 11.714844 4.21875 11.996094 4.125 12.28125 C 4.03125 12.25 3.9375 12.21875 3.84375 12.1875 C 3.9375 11.910156 4.03125 11.628906 4.125 11.34375 Z M 4.125 11.34375 "/>
<path style=" stroke:none;fill-rule:nonzero;fill:rgb(89.019608%,64.313728%,6.27451%);fill-opacity:1;" d="M 5.34375 15.9375 C 5.65625 15.992188 5.808594 16.085938 6.023438 16.316406 C 6.097656 16.394531 6.097656 16.394531 6.171875 16.472656 C 6.226562 16.53125 6.226562 16.53125 6.28125 16.59375 C 6.25 16.6875 6.21875 16.78125 6.1875 16.875 C 5.882812 16.578125 5.605469 16.273438 5.34375 15.9375 Z M 5.34375 15.9375 "/>
</g>
</svg>
