<?xml version="1.0" encoding="UTF-8"?>
<svg xmlns="http://www.w3.org/2000/svg" xmlns:xlink="http://www.w3.org/1999/xlink" width="24" height="24" viewBox="0 0 24 24" version="1.1">
<g id="surface1">
<path style=" stroke:none;fill-rule:nonzero;fill:rgb(96.862745%,36.078432%,38.431373%);fill-opacity:1;" d="M 18.335938 1.476562 C 19.476562 2.34375 20.269531 3.515625 20.476562 4.953125 C 20.65625 6.671875 20.195312 8.039062 19.125 9.375 C 18.769531 9.769531 18.398438 10.144531 18.023438 10.519531 C 17.914062 10.625 17.808594 10.730469 17.703125 10.835938 C 17.484375 11.058594 17.261719 11.277344 17.042969 11.5 C 16.761719 11.78125 16.480469 12.0625 16.203125 12.34375 C 15.984375 12.5625 15.765625 12.78125 15.546875 13 C 15.445312 13.101562 15.339844 13.207031 15.238281 13.308594 C 13.988281 14.574219 12.617188 15.445312 10.796875 15.496094 C 10.179688 15.488281 9.597656 15.351562 9 15.1875 C 9 14.570312 9.460938 14.265625 9.878906 13.84375 C 10.46875 13.28125 10.914062 13.15625 11.71875 13.125 C 13.097656 12.726562 14.25 11.089844 15.25 10.101562 C 15.441406 9.910156 15.636719 9.71875 15.832031 9.527344 C 16.070312 9.296875 16.308594 9.0625 16.542969 8.824219 C 16.675781 8.695312 16.808594 8.566406 16.941406 8.4375 C 17.691406 7.683594 18.21875 6.871094 18.304688 5.792969 C 18.246094 4.902344 17.914062 4.109375 17.261719 3.488281 C 16.441406 2.835938 15.664062 2.710938 14.625 2.8125 C 13.421875 3.066406 12.566406 4.199219 11.730469 5.027344 C 11.683594 5.074219 11.640625 5.117188 11.589844 5.164062 C 11.347656 5.40625 11.105469 5.648438 10.863281 5.890625 C 10.613281 6.140625 10.363281 6.386719 10.113281 6.632812 C 9.921875 6.824219 9.726562 7.015625 9.53125 7.210938 C 9.441406 7.300781 9.347656 7.390625 9.257812 7.480469 C 8.34375 8.359375 8.34375 8.359375 7.941406 9.519531 C 7.945312 9.675781 7.945312 9.675781 7.953125 9.839844 C 7.851562 10.929688 6.875 11.601562 6.09375 12.28125 C 5.90625 12.1875 5.90625 12.1875 5.828125 12.019531 C 5.402344 10.636719 5.492188 9.113281 6.121094 7.8125 C 6.691406 6.78125 7.613281 5.964844 8.4375 5.132812 C 8.484375 5.085938 8.53125 5.039062 8.582031 4.988281 C 8.832031 4.734375 9.082031 4.484375 9.335938 4.230469 C 9.59375 3.972656 9.851562 3.710938 10.105469 3.453125 C 10.304688 3.25 10.507812 3.050781 10.707031 2.847656 C 10.800781 2.753906 10.894531 2.65625 10.988281 2.5625 C 11.726562 1.8125 12.507812 1.113281 13.535156 0.808594 C 13.625 0.78125 13.714844 0.753906 13.808594 0.726562 C 15.378906 0.304688 16.992188 0.558594 18.335938 1.476562 Z M 18.335938 1.476562 "/>
<path style=" stroke:none;fill-rule:nonzero;fill:rgb(96.078432%,27.450982%,44.313726%);fill-opacity:1;" d="M 15 8.8125 C 15 9.429688 14.539062 9.734375 14.121094 10.15625 C 13.636719 10.617188 13.273438 10.851562 12.585938 10.839844 C 11.566406 10.953125 10.871094 11.746094 10.183594 12.4375 C 10.078125 12.542969 9.96875 12.652344 9.859375 12.761719 C 9.632812 12.984375 9.40625 13.214844 9.179688 13.441406 C 8.894531 13.730469 8.605469 14.015625 8.316406 14.300781 C 8.089844 14.523438 7.867188 14.746094 7.644531 14.972656 C 7.539062 15.078125 7.433594 15.183594 7.324219 15.289062 C 6.480469 16.121094 5.792969 16.976562 5.695312 18.207031 C 5.753906 19.097656 6.085938 19.890625 6.738281 20.511719 C 7.558594 21.164062 8.335938 21.289062 9.375 21.1875 C 10.886719 20.867188 12.074219 19.175781 13.132812 18.125 C 13.332031 17.929688 13.527344 17.730469 13.730469 17.535156 C 13.972656 17.296875 14.214844 17.058594 14.457031 16.816406 C 14.59375 16.683594 14.730469 16.550781 14.863281 16.417969 C 15.5625 15.722656 16.148438 14.976562 16.152344 13.957031 C 16.175781 13.367188 16.410156 13.105469 16.828125 12.707031 C 16.90625 12.636719 16.988281 12.566406 17.066406 12.492188 C 17.148438 12.417969 17.226562 12.339844 17.3125 12.261719 C 17.507812 12.078125 17.707031 11.898438 17.90625 11.71875 C 18.09375 11.8125 18.09375 11.8125 18.171875 11.980469 C 18.597656 13.363281 18.507812 14.886719 17.878906 16.1875 C 17.308594 17.21875 16.386719 18.035156 15.5625 18.867188 C 15.515625 18.914062 15.46875 18.960938 15.417969 19.011719 C 15.167969 19.265625 14.914062 19.515625 14.664062 19.769531 C 14.40625 20.027344 14.152344 20.289062 13.894531 20.546875 C 13.695312 20.75 13.496094 20.949219 13.292969 21.152344 C 13.199219 21.246094 13.105469 21.34375 13.011719 21.4375 C 12.273438 22.1875 11.492188 22.886719 10.464844 23.191406 C 10.375 23.21875 10.285156 23.246094 10.195312 23.273438 C 8.824219 23.640625 7.382812 23.5 6.136719 22.828125 C 4.867188 22.046875 4.144531 21.03125 3.632812 19.652344 C 3.328125 18.183594 3.460938 16.703125 4.277344 15.417969 C 4.785156 14.707031 5.363281 14.09375 5.976562 13.480469 C 6.085938 13.375 6.191406 13.269531 6.296875 13.164062 C 6.515625 12.941406 6.738281 12.722656 6.957031 12.5 C 7.238281 12.21875 7.519531 11.9375 7.796875 11.65625 C 8.015625 11.4375 8.234375 11.21875 8.453125 11 C 8.554688 10.898438 8.660156 10.792969 8.761719 10.691406 C 10.566406 8.867188 12.46875 8.117188 15 8.8125 Z M 15 8.8125 "/>
</g>
</svg>
