<?xml version="1.0" encoding="UTF-8"?>
<svg xmlns="http://www.w3.org/2000/svg" xmlns:xlink="http://www.w3.org/1999/xlink" width="24" height="24" viewBox="0 0 24 24" version="1.1">
<g id="surface1">
<path style=" stroke:none;fill-rule:nonzero;fill:rgb(16.862746%,73.333335%,91.37255%);fill-opacity:1;" d="M 2.789062 9.335938 C 2.882812 9.335938 2.882812 9.335938 2.976562 9.335938 C 3.105469 9.335938 3.234375 9.335938 3.363281 9.339844 C 3.5625 9.339844 3.757812 9.339844 3.957031 9.335938 C 4.082031 9.335938 4.210938 9.335938 4.335938 9.335938 C 4.449219 9.335938 4.566406 9.339844 4.683594 9.339844 C 4.96875 9.375 4.96875 9.375 5.148438 9.5 C 5.3125 9.753906 5.277344 9.988281 5.269531 10.285156 C 5.265625 10.449219 5.265625 10.449219 5.261719 10.617188 C 5.257812 10.703125 5.253906 10.789062 5.25 10.875 C 5.496094 10.875 5.746094 10.875 6 10.875 C 5.996094 10.746094 5.996094 10.746094 5.988281 10.617188 C 5.988281 10.507812 5.984375 10.398438 5.980469 10.285156 C 5.980469 10.171875 5.976562 10.0625 5.972656 9.949219 C 6 9.65625 6 9.65625 6.101562 9.5 C 6.371094 9.3125 6.589844 9.339844 6.914062 9.335938 C 7.007812 9.335938 7.007812 9.335938 7.101562 9.335938 C 7.230469 9.335938 7.359375 9.335938 7.488281 9.339844 C 7.6875 9.339844 7.882812 9.339844 8.082031 9.335938 C 8.207031 9.335938 8.335938 9.335938 8.460938 9.335938 C 8.574219 9.335938 8.691406 9.339844 8.808594 9.339844 C 9.09375 9.375 9.09375 9.375 9.273438 9.5 C 9.4375 9.753906 9.402344 9.988281 9.394531 10.285156 C 9.390625 10.449219 9.390625 10.449219 9.386719 10.617188 C 9.382812 10.703125 9.378906 10.789062 9.375 10.875 C 9.746094 10.875 10.117188 10.875 10.5 10.875 C 10.496094 10.746094 10.496094 10.746094 10.488281 10.617188 C 10.488281 10.507812 10.484375 10.398438 10.480469 10.285156 C 10.480469 10.171875 10.476562 10.0625 10.472656 9.949219 C 10.5 9.65625 10.5 9.65625 10.601562 9.5 C 10.871094 9.3125 11.089844 9.339844 11.414062 9.335938 C 11.507812 9.335938 11.507812 9.335938 11.601562 9.335938 C 11.730469 9.335938 11.859375 9.335938 11.988281 9.339844 C 12.1875 9.339844 12.382812 9.339844 12.582031 9.335938 C 12.707031 9.335938 12.835938 9.335938 12.960938 9.335938 C 13.074219 9.335938 13.191406 9.339844 13.308594 9.339844 C 13.59375 9.375 13.59375 9.375 13.773438 9.5 C 13.9375 9.753906 13.902344 9.988281 13.894531 10.285156 C 13.890625 10.449219 13.890625 10.449219 13.886719 10.617188 C 13.882812 10.703125 13.878906 10.789062 13.875 10.875 C 13.953125 10.871094 14.027344 10.867188 14.109375 10.863281 C 14.207031 10.859375 14.308594 10.855469 14.414062 10.851562 C 14.515625 10.847656 14.613281 10.84375 14.71875 10.839844 C 15.070312 10.882812 15.15625 10.972656 15.375 11.25 C 15.421875 11.507812 15.421875 11.507812 15.421875 11.804688 C 15.425781 11.914062 15.425781 12.027344 15.425781 12.140625 C 15.425781 12.261719 15.425781 12.378906 15.425781 12.503906 C 15.425781 12.628906 15.425781 12.75 15.425781 12.878906 C 15.425781 13.140625 15.425781 13.398438 15.421875 13.660156 C 15.421875 13.996094 15.421875 14.328125 15.425781 14.664062 C 15.425781 14.980469 15.425781 15.300781 15.425781 15.621094 C 15.425781 15.742188 15.425781 15.859375 15.425781 15.984375 C 15.425781 16.152344 15.425781 16.152344 15.421875 16.320312 C 15.421875 16.417969 15.421875 16.519531 15.421875 16.621094 C 15.359375 16.949219 15.261719 17.042969 15 17.25 C 14.726562 17.296875 14.726562 17.296875 14.402344 17.296875 C 14.21875 17.300781 14.21875 17.300781 14.03125 17.300781 C 13.894531 17.300781 13.757812 17.300781 13.621094 17.300781 C 13.476562 17.300781 13.335938 17.300781 13.191406 17.300781 C 12.800781 17.300781 12.410156 17.300781 12.023438 17.300781 C 11.613281 17.300781 11.207031 17.300781 10.796875 17.300781 C 10.113281 17.300781 9.429688 17.300781 8.742188 17.300781 C 7.953125 17.296875 7.160156 17.296875 6.367188 17.300781 C 5.6875 17.300781 5.007812 17.300781 4.328125 17.300781 C 3.921875 17.300781 3.515625 17.300781 3.113281 17.300781 C 2.730469 17.300781 2.347656 17.300781 1.96875 17.300781 C 1.828125 17.300781 1.6875 17.300781 1.546875 17.300781 C 1.355469 17.300781 1.164062 17.300781 0.972656 17.296875 C 0.867188 17.296875 0.757812 17.296875 0.648438 17.296875 C 0.3125 17.238281 0.203125 17.140625 0 16.875 C -0.046875 16.621094 -0.046875 16.621094 -0.046875 16.320312 C -0.0507812 16.210938 -0.0507812 16.097656 -0.0507812 15.984375 C -0.0507812 15.804688 -0.0507812 15.804688 -0.0507812 15.621094 C -0.0507812 15.496094 -0.0507812 15.375 -0.0507812 15.246094 C -0.0507812 14.984375 -0.0507812 14.726562 -0.046875 14.464844 C -0.046875 14.128906 -0.046875 13.796875 -0.0507812 13.460938 C -0.0507812 13.140625 -0.0507812 12.824219 -0.0507812 12.503906 C -0.0507812 12.382812 -0.0507812 12.261719 -0.0507812 12.140625 C -0.0507812 12.027344 -0.0507812 11.917969 -0.046875 11.804688 C -0.046875 11.703125 -0.046875 11.605469 -0.046875 11.507812 C 0.0117188 11.183594 0.113281 11.070312 0.375 10.875 C 0.644531 10.847656 0.878906 10.839844 1.148438 10.851562 C 1.253906 10.855469 1.253906 10.855469 1.359375 10.855469 C 1.53125 10.859375 1.703125 10.867188 1.875 10.875 C 1.871094 10.746094 1.871094 10.746094 1.863281 10.617188 C 1.863281 10.507812 1.859375 10.398438 1.855469 10.285156 C 1.855469 10.171875 1.851562 10.0625 1.847656 9.949219 C 1.875 9.65625 1.875 9.65625 1.976562 9.5 C 2.246094 9.3125 2.464844 9.339844 2.789062 9.335938 Z M 2.789062 9.335938 "/>
<path style=" stroke:none;fill-rule:nonzero;fill:rgb(96.470588%,49.019608%,62.352943%);fill-opacity:1;" d="M 13.875 0 C 14.230469 0.167969 14.554688 0.375 14.882812 0.589844 C 15.015625 0.675781 15.015625 0.675781 15.152344 0.761719 C 15.9375 1.261719 15.9375 1.261719 16.125 1.5 C 16.117188 2.078125 15.964844 2.425781 15.65625 2.90625 C 15.878906 3.082031 16.039062 3.1875 16.3125 3.28125 C 16.351562 3.179688 16.351562 3.179688 16.386719 3.074219 C 16.675781 2.394531 16.675781 2.394531 16.96875 2.25 C 17.546875 2.191406 17.855469 2.335938 18.324219 2.636719 C 18.382812 2.675781 18.445312 2.714844 18.507812 2.753906 C 19.511719 3.386719 19.511719 3.386719 19.875 3.75 C 19.839844 4.253906 19.769531 4.539062 19.5 4.96875 C 19.5625 5.261719 19.5625 5.261719 19.785156 5.363281 C 19.847656 5.386719 19.90625 5.410156 19.96875 5.4375 C 20.007812 5.378906 20.046875 5.316406 20.085938 5.257812 C 20.136719 5.179688 20.1875 5.101562 20.238281 5.019531 C 20.289062 4.945312 20.339844 4.867188 20.390625 4.789062 C 20.53125 4.59375 20.53125 4.59375 20.71875 4.5 C 21.296875 4.441406 21.605469 4.585938 22.074219 4.886719 C 22.164062 4.945312 22.164062 4.945312 22.257812 5.003906 C 23.261719 5.636719 23.261719 5.636719 23.625 6 C 23.589844 6.507812 23.507812 6.863281 23.25 7.3125 C 23.304688 7.34375 23.359375 7.375 23.414062 7.410156 C 23.484375 7.453125 23.554688 7.5 23.625 7.546875 C 23.695312 7.589844 23.765625 7.632812 23.835938 7.679688 C 24.03125 7.914062 24.070312 8.085938 24.054688 8.390625 C 23.925781 8.933594 23.59375 9.410156 23.308594 9.886719 C 23.238281 10.003906 23.171875 10.121094 23.101562 10.238281 C 22.964844 10.46875 22.828125 10.699219 22.691406 10.929688 C 22.523438 11.207031 22.363281 11.484375 22.203125 11.765625 C 22.121094 11.910156 22.035156 12.050781 21.957031 12.191406 C 21.917969 12.257812 21.882812 12.320312 21.84375 12.386719 C 21.4375 13.082031 21.4375 13.082031 21.105469 13.171875 C 20.417969 13.195312 19.964844 12.902344 19.394531 12.542969 C 19.195312 12.421875 18.992188 12.300781 18.792969 12.179688 C 18.691406 12.117188 18.589844 12.058594 18.488281 11.992188 C 18.035156 11.71875 17.570312 11.460938 17.109375 11.203125 C 16.375 10.789062 15.644531 10.371094 14.917969 9.941406 C 14.152344 9.496094 13.382812 9.054688 12.609375 8.625 C 11.808594 8.179688 11.011719 7.726562 10.21875 7.265625 C 10.082031 7.1875 10.082031 7.1875 9.941406 7.105469 C 8.53125 6.28125 8.53125 6.28125 8.25 6 C 8.121094 5.210938 8.550781 4.640625 8.941406 3.988281 C 9.011719 3.871094 9.078125 3.753906 9.148438 3.636719 C 9.285156 3.40625 9.421875 3.175781 9.558594 2.945312 C 9.726562 2.667969 9.886719 2.390625 10.046875 2.109375 C 10.085938 2.035156 10.128906 1.960938 10.171875 1.886719 C 10.246094 1.753906 10.324219 1.621094 10.398438 1.488281 C 10.582031 1.171875 10.738281 0.929688 11.0625 0.75 C 11.582031 0.699219 11.847656 0.726562 12.28125 1.03125 C 12.34375 1.03125 12.40625 1.03125 12.46875 1.03125 C 12.609375 0.824219 12.609375 0.824219 12.75 0.566406 C 13.039062 0.0546875 13.269531 -0.117188 13.875 0 Z M 13.875 0 "/>
<path style=" stroke:none;fill-rule:nonzero;fill:rgb(99.607843%,85.490197%,30.980393%);fill-opacity:1;" d="M 20.039062 16.085938 C 20.132812 16.085938 20.132812 16.085938 20.226562 16.085938 C 20.355469 16.085938 20.484375 16.085938 20.613281 16.089844 C 20.8125 16.089844 21.007812 16.089844 21.207031 16.085938 C 21.332031 16.085938 21.460938 16.085938 21.585938 16.085938 C 21.699219 16.085938 21.816406 16.089844 21.933594 16.089844 C 22.21875 16.125 22.21875 16.125 22.398438 16.25 C 22.5625 16.503906 22.527344 16.738281 22.519531 17.035156 C 22.515625 17.199219 22.515625 17.199219 22.511719 17.367188 C 22.507812 17.453125 22.503906 17.539062 22.5 17.625 C 22.578125 17.621094 22.652344 17.617188 22.734375 17.613281 C 22.832031 17.609375 22.933594 17.605469 23.039062 17.601562 C 23.140625 17.597656 23.238281 17.59375 23.34375 17.589844 C 23.695312 17.632812 23.78125 17.722656 24 18 C 24.046875 18.257812 24.046875 18.257812 24.046875 18.554688 C 24.050781 18.664062 24.050781 18.777344 24.050781 18.890625 C 24.050781 19.011719 24.050781 19.128906 24.050781 19.253906 C 24.050781 19.378906 24.050781 19.5 24.050781 19.628906 C 24.050781 19.890625 24.050781 20.148438 24.046875 20.410156 C 24.046875 20.746094 24.046875 21.078125 24.050781 21.414062 C 24.050781 21.730469 24.050781 22.050781 24.050781 22.371094 C 24.050781 22.492188 24.050781 22.609375 24.050781 22.734375 C 24.050781 22.902344 24.050781 22.902344 24.046875 23.070312 C 24.046875 23.167969 24.046875 23.269531 24.046875 23.371094 C 23.984375 23.699219 23.886719 23.792969 23.625 24 C 23.351562 24.046875 23.351562 24.046875 23.027344 24.046875 C 22.84375 24.050781 22.84375 24.050781 22.65625 24.050781 C 22.519531 24.050781 22.382812 24.050781 22.246094 24.050781 C 22.101562 24.050781 21.960938 24.050781 21.816406 24.050781 C 21.425781 24.050781 21.035156 24.050781 20.648438 24.050781 C 20.238281 24.050781 19.832031 24.050781 19.421875 24.050781 C 18.738281 24.050781 18.054688 24.050781 17.367188 24.050781 C 16.578125 24.046875 15.785156 24.046875 14.992188 24.050781 C 14.3125 24.050781 13.632812 24.050781 12.953125 24.050781 C 12.546875 24.050781 12.140625 24.050781 11.738281 24.050781 C 11.355469 24.050781 10.972656 24.050781 10.59375 24.050781 C 10.453125 24.050781 10.3125 24.050781 10.171875 24.050781 C 9.980469 24.050781 9.789062 24.050781 9.597656 24.046875 C 9.492188 24.046875 9.382812 24.046875 9.273438 24.046875 C 8.9375 23.988281 8.828125 23.890625 8.625 23.625 C 8.578125 23.371094 8.578125 23.371094 8.578125 23.070312 C 8.574219 22.960938 8.574219 22.847656 8.574219 22.734375 C 8.574219 22.554688 8.574219 22.554688 8.574219 22.371094 C 8.574219 22.246094 8.574219 22.125 8.574219 21.996094 C 8.574219 21.734375 8.574219 21.476562 8.578125 21.214844 C 8.578125 20.878906 8.578125 20.546875 8.574219 20.210938 C 8.574219 19.890625 8.574219 19.574219 8.574219 19.253906 C 8.574219 19.132812 8.574219 19.011719 8.574219 18.890625 C 8.574219 18.777344 8.574219 18.667969 8.578125 18.554688 C 8.578125 18.453125 8.578125 18.355469 8.578125 18.257812 C 8.625 18 8.625 18 8.753906 17.78125 C 9.140625 17.535156 9.523438 17.574219 9.972656 17.582031 C 10.070312 17.582031 10.171875 17.582031 10.269531 17.582031 C 10.597656 17.582031 10.925781 17.585938 11.25 17.589844 C 11.476562 17.589844 11.703125 17.589844 11.929688 17.589844 C 12.527344 17.589844 13.125 17.59375 13.71875 17.597656 C 14.328125 17.601562 14.9375 17.605469 15.542969 17.605469 C 16.738281 17.609375 17.929688 17.617188 19.125 17.625 C 19.121094 17.496094 19.121094 17.496094 19.113281 17.367188 C 19.113281 17.257812 19.109375 17.148438 19.105469 17.035156 C 19.105469 16.921875 19.101562 16.8125 19.097656 16.699219 C 19.125 16.40625 19.125 16.40625 19.25 16.226562 C 19.503906 16.0625 19.738281 16.089844 20.039062 16.085938 Z M 20.039062 16.085938 "/>
<path style=" stroke:none;fill-rule:nonzero;fill:rgb(98.431373%,67.843139%,29.019609%);fill-opacity:1;" d="M 1.066406 17.578125 C 1.136719 17.574219 1.203125 17.574219 1.273438 17.574219 C 1.503906 17.574219 1.730469 17.574219 1.957031 17.574219 C 2.117188 17.574219 2.273438 17.574219 2.429688 17.574219 C 2.761719 17.574219 3.09375 17.574219 3.425781 17.578125 C 3.851562 17.578125 4.277344 17.578125 4.703125 17.574219 C 5.027344 17.574219 5.355469 17.574219 5.683594 17.574219 C 5.839844 17.574219 5.996094 17.574219 6.152344 17.574219 C 6.371094 17.574219 6.589844 17.574219 6.808594 17.578125 C 6.875 17.574219 6.9375 17.574219 7.003906 17.574219 C 7.304688 17.578125 7.476562 17.609375 7.726562 17.78125 C 7.914062 18.058594 7.921875 18.222656 7.921875 18.554688 C 7.925781 18.664062 7.925781 18.777344 7.925781 18.890625 C 7.925781 19.011719 7.925781 19.128906 7.925781 19.253906 C 7.925781 19.4375 7.925781 19.4375 7.925781 19.628906 C 7.925781 19.890625 7.925781 20.148438 7.921875 20.410156 C 7.921875 20.746094 7.921875 21.078125 7.925781 21.414062 C 7.925781 21.730469 7.925781 22.050781 7.925781 22.371094 C 7.925781 22.492188 7.925781 22.609375 7.925781 22.734375 C 7.925781 22.847656 7.925781 22.957031 7.921875 23.070312 C 7.921875 23.167969 7.921875 23.269531 7.921875 23.371094 C 7.875 23.625 7.875 23.625 7.726562 23.84375 C 7.425781 24.050781 7.164062 24.050781 6.808594 24.050781 C 6.742188 24.050781 6.671875 24.050781 6.601562 24.050781 C 6.371094 24.050781 6.144531 24.050781 5.917969 24.050781 C 5.757812 24.050781 5.601562 24.050781 5.441406 24.050781 C 5.109375 24.050781 4.78125 24.050781 4.449219 24.050781 C 4.023438 24.046875 3.597656 24.046875 3.171875 24.050781 C 2.847656 24.050781 2.519531 24.050781 2.191406 24.050781 C 2.035156 24.050781 1.878906 24.050781 1.722656 24.050781 C 1.503906 24.050781 1.285156 24.050781 1.066406 24.050781 C 0.96875 24.050781 0.96875 24.050781 0.871094 24.050781 C 0.570312 24.046875 0.394531 24.015625 0.148438 23.84375 C -0.0390625 23.566406 -0.046875 23.402344 -0.046875 23.070312 C -0.0507812 22.960938 -0.0507812 22.847656 -0.0507812 22.734375 C -0.0507812 22.554688 -0.0507812 22.554688 -0.0507812 22.371094 C -0.0507812 22.246094 -0.0507812 22.125 -0.0507812 21.996094 C -0.0507812 21.734375 -0.0507812 21.472656 -0.0507812 21.214844 C -0.046875 20.878906 -0.046875 20.546875 -0.0507812 20.210938 C -0.0507812 19.890625 -0.0507812 19.574219 -0.0507812 19.253906 C -0.0507812 19.132812 -0.0507812 19.011719 -0.0507812 18.890625 C -0.0507812 18.777344 -0.0507812 18.667969 -0.046875 18.554688 C -0.046875 18.453125 -0.046875 18.355469 -0.046875 18.257812 C 0 18 0 18 0.148438 17.78125 C 0.449219 17.574219 0.710938 17.574219 1.066406 17.578125 Z M 1.066406 17.578125 "/>
<path style=" stroke:none;fill-rule:nonzero;fill:rgb(1.176471%,0.392157%,0.784314%);fill-opacity:1;" d="M 13.875 0 C 14.230469 0.167969 14.554688 0.375 14.882812 0.589844 C 15.015625 0.675781 15.015625 0.675781 15.152344 0.761719 C 15.9375 1.261719 15.9375 1.261719 16.125 1.5 C 16.117188 2.078125 15.964844 2.425781 15.65625 2.90625 C 15.878906 3.082031 16.039062 3.1875 16.3125 3.28125 C 16.351562 3.179688 16.351562 3.179688 16.386719 3.074219 C 16.675781 2.394531 16.675781 2.394531 16.96875 2.25 C 17.546875 2.191406 17.855469 2.335938 18.324219 2.636719 C 18.382812 2.675781 18.445312 2.714844 18.507812 2.753906 C 19.511719 3.386719 19.511719 3.386719 19.875 3.75 C 19.839844 4.253906 19.769531 4.539062 19.5 4.96875 C 19.5625 5.261719 19.5625 5.261719 19.785156 5.363281 C 19.847656 5.386719 19.90625 5.410156 19.96875 5.4375 C 20.007812 5.378906 20.046875 5.316406 20.085938 5.257812 C 20.136719 5.179688 20.1875 5.101562 20.238281 5.019531 C 20.289062 4.945312 20.339844 4.867188 20.390625 4.789062 C 20.53125 4.59375 20.53125 4.59375 20.71875 4.5 C 21.296875 4.441406 21.605469 4.585938 22.074219 4.886719 C 22.164062 4.945312 22.164062 4.945312 22.257812 5.003906 C 23.261719 5.636719 23.261719 5.636719 23.625 6 C 23.589844 6.507812 23.507812 6.863281 23.25 7.3125 C 23.304688 7.34375 23.359375 7.375 23.414062 7.410156 C 23.484375 7.453125 23.554688 7.5 23.625 7.546875 C 23.695312 7.589844 23.765625 7.632812 23.835938 7.679688 C 24.03125 7.914062 24.070312 8.085938 24.054688 8.390625 C 23.925781 8.933594 23.59375 9.410156 23.308594 9.886719 C 23.238281 10.003906 23.171875 10.121094 23.101562 10.238281 C 22.964844 10.46875 22.828125 10.699219 22.691406 10.929688 C 22.523438 11.207031 22.363281 11.484375 22.203125 11.765625 C 22.121094 11.910156 22.035156 12.050781 21.957031 12.191406 C 21.917969 12.257812 21.882812 12.320312 21.84375 12.386719 C 21.4375 13.082031 21.4375 13.082031 21.105469 13.171875 C 20.417969 13.195312 19.964844 12.902344 19.394531 12.542969 C 19.195312 12.421875 18.992188 12.300781 18.792969 12.179688 C 18.691406 12.117188 18.589844 12.058594 18.488281 11.992188 C 18.035156 11.71875 17.570312 11.460938 17.109375 11.203125 C 16.375 10.789062 15.644531 10.371094 14.917969 9.941406 C 14.152344 9.496094 13.382812 9.054688 12.609375 8.625 C 11.808594 8.179688 11.011719 7.726562 10.21875 7.265625 C 10.082031 7.1875 10.082031 7.1875 9.941406 7.105469 C 8.53125 6.28125 8.53125 6.28125 8.25 6 C 8.121094 5.210938 8.550781 4.640625 8.941406 3.988281 C 9.011719 3.871094 9.078125 3.753906 9.148438 3.636719 C 9.285156 3.40625 9.421875 3.175781 9.558594 2.945312 C 9.726562 2.667969 9.886719 2.390625 10.046875 2.109375 C 10.085938 2.035156 10.128906 1.960938 10.171875 1.886719 C 10.246094 1.753906 10.324219 1.621094 10.398438 1.488281 C 10.582031 1.171875 10.738281 0.929688 11.0625 0.75 C 11.582031 0.699219 11.847656 0.726562 12.28125 1.03125 C 12.34375 1.03125 12.40625 1.03125 12.46875 1.03125 C 12.609375 0.824219 12.609375 0.824219 12.75 0.566406 C 13.039062 0.0546875 13.269531 -0.117188 13.875 0 Z M 11.34375 1.59375 C 11.1875 1.785156 11.1875 1.785156 11.039062 2.050781 C 10.992188 2.128906 10.992188 2.128906 10.945312 2.207031 C 10.828125 2.40625 10.710938 2.609375 10.59375 2.8125 C 10.539062 2.90625 10.480469 3.003906 10.425781 3.101562 C 10.109375 3.640625 9.796875 4.183594 9.488281 4.722656 C 9.433594 4.816406 9.378906 4.90625 9.328125 5.003906 C 9.210938 5.207031 9.101562 5.414062 9 5.625 C 9.066406 5.664062 9.132812 5.699219 9.199219 5.738281 C 9.515625 5.917969 9.832031 6.101562 10.148438 6.28125 C 10.207031 6.316406 10.265625 6.347656 10.328125 6.382812 C 10.511719 6.488281 10.691406 6.59375 10.875 6.699219 C 10.96875 6.75 10.96875 6.75 11.066406 6.804688 C 11.515625 7.0625 11.515625 7.0625 11.964844 7.320312 C 12.019531 7.351562 12.074219 7.382812 12.128906 7.414062 C 12.507812 7.628906 12.886719 7.847656 13.265625 8.0625 C 13.320312 8.09375 13.375 8.125 13.429688 8.15625 C 13.675781 8.296875 13.675781 8.296875 13.921875 8.4375 C 13.976562 8.46875 14.03125 8.5 14.085938 8.53125 C 14.578125 8.8125 14.578125 8.8125 14.742188 8.90625 C 14.851562 8.96875 14.960938 9.03125 15.070312 9.09375 C 15.34375 9.25 15.613281 9.40625 15.886719 9.5625 C 16.394531 9.847656 16.898438 10.140625 17.40625 10.429688 C 17.640625 10.5625 17.875 10.695312 18.113281 10.832031 C 18.273438 10.921875 18.4375 11.015625 18.601562 11.109375 C 18.703125 11.167969 18.804688 11.226562 18.910156 11.285156 C 19.007812 11.339844 19.105469 11.398438 19.203125 11.453125 C 19.410156 11.574219 19.613281 11.695312 19.8125 11.816406 C 19.914062 11.878906 20.011719 11.941406 20.113281 12.003906 C 20.25 12.085938 20.25 12.085938 20.386719 12.171875 C 20.609375 12.292969 20.609375 12.292969 20.824219 12.28125 C 21.089844 12.140625 21.171875 11.949219 21.316406 11.6875 C 21.40625 11.53125 21.40625 11.53125 21.496094 11.375 C 21.558594 11.261719 21.617188 11.152344 21.679688 11.039062 C 21.773438 10.871094 21.867188 10.703125 21.960938 10.535156 C 22.054688 10.371094 22.148438 10.207031 22.238281 10.042969 C 22.492188 9.601562 22.765625 9.171875 23.050781 8.75 C 23.171875 8.542969 23.171875 8.542969 23.144531 8.347656 C 23.027344 8.074219 22.871094 8.007812 22.613281 7.863281 C 22.515625 7.808594 22.421875 7.757812 22.320312 7.699219 C 22.214844 7.640625 22.109375 7.582031 22.003906 7.523438 C 21.890625 7.460938 21.78125 7.398438 21.671875 7.335938 C 21.441406 7.207031 21.207031 7.078125 20.976562 6.945312 C 20.53125 6.699219 20.089844 6.445312 19.648438 6.191406 C 19.320312 6.003906 18.992188 5.816406 18.664062 5.628906 C 18.222656 5.378906 17.78125 5.125 17.34375 4.875 C 17.289062 4.84375 17.234375 4.8125 17.179688 4.78125 C 17.015625 4.6875 16.851562 4.59375 16.6875 4.5 C 16.074219 4.148438 15.460938 3.796875 14.84375 3.445312 C 14.609375 3.3125 14.375 3.179688 14.136719 3.042969 C 13.976562 2.953125 13.8125 2.859375 13.648438 2.765625 C 13.546875 2.707031 13.445312 2.648438 13.339844 2.589844 C 13.242188 2.535156 13.148438 2.476562 13.046875 2.421875 C 12.839844 2.300781 12.636719 2.183594 12.433594 2.0625 C 12.332031 2 12.234375 1.941406 12.128906 1.878906 C 12.039062 1.824219 11.949219 1.769531 11.855469 1.710938 C 11.625 1.570312 11.625 1.570312 11.34375 1.59375 Z M 11.34375 1.59375 "/>
<path style=" stroke:none;fill-rule:nonzero;fill:rgb(0%,0%,0%);fill-opacity:1;" d="M 2.789062 9.335938 C 2.882812 9.335938 2.882812 9.335938 2.976562 9.335938 C 3.105469 9.335938 3.234375 9.335938 3.363281 9.339844 C 3.5625 9.339844 3.757812 9.339844 3.957031 9.335938 C 4.082031 9.335938 4.210938 9.335938 4.335938 9.335938 C 4.449219 9.335938 4.566406 9.339844 4.683594 9.339844 C 4.96875 9.375 4.96875 9.375 5.148438 9.5 C 5.3125 9.753906 5.277344 9.988281 5.269531 10.285156 C 5.265625 10.449219 5.265625 10.449219 5.261719 10.617188 C 5.257812 10.703125 5.253906 10.789062 5.25 10.875 C 5.496094 10.875 5.746094 10.875 6 10.875 C 5.996094 10.746094 5.996094 10.746094 5.988281 10.617188 C 5.988281 10.507812 5.984375 10.398438 5.980469 10.285156 C 5.980469 10.171875 5.976562 10.0625 5.972656 9.949219 C 6 9.65625 6 9.65625 6.101562 9.5 C 6.371094 9.3125 6.589844 9.339844 6.914062 9.335938 C 7.007812 9.335938 7.007812 9.335938 7.101562 9.335938 C 7.230469 9.335938 7.359375 9.335938 7.488281 9.339844 C 7.6875 9.339844 7.882812 9.339844 8.082031 9.335938 C 8.207031 9.335938 8.335938 9.335938 8.460938 9.335938 C 8.574219 9.335938 8.691406 9.339844 8.808594 9.339844 C 9.09375 9.375 9.09375 9.375 9.273438 9.5 C 9.4375 9.753906 9.402344 9.988281 9.394531 10.285156 C 9.390625 10.449219 9.390625 10.449219 9.386719 10.617188 C 9.382812 10.703125 9.378906 10.789062 9.375 10.875 C 9.746094 10.875 10.117188 10.875 10.5 10.875 C 10.496094 10.746094 10.496094 10.746094 10.488281 10.617188 C 10.488281 10.507812 10.484375 10.398438 10.480469 10.285156 C 10.480469 10.171875 10.476562 10.0625 10.472656 9.949219 C 10.5 9.65625 10.5 9.65625 10.601562 9.5 C 10.871094 9.3125 11.089844 9.339844 11.414062 9.335938 C 11.507812 9.335938 11.507812 9.335938 11.601562 9.335938 C 11.730469 9.335938 11.859375 9.335938 11.988281 9.339844 C 12.1875 9.339844 12.382812 9.339844 12.582031 9.335938 C 12.707031 9.335938 12.835938 9.335938 12.960938 9.335938 C 13.074219 9.335938 13.191406 9.339844 13.308594 9.339844 C 13.59375 9.375 13.59375 9.375 13.773438 9.5 C 13.9375 9.753906 13.902344 9.988281 13.894531 10.285156 C 13.890625 10.449219 13.890625 10.449219 13.886719 10.617188 C 13.882812 10.703125 13.878906 10.789062 13.875 10.875 C 13.953125 10.871094 14.027344 10.867188 14.109375 10.863281 C 14.207031 10.859375 14.308594 10.855469 14.414062 10.851562 C 14.515625 10.847656 14.613281 10.84375 14.71875 10.839844 C 15.070312 10.882812 15.15625 10.972656 15.375 11.25 C 15.421875 11.507812 15.421875 11.507812 15.421875 11.804688 C 15.425781 11.914062 15.425781 12.027344 15.425781 12.140625 C 15.425781 12.261719 15.425781 12.378906 15.425781 12.503906 C 15.425781 12.628906 15.425781 12.75 15.425781 12.878906 C 15.425781 13.140625 15.425781 13.398438 15.421875 13.660156 C 15.421875 13.996094 15.421875 14.328125 15.425781 14.664062 C 15.425781 14.980469 15.425781 15.300781 15.425781 15.621094 C 15.425781 15.742188 15.425781 15.859375 15.425781 15.984375 C 15.425781 16.152344 15.425781 16.152344 15.421875 16.320312 C 15.421875 16.417969 15.421875 16.519531 15.421875 16.621094 C 15.359375 16.949219 15.261719 17.042969 15 17.25 C 14.726562 17.296875 14.726562 17.296875 14.402344 17.296875 C 14.21875 17.300781 14.21875 17.300781 14.03125 17.300781 C 13.894531 17.300781 13.757812 17.300781 13.621094 17.300781 C 13.476562 17.300781 13.335938 17.300781 13.191406 17.300781 C 12.800781 17.300781 12.410156 17.300781 12.023438 17.300781 C 11.613281 17.300781 11.207031 17.300781 10.796875 17.300781 C 10.113281 17.300781 9.429688 17.300781 8.742188 17.300781 C 7.953125 17.296875 7.160156 17.296875 6.367188 17.300781 C 5.6875 17.300781 5.007812 17.300781 4.328125 17.300781 C 3.921875 17.300781 3.515625 17.300781 3.113281 17.300781 C 2.730469 17.300781 2.347656 17.300781 1.96875 17.300781 C 1.828125 17.300781 1.6875 17.300781 1.546875 17.300781 C 1.355469 17.300781 1.164062 17.300781 0.972656 17.296875 C 0.867188 17.296875 0.757812 17.296875 0.648438 17.296875 C 0.3125 17.238281 0.203125 17.140625 0 16.875 C -0.046875 16.621094 -0.046875 16.621094 -0.046875 16.320312 C -0.0507812 16.210938 -0.0507812 16.097656 -0.0507812 15.984375 C -0.0507812 15.804688 -0.0507812 15.804688 -0.0507812 15.621094 C -0.0507812 15.496094 -0.0507812 15.375 -0.0507812 15.246094 C -0.0507812 14.984375 -0.0507812 14.726562 -0.046875 14.464844 C -0.046875 14.128906 -0.046875 13.796875 -0.0507812 13.460938 C -0.0507812 13.140625 -0.0507812 12.824219 -0.0507812 12.503906 C -0.0507812 12.382812 -0.0507812 12.261719 -0.0507812 12.140625 C -0.0507812 12.027344 -0.0507812 11.917969 -0.046875 11.804688 C -0.046875 11.703125 -0.046875 11.605469 -0.046875 11.507812 C 0.0117188 11.183594 0.113281 11.070312 0.375 10.875 C 0.644531 10.847656 0.878906 10.839844 1.148438 10.851562 C 1.253906 10.855469 1.253906 10.855469 1.359375 10.855469 C 1.53125 10.859375 1.703125 10.867188 1.875 10.875 C 1.871094 10.746094 1.871094 10.746094 1.863281 10.617188 C 1.863281 10.507812 1.859375 10.398438 1.855469 10.285156 C 1.855469 10.171875 1.851562 10.0625 1.847656 9.949219 C 1.875 9.65625 1.875 9.65625 1.976562 9.5 C 2.246094 9.3125 2.464844 9.339844 2.789062 9.335938 Z M 0.75 11.625 C 0.75 13.234375 0.75 14.84375 0.75 16.5 C 5.328125 16.5 9.90625 16.5 14.625 16.5 C 14.625 14.890625 14.625 13.28125 14.625 11.625 C 10.046875 11.625 5.46875 11.625 0.75 11.625 Z M 0.75 11.625 "/>
<path style=" stroke:none;fill-rule:nonzero;fill:rgb(0%,0%,0%);fill-opacity:1;" d="M 20.039062 16.085938 C 20.132812 16.085938 20.132812 16.085938 20.226562 16.085938 C 20.355469 16.085938 20.484375 16.085938 20.613281 16.089844 C 20.8125 16.089844 21.007812 16.089844 21.207031 16.085938 C 21.332031 16.085938 21.460938 16.085938 21.585938 16.085938 C 21.699219 16.085938 21.816406 16.089844 21.933594 16.089844 C 22.21875 16.125 22.21875 16.125 22.398438 16.25 C 22.5625 16.503906 22.527344 16.738281 22.519531 17.035156 C 22.515625 17.199219 22.515625 17.199219 22.511719 17.367188 C 22.507812 17.453125 22.503906 17.539062 22.5 17.625 C 22.578125 17.621094 22.652344 17.617188 22.734375 17.613281 C 22.832031 17.609375 22.933594 17.605469 23.039062 17.601562 C 23.140625 17.597656 23.238281 17.59375 23.34375 17.589844 C 23.695312 17.632812 23.78125 17.722656 24 18 C 24.046875 18.257812 24.046875 18.257812 24.046875 18.554688 C 24.050781 18.664062 24.050781 18.777344 24.050781 18.890625 C 24.050781 19.011719 24.050781 19.128906 24.050781 19.253906 C 24.050781 19.378906 24.050781 19.5 24.050781 19.628906 C 24.050781 19.890625 24.050781 20.148438 24.046875 20.410156 C 24.046875 20.746094 24.046875 21.078125 24.050781 21.414062 C 24.050781 21.730469 24.050781 22.050781 24.050781 22.371094 C 24.050781 22.492188 24.050781 22.609375 24.050781 22.734375 C 24.050781 22.902344 24.050781 22.902344 24.046875 23.070312 C 24.046875 23.167969 24.046875 23.269531 24.046875 23.371094 C 23.984375 23.699219 23.886719 23.792969 23.625 24 C 23.351562 24.046875 23.351562 24.046875 23.027344 24.046875 C 22.84375 24.050781 22.84375 24.050781 22.65625 24.050781 C 22.519531 24.050781 22.382812 24.050781 22.246094 24.050781 C 22.101562 24.050781 21.960938 24.050781 21.816406 24.050781 C 21.425781 24.050781 21.035156 24.050781 20.648438 24.050781 C 20.238281 24.050781 19.832031 24.050781 19.421875 24.050781 C 18.738281 24.050781 18.054688 24.050781 17.367188 24.050781 C 16.578125 24.046875 15.785156 24.046875 14.992188 24.050781 C 14.3125 24.050781 13.632812 24.050781 12.953125 24.050781 C 12.546875 24.050781 12.140625 24.050781 11.738281 24.050781 C 11.355469 24.050781 10.972656 24.050781 10.59375 24.050781 C 10.453125 24.050781 10.3125 24.050781 10.171875 24.050781 C 9.980469 24.050781 9.789062 24.050781 9.597656 24.046875 C 9.492188 24.046875 9.382812 24.046875 9.273438 24.046875 C 8.9375 23.988281 8.828125 23.890625 8.625 23.625 C 8.578125 23.371094 8.578125 23.371094 8.578125 23.070312 C 8.574219 22.960938 8.574219 22.847656 8.574219 22.734375 C 8.574219 22.554688 8.574219 22.554688 8.574219 22.371094 C 8.574219 22.246094 8.574219 22.125 8.574219 21.996094 C 8.574219 21.734375 8.574219 21.476562 8.578125 21.214844 C 8.578125 20.878906 8.578125 20.546875 8.574219 20.210938 C 8.574219 19.890625 8.574219 19.574219 8.574219 19.253906 C 8.574219 19.132812 8.574219 19.011719 8.574219 18.890625 C 8.574219 18.777344 8.574219 18.667969 8.578125 18.554688 C 8.578125 18.453125 8.578125 18.355469 8.578125 18.257812 C 8.625 18 8.625 18 8.753906 17.78125 C 9.140625 17.535156 9.523438 17.574219 9.972656 17.582031 C 10.070312 17.582031 10.171875 17.582031 10.269531 17.582031 C 10.597656 17.582031 10.925781 17.585938 11.25 17.589844 C 11.476562 17.589844 11.703125 17.589844 11.929688 17.589844 C 12.527344 17.589844 13.125 17.59375 13.71875 17.597656 C 14.328125 17.601562 14.9375 17.605469 15.542969 17.605469 C 16.738281 17.609375 17.929688 17.617188 19.125 17.625 C 19.121094 17.496094 19.121094 17.496094 19.113281 17.367188 C 19.113281 17.257812 19.109375 17.148438 19.105469 17.035156 C 19.105469 16.921875 19.101562 16.8125 19.097656 16.699219 C 19.125 16.40625 19.125 16.40625 19.25 16.226562 C 19.503906 16.0625 19.738281 16.089844 20.039062 16.085938 Z M 9.375 18.375 C 9.375 19.984375 9.375 21.59375 9.375 23.25 C 13.953125 23.25 18.53125 23.25 23.25 23.25 C 23.25 21.640625 23.25 20.03125 23.25 18.375 C 18.671875 18.375 14.09375 18.375 9.375 18.375 Z M 9.375 18.375 "/>
<path style=" stroke:none;fill-rule:nonzero;fill:rgb(0%,0%,0%);fill-opacity:1;" d="M 1.066406 17.578125 C 1.136719 17.574219 1.203125 17.574219 1.273438 17.574219 C 1.503906 17.574219 1.730469 17.574219 1.957031 17.574219 C 2.117188 17.574219 2.273438 17.574219 2.429688 17.574219 C 2.761719 17.574219 3.09375 17.574219 3.425781 17.578125 C 3.851562 17.578125 4.277344 17.578125 4.703125 17.574219 C 5.027344 17.574219 5.355469 17.574219 5.683594 17.574219 C 5.839844 17.574219 5.996094 17.574219 6.152344 17.574219 C 6.371094 17.574219 6.589844 17.574219 6.808594 17.578125 C 6.875 17.574219 6.9375 17.574219 7.003906 17.574219 C 7.304688 17.578125 7.476562 17.609375 7.726562 17.78125 C 7.914062 18.058594 7.921875 18.222656 7.921875 18.554688 C 7.925781 18.664062 7.925781 18.777344 7.925781 18.890625 C 7.925781 19.011719 7.925781 19.128906 7.925781 19.253906 C 7.925781 19.4375 7.925781 19.4375 7.925781 19.628906 C 7.925781 19.890625 7.925781 20.148438 7.921875 20.410156 C 7.921875 20.746094 7.921875 21.078125 7.925781 21.414062 C 7.925781 21.730469 7.925781 22.050781 7.925781 22.371094 C 7.925781 22.492188 7.925781 22.609375 7.925781 22.734375 C 7.925781 22.847656 7.925781 22.957031 7.921875 23.070312 C 7.921875 23.167969 7.921875 23.269531 7.921875 23.371094 C 7.875 23.625 7.875 23.625 7.726562 23.84375 C 7.425781 24.050781 7.164062 24.050781 6.808594 24.050781 C 6.742188 24.050781 6.671875 24.050781 6.601562 24.050781 C 6.371094 24.050781 6.144531 24.050781 5.917969 24.050781 C 5.757812 24.050781 5.601562 24.050781 5.441406 24.050781 C 5.109375 24.050781 4.78125 24.050781 4.449219 24.050781 C 4.023438 24.046875 3.597656 24.046875 3.171875 24.050781 C 2.847656 24.050781 2.519531 24.050781 2.191406 24.050781 C 2.035156 24.050781 1.878906 24.050781 1.722656 24.050781 C 1.503906 24.050781 1.285156 24.050781 1.066406 24.050781 C 0.96875 24.050781 0.96875 24.050781 0.871094 24.050781 C 0.570312 24.046875 0.394531 24.015625 0.148438 23.84375 C -0.0390625 23.566406 -0.046875 23.402344 -0.046875 23.070312 C -0.0507812 22.960938 -0.0507812 22.847656 -0.0507812 22.734375 C -0.0507812 22.554688 -0.0507812 22.554688 -0.0507812 22.371094 C -0.0507812 22.246094 -0.0507812 22.125 -0.0507812 21.996094 C -0.0507812 21.734375 -0.0507812 21.472656 -0.0507812 21.214844 C -0.046875 20.878906 -0.046875 20.546875 -0.0507812 20.210938 C -0.0507812 19.890625 -0.0507812 19.574219 -0.0507812 19.253906 C -0.0507812 19.132812 -0.0507812 19.011719 -0.0507812 18.890625 C -0.0507812 18.777344 -0.0507812 18.667969 -0.046875 18.554688 C -0.046875 18.453125 -0.046875 18.355469 -0.046875 18.257812 C 0 18 0 18 0.148438 17.78125 C 0.449219 17.574219 0.710938 17.574219 1.066406 17.578125 Z M 0.75 18.375 C 0.75 19.984375 0.75 21.59375 0.75 23.25 C 2.851562 23.25 4.957031 23.25 7.125 23.25 C 7.125 21.640625 7.125 20.03125 7.125 18.375 C 5.019531 18.375 2.917969 18.375 0.75 18.375 Z M 0.75 18.375 "/>
<path style=" stroke:none;fill-rule:nonzero;fill:rgb(88.627452%,31.37255%,48.235294%);fill-opacity:1;" d="M 13.5 0.84375 C 13.910156 0.992188 14.277344 1.199219 14.652344 1.417969 C 14.714844 1.453125 14.773438 1.488281 14.835938 1.523438 C 14.984375 1.609375 15.132812 1.695312 15.28125 1.78125 C 15.167969 2.070312 15.046875 2.347656 14.90625 2.625 C 14.496094 2.476562 14.128906 2.269531 13.753906 2.050781 C 13.691406 2.015625 13.632812 1.980469 13.570312 1.945312 C 13.421875 1.859375 13.273438 1.773438 13.125 1.6875 C 13.238281 1.398438 13.359375 1.121094 13.5 0.84375 Z M 13.5 0.84375 "/>
<path style=" stroke:none;fill-rule:nonzero;fill:rgb(89.019608%,31.37255%,48.235294%);fill-opacity:1;" d="M 17.25 3.09375 C 17.660156 3.242188 18.027344 3.449219 18.402344 3.667969 C 18.464844 3.703125 18.523438 3.738281 18.585938 3.773438 C 18.734375 3.859375 18.882812 3.945312 19.03125 4.03125 C 18.917969 4.351562 18.808594 4.550781 18.5625 4.78125 C 18.3125 4.648438 18.066406 4.515625 17.816406 4.382812 C 17.746094 4.34375 17.675781 4.308594 17.605469 4.269531 C 17.535156 4.234375 17.46875 4.195312 17.398438 4.160156 C 17.335938 4.125 17.273438 4.09375 17.210938 4.058594 C 17.0625 3.9375 17.0625 3.9375 16.988281 3.75 C 16.960938 3.46875 17.09375 3.320312 17.25 3.09375 Z M 17.25 3.09375 "/>
<path style=" stroke:none;fill-rule:nonzero;fill:rgb(88.627452%,31.37255%,48.235294%);fill-opacity:1;" d="M 21 5.34375 C 21.410156 5.492188 21.777344 5.699219 22.152344 5.917969 C 22.214844 5.953125 22.273438 5.988281 22.335938 6.023438 C 22.484375 6.109375 22.632812 6.195312 22.78125 6.28125 C 22.605469 6.726562 22.605469 6.726562 22.5 6.9375 C 22.054688 6.808594 21.683594 6.613281 21.292969 6.363281 C 21.238281 6.328125 21.183594 6.292969 21.125 6.257812 C 20.988281 6.171875 20.855469 6.085938 20.71875 6 C 20.894531 5.554688 20.894531 5.554688 21 5.34375 Z M 21 5.34375 "/>
<path style=" stroke:none;fill-rule:nonzero;fill:rgb(98.431373%,67.843139%,29.019609%);fill-opacity:1;" d="M 19.875 16.875 C 20.492188 16.875 21.113281 16.875 21.75 16.875 C 21.75 17.121094 21.75 17.371094 21.75 17.625 C 21.132812 17.625 20.511719 17.625 19.875 17.625 C 19.875 17.378906 19.875 17.128906 19.875 16.875 Z M 19.875 16.875 "/>
<path style=" stroke:none;fill-rule:nonzero;fill:rgb(16.470589%,55.686277%,90.196079%);fill-opacity:1;" d="M 11.25 10.125 C 11.867188 10.125 12.488281 10.125 13.125 10.125 C 13.125 10.371094 13.125 10.621094 13.125 10.875 C 12.507812 10.875 11.886719 10.875 11.25 10.875 C 11.25 10.628906 11.25 10.378906 11.25 10.125 Z M 11.25 10.125 "/>
<path style=" stroke:none;fill-rule:nonzero;fill:rgb(16.470589%,55.686277%,90.196079%);fill-opacity:1;" d="M 6.75 10.125 C 7.367188 10.125 7.988281 10.125 8.625 10.125 C 8.625 10.371094 8.625 10.621094 8.625 10.875 C 8.007812 10.875 7.386719 10.875 6.75 10.875 C 6.75 10.628906 6.75 10.378906 6.75 10.125 Z M 6.75 10.125 "/>
<path style=" stroke:none;fill-rule:nonzero;fill:rgb(16.470589%,55.686277%,90.196079%);fill-opacity:1;" d="M 2.625 10.125 C 3.242188 10.125 3.863281 10.125 4.5 10.125 C 4.5 10.371094 4.5 10.621094 4.5 10.875 C 3.882812 10.875 3.261719 10.875 2.625 10.875 C 2.625 10.628906 2.625 10.378906 2.625 10.125 Z M 2.625 10.125 "/>
</g>
</svg>
