<?xml version="1.0" encoding="UTF-8"?>
<svg xmlns="http://www.w3.org/2000/svg" xmlns:xlink="http://www.w3.org/1999/xlink" width="24" height="24" viewBox="0 0 24 24" version="1.1">
<g id="surface1">
<path style=" stroke:none;fill-rule:nonzero;fill:rgb(0.392157%,0.392157%,0.392157%);fill-opacity:1;" d="M 12.039062 -0.0351562 C 12.121094 -0.0351562 12.199219 -0.0351562 12.28125 -0.0390625 C 12.730469 -0.0351562 13.050781 -0.0234375 13.40625 0.28125 C 13.664062 0.621094 13.722656 0.894531 13.765625 1.3125 C 13.820312 1.695312 13.851562 1.921875 14.160156 2.167969 C 14.253906 2.226562 14.34375 2.285156 14.4375 2.34375 C 14.46875 2.40625 14.5 2.46875 14.53125 2.53125 C 14.609375 2.53125 14.6875 2.53125 14.765625 2.53125 C 15.5 2.539062 16.230469 2.542969 16.964844 2.554688 C 17.339844 2.558594 17.714844 2.5625 18.09375 2.5625 C 18.457031 2.566406 18.820312 2.570312 19.183594 2.574219 C 19.324219 2.574219 19.460938 2.578125 19.601562 2.578125 C 19.792969 2.578125 19.988281 2.582031 20.183594 2.585938 C 20.292969 2.585938 20.402344 2.585938 20.519531 2.589844 C 20.84375 2.628906 21.019531 2.710938 21.28125 2.90625 C 21.550781 3.320312 21.597656 3.644531 21.597656 4.132812 C 21.597656 4.222656 21.597656 4.222656 21.597656 4.316406 C 21.597656 4.445312 21.597656 4.574219 21.59375 4.703125 C 21.589844 4.898438 21.59375 5.097656 21.59375 5.292969 C 21.589844 6.253906 21.589844 6.253906 21.375 6.46875 C 21.132812 6.484375 21.132812 6.484375 20.90625 6.46875 C 20.734375 6.296875 20.796875 6.03125 20.792969 5.800781 C 20.789062 5.683594 20.785156 5.566406 20.785156 5.449219 C 20.78125 5.199219 20.777344 4.953125 20.773438 4.703125 C 20.769531 4.527344 20.769531 4.527344 20.761719 4.347656 C 20.761719 4.242188 20.757812 4.132812 20.757812 4.019531 C 20.738281 3.757812 20.738281 3.757812 20.609375 3.59375 C 20.363281 3.414062 20.175781 3.429688 19.871094 3.425781 C 19.753906 3.421875 19.640625 3.421875 19.519531 3.417969 C 19.390625 3.417969 19.265625 3.414062 19.136719 3.414062 C 19.007812 3.414062 18.875 3.410156 18.746094 3.410156 C 18.472656 3.410156 18.199219 3.40625 17.921875 3.40625 C 17.574219 3.40625 17.222656 3.398438 16.871094 3.390625 C 16.601562 3.386719 16.332031 3.386719 16.0625 3.386719 C 15.933594 3.386719 15.804688 3.382812 15.675781 3.382812 C 14.949219 3.34375 14.949219 3.34375 14.324219 3.640625 C 14.183594 3.828125 14.070312 4.007812 13.96875 4.21875 C 14.289062 4.746094 14.617188 5.253906 15.015625 5.730469 C 15.8125 6.695312 15.925781 7.695312 15.84375 8.90625 C 15.695312 9.855469 15.1875 10.699219 14.445312 11.300781 C 14.144531 11.511719 13.839844 11.671875 13.5 11.8125 C 13.414062 11.847656 13.328125 11.886719 13.242188 11.921875 C 11.90625 12.257812 10.734375 12.046875 9.5625 11.34375 C 9.375 11.15625 9.375 11.15625 9.285156 10.839844 C 9.195312 10.527344 9.109375 10.371094 8.90625 10.125 C 8.90625 10.0625 8.90625 10 8.90625 9.9375 C 8.835938 9.933594 8.761719 9.933594 8.6875 9.929688 C 8.4375 9.84375 8.4375 9.84375 8.273438 9.550781 C 7.902344 8.523438 7.996094 7.398438 8.453125 6.417969 C 8.761719 5.886719 9.136719 5.402344 9.523438 4.925781 C 9.75 4.640625 9.914062 4.378906 10.03125 4.03125 C 9.972656 4.011719 9.914062 3.988281 9.855469 3.96875 C 9.597656 3.808594 9.570312 3.652344 9.46875 3.375 C 8.703125 3.382812 7.9375 3.386719 7.171875 3.398438 C 6.816406 3.402344 6.460938 3.40625 6.109375 3.40625 C 5.765625 3.410156 5.421875 3.414062 5.078125 3.417969 C 4.949219 3.417969 4.816406 3.421875 4.6875 3.421875 C 4.503906 3.421875 4.320312 3.425781 4.136719 3.429688 C 3.980469 3.429688 3.980469 3.429688 3.820312 3.433594 C 3.566406 3.453125 3.566406 3.453125 3.390625 3.570312 C 3.222656 3.847656 3.242188 4.082031 3.242188 4.402344 C 3.238281 4.46875 3.238281 4.535156 3.238281 4.601562 C 3.234375 4.820312 3.234375 5.035156 3.234375 5.253906 C 3.230469 5.40625 3.230469 5.554688 3.226562 5.707031 C 3.222656 6.105469 3.222656 6.5 3.21875 6.898438 C 3.214844 7.304688 3.210938 7.707031 3.207031 8.113281 C 3.199219 8.910156 3.191406 9.703125 3.1875 10.5 C 3.246094 10.511719 3.304688 10.523438 3.363281 10.535156 C 3.4375 10.554688 3.515625 10.570312 3.59375 10.585938 C 3.667969 10.601562 3.746094 10.617188 3.824219 10.636719 C 4.457031 10.792969 4.960938 11.265625 5.324219 11.792969 C 5.757812 12.574219 5.832031 13.390625 5.617188 14.25 C 5.375 14.984375 4.90625 15.53125 4.253906 15.941406 C 3.910156 16.082031 3.550781 16.144531 3.1875 16.21875 C 3.195312 16.679688 3.203125 17.144531 3.210938 17.605469 C 3.214844 17.761719 3.21875 17.917969 3.21875 18.078125 C 3.222656 18.304688 3.226562 18.527344 3.234375 18.753906 C 3.234375 18.824219 3.234375 18.894531 3.234375 18.96875 C 3.246094 19.347656 3.246094 19.347656 3.402344 19.683594 C 3.683594 19.855469 4.007812 19.835938 4.328125 19.84375 C 4.398438 19.847656 4.46875 19.851562 4.542969 19.855469 C 4.714844 19.863281 4.890625 19.867188 5.0625 19.875 C 5.058594 19.765625 5.054688 19.65625 5.050781 19.542969 C 5.046875 19.398438 5.042969 19.253906 5.039062 19.109375 C 5.035156 19.035156 5.03125 18.964844 5.03125 18.890625 C 5.023438 18.535156 5.042969 18.320312 5.203125 17.996094 C 5.527344 17.742188 5.816406 17.761719 6.210938 17.78125 C 6.316406 17.785156 6.316406 17.785156 6.421875 17.789062 C 6.59375 17.796875 6.765625 17.804688 6.9375 17.8125 C 6.9375 17.757812 6.941406 17.703125 6.941406 17.644531 C 6.964844 17.230469 6.988281 17.023438 7.253906 16.6875 C 7.585938 16.433594 7.824219 16.394531 8.230469 16.390625 C 8.367188 16.390625 8.367188 16.390625 8.507812 16.386719 C 8.605469 16.386719 8.703125 16.386719 8.804688 16.386719 C 8.902344 16.386719 9.003906 16.386719 9.109375 16.386719 C 9.324219 16.386719 9.535156 16.382812 9.75 16.382812 C 10.078125 16.382812 10.402344 16.378906 10.730469 16.375 C 10.9375 16.375 11.144531 16.375 11.351562 16.375 C 11.449219 16.375 11.546875 16.371094 11.648438 16.371094 C 11.785156 16.371094 11.785156 16.371094 11.925781 16.371094 C 12.007812 16.371094 12.085938 16.371094 12.167969 16.371094 C 12.421875 16.414062 12.488281 16.5 12.65625 16.6875 C 12.867188 16.742188 12.867188 16.742188 13.09375 16.75 C 13.210938 16.761719 13.210938 16.761719 13.324219 16.769531 C 13.382812 16.773438 13.441406 16.777344 13.5 16.78125 C 13.5625 16.65625 13.625 16.535156 13.6875 16.40625 C 14.304688 16.398438 14.921875 16.394531 15.539062 16.390625 C 15.75 16.390625 15.957031 16.386719 16.167969 16.386719 C 16.46875 16.382812 16.773438 16.378906 17.074219 16.378906 C 17.214844 16.375 17.214844 16.375 17.359375 16.375 C 17.855469 16.375 18.242188 16.378906 18.65625 16.6875 C 18.925781 17.085938 18.972656 17.402344 18.964844 17.878906 C 18.964844 17.996094 18.964844 18.113281 18.960938 18.234375 C 18.960938 18.351562 18.957031 18.472656 18.953125 18.597656 C 18.953125 18.71875 18.953125 18.84375 18.953125 18.96875 C 18.949219 19.273438 18.941406 19.574219 18.9375 19.875 C 19.183594 19.867188 19.425781 19.855469 19.671875 19.84375 C 19.738281 19.84375 19.808594 19.839844 19.878906 19.839844 C 20.253906 19.824219 20.253906 19.824219 20.597656 19.683594 C 20.789062 19.394531 20.761719 19.089844 20.765625 18.753906 C 20.769531 18.683594 20.769531 18.609375 20.773438 18.535156 C 20.777344 18.304688 20.78125 18.074219 20.78125 17.84375 C 20.785156 17.683594 20.789062 17.527344 20.792969 17.371094 C 20.800781 16.988281 20.808594 16.601562 20.8125 16.21875 C 20.757812 16.207031 20.699219 16.199219 20.644531 16.1875 C 19.792969 16.011719 19.175781 15.652344 18.675781 14.925781 C 18.273438 14.195312 18.152344 13.394531 18.34375 12.582031 C 18.628906 11.691406 19.117188 11.128906 19.929688 10.679688 C 20.21875 10.570312 20.503906 10.535156 20.8125 10.5 C 20.808594 10.4375 20.808594 10.375 20.804688 10.3125 C 20.800781 10.027344 20.792969 9.742188 20.789062 9.457031 C 20.785156 9.359375 20.78125 9.261719 20.78125 9.160156 C 20.773438 8.589844 20.777344 8.214844 21.1875 7.78125 C 21.441406 7.566406 21.703125 7.371094 21.976562 7.183594 C 22.046875 7.132812 22.117188 7.082031 22.191406 7.027344 C 22.261719 6.980469 22.328125 6.933594 22.398438 6.882812 C 22.492188 6.816406 22.492188 6.816406 22.585938 6.75 C 22.828125 6.632812 22.988281 6.625 23.25 6.65625 C 23.4375 6.84375 23.4375 6.84375 23.449219 7.101562 C 23.292969 7.550781 22.992188 7.699219 22.597656 7.9375 C 22.460938 8.027344 22.324219 8.117188 22.1875 8.203125 C 22.125 8.242188 22.066406 8.28125 22 8.320312 C 21.78125 8.484375 21.667969 8.640625 21.625 8.914062 C 21.625 8.988281 21.621094 9.058594 21.617188 9.136719 C 21.613281 9.214844 21.609375 9.292969 21.605469 9.375 C 21.601562 9.457031 21.601562 9.542969 21.597656 9.625 C 21.59375 9.753906 21.59375 9.753906 21.585938 9.878906 C 21.578125 10.085938 21.570312 10.292969 21.5625 10.5 C 21.617188 10.511719 21.675781 10.519531 21.734375 10.53125 C 22.5625 10.699219 23.042969 11.085938 23.59375 11.71875 C 23.9375 12.238281 24.046875 12.691406 24.035156 13.304688 C 24.035156 13.371094 24.03125 13.441406 24.03125 13.507812 C 24.003906 14.425781 23.730469 14.878906 23.101562 15.542969 C 22.625 15.980469 22.191406 16.117188 21.5625 16.21875 C 21.566406 16.382812 21.566406 16.382812 21.566406 16.546875 C 21.570312 16.949219 21.574219 17.351562 21.578125 17.753906 C 21.578125 17.929688 21.582031 18.105469 21.582031 18.277344 C 21.585938 18.527344 21.589844 18.777344 21.589844 19.03125 C 21.589844 19.105469 21.59375 19.183594 21.59375 19.265625 C 21.59375 19.703125 21.5625 19.984375 21.28125 20.34375 C 20.855469 20.71875 20.382812 20.65625 19.84375 20.640625 C 19.757812 20.640625 19.671875 20.640625 19.582031 20.636719 C 19.367188 20.636719 19.152344 20.632812 18.9375 20.625 C 18.9375 20.703125 18.941406 20.777344 18.941406 20.855469 C 18.949219 21.207031 18.953125 21.554688 18.953125 21.902344 C 18.957031 22.023438 18.960938 22.144531 18.960938 22.265625 C 18.964844 22.441406 18.964844 22.441406 18.964844 22.621094 C 18.96875 22.78125 18.96875 22.78125 18.96875 22.945312 C 18.933594 23.292969 18.839844 23.515625 18.65625 23.8125 C 18.355469 24.011719 18.277344 24.023438 17.929688 24.027344 C 17.839844 24.027344 17.75 24.027344 17.65625 24.027344 C 17.554688 24.027344 17.453125 24.027344 17.351562 24.027344 C 17.246094 24.03125 17.140625 24.03125 17.03125 24.03125 C 16.683594 24.035156 16.335938 24.035156 15.984375 24.035156 C 15.742188 24.035156 15.5 24.035156 15.257812 24.035156 C 14.75 24.039062 14.242188 24.039062 13.734375 24.039062 C 13.144531 24.039062 12.558594 24.042969 11.972656 24.046875 C 11.40625 24.050781 10.839844 24.050781 10.277344 24.050781 C 10.035156 24.050781 9.796875 24.054688 9.554688 24.054688 C 9.21875 24.058594 8.882812 24.058594 8.546875 24.054688 C 8.398438 24.058594 8.398438 24.058594 8.246094 24.058594 C 7.570312 24.054688 7.570312 24.054688 7.203125 23.777344 C 7.023438 23.519531 6.96875 23.386719 6.953125 23.078125 C 6.949219 22.96875 6.949219 22.96875 6.941406 22.855469 C 6.941406 22.800781 6.9375 22.746094 6.9375 22.6875 C 6.792969 22.695312 6.792969 22.695312 6.648438 22.703125 C 6.519531 22.707031 6.390625 22.710938 6.265625 22.71875 C 6.167969 22.722656 6.167969 22.722656 6.070312 22.726562 C 5.726562 22.738281 5.542969 22.695312 5.253906 22.503906 C 4.996094 22.121094 5.007812 21.84375 5.03125 21.390625 C 5.035156 21.316406 5.039062 21.246094 5.039062 21.167969 C 5.046875 20.988281 5.054688 20.804688 5.0625 20.625 C 4.980469 20.628906 4.980469 20.628906 4.898438 20.628906 C 4.648438 20.636719 4.402344 20.636719 4.15625 20.640625 C 4.070312 20.644531 3.984375 20.648438 3.894531 20.648438 C 3.074219 20.660156 3.074219 20.660156 2.71875 20.34375 C 2.382812 19.917969 2.402344 19.546875 2.410156 19.03125 C 2.410156 18.949219 2.410156 18.867188 2.410156 18.785156 C 2.414062 18.527344 2.417969 18.273438 2.421875 18.015625 C 2.421875 17.84375 2.421875 17.667969 2.425781 17.496094 C 2.425781 17.070312 2.429688 16.644531 2.4375 16.21875 C 2.320312 16.191406 2.203125 16.164062 2.082031 16.132812 C 1.210938 15.925781 0.652344 15.386719 0.171875 14.644531 C -0.144531 13.96875 -0.125 12.984375 0.0820312 12.28125 C 0.425781 11.539062 0.949219 11.015625 1.679688 10.660156 C 1.929688 10.574219 2.175781 10.539062 2.4375 10.5 C 2.4375 10.414062 2.4375 10.324219 2.433594 10.238281 C 2.429688 9.417969 2.425781 8.597656 2.421875 7.777344 C 2.421875 7.359375 2.417969 6.9375 2.417969 6.515625 C 2.414062 6.109375 2.410156 5.703125 2.410156 5.296875 C 2.410156 5.140625 2.410156 4.984375 2.40625 4.832031 C 2.40625 4.613281 2.40625 4.394531 2.40625 4.179688 C 2.40625 4.054688 2.40625 3.929688 2.402344 3.804688 C 2.453125 3.335938 2.5625 3.035156 2.929688 2.730469 C 3.242188 2.601562 3.480469 2.589844 3.816406 2.59375 C 3.878906 2.59375 3.941406 2.59375 4.003906 2.59375 C 4.203125 2.59375 4.40625 2.59375 4.609375 2.597656 C 4.746094 2.597656 4.886719 2.597656 5.027344 2.597656 C 5.394531 2.601562 5.761719 2.601562 6.132812 2.605469 C 6.507812 2.609375 6.882812 2.609375 7.257812 2.613281 C 7.996094 2.613281 8.734375 2.617188 9.46875 2.625 C 9.492188 2.550781 9.515625 2.476562 9.542969 2.402344 C 9.65625 2.15625 9.65625 2.15625 9.988281 2 C 10.171875 1.914062 10.171875 1.914062 10.3125 1.78125 C 10.371094 1.542969 10.375 1.320312 10.386719 1.074219 C 10.421875 0.664062 10.652344 0.417969 10.925781 0.128906 C 11.285156 -0.0703125 11.636719 -0.0390625 12.039062 -0.0351562 Z M 12.039062 -0.0351562 "/>
<path style=" stroke:none;fill-rule:nonzero;fill:rgb(21.176471%,36.470589%,48.627451%);fill-opacity:1;" d="M 12.5625 16.78125 C 12.714844 16.773438 12.867188 16.769531 13.019531 16.761719 C 13.105469 16.761719 13.1875 16.757812 13.277344 16.753906 C 13.386719 16.765625 13.386719 16.765625 13.5 16.78125 C 13.5625 16.875 13.625 16.96875 13.6875 17.0625 C 13.878906 17.105469 13.878906 17.105469 14.101562 17.101562 C 14.230469 17.101562 14.230469 17.101562 14.363281 17.105469 C 14.453125 17.105469 14.546875 17.105469 14.644531 17.105469 C 14.738281 17.105469 14.832031 17.105469 14.929688 17.109375 C 15.234375 17.109375 15.539062 17.113281 15.84375 17.113281 C 16.148438 17.117188 16.453125 17.121094 16.757812 17.125 C 16.945312 17.125 17.136719 17.128906 17.324219 17.128906 C 17.414062 17.128906 17.496094 17.128906 17.585938 17.132812 C 17.660156 17.132812 17.738281 17.132812 17.816406 17.132812 C 18 17.15625 18 17.15625 18.1875 17.34375 C 18.210938 17.585938 18.210938 17.585938 18.210938 17.894531 C 18.210938 18.011719 18.210938 18.128906 18.214844 18.246094 C 18.210938 18.375 18.210938 18.5 18.210938 18.628906 C 18.210938 18.757812 18.210938 18.886719 18.210938 19.015625 C 18.210938 19.289062 18.210938 19.558594 18.210938 19.832031 C 18.210938 20.179688 18.210938 20.527344 18.210938 20.878906 C 18.214844 21.144531 18.210938 21.414062 18.210938 21.679688 C 18.210938 21.808594 18.210938 21.9375 18.210938 22.066406 C 18.214844 22.246094 18.210938 22.425781 18.210938 22.605469 C 18.210938 22.707031 18.210938 22.808594 18.210938 22.914062 C 18.1875 23.15625 18.1875 23.15625 18 23.34375 C 17.820312 23.367188 17.820312 23.367188 17.59375 23.367188 C 17.464844 23.367188 17.464844 23.367188 17.335938 23.367188 C 17.242188 23.367188 17.148438 23.367188 17.050781 23.367188 C 16.953125 23.367188 16.855469 23.367188 16.753906 23.367188 C 16.425781 23.371094 16.101562 23.367188 15.773438 23.367188 C 15.546875 23.367188 15.320312 23.367188 15.09375 23.367188 C 14.621094 23.367188 14.144531 23.367188 13.671875 23.367188 C 13.058594 23.367188 12.449219 23.367188 11.839844 23.367188 C 11.375 23.371094 10.90625 23.367188 10.4375 23.367188 C 10.214844 23.367188 9.988281 23.367188 9.765625 23.367188 C 9.449219 23.371094 9.136719 23.367188 8.824219 23.367188 C 8.683594 23.367188 8.683594 23.367188 8.539062 23.367188 C 8.453125 23.367188 8.367188 23.367188 8.28125 23.367188 C 8.207031 23.367188 8.132812 23.367188 8.054688 23.367188 C 7.875 23.34375 7.875 23.34375 7.6875 23.15625 C 7.664062 22.914062 7.664062 22.914062 7.664062 22.605469 C 7.664062 22.488281 7.664062 22.371094 7.660156 22.253906 C 7.664062 22.125 7.664062 22 7.664062 21.871094 C 7.664062 21.742188 7.664062 21.613281 7.664062 21.484375 C 7.664062 21.210938 7.664062 20.941406 7.664062 20.667969 C 7.664062 20.320312 7.664062 19.972656 7.664062 19.621094 C 7.660156 19.355469 7.664062 19.085938 7.664062 18.820312 C 7.664062 18.691406 7.664062 18.5625 7.664062 18.433594 C 7.660156 18.253906 7.664062 18.074219 7.664062 17.894531 C 7.664062 17.792969 7.664062 17.691406 7.664062 17.585938 C 7.6875 17.34375 7.6875 17.34375 7.875 17.15625 C 8.070312 17.128906 8.070312 17.128906 8.320312 17.125 C 8.457031 17.125 8.457031 17.125 8.597656 17.121094 C 8.746094 17.117188 8.746094 17.117188 8.898438 17.117188 C 9.050781 17.113281 9.050781 17.113281 9.207031 17.113281 C 9.53125 17.105469 9.859375 17.101562 10.183594 17.097656 C 10.40625 17.09375 10.625 17.089844 10.84375 17.085938 C 11.386719 17.078125 11.929688 17.070312 12.46875 17.0625 C 12.5 16.96875 12.53125 16.875 12.5625 16.78125 Z M 12.5625 16.78125 "/>
<path style=" stroke:none;fill-rule:nonzero;fill:rgb(98.823529%,83.529413%,43.921569%);fill-opacity:1;" d="M 10.78125 4.21875 C 11.058594 4.21875 11.339844 4.21875 11.625 4.21875 C 11.640625 4.640625 11.648438 5.058594 11.65625 5.480469 C 11.660156 5.625 11.664062 5.765625 11.667969 5.910156 C 11.675781 6.113281 11.675781 6.320312 11.679688 6.527344 C 11.683594 6.589844 11.6875 6.652344 11.6875 6.71875 C 11.6875 6.902344 11.6875 6.902344 11.625 7.21875 C 11.351562 7.429688 11.351562 7.429688 11.0625 7.59375 C 10.785156 8.011719 10.816406 8.414062 10.875 8.90625 C 11.0625 9.238281 11.257812 9.445312 11.625 9.5625 C 12.113281 9.609375 12.4375 9.558594 12.84375 9.28125 C 13.097656 8.917969 13.179688 8.585938 13.164062 8.152344 C 13.070312 7.714844 12.734375 7.457031 12.375 7.21875 C 12.351562 6.984375 12.34375 6.777344 12.347656 6.542969 C 12.347656 6.476562 12.347656 6.410156 12.347656 6.34375 C 12.351562 6.132812 12.351562 5.917969 12.355469 5.707031 C 12.359375 5.5625 12.359375 5.417969 12.359375 5.277344 C 12.363281 4.921875 12.371094 4.570312 12.375 4.21875 C 12.621094 4.21875 12.871094 4.21875 13.125 4.21875 C 13.152344 4.277344 13.183594 4.335938 13.210938 4.398438 C 13.496094 4.957031 13.820312 5.4375 14.214844 5.917969 C 14.976562 6.867188 15.222656 7.558594 15.09375 8.8125 C 14.921875 9.621094 14.535156 10.242188 13.871094 10.738281 C 13.6875 10.855469 13.507812 10.964844 13.3125 11.0625 C 13.246094 11.097656 13.175781 11.132812 13.109375 11.164062 C 12.378906 11.398438 11.429688 11.382812 10.714844 11.125 C 10.425781 10.96875 10.425781 10.96875 10.175781 10.808594 C 9.890625 10.664062 9.691406 10.683594 9.375 10.6875 C 9.023438 10.394531 9.023438 10.394531 8.90625 10.125 C 8.902344 9.894531 8.929688 9.691406 8.972656 9.464844 C 9.019531 9.273438 9.019531 9.273438 8.90625 9.09375 C 8.753906 7.667969 9.011719 6.816406 9.894531 5.714844 C 9.964844 5.628906 9.964844 5.628906 10.035156 5.542969 C 10.371094 5.125 10.597656 4.726562 10.78125 4.21875 Z M 10.78125 4.21875 "/>
<path style=" stroke:none;fill-rule:nonzero;fill:rgb(93.725491%,47.450981%,47.843137%);fill-opacity:1;" d="M 22.332031 11.5 C 22.730469 11.796875 23.070312 12.191406 23.25 12.65625 C 23.328125 13.304688 23.371094 13.96875 23.015625 14.542969 C 22.671875 14.980469 22.238281 15.222656 21.75 15.46875 C 21.054688 15.535156 20.445312 15.527344 19.875 15.09375 C 19.34375 14.605469 19.023438 14.050781 18.992188 13.316406 C 19.015625 12.632812 19.269531 12.191406 19.769531 11.730469 C 20.5 11.140625 21.5 11.019531 22.332031 11.5 Z M 22.332031 11.5 "/>
<path style=" stroke:none;fill-rule:nonzero;fill:rgb(15.686275%,28.235295%,37.254903%);fill-opacity:1;" d="M 13.78125 17.15625 C 14.378906 17.152344 14.976562 17.148438 15.574219 17.144531 C 15.777344 17.144531 15.980469 17.144531 16.183594 17.140625 C 16.476562 17.140625 16.765625 17.136719 17.058594 17.136719 C 17.148438 17.136719 17.242188 17.136719 17.335938 17.132812 C 17.417969 17.132812 17.503906 17.132812 17.589844 17.132812 C 17.667969 17.132812 17.742188 17.132812 17.816406 17.132812 C 18 17.15625 18 17.15625 18.1875 17.34375 C 18.210938 17.585938 18.210938 17.585938 18.210938 17.894531 C 18.210938 18.011719 18.210938 18.128906 18.214844 18.246094 C 18.210938 18.375 18.210938 18.5 18.210938 18.628906 C 18.210938 18.757812 18.210938 18.886719 18.210938 19.015625 C 18.210938 19.289062 18.210938 19.558594 18.210938 19.832031 C 18.210938 20.179688 18.210938 20.527344 18.210938 20.878906 C 18.214844 21.144531 18.210938 21.414062 18.210938 21.679688 C 18.210938 21.808594 18.210938 21.9375 18.210938 22.066406 C 18.214844 22.246094 18.210938 22.425781 18.210938 22.605469 C 18.210938 22.707031 18.210938 22.808594 18.210938 22.914062 C 18.1875 23.15625 18.1875 23.15625 18 23.34375 C 17.820312 23.367188 17.820312 23.367188 17.59375 23.367188 C 17.464844 23.367188 17.464844 23.367188 17.335938 23.367188 C 17.242188 23.367188 17.148438 23.367188 17.050781 23.367188 C 16.953125 23.367188 16.855469 23.367188 16.753906 23.367188 C 16.425781 23.371094 16.101562 23.367188 15.773438 23.367188 C 15.546875 23.367188 15.320312 23.367188 15.09375 23.367188 C 14.621094 23.367188 14.144531 23.367188 13.671875 23.367188 C 13.058594 23.367188 12.449219 23.367188 11.839844 23.367188 C 11.375 23.371094 10.90625 23.367188 10.4375 23.367188 C 10.214844 23.367188 9.988281 23.367188 9.765625 23.367188 C 9.449219 23.371094 9.136719 23.367188 8.824219 23.367188 C 8.683594 23.367188 8.683594 23.367188 8.539062 23.367188 C 8.453125 23.367188 8.367188 23.367188 8.28125 23.367188 C 8.207031 23.367188 8.132812 23.367188 8.054688 23.367188 C 7.875 23.34375 7.875 23.34375 7.6875 23.15625 C 7.664062 22.914062 7.664062 22.914062 7.664062 22.601562 C 7.664062 22.484375 7.664062 22.367188 7.664062 22.25 C 7.667969 22.121094 7.667969 21.992188 7.667969 21.867188 C 7.667969 21.734375 7.667969 21.605469 7.667969 21.476562 C 7.671875 21.132812 7.671875 20.789062 7.675781 20.449219 C 7.675781 20.101562 7.675781 19.75 7.679688 19.402344 C 7.679688 18.714844 7.683594 18.027344 7.6875 17.34375 C 7.71875 17.34375 7.75 17.34375 7.78125 17.34375 C 7.78125 19.046875 7.78125 20.746094 7.78125 22.5 C 10.96875 22.5 14.15625 22.5 17.4375 22.5 C 17.4375 20.765625 17.4375 19.035156 17.4375 17.25 C 16.230469 17.25 15.023438 17.25 13.78125 17.25 C 13.78125 17.21875 13.78125 17.1875 13.78125 17.15625 Z M 13.78125 17.15625 "/>
<path style=" stroke:none;fill-rule:nonzero;fill:rgb(29.803923%,76.862746%,66.666669%);fill-opacity:1;" d="M 2.90625 11.25 C 3.34375 11.558594 3.65625 11.96875 3.84375 12.46875 C 3.863281 12.738281 3.863281 12.738281 3.84375 12.9375 C 3.628906 12.9375 3.410156 12.9375 3.1875 12.9375 C 3.15625 12.722656 3.125 12.503906 3.09375 12.28125 C 2.898438 12.230469 2.734375 12.1875 2.53125 12.1875 C 2.53125 12.464844 2.53125 12.746094 2.53125 13.03125 C 2.253906 13.0625 1.972656 13.09375 1.6875 13.125 C 1.71875 13.28125 1.75 13.433594 1.78125 13.59375 C 1.996094 13.625 2.214844 13.65625 2.4375 13.6875 C 2.449219 13.792969 2.460938 13.898438 2.472656 14.003906 C 2.5 14.347656 2.5 14.347656 2.71875 14.53125 C 2.917969 14.5 2.917969 14.5 3.09375 14.4375 C 3.125 14.222656 3.15625 14.003906 3.1875 13.78125 C 3.402344 13.78125 3.621094 13.78125 3.84375 13.78125 C 3.785156 14.40625 3.507812 14.796875 3.070312 15.230469 C 2.796875 15.449219 2.722656 15.46875 2.347656 15.492188 C 1.757812 15.359375 1.300781 14.960938 0.9375 14.488281 C 0.621094 13.925781 0.65625 13.277344 0.75 12.65625 C 0.992188 12.046875 1.417969 11.675781 1.96875 11.34375 C 2.320312 11.226562 2.535156 11.199219 2.90625 11.25 Z M 2.90625 11.25 "/>
<path style=" stroke:none;fill-rule:nonzero;fill:rgb(14.901961%,70.980394%,60.000002%);fill-opacity:1;" d="M 2.90625 11.25 C 3.625 11.300781 4.035156 11.5 4.523438 12.042969 C 4.910156 12.519531 5.019531 12.914062 5.003906 13.527344 C 4.910156 14.214844 4.546875 14.761719 4.003906 15.175781 C 3.570312 15.460938 3.234375 15.488281 2.71875 15.46875 C 2.789062 15.402344 2.859375 15.332031 2.929688 15.261719 C 3.394531 14.789062 3.632812 14.40625 3.84375 13.78125 C 3.628906 13.78125 3.410156 13.78125 3.1875 13.78125 C 3.191406 13.886719 3.195312 13.992188 3.199219 14.097656 C 3.1875 14.4375 3.1875 14.4375 3 14.625 C 2.726562 14.589844 2.636719 14.542969 2.4375 14.34375 C 2.425781 14.003906 2.425781 14.003906 2.4375 13.6875 C 2.28125 13.691406 2.28125 13.691406 2.121094 13.699219 C 1.78125 13.6875 1.78125 13.6875 1.59375 13.5 C 1.628906 13.253906 1.628906 13.253906 1.6875 13.03125 C 1.964844 13.03125 2.246094 13.03125 2.53125 13.03125 C 2.53125 12.753906 2.53125 12.472656 2.53125 12.1875 C 2.753906 12.128906 2.753906 12.128906 3 12.09375 C 3.1875 12.28125 3.1875 12.28125 3.199219 12.621094 C 3.195312 12.726562 3.191406 12.828125 3.1875 12.9375 C 3.402344 12.9375 3.621094 12.9375 3.84375 12.9375 C 3.695312 12.332031 3.472656 11.9375 3.039062 11.488281 C 2.90625 11.34375 2.90625 11.34375 2.90625 11.25 Z M 2.90625 11.25 "/>
<path style=" stroke:none;fill-rule:nonzero;fill:rgb(86.666667%,37.64706%,41.568628%);fill-opacity:1;" d="M 21.28125 11.25 C 21.875 11.296875 22.351562 11.445312 22.757812 11.902344 C 23.289062 12.605469 23.339844 13.195312 23.25 14.0625 C 22.976562 14.789062 22.417969 15.136719 21.75 15.46875 C 21.53125 15.472656 21.3125 15.472656 21.09375 15.46875 C 21.160156 15.40625 21.230469 15.34375 21.300781 15.28125 C 21.757812 14.820312 22.027344 14.304688 22.21875 13.6875 C 22.152344 13.6875 22.089844 13.6875 22.023438 13.6875 C 21.730469 13.691406 21.4375 13.691406 21.144531 13.691406 C 21.042969 13.695312 20.941406 13.695312 20.835938 13.695312 C 20.742188 13.695312 20.644531 13.695312 20.542969 13.695312 C 20.453125 13.695312 20.363281 13.699219 20.269531 13.699219 C 20.0625 13.6875 20.0625 13.6875 19.96875 13.59375 C 19.949219 13.363281 19.949219 13.363281 19.96875 13.125 C 20.15625 12.9375 20.15625 12.9375 20.367188 12.914062 C 20.453125 12.917969 20.539062 12.917969 20.625 12.917969 C 20.71875 12.917969 20.8125 12.921875 20.90625 12.921875 C 21.050781 12.921875 21.050781 12.921875 21.199219 12.925781 C 21.296875 12.925781 21.394531 12.925781 21.496094 12.929688 C 21.734375 12.929688 21.976562 12.933594 22.21875 12.9375 C 22.175781 12.820312 22.132812 12.699219 22.089844 12.582031 C 22.066406 12.515625 22.042969 12.449219 22.015625 12.382812 C 21.84375 11.960938 21.554688 11.605469 21.28125 11.25 Z M 21.28125 11.25 "/>
<path style=" stroke:none;fill-rule:nonzero;fill:rgb(97.254902%,96.470588%,96.862745%);fill-opacity:1;" d="M 5.8125 18.46875 C 6.214844 18.46875 6.617188 18.46875 7.03125 18.46875 C 7.03125 19.613281 7.03125 20.757812 7.03125 21.9375 C 6.628906 21.9375 6.226562 21.9375 5.8125 21.9375 C 5.8125 20.792969 5.8125 19.648438 5.8125 18.46875 Z M 5.8125 18.46875 "/>
<path style=" stroke:none;fill-rule:nonzero;fill:rgb(0.392157%,0.784314%,1.176471%);fill-opacity:1;" d="M 13.21875 17.90625 C 13.566406 17.972656 13.566406 17.972656 13.6875 18.09375 C 13.734375 18.417969 13.695312 18.550781 13.523438 18.832031 C 13.453125 18.925781 13.382812 19.015625 13.3125 19.105469 C 13.242188 19.199219 13.171875 19.289062 13.101562 19.382812 C 13.046875 19.453125 12.992188 19.523438 12.9375 19.59375 C 13.042969 19.605469 13.148438 19.617188 13.253906 19.628906 C 13.59375 19.6875 13.59375 19.6875 13.78125 19.875 C 13.769531 20.445312 13.566406 20.773438 13.230469 21.210938 C 13.1875 21.269531 13.148438 21.324219 13.101562 21.382812 C 12.683594 21.953125 12.683594 21.953125 12.46875 22.125 C 12.261719 22.097656 12.261719 22.097656 12.09375 22.03125 C 12.019531 21.835938 12.019531 21.835938 12 21.5625 C 12.128906 21.328125 12.257812 21.132812 12.417969 20.925781 C 12.457031 20.867188 12.496094 20.8125 12.539062 20.753906 C 12.640625 20.617188 12.742188 20.480469 12.84375 20.34375 C 12.664062 20.347656 12.664062 20.347656 12.480469 20.355469 C 12.277344 20.363281 12.277344 20.363281 12.09375 20.34375 C 12.03125 20.28125 11.96875 20.21875 11.90625 20.15625 C 11.90625 19.585938 12.238281 19.207031 12.5625 18.769531 C 12.613281 18.695312 12.667969 18.621094 12.722656 18.546875 C 13.101562 18.023438 13.101562 18.023438 13.21875 17.90625 Z M 13.21875 17.90625 "/>
<path style=" stroke:none;fill-rule:nonzero;fill:rgb(96.078432%,71.372551%,33.725491%);fill-opacity:1;" d="M 12.5625 4.21875 C 12.75 4.21875 12.933594 4.21875 13.125 4.21875 C 13.152344 4.277344 13.183594 4.335938 13.210938 4.398438 C 13.496094 4.957031 13.820312 5.4375 14.214844 5.917969 C 14.976562 6.867188 15.222656 7.558594 15.09375 8.8125 C 14.921875 9.625 14.53125 10.257812 13.851562 10.742188 C 13.675781 10.855469 13.496094 10.960938 13.3125 11.0625 C 13.3125 10.96875 13.3125 10.875 13.3125 10.78125 C 13.378906 10.722656 13.445312 10.660156 13.511719 10.597656 C 14.085938 10.0625 14.390625 9.230469 14.460938 8.460938 C 14.492188 7.246094 14.050781 6.46875 13.3125 5.53125 C 12.695312 4.75 12.695312 4.75 12.5625 4.21875 Z M 12.5625 4.21875 "/>
<path style=" stroke:none;fill-rule:nonzero;fill:rgb(97.254902%,96.470588%,96.862745%);fill-opacity:1;" d="M 10.890625 2.503906 C 10.957031 2.503906 11.023438 2.507812 11.089844 2.507812 C 11.191406 2.507812 11.191406 2.507812 11.296875 2.507812 C 11.441406 2.507812 11.582031 2.507812 11.726562 2.507812 C 11.945312 2.507812 12.164062 2.507812 12.382812 2.503906 C 12.523438 2.507812 12.664062 2.507812 12.800781 2.507812 C 12.867188 2.507812 12.933594 2.503906 13 2.503906 C 13.34375 2.507812 13.488281 2.523438 13.78125 2.71875 C 13.816406 3 13.816406 3 13.78125 3.28125 C 13.445312 3.507812 13.195312 3.496094 12.804688 3.496094 C 12.703125 3.496094 12.703125 3.496094 12.601562 3.496094 C 12.457031 3.5 12.316406 3.5 12.171875 3.496094 C 11.953125 3.496094 11.734375 3.5 11.515625 3.503906 C 11.378906 3.503906 11.238281 3.503906 11.101562 3.503906 C 11.003906 3.503906 11.003906 3.503906 10.902344 3.503906 C 10.628906 3.503906 10.449219 3.496094 10.222656 3.339844 C 10.125 3.1875 10.125 3.1875 10.144531 2.949219 C 10.285156 2.519531 10.472656 2.507812 10.890625 2.503906 Z M 10.890625 2.503906 "/>
<path style=" stroke:none;fill-rule:nonzero;fill:rgb(0.784314%,2.352941%,1.960784%);fill-opacity:1;" d="M 3.09375 12.1875 C 3.1875 12.28125 3.1875 12.28125 3.195312 12.453125 C 3.195312 12.648438 3.191406 12.839844 3.1875 13.03125 C 3.308594 13.03125 3.429688 13.027344 3.558594 13.027344 C 3.683594 13.023438 3.8125 13.023438 3.9375 13.03125 C 4.03125 13.125 4.03125 13.125 4.042969 13.359375 C 4.03125 13.59375 4.03125 13.59375 3.9375 13.6875 C 3.6875 13.699219 3.4375 13.691406 3.1875 13.6875 C 3.191406 13.808594 3.195312 13.925781 3.199219 14.050781 C 3.207031 14.253906 3.207031 14.253906 3.1875 14.4375 C 3.125 14.5 3.0625 14.5625 3 14.625 C 2.726562 14.589844 2.636719 14.542969 2.4375 14.34375 C 2.425781 14.003906 2.425781 14.003906 2.4375 13.6875 C 2.28125 13.691406 2.28125 13.691406 2.121094 13.699219 C 1.78125 13.6875 1.78125 13.6875 1.59375 13.5 C 1.628906 13.253906 1.628906 13.253906 1.6875 13.03125 C 1.964844 13.03125 2.246094 13.03125 2.53125 13.03125 C 2.53125 12.753906 2.53125 12.472656 2.53125 12.1875 C 2.765625 12.070312 2.851562 12.109375 3.09375 12.1875 Z M 3.09375 12.1875 "/>
<path style=" stroke:none;fill-rule:nonzero;fill:rgb(21.176471%,36.470589%,48.627451%);fill-opacity:1;" d="M 12.5625 0.65625 C 12.863281 0.84375 12.863281 0.84375 13.03125 1.125 C 13.03125 1.371094 13.03125 1.621094 13.03125 1.875 C 12.414062 1.875 11.792969 1.875 11.15625 1.875 C 11.15625 1.03125 11.15625 1.03125 11.277344 0.792969 C 11.695312 0.570312 12.105469 0.578125 12.5625 0.65625 Z M 12.5625 0.65625 "/>
<path style=" stroke:none;fill-rule:nonzero;fill:rgb(0.392157%,0%,0%);fill-opacity:1;" d="M 21.132812 13.015625 C 21.285156 13.011719 21.285156 13.011719 21.441406 13.011719 C 21.535156 13.011719 21.632812 13.011719 21.730469 13.011719 C 21.863281 13.007812 21.863281 13.007812 22 13.007812 C 22.21875 13.03125 22.21875 13.03125 22.40625 13.21875 C 22.355469 13.550781 22.355469 13.550781 22.21875 13.6875 C 22.058594 13.695312 21.902344 13.699219 21.742188 13.699219 C 21.644531 13.699219 21.546875 13.699219 21.449219 13.699219 C 21.296875 13.699219 21.296875 13.699219 21.140625 13.699219 C 21.039062 13.699219 20.9375 13.699219 20.832031 13.699219 C 20.734375 13.699219 20.640625 13.699219 20.539062 13.699219 C 20.449219 13.699219 20.359375 13.699219 20.269531 13.699219 C 20.0625 13.6875 20.0625 13.6875 19.96875 13.59375 C 19.957031 13.359375 19.957031 13.359375 19.96875 13.125 C 20.199219 12.894531 20.824219 13.015625 21.132812 13.015625 Z M 21.132812 13.015625 "/>
<path style=" stroke:none;fill-rule:nonzero;fill:rgb(83.92157%,83.137256%,85.490197%);fill-opacity:1;" d="M 5.8125 18.46875 C 6.214844 18.46875 6.617188 18.46875 7.03125 18.46875 C 7.03125 19.613281 7.03125 20.757812 7.03125 21.9375 C 6.628906 21.9375 6.226562 21.9375 5.8125 21.9375 C 5.8125 21.691406 5.8125 21.441406 5.8125 21.1875 C 6.183594 21.1875 6.554688 21.1875 6.9375 21.1875 C 6.9375 20.320312 6.9375 19.453125 6.9375 18.5625 C 6.566406 18.5625 6.195312 18.5625 5.8125 18.5625 C 5.8125 18.53125 5.8125 18.5 5.8125 18.46875 Z M 5.8125 18.46875 "/>
<path style=" stroke:none;fill-rule:nonzero;fill:rgb(94.901961%,94.117647%,94.509804%);fill-opacity:1;" d="M 12.375 7.96875 C 12.46875 8.0625 12.46875 8.0625 12.488281 8.386719 C 12.46875 8.71875 12.46875 8.71875 12.28125 8.90625 C 11.988281 8.9375 11.796875 8.957031 11.542969 8.792969 C 11.398438 8.5625 11.398438 8.421875 11.4375 8.15625 C 11.664062 7.757812 11.976562 7.878906 12.375 7.96875 Z M 12.375 7.96875 "/>
<path style=" stroke:none;fill-rule:nonzero;fill:rgb(14.117648%,25.490198%,33.725491%);fill-opacity:1;" d="M 11.53125 0.65625 C 12.445312 0.585938 12.445312 0.585938 12.863281 0.84375 C 13.03125 1.125 13.03125 1.125 13.03125 1.875 C 12.414062 1.875 11.792969 1.875 11.15625 1.875 C 11.15625 1.84375 11.15625 1.8125 11.15625 1.78125 C 11.558594 1.78125 11.960938 1.78125 12.375 1.78125 C 12.34375 1.441406 12.3125 1.101562 12.28125 0.75 C 12.035156 0.75 11.785156 0.75 11.53125 0.75 C 11.53125 0.71875 11.53125 0.6875 11.53125 0.65625 Z M 11.53125 0.65625 "/>
<path style=" stroke:none;fill-rule:nonzero;fill:rgb(84.313726%,83.92157%,85.882354%);fill-opacity:1;" d="M 10.890625 2.503906 C 10.957031 2.503906 11.023438 2.507812 11.089844 2.507812 C 11.191406 2.507812 11.191406 2.507812 11.296875 2.507812 C 11.441406 2.507812 11.582031 2.507812 11.726562 2.507812 C 11.945312 2.507812 12.164062 2.507812 12.382812 2.503906 C 12.523438 2.507812 12.664062 2.507812 12.800781 2.507812 C 12.867188 2.507812 12.933594 2.503906 13 2.503906 C 13.34375 2.507812 13.488281 2.523438 13.78125 2.71875 C 13.816406 3 13.816406 3 13.78125 3.28125 C 13.5 3.46875 13.5 3.46875 13.125 3.46875 C 13.125 3.191406 13.125 2.910156 13.125 2.625 C 12.695312 2.628906 12.265625 2.632812 11.835938 2.644531 C 11.714844 2.644531 11.59375 2.644531 11.464844 2.644531 C 11.347656 2.648438 11.230469 2.648438 11.109375 2.652344 C 11.003906 2.652344 10.894531 2.65625 10.785156 2.65625 C 10.421875 2.734375 10.324219 2.882812 10.125 3.1875 C 10.210938 2.640625 10.324219 2.511719 10.890625 2.503906 Z M 10.890625 2.503906 "/>
</g>
</svg>
