<?xml version="1.0" encoding="UTF-8"?>
<svg xmlns="http://www.w3.org/2000/svg" xmlns:xlink="http://www.w3.org/1999/xlink" width="24" height="24" viewBox="0 0 24 24" version="1.1">
<g id="surface1">
<path style=" stroke:none;fill-rule:nonzero;fill:rgb(100%,75.294119%,5.882353%);fill-opacity:1;" d="M 14.585938 12.734375 C 14.679688 12.734375 14.679688 12.734375 14.773438 12.734375 C 14.980469 12.730469 15.1875 12.730469 15.390625 12.730469 C 15.535156 12.730469 15.679688 12.730469 15.820312 12.730469 C 16.121094 12.726562 16.421875 12.726562 16.722656 12.726562 C 17.109375 12.726562 17.492188 12.722656 17.875 12.722656 C 18.171875 12.71875 18.46875 12.71875 18.765625 12.71875 C 18.90625 12.71875 19.046875 12.71875 19.1875 12.71875 C 19.386719 12.714844 19.585938 12.714844 19.785156 12.714844 C 19.898438 12.714844 20.011719 12.714844 20.125 12.714844 C 20.625 12.769531 20.992188 12.96875 21.308594 13.355469 C 21.378906 13.433594 21.378906 13.433594 21.449219 13.515625 C 21.6875 13.875 21.667969 14.25 21.671875 14.667969 C 21.675781 14.855469 21.675781 14.855469 21.675781 15.042969 C 21.675781 15.179688 21.679688 15.3125 21.679688 15.445312 C 21.679688 15.515625 21.679688 15.582031 21.679688 15.652344 C 21.679688 16.011719 21.683594 16.375 21.683594 16.734375 C 21.683594 17.105469 21.6875 17.472656 21.691406 17.84375 C 21.695312 18.132812 21.695312 18.417969 21.695312 18.703125 C 21.695312 18.839844 21.699219 18.976562 21.699219 19.113281 C 21.707031 19.855469 21.703125 20.457031 21.28125 21.09375 C 20.8125 21.554688 20.371094 21.679688 19.722656 21.683594 C 19.601562 21.683594 19.476562 21.683594 19.351562 21.683594 C 19.214844 21.683594 19.082031 21.683594 18.945312 21.683594 C 18.808594 21.683594 18.671875 21.683594 18.53125 21.683594 C 18.242188 21.6875 17.953125 21.6875 17.660156 21.6875 C 17.289062 21.683594 16.921875 21.6875 16.546875 21.6875 C 16.261719 21.691406 15.976562 21.691406 15.691406 21.691406 C 15.554688 21.691406 15.417969 21.691406 15.28125 21.691406 C 13.777344 21.699219 13.777344 21.699219 13.222656 21.214844 C 13.179688 21.160156 13.136719 21.105469 13.089844 21.046875 C 13.023438 20.964844 13.023438 20.964844 12.953125 20.878906 C 12.722656 20.539062 12.738281 20.222656 12.734375 19.820312 C 12.734375 19.757812 12.734375 19.695312 12.734375 19.632812 C 12.730469 19.425781 12.730469 19.21875 12.730469 19.015625 C 12.730469 18.871094 12.730469 18.726562 12.730469 18.585938 C 12.726562 18.285156 12.726562 17.984375 12.726562 17.683594 C 12.726562 17.300781 12.726562 16.914062 12.722656 16.53125 C 12.71875 16.234375 12.71875 15.9375 12.71875 15.640625 C 12.71875 15.5 12.71875 15.359375 12.71875 15.21875 C 12.714844 15.019531 12.714844 14.820312 12.714844 14.621094 C 12.714844 14.507812 12.714844 14.394531 12.714844 14.28125 C 12.773438 13.777344 12.96875 13.414062 13.359375 13.097656 C 13.414062 13.050781 13.46875 13.003906 13.527344 12.957031 C 13.867188 12.71875 14.183594 12.738281 14.585938 12.734375 Z M 14.585938 12.734375 "/>
<path style=" stroke:none;fill-rule:nonzero;fill:rgb(89.803922%,23.529412%,21.176471%);fill-opacity:1;" d="M 4.179688 12.734375 C 4.273438 12.734375 4.273438 12.734375 4.367188 12.734375 C 4.574219 12.730469 4.78125 12.730469 4.984375 12.730469 C 5.128906 12.730469 5.273438 12.730469 5.414062 12.730469 C 5.714844 12.726562 6.015625 12.726562 6.316406 12.726562 C 6.703125 12.726562 7.085938 12.722656 7.46875 12.722656 C 7.765625 12.71875 8.0625 12.71875 8.359375 12.71875 C 8.5 12.71875 8.640625 12.71875 8.78125 12.71875 C 8.980469 12.714844 9.179688 12.714844 9.378906 12.714844 C 9.492188 12.714844 9.605469 12.714844 9.71875 12.714844 C 10.222656 12.769531 10.585938 12.96875 10.902344 13.359375 C 10.972656 13.441406 10.972656 13.441406 11.042969 13.527344 C 11.28125 13.867188 11.261719 14.183594 11.265625 14.585938 C 11.265625 14.679688 11.265625 14.679688 11.265625 14.773438 C 11.269531 14.980469 11.269531 15.183594 11.269531 15.390625 C 11.269531 15.535156 11.269531 15.675781 11.269531 15.820312 C 11.273438 16.121094 11.273438 16.421875 11.273438 16.722656 C 11.273438 17.105469 11.273438 17.492188 11.277344 17.875 C 11.28125 18.171875 11.28125 18.46875 11.28125 18.765625 C 11.28125 18.90625 11.28125 19.046875 11.28125 19.1875 C 11.285156 19.386719 11.285156 19.585938 11.285156 19.785156 C 11.285156 19.953125 11.285156 19.953125 11.285156 20.125 C 11.230469 20.625 11.03125 20.992188 10.644531 21.308594 C 10.59375 21.355469 10.539062 21.402344 10.484375 21.449219 C 10.125 21.6875 9.75 21.667969 9.328125 21.671875 C 9.207031 21.675781 9.082031 21.675781 8.957031 21.675781 C 8.820312 21.675781 8.6875 21.675781 8.554688 21.679688 C 8.453125 21.679688 8.453125 21.679688 8.347656 21.679688 C 7.988281 21.679688 7.625 21.683594 7.265625 21.683594 C 6.894531 21.683594 6.527344 21.6875 6.15625 21.691406 C 5.871094 21.695312 5.582031 21.695312 5.296875 21.695312 C 5.160156 21.695312 5.023438 21.699219 4.886719 21.699219 C 4.144531 21.707031 3.542969 21.703125 2.90625 21.28125 C 2.449219 20.808594 2.320312 20.371094 2.320312 19.722656 C 2.316406 19.601562 2.316406 19.476562 2.316406 19.351562 C 2.316406 19.214844 2.316406 19.082031 2.316406 18.945312 C 2.316406 18.808594 2.316406 18.671875 2.316406 18.53125 C 2.3125 18.242188 2.3125 17.949219 2.3125 17.660156 C 2.316406 17.289062 2.3125 16.917969 2.3125 16.546875 C 2.308594 16.261719 2.308594 15.976562 2.308594 15.691406 C 2.308594 15.554688 2.308594 15.417969 2.308594 15.28125 C 2.296875 13.777344 2.296875 13.777344 2.785156 13.222656 C 2.839844 13.179688 2.898438 13.136719 2.953125 13.089844 C 3.007812 13.042969 3.0625 13 3.121094 12.953125 C 3.460938 12.722656 3.777344 12.738281 4.179688 12.734375 Z M 4.179688 12.734375 "/>
<path style=" stroke:none;fill-rule:nonzero;fill:rgb(17.254902%,67.058825%,88.235295%);fill-opacity:1;" d="M 4.277344 2.316406 C 4.398438 2.316406 4.523438 2.316406 4.652344 2.316406 C 4.785156 2.316406 4.917969 2.316406 5.054688 2.316406 C 5.191406 2.316406 5.332031 2.316406 5.46875 2.3125 C 5.757812 2.3125 6.050781 2.3125 6.339844 2.3125 C 6.710938 2.3125 7.082031 2.3125 7.449219 2.308594 C 7.738281 2.308594 8.023438 2.308594 8.308594 2.308594 C 8.445312 2.308594 8.582031 2.308594 8.71875 2.308594 C 10.222656 2.300781 10.222656 2.300781 10.777344 2.785156 C 10.84375 2.871094 10.84375 2.871094 10.910156 2.953125 C 10.957031 3.007812 11 3.0625 11.046875 3.121094 C 11.277344 3.460938 11.261719 3.78125 11.265625 4.179688 C 11.265625 4.273438 11.265625 4.273438 11.265625 4.367188 C 11.265625 4.574219 11.269531 4.78125 11.269531 4.984375 C 11.269531 5.128906 11.269531 5.273438 11.269531 5.414062 C 11.269531 5.714844 11.273438 6.015625 11.273438 6.316406 C 11.273438 6.699219 11.273438 7.085938 11.277344 7.46875 C 11.28125 7.765625 11.28125 8.0625 11.28125 8.355469 C 11.28125 8.5 11.28125 8.640625 11.28125 8.78125 C 11.285156 8.980469 11.285156 9.179688 11.285156 9.378906 C 11.285156 9.546875 11.285156 9.546875 11.285156 9.71875 C 11.230469 10.222656 11.03125 10.585938 10.640625 10.90625 C 10.558594 10.972656 10.558594 10.972656 10.472656 11.042969 C 10.132812 11.28125 9.816406 11.261719 9.414062 11.265625 C 9.351562 11.265625 9.289062 11.265625 9.226562 11.265625 C 9.019531 11.269531 8.8125 11.269531 8.609375 11.269531 C 8.464844 11.269531 8.320312 11.269531 8.179688 11.269531 C 7.878906 11.273438 7.578125 11.273438 7.277344 11.273438 C 6.894531 11.273438 6.507812 11.273438 6.125 11.277344 C 5.828125 11.28125 5.53125 11.28125 5.238281 11.28125 C 5.09375 11.28125 4.953125 11.28125 4.8125 11.28125 C 4.613281 11.285156 4.414062 11.285156 4.214844 11.285156 C 4.101562 11.285156 3.988281 11.285156 3.875 11.285156 C 3.375 11.230469 3.007812 11.03125 2.6875 10.648438 C 2.644531 10.59375 2.597656 10.539062 2.550781 10.484375 C 2.3125 10.125 2.332031 9.75 2.328125 9.332031 C 2.324219 9.207031 2.324219 9.082031 2.324219 8.957031 C 2.324219 8.824219 2.320312 8.6875 2.320312 8.554688 C 2.320312 8.484375 2.320312 8.417969 2.320312 8.347656 C 2.316406 7.988281 2.316406 7.628906 2.316406 7.265625 C 2.316406 6.894531 2.3125 6.527344 2.308594 6.15625 C 2.304688 5.871094 2.304688 5.582031 2.304688 5.296875 C 2.304688 5.160156 2.304688 5.023438 2.300781 4.886719 C 2.292969 4.144531 2.292969 3.542969 2.71875 2.90625 C 3.191406 2.449219 3.628906 2.320312 4.277344 2.316406 Z M 4.277344 2.316406 "/>
<path style=" stroke:none;fill-rule:nonzero;fill:rgb(48.627451%,70.19608%,25.882354%);fill-opacity:1;" d="M 14.667969 2.328125 C 14.855469 2.324219 14.855469 2.324219 15.042969 2.324219 C 15.179688 2.324219 15.3125 2.324219 15.445312 2.320312 C 15.515625 2.320312 15.582031 2.320312 15.652344 2.320312 C 16.011719 2.320312 16.375 2.316406 16.734375 2.316406 C 17.105469 2.316406 17.472656 2.3125 17.84375 2.308594 C 18.132812 2.304688 18.417969 2.304688 18.703125 2.304688 C 18.839844 2.304688 18.976562 2.304688 19.113281 2.300781 C 19.855469 2.292969 20.457031 2.292969 21.09375 2.71875 C 21.554688 3.191406 21.679688 3.628906 21.683594 4.273438 C 21.683594 4.398438 21.683594 4.523438 21.683594 4.648438 C 21.683594 4.785156 21.683594 4.917969 21.683594 5.054688 C 21.683594 5.191406 21.683594 5.328125 21.6875 5.46875 C 21.6875 5.757812 21.6875 6.050781 21.6875 6.339844 C 21.683594 6.710938 21.6875 7.082031 21.6875 7.449219 C 21.691406 7.738281 21.691406 8.023438 21.691406 8.308594 C 21.691406 8.445312 21.691406 8.582031 21.691406 8.71875 C 21.699219 10.222656 21.699219 10.222656 21.214844 10.777344 C 21.132812 10.84375 21.132812 10.84375 21.046875 10.910156 C 20.992188 10.953125 20.9375 11 20.878906 11.046875 C 20.539062 11.277344 20.222656 11.261719 19.820312 11.265625 C 19.757812 11.265625 19.695312 11.265625 19.632812 11.265625 C 19.425781 11.269531 19.21875 11.269531 19.015625 11.269531 C 18.871094 11.269531 18.726562 11.269531 18.585938 11.269531 C 18.285156 11.273438 17.984375 11.273438 17.683594 11.273438 C 17.300781 11.273438 16.914062 11.277344 16.53125 11.277344 C 16.234375 11.28125 15.9375 11.28125 15.644531 11.28125 C 15.5 11.28125 15.359375 11.28125 15.21875 11.28125 C 15.019531 11.285156 14.820312 11.285156 14.621094 11.28125 C 14.507812 11.285156 14.394531 11.285156 14.28125 11.285156 C 13.777344 11.230469 13.414062 11.03125 13.097656 10.640625 C 13.050781 10.585938 13.003906 10.53125 12.957031 10.472656 C 12.71875 10.132812 12.738281 9.816406 12.734375 9.414062 C 12.734375 9.351562 12.734375 9.289062 12.734375 9.226562 C 12.730469 9.019531 12.730469 8.816406 12.730469 8.609375 C 12.730469 8.464844 12.730469 8.320312 12.730469 8.179688 C 12.726562 7.878906 12.726562 7.578125 12.726562 7.277344 C 12.726562 6.894531 12.722656 6.507812 12.722656 6.125 C 12.722656 5.828125 12.71875 5.53125 12.71875 5.234375 C 12.71875 5.09375 12.71875 4.953125 12.71875 4.8125 C 12.714844 4.613281 12.714844 4.414062 12.71875 4.214844 C 12.714844 4.101562 12.714844 3.992188 12.714844 3.875 C 12.769531 3.375 12.96875 3.007812 13.355469 2.6875 C 13.40625 2.644531 13.460938 2.597656 13.519531 2.550781 C 13.875 2.3125 14.25 2.332031 14.667969 2.328125 Z M 14.667969 2.328125 "/>
<path style=" stroke:none;fill-rule:nonzero;fill:rgb(98.431373%,95.686275%,87.058824%);fill-opacity:1;" d="M 14.34375 14.4375 C 16.199219 14.4375 18.054688 14.4375 19.96875 14.4375 C 19.96875 16.292969 19.96875 18.148438 19.96875 20.0625 C 19.058594 20.0625 18.148438 20.066406 17.207031 20.066406 C 16.921875 20.070312 16.632812 20.070312 16.335938 20.070312 C 16.109375 20.070312 15.882812 20.070312 15.65625 20.070312 C 15.539062 20.070312 15.417969 20.074219 15.296875 20.074219 C 15.183594 20.074219 15.070312 20.074219 14.957031 20.074219 C 14.808594 20.074219 14.808594 20.074219 14.660156 20.074219 C 14.4375 20.0625 14.4375 20.0625 14.34375 19.96875 C 14.335938 19.796875 14.332031 19.621094 14.332031 19.449219 C 14.332031 19.335938 14.332031 19.226562 14.332031 19.109375 C 14.332031 18.933594 14.332031 18.933594 14.335938 18.75 C 14.335938 18.640625 14.335938 18.53125 14.335938 18.421875 C 14.335938 18.011719 14.335938 17.605469 14.339844 17.199219 C 14.339844 16.285156 14.34375 15.375 14.34375 14.4375 Z M 14.34375 14.4375 "/>
<path style=" stroke:none;fill-rule:nonzero;fill:rgb(92.941177%,95.294118%,90.196079%);fill-opacity:1;" d="M 14.34375 4.03125 C 16.199219 4.03125 18.054688 4.03125 19.96875 4.03125 C 19.96875 5.886719 19.96875 7.742188 19.96875 9.65625 C 19.058594 9.65625 18.148438 9.660156 17.207031 9.660156 C 16.921875 9.664062 16.632812 9.664062 16.335938 9.664062 C 16.109375 9.664062 15.882812 9.664062 15.65625 9.664062 C 15.539062 9.664062 15.417969 9.667969 15.296875 9.667969 C 15.183594 9.667969 15.070312 9.667969 14.957031 9.667969 C 14.808594 9.667969 14.808594 9.667969 14.660156 9.667969 C 14.4375 9.65625 14.4375 9.65625 14.34375 9.5625 C 14.335938 9.390625 14.332031 9.214844 14.332031 9.042969 C 14.332031 8.929688 14.332031 8.820312 14.332031 8.703125 C 14.332031 8.527344 14.332031 8.527344 14.335938 8.34375 C 14.335938 8.234375 14.335938 8.125 14.335938 8.015625 C 14.335938 7.605469 14.335938 7.199219 14.339844 6.792969 C 14.339844 5.878906 14.34375 4.96875 14.34375 4.03125 Z M 14.34375 4.03125 "/>
<path style=" stroke:none;fill-rule:nonzero;fill:rgb(87.058824%,94.117647%,97.647059%);fill-opacity:1;" d="M 3.9375 4.03125 C 5.792969 4.03125 7.648438 4.03125 9.5625 4.03125 C 9.5625 5.886719 9.5625 7.742188 9.5625 9.65625 C 8.652344 9.65625 7.742188 9.660156 6.800781 9.660156 C 6.515625 9.664062 6.226562 9.664062 5.929688 9.664062 C 5.703125 9.664062 5.476562 9.664062 5.25 9.664062 C 5.132812 9.664062 5.011719 9.667969 4.890625 9.667969 C 4.777344 9.667969 4.664062 9.667969 4.550781 9.667969 C 4.402344 9.667969 4.402344 9.667969 4.253906 9.667969 C 4.03125 9.65625 4.03125 9.65625 3.9375 9.5625 C 3.929688 9.390625 3.925781 9.214844 3.925781 9.042969 C 3.925781 8.929688 3.925781 8.820312 3.925781 8.703125 C 3.925781 8.527344 3.925781 8.527344 3.929688 8.34375 C 3.929688 8.234375 3.929688 8.125 3.929688 8.015625 C 3.929688 7.605469 3.929688 7.199219 3.933594 6.792969 C 3.933594 5.878906 3.9375 4.96875 3.9375 4.03125 Z M 3.9375 4.03125 "/>
<path style=" stroke:none;fill-rule:nonzero;fill:rgb(97.647059%,90.588236%,91.764706%);fill-opacity:1;" d="M 4.03125 14.4375 C 5.855469 14.4375 7.683594 14.4375 9.5625 14.4375 C 9.5625 16.261719 9.5625 18.089844 9.5625 19.96875 C 7.738281 19.96875 5.910156 19.96875 4.03125 19.96875 C 4.03125 18.144531 4.03125 16.316406 4.03125 14.4375 Z M 4.03125 14.4375 "/>
<path style=" stroke:none;fill-rule:nonzero;fill:rgb(100%,91.37255%,67.058825%);fill-opacity:1;" d="M 14.34375 14.4375 C 14.683594 14.4375 15.023438 14.4375 15.375 14.4375 C 15.375 15.953125 15.375 17.46875 15.375 19.03125 C 16.890625 19.03125 18.40625 19.03125 19.96875 19.03125 C 19.96875 19.371094 19.96875 19.710938 19.96875 20.0625 C 19.25 20.0625 18.53125 20.066406 17.808594 20.066406 C 17.476562 20.066406 17.140625 20.066406 16.808594 20.070312 C 16.425781 20.070312 16.039062 20.070312 15.65625 20.070312 C 15.476562 20.074219 15.476562 20.074219 15.292969 20.074219 C 15.125 20.074219 15.125 20.074219 14.957031 20.074219 C 14.808594 20.074219 14.808594 20.074219 14.660156 20.074219 C 14.4375 20.0625 14.4375 20.0625 14.34375 19.96875 C 14.335938 19.796875 14.332031 19.621094 14.332031 19.449219 C 14.332031 19.339844 14.332031 19.230469 14.332031 19.113281 C 14.332031 18.996094 14.335938 18.875 14.335938 18.75 C 14.335938 18.628906 14.335938 18.503906 14.335938 18.378906 C 14.335938 18.050781 14.335938 17.722656 14.335938 17.398438 C 14.339844 17.066406 14.339844 16.734375 14.339844 16.398438 C 14.339844 15.746094 14.34375 15.089844 14.34375 14.4375 Z M 14.34375 14.4375 "/>
<path style=" stroke:none;fill-rule:nonzero;fill:rgb(84.313726%,90.980393%,76.078433%);fill-opacity:1;" d="M 14.34375 4.03125 C 14.683594 4.03125 15.023438 4.03125 15.375 4.03125 C 15.375 5.546875 15.375 7.0625 15.375 8.625 C 16.890625 8.625 18.40625 8.625 19.96875 8.625 C 19.96875 8.964844 19.96875 9.304688 19.96875 9.65625 C 19.25 9.65625 18.53125 9.660156 17.808594 9.660156 C 17.476562 9.660156 17.140625 9.660156 16.808594 9.664062 C 16.425781 9.664062 16.039062 9.664062 15.65625 9.664062 C 15.476562 9.667969 15.476562 9.667969 15.292969 9.667969 C 15.125 9.667969 15.125 9.667969 14.957031 9.667969 C 14.808594 9.667969 14.808594 9.667969 14.660156 9.667969 C 14.4375 9.65625 14.4375 9.65625 14.34375 9.5625 C 14.335938 9.390625 14.332031 9.214844 14.332031 9.042969 C 14.332031 8.933594 14.332031 8.824219 14.332031 8.707031 C 14.332031 8.589844 14.335938 8.46875 14.335938 8.34375 C 14.335938 8.222656 14.335938 8.097656 14.335938 7.972656 C 14.335938 7.644531 14.335938 7.316406 14.335938 6.992188 C 14.339844 6.660156 14.339844 6.328125 14.339844 5.992188 C 14.339844 5.339844 14.34375 4.683594 14.34375 4.03125 Z M 14.34375 4.03125 "/>
<path style=" stroke:none;fill-rule:nonzero;fill:rgb(68.235296%,87.843138%,97.254902%);fill-opacity:1;" d="M 3.9375 4.03125 C 4.277344 4.03125 4.617188 4.03125 4.96875 4.03125 C 4.96875 5.546875 4.96875 7.0625 4.96875 8.625 C 6.484375 8.625 8 8.625 9.5625 8.625 C 9.5625 8.964844 9.5625 9.304688 9.5625 9.65625 C 8.84375 9.65625 8.125 9.660156 7.402344 9.660156 C 7.070312 9.660156 6.734375 9.660156 6.402344 9.664062 C 6.019531 9.664062 5.632812 9.664062 5.25 9.664062 C 5.070312 9.667969 5.070312 9.667969 4.886719 9.667969 C 4.71875 9.667969 4.71875 9.667969 4.550781 9.667969 C 4.402344 9.667969 4.402344 9.667969 4.253906 9.667969 C 4.03125 9.65625 4.03125 9.65625 3.9375 9.5625 C 3.929688 9.390625 3.925781 9.214844 3.925781 9.042969 C 3.925781 8.933594 3.925781 8.824219 3.925781 8.707031 C 3.925781 8.589844 3.929688 8.46875 3.929688 8.34375 C 3.929688 8.222656 3.929688 8.097656 3.929688 7.972656 C 3.929688 7.644531 3.929688 7.316406 3.929688 6.992188 C 3.933594 6.660156 3.933594 6.328125 3.933594 5.992188 C 3.933594 5.339844 3.9375 4.683594 3.9375 4.03125 Z M 3.9375 4.03125 "/>
<path style=" stroke:none;fill-rule:nonzero;fill:rgb(97.647059%,80.000001%,82.352942%);fill-opacity:1;" d="M 4.03125 14.4375 C 4.339844 14.4375 4.648438 14.4375 4.96875 14.4375 C 4.96875 15.953125 4.96875 17.46875 4.96875 19.03125 C 6.484375 19.03125 8 19.03125 9.5625 19.03125 C 9.5625 19.339844 9.5625 19.648438 9.5625 19.96875 C 7.738281 19.96875 5.910156 19.96875 4.03125 19.96875 C 4.03125 18.144531 4.03125 16.316406 4.03125 14.4375 Z M 4.03125 14.4375 "/>
<path style=" stroke:none;fill-rule:nonzero;fill:rgb(30.19608%,37.64706%,41.568628%);fill-opacity:1;" d="M 5.15625 15.5625 C 6.238281 15.5625 7.320312 15.5625 8.4375 15.5625 C 8.4375 15.964844 8.4375 16.367188 8.4375 16.78125 C 7.355469 16.78125 6.273438 16.78125 5.15625 16.78125 C 5.15625 16.378906 5.15625 15.976562 5.15625 15.5625 Z M 5.15625 15.5625 "/>
<path style=" stroke:none;fill-rule:nonzero;fill:rgb(29.803923%,38.039216%,41.960785%);fill-opacity:1;" d="M 5.15625 7.21875 C 6.238281 7.21875 7.320312 7.21875 8.4375 7.21875 C 8.4375 7.621094 8.4375 8.023438 8.4375 8.4375 C 7.355469 8.4375 6.273438 8.4375 5.15625 8.4375 C 5.15625 8.035156 5.15625 7.632812 5.15625 7.21875 Z M 5.15625 7.21875 "/>
<path style=" stroke:none;fill-rule:nonzero;fill:rgb(27.058825%,35.294119%,39.215687%);fill-opacity:1;" d="M 15.5625 17.625 C 16.613281 17.625 17.667969 17.625 18.75 17.625 C 18.75 17.996094 18.75 18.367188 18.75 18.75 C 17.699219 18.78125 16.644531 18.8125 15.5625 18.84375 C 15.5625 18.441406 15.5625 18.039062 15.5625 17.625 Z M 15.5625 17.625 "/>
<path style=" stroke:none;fill-rule:nonzero;fill:rgb(27.058825%,35.294119%,39.215687%);fill-opacity:1;" d="M 15.5625 5.15625 C 16.613281 5.1875 17.667969 5.21875 18.75 5.25 C 18.75 5.621094 18.75 5.992188 18.75 6.375 C 17.699219 6.375 16.644531 6.375 15.5625 6.375 C 15.5625 5.972656 15.5625 5.570312 15.5625 5.15625 Z M 15.5625 5.15625 "/>
<path style=" stroke:none;fill-rule:nonzero;fill:rgb(33.333334%,40.392157%,43.137255%);fill-opacity:1;" d="M 15.5625 15.5625 C 16.121094 15.5625 16.675781 15.5625 17.25 15.5625 C 17.25 15.964844 17.25 16.367188 17.25 16.78125 C 16.691406 16.78125 16.136719 16.78125 15.5625 16.78125 C 15.5625 16.378906 15.5625 15.976562 15.5625 15.5625 Z M 15.5625 15.5625 "/>
<path style=" stroke:none;fill-rule:nonzero;fill:rgb(32.941177%,40.392157%,43.529412%);fill-opacity:1;" d="M 15.5625 7.21875 C 16.121094 7.21875 16.675781 7.21875 17.25 7.21875 C 17.25 7.621094 17.25 8.023438 17.25 8.4375 C 16.691406 8.4375 16.136719 8.4375 15.5625 8.4375 C 15.5625 8.035156 15.5625 7.632812 15.5625 7.21875 Z M 15.5625 7.21875 "/>
<path style=" stroke:none;fill-rule:nonzero;fill:rgb(19.215687%,23.529412%,26.274511%);fill-opacity:1;" d="M 5.15625 17.625 C 5.683594 17.625 6.207031 17.625 6.75 17.625 C 6.75 17.996094 6.75 18.367188 6.75 18.75 C 6.210938 18.828125 5.699219 18.851562 5.15625 18.84375 C 5.15625 18.441406 5.15625 18.039062 5.15625 17.625 Z M 5.15625 17.625 "/>
<path style=" stroke:none;fill-rule:nonzero;fill:rgb(18.82353%,23.921569%,26.274511%);fill-opacity:1;" d="M 5.15625 5.15625 C 5.699219 5.148438 6.210938 5.171875 6.75 5.25 C 6.75 5.621094 6.75 5.992188 6.75 6.375 C 6.222656 6.375 5.699219 6.375 5.15625 6.375 C 5.15625 5.972656 5.15625 5.570312 5.15625 5.15625 Z M 5.15625 5.15625 "/>
<path style=" stroke:none;fill-rule:nonzero;fill:rgb(18.431373%,23.137255%,25.098041%);fill-opacity:1;" d="M 15.5625 17.625 C 15.902344 17.625 16.242188 17.625 16.59375 17.625 C 16.59375 18.027344 16.59375 18.429688 16.59375 18.84375 C 16.253906 18.84375 15.914062 18.84375 15.5625 18.84375 C 15.5625 18.441406 15.5625 18.039062 15.5625 17.625 Z M 15.5625 17.625 "/>
<path style=" stroke:none;fill-rule:nonzero;fill:rgb(18.431373%,22.745098%,25.098041%);fill-opacity:1;" d="M 5.15625 15.5625 C 5.496094 15.5625 5.835938 15.5625 6.1875 15.5625 C 6.1875 15.964844 6.1875 16.367188 6.1875 16.78125 C 5.847656 16.78125 5.507812 16.78125 5.15625 16.78125 C 5.15625 16.378906 5.15625 15.976562 5.15625 15.5625 Z M 5.15625 15.5625 "/>
<path style=" stroke:none;fill-rule:nonzero;fill:rgb(18.039216%,22.745098%,25.490198%);fill-opacity:1;" d="M 5.15625 7.21875 C 5.496094 7.21875 5.835938 7.21875 6.1875 7.21875 C 6.1875 7.621094 6.1875 8.023438 6.1875 8.4375 C 5.847656 8.4375 5.507812 8.4375 5.15625 8.4375 C 5.15625 8.035156 5.15625 7.632812 5.15625 7.21875 Z M 5.15625 7.21875 "/>
<path style=" stroke:none;fill-rule:nonzero;fill:rgb(18.039216%,23.137255%,25.098041%);fill-opacity:1;" d="M 15.5625 5.15625 C 15.902344 5.15625 16.242188 5.15625 16.59375 5.15625 C 16.59375 5.558594 16.59375 5.960938 16.59375 6.375 C 16.253906 6.375 15.914062 6.375 15.5625 6.375 C 15.5625 5.972656 15.5625 5.570312 15.5625 5.15625 Z M 15.5625 5.15625 "/>
<path style=" stroke:none;fill-rule:nonzero;fill:rgb(18.431373%,23.137255%,25.098041%);fill-opacity:1;" d="M 15.5625 15.5625 C 15.839844 15.5625 16.121094 15.5625 16.40625 15.5625 C 16.40625 15.964844 16.40625 16.367188 16.40625 16.78125 C 16.128906 16.78125 15.847656 16.78125 15.5625 16.78125 C 15.5625 16.378906 15.5625 15.976562 15.5625 15.5625 Z M 15.5625 15.5625 "/>
<path style=" stroke:none;fill-rule:nonzero;fill:rgb(18.039216%,23.137255%,25.490198%);fill-opacity:1;" d="M 15.5625 7.21875 C 15.839844 7.21875 16.121094 7.21875 16.40625 7.21875 C 16.40625 7.621094 16.40625 8.023438 16.40625 8.4375 C 16.128906 8.4375 15.847656 8.4375 15.5625 8.4375 C 15.5625 8.035156 15.5625 7.632812 15.5625 7.21875 Z M 15.5625 7.21875 "/>
<path style=" stroke:none;fill-rule:nonzero;fill:rgb(27.058825%,35.294119%,39.215687%);fill-opacity:1;" d="M 6 17.625 C 6.246094 17.625 6.496094 17.625 6.75 17.625 C 6.75 17.996094 6.75 18.367188 6.75 18.75 C 6.503906 18.75 6.253906 18.75 6 18.75 C 6 18.378906 6 18.007812 6 17.625 Z M 6 17.625 "/>
<path style=" stroke:none;fill-rule:nonzero;fill:rgb(27.058825%,35.294119%,39.215687%);fill-opacity:1;" d="M 6 5.25 C 6.246094 5.25 6.496094 5.25 6.75 5.25 C 6.75 5.621094 6.75 5.992188 6.75 6.375 C 6.503906 6.375 6.253906 6.375 6 6.375 C 6 6.003906 6 5.632812 6 5.25 Z M 6 5.25 "/>
</g>
</svg>
