<?xml version="1.0" encoding="UTF-8"?>
<svg xmlns="http://www.w3.org/2000/svg" xmlns:xlink="http://www.w3.org/1999/xlink" width="24" height="24" viewBox="0 0 24 24" version="1.1">
<g id="surface1">
<path style=" stroke:none;fill-rule:nonzero;fill:rgb(84.313726%,34.901962%,29.019609%);fill-opacity:1;" d="M 1.597656 13.015625 C 1.6875 13.015625 1.773438 13.015625 1.863281 13.011719 C 2.152344 13.011719 2.4375 13.011719 2.726562 13.007812 C 2.824219 13.007812 2.921875 13.007812 3.023438 13.007812 C 3.542969 13.007812 4.066406 13.003906 4.585938 13.003906 C 5.125 13.003906 5.660156 13 6.199219 12.996094 C 6.609375 12.992188 7.023438 12.992188 7.4375 12.992188 C 7.636719 12.992188 7.835938 12.992188 8.03125 12.988281 C 8.308594 12.988281 8.585938 12.988281 8.863281 12.988281 C 8.988281 12.984375 8.988281 12.984375 9.113281 12.984375 C 9.621094 12.988281 9.910156 13.066406 10.3125 13.40625 C 10.503906 13.691406 10.523438 13.75 10.523438 14.070312 C 10.527344 14.148438 10.527344 14.226562 10.527344 14.304688 C 10.527344 14.390625 10.527344 14.476562 10.527344 14.5625 C 10.527344 14.652344 10.527344 14.742188 10.527344 14.835938 C 10.53125 15.132812 10.53125 15.429688 10.53125 15.730469 C 10.53125 15.933594 10.53125 16.140625 10.535156 16.347656 C 10.535156 16.78125 10.535156 17.214844 10.535156 17.648438 C 10.535156 18.203125 10.539062 18.757812 10.539062 19.316406 C 10.542969 19.742188 10.542969 20.167969 10.542969 20.59375 C 10.542969 20.800781 10.542969 21.003906 10.546875 21.210938 C 10.546875 21.496094 10.546875 21.78125 10.546875 22.066406 C 10.546875 22.152344 10.546875 22.238281 10.546875 22.324219 C 10.542969 22.703125 10.53125 22.914062 10.332031 23.246094 C 10.027344 23.527344 9.78125 23.648438 9.367188 23.648438 C 9.253906 23.652344 9.253906 23.652344 9.136719 23.652344 C 9.015625 23.652344 9.015625 23.652344 8.886719 23.652344 C 8.800781 23.652344 8.714844 23.652344 8.625 23.652344 C 8.335938 23.652344 8.050781 23.652344 7.761719 23.652344 C 7.5625 23.652344 7.359375 23.65625 7.160156 23.65625 C 6.742188 23.65625 6.320312 23.65625 5.902344 23.65625 C 5.363281 23.65625 4.828125 23.65625 4.289062 23.65625 C 3.875 23.660156 3.464844 23.660156 3.050781 23.660156 C 2.851562 23.660156 2.652344 23.660156 2.457031 23.660156 C 2.175781 23.660156 1.902344 23.660156 1.625 23.660156 C 1.5 23.660156 1.5 23.660156 1.375 23.660156 C 0.828125 23.65625 0.527344 23.566406 0.113281 23.195312 C -0.0664062 22.835938 -0.0390625 22.480469 -0.0390625 22.082031 C -0.0390625 21.992188 -0.0390625 21.902344 -0.0429688 21.8125 C -0.0429688 21.515625 -0.0429688 21.21875 -0.0429688 20.921875 C -0.0429688 20.714844 -0.046875 20.507812 -0.046875 20.304688 C -0.046875 19.871094 -0.046875 19.4375 -0.046875 19.007812 C -0.046875 18.453125 -0.0507812 17.898438 -0.0507812 17.34375 C -0.0546875 16.917969 -0.0546875 16.492188 -0.0546875 16.066406 C -0.0546875 15.863281 -0.0546875 15.660156 -0.0585938 15.453125 C -0.0585938 15.167969 -0.0585938 14.882812 -0.0585938 14.597656 C -0.0585938 14.511719 -0.0585938 14.429688 -0.0625 14.34375 C -0.0546875 13.941406 -0.03125 13.675781 0.21875 13.355469 C 0.640625 12.964844 1.054688 13.015625 1.597656 13.015625 Z M 1.597656 13.015625 "/>
<path style=" stroke:none;fill-rule:nonzero;fill:rgb(49.411765%,66.666669%,85.490197%);fill-opacity:1;" d="M 14.574219 -0.0390625 C 14.707031 -0.0390625 14.707031 -0.0390625 14.84375 -0.0429688 C 15.140625 -0.0429688 15.4375 -0.0429688 15.734375 -0.0429688 C 15.941406 -0.046875 16.148438 -0.046875 16.351562 -0.046875 C 16.785156 -0.046875 17.21875 -0.046875 17.648438 -0.046875 C 18.203125 -0.046875 18.757812 -0.0507812 19.3125 -0.0546875 C 19.738281 -0.0546875 20.164062 -0.0546875 20.589844 -0.0546875 C 20.792969 -0.0546875 20.996094 -0.0546875 21.203125 -0.0585938 C 21.488281 -0.0585938 21.773438 -0.0585938 22.058594 -0.0585938 C 22.144531 -0.0585938 22.226562 -0.0585938 22.3125 -0.0625 C 22.714844 -0.0546875 22.980469 -0.03125 23.300781 0.21875 C 23.691406 0.640625 23.640625 1.054688 23.640625 1.597656 C 23.640625 1.6875 23.640625 1.773438 23.644531 1.863281 C 23.644531 2.152344 23.644531 2.4375 23.648438 2.726562 C 23.648438 2.824219 23.648438 2.921875 23.648438 3.023438 C 23.648438 3.542969 23.652344 4.066406 23.652344 4.585938 C 23.652344 5.125 23.65625 5.660156 23.660156 6.199219 C 23.664062 6.609375 23.664062 7.023438 23.664062 7.4375 C 23.664062 7.636719 23.664062 7.835938 23.667969 8.03125 C 23.667969 8.308594 23.667969 8.585938 23.667969 8.863281 C 23.671875 8.945312 23.671875 9.027344 23.671875 9.113281 C 23.667969 9.621094 23.589844 9.914062 23.25 10.3125 C 22.964844 10.503906 22.90625 10.523438 22.585938 10.523438 C 22.46875 10.527344 22.46875 10.527344 22.351562 10.527344 C 22.222656 10.527344 22.222656 10.527344 22.09375 10.527344 C 22.003906 10.527344 21.914062 10.527344 21.820312 10.527344 C 21.523438 10.53125 21.226562 10.53125 20.925781 10.53125 C 20.722656 10.53125 20.515625 10.53125 20.308594 10.535156 C 19.875 10.535156 19.441406 10.535156 19.007812 10.535156 C 18.453125 10.535156 17.898438 10.539062 17.339844 10.539062 C 16.914062 10.542969 16.488281 10.542969 16.0625 10.542969 C 15.855469 10.542969 15.652344 10.542969 15.445312 10.546875 C 15.160156 10.546875 14.875 10.546875 14.589844 10.546875 C 14.503906 10.546875 14.417969 10.546875 14.332031 10.546875 C 13.953125 10.546875 13.742188 10.53125 13.410156 10.332031 C 13.128906 10.027344 13.007812 9.78125 13.007812 9.367188 C 13.007812 9.289062 13.003906 9.214844 13.003906 9.136719 C 13.003906 9.054688 13.003906 8.972656 13.003906 8.886719 C 13.003906 8.800781 13.003906 8.714844 13.003906 8.625 C 13.003906 8.335938 13.003906 8.050781 13.003906 7.761719 C 13.003906 7.5625 13 7.359375 13 7.160156 C 13 6.742188 13 6.320312 13 5.902344 C 13 5.363281 13 4.828125 13 4.289062 C 12.996094 3.875 12.996094 3.464844 12.996094 3.050781 C 12.996094 2.851562 12.996094 2.652344 12.996094 2.457031 C 12.996094 2.179688 12.996094 1.898438 12.996094 1.625 C 12.996094 1.542969 12.996094 1.460938 12.996094 1.375 C 13 0.828125 13.089844 0.527344 13.460938 0.113281 C 13.820312 -0.0664062 14.175781 -0.0390625 14.574219 -0.0390625 Z M 14.574219 -0.0390625 "/>
<path style=" stroke:none;fill-rule:nonzero;fill:rgb(93.725491%,80.784315%,28.627452%);fill-opacity:1;" d="M 0.9375 -0.015625 C 1.015625 -0.015625 1.09375 -0.015625 1.175781 -0.015625 C 1.261719 -0.015625 1.347656 -0.015625 1.4375 -0.0195312 C 1.527344 -0.0195312 1.617188 -0.0195312 1.710938 -0.0195312 C 2.011719 -0.0234375 2.3125 -0.0234375 2.613281 -0.0273438 C 2.769531 -0.0273438 2.769531 -0.0273438 2.925781 -0.0273438 C 3.46875 -0.03125 4.011719 -0.03125 4.554688 -0.03125 C 5.117188 -0.0351562 5.679688 -0.0390625 6.242188 -0.0429688 C 6.671875 -0.046875 7.105469 -0.046875 7.535156 -0.046875 C 7.742188 -0.0507812 7.949219 -0.0507812 8.15625 -0.0546875 C 8.445312 -0.0546875 8.738281 -0.0546875 9.027344 -0.0546875 C 9.15625 -0.0546875 9.15625 -0.0546875 9.285156 -0.0585938 C 9.710938 -0.0546875 9.878906 -0.0429688 10.222656 0.226562 C 10.542969 0.648438 10.515625 0.996094 10.519531 1.511719 C 10.519531 1.644531 10.519531 1.644531 10.519531 1.78125 C 10.523438 2.074219 10.523438 2.371094 10.527344 2.664062 C 10.527344 2.765625 10.527344 2.867188 10.527344 2.96875 C 10.53125 3.5 10.53125 4.03125 10.53125 4.566406 C 10.535156 5.113281 10.539062 5.664062 10.542969 6.214844 C 10.546875 6.636719 10.546875 7.058594 10.546875 7.480469 C 10.550781 7.683594 10.550781 7.886719 10.554688 8.089844 C 10.554688 8.371094 10.554688 8.65625 10.554688 8.941406 C 10.554688 9.023438 10.558594 9.105469 10.558594 9.191406 C 10.554688 9.59375 10.53125 9.855469 10.273438 10.175781 C 9.867188 10.5625 9.527344 10.515625 8.988281 10.515625 C 8.898438 10.515625 8.8125 10.515625 8.71875 10.519531 C 8.425781 10.519531 8.128906 10.519531 7.835938 10.523438 C 7.683594 10.523438 7.683594 10.523438 7.53125 10.523438 C 7 10.527344 6.46875 10.527344 5.9375 10.527344 C 5.386719 10.527344 4.835938 10.53125 4.285156 10.535156 C 3.863281 10.539062 3.441406 10.539062 3.019531 10.539062 C 2.816406 10.539062 2.613281 10.539062 2.410156 10.542969 C 2.128906 10.542969 1.84375 10.542969 1.558594 10.542969 C 1.476562 10.546875 1.394531 10.546875 1.308594 10.546875 C 0.78125 10.542969 0.496094 10.46875 0.09375 10.125 C -0.0117188 9.914062 -0.0117188 9.796875 -0.015625 9.5625 C -0.015625 9.484375 -0.015625 9.40625 -0.015625 9.324219 C -0.015625 9.238281 -0.015625 9.152344 -0.015625 9.0625 C -0.015625 8.972656 -0.015625 8.882812 -0.0195312 8.789062 C -0.0195312 8.488281 -0.0195312 8.1875 -0.0234375 7.886719 C -0.0234375 7.78125 -0.0234375 7.679688 -0.0234375 7.574219 C -0.0234375 7.03125 -0.0273438 6.488281 -0.0273438 5.945312 C -0.0273438 5.382812 -0.03125 4.820312 -0.0351562 4.257812 C -0.0390625 3.828125 -0.0390625 3.394531 -0.0390625 2.964844 C -0.0390625 2.757812 -0.0390625 2.550781 -0.0429688 2.34375 C -0.0429688 2.054688 -0.0429688 1.761719 -0.0429688 1.472656 C -0.046875 1.386719 -0.046875 1.300781 -0.046875 1.214844 C -0.0429688 0.820312 -0.0351562 0.617188 0.179688 0.277344 C 0.445312 0.0273438 0.585938 -0.0117188 0.9375 -0.015625 Z M 0.9375 -0.015625 "/>
<path style=" stroke:none;fill-rule:nonzero;fill:rgb(13.725491%,63.529414%,29.803923%);fill-opacity:1;" d="M 18 12.65625 C 18.328125 12.621094 18.328125 12.621094 18.65625 12.65625 C 18.863281 12.964844 18.867188 13.058594 18.867188 13.417969 C 18.867188 13.515625 18.867188 13.613281 18.867188 13.710938 C 18.863281 13.816406 18.863281 13.921875 18.863281 14.03125 C 18.863281 14.140625 18.863281 14.246094 18.863281 14.359375 C 18.859375 14.703125 18.859375 15.046875 18.855469 15.394531 C 18.855469 15.625 18.855469 15.859375 18.851562 16.09375 C 18.851562 16.664062 18.847656 17.238281 18.84375 17.8125 C 18.933594 17.8125 18.933594 17.8125 19.027344 17.8125 C 19.65625 17.808594 20.28125 17.804688 20.910156 17.800781 C 21.144531 17.800781 21.378906 17.800781 21.613281 17.796875 C 21.953125 17.796875 22.289062 17.792969 22.625 17.792969 C 22.78125 17.792969 22.78125 17.792969 22.945312 17.789062 C 23.039062 17.789062 23.136719 17.789062 23.238281 17.789062 C 23.367188 17.789062 23.367188 17.789062 23.5 17.789062 C 23.71875 17.8125 23.71875 17.8125 24 18 C 24.035156 18.328125 24.035156 18.328125 24 18.65625 C 23.691406 18.863281 23.597656 18.867188 23.238281 18.867188 C 23.140625 18.867188 23.042969 18.867188 22.945312 18.867188 C 22.839844 18.863281 22.734375 18.863281 22.625 18.863281 C 22.515625 18.863281 22.410156 18.863281 22.296875 18.863281 C 21.953125 18.859375 21.609375 18.859375 21.261719 18.855469 C 21.03125 18.855469 20.796875 18.855469 20.5625 18.851562 C 19.992188 18.851562 19.417969 18.847656 18.84375 18.84375 C 18.84375 18.902344 18.84375 18.964844 18.84375 19.027344 C 18.847656 19.65625 18.851562 20.28125 18.855469 20.910156 C 18.855469 21.144531 18.855469 21.378906 18.859375 21.613281 C 18.859375 21.953125 18.863281 22.289062 18.863281 22.625 C 18.863281 22.730469 18.863281 22.835938 18.867188 22.945312 C 18.867188 23.039062 18.867188 23.136719 18.867188 23.238281 C 18.867188 23.324219 18.867188 23.410156 18.867188 23.5 C 18.84375 23.71875 18.84375 23.71875 18.65625 24 C 18.328125 24.035156 18.328125 24.035156 18 24 C 17.792969 23.691406 17.789062 23.597656 17.789062 23.238281 C 17.789062 23.140625 17.789062 23.042969 17.789062 22.945312 C 17.792969 22.839844 17.792969 22.734375 17.792969 22.625 C 17.792969 22.515625 17.792969 22.410156 17.792969 22.296875 C 17.796875 21.953125 17.796875 21.609375 17.800781 21.261719 C 17.800781 21.03125 17.800781 20.796875 17.804688 20.5625 C 17.804688 19.992188 17.808594 19.417969 17.8125 18.84375 C 17.753906 18.84375 17.691406 18.84375 17.628906 18.84375 C 17 18.847656 16.375 18.851562 15.746094 18.855469 C 15.511719 18.855469 15.277344 18.855469 15.042969 18.859375 C 14.703125 18.859375 14.367188 18.863281 14.03125 18.863281 C 13.875 18.863281 13.875 18.863281 13.710938 18.867188 C 13.617188 18.867188 13.519531 18.867188 13.417969 18.867188 C 13.332031 18.867188 13.246094 18.867188 13.15625 18.867188 C 12.9375 18.84375 12.9375 18.84375 12.65625 18.65625 C 12.554688 18.417969 12.546875 18.320312 12.636719 18.074219 C 12.75 17.90625 12.75 17.90625 12.9375 17.8125 C 13.09375 17.804688 13.25 17.800781 13.40625 17.800781 C 13.550781 17.800781 13.550781 17.800781 13.703125 17.800781 C 13.808594 17.800781 13.914062 17.804688 14.023438 17.804688 C 14.128906 17.804688 14.238281 17.804688 14.347656 17.804688 C 14.695312 17.804688 15.042969 17.804688 15.386719 17.808594 C 15.621094 17.808594 15.855469 17.808594 16.089844 17.808594 C 16.664062 17.808594 17.238281 17.8125 17.8125 17.8125 C 17.8125 17.753906 17.8125 17.691406 17.8125 17.628906 C 17.808594 17 17.804688 16.375 17.800781 15.746094 C 17.800781 15.511719 17.800781 15.277344 17.796875 15.042969 C 17.796875 14.703125 17.792969 14.367188 17.792969 14.03125 C 17.792969 13.925781 17.792969 13.820312 17.789062 13.710938 C 17.789062 13.566406 17.789062 13.566406 17.789062 13.417969 C 17.789062 13.332031 17.789062 13.246094 17.789062 13.15625 C 17.8125 12.9375 17.8125 12.9375 18 12.65625 Z M 18 12.65625 "/>
</g>
</svg>
