<?xml version="1.0" encoding="UTF-8"?>
<svg xmlns="http://www.w3.org/2000/svg" xmlns:xlink="http://www.w3.org/1999/xlink" width="24" height="24" viewBox="0 0 24 24" version="1.1">
<g id="surface1">
<path style=" stroke:none;fill-rule:nonzero;fill:rgb(81.568629%,1.176471%,31.764707%);fill-opacity:1;" d="M 3.644531 -0.046875 C 3.726562 -0.046875 3.8125 -0.046875 3.894531 -0.0507812 C 4.171875 -0.0507812 4.449219 -0.0507812 4.726562 -0.046875 C 4.925781 -0.0507812 5.125 -0.0507812 5.324219 -0.0507812 C 5.863281 -0.0507812 6.402344 -0.0507812 6.941406 -0.0507812 C 7.503906 -0.0507812 8.066406 -0.0507812 8.632812 -0.0507812 C 9.582031 -0.0507812 10.527344 -0.0507812 11.476562 -0.046875 C 12.570312 -0.046875 13.667969 -0.046875 14.761719 -0.0507812 C 15.703125 -0.0507812 16.644531 -0.0507812 17.585938 -0.0507812 C 18.144531 -0.0507812 18.707031 -0.0507812 19.269531 -0.0507812 C 19.796875 -0.0507812 20.324219 -0.0507812 20.855469 -0.0507812 C 21.050781 -0.046875 21.242188 -0.046875 21.4375 -0.0507812 C 21.699219 -0.0507812 21.964844 -0.0507812 22.230469 -0.046875 C 22.308594 -0.046875 22.382812 -0.0507812 22.460938 -0.0507812 C 22.957031 -0.0429688 23.230469 0.0546875 23.625 0.375 C 24.136719 0.953125 24.054688 1.75 24.050781 2.472656 C 24.050781 2.605469 24.050781 2.734375 24.050781 2.863281 C 24.050781 3.136719 24.050781 3.40625 24.050781 3.679688 C 24.046875 4.027344 24.046875 4.375 24.050781 4.722656 C 24.050781 4.988281 24.050781 5.257812 24.050781 5.527344 C 24.050781 5.652344 24.050781 5.78125 24.050781 5.910156 C 24.050781 6.089844 24.050781 6.269531 24.050781 6.449219 C 24.046875 6.550781 24.046875 6.652344 24.046875 6.753906 C 23.988281 7.097656 23.867188 7.257812 23.625 7.5 C 23.359375 7.554688 23.359375 7.554688 23.054688 7.546875 C 22.957031 7.542969 22.859375 7.542969 22.757812 7.542969 C 22.574219 7.535156 22.574219 7.535156 22.382812 7.527344 C 21.988281 7.519531 21.59375 7.507812 21.1875 7.5 C 21.1875 9.015625 21.1875 10.53125 21.1875 12.09375 C 21.34375 12.15625 21.496094 12.21875 21.65625 12.28125 C 21.820312 12.371094 21.984375 12.464844 22.148438 12.558594 C 22.238281 12.613281 22.328125 12.667969 22.421875 12.722656 C 22.515625 12.777344 22.609375 12.832031 22.707031 12.890625 C 22.800781 12.945312 22.894531 13.003906 22.992188 13.058594 C 23.695312 13.476562 23.695312 13.476562 23.90625 13.6875 C 24.015625 14.421875 23.699219 14.894531 23.332031 15.515625 C 23.273438 15.621094 23.214844 15.722656 23.15625 15.832031 C 22.867188 16.339844 22.574219 16.816406 22.21875 17.277344 C 21.113281 18.769531 21.148438 20.207031 21.1875 22.003906 C 21.1875 22.101562 21.191406 22.199219 21.191406 22.296875 C 21.195312 22.480469 21.203125 22.667969 21.210938 22.851562 C 21.214844 22.933594 21.214844 23.015625 21.21875 23.101562 C 21.222656 23.207031 21.222656 23.207031 21.226562 23.320312 C 21.167969 23.636719 21.042969 23.777344 20.8125 24 C 20.542969 24.046875 20.332031 24.0625 20.066406 24.058594 C 19.988281 24.058594 19.914062 24.058594 19.835938 24.0625 C 19.582031 24.0625 19.328125 24.0625 19.070312 24.058594 C 18.890625 24.058594 18.707031 24.058594 18.523438 24.0625 C 18.027344 24.0625 17.535156 24.0625 17.039062 24.058594 C 16.519531 24.058594 16.003906 24.058594 15.484375 24.058594 C 14.613281 24.058594 13.742188 24.058594 12.875 24.054688 C 11.867188 24.050781 10.859375 24.050781 9.855469 24.054688 C 8.886719 24.054688 7.917969 24.054688 6.953125 24.054688 C 6.539062 24.054688 6.128906 24.054688 5.714844 24.054688 C 5.230469 24.054688 4.746094 24.054688 4.261719 24.050781 C 4.082031 24.050781 3.902344 24.050781 3.726562 24.050781 C 3.484375 24.050781 3.238281 24.050781 2.996094 24.046875 C 2.925781 24.050781 2.855469 24.050781 2.78125 24.050781 C 2.46875 24.046875 2.28125 24.019531 2.019531 23.839844 C 1.84375 23.578125 1.832031 23.433594 1.835938 23.121094 C 1.835938 23.019531 1.839844 22.914062 1.839844 22.808594 C 1.84375 22.695312 1.84375 22.585938 1.847656 22.46875 C 1.851562 22.289062 1.851562 22.105469 1.855469 21.925781 C 1.855469 21.730469 1.859375 21.535156 1.863281 21.339844 C 1.871094 20.933594 1.875 20.523438 1.878906 20.117188 C 1.878906 19.976562 1.878906 19.835938 1.878906 19.699219 C 1.878906 19.628906 1.878906 19.558594 1.878906 19.484375 C 1.886719 18.539062 1.898438 17.589844 1.914062 16.640625 C 1.925781 16 1.933594 15.359375 1.933594 14.722656 C 1.933594 14.382812 1.9375 14.042969 1.945312 13.707031 C 2.050781 12.359375 2.050781 12.359375 1.632812 11.140625 C 1.273438 10.824219 0.886719 10.644531 0.441406 10.480469 C 0.214844 10.375 0.109375 10.253906 0 10.03125 C 0.015625 9.523438 0.171875 9.179688 0.425781 8.746094 C 0.457031 8.691406 0.488281 8.632812 0.523438 8.574219 C 0.628906 8.394531 0.730469 8.21875 0.839844 8.039062 C 0.910156 7.917969 0.980469 7.796875 1.046875 7.675781 C 1.535156 6.835938 1.535156 6.835938 1.78125 6.46875 C 1.808594 6.21875 1.808594 6.21875 1.804688 5.9375 C 1.804688 5.773438 1.804688 5.773438 1.808594 5.609375 C 1.808594 5.488281 1.808594 5.371094 1.808594 5.25 C 1.808594 5.066406 1.808594 4.878906 1.8125 4.695312 C 1.816406 4.242188 1.816406 3.785156 1.816406 3.328125 C 1.816406 3.070312 1.820312 2.816406 1.820312 2.558594 C 1.824219 2.320312 1.824219 2.078125 1.824219 1.835938 C 1.835938 0.800781 1.835938 0.800781 2.25 0.375 C 2.722656 -0.0117188 3.058594 -0.0546875 3.644531 -0.046875 Z M 3.644531 -0.046875 "/>
<path style=" stroke:none;fill-rule:nonzero;fill:rgb(99.607843%,95.686275%,95.686275%);fill-opacity:1;" d="M 1.875 11.34375 C 2.214844 11.421875 2.472656 11.550781 2.773438 11.726562 C 2.933594 11.816406 2.933594 11.816406 3.09375 11.90625 C 3.207031 11.972656 3.320312 12.039062 3.433594 12.105469 C 3.550781 12.171875 3.671875 12.242188 3.789062 12.308594 C 4.09375 12.484375 4.394531 12.660156 4.699219 12.835938 C 4.96875 12.992188 5.234375 13.144531 5.503906 13.300781 C 5.902344 13.53125 6.300781 13.761719 6.699219 13.992188 C 7.078125 14.207031 7.453125 14.421875 7.828125 14.636719 C 8.058594 14.769531 8.285156 14.898438 8.511719 15.027344 C 8.675781 15.121094 8.835938 15.210938 9 15.304688 C 9.097656 15.359375 9.191406 15.417969 9.292969 15.472656 C 9.378906 15.523438 9.464844 15.570312 9.554688 15.621094 C 9.75 15.75 9.75 15.75 9.84375 15.9375 C 9.757812 15.9375 9.757812 15.9375 9.667969 15.9375 C 9.066406 15.941406 8.464844 15.949219 7.863281 15.957031 C 7.636719 15.960938 7.410156 15.960938 7.1875 15.960938 C 6.863281 15.964844 6.539062 15.96875 6.21875 15.972656 C 6.066406 15.972656 6.066406 15.972656 5.914062 15.972656 C 5.820312 15.976562 5.726562 15.976562 5.628906 15.980469 C 5.546875 15.980469 5.464844 15.980469 5.378906 15.984375 C 5.082031 16.046875 4.964844 16.167969 4.78125 16.40625 C 4.773438 16.746094 4.773438 16.746094 4.875 17.0625 C 5.226562 17.296875 5.398438 17.269531 5.816406 17.253906 C 5.957031 17.253906 6.097656 17.25 6.234375 17.246094 C 6.308594 17.246094 6.382812 17.242188 6.460938 17.242188 C 6.855469 17.230469 7.253906 17.230469 7.652344 17.226562 C 8.15625 17.222656 8.660156 17.214844 9.164062 17.203125 C 11.410156 17.136719 12.953125 17.324219 14.8125 18.648438 C 15.28125 18.972656 15.777344 19.25 16.269531 19.527344 C 16.804688 19.835938 17.332031 20.148438 17.855469 20.46875 C 17.9375 20.515625 18.019531 20.5625 18.101562 20.613281 C 18.25 20.703125 18.398438 20.796875 18.546875 20.886719 C 18.96875 21.136719 19.28125 21.28125 19.78125 21.1875 C 20.15625 20.839844 20.390625 20.335938 20.644531 19.894531 C 20.726562 19.746094 20.808594 19.601562 20.894531 19.457031 C 20.929688 19.394531 20.964844 19.328125 21.003906 19.265625 C 21.03125 19.21875 21.0625 19.171875 21.09375 19.125 C 21.125 19.125 21.15625 19.125 21.1875 19.125 C 21.195312 19.742188 21.203125 20.363281 21.207031 20.980469 C 21.210938 21.191406 21.210938 21.402344 21.214844 21.613281 C 21.21875 21.914062 21.222656 22.21875 21.222656 22.523438 C 21.226562 22.617188 21.226562 22.710938 21.230469 22.804688 C 21.230469 22.894531 21.230469 22.984375 21.230469 23.074219 C 21.230469 23.152344 21.230469 23.226562 21.234375 23.308594 C 21.167969 23.628906 21.046875 23.769531 20.8125 24 C 20.546875 24.046875 20.332031 24.0625 20.066406 24.058594 C 19.988281 24.058594 19.914062 24.058594 19.835938 24.0625 C 19.582031 24.0625 19.328125 24.0625 19.070312 24.058594 C 18.890625 24.058594 18.707031 24.058594 18.523438 24.0625 C 18.027344 24.0625 17.535156 24.0625 17.039062 24.058594 C 16.519531 24.058594 16.003906 24.058594 15.484375 24.058594 C 14.613281 24.058594 13.742188 24.058594 12.875 24.054688 C 11.867188 24.050781 10.859375 24.050781 9.855469 24.054688 C 8.886719 24.054688 7.921875 24.054688 6.953125 24.054688 C 6.539062 24.054688 6.128906 24.054688 5.714844 24.054688 C 5.230469 24.054688 4.746094 24.054688 4.261719 24.050781 C 4.082031 24.050781 3.902344 24.050781 3.726562 24.050781 C 3.484375 24.050781 3.238281 24.050781 2.996094 24.046875 C 2.925781 24.046875 2.855469 24.050781 2.78125 24.050781 C 2.46875 24.046875 2.28125 24.019531 2.019531 23.839844 C 1.84375 23.578125 1.828125 23.429688 1.828125 23.113281 C 1.828125 23.011719 1.828125 22.90625 1.828125 22.800781 C 1.828125 22.6875 1.832031 22.570312 1.832031 22.453125 C 1.832031 22.335938 1.832031 22.214844 1.832031 22.09375 C 1.832031 21.761719 1.835938 21.433594 1.835938 21.105469 C 1.839844 20.765625 1.839844 20.421875 1.839844 20.078125 C 1.839844 19.429688 1.84375 18.777344 1.847656 18.128906 C 1.851562 17.390625 1.855469 16.648438 1.855469 15.910156 C 1.859375 14.386719 1.867188 12.867188 1.875 11.34375 Z M 1.875 11.34375 "/>
<path style=" stroke:none;fill-rule:nonzero;fill:rgb(87.450981%,86.666667%,95.686275%);fill-opacity:1;" d="M 3.644531 -0.046875 C 3.726562 -0.046875 3.8125 -0.046875 3.894531 -0.0507812 C 4.171875 -0.0507812 4.449219 -0.0507812 4.726562 -0.046875 C 4.925781 -0.0507812 5.125 -0.0507812 5.324219 -0.0507812 C 5.863281 -0.0507812 6.402344 -0.0507812 6.941406 -0.0507812 C 7.503906 -0.0507812 8.066406 -0.0507812 8.632812 -0.0507812 C 9.582031 -0.0507812 10.527344 -0.0507812 11.476562 -0.046875 C 12.570312 -0.046875 13.667969 -0.046875 14.761719 -0.0507812 C 15.703125 -0.0507812 16.644531 -0.0507812 17.585938 -0.0507812 C 18.144531 -0.0507812 18.707031 -0.0507812 19.269531 -0.0507812 C 19.796875 -0.0507812 20.324219 -0.0507812 20.855469 -0.0507812 C 21.050781 -0.046875 21.242188 -0.046875 21.4375 -0.0507812 C 21.699219 -0.0507812 21.964844 -0.0507812 22.230469 -0.046875 C 22.308594 -0.046875 22.382812 -0.0507812 22.460938 -0.0507812 C 22.957031 -0.0429688 23.230469 0.0546875 23.625 0.375 C 24.136719 0.953125 24.054688 1.75 24.050781 2.472656 C 24.050781 2.605469 24.050781 2.734375 24.050781 2.863281 C 24.050781 3.136719 24.050781 3.40625 24.050781 3.679688 C 24.046875 4.027344 24.046875 4.375 24.050781 4.722656 C 24.050781 4.988281 24.050781 5.257812 24.050781 5.527344 C 24.050781 5.652344 24.050781 5.78125 24.050781 5.910156 C 24.050781 6.089844 24.050781 6.269531 24.050781 6.449219 C 24.046875 6.550781 24.046875 6.652344 24.046875 6.753906 C 23.988281 7.097656 23.867188 7.257812 23.625 7.5 C 23.359375 7.554688 23.359375 7.554688 23.054688 7.546875 C 22.957031 7.542969 22.859375 7.542969 22.757812 7.542969 C 22.574219 7.535156 22.574219 7.535156 22.382812 7.527344 C 21.988281 7.519531 21.59375 7.507812 21.1875 7.5 C 21.1875 9.015625 21.1875 10.53125 21.1875 12.09375 C 20.132812 11.566406 20.132812 11.566406 19.757812 11.34375 C 19.671875 11.296875 19.589844 11.246094 19.5 11.191406 C 19.410156 11.140625 19.320312 11.089844 19.230469 11.035156 C 18.367188 10.527344 17.5 10.023438 16.628906 9.527344 C 16.523438 9.46875 16.417969 9.40625 16.308594 9.34375 C 16.105469 9.226562 15.898438 9.109375 15.691406 8.992188 C 15.148438 8.683594 14.605469 8.371094 14.0625 8.0625 C 14.0625 8.03125 14.0625 8 14.0625 7.96875 C 14.175781 7.964844 14.292969 7.964844 14.410156 7.960938 C 14.835938 7.953125 15.261719 7.945312 15.6875 7.933594 C 15.875 7.929688 16.058594 7.925781 16.242188 7.921875 C 16.507812 7.917969 16.773438 7.910156 17.039062 7.902344 C 17.121094 7.902344 17.203125 7.902344 17.289062 7.898438 C 17.367188 7.898438 17.441406 7.894531 17.519531 7.894531 C 17.589844 7.894531 17.65625 7.890625 17.726562 7.890625 C 17.925781 7.878906 17.925781 7.878906 18.1875 7.78125 C 18.1875 7.441406 18.1875 7.101562 18.1875 6.75 C 17.871094 6.644531 17.648438 6.648438 17.316406 6.65625 C 17.132812 6.660156 17.132812 6.660156 16.945312 6.664062 C 16.878906 6.667969 16.816406 6.667969 16.746094 6.667969 C 16.320312 6.675781 15.894531 6.679688 15.46875 6.679688 C 15.097656 6.683594 14.726562 6.6875 14.355469 6.695312 C 12.332031 6.746094 10.808594 6.617188 9.1875 5.25 C 9.1875 5.21875 9.1875 5.1875 9.1875 5.15625 C 9.296875 5.15625 9.40625 5.15625 9.515625 5.152344 C 10.539062 5.144531 11.5625 5.136719 12.582031 5.125 C 13.109375 5.117188 13.632812 5.113281 14.160156 5.109375 C 14.667969 5.105469 15.171875 5.101562 15.679688 5.09375 C 15.875 5.09375 16.066406 5.089844 16.261719 5.089844 C 16.53125 5.085938 16.804688 5.085938 17.074219 5.082031 C 17.15625 5.082031 17.234375 5.082031 17.316406 5.082031 C 17.628906 5.074219 17.886719 5.066406 18.1875 4.96875 C 18.1875 4.628906 18.1875 4.289062 18.1875 3.9375 C 17.910156 3.847656 17.742188 3.832031 17.453125 3.835938 C 17.359375 3.835938 17.265625 3.835938 17.171875 3.835938 C 17.070312 3.839844 16.96875 3.839844 16.859375 3.839844 C 16.636719 3.84375 16.414062 3.84375 16.191406 3.84375 C 16.011719 3.847656 16.011719 3.847656 15.828125 3.847656 C 15.457031 3.851562 15.085938 3.851562 14.710938 3.851562 C 14.648438 3.851562 14.585938 3.851562 14.519531 3.851562 C 14.257812 3.851562 14 3.851562 13.738281 3.851562 C 13 3.851562 12.265625 3.855469 11.527344 3.863281 C 10.941406 3.867188 10.355469 3.871094 9.769531 3.867188 C 9.460938 3.867188 9.152344 3.867188 8.84375 3.875 C 7.382812 3.894531 6.34375 3.800781 5.132812 2.941406 C 4.820312 2.722656 4.605469 2.65625 4.21875 2.71875 C 4.058594 2.832031 4.058594 2.832031 3.949219 3.007812 C 3.878906 3.113281 3.878906 3.113281 3.808594 3.21875 C 3.488281 3.742188 3.1875 4.273438 2.886719 4.808594 C 2.789062 4.988281 2.6875 5.167969 2.585938 5.347656 C 2.496094 5.511719 2.40625 5.671875 2.316406 5.832031 C 2.179688 6.054688 2.058594 6.199219 1.875 6.375 C 1.867188 5.675781 1.859375 4.976562 1.855469 4.277344 C 1.855469 3.953125 1.851562 3.628906 1.847656 3.304688 C 1.839844 2.929688 1.839844 2.554688 1.839844 2.183594 C 1.835938 2.066406 1.835938 1.949219 1.832031 1.832031 C 1.832031 0.804688 1.832031 0.804688 2.25 0.375 C 2.722656 -0.0117188 3.058594 -0.0546875 3.644531 -0.046875 Z M 3.644531 -0.046875 "/>
<path style=" stroke:none;fill-rule:nonzero;fill:rgb(99.607843%,25.882354%,36.470589%);fill-opacity:1;" d="M 4.6875 4.3125 C 5.015625 4.375 5.265625 4.507812 5.554688 4.667969 C 5.652344 4.722656 5.75 4.777344 5.847656 4.832031 C 5.949219 4.890625 6.050781 4.949219 6.160156 5.011719 C 6.265625 5.070312 6.371094 5.128906 6.480469 5.191406 C 7.117188 5.550781 7.75 5.917969 8.382812 6.289062 C 8.984375 6.648438 9.589844 7 10.195312 7.347656 C 10.296875 7.40625 10.402344 7.46875 10.507812 7.527344 C 11.011719 7.820312 11.519531 8.109375 12.023438 8.394531 C 12.117188 8.449219 12.207031 8.5 12.300781 8.554688 C 12.472656 8.648438 12.640625 8.746094 12.8125 8.84375 C 12.890625 8.886719 12.964844 8.929688 13.042969 8.972656 C 13.109375 9.007812 13.175781 9.046875 13.242188 9.085938 C 13.40625 9.1875 13.40625 9.1875 13.59375 9.375 C 13.53125 9.375 13.46875 9.375 13.40625 9.375 C 13.378906 9.441406 13.351562 9.511719 13.324219 9.582031 C 13.226562 9.824219 13.128906 10.070312 13.03125 10.3125 C 13.171875 10.359375 13.171875 10.359375 13.3125 10.40625 C 13.414062 11.175781 13.074219 11.664062 12.679688 12.304688 C 12.621094 12.40625 12.5625 12.507812 12.5 12.609375 C 11.972656 13.492188 11.972656 13.492188 11.625 13.78125 C 11.273438 13.804688 11.273438 13.804688 10.96875 13.78125 C 10.8125 14.089844 10.660156 14.398438 10.5 14.71875 C 10.382812 14.636719 10.265625 14.558594 10.144531 14.476562 C 9.636719 14.136719 9.109375 13.839844 8.574219 13.546875 C 7.679688 13.050781 6.796875 12.546875 5.917969 12.03125 C 5.417969 11.738281 4.914062 11.445312 4.410156 11.15625 C 4.355469 11.125 4.300781 11.09375 4.242188 11.0625 C 3.980469 10.910156 3.714844 10.757812 3.449219 10.609375 C 2.878906 10.28125 2.324219 9.9375 1.78125 9.5625 C 1.90625 9.230469 2.054688 8.925781 2.226562 8.613281 C 2.28125 8.523438 2.332031 8.429688 2.386719 8.332031 C 2.441406 8.234375 2.496094 8.136719 2.554688 8.035156 C 2.613281 7.929688 2.671875 7.828125 2.730469 7.722656 C 3.304688 6.707031 3.890625 5.695312 4.484375 4.691406 C 4.554688 4.566406 4.625 4.441406 4.6875 4.3125 Z M 4.6875 4.3125 "/>
<path style=" stroke:none;fill-rule:nonzero;fill:rgb(99.607843%,41.960785%,41.960785%);fill-opacity:1;" d="M 4.457031 2.585938 C 4.84375 2.632812 5.019531 2.765625 5.328125 2.988281 C 6.558594 3.839844 7.753906 3.792969 9.203125 3.765625 C 9.457031 3.765625 9.707031 3.761719 9.957031 3.765625 C 10.546875 3.761719 11.132812 3.757812 11.722656 3.75 C 12.777344 3.738281 13.835938 3.734375 14.890625 3.730469 C 15.320312 3.730469 15.75 3.726562 16.179688 3.71875 C 16.402344 3.71875 16.628906 3.71875 16.851562 3.714844 C 17.003906 3.710938 17.003906 3.710938 17.160156 3.707031 C 17.84375 3.707031 17.84375 3.707031 18.15625 3.917969 C 18.339844 4.222656 18.332031 4.433594 18.28125 4.78125 C 18.140625 4.988281 18.140625 4.988281 17.90625 5.15625 C 17.621094 5.195312 17.367188 5.210938 17.082031 5.207031 C 16.996094 5.207031 16.914062 5.210938 16.828125 5.210938 C 16.554688 5.214844 16.277344 5.214844 16.003906 5.214844 C 15.8125 5.214844 15.621094 5.214844 15.429688 5.21875 C 14.929688 5.222656 14.425781 5.222656 13.925781 5.226562 C 13.414062 5.226562 12.902344 5.230469 12.390625 5.234375 C 11.382812 5.242188 10.378906 5.246094 9.375 5.25 C 11.035156 6.589844 12.527344 6.628906 14.554688 6.574219 C 15.144531 6.558594 15.730469 6.554688 16.320312 6.550781 C 16.523438 6.546875 16.726562 6.542969 16.929688 6.535156 C 17.054688 6.535156 17.175781 6.535156 17.304688 6.53125 C 17.410156 6.527344 17.519531 6.523438 17.628906 6.523438 C 17.90625 6.5625 17.90625 6.5625 18.128906 6.730469 C 18.351562 7.03125 18.332031 7.230469 18.28125 7.59375 C 18.128906 7.820312 18.007812 7.949219 17.730469 8.003906 C 17.511719 8.019531 17.292969 8.027344 17.070312 8.027344 C 16.988281 8.027344 16.910156 8.027344 16.824219 8.03125 C 16.570312 8.035156 16.3125 8.035156 16.054688 8.039062 C 15.878906 8.042969 15.707031 8.042969 15.53125 8.046875 C 15.105469 8.054688 14.675781 8.058594 14.25 8.0625 C 13.925781 8.667969 13.925781 8.667969 13.59375 9.28125 C 13.179688 9.144531 12.894531 9.03125 12.527344 8.816406 C 12.433594 8.761719 12.339844 8.707031 12.238281 8.648438 C 12.085938 8.558594 12.085938 8.558594 11.929688 8.464844 C 11.820312 8.402344 11.710938 8.339844 11.605469 8.277344 C 11.378906 8.144531 11.152344 8.015625 10.929688 7.882812 C 10.414062 7.582031 9.894531 7.285156 9.375 6.984375 C 8.804688 6.65625 8.234375 6.324219 7.664062 5.996094 C 7.5 5.902344 7.332031 5.804688 7.167969 5.710938 C 6.964844 5.589844 6.757812 5.472656 6.550781 5.351562 C 5.9375 4.996094 5.3125 4.652344 4.6875 4.3125 C 4.667969 4.382812 4.648438 4.457031 4.628906 4.53125 C 4.445312 5.019531 4.179688 5.445312 3.914062 5.894531 C 3.855469 5.992188 3.800781 6.089844 3.738281 6.191406 C 3.429688 6.714844 3.117188 7.238281 2.804688 7.761719 C 2.746094 7.867188 2.683594 7.96875 2.621094 8.074219 C 2.503906 8.269531 2.386719 8.46875 2.265625 8.664062 C 2.214844 8.753906 2.160156 8.84375 2.105469 8.933594 C 2.058594 9.011719 2.011719 9.089844 1.964844 9.171875 C 1.84375 9.386719 1.84375 9.386719 1.96875 9.65625 C 2.144531 9.789062 2.144531 9.789062 2.371094 9.90625 C 2.5 9.976562 2.5 9.976562 2.628906 10.046875 C 2.769531 10.125 2.769531 10.125 2.914062 10.199219 C 3.109375 10.3125 3.308594 10.421875 3.507812 10.53125 C 3.613281 10.589844 3.714844 10.644531 3.820312 10.703125 C 4.289062 10.96875 4.753906 11.242188 5.21875 11.511719 C 6.058594 12.003906 6.898438 12.488281 7.742188 12.964844 C 8.636719 13.476562 9.527344 13.992188 10.40625 14.53125 C 10.257812 14.996094 10.066406 15.414062 9.84375 15.84375 C 9.171875 15.519531 8.527344 15.164062 7.886719 14.785156 C 6.980469 14.25 6.066406 13.726562 5.152344 13.207031 C 4.34375 12.746094 3.539062 12.273438 2.746094 11.785156 C 2.339844 11.539062 1.9375 11.339844 1.5 11.15625 C 1.285156 11.039062 1.074219 10.914062 0.867188 10.785156 C 0.710938 10.691406 0.710938 10.691406 0.550781 10.597656 C 0.128906 10.296875 0.128906 10.296875 0 10.03125 C 0.0351562 9.535156 0.164062 9.195312 0.410156 8.765625 C 0.441406 8.710938 0.476562 8.65625 0.507812 8.597656 C 0.609375 8.421875 0.710938 8.25 0.8125 8.074219 C 0.882812 7.957031 0.949219 7.84375 1.015625 7.726562 C 1.292969 7.25 1.570312 6.777344 1.878906 6.324219 C 2.308594 5.691406 2.667969 5.023438 3.039062 4.359375 C 4.011719 2.65625 4.011719 2.65625 4.457031 2.585938 Z M 4.457031 2.585938 "/>
<path style=" stroke:none;fill-rule:nonzero;fill:rgb(99.607843%,25.098041%,36.078432%);fill-opacity:1;" d="M 14.15625 8.15625 C 14.511719 8.210938 14.769531 8.3125 15.078125 8.496094 C 15.164062 8.546875 15.253906 8.601562 15.34375 8.652344 C 15.484375 8.738281 15.484375 8.738281 15.628906 8.824219 C 15.828125 8.945312 16.03125 9.066406 16.234375 9.183594 C 16.339844 9.246094 16.445312 9.308594 16.554688 9.375 C 17.074219 9.679688 17.597656 9.980469 18.121094 10.285156 C 18.328125 10.402344 18.53125 10.519531 18.734375 10.636719 C 18.832031 10.691406 18.929688 10.746094 19.03125 10.804688 C 19.296875 10.957031 19.5625 11.113281 19.828125 11.265625 C 20.71875 11.789062 20.71875 11.789062 21.621094 12.285156 C 22.078125 12.535156 22.527344 12.792969 22.972656 13.054688 C 23.042969 13.097656 23.117188 13.136719 23.1875 13.179688 C 23.289062 13.238281 23.289062 13.238281 23.386719 13.296875 C 23.445312 13.332031 23.507812 13.367188 23.566406 13.402344 C 23.71875 13.5 23.71875 13.5 23.90625 13.6875 C 24.015625 14.421875 23.703125 14.890625 23.339844 15.511719 C 23.277344 15.613281 23.21875 15.714844 23.160156 15.820312 C 22.972656 16.140625 22.785156 16.460938 22.59375 16.78125 C 22.535156 16.882812 22.472656 16.984375 22.410156 17.089844 C 22.0625 17.675781 21.710938 18.261719 21.355469 18.84375 C 21.1875 19.121094 21.023438 19.402344 20.859375 19.679688 C 20.808594 19.765625 20.757812 19.851562 20.703125 19.941406 C 20.605469 20.105469 20.511719 20.265625 20.414062 20.429688 C 20.371094 20.5 20.332031 20.570312 20.285156 20.644531 C 20.25 20.707031 20.214844 20.769531 20.175781 20.832031 C 19.976562 21.128906 19.859375 21.265625 19.503906 21.335938 C 18.949219 21.308594 18.480469 20.945312 18.019531 20.667969 C 17.910156 20.601562 17.800781 20.539062 17.695312 20.476562 C 17.46875 20.34375 17.246094 20.207031 17.023438 20.074219 C 16.496094 19.757812 15.960938 19.453125 15.425781 19.148438 C 15.242188 19.042969 15.058594 18.933594 14.871094 18.828125 C 14.773438 18.773438 14.671875 18.71875 14.570312 18.664062 C 14.332031 18.527344 14.125 18.371094 13.910156 18.199219 C 12.457031 17.101562 10.714844 17.316406 8.984375 17.351562 C 8.316406 17.363281 7.644531 17.367188 6.976562 17.371094 C 6.742188 17.375 6.511719 17.378906 6.277344 17.386719 C 6.136719 17.386719 5.996094 17.386719 5.851562 17.390625 C 5.667969 17.390625 5.667969 17.390625 5.476562 17.398438 C 5.070312 17.328125 4.933594 17.199219 4.6875 16.875 C 4.683594 16.535156 4.683594 16.535156 4.78125 16.21875 C 5.058594 15.953125 5.25 15.902344 5.628906 15.90625 C 5.722656 15.90625 5.816406 15.90625 5.914062 15.90625 C 6.066406 15.90625 6.066406 15.90625 6.21875 15.910156 C 6.320312 15.910156 6.425781 15.910156 6.53125 15.910156 C 6.863281 15.914062 7.191406 15.914062 7.523438 15.917969 C 7.746094 15.921875 7.972656 15.921875 8.195312 15.921875 C 8.746094 15.925781 9.292969 15.933594 9.84375 15.9375 C 9.859375 15.847656 9.871094 15.761719 9.886719 15.667969 C 9.957031 15.273438 10.089844 15.050781 10.3125 14.71875 C 10.59375 14.625 10.59375 14.625 10.832031 14.730469 C 10.925781 14.785156 11.019531 14.839844 11.117188 14.898438 C 11.222656 14.957031 11.328125 15.019531 11.4375 15.082031 C 11.554688 15.152344 11.667969 15.21875 11.785156 15.285156 C 11.902344 15.355469 12.023438 15.425781 12.140625 15.496094 C 12.445312 15.671875 12.746094 15.847656 13.050781 16.027344 C 13.300781 16.171875 13.550781 16.316406 13.800781 16.464844 C 14.070312 16.621094 14.34375 16.78125 14.613281 16.941406 C 15.46875 17.441406 16.332031 17.929688 17.191406 18.421875 C 17.75 18.738281 18.304688 19.0625 18.851562 19.402344 C 19.023438 19.515625 19.023438 19.515625 19.21875 19.5 C 19.257812 19.433594 19.292969 19.367188 19.335938 19.296875 C 20.261719 17.675781 21.191406 16.054688 22.125 14.4375 C 21.804688 14.171875 21.484375 13.953125 21.121094 13.746094 C 21.019531 13.6875 20.914062 13.628906 20.804688 13.566406 C 20.722656 13.523438 20.722656 13.523438 20.636719 13.472656 C 20.402344 13.339844 20.167969 13.207031 19.933594 13.074219 C 19.8125 13.003906 19.691406 12.9375 19.570312 12.867188 C 18.976562 12.53125 18.390625 12.191406 17.800781 11.855469 C 17.601562 11.738281 17.402344 11.625 17.203125 11.507812 C 17.105469 11.453125 17.003906 11.394531 16.902344 11.335938 C 16.632812 11.179688 16.359375 11.023438 16.089844 10.867188 C 15.867188 10.738281 15.640625 10.609375 15.417969 10.480469 C 15.261719 10.390625 15.105469 10.300781 14.949219 10.210938 C 14.484375 9.945312 14.03125 9.679688 13.59375 9.375 C 13.640625 8.890625 13.894531 8.546875 14.15625 8.15625 Z M 14.15625 8.15625 "/>
<path style=" stroke:none;fill-rule:nonzero;fill:rgb(87.450981%,86.666667%,95.686275%);fill-opacity:1;" d="M 11.53125 17.34375 C 12.585938 17.34375 12.585938 17.34375 13.054688 17.625 C 13.160156 17.6875 13.261719 17.746094 13.371094 17.8125 C 13.480469 17.878906 13.589844 17.945312 13.699219 18.011719 C 13.816406 18.082031 13.929688 18.148438 14.046875 18.21875 C 14.28125 18.355469 14.519531 18.496094 14.753906 18.636719 C 15.253906 18.941406 15.765625 19.234375 16.269531 19.527344 C 16.800781 19.835938 17.332031 20.148438 17.855469 20.46875 C 17.9375 20.515625 18.019531 20.5625 18.101562 20.613281 C 18.25 20.703125 18.398438 20.796875 18.546875 20.886719 C 18.96875 21.136719 19.28125 21.28125 19.78125 21.1875 C 20.15625 20.839844 20.390625 20.335938 20.644531 19.894531 C 20.726562 19.746094 20.808594 19.601562 20.894531 19.457031 C 20.929688 19.394531 20.964844 19.328125 21.003906 19.265625 C 21.046875 19.195312 21.046875 19.195312 21.09375 19.125 C 21.125 19.125 21.15625 19.125 21.1875 19.125 C 21.195312 19.742188 21.203125 20.363281 21.207031 20.980469 C 21.210938 21.191406 21.210938 21.402344 21.214844 21.613281 C 21.21875 21.914062 21.222656 22.21875 21.222656 22.523438 C 21.226562 22.617188 21.226562 22.710938 21.230469 22.804688 C 21.230469 22.9375 21.230469 22.9375 21.230469 23.074219 C 21.230469 23.152344 21.230469 23.226562 21.234375 23.308594 C 21.164062 23.640625 21.070312 23.777344 20.8125 24 C 20.515625 24.066406 20.222656 24.058594 19.917969 24.054688 C 19.78125 24.054688 19.78125 24.054688 19.644531 24.054688 C 19.34375 24.054688 19.046875 24.050781 18.746094 24.046875 C 18.539062 24.046875 18.332031 24.042969 18.121094 24.042969 C 17.578125 24.042969 17.03125 24.039062 16.484375 24.03125 C 15.828125 24.027344 15.171875 24.023438 14.519531 24.023438 C 13.523438 24.015625 12.527344 24.007812 11.53125 24 C 11.53125 21.804688 11.53125 19.605469 11.53125 17.34375 Z M 11.53125 17.34375 "/>
<path style=" stroke:none;fill-rule:nonzero;fill:rgb(100%,95.686275%,95.686275%);fill-opacity:1;" d="M 3.675781 -0.0429688 C 3.761719 -0.0429688 3.847656 -0.0429688 3.933594 -0.0429688 C 4.214844 -0.0429688 4.496094 -0.0390625 4.773438 -0.0351562 C 4.96875 -0.0351562 5.164062 -0.0351562 5.359375 -0.0351562 C 5.871094 -0.03125 6.382812 -0.03125 6.890625 -0.0273438 C 7.414062 -0.0234375 7.9375 -0.0195312 8.460938 -0.0195312 C 9.484375 -0.015625 10.507812 -0.0078125 11.53125 0 C 11.53125 1.238281 11.53125 2.476562 11.53125 3.75 C 10.855469 3.773438 10.183594 3.792969 9.507812 3.808594 C 9.277344 3.8125 9.046875 3.820312 8.820312 3.828125 C 7.359375 3.882812 6.34375 3.800781 5.132812 2.941406 C 4.886719 2.769531 4.777344 2.71875 4.46875 2.667969 C 4.179688 2.726562 4.113281 2.769531 3.949219 3.011719 C 3.882812 3.113281 3.882812 3.113281 3.808594 3.21875 C 3.488281 3.742188 3.1875 4.273438 2.886719 4.8125 C 2.789062 4.988281 2.6875 5.167969 2.585938 5.347656 C 2.496094 5.507812 2.40625 5.671875 2.316406 5.832031 C 2.179688 6.054688 2.058594 6.199219 1.875 6.375 C 1.867188 5.675781 1.859375 4.976562 1.855469 4.277344 C 1.851562 3.953125 1.851562 3.628906 1.847656 3.304688 C 1.84375 2.929688 1.839844 2.554688 1.839844 2.183594 C 1.835938 2.066406 1.835938 1.949219 1.832031 1.832031 C 1.832031 0.804688 1.832031 0.804688 2.25 0.375 C 2.730469 -0.0234375 3.082031 -0.0546875 3.675781 -0.0429688 Z M 3.675781 -0.0429688 "/>
<path style=" stroke:none;fill-rule:nonzero;fill:rgb(82.352942%,81.568629%,94.901961%);fill-opacity:1;" d="M 23.375 0.140625 C 23.882812 0.613281 24.019531 1.070312 24.050781 1.746094 C 24.050781 1.988281 24.050781 2.230469 24.050781 2.472656 C 24.050781 2.605469 24.050781 2.734375 24.050781 2.863281 C 24.050781 3.136719 24.050781 3.40625 24.050781 3.679688 C 24.046875 4.027344 24.046875 4.375 24.050781 4.722656 C 24.050781 4.988281 24.050781 5.257812 24.050781 5.527344 C 24.050781 5.65625 24.050781 5.78125 24.050781 5.910156 C 24.050781 6.089844 24.050781 6.269531 24.050781 6.449219 C 24.046875 6.601562 24.046875 6.601562 24.046875 6.753906 C 23.988281 7.105469 23.890625 7.261719 23.625 7.5 C 23.351562 7.554688 23.351562 7.554688 23.035156 7.546875 C 22.921875 7.542969 22.808594 7.542969 22.691406 7.542969 C 22.574219 7.539062 22.457031 7.535156 22.335938 7.527344 C 22.21875 7.527344 22.097656 7.523438 21.976562 7.523438 C 21.679688 7.519531 21.386719 7.507812 21.09375 7.5 C 21.085938 6.691406 21.082031 5.882812 21.078125 5.078125 C 21.078125 4.703125 21.078125 4.328125 21.074219 3.953125 C 21.070312 3.589844 21.066406 3.226562 21.066406 2.863281 C 21.066406 2.726562 21.066406 2.589844 21.0625 2.453125 C 21.0625 2.257812 21.0625 2.0625 21.0625 1.871094 C 21.0625 1.757812 21.058594 1.648438 21.058594 1.535156 C 21.105469 1.105469 21.230469 0.730469 21.515625 0.398438 C 22.101562 -0.0429688 22.691406 -0.167969 23.375 0.140625 Z M 23.375 0.140625 "/>
<path style=" stroke:none;fill-rule:nonzero;fill:rgb(27.058825%,23.921569%,51.372552%);fill-opacity:1;" d="M 6.75 3.75 C 8.199219 3.742188 9.644531 3.734375 11.09375 3.730469 C 11.765625 3.726562 12.4375 3.726562 13.113281 3.722656 C 13.699219 3.71875 14.285156 3.714844 14.871094 3.714844 C 15.179688 3.714844 15.492188 3.710938 15.800781 3.710938 C 16.148438 3.707031 16.492188 3.707031 16.839844 3.707031 C 16.941406 3.707031 17.046875 3.703125 17.152344 3.703125 C 17.246094 3.703125 17.339844 3.703125 17.4375 3.703125 C 17.519531 3.703125 17.601562 3.703125 17.6875 3.703125 C 17.984375 3.765625 18.09375 3.890625 18.28125 4.125 C 18.332031 4.480469 18.347656 4.683594 18.140625 4.984375 C 17.804688 5.230469 17.484375 5.214844 17.082031 5.21875 C 16.957031 5.222656 16.957031 5.222656 16.828125 5.226562 C 16.554688 5.230469 16.277344 5.234375 16 5.238281 C 15.90625 5.242188 15.808594 5.242188 15.710938 5.242188 C 15.207031 5.25 14.703125 5.253906 14.195312 5.257812 C 13.78125 5.257812 13.367188 5.265625 12.953125 5.277344 C 8.589844 5.382812 8.589844 5.382812 6.882812 3.972656 C 6.839844 3.929688 6.796875 3.886719 6.75 3.84375 C 6.75 3.8125 6.75 3.78125 6.75 3.75 Z M 6.75 3.75 "/>
<path style=" stroke:none;fill-rule:nonzero;fill:rgb(87.058824%,85.09804%,94.509804%);fill-opacity:1;" d="M 18.558594 13.4375 C 19.191406 13.644531 19.683594 14.09375 20.0625 14.625 C 20.253906 15.203125 20.214844 15.691406 19.949219 16.242188 C 19.75 16.605469 19.539062 16.886719 19.21875 17.15625 C 19.15625 17.210938 19.089844 17.265625 19.027344 17.320312 C 18.613281 17.585938 18.097656 17.617188 17.625 17.53125 C 17.117188 17.300781 16.625 17.066406 16.3125 16.59375 C 16.339844 16.148438 16.492188 15.832031 16.710938 15.449219 C 16.742188 15.398438 16.773438 15.34375 16.804688 15.289062 C 16.871094 15.179688 16.933594 15.066406 17 14.957031 C 17.097656 14.789062 17.195312 14.621094 17.292969 14.449219 C 17.945312 13.328125 17.945312 13.328125 18.558594 13.4375 Z M 18.558594 13.4375 "/>
<path style=" stroke:none;fill-rule:nonzero;fill:rgb(100%,94.117647%,94.509804%);fill-opacity:1;" d="M 5.375 5.871094 C 5.691406 5.914062 5.878906 6.03125 6.144531 6.203125 C 6.234375 6.261719 6.320312 6.316406 6.410156 6.375 C 6.929688 6.773438 7.175781 7.191406 7.265625 7.835938 C 7.25 8.453125 6.910156 9.082031 6.511719 9.546875 C 6.015625 9.976562 5.503906 10.082031 4.867188 10.074219 C 4.394531 10 4.03125 9.757812 3.65625 9.46875 C 3.597656 9.429688 3.542969 9.390625 3.484375 9.351562 C 3.375 9.1875 3.375 9.1875 3.394531 8.886719 C 3.472656 8.515625 3.582031 8.28125 3.773438 7.964844 C 3.835938 7.863281 3.898438 7.761719 3.960938 7.652344 C 4.027344 7.550781 4.09375 7.445312 4.160156 7.335938 C 4.226562 7.226562 4.289062 7.121094 4.355469 7.015625 C 5.015625 5.929688 5.015625 5.929688 5.375 5.871094 Z M 5.375 5.871094 "/>
<path style=" stroke:none;fill-rule:nonzero;fill:rgb(99.607843%,94.509804%,94.509804%);fill-opacity:1;" d="M 11.109375 9.242188 C 11.4375 9.28125 11.4375 9.28125 11.59375 9.429688 C 11.761719 9.734375 11.765625 9.984375 11.777344 10.328125 C 11.757812 10.726562 11.757812 10.726562 11.90625 11.0625 C 11.9375 11.007812 11.972656 10.957031 12.003906 10.902344 C 12.046875 10.832031 12.089844 10.765625 12.136719 10.695312 C 12.175781 10.625 12.21875 10.554688 12.261719 10.484375 C 12.375 10.3125 12.375 10.3125 12.46875 10.21875 C 12.847656 10.195312 12.988281 10.191406 13.3125 10.40625 C 13.449219 11.160156 13.0625 11.679688 12.679688 12.304688 C 12.621094 12.40625 12.5625 12.507812 12.5 12.609375 C 11.96875 13.496094 11.96875 13.496094 11.625 13.78125 C 11.285156 13.777344 11.285156 13.777344 10.96875 13.6875 C 10.738281 13.34375 10.71875 13.039062 10.675781 12.640625 C 10.667969 12.570312 10.660156 12.5 10.652344 12.425781 C 10.632812 12.253906 10.613281 12.078125 10.59375 11.90625 C 10.558594 11.964844 10.523438 12.027344 10.492188 12.085938 C 10.105469 12.71875 10.105469 12.71875 9.738281 12.875 C 9.46875 12.84375 9.46875 12.84375 9.238281 12.703125 C 9.078125 12.445312 9.070312 12.320312 9.121094 12.023438 C 9.277344 11.535156 9.570312 11.101562 9.832031 10.664062 C 9.890625 10.5625 9.953125 10.460938 10.011719 10.355469 C 10.640625 9.300781 10.640625 9.300781 11.109375 9.242188 Z M 11.109375 9.242188 "/>
<path style=" stroke:none;fill-rule:nonzero;fill:rgb(37.64706%,33.333334%,68.627453%);fill-opacity:1;" d="M 5.609375 15.882812 C 5.699219 15.882812 5.792969 15.875 5.882812 15.871094 C 5.980469 15.871094 6.078125 15.867188 6.179688 15.863281 C 6.28125 15.859375 6.382812 15.859375 6.488281 15.855469 C 6.816406 15.847656 7.148438 15.839844 7.476562 15.835938 C 7.585938 15.835938 7.699219 15.835938 7.8125 15.835938 C 9.535156 15.824219 10.808594 15.960938 12.152344 17.117188 C 12.28125 17.25 12.28125 17.25 12.28125 17.34375 C 11.359375 17.355469 10.441406 17.363281 9.519531 17.367188 C 9.089844 17.371094 8.664062 17.375 8.234375 17.378906 C 7.824219 17.382812 7.410156 17.386719 6.996094 17.386719 C 6.839844 17.390625 6.683594 17.390625 6.527344 17.394531 C 6.304688 17.398438 6.085938 17.398438 5.863281 17.398438 C 5.796875 17.398438 5.734375 17.402344 5.667969 17.402344 C 5.3125 17.398438 5.164062 17.347656 4.878906 17.125 C 4.6875 16.875 4.6875 16.875 4.679688 16.535156 C 4.839844 16.035156 5.101562 15.90625 5.609375 15.882812 Z M 5.609375 15.882812 "/>
<path style=" stroke:none;fill-rule:nonzero;fill:rgb(37.64706%,33.725491%,68.627453%);fill-opacity:1;" d="M 5.707031 18.710938 C 5.875 18.710938 5.875 18.710938 6.042969 18.707031 C 6.222656 18.710938 6.222656 18.710938 6.40625 18.710938 C 6.53125 18.710938 6.652344 18.707031 6.78125 18.707031 C 7.039062 18.707031 7.300781 18.707031 7.5625 18.707031 C 7.894531 18.710938 8.230469 18.707031 8.5625 18.703125 C 8.878906 18.703125 9.199219 18.703125 9.519531 18.703125 C 9.636719 18.703125 9.757812 18.703125 9.878906 18.699219 C 9.992188 18.699219 10.101562 18.703125 10.21875 18.703125 C 10.316406 18.703125 10.414062 18.703125 10.515625 18.703125 C 10.851562 18.761719 11.011719 18.882812 11.25 19.125 C 11.308594 19.453125 11.308594 19.453125 11.25 19.78125 C 10.917969 20.117188 10.6875 20.203125 10.21875 20.207031 C 10.109375 20.207031 9.996094 20.210938 9.882812 20.210938 C 9.761719 20.210938 9.644531 20.210938 9.523438 20.210938 C 9.398438 20.210938 9.273438 20.210938 9.148438 20.210938 C 8.890625 20.210938 8.628906 20.210938 8.367188 20.210938 C 8.035156 20.207031 7.703125 20.210938 7.371094 20.214844 C 7.050781 20.21875 6.734375 20.214844 6.414062 20.214844 C 6.296875 20.21875 6.175781 20.21875 6.054688 20.21875 C 5.136719 20.210938 5.136719 20.210938 4.84375 19.9375 C 4.6875 19.6875 4.6875 19.6875 4.679688 19.347656 C 4.855469 18.792969 5.15625 18.714844 5.707031 18.710938 Z M 5.707031 18.710938 "/>
<path style=" stroke:none;fill-rule:nonzero;fill:rgb(87.058824%,84.705883%,94.509804%);fill-opacity:1;" d="M 15.832031 11.898438 C 16.167969 12.015625 16.460938 12.160156 16.769531 12.339844 C 16.824219 12.371094 16.882812 12.398438 16.9375 12.429688 C 17.097656 12.523438 17.097656 12.523438 17.34375 12.75 C 17.382812 13.082031 17.40625 13.296875 17.238281 13.589844 C 16.976562 13.738281 16.796875 13.722656 16.5 13.6875 C 16.183594 13.546875 16.183594 13.546875 15.9375 13.40625 C 16.09375 13.570312 16.226562 13.691406 16.421875 13.804688 C 16.59375 13.96875 16.59375 13.96875 16.640625 14.296875 C 16.59375 14.625 16.59375 14.625 16.441406 14.8125 C 16.140625 14.9375 15.96875 14.898438 15.65625 14.8125 C 15.433594 14.714844 15.433594 14.714844 15.28125 14.625 C 15.25 14.6875 15.21875 14.75 15.1875 14.8125 C 15.292969 14.851562 15.292969 14.851562 15.40625 14.894531 C 15.65625 15 15.65625 15 15.9375 15.1875 C 15.972656 15.507812 15.996094 15.742188 15.832031 16.027344 C 15.574219 16.171875 15.386719 16.148438 15.09375 16.125 C 14.824219 15.992188 14.824219 15.992188 14.5625 15.816406 C 14.472656 15.757812 14.386719 15.699219 14.296875 15.640625 C 13.902344 15.351562 13.902344 15.351562 13.78125 15.1875 C 13.734375 14.78125 13.847656 14.550781 14.050781 14.199219 C 14.109375 14.101562 14.164062 14.003906 14.226562 13.90625 C 14.285156 13.804688 14.347656 13.703125 14.40625 13.597656 C 14.46875 13.5 14.527344 13.398438 14.585938 13.296875 C 15.40625 11.910156 15.40625 11.910156 15.832031 11.898438 Z M 15.832031 11.898438 "/>
<path style=" stroke:none;fill-rule:nonzero;fill:rgb(100%,94.509804%,94.509804%);fill-opacity:1;" d="M 8.519531 7.730469 C 8.871094 7.789062 9.09375 7.910156 9.398438 8.097656 C 9.542969 8.1875 9.542969 8.1875 9.691406 8.277344 C 9.9375 8.4375 9.9375 8.4375 10.125 8.625 C 10.160156 8.945312 10.160156 8.945312 10.125 9.28125 C 9.972656 9.46875 9.972656 9.46875 9.75 9.5625 C 9.375 9.539062 9.0625 9.433594 8.71875 9.28125 C 8.792969 9.339844 8.867188 9.398438 8.941406 9.457031 C 9.1875 9.65625 9.1875 9.65625 9.375 9.84375 C 9.332031 10.449219 9.332031 10.449219 9.09375 10.6875 C 8.640625 10.738281 8.363281 10.632812 7.96875 10.40625 C 8.140625 10.585938 8.292969 10.714844 8.503906 10.851562 C 8.71875 11.0625 8.71875 11.0625 8.761719 11.402344 C 8.71875 11.71875 8.71875 11.71875 8.53125 11.90625 C 7.914062 12.027344 7.511719 11.734375 6.992188 11.421875 C 6.75 11.25 6.75 11.25 6.5625 10.96875 C 6.507812 10.5625 6.628906 10.328125 6.835938 9.976562 C 6.894531 9.882812 6.953125 9.78125 7.011719 9.683594 C 7.070312 9.582031 7.132812 9.480469 7.195312 9.375 C 7.253906 9.273438 7.3125 9.171875 7.375 9.066406 C 8.125 7.804688 8.125 7.804688 8.519531 7.730469 Z M 8.519531 7.730469 "/>
<path style=" stroke:none;fill-rule:nonzero;fill:rgb(27.450982%,23.921569%,51.372552%);fill-opacity:1;" d="M 11.625 6.5625 C 12.4375 6.554688 13.25 6.546875 14.0625 6.542969 C 14.4375 6.539062 14.816406 6.539062 15.195312 6.535156 C 15.558594 6.53125 15.921875 6.527344 16.285156 6.527344 C 16.425781 6.527344 16.566406 6.523438 16.703125 6.523438 C 16.898438 6.519531 17.09375 6.519531 17.289062 6.519531 C 17.398438 6.519531 17.507812 6.519531 17.625 6.515625 C 17.964844 6.570312 18.074219 6.660156 18.28125 6.9375 C 18.332031 7.289062 18.347656 7.496094 18.144531 7.796875 C 17.796875 8.046875 17.484375 8.039062 17.066406 8.050781 C 16.984375 8.054688 16.902344 8.058594 16.816406 8.0625 C 16.546875 8.070312 16.277344 8.070312 16.007812 8.074219 C 15.917969 8.074219 15.824219 8.078125 15.730469 8.078125 C 14.101562 8.085938 12.863281 7.796875 11.625 6.65625 C 11.625 6.625 11.625 6.59375 11.625 6.5625 Z M 11.625 6.5625 "/>
<path style=" stroke:none;fill-rule:nonzero;fill:rgb(37.64706%,33.333334%,68.235296%);fill-opacity:1;" d="M 6.75 3.75 C 8.328125 3.75 9.90625 3.75 11.53125 3.75 C 11.53125 4.214844 11.53125 4.679688 11.53125 5.15625 C 9.613281 5.34375 8.289062 5.054688 6.75 3.84375 C 6.75 3.8125 6.75 3.78125 6.75 3.75 Z M 6.75 3.75 "/>
<path style=" stroke:none;fill-rule:nonzero;fill:rgb(87.058824%,84.313726%,94.117647%);fill-opacity:1;" d="M 14.289062 11.023438 C 14.53125 11.0625 14.53125 11.0625 14.753906 11.214844 C 14.90625 11.4375 14.90625 11.4375 14.886719 11.695312 C 14.804688 12.035156 14.675781 12.28125 14.5 12.582031 C 14.472656 12.632812 14.441406 12.6875 14.410156 12.742188 C 14.34375 12.851562 14.28125 12.964844 14.214844 13.074219 C 14.113281 13.242188 14.015625 13.414062 13.917969 13.582031 C 13.433594 14.410156 13.433594 14.410156 13.21875 14.625 C 12.660156 14.675781 12.660156 14.675781 12.375 14.527344 C 12.226562 14.234375 12.3125 14.003906 12.375 13.6875 C 12.511719 13.402344 12.511719 13.402344 12.683594 13.121094 C 12.742188 13.019531 12.804688 12.917969 12.871094 12.808594 C 12.933594 12.707031 13 12.601562 13.066406 12.492188 C 13.132812 12.382812 13.195312 12.277344 13.261719 12.171875 C 13.921875 11.089844 13.921875 11.089844 14.289062 11.023438 Z M 14.289062 11.023438 "/>
<path style=" stroke:none;fill-rule:nonzero;fill:rgb(87.450981%,85.490197%,94.509804%);fill-opacity:1;" d="M 12.9375 10.21875 C 13.0625 10.28125 13.183594 10.34375 13.3125 10.40625 C 13.414062 11.175781 13.074219 11.664062 12.679688 12.304688 C 12.621094 12.40625 12.5625 12.507812 12.5 12.609375 C 11.964844 13.503906 11.964844 13.503906 11.625 13.78125 C 11.273438 13.757812 11.273438 13.757812 10.96875 13.6875 C 11.007812 13.617188 11.046875 13.546875 11.089844 13.476562 C 11.710938 12.394531 12.324219 11.304688 12.9375 10.21875 Z M 12.9375 10.21875 "/>
<path style=" stroke:none;fill-rule:nonzero;fill:rgb(100%,94.901961%,94.901961%);fill-opacity:1;" d="M 9.1875 5.15625 C 9.960938 5.15625 10.734375 5.15625 11.53125 5.15625 C 11.53125 5.621094 11.53125 6.085938 11.53125 6.5625 C 11.335938 6.449219 11.140625 6.339844 10.941406 6.222656 C 10.359375 5.890625 9.773438 5.566406 9.1875 5.25 C 9.1875 5.21875 9.1875 5.1875 9.1875 5.15625 Z M 9.1875 5.15625 "/>
<path style=" stroke:none;fill-rule:nonzero;fill:rgb(81.568629%,4.313726%,34.117648%);fill-opacity:1;" d="M 18.46875 14.8125 C 18.832031 14.988281 18.832031 14.988281 18.9375 15.09375 C 18.980469 15.460938 18.949219 15.632812 18.769531 15.960938 C 18.5625 16.21875 18.5625 16.21875 18.28125 16.40625 C 18.035156 16.382812 18.035156 16.382812 17.8125 16.3125 C 17.78125 16.25 17.75 16.1875 17.71875 16.125 C 17.835938 15.894531 17.957031 15.679688 18.089844 15.457031 C 18.140625 15.363281 18.140625 15.363281 18.199219 15.269531 C 18.285156 15.117188 18.378906 14.964844 18.46875 14.8125 Z M 18.46875 14.8125 "/>
<path style=" stroke:none;fill-rule:nonzero;fill:rgb(100%,28.235295%,38.82353%);fill-opacity:1;" d="M 5.53125 7.3125 C 5.894531 7.488281 5.894531 7.488281 6 7.59375 C 6.042969 7.960938 6.011719 8.132812 5.832031 8.460938 C 5.625 8.71875 5.625 8.71875 5.34375 8.90625 C 5.042969 8.871094 5.042969 8.871094 4.78125 8.8125 C 4.914062 8.457031 5.078125 8.132812 5.261719 7.800781 C 5.3125 7.707031 5.363281 7.617188 5.414062 7.523438 C 5.453125 7.453125 5.492188 7.382812 5.53125 7.3125 Z M 5.53125 7.3125 "/>
<path style=" stroke:none;fill-rule:nonzero;fill:rgb(30.588236%,24.705882%,51.764709%);fill-opacity:1;" d="M 11.53125 16.875 C 11.902344 17.0625 11.902344 17.0625 12.28125 17.25 C 12.28125 17.28125 12.28125 17.3125 12.28125 17.34375 C 12.035156 17.34375 11.785156 17.34375 11.53125 17.34375 C 11.53125 17.1875 11.53125 17.035156 11.53125 16.875 Z M 11.53125 16.875 "/>
<path style=" stroke:none;fill-rule:nonzero;fill:rgb(81.960785%,8.627451%,37.254903%);fill-opacity:1;" d="M 15.9375 13.40625 C 16.167969 13.453125 16.167969 13.453125 16.40625 13.5 C 16.4375 13.625 16.46875 13.746094 16.5 13.875 C 16.3125 13.78125 16.128906 13.6875 15.9375 13.59375 C 15.9375 13.53125 15.9375 13.46875 15.9375 13.40625 Z M 15.9375 13.40625 "/>
</g>
</svg>
