<?xml version="1.0" encoding="UTF-8"?>
<svg xmlns="http://www.w3.org/2000/svg" xmlns:xlink="http://www.w3.org/1999/xlink" width="24" height="24" viewBox="0 0 24 24" version="1.1">
<g id="surface1">
<path style=" stroke:none;fill-rule:nonzero;fill:rgb(1.960784%,1.568628%,1.176471%);fill-opacity:1;" d="M 6.539062 -0.015625 C 6.632812 -0.015625 6.726562 -0.015625 6.824219 -0.015625 C 6.929688 -0.015625 7.03125 -0.015625 7.136719 -0.015625 C 7.246094 -0.015625 7.355469 -0.015625 7.46875 -0.0195312 C 7.832031 -0.0195312 8.191406 -0.0195312 8.554688 -0.0234375 C 8.675781 -0.0234375 8.800781 -0.0234375 8.925781 -0.0234375 C 9.511719 -0.0234375 10.097656 -0.0273438 10.679688 -0.0273438 C 11.355469 -0.0273438 12.03125 -0.03125 12.707031 -0.0351562 C 13.226562 -0.0390625 13.75 -0.0390625 14.273438 -0.0390625 C 14.582031 -0.0390625 14.894531 -0.0390625 15.207031 -0.0429688 C 15.554688 -0.0429688 15.902344 -0.0429688 16.25 -0.0429688 C 16.40625 -0.046875 16.40625 -0.046875 16.5625 -0.046875 C 17.222656 -0.0429688 17.570312 0.0664062 18.066406 0.523438 C 18.105469 0.570312 18.148438 0.617188 18.191406 0.664062 C 18.242188 0.71875 18.292969 0.773438 18.339844 0.828125 C 18.390625 0.886719 18.445312 0.945312 18.496094 1.003906 C 18.609375 1.125 18.726562 1.25 18.839844 1.371094 C 19.019531 1.558594 19.195312 1.75 19.367188 1.945312 C 20.167969 2.859375 20.167969 2.859375 21.289062 3.199219 C 21.5 3.199219 21.710938 3.191406 21.921875 3.175781 C 22.363281 3.160156 22.699219 3.320312 23.0625 3.5625 C 23.460938 3.972656 23.476562 4.328125 23.472656 4.875 C 23.464844 5.007812 23.464844 5.007812 23.460938 5.144531 C 23.460938 5.234375 23.457031 5.328125 23.457031 5.421875 C 23.449219 5.644531 23.445312 5.871094 23.4375 6.09375 C 23.34375 6.125 23.25 6.15625 23.15625 6.1875 C 23.15625 6.496094 23.15625 6.804688 23.15625 7.125 C 23.25 7.15625 23.339844 7.1875 23.4375 7.21875 C 23.445312 9.277344 23.449219 11.332031 23.453125 13.390625 C 23.453125 14.347656 23.457031 15.300781 23.457031 16.257812 C 23.460938 17.089844 23.464844 17.921875 23.464844 18.757812 C 23.464844 19.195312 23.464844 19.636719 23.46875 20.078125 C 23.46875 20.492188 23.46875 20.910156 23.46875 21.324219 C 23.46875 21.476562 23.46875 21.628906 23.472656 21.78125 C 23.472656 21.988281 23.472656 22.195312 23.472656 22.40625 C 23.472656 22.519531 23.472656 22.636719 23.472656 22.757812 C 23.421875 23.210938 23.226562 23.453125 22.933594 23.792969 C 22.488281 24.136719 21.9375 24.0625 21.402344 24.054688 C 21.28125 24.054688 21.164062 24.054688 21.039062 24.054688 C 20.710938 24.054688 20.382812 24.050781 20.054688 24.046875 C 19.714844 24.042969 19.371094 24.042969 19.027344 24.042969 C 18.378906 24.042969 17.730469 24.039062 17.082031 24.035156 C 16.34375 24.027344 15.605469 24.027344 14.867188 24.023438 C 13.347656 24.019531 11.832031 24.011719 10.3125 24 C 10.28125 23.90625 10.25 23.816406 10.21875 23.71875 C 9.910156 23.71875 9.597656 23.71875 9.28125 23.71875 C 9.25 23.8125 9.21875 23.90625 9.1875 24 C 8.464844 24.007812 7.742188 24.015625 7.015625 24.019531 C 6.679688 24.023438 6.34375 24.023438 6.007812 24.027344 C 5.683594 24.03125 5.359375 24.035156 5.035156 24.035156 C 4.851562 24.035156 4.667969 24.039062 4.484375 24.042969 C 3.449219 24.042969 3.449219 24.042969 3 23.625 C 2.664062 23.246094 2.613281 22.933594 2.617188 22.4375 C 2.621094 22.34375 2.621094 22.25 2.621094 22.152344 C 2.621094 22.082031 2.625 22.011719 2.625 21.9375 C 2.566406 21.941406 2.507812 21.945312 2.445312 21.945312 C 1.917969 21.964844 1.386719 21.96875 0.9375 21.65625 C 0.453125 21.128906 0.507812 20.578125 0.511719 19.890625 C 0.511719 19.773438 0.511719 19.65625 0.511719 19.535156 C 0.511719 19.226562 0.511719 18.917969 0.515625 18.609375 C 0.515625 18.421875 0.515625 18.234375 0.511719 18.042969 C 0.511719 17.679688 0.511719 17.316406 0.511719 16.953125 C 0.511719 16.839844 0.511719 16.730469 0.511719 16.613281 C 0.515625 16.019531 0.527344 15.632812 0.9375 15.1875 C 1.316406 14.902344 1.625 14.894531 2.082031 14.898438 C 2.234375 14.902344 2.234375 14.902344 2.390625 14.902344 C 2.46875 14.902344 2.542969 14.90625 2.625 14.90625 C 2.625 14.851562 2.625 14.796875 2.625 14.742188 C 2.613281 13.414062 2.609375 12.085938 2.605469 10.761719 C 2.605469 10.117188 2.601562 9.476562 2.597656 8.835938 C 2.59375 8.214844 2.589844 7.597656 2.589844 6.976562 C 2.589844 6.738281 2.585938 6.503906 2.585938 6.265625 C 2.582031 5.9375 2.582031 5.605469 2.582031 5.273438 C 2.582031 5.128906 2.582031 5.128906 2.578125 4.976562 C 2.582031 4.390625 2.65625 4.042969 3 3.5625 C 3.417969 3.160156 3.949219 3.160156 4.5 3.164062 C 4.71875 3.167969 4.9375 3.175781 5.15625 3.1875 C 5.15625 3.125 5.152344 3.0625 5.152344 3 C 5.144531 2.714844 5.144531 2.429688 5.140625 2.144531 C 5.136719 2.046875 5.132812 1.949219 5.132812 1.847656 C 5.125 1.320312 5.128906 0.921875 5.4375 0.46875 C 5.8125 0.128906 6.035156 -0.0117188 6.539062 -0.015625 Z M 6.539062 -0.015625 "/>
<path style=" stroke:none;fill-rule:nonzero;fill:rgb(98.823529%,87.058824%,45.882353%);fill-opacity:1;" d="M 15.324219 10.65625 C 15.402344 10.65625 15.480469 10.65625 15.5625 10.65625 C 15.828125 10.65625 16.089844 10.65625 16.351562 10.660156 C 16.535156 10.660156 16.714844 10.660156 16.898438 10.660156 C 17.378906 10.664062 17.859375 10.664062 18.335938 10.667969 C 18.828125 10.671875 19.316406 10.671875 19.804688 10.671875 C 20.765625 10.675781 21.726562 10.683594 22.6875 10.6875 C 22.699219 12.269531 22.707031 13.851562 22.710938 15.429688 C 22.714844 16.164062 22.71875 16.898438 22.722656 17.632812 C 22.726562 18.273438 22.730469 18.914062 22.730469 19.550781 C 22.734375 19.890625 22.734375 20.230469 22.738281 20.570312 C 22.742188 20.945312 22.742188 21.324219 22.742188 21.703125 C 22.742188 21.871094 22.742188 21.871094 22.746094 22.042969 C 22.742188 22.484375 22.734375 22.789062 22.519531 23.179688 C 22.050781 23.4375 21.609375 23.40625 21.085938 23.402344 C 20.96875 23.402344 20.855469 23.402344 20.734375 23.402344 C 20.484375 23.402344 20.238281 23.402344 19.988281 23.402344 C 19.59375 23.398438 19.199219 23.402344 18.804688 23.402344 C 18.109375 23.40625 17.414062 23.40625 16.722656 23.402344 C 15.675781 23.402344 14.628906 23.402344 13.582031 23.40625 C 13.191406 23.40625 12.796875 23.40625 12.40625 23.402344 C 12.105469 23.402344 11.804688 23.402344 11.503906 23.40625 C 11.394531 23.402344 11.285156 23.402344 11.175781 23.402344 C 11.074219 23.402344 10.976562 23.402344 10.875 23.402344 C 10.789062 23.402344 10.703125 23.402344 10.613281 23.402344 C 10.542969 23.414062 10.476562 23.425781 10.40625 23.4375 C 10.34375 23.53125 10.28125 23.625 10.21875 23.71875 C 9.996094 23.746094 9.996094 23.746094 9.738281 23.738281 C 9.652344 23.734375 9.566406 23.730469 9.480469 23.730469 C 9.414062 23.726562 9.347656 23.722656 9.28125 23.71875 C 9.25 23.625 9.21875 23.53125 9.1875 23.4375 C 9.121094 23.4375 9.054688 23.4375 8.988281 23.4375 C 8.367188 23.4375 7.742188 23.433594 7.121094 23.425781 C 6.800781 23.421875 6.480469 23.417969 6.164062 23.417969 C 5.792969 23.417969 5.425781 23.414062 5.058594 23.410156 C 4.945312 23.410156 4.828125 23.410156 4.710938 23.410156 C 4.253906 23.402344 3.9375 23.394531 3.535156 23.167969 C 3.359375 22.847656 3.359375 22.699219 3.363281 22.339844 C 3.367188 22.246094 3.367188 22.15625 3.371094 22.058594 C 3.371094 21.953125 3.371094 21.953125 3.375 21.84375 C 3.480469 21.84375 3.480469 21.84375 3.585938 21.84375 C 5.292969 21.835938 7 21.832031 8.703125 21.820312 C 9.53125 21.816406 10.355469 21.8125 11.179688 21.8125 C 11.898438 21.808594 12.617188 21.804688 13.335938 21.800781 C 13.714844 21.800781 14.097656 21.796875 14.476562 21.796875 C 14.835938 21.796875 15.195312 21.796875 15.554688 21.792969 C 15.683594 21.792969 15.816406 21.789062 15.949219 21.792969 C 16.125 21.792969 16.308594 21.789062 16.488281 21.789062 C 16.585938 21.785156 16.6875 21.785156 16.789062 21.785156 C 17.214844 21.730469 17.457031 21.546875 17.746094 21.238281 C 17.976562 20.757812 17.960938 20.320312 17.957031 19.789062 C 17.957031 19.679688 17.957031 19.570312 17.957031 19.460938 C 17.957031 19.234375 17.957031 19.003906 17.953125 18.777344 C 17.953125 18.429688 17.953125 18.082031 17.957031 17.734375 C 17.957031 17.511719 17.957031 17.289062 17.957031 17.070312 C 17.957031 16.964844 17.957031 16.863281 17.957031 16.753906 C 17.953125 16.152344 17.902344 15.765625 17.53125 15.28125 C 17.21875 15.074219 16.957031 15.070312 16.589844 15.066406 C 16.472656 15.066406 16.355469 15.066406 16.234375 15.066406 C 16.105469 15.066406 15.976562 15.0625 15.847656 15.0625 C 15.710938 15.0625 15.578125 15.0625 15.441406 15.0625 C 15.070312 15.058594 14.703125 15.058594 14.335938 15.054688 C 13.949219 15.054688 13.566406 15.050781 13.179688 15.050781 C 12.449219 15.046875 11.71875 15.042969 10.992188 15.039062 C 10.160156 15.035156 9.328125 15.03125 8.5 15.023438 C 6.792969 15.015625 5.082031 15.007812 3.375 15 C 3.375 14.414062 3.375 13.824219 3.375 13.21875 C 3.632812 13.21875 3.894531 13.21875 4.164062 13.21875 C 5.023438 13.214844 5.886719 13.210938 6.746094 13.207031 C 7.269531 13.203125 7.789062 13.199219 8.3125 13.199219 C 8.816406 13.199219 9.320312 13.195312 9.824219 13.195312 C 10.015625 13.191406 10.207031 13.191406 10.398438 13.191406 C 10.667969 13.191406 10.9375 13.191406 11.207031 13.1875 C 11.289062 13.1875 11.367188 13.1875 11.445312 13.191406 C 12.128906 13.175781 12.589844 12.917969 13.0625 12.433594 C 13.117188 12.355469 13.171875 12.28125 13.230469 12.207031 C 13.292969 12.125 13.355469 12.042969 13.417969 11.960938 C 13.527344 11.808594 13.640625 11.652344 13.753906 11.5 C 13.824219 11.402344 13.824219 11.402344 13.898438 11.300781 C 13.941406 11.246094 13.980469 11.1875 14.023438 11.128906 C 14.40625 10.671875 14.746094 10.648438 15.324219 10.65625 Z M 15.324219 10.65625 "/>
<path style=" stroke:none;fill-rule:nonzero;fill:rgb(90.588236%,95.294118%,98.823529%);fill-opacity:1;" d="M 6.730469 0.703125 C 6.820312 0.703125 6.90625 0.703125 7 0.703125 C 7.097656 0.703125 7.195312 0.707031 7.296875 0.707031 C 7.453125 0.707031 7.453125 0.707031 7.609375 0.707031 C 7.953125 0.707031 8.292969 0.710938 8.636719 0.714844 C 8.871094 0.714844 9.109375 0.714844 9.347656 0.714844 C 9.90625 0.714844 10.464844 0.71875 11.027344 0.722656 C 11.664062 0.726562 12.300781 0.730469 12.941406 0.730469 C 14.253906 0.734375 15.5625 0.742188 16.875 0.75 C 16.875 0.8125 16.875 0.871094 16.875 0.9375 C 16.878906 1.21875 16.886719 1.5 16.894531 1.78125 C 16.894531 1.878906 16.894531 1.972656 16.894531 2.074219 C 16.910156 2.699219 16.992188 3.191406 17.4375 3.65625 C 18.253906 4.0625 19.246094 3.902344 20.15625 3.9375 C 20.15625 5.949219 20.15625 7.960938 20.15625 10.03125 C 19.628906 10.03125 19.105469 10.03125 18.5625 10.03125 C 18.558594 9.816406 18.558594 9.816406 18.554688 9.597656 C 18.550781 9.40625 18.542969 9.21875 18.539062 9.027344 C 18.539062 8.933594 18.535156 8.839844 18.535156 8.742188 C 18.523438 8.351562 18.496094 8.035156 18.347656 7.671875 C 17.921875 7.382812 17.46875 7.433594 16.96875 7.441406 C 16.867188 7.441406 16.761719 7.4375 16.660156 7.4375 C 16.089844 7.433594 16.089844 7.433594 15.589844 7.671875 C 15.40625 8.121094 15.40625 8.550781 15.398438 9.027344 C 15.394531 9.171875 15.394531 9.171875 15.390625 9.320312 C 15.382812 9.558594 15.378906 9.792969 15.375 10.03125 C 15.128906 10.03125 14.878906 10.03125 14.625 10.03125 C 14.625 9.917969 14.625 9.800781 14.621094 9.683594 C 14.617188 9.257812 14.613281 8.835938 14.605469 8.410156 C 14.601562 8.226562 14.601562 8.042969 14.601562 7.859375 C 14.597656 7.59375 14.59375 7.328125 14.589844 7.066406 C 14.589844 6.980469 14.589844 6.902344 14.585938 6.816406 C 14.578125 6.457031 14.574219 6.25 14.371094 5.949219 C 13.972656 5.695312 13.542969 5.753906 13.082031 5.761719 C 12.988281 5.757812 12.890625 5.753906 12.789062 5.753906 C 12.648438 5.753906 12.648438 5.753906 12.503906 5.753906 C 12.417969 5.753906 12.332031 5.753906 12.246094 5.753906 C 11.890625 5.839844 11.75 5.996094 11.53125 6.28125 C 11.46875 6.578125 11.46875 6.578125 11.484375 6.902344 C 11.488281 7.019531 11.488281 7.136719 11.488281 7.253906 C 11.492188 7.378906 11.496094 7.496094 11.503906 7.621094 C 11.503906 7.808594 11.503906 7.808594 11.507812 7.996094 C 11.511719 8.300781 11.523438 8.601562 11.53125 8.90625 C 11.808594 8.8125 11.808594 8.8125 12.09375 8.71875 C 12.125 7.945312 12.15625 7.171875 12.1875 6.375 C 12.464844 6.371094 12.742188 6.371094 13.027344 6.371094 C 13.113281 6.367188 13.199219 6.367188 13.289062 6.367188 C 13.359375 6.367188 13.425781 6.367188 13.496094 6.367188 C 13.566406 6.367188 13.636719 6.363281 13.710938 6.363281 C 13.875 6.375 13.875 6.375 13.96875 6.46875 C 13.996094 7.007812 13.996094 7.550781 14 8.09375 C 14.003906 8.273438 14.003906 8.457031 14.007812 8.640625 C 14.015625 8.902344 14.015625 9.164062 14.019531 9.429688 C 14.019531 9.550781 14.019531 9.550781 14.023438 9.675781 C 14.023438 10.085938 14.019531 10.253906 13.75 10.578125 C 13.667969 10.644531 13.585938 10.710938 13.5 10.78125 C 13.402344 10.902344 13.304688 11.027344 13.214844 11.15625 C 13.140625 11.253906 13.140625 11.253906 13.066406 11.355469 C 12.96875 11.492188 12.867188 11.632812 12.769531 11.769531 C 12.71875 11.835938 12.671875 11.902344 12.621094 11.96875 C 12.558594 12.058594 12.558594 12.058594 12.492188 12.152344 C 12.453125 12.195312 12.414062 12.238281 12.375 12.28125 C 12.3125 12.28125 12.25 12.28125 12.1875 12.28125 C 12.15625 11.570312 12.125 10.859375 12.09375 10.125 C 11.9375 10.09375 11.785156 10.0625 11.625 10.03125 C 11.460938 10.195312 11.511719 10.425781 11.5 10.648438 C 11.496094 10.804688 11.496094 10.804688 11.488281 10.964844 C 11.488281 11.078125 11.484375 11.1875 11.480469 11.300781 C 11.472656 11.46875 11.472656 11.46875 11.464844 11.640625 C 11.457031 11.917969 11.445312 12.191406 11.4375 12.46875 C 11.191406 12.46875 10.941406 12.46875 10.6875 12.46875 C 10.6875 12.367188 10.6875 12.269531 10.6875 12.164062 C 10.6875 11.222656 10.683594 10.277344 10.675781 9.335938 C 10.671875 8.847656 10.667969 8.363281 10.667969 7.878906 C 10.667969 7.410156 10.667969 6.941406 10.664062 6.476562 C 10.660156 6.296875 10.660156 6.117188 10.660156 5.9375 C 10.660156 5.6875 10.660156 5.4375 10.65625 5.1875 C 10.65625 5.078125 10.65625 5.078125 10.65625 4.964844 C 10.648438 4.601562 10.625 4.441406 10.371094 4.171875 C 9.957031 3.933594 9.5625 3.972656 9.09375 3.980469 C 9 3.976562 8.910156 3.972656 8.8125 3.972656 C 8.722656 3.972656 8.636719 3.972656 8.542969 3.972656 C 8.460938 3.972656 8.382812 3.972656 8.296875 3.972656 C 7.949219 4.058594 7.816406 4.21875 7.59375 4.5 C 7.546875 4.777344 7.527344 5.003906 7.53125 5.285156 C 7.53125 5.402344 7.53125 5.402344 7.527344 5.519531 C 7.527344 5.777344 7.527344 6.03125 7.527344 6.289062 C 7.527344 6.464844 7.523438 6.644531 7.523438 6.824219 C 7.519531 7.289062 7.519531 7.757812 7.519531 8.226562 C 7.515625 8.703125 7.515625 9.183594 7.511719 9.660156 C 7.503906 10.59375 7.503906 11.53125 7.5 12.46875 C 6.972656 12.46875 6.449219 12.46875 5.90625 12.46875 C 5.898438 10.996094 5.890625 9.523438 5.886719 8.050781 C 5.886719 7.367188 5.882812 6.683594 5.878906 6 C 5.875 5.402344 5.871094 4.808594 5.871094 4.210938 C 5.871094 3.894531 5.871094 3.582031 5.867188 3.265625 C 5.863281 2.914062 5.863281 2.5625 5.863281 2.207031 C 5.863281 2.105469 5.863281 2 5.859375 1.890625 C 5.859375 1.796875 5.859375 1.699219 5.863281 1.601562 C 5.859375 1.519531 5.859375 1.433594 5.859375 1.347656 C 5.957031 0.871094 6.265625 0.703125 6.730469 0.703125 Z M 6.730469 0.703125 "/>
<path style=" stroke:none;fill-rule:nonzero;fill:rgb(59.215689%,89.019608%,97.647059%);fill-opacity:1;" d="M 2.210938 15.621094 C 2.304688 15.621094 2.304688 15.621094 2.398438 15.621094 C 2.609375 15.617188 2.820312 15.617188 3.03125 15.621094 C 3.183594 15.621094 3.335938 15.617188 3.484375 15.617188 C 3.898438 15.617188 4.304688 15.617188 4.71875 15.617188 C 5.148438 15.621094 5.574219 15.617188 6.003906 15.617188 C 6.726562 15.617188 7.445312 15.617188 8.167969 15.621094 C 9.003906 15.621094 9.835938 15.621094 10.671875 15.617188 C 11.386719 15.617188 12.101562 15.617188 12.816406 15.617188 C 13.246094 15.617188 13.671875 15.617188 14.101562 15.617188 C 14.5 15.617188 14.902344 15.617188 15.304688 15.621094 C 15.453125 15.621094 15.601562 15.621094 15.75 15.617188 C 15.949219 15.617188 16.152344 15.621094 16.351562 15.621094 C 16.464844 15.621094 16.578125 15.621094 16.695312 15.621094 C 16.96875 15.65625 16.96875 15.65625 17.144531 15.785156 C 17.292969 16 17.285156 16.152344 17.289062 16.410156 C 17.289062 16.554688 17.289062 16.554688 17.292969 16.703125 C 17.289062 16.808594 17.289062 16.910156 17.289062 17.019531 C 17.289062 17.125 17.292969 17.230469 17.292969 17.339844 C 17.292969 17.570312 17.292969 17.792969 17.292969 18.019531 C 17.289062 18.367188 17.292969 18.714844 17.296875 19.058594 C 17.296875 19.28125 17.296875 19.5 17.296875 19.71875 C 17.296875 19.824219 17.296875 19.925781 17.300781 20.035156 C 17.296875 20.128906 17.296875 20.226562 17.296875 20.328125 C 17.296875 20.410156 17.296875 20.496094 17.296875 20.585938 C 17.234375 20.894531 17.125 20.992188 16.875 21.1875 C 16.589844 21.234375 16.589844 21.234375 16.25 21.234375 C 16.1875 21.234375 16.125 21.234375 16.0625 21.234375 C 15.851562 21.238281 15.644531 21.234375 15.433594 21.234375 C 15.285156 21.234375 15.132812 21.234375 14.984375 21.234375 C 14.574219 21.238281 14.167969 21.234375 13.761719 21.234375 C 13.332031 21.234375 12.90625 21.234375 12.480469 21.234375 C 11.765625 21.234375 11.050781 21.234375 10.332031 21.230469 C 9.503906 21.230469 8.675781 21.230469 7.847656 21.230469 C 7.050781 21.230469 6.253906 21.230469 5.460938 21.230469 C 5.121094 21.230469 4.78125 21.230469 4.441406 21.230469 C 4.042969 21.230469 3.644531 21.230469 3.246094 21.226562 C 3.097656 21.226562 2.949219 21.226562 2.804688 21.226562 C 2.605469 21.226562 2.40625 21.226562 2.207031 21.222656 C 2.09375 21.222656 1.980469 21.222656 1.867188 21.222656 C 1.59375 21.1875 1.59375 21.1875 1.417969 21.058594 C 1.269531 20.84375 1.277344 20.683594 1.277344 20.421875 C 1.277344 20.324219 1.273438 20.226562 1.273438 20.125 C 1.273438 20.015625 1.273438 19.910156 1.273438 19.800781 C 1.273438 19.691406 1.273438 19.582031 1.273438 19.472656 C 1.273438 19.238281 1.273438 19.007812 1.277344 18.777344 C 1.277344 18.421875 1.277344 18.070312 1.273438 17.714844 C 1.273438 17.492188 1.273438 17.265625 1.273438 17.042969 C 1.273438 16.9375 1.273438 16.828125 1.273438 16.71875 C 1.273438 16.621094 1.277344 16.523438 1.277344 16.421875 C 1.277344 16.332031 1.277344 16.246094 1.277344 16.15625 C 1.363281 15.617188 1.726562 15.621094 2.210938 15.621094 Z M 2.210938 15.621094 "/>
<path style=" stroke:none;fill-rule:nonzero;fill:rgb(96.078432%,67.450982%,20.784314%);fill-opacity:1;" d="M 3.84375 3.9375 C 4.308594 3.9375 4.773438 3.9375 5.25 3.9375 C 5.25 6.753906 5.25 9.566406 5.25 12.46875 C 4.632812 12.46875 4.011719 12.46875 3.375 12.46875 C 3.363281 11.425781 3.355469 10.382812 3.351562 9.339844 C 3.347656 8.855469 3.34375 8.371094 3.339844 7.886719 C 3.335938 7.417969 3.332031 6.953125 3.332031 6.484375 C 3.328125 6.304688 3.328125 6.128906 3.324219 5.949219 C 3.324219 5.699219 3.320312 5.449219 3.320312 5.199219 C 3.320312 5.125 3.320312 5.050781 3.316406 4.976562 C 3.324219 4.40625 3.394531 4.386719 3.84375 3.9375 Z M 3.84375 3.9375 "/>
<path style=" stroke:none;fill-rule:nonzero;fill:rgb(1.960784%,2.745098%,3.137255%);fill-opacity:1;" d="M 9.125 16.40625 C 9.582031 16.664062 9.859375 16.988281 10.125 17.4375 C 10.160156 17.496094 10.195312 17.554688 10.230469 17.617188 C 10.449219 18.136719 10.371094 18.773438 10.171875 19.289062 C 9.910156 19.808594 9.488281 20.195312 8.96875 20.453125 C 8.394531 20.632812 7.714844 20.652344 7.148438 20.429688 C 6.660156 20.121094 6.222656 19.703125 6.039062 19.140625 C 5.925781 18.535156 5.871094 17.851562 6.195312 17.300781 C 6.925781 16.324219 7.953125 15.878906 9.125 16.40625 Z M 9.125 16.40625 "/>
<path style=" stroke:none;fill-rule:nonzero;fill:rgb(26.666668%,77.254903%,53.333336%);fill-opacity:1;" d="M 8.914062 4.582031 C 8.988281 4.582031 9.0625 4.582031 9.140625 4.582031 C 9.214844 4.582031 9.289062 4.582031 9.367188 4.582031 C 9.925781 4.582031 9.925781 4.582031 10.03125 4.6875 C 10.039062 4.929688 10.042969 5.167969 10.042969 5.414062 C 10.042969 5.488281 10.042969 5.5625 10.042969 5.640625 C 10.042969 5.894531 10.039062 6.148438 10.039062 6.398438 C 10.039062 6.574219 10.039062 6.746094 10.039062 6.921875 C 10.039062 7.382812 10.039062 7.839844 10.039062 8.300781 C 10.035156 8.769531 10.035156 9.238281 10.035156 9.707031 C 10.035156 10.628906 10.035156 11.546875 10.03125 12.46875 C 9.445312 12.46875 8.855469 12.46875 8.25 12.46875 C 8.25 11.457031 8.246094 10.441406 8.246094 9.429688 C 8.246094 8.960938 8.242188 8.488281 8.242188 8.019531 C 8.242188 7.566406 8.242188 7.113281 8.242188 6.660156 C 8.242188 6.484375 8.242188 6.3125 8.238281 6.136719 C 8.238281 5.894531 8.238281 5.65625 8.238281 5.414062 C 8.238281 5.339844 8.238281 5.265625 8.238281 5.191406 C 8.238281 4.570312 8.292969 4.582031 8.914062 4.582031 Z M 8.914062 4.582031 "/>
<path style=" stroke:none;fill-rule:nonzero;fill:rgb(94.509804%,78.039217%,34.509805%);fill-opacity:1;" d="M 14.53125 10.6875 C 17.222656 10.6875 19.914062 10.6875 22.6875 10.6875 C 22.707031 13.726562 22.707031 13.726562 22.710938 14.996094 C 22.710938 15.875 22.714844 16.753906 22.722656 17.632812 C 22.726562 18.273438 22.730469 18.914062 22.730469 19.550781 C 22.734375 19.890625 22.734375 20.230469 22.738281 20.570312 C 22.742188 20.945312 22.742188 21.324219 22.742188 21.703125 C 22.742188 21.871094 22.742188 21.871094 22.746094 22.042969 C 22.742188 22.484375 22.734375 22.789062 22.519531 23.179688 C 22.050781 23.433594 21.613281 23.40625 21.089844 23.398438 C 20.917969 23.398438 20.917969 23.398438 20.742188 23.398438 C 20.429688 23.398438 20.117188 23.394531 19.804688 23.390625 C 19.476562 23.390625 19.148438 23.386719 18.824219 23.386719 C 18.203125 23.386719 17.585938 23.382812 16.964844 23.378906 C 16.261719 23.371094 15.554688 23.371094 14.851562 23.367188 C 13.402344 23.363281 11.949219 23.355469 10.5 23.34375 C 10.5 23.3125 10.5 23.28125 10.5 23.25 C 16.023438 23.203125 16.023438 23.203125 21.65625 23.15625 C 21.773438 22.917969 21.761719 22.75 21.765625 22.484375 C 21.765625 22.382812 21.765625 22.277344 21.769531 22.171875 C 21.769531 22.058594 21.769531 21.945312 21.769531 21.828125 C 21.769531 21.710938 21.773438 21.589844 21.773438 21.46875 C 21.773438 21.140625 21.777344 20.816406 21.777344 20.488281 C 21.78125 20.148438 21.78125 19.804688 21.785156 19.464844 C 21.789062 18.820312 21.792969 18.171875 21.796875 17.527344 C 21.804688 16.652344 21.808594 15.78125 21.816406 14.90625 C 21.824219 13.53125 21.835938 12.15625 21.84375 10.78125 C 19.429688 10.78125 17.015625 10.78125 14.53125 10.78125 C 14.53125 10.75 14.53125 10.71875 14.53125 10.6875 Z M 14.53125 10.6875 "/>
<path style=" stroke:none;fill-rule:nonzero;fill:rgb(98.823529%,69.01961%,21.176471%);fill-opacity:1;" d="M 20.90625 3.9375 C 22.21875 3.9375 22.21875 3.9375 22.6875 4.3125 C 22.75 4.511719 22.75 4.511719 22.753906 4.71875 C 22.757812 4.792969 22.757812 4.867188 22.761719 4.945312 C 22.761719 5.023438 22.761719 5.101562 22.761719 5.179688 C 22.765625 5.257812 22.769531 5.335938 22.769531 5.417969 C 22.777344 5.613281 22.78125 5.804688 22.78125 6 C 22.90625 6.0625 23.027344 6.125 23.15625 6.1875 C 23.15625 6.496094 23.15625 6.804688 23.15625 7.125 C 23.03125 7.1875 22.910156 7.25 22.78125 7.3125 C 22.75 8.179688 22.71875 9.046875 22.6875 9.9375 C 22.101562 9.9375 21.511719 9.9375 20.90625 9.9375 C 20.90625 7.957031 20.90625 5.976562 20.90625 3.9375 Z M 20.90625 3.9375 "/>
<path style=" stroke:none;fill-rule:nonzero;fill:rgb(67.450982%,51.764709%,76.078433%);fill-opacity:1;" d="M 12.1875 6.375 C 12.464844 6.375 12.742188 6.371094 13.027344 6.371094 C 13.113281 6.367188 13.199219 6.367188 13.289062 6.367188 C 13.359375 6.367188 13.425781 6.367188 13.496094 6.367188 C 13.566406 6.367188 13.636719 6.363281 13.710938 6.363281 C 13.875 6.375 13.875 6.375 13.96875 6.46875 C 13.996094 7.007812 13.996094 7.550781 14 8.09375 C 14.003906 8.273438 14.003906 8.457031 14.007812 8.640625 C 14.015625 8.902344 14.015625 9.164062 14.015625 9.429688 C 14.019531 9.511719 14.023438 9.589844 14.023438 9.675781 C 14.023438 10.085938 14.015625 10.253906 13.75 10.578125 C 13.667969 10.644531 13.585938 10.710938 13.5 10.78125 C 13.402344 10.902344 13.304688 11.027344 13.214844 11.15625 C 13.167969 11.222656 13.117188 11.289062 13.066406 11.355469 C 12.96875 11.492188 12.867188 11.632812 12.769531 11.769531 C 12.71875 11.835938 12.671875 11.902344 12.621094 11.96875 C 12.578125 12.027344 12.535156 12.089844 12.492188 12.152344 C 12.433594 12.214844 12.433594 12.214844 12.375 12.28125 C 12.3125 12.28125 12.25 12.28125 12.1875 12.28125 C 12.1875 12.21875 12.1875 12.152344 12.183594 12.089844 C 12.179688 11.796875 12.171875 11.507812 12.164062 11.222656 C 12.164062 11.121094 12.160156 11.019531 12.160156 10.917969 C 12.15625 10.820312 12.152344 10.722656 12.152344 10.625 C 12.148438 10.535156 12.148438 10.445312 12.144531 10.355469 C 12.078125 10.058594 11.964844 10.007812 11.71875 9.84375 C 11.683594 9.609375 11.683594 9.609375 11.695312 9.355469 C 11.699219 9.273438 11.703125 9.1875 11.707031 9.101562 C 11.710938 9.035156 11.714844 8.972656 11.71875 8.90625 C 11.84375 8.84375 11.964844 8.78125 12.09375 8.71875 C 12.125 7.945312 12.15625 7.171875 12.1875 6.375 Z M 12.1875 6.375 "/>
<path style=" stroke:none;fill-rule:nonzero;fill:rgb(99.607843%,76.078433%,26.274511%);fill-opacity:1;" d="M 4.3125 4.03125 C 4.3125 6.816406 4.3125 9.601562 4.3125 12.46875 C 4.003906 12.46875 3.695312 12.46875 3.375 12.46875 C 3.367188 11.425781 3.363281 10.378906 3.359375 9.335938 C 3.359375 8.847656 3.355469 8.363281 3.351562 7.878906 C 3.351562 7.410156 3.347656 6.941406 3.347656 6.476562 C 3.347656 6.296875 3.347656 6.117188 3.34375 5.9375 C 3.34375 5.6875 3.34375 5.4375 3.34375 5.1875 C 3.34375 5.113281 3.339844 5.039062 3.339844 4.964844 C 3.339844 4.671875 3.359375 4.4375 3.476562 4.171875 C 3.65625 4.03125 3.65625 4.03125 4.3125 4.03125 Z M 4.3125 4.03125 "/>
<path style=" stroke:none;fill-rule:nonzero;fill:rgb(1.568628%,2.745098%,2.745098%);fill-opacity:1;" d="M 15 16.5 C 15.1875 16.6875 15.1875 16.6875 15.199219 16.933594 C 15.195312 17.007812 15.191406 17.082031 15.1875 17.15625 C 14.765625 17.273438 14.765625 17.273438 14.546875 17.160156 C 14.296875 17.039062 14.105469 17.035156 13.828125 17.035156 C 13.738281 17.03125 13.652344 17.03125 13.5625 17.027344 C 13.273438 17.066406 13.15625 17.160156 12.9375 17.34375 C 12.875 17.34375 12.8125 17.34375 12.75 17.34375 C 12.722656 17.417969 12.691406 17.492188 12.660156 17.566406 C 12.5625 17.8125 12.5625 17.8125 12.46875 18 C 12.40625 18.382812 12.398438 18.710938 12.582031 19.058594 C 12.820312 19.390625 13.019531 19.628906 13.40625 19.78125 C 13.921875 19.824219 14.285156 19.816406 14.71875 19.5 C 14.871094 19.261719 14.988281 19.011719 15.09375 18.75 C 14.996094 18.753906 14.996094 18.753906 14.894531 18.757812 C 14.808594 18.757812 14.722656 18.761719 14.636719 18.761719 C 14.507812 18.765625 14.507812 18.765625 14.378906 18.769531 C 14.15625 18.75 14.15625 18.75 13.96875 18.5625 C 14.019531 18.230469 14.019531 18.230469 14.15625 18.09375 C 14.40625 18.085938 14.65625 18.082031 14.90625 18.082031 C 14.976562 18.082031 15.046875 18.082031 15.117188 18.082031 C 15.644531 18.082031 15.644531 18.082031 15.75 18.1875 C 15.828125 18.808594 15.792969 19.292969 15.421875 19.808594 C 15.058594 20.226562 14.71875 20.503906 14.152344 20.558594 C 13.476562 20.585938 12.996094 20.566406 12.453125 20.144531 C 11.972656 19.65625 11.707031 19.136719 11.695312 18.449219 C 11.707031 17.84375 11.769531 17.40625 12.191406 16.949219 C 13.0625 16.140625 13.914062 15.996094 15 16.5 Z M 15 16.5 "/>
<path style=" stroke:none;fill-rule:nonzero;fill:rgb(38.431373%,80.392158%,91.764706%);fill-opacity:1;" d="M 15.9375 15.65625 C 16.101562 15.648438 16.269531 15.644531 16.433594 15.636719 C 16.527344 15.636719 16.621094 15.632812 16.714844 15.628906 C 16.96875 15.65625 16.96875 15.65625 17.121094 15.769531 C 17.292969 15.992188 17.285156 16.132812 17.289062 16.410156 C 17.289062 16.554688 17.289062 16.554688 17.292969 16.703125 C 17.292969 16.804688 17.292969 16.910156 17.289062 17.019531 C 17.292969 17.125 17.292969 17.230469 17.292969 17.34375 C 17.292969 17.570312 17.292969 17.792969 17.292969 18.019531 C 17.292969 18.367188 17.292969 18.714844 17.296875 19.058594 C 17.296875 19.28125 17.296875 19.5 17.296875 19.71875 C 17.296875 19.824219 17.296875 19.925781 17.300781 20.035156 C 17.296875 20.132812 17.296875 20.226562 17.296875 20.328125 C 17.296875 20.414062 17.296875 20.496094 17.296875 20.585938 C 17.234375 20.894531 17.121094 20.992188 16.875 21.1875 C 16.589844 21.234375 16.589844 21.234375 16.25 21.234375 C 16.15625 21.234375 16.15625 21.234375 16.058594 21.234375 C 15.847656 21.234375 15.640625 21.234375 15.429688 21.230469 C 15.28125 21.230469 15.128906 21.230469 14.976562 21.230469 C 14.570312 21.230469 14.160156 21.226562 13.75 21.226562 C 13.324219 21.222656 12.894531 21.222656 12.46875 21.222656 C 11.660156 21.222656 10.851562 21.21875 10.042969 21.214844 C 9.121094 21.210938 8.199219 21.207031 7.277344 21.207031 C 5.382812 21.203125 3.488281 21.195312 1.59375 21.1875 C 1.59375 21.15625 1.59375 21.125 1.59375 21.09375 C 1.667969 21.09375 1.742188 21.09375 1.816406 21.09375 C 3.609375 21.082031 5.40625 21.074219 7.199219 21.0625 C 8.066406 21.058594 8.933594 21.050781 9.800781 21.046875 C 10.558594 21.042969 11.3125 21.039062 12.070312 21.035156 C 12.46875 21.03125 12.871094 21.027344 13.269531 21.027344 C 13.648438 21.023438 14.023438 21.023438 14.402344 21.019531 C 14.539062 21.019531 14.675781 21.019531 14.816406 21.019531 C 15.003906 21.019531 15.191406 21.015625 15.382812 21.015625 C 15.488281 21.015625 15.59375 21.015625 15.703125 21.011719 C 15.933594 21.027344 15.933594 21.027344 16.03125 20.90625 C 16.039062 20.753906 16.042969 20.597656 16.042969 20.445312 C 16.042969 20.296875 16.042969 20.296875 16.042969 20.144531 C 16.042969 20.039062 16.042969 19.929688 16.042969 19.820312 C 16.042969 19.710938 16.042969 19.601562 16.042969 19.488281 C 16.042969 19.257812 16.042969 19.023438 16.042969 18.792969 C 16.042969 18.4375 16.042969 18.078125 16.042969 17.722656 C 16.042969 17.5 16.042969 17.273438 16.042969 17.046875 C 16.042969 16.886719 16.042969 16.886719 16.042969 16.722656 C 16.042969 16.625 16.042969 16.527344 16.042969 16.425781 C 16.042969 16.335938 16.042969 16.25 16.042969 16.160156 C 16.039062 15.921875 16.039062 15.921875 15.9375 15.65625 Z M 15.9375 15.65625 "/>
<path style=" stroke:none;fill-rule:nonzero;fill:rgb(58.823532%,88.627452%,97.254902%);fill-opacity:1;" d="M 8.625 16.96875 C 8.949219 17.128906 8.949219 17.128906 9.1875 17.34375 C 9.261719 17.40625 9.335938 17.46875 9.410156 17.53125 C 9.65625 17.984375 9.632812 18.433594 9.5625 18.9375 C 9.351562 19.363281 9.097656 19.667969 8.648438 19.847656 C 8.15625 19.914062 7.824219 19.945312 7.382812 19.714844 C 7.039062 19.429688 6.796875 19.179688 6.65625 18.75 C 6.609375 18.171875 6.664062 17.800781 7.03125 17.34375 C 7.503906 16.894531 8.003906 16.875 8.625 16.96875 Z M 8.625 16.96875 "/>
<path style=" stroke:none;fill-rule:nonzero;fill:rgb(42.745098%,83.137256%,62.7451%);fill-opacity:1;" d="M 8.25 4.6875 C 8.527344 4.6875 8.808594 4.6875 9.09375 4.6875 C 9.09375 7.253906 9.09375 9.824219 9.09375 12.46875 C 8.816406 12.46875 8.535156 12.46875 8.25 12.46875 C 8.25 9.902344 8.25 7.332031 8.25 4.6875 Z M 8.25 4.6875 "/>
<path style=" stroke:none;fill-rule:nonzero;fill:rgb(99.607843%,76.078433%,26.274511%);fill-opacity:1;" d="M 20.90625 4.03125 C 21.152344 4.03125 21.402344 4.03125 21.65625 4.03125 C 21.871094 4.355469 21.867188 4.476562 21.867188 4.859375 C 21.867188 5.03125 21.867188 5.03125 21.867188 5.203125 C 21.863281 5.324219 21.863281 5.445312 21.863281 5.570312 C 21.863281 5.695312 21.863281 5.820312 21.863281 5.949219 C 21.859375 6.277344 21.859375 6.609375 21.855469 6.9375 C 21.855469 7.277344 21.855469 7.613281 21.851562 7.953125 C 21.851562 8.613281 21.847656 9.277344 21.84375 9.9375 C 21.535156 9.9375 21.226562 9.9375 20.90625 9.9375 C 20.90625 7.988281 20.90625 6.039062 20.90625 4.03125 Z M 20.90625 4.03125 "/>
<path style=" stroke:none;fill-rule:nonzero;fill:rgb(77.64706%,92.156863%,97.647059%);fill-opacity:1;" d="M 18.1875 3.9375 C 18.835938 3.9375 19.488281 3.9375 20.15625 3.9375 C 20.15625 5.949219 20.15625 7.960938 20.15625 10.03125 C 19.628906 10.03125 19.105469 10.03125 18.5625 10.03125 C 18.5625 9.445312 18.5625 8.855469 18.5625 8.25 C 18.59375 8.25 18.625 8.25 18.65625 8.25 C 18.65625 8.808594 18.65625 9.363281 18.65625 9.9375 C 18.871094 9.9375 19.089844 9.9375 19.3125 9.9375 C 19.3125 7.988281 19.3125 6.039062 19.3125 4.03125 C 18.941406 4.03125 18.570312 4.03125 18.1875 4.03125 C 18.1875 4 18.1875 3.96875 18.1875 3.9375 Z M 18.1875 3.9375 "/>
<path style=" stroke:none;fill-rule:nonzero;fill:rgb(5.882353%,5.098039%,2.745098%);fill-opacity:1;" d="M 15.832031 11.613281 C 15.949219 11.609375 16.066406 11.609375 16.1875 11.609375 C 16.316406 11.609375 16.445312 11.609375 16.574219 11.609375 C 16.707031 11.609375 16.839844 11.609375 16.972656 11.609375 C 17.246094 11.609375 17.523438 11.609375 17.800781 11.609375 C 18.15625 11.609375 18.511719 11.605469 18.867188 11.605469 C 19.140625 11.605469 19.410156 11.605469 19.683594 11.605469 C 19.816406 11.605469 19.945312 11.601562 20.078125 11.601562 C 20.261719 11.601562 20.441406 11.601562 20.625 11.601562 C 20.730469 11.601562 20.832031 11.601562 20.941406 11.601562 C 21.1875 11.625 21.1875 11.625 21.375 11.8125 C 21.324219 12.238281 21.324219 12.238281 21.1875 12.375 C 21.003906 12.386719 20.820312 12.386719 20.636719 12.386719 C 20.519531 12.390625 20.402344 12.390625 20.28125 12.390625 C 20.152344 12.390625 20.023438 12.390625 19.894531 12.390625 C 19.761719 12.390625 19.628906 12.390625 19.496094 12.390625 C 19.222656 12.390625 18.945312 12.390625 18.667969 12.390625 C 18.3125 12.390625 17.957031 12.394531 17.601562 12.394531 C 17.328125 12.394531 17.058594 12.394531 16.785156 12.394531 C 16.652344 12.398438 16.523438 12.398438 16.390625 12.398438 C 16.207031 12.398438 16.027344 12.398438 15.84375 12.398438 C 15.6875 12.398438 15.6875 12.398438 15.527344 12.398438 C 15.28125 12.375 15.28125 12.375 15.09375 12.1875 C 15.164062 11.609375 15.273438 11.613281 15.832031 11.613281 Z M 15.832031 11.613281 "/>
<path style=" stroke:none;fill-rule:nonzero;fill:rgb(78.823531%,58.823532%,89.803922%);fill-opacity:1;" d="M 12.1875 6.46875 C 12.464844 6.46875 12.746094 6.46875 13.03125 6.46875 C 13.042969 7.035156 13.050781 7.597656 13.054688 8.164062 C 13.058594 8.359375 13.0625 8.550781 13.066406 8.742188 C 13.074219 9.019531 13.074219 9.296875 13.078125 9.574219 C 13.078125 9.65625 13.082031 9.746094 13.085938 9.832031 C 13.085938 10.257812 13.082031 10.4375 12.808594 10.777344 C 12.726562 10.839844 12.644531 10.902344 12.5625 10.96875 C 12.492188 11.039062 12.417969 11.113281 12.347656 11.183594 C 12.292969 11.238281 12.242188 11.289062 12.1875 11.34375 C 12.183594 11.257812 12.183594 11.175781 12.179688 11.085938 C 12.175781 10.976562 12.167969 10.867188 12.164062 10.753906 C 12.160156 10.640625 12.15625 10.53125 12.152344 10.417969 C 12.082031 10.066406 12 10.042969 11.71875 9.84375 C 11.683594 9.609375 11.683594 9.609375 11.695312 9.355469 C 11.699219 9.273438 11.703125 9.1875 11.707031 9.101562 C 11.710938 9.035156 11.714844 8.972656 11.71875 8.90625 C 11.84375 8.84375 11.964844 8.78125 12.09375 8.71875 C 12.125 7.976562 12.15625 7.234375 12.1875 6.46875 Z M 12.1875 6.46875 "/>
<path style=" stroke:none;fill-rule:nonzero;fill:rgb(3.529412%,5.490196%,6.27451%);fill-opacity:1;" d="M 2.90625 16.21875 C 3.332031 16.269531 3.332031 16.269531 3.46875 16.40625 C 3.476562 16.664062 3.480469 16.917969 3.476562 17.175781 C 3.476562 17.25 3.476562 17.328125 3.476562 17.40625 C 3.476562 17.652344 3.476562 17.898438 3.472656 18.144531 C 3.472656 18.3125 3.472656 18.480469 3.472656 18.648438 C 3.472656 19.054688 3.46875 19.464844 3.46875 19.875 C 3.578125 19.871094 3.578125 19.871094 3.6875 19.867188 C 3.78125 19.867188 3.875 19.863281 3.972656 19.863281 C 4.066406 19.859375 4.160156 19.859375 4.257812 19.855469 C 4.5 19.875 4.5 19.875 4.6875 20.0625 C 4.636719 20.488281 4.636719 20.488281 4.5 20.625 C 4.253906 20.640625 4.007812 20.648438 3.761719 20.648438 C 3.691406 20.648438 3.625 20.652344 3.554688 20.652344 C 3.046875 20.65625 3.046875 20.65625 2.839844 20.507812 C 2.691406 20.304688 2.683594 20.203125 2.683594 19.953125 C 2.683594 19.875 2.683594 19.796875 2.683594 19.714844 C 2.683594 19.632812 2.683594 19.546875 2.683594 19.460938 C 2.683594 19.375 2.683594 19.289062 2.683594 19.199219 C 2.683594 19.015625 2.6875 18.832031 2.6875 18.652344 C 2.691406 18.371094 2.6875 18.089844 2.6875 17.808594 C 2.6875 17.632812 2.691406 17.453125 2.691406 17.277344 C 2.691406 17.191406 2.691406 17.109375 2.691406 17.019531 C 2.691406 16.941406 2.691406 16.863281 2.695312 16.785156 C 2.695312 16.714844 2.695312 16.648438 2.695312 16.574219 C 2.71875 16.40625 2.71875 16.40625 2.90625 16.21875 Z M 2.90625 16.21875 "/>
<path style=" stroke:none;fill-rule:nonzero;fill:rgb(84.705883%,23.921569%,30.19608%);fill-opacity:1;" d="M 16.5 8.050781 C 16.574219 8.050781 16.652344 8.050781 16.730469 8.050781 C 16.808594 8.050781 16.886719 8.050781 16.96875 8.050781 C 17.085938 8.050781 17.085938 8.050781 17.207031 8.050781 C 17.285156 8.050781 17.359375 8.050781 17.4375 8.050781 C 17.507812 8.050781 17.578125 8.050781 17.648438 8.050781 C 17.8125 8.0625 17.8125 8.0625 17.90625 8.15625 C 17.914062 8.296875 17.917969 8.433594 17.914062 8.574219 C 17.914062 8.652344 17.914062 8.726562 17.914062 8.804688 C 17.914062 8.902344 17.914062 9 17.910156 9.101562 C 17.910156 9.40625 17.90625 9.714844 17.90625 10.03125 C 17.289062 10.03125 16.667969 10.03125 16.03125 10.03125 C 16.03125 9.722656 16.027344 9.414062 16.027344 9.101562 C 16.023438 9.003906 16.023438 8.90625 16.023438 8.804688 C 16.023438 8.691406 16.023438 8.691406 16.023438 8.574219 C 16.023438 8.496094 16.019531 8.417969 16.019531 8.339844 C 16.039062 8.003906 16.207031 8.050781 16.5 8.050781 Z M 16.5 8.050781 "/>
<path style=" stroke:none;fill-rule:nonzero;fill:rgb(6.27451%,6.666667%,6.666667%);fill-opacity:1;" d="M 8.6875 1.953125 C 8.785156 1.953125 8.785156 1.953125 8.886719 1.953125 C 9.085938 1.953125 9.289062 1.949219 9.488281 1.949219 C 9.617188 1.949219 9.742188 1.949219 9.871094 1.949219 C 9.984375 1.945312 10.101562 1.945312 10.222656 1.945312 C 10.5 1.96875 10.5 1.96875 10.6875 2.15625 C 10.636719 2.582031 10.636719 2.582031 10.5 2.71875 C 10.101562 2.738281 9.703125 2.734375 9.300781 2.734375 C 9.101562 2.734375 8.898438 2.738281 8.699219 2.738281 C 8.570312 2.738281 8.445312 2.742188 8.316406 2.742188 C 8.203125 2.742188 8.085938 2.742188 7.964844 2.742188 C 7.6875 2.71875 7.6875 2.71875 7.5 2.53125 C 7.59375 1.777344 8.035156 1.953125 8.6875 1.953125 Z M 8.6875 1.953125 "/>
<path style=" stroke:none;fill-rule:nonzero;fill:rgb(35.686275%,78.431374%,89.803922%);fill-opacity:1;" d="M 17.625 1.21875 C 18.097656 1.613281 18.542969 2.027344 18.980469 2.460938 C 19.039062 2.519531 19.097656 2.578125 19.160156 2.636719 C 19.242188 2.722656 19.242188 2.722656 19.328125 2.808594 C 19.382812 2.859375 19.429688 2.910156 19.484375 2.960938 C 19.59375 3.09375 19.59375 3.09375 19.59375 3.28125 C 19.335938 3.292969 19.078125 3.300781 18.820312 3.304688 C 18.710938 3.308594 18.710938 3.308594 18.597656 3.3125 C 18.265625 3.320312 18.058594 3.3125 17.761719 3.144531 C 17.554688 2.78125 17.585938 2.449219 17.601562 2.039062 C 17.601562 1.960938 17.605469 1.882812 17.605469 1.800781 C 17.609375 1.605469 17.617188 1.414062 17.625 1.21875 Z M 17.625 1.21875 "/>
<path style=" stroke:none;fill-rule:nonzero;fill:rgb(98.431373%,37.254903%,47.843137%);fill-opacity:1;" d="M 16.125 8.15625 C 16.402344 8.15625 16.683594 8.15625 16.96875 8.15625 C 16.96875 8.742188 16.96875 9.332031 16.96875 9.9375 C 16.691406 9.9375 16.410156 9.9375 16.125 9.9375 C 16.125 9.351562 16.125 8.761719 16.125 8.15625 Z M 16.125 8.15625 "/>
<path style=" stroke:none;fill-rule:nonzero;fill:rgb(58.431375%,89.019608%,97.647059%);fill-opacity:1;" d="M 17.625 1.96875 C 18.082031 2.339844 18.472656 2.730469 18.84375 3.1875 C 18.695312 3.195312 18.542969 3.199219 18.394531 3.207031 C 18.308594 3.207031 18.226562 3.210938 18.140625 3.214844 C 17.90625 3.1875 17.90625 3.1875 17.738281 3.074219 C 17.585938 2.847656 17.597656 2.691406 17.605469 2.417969 C 17.609375 2.335938 17.613281 2.25 17.613281 2.164062 C 17.617188 2.097656 17.621094 2.035156 17.625 1.96875 Z M 17.625 1.96875 "/>
</g>
</svg>
