<?xml version="1.0" encoding="UTF-8"?>
<svg xmlns="http://www.w3.org/2000/svg" xmlns:xlink="http://www.w3.org/1999/xlink" width="24" height="24" viewBox="0 0 24 24" version="1.1">
<g id="surface1">
<path style=" stroke:none;fill-rule:nonzero;fill:rgb(81.568629%,86.666667%,87.450981%);fill-opacity:1;" d="M 10.96875 6.65625 C 11.648438 6.65625 12.328125 6.65625 13.03125 6.65625 C 13.101562 7.007812 13.136719 7.273438 13.128906 7.621094 C 13.128906 7.707031 13.128906 7.789062 13.128906 7.875 C 13.125 7.9375 13.125 8 13.125 8.0625 C 13.359375 8.109375 13.359375 8.109375 13.59375 8.15625 C 13.664062 8.179688 13.738281 8.203125 13.8125 8.230469 C 14.074219 8.277344 14.074219 8.277344 14.3125 8.09375 C 14.394531 8.023438 14.476562 7.953125 14.558594 7.878906 C 14.683594 7.777344 14.683594 7.777344 14.8125 7.667969 C 14.90625 7.585938 14.90625 7.585938 15 7.5 C 15.53125 7.941406 16.015625 8.414062 16.5 8.90625 C 16.339844 9.183594 16.183594 9.425781 15.960938 9.65625 C 15.722656 9.910156 15.722656 9.910156 15.761719 10.175781 C 15.789062 10.253906 15.816406 10.328125 15.84375 10.40625 C 15.875 10.5625 15.90625 10.71875 15.9375 10.875 C 16.03125 10.875 16.03125 10.875 16.125 10.871094 C 16.207031 10.871094 16.292969 10.871094 16.378906 10.871094 C 16.5 10.867188 16.5 10.867188 16.625 10.867188 C 16.875 10.875 16.875 10.875 17.34375 10.96875 C 17.34375 11.648438 17.34375 12.328125 17.34375 13.03125 C 16.992188 13.101562 16.726562 13.136719 16.378906 13.128906 C 16.253906 13.128906 16.253906 13.128906 16.125 13.128906 C 16.0625 13.125 16 13.125 15.9375 13.125 C 15.925781 13.191406 15.910156 13.261719 15.894531 13.332031 C 15.84375 13.59375 15.84375 13.59375 15.769531 13.816406 C 15.722656 14.074219 15.722656 14.074219 15.90625 14.292969 C 15.976562 14.367188 16.046875 14.4375 16.121094 14.511719 C 16.222656 14.625 16.222656 14.625 16.332031 14.738281 C 16.386719 14.792969 16.441406 14.847656 16.5 14.90625 C 16.34375 15.304688 16.058594 15.574219 15.761719 15.871094 C 15.710938 15.925781 15.664062 15.980469 15.609375 16.03125 C 15.464844 16.183594 15.464844 16.183594 15.1875 16.40625 C 14.835938 16.363281 14.707031 16.21875 14.472656 15.960938 C 14.285156 15.773438 14.285156 15.773438 14.0625 15.65625 C 13.71875 15.683594 13.433594 15.789062 13.125 15.9375 C 13.125 16 13.125 16.0625 13.128906 16.125 C 13.128906 16.207031 13.128906 16.292969 13.128906 16.378906 C 13.132812 16.457031 13.132812 16.539062 13.132812 16.625 C 13.125 16.875 13.125 16.875 13.03125 17.34375 C 12.351562 17.34375 11.671875 17.34375 10.96875 17.34375 C 10.898438 16.992188 10.863281 16.726562 10.871094 16.378906 C 10.871094 16.292969 10.871094 16.210938 10.871094 16.125 C 10.875 16.0625 10.875 16 10.875 15.9375 C 10.773438 15.917969 10.773438 15.917969 10.667969 15.894531 C 10.40625 15.84375 10.40625 15.84375 10.1875 15.769531 C 9.925781 15.722656 9.925781 15.722656 9.6875 15.90625 C 9.5625 16.011719 9.5625 16.011719 9.441406 16.121094 C 9.316406 16.222656 9.316406 16.222656 9.1875 16.332031 C 9.125 16.386719 9.0625 16.441406 9 16.5 C 8.46875 16.058594 7.984375 15.585938 7.5 15.09375 C 7.660156 14.816406 7.816406 14.574219 8.039062 14.34375 C 8.277344 14.089844 8.277344 14.089844 8.238281 13.824219 C 8.210938 13.746094 8.183594 13.671875 8.15625 13.59375 C 8.109375 13.359375 8.109375 13.359375 8.0625 13.125 C 8 13.125 7.9375 13.125 7.875 13.128906 C 7.75 13.128906 7.75 13.128906 7.621094 13.128906 C 7.542969 13.132812 7.460938 13.132812 7.375 13.132812 C 7.125 13.125 7.125 13.125 6.65625 13.03125 C 6.65625 12.351562 6.65625 11.671875 6.65625 10.96875 C 7.121094 10.9375 7.585938 10.90625 8.0625 10.875 C 8.222656 10.414062 8.222656 10.414062 8.25 9.9375 C 8.042969 9.605469 7.789062 9.351562 7.5 9.09375 C 7.65625 8.695312 7.941406 8.425781 8.238281 8.128906 C 8.289062 8.074219 8.335938 8.019531 8.390625 7.96875 C 8.535156 7.816406 8.535156 7.816406 8.8125 7.59375 C 9.164062 7.636719 9.292969 7.78125 9.527344 8.039062 C 9.714844 8.226562 9.714844 8.226562 9.9375 8.34375 C 10.28125 8.316406 10.566406 8.210938 10.875 8.0625 C 10.875 8 10.875 7.9375 10.871094 7.875 C 10.871094 7.792969 10.871094 7.707031 10.871094 7.621094 C 10.867188 7.542969 10.867188 7.460938 10.867188 7.375 C 10.875 7.125 10.875 7.125 10.96875 6.65625 Z M 10.96875 6.65625 "/>
<path style=" stroke:none;fill-rule:nonzero;fill:rgb(56.470591%,55.686277%,76.47059%);fill-opacity:1;" d="M 1.945312 -0.0234375 C 2.058594 -0.0273438 2.171875 -0.0273438 2.289062 -0.03125 C 2.890625 0.0234375 3.273438 0.296875 3.65625 0.75 C 4.054688 1.320312 4.089844 1.851562 4.03125 2.53125 C 3.984375 2.660156 3.984375 2.660156 3.9375 2.789062 C 3.9375 3.398438 4.460938 3.785156 4.859375 4.199219 C 5.574219 4.863281 6.210938 4.945312 7.160156 4.925781 C 7.398438 4.917969 7.636719 4.898438 7.875 4.875 C 7.875 5.246094 7.875 5.617188 7.875 6 C 5.570312 6.320312 5.570312 6.320312 4.832031 5.796875 C 4.246094 5.3125 3.761719 4.71875 3.304688 4.117188 C 3.101562 3.902344 3.101562 3.902344 2.800781 3.957031 C 2.714844 3.980469 2.625 4.003906 2.53125 4.03125 C 1.777344 4.109375 1.1875 4.011719 0.5625 3.5625 C 0.0273438 3 -0.0351562 2.460938 -0.0234375 1.714844 C 0.0195312 1.1875 0.164062 0.84375 0.5625 0.488281 C 1.042969 0.117188 1.328125 -0.015625 1.945312 -0.0234375 Z M 1.21875 1.40625 C 1.019531 1.65625 1.03125 1.78125 1.035156 2.105469 C 1.144531 2.511719 1.25 2.664062 1.59375 2.90625 C 1.855469 2.96875 2.082031 2.964844 2.34375 2.90625 C 2.605469 2.738281 2.765625 2.625 2.90625 2.34375 C 2.964844 1.792969 2.964844 1.792969 2.714844 1.316406 C 2.144531 0.917969 1.738281 0.957031 1.21875 1.40625 Z M 1.21875 1.40625 "/>
<path style=" stroke:none;fill-rule:nonzero;fill:rgb(95.686275%,45.490196%,69.411767%);fill-opacity:1;" d="M 16.125 18 C 18.429688 17.679688 18.429688 17.679688 19.167969 18.203125 C 19.753906 18.6875 20.238281 19.28125 20.695312 19.882812 C 20.898438 20.097656 20.898438 20.097656 21.199219 20.042969 C 21.285156 20.019531 21.375 19.996094 21.46875 19.96875 C 22.222656 19.890625 22.8125 19.988281 23.4375 20.4375 C 23.972656 21 24.035156 21.539062 24.023438 22.285156 C 23.980469 22.8125 23.832031 23.152344 23.441406 23.511719 C 22.777344 24.03125 22.207031 24.054688 21.375 24 C 20.804688 23.808594 20.425781 23.425781 20.128906 22.910156 C 19.878906 22.386719 19.867188 21.753906 20.0625 21.210938 C 20.0625 20.601562 19.539062 20.214844 19.140625 19.800781 C 18.425781 19.136719 17.789062 19.054688 16.839844 19.074219 C 16.601562 19.082031 16.363281 19.101562 16.125 19.125 C 16.125 18.753906 16.125 18.382812 16.125 18 Z M 21.1875 21.46875 C 21.035156 21.773438 21.039062 22.078125 21.09375 22.40625 C 21.332031 22.742188 21.492188 22.851562 21.886719 22.972656 C 22.300781 22.96875 22.46875 22.863281 22.78125 22.59375 C 22.980469 22.34375 22.96875 22.21875 22.964844 21.894531 C 22.855469 21.488281 22.75 21.335938 22.40625 21.09375 C 21.890625 20.976562 21.558594 21.085938 21.1875 21.46875 Z M 21.1875 21.46875 "/>
<path style=" stroke:none;fill-rule:nonzero;fill:rgb(81.960785%,87.058824%,87.843138%);fill-opacity:1;" d="M 23.007812 0.140625 C 23.460938 0.40625 23.769531 0.847656 24 1.3125 C 24.015625 1.523438 24.019531 1.734375 24.023438 1.945312 C 24.027344 2.058594 24.027344 2.171875 24.03125 2.289062 C 23.976562 2.890625 23.703125 3.273438 23.25 3.65625 C 22.679688 4.054688 22.148438 4.089844 21.46875 4.03125 C 21.378906 4.007812 21.289062 3.980469 21.199219 3.957031 C 20.898438 3.902344 20.898438 3.902344 20.695312 4.117188 C 20.597656 4.246094 20.597656 4.246094 20.496094 4.378906 C 19.148438 6.007812 19.148438 6.007812 18.292969 6.125 C 17.566406 6.175781 16.84375 6.101562 16.125 6 C 16.125 5.628906 16.125 5.257812 16.125 4.875 C 16.269531 4.886719 16.410156 4.898438 16.558594 4.914062 C 17.429688 4.957031 18.191406 4.980469 18.902344 4.417969 C 19.332031 4.019531 19.773438 3.605469 20.0625 3.09375 C 20.078125 2.789062 20.078125 2.789062 19.96875 2.53125 C 19.890625 1.777344 19.984375 1.1875 20.4375 0.5625 C 21.109375 -0.078125 22.152344 -0.238281 23.007812 0.140625 Z M 21.28125 1.3125 C 21.050781 1.65625 21.027344 1.941406 21.09375 2.34375 C 21.261719 2.605469 21.375 2.765625 21.65625 2.90625 C 22.207031 2.964844 22.207031 2.964844 22.679688 2.714844 C 22.914062 2.378906 22.976562 2.1875 22.96875 1.78125 C 22.816406 1.476562 22.6875 1.28125 22.40625 1.089844 C 21.953125 0.949219 21.667969 1.085938 21.28125 1.3125 Z M 21.28125 1.3125 "/>
<path style=" stroke:none;fill-rule:nonzero;fill:rgb(22.745098%,70.19608%,75.294119%);fill-opacity:1;" d="M 7.875 18 C 7.875 18.371094 7.875 18.742188 7.875 19.125 C 7.734375 19.113281 7.589844 19.101562 7.441406 19.085938 C 6.570312 19.042969 5.808594 19.019531 5.097656 19.582031 C 4.667969 19.980469 4.230469 20.394531 3.9375 20.90625 C 3.921875 21.207031 3.921875 21.207031 4.03125 21.46875 C 4.089844 22.148438 4.054688 22.679688 3.65625 23.25 C 3.28125 23.695312 2.933594 23.96875 2.34375 24.03125 C 1.710938 24.050781 1.160156 24.039062 0.65625 23.625 C 0.0820312 22.996094 -0.0273438 22.515625 -0.0195312 21.671875 C 0.0117188 21.1875 0.183594 20.929688 0.488281 20.566406 C 1.0625 20.082031 1.519531 19.925781 2.277344 19.945312 C 2.53125 19.96875 2.53125 19.96875 2.804688 20.042969 C 3.101562 20.097656 3.101562 20.097656 3.304688 19.882812 C 3.371094 19.796875 3.4375 19.710938 3.503906 19.621094 C 4.859375 17.980469 5.722656 17.703125 7.875 18 Z M 1.316406 21.285156 C 1.085938 21.621094 1.023438 21.8125 1.03125 22.21875 C 1.179688 22.511719 1.316406 22.710938 1.574219 22.917969 C 1.894531 22.996094 2.121094 22.957031 2.4375 22.875 C 2.707031 22.6875 2.871094 22.550781 2.949219 22.226562 C 2.96875 21.863281 2.929688 21.691406 2.730469 21.378906 C 2.457031 21.117188 2.378906 21.097656 1.988281 21.058594 C 1.664062 21.0625 1.597656 21.09375 1.316406 21.285156 Z M 1.316406 21.285156 "/>
<path style=" stroke:none;fill-rule:nonzero;fill:rgb(28.235295%,46.27451%,53.333336%);fill-opacity:1;" d="M 12.984375 10 C 13.503906 10.3125 13.964844 10.757812 14.15625 11.34375 C 14.25 12.070312 14.21875 12.710938 13.78125 13.3125 C 13.371094 13.8125 12.914062 14.101562 12.277344 14.199219 C 11.523438 14.238281 10.976562 14.097656 10.40625 13.59375 C 9.914062 12.992188 9.796875 12.433594 9.808594 11.664062 C 9.878906 11.046875 10.152344 10.632812 10.609375 10.222656 C 11.316406 9.730469 12.191406 9.636719 12.984375 10 Z M 12.984375 10 "/>
<path style=" stroke:none;fill-rule:nonzero;fill:rgb(18.039216%,66.666669%,80.392158%);fill-opacity:1;" d="M 23.050781 10.1875 C 23.480469 10.457031 23.8125 10.871094 24 11.34375 C 24.082031 12.035156 24.105469 12.683594 23.671875 13.253906 C 23.195312 13.773438 22.765625 14.027344 22.054688 14.097656 C 21.5 14.078125 20.964844 13.894531 20.539062 13.53125 C 20.230469 13.195312 20.15625 13.035156 20.0625 12.5625 C 19.566406 12.5625 19.070312 12.5625 18.5625 12.5625 C 18.5625 12.191406 18.5625 11.820312 18.5625 11.4375 C 19.058594 11.4375 19.550781 11.4375 20.0625 11.4375 C 20.09375 11.28125 20.125 11.128906 20.15625 10.96875 C 20.449219 10.449219 20.867188 10.191406 21.421875 10 C 22.015625 9.84375 22.5 9.917969 23.050781 10.1875 Z M 23.050781 10.1875 "/>
<path style=" stroke:none;fill-rule:nonzero;fill:rgb(98.039216%,81.176472%,29.411766%);fill-opacity:1;" d="M 3.28125 10.3125 C 3.691406 10.660156 3.832031 10.902344 3.9375 11.4375 C 4.433594 11.4375 4.925781 11.4375 5.4375 11.4375 C 5.4375 11.808594 5.4375 12.179688 5.4375 12.5625 C 4.941406 12.5625 4.449219 12.5625 3.9375 12.5625 C 3.890625 12.792969 3.890625 12.792969 3.84375 13.03125 C 3.550781 13.550781 3.132812 13.808594 2.578125 14 C 1.984375 14.15625 1.5 14.082031 0.949219 13.8125 C 0.519531 13.542969 0.1875 13.128906 0 12.65625 C -0.0820312 11.964844 -0.105469 11.316406 0.328125 10.746094 C 1.175781 9.824219 2.199219 9.695312 3.28125 10.3125 Z M 3.28125 10.3125 "/>
<path style=" stroke:none;fill-rule:nonzero;fill:rgb(27.450982%,45.490196%,52.941179%);fill-opacity:1;" d="M 20.15625 3 C 20.21875 3 20.28125 3 20.34375 3 C 20.503906 3.1875 20.65625 3.375 20.8125 3.5625 C 20.875 3.59375 20.9375 3.625 21 3.65625 C 20.582031 4.578125 19.71875 5.484375 18.84375 6 C 17.945312 6.230469 17.035156 6.121094 16.125 6 C 16.125 5.628906 16.125 5.257812 16.125 4.875 C 16.265625 4.890625 16.40625 4.902344 16.554688 4.917969 C 17.453125 4.964844 18.203125 4.988281 18.914062 4.378906 C 19.304688 3.996094 19.664062 3.589844 20.007812 3.164062 C 20.054688 3.109375 20.105469 3.054688 20.15625 3 Z M 20.15625 3 "/>
<path style=" stroke:none;fill-rule:nonzero;fill:rgb(27.450982%,45.490196%,52.941179%);fill-opacity:1;" d="M 16.125 18 C 18.394531 17.667969 18.394531 17.667969 19.183594 18.210938 C 19.875 18.75 20.496094 19.441406 21 20.15625 C 21 20.21875 21 20.28125 21 20.34375 C 20.835938 20.507812 20.835938 20.507812 20.625 20.683594 C 20.519531 20.773438 20.519531 20.773438 20.414062 20.863281 C 20.359375 20.90625 20.304688 20.953125 20.25 21 C 19.917969 20.730469 19.617188 20.476562 19.359375 20.132812 C 18.902344 19.5625 18.546875 19.207031 17.796875 19.121094 C 17.238281 19.085938 16.683594 19.097656 16.125 19.125 C 16.125 18.753906 16.125 18.382812 16.125 18 Z M 16.125 18 "/>
<path style=" stroke:none;fill-rule:nonzero;fill:rgb(27.450982%,45.490196%,52.941179%);fill-opacity:1;" d="M 3.65625 3 C 3.96875 3.132812 4.128906 3.28125 4.335938 3.550781 C 5.117188 4.496094 5.117188 4.496094 6.230469 4.90625 C 6.78125 4.941406 7.324219 4.921875 7.875 4.875 C 7.875 5.246094 7.875 5.617188 7.875 6 C 5.597656 6.332031 5.597656 6.332031 4.816406 5.789062 C 4.121094 5.234375 3.542969 4.539062 3 3.84375 C 3.039062 3.796875 3.078125 3.753906 3.121094 3.707031 C 3.171875 3.648438 3.222656 3.589844 3.277344 3.527344 C 3.328125 3.46875 3.378906 3.410156 3.429688 3.351562 C 3.570312 3.191406 3.570312 3.191406 3.65625 3 Z M 3.65625 3 "/>
<path style=" stroke:none;fill-rule:nonzero;fill:rgb(27.450982%,45.490196%,52.941179%);fill-opacity:1;" d="M 7.875 18 C 7.875 18.371094 7.875 18.742188 7.875 19.125 C 7.734375 19.109375 7.59375 19.097656 7.445312 19.082031 C 6.542969 19.035156 5.796875 19.015625 5.078125 19.621094 C 4.632812 20.050781 4.226562 20.515625 3.84375 21 C 3.738281 20.914062 3.632812 20.824219 3.527344 20.738281 C 3.46875 20.6875 3.410156 20.636719 3.351562 20.589844 C 3.1875 20.4375 3.1875 20.4375 3 20.15625 C 4.472656 18.273438 5.433594 17.644531 7.875 18 Z M 7.875 18 "/>
<path style=" stroke:none;fill-rule:nonzero;fill:rgb(98.039216%,98.431373%,98.823529%);fill-opacity:1;" d="M 12.28125 10.78125 C 13.054688 11.222656 13.054688 11.222656 13.1875 11.628906 C 13.234375 12.019531 13.242188 12.230469 13.074219 12.589844 C 12.53125 13.1875 12.53125 13.1875 12.078125 13.242188 C 11.742188 13.234375 11.523438 13.195312 11.261719 12.976562 C 10.953125 12.621094 10.753906 12.363281 10.785156 11.882812 C 10.839844 11.460938 10.980469 11.257812 11.289062 10.976562 C 11.605469 10.757812 11.90625 10.746094 12.28125 10.78125 Z M 12.28125 10.78125 "/>
<path style=" stroke:none;fill-rule:nonzero;fill:rgb(99.607843%,99.215686%,97.647059%);fill-opacity:1;" d="M 2.4375 11.0625 C 2.707031 11.296875 2.707031 11.296875 2.90625 11.53125 C 2.9375 11.5625 2.96875 11.59375 3 11.625 C 3.054688 12.285156 3.054688 12.285156 2.835938 12.644531 C 2.503906 12.960938 2.503906 12.960938 2.25 13.03125 C 1.753906 13.011719 1.480469 12.910156 1.125 12.5625 C 0.972656 12.257812 0.976562 11.953125 1.03125 11.625 C 1.371094 11.011719 1.777344 10.902344 2.4375 11.0625 Z M 2.4375 11.0625 "/>
<path style=" stroke:none;fill-rule:nonzero;fill:rgb(97.254902%,98.823529%,99.215686%);fill-opacity:1;" d="M 22.40625 11.0625 C 22.660156 11.234375 22.832031 11.351562 22.96875 11.625 C 23.023438 12.285156 23.023438 12.285156 22.804688 12.644531 C 22.480469 12.949219 22.347656 13.03125 21.894531 13.027344 C 21.503906 12.921875 21.351562 12.773438 21.09375 12.46875 C 21.0625 12.4375 21.03125 12.40625 21 12.375 C 20.945312 11.714844 20.945312 11.714844 21.164062 11.355469 C 21.585938 10.957031 21.832031 10.921875 22.40625 11.0625 Z M 22.40625 11.0625 "/>
<path style=" stroke:none;fill-rule:nonzero;fill:rgb(27.058825%,45.490196%,52.941179%);fill-opacity:1;" d="M 18.5625 11.4375 C 19.058594 11.4375 19.550781 11.4375 20.0625 11.4375 C 20.0625 11.808594 20.0625 12.179688 20.0625 12.5625 C 19.566406 12.5625 19.074219 12.5625 18.5625 12.5625 C 18.5625 12.191406 18.5625 11.820312 18.5625 11.4375 Z M 18.5625 11.4375 "/>
<path style=" stroke:none;fill-rule:nonzero;fill:rgb(27.450982%,45.490196%,52.549022%);fill-opacity:1;" d="M 3.9375 11.4375 C 4.433594 11.4375 4.925781 11.4375 5.4375 11.4375 C 5.4375 11.808594 5.4375 12.179688 5.4375 12.5625 C 4.941406 12.5625 4.449219 12.5625 3.9375 12.5625 C 3.9375 12.191406 3.9375 11.820312 3.9375 11.4375 Z M 3.9375 11.4375 "/>
</g>
</svg>
