<?xml version="1.0" encoding="UTF-8"?>
<svg xmlns="http://www.w3.org/2000/svg" xmlns:xlink="http://www.w3.org/1999/xlink" width="24" height="24" viewBox="0 0 24 24" version="1.1">
<g id="surface1">
<path style=" stroke:none;fill-rule:nonzero;fill:rgb(99.215686%,65.490198%,13.725491%);fill-opacity:1;" d="M 8.53125 1.6875 C 8.761719 1.675781 8.988281 1.664062 9.214844 1.660156 C 9.3125 1.652344 9.3125 1.652344 9.414062 1.644531 C 9.601562 1.640625 9.601562 1.640625 9.9375 1.6875 C 10.109375 1.890625 10.109375 1.890625 10.21875 2.15625 C 10.253906 2.242188 10.289062 2.332031 10.328125 2.421875 C 10.359375 2.507812 10.390625 2.597656 10.425781 2.691406 C 10.457031 2.777344 10.488281 2.867188 10.523438 2.960938 C 10.59375 3.1875 10.59375 3.1875 10.59375 3.375 C 10.6875 3.394531 10.78125 3.414062 10.875 3.433594 C 11.1875 3.515625 11.355469 3.648438 11.589844 3.867188 C 11.847656 4.078125 11.957031 4.125 12.296875 4.121094 C 12.605469 4.066406 12.914062 4.007812 13.21875 3.9375 C 13.582031 3.855469 13.582031 3.855469 13.875 3.9375 C 14.15625 4.285156 14.382812 4.640625 14.53125 5.0625 C 14.425781 5.578125 14.011719 5.929688 13.667969 6.308594 C 13.445312 6.578125 13.445312 6.578125 13.59375 7.03125 C 14.058594 7.03125 14.523438 7.03125 15 7.03125 C 15.054688 6.734375 15.054688 6.734375 15.113281 6.433594 C 15.328125 5.441406 15.679688 4.660156 16.5 4.03125 C 17.527344 3.425781 18.515625 3.179688 19.703125 3.4375 C 20.648438 3.757812 21.476562 4.394531 21.964844 5.28125 C 22.441406 6.316406 22.433594 7.367188 22.074219 8.441406 C 21.949219 8.695312 21.832031 8.84375 21.652344 9.050781 C 21.308594 9.503906 21.296875 9.878906 21.3125 10.429688 C 21.3125 10.523438 21.3125 10.617188 21.3125 10.714844 C 21.3125 11.019531 21.316406 11.328125 21.320312 11.632812 C 21.320312 11.847656 21.320312 12.058594 21.324219 12.273438 C 21.324219 12.832031 21.328125 13.394531 21.335938 13.953125 C 21.34375 14.523438 21.34375 15.097656 21.347656 15.667969 C 21.351562 16.789062 21.363281 17.910156 21.375 19.03125 C 21.476562 19.027344 21.582031 19.023438 21.683594 19.019531 C 22.03125 19.03125 22.03125 19.03125 22.3125 19.21875 C 22.339844 19.449219 22.347656 19.660156 22.34375 19.890625 C 22.34375 19.957031 22.34375 20.023438 22.34375 20.089844 C 22.34375 20.230469 22.339844 20.371094 22.339844 20.507812 C 22.335938 20.722656 22.335938 20.9375 22.335938 21.152344 C 22.335938 21.289062 22.332031 21.425781 22.332031 21.558594 C 22.332031 21.625 22.332031 21.6875 22.332031 21.753906 C 22.324219 22.207031 22.324219 22.207031 22.21875 22.3125 C 21.957031 22.320312 21.695312 22.324219 21.433594 22.324219 C 21.304688 22.324219 21.304688 22.324219 21.179688 22.324219 C 20.898438 22.324219 20.617188 22.324219 20.332031 22.324219 C 20.132812 22.324219 19.929688 22.324219 19.730469 22.324219 C 19.179688 22.324219 18.632812 22.324219 18.085938 22.324219 C 17.511719 22.324219 16.941406 22.324219 16.367188 22.324219 C 15.40625 22.324219 14.445312 22.324219 13.484375 22.324219 C 12.371094 22.324219 11.257812 22.324219 10.144531 22.324219 C 9.191406 22.324219 8.238281 22.324219 7.285156 22.324219 C 6.714844 22.324219 6.144531 22.324219 5.574219 22.324219 C 5.039062 22.324219 4.5 22.324219 3.964844 22.324219 C 3.765625 22.324219 3.570312 22.324219 3.371094 22.324219 C 3.105469 22.324219 2.835938 22.324219 2.566406 22.324219 C 2.488281 22.324219 2.410156 22.324219 2.328125 22.324219 C 1.792969 22.324219 1.792969 22.324219 1.6875 22.21875 C 1.675781 22 1.667969 21.78125 1.667969 21.558594 C 1.667969 21.460938 1.667969 21.460938 1.667969 21.359375 C 1.664062 21.21875 1.664062 21.078125 1.664062 20.941406 C 1.664062 20.726562 1.660156 20.511719 1.660156 20.296875 C 1.65625 20.160156 1.65625 20.027344 1.65625 19.890625 C 1.65625 19.824219 1.65625 19.761719 1.652344 19.695312 C 1.652344 19.515625 1.652344 19.515625 1.6875 19.21875 C 2.027344 18.992188 2.222656 19.015625 2.625 19.03125 C 2.625 18.96875 2.625 18.910156 2.625 18.847656 C 2.632812 17.371094 2.636719 15.894531 2.648438 14.421875 C 2.652344 13.707031 2.65625 12.992188 2.65625 12.28125 C 2.660156 11.65625 2.664062 11.035156 2.667969 10.414062 C 2.667969 10.085938 2.671875 9.753906 2.671875 9.425781 C 2.671875 9.058594 2.675781 8.691406 2.679688 8.324219 C 2.679688 8.214844 2.675781 8.105469 2.675781 7.992188 C 2.679688 7.890625 2.679688 7.792969 2.679688 7.6875 C 2.683594 7.601562 2.683594 7.515625 2.683594 7.425781 C 2.699219 7.324219 2.699219 7.324219 2.71875 7.21875 C 3.023438 7.015625 3.105469 7.007812 3.457031 7.011719 C 3.546875 7.011719 3.632812 7.015625 3.726562 7.015625 C 3.816406 7.015625 3.90625 7.019531 4.003906 7.019531 C 4.09375 7.019531 4.1875 7.019531 4.28125 7.023438 C 4.511719 7.023438 4.738281 7.027344 4.96875 7.03125 C 5.015625 6.644531 4.992188 6.503906 4.761719 6.183594 C 4.628906 6.039062 4.492188 5.898438 4.355469 5.757812 C 4.03125 5.402344 4.03125 5.402344 4.03125 5.105469 C 4.136719 4.84375 4.261719 4.617188 4.410156 4.378906 C 4.464844 4.292969 4.515625 4.210938 4.566406 4.125 C 4.605469 4.0625 4.648438 4 4.6875 3.9375 C 4.859375 3.949219 5.035156 3.964844 5.207031 3.980469 C 5.3125 3.984375 5.414062 3.992188 5.523438 4 C 5.8125 4.03125 5.8125 4.03125 6.144531 4.125 C 6.613281 4.125 6.878906 3.890625 7.25 3.625 C 7.5 3.46875 7.679688 3.410156 7.96875 3.375 C 7.976562 3.324219 7.988281 3.273438 7.996094 3.21875 C 8.105469 2.671875 8.285156 2.191406 8.53125 1.6875 Z M 8.53125 1.6875 "/>
<path style=" stroke:none;fill-rule:nonzero;fill:rgb(92.156863%,91.764706%,98.431373%);fill-opacity:1;" d="M 3.28125 7.59375 C 3.898438 7.59375 4.519531 7.59375 5.15625 7.59375 C 5.15625 8.34375 5.15625 8.34375 4.976562 8.605469 C 4.898438 8.679688 4.820312 8.753906 4.738281 8.832031 C 4.332031 9.21875 4.332031 9.21875 4.21875 9.75 C 4.308594 9.984375 4.308594 9.984375 4.449219 10.199219 C 4.492188 10.273438 4.535156 10.347656 4.582031 10.425781 C 4.617188 10.480469 4.652344 10.535156 4.6875 10.59375 C 4.738281 10.585938 4.789062 10.582031 4.84375 10.574219 C 6.625 10.375 6.625 10.375 7.386719 10.980469 C 7.457031 11.039062 7.523438 11.097656 7.59375 11.15625 C 7.714844 11.21875 7.714844 11.21875 7.839844 11.285156 C 8.132812 11.484375 8.175781 11.65625 8.273438 11.996094 C 8.300781 12.09375 8.332031 12.1875 8.363281 12.289062 C 8.421875 12.503906 8.480469 12.71875 8.53125 12.9375 C 8.6875 12.9375 8.839844 12.9375 9 12.9375 C 9 14.328125 9 15.722656 9 17.15625 C 8.164062 17.15625 7.328125 17.15625 6.46875 17.15625 C 6.40625 16.941406 6.34375 16.722656 6.28125 16.5 C 6.101562 16.363281 6.101562 16.363281 5.90625 16.3125 C 5.84375 16.28125 5.78125 16.25 5.71875 16.21875 C 5.261719 16.171875 4.898438 16.148438 4.5 16.386719 C 4.179688 16.738281 4.089844 16.953125 4.101562 17.433594 C 4.148438 17.8125 4.3125 18.078125 4.558594 18.363281 C 4.910156 18.53125 5.242188 18.527344 5.625 18.46875 C 5.960938 18.300781 6.144531 18.207031 6.28125 17.847656 C 6.46875 17.625 6.46875 17.625 6.660156 17.582031 C 6.921875 17.570312 7.179688 17.574219 7.441406 17.578125 C 7.535156 17.578125 7.628906 17.582031 7.730469 17.582031 C 8.035156 17.582031 8.339844 17.589844 8.644531 17.597656 C 8.847656 17.597656 9.054688 17.601562 9.261719 17.601562 C 9.769531 17.605469 10.273438 17.613281 10.78125 17.625 C 10.875 17.792969 10.964844 17.957031 11.058594 18.125 C 11.195312 18.339844 11.28125 18.40625 11.53125 18.46875 C 12.007812 18.5 12.40625 18.5 12.84375 18.28125 C 12.972656 18.054688 12.972656 18.054688 13.03125 17.8125 C 13.0625 17.75 13.09375 17.6875 13.125 17.625 C 13.734375 17.609375 14.339844 17.601562 14.945312 17.59375 C 15.152344 17.589844 15.359375 17.585938 15.566406 17.582031 C 15.863281 17.574219 16.160156 17.574219 16.457031 17.570312 C 16.550781 17.566406 16.640625 17.5625 16.738281 17.5625 C 16.984375 17.5625 17.199219 17.566406 17.4375 17.625 C 17.675781 17.898438 17.675781 17.898438 17.8125 18.1875 C 18.085938 18.449219 18.273438 18.507812 18.652344 18.511719 C 18.976562 18.5 19.113281 18.472656 19.40625 18.308594 C 19.742188 17.921875 19.824219 17.5625 19.8125 17.054688 C 19.761719 16.761719 19.617188 16.609375 19.40625 16.40625 C 19.007812 16.171875 18.640625 16.140625 18.1875 16.21875 C 17.761719 16.4375 17.617188 16.710938 17.4375 17.15625 C 16.015625 17.15625 14.589844 17.15625 13.125 17.15625 C 13.03125 16.941406 12.9375 16.722656 12.84375 16.5 C 12.554688 16.226562 12.292969 16.195312 11.90625 16.175781 C 11.585938 16.1875 11.445312 16.214844 11.15625 16.371094 C 10.921875 16.625 10.921875 16.625 10.78125 17.15625 C 10.378906 17.15625 9.976562 17.15625 9.5625 17.15625 C 9.5625 15.765625 9.5625 14.371094 9.5625 12.9375 C 9.71875 12.875 9.871094 12.8125 10.03125 12.75 C 10.136719 12.546875 10.136719 12.546875 10.183594 12.304688 C 10.304688 11.796875 10.40625 11.371094 10.859375 11.078125 C 10.960938 11.035156 11.058594 10.992188 11.160156 10.945312 C 11.566406 10.769531 11.566406 10.769531 11.90625 10.5 C 12.167969 10.5 12.167969 10.5 12.488281 10.527344 C 12.59375 10.539062 12.703125 10.550781 12.816406 10.558594 C 13.140625 10.59375 13.460938 10.636719 13.78125 10.6875 C 13.878906 10.539062 13.972656 10.390625 14.066406 10.242188 C 14.121094 10.160156 14.175781 10.078125 14.230469 9.992188 C 14.359375 9.765625 14.359375 9.765625 14.339844 9.5625 C 14.164062 9.195312 13.859375 8.917969 13.585938 8.621094 C 13.40625 8.34375 13.40625 8.34375 13.40625 7.6875 C 14.023438 7.6875 14.644531 7.6875 15.28125 7.6875 C 15.34375 7.855469 15.410156 8.023438 15.472656 8.199219 C 15.878906 9.160156 16.390625 9.769531 17.34375 10.21875 C 18.253906 10.582031 19.265625 10.5 20.15625 10.125 C 20.34375 10.0625 20.527344 10 20.71875 9.9375 C 20.71875 12.96875 20.71875 16 20.71875 19.125 C 18.894531 19.125 17.066406 19.125 15.1875 19.125 C 15.1875 19.683594 15.1875 20.238281 15.1875 20.8125 C 15.015625 20.984375 14.746094 20.917969 14.515625 20.917969 C 14.394531 20.917969 14.269531 20.917969 14.140625 20.917969 C 14.007812 20.917969 13.871094 20.917969 13.734375 20.917969 C 13.59375 20.917969 13.457031 20.917969 13.320312 20.917969 C 13.03125 20.917969 12.738281 20.917969 12.449219 20.917969 C 12.074219 20.917969 11.703125 20.917969 11.328125 20.917969 C 11.042969 20.917969 10.757812 20.917969 10.472656 20.917969 C 10.335938 20.917969 10.195312 20.917969 10.058594 20.917969 C 9.867188 20.917969 9.675781 20.917969 9.484375 20.917969 C 9.320312 20.917969 9.320312 20.917969 9.152344 20.917969 C 8.90625 20.90625 8.90625 20.90625 8.8125 20.8125 C 8.8125 20.253906 8.8125 19.699219 8.8125 19.125 C 6.988281 19.125 5.160156 19.125 3.28125 19.125 C 3.28125 15.320312 3.28125 11.515625 3.28125 7.59375 Z M 3.28125 7.59375 "/>
<path style=" stroke:none;fill-rule:nonzero;fill:rgb(14.901961%,45.09804%,54.509807%);fill-opacity:1;" d="M 3.453125 7.007812 C 3.539062 7.007812 3.625 7.007812 3.714844 7.011719 C 3.804688 7.011719 3.898438 7.011719 3.992188 7.011719 C 4.082031 7.011719 4.171875 7.011719 4.265625 7.011719 C 4.941406 7.019531 4.941406 7.019531 5.15625 7.125 C 5.15625 7.28125 5.15625 7.433594 5.15625 7.59375 C 4.539062 7.59375 3.917969 7.59375 3.28125 7.59375 C 3.28125 11.398438 3.28125 15.203125 3.28125 19.125 C 5.105469 19.125 6.929688 19.125 8.8125 19.125 C 8.859375 19.960938 8.859375 19.960938 8.90625 20.8125 C 10.949219 20.8125 12.988281 20.8125 15.09375 20.8125 C 15.125 20.253906 15.15625 19.699219 15.1875 19.125 C 17.011719 19.125 18.835938 19.125 20.71875 19.125 C 20.714844 18.457031 20.710938 17.792969 20.707031 17.105469 C 20.703125 16.683594 20.703125 16.261719 20.699219 15.839844 C 20.699219 15.167969 20.695312 14.5 20.691406 13.828125 C 20.6875 13.289062 20.683594 12.75 20.683594 12.210938 C 20.683594 12.003906 20.679688 11.796875 20.679688 11.59375 C 20.675781 11.304688 20.675781 11.015625 20.675781 10.726562 C 20.675781 10.640625 20.671875 10.554688 20.671875 10.46875 C 20.675781 9.890625 20.675781 9.890625 20.898438 9.648438 C 21.09375 9.5625 21.09375 9.5625 21.28125 9.5625 C 21.3125 12.6875 21.34375 15.8125 21.375 19.03125 C 21.589844 19.03125 21.808594 19.03125 22.03125 19.03125 C 22.125 19.09375 22.214844 19.15625 22.3125 19.21875 C 22.339844 19.449219 22.347656 19.660156 22.34375 19.890625 C 22.34375 19.957031 22.34375 20.023438 22.34375 20.089844 C 22.34375 20.230469 22.339844 20.371094 22.339844 20.507812 C 22.335938 20.722656 22.335938 20.9375 22.335938 21.152344 C 22.332031 21.289062 22.332031 21.425781 22.332031 21.558594 C 22.332031 21.625 22.332031 21.6875 22.328125 21.753906 C 22.324219 22.207031 22.324219 22.207031 22.21875 22.3125 C 21.957031 22.320312 21.695312 22.324219 21.433594 22.324219 C 21.308594 22.324219 21.308594 22.324219 21.179688 22.324219 C 20.898438 22.324219 20.617188 22.324219 20.332031 22.324219 C 20.132812 22.324219 19.929688 22.324219 19.730469 22.324219 C 19.183594 22.324219 18.632812 22.324219 18.085938 22.324219 C 17.511719 22.324219 16.941406 22.324219 16.367188 22.324219 C 15.40625 22.324219 14.445312 22.324219 13.484375 22.324219 C 12.371094 22.324219 11.257812 22.324219 10.144531 22.324219 C 9.191406 22.324219 8.238281 22.324219 7.285156 22.324219 C 6.714844 22.324219 6.144531 22.324219 5.574219 22.324219 C 5.035156 22.324219 4.5 22.324219 3.964844 22.324219 C 3.765625 22.324219 3.570312 22.324219 3.371094 22.324219 C 3.105469 22.324219 2.835938 22.324219 2.566406 22.324219 C 2.488281 22.324219 2.410156 22.324219 2.328125 22.324219 C 1.792969 22.324219 1.792969 22.324219 1.6875 22.21875 C 1.675781 22 1.667969 21.78125 1.667969 21.558594 C 1.667969 21.460938 1.667969 21.460938 1.667969 21.359375 C 1.664062 21.21875 1.664062 21.082031 1.664062 20.941406 C 1.664062 20.726562 1.660156 20.511719 1.65625 20.296875 C 1.65625 20.160156 1.65625 20.027344 1.65625 19.890625 C 1.65625 19.824219 1.65625 19.761719 1.652344 19.695312 C 1.65625 19.515625 1.65625 19.515625 1.6875 19.21875 C 2.03125 18.992188 2.222656 19.015625 2.625 19.03125 C 2.625 18.96875 2.625 18.910156 2.625 18.847656 C 2.632812 17.371094 2.640625 15.894531 2.648438 14.421875 C 2.652344 13.707031 2.65625 12.992188 2.65625 12.28125 C 2.660156 11.65625 2.664062 11.035156 2.667969 10.414062 C 2.667969 10.085938 2.671875 9.753906 2.671875 9.425781 C 2.671875 9.058594 2.675781 8.691406 2.679688 8.324219 C 2.679688 8.214844 2.679688 8.105469 2.679688 7.992188 C 2.679688 7.890625 2.679688 7.792969 2.679688 7.6875 C 2.683594 7.601562 2.683594 7.515625 2.683594 7.425781 C 2.695312 7.359375 2.707031 7.289062 2.71875 7.21875 C 3.019531 7.015625 3.101562 7.007812 3.453125 7.007812 Z M 3.453125 7.007812 "/>
<path style=" stroke:none;fill-rule:nonzero;fill:rgb(99.607843%,25.490198%,11.372549%);fill-opacity:1;" d="M 20.835938 4.007812 C 21.609375 4.640625 22.152344 5.371094 22.3125 6.375 C 22.402344 7.476562 22.226562 8.5 21.5 9.363281 C 20.574219 10.203125 19.488281 10.546875 18.257812 10.527344 C 17.371094 10.453125 16.613281 10.019531 16.035156 9.351562 C 15.636719 8.820312 15.4375 8.328125 15.28125 7.6875 C 14.664062 7.6875 14.042969 7.6875 13.40625 7.6875 C 13.40625 7.5 13.40625 7.316406 13.40625 7.125 C 13.695312 6.980469 13.992188 7.023438 14.308594 7.027344 C 14.40625 7.027344 14.40625 7.027344 14.507812 7.027344 C 14.671875 7.027344 14.835938 7.03125 15 7.03125 C 15.015625 6.949219 15.03125 6.863281 15.046875 6.777344 C 15.261719 5.660156 15.570312 4.742188 16.5 4.03125 C 17.894531 3.210938 19.453125 3.039062 20.835938 4.007812 Z M 20.835938 4.007812 "/>
<path style=" stroke:none;fill-rule:nonzero;fill:rgb(97.647059%,83.92157%,61.176473%);fill-opacity:1;" d="M 11.890625 11.707031 C 11.96875 11.707031 12.046875 11.707031 12.128906 11.707031 C 12.25 11.707031 12.25 11.707031 12.375 11.707031 C 12.648438 11.707031 12.921875 11.707031 13.195312 11.707031 C 13.382812 11.707031 13.574219 11.707031 13.761719 11.707031 C 14.15625 11.707031 14.554688 11.707031 14.949219 11.707031 C 15.460938 11.707031 15.96875 11.707031 16.476562 11.707031 C 16.867188 11.707031 17.257812 11.707031 17.648438 11.707031 C 17.835938 11.707031 18.023438 11.707031 18.210938 11.707031 C 18.472656 11.707031 18.734375 11.707031 18.996094 11.707031 C 19.113281 11.707031 19.113281 11.707031 19.234375 11.707031 C 19.769531 11.707031 19.769531 11.707031 19.875 11.8125 C 19.886719 12.046875 19.886719 12.28125 19.886719 12.515625 C 19.886719 12.585938 19.886719 12.65625 19.886719 12.730469 C 19.886719 12.878906 19.886719 13.027344 19.886719 13.175781 C 19.886719 13.40625 19.886719 13.632812 19.886719 13.863281 C 19.886719 14.007812 19.886719 14.152344 19.886719 14.296875 C 19.886719 14.367188 19.886719 14.433594 19.886719 14.503906 C 19.886719 14.988281 19.886719 14.988281 19.78125 15.09375 C 19.523438 15.105469 19.265625 15.105469 19.007812 15.105469 C 18.925781 15.105469 18.84375 15.109375 18.761719 15.109375 C 18.492188 15.109375 18.222656 15.109375 17.953125 15.109375 C 17.765625 15.109375 17.582031 15.109375 17.394531 15.109375 C 17.003906 15.109375 16.609375 15.109375 16.21875 15.109375 C 15.714844 15.109375 15.214844 15.113281 14.710938 15.113281 C 14.328125 15.113281 13.941406 15.113281 13.554688 15.113281 C 13.371094 15.117188 13.183594 15.117188 13 15.117188 C 12.742188 15.117188 12.480469 15.117188 12.222656 15.117188 C 12.144531 15.117188 12.070312 15.117188 11.988281 15.117188 C 11.457031 15.113281 11.457031 15.113281 11.25 14.90625 C 11.234375 14.671875 11.226562 14.449219 11.226562 14.214844 C 11.230469 14.144531 11.230469 14.078125 11.230469 14.007812 C 11.230469 13.863281 11.230469 13.71875 11.230469 13.574219 C 11.234375 13.355469 11.234375 13.132812 11.234375 12.910156 C 11.234375 12.769531 11.234375 12.632812 11.234375 12.492188 C 11.234375 12.425781 11.234375 12.359375 11.234375 12.289062 C 11.238281 11.695312 11.300781 11.707031 11.890625 11.707031 Z M 11.890625 11.707031 "/>
<path style=" stroke:none;fill-rule:nonzero;fill:rgb(99.215686%,25.490198%,11.764706%);fill-opacity:1;" d="M 9 12.9375 C 9.15625 12.9375 9.308594 12.9375 9.46875 12.9375 C 9.46875 14.328125 9.46875 15.722656 9.46875 17.15625 C 9.902344 17.15625 10.335938 17.15625 10.78125 17.15625 C 10.8125 16.96875 10.84375 16.785156 10.875 16.59375 C 11.128906 16.296875 11.277344 16.15625 11.660156 16.078125 C 12.164062 16.050781 12.503906 16.140625 12.910156 16.4375 C 13.03125 16.59375 13.03125 16.59375 13.125 17.15625 C 14.546875 17.15625 15.972656 17.15625 17.4375 17.15625 C 17.46875 17 17.5 16.847656 17.53125 16.6875 C 17.753906 16.382812 18.027344 16.164062 18.398438 16.078125 C 18.898438 16.054688 19.207031 16.167969 19.59375 16.5 C 19.859375 16.75 19.875 16.867188 19.910156 17.238281 C 19.890625 17.722656 19.71875 18.042969 19.402344 18.410156 C 18.996094 18.632812 18.640625 18.65625 18.1875 18.5625 C 17.8125 18.347656 17.574219 18.128906 17.4375 17.71875 C 16.015625 17.6875 14.589844 17.65625 13.125 17.625 C 13.0625 17.78125 13 17.933594 12.9375 18.09375 C 12.71875 18.347656 12.601562 18.457031 12.28125 18.5625 C 11.785156 18.59375 11.460938 18.613281 11.0625 18.28125 C 10.78125 17.882812 10.78125 17.882812 10.78125 17.625 C 10.171875 17.625 9.5625 17.632812 8.953125 17.640625 C 8.746094 17.640625 8.539062 17.644531 8.332031 17.644531 C 8.035156 17.644531 7.738281 17.648438 7.441406 17.652344 C 7.347656 17.652344 7.253906 17.652344 7.15625 17.652344 C 6.917969 17.65625 6.703125 17.664062 6.46875 17.71875 C 6.273438 17.933594 6.273438 17.933594 6.1875 18.1875 C 5.800781 18.527344 5.488281 18.628906 4.984375 18.605469 C 4.625 18.53125 4.46875 18.367188 4.21875 18.09375 C 3.996094 17.722656 3.9375 17.296875 4.03125 16.875 C 4.226562 16.5625 4.449219 16.289062 4.78125 16.125 C 5.257812 16.074219 5.617188 16.074219 6.046875 16.292969 C 6.28125 16.5 6.28125 16.5 6.46875 16.78125 C 6.46875 16.90625 6.46875 17.027344 6.46875 17.15625 C 7.304688 17.15625 8.140625 17.15625 9 17.15625 C 9 15.765625 9 14.371094 9 12.9375 Z M 9 12.9375 "/>
<path style=" stroke:none;fill-rule:nonzero;fill:rgb(100%,99.215686%,98.431373%);fill-opacity:1;" d="M 9.128906 5.128906 C 9.769531 5.089844 10.253906 5.261719 10.78125 5.625 C 11.210938 6.015625 11.488281 6.421875 11.566406 7.007812 C 11.582031 7.792969 11.4375 8.390625 10.910156 8.984375 C 10.359375 9.488281 9.789062 9.707031 9.046875 9.683594 C 8.40625 9.609375 7.875 9.347656 7.464844 8.839844 C 6.960938 8.160156 6.957031 7.480469 7.03125 6.65625 C 7.136719 6.347656 7.277344 6.140625 7.5 5.90625 C 7.574219 5.824219 7.574219 5.824219 7.652344 5.742188 C 8.105469 5.308594 8.519531 5.203125 9.128906 5.128906 Z M 9.128906 5.128906 "/>
<path style=" stroke:none;fill-rule:nonzero;fill:rgb(99.607843%,99.607843%,99.607843%);fill-opacity:1;" d="M 8.90625 19.125 C 10.949219 19.125 12.988281 19.125 15.09375 19.125 C 15.09375 19.710938 15.09375 20.300781 15.09375 20.90625 C 13.050781 20.90625 11.011719 20.90625 8.90625 20.90625 C 8.90625 20.320312 8.90625 19.730469 8.90625 19.125 Z M 8.90625 19.125 "/>
<path style=" stroke:none;fill-rule:nonzero;fill:rgb(100%,59.215689%,14.509805%);fill-opacity:1;" d="M 10.957031 5.183594 C 11.484375 5.589844 11.792969 6.121094 12 6.75 C 12.085938 7.746094 11.953125 8.433594 11.320312 9.210938 C 10.835938 9.730469 10.308594 10.082031 9.59375 10.148438 C 8.6875 10.171875 7.945312 9.980469 7.269531 9.355469 C 6.648438 8.636719 6.519531 7.921875 6.53125 6.996094 C 6.597656 6.269531 6.917969 5.792969 7.441406 5.300781 C 8.523438 4.410156 9.8125 4.398438 10.957031 5.183594 Z M 7.40625 6 C 6.960938 6.535156 6.976562 7.046875 6.996094 7.730469 C 7.042969 8.171875 7.136719 8.371094 7.40625 8.71875 C 7.460938 8.800781 7.519531 8.886719 7.574219 8.972656 C 8.035156 9.453125 8.585938 9.664062 9.246094 9.691406 C 9.875 9.683594 10.390625 9.449219 10.859375 9.03125 C 11.410156 8.433594 11.585938 7.832031 11.5625 7.023438 C 11.496094 6.453125 11.265625 6.074219 10.847656 5.691406 C 9.71875 4.8125 8.351562 4.984375 7.40625 6 Z M 7.40625 6 "/>
<path style=" stroke:none;fill-rule:nonzero;fill:rgb(12.54902%,40.392157%,48.627451%);fill-opacity:1;" d="M 3.453125 7.007812 C 3.539062 7.007812 3.625 7.007812 3.714844 7.011719 C 3.804688 7.011719 3.898438 7.011719 3.992188 7.011719 C 4.082031 7.011719 4.171875 7.011719 4.265625 7.011719 C 4.941406 7.019531 4.941406 7.019531 5.15625 7.125 C 5.15625 7.28125 5.15625 7.433594 5.15625 7.59375 C 4.539062 7.625 3.917969 7.65625 3.28125 7.6875 C 3.25 11.460938 3.21875 15.234375 3.1875 19.125 C 3.03125 19.125 2.878906 19.125 2.71875 19.125 C 2.710938 17.578125 2.707031 16.027344 2.703125 14.476562 C 2.703125 13.757812 2.699219 13.039062 2.699219 12.320312 C 2.695312 11.695312 2.691406 11.066406 2.691406 10.441406 C 2.691406 10.105469 2.691406 9.773438 2.6875 9.445312 C 2.6875 9.074219 2.6875 8.703125 2.6875 8.332031 C 2.6875 8.222656 2.683594 8.113281 2.683594 7.996094 C 2.683594 7.898438 2.683594 7.796875 2.683594 7.691406 C 2.683594 7.605469 2.683594 7.519531 2.683594 7.429688 C 2.695312 7.359375 2.707031 7.289062 2.71875 7.21875 C 3.019531 7.015625 3.101562 7.007812 3.453125 7.007812 Z M 3.453125 7.007812 "/>
<path style=" stroke:none;fill-rule:nonzero;fill:rgb(99.607843%,25.882354%,12.156863%);fill-opacity:1;" d="M 5.71875 16.125 C 6.082031 16.3125 6.242188 16.445312 6.46875 16.78125 C 6.523438 17.203125 6.515625 17.59375 6.363281 17.988281 C 6.089844 18.300781 5.835938 18.519531 5.421875 18.601562 C 5.039062 18.625 4.769531 18.597656 4.457031 18.355469 C 4.089844 17.953125 3.976562 17.625 3.988281 17.070312 C 4.070312 16.707031 4.324219 16.460938 4.59375 16.21875 C 4.941406 16.046875 5.339844 16.082031 5.71875 16.125 Z M 5.71875 16.125 "/>
<path style=" stroke:none;fill-rule:nonzero;fill:rgb(99.607843%,25.882354%,12.156863%);fill-opacity:1;" d="M 19.03125 16.125 C 19.390625 16.3125 19.691406 16.507812 19.875 16.875 C 19.925781 17.402344 19.890625 17.734375 19.59375 18.1875 C 19.382812 18.429688 19.226562 18.542969 18.910156 18.605469 C 18.453125 18.636719 18.164062 18.59375 17.808594 18.300781 C 17.503906 18.007812 17.421875 17.734375 17.394531 17.320312 C 17.398438 16.871094 17.554688 16.660156 17.859375 16.339844 C 18.203125 16.042969 18.597656 16.070312 19.03125 16.125 Z M 19.03125 16.125 "/>
<path style=" stroke:none;fill-rule:nonzero;fill:rgb(12.54902%,40.392157%,48.627451%);fill-opacity:1;" d="M 21.28125 9.5625 C 21.28125 12.71875 21.28125 15.875 21.28125 19.125 C 21.125 19.125 20.972656 19.125 20.8125 19.125 C 20.792969 17.917969 20.773438 16.714844 20.757812 15.507812 C 20.75 14.949219 20.742188 14.390625 20.730469 13.828125 C 20.71875 13.289062 20.714844 12.75 20.707031 12.210938 C 20.703125 12.003906 20.699219 11.796875 20.695312 11.59375 C 20.691406 11.304688 20.6875 11.015625 20.683594 10.726562 C 20.683594 10.640625 20.679688 10.554688 20.679688 10.46875 C 20.675781 9.890625 20.675781 9.890625 20.898438 9.648438 C 21.09375 9.5625 21.09375 9.5625 21.28125 9.5625 Z M 21.28125 9.5625 "/>
<path style=" stroke:none;fill-rule:nonzero;fill:rgb(23.529412%,22.745098%,22.745098%);fill-opacity:1;" d="M 9 12.9375 C 9.15625 12.9375 9.308594 12.9375 9.46875 12.9375 C 9.46875 14.328125 9.46875 15.722656 9.46875 17.15625 C 9.871094 17.15625 10.273438 17.15625 10.6875 17.15625 C 10.6875 17.3125 10.6875 17.464844 10.6875 17.625 C 9.296875 17.625 7.902344 17.625 6.46875 17.625 C 6.46875 17.46875 6.46875 17.316406 6.46875 17.15625 C 7.304688 17.15625 8.140625 17.15625 9 17.15625 C 9 15.765625 9 14.371094 9 12.9375 Z M 9 12.9375 "/>
<path style=" stroke:none;fill-rule:nonzero;fill:rgb(16.470589%,43.137255%,50.980395%);fill-opacity:1;" d="M 8.4375 19.21875 C 8.5625 19.21875 8.683594 19.21875 8.8125 19.21875 C 8.84375 19.746094 8.875 20.269531 8.90625 20.8125 C 10.949219 20.8125 12.988281 20.8125 15.09375 20.8125 C 15.125 20.285156 15.15625 19.761719 15.1875 19.21875 C 15.3125 19.21875 15.433594 19.21875 15.5625 19.21875 C 15.574219 19.492188 15.582031 19.765625 15.585938 20.039062 C 15.589844 20.117188 15.59375 20.195312 15.59375 20.273438 C 15.597656 20.386719 15.597656 20.386719 15.597656 20.5 C 15.601562 20.601562 15.601562 20.601562 15.605469 20.707031 C 15.542969 21 15.417969 21.097656 15.1875 21.28125 C 14.898438 21.328125 14.898438 21.328125 14.554688 21.332031 C 14.460938 21.332031 14.460938 21.332031 14.367188 21.332031 C 14.160156 21.335938 13.953125 21.335938 13.746094 21.335938 C 13.601562 21.335938 13.457031 21.335938 13.3125 21.335938 C 13.011719 21.335938 12.710938 21.335938 12.410156 21.335938 C 12.023438 21.332031 11.640625 21.335938 11.253906 21.339844 C 10.957031 21.339844 10.660156 21.339844 10.363281 21.339844 C 10.21875 21.339844 10.078125 21.339844 9.933594 21.34375 C 9.734375 21.34375 9.539062 21.34375 9.339844 21.339844 C 9.226562 21.339844 9.113281 21.339844 8.996094 21.339844 C 8.71875 21.28125 8.71875 21.28125 8.542969 21.054688 C 8.441406 20.816406 8.402344 20.671875 8.410156 20.417969 C 8.410156 20.347656 8.414062 20.277344 8.414062 20.203125 C 8.414062 20.097656 8.414062 20.097656 8.417969 19.988281 C 8.421875 19.914062 8.421875 19.839844 8.421875 19.761719 C 8.425781 19.582031 8.433594 19.398438 8.4375 19.21875 Z M 8.4375 19.21875 "/>
<path style=" stroke:none;fill-rule:nonzero;fill:rgb(24.705882%,23.529412%,22.352941%);fill-opacity:1;" d="M 12.46875 13.6875 C 14.511719 13.6875 16.550781 13.6875 18.65625 13.6875 C 18.625 13.84375 18.59375 13.996094 18.5625 14.15625 C 16.582031 14.15625 14.601562 14.15625 12.5625 14.15625 C 12.53125 14 12.5 13.847656 12.46875 13.6875 Z M 12.46875 13.6875 "/>
<path style=" stroke:none;fill-rule:nonzero;fill:rgb(24.313726%,23.529412%,21.960784%);fill-opacity:1;" d="M 12.46875 12.75 C 14.511719 12.75 16.550781 12.75 18.65625 12.75 C 18.625 12.90625 18.59375 13.058594 18.5625 13.21875 C 16.582031 13.21875 14.601562 13.21875 12.5625 13.21875 C 12.53125 13.0625 12.5 12.910156 12.46875 12.75 Z M 12.46875 12.75 "/>
<path style=" stroke:none;fill-rule:nonzero;fill:rgb(100%,96.470588%,96.078432%);fill-opacity:1;" d="M 18.65625 5.8125 C 19.121094 5.8125 19.585938 5.8125 20.0625 5.8125 C 20.0625 6.308594 20.0625 6.800781 20.0625 7.3125 C 19.722656 7.3125 19.382812 7.3125 19.03125 7.3125 C 19.03125 7.589844 19.03125 7.871094 19.03125 8.15625 C 18.90625 8.15625 18.785156 8.15625 18.65625 8.15625 C 18.65625 7.382812 18.65625 6.609375 18.65625 5.8125 Z M 18.65625 5.8125 "/>
<path style=" stroke:none;fill-rule:nonzero;fill:rgb(100%,92.941177%,91.764706%);fill-opacity:1;" d="M 17.25 5.8125 C 17.40625 5.839844 17.5625 5.871094 17.71875 5.90625 C 17.742188 5.980469 17.765625 6.054688 17.789062 6.132812 C 17.992188 6.753906 17.992188 6.753906 18.257812 7.355469 C 18.382812 7.613281 18.398438 7.777344 18.375 8.0625 C 18.25 8.09375 18.128906 8.125 18 8.15625 C 17.9375 7.96875 17.875 7.785156 17.8125 7.59375 C 17.566406 7.59375 17.316406 7.59375 17.0625 7.59375 C 17 7.78125 16.9375 7.964844 16.875 8.15625 C 16.75 8.125 16.628906 8.09375 16.5 8.0625 C 16.554688 7.546875 16.6875 7.105469 16.875 6.621094 C 16.898438 6.554688 16.925781 6.484375 16.953125 6.414062 C 17.140625 5.921875 17.140625 5.921875 17.25 5.8125 Z M 17.25 5.8125 "/>
<path style=" stroke:none;fill-rule:nonzero;fill:rgb(23.921569%,23.529412%,23.529412%);fill-opacity:1;" d="M 13.21875 17.15625 C 14.609375 17.15625 16.003906 17.15625 17.4375 17.15625 C 17.4375 17.3125 17.4375 17.464844 17.4375 17.625 C 16.046875 17.625 14.652344 17.625 13.21875 17.625 C 13.21875 17.46875 13.21875 17.316406 13.21875 17.15625 Z M 13.21875 17.15625 "/>
<path style=" stroke:none;fill-rule:nonzero;fill:rgb(20.392157%,43.921569%,51.372552%);fill-opacity:1;" d="M 14.296875 7.019531 C 14.363281 7.019531 14.425781 7.019531 14.492188 7.019531 C 14.976562 7.019531 14.976562 7.019531 15.1875 7.125 C 15.21875 7.3125 15.25 7.496094 15.28125 7.6875 C 14.664062 7.6875 14.042969 7.6875 13.40625 7.6875 C 13.40625 7.5 13.40625 7.316406 13.40625 7.125 C 13.691406 6.984375 13.984375 7.019531 14.296875 7.019531 Z M 14.296875 7.019531 "/>
<path style=" stroke:none;fill-rule:nonzero;fill:rgb(100%,93.725491%,92.941177%);fill-opacity:1;" d="M 20.53125 5.8125 C 20.65625 5.8125 20.777344 5.8125 20.90625 5.8125 C 20.90625 6.585938 20.90625 7.359375 20.90625 8.15625 C 20.75 8.125 20.597656 8.09375 20.4375 8.0625 C 20.433594 7.707031 20.433594 7.347656 20.433594 6.988281 C 20.429688 6.886719 20.429688 6.785156 20.429688 6.679688 C 20.429688 6.585938 20.429688 6.488281 20.429688 6.386719 C 20.429688 6.296875 20.425781 6.207031 20.425781 6.113281 C 20.4375 5.90625 20.4375 5.90625 20.53125 5.8125 Z M 20.53125 5.8125 "/>
<path style=" stroke:none;fill-rule:nonzero;fill:rgb(100%,25.882354%,12.156863%);fill-opacity:1;" d="M 19.125 6.28125 C 19.28125 6.28125 19.433594 6.28125 19.59375 6.28125 C 19.59375 6.46875 19.59375 6.652344 19.59375 6.84375 C 19.4375 6.84375 19.285156 6.84375 19.125 6.84375 C 19.125 6.65625 19.125 6.472656 19.125 6.28125 Z M 19.125 6.28125 "/>
</g>
</svg>
