<?xml version="1.0" encoding="UTF-8"?>
<svg xmlns="http://www.w3.org/2000/svg" xmlns:xlink="http://www.w3.org/1999/xlink" width="24" height="24" viewBox="0 0 24 24" version="1.1">
<g id="surface1">
<path style=" stroke:none;fill-rule:nonzero;fill:rgb(1.568628%,1.568628%,1.568628%);fill-opacity:1;" d="M 16.96875 0 C 17.773438 0 18.578125 0 19.40625 0 C 19.4375 0.339844 19.46875 0.679688 19.5 1.03125 C 19.890625 0.90625 19.890625 0.90625 20.261719 0.730469 C 20.4375 0.65625 20.4375 0.65625 20.601562 0.664062 C 20.917969 0.792969 21.121094 1.03125 21.351562 1.269531 C 21.398438 1.320312 21.445312 1.367188 21.496094 1.417969 C 21.613281 1.539062 21.726562 1.660156 21.84375 1.78125 C 21.609375 2.382812 21.609375 2.382812 21.375 3 C 21.746094 3.03125 22.117188 3.0625 22.5 3.09375 C 22.5 3.867188 22.5 4.640625 22.5 5.4375 C 22.160156 5.46875 21.820312 5.5 21.46875 5.53125 C 21.535156 5.984375 21.535156 5.984375 21.722656 6.285156 C 21.84375 6.5625 21.84375 6.5625 21.777344 6.75 C 21.648438 6.953125 21.507812 7.078125 21.320312 7.230469 C 20.988281 7.558594 20.921875 7.789062 20.910156 8.25 C 20.914062 8.335938 20.914062 8.417969 20.914062 8.503906 C 20.914062 8.589844 20.914062 8.679688 20.910156 8.773438 C 20.910156 9.0625 20.910156 9.355469 20.914062 9.648438 C 20.914062 9.851562 20.910156 10.054688 20.910156 10.257812 C 20.910156 10.6875 20.910156 11.109375 20.914062 11.539062 C 20.917969 12.082031 20.914062 12.628906 20.910156 13.175781 C 20.910156 13.59375 20.910156 14.015625 20.910156 14.4375 C 20.914062 14.636719 20.910156 14.839844 20.910156 15.039062 C 20.910156 15.320312 20.910156 15.601562 20.914062 15.882812 C 20.914062 15.96875 20.914062 16.050781 20.910156 16.136719 C 20.917969 16.46875 20.925781 16.691406 21.144531 16.953125 C 21.316406 17.105469 21.316406 17.105469 21.496094 17.230469 C 21.707031 17.378906 21.828125 17.554688 21.964844 17.769531 C 22.011719 17.839844 22.054688 17.90625 22.101562 17.976562 C 22.308594 18.347656 22.40625 18.597656 22.40625 19.03125 C 22.46875 19.035156 22.53125 19.039062 22.59375 19.042969 C 23.125 19.199219 23.574219 19.539062 23.859375 20.015625 C 24.117188 20.617188 24.109375 21.359375 23.933594 21.984375 C 23.664062 22.589844 23.191406 22.941406 22.585938 23.191406 C 22.289062 23.289062 22.003906 23.28125 21.691406 23.277344 C 21.554688 23.277344 21.421875 23.28125 21.285156 23.28125 C 21.074219 23.28125 20.863281 23.277344 20.65625 23.277344 C 19.589844 23.25 19.589844 23.25 18.699219 23.777344 C 18.421875 24.039062 18.109375 24.011719 17.746094 24.015625 C 17.636719 24.015625 17.523438 24.015625 17.410156 24.015625 C 17.289062 24.015625 17.164062 24.015625 17.039062 24.015625 C 16.910156 24.015625 16.78125 24.019531 16.648438 24.019531 C 16.222656 24.019531 15.796875 24.023438 15.367188 24.023438 C 15.222656 24.023438 15.074219 24.023438 14.925781 24.023438 C 14.234375 24.023438 13.542969 24.027344 12.851562 24.027344 C 12.054688 24.027344 11.257812 24.03125 10.460938 24.035156 C 9.84375 24.039062 9.226562 24.039062 8.609375 24.039062 C 8.242188 24.039062 7.875 24.039062 7.503906 24.042969 C 7.15625 24.046875 6.8125 24.046875 6.464844 24.042969 C 6.277344 24.042969 6.089844 24.046875 5.902344 24.046875 C 5.234375 24.042969 4.785156 23.992188 4.21875 23.625 C 4.171875 23.574219 4.125 23.527344 4.074219 23.472656 C 3.871094 23.277344 3.703125 23.308594 3.425781 23.308594 C 3.277344 23.304688 3.277344 23.304688 3.121094 23.304688 C 2.910156 23.304688 2.699219 23.300781 2.488281 23.300781 C 1.765625 23.289062 1.121094 23.222656 0.574219 22.710938 C 0.0234375 22.113281 -0.0429688 21.558594 -0.0273438 20.761719 C 0.0195312 20.226562 0.160156 19.890625 0.550781 19.519531 C 0.878906 19.257812 1.160156 19.058594 1.59375 19.03125 C 1.601562 18.953125 1.609375 18.875 1.617188 18.796875 C 1.765625 18.105469 2.125 17.554688 2.625 17.0625 C 2.6875 17.023438 2.753906 16.988281 2.820312 16.949219 C 3.023438 16.792969 3.023438 16.792969 3.046875 16.515625 C 3.046875 16.40625 3.046875 16.300781 3.046875 16.1875 C 3.046875 16.097656 3.046875 16.097656 3.046875 16.003906 C 3.046875 15.800781 3.046875 15.601562 3.042969 15.398438 C 3.042969 15.253906 3.042969 15.105469 3.042969 14.960938 C 3.046875 14.648438 3.042969 14.335938 3.042969 14.023438 C 3.039062 13.527344 3.042969 13.03125 3.042969 12.539062 C 3.042969 11.308594 3.042969 10.078125 3.039062 8.851562 C 3.039062 7.898438 3.039062 6.941406 3.039062 5.988281 C 3.042969 5.496094 3.039062 5.003906 3.035156 4.511719 C 3.035156 4.203125 3.035156 3.898438 3.039062 3.59375 C 3.039062 3.449219 3.039062 3.308594 3.035156 3.167969 C 3.035156 2.972656 3.035156 2.78125 3.035156 2.585938 C 3.035156 2.476562 3.035156 2.367188 3.035156 2.257812 C 3.113281 1.875 3.253906 1.734375 3.5625 1.5 C 3.796875 1.441406 3.796875 1.441406 4.042969 1.445312 C 4.140625 1.445312 4.234375 1.445312 4.332031 1.445312 C 4.433594 1.445312 4.539062 1.449219 4.644531 1.449219 C 4.808594 1.449219 4.808594 1.449219 4.976562 1.449219 C 5.214844 1.453125 5.453125 1.453125 5.691406 1.457031 C 6.066406 1.460938 6.441406 1.460938 6.820312 1.460938 C 7.820312 1.460938 8.824219 1.46875 9.828125 1.476562 C 10.484375 1.480469 11.144531 1.484375 11.804688 1.484375 C 12.117188 1.484375 12.425781 1.484375 12.742188 1.488281 C 13.089844 1.492188 13.4375 1.492188 13.785156 1.492188 C 13.890625 1.496094 13.992188 1.5 14.097656 1.5 C 14.652344 1.496094 14.652344 1.496094 15.125 1.230469 C 15.324219 1.027344 15.324219 1.027344 15.484375 0.808594 C 15.542969 0.757812 15.597656 0.707031 15.65625 0.65625 C 16.046875 0.679688 16.34375 0.855469 16.6875 1.03125 C 16.75 1.03125 16.8125 1.03125 16.875 1.03125 C 16.90625 0.691406 16.9375 0.351562 16.96875 0 Z M 17.34375 3.46875 C 17.128906 3.785156 17.0625 3.972656 17.0625 4.359375 C 17.179688 4.769531 17.328125 4.945312 17.625 5.25 C 17.925781 5.398438 18.234375 5.378906 18.5625 5.34375 C 18.886719 5.214844 19.007812 5.097656 19.207031 4.808594 C 19.335938 4.425781 19.351562 4.136719 19.21875 3.75 C 19 3.472656 19 3.472656 18.75 3.28125 C 18.71875 3.25 18.6875 3.21875 18.65625 3.1875 C 18.160156 3.132812 17.730469 3.125 17.34375 3.46875 Z M 17.34375 3.46875 "/>
<path style=" stroke:none;fill-rule:nonzero;fill:rgb(87.843138%,89.019608%,90.588236%);fill-opacity:1;" d="M 12.609375 17.070312 C 12.800781 17.21875 12.941406 17.351562 13.089844 17.546875 C 13.433594 17.8125 13.777344 17.761719 14.203125 17.761719 C 15.152344 17.78125 15.953125 17.921875 16.683594 18.578125 C 17.097656 19.046875 17.414062 19.589844 17.464844 20.214844 C 17.457031 20.289062 17.449219 20.363281 17.4375 20.4375 C 17.503906 20.445312 17.570312 20.457031 17.636719 20.46875 C 18.230469 20.609375 18.609375 20.855469 18.9375 21.375 C 19.035156 21.898438 18.957031 22.335938 18.65625 22.78125 C 18.246094 23.164062 17.949219 23.261719 17.394531 23.261719 C 17.289062 23.265625 17.183594 23.265625 17.074219 23.265625 C 16.957031 23.265625 16.839844 23.265625 16.722656 23.265625 C 16.597656 23.265625 16.476562 23.269531 16.351562 23.269531 C 15.941406 23.269531 15.535156 23.273438 15.128906 23.273438 C 14.988281 23.273438 14.851562 23.273438 14.710938 23.273438 C 14.050781 23.277344 13.394531 23.277344 12.734375 23.277344 C 11.976562 23.277344 11.21875 23.28125 10.457031 23.285156 C 9.871094 23.289062 9.28125 23.289062 8.695312 23.289062 C 8.34375 23.289062 7.996094 23.289062 7.644531 23.292969 C 7.253906 23.296875 6.863281 23.292969 6.472656 23.292969 C 6.355469 23.296875 6.238281 23.296875 6.121094 23.296875 C 5.519531 23.292969 5.140625 23.28125 4.6875 22.875 C 4.613281 22.8125 4.539062 22.746094 4.464844 22.683594 C 4.230469 22.253906 4.242188 21.851562 4.3125 21.375 C 4.515625 20.953125 4.730469 20.722656 5.15625 20.53125 C 5.34375 20.496094 5.53125 20.464844 5.71875 20.4375 C 5.738281 20.34375 5.757812 20.246094 5.777344 20.148438 C 6.054688 18.875 6.53125 17.777344 7.621094 17 C 9.175781 16.007812 11.097656 15.980469 12.609375 17.070312 Z M 12.609375 17.070312 "/>
<path style=" stroke:none;fill-rule:nonzero;fill:rgb(90.980393%,78.823531%,68.235296%);fill-opacity:1;" d="M 3.84375 4.59375 C 7.183594 4.59375 10.527344 4.59375 13.96875 4.59375 C 13.96875 4.871094 13.96875 5.152344 13.96875 5.4375 C 14.308594 5.4375 14.648438 5.4375 15 5.4375 C 15.09375 5.8125 15.09375 5.8125 15.003906 6.023438 C 14.972656 6.078125 14.941406 6.132812 14.90625 6.1875 C 14.789062 6.1875 14.671875 6.191406 14.550781 6.191406 C 14.394531 6.195312 14.242188 6.199219 14.085938 6.207031 C 13.96875 6.207031 13.96875 6.207031 13.851562 6.207031 C 13.777344 6.210938 13.703125 6.210938 13.625 6.214844 C 13.554688 6.214844 13.488281 6.21875 13.417969 6.21875 C 13.109375 6.316406 13.007812 6.480469 12.84375 6.75 C 12.785156 7.039062 12.785156 7.039062 12.785156 7.347656 C 12.785156 7.460938 12.78125 7.574219 12.777344 7.691406 C 12.777344 7.808594 12.773438 7.925781 12.773438 8.042969 C 12.769531 8.222656 12.769531 8.222656 12.765625 8.40625 C 12.757812 8.695312 12.753906 8.988281 12.75 9.28125 C 12.589844 9.285156 12.589844 9.285156 12.425781 9.289062 C 10.480469 9.351562 8.769531 9.929688 7.390625 11.367188 C 6.441406 12.480469 6.003906 13.734375 5.894531 15.183594 C 5.886719 15.28125 5.878906 15.382812 5.871094 15.484375 C 5.851562 15.730469 5.832031 15.972656 5.8125 16.21875 C 5.574219 16.25 5.332031 16.28125 5.089844 16.3125 C 5.023438 16.320312 4.957031 16.332031 4.886719 16.339844 C 4.820312 16.347656 4.753906 16.355469 4.6875 16.363281 C 4.625 16.375 4.566406 16.382812 4.503906 16.390625 C 4.285156 16.410156 4.0625 16.40625 3.84375 16.40625 C 3.84375 12.507812 3.84375 8.609375 3.84375 4.59375 Z M 3.84375 4.59375 "/>
<path style=" stroke:none;fill-rule:nonzero;fill:rgb(95.686275%,81.960785%,42.352942%);fill-opacity:1;" d="M 17.8125 0.75 C 18.058594 0.75 18.308594 0.75 18.5625 0.75 C 18.578125 0.816406 18.597656 0.882812 18.613281 0.953125 C 18.636719 1.039062 18.660156 1.125 18.683594 1.214844 C 18.707031 1.296875 18.730469 1.382812 18.753906 1.472656 C 18.785156 1.542969 18.8125 1.613281 18.84375 1.6875 C 19.320312 1.847656 19.851562 1.832031 20.339844 1.714844 C 20.402344 1.707031 20.464844 1.699219 20.53125 1.6875 C 20.699219 1.824219 20.699219 1.824219 20.8125 1.96875 C 20.78125 2.046875 20.75 2.128906 20.71875 2.207031 C 20.59375 2.644531 20.597656 3.007812 20.667969 3.449219 C 20.847656 3.707031 20.945312 3.710938 21.246094 3.777344 C 21.449219 3.8125 21.449219 3.8125 21.65625 3.84375 C 21.65625 4.121094 21.65625 4.402344 21.65625 4.6875 C 21.554688 4.710938 21.457031 4.734375 21.351562 4.757812 C 20.988281 4.878906 20.832031 4.933594 20.625 5.25 C 20.578125 5.742188 20.625 6.097656 20.8125 6.5625 C 20.699219 6.707031 20.699219 6.707031 20.53125 6.84375 C 20.28125 6.820312 20.101562 6.769531 19.875 6.65625 C 19.570312 6.628906 19.351562 6.644531 19.058594 6.746094 C 18.738281 7.03125 18.667969 7.375 18.5625 7.78125 C 18.316406 7.78125 18.066406 7.78125 17.8125 7.78125 C 17.796875 7.722656 17.78125 7.664062 17.765625 7.605469 C 17.632812 7.121094 17.632812 7.121094 17.316406 6.746094 C 17.019531 6.640625 16.808594 6.625 16.5 6.65625 C 16.402344 6.707031 16.402344 6.707031 16.300781 6.753906 C 16.125 6.84375 16.125 6.84375 15.925781 6.832031 C 15.75 6.75 15.75 6.75 15.621094 6.582031 C 15.542969 6.308594 15.625 6.25 15.75 6 C 15.8125 5.445312 15.8125 5.445312 15.550781 4.972656 C 15.257812 4.765625 15.070312 4.710938 14.71875 4.6875 C 14.71875 4.410156 14.71875 4.128906 14.71875 3.84375 C 14.777344 3.828125 14.835938 3.8125 14.898438 3.796875 C 14.972656 3.773438 15.050781 3.75 15.128906 3.726562 C 15.207031 3.703125 15.28125 3.683594 15.359375 3.660156 C 15.574219 3.578125 15.574219 3.578125 15.679688 3.386719 C 15.824219 2.96875 15.792969 2.566406 15.65625 2.15625 C 15.625 2.09375 15.59375 2.03125 15.5625 1.96875 C 15.675781 1.824219 15.675781 1.824219 15.84375 1.6875 C 16.035156 1.714844 16.035156 1.714844 16.3125 1.78125 C 16.925781 1.84375 16.925781 1.84375 17.484375 1.636719 C 17.660156 1.351562 17.738281 1.074219 17.8125 0.75 Z M 17.34375 3.46875 C 17.128906 3.785156 17.0625 3.972656 17.0625 4.359375 C 17.179688 4.769531 17.328125 4.945312 17.625 5.25 C 17.925781 5.398438 18.234375 5.378906 18.5625 5.34375 C 18.886719 5.214844 19.007812 5.097656 19.207031 4.808594 C 19.335938 4.425781 19.351562 4.136719 19.21875 3.75 C 19 3.472656 19 3.472656 18.75 3.28125 C 18.71875 3.25 18.6875 3.21875 18.65625 3.1875 C 18.160156 3.132812 17.730469 3.125 17.34375 3.46875 Z M 17.34375 3.46875 "/>
<path style=" stroke:none;fill-rule:nonzero;fill:rgb(78.823531%,80.784315%,83.92157%);fill-opacity:1;" d="M 18 17.0625 C 19.089844 17.015625 19.945312 17.027344 20.839844 17.730469 C 21.269531 18.132812 21.605469 18.644531 21.683594 19.238281 C 21.683594 19.417969 21.683594 19.417969 21.65625 19.6875 C 21.710938 19.695312 21.765625 19.703125 21.820312 19.710938 C 22.367188 19.808594 22.675781 19.941406 23.0625 20.34375 C 23.292969 20.703125 23.269531 21.039062 23.214844 21.449219 C 23.105469 21.84375 22.867188 22.101562 22.523438 22.328125 C 22.242188 22.433594 22.003906 22.425781 21.703125 22.425781 C 21.527344 22.425781 21.527344 22.425781 21.347656 22.421875 C 21.164062 22.421875 21.164062 22.421875 20.976562 22.417969 C 20.851562 22.417969 20.730469 22.417969 20.601562 22.414062 C 20.296875 22.414062 19.992188 22.410156 19.6875 22.40625 C 19.683594 22.324219 19.679688 22.242188 19.675781 22.15625 C 19.664062 21.992188 19.664062 21.992188 19.652344 21.824219 C 19.648438 21.714844 19.640625 21.609375 19.636719 21.496094 C 19.5625 20.9375 19.292969 20.597656 18.894531 20.222656 C 18.660156 20.050781 18.660156 20.050781 18.371094 19.957031 C 18 19.722656 17.9375 19.472656 17.800781 19.066406 C 17.722656 18.824219 17.722656 18.824219 17.53125 18.5625 C 17.554688 18.003906 17.757812 17.554688 18 17.0625 Z M 18 17.0625 "/>
<path style=" stroke:none;fill-rule:nonzero;fill:rgb(97.647059%,49.803922%,41.960785%);fill-opacity:1;" d="M 13.5 6.9375 C 14.855469 6.847656 14.855469 6.847656 15.265625 7.105469 C 15.445312 7.289062 15.605469 7.472656 15.75 7.6875 C 15.828125 7.660156 15.910156 7.628906 15.988281 7.597656 C 16.316406 7.5 16.628906 7.441406 16.96875 7.40625 C 17.0625 7.5 17.0625 7.5 17.070312 7.734375 C 17.070312 8 17.066406 8.265625 17.0625 8.53125 C 17.558594 8.53125 18.050781 8.53125 18.5625 8.53125 C 18.5625 10.324219 18.5625 12.121094 18.5625 13.96875 C 18.375 13.96875 18.191406 13.96875 18 13.96875 C 17.96875 13.886719 17.96875 13.886719 17.9375 13.800781 C 17.289062 12.105469 16.335938 10.726562 14.644531 9.949219 C 14.480469 9.882812 14.320312 9.816406 14.15625 9.75 C 13.941406 9.65625 13.722656 9.5625 13.5 9.46875 C 13.5 8.632812 13.5 7.796875 13.5 6.9375 Z M 13.5 6.9375 "/>
<path style=" stroke:none;fill-rule:nonzero;fill:rgb(3.529412%,2.352941%,1.960784%);fill-opacity:1;" d="M 5.691406 5.386719 C 5.753906 5.386719 5.816406 5.386719 5.878906 5.382812 C 6.085938 5.382812 6.292969 5.382812 6.496094 5.382812 C 6.640625 5.382812 6.785156 5.382812 6.929688 5.382812 C 7.226562 5.382812 7.527344 5.382812 7.828125 5.382812 C 8.214844 5.382812 8.597656 5.382812 8.980469 5.378906 C 9.277344 5.378906 9.574219 5.378906 9.871094 5.378906 C 10.011719 5.378906 10.152344 5.378906 10.296875 5.375 C 10.492188 5.375 10.691406 5.375 10.890625 5.378906 C 11.058594 5.378906 11.058594 5.378906 11.230469 5.378906 C 11.617188 5.453125 11.757812 5.601562 12 5.90625 C 12.054688 6.203125 12.054688 6.203125 12.046875 6.515625 C 12.046875 6.621094 12.042969 6.722656 12.042969 6.828125 C 11.996094 7.152344 11.914062 7.332031 11.71875 7.59375 C 11.386719 7.816406 11.242188 7.804688 10.84375 7.808594 C 10.660156 7.808594 10.660156 7.808594 10.472656 7.808594 C 10.339844 7.808594 10.207031 7.808594 10.074219 7.808594 C 9.933594 7.808594 9.796875 7.808594 9.660156 7.8125 C 9.375 7.8125 9.085938 7.8125 8.796875 7.8125 C 8.429688 7.808594 8.0625 7.8125 7.695312 7.8125 C 7.410156 7.816406 7.128906 7.816406 6.84375 7.816406 C 6.707031 7.816406 6.574219 7.816406 6.4375 7.816406 C 6.246094 7.816406 6.058594 7.816406 5.867188 7.816406 C 5.757812 7.816406 5.652344 7.816406 5.539062 7.816406 C 5.21875 7.777344 5.039062 7.691406 4.78125 7.5 C 4.636719 7.207031 4.660156 6.894531 4.660156 6.574219 C 4.65625 6.507812 4.652344 6.4375 4.648438 6.367188 C 4.644531 6.058594 4.652344 5.859375 4.839844 5.605469 C 5.136719 5.382812 5.320312 5.390625 5.691406 5.386719 Z M 5.691406 5.386719 "/>
<path style=" stroke:none;fill-rule:nonzero;fill:rgb(78.823531%,80.784315%,83.92157%);fill-opacity:1;" d="M 5.195312 17.046875 C 5.3125 17.046875 5.3125 17.046875 5.433594 17.046875 C 5.621094 17.050781 5.808594 17.058594 6 17.0625 C 6.085938 17.292969 6.117188 17.464844 6.035156 17.699219 C 5.941406 17.890625 5.839844 18.078125 5.734375 18.265625 C 5.523438 18.652344 5.339844 19.003906 5.25 19.4375 C 5.15625 19.78125 5.15625 19.78125 4.972656 19.933594 C 4.902344 19.960938 4.832031 19.992188 4.757812 20.023438 C 4.234375 20.273438 3.894531 20.601562 3.644531 21.125 C 3.554688 21.398438 3.523438 21.636719 3.503906 21.921875 C 3.496094 22.011719 3.488281 22.101562 3.484375 22.199219 C 3.476562 22.265625 3.472656 22.335938 3.46875 22.40625 C 3.171875 22.421875 2.871094 22.433594 2.570312 22.441406 C 2.488281 22.445312 2.40625 22.449219 2.316406 22.457031 C 1.855469 22.464844 1.574219 22.4375 1.210938 22.136719 C 0.867188 21.800781 0.765625 21.53125 0.714844 21.054688 C 0.765625 20.554688 0.992188 20.292969 1.335938 19.941406 C 1.679688 19.726562 1.941406 19.714844 2.34375 19.6875 C 2.335938 19.597656 2.324219 19.507812 2.3125 19.417969 C 2.320312 18.820312 2.617188 18.3125 3.007812 17.878906 C 3.703125 17.230469 4.261719 17.015625 5.195312 17.046875 Z M 5.195312 17.046875 "/>
<path style=" stroke:none;fill-rule:nonzero;fill:rgb(69.803923%,85.882354%,49.411765%);fill-opacity:1;" d="M 3.84375 2.34375 C 7.496094 2.34375 11.144531 2.34375 14.90625 2.34375 C 15.09375 2.71875 15.09375 2.71875 15 3.09375 C 14.660156 3.09375 14.320312 3.09375 13.96875 3.09375 C 13.96875 3.339844 13.96875 3.589844 13.96875 3.84375 C 12.175781 3.84375 10.378906 3.84375 8.53125 3.84375 C 8.53125 3.597656 8.53125 3.347656 8.53125 3.09375 C 8.253906 3.09375 7.972656 3.09375 7.6875 3.09375 C 7.6875 3.339844 7.6875 3.589844 7.6875 3.84375 C 7.441406 3.84375 7.191406 3.84375 6.9375 3.84375 C 6.9375 3.597656 6.9375 3.347656 6.9375 3.09375 C 6.691406 3.09375 6.441406 3.09375 6.1875 3.09375 C 6.1875 3.339844 6.1875 3.589844 6.1875 3.84375 C 5.941406 3.84375 5.691406 3.84375 5.4375 3.84375 C 5.4375 3.597656 5.4375 3.347656 5.4375 3.09375 C 5.160156 3.09375 4.878906 3.09375 4.59375 3.09375 C 4.59375 3.339844 4.59375 3.589844 4.59375 3.84375 C 4.347656 3.84375 4.097656 3.84375 3.84375 3.84375 C 3.84375 3.347656 3.84375 2.855469 3.84375 2.34375 Z M 3.84375 2.34375 "/>
<path style=" stroke:none;fill-rule:nonzero;fill:rgb(40.392157%,82.352942%,94.117647%);fill-opacity:1;" d="M 9.84375 13.96875 C 11.265625 13.96875 12.691406 13.96875 14.15625 13.96875 C 14.367188 14.707031 14.367188 14.707031 14.367188 15.03125 C 14.367188 15.136719 14.367188 15.136719 14.367188 15.246094 C 14.367188 15.316406 14.367188 15.390625 14.367188 15.464844 C 14.367188 15.570312 14.367188 15.570312 14.367188 15.679688 C 14.367188 16.167969 14.292969 16.59375 14.15625 17.0625 C 13.738281 17.097656 13.738281 17.097656 13.515625 16.9375 C 13.464844 16.882812 13.410156 16.828125 13.355469 16.769531 C 12.363281 15.851562 11.0625 15.554688 9.75 15.46875 C 9.746094 15.273438 9.746094 15.074219 9.746094 14.878906 C 9.742188 14.765625 9.742188 14.65625 9.742188 14.542969 C 9.75 14.25 9.75 14.25 9.84375 13.96875 Z M 9.84375 13.96875 "/>
<path style=" stroke:none;fill-rule:nonzero;fill:rgb(88.235295%,76.47059%,66.274512%);fill-opacity:1;" d="M 19.40625 7.40625 C 20.035156 7.472656 20.035156 7.472656 20.15625 7.59375 C 20.164062 7.867188 20.167969 8.140625 20.167969 8.414062 C 20.167969 8.5 20.167969 8.585938 20.167969 8.671875 C 20.167969 8.960938 20.167969 9.246094 20.164062 9.53125 C 20.164062 9.726562 20.164062 9.925781 20.164062 10.125 C 20.164062 10.644531 20.164062 11.164062 20.164062 11.683594 C 20.160156 12.214844 20.160156 12.746094 20.160156 13.277344 C 20.160156 14.320312 20.15625 15.363281 20.15625 16.40625 C 20.097656 16.398438 20.042969 16.394531 19.984375 16.386719 C 19.871094 16.375 19.871094 16.375 19.753906 16.359375 C 19.644531 16.347656 19.644531 16.347656 19.527344 16.335938 C 19.253906 16.304688 18.976562 16.28125 18.699219 16.261719 C 18.527344 16.246094 18.359375 16.234375 18.1875 16.21875 C 18.1875 15.722656 18.1875 15.230469 18.1875 14.71875 C 18.390625 14.679688 18.390625 14.679688 18.597656 14.644531 C 18.824219 14.605469 18.824219 14.605469 19.03125 14.53125 C 19.261719 14.1875 19.242188 14.011719 19.246094 13.601562 C 19.246094 13.535156 19.25 13.46875 19.25 13.402344 C 19.25 13.183594 19.253906 12.964844 19.253906 12.75 C 19.257812 12.597656 19.257812 12.449219 19.257812 12.296875 C 19.265625 11.902344 19.265625 11.503906 19.269531 11.109375 C 19.273438 10.472656 19.28125 9.835938 19.289062 9.199219 C 19.289062 8.976562 19.289062 8.753906 19.292969 8.53125 C 19.292969 8.398438 19.292969 8.261719 19.296875 8.125 C 19.296875 7.945312 19.296875 7.945312 19.300781 7.765625 C 19.3125 7.5 19.3125 7.5 19.40625 7.40625 Z M 19.40625 7.40625 "/>
<path style=" stroke:none;fill-rule:nonzero;fill:rgb(1.960784%,1.960784%,1.960784%);fill-opacity:1;" d="M 7.765625 19.351562 C 7.835938 19.351562 7.910156 19.351562 7.984375 19.351562 C 8.519531 19.355469 8.84375 19.472656 9.28125 19.78125 C 9.617188 20.183594 9.714844 20.558594 9.6875 21.082031 C 9.597656 21.679688 9.269531 21.972656 8.8125 22.3125 C 8.507812 22.464844 8.175781 22.425781 7.839844 22.429688 C 7.765625 22.429688 7.695312 22.433594 7.621094 22.4375 C 7.296875 22.4375 7.085938 22.4375 6.800781 22.28125 C 6.453125 21.902344 6.539062 21.355469 6.535156 20.871094 C 6.53125 20.78125 6.527344 20.695312 6.523438 20.601562 C 6.523438 20.210938 6.53125 19.9375 6.699219 19.582031 C 7.046875 19.324219 7.339844 19.339844 7.765625 19.351562 Z M 7.765625 19.351562 "/>
<path style=" stroke:none;fill-rule:nonzero;fill:rgb(1.568628%,1.568628%,0.784314%);fill-opacity:1;" d="M 18.972656 2.429688 C 19.464844 2.71875 19.808594 3.097656 20.089844 3.589844 C 20.246094 4.195312 20.214844 4.71875 19.90625 5.261719 C 19.597656 5.691406 19.175781 6.0625 18.65625 6.1875 C 17.941406 6.261719 17.445312 6.113281 16.851562 5.691406 C 16.40625 5.253906 16.269531 4.847656 16.261719 4.230469 C 16.273438 3.695312 16.339844 3.359375 16.703125 2.964844 C 16.761719 2.914062 16.816406 2.863281 16.875 2.8125 C 16.929688 2.761719 16.984375 2.714844 17.039062 2.664062 C 17.601562 2.238281 18.316406 2.175781 18.972656 2.429688 Z M 17.34375 3.46875 C 17.128906 3.785156 17.0625 3.972656 17.0625 4.359375 C 17.179688 4.769531 17.328125 4.945312 17.625 5.25 C 17.925781 5.398438 18.238281 5.378906 18.5625 5.34375 C 18.886719 5.214844 19.007812 5.097656 19.207031 4.808594 C 19.339844 4.425781 19.351562 4.136719 19.21875 3.75 C 18.996094 3.472656 18.996094 3.472656 18.75 3.28125 C 18.71875 3.25 18.6875 3.21875 18.65625 3.1875 C 18.160156 3.132812 17.730469 3.125 17.34375 3.46875 Z M 17.34375 3.46875 "/>
<path style=" stroke:none;fill-rule:nonzero;fill:rgb(40.392157%,82.745099%,94.117647%);fill-opacity:1;" d="M 15 13.96875 C 15.742188 13.96875 16.484375 13.96875 17.25 13.96875 C 17.546875 15.3125 17.5 16.445312 16.96875 17.71875 C 16.539062 17.628906 16.148438 17.4375 15.746094 17.265625 C 15.445312 17.136719 15.445312 17.136719 15 17.0625 C 15 16.042969 15 15.019531 15 13.96875 Z M 15 13.96875 "/>
<path style=" stroke:none;fill-rule:nonzero;fill:rgb(4.313726%,4.313726%,4.313726%);fill-opacity:1;" d="M 12.75 19.3125 C 13.027344 19.3125 13.308594 19.3125 13.59375 19.3125 C 13.601562 19.710938 13.605469 20.105469 13.613281 20.503906 C 13.613281 20.613281 13.617188 20.726562 13.617188 20.84375 C 13.617188 20.953125 13.621094 21.058594 13.621094 21.171875 C 13.621094 21.269531 13.625 21.371094 13.625 21.472656 C 13.578125 21.878906 13.410156 22.121094 13.125 22.40625 C 12.9375 22.441406 12.9375 22.441406 12.714844 22.449219 C 12.605469 22.453125 12.605469 22.453125 12.496094 22.457031 C 12.164062 22.378906 12.085938 22.222656 11.90625 21.9375 C 11.789062 21.652344 11.695312 21.359375 11.601562 21.066406 C 11.515625 20.796875 11.433594 20.527344 11.34375 20.25 C 11.3125 20.960938 11.28125 21.671875 11.25 22.40625 C 11.003906 22.40625 10.753906 22.40625 10.5 22.40625 C 10.488281 21.976562 10.480469 21.546875 10.476562 21.117188 C 10.472656 20.996094 10.46875 20.875 10.46875 20.746094 C 10.464844 20.628906 10.464844 20.511719 10.464844 20.390625 C 10.460938 20.285156 10.460938 20.175781 10.457031 20.0625 C 10.507812 19.722656 10.605469 19.617188 10.875 19.40625 C 11.082031 19.355469 11.082031 19.355469 11.296875 19.359375 C 11.367188 19.359375 11.4375 19.359375 11.511719 19.355469 C 11.8125 19.429688 11.90625 19.53125 12.09375 19.78125 C 12.214844 20.0625 12.308594 20.355469 12.398438 20.648438 C 12.484375 20.917969 12.566406 21.191406 12.65625 21.46875 C 12.6875 20.757812 12.71875 20.046875 12.75 19.3125 Z M 12.75 19.3125 "/>
<path style=" stroke:none;fill-rule:nonzero;fill:rgb(40.392157%,82.352942%,94.117647%);fill-opacity:1;" d="M 11.90625 10.3125 C 12.3125 10.457031 12.53125 10.769531 12.785156 11.097656 C 12.832031 11.15625 12.875 11.214844 12.921875 11.273438 C 13.875 12.527344 13.875 12.527344 13.875 13.125 C 12.636719 13.125 11.398438 13.125 10.125 13.125 C 10.335938 12.496094 10.445312 12.167969 10.804688 11.667969 C 10.839844 11.613281 10.878906 11.5625 10.917969 11.507812 C 11.222656 11.085938 11.550781 10.691406 11.90625 10.3125 Z M 11.90625 10.3125 "/>
<path style=" stroke:none;fill-rule:nonzero;fill:rgb(3.921569%,3.921569%,3.921569%);fill-opacity:1;" d="M 15.386719 19.304688 C 15.464844 19.304688 15.539062 19.304688 15.617188 19.304688 C 15.734375 19.304688 15.734375 19.304688 15.855469 19.308594 C 15.976562 19.308594 15.976562 19.308594 16.097656 19.308594 C 16.292969 19.308594 16.492188 19.3125 16.6875 19.3125 C 16.6875 19.589844 16.6875 19.871094 16.6875 20.15625 C 15.945312 20.203125 15.945312 20.203125 15.1875 20.25 C 15.617188 20.488281 15.617188 20.488281 16.042969 20.726562 C 16.488281 20.980469 16.488281 20.980469 16.59375 21.1875 C 16.660156 21.84375 16.660156 21.84375 16.414062 22.195312 C 16.007812 22.492188 15.695312 22.457031 15.203125 22.433594 C 15.121094 22.433594 15.039062 22.433594 14.953125 22.429688 C 14.75 22.421875 14.546875 22.414062 14.34375 22.40625 C 14.34375 22.160156 14.34375 21.910156 14.34375 21.65625 C 14.839844 21.65625 15.335938 21.65625 15.84375 21.65625 C 15.84375 21.59375 15.84375 21.53125 15.84375 21.46875 C 15.765625 21.449219 15.6875 21.425781 15.609375 21.402344 C 15.101562 21.214844 14.648438 20.988281 14.34375 20.53125 C 14.304688 20.214844 14.304688 20.214844 14.34375 19.875 C 14.667969 19.480469 14.882812 19.300781 15.386719 19.304688 Z M 15.386719 19.304688 "/>
<path style=" stroke:none;fill-rule:nonzero;fill:rgb(40.000001%,81.960785%,93.333334%);fill-opacity:1;" d="M 6.75 13.96875 C 7.492188 13.96875 8.234375 13.96875 9 13.96875 C 8.96875 14.527344 8.9375 15.082031 8.90625 15.65625 C 8.738281 15.722656 8.570312 15.789062 8.394531 15.855469 C 7.921875 16.050781 7.519531 16.277344 7.109375 16.582031 C 6.9375 16.6875 6.9375 16.6875 6.65625 16.6875 C 6.480469 15.75 6.542969 14.902344 6.75 13.96875 Z M 6.75 13.96875 "/>
<path style=" stroke:none;fill-rule:nonzero;fill:rgb(40.000001%,81.960785%,93.725491%);fill-opacity:1;" d="M 10.96875 10.21875 C 10.9375 10.257812 10.90625 10.296875 10.871094 10.335938 C 10.199219 11.191406 9.722656 12.136719 9.28125 13.125 C 8.570312 13.125 7.859375 13.125 7.125 13.125 C 7.8125 11.746094 8.824219 10.878906 10.242188 10.292969 C 10.5 10.21875 10.703125 10.203125 10.96875 10.21875 Z M 10.96875 10.21875 "/>
<path style=" stroke:none;fill-rule:nonzero;fill:rgb(40.392157%,82.352942%,93.725491%);fill-opacity:1;" d="M 13.03125 10.21875 C 14.414062 10.3125 15.4375 11.15625 16.332031 12.144531 C 16.550781 12.445312 16.707031 12.789062 16.875 13.125 C 16.164062 13.125 15.453125 13.125 14.71875 13.125 C 14.550781 12.78125 14.550781 12.78125 14.378906 12.425781 C 14.09375 11.847656 13.78125 11.308594 13.40625 10.78125 C 13.332031 10.671875 13.257812 10.558594 13.183594 10.449219 C 13.109375 10.335938 13.109375 10.335938 13.03125 10.21875 Z M 13.03125 10.21875 "/>
<path style=" stroke:none;fill-rule:nonzero;fill:rgb(98.431373%,50.196081%,42.352942%);fill-opacity:1;" d="M 5.4375 6.1875 C 7.355469 6.1875 9.273438 6.1875 11.25 6.1875 C 11.25 6.433594 11.25 6.683594 11.25 6.9375 C 9.332031 6.9375 7.414062 6.9375 5.4375 6.9375 C 5.4375 6.691406 5.4375 6.441406 5.4375 6.1875 Z M 5.4375 6.1875 "/>
<path style=" stroke:none;fill-rule:nonzero;fill:rgb(0%,0%,0%);fill-opacity:1;" d="M 4.6875 8.53125 C 5.957031 8.53125 7.222656 8.53125 8.53125 8.53125 C 8.53125 8.777344 8.53125 9.027344 8.53125 9.28125 C 7.261719 9.28125 5.996094 9.28125 4.6875 9.28125 C 4.6875 9.035156 4.6875 8.785156 4.6875 8.53125 Z M 4.6875 8.53125 "/>
<path style=" stroke:none;fill-rule:nonzero;fill:rgb(85.882354%,87.058824%,88.627452%);fill-opacity:1;" d="M 7.3125 20.15625 C 8.351562 20.097656 8.351562 20.097656 8.742188 20.355469 C 8.9375 20.675781 8.984375 20.820312 8.90625 21.1875 C 8.742188 21.457031 8.742188 21.457031 8.4375 21.65625 C 8.054688 21.695312 7.699219 21.679688 7.3125 21.65625 C 7.3125 21.160156 7.3125 20.667969 7.3125 20.15625 Z M 7.3125 20.15625 "/>
<path style=" stroke:none;fill-rule:nonzero;fill:rgb(11.764706%,9.803922%,8.627451%);fill-opacity:1;" d="M 4.59375 10.03125 C 5.398438 10.03125 6.203125 10.03125 7.03125 10.03125 C 7.03125 10.308594 7.03125 10.589844 7.03125 10.875 C 6.226562 10.875 5.421875 10.875 4.59375 10.875 C 4.59375 10.597656 4.59375 10.316406 4.59375 10.03125 Z M 4.59375 10.03125 "/>
<path style=" stroke:none;fill-rule:nonzero;fill:rgb(0%,0%,0%);fill-opacity:1;" d="M 4.6875 11.625 C 5.183594 11.625 5.675781 11.625 6.1875 11.625 C 6.1875 11.871094 6.1875 12.121094 6.1875 12.375 C 5.691406 12.375 5.199219 12.375 4.6875 12.375 C 4.6875 12.128906 4.6875 11.878906 4.6875 11.625 Z M 4.6875 11.625 "/>
</g>
</svg>
