<?xml version="1.0" encoding="UTF-8"?>
<svg xmlns="http://www.w3.org/2000/svg" xmlns:xlink="http://www.w3.org/1999/xlink" width="24" height="24" viewBox="0 0 24 24" version="1.1">
<g id="surface1">
<path style=" stroke:none;fill-rule:nonzero;fill:rgb(1.568628%,2.352941%,2.352941%);fill-opacity:1;" d="M 22.273438 0.859375 C 22.972656 1.390625 23.550781 2.125 23.71875 3 C 23.871094 4.78125 23.121094 5.96875 22.03125 7.3125 C 22.105469 7.335938 22.183594 7.359375 22.261719 7.382812 C 23.273438 7.699219 23.273438 7.699219 23.625 8.0625 C 23.777344 8.367188 23.761719 8.570312 23.71875 8.90625 C 23.171875 9.667969 22.144531 9.761719 21.285156 9.90625 C 21.191406 9.921875 21.191406 9.921875 21.09375 9.9375 C 21.15625 10 21.21875 10.0625 21.28125 10.125 C 21.671875 11.65625 21.632812 13.921875 20.90625 15.375 C 20.664062 15.597656 20.585938 15.65625 20.25 15.65625 C 20.285156 15.726562 20.316406 15.796875 20.347656 15.871094 C 20.824219 16.9375 20.933594 17.730469 20.53125 18.84375 C 20.191406 19.589844 19.761719 20.25 19.265625 20.902344 C 19.117188 21.066406 19.117188 21.066406 19.125 21.1875 C 19.1875 21.203125 19.246094 21.21875 19.308594 21.234375 C 19.804688 21.371094 20.234375 21.5 20.625 21.84375 C 20.78125 22.152344 20.832031 22.3125 20.757812 22.652344 C 20.449219 23.164062 19.96875 23.386719 19.40625 23.53125 C 17.863281 23.824219 15.886719 23.980469 14.4375 23.25 C 14.15625 23.003906 14.15625 23.003906 13.96875 22.78125 C 13.9375 22.75 13.90625 22.71875 13.875 22.6875 C 13.824219 22.328125 13.859375 22.152344 14.039062 21.832031 C 14.402344 21.429688 14.960938 21.324219 15.46875 21.1875 C 15.46875 20.894531 15.277344 20.75 15.09375 20.53125 C 15.078125 20.601562 15.0625 20.675781 15.046875 20.746094 C 14.875 21.054688 14.710938 21.121094 14.382812 21.222656 C 11.996094 21.835938 9.417969 21.457031 7.285156 20.226562 C 5.414062 19.019531 3.945312 17.382812 3.207031 15.261719 C 3.171875 14.976562 3.332031 14.773438 3.46875 14.53125 C 3.359375 14.535156 3.253906 14.535156 3.140625 14.539062 C 2.242188 14.539062 1.148438 14.410156 0.46875 13.78125 C 0.230469 13.425781 0.21875 13.265625 0.28125 12.84375 C 0.597656 12.441406 1 12.203125 1.5 12.09375 C 1.65625 12.089844 1.8125 12.089844 1.96875 12.09375 C 1.933594 12.042969 1.902344 11.996094 1.867188 11.945312 C 1.769531 11.796875 1.671875 11.648438 1.574219 11.503906 C 1.464844 11.335938 1.351562 11.167969 1.238281 11.003906 C 0.46875 9.839844 0.0625 8.816406 0.335938 7.402344 C 0.597656 6.550781 1.234375 5.820312 1.980469 5.339844 C 2.789062 4.921875 3.726562 4.808594 4.605469 5.050781 C 4.78125 5.113281 4.953125 5.179688 5.125 5.253906 C 5.324219 5.335938 5.511719 5.390625 5.71875 5.4375 C 5.742188 5.367188 5.765625 5.296875 5.785156 5.226562 C 6.246094 4.242188 7.734375 3.628906 8.703125 3.257812 C 11.09375 2.394531 13.589844 2.523438 15.9375 3.46875 C 16.019531 3.5 16.097656 3.535156 16.179688 3.566406 C 16.484375 3.699219 16.660156 3.78125 16.800781 4.089844 C 16.835938 4.199219 16.835938 4.199219 16.875 4.3125 C 16.871094 4.238281 16.867188 4.160156 16.863281 4.082031 C 16.824219 2.988281 17.066406 2.128906 17.8125 1.3125 C 18.984375 0.0703125 20.871094 -0.0351562 22.273438 0.859375 Z M 22.273438 0.859375 "/>
<path style=" stroke:none;fill-rule:nonzero;fill:rgb(1.960784%,1.568628%,1.568628%);fill-opacity:1;" d="M 22.273438 0.859375 C 22.972656 1.390625 23.550781 2.125 23.71875 3 C 23.871094 4.78125 23.121094 5.96875 22.03125 7.3125 C 22.144531 7.347656 22.144531 7.347656 22.261719 7.382812 C 23.273438 7.699219 23.273438 7.699219 23.625 8.0625 C 23.777344 8.367188 23.761719 8.570312 23.71875 8.90625 C 23.171875 9.667969 22.144531 9.761719 21.285156 9.90625 C 21.222656 9.917969 21.160156 9.925781 21.09375 9.9375 C 21.15625 10 21.21875 10.0625 21.28125 10.125 C 21.671875 11.65625 21.632812 13.921875 20.90625 15.375 C 20.664062 15.597656 20.585938 15.65625 20.25 15.65625 C 20.285156 15.726562 20.316406 15.796875 20.347656 15.871094 C 20.824219 16.9375 20.933594 17.730469 20.53125 18.84375 C 20.191406 19.589844 19.761719 20.25 19.265625 20.902344 C 19.117188 21.066406 19.117188 21.066406 19.125 21.1875 C 19.1875 21.203125 19.246094 21.21875 19.308594 21.234375 C 19.804688 21.371094 20.234375 21.5 20.625 21.84375 C 20.78125 22.152344 20.832031 22.3125 20.757812 22.652344 C 20.449219 23.164062 19.96875 23.386719 19.40625 23.53125 C 17.863281 23.824219 15.886719 23.980469 14.4375 23.25 C 14.15625 23.003906 14.15625 23.003906 13.96875 22.78125 C 13.9375 22.75 13.90625 22.71875 13.875 22.6875 C 13.824219 22.328125 13.859375 22.152344 14.039062 21.832031 C 14.402344 21.429688 14.960938 21.324219 15.46875 21.1875 C 15.46875 20.941406 15.390625 20.894531 15.234375 20.707031 C 14.941406 20.324219 14.722656 19.921875 14.507812 19.496094 C 14.476562 19.429688 14.445312 19.367188 14.410156 19.304688 C 13.957031 18.382812 13.753906 17.425781 14.085938 16.429688 C 14.53125 15.410156 15.207031 14.777344 16.21875 14.34375 C 16.488281 14.253906 16.660156 14.242188 16.9375 14.246094 C 17.015625 14.246094 17.089844 14.246094 17.167969 14.246094 C 17.253906 14.246094 17.253906 14.246094 17.34375 14.25 C 17.242188 13.742188 17.242188 13.742188 16.875 13.40625 C 16.5625 13.382812 16.253906 13.371094 15.945312 13.371094 C 15.382812 13.351562 15.050781 13.167969 14.640625 12.769531 C 14.597656 12.71875 14.554688 12.664062 14.507812 12.609375 C 14.464844 12.554688 14.417969 12.503906 14.371094 12.449219 C 14.078125 12.046875 14.027344 11.78125 14.09375 11.296875 C 14.191406 10.941406 14.386719 10.667969 14.585938 10.363281 C 14.726562 10.109375 14.773438 9.914062 14.8125 9.628906 C 14.863281 9.304688 14.917969 9.121094 15.15625 8.894531 C 15.527344 8.683594 15.707031 8.675781 16.125 8.71875 C 16.199219 8.726562 16.277344 8.734375 16.355469 8.742188 C 16.558594 8.761719 16.765625 8.785156 16.96875 8.8125 C 16.96875 8.6875 16.96875 8.566406 16.96875 8.4375 C 16.890625 8.441406 16.8125 8.449219 16.734375 8.453125 C 16.628906 8.457031 16.527344 8.460938 16.421875 8.464844 C 16.324219 8.472656 16.222656 8.476562 16.117188 8.484375 C 15.84375 8.4375 15.84375 8.4375 15.671875 8.222656 C 15.425781 7.648438 15.328125 6.976562 15.535156 6.371094 C 15.863281 5.820312 16.484375 5.570312 17.0625 5.34375 C 17.15625 5.34375 17.25 5.34375 17.34375 5.34375 C 17.292969 5.253906 17.292969 5.253906 17.242188 5.160156 C 16.835938 4.375 16.738281 3.679688 16.941406 2.8125 C 17.214844 1.972656 17.722656 1.242188 18.46875 0.75 C 19.742188 0.125 21.058594 0.0820312 22.273438 0.859375 Z M 22.273438 0.859375 "/>
<path style=" stroke:none;fill-rule:nonzero;fill:rgb(52.941179%,77.254903%,97.647059%);fill-opacity:1;" d="M 16.03125 4.5 C 16.21875 4.503906 16.40625 4.503906 16.59375 4.5 C 16.71875 4.5 16.839844 4.5 16.96875 4.5 C 17.226562 4.757812 17.28125 4.992188 17.34375 5.34375 C 17.269531 5.371094 17.191406 5.402344 17.113281 5.429688 C 16.398438 5.710938 15.992188 5.917969 15.5625 6.5625 C 15.480469 7.214844 15.574219 7.75 15.84375 8.34375 C 16.214844 8.375 16.585938 8.40625 16.96875 8.4375 C 17 8.59375 17.03125 8.746094 17.0625 8.90625 C 16.441406 8.917969 16.441406 8.917969 16.125 8.8125 C 15.773438 8.78125 15.535156 8.78125 15.210938 8.929688 C 14.929688 9.273438 14.886719 9.601562 14.796875 10.027344 C 14.722656 10.304688 14.632812 10.476562 14.472656 10.707031 C 14.210938 11.089844 14.101562 11.4375 14.15625 11.90625 C 14.382812 12.480469 14.824219 12.941406 15.375 13.21875 C 15.6875 13.234375 15.996094 13.246094 16.308594 13.25 C 16.640625 13.265625 16.863281 13.308594 17.15625 13.46875 C 17.34375 13.6875 17.34375 13.6875 17.371094 13.992188 C 17.359375 14.121094 17.359375 14.121094 17.34375 14.25 C 17.273438 14.257812 17.199219 14.269531 17.125 14.277344 C 16.507812 14.367188 15.988281 14.46875 15.46875 14.8125 C 15.40625 14.855469 15.34375 14.894531 15.28125 14.9375 C 14.582031 15.464844 14.144531 16.265625 14.007812 17.121094 C 13.980469 18.039062 14.222656 18.773438 14.691406 19.550781 C 14.949219 19.992188 14.988281 20.40625 15 20.90625 C 13.71875 21.773438 11.597656 21.601562 10.140625 21.328125 C 7.679688 20.800781 5.5625 19.296875 4.15625 17.226562 C 3.800781 16.671875 3.527344 16.078125 3.28125 15.46875 C 3.253906 15.40625 3.226562 15.347656 3.199219 15.28125 C 3.179688 14.964844 3.332031 14.71875 3.46875 14.4375 C 3.585938 14.425781 3.703125 14.414062 3.824219 14.402344 C 5.519531 14.316406 5.519531 14.316406 6.9375 13.5 C 6.984375 13.226562 6.984375 13.226562 6.9375 12.9375 C 6.652344 12.570312 6.3125 12.445312 5.882812 12.304688 C 5.820312 12.285156 5.761719 12.261719 5.699219 12.242188 C 5.550781 12.191406 5.398438 12.140625 5.25 12.09375 C 5.34375 11.90625 5.4375 11.71875 5.53125 11.53125 C 5.875 11.59375 6.125 11.742188 6.421875 11.929688 C 6.511719 11.984375 6.597656 12.039062 6.6875 12.09375 C 7.003906 12.328125 7.230469 12.585938 7.40625 12.9375 C 7.414062 13.109375 7.421875 13.277344 7.429688 13.449219 C 7.449219 14.382812 7.449219 14.382812 7.875 15.1875 C 8.042969 15.339844 8.21875 15.492188 8.390625 15.636719 C 8.921875 16.101562 9.117188 16.480469 9.28125 17.15625 C 9.3125 17.277344 9.34375 17.398438 9.371094 17.523438 C 9.421875 17.71875 9.46875 17.910156 9.515625 18.105469 C 9.746094 19.042969 9.746094 19.042969 10.246094 19.847656 C 10.597656 20.015625 10.785156 19.988281 11.15625 19.875 C 11.6875 19.40625 11.894531 18.640625 11.976562 17.957031 C 12.078125 17.316406 12.441406 16.898438 12.84375 16.40625 C 12.949219 16.269531 13.050781 16.132812 13.152344 15.996094 C 13.199219 15.9375 13.242188 15.878906 13.289062 15.816406 C 13.804688 15.113281 13.875 14.457031 13.78125 13.59375 C 13.613281 13.300781 13.613281 13.300781 13.3125 13.125 C 13.25 13.078125 13.191406 13.035156 13.125 12.984375 C 12.625 12.628906 12.109375 12.390625 11.53125 12.1875 C 11.46875 12.164062 11.410156 12.140625 11.347656 12.113281 C 10.875 11.9375 10.484375 11.886719 9.980469 11.902344 C 8.945312 11.925781 8.945312 11.925781 8.546875 11.585938 C 8.3125 11.222656 8.15625 10.9375 8.15625 10.5 C 8.261719 10.476562 8.363281 10.453125 8.472656 10.429688 C 8.609375 10.398438 8.746094 10.367188 8.882812 10.335938 C 8.953125 10.320312 9.019531 10.308594 9.089844 10.289062 C 9.503906 10.195312 9.765625 10.101562 10.03125 9.75 C 10.070312 9.644531 10.109375 9.539062 10.148438 9.433594 C 10.390625 8.820312 11.054688 8.503906 11.625 8.25 C 11.945312 8.160156 12.269531 8.09375 12.59375 8.027344 C 12.886719 7.960938 13.089844 7.910156 13.304688 7.699219 C 13.503906 7.304688 13.519531 6.953125 13.523438 6.515625 C 13.527344 6.410156 13.527344 6.304688 13.53125 6.195312 C 13.496094 5.871094 13.460938 5.75 13.21875 5.53125 C 12.925781 5.425781 12.925781 5.425781 12.589844 5.355469 C 12.160156 5.246094 11.859375 5.15625 11.53125 4.851562 C 11.113281 4.492188 10.679688 4.539062 10.148438 4.5625 C 9.8125 4.597656 9.511719 4.679688 9.1875 4.78125 C 8.902344 4.808594 8.625 4.832031 8.34375 4.78125 C 8.179688 4.640625 8.179688 4.640625 8.0625 4.5 C 8.253906 4.410156 8.445312 4.320312 8.636719 4.230469 C 8.742188 4.179688 8.851562 4.128906 8.960938 4.078125 C 11.230469 3.082031 13.863281 3.417969 16.03125 4.5 Z M 16.03125 4.5 "/>
<path style=" stroke:none;fill-rule:nonzero;fill:rgb(41.568628%,94.509804%,74.901962%);fill-opacity:1;" d="M 7.300781 5.117188 C 7.59375 5.15625 7.59375 5.15625 7.90625 5.296875 C 8.453125 5.519531 8.9375 5.484375 9.507812 5.34375 C 10.035156 5.21875 10.589844 5.089844 11.082031 5.367188 C 11.21875 5.464844 11.355469 5.566406 11.488281 5.667969 C 11.902344 5.925781 12.371094 6.003906 12.84375 6.09375 C 12.863281 6.542969 12.855469 6.90625 12.65625 7.3125 C 12.367188 7.429688 12.367188 7.429688 12.007812 7.5 C 11.148438 7.691406 10.3125 8.007812 9.75 8.71875 C 9.679688 8.867188 9.609375 9.011719 9.539062 9.15625 C 9.339844 9.535156 9.339844 9.535156 9.085938 9.652344 C 8.871094 9.699219 8.65625 9.726562 8.4375 9.75 C 8 9.855469 8 9.855469 7.601562 10.046875 C 7.433594 10.332031 7.429688 10.566406 7.5 10.875 C 7.65625 11.238281 7.84375 11.574219 8.0625 11.90625 C 8.125 12.007812 8.191406 12.113281 8.257812 12.21875 C 8.652344 12.578125 8.960938 12.523438 9.476562 12.503906 C 10.25 12.507812 10.894531 12.609375 11.613281 12.902344 C 11.726562 12.945312 11.726562 12.945312 11.839844 12.992188 C 12.363281 13.222656 12.851562 13.523438 13.21875 13.96875 C 13.289062 14.84375 12.695312 15.519531 12.179688 16.171875 C 11.632812 16.867188 11.355469 17.46875 11.203125 18.339844 C 11.136719 18.65625 11.015625 18.925781 10.875 19.21875 C 10.78125 19.21875 10.691406 19.21875 10.59375 19.21875 C 10.246094 18.523438 10.085938 17.839844 9.941406 17.078125 C 9.777344 16.292969 9.527344 15.574219 8.84375 15.101562 C 8.769531 15.046875 8.699219 14.996094 8.625 14.945312 C 8.5625 14.902344 8.5 14.859375 8.4375 14.8125 C 8.214844 14.589844 8.222656 14.523438 8.203125 14.21875 C 8.199219 14.140625 8.191406 14.058594 8.183594 13.972656 C 8.171875 13.804688 8.164062 13.632812 8.152344 13.464844 C 8.101562 12.832031 7.972656 12.410156 7.535156 11.925781 C 7.105469 11.578125 6.65625 11.265625 6.1875 10.96875 C 6.242188 10.617188 6.34375 10.347656 6.507812 10.039062 C 6.960938 9.1875 7.113281 8.289062 6.875 7.339844 C 6.605469 6.703125 6.195312 6.117188 5.625 5.71875 C 5.65625 5.625 5.6875 5.535156 5.71875 5.4375 C 5.769531 5.46875 5.824219 5.503906 5.875 5.539062 C 6.15625 5.652344 6.277344 5.628906 6.5625 5.53125 C 6.636719 5.46875 6.714844 5.402344 6.789062 5.339844 C 7.03125 5.15625 7.03125 5.15625 7.300781 5.117188 Z M 7.300781 5.117188 "/>
<path style=" stroke:none;fill-rule:nonzero;fill:rgb(41.568628%,94.901961%,74.901962%);fill-opacity:1;" d="M 15.953125 9.558594 C 16.085938 9.5625 16.21875 9.566406 16.351562 9.570312 C 16.457031 9.574219 16.457031 9.574219 16.566406 9.578125 C 16.71875 9.582031 16.871094 9.585938 17.023438 9.589844 C 17.25 9.597656 17.476562 9.605469 17.703125 9.609375 C 18.074219 9.621094 18.445312 9.632812 18.8125 9.648438 C 18.957031 9.652344 19.101562 9.660156 19.246094 9.664062 C 19.445312 9.671875 19.648438 9.679688 19.851562 9.6875 C 19.964844 9.695312 20.082031 9.699219 20.203125 9.703125 C 20.585938 9.757812 20.84375 9.851562 21.1875 10.03125 C 21.933594 11.488281 21.410156 13.707031 20.996094 15.199219 C 20.878906 15.429688 20.753906 15.527344 20.53125 15.65625 C 19.984375 15.59375 19.726562 15.351562 19.335938 14.980469 C 19.09375 14.789062 18.863281 14.703125 18.574219 14.601562 C 18.308594 14.492188 18.308594 14.492188 18.09375 14.34375 C 17.992188 14.074219 17.964844 13.839844 17.941406 13.554688 C 17.921875 13.285156 17.921875 13.285156 17.6875 13.027344 C 17.21875 12.6875 16.855469 12.640625 16.277344 12.632812 C 15.761719 12.609375 15.367188 12.5625 15.003906 12.167969 C 14.867188 11.933594 14.828125 11.714844 14.851562 11.441406 C 14.933594 11.15625 15.085938 10.941406 15.257812 10.695312 C 15.425781 10.417969 15.476562 10.140625 15.527344 9.824219 C 15.589844 9.527344 15.636719 9.5625 15.953125 9.558594 Z M 15.953125 9.558594 "/>
<path style=" stroke:none;fill-rule:nonzero;fill:rgb(3.921569%,2.352941%,2.745098%);fill-opacity:1;" d="M 4.480469 5.871094 C 5.207031 6.125 5.738281 6.625 6.140625 7.277344 C 6.421875 7.933594 6.394531 8.664062 6.167969 9.332031 C 5.769531 10.1875 5.203125 10.910156 4.59375 11.625 C 4.550781 11.675781 4.511719 11.722656 4.46875 11.773438 C 3.992188 12.332031 3.992188 12.332031 3.75 12.5625 C 3.6875 12.5625 3.625 12.5625 3.5625 12.5625 C 3.304688 12.285156 3.074219 11.984375 2.839844 11.683594 C 2.71875 11.53125 2.597656 11.382812 2.472656 11.230469 C 1.625 10.171875 1.03125 9.175781 1.125 7.78125 C 1.238281 7.210938 1.535156 6.757812 1.96875 6.375 C 2.242188 6.199219 2.519531 6.046875 2.8125 5.90625 C 3.285156 5.667969 3.976562 5.757812 4.480469 5.871094 Z M 4.480469 5.871094 "/>
<path style=" stroke:none;fill-rule:nonzero;fill:rgb(4.313726%,2.745098%,2.745098%);fill-opacity:1;" d="M 18.515625 15.242188 C 19.1875 15.621094 19.570312 16.074219 19.875 16.78125 C 20.039062 17.917969 19.710938 18.808594 19.066406 19.730469 C 18.679688 20.238281 18.261719 20.726562 17.84375 21.210938 C 17.621094 21.464844 17.621094 21.464844 17.4375 21.75 C 17.035156 21.601562 16.796875 21.292969 16.527344 20.976562 C 16.480469 20.917969 16.429688 20.863281 16.378906 20.800781 C 15.890625 20.214844 15.488281 19.589844 15.09375 18.9375 C 15.042969 18.855469 14.988281 18.773438 14.9375 18.6875 C 14.625 18.136719 14.648438 17.492188 14.71875 16.875 C 14.972656 16.113281 15.441406 15.59375 16.125 15.1875 C 16.882812 14.816406 17.765625 14.890625 18.515625 15.242188 Z M 18.515625 15.242188 "/>
<path style=" stroke:none;fill-rule:nonzero;fill:rgb(4.313726%,2.745098%,2.745098%);fill-opacity:1;" d="M 21.65625 1.5 C 22.207031 1.902344 22.65625 2.339844 22.875 3 C 23.050781 4.734375 22.082031 5.914062 21.046875 7.183594 C 20.980469 7.265625 20.980469 7.265625 20.910156 7.347656 C 20.867188 7.402344 20.824219 7.453125 20.78125 7.507812 C 20.671875 7.636719 20.554688 7.757812 20.4375 7.875 C 20.34375 7.875 20.25 7.875 20.15625 7.875 C 19.976562 7.691406 19.976562 7.691406 19.777344 7.433594 C 19.699219 7.339844 19.625 7.246094 19.550781 7.148438 C 19.492188 7.074219 19.492188 7.074219 19.433594 6.996094 C 19.3125 6.84375 19.195312 6.699219 19.070312 6.550781 C 18.285156 5.585938 17.589844 4.601562 17.667969 3.300781 C 17.796875 2.535156 18.222656 2.046875 18.808594 1.5625 C 19.683594 0.949219 20.753906 0.945312 21.65625 1.5 Z M 21.65625 1.5 "/>
<path style=" stroke:none;fill-rule:nonzero;fill:rgb(0.392157%,0.784314%,1.176471%);fill-opacity:1;" d="M 3.375 14.71875 C 3.957031 14.8125 3.957031 14.8125 4.148438 15.046875 C 4.246094 15.234375 4.332031 15.421875 4.410156 15.613281 C 4.476562 15.753906 4.539062 15.890625 4.601562 16.027344 C 4.648438 16.125 4.648438 16.125 4.695312 16.226562 C 5.054688 16.980469 5.609375 17.59375 6.1875 18.1875 C 6.257812 18.257812 6.328125 18.332031 6.398438 18.40625 C 7.90625 19.863281 9.945312 20.546875 12.011719 20.554688 C 12.160156 20.558594 12.160156 20.558594 12.3125 20.558594 C 12.941406 20.5625 13.484375 20.488281 14.085938 20.3125 C 14.367188 20.246094 14.617188 20.234375 14.90625 20.25 C 15 20.34375 15 20.34375 15.035156 20.613281 C 15.019531 20.757812 15.019531 20.757812 15 20.90625 C 13.9375 21.71875 11.996094 21.570312 10.734375 21.425781 C 8.261719 21.074219 6.019531 19.710938 4.507812 17.726562 C 3.964844 16.980469 3.328125 16.023438 3.1875 15.09375 C 3.277344 14.882812 3.277344 14.882812 3.375 14.71875 Z M 3.375 14.71875 "/>
<path style=" stroke:none;fill-rule:nonzero;fill:rgb(93.725491%,36.862746%,40.784314%);fill-opacity:1;" d="M 4.480469 5.871094 C 5.207031 6.125 5.738281 6.625 6.140625 7.277344 C 6.421875 7.933594 6.394531 8.664062 6.167969 9.332031 C 5.769531 10.1875 5.203125 10.910156 4.59375 11.625 C 4.550781 11.675781 4.511719 11.722656 4.46875 11.773438 C 3.992188 12.332031 3.992188 12.332031 3.75 12.5625 C 3.6875 12.5625 3.625 12.5625 3.5625 12.5625 C 3.304688 12.285156 3.074219 11.984375 2.839844 11.683594 C 2.71875 11.53125 2.597656 11.382812 2.472656 11.230469 C 1.625 10.171875 1.03125 9.175781 1.125 7.78125 C 1.238281 7.210938 1.535156 6.757812 1.96875 6.375 C 2.242188 6.199219 2.519531 6.046875 2.8125 5.90625 C 3.285156 5.667969 3.976562 5.757812 4.480469 5.871094 Z M 1.824219 7.136719 C 1.40625 7.71875 1.429688 8.398438 1.5 9.09375 C 1.710938 9.691406 2.214844 10.136719 2.71875 10.5 C 3.292969 10.691406 4.070312 10.710938 4.648438 10.507812 C 5.222656 10.167969 5.6875 9.628906 5.90625 9 C 5.988281 8.308594 5.976562 7.714844 5.589844 7.117188 C 5.136719 6.578125 4.597656 6.25 3.894531 6.15625 C 3.007812 6.101562 2.367188 6.441406 1.824219 7.136719 Z M 1.824219 7.136719 "/>
<path style=" stroke:none;fill-rule:nonzero;fill:rgb(93.725491%,36.470589%,40.784314%);fill-opacity:1;" d="M 21.65625 1.5 C 22.207031 1.902344 22.65625 2.339844 22.875 3 C 23.050781 4.734375 22.082031 5.914062 21.046875 7.183594 C 20.980469 7.265625 20.980469 7.265625 20.910156 7.347656 C 20.867188 7.402344 20.824219 7.453125 20.78125 7.507812 C 20.671875 7.636719 20.554688 7.757812 20.4375 7.875 C 20.34375 7.875 20.25 7.875 20.15625 7.875 C 19.976562 7.691406 19.976562 7.691406 19.777344 7.433594 C 19.699219 7.339844 19.625 7.246094 19.550781 7.148438 C 19.492188 7.074219 19.492188 7.074219 19.433594 6.996094 C 19.3125 6.84375 19.195312 6.699219 19.070312 6.550781 C 18.285156 5.585938 17.589844 4.601562 17.667969 3.300781 C 17.796875 2.535156 18.222656 2.046875 18.808594 1.5625 C 19.683594 0.949219 20.753906 0.945312 21.65625 1.5 Z M 18.515625 2.363281 C 18.078125 2.886719 18.042969 3.347656 18.058594 4.011719 C 18.105469 4.429688 18.234375 4.71875 18.46875 5.0625 C 18.519531 5.144531 18.570312 5.226562 18.621094 5.316406 C 19.089844 5.769531 19.640625 6.027344 20.296875 6.058594 C 20.933594 6.023438 21.484375 5.8125 21.925781 5.347656 C 22.070312 5.164062 22.195312 4.980469 22.3125 4.78125 C 22.347656 4.726562 22.382812 4.667969 22.417969 4.609375 C 22.632812 4.078125 22.585938 3.382812 22.425781 2.839844 C 22.148438 2.285156 21.726562 1.972656 21.1875 1.6875 C 20.164062 1.347656 19.230469 1.589844 18.515625 2.363281 Z M 18.515625 2.363281 "/>
<path style=" stroke:none;fill-rule:nonzero;fill:rgb(94.117647%,36.862746%,41.176471%);fill-opacity:1;" d="M 18.515625 15.242188 C 19.1875 15.621094 19.570312 16.074219 19.875 16.78125 C 20.039062 17.917969 19.710938 18.808594 19.066406 19.730469 C 18.679688 20.238281 18.261719 20.726562 17.84375 21.210938 C 17.621094 21.464844 17.621094 21.464844 17.4375 21.75 C 17.035156 21.601562 16.796875 21.292969 16.527344 20.976562 C 16.480469 20.917969 16.429688 20.863281 16.378906 20.800781 C 15.890625 20.214844 15.488281 19.589844 15.09375 18.9375 C 15.042969 18.855469 14.988281 18.773438 14.9375 18.6875 C 14.625 18.136719 14.648438 17.492188 14.71875 16.875 C 14.972656 16.113281 15.441406 15.59375 16.125 15.1875 C 16.882812 14.816406 17.765625 14.890625 18.515625 15.242188 Z M 15.570312 16.15625 C 15.117188 16.824219 15.039062 17.285156 15.09375 18.09375 C 15.28125 18.75 15.710938 19.304688 16.289062 19.660156 C 16.886719 19.898438 17.628906 19.910156 18.238281 19.699219 C 18.773438 19.386719 19.273438 18.863281 19.5 18.28125 C 19.578125 17.574219 19.625 16.859375 19.171875 16.273438 C 18.617188 15.683594 18.078125 15.367188 17.269531 15.324219 C 16.554688 15.34375 16.023438 15.605469 15.570312 16.15625 Z M 15.570312 16.15625 "/>
<path style=" stroke:none;fill-rule:nonzero;fill:rgb(90.588236%,91.764706%,92.54902%);fill-opacity:1;" d="M 4.125 6.9375 C 4.621094 7.191406 4.976562 7.527344 5.15625 8.0625 C 5.234375 8.558594 5.199219 8.90625 4.902344 9.324219 C 4.621094 9.683594 4.328125 9.8125 3.875 9.882812 C 3.410156 9.898438 3.085938 9.894531 2.714844 9.589844 C 2.335938 9.203125 2.242188 8.882812 2.214844 8.347656 C 2.226562 7.898438 2.3125 7.648438 2.625 7.3125 C 3.109375 6.953125 3.523438 6.828125 4.125 6.9375 Z M 4.125 6.9375 "/>
<path style=" stroke:none;fill-rule:nonzero;fill:rgb(90.196079%,91.37255%,92.156863%);fill-opacity:1;" d="M 20.8125 2.34375 C 21.140625 2.503906 21.140625 2.503906 21.375 2.71875 C 21.449219 2.78125 21.523438 2.84375 21.597656 2.90625 C 21.84375 3.363281 21.847656 3.804688 21.75 4.3125 C 21.527344 4.707031 21.246094 4.96875 20.863281 5.203125 C 20.363281 5.300781 20.023438 5.328125 19.570312 5.089844 C 19.175781 4.761719 18.882812 4.460938 18.820312 3.933594 C 18.804688 3.414062 18.867188 3.125 19.21875 2.71875 C 19.28125 2.644531 19.34375 2.570312 19.40625 2.496094 C 19.859375 2.25 20.308594 2.277344 20.8125 2.34375 Z M 20.8125 2.34375 "/>
<path style=" stroke:none;fill-rule:nonzero;fill:rgb(90.588236%,91.764706%,92.54902%);fill-opacity:1;" d="M 17.8125 16.125 C 18.234375 16.34375 18.578125 16.609375 18.75 17.0625 C 18.820312 17.617188 18.792969 18.09375 18.46875 18.5625 C 18 18.996094 17.628906 19.058594 17.011719 19.050781 C 16.703125 19.023438 16.542969 18.953125 16.3125 18.75 C 15.929688 18.238281 15.753906 17.800781 15.84375 17.15625 C 16.261719 16.351562 16.917969 15.96875 17.8125 16.125 Z M 17.8125 16.125 "/>
<path style=" stroke:none;fill-rule:nonzero;fill:rgb(0%,1.176471%,0.784314%);fill-opacity:1;" d="M 20.625 9.9375 C 20.859375 9.910156 20.859375 9.910156 21.09375 9.9375 C 21.566406 10.410156 21.484375 11.4375 21.496094 12.070312 C 21.496094 13.113281 21.375 14.4375 20.90625 15.375 C 20.726562 15.542969 20.726562 15.542969 20.53125 15.65625 C 20.273438 15.582031 20.273438 15.582031 20.0625 15.46875 C 20.101562 14.9375 20.199219 14.46875 20.347656 13.957031 C 20.648438 12.871094 20.640625 11.65625 20.472656 10.546875 C 20.4375 10.21875 20.4375 10.21875 20.625 9.9375 Z M 20.625 9.9375 "/>
<path style=" stroke:none;fill-rule:nonzero;fill:rgb(0.784314%,85.882354%,58.039218%);fill-opacity:1;" d="M 19.6875 9.75 C 19.964844 9.75 20.246094 9.75 20.53125 9.75 C 20.625 10.121094 20.601562 10.238281 20.53125 10.59375 C 20.5625 10.71875 20.59375 10.84375 20.625 10.96875 C 20.738281 12.28125 20.601562 13.476562 20.207031 14.726562 C 20.136719 14.972656 20.097656 15.21875 20.0625 15.46875 C 19.703125 15.324219 19.480469 15.089844 19.21875 14.8125 C 19.28125 14.8125 19.34375 14.8125 19.40625 14.8125 C 19.472656 14.53125 19.53125 14.25 19.59375 13.96875 C 19.609375 13.894531 19.628906 13.816406 19.644531 13.738281 C 19.78125 13.058594 19.804688 12.40625 19.800781 11.714844 C 19.800781 11.605469 19.800781 11.503906 19.800781 11.394531 C 19.820312 10.882812 19.820312 10.882812 19.6875 10.40625 C 19.683594 10.1875 19.683594 9.96875 19.6875 9.75 Z M 19.6875 9.75 "/>
<path style=" stroke:none;fill-rule:nonzero;fill:rgb(39.215687%,92.156863%,72.549021%);fill-opacity:1;" d="M 17.8125 6 C 18.007812 6.210938 18.007812 6.210938 18.199219 6.492188 C 18.261719 6.582031 18.328125 6.675781 18.394531 6.769531 C 18.527344 6.976562 18.644531 7.179688 18.75 7.40625 C 17.914062 7.71875 17.097656 7.699219 16.21875 7.6875 C 16.183594 7.367188 16.171875 7.066406 16.21875 6.75 C 16.632812 6.273438 17.175781 6 17.8125 6 Z M 17.8125 6 "/>
<path style=" stroke:none;fill-rule:nonzero;fill:rgb(56.862748%,52.941179%,56.862748%);fill-opacity:1;" d="M 2.90625 12.84375 C 3.113281 13 3.261719 13.160156 3.417969 13.367188 C 3.464844 13.410156 3.515625 13.453125 3.5625 13.5 C 3.796875 13.488281 3.898438 13.445312 4.0625 13.273438 C 4.125 13.195312 4.125 13.195312 4.183594 13.121094 C 4.363281 12.929688 4.460938 12.851562 4.71875 12.796875 C 5.265625 12.785156 5.691406 12.90625 6.1875 13.125 C 6.1875 13.1875 6.1875 13.25 6.1875 13.3125 C 6.039062 13.359375 5.890625 13.402344 5.742188 13.449219 C 5.660156 13.472656 5.578125 13.496094 5.492188 13.523438 C 5.414062 13.546875 5.332031 13.570312 5.25 13.59375 C 5.195312 13.609375 5.136719 13.625 5.082031 13.644531 C 4.628906 13.738281 4.15625 13.710938 3.699219 13.710938 C 3.539062 13.714844 3.539062 13.714844 3.375 13.714844 C 2.625 13.71875 1.898438 13.652344 1.21875 13.3125 C 1.25 13.21875 1.28125 13.125 1.3125 13.03125 C 1.796875 12.789062 2.375 12.738281 2.90625 12.84375 Z M 2.90625 12.84375 "/>
<path style=" stroke:none;fill-rule:nonzero;fill:rgb(57.254905%,53.333336%,57.254905%);fill-opacity:1;" d="M 18.886719 21.976562 C 19.210938 22.050781 19.484375 22.164062 19.78125 22.3125 C 19.402344 22.777344 18.753906 22.808594 18.1875 22.875 C 17.148438 22.949219 15.980469 22.996094 15 22.59375 C 14.9375 22.5 14.875 22.40625 14.8125 22.3125 C 15.394531 22.046875 15.953125 21.902344 16.59375 22.03125 C 16.796875 22.195312 16.910156 22.378906 17.0625 22.59375 C 17.359375 22.683594 17.359375 22.683594 17.625 22.6875 C 17.648438 22.632812 17.671875 22.578125 17.695312 22.523438 C 18.015625 21.949219 18.253906 21.886719 18.886719 21.976562 Z M 18.886719 21.976562 "/>
<path style=" stroke:none;fill-rule:nonzero;fill:rgb(58.823532%,54.509807%,58.823532%);fill-opacity:1;" d="M 19.5 8.15625 C 19.675781 8.3125 19.804688 8.472656 19.941406 8.664062 C 20.058594 8.835938 20.058594 8.835938 20.296875 8.894531 C 20.578125 8.796875 20.605469 8.71875 20.765625 8.480469 C 20.90625 8.296875 20.90625 8.296875 21.09375 8.15625 C 21.6875 8.097656 22.238281 8.195312 22.78125 8.4375 C 22.78125 8.5 22.78125 8.5625 22.78125 8.625 C 22.648438 8.671875 22.515625 8.714844 22.382812 8.761719 C 22.308594 8.785156 22.234375 8.808594 22.160156 8.835938 C 21.550781 9.03125 20.976562 9.019531 20.34375 9.023438 C 20.179688 9.027344 20.179688 9.027344 20.011719 9.027344 C 19.296875 9.03125 18.574219 9 17.90625 8.71875 C 17.875 8.625 17.84375 8.53125 17.8125 8.4375 C 18.359375 8.195312 18.898438 8.007812 19.5 8.15625 Z M 19.5 8.15625 "/>
<path style=" stroke:none;fill-rule:nonzero;fill:rgb(61.56863%,57.254905%,61.56863%);fill-opacity:1;" d="M 16.59375 22.03125 C 16.832031 22.199219 16.910156 22.335938 17.0625 22.59375 C 17.0625 22.65625 17.0625 22.71875 17.0625 22.78125 C 16.277344 22.8125 15.636719 22.800781 14.90625 22.5 C 14.90625 22.40625 14.90625 22.3125 14.90625 22.21875 C 15.457031 22.023438 16.011719 21.925781 16.59375 22.03125 Z M 16.59375 22.03125 "/>
<path style=" stroke:none;fill-rule:nonzero;fill:rgb(61.960787%,57.647061%,61.960787%);fill-opacity:1;" d="M 5.4375 12.84375 C 5.703125 12.917969 5.933594 13.011719 6.1875 13.125 C 6.1875 13.1875 6.1875 13.25 6.1875 13.3125 C 5.503906 13.65625 4.683594 13.605469 3.9375 13.59375 C 4.292969 12.863281 4.640625 12.742188 5.4375 12.84375 Z M 5.4375 12.84375 "/>
<path style=" stroke:none;fill-rule:nonzero;fill:rgb(62.352943%,58.039218%,62.352943%);fill-opacity:1;" d="M 21.691406 8.171875 C 21.796875 8.183594 21.902344 8.191406 22.011719 8.199219 C 22.292969 8.246094 22.519531 8.320312 22.78125 8.4375 C 22.78125 8.5 22.78125 8.5625 22.78125 8.625 C 22.050781 8.925781 21.410156 8.9375 20.625 8.90625 C 20.847656 8.269531 21.003906 8.105469 21.691406 8.171875 Z M 21.691406 8.171875 "/>
<path style=" stroke:none;fill-rule:nonzero;fill:rgb(48.235294%,70.19608%,88.627452%);fill-opacity:1;" d="M 5.53125 11.53125 C 5.875 11.59375 6.125 11.742188 6.421875 11.929688 C 6.511719 11.984375 6.597656 12.039062 6.6875 12.09375 C 7.003906 12.328125 7.230469 12.585938 7.40625 12.9375 C 7.417969 13.1875 7.410156 13.4375 7.40625 13.6875 C 7.375 13.6875 7.34375 13.6875 7.3125 13.6875 C 7.3125 13.472656 7.3125 13.253906 7.3125 13.03125 C 7.25 13.03125 7.1875 13.03125 7.125 13.03125 C 7.09375 13.15625 7.0625 13.277344 7.03125 13.40625 C 7.015625 13.304688 7 13.203125 6.984375 13.101562 C 6.921875 12.878906 6.875 12.773438 6.695312 12.632812 C 6.234375 12.398438 5.742188 12.242188 5.25 12.09375 C 5.34375 11.90625 5.4375 11.71875 5.53125 11.53125 Z M 5.53125 11.53125 "/>
<path style=" stroke:none;fill-rule:nonzero;fill:rgb(35.686275%,61.56863%,83.137256%);fill-opacity:1;" d="M 14.71875 19.78125 C 14.90625 19.96875 14.90625 19.96875 14.90625 20.25 C 13.441406 20.667969 11.816406 20.851562 10.3125 20.53125 C 10.3125 20.5 10.3125 20.46875 10.3125 20.4375 C 10.390625 20.4375 10.472656 20.4375 10.554688 20.441406 C 10.851562 20.445312 11.152344 20.445312 11.449219 20.449219 C 11.578125 20.449219 11.707031 20.449219 11.835938 20.453125 C 12.019531 20.453125 12.207031 20.457031 12.390625 20.457031 C 12.558594 20.457031 12.558594 20.457031 12.726562 20.460938 C 13.027344 20.4375 13.230469 20.375 13.5 20.25 C 13.710938 20.179688 13.925781 20.109375 14.140625 20.042969 C 14.34375 19.96875 14.527344 19.882812 14.71875 19.78125 Z M 14.71875 19.78125 "/>
<path style=" stroke:none;fill-rule:nonzero;fill:rgb(36.078432%,67.843139%,93.725491%);fill-opacity:1;" d="M 16.886719 4.453125 C 17.132812 4.648438 17.222656 4.867188 17.34375 5.15625 C 17.34375 5.21875 17.34375 5.28125 17.34375 5.34375 C 17.1875 5.417969 17.1875 5.417969 16.96875 5.4375 C 16.683594 5.199219 16.523438 5.039062 16.40625 4.6875 C 16.34375 4.65625 16.28125 4.625 16.21875 4.59375 C 16.625 4.390625 16.625 4.390625 16.886719 4.453125 Z M 16.886719 4.453125 "/>
<path style=" stroke:none;fill-rule:nonzero;fill:rgb(47.450981%,69.411767%,87.450981%);fill-opacity:1;" d="M 16.03125 8.4375 C 16.339844 8.4375 16.648438 8.4375 16.96875 8.4375 C 17 8.59375 17.03125 8.746094 17.0625 8.90625 C 16.367188 8.933594 16.367188 8.933594 16.03125 8.71875 C 16.03125 8.625 16.03125 8.53125 16.03125 8.4375 Z M 16.03125 8.4375 "/>
<path style=" stroke:none;fill-rule:nonzero;fill:rgb(85.09804%,33.333334%,36.862746%);fill-opacity:1;" d="M 15.84375 15.375 C 15.90625 15.40625 15.96875 15.4375 16.03125 15.46875 C 15.753906 15.746094 15.472656 16.027344 15.1875 16.3125 C 15.1875 16.03125 15.1875 16.03125 15.410156 15.792969 C 15.492188 15.714844 15.574219 15.640625 15.65625 15.5625 C 15.71875 15.5 15.78125 15.4375 15.84375 15.375 Z M 15.84375 15.375 "/>
<path style=" stroke:none;fill-rule:nonzero;fill:rgb(76.078433%,76.862746%,77.64706%);fill-opacity:1;" d="M 3 7.03125 C 3.0625 7.0625 3.125 7.09375 3.1875 7.125 C 2.941406 7.371094 2.691406 7.621094 2.4375 7.875 C 2.4375 7.59375 2.4375 7.59375 2.667969 7.347656 C 2.746094 7.273438 2.824219 7.199219 2.90625 7.125 C 2.9375 7.09375 2.96875 7.0625 3 7.03125 Z M 3 7.03125 "/>
</g>
</svg>
