<?xml version="1.0" encoding="UTF-8"?>
<svg xmlns="http://www.w3.org/2000/svg" xmlns:xlink="http://www.w3.org/1999/xlink" width="24" height="24" viewBox="0 0 24 24" version="1.1">
<g id="surface1">
<path style=" stroke:none;fill-rule:nonzero;fill:rgb(99.607843%,61.176473%,0%);fill-opacity:1;" d="M 6.195312 0.628906 C 6.335938 0.628906 6.476562 0.628906 6.613281 0.628906 C 6.992188 0.628906 7.371094 0.628906 7.75 0.628906 C 8.070312 0.628906 8.386719 0.628906 8.703125 0.625 C 9.453125 0.625 10.203125 0.625 10.953125 0.625 C 11.722656 0.628906 12.496094 0.625 13.265625 0.625 C 13.929688 0.621094 14.59375 0.621094 15.257812 0.621094 C 15.652344 0.621094 16.050781 0.621094 16.445312 0.621094 C 16.816406 0.621094 17.191406 0.621094 17.5625 0.621094 C 17.699219 0.621094 17.832031 0.621094 17.96875 0.621094 C 19.699219 0.609375 21.234375 1.015625 22.5 2.25 C 23.492188 3.382812 24.027344 4.578125 24.027344 6.082031 C 24.027344 6.171875 24.027344 6.261719 24.03125 6.355469 C 24.03125 6.648438 24.03125 6.941406 24.03125 7.238281 C 24.03125 7.441406 24.03125 7.648438 24.035156 7.855469 C 24.035156 8.289062 24.035156 8.71875 24.035156 9.152344 C 24.035156 9.703125 24.035156 10.253906 24.039062 10.804688 C 24.042969 11.230469 24.042969 11.65625 24.042969 12.082031 C 24.042969 12.285156 24.042969 12.484375 24.046875 12.691406 C 24.058594 14.617188 23.757812 16.121094 22.378906 17.574219 C 21.898438 18.023438 21.367188 18.414062 20.71875 18.5625 C 20.742188 18.671875 20.742188 18.671875 20.769531 18.785156 C 20.84375 19.113281 20.917969 19.449219 20.992188 19.78125 C 21.019531 19.894531 21.046875 20.011719 21.074219 20.128906 C 21.476562 21.925781 21.476562 21.925781 21.1875 22.59375 C 20.859375 23.003906 20.488281 23.285156 19.957031 23.378906 C 19.085938 23.433594 18.480469 22.832031 17.847656 22.300781 C 17.714844 22.191406 17.582031 22.082031 17.449219 21.972656 C 17.386719 21.921875 17.320312 21.867188 17.253906 21.8125 C 16.972656 21.582031 16.691406 21.363281 16.40625 21.140625 C 15.84375 20.703125 15.292969 20.253906 14.742188 19.804688 C 14.679688 19.753906 14.621094 19.707031 14.558594 19.65625 C 14.507812 19.609375 14.453125 19.566406 14.398438 19.523438 C 13.808594 19.058594 13.070312 19.152344 12.347656 19.136719 C 12.167969 19.132812 11.988281 19.125 11.8125 19.117188 C 10.765625 19.0625 10.011719 19.097656 9.195312 19.800781 C 9.023438 19.957031 8.855469 20.121094 8.691406 20.285156 C 8.4375 20.527344 8.15625 20.738281 7.875 20.953125 C 7.457031 21.277344 7.042969 21.609375 6.636719 21.945312 C 4.886719 23.382812 4.886719 23.382812 4.074219 23.371094 C 3.558594 23.3125 3.203125 23.09375 2.867188 22.710938 C 2.464844 21.878906 2.710938 21.082031 2.894531 20.21875 C 2.921875 20.089844 2.949219 19.960938 2.972656 19.832031 C 3.167969 18.90625 3.167969 18.90625 3.28125 18.5625 C 3.230469 18.550781 3.175781 18.542969 3.125 18.535156 C 1.949219 18.183594 1.128906 17.152344 0.5625 16.125 C 0.15625 15.269531 -0.0117188 14.574219 -0.015625 13.636719 C -0.015625 13.546875 -0.0195312 13.457031 -0.0195312 13.367188 C -0.0195312 13.070312 -0.0195312 12.773438 -0.0234375 12.476562 C -0.0234375 12.375 -0.0234375 12.273438 -0.0234375 12.171875 C -0.0273438 11.632812 -0.0273438 11.09375 -0.0273438 10.558594 C -0.0273438 10.003906 -0.03125 9.453125 -0.0351562 8.898438 C -0.0390625 8.472656 -0.0390625 8.046875 -0.0390625 7.617188 C -0.0390625 7.414062 -0.0390625 7.210938 -0.0429688 7.007812 C -0.0585938 5.230469 0.164062 3.683594 1.421875 2.316406 C 2.851562 0.984375 4.292969 0.625 6.195312 0.628906 Z M 6.195312 0.628906 "/>
<path style=" stroke:none;fill-rule:nonzero;fill:rgb(97.254902%,45.882353%,9.019608%);fill-opacity:1;" d="M 6.195312 0.628906 C 6.335938 0.628906 6.476562 0.628906 6.613281 0.628906 C 6.992188 0.628906 7.371094 0.628906 7.75 0.628906 C 8.070312 0.628906 8.386719 0.628906 8.703125 0.625 C 9.453125 0.625 10.203125 0.625 10.953125 0.625 C 11.722656 0.628906 12.496094 0.625 13.265625 0.625 C 13.929688 0.621094 14.59375 0.621094 15.257812 0.621094 C 15.652344 0.621094 16.050781 0.621094 16.445312 0.621094 C 16.816406 0.621094 17.191406 0.621094 17.5625 0.621094 C 17.699219 0.621094 17.832031 0.621094 17.96875 0.621094 C 19.699219 0.609375 21.234375 1.015625 22.5 2.25 C 23.492188 3.382812 24.027344 4.578125 24.027344 6.082031 C 24.027344 6.171875 24.027344 6.261719 24.03125 6.355469 C 24.03125 6.648438 24.03125 6.941406 24.03125 7.238281 C 24.03125 7.441406 24.03125 7.648438 24.035156 7.855469 C 24.035156 8.289062 24.035156 8.71875 24.035156 9.152344 C 24.035156 9.703125 24.035156 10.253906 24.039062 10.804688 C 24.042969 11.230469 24.042969 11.65625 24.042969 12.082031 C 24.042969 12.285156 24.042969 12.484375 24.046875 12.691406 C 24.058594 14.617188 23.757812 16.121094 22.378906 17.574219 C 21.898438 18.023438 21.367188 18.414062 20.71875 18.5625 C 20.742188 18.671875 20.742188 18.671875 20.769531 18.785156 C 20.84375 19.113281 20.917969 19.449219 20.992188 19.78125 C 21.019531 19.894531 21.046875 20.011719 21.074219 20.128906 C 21.476562 21.925781 21.476562 21.925781 21.1875 22.59375 C 20.859375 23.003906 20.488281 23.285156 19.957031 23.378906 C 19.085938 23.433594 18.480469 22.832031 17.847656 22.300781 C 17.714844 22.191406 17.582031 22.082031 17.449219 21.972656 C 17.386719 21.921875 17.320312 21.867188 17.253906 21.8125 C 16.972656 21.582031 16.691406 21.363281 16.40625 21.140625 C 15.84375 20.703125 15.292969 20.253906 14.742188 19.804688 C 14.679688 19.753906 14.621094 19.707031 14.558594 19.65625 C 14.507812 19.609375 14.453125 19.566406 14.398438 19.523438 C 13.808594 19.058594 13.070312 19.152344 12.347656 19.136719 C 12.167969 19.132812 11.988281 19.125 11.8125 19.117188 C 10.765625 19.0625 10.011719 19.097656 9.195312 19.800781 C 9.023438 19.957031 8.855469 20.121094 8.691406 20.285156 C 8.4375 20.527344 8.15625 20.738281 7.875 20.953125 C 7.457031 21.277344 7.042969 21.609375 6.636719 21.945312 C 4.886719 23.382812 4.886719 23.382812 4.074219 23.371094 C 3.558594 23.3125 3.203125 23.09375 2.867188 22.710938 C 2.464844 21.878906 2.710938 21.082031 2.894531 20.21875 C 2.921875 20.089844 2.949219 19.960938 2.972656 19.832031 C 3.167969 18.90625 3.167969 18.90625 3.28125 18.5625 C 3.230469 18.550781 3.175781 18.542969 3.125 18.535156 C 1.949219 18.183594 1.128906 17.152344 0.5625 16.125 C 0.15625 15.269531 -0.0117188 14.574219 -0.015625 13.636719 C -0.015625 13.546875 -0.0195312 13.457031 -0.0195312 13.367188 C -0.0195312 13.070312 -0.0195312 12.773438 -0.0234375 12.476562 C -0.0234375 12.375 -0.0234375 12.273438 -0.0234375 12.171875 C -0.0273438 11.632812 -0.0273438 11.09375 -0.0273438 10.558594 C -0.0273438 10.003906 -0.03125 9.453125 -0.0351562 8.898438 C -0.0390625 8.472656 -0.0390625 8.046875 -0.0390625 7.617188 C -0.0390625 7.414062 -0.0390625 7.210938 -0.0429688 7.007812 C -0.0585938 5.230469 0.164062 3.683594 1.421875 2.316406 C 2.851562 0.984375 4.292969 0.625 6.195312 0.628906 Z M 1.851562 2.890625 C 1.566406 3.246094 1.339844 3.628906 1.125 4.03125 C 1.070312 4.125 1.015625 4.222656 0.960938 4.320312 C 0.597656 5.175781 0.625 6.058594 0.628906 6.972656 C 0.628906 7.125 0.628906 7.273438 0.625 7.421875 C 0.625 7.734375 0.625 8.046875 0.625 8.359375 C 0.625 8.753906 0.625 9.152344 0.621094 9.546875 C 0.621094 9.855469 0.621094 10.164062 0.621094 10.472656 C 0.621094 10.617188 0.621094 10.765625 0.621094 10.910156 C 0.609375 12.59375 0.910156 13.988281 2.097656 15.246094 C 3.050781 16.105469 4.1875 16.605469 5.464844 16.605469 C 5.644531 16.605469 5.644531 16.605469 5.824219 16.609375 C 5.957031 16.609375 6.089844 16.609375 6.21875 16.609375 C 6.359375 16.609375 6.496094 16.609375 6.636719 16.609375 C 7.011719 16.609375 7.390625 16.613281 7.765625 16.613281 C 8.003906 16.613281 8.238281 16.613281 8.472656 16.613281 C 9.210938 16.613281 9.949219 16.617188 10.6875 16.617188 C 11.539062 16.617188 12.386719 16.617188 13.238281 16.621094 C 13.894531 16.625 14.554688 16.625 15.214844 16.625 C 15.605469 16.625 16 16.625 16.390625 16.625 C 16.761719 16.628906 17.128906 16.628906 17.5 16.628906 C 17.636719 16.628906 17.769531 16.628906 17.90625 16.628906 C 19.523438 16.640625 20.886719 16.226562 22.074219 15.082031 C 23.183594 13.824219 23.386719 12.410156 23.378906 10.785156 C 23.378906 10.632812 23.382812 10.480469 23.382812 10.328125 C 23.382812 10.015625 23.382812 9.699219 23.378906 9.382812 C 23.378906 8.980469 23.378906 8.578125 23.382812 8.175781 C 23.382812 7.863281 23.382812 7.554688 23.382812 7.242188 C 23.378906 7.09375 23.382812 6.945312 23.382812 6.796875 C 23.386719 5.164062 23.039062 3.867188 21.886719 2.652344 C 20.925781 1.761719 19.734375 1.304688 18.429688 1.300781 C 18.253906 1.296875 18.253906 1.296875 18.070312 1.296875 C 17.941406 1.296875 17.808594 1.296875 17.679688 1.296875 C 17.539062 1.296875 17.402344 1.292969 17.261719 1.292969 C 16.808594 1.292969 16.355469 1.292969 15.902344 1.289062 C 15.746094 1.289062 15.589844 1.289062 15.433594 1.289062 C 14.695312 1.285156 13.957031 1.285156 13.222656 1.285156 C 12.375 1.285156 11.527344 1.28125 10.675781 1.277344 C 10.019531 1.277344 9.363281 1.273438 8.707031 1.273438 C 8.316406 1.273438 7.921875 1.273438 7.53125 1.269531 C 7.164062 1.269531 6.792969 1.265625 6.425781 1.269531 C 6.289062 1.269531 6.15625 1.269531 6.019531 1.265625 C 4.433594 1.253906 2.960938 1.703125 1.851562 2.890625 Z M 1.851562 2.890625 "/>
<path style=" stroke:none;fill-rule:nonzero;fill:rgb(1.176471%,0.392157%,0%);fill-opacity:1;" d="M 6.195312 0.628906 C 6.335938 0.628906 6.476562 0.628906 6.613281 0.628906 C 6.992188 0.628906 7.371094 0.628906 7.75 0.628906 C 8.070312 0.628906 8.386719 0.628906 8.703125 0.625 C 9.453125 0.625 10.203125 0.625 10.953125 0.625 C 11.722656 0.628906 12.496094 0.625 13.265625 0.625 C 13.929688 0.621094 14.59375 0.621094 15.257812 0.621094 C 15.652344 0.621094 16.050781 0.621094 16.445312 0.621094 C 16.816406 0.621094 17.191406 0.621094 17.5625 0.621094 C 17.699219 0.621094 17.832031 0.621094 17.96875 0.621094 C 19.699219 0.609375 21.234375 1.015625 22.5 2.25 C 23.492188 3.382812 24.027344 4.578125 24.027344 6.082031 C 24.027344 6.171875 24.027344 6.261719 24.03125 6.355469 C 24.03125 6.648438 24.03125 6.941406 24.03125 7.238281 C 24.03125 7.441406 24.03125 7.648438 24.035156 7.855469 C 24.035156 8.289062 24.035156 8.71875 24.035156 9.152344 C 24.035156 9.703125 24.035156 10.253906 24.039062 10.804688 C 24.042969 11.230469 24.042969 11.65625 24.042969 12.082031 C 24.042969 12.285156 24.042969 12.484375 24.046875 12.691406 C 24.058594 14.617188 23.757812 16.121094 22.378906 17.574219 C 21.898438 18.023438 21.367188 18.414062 20.71875 18.5625 C 20.742188 18.671875 20.742188 18.671875 20.769531 18.785156 C 20.84375 19.113281 20.917969 19.449219 20.992188 19.78125 C 21.019531 19.894531 21.046875 20.011719 21.074219 20.128906 C 21.476562 21.925781 21.476562 21.925781 21.1875 22.59375 C 20.859375 23.003906 20.488281 23.285156 19.957031 23.378906 C 19.085938 23.433594 18.480469 22.832031 17.847656 22.300781 C 17.714844 22.191406 17.582031 22.082031 17.449219 21.972656 C 17.386719 21.921875 17.320312 21.867188 17.253906 21.8125 C 16.972656 21.582031 16.691406 21.363281 16.40625 21.140625 C 15.84375 20.703125 15.292969 20.253906 14.742188 19.804688 C 14.679688 19.753906 14.621094 19.707031 14.558594 19.65625 C 14.507812 19.609375 14.453125 19.566406 14.398438 19.523438 C 13.808594 19.058594 13.070312 19.152344 12.347656 19.136719 C 12.167969 19.132812 11.988281 19.125 11.8125 19.117188 C 10.765625 19.0625 10.011719 19.097656 9.195312 19.800781 C 9.023438 19.957031 8.855469 20.121094 8.691406 20.285156 C 8.4375 20.527344 8.15625 20.738281 7.875 20.953125 C 7.457031 21.277344 7.042969 21.609375 6.636719 21.945312 C 4.886719 23.382812 4.886719 23.382812 4.074219 23.371094 C 3.558594 23.3125 3.203125 23.09375 2.867188 22.710938 C 2.464844 21.878906 2.710938 21.082031 2.894531 20.21875 C 2.921875 20.089844 2.949219 19.960938 2.972656 19.832031 C 3.167969 18.90625 3.167969 18.90625 3.28125 18.5625 C 3.230469 18.550781 3.175781 18.542969 3.125 18.535156 C 1.949219 18.183594 1.128906 17.152344 0.5625 16.125 C 0.15625 15.269531 -0.0117188 14.574219 -0.015625 13.636719 C -0.015625 13.546875 -0.0195312 13.457031 -0.0195312 13.367188 C -0.0195312 13.070312 -0.0195312 12.773438 -0.0234375 12.476562 C -0.0234375 12.375 -0.0234375 12.273438 -0.0234375 12.171875 C -0.0273438 11.632812 -0.0273438 11.09375 -0.0273438 10.558594 C -0.0273438 10.003906 -0.03125 9.453125 -0.0351562 8.898438 C -0.0390625 8.472656 -0.0390625 8.046875 -0.0390625 7.617188 C -0.0390625 7.414062 -0.0390625 7.210938 -0.0429688 7.007812 C -0.0585938 5.230469 0.164062 3.683594 1.421875 2.316406 C 2.851562 0.984375 4.292969 0.625 6.195312 0.628906 Z M 1.851562 2.890625 C 1.566406 3.246094 1.339844 3.628906 1.125 4.03125 C 1.070312 4.125 1.015625 4.222656 0.960938 4.320312 C 0.683594 4.976562 0.628906 5.636719 0.628906 6.339844 C 0.628906 6.429688 0.628906 6.515625 0.625 6.601562 C 0.625 6.882812 0.625 7.167969 0.625 7.449219 C 0.625 7.648438 0.625 7.84375 0.621094 8.042969 C 0.621094 8.457031 0.621094 8.871094 0.621094 9.285156 C 0.621094 9.8125 0.621094 10.339844 0.617188 10.867188 C 0.613281 11.277344 0.613281 11.683594 0.613281 12.09375 C 0.613281 12.289062 0.613281 12.484375 0.609375 12.675781 C 0.597656 14.34375 0.832031 15.71875 1.992188 17 C 2.558594 17.535156 3.214844 17.90625 3.9375 18.1875 C 3.851562 18.824219 3.742188 19.453125 3.601562 20.082031 C 3.277344 21.273438 3.277344 21.273438 3.550781 22.414062 C 3.789062 22.628906 3.878906 22.683594 4.203125 22.710938 C 4.550781 22.683594 4.675781 22.605469 4.953125 22.394531 C 5.039062 22.324219 5.128906 22.257812 5.21875 22.1875 C 5.726562 21.78125 6.226562 21.367188 6.722656 20.953125 C 7.121094 20.625 7.523438 20.300781 7.933594 19.988281 C 8.21875 19.773438 8.480469 19.554688 8.730469 19.304688 C 9.5625 18.503906 10.277344 18.304688 11.421875 18.304688 C 11.515625 18.308594 11.609375 18.308594 11.707031 18.3125 C 11.988281 18.316406 12.269531 18.308594 12.550781 18.296875 C 13.800781 18.289062 14.515625 18.578125 15.414062 19.449219 C 15.496094 19.53125 15.496094 19.53125 15.582031 19.617188 C 15.839844 19.871094 16.125 20.085938 16.414062 20.304688 C 16.828125 20.625 17.234375 20.953125 17.640625 21.285156 C 18.355469 21.871094 18.355469 21.871094 19.089844 22.4375 C 19.191406 22.511719 19.191406 22.511719 19.292969 22.585938 C 19.566406 22.71875 19.761719 22.71875 20.0625 22.6875 C 20.316406 22.519531 20.488281 22.398438 20.625 22.125 C 20.710938 21.328125 20.515625 20.5625 20.34375 19.789062 C 20.289062 19.542969 20.238281 19.300781 20.1875 19.058594 C 20.148438 18.898438 20.148438 18.898438 20.113281 18.734375 C 20.0625 18.46875 20.0625 18.46875 20.0625 18.1875 C 20.148438 18.148438 20.234375 18.109375 20.324219 18.066406 C 21.746094 17.394531 22.570312 16.546875 23.160156 15.0625 C 23.28125 14.71875 23.355469 14.421875 23.355469 14.058594 C 23.355469 13.984375 23.359375 13.910156 23.359375 13.832031 C 23.359375 13.75 23.359375 13.667969 23.359375 13.585938 C 23.359375 13.5 23.359375 13.414062 23.359375 13.324219 C 23.363281 13.039062 23.363281 12.753906 23.363281 12.46875 C 23.363281 12.269531 23.363281 12.070312 23.363281 11.871094 C 23.367188 11.453125 23.367188 11.039062 23.367188 10.621094 C 23.367188 10.089844 23.367188 9.554688 23.371094 9.023438 C 23.375 8.613281 23.375 8.203125 23.375 7.789062 C 23.375 7.59375 23.375 7.398438 23.375 7.203125 C 23.386719 5.40625 23.175781 4.011719 21.886719 2.652344 C 20.925781 1.761719 19.734375 1.304688 18.429688 1.300781 C 18.253906 1.296875 18.253906 1.296875 18.070312 1.296875 C 17.941406 1.296875 17.808594 1.296875 17.679688 1.296875 C 17.539062 1.296875 17.402344 1.292969 17.261719 1.292969 C 16.808594 1.292969 16.355469 1.292969 15.902344 1.289062 C 15.746094 1.289062 15.589844 1.289062 15.433594 1.289062 C 14.695312 1.285156 13.957031 1.285156 13.222656 1.285156 C 12.375 1.285156 11.527344 1.28125 10.675781 1.277344 C 10.019531 1.277344 9.363281 1.273438 8.707031 1.273438 C 8.316406 1.273438 7.921875 1.273438 7.53125 1.269531 C 7.164062 1.269531 6.792969 1.265625 6.425781 1.269531 C 6.289062 1.269531 6.15625 1.269531 6.019531 1.265625 C 4.433594 1.253906 2.960938 1.703125 1.851562 2.890625 Z M 1.851562 2.890625 "/>
<path style=" stroke:none;fill-rule:nonzero;fill:rgb(3.529412%,2.745098%,0.784314%);fill-opacity:1;" d="M 17.695312 7.816406 C 18.085938 8.097656 18.347656 8.476562 18.5625 8.90625 C 18.644531 9.71875 18.589844 10.394531 18.09375 11.0625 C 17.511719 11.613281 16.945312 11.664062 16.175781 11.65625 C 15.589844 11.601562 15.273438 11.34375 14.878906 10.933594 C 14.484375 10.320312 14.339844 9.820312 14.4375 9.09375 C 14.640625 8.386719 15.171875 7.925781 15.785156 7.554688 C 16.492188 7.402344 17.054688 7.464844 17.695312 7.816406 Z M 17.695312 7.816406 "/>
<path style=" stroke:none;fill-rule:nonzero;fill:rgb(3.137255%,2.352941%,0.784314%);fill-opacity:1;" d="M 8.359375 7.695312 C 8.882812 7.980469 9.203125 8.335938 9.503906 8.84375 C 9.667969 9.546875 9.597656 10.121094 9.246094 10.757812 C 8.945312 11.179688 8.554688 11.460938 8.0625 11.625 C 7.324219 11.699219 6.679688 11.726562 6.078125 11.246094 C 5.59375 10.734375 5.410156 10.207031 5.371094 9.511719 C 5.398438 8.898438 5.570312 8.496094 6 8.0625 C 6.734375 7.488281 7.488281 7.292969 8.359375 7.695312 Z M 8.359375 7.695312 "/>
<path style=" stroke:none;fill-rule:nonzero;fill:rgb(3.137255%,2.352941%,1.176471%);fill-opacity:1;" d="M 13.042969 7.742188 C 13.472656 8.0625 13.863281 8.496094 14.0625 9 C 14.136719 9.609375 14.117188 10.25 13.78125 10.78125 C 13.351562 11.253906 12.921875 11.582031 12.277344 11.660156 C 11.480469 11.675781 11.023438 11.570312 10.449219 11.019531 C 9.972656 10.496094 9.886719 9.945312 9.902344 9.257812 C 9.988281 8.621094 10.414062 8.183594 10.90625 7.796875 C 11.542969 7.347656 12.371094 7.363281 13.042969 7.742188 Z M 13.042969 7.742188 "/>
<path style=" stroke:none;fill-rule:nonzero;fill:rgb(87.450981%,89.411765%,80.784315%);fill-opacity:1;" d="M 8.078125 8.261719 C 8.445312 8.503906 8.707031 8.792969 8.90625 9.1875 C 8.960938 9.625 8.949219 9.945312 8.746094 10.34375 C 8.371094 10.78125 8.066406 11.027344 7.480469 11.097656 C 7.015625 11.050781 6.722656 10.90625 6.375 10.59375 C 6.085938 10.230469 5.96875 9.878906 5.988281 9.414062 C 6.066406 8.953125 6.300781 8.644531 6.65625 8.34375 C 7.121094 8.066406 7.582031 8.085938 8.078125 8.261719 Z M 8.078125 8.261719 "/>
<path style=" stroke:none;fill-rule:nonzero;fill:rgb(87.450981%,89.803922%,80.784315%);fill-opacity:1;" d="M 16.96875 8.15625 C 17.277344 8.316406 17.277344 8.316406 17.53125 8.53125 C 17.605469 8.59375 17.679688 8.65625 17.753906 8.71875 C 18 9.171875 17.972656 9.621094 17.90625 10.125 C 17.707031 10.589844 17.429688 10.796875 16.976562 10.996094 C 16.671875 11.097656 16.441406 11.109375 16.125 11.0625 C 15.628906 10.800781 15.273438 10.476562 15.09375 9.9375 C 15.050781 9.441406 15.070312 9.097656 15.34375 8.675781 C 15.773438 8.175781 16.332031 8.039062 16.96875 8.15625 Z M 16.96875 8.15625 "/>
<path style=" stroke:none;fill-rule:nonzero;fill:rgb(87.450981%,89.803922%,80.784315%);fill-opacity:1;" d="M 12.484375 8.222656 C 12.929688 8.417969 13.203125 8.636719 13.40625 9.09375 C 13.488281 9.617188 13.460938 10.101562 13.164062 10.550781 C 12.824219 10.90625 12.425781 11.042969 11.949219 11.109375 C 11.390625 11.027344 11.085938 10.835938 10.738281 10.394531 C 10.53125 9.976562 10.519531 9.550781 10.59375 9.09375 C 10.972656 8.308594 11.644531 7.949219 12.484375 8.222656 Z M 12.484375 8.222656 "/>
</g>
</svg>
