<?xml version="1.0" encoding="UTF-8"?>
<svg xmlns="http://www.w3.org/2000/svg" xmlns:xlink="http://www.w3.org/1999/xlink" width="24" height="24" viewBox="0 0 24 24" version="1.1">
<g id="surface1">
<path style=" stroke:none;fill-rule:nonzero;fill:rgb(89.411765%,89.803922%,91.764706%);fill-opacity:1;" d="M 2.066406 0.363281 C 2.15625 0.363281 2.246094 0.359375 2.335938 0.359375 C 2.628906 0.359375 2.925781 0.359375 3.222656 0.359375 C 3.433594 0.359375 3.644531 0.359375 3.859375 0.359375 C 4.433594 0.355469 5.011719 0.355469 5.585938 0.355469 C 5.945312 0.355469 6.304688 0.355469 6.664062 0.355469 C 7.660156 0.355469 8.65625 0.351562 9.652344 0.351562 C 9.714844 0.351562 9.777344 0.351562 9.84375 0.351562 C 9.910156 0.351562 9.972656 0.351562 10.039062 0.351562 C 10.167969 0.351562 10.296875 0.351562 10.425781 0.351562 C 10.492188 0.351562 10.554688 0.351562 10.621094 0.351562 C 11.660156 0.351562 12.703125 0.351562 13.742188 0.347656 C 14.8125 0.347656 15.878906 0.34375 16.949219 0.34375 C 17.546875 0.34375 18.148438 0.34375 18.746094 0.34375 C 19.3125 0.339844 19.875 0.339844 20.4375 0.339844 C 20.644531 0.339844 20.855469 0.339844 21.0625 0.339844 C 21.34375 0.339844 21.625 0.339844 21.910156 0.339844 C 22.03125 0.339844 22.03125 0.339844 22.15625 0.339844 C 22.695312 0.34375 23 0.441406 23.414062 0.796875 C 23.714844 1.15625 23.640625 1.625 23.636719 2.066406 C 23.636719 2.15625 23.640625 2.246094 23.640625 2.335938 C 23.640625 2.628906 23.640625 2.925781 23.640625 3.222656 C 23.640625 3.433594 23.640625 3.644531 23.640625 3.859375 C 23.644531 4.433594 23.644531 5.011719 23.644531 5.585938 C 23.644531 5.945312 23.644531 6.304688 23.644531 6.664062 C 23.644531 7.660156 23.648438 8.65625 23.648438 9.652344 C 23.648438 9.746094 23.648438 9.746094 23.648438 9.84375 C 23.648438 9.910156 23.648438 9.972656 23.648438 10.039062 C 23.648438 10.167969 23.648438 10.296875 23.648438 10.425781 C 23.648438 10.523438 23.648438 10.523438 23.648438 10.621094 C 23.648438 11.660156 23.648438 12.703125 23.652344 13.742188 C 23.652344 14.8125 23.65625 15.878906 23.65625 16.945312 C 23.65625 17.546875 23.65625 18.148438 23.65625 18.746094 C 23.660156 19.3125 23.660156 19.875 23.660156 20.4375 C 23.660156 20.648438 23.660156 20.855469 23.660156 21.0625 C 23.660156 21.34375 23.660156 21.625 23.660156 21.910156 C 23.660156 22.03125 23.660156 22.03125 23.660156 22.15625 C 23.65625 22.695312 23.558594 23 23.203125 23.414062 C 22.84375 23.714844 22.375 23.640625 21.933594 23.636719 C 21.84375 23.636719 21.757812 23.640625 21.664062 23.640625 C 21.371094 23.640625 21.074219 23.640625 20.777344 23.640625 C 20.566406 23.640625 20.355469 23.640625 20.140625 23.640625 C 19.566406 23.644531 18.988281 23.644531 18.414062 23.644531 C 18.054688 23.644531 17.695312 23.644531 17.335938 23.644531 C 16.339844 23.644531 15.34375 23.648438 14.347656 23.648438 C 14.285156 23.648438 14.222656 23.648438 14.15625 23.648438 C 14.089844 23.648438 14.027344 23.648438 13.960938 23.648438 C 13.832031 23.648438 13.703125 23.648438 13.574219 23.648438 C 13.507812 23.648438 13.445312 23.648438 13.378906 23.648438 C 12.339844 23.648438 11.296875 23.648438 10.257812 23.652344 C 9.1875 23.652344 8.121094 23.65625 7.050781 23.65625 C 6.453125 23.65625 5.851562 23.65625 5.253906 23.65625 C 4.6875 23.660156 4.125 23.660156 3.558594 23.660156 C 3.351562 23.660156 3.144531 23.660156 2.9375 23.660156 C 2.65625 23.660156 2.375 23.660156 2.089844 23.660156 C 2.011719 23.660156 1.925781 23.660156 1.84375 23.660156 C 1.304688 23.65625 1 23.558594 0.585938 23.203125 C 0.285156 22.84375 0.363281 22.375 0.363281 21.933594 C 0.363281 21.84375 0.359375 21.757812 0.359375 21.664062 C 0.359375 21.371094 0.359375 21.074219 0.359375 20.777344 C 0.359375 20.566406 0.359375 20.355469 0.359375 20.140625 C 0.355469 19.566406 0.355469 18.988281 0.355469 18.414062 C 0.355469 18.054688 0.355469 17.695312 0.355469 17.335938 C 0.355469 16.339844 0.351562 15.34375 0.351562 14.347656 C 0.351562 14.285156 0.351562 14.222656 0.351562 14.15625 C 0.351562 14.089844 0.351562 14.027344 0.351562 13.960938 C 0.351562 13.832031 0.351562 13.703125 0.351562 13.574219 C 0.351562 13.476562 0.351562 13.476562 0.351562 13.378906 C 0.351562 12.339844 0.351562 11.296875 0.347656 10.257812 C 0.347656 9.1875 0.34375 8.121094 0.34375 7.054688 C 0.34375 6.453125 0.34375 5.851562 0.34375 5.253906 C 0.339844 4.6875 0.339844 4.125 0.339844 3.5625 C 0.339844 3.351562 0.339844 3.144531 0.339844 2.9375 C 0.339844 2.65625 0.339844 2.375 0.339844 2.089844 C 0.339844 2.007812 0.339844 1.925781 0.339844 1.84375 C 0.34375 1.304688 0.441406 1 0.796875 0.585938 C 1.15625 0.285156 1.625 0.363281 2.066406 0.363281 Z M 2.066406 0.363281 "/>
<path style=" stroke:none;fill-rule:nonzero;fill:rgb(10.588235%,16.078432%,39.607844%);fill-opacity:1;" d="M 2.066406 0.363281 C 2.15625 0.363281 2.246094 0.359375 2.335938 0.359375 C 2.628906 0.359375 2.925781 0.359375 3.222656 0.359375 C 3.433594 0.359375 3.644531 0.359375 3.859375 0.359375 C 4.433594 0.355469 5.011719 0.355469 5.585938 0.355469 C 5.945312 0.355469 6.304688 0.355469 6.664062 0.355469 C 7.660156 0.355469 8.65625 0.351562 9.652344 0.351562 C 9.714844 0.351562 9.777344 0.351562 9.84375 0.351562 C 9.910156 0.351562 9.972656 0.351562 10.039062 0.351562 C 10.167969 0.351562 10.296875 0.351562 10.425781 0.351562 C 10.492188 0.351562 10.554688 0.351562 10.621094 0.351562 C 11.660156 0.351562 12.703125 0.351562 13.742188 0.347656 C 14.8125 0.347656 15.878906 0.34375 16.949219 0.34375 C 17.546875 0.34375 18.148438 0.34375 18.746094 0.34375 C 19.3125 0.339844 19.875 0.339844 20.4375 0.339844 C 20.644531 0.339844 20.855469 0.339844 21.0625 0.339844 C 21.34375 0.339844 21.625 0.339844 21.910156 0.339844 C 22.03125 0.339844 22.03125 0.339844 22.15625 0.339844 C 22.695312 0.34375 23 0.441406 23.414062 0.796875 C 23.988281 1.484375 23.625 3.109375 23.625 3.5625 C 15.953125 3.5625 8.28125 3.5625 0.375 3.5625 C 0.375 1.078125 0.375 1.078125 0.796875 0.585938 C 1.15625 0.285156 1.625 0.363281 2.066406 0.363281 Z M 2.066406 0.363281 "/>
<path style=" stroke:none;fill-rule:nonzero;fill:rgb(66.666669%,68.627453%,73.725492%);fill-opacity:1;" d="M 4.5 5.25 C 4.6875 5.246094 4.875 5.246094 5.0625 5.25 C 5.242188 5.429688 5.167969 5.742188 5.167969 5.980469 C 5.167969 6.046875 5.167969 6.113281 5.167969 6.183594 C 5.171875 6.410156 5.171875 6.636719 5.171875 6.867188 C 5.171875 7.027344 5.171875 7.191406 5.171875 7.351562 C 5.171875 7.796875 5.171875 8.238281 5.171875 8.679688 C 5.171875 9.046875 5.171875 9.414062 5.171875 9.785156 C 5.171875 10.652344 5.175781 11.519531 5.175781 12.390625 C 5.171875 13.289062 5.175781 14.183594 5.175781 15.082031 C 5.175781 15.851562 5.179688 16.621094 5.179688 17.390625 C 5.179688 17.851562 5.179688 18.3125 5.179688 18.769531 C 5.179688 19.203125 5.179688 19.636719 5.179688 20.070312 C 5.179688 20.226562 5.179688 20.386719 5.179688 20.546875 C 5.179688 20.761719 5.179688 20.980469 5.179688 21.195312 C 5.179688 21.316406 5.179688 21.4375 5.179688 21.5625 C 5.15625 21.84375 5.15625 21.84375 4.96875 22.03125 C 4.730469 22.007812 4.730469 22.007812 4.5 21.9375 C 4.363281 21.660156 4.394531 21.417969 4.394531 21.109375 C 4.394531 21.042969 4.394531 20.976562 4.394531 20.90625 C 4.394531 20.683594 4.394531 20.460938 4.394531 20.234375 C 4.394531 20.074219 4.394531 19.914062 4.394531 19.753906 C 4.394531 19.316406 4.394531 18.878906 4.394531 18.445312 C 4.394531 17.988281 4.394531 17.53125 4.394531 17.074219 C 4.394531 16.308594 4.394531 15.542969 4.394531 14.777344 C 4.394531 13.890625 4.394531 13.003906 4.394531 12.117188 C 4.394531 11.355469 4.394531 10.597656 4.394531 9.835938 C 4.394531 9.382812 4.394531 8.925781 4.394531 8.472656 C 4.394531 8.046875 4.394531 7.617188 4.394531 7.191406 C 4.394531 7.035156 4.394531 6.875 4.394531 6.71875 C 4.394531 6.503906 4.394531 6.292969 4.394531 6.078125 C 4.394531 5.957031 4.394531 5.839844 4.394531 5.714844 C 4.40625 5.4375 4.40625 5.4375 4.5 5.25 Z M 4.5 5.25 "/>
<path style=" stroke:none;fill-rule:nonzero;fill:rgb(5.882353%,9.411765%,30.19608%);fill-opacity:1;" d="M 9.480469 1.582031 C 9.582031 1.582031 9.6875 1.582031 9.792969 1.582031 C 9.910156 1.582031 10.027344 1.582031 10.144531 1.582031 C 10.324219 1.578125 10.324219 1.578125 10.507812 1.578125 C 10.839844 1.578125 11.171875 1.578125 11.503906 1.578125 C 11.777344 1.578125 12.054688 1.578125 12.332031 1.578125 C 12.980469 1.578125 13.632812 1.578125 14.285156 1.578125 C 14.957031 1.578125 15.628906 1.574219 16.300781 1.574219 C 16.878906 1.574219 17.457031 1.570312 18.03125 1.570312 C 18.375 1.574219 18.722656 1.570312 19.066406 1.570312 C 19.449219 1.570312 19.835938 1.570312 20.21875 1.570312 C 20.335938 1.570312 20.449219 1.570312 20.566406 1.570312 C 20.722656 1.570312 20.722656 1.570312 20.882812 1.570312 C 20.972656 1.570312 21.066406 1.570312 21.160156 1.570312 C 21.375 1.59375 21.375 1.59375 21.5625 1.78125 C 21.585938 2.015625 21.585938 2.015625 21.5625 2.25 C 21.320312 2.492188 21.226562 2.460938 20.886719 2.460938 C 20.785156 2.460938 20.683594 2.464844 20.574219 2.464844 C 20.460938 2.464844 20.347656 2.464844 20.230469 2.464844 C 20.109375 2.464844 19.992188 2.464844 19.871094 2.464844 C 19.542969 2.464844 19.214844 2.464844 18.886719 2.464844 C 18.613281 2.464844 18.339844 2.464844 18.066406 2.464844 C 17.417969 2.46875 16.773438 2.46875 16.128906 2.46875 C 15.464844 2.464844 14.796875 2.46875 14.128906 2.46875 C 13.558594 2.472656 12.988281 2.472656 12.417969 2.472656 C 12.074219 2.472656 11.734375 2.472656 11.390625 2.472656 C 11.011719 2.476562 10.632812 2.472656 10.25 2.472656 C 10.136719 2.472656 10.023438 2.472656 9.90625 2.476562 C 9.800781 2.472656 9.699219 2.472656 9.59375 2.472656 C 9.503906 2.472656 9.414062 2.472656 9.320312 2.472656 C 9.09375 2.4375 9.09375 2.4375 8.921875 2.308594 C 8.8125 2.15625 8.8125 2.15625 8.835938 1.910156 C 8.957031 1.523438 9.09375 1.582031 9.480469 1.582031 Z M 9.480469 1.582031 "/>
<path style=" stroke:none;fill-rule:nonzero;fill:rgb(89.803922%,77.64706%,18.431373%);fill-opacity:1;" d="M 14.273438 19.578125 C 14.34375 19.578125 14.414062 19.578125 14.484375 19.578125 C 14.558594 19.578125 14.632812 19.578125 14.710938 19.578125 C 14.953125 19.578125 15.199219 19.578125 15.445312 19.578125 C 15.613281 19.578125 15.785156 19.578125 15.953125 19.578125 C 16.308594 19.578125 16.667969 19.578125 17.023438 19.578125 C 17.480469 19.578125 17.9375 19.574219 18.394531 19.574219 C 18.746094 19.574219 19.09375 19.574219 19.445312 19.574219 C 19.613281 19.574219 19.785156 19.570312 19.953125 19.570312 C 20.1875 19.570312 20.421875 19.570312 20.65625 19.570312 C 20.726562 19.570312 20.796875 19.570312 20.871094 19.570312 C 21.355469 19.574219 21.355469 19.574219 21.5625 19.78125 C 21.585938 20.015625 21.585938 20.015625 21.5625 20.25 C 21.332031 20.480469 21.195312 20.460938 20.878906 20.464844 C 20.808594 20.464844 20.742188 20.464844 20.667969 20.464844 C 20.597656 20.464844 20.523438 20.464844 20.449219 20.464844 C 20.207031 20.464844 19.96875 20.464844 19.726562 20.464844 C 19.558594 20.464844 19.390625 20.46875 19.226562 20.46875 C 18.875 20.46875 18.523438 20.46875 18.171875 20.46875 C 17.722656 20.46875 17.273438 20.46875 16.820312 20.46875 C 16.476562 20.472656 16.132812 20.472656 15.785156 20.472656 C 15.621094 20.472656 15.453125 20.472656 15.289062 20.472656 C 15.054688 20.472656 14.824219 20.472656 14.59375 20.472656 C 14.523438 20.472656 14.453125 20.472656 14.382812 20.472656 C 14.109375 20.472656 13.917969 20.46875 13.6875 20.308594 C 13.59375 20.15625 13.59375 20.15625 13.617188 19.910156 C 13.742188 19.519531 13.886719 19.582031 14.273438 19.578125 Z M 14.273438 19.578125 "/>
<path style=" stroke:none;fill-rule:nonzero;fill:rgb(89.803922%,77.254903%,14.509805%);fill-opacity:1;" d="M 14.273438 13.203125 C 14.34375 13.203125 14.414062 13.203125 14.484375 13.203125 C 14.558594 13.203125 14.632812 13.203125 14.710938 13.203125 C 14.953125 13.203125 15.199219 13.203125 15.445312 13.203125 C 15.613281 13.203125 15.785156 13.203125 15.953125 13.203125 C 16.308594 13.203125 16.667969 13.203125 17.023438 13.203125 C 17.480469 13.203125 17.9375 13.199219 18.394531 13.199219 C 18.746094 13.199219 19.09375 13.199219 19.445312 13.199219 C 19.613281 13.199219 19.785156 13.195312 19.953125 13.195312 C 20.1875 13.195312 20.421875 13.195312 20.65625 13.195312 C 20.726562 13.195312 20.796875 13.195312 20.871094 13.195312 C 21.355469 13.199219 21.355469 13.199219 21.5625 13.40625 C 21.578125 13.648438 21.578125 13.648438 21.5625 13.875 C 21.398438 14.039062 21.1875 13.980469 20.972656 13.980469 C 20.898438 13.980469 20.828125 13.980469 20.753906 13.980469 C 20.644531 13.984375 20.644531 13.984375 20.527344 13.984375 C 20.28125 13.984375 20.03125 13.984375 19.785156 13.984375 C 19.613281 13.984375 19.441406 13.984375 19.269531 13.984375 C 18.910156 13.984375 18.546875 13.984375 18.1875 13.984375 C 17.726562 13.984375 17.261719 13.988281 16.796875 13.988281 C 16.445312 13.988281 16.089844 13.992188 15.734375 13.992188 C 15.5625 13.992188 15.394531 13.992188 15.222656 13.992188 C 14.984375 13.992188 14.746094 13.992188 14.507812 13.992188 C 14.398438 13.992188 14.398438 13.992188 14.292969 13.992188 C 13.804688 13.988281 13.804688 13.988281 13.59375 13.78125 C 13.660156 13.238281 13.738281 13.207031 14.273438 13.203125 Z M 14.273438 13.203125 "/>
<path style=" stroke:none;fill-rule:nonzero;fill:rgb(89.803922%,77.254903%,14.509805%);fill-opacity:1;" d="M 14.28125 6.832031 C 14.386719 6.832031 14.386719 6.832031 14.496094 6.832031 C 14.570312 6.832031 14.644531 6.832031 14.722656 6.832031 C 14.972656 6.832031 15.21875 6.832031 15.46875 6.832031 C 15.640625 6.832031 15.8125 6.832031 15.984375 6.832031 C 16.347656 6.832031 16.707031 6.832031 17.066406 6.832031 C 17.53125 6.832031 17.996094 6.832031 18.460938 6.832031 C 18.8125 6.832031 19.167969 6.832031 19.523438 6.832031 C 19.695312 6.832031 19.867188 6.832031 20.039062 6.832031 C 20.277344 6.832031 20.515625 6.832031 20.753906 6.832031 C 20.824219 6.832031 20.898438 6.832031 20.96875 6.832031 C 21.457031 6.832031 21.457031 6.832031 21.5625 6.9375 C 21.578125 7.164062 21.578125 7.164062 21.5625 7.40625 C 21.328125 7.640625 21.191406 7.617188 20.871094 7.621094 C 20.765625 7.617188 20.765625 7.617188 20.660156 7.617188 C 20.585938 7.617188 20.511719 7.617188 20.4375 7.617188 C 20.191406 7.621094 19.945312 7.621094 19.703125 7.617188 C 19.53125 7.617188 19.363281 7.617188 19.191406 7.621094 C 18.835938 7.621094 18.484375 7.621094 18.125 7.617188 C 17.671875 7.617188 17.214844 7.617188 16.757812 7.617188 C 16.40625 7.621094 16.058594 7.621094 15.707031 7.617188 C 15.539062 7.617188 15.371094 7.617188 15.203125 7.621094 C 14.96875 7.621094 14.730469 7.621094 14.496094 7.617188 C 14.425781 7.617188 14.355469 7.617188 14.285156 7.621094 C 13.800781 7.613281 13.800781 7.613281 13.59375 7.40625 C 13.660156 6.859375 13.742188 6.832031 14.28125 6.832031 Z M 14.28125 6.832031 "/>
<path style=" stroke:none;fill-rule:nonzero;fill:rgb(89.803922%,77.64706%,18.431373%);fill-opacity:1;" d="M 16.710938 21.164062 C 16.8125 21.164062 16.914062 21.164062 17.023438 21.160156 C 17.1875 21.164062 17.1875 21.164062 17.359375 21.164062 C 17.472656 21.164062 17.585938 21.164062 17.703125 21.164062 C 17.945312 21.164062 18.183594 21.164062 18.425781 21.164062 C 18.796875 21.164062 19.164062 21.164062 19.535156 21.164062 C 19.769531 21.164062 20 21.164062 20.234375 21.164062 C 20.347656 21.164062 20.457031 21.164062 20.570312 21.160156 C 20.726562 21.164062 20.726562 21.164062 20.882812 21.164062 C 21.019531 21.164062 21.019531 21.164062 21.15625 21.164062 C 21.375 21.1875 21.375 21.1875 21.5625 21.375 C 21.585938 21.609375 21.585938 21.609375 21.5625 21.84375 C 21.320312 22.085938 21.222656 22.054688 20.882812 22.054688 C 20.730469 22.058594 20.730469 22.058594 20.570312 22.058594 C 20.460938 22.058594 20.351562 22.058594 20.234375 22.054688 C 20.121094 22.058594 20.007812 22.058594 19.890625 22.058594 C 19.648438 22.058594 19.410156 22.058594 19.167969 22.054688 C 18.796875 22.054688 18.429688 22.054688 18.058594 22.058594 C 17.824219 22.058594 17.589844 22.058594 17.359375 22.054688 C 17.191406 22.058594 17.191406 22.058594 17.023438 22.058594 C 16.917969 22.058594 16.816406 22.054688 16.710938 22.054688 C 16.621094 22.054688 16.53125 22.054688 16.4375 22.054688 C 16.21875 22.03125 16.21875 22.03125 16.03125 21.84375 C 16.007812 21.609375 16.007812 21.609375 16.03125 21.375 C 16.273438 21.132812 16.371094 21.164062 16.710938 21.164062 Z M 16.710938 21.164062 "/>
<path style=" stroke:none;fill-rule:nonzero;fill:rgb(89.803922%,77.254903%,14.509805%);fill-opacity:1;" d="M 16.710938 14.789062 C 16.8125 14.789062 16.914062 14.789062 17.023438 14.785156 C 17.1875 14.789062 17.1875 14.789062 17.359375 14.789062 C 17.472656 14.789062 17.585938 14.789062 17.703125 14.789062 C 17.945312 14.789062 18.183594 14.789062 18.425781 14.789062 C 18.796875 14.789062 19.164062 14.789062 19.535156 14.789062 C 19.769531 14.789062 20 14.789062 20.234375 14.789062 C 20.347656 14.789062 20.457031 14.789062 20.570312 14.785156 C 20.726562 14.789062 20.726562 14.789062 20.882812 14.789062 C 21.019531 14.789062 21.019531 14.789062 21.15625 14.789062 C 21.375 14.8125 21.375 14.8125 21.5625 15 C 21.578125 15.238281 21.578125 15.238281 21.5625 15.46875 C 21.402344 15.628906 21.1875 15.574219 20.96875 15.574219 C 20.863281 15.574219 20.753906 15.574219 20.644531 15.574219 C 20.53125 15.574219 20.414062 15.574219 20.292969 15.574219 C 20.175781 15.574219 20.058594 15.574219 19.933594 15.574219 C 19.683594 15.574219 19.433594 15.574219 19.183594 15.574219 C 18.863281 15.574219 18.539062 15.574219 18.21875 15.574219 C 17.914062 15.574219 17.605469 15.574219 17.300781 15.574219 C 17.183594 15.574219 17.066406 15.574219 16.949219 15.574219 C 16.839844 15.574219 16.734375 15.574219 16.625 15.574219 C 16.53125 15.574219 16.4375 15.574219 16.339844 15.574219 C 16.125 15.5625 16.125 15.5625 16.03125 15.46875 C 16.015625 15.238281 16.015625 15.238281 16.03125 15 C 16.273438 14.757812 16.371094 14.789062 16.710938 14.789062 Z M 16.710938 14.789062 "/>
<path style=" stroke:none;fill-rule:nonzero;fill:rgb(89.803922%,77.254903%,14.509805%);fill-opacity:1;" d="M 16.625 8.425781 C 16.730469 8.425781 16.839844 8.425781 16.949219 8.425781 C 17.0625 8.425781 17.179688 8.425781 17.300781 8.425781 C 17.417969 8.425781 17.535156 8.425781 17.65625 8.425781 C 17.910156 8.425781 18.160156 8.425781 18.410156 8.425781 C 18.730469 8.425781 19.054688 8.425781 19.375 8.425781 C 19.683594 8.425781 19.988281 8.425781 20.292969 8.425781 C 20.410156 8.425781 20.527344 8.425781 20.644531 8.425781 C 20.753906 8.425781 20.859375 8.425781 20.96875 8.425781 C 21.0625 8.425781 21.15625 8.425781 21.253906 8.425781 C 21.46875 8.4375 21.46875 8.4375 21.5625 8.53125 C 21.582031 8.761719 21.582031 8.761719 21.5625 9 C 21.320312 9.242188 21.222656 9.210938 20.882812 9.210938 C 20.730469 9.210938 20.730469 9.210938 20.574219 9.214844 C 20.460938 9.210938 20.351562 9.210938 20.234375 9.210938 C 20.121094 9.210938 20.007812 9.210938 19.890625 9.210938 C 19.648438 9.210938 19.410156 9.210938 19.167969 9.210938 C 18.796875 9.210938 18.429688 9.210938 18.058594 9.210938 C 17.824219 9.210938 17.59375 9.210938 17.359375 9.210938 C 17.191406 9.210938 17.191406 9.210938 17.019531 9.214844 C 16.917969 9.210938 16.816406 9.210938 16.710938 9.210938 C 16.621094 9.210938 16.527344 9.210938 16.433594 9.210938 C 16.21875 9.1875 16.21875 9.1875 16.03125 9 C 16.011719 8.761719 16.011719 8.761719 16.03125 8.53125 C 16.191406 8.371094 16.40625 8.425781 16.625 8.425781 Z M 16.625 8.425781 "/>
<path style=" stroke:none;fill-rule:nonzero;fill:rgb(89.803922%,77.64706%,18.431373%);fill-opacity:1;" d="M 15.507812 5.128906 C 15.632812 5.128906 15.632812 5.128906 15.761719 5.128906 C 15.851562 5.128906 15.941406 5.128906 16.035156 5.128906 C 16.125 5.128906 16.21875 5.128906 16.316406 5.125 C 16.511719 5.125 16.707031 5.125 16.902344 5.125 C 17.203125 5.125 17.5 5.125 17.800781 5.121094 C 17.992188 5.121094 18.183594 5.121094 18.371094 5.121094 C 18.460938 5.121094 18.550781 5.121094 18.644531 5.121094 C 18.726562 5.121094 18.8125 5.121094 18.898438 5.121094 C 18.972656 5.121094 19.042969 5.121094 19.121094 5.121094 C 19.363281 5.164062 19.449219 5.242188 19.59375 5.4375 C 19.554688 5.851562 19.554688 5.851562 19.40625 6 C 19.269531 6.011719 19.132812 6.011719 18.992188 6.011719 C 18.863281 6.015625 18.863281 6.015625 18.730469 6.015625 C 18.632812 6.015625 18.539062 6.015625 18.441406 6.015625 C 18.34375 6.015625 18.246094 6.015625 18.144531 6.015625 C 17.9375 6.015625 17.734375 6.015625 17.527344 6.015625 C 17.210938 6.015625 16.894531 6.019531 16.578125 6.019531 C 16.378906 6.019531 16.179688 6.019531 15.980469 6.023438 C 15.882812 6.023438 15.789062 6.023438 15.691406 6.023438 C 15.601562 6.023438 15.515625 6.023438 15.425781 6.023438 C 15.347656 6.023438 15.269531 6.023438 15.1875 6.023438 C 15 6 15 6 14.8125 5.8125 C 14.78125 5.578125 14.78125 5.578125 14.8125 5.34375 C 15.105469 5.148438 15.175781 5.132812 15.507812 5.128906 Z M 15.507812 5.128906 "/>
<path style=" stroke:none;fill-rule:nonzero;fill:rgb(89.803922%,77.64706%,18.431373%);fill-opacity:1;" d="M 15.414062 17.988281 C 15.542969 17.984375 15.542969 17.984375 15.675781 17.984375 C 15.773438 17.984375 15.867188 17.984375 15.964844 17.984375 C 16.0625 17.984375 16.160156 17.984375 16.261719 17.984375 C 16.46875 17.984375 16.671875 17.984375 16.878906 17.984375 C 17.195312 17.984375 17.511719 17.980469 17.828125 17.980469 C 18.027344 17.980469 18.226562 17.980469 18.425781 17.976562 C 18.523438 17.976562 18.617188 17.976562 18.714844 17.976562 C 18.804688 17.976562 18.890625 17.976562 18.980469 17.976562 C 19.058594 17.976562 19.136719 17.976562 19.21875 17.976562 C 19.40625 18 19.40625 18 19.59375 18.1875 C 19.570312 18.476562 19.570312 18.476562 19.5 18.75 C 19.28125 18.859375 19.152344 18.855469 18.90625 18.859375 C 18.824219 18.859375 18.742188 18.859375 18.65625 18.863281 C 18.519531 18.863281 18.519531 18.863281 18.382812 18.863281 C 18.242188 18.863281 18.242188 18.863281 18.101562 18.863281 C 17.902344 18.867188 17.707031 18.867188 17.511719 18.867188 C 17.210938 18.867188 16.910156 18.871094 16.609375 18.875 C 16.417969 18.875 16.226562 18.875 16.039062 18.875 C 15.902344 18.875 15.902344 18.875 15.765625 18.878906 C 15.679688 18.878906 15.597656 18.878906 15.507812 18.878906 C 15.398438 18.878906 15.398438 18.878906 15.285156 18.878906 C 15.042969 18.835938 14.957031 18.761719 14.8125 18.5625 C 14.859375 18.066406 14.929688 17.988281 15.414062 17.988281 Z M 15.414062 17.988281 "/>
<path style=" stroke:none;fill-rule:nonzero;fill:rgb(92.54902%,34.117648%,38.431373%);fill-opacity:1;" d="M 6.601562 17.988281 C 6.730469 17.984375 6.730469 17.984375 6.863281 17.984375 C 6.960938 17.984375 7.054688 17.984375 7.152344 17.984375 C 7.25 17.984375 7.347656 17.984375 7.449219 17.984375 C 7.65625 17.984375 7.859375 17.984375 8.066406 17.984375 C 8.382812 17.984375 8.699219 17.980469 9.015625 17.980469 C 9.214844 17.980469 9.414062 17.980469 9.613281 17.976562 C 9.710938 17.976562 9.804688 17.976562 9.902344 17.976562 C 9.992188 17.976562 10.078125 17.976562 10.167969 17.976562 C 10.246094 17.976562 10.324219 17.976562 10.40625 17.976562 C 10.59375 18 10.59375 18 10.78125 18.1875 C 10.8125 18.421875 10.8125 18.421875 10.78125 18.65625 C 10.488281 18.851562 10.417969 18.867188 10.085938 18.871094 C 9.960938 18.871094 9.960938 18.871094 9.832031 18.871094 C 9.742188 18.871094 9.652344 18.871094 9.558594 18.871094 C 9.46875 18.871094 9.375 18.871094 9.277344 18.875 C 9.082031 18.875 8.886719 18.875 8.691406 18.875 C 8.390625 18.875 8.09375 18.875 7.792969 18.878906 C 7.601562 18.878906 7.410156 18.878906 7.222656 18.878906 C 7.085938 18.878906 7.085938 18.878906 6.949219 18.878906 C 6.867188 18.878906 6.78125 18.878906 6.695312 18.878906 C 6.585938 18.878906 6.585938 18.878906 6.472656 18.878906 C 6.230469 18.835938 6.144531 18.757812 6 18.5625 C 6.046875 18.066406 6.117188 17.988281 6.601562 17.988281 Z M 6.601562 17.988281 "/>
<path style=" stroke:none;fill-rule:nonzero;fill:rgb(92.54902%,34.117648%,38.431373%);fill-opacity:1;" d="M 6.683594 5.132812 C 6.769531 5.132812 6.851562 5.132812 6.9375 5.128906 C 7.074219 5.132812 7.074219 5.132812 7.210938 5.132812 C 7.351562 5.132812 7.351562 5.132812 7.492188 5.132812 C 7.6875 5.132812 7.886719 5.132812 8.082031 5.132812 C 8.382812 5.132812 8.683594 5.132812 8.984375 5.132812 C 9.175781 5.132812 9.367188 5.132812 9.554688 5.132812 C 9.691406 5.132812 9.691406 5.132812 9.828125 5.128906 C 9.914062 5.132812 9.996094 5.132812 10.082031 5.132812 C 10.15625 5.132812 10.230469 5.132812 10.308594 5.132812 C 10.5 5.15625 10.5 5.15625 10.78125 5.34375 C 10.808594 5.578125 10.808594 5.578125 10.78125 5.8125 C 10.550781 6.042969 10.488281 6.023438 10.171875 6.023438 C 10.082031 6.023438 9.996094 6.027344 9.90625 6.027344 C 9.8125 6.027344 9.714844 6.027344 9.617188 6.023438 C 9.519531 6.027344 9.421875 6.027344 9.324219 6.027344 C 9.117188 6.027344 8.914062 6.027344 8.707031 6.023438 C 8.390625 6.023438 8.078125 6.023438 7.761719 6.027344 C 7.5625 6.027344 7.363281 6.027344 7.164062 6.023438 C 7.019531 6.027344 7.019531 6.027344 6.875 6.027344 C 6.789062 6.027344 6.699219 6.023438 6.609375 6.023438 C 6.492188 6.023438 6.492188 6.023438 6.375 6.023438 C 6.1875 6 6.1875 6 6 5.8125 C 6.050781 5.316406 6.183594 5.132812 6.683594 5.132812 Z M 6.683594 5.132812 "/>
<path style=" stroke:none;fill-rule:nonzero;fill:rgb(89.803922%,77.254903%,14.509805%);fill-opacity:1;" d="M 15.414062 11.613281 C 15.542969 11.609375 15.542969 11.609375 15.675781 11.609375 C 15.773438 11.609375 15.867188 11.609375 15.964844 11.609375 C 16.0625 11.609375 16.160156 11.609375 16.261719 11.609375 C 16.46875 11.609375 16.671875 11.609375 16.878906 11.609375 C 17.195312 11.609375 17.511719 11.605469 17.828125 11.605469 C 18.027344 11.605469 18.226562 11.605469 18.425781 11.601562 C 18.523438 11.601562 18.617188 11.601562 18.714844 11.601562 C 18.804688 11.601562 18.890625 11.601562 18.980469 11.601562 C 19.058594 11.601562 19.136719 11.601562 19.21875 11.601562 C 19.40625 11.625 19.40625 11.625 19.59375 11.8125 C 19.542969 12.238281 19.542969 12.238281 19.40625 12.375 C 19.269531 12.386719 19.132812 12.386719 18.996094 12.386719 C 18.863281 12.390625 18.863281 12.390625 18.730469 12.390625 C 18.632812 12.390625 18.539062 12.390625 18.441406 12.390625 C 18.34375 12.390625 18.246094 12.390625 18.144531 12.390625 C 17.9375 12.390625 17.734375 12.390625 17.527344 12.390625 C 17.210938 12.390625 16.894531 12.394531 16.578125 12.394531 C 16.378906 12.394531 16.179688 12.394531 15.980469 12.398438 C 15.882812 12.398438 15.789062 12.398438 15.691406 12.398438 C 15.601562 12.398438 15.515625 12.398438 15.425781 12.398438 C 15.347656 12.398438 15.269531 12.398438 15.1875 12.398438 C 15 12.375 15 12.375 14.8125 12.1875 C 14.875 11.691406 14.921875 11.613281 15.414062 11.613281 Z M 15.414062 11.613281 "/>
<path style=" stroke:none;fill-rule:nonzero;fill:rgb(92.54902%,30.980393%,35.686275%);fill-opacity:1;" d="M 6.601562 11.613281 C 6.730469 11.609375 6.730469 11.609375 6.863281 11.609375 C 6.960938 11.609375 7.054688 11.609375 7.152344 11.609375 C 7.25 11.609375 7.347656 11.609375 7.449219 11.609375 C 7.65625 11.609375 7.859375 11.609375 8.066406 11.609375 C 8.382812 11.609375 8.699219 11.605469 9.015625 11.605469 C 9.214844 11.605469 9.414062 11.605469 9.613281 11.601562 C 9.710938 11.601562 9.804688 11.601562 9.902344 11.601562 C 9.992188 11.601562 10.078125 11.601562 10.167969 11.601562 C 10.246094 11.601562 10.324219 11.601562 10.40625 11.601562 C 10.59375 11.625 10.59375 11.625 10.78125 11.8125 C 10.730469 12.238281 10.730469 12.238281 10.59375 12.375 C 10.457031 12.386719 10.320312 12.386719 10.183594 12.386719 C 10.050781 12.390625 10.050781 12.390625 9.917969 12.390625 C 9.820312 12.390625 9.726562 12.390625 9.628906 12.390625 C 9.53125 12.390625 9.433594 12.390625 9.332031 12.390625 C 9.125 12.390625 8.921875 12.390625 8.714844 12.390625 C 8.398438 12.390625 8.082031 12.394531 7.765625 12.394531 C 7.566406 12.394531 7.367188 12.394531 7.167969 12.398438 C 7.070312 12.398438 6.976562 12.398438 6.878906 12.398438 C 6.789062 12.398438 6.703125 12.398438 6.613281 12.398438 C 6.535156 12.398438 6.457031 12.398438 6.375 12.398438 C 6.1875 12.375 6.1875 12.375 6 12.1875 C 6.0625 11.691406 6.109375 11.613281 6.601562 11.613281 Z M 6.601562 11.613281 "/>
<path style=" stroke:none;fill-rule:nonzero;fill:rgb(92.54902%,34.117648%,38.82353%);fill-opacity:1;" d="M 7.910156 21.160156 C 7.976562 21.160156 8.042969 21.164062 8.113281 21.164062 C 8.183594 21.164062 8.253906 21.164062 8.328125 21.164062 C 8.476562 21.164062 8.625 21.164062 8.773438 21.164062 C 9 21.164062 9.226562 21.164062 9.453125 21.160156 C 9.597656 21.164062 9.742188 21.164062 9.886719 21.164062 C 9.953125 21.164062 10.019531 21.160156 10.089844 21.160156 C 10.570312 21.167969 10.570312 21.167969 10.78125 21.375 C 10.804688 21.609375 10.804688 21.609375 10.78125 21.84375 C 10.546875 22.078125 10.410156 22.054688 10.089844 22.058594 C 10.023438 22.058594 9.957031 22.058594 9.886719 22.054688 C 9.78125 22.058594 9.78125 22.058594 9.671875 22.058594 C 9.523438 22.058594 9.375 22.058594 9.226562 22.054688 C 9 22.054688 8.773438 22.054688 8.546875 22.058594 C 8.402344 22.058594 8.257812 22.058594 8.113281 22.054688 C 8.046875 22.058594 7.980469 22.058594 7.910156 22.058594 C 7.425781 22.054688 7.425781 22.054688 7.21875 21.84375 C 7.195312 21.609375 7.195312 21.609375 7.21875 21.375 C 7.453125 21.140625 7.589844 21.164062 7.910156 21.160156 Z M 7.910156 21.160156 "/>
<path style=" stroke:none;fill-rule:nonzero;fill:rgb(23.921569%,80.392158%,57.647061%);fill-opacity:1;" d="M 12.316406 21.160156 C 12.382812 21.160156 12.449219 21.164062 12.519531 21.164062 C 12.589844 21.164062 12.660156 21.164062 12.734375 21.164062 C 12.882812 21.164062 13.03125 21.164062 13.179688 21.164062 C 13.40625 21.164062 13.632812 21.164062 13.859375 21.160156 C 14.003906 21.164062 14.148438 21.164062 14.292969 21.164062 C 14.359375 21.164062 14.425781 21.160156 14.496094 21.160156 C 14.976562 21.167969 14.976562 21.167969 15.1875 21.375 C 15.214844 21.609375 15.214844 21.609375 15.1875 21.84375 C 14.847656 22.070312 14.601562 22.058594 14.207031 22.054688 C 14.105469 22.058594 14.105469 22.058594 14.003906 22.058594 C 13.859375 22.058594 13.714844 22.058594 13.574219 22.054688 C 13.355469 22.054688 13.132812 22.054688 12.914062 22.058594 C 12.777344 22.058594 12.636719 22.058594 12.496094 22.054688 C 12.398438 22.058594 12.398438 22.058594 12.296875 22.058594 C 11.832031 22.054688 11.832031 22.054688 11.625 21.84375 C 11.601562 21.609375 11.601562 21.609375 11.625 21.375 C 11.859375 21.140625 11.996094 21.164062 12.316406 21.160156 Z M 12.316406 21.160156 "/>
<path style=" stroke:none;fill-rule:nonzero;fill:rgb(92.54902%,31.37255%,36.078432%);fill-opacity:1;" d="M 7.632812 8.425781 C 7.777344 8.425781 7.917969 8.429688 8.058594 8.429688 C 8.132812 8.429688 8.210938 8.429688 8.285156 8.429688 C 8.527344 8.429688 8.765625 8.429688 9.003906 8.429688 C 9.167969 8.433594 9.328125 8.433594 9.492188 8.433594 C 9.890625 8.433594 10.289062 8.433594 10.6875 8.4375 C 10.746094 8.707031 10.746094 8.707031 10.78125 9 C 10.546875 9.234375 10.410156 9.210938 10.089844 9.214844 C 10.023438 9.214844 9.957031 9.210938 9.886719 9.210938 C 9.78125 9.210938 9.78125 9.210938 9.671875 9.210938 C 9.523438 9.214844 9.375 9.210938 9.226562 9.210938 C 9 9.210938 8.773438 9.210938 8.546875 9.214844 C 8.402344 9.214844 8.257812 9.210938 8.113281 9.210938 C 8.046875 9.210938 7.980469 9.214844 7.910156 9.214844 C 7.425781 9.207031 7.425781 9.207031 7.21875 9 C 7.199219 8.757812 7.199219 8.757812 7.21875 8.53125 C 7.3125 8.4375 7.3125 8.4375 7.632812 8.425781 Z M 7.632812 8.425781 "/>
<path style=" stroke:none;fill-rule:nonzero;fill:rgb(20.392157%,80.000001%,55.686277%);fill-opacity:1;" d="M 12.316406 14.785156 C 12.382812 14.785156 12.449219 14.789062 12.519531 14.789062 C 12.589844 14.789062 12.660156 14.789062 12.734375 14.789062 C 12.882812 14.789062 13.03125 14.789062 13.179688 14.789062 C 13.40625 14.789062 13.632812 14.789062 13.859375 14.785156 C 14.003906 14.789062 14.148438 14.789062 14.292969 14.789062 C 14.359375 14.789062 14.425781 14.785156 14.496094 14.785156 C 14.976562 14.792969 14.976562 14.792969 15.1875 15 C 15.136719 15.425781 15.136719 15.425781 15 15.5625 C 14.757812 15.570312 14.519531 15.574219 14.277344 15.574219 C 14.167969 15.574219 14.167969 15.574219 14.058594 15.574219 C 13.902344 15.574219 13.75 15.574219 13.597656 15.574219 C 13.359375 15.574219 13.125 15.574219 12.886719 15.574219 C 12.738281 15.574219 12.589844 15.574219 12.441406 15.574219 C 12.371094 15.574219 12.300781 15.574219 12.226562 15.574219 C 11.730469 15.574219 11.730469 15.574219 11.625 15.46875 C 11.605469 15.238281 11.605469 15.238281 11.625 15 C 11.859375 14.765625 11.996094 14.789062 12.316406 14.785156 Z M 12.316406 14.785156 "/>
<path style=" stroke:none;fill-rule:nonzero;fill:rgb(20.392157%,80.000001%,55.686277%);fill-opacity:1;" d="M 12.4375 8.421875 C 12.511719 8.421875 12.582031 8.421875 12.660156 8.421875 C 12.8125 8.417969 12.964844 8.417969 13.117188 8.417969 C 13.351562 8.417969 13.585938 8.417969 13.820312 8.417969 C 13.96875 8.417969 14.117188 8.417969 14.265625 8.417969 C 14.335938 8.414062 14.40625 8.414062 14.480469 8.414062 C 14.980469 8.417969 14.980469 8.417969 15.1875 8.625 C 15.136719 9.050781 15.136719 9.050781 15 9.1875 C 14.765625 9.199219 14.535156 9.203125 14.300781 9.203125 C 14.195312 9.203125 14.195312 9.203125 14.085938 9.203125 C 13.9375 9.203125 13.789062 9.203125 13.640625 9.203125 C 13.414062 9.207031 13.183594 9.207031 12.957031 9.207031 C 12.8125 9.210938 12.667969 9.210938 12.523438 9.210938 C 12.421875 9.210938 12.421875 9.210938 12.316406 9.210938 C 11.835938 9.210938 11.835938 9.210938 11.625 9 C 11.609375 8.761719 11.609375 8.761719 11.625 8.53125 C 11.8125 8.34375 12.183594 8.421875 12.4375 8.421875 Z M 12.4375 8.421875 "/>
<path style=" stroke:none;fill-rule:nonzero;fill:rgb(92.54902%,30.980393%,35.686275%);fill-opacity:1;" d="M 7.910156 14.785156 C 7.976562 14.785156 8.042969 14.789062 8.113281 14.789062 C 8.183594 14.789062 8.253906 14.789062 8.328125 14.789062 C 8.476562 14.789062 8.625 14.789062 8.773438 14.789062 C 9 14.789062 9.226562 14.789062 9.453125 14.785156 C 9.597656 14.789062 9.742188 14.789062 9.886719 14.789062 C 9.953125 14.789062 10.019531 14.785156 10.089844 14.785156 C 10.570312 14.792969 10.570312 14.792969 10.78125 15 C 10.730469 15.425781 10.730469 15.425781 10.59375 15.5625 C 10.351562 15.570312 10.109375 15.574219 9.867188 15.570312 C 9.792969 15.570312 9.722656 15.570312 9.648438 15.570312 C 9.414062 15.570312 9.179688 15.570312 8.949219 15.566406 C 8.789062 15.566406 8.632812 15.566406 8.472656 15.566406 C 8.085938 15.566406 7.699219 15.566406 7.3125 15.5625 C 7.253906 15.292969 7.253906 15.292969 7.21875 15 C 7.453125 14.765625 7.589844 14.789062 7.910156 14.785156 Z M 7.910156 14.785156 "/>
<path style=" stroke:none;fill-rule:nonzero;fill:rgb(92.54902%,34.117648%,38.82353%);fill-opacity:1;" d="M 7.847656 19.570312 C 7.9375 19.570312 8.023438 19.566406 8.113281 19.566406 C 8.203125 19.570312 8.296875 19.570312 8.390625 19.570312 C 8.480469 19.570312 8.574219 19.570312 8.667969 19.566406 C 8.753906 19.566406 8.84375 19.570312 8.933594 19.570312 C 9.011719 19.570312 9.09375 19.570312 9.175781 19.570312 C 9.375 19.59375 9.375 19.59375 9.5625 19.78125 C 9.585938 20.015625 9.585938 20.015625 9.5625 20.25 C 9.332031 20.480469 9.269531 20.460938 8.957031 20.460938 C 8.875 20.460938 8.789062 20.464844 8.707031 20.464844 C 8.621094 20.460938 8.53125 20.460938 8.441406 20.460938 C 8.355469 20.460938 8.269531 20.460938 8.183594 20.464844 C 8.097656 20.464844 8.015625 20.460938 7.929688 20.460938 C 7.855469 20.460938 7.777344 20.460938 7.703125 20.460938 C 7.5 20.4375 7.5 20.4375 7.21875 20.25 C 7.191406 20.015625 7.191406 20.015625 7.21875 19.78125 C 7.453125 19.546875 7.527344 19.570312 7.847656 19.570312 Z M 7.847656 19.570312 "/>
<path style=" stroke:none;fill-rule:nonzero;fill:rgb(23.529412%,80.392158%,57.647061%);fill-opacity:1;" d="M 11.570312 19.578125 C 11.664062 19.574219 11.757812 19.574219 11.851562 19.574219 C 11.9375 19.574219 12.027344 19.574219 12.117188 19.574219 C 12.199219 19.570312 12.277344 19.570312 12.363281 19.570312 C 12.5625 19.59375 12.5625 19.59375 12.75 19.78125 C 12.773438 20.015625 12.773438 20.015625 12.75 20.25 C 12.480469 20.519531 12.261719 20.464844 11.894531 20.46875 C 11.804688 20.46875 11.71875 20.46875 11.628906 20.46875 C 11.5 20.46875 11.5 20.46875 11.371094 20.472656 C 11.246094 20.472656 11.246094 20.472656 11.117188 20.472656 C 11.042969 20.472656 10.964844 20.472656 10.890625 20.472656 C 10.640625 20.429688 10.554688 20.359375 10.40625 20.15625 C 10.476562 19.402344 10.933594 19.578125 11.570312 19.578125 Z M 11.570312 19.578125 "/>
<path style=" stroke:none;fill-rule:nonzero;fill:rgb(23.529412%,80.392158%,57.647061%);fill-opacity:1;" d="M 12.253906 17.976562 C 12.34375 17.976562 12.429688 17.972656 12.519531 17.972656 C 12.609375 17.976562 12.703125 17.976562 12.796875 17.976562 C 12.886719 17.976562 12.980469 17.976562 13.074219 17.972656 C 13.160156 17.972656 13.25 17.976562 13.339844 17.976562 C 13.417969 17.976562 13.5 17.976562 13.582031 17.976562 C 13.78125 18 13.78125 18 13.96875 18.1875 C 13.996094 18.421875 13.996094 18.421875 13.96875 18.65625 C 13.679688 18.851562 13.609375 18.867188 13.28125 18.867188 C 13.203125 18.867188 13.125 18.871094 13.042969 18.871094 C 12.960938 18.867188 12.882812 18.867188 12.796875 18.867188 C 12.675781 18.867188 12.675781 18.867188 12.550781 18.871094 C 12.472656 18.871094 12.394531 18.867188 12.3125 18.867188 C 12.242188 18.867188 12.171875 18.867188 12.097656 18.867188 C 11.90625 18.84375 11.90625 18.84375 11.625 18.65625 C 11.597656 18.421875 11.597656 18.421875 11.625 18.1875 C 11.859375 17.953125 11.933594 17.976562 12.253906 17.976562 Z M 12.253906 17.976562 "/>
<path style=" stroke:none;fill-rule:nonzero;fill:rgb(23.529412%,80.392158%,57.647061%);fill-opacity:1;" d="M 12.3125 5.132812 C 12.390625 5.132812 12.46875 5.128906 12.550781 5.128906 C 12.632812 5.132812 12.710938 5.132812 12.796875 5.132812 C 12.917969 5.132812 12.917969 5.132812 13.042969 5.128906 C 13.121094 5.128906 13.199219 5.132812 13.28125 5.132812 C 13.351562 5.132812 13.421875 5.132812 13.496094 5.132812 C 13.6875 5.15625 13.6875 5.15625 13.96875 5.34375 C 14 5.578125 14 5.578125 13.96875 5.8125 C 13.734375 6.046875 13.660156 6.023438 13.339844 6.023438 C 13.25 6.023438 13.164062 6.027344 13.074219 6.027344 C 12.984375 6.023438 12.890625 6.023438 12.796875 6.023438 C 12.707031 6.023438 12.613281 6.023438 12.519531 6.027344 C 12.433594 6.027344 12.34375 6.023438 12.253906 6.023438 C 12.175781 6.023438 12.09375 6.023438 12.011719 6.023438 C 11.8125 6 11.8125 6 11.625 5.8125 C 11.59375 5.578125 11.59375 5.578125 11.625 5.34375 C 11.914062 5.148438 11.984375 5.132812 12.3125 5.132812 Z M 12.3125 5.132812 "/>
<path style=" stroke:none;fill-rule:nonzero;fill:rgb(20.784314%,80.000001%,56.078434%);fill-opacity:1;" d="M 11.050781 13.207031 C 11.144531 13.207031 11.234375 13.207031 11.332031 13.207031 C 11.425781 13.207031 11.523438 13.207031 11.625 13.207031 C 11.769531 13.207031 11.769531 13.207031 11.917969 13.207031 C 12.011719 13.207031 12.105469 13.207031 12.199219 13.207031 C 12.285156 13.207031 12.371094 13.207031 12.457031 13.207031 C 12.65625 13.21875 12.65625 13.21875 12.75 13.3125 C 12.761719 13.59375 12.761719 13.59375 12.75 13.875 C 12.523438 14.101562 11.9375 13.984375 11.632812 13.984375 C 11.535156 13.988281 11.4375 13.988281 11.339844 13.988281 C 11.199219 13.988281 11.199219 13.988281 11.058594 13.988281 C 10.933594 13.992188 10.933594 13.992188 10.804688 13.992188 C 10.59375 13.96875 10.59375 13.96875 10.40625 13.78125 C 10.46875 13.257812 10.539062 13.207031 11.050781 13.207031 Z M 11.050781 13.207031 "/>
<path style=" stroke:none;fill-rule:nonzero;fill:rgb(92.54902%,31.37255%,36.078432%);fill-opacity:1;" d="M 7.789062 6.832031 C 7.886719 6.832031 7.984375 6.832031 8.082031 6.832031 C 8.234375 6.832031 8.234375 6.832031 8.390625 6.832031 C 8.492188 6.832031 8.59375 6.832031 8.699219 6.832031 C 8.796875 6.832031 8.890625 6.832031 8.992188 6.832031 C 9.125 6.832031 9.125 6.832031 9.261719 6.832031 C 9.46875 6.84375 9.46875 6.84375 9.5625 6.9375 C 9.578125 7.164062 9.578125 7.164062 9.5625 7.40625 C 9.328125 7.640625 9.253906 7.617188 8.933594 7.617188 C 8.84375 7.617188 8.757812 7.617188 8.667969 7.621094 C 8.578125 7.617188 8.484375 7.617188 8.390625 7.617188 C 8.300781 7.617188 8.207031 7.617188 8.113281 7.621094 C 8.027344 7.617188 7.9375 7.617188 7.847656 7.617188 C 7.769531 7.617188 7.6875 7.617188 7.605469 7.617188 C 7.40625 7.59375 7.40625 7.59375 7.21875 7.40625 C 7.203125 7.164062 7.203125 7.164062 7.21875 6.9375 C 7.375 6.78125 7.574219 6.832031 7.789062 6.832031 Z M 7.789062 6.832031 "/>
<path style=" stroke:none;fill-rule:nonzero;fill:rgb(92.54902%,31.37255%,36.078432%);fill-opacity:1;" d="M 7.839844 13.207031 C 7.972656 13.207031 7.972656 13.207031 8.105469 13.207031 C 8.242188 13.207031 8.242188 13.207031 8.386719 13.207031 C 8.476562 13.207031 8.570312 13.207031 8.664062 13.207031 C 8.75 13.207031 8.839844 13.207031 8.929688 13.207031 C 9.050781 13.207031 9.050781 13.207031 9.175781 13.207031 C 9.375 13.21875 9.375 13.21875 9.5625 13.3125 C 9.566406 13.5 9.566406 13.6875 9.5625 13.875 C 9.335938 14.101562 8.746094 13.984375 8.441406 13.984375 C 8.347656 13.988281 8.25 13.988281 8.152344 13.988281 C 8.011719 13.988281 8.011719 13.988281 7.871094 13.988281 C 7.746094 13.992188 7.746094 13.992188 7.617188 13.992188 C 7.40625 13.96875 7.40625 13.96875 7.21875 13.78125 C 7.28125 13.273438 7.339844 13.207031 7.839844 13.207031 Z M 7.839844 13.207031 "/>
<path style=" stroke:none;fill-rule:nonzero;fill:rgb(20.392157%,80.000001%,55.686277%);fill-opacity:1;" d="M 11.050781 6.832031 C 11.144531 6.832031 11.234375 6.832031 11.332031 6.832031 C 11.425781 6.832031 11.523438 6.832031 11.625 6.832031 C 11.769531 6.832031 11.769531 6.832031 11.917969 6.832031 C 12.011719 6.832031 12.105469 6.832031 12.199219 6.832031 C 12.285156 6.832031 12.371094 6.832031 12.457031 6.832031 C 12.65625 6.84375 12.65625 6.84375 12.75 6.9375 C 12.753906 7.125 12.753906 7.3125 12.75 7.5 C 12.394531 7.675781 11.964844 7.609375 11.578125 7.609375 C 11.488281 7.613281 11.394531 7.613281 11.300781 7.613281 C 11.167969 7.613281 11.167969 7.613281 11.035156 7.613281 C 10.957031 7.617188 10.875 7.617188 10.792969 7.617188 C 10.59375 7.59375 10.59375 7.59375 10.40625 7.40625 C 10.46875 6.882812 10.539062 6.832031 11.050781 6.832031 Z M 11.050781 6.832031 "/>
<path style=" stroke:none;fill-rule:nonzero;fill:rgb(20%,80.000001%,55.686277%);fill-opacity:1;" d="M 12.789062 11.609375 C 12.882812 11.605469 12.976562 11.605469 13.070312 11.605469 C 13.15625 11.605469 13.246094 11.605469 13.335938 11.605469 C 13.417969 11.601562 13.496094 11.601562 13.582031 11.601562 C 13.78125 11.625 13.78125 11.625 13.96875 11.8125 C 13.917969 12.238281 13.917969 12.238281 13.78125 12.375 C 13.457031 12.398438 13.128906 12.390625 12.800781 12.394531 C 12.710938 12.394531 12.617188 12.394531 12.523438 12.394531 C 12.4375 12.394531 12.347656 12.398438 12.257812 12.398438 C 12.175781 12.398438 12.097656 12.398438 12.011719 12.398438 C 11.8125 12.375 11.8125 12.375 11.625 12.1875 C 11.714844 11.4375 12.136719 11.609375 12.789062 11.609375 Z M 12.789062 11.609375 "/>
<path style=" stroke:none;fill-rule:nonzero;fill:rgb(67.843139%,69.803923%,74.509805%);fill-opacity:1;" d="M 2.800781 21.164062 C 2.867188 21.164062 2.933594 21.164062 3 21.164062 C 3.066406 21.164062 3.132812 21.164062 3.199219 21.164062 C 3.375 21.1875 3.375 21.1875 3.5625 21.375 C 3.585938 21.609375 3.585938 21.609375 3.5625 21.84375 C 3.375 22.03125 3.375 22.03125 3.199219 22.054688 C 3.132812 22.054688 3.066406 22.054688 3 22.054688 C 2.933594 22.054688 2.867188 22.054688 2.800781 22.054688 C 2.625 22.03125 2.625 22.03125 2.4375 21.84375 C 2.414062 21.609375 2.414062 21.609375 2.4375 21.375 C 2.625 21.1875 2.625 21.1875 2.800781 21.164062 Z M 2.800781 21.164062 "/>
<path style=" stroke:none;fill-rule:nonzero;fill:rgb(67.843139%,69.803923%,74.509805%);fill-opacity:1;" d="M 2.800781 19.570312 C 2.867188 19.570312 2.933594 19.570312 3 19.570312 C 3.066406 19.570312 3.132812 19.570312 3.199219 19.570312 C 3.375 19.59375 3.375 19.59375 3.5625 19.78125 C 3.585938 20.015625 3.585938 20.015625 3.5625 20.25 C 3.375 20.4375 3.375 20.4375 3.199219 20.460938 C 3.132812 20.460938 3.066406 20.460938 3 20.460938 C 2.933594 20.460938 2.867188 20.460938 2.800781 20.460938 C 2.625 20.4375 2.625 20.4375 2.4375 20.25 C 2.414062 20.015625 2.414062 20.015625 2.4375 19.78125 C 2.625 19.59375 2.625 19.59375 2.800781 19.570312 Z M 2.800781 19.570312 "/>
<path style=" stroke:none;fill-rule:nonzero;fill:rgb(67.450982%,69.411767%,74.509805%);fill-opacity:1;" d="M 2.742188 11.613281 C 2.828125 11.613281 2.914062 11.613281 3 11.613281 C 3.128906 11.613281 3.128906 11.613281 3.257812 11.613281 C 3.46875 11.625 3.46875 11.625 3.5625 11.71875 C 3.574219 12 3.574219 12 3.5625 12.28125 C 3.46875 12.375 3.46875 12.375 3.257812 12.386719 C 3.171875 12.386719 3.089844 12.386719 3 12.386719 C 2.871094 12.386719 2.871094 12.386719 2.742188 12.386719 C 2.53125 12.375 2.53125 12.375 2.4375 12.28125 C 2.425781 12 2.425781 12 2.4375 11.71875 C 2.53125 11.625 2.53125 11.625 2.742188 11.613281 Z M 2.742188 11.613281 "/>
<path style=" stroke:none;fill-rule:nonzero;fill:rgb(67.058825%,69.01961%,74.117649%);fill-opacity:1;" d="M 3 13.203125 C 3.097656 13.199219 3.097656 13.199219 3.199219 13.199219 C 3.375 13.21875 3.375 13.21875 3.5625 13.40625 C 3.582031 13.648438 3.582031 13.648438 3.5625 13.875 C 3.46875 13.96875 3.46875 13.96875 3.257812 13.980469 C 3.171875 13.980469 3.089844 13.980469 3 13.980469 C 2.871094 13.980469 2.871094 13.980469 2.742188 13.980469 C 2.53125 13.96875 2.53125 13.96875 2.4375 13.875 C 2.433594 13.6875 2.433594 13.5 2.4375 13.3125 C 2.648438 13.207031 2.769531 13.203125 3 13.203125 Z M 3 13.203125 "/>
<path style=" stroke:none;fill-rule:nonzero;fill:rgb(67.058825%,69.01961%,73.725492%);fill-opacity:1;" d="M 2.800781 17.976562 C 2.867188 17.976562 2.933594 17.976562 3 17.976562 C 3.066406 17.976562 3.132812 17.976562 3.199219 17.976562 C 3.375 18 3.375 18 3.5625 18.1875 C 3.578125 18.429688 3.578125 18.429688 3.5625 18.65625 C 3.46875 18.75 3.46875 18.75 3.257812 18.761719 C 3.171875 18.761719 3.085938 18.761719 3 18.761719 C 2.871094 18.761719 2.871094 18.761719 2.742188 18.761719 C 2.53125 18.75 2.53125 18.75 2.4375 18.65625 C 2.421875 18.429688 2.421875 18.429688 2.4375 18.1875 C 2.625 18 2.625 18 2.800781 17.976562 Z M 2.800781 17.976562 "/>
<path style=" stroke:none;fill-rule:nonzero;fill:rgb(67.058825%,69.01961%,73.725492%);fill-opacity:1;" d="M 2.800781 16.382812 C 2.867188 16.382812 2.933594 16.382812 3 16.382812 C 3.066406 16.382812 3.132812 16.382812 3.199219 16.382812 C 3.375 16.40625 3.375 16.40625 3.5625 16.59375 C 3.578125 16.835938 3.578125 16.835938 3.5625 17.0625 C 3.46875 17.15625 3.46875 17.15625 3.257812 17.167969 C 3.171875 17.167969 3.085938 17.167969 3 17.167969 C 2.871094 17.167969 2.871094 17.167969 2.742188 17.167969 C 2.53125 17.15625 2.53125 17.15625 2.4375 17.0625 C 2.421875 16.835938 2.421875 16.835938 2.4375 16.59375 C 2.625 16.40625 2.625 16.40625 2.800781 16.382812 Z M 2.800781 16.382812 "/>
<path style=" stroke:none;fill-rule:nonzero;fill:rgb(67.058825%,69.01961%,73.725492%);fill-opacity:1;" d="M 2.800781 14.789062 C 2.867188 14.789062 2.933594 14.789062 3 14.789062 C 3.066406 14.789062 3.132812 14.789062 3.199219 14.789062 C 3.375 14.8125 3.375 14.8125 3.5625 15 C 3.578125 15.242188 3.578125 15.242188 3.5625 15.46875 C 3.46875 15.5625 3.46875 15.5625 3.257812 15.574219 C 3.171875 15.574219 3.085938 15.574219 3 15.574219 C 2.871094 15.574219 2.871094 15.574219 2.742188 15.574219 C 2.53125 15.5625 2.53125 15.5625 2.4375 15.46875 C 2.421875 15.242188 2.421875 15.242188 2.4375 15 C 2.625 14.8125 2.625 14.8125 2.800781 14.789062 Z M 2.800781 14.789062 "/>
<path style=" stroke:none;fill-rule:nonzero;fill:rgb(67.058825%,69.01961%,74.117649%);fill-opacity:1;" d="M 2.742188 10.019531 C 2.828125 10.019531 2.914062 10.019531 3 10.019531 C 3.128906 10.019531 3.128906 10.019531 3.257812 10.019531 C 3.46875 10.03125 3.46875 10.03125 3.5625 10.125 C 3.582031 10.351562 3.582031 10.351562 3.5625 10.59375 C 3.375 10.78125 3.375 10.78125 3.199219 10.804688 C 3.132812 10.804688 3.066406 10.804688 3 10.804688 C 2.933594 10.804688 2.867188 10.804688 2.800781 10.804688 C 2.625 10.78125 2.625 10.78125 2.4375 10.59375 C 2.417969 10.351562 2.417969 10.351562 2.4375 10.125 C 2.53125 10.03125 2.53125 10.03125 2.742188 10.019531 Z M 2.742188 10.019531 "/>
<path style=" stroke:none;fill-rule:nonzero;fill:rgb(67.058825%,69.01961%,73.725492%);fill-opacity:1;" d="M 2.742188 8.425781 C 2.828125 8.425781 2.914062 8.425781 3 8.425781 C 3.128906 8.425781 3.128906 8.425781 3.257812 8.425781 C 3.46875 8.4375 3.46875 8.4375 3.5625 8.53125 C 3.582031 8.757812 3.582031 8.757812 3.5625 9 C 3.375 9.1875 3.375 9.1875 3.199219 9.210938 C 3.132812 9.210938 3.066406 9.210938 3 9.210938 C 2.933594 9.210938 2.867188 9.210938 2.800781 9.210938 C 2.625 9.1875 2.625 9.1875 2.4375 9 C 2.417969 8.757812 2.417969 8.757812 2.4375 8.53125 C 2.53125 8.4375 2.53125 8.4375 2.742188 8.425781 Z M 2.742188 8.425781 "/>
<path style=" stroke:none;fill-rule:nonzero;fill:rgb(67.058825%,69.01961%,73.725492%);fill-opacity:1;" d="M 2.742188 6.832031 C 2.828125 6.832031 2.914062 6.832031 3 6.832031 C 3.128906 6.832031 3.128906 6.832031 3.257812 6.832031 C 3.46875 6.84375 3.46875 6.84375 3.5625 6.9375 C 3.582031 7.164062 3.582031 7.164062 3.5625 7.40625 C 3.375 7.59375 3.375 7.59375 3.199219 7.617188 C 3.132812 7.617188 3.066406 7.617188 3 7.617188 C 2.933594 7.617188 2.867188 7.617188 2.800781 7.617188 C 2.625 7.59375 2.625 7.59375 2.4375 7.40625 C 2.417969 7.164062 2.417969 7.164062 2.4375 6.9375 C 2.53125 6.84375 2.53125 6.84375 2.742188 6.832031 Z M 2.742188 6.832031 "/>
<path style=" stroke:none;fill-rule:nonzero;fill:rgb(67.058825%,69.01961%,73.725492%);fill-opacity:1;" d="M 2.742188 5.238281 C 2.828125 5.238281 2.914062 5.238281 3 5.238281 C 3.128906 5.238281 3.128906 5.238281 3.257812 5.238281 C 3.46875 5.25 3.46875 5.25 3.5625 5.34375 C 3.582031 5.570312 3.582031 5.570312 3.5625 5.8125 C 3.375 6 3.375 6 3.199219 6.023438 C 3.132812 6.023438 3.066406 6.023438 3 6.023438 C 2.933594 6.023438 2.867188 6.023438 2.800781 6.023438 C 2.625 6 2.625 6 2.4375 5.8125 C 2.417969 5.570312 2.417969 5.570312 2.4375 5.34375 C 2.53125 5.25 2.53125 5.25 2.742188 5.238281 Z M 2.742188 5.238281 "/>
<path style=" stroke:none;fill-rule:nonzero;fill:rgb(85.882354%,80.000001%,22.745098%);fill-opacity:1;" d="M 3.375 1.59375 C 3.667969 1.628906 3.667969 1.628906 3.9375 1.6875 C 4.003906 1.902344 4.003906 1.902344 4.03125 2.15625 C 3.925781 2.332031 3.925781 2.332031 3.75 2.4375 C 3.496094 2.410156 3.496094 2.410156 3.28125 2.34375 C 3.222656 2.074219 3.222656 2.074219 3.1875 1.78125 C 3.25 1.71875 3.3125 1.65625 3.375 1.59375 Z M 3.375 1.59375 "/>
<path style=" stroke:none;fill-rule:nonzero;fill:rgb(18.82353%,73.725492%,54.11765%);fill-opacity:1;" d="M 1.78125 1.59375 C 2.089844 1.625 2.214844 1.652344 2.4375 1.875 C 2.402344 2.148438 2.355469 2.238281 2.15625 2.4375 C 1.910156 2.402344 1.910156 2.402344 1.6875 2.34375 C 1.628906 2.074219 1.628906 2.074219 1.59375 1.78125 C 1.65625 1.71875 1.71875 1.65625 1.78125 1.59375 Z M 1.78125 1.59375 "/>
<path style=" stroke:none;fill-rule:nonzero;fill:rgb(85.490197%,29.411766%,36.078432%);fill-opacity:1;" d="M 4.96875 1.59375 C 5.15625 1.621094 5.34375 1.652344 5.53125 1.6875 C 5.597656 1.902344 5.597656 1.902344 5.625 2.15625 C 5.511719 2.332031 5.511719 2.332031 5.34375 2.4375 C 5.066406 2.414062 4.984375 2.359375 4.78125 2.15625 C 4.832031 1.730469 4.832031 1.730469 4.96875 1.59375 Z M 4.96875 1.59375 "/>
</g>
</svg>
