<?xml version="1.0" encoding="UTF-8"?>
<svg xmlns="http://www.w3.org/2000/svg" xmlns:xlink="http://www.w3.org/1999/xlink" width="24" height="24" viewBox="0 0 24 24" version="1.1">
<g id="surface1">
<path style=" stroke:none;fill-rule:nonzero;fill:rgb(0.784314%,0.392157%,0%);fill-opacity:1;" d="M 7.78125 0.375 C 7.996094 0.484375 8.203125 0.601562 8.414062 0.722656 C 10.042969 1.617188 11.8125 2.011719 13.652344 2.167969 C 13.746094 2.175781 13.839844 2.183594 13.9375 2.191406 C 14.167969 2.210938 14.394531 2.230469 14.625 2.25 C 14.632812 2.960938 14.636719 3.671875 14.640625 4.382812 C 14.640625 4.710938 14.644531 5.042969 14.648438 5.371094 C 14.648438 5.753906 14.652344 6.136719 14.652344 6.515625 C 14.652344 6.632812 14.65625 6.75 14.65625 6.867188 C 14.65625 9 13.84375 10.949219 12.46875 12.5625 C 12.382812 12.679688 12.382812 12.679688 12.292969 12.796875 C 12.070312 13.058594 11.832031 13.261719 11.558594 13.476562 C 11.46875 13.550781 11.378906 13.621094 11.285156 13.699219 C 11.175781 13.785156 11.175781 13.785156 11.0625 13.875 C 10.707031 14.230469 10.910156 14.871094 10.875 15.375 C 12.855469 15.34375 14.835938 15.3125 16.875 15.28125 C 16.71875 15.15625 16.566406 15.035156 16.40625 14.90625 C 15.46875 13.808594 15.253906 12.6875 15.351562 11.285156 C 15.46875 10.246094 16.039062 9.386719 16.8125 8.714844 C 17.925781 7.882812 19.078125 7.722656 20.4375 7.875 C 21.582031 8.128906 22.484375 8.804688 23.113281 9.789062 C 23.71875 10.859375 23.800781 12.058594 23.558594 13.261719 C 23.285156 14.085938 22.746094 14.691406 22.125 15.28125 C 22.621094 15.3125 23.113281 15.34375 23.625 15.375 C 23.625 17.601562 23.625 19.828125 23.625 22.125 C 22.71875 22.113281 21.8125 22.101562 20.878906 22.09375 C 20.300781 22.089844 19.71875 22.085938 19.140625 22.085938 C 18.222656 22.082031 17.304688 22.078125 16.386719 22.066406 C 15.503906 22.054688 14.621094 22.046875 13.738281 22.050781 C 13.664062 22.050781 13.59375 22.054688 13.523438 22.054688 C 11.398438 22.070312 9.554688 22.246094 7.828125 23.605469 C 7.59375 23.71875 7.59375 23.71875 7.304688 23.652344 C 6.984375 23.511719 6.675781 23.367188 6.363281 23.207031 C 6.304688 23.179688 6.242188 23.148438 6.179688 23.117188 C 6.050781 23.050781 5.921875 22.988281 5.792969 22.921875 C 5.59375 22.820312 5.398438 22.722656 5.199219 22.625 C 5.074219 22.5625 4.949219 22.5 4.824219 22.433594 C 4.765625 22.40625 4.703125 22.375 4.644531 22.34375 C 4.230469 22.136719 4.230469 22.136719 4.125 22.03125 C 4.117188 21.792969 4.117188 21.558594 4.121094 21.324219 C 4.121094 21.257812 4.121094 21.1875 4.121094 21.121094 C 4.121094 20.953125 4.125 20.789062 4.125 20.625 C 4.496094 20.625 4.867188 20.625 5.25 20.625 C 5.25 20.378906 5.25 20.128906 5.25 19.875 C 4.878906 19.875 4.507812 19.875 4.125 19.875 C 4.125 18.886719 4.125 17.894531 4.125 16.875 C 4.496094 16.875 4.867188 16.875 5.25 16.875 C 5.25 16.628906 5.25 16.378906 5.25 16.125 C 4.878906 16.125 4.507812 16.125 4.125 16.125 C 4.128906 15.980469 4.132812 15.832031 4.136719 15.683594 C 4.179688 14.625 4.179688 14.625 3.832031 13.652344 C 3.597656 13.449219 3.359375 13.285156 3.09375 13.125 C 2.933594 12.972656 2.777344 12.816406 2.625 12.65625 C 2.578125 12.609375 2.527344 12.558594 2.476562 12.507812 C 1.226562 11.175781 0.359375 9.121094 0.363281 7.292969 C 0.363281 7.183594 0.363281 7.070312 0.363281 6.953125 C 0.363281 6.832031 0.367188 6.714844 0.367188 6.589844 C 0.367188 6.464844 0.367188 6.339844 0.367188 6.214844 C 0.367188 5.886719 0.367188 5.558594 0.367188 5.226562 C 0.371094 4.894531 0.371094 4.558594 0.371094 4.222656 C 0.371094 3.5625 0.375 2.90625 0.375 2.25 C 0.488281 2.238281 0.488281 2.238281 0.601562 2.226562 C 0.945312 2.191406 1.289062 2.15625 1.632812 2.121094 C 1.753906 2.109375 1.871094 2.09375 1.992188 2.082031 C 3.808594 1.890625 5.609375 1.445312 7.125 0.367188 C 7.386719 0.246094 7.507812 0.285156 7.78125 0.375 Z M 7.78125 0.375 "/>
<path style=" stroke:none;fill-rule:nonzero;fill:rgb(2.352941%,1.960784%,1.176471%);fill-opacity:1;" d="M 7.78125 1.3125 C 7.910156 1.371094 8.035156 1.429688 8.160156 1.492188 C 9.058594 1.9375 9.902344 2.296875 10.875 2.53125 C 11.007812 2.570312 11.007812 2.570312 11.140625 2.609375 C 11.746094 2.78125 12.347656 2.855469 12.976562 2.914062 C 13.0625 2.921875 13.148438 2.929688 13.238281 2.941406 C 13.449219 2.960938 13.664062 2.980469 13.875 3 C 13.878906 3.621094 13.882812 4.242188 13.886719 4.859375 C 13.886719 5.070312 13.886719 5.28125 13.890625 5.492188 C 13.890625 5.796875 13.894531 6.101562 13.894531 6.40625 C 13.894531 6.5 13.894531 6.589844 13.898438 6.6875 C 13.898438 7.617188 13.773438 8.515625 13.429688 9.378906 C 13.394531 9.476562 13.394531 9.476562 13.355469 9.574219 C 12.53125 11.640625 11.027344 13.203125 9.019531 14.144531 C 8.855469 14.210938 8.695312 14.277344 8.53125 14.34375 C 8.457031 14.375 8.382812 14.40625 8.304688 14.4375 C 7.480469 14.753906 6.882812 14.542969 6.101562 14.199219 C 3.886719 13.160156 2.394531 11.519531 1.511719 9.253906 C 1.183594 8.347656 1.097656 7.445312 1.105469 6.488281 C 1.105469 6.386719 1.105469 6.285156 1.105469 6.183594 C 1.109375 5.867188 1.109375 5.550781 1.113281 5.230469 C 1.113281 5.015625 1.113281 4.800781 1.117188 4.582031 C 1.117188 4.054688 1.121094 3.527344 1.125 3 C 1.1875 2.992188 1.25 2.984375 1.316406 2.976562 C 1.605469 2.945312 1.894531 2.910156 2.183594 2.875 C 2.332031 2.859375 2.332031 2.859375 2.484375 2.839844 C 4.117188 2.644531 5.703125 2.132812 7.144531 1.335938 C 7.4375 1.203125 7.488281 1.214844 7.78125 1.3125 Z M 7.78125 1.3125 "/>
<path style=" stroke:none;fill-rule:nonzero;fill:rgb(89.411765%,90.588236%,92.156863%);fill-opacity:1;" d="M 10.875 16.125 C 14.835938 16.125 18.796875 16.125 22.875 16.125 C 22.875 17.859375 22.875 19.589844 22.875 21.375 C 18.914062 21.375 14.953125 21.375 10.875 21.375 C 10.875 19.640625 10.875 17.910156 10.875 16.125 Z M 10.875 16.125 "/>
<path style=" stroke:none;fill-rule:nonzero;fill:rgb(98.431373%,50.196081%,42.352942%);fill-opacity:1;" d="M 21.765625 9.445312 C 22.429688 10.0625 22.828125 10.792969 22.894531 11.699219 C 22.914062 12.824219 22.589844 13.671875 21.824219 14.5 C 21.285156 15.015625 20.621094 15.335938 19.875 15.375 C 19.800781 15.378906 19.730469 15.382812 19.65625 15.390625 C 18.609375 15.429688 17.761719 15.027344 16.996094 14.328125 C 16.289062 13.582031 16.09375 12.726562 16.105469 11.730469 C 16.171875 10.734375 16.613281 10.0625 17.332031 9.398438 C 18.648438 8.296875 20.445312 8.375 21.765625 9.445312 Z M 21.765625 9.445312 "/>
<path style=" stroke:none;fill-rule:nonzero;fill:rgb(98.431373%,90.196079%,64.313728%);fill-opacity:1;" d="M 8.507812 3.445312 C 9.039062 3.664062 9.570312 3.851562 10.125 4.007812 C 10.1875 4.027344 10.25 4.046875 10.316406 4.0625 C 10.992188 4.25 11.683594 4.324219 12.375 4.40625 C 12.378906 4.800781 12.382812 5.191406 12.386719 5.585938 C 12.386719 5.71875 12.386719 5.851562 12.390625 5.984375 C 12.402344 7.089844 12.371094 8.160156 11.902344 9.183594 C 11.859375 9.273438 11.859375 9.273438 11.816406 9.371094 C 11.074219 10.953125 11.074219 10.953125 10.519531 11.246094 C 10.199219 11.253906 9.898438 11.183594 9.585938 11.113281 C 9.519531 11.101562 9.457031 11.085938 9.386719 11.074219 C 9.226562 11.039062 9.066406 11.003906 8.90625 10.96875 C 8.847656 10.699219 8.847656 10.699219 8.8125 10.40625 C 8.964844 10.246094 9.121094 10.089844 9.28125 9.9375 C 9.386719 9.742188 9.46875 9.542969 9.550781 9.339844 C 9.714844 8.960938 9.902344 8.597656 10.089844 8.230469 C 10.457031 7.484375 10.570312 6.78125 10.304688 5.972656 C 9.945312 5.207031 9.53125 4.742188 8.777344 4.371094 C 7.898438 4.054688 6.875 4.066406 6.027344 4.457031 C 5.582031 4.722656 5.242188 4.996094 4.96875 5.4375 C 4.929688 5.5 4.890625 5.558594 4.851562 5.625 C 4.488281 6.308594 4.460938 7.066406 4.6875 7.800781 C 4.800781 8.082031 4.925781 8.355469 5.0625 8.625 C 5.097656 8.695312 5.132812 8.769531 5.167969 8.84375 C 5.226562 8.964844 5.289062 9.089844 5.355469 9.210938 C 5.433594 9.363281 5.503906 9.519531 5.574219 9.675781 C 5.710938 9.953125 5.710938 9.953125 5.976562 10.171875 C 6.082031 10.289062 6.082031 10.289062 6.1875 10.40625 C 6.152344 10.703125 6.152344 10.703125 6.09375 10.96875 C 6.011719 10.980469 5.929688 10.992188 5.84375 11.007812 C 5.679688 11.03125 5.679688 11.03125 5.511719 11.058594 C 5.351562 11.082031 5.351562 11.082031 5.1875 11.105469 C 4.925781 11.148438 4.664062 11.195312 4.40625 11.25 C 3.296875 9.882812 2.609375 8.398438 2.617188 6.613281 C 2.617188 6.550781 2.617188 6.484375 2.617188 6.421875 C 2.617188 6.21875 2.617188 6.019531 2.621094 5.816406 C 2.621094 5.679688 2.621094 5.542969 2.621094 5.40625 C 2.621094 5.074219 2.625 4.738281 2.625 4.40625 C 2.738281 4.390625 2.847656 4.375 2.960938 4.359375 C 4.121094 4.195312 5.207031 3.949219 6.292969 3.496094 C 6.355469 3.472656 6.417969 3.445312 6.484375 3.417969 C 6.65625 3.34375 6.828125 3.269531 7.003906 3.191406 C 7.570312 3.011719 7.980469 3.21875 8.507812 3.445312 Z M 8.507812 3.445312 "/>
<path style=" stroke:none;fill-rule:nonzero;fill:rgb(96.078432%,81.960785%,42.745098%);fill-opacity:1;" d="M 7.78125 1.3125 C 7.910156 1.371094 8.035156 1.429688 8.160156 1.492188 C 9.058594 1.9375 9.902344 2.296875 10.875 2.53125 C 11.007812 2.570312 11.007812 2.570312 11.140625 2.609375 C 11.746094 2.78125 12.347656 2.855469 12.976562 2.914062 C 13.0625 2.921875 13.148438 2.929688 13.238281 2.941406 C 13.449219 2.960938 13.664062 2.980469 13.875 3 C 13.878906 3.621094 13.882812 4.242188 13.886719 4.859375 C 13.886719 5.070312 13.886719 5.28125 13.890625 5.492188 C 13.890625 5.796875 13.894531 6.101562 13.894531 6.40625 C 13.894531 6.5 13.894531 6.589844 13.898438 6.6875 C 13.898438 7.617188 13.773438 8.515625 13.429688 9.378906 C 13.394531 9.476562 13.394531 9.476562 13.355469 9.574219 C 12.53125 11.640625 11.027344 13.203125 9.019531 14.144531 C 8.855469 14.210938 8.695312 14.277344 8.53125 14.34375 C 8.457031 14.375 8.382812 14.40625 8.304688 14.4375 C 7.480469 14.753906 6.882812 14.542969 6.101562 14.199219 C 3.886719 13.160156 2.394531 11.519531 1.511719 9.253906 C 1.183594 8.347656 1.097656 7.445312 1.105469 6.488281 C 1.105469 6.386719 1.105469 6.285156 1.105469 6.183594 C 1.109375 5.867188 1.109375 5.550781 1.113281 5.230469 C 1.113281 5.015625 1.113281 4.800781 1.117188 4.582031 C 1.117188 4.054688 1.121094 3.527344 1.125 3 C 1.1875 2.992188 1.25 2.984375 1.316406 2.976562 C 1.605469 2.945312 1.894531 2.910156 2.183594 2.875 C 2.332031 2.859375 2.332031 2.859375 2.484375 2.839844 C 4.117188 2.644531 5.703125 2.132812 7.144531 1.335938 C 7.4375 1.203125 7.488281 1.214844 7.78125 1.3125 Z M 6.660156 2.542969 C 5.128906 3.238281 3.539062 3.558594 1.875 3.75 C 1.871094 4.234375 1.867188 4.71875 1.863281 5.203125 C 1.863281 5.371094 1.863281 5.535156 1.859375 5.699219 C 1.835938 8.101562 2.320312 10.160156 4.050781 11.929688 C 4.953125 12.8125 6.019531 13.464844 7.21875 13.875 C 8.707031 13.847656 10.046875 12.808594 11.0625 11.8125 C 11.121094 11.753906 11.179688 11.695312 11.242188 11.636719 C 12.867188 9.914062 13.160156 7.722656 13.136719 5.457031 C 13.136719 5.289062 13.136719 5.121094 13.132812 4.957031 C 13.132812 4.554688 13.128906 4.152344 13.125 3.75 C 13.074219 3.746094 13.019531 3.738281 12.964844 3.734375 C 11.203125 3.539062 9.546875 3.191406 7.960938 2.375 C 7.453125 2.144531 7.128906 2.320312 6.660156 2.542969 Z M 6.660156 2.542969 "/>
<path style=" stroke:none;fill-rule:nonzero;fill:rgb(98.039216%,83.529413%,43.529412%);fill-opacity:1;" d="M 10.125 14.4375 C 10.125 14.652344 10.125 14.871094 10.125 15.09375 C 9.660156 15.21875 9.195312 15.339844 8.71875 15.46875 C 8.71875 16.398438 8.71875 17.324219 8.71875 18.28125 C 9.183594 18.40625 9.648438 18.527344 10.125 18.65625 C 10.125 19.617188 10.125 20.574219 10.125 21.5625 C 9.621094 21.816406 9.621094 21.816406 9.105469 22.078125 C 8.945312 22.160156 8.945312 22.160156 8.785156 22.242188 C 8.699219 22.285156 8.617188 22.324219 8.53125 22.367188 C 8.445312 22.410156 8.363281 22.453125 8.273438 22.5 C 8.0625 22.59375 8.0625 22.59375 7.875 22.59375 C 7.875 20.179688 7.875 17.765625 7.875 15.28125 C 8.121094 15.1875 8.371094 15.09375 8.625 15 C 8.972656 14.851562 9.316406 14.703125 9.65625 14.550781 C 9.9375 14.4375 9.9375 14.4375 10.125 14.4375 Z M 10.125 14.4375 "/>
<path style=" stroke:none;fill-rule:nonzero;fill:rgb(98.039216%,83.92157%,43.529412%);fill-opacity:1;" d="M 4.875 14.4375 C 5.355469 14.59375 5.816406 14.78125 6.28125 14.980469 C 6.558594 15.09375 6.84375 15.1875 7.125 15.28125 C 7.125 17.695312 7.125 20.109375 7.125 22.59375 C 6.765625 22.472656 6.46875 22.371094 6.140625 22.203125 C 6.027344 22.148438 6.027344 22.148438 5.914062 22.089844 C 5.835938 22.050781 5.761719 22.011719 5.683594 21.972656 C 5.605469 21.933594 5.527344 21.894531 5.449219 21.851562 C 5.257812 21.757812 5.066406 21.660156 4.875 21.5625 C 4.875 21.5 4.875 21.4375 4.875 21.375 C 5.246094 21.375 5.617188 21.375 6 21.375 C 6 20.632812 6 19.890625 6 19.125 C 5.628906 19.125 5.257812 19.125 4.875 19.125 C 4.875 18.628906 4.875 18.136719 4.875 17.625 C 5.246094 17.625 5.617188 17.625 6 17.625 C 6 16.882812 6 16.140625 6 15.375 C 5.628906 15.375 5.257812 15.375 4.875 15.375 C 4.875 15.066406 4.875 14.757812 4.875 14.4375 Z M 4.875 14.4375 "/>
<path style=" stroke:none;fill-rule:nonzero;fill:rgb(0.392157%,0.392157%,0.392157%);fill-opacity:1;" d="M 19.125 16.875 C 19.371094 16.875 19.621094 16.875 19.875 16.875 C 19.90625 17.152344 19.9375 17.433594 19.96875 17.71875 C 20.0625 17.625 20.15625 17.53125 20.25 17.4375 C 20.527344 17.460938 20.609375 17.515625 20.8125 17.71875 C 20.777344 17.992188 20.730469 18.082031 20.53125 18.28125 C 20.808594 18.3125 21.089844 18.34375 21.375 18.375 C 21.375 18.621094 21.375 18.871094 21.375 19.125 C 21.097656 19.15625 20.816406 19.1875 20.53125 19.21875 C 20.625 19.3125 20.71875 19.40625 20.8125 19.5 C 20.714844 19.746094 20.65625 19.855469 20.425781 19.992188 C 20.367188 20.015625 20.308594 20.039062 20.25 20.0625 C 20.15625 19.96875 20.0625 19.875 19.96875 19.78125 C 19.9375 20.058594 19.90625 20.339844 19.875 20.625 C 19.628906 20.625 19.378906 20.625 19.125 20.625 C 19.09375 20.347656 19.0625 20.066406 19.03125 19.78125 C 18.890625 19.921875 18.890625 19.921875 18.75 20.0625 C 18.503906 19.964844 18.394531 19.90625 18.257812 19.675781 C 18.234375 19.617188 18.210938 19.558594 18.1875 19.5 C 18.28125 19.40625 18.375 19.3125 18.46875 19.21875 C 18.191406 19.1875 17.910156 19.15625 17.625 19.125 C 17.625 18.878906 17.625 18.628906 17.625 18.375 C 18.042969 18.328125 18.042969 18.328125 18.46875 18.28125 C 18.375 18.1875 18.28125 18.09375 18.1875 18 C 18.285156 17.753906 18.34375 17.644531 18.574219 17.507812 C 18.632812 17.484375 18.691406 17.460938 18.75 17.4375 C 18.84375 17.53125 18.9375 17.625 19.03125 17.71875 C 19.0625 17.441406 19.09375 17.160156 19.125 16.875 Z M 19.125 16.875 "/>
<path style=" stroke:none;fill-rule:nonzero;fill:rgb(0.392157%,0.392157%,0.392157%);fill-opacity:1;" d="M 13.875 16.875 C 14.121094 16.875 14.371094 16.875 14.625 16.875 C 14.65625 17.152344 14.6875 17.433594 14.71875 17.71875 C 14.8125 17.625 14.90625 17.53125 15 17.4375 C 15.277344 17.460938 15.359375 17.515625 15.5625 17.71875 C 15.527344 17.992188 15.480469 18.082031 15.28125 18.28125 C 15.558594 18.3125 15.839844 18.34375 16.125 18.375 C 16.125 18.621094 16.125 18.871094 16.125 19.125 C 15.847656 19.15625 15.566406 19.1875 15.28125 19.21875 C 15.375 19.3125 15.46875 19.40625 15.5625 19.5 C 15.464844 19.746094 15.40625 19.855469 15.175781 19.992188 C 15.117188 20.015625 15.058594 20.039062 15 20.0625 C 14.90625 19.96875 14.8125 19.875 14.71875 19.78125 C 14.6875 20.058594 14.65625 20.339844 14.625 20.625 C 14.378906 20.625 14.128906 20.625 13.875 20.625 C 13.84375 20.347656 13.8125 20.066406 13.78125 19.78125 C 13.640625 19.921875 13.640625 19.921875 13.5 20.0625 C 13.253906 19.964844 13.144531 19.90625 13.007812 19.675781 C 12.984375 19.617188 12.960938 19.558594 12.9375 19.5 C 13.03125 19.40625 13.125 19.3125 13.21875 19.21875 C 12.941406 19.1875 12.660156 19.15625 12.375 19.125 C 12.375 18.878906 12.375 18.628906 12.375 18.375 C 12.792969 18.328125 12.792969 18.328125 13.21875 18.28125 C 13.125 18.1875 13.03125 18.09375 12.9375 18 C 13.035156 17.753906 13.09375 17.644531 13.324219 17.507812 C 13.382812 17.484375 13.441406 17.460938 13.5 17.4375 C 13.59375 17.53125 13.6875 17.625 13.78125 17.71875 C 13.8125 17.441406 13.84375 17.160156 13.875 16.875 Z M 13.875 16.875 "/>
<path style=" stroke:none;fill-rule:nonzero;fill:rgb(67.843139%,45.882353%,26.666668%);fill-opacity:1;" d="M 8.4375 4.949219 C 9.109375 5.25 9.429688 5.734375 9.75 6.375 C 9.761719 6.527344 9.765625 6.683594 9.765625 6.839844 C 9.769531 6.917969 9.769531 7.003906 9.773438 7.085938 C 9.75 7.3125 9.75 7.3125 9.5625 7.59375 C 9.492188 7.519531 9.421875 7.445312 9.351562 7.371094 C 9.058594 7.125 8.820312 7.082031 8.445312 7.035156 C 7.960938 6.972656 7.679688 6.867188 7.332031 6.523438 C 7.179688 6.324219 7.132812 6.15625 7.125 5.90625 C 6.910156 5.96875 6.691406 6.03125 6.46875 6.09375 C 6.5 6.308594 6.53125 6.527344 6.5625 6.75 C 6.5 6.789062 6.433594 6.824219 6.367188 6.863281 C 6.28125 6.914062 6.199219 6.960938 6.109375 7.011719 C 6.027344 7.0625 5.945312 7.113281 5.859375 7.160156 C 5.65625 7.292969 5.503906 7.417969 5.34375 7.59375 C 5.15625 7.027344 5.164062 6.46875 5.429688 5.929688 C 6.082031 4.875 7.304688 4.648438 8.4375 4.949219 Z M 8.4375 4.949219 "/>
<path style=" stroke:none;fill-rule:nonzero;fill:rgb(92.54902%,80.392158%,69.411767%);fill-opacity:1;" d="M 7.5 7.5 C 7.839844 7.574219 8.179688 7.640625 8.523438 7.707031 C 8.8125 7.78125 8.8125 7.78125 9 7.96875 C 9.070312 8.542969 9.0625 9.082031 8.71875 9.5625 C 8.34375 9.941406 8.007812 10.136719 7.472656 10.152344 C 7.035156 10.148438 6.800781 10.039062 6.46875 9.75 C 6.019531 9.238281 5.957031 8.917969 5.960938 8.242188 C 6 7.953125 6.035156 7.859375 6.253906 7.675781 C 6.953125 7.277344 6.953125 7.277344 7.5 7.5 Z M 7.5 7.5 "/>
<path style=" stroke:none;fill-rule:nonzero;fill:rgb(2.352941%,1.176471%,0.784314%);fill-opacity:1;" d="M 21.375 9.9375 C 21.621094 10.035156 21.730469 10.09375 21.867188 10.324219 C 21.890625 10.382812 21.914062 10.441406 21.9375 10.5 C 19.828125 12.84375 19.828125 12.84375 19.617188 13.074219 C 19.46875 13.242188 19.324219 13.410156 19.179688 13.578125 C 19.105469 13.664062 19.03125 13.75 18.957031 13.839844 C 18.855469 13.957031 18.855469 13.957031 18.753906 14.078125 C 18.5625 14.25 18.5625 14.25 18.1875 14.25 C 17.976562 14.066406 17.789062 13.890625 17.601562 13.6875 C 17.523438 13.605469 17.523438 13.605469 17.445312 13.523438 C 17.316406 13.390625 17.1875 13.257812 17.0625 13.125 C 17.203125 12.769531 17.25 12.75 17.625 12.5625 C 17.839844 12.777344 18.058594 12.996094 18.28125 13.21875 C 19.101562 12.5625 19.777344 11.757812 20.464844 10.964844 C 20.765625 10.621094 21.070312 10.277344 21.375 9.9375 Z M 21.375 9.9375 "/>
<path style=" stroke:none;fill-rule:nonzero;fill:rgb(67.450982%,82.745099%,47.450981%);fill-opacity:1;" d="M 6.28125 11.71875 C 6.515625 11.953125 6.515625 11.953125 6.75 12.1875 C 7.285156 12.367188 7.785156 12.351562 8.296875 12.105469 C 8.5625 11.964844 8.5625 11.964844 8.71875 11.71875 C 8.855469 11.714844 8.988281 11.710938 9.121094 11.707031 C 9.199219 11.703125 9.273438 11.703125 9.351562 11.699219 C 9.5625 11.71875 9.5625 11.71875 9.84375 11.90625 C 8.21875 13.144531 8.21875 13.144531 7.417969 13.113281 C 7.042969 13.007812 6.714844 12.855469 6.371094 12.679688 C 6.304688 12.648438 6.238281 12.617188 6.171875 12.585938 C 5.757812 12.375 5.464844 12.15625 5.15625 11.8125 C 5.292969 11.777344 5.425781 11.746094 5.558594 11.714844 C 5.636719 11.695312 5.710938 11.675781 5.789062 11.65625 C 6 11.625 6 11.625 6.28125 11.71875 Z M 6.28125 11.71875 "/>
<path style=" stroke:none;fill-rule:nonzero;fill:rgb(97.647059%,76.078433%,15.686275%);fill-opacity:1;" d="M 10.125 15.84375 C 10.125 16.523438 10.125 17.203125 10.125 17.90625 C 9.878906 17.84375 9.628906 17.78125 9.375 17.71875 C 9.375 17.160156 9.375 16.605469 9.375 16.03125 C 9.9375 15.84375 9.9375 15.84375 10.125 15.84375 Z M 10.125 15.84375 "/>
<path style=" stroke:none;fill-rule:nonzero;fill:rgb(91.37255%,79.215688%,68.235296%);fill-opacity:1;" d="M 6.84375 10.875 C 7.277344 10.875 7.710938 10.875 8.15625 10.875 C 8.15625 11.34375 8.15625 11.34375 8.011719 11.511719 C 7.695312 11.667969 7.46875 11.664062 7.125 11.625 C 6.941406 11.511719 6.941406 11.511719 6.84375 11.34375 C 6.84375 11.1875 6.84375 11.035156 6.84375 10.875 Z M 6.84375 10.875 "/>
<path style=" stroke:none;fill-rule:nonzero;fill:rgb(0%,0%,0%);fill-opacity:1;" d="M 8.625 20.625 C 8.871094 20.625 9.121094 20.625 9.375 20.625 C 9.375 20.871094 9.375 21.121094 9.375 21.375 C 9.128906 21.375 8.878906 21.375 8.625 21.375 C 8.625 21.128906 8.625 20.878906 8.625 20.625 Z M 8.625 20.625 "/>
<path style=" stroke:none;fill-rule:nonzero;fill:rgb(0%,0%,0%);fill-opacity:1;" d="M 8.625 19.125 C 8.871094 19.125 9.121094 19.125 9.375 19.125 C 9.375 19.371094 9.375 19.621094 9.375 19.875 C 9.128906 19.875 8.878906 19.875 8.625 19.875 C 8.625 19.628906 8.625 19.378906 8.625 19.125 Z M 8.625 19.125 "/>
</g>
</svg>
