<?xml version="1.0" encoding="UTF-8"?>
<svg xmlns="http://www.w3.org/2000/svg" xmlns:xlink="http://www.w3.org/1999/xlink" width="24" height="24" viewBox="0 0 24 24" version="1.1">
<g id="surface1">
<path style=" stroke:none;fill-rule:nonzero;fill:rgb(6.27451%,12.156863%,17.647059%);fill-opacity:1;" d="M 13.902344 0.421875 C 13.96875 0.421875 14.035156 0.421875 14.101562 0.417969 C 14.316406 0.417969 14.535156 0.421875 14.75 0.421875 C 14.902344 0.421875 15.054688 0.421875 15.203125 0.421875 C 15.519531 0.421875 15.835938 0.421875 16.152344 0.425781 C 16.558594 0.425781 16.964844 0.425781 17.367188 0.425781 C 17.679688 0.425781 17.992188 0.425781 18.304688 0.425781 C 18.453125 0.429688 18.601562 0.429688 18.753906 0.425781 C 18.960938 0.425781 19.171875 0.429688 19.378906 0.429688 C 19.496094 0.429688 19.617188 0.433594 19.738281 0.433594 C 20.09375 0.472656 20.320312 0.5625 20.625 0.75 C 20.96875 1.199219 21.011719 1.644531 21.011719 2.195312 C 21.011719 2.296875 21.011719 2.394531 21.011719 2.5 C 21.011719 2.605469 21.011719 2.710938 21.007812 2.820312 C 21.007812 2.984375 21.007812 2.984375 21.007812 3.152344 C 21.007812 3.503906 21.007812 3.851562 21.007812 4.199219 C 21.003906 4.4375 21.003906 4.675781 21.003906 4.914062 C 21.003906 5.492188 21 6.074219 21 6.65625 C 21.085938 6.652344 21.171875 6.648438 21.261719 6.648438 C 21.660156 6.660156 21.820312 6.78125 22.125 7.03125 C 22.628906 7.566406 22.550781 8.160156 22.542969 8.863281 C 22.542969 8.992188 22.542969 9.121094 22.542969 9.25 C 22.542969 9.601562 22.539062 9.949219 22.539062 10.300781 C 22.535156 10.667969 22.535156 11.035156 22.535156 11.398438 C 22.535156 12.09375 22.53125 12.785156 22.527344 13.480469 C 22.523438 14.269531 22.519531 15.058594 22.519531 15.847656 C 22.515625 17.472656 22.507812 19.09375 22.5 20.71875 C 22.601562 20.714844 22.703125 20.710938 22.8125 20.707031 C 23.15625 20.71875 23.15625 20.71875 23.425781 20.929688 C 23.726562 21.320312 23.734375 21.632812 23.734375 22.121094 C 23.738281 22.214844 23.738281 22.308594 23.738281 22.410156 C 23.710938 22.816406 23.625 23.054688 23.34375 23.355469 C 22.949219 23.601562 22.628906 23.582031 22.167969 23.578125 C 22.078125 23.578125 21.988281 23.578125 21.894531 23.582031 C 21.59375 23.582031 21.289062 23.582031 20.984375 23.578125 C 20.769531 23.578125 20.550781 23.582031 20.335938 23.582031 C 19.742188 23.582031 19.152344 23.582031 18.5625 23.582031 C 17.945312 23.582031 17.328125 23.582031 16.710938 23.582031 C 15.605469 23.582031 14.503906 23.582031 13.398438 23.578125 C 12.398438 23.578125 11.402344 23.578125 10.398438 23.578125 C 9.238281 23.582031 8.078125 23.582031 6.914062 23.582031 C 6.300781 23.582031 5.683594 23.582031 5.070312 23.582031 C 4.492188 23.582031 3.914062 23.582031 3.335938 23.582031 C 3.125 23.578125 2.910156 23.578125 2.699219 23.582031 C 2.410156 23.582031 2.121094 23.582031 1.832031 23.578125 C 1.746094 23.578125 1.660156 23.582031 1.574219 23.582031 C 1.1875 23.574219 0.988281 23.5625 0.65625 23.355469 C 0.214844 22.882812 0.246094 22.375 0.257812 21.761719 C 0.285156 21.417969 0.359375 21.183594 0.5625 20.90625 C 0.882812 20.691406 1.03125 20.703125 1.40625 20.71875 C 1.40625 20.652344 1.40625 20.585938 1.40625 20.519531 C 1.398438 18.925781 1.394531 17.328125 1.390625 15.734375 C 1.390625 14.960938 1.386719 14.191406 1.386719 13.417969 C 1.382812 12.746094 1.378906 12.074219 1.378906 11.402344 C 1.378906 11.042969 1.378906 10.6875 1.375 10.332031 C 1.375 9.996094 1.375 9.660156 1.375 9.324219 C 1.375 9.144531 1.375 8.964844 1.371094 8.785156 C 1.375 8.164062 1.410156 7.683594 1.6875 7.125 C 2.097656 6.722656 2.414062 6.644531 2.976562 6.648438 C 3.082031 6.648438 3.1875 6.648438 3.296875 6.648438 C 3.40625 6.648438 3.515625 6.648438 3.625 6.652344 C 3.738281 6.652344 3.847656 6.652344 3.960938 6.652344 C 4.234375 6.652344 4.507812 6.652344 4.78125 6.65625 C 4.777344 6.582031 4.777344 6.507812 4.773438 6.429688 C 4.765625 6.089844 4.757812 5.746094 4.75 5.402344 C 4.75 5.285156 4.746094 5.167969 4.738281 5.046875 C 4.730469 4.210938 4.835938 3.554688 5.410156 2.914062 C 5.914062 2.433594 6.46875 2.238281 7.160156 2.207031 C 7.867188 2.230469 8.460938 2.441406 8.988281 2.917969 C 9.65625 3.683594 9.707031 4.515625 9.679688 5.496094 C 9.671875 5.878906 9.664062 6.261719 9.65625 6.65625 C 10.554688 6.65625 11.449219 6.65625 12.375 6.65625 C 12.371094 6.285156 12.367188 5.910156 12.367188 5.527344 C 12.363281 5.167969 12.363281 4.804688 12.359375 4.445312 C 12.359375 4.191406 12.355469 3.941406 12.355469 3.691406 C 12.351562 3.332031 12.347656 2.972656 12.347656 2.609375 C 12.34375 2.496094 12.34375 2.386719 12.34375 2.269531 C 12.34375 1.257812 12.34375 1.257812 12.65625 0.84375 C 13.082031 0.503906 13.363281 0.421875 13.902344 0.421875 Z M 13.21875 1.5 C 13.191406 1.71875 13.191406 1.71875 13.195312 1.972656 C 13.195312 2.074219 13.195312 2.175781 13.191406 2.277344 C 13.195312 2.386719 13.195312 2.496094 13.195312 2.613281 C 13.195312 2.726562 13.195312 2.84375 13.191406 2.960938 C 13.191406 3.28125 13.191406 3.597656 13.191406 3.917969 C 13.195312 4.25 13.191406 4.582031 13.191406 4.914062 C 13.191406 5.472656 13.191406 6.03125 13.195312 6.589844 C 13.195312 7.238281 13.195312 7.882812 13.195312 8.53125 C 13.191406 9.085938 13.191406 9.636719 13.191406 10.191406 C 13.195312 10.523438 13.195312 10.855469 13.191406 11.1875 C 13.191406 11.554688 13.191406 11.925781 13.195312 12.296875 C 13.195312 12.40625 13.195312 12.515625 13.191406 12.628906 C 13.195312 12.730469 13.195312 12.828125 13.195312 12.933594 C 13.195312 13.019531 13.195312 13.109375 13.195312 13.199219 C 13.199219 13.425781 13.199219 13.425781 13.40625 13.59375 C 13.6875 13.625 13.6875 13.625 14.027344 13.621094 C 14.089844 13.621094 14.152344 13.621094 14.21875 13.621094 C 14.429688 13.621094 14.640625 13.621094 14.851562 13.621094 C 15 13.621094 15.144531 13.621094 15.292969 13.625 C 15.601562 13.625 15.90625 13.625 16.214844 13.625 C 16.609375 13.621094 17.003906 13.625 17.394531 13.625 C 17.699219 13.628906 18 13.628906 18.304688 13.628906 C 18.449219 13.628906 18.59375 13.628906 18.738281 13.628906 C 18.941406 13.628906 19.144531 13.628906 19.347656 13.628906 C 19.464844 13.628906 19.578125 13.628906 19.699219 13.628906 C 19.789062 13.617188 19.875 13.605469 19.96875 13.59375 C 20.175781 13.285156 20.179688 13.195312 20.179688 12.835938 C 20.179688 12.738281 20.179688 12.636719 20.179688 12.535156 C 20.179688 12.429688 20.179688 12.320312 20.179688 12.207031 C 20.179688 12.09375 20.179688 11.980469 20.179688 11.863281 C 20.183594 11.550781 20.183594 11.238281 20.179688 10.925781 C 20.179688 10.601562 20.179688 10.273438 20.179688 9.945312 C 20.183594 9.398438 20.179688 8.847656 20.179688 8.300781 C 20.179688 7.664062 20.179688 7.03125 20.179688 6.394531 C 20.183594 5.851562 20.183594 5.304688 20.179688 4.761719 C 20.179688 4.4375 20.179688 4.109375 20.183594 3.785156 C 20.183594 3.421875 20.179688 3.058594 20.179688 2.695312 C 20.179688 2.589844 20.179688 2.480469 20.179688 2.367188 C 20.179688 2.269531 20.179688 2.171875 20.179688 2.070312 C 20.179688 1.984375 20.179688 1.898438 20.179688 1.808594 C 20.171875 1.566406 20.171875 1.566406 19.96875 1.3125 C 19.675781 1.277344 19.675781 1.277344 19.347656 1.292969 C 19.234375 1.296875 19.125 1.300781 19.011719 1.304688 C 18.882812 1.308594 18.882812 1.308594 18.75 1.3125 C 18.742188 1.378906 18.730469 1.441406 18.722656 1.507812 C 18.707031 1.589844 18.695312 1.675781 18.679688 1.761719 C 18.667969 1.847656 18.652344 1.929688 18.640625 2.015625 C 18.539062 2.316406 18.460938 2.378906 18.1875 2.53125 C 17.945312 2.554688 17.726562 2.566406 17.484375 2.5625 C 17.382812 2.5625 17.382812 2.5625 17.28125 2.5625 C 17.136719 2.5625 16.996094 2.558594 16.851562 2.558594 C 16.632812 2.554688 16.417969 2.554688 16.199219 2.554688 C 16.0625 2.550781 15.921875 2.550781 15.785156 2.550781 C 15.71875 2.550781 15.65625 2.550781 15.585938 2.550781 C 15.304688 2.546875 15.085938 2.527344 14.8125 2.4375 C 14.75 2.066406 14.6875 1.695312 14.625 1.3125 C 14.425781 1.308594 14.226562 1.304688 14.027344 1.300781 C 13.914062 1.296875 13.804688 1.296875 13.691406 1.292969 C 13.394531 1.28125 13.394531 1.28125 13.21875 1.5 Z M 5.875 3.683594 C 5.492188 4.300781 5.507812 4.914062 5.519531 5.621094 C 5.519531 5.710938 5.523438 5.800781 5.523438 5.894531 C 5.523438 6.117188 5.527344 6.339844 5.53125 6.5625 C 5.714844 6.5 5.902344 6.4375 6.09375 6.375 C 6.09375 6.320312 6.09375 6.261719 6.097656 6.203125 C 6.101562 5.945312 6.109375 5.683594 6.117188 5.425781 C 6.117188 5.292969 6.117188 5.292969 6.121094 5.15625 C 6.140625 4.601562 6.195312 4.265625 6.5625 3.84375 C 6.78125 3.734375 6.917969 3.734375 7.160156 3.730469 C 7.269531 3.730469 7.269531 3.730469 7.378906 3.726562 C 7.621094 3.753906 7.765625 3.808594 7.96875 3.9375 C 8.300781 4.433594 8.273438 4.980469 8.304688 5.558594 C 8.308594 5.640625 8.3125 5.71875 8.316406 5.796875 C 8.324219 5.992188 8.335938 6.183594 8.34375 6.375 C 8.5 6.4375 8.652344 6.5 8.8125 6.5625 C 8.824219 6.203125 8.828125 5.84375 8.835938 5.484375 C 8.839844 5.382812 8.84375 5.28125 8.84375 5.179688 C 8.855469 4.460938 8.777344 3.917969 8.269531 3.386719 C 7.40625 2.855469 6.589844 2.972656 5.875 3.683594 Z M 7.125 4.40625 C 6.921875 4.570312 6.921875 4.570312 6.917969 4.769531 C 6.917969 4.839844 6.917969 4.910156 6.917969 4.980469 C 6.917969 5.058594 6.921875 5.132812 6.921875 5.210938 C 6.921875 5.289062 6.925781 5.367188 6.925781 5.449219 C 6.925781 5.527344 6.929688 5.609375 6.929688 5.691406 C 6.929688 5.886719 6.933594 6.085938 6.9375 6.28125 C 7.121094 6.28125 7.308594 6.28125 7.5 6.28125 C 7.5 5.722656 7.5 5.167969 7.5 4.59375 C 7.375 4.53125 7.253906 4.46875 7.125 4.40625 Z M 2.382812 7.65625 C 2.21875 7.925781 2.214844 8.09375 2.214844 8.40625 C 2.214844 8.515625 2.214844 8.625 2.214844 8.738281 C 2.214844 8.855469 2.21875 8.972656 2.21875 9.097656 C 2.21875 9.226562 2.21875 9.355469 2.21875 9.484375 C 2.21875 9.828125 2.21875 10.171875 2.222656 10.515625 C 2.222656 10.839844 2.222656 11.160156 2.222656 11.484375 C 2.222656 12.429688 2.230469 13.375 2.234375 14.320312 C 2.238281 16.429688 2.242188 18.542969 2.25 20.71875 C 8.652344 20.71875 15.058594 20.71875 21.65625 20.71875 C 21.660156 18.589844 21.667969 16.460938 21.671875 14.269531 C 21.675781 13.59375 21.679688 12.921875 21.679688 12.230469 C 21.683594 11.625 21.683594 11.625 21.683594 11.023438 C 21.683594 10.757812 21.683594 10.488281 21.6875 10.21875 C 21.6875 9.878906 21.6875 9.535156 21.6875 9.191406 C 21.6875 9.007812 21.691406 8.820312 21.691406 8.636719 C 21.691406 8.527344 21.691406 8.417969 21.691406 8.304688 C 21.691406 8.210938 21.691406 8.117188 21.691406 8.019531 C 21.671875 7.777344 21.671875 7.777344 21.535156 7.609375 C 21.355469 7.464844 21.355469 7.464844 21 7.5 C 21 7.605469 21 7.605469 20.996094 7.710938 C 20.992188 8.375 20.980469 9.039062 20.972656 9.703125 C 20.96875 10.042969 20.964844 10.382812 20.960938 10.726562 C 20.957031 11.054688 20.953125 11.386719 20.945312 11.714844 C 20.945312 11.902344 20.945312 12.085938 20.941406 12.273438 C 20.933594 12.839844 20.917969 13.339844 20.71875 13.875 C 20.6875 13.96875 20.65625 14.058594 20.625 14.15625 C 20.207031 14.34375 19.832031 14.367188 19.378906 14.371094 C 19.28125 14.371094 19.28125 14.371094 19.179688 14.371094 C 18.964844 14.375 18.746094 14.375 18.53125 14.375 C 18.378906 14.375 18.226562 14.375 18.078125 14.378906 C 17.757812 14.378906 17.445312 14.378906 17.125 14.378906 C 16.722656 14.378906 16.316406 14.382812 15.914062 14.382812 C 15.601562 14.386719 15.289062 14.386719 14.976562 14.386719 C 14.828125 14.386719 14.675781 14.386719 14.527344 14.390625 C 14.320312 14.390625 14.109375 14.390625 13.902344 14.390625 C 13.78125 14.390625 13.664062 14.390625 13.542969 14.390625 C 13.152344 14.335938 12.953125 14.222656 12.65625 13.96875 C 12.453125 13.617188 12.441406 13.296875 12.4375 12.894531 C 12.4375 12.777344 12.433594 12.65625 12.433594 12.53125 C 12.433594 12.402344 12.429688 12.273438 12.429688 12.140625 C 12.429688 12.007812 12.425781 11.875 12.425781 11.738281 C 12.417969 11.386719 12.414062 11.039062 12.414062 10.6875 C 12.410156 10.328125 12.402344 9.96875 12.398438 9.609375 C 12.390625 8.90625 12.382812 8.203125 12.375 7.5 C 11.632812 7.5 10.890625 7.5 10.125 7.5 C 10.226562 7.664062 10.328125 7.828125 10.4375 7.996094 C 11.035156 9.03125 11.234375 10.046875 10.953125 11.214844 C 10.789062 11.753906 10.566406 12.316406 10.15625 12.714844 C 10.007812 12.835938 10.007812 12.835938 10.03125 13.03125 C 9.976562 13.054688 9.925781 13.082031 9.871094 13.109375 C 9.65625 13.214844 9.65625 13.214844 9.460938 13.351562 C 8.464844 14.015625 7.414062 14.160156 6.253906 13.957031 C 5.253906 13.726562 4.460938 13.164062 3.90625 12.300781 C 3.359375 11.304688 3.203125 10.273438 3.441406 9.152344 C 3.617188 8.582031 3.855469 8.152344 4.21875 7.6875 C 4.21875 7.625 4.21875 7.5625 4.21875 7.5 C 3.941406 7.488281 3.667969 7.480469 3.390625 7.476562 C 3.316406 7.472656 3.234375 7.46875 3.15625 7.46875 C 3.042969 7.464844 3.042969 7.464844 2.925781 7.464844 C 2.859375 7.460938 2.789062 7.460938 2.71875 7.457031 C 2.519531 7.484375 2.519531 7.484375 2.382812 7.65625 Z M 2.382812 7.65625 "/>
<path style=" stroke:none;fill-rule:nonzero;fill:rgb(38.431373%,75.686276%,95.294118%);fill-opacity:1;" d="M 9 7.503906 C 9.585938 7.867188 10.007812 8.480469 10.234375 9.128906 C 10.472656 10.179688 10.351562 11.09375 9.820312 12.015625 C 9.363281 12.703125 8.660156 13.097656 7.875 13.3125 C 6.828125 13.40625 5.96875 13.300781 5.140625 12.628906 C 4.53125 12.058594 4.097656 11.339844 4 10.5 C 3.96875 9.515625 4.242188 8.726562 4.875 7.96875 C 5.109375 7.746094 5.351562 7.574219 5.625 7.40625 C 5.6875 7.367188 5.75 7.328125 5.8125 7.289062 C 6.847656 6.738281 8.007812 6.988281 9 7.503906 Z M 9 7.503906 "/>
<path style=" stroke:none;fill-rule:nonzero;fill:rgb(92.156863%,38.82353%,37.64706%);fill-opacity:1;" d="M 1.125 21.46875 C 8.300781 21.46875 15.480469 21.46875 22.875 21.46875 C 22.875 21.871094 22.875 22.273438 22.875 22.6875 C 22.699219 22.863281 22.441406 22.792969 22.207031 22.792969 C 22.121094 22.792969 22.039062 22.792969 21.953125 22.792969 C 21.863281 22.792969 21.777344 22.792969 21.683594 22.792969 C 21.386719 22.792969 21.089844 22.792969 20.792969 22.792969 C 20.578125 22.792969 20.367188 22.792969 20.15625 22.792969 C 19.578125 22.792969 19 22.792969 18.421875 22.792969 C 17.816406 22.792969 17.214844 22.792969 16.609375 22.792969 C 15.53125 22.792969 14.449219 22.792969 13.371094 22.792969 C 12.390625 22.792969 11.414062 22.792969 10.433594 22.792969 C 9.296875 22.792969 8.160156 22.792969 7.023438 22.792969 C 6.421875 22.792969 5.820312 22.792969 5.21875 22.792969 C 4.652344 22.792969 4.085938 22.792969 3.523438 22.792969 C 3.3125 22.792969 3.105469 22.792969 2.898438 22.792969 C 2.613281 22.792969 2.332031 22.792969 2.046875 22.792969 C 1.921875 22.792969 1.921875 22.792969 1.792969 22.792969 C 1.230469 22.792969 1.230469 22.792969 1.125 22.6875 C 1.125 22.285156 1.125 21.882812 1.125 21.46875 Z M 1.125 21.46875 "/>
<path style=" stroke:none;fill-rule:nonzero;fill:rgb(5.882353%,11.764706%,17.254902%);fill-opacity:1;" d="M 18.46875 4.6875 C 18.527344 4.722656 18.585938 4.757812 18.644531 4.796875 C 18.800781 4.910156 18.800781 4.910156 19.03125 5.15625 C 19.074219 5.460938 19.074219 5.460938 19.03125 5.71875 C 18.9375 5.8125 18.9375 5.8125 18.679688 5.839844 C 18.300781 5.804688 18.195312 5.675781 17.90625 5.4375 C 17.378906 5.148438 16.894531 5.085938 16.3125 5.25 C 15.710938 5.503906 15.371094 5.882812 15.09375 6.46875 C 15.015625 6.757812 14.984375 7.050781 14.953125 7.347656 C 14.867188 8.03125 14.761719 8.769531 14.25 9.28125 C 14.0625 9.285156 13.875 9.285156 13.6875 9.28125 C 13.574219 8.914062 13.582031 8.703125 13.757812 8.371094 C 13.984375 7.921875 14.035156 7.484375 14.097656 6.988281 C 14.222656 6.085938 14.449219 5.421875 15.183594 4.832031 C 15.304688 4.75 15.433594 4.671875 15.5625 4.59375 C 15.65625 4.535156 15.75 4.476562 15.847656 4.417969 C 16.679688 4.097656 17.726562 4.214844 18.46875 4.6875 Z M 18.46875 4.6875 "/>
<path style=" stroke:none;fill-rule:nonzero;fill:rgb(5.882353%,11.764706%,17.254902%);fill-opacity:1;" d="M 17.660156 5.625 C 17.980469 5.820312 18.164062 5.964844 18.375 6.28125 C 18.390625 6.574219 18.390625 6.574219 18.375 6.84375 C 18.28125 6.9375 18.28125 6.9375 18.023438 6.972656 C 17.71875 6.9375 17.71875 6.9375 17.492188 6.703125 C 17.265625 6.4375 17.265625 6.4375 16.914062 6.410156 C 16.585938 6.4375 16.585938 6.4375 16.390625 6.664062 C 16.183594 6.992188 16.15625 7.222656 16.125 7.605469 C 16.039062 8.4375 15.84375 9.289062 15.28125 9.9375 C 15.023438 10.019531 15.023438 10.019531 14.8125 10.03125 C 14.660156 9.871094 14.660156 9.871094 14.53125 9.65625 C 14.589844 9.425781 14.691406 9.238281 14.804688 9.03125 C 15.105469 8.445312 15.1875 7.851562 15.261719 7.203125 C 15.339844 6.59375 15.523438 6.203125 15.992188 5.785156 C 16.472656 5.449219 17.117188 5.394531 17.660156 5.625 Z M 17.660156 5.625 "/>
<path style=" stroke:none;fill-rule:nonzero;fill:rgb(7.450981%,14.117648%,20%);fill-opacity:1;" d="M 7.5 9.46875 C 7.898438 9.617188 8.121094 9.765625 8.34375 10.125 C 8.417969 10.535156 8.441406 10.96875 8.246094 11.34375 C 8.082031 11.546875 7.921875 11.695312 7.6875 11.8125 C 7.65625 12.03125 7.625 12.25 7.59375 12.46875 C 7.53125 12.53125 7.46875 12.59375 7.40625 12.65625 C 6.980469 12.605469 6.980469 12.605469 6.84375 12.46875 C 6.839844 12.320312 6.839844 12.320312 6.832031 12.167969 C 6.734375 11.738281 6.589844 11.628906 6.242188 11.378906 C 6.003906 11.171875 6 10.964844 5.972656 10.660156 C 6.011719 10.171875 6.214844 9.921875 6.539062 9.574219 C 6.855469 9.414062 7.15625 9.421875 7.5 9.46875 Z M 7.5 9.46875 "/>
<path style=" stroke:none;fill-rule:nonzero;fill:rgb(5.882353%,11.764706%,17.254902%);fill-opacity:1;" d="M 15.46875 15.375 C 15.625 15.40625 15.777344 15.4375 15.9375 15.46875 C 15.96875 15.59375 16 15.714844 16.03125 15.84375 C 16.125 15.78125 16.21875 15.71875 16.3125 15.65625 C 16.550781 15.632812 16.550781 15.632812 16.78125 15.65625 C 16.84375 15.71875 16.90625 15.78125 16.96875 15.84375 C 16.957031 16.121094 16.957031 16.121094 16.875 16.40625 C 16.683594 16.582031 16.683594 16.582031 16.5 16.6875 C 16.578125 16.753906 16.660156 16.824219 16.738281 16.894531 C 16.96875 17.15625 16.96875 17.15625 16.957031 17.414062 C 16.875 17.625 16.875 17.625 16.78125 17.71875 C 16.5625 17.691406 16.34375 17.660156 16.125 17.625 C 16.089844 17.6875 16.050781 17.75 16.011719 17.8125 C 15.84375 18 15.84375 18 15.605469 18.042969 C 15.527344 18.027344 15.453125 18.015625 15.375 18 C 15.3125 17.90625 15.25 17.8125 15.1875 17.71875 C 14.96875 17.714844 14.75 17.714844 14.53125 17.71875 C 14.46875 17.65625 14.40625 17.59375 14.34375 17.53125 C 14.359375 17.214844 14.417969 17.085938 14.628906 16.847656 C 14.71875 16.765625 14.71875 16.765625 14.8125 16.6875 C 14.734375 16.636719 14.65625 16.582031 14.578125 16.527344 C 14.34375 16.3125 14.34375 16.3125 14.300781 16.066406 C 14.34375 15.84375 14.34375 15.84375 14.53125 15.65625 C 14.792969 15.636719 14.953125 15.632812 15.1875 15.75 C 15.28125 15.625 15.375 15.503906 15.46875 15.375 Z M 15.46875 15.375 "/>
<path style=" stroke:none;fill-rule:nonzero;fill:rgb(5.882353%,11.764706%,17.254902%);fill-opacity:1;" d="M 8.429688 15.398438 C 8.648438 15.476562 8.753906 15.578125 8.90625 15.75 C 8.9375 15.71875 8.96875 15.6875 9 15.65625 C 9.226562 15.636719 9.226562 15.636719 9.46875 15.65625 C 9.65625 15.84375 9.65625 15.84375 9.695312 16.066406 C 9.65625 16.3125 9.65625 16.3125 9.421875 16.527344 C 9.304688 16.609375 9.304688 16.609375 9.1875 16.6875 C 9.265625 16.753906 9.34375 16.824219 9.425781 16.894531 C 9.65625 17.15625 9.65625 17.15625 9.644531 17.414062 C 9.5625 17.625 9.5625 17.625 9.46875 17.71875 C 9.363281 17.714844 9.253906 17.710938 9.144531 17.707031 C 8.980469 17.714844 8.980469 17.714844 8.8125 17.71875 C 8.75 17.8125 8.6875 17.90625 8.625 18 C 8.394531 18.042969 8.394531 18.042969 8.15625 18 C 7.984375 17.8125 7.984375 17.8125 7.875 17.625 C 7.769531 17.644531 7.664062 17.664062 7.558594 17.683594 C 7.445312 17.695312 7.335938 17.707031 7.21875 17.71875 C 7.15625 17.65625 7.09375 17.59375 7.03125 17.53125 C 7.046875 17.214844 7.105469 17.085938 7.316406 16.847656 C 7.40625 16.765625 7.40625 16.765625 7.5 16.6875 C 7.421875 16.621094 7.339844 16.550781 7.257812 16.480469 C 7.03125 16.21875 7.03125 16.21875 7.042969 15.960938 C 7.125 15.75 7.125 15.75 7.21875 15.65625 C 7.566406 15.628906 7.667969 15.640625 7.96875 15.84375 C 7.980469 15.785156 7.992188 15.722656 8.003906 15.660156 C 8.023438 15.597656 8.042969 15.535156 8.0625 15.46875 C 8.25 15.375 8.25 15.375 8.429688 15.398438 Z M 8.429688 15.398438 "/>
<path style=" stroke:none;fill-rule:nonzero;fill:rgb(5.882353%,11.764706%,17.647059%);fill-opacity:1;" d="M 19.125 15.375 C 19.382812 15.398438 19.382812 15.398438 19.59375 15.46875 C 19.625 15.59375 19.65625 15.714844 19.6875 15.84375 C 19.78125 15.78125 19.875 15.71875 19.96875 15.65625 C 20.269531 15.691406 20.269531 15.691406 20.53125 15.75 C 20.605469 15.949219 20.605469 15.949219 20.625 16.21875 C 20.488281 16.433594 20.332031 16.59375 20.15625 16.78125 C 20.3125 16.9375 20.464844 17.089844 20.625 17.25 C 20.53125 17.480469 20.53125 17.480469 20.4375 17.71875 C 20.25 17.722656 20.0625 17.722656 19.875 17.71875 C 19.84375 17.6875 19.8125 17.65625 19.78125 17.625 C 19.746094 17.6875 19.707031 17.75 19.667969 17.8125 C 19.5 18 19.5 18 19.246094 18.023438 C 19.175781 18.015625 19.105469 18.007812 19.03125 18 C 18.96875 17.875 18.90625 17.753906 18.84375 17.625 C 18.78125 17.65625 18.71875 17.6875 18.65625 17.71875 C 18.46875 17.722656 18.28125 17.722656 18.09375 17.71875 C 18.019531 17.464844 18.019531 17.464844 18 17.15625 C 18.230469 16.886719 18.230469 16.886719 18.46875 16.6875 C 18.390625 16.636719 18.3125 16.582031 18.234375 16.527344 C 18 16.3125 18 16.3125 17.957031 16.066406 C 18 15.84375 18 15.84375 18.1875 15.65625 C 18.277344 15.675781 18.367188 15.695312 18.457031 15.714844 C 18.554688 15.726562 18.652344 15.738281 18.75 15.75 C 18.875 15.628906 19.003906 15.5 19.125 15.375 Z M 19.125 15.375 "/>
<path style=" stroke:none;fill-rule:nonzero;fill:rgb(5.882353%,11.764706%,17.254902%);fill-opacity:1;" d="M 5.0625 15.46875 C 5.125 15.5625 5.1875 15.65625 5.25 15.75 C 5.382812 15.722656 5.382812 15.722656 5.519531 15.691406 C 5.617188 15.679688 5.714844 15.667969 5.8125 15.65625 C 6 15.84375 6 15.84375 6.042969 16.066406 C 6 16.3125 6 16.3125 5.765625 16.527344 C 5.648438 16.609375 5.648438 16.609375 5.53125 16.6875 C 5.609375 16.753906 5.691406 16.820312 5.769531 16.886719 C 6 17.15625 6 17.15625 5.980469 17.464844 C 5.957031 17.550781 5.933594 17.632812 5.90625 17.71875 C 5.367188 17.730469 5.367188 17.730469 5.15625 17.625 C 5.09375 17.75 5.03125 17.871094 4.96875 18 C 4.753906 18.023438 4.753906 18.023438 4.5 18 C 4.332031 17.8125 4.332031 17.8125 4.21875 17.625 C 4.1875 17.65625 4.15625 17.6875 4.125 17.71875 C 3.9375 17.722656 3.75 17.722656 3.5625 17.71875 C 3.5 17.5625 3.4375 17.410156 3.375 17.25 C 3.53125 17.0625 3.683594 16.878906 3.84375 16.6875 C 3.765625 16.621094 3.683594 16.550781 3.605469 16.480469 C 3.375 16.21875 3.375 16.21875 3.394531 15.957031 C 3.417969 15.886719 3.441406 15.820312 3.46875 15.75 C 3.730469 15.691406 3.730469 15.691406 4.03125 15.65625 C 4.125 15.71875 4.21875 15.78125 4.3125 15.84375 C 4.324219 15.785156 4.335938 15.722656 4.347656 15.660156 C 4.367188 15.597656 4.386719 15.535156 4.40625 15.46875 C 4.660156 15.339844 4.792969 15.386719 5.0625 15.46875 Z M 5.0625 15.46875 "/>
<path style=" stroke:none;fill-rule:nonzero;fill:rgb(5.882353%,11.764706%,17.647059%);fill-opacity:1;" d="M 11.90625 15.375 C 12.152344 15.464844 12.152344 15.464844 12.375 15.5625 C 12.375 15.65625 12.375 15.75 12.375 15.84375 C 12.46875 15.78125 12.5625 15.71875 12.65625 15.65625 C 12.957031 15.691406 12.957031 15.691406 13.21875 15.75 C 13.292969 15.949219 13.292969 15.949219 13.3125 16.21875 C 13.175781 16.433594 13.019531 16.59375 12.84375 16.78125 C 12.921875 16.851562 13.003906 16.921875 13.082031 16.992188 C 13.3125 17.25 13.3125 17.25 13.300781 17.460938 C 13.21875 17.625 13.21875 17.625 13.125 17.71875 C 12.84375 17.730469 12.84375 17.730469 12.5625 17.71875 C 12.53125 17.6875 12.5 17.65625 12.46875 17.625 C 12.4375 17.71875 12.40625 17.8125 12.375 17.90625 C 11.835938 18.011719 11.835938 18.011719 11.625 17.90625 C 11.59375 17.8125 11.5625 17.71875 11.53125 17.625 C 11.5 17.65625 11.46875 17.6875 11.4375 17.71875 C 11.160156 17.738281 11.160156 17.738281 10.875 17.71875 C 10.8125 17.65625 10.75 17.59375 10.6875 17.53125 C 10.703125 17.214844 10.761719 17.085938 10.972656 16.847656 C 11.0625 16.765625 11.0625 16.765625 11.15625 16.6875 C 11.078125 16.621094 10.996094 16.550781 10.917969 16.480469 C 10.6875 16.21875 10.6875 16.21875 10.707031 15.957031 C 10.730469 15.886719 10.753906 15.820312 10.78125 15.75 C 11.042969 15.691406 11.042969 15.691406 11.34375 15.65625 C 11.4375 15.71875 11.53125 15.78125 11.625 15.84375 C 11.636719 15.785156 11.648438 15.722656 11.660156 15.660156 C 11.679688 15.597656 11.699219 15.535156 11.71875 15.46875 C 11.78125 15.4375 11.84375 15.40625 11.90625 15.375 Z M 11.90625 15.375 "/>
<path style=" stroke:none;fill-rule:nonzero;fill:rgb(5.882353%,11.764706%,17.647059%);fill-opacity:1;" d="M 19.3125 6.457031 C 19.59375 6.46875 19.59375 6.46875 19.6875 6.5625 C 19.773438 7.816406 19.6875 9.164062 19.125 10.3125 C 18.894531 10.40625 18.894531 10.40625 18.65625 10.40625 C 18.480469 10.3125 18.480469 10.3125 18.375 10.125 C 18.390625 9.804688 18.453125 9.523438 18.53125 9.214844 C 18.703125 8.511719 18.808594 7.828125 18.875 7.109375 C 18.9375 6.472656 18.9375 6.472656 19.3125 6.457031 Z M 19.3125 6.457031 "/>
<path style=" stroke:none;fill-rule:nonzero;fill:rgb(5.882353%,11.764706%,17.647059%);fill-opacity:1;" d="M 17.027344 6.867188 C 17.101562 6.890625 17.175781 6.914062 17.25 6.9375 C 17.527344 7.496094 17.273438 8.328125 17.09375 8.898438 C 16.914062 9.433594 16.71875 9.933594 16.40625 10.40625 C 16.222656 10.40625 16.035156 10.40625 15.84375 10.40625 C 15.734375 10.207031 15.734375 10.207031 15.65625 9.9375 C 15.75 9.660156 15.75 9.660156 15.90625 9.351562 C 16.191406 8.761719 16.320312 8.195312 16.402344 7.546875 C 16.425781 7.375 16.464844 7.203125 16.5 7.03125 C 16.78125 6.84375 16.78125 6.84375 17.027344 6.867188 Z M 17.027344 6.867188 "/>
<path style=" stroke:none;fill-rule:nonzero;fill:rgb(5.882353%,11.764706%,17.254902%);fill-opacity:1;" d="M 18.375 7.6875 C 18.605469 8.667969 18.109375 9.75 17.625 10.59375 C 17.402344 10.605469 17.402344 10.605469 17.15625 10.59375 C 17.09375 10.53125 17.03125 10.46875 16.96875 10.40625 C 17.003906 9.914062 17.136719 9.460938 17.292969 8.996094 C 17.3125 8.929688 17.332031 8.867188 17.351562 8.800781 C 17.390625 8.675781 17.433594 8.550781 17.472656 8.425781 C 17.527344 8.261719 17.578125 8.09375 17.628906 7.929688 C 17.785156 7.507812 17.988281 7.59375 18.375 7.6875 Z M 18.375 7.6875 "/>
<path style=" stroke:none;fill-rule:nonzero;fill:rgb(5.882353%,12.156863%,17.254902%);fill-opacity:1;" d="M 15.648438 18.453125 C 15.753906 18.449219 15.859375 18.449219 15.96875 18.449219 C 16.121094 18.449219 16.121094 18.449219 16.273438 18.449219 C 16.414062 18.445312 16.414062 18.445312 16.554688 18.445312 C 16.78125 18.46875 16.78125 18.46875 16.96875 18.65625 C 16.945312 18.945312 16.945312 18.945312 16.875 19.21875 C 16.511719 19.402344 16.0625 19.335938 15.660156 19.335938 C 15.566406 19.339844 15.472656 19.339844 15.375 19.34375 C 15.28125 19.34375 15.191406 19.34375 15.097656 19.34375 C 15.011719 19.34375 14.929688 19.34375 14.84375 19.34375 C 14.625 19.3125 14.625 19.3125 14.453125 19.183594 C 14.34375 19.03125 14.34375 19.03125 14.367188 18.785156 C 14.535156 18.257812 15.179688 18.453125 15.648438 18.453125 Z M 15.648438 18.453125 "/>
<path style=" stroke:none;fill-rule:nonzero;fill:rgb(5.882353%,12.156863%,17.254902%);fill-opacity:1;" d="M 8.335938 18.453125 C 8.441406 18.449219 8.546875 18.449219 8.65625 18.449219 C 8.808594 18.449219 8.808594 18.449219 8.960938 18.449219 C 9.101562 18.445312 9.101562 18.445312 9.242188 18.445312 C 9.46875 18.46875 9.46875 18.46875 9.65625 18.65625 C 9.632812 18.945312 9.632812 18.945312 9.5625 19.21875 C 9.199219 19.402344 8.75 19.335938 8.347656 19.335938 C 8.253906 19.339844 8.160156 19.339844 8.0625 19.34375 C 7.96875 19.34375 7.878906 19.34375 7.785156 19.34375 C 7.699219 19.34375 7.617188 19.34375 7.53125 19.34375 C 7.3125 19.3125 7.3125 19.3125 7.140625 19.183594 C 7.03125 19.03125 7.03125 19.03125 7.054688 18.785156 C 7.222656 18.257812 7.867188 18.453125 8.335938 18.453125 Z M 8.335938 18.453125 "/>
<path style=" stroke:none;fill-rule:nonzero;fill:rgb(5.882353%,12.156863%,17.647059%);fill-opacity:1;" d="M 18.996094 18.4375 C 19.101562 18.4375 19.203125 18.441406 19.3125 18.441406 C 19.46875 18.4375 19.46875 18.4375 19.628906 18.433594 C 19.78125 18.433594 19.78125 18.433594 19.933594 18.433594 C 20.027344 18.433594 20.117188 18.433594 20.210938 18.433594 C 20.324219 18.449219 20.324219 18.449219 20.4375 18.46875 C 20.625 18.75 20.625 18.75 20.601562 18.941406 C 20.53125 19.125 20.53125 19.125 20.34375 19.3125 C 20.136719 19.335938 20.136719 19.335938 19.882812 19.335938 C 19.746094 19.335938 19.746094 19.335938 19.609375 19.339844 C 19.511719 19.335938 19.417969 19.335938 19.316406 19.335938 C 19.222656 19.335938 19.128906 19.335938 19.03125 19.339844 C 18.9375 19.335938 18.847656 19.335938 18.753906 19.335938 C 18.667969 19.335938 18.585938 19.335938 18.5 19.335938 C 18.28125 19.3125 18.28125 19.3125 18 19.125 C 17.972656 18.890625 17.972656 18.890625 18 18.65625 C 18.289062 18.367188 18.597656 18.441406 18.996094 18.4375 Z M 18.996094 18.4375 "/>
<path style=" stroke:none;fill-rule:nonzero;fill:rgb(5.882353%,12.156863%,17.647059%);fill-opacity:1;" d="M 4.679688 18.453125 C 4.785156 18.449219 4.890625 18.449219 5 18.449219 C 5.152344 18.449219 5.152344 18.449219 5.304688 18.449219 C 5.445312 18.445312 5.445312 18.445312 5.585938 18.445312 C 5.8125 18.46875 5.8125 18.46875 6 18.65625 C 6.03125 18.890625 6.03125 18.890625 6 19.125 C 5.582031 19.40625 5.179688 19.34375 4.6875 19.34375 C 4.59375 19.34375 4.496094 19.34375 4.398438 19.347656 C 4.265625 19.347656 4.265625 19.347656 4.125 19.347656 C 4.042969 19.347656 3.957031 19.347656 3.875 19.347656 C 3.65625 19.3125 3.65625 19.3125 3.484375 19.183594 C 3.375 19.03125 3.375 19.03125 3.398438 18.785156 C 3.566406 18.257812 4.210938 18.453125 4.679688 18.453125 Z M 4.679688 18.453125 "/>
<path style=" stroke:none;fill-rule:nonzero;fill:rgb(5.882353%,11.764706%,17.254902%);fill-opacity:1;" d="M 11.992188 18.445312 C 12.097656 18.445312 12.203125 18.441406 12.3125 18.441406 C 12.414062 18.4375 12.515625 18.4375 12.617188 18.4375 C 12.710938 18.4375 12.804688 18.4375 12.898438 18.433594 C 12.972656 18.445312 13.046875 18.457031 13.125 18.46875 C 13.3125 18.75 13.3125 18.75 13.289062 18.996094 C 13.265625 19.070312 13.242188 19.144531 13.21875 19.21875 C 12.855469 19.402344 12.40625 19.335938 12.003906 19.335938 C 11.910156 19.335938 11.816406 19.339844 11.71875 19.339844 C 11.625 19.34375 11.535156 19.34375 11.441406 19.34375 C 11.355469 19.34375 11.273438 19.34375 11.1875 19.347656 C 10.96875 19.3125 10.96875 19.3125 10.796875 19.183594 C 10.6875 19.03125 10.6875 19.03125 10.710938 18.785156 C 10.878906 18.257812 11.523438 18.445312 11.992188 18.445312 Z M 11.992188 18.445312 "/>
<path style=" stroke:none;fill-rule:nonzero;fill:rgb(36.862746%,72.156864%,90.980393%);fill-opacity:1;" d="M 15.375 1.21875 C 16.242188 1.21875 17.109375 1.21875 18 1.21875 C 18 1.40625 18 1.589844 18 1.78125 C 17.90625 1.875 17.90625 1.875 17.664062 1.886719 C 17.558594 1.886719 17.453125 1.882812 17.34375 1.882812 C 17.230469 1.882812 17.117188 1.882812 16.996094 1.882812 C 16.878906 1.882812 16.757812 1.882812 16.636719 1.878906 C 16.515625 1.878906 16.394531 1.878906 16.269531 1.878906 C 15.972656 1.878906 15.671875 1.875 15.375 1.875 C 15.375 1.660156 15.375 1.441406 15.375 1.21875 Z M 15.375 1.21875 "/>
<path style=" stroke:none;fill-rule:nonzero;fill:rgb(5.882353%,11.764706%,17.647059%);fill-opacity:1;" d="M 16.632812 12.171875 C 16.742188 12.167969 16.851562 12.167969 16.960938 12.167969 C 17.25 12.1875 17.25 12.1875 17.53125 12.375 C 17.5625 12.609375 17.5625 12.609375 17.53125 12.84375 C 17.296875 13.078125 17.15625 13.058594 16.835938 13.0625 C 16.738281 13.0625 16.738281 13.0625 16.640625 13.0625 C 16.574219 13.0625 16.511719 13.0625 16.445312 13.066406 C 16.257812 13.066406 16.257812 13.066406 15.9375 13.03125 C 15.75 12.75 15.75 12.75 15.773438 12.503906 C 15.796875 12.429688 15.820312 12.359375 15.84375 12.28125 C 16.109375 12.148438 16.339844 12.171875 16.632812 12.171875 Z M 16.632812 12.171875 "/>
<path style=" stroke:none;fill-rule:nonzero;fill:rgb(93.725491%,94.117647%,94.509804%);fill-opacity:1;" d="M 7.21875 10.195312 C 7.5 10.21875 7.5 10.21875 7.6875 10.40625 C 7.722656 10.671875 7.722656 10.820312 7.582031 11.050781 C 7.320312 11.207031 7.128906 11.132812 6.84375 11.0625 C 6.785156 10.746094 6.785156 10.746094 6.75 10.40625 C 6.9375 10.21875 6.9375 10.21875 7.21875 10.195312 Z M 7.21875 10.195312 "/>
</g>
</svg>
