<?xml version="1.0" encoding="UTF-8"?>
<svg xmlns="http://www.w3.org/2000/svg" xmlns:xlink="http://www.w3.org/1999/xlink" width="24" height="24" viewBox="0 0 24 24" version="1.1">
<g id="surface1">
<path style=" stroke:none;fill-rule:nonzero;fill:rgb(99.607843%,99.607843%,99.607843%);fill-opacity:1;" d="M 0.9375 0.9375 C 8.238281 0.9375 15.539062 0.9375 23.0625 0.9375 C 23.0625 8.238281 23.0625 15.539062 23.0625 23.0625 C 15.761719 23.0625 8.460938 23.0625 0.9375 23.0625 C 0.9375 15.761719 0.9375 8.460938 0.9375 0.9375 Z M 0.9375 0.9375 "/>
<path style=" stroke:none;fill-rule:nonzero;fill:rgb(16.078432%,16.078432%,19.607843%);fill-opacity:1;" d="M 0.9375 0.9375 C 8.238281 0.9375 15.539062 0.9375 23.0625 0.9375 C 23.0625 8.238281 23.0625 15.539062 23.0625 23.0625 C 15.761719 23.0625 8.460938 23.0625 0.9375 23.0625 C 0.9375 15.761719 0.9375 8.460938 0.9375 0.9375 Z M 3 3 C 3 8.941406 3 14.878906 3 21 C 8.941406 21 14.878906 21 21 21 C 21 15.058594 21 9.121094 21 3 C 15.058594 3 9.121094 3 3 3 Z M 3 3 "/>
<path style=" stroke:none;fill-rule:nonzero;fill:rgb(72.549021%,85.09804%,95.686275%);fill-opacity:1;" d="M 3 3 C 8.941406 3 14.878906 3 21 3 C 21 3.648438 21 4.300781 21 4.96875 C 20.558594 4.957031 20.558594 4.957031 20.109375 4.945312 C 19.132812 4.921875 18.15625 4.910156 17.179688 4.902344 C 16.585938 4.898438 15.996094 4.890625 15.402344 4.875 C 12.710938 4.621094 12.710938 4.621094 10.316406 5.507812 C 10.078125 5.769531 9.867188 6.039062 9.65625 6.328125 C 9.3125 6.777344 9.066406 7.066406 8.484375 7.171875 C 7.6875 7.265625 6.882812 7.21875 6.082031 7.167969 C 5.734375 7.144531 5.386719 7.136719 5.035156 7.128906 C 4.355469 7.105469 3.679688 7.070312 3 7.03125 C 3 5.699219 3 4.371094 3 3 Z M 3 3 "/>
<path style=" stroke:none;fill-rule:nonzero;fill:rgb(16.470589%,16.470589%,20%);fill-opacity:1;" d="M 10.96875 13.03125 C 13.628906 13.03125 16.289062 13.03125 19.03125 13.03125 C 19.03125 13.679688 19.03125 14.332031 19.03125 15 C 16.371094 15 13.710938 15 10.96875 15 C 10.96875 14.351562 10.96875 13.699219 10.96875 13.03125 Z M 10.96875 13.03125 "/>
<path style=" stroke:none;fill-rule:nonzero;fill:rgb(18.82353%,18.82353%,22.352941%);fill-opacity:1;" d="M 10.96875 16.96875 C 12.949219 16.96875 14.929688 16.96875 16.96875 16.96875 C 16.96875 17.648438 16.96875 18.328125 16.96875 19.03125 C 14.988281 19.03125 13.007812 19.03125 10.96875 19.03125 C 10.96875 18.351562 10.96875 17.671875 10.96875 16.96875 Z M 10.96875 16.96875 "/>
<path style=" stroke:none;fill-rule:nonzero;fill:rgb(16.078432%,16.078432%,19.607843%);fill-opacity:1;" d="M 9 9 C 10.980469 9 12.960938 9 15 9 C 15 9.648438 15 10.300781 15 10.96875 C 13.019531 10.96875 11.039062 10.96875 9 10.96875 C 9 10.320312 9 9.667969 9 9 Z M 9 9 "/>
<path style=" stroke:none;fill-rule:nonzero;fill:rgb(2.745098%,52.941179%,94.117647%);fill-opacity:1;" d="M 7.03125 16.96875 C 7.679688 16.96875 8.332031 16.96875 9 16.96875 C 9 17.648438 9 18.328125 9 19.03125 C 8.351562 19.03125 7.699219 19.03125 7.03125 19.03125 C 7.03125 18.351562 7.03125 17.671875 7.03125 16.96875 Z M 7.03125 16.96875 "/>
<path style=" stroke:none;fill-rule:nonzero;fill:rgb(2.745098%,52.941179%,94.117647%);fill-opacity:1;" d="M 4.96875 9 C 5.648438 9 6.328125 9 7.03125 9 C 7.03125 9.648438 7.03125 10.300781 7.03125 10.96875 C 6.351562 10.96875 5.671875 10.96875 4.96875 10.96875 C 4.96875 10.320312 4.96875 9.667969 4.96875 9 Z M 4.96875 9 "/>
<path style=" stroke:none;fill-rule:nonzero;fill:rgb(0%,51.764709%,94.117647%);fill-opacity:1;" d="M 7.03125 13.03125 C 7.679688 13.03125 8.332031 13.03125 9 13.03125 C 9 13.679688 9 14.332031 9 15 C 8.351562 15 7.699219 15 7.03125 15 C 7.03125 14.351562 7.03125 13.699219 7.03125 13.03125 Z M 7.03125 13.03125 "/>
</g>
</svg>
