<?xml version="1.0" encoding="UTF-8"?>
<svg xmlns="http://www.w3.org/2000/svg" xmlns:xlink="http://www.w3.org/1999/xlink" width="24" height="24" viewBox="0 0 24 24" version="1.1">
<g id="surface1">
<path style=" stroke:none;fill-rule:nonzero;fill:rgb(4.705882%,3.921569%,3.137255%);fill-opacity:1;" d="M 18.1875 0.9375 C 18.746094 1.183594 18.980469 1.617188 19.21875 2.15625 C 19.242188 2.25 19.265625 2.347656 19.289062 2.445312 C 19.453125 2.824219 19.640625 2.867188 20.015625 3.023438 C 21.078125 3.507812 21.675781 4.242188 22.183594 5.277344 C 22.476562 6.066406 22.527344 6.835938 22.523438 7.671875 C 22.527344 7.882812 22.527344 8.09375 22.53125 8.304688 C 22.535156 8.632812 22.535156 8.960938 22.535156 9.289062 C 22.535156 9.609375 22.539062 9.929688 22.542969 10.25 C 22.542969 10.394531 22.542969 10.394531 22.542969 10.542969 C 22.550781 11.355469 22.757812 12.070312 23.34375 12.65625 C 23.558594 12.796875 23.773438 12.914062 24 13.03125 C 24.046875 13.277344 24.046875 13.277344 24 13.59375 C 23.367188 14.359375 22.183594 14.578125 21.257812 14.773438 C 21.140625 14.796875 21.019531 14.824219 20.898438 14.847656 C 20.761719 14.878906 20.761719 14.878906 20.625 14.90625 C 20.625 14.992188 20.625 15.078125 20.625 15.164062 C 20.617188 15.972656 20.609375 16.78125 20.601562 17.585938 C 20.597656 18 20.59375 18.414062 20.59375 18.832031 C 20.589844 19.230469 20.585938 19.632812 20.582031 20.03125 C 20.578125 20.183594 20.578125 20.335938 20.578125 20.488281 C 20.578125 20.703125 20.574219 20.917969 20.570312 21.132812 C 20.570312 21.316406 20.570312 21.316406 20.570312 21.5 C 20.5 22.125 20.265625 22.554688 19.78125 22.96875 C 19.4375 23.082031 19.121094 23.074219 18.765625 23.074219 C 18.6875 23.074219 18.613281 23.078125 18.535156 23.078125 C 18.28125 23.078125 18.027344 23.078125 17.769531 23.078125 C 17.589844 23.078125 17.40625 23.078125 17.226562 23.078125 C 16.730469 23.082031 16.234375 23.082031 15.738281 23.082031 C 15.429688 23.082031 15.121094 23.082031 14.8125 23.082031 C 13.84375 23.085938 12.875 23.085938 11.90625 23.085938 C 10.789062 23.085938 9.671875 23.085938 8.554688 23.089844 C 7.691406 23.089844 6.828125 23.09375 5.964844 23.09375 C 5.449219 23.09375 4.933594 23.09375 4.417969 23.09375 C 3.929688 23.097656 3.445312 23.097656 2.960938 23.097656 C 2.78125 23.097656 2.605469 23.097656 2.425781 23.097656 C 2.183594 23.097656 1.941406 23.097656 1.695312 23.097656 C 1.625 23.097656 1.554688 23.097656 1.480469 23.097656 C 0.90625 23.09375 0.628906 22.921875 0.210938 22.546875 C -0.113281 22.136719 -0.0664062 21.671875 -0.0585938 21.175781 C -0.0585938 21.070312 -0.0625 20.964844 -0.0625 20.859375 C -0.0625 20.511719 -0.0625 20.167969 -0.0585938 19.824219 C -0.0585938 19.585938 -0.0585938 19.347656 -0.0585938 19.105469 C -0.0585938 18.605469 -0.0585938 18.101562 -0.0546875 17.601562 C -0.0507812 17.019531 -0.0507812 16.441406 -0.0546875 15.863281 C -0.0546875 15.304688 -0.0546875 14.746094 -0.0546875 14.1875 C -0.0546875 13.949219 -0.0546875 13.714844 -0.0546875 13.476562 C -0.0546875 13.144531 -0.0507812 12.8125 -0.0507812 12.480469 C -0.0507812 12.382812 -0.0507812 12.285156 -0.0507812 12.1875 C -0.0429688 11.625 0.00390625 11.304688 0.375 10.875 C 0.542969 10.714844 0.542969 10.714844 0.714844 10.589844 C 0.777344 10.542969 0.84375 10.492188 0.910156 10.441406 C 0.976562 10.394531 1.042969 10.34375 1.113281 10.292969 C 1.316406 10.144531 1.519531 9.992188 1.71875 9.839844 C 1.914062 9.695312 2.101562 9.578125 2.3125 9.457031 C 2.75 9.1875 3.183594 8.921875 3.351562 8.410156 C 3.457031 7.808594 3.429688 7.207031 3.402344 6.597656 C 3.402344 6.414062 3.398438 6.230469 3.398438 6.046875 C 3.394531 5.710938 3.386719 5.378906 3.375 5.042969 C 3.375 4.925781 3.375 4.808594 3.375 4.6875 C 3.46875 4.59375 3.46875 4.59375 3.664062 4.585938 C 3.75 4.585938 3.835938 4.589844 3.921875 4.589844 C 4.019531 4.59375 4.117188 4.59375 4.21875 4.59375 C 4.324219 4.597656 4.429688 4.597656 4.539062 4.601562 C 4.761719 4.601562 4.988281 4.601562 5.210938 4.601562 C 5.566406 4.601562 5.921875 4.605469 6.273438 4.613281 C 7.910156 4.691406 7.910156 4.691406 9.320312 3.988281 C 9.417969 3.898438 9.511719 3.804688 9.601562 3.707031 C 9.839844 3.472656 9.984375 3.351562 10.3125 3.28125 C 10.5 3.363281 10.5 3.363281 10.683594 3.503906 C 10.78125 3.582031 10.78125 3.582031 10.882812 3.660156 C 10.984375 3.742188 10.984375 3.742188 11.085938 3.824219 C 11.15625 3.878906 11.222656 3.933594 11.292969 3.988281 C 11.765625 4.359375 11.765625 4.359375 11.90625 4.5 C 12.558594 4.585938 13.449219 4.699219 14.027344 4.351562 C 14.1875 4.160156 14.3125 3.964844 14.4375 3.75 C 14.792969 3.363281 15.136719 3.164062 15.628906 2.980469 C 15.945312 2.847656 16.089844 2.78125 16.261719 2.476562 C 16.320312 2.296875 16.378906 2.113281 16.429688 1.929688 C 16.546875 1.527344 16.765625 1.308594 17.082031 1.050781 C 17.457031 0.890625 17.785156 0.875 18.1875 0.9375 Z M 18.1875 0.9375 "/>
<path style=" stroke:none;fill-rule:nonzero;fill:rgb(99.215686%,38.82353%,43.137255%);fill-opacity:1;" d="M 17.734375 2.976562 C 17.820312 2.976562 17.902344 2.972656 17.992188 2.972656 C 19.128906 2.964844 20.058594 3.351562 20.910156 4.105469 C 21.566406 4.800781 22.042969 5.714844 22.042969 6.679688 C 22.046875 6.824219 22.046875 6.824219 22.046875 6.976562 C 22.046875 7.082031 22.046875 7.1875 22.046875 7.296875 C 22.050781 7.519531 22.050781 7.746094 22.054688 7.96875 C 22.058594 8.324219 22.058594 8.675781 22.0625 9.03125 C 22.0625 9.371094 22.066406 9.714844 22.070312 10.054688 C 22.070312 10.160156 22.070312 10.265625 22.070312 10.371094 C 22.085938 11.238281 22.257812 11.957031 22.78125 12.65625 C 22.78125 12.71875 22.78125 12.78125 22.78125 12.84375 C 22.863281 12.878906 22.863281 12.878906 22.945312 12.914062 C 23.183594 13.046875 23.34375 13.207031 23.53125 13.40625 C 23.421875 13.480469 23.308594 13.550781 23.195312 13.621094 C 23.105469 13.683594 23.105469 13.683594 23.007812 13.746094 C 22.464844 14.054688 21.929688 14.21875 21.320312 14.347656 C 21.222656 14.371094 21.222656 14.371094 21.121094 14.394531 C 20.007812 14.636719 18.914062 14.75 17.777344 14.742188 C 17.660156 14.742188 17.539062 14.742188 17.417969 14.742188 C 15.539062 14.71875 13.742188 14.441406 12.09375 13.5 C 12.09375 13.40625 12.09375 13.3125 12.09375 13.21875 C 12.246094 13.074219 12.246094 13.074219 12.445312 12.917969 C 12.835938 12.59375 13.042969 12.28125 13.21875 11.8125 C 13.25 11.738281 13.28125 11.664062 13.316406 11.589844 C 13.445312 11.105469 13.433594 10.640625 13.433594 10.140625 C 13.4375 9.921875 13.441406 9.699219 13.441406 9.480469 C 13.445312 9.136719 13.445312 8.789062 13.449219 8.445312 C 13.449219 8.109375 13.453125 7.773438 13.457031 7.441406 C 13.457031 7.335938 13.457031 7.234375 13.457031 7.128906 C 13.472656 5.953125 13.820312 5.007812 14.605469 4.121094 C 15.515625 3.261719 16.523438 2.984375 17.734375 2.976562 Z M 17.734375 2.976562 "/>
<path style=" stroke:none;fill-rule:nonzero;fill:rgb(99.215686%,88.627452%,34.901962%);fill-opacity:1;" d="M 10.125 14.0625 C 10.515625 14.21875 10.789062 14.5 11.085938 14.785156 C 11.195312 14.886719 11.304688 14.988281 11.414062 15.089844 C 11.464844 15.140625 11.519531 15.1875 11.574219 15.238281 C 11.808594 15.457031 12.046875 15.664062 12.285156 15.871094 C 12.5 16.058594 12.710938 16.25 12.917969 16.441406 C 13.238281 16.726562 13.558594 17 13.894531 17.269531 C 14.460938 17.726562 14.988281 18.226562 15.519531 18.726562 C 15.8125 19.003906 16.113281 19.269531 16.417969 19.535156 C 16.636719 19.722656 16.847656 19.917969 17.0625 20.109375 C 17.34375 20.363281 17.621094 20.613281 17.90625 20.859375 C 19.148438 21.941406 19.148438 21.941406 19.6875 22.5 C 19.335938 22.730469 18.984375 22.714844 18.578125 22.710938 C 18.46875 22.710938 18.46875 22.710938 18.351562 22.710938 C 18.105469 22.710938 17.855469 22.710938 17.605469 22.710938 C 17.425781 22.710938 17.246094 22.710938 17.066406 22.710938 C 16.582031 22.714844 16.097656 22.710938 15.609375 22.710938 C 15.101562 22.710938 14.59375 22.710938 14.085938 22.710938 C 13.234375 22.714844 12.382812 22.710938 11.53125 22.710938 C 10.542969 22.710938 9.554688 22.710938 8.570312 22.710938 C 7.722656 22.710938 6.875 22.710938 6.027344 22.710938 C 5.523438 22.710938 5.015625 22.710938 4.511719 22.710938 C 4.035156 22.714844 3.5625 22.710938 3.085938 22.710938 C 2.910156 22.710938 2.734375 22.710938 2.558594 22.710938 C 2.324219 22.710938 2.085938 22.710938 1.847656 22.710938 C 1.777344 22.710938 1.707031 22.710938 1.636719 22.710938 C 1.289062 22.710938 1.140625 22.699219 0.84375 22.5 C 0.84375 22.3125 0.84375 22.3125 0.976562 22.179688 C 1.035156 22.128906 1.097656 22.078125 1.160156 22.027344 C 1.464844 21.765625 1.765625 21.503906 2.0625 21.234375 C 2.402344 20.929688 2.742188 20.625 3.089844 20.324219 C 3.308594 20.132812 3.53125 19.933594 3.75 19.734375 C 4.089844 19.429688 4.429688 19.125 4.777344 18.824219 C 4.992188 18.632812 5.207031 18.441406 5.417969 18.246094 C 5.75 17.945312 6.089844 17.660156 6.441406 17.378906 C 6.792969 17.09375 7.121094 16.796875 7.4375 16.46875 C 7.660156 16.246094 7.898438 16.039062 8.140625 15.832031 C 8.367188 15.636719 8.589844 15.4375 8.8125 15.234375 C 9.167969 14.914062 9.527344 14.59375 9.890625 14.277344 C 9.972656 14.207031 10.050781 14.136719 10.125 14.0625 Z M 10.125 14.0625 "/>
<path style=" stroke:none;fill-rule:nonzero;fill:rgb(97.254902%,96.470588%,96.862745%);fill-opacity:1;" d="M 3.84375 5.0625 C 7.03125 5.0625 10.21875 5.0625 13.5 5.0625 C 13.40625 5.433594 13.3125 5.804688 13.21875 6.1875 C 13.121094 6.1875 13.023438 6.1875 12.925781 6.191406 C 12.007812 6.199219 11.09375 6.210938 10.179688 6.21875 C 9.710938 6.222656 9.238281 6.230469 8.769531 6.234375 C 8.316406 6.238281 7.863281 6.242188 7.410156 6.25 C 7.234375 6.25 7.0625 6.253906 6.890625 6.253906 C 6.648438 6.257812 6.402344 6.257812 6.164062 6.261719 C 6.089844 6.261719 6.019531 6.261719 5.941406 6.261719 C 5.617188 6.238281 5.617188 6.238281 5.34375 6.375 C 5.335938 6.515625 5.332031 6.652344 5.332031 6.792969 C 5.332031 6.875 5.332031 6.960938 5.332031 7.046875 C 5.332031 7.132812 5.332031 7.222656 5.332031 7.3125 C 5.332031 7.402344 5.332031 7.488281 5.332031 7.578125 C 5.332031 7.707031 5.332031 7.707031 5.332031 7.832031 C 5.332031 7.910156 5.332031 7.988281 5.332031 8.070312 C 5.324219 8.25 5.324219 8.25 5.4375 8.34375 C 5.675781 8.355469 5.914062 8.363281 6.152344 8.363281 C 6.230469 8.363281 6.304688 8.367188 6.378906 8.367188 C 6.628906 8.367188 6.878906 8.371094 7.128906 8.375 C 7.300781 8.375 7.472656 8.378906 7.644531 8.378906 C 8.097656 8.382812 8.554688 8.390625 9.007812 8.394531 C 9.46875 8.398438 9.933594 8.402344 10.398438 8.410156 C 11.304688 8.417969 12.214844 8.429688 13.125 8.4375 C 13.128906 8.839844 13.132812 9.246094 13.136719 9.652344 C 13.136719 9.765625 13.140625 9.878906 13.140625 9.996094 C 13.148438 11.011719 13.074219 11.871094 12.375 12.65625 C 12.136719 12.839844 11.894531 12.988281 11.625 13.125 C 11.613281 13.34375 11.613281 13.34375 11.71875 13.59375 C 12.542969 14.34375 13.851562 14.601562 14.90625 14.8125 C 14.570312 15.160156 14.21875 15.472656 13.847656 15.777344 C 13.792969 15.820312 13.742188 15.863281 13.6875 15.910156 C 13.5625 16.011719 13.4375 16.117188 13.3125 16.21875 C 13.050781 16.097656 12.851562 15.96875 12.640625 15.769531 C 12.585938 15.71875 12.53125 15.667969 12.476562 15.613281 C 12.417969 15.5625 12.363281 15.507812 12.304688 15.449219 C 12.1875 15.339844 12.070312 15.230469 11.953125 15.117188 C 11.894531 15.066406 11.839844 15.011719 11.78125 14.957031 C 11.308594 14.515625 10.8125 14.101562 10.3125 13.6875 C 9.960938 13.835938 9.722656 14.054688 9.445312 14.316406 C 9.351562 14.398438 9.261719 14.484375 9.167969 14.570312 C 9.082031 14.648438 8.996094 14.730469 8.90625 14.8125 C 8.71875 14.980469 8.527344 15.148438 8.335938 15.3125 C 8.207031 15.421875 8.082031 15.539062 7.960938 15.65625 C 7.894531 15.71875 7.828125 15.78125 7.761719 15.84375 C 7.707031 15.898438 7.648438 15.957031 7.589844 16.011719 C 7.40625 16.125 7.40625 16.125 7.191406 16.128906 C 6.820312 15.984375 6.554688 15.746094 6.253906 15.488281 C 6.121094 15.375 5.988281 15.265625 5.855469 15.15625 C 5.753906 15.070312 5.753906 15.070312 5.648438 14.984375 C 5.183594 14.605469 4.703125 14.253906 4.222656 13.898438 C 3.9375 13.6875 3.9375 13.6875 3.84375 13.59375 C 3.835938 13.328125 3.832031 13.066406 3.832031 12.800781 C 3.832031 12.671875 3.832031 12.671875 3.832031 12.542969 C 3.832031 12.269531 3.832031 11.992188 3.835938 11.71875 C 3.835938 11.550781 3.835938 11.378906 3.835938 11.210938 C 3.835938 10.582031 3.835938 9.953125 3.839844 9.324219 C 3.839844 7.917969 3.84375 6.511719 3.84375 5.0625 Z M 3.84375 5.0625 "/>
<path style=" stroke:none;fill-rule:nonzero;fill:rgb(99.215686%,89.019608%,34.901962%);fill-opacity:1;" d="M 0.46875 11.4375 C 0.851562 11.597656 1.152344 11.863281 1.472656 12.121094 C 1.988281 12.542969 2.511719 12.953125 3.042969 13.355469 C 3.636719 13.804688 4.222656 14.273438 4.804688 14.75 C 5.296875 15.152344 5.800781 15.542969 6.3125 15.925781 C 6.539062 16.105469 6.738281 16.292969 6.9375 16.5 C 5.511719 17.835938 5.511719 17.835938 4.957031 18.316406 C 4.746094 18.5 4.539062 18.691406 4.332031 18.878906 C 4.011719 19.164062 3.691406 19.4375 3.355469 19.707031 C 2.917969 20.0625 2.503906 20.4375 2.089844 20.824219 C 2 20.910156 2 20.910156 1.910156 20.996094 C 1.660156 21.230469 1.410156 21.464844 1.160156 21.703125 C 1.09375 21.761719 1.027344 21.820312 0.960938 21.886719 C 0.90625 21.933594 0.855469 21.984375 0.796875 22.035156 C 0.75 22.066406 0.703125 22.09375 0.65625 22.125 C 0.5625 22.09375 0.46875 22.0625 0.375 22.03125 C 0.375 20.675781 0.371094 19.324219 0.371094 17.972656 C 0.371094 17.34375 0.371094 16.714844 0.367188 16.085938 C 0.367188 15.480469 0.367188 14.875 0.367188 14.265625 C 0.367188 14.035156 0.367188 13.804688 0.363281 13.570312 C 0.363281 13.25 0.363281 12.925781 0.363281 12.601562 C 0.363281 12.503906 0.363281 12.410156 0.363281 12.308594 C 0.363281 12.222656 0.363281 12.132812 0.363281 12.042969 C 0.363281 11.964844 0.363281 11.890625 0.363281 11.8125 C 0.375 11.625 0.375 11.625 0.46875 11.4375 Z M 0.46875 11.4375 "/>
<path style=" stroke:none;fill-rule:nonzero;fill:rgb(99.215686%,88.627452%,34.901962%);fill-opacity:1;" d="M 15 15.28125 C 15.226562 15.503906 15.429688 15.726562 15.621094 15.980469 C 16.019531 16.453125 16.578125 16.683594 17.15625 16.875 C 18.234375 16.964844 18.910156 16.746094 19.78125 16.125 C 19.875 16.0625 19.96875 16 20.0625 15.9375 C 20.066406 16.714844 20.070312 17.496094 20.070312 18.273438 C 20.074219 18.636719 20.074219 19 20.078125 19.359375 C 20.078125 19.710938 20.078125 20.058594 20.082031 20.40625 C 20.082031 20.539062 20.082031 20.671875 20.082031 20.808594 C 20.085938 20.992188 20.085938 21.179688 20.085938 21.367188 C 20.085938 21.472656 20.085938 21.578125 20.085938 21.6875 C 20.0625 21.9375 20.0625 21.9375 19.875 22.125 C 19.464844 21.769531 19.058594 21.410156 18.65625 21.046875 C 18.316406 20.742188 17.976562 20.4375 17.628906 20.136719 C 17.414062 19.945312 17.199219 19.753906 16.988281 19.558594 C 16.667969 19.273438 16.347656 19 16.011719 18.730469 C 15.507812 18.324219 15.03125 17.882812 14.558594 17.433594 C 14.214844 17.109375 13.867188 16.800781 13.5 16.5 C 13.941406 16.015625 14.46875 15.65625 15 15.28125 Z M 15 15.28125 "/>
<path style=" stroke:none;fill-rule:nonzero;fill:rgb(96.862745%,96.078432%,96.862745%);fill-opacity:1;" d="M 5.625 6.5625 C 8.101562 6.5625 10.574219 6.5625 13.125 6.5625 C 13.125 7.058594 13.125 7.550781 13.125 8.0625 C 10.648438 8.0625 8.175781 8.0625 5.625 8.0625 C 5.625 7.566406 5.625 7.074219 5.625 6.5625 Z M 5.625 6.5625 "/>
<path style=" stroke:none;fill-rule:nonzero;fill:rgb(85.882354%,84.705883%,91.764706%);fill-opacity:1;" d="M 3.84375 5.0625 C 4 5.0625 4.152344 5.0625 4.3125 5.0625 C 4.3125 5.160156 4.308594 5.261719 4.308594 5.363281 C 4.292969 6.296875 4.285156 7.230469 4.28125 8.164062 C 4.28125 8.644531 4.277344 9.121094 4.265625 9.601562 C 4.257812 10.066406 4.257812 10.53125 4.257812 10.992188 C 4.257812 11.171875 4.253906 11.347656 4.25 11.523438 C 4.199219 12.457031 4.199219 12.457031 4.535156 13.300781 C 4.886719 13.652344 5.292969 13.902344 5.71875 14.15625 C 5.855469 14.257812 5.988281 14.363281 6.121094 14.472656 C 6.175781 14.515625 6.226562 14.554688 6.28125 14.601562 C 6.386719 14.683594 6.492188 14.765625 6.597656 14.847656 C 6.863281 15.058594 7.132812 15.265625 7.40625 15.46875 C 7.773438 15.316406 8.035156 15.066406 8.320312 14.792969 C 8.421875 14.703125 8.519531 14.609375 8.621094 14.515625 C 8.695312 14.445312 8.695312 14.445312 8.769531 14.378906 C 9.003906 14.15625 9.25 13.945312 9.492188 13.734375 C 9.601562 13.640625 9.703125 13.546875 9.808594 13.449219 C 10.03125 13.242188 10.179688 13.132812 10.480469 13.082031 C 10.875 13.136719 11.0625 13.328125 11.332031 13.597656 C 11.429688 13.695312 11.53125 13.789062 11.628906 13.886719 C 11.675781 13.933594 11.722656 13.980469 11.773438 14.027344 C 11.945312 14.195312 12.125 14.351562 12.304688 14.507812 C 12.363281 14.558594 12.421875 14.605469 12.480469 14.660156 C 12.539062 14.710938 12.597656 14.761719 12.65625 14.8125 C 12.796875 14.933594 12.9375 15.058594 13.078125 15.183594 C 13.140625 15.234375 13.203125 15.292969 13.269531 15.347656 C 13.3125 15.386719 13.359375 15.425781 13.40625 15.46875 C 13.617188 15.367188 13.792969 15.269531 13.980469 15.128906 C 14.15625 15 14.15625 15 14.34375 15 C 14.34375 14.90625 14.34375 14.8125 14.34375 14.71875 C 14.53125 14.75 14.714844 14.78125 14.90625 14.8125 C 14.570312 15.160156 14.21875 15.472656 13.847656 15.777344 C 13.792969 15.820312 13.742188 15.863281 13.6875 15.910156 C 13.5625 16.011719 13.4375 16.117188 13.3125 16.21875 C 13.050781 16.097656 12.851562 15.96875 12.640625 15.769531 C 12.585938 15.71875 12.53125 15.667969 12.476562 15.613281 C 12.417969 15.5625 12.363281 15.507812 12.304688 15.449219 C 12.1875 15.339844 12.070312 15.230469 11.953125 15.117188 C 11.894531 15.066406 11.839844 15.011719 11.78125 14.957031 C 11.308594 14.515625 10.8125 14.101562 10.3125 13.6875 C 9.960938 13.835938 9.722656 14.054688 9.445312 14.316406 C 9.351562 14.398438 9.261719 14.484375 9.167969 14.570312 C 9.082031 14.648438 8.996094 14.730469 8.90625 14.8125 C 8.71875 14.980469 8.527344 15.148438 8.335938 15.3125 C 8.207031 15.421875 8.082031 15.539062 7.960938 15.65625 C 7.894531 15.71875 7.828125 15.78125 7.761719 15.84375 C 7.707031 15.898438 7.648438 15.957031 7.589844 16.011719 C 7.40625 16.125 7.40625 16.125 7.191406 16.128906 C 6.820312 15.984375 6.554688 15.746094 6.253906 15.488281 C 6.121094 15.375 5.988281 15.265625 5.855469 15.15625 C 5.753906 15.070312 5.753906 15.070312 5.648438 14.984375 C 5.183594 14.605469 4.703125 14.253906 4.222656 13.898438 C 3.9375 13.6875 3.9375 13.6875 3.84375 13.59375 C 3.835938 13.328125 3.832031 13.066406 3.832031 12.800781 C 3.832031 12.71875 3.832031 12.632812 3.832031 12.546875 C 3.832031 12.269531 3.832031 11.996094 3.835938 11.71875 C 3.835938 11.527344 3.835938 11.335938 3.835938 11.144531 C 3.835938 10.640625 3.835938 10.136719 3.835938 9.632812 C 3.839844 9.117188 3.839844 8.605469 3.839844 8.089844 C 3.839844 7.082031 3.84375 6.070312 3.84375 5.0625 Z M 3.84375 5.0625 "/>
<path style=" stroke:none;fill-rule:nonzero;fill:rgb(96.078432%,78.823531%,34.117648%);fill-opacity:1;" d="M 1.96875 21.375 C 2 21.4375 2.03125 21.5 2.0625 21.5625 C 2 21.53125 1.9375 21.5 1.875 21.46875 C 1.90625 21.4375 1.9375 21.40625 1.96875 21.375 Z M 1.6875 21.5625 C 1.75 21.59375 1.8125 21.625 1.875 21.65625 C 1.75 21.8125 1.628906 21.964844 1.5 22.125 C 1.59375 22.125 1.683594 22.125 1.777344 22.125 C 4.015625 22.117188 6.253906 22.109375 8.488281 22.105469 C 9.570312 22.101562 10.652344 22.101562 11.734375 22.097656 C 12.675781 22.09375 13.621094 22.089844 14.5625 22.089844 C 15.0625 22.089844 15.5625 22.089844 16.058594 22.085938 C 16.53125 22.082031 17 22.082031 17.46875 22.082031 C 17.640625 22.082031 17.8125 22.082031 17.988281 22.078125 C 18.222656 22.078125 18.457031 22.078125 18.691406 22.078125 C 18.761719 22.078125 18.832031 22.078125 18.902344 22.078125 C 19.09375 22.078125 19.09375 22.078125 19.40625 22.125 C 19.59375 22.316406 19.59375 22.316406 19.6875 22.5 C 19.335938 22.730469 18.984375 22.714844 18.578125 22.710938 C 18.503906 22.710938 18.429688 22.710938 18.351562 22.710938 C 18.105469 22.710938 17.855469 22.710938 17.605469 22.710938 C 17.425781 22.710938 17.246094 22.710938 17.066406 22.710938 C 16.582031 22.714844 16.097656 22.710938 15.609375 22.710938 C 15.101562 22.710938 14.59375 22.710938 14.085938 22.710938 C 13.234375 22.714844 12.382812 22.710938 11.53125 22.710938 C 10.542969 22.710938 9.554688 22.710938 8.570312 22.710938 C 7.722656 22.710938 6.875 22.710938 6.027344 22.710938 C 5.523438 22.710938 5.015625 22.710938 4.511719 22.710938 C 4.035156 22.714844 3.5625 22.710938 3.085938 22.710938 C 2.910156 22.710938 2.734375 22.710938 2.558594 22.710938 C 2.324219 22.710938 2.085938 22.710938 1.847656 22.710938 C 1.742188 22.710938 1.742188 22.710938 1.636719 22.710938 C 1.289062 22.710938 1.140625 22.699219 0.84375 22.5 C 0.84375 22.4375 0.84375 22.375 0.84375 22.3125 C 1.003906 22.152344 1.003906 22.152344 1.214844 21.980469 C 1.316406 21.890625 1.316406 21.890625 1.421875 21.800781 C 1.476562 21.753906 1.535156 21.707031 1.59375 21.65625 C 1.625 21.625 1.65625 21.59375 1.6875 21.5625 Z M 1.6875 21.5625 "/>
<path style=" stroke:none;fill-rule:nonzero;fill:rgb(96.078432%,27.058825%,32.156864%);fill-opacity:1;" d="M 15.1875 3.65625 C 15.25 3.6875 15.3125 3.71875 15.375 3.75 C 15.277344 3.816406 15.183594 3.882812 15.082031 3.949219 C 14.511719 4.429688 14.210938 5.28125 14.0625 6 C 14.054688 6.15625 14.046875 6.308594 14.046875 6.464844 C 14.046875 6.601562 14.046875 6.601562 14.042969 6.742188 C 14.042969 6.84375 14.042969 6.941406 14.042969 7.042969 C 14.039062 7.253906 14.039062 7.464844 14.035156 7.675781 C 14.03125 8.011719 14.027344 8.34375 14.023438 8.671875 C 14.023438 8.996094 14.015625 9.316406 14.015625 9.636719 C 14.011719 9.734375 14.011719 9.832031 14.011719 9.933594 C 13.992188 11.148438 13.738281 12.011719 12.902344 12.890625 C 12.851562 12.9375 12.800781 12.984375 12.75 13.03125 C 14.320312 13.953125 16.238281 14.101562 18.023438 14.089844 C 18.085938 14.089844 18.148438 14.089844 18.214844 14.089844 C 19.910156 14.082031 21.707031 13.898438 23.25 13.125 C 23.34375 13.21875 23.4375 13.3125 23.53125 13.40625 C 23.421875 13.480469 23.308594 13.550781 23.199219 13.621094 C 23.105469 13.683594 23.105469 13.683594 23.007812 13.746094 C 22.464844 14.054688 21.929688 14.21875 21.324219 14.347656 C 21.222656 14.371094 21.222656 14.371094 21.121094 14.394531 C 20.007812 14.636719 18.914062 14.75 17.777344 14.742188 C 17.65625 14.742188 17.539062 14.742188 17.414062 14.742188 C 15.539062 14.71875 13.742188 14.441406 12.09375 13.5 C 12.09375 13.40625 12.09375 13.3125 12.09375 13.21875 C 12.246094 13.074219 12.246094 13.074219 12.445312 12.917969 C 12.835938 12.59375 13.039062 12.28125 13.21875 11.8125 C 13.25 11.738281 13.28125 11.664062 13.316406 11.589844 C 13.445312 11.105469 13.433594 10.640625 13.433594 10.140625 C 13.4375 9.921875 13.441406 9.699219 13.441406 9.480469 C 13.445312 9.136719 13.449219 8.789062 13.449219 8.445312 C 13.453125 8.109375 13.453125 7.773438 13.457031 7.441406 C 13.457031 7.335938 13.457031 7.234375 13.457031 7.128906 C 13.472656 5.960938 13.808594 4.945312 14.648438 4.101562 C 14.824219 3.945312 15 3.796875 15.1875 3.65625 Z M 15.1875 3.65625 "/>
<path style=" stroke:none;fill-rule:nonzero;fill:rgb(98.039216%,80.392158%,34.901962%);fill-opacity:1;" d="M 0.46875 11.4375 C 0.832031 11.601562 0.832031 11.601562 0.9375 11.8125 C 0.945312 11.941406 0.945312 12.070312 0.945312 12.199219 C 0.945312 12.277344 0.945312 12.359375 0.941406 12.441406 C 0.941406 12.53125 0.941406 12.621094 0.9375 12.710938 C 0.9375 12.804688 0.9375 12.898438 0.9375 12.996094 C 0.933594 13.304688 0.929688 13.613281 0.925781 13.921875 C 0.921875 14.136719 0.921875 14.351562 0.917969 14.566406 C 0.914062 15.128906 0.90625 15.695312 0.902344 16.257812 C 0.894531 16.832031 0.886719 17.410156 0.882812 17.984375 C 0.871094 19.113281 0.855469 20.246094 0.84375 21.375 C 0.992188 21.257812 1.140625 21.140625 1.289062 21.019531 C 1.375 20.953125 1.457031 20.886719 1.542969 20.820312 C 1.855469 20.5625 2.15625 20.289062 2.449219 20.011719 C 2.5625 19.902344 2.675781 19.796875 2.789062 19.691406 C 2.839844 19.640625 2.894531 19.59375 2.949219 19.542969 C 3.183594 19.324219 3.421875 19.113281 3.664062 18.90625 C 3.882812 18.714844 4.097656 18.523438 4.3125 18.328125 C 4.652344 18.023438 4.992188 17.71875 5.335938 17.421875 C 5.484375 17.292969 5.628906 17.160156 5.773438 17.023438 C 5.898438 16.910156 5.898438 16.910156 6.023438 16.792969 C 6.097656 16.722656 6.175781 16.648438 6.253906 16.578125 C 6.460938 16.410156 6.585938 16.347656 6.84375 16.3125 C 6.84375 16.59375 6.84375 16.59375 6.734375 16.726562 C 6.683594 16.773438 6.632812 16.816406 6.582031 16.863281 C 6.527344 16.914062 6.472656 16.964844 6.414062 17.019531 C 6.355469 17.070312 6.296875 17.125 6.234375 17.179688 C 6.175781 17.234375 6.113281 17.289062 6.050781 17.34375 C 5.691406 17.671875 5.328125 17.996094 4.960938 18.3125 C 4.746094 18.5 4.539062 18.6875 4.332031 18.878906 C 4.011719 19.164062 3.691406 19.4375 3.355469 19.707031 C 2.917969 20.0625 2.503906 20.4375 2.089844 20.824219 C 2 20.910156 2 20.910156 1.910156 20.996094 C 1.660156 21.230469 1.410156 21.464844 1.160156 21.703125 C 1.09375 21.761719 1.027344 21.820312 0.960938 21.886719 C 0.90625 21.933594 0.855469 21.984375 0.796875 22.035156 C 0.75 22.066406 0.703125 22.09375 0.65625 22.125 C 0.5625 22.09375 0.46875 22.0625 0.375 22.03125 C 0.375 20.675781 0.371094 19.324219 0.371094 17.972656 C 0.371094 17.34375 0.371094 16.714844 0.367188 16.085938 C 0.367188 15.480469 0.367188 14.875 0.367188 14.265625 C 0.367188 14.035156 0.367188 13.804688 0.363281 13.570312 C 0.363281 13.25 0.363281 12.925781 0.363281 12.601562 C 0.363281 12.503906 0.363281 12.410156 0.363281 12.308594 C 0.363281 12.222656 0.363281 12.132812 0.363281 12.042969 C 0.363281 11.964844 0.363281 11.890625 0.363281 11.8125 C 0.375 11.625 0.375 11.625 0.46875 11.4375 Z M 0.46875 11.4375 "/>
<path style=" stroke:none;fill-rule:nonzero;fill:rgb(98.039216%,80.392158%,34.901962%);fill-opacity:1;" d="M 14.4375 15.65625 C 14.5 15.6875 14.5625 15.71875 14.625 15.75 C 14.5 15.90625 14.378906 16.058594 14.25 16.21875 C 14.898438 16.804688 14.898438 16.804688 15.550781 17.378906 C 15.816406 17.609375 16.078125 17.847656 16.339844 18.089844 C 16.75 18.472656 17.167969 18.84375 17.605469 19.195312 C 17.957031 19.476562 18.28125 19.769531 18.59375 20.089844 C 18.929688 20.429688 19.289062 20.75 19.671875 21.03125 C 19.949219 21.234375 20.054688 21.324219 20.109375 21.675781 C 20.0625 21.9375 20.0625 21.9375 19.875 22.125 C 19.464844 21.769531 19.058594 21.410156 18.65625 21.046875 C 18.316406 20.742188 17.976562 20.4375 17.628906 20.136719 C 17.414062 19.945312 17.199219 19.753906 16.988281 19.558594 C 16.667969 19.273438 16.347656 19 16.011719 18.730469 C 15.507812 18.324219 15.03125 17.882812 14.558594 17.433594 C 14.214844 17.109375 13.867188 16.800781 13.5 16.5 C 13.796875 16.195312 14.101562 15.917969 14.4375 15.65625 Z M 14.4375 15.65625 "/>
<path style=" stroke:none;fill-rule:nonzero;fill:rgb(75.686276%,74.901962%,80.784315%);fill-opacity:1;" d="M 5.625 6.5625 C 8.101562 6.5625 10.574219 6.5625 13.125 6.5625 C 13.125 7.058594 13.125 7.550781 13.125 8.0625 C 10.648438 8.0625 8.175781 8.0625 5.625 8.0625 C 5.625 7.566406 5.625 7.074219 5.625 6.5625 Z M 6.1875 6.65625 C 6.1875 6.933594 6.1875 7.214844 6.1875 7.5 C 8.445312 7.5 10.703125 7.5 13.03125 7.5 C 13.03125 7.222656 13.03125 6.941406 13.03125 6.65625 C 10.773438 6.65625 8.515625 6.65625 6.1875 6.65625 Z M 6.1875 6.65625 "/>
<path style=" stroke:none;fill-rule:nonzero;fill:rgb(95.294118%,27.058825%,32.156864%);fill-opacity:1;" d="M 15.375 14.90625 C 15.433594 14.914062 15.492188 14.917969 15.550781 14.925781 C 16.308594 15.003906 17.058594 15.015625 17.816406 15.011719 C 17.941406 15.011719 18.0625 15.011719 18.1875 15.011719 C 18.847656 15.011719 19.5 14.992188 20.15625 14.90625 C 20.035156 15.464844 19.746094 15.777344 19.3125 16.125 C 18.613281 16.558594 17.949219 16.6875 17.132812 16.558594 C 16.488281 16.390625 15.988281 15.972656 15.5625 15.46875 C 15.441406 15.160156 15.441406 15.160156 15.375 14.90625 Z M 15.375 14.90625 "/>
<path style=" stroke:none;fill-rule:nonzero;fill:rgb(98.823529%,88.235295%,34.901962%);fill-opacity:1;" d="M 3.375 9.1875 C 3.375 10.488281 3.375 11.785156 3.375 13.125 C 2.902344 12.855469 2.5625 12.636719 2.160156 12.292969 C 1.777344 11.960938 1.382812 11.648438 0.96875 11.359375 C 0.925781 11.320312 0.886719 11.285156 0.84375 11.25 C 0.84375 11.1875 0.84375 11.125 0.84375 11.0625 C 0.976562 10.941406 0.976562 10.941406 1.164062 10.800781 C 1.230469 10.75 1.296875 10.699219 1.367188 10.644531 C 1.441406 10.59375 1.511719 10.539062 1.589844 10.480469 C 1.734375 10.371094 1.878906 10.261719 2.027344 10.152344 C 2.097656 10.097656 2.167969 10.046875 2.242188 9.992188 C 2.546875 9.761719 2.84375 9.523438 3.144531 9.289062 C 3.28125 9.1875 3.28125 9.1875 3.375 9.1875 Z M 3.375 9.1875 "/>
<path style=" stroke:none;fill-rule:nonzero;fill:rgb(80.784315%,80.000001%,86.666667%);fill-opacity:1;" d="M 6.003906 10.289062 C 6.105469 10.289062 6.203125 10.289062 6.304688 10.285156 C 6.464844 10.289062 6.464844 10.289062 6.628906 10.289062 C 6.792969 10.289062 6.792969 10.289062 6.960938 10.289062 C 7.195312 10.289062 7.425781 10.289062 7.65625 10.289062 C 8.015625 10.289062 8.371094 10.289062 8.726562 10.289062 C 8.953125 10.289062 9.175781 10.289062 9.402344 10.289062 C 9.507812 10.289062 9.617188 10.289062 9.726562 10.285156 C 9.875 10.289062 9.875 10.289062 10.027344 10.289062 C 10.113281 10.289062 10.199219 10.289062 10.289062 10.289062 C 10.5 10.3125 10.5 10.3125 10.6875 10.5 C 10.683594 10.730469 10.683594 10.730469 10.59375 10.96875 C 10.152344 11.363281 9.613281 11.289062 9.058594 11.28125 C 8.953125 11.28125 8.851562 11.28125 8.742188 11.28125 C 8.527344 11.277344 8.308594 11.277344 8.089844 11.277344 C 7.757812 11.273438 7.421875 11.273438 7.089844 11.273438 C 6.878906 11.269531 6.667969 11.269531 6.457031 11.269531 C 6.304688 11.269531 6.304688 11.269531 6.152344 11.269531 C 6.011719 11.265625 6.011719 11.265625 5.871094 11.265625 C 5.789062 11.265625 5.707031 11.265625 5.625 11.261719 C 5.4375 11.25 5.4375 11.25 5.34375 11.15625 C 5.324219 10.832031 5.324219 10.832031 5.34375 10.5 C 5.582031 10.261719 5.671875 10.289062 6.003906 10.289062 Z M 6.003906 10.289062 "/>
<path style=" stroke:none;fill-rule:nonzero;fill:rgb(87.450981%,86.274511%,92.941177%);fill-opacity:1;" d="M 6.363281 5.59375 C 6.4375 5.59375 6.511719 5.59375 6.589844 5.59375 C 6.839844 5.59375 7.085938 5.59375 7.332031 5.597656 C 7.507812 5.597656 7.679688 5.597656 7.851562 5.597656 C 8.300781 5.601562 8.753906 5.601562 9.207031 5.605469 C 9.671875 5.609375 10.132812 5.609375 10.59375 5.609375 C 11.5 5.613281 12.40625 5.621094 13.3125 5.625 C 13.28125 5.8125 13.25 5.996094 13.21875 6.1875 C 13.121094 6.1875 13.023438 6.1875 12.925781 6.191406 C 12.011719 6.199219 11.097656 6.210938 10.183594 6.21875 C 9.714844 6.226562 9.246094 6.230469 8.777344 6.234375 C 8.324219 6.238281 7.871094 6.242188 7.417969 6.25 C 7.246094 6.25 7.070312 6.253906 6.898438 6.253906 C 6.65625 6.257812 6.414062 6.257812 6.171875 6.261719 C 6.066406 6.261719 6.066406 6.261719 5.953125 6.261719 C 5.589844 6.261719 5.589844 6.261719 5.25 6.375 C 5.28125 6.140625 5.3125 5.953125 5.441406 5.75 C 5.726562 5.554688 6.027344 5.589844 6.363281 5.59375 Z M 6.363281 5.59375 "/>
<path style=" stroke:none;fill-rule:nonzero;fill:rgb(99.215686%,38.82353%,43.137255%);fill-opacity:1;" d="M 19.96875 15 C 19.570312 15.578125 19.152344 15.863281 18.46875 16.03125 C 17.726562 16.140625 17.199219 16.003906 16.59375 15.5625 C 16.355469 15.351562 16.355469 15.351562 16.21875 15.1875 C 16.21875 15.15625 16.21875 15.125 16.21875 15.09375 C 16.632812 15.082031 17.046875 15.066406 17.460938 15.054688 C 17.601562 15.046875 17.742188 15.046875 17.878906 15.039062 C 18.082031 15.035156 18.285156 15.027344 18.488281 15.019531 C 18.609375 15.015625 18.734375 15.011719 18.859375 15.007812 C 19.230469 15 19.597656 15 19.96875 15 Z M 19.96875 15 "/>
<path style=" stroke:none;fill-rule:nonzero;fill:rgb(83.529413%,82.352942%,89.411765%);fill-opacity:1;" d="M 5.757812 9.070312 C 5.894531 9.070312 5.894531 9.070312 6.039062 9.070312 C 6.140625 9.070312 6.238281 9.074219 6.34375 9.074219 C 6.449219 9.074219 6.554688 9.074219 6.664062 9.078125 C 6.820312 9.078125 6.820312 9.078125 6.980469 9.078125 C 7.769531 9.082031 7.769531 9.082031 7.875 9.1875 C 7.890625 9.460938 7.890625 9.460938 7.875 9.75 C 7.625 10 7.4375 10.023438 7.089844 10.042969 C 6.96875 10.042969 6.96875 10.042969 6.84375 10.039062 C 6.757812 10.039062 6.667969 10.039062 6.578125 10.039062 C 6.488281 10.039062 6.398438 10.039062 6.304688 10.039062 C 6.167969 10.035156 6.167969 10.035156 6.027344 10.035156 C 5.796875 10.035156 5.570312 10.03125 5.34375 10.03125 C 5.324219 9.464844 5.324219 9.464844 5.34375 9.28125 C 5.53125 9.09375 5.53125 9.09375 5.757812 9.070312 Z M 5.757812 9.070312 "/>
<path style=" stroke:none;fill-rule:nonzero;fill:rgb(95.294118%,26.666668%,32.156864%);fill-opacity:1;" d="M 18.1875 1.40625 C 18.546875 1.765625 18.84375 2.105469 18.84375 2.625 C 18.132812 2.625 17.421875 2.625 16.6875 2.625 C 16.792969 2.097656 16.960938 1.800781 17.324219 1.410156 C 17.648438 1.253906 17.847656 1.304688 18.1875 1.40625 Z M 18.1875 1.40625 "/>
<path style=" stroke:none;fill-rule:nonzero;fill:rgb(97.254902%,79.607844%,34.509805%);fill-opacity:1;" d="M 1.78125 10.3125 C 1.84375 10.34375 1.90625 10.375 1.96875 10.40625 C 1.8125 10.59375 1.660156 10.777344 1.5 10.96875 C 1.582031 11.007812 1.582031 11.007812 1.667969 11.046875 C 1.863281 11.148438 2.019531 11.257812 2.191406 11.394531 C 2.277344 11.460938 2.277344 11.460938 2.367188 11.53125 C 2.425781 11.578125 2.484375 11.625 2.542969 11.671875 C 2.601562 11.71875 2.660156 11.765625 2.722656 11.8125 C 2.949219 11.996094 3.167969 12.167969 3.375 12.375 C 3.398438 12.628906 3.382812 12.871094 3.375 13.125 C 2.863281 12.871094 2.445312 12.535156 2.015625 12.167969 C 1.679688 11.878906 1.332031 11.613281 0.96875 11.359375 C 0.925781 11.320312 0.886719 11.285156 0.84375 11.25 C 0.84375 11.1875 0.84375 11.125 0.84375 11.0625 C 0.996094 10.925781 1.152344 10.800781 1.3125 10.675781 C 1.398438 10.609375 1.488281 10.539062 1.574219 10.46875 C 1.644531 10.417969 1.710938 10.367188 1.78125 10.3125 Z M 1.78125 10.3125 "/>
<path style=" stroke:none;fill-rule:nonzero;fill:rgb(11.372549%,11.372549%,11.764706%);fill-opacity:1;" d="M 5.34375 10.875 C 6.953125 10.875 8.5625 10.875 10.21875 10.875 C 10.1875 11 10.15625 11.121094 10.125 11.25 C 8.578125 11.25 7.03125 11.25 5.4375 11.25 C 5.40625 11.125 5.375 11.003906 5.34375 10.875 Z M 5.34375 10.875 "/>
<path style=" stroke:none;fill-rule:nonzero;fill:rgb(92.941177%,76.862746%,32.941177%);fill-opacity:1;" d="M 10.304688 3.855469 C 10.550781 3.960938 10.738281 4.097656 10.945312 4.265625 C 11.019531 4.324219 11.09375 4.382812 11.171875 4.445312 C 11.230469 4.492188 11.285156 4.542969 11.34375 4.59375 C 11.34375 4.625 11.34375 4.65625 11.34375 4.6875 C 10.601562 4.6875 9.859375 4.6875 9.09375 4.6875 C 9.535156 4.246094 9.535156 4.246094 9.796875 4.046875 C 9.851562 4.007812 9.902344 3.964844 9.957031 3.925781 C 10.125 3.84375 10.125 3.84375 10.304688 3.855469 Z M 10.304688 3.855469 "/>
<path style=" stroke:none;fill-rule:nonzero;fill:rgb(8.235294%,8.235294%,8.235294%);fill-opacity:1;" d="M 5.34375 9.65625 C 6.023438 9.65625 6.703125 9.65625 7.40625 9.65625 C 7.375 9.78125 7.34375 9.902344 7.3125 10.03125 C 6.664062 10.03125 6.011719 10.03125 5.34375 10.03125 C 5.34375 9.90625 5.34375 9.785156 5.34375 9.65625 Z M 5.34375 9.65625 "/>
<path style=" stroke:none;fill-rule:nonzero;fill:rgb(95.294118%,36.470589%,40.784314%);fill-opacity:1;" d="M 17.53125 1.3125 C 18.125 1.359375 18.125 1.359375 18.417969 1.582031 C 18.5625 1.78125 18.5625 1.78125 18.5625 2.0625 C 18.128906 2.0625 17.695312 2.0625 17.25 2.0625 C 17.34375 1.816406 17.4375 1.566406 17.53125 1.3125 Z M 17.53125 1.3125 "/>
<path style=" stroke:none;fill-rule:nonzero;fill:rgb(82.352942%,81.176472%,87.843138%);fill-opacity:1;" d="M 12.9375 11.4375 C 12.96875 11.5 13 11.5625 13.03125 11.625 C 12.734375 12.339844 12.292969 12.757812 11.625 13.125 C 11.59375 13.03125 11.5625 12.9375 11.53125 12.84375 C 11.738281 12.621094 11.921875 12.457031 12.183594 12.300781 C 12.53125 12.046875 12.703125 11.796875 12.9375 11.4375 Z M 12.9375 11.4375 "/>
<path style=" stroke:none;fill-rule:nonzero;fill:rgb(97.647059%,33.725491%,38.431373%);fill-opacity:1;" d="M 15.46875 3.46875 C 15.53125 3.46875 15.59375 3.46875 15.65625 3.46875 C 15.515625 3.792969 15.332031 4 15.082031 4.242188 C 15.015625 4.308594 14.945312 4.375 14.875 4.441406 C 14.824219 4.492188 14.773438 4.542969 14.71875 4.59375 C 14.6875 4.5 14.65625 4.40625 14.625 4.3125 C 14.671875 4.273438 14.714844 4.238281 14.761719 4.199219 C 14.820312 4.148438 14.878906 4.101562 14.941406 4.050781 C 15 4 15.058594 3.949219 15.117188 3.902344 C 15.300781 3.742188 15.300781 3.742188 15.46875 3.46875 Z M 15.46875 3.46875 "/>
</g>
</svg>
