<?xml version="1.0" encoding="UTF-8"?>
<svg xmlns="http://www.w3.org/2000/svg" xmlns:xlink="http://www.w3.org/1999/xlink" width="24" height="24" viewBox="0 0 24 24" version="1.1">
<g id="surface1">
<path style=" stroke:none;fill-rule:nonzero;fill:rgb(64.705884%,83.529413%,96.862745%);fill-opacity:1;" d="M 14.15625 0.28125 C 17.3125 0.28125 20.46875 0.28125 23.71875 0.28125 C 23.71875 1.316406 23.722656 2.351562 23.722656 3.417969 C 23.726562 3.742188 23.726562 4.070312 23.726562 4.40625 C 23.726562 4.664062 23.726562 4.921875 23.726562 5.179688 C 23.726562 5.246094 23.726562 5.3125 23.730469 5.382812 C 23.730469 5.582031 23.730469 5.777344 23.730469 5.976562 C 23.730469 6.085938 23.730469 6.199219 23.730469 6.3125 C 23.71875 6.5625 23.71875 6.5625 23.625 6.65625 C 23.347656 6.664062 23.074219 6.667969 22.796875 6.664062 C 22.671875 6.664062 22.671875 6.664062 22.542969 6.664062 C 22.277344 6.664062 22.011719 6.664062 21.746094 6.660156 C 21.5625 6.660156 21.382812 6.660156 21.203125 6.660156 C 20.761719 6.660156 20.316406 6.65625 19.875 6.65625 C 19.921875 7.027344 19.921875 7.027344 19.96875 7.40625 C 20.308594 7.53125 20.648438 7.652344 21 7.78125 C 21 7.9375 21 8.089844 21 8.25 C 20.96875 8.28125 20.9375 8.3125 20.90625 8.34375 C 20.550781 8.308594 20.203125 8.257812 19.855469 8.195312 C 19.085938 8.0625 18.476562 8.089844 17.71875 8.25 C 17.4375 8.289062 17.15625 8.316406 16.875 8.34375 C 16.816406 8.175781 16.816406 8.175781 16.78125 7.96875 C 17 7.640625 17.082031 7.628906 17.449219 7.527344 C 17.535156 7.503906 17.621094 7.480469 17.707031 7.457031 C 17.773438 7.441406 17.839844 7.425781 17.90625 7.40625 C 17.9375 7.160156 17.96875 6.910156 18 6.65625 C 17.886719 6.65625 17.773438 6.65625 17.660156 6.660156 C 17.242188 6.664062 16.824219 6.664062 16.40625 6.667969 C 16.226562 6.667969 16.046875 6.667969 15.867188 6.671875 C 15.609375 6.671875 15.347656 6.675781 15.089844 6.675781 C 15.007812 6.675781 14.925781 6.675781 14.84375 6.679688 C 14.644531 6.679688 14.449219 6.667969 14.25 6.65625 C 14.0625 6.46875 14.0625 6.46875 14.039062 6.21875 C 14.039062 6.0625 14.039062 6.0625 14.039062 5.898438 C 14.039062 5.78125 14.039062 5.660156 14.039062 5.539062 C 14.039062 5.40625 14.039062 5.273438 14.039062 5.144531 C 14.039062 5.011719 14.039062 4.875 14.039062 4.742188 C 14.039062 4.460938 14.042969 4.183594 14.042969 3.902344 C 14.042969 3.539062 14.046875 3.179688 14.042969 2.820312 C 14.042969 2.546875 14.046875 2.269531 14.046875 1.992188 C 14.046875 1.859375 14.046875 1.726562 14.046875 1.59375 C 14.046875 1.410156 14.046875 1.222656 14.046875 1.039062 C 14.050781 0.933594 14.050781 0.828125 14.050781 0.71875 C 14.0625 0.46875 14.0625 0.46875 14.15625 0.28125 Z M 14.15625 0.28125 "/>
<path style=" stroke:none;fill-rule:nonzero;fill:rgb(63.921571%,82.352942%,95.294118%);fill-opacity:1;" d="M 0.988281 15.644531 C 1.074219 15.644531 1.164062 15.644531 1.253906 15.644531 C 1.394531 15.644531 1.394531 15.644531 1.535156 15.644531 C 1.839844 15.644531 2.148438 15.644531 2.457031 15.648438 C 2.667969 15.648438 2.878906 15.648438 3.09375 15.648438 C 3.652344 15.648438 4.210938 15.648438 4.769531 15.648438 C 5.339844 15.652344 5.914062 15.652344 6.480469 15.652344 C 7.601562 15.652344 8.722656 15.652344 9.84375 15.65625 C 9.972656 15.914062 9.949219 16.125 9.949219 16.414062 C 9.949219 16.53125 9.949219 16.652344 9.949219 16.773438 C 9.949219 16.90625 9.949219 17.035156 9.949219 17.167969 C 9.949219 17.300781 9.949219 17.433594 9.949219 17.570312 C 9.949219 17.847656 9.949219 18.128906 9.949219 18.410156 C 9.949219 18.769531 9.949219 19.132812 9.949219 19.492188 C 9.949219 19.769531 9.949219 20.042969 9.949219 20.320312 C 9.949219 20.453125 9.949219 20.585938 9.949219 20.71875 C 9.949219 20.902344 9.949219 21.089844 9.949219 21.273438 C 9.949219 21.378906 9.949219 21.484375 9.949219 21.59375 C 9.9375 21.84375 9.9375 21.84375 9.84375 22.03125 C 8.574219 22.03125 7.308594 22.03125 6 22.03125 C 6 22.308594 6 22.585938 6 22.875 C 6.171875 22.890625 6.171875 22.890625 6.351562 22.910156 C 6.894531 22.980469 6.894531 22.980469 7.125 23.15625 C 7.203125 23.34375 7.203125 23.34375 7.21875 23.53125 C 7.1875 23.59375 7.15625 23.65625 7.125 23.71875 C 6.792969 23.730469 6.527344 23.738281 6.214844 23.625 C 5.835938 23.511719 5.507812 23.503906 5.117188 23.507812 C 5.046875 23.507812 4.980469 23.507812 4.910156 23.503906 C 4.460938 23.507812 4.085938 23.585938 3.65625 23.71875 C 3.4375 23.726562 3.21875 23.726562 3 23.71875 C 3 23.53125 3 23.347656 3 23.15625 C 3.371094 23.03125 3.742188 22.910156 4.125 22.78125 C 4.15625 22.535156 4.1875 22.285156 4.21875 22.03125 C 2.917969 22.03125 1.621094 22.03125 0.28125 22.03125 C 0.277344 20.46875 0.277344 20.46875 0.277344 19.804688 C 0.277344 19.347656 0.273438 18.894531 0.273438 18.441406 C 0.273438 18.074219 0.273438 17.707031 0.273438 17.34375 C 0.273438 17.203125 0.273438 17.0625 0.269531 16.921875 C 0.269531 16.726562 0.269531 16.53125 0.269531 16.335938 C 0.269531 16.226562 0.269531 16.113281 0.269531 16 C 0.292969 15.519531 0.570312 15.644531 0.988281 15.644531 Z M 0.988281 15.644531 "/>
<path style=" stroke:none;fill-rule:nonzero;fill:rgb(0%,0%,0%);fill-opacity:1;" d="M 12.46875 2.25 C 12.9375 2.277344 13.160156 2.410156 13.488281 2.742188 C 13.5625 2.8125 13.636719 2.886719 13.710938 2.960938 C 13.875 3.1875 13.875 3.1875 13.929688 3.414062 C 13.851562 3.765625 13.640625 3.964844 13.386719 4.207031 C 13.34375 4.253906 13.296875 4.304688 13.25 4.351562 C 13.113281 4.488281 13.113281 4.488281 12.84375 4.6875 C 12.574219 4.671875 12.574219 4.671875 12.375 4.59375 C 12.355469 4.378906 12.355469 4.378906 12.375 4.125 C 12.515625 3.96875 12.515625 3.96875 12.65625 3.84375 C 11.707031 3.839844 10.757812 3.835938 9.808594 3.835938 C 9.367188 3.832031 8.925781 3.832031 8.484375 3.828125 C 8.058594 3.828125 7.632812 3.828125 7.207031 3.824219 C 7.042969 3.824219 6.882812 3.824219 6.722656 3.824219 C 5.21875 3.816406 4.054688 3.894531 2.910156 4.945312 C 2.621094 5.261719 2.429688 5.613281 2.25 6 C 2.296875 6.046875 2.34375 6.09375 2.390625 6.140625 C 2.675781 6.445312 2.882812 6.675781 3.011719 7.078125 C 2.992188 7.617188 2.851562 8.050781 2.464844 8.4375 C 2.359375 8.53125 2.359375 8.53125 2.25 8.625 C 2.773438 9.609375 3.328125 10.171875 4.363281 10.589844 C 4.933594 10.761719 5.503906 10.757812 6.097656 10.753906 C 6.230469 10.753906 6.359375 10.753906 6.492188 10.753906 C 6.765625 10.757812 7.039062 10.757812 7.316406 10.753906 C 7.664062 10.75 8.015625 10.753906 8.367188 10.757812 C 8.640625 10.761719 8.910156 10.757812 9.183594 10.757812 C 9.3125 10.757812 9.441406 10.757812 9.570312 10.761719 C 10.246094 10.800781 10.246094 10.800781 10.84375 10.5625 C 10.964844 10.398438 10.964844 10.398438 11.0625 10.125 C 11.355469 9.839844 11.578125 9.796875 11.980469 9.792969 C 12.484375 9.800781 12.746094 9.902344 13.105469 10.246094 C 13.230469 10.425781 13.265625 10.570312 13.3125 10.78125 C 13.378906 10.78125 13.441406 10.78125 13.507812 10.78125 C 14.121094 10.777344 14.730469 10.773438 15.34375 10.773438 C 15.660156 10.769531 15.972656 10.769531 16.289062 10.765625 C 16.652344 10.765625 17.015625 10.761719 17.378906 10.761719 C 17.488281 10.761719 17.601562 10.761719 17.714844 10.757812 C 19.015625 10.757812 20.117188 10.941406 21.1875 11.71875 C 21.261719 11.769531 21.339844 11.820312 21.417969 11.871094 C 21.957031 12.371094 22.359375 12.960938 22.5 13.6875 C 22.582031 13.695312 22.664062 13.703125 22.753906 13.710938 C 23.109375 13.792969 23.269531 13.902344 23.53125 14.15625 C 23.800781 14.597656 23.796875 15.0625 23.71875 15.5625 C 23.578125 15.847656 23.417969 16.039062 23.15625 16.21875 C 22.792969 16.308594 22.792969 16.308594 22.5 16.3125 C 22.488281 16.363281 22.476562 16.414062 22.464844 16.464844 C 22.203125 17.40625 21.589844 18.082031 20.78125 18.613281 C 19.921875 19.085938 19.070312 19.234375 18.097656 19.226562 C 17.953125 19.226562 17.804688 19.226562 17.65625 19.226562 C 17.578125 19.226562 17.503906 19.226562 17.421875 19.226562 C 17.011719 19.226562 16.597656 19.226562 16.183594 19.226562 C 15.660156 19.230469 15.140625 19.230469 14.617188 19.226562 C 14.191406 19.226562 13.765625 19.226562 13.339844 19.230469 C 13.179688 19.230469 13.019531 19.230469 12.859375 19.230469 C 11.992188 19.191406 11.992188 19.191406 11.199219 19.460938 C 11.023438 19.632812 11.023438 19.632812 10.898438 19.820312 C 10.78125 19.96875 10.78125 19.96875 10.464844 20.0625 C 10.382812 20.0625 10.300781 20.0625 10.21875 20.0625 C 10.125 19.96875 10.125 19.96875 10.082031 19.761719 C 10.144531 19.371094 10.394531 19.191406 10.6875 18.9375 C 10.585938 18.699219 10.496094 18.558594 10.300781 18.378906 C 10.125 18.1875 10.125 18.1875 10.101562 17.929688 C 10.109375 17.859375 10.117188 17.789062 10.125 17.71875 C 10.335938 17.648438 10.335938 17.648438 10.59375 17.625 C 10.765625 17.796875 10.765625 17.796875 10.941406 18.035156 C 11.328125 18.445312 11.640625 18.550781 12.1875 18.566406 C 12.488281 18.570312 12.789062 18.566406 13.085938 18.558594 C 13.246094 18.558594 13.40625 18.554688 13.570312 18.554688 C 13.902344 18.554688 14.238281 18.550781 14.574219 18.542969 C 15 18.535156 15.429688 18.53125 15.855469 18.527344 C 16.265625 18.527344 16.679688 18.519531 17.089844 18.515625 C 17.164062 18.515625 17.242188 18.515625 17.320312 18.515625 C 18.652344 18.5 19.953125 18.464844 20.980469 17.507812 C 21.3125 17.152344 21.535156 16.746094 21.75 16.3125 C 21.710938 16.273438 21.671875 16.238281 21.628906 16.199219 C 21.578125 16.148438 21.527344 16.101562 21.472656 16.050781 C 21.421875 16 21.371094 15.949219 21.320312 15.902344 C 21.03125 15.574219 21.0625 15.179688 21.066406 14.765625 C 21.121094 14.292969 21.425781 14.007812 21.75 13.6875 C 21.269531 12.78125 20.675781 12.074219 19.6875 11.71875 C 18.898438 11.539062 18.113281 11.5 17.304688 11.492188 C 17.1875 11.492188 17.074219 11.488281 16.957031 11.488281 C 16.59375 11.480469 16.230469 11.476562 15.867188 11.472656 C 15.621094 11.46875 15.371094 11.464844 15.125 11.460938 C 14.519531 11.453125 13.917969 11.445312 13.3125 11.4375 C 13.285156 11.523438 13.261719 11.613281 13.234375 11.703125 C 13.125 12.003906 13.011719 12.1875 12.753906 12.382812 C 12.332031 12.574219 11.882812 12.542969 11.4375 12.46875 C 11.160156 12.34375 11.074219 12.242188 10.875 12 C 10.808594 11.8125 10.746094 11.625 10.6875 11.4375 C 10.613281 11.4375 10.539062 11.4375 10.464844 11.441406 C 9.761719 11.449219 9.0625 11.453125 8.363281 11.457031 C 8.003906 11.460938 7.640625 11.460938 7.28125 11.464844 C 6.933594 11.46875 6.585938 11.472656 6.238281 11.472656 C 6.105469 11.472656 5.972656 11.476562 5.839844 11.476562 C 4.453125 11.496094 3.476562 11.203125 2.460938 10.261719 C 1.5 9.21875 1.5 9.21875 1.5 8.625 C 1.417969 8.617188 1.335938 8.609375 1.246094 8.601562 C 0.890625 8.519531 0.730469 8.410156 0.46875 8.15625 C 0.199219 7.714844 0.203125 7.25 0.28125 6.75 C 0.421875 6.464844 0.582031 6.273438 0.84375 6.09375 C 1.207031 6.003906 1.207031 6.003906 1.5 6 C 1.515625 5.914062 1.53125 5.824219 1.546875 5.738281 C 1.832031 4.765625 2.621094 4.050781 3.46875 3.5625 C 4.265625 3.191406 5.035156 3.082031 5.910156 3.074219 C 6.019531 3.074219 6.019531 3.074219 6.128906 3.070312 C 6.367188 3.070312 6.605469 3.066406 6.839844 3.0625 C 7.007812 3.0625 7.171875 3.058594 7.335938 3.058594 C 7.769531 3.054688 8.203125 3.046875 8.632812 3.042969 C 9.078125 3.039062 9.519531 3.035156 9.960938 3.027344 C 10.828125 3.019531 11.695312 3.007812 12.5625 3 C 12.46875 2.90625 12.46875 2.90625 12.375 2.8125 C 12.355469 2.574219 12.355469 2.574219 12.375 2.34375 C 12.40625 2.3125 12.4375 2.28125 12.46875 2.25 Z M 12.46875 2.25 "/>
<path style=" stroke:none;fill-rule:nonzero;fill:rgb(0.784314%,1.176471%,1.176471%);fill-opacity:1;" d="M 14.15625 0.28125 C 17.3125 0.28125 20.46875 0.28125 23.71875 0.28125 C 23.71875 1.316406 23.722656 2.351562 23.722656 3.417969 C 23.726562 3.742188 23.726562 4.070312 23.726562 4.40625 C 23.726562 4.664062 23.726562 4.921875 23.726562 5.179688 C 23.726562 5.246094 23.726562 5.3125 23.730469 5.382812 C 23.730469 5.582031 23.730469 5.777344 23.730469 5.976562 C 23.730469 6.085938 23.730469 6.199219 23.730469 6.3125 C 23.71875 6.5625 23.71875 6.5625 23.625 6.65625 C 23.347656 6.664062 23.074219 6.667969 22.796875 6.664062 C 22.671875 6.664062 22.671875 6.664062 22.542969 6.664062 C 22.277344 6.664062 22.011719 6.664062 21.746094 6.660156 C 21.5625 6.660156 21.382812 6.660156 21.203125 6.660156 C 20.761719 6.660156 20.316406 6.65625 19.875 6.65625 C 19.921875 7.027344 19.921875 7.027344 19.96875 7.40625 C 20.308594 7.53125 20.648438 7.652344 21 7.78125 C 21 7.9375 21 8.089844 21 8.25 C 20.96875 8.28125 20.9375 8.3125 20.90625 8.34375 C 20.550781 8.308594 20.203125 8.257812 19.855469 8.195312 C 19.085938 8.0625 18.476562 8.089844 17.71875 8.25 C 17.4375 8.289062 17.15625 8.316406 16.875 8.34375 C 16.816406 8.175781 16.816406 8.175781 16.78125 7.96875 C 17 7.640625 17.082031 7.628906 17.449219 7.527344 C 17.535156 7.503906 17.621094 7.480469 17.707031 7.457031 C 17.773438 7.441406 17.839844 7.425781 17.90625 7.40625 C 17.9375 7.160156 17.96875 6.910156 18 6.65625 C 17.886719 6.65625 17.773438 6.65625 17.660156 6.660156 C 17.242188 6.664062 16.824219 6.664062 16.40625 6.667969 C 16.226562 6.667969 16.046875 6.667969 15.867188 6.671875 C 15.609375 6.671875 15.347656 6.675781 15.089844 6.675781 C 15.007812 6.675781 14.925781 6.675781 14.84375 6.679688 C 14.644531 6.679688 14.449219 6.667969 14.25 6.65625 C 14.0625 6.46875 14.0625 6.46875 14.039062 6.21875 C 14.039062 6.0625 14.039062 6.0625 14.039062 5.898438 C 14.039062 5.78125 14.039062 5.660156 14.039062 5.539062 C 14.039062 5.40625 14.039062 5.273438 14.039062 5.144531 C 14.039062 5.011719 14.039062 4.875 14.039062 4.742188 C 14.039062 4.460938 14.042969 4.183594 14.042969 3.902344 C 14.042969 3.539062 14.046875 3.179688 14.042969 2.820312 C 14.042969 2.546875 14.046875 2.269531 14.046875 1.992188 C 14.046875 1.859375 14.046875 1.726562 14.046875 1.59375 C 14.046875 1.410156 14.046875 1.222656 14.046875 1.039062 C 14.050781 0.933594 14.050781 0.828125 14.050781 0.71875 C 14.0625 0.46875 14.0625 0.46875 14.15625 0.28125 Z M 14.71875 0.84375 C 14.71875 2.175781 14.71875 3.503906 14.71875 4.875 C 17.503906 4.875 20.289062 4.875 23.15625 4.875 C 23.15625 3.542969 23.15625 2.214844 23.15625 0.84375 C 20.371094 0.84375 17.585938 0.84375 14.71875 0.84375 Z M 14.71875 0.84375 "/>
<path style=" stroke:none;fill-rule:nonzero;fill:rgb(0.392157%,0.392157%,0.784314%);fill-opacity:1;" d="M 0.988281 15.644531 C 1.074219 15.644531 1.164062 15.644531 1.253906 15.644531 C 1.394531 15.644531 1.394531 15.644531 1.535156 15.644531 C 1.839844 15.644531 2.148438 15.644531 2.457031 15.648438 C 2.667969 15.648438 2.878906 15.648438 3.09375 15.648438 C 3.652344 15.648438 4.210938 15.648438 4.769531 15.648438 C 5.339844 15.652344 5.914062 15.652344 6.480469 15.652344 C 7.601562 15.652344 8.722656 15.652344 9.84375 15.65625 C 9.972656 15.914062 9.949219 16.125 9.949219 16.414062 C 9.949219 16.53125 9.949219 16.652344 9.949219 16.773438 C 9.949219 16.90625 9.949219 17.035156 9.949219 17.167969 C 9.949219 17.300781 9.949219 17.433594 9.949219 17.570312 C 9.949219 17.847656 9.949219 18.128906 9.949219 18.410156 C 9.949219 18.769531 9.949219 19.132812 9.949219 19.492188 C 9.949219 19.769531 9.949219 20.042969 9.949219 20.320312 C 9.949219 20.453125 9.949219 20.585938 9.949219 20.71875 C 9.949219 20.902344 9.949219 21.089844 9.949219 21.273438 C 9.949219 21.378906 9.949219 21.484375 9.949219 21.59375 C 9.9375 21.84375 9.9375 21.84375 9.84375 22.03125 C 8.574219 22.03125 7.308594 22.03125 6 22.03125 C 6 22.308594 6 22.585938 6 22.875 C 6.171875 22.890625 6.171875 22.890625 6.351562 22.910156 C 6.894531 22.980469 6.894531 22.980469 7.125 23.15625 C 7.203125 23.34375 7.203125 23.34375 7.21875 23.53125 C 7.1875 23.59375 7.15625 23.65625 7.125 23.71875 C 6.792969 23.730469 6.527344 23.738281 6.214844 23.625 C 5.835938 23.511719 5.507812 23.503906 5.117188 23.507812 C 5.046875 23.507812 4.980469 23.507812 4.910156 23.503906 C 4.460938 23.507812 4.085938 23.585938 3.65625 23.71875 C 3.4375 23.726562 3.21875 23.726562 3 23.71875 C 3 23.53125 3 23.347656 3 23.15625 C 3.371094 23.03125 3.742188 22.910156 4.125 22.78125 C 4.15625 22.535156 4.1875 22.285156 4.21875 22.03125 C 2.917969 22.03125 1.621094 22.03125 0.28125 22.03125 C 0.277344 20.46875 0.277344 20.46875 0.277344 19.804688 C 0.277344 19.347656 0.273438 18.894531 0.273438 18.441406 C 0.273438 18.074219 0.273438 17.707031 0.273438 17.34375 C 0.273438 17.203125 0.273438 17.0625 0.269531 16.921875 C 0.269531 16.726562 0.269531 16.53125 0.269531 16.335938 C 0.269531 16.226562 0.269531 16.113281 0.269531 16 C 0.292969 15.519531 0.570312 15.644531 0.988281 15.644531 Z M 0.84375 16.21875 C 0.84375 17.578125 0.84375 18.941406 0.84375 20.34375 C 3.628906 20.34375 6.414062 20.34375 9.28125 20.34375 C 9.28125 18.980469 9.28125 17.621094 9.28125 16.21875 C 6.496094 16.21875 3.710938 16.21875 0.84375 16.21875 Z M 0.84375 16.21875 "/>
<path style=" stroke:none;fill-rule:nonzero;fill:rgb(27.058825%,37.64706%,49.411765%);fill-opacity:1;" d="M 14.71875 5.4375 C 17.503906 5.4375 20.289062 5.4375 23.15625 5.4375 C 23.15625 5.652344 23.15625 5.871094 23.15625 6.09375 C 20.371094 6.09375 17.585938 6.09375 14.71875 6.09375 C 14.71875 5.878906 14.71875 5.660156 14.71875 5.4375 Z M 14.71875 5.4375 "/>
<path style=" stroke:none;fill-rule:nonzero;fill:rgb(0%,0%,0%);fill-opacity:1;" d="M 4.78125 5.625 C 4.980469 5.589844 4.980469 5.589844 5.25 5.625 C 5.472656 5.789062 5.65625 5.984375 5.839844 6.1875 C 5.917969 6.269531 5.917969 6.269531 6 6.351562 C 6.125 6.484375 6.25 6.617188 6.375 6.75 C 6.707031 6.46875 7.03125 6.191406 7.324219 5.871094 C 7.59375 5.625 7.59375 5.625 7.863281 5.589844 C 7.960938 5.605469 7.960938 5.605469 8.0625 5.625 C 8.144531 5.824219 8.144531 5.824219 8.15625 6.09375 C 8 6.324219 7.804688 6.5 7.597656 6.683594 C 7.519531 6.761719 7.519531 6.761719 7.433594 6.84375 C 7.300781 6.96875 7.167969 7.09375 7.03125 7.21875 C 7.21875 7.6875 7.605469 7.96875 7.96875 8.300781 C 8.15625 8.53125 8.15625 8.53125 8.136719 8.746094 C 8.0625 8.90625 8.0625 8.90625 7.863281 8.988281 C 7.59375 9 7.59375 9 7.449219 8.902344 C 7.292969 8.753906 7.148438 8.601562 7.003906 8.441406 C 6.925781 8.363281 6.925781 8.363281 6.84375 8.277344 C 6.71875 8.144531 6.59375 8.011719 6.46875 7.875 C 6.132812 8.15625 5.8125 8.433594 5.519531 8.761719 C 5.25 9 5.25 9 4.980469 8.988281 C 4.882812 8.949219 4.882812 8.949219 4.78125 8.90625 C 4.71875 8.738281 4.71875 8.738281 4.6875 8.53125 C 4.867188 8.316406 5.039062 8.132812 5.246094 7.945312 C 5.296875 7.894531 5.351562 7.839844 5.410156 7.789062 C 5.542969 7.660156 5.675781 7.53125 5.8125 7.40625 C 5.625 6.941406 5.242188 6.660156 4.875 6.332031 C 4.6875 6.09375 4.6875 6.09375 4.707031 5.828125 C 4.730469 5.761719 4.757812 5.695312 4.78125 5.625 Z M 4.78125 5.625 "/>
<path style=" stroke:none;fill-rule:nonzero;fill:rgb(0%,0%,0%);fill-opacity:1;" d="M 16.03125 13.3125 C 16.378906 13.316406 16.503906 13.410156 16.769531 13.640625 C 16.863281 13.734375 16.953125 13.832031 17.042969 13.925781 C 17.089844 13.976562 17.140625 14.023438 17.1875 14.074219 C 17.304688 14.195312 17.417969 14.316406 17.53125 14.4375 C 17.867188 14.15625 18.1875 13.878906 18.480469 13.558594 C 18.75 13.3125 18.75 13.3125 19.019531 13.277344 C 19.117188 13.292969 19.117188 13.292969 19.21875 13.3125 C 19.300781 13.511719 19.300781 13.511719 19.3125 13.78125 C 19.15625 14.011719 18.960938 14.1875 18.753906 14.371094 C 18.675781 14.449219 18.675781 14.449219 18.589844 14.53125 C 18.457031 14.65625 18.324219 14.78125 18.1875 14.90625 C 18.375 15.371094 18.757812 15.652344 19.125 15.980469 C 19.3125 16.21875 19.3125 16.21875 19.292969 16.484375 C 19.257812 16.585938 19.257812 16.585938 19.21875 16.6875 C 19.019531 16.722656 19.019531 16.722656 18.75 16.6875 C 18.527344 16.523438 18.34375 16.328125 18.160156 16.125 C 18.105469 16.070312 18.054688 16.019531 18 15.960938 C 17.875 15.828125 17.75 15.695312 17.625 15.5625 C 17.289062 15.84375 16.96875 16.121094 16.675781 16.449219 C 16.40625 16.6875 16.40625 16.6875 16.136719 16.675781 C 16.039062 16.636719 16.039062 16.636719 15.9375 16.59375 C 15.890625 16.453125 15.890625 16.453125 15.84375 16.3125 C 15.960938 16.136719 15.960938 16.136719 16.136719 15.949219 C 16.195312 15.882812 16.257812 15.820312 16.320312 15.75 C 16.53125 15.527344 16.746094 15.308594 16.96875 15.09375 C 16.789062 14.660156 16.460938 14.398438 16.125 14.082031 C 15.941406 13.878906 15.859375 13.773438 15.84375 13.5 C 15.90625 13.4375 15.96875 13.375 16.03125 13.3125 Z M 16.03125 13.3125 "/>
<path style=" stroke:none;fill-rule:nonzero;fill:rgb(30.19608%,41.568628%,54.509807%);fill-opacity:1;" d="M 0.84375 20.90625 C 3.628906 20.90625 6.414062 20.90625 9.28125 20.90625 C 9.28125 21.09375 9.28125 21.277344 9.28125 21.46875 C 6.496094 21.46875 3.710938 21.46875 0.84375 21.46875 C 0.84375 21.28125 0.84375 21.097656 0.84375 20.90625 Z M 0.84375 20.90625 "/>
<path style=" stroke:none;fill-rule:nonzero;fill:rgb(88.235295%,76.862746%,40.784314%);fill-opacity:1;" d="M 12 10.347656 C 12.382812 10.425781 12.519531 10.5625 12.75 10.875 C 12.808594 11.15625 12.808594 11.15625 12.75 11.4375 C 12.519531 11.75 12.382812 11.886719 12 11.964844 C 11.617188 11.886719 11.480469 11.75 11.25 11.4375 C 11.191406 11.15625 11.191406 11.15625 11.25 10.875 C 11.480469 10.5625 11.617188 10.425781 12 10.347656 Z M 12 10.347656 "/>
<path style=" stroke:none;fill-rule:nonzero;fill:rgb(88.627452%,77.254903%,41.176471%);fill-opacity:1;" d="M 1.59375 6.503906 C 1.976562 6.582031 2.113281 6.71875 2.34375 7.03125 C 2.402344 7.3125 2.402344 7.3125 2.34375 7.59375 C 2.113281 7.90625 1.976562 8.042969 1.59375 8.121094 C 1.210938 8.042969 1.074219 7.90625 0.84375 7.59375 C 0.785156 7.3125 0.785156 7.3125 0.84375 7.03125 C 1.074219 6.71875 1.210938 6.582031 1.59375 6.503906 Z M 1.59375 6.503906 "/>
<path style=" stroke:none;fill-rule:nonzero;fill:rgb(89.019608%,77.254903%,41.176471%);fill-opacity:1;" d="M 22.40625 14.191406 C 22.789062 14.269531 22.925781 14.40625 23.15625 14.71875 C 23.214844 15 23.214844 15 23.15625 15.28125 C 22.925781 15.59375 22.789062 15.730469 22.40625 15.808594 C 22.023438 15.730469 21.886719 15.59375 21.65625 15.28125 C 21.597656 15 21.597656 15 21.65625 14.71875 C 21.886719 14.40625 22.023438 14.269531 22.40625 14.191406 Z M 22.40625 14.191406 "/>
<path style=" stroke:none;fill-rule:nonzero;fill:rgb(26.666668%,36.078432%,48.627451%);fill-opacity:1;" d="M 4.78125 22.03125 C 4.96875 22.03125 5.152344 22.03125 5.34375 22.03125 C 5.34375 22.277344 5.34375 22.527344 5.34375 22.78125 C 5.15625 22.78125 4.972656 22.78125 4.78125 22.78125 C 4.78125 22.535156 4.78125 22.285156 4.78125 22.03125 Z M 4.78125 22.03125 "/>
<path style=" stroke:none;fill-rule:nonzero;fill:rgb(26.666668%,36.470589%,48.627451%);fill-opacity:1;" d="M 18.65625 6.65625 C 18.84375 6.65625 19.027344 6.65625 19.21875 6.65625 C 19.21875 6.902344 19.21875 7.152344 19.21875 7.40625 C 19.03125 7.40625 18.847656 7.40625 18.65625 7.40625 C 18.65625 7.160156 18.65625 6.910156 18.65625 6.65625 Z M 18.65625 6.65625 "/>
</g>
</svg>
